<?xml version="1.0" encoding="UTF-8" standalone="no"?>
<!DOCTYPE svg PUBLIC "-//W3C//DTD SVG 1.1//EN"
 "http://www.w3.org/Graphics/SVG/1.1/DTD/svg11.dtd">
<!-- Generated by graphviz version 2.38.0 (20140413.2041)
 -->
<!-- Title: interpreter/BasicContentExecutor.cpp Pages: 1 -->
<!--zoomable 520 -->
<svg id="main" version="1.1" xmlns="http://www.w3.org/2000/svg" xmlns:xlink="http://www.w3.org/1999/xlink" xml:space="preserve" onload="init(evt)">
<style type="text/css"><![CDATA[
.edge:hover path { stroke: red; }
.edge:hover polygon { stroke: red; fill: red; }
]]></style>
<script type="text/javascript"><![CDATA[
var edges = document.getElementsByTagName('g');
if (edges && edges.length) {
  for (var i=0;i<edges.length;i++) {
    if (edges[i].id.substr(0,4)=='edge') {
      edges[i].setAttribute('class','edge');
    }
  }
}
]]></script>
        <defs>
                <circle id="rim" cx="0" cy="0" r="7"/>
                <circle id="rim2" cx="0" cy="0" r="3.5"/>
                <g id="zoomPlus">
                        <use xlink:href="#rim" fill="#404040">
                                <set attributeName="fill" to="#808080" begin="zoomplus.mouseover" end="zoomplus.mouseout"/>
                        </use>
                        <path d="M-4,0h8M0,-4v8" fill="none" stroke="white" stroke-width="1.5" pointer-events="none"/>
                </g>
                <g id="zoomMin">
                        <use xlink:href="#rim" fill="#404040">
                                <set attributeName="fill" to="#808080" begin="zoomminus.mouseover" end="zoomminus.mouseout"/>
                        </use>
                        <path d="M-4,0h8" fill="none" stroke="white" stroke-width="1.5" pointer-events="none"/>
                </g>
                <g id="dirArrow">
                        <path fill="none" stroke="white" stroke-width="1.5" d="M0,-3.0v7 M-2.5,-0.5L0,-3.0L2.5,-0.5"/>
                </g>
               <g id="resetDef">
                       <use xlink:href="#rim2" fill="#404040">
                               <set attributeName="fill" to="#808080" begin="reset.mouseover" end="reset.mouseout"/>
                       </use>
               </g>
        </defs>

<script type="text/javascript">
var viewWidth = 2005;
var viewHeight = 520;
var sectionId = 'dynsection-0';
</script>
<script xlink:href="svgpan.js"/>
<svg id="graph" class="graph">
<g id="viewport">
<title>interpreter/BasicContentExecutor.cpp</title>
<polygon fill="white" stroke="none" points="-4,4 -4,-516 2000.97,-516 2000.97,4 -4,4"/>
<!-- Node1 -->
<g id="node1" class="node"><title>Node1</title>
<polygon fill="#bfbfbf" stroke="black" points="1260.97,-481.5 1260.97,-511.5 1384.97,-511.5 1384.97,-481.5 1260.97,-481.5"/>
<text text-anchor="start" x="1268.97" y="-499.5" font-family="Helvetica,sans-Serif" font-size="10.00">interpreter/BasicContent</text>
<text text-anchor="middle" x="1322.97" y="-488.5" font-family="Helvetica,sans-Serif" font-size="10.00">Executor.cpp</text>
</g>
<!-- Node2 -->
<g id="node2" class="node"><title>Node2</title>
<g id="a_node2"><a xlink:href="_basic_content_executor_8h.html" target="_top" xlink:title="BasicContentExecutor.h">
<polygon fill="white" stroke="black" points="542.972,-420 542.972,-439 666.972,-439 666.972,-420 542.972,-420"/>
<text text-anchor="middle" x="604.972" y="-427" font-family="Helvetica,sans-Serif" font-size="10.00">BasicContentExecutor.h</text>
</a>
</g>
</g>
<!-- Node1&#45;&gt;Node2 -->
<g id="edge1" class="edge"><title>Node1&#45;&gt;Node2</title>
<path fill="none" stroke="midnightblue" d="M1260.82,-489.874C1128.3,-477.876 818.541,-449.834 677.377,-437.055"/>
<polygon fill="midnightblue" stroke="midnightblue" points="677.376,-433.541 667.102,-436.125 676.745,-440.512 677.376,-433.541"/>
</g>
<!-- Node13 -->
<g id="node13" class="node"><title>Node13</title>
<polygon fill="white" stroke="#bfbfbf" points="51.4716,-112.5 51.4716,-131.5 170.472,-131.5 170.472,-112.5 51.4716,-112.5"/>
<text text-anchor="middle" x="110.972" y="-119.5" font-family="Helvetica,sans-Serif" font-size="10.00">xercesc/dom/DOM.hpp</text>
</g>
<!-- Node1&#45;&gt;Node13 -->
<g id="edge67" class="edge"><title>Node1&#45;&gt;Node13</title>
<path fill="none" stroke="midnightblue" d="M1260.75,-494.274C1099.59,-490.66 671.586,-478.14 533.972,-445 355.786,-402.091 299.087,-383.062 167.972,-255 144.521,-232.095 133.136,-229.021 119.972,-199 111.985,-180.788 110.261,-157.893 110.207,-142.016"/>
<polygon fill="midnightblue" stroke="midnightblue" points="113.709,-141.927 110.396,-131.863 106.71,-141.796 113.709,-141.927"/>
</g>
<!-- Node23 -->
<g id="node23" class="node"><title>Node23</title>
<g id="a_node23"><a xlink:href="_u_u_i_d_8h.html" target="_top" xlink:title="uscxml/util/UUID.h">
<polygon fill="white" stroke="black" points="1214.47,-174 1214.47,-193 1313.47,-193 1313.47,-174 1214.47,-174"/>
<text text-anchor="middle" x="1263.97" y="-181" font-family="Helvetica,sans-Serif" font-size="10.00">uscxml/util/UUID.h</text>
</a>
</g>
</g>
<!-- Node1&#45;&gt;Node23 -->
<g id="edge54" class="edge"><title>Node1&#45;&gt;Node23</title>
<path fill="none" stroke="midnightblue" d="M1319.4,-481.187C1313.89,-457.852 1303.97,-410.085 1303.97,-369 1303.97,-369 1303.97,-369 1303.97,-305.5 1303.97,-267.147 1285.63,-225.254 1273.79,-202.201"/>
<polygon fill="midnightblue" stroke="midnightblue" points="1276.83,-200.459 1269.04,-193.276 1270.65,-203.748 1276.83,-200.459"/>
</g>
<!-- Node27 -->
<g id="node27" class="node"><title>Node27</title>
<g id="a_node27"><a xlink:href="_string_8h.html" target="_top" xlink:title="uscxml/util/String.h">
<polygon fill="white" stroke="black" points="1407.97,-174 1407.97,-193 1507.97,-193 1507.97,-174 1407.97,-174"/>
<text text-anchor="middle" x="1457.97" y="-181" font-family="Helvetica,sans-Serif" font-size="10.00">uscxml/util/String.h</text>
</a>
</g>
</g>
<!-- Node1&#45;&gt;Node27 -->
<g id="edge45" class="edge"><title>Node1&#45;&gt;Node27</title>
<path fill="none" stroke="midnightblue" d="M1329.12,-481.329C1351.07,-430.758 1425.55,-259.181 1450.07,-202.696"/>
<polygon fill="midnightblue" stroke="midnightblue" points="1453.39,-203.839 1454.16,-193.272 1446.97,-201.051 1453.39,-203.839"/>
</g>
<!-- Node28 -->
<g id="node28" class="node"><title>Node28</title>
<g id="a_node28"><a xlink:href="_predicates_8h.html" target="_top" xlink:title="uscxml/util/Predicates.h">
<polygon fill="white" stroke="black" points="532.972,-235.5 532.972,-254.5 654.972,-254.5 654.972,-235.5 532.972,-235.5"/>
<text text-anchor="middle" x="593.972" y="-242.5" font-family="Helvetica,sans-Serif" font-size="10.00">uscxml/util/Predicates.h</text>
</a>
</g>
</g>
<!-- Node1&#45;&gt;Node28 -->
<g id="edge48" class="edge"><title>Node1&#45;&gt;Node28</title>
<path fill="none" stroke="midnightblue" d="M1281.95,-481.461C1151.73,-436.892 749.151,-299.11 628.494,-257.815"/>
<polygon fill="midnightblue" stroke="midnightblue" points="629.593,-254.492 618.999,-254.566 627.327,-261.115 629.593,-254.492"/>
</g>
<!-- Node29 -->
<g id="node29" class="node"><title>Node29</title>
<g id="a_node29"><a xlink:href="_u_r_l_8h.html" target="_top" xlink:title="uscxml/util/URL.h">
<polygon fill="white" stroke="black" points="1014.97,-297 1014.97,-316 1108.97,-316 1108.97,-297 1014.97,-297"/>
<text text-anchor="middle" x="1061.97" y="-304" font-family="Helvetica,sans-Serif" font-size="10.00">uscxml/util/URL.h</text>
</a>
</g>
</g>
<!-- Node1&#45;&gt;Node29 -->
<g id="edge55" class="edge"><title>Node1&#45;&gt;Node29</title>
<path fill="none" stroke="midnightblue" d="M1303.35,-481.369C1255.14,-446.641 1131.22,-357.383 1082.29,-322.134"/>
<polygon fill="midnightblue" stroke="midnightblue" points="1084.22,-319.211 1074.06,-316.206 1080.13,-324.891 1084.22,-319.211"/>
</g>
<!-- Node34 -->
<g id="node34" class="node"><title>Node34</title>
<polygon fill="white" stroke="#bfbfbf" points="1370.47,-420 1370.47,-439 1563.47,-439 1563.47,-420 1370.47,-420"/>
<text text-anchor="middle" x="1466.97" y="-427" font-family="Helvetica,sans-Serif" font-size="10.00">xercesc/parsers/XercesDOMParser.hpp</text>
</g>
<!-- Node1&#45;&gt;Node34 -->
<g id="edge68" class="edge"><title>Node1&#45;&gt;Node34</title>
<path fill="none" stroke="midnightblue" d="M1354.22,-481.396C1379.37,-470.041 1414.42,-454.22 1438.74,-443.244"/>
<polygon fill="midnightblue" stroke="midnightblue" points="1440.45,-446.311 1448.13,-439.007 1437.57,-439.931 1440.45,-446.311"/>
</g>
<!-- Node35 -->
<g id="node35" class="node"><title>Node35</title>
<polygon fill="white" stroke="#bfbfbf" points="1581.47,-420 1581.47,-439 1730.47,-439 1730.47,-420 1581.47,-420"/>
<text text-anchor="middle" x="1655.97" y="-427" font-family="Helvetica,sans-Serif" font-size="10.00">xercesc/sax/HandlerBase.hpp</text>
</g>
<!-- Node1&#45;&gt;Node35 -->
<g id="edge69" class="edge"><title>Node1&#45;&gt;Node35</title>
<path fill="none" stroke="midnightblue" d="M1385.22,-483.35C1447.68,-471.158 1542.89,-452.572 1602.18,-441"/>
<polygon fill="midnightblue" stroke="midnightblue" points="1602.95,-444.416 1612.09,-439.065 1601.61,-437.546 1602.95,-444.416"/>
</g>
<!-- Node36 -->
<g id="node36" class="node"><title>Node36</title>
<polygon fill="white" stroke="#bfbfbf" points="1748.97,-414.5 1748.97,-444.5 1888.97,-444.5 1888.97,-414.5 1748.97,-414.5"/>
<text text-anchor="start" x="1756.97" y="-432.5" font-family="Helvetica,sans-Serif" font-size="10.00">xercesc/framework/MemBuf</text>
<text text-anchor="middle" x="1818.97" y="-421.5" font-family="Helvetica,sans-Serif" font-size="10.00">InputSource.hpp</text>
</g>
<!-- Node1&#45;&gt;Node36 -->
<g id="edge70" class="edge"><title>Node1&#45;&gt;Node36</title>
<path fill="none" stroke="midnightblue" d="M1385.3,-489.151C1464.89,-480.777 1607.08,-464.921 1738.55,-445.162"/>
<polygon fill="midnightblue" stroke="midnightblue" points="1739.43,-448.567 1748.8,-443.61 1738.39,-441.646 1739.43,-448.567"/>
</g>
<!-- Node37 -->
<g id="node37" class="node"><title>Node37</title>
<polygon fill="white" stroke="#bfbfbf" points="1906.97,-420 1906.97,-439 1996.97,-439 1996.97,-420 1906.97,-420"/>
<text text-anchor="middle" x="1951.97" y="-427" font-family="Helvetica,sans-Serif" font-size="10.00">easylogging++.h</text>
</g>
<!-- Node1&#45;&gt;Node37 -->
<g id="edge71" class="edge"><title>Node1&#45;&gt;Node37</title>
<path fill="none" stroke="midnightblue" d="M1385.13,-493.597C1491.09,-489.562 1713.19,-477.664 1897.97,-445 1903.16,-444.084 1908.57,-442.905 1913.88,-441.616"/>
<polygon fill="midnightblue" stroke="midnightblue" points="1915.06,-444.924 1923.87,-439.041 1913.32,-438.145 1915.06,-444.924"/>
</g>
<!-- Node3 -->
<g id="node3" class="node"><title>Node3</title>
<g id="a_node3"><a xlink:href="_content_executor_impl_8h.html" target="_top" xlink:title="ContentExecutorImpl.h">
<polygon fill="white" stroke="black" points="407.972,-358.5 407.972,-377.5 525.972,-377.5 525.972,-358.5 407.972,-358.5"/>
<text text-anchor="middle" x="466.972" y="-365.5" font-family="Helvetica,sans-Serif" font-size="10.00">ContentExecutorImpl.h</text>
</a>
</g>
</g>
<!-- Node2&#45;&gt;Node3 -->
<g id="edge2" class="edge"><title>Node2&#45;&gt;Node3</title>
<path fill="none" stroke="midnightblue" d="M585.2,-419.975C561.835,-409.901 522.757,-393.053 495.969,-381.502"/>
<polygon fill="midnightblue" stroke="midnightblue" points="497.276,-378.254 486.707,-377.509 494.504,-384.682 497.276,-378.254"/>
</g>
<!-- Node4 -->
<g id="node4" class="node"><title>Node4</title>
<g id="a_node4"><a xlink:href="_common_8h.html" target="_top" xlink:title="uscxml/Common.h">
<polygon fill="white" stroke="black" points="604.472,-56.5 604.472,-75.5 703.472,-75.5 703.472,-56.5 604.472,-56.5"/>
<text text-anchor="middle" x="653.972" y="-63.5" font-family="Helvetica,sans-Serif" font-size="10.00">uscxml/Common.h</text>
</a>
</g>
</g>
<!-- Node3&#45;&gt;Node4 -->
<g id="edge3" class="edge"><title>Node3&#45;&gt;Node4</title>
<path fill="none" stroke="midnightblue" d="M407.97,-358.594C363.767,-351.381 302.175,-339.376 249.972,-322 120.492,-278.903 -69.65,-209.36 25.9716,-112 65.2403,-72.0175 444.606,-67.2156 593.974,-66.8872"/>
<polygon fill="midnightblue" stroke="midnightblue" points="594.329,-70.3868 604.324,-66.8709 594.318,-63.3868 594.329,-70.3868"/>
</g>
<!-- Node7 -->
<g id="node7" class="node"><title>Node7</title>
<g id="a_node7"><a xlink:href="_d_o_m_8h.html" target="_top" xlink:title="uscxml/util/DOM.h">
<polygon fill="white" stroke="black" points="417.972,-174 417.972,-193 515.972,-193 515.972,-174 417.972,-174"/>
<text text-anchor="middle" x="466.972" y="-181" font-family="Helvetica,sans-Serif" font-size="10.00">uscxml/util/DOM.h</text>
</a>
</g>
</g>
<!-- Node3&#45;&gt;Node7 -->
<g id="edge6" class="edge"><title>Node3&#45;&gt;Node7</title>
<path fill="none" stroke="midnightblue" d="M466.972,-358.198C466.972,-330.193 466.972,-242.713 466.972,-203.66"/>
<polygon fill="midnightblue" stroke="midnightblue" points="470.472,-203.214 466.972,-193.214 463.472,-203.214 470.472,-203.214"/>
</g>
<!-- Node3&#45;&gt;Node13 -->
<g id="edge43" class="edge"><title>Node3&#45;&gt;Node13</title>
<path fill="none" stroke="midnightblue" d="M427.417,-358.482C396.88,-351.083 354.059,-338.889 318.972,-322 231.996,-280.135 199.659,-274.861 139.972,-199 126.633,-182.046 118.887,-158.267 114.809,-141.843"/>
<polygon fill="midnightblue" stroke="midnightblue" points="118.163,-140.806 112.548,-131.822 111.335,-142.347 118.163,-140.806"/>
</g>
<!-- Node14 -->
<g id="node14" class="node"><title>Node14</title>
<g id="a_node14"><a xlink:href="_event_8h.html" target="_top" xlink:title="uscxml/messages/Event.h">
<polygon fill="white" stroke="black" points="711.472,-235.5 711.472,-254.5 844.472,-254.5 844.472,-235.5 711.472,-235.5"/>
<text text-anchor="middle" x="777.972" y="-242.5" font-family="Helvetica,sans-Serif" font-size="10.00">uscxml/messages/Event.h</text>
</a>
</g>
</g>
<!-- Node3&#45;&gt;Node14 -->
<g id="edge14" class="edge"><title>Node3&#45;&gt;Node14</title>
<path fill="none" stroke="midnightblue" d="M488.84,-358.492C542.912,-337.454 683.068,-282.924 746.255,-258.34"/>
<polygon fill="midnightblue" stroke="midnightblue" points="747.66,-261.549 755.711,-254.661 745.122,-255.025 747.66,-261.549"/>
</g>
<!-- Node19 -->
<g id="node19" class="node"><title>Node19</title>
<polygon fill="white" stroke="#bfbfbf" points="1243.47,-56.5 1243.47,-75.5 1284.47,-75.5 1284.47,-56.5 1243.47,-56.5"/>
<text text-anchor="middle" x="1263.97" y="-63.5" font-family="Helvetica,sans-Serif" font-size="10.00">string</text>
</g>
<!-- Node3&#45;&gt;Node19 -->
<g id="edge44" class="edge"><title>Node3&#45;&gt;Node19</title>
<path fill="none" stroke="midnightblue" d="M526.173,-365.406C728.489,-359.185 1379.97,-332.442 1379.97,-246 1379.97,-246 1379.97,-246 1379.97,-182.5 1379.97,-133.403 1327.14,-97.972 1292.79,-80.121"/>
<polygon fill="midnightblue" stroke="midnightblue" points="1294.16,-76.8928 1283.65,-75.5556 1291.03,-83.1551 1294.16,-76.8928"/>
</g>
<!-- Node24 -->
<g id="node24" class="node"><title>Node24</title>
<g id="a_node24"><a xlink:href="_interpreter_monitor_8h.html" target="_top" xlink:title="uscxml/interpreter\l/InterpreterMonitor.h">
<polygon fill="white" stroke="black" points="328.472,-291.5 328.472,-321.5 435.472,-321.5 435.472,-291.5 328.472,-291.5"/>
<text text-anchor="start" x="336.472" y="-309.5" font-family="Helvetica,sans-Serif" font-size="10.00">uscxml/interpreter</text>
<text text-anchor="middle" x="381.972" y="-298.5" font-family="Helvetica,sans-Serif" font-size="10.00">/InterpreterMonitor.h</text>
</a>
</g>
</g>
<!-- Node3&#45;&gt;Node24 -->
<g id="edge33" class="edge"><title>Node3&#45;&gt;Node24</title>
<path fill="none" stroke="midnightblue" d="M454.793,-358.475C443.281,-350.417 425.576,-338.023 410.506,-327.474"/>
<polygon fill="midnightblue" stroke="midnightblue" points="412.204,-324.39 402.004,-321.523 408.19,-330.125 412.204,-324.39"/>
</g>
<!-- Node5 -->
<g id="node5" class="node"><title>Node5</title>
<polygon fill="white" stroke="#bfbfbf" points="579.972,-0.5 579.972,-19.5 651.972,-19.5 651.972,-0.5 579.972,-0.5"/>
<text text-anchor="middle" x="615.972" y="-7.5" font-family="Helvetica,sans-Serif" font-size="10.00">sys/socket.h</text>
</g>
<!-- Node4&#45;&gt;Node5 -->
<g id="edge4" class="edge"><title>Node4&#45;&gt;Node5</title>
<path fill="none" stroke="midnightblue" d="M647.697,-56.083C642.329,-48.4554 634.454,-37.2645 627.893,-27.9408"/>
<polygon fill="midnightblue" stroke="midnightblue" points="630.747,-25.9149 622.13,-19.7511 625.022,-29.9434 630.747,-25.9149"/>
</g>
<!-- Node6 -->
<g id="node6" class="node"><title>Node6</title>
<polygon fill="white" stroke="#bfbfbf" points="669.972,-0.5 669.972,-19.5 713.972,-19.5 713.972,-0.5 669.972,-0.5"/>
<text text-anchor="middle" x="691.972" y="-7.5" font-family="Helvetica,sans-Serif" font-size="10.00">cmath</text>
</g>
<!-- Node4&#45;&gt;Node6 -->
<g id="edge5" class="edge"><title>Node4&#45;&gt;Node6</title>
<path fill="none" stroke="midnightblue" d="M660.246,-56.083C665.614,-48.4554 673.489,-37.2645 680.05,-27.9408"/>
<polygon fill="midnightblue" stroke="midnightblue" points="682.921,-29.9434 685.813,-19.7511 677.196,-25.9149 682.921,-29.9434"/>
</g>
<!-- Node7&#45;&gt;Node4 -->
<g id="edge11" class="edge"><title>Node7&#45;&gt;Node4</title>
<path fill="none" stroke="midnightblue" d="M457.149,-173.96C442.175,-159.921 416.982,-131.574 432.972,-112 452.981,-87.506 535.745,-76.0058 594.093,-70.854"/>
<polygon fill="midnightblue" stroke="midnightblue" points="594.648,-74.3197 604.319,-69.9932 594.061,-67.3443 594.648,-74.3197"/>
</g>
<!-- Node8 -->
<g id="node8" class="node"><title>Node8</title>
<polygon fill="white" stroke="#bfbfbf" points="595.972,-112.5 595.972,-131.5 625.972,-131.5 625.972,-112.5 595.972,-112.5"/>
<text text-anchor="middle" x="610.972" y="-119.5" font-family="Helvetica,sans-Serif" font-size="10.00">set</text>
</g>
<!-- Node7&#45;&gt;Node8 -->
<g id="edge7" class="edge"><title>Node7&#45;&gt;Node8</title>
<path fill="none" stroke="midnightblue" d="M487.603,-173.975C513.646,-163.214 558.397,-144.723 586.243,-133.218"/>
<polygon fill="midnightblue" stroke="midnightblue" points="587.766,-136.375 595.672,-129.322 585.093,-129.906 587.766,-136.375"/>
</g>
<!-- Node9 -->
<g id="node9" class="node"><title>Node9</title>
<polygon fill="white" stroke="#bfbfbf" points="682.472,-112.5 682.472,-131.5 711.472,-131.5 711.472,-112.5 682.472,-112.5"/>
<text text-anchor="middle" x="696.972" y="-119.5" font-family="Helvetica,sans-Serif" font-size="10.00">list</text>
</g>
<!-- Node7&#45;&gt;Node9 -->
<g id="edge8" class="edge"><title>Node7&#45;&gt;Node9</title>
<path fill="none" stroke="midnightblue" d="M499.925,-173.975C546.66,-161.885 631.116,-140.036 672.617,-129.301"/>
<polygon fill="midnightblue" stroke="midnightblue" points="673.62,-132.656 682.425,-126.763 671.867,-125.879 673.62,-132.656"/>
</g>
<!-- Node10 -->
<g id="node10" class="node"><title>Node10</title>
<polygon fill="white" stroke="#bfbfbf" points="227.472,-112.5 227.472,-131.5 282.472,-131.5 282.472,-112.5 227.472,-112.5"/>
<text text-anchor="middle" x="254.972" y="-119.5" font-family="Helvetica,sans-Serif" font-size="10.00">iostream</text>
</g>
<!-- Node7&#45;&gt;Node10 -->
<g id="edge9" class="edge"><title>Node7&#45;&gt;Node10</title>
<path fill="none" stroke="midnightblue" d="M436.597,-173.975C398.52,-163.288 333.275,-144.977 292.224,-133.455"/>
<polygon fill="midnightblue" stroke="midnightblue" points="293.165,-130.084 282.592,-130.752 291.274,-136.824 293.165,-130.084"/>
</g>
<!-- Node11 -->
<g id="node11" class="node"><title>Node11</title>
<polygon fill="white" stroke="#bfbfbf" points="300.472,-112.5 300.472,-131.5 385.472,-131.5 385.472,-112.5 300.472,-112.5"/>
<text text-anchor="middle" x="342.972" y="-119.5" font-family="Helvetica,sans-Serif" font-size="10.00">uscxml/config.h</text>
</g>
<!-- Node7&#45;&gt;Node11 -->
<g id="edge10" class="edge"><title>Node7&#45;&gt;Node11</title>
<path fill="none" stroke="midnightblue" d="M449.205,-173.975C428.487,-164.034 394.019,-147.495 369.983,-135.961"/>
<polygon fill="midnightblue" stroke="midnightblue" points="371.235,-132.68 360.705,-131.509 368.206,-138.991 371.235,-132.68"/>
</g>
<!-- Node12 -->
<g id="node12" class="node"><title>Node12</title>
<polygon fill="white" stroke="#bfbfbf" points="442.472,-112.5 442.472,-131.5 577.472,-131.5 577.472,-112.5 442.472,-112.5"/>
<text text-anchor="middle" x="509.972" y="-119.5" font-family="Helvetica,sans-Serif" font-size="10.00">xercesc/util/XMLString.hpp</text>
</g>
<!-- Node7&#45;&gt;Node12 -->
<g id="edge12" class="edge"><title>Node7&#45;&gt;Node12</title>
<path fill="none" stroke="midnightblue" d="M473.132,-173.975C479.582,-165.05 489.876,-150.807 497.944,-139.643"/>
<polygon fill="midnightblue" stroke="midnightblue" points="500.801,-141.664 503.822,-131.509 495.128,-137.564 500.801,-141.664"/>
</g>
<!-- Node7&#45;&gt;Node13 -->
<g id="edge13" class="edge"><title>Node7&#45;&gt;Node13</title>
<path fill="none" stroke="midnightblue" d="M417.845,-174.289C353.669,-163.563 241.322,-144.786 171.826,-133.171"/>
<polygon fill="midnightblue" stroke="midnightblue" points="172.334,-129.707 161.894,-131.511 171.18,-136.612 172.334,-129.707"/>
</g>
<!-- Node15 -->
<g id="node15" class="node"><title>Node15</title>
<g id="a_node15"><a xlink:href="_data_8h.html" target="_top" xlink:title="uscxml/messages/Data.h">
<polygon fill="white" stroke="black" points="713.972,-174 713.972,-193 841.972,-193 841.972,-174 713.972,-174"/>
<text text-anchor="middle" x="777.972" y="-181" font-family="Helvetica,sans-Serif" font-size="10.00">uscxml/messages/Data.h</text>
</a>
</g>
</g>
<!-- Node14&#45;&gt;Node15 -->
<g id="edge15" class="edge"><title>Node14&#45;&gt;Node15</title>
<path fill="none" stroke="midnightblue" d="M777.972,-235.475C777.972,-227.08 777.972,-213.981 777.972,-203.163"/>
<polygon fill="midnightblue" stroke="midnightblue" points="781.472,-203.009 777.972,-193.009 774.472,-203.009 781.472,-203.009"/>
</g>
<!-- Node14&#45;&gt;Node23 -->
<g id="edge30" class="edge"><title>Node14&#45;&gt;Node23</title>
<path fill="none" stroke="midnightblue" d="M844.707,-237.842C945.888,-228.342 1133.37,-210.056 1199.97,-199 1206.31,-197.947 1212.97,-196.653 1219.5,-195.277"/>
<polygon fill="midnightblue" stroke="midnightblue" points="1220.56,-198.628 1229.57,-193.067 1219.06,-191.79 1220.56,-198.628"/>
</g>
<!-- Node15&#45;&gt;Node4 -->
<g id="edge20" class="edge"><title>Node15&#45;&gt;Node4</title>
<path fill="none" stroke="midnightblue" d="M771.897,-173.575C762.044,-159.486 741.5,-131.673 719.972,-112 707.12,-100.256 691.003,-89.2095 677.912,-81"/>
<polygon fill="midnightblue" stroke="midnightblue" points="679.363,-77.7846 669.005,-75.5543 675.711,-83.7568 679.363,-77.7846"/>
</g>
<!-- Node15&#45;&gt;Node9 -->
<g id="edge16" class="edge"><title>Node15&#45;&gt;Node9</title>
<path fill="none" stroke="midnightblue" d="M766.366,-173.975C753.494,-164.52 732.497,-149.096 716.966,-137.687"/>
<polygon fill="midnightblue" stroke="midnightblue" points="718.687,-134.608 708.555,-131.509 714.543,-140.25 718.687,-134.608"/>
</g>
<!-- Node15&#45;&gt;Node11 -->
<g id="edge19" class="edge"><title>Node15&#45;&gt;Node11</title>
<path fill="none" stroke="midnightblue" d="M715.647,-173.975C629.586,-162.204 475.894,-141.181 395.406,-130.172"/>
<polygon fill="midnightblue" stroke="midnightblue" points="395.874,-126.704 385.492,-128.816 394.925,-133.639 395.874,-126.704"/>
</g>
<!-- Node16 -->
<g id="node16" class="node"><title>Node16</title>
<polygon fill="white" stroke="#bfbfbf" points="805.972,-112.5 805.972,-131.5 841.972,-131.5 841.972,-112.5 805.972,-112.5"/>
<text text-anchor="middle" x="823.972" y="-119.5" font-family="Helvetica,sans-Serif" font-size="10.00">map</text>
</g>
<!-- Node15&#45;&gt;Node16 -->
<g id="edge17" class="edge"><title>Node15&#45;&gt;Node16</title>
<path fill="none" stroke="midnightblue" d="M784.562,-173.975C791.462,-165.05 802.474,-150.807 811.105,-139.643"/>
<polygon fill="midnightblue" stroke="midnightblue" points="814.046,-141.561 817.393,-131.509 808.508,-137.28 814.046,-141.561"/>
</g>
<!-- Node17 -->
<g id="node17" class="node"><title>Node17</title>
<polygon fill="white" stroke="#bfbfbf" points="843.472,-56.5 843.472,-75.5 896.472,-75.5 896.472,-56.5 843.472,-56.5"/>
<text text-anchor="middle" x="869.972" y="-63.5" font-family="Helvetica,sans-Serif" font-size="10.00">memory</text>
</g>
<!-- Node15&#45;&gt;Node17 -->
<g id="edge18" class="edge"><title>Node15&#45;&gt;Node17</title>
<path fill="none" stroke="midnightblue" d="M778.295,-173.809C779.233,-159.553 782.876,-130.9 796.972,-112 807.413,-98.0003 823.613,-87.3821 838.102,-79.9858"/>
<polygon fill="midnightblue" stroke="midnightblue" points="839.787,-83.0595 847.298,-75.5875 836.767,-76.7446 839.787,-83.0595"/>
</g>
<!-- Node18 -->
<g id="node18" class="node"><title>Node18</title>
<g id="a_node18"><a xlink:href="_convenience_8h.html" target="_top" xlink:title="uscxml/util/Convenience.h">
<polygon fill="white" stroke="black" points="1043.47,-112.5 1043.47,-131.5 1176.47,-131.5 1176.47,-112.5 1043.47,-112.5"/>
<text text-anchor="middle" x="1109.97" y="-119.5" font-family="Helvetica,sans-Serif" font-size="10.00">uscxml/util/Convenience.h</text>
</a>
</g>
</g>
<!-- Node15&#45;&gt;Node18 -->
<g id="edge21" class="edge"><title>Node15&#45;&gt;Node18</title>
<path fill="none" stroke="midnightblue" d="M825.539,-173.975C885.447,-163.239 988.296,-144.806 1052.53,-133.295"/>
<polygon fill="midnightblue" stroke="midnightblue" points="1053.27,-136.718 1062.49,-131.509 1052.03,-129.828 1053.27,-136.718"/>
</g>
<!-- Node22 -->
<g id="node22" class="node"><title>Node22</title>
<g id="a_node22"><a xlink:href="_blob_8h.html" target="_top" xlink:title="uscxml/messages/Blob.h">
<polygon fill="white" stroke="black" points="898.472,-112.5 898.472,-131.5 1025.47,-131.5 1025.47,-112.5 898.472,-112.5"/>
<text text-anchor="middle" x="961.972" y="-119.5" font-family="Helvetica,sans-Serif" font-size="10.00">uscxml/messages/Blob.h</text>
</a>
</g>
</g>
<!-- Node15&#45;&gt;Node22 -->
<g id="edge26" class="edge"><title>Node15&#45;&gt;Node22</title>
<path fill="none" stroke="midnightblue" d="M804.334,-173.975C836.307,-163.636 890.347,-146.161 926.094,-134.602"/>
<polygon fill="midnightblue" stroke="midnightblue" points="927.22,-137.916 935.658,-131.509 925.066,-131.256 927.22,-137.916"/>
</g>
<!-- Node18&#45;&gt;Node4 -->
<g id="edge22" class="edge"><title>Node18&#45;&gt;Node4</title>
<path fill="none" stroke="midnightblue" d="M1043.18,-113.09C954.39,-102.576 798.828,-84.154 713.738,-74.0776"/>
<polygon fill="midnightblue" stroke="midnightblue" points="714.062,-70.5916 703.72,-72.8913 713.239,-77.5431 714.062,-70.5916"/>
</g>
<!-- Node18&#45;&gt;Node19 -->
<g id="edge23" class="edge"><title>Node18&#45;&gt;Node19</title>
<path fill="none" stroke="midnightblue" d="M1134.37,-112.444C1161.23,-103.026 1204.44,-87.8746 1233.5,-77.6842"/>
<polygon fill="midnightblue" stroke="midnightblue" points="1234.86,-80.916 1243.14,-74.3042 1232.55,-74.3104 1234.86,-80.916"/>
</g>
<!-- Node20 -->
<g id="node20" class="node"><title>Node20</title>
<polygon fill="white" stroke="#bfbfbf" points="1090.47,-56.5 1090.47,-75.5 1129.47,-75.5 1129.47,-56.5 1090.47,-56.5"/>
<text text-anchor="middle" x="1109.97" y="-63.5" font-family="Helvetica,sans-Serif" font-size="10.00">limits</text>
</g>
<!-- Node18&#45;&gt;Node20 -->
<g id="edge24" class="edge"><title>Node18&#45;&gt;Node20</title>
<path fill="none" stroke="midnightblue" d="M1109.97,-112.083C1109.97,-105.006 1109.97,-94.8611 1109.97,-85.9865"/>
<polygon fill="midnightblue" stroke="midnightblue" points="1113.47,-85.751 1109.97,-75.7511 1106.47,-85.7511 1113.47,-85.751"/>
</g>
<!-- Node21 -->
<g id="node21" class="node"><title>Node21</title>
<polygon fill="white" stroke="#bfbfbf" points="1405.97,-56.5 1405.97,-75.5 1457.97,-75.5 1457.97,-56.5 1405.97,-56.5"/>
<text text-anchor="middle" x="1431.97" y="-63.5" font-family="Helvetica,sans-Serif" font-size="10.00">sstream</text>
</g>
<!-- Node18&#45;&gt;Node21 -->
<g id="edge25" class="edge"><title>Node18&#45;&gt;Node21</title>
<path fill="none" stroke="midnightblue" d="M1160.99,-112.444C1226.44,-101.469 1338.31,-82.7065 1395.69,-73.084"/>
<polygon fill="midnightblue" stroke="midnightblue" points="1396.47,-76.5034 1405.75,-71.3976 1395.31,-69.5998 1396.47,-76.5034"/>
</g>
<!-- Node22&#45;&gt;Node4 -->
<g id="edge29" class="edge"><title>Node22&#45;&gt;Node4</title>
<path fill="none" stroke="midnightblue" d="M913.168,-112.444C858.762,-102.905 770.803,-87.4834 712.68,-77.293"/>
<polygon fill="midnightblue" stroke="midnightblue" points="713.001,-73.796 702.547,-75.5164 711.792,-80.6908 713.001,-73.796"/>
</g>
<!-- Node22&#45;&gt;Node17 -->
<g id="edge28" class="edge"><title>Node22&#45;&gt;Node17</title>
<path fill="none" stroke="midnightblue" d="M947.19,-112.324C932.705,-103.822 910.398,-90.7288 893.478,-80.7975"/>
<polygon fill="midnightblue" stroke="midnightblue" points="895.112,-77.6981 884.716,-75.6545 891.569,-83.735 895.112,-77.6981"/>
</g>
<!-- Node22&#45;&gt;Node19 -->
<g id="edge27" class="edge"><title>Node22&#45;&gt;Node19</title>
<path fill="none" stroke="midnightblue" d="M1009.82,-112.444C1072.53,-101.231 1180.7,-81.89 1233.37,-72.4717"/>
<polygon fill="midnightblue" stroke="midnightblue" points="1234.21,-75.8779 1243.43,-70.6723 1232.97,-68.9872 1234.21,-75.8779"/>
</g>
<!-- Node23&#45;&gt;Node4 -->
<g id="edge31" class="edge"><title>Node23&#45;&gt;Node4</title>
<path fill="none" stroke="midnightblue" d="M1214.44,-175.356C1197.77,-172.98 1179.07,-170.343 1161.97,-168 1040.72,-151.388 1005.6,-169.077 888.972,-132 870.783,-126.218 868.87,-118.625 850.972,-112 806.178,-95.4189 753.309,-83.7465 713.624,-76.4515"/>
<polygon fill="midnightblue" stroke="midnightblue" points="714.036,-72.9695 703.575,-74.6456 712.798,-79.8591 714.036,-72.9695"/>
</g>
<!-- Node23&#45;&gt;Node19 -->
<g id="edge32" class="edge"><title>Node23&#45;&gt;Node19</title>
<path fill="none" stroke="midnightblue" d="M1263.97,-173.819C1263.97,-155.257 1263.97,-111.339 1263.97,-85.9734"/>
<polygon fill="midnightblue" stroke="midnightblue" points="1267.47,-85.782 1263.97,-75.782 1260.47,-85.782 1267.47,-85.782"/>
</g>
<!-- Node24&#45;&gt;Node4 -->
<g id="edge35" class="edge"><title>Node24&#45;&gt;Node4</title>
<path fill="none" stroke="midnightblue" d="M328.329,-296.309C210.991,-274.104 -50.8365,-211.883 41.9716,-112 79.0185,-72.129 446.866,-67.2377 593.802,-66.8871"/>
<polygon fill="midnightblue" stroke="midnightblue" points="593.999,-70.3869 603.992,-66.8693 593.986,-63.3869 593.999,-70.3869"/>
</g>
<!-- Node24&#45;&gt;Node11 -->
<g id="edge34" class="edge"><title>Node24&#45;&gt;Node11</title>
<path fill="none" stroke="midnightblue" d="M369.158,-291.198C361.472,-281.67 352.362,-268.465 347.972,-255 335.338,-216.255 337.834,-167.696 340.543,-141.617"/>
<polygon fill="midnightblue" stroke="midnightblue" points="344.027,-141.959 341.711,-131.621 337.074,-141.147 344.027,-141.959"/>
</g>
<!-- Node24&#45;&gt;Node14 -->
<g id="edge36" class="edge"><title>Node24&#45;&gt;Node14</title>
<path fill="none" stroke="midnightblue" d="M435.79,-297.414C507.333,-286.664 633.729,-267.673 711.252,-256.025"/>
<polygon fill="midnightblue" stroke="midnightblue" points="712.02,-259.449 721.389,-254.502 710.98,-252.526 712.02,-259.449"/>
</g>
<!-- Node25 -->
<g id="node25" class="node"><title>Node25</title>
<g id="a_node25"><a xlink:href="_interpreter_issue_8h.html" target="_top" xlink:title="Identifies some common problems with SCXML documents. ">
<polygon fill="white" stroke="black" points="189.472,-168.5 189.472,-198.5 316.472,-198.5 316.472,-168.5 189.472,-168.5"/>
<text text-anchor="start" x="197.472" y="-186.5" font-family="Helvetica,sans-Serif" font-size="10.00">uscxml/debug/Interpreter</text>
<text text-anchor="middle" x="252.972" y="-175.5" font-family="Helvetica,sans-Serif" font-size="10.00">Issue.h</text>
</a>
</g>
</g>
<!-- Node24&#45;&gt;Node25 -->
<g id="edge37" class="edge"><title>Node24&#45;&gt;Node25</title>
<path fill="none" stroke="midnightblue" d="M395.15,-291.492C407.623,-276.479 422.692,-252.454 409.972,-235 390.722,-208.588 357.425,-195.689 326.435,-189.504"/>
<polygon fill="midnightblue" stroke="midnightblue" points="326.935,-186.038 316.475,-187.723 325.702,-192.929 326.935,-186.038"/>
</g>
<!-- Node26 -->
<g id="node26" class="node"><title>Node26</title>
<polygon fill="white" stroke="#bfbfbf" points="356.972,-235.5 356.972,-254.5 400.972,-254.5 400.972,-235.5 356.972,-235.5"/>
<text text-anchor="middle" x="378.972" y="-242.5" font-family="Helvetica,sans-Serif" font-size="10.00">mutex</text>
</g>
<!-- Node24&#45;&gt;Node26 -->
<g id="edge42" class="edge"><title>Node24&#45;&gt;Node26</title>
<path fill="none" stroke="midnightblue" d="M381.261,-291.399C380.861,-283.466 380.356,-273.458 379.922,-264.858"/>
<polygon fill="midnightblue" stroke="midnightblue" points="383.407,-264.469 379.408,-254.658 376.416,-264.821 383.407,-264.469"/>
</g>
<!-- Node25&#45;&gt;Node4 -->
<g id="edge39" class="edge"><title>Node25&#45;&gt;Node4</title>
<path fill="none" stroke="midnightblue" d="M237.123,-168.455C221.774,-153.189 202.869,-128.742 217.972,-112 242.686,-84.6037 480.198,-72.8902 593.892,-68.8212"/>
<polygon fill="midnightblue" stroke="midnightblue" points="594.296,-72.3093 604.168,-68.4622 594.052,-65.3136 594.296,-72.3093"/>
</g>
<!-- Node25&#45;&gt;Node9 -->
<g id="edge40" class="edge"><title>Node25&#45;&gt;Node9</title>
<path fill="none" stroke="midnightblue" d="M316.54,-174.348C392.38,-164.563 522.988,-147.529 634.972,-132 647.3,-130.29 660.994,-128.311 672.371,-126.644"/>
<polygon fill="midnightblue" stroke="midnightblue" points="673.064,-130.08 682.447,-125.162 672.044,-123.155 673.064,-130.08"/>
</g>
<!-- Node25&#45;&gt;Node10 -->
<g id="edge41" class="edge"><title>Node25&#45;&gt;Node10</title>
<path fill="none" stroke="midnightblue" d="M253.446,-168.399C253.712,-160.466 254.049,-150.458 254.338,-141.858"/>
<polygon fill="midnightblue" stroke="midnightblue" points="257.843,-141.77 254.681,-131.658 250.846,-141.535 257.843,-141.77"/>
</g>
<!-- Node25&#45;&gt;Node11 -->
<g id="edge38" class="edge"><title>Node25&#45;&gt;Node11</title>
<path fill="none" stroke="midnightblue" d="M274.3,-168.399C288.457,-159.04 306.983,-146.792 321.225,-137.377"/>
<polygon fill="midnightblue" stroke="midnightblue" points="323.464,-140.092 329.876,-131.658 319.604,-134.253 323.464,-140.092"/>
</g>
<!-- Node27&#45;&gt;Node9 -->
<g id="edge47" class="edge"><title>Node27&#45;&gt;Node9</title>
<path fill="none" stroke="midnightblue" d="M1407.96,-176.711C1382.28,-173.855 1350.48,-170.496 1321.97,-168 1088.98,-147.599 1030.12,-150.483 796.972,-132 771.314,-129.966 741.986,-127.284 721.758,-125.379"/>
<polygon fill="midnightblue" stroke="midnightblue" points="721.823,-121.869 711.537,-124.409 721.162,-128.838 721.823,-121.869"/>
</g>
<!-- Node27&#45;&gt;Node19 -->
<g id="edge46" class="edge"><title>Node27&#45;&gt;Node19</title>
<path fill="none" stroke="midnightblue" d="M1452.31,-173.844C1442.27,-159.117 1419.91,-129.121 1393.97,-112 1363.22,-91.6989 1322.31,-79.5228 1294.66,-73.052"/>
<polygon fill="midnightblue" stroke="midnightblue" points="1295.29,-69.605 1284.77,-70.8463 1293.77,-76.4374 1295.29,-69.605"/>
</g>
<!-- Node28&#45;&gt;Node7 -->
<g id="edge52" class="edge"><title>Node28&#45;&gt;Node7</title>
<path fill="none" stroke="midnightblue" d="M575.776,-235.475C554.462,-225.49 518.94,-208.848 494.309,-197.307"/>
<polygon fill="midnightblue" stroke="midnightblue" points="495.674,-194.082 485.134,-193.009 492.704,-200.421 495.674,-194.082"/>
</g>
<!-- Node28&#45;&gt;Node9 -->
<g id="edge50" class="edge"><title>Node28&#45;&gt;Node9</title>
<path fill="none" stroke="midnightblue" d="M601.379,-235.298C618.453,-215.24 660.803,-165.489 682.958,-139.463"/>
<polygon fill="midnightblue" stroke="midnightblue" points="685.814,-141.507 689.631,-131.623 680.484,-136.969 685.814,-141.507"/>
</g>
<!-- Node28&#45;&gt;Node13 -->
<g id="edge51" class="edge"><title>Node28&#45;&gt;Node13</title>
<path fill="none" stroke="midnightblue" d="M532.56,-239.738C424.924,-231.913 210.655,-214.623 179.972,-199 154.244,-185.901 133.447,-158.946 121.643,-140.917"/>
<polygon fill="midnightblue" stroke="midnightblue" points="124.31,-138.581 116.036,-131.964 118.377,-142.297 124.31,-138.581"/>
</g>
<!-- Node28&#45;&gt;Node18 -->
<g id="edge53" class="edge"><title>Node28&#45;&gt;Node18</title>
<path fill="none" stroke="midnightblue" d="M653.816,-235.466C706.149,-227.541 784.034,-214.629 850.972,-199 932.087,-180.06 1025.43,-150.781 1074.91,-134.652"/>
<polygon fill="midnightblue" stroke="midnightblue" points="1076.08,-137.952 1084.49,-131.513 1073.9,-131.299 1076.08,-137.952"/>
</g>
<!-- Node28&#45;&gt;Node19 -->
<g id="edge49" class="edge"><title>Node28&#45;&gt;Node19</title>
<path fill="none" stroke="midnightblue" d="M655.256,-237.74C721.591,-230.471 830.325,-217.12 922.972,-199 1040.93,-175.929 1077.78,-186.371 1184.97,-132 1209.83,-119.391 1233.9,-97.8135 1248.81,-83.0023"/>
<polygon fill="midnightblue" stroke="midnightblue" points="1251.59,-85.1615 1256.09,-75.5699 1246.59,-80.2616 1251.59,-85.1615"/>
</g>
<!-- Node29&#45;&gt;Node4 -->
<g id="edge56" class="edge"><title>Node29&#45;&gt;Node4</title>
<path fill="none" stroke="midnightblue" d="M1014.89,-304.624C889.845,-301.812 556.736,-290.984 523.972,-255 517.987,-248.427 520.417,-243.147 523.972,-235 550.884,-173.314 599.59,-189.249 634.972,-132 643.76,-117.78 648.647,-99.304 651.256,-85.6867"/>
<polygon fill="midnightblue" stroke="midnightblue" points="654.747,-86.0318 652.947,-75.591 647.843,-84.8755 654.747,-86.0318"/>
</g>
<!-- Node29&#45;&gt;Node8 -->
<g id="edge61" class="edge"><title>Node29&#45;&gt;Node8</title>
<path fill="none" stroke="midnightblue" d="M1026.16,-296.923C991.298,-288.096 937.124,-273.103 891.972,-255 873.891,-247.751 871.228,-241.793 852.972,-235 789.526,-211.392 765.653,-229.008 704.972,-199 673.65,-183.511 643.308,-156.021 625.921,-138.693"/>
<polygon fill="midnightblue" stroke="midnightblue" points="628.39,-136.211 618.887,-131.526 623.394,-141.115 628.39,-136.211"/>
</g>
<!-- Node29&#45;&gt;Node9 -->
<g id="edge62" class="edge"><title>Node29&#45;&gt;Node9</title>
<path fill="none" stroke="midnightblue" d="M1014.62,-302.207C921.695,-295.27 722.648,-277.89 701.972,-255 673.879,-223.901 683.346,-169.939 691.064,-141.602"/>
<polygon fill="midnightblue" stroke="midnightblue" points="694.488,-142.366 693.954,-131.785 687.772,-140.39 694.488,-142.366"/>
</g>
<!-- Node29&#45;&gt;Node14 -->
<g id="edge57" class="edge"><title>Node29&#45;&gt;Node14</title>
<path fill="none" stroke="midnightblue" d="M1021.28,-296.975C970.456,-286.327 883.501,-268.109 828.474,-256.581"/>
<polygon fill="midnightblue" stroke="midnightblue" points="829.092,-253.134 818.586,-254.509 827.656,-259.985 829.092,-253.134"/>
</g>
<!-- Node29&#45;&gt;Node16 -->
<g id="edge60" class="edge"><title>Node29&#45;&gt;Node16</title>
<path fill="none" stroke="midnightblue" d="M1109.02,-303.627C1175.62,-299.217 1285.3,-284.442 1246.97,-235 1192.61,-164.862 951.122,-160.446 851.704,-133.177"/>
<polygon fill="midnightblue" stroke="midnightblue" points="852.56,-129.78 841.977,-130.283 850.563,-136.49 852.56,-129.78"/>
</g>
<!-- Node29&#45;&gt;Node19 -->
<g id="edge58" class="edge"><title>Node29&#45;&gt;Node19</title>
<path fill="none" stroke="midnightblue" d="M1109.22,-304.245C1174.54,-299.506 1288.2,-279.519 1321.97,-199 1339.63,-156.9 1302.69,-107.789 1279.98,-83.0248"/>
<polygon fill="midnightblue" stroke="midnightblue" points="1282.35,-80.4403 1272.93,-75.6052 1277.28,-85.2639 1282.35,-80.4403"/>
</g>
<!-- Node29&#45;&gt;Node21 -->
<g id="edge59" class="edge"><title>Node29&#45;&gt;Node21</title>
<path fill="none" stroke="midnightblue" d="M1109.05,-301.798C1215.05,-292.374 1467.11,-263.511 1516.97,-199 1548.19,-158.614 1488.25,-106.68 1453.81,-81.7032"/>
<polygon fill="midnightblue" stroke="midnightblue" points="1455.47,-78.585 1445.28,-75.6806 1451.43,-84.305 1455.47,-78.585"/>
</g>
<!-- Node30 -->
<g id="node30" class="node"><title>Node30</title>
<polygon fill="white" stroke="#bfbfbf" points="901.472,-235.5 901.472,-254.5 946.472,-254.5 946.472,-235.5 901.472,-235.5"/>
<text text-anchor="middle" x="923.972" y="-242.5" font-family="Helvetica,sans-Serif" font-size="10.00">thread</text>
</g>
<!-- Node29&#45;&gt;Node30 -->
<g id="edge63" class="edge"><title>Node29&#45;&gt;Node30</title>
<path fill="none" stroke="midnightblue" d="M1042.2,-296.975C1018.84,-286.901 979.757,-270.053 952.969,-258.502"/>
<polygon fill="midnightblue" stroke="midnightblue" points="954.276,-255.254 943.707,-254.509 951.504,-261.682 954.276,-255.254"/>
</g>
<!-- Node31 -->
<g id="node31" class="node"><title>Node31</title>
<polygon fill="white" stroke="#bfbfbf" points="964.472,-235.5 964.472,-254.5 1061.47,-254.5 1061.47,-235.5 964.472,-235.5"/>
<text text-anchor="middle" x="1012.97" y="-242.5" font-family="Helvetica,sans-Serif" font-size="10.00">condition_variable</text>
</g>
<!-- Node29&#45;&gt;Node31 -->
<g id="edge64" class="edge"><title>Node29&#45;&gt;Node31</title>
<path fill="none" stroke="midnightblue" d="M1054.95,-296.975C1047.53,-287.962 1035.64,-273.525 1026.4,-262.312"/>
<polygon fill="midnightblue" stroke="midnightblue" points="1029.04,-260.003 1019.98,-254.509 1023.63,-264.453 1029.04,-260.003"/>
</g>
<!-- Node32 -->
<g id="node32" class="node"><title>Node32</title>
<polygon fill="white" stroke="#bfbfbf" points="1079.97,-235.5 1079.97,-254.5 1139.97,-254.5 1139.97,-235.5 1079.97,-235.5"/>
<text text-anchor="middle" x="1109.97" y="-242.5" font-family="Helvetica,sans-Serif" font-size="10.00">curl/curl.h</text>
</g>
<!-- Node29&#45;&gt;Node32 -->
<g id="edge65" class="edge"><title>Node29&#45;&gt;Node32</title>
<path fill="none" stroke="midnightblue" d="M1068.85,-296.975C1076.12,-287.962 1087.77,-273.525 1096.81,-262.312"/>
<polygon fill="midnightblue" stroke="midnightblue" points="1099.55,-264.49 1103.11,-254.509 1094.1,-260.095 1099.55,-264.49"/>
</g>
<!-- Node33 -->
<g id="node33" class="node"><title>Node33</title>
<polygon fill="white" stroke="#bfbfbf" points="1157.97,-235.5 1157.97,-254.5 1237.97,-254.5 1237.97,-235.5 1157.97,-235.5"/>
<text text-anchor="middle" x="1197.97" y="-242.5" font-family="Helvetica,sans-Serif" font-size="10.00">uriparser/Uri.h</text>
</g>
<!-- Node29&#45;&gt;Node33 -->
<g id="edge66" class="edge"><title>Node29&#45;&gt;Node33</title>
<path fill="none" stroke="midnightblue" d="M1081.46,-296.975C1104.38,-286.945 1142.66,-270.2 1169.05,-258.655"/>
<polygon fill="midnightblue" stroke="midnightblue" points="1170.76,-261.724 1178.52,-254.509 1167.96,-255.311 1170.76,-261.724"/>
</g>
</g>
</svg>
        <g id="navigator" transform="translate(0 0)" fill="#404254">
                <rect fill="#f2f5e9" fill-opacity="0.5" stroke="#606060" stroke-width=".5" x="0" y="0" width="60" height="60"/>
                <use id="zoomplus" xlink:href="#zoomPlus" x="17" y="9" onmousedown="handleZoom(evt,'in')"/>
                <use id="zoomminus" xlink:href="#zoomMin" x="42" y="9" onmousedown="handleZoom(evt,'out')"/>
                <use id="reset" xlink:href="#resetDef" x="30" y="36" onmousedown="handleReset()"/>
                <g id="arrowUp" xlink:href="#dirArrow" transform="translate(30 24)" onmousedown="handlePan(0,-1)">
                  <use xlink:href="#rim" fill="#404040">
                        <set attributeName="fill" to="#808080" begin="arrowUp.mouseover" end="arrowUp.mouseout"/>
                  </use>
                  <path fill="none" stroke="white" stroke-width="1.5" d="M0,-3.0v7 M-2.5,-0.5L0,-3.0L2.5,-0.5"/>
                </g>
                <g id="arrowRight" xlink:href="#dirArrow" transform="rotate(90) translate(36 -43)" onmousedown="handlePan(1,0)">
                  <use xlink:href="#rim" fill="#404040">
                        <set attributeName="fill" to="#808080" begin="arrowRight.mouseover" end="arrowRight.mouseout"/>
                  </use>
                  <path fill="none" stroke="white" stroke-width="1.5" d="M0,-3.0v7 M-2.5,-0.5L0,-3.0L2.5,-0.5"/>
                </g>
                <g id="arrowDown" xlink:href="#dirArrow" transform="rotate(180) translate(-30 -48)" onmousedown="handlePan(0,1)">
                  <use xlink:href="#rim" fill="#404040">
                        <set attributeName="fill" to="#808080" begin="arrowDown.mouseover" end="arrowDown.mouseout"/>
                  </use>
                  <path fill="none" stroke="white" stroke-width="1.5" d="M0,-3.0v7 M-2.5,-0.5L0,-3.0L2.5,-0.5"/>
                </g>
                <g id="arrowLeft" xlink:href="#dirArrow" transform="rotate(270) translate(-36 17)" onmousedown="handlePan(-1,0)">
                  <use xlink:href="#rim" fill="#404040">
                        <set attributeName="fill" to="#808080" begin="arrowLeft.mouseover" end="arrowLeft.mouseout"/>
                  </use>
                  <path fill="none" stroke="white" stroke-width="1.5" d="M0,-3.0v7 M-2.5,-0.5L0,-3.0L2.5,-0.5"/>
                </g>
        </g>
        <svg viewBox="0 0 15 15" width="100%" height="30px" preserveAspectRatio="xMaxYMin meet">
         <g id="arrow_out" transform="scale(0.3 0.3)">
          <a xlink:href="_basic_content_executor_8cpp__incl_org.svg" target="_base">
           <rect id="button" ry="5" rx="5" y="6" x="6" height="38" width="38"
                fill="#f2f5e9" fill-opacity="0.5" stroke="#606060" stroke-width="1.0"/>
           <path id="arrow"
             d="M 11.500037,31.436501 C 11.940474,20.09759 22.043105,11.32322 32.158766,21.979434 L 37.068811,17.246167 C 37.068811,17.246167 37.088388,32 37.088388,32 L 22.160133,31.978069 C 22.160133,31.978069 26.997745,27.140456 26.997745,27.140456 C 18.528582,18.264221 13.291696,25.230495 11.500037,31.436501 z"
             style="fill:#404040;"/>
          </a>
         </g>
        </svg>
</svg>
