<?xml version="1.0" encoding="UTF-8" standalone="no"?>
<!DOCTYPE svg PUBLIC "-//W3C//DTD SVG 1.1//EN"
 "http://www.w3.org/Graphics/SVG/1.1/DTD/svg11.dtd">
<!-- Generated by graphviz version 2.40.1 (20161225.0304)
 -->
<!-- Title: interpreter/BasicContentExecutor.cpp Pages: 1 -->
<svg width="2275pt" height="598pt"
 viewBox="0.00 0.00 2275.03 598.00" xmlns="http://www.w3.org/2000/svg" xmlns:xlink="http://www.w3.org/1999/xlink">
<g id="graph0" class="graph" transform="scale(1 1) rotate(0) translate(4 594)">
<title>interpreter/BasicContentExecutor.cpp</title>
<polygon fill="#ffffff" stroke="transparent" points="-4,4 -4,-594 2271.0327,-594 2271.0327,4 -4,4"/>
<!-- Node1 -->
<g id="node1" class="node">
<title>Node1</title>
<polygon fill="#bfbfbf" stroke="#000000" points="1468.0327,-559.5 1468.0327,-589.5 1592.0327,-589.5 1592.0327,-559.5 1468.0327,-559.5"/>
<text text-anchor="start" x="1476.0327" y="-577.5" font-family="Helvetica,sans-Serif" font-size="10.00" fill="#000000">interpreter/BasicContent</text>
<text text-anchor="middle" x="1530.0327" y="-566.5" font-family="Helvetica,sans-Serif" font-size="10.00" fill="#000000">Executor.cpp</text>
</g>
<!-- Node2 -->
<g id="node2" class="node">
<title>Node2</title>
<g id="a_node2"><a xlink:href="$_basic_content_executor_8h.html" xlink:title="BasicContentExecutor.h">
<polygon fill="#ffffff" stroke="#000000" points="1058.0327,-498 1058.0327,-517 1182.0327,-517 1182.0327,-498 1058.0327,-498"/>
<text text-anchor="middle" x="1120.0327" y="-505" font-family="Helvetica,sans-Serif" font-size="10.00" fill="#000000">BasicContentExecutor.h</text>
</a>
</g>
</g>
<!-- Node1&#45;&gt;Node2 -->
<g id="edge1" class="edge">
<title>Node1&#45;&gt;Node2</title>
<path fill="none" stroke="#191970" d="M1467.7625,-564.3241C1392.5115,-552.027 1266.3217,-531.4058 1188.4261,-518.6765"/>
<polygon fill="#191970" stroke="#191970" points="1188.6686,-515.1698 1178.235,-517.0111 1187.5396,-522.0781 1188.6686,-515.1698"/>
</g>
<!-- Node18 -->
<g id="node18" class="node">
<title>Node18</title>
<g id="a_node18"><a xlink:href="$_u_u_i_d_8h.html" xlink:title="uscxml/util/UUID.h">
<polygon fill="#ffffff" stroke="#000000" points="1012.5327,-174 1012.5327,-193 1111.5327,-193 1111.5327,-174 1012.5327,-174"/>
<text text-anchor="middle" x="1062.0327" y="-181" font-family="Helvetica,sans-Serif" font-size="10.00" fill="#000000">uscxml/util/UUID.h</text>
</a>
</g>
</g>
<!-- Node1&#45;&gt;Node18 -->
<g id="edge92" class="edge">
<title>Node1&#45;&gt;Node18</title>
<path fill="none" stroke="#191970" d="M1467.8458,-564.5312C1404.3481,-550.3916 1315.0327,-517.7504 1315.0327,-446 1315.0327,-446 1315.0327,-446 1315.0327,-384.5 1315.0327,-279.0851 1178.7164,-220.1268 1106.2042,-196.2216"/>
<polygon fill="#191970" stroke="#191970" points="1107.008,-192.8037 1096.4167,-193.0799 1104.8685,-199.4688 1107.008,-192.8037"/>
</g>
<!-- Node20 -->
<g id="node20" class="node">
<title>Node20</title>
<g id="a_node20"><a xlink:href="$_logging_8h.html" xlink:title="uscxml/interpreter\l/Logging.h">
<polygon fill="#ffffff" stroke="#000000" points="516.0327,-302.5 516.0327,-332.5 612.0327,-332.5 612.0327,-302.5 516.0327,-302.5"/>
<text text-anchor="start" x="524.0327" y="-320.5" font-family="Helvetica,sans-Serif" font-size="10.00" fill="#000000">uscxml/interpreter</text>
<text text-anchor="middle" x="564.0327" y="-309.5" font-family="Helvetica,sans-Serif" font-size="10.00" fill="#000000">/Logging.h</text>
</a>
</g>
</g>
<!-- Node1&#45;&gt;Node20 -->
<g id="edge108" class="edge">
<title>Node1&#45;&gt;Node20</title>
<path fill="none" stroke="#191970" d="M1467.6797,-572.8651C1375.1389,-569.3112 1196.5026,-558.1089 1049.0327,-523 898.3845,-487.1344 864.451,-463.1038 723.0327,-400 679.737,-380.6806 631.6206,-355.1137 599.7792,-337.5915"/>
<polygon fill="#191970" stroke="#191970" points="601.2907,-334.4279 590.8459,-332.6515 597.9032,-340.5537 601.2907,-334.4279"/>
</g>
<!-- Node24 -->
<g id="node24" class="node">
<title>Node24</title>
<g id="a_node24"><a xlink:href="$_interpreter_8h.html" xlink:title="uscxml/Interpreter.h">
<polygon fill="#ffffff" stroke="#000000" points="414.5327,-375 414.5327,-394 519.5327,-394 519.5327,-375 414.5327,-375"/>
<text text-anchor="middle" x="467.0327" y="-382" font-family="Helvetica,sans-Serif" font-size="10.00" fill="#000000">uscxml/Interpreter.h</text>
</a>
</g>
</g>
<!-- Node1&#45;&gt;Node24 -->
<g id="edge41" class="edge">
<title>Node1&#45;&gt;Node24</title>
<path fill="none" stroke="#191970" d="M1467.7627,-573.0001C1279.1569,-568.1613 722.3799,-551.5943 646.0327,-523 575.7744,-496.6862 510.7441,-432.5783 482.2274,-401.6918"/>
<polygon fill="#191970" stroke="#191970" points="484.7924,-399.3101 475.4795,-394.2582 479.6093,-404.015 484.7924,-399.3101"/>
</g>
<!-- Node30 -->
<g id="node30" class="node">
<title>Node30</title>
<g id="a_node30"><a xlink:href="$_string_8h.html" xlink:title="string.h">
<polygon fill="#ffffff" stroke="#000000" points="1466.5327,-174 1466.5327,-193 1515.5327,-193 1515.5327,-174 1466.5327,-174"/>
<text text-anchor="middle" x="1491.0327" y="-181" font-family="Helvetica,sans-Serif" font-size="10.00" fill="#000000">string.h</text>
</a>
</g>
</g>
<!-- Node1&#45;&gt;Node30 -->
<g id="edge79" class="edge">
<title>Node1&#45;&gt;Node30</title>
<path fill="none" stroke="#191970" d="M1510.2807,-559.4347C1484.0606,-537.5601 1441.0327,-494.3046 1441.0327,-446 1441.0327,-446 1441.0327,-446 1441.0327,-317.5 1441.0327,-273.8776 1464.5796,-227.0212 1479.3553,-201.9129"/>
<polygon fill="#191970" stroke="#191970" points="1482.4956,-203.4851 1484.7002,-193.1221 1476.5143,-199.8484 1482.4956,-203.4851"/>
</g>
<!-- Node33 -->
<g id="node33" class="node">
<title>Node33</title>
<g id="a_node33"><a xlink:href="$_predicates_8h.html" xlink:title="uscxml/util/Predicates.h">
<polygon fill="#ffffff" stroke="#000000" points="1800.0327,-241 1800.0327,-260 1922.0327,-260 1922.0327,-241 1800.0327,-241"/>
<text text-anchor="middle" x="1861.0327" y="-248" font-family="Helvetica,sans-Serif" font-size="10.00" fill="#000000">uscxml/util/Predicates.h</text>
</a>
</g>
</g>
<!-- Node1&#45;&gt;Node33 -->
<g id="edge80" class="edge">
<title>Node1&#45;&gt;Node33</title>
<path fill="none" stroke="#191970" d="M1553.458,-559.3276C1583.2944,-537.9492 1631.0327,-495.9406 1631.0327,-446 1631.0327,-446 1631.0327,-446 1631.0327,-384.5 1631.0327,-309.9934 1722.2559,-276.1849 1789.8013,-261.3638"/>
<polygon fill="#191970" stroke="#191970" points="1790.9302,-264.7034 1800.0008,-259.2285 1789.4958,-257.8519 1790.9302,-264.7034"/>
</g>
<!-- Node34 -->
<g id="node34" class="node">
<title>Node34</title>
<polygon fill="#ffffff" stroke="#bfbfbf" points="1954.5327,-112.5 1954.5327,-131.5 2073.5327,-131.5 2073.5327,-112.5 1954.5327,-112.5"/>
<text text-anchor="middle" x="2014.0327" y="-119.5" font-family="Helvetica,sans-Serif" font-size="10.00" fill="#000000">xercesc/dom/DOM.hpp</text>
</g>
<!-- Node1&#45;&gt;Node34 -->
<g id="edge104" class="edge">
<title>Node1&#45;&gt;Node34</title>
<path fill="none" stroke="#191970" d="M1558.8225,-559.4147C1576.6178,-549.7098 1599.6752,-536.4375 1619.0327,-523 1766.6129,-420.5536 1814.6865,-402.8894 1931.0327,-266 1965.1517,-225.8567 1992.8214,-169.7281 2005.8865,-140.8343"/>
<polygon fill="#191970" stroke="#191970" points="2009.1708,-142.062 2010.0241,-131.5016 2002.7715,-139.2249 2009.1708,-142.062"/>
</g>
<!-- Node37 -->
<g id="node37" class="node">
<title>Node37</title>
<g id="a_node37"><a xlink:href="$_u_r_l_8h.html" xlink:title="uscxml/util/URL.h">
<polygon fill="#ffffff" stroke="#000000" points="1483.0327,-308 1483.0327,-327 1577.0327,-327 1577.0327,-308 1483.0327,-308"/>
<text text-anchor="middle" x="1530.0327" y="-315" font-family="Helvetica,sans-Serif" font-size="10.00" fill="#000000">uscxml/util/URL.h</text>
</a>
</g>
</g>
<!-- Node1&#45;&gt;Node37 -->
<g id="edge93" class="edge">
<title>Node1&#45;&gt;Node37</title>
<path fill="none" stroke="#191970" d="M1530.0327,-559.1931C1530.0327,-514.8817 1530.0327,-386.5178 1530.0327,-337.1588"/>
<polygon fill="#191970" stroke="#191970" points="1533.5328,-337.1395 1530.0327,-327.1395 1526.5328,-337.1395 1533.5328,-337.1395"/>
</g>
<!-- Node40 -->
<g id="node40" class="node">
<title>Node40</title>
<polygon fill="#ffffff" stroke="#bfbfbf" points="1748.5327,-498 1748.5327,-517 1941.5327,-517 1941.5327,-498 1748.5327,-498"/>
<text text-anchor="middle" x="1845.0327" y="-505" font-family="Helvetica,sans-Serif" font-size="10.00" fill="#000000">xercesc/parsers/XercesDOMParser.hpp</text>
</g>
<!-- Node1&#45;&gt;Node40 -->
<g id="edge105" class="edge">
<title>Node1&#45;&gt;Node40</title>
<path fill="none" stroke="#191970" d="M1592.2666,-561.263C1649.9936,-548.9845 1735.0702,-530.8888 1790.2731,-519.1473"/>
<polygon fill="#191970" stroke="#191970" points="1791.1667,-522.5356 1800.2198,-517.0316 1789.7104,-515.6887 1791.1667,-522.5356"/>
</g>
<!-- Node41 -->
<g id="node41" class="node">
<title>Node41</title>
<polygon fill="#ffffff" stroke="#bfbfbf" points="1959.5327,-498 1959.5327,-517 2108.5327,-517 2108.5327,-498 1959.5327,-498"/>
<text text-anchor="middle" x="2034.0327" y="-505" font-family="Helvetica,sans-Serif" font-size="10.00" fill="#000000">xercesc/sax/HandlerBase.hpp</text>
</g>
<!-- Node1&#45;&gt;Node41 -->
<g id="edge106" class="edge">
<title>Node1&#45;&gt;Node41</title>
<path fill="none" stroke="#191970" d="M1592.2607,-568.1254C1674.5656,-559.4113 1824.0438,-542.6047 1951.0327,-523 1959.0663,-521.7598 1967.514,-520.3295 1975.8195,-518.8499"/>
<polygon fill="#191970" stroke="#191970" points="1976.6287,-522.2602 1985.8424,-517.0299 1975.378,-515.3729 1976.6287,-522.2602"/>
</g>
<!-- Node42 -->
<g id="node42" class="node">
<title>Node42</title>
<polygon fill="#ffffff" stroke="#bfbfbf" points="2127.0327,-492.5 2127.0327,-522.5 2267.0327,-522.5 2267.0327,-492.5 2127.0327,-492.5"/>
<text text-anchor="start" x="2135.0327" y="-510.5" font-family="Helvetica,sans-Serif" font-size="10.00" fill="#000000">xercesc/framework/MemBuf</text>
<text text-anchor="middle" x="2197.0327" y="-499.5" font-family="Helvetica,sans-Serif" font-size="10.00" fill="#000000">InputSource.hpp</text>
</g>
<!-- Node1&#45;&gt;Node42 -->
<g id="edge107" class="edge">
<title>Node1&#45;&gt;Node42</title>
<path fill="none" stroke="#191970" d="M1592.0781,-571.242C1697.7989,-565.2137 1919.754,-550.4881 2116.9233,-523.0645"/>
<polygon fill="#191970" stroke="#191970" points="2117.4713,-526.522 2126.8871,-521.6647 2116.4974,-519.59 2117.4713,-526.522"/>
</g>
<!-- Node3 -->
<g id="node3" class="node">
<title>Node3</title>
<g id="a_node3"><a xlink:href="$_content_executor_impl_8h.html" xlink:title="ContentExecutorImpl.h">
<polygon fill="#ffffff" stroke="#000000" points="902.0327,-436.5 902.0327,-455.5 1020.0327,-455.5 1020.0327,-436.5 902.0327,-436.5"/>
<text text-anchor="middle" x="961.0327" y="-443.5" font-family="Helvetica,sans-Serif" font-size="10.00" fill="#000000">ContentExecutorImpl.h</text>
</a>
</g>
</g>
<!-- Node2&#45;&gt;Node3 -->
<g id="edge2" class="edge">
<title>Node2&#45;&gt;Node3</title>
<path fill="none" stroke="#191970" d="M1095.189,-497.8906C1068.352,-487.5103 1025.4094,-470.9004 995.3575,-459.2766"/>
<polygon fill="#191970" stroke="#191970" points="996.2913,-455.8851 985.702,-455.5419 993.766,-462.4138 996.2913,-455.8851"/>
</g>
<!-- Node4 -->
<g id="node4" class="node">
<title>Node4</title>
<g id="a_node4"><a xlink:href="$_common_8h.html" xlink:title="uscxml/Common.h">
<polygon fill="#ffffff" stroke="#000000" points="376.5327,-56.5 376.5327,-75.5 475.5327,-75.5 475.5327,-56.5 376.5327,-56.5"/>
<text text-anchor="middle" x="426.0327" y="-63.5" font-family="Helvetica,sans-Serif" font-size="10.00" fill="#000000">uscxml/Common.h</text>
</a>
</g>
</g>
<!-- Node3&#45;&gt;Node4 -->
<g id="edge3" class="edge">
<title>Node3&#45;&gt;Node4</title>
<path fill="none" stroke="#191970" d="M901.9789,-443.1016C708.0482,-432.9998 99.7314,-396.461 41.0327,-333 -8.9414,-278.9715 -12.3005,-230.2044 27.0327,-168 63.1907,-110.8171 263.9439,-82.4367 366.1745,-71.5245"/>
<polygon fill="#191970" stroke="#191970" points="366.766,-74.9819 376.3481,-70.4616 366.0385,-68.0198 366.766,-74.9819"/>
</g>
<!-- Node7 -->
<g id="node7" class="node">
<title>Node7</title>
<g id="a_node7"><a xlink:href="$_event_8h.html" xlink:title="uscxml/messages/Event.h">
<polygon fill="#ffffff" stroke="#000000" points="767.5327,-241 767.5327,-260 900.5327,-260 900.5327,-241 767.5327,-241"/>
<text text-anchor="middle" x="834.0327" y="-248" font-family="Helvetica,sans-Serif" font-size="10.00" fill="#000000">uscxml/messages/Event.h</text>
</a>
</g>
</g>
<!-- Node3&#45;&gt;Node7 -->
<g id="edge6" class="edge">
<title>Node3&#45;&gt;Node7</title>
<path fill="none" stroke="#191970" d="M915.2988,-436.4348C894.3991,-429.7149 871.1964,-418.4965 857.0327,-400 827.5989,-361.5619 828.6305,-300.9526 831.513,-270.0402"/>
<polygon fill="#191970" stroke="#191970" points="834.993,-270.4135 832.6057,-260.0912 828.0348,-269.6493 834.993,-270.4135"/>
</g>
<!-- Node10 -->
<g id="node10" class="node">
<title>Node10</title>
<polygon fill="#ffffff" stroke="#bfbfbf" points="758.0327,-112.5 758.0327,-131.5 794.0327,-131.5 794.0327,-112.5 758.0327,-112.5"/>
<text text-anchor="middle" x="776.0327" y="-119.5" font-family="Helvetica,sans-Serif" font-size="10.00" fill="#000000">map</text>
</g>
<!-- Node3&#45;&gt;Node10 -->
<g id="edge40" class="edge">
<title>Node3&#45;&gt;Node10</title>
<path fill="none" stroke="#191970" d="M967.0093,-436.2032C972.1439,-427.1737 979.1598,-413.2108 982.0327,-400 984.9605,-386.5369 985.4335,-382.3515 982.0327,-369 965.2925,-303.2788 960.1494,-279.5712 909.0327,-235 875.0009,-205.3259 847.4585,-229.3551 814.0327,-199 796.9428,-183.48 786.6237,-158.5603 781.1375,-141.2922"/>
<polygon fill="#191970" stroke="#191970" points="784.4935,-140.2982 778.3287,-131.6816 777.7745,-142.2619 784.4935,-140.2982"/>
</g>
<!-- Node14 -->
<g id="node14" class="node">
<title>Node14</title>
<polygon fill="#ffffff" stroke="#bfbfbf" points="1295.5327,-56.5 1295.5327,-75.5 1336.5327,-75.5 1336.5327,-56.5 1295.5327,-56.5"/>
<text text-anchor="middle" x="1316.0327" y="-63.5" font-family="Helvetica,sans-Serif" font-size="10.00" fill="#000000">string</text>
</g>
<!-- Node3&#45;&gt;Node14 -->
<g id="edge38" class="edge">
<title>Node3&#45;&gt;Node14</title>
<path fill="none" stroke="#191970" d="M971.7789,-436.3989C1010.5576,-402.3525 1148.1796,-286.6743 1284.0327,-235 1334.6448,-215.7487 1489.6844,-240.0207 1525.0327,-199 1553.7937,-165.6237 1485.6187,-113.0921 1484.0327,-112 1442.1629,-83.168 1382.8372,-72.3663 1347.0367,-68.3478"/>
<polygon fill="#191970" stroke="#191970" points="1347.028,-64.8292 1336.7268,-67.306 1346.3242,-71.7937 1347.028,-64.8292"/>
</g>
<!-- Node19 -->
<g id="node19" class="node">
<title>Node19</title>
<g id="a_node19"><a xlink:href="$_interpreter_monitor_8h.html" xlink:title="uscxml/interpreter\l/InterpreterMonitor.h">
<polygon fill="#ffffff" stroke="#000000" points="866.5327,-369.5 866.5327,-399.5 973.5327,-399.5 973.5327,-369.5 866.5327,-369.5"/>
<text text-anchor="start" x="874.5327" y="-387.5" font-family="Helvetica,sans-Serif" font-size="10.00" fill="#000000">uscxml/interpreter</text>
<text text-anchor="middle" x="920.0327" y="-376.5" font-family="Helvetica,sans-Serif" font-size="10.00" fill="#000000">/InterpreterMonitor.h</text>
</a>
</g>
</g>
<!-- Node3&#45;&gt;Node19 -->
<g id="edge25" class="edge">
<title>Node3&#45;&gt;Node19</title>
<path fill="none" stroke="#191970" d="M954.6265,-436.3906C949.5914,-428.838 942.3578,-417.9876 935.8056,-408.1593"/>
<polygon fill="#191970" stroke="#191970" points="938.5217,-405.9236 930.0624,-399.5446 932.6973,-409.8066 938.5217,-405.9236"/>
</g>
<!-- Node3&#45;&gt;Node20 -->
<g id="edge37" class="edge">
<title>Node3&#45;&gt;Node20</title>
<path fill="none" stroke="#191970" d="M931.5175,-436.4466C865.593,-415.1083 705.4716,-363.2806 619.9885,-335.6116"/>
<polygon fill="#191970" stroke="#191970" points="621.0392,-332.273 610.4474,-332.5234 618.8836,-338.9328 621.0392,-332.273"/>
</g>
<!-- Node23 -->
<g id="node23" class="node">
<title>Node23</title>
<polygon fill="#ffffff" stroke="#bfbfbf" points="1638.0327,-112.5 1638.0327,-131.5 1668.0327,-131.5 1668.0327,-112.5 1638.0327,-112.5"/>
<text text-anchor="middle" x="1653.0327" y="-119.5" font-family="Helvetica,sans-Serif" font-size="10.00" fill="#000000">set</text>
</g>
<!-- Node3&#45;&gt;Node23 -->
<g id="edge39" class="edge">
<title>Node3&#45;&gt;Node23</title>
<path fill="none" stroke="#191970" d="M1020.1142,-439.5695C1092.749,-431.1657 1211.4974,-415.6659 1253.0327,-400 1409.1229,-341.1274 1437.8867,-300.8212 1570.0327,-199 1594.6525,-180.0299 1620.5247,-155.1173 1636.709,-138.8407"/>
<polygon fill="#191970" stroke="#191970" points="1639.3075,-141.1902 1643.8279,-131.6081 1634.3187,-136.2798 1639.3075,-141.1902"/>
</g>
<!-- Node5 -->
<g id="node5" class="node">
<title>Node5</title>
<polygon fill="#ffffff" stroke="#bfbfbf" points="352.0327,-.5 352.0327,-19.5 424.0327,-19.5 424.0327,-.5 352.0327,-.5"/>
<text text-anchor="middle" x="388.0327" y="-7.5" font-family="Helvetica,sans-Serif" font-size="10.00" fill="#000000">sys/socket.h</text>
</g>
<!-- Node4&#45;&gt;Node5 -->
<g id="edge4" class="edge">
<title>Node4&#45;&gt;Node5</title>
<path fill="none" stroke="#191970" d="M419.4136,-56.2455C414.1281,-48.4564 406.5786,-37.3308 400.209,-27.9439"/>
<polygon fill="#191970" stroke="#191970" points="403.0872,-25.9522 394.576,-19.6427 397.2948,-29.8827 403.0872,-25.9522"/>
</g>
<!-- Node6 -->
<g id="node6" class="node">
<title>Node6</title>
<polygon fill="#ffffff" stroke="#bfbfbf" points="442.0327,-.5 442.0327,-19.5 486.0327,-19.5 486.0327,-.5 442.0327,-.5"/>
<text text-anchor="middle" x="464.0327" y="-7.5" font-family="Helvetica,sans-Serif" font-size="10.00" fill="#000000">cmath</text>
</g>
<!-- Node4&#45;&gt;Node6 -->
<g id="edge5" class="edge">
<title>Node4&#45;&gt;Node6</title>
<path fill="none" stroke="#191970" d="M432.6518,-56.2455C437.9373,-48.4564 445.4868,-37.3308 451.8565,-27.9439"/>
<polygon fill="#191970" stroke="#191970" points="454.7706,-29.8827 457.4895,-19.6427 448.9782,-25.9522 454.7706,-29.8827"/>
</g>
<!-- Node8 -->
<g id="node8" class="node">
<title>Node8</title>
<g id="a_node8"><a xlink:href="$_data_8h.html" xlink:title="uscxml/messages/Data.h">
<polygon fill="#ffffff" stroke="#000000" points="524.0327,-174 524.0327,-193 652.0327,-193 652.0327,-174 524.0327,-174"/>
<text text-anchor="middle" x="588.0327" y="-181" font-family="Helvetica,sans-Serif" font-size="10.00" fill="#000000">uscxml/messages/Data.h</text>
</a>
</g>
</g>
<!-- Node7&#45;&gt;Node8 -->
<g id="edge7" class="edge">
<title>Node7&#45;&gt;Node8</title>
<path fill="none" stroke="#191970" d="M799.0482,-240.9717C755.4564,-229.0991 680.8919,-208.7909 633.0723,-195.7669"/>
<polygon fill="#191970" stroke="#191970" points="633.8632,-192.3549 623.2949,-193.1039 632.0236,-199.1088 633.8632,-192.3549"/>
</g>
<!-- Node7&#45;&gt;Node18 -->
<g id="edge22" class="edge">
<title>Node7&#45;&gt;Node18</title>
<path fill="none" stroke="#191970" d="M866.6996,-240.9005C906.9948,-229.0594 975.5784,-208.9054 1019.8272,-195.9025"/>
<polygon fill="#191970" stroke="#191970" points="1020.8189,-199.2591 1029.4265,-193.0817 1018.8453,-192.5431 1020.8189,-199.2591"/>
</g>
<!-- Node8&#45;&gt;Node4 -->
<g id="edge12" class="edge">
<title>Node8&#45;&gt;Node4</title>
<path fill="none" stroke="#191970" d="M600.4552,-173.867C617.4452,-159.5339 644.0893,-132.1242 628.0327,-112 610.4886,-90.0116 538.9701,-77.7201 485.985,-71.4847"/>
<polygon fill="#191970" stroke="#191970" points="486.3211,-68.0005 475.9909,-70.3536 485.5338,-74.9561 486.3211,-68.0005"/>
</g>
<!-- Node9 -->
<g id="node9" class="node">
<title>Node9</title>
<polygon fill="#ffffff" stroke="#bfbfbf" points="1425.5327,-112.5 1425.5327,-131.5 1454.5327,-131.5 1454.5327,-112.5 1425.5327,-112.5"/>
<text text-anchor="middle" x="1440.0327" y="-119.5" font-family="Helvetica,sans-Serif" font-size="10.00" fill="#000000">list</text>
</g>
<!-- Node8&#45;&gt;Node9 -->
<g id="edge8" class="edge">
<title>Node8&#45;&gt;Node9</title>
<path fill="none" stroke="#191970" d="M652.457,-178.1217C689.7227,-175.0551 737.5145,-171.1978 780.0327,-168 1027.7218,-149.3711 1327.9057,-129.3908 1415.1531,-123.6353"/>
<polygon fill="#191970" stroke="#191970" points="1415.4103,-127.126 1425.1585,-122.976 1414.95,-120.1411 1415.4103,-127.126"/>
</g>
<!-- Node8&#45;&gt;Node10 -->
<g id="edge9" class="edge">
<title>Node8&#45;&gt;Node10</title>
<path fill="none" stroke="#191970" d="M618.8007,-173.9141C651.0859,-163.7814 703.2673,-147.194 748.0327,-132 748.1335,-131.9658 748.2345,-131.9315 748.3357,-131.8971"/>
<polygon fill="#191970" stroke="#191970" points="749.6928,-135.1308 757.9875,-128.5392 747.3927,-128.5194 749.6928,-135.1308"/>
</g>
<!-- Node11 -->
<g id="node11" class="node">
<title>Node11</title>
<polygon fill="#ffffff" stroke="#bfbfbf" points="57.5327,-56.5 57.5327,-75.5 110.5327,-75.5 110.5327,-56.5 57.5327,-56.5"/>
<text text-anchor="middle" x="84.0327" y="-63.5" font-family="Helvetica,sans-Serif" font-size="10.00" fill="#000000">memory</text>
</g>
<!-- Node8&#45;&gt;Node11 -->
<g id="edge10" class="edge">
<title>Node8&#45;&gt;Node11</title>
<path fill="none" stroke="#191970" d="M547.2152,-173.984C451.2014,-151.5998 212.2549,-95.8931 120.6113,-74.5277"/>
<polygon fill="#191970" stroke="#191970" points="121.2221,-71.0764 110.6886,-72.2144 119.6327,-77.8935 121.2221,-71.0764"/>
</g>
<!-- Node12 -->
<g id="node12" class="node">
<title>Node12</title>
<polygon fill="#ffffff" stroke="#bfbfbf" points="676.5327,-112.5 676.5327,-131.5 739.5327,-131.5 739.5327,-112.5 676.5327,-112.5"/>
<text text-anchor="middle" x="708.0327" y="-119.5" font-family="Helvetica,sans-Serif" font-size="10.00" fill="#000000">type_traits</text>
</g>
<!-- Node8&#45;&gt;Node12 -->
<g id="edge11" class="edge">
<title>Node8&#45;&gt;Node12</title>
<path fill="none" stroke="#191970" d="M606.7827,-173.8906C626.5087,-163.7811 657.7639,-147.7628 680.3328,-136.1962"/>
<polygon fill="#191970" stroke="#191970" points="682.1114,-139.2176 689.4144,-131.5419 678.9187,-132.9881 682.1114,-139.2176"/>
</g>
<!-- Node13 -->
<g id="node13" class="node">
<title>Node13</title>
<g id="a_node13"><a xlink:href="$_convenience_8h.html" xlink:title="uscxml/util/Convenience.h">
<polygon fill="#ffffff" stroke="#000000" points="1002.5327,-112.5 1002.5327,-131.5 1135.5327,-131.5 1135.5327,-112.5 1002.5327,-112.5"/>
<text text-anchor="middle" x="1069.0327" y="-119.5" font-family="Helvetica,sans-Serif" font-size="10.00" fill="#000000">uscxml/util/Convenience.h</text>
</a>
</g>
</g>
<!-- Node8&#45;&gt;Node13 -->
<g id="edge13" class="edge">
<title>Node8&#45;&gt;Node13</title>
<path fill="none" stroke="#191970" d="M652.4034,-175.2697C740.4563,-164.0113 898.2364,-143.8378 992.316,-131.8089"/>
<polygon fill="#191970" stroke="#191970" points="992.8645,-135.2674 1002.3398,-130.5273 991.9766,-128.3239 992.8645,-135.2674"/>
</g>
<!-- Node17 -->
<g id="node17" class="node">
<title>Node17</title>
<g id="a_node17"><a xlink:href="$_blob_8h.html" xlink:title="uscxml/messages/Blob.h">
<polygon fill="#ffffff" stroke="#000000" points="492.5327,-112.5 492.5327,-131.5 619.5327,-131.5 619.5327,-112.5 492.5327,-112.5"/>
<text text-anchor="middle" x="556.0327" y="-119.5" font-family="Helvetica,sans-Serif" font-size="10.00" fill="#000000">uscxml/messages/Blob.h</text>
</a>
</g>
</g>
<!-- Node8&#45;&gt;Node17 -->
<g id="edge18" class="edge">
<title>Node8&#45;&gt;Node17</title>
<path fill="none" stroke="#191970" d="M583.0327,-173.8906C578.4569,-165.0965 571.5547,-151.8312 565.8744,-140.9145"/>
<polygon fill="#191970" stroke="#191970" points="568.8239,-139.0003 561.1032,-131.7449 562.6142,-142.2314 568.8239,-139.0003"/>
</g>
<!-- Node13&#45;&gt;Node4 -->
<g id="edge14" class="edge">
<title>Node13&#45;&gt;Node4</title>
<path fill="none" stroke="#191970" d="M1002.3122,-113.5422C997.4823,-112.9977 992.6841,-112.4773 988.0327,-112 805.3799,-93.258 588.6998,-77.287 485.8965,-70.0868"/>
<polygon fill="#191970" stroke="#191970" points="485.933,-66.581 475.7135,-69.3763 485.4456,-73.564 485.933,-66.581"/>
</g>
<!-- Node13&#45;&gt;Node14 -->
<g id="edge15" class="edge">
<title>Node13&#45;&gt;Node14</title>
<path fill="none" stroke="#191970" d="M1111.2129,-112.4369C1160.8334,-101.1869 1241.9824,-82.7887 1285.7579,-72.8639"/>
<polygon fill="#191970" stroke="#191970" points="1286.5515,-76.2729 1295.5301,-70.6484 1285.0037,-69.4462 1286.5515,-76.2729"/>
</g>
<!-- Node15 -->
<g id="node15" class="node">
<title>Node15</title>
<polygon fill="#ffffff" stroke="#bfbfbf" points="983.5327,-56.5 983.5327,-75.5 1022.5327,-75.5 1022.5327,-56.5 983.5327,-56.5"/>
<text text-anchor="middle" x="1003.0327" y="-63.5" font-family="Helvetica,sans-Serif" font-size="10.00" fill="#000000">limits</text>
</g>
<!-- Node13&#45;&gt;Node15 -->
<g id="edge16" class="edge">
<title>Node13&#45;&gt;Node15</title>
<path fill="none" stroke="#191970" d="M1057.5364,-112.2455C1047.7885,-103.9746 1033.6068,-91.9416 1022.1529,-82.2232"/>
<polygon fill="#191970" stroke="#191970" points="1024.2868,-79.4437 1014.3973,-75.6427 1019.758,-84.7813 1024.2868,-79.4437"/>
</g>
<!-- Node16 -->
<g id="node16" class="node">
<title>Node16</title>
<polygon fill="#ffffff" stroke="#bfbfbf" points="1718.0327,-56.5 1718.0327,-75.5 1770.0327,-75.5 1770.0327,-56.5 1718.0327,-56.5"/>
<text text-anchor="middle" x="1744.0327" y="-63.5" font-family="Helvetica,sans-Serif" font-size="10.00" fill="#000000">sstream</text>
</g>
<!-- Node13&#45;&gt;Node16 -->
<g id="edge17" class="edge">
<title>Node13&#45;&gt;Node16</title>
<path fill="none" stroke="#191970" d="M1135.6016,-116.4772C1276.1037,-104.8208 1598.9375,-78.0375 1707.5879,-69.0236"/>
<polygon fill="#191970" stroke="#191970" points="1708.0385,-72.4983 1717.7148,-68.1834 1707.4597,-65.5223 1708.0385,-72.4983"/>
</g>
<!-- Node17&#45;&gt;Node4 -->
<g id="edge21" class="edge">
<title>Node17&#45;&gt;Node4</title>
<path fill="none" stroke="#191970" d="M533.6849,-112.3733C512.6294,-103.3032 480.8832,-89.6279 457.3152,-79.4755"/>
<polygon fill="#191970" stroke="#191970" points="458.6577,-76.243 448.0889,-75.5011 455.8883,-82.6719 458.6577,-76.243"/>
</g>
<!-- Node17&#45;&gt;Node11 -->
<g id="edge20" class="edge">
<title>Node17&#45;&gt;Node11</title>
<path fill="none" stroke="#191970" d="M492.3767,-114.4476C392.1955,-102.5617 200.9114,-79.867 120.7792,-70.3598"/>
<polygon fill="#191970" stroke="#191970" points="121.0192,-66.8638 110.6764,-69.1611 120.1944,-73.815 121.0192,-66.8638"/>
</g>
<!-- Node17&#45;&gt;Node14 -->
<g id="edge19" class="edge">
<title>Node17&#45;&gt;Node14</title>
<path fill="none" stroke="#191970" d="M619.702,-116.0538C635.1855,-114.6659 651.6999,-113.2339 667.0327,-112 904.7602,-92.8685 1191.8238,-74.004 1285.1304,-67.9801"/>
<polygon fill="#191970" stroke="#191970" points="1285.5329,-71.4615 1295.2872,-67.3257 1285.0828,-64.476 1285.5329,-71.4615"/>
</g>
<!-- Node18&#45;&gt;Node4 -->
<g id="edge23" class="edge">
<title>Node18&#45;&gt;Node4</title>
<path fill="none" stroke="#191970" d="M1012.3262,-174.6075C968.0156,-165.9866 901.7428,-151.3754 846.0327,-132 826.1252,-125.0764 823.2984,-117.7921 803.0327,-112 744.8868,-95.3815 576.5116,-78.9614 485.7241,-70.9874"/>
<polygon fill="#191970" stroke="#191970" points="485.85,-67.4852 475.5838,-70.1036 485.2421,-74.4587 485.85,-67.4852"/>
</g>
<!-- Node18&#45;&gt;Node14 -->
<g id="edge24" class="edge">
<title>Node18&#45;&gt;Node14</title>
<path fill="none" stroke="#191970" d="M1111.9047,-177.8069C1152.4948,-171.4346 1210.0582,-158.3207 1254.0327,-132 1274.3638,-119.8309 1292.2457,-99.1138 1303.5152,-84.132"/>
<polygon fill="#191970" stroke="#191970" points="1306.6105,-85.8249 1309.6403,-75.6725 1300.9407,-81.7197 1306.6105,-85.8249"/>
</g>
<!-- Node19&#45;&gt;Node4 -->
<g id="edge26" class="edge">
<title>Node19&#45;&gt;Node4</title>
<path fill="none" stroke="#191970" d="M866.3502,-377.0475C801.0545,-367.4415 695.0816,-349.9515 659.0327,-333 639.3087,-323.725 638.3497,-315.2357 621.0327,-302 558.5155,-254.2171 528.6594,-258.3826 477.0327,-199 447.9414,-165.5382 434.5829,-113.7078 429.1895,-85.6527"/>
<polygon fill="#191970" stroke="#191970" points="432.5853,-84.7564 427.3936,-75.5208 425.6928,-85.9782 432.5853,-84.7564"/>
</g>
<!-- Node19&#45;&gt;Node7 -->
<g id="edge27" class="edge">
<title>Node19&#45;&gt;Node7</title>
<path fill="none" stroke="#191970" d="M910.3346,-369.389C894.4505,-344.6393 862.9451,-295.5495 845.8056,-268.8438"/>
<polygon fill="#191970" stroke="#191970" points="848.5434,-266.6296 840.1966,-260.1042 842.6523,-270.4105 848.5434,-266.6296"/>
</g>
<!-- Node19&#45;&gt;Node20 -->
<g id="edge28" class="edge">
<title>Node19&#45;&gt;Node20</title>
<path fill="none" stroke="#191970" d="M866.4316,-376.2926C807.3302,-366.9684 709.543,-350.7293 626.0327,-333 624.7812,-332.7343 623.5166,-332.4611 622.2427,-332.1816"/>
<polygon fill="#191970" stroke="#191970" points="622.8822,-328.7377 612.3553,-329.9356 621.3315,-335.5639 622.8822,-328.7377"/>
</g>
<!-- Node21 -->
<g id="node21" class="node">
<title>Node21</title>
<g id="a_node21"><a xlink:href="$_interpreter_issue_8h.html" xlink:title="Identifies some common problems with SCXML documents. ">
<polygon fill="#ffffff" stroke="#000000" points="1244.5327,-168.5 1244.5327,-198.5 1371.5327,-198.5 1371.5327,-168.5 1244.5327,-168.5"/>
<text text-anchor="start" x="1252.5327" y="-186.5" font-family="Helvetica,sans-Serif" font-size="10.00" fill="#000000">uscxml/debug/Interpreter</text>
<text text-anchor="middle" x="1308.0327" y="-175.5" font-family="Helvetica,sans-Serif" font-size="10.00" fill="#000000">Issue.h</text>
</a>
</g>
</g>
<!-- Node19&#45;&gt;Node21 -->
<g id="edge33" class="edge">
<title>Node19&#45;&gt;Node21</title>
<path fill="none" stroke="#191970" d="M949.1958,-369.3923C1018.4614,-333.5099 1192.8305,-243.1795 1270.1287,-203.1358"/>
<polygon fill="#191970" stroke="#191970" points="1271.7912,-206.2164 1279.0605,-198.5088 1268.5713,-200.0009 1271.7912,-206.2164"/>
</g>
<!-- Node22 -->
<g id="node22" class="node">
<title>Node22</title>
<polygon fill="#ffffff" stroke="#bfbfbf" points="1293.0327,-241 1293.0327,-260 1337.0327,-260 1337.0327,-241 1293.0327,-241"/>
<text text-anchor="middle" x="1315.0327" y="-248" font-family="Helvetica,sans-Serif" font-size="10.00" fill="#000000">mutex</text>
</g>
<!-- Node19&#45;&gt;Node22 -->
<g id="edge36" class="edge">
<title>Node19&#45;&gt;Node22</title>
<path fill="none" stroke="#191970" d="M973.7423,-381.9415C1032.2634,-377.5348 1127.6082,-365.5527 1203.0327,-333 1240.4206,-316.8637 1277.146,-286.1928 1297.8615,-267.1345"/>
<polygon fill="#191970" stroke="#191970" points="1300.3325,-269.6155 1305.2288,-260.2199 1295.542,-264.5114 1300.3325,-269.6155"/>
</g>
<!-- Node20&#45;&gt;Node4 -->
<g id="edge29" class="edge">
<title>Node20&#45;&gt;Node4</title>
<path fill="none" stroke="#191970" d="M515.7896,-311.5326C460.2442,-303.7203 373.6114,-288.3403 350.0327,-266 300.1432,-218.7307 297.084,-168.6247 336.0327,-112 346.424,-96.8929 363.3268,-86.4545 379.6943,-79.3906"/>
<polygon fill="#191970" stroke="#191970" points="381.2125,-82.5537 389.2161,-75.6116 378.6303,-76.0474 381.2125,-82.5537"/>
</g>
<!-- Node20&#45;&gt;Node7 -->
<g id="edge31" class="edge">
<title>Node20&#45;&gt;Node7</title>
<path fill="none" stroke="#191970" d="M612.3033,-305.5217C661.261,-293.373 736.6086,-274.6756 785.618,-262.514"/>
<polygon fill="#191970" stroke="#191970" points="786.4924,-265.9033 795.355,-260.0978 784.8064,-259.1093 786.4924,-265.9033"/>
</g>
<!-- Node20&#45;&gt;Node8 -->
<g id="edge30" class="edge">
<title>Node20&#45;&gt;Node8</title>
<path fill="none" stroke="#191970" d="M566.7392,-302.389C571.0942,-278.0735 579.657,-230.2644 584.4919,-203.2698"/>
<polygon fill="#191970" stroke="#191970" points="587.9947,-203.5646 586.3126,-193.1042 581.1043,-202.3305 587.9947,-203.5646"/>
</g>
<!-- Node20&#45;&gt;Node11 -->
<g id="edge32" class="edge">
<title>Node20&#45;&gt;Node11</title>
<path fill="none" stroke="#191970" d="M516.0297,-312.3223C430.0215,-302.7986 253.0342,-282.0115 193.0327,-266 116.1621,-245.4869 71.5341,-264.9508 27.0327,-199 1.3098,-160.8788 41.5222,-109.268 66.5242,-82.9534"/>
<polygon fill="#191970" stroke="#191970" points="69.1952,-85.2288 73.7053,-75.6418 64.2011,-80.3238 69.1952,-85.2288"/>
</g>
<!-- Node21&#45;&gt;Node4 -->
<g id="edge34" class="edge">
<title>Node21&#45;&gt;Node4</title>
<path fill="none" stroke="#191970" d="M1244.2693,-175.6509C1174.2815,-166.6667 1058.7357,-150.7482 960.0327,-132 921.4798,-124.6771 912.7393,-118.4614 874.0327,-112 736.0083,-88.9591 572.0069,-75.6516 485.8125,-69.7295"/>
<polygon fill="#191970" stroke="#191970" points="485.9074,-66.228 475.6936,-69.0437 485.4341,-73.2119 485.9074,-66.228"/>
</g>
<!-- Node21&#45;&gt;Node9 -->
<g id="edge35" class="edge">
<title>Node21&#45;&gt;Node9</title>
<path fill="none" stroke="#191970" d="M1340.3235,-168.4554C1363.7804,-157.5267 1395.0025,-142.98 1416.2162,-133.0963"/>
<polygon fill="#191970" stroke="#191970" points="1417.8851,-136.1801 1425.4714,-128.7842 1414.9288,-129.8349 1417.8851,-136.1801"/>
</g>
<!-- Node24&#45;&gt;Node4 -->
<g id="edge42" class="edge">
<title>Node24&#45;&gt;Node4</title>
<path fill="none" stroke="#191970" d="M414.5046,-381.7687C306.3732,-375.6352 66.8304,-359.2193 41.0327,-333 -.9641,-290.3169 30.148,-258.7986 27.0327,-199 26.3159,-185.2409 22.6018,-181.0459 27.0327,-168 37.1244,-138.2872 42.8356,-127.6528 70.0327,-112 119.1957,-83.7052 278.4562,-72.3908 366.3729,-68.2148"/>
<polygon fill="#191970" stroke="#191970" points="366.6399,-71.7064 376.469,-67.7518 366.3191,-64.7137 366.6399,-71.7064"/>
</g>
<!-- Node24&#45;&gt;Node10 -->
<g id="edge43" class="edge">
<title>Node24&#45;&gt;Node10</title>
<path fill="none" stroke="#191970" d="M469.8408,-374.9068C475.0211,-358.4827 487.3822,-324.5693 507.0327,-302 561.1032,-239.8982 593.403,-245.9731 661.0327,-199 680.3829,-185.5601 684.5426,-181.2363 704.0327,-168 719.7358,-157.3356 737.7309,-145.8386 751.8026,-137.0062"/>
<polygon fill="#191970" stroke="#191970" points="753.7934,-139.8894 760.4197,-131.6224 750.0843,-133.9528 753.7934,-139.8894"/>
</g>
<!-- Node24&#45;&gt;Node14 -->
<g id="edge44" class="edge">
<title>Node24&#45;&gt;Node14</title>
<path fill="none" stroke="#191970" d="M519.822,-380.8085C598.2204,-374.6623 749.7551,-360.2273 876.0327,-333 974.7021,-311.7254 1002.2225,-310.0652 1093.0327,-266 1162.0213,-232.5236 1169.4795,-207.7853 1235.0327,-168 1264.2662,-150.2578 1282.6331,-159.4452 1303.0327,-132 1312.9277,-118.6875 1315.8446,-99.8311 1316.4806,-85.6802"/>
<polygon fill="#191970" stroke="#191970" points="1319.9819,-85.5737 1316.5914,-75.5361 1312.9823,-85.4972 1319.9819,-85.5737"/>
</g>
<!-- Node24&#45;&gt;Node20 -->
<g id="edge54" class="edge">
<title>Node24&#45;&gt;Node20</title>
<path fill="none" stroke="#191970" d="M480.9304,-374.9005C494.7062,-365.3853 516.2532,-350.5023 533.9548,-338.2755"/>
<polygon fill="#191970" stroke="#191970" points="536.0459,-341.0849 542.2848,-332.5218 532.0676,-335.3253 536.0459,-341.0849"/>
</g>
<!-- Node25 -->
<g id="node25" class="node">
<title>Node25</title>
<polygon fill="#ffffff" stroke="#bfbfbf" points="50.0327,-308 50.0327,-327 94.0327,-327 94.0327,-308 50.0327,-308"/>
<text text-anchor="middle" x="72.0327" y="-315" font-family="Helvetica,sans-Serif" font-size="10.00" fill="#000000">vector</text>
</g>
<!-- Node24&#45;&gt;Node25 -->
<g id="edge45" class="edge">
<title>Node24&#45;&gt;Node25</title>
<path fill="none" stroke="#191970" d="M414.4154,-381.3118C343.647,-376.0432 214.3974,-362.9561 108.0327,-333 105.8508,-332.3855 103.6271,-331.6684 101.4095,-330.886"/>
<polygon fill="#191970" stroke="#191970" points="102.4622,-327.5394 91.8744,-327.1515 99.9093,-334.0573 102.4622,-327.5394"/>
</g>
<!-- Node26 -->
<g id="node26" class="node">
<title>Node26</title>
<g id="a_node26"><a xlink:href="$_micro_step_8h.html" xlink:title="uscxml/interpreter\l/MicroStep.h">
<polygon fill="#ffffff" stroke="#000000" points="202.0327,-235.5 202.0327,-265.5 298.0327,-265.5 298.0327,-235.5 202.0327,-235.5"/>
<text text-anchor="start" x="210.0327" y="-253.5" font-family="Helvetica,sans-Serif" font-size="10.00" fill="#000000">uscxml/interpreter</text>
<text text-anchor="middle" x="250.0327" y="-242.5" font-family="Helvetica,sans-Serif" font-size="10.00" fill="#000000">/MicroStep.h</text>
</a>
</g>
</g>
<!-- Node24&#45;&gt;Node26 -->
<g id="edge46" class="edge">
<title>Node24&#45;&gt;Node26</title>
<path fill="none" stroke="#191970" d="M460.8594,-374.9486C449.43,-357.9735 423.355,-322.4199 393.0327,-302 378.5405,-292.2405 340.7757,-278.797 307.694,-268.0925"/>
<polygon fill="#191970" stroke="#191970" points="308.6521,-264.7243 298.0611,-265.0087 306.5178,-271.391 308.6521,-264.7243"/>
</g>
<!-- Node27 -->
<g id="node27" class="node">
<title>Node27</title>
<g id="a_node27"><a xlink:href="$_interpreter_state_8h.html" xlink:title="uscxml/interpreter\l/InterpreterState.h">
<polygon fill="#ffffff" stroke="#000000" points="36.5327,-168.5 36.5327,-198.5 133.5327,-198.5 133.5327,-168.5 36.5327,-168.5"/>
<text text-anchor="start" x="44.5327" y="-186.5" font-family="Helvetica,sans-Serif" font-size="10.00" fill="#000000">uscxml/interpreter</text>
<text text-anchor="middle" x="85.0327" y="-175.5" font-family="Helvetica,sans-Serif" font-size="10.00" fill="#000000">/InterpreterState.h</text>
</a>
</g>
</g>
<!-- Node24&#45;&gt;Node27 -->
<g id="edge78" class="edge">
<title>Node24&#45;&gt;Node27</title>
<path fill="none" stroke="#191970" d="M414.439,-380.3797C339.7451,-371.7875 203.0322,-345.5353 122.0327,-266 106.0221,-250.2788 96.3553,-226.3919 90.9398,-208.3601"/>
<polygon fill="#191970" stroke="#191970" points="94.2602,-207.2348 88.2266,-198.5258 87.5123,-209.0965 94.2602,-207.2348"/>
</g>
<!-- Node28 -->
<g id="node28" class="node">
<title>Node28</title>
<g id="a_node28"><a xlink:href="$_data_model_8h.html" xlink:title="uscxml/plugins/DataModel.h">
<polygon fill="#ffffff" stroke="#000000" points="668.0327,-308 668.0327,-327 810.0327,-327 810.0327,-308 668.0327,-308"/>
<text text-anchor="middle" x="739.0327" y="-315" font-family="Helvetica,sans-Serif" font-size="10.00" fill="#000000">uscxml/plugins/DataModel.h</text>
</a>
</g>
</g>
<!-- Node24&#45;&gt;Node28 -->
<g id="edge55" class="edge">
<title>Node24&#45;&gt;Node28</title>
<path fill="none" stroke="#191970" d="M505.7148,-374.9717C554.2163,-363.0246 637.3954,-342.5357 690.2248,-329.5225"/>
<polygon fill="#191970" stroke="#191970" points="691.171,-332.8942 700.0437,-327.1039 689.4968,-326.0973 691.171,-332.8942"/>
</g>
<!-- Node29 -->
<g id="node29" class="node">
<title>Node29</title>
<g id="a_node29"><a xlink:href="$_factory_8h.html" xlink:title="uscxml/plugins/Factory.h">
<polygon fill="#ffffff" stroke="#000000" points="957.5327,-241 957.5327,-260 1084.5327,-260 1084.5327,-241 957.5327,-241"/>
<text text-anchor="middle" x="1021.0327" y="-248" font-family="Helvetica,sans-Serif" font-size="10.00" fill="#000000">uscxml/plugins/Factory.h</text>
</a>
</g>
</g>
<!-- Node24&#45;&gt;Node29 -->
<g id="edge61" class="edge">
<title>Node24&#45;&gt;Node29</title>
<path fill="none" stroke="#191970" d="M519.7328,-380.7948C589.2823,-375.0012 715.0633,-361.3839 819.0327,-333 883.379,-315.4333 954.7712,-283.0028 993.0762,-264.4656"/>
<polygon fill="#191970" stroke="#191970" points="994.6278,-267.6031 1002.0775,-260.0696 991.5559,-261.3131 994.6278,-267.6031"/>
</g>
<!-- Node31 -->
<g id="node31" class="node">
<title>Node31</title>
<g id="a_node31"><a xlink:href="$_content_executor_8h.html" xlink:title="uscxml/interpreter\l/ContentExecutor.h">
<polygon fill="#ffffff" stroke="#000000" points="396.0327,-235.5 396.0327,-265.5 498.0327,-265.5 498.0327,-235.5 396.0327,-235.5"/>
<text text-anchor="start" x="404.0327" y="-253.5" font-family="Helvetica,sans-Serif" font-size="10.00" fill="#000000">uscxml/interpreter</text>
<text text-anchor="middle" x="447.0327" y="-242.5" font-family="Helvetica,sans-Serif" font-size="10.00" fill="#000000">/ContentExecutor.h</text>
</a>
</g>
</g>
<!-- Node24&#45;&gt;Node31 -->
<g id="edge71" class="edge">
<title>Node24&#45;&gt;Node31</title>
<path fill="none" stroke="#191970" d="M465.5944,-374.8631C462.5312,-354.3397 455.2783,-305.7457 450.7997,-275.7388"/>
<polygon fill="#191970" stroke="#191970" points="454.226,-274.9848 449.2881,-265.611 447.3027,-276.0182 454.226,-274.9848"/>
</g>
<!-- Node32 -->
<g id="node32" class="node">
<title>Node32</title>
<g id="a_node32"><a xlink:href="$_event_queue_8h.html" xlink:title="uscxml/interpreter\l/EventQueue.h">
<polygon fill="#ffffff" stroke="#000000" points="288.0327,-302.5 288.0327,-332.5 384.0327,-332.5 384.0327,-302.5 288.0327,-302.5"/>
<text text-anchor="start" x="296.0327" y="-320.5" font-family="Helvetica,sans-Serif" font-size="10.00" fill="#000000">uscxml/interpreter</text>
<text text-anchor="middle" x="336.0327" y="-309.5" font-family="Helvetica,sans-Serif" font-size="10.00" fill="#000000">/EventQueue.h</text>
</a>
</g>
</g>
<!-- Node24&#45;&gt;Node32 -->
<g id="edge75" class="edge">
<title>Node24&#45;&gt;Node32</title>
<path fill="none" stroke="#191970" d="M448.2636,-374.9005C429.0673,-365.0826 398.6972,-349.5498 374.3878,-337.1167"/>
<polygon fill="#191970" stroke="#191970" points="375.9005,-333.9592 365.4036,-332.5218 372.713,-340.1914 375.9005,-333.9592"/>
</g>
<!-- Node26&#45;&gt;Node4 -->
<g id="edge50" class="edge">
<title>Node26&#45;&gt;Node4</title>
<path fill="none" stroke="#191970" d="M245.9963,-235.137C239.6495,-207.1859 230.8554,-147.6216 260.0327,-112 273.6727,-95.3474 324.4656,-82.8772 366.313,-75.1516"/>
<polygon fill="#191970" stroke="#191970" points="366.9544,-78.5925 376.1813,-73.3853 365.7211,-71.702 366.9544,-78.5925"/>
</g>
<!-- Node26&#45;&gt;Node8 -->
<g id="edge51" class="edge">
<title>Node26&#45;&gt;Node8</title>
<path fill="none" stroke="#191970" d="M298.1009,-240.9717C359.0842,-228.8833 464.1851,-208.0497 529.6957,-195.0638"/>
<polygon fill="#191970" stroke="#191970" points="530.7284,-198.4273 539.857,-193.0496 529.3673,-191.5609 530.7284,-198.4273"/>
</g>
<!-- Node26&#45;&gt;Node9 -->
<g id="edge48" class="edge">
<title>Node26&#45;&gt;Node9</title>
<path fill="none" stroke="#191970" d="M298.1946,-244.8254C324.444,-241.7895 357.5094,-238.0574 387.0327,-235 557.0958,-217.3887 600.1505,-218.2779 770.0327,-199 873.8346,-187.2207 899.2982,-180.3582 1003.0327,-168 1159.8214,-149.3214 1348.7399,-130.7769 1415.344,-124.3596"/>
<polygon fill="#191970" stroke="#191970" points="1415.6843,-127.8431 1425.3037,-123.4026 1415.0148,-120.8752 1415.6843,-127.8431"/>
</g>
<!-- Node26&#45;&gt;Node11 -->
<g id="edge47" class="edge">
<title>Node26&#45;&gt;Node11</title>
<path fill="none" stroke="#191970" d="M229.2486,-235.2952C194.1916,-209.31 125.4207,-156.7691 108.0327,-132 98.1936,-117.9842 91.9266,-99.481 88.2737,-85.6334"/>
<polygon fill="#191970" stroke="#191970" points="91.6264,-84.6057 85.8863,-75.7006 84.8203,-86.2416 91.6264,-84.6057"/>
</g>
<!-- Node26&#45;&gt;Node14 -->
<g id="edge49" class="edge">
<title>Node26&#45;&gt;Node14</title>
<path fill="none" stroke="#191970" d="M298.3924,-244.861C399.3649,-233.0258 626.1519,-206.1023 661.0327,-199 710.3856,-188.9509 720.5407,-177.34 770.0327,-168 934.1267,-137.0325 985.199,-183.5526 1144.0327,-132 1160.708,-126.5877 1162.0733,-119.2564 1178.0327,-112 1213.864,-95.7083 1257.2176,-82.2034 1285.6524,-74.1309"/>
<polygon fill="#191970" stroke="#191970" points="1286.7205,-77.4666 1295.4118,-71.4074 1284.839,-70.7242 1286.7205,-77.4666"/>
</g>
<!-- Node26&#45;&gt;Node27 -->
<g id="edge52" class="edge">
<title>Node26&#45;&gt;Node27</title>
<path fill="none" stroke="#191970" d="M213.0035,-235.4639C188.9919,-225.7137 157.5069,-212.9289 131.7758,-202.4805"/>
<polygon fill="#191970" stroke="#191970" points="132.8055,-199.1212 122.2234,-198.6017 130.1719,-205.6069 132.8055,-199.1212"/>
</g>
<!-- Node27&#45;&gt;Node4 -->
<g id="edge53" class="edge">
<title>Node27&#45;&gt;Node4</title>
<path fill="none" stroke="#191970" d="M101.152,-168.364C119.6782,-151.8519 151.7087,-125.921 184.0327,-112 243.0113,-86.5997 316.059,-75.1706 366.3809,-70.0619"/>
<polygon fill="#191970" stroke="#191970" points="366.827,-73.5352 376.4458,-69.0935 366.1566,-66.5674 366.827,-73.5352"/>
</g>
<!-- Node28&#45;&gt;Node4 -->
<g id="edge56" class="edge">
<title>Node28&#45;&gt;Node4</title>
<path fill="none" stroke="#191970" d="M670.0523,-307.9771C568.2225,-293.8406 389.3424,-268.6722 387.0327,-266 341.3949,-213.1992 389.2578,-123.0041 413.6154,-84.4058"/>
<polygon fill="#191970" stroke="#191970" points="416.7198,-86.0516 419.2304,-75.7585 410.8489,-82.2394 416.7198,-86.0516"/>
</g>
<!-- Node28&#45;&gt;Node7 -->
<g id="edge57" class="edge">
<title>Node28&#45;&gt;Node7</title>
<path fill="none" stroke="#191970" d="M752.6439,-307.9005C768.1638,-296.9549 793.755,-278.9064 812.0994,-265.9688"/>
<polygon fill="#191970" stroke="#191970" points="814.2919,-268.7054 820.4468,-260.0817 810.2575,-262.9849 814.2919,-268.7054"/>
</g>
<!-- Node28&#45;&gt;Node9 -->
<g id="edge58" class="edge">
<title>Node28&#45;&gt;Node9</title>
<path fill="none" stroke="#191970" d="M810.1828,-308.9365C881.8735,-299.8889 995.5403,-284.3981 1093.0327,-266 1125.3174,-259.9074 1353.4218,-216.8062 1381.0327,-199 1403.6028,-184.4446 1420.948,-158.1443 1430.8198,-140.3795"/>
<polygon fill="#191970" stroke="#191970" points="1433.9267,-141.9913 1435.521,-131.5171 1427.7429,-138.711 1433.9267,-141.9913"/>
</g>
<!-- Node28&#45;&gt;Node11 -->
<g id="edge60" class="edge">
<title>Node28&#45;&gt;Node11</title>
<path fill="none" stroke="#191970" d="M670.7726,-307.9828C654.491,-305.8654 637.1592,-303.7364 621.0327,-302 487.8329,-287.6578 101.9673,-310.0527 27.0327,-199 1.3098,-160.8788 41.5222,-109.268 66.5242,-82.9534"/>
<polygon fill="#191970" stroke="#191970" points="69.1952,-85.2288 73.7053,-75.6418 64.2011,-80.3238 69.1952,-85.2288"/>
</g>
<!-- Node28&#45;&gt;Node14 -->
<g id="edge59" class="edge">
<title>Node28&#45;&gt;Node14</title>
<path fill="none" stroke="#191970" d="M738.3134,-307.8934C737.5936,-290.8308 738.6909,-255.1432 758.0327,-235 762.9194,-229.9108 996.143,-169.5203 1003.0327,-168 1096.7865,-147.3116 1126.7095,-167.2015 1216.0327,-132 1232.3209,-125.581 1270.4239,-99.0684 1294.6117,-81.6618"/>
<polygon fill="#191970" stroke="#191970" points="1296.7789,-84.4138 1302.8272,-75.715 1292.6744,-78.7434 1296.7789,-84.4138"/>
</g>
<!-- Node29&#45;&gt;Node4 -->
<g id="edge62" class="edge">
<title>Node29&#45;&gt;Node4</title>
<path fill="none" stroke="#191970" d="M957.4259,-241.1755C941.6319,-239.0041 924.7315,-236.8025 909.0327,-235 821.6863,-224.971 590.6189,-243.9077 515.0327,-199 470.9974,-172.8375 444.2292,-115.3804 432.6958,-85.271"/>
<polygon fill="#191970" stroke="#191970" points="435.8532,-83.7141 429.1322,-75.524 429.2788,-86.1178 435.8532,-83.7141"/>
</g>
<!-- Node29&#45;&gt;Node10 -->
<g id="edge68" class="edge">
<title>Node29&#45;&gt;Node10</title>
<path fill="none" stroke="#191970" d="M969.7816,-240.9496C935.8527,-233.1198 891.2832,-219.8635 856.0327,-199 829.2308,-183.1369 804.3951,-156.6278 789.7188,-139.2284"/>
<polygon fill="#191970" stroke="#191970" points="792.4218,-137.0048 783.3661,-131.5052 787.0157,-141.4516 792.4218,-137.0048"/>
</g>
<!-- Node29&#45;&gt;Node11 -->
<g id="edge66" class="edge">
<title>Node29&#45;&gt;Node11</title>
<path fill="none" stroke="#191970" d="M957.4358,-241.0872C941.6416,-238.9182 924.7386,-236.7399 909.0327,-235 717.5386,-213.7863 665.6745,-238.1699 477.0327,-199 338.5075,-170.2364 181.1996,-107.3165 115.4781,-79.586"/>
<polygon fill="#191970" stroke="#191970" points="116.6683,-76.2889 106.0957,-75.6029 113.9329,-82.7324 116.6683,-76.2889"/>
</g>
<!-- Node29&#45;&gt;Node14 -->
<g id="edge69" class="edge">
<title>Node29&#45;&gt;Node14</title>
<path fill="none" stroke="#191970" d="M1042.3096,-240.8026C1104.4052,-212.5014 1281.0327,-132 1281.0327,-132 1294.709,-119.1208 1304.1136,-99.6874 1309.7023,-85.2394"/>
<polygon fill="#191970" stroke="#191970" points="1313.0188,-86.3596 1313.1039,-75.7651 1306.4306,-83.9942 1313.0188,-86.3596"/>
</g>
<!-- Node29&#45;&gt;Node15 -->
<g id="edge70" class="edge">
<title>Node29&#45;&gt;Node15</title>
<path fill="none" stroke="#191970" d="M1016.9814,-240.8572C1008.0305,-218.4472 987.7653,-161.0263 993.0327,-112 993.9691,-103.285 995.876,-93.7985 997.7759,-85.7166"/>
<polygon fill="#191970" stroke="#191970" points="1001.2325,-86.3218 1000.2706,-75.7707 994.4428,-84.6187 1001.2325,-86.3218"/>
</g>
<!-- Node29&#45;&gt;Node23 -->
<g id="edge67" class="edge">
<title>Node29&#45;&gt;Node23</title>
<path fill="none" stroke="#191970" d="M1084.7629,-247.4589C1201.4798,-241.3174 1444.927,-225.6973 1525.0327,-199 1566.6653,-185.1249 1609.1864,-155.949 1633.2307,-137.7627"/>
<polygon fill="#191970" stroke="#191970" points="1635.4325,-140.4847 1641.2172,-131.6085 1631.1598,-134.9399 1635.4325,-140.4847"/>
</g>
<!-- Node29&#45;&gt;Node30 -->
<g id="edge63" class="edge">
<title>Node29&#45;&gt;Node30</title>
<path fill="none" stroke="#191970" d="M1084.9081,-241.3944C1185.4685,-227.0592 1377.3375,-199.7076 1456.0332,-188.4893"/>
<polygon fill="#191970" stroke="#191970" points="1456.9592,-191.8928 1466.3651,-187.0164 1455.9712,-184.9628 1456.9592,-191.8928"/>
</g>
<!-- Node30&#45;&gt;Node9 -->
<g id="edge65" class="edge">
<title>Node30&#45;&gt;Node9</title>
<path fill="none" stroke="#191970" d="M1483.064,-173.8906C1475.4736,-164.7376 1463.8666,-150.7409 1454.6195,-139.59"/>
<polygon fill="#191970" stroke="#191970" points="1457.1914,-137.2083 1448.1138,-131.7449 1451.803,-141.6766 1457.1914,-137.2083"/>
</g>
<!-- Node30&#45;&gt;Node14 -->
<g id="edge64" class="edge">
<title>Node30&#45;&gt;Node14</title>
<path fill="none" stroke="#191970" d="M1490.0441,-173.6867C1487.9774,-158.3536 1481.8041,-128.7405 1464.0327,-112 1447.0253,-95.9792 1384.9791,-80.5248 1346.8306,-72.2417"/>
<polygon fill="#191970" stroke="#191970" points="1347.271,-68.7571 1336.7618,-70.101 1345.8153,-75.6041 1347.271,-68.7571"/>
</g>
<!-- Node31&#45;&gt;Node4 -->
<g id="edge72" class="edge">
<title>Node31&#45;&gt;Node4</title>
<path fill="none" stroke="#191970" d="M439.0902,-235.3314C426.7959,-210.0657 405.2431,-157.6275 412.0327,-112 413.3654,-103.0439 416.0822,-93.419 418.7708,-85.3"/>
<polygon fill="#191970" stroke="#191970" points="422.1394,-86.272 422.1703,-75.6772 415.5391,-83.9402 422.1394,-86.272"/>
</g>
<!-- Node31&#45;&gt;Node8 -->
<g id="edge73" class="edge">
<title>Node31&#45;&gt;Node8</title>
<path fill="none" stroke="#191970" d="M478.6759,-235.4639C502.6536,-224.0702 535.352,-208.5327 558.7344,-197.4219"/>
<polygon fill="#191970" stroke="#191970" points="560.2915,-200.5571 567.8215,-193.1039 557.2871,-194.2346 560.2915,-200.5571"/>
</g>
<!-- Node31&#45;&gt;Node14 -->
<g id="edge74" class="edge">
<title>Node31&#45;&gt;Node14</title>
<path fill="none" stroke="#191970" d="M498.2797,-242.394C661.8332,-216.4981 1161.6277,-137.1545 1178.0327,-132 1199.882,-125.1349 1254.9299,-97.5621 1288.5252,-80.3006"/>
<polygon fill="#191970" stroke="#191970" points="1290.511,-83.2145 1297.7943,-75.52 1287.3023,-76.9932 1290.511,-83.2145"/>
</g>
<!-- Node32&#45;&gt;Node4 -->
<g id="edge76" class="edge">
<title>Node32&#45;&gt;Node4</title>
<path fill="none" stroke="#191970" d="M287.8943,-306.4597C250.924,-296.8916 204.3356,-282.0842 193.0327,-266 185.111,-254.7273 190.2492,-248.4937 193.0327,-235 205.0585,-176.7017 200.7773,-150.6685 246.0327,-112 264.1569,-96.5138 321.3656,-83.5746 366.4792,-75.4043"/>
<polygon fill="#191970" stroke="#191970" points="367.2485,-78.8227 376.4854,-73.6334 366.0285,-71.9298 367.2485,-78.8227"/>
</g>
<!-- Node32&#45;&gt;Node7 -->
<g id="edge77" class="edge">
<title>Node32&#45;&gt;Node7</title>
<path fill="none" stroke="#191970" d="M384.2355,-311.0149C470.8149,-299.3667 653.2982,-274.8157 757.2603,-260.8288"/>
<polygon fill="#191970" stroke="#191970" points="757.9344,-264.2698 767.3784,-259.4675 757.001,-257.3323 757.9344,-264.2698"/>
</g>
<!-- Node33&#45;&gt;Node9 -->
<g id="edge82" class="edge">
<title>Node33&#45;&gt;Node9</title>
<path fill="none" stroke="#191970" d="M1829.7332,-240.9466C1749.2714,-216.3876 1536.4876,-151.4405 1464.3488,-129.4219"/>
<polygon fill="#191970" stroke="#191970" points="1465.3446,-126.0665 1454.7584,-126.4947 1463.301,-132.7616 1465.3446,-126.0665"/>
</g>
<!-- Node33&#45;&gt;Node13 -->
<g id="edge91" class="edge">
<title>Node33&#45;&gt;Node13</title>
<path fill="none" stroke="#191970" d="M1799.7114,-243.5383C1695.1134,-231.5333 1490.3258,-207.4153 1458.0327,-199 1422.3334,-189.697 1416.6407,-177.6467 1381.0327,-168 1302.2759,-146.6638 1209.4817,-134.5801 1145.683,-128.207"/>
<polygon fill="#191970" stroke="#191970" points="1145.992,-124.7206 1135.6993,-127.2326 1145.312,-131.6875 1145.992,-124.7206"/>
</g>
<!-- Node33&#45;&gt;Node14 -->
<g id="edge81" class="edge">
<title>Node33&#45;&gt;Node14</title>
<path fill="none" stroke="#191970" d="M1873.9867,-240.7027C1885.1415,-231.3819 1900.4509,-216.2489 1907.0327,-199 1920.8176,-162.874 1933.2919,-140.3825 1907.0327,-112 1887.8227,-91.2367 1465.5984,-72.2049 1346.8524,-67.2484"/>
<polygon fill="#191970" stroke="#191970" points="1346.7762,-63.7424 1336.64,-66.8258 1346.4867,-70.7364 1346.7762,-63.7424"/>
</g>
<!-- Node33&#45;&gt;Node34 -->
<g id="edge83" class="edge">
<title>Node33&#45;&gt;Node34</title>
<path fill="none" stroke="#191970" d="M1878.14,-240.8891C1894.684,-231.2469 1920.1065,-215.4956 1940.0327,-199 1962.4106,-180.4748 1985.117,-155.7811 1999.3666,-139.4097"/>
<polygon fill="#191970" stroke="#191970" points="2002.1413,-141.5508 2006.0008,-131.6839 1996.8307,-136.9905 2002.1413,-141.5508"/>
</g>
<!-- Node35 -->
<g id="node35" class="node">
<title>Node35</title>
<g id="a_node35"><a xlink:href="$_d_o_m_8h.html" xlink:title="uscxml/util/DOM.h">
<polygon fill="#ffffff" stroke="#000000" points="1800.0327,-174 1800.0327,-193 1898.0327,-193 1898.0327,-174 1800.0327,-174"/>
<text text-anchor="middle" x="1849.0327" y="-181" font-family="Helvetica,sans-Serif" font-size="10.00" fill="#000000">uscxml/util/DOM.h</text>
</a>
</g>
</g>
<!-- Node33&#45;&gt;Node35 -->
<g id="edge84" class="edge">
<title>Node33&#45;&gt;Node35</title>
<path fill="none" stroke="#191970" d="M1859.3134,-240.9005C1857.549,-231.0495 1854.7542,-215.4451 1852.5237,-202.9912"/>
<polygon fill="#191970" stroke="#191970" points="1855.9571,-202.308 1850.7488,-193.0817 1849.0667,-203.5421 1855.9571,-202.308"/>
</g>
<!-- Node35&#45;&gt;Node4 -->
<g id="edge88" class="edge">
<title>Node35&#45;&gt;Node4</title>
<path fill="none" stroke="#191970" d="M1799.8399,-181.2648C1629.6933,-173.4337 1072.223,-146.9071 993.0327,-132 964.5787,-126.6437 959.401,-117.7931 931.0327,-112 772.283,-79.5817 580.7821,-70.0008 485.6706,-67.1761"/>
<polygon fill="#191970" stroke="#191970" points="485.7588,-63.6773 475.6639,-66.8934 485.5611,-70.6745 485.7588,-63.6773"/>
</g>
<!-- Node35&#45;&gt;Node9 -->
<g id="edge86" class="edge">
<title>Node35&#45;&gt;Node9</title>
<path fill="none" stroke="#191970" d="M1799.6978,-176.0817C1711.7277,-162.8539 1530.827,-135.6524 1464.8289,-125.7285"/>
<polygon fill="#191970" stroke="#191970" points="1464.9779,-122.2117 1454.5686,-124.1857 1463.9369,-129.1338 1464.9779,-122.2117"/>
</g>
<!-- Node35&#45;&gt;Node14 -->
<g id="edge87" class="edge">
<title>Node35&#45;&gt;Node14</title>
<path fill="none" stroke="#191970" d="M1831.2731,-173.9124C1796.7138,-155.3224 1722.6882,-115.8547 1710.0327,-112 1642.0793,-91.3024 1427.7865,-74.0911 1347.1369,-68.188"/>
<polygon fill="#191970" stroke="#191970" points="1346.8995,-64.6618 1336.673,-67.4309 1346.3943,-71.6435 1346.8995,-64.6618"/>
</g>
<!-- Node35&#45;&gt;Node23 -->
<g id="edge85" class="edge">
<title>Node35&#45;&gt;Node23</title>
<path fill="none" stroke="#191970" d="M1818.4077,-173.8906C1779.6025,-161.7145 1713.4805,-140.967 1677.7306,-129.7496"/>
<polygon fill="#191970" stroke="#191970" points="1678.6763,-126.3781 1668.0871,-126.7237 1676.5805,-133.0571 1678.6763,-126.3781"/>
</g>
<!-- Node35&#45;&gt;Node34 -->
<g id="edge90" class="edge">
<title>Node35&#45;&gt;Node34</title>
<path fill="none" stroke="#191970" d="M1874.814,-173.8906C1902.7847,-163.4652 1947.6146,-146.7559 1978.8187,-135.1252"/>
<polygon fill="#191970" stroke="#191970" points="1980.2846,-138.3141 1988.4325,-131.5419 1977.8398,-131.7549 1980.2846,-138.3141"/>
</g>
<!-- Node36 -->
<g id="node36" class="node">
<title>Node36</title>
<polygon fill="#ffffff" stroke="#bfbfbf" points="1762.5327,-112.5 1762.5327,-131.5 1897.5327,-131.5 1897.5327,-112.5 1762.5327,-112.5"/>
<text text-anchor="middle" x="1830.0327" y="-119.5" font-family="Helvetica,sans-Serif" font-size="10.00" fill="#000000">xercesc/util/XMLString.hpp</text>
</g>
<!-- Node35&#45;&gt;Node36 -->
<g id="edge89" class="edge">
<title>Node35&#45;&gt;Node36</title>
<path fill="none" stroke="#191970" d="M1846.064,-173.8906C1843.4025,-165.276 1839.4156,-152.3708 1836.0836,-141.5858"/>
<polygon fill="#191970" stroke="#191970" points="1839.3392,-140.2661 1833.0433,-131.7449 1832.6511,-142.3324 1839.3392,-140.2661"/>
</g>
<!-- Node37&#45;&gt;Node4 -->
<g id="edge94" class="edge">
<title>Node37&#45;&gt;Node4</title>
<path fill="none" stroke="#191970" d="M1517.9321,-307.7285C1495.8619,-290.4044 1447.0043,-254.3161 1400.0327,-235 1330.6147,-206.4532 1307.9566,-216.7731 1235.0327,-199 1183.6026,-186.4654 1171.8673,-178.7401 1120.0327,-168 1011.833,-145.5811 978.4883,-168.0389 874.0327,-132 857.0963,-126.1567 856.0671,-117.5513 839.0327,-112 774.8533,-91.0847 583.8286,-76.1678 485.69,-69.6553"/>
<polygon fill="#191970" stroke="#191970" points="485.8372,-66.1576 475.6296,-68.9956 485.3791,-73.1426 485.8372,-66.1576"/>
</g>
<!-- Node37&#45;&gt;Node7 -->
<g id="edge95" class="edge">
<title>Node37&#45;&gt;Node7</title>
<path fill="none" stroke="#191970" d="M1482.8081,-314.0758C1383.6126,-306.7172 1146.3653,-288.2458 948.0327,-266 935.7378,-264.621 922.7186,-263.0018 910.0453,-261.3395"/>
<polygon fill="#191970" stroke="#191970" points="910.3504,-257.8493 899.9763,-260.0009 909.4278,-264.7883 910.3504,-257.8493"/>
</g>
<!-- Node37&#45;&gt;Node9 -->
<g id="edge100" class="edge">
<title>Node37&#45;&gt;Node9</title>
<path fill="none" stroke="#191970" d="M1530.924,-307.8435C1533.4406,-278.5725 1539.5169,-191.4088 1525.0327,-168 1511.7254,-146.4932 1484.6223,-134.3655 1464.5817,-128.0281"/>
<polygon fill="#191970" stroke="#191970" points="1465.4344,-124.6314 1454.8561,-125.2228 1463.4943,-131.3572 1465.4344,-124.6314"/>
</g>
<!-- Node37&#45;&gt;Node10 -->
<g id="edge98" class="edge">
<title>Node37&#45;&gt;Node10</title>
<path fill="none" stroke="#191970" d="M1513.4523,-307.8863C1481.9849,-290.1448 1410.9371,-252.4771 1346.0327,-235 1198.023,-195.1448 1152.9165,-231.0959 1003.0327,-199 912.9063,-179.7004 889.7741,-166.8522 803.4548,-133.6259"/>
<polygon fill="#191970" stroke="#191970" points="804.6375,-130.331 794.0472,-130.0205 802.1325,-136.8674 804.6375,-130.331"/>
</g>
<!-- Node37&#45;&gt;Node14 -->
<g id="edge96" class="edge">
<title>Node37&#45;&gt;Node14</title>
<path fill="none" stroke="#191970" d="M1577.1951,-308.5542C1633.5565,-297.3892 1721.5081,-278.2726 1731.0327,-266 1738.757,-256.0471 1740.1276,-197.2803 1728.0327,-168 1715.1805,-136.8864 1706.9012,-127.5277 1677.0327,-112 1619.7291,-82.2096 1423.712,-70.6632 1347.0861,-67.2208"/>
<polygon fill="#191970" stroke="#191970" points="1346.8196,-63.7061 1336.6776,-66.7705 1346.517,-70.6995 1346.8196,-63.7061"/>
</g>
<!-- Node37&#45;&gt;Node16 -->
<g id="edge97" class="edge">
<title>Node37&#45;&gt;Node16</title>
<path fill="none" stroke="#191970" d="M1577.2207,-314.9075C1669.1686,-309.2937 1868.7695,-294.1896 1931.0327,-266 2013.0748,-228.8556 2045.9712,-214.0796 2083.0327,-132 2086.6907,-123.8987 2088.8803,-118.6946 2083.0327,-112 2063.2909,-89.3985 1863.4309,-73.8131 1780.1554,-68.2527"/>
<polygon fill="#191970" stroke="#191970" points="1780.3413,-64.7574 1770.1334,-67.5945 1779.8825,-71.7424 1780.3413,-64.7574"/>
</g>
<!-- Node37&#45;&gt;Node22 -->
<g id="edge103" class="edge">
<title>Node37&#45;&gt;Node22</title>
<path fill="none" stroke="#191970" d="M1499.2285,-307.9005C1458.767,-295.2916 1388.0587,-273.2569 1347.0183,-260.4676"/>
<polygon fill="#191970" stroke="#191970" points="1347.8485,-257.0604 1337.26,-257.4266 1345.7658,-263.7434 1347.8485,-257.0604"/>
</g>
<!-- Node37&#45;&gt;Node23 -->
<g id="edge99" class="edge">
<title>Node37&#45;&gt;Node23</title>
<path fill="none" stroke="#191970" d="M1574.8234,-307.9911C1626.7638,-296.515 1706.4113,-277.3493 1715.0327,-266 1724.4664,-253.5814 1722.7864,-192.3109 1710.0327,-168 1702.6889,-154.0014 1689.0366,-142.7511 1676.9342,-134.881"/>
<polygon fill="#191970" stroke="#191970" points="1678.4774,-131.7236 1668.1117,-129.532 1674.8482,-137.7094 1678.4774,-131.7236"/>
</g>
<!-- Node38 -->
<g id="node38" class="node">
<title>Node38</title>
<polygon fill="#ffffff" stroke="#bfbfbf" points="1545.5327,-241 1545.5327,-260 1590.5327,-260 1590.5327,-241 1545.5327,-241"/>
<text text-anchor="middle" x="1568.0327" y="-248" font-family="Helvetica,sans-Serif" font-size="10.00" fill="#000000">thread</text>
</g>
<!-- Node37&#45;&gt;Node38 -->
<g id="edge101" class="edge">
<title>Node37&#45;&gt;Node38</title>
<path fill="none" stroke="#191970" d="M1535.4772,-307.9005C1541.2336,-297.751 1550.454,-281.4941 1557.6151,-268.8679"/>
<polygon fill="#191970" stroke="#191970" points="1560.7093,-270.5067 1562.5983,-260.0817 1554.6205,-267.0533 1560.7093,-270.5067"/>
</g>
<!-- Node39 -->
<g id="node39" class="node">
<title>Node39</title>
<polygon fill="#ffffff" stroke="#bfbfbf" points="1608.5327,-241 1608.5327,-260 1705.5327,-260 1705.5327,-241 1608.5327,-241"/>
<text text-anchor="middle" x="1657.0327" y="-248" font-family="Helvetica,sans-Serif" font-size="10.00" fill="#000000">condition_variable</text>
</g>
<!-- Node37&#45;&gt;Node39 -->
<g id="edge102" class="edge">
<title>Node37&#45;&gt;Node39</title>
<path fill="none" stroke="#191970" d="M1548.2287,-307.9005C1569.6365,-296.6067 1605.3785,-277.7506 1630.022,-264.7497"/>
<polygon fill="#191970" stroke="#191970" points="1631.6589,-267.8434 1638.8705,-260.0817 1628.3927,-261.6522 1631.6589,-267.8434"/>
</g>
</g>
</svg>
