<?xml version="1.0" encoding="UTF-8" standalone="no"?>
<!DOCTYPE svg PUBLIC "-//W3C//DTD SVG 1.1//EN"
 "http://www.w3.org/Graphics/SVG/1.1/DTD/svg11.dtd">
<!-- Generated by graphviz version 2.38.0 (20140413.2041)
 -->
<!-- Title: interpreter/BasicEventQueue.h Pages: 1 -->
<svg width="947pt" height="364pt"
 viewBox="0.00 0.00 946.50 364.00" xmlns="http://www.w3.org/2000/svg" xmlns:xlink="http://www.w3.org/1999/xlink">
<g id="graph0" class="graph" transform="scale(1 1) rotate(0) translate(4 360)">
<title>interpreter/BasicEventQueue.h</title>
<polygon fill="white" stroke="none" points="-4,4 -4,-360 942.5,-360 942.5,4 -4,4"/>
<!-- Node1 -->
<g id="node1" class="node"><title>Node1</title>
<polygon fill="#bfbfbf" stroke="black" points="578,-336.5 578,-355.5 731,-355.5 731,-336.5 578,-336.5"/>
<text text-anchor="middle" x="654.5" y="-343.5" font-family="Helvetica,sans-Serif" font-size="10.00">interpreter/BasicEventQueue.h</text>
</g>
<!-- Node2 -->
<g id="node2" class="node"><title>Node2</title>
<g id="a_node2"><a xlink:href="_event_queue_impl_8h.html" target="_top" xlink:title="EventQueueImpl.h">
<polygon fill="white" stroke="black" points="508,-280.5 508,-299.5 607,-299.5 607,-280.5 508,-280.5"/>
<text text-anchor="middle" x="557.5" y="-287.5" font-family="Helvetica,sans-Serif" font-size="10.00">EventQueueImpl.h</text>
</a>
</g>
</g>
<!-- Node1&#45;&gt;Node2 -->
<g id="edge1" class="edge"><title>Node1&#45;&gt;Node2</title>
<path fill="none" stroke="midnightblue" d="M638.915,-336.324C623.501,-327.743 599.688,-314.486 581.79,-304.522"/>
<polygon fill="midnightblue" stroke="midnightblue" points="583.486,-301.461 573.046,-299.655 580.081,-307.577 583.486,-301.461"/>
</g>
<!-- Node8 -->
<g id="node8" class="node"><title>Node8</title>
<polygon fill="white" stroke="#bfbfbf" points="0,-112.5 0,-131.5 29,-131.5 29,-112.5 0,-112.5"/>
<text text-anchor="middle" x="14.5" y="-119.5" font-family="Helvetica,sans-Serif" font-size="10.00">list</text>
</g>
<!-- Node1&#45;&gt;Node8 -->
<g id="edge33" class="edge"><title>Node1&#45;&gt;Node8</title>
<path fill="none" stroke="midnightblue" d="M584.324,-336.495C528.819,-329.035 449.601,-316.754 381.5,-300 227.418,-262.093 159.509,-295.178 42.5,-188 29.2148,-175.831 21.9626,-156.279 18.1907,-141.793"/>
<polygon fill="midnightblue" stroke="midnightblue" points="21.5733,-140.883 15.9424,-131.909 14.7477,-142.436 21.5733,-140.883"/>
</g>
<!-- Node9 -->
<g id="node9" class="node"><title>Node9</title>
<polygon fill="white" stroke="#bfbfbf" points="562.5,-112.5 562.5,-131.5 598.5,-131.5 598.5,-112.5 562.5,-112.5"/>
<text text-anchor="middle" x="580.5" y="-119.5" font-family="Helvetica,sans-Serif" font-size="10.00">map</text>
</g>
<!-- Node1&#45;&gt;Node9 -->
<g id="edge32" class="edge"><title>Node1&#45;&gt;Node9</title>
<path fill="none" stroke="midnightblue" d="M577.721,-343.865C505.087,-338.15 399.911,-316.8 349.5,-244 344.44,-236.692 344.634,-231.439 349.5,-224 361.42,-205.778 494.378,-154.861 553.006,-133.085"/>
<polygon fill="midnightblue" stroke="midnightblue" points="554.233,-136.363 562.397,-129.611 551.804,-129.798 554.233,-136.363"/>
</g>
<!-- Node13 -->
<g id="node13" class="node"><title>Node13</title>
<polygon fill="white" stroke="#bfbfbf" points="646,-56.5 646,-75.5 687,-75.5 687,-56.5 646,-56.5"/>
<text text-anchor="middle" x="666.5" y="-63.5" font-family="Helvetica,sans-Serif" font-size="10.00">string</text>
</g>
<!-- Node1&#45;&gt;Node13 -->
<g id="edge31" class="edge"><title>Node1&#45;&gt;Node13</title>
<path fill="none" stroke="midnightblue" d="M703.321,-336.484C784.521,-320.92 938.5,-284.834 938.5,-235 938.5,-235 938.5,-235 938.5,-177 938.5,-125.521 768.939,-86.7601 697.57,-72.7252"/>
<polygon fill="midnightblue" stroke="midnightblue" points="697.874,-69.2192 687.392,-70.7609 696.547,-76.0924 697.874,-69.2192"/>
</g>
<!-- Node18 -->
<g id="node18" class="node"><title>Node18</title>
<polygon fill="white" stroke="#bfbfbf" points="587,-224.5 587,-243.5 632,-243.5 632,-224.5 587,-224.5"/>
<text text-anchor="middle" x="609.5" y="-231.5" font-family="Helvetica,sans-Serif" font-size="10.00">thread</text>
</g>
<!-- Node1&#45;&gt;Node18 -->
<g id="edge34" class="edge"><title>Node1&#45;&gt;Node18</title>
<path fill="none" stroke="midnightblue" d="M650.969,-336.368C643.641,-318.456 626.65,-276.923 616.842,-252.948"/>
<polygon fill="midnightblue" stroke="midnightblue" points="620.04,-251.522 613.015,-243.591 613.562,-254.172 620.04,-251.522"/>
</g>
<!-- Node19 -->
<g id="node19" class="node"><title>Node19</title>
<polygon fill="white" stroke="#bfbfbf" points="650.5,-224.5 650.5,-243.5 694.5,-243.5 694.5,-224.5 650.5,-224.5"/>
<text text-anchor="middle" x="672.5" y="-231.5" font-family="Helvetica,sans-Serif" font-size="10.00">mutex</text>
</g>
<!-- Node1&#45;&gt;Node19 -->
<g id="edge35" class="edge"><title>Node1&#45;&gt;Node19</title>
<path fill="none" stroke="midnightblue" d="M655.912,-336.368C658.817,-318.617 665.518,-277.666 669.457,-253.597"/>
<polygon fill="midnightblue" stroke="midnightblue" points="672.933,-254.025 671.094,-243.591 666.025,-252.895 672.933,-254.025"/>
</g>
<!-- Node20 -->
<g id="node20" class="node"><title>Node20</title>
<polygon fill="white" stroke="#bfbfbf" points="713,-224.5 713,-243.5 810,-243.5 810,-224.5 713,-224.5"/>
<text text-anchor="middle" x="761.5" y="-231.5" font-family="Helvetica,sans-Serif" font-size="10.00">condition_variable</text>
</g>
<!-- Node1&#45;&gt;Node20 -->
<g id="edge36" class="edge"><title>Node1&#45;&gt;Node20</title>
<path fill="none" stroke="midnightblue" d="M662.896,-336.368C680.789,-317.974 722.911,-274.671 745.886,-251.052"/>
<polygon fill="midnightblue" stroke="midnightblue" points="748.679,-253.2 753.143,-243.591 743.661,-248.319 748.679,-253.2"/>
</g>
<!-- Node21 -->
<g id="node21" class="node"><title>Node21</title>
<polygon fill="white" stroke="#bfbfbf" points="828.5,-224.5 828.5,-243.5 910.5,-243.5 910.5,-224.5 828.5,-224.5"/>
<text text-anchor="middle" x="869.5" y="-231.5" font-family="Helvetica,sans-Serif" font-size="10.00">event2/event.h</text>
</g>
<!-- Node1&#45;&gt;Node21 -->
<g id="edge37" class="edge"><title>Node1&#45;&gt;Node21</title>
<path fill="none" stroke="midnightblue" d="M671.371,-336.368C708.814,-317.211 799.067,-271.036 843.666,-248.217"/>
<polygon fill="midnightblue" stroke="midnightblue" points="845.399,-251.262 852.708,-243.591 842.211,-245.03 845.399,-251.262"/>
</g>
<!-- Node3 -->
<g id="node3" class="node"><title>Node3</title>
<g id="a_node3"><a xlink:href="_common_8h.html" target="_top" xlink:title="uscxml/Common.h">
<polygon fill="white" stroke="black" points="280,-56.5 280,-75.5 379,-75.5 379,-56.5 280,-56.5"/>
<text text-anchor="middle" x="329.5" y="-63.5" font-family="Helvetica,sans-Serif" font-size="10.00">uscxml/Common.h</text>
</a>
</g>
</g>
<!-- Node2&#45;&gt;Node3 -->
<g id="edge2" class="edge"><title>Node2&#45;&gt;Node3</title>
<path fill="none" stroke="midnightblue" d="M507.977,-286.099C429.412,-279.455 273.921,-257.817 164.5,-188 136.372,-170.053 126.392,-163.175 114.5,-132 111.332,-123.695 108.895,-118.899 114.5,-112 133.741,-88.3149 212.95,-76.6567 269.629,-71.2446"/>
<polygon fill="midnightblue" stroke="midnightblue" points="270.29,-74.699 279.931,-70.3052 269.654,-67.7279 270.29,-74.699"/>
</g>
<!-- Node6 -->
<g id="node6" class="node"><title>Node6</title>
<g id="a_node6"><a xlink:href="_event_8h.html" target="_top" xlink:title="uscxml/messages/Event.h">
<polygon fill="white" stroke="black" points="359,-224.5 359,-243.5 492,-243.5 492,-224.5 359,-224.5"/>
<text text-anchor="middle" x="425.5" y="-231.5" font-family="Helvetica,sans-Serif" font-size="10.00">uscxml/messages/Event.h</text>
</a>
</g>
</g>
<!-- Node2&#45;&gt;Node6 -->
<g id="edge5" class="edge"><title>Node2&#45;&gt;Node6</title>
<path fill="none" stroke="midnightblue" d="M536.584,-280.444C514.764,-271.517 480.35,-257.439 455.608,-247.317"/>
<polygon fill="midnightblue" stroke="midnightblue" points="456.899,-244.063 446.318,-243.516 454.248,-250.542 456.899,-244.063"/>
</g>
<!-- Node2&#45;&gt;Node8 -->
<g id="edge26" class="edge"><title>Node2&#45;&gt;Node8</title>
<path fill="none" stroke="midnightblue" d="M507.942,-287.977C410.278,-285.28 196.758,-275.823 131.5,-244 82.866,-220.283 43.375,-167.571 25.2449,-140.217"/>
<polygon fill="midnightblue" stroke="midnightblue" points="28.105,-138.194 19.7429,-131.688 22.2227,-141.989 28.105,-138.194"/>
</g>
<!-- Node2&#45;&gt;Node9 -->
<g id="edge25" class="edge"><title>Node2&#45;&gt;Node9</title>
<path fill="none" stroke="midnightblue" d="M553.643,-280.196C548.658,-267.725 541.01,-244.185 544.5,-224 549.715,-193.836 563.085,-160.748 571.981,-140.94"/>
<polygon fill="midnightblue" stroke="midnightblue" points="575.26,-142.188 576.271,-131.641 568.904,-139.255 575.26,-142.188"/>
</g>
<!-- Node2&#45;&gt;Node13 -->
<g id="edge24" class="edge"><title>Node2&#45;&gt;Node13</title>
<path fill="none" stroke="midnightblue" d="M558.266,-280.118C559.823,-266.705 564.409,-241.041 577.5,-224 624.453,-162.879 687.158,-199.423 724.5,-132 735.557,-112.037 713.43,-93.0249 693.395,-80.7786"/>
<polygon fill="midnightblue" stroke="midnightblue" points="694.879,-77.5946 684.465,-75.6488 691.393,-83.6646 694.879,-77.5946"/>
</g>
<!-- Node2&#45;&gt;Node18 -->
<g id="edge27" class="edge"><title>Node2&#45;&gt;Node18</title>
<path fill="none" stroke="midnightblue" d="M566.087,-280.083C573.659,-272.22 584.878,-260.569 594.014,-251.081"/>
<polygon fill="midnightblue" stroke="midnightblue" points="596.658,-253.382 601.073,-243.751 591.615,-248.527 596.658,-253.382"/>
</g>
<!-- Node2&#45;&gt;Node19 -->
<g id="edge28" class="edge"><title>Node2&#45;&gt;Node19</title>
<path fill="none" stroke="midnightblue" d="M575.722,-280.444C594.396,-271.675 623.656,-257.935 645.117,-247.858"/>
<polygon fill="midnightblue" stroke="midnightblue" points="646.799,-250.935 654.363,-243.516 643.824,-244.599 646.799,-250.935"/>
</g>
<!-- Node2&#45;&gt;Node20 -->
<g id="edge29" class="edge"><title>Node2&#45;&gt;Node20</title>
<path fill="none" stroke="midnightblue" d="M589.824,-280.444C624.889,-271.162 680.998,-256.309 719.465,-246.127"/>
<polygon fill="midnightblue" stroke="midnightblue" points="720.555,-249.459 729.327,-243.516 718.764,-242.692 720.555,-249.459"/>
</g>
<!-- Node2&#45;&gt;Node21 -->
<g id="edge30" class="edge"><title>Node2&#45;&gt;Node21</title>
<path fill="none" stroke="midnightblue" d="M607.06,-280.515C657.414,-271.88 737.948,-258.034 818.035,-244.075"/>
<polygon fill="midnightblue" stroke="midnightblue" points="819.057,-247.45 828.307,-242.284 817.854,-240.554 819.057,-247.45"/>
</g>
<!-- Node4 -->
<g id="node4" class="node"><title>Node4</title>
<polygon fill="white" stroke="#bfbfbf" points="255.5,-0.5 255.5,-19.5 327.5,-19.5 327.5,-0.5 255.5,-0.5"/>
<text text-anchor="middle" x="291.5" y="-7.5" font-family="Helvetica,sans-Serif" font-size="10.00">sys/socket.h</text>
</g>
<!-- Node3&#45;&gt;Node4 -->
<g id="edge3" class="edge"><title>Node3&#45;&gt;Node4</title>
<path fill="none" stroke="midnightblue" d="M323.225,-56.083C317.858,-48.4554 309.982,-37.2645 303.421,-27.9408"/>
<polygon fill="midnightblue" stroke="midnightblue" points="306.275,-25.9149 297.658,-19.7511 300.551,-29.9434 306.275,-25.9149"/>
</g>
<!-- Node5 -->
<g id="node5" class="node"><title>Node5</title>
<polygon fill="white" stroke="#bfbfbf" points="345.5,-0.5 345.5,-19.5 389.5,-19.5 389.5,-0.5 345.5,-0.5"/>
<text text-anchor="middle" x="367.5" y="-7.5" font-family="Helvetica,sans-Serif" font-size="10.00">cmath</text>
</g>
<!-- Node3&#45;&gt;Node5 -->
<g id="edge4" class="edge"><title>Node3&#45;&gt;Node5</title>
<path fill="none" stroke="midnightblue" d="M335.775,-56.083C341.142,-48.4554 349.018,-37.2645 355.579,-27.9408"/>
<polygon fill="midnightblue" stroke="midnightblue" points="358.449,-29.9434 361.342,-19.7511 352.725,-25.9149 358.449,-29.9434"/>
</g>
<!-- Node7 -->
<g id="node7" class="node"><title>Node7</title>
<g id="a_node7"><a xlink:href="_data_8h.html" target="_top" xlink:title="uscxml/messages/Data.h">
<polygon fill="white" stroke="black" points="173.5,-168.5 173.5,-187.5 301.5,-187.5 301.5,-168.5 173.5,-168.5"/>
<text text-anchor="middle" x="237.5" y="-175.5" font-family="Helvetica,sans-Serif" font-size="10.00">uscxml/messages/Data.h</text>
</a>
</g>
</g>
<!-- Node6&#45;&gt;Node7 -->
<g id="edge6" class="edge"><title>Node6&#45;&gt;Node7</title>
<path fill="none" stroke="midnightblue" d="M395.711,-224.444C363.671,-215.241 312.567,-200.562 277.147,-190.388"/>
<polygon fill="midnightblue" stroke="midnightblue" points="277.727,-186.913 267.15,-187.516 275.795,-193.641 277.727,-186.913"/>
</g>
<!-- Node17 -->
<g id="node17" class="node"><title>Node17</title>
<g id="a_node17"><a xlink:href="_u_u_i_d_8h.html" target="_top" xlink:title="uscxml/util/UUID.h">
<polygon fill="white" stroke="black" points="617,-112.5 617,-131.5 716,-131.5 716,-112.5 617,-112.5"/>
<text text-anchor="middle" x="666.5" y="-119.5" font-family="Helvetica,sans-Serif" font-size="10.00">uscxml/util/UUID.h</text>
</a>
</g>
</g>
<!-- Node6&#45;&gt;Node17 -->
<g id="edge21" class="edge"><title>Node6&#45;&gt;Node17</title>
<path fill="none" stroke="midnightblue" d="M444.411,-224.368C486.646,-205.091 588.824,-158.454 638.48,-135.789"/>
<polygon fill="midnightblue" stroke="midnightblue" points="640.033,-138.928 647.677,-131.591 637.126,-132.56 640.033,-138.928"/>
</g>
<!-- Node7&#45;&gt;Node3 -->
<g id="edge11" class="edge"><title>Node7&#45;&gt;Node3</title>
<path fill="none" stroke="midnightblue" d="M238.093,-168.112C239.397,-154.691 243.527,-129.016 256.5,-112 267.162,-98.0143 283.528,-87.3542 298.063,-79.9285"/>
<polygon fill="midnightblue" stroke="midnightblue" points="299.768,-82.9926 307.272,-75.5133 296.741,-76.6805 299.768,-82.9926"/>
</g>
<!-- Node7&#45;&gt;Node8 -->
<g id="edge7" class="edge"><title>Node7&#45;&gt;Node8</title>
<path fill="none" stroke="midnightblue" d="M196.784,-168.462C157.38,-159.985 96.0626,-146.232 43.5,-132 42.0371,-131.604 40.537,-131.183 39.0265,-130.749"/>
<polygon fill="midnightblue" stroke="midnightblue" points="39.7767,-127.319 29.1923,-127.788 37.7587,-134.022 39.7767,-127.319"/>
</g>
<!-- Node7&#45;&gt;Node9 -->
<g id="edge8" class="edge"><title>Node7&#45;&gt;Node9</title>
<path fill="none" stroke="midnightblue" d="M301.695,-169.132C379.555,-159.362 506.137,-142.682 552.5,-132 552.6,-131.977 552.699,-131.954 552.799,-131.931"/>
<polygon fill="midnightblue" stroke="midnightblue" points="553.521,-135.362 562.249,-129.356 551.68,-128.608 553.521,-135.362"/>
</g>
<!-- Node10 -->
<g id="node10" class="node"><title>Node10</title>
<polygon fill="white" stroke="#bfbfbf" points="120,-56.5 120,-75.5 173,-75.5 173,-56.5 120,-56.5"/>
<text text-anchor="middle" x="146.5" y="-63.5" font-family="Helvetica,sans-Serif" font-size="10.00">memory</text>
</g>
<!-- Node7&#45;&gt;Node10 -->
<g id="edge9" class="edge"><title>Node7&#45;&gt;Node10</title>
<path fill="none" stroke="midnightblue" d="M173.234,-168.745C150.888,-162.444 128.048,-151.383 114.5,-132 103.657,-116.488 116.616,-96.7549 129.142,-83.1222"/>
<polygon fill="midnightblue" stroke="midnightblue" points="131.756,-85.4565 136.284,-75.8783 126.771,-80.5419 131.756,-85.4565"/>
</g>
<!-- Node11 -->
<g id="node11" class="node"><title>Node11</title>
<polygon fill="white" stroke="#bfbfbf" points="124,-112.5 124,-131.5 209,-131.5 209,-112.5 124,-112.5"/>
<text text-anchor="middle" x="166.5" y="-119.5" font-family="Helvetica,sans-Serif" font-size="10.00">uscxml/config.h</text>
</g>
<!-- Node7&#45;&gt;Node11 -->
<g id="edge10" class="edge"><title>Node7&#45;&gt;Node11</title>
<path fill="none" stroke="midnightblue" d="M226.093,-168.324C215.391,-160.185 199.159,-147.839 186.337,-138.087"/>
<polygon fill="midnightblue" stroke="midnightblue" points="188.193,-135.102 178.115,-131.834 183.956,-140.673 188.193,-135.102"/>
</g>
<!-- Node12 -->
<g id="node12" class="node"><title>Node12</title>
<g id="a_node12"><a xlink:href="_convenience_8h.html" target="_top" xlink:title="uscxml/util/Convenience.h">
<polygon fill="white" stroke="black" points="411,-112.5 411,-131.5 544,-131.5 544,-112.5 411,-112.5"/>
<text text-anchor="middle" x="477.5" y="-119.5" font-family="Helvetica,sans-Serif" font-size="10.00">uscxml/util/Convenience.h</text>
</a>
</g>
</g>
<!-- Node7&#45;&gt;Node12 -->
<g id="edge12" class="edge"><title>Node7&#45;&gt;Node12</title>
<path fill="none" stroke="midnightblue" d="M275.529,-168.444C317.308,-159.043 384.482,-143.929 429.77,-133.739"/>
<polygon fill="midnightblue" stroke="midnightblue" points="430.661,-137.126 439.649,-131.516 429.125,-130.297 430.661,-137.126"/>
</g>
<!-- Node16 -->
<g id="node16" class="node"><title>Node16</title>
<g id="a_node16"><a xlink:href="_blob_8h.html" target="_top" xlink:title="uscxml/messages/Blob.h">
<polygon fill="white" stroke="black" points="266,-112.5 266,-131.5 393,-131.5 393,-112.5 266,-112.5"/>
<text text-anchor="middle" x="329.5" y="-119.5" font-family="Helvetica,sans-Serif" font-size="10.00">uscxml/messages/Blob.h</text>
</a>
</g>
</g>
<!-- Node7&#45;&gt;Node16 -->
<g id="edge17" class="edge"><title>Node7&#45;&gt;Node16</title>
<path fill="none" stroke="midnightblue" d="M252.281,-168.324C266.767,-159.822 289.073,-146.729 305.993,-136.797"/>
<polygon fill="midnightblue" stroke="midnightblue" points="307.903,-139.735 314.755,-131.655 304.359,-133.698 307.903,-139.735"/>
</g>
<!-- Node12&#45;&gt;Node3 -->
<g id="edge13" class="edge"><title>Node12&#45;&gt;Node3</title>
<path fill="none" stroke="midnightblue" d="M454.049,-112.444C429.367,-103.438 390.315,-89.1891 362.523,-79.049"/>
<polygon fill="midnightblue" stroke="midnightblue" points="363.435,-75.6561 352.841,-75.5164 361.036,-82.2321 363.435,-75.6561"/>
</g>
<!-- Node12&#45;&gt;Node13 -->
<g id="edge14" class="edge"><title>Node12&#45;&gt;Node13</title>
<path fill="none" stroke="midnightblue" d="M507.448,-112.444C542.595,-102.402 600.562,-85.8394 635.962,-75.7251"/>
<polygon fill="midnightblue" stroke="midnightblue" points="637.089,-79.0434 645.742,-72.9308 635.165,-72.3127 637.089,-79.0434"/>
</g>
<!-- Node14 -->
<g id="node14" class="node"><title>Node14</title>
<polygon fill="white" stroke="#bfbfbf" points="495,-56.5 495,-75.5 534,-75.5 534,-56.5 495,-56.5"/>
<text text-anchor="middle" x="514.5" y="-63.5" font-family="Helvetica,sans-Serif" font-size="10.00">limits</text>
</g>
<!-- Node12&#45;&gt;Node14 -->
<g id="edge15" class="edge"><title>Node12&#45;&gt;Node14</title>
<path fill="none" stroke="midnightblue" d="M483.61,-112.083C488.782,-104.534 496.346,-93.4948 502.694,-84.2298"/>
<polygon fill="midnightblue" stroke="midnightblue" points="505.739,-85.9787 508.504,-75.7511 499.964,-82.0221 505.739,-85.9787"/>
</g>
<!-- Node15 -->
<g id="node15" class="node"><title>Node15</title>
<polygon fill="white" stroke="#bfbfbf" points="424.5,-56.5 424.5,-75.5 476.5,-75.5 476.5,-56.5 424.5,-56.5"/>
<text text-anchor="middle" x="450.5" y="-63.5" font-family="Helvetica,sans-Serif" font-size="10.00">sstream</text>
</g>
<!-- Node12&#45;&gt;Node15 -->
<g id="edge16" class="edge"><title>Node12&#45;&gt;Node15</title>
<path fill="none" stroke="midnightblue" d="M473.041,-112.083C469.346,-104.691 463.977,-93.9533 459.406,-84.8111"/>
<polygon fill="midnightblue" stroke="midnightblue" points="462.478,-83.1301 454.876,-75.7511 456.217,-86.2606 462.478,-83.1301"/>
</g>
<!-- Node16&#45;&gt;Node3 -->
<g id="edge20" class="edge"><title>Node16&#45;&gt;Node3</title>
<path fill="none" stroke="midnightblue" d="M329.5,-112.083C329.5,-105.006 329.5,-94.8611 329.5,-85.9865"/>
<polygon fill="midnightblue" stroke="midnightblue" points="333,-85.751 329.5,-75.7511 326,-85.7511 333,-85.751"/>
</g>
<!-- Node16&#45;&gt;Node10 -->
<g id="edge19" class="edge"><title>Node16&#45;&gt;Node10</title>
<path fill="none" stroke="midnightblue" d="M300.503,-112.444C268.673,-103.051 217.514,-87.9549 182.983,-77.7654"/>
<polygon fill="midnightblue" stroke="midnightblue" points="183.859,-74.3749 173.277,-74.9015 181.878,-81.0887 183.859,-74.3749"/>
</g>
<!-- Node16&#45;&gt;Node13 -->
<g id="edge18" class="edge"><title>Node16&#45;&gt;Node13</title>
<path fill="none" stroke="midnightblue" d="M382.899,-112.444C454.359,-100.993 578.727,-81.0645 636.014,-71.8851"/>
<polygon fill="midnightblue" stroke="midnightblue" points="636.582,-75.3388 645.902,-70.3006 635.474,-68.427 636.582,-75.3388"/>
</g>
<!-- Node17&#45;&gt;Node3 -->
<g id="edge22" class="edge"><title>Node17&#45;&gt;Node3</title>
<path fill="none" stroke="midnightblue" d="M616.774,-113.032C556.208,-103.327 453.984,-86.947 389.216,-76.5687"/>
<polygon fill="midnightblue" stroke="midnightblue" points="389.583,-73.0829 379.155,-74.9565 388.475,-79.9947 389.583,-73.0829"/>
</g>
<!-- Node17&#45;&gt;Node13 -->
<g id="edge23" class="edge"><title>Node17&#45;&gt;Node13</title>
<path fill="none" stroke="midnightblue" d="M666.5,-112.083C666.5,-105.006 666.5,-94.8611 666.5,-85.9865"/>
<polygon fill="midnightblue" stroke="midnightblue" points="670,-85.751 666.5,-75.7511 663,-85.7511 670,-85.751"/>
</g>
</g>
</svg>
