<?xml version="1.0" encoding="UTF-8" standalone="no"?>
<!DOCTYPE svg PUBLIC "-//W3C//DTD SVG 1.1//EN"
 "http://www.w3.org/Graphics/SVG/1.1/DTD/svg11.dtd">
<!-- Generated by graphviz version 2.40.1 (20161225.0304)
 -->
<!-- Title: plugins/ioprocessor/basichttp/BasicHTTPIOProcessor.cpp Pages: 1 -->
<svg width="2857pt" height="587pt"
 viewBox="0.00 0.00 2857.30 587.00" xmlns="http://www.w3.org/2000/svg" xmlns:xlink="http://www.w3.org/1999/xlink">
<g id="graph0" class="graph" transform="scale(1 1) rotate(0) translate(4 583)">
<title>plugins/ioprocessor/basichttp/BasicHTTPIOProcessor.cpp</title>
<polygon fill="#ffffff" stroke="transparent" points="-4,4 -4,-583 2853.2986,-583 2853.2986,4 -4,4"/>
<!-- Node0 -->
<g id="node1" class="node">
<title>Node0</title>
<polygon fill="#bfbfbf" stroke="#000000" points="1649.5,-548.5 1649.5,-578.5 1836.5,-578.5 1836.5,-548.5 1649.5,-548.5"/>
<text text-anchor="start" x="1657.5" y="-566.5" font-family="Helvetica,sans-Serif" font-size="10.00" fill="#000000">plugins/ioprocessor</text>
<text text-anchor="middle" x="1743" y="-555.5" font-family="Helvetica,sans-Serif" font-size="10.00" fill="#000000">/basichttp/BasicHTTPIOProcessor.cpp</text>
</g>
<!-- Node1 -->
<g id="node2" class="node">
<title>Node1</title>
<g id="a_node2"><a xlink:href="_common_8h.html" target="_top" xlink:title="uscxml/Common.h">
<polygon fill="#ffffff" stroke="#000000" points="736.5,-56.5 736.5,-75.5 835.5,-75.5 835.5,-56.5 736.5,-56.5"/>
<text text-anchor="middle" x="786" y="-63.5" font-family="Helvetica,sans-Serif" font-size="10.00" fill="#000000">uscxml/Common.h</text>
</a>
</g>
</g>
<!-- Node0&#45;&gt;Node1 -->
<g id="edge1" class="edge">
<title>Node0&#45;&gt;Node1</title>
<path fill="none" stroke="#191970" d="M1649.0999,-562.8204C1373.9604,-560.4005 572.7935,-550.1809 314,-512 171.2531,-490.9399 0,-573.7921 0,-429.5 0,-429.5 0,-429.5 0,-178 0,-104.6956 542.7415,-75.8815 726.2209,-68.235"/>
<polygon fill="#191970" stroke="#191970" points="726.3879,-71.7311 736.2359,-67.8238 726.1007,-64.737 726.3879,-71.7311"/>
</g>
<!-- Node4 -->
<g id="node5" class="node">
<title>Node4</title>
<g id="a_node5"><a xlink:href="_basic_h_t_t_p_i_o_processor_8h.html" target="_top" xlink:title="uscxml/plugins/ioprocessor\l/basichttp/BasicHTTPIOProcessor.h">
<polygon fill="#ffffff" stroke="#000000" points="1505.5,-481.5 1505.5,-511.5 1682.5,-511.5 1682.5,-481.5 1505.5,-481.5"/>
<text text-anchor="start" x="1513.5" y="-499.5" font-family="Helvetica,sans-Serif" font-size="10.00" fill="#000000">uscxml/plugins/ioprocessor</text>
<text text-anchor="middle" x="1594" y="-488.5" font-family="Helvetica,sans-Serif" font-size="10.00" fill="#000000">/basichttp/BasicHTTPIOProcessor.h</text>
</a>
</g>
</g>
<!-- Node0&#45;&gt;Node4 -->
<g id="edge4" class="edge">
<title>Node0&#45;&gt;Node4</title>
<path fill="none" stroke="#191970" d="M1709.5615,-548.4639C1688.0693,-538.7996 1659.9469,-526.154 1636.8258,-515.7572"/>
<polygon fill="#191970" stroke="#191970" points="1638.1401,-512.5107 1627.5844,-511.6017 1635.2693,-518.895 1638.1401,-512.5107"/>
</g>
<!-- Node16 -->
<g id="node17" class="node">
<title>Node16</title>
<g id="a_node17"><a xlink:href="_event_8h.html" target="_top" xlink:title="uscxml/messages/Event.h">
<polygon fill="#ffffff" stroke="#000000" points="795.5,-224.5 795.5,-243.5 928.5,-243.5 928.5,-224.5 795.5,-224.5"/>
<text text-anchor="middle" x="862" y="-231.5" font-family="Helvetica,sans-Serif" font-size="10.00" fill="#000000">uscxml/messages/Event.h</text>
</a>
</g>
</g>
<!-- Node0&#45;&gt;Node16 -->
<g id="edge118" class="edge">
<title>Node0&#45;&gt;Node16</title>
<path fill="none" stroke="#191970" d="M1649.4229,-560.8725C1398.3984,-552.5875 729,-521.8375 729,-429.5 729,-429.5 729,-429.5 729,-362.5 729,-306.8547 789.9581,-267.6577 829.3368,-248.142"/>
<polygon fill="#191970" stroke="#191970" points="831.318,-251.0745 838.8332,-243.6064 828.3011,-244.758 831.318,-251.0745"/>
</g>
<!-- Node31 -->
<g id="node31" class="node">
<title>Node31</title>
<g id="a_node31"><a xlink:href="_string_8h.html" target="_top" xlink:title="string.h">
<polygon fill="#ffffff" stroke="#000000" points="2100.5,-168.5 2100.5,-187.5 2149.5,-187.5 2149.5,-168.5 2100.5,-168.5"/>
<text text-anchor="middle" x="2125" y="-175.5" font-family="Helvetica,sans-Serif" font-size="10.00" fill="#000000">string.h</text>
</a>
</g>
</g>
<!-- Node0&#45;&gt;Node31 -->
<g id="edge129" class="edge">
<title>Node0&#45;&gt;Node31</title>
<path fill="none" stroke="#191970" d="M1734.0563,-548.2485C1724.5647,-529.8457 1713.0804,-499.1243 1730,-481 1769.7486,-438.4213 2195.5801,-454.7904 2253,-445 2445.3149,-412.2094 2488.8731,-380.9289 2671,-311 2748.3618,-281.2964 2798.0984,-312.3184 2845,-244 2850.0309,-236.6718 2851.0817,-230.4827 2845,-224 2821.3005,-198.738 2300.8319,-182.784 2159.9143,-178.9169"/>
<polygon fill="#191970" stroke="#191970" points="2159.7804,-175.412 2149.689,-178.6393 2159.5903,-182.4095 2159.7804,-175.412"/>
</g>
<!-- Node36 -->
<g id="node33" class="node">
<title>Node36</title>
<g id="a_node33"><a xlink:href="_logging_8h.html" target="_top" xlink:title="uscxml/interpreter\l/Logging.h">
<polygon fill="#ffffff" stroke="#000000" points="795,-280.5 795,-310.5 891,-310.5 891,-280.5 795,-280.5"/>
<text text-anchor="start" x="803" y="-298.5" font-family="Helvetica,sans-Serif" font-size="10.00" fill="#000000">uscxml/interpreter</text>
<text text-anchor="middle" x="843" y="-287.5" font-family="Helvetica,sans-Serif" font-size="10.00" fill="#000000">/Logging.h</text>
</a>
</g>
</g>
<!-- Node0&#45;&gt;Node36 -->
<g id="edge130" class="edge">
<title>Node0&#45;&gt;Node36</title>
<path fill="none" stroke="#191970" d="M1667.7333,-548.4864C1618.7297,-538.544 1553.4672,-524.9878 1496,-512 1250.5945,-456.5377 1171.7588,-489.0536 946,-378 944.9136,-377.4656 900.3204,-341.64 870.1716,-317.3797"/>
<polygon fill="#191970" stroke="#191970" points="872.084,-314.4261 862.0993,-310.8827 867.695,-319.8793 872.084,-314.4261"/>
</g>
<!-- Node52 -->
<g id="node42" class="node">
<title>Node52</title>
<g id="a_node42"><a xlink:href="_d_o_m_8h.html" target="_top" xlink:title="uscxml/util/DOM.h">
<polygon fill="#ffffff" stroke="#000000" points="241,-224.5 241,-243.5 339,-243.5 339,-224.5 241,-224.5"/>
<text text-anchor="middle" x="290" y="-231.5" font-family="Helvetica,sans-Serif" font-size="10.00" fill="#000000">uscxml/util/DOM.h</text>
</a>
</g>
</g>
<!-- Node0&#45;&gt;Node52 -->
<g id="edge119" class="edge">
<title>Node0&#45;&gt;Node52</title>
<path fill="none" stroke="#191970" d="M1649.2354,-561.6383C1481.0458,-557.559 1117.1443,-545.3667 812,-512 586.7998,-487.375 309,-656.0426 309,-429.5 309,-429.5 309,-429.5 309,-362.5 309,-323.5827 300.3661,-278.7416 294.7386,-253.6479"/>
<polygon fill="#191970" stroke="#191970" points="298.0768,-252.5497 292.4064,-243.6001 291.2581,-254.1325 298.0768,-252.5497"/>
</g>
<!-- Node55 -->
<g id="node45" class="node">
<title>Node55</title>
<polygon fill="#ffffff" stroke="#bfbfbf" points="1739,-487 1739,-506 1813,-506 1813,-487 1739,-487"/>
<text text-anchor="middle" x="1776" y="-494" font-family="Helvetica,sans-Serif" font-size="10.00" fill="#000000">event2/dns.h</text>
</g>
<!-- Node0&#45;&gt;Node55 -->
<g id="edge126" class="edge">
<title>Node0&#45;&gt;Node55</title>
<path fill="none" stroke="#191970" d="M1750.4882,-548.2967C1755.3303,-538.4658 1761.6659,-525.6026 1766.812,-515.1545"/>
<polygon fill="#191970" stroke="#191970" points="1770.0151,-516.5724 1771.2938,-506.055 1763.7355,-513.4794 1770.0151,-516.5724"/>
</g>
<!-- Node56 -->
<g id="node46" class="node">
<title>Node56</title>
<polygon fill="#ffffff" stroke="#bfbfbf" points="1831.5,-487 1831.5,-506 1914.5,-506 1914.5,-487 1831.5,-487"/>
<text text-anchor="middle" x="1873" y="-494" font-family="Helvetica,sans-Serif" font-size="10.00" fill="#000000">event2/buffer.h</text>
</g>
<!-- Node0&#45;&gt;Node56 -->
<g id="edge127" class="edge">
<title>Node0&#45;&gt;Node56</title>
<path fill="none" stroke="#191970" d="M1772.1745,-548.4639C1794.0851,-537.1715 1823.8938,-521.8086 1845.4105,-510.7192"/>
<polygon fill="#191970" stroke="#191970" points="1847.0801,-513.7963 1854.3655,-506.1039 1843.8732,-507.5741 1847.0801,-513.7963"/>
</g>
<!-- Node57 -->
<g id="node47" class="node">
<title>Node57</title>
<polygon fill="#ffffff" stroke="#bfbfbf" points="1933,-487 1933,-506 2055,-506 2055,-487 1933,-487"/>
<text text-anchor="middle" x="1994" y="-494" font-family="Helvetica,sans-Serif" font-size="10.00" fill="#000000">event2/keyvalq_struct.h</text>
</g>
<!-- Node0&#45;&gt;Node57 -->
<g id="edge128" class="edge">
<title>Node0&#45;&gt;Node57</title>
<path fill="none" stroke="#191970" d="M1799.3293,-548.4639C1844.3281,-536.4522 1906.5809,-519.835 1948.4664,-508.6544"/>
<polygon fill="#191970" stroke="#191970" points="1949.6316,-511.966 1958.3906,-506.0053 1947.8262,-505.2028 1949.6316,-511.966"/>
</g>
<!-- Node58 -->
<g id="node48" class="node">
<title>Node58</title>
<polygon fill="#ffffff" stroke="#bfbfbf" points="2073,-487 2073,-506 2205,-506 2205,-487 2073,-487"/>
<text text-anchor="middle" x="2139" y="-494" font-family="Helvetica,sans-Serif" font-size="10.00" fill="#000000">boost/algorithm/string.hpp</text>
</g>
<!-- Node0&#45;&gt;Node58 -->
<g id="edge131" class="edge">
<title>Node0&#45;&gt;Node58</title>
<path fill="none" stroke="#191970" d="M1836.5972,-549.6132C1900.7276,-539.8216 1987.6664,-526.0039 2064,-512 2070.6778,-510.7749 2077.6756,-509.4219 2084.6,-508.0407"/>
<polygon fill="#191970" stroke="#191970" points="2085.5392,-511.4216 2094.6468,-506.0085 2084.1513,-504.5606 2085.5392,-511.4216"/>
</g>
<!-- Node59 -->
<g id="node49" class="node">
<title>Node59</title>
<polygon fill="#ffffff" stroke="#bfbfbf" points="2223,-487 2223,-506 2273,-506 2273,-487 2223,-487"/>
<text text-anchor="middle" x="2248" y="-494" font-family="Helvetica,sans-Serif" font-size="10.00" fill="#000000">netdb.h</text>
</g>
<!-- Node0&#45;&gt;Node59 -->
<g id="edge132" class="edge">
<title>Node0&#45;&gt;Node59</title>
<path fill="none" stroke="#191970" d="M1836.5304,-556.8153C1953.0346,-547.873 2145.1449,-530.9319 2214,-512 2215.9704,-511.4582 2217.9706,-510.8151 2219.9635,-510.1038"/>
<polygon fill="#191970" stroke="#191970" points="2221.7591,-513.1514 2229.6952,-506.1322 2219.1141,-506.6703 2221.7591,-513.1514"/>
</g>
<!-- Node60 -->
<g id="node50" class="node">
<title>Node60</title>
<polygon fill="#ffffff" stroke="#bfbfbf" points="2291,-487 2291,-506 2355,-506 2355,-487 2291,-487"/>
<text text-anchor="middle" x="2323" y="-494" font-family="Helvetica,sans-Serif" font-size="10.00" fill="#000000">arpa/inet.h</text>
</g>
<!-- Node0&#45;&gt;Node60 -->
<g id="edge133" class="edge">
<title>Node0&#45;&gt;Node60</title>
<path fill="none" stroke="#191970" d="M1836.6142,-557.5683C1967.8912,-548.7337 2199.8228,-531.0982 2282,-512 2285.0158,-511.2991 2288.1087,-510.4295 2291.1779,-509.4624"/>
<polygon fill="#191970" stroke="#191970" points="2292.4792,-512.7157 2300.7779,-506.1291 2290.1831,-506.1029 2292.4792,-512.7157"/>
</g>
<!-- Node2 -->
<g id="node3" class="node">
<title>Node2</title>
<polygon fill="#ffffff" stroke="#bfbfbf" points="712,-.5 712,-19.5 784,-19.5 784,-.5 712,-.5"/>
<text text-anchor="middle" x="748" y="-7.5" font-family="Helvetica,sans-Serif" font-size="10.00" fill="#000000">sys/socket.h</text>
</g>
<!-- Node1&#45;&gt;Node2 -->
<g id="edge2" class="edge">
<title>Node1&#45;&gt;Node2</title>
<path fill="none" stroke="#191970" d="M779.3809,-56.2455C774.0954,-48.4564 766.5459,-37.3308 760.1762,-27.9439"/>
<polygon fill="#191970" stroke="#191970" points="763.0545,-25.9522 754.5432,-19.6427 757.2621,-29.8827 763.0545,-25.9522"/>
</g>
<!-- Node3 -->
<g id="node4" class="node">
<title>Node3</title>
<polygon fill="#ffffff" stroke="#bfbfbf" points="802,-.5 802,-19.5 846,-19.5 846,-.5 802,-.5"/>
<text text-anchor="middle" x="824" y="-7.5" font-family="Helvetica,sans-Serif" font-size="10.00" fill="#000000">cmath</text>
</g>
<!-- Node1&#45;&gt;Node3 -->
<g id="edge3" class="edge">
<title>Node1&#45;&gt;Node3</title>
<path fill="none" stroke="#191970" d="M792.6191,-56.2455C797.9046,-48.4564 805.4541,-37.3308 811.8238,-27.9439"/>
<polygon fill="#191970" stroke="#191970" points="814.7379,-29.8827 817.4568,-19.6427 808.9455,-25.9522 814.7379,-29.8827"/>
</g>
<!-- Node5 -->
<g id="node6" class="node">
<title>Node5</title>
<polygon fill="#ffffff" stroke="#bfbfbf" points="2658.5,-224.5 2658.5,-243.5 2743.5,-243.5 2743.5,-224.5 2658.5,-224.5"/>
<text text-anchor="middle" x="2701" y="-231.5" font-family="Helvetica,sans-Serif" font-size="10.00" fill="#000000">uscxml/config.h</text>
</g>
<!-- Node4&#45;&gt;Node5 -->
<g id="edge5" class="edge">
<title>Node4&#45;&gt;Node5</title>
<path fill="none" stroke="#191970" d="M1682.7356,-482.8958C1687.5579,-482.2348 1692.3366,-481.5982 1697,-481 2082.5869,-431.5376 2196.7101,-461.8379 2555,-311 2556.527,-310.3572 2632.0992,-270.4282 2673.8962,-248.332"/>
<polygon fill="#191970" stroke="#191970" points="2675.5487,-251.4174 2682.7533,-243.6493 2672.2769,-245.2291 2675.5487,-251.4174"/>
</g>
<!-- Node6 -->
<g id="node7" class="node">
<title>Node6</title>
<polygon fill="#ffffff" stroke="#bfbfbf" points="2762,-224.5 2762,-243.5 2836,-243.5 2836,-224.5 2762,-224.5"/>
<text text-anchor="middle" x="2799" y="-231.5" font-family="Helvetica,sans-Serif" font-size="10.00" fill="#000000">event2/http.h</text>
</g>
<!-- Node4&#45;&gt;Node6 -->
<g id="edge6" class="edge">
<title>Node4&#45;&gt;Node6</title>
<path fill="none" stroke="#191970" d="M1682.7161,-482.7345C1687.5435,-482.1152 1692.3285,-481.5316 1697,-481 1902.9557,-457.5617 1957.2873,-477.5548 2162,-445 2286.6628,-425.1753 2317.7434,-416.3689 2438,-378 2563.3935,-337.9921 2707.291,-275.3476 2768.6901,-247.7919"/>
<polygon fill="#191970" stroke="#191970" points="2770.14,-250.9776 2777.8205,-243.6795 2767.2653,-244.5951 2770.14,-250.9776"/>
</g>
<!-- Node7 -->
<g id="node8" class="node">
<title>Node7</title>
<polygon fill="#ffffff" stroke="#bfbfbf" points="1344,-420 1344,-439 1448,-439 1448,-420 1344,-420"/>
<text text-anchor="middle" x="1396" y="-427" font-family="Helvetica,sans-Serif" font-size="10.00" fill="#000000">event2/http_struct.h</text>
</g>
<!-- Node4&#45;&gt;Node7 -->
<g id="edge7" class="edge">
<title>Node4&#45;&gt;Node7</title>
<path fill="none" stroke="#191970" d="M1549.5649,-481.4639C1514.7433,-469.6808 1466.8239,-453.4657 1433.8222,-442.2984"/>
<polygon fill="#191970" stroke="#191970" points="1434.6845,-438.8953 1424.0902,-439.0053 1432.4408,-445.526 1434.6845,-438.8953"/>
</g>
<!-- Node8 -->
<g id="node9" class="node">
<title>Node8</title>
<g id="a_node9"><a xlink:href="_h_t_t_p_server_8h.html" target="_top" xlink:title="uscxml/server/HTTPServer.h">
<polygon fill="#ffffff" stroke="#000000" points="2354.5,-286 2354.5,-305 2499.5,-305 2499.5,-286 2354.5,-286"/>
<text text-anchor="middle" x="2427" y="-293" font-family="Helvetica,sans-Serif" font-size="10.00" fill="#000000">uscxml/server/HTTPServer.h</text>
</a>
</g>
</g>
<!-- Node4&#45;&gt;Node8 -->
<g id="edge8" class="edge">
<title>Node4&#45;&gt;Node8</title>
<path fill="none" stroke="#191970" d="M1682.6492,-482.7871C1867.0354,-454.1219 2277.2171,-389.552 2306,-378 2345.9624,-361.9611 2386.008,-331.0353 2408.5359,-311.9402"/>
<polygon fill="#191970" stroke="#191970" points="2410.9945,-314.4416 2416.2756,-305.2568 2406.4194,-309.1435 2410.9945,-314.4416"/>
</g>
<!-- Node26 -->
<g id="node27" class="node">
<title>Node26</title>
<g id="a_node27"><a xlink:href="_interpreter_impl_8h.html" target="_top" xlink:title="uscxml/interpreter\l/InterpreterImpl.h">
<polygon fill="#ffffff" stroke="#000000" points="1546,-414.5 1546,-444.5 1642,-444.5 1642,-414.5 1546,-414.5"/>
<text text-anchor="start" x="1554" y="-432.5" font-family="Helvetica,sans-Serif" font-size="10.00" fill="#000000">uscxml/interpreter</text>
<text text-anchor="middle" x="1594" y="-421.5" font-family="Helvetica,sans-Serif" font-size="10.00" fill="#000000">/InterpreterImpl.h</text>
</a>
</g>
</g>
<!-- Node4&#45;&gt;Node26 -->
<g id="edge38" class="edge">
<title>Node4&#45;&gt;Node26</title>
<path fill="none" stroke="#191970" d="M1594,-481.2967C1594,-473.5013 1594,-463.7991 1594,-454.9064"/>
<polygon fill="#191970" stroke="#191970" points="1597.5001,-454.6431 1594,-444.6432 1590.5001,-454.6432 1597.5001,-454.6431"/>
</g>
<!-- Node37 -->
<g id="node34" class="node">
<title>Node37</title>
<g id="a_node34"><a xlink:href="_i_o_processor_impl_8h.html" target="_top" xlink:title="uscxml/plugins/IOProcessor\lImpl.h">
<polygon fill="#ffffff" stroke="#000000" points="758,-347.5 758,-377.5 898,-377.5 898,-347.5 758,-347.5"/>
<text text-anchor="start" x="766" y="-365.5" font-family="Helvetica,sans-Serif" font-size="10.00" fill="#000000">uscxml/plugins/IOProcessor</text>
<text text-anchor="middle" x="828" y="-354.5" font-family="Helvetica,sans-Serif" font-size="10.00" fill="#000000">Impl.h</text>
</a>
</g>
</g>
<!-- Node4&#45;&gt;Node37 -->
<g id="edge116" class="edge">
<title>Node4&#45;&gt;Node37</title>
<path fill="none" stroke="#191970" d="M1507.9897,-481.4538C1358.6597,-455.3308 1053.5258,-401.9523 908.2856,-376.5447"/>
<polygon fill="#191970" stroke="#191970" points="908.5625,-373.0401 898.109,-374.7645 907.3563,-379.9354 908.5625,-373.0401"/>
</g>
<!-- Node51 -->
<g id="node41" class="node">
<title>Node51</title>
<polygon fill="#ffffff" stroke="#bfbfbf" points="1466,-420 1466,-439 1528,-439 1528,-420 1466,-420"/>
<text text-anchor="middle" x="1497" y="-427" font-family="Helvetica,sans-Serif" font-size="10.00" fill="#000000">sys/time.h</text>
</g>
<!-- Node4&#45;&gt;Node51 -->
<g id="edge117" class="edge">
<title>Node4&#45;&gt;Node51</title>
<path fill="none" stroke="#191970" d="M1571.9892,-481.2967C1556.2892,-470.4524 1535.2472,-455.9182 1519.449,-445.006"/>
<polygon fill="#191970" stroke="#191970" points="1521.0505,-441.8585 1510.8333,-439.055 1517.0722,-447.6181 1521.0505,-441.8585"/>
</g>
<!-- Node8&#45;&gt;Node1 -->
<g id="edge17" class="edge">
<title>Node8&#45;&gt;Node1</title>
<path fill="none" stroke="#191970" d="M2475.036,-285.9955C2521.0684,-274.8521 2579.7534,-254.0103 2552,-224 2517.1914,-186.3608 2142.2913,-197.9563 2092,-188 1984.3193,-166.6822 1965.039,-131.4206 1857,-112 1807.0448,-103.0203 1064.3328,-75.9351 845.957,-68.1276"/>
<polygon fill="#191970" stroke="#191970" points="845.7737,-64.619 835.6551,-67.7597 845.5238,-71.6145 845.7737,-64.619"/>
</g>
<!-- Node8&#45;&gt;Node5 -->
<g id="edge37" class="edge">
<title>Node8&#45;&gt;Node5</title>
<path fill="none" stroke="#191970" d="M2469.5119,-285.9581C2517.7068,-275.1406 2596.319,-257.4959 2648.3529,-245.8168"/>
<polygon fill="#191970" stroke="#191970" points="2649.3977,-249.1694 2658.3884,-243.5643 2647.8646,-242.3394 2649.3977,-249.1694"/>
</g>
<!-- Node8&#45;&gt;Node6 -->
<g id="edge15" class="edge">
<title>Node8&#45;&gt;Node6</title>
<path fill="none" stroke="#191970" d="M2494.6251,-285.9728C2558.4352,-276.7202 2656.9987,-261.7527 2751.828,-244.1406"/>
<polygon fill="#191970" stroke="#191970" points="2752.6938,-247.5394 2761.88,-242.2609 2751.4071,-240.6587 2752.6938,-247.5394"/>
</g>
<!-- Node9 -->
<g id="node10" class="node">
<title>Node9</title>
<polygon fill="#ffffff" stroke="#bfbfbf" points="2320,-224.5 2320,-243.5 2372,-243.5 2372,-224.5 2320,-224.5"/>
<text text-anchor="middle" x="2346" y="-231.5" font-family="Helvetica,sans-Serif" font-size="10.00" fill="#000000">stddef.h</text>
</g>
<!-- Node8&#45;&gt;Node9 -->
<g id="edge9" class="edge">
<title>Node8&#45;&gt;Node9</title>
<path fill="none" stroke="#191970" d="M2414.3438,-285.8906C2401.6232,-276.2324 2381.7996,-261.1812 2366.7716,-249.771"/>
<polygon fill="#191970" stroke="#191970" points="2368.6484,-246.8015 2358.5674,-243.5419 2364.4154,-252.3766 2368.6484,-246.8015"/>
</g>
<!-- Node10 -->
<g id="node11" class="node">
<title>Node10</title>
<polygon fill="#ffffff" stroke="#bfbfbf" points="1685,-112.5 1685,-131.5 1721,-131.5 1721,-112.5 1685,-112.5"/>
<text text-anchor="middle" x="1703" y="-119.5" font-family="Helvetica,sans-Serif" font-size="10.00" fill="#000000">map</text>
</g>
<!-- Node8&#45;&gt;Node10 -->
<g id="edge10" class="edge">
<title>Node8&#45;&gt;Node10</title>
<path fill="none" stroke="#191970" d="M2464.9451,-285.9475C2505.5941,-274.0085 2560.9843,-251.7309 2535,-224 2492.8982,-179.0683 2042.8955,-197.1193 1982,-188 1888.7082,-174.0293 1780.6375,-144.5719 1730.7994,-130.2146"/>
<polygon fill="#191970" stroke="#191970" points="1731.6539,-126.8183 1721.0746,-127.3911 1729.7021,-133.5406 1731.6539,-126.8183"/>
</g>
<!-- Node11 -->
<g id="node12" class="node">
<title>Node11</title>
<polygon fill="#ffffff" stroke="#bfbfbf" points="1555.5,-56.5 1555.5,-75.5 1596.5,-75.5 1596.5,-56.5 1555.5,-56.5"/>
<text text-anchor="middle" x="1576" y="-63.5" font-family="Helvetica,sans-Serif" font-size="10.00" fill="#000000">string</text>
</g>
<!-- Node8&#45;&gt;Node11 -->
<g id="edge11" class="edge">
<title>Node8&#45;&gt;Node11</title>
<path fill="none" stroke="#191970" d="M2469.9068,-285.9915C2520.1606,-274.4251 2597.6611,-255.0764 2606,-244 2611.3463,-236.8986 2611.2038,-231.2064 2606,-224 2513.3529,-95.6994 2423.3111,-142.3811 2268,-112 2138.5164,-86.6711 1723.5751,-70.997 1606.8257,-67.0101"/>
<polygon fill="#191970" stroke="#191970" points="1606.8936,-63.5105 1596.7811,-66.671 1606.6573,-70.5065 1606.8936,-63.5105"/>
</g>
<!-- Node12 -->
<g id="node13" class="node">
<title>Node12</title>
<polygon fill="#ffffff" stroke="#bfbfbf" points="1921.5,-224.5 1921.5,-243.5 1966.5,-243.5 1966.5,-224.5 1921.5,-224.5"/>
<text text-anchor="middle" x="1944" y="-231.5" font-family="Helvetica,sans-Serif" font-size="10.00" fill="#000000">thread</text>
</g>
<!-- Node8&#45;&gt;Node12 -->
<g id="edge12" class="edge">
<title>Node8&#45;&gt;Node12</title>
<path fill="none" stroke="#191970" d="M2354.4629,-291.454C2266.8853,-285.6237 2115.1674,-272.5011 1976.5426,-243.737"/>
<polygon fill="#191970" stroke="#191970" points="1977.0921,-240.276 1966.5853,-241.6389 1975.6487,-247.1256 1977.0921,-240.276"/>
</g>
<!-- Node13 -->
<g id="node14" class="node">
<title>Node13</title>
<polygon fill="#ffffff" stroke="#bfbfbf" points="1707,-224.5 1707,-243.5 1751,-243.5 1751,-224.5 1707,-224.5"/>
<text text-anchor="middle" x="1729" y="-231.5" font-family="Helvetica,sans-Serif" font-size="10.00" fill="#000000">mutex</text>
</g>
<!-- Node8&#45;&gt;Node13 -->
<g id="edge13" class="edge">
<title>Node8&#45;&gt;Node13</title>
<path fill="none" stroke="#191970" d="M2354.2771,-289.0925C2204.5618,-275.9012 1867.0837,-246.1664 1761.3255,-236.8482"/>
<polygon fill="#191970" stroke="#191970" points="1761.5347,-233.3531 1751.2661,-235.9618 1760.9203,-240.3261 1761.5347,-233.3531"/>
</g>
<!-- Node14 -->
<g id="node15" class="node">
<title>Node14</title>
<polygon fill="#ffffff" stroke="#bfbfbf" points="2390,-224.5 2390,-243.5 2460,-243.5 2460,-224.5 2390,-224.5"/>
<text text-anchor="middle" x="2425" y="-231.5" font-family="Helvetica,sans-Serif" font-size="10.00" fill="#000000">event2/util.h</text>
</g>
<!-- Node8&#45;&gt;Node14 -->
<g id="edge14" class="edge">
<title>Node8&#45;&gt;Node14</title>
<path fill="none" stroke="#191970" d="M2426.6875,-285.8906C2426.4103,-277.3657 2425.9964,-264.6392 2425.6479,-253.9235"/>
<polygon fill="#191970" stroke="#191970" points="2429.1402,-253.6258 2425.3169,-243.7449 2422.1439,-253.8534 2429.1402,-253.6258"/>
</g>
<!-- Node15 -->
<g id="node16" class="node">
<title>Node15</title>
<polygon fill="#ffffff" stroke="#bfbfbf" points="2478,-224.5 2478,-243.5 2526,-243.5 2526,-224.5 2478,-224.5"/>
<text text-anchor="middle" x="2502" y="-231.5" font-family="Helvetica,sans-Serif" font-size="10.00" fill="#000000">evws.h</text>
</g>
<!-- Node8&#45;&gt;Node15 -->
<g id="edge16" class="edge">
<title>Node8&#45;&gt;Node15</title>
<path fill="none" stroke="#191970" d="M2438.7188,-285.8906C2450.3188,-276.3786 2468.2979,-261.6357 2482.1321,-250.2917"/>
<polygon fill="#191970" stroke="#191970" points="2484.6026,-252.7921 2490.116,-243.7449 2480.164,-247.3792 2484.6026,-252.7921"/>
</g>
<!-- Node8&#45;&gt;Node16 -->
<g id="edge18" class="edge">
<title>Node8&#45;&gt;Node16</title>
<path fill="none" stroke="#191970" d="M2354.3962,-292.6469C2093.6478,-282.4002 1205.8445,-247.5121 938.6775,-237.0132"/>
<polygon fill="#191970" stroke="#191970" points="938.8116,-233.5159 928.6819,-236.6204 938.5367,-240.5105 938.8116,-233.5159"/>
</g>
<!-- Node17 -->
<g id="node18" class="node">
<title>Node17</title>
<g id="a_node18"><a xlink:href="_data_8h.html" target="_top" xlink:title="uscxml/messages/Data.h">
<polygon fill="#ffffff" stroke="#000000" points="804,-168.5 804,-187.5 932,-187.5 932,-168.5 804,-168.5"/>
<text text-anchor="middle" x="868" y="-175.5" font-family="Helvetica,sans-Serif" font-size="10.00" fill="#000000">uscxml/messages/Data.h</text>
</a>
</g>
</g>
<!-- Node16&#45;&gt;Node17 -->
<g id="edge19" class="edge">
<title>Node16&#45;&gt;Node17</title>
<path fill="none" stroke="#191970" d="M863.0451,-224.2455C863.828,-216.9382 864.9256,-206.6944 865.8888,-197.7046"/>
<polygon fill="#191970" stroke="#191970" points="869.3815,-197.9587 866.9669,-187.6427 862.4214,-197.2129 869.3815,-197.9587"/>
</g>
<!-- Node25 -->
<g id="node26" class="node">
<title>Node25</title>
<g id="a_node26"><a xlink:href="_u_u_i_d_8h.html" target="_top" xlink:title="uscxml/util/UUID.h">
<polygon fill="#ffffff" stroke="#000000" points="1178.5,-112.5 1178.5,-131.5 1277.5,-131.5 1277.5,-112.5 1178.5,-112.5"/>
<text text-anchor="middle" x="1228" y="-119.5" font-family="Helvetica,sans-Serif" font-size="10.00" fill="#000000">uscxml/util/UUID.h</text>
</a>
</g>
</g>
<!-- Node16&#45;&gt;Node25 -->
<g id="edge34" class="edge">
<title>Node16&#45;&gt;Node25</title>
<path fill="none" stroke="#191970" d="M893.205,-224.4509C959.2464,-204.2415 1113.1297,-157.1516 1186.9992,-134.5467"/>
<polygon fill="#191970" stroke="#191970" points="1188.3359,-137.7979 1196.874,-131.5249 1186.2875,-131.1043 1188.3359,-137.7979"/>
</g>
<!-- Node17&#45;&gt;Node1 -->
<g id="edge24" class="edge">
<title>Node17&#45;&gt;Node1</title>
<path fill="none" stroke="#191970" d="M811.0773,-168.4259C771.9616,-160.5525 725.0042,-148.0842 713,-132 697.6186,-111.3907 725.5594,-92.2006 751.1968,-79.8852"/>
<polygon fill="#191970" stroke="#191970" points="752.8037,-82.9993 760.4535,-75.6691 749.9022,-76.629 752.8037,-82.9993"/>
</g>
<!-- Node17&#45;&gt;Node10 -->
<g id="edge21" class="edge">
<title>Node17&#45;&gt;Node10</title>
<path fill="none" stroke="#191970" d="M932.0189,-173.837C1054.2741,-165.8678 1329.4299,-147.8394 1561,-132 1600.3536,-129.3082 1645.8336,-126.0857 1674.5031,-124.0407"/>
<polygon fill="#191970" stroke="#191970" points="1674.8948,-127.5217 1684.62,-123.3181 1674.3961,-120.5395 1674.8948,-127.5217"/>
</g>
<!-- Node18 -->
<g id="node19" class="node">
<title>Node18</title>
<polygon fill="#ffffff" stroke="#bfbfbf" points="1523.5,-112.5 1523.5,-131.5 1552.5,-131.5 1552.5,-112.5 1523.5,-112.5"/>
<text text-anchor="middle" x="1538" y="-119.5" font-family="Helvetica,sans-Serif" font-size="10.00" fill="#000000">list</text>
</g>
<!-- Node17&#45;&gt;Node18 -->
<g id="edge20" class="edge">
<title>Node17&#45;&gt;Node18</title>
<path fill="none" stroke="#191970" d="M932.031,-173.2016C1037.3909,-165.2211 1253.8953,-148.4647 1437,-132 1463.0331,-129.6591 1492.8086,-126.6734 1513.2484,-124.5762"/>
<polygon fill="#191970" stroke="#191970" points="1513.7004,-128.0483 1523.2884,-123.5404 1512.982,-121.0852 1513.7004,-128.0483"/>
</g>
<!-- Node19 -->
<g id="node20" class="node">
<title>Node19</title>
<polygon fill="#ffffff" stroke="#bfbfbf" points="1085.5,-56.5 1085.5,-75.5 1138.5,-75.5 1138.5,-56.5 1085.5,-56.5"/>
<text text-anchor="middle" x="1112" y="-63.5" font-family="Helvetica,sans-Serif" font-size="10.00" fill="#000000">memory</text>
</g>
<!-- Node17&#45;&gt;Node19 -->
<g id="edge22" class="edge">
<title>Node17&#45;&gt;Node19</title>
<path fill="none" stroke="#191970" d="M910.4253,-168.4377C940.7312,-160.7493 981.9892,-148.5053 1016,-132 1044.4319,-118.2021 1073.9206,-96.6596 1092.5838,-81.967"/>
<polygon fill="#191970" stroke="#191970" points="1094.9689,-84.541 1100.5892,-75.5597 1090.5948,-79.0759 1094.9689,-84.541"/>
</g>
<!-- Node20 -->
<g id="node21" class="node">
<title>Node20</title>
<polygon fill="#ffffff" stroke="#bfbfbf" points="944.5,-112.5 944.5,-131.5 1007.5,-131.5 1007.5,-112.5 944.5,-112.5"/>
<text text-anchor="middle" x="976" y="-119.5" font-family="Helvetica,sans-Serif" font-size="10.00" fill="#000000">type_traits</text>
</g>
<!-- Node17&#45;&gt;Node20 -->
<g id="edge23" class="edge">
<title>Node17&#45;&gt;Node20</title>
<path fill="none" stroke="#191970" d="M886.8122,-168.2455C903.8473,-159.4125 929.1575,-146.2887 948.4681,-136.2758"/>
<polygon fill="#191970" stroke="#191970" points="950.137,-139.353 957.4034,-131.6427 946.9147,-133.1388 950.137,-139.353"/>
</g>
<!-- Node21 -->
<g id="node22" class="node">
<title>Node21</title>
<g id="a_node22"><a xlink:href="_convenience_8h.html" target="_top" xlink:title="uscxml/util/Convenience.h">
<polygon fill="#ffffff" stroke="#000000" points="1295.5,-112.5 1295.5,-131.5 1428.5,-131.5 1428.5,-112.5 1295.5,-112.5"/>
<text text-anchor="middle" x="1362" y="-119.5" font-family="Helvetica,sans-Serif" font-size="10.00" fill="#000000">uscxml/util/Convenience.h</text>
</a>
</g>
</g>
<!-- Node17&#45;&gt;Node21 -->
<g id="edge25" class="edge">
<title>Node17&#45;&gt;Node21</title>
<path fill="none" stroke="#191970" d="M932.1392,-171.3687C1012.1392,-163.002 1153.3885,-147.916 1285.0154,-132.0978"/>
<polygon fill="#191970" stroke="#191970" points="1285.7728,-135.5319 1295.282,-130.8601 1284.935,-128.5822 1285.7728,-135.5319"/>
</g>
<!-- Node24 -->
<g id="node25" class="node">
<title>Node24</title>
<g id="a_node25"><a xlink:href="_blob_8h.html" target="_top" xlink:title="uscxml/messages/Blob.h">
<polygon fill="#ffffff" stroke="#000000" points="722.5,-112.5 722.5,-131.5 849.5,-131.5 849.5,-112.5 722.5,-112.5"/>
<text text-anchor="middle" x="786" y="-119.5" font-family="Helvetica,sans-Serif" font-size="10.00" fill="#000000">uscxml/messages/Blob.h</text>
</a>
</g>
</g>
<!-- Node17&#45;&gt;Node24 -->
<g id="edge30" class="edge">
<title>Node17&#45;&gt;Node24</title>
<path fill="none" stroke="#191970" d="M853.7167,-168.2455C841.253,-159.7337 822.9549,-147.2375 808.5208,-137.3801"/>
<polygon fill="#191970" stroke="#191970" points="810.3515,-134.392 800.1196,-131.6427 806.4038,-140.1726 810.3515,-134.392"/>
</g>
<!-- Node21&#45;&gt;Node1 -->
<g id="edge26" class="edge">
<title>Node21&#45;&gt;Node1</title>
<path fill="none" stroke="#191970" d="M1295.2899,-113.0724C1292.1508,-112.6995 1289.0419,-112.3399 1286,-112 1127.345,-94.2709 939.8069,-78.3668 845.9023,-70.7496"/>
<polygon fill="#191970" stroke="#191970" points="845.9923,-67.2455 835.7428,-69.9282 845.4282,-74.2228 845.9923,-67.2455"/>
</g>
<!-- Node21&#45;&gt;Node11 -->
<g id="edge27" class="edge">
<title>Node21&#45;&gt;Node11</title>
<path fill="none" stroke="#191970" d="M1398.7879,-112.3733C1440.0782,-101.5683 1506.3431,-84.228 1545.0713,-74.0935"/>
<polygon fill="#191970" stroke="#191970" points="1546.4327,-77.3552 1555.2208,-71.4375 1544.6605,-70.5832 1546.4327,-77.3552"/>
</g>
<!-- Node22 -->
<g id="node23" class="node">
<title>Node22</title>
<polygon fill="#ffffff" stroke="#bfbfbf" points="2348.5,-56.5 2348.5,-75.5 2387.5,-75.5 2387.5,-56.5 2348.5,-56.5"/>
<text text-anchor="middle" x="2368" y="-63.5" font-family="Helvetica,sans-Serif" font-size="10.00" fill="#000000">limits</text>
</g>
<!-- Node21&#45;&gt;Node22 -->
<g id="edge28" class="edge">
<title>Node21&#45;&gt;Node22</title>
<path fill="none" stroke="#191970" d="M1428.5796,-117.4479C1455.1478,-115.6763 1486.0173,-113.6741 1514,-112 1836.7667,-92.6906 2228.3839,-72.9457 2338.1482,-67.4792"/>
<polygon fill="#191970" stroke="#191970" points="2338.632,-70.9596 2348.4458,-66.9671 2338.2842,-63.9682 2338.632,-70.9596"/>
</g>
<!-- Node23 -->
<g id="node24" class="node">
<title>Node23</title>
<polygon fill="#ffffff" stroke="#bfbfbf" points="1981,-56.5 1981,-75.5 2033,-75.5 2033,-56.5 1981,-56.5"/>
<text text-anchor="middle" x="2007" y="-63.5" font-family="Helvetica,sans-Serif" font-size="10.00" fill="#000000">sstream</text>
</g>
<!-- Node21&#45;&gt;Node23 -->
<g id="edge29" class="edge">
<title>Node21&#45;&gt;Node23</title>
<path fill="none" stroke="#191970" d="M1428.597,-116.2179C1563.8051,-104.4789 1866.4991,-78.1985 1970.8346,-69.1399"/>
<polygon fill="#191970" stroke="#191970" points="1971.2079,-72.6208 1980.8676,-68.2689 1970.6024,-65.647 1971.2079,-72.6208"/>
</g>
<!-- Node24&#45;&gt;Node1 -->
<g id="edge33" class="edge">
<title>Node24&#45;&gt;Node1</title>
<path fill="none" stroke="#191970" d="M786,-112.2455C786,-104.9382 786,-94.6944 786,-85.7046"/>
<polygon fill="#191970" stroke="#191970" points="789.5001,-85.6426 786,-75.6427 782.5001,-85.6427 789.5001,-85.6426"/>
</g>
<!-- Node24&#45;&gt;Node11 -->
<g id="edge31" class="edge">
<title>Node24&#45;&gt;Node11</title>
<path fill="none" stroke="#191970" d="M849.8139,-113.4862C854.6105,-112.9482 859.3795,-112.445 864,-112 1126.9406,-86.6763 1445.8908,-71.6222 1545.0706,-67.3011"/>
<polygon fill="#191970" stroke="#191970" points="1545.4437,-70.7883 1555.2835,-66.8604 1545.1419,-63.7948 1545.4437,-70.7883"/>
</g>
<!-- Node24&#45;&gt;Node19 -->
<g id="edge32" class="edge">
<title>Node24&#45;&gt;Node19</title>
<path fill="none" stroke="#191970" d="M841.671,-112.4369C908.4386,-100.9676 1018.4567,-82.0688 1075.3637,-72.2933"/>
<polygon fill="#191970" stroke="#191970" points="1076.086,-75.7206 1085.3491,-70.5781 1074.9008,-68.8217 1076.086,-75.7206"/>
</g>
<!-- Node25&#45;&gt;Node1 -->
<g id="edge35" class="edge">
<title>Node25&#45;&gt;Node1</title>
<path fill="none" stroke="#191970" d="M1178.4103,-114.0818C1173.5443,-113.3558 1168.6784,-112.65 1164,-112 1051.743,-96.404 920.3181,-81.0672 845.7409,-72.6366"/>
<polygon fill="#191970" stroke="#191970" points="845.9322,-69.1361 835.6029,-71.4936 845.1478,-76.092 845.9322,-69.1361"/>
</g>
<!-- Node25&#45;&gt;Node11 -->
<g id="edge36" class="edge">
<title>Node25&#45;&gt;Node11</title>
<path fill="none" stroke="#191970" d="M1277.6666,-113.3917C1280.4853,-112.9172 1283.2782,-112.4505 1286,-112 1380.3372,-96.3863 1492.1245,-78.957 1545.1416,-70.7555"/>
<polygon fill="#191970" stroke="#191970" points="1545.8893,-74.1816 1555.2374,-69.1954 1544.8202,-67.2637 1545.8893,-74.1816"/>
</g>
<!-- Node26&#45;&gt;Node1 -->
<g id="edge45" class="edge">
<title>Node26&#45;&gt;Node1</title>
<path fill="none" stroke="#191970" d="M1545.9624,-415.6173C1542.9445,-415.0001 1539.9395,-414.4518 1537,-414 1136.4979,-352.4443 1025.6971,-444.5826 626,-378 506.8323,-358.1487 367,-416.3098 367,-295.5 367,-295.5 367,-295.5 367,-178 367,-131.2171 406.0328,-130.5057 449,-112 497.6127,-91.0628 643.404,-76.8913 726.4292,-70.2772"/>
<polygon fill="#191970" stroke="#191970" points="726.7829,-73.7603 736.4787,-69.4891 726.2356,-66.7817 726.7829,-73.7603"/>
</g>
<!-- Node26&#45;&gt;Node10 -->
<g id="edge42" class="edge">
<title>Node26&#45;&gt;Node10</title>
<path fill="none" stroke="#191970" d="M1589.2227,-414.1595C1581.4251,-386.5195 1568.3232,-326.8723 1584,-280 1603.9265,-220.4213 1656.1437,-165.3077 1684.3248,-138.7028"/>
<polygon fill="#191970" stroke="#191970" points="1686.9509,-141.0414 1691.9135,-131.6807 1682.1966,-135.9036 1686.9509,-141.0414"/>
</g>
<!-- Node26&#45;&gt;Node11 -->
<g id="edge43" class="edge">
<title>Node26&#45;&gt;Node11</title>
<path fill="none" stroke="#191970" d="M1642.2531,-427.5988C1775.9358,-422.0176 2144.3793,-404.3948 2192,-378 2232.1165,-355.7645 2254,-341.3667 2254,-295.5 2254,-295.5 2254,-295.5 2254,-178 2254,-118.297 2194.0767,-129.5128 2137,-112 2036.6071,-81.1966 1709.3833,-69.6927 1606.9475,-66.7938"/>
<polygon fill="#191970" stroke="#191970" points="1606.7598,-63.2874 1596.6672,-66.5107 1606.567,-70.2848 1606.7598,-63.2874"/>
</g>
<!-- Node26&#45;&gt;Node13 -->
<g id="edge40" class="edge">
<title>Node26&#45;&gt;Node13</title>
<path fill="none" stroke="#191970" d="M1612.1823,-414.4961C1636.3695,-393.6342 1678.9788,-353.5991 1704,-311 1714.6419,-292.882 1721.3803,-269.6653 1725.1451,-253.484"/>
<polygon fill="#191970" stroke="#191970" points="1728.5996,-254.068 1727.2879,-243.5547 1721.7571,-252.5913 1728.5996,-254.068"/>
</g>
<!-- Node26&#45;&gt;Node18 -->
<g id="edge41" class="edge">
<title>Node26&#45;&gt;Node18</title>
<path fill="none" stroke="#191970" d="M1576.577,-414.1621C1567.1861,-404.7578 1556.4361,-391.8828 1551,-378 1518.6095,-295.2798 1528.8291,-185.9047 1534.9011,-141.7428"/>
<polygon fill="#191970" stroke="#191970" points="1538.3781,-142.1543 1536.3617,-131.7531 1531.4517,-141.1416 1538.3781,-142.1543"/>
</g>
<!-- Node26&#45;&gt;Node19 -->
<g id="edge39" class="edge">
<title>Node26&#45;&gt;Node19</title>
<path fill="none" stroke="#191970" d="M1642.1901,-420.8436C1782.1934,-394.5532 2175.6241,-312.0343 2121,-224 2091.4477,-176.3724 1949.176,-126.3767 1895,-112 1751.4764,-73.9132 1284.2088,-67.3349 1148.9778,-66.2218"/>
<polygon fill="#191970" stroke="#191970" points="1148.7614,-62.7201 1138.7347,-66.1429 1148.7074,-69.7199 1148.7614,-62.7201"/>
</g>
<!-- Node26&#45;&gt;Node22 -->
<g id="edge44" class="edge">
<title>Node26&#45;&gt;Node22</title>
<path fill="none" stroke="#191970" d="M1642.0624,-426.8127C1785.6846,-418.6227 2203.2713,-393.5847 2228,-378 2255.1197,-360.9083 2336.1262,-150.5867 2360.7927,-85.2405"/>
<polygon fill="#191970" stroke="#191970" points="2364.124,-86.3253 2364.3694,-75.7333 2357.5723,-83.8604 2364.124,-86.3253"/>
</g>
<!-- Node27 -->
<g id="node28" class="node">
<title>Node27</title>
<g id="a_node28"><a xlink:href="_u_r_l_8h.html" target="_top" xlink:title="uscxml/util/URL.h">
<polygon fill="#ffffff" stroke="#ff0000" points="1789,-286 1789,-305 1883,-305 1883,-286 1789,-286"/>
<text text-anchor="middle" x="1836" y="-293" font-family="Helvetica,sans-Serif" font-size="10.00" fill="#000000">uscxml/util/URL.h</text>
</a>
</g>
</g>
<!-- Node26&#45;&gt;Node27 -->
<g id="edge46" class="edge">
<title>Node26&#45;&gt;Node27</title>
<path fill="none" stroke="#191970" d="M1642.2995,-417.365C1671.7201,-408.8049 1709.407,-395.7002 1740,-378 1771.1756,-359.9627 1801.7819,-331.2053 1819.7692,-312.8477"/>
<polygon fill="#191970" stroke="#191970" points="1822.6944,-314.8552 1827.1023,-305.2209 1817.6484,-310.0036 1822.6944,-314.8552"/>
</g>
<!-- Node30 -->
<g id="node30" class="node">
<title>Node30</title>
<g id="a_node30"><a xlink:href="_factory_8h.html" target="_top" xlink:title="uscxml/plugins/Factory.h">
<polygon fill="#ffffff" stroke="#000000" points="1984.5,-224.5 1984.5,-243.5 2111.5,-243.5 2111.5,-224.5 1984.5,-224.5"/>
<text text-anchor="middle" x="2048" y="-231.5" font-family="Helvetica,sans-Serif" font-size="10.00" fill="#000000">uscxml/plugins/Factory.h</text>
</a>
</g>
</g>
<!-- Node26&#45;&gt;Node30 -->
<g id="edge56" class="edge">
<title>Node26&#45;&gt;Node30</title>
<path fill="none" stroke="#191970" d="M1642.0514,-418.844C1679.2863,-409.8887 1731.8052,-395.7201 1776,-378 1871.5783,-339.6775 1977.4034,-277.4442 2023.879,-249.0203"/>
<polygon fill="#191970" stroke="#191970" points="2025.9327,-251.8662 2032.6168,-243.6459 2022.2654,-245.9038 2025.9327,-251.8662"/>
</g>
<!-- Node32 -->
<g id="node32" class="node">
<title>Node32</title>
<g id="a_node32"><a xlink:href="_data_model_impl_8h.html" target="_top" xlink:title="uscxml/plugins/DataModel\lImpl.h">
<polygon fill="#ffffff" stroke="#ff0000" points="1298.5,-347.5 1298.5,-377.5 1431.5,-377.5 1431.5,-347.5 1298.5,-347.5"/>
<text text-anchor="start" x="1306.5" y="-365.5" font-family="Helvetica,sans-Serif" font-size="10.00" fill="#000000">uscxml/plugins/DataModel</text>
<text text-anchor="middle" x="1365" y="-354.5" font-family="Helvetica,sans-Serif" font-size="10.00" fill="#000000">Impl.h</text>
</a>
</g>
</g>
<!-- Node26&#45;&gt;Node32 -->
<g id="edge66" class="edge">
<title>Node26&#45;&gt;Node32</title>
<path fill="none" stroke="#191970" d="M1545.9941,-415.4546C1511.2002,-405.2747 1463.87,-391.427 1426.3363,-380.4456"/>
<polygon fill="#191970" stroke="#191970" points="1427.1052,-377.0239 1416.5247,-377.5749 1425.1395,-383.7422 1427.1052,-377.0239"/>
</g>
<!-- Node26&#45;&gt;Node37 -->
<g id="edge76" class="edge">
<title>Node26&#45;&gt;Node37</title>
<path fill="none" stroke="#191970" d="M1545.9506,-415.6913C1542.9356,-415.0557 1539.9345,-414.4831 1537,-414 1277.342,-371.2505 1207.9488,-403.1515 946,-378 933.7471,-376.8235 920.8067,-375.3552 908.1623,-373.7946"/>
<polygon fill="#191970" stroke="#191970" points="908.4633,-370.3049 898.1041,-372.527 907.588,-377.25 908.4633,-370.3049"/>
</g>
<!-- Node38 -->
<g id="node36" class="node">
<title>Node38</title>
<g id="a_node36"><a xlink:href="_invoker_impl_8h.html" target="_top" xlink:title="uscxml/plugins/InvokerImpl.h">
<polygon fill="#ffffff" stroke="#000000" points="955.5,-353 955.5,-372 1100.5,-372 1100.5,-353 955.5,-353"/>
<text text-anchor="middle" x="1028" y="-360" font-family="Helvetica,sans-Serif" font-size="10.00" fill="#000000">uscxml/plugins/InvokerImpl.h</text>
</a>
</g>
</g>
<!-- Node26&#45;&gt;Node38 -->
<g id="edge86" class="edge">
<title>Node26&#45;&gt;Node38</title>
<path fill="none" stroke="#191970" d="M1545.9363,-415.7752C1542.9248,-415.1188 1539.9284,-414.5187 1537,-414 1351.6483,-381.1698 1301.6311,-402.5338 1115,-378 1105.9517,-376.8106 1096.4111,-375.337 1087.0955,-373.7756"/>
<polygon fill="#191970" stroke="#191970" points="1087.5583,-370.3038 1077.1094,-372.0561 1086.3704,-377.2023 1087.5583,-370.3038"/>
</g>
<!-- Node39 -->
<g id="node37" class="node">
<title>Node39</title>
<g id="a_node37"><a xlink:href="_micro_step_impl_8h.html" target="_top" xlink:title="uscxml/interpreter\l/MicroStepImpl.h">
<polygon fill="#ffffff" stroke="#ff0000" points="1023,-280.5 1023,-310.5 1119,-310.5 1119,-280.5 1023,-280.5"/>
<text text-anchor="start" x="1031" y="-298.5" font-family="Helvetica,sans-Serif" font-size="10.00" fill="#000000">uscxml/interpreter</text>
<text text-anchor="middle" x="1071" y="-287.5" font-family="Helvetica,sans-Serif" font-size="10.00" fill="#000000">/MicroStepImpl.h</text>
</a>
</g>
</g>
<!-- Node26&#45;&gt;Node39 -->
<g id="edge92" class="edge">
<title>Node26&#45;&gt;Node39</title>
<path fill="none" stroke="#191970" d="M1545.9315,-415.8016C1542.9213,-415.1386 1539.9264,-414.5299 1537,-414 1452.0108,-398.6107 1227.7761,-415.5616 1150,-378 1122.9003,-364.9123 1100.1683,-338.3496 1086.1489,-318.8872"/>
<polygon fill="#191970" stroke="#191970" points="1088.9156,-316.7352 1080.3363,-310.5186 1083.1664,-320.7285 1088.9156,-316.7352"/>
</g>
<!-- Node47 -->
<g id="node38" class="node">
<title>Node47</title>
<g id="a_node38"><a xlink:href="_content_executor_impl_8h.html" target="_top" xlink:title="uscxml/interpreter\l/ContentExecutorImpl.h">
<polygon fill="#ffffff" stroke="#ff0000" points="1159.5,-347.5 1159.5,-377.5 1280.5,-377.5 1280.5,-347.5 1159.5,-347.5"/>
<text text-anchor="start" x="1167.5" y="-365.5" font-family="Helvetica,sans-Serif" font-size="10.00" fill="#000000">uscxml/interpreter</text>
<text text-anchor="middle" x="1220" y="-354.5" font-family="Helvetica,sans-Serif" font-size="10.00" fill="#000000">/ContentExecutorImpl.h</text>
</a>
</g>
</g>
<!-- Node26&#45;&gt;Node47 -->
<g id="edge98" class="edge">
<title>Node26&#45;&gt;Node47</title>
<path fill="none" stroke="#191970" d="M1545.8971,-415.9785C1542.8954,-415.2717 1539.9118,-414.6049 1537,-414 1431.1457,-392.0092 1400.319,-397.843 1290.6752,-378.2208"/>
<polygon fill="#191970" stroke="#191970" points="1290.9933,-374.7212 1280.5281,-376.3731 1289.7393,-381.608 1290.9933,-374.7212"/>
</g>
<!-- Node46 -->
<g id="node39" class="node">
<title>Node46</title>
<g id="a_node39"><a xlink:href="_event_queue_8h.html" target="_top" xlink:title="uscxml/interpreter\l/EventQueue.h">
<polygon fill="#ffffff" stroke="#000000" points="433,-280.5 433,-310.5 529,-310.5 529,-280.5 433,-280.5"/>
<text text-anchor="start" x="441" y="-298.5" font-family="Helvetica,sans-Serif" font-size="10.00" fill="#000000">uscxml/interpreter</text>
<text text-anchor="middle" x="481" y="-287.5" font-family="Helvetica,sans-Serif" font-size="10.00" fill="#000000">/EventQueue.h</text>
</a>
</g>
</g>
<!-- Node26&#45;&gt;Node46 -->
<g id="edge105" class="edge">
<title>Node26&#45;&gt;Node46</title>
<path fill="none" stroke="#191970" d="M1545.959,-415.6387C1542.942,-415.0162 1539.9381,-414.4608 1537,-414 1190.647,-359.6748 1094.4059,-438.0531 749,-378 669.7572,-364.2226 581.1721,-333.8662 528.3089,-314.0686"/>
<polygon fill="#191970" stroke="#191970" points="529.4559,-310.7606 518.8642,-310.5013 526.9824,-317.309 529.4559,-310.7606"/>
</g>
<!-- Node50 -->
<g id="node40" class="node">
<title>Node50</title>
<g id="a_node40"><a xlink:href="_event_queue_impl_8h.html" target="_top" xlink:title="uscxml/interpreter\l/EventQueueImpl.h">
<polygon fill="#ffffff" stroke="#ff0000" points="1593,-280.5 1593,-310.5 1695,-310.5 1695,-280.5 1593,-280.5"/>
<text text-anchor="start" x="1601" y="-298.5" font-family="Helvetica,sans-Serif" font-size="10.00" fill="#000000">uscxml/interpreter</text>
<text text-anchor="middle" x="1644" y="-287.5" font-family="Helvetica,sans-Serif" font-size="10.00" fill="#000000">/EventQueueImpl.h</text>
</a>
</g>
</g>
<!-- Node26&#45;&gt;Node50 -->
<g id="edge108" class="edge">
<title>Node26&#45;&gt;Node50</title>
<path fill="none" stroke="#191970" d="M1599.6384,-414.389C1608.1535,-391.5686 1624.3899,-348.055 1634.6809,-320.4751"/>
<polygon fill="#191970" stroke="#191970" points="1638.0886,-321.354 1638.3054,-310.7614 1631.5303,-318.9068 1638.0886,-321.354"/>
</g>
<!-- Node27&#45;&gt;Node1 -->
<g id="edge47" class="edge">
<title>Node27&#45;&gt;Node1</title>
<path fill="none" stroke="#191970" d="M1841.0794,-285.874C1847.7882,-271.7832 1857.7835,-244.9427 1849,-224 1820.9092,-157.0226 1797.1304,-139.7232 1730,-112 1709.5032,-103.5353 1050.0906,-76.5497 845.7562,-68.3716"/>
<polygon fill="#191970" stroke="#191970" points="845.6483,-64.8646 835.5164,-67.9623 845.3686,-71.859 845.6483,-64.8646"/>
</g>
<!-- Node27&#45;&gt;Node10 -->
<g id="edge51" class="edge">
<title>Node27&#45;&gt;Node10</title>
<path fill="none" stroke="#191970" d="M1837.6948,-285.579C1839.659,-271.1207 1841.4203,-243.8268 1831,-224 1824.8153,-212.2323 1759.2713,-163.1619 1724.4584,-137.6152"/>
<polygon fill="#191970" stroke="#191970" points="1726.4619,-134.7443 1716.3246,-131.6641 1722.3285,-140.3936 1726.4619,-134.7443"/>
</g>
<!-- Node27&#45;&gt;Node11 -->
<g id="edge49" class="edge">
<title>Node27&#45;&gt;Node11</title>
<path fill="none" stroke="#191970" d="M1883.188,-291.4166C1953.7222,-284.5804 2082.4865,-269.0508 2121,-244 2152.6572,-223.4089 2172.4599,-203.2846 2159,-168 2147.1079,-136.8253 2138.8379,-126.9327 2109,-112 2064.0319,-89.4952 1713.716,-72.1473 1606.849,-67.3364"/>
<polygon fill="#191970" stroke="#191970" points="1606.8679,-63.8339 1596.7221,-66.8854 1606.5564,-70.827 1606.8679,-63.8339"/>
</g>
<!-- Node27&#45;&gt;Node12 -->
<g id="edge54" class="edge">
<title>Node27&#45;&gt;Node12</title>
<path fill="none" stroke="#191970" d="M1852.875,-285.8906C1870.4698,-275.8713 1898.2566,-260.0483 1918.5241,-248.5071"/>
<polygon fill="#191970" stroke="#191970" points="1920.2856,-251.5318 1927.2435,-243.5419 1916.8217,-245.4489 1920.2856,-251.5318"/>
</g>
<!-- Node27&#45;&gt;Node13 -->
<g id="edge55" class="edge">
<title>Node27&#45;&gt;Node13</title>
<path fill="none" stroke="#191970" d="M1819.2813,-285.8906C1801.9278,-275.9165 1774.5677,-260.1908 1754.5118,-248.6633"/>
<polygon fill="#191970" stroke="#191970" points="1756.0154,-245.4907 1745.6013,-243.5419 1752.5272,-251.5596 1756.0154,-245.4907"/>
</g>
<!-- Node27&#45;&gt;Node16 -->
<g id="edge48" class="edge">
<title>Node27&#45;&gt;Node16</title>
<path fill="none" stroke="#191970" d="M1788.7243,-289.2254C1763.5971,-286.0735 1732.162,-282.4204 1704,-280 1422.6766,-255.822 1087.3205,-241.9652 939.032,-236.6014"/>
<polygon fill="#191970" stroke="#191970" points="938.8009,-233.0909 928.6818,-236.2299 938.5497,-240.0864 938.8009,-233.0909"/>
</g>
<!-- Node27&#45;&gt;Node18 -->
<g id="edge53" class="edge">
<title>Node27&#45;&gt;Node18</title>
<path fill="none" stroke="#191970" d="M1831.9502,-285.831C1825.1612,-270.6956 1810.1216,-241.3486 1789,-224 1718.3743,-165.9905 1610.3614,-137.2791 1562.4017,-126.8095"/>
<polygon fill="#191970" stroke="#191970" points="1563.0996,-123.3797 1552.5928,-124.7423 1561.6561,-130.2293 1563.0996,-123.3797"/>
</g>
<!-- Node27&#45;&gt;Node23 -->
<g id="edge50" class="edge">
<title>Node27&#45;&gt;Node23</title>
<path fill="none" stroke="#191970" d="M1883.263,-290.6073C1959.5135,-282.2539 2105.9841,-264.1759 2154,-244 2192.681,-227.7465 2211.0774,-225.4477 2230,-188 2245.2338,-157.8525 2251.3359,-138.1862 2230,-112 2206.8461,-83.5825 2100.2056,-72.1971 2043.1924,-68.0803"/>
<polygon fill="#191970" stroke="#191970" points="2043.3712,-64.5844 2033.1556,-67.3937 2042.8934,-71.5681 2043.3712,-64.5844"/>
</g>
<!-- Node28 -->
<g id="node29" class="node">
<title>Node28</title>
<polygon fill="#ffffff" stroke="#bfbfbf" points="1216,-168.5 1216,-187.5 1246,-187.5 1246,-168.5 1216,-168.5"/>
<text text-anchor="middle" x="1231" y="-175.5" font-family="Helvetica,sans-Serif" font-size="10.00" fill="#000000">set</text>
</g>
<!-- Node27&#45;&gt;Node28 -->
<g id="edge52" class="edge">
<title>Node27&#45;&gt;Node28</title>
<path fill="none" stroke="#191970" d="M1829.3418,-285.9906C1817.5019,-269.9516 1791.0863,-237.9128 1760,-224 1713.6659,-203.2629 1355.4548,-184.1571 1256.342,-179.2268"/>
<polygon fill="#191970" stroke="#191970" points="1256.2301,-175.7171 1246.0699,-178.7206 1255.8855,-182.7086 1256.2301,-175.7171"/>
</g>
<!-- Node30&#45;&gt;Node1 -->
<g id="edge57" class="edge">
<title>Node30&#45;&gt;Node1</title>
<path fill="none" stroke="#191970" d="M2030.2108,-224.4866C2012.8192,-215.1853 1985.5887,-200.6211 1962,-188 1930.4423,-171.1151 1854.5138,-121.4754 1820,-112 1796.3848,-105.5167 1062.8143,-76.7042 845.8633,-68.3051"/>
<polygon fill="#191970" stroke="#191970" points="845.7531,-64.7983 835.6252,-67.909 845.4824,-71.7931 845.7531,-64.7983"/>
</g>
<!-- Node30&#45;&gt;Node10 -->
<g id="edge63" class="edge">
<title>Node30&#45;&gt;Node10</title>
<path fill="none" stroke="#191970" d="M2003.895,-224.4213C1967.17,-216.0431 1913.689,-202.9056 1868,-188 1818.5588,-171.8703 1762.6902,-148.3672 1730.2938,-134.1938"/>
<polygon fill="#191970" stroke="#191970" points="1731.589,-130.9399 1721.0264,-130.1132 1728.7681,-137.3463 1731.589,-130.9399"/>
</g>
<!-- Node30&#45;&gt;Node11 -->
<g id="edge64" class="edge">
<title>Node30&#45;&gt;Node11</title>
<path fill="none" stroke="#191970" d="M2045.1897,-224.3158C2037.7313,-200.538 2015.0043,-139.2414 1972,-112 1941.3052,-92.5562 1694.5153,-74.0596 1606.8001,-68.0392"/>
<polygon fill="#191970" stroke="#191970" points="1606.8963,-64.5378 1596.682,-67.3518 1606.4218,-71.5217 1606.8963,-64.5378"/>
</g>
<!-- Node30&#45;&gt;Node19 -->
<g id="edge61" class="edge">
<title>Node30&#45;&gt;Node19</title>
<path fill="none" stroke="#191970" d="M2037.4761,-224.3786C2010.2693,-200.189 1934.3777,-136.9886 1858,-112 1790.3148,-89.8553 1290.1232,-71.8632 1148.9842,-67.1864"/>
<polygon fill="#191970" stroke="#191970" points="1148.8081,-63.6788 1138.6984,-66.8481 1148.5779,-70.675 1148.8081,-63.6788"/>
</g>
<!-- Node30&#45;&gt;Node22 -->
<g id="edge65" class="edge">
<title>Node30&#45;&gt;Node22</title>
<path fill="none" stroke="#191970" d="M2074.0109,-224.3712C2096.791,-215.6682 2130.5973,-202.0941 2159,-188 2228.3902,-153.567 2306.239,-105.4498 2344.369,-81.2202"/>
<polygon fill="#191970" stroke="#191970" points="2346.6317,-83.9282 2353.178,-75.5977 2342.8655,-78.0276 2346.6317,-83.9282"/>
</g>
<!-- Node30&#45;&gt;Node28 -->
<g id="edge62" class="edge">
<title>Node30&#45;&gt;Node28</title>
<path fill="none" stroke="#191970" d="M1984.4283,-224.9025C1981.5821,-224.5797 1978.7626,-224.2767 1976,-224 1694.4508,-195.7974 1351.1932,-182.2396 1256.3276,-178.862"/>
<polygon fill="#191970" stroke="#191970" points="1256.3633,-175.3612 1246.2467,-178.5084 1256.1179,-182.3569 1256.3633,-175.3612"/>
</g>
<!-- Node30&#45;&gt;Node31 -->
<g id="edge58" class="edge">
<title>Node30&#45;&gt;Node31</title>
<path fill="none" stroke="#191970" d="M2061.4124,-224.2455C2073.0057,-215.814 2089.9748,-203.4729 2103.4678,-193.6598"/>
<polygon fill="#191970" stroke="#191970" points="2105.7126,-196.355 2111.7413,-187.6427 2101.5953,-190.6938 2105.7126,-196.355"/>
</g>
<!-- Node31&#45;&gt;Node11 -->
<g id="edge59" class="edge">
<title>Node31&#45;&gt;Node11</title>
<path fill="none" stroke="#191970" d="M2122.3932,-168.3788C2117.7927,-153.4539 2106.7026,-125.0812 2086,-112 2045.4423,-86.3731 1710.6731,-71.2579 1606.6909,-67.1479"/>
<polygon fill="#191970" stroke="#191970" points="1606.6703,-63.6446 1596.5417,-66.753 1606.398,-70.6393 1606.6703,-63.6446"/>
</g>
<!-- Node31&#45;&gt;Node18 -->
<g id="edge60" class="edge">
<title>Node31&#45;&gt;Node18</title>
<path fill="none" stroke="#191970" d="M2100.1523,-175.6295C2004.2256,-166.4781 1658.6218,-133.5074 1562.7919,-124.3652"/>
<polygon fill="#191970" stroke="#191970" points="1562.902,-120.8599 1552.6148,-123.3943 1562.2372,-127.8282 1562.902,-120.8599"/>
</g>
<!-- Node32&#45;&gt;Node1 -->
<g id="edge67" class="edge">
<title>Node32&#45;&gt;Node1</title>
<path fill="none" stroke="#191970" d="M1358.3147,-347.4947C1339.7176,-306.3541 1286.6654,-193.157 1255,-168 1220.5349,-140.6187 1107.9083,-121.8212 1065,-112 990.2171,-94.883 902.7688,-81.5224 845.9853,-73.7106"/>
<polygon fill="#191970" stroke="#191970" points="846.1302,-70.1981 835.7494,-72.3169 845.1857,-77.1341 846.1302,-70.1981"/>
</g>
<!-- Node32&#45;&gt;Node11 -->
<g id="edge74" class="edge">
<title>Node32&#45;&gt;Node11</title>
<path fill="none" stroke="#191970" d="M1390.261,-347.4283C1441.065,-315.4087 1554.2251,-235.0269 1595,-132 1601.2143,-116.2981 1594.7378,-97.7698 1587.7102,-84.3481"/>
<polygon fill="#191970" stroke="#191970" points="1590.6915,-82.5115 1582.6692,-75.5909 1584.6248,-86.0037 1590.6915,-82.5115"/>
</g>
<!-- Node32&#45;&gt;Node18 -->
<g id="edge73" class="edge">
<title>Node32&#45;&gt;Node18</title>
<path fill="none" stroke="#191970" d="M1359.8605,-347.2818C1348.5786,-310.7166 1326.2724,-217.3045 1374,-168 1417.1897,-123.3833 1449.6098,-150.133 1509,-132 1510.4644,-131.5529 1511.9656,-131.0801 1513.4769,-130.593"/>
<polygon fill="#191970" stroke="#191970" points="1514.9465,-133.7917 1523.3136,-127.2922 1512.7196,-127.1554 1514.9465,-133.7917"/>
</g>
<!-- Node32&#45;&gt;Node19 -->
<g id="edge75" class="edge">
<title>Node32&#45;&gt;Node19</title>
<path fill="none" stroke="#191970" d="M1378.9148,-347.3971C1422.0711,-300.3891 1551.3471,-158.2532 1561,-132 1564.0675,-123.6572 1566.9565,-118.5979 1561,-112 1533.5509,-81.595 1251.3887,-70.1702 1148.9242,-67.0046"/>
<polygon fill="#191970" stroke="#191970" points="1148.8406,-63.5006 1138.7401,-66.699 1148.6306,-70.4974 1148.8406,-63.5006"/>
</g>
<!-- Node32&#45;&gt;Node36 -->
<g id="edge68" class="edge">
<title>Node32&#45;&gt;Node36</title>
<path fill="none" stroke="#191970" d="M1298.3312,-348.5645C1295.181,-348.0126 1292.0586,-347.4876 1289,-347 1150.4978,-324.9221 986.3568,-308.4375 901.0431,-300.5907"/>
<polygon fill="#191970" stroke="#191970" points="901.3137,-297.1009 891.0367,-299.6768 900.6769,-304.0719 901.3137,-297.1009"/>
</g>
<!-- Node36&#45;&gt;Node1 -->
<g id="edge69" class="edge">
<title>Node36&#45;&gt;Node1</title>
<path fill="none" stroke="#191970" d="M794.7349,-284.2169C727.9614,-265.6099 610.5924,-221.3046 566,-132 562.029,-124.0474 560.3946,-118.8987 566,-112 585.847,-87.5739 668.0368,-75.6661 726.12,-70.199"/>
<polygon fill="#191970" stroke="#191970" points="726.6567,-73.6649 736.3027,-69.2826 726.0292,-66.6931 726.6567,-73.6649"/>
</g>
<!-- Node36&#45;&gt;Node16 -->
<g id="edge71" class="edge">
<title>Node36&#45;&gt;Node16</title>
<path fill="none" stroke="#191970" d="M847.6966,-280.2977C850.1967,-272.2055 853.299,-262.1639 855.9747,-253.5029"/>
<polygon fill="#191970" stroke="#191970" points="859.3501,-254.4345 858.9579,-243.8469 852.662,-252.3682 859.3501,-254.4345"/>
</g>
<!-- Node36&#45;&gt;Node17 -->
<g id="edge70" class="edge">
<title>Node36&#45;&gt;Node17</title>
<path fill="none" stroke="#191970" d="M816.7826,-280.2691C796.4831,-266.4049 773.7258,-244.9591 786,-224 794.6755,-209.186 810.0626,-198.7802 825.1825,-191.6608"/>
<polygon fill="#191970" stroke="#191970" points="826.7033,-194.8166 834.4998,-187.6426 823.9313,-188.3888 826.7033,-194.8166"/>
</g>
<!-- Node36&#45;&gt;Node19 -->
<g id="edge72" class="edge">
<title>Node36&#45;&gt;Node19</title>
<path fill="none" stroke="#191970" d="M818.084,-280.397C767.4596,-247.9193 661.5636,-169.7072 713,-112 736.9012,-85.1849 980.8337,-71.7347 1075.0986,-67.5074"/>
<polygon fill="#191970" stroke="#191970" points="1075.4723,-70.9944 1085.3093,-67.0595 1075.1655,-64.0011 1075.4723,-70.9944"/>
</g>
<!-- Node37&#45;&gt;Node1 -->
<g id="edge77" class="edge">
<title>Node37&#45;&gt;Node1</title>
<path fill="none" stroke="#191970" d="M757.6448,-357.8334C648.5248,-349.9622 448.4157,-332.755 424,-311 397.6827,-287.5507 405,-269.2487 405,-234 405,-234 405,-234 405,-178 405,-111.8778 618.8941,-81.965 726.1545,-71.1217"/>
<polygon fill="#191970" stroke="#191970" points="726.583,-74.5965 736.1909,-70.1313 725.8955,-67.6304 726.583,-74.5965"/>
</g>
<!-- Node37&#45;&gt;Node16 -->
<g id="edge85" class="edge">
<title>Node37&#45;&gt;Node16</title>
<path fill="none" stroke="#191970" d="M810.9158,-347.395C794.1903,-330.6963 772.9787,-303.1021 786,-280 794.138,-265.5618 808.8355,-255.1395 823.1516,-247.9057"/>
<polygon fill="#191970" stroke="#191970" points="824.8319,-250.9846 832.4315,-243.6024 821.887,-244.6342 824.8319,-250.9846"/>
</g>
<!-- Node37&#45;&gt;Node36 -->
<g id="edge84" class="edge">
<title>Node37&#45;&gt;Node36</title>
<path fill="none" stroke="#191970" d="M831.4037,-347.2967C833.1681,-339.4156 835.3689,-329.5857 837.3776,-320.6135"/>
<polygon fill="#191970" stroke="#191970" points="840.8404,-321.1663 839.6097,-310.6432 834.0095,-319.6369 840.8404,-321.1663"/>
</g>
<!-- Node34 -->
<g id="node35" class="node">
<title>Node34</title>
<g id="a_node35"><a xlink:href="_event_handler_8h.html" target="_top" xlink:title="uscxml/plugins/EventHandler.h">
<polygon fill="#ffffff" stroke="#000000" points="547,-286 547,-305 701,-305 701,-286 547,-286"/>
<text text-anchor="middle" x="624" y="-293" font-family="Helvetica,sans-Serif" font-size="10.00" fill="#000000">uscxml/plugins/EventHandler.h</text>
</a>
</g>
</g>
<!-- Node37&#45;&gt;Node34 -->
<g id="edge78" class="edge">
<title>Node37&#45;&gt;Node34</title>
<path fill="none" stroke="#191970" d="M782.2184,-347.4639C746.1869,-335.63 696.5443,-319.3258 662.5295,-308.1543"/>
<polygon fill="#191970" stroke="#191970" points="663.5343,-304.8004 652.9415,-305.0053 661.35,-311.4509 663.5343,-304.8004"/>
</g>
<!-- Node34&#45;&gt;Node1 -->
<g id="edge79" class="edge">
<title>Node34&#45;&gt;Node1</title>
<path fill="none" stroke="#191970" d="M614.4963,-285.6009C587.287,-256.0667 513.8589,-167.2061 559,-112 579.7532,-86.6195 666.171,-74.9086 726.1791,-69.7507"/>
<polygon fill="#191970" stroke="#191970" points="726.6302,-73.2255 736.3107,-68.9199 726.0581,-66.2489 726.6302,-73.2255"/>
</g>
<!-- Node34&#45;&gt;Node11 -->
<g id="edge82" class="edge">
<title>Node34&#45;&gt;Node11</title>
<path fill="none" stroke="#191970" d="M634.4461,-285.9576C660.0808,-262.9507 728.8398,-203.692 795,-168 836.2051,-145.7707 850.9009,-150.2885 894,-132 912.6639,-124.0803 915.4211,-117.2659 935,-112 1052.3035,-80.4501 1433.8115,-69.2912 1545.2009,-66.6609"/>
<polygon fill="#191970" stroke="#191970" points="1545.4934,-70.1552 1555.4103,-66.4261 1545.3324,-63.1571 1545.4934,-70.1552"/>
</g>
<!-- Node34&#45;&gt;Node16 -->
<g id="edge80" class="edge">
<title>Node34&#45;&gt;Node16</title>
<path fill="none" stroke="#191970" d="M660.9264,-285.9581C702.4402,-275.2308 769.9365,-257.7895 815.1353,-246.11"/>
<polygon fill="#191970" stroke="#191970" points="816.1807,-249.4549 824.987,-243.5643 814.4293,-242.6775 816.1807,-249.4549"/>
</g>
<!-- Node34&#45;&gt;Node18 -->
<g id="edge81" class="edge">
<title>Node34&#45;&gt;Node18</title>
<path fill="none" stroke="#191970" d="M641.3865,-285.9291C670.4274,-270.3832 731.0442,-239.7968 786,-224 893.043,-193.231 923.8467,-204.468 1034,-188 1091.815,-179.3566 1106.0943,-176.0135 1164,-168 1295.4663,-149.8066 1453.4426,-131.5602 1513.3494,-124.7704"/>
<polygon fill="#191970" stroke="#191970" points="1513.8218,-128.2394 1523.3656,-123.6386 1513.0358,-121.2837 1513.8218,-128.2394"/>
</g>
<!-- Node34&#45;&gt;Node19 -->
<g id="edge83" class="edge">
<title>Node34&#45;&gt;Node19</title>
<path fill="none" stroke="#191970" d="M624.4685,-285.6364C626.5767,-253.7728 638.0051,-153.2787 699,-112 729.8824,-91.1002 980.2587,-73.9552 1075.4529,-68.1319"/>
<polygon fill="#191970" stroke="#191970" points="1075.7142,-71.6226 1085.4846,-67.5252 1075.2915,-64.6354 1075.7142,-71.6226"/>
</g>
<!-- Node38&#45;&gt;Node1 -->
<g id="edge88" class="edge">
<title>Node38&#45;&gt;Node1</title>
<path fill="none" stroke="#191970" d="M1024.5269,-352.7863C1021.065,-342.5493 1015.9862,-325.878 1014,-311 1002.2959,-223.3289 1072.0756,-180.4013 1016,-112 994.8592,-86.2123 906.6342,-74.5931 845.8114,-69.5682"/>
<polygon fill="#191970" stroke="#191970" points="845.7925,-66.056 835.5488,-68.7608 845.2435,-73.0344 845.7925,-66.056"/>
</g>
<!-- Node38&#45;&gt;Node5 -->
<g id="edge87" class="edge">
<title>Node38&#45;&gt;Node5</title>
<path fill="none" stroke="#191970" d="M1093.4084,-352.9676C1111.6864,-350.637 1131.5855,-348.4101 1150,-347 1300.612,-335.4666 2362.2327,-346.7262 2509,-311 2539.7089,-303.5248 2543.8652,-292.2506 2573,-280 2602.4016,-267.6372 2636.4104,-255.5146 2661.9798,-246.8202"/>
<polygon fill="#191970" stroke="#191970" points="2663.3287,-250.059 2671.6856,-243.5465 2661.0915,-243.4261 2663.3287,-250.059"/>
</g>
<!-- Node38&#45;&gt;Node16 -->
<g id="edge90" class="edge">
<title>Node38&#45;&gt;Node16</title>
<path fill="none" stroke="#191970" d="M1009.6916,-352.9132C991.9638,-343.289 964.6628,-327.5507 943,-311 918.6208,-292.3739 893.4551,-267.3803 877.7757,-250.9916"/>
<polygon fill="#191970" stroke="#191970" points="880.2987,-248.5656 870.8856,-243.703 875.2119,-253.3744 880.2987,-248.5656"/>
</g>
<!-- Node38&#45;&gt;Node28 -->
<g id="edge91" class="edge">
<title>Node38&#45;&gt;Node28</title>
<path fill="none" stroke="#191970" d="M1053.6521,-352.9566C1075.0165,-344.1913 1105.4777,-329.7292 1128,-311 1168.977,-276.924 1203.8717,-223.848 1220.534,-196.1744"/>
<polygon fill="#191970" stroke="#191970" points="1223.5748,-197.9083 1225.6473,-187.5181 1217.5478,-194.348 1223.5748,-197.9083"/>
</g>
<!-- Node38&#45;&gt;Node34 -->
<g id="edge89" class="edge">
<title>Node38&#45;&gt;Node34</title>
<path fill="none" stroke="#191970" d="M970.5457,-352.9717C897.0545,-340.7838 769.9595,-319.7062 691.8046,-306.7448"/>
<polygon fill="#191970" stroke="#191970" points="692.0207,-303.2329 681.5828,-305.0496 690.8754,-310.1386 692.0207,-303.2329"/>
</g>
<!-- Node39&#45;&gt;Node1 -->
<g id="edge96" class="edge">
<title>Node39&#45;&gt;Node1</title>
<path fill="none" stroke="#191970" d="M1047.1462,-280.4811C1020.9808,-264.5607 977.33,-239.6064 937,-224 833.5527,-183.9693 758.8687,-228.9637 705,-132 692.2112,-108.9802 719.9747,-90.8444 746.4104,-79.4559"/>
<polygon fill="#191970" stroke="#191970" points="748.0563,-82.5656 756.0122,-75.5689 745.4295,-76.0771 748.0563,-82.5656"/>
</g>
<!-- Node39&#45;&gt;Node11 -->
<g id="edge95" class="edge">
<title>Node39&#45;&gt;Node11</title>
<path fill="none" stroke="#191970" d="M1072.1449,-280.3612C1073.929,-265.0212 1078.4718,-241.1672 1090,-224 1112.9935,-189.7592 1125.8438,-183.6603 1164,-168 1277.2189,-121.5321 1319.6292,-166.6682 1437,-132 1442.7127,-130.3126 1507.9543,-98.9311 1546.9907,-80.0569"/>
<polygon fill="#191970" stroke="#191970" points="1548.821,-83.0595 1556.2984,-75.5536 1545.7722,-76.7583 1548.821,-83.0595"/>
</g>
<!-- Node39&#45;&gt;Node16 -->
<g id="edge97" class="edge">
<title>Node39&#45;&gt;Node16</title>
<path fill="none" stroke="#191970" d="M1022.7888,-281.3134C986.9099,-270.7558 938.4127,-256.4851 904.0905,-246.3855"/>
<polygon fill="#191970" stroke="#191970" points="904.9479,-242.9895 894.3666,-243.5241 902.9718,-249.7048 904.9479,-242.9895"/>
</g>
<!-- Node39&#45;&gt;Node18 -->
<g id="edge93" class="edge">
<title>Node39&#45;&gt;Node18</title>
<path fill="none" stroke="#191970" d="M1075.948,-280.2546C1081.6465,-264.607 1092.2904,-240.306 1108,-224 1116.7684,-214.8988 1195.0243,-172.0373 1207,-168 1319.2142,-130.1702 1353.7701,-148.7408 1471,-132 1484.9576,-130.0068 1500.5356,-127.6874 1513.1556,-125.7845"/>
<polygon fill="#191970" stroke="#191970" points="1514.006,-129.1957 1523.3693,-124.238 1512.958,-122.2746 1514.006,-129.1957"/>
</g>
<!-- Node39&#45;&gt;Node28 -->
<g id="edge94" class="edge">
<title>Node39&#45;&gt;Node28</title>
<path fill="none" stroke="#191970" d="M1081.146,-280.4447C1092.3466,-264.7262 1111.642,-240.1574 1133,-224 1145.1859,-214.7813 1181.4265,-198.7161 1206.2493,-188.2204"/>
<polygon fill="#191970" stroke="#191970" points="1207.8964,-191.3251 1215.7664,-184.2319 1205.1907,-184.8692 1207.8964,-191.3251"/>
</g>
<!-- Node47&#45;&gt;Node1 -->
<g id="edge99" class="edge">
<title>Node47&#45;&gt;Node1</title>
<path fill="none" stroke="#191970" d="M1213.8121,-347.2856C1194.8626,-302.7943 1133.0212,-172.2755 1037,-112 1005.8355,-92.437 909.4327,-78.894 845.5769,-71.7954"/>
<polygon fill="#191970" stroke="#191970" points="845.943,-68.3147 835.6228,-70.7115 845.1852,-75.2735 845.943,-68.3147"/>
</g>
<!-- Node47&#45;&gt;Node10 -->
<g id="edge104" class="edge">
<title>Node47&#45;&gt;Node10</title>
<path fill="none" stroke="#191970" d="M1248.5391,-347.4305C1311.763,-314.1654 1468.5916,-232.3058 1602,-168 1626.6111,-156.1369 1654.9449,-143.3029 1675.3269,-134.2131"/>
<polygon fill="#191970" stroke="#191970" points="1676.9264,-137.3324 1684.6427,-130.0723 1674.0831,-130.9358 1676.9264,-137.3324"/>
</g>
<!-- Node47&#45;&gt;Node11 -->
<g id="edge102" class="edge">
<title>Node47&#45;&gt;Node11</title>
<path fill="none" stroke="#191970" d="M1226.4749,-347.296C1242.8074,-310.7623 1289.2636,-217.4148 1357,-168 1400.2672,-136.4359 1423.418,-154.5419 1472,-132 1502.4156,-117.8873 1534.5875,-96.303 1554.9542,-81.6939"/>
<polygon fill="#191970" stroke="#191970" points="1557.1482,-84.426 1563.1764,-75.7133 1553.0306,-78.7651 1557.1482,-84.426"/>
</g>
<!-- Node47&#45;&gt;Node16 -->
<g id="edge100" class="edge">
<title>Node47&#45;&gt;Node16</title>
<path fill="none" stroke="#191970" d="M1159.428,-351.0913C1117.8039,-342.352 1061.6666,-328.7754 1014,-311 967.2304,-293.5591 916.0781,-265.6568 886.6401,-248.6613"/>
<polygon fill="#191970" stroke="#191970" points="888.2803,-245.5662 877.8784,-243.5536 884.7549,-251.6136 888.2803,-245.5662"/>
</g>
<!-- Node47&#45;&gt;Node28 -->
<g id="edge103" class="edge">
<title>Node47&#45;&gt;Node28</title>
<path fill="none" stroke="#191970" d="M1220.9002,-347.4016C1222.8811,-314.1761 1227.617,-234.7418 1229.827,-197.6748"/>
<polygon fill="#191970" stroke="#191970" points="1233.3244,-197.8201 1230.4259,-187.6295 1226.3368,-197.4034 1233.3244,-197.8201"/>
</g>
<!-- Node47&#45;&gt;Node36 -->
<g id="edge101" class="edge">
<title>Node47&#45;&gt;Node36</title>
<path fill="none" stroke="#191970" d="M1159.4284,-351.7353C1088.307,-339.0957 971.1814,-318.2802 901.1322,-305.8312"/>
<polygon fill="#191970" stroke="#191970" points="901.6079,-302.361 891.1497,-304.0571 900.383,-309.253 901.6079,-302.361"/>
</g>
<!-- Node46&#45;&gt;Node1 -->
<g id="edge106" class="edge">
<title>Node46&#45;&gt;Node1</title>
<path fill="none" stroke="#191970" d="M481.4538,-280.3934C483.3833,-245.0342 493.3994,-156.5237 545,-112 571.5778,-89.0673 663.8348,-76.5961 726.1791,-70.6217"/>
<polygon fill="#191970" stroke="#191970" points="726.6625,-74.092 736.2967,-69.6837 726.0162,-67.1219 726.6625,-74.092"/>
</g>
<!-- Node46&#45;&gt;Node16 -->
<g id="edge107" class="edge">
<title>Node46&#45;&gt;Node16</title>
<path fill="none" stroke="#191970" d="M529.1007,-281.9678C532.1029,-281.2636 535.0872,-280.6004 538,-280 621.8496,-262.7171 719.247,-249.8424 785.1906,-242.1745"/>
<polygon fill="#191970" stroke="#191970" points="785.9629,-245.6089 795.4972,-240.9887 785.1627,-238.6547 785.9629,-245.6089"/>
</g>
<!-- Node50&#45;&gt;Node1 -->
<g id="edge109" class="edge">
<title>Node50&#45;&gt;Node1</title>
<path fill="none" stroke="#191970" d="M1642.3195,-280.3346C1637.4026,-244.0436 1619.4749,-152.2329 1561,-112 1531.6555,-91.8099 1022.2267,-73.5951 845.6667,-67.8627"/>
<polygon fill="#191970" stroke="#191970" points="845.6257,-64.3596 835.518,-67.5351 845.3998,-71.356 845.6257,-64.3596"/>
</g>
<!-- Node50&#45;&gt;Node10 -->
<g id="edge112" class="edge">
<title>Node50&#45;&gt;Node10</title>
<path fill="none" stroke="#191970" d="M1648.1161,-280.3386C1652.1427,-265.799 1658.5885,-243.2734 1665,-224 1674.702,-194.8352 1687.415,-161.5562 1695.3966,-141.1635"/>
<polygon fill="#191970" stroke="#191970" points="1698.6904,-142.3512 1699.0981,-131.7642 1692.1773,-139.7862 1698.6904,-142.3512"/>
</g>
<!-- Node50&#45;&gt;Node11 -->
<g id="edge111" class="edge">
<title>Node50&#45;&gt;Node11</title>
<path fill="none" stroke="#191970" d="M1655.2406,-280.2796C1683.1036,-241.6818 1751.5965,-140.9903 1730,-112 1715.2402,-92.1871 1647.211,-77.7738 1606.6719,-70.7704"/>
<polygon fill="#191970" stroke="#191970" points="1607.2042,-67.3109 1596.7635,-69.1112 1606.0481,-74.2147 1607.2042,-67.3109"/>
</g>
<!-- Node50&#45;&gt;Node12 -->
<g id="edge114" class="edge">
<title>Node50&#45;&gt;Node12</title>
<path fill="none" stroke="#191970" d="M1695.231,-284.9977C1757.0739,-272.3198 1859.2384,-251.3761 1911.3032,-240.7028"/>
<polygon fill="#191970" stroke="#191970" points="1912.2277,-244.0862 1921.3211,-238.6492 1910.8219,-237.2288 1912.2277,-244.0862"/>
</g>
<!-- Node50&#45;&gt;Node13 -->
<g id="edge115" class="edge">
<title>Node50&#45;&gt;Node13</title>
<path fill="none" stroke="#191970" d="M1665.0112,-280.2977C1677.7934,-271.0495 1694.0946,-259.2551 1707.0448,-249.8853"/>
<polygon fill="#191970" stroke="#191970" points="1709.3403,-252.5445 1715.3904,-243.8469 1705.237,-246.8732 1709.3403,-252.5445"/>
</g>
<!-- Node50&#45;&gt;Node16 -->
<g id="edge110" class="edge">
<title>Node50&#45;&gt;Node16</title>
<path fill="none" stroke="#191970" d="M1592.9924,-291.4885C1459.262,-280.9714 1097.9003,-252.5523 938.8798,-240.0462"/>
<polygon fill="#191970" stroke="#191970" points="938.9462,-236.5407 928.7026,-239.2458 938.3973,-243.5191 938.9462,-236.5407"/>
</g>
<!-- Node50&#45;&gt;Node18 -->
<g id="edge113" class="edge">
<title>Node50&#45;&gt;Node18</title>
<path fill="none" stroke="#191970" d="M1624.3159,-280.4186C1612.8967,-270.9137 1598.8679,-257.8497 1589,-244 1565.792,-211.4273 1550.552,-166.686 1543.1834,-141.4242"/>
<polygon fill="#191970" stroke="#191970" points="1546.4968,-140.2768 1540.429,-131.5917 1539.7563,-142.1651 1546.4968,-140.2768"/>
</g>
<!-- Node52&#45;&gt;Node1 -->
<g id="edge123" class="edge">
<title>Node52&#45;&gt;Node1</title>
<path fill="none" stroke="#191970" d="M294.3708,-224.2828C306.8945,-196.6348 342.6709,-119.0662 353,-112 383.1389,-91.3818 614.4452,-75.6828 726.0846,-69.2227"/>
<polygon fill="#191970" stroke="#191970" points="726.397,-72.7106 736.1806,-68.6448 725.9969,-65.7221 726.397,-72.7106"/>
</g>
<!-- Node52&#45;&gt;Node11 -->
<g id="edge122" class="edge">
<title>Node52&#45;&gt;Node11</title>
<path fill="none" stroke="#191970" d="M339.1479,-226.7831C458.4214,-209.0107 760.5569,-162.373 858,-132 878.5078,-125.6077 881.173,-117.26 902,-112 1026.3452,-80.5955 1430.1192,-69.277 1545.1559,-66.6451"/>
<polygon fill="#191970" stroke="#191970" points="1545.4486,-70.1395 1555.368,-66.4172 1545.2924,-63.1413 1545.4486,-70.1395"/>
</g>
<!-- Node52&#45;&gt;Node18 -->
<g id="edge121" class="edge">
<title>Node52&#45;&gt;Node18</title>
<path fill="none" stroke="#191970" d="M339.0787,-231.476C447.7069,-225.6825 716.6234,-210.2011 941,-188 1010.9998,-181.0738 1028.1265,-176.102 1098,-168 1179.6108,-158.5371 1432.1071,-132.7647 1512.8775,-124.551"/>
<polygon fill="#191970" stroke="#191970" points="1513.5044,-128.0055 1523.0992,-123.5121 1512.7965,-121.0413 1513.5044,-128.0055"/>
</g>
<!-- Node52&#45;&gt;Node28 -->
<g id="edge120" class="edge">
<title>Node52&#45;&gt;Node28</title>
<path fill="none" stroke="#191970" d="M339.2674,-231.068C510.8776,-220.8553 1078.816,-187.0566 1205.7079,-179.5052"/>
<polygon fill="#191970" stroke="#191970" points="1206.1944,-182.9825 1215.9688,-178.8945 1205.7785,-175.9949 1206.1944,-182.9825"/>
</g>
<!-- Node53 -->
<g id="node43" class="node">
<title>Node53</title>
<polygon fill="#ffffff" stroke="#bfbfbf" points="28.5,-168.5 28.5,-187.5 163.5,-187.5 163.5,-168.5 28.5,-168.5"/>
<text text-anchor="middle" x="96" y="-175.5" font-family="Helvetica,sans-Serif" font-size="10.00" fill="#000000">xercesc/util/XMLString.hpp</text>
</g>
<!-- Node52&#45;&gt;Node53 -->
<g id="edge124" class="edge">
<title>Node52&#45;&gt;Node53</title>
<path fill="none" stroke="#191970" d="M256.6502,-224.3733C223.972,-214.9404 174.0382,-200.5265 138.523,-190.2747"/>
<polygon fill="#191970" stroke="#191970" points="139.493,-186.9119 128.9146,-187.5011 137.5516,-193.6373 139.493,-186.9119"/>
</g>
<!-- Node54 -->
<g id="node44" class="node">
<title>Node54</title>
<polygon fill="#ffffff" stroke="#bfbfbf" points="181.5,-168.5 181.5,-187.5 300.5,-187.5 300.5,-168.5 181.5,-168.5"/>
<text text-anchor="middle" x="241" y="-175.5" font-family="Helvetica,sans-Serif" font-size="10.00" fill="#000000">xercesc/dom/DOM.hpp</text>
</g>
<!-- Node52&#45;&gt;Node54 -->
<g id="edge125" class="edge">
<title>Node52&#45;&gt;Node54</title>
<path fill="none" stroke="#191970" d="M281.4649,-224.2455C274.5088,-216.2958 264.5117,-204.8706 256.1949,-195.3656"/>
<polygon fill="#191970" stroke="#191970" points="258.6564,-192.8637 249.4373,-187.6427 253.3884,-197.4732 258.6564,-192.8637"/>
</g>
</g>
</svg>
