<?xml version="1.0" encoding="UTF-8" standalone="no"?>
<!DOCTYPE svg PUBLIC "-//W3C//DTD SVG 1.1//EN"
 "http://www.w3.org/Graphics/SVG/1.1/DTD/svg11.dtd">
<!-- Generated by graphviz version 2.40.1 (20161225.0304)
 -->
<!-- Title: messages/Blob.cpp Pages: 1 -->
<svg width="672pt" height="196pt"
 viewBox="0.00 0.00 671.50 196.00" xmlns="http://www.w3.org/2000/svg" xmlns:xlink="http://www.w3.org/1999/xlink">
<g id="graph0" class="graph" transform="scale(1 1) rotate(0) translate(4 192)">
<title>messages/Blob.cpp</title>
<polygon fill="#ffffff" stroke="transparent" points="-4,4 -4,-192 667.5,-192 667.5,4 -4,4"/>
<!-- Node0 -->
<g id="node1" class="node">
<title>Node0</title>
<polygon fill="#bfbfbf" stroke="#000000" points="211.5,-168.5 211.5,-187.5 315.5,-187.5 315.5,-168.5 211.5,-168.5"/>
<text text-anchor="middle" x="263.5" y="-175.5" font-family="Helvetica,sans-Serif" font-size="10.00" fill="#000000">messages/Blob.cpp</text>
</g>
<!-- Node1 -->
<g id="node2" class="node">
<title>Node1</title>
<g id="a_node2"><a xlink:href="_blob_8h.html" target="_top" xlink:title="uscxml/messages/Blob.h">
<polygon fill="#ffffff" stroke="#000000" points="39,-112.5 39,-131.5 166,-131.5 166,-112.5 39,-112.5"/>
<text text-anchor="middle" x="102.5" y="-119.5" font-family="Helvetica,sans-Serif" font-size="10.00" fill="#000000">uscxml/messages/Blob.h</text>
</a>
</g>
</g>
<!-- Node0&#45;&gt;Node1 -->
<g id="edge1" class="edge">
<title>Node0&#45;&gt;Node1</title>
<path fill="none" stroke="#191970" d="M235.8231,-168.3733C209.1672,-159.1016 168.6762,-145.0178 139.3116,-134.804"/>
<polygon fill="#191970" stroke="#191970" points="140.4105,-131.4807 129.8157,-131.5011 138.1109,-138.0921 140.4105,-131.4807"/>
</g>
<!-- Node7 -->
<g id="node8" class="node">
<title>Node7</title>
<g id="a_node8"><a xlink:href="_m_d5_8hpp.html" target="_top" xlink:title="uscxml/util/MD5.hpp">
<polygon fill="#ffffff" stroke="#000000" points="417,-112.5 417,-131.5 524,-131.5 524,-112.5 417,-112.5"/>
<text text-anchor="middle" x="470.5" y="-119.5" font-family="Helvetica,sans-Serif" font-size="10.00" fill="#000000">uscxml/util/MD5.hpp</text>
</a>
</g>
</g>
<!-- Node0&#45;&gt;Node7 -->
<g id="edge7" class="edge">
<title>Node0&#45;&gt;Node7</title>
<path fill="none" stroke="#191970" d="M299.0846,-168.3733C334.1016,-158.9001 387.6881,-144.4032 425.6125,-134.1435"/>
<polygon fill="#191970" stroke="#191970" points="426.6408,-137.4912 435.3798,-131.5011 424.8127,-130.7341 426.6408,-137.4912"/>
</g>
<!-- Node13 -->
<g id="node14" class="node">
<title>Node13</title>
<g id="a_node14"><a xlink:href="_base64_8hpp_source.html" target="_top" xlink:title="uscxml/util/Base64.hpp">
<polygon fill="#ffffff" stroke="#000000" points="204,-112.5 204,-131.5 323,-131.5 323,-112.5 204,-112.5"/>
<text text-anchor="middle" x="263.5" y="-119.5" font-family="Helvetica,sans-Serif" font-size="10.00" fill="#000000">uscxml/util/Base64.hpp</text>
</a>
</g>
</g>
<!-- Node0&#45;&gt;Node13 -->
<g id="edge15" class="edge">
<title>Node0&#45;&gt;Node13</title>
<path fill="none" stroke="#191970" d="M263.5,-168.2455C263.5,-160.9382 263.5,-150.6944 263.5,-141.7046"/>
<polygon fill="#191970" stroke="#191970" points="267.0001,-141.6426 263.5,-131.6427 260.0001,-141.6427 267.0001,-141.6426"/>
</g>
<!-- Node2 -->
<g id="node3" class="node">
<title>Node2</title>
<polygon fill="#ffffff" stroke="#bfbfbf" points="361,-.5 361,-19.5 402,-19.5 402,-.5 361,-.5"/>
<text text-anchor="middle" x="381.5" y="-7.5" font-family="Helvetica,sans-Serif" font-size="10.00" fill="#000000">string</text>
</g>
<!-- Node1&#45;&gt;Node2 -->
<g id="edge2" class="edge">
<title>Node1&#45;&gt;Node2</title>
<path fill="none" stroke="#191970" d="M98.5131,-112.135C93.4882,-97.9082 87.0254,-71.6274 100.5,-56 136.0042,-14.8235 289.2071,-30.7664 342.5,-20 345.3262,-19.429 348.2542,-18.7824 351.1779,-18.0994"/>
<polygon fill="#191970" stroke="#191970" points="352.0737,-21.4834 360.9467,-15.6937 350.3999,-14.6865 352.0737,-21.4834"/>
</g>
<!-- Node3 -->
<g id="node4" class="node">
<title>Node3</title>
<polygon fill="#ffffff" stroke="#bfbfbf" points="0,-56.5 0,-75.5 53,-75.5 53,-56.5 0,-56.5"/>
<text text-anchor="middle" x="26.5" y="-63.5" font-family="Helvetica,sans-Serif" font-size="10.00" fill="#000000">memory</text>
</g>
<!-- Node1&#45;&gt;Node3 -->
<g id="edge3" class="edge">
<title>Node1&#45;&gt;Node3</title>
<path fill="none" stroke="#191970" d="M89.2618,-112.2455C77.819,-103.814 61.0704,-91.4729 47.7525,-81.6598"/>
<polygon fill="#191970" stroke="#191970" points="49.7133,-78.757 39.5865,-75.6427 45.5609,-84.3924 49.7133,-78.757"/>
</g>
<!-- Node4 -->
<g id="node5" class="node">
<title>Node4</title>
<g id="a_node5"><a xlink:href="_common_8h.html" target="_top" xlink:title="uscxml/Common.h">
<polygon fill="#ffffff" stroke="#000000" points="254,-56.5 254,-75.5 353,-75.5 353,-56.5 254,-56.5"/>
<text text-anchor="middle" x="303.5" y="-63.5" font-family="Helvetica,sans-Serif" font-size="10.00" fill="#000000">uscxml/Common.h</text>
</a>
</g>
</g>
<!-- Node1&#45;&gt;Node4 -->
<g id="edge4" class="edge">
<title>Node1&#45;&gt;Node4</title>
<path fill="none" stroke="#191970" d="M137.0531,-112.3733C170.9104,-102.9404 222.646,-88.5265 259.4426,-78.2747"/>
<polygon fill="#191970" stroke="#191970" points="260.704,-81.5566 269.3978,-75.5011 258.8253,-74.8135 260.704,-81.5566"/>
</g>
<!-- Node5 -->
<g id="node6" class="node">
<title>Node5</title>
<polygon fill="#ffffff" stroke="#bfbfbf" points="199.5,-.5 199.5,-19.5 271.5,-19.5 271.5,-.5 199.5,-.5"/>
<text text-anchor="middle" x="235.5" y="-7.5" font-family="Helvetica,sans-Serif" font-size="10.00" fill="#000000">sys/socket.h</text>
</g>
<!-- Node4&#45;&gt;Node5 -->
<g id="edge5" class="edge">
<title>Node4&#45;&gt;Node5</title>
<path fill="none" stroke="#191970" d="M291.6553,-56.2455C281.612,-47.9746 267.0005,-35.9416 255.1996,-26.2232"/>
<polygon fill="#191970" stroke="#191970" points="257.1533,-23.298 247.209,-19.6427 252.7033,-28.7015 257.1533,-23.298"/>
</g>
<!-- Node6 -->
<g id="node7" class="node">
<title>Node6</title>
<polygon fill="#ffffff" stroke="#bfbfbf" points="289.5,-.5 289.5,-19.5 333.5,-19.5 333.5,-.5 289.5,-.5"/>
<text text-anchor="middle" x="311.5" y="-7.5" font-family="Helvetica,sans-Serif" font-size="10.00" fill="#000000">cmath</text>
</g>
<!-- Node4&#45;&gt;Node6 -->
<g id="edge6" class="edge">
<title>Node4&#45;&gt;Node6</title>
<path fill="none" stroke="#191970" d="M304.8935,-56.2455C305.9374,-48.9382 307.4008,-38.6944 308.6851,-29.7046"/>
<polygon fill="#191970" stroke="#191970" points="312.173,-30.0372 310.1225,-19.6427 305.2434,-29.0472 312.173,-30.0372"/>
</g>
<!-- Node7&#45;&gt;Node4 -->
<g id="edge14" class="edge">
<title>Node7&#45;&gt;Node4</title>
<path fill="none" stroke="#191970" d="M441.7917,-112.3733C414.1423,-103.1016 372.1424,-89.0178 341.6834,-78.804"/>
<polygon fill="#191970" stroke="#191970" points="342.4276,-75.3621 331.8337,-75.5011 340.2021,-81.9989 342.4276,-75.3621"/>
</g>
<!-- Node8 -->
<g id="node9" class="node">
<title>Node8</title>
<g id="a_node9"><a xlink:href="_m_d5_8h_source.html" target="_top" xlink:title="MD5.h">
<polygon fill="#ffffff" stroke="#000000" points="617.5,-56.5 617.5,-75.5 663.5,-75.5 663.5,-56.5 617.5,-56.5"/>
<text text-anchor="middle" x="640.5" y="-63.5" font-family="Helvetica,sans-Serif" font-size="10.00" fill="#000000">MD5.h</text>
</a>
</g>
</g>
<!-- Node7&#45;&gt;Node8 -->
<g id="edge8" class="edge">
<title>Node7&#45;&gt;Node8</title>
<path fill="none" stroke="#191970" d="M499.724,-112.3733C529.7914,-102.4687 576.5294,-87.0727 607.8075,-76.7693"/>
<polygon fill="#191970" stroke="#191970" points="608.9759,-80.0695 617.3788,-73.6164 606.7858,-73.4209 608.9759,-80.0695"/>
</g>
<!-- Node9 -->
<g id="node10" class="node">
<title>Node9</title>
<g id="a_node10"><a xlink:href="_string_8h.html" target="_top" xlink:title="string.h">
<polygon fill="#ffffff" stroke="#000000" points="550,-56.5 550,-75.5 599,-75.5 599,-56.5 550,-56.5"/>
<text text-anchor="middle" x="574.5" y="-63.5" font-family="Helvetica,sans-Serif" font-size="10.00" fill="#000000">string.h</text>
</a>
</g>
</g>
<!-- Node7&#45;&gt;Node9 -->
<g id="edge9" class="edge">
<title>Node7&#45;&gt;Node9</title>
<path fill="none" stroke="#191970" d="M488.6154,-112.2455C504.945,-103.4527 529.171,-90.4079 547.7339,-80.4125"/>
<polygon fill="#191970" stroke="#191970" points="549.4468,-83.4654 556.5922,-75.6427 546.1281,-77.3021 549.4468,-83.4654"/>
</g>
<!-- Node11 -->
<g id="node12" class="node">
<title>Node11</title>
<polygon fill="#ffffff" stroke="#bfbfbf" points="409.5,-56.5 409.5,-75.5 461.5,-75.5 461.5,-56.5 409.5,-56.5"/>
<text text-anchor="middle" x="435.5" y="-63.5" font-family="Helvetica,sans-Serif" font-size="10.00" fill="#000000">sstream</text>
</g>
<!-- Node7&#45;&gt;Node11 -->
<g id="edge12" class="edge">
<title>Node7&#45;&gt;Node11</title>
<path fill="none" stroke="#191970" d="M464.4035,-112.2455C459.5855,-104.5367 452.7249,-93.5598 446.8968,-84.2348"/>
<polygon fill="#191970" stroke="#191970" points="449.7947,-82.2677 441.5267,-75.6427 443.8587,-85.9777 449.7947,-82.2677"/>
</g>
<!-- Node12 -->
<g id="node13" class="node">
<title>Node12</title>
<polygon fill="#ffffff" stroke="#bfbfbf" points="479.5,-56.5 479.5,-75.5 531.5,-75.5 531.5,-56.5 479.5,-56.5"/>
<text text-anchor="middle" x="505.5" y="-63.5" font-family="Helvetica,sans-Serif" font-size="10.00" fill="#000000">iomanip</text>
</g>
<!-- Node7&#45;&gt;Node12 -->
<g id="edge13" class="edge">
<title>Node7&#45;&gt;Node12</title>
<path fill="none" stroke="#191970" d="M476.5965,-112.2455C481.4145,-104.5367 488.2751,-93.5598 494.1032,-84.2348"/>
<polygon fill="#191970" stroke="#191970" points="497.1413,-85.9777 499.4733,-75.6427 491.2053,-82.2677 497.1413,-85.9777"/>
</g>
<!-- Node9&#45;&gt;Node2 -->
<g id="edge10" class="edge">
<title>Node9&#45;&gt;Node2</title>
<path fill="none" stroke="#191970" d="M549.9898,-58.777C546.7979,-57.8406 543.5714,-56.896 540.5,-56 495.6937,-42.9295 443.7391,-27.9276 411.7433,-18.7065"/>
<polygon fill="#191970" stroke="#191970" points="412.6688,-15.3308 402.0907,-15.9255 410.7308,-22.0572 412.6688,-15.3308"/>
</g>
<!-- Node10 -->
<g id="node11" class="node">
<title>Node10</title>
<polygon fill="#ffffff" stroke="#bfbfbf" points="560,-.5 560,-19.5 589,-19.5 589,-.5 560,-.5"/>
<text text-anchor="middle" x="574.5" y="-7.5" font-family="Helvetica,sans-Serif" font-size="10.00" fill="#000000">list</text>
</g>
<!-- Node9&#45;&gt;Node10 -->
<g id="edge11" class="edge">
<title>Node9&#45;&gt;Node10</title>
<path fill="none" stroke="#191970" d="M574.5,-56.2455C574.5,-48.9382 574.5,-38.6944 574.5,-29.7046"/>
<polygon fill="#191970" stroke="#191970" points="578.0001,-29.6426 574.5,-19.6427 571.0001,-29.6427 578.0001,-29.6426"/>
</g>
<!-- Node13&#45;&gt;Node2 -->
<g id="edge18" class="edge">
<title>Node13&#45;&gt;Node2</title>
<path fill="none" stroke="#191970" d="M301.1794,-112.4831C321.6445,-105.5158 345.8852,-94.0537 361.5,-76 372.6243,-63.1382 377.5612,-44.2324 379.752,-29.9481"/>
<polygon fill="#191970" stroke="#191970" points="383.2669,-30.0335 380.9861,-19.6871 376.317,-29.1976 383.2669,-30.0335"/>
</g>
<!-- Node13&#45;&gt;Node4 -->
<g id="edge19" class="edge">
<title>Node13&#45;&gt;Node4</title>
<path fill="none" stroke="#191970" d="M270.4675,-112.2455C276.0311,-104.4564 283.978,-93.3308 290.6829,-83.9439"/>
<polygon fill="#191970" stroke="#191970" points="293.648,-85.8144 296.6124,-75.6427 287.9519,-81.7457 293.648,-85.8144"/>
</g>
<!-- Node14 -->
<g id="node15" class="node">
<title>Node14</title>
<g id="a_node15"><a xlink:href="_base64_8h_source.html" target="_top" xlink:title="Base64.h">
<polygon fill="#ffffff" stroke="#000000" points="110,-56.5 110,-75.5 169,-75.5 169,-56.5 110,-56.5"/>
<text text-anchor="middle" x="139.5" y="-63.5" font-family="Helvetica,sans-Serif" font-size="10.00" fill="#000000">Base64.h</text>
</a>
</g>
</g>
<!-- Node13&#45;&gt;Node14 -->
<g id="edge16" class="edge">
<title>Node13&#45;&gt;Node14</title>
<path fill="none" stroke="#191970" d="M242.1836,-112.3733C222.2784,-103.3838 192.3564,-89.8706 169.94,-79.7471"/>
<polygon fill="#191970" stroke="#191970" points="171.0925,-76.4272 160.5382,-75.5011 168.2113,-82.8068 171.0925,-76.4272"/>
</g>
<!-- Node15 -->
<g id="node16" class="node">
<title>Node15</title>
<polygon fill="#ffffff" stroke="#bfbfbf" points="187.5,-56.5 187.5,-75.5 235.5,-75.5 235.5,-56.5 187.5,-56.5"/>
<text text-anchor="middle" x="211.5" y="-63.5" font-family="Helvetica,sans-Serif" font-size="10.00" fill="#000000">stdlib.h</text>
</g>
<!-- Node13&#45;&gt;Node15 -->
<g id="edge17" class="edge">
<title>Node13&#45;&gt;Node15</title>
<path fill="none" stroke="#191970" d="M254.4423,-112.2455C246.9858,-104.2155 236.2366,-92.6394 227.3583,-83.0781"/>
<polygon fill="#191970" stroke="#191970" points="229.8232,-80.589 220.4539,-75.6427 224.6937,-85.3522 229.8232,-80.589"/>
</g>
</g>
</svg>
