<?xml version="1.0" encoding="UTF-8" standalone="no"?>
<!DOCTYPE svg PUBLIC "-//W3C//DTD SVG 1.1//EN"
 "http://www.w3.org/Graphics/SVG/1.1/DTD/svg11.dtd">
<!-- Generated by graphviz version 2.40.1 (20161225.0304)
 -->
<!-- Title: debug/Breakpoint.h Pages: 1 -->
<svg width="430pt" height="196pt"
 viewBox="0.00 0.00 429.74 196.00" xmlns="http://www.w3.org/2000/svg" xmlns:xlink="http://www.w3.org/1999/xlink">
<g id="graph0" class="graph" transform="scale(1 1) rotate(0) translate(4 192)">
<title>debug/Breakpoint.h</title>
<polygon fill="#ffffff" stroke="transparent" points="-4,4 -4,-192 425.7421,-192 425.7421,4 -4,4"/>
<!-- Node1 -->
<g id="node1" class="node">
<title>Node1</title>
<polygon fill="#bfbfbf" stroke="#000000" points="154.5,-168.5 154.5,-187.5 257.5,-187.5 257.5,-168.5 154.5,-168.5"/>
<text text-anchor="middle" x="206" y="-175.5" font-family="Helvetica,sans-Serif" font-size="10.00" fill="#000000">debug/Breakpoint.h</text>
</g>
<!-- Node2 -->
<g id="node2" class="node">
<title>Node2</title>
<g id="a_node2"><a xlink:href="$_breakpoint_8cpp.html" xlink:title="debug/Breakpoint.cpp">
<polygon fill="#ffffff" stroke="#000000" points="24,-112.5 24,-131.5 138,-131.5 138,-112.5 24,-112.5"/>
<text text-anchor="middle" x="81" y="-119.5" font-family="Helvetica,sans-Serif" font-size="10.00" fill="#000000">debug/Breakpoint.cpp</text>
</a>
</g>
</g>
<!-- Node1&#45;&gt;Node2 -->
<g id="edge1" class="edge">
<title>Node1&#45;&gt;Node2</title>
<path fill="none" stroke="#191970" d="M175.302,-164.2473C152.6007,-154.0771 122.2685,-140.4883 102.2079,-131.5011"/>
<polygon fill="#191970" stroke="#191970" points="173.9547,-167.4789 184.5117,-168.3733 176.8167,-161.0906 173.9547,-167.4789"/>
</g>
<!-- Node3 -->
<g id="node3" class="node">
<title>Node3</title>
<g id="a_node3"><a xlink:href="$_debugger_8h.html" xlink:title="debug/Debugger.h">
<polygon fill="#ffffff" stroke="#000000" points="156.5,-112.5 156.5,-131.5 255.5,-131.5 255.5,-112.5 156.5,-112.5"/>
<text text-anchor="middle" x="206" y="-119.5" font-family="Helvetica,sans-Serif" font-size="10.00" fill="#000000">debug/Debugger.h</text>
</a>
</g>
</g>
<!-- Node1&#45;&gt;Node3 -->
<g id="edge2" class="edge">
<title>Node1&#45;&gt;Node3</title>
<path fill="none" stroke="#191970" d="M206,-158.1575C206,-149.155 206,-138.9199 206,-131.6427"/>
<polygon fill="#191970" stroke="#191970" points="202.5001,-158.2455 206,-168.2455 209.5001,-158.2456 202.5001,-158.2455"/>
</g>
<!-- Node8 -->
<g id="node8" class="node">
<title>Node8</title>
<g id="a_node8"><a xlink:href="$_debug_session_8h.html" xlink:title="debug/DebugSession.h">
<polygon fill="#ffffff" stroke="#000000" points="279,-112.5 279,-131.5 399,-131.5 399,-112.5 279,-112.5"/>
<text text-anchor="middle" x="339" y="-119.5" font-family="Helvetica,sans-Serif" font-size="10.00" fill="#000000">debug/DebugSession.h</text>
</a>
</g>
</g>
<!-- Node1&#45;&gt;Node8 -->
<g id="edge7" class="edge">
<title>Node1&#45;&gt;Node8</title>
<path fill="none" stroke="#191970" d="M238.3397,-164.3833C262.5285,-154.1985 294.995,-140.5284 316.4348,-131.5011"/>
<polygon fill="#191970" stroke="#191970" points="236.7217,-161.2669 228.8635,-168.3733 239.4381,-167.7184 236.7217,-161.2669"/>
</g>
<!-- Node4 -->
<g id="node4" class="node">
<title>Node4</title>
<g id="a_node4"><a xlink:href="$_debugger_8cpp.html" xlink:title="debug/Debugger.cpp">
<polygon fill="#ffffff" stroke="#000000" points="148,-56.5 148,-75.5 258,-75.5 258,-56.5 148,-56.5"/>
<text text-anchor="middle" x="203" y="-63.5" font-family="Helvetica,sans-Serif" font-size="10.00" fill="#000000">debug/Debugger.cpp</text>
</a>
</g>
</g>
<!-- Node3&#45;&gt;Node4 -->
<g id="edge3" class="edge">
<title>Node3&#45;&gt;Node4</title>
<path fill="none" stroke="#191970" d="M204.937,-102.1575C204.4547,-93.155 203.9064,-82.9199 203.5166,-75.6427"/>
<polygon fill="#191970" stroke="#191970" points="201.4474,-102.4471 205.4774,-112.2455 208.4374,-102.0726 201.4474,-102.4471"/>
</g>
<!-- Node5 -->
<g id="node5" class="node">
<title>Node5</title>
<g id="a_node5"><a xlink:href="$_debugger_servlet_8h.html" xlink:title="debug/DebuggerServlet.h">
<polygon fill="#ffffff" stroke="#000000" points="0,-56.5 0,-75.5 130,-75.5 130,-56.5 0,-56.5"/>
<text text-anchor="middle" x="65" y="-63.5" font-family="Helvetica,sans-Serif" font-size="10.00" fill="#000000">debug/DebuggerServlet.h</text>
</a>
</g>
</g>
<!-- Node3&#45;&gt;Node5 -->
<g id="edge4" class="edge">
<title>Node3&#45;&gt;Node5</title>
<path fill="none" stroke="#191970" d="M172.3968,-108.6541C146.6841,-98.4419 111.8539,-84.6086 88.9225,-75.5011"/>
<polygon fill="#191970" stroke="#191970" points="171.1755,-111.9349 181.7612,-112.3733 173.7593,-105.4292 171.1755,-111.9349"/>
</g>
<!-- Node7 -->
<g id="node7" class="node">
<title>Node7</title>
<g id="a_node7"><a xlink:href="$_debug_session_8cpp.html" xlink:title="debug/DebugSession.cpp">
<polygon fill="#ffffff" stroke="#000000" points="276.5,-56.5 276.5,-75.5 407.5,-75.5 407.5,-56.5 276.5,-56.5"/>
<text text-anchor="middle" x="342" y="-63.5" font-family="Helvetica,sans-Serif" font-size="10.00" fill="#000000">debug/DebugSession.cpp</text>
</a>
</g>
</g>
<!-- Node3&#45;&gt;Node7 -->
<g id="edge6" class="edge">
<title>Node3&#45;&gt;Node7</title>
<path fill="none" stroke="#191970" d="M238.7399,-108.5189C263.5083,-98.3201 296.905,-84.5685 318.9258,-75.5011"/>
<polygon fill="#191970" stroke="#191970" points="237.2934,-105.3293 229.3792,-112.3733 239.9587,-111.8021 237.2934,-105.3293"/>
</g>
<!-- Node6 -->
<g id="node6" class="node">
<title>Node6</title>
<g id="a_node6"><a xlink:href="$_debugger_servlet_8cpp.html" xlink:title="debug/DebuggerServlet.cpp">
<polygon fill="#ffffff" stroke="#000000" points="179.5,-.5 179.5,-19.5 320.5,-19.5 320.5,-.5 179.5,-.5"/>
<text text-anchor="middle" x="250" y="-7.5" font-family="Helvetica,sans-Serif" font-size="10.00" fill="#000000">debug/DebuggerServlet.cpp</text>
</a>
</g>
</g>
<!-- Node5&#45;&gt;Node6 -->
<g id="edge5" class="edge">
<title>Node5&#45;&gt;Node6</title>
<path fill="none" stroke="#191970" d="M106.4397,-53.4561C140.3991,-43.1765 187.7297,-28.8494 218.6124,-19.5011"/>
<polygon fill="#191970" stroke="#191970" points="105.3597,-50.1261 96.8026,-56.3733 107.3878,-56.8259 105.3597,-50.1261"/>
</g>
<!-- Node8&#45;&gt;Node4 -->
<g id="edge8" class="edge">
<title>Node8&#45;&gt;Node4</title>
<path fill="none" stroke="#191970" d="M306.2601,-108.5189C281.4917,-98.3201 248.095,-84.5685 226.0742,-75.5011"/>
<polygon fill="#191970" stroke="#191970" points="305.0413,-111.8021 315.6208,-112.3733 307.7066,-105.3293 305.0413,-111.8021"/>
</g>
<!-- Node8&#45;&gt;Node6 -->
<g id="edge9" class="edge">
<title>Node8&#45;&gt;Node6</title>
<path fill="none" stroke="#191970" d="M375.9411,-108.4869C403.2857,-96.3724 433.2027,-77.2691 417,-56 404.2889,-39.3143 355.842,-27.1542 314.3801,-19.5421"/>
<polygon fill="#191970" stroke="#191970" points="374.3193,-105.3719 366.4561,-112.4726 377.0311,-111.8253 374.3193,-105.3719"/>
</g>
<!-- Node8&#45;&gt;Node7 -->
<g id="edge10" class="edge">
<title>Node8&#45;&gt;Node7</title>
<path fill="none" stroke="#191970" d="M340.063,-102.1575C340.5453,-93.155 341.0936,-82.9199 341.4834,-75.6427"/>
<polygon fill="#191970" stroke="#191970" points="336.5626,-102.0726 339.5226,-112.2455 343.5526,-102.4471 336.5626,-102.0726"/>
</g>
</g>
</svg>
