<?xml version="1.0" encoding="UTF-8" standalone="no"?>
<!DOCTYPE svg PUBLIC "-//W3C//DTD SVG 1.1//EN"
 "http://www.w3.org/Graphics/SVG/1.1/DTD/svg11.dtd">
<!-- Generated by graphviz version 2.40.1 (20161225.0304)
 -->
<!-- Title: debug/Breakpoint.cpp Pages: 1 -->
<svg width="3315pt" height="598pt"
 viewBox="0.00 0.00 3315.47 598.00" xmlns="http://www.w3.org/2000/svg" xmlns:xlink="http://www.w3.org/1999/xlink">
<g id="graph0" class="graph" transform="scale(1 1) rotate(0) translate(4 594)">
<title>debug/Breakpoint.cpp</title>
<polygon fill="#ffffff" stroke="transparent" points="-4,4 -4,-594 3311.4723,-594 3311.4723,4 -4,4"/>
<!-- Node1 -->
<g id="node1" class="node">
<title>Node1</title>
<polygon fill="#bfbfbf" stroke="#000000" points="2092.4723,-570.5 2092.4723,-589.5 2206.4723,-589.5 2206.4723,-570.5 2092.4723,-570.5"/>
<text text-anchor="middle" x="2149.4723" y="-577.5" font-family="Helvetica,sans-Serif" font-size="10.00" fill="#000000">debug/Breakpoint.cpp</text>
</g>
<!-- Node2 -->
<g id="node2" class="node">
<title>Node2</title>
<g id="a_node2"><a xlink:href="$_breakpoint_8h.html" xlink:title="uscxml/debug/Breakpoint.h">
<polygon fill="#ffffff" stroke="#000000" points="2.9723,-442 2.9723,-461 139.9723,-461 139.9723,-442 2.9723,-442"/>
<text text-anchor="middle" x="71.4723" y="-449" font-family="Helvetica,sans-Serif" font-size="10.00" fill="#000000">uscxml/debug/Breakpoint.h</text>
</a>
</g>
</g>
<!-- Node1&#45;&gt;Node2 -->
<g id="edge1" class="edge">
<title>Node1&#45;&gt;Node2</title>
<path fill="none" stroke="#191970" d="M2092.4469,-579.8748C1775.9187,-579.0303 245.8832,-572.9408 154.4723,-534 123.1884,-520.6731 97.3336,-489.5093 83.1806,-469.5275"/>
<polygon fill="#191970" stroke="#191970" points="86.0515,-467.5251 77.5239,-461.2378 80.2694,-471.4708 86.0515,-467.5251"/>
</g>
<!-- Node7 -->
<g id="node7" class="node">
<title>Node7</title>
<g id="a_node7"><a xlink:href="$_interpreter_8h.html" xlink:title="uscxml/Interpreter.h">
<polygon fill="#ffffff" stroke="#000000" points="648.9723,-375 648.9723,-394 753.9723,-394 753.9723,-375 648.9723,-375"/>
<text text-anchor="middle" x="701.4723" y="-382" font-family="Helvetica,sans-Serif" font-size="10.00" fill="#000000">uscxml/Interpreter.h</text>
</a>
</g>
</g>
<!-- Node1&#45;&gt;Node7 -->
<g id="edge67" class="edge">
<title>Node1&#45;&gt;Node7</title>
<path fill="none" stroke="#191970" d="M2092.2267,-576.6077C1882.6336,-563.8897 1157.5798,-517.1954 931.4723,-467 857.7047,-450.6237 775.2403,-417.0953 731.8953,-398.212"/>
<polygon fill="#191970" stroke="#191970" points="733.0639,-394.9025 722.501,-394.0809 730.2461,-401.3103 733.0639,-394.9025"/>
</g>
<!-- Node25 -->
<g id="node25" class="node">
<title>Node25</title>
<g id="a_node25"><a xlink:href="$_string_8h.html" xlink:title="string.h">
<polygon fill="#ffffff" stroke="#000000" points="2459.9723,-174 2459.9723,-193 2508.9723,-193 2508.9723,-174 2459.9723,-174"/>
<text text-anchor="middle" x="2484.4723" y="-181" font-family="Helvetica,sans-Serif" font-size="10.00" fill="#000000">string.h</text>
</a>
</g>
</g>
<!-- Node1&#45;&gt;Node25 -->
<g id="edge157" class="edge">
<title>Node1&#45;&gt;Node25</title>
<path fill="none" stroke="#191970" d="M2206.7206,-576.9102C2390.6301,-566.2301 2954.4723,-527.305 2954.4723,-451.5 2954.4723,-451.5 2954.4723,-451.5 2954.4723,-317.5 2954.4723,-267.0399 2921.7703,-257.2331 2876.4723,-235 2731.3299,-163.7615 2669.4954,-244.9246 2514.4723,-199 2512.8106,-198.5077 2511.1326,-197.9225 2509.4643,-197.2722"/>
<polygon fill="#191970" stroke="#191970" points="2510.7448,-194.0092 2500.195,-193.033 2507.8334,-200.3751 2510.7448,-194.0092"/>
</g>
<!-- Node29 -->
<g id="node29" class="node">
<title>Node29</title>
<g id="a_node29"><a xlink:href="$_interpreter_impl_8h.html" xlink:title="uscxml/interpreter\l/InterpreterImpl.h">
<polygon fill="#ffffff" stroke="#000000" points="2101.4723,-503.5 2101.4723,-533.5 2197.4723,-533.5 2197.4723,-503.5 2101.4723,-503.5"/>
<text text-anchor="start" x="2109.4723" y="-521.5" font-family="Helvetica,sans-Serif" font-size="10.00" fill="#000000">uscxml/interpreter</text>
<text text-anchor="middle" x="2149.4723" y="-510.5" font-family="Helvetica,sans-Serif" font-size="10.00" fill="#000000">/InterpreterImpl.h</text>
</a>
</g>
</g>
<!-- Node1&#45;&gt;Node29 -->
<g id="edge68" class="edge">
<title>Node1&#45;&gt;Node29</title>
<path fill="none" stroke="#191970" d="M2149.4723,-570.3906C2149.4723,-563.2234 2149.4723,-553.0862 2149.4723,-543.671"/>
<polygon fill="#191970" stroke="#191970" points="2152.9724,-543.5446 2149.4723,-533.5446 2145.9724,-543.5446 2152.9724,-543.5446"/>
</g>
<!-- Node46 -->
<g id="node46" class="node">
<title>Node46</title>
<g id="a_node46"><a xlink:href="$_d_o_m_8h.html" xlink:title="uscxml/util/DOM.h">
<polygon fill="#ffffff" stroke="#000000" points="3058.4723,-241 3058.4723,-260 3156.4723,-260 3156.4723,-241 3058.4723,-241"/>
<text text-anchor="middle" x="3107.4723" y="-248" font-family="Helvetica,sans-Serif" font-size="10.00" fill="#000000">uscxml/util/DOM.h</text>
</a>
</g>
</g>
<!-- Node1&#45;&gt;Node46 -->
<g id="edge150" class="edge">
<title>Node1&#45;&gt;Node46</title>
<path fill="none" stroke="#191970" d="M2206.553,-579.5148C2434.7872,-576.8335 3269.4723,-559.6353 3269.4723,-451.5 3269.4723,-451.5 3269.4723,-451.5 3269.4723,-384.5 3269.4723,-321.3278 3195.4249,-282.3253 3147.4539,-263.6862"/>
<polygon fill="#191970" stroke="#191970" points="3148.5356,-260.3539 3137.9433,-260.1225 3146.0794,-266.9089 3148.5356,-260.3539"/>
</g>
<!-- Node3 -->
<g id="node3" class="node">
<title>Node3</title>
<polygon fill="#ffffff" stroke="#bfbfbf" points="1621.9723,-56.5 1621.9723,-75.5 1662.9723,-75.5 1662.9723,-56.5 1621.9723,-56.5"/>
<text text-anchor="middle" x="1642.4723" y="-63.5" font-family="Helvetica,sans-Serif" font-size="10.00" fill="#000000">string</text>
</g>
<!-- Node2&#45;&gt;Node3 -->
<g id="edge2" class="edge">
<title>Node2&#45;&gt;Node3</title>
<path fill="none" stroke="#191970" d="M75.354,-441.8714C92.4465,-400.8287 165.3529,-239.3409 281.4723,-168 407.8517,-90.3557 462.9885,-127.7772 610.4723,-112 811.8465,-90.4578 1461.1252,-71.1232 1611.2766,-66.8675"/>
<polygon fill="#191970" stroke="#191970" points="1611.6993,-70.3571 1621.5967,-66.5766 1611.502,-63.3599 1611.6993,-70.3571"/>
</g>
<!-- Node4 -->
<g id="node4" class="node">
<title>Node4</title>
<g id="a_node4"><a xlink:href="$_common_8h.html" xlink:title="uscxml/Common.h">
<polygon fill="#ffffff" stroke="#000000" points="1085.9723,-56.5 1085.9723,-75.5 1184.9723,-75.5 1184.9723,-56.5 1085.9723,-56.5"/>
<text text-anchor="middle" x="1135.4723" y="-63.5" font-family="Helvetica,sans-Serif" font-size="10.00" fill="#000000">uscxml/Common.h</text>
</a>
</g>
</g>
<!-- Node2&#45;&gt;Node4 -->
<g id="edge3" class="edge">
<title>Node2&#45;&gt;Node4</title>
<path fill="none" stroke="#191970" d="M71.4723,-441.7483C71.4723,-419.643 71.4723,-364.0278 71.4723,-317.5 71.4723,-317.5 71.4723,-317.5 71.4723,-183.5 71.4723,-137.9967 -183.6072,-192.6864 285.4723,-112 437.7614,-85.8048 908.4469,-71.7108 1075.7231,-67.4274"/>
<polygon fill="#191970" stroke="#191970" points="1075.9172,-70.9237 1085.8252,-67.1712 1075.7397,-63.9259 1075.9172,-70.9237"/>
</g>
<!-- Node2&#45;&gt;Node7 -->
<g id="edge6" class="edge">
<title>Node2&#45;&gt;Node7</title>
<path fill="none" stroke="#191970" d="M118.3179,-441.9837C130.0865,-439.8049 142.7136,-437.648 154.4723,-436 329.1324,-411.5207 536.8426,-395.5366 638.7465,-388.5462"/>
<polygon fill="#191970" stroke="#191970" points="639.1264,-392.0286 648.8657,-387.8579 638.6512,-385.0447 639.1264,-392.0286"/>
</g>
<!-- Node13 -->
<g id="node13" class="node">
<title>Node13</title>
<g id="a_node13"><a xlink:href="$_data_8h.html" xlink:title="uscxml/messages/Data.h">
<polygon fill="#ffffff" stroke="#000000" points="724.4723,-174 724.4723,-193 852.4723,-193 852.4723,-174 724.4723,-174"/>
<text text-anchor="middle" x="788.4723" y="-181" font-family="Helvetica,sans-Serif" font-size="10.00" fill="#000000">uscxml/messages/Data.h</text>
</a>
</g>
</g>
<!-- Node2&#45;&gt;Node13 -->
<g id="edge66" class="edge">
<title>Node2&#45;&gt;Node13</title>
<path fill="none" stroke="#191970" d="M93.6296,-441.9268C150.4747,-417.4864 306.3095,-351.2408 438.4723,-302 549.7442,-260.5426 683.0828,-217.0859 748.4068,-196.1943"/>
<polygon fill="#191970" stroke="#191970" points="749.8309,-199.4138 758.2932,-193.0388 747.7024,-192.7452 749.8309,-199.4138"/>
</g>
<!-- Node5 -->
<g id="node5" class="node">
<title>Node5</title>
<polygon fill="#ffffff" stroke="#bfbfbf" points="1061.4723,-.5 1061.4723,-19.5 1133.4723,-19.5 1133.4723,-.5 1061.4723,-.5"/>
<text text-anchor="middle" x="1097.4723" y="-7.5" font-family="Helvetica,sans-Serif" font-size="10.00" fill="#000000">sys/socket.h</text>
</g>
<!-- Node4&#45;&gt;Node5 -->
<g id="edge4" class="edge">
<title>Node4&#45;&gt;Node5</title>
<path fill="none" stroke="#191970" d="M1128.8532,-56.2455C1123.5677,-48.4564 1116.0182,-37.3308 1109.6486,-27.9439"/>
<polygon fill="#191970" stroke="#191970" points="1112.5268,-25.9522 1104.0155,-19.6427 1106.7344,-29.8827 1112.5268,-25.9522"/>
</g>
<!-- Node6 -->
<g id="node6" class="node">
<title>Node6</title>
<polygon fill="#ffffff" stroke="#bfbfbf" points="1151.4723,-.5 1151.4723,-19.5 1195.4723,-19.5 1195.4723,-.5 1151.4723,-.5"/>
<text text-anchor="middle" x="1173.4723" y="-7.5" font-family="Helvetica,sans-Serif" font-size="10.00" fill="#000000">cmath</text>
</g>
<!-- Node4&#45;&gt;Node6 -->
<g id="edge5" class="edge">
<title>Node4&#45;&gt;Node6</title>
<path fill="none" stroke="#191970" d="M1142.0914,-56.2455C1147.3769,-48.4564 1154.9264,-37.3308 1161.2961,-27.9439"/>
<polygon fill="#191970" stroke="#191970" points="1164.2102,-29.8827 1166.9291,-19.6427 1158.4178,-25.9522 1164.2102,-29.8827"/>
</g>
<!-- Node7&#45;&gt;Node3 -->
<g id="edge9" class="edge">
<title>Node7&#45;&gt;Node3</title>
<path fill="none" stroke="#191970" d="M744.0086,-374.9139C775.0014,-366.7447 817.2071,-353.0974 850.4723,-333 867.696,-322.5942 866.9488,-313.4853 883.4723,-302 938.4736,-263.7695 956.3693,-260.0985 1018.4723,-235 1193.2797,-164.3528 1241.5048,-157.514 1424.4723,-112 1490.9122,-95.4728 1569.6915,-79.8096 1611.986,-71.7164"/>
<polygon fill="#191970" stroke="#191970" points="1612.7533,-75.1333 1621.923,-69.826 1611.4451,-68.2566 1612.7533,-75.1333"/>
</g>
<!-- Node7&#45;&gt;Node4 -->
<g id="edge7" class="edge">
<title>Node7&#45;&gt;Node4</title>
<path fill="none" stroke="#191970" d="M668.818,-374.9302C641.644,-366.1933 602.5249,-351.7851 571.4723,-333 553.4062,-322.071 554.2442,-311.6667 535.4723,-302 475.6716,-271.2053 429.9947,-318.9182 388.4723,-266 379.9672,-255.1607 383.8925,-247.9943 388.4723,-235 411.7987,-168.816 425.2922,-144.5282 487.4723,-112 538.7694,-85.165 924.6197,-71.7852 1075.3753,-67.5394"/>
<polygon fill="#191970" stroke="#191970" points="1075.9166,-71.0258 1085.8155,-67.2495 1075.7222,-64.0285 1075.9166,-71.0258"/>
</g>
<!-- Node8 -->
<g id="node8" class="node">
<title>Node8</title>
<polygon fill="#ffffff" stroke="#bfbfbf" points="1775.4723,-112.5 1775.4723,-131.5 1811.4723,-131.5 1811.4723,-112.5 1775.4723,-112.5"/>
<text text-anchor="middle" x="1793.4723" y="-119.5" font-family="Helvetica,sans-Serif" font-size="10.00" fill="#000000">map</text>
</g>
<!-- Node7&#45;&gt;Node8 -->
<g id="edge8" class="edge">
<title>Node7&#45;&gt;Node8</title>
<path fill="none" stroke="#191970" d="M749.5921,-374.9994C787.0962,-366.628 839.9358,-352.6829 883.4723,-333 906.6129,-322.5381 908.5154,-312.8591 931.4723,-302 1019.6502,-260.29 1253.8362,-187.2043 1349.4723,-168 1528.6483,-132.0204 1583.0434,-171.2427 1765.4572,-131.6578"/>
<polygon fill="#191970" stroke="#191970" points="1766.3694,-135.0406 1775.3732,-129.4564 1764.8523,-128.207 1766.3694,-135.0406"/>
</g>
<!-- Node9 -->
<g id="node9" class="node">
<title>Node9</title>
<polygon fill="#ffffff" stroke="#bfbfbf" points="447.4723,-308 447.4723,-327 491.4723,-327 491.4723,-308 447.4723,-308"/>
<text text-anchor="middle" x="469.4723" y="-315" font-family="Helvetica,sans-Serif" font-size="10.00" fill="#000000">vector</text>
</g>
<!-- Node7&#45;&gt;Node9 -->
<g id="edge10" class="edge">
<title>Node7&#45;&gt;Node9</title>
<path fill="none" stroke="#191970" d="M657.7082,-374.9818C617.615,-365.797 556.8657,-350.7045 505.4723,-333 503.5905,-332.3517 501.6687,-331.6492 499.7406,-330.9134"/>
<polygon fill="#191970" stroke="#191970" points="500.787,-327.5611 490.2044,-327.0527 498.1602,-334.0496 500.787,-327.5611"/>
</g>
<!-- Node10 -->
<g id="node10" class="node">
<title>Node10</title>
<g id="a_node10"><a xlink:href="$_micro_step_8h.html" xlink:title="uscxml/interpreter\l/MicroStep.h">
<polygon fill="#ffffff" stroke="#000000" points="397.4723,-235.5 397.4723,-265.5 493.4723,-265.5 493.4723,-235.5 397.4723,-235.5"/>
<text text-anchor="start" x="405.4723" y="-253.5" font-family="Helvetica,sans-Serif" font-size="10.00" fill="#000000">uscxml/interpreter</text>
<text text-anchor="middle" x="445.4723" y="-242.5" font-family="Helvetica,sans-Serif" font-size="10.00" fill="#000000">/MicroStep.h</text>
</a>
</g>
</g>
<!-- Node7&#45;&gt;Node10 -->
<g id="edge11" class="edge">
<title>Node7&#45;&gt;Node10</title>
<path fill="none" stroke="#191970" d="M687.9102,-374.7498C664.7794,-358.3859 615.8847,-324.9382 571.4723,-302 547.6806,-289.712 520.2648,-278.2122 497.0945,-269.2102"/>
<polygon fill="#191970" stroke="#191970" points="498.0374,-265.8233 487.4472,-265.5102 495.5306,-272.3591 498.0374,-265.8233"/>
</g>
<!-- Node19 -->
<g id="node19" class="node">
<title>Node19</title>
<g id="a_node19"><a xlink:href="$_interpreter_state_8h.html" xlink:title="uscxml/interpreter\l/InterpreterState.h">
<polygon fill="#ffffff" stroke="#000000" points="289.9723,-168.5 289.9723,-198.5 386.9723,-198.5 386.9723,-168.5 289.9723,-168.5"/>
<text text-anchor="start" x="297.9723" y="-186.5" font-family="Helvetica,sans-Serif" font-size="10.00" fill="#000000">uscxml/interpreter</text>
<text text-anchor="middle" x="338.4723" y="-175.5" font-family="Helvetica,sans-Serif" font-size="10.00" fill="#000000">/InterpreterState.h</text>
</a>
</g>
</g>
<!-- Node7&#45;&gt;Node19 -->
<g id="edge65" class="edge">
<title>Node7&#45;&gt;Node19</title>
<path fill="none" stroke="#191970" d="M660.8328,-374.9718C628.0872,-366.4288 581.4157,-352.2674 543.4723,-333 522.4657,-322.333 521.8479,-311.9069 500.4723,-302 440.2272,-274.0785 401.4732,-313.8854 355.4723,-266 341.0582,-250.9954 337.415,-227.1863 337.0226,-208.994"/>
<polygon fill="#191970" stroke="#191970" points="340.5244,-208.8146 337.1206,-198.7814 333.5247,-208.7474 340.5244,-208.8146"/>
</g>
<!-- Node20 -->
<g id="node20" class="node">
<title>Node20</title>
<g id="a_node20"><a xlink:href="$_logging_8h.html" xlink:title="uscxml/interpreter\l/Logging.h">
<polygon fill="#ffffff" stroke="#000000" points="973.4723,-302.5 973.4723,-332.5 1069.4723,-332.5 1069.4723,-302.5 973.4723,-302.5"/>
<text text-anchor="start" x="981.4723" y="-320.5" font-family="Helvetica,sans-Serif" font-size="10.00" fill="#000000">uscxml/interpreter</text>
<text text-anchor="middle" x="1021.4723" y="-309.5" font-family="Helvetica,sans-Serif" font-size="10.00" fill="#000000">/Logging.h</text>
</a>
</g>
</g>
<!-- Node7&#45;&gt;Node20 -->
<g id="edge33" class="edge">
<title>Node7&#45;&gt;Node20</title>
<path fill="none" stroke="#191970" d="M746.9807,-374.9717C803.7802,-363.0793 901.0046,-342.7229 963.1961,-329.7016"/>
<polygon fill="#191970" stroke="#191970" points="964.1735,-333.0729 973.244,-327.5978 962.739,-326.2215 964.1735,-333.0729"/>
</g>
<!-- Node23 -->
<g id="node23" class="node">
<title>Node23</title>
<g id="a_node23"><a xlink:href="$_data_model_8h.html" xlink:title="uscxml/plugins/DataModel.h">
<polygon fill="#ffffff" stroke="#000000" points="699.4723,-308 699.4723,-327 841.4723,-327 841.4723,-308 699.4723,-308"/>
<text text-anchor="middle" x="770.4723" y="-315" font-family="Helvetica,sans-Serif" font-size="10.00" fill="#000000">uscxml/plugins/DataModel.h</text>
</a>
</g>
</g>
<!-- Node7&#45;&gt;Node23 -->
<g id="edge42" class="edge">
<title>Node7&#45;&gt;Node23</title>
<path fill="none" stroke="#191970" d="M711.3583,-374.9005C722.2207,-364.353 739.8758,-347.2096 753.068,-334.3998"/>
<polygon fill="#191970" stroke="#191970" points="755.8685,-336.559 760.6046,-327.0817 750.9921,-331.537 755.8685,-336.559"/>
</g>
<!-- Node24 -->
<g id="node24" class="node">
<title>Node24</title>
<g id="a_node24"><a xlink:href="$_factory_8h.html" xlink:title="uscxml/plugins/Factory.h">
<polygon fill="#ffffff" stroke="#000000" points="1759.9723,-241 1759.9723,-260 1886.9723,-260 1886.9723,-241 1759.9723,-241"/>
<text text-anchor="middle" x="1823.4723" y="-248" font-family="Helvetica,sans-Serif" font-size="10.00" fill="#000000">uscxml/plugins/Factory.h</text>
</a>
</g>
</g>
<!-- Node7&#45;&gt;Node24 -->
<g id="edge48" class="edge">
<title>Node7&#45;&gt;Node24</title>
<path fill="none" stroke="#191970" d="M754.1589,-383.4045C875.6944,-380.3163 1184.8457,-369.2501 1440.4723,-333 1563.5521,-315.5462 1706.0996,-280.9655 1777.5881,-262.6078"/>
<polygon fill="#191970" stroke="#191970" points="1778.8014,-265.9094 1787.6092,-260.021 1777.0517,-259.1316 1778.8014,-265.9094"/>
</g>
<!-- Node27 -->
<g id="node27" class="node">
<title>Node27</title>
<g id="a_node27"><a xlink:href="$_content_executor_8h.html" xlink:title="uscxml/interpreter\l/ContentExecutor.h">
<polygon fill="#ffffff" stroke="#000000" points="663.4723,-235.5 663.4723,-265.5 765.4723,-265.5 765.4723,-235.5 663.4723,-235.5"/>
<text text-anchor="start" x="671.4723" y="-253.5" font-family="Helvetica,sans-Serif" font-size="10.00" fill="#000000">uscxml/interpreter</text>
<text text-anchor="middle" x="714.4723" y="-242.5" font-family="Helvetica,sans-Serif" font-size="10.00" fill="#000000">/ContentExecutor.h</text>
</a>
</g>
</g>
<!-- Node7&#45;&gt;Node27 -->
<g id="edge58" class="edge">
<title>Node7&#45;&gt;Node27</title>
<path fill="none" stroke="#191970" d="M689.4832,-374.943C678.7729,-365.5699 663.8234,-350.2109 657.4723,-333 652.7025,-320.0742 651.8792,-314.5914 657.4723,-302 662.6749,-290.2878 672.0031,-280.1119 681.6265,-271.9693"/>
<polygon fill="#191970" stroke="#191970" points="684.002,-274.5537 689.6956,-265.6187 679.6728,-269.053 684.002,-274.5537"/>
</g>
<!-- Node28 -->
<g id="node28" class="node">
<title>Node28</title>
<g id="a_node28"><a xlink:href="$_event_queue_8h.html" xlink:title="uscxml/interpreter\l/EventQueue.h">
<polygon fill="#ffffff" stroke="#000000" points="1335.4723,-302.5 1335.4723,-332.5 1431.4723,-332.5 1431.4723,-302.5 1335.4723,-302.5"/>
<text text-anchor="start" x="1343.4723" y="-320.5" font-family="Helvetica,sans-Serif" font-size="10.00" fill="#000000">uscxml/interpreter</text>
<text text-anchor="middle" x="1383.4723" y="-309.5" font-family="Helvetica,sans-Serif" font-size="10.00" fill="#000000">/EventQueue.h</text>
</a>
</g>
</g>
<!-- Node7&#45;&gt;Node28 -->
<g id="edge62" class="edge">
<title>Node7&#45;&gt;Node28</title>
<path fill="none" stroke="#191970" d="M754.1531,-383.4112C860.6018,-380.5096 1108.8973,-370.1865 1325.4487,-332.9699"/>
<polygon fill="#191970" stroke="#191970" points="1326.1593,-336.3989 1335.4103,-331.2348 1324.958,-329.5028 1326.1593,-336.3989"/>
</g>
<!-- Node10&#45;&gt;Node3 -->
<g id="edge14" class="edge">
<title>Node10&#45;&gt;Node3</title>
<path fill="none" stroke="#191970" d="M462.0586,-235.3808C496.2825,-205.2713 578.4951,-138.4438 661.4723,-112 753.6832,-82.6136 1454.0034,-69.1692 1611.2127,-66.5043"/>
<polygon fill="#191970" stroke="#191970" points="1611.6373,-69.9978 1621.5773,-66.331 1611.5202,-62.9988 1611.6373,-69.9978"/>
</g>
<!-- Node10&#45;&gt;Node4 -->
<g id="edge15" class="edge">
<title>Node10&#45;&gt;Node4</title>
<path fill="none" stroke="#191970" d="M447.9285,-235.1825C453.5631,-205.6279 470.4102,-141.0894 513.4723,-112 559.3106,-81.0353 928.2862,-70.1947 1075.3198,-67.0806"/>
<polygon fill="#191970" stroke="#191970" points="1075.5897,-70.5759 1085.5151,-66.8696 1075.4448,-63.5774 1075.5897,-70.5759"/>
</g>
<!-- Node11 -->
<g id="node11" class="node">
<title>Node11</title>
<polygon fill="#ffffff" stroke="#bfbfbf" points="234.9723,-56.5 234.9723,-75.5 287.9723,-75.5 287.9723,-56.5 234.9723,-56.5"/>
<text text-anchor="middle" x="261.4723" y="-63.5" font-family="Helvetica,sans-Serif" font-size="10.00" fill="#000000">memory</text>
</g>
<!-- Node10&#45;&gt;Node11 -->
<g id="edge12" class="edge">
<title>Node10&#45;&gt;Node11</title>
<path fill="none" stroke="#191970" d="M397.2266,-245.4398C361.7247,-239.5083 314.1509,-226.678 281.4723,-199 249.7935,-172.1689 241.362,-153.0624 247.4723,-112 248.805,-103.0439 251.5217,-93.419 254.2104,-85.3"/>
<polygon fill="#191970" stroke="#191970" points="257.579,-86.272 257.6099,-75.6772 250.9787,-83.9402 257.579,-86.272"/>
</g>
<!-- Node12 -->
<g id="node12" class="node">
<title>Node12</title>
<polygon fill="#ffffff" stroke="#bfbfbf" points="2083.9723,-112.5 2083.9723,-131.5 2112.9723,-131.5 2112.9723,-112.5 2083.9723,-112.5"/>
<text text-anchor="middle" x="2098.4723" y="-119.5" font-family="Helvetica,sans-Serif" font-size="10.00" fill="#000000">list</text>
</g>
<!-- Node10&#45;&gt;Node12 -->
<g id="edge13" class="edge">
<title>Node10&#45;&gt;Node12</title>
<path fill="none" stroke="#191970" d="M493.6035,-246.7584C743.7899,-227.3096 1891.2309,-138.1104 2073.9222,-123.9085"/>
<polygon fill="#191970" stroke="#191970" points="2074.1962,-127.3978 2083.8948,-123.1332 2073.6536,-120.4189 2074.1962,-127.3978"/>
</g>
<!-- Node10&#45;&gt;Node13 -->
<g id="edge16" class="edge">
<title>Node10&#45;&gt;Node13</title>
<path fill="none" stroke="#191970" d="M493.5261,-241.1134C555.4315,-229.0211 662.9873,-208.0116 729.6966,-194.981"/>
<polygon fill="#191970" stroke="#191970" points="730.492,-198.3918 739.6355,-193.0396 729.1499,-191.5217 730.492,-198.3918"/>
</g>
<!-- Node10&#45;&gt;Node19 -->
<g id="edge31" class="edge">
<title>Node10&#45;&gt;Node19</title>
<path fill="none" stroke="#191970" d="M421.4594,-235.4639C406.6948,-226.2188 387.5728,-214.2452 371.4062,-204.1222"/>
<polygon fill="#191970" stroke="#191970" points="373.1083,-201.0584 362.7753,-198.7177 369.3933,-206.9913 373.1083,-201.0584"/>
</g>
<!-- Node13&#45;&gt;Node4 -->
<g id="edge21" class="edge">
<title>Node13&#45;&gt;Node4</title>
<path fill="none" stroke="#191970" d="M789.6752,-173.8159C792.1778,-158.1073 799.4863,-127.2922 819.4723,-112 858.5021,-82.1365 995.0295,-71.5742 1075.2936,-67.9023"/>
<polygon fill="#191970" stroke="#191970" points="1075.9118,-71.3788 1085.7505,-67.4483 1075.6081,-64.3854 1075.9118,-71.3788"/>
</g>
<!-- Node13&#45;&gt;Node8 -->
<g id="edge18" class="edge">
<title>Node13&#45;&gt;Node8</title>
<path fill="none" stroke="#191970" d="M852.681,-181.2436C1050.0503,-174.1557 1641.4847,-151.733 1765.4671,-131.3796"/>
<polygon fill="#191970" stroke="#191970" points="1766.1957,-134.8042 1775.3918,-129.5428 1764.9218,-127.9211 1766.1957,-134.8042"/>
</g>
<!-- Node13&#45;&gt;Node11 -->
<g id="edge19" class="edge">
<title>Node13&#45;&gt;Node11</title>
<path fill="none" stroke="#191970" d="M745.7921,-173.984C644.8225,-151.4718 392.6831,-95.2548 298.0912,-74.1645"/>
<polygon fill="#191970" stroke="#191970" points="298.6557,-70.7045 288.1336,-71.9444 297.1323,-77.5368 298.6557,-70.7045"/>
</g>
<!-- Node13&#45;&gt;Node12 -->
<g id="edge17" class="edge">
<title>Node13&#45;&gt;Node12</title>
<path fill="none" stroke="#191970" d="M852.5431,-180.4921C1090.5878,-169.3167 1918.3693,-130.4552 2073.3632,-123.1788"/>
<polygon fill="#191970" stroke="#191970" points="2073.8907,-126.658 2083.7156,-122.6928 2073.5624,-119.6657 2073.8907,-126.658"/>
</g>
<!-- Node14 -->
<g id="node14" class="node">
<title>Node14</title>
<polygon fill="#ffffff" stroke="#bfbfbf" points="669.9723,-112.5 669.9723,-131.5 732.9723,-131.5 732.9723,-112.5 669.9723,-112.5"/>
<text text-anchor="middle" x="701.4723" y="-119.5" font-family="Helvetica,sans-Serif" font-size="10.00" fill="#000000">type_traits</text>
</g>
<!-- Node13&#45;&gt;Node14 -->
<g id="edge20" class="edge">
<title>Node13&#45;&gt;Node14</title>
<path fill="none" stroke="#191970" d="M774.8786,-173.8906C761.088,-164.1421 739.5251,-148.8994 723.3313,-137.4521"/>
<polygon fill="#191970" stroke="#191970" points="725.1567,-134.4563 714.9706,-131.5419 721.1161,-140.1723 725.1567,-134.4563"/>
</g>
<!-- Node15 -->
<g id="node15" class="node">
<title>Node15</title>
<g id="a_node15"><a xlink:href="$_convenience_8h.html" xlink:title="uscxml/util/Convenience.h">
<polygon fill="#ffffff" stroke="#000000" points="1623.9723,-112.5 1623.9723,-131.5 1756.9723,-131.5 1756.9723,-112.5 1623.9723,-112.5"/>
<text text-anchor="middle" x="1690.4723" y="-119.5" font-family="Helvetica,sans-Serif" font-size="10.00" fill="#000000">uscxml/util/Convenience.h</text>
</a>
</g>
</g>
<!-- Node13&#45;&gt;Node15 -->
<g id="edge22" class="edge">
<title>Node13&#45;&gt;Node15</title>
<path fill="none" stroke="#191970" d="M852.6006,-179.7935C986.9315,-171.9226 1307.6904,-152.5693 1576.4723,-132 1588.4665,-131.0821 1601.164,-130.039 1613.5613,-128.9813"/>
<polygon fill="#191970" stroke="#191970" points="1614.2199,-132.4376 1623.8824,-128.0918 1613.6187,-125.4635 1614.2199,-132.4376"/>
</g>
<!-- Node18 -->
<g id="node18" class="node">
<title>Node18</title>
<g id="a_node18"><a xlink:href="$_blob_8h.html" xlink:title="uscxml/messages/Blob.h">
<polygon fill="#ffffff" stroke="#000000" points="827.9723,-112.5 827.9723,-131.5 954.9723,-131.5 954.9723,-112.5 827.9723,-112.5"/>
<text text-anchor="middle" x="891.4723" y="-119.5" font-family="Helvetica,sans-Serif" font-size="10.00" fill="#000000">uscxml/messages/Blob.h</text>
</a>
</g>
</g>
<!-- Node13&#45;&gt;Node18 -->
<g id="edge27" class="edge">
<title>Node13&#45;&gt;Node18</title>
<path fill="none" stroke="#191970" d="M804.5661,-173.8906C821.1951,-163.9616 847.3699,-148.333 866.6517,-136.8201"/>
<polygon fill="#191970" stroke="#191970" points="868.6999,-139.6736 875.4916,-131.5419 865.1113,-133.6634 868.6999,-139.6736"/>
</g>
<!-- Node15&#45;&gt;Node3 -->
<g id="edge24" class="edge">
<title>Node15&#45;&gt;Node3</title>
<path fill="none" stroke="#191970" d="M1682.1113,-112.2455C1675.2973,-104.2958 1665.5042,-92.8706 1657.3571,-83.3656"/>
<polygon fill="#191970" stroke="#191970" points="1659.9028,-80.9575 1650.7375,-75.6427 1654.588,-85.513 1659.9028,-80.9575"/>
</g>
<!-- Node15&#45;&gt;Node4 -->
<g id="edge23" class="edge">
<title>Node15&#45;&gt;Node4</title>
<path fill="none" stroke="#191970" d="M1623.8022,-115.2729C1514.6777,-104.2622 1299.6447,-82.5651 1195.2068,-72.0273"/>
<polygon fill="#191970" stroke="#191970" points="1195.4504,-68.5342 1185.1495,-71.0125 1194.7476,-75.4988 1195.4504,-68.5342"/>
</g>
<!-- Node16 -->
<g id="node16" class="node">
<title>Node16</title>
<polygon fill="#ffffff" stroke="#bfbfbf" points="1895.9723,-56.5 1895.9723,-75.5 1934.9723,-75.5 1934.9723,-56.5 1895.9723,-56.5"/>
<text text-anchor="middle" x="1915.4723" y="-63.5" font-family="Helvetica,sans-Serif" font-size="10.00" fill="#000000">limits</text>
</g>
<!-- Node15&#45;&gt;Node16 -->
<g id="edge25" class="edge">
<title>Node15&#45;&gt;Node16</title>
<path fill="none" stroke="#191970" d="M1728.8955,-112.4369C1773.4639,-101.3443 1845.9545,-83.3022 1886.2003,-73.2855"/>
<polygon fill="#191970" stroke="#191970" points="1887.079,-76.6736 1895.9377,-70.862 1885.3883,-69.8809 1887.079,-76.6736"/>
</g>
<!-- Node17 -->
<g id="node17" class="node">
<title>Node17</title>
<polygon fill="#ffffff" stroke="#bfbfbf" points="1744.4723,-56.5 1744.4723,-75.5 1796.4723,-75.5 1796.4723,-56.5 1744.4723,-56.5"/>
<text text-anchor="middle" x="1770.4723" y="-63.5" font-family="Helvetica,sans-Serif" font-size="10.00" fill="#000000">sstream</text>
</g>
<!-- Node15&#45;&gt;Node17 -->
<g id="edge26" class="edge">
<title>Node15&#45;&gt;Node17</title>
<path fill="none" stroke="#191970" d="M1704.4072,-112.2455C1716.567,-103.7337 1734.4188,-91.2375 1748.5008,-81.3801"/>
<polygon fill="#191970" stroke="#191970" points="1750.5119,-84.2447 1756.6971,-75.6427 1746.4976,-78.51 1750.5119,-84.2447"/>
</g>
<!-- Node18&#45;&gt;Node3 -->
<g id="edge28" class="edge">
<title>Node18&#45;&gt;Node3</title>
<path fill="none" stroke="#191970" d="M955.1782,-117.2496C1109.5741,-105.7368 1499.3066,-76.6755 1611.6961,-68.2949"/>
<polygon fill="#191970" stroke="#191970" points="1611.9774,-71.7837 1621.6895,-67.5497 1611.4569,-64.8031 1611.9774,-71.7837"/>
</g>
<!-- Node18&#45;&gt;Node4 -->
<g id="edge30" class="edge">
<title>Node18&#45;&gt;Node4</title>
<path fill="none" stroke="#191970" d="M933.1402,-112.4369C974.8989,-102.8529 1039.2614,-88.0812 1084.1451,-77.78"/>
<polygon fill="#191970" stroke="#191970" points="1085.0127,-81.172 1093.9763,-75.5237 1083.4468,-74.3494 1085.0127,-81.172"/>
</g>
<!-- Node18&#45;&gt;Node11 -->
<g id="edge29" class="edge">
<title>Node18&#45;&gt;Node11</title>
<path fill="none" stroke="#191970" d="M827.6486,-113.5833C822.8543,-113.0228 818.0884,-112.488 813.4723,-112 619.7995,-91.5256 387.1002,-74.6577 298.3241,-68.5034"/>
<polygon fill="#191970" stroke="#191970" points="298.4408,-65.0032 288.2235,-67.8064 297.9589,-71.9866 298.4408,-65.0032"/>
</g>
<!-- Node19&#45;&gt;Node4 -->
<g id="edge32" class="edge">
<title>Node19&#45;&gt;Node4</title>
<path fill="none" stroke="#191970" d="M353.6449,-168.2402C371.7973,-151.089 403.9606,-124.0676 437.4723,-112 496.6946,-90.6739 917.7883,-73.7201 1075.7844,-68.0438"/>
<polygon fill="#191970" stroke="#191970" points="1075.9354,-71.5407 1085.8042,-67.6863 1075.6858,-64.5452 1075.9354,-71.5407"/>
</g>
<!-- Node20&#45;&gt;Node4 -->
<g id="edge34" class="edge">
<title>Node20&#45;&gt;Node4</title>
<path fill="none" stroke="#191970" d="M1023.164,-302.3873C1027.7385,-266.6885 1042.8646,-175.384 1083.4723,-112 1090.9903,-100.2652 1102.325,-89.7469 1112.495,-81.74"/>
<polygon fill="#191970" stroke="#191970" points="1114.7456,-84.4273 1120.6546,-75.6333 1110.5513,-78.823 1114.7456,-84.4273"/>
</g>
<!-- Node20&#45;&gt;Node11 -->
<g id="edge41" class="edge">
<title>Node20&#45;&gt;Node11</title>
<path fill="none" stroke="#191970" d="M973.2238,-313.158C881.7745,-304.6203 686.543,-284.8358 621.4723,-266 553.6675,-246.3727 540.0958,-231.5731 477.4723,-199 424.6529,-171.5264 412.1178,-163.3006 361.4723,-132 334.4656,-115.309 304.1168,-95.0607 284.0104,-81.4295"/>
<polygon fill="#191970" stroke="#191970" points="285.7787,-78.3994 275.5418,-75.6687 281.8415,-84.1872 285.7787,-78.3994"/>
</g>
<!-- Node20&#45;&gt;Node13 -->
<g id="edge35" class="edge">
<title>Node20&#45;&gt;Node13</title>
<path fill="none" stroke="#191970" d="M995.1972,-302.389C950.086,-276.4452 858.4698,-223.7561 813.9285,-198.1401"/>
<polygon fill="#191970" stroke="#191970" points="815.5857,-195.0556 805.1721,-193.1042 812.0958,-201.1237 815.5857,-195.0556"/>
</g>
<!-- Node21 -->
<g id="node21" class="node">
<title>Node21</title>
<g id="a_node21"><a xlink:href="$_event_8h.html" xlink:title="uscxml/messages/Event.h">
<polygon fill="#ffffff" stroke="#000000" points="1455.9723,-241 1455.9723,-260 1588.9723,-260 1588.9723,-241 1455.9723,-241"/>
<text text-anchor="middle" x="1522.4723" y="-248" font-family="Helvetica,sans-Serif" font-size="10.00" fill="#000000">uscxml/messages/Event.h</text>
</a>
</g>
</g>
<!-- Node20&#45;&gt;Node21 -->
<g id="edge36" class="edge">
<title>Node20&#45;&gt;Node21</title>
<path fill="none" stroke="#191970" d="M1069.5103,-311.0758C1156.4973,-299.4428 1340.7714,-274.7993 1445.4976,-260.794"/>
<polygon fill="#191970" stroke="#191970" points="1446.2407,-264.2259 1455.6885,-259.4312 1445.3127,-257.2877 1446.2407,-264.2259"/>
</g>
<!-- Node21&#45;&gt;Node13 -->
<g id="edge37" class="edge">
<title>Node21&#45;&gt;Node13</title>
<path fill="none" stroke="#191970" d="M1455.7148,-244.4063C1318.5321,-231.8842 1005.8187,-203.3395 862.595,-190.266"/>
<polygon fill="#191970" stroke="#191970" points="862.8574,-186.7755 852.5806,-189.3518 862.221,-193.7465 862.8574,-186.7755"/>
</g>
<!-- Node22 -->
<g id="node22" class="node">
<title>Node22</title>
<g id="a_node22"><a xlink:href="$_u_u_i_d_8h.html" xlink:title="uscxml/util/UUID.h">
<polygon fill="#ffffff" stroke="#000000" points="1467.9723,-112.5 1467.9723,-131.5 1566.9723,-131.5 1566.9723,-112.5 1467.9723,-112.5"/>
<text text-anchor="middle" x="1517.4723" y="-119.5" font-family="Helvetica,sans-Serif" font-size="10.00" fill="#000000">uscxml/util/UUID.h</text>
</a>
</g>
</g>
<!-- Node21&#45;&gt;Node22 -->
<g id="edge38" class="edge">
<title>Node21&#45;&gt;Node22</title>
<path fill="none" stroke="#191970" d="M1517.2747,-240.9773C1512.0918,-230.896 1504.4816,-214.3501 1501.4723,-199 1498.8217,-185.4796 1499.1771,-181.5853 1501.4723,-168 1503.0173,-158.8551 1506.1757,-149.1019 1509.2813,-140.9405"/>
<polygon fill="#191970" stroke="#191970" points="1512.5465,-142.2021 1513.0613,-131.6198 1506.0596,-139.5713 1512.5465,-142.2021"/>
</g>
<!-- Node22&#45;&gt;Node3 -->
<g id="edge40" class="edge">
<title>Node22&#45;&gt;Node3</title>
<path fill="none" stroke="#191970" d="M1538.9606,-112.3733C1559.2385,-103.2888 1589.8285,-89.5844 1612.501,-79.4272"/>
<polygon fill="#191970" stroke="#191970" points="1613.9847,-82.5977 1621.6798,-75.315 1611.1228,-76.2094 1613.9847,-82.5977"/>
</g>
<!-- Node22&#45;&gt;Node4 -->
<g id="edge39" class="edge">
<title>Node22&#45;&gt;Node4</title>
<path fill="none" stroke="#191970" d="M1467.8666,-114.1923C1463.0038,-113.444 1458.143,-112.7027 1453.4723,-112 1363.5968,-98.4785 1259.3133,-83.5355 1195.3667,-74.4575"/>
<polygon fill="#191970" stroke="#191970" points="1195.4639,-70.9363 1185.0714,-72.9972 1194.4807,-77.867 1195.4639,-70.9363"/>
</g>
<!-- Node23&#45;&gt;Node3 -->
<g id="edge46" class="edge">
<title>Node23&#45;&gt;Node3</title>
<path fill="none" stroke="#191970" d="M785.4292,-307.977C801.3954,-297.7586 827.3828,-280.9745 849.4723,-266 869.2731,-252.577 871.9318,-245.4046 893.4723,-235 904.3709,-229.7357 1299.6402,-114.5483 1311.4723,-112 1420.6625,-88.4831 1552.8186,-74.322 1611.6477,-68.7448"/>
<polygon fill="#191970" stroke="#191970" points="1612.1249,-72.2156 1621.757,-67.803 1611.4755,-65.2458 1612.1249,-72.2156"/>
</g>
<!-- Node23&#45;&gt;Node4 -->
<g id="edge43" class="edge">
<title>Node23&#45;&gt;Node4</title>
<path fill="none" stroke="#191970" d="M777.8737,-307.9615C791.4944,-291.0071 822.1994,-255.485 855.4723,-235 897.1243,-209.3563 916.6809,-222.6937 959.4723,-199 1013.395,-169.1428 1017.9028,-148.633 1067.4723,-112 1082.0011,-101.2629 1098.8125,-89.8816 1112.0847,-81.126"/>
<polygon fill="#191970" stroke="#191970" points="1114.189,-83.9317 1120.6361,-75.5242 1110.3532,-78.0762 1114.189,-83.9317"/>
</g>
<!-- Node23&#45;&gt;Node11 -->
<g id="edge47" class="edge">
<title>Node23&#45;&gt;Node11</title>
<path fill="none" stroke="#191970" d="M699.2794,-312.6131C569.1106,-301.9676 301.2989,-271.5586 249.4723,-199 226.9032,-167.4027 233.5654,-150.0162 241.4723,-112 243.4138,-102.6655 247.3527,-92.9017 251.2254,-84.783"/>
<polygon fill="#191970" stroke="#191970" points="254.3626,-86.3353 255.7779,-75.8354 248.1237,-83.161 254.3626,-86.3353"/>
</g>
<!-- Node23&#45;&gt;Node12 -->
<g id="edge45" class="edge">
<title>Node23&#45;&gt;Node12</title>
<path fill="none" stroke="#191970" d="M831.071,-307.9708C985.4565,-283.7698 1406.2047,-218.2922 1757.4723,-168 1875.8339,-151.0537 2017.5662,-132.4866 2073.7689,-125.1926"/>
<polygon fill="#191970" stroke="#191970" points="2074.3695,-128.6441 2083.8368,-123.8879 2073.4698,-121.7022 2074.3695,-128.6441"/>
</g>
<!-- Node23&#45;&gt;Node21 -->
<g id="edge44" class="edge">
<title>Node23&#45;&gt;Node21</title>
<path fill="none" stroke="#191970" d="M841.5573,-311.1666C983.145,-298.5518 1299.3049,-270.3833 1445.5499,-257.3535"/>
<polygon fill="#191970" stroke="#191970" points="1446.1313,-260.8156 1455.7812,-256.4419 1445.51,-253.8432 1446.1313,-260.8156"/>
</g>
<!-- Node24&#45;&gt;Node3 -->
<g id="edge56" class="edge">
<title>Node24&#45;&gt;Node3</title>
<path fill="none" stroke="#191970" d="M1827.5997,-240.6403C1839.1085,-212.4284 1869.6771,-132.1182 1853.4723,-112 1842.1764,-97.9761 1729.0011,-79.0942 1673.2214,-70.5439"/>
<polygon fill="#191970" stroke="#191970" points="1673.6061,-67.0623 1663.1944,-69.0235 1672.5566,-73.9832 1673.6061,-67.0623"/>
</g>
<!-- Node24&#45;&gt;Node4 -->
<g id="edge49" class="edge">
<title>Node24&#45;&gt;Node4</title>
<path fill="none" stroke="#191970" d="M1793.7131,-240.9123C1709.6981,-213.8311 1475.7135,-138.3121 1459.4723,-132 1439.4503,-124.2186 1436.027,-118.2398 1415.4723,-112 1341.3209,-89.4898 1252.5759,-77.2749 1195.17,-71.2022"/>
<polygon fill="#191970" stroke="#191970" points="1195.4845,-67.7162 1185.1787,-70.1739 1194.7678,-74.6794 1195.4845,-67.7162"/>
</g>
<!-- Node24&#45;&gt;Node8 -->
<g id="edge55" class="edge">
<title>Node24&#45;&gt;Node8</title>
<path fill="none" stroke="#191970" d="M1819.4818,-240.7887C1815.4182,-230.5536 1809.2003,-213.8838 1805.4723,-199 1800.6581,-179.7795 1797.4248,-157.35 1795.5392,-141.6735"/>
<polygon fill="#191970" stroke="#191970" points="1799.0011,-141.1387 1794.401,-131.5946 1792.0453,-141.9243 1799.0011,-141.1387"/>
</g>
<!-- Node24&#45;&gt;Node11 -->
<g id="edge53" class="edge">
<title>Node24&#45;&gt;Node11</title>
<path fill="none" stroke="#191970" d="M1759.8763,-246.0277C1600.5022,-234.1643 1171.5766,-198.186 819.4723,-132 784.7231,-125.4681 777.2917,-118.1468 742.4723,-112 578.2233,-83.0043 378.9688,-71.3011 298.1565,-67.5197"/>
<polygon fill="#191970" stroke="#191970" points="298.1506,-64.0159 288.0017,-67.0574 297.8322,-71.0087 298.1506,-64.0159"/>
</g>
<!-- Node24&#45;&gt;Node16 -->
<g id="edge57" class="edge">
<title>Node24&#45;&gt;Node16</title>
<path fill="none" stroke="#191970" d="M1829.6998,-240.9714C1842.4311,-221.2266 1871.8864,-174.1633 1891.4723,-132 1898.6057,-116.6438 1905.0624,-98.5256 1909.4775,-85.1613"/>
<polygon fill="#191970" stroke="#191970" points="1912.8207,-86.1975 1912.5544,-75.606 1906.1576,-84.0519 1912.8207,-86.1975"/>
</g>
<!-- Node24&#45;&gt;Node25 -->
<g id="edge50" class="edge">
<title>Node24&#45;&gt;Node25</title>
<path fill="none" stroke="#191970" d="M1887.1518,-244.0453C2024.3236,-230.1414 2343.8585,-197.7528 2449.7152,-187.023"/>
<polygon fill="#191970" stroke="#191970" points="2450.2535,-190.4865 2459.8496,-185.9958 2449.5476,-183.5222 2450.2535,-190.4865"/>
</g>
<!-- Node26 -->
<g id="node26" class="node">
<title>Node26</title>
<polygon fill="#ffffff" stroke="#bfbfbf" points="2221.4723,-174 2221.4723,-193 2251.4723,-193 2251.4723,-174 2221.4723,-174"/>
<text text-anchor="middle" x="2236.4723" y="-181" font-family="Helvetica,sans-Serif" font-size="10.00" fill="#000000">set</text>
</g>
<!-- Node24&#45;&gt;Node26 -->
<g id="edge54" class="edge">
<title>Node24&#45;&gt;Node26</title>
<path fill="none" stroke="#191970" d="M1882.2065,-240.9717C1973.7829,-226.1155 2146.7778,-198.0509 2211.3385,-187.5774"/>
<polygon fill="#191970" stroke="#191970" points="2212.1073,-190.9985 2221.4178,-185.9423 2210.9863,-184.0888 2212.1073,-190.9985"/>
</g>
<!-- Node25&#45;&gt;Node3 -->
<g id="edge51" class="edge">
<title>Node25&#45;&gt;Node3</title>
<path fill="none" stroke="#191970" d="M2461.9906,-173.9127C2456.6318,-171.8098 2450.8936,-169.7049 2445.4723,-168 2341.8111,-135.4001 2314.8593,-128.6264 2207.4723,-112 1999.5624,-79.81 1944.977,-95.2486 1735.4723,-76 1714.6549,-74.0874 1691.2568,-71.5696 1673.1377,-69.5389"/>
<polygon fill="#191970" stroke="#191970" points="1673.469,-66.0541 1663.1389,-68.4078 1672.6821,-73.0098 1673.469,-66.0541"/>
</g>
<!-- Node25&#45;&gt;Node12 -->
<g id="edge52" class="edge">
<title>Node25&#45;&gt;Node12</title>
<path fill="none" stroke="#191970" d="M2462.9255,-173.8411C2457.3326,-171.6393 2451.2535,-169.5073 2445.4723,-168 2327.4962,-137.2409 2181.316,-126.4412 2123.596,-123.2082"/>
<polygon fill="#191970" stroke="#191970" points="2123.4379,-119.6949 2113.2661,-122.6588 2123.0661,-126.6851 2123.4379,-119.6949"/>
</g>
<!-- Node27&#45;&gt;Node3 -->
<g id="edge61" class="edge">
<title>Node27&#45;&gt;Node3</title>
<path fill="none" stroke="#191970" d="M765.4923,-237.726C830.4909,-221.4655 946.3026,-192.5374 1045.4723,-168 1146.7629,-142.9378 1170.8588,-130.9307 1273.4723,-112 1398.0036,-89.0258 1548.3355,-74.2519 1611.8187,-68.5998"/>
<polygon fill="#191970" stroke="#191970" points="1612.2872,-72.0722 1621.9426,-67.7107 1611.6747,-65.0991 1612.2872,-72.0722"/>
</g>
<!-- Node27&#45;&gt;Node4 -->
<g id="edge59" class="edge">
<title>Node27&#45;&gt;Node4</title>
<path fill="none" stroke="#191970" d="M699.565,-235.2898C674.1922,-207.5873 628.423,-148.4119 661.4723,-112 688.8065,-81.8847 954.1455,-70.8882 1075.4735,-67.4117"/>
<polygon fill="#191970" stroke="#191970" points="1075.8071,-70.9038 1085.7057,-67.1266 1075.612,-63.9065 1075.8071,-70.9038"/>
</g>
<!-- Node27&#45;&gt;Node13 -->
<g id="edge60" class="edge">
<title>Node27&#45;&gt;Node13</title>
<path fill="none" stroke="#191970" d="M731.264,-235.2967C742.9055,-224.7564 758.3971,-210.7303 770.3232,-199.9323"/>
<polygon fill="#191970" stroke="#191970" points="772.8552,-202.3613 777.9191,-193.055 768.1569,-197.1722 772.8552,-202.3613"/>
</g>
<!-- Node28&#45;&gt;Node4 -->
<g id="edge63" class="edge">
<title>Node28&#45;&gt;Node4</title>
<path fill="none" stroke="#191970" d="M1368.3321,-302.1461C1324.4906,-257.6859 1197.6658,-129.0712 1152.0569,-82.8186"/>
<polygon fill="#191970" stroke="#191970" points="1154.502,-80.3135 1144.9885,-75.6505 1149.5177,-85.2284 1154.502,-80.3135"/>
</g>
<!-- Node28&#45;&gt;Node21 -->
<g id="edge64" class="edge">
<title>Node28&#45;&gt;Node21</title>
<path fill="none" stroke="#191970" d="M1414.6666,-302.4639C1438.1991,-291.1209 1470.2525,-275.6707 1493.2817,-264.5703"/>
<polygon fill="#191970" stroke="#191970" points="1495.0593,-267.5989 1502.5478,-260.1039 1492.0199,-261.2932 1495.0593,-267.5989"/>
</g>
<!-- Node29&#45;&gt;Node3 -->
<g id="edge73" class="edge">
<title>Node29&#45;&gt;Node3</title>
<path fill="none" stroke="#191970" d="M2197.7785,-516.2977C2382.0476,-507.2652 3030.4723,-469.4457 3030.4723,-384.5 3030.4723,-384.5 3030.4723,-384.5 3030.4723,-317.5 3030.4723,-254.0851 2892.6326,-132.0544 2832.4723,-112 2716.7767,-73.4329 1857.1285,-84.525 1735.4723,-76 1714.6184,-74.5387 1691.2205,-72.0183 1673.1106,-69.8735"/>
<polygon fill="#191970" stroke="#191970" points="1673.4661,-66.3911 1663.1181,-68.665 1672.6255,-73.3404 1673.4661,-66.3911"/>
</g>
<!-- Node29&#45;&gt;Node4 -->
<g id="edge75" class="edge">
<title>Node29&#45;&gt;Node4</title>
<path fill="none" stroke="#191970" d="M2101.2255,-516.8218C1835.2457,-507.3617 553.8781,-459.0115 388.4723,-400 337.7368,-381.8992 321.2444,-374.9663 287.4723,-333 239.2671,-273.0987 191.0427,-230.7528 235.4723,-168 278.765,-106.8528 321.0489,-126.9079 394.4723,-112 524.3567,-85.6283 923.7475,-71.9416 1075.8279,-67.5779"/>
<polygon fill="#191970" stroke="#191970" points="1076.0163,-71.0741 1085.913,-67.2918 1075.8178,-64.0769 1076.0163,-71.0741"/>
</g>
<!-- Node29&#45;&gt;Node8 -->
<g id="edge72" class="edge">
<title>Node29&#45;&gt;Node8</title>
<path fill="none" stroke="#191970" d="M2101.4519,-517.2828C1938.9762,-512.928 1410.6962,-496.7739 1243.4723,-467 1108.0418,-442.8868 1013.0594,-461.694 964.4723,-333 959.6059,-320.1103 955.7987,-312.7049 964.4723,-302 978.0946,-285.1875 1670.1819,-152.5547 1765.4199,-131.5011"/>
<polygon fill="#191970" stroke="#191970" points="1766.3795,-134.8704 1775.2928,-129.1429 1764.7532,-128.062 1766.3795,-134.8704"/>
</g>
<!-- Node29&#45;&gt;Node11 -->
<g id="edge69" class="edge">
<title>Node29&#45;&gt;Node11</title>
<path fill="none" stroke="#191970" d="M2101.2202,-518.0415C1875.3615,-515.716 921.1763,-503.8527 625.4723,-467 486.4575,-449.675 438.532,-470.4971 317.4723,-400 202.2203,-332.8849 199.4631,-264.2829 182.4723,-132 181.3399,-123.1835 178.0421,-119.7062 182.4723,-112 191.7957,-95.7824 209.2806,-84.7472 225.4352,-77.5602"/>
<polygon fill="#191970" stroke="#191970" points="226.7899,-80.7877 234.7213,-73.7632 224.1405,-74.3084 226.7899,-80.7877"/>
</g>
<!-- Node29&#45;&gt;Node12 -->
<g id="edge71" class="edge">
<title>Node29&#45;&gt;Node12</title>
<path fill="none" stroke="#191970" d="M2197.7421,-515.2027C2366.0013,-503.0734 2916.4723,-457.7911 2916.4723,-384.5 2916.4723,-384.5 2916.4723,-384.5 2916.4723,-317.5 2916.4723,-265.4881 2880.5706,-257.0678 2833.4723,-235 2679.0523,-162.647 2615.9807,-243.9165 2451.4723,-199 2420.2088,-190.464 2416.4421,-177.5468 2385.4723,-168 2336.3295,-152.8511 2183.5204,-132.6665 2123.2623,-125.0667"/>
<polygon fill="#191970" stroke="#191970" points="2123.4911,-121.5681 2113.1337,-123.7982 2122.6212,-128.5138 2123.4911,-121.5681"/>
</g>
<!-- Node29&#45;&gt;Node16 -->
<g id="edge74" class="edge">
<title>Node29&#45;&gt;Node16</title>
<path fill="none" stroke="#191970" d="M2197.5572,-517.4764C2372.0059,-513.5246 2965.4848,-497.9185 3044.4723,-467 3185.4555,-411.8142 3307.4723,-401.8992 3307.4723,-250.5 3307.4723,-250.5 3307.4723,-250.5 3307.4723,-183.5 3307.4723,-112.652 2147.4203,-73.236 1945.3193,-66.9066"/>
<polygon fill="#191970" stroke="#191970" points="1945.2539,-63.403 1935.1501,-66.5909 1945.0366,-70.3997 1945.2539,-63.403"/>
</g>
<!-- Node29&#45;&gt;Node24 -->
<g id="edge87" class="edge">
<title>Node29&#45;&gt;Node24</title>
<path fill="none" stroke="#191970" d="M2179.2398,-503.4355C2212.9459,-484.5024 2266.08,-448.5149 2288.4723,-400 2307.1794,-359.4693 2301.0524,-330.2295 2266.4723,-302 2238.4975,-279.1627 2016.0233,-262.2601 1897.3935,-254.7708"/>
<polygon fill="#191970" stroke="#191970" points="1897.4916,-251.2702 1887.2929,-254.1401 1897.0553,-258.2566 1897.4916,-251.2702"/>
</g>
<!-- Node29&#45;&gt;Node28 -->
<g id="edge140" class="edge">
<title>Node29&#45;&gt;Node28</title>
<path fill="none" stroke="#191970" d="M2101.3532,-517.0735C2025.9549,-513.7673 1876.0241,-502.8554 1754.4723,-467 1657.227,-438.3145 1642.8778,-405.9743 1548.4723,-369 1513.5272,-355.3136 1473.3468,-342.7087 1441.3862,-333.3949"/>
<polygon fill="#191970" stroke="#191970" points="1442.3246,-330.023 1431.7462,-330.6126 1440.3834,-336.7484 1442.3246,-330.023"/>
</g>
<!-- Node30 -->
<g id="node30" class="node">
<title>Node30</title>
<polygon fill="#ffffff" stroke="#bfbfbf" points="2551.4723,-241 2551.4723,-260 2595.4723,-260 2595.4723,-241 2551.4723,-241"/>
<text text-anchor="middle" x="2573.4723" y="-248" font-family="Helvetica,sans-Serif" font-size="10.00" fill="#000000">mutex</text>
</g>
<!-- Node29&#45;&gt;Node30 -->
<g id="edge70" class="edge">
<title>Node29&#45;&gt;Node30</title>
<path fill="none" stroke="#191970" d="M2197.6847,-513.8063C2269.8268,-506.1586 2401.8462,-489.5663 2443.4723,-467 2515.0727,-428.1841 2536.3367,-407.8371 2568.4723,-333 2577.1109,-312.8826 2577.2283,-287.4393 2575.9132,-270.1649"/>
<polygon fill="#191970" stroke="#191970" points="2579.3879,-269.7363 2574.9173,-260.1309 2572.4222,-270.4277 2579.3879,-269.7363"/>
</g>
<!-- Node31 -->
<g id="node31" class="node">
<title>Node31</title>
<g id="a_node31"><a xlink:href="$_u_r_l_8h.html" xlink:title="uscxml/util/URL.h">
<polygon fill="#ffffff" stroke="#000000" points="2465.4723,-308 2465.4723,-327 2559.4723,-327 2559.4723,-308 2465.4723,-308"/>
<text text-anchor="middle" x="2512.4723" y="-315" font-family="Helvetica,sans-Serif" font-size="10.00" fill="#000000">uscxml/util/URL.h</text>
</a>
</g>
</g>
<!-- Node29&#45;&gt;Node31 -->
<g id="edge76" class="edge">
<title>Node29&#45;&gt;Node31</title>
<path fill="none" stroke="#191970" d="M2197.6038,-513.598C2263.8211,-506.1069 2378.7755,-490.1948 2413.4723,-467 2462.0674,-434.5141 2492.6372,-369.2522 2505.4799,-336.7738"/>
<polygon fill="#191970" stroke="#191970" points="2508.8715,-337.7018 2509.1561,-327.1108 2502.329,-335.2127 2508.8715,-337.7018"/>
</g>
<!-- Node34 -->
<g id="node34" class="node">
<title>Node34</title>
<g id="a_node34"><a xlink:href="$_data_model_impl_8h.html" xlink:title="uscxml/plugins/DataModel\lImpl.h">
<polygon fill="#ffffff" stroke="#000000" points="1331.9723,-436.5 1331.9723,-466.5 1464.9723,-466.5 1464.9723,-436.5 1331.9723,-436.5"/>
<text text-anchor="start" x="1339.9723" y="-454.5" font-family="Helvetica,sans-Serif" font-size="10.00" fill="#000000">uscxml/plugins/DataModel</text>
<text text-anchor="middle" x="1398.4723" y="-443.5" font-family="Helvetica,sans-Serif" font-size="10.00" fill="#000000">Impl.h</text>
</a>
</g>
</g>
<!-- Node29&#45;&gt;Node34 -->
<g id="edge88" class="edge">
<title>Node29&#45;&gt;Node34</title>
<path fill="none" stroke="#191970" d="M2101.3514,-514.2069C1974.5277,-502.8924 1630.2914,-472.1816 1475.5887,-458.3799"/>
<polygon fill="#191970" stroke="#191970" points="1475.5015,-454.8583 1465.23,-457.4557 1474.8794,-461.8306 1475.5015,-454.8583"/>
</g>
<!-- Node38 -->
<g id="node38" class="node">
<title>Node38</title>
<g id="a_node38"><a xlink:href="$_i_o_processor_impl_8h.html" xlink:title="uscxml/plugins/IOProcessor\lImpl.h">
<polygon fill="#ffffff" stroke="#000000" points="1087.4723,-369.5 1087.4723,-399.5 1227.4723,-399.5 1227.4723,-369.5 1087.4723,-369.5"/>
<text text-anchor="start" x="1095.4723" y="-387.5" font-family="Helvetica,sans-Serif" font-size="10.00" fill="#000000">uscxml/plugins/IOProcessor</text>
<text text-anchor="middle" x="1157.4723" y="-376.5" font-family="Helvetica,sans-Serif" font-size="10.00" fill="#000000">Impl.h</text>
</a>
</g>
</g>
<!-- Node29&#45;&gt;Node38 -->
<g id="edge107" class="edge">
<title>Node29&#45;&gt;Node38</title>
<path fill="none" stroke="#191970" d="M2101.2544,-517.9983C1947.7292,-516.0092 1471.7144,-506.7137 1323.4723,-467 1273.6045,-453.6405 1221.0513,-424.6288 1188.7597,-404.8272"/>
<polygon fill="#191970" stroke="#191970" points="1190.548,-401.8177 1180.2082,-399.507 1186.8503,-407.7614 1190.548,-401.8177"/>
</g>
<!-- Node39 -->
<g id="node39" class="node">
<title>Node39</title>
<g id="a_node39"><a xlink:href="$_invoker_impl_8h.html" xlink:title="uscxml/plugins/InvokerImpl.h">
<polygon fill="#ffffff" stroke="#000000" points="2133.9723,-375 2133.9723,-394 2278.9723,-394 2278.9723,-375 2133.9723,-375"/>
<text text-anchor="middle" x="2206.4723" y="-382" font-family="Helvetica,sans-Serif" font-size="10.00" fill="#000000">uscxml/plugins/InvokerImpl.h</text>
</a>
</g>
</g>
<!-- Node29&#45;&gt;Node39 -->
<g id="edge112" class="edge">
<title>Node29&#45;&gt;Node39</title>
<path fill="none" stroke="#191970" d="M2155.9001,-503.389C2166.3356,-478.8564 2186.9439,-430.4088 2198.3682,-403.5517"/>
<polygon fill="#191970" stroke="#191970" points="2201.6933,-404.6763 2202.3869,-394.1042 2195.2518,-401.9362 2201.6933,-404.6763"/>
</g>
<!-- Node41 -->
<g id="node41" class="node">
<title>Node41</title>
<g id="a_node41"><a xlink:href="$_micro_step_impl_8h.html" xlink:title="uscxml/interpreter\l/MicroStepImpl.h">
<polygon fill="#ffffff" stroke="#000000" points="2057.4723,-436.5 2057.4723,-466.5 2153.4723,-466.5 2153.4723,-436.5 2057.4723,-436.5"/>
<text text-anchor="start" x="2065.4723" y="-454.5" font-family="Helvetica,sans-Serif" font-size="10.00" fill="#000000">uscxml/interpreter</text>
<text text-anchor="middle" x="2105.4723" y="-443.5" font-family="Helvetica,sans-Serif" font-size="10.00" fill="#000000">/MicroStepImpl.h</text>
</a>
</g>
</g>
<!-- Node29&#45;&gt;Node41 -->
<g id="edge118" class="edge">
<title>Node29&#45;&gt;Node41</title>
<path fill="none" stroke="#191970" d="M2139.488,-503.2967C2134.0311,-494.9873 2127.1515,-484.5115 2121.0094,-475.1587"/>
<polygon fill="#191970" stroke="#191970" points="2123.832,-473.0806 2115.4171,-466.6432 2117.9809,-476.9231 2123.832,-473.0806"/>
</g>
<!-- Node42 -->
<g id="node42" class="node">
<title>Node42</title>
<g id="a_node42"><a xlink:href="$_content_executor_impl_8h.html" xlink:title="uscxml/interpreter\l/ContentExecutorImpl.h">
<polygon fill="#ffffff" stroke="#000000" points="1762.9723,-436.5 1762.9723,-466.5 1883.9723,-466.5 1883.9723,-436.5 1762.9723,-436.5"/>
<text text-anchor="start" x="1770.9723" y="-454.5" font-family="Helvetica,sans-Serif" font-size="10.00" fill="#000000">uscxml/interpreter</text>
<text text-anchor="middle" x="1823.4723" y="-443.5" font-family="Helvetica,sans-Serif" font-size="10.00" fill="#000000">/ContentExecutorImpl.h</text>
</a>
</g>
</g>
<!-- Node29&#45;&gt;Node42 -->
<g id="edge125" class="edge">
<title>Node29&#45;&gt;Node42</title>
<path fill="none" stroke="#191970" d="M2101.3699,-508.6139C2046.5628,-497.3499 1956.494,-478.8388 1893.8069,-465.9553"/>
<polygon fill="#191970" stroke="#191970" points="1894.4906,-462.5227 1883.9907,-463.9378 1893.0813,-469.3794 1894.4906,-462.5227"/>
</g>
<!-- Node45 -->
<g id="node45" class="node">
<title>Node45</title>
<g id="a_node45"><a xlink:href="$_event_queue_impl_8h.html" xlink:title="uscxml/interpreter\l/EventQueueImpl.h">
<polygon fill="#ffffff" stroke="#000000" points="2674.4723,-302.5 2674.4723,-332.5 2776.4723,-332.5 2776.4723,-302.5 2674.4723,-302.5"/>
<text text-anchor="start" x="2682.4723" y="-320.5" font-family="Helvetica,sans-Serif" font-size="10.00" fill="#000000">uscxml/interpreter</text>
<text text-anchor="middle" x="2725.4723" y="-309.5" font-family="Helvetica,sans-Serif" font-size="10.00" fill="#000000">/EventQueueImpl.h</text>
</a>
</g>
</g>
<!-- Node29&#45;&gt;Node45 -->
<g id="edge141" class="edge">
<title>Node29&#45;&gt;Node45</title>
<path fill="none" stroke="#191970" d="M2197.5877,-517.5072C2299.3334,-514.6926 2532.6143,-504.2522 2601.4723,-467 2654.879,-438.107 2694.5048,-375.8924 2713.3126,-341.5284"/>
<polygon fill="#191970" stroke="#191970" points="2716.4431,-343.0962 2718.0594,-332.6253 2710.2662,-339.8028 2716.4431,-343.0962"/>
</g>
<!-- Node31&#45;&gt;Node3 -->
<g id="edge79" class="edge">
<title>Node31&#45;&gt;Node3</title>
<path fill="none" stroke="#191970" d="M2510.5081,-307.882C2507.7072,-291.4204 2504.4325,-257.452 2519.4723,-235 2538.9425,-205.9343 2571.2493,-228.8634 2589.4723,-199 2609.6134,-165.9932 2616.2318,-139.9113 2589.4723,-112 2556.6089,-77.7221 1782.8267,-79.5403 1735.4723,-76 1714.6254,-74.4415 1691.2275,-71.9216 1673.1159,-69.8014"/>
<polygon fill="#191970" stroke="#191970" points="1673.4663,-66.3185 1663.1221,-68.6096 1672.6373,-73.2693 1673.4663,-66.3185"/>
</g>
<!-- Node31&#45;&gt;Node4 -->
<g id="edge77" class="edge">
<title>Node31&#45;&gt;Node4</title>
<path fill="none" stroke="#191970" d="M2510.485,-307.6798C2508.5045,-297.3559 2505.6007,-280.6146 2504.4723,-266 2503.4117,-252.2631 2501.9319,-248.5415 2504.4723,-235 2507.6377,-218.1271 2515.3069,-215.8729 2518.4723,-199 2521.0127,-185.4585 2527.4097,-178.4857 2518.4723,-168 2416.568,-48.4407 2325.7546,-127.9616 2169.4723,-112 1978.4716,-92.4925 1385.8617,-73.5 1195.2081,-67.7554"/>
<polygon fill="#191970" stroke="#191970" points="1195.1985,-64.2536 1185.0979,-67.4518 1194.9883,-71.2505 1195.1985,-64.2536"/>
</g>
<!-- Node31&#45;&gt;Node8 -->
<g id="edge81" class="edge">
<title>Node31&#45;&gt;Node8</title>
<path fill="none" stroke="#191970" d="M2465.2361,-308.1149C2432.9079,-300.2519 2389.9971,-286.8918 2356.4723,-266 2304.7261,-233.7531 2315.4547,-194.3527 2260.4723,-168 2182.1899,-130.4797 1910.6115,-123.5502 1821.8115,-122.2814"/>
<polygon fill="#191970" stroke="#191970" points="1821.7259,-118.7801 1811.6814,-122.1504 1821.6353,-125.7795 1821.7259,-118.7801"/>
</g>
<!-- Node31&#45;&gt;Node12 -->
<g id="edge83" class="edge">
<title>Node31&#45;&gt;Node12</title>
<path fill="none" stroke="#191970" d="M2483.1333,-307.8499C2458.5482,-299.0195 2423.1337,-284.5219 2395.4723,-266 2343.2349,-231.0222 2348.6871,-198.0588 2293.4723,-168 2237.5842,-137.5747 2161.9915,-127.1431 2123.3973,-123.6671"/>
<polygon fill="#191970" stroke="#191970" points="2123.3554,-120.1521 2113.1042,-122.8285 2122.7869,-127.129 2123.3554,-120.1521"/>
</g>
<!-- Node31&#45;&gt;Node17 -->
<g id="edge80" class="edge">
<title>Node31&#45;&gt;Node17</title>
<path fill="none" stroke="#191970" d="M2513.4859,-307.7975C2515.7392,-290.9015 2522.6393,-255.889 2542.4723,-235 2570.7205,-205.2477 2604.8146,-233.2022 2627.4723,-199 2648.8268,-166.765 2654.1412,-139.9979 2627.4723,-112 2599.0839,-82.197 1928.5399,-78.753 1887.4723,-76 1860.3077,-74.179 1829.6448,-71.5365 1806.5261,-69.4252"/>
<polygon fill="#191970" stroke="#191970" points="1806.7539,-65.9315 1796.4745,-68.4974 1806.1104,-72.9018 1806.7539,-65.9315"/>
</g>
<!-- Node31&#45;&gt;Node21 -->
<g id="edge78" class="edge">
<title>Node31&#45;&gt;Node21</title>
<path fill="none" stroke="#191970" d="M2465.3886,-314.3135C2307.3998,-303.6214 1795.1224,-268.9521 1599.4307,-255.7083"/>
<polygon fill="#191970" stroke="#191970" points="1599.4478,-252.2015 1589.2343,-255.0182 1598.9751,-259.1856 1599.4478,-252.2015"/>
</g>
<!-- Node31&#45;&gt;Node26 -->
<g id="edge82" class="edge">
<title>Node31&#45;&gt;Node26</title>
<path fill="none" stroke="#191970" d="M2465.4236,-311.9109C2424.6467,-305.495 2365.1761,-292.2636 2319.4723,-266 2290.4263,-249.3088 2264.3641,-219.8936 2249.4918,-201.0696"/>
<polygon fill="#191970" stroke="#191970" points="2252.1699,-198.8106 2243.3004,-193.0156 2246.6202,-203.0769 2252.1699,-198.8106"/>
</g>
<!-- Node31&#45;&gt;Node30 -->
<g id="edge86" class="edge">
<title>Node31&#45;&gt;Node30</title>
<path fill="none" stroke="#191970" d="M2521.2121,-307.9005C2530.7245,-297.4525 2546.1293,-280.5325 2557.7548,-267.7635"/>
<polygon fill="#191970" stroke="#191970" points="2560.6045,-269.8324 2564.7487,-260.0817 2555.4284,-265.1198 2560.6045,-269.8324"/>
</g>
<!-- Node32 -->
<g id="node32" class="node">
<title>Node32</title>
<polygon fill="#ffffff" stroke="#bfbfbf" points="2613.9723,-241 2613.9723,-260 2658.9723,-260 2658.9723,-241 2613.9723,-241"/>
<text text-anchor="middle" x="2636.4723" y="-248" font-family="Helvetica,sans-Serif" font-size="10.00" fill="#000000">thread</text>
</g>
<!-- Node31&#45;&gt;Node32 -->
<g id="edge84" class="edge">
<title>Node31&#45;&gt;Node32</title>
<path fill="none" stroke="#191970" d="M2530.2385,-307.9005C2551.0485,-296.6564 2585.7311,-277.9166 2609.781,-264.9219"/>
<polygon fill="#191970" stroke="#191970" points="2611.605,-267.9147 2618.7391,-260.0817 2608.2774,-261.7561 2611.605,-267.9147"/>
</g>
<!-- Node33 -->
<g id="node33" class="node">
<title>Node33</title>
<polygon fill="#ffffff" stroke="#bfbfbf" points="2676.9723,-241 2676.9723,-260 2773.9723,-260 2773.9723,-241 2676.9723,-241"/>
<text text-anchor="middle" x="2725.4723" y="-248" font-family="Helvetica,sans-Serif" font-size="10.00" fill="#000000">condition_variable</text>
</g>
<!-- Node31&#45;&gt;Node33 -->
<g id="edge85" class="edge">
<title>Node31&#45;&gt;Node33</title>
<path fill="none" stroke="#191970" d="M2542.99,-307.9005C2580.397,-296.134 2643.8992,-276.1591 2685.2592,-263.1492"/>
<polygon fill="#191970" stroke="#191970" points="2686.5222,-266.421 2695.0112,-260.0817 2684.4218,-259.7436 2686.5222,-266.421"/>
</g>
<!-- Node34&#45;&gt;Node3 -->
<g id="edge105" class="edge">
<title>Node34&#45;&gt;Node3</title>
<path fill="none" stroke="#191970" d="M1464.9724,-441.7567C1493.7812,-434.5079 1525.9861,-421.9 1548.4723,-400 1642.6179,-308.3086 1574.0878,-236.7319 1615.4723,-112 1618.7351,-102.1659 1624.3037,-92.1407 1629.5391,-83.9702"/>
<polygon fill="#191970" stroke="#191970" points="1632.4677,-85.8874 1635.1678,-75.6424 1626.6681,-81.9675 1632.4677,-85.8874"/>
</g>
<!-- Node34&#45;&gt;Node4 -->
<g id="edge89" class="edge">
<title>Node34&#45;&gt;Node4</title>
<path fill="none" stroke="#191970" d="M1331.9382,-449.1337C1172.4809,-443.1154 772.0004,-425.8485 640.4723,-400 547.6603,-381.7602 493.8355,-409.6921 438.4723,-333 430.408,-321.8289 431.5166,-313.8931 438.4723,-302 454.9483,-273.8286 476.7694,-286.1109 502.4723,-266 576.5112,-208.0693 563.0166,-153.2913 647.4723,-112 685.1254,-93.591 953.8323,-76.2733 1075.6731,-69.2696"/>
<polygon fill="#191970" stroke="#191970" points="1076.1585,-72.7477 1085.9429,-68.6837 1075.7597,-65.7591 1076.1585,-72.7477"/>
</g>
<!-- Node34&#45;&gt;Node11 -->
<g id="edge106" class="edge">
<title>Node34&#45;&gt;Node11</title>
<path fill="none" stroke="#191970" d="M1331.6263,-450.0878C1132.0776,-445.553 549.5384,-429.8823 469.4723,-400 339.4401,-351.4694 283.1038,-327.4271 230.4723,-199 226.4287,-189.1332 228.3215,-125.4613 232.4723,-112 235.5444,-102.0368 241.3629,-92.1091 246.9865,-84.0404"/>
<polygon fill="#191970" stroke="#191970" points="249.9414,-85.9319 253.0961,-75.8176 244.3226,-81.7571 249.9414,-85.9319"/>
</g>
<!-- Node34&#45;&gt;Node12 -->
<g id="edge104" class="edge">
<title>Node34&#45;&gt;Node12</title>
<path fill="none" stroke="#191970" d="M1465.0682,-448.7247C1602.2966,-442.5069 1907.0602,-425.9385 1946.4723,-400 1995.1358,-367.9729 2067.33,-198.6249 2090.8006,-141.1227"/>
<polygon fill="#191970" stroke="#191970" points="2094.0885,-142.3282 2094.5995,-131.7456 2087.6007,-139.6998 2094.0885,-142.3282"/>
</g>
<!-- Node34&#45;&gt;Node20 -->
<g id="edge103" class="edge">
<title>Node34&#45;&gt;Node20</title>
<path fill="none" stroke="#191970" d="M1331.9686,-445.6791C1235.7124,-436.6764 1066.6977,-418.4771 1045.4723,-400 1029.2016,-385.836 1023.6549,-361.3471 1021.9084,-342.7186"/>
<polygon fill="#191970" stroke="#191970" points="1025.3896,-342.3097 1021.2668,-332.55 1018.4035,-342.7505 1025.3896,-342.3097"/>
</g>
<!-- Node35 -->
<g id="node35" class="node">
<title>Node35</title>
<g id="a_node35"><a xlink:href="$_invoker_8h.html" xlink:title="uscxml/plugins/Invoker.h">
<polygon fill="#ffffff" stroke="#000000" points="1413.4723,-375 1413.4723,-394 1539.4723,-394 1539.4723,-375 1413.4723,-375"/>
<text text-anchor="middle" x="1476.4723" y="-382" font-family="Helvetica,sans-Serif" font-size="10.00" fill="#000000">uscxml/plugins/Invoker.h</text>
</a>
</g>
</g>
<!-- Node34&#45;&gt;Node35 -->
<g id="edge90" class="edge">
<title>Node34&#45;&gt;Node35</title>
<path fill="none" stroke="#191970" d="M1416.1717,-436.2967C1428.5604,-425.6551 1445.0858,-411.4602 1457.7038,-400.6217"/>
<polygon fill="#191970" stroke="#191970" points="1460.0435,-403.2259 1465.3486,-394.055 1455.4823,-397.9159 1460.0435,-403.2259"/>
</g>
<!-- Node37 -->
<g id="node37" class="node">
<title>Node37</title>
<g id="a_node37"><a xlink:href="$_i_o_processor_8h.html" xlink:title="uscxml/plugins/IOProcessor.h">
<polygon fill="#ffffff" stroke="#000000" points="1245.9723,-375 1245.9723,-394 1394.9723,-394 1394.9723,-375 1245.9723,-375"/>
<text text-anchor="middle" x="1320.4723" y="-382" font-family="Helvetica,sans-Serif" font-size="10.00" fill="#000000">uscxml/plugins/IOProcessor.h</text>
</a>
</g>
</g>
<!-- Node34&#45;&gt;Node37 -->
<g id="edge99" class="edge">
<title>Node34&#45;&gt;Node37</title>
<path fill="none" stroke="#191970" d="M1380.7729,-436.2967C1368.3842,-425.6551 1351.8588,-411.4602 1339.2408,-400.6217"/>
<polygon fill="#191970" stroke="#191970" points="1341.4623,-397.9159 1331.596,-394.055 1336.9011,-403.2259 1341.4623,-397.9159"/>
</g>
<!-- Node35&#45;&gt;Node4 -->
<g id="edge91" class="edge">
<title>Node35&#45;&gt;Node4</title>
<path fill="none" stroke="#191970" d="M1434.6893,-374.9945C1424.8076,-372.8882 1414.2889,-370.7613 1404.4723,-369 1349.2259,-359.0878 1195.7801,-371.0011 1154.4723,-333 1126.7811,-307.5255 1135.4723,-288.1265 1135.4723,-250.5 1135.4723,-250.5 1135.4723,-250.5 1135.4723,-183.5 1135.4723,-149.1399 1135.4723,-109.128 1135.4723,-85.7764"/>
<polygon fill="#191970" stroke="#191970" points="1138.9724,-85.7489 1135.4723,-75.7489 1131.9724,-85.749 1138.9724,-85.7489"/>
</g>
<!-- Node35&#45;&gt;Node21 -->
<g id="edge98" class="edge">
<title>Node35&#45;&gt;Node21</title>
<path fill="none" stroke="#191970" d="M1500.2624,-374.9392C1517.3815,-366.6454 1539.1944,-352.8291 1549.4723,-333 1560.3562,-312.0019 1547.7486,-285.7443 1536.3616,-268.5672"/>
<polygon fill="#191970" stroke="#191970" points="1538.9592,-266.1798 1530.3179,-260.0496 1533.2503,-270.2306 1538.9592,-266.1798"/>
</g>
<!-- Node36 -->
<g id="node36" class="node">
<title>Node36</title>
<g id="a_node36"><a xlink:href="$_event_handler_8h.html" xlink:title="uscxml/plugins/EventHandler.h">
<polygon fill="#ffffff" stroke="#000000" points="1163.4723,-308 1163.4723,-327 1317.4723,-327 1317.4723,-308 1163.4723,-308"/>
<text text-anchor="middle" x="1240.4723" y="-315" font-family="Helvetica,sans-Serif" font-size="10.00" fill="#000000">uscxml/plugins/EventHandler.h</text>
</a>
</g>
</g>
<!-- Node35&#45;&gt;Node36 -->
<g id="edge92" class="edge">
<title>Node35&#45;&gt;Node36</title>
<path fill="none" stroke="#191970" d="M1442.9099,-374.9717C1401.1777,-363.124 1329.8559,-342.8758 1283.9693,-329.8487"/>
<polygon fill="#191970" stroke="#191970" points="1284.8768,-326.4681 1274.301,-327.1039 1282.965,-333.202 1284.8768,-326.4681"/>
</g>
<!-- Node36&#45;&gt;Node3 -->
<g id="edge96" class="edge">
<title>Node36&#45;&gt;Node3</title>
<path fill="none" stroke="#191970" d="M1247.6025,-307.9706C1272.6768,-275.169 1360.6359,-165.9863 1459.4723,-112 1508.5352,-85.2009 1573.5072,-73.6899 1611.3751,-68.9933"/>
<polygon fill="#191970" stroke="#191970" points="1612.2236,-72.4186 1621.7555,-67.7935 1611.4198,-65.4649 1612.2236,-72.4186"/>
</g>
<!-- Node36&#45;&gt;Node4 -->
<g id="edge93" class="edge">
<title>Node36&#45;&gt;Node4</title>
<path fill="none" stroke="#191970" d="M1236.4844,-307.948C1220.9566,-270.7554 1164.3627,-135.1994 1143.3748,-84.9283"/>
<polygon fill="#191970" stroke="#191970" points="1146.5467,-83.4411 1139.4642,-75.5615 1140.0871,-86.138 1146.5467,-83.4411"/>
</g>
<!-- Node36&#45;&gt;Node11 -->
<g id="edge97" class="edge">
<title>Node36&#45;&gt;Node11</title>
<path fill="none" stroke="#191970" d="M1163.4398,-309.96C1136.5603,-307.374 1106.1892,-304.5026 1078.4723,-302 890.116,-284.9934 835.8175,-319.677 654.4723,-266 626.4455,-257.7042 622.3332,-248.6212 596.4723,-235 491.4725,-179.6955 465.8742,-164.5565 359.4723,-112 336.9837,-100.8919 311.3097,-88.8644 291.8829,-79.8947"/>
<polygon fill="#191970" stroke="#191970" points="293.1642,-76.6316 282.6169,-75.6295 290.2372,-82.9903 293.1642,-76.6316"/>
</g>
<!-- Node36&#45;&gt;Node12 -->
<g id="edge95" class="edge">
<title>Node36&#45;&gt;Node12</title>
<path fill="none" stroke="#191970" d="M1263.5368,-307.9087C1313.5029,-287.1885 1428.765,-239.7256 1447.4723,-235 1581.9517,-201.0291 1621.1153,-224.4062 1757.4723,-199 1811.6246,-188.9103 1823.8262,-180.5049 1877.4723,-168 1948.5959,-151.4211 2033.2758,-134.6045 2074.09,-126.6809"/>
<polygon fill="#191970" stroke="#191970" points="2074.7862,-130.1112 2083.9398,-124.7762 2073.4572,-123.2385 2074.7862,-130.1112"/>
</g>
<!-- Node36&#45;&gt;Node21 -->
<g id="edge94" class="edge">
<title>Node36&#45;&gt;Node21</title>
<path fill="none" stroke="#191970" d="M1280.5765,-307.9717C1330.9657,-295.9998 1417.4571,-275.4504 1472.2112,-262.4415"/>
<polygon fill="#191970" stroke="#191970" points="1473.1297,-265.8207 1482.0498,-260.1039 1471.5116,-259.0103 1473.1297,-265.8207"/>
</g>
<!-- Node37&#45;&gt;Node4 -->
<g id="edge100" class="edge">
<title>Node37&#45;&gt;Node4</title>
<path fill="none" stroke="#191970" d="M1273.8129,-374.9564C1218.5304,-363.2617 1132.4839,-343.6876 1121.4723,-333 1094.0702,-306.404 1097.4723,-288.6867 1097.4723,-250.5 1097.4723,-250.5 1097.4723,-250.5 1097.4723,-183.5 1097.4723,-147.2454 1114.0529,-107.6181 1125.3093,-84.8929"/>
<polygon fill="#191970" stroke="#191970" points="1128.5688,-86.2076 1130.0278,-75.7137 1122.3431,-83.0073 1128.5688,-86.2076"/>
</g>
<!-- Node37&#45;&gt;Node21 -->
<g id="edge102" class="edge">
<title>Node37&#45;&gt;Node21</title>
<path fill="none" stroke="#191970" d="M1365.9903,-374.9895C1419.3427,-363.4212 1501.763,-344.0704 1511.4723,-333 1526.5344,-315.8264 1527.1888,-288.4029 1525.4859,-269.9374"/>
<polygon fill="#191970" stroke="#191970" points="1528.9593,-269.5058 1524.2656,-260.0074 1522.0116,-270.3597 1528.9593,-269.5058"/>
</g>
<!-- Node37&#45;&gt;Node36 -->
<g id="edge101" class="edge">
<title>Node37&#45;&gt;Node36</title>
<path fill="none" stroke="#191970" d="M1309.0103,-374.9005C1296.1785,-364.1539 1275.1712,-346.5603 1259.791,-333.6794"/>
<polygon fill="#191970" stroke="#191970" points="1261.8268,-330.8191 1251.9131,-327.0817 1257.3323,-336.1856 1261.8268,-330.8191"/>
</g>
<!-- Node38&#45;&gt;Node4 -->
<g id="edge108" class="edge">
<title>Node38&#45;&gt;Node4</title>
<path fill="none" stroke="#191970" d="M1087.4668,-381.8365C963.6274,-376.4 716.4599,-362.0111 690.4723,-333 638.5333,-275.0184 746.0177,-283.2347 774.4723,-266 793.1152,-254.7082 794.3664,-247.1342 812.4723,-235 907.7933,-171.1179 937.2557,-164.1418 1039.4723,-112 1061.4427,-100.7927 1086.5952,-88.7694 1105.6415,-79.8265"/>
<polygon fill="#191970" stroke="#191970" points="1107.1525,-82.9838 1114.7275,-75.5764 1104.1865,-76.6432 1107.1525,-82.9838"/>
</g>
<!-- Node38&#45;&gt;Node20 -->
<g id="edge110" class="edge">
<title>Node38&#45;&gt;Node20</title>
<path fill="none" stroke="#191970" d="M1126.9512,-369.4639C1107.5768,-359.9191 1082.2993,-347.4663 1061.3466,-337.144"/>
<polygon fill="#191970" stroke="#191970" points="1062.8793,-333.9974 1052.362,-332.7177 1059.7858,-340.2768 1062.8793,-333.9974"/>
</g>
<!-- Node38&#45;&gt;Node21 -->
<g id="edge111" class="edge">
<title>Node38&#45;&gt;Node21</title>
<path fill="none" stroke="#191970" d="M1227.7004,-370.828C1231.0029,-370.2056 1234.2731,-369.5936 1237.4723,-369 1327.5648,-352.2849 1359.2808,-375.4734 1440.4723,-333 1470.1313,-317.4846 1495.7591,-287.476 1510.1425,-268.2458"/>
<polygon fill="#191970" stroke="#191970" points="1513.0689,-270.1723 1516.1016,-260.0208 1507.4002,-266.0654 1513.0689,-270.1723"/>
</g>
<!-- Node38&#45;&gt;Node36 -->
<g id="edge109" class="edge">
<title>Node38&#45;&gt;Node36</title>
<path fill="none" stroke="#191970" d="M1176.3063,-369.2967C1189.4892,-358.6551 1207.0738,-344.4602 1220.5007,-333.6217"/>
<polygon fill="#191970" stroke="#191970" points="1223.0528,-336.0596 1228.6355,-327.055 1218.6559,-330.6128 1223.0528,-336.0596"/>
</g>
<!-- Node39&#45;&gt;Node4 -->
<g id="edge114" class="edge">
<title>Node39&#45;&gt;Node4</title>
<path fill="none" stroke="#191970" d="M2195.8355,-374.9587C2185.8479,-365.3682 2171.3038,-349.654 2163.4723,-333 2120.9612,-242.5984 2197.7758,-177.6432 2122.4723,-112 2104.9182,-96.6978 1406.6109,-74.2471 1195.384,-67.7945"/>
<polygon fill="#191970" stroke="#191970" points="1195.2103,-64.2877 1185.1084,-67.4815 1194.9971,-71.2844 1195.2103,-64.2877"/>
</g>
<!-- Node39&#45;&gt;Node21 -->
<g id="edge116" class="edge">
<title>Node39&#45;&gt;Node21</title>
<path fill="none" stroke="#191970" d="M2157.829,-374.9705C2035.2765,-350.9617 1714.1682,-288.0545 1581.3181,-262.0283"/>
<polygon fill="#191970" stroke="#191970" points="1581.8115,-258.5585 1571.3252,-260.0706 1580.4657,-265.4279 1581.8115,-258.5585"/>
</g>
<!-- Node39&#45;&gt;Node26 -->
<g id="edge117" class="edge">
<title>Node39&#45;&gt;Node26</title>
<path fill="none" stroke="#191970" d="M2224.3918,-374.9469C2238.7528,-366.1758 2257.8744,-351.7105 2266.4723,-333 2272.2251,-320.4807 2273.3041,-313.9647 2266.4723,-302 2250.8626,-274.6623 2221.082,-293.3377 2205.4723,-266 2193.4553,-244.9543 2208.1755,-218.3696 2221.1477,-201.1564"/>
<polygon fill="#191970" stroke="#191970" points="2224.0929,-203.0784 2227.6211,-193.0883 2218.6331,-198.6977 2224.0929,-203.0784"/>
</g>
<!-- Node39&#45;&gt;Node36 -->
<g id="edge115" class="edge">
<title>Node39&#45;&gt;Node36</title>
<path fill="none" stroke="#191970" d="M2133.9065,-380.1439C2081.7603,-377.0208 2009.7825,-372.7252 1946.4723,-369 1670.9292,-352.7871 1600.5674,-365.5383 1326.4723,-333 1317.08,-331.885 1307.1619,-330.3939 1297.5312,-328.7758"/>
<polygon fill="#191970" stroke="#191970" points="1298.0849,-325.3197 1287.633,-327.0542 1296.8853,-332.2161 1298.0849,-325.3197"/>
</g>
<!-- Node40 -->
<g id="node40" class="node">
<title>Node40</title>
<polygon fill="#ffffff" stroke="#bfbfbf" points="2171.9723,-308 2171.9723,-327 2256.9723,-327 2256.9723,-308 2171.9723,-308"/>
<text text-anchor="middle" x="2214.4723" y="-315" font-family="Helvetica,sans-Serif" font-size="10.00" fill="#000000">uscxml/config.h</text>
</g>
<!-- Node39&#45;&gt;Node40 -->
<g id="edge113" class="edge">
<title>Node39&#45;&gt;Node40</title>
<path fill="none" stroke="#191970" d="M2207.6185,-374.9005C2208.7829,-365.149 2210.6204,-349.7597 2212.0998,-337.3695"/>
<polygon fill="#191970" stroke="#191970" points="2215.6178,-337.4261 2213.3282,-327.0817 2208.6672,-336.5961 2215.6178,-337.4261"/>
</g>
<!-- Node41&#45;&gt;Node3 -->
<g id="edge121" class="edge">
<title>Node41&#45;&gt;Node3</title>
<path fill="none" stroke="#191970" d="M2153.6852,-445.7326C2217.4138,-437.4346 2325.5891,-420.8109 2359.4723,-400 2408.0019,-370.1934 2499.7682,-252.7932 2518.4723,-199 2522.9972,-185.9864 2527.0513,-178.7809 2518.4723,-168 2443.3412,-73.5855 1953.688,-94.998 1735.4723,-76 1714.646,-74.1868 1691.248,-71.6685 1673.1311,-69.6127"/>
<polygon fill="#191970" stroke="#191970" points="1673.4679,-66.1284 1663.1339,-68.4645 1672.6692,-73.0827 1673.4679,-66.1284"/>
</g>
<!-- Node41&#45;&gt;Node4 -->
<g id="edge122" class="edge">
<title>Node41&#45;&gt;Node4</title>
<path fill="none" stroke="#191970" d="M2097.5579,-436.1209C2081.9289,-404.9613 2047.2533,-331.7445 2031.4723,-266 2021.2634,-223.4692 2048.4936,-203.1565 2022.4723,-168 1983.3386,-115.1278 1949.5988,-126.653 1885.4723,-112 1754.5492,-82.0838 1349.0796,-70.5338 1195.3733,-67.1586"/>
<polygon fill="#191970" stroke="#191970" points="1195.2565,-63.6554 1185.1833,-66.9388 1195.1054,-70.6538 1195.2565,-63.6554"/>
</g>
<!-- Node41&#45;&gt;Node7 -->
<g id="edge123" class="edge">
<title>Node41&#45;&gt;Node7</title>
<path fill="none" stroke="#191970" d="M2057.0848,-447.5499C2014.1326,-444.1419 1949.6557,-439.2668 1893.4723,-436 1780.633,-429.4388 993.6772,-396.6277 764.1627,-387.0987"/>
<polygon fill="#191970" stroke="#191970" points="764.1163,-383.5938 753.9798,-386.676 763.826,-390.5878 764.1163,-383.5938"/>
</g>
<!-- Node41&#45;&gt;Node12 -->
<g id="edge119" class="edge">
<title>Node41&#45;&gt;Node12</title>
<path fill="none" stroke="#191970" d="M2105.1533,-436.4859C2104.0176,-383.0254 2100.1703,-201.9251 2098.8903,-141.6762"/>
<polygon fill="#191970" stroke="#191970" points="2102.3879,-141.5231 2098.6762,-131.5997 2095.3895,-141.6719 2102.3879,-141.5231"/>
</g>
<!-- Node41&#45;&gt;Node21 -->
<g id="edge124" class="edge">
<title>Node41&#45;&gt;Node21</title>
<path fill="none" stroke="#191970" d="M2057.2267,-446.0638C2000.1044,-438.8724 1902.496,-424.1986 1821.4723,-400 1748.3872,-378.1724 1731.3513,-367.7896 1663.4723,-333 1639.8666,-320.9015 1635.319,-315.4771 1612.4723,-302 1590.9499,-289.3041 1566.3078,-275.2354 1548.2564,-265.0151"/>
<polygon fill="#191970" stroke="#191970" points="1549.8968,-261.9219 1539.4688,-260.0489 1546.4527,-268.0161 1549.8968,-261.9219"/>
</g>
<!-- Node41&#45;&gt;Node26 -->
<g id="edge120" class="edge">
<title>Node41&#45;&gt;Node26</title>
<path fill="none" stroke="#191970" d="M2153.6676,-447.7521C2214.7618,-441.8845 2314.8797,-428.1577 2337.4723,-400 2364.7301,-366.028 2358.9321,-339.902 2337.4723,-302 2322.1502,-274.9382 2298.5744,-288.8432 2277.4723,-266 2260.4959,-247.6229 2248.9581,-220.9021 2242.5509,-202.8952"/>
<polygon fill="#191970" stroke="#191970" points="2245.7953,-201.5618 2239.2951,-193.1952 2239.1591,-203.7892 2245.7953,-201.5618"/>
</g>
<!-- Node42&#45;&gt;Node3 -->
<g id="edge137" class="edge">
<title>Node42&#45;&gt;Node3</title>
<path fill="none" stroke="#191970" d="M1884.2733,-440.0386C1913.6297,-432.3057 1948.1112,-419.7864 1974.4723,-400 2089.5694,-313.6092 2219.4064,-218.3697 2122.4723,-112 2093.384,-80.0802 1778.4425,-80.3086 1735.4723,-76 1714.6716,-73.9143 1691.2733,-71.3975 1673.1501,-69.4106"/>
<polygon fill="#191970" stroke="#191970" points="1673.4715,-65.9249 1663.1484,-68.3092 1672.7052,-72.8829 1673.4715,-65.9249"/>
</g>
<!-- Node42&#45;&gt;Node4 -->
<g id="edge126" class="edge">
<title>Node42&#45;&gt;Node4</title>
<path fill="none" stroke="#191970" d="M1808.3066,-436.1921C1761.8062,-389.3576 1622.9017,-250.2503 1598.4723,-235 1463.0543,-150.4641 1279.1195,-99.3873 1189.2985,-77.898"/>
<polygon fill="#191970" stroke="#191970" points="1189.878,-74.4386 1179.3411,-75.5451 1188.2681,-81.251 1189.878,-74.4386"/>
</g>
<!-- Node42&#45;&gt;Node8 -->
<g id="edge139" class="edge">
<title>Node42&#45;&gt;Node8</title>
<path fill="none" stroke="#191970" d="M1815.0704,-436.1142C1800.1524,-408.8948 1767.9287,-350.5416 1739.4723,-302 1729.9892,-285.8236 1722.551,-284.0502 1717.4723,-266 1703.5257,-216.4323 1747.9052,-164.4969 1774.6685,-138.6595"/>
<polygon fill="#191970" stroke="#191970" points="1777.4044,-140.8934 1782.3246,-131.5103 1772.6269,-135.7771 1777.4044,-140.8934"/>
</g>
<!-- Node42&#45;&gt;Node20 -->
<g id="edge136" class="edge">
<title>Node42&#45;&gt;Node20</title>
<path fill="none" stroke="#191970" d="M1762.8187,-448.7403C1590.4206,-440.7067 1108.047,-416.8395 1078.4723,-400 1055.8238,-387.1042 1040.1717,-361.0776 1031.0784,-341.6879"/>
<polygon fill="#191970" stroke="#191970" points="1034.2723,-340.2561 1027.0291,-332.5239 1027.8695,-343.0853 1034.2723,-340.2561"/>
</g>
<!-- Node42&#45;&gt;Node21 -->
<g id="edge127" class="edge">
<title>Node42&#45;&gt;Node21</title>
<path fill="none" stroke="#191970" d="M1784.9867,-436.4908C1762.8248,-427.1961 1734.8248,-414.3211 1711.4723,-400 1644.0303,-358.6406 1573.0972,-296.8098 1540.63,-267.3187"/>
<polygon fill="#191970" stroke="#191970" points="1542.6178,-264.3935 1532.8775,-260.225 1537.8924,-269.5578 1542.6178,-264.3935"/>
</g>
<!-- Node42&#45;&gt;Node26 -->
<g id="edge138" class="edge">
<title>Node42&#45;&gt;Node26</title>
<path fill="none" stroke="#191970" d="M1884.0583,-446.9289C2006.9596,-437.3656 2275.1305,-414.901 2288.4723,-400 2298.0956,-389.252 2294.1254,-330.1867 2282.4723,-302 2274.515,-282.7527 2261.4028,-284.8155 2252.4723,-266 2242.9271,-245.8894 2239.0764,-220.4449 2237.5228,-203.1683"/>
<polygon fill="#191970" stroke="#191970" points="2241.0094,-202.8542 2236.7969,-193.1328 2234.0276,-203.3593 2241.0094,-202.8542"/>
</g>
<!-- Node43 -->
<g id="node43" class="node">
<title>Node43</title>
<g id="a_node43"><a xlink:href="$_interpreter_monitor_8h.html" xlink:title="uscxml/interpreter\l/InterpreterMonitor.h">
<polygon fill="#ffffff" stroke="#000000" points="1829.9723,-369.5 1829.9723,-399.5 1936.9723,-399.5 1936.9723,-369.5 1829.9723,-369.5"/>
<text text-anchor="start" x="1837.9723" y="-387.5" font-family="Helvetica,sans-Serif" font-size="10.00" fill="#000000">uscxml/interpreter</text>
<text text-anchor="middle" x="1883.4723" y="-376.5" font-family="Helvetica,sans-Serif" font-size="10.00" fill="#000000">/InterpreterMonitor.h</text>
</a>
</g>
</g>
<!-- Node42&#45;&gt;Node43 -->
<g id="edge128" class="edge">
<title>Node42&#45;&gt;Node43</title>
<path fill="none" stroke="#191970" d="M1837.0872,-436.2967C1844.7586,-427.7303 1854.492,-416.8614 1863.0595,-407.2943"/>
<polygon fill="#191970" stroke="#191970" points="1865.8474,-409.4276 1869.9113,-399.6432 1860.6327,-404.7578 1865.8474,-409.4276"/>
</g>
<!-- Node43&#45;&gt;Node4 -->
<g id="edge129" class="edge">
<title>Node43&#45;&gt;Node4</title>
<path fill="none" stroke="#191970" d="M1855.7294,-369.3832C1823.7114,-350.1644 1772.7392,-313.6713 1751.4723,-266 1720.9161,-197.5062 1871.6982,-166.7813 1820.4723,-112 1799.2629,-89.3186 1358.5372,-73.0785 1195.457,-67.8256"/>
<polygon fill="#191970" stroke="#191970" points="1195.2307,-64.3167 1185.124,-67.4956 1195.0072,-71.3131 1195.2307,-64.3167"/>
</g>
<!-- Node43&#45;&gt;Node20 -->
<g id="edge131" class="edge">
<title>Node43&#45;&gt;Node20</title>
<path fill="none" stroke="#191970" d="M1829.8997,-381.5523C1709.1972,-374.7277 1406.8093,-356.6047 1154.4723,-333 1129.9756,-330.7085 1103.0013,-327.6624 1079.7852,-324.8774"/>
<polygon fill="#191970" stroke="#191970" points="1080.0939,-321.3892 1069.7456,-323.6614 1079.2521,-328.3385 1080.0939,-321.3892"/>
</g>
<!-- Node43&#45;&gt;Node21 -->
<g id="edge130" class="edge">
<title>Node43&#45;&gt;Node21</title>
<path fill="none" stroke="#191970" d="M1843.767,-369.4936C1799.7403,-352.8814 1726.5939,-325.3623 1663.4723,-302 1627.7265,-288.7699 1586.8027,-273.8474 1558.2847,-263.4845"/>
<polygon fill="#191970" stroke="#191970" points="1559.3379,-260.1433 1548.7438,-260.0194 1556.9483,-266.7229 1559.3379,-260.1433"/>
</g>
<!-- Node43&#45;&gt;Node30 -->
<g id="edge135" class="edge">
<title>Node43&#45;&gt;Node30</title>
<path fill="none" stroke="#191970" d="M1926.5678,-369.4336C1981.0803,-350.928 2078.1458,-319.8075 2163.4723,-302 2302.1264,-273.0631 2470.782,-258.128 2540.6893,-252.8092"/>
<polygon fill="#191970" stroke="#191970" points="2541.3293,-256.2713 2551.0414,-252.0375 2540.8088,-249.2907 2541.3293,-256.2713"/>
</g>
<!-- Node44 -->
<g id="node44" class="node">
<title>Node44</title>
<g id="a_node44"><a xlink:href="$_interpreter_issue_8h.html" xlink:title="Identifies some common problems with SCXML documents. ">
<polygon fill="#ffffff" stroke="#000000" points="1885.9723,-168.5 1885.9723,-198.5 2012.9723,-198.5 2012.9723,-168.5 1885.9723,-168.5"/>
<text text-anchor="start" x="1893.9723" y="-186.5" font-family="Helvetica,sans-Serif" font-size="10.00" fill="#000000">uscxml/debug/Interpreter</text>
<text text-anchor="middle" x="1949.4723" y="-175.5" font-family="Helvetica,sans-Serif" font-size="10.00" fill="#000000">Issue.h</text>
</a>
</g>
</g>
<!-- Node43&#45;&gt;Node44 -->
<g id="edge132" class="edge">
<title>Node43&#45;&gt;Node44</title>
<path fill="none" stroke="#191970" d="M1888.433,-369.3923C1899.7364,-334.9685 1927.4942,-250.4334 1941.3417,-208.2615"/>
<polygon fill="#191970" stroke="#191970" points="1944.7496,-209.1016 1944.544,-198.5088 1938.0989,-206.9178 1944.7496,-209.1016"/>
</g>
<!-- Node44&#45;&gt;Node4 -->
<g id="edge133" class="edge">
<title>Node44&#45;&gt;Node4</title>
<path fill="none" stroke="#191970" d="M1934.857,-168.2302C1917.3462,-151.0695 1886.2435,-124.0393 1853.4723,-112 1792.5233,-89.6088 1356.8912,-73.2438 1195.4551,-67.8879"/>
<polygon fill="#191970" stroke="#191970" points="1195.3348,-64.3821 1185.225,-67.551 1195.1044,-71.3783 1195.3348,-64.3821"/>
</g>
<!-- Node44&#45;&gt;Node12 -->
<g id="edge134" class="edge">
<title>Node44&#45;&gt;Node12</title>
<path fill="none" stroke="#191970" d="M1985.9218,-168.4554C2013.5129,-157.0671 2050.6219,-141.7503 2074.5476,-131.875"/>
<polygon fill="#191970" stroke="#191970" points="2076.0199,-135.0538 2083.9281,-128.0031 2073.3491,-128.5833 2076.0199,-135.0538"/>
</g>
<!-- Node45&#45;&gt;Node3 -->
<g id="edge144" class="edge">
<title>Node45&#45;&gt;Node3</title>
<path fill="none" stroke="#191970" d="M2776.8481,-308.5256C2820.6087,-299.7114 2878.5537,-284.8576 2892.4723,-266 2938.7837,-203.2549 2902.0249,-164.6428 2802.4723,-112 2697.6079,-56.5484 1853.8013,-84.3466 1735.4723,-76 1714.6191,-74.5291 1691.2212,-72.0087 1673.1111,-69.8664"/>
<polygon fill="#191970" stroke="#191970" points="1673.4661,-66.3839 1663.1185,-68.6595 1672.6266,-73.3334 1673.4661,-66.3839"/>
</g>
<!-- Node45&#45;&gt;Node4 -->
<g id="edge142" class="edge">
<title>Node45&#45;&gt;Node4</title>
<path fill="none" stroke="#191970" d="M2773.5351,-302.4175C2811.9465,-287.8166 2855.9337,-263.7117 2833.4723,-235 2693.5291,-56.1143 2562.3505,-143.8429 2337.4723,-112 2224.0698,-95.9421 1422.3296,-73.6253 1195.2668,-67.5689"/>
<polygon fill="#191970" stroke="#191970" points="1195.2988,-64.0686 1185.2092,-67.3013 1195.1125,-71.0661 1195.2988,-64.0686"/>
</g>
<!-- Node45&#45;&gt;Node8 -->
<g id="edge145" class="edge">
<title>Node45&#45;&gt;Node8</title>
<path fill="none" stroke="#191970" d="M2748.8214,-302.3077C2772.5834,-285.0434 2803.3096,-256.48 2783.4723,-235 2715.1094,-160.9757 2424.9762,-236.5513 2331.4723,-199 2311.2465,-190.8773 2313.6479,-176.2466 2293.4723,-168 2206.9185,-132.622 1914.3035,-124.2343 1821.7706,-122.4451"/>
<polygon fill="#191970" stroke="#191970" points="1821.5673,-118.9409 1811.5052,-122.2583 1821.4399,-125.9398 1821.5673,-118.9409"/>
</g>
<!-- Node45&#45;&gt;Node12 -->
<g id="edge146" class="edge">
<title>Node45&#45;&gt;Node12</title>
<path fill="none" stroke="#191970" d="M2763.0151,-302.4669C2797.4078,-286.6029 2839.7047,-260.4229 2816.4723,-235 2756.4158,-169.2809 2504.5589,-217.485 2417.4723,-199 2375.6767,-190.1285 2367.7221,-179.1372 2326.4723,-168 2253.4668,-148.289 2165.2662,-132.8008 2123.1664,-125.9047"/>
<polygon fill="#191970" stroke="#191970" points="2123.4588,-122.4066 2113.0282,-124.265 2122.3411,-129.3168 2123.4588,-122.4066"/>
</g>
<!-- Node45&#45;&gt;Node21 -->
<g id="edge143" class="edge">
<title>Node45&#45;&gt;Node21</title>
<path fill="none" stroke="#191970" d="M2674.2684,-311.7351C2643.6124,-308.4608 2603.8517,-304.524 2568.4723,-302 2205.9303,-276.1356 2114.3699,-286.2739 1751.4723,-266 1700.7201,-263.1646 1643.6868,-259.3063 1599.2338,-256.1486"/>
<polygon fill="#191970" stroke="#191970" points="1599.3075,-252.645 1589.0837,-255.4242 1598.8092,-259.6273 1599.3075,-252.645"/>
</g>
<!-- Node45&#45;&gt;Node30 -->
<g id="edge148" class="edge">
<title>Node45&#45;&gt;Node30</title>
<path fill="none" stroke="#191970" d="M2689.3144,-302.4896C2665.3987,-292.437 2633.4175,-278.7565 2605.4723,-266 2604.4615,-265.5386 2603.4346,-265.0654 2602.399,-264.5845"/>
<polygon fill="#191970" stroke="#191970" points="2603.5721,-261.2674 2593.0362,-260.151 2600.5763,-267.594 2603.5721,-261.2674"/>
</g>
<!-- Node45&#45;&gt;Node32 -->
<g id="edge147" class="edge">
<title>Node45&#45;&gt;Node32</title>
<path fill="none" stroke="#191970" d="M2705.2768,-302.2967C2691.0063,-291.5537 2671.9255,-277.1895 2657.4775,-266.3129"/>
<polygon fill="#191970" stroke="#191970" points="2659.259,-263.2731 2649.1647,-260.055 2655.0489,-268.8656 2659.259,-263.2731"/>
</g>
<!-- Node45&#45;&gt;Node33 -->
<g id="edge149" class="edge">
<title>Node45&#45;&gt;Node33</title>
<path fill="none" stroke="#191970" d="M2725.4723,-302.2967C2725.4723,-292.7699 2725.4723,-280.3954 2725.4723,-270.1306"/>
<polygon fill="#191970" stroke="#191970" points="2728.9724,-270.0549 2725.4723,-260.055 2721.9724,-270.055 2728.9724,-270.0549"/>
</g>
<!-- Node46&#45;&gt;Node3 -->
<g id="edge153" class="edge">
<title>Node46&#45;&gt;Node3</title>
<path fill="none" stroke="#191970" d="M3073.5464,-240.9503C3050.0983,-232.9252 3019.4677,-219.4392 2998.4723,-199 2967.4245,-168.7748 2991.0445,-135.238 2954.4723,-112 2897.2878,-75.665 1803.066,-80.6252 1735.4723,-76 1714.616,-74.5729 1691.2181,-72.0523 1673.1089,-69.8989"/>
<polygon fill="#191970" stroke="#191970" points="1673.466,-66.4166 1663.1168,-68.6844 1672.6214,-73.3655 1673.466,-66.4166"/>
</g>
<!-- Node46&#45;&gt;Node4 -->
<g id="edge154" class="edge">
<title>Node46&#45;&gt;Node4</title>
<path fill="none" stroke="#191970" d="M3081.3065,-240.8759C3054.8615,-230.9764 3012.9495,-214.8122 2977.4723,-199 2898.1365,-163.64 2886.7486,-133.0238 2802.4723,-112 2762.7164,-102.0824 1489.0385,-73.7195 1195.428,-67.3016"/>
<polygon fill="#191970" stroke="#191970" points="1195.4745,-63.8019 1185.4004,-67.0826 1195.3216,-70.8002 1195.4745,-63.8019"/>
</g>
<!-- Node46&#45;&gt;Node12 -->
<g id="edge152" class="edge">
<title>Node46&#45;&gt;Node12</title>
<path fill="none" stroke="#191970" d="M3058.2826,-243.1002C2957.2606,-228.0157 2719.0392,-193.0242 2518.4723,-168 2368.4715,-149.2848 2187.8042,-130.8922 2123.0456,-124.4305"/>
<polygon fill="#191970" stroke="#191970" points="2123.296,-120.9382 2112.9986,-123.4311 2122.603,-127.9038 2123.296,-120.9382"/>
</g>
<!-- Node46&#45;&gt;Node26 -->
<g id="edge151" class="edge">
<title>Node46&#45;&gt;Node26</title>
<path fill="none" stroke="#191970" d="M3058.463,-246.7301C2896.552,-234.2754 2382.2586,-194.7143 2261.8612,-185.453"/>
<polygon fill="#191970" stroke="#191970" points="2261.9987,-181.9533 2251.7596,-184.6759 2261.4617,-188.9327 2261.9987,-181.9533"/>
</g>
<!-- Node47 -->
<g id="node47" class="node">
<title>Node47</title>
<polygon fill="#ffffff" stroke="#bfbfbf" points="3006.9723,-174 3006.9723,-193 3141.9723,-193 3141.9723,-174 3006.9723,-174"/>
<text text-anchor="middle" x="3074.4723" y="-181" font-family="Helvetica,sans-Serif" font-size="10.00" fill="#000000">xercesc/util/XMLString.hpp</text>
</g>
<!-- Node46&#45;&gt;Node47 -->
<g id="edge155" class="edge">
<title>Node46&#45;&gt;Node47</title>
<path fill="none" stroke="#191970" d="M3102.7442,-240.9005C3097.7942,-230.8505 3089.8947,-214.8122 3083.7026,-202.2403"/>
<polygon fill="#191970" stroke="#191970" points="3086.75,-200.5061 3079.1916,-193.0817 3080.4704,-203.5991 3086.75,-200.5061"/>
</g>
<!-- Node48 -->
<g id="node48" class="node">
<title>Node48</title>
<polygon fill="#ffffff" stroke="#bfbfbf" points="3159.9723,-174 3159.9723,-193 3278.9723,-193 3278.9723,-174 3159.9723,-174"/>
<text text-anchor="middle" x="3219.4723" y="-181" font-family="Helvetica,sans-Serif" font-size="10.00" fill="#000000">xercesc/dom/DOM.hpp</text>
</g>
<!-- Node46&#45;&gt;Node48 -->
<g id="edge156" class="edge">
<title>Node46&#45;&gt;Node48</title>
<path fill="none" stroke="#191970" d="M3123.5192,-240.9005C3142.149,-229.7559 3173.0881,-211.2477 3194.7851,-198.2682"/>
<polygon fill="#191970" stroke="#191970" points="3196.6703,-201.219 3203.4552,-193.0817 3193.0767,-195.2118 3196.6703,-201.219"/>
</g>
</g>
</svg>
