<?xml version="1.0" encoding="UTF-8" standalone="no"?>
<!DOCTYPE svg PUBLIC "-//W3C//DTD SVG 1.1//EN"
 "http://www.w3.org/Graphics/SVG/1.1/DTD/svg11.dtd">
<!-- Generated by graphviz version 2.38.0 (20140413.2041)
 -->
<!-- Title: debug/Breakpoint.cpp Pages: 1 -->
<svg width="3297pt" height="788pt"
 viewBox="0.00 0.00 3296.81 788.00" xmlns="http://www.w3.org/2000/svg" xmlns:xlink="http://www.w3.org/1999/xlink">
<g id="graph0" class="graph" transform="scale(1 1) rotate(0) translate(4 784)">
<title>debug/Breakpoint.cpp</title>
<polygon fill="white" stroke="none" points="-4,4 -4,-784 3292.81,-784 3292.81,4 -4,4"/>
<!-- Node1 -->
<g id="node1" class="node"><title>Node1</title>
<polygon fill="#bfbfbf" stroke="black" points="1278.31,-760.5 1278.31,-779.5 1392.31,-779.5 1392.31,-760.5 1278.31,-760.5"/>
<text text-anchor="middle" x="1335.31" y="-767.5" font-family="Helvetica,sans-Serif" font-size="10.00">debug/Breakpoint.cpp</text>
</g>
<!-- Node2 -->
<g id="node2" class="node"><title>Node2</title>
<g id="a_node2"><a xlink:href="_breakpoint_8h.html" target="_top" xlink:title="uscxml/debug/Breakpoint.h">
<polygon fill="white" stroke="black" points="827.805,-632 827.805,-651 964.805,-651 964.805,-632 827.805,-632"/>
<text text-anchor="middle" x="896.305" y="-639" font-family="Helvetica,sans-Serif" font-size="10.00">uscxml/debug/Breakpoint.h</text>
</a>
</g>
</g>
<!-- Node1&#45;&gt;Node2 -->
<g id="edge1" class="edge"><title>Node1&#45;&gt;Node2</title>
<path fill="none" stroke="midnightblue" d="M1305.48,-760.405C1228.35,-738.179 1022.3,-678.806 935.607,-653.825"/>
<polygon fill="midnightblue" stroke="midnightblue" points="936.465,-650.43 925.887,-651.024 934.526,-657.156 936.465,-650.43"/>
</g>
<!-- Node7 -->
<g id="node7" class="node"><title>Node7</title>
<g id="a_node7"><a xlink:href="_interpreter_8h.html" target="_top" xlink:title="uscxml/Interpreter.h">
<polygon fill="white" stroke="black" points="1282.81,-570.5 1282.81,-589.5 1387.81,-589.5 1387.81,-570.5 1282.81,-570.5"/>
<text text-anchor="middle" x="1335.31" y="-577.5" font-family="Helvetica,sans-Serif" font-size="10.00">uscxml/Interpreter.h</text>
</a>
</g>
</g>
<!-- Node1&#45;&gt;Node7 -->
<g id="edge92" class="edge"><title>Node1&#45;&gt;Node7</title>
<path fill="none" stroke="midnightblue" d="M1335.31,-760.434C1335.31,-731.928 1335.31,-639.822 1335.31,-599.826"/>
<polygon fill="midnightblue" stroke="midnightblue" points="1338.81,-599.617 1335.31,-589.617 1331.81,-599.617 1338.81,-599.617"/>
</g>
<!-- Node30 -->
<g id="node30" class="node"><title>Node30</title>
<g id="a_node30"><a xlink:href="_string_8h.html" target="_top" xlink:title="string.h">
<polygon fill="white" stroke="black" points="761.805,-453 761.805,-472 810.805,-472 810.805,-453 761.805,-453"/>
<text text-anchor="middle" x="786.305" y="-460" font-family="Helvetica,sans-Serif" font-size="10.00">string.h</text>
</a>
</g>
</g>
<!-- Node1&#45;&gt;Node30 -->
<g id="edge151" class="edge"><title>Node1&#45;&gt;Node30</title>
<path fill="none" stroke="midnightblue" d="M1278.07,-764.785C1156.72,-754.606 879.691,-724.381 818.305,-657 773.418,-607.728 778.467,-520.671 783.33,-482.422"/>
<polygon fill="midnightblue" stroke="midnightblue" points="786.838,-482.606 784.777,-472.214 779.908,-481.623 786.838,-482.606"/>
</g>
<!-- Node34 -->
<g id="node34" class="node"><title>Node34</title>
<g id="a_node34"><a xlink:href="_interpreter_impl_8h.html" target="_top" xlink:title="uscxml/interpreter\l/InterpreterImpl.h">
<polygon fill="white" stroke="black" points="2156.31,-693.5 2156.31,-723.5 2252.31,-723.5 2252.31,-693.5 2156.31,-693.5"/>
<text text-anchor="start" x="2164.31" y="-711.5" font-family="Helvetica,sans-Serif" font-size="10.00">uscxml/interpreter</text>
<text text-anchor="middle" x="2204.31" y="-700.5" font-family="Helvetica,sans-Serif" font-size="10.00">/InterpreterImpl.h</text>
</a>
</g>
</g>
<!-- Node1&#45;&gt;Node34 -->
<g id="edge93" class="edge"><title>Node1&#45;&gt;Node34</title>
<path fill="none" stroke="midnightblue" d="M1392.32,-765.096C1549.45,-754.338 1987.5,-724.344 2146.07,-713.487"/>
<polygon fill="midnightblue" stroke="midnightblue" points="2146.37,-716.975 2156.1,-712.8 2145.89,-709.992 2146.37,-716.975"/>
</g>
<!-- Node45 -->
<g id="node45" class="node"><title>Node45</title>
<g id="a_node45"><a xlink:href="_d_o_m_8h.html" target="_top" xlink:title="uscxml/util/DOM.h">
<polygon fill="white" stroke="black" points="2939.31,-319 2939.31,-338 3037.31,-338 3037.31,-319 2939.31,-319"/>
<text text-anchor="middle" x="2988.31" y="-326" font-family="Helvetica,sans-Serif" font-size="10.00">uscxml/util/DOM.h</text>
</a>
</g>
</g>
<!-- Node1&#45;&gt;Node45 -->
<g id="edge150" class="edge"><title>Node1&#45;&gt;Node45</title>
<path fill="none" stroke="midnightblue" d="M1392.65,-767.675C1684.09,-760.575 2987.31,-724.254 2987.31,-642.5 2987.31,-642.5 2987.31,-642.5 2987.31,-461.5 2987.31,-421.157 2987.78,-373.879 2988.07,-348.281"/>
<polygon fill="midnightblue" stroke="midnightblue" points="2991.57,-348.19 2988.19,-338.149 2984.58,-348.106 2991.57,-348.19"/>
</g>
<!-- Node3 -->
<g id="node3" class="node"><title>Node3</title>
<polygon fill="white" stroke="#bfbfbf" points="579.805,-56.5 579.805,-75.5 620.805,-75.5 620.805,-56.5 579.805,-56.5"/>
<text text-anchor="middle" x="600.305" y="-63.5" font-family="Helvetica,sans-Serif" font-size="10.00">string</text>
</g>
<!-- Node2&#45;&gt;Node3 -->
<g id="edge2" class="edge"><title>Node2&#45;&gt;Node3</title>
<path fill="none" stroke="midnightblue" d="M827.767,-640.57C696.181,-639.709 413.546,-632.761 327.305,-590 238.404,-545.92 157.363,-433.987 111.305,-277 90.661,-206.633 61.8839,-166.178 111.305,-112 142.242,-78.0857 467.247,-69.3851 569.612,-67.4778"/>
<polygon fill="midnightblue" stroke="midnightblue" points="569.684,-70.9772 579.62,-67.3 569.56,-63.9783 569.684,-70.9772"/>
</g>
<!-- Node4 -->
<g id="node4" class="node"><title>Node4</title>
<g id="a_node4"><a xlink:href="_common_8h.html" target="_top" xlink:title="uscxml/Common.h">
<polygon fill="white" stroke="black" points="1745.81,-56.5 1745.81,-75.5 1844.81,-75.5 1844.81,-56.5 1745.81,-56.5"/>
<text text-anchor="middle" x="1795.31" y="-63.5" font-family="Helvetica,sans-Serif" font-size="10.00">uscxml/Common.h</text>
</a>
</g>
</g>
<!-- Node2&#45;&gt;Node4 -->
<g id="edge3" class="edge"><title>Node2&#45;&gt;Node4</title>
<path fill="none" stroke="midnightblue" d="M827.623,-636.632C683.255,-626.859 364.28,-595.857 398.305,-514 446.918,-397.05 497.982,-387.635 600.305,-313 705.016,-236.625 734.398,-213.575 859.305,-179 982.48,-144.905 1315.64,-192.883 1433.31,-143 1452.13,-135.019 1448.78,-120.67 1467.31,-112 1513.67,-90.2963 1654.32,-77.0088 1735.59,-70.9334"/>
<polygon fill="midnightblue" stroke="midnightblue" points="1735.97,-74.4155 1745.69,-70.1934 1735.46,-67.4343 1735.97,-74.4155"/>
</g>
<!-- Node2&#45;&gt;Node7 -->
<g id="edge6" class="edge"><title>Node2&#45;&gt;Node7</title>
<path fill="none" stroke="midnightblue" d="M959.203,-631.975C1042.62,-620.67 1188.98,-600.832 1272.4,-589.526"/>
<polygon fill="midnightblue" stroke="midnightblue" points="1273.06,-592.968 1282.5,-588.157 1272.12,-586.032 1273.06,-592.968"/>
</g>
<!-- Node16 -->
<g id="node16" class="node"><title>Node16</title>
<g id="a_node16"><a xlink:href="_data_8h.html" target="_top" xlink:title="uscxml/messages/Data.h">
<polygon fill="white" stroke="black" points="1181.31,-185 1181.31,-204 1309.31,-204 1309.31,-185 1181.31,-185"/>
<text text-anchor="middle" x="1245.31" y="-192" font-family="Helvetica,sans-Serif" font-size="10.00">uscxml/messages/Data.h</text>
</a>
</g>
</g>
<!-- Node2&#45;&gt;Node16 -->
<g id="edge91" class="edge"><title>Node2&#45;&gt;Node16</title>
<path fill="none" stroke="midnightblue" d="M935.212,-631.937C1005.24,-613.979 1145.31,-565.333 1145.31,-463.5 1145.31,-463.5 1145.31,-463.5 1145.31,-394.5 1145.31,-327.077 1139.79,-302.676 1176.31,-246 1186.46,-230.236 1203.4,-217.733 1217.95,-209.111"/>
<polygon fill="midnightblue" stroke="midnightblue" points="1220.05,-211.946 1227.07,-204.01 1216.63,-205.836 1220.05,-211.946"/>
</g>
<!-- Node5 -->
<g id="node5" class="node"><title>Node5</title>
<polygon fill="white" stroke="#bfbfbf" points="1721.31,-0.5 1721.31,-19.5 1793.31,-19.5 1793.31,-0.5 1721.31,-0.5"/>
<text text-anchor="middle" x="1757.31" y="-7.5" font-family="Helvetica,sans-Serif" font-size="10.00">sys/socket.h</text>
</g>
<!-- Node4&#45;&gt;Node5 -->
<g id="edge4" class="edge"><title>Node4&#45;&gt;Node5</title>
<path fill="none" stroke="midnightblue" d="M1789.03,-56.083C1783.66,-48.4554 1775.79,-37.2645 1769.23,-27.9408"/>
<polygon fill="midnightblue" stroke="midnightblue" points="1772.08,-25.9149 1763.46,-19.7511 1766.36,-29.9434 1772.08,-25.9149"/>
</g>
<!-- Node6 -->
<g id="node6" class="node"><title>Node6</title>
<polygon fill="white" stroke="#bfbfbf" points="1811.31,-0.5 1811.31,-19.5 1855.31,-19.5 1855.31,-0.5 1811.31,-0.5"/>
<text text-anchor="middle" x="1833.31" y="-7.5" font-family="Helvetica,sans-Serif" font-size="10.00">cmath</text>
</g>
<!-- Node4&#45;&gt;Node6 -->
<g id="edge5" class="edge"><title>Node4&#45;&gt;Node6</title>
<path fill="none" stroke="midnightblue" d="M1801.58,-56.083C1806.95,-48.4554 1814.82,-37.2645 1821.38,-27.9408"/>
<polygon fill="midnightblue" stroke="midnightblue" points="1824.25,-29.9434 1827.15,-19.7511 1818.53,-25.9149 1824.25,-29.9434"/>
</g>
<!-- Node7&#45;&gt;Node3 -->
<g id="edge9" class="edge"><title>Node7&#45;&gt;Node3</title>
<path fill="none" stroke="midnightblue" d="M1282.76,-577.174C1087.94,-570.316 417.133,-545.887 398.305,-534 255.571,-443.885 193.84,-332.845 263.305,-179 281.836,-137.96 298.693,-131.45 339.305,-112 416.19,-75.1785 518.602,-68.0884 569.243,-66.9782"/>
<polygon fill="midnightblue" stroke="midnightblue" points="569.578,-70.4736 579.524,-66.8211 569.471,-63.4744 569.578,-70.4736"/>
</g>
<!-- Node7&#45;&gt;Node4 -->
<g id="edge7" class="edge"><title>Node7&#45;&gt;Node4</title>
<path fill="none" stroke="midnightblue" d="M1351.09,-570.427C1366.72,-561.763 1391.16,-547.729 1411.31,-534 1564.93,-429.321 1600.08,-397.88 1741.31,-277 1756.59,-263.915 1757.83,-257.558 1774.31,-246 1857.12,-187.889 1924.37,-229.218 1977.31,-143 2007.53,-93.7657 1918.86,-76.4167 1854.88,-70.3098"/>
<polygon fill="midnightblue" stroke="midnightblue" points="1855.12,-66.8171 1844.85,-69.4231 1854.5,-73.7899 1855.12,-66.8171"/>
</g>
<!-- Node8 -->
<g id="node8" class="node"><title>Node8</title>
<polygon fill="white" stroke="#bfbfbf" points="2306.31,-118 2306.31,-137 2342.31,-137 2342.31,-118 2306.31,-118"/>
<text text-anchor="middle" x="2324.31" y="-125" font-family="Helvetica,sans-Serif" font-size="10.00">map</text>
</g>
<!-- Node7&#45;&gt;Node8 -->
<g id="edge8" class="edge"><title>Node7&#45;&gt;Node8</title>
<path fill="none" stroke="midnightblue" d="M1388.12,-578.086C1603.01,-572.97 2400.31,-539.816 2400.31,-329.5 2400.31,-329.5 2400.31,-329.5 2400.31,-260.5 2400.31,-213.191 2363.19,-167.538 2340.83,-144.332"/>
<polygon fill="midnightblue" stroke="midnightblue" points="2343.16,-141.71 2333.62,-137.094 2338.2,-146.649 2343.16,-141.71"/>
</g>
<!-- Node9 -->
<g id="node9" class="node"><title>Node9</title>
<polygon fill="white" stroke="#bfbfbf" points="407.305,-514.5 407.305,-533.5 451.305,-533.5 451.305,-514.5 407.305,-514.5"/>
<text text-anchor="middle" x="429.305" y="-521.5" font-family="Helvetica,sans-Serif" font-size="10.00">vector</text>
</g>
<!-- Node7&#45;&gt;Node9 -->
<g id="edge10" class="edge"><title>Node7&#45;&gt;Node9</title>
<path fill="none" stroke="midnightblue" d="M1282.62,-576.869C1106.65,-569.671 545.846,-546.035 465.305,-534 464.051,-533.813 462.777,-533.601 461.493,-533.369"/>
<polygon fill="midnightblue" stroke="midnightblue" points="462.146,-529.93 451.639,-531.294 460.703,-536.78 462.146,-529.93"/>
</g>
<!-- Node10 -->
<g id="node10" class="node"><title>Node10</title>
<g id="a_node10"><a xlink:href="_micro_step_8h.html" target="_top" xlink:title="uscxml/interpreter\l/MicroStep.h">
<polygon fill="white" stroke="black" points="1441.31,-179.5 1441.31,-209.5 1537.31,-209.5 1537.31,-179.5 1441.31,-179.5"/>
<text text-anchor="start" x="1449.31" y="-197.5" font-family="Helvetica,sans-Serif" font-size="10.00">uscxml/interpreter</text>
<text text-anchor="middle" x="1489.31" y="-186.5" font-family="Helvetica,sans-Serif" font-size="10.00">/MicroStep.h</text>
</a>
</g>
</g>
<!-- Node7&#45;&gt;Node10 -->
<g id="edge11" class="edge"><title>Node7&#45;&gt;Node10</title>
<path fill="none" stroke="midnightblue" d="M1341.53,-570.176C1365.81,-535.176 1454.37,-401.946 1486.31,-277 1491.09,-258.275 1491.63,-236.348 1491.08,-219.956"/>
<polygon fill="midnightblue" stroke="midnightblue" points="1494.56,-219.417 1490.57,-209.601 1487.57,-219.76 1494.56,-219.417"/>
</g>
<!-- Node13 -->
<g id="node13" class="node"><title>Node13</title>
<g id="a_node13"><a xlink:href="_interpreter_state_8h.html" target="_top" xlink:title="uscxml/interpreter\l/InterpreterState.h">
<polygon fill="white" stroke="black" points="1785.81,-112.5 1785.81,-142.5 1882.81,-142.5 1882.81,-112.5 1785.81,-112.5"/>
<text text-anchor="start" x="1793.81" y="-130.5" font-family="Helvetica,sans-Serif" font-size="10.00">uscxml/interpreter</text>
<text text-anchor="middle" x="1834.31" y="-119.5" font-family="Helvetica,sans-Serif" font-size="10.00">/InterpreterState.h</text>
</a>
</g>
</g>
<!-- Node7&#45;&gt;Node13 -->
<g id="edge90" class="edge"><title>Node7&#45;&gt;Node13</title>
<path fill="none" stroke="midnightblue" d="M1345.12,-570.415C1355.42,-561.391 1372.05,-546.76 1386.31,-534 1528.12,-407.026 1562.01,-373.55 1703.31,-246 1740.92,-212.049 1784.77,-172.774 1811,-149.322"/>
<polygon fill="midnightblue" stroke="midnightblue" points="1813.43,-151.85 1818.55,-142.575 1808.76,-146.631 1813.43,-151.85"/>
</g>
<!-- Node14 -->
<g id="node14" class="node"><title>Node14</title>
<g id="a_node14"><a xlink:href="_logging_8h.html" target="_top" xlink:title="uscxml/interpreter\l/Logging.h">
<polygon fill="white" stroke="black" points="1287.31,-313.5 1287.31,-343.5 1383.31,-343.5 1383.31,-313.5 1287.31,-313.5"/>
<text text-anchor="start" x="1295.31" y="-331.5" font-family="Helvetica,sans-Serif" font-size="10.00">uscxml/interpreter</text>
<text text-anchor="middle" x="1335.31" y="-320.5" font-family="Helvetica,sans-Serif" font-size="10.00">/Logging.h</text>
</a>
</g>
</g>
<!-- Node7&#45;&gt;Node14 -->
<g id="edge18" class="edge"><title>Node7&#45;&gt;Node14</title>
<path fill="none" stroke="midnightblue" d="M1335.31,-570.412C1335.31,-536.021 1335.31,-407.512 1335.31,-353.573"/>
<polygon fill="midnightblue" stroke="midnightblue" points="1338.81,-353.542 1335.31,-343.542 1331.81,-353.542 1338.81,-353.542"/>
</g>
<!-- Node23 -->
<g id="node23" class="node"><title>Node23</title>
<g id="a_node23"><a xlink:href="_data_model_8h.html" target="_top" xlink:title="uscxml/plugins/DataModel.h">
<polygon fill="white" stroke="black" points="609.305,-319 609.305,-338 751.305,-338 751.305,-319 609.305,-319"/>
<text text-anchor="middle" x="680.305" y="-326" font-family="Helvetica,sans-Serif" font-size="10.00">uscxml/plugins/DataModel.h</text>
</a>
</g>
</g>
<!-- Node7&#45;&gt;Node23 -->
<g id="edge41" class="edge"><title>Node7&#45;&gt;Node23</title>
<path fill="none" stroke="midnightblue" d="M1282.54,-577C1106.28,-570.196 548.177,-547.615 535.305,-534 474.398,-469.57 602.245,-378.185 657.009,-343.544"/>
<polygon fill="midnightblue" stroke="midnightblue" points="659.087,-346.373 665.729,-338.118 655.389,-340.43 659.087,-346.373"/>
</g>
<!-- Node24 -->
<g id="node24" class="node"><title>Node24</title>
<g id="a_node24"><a xlink:href="_factory_8h.html" target="_top" xlink:title="uscxml/plugins/Factory.h">
<polygon fill="white" stroke="black" points="544.805,-514.5 544.805,-533.5 671.805,-533.5 671.805,-514.5 544.805,-514.5"/>
<text text-anchor="middle" x="608.305" y="-521.5" font-family="Helvetica,sans-Serif" font-size="10.00">uscxml/plugins/Factory.h</text>
</a>
</g>
</g>
<!-- Node7&#45;&gt;Node24 -->
<g id="edge47" class="edge"><title>Node7&#45;&gt;Node24</title>
<path fill="none" stroke="midnightblue" d="M1282.73,-575.095C1155.24,-565.625 829.349,-541.419 682.283,-530.495"/>
<polygon fill="midnightblue" stroke="midnightblue" points="682.24,-526.982 672.009,-529.732 681.722,-533.963 682.24,-526.982"/>
</g>
<!-- Node32 -->
<g id="node32" class="node"><title>Node32</title>
<g id="a_node32"><a xlink:href="_content_executor_8h.html" target="_top" xlink:title="uscxml/interpreter\l/ContentExecutor.h">
<polygon fill="white" stroke="black" points="951.305,-246.5 951.305,-276.5 1053.31,-276.5 1053.31,-246.5 951.305,-246.5"/>
<text text-anchor="start" x="959.305" y="-264.5" font-family="Helvetica,sans-Serif" font-size="10.00">uscxml/interpreter</text>
<text text-anchor="middle" x="1002.31" y="-253.5" font-family="Helvetica,sans-Serif" font-size="10.00">/ContentExecutor.h</text>
</a>
</g>
</g>
<!-- Node7&#45;&gt;Node32 -->
<g id="edge83" class="edge"><title>Node7&#45;&gt;Node32</title>
<path fill="none" stroke="midnightblue" d="M1326.05,-570.205C1281.74,-528.088 1090.67,-346.486 1024.76,-283.841"/>
<polygon fill="midnightblue" stroke="midnightblue" points="1027.02,-281.161 1017.36,-276.809 1022.2,-286.235 1027.02,-281.161"/>
</g>
<!-- Node33 -->
<g id="node33" class="node"><title>Node33</title>
<g id="a_node33"><a xlink:href="_event_queue_8h.html" target="_top" xlink:title="uscxml/interpreter\l/EventQueue.h">
<polygon fill="white" stroke="black" points="1598.31,-447.5 1598.31,-477.5 1694.31,-477.5 1694.31,-447.5 1598.31,-447.5"/>
<text text-anchor="start" x="1606.31" y="-465.5" font-family="Helvetica,sans-Serif" font-size="10.00">uscxml/interpreter</text>
<text text-anchor="middle" x="1646.31" y="-454.5" font-family="Helvetica,sans-Serif" font-size="10.00">/EventQueue.h</text>
</a>
</g>
</g>
<!-- Node7&#45;&gt;Node33 -->
<g id="edge87" class="edge"><title>Node7&#45;&gt;Node33</title>
<path fill="none" stroke="midnightblue" d="M1388.27,-579.344C1441.14,-577.502 1523.1,-568.565 1584.31,-534 1604.36,-522.676 1621.16,-502.38 1632.19,-486.464"/>
<polygon fill="midnightblue" stroke="midnightblue" points="1635.39,-487.968 1638,-477.699 1629.56,-484.1 1635.39,-487.968"/>
</g>
<!-- Node10&#45;&gt;Node3 -->
<g id="edge14" class="edge"><title>Node10&#45;&gt;Node3</title>
<path fill="none" stroke="midnightblue" d="M1441.08,-182.005C1381.06,-167.659 1285.93,-144.777 1282.31,-143 1262.42,-133.261 1263.94,-120.022 1243.31,-112 1185.91,-89.6881 751.795,-72.4748 631.262,-68.0888"/>
<polygon fill="midnightblue" stroke="midnightblue" points="631.031,-64.5783 620.911,-67.7158 630.779,-71.5738 631.031,-64.5783"/>
</g>
<!-- Node10&#45;&gt;Node4 -->
<g id="edge15" class="edge"><title>Node10&#45;&gt;Node4</title>
<path fill="none" stroke="midnightblue" d="M1537.33,-182.096C1542.05,-181.027 1546.77,-179.979 1551.31,-179 1631.91,-161.609 1662.62,-185.457 1733.31,-143 1756.95,-128.796 1775.5,-102.135 1785.93,-84.4703"/>
<polygon fill="midnightblue" stroke="midnightblue" points="1789,-86.1473 1790.87,-75.7186 1782.91,-82.7056 1789,-86.1473"/>
</g>
<!-- Node11 -->
<g id="node11" class="node"><title>Node11</title>
<polygon fill="white" stroke="#bfbfbf" points="269.805,-56.5 269.805,-75.5 322.805,-75.5 322.805,-56.5 269.805,-56.5"/>
<text text-anchor="middle" x="296.305" y="-63.5" font-family="Helvetica,sans-Serif" font-size="10.00">memory</text>
</g>
<!-- Node10&#45;&gt;Node11 -->
<g id="edge12" class="edge"><title>Node10&#45;&gt;Node11</title>
<path fill="none" stroke="midnightblue" d="M1441.05,-189.135C1406.81,-186.104 1359.75,-182.075 1318.31,-179 1066.93,-160.35 1000.87,-184.843 752.305,-143 701.373,-134.426 690.925,-122.264 640.305,-112 529.539,-89.5407 396.333,-75.829 333.094,-70.1079"/>
<polygon fill="midnightblue" stroke="midnightblue" points="333.11,-66.5956 322.839,-69.195 332.489,-73.568 333.11,-66.5956"/>
</g>
<!-- Node12 -->
<g id="node12" class="node"><title>Node12</title>
<polygon fill="white" stroke="#bfbfbf" points="1939.81,-118 1939.81,-137 1968.81,-137 1968.81,-118 1939.81,-118"/>
<text text-anchor="middle" x="1954.31" y="-125" font-family="Helvetica,sans-Serif" font-size="10.00">list</text>
</g>
<!-- Node10&#45;&gt;Node12 -->
<g id="edge13" class="edge"><title>Node10&#45;&gt;Node12</title>
<path fill="none" stroke="midnightblue" d="M1537.59,-181.597C1542.21,-180.642 1546.84,-179.756 1551.31,-179 1701.13,-153.649 1741.43,-168.087 1891.31,-143 1904.1,-140.858 1918.19,-137.693 1929.79,-134.867"/>
<polygon fill="midnightblue" stroke="midnightblue" points="1930.79,-138.226 1939.64,-132.405 1929.09,-131.435 1930.79,-138.226"/>
</g>
<!-- Node10&#45;&gt;Node13 -->
<g id="edge16" class="edge"><title>Node10&#45;&gt;Node13</title>
<path fill="none" stroke="midnightblue" d="M1537.64,-181.864C1542.25,-180.854 1546.86,-179.883 1551.31,-179 1648.49,-159.708 1674.09,-162.121 1771.31,-143 1772.75,-142.716 1774.21,-142.422 1775.69,-142.122"/>
<polygon fill="midnightblue" stroke="midnightblue" points="1776.47,-145.535 1785.53,-140.05 1775.03,-138.685 1776.47,-145.535"/>
</g>
<!-- Node13&#45;&gt;Node4 -->
<g id="edge17" class="edge"><title>Node13&#45;&gt;Node4</title>
<path fill="none" stroke="midnightblue" d="M1825.06,-112.399C1819.51,-103.932 1812.41,-93.0991 1806.54,-84.1393"/>
<polygon fill="midnightblue" stroke="midnightblue" points="1809.39,-82.1026 1800.98,-75.6578 1803.54,-85.94 1809.39,-82.1026"/>
</g>
<!-- Node14&#45;&gt;Node4 -->
<g id="edge20" class="edge"><title>Node14&#45;&gt;Node4</title>
<path fill="none" stroke="midnightblue" d="M1383.61,-315.512C1417.71,-305.957 1459.09,-291.772 1469.31,-277 1477.14,-265.669 1474.67,-258.693 1469.31,-246 1460.38,-224.863 1441.23,-231.137 1432.31,-210 1426.95,-197.307 1423.25,-189.382 1432.31,-179 1471.09,-134.55 1641.21,-166.523 1695.31,-143 1715.29,-134.309 1716.03,-125.296 1733.31,-112 1746.87,-101.554 1762.48,-90.2332 1774.64,-81.5595"/>
<polygon fill="midnightblue" stroke="midnightblue" points="1776.67,-84.4047 1782.8,-75.7619 1772.62,-78.6969 1776.67,-84.4047"/>
</g>
<!-- Node14&#45;&gt;Node11 -->
<g id="edge40" class="edge"><title>Node14&#45;&gt;Node11</title>
<path fill="none" stroke="midnightblue" d="M1287.01,-324.2C1212.37,-318.451 1064.8,-304.491 942.305,-277 754.014,-234.742 712.815,-202.699 529.305,-143 459.526,-120.3 378.023,-93.6938 332.258,-78.7462"/>
<polygon fill="midnightblue" stroke="midnightblue" points="333.101,-75.3395 322.508,-75.5615 330.927,-81.9936 333.101,-75.3395"/>
</g>
<!-- Node15 -->
<g id="node15" class="node"><title>Node15</title>
<polygon fill="white" stroke="#bfbfbf" points="1375.81,-252 1375.81,-271 1460.81,-271 1460.81,-252 1375.81,-252"/>
<text text-anchor="middle" x="1418.31" y="-259" font-family="Helvetica,sans-Serif" font-size="10.00">uscxml/config.h</text>
</g>
<!-- Node14&#45;&gt;Node15 -->
<g id="edge19" class="edge"><title>Node14&#45;&gt;Node15</title>
<path fill="none" stroke="midnightblue" d="M1353.32,-313.396C1366.9,-302.759 1385.48,-288.203 1399.3,-277.381"/>
<polygon fill="midnightblue" stroke="midnightblue" points="1401.49,-280.116 1407.2,-271.195 1397.17,-274.605 1401.49,-280.116"/>
</g>
<!-- Node14&#45;&gt;Node16 -->
<g id="edge21" class="edge"><title>Node14&#45;&gt;Node16</title>
<path fill="none" stroke="midnightblue" d="M1337.5,-313.331C1339.43,-296.057 1340.18,-266.62 1327.31,-246 1316.47,-228.651 1297.26,-216.351 1280.16,-208.236"/>
<polygon fill="midnightblue" stroke="midnightblue" points="1281.5,-205.002 1270.94,-204.152 1278.67,-211.403 1281.5,-205.002"/>
</g>
<!-- Node21 -->
<g id="node21" class="node"><title>Node21</title>
<g id="a_node21"><a xlink:href="_event_8h.html" target="_top" xlink:title="uscxml/messages/Event.h">
<polygon fill="white" stroke="black" points="1185.81,-252 1185.81,-271 1318.81,-271 1318.81,-252 1185.81,-252"/>
<text text-anchor="middle" x="1252.31" y="-259" font-family="Helvetica,sans-Serif" font-size="10.00">uscxml/messages/Event.h</text>
</a>
</g>
</g>
<!-- Node14&#45;&gt;Node21 -->
<g id="edge35" class="edge"><title>Node14&#45;&gt;Node21</title>
<path fill="none" stroke="midnightblue" d="M1317.3,-313.396C1303.71,-302.759 1285.13,-288.203 1271.31,-277.381"/>
<polygon fill="midnightblue" stroke="midnightblue" points="1273.44,-274.605 1263.41,-271.195 1269.12,-280.116 1273.44,-274.605"/>
</g>
<!-- Node16&#45;&gt;Node4 -->
<g id="edge25" class="edge"><title>Node16&#45;&gt;Node4</title>
<path fill="none" stroke="midnightblue" d="M1288.12,-184.932C1299.52,-182.817 1311.86,-180.678 1323.31,-179 1471.03,-157.34 1516.57,-192.848 1657.31,-143 1681.24,-134.521 1683.25,-124.586 1705.31,-112 1725.66,-100.385 1749.4,-88.5851 1767.38,-79.9843"/>
<polygon fill="midnightblue" stroke="midnightblue" points="1769.19,-83.0025 1776.72,-75.5567 1766.19,-76.677 1769.19,-83.0025"/>
</g>
<!-- Node16&#45;&gt;Node8 -->
<g id="edge23" class="edge"><title>Node16&#45;&gt;Node8</title>
<path fill="none" stroke="midnightblue" d="M1309.33,-188.204C1345.43,-185.301 1391.37,-181.746 1432.31,-179 1772.29,-156.197 2185.64,-135.342 2296.07,-129.884"/>
<polygon fill="midnightblue" stroke="midnightblue" points="2296.27,-133.379 2306.08,-129.39 2295.92,-126.387 2296.27,-133.379"/>
</g>
<!-- Node16&#45;&gt;Node11 -->
<g id="edge24" class="edge"><title>Node16&#45;&gt;Node11</title>
<path fill="none" stroke="midnightblue" d="M1181.14,-189.046C1081.87,-181.77 885.167,-165.823 719.305,-143 575.583,-123.224 406.164,-89.646 332.992,-74.6404"/>
<polygon fill="midnightblue" stroke="midnightblue" points="333.409,-71.153 322.909,-72.565 331.998,-78.0092 333.409,-71.153"/>
</g>
<!-- Node16&#45;&gt;Node12 -->
<g id="edge22" class="edge"><title>Node16&#45;&gt;Node12</title>
<path fill="none" stroke="midnightblue" d="M1309.49,-188.513C1472.11,-175.875 1887.73,-143.548 1891.31,-143 1904.13,-141.034 1918.22,-137.886 1929.82,-135.025"/>
<polygon fill="midnightblue" stroke="midnightblue" points="1930.83,-138.379 1939.66,-132.521 1929.1,-131.595 1930.83,-138.379"/>
</g>
<!-- Node17 -->
<g id="node17" class="node"><title>Node17</title>
<g id="a_node17"><a xlink:href="_convenience_8h.html" target="_top" xlink:title="uscxml/util/Convenience.h">
<polygon fill="white" stroke="black" points="1291.81,-118 1291.81,-137 1424.81,-137 1424.81,-118 1291.81,-118"/>
<text text-anchor="middle" x="1358.31" y="-125" font-family="Helvetica,sans-Serif" font-size="10.00">uscxml/util/Convenience.h</text>
</a>
</g>
</g>
<!-- Node16&#45;&gt;Node17 -->
<g id="edge26" class="edge"><title>Node16&#45;&gt;Node17</title>
<path fill="none" stroke="midnightblue" d="M1260.55,-184.734C1279.52,-173.818 1312.15,-155.049 1334.45,-142.221"/>
<polygon fill="midnightblue" stroke="midnightblue" points="1336.38,-145.147 1343.31,-137.127 1332.89,-139.08 1336.38,-145.147"/>
</g>
<!-- Node20 -->
<g id="node20" class="node"><title>Node20</title>
<g id="a_node20"><a xlink:href="_blob_8h.html" target="_top" xlink:title="uscxml/messages/Blob.h">
<polygon fill="white" stroke="black" points="761.805,-118 761.805,-137 888.805,-137 888.805,-118 761.805,-118"/>
<text text-anchor="middle" x="825.305" y="-125" font-family="Helvetica,sans-Serif" font-size="10.00">uscxml/messages/Blob.h</text>
</a>
</g>
</g>
<!-- Node16&#45;&gt;Node20 -->
<g id="edge31" class="edge"><title>Node16&#45;&gt;Node20</title>
<path fill="none" stroke="midnightblue" d="M1182.79,-184.98C1114.14,-175.458 1000.69,-159.236 903.305,-143 895.663,-141.726 887.614,-140.312 879.705,-138.88"/>
<polygon fill="midnightblue" stroke="midnightblue" points="880.27,-135.426 869.803,-137.068 879.009,-142.311 880.27,-135.426"/>
</g>
<!-- Node17&#45;&gt;Node3 -->
<g id="edge28" class="edge"><title>Node17&#45;&gt;Node3</title>
<path fill="none" stroke="midnightblue" d="M1315.56,-117.935C1303.25,-115.717 1289.78,-113.527 1277.31,-112 1029.06,-81.6248 726.915,-70.6808 631.03,-67.8303"/>
<polygon fill="midnightblue" stroke="midnightblue" points="630.975,-64.3274 620.878,-67.5362 630.772,-71.3244 630.975,-64.3274"/>
</g>
<!-- Node17&#45;&gt;Node4 -->
<g id="edge27" class="edge"><title>Node17&#45;&gt;Node4</title>
<path fill="none" stroke="midnightblue" d="M1403.65,-117.959C1415.25,-115.89 1427.72,-113.767 1439.31,-112 1543.2,-96.1451 1664.76,-81.6444 1735.59,-73.5985"/>
<polygon fill="midnightblue" stroke="midnightblue" points="1736.12,-77.0609 1745.67,-72.4588 1735.33,-70.1053 1736.12,-77.0609"/>
</g>
<!-- Node18 -->
<g id="node18" class="node"><title>Node18</title>
<polygon fill="white" stroke="#bfbfbf" points="955.805,-56.5 955.805,-75.5 994.805,-75.5 994.805,-56.5 955.805,-56.5"/>
<text text-anchor="middle" x="975.305" y="-63.5" font-family="Helvetica,sans-Serif" font-size="10.00">limits</text>
</g>
<!-- Node17&#45;&gt;Node18 -->
<g id="edge29" class="edge"><title>Node17&#45;&gt;Node18</title>
<path fill="none" stroke="midnightblue" d="M1312.08,-117.985C1300.72,-115.959 1288.58,-113.849 1277.31,-112 1177.75,-95.6758 1059.31,-78.7532 1005.09,-71.1435"/>
<polygon fill="midnightblue" stroke="midnightblue" points="1005.51,-67.6689 995.124,-69.7487 1004.54,-74.6013 1005.51,-67.6689"/>
</g>
<!-- Node19 -->
<g id="node19" class="node"><title>Node19</title>
<polygon fill="white" stroke="#bfbfbf" points="1332.31,-56.5 1332.31,-75.5 1384.31,-75.5 1384.31,-56.5 1332.31,-56.5"/>
<text text-anchor="middle" x="1358.31" y="-63.5" font-family="Helvetica,sans-Serif" font-size="10.00">sstream</text>
</g>
<!-- Node17&#45;&gt;Node19 -->
<g id="edge30" class="edge"><title>Node17&#45;&gt;Node19</title>
<path fill="none" stroke="midnightblue" d="M1358.31,-117.975C1358.31,-109.58 1358.31,-96.4806 1358.31,-85.6631"/>
<polygon fill="midnightblue" stroke="midnightblue" points="1361.81,-85.5091 1358.31,-75.5091 1354.81,-85.5091 1361.81,-85.5091"/>
</g>
<!-- Node20&#45;&gt;Node3 -->
<g id="edge32" class="edge"><title>Node20&#45;&gt;Node3</title>
<path fill="none" stroke="midnightblue" d="M793.068,-117.975C749.737,-106.516 673.258,-86.292 630.825,-75.0706"/>
<polygon fill="midnightblue" stroke="midnightblue" points="631.623,-71.6614 621.06,-72.4885 629.833,-78.4288 631.623,-71.6614"/>
</g>
<!-- Node20&#45;&gt;Node4 -->
<g id="edge34" class="edge"><title>Node20&#45;&gt;Node4</title>
<path fill="none" stroke="midnightblue" d="M883.97,-117.973C900.835,-115.756 919.274,-113.556 936.305,-112 1235.55,-84.6585 1595.06,-72.4971 1735.24,-68.5441"/>
<polygon fill="midnightblue" stroke="midnightblue" points="1735.44,-72.0397 1745.34,-68.2626 1735.25,-65.0425 1735.44,-72.0397"/>
</g>
<!-- Node20&#45;&gt;Node11 -->
<g id="edge33" class="edge"><title>Node20&#45;&gt;Node11</title>
<path fill="none" stroke="midnightblue" d="M782.907,-117.946C771.389,-115.806 758.896,-113.653 747.305,-112 594.041,-90.1478 409.972,-75.3048 332.973,-69.6043"/>
<polygon fill="midnightblue" stroke="midnightblue" points="333.062,-66.1016 322.833,-68.8609 332.55,-73.0828 333.062,-66.1016"/>
</g>
<!-- Node21&#45;&gt;Node16 -->
<g id="edge36" class="edge"><title>Node21&#45;&gt;Node16</title>
<path fill="none" stroke="midnightblue" d="M1251.36,-251.734C1250.33,-242.183 1248.66,-226.618 1247.33,-214.283"/>
<polygon fill="midnightblue" stroke="midnightblue" points="1250.79,-213.695 1246.23,-204.127 1243.83,-214.445 1250.79,-213.695"/>
</g>
<!-- Node22 -->
<g id="node22" class="node"><title>Node22</title>
<g id="a_node22"><a xlink:href="_u_u_i_d_8h.html" target="_top" xlink:title="uscxml/util/UUID.h">
<polygon fill="white" stroke="black" points="1135.81,-118 1135.81,-137 1234.81,-137 1234.81,-118 1135.81,-118"/>
<text text-anchor="middle" x="1185.31" y="-125" font-family="Helvetica,sans-Serif" font-size="10.00">uscxml/util/UUID.h</text>
</a>
</g>
</g>
<!-- Node21&#45;&gt;Node22 -->
<g id="edge37" class="edge"><title>Node21&#45;&gt;Node22</title>
<path fill="none" stroke="midnightblue" d="M1226.32,-251.853C1207.61,-244.102 1183.72,-230.712 1172.31,-210 1161.42,-190.257 1168.83,-163.996 1176.15,-146.686"/>
<polygon fill="midnightblue" stroke="midnightblue" points="1179.52,-147.75 1180.54,-137.204 1173.16,-144.811 1179.52,-147.75"/>
</g>
<!-- Node22&#45;&gt;Node3 -->
<g id="edge39" class="edge"><title>Node22&#45;&gt;Node3</title>
<path fill="none" stroke="midnightblue" d="M1151.59,-117.955C1141.87,-115.738 1131.21,-113.543 1121.31,-112 936.723,-83.2567 712.28,-71.6475 631.298,-68.198"/>
<polygon fill="midnightblue" stroke="midnightblue" points="631.411,-64.6998 621.275,-67.7819 631.121,-71.6938 631.411,-64.6998"/>
</g>
<!-- Node22&#45;&gt;Node4 -->
<g id="edge38" class="edge"><title>Node22&#45;&gt;Node4</title>
<path fill="none" stroke="midnightblue" d="M1235.07,-118.466C1250.21,-116.182 1266.92,-113.823 1282.31,-112 1445.92,-92.6132 1639.81,-77.8189 1735.61,-71.0515"/>
<polygon fill="midnightblue" stroke="midnightblue" points="1735.95,-74.5361 1745.68,-70.3439 1735.46,-67.5533 1735.95,-74.5361"/>
</g>
<!-- Node23&#45;&gt;Node3 -->
<g id="edge45" class="edge"><title>Node23&#45;&gt;Node3</title>
<path fill="none" stroke="midnightblue" d="M672.303,-318.802C649.976,-293.845 587.333,-218.906 567.305,-143 563.791,-129.678 563.019,-125.094 567.305,-112 570.795,-101.34 577.879,-91.1174 584.591,-83.1175"/>
<polygon fill="midnightblue" stroke="midnightblue" points="587.21,-85.4395 591.286,-75.66 582.001,-80.7633 587.21,-85.4395"/>
</g>
<!-- Node23&#45;&gt;Node4 -->
<g id="edge42" class="edge"><title>Node23&#45;&gt;Node4</title>
<path fill="none" stroke="midnightblue" d="M690.998,-318.64C725.238,-290.937 836.313,-206.189 945.305,-179 1170.94,-122.713 1251.05,-228.518 1467.31,-143 1487.57,-134.985 1485.4,-120.87 1505.31,-112 1579.99,-78.7283 1674.99,-69.4867 1735.49,-67.2227"/>
<polygon fill="midnightblue" stroke="midnightblue" points="1735.75,-70.7162 1745.63,-66.8965 1735.53,-63.7198 1735.75,-70.7162"/>
</g>
<!-- Node23&#45;&gt;Node11 -->
<g id="edge46" class="edge"><title>Node23&#45;&gt;Node11</title>
<path fill="none" stroke="midnightblue" d="M608.924,-320.848C509.516,-307.192 333.683,-265.994 263.305,-143 252.094,-123.406 267.03,-99.2739 280.269,-83.5313"/>
<polygon fill="midnightblue" stroke="midnightblue" points="283.196,-85.51 287.272,-75.7307 277.987,-80.8337 283.196,-85.51"/>
</g>
<!-- Node23&#45;&gt;Node12 -->
<g id="edge44" class="edge"><title>Node23&#45;&gt;Node12</title>
<path fill="none" stroke="midnightblue" d="M748.794,-318.985C856.808,-305.481 1055.28,-280.332 1062.31,-277 1080.49,-268.378 1076.91,-254.149 1095.31,-246 1279.16,-164.575 1362.45,-291.425 1546.31,-210 1564.7,-201.851 1561.05,-187.471 1579.31,-179 1705.92,-120.238 1753.74,-166.691 1891.31,-143 1904.09,-140.798 1918.18,-137.627 1929.78,-134.813"/>
<polygon fill="midnightblue" stroke="midnightblue" points="1930.77,-138.173 1939.63,-132.365 1929.08,-131.38 1930.77,-138.173"/>
</g>
<!-- Node23&#45;&gt;Node21 -->
<g id="edge43" class="edge"><title>Node23&#45;&gt;Node21</title>
<path fill="none" stroke="midnightblue" d="M748.614,-318.971C764.894,-316.976 782.213,-314.884 798.305,-313 930.844,-297.486 1085.29,-280.549 1175.59,-270.762"/>
<polygon fill="midnightblue" stroke="midnightblue" points="1176.17,-274.219 1185.73,-269.663 1175.42,-267.26 1176.17,-274.219"/>
</g>
<!-- Node24&#45;&gt;Node3 -->
<g id="edge79" class="edge"><title>Node24&#45;&gt;Node3</title>
<path fill="none" stroke="midnightblue" d="M582.23,-514.355C558.173,-506.056 521.691,-492.65 491.305,-478 438.368,-452.477 413.473,-457.322 377.305,-411 354.067,-381.238 353.305,-367.26 353.305,-329.5 353.305,-329.5 353.305,-329.5 353.305,-260.5 353.305,-176.2 402.573,-160.809 471.305,-112 501.144,-90.8109 541.873,-78.8171 569.527,-72.6314"/>
<polygon fill="midnightblue" stroke="midnightblue" points="570.375,-76.0296 579.436,-70.538 568.928,-69.1808 570.375,-76.0296"/>
</g>
<!-- Node24&#45;&gt;Node4 -->
<g id="edge48" class="edge"><title>Node24&#45;&gt;Node4</title>
<path fill="none" stroke="midnightblue" d="M615.117,-514.411C626.483,-500.164 650.158,-470.852 671.305,-447 725.741,-385.603 735.8,-366.159 798.305,-313 878.969,-244.398 895.275,-213.738 995.305,-179 1207.87,-105.184 1280.63,-191.741 1500.31,-143 1537.94,-134.65 1544.33,-122.889 1581.31,-112 1632.55,-96.9081 1692.12,-84.811 1735.38,-76.9762"/>
<polygon fill="midnightblue" stroke="midnightblue" points="1736.23,-80.3801 1745.45,-75.1748 1734.99,-73.4894 1736.23,-80.3801"/>
</g>
<!-- Node24&#45;&gt;Node11 -->
<g id="edge80" class="edge"><title>Node24&#45;&gt;Node11</title>
<path fill="none" stroke="midnightblue" d="M544.775,-518.207C504.988,-512.887 453.934,-501.666 414.305,-478 380.24,-457.656 377.108,-444.151 355.305,-411 284.74,-303.706 259.592,-270.83 247.305,-143 245.987,-129.285 241.763,-124.614 247.305,-112 252.695,-99.732 263.264,-89.3414 273.21,-81.6461"/>
<polygon fill="midnightblue" stroke="midnightblue" points="275.557,-84.2697 281.644,-75.598 271.478,-78.5811 275.557,-84.2697"/>
</g>
<!-- Node24&#45;&gt;Node18 -->
<g id="edge82" class="edge"><title>Node24&#45;&gt;Node18</title>
<path fill="none" stroke="midnightblue" d="M603.596,-514.336C599.043,-505.488 592.393,-491.213 589.305,-478 582.517,-448.952 586.195,-440.818 585.305,-411 582.102,-303.599 577.857,-255.503 653.305,-179 690.612,-141.172 703.309,-132.545 752.305,-112 818.089,-84.4163 902.046,-73.3553 945.791,-69.2328"/>
<polygon fill="midnightblue" stroke="midnightblue" points="946.107,-72.7186 955.759,-68.3492 945.489,-65.7459 946.107,-72.7186"/>
</g>
<!-- Node25 -->
<g id="node25" class="node"><title>Node25</title>
<g id="a_node25"><a xlink:href="_executable_content_8h.html" target="_top" xlink:title="uscxml/plugins/Executable\lContent.h">
<polygon fill="white" stroke="black" points="945.305,-112.5 945.305,-142.5 1079.31,-142.5 1079.31,-112.5 945.305,-112.5"/>
<text text-anchor="start" x="953.305" y="-130.5" font-family="Helvetica,sans-Serif" font-size="10.00">uscxml/plugins/Executable</text>
<text text-anchor="middle" x="1012.31" y="-119.5" font-family="Helvetica,sans-Serif" font-size="10.00">Content.h</text>
</a>
</g>
</g>
<!-- Node24&#45;&gt;Node25 -->
<g id="edge49" class="edge"><title>Node24&#45;&gt;Node25</title>
<path fill="none" stroke="midnightblue" d="M605.854,-514.295C598.031,-484.967 575.589,-387.446 600.305,-313 623.72,-242.474 636.763,-217.529 700.305,-179 710.33,-172.922 846.036,-152.45 935.139,-139.513"/>
<polygon fill="midnightblue" stroke="midnightblue" points="935.828,-142.95 945.223,-138.053 934.825,-136.023 935.828,-142.95"/>
</g>
<!-- Node26 -->
<g id="node26" class="node"><title>Node26</title>
<g id="a_node26"><a xlink:href="_event_handler_8h.html" target="_top" xlink:title="uscxml/plugins/EventHandler.h">
<polygon fill="white" stroke="black" points="807.305,-319 807.305,-338 961.305,-338 961.305,-319 807.305,-319"/>
<text text-anchor="middle" x="884.305" y="-326" font-family="Helvetica,sans-Serif" font-size="10.00">uscxml/plugins/EventHandler.h</text>
</a>
</g>
</g>
<!-- Node24&#45;&gt;Node26 -->
<g id="edge54" class="edge"><title>Node24&#45;&gt;Node26</title>
<path fill="none" stroke="midnightblue" d="M613.604,-514.429C629.363,-489.66 678.579,-417.379 738.305,-380 768.026,-361.4 805.463,-348.628 834.986,-340.582"/>
<polygon fill="midnightblue" stroke="midnightblue" points="835.893,-343.962 844.673,-338.032 834.111,-337.193 835.893,-343.962"/>
</g>
<!-- Node27 -->
<g id="node27" class="node"><title>Node27</title>
<g id="a_node27"><a xlink:href="_i_o_processor_8h.html" target="_top" xlink:title="uscxml/plugins/IOProcessor.h">
<polygon fill="white" stroke="black" points="747.805,-386 747.805,-405 896.805,-405 896.805,-386 747.805,-386"/>
<text text-anchor="middle" x="822.305" y="-393" font-family="Helvetica,sans-Serif" font-size="10.00">uscxml/plugins/IOProcessor.h</text>
</a>
</g>
</g>
<!-- Node24&#45;&gt;Node27 -->
<g id="edge60" class="edge"><title>Node24&#45;&gt;Node27</title>
<path fill="none" stroke="midnightblue" d="M620.482,-514.333C644.972,-496.956 699.536,-458.533 719.305,-447 743.66,-432.792 772.579,-418.854 793.566,-409.232"/>
<polygon fill="midnightblue" stroke="midnightblue" points="795.229,-412.321 802.89,-405.002 792.337,-405.946 795.229,-412.321"/>
</g>
<!-- Node28 -->
<g id="node28" class="node"><title>Node28</title>
<g id="a_node28"><a xlink:href="_invoker_8h.html" target="_top" xlink:title="uscxml/plugins/Invoker.h">
<polygon fill="white" stroke="black" points="915.305,-386 915.305,-405 1041.31,-405 1041.31,-386 915.305,-386"/>
<text text-anchor="middle" x="978.305" y="-393" font-family="Helvetica,sans-Serif" font-size="10.00">uscxml/plugins/Invoker.h</text>
</a>
</g>
</g>
<!-- Node24&#45;&gt;Node28 -->
<g id="edge64" class="edge"><title>Node24&#45;&gt;Node28</title>
<path fill="none" stroke="midnightblue" d="M631.979,-514.492C653.366,-506.383 685.371,-493.183 711.305,-478 731.02,-466.458 731.575,-456.598 752.305,-447 767.922,-439.77 863.744,-419.621 925.499,-407.069"/>
<polygon fill="midnightblue" stroke="midnightblue" points="926.371,-410.463 935.477,-405.046 924.981,-403.603 926.371,-410.463"/>
</g>
<!-- Node29 -->
<g id="node29" class="node"><title>Node29</title>
<g id="a_node29"><a xlink:href="_data_model_impl_8h.html" target="_top" xlink:title="uscxml/plugins/DataModel\lImpl.h">
<polygon fill="white" stroke="black" points="911.805,-447.5 911.805,-477.5 1044.81,-477.5 1044.81,-447.5 911.805,-447.5"/>
<text text-anchor="start" x="919.805" y="-465.5" font-family="Helvetica,sans-Serif" font-size="10.00">uscxml/plugins/DataModel</text>
<text text-anchor="middle" x="978.305" y="-454.5" font-family="Helvetica,sans-Serif" font-size="10.00">Impl.h</text>
</a>
</g>
</g>
<!-- Node24&#45;&gt;Node29 -->
<g id="edge68" class="edge"><title>Node24&#45;&gt;Node29</title>
<path fill="none" stroke="midnightblue" d="M661.317,-514.475C724.296,-504.347 829.856,-487.372 901.709,-475.818"/>
<polygon fill="midnightblue" stroke="midnightblue" points="902.298,-479.268 911.616,-474.224 901.187,-472.357 902.298,-479.268"/>
</g>
<!-- Node24&#45;&gt;Node30 -->
<g id="edge76" class="edge"><title>Node24&#45;&gt;Node30</title>
<path fill="none" stroke="midnightblue" d="M635.85,-514.465C663.978,-505.661 708.851,-491.366 747.305,-478 749.551,-477.22 751.863,-476.4 754.188,-475.565"/>
<polygon fill="midnightblue" stroke="midnightblue" points="755.487,-478.817 763.68,-472.099 753.086,-472.241 755.487,-478.817"/>
</g>
<!-- Node31 -->
<g id="node31" class="node"><title>Node31</title>
<polygon fill="white" stroke="#bfbfbf" points="1783.31,-252 1783.31,-271 1813.31,-271 1813.31,-252 1783.31,-252"/>
<text text-anchor="middle" x="1798.31" y="-259" font-family="Helvetica,sans-Serif" font-size="10.00">set</text>
</g>
<!-- Node24&#45;&gt;Node31 -->
<g id="edge81" class="edge"><title>Node24&#45;&gt;Node31</title>
<path fill="none" stroke="midnightblue" d="M671.837,-520.191C758.659,-515.533 918.939,-504.006 1053.31,-478 1341.92,-422.14 1680.14,-304.81 1773.41,-271.494"/>
<polygon fill="midnightblue" stroke="midnightblue" points="1774.86,-274.695 1783.09,-268.025 1772.5,-268.106 1774.86,-274.695"/>
</g>
<!-- Node25&#45;&gt;Node3 -->
<g id="edge51" class="edge"><title>Node25&#45;&gt;Node3</title>
<path fill="none" stroke="midnightblue" d="M945.158,-114.256C940.474,-113.471 935.821,-112.711 931.305,-112 821.015,-94.6391 689.414,-77.9406 630.927,-70.7264"/>
<polygon fill="midnightblue" stroke="midnightblue" points="631.231,-67.2376 620.879,-69.4918 630.377,-74.1853 631.231,-67.2376"/>
</g>
<!-- Node25&#45;&gt;Node4 -->
<g id="edge50" class="edge"><title>Node25&#45;&gt;Node4</title>
<path fill="none" stroke="midnightblue" d="M1079.44,-117.287C1094.82,-115.364 1111.11,-113.476 1126.31,-112 1350.68,-90.2037 1618.42,-75.6329 1735.52,-69.8286"/>
<polygon fill="midnightblue" stroke="midnightblue" points="1735.89,-73.3147 1745.71,-69.3271 1735.55,-66.3232 1735.89,-73.3147"/>
</g>
<!-- Node25&#45;&gt;Node11 -->
<g id="edge52" class="edge"><title>Node25&#45;&gt;Node11</title>
<path fill="none" stroke="midnightblue" d="M945.176,-117.455C929.485,-115.502 912.823,-113.558 897.305,-112 684.033,-90.5841 427.242,-74.6274 333.148,-69.1063"/>
<polygon fill="midnightblue" stroke="midnightblue" points="333.193,-65.6031 323.006,-68.5148 332.785,-72.5912 333.193,-65.6031"/>
</g>
<!-- Node25&#45;&gt;Node19 -->
<g id="edge53" class="edge"><title>Node25&#45;&gt;Node19</title>
<path fill="none" stroke="midnightblue" d="M1079.43,-114.957C1151.95,-102.486 1264.81,-83.0785 1322.18,-73.2125"/>
<polygon fill="midnightblue" stroke="midnightblue" points="1322.96,-76.6293 1332.22,-71.4851 1321.78,-69.7306 1322.96,-76.6293"/>
</g>
<!-- Node26&#45;&gt;Node3 -->
<g id="edge58" class="edge"><title>Node26&#45;&gt;Node3</title>
<path fill="none" stroke="midnightblue" d="M857.601,-318.996C799.737,-298.988 663.337,-242.933 605.305,-143 595.163,-125.533 595.344,-101.853 597.14,-85.5921"/>
<polygon fill="midnightblue" stroke="midnightblue" points="600.606,-86.0781 598.534,-75.6878 593.674,-85.1022 600.606,-86.0781"/>
</g>
<!-- Node26&#45;&gt;Node4 -->
<g id="edge55" class="edge"><title>Node26&#45;&gt;Node4</title>
<path fill="none" stroke="midnightblue" d="M884.764,-318.827C886.048,-302.675 890.915,-267.663 909.305,-246 952.655,-194.936 979.737,-196.822 1044.31,-179 1242.41,-124.321 1304.39,-186.233 1505.31,-143 1545.03,-134.453 1552.28,-123.288 1591.31,-112 1640.55,-97.7572 1697.61,-85.524 1738.83,-77.4232"/>
<polygon fill="midnightblue" stroke="midnightblue" points="1739.55,-80.8499 1748.7,-75.5048 1738.21,-73.9787 1739.55,-80.8499"/>
</g>
<!-- Node26&#45;&gt;Node11 -->
<g id="edge59" class="edge"><title>Node26&#45;&gt;Node11</title>
<path fill="none" stroke="midnightblue" d="M845.469,-318.997C804.391,-309.734 737.833,-293.956 681.305,-277 509.774,-225.548 409.503,-285.701 301.305,-143 288.972,-126.734 289.695,-102.449 292.213,-85.7312"/>
<polygon fill="midnightblue" stroke="midnightblue" points="295.718,-86.0292 294.104,-75.5579 288.835,-84.7497 295.718,-86.0292"/>
</g>
<!-- Node26&#45;&gt;Node12 -->
<g id="edge57" class="edge"><title>Node26&#45;&gt;Node12</title>
<path fill="none" stroke="midnightblue" d="M927.183,-318.956C970.131,-309.998 1037.91,-294.767 1095.31,-277 1132.13,-265.601 1138.75,-254.687 1176.31,-246 1351.5,-205.476 1401.98,-239.898 1579.31,-210 1635.32,-200.555 1647.83,-191.236 1703.31,-179 1786.38,-160.676 1808.06,-160.544 1891.31,-143 1904,-140.324 1918.08,-137.108 1929.7,-134.385"/>
<polygon fill="midnightblue" stroke="midnightblue" points="1930.65,-137.758 1939.57,-132.053 1929.04,-130.946 1930.65,-137.758"/>
</g>
<!-- Node26&#45;&gt;Node21 -->
<g id="edge56" class="edge"><title>Node26&#45;&gt;Node21</title>
<path fill="none" stroke="midnightblue" d="M933.063,-318.966C990.17,-308.96 1087.62,-291.853 1171.31,-277 1178.92,-275.648 1186.94,-274.22 1194.85,-272.808"/>
<polygon fill="midnightblue" stroke="midnightblue" points="1195.54,-276.239 1204.77,-271.034 1194.31,-269.349 1195.54,-276.239"/>
</g>
<!-- Node27&#45;&gt;Node4 -->
<g id="edge61" class="edge"><title>Node27&#45;&gt;Node4</title>
<path fill="none" stroke="midnightblue" d="M863.802,-385.974C903.015,-376.975 957.668,-361.664 970.305,-344 978.322,-332.794 974.777,-326.032 970.305,-313 963.727,-293.827 948.884,-296.173 942.305,-277 937.834,-263.968 934.838,-257.578 942.305,-246 961.874,-215.661 1055.32,-187.902 1090.31,-179 1302.36,-125.048 1378,-223.905 1581.31,-143 1601.56,-134.941 1599.85,-121.819 1619.31,-112 1655.7,-93.6378 1700.2,-82.3466 1735.35,-75.6668"/>
<polygon fill="midnightblue" stroke="midnightblue" points="1736.26,-79.0588 1745.47,-73.8212 1735.01,-72.1724 1736.26,-79.0588"/>
</g>
<!-- Node27&#45;&gt;Node21 -->
<g id="edge63" class="edge"><title>Node27&#45;&gt;Node21</title>
<path fill="none" stroke="midnightblue" d="M856.243,-385.914C892.799,-376.461 952.554,-360.415 1003.31,-344 1041.17,-331.754 1049.6,-325.717 1087.31,-313 1129.88,-298.641 1179.2,-283.773 1212.76,-273.921"/>
<polygon fill="midnightblue" stroke="midnightblue" points="1214.02,-277.198 1222.64,-271.031 1212.06,-270.479 1214.02,-277.198"/>
</g>
<!-- Node27&#45;&gt;Node26 -->
<g id="edge62" class="edge"><title>Node27&#45;&gt;Node26</title>
<path fill="none" stroke="midnightblue" d="M830.667,-385.734C840.428,-375.5 856.773,-358.364 868.86,-345.692"/>
<polygon fill="midnightblue" stroke="midnightblue" points="871.707,-347.779 876.076,-338.127 866.642,-342.948 871.707,-347.779"/>
</g>
<!-- Node28&#45;&gt;Node4 -->
<g id="edge65" class="edge"><title>Node28&#45;&gt;Node4</title>
<path fill="none" stroke="midnightblue" d="M1041.57,-386.459C1058.38,-384.34 1076.53,-382.068 1093.31,-380 1226.15,-363.628 1267.62,-392.68 1392.31,-344 1414.25,-335.431 1415.15,-325.196 1435.31,-313 1549.24,-244.06 1577.17,-221.702 1703.31,-179 1783.89,-151.721 1837.1,-208.569 1891.31,-143 1900.08,-132.381 1898.7,-123.627 1891.31,-112 1881.14,-96.0096 1863.63,-85.6029 1846.32,-78.8748"/>
<polygon fill="midnightblue" stroke="midnightblue" points="1847.37,-75.5334 1836.78,-75.5034 1845.04,-82.1339 1847.37,-75.5334"/>
</g>
<!-- Node28&#45;&gt;Node21 -->
<g id="edge67" class="edge"><title>Node28&#45;&gt;Node21</title>
<path fill="none" stroke="midnightblue" d="M996.283,-385.839C1043.23,-363.222 1169.72,-302.284 1225.39,-275.467"/>
<polygon fill="midnightblue" stroke="midnightblue" points="1227.13,-278.515 1234.62,-271.021 1224.09,-272.208 1227.13,-278.515"/>
</g>
<!-- Node28&#45;&gt;Node26 -->
<g id="edge66" class="edge"><title>Node28&#45;&gt;Node26</title>
<path fill="none" stroke="midnightblue" d="M965.628,-385.734C950.124,-375.013 923.665,-356.716 905.15,-343.914"/>
<polygon fill="midnightblue" stroke="midnightblue" points="906.998,-340.936 896.782,-338.127 903.016,-346.694 906.998,-340.936"/>
</g>
<!-- Node29&#45;&gt;Node3 -->
<g id="edge74" class="edge"><title>Node29&#45;&gt;Node3</title>
<path fill="none" stroke="midnightblue" d="M911.689,-451.979C862.859,-443.924 795.411,-430.54 738.305,-411 673.798,-388.927 641.85,-398.06 600.305,-344 536.594,-261.095 524.762,-209.964 561.305,-112 565.479,-100.812 573.825,-90.5598 581.729,-82.6759"/>
<polygon fill="midnightblue" stroke="midnightblue" points="584.367,-85.0029 589.315,-75.6346 579.605,-79.8724 584.367,-85.0029"/>
</g>
<!-- Node29&#45;&gt;Node4 -->
<g id="edge69" class="edge"><title>Node29&#45;&gt;Node4</title>
<path fill="none" stroke="midnightblue" d="M1045.12,-459.614C1251.28,-453.575 1868.79,-433.781 1956.31,-411 2086.72,-377.05 2157.12,-391.427 2228.31,-277 2317.86,-133.046 1993.38,-85.3601 1854.98,-71.7742"/>
<polygon fill="midnightblue" stroke="midnightblue" points="1855.23,-68.2828 1844.95,-70.8173 1854.57,-75.2512 1855.23,-68.2828"/>
</g>
<!-- Node29&#45;&gt;Node11 -->
<g id="edge75" class="edge"><title>Node29&#45;&gt;Node11</title>
<path fill="none" stroke="midnightblue" d="M911.568,-454.21C826.998,-444.528 686.229,-426.806 636.305,-411 465.657,-356.971 397.406,-351.13 287.305,-210 259.206,-173.981 240.071,-154.701 256.305,-112 260.641,-100.598 269.336,-90.2394 277.515,-82.343"/>
<polygon fill="midnightblue" stroke="midnightblue" points="279.947,-84.8633 285.04,-75.5728 275.265,-79.6595 279.947,-84.8633"/>
</g>
<!-- Node29&#45;&gt;Node12 -->
<g id="edge73" class="edge"><title>Node29&#45;&gt;Node12</title>
<path fill="none" stroke="midnightblue" d="M1045.14,-447.484C1139.19,-427.271 1315.59,-387.551 1463.31,-344 1484.98,-337.61 1635.5,-287.878 1655.31,-277 1716.87,-243.182 1716.66,-210.78 1779.31,-179 1832.77,-151.876 1851.87,-160.197 1909.31,-143 1916.01,-140.991 1923.25,-138.711 1929.91,-136.563"/>
<polygon fill="midnightblue" stroke="midnightblue" points="1931.34,-139.781 1939.76,-133.356 1929.17,-133.125 1931.34,-139.781"/>
</g>
<!-- Node29&#45;&gt;Node14 -->
<g id="edge72" class="edge"><title>Node29&#45;&gt;Node14</title>
<path fill="none" stroke="midnightblue" d="M1013.44,-447.376C1055.02,-430.778 1126.42,-402.63 1188.31,-380 1219.7,-368.519 1255.14,-356.323 1283.35,-346.793"/>
<polygon fill="midnightblue" stroke="midnightblue" points="1284.65,-350.048 1293.01,-343.538 1282.42,-343.414 1284.65,-350.048"/>
</g>
<!-- Node29&#45;&gt;Node27 -->
<g id="edge71" class="edge"><title>Node29&#45;&gt;Node27</title>
<path fill="none" stroke="midnightblue" d="M944.456,-447.396C916.963,-435.941 878.558,-419.938 852.191,-408.952"/>
<polygon fill="midnightblue" stroke="midnightblue" points="853.299,-405.622 842.722,-405.007 850.607,-412.084 853.299,-405.622"/>
</g>
<!-- Node29&#45;&gt;Node28 -->
<g id="edge70" class="edge"><title>Node29&#45;&gt;Node28</title>
<path fill="none" stroke="midnightblue" d="M978.305,-447.396C978.305,-438.064 978.305,-425.714 978.305,-415.517"/>
<polygon fill="midnightblue" stroke="midnightblue" points="981.806,-415.195 978.305,-405.195 974.806,-415.195 981.806,-415.195"/>
</g>
<!-- Node30&#45;&gt;Node3 -->
<g id="edge77" class="edge"><title>Node30&#45;&gt;Node3</title>
<path fill="none" stroke="midnightblue" d="M761.465,-455.773C700.007,-440.033 542.142,-389.587 491.305,-277 461.127,-210.164 450.528,-172.951 491.305,-112 508.615,-86.1272 543.815,-75.1137 569.547,-70.4355"/>
<polygon fill="midnightblue" stroke="midnightblue" points="570.247,-73.8684 579.572,-68.8404 569.147,-66.9553 570.247,-73.8684"/>
</g>
<!-- Node30&#45;&gt;Node12 -->
<g id="edge78" class="edge"><title>Node30&#45;&gt;Node12</title>
<path fill="none" stroke="midnightblue" d="M811.063,-456.805C857.826,-447.927 962.346,-428.042 1050.31,-411 1120.56,-397.389 1137.87,-392.669 1208.31,-380 1305.82,-362.46 1338.81,-386.518 1428.31,-344 1447.07,-335.083 1446.09,-324.635 1463.31,-313 1463.31,-313 1731.31,-179 1731.31,-179 1807.62,-152.723 1831.22,-163.409 1909.31,-143 1915.98,-141.257 1923.11,-139.096 1929.69,-136.98"/>
<polygon fill="midnightblue" stroke="midnightblue" points="1931.04,-140.223 1939.43,-133.758 1928.84,-133.578 1931.04,-140.223"/>
</g>
<!-- Node32&#45;&gt;Node3 -->
<g id="edge86" class="edge"><title>Node32&#45;&gt;Node3</title>
<path fill="none" stroke="midnightblue" d="M988.663,-246.45C970.123,-228.177 935.154,-196.529 899.305,-179 838.878,-149.453 815.447,-166.185 752.305,-143 705.028,-125.64 653.216,-97.6395 623.938,-80.9076"/>
<polygon fill="midnightblue" stroke="midnightblue" points="625.323,-77.6654 614.912,-75.6969 621.823,-83.7278 625.323,-77.6654"/>
</g>
<!-- Node32&#45;&gt;Node4 -->
<g id="edge84" class="edge"><title>Node32&#45;&gt;Node4</title>
<path fill="none" stroke="midnightblue" d="M1024.64,-246.481C1056.18,-227.468 1116.22,-194.143 1172.31,-179 1364.73,-127.048 1434.39,-217.359 1619.31,-143 1639.53,-134.868 1638.18,-122.445 1657.31,-112 1685.38,-96.6738 1719.53,-85.4838 1746.84,-78.0958"/>
<polygon fill="midnightblue" stroke="midnightblue" points="1747.78,-81.4673 1756.57,-75.5453 1746.01,-74.6962 1747.78,-81.4673"/>
</g>
<!-- Node32&#45;&gt;Node16 -->
<g id="edge85" class="edge"><title>Node32&#45;&gt;Node16</title>
<path fill="none" stroke="midnightblue" d="M1053.54,-246.795C1098.18,-234.855 1162.1,-217.758 1203.65,-206.642"/>
<polygon fill="midnightblue" stroke="midnightblue" points="1204.69,-209.986 1213.45,-204.021 1202.88,-203.224 1204.69,-209.986"/>
</g>
<!-- Node33&#45;&gt;Node4 -->
<g id="edge88" class="edge"><title>Node33&#45;&gt;Node4</title>
<path fill="none" stroke="midnightblue" d="M1694.56,-460.038C1819.51,-455.849 2151.21,-442.054 2256.31,-411 2316.75,-393.138 2346.94,-396.841 2381.31,-344 2437.54,-257.532 2453.73,-178.991 2375.31,-112 2336.39,-78.7628 1995.55,-69.9478 1855.25,-67.7177"/>
<polygon fill="midnightblue" stroke="midnightblue" points="1855.15,-64.2159 1845.1,-67.5623 1855.04,-71.2151 1855.15,-64.2159"/>
</g>
<!-- Node33&#45;&gt;Node21 -->
<g id="edge89" class="edge"><title>Node33&#45;&gt;Node21</title>
<path fill="none" stroke="midnightblue" d="M1597.94,-454.597C1500.89,-439.648 1287.98,-400.975 1245.31,-344 1231.64,-325.757 1237.86,-298.354 1244.4,-280.447"/>
<polygon fill="midnightblue" stroke="midnightblue" points="1247.66,-281.726 1248.15,-271.142 1241.17,-279.114 1247.66,-281.726"/>
</g>
<!-- Node34&#45;&gt;Node3 -->
<g id="edge98" class="edge"><title>Node34&#45;&gt;Node3</title>
<path fill="none" stroke="midnightblue" d="M2156.23,-707.165C1844.75,-704.685 125.305,-686.233 125.305,-581 125.305,-581 125.305,-581 125.305,-193.5 125.305,-101.29 463.785,-74.6155 569.289,-68.5409"/>
<polygon fill="midnightblue" stroke="midnightblue" points="569.798,-72.0182 579.59,-67.9714 569.412,-65.0289 569.798,-72.0182"/>
</g>
<!-- Node34&#45;&gt;Node4 -->
<g id="edge99" class="edge"><title>Node34&#45;&gt;Node4</title>
<path fill="none" stroke="midnightblue" d="M2252.34,-704.005C2411.47,-691.795 2911.31,-648.1 2911.31,-581 2911.31,-581 2911.31,-581 2911.31,-394.5 2911.31,-251.924 2893.69,-159.635 2759.31,-112 2674.46,-81.9262 2052.72,-70.6325 1855.3,-67.7816"/>
<polygon fill="midnightblue" stroke="midnightblue" points="1855.16,-64.2794 1845.11,-67.6366 1855.06,-71.2787 1855.16,-64.2794"/>
</g>
<!-- Node34&#45;&gt;Node8 -->
<g id="edge97" class="edge"><title>Node34&#45;&gt;Node8</title>
<path fill="none" stroke="midnightblue" d="M2252.36,-702.809C2298.02,-696.896 2367.63,-684.026 2422.31,-657 2469.85,-633.5 2514.31,-634.036 2514.31,-581 2514.31,-581 2514.31,-581 2514.31,-327.5 2514.31,-234.416 2404.21,-167.736 2351.63,-141.199"/>
<polygon fill="midnightblue" stroke="midnightblue" points="2353.04,-137.991 2342.52,-136.713 2349.95,-144.271 2353.04,-137.991"/>
</g>
<!-- Node34&#45;&gt;Node11 -->
<g id="edge94" class="edge"><title>Node34&#45;&gt;Node11</title>
<path fill="none" stroke="midnightblue" d="M2156.02,-707.426C1874.71,-706.837 453.25,-701.657 264.305,-657 196.002,-640.856 164.042,-645.675 121.305,-590 -8.37891,-421.053 -54.9491,-270.508 87.3055,-112 109.85,-86.8802 205.851,-74.7399 259.556,-69.8154"/>
<polygon fill="midnightblue" stroke="midnightblue" points="260.043,-73.2862 269.698,-68.925 259.43,-66.313 260.043,-73.2862"/>
</g>
<!-- Node34&#45;&gt;Node12 -->
<g id="edge96" class="edge"><title>Node34&#45;&gt;Node12</title>
<path fill="none" stroke="midnightblue" d="M2220.05,-693.23C2242.31,-671.408 2280.31,-627.373 2280.31,-581 2280.31,-581 2280.31,-581 2280.31,-461.5 2280.31,-292.348 2017.75,-480.832 1918.31,-344 1873.69,-282.618 1920.79,-185.575 1943.5,-146.087"/>
<polygon fill="midnightblue" stroke="midnightblue" points="1946.6,-147.732 1948.68,-137.345 1940.58,-144.164 1946.6,-147.732"/>
</g>
<!-- Node34&#45;&gt;Node24 -->
<g id="edge110" class="edge"><title>Node34&#45;&gt;Node24</title>
<path fill="none" stroke="midnightblue" d="M2156.08,-706.721C1970.54,-703.505 1302.77,-689.853 1093.31,-657 1070.79,-653.468 761.844,-567.742 649.107,-536.368"/>
<polygon fill="midnightblue" stroke="midnightblue" points="649.709,-532.902 639.137,-533.592 647.832,-539.646 649.709,-532.902"/>
</g>
<!-- Node34&#45;&gt;Node29 -->
<g id="edge111" class="edge"><title>Node34&#45;&gt;Node29</title>
<path fill="none" stroke="midnightblue" d="M2156.23,-706.798C2016.77,-703.632 1601.2,-686.181 1273.31,-590 1176.25,-561.532 1068.53,-509.844 1014.06,-482.171"/>
<polygon fill="midnightblue" stroke="midnightblue" points="1015.65,-479.053 1005.15,-477.619 1012.46,-485.286 1015.65,-479.053"/>
</g>
<!-- Node34&#45;&gt;Node33 -->
<g id="edge133" class="edge"><title>Node34&#45;&gt;Node33</title>
<path fill="none" stroke="midnightblue" d="M2156.25,-705.673C2037.58,-700.742 1737.75,-685.566 1703.31,-657 1652.45,-614.826 1645.6,-529.736 1645.51,-487.879"/>
<polygon fill="midnightblue" stroke="midnightblue" points="1649.01,-487.793 1645.62,-477.755 1642.01,-487.716 1649.01,-487.793"/>
</g>
<!-- Node35 -->
<g id="node35" class="node"><title>Node35</title>
<polygon fill="white" stroke="#bfbfbf" points="2580.31,-252 2580.31,-271 2624.31,-271 2624.31,-252 2580.31,-252"/>
<text text-anchor="middle" x="2602.31" y="-259" font-family="Helvetica,sans-Serif" font-size="10.00">mutex</text>
</g>
<!-- Node34&#45;&gt;Node35 -->
<g id="edge95" class="edge"><title>Node34&#45;&gt;Node35</title>
<path fill="none" stroke="midnightblue" d="M2252.48,-704.217C2330.94,-698.178 2482.19,-683.439 2528.31,-657 2566.12,-635.319 2590.31,-624.592 2590.31,-581 2590.31,-581 2590.31,-581 2590.31,-394.5 2590.31,-353.991 2595.98,-306.776 2599.52,-281.233"/>
<polygon fill="midnightblue" stroke="midnightblue" points="2603.02,-281.52 2600.98,-271.124 2596.09,-280.525 2603.02,-281.52"/>
</g>
<!-- Node36 -->
<g id="node36" class="node"><title>Node36</title>
<g id="a_node36"><a xlink:href="_u_r_l_8h.html" target="_top" xlink:title="uscxml/util/URL.h">
<polygon fill="white" stroke="black" points="1927.31,-319 1927.31,-338 2021.31,-338 2021.31,-319 1927.31,-319"/>
<text text-anchor="middle" x="1974.31" y="-326" font-family="Helvetica,sans-Serif" font-size="10.00">uscxml/util/URL.h</text>
</a>
</g>
</g>
<!-- Node34&#45;&gt;Node36 -->
<g id="edge100" class="edge"><title>Node34&#45;&gt;Node36</title>
<path fill="none" stroke="midnightblue" d="M2243.4,-693.388C2261.15,-685.211 2281.08,-673.265 2294.31,-657 2316.65,-629.516 2318.31,-616.422 2318.31,-581 2318.31,-581 2318.31,-581 2318.31,-461.5 2318.31,-423.74 2322.68,-404.912 2294.31,-380 2256.15,-346.507 2112.68,-335.138 2031.4,-331.346"/>
<polygon fill="midnightblue" stroke="midnightblue" points="2031.47,-327.846 2021.32,-330.9 2031.16,-334.839 2031.47,-327.846"/>
</g>
<!-- Node39 -->
<g id="node39" class="node"><title>Node39</title>
<g id="a_node39"><a xlink:href="_micro_step_impl_8h.html" target="_top" xlink:title="uscxml/interpreter\l/MicroStepImpl.h">
<polygon fill="white" stroke="black" points="1712.31,-626.5 1712.31,-656.5 1808.31,-656.5 1808.31,-626.5 1712.31,-626.5"/>
<text text-anchor="start" x="1720.31" y="-644.5" font-family="Helvetica,sans-Serif" font-size="10.00">uscxml/interpreter</text>
<text text-anchor="middle" x="1760.31" y="-633.5" font-family="Helvetica,sans-Serif" font-size="10.00">/MicroStepImpl.h</text>
</a>
</g>
</g>
<!-- Node34&#45;&gt;Node39 -->
<g id="edge112" class="edge"><title>Node34&#45;&gt;Node39</title>
<path fill="none" stroke="midnightblue" d="M2155.94,-700.42C2073.79,-688.393 1907.29,-664.018 1818.75,-651.056"/>
<polygon fill="midnightblue" stroke="midnightblue" points="1819.01,-647.557 1808.61,-649.571 1817.99,-654.483 1819.01,-647.557"/>
</g>
<!-- Node40 -->
<g id="node40" class="node"><title>Node40</title>
<g id="a_node40"><a xlink:href="_content_executor_impl_8h.html" target="_top" xlink:title="uscxml/interpreter\l/ContentExecutorImpl.h">
<polygon fill="white" stroke="black" points="1826.81,-380.5 1826.81,-410.5 1947.81,-410.5 1947.81,-380.5 1826.81,-380.5"/>
<text text-anchor="start" x="1834.81" y="-398.5" font-family="Helvetica,sans-Serif" font-size="10.00">uscxml/interpreter</text>
<text text-anchor="middle" x="1887.31" y="-387.5" font-family="Helvetica,sans-Serif" font-size="10.00">/ContentExecutorImpl.h</text>
</a>
</g>
</g>
<!-- Node34&#45;&gt;Node40 -->
<g id="edge119" class="edge"><title>Node34&#45;&gt;Node40</title>
<path fill="none" stroke="midnightblue" d="M2204.31,-693.461C2204.31,-670.118 2204.31,-621.849 2204.31,-581 2204.31,-581 2204.31,-581 2204.31,-523 2204.31,-470.331 2051.44,-429.81 1958.02,-409.963"/>
<polygon fill="midnightblue" stroke="midnightblue" points="1958.56,-406.5 1948.05,-407.876 1957.12,-413.352 1958.56,-406.5"/>
</g>
<!-- Node44 -->
<g id="node44" class="node"><title>Node44</title>
<g id="a_node44"><a xlink:href="_event_queue_impl_8h.html" target="_top" xlink:title="uscxml/interpreter\l/EventQueueImpl.h">
<polygon fill="white" stroke="black" points="2270.31,-313.5 2270.31,-343.5 2372.31,-343.5 2372.31,-313.5 2270.31,-313.5"/>
<text text-anchor="start" x="2278.31" y="-331.5" font-family="Helvetica,sans-Serif" font-size="10.00">uscxml/interpreter</text>
<text text-anchor="middle" x="2321.31" y="-320.5" font-family="Helvetica,sans-Serif" font-size="10.00">/EventQueueImpl.h</text>
</a>
</g>
</g>
<!-- Node34&#45;&gt;Node44 -->
<g id="edge134" class="edge"><title>Node34&#45;&gt;Node44</title>
<path fill="none" stroke="midnightblue" d="M2252.51,-702.852C2321.01,-693.293 2438.31,-664.704 2438.31,-581 2438.31,-581 2438.31,-581 2438.31,-461.5 2438.31,-411.462 2390.64,-371.524 2356.16,-349.178"/>
<polygon fill="midnightblue" stroke="midnightblue" points="2357.6,-345.955 2347.27,-343.614 2353.89,-351.888 2357.6,-345.955"/>
</g>
<!-- Node34&#45;&gt;Node45 -->
<g id="edge143" class="edge"><title>Node34&#45;&gt;Node45</title>
<path fill="none" stroke="midnightblue" d="M2252.44,-707.219C2405.27,-705.906 2872.64,-698.504 2925.31,-657 2953.13,-635.075 2949.31,-616.422 2949.31,-581 2949.31,-581 2949.31,-581 2949.31,-461.5 2949.31,-419.264 2967.9,-372.426 2979.41,-347.475"/>
<polygon fill="midnightblue" stroke="midnightblue" points="2982.69,-348.731 2983.83,-338.199 2976.37,-345.718 2982.69,-348.731"/>
</g>
<!-- Node36&#45;&gt;Node3 -->
<g id="edge103" class="edge"><title>Node36&#45;&gt;Node3</title>
<path fill="none" stroke="midnightblue" d="M1962.44,-318.92C1937.78,-301.602 1878.57,-262.7 1822.31,-246 1641.43,-192.311 1583.22,-252.134 1399.31,-210 1361.73,-201.392 1355.84,-187.778 1318.31,-179 1152.26,-140.166 1094.49,-206.694 936.305,-143 915.766,-134.73 917.604,-120.846 897.305,-112 806.545,-72.4458 687.065,-66.8094 631.374,-66.5378"/>
<polygon fill="midnightblue" stroke="midnightblue" points="631.11,-63.0379 621.113,-66.5466 631.116,-70.0379 631.11,-63.0379"/>
</g>
<!-- Node36&#45;&gt;Node4 -->
<g id="edge101" class="edge"><title>Node36&#45;&gt;Node4</title>
<path fill="none" stroke="midnightblue" d="M1977.15,-318.864C1982.52,-303.362 1995.13,-270.181 2012.31,-246 2025.59,-227.296 2040.38,-231.137 2049.31,-210 2066.25,-169.875 2077.29,-145.377 2049.31,-112 2024.98,-82.989 1922,-72.6699 1854.86,-69.007"/>
<polygon fill="midnightblue" stroke="midnightblue" points="1854.99,-65.5089 1844.82,-68.4939 1854.63,-72.4998 1854.99,-65.5089"/>
</g>
<!-- Node36&#45;&gt;Node8 -->
<g id="edge105" class="edge"><title>Node36&#45;&gt;Node8</title>
<path fill="none" stroke="midnightblue" d="M1980.48,-318.771C1992.36,-302.525 2019.92,-267.362 2050.31,-246 2131.32,-189.052 2244.28,-151.597 2296.18,-136.306"/>
<polygon fill="midnightblue" stroke="midnightblue" points="2297.38,-139.604 2306.01,-133.462 2295.43,-132.88 2297.38,-139.604"/>
</g>
<!-- Node36&#45;&gt;Node12 -->
<g id="edge107" class="edge"><title>Node36&#45;&gt;Node12</title>
<path fill="none" stroke="midnightblue" d="M1966.48,-319C1958.37,-309.557 1946.21,-293.462 1941.31,-277 1927.81,-231.673 1940.21,-175.388 1948.41,-146.887"/>
<polygon fill="midnightblue" stroke="midnightblue" points="1951.82,-147.681 1951.38,-137.096 1945.12,-145.647 1951.82,-147.681"/>
</g>
<!-- Node36&#45;&gt;Node19 -->
<g id="edge104" class="edge"><title>Node36&#45;&gt;Node19</title>
<path fill="none" stroke="midnightblue" d="M1975.95,-318.715C1982.56,-282.138 2005.59,-142.414 1977.31,-112 1957.34,-90.535 1523.96,-73.0438 1394.51,-68.283"/>
<polygon fill="midnightblue" stroke="midnightblue" points="1394.44,-64.7785 1384.32,-67.9118 1394.19,-71.7739 1394.44,-64.7785"/>
</g>
<!-- Node36&#45;&gt;Node21 -->
<g id="edge102" class="edge"><title>Node36&#45;&gt;Node21</title>
<path fill="none" stroke="midnightblue" d="M1926.94,-324.273C1824.52,-317.14 1574.88,-298.916 1366.31,-277 1353.1,-275.613 1339.06,-273.967 1325.51,-272.291"/>
<polygon fill="midnightblue" stroke="midnightblue" points="1325.62,-268.778 1315.26,-271.007 1324.75,-275.723 1325.62,-268.778"/>
</g>
<!-- Node36&#45;&gt;Node31 -->
<g id="edge106" class="edge"><title>Node36&#45;&gt;Node31</title>
<path fill="none" stroke="midnightblue" d="M1950.93,-318.869C1917.72,-306.6 1857.12,-284.219 1823.12,-271.665"/>
<polygon fill="midnightblue" stroke="midnightblue" points="1824.08,-268.288 1813.49,-268.107 1821.66,-274.855 1824.08,-268.288"/>
</g>
<!-- Node37 -->
<g id="node37" class="node"><title>Node37</title>
<polygon fill="white" stroke="#bfbfbf" points="2059.81,-252 2059.81,-271 2104.81,-271 2104.81,-252 2059.81,-252"/>
<text text-anchor="middle" x="2082.31" y="-259" font-family="Helvetica,sans-Serif" font-size="10.00">thread</text>
</g>
<!-- Node36&#45;&gt;Node37 -->
<g id="edge108" class="edge"><title>Node36&#45;&gt;Node37</title>
<path fill="none" stroke="midnightblue" d="M1988.87,-318.734C2006.93,-307.867 2037.92,-289.216 2059.22,-276.393"/>
<polygon fill="midnightblue" stroke="midnightblue" points="2061.21,-279.283 2067.97,-271.127 2057.6,-273.285 2061.21,-279.283"/>
</g>
<!-- Node38 -->
<g id="node38" class="node"><title>Node38</title>
<polygon fill="white" stroke="#bfbfbf" points="2122.81,-252 2122.81,-271 2219.81,-271 2219.81,-252 2122.81,-252"/>
<text text-anchor="middle" x="2171.31" y="-259" font-family="Helvetica,sans-Serif" font-size="10.00">condition_variable</text>
</g>
<!-- Node36&#45;&gt;Node38 -->
<g id="edge109" class="edge"><title>Node36&#45;&gt;Node38</title>
<path fill="none" stroke="midnightblue" d="M2000.47,-318.869C2035.15,-307.424 2096.5,-287.181 2135.47,-274.322"/>
<polygon fill="midnightblue" stroke="midnightblue" points="2136.95,-277.521 2145.35,-271.064 2134.76,-270.873 2136.95,-277.521"/>
</g>
<!-- Node39&#45;&gt;Node3 -->
<g id="edge115" class="edge"><title>Node39&#45;&gt;Node3</title>
<path fill="none" stroke="midnightblue" d="M1712.01,-638.871C1483.6,-630.882 517.903,-593.79 398.305,-534 325.493,-497.599 277.305,-477.904 277.305,-396.5 277.305,-396.5 277.305,-396.5 277.305,-260.5 277.305,-125.057 488.893,-82.1034 569.566,-70.6486"/>
<polygon fill="midnightblue" stroke="midnightblue" points="570.168,-74.0991 579.609,-69.2907 569.23,-67.1622 570.168,-74.0991"/>
</g>
<!-- Node39&#45;&gt;Node4 -->
<g id="edge116" class="edge"><title>Node39&#45;&gt;Node4</title>
<path fill="none" stroke="midnightblue" d="M1808.36,-632.466C1979.95,-602.439 2552.31,-490.239 2552.31,-329.5 2552.31,-329.5 2552.31,-329.5 2552.31,-193.5 2552.31,-118.408 2476.29,-133.369 2404.31,-112 2302.63,-81.8181 1987.88,-71.3264 1855.23,-68.1831"/>
<polygon fill="midnightblue" stroke="midnightblue" points="1854.94,-64.6755 1844.86,-67.9436 1854.78,-71.6736 1854.94,-64.6755"/>
</g>
<!-- Node39&#45;&gt;Node7 -->
<g id="edge117" class="edge"><title>Node39&#45;&gt;Node7</title>
<path fill="none" stroke="midnightblue" d="M1711.97,-633.733C1634.72,-622.918 1483.46,-601.742 1398,-589.777"/>
<polygon fill="midnightblue" stroke="midnightblue" points="1398.3,-586.286 1387.91,-588.365 1397.33,-593.218 1398.3,-586.286"/>
</g>
<!-- Node39&#45;&gt;Node12 -->
<g id="edge113" class="edge"><title>Node39&#45;&gt;Node12</title>
<path fill="none" stroke="midnightblue" d="M1758.79,-626.071C1751.88,-559.135 1724.37,-280.655 1741.31,-246 1751.94,-224.233 1806.28,-191.041 1827.31,-179 1845.34,-168.67 1898.17,-148.827 1929.72,-137.33"/>
<polygon fill="midnightblue" stroke="midnightblue" points="1931.32,-140.475 1939.53,-133.777 1928.93,-133.894 1931.32,-140.475"/>
</g>
<!-- Node39&#45;&gt;Node21 -->
<g id="edge118" class="edge"><title>Node39&#45;&gt;Node21</title>
<path fill="none" stroke="midnightblue" d="M1756.31,-626.228C1743.9,-582.036 1706.68,-450.215 1703.31,-447 1632.94,-379.978 1349.42,-410.232 1278.31,-344 1260.85,-327.738 1255.06,-299.789 1253.17,-281.227"/>
<polygon fill="midnightblue" stroke="midnightblue" points="1256.65,-280.789 1252.43,-271.07 1249.67,-281.298 1256.65,-280.789"/>
</g>
<!-- Node39&#45;&gt;Node31 -->
<g id="edge114" class="edge"><title>Node39&#45;&gt;Node31</title>
<path fill="none" stroke="midnightblue" d="M1768.18,-626.407C1779.31,-605.125 1798.31,-563.208 1798.31,-525 1798.31,-525 1798.31,-525 1798.31,-394.5 1798.31,-354.158 1798.31,-306.88 1798.31,-281.282"/>
<polygon fill="midnightblue" stroke="midnightblue" points="1801.81,-281.149 1798.31,-271.149 1794.81,-281.149 1801.81,-281.149"/>
</g>
<!-- Node40&#45;&gt;Node3 -->
<g id="edge131" class="edge"><title>Node40&#45;&gt;Node3</title>
<path fill="none" stroke="midnightblue" d="M1826.54,-391.761C1716.69,-386.298 1477.91,-372.084 1278.31,-344 1127.52,-322.785 1086.16,-326.922 942.305,-277 818.37,-233.991 786.179,-219.078 679.305,-143 654.484,-125.331 629.812,-100.039 614.81,-83.568"/>
<polygon fill="midnightblue" stroke="midnightblue" points="617.174,-80.962 607.896,-75.8462 611.959,-85.6312 617.174,-80.962"/>
</g>
<!-- Node40&#45;&gt;Node4 -->
<g id="edge120" class="edge"><title>Node40&#45;&gt;Node4</title>
<path fill="none" stroke="midnightblue" d="M1947.95,-393.002C2129.64,-388.22 2661.51,-371.97 2734.31,-344 2788.47,-323.187 2836.31,-320.527 2836.31,-262.5 2836.31,-262.5 2836.31,-262.5 2836.31,-193.5 2836.31,-113.695 2753.41,-132.599 2676.31,-112 2520.88,-70.4755 2027.25,-66.7991 1855.17,-66.8161"/>
<polygon fill="midnightblue" stroke="midnightblue" points="1855.03,-63.3161 1845.03,-66.8215 1855.03,-70.3161 1855.03,-63.3161"/>
</g>
<!-- Node40&#45;&gt;Node14 -->
<g id="edge130" class="edge"><title>Node40&#45;&gt;Node14</title>
<path fill="none" stroke="midnightblue" d="M1826.65,-387.358C1719.73,-374.767 1499.06,-348.783 1393.73,-336.38"/>
<polygon fill="midnightblue" stroke="midnightblue" points="1393.94,-332.881 1383.6,-335.187 1393.13,-339.833 1393.94,-332.881"/>
</g>
<!-- Node40&#45;&gt;Node21 -->
<g id="edge121" class="edge"><title>Node40&#45;&gt;Node21</title>
<path fill="none" stroke="midnightblue" d="M1826.71,-381.903C1702.13,-356.006 1419.24,-297.201 1303.31,-273.102"/>
<polygon fill="midnightblue" stroke="midnightblue" points="1303.78,-269.625 1293.28,-271.017 1302.35,-276.479 1303.78,-269.625"/>
</g>
<!-- Node40&#45;&gt;Node31 -->
<g id="edge132" class="edge"><title>Node40&#45;&gt;Node31</title>
<path fill="none" stroke="midnightblue" d="M1877.78,-380.374C1861.33,-355.969 1827.64,-306.002 1809.87,-279.648"/>
<polygon fill="midnightblue" stroke="midnightblue" points="1812.59,-277.432 1804.1,-271.097 1806.79,-281.345 1812.59,-277.432"/>
</g>
<!-- Node41 -->
<g id="node41" class="node"><title>Node41</title>
<g id="a_node41"><a xlink:href="_interpreter_monitor_8h.html" target="_top" xlink:title="uscxml/interpreter\l/InterpreterMonitor.h">
<polygon fill="white" stroke="black" points="2618.81,-313.5 2618.81,-343.5 2725.81,-343.5 2725.81,-313.5 2618.81,-313.5"/>
<text text-anchor="start" x="2626.81" y="-331.5" font-family="Helvetica,sans-Serif" font-size="10.00">uscxml/interpreter</text>
<text text-anchor="middle" x="2672.31" y="-320.5" font-family="Helvetica,sans-Serif" font-size="10.00">/InterpreterMonitor.h</text>
</a>
</g>
</g>
<!-- Node40&#45;&gt;Node41 -->
<g id="edge122" class="edge"><title>Node40&#45;&gt;Node41</title>
<path fill="none" stroke="midnightblue" d="M1947.92,-389.481C2093.14,-377.456 2459.88,-347.089 2608.39,-334.792"/>
<polygon fill="midnightblue" stroke="midnightblue" points="2609.02,-338.252 2618.7,-333.939 2608.45,-331.276 2609.02,-338.252"/>
</g>
<!-- Node41&#45;&gt;Node4 -->
<g id="edge123" class="edge"><title>Node41&#45;&gt;Node4</title>
<path fill="none" stroke="midnightblue" d="M2725.84,-315.046C2745.85,-307.513 2766.55,-295.616 2778.31,-277 2785.66,-265.349 2780.11,-259.659 2778.31,-246 2774.27,-215.431 2780.49,-202.307 2760.31,-179 2710.9,-121.963 2677.77,-129.248 2604.31,-112 2461.93,-78.5707 2017.11,-69.7586 1855.1,-67.628"/>
<polygon fill="midnightblue" stroke="midnightblue" points="1854.88,-64.1251 1844.84,-67.4971 1854.79,-71.1245 1854.88,-64.1251"/>
</g>
<!-- Node41&#45;&gt;Node21 -->
<g id="edge124" class="edge"><title>Node41&#45;&gt;Node21</title>
<path fill="none" stroke="midnightblue" d="M2618.68,-324.597C2560.3,-321.491 2464.19,-316.535 2381.31,-313 1930.32,-293.767 1816.22,-313.516 1366.31,-277 1351.68,-275.813 1336.06,-274.112 1321.21,-272.29"/>
<polygon fill="midnightblue" stroke="midnightblue" points="1321.43,-268.79 1311.07,-271.014 1320.56,-275.736 1321.43,-268.79"/>
</g>
<!-- Node41&#45;&gt;Node35 -->
<g id="edge129" class="edge"><title>Node41&#45;&gt;Node35</title>
<path fill="none" stroke="midnightblue" d="M2657.12,-313.396C2645.99,-303.06 2630.87,-289.024 2619.33,-278.309"/>
<polygon fill="midnightblue" stroke="midnightblue" points="2621.38,-275.434 2611.67,-271.195 2616.62,-280.564 2621.38,-275.434"/>
</g>
<!-- Node42 -->
<g id="node42" class="node"><title>Node42</title>
<g id="a_node42"><a xlink:href="_interpreter_issue_8h.html" target="_top" xlink:title="Identifies some common problems with SCXML documents. ">
<polygon fill="white" stroke="black" points="2642.81,-246.5 2642.81,-276.5 2769.81,-276.5 2769.81,-246.5 2642.81,-246.5"/>
<text text-anchor="start" x="2650.81" y="-264.5" font-family="Helvetica,sans-Serif" font-size="10.00">uscxml/debug/Interpreter</text>
<text text-anchor="middle" x="2706.31" y="-253.5" font-family="Helvetica,sans-Serif" font-size="10.00">Issue.h</text>
</a>
</g>
</g>
<!-- Node41&#45;&gt;Node42 -->
<g id="edge125" class="edge"><title>Node41&#45;&gt;Node42</title>
<path fill="none" stroke="midnightblue" d="M2679.68,-313.396C2683.92,-305.304 2689.33,-294.944 2694.18,-285.685"/>
<polygon fill="midnightblue" stroke="midnightblue" points="2697.41,-287.06 2698.94,-276.577 2691.21,-283.815 2697.41,-287.06"/>
</g>
<!-- Node42&#45;&gt;Node4 -->
<g id="edge126" class="edge"><title>Node42&#45;&gt;Node4</title>
<path fill="none" stroke="midnightblue" d="M2698.08,-246.127C2679.36,-215.01 2630.2,-141.814 2566.31,-112 2502.53,-82.2406 2024.74,-71.0263 1854.96,-67.9553"/>
<polygon fill="midnightblue" stroke="midnightblue" points="1855,-64.4557 1844.94,-67.7772 1854.88,-71.4546 1855,-64.4557"/>
</g>
<!-- Node42&#45;&gt;Node12 -->
<g id="edge127" class="edge"><title>Node42&#45;&gt;Node12</title>
<path fill="none" stroke="midnightblue" d="M2642.62,-247.754C2639.47,-247.154 2636.35,-246.567 2633.31,-246 2378.13,-198.585 2067.8,-147.147 1979.07,-132.558"/>
<polygon fill="midnightblue" stroke="midnightblue" points="1979.58,-129.095 1969.14,-130.928 1978.44,-136.002 1979.58,-129.095"/>
</g>
<!-- Node43 -->
<g id="node43" class="node"><title>Node43</title>
<polygon fill="white" stroke="#bfbfbf" points="2696.81,-185 2696.81,-204 2751.81,-204 2751.81,-185 2696.81,-185"/>
<text text-anchor="middle" x="2724.31" y="-192" font-family="Helvetica,sans-Serif" font-size="10.00">iostream</text>
</g>
<!-- Node42&#45;&gt;Node43 -->
<g id="edge128" class="edge"><title>Node42&#45;&gt;Node43</title>
<path fill="none" stroke="midnightblue" d="M2710.21,-246.396C2712.85,-236.863 2716.36,-224.182 2719.22,-213.862"/>
<polygon fill="midnightblue" stroke="midnightblue" points="2722.6,-214.766 2721.9,-204.195 2715.86,-212.898 2722.6,-214.766"/>
</g>
<!-- Node44&#45;&gt;Node3 -->
<g id="edge137" class="edge"><title>Node44&#45;&gt;Node3</title>
<path fill="none" stroke="midnightblue" d="M2310.54,-313.384C2294.87,-294.091 2263.76,-260.259 2228.31,-246 2064.02,-179.928 1603.22,-256.289 1432.31,-210 1403.71,-202.257 1401.48,-188.156 1373.31,-179 1267.8,-144.708 1227.85,-187.679 1126.31,-143 1106.36,-134.222 1108.48,-120.249 1088.31,-112 1004.79,-77.8522 724.674,-69.3986 631.065,-67.5035"/>
<polygon fill="midnightblue" stroke="midnightblue" points="630.912,-64 620.846,-67.3081 630.778,-70.9988 630.912,-64"/>
</g>
<!-- Node44&#45;&gt;Node4 -->
<g id="edge135" class="edge"><title>Node44&#45;&gt;Node4</title>
<path fill="none" stroke="midnightblue" d="M2333.92,-313.188C2341.45,-303.656 2350.3,-290.451 2354.31,-277 2367.31,-233.333 2403.22,-167.032 2351.31,-112 2317.79,-76.4689 1991.8,-68.9923 1855.13,-67.4192"/>
<polygon fill="midnightblue" stroke="midnightblue" points="1854.87,-63.9164 1844.84,-67.3079 1854.8,-70.916 1854.87,-63.9164"/>
</g>
<!-- Node44&#45;&gt;Node8 -->
<g id="edge138" class="edge"><title>Node44&#45;&gt;Node8</title>
<path fill="none" stroke="midnightblue" d="M2327.5,-313.233C2331.46,-303.289 2336.24,-289.598 2338.31,-277 2345.88,-230.731 2335.74,-175.63 2329.15,-147.333"/>
<polygon fill="midnightblue" stroke="midnightblue" points="2332.46,-146.139 2326.69,-137.257 2325.66,-147.802 2332.46,-146.139"/>
</g>
<!-- Node44&#45;&gt;Node12 -->
<g id="edge139" class="edge"><title>Node44&#45;&gt;Node12</title>
<path fill="none" stroke="midnightblue" d="M2321.54,-313.198C2321.04,-295.237 2317.5,-264.533 2300.31,-246 2211.79,-150.566 2042.9,-132.63 1979.33,-129.27"/>
<polygon fill="midnightblue" stroke="midnightblue" points="1979.21,-125.761 1969.06,-128.809 1978.89,-132.754 1979.21,-125.761"/>
</g>
<!-- Node44&#45;&gt;Node21 -->
<g id="edge136" class="edge"><title>Node44&#45;&gt;Node21</title>
<path fill="none" stroke="midnightblue" d="M2270.06,-324.895C2078.29,-315.134 1411.57,-281.07 1366.31,-277 1352.23,-275.735 1337.23,-274.06 1322.87,-272.299"/>
<polygon fill="midnightblue" stroke="midnightblue" points="1322.92,-268.778 1312.56,-271.006 1322.05,-275.723 1322.92,-268.778"/>
</g>
<!-- Node44&#45;&gt;Node35 -->
<g id="edge141" class="edge"><title>Node44&#45;&gt;Node35</title>
<path fill="none" stroke="midnightblue" d="M2372.52,-315.654C2430.18,-302.315 2522.11,-281.051 2570.36,-269.89"/>
<polygon fill="midnightblue" stroke="midnightblue" points="2571.29,-273.268 2580.24,-267.604 2569.71,-266.448 2571.29,-273.268"/>
</g>
<!-- Node44&#45;&gt;Node37 -->
<g id="edge140" class="edge"><title>Node44&#45;&gt;Node37</title>
<path fill="none" stroke="midnightblue" d="M2270.05,-318.026C2227.44,-309.449 2165.54,-295.352 2113.31,-277 2111.69,-276.431 2110.04,-275.806 2108.39,-275.145"/>
<polygon fill="midnightblue" stroke="midnightblue" points="2109.67,-271.886 2099.11,-271.101 2106.88,-278.304 2109.67,-271.886"/>
</g>
<!-- Node44&#45;&gt;Node38 -->
<g id="edge142" class="edge"><title>Node44&#45;&gt;Node38</title>
<path fill="none" stroke="midnightblue" d="M2288.76,-313.396C2262.44,-301.991 2225.72,-286.079 2200.38,-275.098"/>
<polygon fill="midnightblue" stroke="midnightblue" points="2201.5,-271.772 2190.94,-271.007 2198.72,-278.195 2201.5,-271.772"/>
</g>
<!-- Node45&#45;&gt;Node4 -->
<g id="edge147" class="edge"><title>Node45&#45;&gt;Node4</title>
<path fill="none" stroke="midnightblue" d="M2989,-318.594C2991.07,-284.92 2993.39,-164.624 2926.31,-112 2883.88,-78.7206 2082.72,-69.4274 1855.13,-67.4539"/>
<polygon fill="midnightblue" stroke="midnightblue" points="1855.08,-63.9534 1845.05,-67.368 1855.02,-70.9532 1855.08,-63.9534"/>
</g>
<!-- Node45&#45;&gt;Node12 -->
<g id="edge145" class="edge"><title>Node45&#45;&gt;Node12</title>
<path fill="none" stroke="midnightblue" d="M2979.29,-318.894C2950.39,-291.948 2856.29,-209.198 2760.31,-179 2722.13,-166.989 2110.79,-136.227 1979.16,-129.72"/>
<polygon fill="midnightblue" stroke="midnightblue" points="1979.05,-126.211 1968.89,-129.214 1978.71,-133.203 1979.05,-126.211"/>
</g>
<!-- Node45&#45;&gt;Node31 -->
<g id="edge144" class="edge"><title>Node45&#45;&gt;Node31</title>
<path fill="none" stroke="midnightblue" d="M2939.14,-324.629C2887.98,-321.655 2805.53,-316.907 2734.31,-313 2430.34,-296.325 2354.27,-293.744 2050.31,-277 1967.24,-272.424 1868.79,-266.661 1823.45,-263.988"/>
<polygon fill="midnightblue" stroke="midnightblue" points="1823.55,-260.487 1813.36,-263.392 1823.13,-267.475 1823.55,-260.487"/>
</g>
<!-- Node45&#45;&gt;Node43 -->
<g id="edge146" class="edge"><title>Node45&#45;&gt;Node43</title>
<path fill="none" stroke="midnightblue" d="M2970.98,-318.839C2925.84,-296.269 2804.38,-235.536 2750.57,-208.634"/>
<polygon fill="midnightblue" stroke="midnightblue" points="2751.86,-205.363 2741.35,-204.021 2748.73,-211.624 2751.86,-205.363"/>
</g>
<!-- Node46 -->
<g id="node46" class="node"><title>Node46</title>
<polygon fill="white" stroke="#bfbfbf" points="3153.81,-252 3153.81,-271 3288.81,-271 3288.81,-252 3153.81,-252"/>
<text text-anchor="middle" x="3221.31" y="-259" font-family="Helvetica,sans-Serif" font-size="10.00">xercesc/util/XMLString.hpp</text>
</g>
<!-- Node45&#45;&gt;Node46 -->
<g id="edge148" class="edge"><title>Node45&#45;&gt;Node46</title>
<path fill="none" stroke="midnightblue" d="M3019.25,-318.869C3060.88,-307.254 3135,-286.576 3180.97,-273.753"/>
<polygon fill="midnightblue" stroke="midnightblue" points="3181.92,-277.122 3190.61,-271.064 3180.04,-270.38 3181.92,-277.122"/>
</g>
<!-- Node47 -->
<g id="node47" class="node"><title>Node47</title>
<polygon fill="white" stroke="#bfbfbf" points="3016.81,-252 3016.81,-271 3135.81,-271 3135.81,-252 3016.81,-252"/>
<text text-anchor="middle" x="3076.31" y="-259" font-family="Helvetica,sans-Serif" font-size="10.00">xercesc/dom/DOM.hpp</text>
</g>
<!-- Node45&#45;&gt;Node47 -->
<g id="edge149" class="edge"><title>Node45&#45;&gt;Node47</title>
<path fill="none" stroke="midnightblue" d="M3000.17,-318.734C3014.56,-308.111 3039.01,-290.049 3056.32,-277.264"/>
<polygon fill="midnightblue" stroke="midnightblue" points="3058.66,-279.884 3064.63,-271.127 3054.5,-274.253 3058.66,-279.884"/>
</g>
</g>
</svg>
