<?xml version="1.0" encoding="UTF-8" standalone="no"?>
<!DOCTYPE svg PUBLIC "-//W3C//DTD SVG 1.1//EN"
 "http://www.w3.org/Graphics/SVG/1.1/DTD/svg11.dtd">
<!-- Generated by graphviz version 2.38.0 (20140413.2041)
 -->
<!-- Title: debug/Breakpoint.h Pages: 1 -->
<svg width="1961pt" height="643pt"
 viewBox="0.00 0.00 1961.00 643.00" xmlns="http://www.w3.org/2000/svg" xmlns:xlink="http://www.w3.org/1999/xlink">
<g id="graph0" class="graph" transform="scale(1 1) rotate(0) translate(4 639)">
<title>debug/Breakpoint.h</title>
<polygon fill="white" stroke="none" points="-4,4 -4,-639 1957,-639 1957,4 -4,4"/>
<!-- Node1 -->
<g id="node1" class="node"><title>Node1</title>
<polygon fill="#bfbfbf" stroke="black" points="1095.5,-615.5 1095.5,-634.5 1198.5,-634.5 1198.5,-615.5 1095.5,-615.5"/>
<text text-anchor="middle" x="1147" y="-622.5" font-family="Helvetica,sans-Serif" font-size="10.00">debug/Breakpoint.h</text>
</g>
<!-- Node2 -->
<g id="node2" class="node"><title>Node2</title>
<polygon fill="white" stroke="#bfbfbf" points="1666.5,-56.5 1666.5,-75.5 1707.5,-75.5 1707.5,-56.5 1666.5,-56.5"/>
<text text-anchor="middle" x="1687" y="-63.5" font-family="Helvetica,sans-Serif" font-size="10.00">string</text>
</g>
<!-- Node1&#45;&gt;Node2 -->
<g id="edge1" class="edge"><title>Node1&#45;&gt;Node2</title>
<path fill="none" stroke="midnightblue" d="M1198.65,-622.411C1376.54,-616.262 1953,-590.439 1953,-514 1953,-514 1953,-514 1953,-193.5 1953,-90.3836 1787.96,-71.2271 1717.88,-67.7409"/>
<polygon fill="midnightblue" stroke="midnightblue" points="1718.01,-64.2434 1707.87,-67.3186 1717.72,-71.2372 1718.01,-64.2434"/>
</g>
<!-- Node3 -->
<g id="node3" class="node"><title>Node3</title>
<g id="a_node3"><a xlink:href="_common_8h.html" target="_top" xlink:title="uscxml/Common.h">
<polygon fill="white" stroke="black" points="292.5,-56.5 292.5,-75.5 391.5,-75.5 391.5,-56.5 292.5,-56.5"/>
<text text-anchor="middle" x="342" y="-63.5" font-family="Helvetica,sans-Serif" font-size="10.00">uscxml/Common.h</text>
</a>
</g>
</g>
<!-- Node1&#45;&gt;Node3 -->
<g id="edge2" class="edge"><title>Node1&#45;&gt;Node3</title>
<path fill="none" stroke="midnightblue" d="M1095.49,-624.542C872.301,-626.223 0,-625.65 0,-514 0,-514 0,-514 0,-193.5 0,-150.77 15.3177,-135.507 51,-112 88.0008,-87.624 208.32,-75.6266 282.156,-70.4206"/>
<polygon fill="midnightblue" stroke="midnightblue" points="282.515,-73.9043 292.253,-69.7305 282.037,-66.9206 282.515,-73.9043"/>
</g>
<!-- Node6 -->
<g id="node6" class="node"><title>Node6</title>
<g id="a_node6"><a xlink:href="_interpreter_8h.html" target="_top" xlink:title="uscxml/Interpreter.h">
<polygon fill="white" stroke="black" points="517.5,-559.5 517.5,-578.5 622.5,-578.5 622.5,-559.5 517.5,-559.5"/>
<text text-anchor="middle" x="570" y="-566.5" font-family="Helvetica,sans-Serif" font-size="10.00">uscxml/Interpreter.h</text>
</a>
</g>
</g>
<!-- Node1&#45;&gt;Node6 -->
<g id="edge5" class="edge"><title>Node1&#45;&gt;Node6</title>
<path fill="none" stroke="midnightblue" d="M1095.29,-619.16C989.227,-609.234 747.426,-586.605 632.673,-575.865"/>
<polygon fill="midnightblue" stroke="midnightblue" points="632.92,-572.373 622.637,-574.926 632.268,-579.343 632.92,-572.373"/>
</g>
<!-- Node16 -->
<g id="node16" class="node"><title>Node16</title>
<g id="a_node16"><a xlink:href="_data_8h.html" target="_top" xlink:title="uscxml/messages/Data.h">
<polygon fill="white" stroke="black" points="1055,-185 1055,-204 1183,-204 1183,-185 1055,-185"/>
<text text-anchor="middle" x="1119" y="-192" font-family="Helvetica,sans-Serif" font-size="10.00">uscxml/messages/Data.h</text>
</a>
</g>
</g>
<!-- Node1&#45;&gt;Node16 -->
<g id="edge91" class="edge"><title>Node1&#45;&gt;Node16</title>
<path fill="none" stroke="midnightblue" d="M1198.55,-619.612C1340.21,-606.868 1725,-567.341 1725,-514 1725,-514 1725,-514 1725,-450.5 1725,-376.222 1691.47,-354.702 1630,-313 1495.31,-221.623 1299.5,-200.57 1193.64,-196.182"/>
<polygon fill="midnightblue" stroke="midnightblue" points="1193.5,-192.674 1183.37,-195.797 1193.24,-199.669 1193.5,-192.674"/>
</g>
<!-- Node4 -->
<g id="node4" class="node"><title>Node4</title>
<polygon fill="white" stroke="#bfbfbf" points="268,-0.5 268,-19.5 340,-19.5 340,-0.5 268,-0.5"/>
<text text-anchor="middle" x="304" y="-7.5" font-family="Helvetica,sans-Serif" font-size="10.00">sys/socket.h</text>
</g>
<!-- Node3&#45;&gt;Node4 -->
<g id="edge3" class="edge"><title>Node3&#45;&gt;Node4</title>
<path fill="none" stroke="midnightblue" d="M335.725,-56.083C330.358,-48.4554 322.482,-37.2645 315.921,-27.9408"/>
<polygon fill="midnightblue" stroke="midnightblue" points="318.775,-25.9149 310.158,-19.7511 313.051,-29.9434 318.775,-25.9149"/>
</g>
<!-- Node5 -->
<g id="node5" class="node"><title>Node5</title>
<polygon fill="white" stroke="#bfbfbf" points="358,-0.5 358,-19.5 402,-19.5 402,-0.5 358,-0.5"/>
<text text-anchor="middle" x="380" y="-7.5" font-family="Helvetica,sans-Serif" font-size="10.00">cmath</text>
</g>
<!-- Node3&#45;&gt;Node5 -->
<g id="edge4" class="edge"><title>Node3&#45;&gt;Node5</title>
<path fill="none" stroke="midnightblue" d="M348.275,-56.083C353.642,-48.4554 361.518,-37.2645 368.079,-27.9408"/>
<polygon fill="midnightblue" stroke="midnightblue" points="370.949,-29.9434 373.842,-19.7511 365.225,-25.9149 370.949,-29.9434"/>
</g>
<!-- Node6&#45;&gt;Node2 -->
<g id="edge8" class="edge"><title>Node6&#45;&gt;Node2</title>
<path fill="none" stroke="midnightblue" d="M622.855,-566.148C867.374,-557.237 1877,-516.567 1877,-452.5 1877,-452.5 1877,-452.5 1877,-193.5 1877,-117.897 1771.48,-84.7227 1717.71,-72.7267"/>
<polygon fill="midnightblue" stroke="midnightblue" points="1718.2,-69.2533 1707.7,-70.6036 1716.75,-76.1012 1718.2,-69.2533"/>
</g>
<!-- Node6&#45;&gt;Node3 -->
<g id="edge6" class="edge"><title>Node6&#45;&gt;Node3</title>
<path fill="none" stroke="midnightblue" d="M517.154,-566.747C393.229,-563.336 91.7325,-552.108 57,-523 32.1281,-502.156 38,-484.951 38,-452.5 38,-452.5 38,-452.5 38,-193.5 38,-88.7486 193.76,-69.1445 282.294,-66.4623"/>
<polygon fill="midnightblue" stroke="midnightblue" points="282.567,-69.9569 292.481,-66.2191 282.4,-62.9589 282.567,-69.9569"/>
</g>
<!-- Node7 -->
<g id="node7" class="node"><title>Node7</title>
<polygon fill="white" stroke="#bfbfbf" points="1623,-118 1623,-137 1659,-137 1659,-118 1623,-118"/>
<text text-anchor="middle" x="1641" y="-125" font-family="Helvetica,sans-Serif" font-size="10.00">map</text>
</g>
<!-- Node6&#45;&gt;Node7 -->
<g id="edge7" class="edge"><title>Node6&#45;&gt;Node7</title>
<path fill="none" stroke="midnightblue" d="M622.508,-566.099C723.279,-561.954 950.608,-550.205 1140,-523 1403.85,-485.1 1558.95,-606.91 1727,-400 1792.01,-319.955 1694.02,-190.136 1655.46,-144.769"/>
<polygon fill="midnightblue" stroke="midnightblue" points="1658,-142.354 1648.81,-137.086 1652.71,-146.937 1658,-142.354"/>
</g>
<!-- Node8 -->
<g id="node8" class="node"><title>Node8</title>
<polygon fill="white" stroke="#bfbfbf" points="66,-503.5 66,-522.5 110,-522.5 110,-503.5 66,-503.5"/>
<text text-anchor="middle" x="88" y="-510.5" font-family="Helvetica,sans-Serif" font-size="10.00">vector</text>
</g>
<!-- Node6&#45;&gt;Node8 -->
<g id="edge9" class="edge"><title>Node6&#45;&gt;Node8</title>
<path fill="none" stroke="midnightblue" d="M517.482,-565.165C433.753,-560.094 265.064,-547.617 124,-523 122.751,-522.782 121.48,-522.544 120.2,-522.291"/>
<polygon fill="midnightblue" stroke="midnightblue" points="120.881,-518.857 110.362,-520.122 119.373,-525.693 120.881,-518.857"/>
</g>
<!-- Node9 -->
<g id="node9" class="node"><title>Node9</title>
<g id="a_node9"><a xlink:href="_micro_step_8h.html" target="_top" xlink:title="uscxml/interpreter\l/MicroStep.h">
<polygon fill="white" stroke="black" points="780,-179.5 780,-209.5 876,-209.5 876,-179.5 780,-179.5"/>
<text text-anchor="start" x="788" y="-197.5" font-family="Helvetica,sans-Serif" font-size="10.00">uscxml/interpreter</text>
<text text-anchor="middle" x="828" y="-186.5" font-family="Helvetica,sans-Serif" font-size="10.00">/MicroStep.h</text>
</a>
</g>
</g>
<!-- Node6&#45;&gt;Node9 -->
<g id="edge10" class="edge"><title>Node6&#45;&gt;Node9</title>
<path fill="none" stroke="midnightblue" d="M573.922,-559.284C583.516,-538.046 609.061,-481.994 632,-436 659.595,-380.669 657.852,-360.859 697,-313 712.998,-293.443 721.992,-293.646 741,-277 763.683,-257.135 788.725,-233.485 806.095,-216.792"/>
<polygon fill="midnightblue" stroke="midnightblue" points="808.732,-219.111 813.499,-209.65 803.872,-214.073 808.732,-219.111"/>
</g>
<!-- Node13 -->
<g id="node13" class="node"><title>Node13</title>
<g id="a_node13"><a xlink:href="_interpreter_state_8h.html" target="_top" xlink:title="uscxml/interpreter\l/InterpreterState.h">
<polygon fill="white" stroke="black" points="446.5,-112.5 446.5,-142.5 543.5,-142.5 543.5,-112.5 446.5,-112.5"/>
<text text-anchor="start" x="454.5" y="-130.5" font-family="Helvetica,sans-Serif" font-size="10.00">uscxml/interpreter</text>
<text text-anchor="middle" x="495" y="-119.5" font-family="Helvetica,sans-Serif" font-size="10.00">/InterpreterState.h</text>
</a>
</g>
</g>
<!-- Node6&#45;&gt;Node13 -->
<g id="edge90" class="edge"><title>Node6&#45;&gt;Node13</title>
<path fill="none" stroke="midnightblue" d="M517.133,-566.524C389.695,-559.877 76,-523.782 76,-329.5 76,-329.5 76,-329.5 76,-260.5 76,-185.912 320.6,-148.244 436.027,-134.621"/>
<polygon fill="midnightblue" stroke="midnightblue" points="436.584,-138.08 446.115,-133.453 435.779,-131.126 436.584,-138.08"/>
</g>
<!-- Node14 -->
<g id="node14" class="node"><title>Node14</title>
<g id="a_node14"><a xlink:href="_data_model_8h.html" target="_top" xlink:title="uscxml/plugins/DataModel.h">
<polygon fill="white" stroke="black" points="1479,-319 1479,-338 1621,-338 1621,-319 1479,-319"/>
<text text-anchor="middle" x="1550" y="-326" font-family="Helvetica,sans-Serif" font-size="10.00">uscxml/plugins/DataModel.h</text>
</a>
</g>
</g>
<!-- Node6&#45;&gt;Node14 -->
<g id="edge18" class="edge"><title>Node6&#45;&gt;Node14</title>
<path fill="none" stroke="midnightblue" d="M622.529,-567.839C765.552,-565.422 1170.88,-545.282 1465,-400 1492.52,-386.407 1518.86,-362.244 1534.74,-346.047"/>
<polygon fill="midnightblue" stroke="midnightblue" points="1537.66,-348.052 1542.03,-338.401 1532.6,-343.218 1537.66,-348.052"/>
</g>
<!-- Node22 -->
<g id="node22" class="node"><title>Node22</title>
<g id="a_node22"><a xlink:href="_factory_8h.html" target="_top" xlink:title="uscxml/plugins/Factory.h">
<polygon fill="white" stroke="black" points="792.5,-503.5 792.5,-522.5 919.5,-522.5 919.5,-503.5 792.5,-503.5"/>
<text text-anchor="middle" x="856" y="-510.5" font-family="Helvetica,sans-Serif" font-size="10.00">uscxml/plugins/Factory.h</text>
</a>
</g>
</g>
<!-- Node6&#45;&gt;Node22 -->
<g id="edge42" class="edge"><title>Node6&#45;&gt;Node22</title>
<path fill="none" stroke="midnightblue" d="M615.318,-559.444C665.628,-549.944 746.838,-534.611 800.813,-524.42"/>
<polygon fill="midnightblue" stroke="midnightblue" points="801.717,-527.811 810.894,-522.516 800.419,-520.933 801.717,-527.811"/>
</g>
<!-- Node31 -->
<g id="node31" class="node"><title>Node31</title>
<g id="a_node31"><a xlink:href="_content_executor_8h.html" target="_top" xlink:title="uscxml/interpreter\l/ContentExecutor.h">
<polygon fill="white" stroke="black" points="630,-246.5 630,-276.5 732,-276.5 732,-246.5 630,-246.5"/>
<text text-anchor="start" x="638" y="-264.5" font-family="Helvetica,sans-Serif" font-size="10.00">uscxml/interpreter</text>
<text text-anchor="middle" x="681" y="-253.5" font-family="Helvetica,sans-Serif" font-size="10.00">/ContentExecutor.h</text>
</a>
</g>
</g>
<!-- Node6&#45;&gt;Node31 -->
<g id="edge82" class="edge"><title>Node6&#45;&gt;Node31</title>
<path fill="none" stroke="midnightblue" d="M549.098,-559.388C514.717,-543.669 450,-506.861 450,-452.5 450,-452.5 450,-452.5 450,-389 450,-311.586 551.039,-281.238 619.471,-269.562"/>
<polygon fill="midnightblue" stroke="midnightblue" points="620.418,-272.954 629.734,-267.908 619.304,-266.044 620.418,-272.954"/>
</g>
<!-- Node32 -->
<g id="node32" class="node"><title>Node32</title>
<g id="a_node32"><a xlink:href="_event_queue_8h.html" target="_top" xlink:title="uscxml/interpreter\l/EventQueue.h">
<polygon fill="white" stroke="black" points="142,-313.5 142,-343.5 238,-343.5 238,-313.5 142,-313.5"/>
<text text-anchor="start" x="150" y="-331.5" font-family="Helvetica,sans-Serif" font-size="10.00">uscxml/interpreter</text>
<text text-anchor="middle" x="190" y="-320.5" font-family="Helvetica,sans-Serif" font-size="10.00">/EventQueue.h</text>
</a>
</g>
</g>
<!-- Node6&#45;&gt;Node32 -->
<g id="edge87" class="edge"><title>Node6&#45;&gt;Node32</title>
<path fill="none" stroke="midnightblue" d="M533.928,-559.494C506.14,-552.102 467.309,-539.911 436,-523 344.375,-473.509 252.067,-389.673 211.449,-350.652"/>
<polygon fill="midnightblue" stroke="midnightblue" points="213.874,-348.128 204.254,-343.687 209.005,-353.157 213.874,-348.128"/>
</g>
<!-- Node9&#45;&gt;Node2 -->
<g id="edge13" class="edge"><title>Node9&#45;&gt;Node2</title>
<path fill="none" stroke="midnightblue" d="M876.159,-190.215C1017.02,-180.522 1420.07,-152.146 1447,-143 1471.05,-134.833 1471.63,-121.932 1495,-112 1549.29,-88.9288 1617.48,-76.5289 1656.26,-70.8869"/>
<polygon fill="midnightblue" stroke="midnightblue" points="1656.96,-74.3225 1666.38,-69.4715 1655.99,-67.39 1656.96,-74.3225"/>
</g>
<!-- Node9&#45;&gt;Node3 -->
<g id="edge15" class="edge"><title>Node9&#45;&gt;Node3</title>
<path fill="none" stroke="midnightblue" d="M816.358,-179.407C799.802,-160.467 767.499,-127.403 732,-112 674.144,-86.8966 496.128,-74.5714 401.914,-69.6683"/>
<polygon fill="midnightblue" stroke="midnightblue" points="401.848,-66.1605 391.683,-69.1479 401.492,-73.1515 401.848,-66.1605"/>
</g>
<!-- Node10 -->
<g id="node10" class="node"><title>Node10</title>
<polygon fill="white" stroke="#bfbfbf" points="955.5,-56.5 955.5,-75.5 1008.5,-75.5 1008.5,-56.5 955.5,-56.5"/>
<text text-anchor="middle" x="982" y="-63.5" font-family="Helvetica,sans-Serif" font-size="10.00">memory</text>
</g>
<!-- Node9&#45;&gt;Node10 -->
<g id="edge11" class="edge"><title>Node9&#45;&gt;Node10</title>
<path fill="none" stroke="midnightblue" d="M836.013,-179.203C846.506,-161.528 866.371,-131.41 890,-112 907.12,-97.9368 929.37,-86.9026 947.701,-79.2806"/>
<polygon fill="midnightblue" stroke="midnightblue" points="949.164,-82.4649 957.151,-75.5038 946.567,-75.9647 949.164,-82.4649"/>
</g>
<!-- Node11 -->
<g id="node11" class="node"><title>Node11</title>
<polygon fill="white" stroke="#bfbfbf" points="1537.5,-118 1537.5,-137 1566.5,-137 1566.5,-118 1537.5,-118"/>
<text text-anchor="middle" x="1552" y="-125" font-family="Helvetica,sans-Serif" font-size="10.00">list</text>
</g>
<!-- Node9&#45;&gt;Node11 -->
<g id="edge12" class="edge"><title>Node9&#45;&gt;Node11</title>
<path fill="none" stroke="midnightblue" d="M876.23,-190.175C1017.68,-180.37 1425.29,-151.715 1485,-143 1499.26,-140.919 1515.02,-137.562 1527.67,-134.602"/>
<polygon fill="midnightblue" stroke="midnightblue" points="1528.56,-137.988 1537.47,-132.246 1526.92,-131.182 1528.56,-137.988"/>
</g>
<!-- Node12 -->
<g id="node12" class="node"><title>Node12</title>
<polygon fill="white" stroke="#bfbfbf" points="638.5,-118 638.5,-137 723.5,-137 723.5,-118 638.5,-118"/>
<text text-anchor="middle" x="681" y="-125" font-family="Helvetica,sans-Serif" font-size="10.00">uscxml/config.h</text>
</g>
<!-- Node9&#45;&gt;Node12 -->
<g id="edge14" class="edge"><title>Node9&#45;&gt;Node12</title>
<path fill="none" stroke="midnightblue" d="M796.103,-179.396C770.31,-167.991 734.326,-152.079 709.49,-141.098"/>
<polygon fill="midnightblue" stroke="midnightblue" points="710.8,-137.85 700.239,-137.007 707.969,-144.252 710.8,-137.85"/>
</g>
<!-- Node9&#45;&gt;Node13 -->
<g id="edge16" class="edge"><title>Node9&#45;&gt;Node13</title>
<path fill="none" stroke="midnightblue" d="M779.935,-184.118C720.096,-172.438 617.943,-152.498 553.585,-139.935"/>
<polygon fill="midnightblue" stroke="midnightblue" points="554.078,-136.466 543.592,-137.985 552.736,-143.336 554.078,-136.466"/>
</g>
<!-- Node13&#45;&gt;Node3 -->
<g id="edge17" class="edge"><title>Node13&#45;&gt;Node3</title>
<path fill="none" stroke="midnightblue" d="M458.741,-112.399C432.956,-102.372 398.643,-89.028 373.899,-79.405"/>
<polygon fill="midnightblue" stroke="midnightblue" points="374.851,-76.0203 364.263,-75.6578 372.314,-82.5443 374.851,-76.0203"/>
</g>
<!-- Node14&#45;&gt;Node2 -->
<g id="edge40" class="edge"><title>Node14&#45;&gt;Node2</title>
<path fill="none" stroke="midnightblue" d="M1580.41,-318.893C1624.61,-304.553 1705.03,-271.125 1739,-210 1760.16,-171.93 1757.11,-151.614 1739,-112 1733.22,-99.3602 1721.95,-88.911 1711.37,-81.2737"/>
<polygon fill="midnightblue" stroke="midnightblue" points="1713.04,-78.1817 1702.78,-75.5333 1709.15,-84.0009 1713.04,-78.1817"/>
</g>
<!-- Node14&#45;&gt;Node3 -->
<g id="edge19" class="edge"><title>Node14&#45;&gt;Node3</title>
<path fill="none" stroke="midnightblue" d="M1478.9,-324.521C1276.21,-315.903 704.686,-290.694 621,-277 607.233,-274.747 389.159,-219.561 379,-210 344.227,-177.273 340.465,-116.496 340.997,-85.7913"/>
<polygon fill="midnightblue" stroke="midnightblue" points="344.501,-85.7342 341.356,-75.617 337.506,-85.4874 344.501,-85.7342"/>
</g>
<!-- Node14&#45;&gt;Node10 -->
<g id="edge41" class="edge"><title>Node14&#45;&gt;Node10</title>
<path fill="none" stroke="midnightblue" d="M1555.18,-318.645C1573.44,-286.148 1630.82,-172.215 1575,-112 1537.15,-71.1662 1142.04,-67.1968 1018.62,-66.9588"/>
<polygon fill="midnightblue" stroke="midnightblue" points="1018.54,-63.4588 1008.54,-66.9466 1018.54,-70.4588 1018.54,-63.4588"/>
</g>
<!-- Node14&#45;&gt;Node11 -->
<g id="edge39" class="edge"><title>Node14&#45;&gt;Node11</title>
<path fill="none" stroke="midnightblue" d="M1550.09,-318.949C1550.39,-289.165 1551.39,-189.51 1551.81,-147.468"/>
<polygon fill="midnightblue" stroke="midnightblue" points="1555.31,-147.278 1551.91,-137.243 1548.31,-147.207 1555.31,-147.278"/>
</g>
<!-- Node15 -->
<g id="node15" class="node"><title>Node15</title>
<g id="a_node15"><a xlink:href="_event_8h.html" target="_top" xlink:title="uscxml/messages/Event.h">
<polygon fill="white" stroke="black" points="938.5,-252 938.5,-271 1071.5,-271 1071.5,-252 938.5,-252"/>
<text text-anchor="middle" x="1005" y="-259" font-family="Helvetica,sans-Serif" font-size="10.00">uscxml/messages/Event.h</text>
</a>
</g>
</g>
<!-- Node14&#45;&gt;Node15 -->
<g id="edge20" class="edge"><title>Node14&#45;&gt;Node15</title>
<path fill="none" stroke="midnightblue" d="M1478.75,-319.002C1376.03,-306.751 1187.1,-284.219 1081.52,-271.626"/>
<polygon fill="midnightblue" stroke="midnightblue" points="1081.91,-268.148 1071.57,-270.439 1081.08,-275.099 1081.91,-268.148"/>
</g>
<!-- Node15&#45;&gt;Node16 -->
<g id="edge21" class="edge"><title>Node15&#45;&gt;Node16</title>
<path fill="none" stroke="midnightblue" d="M1020.37,-251.734C1039.52,-240.818 1072.44,-222.049 1094.94,-209.221"/>
<polygon fill="midnightblue" stroke="midnightblue" points="1096.92,-212.121 1103.87,-204.127 1093.45,-206.04 1096.92,-212.121"/>
</g>
<!-- Node21 -->
<g id="node21" class="node"><title>Node21</title>
<g id="a_node21"><a xlink:href="_u_u_i_d_8h.html" target="_top" xlink:title="uscxml/util/UUID.h">
<polygon fill="white" stroke="black" points="932.5,-118 932.5,-137 1031.5,-137 1031.5,-118 932.5,-118"/>
<text text-anchor="middle" x="982" y="-125" font-family="Helvetica,sans-Serif" font-size="10.00">uscxml/util/UUID.h</text>
</a>
</g>
</g>
<!-- Node15&#45;&gt;Node21 -->
<g id="edge36" class="edge"><title>Node15&#45;&gt;Node21</title>
<path fill="none" stroke="midnightblue" d="M1003.49,-251.839C999.803,-230.674 990.267,-175.948 985.229,-147.033"/>
<polygon fill="midnightblue" stroke="midnightblue" points="988.649,-146.272 983.485,-137.021 981.753,-147.474 988.649,-146.272"/>
</g>
<!-- Node16&#45;&gt;Node3 -->
<g id="edge26" class="edge"><title>Node16&#45;&gt;Node3</title>
<path fill="none" stroke="midnightblue" d="M1087.89,-184.885C1027.09,-168.355 888.046,-132.054 769,-112 638.81,-90.0687 484.379,-76.9442 401.564,-70.9381"/>
<polygon fill="midnightblue" stroke="midnightblue" points="401.807,-67.4466 391.583,-70.2236 401.307,-74.4288 401.807,-67.4466"/>
</g>
<!-- Node16&#45;&gt;Node7 -->
<g id="edge23" class="edge"><title>Node16&#45;&gt;Node7</title>
<path fill="none" stroke="midnightblue" d="M1183.11,-188.557C1271.62,-181.242 1436.09,-165.885 1575,-143 1587.5,-140.941 1601.19,-138.04 1612.85,-135.374"/>
<polygon fill="midnightblue" stroke="midnightblue" points="1613.95,-138.71 1622.89,-133.021 1612.36,-131.894 1613.95,-138.71"/>
</g>
<!-- Node16&#45;&gt;Node10 -->
<g id="edge24" class="edge"><title>Node16&#45;&gt;Node10</title>
<path fill="none" stroke="midnightblue" d="M1111.08,-184.536C1097.27,-169.084 1067.6,-136.717 1040,-112 1028.05,-101.294 1013.82,-90.2341 1002.45,-81.7578"/>
<polygon fill="midnightblue" stroke="midnightblue" points="1004.52,-78.9385 994.397,-75.8283 1000.37,-84.5756 1004.52,-78.9385"/>
</g>
<!-- Node16&#45;&gt;Node11 -->
<g id="edge22" class="edge"><title>Node16&#45;&gt;Node11</title>
<path fill="none" stroke="midnightblue" d="M1183.03,-186.161C1256.28,-177.42 1379.68,-161.635 1485,-143 1499.19,-140.489 1514.95,-137.109 1527.61,-134.244"/>
<polygon fill="midnightblue" stroke="midnightblue" points="1528.46,-137.641 1537.42,-131.989 1526.89,-130.819 1528.46,-137.641"/>
</g>
<!-- Node16&#45;&gt;Node12 -->
<g id="edge25" class="edge"><title>Node16&#45;&gt;Node12</title>
<path fill="none" stroke="midnightblue" d="M1061.29,-184.936C975.658,-172.228 816.205,-148.565 733.617,-136.308"/>
<polygon fill="midnightblue" stroke="midnightblue" points="734.1,-132.842 723.695,-134.836 733.073,-139.766 734.1,-132.842"/>
</g>
<!-- Node17 -->
<g id="node17" class="node"><title>Node17</title>
<g id="a_node17"><a xlink:href="_convenience_8h.html" target="_top" xlink:title="uscxml/util/Convenience.h">
<polygon fill="white" stroke="black" points="1233.5,-118 1233.5,-137 1366.5,-137 1366.5,-118 1233.5,-118"/>
<text text-anchor="middle" x="1300" y="-125" font-family="Helvetica,sans-Serif" font-size="10.00">uscxml/util/Convenience.h</text>
</a>
</g>
</g>
<!-- Node16&#45;&gt;Node17 -->
<g id="edge27" class="edge"><title>Node16&#45;&gt;Node17</title>
<path fill="none" stroke="midnightblue" d="M1143.04,-184.869C1174.77,-173.473 1230.79,-153.353 1266.62,-140.487"/>
<polygon fill="midnightblue" stroke="midnightblue" points="1267.92,-143.738 1276.15,-137.064 1265.56,-137.15 1267.92,-143.738"/>
</g>
<!-- Node20 -->
<g id="node20" class="node"><title>Node20</title>
<g id="a_node20"><a xlink:href="_blob_8h.html" target="_top" xlink:title="uscxml/messages/Blob.h">
<polygon fill="white" stroke="black" points="1088.5,-118 1088.5,-137 1215.5,-137 1215.5,-118 1088.5,-118"/>
<text text-anchor="middle" x="1152" y="-125" font-family="Helvetica,sans-Serif" font-size="10.00">uscxml/messages/Blob.h</text>
</a>
</g>
</g>
<!-- Node16&#45;&gt;Node20 -->
<g id="edge32" class="edge"><title>Node16&#45;&gt;Node20</title>
<path fill="none" stroke="midnightblue" d="M1123.45,-184.734C1128.45,-174.89 1136.69,-158.66 1143.03,-146.159"/>
<polygon fill="midnightblue" stroke="midnightblue" points="1146.21,-147.628 1147.62,-137.127 1139.97,-144.46 1146.21,-147.628"/>
</g>
<!-- Node17&#45;&gt;Node2 -->
<g id="edge29" class="edge"><title>Node17&#45;&gt;Node2</title>
<path fill="none" stroke="midnightblue" d="M1355.45,-117.975C1438.2,-105.252 1591.25,-81.7207 1656.38,-71.7078"/>
<polygon fill="midnightblue" stroke="midnightblue" points="1657.06,-75.1445 1666.41,-70.1655 1656,-68.2258 1657.06,-75.1445"/>
</g>
<!-- Node17&#45;&gt;Node3 -->
<g id="edge28" class="edge"><title>Node17&#45;&gt;Node3</title>
<path fill="none" stroke="midnightblue" d="M1260.72,-117.938C1248.96,-115.665 1236,-113.444 1224,-112 1064.19,-92.771 573.233,-74.8139 401.812,-68.977"/>
<polygon fill="midnightblue" stroke="midnightblue" points="401.825,-65.4755 391.712,-68.6346 401.588,-72.4715 401.825,-65.4755"/>
</g>
<!-- Node18 -->
<g id="node18" class="node"><title>Node18</title>
<polygon fill="white" stroke="#bfbfbf" points="1810.5,-56.5 1810.5,-75.5 1849.5,-75.5 1849.5,-56.5 1810.5,-56.5"/>
<text text-anchor="middle" x="1830" y="-63.5" font-family="Helvetica,sans-Serif" font-size="10.00">limits</text>
</g>
<!-- Node17&#45;&gt;Node18 -->
<g id="edge30" class="edge"><title>Node17&#45;&gt;Node18</title>
<path fill="none" stroke="midnightblue" d="M1366.59,-119.025C1482.72,-105.988 1717.79,-79.5977 1800.44,-70.3181"/>
<polygon fill="midnightblue" stroke="midnightblue" points="1800.86,-73.7929 1810.41,-69.199 1800.08,-66.8366 1800.86,-73.7929"/>
</g>
<!-- Node19 -->
<g id="node19" class="node"><title>Node19</title>
<polygon fill="white" stroke="#bfbfbf" points="715,-56.5 715,-75.5 767,-75.5 767,-56.5 715,-56.5"/>
<text text-anchor="middle" x="741" y="-63.5" font-family="Helvetica,sans-Serif" font-size="10.00">sstream</text>
</g>
<!-- Node17&#45;&gt;Node19 -->
<g id="edge31" class="edge"><title>Node17&#45;&gt;Node19</title>
<path fill="none" stroke="midnightblue" d="M1259.1,-117.953C1247.77,-115.788 1235.44,-113.62 1224,-112 1057.81,-88.4599 857.641,-74.2984 777.127,-69.1802"/>
<polygon fill="midnightblue" stroke="midnightblue" points="777.219,-65.6792 767.019,-68.5455 776.78,-72.6654 777.219,-65.6792"/>
</g>
<!-- Node20&#45;&gt;Node2 -->
<g id="edge33" class="edge"><title>Node20&#45;&gt;Node2</title>
<path fill="none" stroke="midnightblue" d="M1190.73,-117.946C1201.47,-115.781 1213.15,-113.615 1224,-112 1385.79,-87.9105 1581.39,-73.7711 1656.03,-68.9161"/>
<polygon fill="midnightblue" stroke="midnightblue" points="1656.39,-72.4003 1666.14,-68.2671 1655.94,-65.4146 1656.39,-72.4003"/>
</g>
<!-- Node20&#45;&gt;Node3 -->
<g id="edge35" class="edge"><title>Node20&#45;&gt;Node3</title>
<path fill="none" stroke="midnightblue" d="M1091.92,-117.998C1075.14,-115.821 1056.88,-113.635 1040,-112 804.232,-89.1622 522.502,-75.0009 401.74,-69.5532"/>
<polygon fill="midnightblue" stroke="midnightblue" points="401.743,-66.0499 391.597,-69.0991 401.43,-73.0429 401.743,-66.0499"/>
</g>
<!-- Node20&#45;&gt;Node10 -->
<g id="edge34" class="edge"><title>Node20&#45;&gt;Node10</title>
<path fill="none" stroke="midnightblue" d="M1127.64,-117.975C1098.36,-107.725 1049.03,-90.4593 1016,-78.8994"/>
<polygon fill="midnightblue" stroke="midnightblue" points="1016.91,-75.5091 1006.31,-75.5091 1014.59,-82.1162 1016.91,-75.5091"/>
</g>
<!-- Node21&#45;&gt;Node2 -->
<g id="edge38" class="edge"><title>Node21&#45;&gt;Node2</title>
<path fill="none" stroke="midnightblue" d="M1031.75,-118.336C1046.89,-116.047 1063.6,-113.718 1079,-112 1299.64,-87.3783 1566.88,-72.8943 1656.24,-68.4646"/>
<polygon fill="midnightblue" stroke="midnightblue" points="1656.66,-71.9483 1666.48,-67.9628 1656.32,-64.9567 1656.66,-71.9483"/>
</g>
<!-- Node21&#45;&gt;Node3 -->
<g id="edge37" class="edge"><title>Node21&#45;&gt;Node3</title>
<path fill="none" stroke="midnightblue" d="M932.269,-118.843C915.672,-116.445 897.063,-113.925 880,-112 706.837,-92.4664 501.43,-77.5706 401.947,-70.8789"/>
<polygon fill="midnightblue" stroke="midnightblue" points="402.001,-67.3748 391.79,-70.1995 401.534,-74.3592 402.001,-67.3748"/>
</g>
<!-- Node22&#45;&gt;Node2 -->
<g id="edge78" class="edge"><title>Node22&#45;&gt;Node2</title>
<path fill="none" stroke="midnightblue" d="M919.715,-510.809C1016.72,-508.001 1206.89,-498.581 1365,-467 1461.9,-447.645 1486.57,-439.827 1577,-400 1689.21,-350.585 1754.44,-330.511 1777,-210 1780.54,-191.106 1782.11,-121.767 1776,-112 1763.2,-91.5292 1737.94,-80.0079 1717.59,-73.7602"/>
<polygon fill="midnightblue" stroke="midnightblue" points="1718.35,-70.3394 1707.78,-71.0274 1716.47,-77.0826 1718.35,-70.3394"/>
</g>
<!-- Node22&#45;&gt;Node3 -->
<g id="edge43" class="edge"><title>Node22&#45;&gt;Node3</title>
<path fill="none" stroke="midnightblue" d="M798.767,-503.495C745.524,-495.269 664.087,-481.889 594,-467 367.174,-418.815 114,-494.388 114,-262.5 114,-262.5 114,-262.5 114,-193.5 114,-152.545 124.695,-137.173 157,-112 192.738,-84.1513 243.242,-73.2237 282.454,-69.081"/>
<polygon fill="midnightblue" stroke="midnightblue" points="282.79,-72.5649 292.42,-68.1467 282.137,-65.5955 282.79,-72.5649"/>
</g>
<!-- Node22&#45;&gt;Node10 -->
<g id="edge79" class="edge"><title>Node22&#45;&gt;Node10</title>
<path fill="none" stroke="midnightblue" d="M834.893,-503.347C816.577,-495.324 789.807,-482.335 769,-467 708.178,-422.174 664.645,-381.277 697,-313 707.82,-290.167 726.92,-297.98 741,-277 766.383,-239.177 745.062,-216.445 771,-179 798.79,-138.881 815.222,-135.491 858,-112 886,-96.6239 920.3,-84.6442 945.722,-76.9245"/>
<polygon fill="midnightblue" stroke="midnightblue" points="946.746,-80.2717 955.342,-74.0775 944.759,-73.5595 946.746,-80.2717"/>
</g>
<!-- Node22&#45;&gt;Node18 -->
<g id="edge81" class="edge"><title>Node22&#45;&gt;Node18</title>
<path fill="none" stroke="midnightblue" d="M919.8,-509.448C1050.22,-503.845 1343.28,-489.175 1441,-467 1575.94,-436.381 1618.83,-430.278 1727,-344 1817.14,-272.108 1852.31,-251.612 1891,-143 1895.62,-130.021 1897.21,-124.299 1891,-112 1884.08,-98.2932 1870.79,-87.7328 1858.39,-80.2982"/>
<polygon fill="midnightblue" stroke="midnightblue" points="1860.05,-77.2201 1849.61,-75.4367 1856.66,-83.3436 1860.05,-77.2201"/>
</g>
<!-- Node23 -->
<g id="node23" class="node"><title>Node23</title>
<g id="a_node23"><a xlink:href="_executable_content_8h.html" target="_top" xlink:title="uscxml/plugins/Executable\lContent.h">
<polygon fill="white" stroke="black" points="408,-179.5 408,-209.5 542,-209.5 542,-179.5 408,-179.5"/>
<text text-anchor="start" x="416" y="-197.5" font-family="Helvetica,sans-Serif" font-size="10.00">uscxml/plugins/Executable</text>
<text text-anchor="middle" x="475" y="-186.5" font-family="Helvetica,sans-Serif" font-size="10.00">Content.h</text>
</a>
</g>
</g>
<!-- Node22&#45;&gt;Node23 -->
<g id="edge44" class="edge"><title>Node22&#45;&gt;Node23</title>
<path fill="none" stroke="midnightblue" d="M792.49,-505.125C735.567,-497.924 657.259,-485.123 632,-467 543.245,-403.317 497.178,-272.702 481.401,-219.175"/>
<polygon fill="midnightblue" stroke="midnightblue" points="484.761,-218.193 478.646,-209.54 478.031,-220.117 484.761,-218.193"/>
</g>
<!-- Node24 -->
<g id="node24" class="node"><title>Node24</title>
<g id="a_node24"><a xlink:href="_event_handler_8h.html" target="_top" xlink:title="uscxml/plugins/EventHandler.h">
<polygon fill="white" stroke="black" points="1033,-319 1033,-338 1187,-338 1187,-319 1033,-319"/>
<text text-anchor="middle" x="1110" y="-326" font-family="Helvetica,sans-Serif" font-size="10.00">uscxml/plugins/EventHandler.h</text>
</a>
</g>
</g>
<!-- Node22&#45;&gt;Node24 -->
<g id="edge50" class="edge"><title>Node22&#45;&gt;Node24</title>
<path fill="none" stroke="midnightblue" d="M898.416,-503.472C928.903,-496.316 970.386,-484.436 1004,-467 1047.01,-444.69 1062.93,-440.189 1090,-400 1100.53,-384.359 1105.57,-363.197 1107.95,-348.15"/>
<polygon fill="midnightblue" stroke="midnightblue" points="1111.45,-348.402 1109.3,-338.028 1104.51,-347.48 1111.45,-348.402"/>
</g>
<!-- Node25 -->
<g id="node25" class="node"><title>Node25</title>
<g id="a_node25"><a xlink:href="_i_o_processor_8h.html" target="_top" xlink:title="uscxml/plugins/IOProcessor.h">
<polygon fill="white" stroke="black" points="932.5,-380.5 932.5,-399.5 1081.5,-399.5 1081.5,-380.5 932.5,-380.5"/>
<text text-anchor="middle" x="1007" y="-387.5" font-family="Helvetica,sans-Serif" font-size="10.00">uscxml/plugins/IOProcessor.h</text>
</a>
</g>
</g>
<!-- Node22&#45;&gt;Node25 -->
<g id="edge56" class="edge"><title>Node22&#45;&gt;Node25</title>
<path fill="none" stroke="midnightblue" d="M910.425,-503.454C934.808,-497.096 962.233,-486.069 981,-467 996.101,-451.657 1002.44,-427.181 1005.1,-410.167"/>
<polygon fill="midnightblue" stroke="midnightblue" points="1008.63,-410.144 1006.41,-399.784 1001.69,-409.266 1008.63,-410.144"/>
</g>
<!-- Node26 -->
<g id="node26" class="node"><title>Node26</title>
<g id="a_node26"><a xlink:href="_invoker_8h.html" target="_top" xlink:title="uscxml/plugins/Invoker.h">
<polygon fill="white" stroke="black" points="712,-380.5 712,-399.5 838,-399.5 838,-380.5 712,-380.5"/>
<text text-anchor="middle" x="775" y="-387.5" font-family="Helvetica,sans-Serif" font-size="10.00">uscxml/plugins/Invoker.h</text>
</a>
</g>
</g>
<!-- Node22&#45;&gt;Node26 -->
<g id="edge60" class="edge"><title>Node22&#45;&gt;Node26</title>
<path fill="none" stroke="midnightblue" d="M830.332,-503.35C813.634,-496.302 792.989,-484.601 782,-467 771.281,-449.832 770.861,-426.093 772.267,-409.738"/>
<polygon fill="midnightblue" stroke="midnightblue" points="775.748,-410.103 773.427,-399.766 768.794,-409.294 775.748,-410.103"/>
</g>
<!-- Node28 -->
<g id="node28" class="node"><title>Node28</title>
<g id="a_node28"><a xlink:href="_data_model_impl_8h.html" target="_top" xlink:title="uscxml/plugins/DataModel\lImpl.h">
<polygon fill="white" stroke="black" points="839.5,-436.5 839.5,-466.5 972.5,-466.5 972.5,-436.5 839.5,-436.5"/>
<text text-anchor="start" x="847.5" y="-454.5" font-family="Helvetica,sans-Serif" font-size="10.00">uscxml/plugins/DataModel</text>
<text text-anchor="middle" x="906" y="-443.5" font-family="Helvetica,sans-Serif" font-size="10.00">Impl.h</text>
</a>
</g>
</g>
<!-- Node22&#45;&gt;Node28 -->
<g id="edge66" class="edge"><title>Node22&#45;&gt;Node28</title>
<path fill="none" stroke="midnightblue" d="M863.164,-503.475C869.556,-495.869 879.194,-484.399 887.71,-474.265"/>
<polygon fill="midnightblue" stroke="midnightblue" points="890.462,-476.43 894.216,-466.523 885.103,-471.927 890.462,-476.43"/>
</g>
<!-- Node29 -->
<g id="node29" class="node"><title>Node29</title>
<g id="a_node29"><a xlink:href="_string_8h.html" target="_top" xlink:title="string.h">
<polygon fill="white" stroke="black" points="1609.5,-185 1609.5,-204 1658.5,-204 1658.5,-185 1609.5,-185"/>
<text text-anchor="middle" x="1634" y="-192" font-family="Helvetica,sans-Serif" font-size="10.00">string.h</text>
</a>
</g>
</g>
<!-- Node22&#45;&gt;Node29 -->
<g id="edge75" class="edge"><title>Node22&#45;&gt;Node29</title>
<path fill="none" stroke="midnightblue" d="M919.623,-507.979C1088.09,-495.893 1539.08,-453.713 1630,-344 1660.78,-306.859 1648.72,-244.724 1639.99,-213.94"/>
<polygon fill="midnightblue" stroke="midnightblue" points="1643.26,-212.674 1637.01,-204.122 1636.56,-214.707 1643.26,-212.674"/>
</g>
<!-- Node30 -->
<g id="node30" class="node"><title>Node30</title>
<polygon fill="white" stroke="#bfbfbf" points="791,-442 791,-461 821,-461 821,-442 791,-442"/>
<text text-anchor="middle" x="806" y="-449" font-family="Helvetica,sans-Serif" font-size="10.00">set</text>
</g>
<!-- Node22&#45;&gt;Node30 -->
<g id="edge80" class="edge"><title>Node22&#45;&gt;Node30</title>
<path fill="none" stroke="midnightblue" d="M848.836,-503.475C841.262,-494.462 829.13,-480.025 819.707,-468.812"/>
<polygon fill="midnightblue" stroke="midnightblue" points="822.263,-466.413 813.15,-461.009 816.904,-470.917 822.263,-466.413"/>
</g>
<!-- Node23&#45;&gt;Node2 -->
<g id="edge47" class="edge"><title>Node23&#45;&gt;Node2</title>
<path fill="none" stroke="midnightblue" d="M542.012,-190.053C747.284,-179.453 1354.76,-147.768 1375,-143 1408.91,-135.013 1413.67,-122.161 1447,-112 1520.55,-89.575 1610.35,-76.3378 1656.45,-70.5257"/>
<polygon fill="midnightblue" stroke="midnightblue" points="1656.91,-73.9965 1666.41,-69.3019 1656.05,-67.0489 1656.91,-73.9965"/>
</g>
<!-- Node23&#45;&gt;Node3 -->
<g id="edge46" class="edge"><title>Node23&#45;&gt;Node3</title>
<path fill="none" stroke="midnightblue" d="M461.552,-179.336C445.728,-162.82 418.501,-134.867 394,-112 383.09,-101.818 370.436,-90.85 360.343,-82.2918"/>
<polygon fill="midnightblue" stroke="midnightblue" points="362.466,-79.5033 352.562,-75.7397 357.957,-84.858 362.466,-79.5033"/>
</g>
<!-- Node23&#45;&gt;Node10 -->
<g id="edge48" class="edge"><title>Node23&#45;&gt;Node10</title>
<path fill="none" stroke="midnightblue" d="M511.923,-179.487C534.524,-170.31 563.675,-157.378 588,-143 607.666,-131.376 607.846,-120.624 629,-112 685.757,-88.8624 866.591,-74.5584 945.07,-69.2941"/>
<polygon fill="midnightblue" stroke="midnightblue" points="945.692,-72.7608 955.441,-68.6113 945.232,-65.7759 945.692,-72.7608"/>
</g>
<!-- Node23&#45;&gt;Node12 -->
<g id="edge45" class="edge"><title>Node23&#45;&gt;Node12</title>
<path fill="none" stroke="midnightblue" d="M519.445,-179.476C556.693,-167.723 609.238,-151.143 644.172,-140.12"/>
<polygon fill="midnightblue" stroke="midnightblue" points="645.487,-143.376 653.971,-137.029 643.381,-136.7 645.487,-143.376"/>
</g>
<!-- Node23&#45;&gt;Node19 -->
<g id="edge49" class="edge"><title>Node23&#45;&gt;Node19</title>
<path fill="none" stroke="midnightblue" d="M497.034,-179.326C512.502,-169.309 533.624,-155.494 552,-143 571.782,-129.55 574.537,-122.563 596,-112 631.329,-94.6131 674.801,-82.1947 704.883,-74.8668"/>
<polygon fill="midnightblue" stroke="midnightblue" points="706.006,-78.1979 714.93,-72.4873 704.392,-71.3863 706.006,-78.1979"/>
</g>
<!-- Node24&#45;&gt;Node2 -->
<g id="edge54" class="edge"><title>Node24&#45;&gt;Node2</title>
<path fill="none" stroke="midnightblue" d="M1187.27,-321.332C1323.82,-308.843 1599.76,-275.968 1667,-210 1700.32,-177.309 1695.75,-116.516 1690.78,-85.7996"/>
<polygon fill="midnightblue" stroke="midnightblue" points="1694.16,-84.8361 1688.93,-75.6211 1687.28,-86.0851 1694.16,-84.8361"/>
</g>
<!-- Node24&#45;&gt;Node3 -->
<g id="edge51" class="edge"><title>Node24&#45;&gt;Node3</title>
<path fill="none" stroke="midnightblue" d="M1032.98,-323.807C930.699,-318.048 744.695,-304.596 588,-277 470.478,-256.303 401.097,-304.322 328,-210 299.557,-173.298 319.878,-114.366 333.087,-84.9355"/>
<polygon fill="midnightblue" stroke="midnightblue" points="336.426,-86.0606 337.528,-75.5232 330.096,-83.0735 336.426,-86.0606"/>
</g>
<!-- Node24&#45;&gt;Node10 -->
<g id="edge55" class="edge"><title>Node24&#45;&gt;Node10</title>
<path fill="none" stroke="midnightblue" d="M1137.91,-318.999C1221.47,-292.24 1458.78,-205.924 1375,-112 1351.48,-85.6305 1111.75,-72.5749 1018.67,-68.4697"/>
<polygon fill="midnightblue" stroke="midnightblue" points="1018.73,-64.9689 1008.58,-68.0347 1018.42,-71.9624 1018.73,-64.9689"/>
</g>
<!-- Node24&#45;&gt;Node11 -->
<g id="edge53" class="edge"><title>Node24&#45;&gt;Node11</title>
<path fill="none" stroke="midnightblue" d="M1187.34,-320.159C1261.89,-312.038 1368.61,-297.357 1405,-277 1455.57,-248.709 1449.44,-219.382 1491,-179 1504.01,-166.356 1519.82,-153.328 1532.08,-143.672"/>
<polygon fill="midnightblue" stroke="midnightblue" points="1534.55,-146.191 1540.29,-137.291 1530.25,-140.663 1534.55,-146.191"/>
</g>
<!-- Node24&#45;&gt;Node15 -->
<g id="edge52" class="edge"><title>Node24&#45;&gt;Node15</title>
<path fill="none" stroke="midnightblue" d="M1095.84,-318.734C1078.29,-307.867 1048.16,-289.216 1027.44,-276.393"/>
<polygon fill="midnightblue" stroke="midnightblue" points="1029.28,-273.415 1018.94,-271.127 1025.6,-279.367 1029.28,-273.415"/>
</g>
<!-- Node25&#45;&gt;Node3 -->
<g id="edge57" class="edge"><title>Node25&#45;&gt;Node3</title>
<path fill="none" stroke="midnightblue" d="M993.169,-380.48C965.722,-364.062 901.922,-328.312 843,-313 739.044,-285.984 454.901,-329.148 361,-277 294.122,-239.859 289.832,-185.216 312,-112 315.117,-101.705 321.452,-91.612 327.501,-83.6023"/>
<polygon fill="midnightblue" stroke="midnightblue" points="330.228,-85.7968 333.786,-75.8175 324.781,-81.3995 330.228,-85.7968"/>
</g>
<!-- Node25&#45;&gt;Node15 -->
<g id="edge59" class="edge"><title>Node25&#45;&gt;Node15</title>
<path fill="none" stroke="midnightblue" d="M1006.86,-380.305C1006.54,-359.994 1005.74,-309.053 1005.3,-281.277"/>
<polygon fill="midnightblue" stroke="midnightblue" points="1008.8,-281.199 1005.14,-271.256 1001.8,-281.31 1008.8,-281.199"/>
</g>
<!-- Node25&#45;&gt;Node24 -->
<g id="edge58" class="edge"><title>Node25&#45;&gt;Node24</title>
<path fill="none" stroke="midnightblue" d="M1021.76,-380.475C1038.66,-370.711 1066.58,-354.581 1086.49,-343.081"/>
<polygon fill="midnightblue" stroke="midnightblue" points="1088.36,-346.042 1095.27,-338.009 1084.86,-339.981 1088.36,-346.042"/>
</g>
<!-- Node26&#45;&gt;Node3 -->
<g id="edge62" class="edge"><title>Node26&#45;&gt;Node3</title>
<path fill="none" stroke="midnightblue" d="M715.06,-380.45C583.985,-361.155 281.191,-313.104 252,-277 205.893,-219.974 213.446,-174.381 252,-112 261.673,-96.348 278.622,-85.958 295.222,-79.1496"/>
<polygon fill="midnightblue" stroke="midnightblue" points="296.751,-82.3151 304.898,-75.5421 294.305,-75.7561 296.751,-82.3151"/>
</g>
<!-- Node26&#45;&gt;Node12 -->
<g id="edge61" class="edge"><title>Node26&#45;&gt;Node12</title>
<path fill="none" stroke="midnightblue" d="M750.948,-380.443C714.265,-365.861 645.965,-332.289 621,-277 599.638,-229.689 641.34,-172.408 665.489,-144.859"/>
<polygon fill="midnightblue" stroke="midnightblue" points="668.21,-147.068 672.33,-137.307 663.022,-142.368 668.21,-147.068"/>
</g>
<!-- Node26&#45;&gt;Node15 -->
<g id="edge64" class="edge"><title>Node26&#45;&gt;Node15</title>
<path fill="none" stroke="midnightblue" d="M751.212,-380.499C735.279,-373.413 715.537,-361.605 706,-344 699.438,-331.885 697.106,-323.522 706,-313 720.267,-296.121 844.469,-279.657 928.243,-270.326"/>
<polygon fill="midnightblue" stroke="midnightblue" points="928.692,-273.798 938.249,-269.224 927.926,-266.84 928.692,-273.798"/>
</g>
<!-- Node26&#45;&gt;Node24 -->
<g id="edge63" class="edge"><title>Node26&#45;&gt;Node24</title>
<path fill="none" stroke="midnightblue" d="M822.997,-380.475C883.447,-369.739 987.225,-351.306 1052.04,-339.795"/>
<polygon fill="midnightblue" stroke="midnightblue" points="1052.86,-343.204 1062.09,-338.009 1051.63,-336.312 1052.86,-343.204"/>
</g>
<!-- Node27 -->
<g id="node27" class="node"><title>Node27</title>
<polygon fill="white" stroke="#bfbfbf" points="715.5,-319 715.5,-338 834.5,-338 834.5,-319 715.5,-319"/>
<text text-anchor="middle" x="775" y="-326" font-family="Helvetica,sans-Serif" font-size="10.00">xercesc/dom/DOM.hpp</text>
</g>
<!-- Node26&#45;&gt;Node27 -->
<g id="edge65" class="edge"><title>Node26&#45;&gt;Node27</title>
<path fill="none" stroke="midnightblue" d="M775,-380.475C775,-372.08 775,-358.981 775,-348.163"/>
<polygon fill="midnightblue" stroke="midnightblue" points="778.5,-348.009 775,-338.009 771.5,-348.009 778.5,-348.009"/>
</g>
<!-- Node28&#45;&gt;Node2 -->
<g id="edge73" class="edge"><title>Node28&#45;&gt;Node2</title>
<path fill="none" stroke="midnightblue" d="M972.621,-445.509C1128.62,-433.059 1513.2,-397.715 1630,-344 1705.39,-309.33 1732.75,-288.374 1760,-210 1765.31,-194.735 1768.93,-129.611 1759,-112 1749.88,-95.8388 1732.33,-84.691 1716.83,-77.5336"/>
<polygon fill="midnightblue" stroke="midnightblue" points="1718.12,-74.2767 1707.54,-73.5836 1715.38,-80.7183 1718.12,-74.2767"/>
</g>
<!-- Node28&#45;&gt;Node3 -->
<g id="edge68" class="edge"><title>Node28&#45;&gt;Node3</title>
<path fill="none" stroke="midnightblue" d="M839.273,-437.762C836.139,-437.166 833.035,-436.576 830,-436 558.548,-384.465 386.908,-503.732 229,-277 187.086,-216.818 183.989,-168.29 231,-112 244.631,-95.6782 265.085,-85.2156 284.736,-78.5356"/>
<polygon fill="midnightblue" stroke="midnightblue" points="285.784,-81.875 294.284,-75.5511 283.696,-75.1938 285.784,-81.875"/>
</g>
<!-- Node28&#45;&gt;Node10 -->
<g id="edge74" class="edge"><title>Node28&#45;&gt;Node10</title>
<path fill="none" stroke="midnightblue" d="M905.614,-436.344C905.033,-413.754 904,-368.158 904,-329.5 904,-329.5 904,-329.5 904,-193.5 904,-156.306 902.8,-143.23 923,-112 931.307,-99.1566 944.6,-88.5467 956.467,-80.8612"/>
<polygon fill="midnightblue" stroke="midnightblue" points="958.44,-83.758 965.158,-75.5656 954.797,-77.7803 958.44,-83.758"/>
</g>
<!-- Node28&#45;&gt;Node11 -->
<g id="edge72" class="edge"><title>Node28&#45;&gt;Node11</title>
<path fill="none" stroke="midnightblue" d="M972.76,-441.918C1079.65,-425.464 1291.99,-381.379 1438,-277 1487.89,-241.338 1526.16,-177.581 1542.84,-146.512"/>
<polygon fill="midnightblue" stroke="midnightblue" points="1546.12,-147.799 1547.66,-137.316 1539.92,-144.551 1546.12,-147.799"/>
</g>
<!-- Node28&#45;&gt;Node12 -->
<g id="edge67" class="edge"><title>Node28&#45;&gt;Node12</title>
<path fill="none" stroke="midnightblue" d="M839.438,-437.705C789.696,-427.446 726.419,-412.714 703,-400 670.943,-382.596 664.39,-373.547 643,-344 599.581,-284.024 584.563,-244.011 620,-179 628.287,-163.797 643.183,-151.331 656.18,-142.588"/>
<polygon fill="midnightblue" stroke="midnightblue" points="658.198,-145.452 664.77,-137.142 654.45,-139.54 658.198,-145.452"/>
</g>
<!-- Node28&#45;&gt;Node25 -->
<g id="edge70" class="edge"><title>Node28&#45;&gt;Node25</title>
<path fill="none" stroke="midnightblue" d="M929.936,-436.399C946.125,-426.862 967.407,-414.325 983.503,-404.842"/>
<polygon fill="midnightblue" stroke="midnightblue" points="985.464,-407.749 992.304,-399.658 981.911,-401.718 985.464,-407.749"/>
</g>
<!-- Node28&#45;&gt;Node26 -->
<g id="edge69" class="edge"><title>Node28&#45;&gt;Node26</title>
<path fill="none" stroke="midnightblue" d="M874.955,-436.399C853.27,-426.55 824.541,-413.501 803.449,-403.922"/>
<polygon fill="midnightblue" stroke="midnightblue" points="804.614,-400.607 794.062,-399.658 801.719,-406.98 804.614,-400.607"/>
</g>
<!-- Node28&#45;&gt;Node27 -->
<g id="edge71" class="edge"><title>Node28&#45;&gt;Node27</title>
<path fill="none" stroke="midnightblue" d="M895.885,-436.314C884.842,-421.366 866.162,-397.596 847,-380 831.913,-366.146 812.865,-352.944 798.152,-343.515"/>
<polygon fill="midnightblue" stroke="midnightblue" points="799.954,-340.514 789.625,-338.159 796.231,-346.442 799.954,-340.514"/>
</g>
<!-- Node29&#45;&gt;Node2 -->
<g id="edge76" class="edge"><title>Node29&#45;&gt;Node2</title>
<path fill="none" stroke="midnightblue" d="M1641.29,-184.757C1648.98,-175.107 1660.95,-158.836 1668,-143 1676.28,-124.403 1681.37,-101.573 1684.17,-85.8168"/>
<polygon fill="midnightblue" stroke="midnightblue" points="1687.66,-86.1901 1685.82,-75.7557 1680.75,-85.0579 1687.66,-86.1901"/>
</g>
<!-- Node29&#45;&gt;Node11 -->
<g id="edge77" class="edge"><title>Node29&#45;&gt;Node11</title>
<path fill="none" stroke="midnightblue" d="M1622.94,-184.734C1609.66,-174.208 1587.17,-156.379 1571.07,-143.617"/>
<polygon fill="midnightblue" stroke="midnightblue" points="1572.89,-140.596 1562.88,-137.127 1568.55,-146.082 1572.89,-140.596"/>
</g>
<!-- Node31&#45;&gt;Node2 -->
<g id="edge86" class="edge"><title>Node31&#45;&gt;Node2</title>
<path fill="none" stroke="midnightblue" d="M732.047,-257.597C824.322,-251.875 1024.83,-237.262 1192,-210 1323.84,-188.5 1363.28,-198.045 1485,-143 1506.47,-133.292 1506.79,-122.252 1528,-112 1570.3,-91.554 1623.55,-78.8511 1656.43,-72.3521"/>
<polygon fill="midnightblue" stroke="midnightblue" points="1657.19,-75.7716 1666.35,-70.4581 1655.87,-68.8959 1657.19,-75.7716"/>
</g>
<!-- Node31&#45;&gt;Node3 -->
<g id="edge84" class="edge"><title>Node31&#45;&gt;Node3</title>
<path fill="none" stroke="midnightblue" d="M629.961,-248.836C625.248,-247.843 620.54,-246.882 616,-246 520.033,-227.35 475.143,-271.316 399,-210 388.769,-201.762 360.637,-121.844 348.131,-85.1968"/>
<polygon fill="midnightblue" stroke="midnightblue" points="351.443,-84.0656 344.917,-75.7197 344.814,-86.314 351.443,-84.0656"/>
</g>
<!-- Node31&#45;&gt;Node12 -->
<g id="edge83" class="edge"><title>Node31&#45;&gt;Node12</title>
<path fill="none" stroke="midnightblue" d="M681,-246.374C681,-222.504 681,-174.181 681,-147.415"/>
<polygon fill="midnightblue" stroke="midnightblue" points="684.5,-147.097 681,-137.097 677.5,-147.097 684.5,-147.097"/>
</g>
<!-- Node31&#45;&gt;Node16 -->
<g id="edge85" class="edge"><title>Node31&#45;&gt;Node16</title>
<path fill="none" stroke="midnightblue" d="M732.101,-252.916C811.223,-241.175 963.416,-218.589 1051.5,-205.517"/>
<polygon fill="midnightblue" stroke="midnightblue" points="1052.27,-208.941 1061.65,-204.011 1051.24,-202.017 1052.27,-208.941"/>
</g>
<!-- Node32&#45;&gt;Node3 -->
<g id="edge88" class="edge"><title>Node32&#45;&gt;Node3</title>
<path fill="none" stroke="midnightblue" d="M183.356,-313.342C166.918,-275.999 128.959,-173.491 176,-112 189.101,-94.8746 240.252,-82.7499 282.351,-75.434"/>
<polygon fill="midnightblue" stroke="midnightblue" points="282.996,-78.8749 292.278,-73.7671 281.836,-71.9716 282.996,-78.8749"/>
</g>
<!-- Node32&#45;&gt;Node15 -->
<g id="edge89" class="edge"><title>Node32&#45;&gt;Node15</title>
<path fill="none" stroke="midnightblue" d="M238.24,-323.653C374.391,-312.794 762.489,-281.841 928.335,-268.614"/>
<polygon fill="midnightblue" stroke="midnightblue" points="928.765,-272.091 938.455,-267.807 928.209,-265.113 928.765,-272.091"/>
</g>
</g>
</svg>
