<?xml version="1.0" encoding="UTF-8" standalone="no"?>
<!DOCTYPE svg PUBLIC "-//W3C//DTD SVG 1.1//EN"
 "http://www.w3.org/Graphics/SVG/1.1/DTD/svg11.dtd">
<!-- Generated by graphviz version 2.38.0 (20140413.2041)
 -->
<!-- Title: plugins/datamodel/c89/C89DataModel.cpp Pages: 1 -->
<!--zoomable 565 -->
<svg id="main" version="1.1" xmlns="http://www.w3.org/2000/svg" xmlns:xlink="http://www.w3.org/1999/xlink" xml:space="preserve" onload="init(evt)">
<style type="text/css"><![CDATA[
.edge:hover path { stroke: red; }
.edge:hover polygon { stroke: red; fill: red; }
]]></style>
<script type="text/javascript"><![CDATA[
var edges = document.getElementsByTagName('g');
if (edges && edges.length) {
  for (var i=0;i<edges.length;i++) {
    if (edges[i].id.substr(0,4)=='edge') {
      edges[i].setAttribute('class','edge');
    }
  }
}
]]></script>
        <defs>
                <circle id="rim" cx="0" cy="0" r="7"/>
                <circle id="rim2" cx="0" cy="0" r="3.5"/>
                <g id="zoomPlus">
                        <use xlink:href="#rim" fill="#404040">
                                <set attributeName="fill" to="#808080" begin="zoomplus.mouseover" end="zoomplus.mouseout"/>
                        </use>
                        <path d="M-4,0h8M0,-4v8" fill="none" stroke="white" stroke-width="1.5" pointer-events="none"/>
                </g>
                <g id="zoomMin">
                        <use xlink:href="#rim" fill="#404040">
                                <set attributeName="fill" to="#808080" begin="zoomminus.mouseover" end="zoomminus.mouseout"/>
                        </use>
                        <path d="M-4,0h8" fill="none" stroke="white" stroke-width="1.5" pointer-events="none"/>
                </g>
                <g id="dirArrow">
                        <path fill="none" stroke="white" stroke-width="1.5" d="M0,-3.0v7 M-2.5,-0.5L0,-3.0L2.5,-0.5"/>
                </g>
               <g id="resetDef">
                       <use xlink:href="#rim2" fill="#404040">
                               <set attributeName="fill" to="#808080" begin="reset.mouseover" end="reset.mouseout"/>
                       </use>
               </g>
        </defs>

<script type="text/javascript">
var viewWidth = 1907;
var viewHeight = 565;
var sectionId = 'dynsection-0';
</script>
<script xlink:href="svgpan.js"/>
<svg id="graph" class="graph">
<g id="viewport">
<title>plugins/datamodel/c89/C89DataModel.cpp</title>
<polygon fill="white" stroke="none" points="-4,4 -4,-561 1903,-561 1903,4 -4,4"/>
<!-- Node1 -->
<g id="node1" class="node"><title>Node1</title>
<polygon fill="#bfbfbf" stroke="black" points="1058.5,-526.5 1058.5,-556.5 1175.5,-556.5 1175.5,-526.5 1058.5,-526.5"/>
<text text-anchor="start" x="1066.5" y="-544.5" font-family="Helvetica,sans-Serif" font-size="10.00">plugins/datamodel/c89</text>
<text text-anchor="middle" x="1117" y="-533.5" font-family="Helvetica,sans-Serif" font-size="10.00">/C89DataModel.cpp</text>
</g>
<!-- Node2 -->
<g id="node2" class="node"><title>Node2</title>
<g id="a_node2"><a xlink:href="_common_8h.html" target="_top" xlink:title="uscxml/Common.h">
<polygon fill="white" stroke="black" points="1288.5,-56.5 1288.5,-75.5 1387.5,-75.5 1387.5,-56.5 1288.5,-56.5"/>
<text text-anchor="middle" x="1338" y="-63.5" font-family="Helvetica,sans-Serif" font-size="10.00">uscxml/Common.h</text>
</a>
</g>
</g>
<!-- Node1&#45;&gt;Node2 -->
<g id="edge1" class="edge"><title>Node1&#45;&gt;Node2</title>
<path fill="none" stroke="midnightblue" d="M1175.63,-535.977C1337.9,-522.68 1781,-480.761 1781,-419.5 1781,-419.5 1781,-419.5 1781,-356 1781,-233.745 1764.92,-163.414 1654,-112 1609.67,-91.4533 1476.49,-77.8617 1397.88,-71.3921"/>
<polygon fill="midnightblue" stroke="midnightblue" points="1397.89,-67.8812 1387.64,-70.5638 1397.32,-74.8584 1397.89,-67.8812"/>
</g>
<!-- Node5 -->
<g id="node5" class="node"><title>Node5</title>
<g id="a_node5"><a xlink:href="_u_r_l_8h.html" target="_top" xlink:title="uscxml/util/URL.h">
<polygon fill="white" stroke="black" points="265,-286 265,-305 359,-305 359,-286 265,-286"/>
<text text-anchor="middle" x="312" y="-293" font-family="Helvetica,sans-Serif" font-size="10.00">uscxml/util/URL.h</text>
</a>
</g>
</g>
<!-- Node1&#45;&gt;Node5 -->
<g id="edge4" class="edge"><title>Node1&#45;&gt;Node5</title>
<path fill="none" stroke="midnightblue" d="M1065.69,-526.496C1029.62,-516.557 980.271,-502.766 937,-490 712.578,-423.791 444.647,-338.846 348.537,-308.186"/>
<polygon fill="midnightblue" stroke="midnightblue" points="349.316,-304.761 338.726,-305.055 347.188,-311.43 349.316,-304.761"/>
</g>
<!-- Node6 -->
<g id="node6" class="node"><title>Node6</title>
<g id="a_node6"><a xlink:href="_event_8h.html" target="_top" xlink:title="uscxml/messages/Event.h">
<polygon fill="white" stroke="black" points="1305.5,-224.5 1305.5,-243.5 1438.5,-243.5 1438.5,-224.5 1305.5,-224.5"/>
<text text-anchor="middle" x="1372" y="-231.5" font-family="Helvetica,sans-Serif" font-size="10.00">uscxml/messages/Event.h</text>
</a>
</g>
</g>
<!-- Node1&#45;&gt;Node6 -->
<g id="edge61" class="edge"><title>Node1&#45;&gt;Node6</title>
<path fill="none" stroke="midnightblue" d="M1175.84,-534.736C1285.47,-522.356 1510,-488.57 1510,-419.5 1510,-419.5 1510,-419.5 1510,-356 1510,-300.69 1446.55,-264.755 1405.7,-247.35"/>
<polygon fill="midnightblue" stroke="midnightblue" points="1406.93,-244.074 1396.35,-243.521 1404.28,-250.551 1406.93,-244.074"/>
</g>
<!-- Node20 -->
<g id="node20" class="node"><title>Node20</title>
<g id="a_node20"><a xlink:href="_string_8h.html" target="_top" xlink:title="uscxml/util/String.h">
<polygon fill="white" stroke="black" points="66,-168.5 66,-187.5 166,-187.5 166,-168.5 66,-168.5"/>
<text text-anchor="middle" x="116" y="-175.5" font-family="Helvetica,sans-Serif" font-size="10.00">uscxml/util/String.h</text>
</a>
</g>
</g>
<!-- Node1&#45;&gt;Node20 -->
<g id="edge31" class="edge"><title>Node1&#45;&gt;Node20</title>
<path fill="none" stroke="midnightblue" d="M1058.13,-540.366C827.748,-539.076 0,-526.965 0,-419.5 0,-419.5 0,-419.5 0,-294.5 0,-245.403 52.8267,-209.972 87.1815,-192.121"/>
<polygon fill="midnightblue" stroke="midnightblue" points="88.9399,-195.155 96.3222,-187.556 85.8121,-188.893 88.9399,-195.155"/>
</g>
<!-- Node21 -->
<g id="node21" class="node"><title>Node21</title>
<g id="a_node21"><a xlink:href="_c89_data_model_8h.html" target="_top" xlink:title="C89DataModel.h">
<polygon fill="white" stroke="black" points="1071,-470.5 1071,-489.5 1163,-489.5 1163,-470.5 1071,-470.5"/>
<text text-anchor="middle" x="1117" y="-477.5" font-family="Helvetica,sans-Serif" font-size="10.00">C89DataModel.h</text>
</a>
</g>
</g>
<!-- Node1&#45;&gt;Node21 -->
<g id="edge34" class="edge"><title>Node1&#45;&gt;Node21</title>
<path fill="none" stroke="midnightblue" d="M1117,-526.399C1117,-518.466 1117,-508.458 1117,-499.858"/>
<polygon fill="midnightblue" stroke="midnightblue" points="1120.5,-499.658 1117,-489.658 1113.5,-499.658 1120.5,-499.658"/>
</g>
<!-- Node29 -->
<g id="node29" class="node"><title>Node29</title>
<g id="a_node29"><a xlink:href="_d_o_m_8h.html" target="_top" xlink:title="uscxml/util/DOM.h">
<polygon fill="white" stroke="black" points="714,-286 714,-305 812,-305 812,-286 714,-286"/>
<text text-anchor="middle" x="763" y="-293" font-family="Helvetica,sans-Serif" font-size="10.00">uscxml/util/DOM.h</text>
</a>
</g>
</g>
<!-- Node1&#45;&gt;Node29 -->
<g id="edge62" class="edge"><title>Node1&#45;&gt;Node29</title>
<path fill="none" stroke="midnightblue" d="M1070.79,-526.396C1020.76,-509.658 940.189,-478.322 881,-434 833.945,-398.765 792.71,-341.702 773.872,-313.455"/>
<polygon fill="midnightblue" stroke="midnightblue" points="776.775,-311.498 768.366,-305.053 770.92,-315.335 776.775,-311.498"/>
</g>
<!-- Node33 -->
<g id="node33" class="node"><title>Node33</title>
<polygon fill="white" stroke="#bfbfbf" points="1809,-470.5 1809,-489.5 1899,-489.5 1899,-470.5 1809,-470.5"/>
<text text-anchor="middle" x="1854" y="-477.5" font-family="Helvetica,sans-Serif" font-size="10.00">easylogging++.h</text>
</g>
<!-- Node1&#45;&gt;Node33 -->
<g id="edge69" class="edge"><title>Node1&#45;&gt;Node33</title>
<path fill="none" stroke="midnightblue" d="M1175.64,-537.657C1293.32,-531.614 1566.59,-515.889 1795,-490 1796.27,-489.856 1797.56,-489.704 1798.86,-489.547"/>
<polygon fill="midnightblue" stroke="midnightblue" points="1799.48,-492.995 1808.95,-488.237 1798.58,-486.054 1799.48,-492.995"/>
</g>
<!-- Node3 -->
<g id="node3" class="node"><title>Node3</title>
<polygon fill="white" stroke="#bfbfbf" points="1264,-0.5 1264,-19.5 1336,-19.5 1336,-0.5 1264,-0.5"/>
<text text-anchor="middle" x="1300" y="-7.5" font-family="Helvetica,sans-Serif" font-size="10.00">sys/socket.h</text>
</g>
<!-- Node2&#45;&gt;Node3 -->
<g id="edge2" class="edge"><title>Node2&#45;&gt;Node3</title>
<path fill="none" stroke="midnightblue" d="M1331.73,-56.083C1326.36,-48.4554 1318.48,-37.2645 1311.92,-27.9408"/>
<polygon fill="midnightblue" stroke="midnightblue" points="1314.78,-25.9149 1306.16,-19.7511 1309.05,-29.9434 1314.78,-25.9149"/>
</g>
<!-- Node4 -->
<g id="node4" class="node"><title>Node4</title>
<polygon fill="white" stroke="#bfbfbf" points="1354,-0.5 1354,-19.5 1398,-19.5 1398,-0.5 1354,-0.5"/>
<text text-anchor="middle" x="1376" y="-7.5" font-family="Helvetica,sans-Serif" font-size="10.00">cmath</text>
</g>
<!-- Node2&#45;&gt;Node4 -->
<g id="edge3" class="edge"><title>Node2&#45;&gt;Node4</title>
<path fill="none" stroke="midnightblue" d="M1344.27,-56.083C1349.64,-48.4554 1357.52,-37.2645 1364.08,-27.9408"/>
<polygon fill="midnightblue" stroke="midnightblue" points="1366.95,-29.9434 1369.84,-19.7511 1361.22,-25.9149 1366.95,-29.9434"/>
</g>
<!-- Node5&#45;&gt;Node2 -->
<g id="edge5" class="edge"><title>Node5&#45;&gt;Node2</title>
<path fill="none" stroke="midnightblue" d="M312.433,-285.656C313.58,-271.181 317.76,-242.221 333,-224 368.45,-181.614 391.413,-184.965 444,-168 600.497,-117.513 1104.33,-81.7509 1278.28,-70.6453"/>
<polygon fill="midnightblue" stroke="midnightblue" points="1278.52,-74.1373 1288.28,-70.0111 1278.08,-67.1513 1278.52,-74.1373"/>
</g>
<!-- Node5&#45;&gt;Node6 -->
<g id="edge6" class="edge"><title>Node5&#45;&gt;Node6</title>
<path fill="none" stroke="midnightblue" d="M359.259,-291.847C526.086,-282.483 1088.44,-250.917 1295.04,-239.32"/>
<polygon fill="midnightblue" stroke="midnightblue" points="1295.4,-242.805 1305.19,-238.75 1295.01,-235.816 1295.4,-242.805"/>
</g>
<!-- Node8 -->
<g id="node8" class="node"><title>Node8</title>
<polygon fill="white" stroke="#bfbfbf" points="824.5,-112.5 824.5,-131.5 853.5,-131.5 853.5,-112.5 824.5,-112.5"/>
<text text-anchor="middle" x="839" y="-119.5" font-family="Helvetica,sans-Serif" font-size="10.00">list</text>
</g>
<!-- Node5&#45;&gt;Node8 -->
<g id="edge28" class="edge"><title>Node5&#45;&gt;Node8</title>
<path fill="none" stroke="midnightblue" d="M314.662,-285.99C319.837,-270.931 332.742,-239.703 355,-224 431.174,-170.258 726.522,-135.002 814.277,-125.552"/>
<polygon fill="midnightblue" stroke="midnightblue" points="814.79,-129.018 824.365,-124.482 814.051,-122.057 814.79,-129.018"/>
</g>
<!-- Node9 -->
<g id="node9" class="node"><title>Node9</title>
<polygon fill="white" stroke="#bfbfbf" points="948,-112.5 948,-131.5 984,-131.5 984,-112.5 948,-112.5"/>
<text text-anchor="middle" x="966" y="-119.5" font-family="Helvetica,sans-Serif" font-size="10.00">map</text>
</g>
<!-- Node5&#45;&gt;Node9 -->
<g id="edge26" class="edge"><title>Node5&#45;&gt;Node9</title>
<path fill="none" stroke="midnightblue" d="M318.441,-285.888C330.34,-270.669 357.366,-239.194 388,-224 487.277,-174.76 835.303,-136.263 937.549,-125.816"/>
<polygon fill="midnightblue" stroke="midnightblue" points="938.127,-129.275 947.723,-124.786 937.422,-122.311 938.127,-129.275"/>
</g>
<!-- Node12 -->
<g id="node12" class="node"><title>Node12</title>
<polygon fill="white" stroke="#bfbfbf" points="899.5,-56.5 899.5,-75.5 940.5,-75.5 940.5,-56.5 899.5,-56.5"/>
<text text-anchor="middle" x="920" y="-63.5" font-family="Helvetica,sans-Serif" font-size="10.00">string</text>
</g>
<!-- Node5&#45;&gt;Node12 -->
<g id="edge24" class="edge"><title>Node5&#45;&gt;Node12</title>
<path fill="none" stroke="midnightblue" d="M264.741,-295.454C189.466,-295.173 54.726,-286.287 95,-224 116.17,-191.258 141.3,-207.608 175,-188 224.482,-159.209 225.233,-131.662 279,-112 393.071,-70.2854 776.846,-66.9771 888.984,-66.9198"/>
<polygon fill="midnightblue" stroke="midnightblue" points="889.262,-70.4198 899.263,-66.9236 889.265,-63.4198 889.262,-70.4198"/>
</g>
<!-- Node14 -->
<g id="node14" class="node"><title>Node14</title>
<polygon fill="white" stroke="#bfbfbf" points="421,-56.5 421,-75.5 473,-75.5 473,-56.5 421,-56.5"/>
<text text-anchor="middle" x="447" y="-63.5" font-family="Helvetica,sans-Serif" font-size="10.00">sstream</text>
</g>
<!-- Node5&#45;&gt;Node14 -->
<g id="edge25" class="edge"><title>Node5&#45;&gt;Node14</title>
<path fill="none" stroke="midnightblue" d="M264.929,-291.555C200.13,-286.451 88.4359,-273.524 62,-244 39.4193,-218.781 40.4875,-197.55 57,-168 80.1653,-126.544 103.399,-128.307 148,-112 238.739,-78.8246 353.548,-70.092 410.919,-67.804"/>
<polygon fill="midnightblue" stroke="midnightblue" points="411.075,-71.3008 420.945,-67.4473 410.826,-64.3052 411.075,-71.3008"/>
</g>
<!-- Node17 -->
<g id="node17" class="node"><title>Node17</title>
<polygon fill="white" stroke="#bfbfbf" points="397,-224.5 397,-243.5 427,-243.5 427,-224.5 397,-224.5"/>
<text text-anchor="middle" x="412" y="-231.5" font-family="Helvetica,sans-Serif" font-size="10.00">set</text>
</g>
<!-- Node5&#45;&gt;Node17 -->
<g id="edge27" class="edge"><title>Node5&#45;&gt;Node17</title>
<path fill="none" stroke="midnightblue" d="M326.328,-285.975C342.664,-276.255 369.602,-260.227 388.912,-248.737"/>
<polygon fill="midnightblue" stroke="midnightblue" points="390.895,-251.63 397.699,-243.509 387.315,-245.615 390.895,-251.63"/>
</g>
<!-- Node18 -->
<g id="node18" class="node"><title>Node18</title>
<polygon fill="white" stroke="#bfbfbf" points="219.5,-224.5 219.5,-243.5 264.5,-243.5 264.5,-224.5 219.5,-224.5"/>
<text text-anchor="middle" x="242" y="-231.5" font-family="Helvetica,sans-Serif" font-size="10.00">thread</text>
</g>
<!-- Node5&#45;&gt;Node18 -->
<g id="edge29" class="edge"><title>Node5&#45;&gt;Node18</title>
<path fill="none" stroke="midnightblue" d="M301.971,-285.975C290.951,-276.608 273.04,-261.384 259.657,-250.008"/>
<polygon fill="midnightblue" stroke="midnightblue" points="261.897,-247.319 252.011,-243.509 257.363,-252.652 261.897,-247.319"/>
</g>
<!-- Node19 -->
<g id="node19" class="node"><title>Node19</title>
<polygon fill="white" stroke="#bfbfbf" points="104.5,-224.5 104.5,-243.5 201.5,-243.5 201.5,-224.5 104.5,-224.5"/>
<text text-anchor="middle" x="153" y="-231.5" font-family="Helvetica,sans-Serif" font-size="10.00">condition_variable</text>
</g>
<!-- Node5&#45;&gt;Node19 -->
<g id="edge30" class="edge"><title>Node5&#45;&gt;Node19</title>
<path fill="none" stroke="midnightblue" d="M289.219,-285.975C261.945,-275.769 216.087,-258.608 185.199,-247.049"/>
<polygon fill="midnightblue" stroke="midnightblue" points="186.331,-243.736 175.739,-243.509 183.878,-250.292 186.331,-243.736"/>
</g>
<!-- Node7 -->
<g id="node7" class="node"><title>Node7</title>
<g id="a_node7"><a xlink:href="_data_8h.html" target="_top" xlink:title="uscxml/messages/Data.h">
<polygon fill="white" stroke="black" points="1306,-168.5 1306,-187.5 1434,-187.5 1434,-168.5 1306,-168.5"/>
<text text-anchor="middle" x="1370" y="-175.5" font-family="Helvetica,sans-Serif" font-size="10.00">uscxml/messages/Data.h</text>
</a>
</g>
</g>
<!-- Node6&#45;&gt;Node7 -->
<g id="edge7" class="edge"><title>Node6&#45;&gt;Node7</title>
<path fill="none" stroke="midnightblue" d="M1371.67,-224.083C1371.41,-217.006 1371.03,-206.861 1370.7,-197.986"/>
<polygon fill="midnightblue" stroke="midnightblue" points="1374.19,-197.615 1370.32,-187.751 1367.2,-197.874 1374.19,-197.615"/>
</g>
<!-- Node16 -->
<g id="node16" class="node"><title>Node16</title>
<g id="a_node16"><a xlink:href="_u_u_i_d_8h.html" target="_top" xlink:title="uscxml/util/UUID.h">
<polygon fill="white" stroke="black" points="1153.5,-112.5 1153.5,-131.5 1252.5,-131.5 1252.5,-112.5 1153.5,-112.5"/>
<text text-anchor="middle" x="1203" y="-119.5" font-family="Helvetica,sans-Serif" font-size="10.00">uscxml/util/UUID.h</text>
</a>
</g>
</g>
<!-- Node6&#45;&gt;Node16 -->
<g id="edge21" class="edge"><title>Node6&#45;&gt;Node16</title>
<path fill="none" stroke="midnightblue" d="M1357.17,-224.482C1341.91,-215.631 1317.55,-201.248 1297,-188 1271.09,-171.292 1242,-150.919 1223.14,-137.486"/>
<polygon fill="midnightblue" stroke="midnightblue" points="1225.17,-134.636 1215,-131.668 1221.1,-140.33 1225.17,-134.636"/>
</g>
<!-- Node7&#45;&gt;Node2 -->
<g id="edge11" class="edge"><title>Node7&#45;&gt;Node2</title>
<path fill="none" stroke="midnightblue" d="M1367.49,-168.368C1362.3,-150.537 1350.3,-109.295 1343.32,-85.2717"/>
<polygon fill="midnightblue" stroke="midnightblue" points="1346.65,-84.2157 1340.5,-75.5914 1339.93,-86.1711 1346.65,-84.2157"/>
</g>
<!-- Node7&#45;&gt;Node8 -->
<g id="edge8" class="edge"><title>Node7&#45;&gt;Node8</title>
<path fill="none" stroke="midnightblue" d="M1305.95,-170.486C1188.43,-158.535 943.162,-133.593 864.125,-125.555"/>
<polygon fill="midnightblue" stroke="midnightblue" points="864.008,-122.025 853.705,-124.495 863.3,-128.989 864.008,-122.025"/>
</g>
<!-- Node7&#45;&gt;Node9 -->
<g id="edge9" class="edge"><title>Node7&#45;&gt;Node9</title>
<path fill="none" stroke="midnightblue" d="M1305.96,-173.328C1232.56,-168.234 1108.65,-156.932 994.145,-131.839"/>
<polygon fill="midnightblue" stroke="midnightblue" points="994.681,-128.372 984.158,-129.609 993.155,-135.204 994.681,-128.372"/>
</g>
<!-- Node10 -->
<g id="node10" class="node"><title>Node10</title>
<polygon fill="white" stroke="#bfbfbf" points="1666.5,-56.5 1666.5,-75.5 1719.5,-75.5 1719.5,-56.5 1666.5,-56.5"/>
<text text-anchor="middle" x="1693" y="-63.5" font-family="Helvetica,sans-Serif" font-size="10.00">memory</text>
</g>
<!-- Node7&#45;&gt;Node10 -->
<g id="edge10" class="edge"><title>Node7&#45;&gt;Node10</title>
<path fill="none" stroke="midnightblue" d="M1401.15,-168.423C1431.82,-159.81 1479.92,-145.864 1521,-132 1570.96,-115.138 1628.07,-92.972 1662.29,-79.3684"/>
<polygon fill="midnightblue" stroke="midnightblue" points="1663.73,-82.56 1671.73,-75.6035 1661.14,-76.0583 1663.73,-82.56"/>
</g>
<!-- Node11 -->
<g id="node11" class="node"><title>Node11</title>
<g id="a_node11"><a xlink:href="_convenience_8h.html" target="_top" xlink:title="uscxml/util/Convenience.h">
<polygon fill="white" stroke="black" points="1002.5,-112.5 1002.5,-131.5 1135.5,-131.5 1135.5,-112.5 1002.5,-112.5"/>
<text text-anchor="middle" x="1069" y="-119.5" font-family="Helvetica,sans-Serif" font-size="10.00">uscxml/util/Convenience.h</text>
</a>
</g>
</g>
<!-- Node7&#45;&gt;Node11 -->
<g id="edge12" class="edge"><title>Node7&#45;&gt;Node11</title>
<path fill="none" stroke="midnightblue" d="M1322.31,-168.444C1269.14,-158.905 1183.18,-143.483 1126.37,-133.293"/>
<polygon fill="midnightblue" stroke="midnightblue" points="1126.93,-129.837 1116.47,-131.516 1125.7,-136.727 1126.93,-129.837"/>
</g>
<!-- Node15 -->
<g id="node15" class="node"><title>Node15</title>
<g id="a_node15"><a xlink:href="_blob_8h.html" target="_top" xlink:title="uscxml/messages/Blob.h">
<polygon fill="white" stroke="black" points="1385.5,-112.5 1385.5,-131.5 1512.5,-131.5 1512.5,-112.5 1385.5,-112.5"/>
<text text-anchor="middle" x="1449" y="-119.5" font-family="Helvetica,sans-Serif" font-size="10.00">uscxml/messages/Blob.h</text>
</a>
</g>
</g>
<!-- Node7&#45;&gt;Node15 -->
<g id="edge17" class="edge"><title>Node7&#45;&gt;Node15</title>
<path fill="none" stroke="midnightblue" d="M1382.69,-168.324C1394.9,-159.979 1413.58,-147.212 1428,-137.352"/>
<polygon fill="midnightblue" stroke="midnightblue" points="1430.06,-140.187 1436.34,-131.655 1426.11,-134.408 1430.06,-140.187"/>
</g>
<!-- Node11&#45;&gt;Node2 -->
<g id="edge13" class="edge"><title>Node11&#45;&gt;Node2</title>
<path fill="none" stroke="midnightblue" d="M1111.62,-112.444C1158.75,-102.984 1234.69,-87.7384 1285.46,-77.5472"/>
<polygon fill="midnightblue" stroke="midnightblue" points="1286.46,-80.9162 1295.58,-75.5164 1285.08,-74.0531 1286.46,-80.9162"/>
</g>
<!-- Node11&#45;&gt;Node12 -->
<g id="edge14" class="edge"><title>Node11&#45;&gt;Node12</title>
<path fill="none" stroke="midnightblue" d="M1045.39,-112.444C1019.67,-103.12 978.432,-88.1768 950.327,-77.9911"/>
<polygon fill="midnightblue" stroke="midnightblue" points="951.214,-74.5898 940.62,-74.473 948.829,-81.1709 951.214,-74.5898"/>
</g>
<!-- Node13 -->
<g id="node13" class="node"><title>Node13</title>
<polygon fill="white" stroke="#bfbfbf" points="1049.5,-56.5 1049.5,-75.5 1088.5,-75.5 1088.5,-56.5 1049.5,-56.5"/>
<text text-anchor="middle" x="1069" y="-63.5" font-family="Helvetica,sans-Serif" font-size="10.00">limits</text>
</g>
<!-- Node11&#45;&gt;Node13 -->
<g id="edge15" class="edge"><title>Node11&#45;&gt;Node13</title>
<path fill="none" stroke="midnightblue" d="M1069,-112.083C1069,-105.006 1069,-94.8611 1069,-85.9865"/>
<polygon fill="midnightblue" stroke="midnightblue" points="1072.5,-85.751 1069,-75.7511 1065.5,-85.7511 1072.5,-85.751"/>
</g>
<!-- Node11&#45;&gt;Node14 -->
<g id="edge16" class="edge"><title>Node11&#45;&gt;Node14</title>
<path fill="none" stroke="midnightblue" d="M1002.29,-112.963C999.148,-112.628 996.041,-112.305 993,-112 801.31,-92.7568 571.147,-75.7936 483.395,-69.5491"/>
<polygon fill="midnightblue" stroke="midnightblue" points="483.394,-66.0404 473.171,-68.8244 482.899,-73.0228 483.394,-66.0404"/>
</g>
<!-- Node15&#45;&gt;Node2 -->
<g id="edge20" class="edge"><title>Node15&#45;&gt;Node2</title>
<path fill="none" stroke="midnightblue" d="M1431.17,-112.324C1413.28,-103.625 1385.52,-90.1202 1364.95,-80.113"/>
<polygon fill="midnightblue" stroke="midnightblue" points="1366.31,-76.8819 1355.79,-75.6545 1363.25,-83.1765 1366.31,-76.8819"/>
</g>
<!-- Node15&#45;&gt;Node10 -->
<g id="edge19" class="edge"><title>Node15&#45;&gt;Node10</title>
<path fill="none" stroke="midnightblue" d="M1487.66,-112.444C1533.91,-102.208 1610.78,-85.1972 1656.19,-75.1463"/>
<polygon fill="midnightblue" stroke="midnightblue" points="1657.19,-78.509 1666.2,-72.9308 1655.68,-71.6744 1657.19,-78.509"/>
</g>
<!-- Node15&#45;&gt;Node12 -->
<g id="edge18" class="edge"><title>Node15&#45;&gt;Node12</title>
<path fill="none" stroke="midnightblue" d="M1385.45,-114.513C1271.18,-102.848 1035.07,-78.746 950.755,-70.1394"/>
<polygon fill="midnightblue" stroke="midnightblue" points="950.87,-66.6331 940.566,-69.0994 950.159,-73.5969 950.87,-66.6331"/>
</g>
<!-- Node16&#45;&gt;Node2 -->
<g id="edge22" class="edge"><title>Node16&#45;&gt;Node2</title>
<path fill="none" stroke="midnightblue" d="M1224.39,-112.444C1246.71,-103.517 1281.9,-89.4387 1307.21,-79.3168"/>
<polygon fill="midnightblue" stroke="midnightblue" points="1308.72,-82.4801 1316.71,-75.5164 1306.12,-75.9807 1308.72,-82.4801"/>
</g>
<!-- Node16&#45;&gt;Node12 -->
<g id="edge23" class="edge"><title>Node16&#45;&gt;Node12</title>
<path fill="none" stroke="midnightblue" d="M1158.16,-112.444C1100.1,-101.366 1000.46,-82.3527 950.474,-72.8148"/>
<polygon fill="midnightblue" stroke="midnightblue" points="951.073,-69.366 940.594,-70.9296 949.761,-76.242 951.073,-69.366"/>
</g>
<!-- Node20&#45;&gt;Node8 -->
<g id="edge33" class="edge"><title>Node20&#45;&gt;Node8</title>
<path fill="none" stroke="midnightblue" d="M166.266,-173.246C308.55,-162.619 710.501,-132.597 814.295,-124.845"/>
<polygon fill="midnightblue" stroke="midnightblue" points="814.715,-128.324 824.426,-124.089 814.193,-121.343 814.715,-128.324"/>
</g>
<!-- Node20&#45;&gt;Node12 -->
<g id="edge32" class="edge"><title>Node20&#45;&gt;Node12</title>
<path fill="none" stroke="midnightblue" d="M121.412,-168.287C131.087,-153.605 152.9,-124.329 180,-112 245.238,-82.3216 757.15,-70.2218 889.073,-67.5785"/>
<polygon fill="midnightblue" stroke="midnightblue" points="889.351,-71.0739 899.28,-67.3779 889.213,-64.0752 889.351,-71.0739"/>
</g>
<!-- Node21&#45;&gt;Node8 -->
<g id="edge59" class="edge"><title>Node21&#45;&gt;Node8</title>
<path fill="none" stroke="midnightblue" d="M1070.73,-474.348C1005.67,-464.963 895,-437.34 895,-358 895,-358 895,-358 895,-294.5 895,-235.687 864.872,-170.883 848.813,-140.519"/>
<polygon fill="midnightblue" stroke="midnightblue" points="851.817,-138.718 843.97,-131.6 845.666,-142.058 851.817,-138.718"/>
</g>
<!-- Node22 -->
<g id="node22" class="node"><title>Node22</title>
<g id="a_node22"><a xlink:href="_data_model_impl_8h.html" target="_top" xlink:title="uscxml/plugins/DataModel\lImpl.h">
<polygon fill="white" stroke="black" points="1224.5,-403.5 1224.5,-433.5 1357.5,-433.5 1357.5,-403.5 1224.5,-403.5"/>
<text text-anchor="start" x="1232.5" y="-421.5" font-family="Helvetica,sans-Serif" font-size="10.00">uscxml/plugins/DataModel</text>
<text text-anchor="middle" x="1291" y="-410.5" font-family="Helvetica,sans-Serif" font-size="10.00">Impl.h</text>
</a>
</g>
</g>
<!-- Node21&#45;&gt;Node22 -->
<g id="edge35" class="edge"><title>Node21&#45;&gt;Node22</title>
<path fill="none" stroke="midnightblue" d="M1141.93,-470.475C1167.48,-461.739 1207.93,-447.907 1240.25,-436.855"/>
<polygon fill="midnightblue" stroke="midnightblue" points="1241.66,-440.07 1249.99,-433.523 1239.4,-433.447 1241.66,-440.07"/>
</g>
<!-- Node28 -->
<g id="node28" class="node"><title>Node28</title>
<polygon fill="white" stroke="#bfbfbf" points="1093,-409 1093,-428 1141,-428 1141,-409 1093,-409"/>
<text text-anchor="middle" x="1117" y="-416" font-family="Helvetica,sans-Serif" font-size="10.00">picoc.h</text>
</g>
<!-- Node21&#45;&gt;Node28 -->
<g id="edge60" class="edge"><title>Node21&#45;&gt;Node28</title>
<path fill="none" stroke="midnightblue" d="M1117,-470.475C1117,-462.08 1117,-448.981 1117,-438.163"/>
<polygon fill="midnightblue" stroke="midnightblue" points="1120.5,-438.009 1117,-428.009 1113.5,-438.009 1120.5,-438.009"/>
</g>
<!-- Node22&#45;&gt;Node2 -->
<g id="edge36" class="edge"><title>Node22&#45;&gt;Node2</title>
<path fill="none" stroke="midnightblue" d="M1357.74,-415.849C1461.18,-409.047 1654.03,-378.139 1709,-244 1762.06,-114.518 1516.18,-79.5475 1398.18,-70.2704"/>
<polygon fill="midnightblue" stroke="midnightblue" points="1398.09,-66.754 1387.86,-69.4988 1397.57,-73.7345 1398.09,-66.754"/>
</g>
<!-- Node22&#45;&gt;Node8 -->
<g id="edge56" class="edge"><title>Node22&#45;&gt;Node8</title>
<path fill="none" stroke="midnightblue" d="M1224.31,-410.255C1137.72,-400.322 995.293,-382.002 976,-367 899.939,-307.856 946.598,-245.974 890,-168 881.655,-156.503 869.889,-145.873 859.761,-137.835"/>
<polygon fill="midnightblue" stroke="midnightblue" points="861.825,-135.007 851.75,-131.73 857.582,-140.575 861.825,-135.007"/>
</g>
<!-- Node22&#45;&gt;Node10 -->
<g id="edge58" class="edge"><title>Node22&#45;&gt;Node10</title>
<path fill="none" stroke="midnightblue" d="M1357.75,-415.907C1424.22,-412.291 1528.01,-401.072 1611,-367 1650.48,-350.791 1660.84,-343.067 1689,-311 1748.15,-243.634 1748.46,-197.658 1722,-112 1718.85,-101.806 1712.69,-91.7054 1706.86,-83.6647"/>
<polygon fill="midnightblue" stroke="midnightblue" points="1709.48,-81.3299 1700.59,-75.5663 1703.95,-85.6158 1709.48,-81.3299"/>
</g>
<!-- Node22&#45;&gt;Node12 -->
<g id="edge57" class="edge"><title>Node22&#45;&gt;Node12</title>
<path fill="none" stroke="midnightblue" d="M1224.2,-404.606C1135.52,-385.544 990,-346.626 990,-296.5 990,-296.5 990,-296.5 990,-233 990,-179.619 942.01,-182.599 925,-132 919.979,-117.065 918.94,-99.1502 919.038,-85.9141"/>
<polygon fill="midnightblue" stroke="midnightblue" points="922.543,-85.7793 919.344,-75.679 915.546,-85.5698 922.543,-85.7793"/>
</g>
<!-- Node23 -->
<g id="node23" class="node"><title>Node23</title>
<g id="a_node23"><a xlink:href="_invoker_8h.html" target="_top" xlink:title="uscxml/plugins/Invoker.h">
<polygon fill="white" stroke="black" points="1150,-347.5 1150,-366.5 1276,-366.5 1276,-347.5 1150,-347.5"/>
<text text-anchor="middle" x="1213" y="-354.5" font-family="Helvetica,sans-Serif" font-size="10.00">uscxml/plugins/Invoker.h</text>
</a>
</g>
</g>
<!-- Node22&#45;&gt;Node23 -->
<g id="edge37" class="edge"><title>Node22&#45;&gt;Node23</title>
<path fill="none" stroke="midnightblue" d="M1272.52,-403.399C1260.48,-394.218 1244.8,-382.258 1232.56,-372.918"/>
<polygon fill="midnightblue" stroke="midnightblue" points="1234.42,-369.94 1224.35,-366.658 1230.18,-375.506 1234.42,-369.94"/>
</g>
<!-- Node25 -->
<g id="node25" class="node"><title>Node25</title>
<g id="a_node25"><a xlink:href="_i_o_processor_8h.html" target="_top" xlink:title="uscxml/plugins/IOProcessor.h">
<polygon fill="white" stroke="black" points="1294.5,-347.5 1294.5,-366.5 1443.5,-366.5 1443.5,-347.5 1294.5,-347.5"/>
<text text-anchor="middle" x="1369" y="-354.5" font-family="Helvetica,sans-Serif" font-size="10.00">uscxml/plugins/IOProcessor.h</text>
</a>
</g>
</g>
<!-- Node22&#45;&gt;Node25 -->
<g id="edge46" class="edge"><title>Node22&#45;&gt;Node25</title>
<path fill="none" stroke="midnightblue" d="M1309.48,-403.399C1321.52,-394.218 1337.2,-382.258 1349.44,-372.918"/>
<polygon fill="midnightblue" stroke="midnightblue" points="1351.82,-375.506 1357.65,-366.658 1347.58,-369.94 1351.82,-375.506"/>
</g>
<!-- Node26 -->
<g id="node26" class="node"><title>Node26</title>
<g id="a_node26"><a xlink:href="_logging_8h.html" target="_top" xlink:title="uscxml/interpreter\l/Logging.h">
<polygon fill="white" stroke="black" points="1538,-280.5 1538,-310.5 1634,-310.5 1634,-280.5 1538,-280.5"/>
<text text-anchor="start" x="1546" y="-298.5" font-family="Helvetica,sans-Serif" font-size="10.00">uscxml/interpreter</text>
<text text-anchor="middle" x="1586" y="-287.5" font-family="Helvetica,sans-Serif" font-size="10.00">/Logging.h</text>
</a>
</g>
</g>
<!-- Node22&#45;&gt;Node26 -->
<g id="edge50" class="edge"><title>Node22&#45;&gt;Node26</title>
<path fill="none" stroke="midnightblue" d="M1344.06,-403.47C1375.87,-394.418 1416.84,-381.624 1452,-367 1487.82,-352.101 1526.88,-330.947 1553.54,-315.703"/>
<polygon fill="midnightblue" stroke="midnightblue" points="1555.51,-318.606 1562.42,-310.578 1552.01,-312.543 1555.51,-318.606"/>
</g>
<!-- Node23&#45;&gt;Node2 -->
<g id="edge38" class="edge"><title>Node23&#45;&gt;Node2</title>
<path fill="none" stroke="midnightblue" d="M1205.85,-347.364C1199.23,-338.763 1189.84,-324.873 1186,-311 1182.32,-297.722 1182.06,-293.203 1186,-280 1211.48,-194.557 1287.23,-114.931 1321.2,-82.423"/>
<polygon fill="midnightblue" stroke="midnightblue" points="1323.63,-84.9381 1328.51,-75.5345 1318.83,-79.842 1323.63,-84.9381"/>
</g>
<!-- Node23&#45;&gt;Node6 -->
<g id="edge45" class="edge"><title>Node23&#45;&gt;Node6</title>
<path fill="none" stroke="midnightblue" d="M1257.3,-347.49C1294.79,-339.379 1344.53,-326.178 1358,-311 1371.75,-295.511 1374.01,-271.066 1373.63,-254.099"/>
<polygon fill="midnightblue" stroke="midnightblue" points="1377.11,-253.541 1373.06,-243.749 1370.12,-253.926 1377.11,-253.541"/>
</g>
<!-- Node24 -->
<g id="node24" class="node"><title>Node24</title>
<g id="a_node24"><a xlink:href="_event_handler_8h.html" target="_top" xlink:title="uscxml/plugins/EventHandler.h">
<polygon fill="white" stroke="black" points="1195,-286 1195,-305 1349,-305 1349,-286 1195,-286"/>
<text text-anchor="middle" x="1272" y="-293" font-family="Helvetica,sans-Serif" font-size="10.00">uscxml/plugins/EventHandler.h</text>
</a>
</g>
</g>
<!-- Node23&#45;&gt;Node24 -->
<g id="edge39" class="edge"><title>Node23&#45;&gt;Node24</title>
<path fill="none" stroke="midnightblue" d="M1221.45,-347.475C1230.57,-338.285 1245.27,-323.456 1256.48,-312.156"/>
<polygon fill="midnightblue" stroke="midnightblue" points="1259.01,-314.574 1263.56,-305.009 1254.04,-309.646 1259.01,-314.574"/>
</g>
<!-- Node24&#45;&gt;Node2 -->
<g id="edge40" class="edge"><title>Node24&#45;&gt;Node2</title>
<path fill="none" stroke="midnightblue" d="M1268.93,-285.723C1264.68,-272.295 1258.04,-245.902 1263,-224 1275.3,-169.712 1308.75,-112.231 1326.53,-84.2829"/>
<polygon fill="midnightblue" stroke="midnightblue" points="1329.61,-85.9775 1332.11,-75.6825 1323.73,-82.17 1329.61,-85.9775"/>
</g>
<!-- Node24&#45;&gt;Node6 -->
<g id="edge41" class="edge"><title>Node24&#45;&gt;Node6</title>
<path fill="none" stroke="midnightblue" d="M1286.33,-285.975C1302.66,-276.255 1329.6,-260.227 1348.91,-248.737"/>
<polygon fill="midnightblue" stroke="midnightblue" points="1350.89,-251.63 1357.7,-243.509 1347.32,-245.615 1350.89,-251.63"/>
</g>
<!-- Node24&#45;&gt;Node8 -->
<g id="edge42" class="edge"><title>Node24&#45;&gt;Node8</title>
<path fill="none" stroke="midnightblue" d="M1211.1,-285.973C1166.01,-278.37 1103.7,-265.114 1052,-244 992.16,-219.56 984.445,-199.498 928,-168 906.313,-155.898 880.988,-143.23 862.91,-134.43"/>
<polygon fill="midnightblue" stroke="midnightblue" points="864.208,-131.17 853.682,-129.967 861.16,-137.472 864.208,-131.17"/>
</g>
<!-- Node24&#45;&gt;Node10 -->
<g id="edge44" class="edge"><title>Node24&#45;&gt;Node10</title>
<path fill="none" stroke="midnightblue" d="M1272.39,-285.695C1273.53,-270.742 1278.07,-240.416 1296,-224 1345.61,-178.574 1379.59,-210.432 1443,-188 1498.11,-168.506 1509.37,-157.436 1562,-132 1598.65,-114.288 1640.77,-93.2696 1667.13,-80.0314"/>
<polygon fill="midnightblue" stroke="midnightblue" points="1668.73,-83.1448 1676.1,-75.5267 1665.59,-76.8903 1668.73,-83.1448"/>
</g>
<!-- Node24&#45;&gt;Node12 -->
<g id="edge43" class="edge"><title>Node24&#45;&gt;Node12</title>
<path fill="none" stroke="midnightblue" d="M1253.39,-285.926C1184.91,-254.314 950.327,-145.431 939,-132 927.996,-118.951 923.362,-99.7962 921.412,-85.6584"/>
<polygon fill="midnightblue" stroke="midnightblue" points="924.882,-85.1866 920.354,-75.6083 917.921,-85.9199 924.882,-85.1866"/>
</g>
<!-- Node25&#45;&gt;Node2 -->
<g id="edge47" class="edge"><title>Node25&#45;&gt;Node2</title>
<path fill="none" stroke="midnightblue" d="M1382.16,-347.352C1429.98,-314.895 1588.28,-197.824 1521,-112 1505.82,-92.629 1445.27,-80.4836 1397.92,-73.7617"/>
<polygon fill="midnightblue" stroke="midnightblue" points="1398.12,-70.2561 1387.74,-72.3689 1397.17,-77.1915 1398.12,-70.2561"/>
</g>
<!-- Node25&#45;&gt;Node6 -->
<g id="edge49" class="edge"><title>Node25&#45;&gt;Node6</title>
<path fill="none" stroke="midnightblue" d="M1374.64,-347.481C1380.05,-338.745 1387.86,-324.556 1391,-311 1394.11,-297.577 1393.73,-293.504 1391,-280 1389.11,-270.649 1385.21,-260.827 1381.43,-252.753"/>
<polygon fill="midnightblue" stroke="midnightblue" points="1384.47,-251.011 1376.88,-243.628 1378.21,-254.138 1384.47,-251.011"/>
</g>
<!-- Node25&#45;&gt;Node24 -->
<g id="edge48" class="edge"><title>Node25&#45;&gt;Node24</title>
<path fill="none" stroke="midnightblue" d="M1355.1,-347.475C1339.33,-337.799 1313.36,-321.872 1294.65,-310.394"/>
<polygon fill="midnightblue" stroke="midnightblue" points="1296.23,-307.254 1285.87,-305.009 1292.57,-313.221 1296.23,-307.254"/>
</g>
<!-- Node26&#45;&gt;Node2 -->
<g id="edge52" class="edge"><title>Node26&#45;&gt;Node2</title>
<path fill="none" stroke="midnightblue" d="M1588.39,-280.31C1593.25,-246.2 1600.29,-158.959 1555,-112 1533.66,-89.8718 1454.4,-77.8349 1397.85,-71.9133"/>
<polygon fill="midnightblue" stroke="midnightblue" points="1397.88,-68.3981 1387.58,-70.8777 1397.18,-75.3629 1397.88,-68.3981"/>
</g>
<!-- Node26&#45;&gt;Node6 -->
<g id="edge54" class="edge"><title>Node26&#45;&gt;Node6</title>
<path fill="none" stroke="midnightblue" d="M1537.97,-281.147C1500.29,-270.669 1448.41,-256.245 1412.74,-246.326"/>
<polygon fill="midnightblue" stroke="midnightblue" points="1413.25,-242.836 1402.68,-243.529 1411.37,-249.58 1413.25,-242.836"/>
</g>
<!-- Node26&#45;&gt;Node7 -->
<g id="edge53" class="edge"><title>Node26&#45;&gt;Node7</title>
<path fill="none" stroke="midnightblue" d="M1559.51,-280.337C1517.48,-257.863 1436.08,-214.333 1395,-192.367"/>
<polygon fill="midnightblue" stroke="midnightblue" points="1396.41,-189.151 1385.94,-187.522 1393.11,-195.324 1396.41,-189.151"/>
</g>
<!-- Node26&#45;&gt;Node10 -->
<g id="edge55" class="edge"><title>Node26&#45;&gt;Node10</title>
<path fill="none" stroke="midnightblue" d="M1587.68,-280.329C1589.96,-265.393 1595.09,-241.634 1606,-224 1637.96,-172.369 1682.46,-187.541 1707,-132 1713.69,-116.854 1708.49,-98.275 1702.62,-84.8645"/>
<polygon fill="midnightblue" stroke="midnightblue" points="1705.71,-83.2194 1698.19,-75.7595 1699.42,-86.2828 1705.71,-83.2194"/>
</g>
<!-- Node27 -->
<g id="node27" class="node"><title>Node27</title>
<polygon fill="white" stroke="#bfbfbf" points="1614.5,-224.5 1614.5,-243.5 1699.5,-243.5 1699.5,-224.5 1614.5,-224.5"/>
<text text-anchor="middle" x="1657" y="-231.5" font-family="Helvetica,sans-Serif" font-size="10.00">uscxml/config.h</text>
</g>
<!-- Node26&#45;&gt;Node27 -->
<g id="edge51" class="edge"><title>Node26&#45;&gt;Node27</title>
<path fill="none" stroke="midnightblue" d="M1602.83,-280.399C1613.67,-271.308 1627.78,-259.49 1638.87,-250.191"/>
<polygon fill="midnightblue" stroke="midnightblue" points="1641.25,-252.763 1646.67,-243.658 1636.76,-247.398 1641.25,-252.763"/>
</g>
<!-- Node29&#45;&gt;Node2 -->
<g id="edge66" class="edge"><title>Node29&#45;&gt;Node2</title>
<path fill="none" stroke="midnightblue" d="M771.446,-285.652C779.952,-276.166 792.693,-260.262 799,-244 820.368,-188.902 772.492,-153.054 815,-112 831.471,-96.0921 1144.53,-77.4214 1278.26,-70.1347"/>
<polygon fill="midnightblue" stroke="midnightblue" points="1278.54,-73.6246 1288.34,-69.5886 1278.16,-66.6349 1278.54,-73.6246"/>
</g>
<!-- Node29&#45;&gt;Node8 -->
<g id="edge64" class="edge"><title>Node29&#45;&gt;Node8</title>
<path fill="none" stroke="midnightblue" d="M783.546,-285.854C800.081,-277.694 822.269,-263.751 833,-244 850.676,-211.466 846.879,-166.459 842.783,-141.518"/>
<polygon fill="midnightblue" stroke="midnightblue" points="846.208,-140.789 840.956,-131.587 839.323,-142.056 846.208,-140.789"/>
</g>
<!-- Node29&#45;&gt;Node17 -->
<g id="edge63" class="edge"><title>Node29&#45;&gt;Node17</title>
<path fill="none" stroke="midnightblue" d="M713.883,-290.094C651.362,-283.788 540.065,-270.228 437.027,-243.791"/>
<polygon fill="midnightblue" stroke="midnightblue" points="437.643,-240.335 427.083,-241.193 435.873,-247.108 437.643,-240.335"/>
</g>
<!-- Node30 -->
<g id="node30" class="node"><title>Node30</title>
<polygon fill="white" stroke="#bfbfbf" points="735.5,-224.5 735.5,-243.5 790.5,-243.5 790.5,-224.5 735.5,-224.5"/>
<text text-anchor="middle" x="763" y="-231.5" font-family="Helvetica,sans-Serif" font-size="10.00">iostream</text>
</g>
<!-- Node29&#45;&gt;Node30 -->
<g id="edge65" class="edge"><title>Node29&#45;&gt;Node30</title>
<path fill="none" stroke="midnightblue" d="M763,-285.975C763,-277.58 763,-264.481 763,-253.663"/>
<polygon fill="midnightblue" stroke="midnightblue" points="766.5,-253.509 763,-243.509 759.5,-253.509 766.5,-253.509"/>
</g>
<!-- Node31 -->
<g id="node31" class="node"><title>Node31</title>
<polygon fill="white" stroke="#bfbfbf" points="445.5,-224.5 445.5,-243.5 580.5,-243.5 580.5,-224.5 445.5,-224.5"/>
<text text-anchor="middle" x="513" y="-231.5" font-family="Helvetica,sans-Serif" font-size="10.00">xercesc/util/XMLString.hpp</text>
</g>
<!-- Node29&#45;&gt;Node31 -->
<g id="edge67" class="edge"><title>Node29&#45;&gt;Node31</title>
<path fill="none" stroke="midnightblue" d="M727.181,-285.975C682.812,-275.415 607.164,-257.411 558.668,-245.869"/>
<polygon fill="midnightblue" stroke="midnightblue" points="559.291,-242.42 548.752,-243.509 557.67,-249.229 559.291,-242.42"/>
</g>
<!-- Node32 -->
<g id="node32" class="node"><title>Node32</title>
<polygon fill="white" stroke="#bfbfbf" points="598.5,-224.5 598.5,-243.5 717.5,-243.5 717.5,-224.5 598.5,-224.5"/>
<text text-anchor="middle" x="658" y="-231.5" font-family="Helvetica,sans-Serif" font-size="10.00">xercesc/dom/DOM.hpp</text>
</g>
<!-- Node29&#45;&gt;Node32 -->
<g id="edge68" class="edge"><title>Node29&#45;&gt;Node32</title>
<path fill="none" stroke="midnightblue" d="M747.956,-285.975C730.725,-276.211 702.26,-260.081 681.966,-248.581"/>
<polygon fill="midnightblue" stroke="midnightblue" points="683.442,-245.394 673.016,-243.509 679.991,-251.484 683.442,-245.394"/>
</g>
</g>
</svg>
        <g id="navigator" transform="translate(0 0)" fill="#404254">
                <rect fill="#f2f5e9" fill-opacity="0.5" stroke="#606060" stroke-width=".5" x="0" y="0" width="60" height="60"/>
                <use id="zoomplus" xlink:href="#zoomPlus" x="17" y="9" onmousedown="handleZoom(evt,'in')"/>
                <use id="zoomminus" xlink:href="#zoomMin" x="42" y="9" onmousedown="handleZoom(evt,'out')"/>
                <use id="reset" xlink:href="#resetDef" x="30" y="36" onmousedown="handleReset()"/>
                <g id="arrowUp" xlink:href="#dirArrow" transform="translate(30 24)" onmousedown="handlePan(0,-1)">
                  <use xlink:href="#rim" fill="#404040">
                        <set attributeName="fill" to="#808080" begin="arrowUp.mouseover" end="arrowUp.mouseout"/>
                  </use>
                  <path fill="none" stroke="white" stroke-width="1.5" d="M0,-3.0v7 M-2.5,-0.5L0,-3.0L2.5,-0.5"/>
                </g>
                <g id="arrowRight" xlink:href="#dirArrow" transform="rotate(90) translate(36 -43)" onmousedown="handlePan(1,0)">
                  <use xlink:href="#rim" fill="#404040">
                        <set attributeName="fill" to="#808080" begin="arrowRight.mouseover" end="arrowRight.mouseout"/>
                  </use>
                  <path fill="none" stroke="white" stroke-width="1.5" d="M0,-3.0v7 M-2.5,-0.5L0,-3.0L2.5,-0.5"/>
                </g>
                <g id="arrowDown" xlink:href="#dirArrow" transform="rotate(180) translate(-30 -48)" onmousedown="handlePan(0,1)">
                  <use xlink:href="#rim" fill="#404040">
                        <set attributeName="fill" to="#808080" begin="arrowDown.mouseover" end="arrowDown.mouseout"/>
                  </use>
                  <path fill="none" stroke="white" stroke-width="1.5" d="M0,-3.0v7 M-2.5,-0.5L0,-3.0L2.5,-0.5"/>
                </g>
                <g id="arrowLeft" xlink:href="#dirArrow" transform="rotate(270) translate(-36 17)" onmousedown="handlePan(-1,0)">
                  <use xlink:href="#rim" fill="#404040">
                        <set attributeName="fill" to="#808080" begin="arrowLeft.mouseover" end="arrowLeft.mouseout"/>
                  </use>
                  <path fill="none" stroke="white" stroke-width="1.5" d="M0,-3.0v7 M-2.5,-0.5L0,-3.0L2.5,-0.5"/>
                </g>
        </g>
        <svg viewBox="0 0 15 15" width="100%" height="30px" preserveAspectRatio="xMaxYMin meet">
         <g id="arrow_out" transform="scale(0.3 0.3)">
          <a xlink:href="_c89_data_model_8cpp__incl_org.svg" target="_base">
           <rect id="button" ry="5" rx="5" y="6" x="6" height="38" width="38"
                fill="#f2f5e9" fill-opacity="0.5" stroke="#606060" stroke-width="1.0"/>
           <path id="arrow"
             d="M 11.500037,31.436501 C 11.940474,20.09759 22.043105,11.32322 32.158766,21.979434 L 37.068811,17.246167 C 37.068811,17.246167 37.088388,32 37.088388,32 L 22.160133,31.978069 C 22.160133,31.978069 26.997745,27.140456 26.997745,27.140456 C 18.528582,18.264221 13.291696,25.230495 11.500037,31.436501 z"
             style="fill:#404040;"/>
          </a>
         </g>
        </svg>
</svg>
