<?xml version="1.0" encoding="UTF-8" standalone="no"?>
<!DOCTYPE svg PUBLIC "-//W3C//DTD SVG 1.1//EN"
 "http://www.w3.org/Graphics/SVG/1.1/DTD/svg11.dtd">
<!-- Generated by graphviz version 2.38.0 (20140413.2041)
 -->
<!-- Title: transform/ChartToPromela.cpp Pages: 1 -->
<svg width="3260pt" height="777pt"
 viewBox="0.00 0.00 3260.00 777.00" xmlns="http://www.w3.org/2000/svg" xmlns:xlink="http://www.w3.org/1999/xlink">
<g id="graph0" class="graph" transform="scale(1 1) rotate(0) translate(4 773)">
<title>transform/ChartToPromela.cpp</title>
<polygon fill="white" stroke="none" points="-4,4 -4,-773 3256,-773 3256,4 -4,4"/>
<!-- Node1 -->
<g id="node1" class="node"><title>Node1</title>
<polygon fill="#bfbfbf" stroke="black" points="2888,-749.5 2888,-768.5 3042,-768.5 3042,-749.5 2888,-749.5"/>
<text text-anchor="middle" x="2965" y="-756.5" font-family="Helvetica,sans-Serif" font-size="10.00">transform/ChartToPromela.cpp</text>
</g>
<!-- Node2 -->
<g id="node2" class="node"><title>Node2</title>
<g id="a_node2"><a xlink:href="_chart_to_promela_8h.html" target="_top" xlink:title="uscxml/transform/ChartTo\lPromela.h">
<polygon fill="white" stroke="black" points="348,-682.5 348,-712.5 480,-712.5 480,-682.5 348,-682.5"/>
<text text-anchor="start" x="356" y="-700.5" font-family="Helvetica,sans-Serif" font-size="10.00">uscxml/transform/ChartTo</text>
<text text-anchor="middle" x="414" y="-689.5" font-family="Helvetica,sans-Serif" font-size="10.00">Promela.h</text>
</a>
</g>
</g>
<!-- Node1&#45;&gt;Node2 -->
<g id="edge1" class="edge"><title>Node1&#45;&gt;Node2</title>
<path fill="none" stroke="midnightblue" d="M2887.96,-756.203C2511.15,-747.414 865.297,-709.026 490.257,-700.279"/>
<polygon fill="midnightblue" stroke="midnightblue" points="490.136,-696.775 480.057,-700.041 489.973,-703.773 490.136,-696.775"/>
</g>
<!-- Node44 -->
<g id="node44" class="node"><title>Node44</title>
<g id="a_node44"><a xlink:href="_promela_parser_8h.html" target="_top" xlink:title="uscxml/plugins/datamodel\l/promela/PromelaParser.h">
<polygon fill="white" stroke="black" points="2772.5,-313.5 2772.5,-343.5 2905.5,-343.5 2905.5,-313.5 2772.5,-313.5"/>
<text text-anchor="start" x="2780.5" y="-331.5" font-family="Helvetica,sans-Serif" font-size="10.00">uscxml/plugins/datamodel</text>
<text text-anchor="middle" x="2839" y="-320.5" font-family="Helvetica,sans-Serif" font-size="10.00">/promela/PromelaParser.h</text>
</a>
</g>
</g>
<!-- Node1&#45;&gt;Node44 -->
<g id="edge152" class="edge"><title>Node1&#45;&gt;Node44</title>
<path fill="none" stroke="midnightblue" d="M2962.67,-749.268C2957.6,-729.459 2946,-679.529 2946,-637 2946,-637 2946,-637 2946,-450.5 2946,-418.049 2946.81,-405.705 2927,-380 2916.58,-366.481 2901.45,-355.961 2886.65,-348.107"/>
<polygon fill="midnightblue" stroke="midnightblue" points="2888.04,-344.89 2877.53,-343.558 2884.92,-351.154 2888.04,-344.89"/>
</g>
<!-- Node47 -->
<g id="node47" class="node"><title>Node47</title>
<g id="a_node47"><a xlink:href="promela_8tab_8hpp_source.html" target="_top" xlink:title="uscxml/plugins/datamodel\l/promela/parser/promela.tab.hpp">
<polygon fill="white" stroke="black" points="2924,-313.5 2924,-343.5 3086,-343.5 3086,-313.5 2924,-313.5"/>
<text text-anchor="start" x="2932" y="-331.5" font-family="Helvetica,sans-Serif" font-size="10.00">uscxml/plugins/datamodel</text>
<text text-anchor="middle" x="3005" y="-320.5" font-family="Helvetica,sans-Serif" font-size="10.00">/promela/parser/promela.tab.hpp</text>
</a>
</g>
</g>
<!-- Node1&#45;&gt;Node47 -->
<g id="edge153" class="edge"><title>Node1&#45;&gt;Node47</title>
<path fill="none" stroke="midnightblue" d="M2967.33,-749.268C2972.4,-729.459 2984,-679.529 2984,-637 2984,-637 2984,-637 2984,-450.5 2984,-416.326 2992.23,-377.513 2998.39,-353.266"/>
<polygon fill="midnightblue" stroke="midnightblue" points="3001.79,-354.082 3000.95,-343.52 2995.02,-352.301 3001.79,-354.082"/>
</g>
<!-- Node48 -->
<g id="node48" class="node"><title>Node48</title>
<g id="a_node48"><a xlink:href="_predicates_8h.html" target="_top" xlink:title="uscxml/util/Predicates.h">
<polygon fill="white" stroke="black" points="1460,-252 1460,-271 1582,-271 1582,-252 1460,-252"/>
<text text-anchor="middle" x="1521" y="-259" font-family="Helvetica,sans-Serif" font-size="10.00">uscxml/util/Predicates.h</text>
</a>
</g>
</g>
<!-- Node1&#45;&gt;Node48 -->
<g id="edge146" class="edge"><title>Node1&#45;&gt;Node48</title>
<path fill="none" stroke="midnightblue" d="M2939.94,-749.4C2767.39,-690.19 1756.35,-343.259 1555.63,-274.384"/>
<polygon fill="midnightblue" stroke="midnightblue" points="1556.5,-270.982 1545.91,-271.047 1554.23,-277.603 1556.5,-270.982"/>
</g>
<!-- Node49 -->
<g id="node49" class="node"><title>Node49</title>
<polygon fill="white" stroke="#bfbfbf" points="3012,-688 3012,-707 3144,-707 3144,-688 3012,-688"/>
<text text-anchor="middle" x="3078" y="-695" font-family="Helvetica,sans-Serif" font-size="10.00">boost/algorithm/string.hpp</text>
</g>
<!-- Node1&#45;&gt;Node49 -->
<g id="edge154" class="edge"><title>Node1&#45;&gt;Node49</title>
<path fill="none" stroke="midnightblue" d="M2981.19,-749.475C2999.9,-739.622 3030.92,-723.288 3052.8,-711.77"/>
<polygon fill="midnightblue" stroke="midnightblue" points="3054.62,-714.765 3061.84,-707.009 3051.36,-708.571 3054.62,-714.765"/>
</g>
<!-- Node50 -->
<g id="node50" class="node"><title>Node50</title>
<polygon fill="white" stroke="#bfbfbf" points="3162,-688 3162,-707 3252,-707 3252,-688 3162,-688"/>
<text text-anchor="middle" x="3207" y="-695" font-family="Helvetica,sans-Serif" font-size="10.00">easylogging++.h</text>
</g>
<!-- Node1&#45;&gt;Node50 -->
<g id="edge155" class="edge"><title>Node1&#45;&gt;Node50</title>
<path fill="none" stroke="midnightblue" d="M3002.17,-749.419C3040.15,-740.578 3100.79,-726.255 3153,-713 3157.3,-711.909 3161.78,-710.746 3166.24,-709.571"/>
<polygon fill="midnightblue" stroke="midnightblue" points="3167.15,-712.953 3175.91,-707.003 3165.35,-706.187 3167.15,-712.953"/>
</g>
<!-- Node3 -->
<g id="node3" class="node"><title>Node3</title>
<g id="a_node3"><a xlink:href="_transformer_8h.html" target="_top" xlink:title="Transformer.h">
<polygon fill="white" stroke="black" points="1285.5,-570.5 1285.5,-589.5 1364.5,-589.5 1364.5,-570.5 1285.5,-570.5"/>
<text text-anchor="middle" x="1325" y="-577.5" font-family="Helvetica,sans-Serif" font-size="10.00">Transformer.h</text>
</a>
</g>
</g>
<!-- Node2&#45;&gt;Node3 -->
<g id="edge2" class="edge"><title>Node2&#45;&gt;Node3</title>
<path fill="none" stroke="midnightblue" d="M480.251,-688.1C654.159,-666.052 1120.88,-606.88 1274.91,-587.351"/>
<polygon fill="midnightblue" stroke="midnightblue" points="1275.54,-590.798 1285.02,-586.068 1274.66,-583.854 1275.54,-590.798"/>
</g>
<!-- Node36 -->
<g id="node36" class="node"><title>Node36</title>
<g id="a_node36"><a xlink:href="_d_o_m_8h.html" target="_top" xlink:title="uscxml/util/DOM.h">
<polygon fill="white" stroke="black" points="470,-185 470,-204 568,-204 568,-185 470,-185"/>
<text text-anchor="middle" x="519" y="-192" font-family="Helvetica,sans-Serif" font-size="10.00">uscxml/util/DOM.h</text>
</a>
</g>
</g>
<!-- Node2&#45;&gt;Node36 -->
<g id="edge126" class="edge"><title>Node2&#45;&gt;Node36</title>
<path fill="none" stroke="midnightblue" d="M347.886,-694.971C270.271,-689.249 152,-666.501 152,-581 152,-581 152,-581 152,-389 152,-251.501 356.065,-211.469 459.861,-200.001"/>
<polygon fill="midnightblue" stroke="midnightblue" points="460.306,-203.473 469.886,-198.947 459.575,-196.511 460.306,-203.473"/>
</g>
<!-- Node39 -->
<g id="node39" class="node"><title>Node39</title>
<g id="a_node39"><a xlink:href="_chart_to_c_8h.html" target="_top" xlink:title="ChartToC.h">
<polygon fill="white" stroke="black" points="280,-626.5 280,-645.5 348,-645.5 348,-626.5 280,-626.5"/>
<text text-anchor="middle" x="314" y="-633.5" font-family="Helvetica,sans-Serif" font-size="10.00">ChartToC.h</text>
</a>
</g>
</g>
<!-- Node2&#45;&gt;Node39 -->
<g id="edge115" class="edge"><title>Node2&#45;&gt;Node39</title>
<path fill="none" stroke="midnightblue" d="M390.301,-682.399C374.272,-672.862 353.201,-660.325 337.264,-650.842"/>
<polygon fill="midnightblue" stroke="midnightblue" points="338.934,-647.763 328.551,-645.658 335.355,-653.779 338.934,-647.763"/>
</g>
<!-- Node41 -->
<g id="node41" class="node"><title>Node41</title>
<polygon fill="white" stroke="#bfbfbf" points="332.5,-570.5 332.5,-589.5 385.5,-589.5 385.5,-570.5 332.5,-570.5"/>
<text text-anchor="middle" x="359" y="-577.5" font-family="Helvetica,sans-Serif" font-size="10.00">ostream</text>
</g>
<!-- Node2&#45;&gt;Node41 -->
<g id="edge145" class="edge"><title>Node2&#45;&gt;Node41</title>
<path fill="none" stroke="midnightblue" d="M407.256,-682.337C397.256,-661.338 378.502,-621.955 367.551,-598.958"/>
<polygon fill="midnightblue" stroke="midnightblue" points="370.588,-597.193 363.128,-589.669 364.268,-600.203 370.588,-597.193"/>
</g>
<!-- Node42 -->
<g id="node42" class="node"><title>Node42</title>
<g id="a_node42"><a xlink:href="_promela_inlines_8h.html" target="_top" xlink:title="promela/PromelaInlines.h">
<polygon fill="white" stroke="black" points="624,-252 624,-271 754,-271 754,-252 624,-252"/>
<text text-anchor="middle" x="689" y="-259" font-family="Helvetica,sans-Serif" font-size="10.00">promela/PromelaInlines.h</text>
</a>
</g>
</g>
<!-- Node2&#45;&gt;Node42 -->
<g id="edge127" class="edge"><title>Node2&#45;&gt;Node42</title>
<path fill="none" stroke="midnightblue" d="M414,-682.275C414,-660.476 414,-617.495 414,-581 414,-581 414,-581 414,-517.5 414,-387.222 581.996,-304.816 655.377,-275.035"/>
<polygon fill="midnightblue" stroke="midnightblue" points="657.075,-278.126 665.077,-271.182 654.491,-271.621 657.075,-278.126"/>
</g>
<!-- Node43 -->
<g id="node43" class="node"><title>Node43</title>
<g id="a_node43"><a xlink:href="_promela_code_analyzer_8h.html" target="_top" xlink:title="promela/PromelaCodeAnalyzer.h">
<polygon fill="white" stroke="black" points="2754,-380.5 2754,-399.5 2918,-399.5 2918,-380.5 2754,-380.5"/>
<text text-anchor="middle" x="2836" y="-387.5" font-family="Helvetica,sans-Serif" font-size="10.00">promela/PromelaCodeAnalyzer.h</text>
</a>
</g>
</g>
<!-- Node2&#45;&gt;Node43 -->
<g id="edge135" class="edge"><title>Node2&#45;&gt;Node43</title>
<path fill="none" stroke="midnightblue" d="M480.132,-695.246C825.918,-688.429 2418.13,-653.78 2628,-590 2725.59,-560.341 2799.78,-451.482 2825.85,-408.563"/>
<polygon fill="midnightblue" stroke="midnightblue" points="2828.96,-410.187 2831.06,-399.802 2822.94,-406.612 2828.96,-410.187"/>
</g>
<!-- Node4 -->
<g id="node4" class="node"><title>Node4</title>
<polygon fill="white" stroke="#bfbfbf" points="710.5,-118 710.5,-137 765.5,-137 765.5,-118 710.5,-118"/>
<text text-anchor="middle" x="738" y="-125" font-family="Helvetica,sans-Serif" font-size="10.00">iostream</text>
</g>
<!-- Node3&#45;&gt;Node4 -->
<g id="edge3" class="edge"><title>Node3&#45;&gt;Node4</title>
<path fill="none" stroke="midnightblue" d="M1326.18,-570.425C1330.87,-532.539 1344.05,-379.13 1261,-313 1207.78,-270.623 1020.74,-300.765 957,-277 872.877,-245.636 789.56,-175.611 754.847,-144.235"/>
<polygon fill="midnightblue" stroke="midnightblue" points="756.836,-141.311 747.098,-137.137 752.108,-146.473 756.836,-141.311"/>
</g>
<!-- Node5 -->
<g id="node5" class="node"><title>Node5</title>
<polygon fill="white" stroke="#bfbfbf" points="2536,-118 2536,-137 2572,-137 2572,-118 2536,-118"/>
<text text-anchor="middle" x="2554" y="-125" font-family="Helvetica,sans-Serif" font-size="10.00">map</text>
</g>
<!-- Node3&#45;&gt;Node5 -->
<g id="edge4" class="edge"><title>Node3&#45;&gt;Node5</title>
<path fill="none" stroke="midnightblue" d="M1364.83,-577.265C1495.27,-570.946 1920.87,-545.268 2263,-467 2352.33,-446.564 2372.76,-433.656 2458,-400 2543.41,-366.276 2599.1,-365.384 2624,-277 2635.87,-234.858 2635.36,-217.218 2614,-179 2605.58,-163.936 2590.79,-151.409 2578,-142.6"/>
<polygon fill="midnightblue" stroke="midnightblue" points="2579.86,-139.634 2569.57,-137.11 2576.04,-145.5 2579.86,-139.634"/>
</g>
<!-- Node6 -->
<g id="node6" class="node"><title>Node6</title>
<g id="a_node6"><a xlink:href="_interpreter_8h.html" target="_top" xlink:title="uscxml/Interpreter.h">
<polygon fill="white" stroke="black" points="1127.5,-380.5 1127.5,-399.5 1232.5,-399.5 1232.5,-380.5 1127.5,-380.5"/>
<text text-anchor="middle" x="1180" y="-387.5" font-family="Helvetica,sans-Serif" font-size="10.00">uscxml/Interpreter.h</text>
</a>
</g>
</g>
<!-- Node3&#45;&gt;Node6 -->
<g id="edge5" class="edge"><title>Node3&#45;&gt;Node6</title>
<path fill="none" stroke="midnightblue" d="M1324.85,-570.433C1324.26,-555.711 1321.47,-525.068 1309,-503 1283.98,-458.732 1234.61,-423.524 1204.73,-405.096"/>
<polygon fill="midnightblue" stroke="midnightblue" points="1206.15,-401.862 1195.77,-399.712 1202.54,-407.862 1206.15,-401.862"/>
</g>
<!-- Node31 -->
<g id="node31" class="node"><title>Node31</title>
<g id="a_node31"><a xlink:href="_interpreter_impl_8h.html" target="_top" xlink:title="uscxml/interpreter\l/InterpreterImpl.h">
<polygon fill="white" stroke="black" points="1204,-503.5 1204,-533.5 1300,-533.5 1300,-503.5 1204,-503.5"/>
<text text-anchor="start" x="1212" y="-521.5" font-family="Helvetica,sans-Serif" font-size="10.00">uscxml/interpreter</text>
<text text-anchor="middle" x="1252" y="-510.5" font-family="Helvetica,sans-Serif" font-size="10.00">/InterpreterImpl.h</text>
</a>
</g>
</g>
<!-- Node3&#45;&gt;Node31 -->
<g id="edge66" class="edge"><title>Node3&#45;&gt;Node31</title>
<path fill="none" stroke="midnightblue" d="M1314.54,-570.475C1304.84,-562.567 1290.01,-550.485 1277.23,-540.067"/>
<polygon fill="midnightblue" stroke="midnightblue" points="1279.17,-537.128 1269.2,-533.523 1274.74,-542.554 1279.17,-537.128"/>
</g>
<!-- Node6&#45;&gt;Node5 -->
<g id="edge9" class="edge"><title>Node6&#45;&gt;Node5</title>
<path fill="none" stroke="midnightblue" d="M1232.6,-387.834C1398.88,-383.915 1911.88,-369.985 2076,-344 2188.77,-326.146 2214.66,-309.874 2324,-277 2369.29,-263.383 2492.38,-243.263 2526,-210 2543,-193.182 2549.69,-165.596 2552.31,-147.244"/>
<polygon fill="midnightblue" stroke="midnightblue" points="2555.8,-147.525 2553.48,-137.188 2548.85,-146.719 2555.8,-147.525"/>
</g>
<!-- Node7 -->
<g id="node7" class="node"><title>Node7</title>
<g id="a_node7"><a xlink:href="_common_8h.html" target="_top" xlink:title="Common.h">
<polygon fill="white" stroke="black" points="940.5,-56.5 940.5,-75.5 1005.5,-75.5 1005.5,-56.5 940.5,-56.5"/>
<text text-anchor="middle" x="973" y="-63.5" font-family="Helvetica,sans-Serif" font-size="10.00">Common.h</text>
</a>
</g>
</g>
<!-- Node6&#45;&gt;Node7 -->
<g id="edge6" class="edge"><title>Node6&#45;&gt;Node7</title>
<path fill="none" stroke="midnightblue" d="M1153.36,-380.444C1102.41,-364.445 987.382,-330.077 888,-313 795.896,-297.174 551.695,-320.534 469,-277 434.909,-259.053 428.057,-245.87 414,-210 398.095,-169.413 380.429,-144.028 410,-112 445.063,-74.0228 804.306,-68.0775 929.92,-67.1616"/>
<polygon fill="midnightblue" stroke="midnightblue" points="930.317,-70.6592 940.294,-67.0937 930.272,-63.6593 930.317,-70.6592"/>
</g>
<!-- Node10 -->
<g id="node10" class="node"><title>Node10</title>
<polygon fill="white" stroke="#bfbfbf" points="2235.5,-56.5 2235.5,-75.5 2276.5,-75.5 2276.5,-56.5 2235.5,-56.5"/>
<text text-anchor="middle" x="2256" y="-63.5" font-family="Helvetica,sans-Serif" font-size="10.00">string</text>
</g>
<!-- Node6&#45;&gt;Node10 -->
<g id="edge10" class="edge"><title>Node6&#45;&gt;Node10</title>
<path fill="none" stroke="midnightblue" d="M1232.57,-388.998C1461.07,-388.742 2361.75,-385.114 2481,-344 2590.75,-306.162 2679.53,-197.498 2601,-112 2579.84,-88.9562 2366.93,-73.7359 2286.53,-68.7703"/>
<polygon fill="midnightblue" stroke="midnightblue" points="2286.72,-65.2757 2276.53,-68.1637 2286.3,-72.2629 2286.72,-65.2757"/>
</g>
<!-- Node11 -->
<g id="node11" class="node"><title>Node11</title>
<polygon fill="white" stroke="#bfbfbf" points="1208,-319 1208,-338 1252,-338 1252,-319 1208,-319"/>
<text text-anchor="middle" x="1230" y="-326" font-family="Helvetica,sans-Serif" font-size="10.00">vector</text>
</g>
<!-- Node6&#45;&gt;Node11 -->
<g id="edge11" class="edge"><title>Node6&#45;&gt;Node11</title>
<path fill="none" stroke="midnightblue" d="M1187.16,-380.475C1194.74,-371.462 1206.87,-357.025 1216.29,-345.812"/>
<polygon fill="midnightblue" stroke="midnightblue" points="1219.1,-347.917 1222.85,-338.009 1213.74,-343.413 1219.1,-347.917"/>
</g>
<!-- Node12 -->
<g id="node12" class="node"><title>Node12</title>
<g id="a_node12"><a xlink:href="_micro_step_8h.html" target="_top" xlink:title="uscxml/interpreter\l/MicroStep.h">
<polygon fill="white" stroke="black" points="1156,-179.5 1156,-209.5 1252,-209.5 1252,-179.5 1156,-179.5"/>
<text text-anchor="start" x="1164" y="-197.5" font-family="Helvetica,sans-Serif" font-size="10.00">uscxml/interpreter</text>
<text text-anchor="middle" x="1204" y="-186.5" font-family="Helvetica,sans-Serif" font-size="10.00">/MicroStep.h</text>
</a>
</g>
</g>
<!-- Node6&#45;&gt;Node12 -->
<g id="edge12" class="edge"><title>Node6&#45;&gt;Node12</title>
<path fill="none" stroke="midnightblue" d="M1179.78,-380.077C1179.53,-365.846 1179.44,-337.151 1182,-313 1185.47,-280.249 1193.1,-242.95 1198.39,-219.327"/>
<polygon fill="midnightblue" stroke="midnightblue" points="1201.82,-220.029 1200.63,-209.501 1194.99,-218.471 1201.82,-220.029"/>
</g>
<!-- Node16 -->
<g id="node16" class="node"><title>Node16</title>
<g id="a_node16"><a xlink:href="_interpreter_state_8h.html" target="_top" xlink:title="uscxml/interpreter\l/InterpreterState.h">
<polygon fill="white" stroke="black" points="1001.5,-112.5 1001.5,-142.5 1098.5,-142.5 1098.5,-112.5 1001.5,-112.5"/>
<text text-anchor="start" x="1009.5" y="-130.5" font-family="Helvetica,sans-Serif" font-size="10.00">uscxml/interpreter</text>
<text text-anchor="middle" x="1050" y="-119.5" font-family="Helvetica,sans-Serif" font-size="10.00">/InterpreterState.h</text>
</a>
</g>
</g>
<!-- Node6&#45;&gt;Node16 -->
<g id="edge65" class="edge"><title>Node6&#45;&gt;Node16</title>
<path fill="none" stroke="midnightblue" d="M1176.91,-380.275C1166.35,-350.888 1129.94,-253.199 1087,-179 1081.37,-169.264 1074.24,-159.146 1067.75,-150.546"/>
<polygon fill="midnightblue" stroke="midnightblue" points="1070.43,-148.295 1061.55,-142.523 1064.89,-152.575 1070.43,-148.295"/>
</g>
<!-- Node17 -->
<g id="node17" class="node"><title>Node17</title>
<g id="a_node17"><a xlink:href="_data_model_8h.html" target="_top" xlink:title="uscxml/plugins/DataModel.h">
<polygon fill="white" stroke="black" points="1925,-319 1925,-338 2067,-338 2067,-319 1925,-319"/>
<text text-anchor="middle" x="1996" y="-326" font-family="Helvetica,sans-Serif" font-size="10.00">uscxml/plugins/DataModel.h</text>
</a>
</g>
</g>
<!-- Node6&#45;&gt;Node17 -->
<g id="edge20" class="edge"><title>Node6&#45;&gt;Node17</title>
<path fill="none" stroke="midnightblue" d="M1232.85,-387.911C1354.04,-384.947 1661.18,-374.774 1916,-344 1925.16,-342.894 1934.86,-341.407 1944.22,-339.807"/>
<polygon fill="midnightblue" stroke="midnightblue" points="1944.97,-343.228 1954.21,-338.038 1943.75,-336.336 1944.97,-343.228"/>
</g>
<!-- Node25 -->
<g id="node25" class="node"><title>Node25</title>
<g id="a_node25"><a xlink:href="_factory_8h.html" target="_top" xlink:title="uscxml/plugins/Factory.h">
<polygon fill="white" stroke="red" points="966.5,-252 966.5,-271 1093.5,-271 1093.5,-252 966.5,-252"/>
<text text-anchor="middle" x="1030" y="-259" font-family="Helvetica,sans-Serif" font-size="10.00">uscxml/plugins/Factory.h</text>
</a>
</g>
</g>
<!-- Node6&#45;&gt;Node25 -->
<g id="edge44" class="edge"><title>Node6&#45;&gt;Node25</title>
<path fill="none" stroke="midnightblue" d="M1155.63,-380.47C1136.4,-372.924 1109.64,-360.542 1090,-344 1068.23,-325.665 1049.98,-297.898 1039.52,-279.979"/>
<polygon fill="midnightblue" stroke="midnightblue" points="1042.5,-278.143 1034.54,-271.16 1036.41,-281.588 1042.5,-278.143"/>
</g>
<!-- Node29 -->
<g id="node29" class="node"><title>Node29</title>
<g id="a_node29"><a xlink:href="_content_executor_8h.html" target="_top" xlink:title="uscxml/interpreter\l/ContentExecutor.h">
<polygon fill="white" stroke="black" points="1226,-246.5 1226,-276.5 1328,-276.5 1328,-246.5 1226,-246.5"/>
<text text-anchor="start" x="1234" y="-264.5" font-family="Helvetica,sans-Serif" font-size="10.00">uscxml/interpreter</text>
<text text-anchor="middle" x="1277" y="-253.5" font-family="Helvetica,sans-Serif" font-size="10.00">/ContentExecutor.h</text>
</a>
</g>
</g>
<!-- Node6&#45;&gt;Node29 -->
<g id="edge57" class="edge"><title>Node6&#45;&gt;Node29</title>
<path fill="none" stroke="midnightblue" d="M1180.16,-380.165C1180.85,-365.038 1184.13,-333.801 1199,-313 1208.22,-300.098 1221.87,-289.657 1235.17,-281.691"/>
<polygon fill="midnightblue" stroke="midnightblue" points="1237.27,-284.525 1244.27,-276.571 1233.84,-278.424 1237.27,-284.525"/>
</g>
<!-- Node30 -->
<g id="node30" class="node"><title>Node30</title>
<g id="a_node30"><a xlink:href="_event_queue_8h.html" target="_top" xlink:title="uscxml/interpreter\l/EventQueue.h">
<polygon fill="white" stroke="black" points="783,-313.5 783,-343.5 879,-343.5 879,-313.5 783,-313.5"/>
<text text-anchor="start" x="791" y="-331.5" font-family="Helvetica,sans-Serif" font-size="10.00">uscxml/interpreter</text>
<text text-anchor="middle" x="831" y="-320.5" font-family="Helvetica,sans-Serif" font-size="10.00">/EventQueue.h</text>
</a>
</g>
</g>
<!-- Node6&#45;&gt;Node30 -->
<g id="edge62" class="edge"><title>Node6&#45;&gt;Node30</title>
<path fill="none" stroke="midnightblue" d="M1127.42,-381.951C1069.71,-373.935 974.431,-359.883 893,-344 891.749,-343.756 890.485,-343.504 889.211,-343.247"/>
<polygon fill="midnightblue" stroke="midnightblue" points="889.832,-339.801 879.326,-341.167 888.391,-346.651 889.832,-339.801"/>
</g>
<!-- Node8 -->
<g id="node8" class="node"><title>Node8</title>
<polygon fill="white" stroke="#bfbfbf" points="899,-0.5 899,-19.5 971,-19.5 971,-0.5 899,-0.5"/>
<text text-anchor="middle" x="935" y="-7.5" font-family="Helvetica,sans-Serif" font-size="10.00">sys/socket.h</text>
</g>
<!-- Node7&#45;&gt;Node8 -->
<g id="edge7" class="edge"><title>Node7&#45;&gt;Node8</title>
<path fill="none" stroke="midnightblue" d="M966.725,-56.083C961.358,-48.4554 953.482,-37.2645 946.921,-27.9408"/>
<polygon fill="midnightblue" stroke="midnightblue" points="949.775,-25.9149 941.158,-19.7511 944.051,-29.9434 949.775,-25.9149"/>
</g>
<!-- Node9 -->
<g id="node9" class="node"><title>Node9</title>
<polygon fill="white" stroke="#bfbfbf" points="989,-0.5 989,-19.5 1033,-19.5 1033,-0.5 989,-0.5"/>
<text text-anchor="middle" x="1011" y="-7.5" font-family="Helvetica,sans-Serif" font-size="10.00">cmath</text>
</g>
<!-- Node7&#45;&gt;Node9 -->
<g id="edge8" class="edge"><title>Node7&#45;&gt;Node9</title>
<path fill="none" stroke="midnightblue" d="M979.275,-56.083C984.642,-48.4554 992.518,-37.2645 999.079,-27.9408"/>
<polygon fill="midnightblue" stroke="midnightblue" points="1001.95,-29.9434 1004.84,-19.7511 996.225,-25.9149 1001.95,-29.9434"/>
</g>
<!-- Node12&#45;&gt;Node7 -->
<g id="edge17" class="edge"><title>Node12&#45;&gt;Node7</title>
<path fill="none" stroke="midnightblue" d="M1188.75,-179.463C1166.12,-158.856 1124.46,-121.795 1107,-112 1078.25,-95.8663 1042.77,-84.2735 1015.55,-76.8986"/>
<polygon fill="midnightblue" stroke="midnightblue" points="1016.11,-73.4275 1005.55,-74.2779 1014.33,-80.1988 1016.11,-73.4275"/>
</g>
<!-- Node12&#45;&gt;Node10 -->
<g id="edge15" class="edge"><title>Node12&#45;&gt;Node10</title>
<path fill="none" stroke="midnightblue" d="M1252.07,-191.926C1411.96,-186.483 1919.69,-167.439 1989,-143 2011.56,-135.045 2011.03,-121.457 2033,-112 2098.02,-84.0153 2181.3,-73.1586 2225.4,-69.1636"/>
<polygon fill="midnightblue" stroke="midnightblue" points="2225.81,-72.6415 2235.48,-68.3096 2225.22,-65.6665 2225.81,-72.6415"/>
</g>
<!-- Node13 -->
<g id="node13" class="node"><title>Node13</title>
<polygon fill="white" stroke="#bfbfbf" points="1214.5,-56.5 1214.5,-75.5 1267.5,-75.5 1267.5,-56.5 1214.5,-56.5"/>
<text text-anchor="middle" x="1241" y="-63.5" font-family="Helvetica,sans-Serif" font-size="10.00">memory</text>
</g>
<!-- Node12&#45;&gt;Node13 -->
<g id="edge13" class="edge"><title>Node12&#45;&gt;Node13</title>
<path fill="none" stroke="midnightblue" d="M1207.88,-179.333C1212.36,-163.049 1220.02,-135.539 1227,-112 1229.62,-103.164 1232.65,-93.392 1235.21,-85.2179"/>
<polygon fill="midnightblue" stroke="midnightblue" points="1238.57,-86.1959 1238.25,-75.6061 1231.9,-84.0873 1238.57,-86.1959"/>
</g>
<!-- Node14 -->
<g id="node14" class="node"><title>Node14</title>
<polygon fill="white" stroke="#bfbfbf" points="1269.5,-118 1269.5,-137 1298.5,-137 1298.5,-118 1269.5,-118"/>
<text text-anchor="middle" x="1284" y="-125" font-family="Helvetica,sans-Serif" font-size="10.00">list</text>
</g>
<!-- Node12&#45;&gt;Node14 -->
<g id="edge14" class="edge"><title>Node12&#45;&gt;Node14</title>
<path fill="none" stroke="midnightblue" d="M1221.36,-179.396C1234.33,-168.86 1252.03,-154.477 1265.31,-143.689"/>
<polygon fill="midnightblue" stroke="midnightblue" points="1267.74,-146.217 1273.3,-137.195 1263.33,-140.784 1267.74,-146.217"/>
</g>
<!-- Node15 -->
<g id="node15" class="node"><title>Node15</title>
<polygon fill="white" stroke="#bfbfbf" points="783.5,-118 783.5,-137 868.5,-137 868.5,-118 783.5,-118"/>
<text text-anchor="middle" x="826" y="-125" font-family="Helvetica,sans-Serif" font-size="10.00">uscxml/config.h</text>
</g>
<!-- Node12&#45;&gt;Node15 -->
<g id="edge16" class="edge"><title>Node12&#45;&gt;Node15</title>
<path fill="none" stroke="midnightblue" d="M1155.74,-185.202C1084.65,-172.977 952.26,-150.211 878.704,-137.563"/>
<polygon fill="midnightblue" stroke="midnightblue" points="879.177,-134.093 868.728,-135.847 877.99,-140.992 879.177,-134.093"/>
</g>
<!-- Node12&#45;&gt;Node16 -->
<g id="edge18" class="edge"><title>Node12&#45;&gt;Node16</title>
<path fill="none" stroke="midnightblue" d="M1170.58,-179.396C1147.78,-169.771 1117.37,-156.936 1092.8,-146.564"/>
<polygon fill="midnightblue" stroke="midnightblue" points="1093.92,-143.241 1083.35,-142.577 1091.2,-149.69 1093.92,-143.241"/>
</g>
<!-- Node16&#45;&gt;Node7 -->
<g id="edge19" class="edge"><title>Node16&#45;&gt;Node7</title>
<path fill="none" stroke="midnightblue" d="M1031.75,-112.399C1019.87,-103.218 1004.39,-91.2579 992.306,-81.9182"/>
<polygon fill="midnightblue" stroke="midnightblue" points="994.257,-79.0028 984.204,-75.6578 989.977,-84.5418 994.257,-79.0028"/>
</g>
<!-- Node17&#45;&gt;Node7 -->
<g id="edge21" class="edge"><title>Node17&#45;&gt;Node7</title>
<path fill="none" stroke="midnightblue" d="M1987.67,-318.951C1971.77,-303.006 1935.55,-268.324 1900,-246 1837.82,-206.953 1819.98,-197.778 1749,-179 1593.55,-137.873 1540.25,-197.583 1389,-143 1365.81,-134.631 1366.1,-120.616 1343,-112 1283.84,-89.9334 1099.86,-75.3596 1015.74,-69.6783"/>
<polygon fill="midnightblue" stroke="midnightblue" points="1015.73,-66.1695 1005.52,-68.9982 1015.26,-73.1541 1015.73,-66.1695"/>
</g>
<!-- Node17&#45;&gt;Node10 -->
<g id="edge42" class="edge"><title>Node17&#45;&gt;Node10</title>
<path fill="none" stroke="midnightblue" d="M2058.67,-318.942C2147.96,-302.835 2307.37,-258.524 2365,-143 2371.15,-130.671 2372.66,-123.451 2365,-112 2347.69,-86.1272 2312.49,-75.1137 2286.76,-70.4355"/>
<polygon fill="midnightblue" stroke="midnightblue" points="2287.16,-66.9553 2276.73,-68.8404 2286.06,-73.8684 2287.16,-66.9553"/>
</g>
<!-- Node17&#45;&gt;Node13 -->
<g id="edge43" class="edge"><title>Node17&#45;&gt;Node13</title>
<path fill="none" stroke="midnightblue" d="M1999.47,-318.923C2012.42,-285.418 2053.88,-162.724 1989,-112 1960.72,-89.8913 1425.14,-72.4539 1278.08,-68.0684"/>
<polygon fill="midnightblue" stroke="midnightblue" points="1277.88,-64.5611 1267.78,-67.7638 1277.68,-71.558 1277.88,-64.5611"/>
</g>
<!-- Node17&#45;&gt;Node14 -->
<g id="edge41" class="edge"><title>Node17&#45;&gt;Node14</title>
<path fill="none" stroke="midnightblue" d="M1949.82,-318.953C1889.17,-307.576 1786.07,-287.656 1749,-277 1667.36,-253.532 1646.41,-247.114 1570,-210 1546.14,-198.411 1543.87,-188.236 1519,-179 1427.77,-145.111 1392.32,-181.661 1303,-143 1302.69,-142.864 1302.37,-142.722 1302.06,-142.574"/>
<polygon fill="midnightblue" stroke="midnightblue" points="1303.8,-139.536 1293.48,-137.164 1300.07,-145.458 1303.8,-139.536"/>
</g>
<!-- Node18 -->
<g id="node18" class="node"><title>Node18</title>
<g id="a_node18"><a xlink:href="_event_8h.html" target="_top" xlink:title="uscxml/messages/Event.h">
<polygon fill="white" stroke="black" points="1758.5,-252 1758.5,-271 1891.5,-271 1891.5,-252 1758.5,-252"/>
<text text-anchor="middle" x="1825" y="-259" font-family="Helvetica,sans-Serif" font-size="10.00">uscxml/messages/Event.h</text>
</a>
</g>
</g>
<!-- Node17&#45;&gt;Node18 -->
<g id="edge22" class="edge"><title>Node17&#45;&gt;Node18</title>
<path fill="none" stroke="midnightblue" d="M1973.29,-318.869C1943.44,-307.522 1890.83,-287.525 1856.97,-274.652"/>
<polygon fill="midnightblue" stroke="midnightblue" points="1858.12,-271.345 1847.53,-271.064 1855.63,-277.888 1858.12,-271.345"/>
</g>
<!-- Node19 -->
<g id="node19" class="node"><title>Node19</title>
<g id="a_node19"><a xlink:href="_data_8h.html" target="_top" xlink:title="uscxml/messages/Data.h">
<polygon fill="white" stroke="black" points="1612,-185 1612,-204 1740,-204 1740,-185 1612,-185"/>
<text text-anchor="middle" x="1676" y="-192" font-family="Helvetica,sans-Serif" font-size="10.00">uscxml/messages/Data.h</text>
</a>
</g>
</g>
<!-- Node18&#45;&gt;Node19 -->
<g id="edge23" class="edge"><title>Node18&#45;&gt;Node19</title>
<path fill="none" stroke="midnightblue" d="M1805.21,-251.869C1779.61,-240.699 1734.79,-221.147 1705.25,-208.26"/>
<polygon fill="midnightblue" stroke="midnightblue" points="1706.43,-204.958 1695.87,-204.167 1703.63,-211.374 1706.43,-204.958"/>
</g>
<!-- Node24 -->
<g id="node24" class="node"><title>Node24</title>
<g id="a_node24"><a xlink:href="_u_u_i_d_8h.html" target="_top" xlink:title="uscxml/util/UUID.h">
<polygon fill="white" stroke="black" points="1881.5,-118 1881.5,-137 1980.5,-137 1980.5,-118 1881.5,-118"/>
<text text-anchor="middle" x="1931" y="-125" font-family="Helvetica,sans-Serif" font-size="10.00">uscxml/util/UUID.h</text>
</a>
</g>
</g>
<!-- Node18&#45;&gt;Node24 -->
<g id="edge38" class="edge"><title>Node18&#45;&gt;Node24</title>
<path fill="none" stroke="midnightblue" d="M1831.95,-251.839C1849.33,-230.205 1894.86,-173.51 1917.63,-145.152"/>
<polygon fill="midnightblue" stroke="midnightblue" points="1920.62,-147.01 1924.16,-137.021 1915.17,-142.627 1920.62,-147.01"/>
</g>
<!-- Node19&#45;&gt;Node5 -->
<g id="edge25" class="edge"><title>Node19&#45;&gt;Node5</title>
<path fill="none" stroke="midnightblue" d="M1740.21,-188.747C1916.53,-175.693 2403.26,-139.66 2525.74,-130.592"/>
<polygon fill="midnightblue" stroke="midnightblue" points="2526.1,-134.075 2535.82,-129.846 2525.58,-127.094 2526.1,-134.075"/>
</g>
<!-- Node19&#45;&gt;Node7 -->
<g id="edge28" class="edge"><title>Node19&#45;&gt;Node7</title>
<path fill="none" stroke="midnightblue" d="M1631.91,-184.994C1620.86,-182.946 1609.01,-180.824 1598,-179 1488.56,-160.859 1454.05,-184.072 1351,-143 1328.78,-134.144 1329.27,-120.736 1307,-112 1207.94,-73.1372 1081.05,-66.7813 1015.87,-66.3588"/>
<polygon fill="midnightblue" stroke="midnightblue" points="1015.59,-62.8583 1005.58,-66.3388 1015.57,-69.8583 1015.59,-62.8583"/>
</g>
<!-- Node19&#45;&gt;Node13 -->
<g id="edge26" class="edge"><title>Node19&#45;&gt;Node13</title>
<path fill="none" stroke="midnightblue" d="M1645.42,-184.935C1609.93,-174.971 1549.68,-157.972 1498,-143 1419.19,-120.168 1327,-92.7273 1277.27,-77.8623"/>
<polygon fill="midnightblue" stroke="midnightblue" points="1278.19,-74.4865 1267.61,-74.9747 1276.19,-81.1931 1278.19,-74.4865"/>
</g>
<!-- Node19&#45;&gt;Node14 -->
<g id="edge24" class="edge"><title>Node19&#45;&gt;Node14</title>
<path fill="none" stroke="midnightblue" d="M1632.76,-184.998C1621.47,-182.905 1609.3,-180.762 1598,-179 1471.85,-159.325 1435.17,-180.077 1313,-143 1311.33,-142.494 1309.65,-141.899 1307.97,-141.243"/>
<polygon fill="midnightblue" stroke="midnightblue" points="1309.21,-137.962 1298.65,-137.028 1306.32,-144.339 1309.21,-137.962"/>
</g>
<!-- Node19&#45;&gt;Node15 -->
<g id="edge27" class="edge"><title>Node19&#45;&gt;Node15</title>
<path fill="none" stroke="midnightblue" d="M1611.85,-189.053C1490.69,-180.588 1219.88,-161.364 992,-143 954.141,-139.949 911.453,-136.214 878.847,-133.298"/>
<polygon fill="midnightblue" stroke="midnightblue" points="878.906,-129.79 868.634,-132.383 878.281,-136.762 878.906,-129.79"/>
</g>
<!-- Node20 -->
<g id="node20" class="node"><title>Node20</title>
<g id="a_node20"><a xlink:href="_convenience_8h.html" target="_top" xlink:title="uscxml/util/Convenience.h">
<polygon fill="white" stroke="black" points="1691.5,-118 1691.5,-137 1824.5,-137 1824.5,-118 1691.5,-118"/>
<text text-anchor="middle" x="1758" y="-125" font-family="Helvetica,sans-Serif" font-size="10.00">uscxml/util/Convenience.h</text>
</a>
</g>
</g>
<!-- Node19&#45;&gt;Node20 -->
<g id="edge29" class="edge"><title>Node19&#45;&gt;Node20</title>
<path fill="none" stroke="midnightblue" d="M1687.06,-184.734C1700.34,-174.208 1722.83,-156.379 1738.93,-143.617"/>
<polygon fill="midnightblue" stroke="midnightblue" points="1741.45,-146.082 1747.12,-137.127 1737.11,-140.596 1741.45,-146.082"/>
</g>
<!-- Node23 -->
<g id="node23" class="node"><title>Node23</title>
<g id="a_node23"><a xlink:href="_blob_8h.html" target="_top" xlink:title="uscxml/messages/Blob.h">
<polygon fill="white" stroke="black" points="1507.5,-118 1507.5,-137 1634.5,-137 1634.5,-118 1507.5,-118"/>
<text text-anchor="middle" x="1571" y="-125" font-family="Helvetica,sans-Serif" font-size="10.00">uscxml/messages/Blob.h</text>
</a>
</g>
</g>
<!-- Node19&#45;&gt;Node23 -->
<g id="edge34" class="edge"><title>Node19&#45;&gt;Node23</title>
<path fill="none" stroke="midnightblue" d="M1661.84,-184.734C1644.29,-173.867 1614.16,-155.216 1593.44,-142.393"/>
<polygon fill="midnightblue" stroke="midnightblue" points="1595.28,-139.415 1584.94,-137.127 1591.6,-145.367 1595.28,-139.415"/>
</g>
<!-- Node20&#45;&gt;Node7 -->
<g id="edge30" class="edge"><title>Node20&#45;&gt;Node7</title>
<path fill="none" stroke="midnightblue" d="M1695.7,-117.972C1678.64,-115.82 1660.13,-113.653 1643,-112 1406.6,-89.1777 1122.17,-74.1818 1015.84,-69.0085"/>
<polygon fill="midnightblue" stroke="midnightblue" points="1015.98,-65.5111 1005.82,-68.5244 1015.64,-72.5029 1015.98,-65.5111"/>
</g>
<!-- Node20&#45;&gt;Node10 -->
<g id="edge31" class="edge"><title>Node20&#45;&gt;Node10</title>
<path fill="none" stroke="midnightblue" d="M1802.47,-117.964C1814.32,-115.848 1827.12,-113.702 1839,-112 1982.68,-91.4125 2155.44,-75.6024 2224.87,-69.6122"/>
<polygon fill="midnightblue" stroke="midnightblue" points="2225.44,-73.0761 2235.11,-68.7358 2224.85,-66.1016 2225.44,-73.0761"/>
</g>
<!-- Node21 -->
<g id="node21" class="node"><title>Node21</title>
<polygon fill="white" stroke="#bfbfbf" points="1698.5,-56.5 1698.5,-75.5 1737.5,-75.5 1737.5,-56.5 1698.5,-56.5"/>
<text text-anchor="middle" x="1718" y="-63.5" font-family="Helvetica,sans-Serif" font-size="10.00">limits</text>
</g>
<!-- Node20&#45;&gt;Node21 -->
<g id="edge32" class="edge"><title>Node20&#45;&gt;Node21</title>
<path fill="none" stroke="midnightblue" d="M1752.27,-117.975C1746.33,-109.138 1736.88,-95.0886 1729.41,-83.975"/>
<polygon fill="midnightblue" stroke="midnightblue" points="1732.2,-81.8554 1723.72,-75.5091 1726.39,-85.7608 1732.2,-81.8554"/>
</g>
<!-- Node22 -->
<g id="node22" class="node"><title>Node22</title>
<polygon fill="white" stroke="#bfbfbf" points="1771,-56.5 1771,-75.5 1823,-75.5 1823,-56.5 1771,-56.5"/>
<text text-anchor="middle" x="1797" y="-63.5" font-family="Helvetica,sans-Serif" font-size="10.00">sstream</text>
</g>
<!-- Node20&#45;&gt;Node22 -->
<g id="edge33" class="edge"><title>Node20&#45;&gt;Node22</title>
<path fill="none" stroke="midnightblue" d="M1763.59,-117.975C1769.38,-109.138 1778.59,-95.0886 1785.87,-83.975"/>
<polygon fill="midnightblue" stroke="midnightblue" points="1788.87,-85.7913 1791.42,-75.5091 1783.01,-81.9539 1788.87,-85.7913"/>
</g>
<!-- Node23&#45;&gt;Node7 -->
<g id="edge37" class="edge"><title>Node23&#45;&gt;Node7</title>
<path fill="none" stroke="midnightblue" d="M1507.22,-118.164C1490.26,-116.047 1471.95,-113.85 1455,-112 1293.15,-94.334 1100.26,-77.637 1015.97,-70.5579"/>
<polygon fill="midnightblue" stroke="midnightblue" points="1016.02,-67.0499 1005.76,-69.7031 1015.44,-74.0255 1016.02,-67.0499"/>
</g>
<!-- Node23&#45;&gt;Node10 -->
<g id="edge35" class="edge"><title>Node23&#45;&gt;Node10</title>
<path fill="none" stroke="midnightblue" d="M1631.71,-117.993C1648.02,-115.865 1665.67,-113.706 1682,-112 1889.13,-90.367 2139.29,-74.1409 2225.26,-68.849"/>
<polygon fill="midnightblue" stroke="midnightblue" points="2225.61,-72.3345 2235.37,-68.2304 2225.18,-65.3475 2225.61,-72.3345"/>
</g>
<!-- Node23&#45;&gt;Node13 -->
<g id="edge36" class="edge"><title>Node23&#45;&gt;Node13</title>
<path fill="none" stroke="midnightblue" d="M1525.23,-117.935C1514.65,-115.971 1503.43,-113.901 1493,-112 1416.63,-98.0821 1327.15,-82.2057 1278.01,-73.5239"/>
<polygon fill="midnightblue" stroke="midnightblue" points="1278.32,-70.025 1267.86,-71.7327 1277.1,-76.9183 1278.32,-70.025"/>
</g>
<!-- Node24&#45;&gt;Node7 -->
<g id="edge39" class="edge"><title>Node24&#45;&gt;Node7</title>
<path fill="none" stroke="midnightblue" d="M1881.26,-118.209C1865.83,-115.888 1848.74,-113.573 1833,-112 1671.74,-95.8872 1166.84,-74.7921 1015.98,-68.7091"/>
<polygon fill="midnightblue" stroke="midnightblue" points="1015.87,-65.202 1005.74,-68.2973 1015.59,-72.1964 1015.87,-65.202"/>
</g>
<!-- Node24&#45;&gt;Node10 -->
<g id="edge40" class="edge"><title>Node24&#45;&gt;Node10</title>
<path fill="none" stroke="midnightblue" d="M1967.15,-117.965C1976.22,-115.918 1985.95,-113.804 1995,-112 2077.97,-95.4597 2176.5,-79.4491 2225.37,-71.7515"/>
<polygon fill="midnightblue" stroke="midnightblue" points="2225.96,-75.2017 2235.29,-70.1944 2224.87,-68.2862 2225.96,-75.2017"/>
</g>
<!-- Node25&#45;&gt;Node7 -->
<g id="edge45" class="edge"><title>Node25&#45;&gt;Node7</title>
<path fill="none" stroke="midnightblue" d="M988.579,-251.958C907.885,-234.378 734.562,-191.688 701,-143 693.18,-131.656 692.088,-122.507 701,-112 729.859,-77.974 860.937,-69.6412 930.048,-67.6251"/>
<polygon fill="midnightblue" stroke="midnightblue" points="930.274,-71.1205 940.18,-67.3619 930.092,-64.1228 930.274,-71.1205"/>
</g>
<!-- Node25&#45;&gt;Node10 -->
<g id="edge53" class="edge"><title>Node25&#45;&gt;Node10</title>
<path fill="none" stroke="midnightblue" d="M1093.59,-255.232C1129.76,-252.32 1175.9,-248.747 1217,-246 1359.35,-236.485 1725,-261.618 1858,-210 1878.32,-202.114 1876.37,-188.472 1896,-179 1963.6,-146.382 1993.4,-175.618 2061,-143 2080.63,-133.528 2079.68,-122.098 2099,-112 2140.15,-90.4853 2192.91,-78.0811 2225.58,-71.936"/>
<polygon fill="midnightblue" stroke="midnightblue" points="2226.22,-75.377 2235.44,-70.1572 2224.97,-68.4882 2226.22,-75.377"/>
</g>
<!-- Node25&#45;&gt;Node13 -->
<g id="edge54" class="edge"><title>Node25&#45;&gt;Node13</title>
<path fill="none" stroke="midnightblue" d="M1040.08,-251.831C1056.6,-236.557 1086.06,-204.093 1070,-179 1049.42,-146.839 1012.58,-175.161 992,-143 984.574,-131.394 983.166,-122.573 992,-112 1018.56,-80.2113 1141.12,-70.8374 1203.82,-68.1049"/>
<polygon fill="midnightblue" stroke="midnightblue" points="1204.22,-71.5918 1214.07,-67.6943 1203.94,-64.5974 1204.22,-71.5918"/>
</g>
<!-- Node25&#45;&gt;Node21 -->
<g id="edge56" class="edge"><title>Node25&#45;&gt;Node21</title>
<path fill="none" stroke="midnightblue" d="M1093.6,-255.412C1129.77,-252.558 1175.92,-248.983 1217,-246 1276.09,-241.71 1708.55,-253.285 1749,-210 1793.52,-162.369 1689.75,-155.967 1682,-143 1670.13,-123.152 1686.73,-98.7714 1701.11,-83.0646"/>
<polygon fill="midnightblue" stroke="midnightblue" points="1703.8,-85.3189 1708.27,-75.7116 1698.79,-80.4365 1703.8,-85.3189"/>
</g>
<!-- Node26 -->
<g id="node26" class="node"><title>Node26</title>
<g id="a_node26"><a xlink:href="_data_model_impl_8h.html" target="_top" xlink:title="uscxml/plugins/DataModel\lImpl.h">
<polygon fill="white" stroke="red" points="928.5,-179.5 928.5,-209.5 1061.5,-209.5 1061.5,-179.5 928.5,-179.5"/>
<text text-anchor="start" x="936.5" y="-197.5" font-family="Helvetica,sans-Serif" font-size="10.00">uscxml/plugins/DataModel</text>
<text text-anchor="middle" x="995" y="-186.5" font-family="Helvetica,sans-Serif" font-size="10.00">Impl.h</text>
</a>
</g>
</g>
<!-- Node25&#45;&gt;Node26 -->
<g id="edge46" class="edge"><title>Node25&#45;&gt;Node26</title>
<path fill="none" stroke="midnightblue" d="M1025.28,-251.734C1020.73,-243.287 1013.65,-230.138 1007.48,-218.678"/>
<polygon fill="midnightblue" stroke="midnightblue" points="1010.41,-216.734 1002.59,-209.589 1004.25,-220.053 1010.41,-216.734"/>
</g>
<!-- Node28 -->
<g id="node28" class="node"><title>Node28</title>
<polygon fill="white" stroke="#bfbfbf" points="624,-118 624,-137 654,-137 654,-118 624,-118"/>
<text text-anchor="middle" x="639" y="-125" font-family="Helvetica,sans-Serif" font-size="10.00">set</text>
</g>
<!-- Node25&#45;&gt;Node28 -->
<g id="edge55" class="edge"><title>Node25&#45;&gt;Node28</title>
<path fill="none" stroke="midnightblue" d="M985.07,-251.988C974.248,-249.982 962.717,-247.881 952,-246 855.277,-229.025 822.999,-251.504 734,-210 700.546,-194.399 669.662,-163.62 652.666,-144.673"/>
<polygon fill="midnightblue" stroke="midnightblue" points="655.286,-142.352 646.07,-137.126 650.016,-146.959 655.286,-142.352"/>
</g>
<!-- Node26&#45;&gt;Node7 -->
<g id="edge48" class="edge"><title>Node26&#45;&gt;Node7</title>
<path fill="none" stroke="midnightblue" d="M961.146,-179.444C945.964,-171.226 929.572,-159.228 921,-143 914.565,-130.817 915.272,-124.531 921,-112 926.777,-99.3602 938.052,-88.911 948.631,-81.2737"/>
<polygon fill="midnightblue" stroke="midnightblue" points="950.849,-84.0009 957.217,-75.5333 946.958,-78.1817 950.849,-84.0009"/>
</g>
<!-- Node26&#45;&gt;Node10 -->
<g id="edge51" class="edge"><title>Node26&#45;&gt;Node10</title>
<path fill="none" stroke="midnightblue" d="M1061.54,-186.532C1088.1,-183.913 1118.98,-181.071 1147,-179 1299.24,-167.749 1690.24,-197.064 1833,-143 1853.71,-135.158 1851.56,-120.503 1872,-112 1935.78,-85.4744 2145.22,-72.5136 2224.87,-68.4517"/>
<polygon fill="midnightblue" stroke="midnightblue" points="2225.41,-71.9295 2235.22,-67.9371 2225.06,-64.9381 2225.41,-71.9295"/>
</g>
<!-- Node26&#45;&gt;Node13 -->
<g id="edge52" class="edge"><title>Node26&#45;&gt;Node13</title>
<path fill="none" stroke="midnightblue" d="M980.338,-179.472C963.919,-162.073 941.733,-132.241 959,-112 990.077,-75.5709 1134.81,-68.4964 1203.99,-67.2182"/>
<polygon fill="midnightblue" stroke="midnightblue" points="1204.47,-70.7114 1214.41,-67.0593 1204.36,-63.7122 1204.47,-70.7114"/>
</g>
<!-- Node26&#45;&gt;Node14 -->
<g id="edge50" class="edge"><title>Node26&#45;&gt;Node14</title>
<path fill="none" stroke="midnightblue" d="M1057.35,-179.476C1120.51,-165.271 1215.02,-144.015 1259.36,-134.041"/>
<polygon fill="midnightblue" stroke="midnightblue" points="1260.28,-137.424 1269.26,-131.814 1258.74,-130.594 1260.28,-137.424"/>
</g>
<!-- Node26&#45;&gt;Node15 -->
<g id="edge47" class="edge"><title>Node26&#45;&gt;Node15</title>
<path fill="none" stroke="midnightblue" d="M958.33,-179.396C928.283,-167.84 886.206,-151.656 857.624,-140.663"/>
<polygon fill="midnightblue" stroke="midnightblue" points="858.708,-137.33 848.118,-137.007 856.195,-143.864 858.708,-137.33"/>
</g>
<!-- Node27 -->
<g id="node27" class="node"><title>Node27</title>
<polygon fill="white" stroke="#bfbfbf" points="166.5,-118 166.5,-137 285.5,-137 285.5,-118 166.5,-118"/>
<text text-anchor="middle" x="226" y="-125" font-family="Helvetica,sans-Serif" font-size="10.00">xercesc/dom/DOM.hpp</text>
</g>
<!-- Node26&#45;&gt;Node27 -->
<g id="edge49" class="edge"><title>Node26&#45;&gt;Node27</title>
<path fill="none" stroke="midnightblue" d="M928.436,-187.874C784.039,-175.668 443.191,-146.858 295.858,-134.405"/>
<polygon fill="midnightblue" stroke="midnightblue" points="295.849,-130.892 285.59,-133.537 295.26,-137.867 295.849,-130.892"/>
</g>
<!-- Node29&#45;&gt;Node7 -->
<g id="edge59" class="edge"><title>Node29&#45;&gt;Node7</title>
<path fill="none" stroke="midnightblue" d="M1277.67,-246.418C1277.78,-228.964 1275.57,-199.074 1261,-179 1203.4,-99.6168 1081.19,-76.4955 1016.02,-69.7634"/>
<polygon fill="midnightblue" stroke="midnightblue" points="1015.98,-66.2435 1005.69,-68.7846 1015.32,-73.2123 1015.98,-66.2435"/>
</g>
<!-- Node29&#45;&gt;Node10 -->
<g id="edge61" class="edge"><title>Node29&#45;&gt;Node10</title>
<path fill="none" stroke="midnightblue" d="M1328.01,-256.217C1362.69,-253.312 1409.61,-249.399 1451,-246 1648.76,-229.761 1702.98,-256.01 1896,-210 1931.49,-201.541 1937.51,-190.882 1972,-179 2027.47,-159.891 2044.17,-163.861 2099,-143 2147.27,-124.637 2200.9,-97.0112 2231.33,-80.6138"/>
<polygon fill="midnightblue" stroke="midnightblue" points="2233.24,-83.559 2240.36,-75.7105 2229.9,-77.4077 2233.24,-83.559"/>
</g>
<!-- Node29&#45;&gt;Node15 -->
<g id="edge58" class="edge"><title>Node29&#45;&gt;Node15</title>
<path fill="none" stroke="midnightblue" d="M1225.99,-256.908C1140.56,-250.298 972.634,-234.589 919,-210 901.619,-202.032 863.401,-165.695 841.757,-144.325"/>
<polygon fill="midnightblue" stroke="midnightblue" points="844.161,-141.779 834.602,-137.209 839.224,-146.742 844.161,-141.779"/>
</g>
<!-- Node29&#45;&gt;Node19 -->
<g id="edge60" class="edge"><title>Node29&#45;&gt;Node19</title>
<path fill="none" stroke="midnightblue" d="M1328.35,-252.135C1401.26,-240.257 1534.68,-218.522 1613.33,-205.709"/>
<polygon fill="midnightblue" stroke="midnightblue" points="1614.28,-209.101 1623.58,-204.039 1613.15,-202.192 1614.28,-209.101"/>
</g>
<!-- Node30&#45;&gt;Node7 -->
<g id="edge63" class="edge"><title>Node30&#45;&gt;Node7</title>
<path fill="none" stroke="midnightblue" d="M782.656,-326.066C673.248,-322.273 409.834,-309.911 328,-277 230.015,-237.594 84.4066,-188.707 157,-112 183.78,-83.7027 765.467,-70.8339 929.996,-67.7517"/>
<polygon fill="midnightblue" stroke="midnightblue" points="930.286,-71.247 940.219,-67.5628 930.156,-64.2482 930.286,-71.247"/>
</g>
<!-- Node30&#45;&gt;Node18 -->
<g id="edge64" class="edge"><title>Node30&#45;&gt;Node18</title>
<path fill="none" stroke="midnightblue" d="M879.281,-325.608C1042.66,-319.086 1574,-296.842 1744,-277 1753.48,-275.894 1763.52,-274.378 1773.2,-272.741"/>
<polygon fill="midnightblue" stroke="midnightblue" points="1773.86,-276.178 1783.1,-271.003 1772.65,-269.284 1773.86,-276.178"/>
</g>
<!-- Node31&#45;&gt;Node5 -->
<g id="edge70" class="edge"><title>Node31&#45;&gt;Node5</title>
<path fill="none" stroke="midnightblue" d="M1300.31,-515.656C1492.46,-507.854 2202.29,-474.48 2413,-400 2508.9,-366.101 2559.41,-367.42 2606,-277 2629.37,-231.644 2590.95,-173.419 2568.47,-145.25"/>
<polygon fill="midnightblue" stroke="midnightblue" points="2570.9,-142.693 2561.83,-137.214 2565.51,-147.152 2570.9,-142.693"/>
</g>
<!-- Node31&#45;&gt;Node7 -->
<g id="edge72" class="edge"><title>Node31&#45;&gt;Node7</title>
<path fill="none" stroke="midnightblue" d="M1203.97,-517.797C1048.77,-518.26 562.251,-515.694 414,-467 246.556,-412.002 150.863,-381.907 112,-210 102.383,-167.461 76.9723,-143.629 107,-112 135.619,-81.8554 759.517,-70.2293 930.182,-67.6065"/>
<polygon fill="midnightblue" stroke="midnightblue" points="930.35,-71.1045 940.296,-67.4535 930.244,-64.1053 930.35,-71.1045"/>
</g>
<!-- Node31&#45;&gt;Node10 -->
<g id="edge71" class="edge"><title>Node31&#45;&gt;Node10</title>
<path fill="none" stroke="midnightblue" d="M1300.45,-517.602C1436.49,-517.288 1833.3,-512.243 2159,-467 2293.89,-448.262 2328.76,-442.944 2458,-400 2515.77,-380.803 2539.69,-386.783 2583,-344 2657.54,-270.356 2704.61,-180.138 2625,-112 2574.54,-68.8138 2366.7,-65.982 2287.16,-66.5312"/>
<polygon fill="midnightblue" stroke="midnightblue" points="2286.78,-63.0345 2276.82,-66.6273 2286.85,-70.0342 2286.78,-63.0345"/>
</g>
<!-- Node31&#45;&gt;Node13 -->
<g id="edge67" class="edge"><title>Node31&#45;&gt;Node13</title>
<path fill="none" stroke="midnightblue" d="M1288.94,-503.432C1331.01,-484.714 1394,-447.293 1394,-391 1394,-391 1394,-391 1394,-260.5 1394,-181.291 1301.26,-210.612 1260,-143 1249.28,-125.437 1244.6,-102.091 1242.56,-85.9306"/>
<polygon fill="midnightblue" stroke="midnightblue" points="1246,-85.2054 1241.49,-75.6184 1239.04,-85.9253 1246,-85.2054"/>
</g>
<!-- Node31&#45;&gt;Node14 -->
<g id="edge69" class="edge"><title>Node31&#45;&gt;Node14</title>
<path fill="none" stroke="midnightblue" d="M1300.31,-513.442C1334.64,-508.086 1379.52,-495.686 1408,-467 1432.96,-441.863 1432,-426.422 1432,-391 1432,-391 1432,-391 1432,-260.5 1432,-222.74 1434.11,-206.28 1408,-179 1373.89,-143.359 1346.5,-166.265 1303,-143 1302.81,-142.897 1302.62,-142.793 1302.42,-142.686"/>
<polygon fill="midnightblue" stroke="midnightblue" points="1304.31,-139.737 1294.04,-137.115 1300.43,-145.566 1304.31,-139.737"/>
</g>
<!-- Node31&#45;&gt;Node25 -->
<g id="edge81" class="edge"><title>Node31&#45;&gt;Node25</title>
<path fill="none" stroke="midnightblue" d="M1203.78,-517.891C1101.38,-515.713 864.233,-493.969 774,-344 766.897,-332.194 765.251,-323.643 774,-313 796.744,-285.331 889.069,-272.575 956.336,-266.867"/>
<polygon fill="midnightblue" stroke="midnightblue" points="956.801,-270.341 966.484,-266.042 956.234,-263.364 956.801,-270.341"/>
</g>
<!-- Node31&#45;&gt;Node26 -->
<g id="edge82" class="edge"><title>Node31&#45;&gt;Node26</title>
<path fill="none" stroke="midnightblue" d="M1203.8,-515.242C1113.61,-510.362 923.208,-496.785 865,-467 802.28,-434.907 785.277,-411.473 765,-344 742.58,-269.398 843.134,-229.453 918.395,-210.366"/>
<polygon fill="midnightblue" stroke="midnightblue" points="919.488,-213.702 928.366,-207.92 917.82,-206.903 919.488,-213.702"/>
</g>
<!-- Node31&#45;&gt;Node27 -->
<g id="edge114" class="edge"><title>Node31&#45;&gt;Node27</title>
<path fill="none" stroke="midnightblue" d="M1203.84,-517.386C1059.22,-516.554 630.672,-510.395 499,-467 369.79,-424.416 324.507,-396.237 259,-277 243.541,-248.862 239.265,-241.272 232,-210 227.096,-188.891 225.908,-163.956 225.747,-147.277"/>
<polygon fill="midnightblue" stroke="midnightblue" points="229.247,-147.204 225.767,-137.197 222.247,-147.19 229.247,-147.204"/>
</g>
<!-- Node31&#45;&gt;Node30 -->
<g id="edge105" class="edge"><title>Node31&#45;&gt;Node30</title>
<path fill="none" stroke="midnightblue" d="M1203.83,-504.207C1139.55,-485.507 1023.13,-448.255 931,-400 903.954,-385.834 875.756,-365.352 856.224,-350.111"/>
<polygon fill="midnightblue" stroke="midnightblue" points="858.169,-347.187 848.155,-343.727 853.826,-352.676 858.169,-347.187"/>
</g>
<!-- Node32 -->
<g id="node32" class="node"><title>Node32</title>
<polygon fill="white" stroke="#bfbfbf" points="2520,-252 2520,-271 2564,-271 2564,-252 2520,-252"/>
<text text-anchor="middle" x="2542" y="-259" font-family="Helvetica,sans-Serif" font-size="10.00">mutex</text>
</g>
<!-- Node31&#45;&gt;Node32 -->
<g id="edge68" class="edge"><title>Node31&#45;&gt;Node32</title>
<path fill="none" stroke="midnightblue" d="M1300.01,-513.235C1385.45,-505.451 1569.43,-487.811 1724,-467 2061.81,-421.519 2189.47,-520.612 2481,-344 2505.99,-328.863 2524.14,-299.296 2533.86,-280.244"/>
<polygon fill="midnightblue" stroke="midnightblue" points="2537.07,-281.66 2538.28,-271.135 2530.77,-278.605 2537.07,-281.66"/>
</g>
<!-- Node33 -->
<g id="node33" class="node"><title>Node33</title>
<g id="a_node33"><a xlink:href="_u_r_l_8h.html" target="_top" xlink:title="uscxml/util/URL.h">
<polygon fill="white" stroke="red" points="1813,-319 1813,-338 1907,-338 1907,-319 1813,-319"/>
<text text-anchor="middle" x="1860" y="-326" font-family="Helvetica,sans-Serif" font-size="10.00">uscxml/util/URL.h</text>
</a>
</g>
</g>
<!-- Node31&#45;&gt;Node33 -->
<g id="edge73" class="edge"><title>Node31&#45;&gt;Node33</title>
<path fill="none" stroke="midnightblue" d="M1300.08,-505.922C1339.49,-496.209 1396.61,-481.613 1446,-467 1588.59,-424.812 1755.99,-366.455 1826.26,-341.547"/>
<polygon fill="midnightblue" stroke="midnightblue" points="1827.66,-344.766 1835.91,-338.121 1825.32,-338.169 1827.66,-344.766"/>
</g>
<!-- Node34 -->
<g id="node34" class="node"><title>Node34</title>
<g id="a_node34"><a xlink:href="_micro_step_impl_8h.html" target="_top" xlink:title="uscxml/interpreter\l/MicroStepImpl.h">
<polygon fill="white" stroke="black" points="1132,-436.5 1132,-466.5 1228,-466.5 1228,-436.5 1132,-436.5"/>
<text text-anchor="start" x="1140" y="-454.5" font-family="Helvetica,sans-Serif" font-size="10.00">uscxml/interpreter</text>
<text text-anchor="middle" x="1180" y="-443.5" font-family="Helvetica,sans-Serif" font-size="10.00">/MicroStepImpl.h</text>
</a>
</g>
</g>
<!-- Node31&#45;&gt;Node34 -->
<g id="edge83" class="edge"><title>Node31&#45;&gt;Node34</title>
<path fill="none" stroke="midnightblue" d="M1236.38,-503.396C1226.66,-494.623 1213.99,-483.183 1203.12,-473.371"/>
<polygon fill="midnightblue" stroke="midnightblue" points="1205.36,-470.68 1195.59,-466.577 1200.67,-475.876 1205.36,-470.68"/>
</g>
<!-- Node35 -->
<g id="node35" class="node"><title>Node35</title>
<g id="a_node35"><a xlink:href="_content_executor_impl_8h.html" target="_top" xlink:title="uscxml/interpreter\l/ContentExecutorImpl.h">
<polygon fill="white" stroke="red" points="370.5,-313.5 370.5,-343.5 491.5,-343.5 491.5,-313.5 370.5,-313.5"/>
<text text-anchor="start" x="378.5" y="-331.5" font-family="Helvetica,sans-Serif" font-size="10.00">uscxml/interpreter</text>
<text text-anchor="middle" x="431" y="-320.5" font-family="Helvetica,sans-Serif" font-size="10.00">/ContentExecutorImpl.h</text>
</a>
</g>
</g>
<!-- Node31&#45;&gt;Node35 -->
<g id="edge92" class="edge"><title>Node31&#45;&gt;Node35</title>
<path fill="none" stroke="midnightblue" d="M1203.98,-516.262C1054.24,-512.099 602.327,-497.148 544,-467 494.995,-441.671 459.384,-384.797 442.318,-352.695"/>
<polygon fill="midnightblue" stroke="midnightblue" points="445.317,-350.874 437.623,-343.59 439.095,-354.082 445.317,-350.874"/>
</g>
<!-- Node31&#45;&gt;Node36 -->
<g id="edge113" class="edge"><title>Node31&#45;&gt;Node36</title>
<path fill="none" stroke="midnightblue" d="M1203.75,-513.827C1046.37,-501.207 558,-456.752 558,-391 558,-391 558,-391 558,-327.5 558,-285.264 539.409,-238.426 527.899,-213.475"/>
<polygon fill="midnightblue" stroke="midnightblue" points="530.938,-211.718 523.474,-204.199 524.62,-214.731 530.938,-211.718"/>
</g>
<!-- Node38 -->
<g id="node38" class="node"><title>Node38</title>
<g id="a_node38"><a xlink:href="_event_queue_impl_8h.html" target="_top" xlink:title="uscxml/interpreter\l/EventQueueImpl.h">
<polygon fill="white" stroke="red" points="2370,-313.5 2370,-343.5 2472,-343.5 2472,-313.5 2370,-313.5"/>
<text text-anchor="start" x="2378" y="-331.5" font-family="Helvetica,sans-Serif" font-size="10.00">uscxml/interpreter</text>
<text text-anchor="middle" x="2421" y="-320.5" font-family="Helvetica,sans-Serif" font-size="10.00">/EventQueueImpl.h</text>
</a>
</g>
</g>
<!-- Node31&#45;&gt;Node38 -->
<g id="edge106" class="edge"><title>Node31&#45;&gt;Node38</title>
<path fill="none" stroke="midnightblue" d="M1300.07,-511.059C1454.17,-490.175 1949.52,-421.198 2356,-344 2357.28,-343.757 2358.57,-343.508 2359.87,-343.253"/>
<polygon fill="midnightblue" stroke="midnightblue" points="2360.86,-346.623 2369.97,-341.206 2359.47,-339.762 2360.86,-346.623"/>
</g>
<!-- Node33&#45;&gt;Node5 -->
<g id="edge78" class="edge"><title>Node33&#45;&gt;Node5</title>
<path fill="none" stroke="midnightblue" d="M1891.29,-318.94C1899.32,-316.871 1907.95,-314.753 1916,-313 2043.9,-285.128 2385.37,-279.981 2496,-210 2520.15,-194.725 2537.21,-165.42 2546.33,-146.428"/>
<polygon fill="midnightblue" stroke="midnightblue" points="2549.62,-147.646 2550.56,-137.093 2543.24,-144.752 2549.62,-147.646"/>
</g>
<!-- Node33&#45;&gt;Node7 -->
<g id="edge74" class="edge"><title>Node33&#45;&gt;Node7</title>
<path fill="none" stroke="midnightblue" d="M1812.78,-326.471C1599.82,-321.708 733.875,-301.017 615,-277 531.736,-260.178 486.972,-277.954 436,-210 409.831,-175.112 401.465,-144.089 431,-112 464.591,-75.5049 808.194,-68.6031 930.26,-67.3014"/>
<polygon fill="midnightblue" stroke="midnightblue" points="930.391,-70.8004 940.356,-67.2013 930.322,-63.8007 930.391,-70.8004"/>
</g>
<!-- Node33&#45;&gt;Node10 -->
<g id="edge76" class="edge"><title>Node33&#45;&gt;Node10</title>
<path fill="none" stroke="midnightblue" d="M1891.18,-318.987C1976.37,-295.565 2208.65,-230.544 2238,-210 2268.66,-188.538 2277.04,-178.46 2289,-143 2293.4,-129.945 2293.29,-125.094 2289,-112 2285.51,-101.34 2278.43,-91.1174 2271.71,-83.1175"/>
<polygon fill="midnightblue" stroke="midnightblue" points="2274.3,-80.7633 2265.02,-75.66 2269.1,-85.4395 2274.3,-80.7633"/>
</g>
<!-- Node33&#45;&gt;Node14 -->
<g id="edge80" class="edge"><title>Node33&#45;&gt;Node14</title>
<path fill="none" stroke="midnightblue" d="M1824.54,-318.955C1816.17,-316.97 1807.28,-314.887 1799,-313 1725.82,-296.32 1702.54,-307.587 1634,-277 1612.49,-267.399 1610.71,-258.91 1591,-246 1584.89,-242.001 1484.81,-181.633 1478,-179 1403.94,-150.356 1375.26,-175.913 1303,-143 1302.69,-142.858 1302.38,-142.71 1302.07,-142.557"/>
<polygon fill="midnightblue" stroke="midnightblue" points="1303.82,-139.526 1293.51,-137.082 1300.05,-145.422 1303.82,-139.526"/>
</g>
<!-- Node33&#45;&gt;Node18 -->
<g id="edge75" class="edge"><title>Node33&#45;&gt;Node18</title>
<path fill="none" stroke="midnightblue" d="M1855.28,-318.734C1849.98,-308.89 1841.24,-292.66 1834.51,-280.159"/>
<polygon fill="midnightblue" stroke="midnightblue" points="1837.47,-278.273 1829.65,-271.127 1831.3,-281.591 1837.47,-278.273"/>
</g>
<!-- Node33&#45;&gt;Node22 -->
<g id="edge77" class="edge"><title>Node33&#45;&gt;Node22</title>
<path fill="none" stroke="midnightblue" d="M1872.45,-318.975C1914.83,-288.958 2047.64,-185.978 1989,-112 1969.94,-87.9543 1883.44,-75.5196 1833.28,-70.225"/>
<polygon fill="midnightblue" stroke="midnightblue" points="1833.47,-66.7263 1823.17,-69.202 1832.77,-73.6908 1833.47,-66.7263"/>
</g>
<!-- Node33&#45;&gt;Node28 -->
<g id="edge79" class="edge"><title>Node33&#45;&gt;Node28</title>
<path fill="none" stroke="midnightblue" d="M1812.75,-326.075C1651.62,-321.025 1124.49,-302.885 957,-277 902.137,-268.521 889.881,-259.367 836,-246 769.457,-229.492 740.925,-251.033 686,-210 664.68,-194.073 651.46,-165.407 644.666,-146.668"/>
<polygon fill="midnightblue" stroke="midnightblue" points="647.981,-145.545 641.468,-137.189 641.348,-147.783 647.981,-145.545"/>
</g>
<!-- Node34&#45;&gt;Node6 -->
<g id="edge90" class="edge"><title>Node34&#45;&gt;Node6</title>
<path fill="none" stroke="midnightblue" d="M1180,-436.399C1180,-428.466 1180,-418.458 1180,-409.858"/>
<polygon fill="midnightblue" stroke="midnightblue" points="1183.5,-409.658 1180,-399.658 1176.5,-409.658 1183.5,-409.658"/>
</g>
<!-- Node34&#45;&gt;Node7 -->
<g id="edge89" class="edge"><title>Node34&#45;&gt;Node7</title>
<path fill="none" stroke="midnightblue" d="M1131.6,-450.96C1017.27,-451.191 721.971,-446.78 481,-400 401.249,-384.518 382.216,-374.699 307,-344 245.352,-318.839 224.07,-319.725 173,-277 144.502,-253.158 136.781,-244.505 123,-210 111.877,-182.15 116.781,-172.936 115,-143 114.182,-129.247 105.516,-121.994 115,-112 143.332,-82.1428 760.802,-70.3168 930.295,-67.6263"/>
<polygon fill="midnightblue" stroke="midnightblue" points="930.399,-71.1252 940.343,-67.4692 930.289,-64.126 930.399,-71.1252"/>
</g>
<!-- Node34&#45;&gt;Node10 -->
<g id="edge87" class="edge"><title>Node34&#45;&gt;Node10</title>
<path fill="none" stroke="midnightblue" d="M1228.04,-447.844C1390.51,-438.392 1918.02,-403.715 2076,-344 2174.02,-306.949 2200.6,-288.515 2270,-210 2300.63,-175.347 2323.6,-154.343 2305,-112 2299.61,-99.732 2289.04,-89.3414 2279.1,-81.6461"/>
<polygon fill="midnightblue" stroke="midnightblue" points="2280.83,-78.5811 2270.66,-75.598 2276.75,-84.2697 2280.83,-78.5811"/>
</g>
<!-- Node34&#45;&gt;Node14 -->
<g id="edge85" class="edge"><title>Node34&#45;&gt;Node14</title>
<path fill="none" stroke="midnightblue" d="M1200.92,-436.403C1237.57,-410.204 1311.89,-349.985 1337,-277 1353.48,-229.093 1318.43,-172.839 1297.74,-145.347"/>
<polygon fill="midnightblue" stroke="midnightblue" points="1300.28,-142.912 1291.38,-137.179 1294.76,-147.217 1300.28,-142.912"/>
</g>
<!-- Node34&#45;&gt;Node15 -->
<g id="edge84" class="edge"><title>Node34&#45;&gt;Node15</title>
<path fill="none" stroke="midnightblue" d="M1156.73,-436.318C1102.56,-402.456 965.864,-312.063 877,-210 859.592,-190.006 844.153,-163.45 834.941,-146.171"/>
<polygon fill="midnightblue" stroke="midnightblue" points="837.989,-144.445 830.269,-137.189 831.779,-147.676 837.989,-144.445"/>
</g>
<!-- Node34&#45;&gt;Node18 -->
<g id="edge91" class="edge"><title>Node34&#45;&gt;Node18</title>
<path fill="none" stroke="midnightblue" d="M1228.22,-436.446C1351.02,-400.653 1673.78,-306.578 1785.93,-273.888"/>
<polygon fill="midnightblue" stroke="midnightblue" points="1787.18,-277.168 1795.81,-271.009 1785.23,-270.448 1787.18,-277.168"/>
</g>
<!-- Node34&#45;&gt;Node27 -->
<g id="edge88" class="edge"><title>Node34&#45;&gt;Node27</title>
<path fill="none" stroke="midnightblue" d="M1131.73,-448.161C977.599,-440.085 499.225,-410.159 361,-344 290.21,-310.118 277.717,-281.786 246,-210 237.006,-189.644 231.625,-164.564 228.747,-147.644"/>
<polygon fill="midnightblue" stroke="midnightblue" points="232.146,-146.731 227.141,-137.393 225.231,-147.814 232.146,-146.731"/>
</g>
<!-- Node34&#45;&gt;Node28 -->
<g id="edge86" class="edge"><title>Node34&#45;&gt;Node28</title>
<path fill="none" stroke="midnightblue" d="M1131.83,-443.519C1006.09,-424.169 673.662,-365.377 615,-277 587.998,-236.321 613.235,-175.857 628.812,-146.202"/>
<polygon fill="midnightblue" stroke="midnightblue" points="632.075,-147.53 633.818,-137.08 625.939,-144.163 632.075,-147.53"/>
</g>
<!-- Node35&#45;&gt;Node7 -->
<g id="edge93" class="edge"><title>Node35&#45;&gt;Node7</title>
<path fill="none" stroke="midnightblue" d="M370.385,-322.54C301.595,-313.25 192.651,-286.573 144,-210 120.544,-173.082 104.913,-143.746 135,-112 162.582,-82.8972 762.54,-70.5688 929.96,-67.6876"/>
<polygon fill="midnightblue" stroke="midnightblue" points="930.412,-71.1805 940.352,-67.5114 930.294,-64.1815 930.412,-71.1805"/>
</g>
<!-- Node35&#45;&gt;Node10 -->
<g id="edge104" class="edge"><title>Node35&#45;&gt;Node10</title>
<path fill="none" stroke="midnightblue" d="M491.742,-324.917C728.515,-314.839 1577.22,-278.642 1591,-277 1662.06,-268.531 1678.31,-257.118 1749,-246 1882.97,-224.93 1920.97,-244.969 2052,-210 2125.3,-190.437 2151.47,-192.461 2209,-143 2227.51,-127.086 2241.02,-102.024 2248.69,-85.0714"/>
<polygon fill="midnightblue" stroke="midnightblue" points="2251.97,-86.2881 2252.7,-75.718 2245.54,-83.5301 2251.97,-86.2881"/>
</g>
<!-- Node35&#45;&gt;Node18 -->
<g id="edge102" class="edge"><title>Node35&#45;&gt;Node18</title>
<path fill="none" stroke="midnightblue" d="M491.716,-324.839C560.267,-321.856 675.139,-316.924 774,-313 1205.07,-295.889 1315.06,-323.122 1744,-277 1753.59,-275.968 1763.76,-274.472 1773.54,-272.828"/>
<polygon fill="midnightblue" stroke="midnightblue" points="1774.29,-276.249 1783.54,-271.074 1773.08,-269.354 1774.29,-276.249"/>
</g>
<!-- Node35&#45;&gt;Node27 -->
<g id="edge103" class="edge"><title>Node35&#45;&gt;Node27</title>
<path fill="none" stroke="midnightblue" d="M393.769,-313.378C373.269,-304.62 348.005,-292.149 328,-277 296.134,-252.868 290.672,-242.921 268,-210 253.944,-189.59 241.451,-163.862 233.818,-146.833"/>
<polygon fill="midnightblue" stroke="midnightblue" points="236.94,-145.236 229.723,-137.479 230.527,-148.044 236.94,-145.236"/>
</g>
<!-- Node35&#45;&gt;Node36 -->
<g id="edge94" class="edge"><title>Node35&#45;&gt;Node36</title>
<path fill="none" stroke="midnightblue" d="M440.418,-313.374C456.687,-288.969 489.998,-239.002 507.568,-212.648"/>
<polygon fill="midnightblue" stroke="midnightblue" points="510.634,-214.359 513.268,-204.097 504.809,-210.476 510.634,-214.359"/>
</g>
<!-- Node36&#45;&gt;Node4 -->
<g id="edge97" class="edge"><title>Node36&#45;&gt;Node4</title>
<path fill="none" stroke="midnightblue" d="M548.082,-184.869C587.29,-173.231 657.158,-152.494 700.342,-139.677"/>
<polygon fill="midnightblue" stroke="midnightblue" points="701.593,-142.957 710.184,-136.756 699.601,-136.246 701.593,-142.957"/>
</g>
<!-- Node36&#45;&gt;Node7 -->
<g id="edge99" class="edge"><title>Node36&#45;&gt;Node7</title>
<path fill="none" stroke="midnightblue" d="M504.978,-184.894C481.457,-169.44 438.713,-136.332 461,-112 492.446,-77.6684 812.903,-69.4061 930.245,-67.5249"/>
<polygon fill="midnightblue" stroke="midnightblue" points="930.356,-71.0237 940.301,-67.3715 930.249,-64.0245 930.356,-71.0237"/>
</g>
<!-- Node36&#45;&gt;Node14 -->
<g id="edge96" class="edge"><title>Node36&#45;&gt;Node14</title>
<path fill="none" stroke="midnightblue" d="M568.018,-189.335C715.325,-176.819 1150.57,-139.837 1259.21,-130.606"/>
<polygon fill="midnightblue" stroke="midnightblue" points="1259.83,-134.067 1269.49,-129.733 1259.23,-127.092 1259.83,-134.067"/>
</g>
<!-- Node36&#45;&gt;Node15 -->
<g id="edge98" class="edge"><title>Node36&#45;&gt;Node15</title>
<path fill="none" stroke="midnightblue" d="M568.126,-184.923C619.653,-175.658 702.876,-159.933 774,-143 778.322,-141.971 782.827,-140.826 787.298,-139.643"/>
<polygon fill="midnightblue" stroke="midnightblue" points="788.215,-143.021 796.949,-137.023 786.382,-136.265 788.215,-143.021"/>
</g>
<!-- Node36&#45;&gt;Node27 -->
<g id="edge101" class="edge"><title>Node36&#45;&gt;Node27</title>
<path fill="none" stroke="midnightblue" d="M480.394,-184.936C427.474,-173.196 332.405,-152.105 274.67,-139.297"/>
<polygon fill="midnightblue" stroke="midnightblue" points="275.212,-135.832 264.691,-137.083 273.696,-142.666 275.212,-135.832"/>
</g>
<!-- Node36&#45;&gt;Node28 -->
<g id="edge95" class="edge"><title>Node36&#45;&gt;Node28</title>
<path fill="none" stroke="midnightblue" d="M535.576,-184.926C554.613,-175.023 586.732,-158.148 614,-143 614.535,-142.703 615.075,-142.401 615.619,-142.096"/>
<polygon fill="midnightblue" stroke="midnightblue" points="617.558,-145.02 624.51,-137.025 614.09,-138.94 617.558,-145.02"/>
</g>
<!-- Node37 -->
<g id="node37" class="node"><title>Node37</title>
<polygon fill="white" stroke="#bfbfbf" points="470.5,-118 470.5,-137 605.5,-137 605.5,-118 470.5,-118"/>
<text text-anchor="middle" x="538" y="-125" font-family="Helvetica,sans-Serif" font-size="10.00">xercesc/util/XMLString.hpp</text>
</g>
<!-- Node36&#45;&gt;Node37 -->
<g id="edge100" class="edge"><title>Node36&#45;&gt;Node37</title>
<path fill="none" stroke="midnightblue" d="M521.562,-184.734C524.383,-175.085 528.997,-159.3 532.62,-146.906"/>
<polygon fill="midnightblue" stroke="midnightblue" points="536.032,-147.708 535.478,-137.127 529.313,-145.744 536.032,-147.708"/>
</g>
<!-- Node38&#45;&gt;Node5 -->
<g id="edge110" class="edge"><title>Node38&#45;&gt;Node5</title>
<path fill="none" stroke="midnightblue" d="M2427.71,-313.207C2436.79,-295.255 2454.6,-264.561 2478,-246 2511.75,-219.23 2543.85,-245.674 2568,-210 2580.85,-191.019 2572.23,-164.012 2563.92,-146.374"/>
<polygon fill="midnightblue" stroke="midnightblue" points="2566.89,-144.511 2559.22,-137.203 2560.66,-147.699 2566.89,-144.511"/>
</g>
<!-- Node38&#45;&gt;Node7 -->
<g id="edge107" class="edge"><title>Node38&#45;&gt;Node7</title>
<path fill="none" stroke="midnightblue" d="M2373.41,-313.449C2270.98,-283.77 2021.61,-214.512 1808,-179 1635.85,-150.38 1578.1,-210.09 1417,-143 1397.2,-134.752 1399.73,-120.428 1380,-112 1315.15,-84.2947 1106.37,-72.5048 1015.7,-68.6017"/>
<polygon fill="midnightblue" stroke="midnightblue" points="1015.64,-65.0961 1005.5,-68.1746 1015.35,-72.09 1015.64,-65.0961"/>
</g>
<!-- Node38&#45;&gt;Node10 -->
<g id="edge109" class="edge"><title>Node38&#45;&gt;Node10</title>
<path fill="none" stroke="midnightblue" d="M2437.08,-313.475C2448.56,-303.409 2464.33,-289.475 2478,-277 2492.87,-263.437 2494.4,-257.376 2511,-246 2541.5,-225.097 2566.31,-241.295 2586,-210 2596.33,-193.586 2595.69,-127.651 2581,-112 2541.42,-69.8452 2360.23,-66.2501 2286.92,-66.5677"/>
<polygon fill="midnightblue" stroke="midnightblue" points="2286.89,-63.0677 2276.91,-66.6388 2286.94,-70.0675 2286.89,-63.0677"/>
</g>
<!-- Node38&#45;&gt;Node14 -->
<g id="edge111" class="edge"><title>Node38&#45;&gt;Node14</title>
<path fill="none" stroke="midnightblue" d="M2369.69,-318.871C2276.36,-303.31 2072.52,-269.943 1900,-246 1768.3,-227.722 1727.1,-257.735 1603,-210 1580.67,-201.412 1581.24,-187.801 1559,-179 1452.16,-136.73 1409.01,-187.297 1303,-143 1302.68,-142.868 1302.37,-142.729 1302.05,-142.585"/>
<polygon fill="midnightblue" stroke="midnightblue" points="1303.79,-139.544 1293.46,-137.219 1300.09,-145.482 1303.79,-139.544"/>
</g>
<!-- Node38&#45;&gt;Node18 -->
<g id="edge108" class="edge"><title>Node38&#45;&gt;Node18</title>
<path fill="none" stroke="midnightblue" d="M2369.79,-322.346C2282.42,-313.492 2098.93,-294.639 1944,-277 1930.36,-275.447 1915.84,-273.731 1901.81,-272.039"/>
<polygon fill="midnightblue" stroke="midnightblue" points="1902.04,-268.542 1891.69,-270.814 1901.2,-275.491 1902.04,-268.542"/>
</g>
<!-- Node38&#45;&gt;Node32 -->
<g id="edge112" class="edge"><title>Node38&#45;&gt;Node32</title>
<path fill="none" stroke="midnightblue" d="M2447.26,-313.396C2468.02,-302.243 2496.8,-286.781 2517.18,-275.834"/>
<polygon fill="midnightblue" stroke="midnightblue" points="2519.01,-278.823 2526.16,-271.007 2515.7,-272.656 2519.01,-278.823"/>
</g>
<!-- Node39&#45;&gt;Node3 -->
<g id="edge122" class="edge"><title>Node39&#45;&gt;Node3</title>
<path fill="none" stroke="midnightblue" d="M348.217,-633.172C498.204,-625.161 1097.98,-593.126 1275.35,-583.652"/>
<polygon fill="midnightblue" stroke="midnightblue" points="1275.64,-587.141 1285.44,-583.113 1275.27,-580.151 1275.64,-587.141"/>
</g>
<!-- Node39&#45;&gt;Node27 -->
<g id="edge123" class="edge"><title>Node39&#45;&gt;Node27</title>
<path fill="none" stroke="midnightblue" d="M279.799,-629.876C198.417,-616.725 0,-578.601 0,-519.5 0,-519.5 0,-519.5 0,-327.5 0,-227.011 127.412,-165.235 190.903,-140.69"/>
<polygon fill="midnightblue" stroke="midnightblue" points="192.39,-143.87 200.514,-137.07 189.922,-137.319 192.39,-143.87"/>
</g>
<!-- Node39&#45;&gt;Node28 -->
<g id="edge125" class="edge"><title>Node39&#45;&gt;Node28</title>
<path fill="none" stroke="midnightblue" d="M301.31,-626.492C277.388,-609.322 228,-568 228,-519.5 228,-519.5 228,-519.5 228,-327.5 228,-204.7 347.859,-226.736 461,-179 525.363,-151.844 549.083,-168.803 614,-143 614.877,-142.651 615.76,-142.276 616.644,-141.879"/>
<polygon fill="midnightblue" stroke="midnightblue" points="618.614,-144.799 625.873,-137.082 615.386,-138.588 618.614,-144.799"/>
</g>
<!-- Node39&#45;&gt;Node36 -->
<g id="edge116" class="edge"><title>Node39&#45;&gt;Node36</title>
<path fill="none" stroke="midnightblue" d="M312.733,-626.329C310.043,-607.128 304,-559.553 304,-519.5 304,-519.5 304,-519.5 304,-389 304,-292.91 424.117,-232.36 484.788,-207.905"/>
<polygon fill="midnightblue" stroke="midnightblue" points="486.307,-211.069 494.337,-204.156 483.749,-204.553 486.307,-211.069"/>
</g>
<!-- Node40 -->
<g id="node40" class="node"><title>Node40</title>
<g id="a_node40"><a xlink:href="_trie_8h.html" target="_top" xlink:title="uscxml/transform/Trie.h">
<polygon fill="white" stroke="black" points="2366.5,-185 2366.5,-204 2487.5,-204 2487.5,-185 2366.5,-185"/>
<text text-anchor="middle" x="2427" y="-192" font-family="Helvetica,sans-Serif" font-size="10.00">uscxml/transform/Trie.h</text>
</a>
</g>
</g>
<!-- Node39&#45;&gt;Node40 -->
<g id="edge117" class="edge"><title>Node39&#45;&gt;Node40</title>
<path fill="none" stroke="midnightblue" d="M348.417,-635.262C481.107,-635.906 972.045,-634.927 1373,-590 1887.67,-532.331 2107.19,-667.029 2512,-344 2552.1,-312 2602.76,-287.788 2573,-246 2555.67,-221.67 2525.79,-208.952 2497.55,-202.346"/>
<polygon fill="midnightblue" stroke="midnightblue" points="2498.17,-198.899 2487.66,-200.256 2496.72,-205.747 2498.17,-198.899"/>
</g>
<!-- Node39&#45;&gt;Node41 -->
<g id="edge124" class="edge"><title>Node39&#45;&gt;Node41</title>
<path fill="none" stroke="midnightblue" d="M321.431,-626.083C327.853,-618.377 337.306,-607.033 345.122,-597.653"/>
<polygon fill="midnightblue" stroke="midnightblue" points="347.994,-599.674 351.707,-589.751 342.617,-595.193 347.994,-599.674"/>
</g>
<!-- Node40&#45;&gt;Node5 -->
<g id="edge120" class="edge"><title>Node40&#45;&gt;Node5</title>
<path fill="none" stroke="midnightblue" d="M2443.86,-184.869C2465.4,-173.845 2502.9,-154.655 2528.08,-141.768"/>
<polygon fill="midnightblue" stroke="midnightblue" points="2529.76,-144.839 2537.07,-137.167 2526.57,-138.608 2529.76,-144.839"/>
</g>
<!-- Node40&#45;&gt;Node7 -->
<g id="edge118" class="edge"><title>Node40&#45;&gt;Node7</title>
<path fill="none" stroke="midnightblue" d="M2366.48,-190.18C2312.77,-187.236 2232.16,-182.821 2162,-179 1866.89,-162.926 1787.06,-204.563 1498,-143 1460.3,-134.971 1454.5,-120.91 1417,-112 1272.54,-77.6776 1095.54,-69.5246 1015.68,-67.5945"/>
<polygon fill="midnightblue" stroke="midnightblue" points="1015.6,-64.092 1005.52,-67.3704 1015.44,-71.0903 1015.6,-64.092"/>
</g>
<!-- Node40&#45;&gt;Node10 -->
<g id="edge119" class="edge"><title>Node40&#45;&gt;Node10</title>
<path fill="none" stroke="midnightblue" d="M2426.99,-184.799C2426.5,-168.283 2423.02,-132.237 2403,-112 2372,-80.6699 2319.83,-71.0347 2286.7,-68.1419"/>
<polygon fill="midnightblue" stroke="midnightblue" points="2286.89,-64.6465 2276.66,-67.4207 2286.39,-71.6285 2286.89,-64.6465"/>
</g>
<!-- Node40&#45;&gt;Node14 -->
<g id="edge121" class="edge"><title>Node40&#45;&gt;Node14</title>
<path fill="none" stroke="midnightblue" d="M2366.49,-190.624C2164.42,-180.992 1520.33,-150.084 1427,-143 1385.48,-139.849 1337.34,-134.646 1308.84,-131.404"/>
<polygon fill="midnightblue" stroke="midnightblue" points="1308.93,-127.891 1298.59,-130.226 1308.13,-134.845 1308.93,-127.891"/>
</g>
<!-- Node42&#45;&gt;Node7 -->
<g id="edge129" class="edge"><title>Node42&#45;&gt;Node7</title>
<path fill="none" stroke="midnightblue" d="M623.947,-254.263C564.574,-247.171 482.844,-233.424 461,-210 431.141,-177.98 421.401,-144.26 451,-112 483.16,-76.9485 811.306,-69.1337 930.244,-67.4477"/>
<polygon fill="midnightblue" stroke="midnightblue" points="930.475,-70.945 940.427,-67.3112 930.381,-63.9456 930.475,-70.945"/>
</g>
<!-- Node42&#45;&gt;Node10 -->
<g id="edge134" class="edge"><title>Node42&#45;&gt;Node10</title>
<path fill="none" stroke="midnightblue" d="M754.251,-256.812C808.513,-253.783 887.774,-249.446 957,-246 1308.93,-228.482 1401.21,-266.575 1749,-210 1798.71,-201.913 1809.13,-191.202 1858,-179 1931.67,-160.605 1957.02,-176.818 2025,-143 2043.9,-133.596 2042.16,-121.541 2061,-112 2114.8,-84.748 2185.3,-73.7635 2225.11,-69.5154"/>
<polygon fill="midnightblue" stroke="midnightblue" points="2225.65,-72.9796 2235.25,-68.5094 2224.95,-66.0138 2225.65,-72.9796"/>
</g>
<!-- Node42&#45;&gt;Node14 -->
<g id="edge133" class="edge"><title>Node42&#45;&gt;Node14</title>
<path fill="none" stroke="midnightblue" d="M754.191,-256.722C900.091,-247.998 1241.71,-225.98 1261,-210 1279.37,-194.782 1283.69,-166.117 1284.4,-147.163"/>
<polygon fill="midnightblue" stroke="midnightblue" points="1287.9,-147.085 1284.46,-137.061 1280.9,-147.037 1287.9,-147.085"/>
</g>
<!-- Node42&#45;&gt;Node15 -->
<g id="edge128" class="edge"><title>Node42&#45;&gt;Node15</title>
<path fill="none" stroke="midnightblue" d="M697.989,-251.839C720.734,-229.925 780.819,-172.032 809.849,-144.062"/>
<polygon fill="midnightblue" stroke="midnightblue" points="812.383,-146.48 817.156,-137.021 807.526,-141.439 812.383,-146.48"/>
</g>
<!-- Node42&#45;&gt;Node19 -->
<g id="edge130" class="edge"><title>Node42&#45;&gt;Node19</title>
<path fill="none" stroke="midnightblue" d="M754.142,-256.21C930.305,-244.609 1415.38,-212.663 1601.74,-200.391"/>
<polygon fill="midnightblue" stroke="midnightblue" points="1601.97,-203.883 1611.71,-199.734 1601.51,-196.898 1601.97,-203.883"/>
</g>
<!-- Node42&#45;&gt;Node27 -->
<g id="edge132" class="edge"><title>Node42&#45;&gt;Node27</title>
<path fill="none" stroke="midnightblue" d="M623.997,-256.482C531.603,-249.974 367.554,-235.243 314,-210 282.148,-194.987 253.979,-164.247 238.525,-145.107"/>
<polygon fill="midnightblue" stroke="midnightblue" points="241.274,-142.941 232.352,-137.228 235.764,-147.258 241.274,-142.941"/>
</g>
<!-- Node42&#45;&gt;Node36 -->
<g id="edge131" class="edge"><title>Node42&#45;&gt;Node36</title>
<path fill="none" stroke="midnightblue" d="M666.425,-251.869C636.75,-240.522 584.449,-220.525 550.783,-207.652"/>
<polygon fill="midnightblue" stroke="midnightblue" points="551.988,-204.366 541.397,-204.064 549.488,-210.904 551.988,-204.366"/>
</g>
<!-- Node43&#45;&gt;Node28 -->
<g id="edge144" class="edge"><title>Node43&#45;&gt;Node28</title>
<path fill="none" stroke="midnightblue" d="M2753.69,-386.125C2578.78,-379.858 2157.18,-363.92 1804,-344 1750.18,-340.964 888.42,-289.57 836,-277 801.723,-268.781 795.933,-258.565 763,-246 716.515,-228.264 690.194,-247.063 657,-210 641.702,-192.918 638.439,-165.812 638.177,-147.602"/>
<polygon fill="midnightblue" stroke="midnightblue" points="641.681,-147.4 638.332,-137.349 634.682,-147.294 641.681,-147.4"/>
</g>
<!-- Node43&#45;&gt;Node40 -->
<g id="edge136" class="edge"><title>Node43&#45;&gt;Node40</title>
<path fill="none" stroke="midnightblue" d="M2821.99,-380.396C2807.28,-371.357 2783.5,-356.714 2763,-344 2693.1,-300.64 2681.22,-279.278 2606,-246 2565.24,-227.97 2516.4,-214.702 2480.04,-206.302"/>
<polygon fill="midnightblue" stroke="midnightblue" points="2480.66,-202.854 2470.13,-204.063 2479.12,-209.682 2480.66,-202.854"/>
</g>
<!-- Node43&#45;&gt;Node44 -->
<g id="edge137" class="edge"><title>Node43&#45;&gt;Node44</title>
<path fill="none" stroke="midnightblue" d="M2836.43,-380.475C2836.78,-373.471 2837.3,-363.192 2837.78,-353.696"/>
<polygon fill="midnightblue" stroke="midnightblue" points="2841.28,-353.687 2838.29,-343.523 2834.29,-353.334 2841.28,-353.687"/>
</g>
<!-- Node43&#45;&gt;Node47 -->
<g id="edge143" class="edge"><title>Node43&#45;&gt;Node47</title>
<path fill="none" stroke="midnightblue" d="M2860.21,-380.475C2885.03,-371.739 2924.31,-357.907 2955.71,-346.855"/>
<polygon fill="midnightblue" stroke="midnightblue" points="2956.9,-350.145 2965.17,-343.523 2954.58,-343.543 2956.9,-350.145"/>
</g>
<!-- Node44&#45;&gt;Node10 -->
<g id="edge140" class="edge"><title>Node44&#45;&gt;Node10</title>
<path fill="none" stroke="midnightblue" d="M2841.24,-313.465C2846.55,-274.6 2855.35,-164.956 2796,-112 2757.87,-77.9817 2395.51,-69.293 2286.73,-67.4425"/>
<polygon fill="midnightblue" stroke="midnightblue" points="2286.78,-63.943 2276.73,-67.2797 2286.67,-70.9421 2286.78,-63.943"/>
</g>
<!-- Node44&#45;&gt;Node14 -->
<g id="edge141" class="edge"><title>Node44&#45;&gt;Node14</title>
<path fill="none" stroke="midnightblue" d="M2801.75,-313.373C2750.87,-294.709 2656.43,-262.299 2573,-246 2319.01,-196.379 1670.49,-168.9 1413,-143 1376.7,-139.349 1334.73,-134.518 1308.77,-131.458"/>
<polygon fill="midnightblue" stroke="midnightblue" points="1309.03,-127.965 1298.69,-130.264 1308.21,-134.916 1309.03,-127.965"/>
</g>
<!-- Node44&#45;&gt;Node18 -->
<g id="edge142" class="edge"><title>Node44&#45;&gt;Node18</title>
<path fill="none" stroke="midnightblue" d="M2772.47,-323.235C2591.97,-311.665 2093.73,-279.726 1901.78,-267.422"/>
<polygon fill="midnightblue" stroke="midnightblue" points="1901.98,-263.928 1891.78,-266.781 1901.53,-270.913 1901.98,-263.928"/>
</g>
<!-- Node45 -->
<g id="node45" class="node"><title>Node45</title>
<polygon fill="white" stroke="#bfbfbf" points="2954,-252 2954,-271 3002,-271 3002,-252 2954,-252"/>
<text text-anchor="middle" x="2978" y="-259" font-family="Helvetica,sans-Serif" font-size="10.00">stdlib.h</text>
</g>
<!-- Node44&#45;&gt;Node45 -->
<g id="edge138" class="edge"><title>Node44&#45;&gt;Node45</title>
<path fill="none" stroke="midnightblue" d="M2869.16,-313.396C2893.44,-302.041 2927.28,-286.22 2950.75,-275.244"/>
<polygon fill="midnightblue" stroke="midnightblue" points="2952.23,-278.414 2959.81,-271.007 2949.27,-272.073 2952.23,-278.414"/>
</g>
<!-- Node46 -->
<g id="node46" class="node"><title>Node46</title>
<polygon fill="white" stroke="#bfbfbf" points="2886.5,-252 2886.5,-271 2935.5,-271 2935.5,-252 2886.5,-252"/>
<text text-anchor="middle" x="2911" y="-259" font-family="Helvetica,sans-Serif" font-size="10.00">cstdarg</text>
</g>
<!-- Node44&#45;&gt;Node46 -->
<g id="edge139" class="edge"><title>Node44&#45;&gt;Node46</title>
<path fill="none" stroke="midnightblue" d="M2854.62,-313.396C2866.18,-302.96 2881.92,-288.751 2893.83,-277.998"/>
<polygon fill="midnightblue" stroke="midnightblue" points="2896.29,-280.494 2901.37,-271.195 2891.6,-275.298 2896.29,-280.494"/>
</g>
<!-- Node48&#45;&gt;Node10 -->
<g id="edge147" class="edge"><title>Node48&#45;&gt;Node10</title>
<path fill="none" stroke="midnightblue" d="M1582.14,-255.237C1687.55,-245.899 1899.17,-225.917 1972,-210 2064.82,-189.716 2093.32,-191.536 2175,-143 2201.96,-126.978 2227.36,-100.636 2242.3,-83.5558"/>
<polygon fill="midnightblue" stroke="midnightblue" points="2245.28,-85.4512 2249.11,-75.5717 2239.96,-80.9081 2245.28,-85.4512"/>
</g>
<!-- Node48&#45;&gt;Node14 -->
<g id="edge148" class="edge"><title>Node48&#45;&gt;Node14</title>
<path fill="none" stroke="midnightblue" d="M1515.54,-251.881C1504.52,-235.181 1477.89,-198.359 1446,-179 1393.65,-147.22 1370.23,-164.801 1313,-143 1311.37,-142.38 1309.72,-141.698 1308.06,-140.978"/>
<polygon fill="midnightblue" stroke="midnightblue" points="1309.33,-137.71 1298.8,-136.609 1306.35,-144.041 1309.33,-137.71"/>
</g>
<!-- Node48&#45;&gt;Node20 -->
<g id="edge151" class="edge"><title>Node48&#45;&gt;Node20</title>
<path fill="none" stroke="midnightblue" d="M1582.04,-257.412C1651.07,-252.491 1757.14,-240.127 1782,-210 1797.35,-191.398 1783.3,-163.313 1771.15,-145.446"/>
<polygon fill="midnightblue" stroke="midnightblue" points="1773.83,-143.184 1765.13,-137.138 1768.16,-147.29 1773.83,-143.184"/>
</g>
<!-- Node48&#45;&gt;Node27 -->
<g id="edge149" class="edge"><title>Node48&#45;&gt;Node27</title>
<path fill="none" stroke="midnightblue" d="M1459.71,-255.09C1423.94,-252.079 1377.94,-248.454 1337,-246 1142.52,-234.345 652.418,-246.308 461,-210 383.657,-195.33 297.299,-160.225 253.986,-141.228"/>
<polygon fill="midnightblue" stroke="midnightblue" points="255.233,-137.952 244.673,-137.099 252.396,-144.351 255.233,-137.952"/>
</g>
<!-- Node48&#45;&gt;Node36 -->
<g id="edge150" class="edge"><title>Node48&#45;&gt;Node36</title>
<path fill="none" stroke="midnightblue" d="M1459.69,-255.406C1423.91,-252.5 1377.91,-248.875 1337,-246 1053.08,-226.05 713.409,-206.443 578.474,-198.825"/>
<polygon fill="midnightblue" stroke="midnightblue" points="578.531,-195.322 568.35,-198.254 578.137,-202.311 578.531,-195.322"/>
</g>
</g>
</svg>
