<?xml version="1.0" encoding="UTF-8" standalone="no"?>
<!DOCTYPE svg PUBLIC "-//W3C//DTD SVG 1.1//EN"
 "http://www.w3.org/Graphics/SVG/1.1/DTD/svg11.dtd">
<!-- Generated by graphviz version 2.40.1 (20161225.0304)
 -->
<!-- Title: transform/ChartToVHDL.cpp Pages: 1 -->
<svg width="3321pt" height="777pt"
 viewBox="0.00 0.00 3321.00 777.00" xmlns="http://www.w3.org/2000/svg" xmlns:xlink="http://www.w3.org/1999/xlink">
<g id="graph0" class="graph" transform="scale(1 1) rotate(0) translate(4 773)">
<title>transform/ChartToVHDL.cpp</title>
<polygon fill="#ffffff" stroke="transparent" points="-4,4 -4,-773 3317,-773 3317,4 -4,4"/>
<!-- Node1 -->
<g id="node1" class="node">
<title>Node1</title>
<polygon fill="#bfbfbf" stroke="#000000" points="2850.5,-749.5 2850.5,-768.5 2993.5,-768.5 2993.5,-749.5 2850.5,-749.5"/>
<text text-anchor="middle" x="2922" y="-756.5" font-family="Helvetica,sans-Serif" font-size="10.00" fill="#000000">transform/ChartToVHDL.cpp</text>
</g>
<!-- Node2 -->
<g id="node2" class="node">
<title>Node2</title>
<g id="a_node2"><a xlink:href="$_chart_to_v_h_d_l_8h.html" xlink:title="uscxml/transform/ChartTo\lVHDL.h">
<polygon fill="#ffffff" stroke="#000000" points="2355,-682.5 2355,-712.5 2487,-712.5 2487,-682.5 2355,-682.5"/>
<text text-anchor="start" x="2363" y="-700.5" font-family="Helvetica,sans-Serif" font-size="10.00" fill="#000000">uscxml/transform/ChartTo</text>
<text text-anchor="middle" x="2421" y="-689.5" font-family="Helvetica,sans-Serif" font-size="10.00" fill="#000000">VHDL.h</text>
</a>
</g>
</g>
<!-- Node1&#45;&gt;Node2 -->
<g id="edge1" class="edge">
<title>Node1&#45;&gt;Node2</title>
<path fill="none" stroke="#191970" d="M2850.4851,-750.2212C2756.8381,-738.7256 2593.3323,-718.6546 2497.3501,-706.8723"/>
<polygon fill="#191970" stroke="#191970" points="2497.4856,-703.3628 2487.1337,-705.6182 2496.6327,-710.3106 2497.4856,-703.3628"/>
</g>
<!-- Node23 -->
<g id="node23" class="node">
<title>Node23</title>
<polygon fill="#ffffff" stroke="#bfbfbf" points="2871,-56.5 2871,-75.5 2923,-75.5 2923,-56.5 2871,-56.5"/>
<text text-anchor="middle" x="2897" y="-63.5" font-family="Helvetica,sans-Serif" font-size="10.00" fill="#000000">sstream</text>
</g>
<!-- Node1&#45;&gt;Node23 -->
<g id="edge157" class="edge">
<title>Node1&#45;&gt;Node23</title>
<path fill="none" stroke="#191970" d="M2926.5782,-749.2151C2949.9649,-698.3042 3055,-458.096 3055,-250.5 3055,-250.5 3055,-250.5 3055,-183.5 3055,-122.9898 2979.4593,-89.9819 2932.8434,-75.3736"/>
<polygon fill="#191970" stroke="#191970" points="2933.6743,-71.9689 2923.0905,-72.4515 2931.6652,-78.6744 2933.6743,-71.9689"/>
</g>
<!-- Node26 -->
<g id="node26" class="node">
<title>Node26</title>
<g id="a_node26"><a xlink:href="$_logging_8h.html" xlink:title="uscxml/interpreter\l/Logging.h">
<polygon fill="#ffffff" stroke="#000000" points="229,-302.5 229,-332.5 325,-332.5 325,-302.5 229,-302.5"/>
<text text-anchor="start" x="237" y="-320.5" font-family="Helvetica,sans-Serif" font-size="10.00" fill="#000000">uscxml/interpreter</text>
<text text-anchor="middle" x="277" y="-309.5" font-family="Helvetica,sans-Serif" font-size="10.00" fill="#000000">/Logging.h</text>
</a>
</g>
</g>
<!-- Node1&#45;&gt;Node26 -->
<g id="edge154" class="edge">
<title>Node1&#45;&gt;Node26</title>
<path fill="none" stroke="#191970" d="M2850.4918,-758.721C2595.8437,-757.4264 1709.4059,-750.3418 979,-713 761.0572,-701.8577 0,-854.2274 0,-636 0,-636 0,-636 0,-451.5 0,-395.2427 46.4568,-395.6526 96,-369 134.3967,-348.3438 181.9486,-335.2285 218.6759,-327.4052"/>
<polygon fill="#191970" stroke="#191970" points="219.6414,-330.78 228.7312,-325.3372 218.2311,-323.9235 219.6414,-330.78"/>
</g>
<!-- Node28 -->
<g id="node28" class="node">
<title>Node28</title>
<g id="a_node28"><a xlink:href="$_u_u_i_d_8h.html" xlink:title="uscxml/util/UUID.h">
<polygon fill="#ffffff" stroke="#000000" points="1016.5,-174 1016.5,-193 1115.5,-193 1115.5,-174 1016.5,-174"/>
<text text-anchor="middle" x="1066" y="-181" font-family="Helvetica,sans-Serif" font-size="10.00" fill="#000000">uscxml/util/UUID.h</text>
</a>
</g>
</g>
<!-- Node1&#45;&gt;Node28 -->
<g id="edge144" class="edge">
<title>Node1&#45;&gt;Node28</title>
<path fill="none" stroke="#191970" d="M2850.4809,-758.2546C2501.3746,-754.1569 993,-730.9575 993,-636 993,-636 993,-636 993,-580 993,-560.695 1047.2306,-280.1142 1062.2083,-202.9904"/>
<polygon fill="#191970" stroke="#191970" points="1065.6499,-203.6272 1064.1221,-193.1431 1058.7785,-202.2916 1065.6499,-203.6272"/>
</g>
<!-- Node31 -->
<g id="node31" class="node">
<title>Node31</title>
<g id="a_node31"><a xlink:href="$_string_8h.html" xlink:title="string.h">
<polygon fill="#ffffff" stroke="#000000" points="2230.5,-174 2230.5,-193 2279.5,-193 2279.5,-174 2230.5,-174"/>
<text text-anchor="middle" x="2255" y="-181" font-family="Helvetica,sans-Serif" font-size="10.00" fill="#000000">string.h</text>
</a>
</g>
</g>
<!-- Node1&#45;&gt;Node31 -->
<g id="edge145" class="edge">
<title>Node1&#45;&gt;Node31</title>
<path fill="none" stroke="#191970" d="M2909.6019,-749.4609C2862.9926,-713.4982 2694.1477,-582.3003 2561,-467 2447.8957,-369.0564 2318.0557,-244.5609 2272.1536,-200.157"/>
<polygon fill="#191970" stroke="#191970" points="2274.4329,-197.492 2264.8151,-193.048 2269.5623,-202.5198 2274.4329,-197.492"/>
</g>
<!-- Node46 -->
<g id="node46" class="node">
<title>Node46</title>
<g id="a_node46"><a xlink:href="$_predicates_8h.html" xlink:title="uscxml/util/Predicates.h">
<polygon fill="#ffffff" stroke="#000000" points="2842,-375 2842,-394 2964,-394 2964,-375 2842,-375"/>
<text text-anchor="middle" x="2903" y="-382" font-family="Helvetica,sans-Serif" font-size="10.00" fill="#000000">uscxml/util/Predicates.h</text>
</a>
</g>
</g>
<!-- Node1&#45;&gt;Node46 -->
<g id="edge146" class="edge">
<title>Node1&#45;&gt;Node46</title>
<path fill="none" stroke="#191970" d="M2919.4376,-749.1946C2914.2514,-728.4585 2903,-678.5666 2903,-636 2903,-636 2903,-636 2903,-518.5 2903,-477.9699 2903,-430.5443 2903,-404.3795"/>
<polygon fill="#191970" stroke="#191970" points="2906.5001,-404.2517 2903,-394.2517 2899.5001,-404.2518 2906.5001,-404.2517"/>
</g>
<!-- Node47 -->
<g id="node47" class="node">
<title>Node47</title>
<polygon fill="#ffffff" stroke="#bfbfbf" points="2969.5,-688 2969.5,-707 3016.5,-707 3016.5,-688 2969.5,-688"/>
<text text-anchor="middle" x="2993" y="-695" font-family="Helvetica,sans-Serif" font-size="10.00" fill="#000000">math.h</text>
</g>
<!-- Node1&#45;&gt;Node47 -->
<g id="edge152" class="edge">
<title>Node1&#45;&gt;Node47</title>
<path fill="none" stroke="#191970" d="M2933.0938,-749.3906C2943.9715,-739.9683 2960.7748,-725.4134 2973.82,-714.1137"/>
<polygon fill="#191970" stroke="#191970" points="2976.4827,-716.4377 2981.7498,-707.2449 2971.8996,-711.1466 2976.4827,-716.4377"/>
</g>
<!-- Node48 -->
<g id="node48" class="node">
<title>Node48</title>
<polygon fill="#ffffff" stroke="#bfbfbf" points="3035,-688 3035,-707 3167,-707 3167,-688 3035,-688"/>
<text text-anchor="middle" x="3101" y="-695" font-family="Helvetica,sans-Serif" font-size="10.00" fill="#000000">boost/algorithm/string.hpp</text>
</g>
<!-- Node1&#45;&gt;Node48 -->
<g id="edge153" class="edge">
<title>Node1&#45;&gt;Node48</title>
<path fill="none" stroke="#191970" d="M2949.9688,-749.3906C2980.5755,-738.8749 3029.7899,-721.966 3063.6741,-710.3243"/>
<polygon fill="#191970" stroke="#191970" points="3064.9076,-713.6014 3073.2276,-707.0419 3062.633,-706.9812 3064.9076,-713.6014"/>
</g>
<!-- Node49 -->
<g id="node49" class="node">
<title>Node49</title>
<polygon fill="#ffffff" stroke="#bfbfbf" points="3185,-688 3185,-707 3243,-707 3243,-688 3185,-688"/>
<text text-anchor="middle" x="3214" y="-695" font-family="Helvetica,sans-Serif" font-size="10.00" fill="#000000">algorithm</text>
</g>
<!-- Node1&#45;&gt;Node49 -->
<g id="edge155" class="edge">
<title>Node1&#45;&gt;Node49</title>
<path fill="none" stroke="#191970" d="M2993.5372,-750.1036C3044.9401,-742.7332 3115.5442,-730.5958 3176,-713 3178.3089,-712.328 3180.6694,-711.5638 3183.0279,-710.7434"/>
<polygon fill="#191970" stroke="#191970" points="3184.4502,-713.9477 3192.5738,-707.1464 3181.9819,-707.3973 3184.4502,-713.9477"/>
</g>
<!-- Node50 -->
<g id="node50" class="node">
<title>Node50</title>
<polygon fill="#ffffff" stroke="#bfbfbf" points="3261,-688 3261,-707 3313,-707 3313,-688 3261,-688"/>
<text text-anchor="middle" x="3287" y="-695" font-family="Helvetica,sans-Serif" font-size="10.00" fill="#000000">iomanip</text>
</g>
<!-- Node1&#45;&gt;Node50 -->
<g id="edge156" class="edge">
<title>Node1&#45;&gt;Node50</title>
<path fill="none" stroke="#191970" d="M2993.6723,-754.7765C3061.3281,-749.4459 3165.079,-737.7782 3252,-713 3254.1809,-712.3783 3256.4023,-711.6469 3258.6147,-710.8461"/>
<polygon fill="#191970" stroke="#191970" points="3260.1394,-714.0051 3268.1022,-707.0162 3257.519,-707.5141 3260.1394,-714.0051"/>
</g>
<!-- Node3 -->
<g id="node3" class="node">
<title>Node3</title>
<g id="a_node3"><a xlink:href="$_d_o_m_8h.html" xlink:title="uscxml/util/DOM.h">
<polygon fill="#ffffff" stroke="#000000" points="2487,-308 2487,-327 2585,-327 2585,-308 2487,-308"/>
<text text-anchor="middle" x="2536" y="-315" font-family="Helvetica,sans-Serif" font-size="10.00" fill="#000000">uscxml/util/DOM.h</text>
</a>
</g>
</g>
<!-- Node2&#45;&gt;Node3 -->
<g id="edge2" class="edge">
<title>Node2&#45;&gt;Node3</title>
<path fill="none" stroke="#191970" d="M2448.1776,-682.4206C2492.388,-655.6579 2575,-595.365 2575,-518.5 2575,-518.5 2575,-518.5 2575,-451.5 2575,-409.1226 2556.7956,-362.1023 2545.2618,-336.5642"/>
<polygon fill="#191970" stroke="#191970" points="2548.3394,-334.8824 2540.9394,-327.3001 2541.9959,-337.8422 2548.3394,-334.8824"/>
</g>
<!-- Node11 -->
<g id="node11" class="node">
<title>Node11</title>
<polygon fill="#ffffff" stroke="#bfbfbf" points="2755.5,-241 2755.5,-260 2874.5,-260 2874.5,-241 2755.5,-241"/>
<text text-anchor="middle" x="2815" y="-248" font-family="Helvetica,sans-Serif" font-size="10.00" fill="#000000">xercesc/dom/DOM.hpp</text>
</g>
<!-- Node2&#45;&gt;Node11 -->
<g id="edge141" class="edge">
<title>Node2&#45;&gt;Node11</title>
<path fill="none" stroke="#191970" d="M2487.1793,-690.5023C2594.8343,-677.2611 2796,-643.9612 2796,-580 2796,-580 2796,-580 2796,-384.5 2796,-343.5645 2804.7996,-296.2853 2810.4218,-270.2554"/>
<polygon fill="#191970" stroke="#191970" points="2813.907,-270.7073 2812.6702,-260.1849 2807.0752,-269.182 2813.907,-270.7073"/>
</g>
<!-- Node12 -->
<g id="node12" class="node">
<title>Node12</title>
<g id="a_node12"><a xlink:href="$_trie_8h.html" xlink:title="uscxml/transform/Trie.h">
<polygon fill="#ffffff" stroke="#000000" points="1666.5,-174 1666.5,-193 1787.5,-193 1787.5,-174 1666.5,-174"/>
<text text-anchor="middle" x="1727" y="-181" font-family="Helvetica,sans-Serif" font-size="10.00" fill="#000000">uscxml/transform/Trie.h</text>
</a>
</g>
</g>
<!-- Node2&#45;&gt;Node12 -->
<g id="edge11" class="edge">
<title>Node2&#45;&gt;Node12</title>
<path fill="none" stroke="#191970" d="M2354.5162,-694.7175C2224.6847,-687.4631 1950,-662.3807 1950,-580 1950,-580 1950,-580 1950,-451.5 1950,-348.9438 1813.8184,-414.8307 1752,-333 1722.8848,-294.4594 1722.6685,-234.3304 1724.8779,-203.3836"/>
<polygon fill="#191970" stroke="#191970" points="1728.3964,-203.3263 1725.7883,-193.0576 1721.4235,-202.7115 1728.3964,-203.3263"/>
</g>
<!-- Node14 -->
<g id="node14" class="node">
<title>Node14</title>
<g id="a_node14"><a xlink:href="$_transformer_8h.html" xlink:title="Transformer.h">
<polygon fill="#ffffff" stroke="#000000" points="1402.5,-570.5 1402.5,-589.5 1481.5,-589.5 1481.5,-570.5 1402.5,-570.5"/>
<text text-anchor="middle" x="1442" y="-577.5" font-family="Helvetica,sans-Serif" font-size="10.00" fill="#000000">Transformer.h</text>
</a>
</g>
</g>
<!-- Node2&#45;&gt;Node14 -->
<g id="edge16" class="edge">
<title>Node2&#45;&gt;Node14</title>
<path fill="none" stroke="#191970" d="M2354.6468,-691.0275C2261.1763,-681.7794 2085.4395,-663.9136 1936,-646 1773.2014,-626.485 1580.7399,-599.6975 1491.732,-587.0969"/>
<polygon fill="#191970" stroke="#191970" points="1492.0466,-583.6066 1481.6543,-585.6683 1491.0641,-590.5373 1492.0466,-583.6066"/>
</g>
<!-- Node16 -->
<g id="node16" class="node">
<title>Node16</title>
<polygon fill="#ffffff" stroke="#bfbfbf" points="921,-308 921,-327 965,-327 965,-308 921,-308"/>
<text text-anchor="middle" x="943" y="-315" font-family="Helvetica,sans-Serif" font-size="10.00" fill="#000000">vector</text>
</g>
<!-- Node2&#45;&gt;Node16 -->
<g id="edge143" class="edge">
<title>Node2&#45;&gt;Node16</title>
<path fill="none" stroke="#191970" d="M2354.6811,-696.4784C2068.6546,-691.2124 955,-661.5254 955,-518.5 955,-518.5 955,-518.5 955,-451.5 955,-410.8078 949.4424,-363.4407 945.8915,-337.3298"/>
<polygon fill="#191970" stroke="#191970" points="949.3291,-336.6406 944.4714,-327.225 942.3972,-337.6148 949.3291,-336.6406"/>
</g>
<!-- Node44 -->
<g id="node44" class="node">
<title>Node44</title>
<g id="a_node44"><a xlink:href="$_chart_to_c_8h.html" xlink:title="ChartToC.h">
<polygon fill="#ffffff" stroke="#000000" points="2355,-626.5 2355,-645.5 2423,-645.5 2423,-626.5 2355,-626.5"/>
<text text-anchor="middle" x="2389" y="-633.5" font-family="Helvetica,sans-Serif" font-size="10.00" fill="#000000">ChartToC.h</text>
</a>
</g>
</g>
<!-- Node2&#45;&gt;Node44 -->
<g id="edge134" class="edge">
<title>Node2&#45;&gt;Node44</title>
<path fill="none" stroke="#191970" d="M2413.0899,-682.2977C2408.7868,-674.0277 2403.4242,-663.7215 2398.8518,-654.9339"/>
<polygon fill="#191970" stroke="#191970" points="2401.8443,-653.1024 2394.1236,-645.8469 2395.6346,-656.3335 2401.8443,-653.1024"/>
</g>
<!-- Node45 -->
<g id="node45" class="node">
<title>Node45</title>
<polygon fill="#ffffff" stroke="#bfbfbf" points="2455.5,-570.5 2455.5,-589.5 2508.5,-589.5 2508.5,-570.5 2455.5,-570.5"/>
<text text-anchor="middle" x="2482" y="-577.5" font-family="Helvetica,sans-Serif" font-size="10.00" fill="#000000">ostream</text>
</g>
<!-- Node2&#45;&gt;Node45 -->
<g id="edge142" class="edge">
<title>Node2&#45;&gt;Node45</title>
<path fill="none" stroke="#191970" d="M2428.9747,-682.1389C2440.1148,-660.6806 2460.3132,-621.7738 2472.3074,-598.6702"/>
<polygon fill="#191970" stroke="#191970" points="2475.5359,-600.0474 2477.0372,-589.5595 2469.3232,-596.8221 2475.5359,-600.0474"/>
</g>
<!-- Node4 -->
<g id="node4" class="node">
<title>Node4</title>
<polygon fill="#ffffff" stroke="#bfbfbf" points="1934,-241 1934,-260 1964,-260 1964,-241 1934,-241"/>
<text text-anchor="middle" x="1949" y="-248" font-family="Helvetica,sans-Serif" font-size="10.00" fill="#000000">set</text>
</g>
<!-- Node3&#45;&gt;Node4 -->
<g id="edge3" class="edge">
<title>Node3&#45;&gt;Node4</title>
<path fill="none" stroke="#191970" d="M2486.5885,-316.0015C2367.4807,-311.9066 2067.4044,-298.5819 1973,-266 1972.1385,-265.7027 1971.2769,-265.3681 1970.4199,-265.0033"/>
<polygon fill="#191970" stroke="#191970" points="1972.0725,-261.918 1961.6101,-260.2479 1968.7474,-268.0779 1972.0725,-261.918"/>
</g>
<!-- Node5 -->
<g id="node5" class="node">
<title>Node5</title>
<polygon fill="#ffffff" stroke="#bfbfbf" points="2042.5,-112.5 2042.5,-131.5 2071.5,-131.5 2071.5,-112.5 2042.5,-112.5"/>
<text text-anchor="middle" x="2057" y="-119.5" font-family="Helvetica,sans-Serif" font-size="10.00" fill="#000000">list</text>
</g>
<!-- Node3&#45;&gt;Node5 -->
<g id="edge4" class="edge">
<title>Node3&#45;&gt;Node5</title>
<path fill="none" stroke="#191970" d="M2523.4576,-307.6798C2488.5101,-280.8319 2386.2041,-205.7029 2289,-168 2216.8044,-139.9973 2125.0778,-128.2888 2081.7733,-124.0641"/>
<polygon fill="#191970" stroke="#191970" points="2081.8897,-120.5601 2071.6101,-123.1252 2081.2457,-127.5304 2081.8897,-120.5601"/>
</g>
<!-- Node6 -->
<g id="node6" class="node">
<title>Node6</title>
<polygon fill="#ffffff" stroke="#bfbfbf" points="1725.5,-56.5 1725.5,-75.5 1766.5,-75.5 1766.5,-56.5 1725.5,-56.5"/>
<text text-anchor="middle" x="1746" y="-63.5" font-family="Helvetica,sans-Serif" font-size="10.00" fill="#000000">string</text>
</g>
<!-- Node3&#45;&gt;Node6 -->
<g id="edge5" class="edge">
<title>Node3&#45;&gt;Node6</title>
<path fill="none" stroke="#191970" d="M2541.0244,-307.6764C2557.0344,-274.851 2602.7894,-167.896 2550,-112 2522.9848,-83.3949 1921.6706,-69.5258 1777.0656,-66.5973"/>
<polygon fill="#191970" stroke="#191970" points="1776.7799,-63.091 1766.712,-66.3907 1776.6401,-70.0896 1776.7799,-63.091"/>
</g>
<!-- Node7 -->
<g id="node7" class="node">
<title>Node7</title>
<g id="a_node7"><a xlink:href="$_common_8h.html" xlink:title="uscxml/Common.h">
<polygon fill="#ffffff" stroke="#000000" points="863.5,-56.5 863.5,-75.5 962.5,-75.5 962.5,-56.5 863.5,-56.5"/>
<text text-anchor="middle" x="913" y="-63.5" font-family="Helvetica,sans-Serif" font-size="10.00" fill="#000000">uscxml/Common.h</text>
</a>
</g>
</g>
<!-- Node3&#45;&gt;Node7 -->
<g id="edge6" class="edge">
<title>Node3&#45;&gt;Node7</title>
<path fill="none" stroke="#191970" d="M2528.6204,-307.9252C2515.6442,-291.5289 2487.3239,-257.6562 2458,-235 2350.763,-152.1467 2312.0903,-137.5227 2179,-112 2060.011,-89.1815 1207.915,-71.5644 972.8956,-67.1002"/>
<polygon fill="#191970" stroke="#191970" points="972.892,-63.5996 962.8276,-66.9099 972.7596,-70.5984 972.892,-63.5996"/>
</g>
<!-- Node10 -->
<g id="node10" class="node">
<title>Node10</title>
<polygon fill="#ffffff" stroke="#bfbfbf" points="2602.5,-241 2602.5,-260 2737.5,-260 2737.5,-241 2602.5,-241"/>
<text text-anchor="middle" x="2670" y="-248" font-family="Helvetica,sans-Serif" font-size="10.00" fill="#000000">xercesc/util/XMLString.hpp</text>
</g>
<!-- Node3&#45;&gt;Node10 -->
<g id="edge9" class="edge">
<title>Node3&#45;&gt;Node10</title>
<path fill="none" stroke="#191970" d="M2555.1989,-307.9005C2577.8862,-296.5569 2615.8313,-277.5844 2641.8435,-264.5783"/>
<polygon fill="#191970" stroke="#191970" points="2643.4577,-267.6843 2650.8367,-260.0817 2640.3271,-261.4234 2643.4577,-267.6843"/>
</g>
<!-- Node3&#45;&gt;Node11 -->
<g id="edge10" class="edge">
<title>Node3&#45;&gt;Node11</title>
<path fill="none" stroke="#191970" d="M2574.6375,-307.9474C2582.6864,-305.9705 2591.1181,-303.9092 2599,-302 2655.8326,-288.2337 2721.1493,-272.7005 2764.9434,-262.3272"/>
<polygon fill="#191970" stroke="#191970" points="2765.8469,-265.7102 2774.7715,-260.0004 2764.2341,-258.8985 2765.8469,-265.7102"/>
</g>
<!-- Node8 -->
<g id="node8" class="node">
<title>Node8</title>
<polygon fill="#ffffff" stroke="#bfbfbf" points="839,-.5 839,-19.5 911,-19.5 911,-.5 839,-.5"/>
<text text-anchor="middle" x="875" y="-7.5" font-family="Helvetica,sans-Serif" font-size="10.00" fill="#000000">sys/socket.h</text>
</g>
<!-- Node7&#45;&gt;Node8 -->
<g id="edge7" class="edge">
<title>Node7&#45;&gt;Node8</title>
<path fill="none" stroke="#191970" d="M906.3809,-56.2455C901.0954,-48.4564 893.5459,-37.3308 887.1762,-27.9439"/>
<polygon fill="#191970" stroke="#191970" points="890.0545,-25.9522 881.5432,-19.6427 884.2621,-29.8827 890.0545,-25.9522"/>
</g>
<!-- Node9 -->
<g id="node9" class="node">
<title>Node9</title>
<polygon fill="#ffffff" stroke="#bfbfbf" points="929,-.5 929,-19.5 973,-19.5 973,-.5 929,-.5"/>
<text text-anchor="middle" x="951" y="-7.5" font-family="Helvetica,sans-Serif" font-size="10.00" fill="#000000">cmath</text>
</g>
<!-- Node7&#45;&gt;Node9 -->
<g id="edge8" class="edge">
<title>Node7&#45;&gt;Node9</title>
<path fill="none" stroke="#191970" d="M919.6191,-56.2455C924.9046,-48.4564 932.4541,-37.3308 938.8238,-27.9439"/>
<polygon fill="#191970" stroke="#191970" points="941.7379,-29.8827 944.4568,-19.6427 935.9455,-25.9522 941.7379,-29.8827"/>
</g>
<!-- Node12&#45;&gt;Node5 -->
<g id="edge15" class="edge">
<title>Node12&#45;&gt;Node5</title>
<path fill="none" stroke="#191970" d="M1778.2004,-173.9581C1850.182,-160.5434 1978.5013,-136.6293 2032.2471,-126.613"/>
<polygon fill="#191970" stroke="#191970" points="2033.0611,-130.0217 2042.2506,-124.7487 2031.7786,-123.1402 2033.0611,-130.0217"/>
</g>
<!-- Node12&#45;&gt;Node6 -->
<g id="edge13" class="edge">
<title>Node12&#45;&gt;Node6</title>
<path fill="none" stroke="#191970" d="M1728.5548,-173.8845C1731.6584,-154.6913 1738.6772,-111.286 1742.8037,-85.7663"/>
<polygon fill="#191970" stroke="#191970" points="1746.2824,-86.1789 1744.4237,-75.7484 1739.3722,-85.0614 1746.2824,-86.1789"/>
</g>
<!-- Node12&#45;&gt;Node7 -->
<g id="edge12" class="edge">
<title>Node12&#45;&gt;Node7</title>
<path fill="none" stroke="#191970" d="M1699.8183,-173.8921C1654.0605,-158.1498 1558.4583,-127.1064 1475,-112 1294.0912,-79.2546 1076.1632,-69.7975 972.8883,-67.0826"/>
<polygon fill="#191970" stroke="#191970" points="972.7444,-63.578 962.6597,-66.8261 972.5688,-70.5758 972.7444,-63.578"/>
</g>
<!-- Node13 -->
<g id="node13" class="node">
<title>Node13</title>
<polygon fill="#ffffff" stroke="#bfbfbf" points="1430,-112.5 1430,-131.5 1466,-131.5 1466,-112.5 1430,-112.5"/>
<text text-anchor="middle" x="1448" y="-119.5" font-family="Helvetica,sans-Serif" font-size="10.00" fill="#000000">map</text>
</g>
<!-- Node12&#45;&gt;Node13 -->
<g id="edge14" class="edge">
<title>Node12&#45;&gt;Node13</title>
<path fill="none" stroke="#191970" d="M1683.7124,-173.9581C1625.8186,-161.1966 1524.8197,-138.9334 1476.0012,-128.1723"/>
<polygon fill="#191970" stroke="#191970" points="1476.6544,-124.7323 1466.1354,-125.9976 1475.1475,-131.5682 1476.6544,-124.7323"/>
</g>
<!-- Node14&#45;&gt;Node13 -->
<g id="edge17" class="edge">
<title>Node14&#45;&gt;Node13</title>
<path fill="none" stroke="#191970" d="M1424.5703,-570.427C1411.6291,-562.3985 1394.6202,-549.7301 1385,-534 1369.1281,-508.0478 1374.1277,-497.2597 1371,-467 1357.925,-340.5018 1416.4708,-192.739 1439.2553,-141.024"/>
<polygon fill="#191970" stroke="#191970" points="1442.5198,-142.298 1443.4201,-131.7415 1436.1332,-139.4325 1442.5198,-142.298"/>
</g>
<!-- Node15 -->
<g id="node15" class="node">
<title>Node15</title>
<g id="a_node15"><a xlink:href="$_interpreter_8h.html" xlink:title="uscxml/Interpreter.h">
<polygon fill="#ffffff" stroke="#000000" points="783.5,-375 783.5,-394 888.5,-394 888.5,-375 783.5,-375"/>
<text text-anchor="middle" x="836" y="-382" font-family="Helvetica,sans-Serif" font-size="10.00" fill="#000000">uscxml/Interpreter.h</text>
</a>
</g>
</g>
<!-- Node14&#45;&gt;Node15 -->
<g id="edge18" class="edge">
<title>Node14&#45;&gt;Node15</title>
<path fill="none" stroke="#191970" d="M1402.3598,-571.3224C1364.6917,-562.7994 1306.5959,-548.9331 1257,-534 1110.8799,-490.0039 940.6931,-425.3307 869.7382,-397.7491"/>
<polygon fill="#191970" stroke="#191970" points="870.986,-394.479 860.3976,-394.1094 868.4444,-401.0014 870.986,-394.479"/>
</g>
<!-- Node34 -->
<g id="node34" class="node">
<title>Node34</title>
<g id="a_node34"><a xlink:href="$_interpreter_impl_8h.html" xlink:title="uscxml/interpreter\l/InterpreterImpl.h">
<polygon fill="#ffffff" stroke="#000000" points="1394,-503.5 1394,-533.5 1490,-533.5 1490,-503.5 1394,-503.5"/>
<text text-anchor="start" x="1402" y="-521.5" font-family="Helvetica,sans-Serif" font-size="10.00" fill="#000000">uscxml/interpreter</text>
<text text-anchor="middle" x="1442" y="-510.5" font-family="Helvetica,sans-Serif" font-size="10.00" fill="#000000">/InterpreterImpl.h</text>
</a>
</g>
</g>
<!-- Node14&#45;&gt;Node34 -->
<g id="edge78" class="edge">
<title>Node14&#45;&gt;Node34</title>
<path fill="none" stroke="#191970" d="M1442,-570.3906C1442,-563.2234 1442,-553.0862 1442,-543.671"/>
<polygon fill="#191970" stroke="#191970" points="1445.5001,-543.5446 1442,-533.5446 1438.5001,-543.5446 1445.5001,-543.5446"/>
</g>
<!-- Node15&#45;&gt;Node6 -->
<g id="edge21" class="edge">
<title>Node15&#45;&gt;Node6</title>
<path fill="none" stroke="#191970" d="M837.0442,-374.8816C839.4723,-357.4727 847.1541,-320.8034 870,-302 932.9921,-250.1542 971.95,-289.7528 1050,-266 1220.796,-214.0219 1248.7971,-159.1079 1421,-112 1526.8199,-83.0518 1657.2815,-71.6283 1715.4776,-67.7428"/>
<polygon fill="#191970" stroke="#191970" points="1715.7249,-71.2342 1725.4809,-67.1025 1715.2777,-64.2485 1715.7249,-71.2342"/>
</g>
<!-- Node15&#45;&gt;Node7 -->
<g id="edge19" class="edge">
<title>Node15&#45;&gt;Node7</title>
<path fill="none" stroke="#191970" d="M783.4573,-376.8772C705.2459,-365.2828 565.0997,-343.4613 544,-333 504.6915,-313.5108 416.5855,-239.1963 399,-199 393.4777,-186.3773 392.1929,-179.9788 399,-168 423.0261,-125.7201 446.888,-127.4443 493,-112 558.2464,-90.147 753.432,-75.6187 853.0618,-69.4159"/>
<polygon fill="#191970" stroke="#191970" points="853.5038,-72.8954 863.2703,-68.7887 853.0744,-65.9086 853.5038,-72.8954"/>
</g>
<!-- Node15&#45;&gt;Node13 -->
<g id="edge20" class="edge">
<title>Node15&#45;&gt;Node13</title>
<path fill="none" stroke="#191970" d="M841.643,-374.8206C852.6314,-356.9695 878.7629,-319.1266 912,-302 1025.8841,-243.3173 1077.6727,-309.9837 1198,-266 1273.1434,-238.5325 1278.9931,-206.7301 1349,-168 1372.515,-154.9907 1400.3534,-142.2802 1420.5115,-133.5288"/>
<polygon fill="#191970" stroke="#191970" points="1421.9302,-136.7287 1429.7377,-129.5667 1419.168,-130.2967 1421.9302,-136.7287"/>
</g>
<!-- Node15&#45;&gt;Node16 -->
<g id="edge22" class="edge">
<title>Node15&#45;&gt;Node16</title>
<path fill="none" stroke="#191970" d="M851.3305,-374.9005C869.0491,-363.8057 898.4228,-345.4128 919.1368,-332.4424"/>
<polygon fill="#191970" stroke="#191970" points="921.0799,-335.3553 927.6979,-327.0817 917.3649,-329.4224 921.0799,-335.3553"/>
</g>
<!-- Node17 -->
<g id="node17" class="node">
<title>Node17</title>
<g id="a_node17"><a xlink:href="$_micro_step_8h.html" xlink:title="uscxml/interpreter\l/MicroStep.h">
<polygon fill="#ffffff" stroke="#000000" points="522,-235.5 522,-265.5 618,-265.5 618,-235.5 522,-235.5"/>
<text text-anchor="start" x="530" y="-253.5" font-family="Helvetica,sans-Serif" font-size="10.00" fill="#000000">uscxml/interpreter</text>
<text text-anchor="middle" x="570" y="-242.5" font-family="Helvetica,sans-Serif" font-size="10.00" fill="#000000">/MicroStep.h</text>
</a>
</g>
</g>
<!-- Node15&#45;&gt;Node17 -->
<g id="edge23" class="edge">
<title>Node15&#45;&gt;Node17</title>
<path fill="none" stroke="#191970" d="M794.4093,-374.9294C735.9832,-361.3727 635.9107,-337.6966 629,-333 607.6686,-318.5031 591.4329,-293.5886 581.4448,-274.9227"/>
<polygon fill="#191970" stroke="#191970" points="584.4616,-273.1344 576.7972,-265.8195 578.2271,-276.3174 584.4616,-273.1344"/>
</g>
<!-- Node25 -->
<g id="node25" class="node">
<title>Node25</title>
<g id="a_node25"><a xlink:href="$_interpreter_state_8h.html" xlink:title="uscxml/interpreter\l/InterpreterState.h">
<polygon fill="#ffffff" stroke="#000000" points="408.5,-168.5 408.5,-198.5 505.5,-198.5 505.5,-168.5 408.5,-168.5"/>
<text text-anchor="start" x="416.5" y="-186.5" font-family="Helvetica,sans-Serif" font-size="10.00" fill="#000000">uscxml/interpreter</text>
<text text-anchor="middle" x="457" y="-175.5" font-family="Helvetica,sans-Serif" font-size="10.00" fill="#000000">/InterpreterState.h</text>
</a>
</g>
</g>
<!-- Node15&#45;&gt;Node25 -->
<g id="edge77" class="edge">
<title>Node15&#45;&gt;Node25</title>
<path fill="none" stroke="#191970" d="M795.2869,-374.9292C786.6184,-372.9341 777.5126,-370.8701 769,-369 692.2933,-352.1483 666.9835,-366.6042 596,-333 553.1511,-312.715 545.1065,-300.8809 513,-266 496.4807,-248.0532 481.1807,-224.8688 470.7625,-207.6497"/>
<polygon fill="#191970" stroke="#191970" points="473.6088,-205.5874 465.5001,-198.7684 467.5866,-209.1557 473.6088,-205.5874"/>
</g>
<!-- Node15&#45;&gt;Node26 -->
<g id="edge45" class="edge">
<title>Node15&#45;&gt;Node26</title>
<path fill="none" stroke="#191970" d="M783.355,-379.5428C697.1938,-371.2308 520.7564,-353.3771 372,-333 360.1,-331.3699 347.3935,-329.4333 335.2715,-327.4908"/>
<polygon fill="#191970" stroke="#191970" points="335.6888,-324.0128 325.257,-325.8644 334.5666,-330.9223 335.6888,-324.0128"/>
</g>
<!-- Node29 -->
<g id="node29" class="node">
<title>Node29</title>
<g id="a_node29"><a xlink:href="$_data_model_8h.html" xlink:title="uscxml/plugins/DataModel.h">
<polygon fill="#ffffff" stroke="#000000" points="647,-308 647,-327 789,-327 789,-308 647,-308"/>
<text text-anchor="middle" x="718" y="-315" font-family="Helvetica,sans-Serif" font-size="10.00" fill="#000000">uscxml/plugins/DataModel.h</text>
</a>
</g>
</g>
<!-- Node15&#45;&gt;Node29 -->
<g id="edge54" class="edge">
<title>Node15&#45;&gt;Node29</title>
<path fill="none" stroke="#191970" d="M819.0935,-374.9005C799.378,-363.7062 766.5778,-345.0823 743.7041,-332.0947"/>
<polygon fill="#191970" stroke="#191970" points="745.2993,-328.9757 734.8752,-327.0817 741.843,-335.0629 745.2993,-328.9757"/>
</g>
<!-- Node30 -->
<g id="node30" class="node">
<title>Node30</title>
<g id="a_node30"><a xlink:href="$_factory_8h.html" xlink:title="uscxml/plugins/Factory.h">
<polygon fill="#ffffff" stroke="#000000" points="1527.5,-308 1527.5,-327 1654.5,-327 1654.5,-308 1527.5,-308"/>
<text text-anchor="middle" x="1591" y="-315" font-family="Helvetica,sans-Serif" font-size="10.00" fill="#000000">uscxml/plugins/Factory.h</text>
</a>
</g>
</g>
<!-- Node15&#45;&gt;Node30 -->
<g id="edge60" class="edge">
<title>Node15&#45;&gt;Node30</title>
<path fill="none" stroke="#191970" d="M888.7901,-379.8153C1020.7751,-368.1027 1365.3779,-337.5221 1517.2712,-324.0428"/>
<polygon fill="#191970" stroke="#191970" points="1517.7798,-327.5115 1527.4313,-323.1412 1517.161,-320.5389 1517.7798,-327.5115"/>
</g>
<!-- Node32 -->
<g id="node32" class="node">
<title>Node32</title>
<g id="a_node32"><a xlink:href="$_content_executor_8h.html" xlink:title="uscxml/interpreter\l/ContentExecutor.h">
<polygon fill="#ffffff" stroke="#000000" points="674,-235.5 674,-265.5 776,-265.5 776,-235.5 674,-235.5"/>
<text text-anchor="start" x="682" y="-253.5" font-family="Helvetica,sans-Serif" font-size="10.00" fill="#000000">uscxml/interpreter</text>
<text text-anchor="middle" x="725" y="-242.5" font-family="Helvetica,sans-Serif" font-size="10.00" fill="#000000">/ContentExecutor.h</text>
</a>
</g>
</g>
<!-- Node15&#45;&gt;Node32 -->
<g id="edge70" class="edge">
<title>Node15&#45;&gt;Node32</title>
<path fill="none" stroke="#191970" d="M797.0204,-374.9946C740.0491,-361.0134 640.4781,-336.2051 638,-333 629.5726,-322.1002 631.1761,-313.9692 638,-302 645.773,-288.366 658.7294,-277.9735 672.3003,-270.2212"/>
<polygon fill="#191970" stroke="#191970" points="674.0434,-273.2589 681.2587,-265.5007 670.7801,-267.0661 674.0434,-273.2589"/>
</g>
<!-- Node33 -->
<g id="node33" class="node">
<title>Node33</title>
<g id="a_node33"><a xlink:href="$_event_queue_8h.html" xlink:title="uscxml/interpreter\l/EventQueue.h">
<polygon fill="#ffffff" stroke="#000000" points="381,-302.5 381,-332.5 477,-332.5 477,-302.5 381,-302.5"/>
<text text-anchor="start" x="389" y="-320.5" font-family="Helvetica,sans-Serif" font-size="10.00" fill="#000000">uscxml/interpreter</text>
<text text-anchor="middle" x="429" y="-309.5" font-family="Helvetica,sans-Serif" font-size="10.00" fill="#000000">/EventQueue.h</text>
</a>
</g>
</g>
<!-- Node15&#45;&gt;Node33 -->
<g id="edge74" class="edge">
<title>Node15&#45;&gt;Node33</title>
<path fill="none" stroke="#191970" d="M797.8689,-374.9938C788.4684,-372.8398 778.4003,-370.6918 769,-369 646.3826,-346.9328 613.418,-356.1475 491,-333 489.7429,-332.7623 488.4732,-332.5146 487.1946,-332.2582"/>
<polygon fill="#191970" stroke="#191970" points="487.7901,-328.8065 477.2803,-330.1462 486.3316,-335.6529 487.7901,-328.8065"/>
</g>
<!-- Node17&#45;&gt;Node5 -->
<g id="edge25" class="edge">
<title>Node17&#45;&gt;Node5</title>
<path fill="none" stroke="#191970" d="M618.1705,-241.3957C633.1246,-238.9052 649.6977,-236.4855 665,-235 915.284,-210.7026 1549.3849,-248.1267 1796,-199 1834.2111,-191.3882 1840.8539,-179.7554 1878,-168 1932.3788,-150.7911 1997.546,-135.3017 2032.2995,-127.4413"/>
<polygon fill="#191970" stroke="#191970" points="2033.4691,-130.7661 2042.4622,-125.1648 2031.9389,-123.9354 2033.4691,-130.7661"/>
</g>
<!-- Node17&#45;&gt;Node6 -->
<g id="edge26" class="edge">
<title>Node17&#45;&gt;Node6</title>
<path fill="none" stroke="#191970" d="M618.0375,-241.9337C684.8242,-229.8035 799.5387,-208.0874 817,-199 834.8504,-189.7101 833.0429,-178.8348 850,-168 857.0155,-163.5174 980.8786,-113.8318 989,-112 1130.8197,-80.0125 1591.2771,-68.9817 1715.1011,-66.5547"/>
<polygon fill="#191970" stroke="#191970" points="1715.4434,-70.0489 1725.3746,-66.3582 1715.3095,-63.0502 1715.4434,-70.0489"/>
</g>
<!-- Node17&#45;&gt;Node7 -->
<g id="edge27" class="edge">
<title>Node17&#45;&gt;Node7</title>
<path fill="none" stroke="#191970" d="M568.0066,-235.3796C565.1651,-206.7428 563.6221,-144.5546 598,-112 616.2206,-94.7458 767.1304,-78.8211 853.2881,-71.0237"/>
<polygon fill="#191970" stroke="#191970" points="853.8126,-74.4909 863.4609,-70.1136 853.1888,-67.5187 853.8126,-74.4909"/>
</g>
<!-- Node18 -->
<g id="node18" class="node">
<title>Node18</title>
<polygon fill="#ffffff" stroke="#bfbfbf" points="201.5,-56.5 201.5,-75.5 254.5,-75.5 254.5,-56.5 201.5,-56.5"/>
<text text-anchor="middle" x="228" y="-63.5" font-family="Helvetica,sans-Serif" font-size="10.00" fill="#000000">memory</text>
</g>
<!-- Node17&#45;&gt;Node18 -->
<g id="edge24" class="edge">
<title>Node17&#45;&gt;Node18</title>
<path fill="none" stroke="#191970" d="M563.3218,-235.2453C554.5332,-216.8392 537.412,-186.1145 514,-168 437.2657,-108.6285 323.0437,-81.9053 264.8961,-71.5734"/>
<polygon fill="#191970" stroke="#191970" points="265.16,-68.0677 254.7129,-69.8307 263.9793,-74.9674 265.16,-68.0677"/>
</g>
<!-- Node19 -->
<g id="node19" class="node">
<title>Node19</title>
<g id="a_node19"><a xlink:href="$_data_8h.html" xlink:title="uscxml/messages/Data.h">
<polygon fill="#ffffff" stroke="#000000" points="680,-174 680,-193 808,-193 808,-174 680,-174"/>
<text text-anchor="middle" x="744" y="-181" font-family="Helvetica,sans-Serif" font-size="10.00" fill="#000000">uscxml/messages/Data.h</text>
</a>
</g>
</g>
<!-- Node17&#45;&gt;Node19 -->
<g id="edge28" class="edge">
<title>Node17&#45;&gt;Node19</title>
<path fill="none" stroke="#191970" d="M609.049,-235.4639C639.2542,-223.8332 680.6736,-207.8843 709.6307,-196.7342"/>
<polygon fill="#191970" stroke="#191970" points="711.2403,-199.865 719.3146,-193.0053 708.7248,-193.3325 711.2403,-199.865"/>
</g>
<!-- Node17&#45;&gt;Node25 -->
<g id="edge43" class="edge">
<title>Node17&#45;&gt;Node25</title>
<path fill="none" stroke="#191970" d="M544.6406,-235.4639C528.9037,-226.1332 508.4795,-214.0232 491.3072,-203.8415"/>
<polygon fill="#191970" stroke="#191970" points="493.0525,-200.8073 482.6657,-198.7177 489.4824,-206.8285 493.0525,-200.8073"/>
</g>
<!-- Node19&#45;&gt;Node5 -->
<g id="edge29" class="edge">
<title>Node19&#45;&gt;Node5</title>
<path fill="none" stroke="#191970" d="M808.0268,-179.4559C861.2725,-176.1578 939.0529,-171.4904 1007,-168 1416.5815,-146.96 1916.3556,-127.406 2032.2135,-122.9476"/>
<polygon fill="#191970" stroke="#191970" points="2032.6346,-126.4341 2042.4929,-122.5529 2032.366,-119.4393 2032.6346,-126.4341"/>
</g>
<!-- Node19&#45;&gt;Node7 -->
<g id="edge33" class="edge">
<title>Node19&#45;&gt;Node7</title>
<path fill="none" stroke="#191970" d="M757.83,-173.8845C787.0447,-153.5724 855.2623,-106.1431 890.7151,-81.4939"/>
<polygon fill="#191970" stroke="#191970" points="892.7664,-84.3306 898.9789,-75.7484 888.7704,-78.5832 892.7664,-84.3306"/>
</g>
<!-- Node19&#45;&gt;Node13 -->
<g id="edge30" class="edge">
<title>Node19&#45;&gt;Node13</title>
<path fill="none" stroke="#191970" d="M808.029,-177.9066C955.8353,-164.9945 1316.0948,-133.523 1419.7005,-124.4722"/>
<polygon fill="#191970" stroke="#191970" points="1420.0575,-127.9544 1429.715,-123.5973 1419.4483,-120.981 1420.0575,-127.9544"/>
</g>
<!-- Node19&#45;&gt;Node18 -->
<g id="edge31" class="edge">
<title>Node19&#45;&gt;Node18</title>
<path fill="none" stroke="#191970" d="M710.9418,-173.899C660.2374,-159.3656 560.09,-131.42 474,-112 400.1606,-95.3434 312.8925,-80.0538 264.67,-71.9846"/>
<polygon fill="#191970" stroke="#191970" points="265.1452,-68.5157 254.7064,-70.3274 263.9966,-75.4208 265.1452,-68.5157"/>
</g>
<!-- Node20 -->
<g id="node20" class="node">
<title>Node20</title>
<polygon fill="#ffffff" stroke="#bfbfbf" points="862.5,-112.5 862.5,-131.5 925.5,-131.5 925.5,-112.5 862.5,-112.5"/>
<text text-anchor="middle" x="894" y="-119.5" font-family="Helvetica,sans-Serif" font-size="10.00" fill="#000000">type_traits</text>
</g>
<!-- Node19&#45;&gt;Node20 -->
<g id="edge32" class="edge">
<title>Node19&#45;&gt;Node20</title>
<path fill="none" stroke="#191970" d="M767.4375,-173.8906C792.6453,-163.5554 832.9153,-147.0447 861.2477,-135.4284"/>
<polygon fill="#191970" stroke="#191970" points="862.8023,-138.5739 870.7271,-131.5419 860.1468,-132.0971 862.8023,-138.5739"/>
</g>
<!-- Node21 -->
<g id="node21" class="node">
<title>Node21</title>
<g id="a_node21"><a xlink:href="$_convenience_8h.html" xlink:title="uscxml/util/Convenience.h">
<polygon fill="#ffffff" stroke="#000000" points="2678.5,-112.5 2678.5,-131.5 2811.5,-131.5 2811.5,-112.5 2678.5,-112.5"/>
<text text-anchor="middle" x="2745" y="-119.5" font-family="Helvetica,sans-Serif" font-size="10.00" fill="#000000">uscxml/util/Convenience.h</text>
</a>
</g>
</g>
<!-- Node19&#45;&gt;Node21 -->
<g id="edge34" class="edge">
<title>Node19&#45;&gt;Node21</title>
<path fill="none" stroke="#191970" d="M808.0122,-179.146C861.2493,-175.6646 939.0252,-170.9018 1007,-168 1648.7896,-140.602 2424.6353,-126.9667 2668.1124,-123.1463"/>
<polygon fill="#191970" stroke="#191970" points="2668.3284,-126.6434 2678.2726,-122.9877 2668.2191,-119.6443 2668.3284,-126.6434"/>
</g>
<!-- Node24 -->
<g id="node24" class="node">
<title>Node24</title>
<g id="a_node24"><a xlink:href="$_blob_8h.html" xlink:title="uscxml/messages/Blob.h">
<polygon fill="#ffffff" stroke="#000000" points="678.5,-112.5 678.5,-131.5 805.5,-131.5 805.5,-112.5 678.5,-112.5"/>
<text text-anchor="middle" x="742" y="-119.5" font-family="Helvetica,sans-Serif" font-size="10.00" fill="#000000">uscxml/messages/Blob.h</text>
</a>
</g>
</g>
<!-- Node19&#45;&gt;Node24 -->
<g id="edge39" class="edge">
<title>Node19&#45;&gt;Node24</title>
<path fill="none" stroke="#191970" d="M743.6875,-173.8906C743.4103,-165.3657 742.9964,-152.6392 742.6479,-141.9235"/>
<polygon fill="#191970" stroke="#191970" points="746.1402,-141.6258 742.3169,-131.7449 739.1439,-141.8534 746.1402,-141.6258"/>
</g>
<!-- Node21&#45;&gt;Node6 -->
<g id="edge36" class="edge">
<title>Node21&#45;&gt;Node6</title>
<path fill="none" stroke="#191970" d="M2678.2953,-113.3747C2673.4618,-112.8695 2668.6584,-112.4037 2664,-112 2316.7054,-81.901 1893.6604,-69.6748 1777.0373,-66.7359"/>
<polygon fill="#191970" stroke="#191970" points="1776.8043,-63.2291 1766.7206,-66.4802 1776.6308,-70.227 1776.8043,-63.2291"/>
</g>
<!-- Node21&#45;&gt;Node7 -->
<g id="edge35" class="edge">
<title>Node21&#45;&gt;Node7</title>
<path fill="none" stroke="#191970" d="M2678.444,-119.9655C2389.8175,-111.1429 1248.6051,-76.2587 973.0958,-67.837"/>
<polygon fill="#191970" stroke="#191970" points="973.0032,-64.3326 962.9009,-67.5254 972.7893,-71.3294 973.0032,-64.3326"/>
</g>
<!-- Node22 -->
<g id="node22" class="node">
<title>Node22</title>
<polygon fill="#ffffff" stroke="#bfbfbf" points="2813.5,-56.5 2813.5,-75.5 2852.5,-75.5 2852.5,-56.5 2813.5,-56.5"/>
<text text-anchor="middle" x="2833" y="-63.5" font-family="Helvetica,sans-Serif" font-size="10.00" fill="#000000">limits</text>
</g>
<!-- Node21&#45;&gt;Node22 -->
<g id="edge37" class="edge">
<title>Node21&#45;&gt;Node22</title>
<path fill="none" stroke="#191970" d="M2760.3284,-112.2455C2773.8303,-103.6534 2793.7122,-91.0014 2809.2686,-81.1018"/>
<polygon fill="#191970" stroke="#191970" points="2811.2897,-83.9643 2817.8472,-75.6427 2807.5315,-78.0587 2811.2897,-83.9643"/>
</g>
<!-- Node21&#45;&gt;Node23 -->
<g id="edge38" class="edge">
<title>Node21&#45;&gt;Node23</title>
<path fill="none" stroke="#191970" d="M2771.1297,-112.3733C2796.0768,-103.1822 2833.8592,-89.2624 2861.5206,-79.0713"/>
<polygon fill="#191970" stroke="#191970" points="2863.0378,-82.2424 2871.2112,-75.5011 2860.6178,-75.674 2863.0378,-82.2424"/>
</g>
<!-- Node24&#45;&gt;Node6 -->
<g id="edge40" class="edge">
<title>Node24&#45;&gt;Node6</title>
<path fill="none" stroke="#191970" d="M805.6533,-115.8428C821.1373,-114.4618 837.656,-113.086 853,-112 1190.531,-88.1113 1600.668,-71.5545 1715.0782,-67.1623"/>
<polygon fill="#191970" stroke="#191970" points="1715.3555,-70.6544 1725.2147,-66.7754 1715.0884,-63.6595 1715.3555,-70.6544"/>
</g>
<!-- Node24&#45;&gt;Node7 -->
<g id="edge42" class="edge">
<title>Node24&#45;&gt;Node7</title>
<path fill="none" stroke="#191970" d="M771.3959,-112.3733C799.8307,-103.0613 843.0877,-88.8953 874.3081,-78.671"/>
<polygon fill="#191970" stroke="#191970" points="875.5736,-81.9396 883.9876,-75.5011 873.395,-75.2872 875.5736,-81.9396"/>
</g>
<!-- Node24&#45;&gt;Node18 -->
<g id="edge41" class="edge">
<title>Node24&#45;&gt;Node18</title>
<path fill="none" stroke="#191970" d="M678.458,-115.0771C569.7778,-103.2365 351.5428,-79.4599 264.7865,-70.0079"/>
<polygon fill="#191970" stroke="#191970" points="264.9549,-66.5056 254.6346,-68.9018 264.1967,-73.4644 264.9549,-66.5056"/>
</g>
<!-- Node25&#45;&gt;Node7 -->
<g id="edge44" class="edge">
<title>Node25&#45;&gt;Node7</title>
<path fill="none" stroke="#191970" d="M466.0726,-168.2295C477.0163,-151.3366 497.0863,-124.8138 522,-112 578.3725,-83.006 758.3313,-71.8782 853.1852,-67.948"/>
<polygon fill="#191970" stroke="#191970" points="853.353,-71.4442 863.2048,-67.5465 853.0727,-64.4498 853.353,-71.4442"/>
</g>
<!-- Node26&#45;&gt;Node7 -->
<g id="edge46" class="edge">
<title>Node26&#45;&gt;Node7</title>
<path fill="none" stroke="#191970" d="M276.0469,-302.3613C274.474,-262.2624 276.6223,-153.5388 342,-112 384.3885,-85.0678 715.3595,-71.9984 853.1326,-67.6823"/>
<polygon fill="#191970" stroke="#191970" points="853.6112,-71.1693 863.4985,-67.3627 853.3954,-64.1727 853.6112,-71.1693"/>
</g>
<!-- Node26&#45;&gt;Node18 -->
<g id="edge53" class="edge">
<title>Node26&#45;&gt;Node18</title>
<path fill="none" stroke="#191970" d="M258.7192,-302.2978C225.6877,-273.3498 157.6603,-206.5155 138,-132 135.7323,-123.4052 133.3603,-119.5819 138,-112 149.6747,-92.9216 172.0358,-81.4378 191.5472,-74.7156"/>
<polygon fill="#191970" stroke="#191970" points="192.6381,-78.0416 201.1273,-71.7025 190.5378,-71.3641 192.6381,-78.0416"/>
</g>
<!-- Node26&#45;&gt;Node19 -->
<g id="edge47" class="edge">
<title>Node26&#45;&gt;Node19</title>
<path fill="none" stroke="#191970" d="M315.8031,-302.362C362.2051,-284.628 442.4608,-255.118 513,-235 570.0587,-218.7267 636.247,-204.4257 683.11,-195.0499"/>
<polygon fill="#191970" stroke="#191970" points="683.975,-198.4465 693.1023,-193.0667 682.6123,-191.5805 683.975,-198.4465"/>
</g>
<!-- Node27 -->
<g id="node27" class="node">
<title>Node27</title>
<g id="a_node27"><a xlink:href="$_event_8h.html" xlink:title="uscxml/messages/Event.h">
<polygon fill="#ffffff" stroke="#000000" points="908.5,-241 908.5,-260 1041.5,-260 1041.5,-241 908.5,-241"/>
<text text-anchor="middle" x="975" y="-248" font-family="Helvetica,sans-Serif" font-size="10.00" fill="#000000">uscxml/messages/Event.h</text>
</a>
</g>
</g>
<!-- Node26&#45;&gt;Node27 -->
<g id="edge48" class="edge">
<title>Node26&#45;&gt;Node27</title>
<path fill="none" stroke="#191970" d="M325.2357,-304.5989C329.8664,-303.6149 334.5091,-302.7247 339,-302 549.7626,-267.9879 605.3128,-284.4888 818,-266 844.1365,-263.728 872.6939,-260.9862 898.2016,-258.4443"/>
<polygon fill="#191970" stroke="#191970" points="898.5842,-261.9236 908.1855,-257.4442 897.8864,-254.9584 898.5842,-261.9236"/>
</g>
<!-- Node27&#45;&gt;Node19 -->
<g id="edge49" class="edge">
<title>Node27&#45;&gt;Node19</title>
<path fill="none" stroke="#191970" d="M941.9033,-240.9005C901.0779,-229.0594 831.5918,-208.9054 786.7609,-195.9025"/>
<polygon fill="#191970" stroke="#191970" points="787.6145,-192.5059 777.0353,-193.0817 785.6645,-199.2288 787.6145,-192.5059"/>
</g>
<!-- Node27&#45;&gt;Node28 -->
<g id="edge50" class="edge">
<title>Node27&#45;&gt;Node28</title>
<path fill="none" stroke="#191970" d="M988.0381,-240.9005C1002.7693,-230.0544 1026.9733,-212.2339 1044.5092,-199.3229"/>
<polygon fill="#191970" stroke="#191970" points="1047.0085,-201.8291 1052.9861,-193.0817 1042.8582,-196.1922 1047.0085,-201.8291"/>
</g>
<!-- Node28&#45;&gt;Node6 -->
<g id="edge52" class="edge">
<title>Node28&#45;&gt;Node6</title>
<path fill="none" stroke="#191970" d="M1099.4358,-173.8969C1153.4021,-158.7188 1263.2454,-129.1516 1358,-112 1489.8309,-88.1372 1649.1902,-73.7148 1715.1334,-68.3698"/>
<polygon fill="#191970" stroke="#191970" points="1715.5675,-71.8464 1725.2571,-67.5615 1715.0103,-64.8686 1715.5675,-71.8464"/>
</g>
<!-- Node28&#45;&gt;Node7 -->
<g id="edge51" class="edge">
<title>Node28&#45;&gt;Node7</title>
<path fill="none" stroke="#191970" d="M1059.6713,-173.5985C1049.7329,-158.6727 1029.1904,-130.2215 1006,-112 988.7114,-98.4157 966.7664,-87.3277 948.5358,-79.4438"/>
<polygon fill="#191970" stroke="#191970" points="949.6914,-76.1335 939.115,-75.5077 946.9927,-82.5924 949.6914,-76.1335"/>
</g>
<!-- Node29&#45;&gt;Node5 -->
<g id="edge57" class="edge">
<title>Node29&#45;&gt;Node5</title>
<path fill="none" stroke="#191970" d="M789.3662,-310.5386C1029.9407,-287.006 1799.079,-211.2095 1851,-199 1919.236,-182.954 1995.5498,-150.3203 2033.2599,-133.144"/>
<polygon fill="#191970" stroke="#191970" points="2034.7904,-136.2925 2042.4113,-128.9324 2031.8639,-129.9336 2034.7904,-136.2925"/>
</g>
<!-- Node29&#45;&gt;Node6 -->
<g id="edge58" class="edge">
<title>Node29&#45;&gt;Node6</title>
<path fill="none" stroke="#191970" d="M736.8073,-307.8339C756.9129,-297.496 789.7217,-280.6131 818,-266 902.0604,-222.5611 917.9754,-200.0579 1007,-168 1117.8057,-128.0987 1149.627,-130.0931 1266,-112 1434.3314,-85.8287 1638.3415,-72.1989 1714.9484,-67.7087"/>
<polygon fill="#191970" stroke="#191970" points="1715.525,-71.1814 1725.3072,-67.1121 1715.1225,-64.193 1715.525,-71.1814"/>
</g>
<!-- Node29&#45;&gt;Node7 -->
<g id="edge55" class="edge">
<title>Node29&#45;&gt;Node7</title>
<path fill="none" stroke="#191970" d="M703.7579,-307.8605C691.3655,-298.6459 674.0178,-283.5801 665,-266 633.6817,-204.945 609.9253,-164.5924 654,-112 678.902,-82.2855 784.6968,-71.7519 853.1316,-68.0271"/>
<polygon fill="#191970" stroke="#191970" points="853.5507,-71.5104 863.3595,-67.5057 853.1942,-64.5195 853.5507,-71.5104"/>
</g>
<!-- Node29&#45;&gt;Node18 -->
<g id="edge59" class="edge">
<title>Node29&#45;&gt;Node18</title>
<path fill="none" stroke="#191970" d="M646.6966,-311.5875C562.4745,-301.3247 421.9696,-273.5443 328,-199 286.6993,-166.237 253.4667,-112.6021 237.7858,-84.4993"/>
<polygon fill="#191970" stroke="#191970" points="240.8476,-82.8033 232.9868,-75.6998 234.7021,-86.1549 240.8476,-82.8033"/>
</g>
<!-- Node29&#45;&gt;Node27 -->
<g id="edge56" class="edge">
<title>Node29&#45;&gt;Node27</title>
<path fill="none" stroke="#191970" d="M754.5489,-307.9717C800.1851,-296.0743 878.3147,-275.7059 928.2596,-262.6852"/>
<polygon fill="#191970" stroke="#191970" points="929.3675,-266.0135 938.1611,-260.1039 927.6015,-259.2399 929.3675,-266.0135"/>
</g>
<!-- Node30&#45;&gt;Node4 -->
<g id="edge66" class="edge">
<title>Node30&#45;&gt;Node4</title>
<path fill="none" stroke="#191970" d="M1641.9125,-307.9717C1719.7133,-293.4112 1865.3082,-266.163 1923.7609,-255.2235"/>
<polygon fill="#191970" stroke="#191970" points="1924.7497,-258.5993 1933.9352,-253.3194 1923.462,-251.7188 1924.7497,-258.5993"/>
</g>
<!-- Node30&#45;&gt;Node6 -->
<g id="edge68" class="edge">
<title>Node30&#45;&gt;Node6</title>
<path fill="none" stroke="#191970" d="M1594.0975,-307.9068C1602.2387,-283.4196 1625.7812,-217.0732 1657,-168 1677.9547,-135.061 1709.1883,-101.9223 1728.5383,-82.7119"/>
<polygon fill="#191970" stroke="#191970" points="1731.104,-85.0982 1735.8016,-75.6017 1726.2072,-80.096 1731.104,-85.0982"/>
</g>
<!-- Node30&#45;&gt;Node7 -->
<g id="edge61" class="edge">
<title>Node30&#45;&gt;Node7</title>
<path fill="none" stroke="#191970" d="M1577.8879,-307.9251C1526.7361,-270.753 1340.0766,-136.8394 1272,-112 1218.4128,-92.4474 1060.2598,-77.4912 972.8164,-70.4466"/>
<polygon fill="#191970" stroke="#191970" points="973.0194,-66.9518 962.7732,-69.6472 972.4639,-73.9297 973.0194,-66.9518"/>
</g>
<!-- Node30&#45;&gt;Node13 -->
<g id="edge67" class="edge">
<title>Node30&#45;&gt;Node13</title>
<path fill="none" stroke="#191970" d="M1582.974,-307.7556C1574.5853,-297.4934 1561.1207,-280.8019 1550,-266 1516.5835,-221.5218 1479.252,-167.689 1460.3734,-140.1521"/>
<polygon fill="#191970" stroke="#191970" points="1463.0362,-137.8455 1454.502,-131.5671 1457.2582,-141.7972 1463.0362,-137.8455"/>
</g>
<!-- Node30&#45;&gt;Node18 -->
<g id="edge65" class="edge">
<title>Node30&#45;&gt;Node18</title>
<path fill="none" stroke="#191970" d="M1527.3743,-314.1433C1466.2605,-310.9407 1371.3261,-306.0223 1289,-302 1116.5758,-293.5757 678.4782,-315.1736 513,-266 452.4997,-248.0217 301.0582,-126.2898 247.3016,-82.0383"/>
<polygon fill="#191970" stroke="#191970" points="249.4807,-79.2987 239.5416,-75.6292 245.023,-84.6959 249.4807,-79.2987"/>
</g>
<!-- Node30&#45;&gt;Node22 -->
<g id="edge69" class="edge">
<title>Node30&#45;&gt;Node22</title>
<path fill="none" stroke="#191970" d="M1626.8056,-307.9632C1700.4868,-288.4525 1867.0189,-244.9749 1925,-235 2023.7604,-218.0095 2748.2331,-200.9003 2821,-132 2833.2649,-120.3868 2835.4844,-100.7491 2835.1041,-85.9063"/>
<polygon fill="#191970" stroke="#191970" points="2838.5817,-85.4504 2834.4298,-75.703 2831.5969,-85.912 2838.5817,-85.4504"/>
</g>
<!-- Node30&#45;&gt;Node31 -->
<g id="edge62" class="edge">
<title>Node30&#45;&gt;Node31</title>
<path fill="none" stroke="#191970" d="M1611.8925,-307.9475C1651.0425,-290.4785 1738.4988,-253.4828 1816,-235 1963.6272,-199.7932 2145.1665,-188.2475 2220.1107,-184.8167"/>
<polygon fill="#191970" stroke="#191970" points="2220.5404,-188.3014 2230.3778,-184.3676 2220.2344,-181.3081 2220.5404,-188.3014"/>
</g>
<!-- Node31&#45;&gt;Node5 -->
<g id="edge64" class="edge">
<title>Node31&#45;&gt;Node5</title>
<path fill="none" stroke="#191970" d="M2232.0406,-173.9481C2226.8041,-171.8891 2221.2386,-169.7941 2216,-168 2169.0648,-151.9258 2113.121,-136.6112 2081.6657,-128.3423"/>
<polygon fill="#191970" stroke="#191970" points="2082.1754,-124.8582 2071.6158,-125.7216 2080.409,-131.6317 2082.1754,-124.8582"/>
</g>
<!-- Node31&#45;&gt;Node6 -->
<g id="edge63" class="edge">
<title>Node31&#45;&gt;Node6</title>
<path fill="none" stroke="#191970" d="M2236.2422,-173.9304C2204.9302,-158.3865 2139.6548,-127.8028 2081,-112 1971.6061,-82.527 1836.7653,-71.349 1777.0136,-67.6319"/>
<polygon fill="#191970" stroke="#191970" points="1776.9436,-64.1217 1766.7535,-67.022 1776.5282,-71.1093 1776.9436,-64.1217"/>
</g>
<!-- Node32&#45;&gt;Node6 -->
<g id="edge73" class="edge">
<title>Node32&#45;&gt;Node6</title>
<path fill="none" stroke="#191970" d="M766.9609,-235.4168C791.643,-226.0059 823.1736,-213.0386 850,-199 872.5008,-187.225 874.887,-178.5227 898,-168 979.6762,-130.815 1003.6378,-127.6798 1092,-112 1214.1528,-90.3241 1602.4872,-72.2089 1715.1086,-67.3075"/>
<polygon fill="#191970" stroke="#191970" points="1715.5825,-70.7904 1725.4222,-66.8622 1715.2805,-63.7969 1715.5825,-70.7904"/>
</g>
<!-- Node32&#45;&gt;Node7 -->
<g id="edge71" class="edge">
<title>Node32&#45;&gt;Node7</title>
<path fill="none" stroke="#191970" d="M702.232,-235.4633C690.6244,-226.415 677.5953,-213.7898 671,-199 655.248,-163.6762 644.3143,-141.7744 669,-112 691.9497,-84.3194 788.6061,-73.1811 853.1597,-68.78"/>
<polygon fill="#191970" stroke="#191970" points="853.4746,-72.2671 863.2284,-68.13 853.0236,-65.2816 853.4746,-72.2671"/>
</g>
<!-- Node32&#45;&gt;Node19 -->
<g id="edge72" class="edge">
<title>Node32&#45;&gt;Node19</title>
<path fill="none" stroke="#191970" d="M729.3114,-235.2967C732.0418,-225.6685 735.597,-213.1318 738.5258,-202.8038"/>
<polygon fill="#191970" stroke="#191970" points="741.9293,-203.6305 741.2904,-193.055 735.1948,-201.7207 741.9293,-203.6305"/>
</g>
<!-- Node33&#45;&gt;Node7 -->
<g id="edge75" class="edge">
<title>Node33&#45;&gt;Node7</title>
<path fill="none" stroke="#191970" d="M380.8032,-305.1007C360.845,-297.3308 339.6697,-285.0496 328,-266 300.7153,-221.4605 307.4261,-159.1273 366,-112 403.3136,-81.9783 719.2829,-70.7418 853.2969,-67.2998"/>
<polygon fill="#191970" stroke="#191970" points="853.4833,-70.7963 863.3923,-67.0465 853.3076,-63.7986 853.4833,-70.7963"/>
</g>
<!-- Node33&#45;&gt;Node27 -->
<g id="edge76" class="edge">
<title>Node33&#45;&gt;Node27</title>
<path fill="none" stroke="#191970" d="M477.4539,-311.5542C572.4576,-299.8962 783.8675,-273.954 898.1408,-259.9314"/>
<polygon fill="#191970" stroke="#191970" points="898.717,-263.3871 908.2162,-258.6951 897.8643,-256.4392 898.717,-263.3871"/>
</g>
<!-- Node34&#45;&gt;Node5 -->
<g id="edge81" class="edge">
<title>Node34&#45;&gt;Node5</title>
<path fill="none" stroke="#191970" d="M1490.0041,-516.2295C1611.9106,-510.1586 1931.055,-492.2778 2034,-467 2126.5831,-444.2665 2232,-479.8333 2232,-384.5 2232,-384.5 2232,-384.5 2232,-317.5 2232,-240.6236 2203.0287,-218.4247 2145,-168 2142.2884,-165.6438 2105.7927,-146.8503 2080.6621,-134.0261"/>
<polygon fill="#191970" stroke="#191970" points="2082.1802,-130.8715 2071.6811,-129.4501 2079.0023,-137.1086 2082.1802,-130.8715"/>
</g>
<!-- Node34&#45;&gt;Node6 -->
<g id="edge83" class="edge">
<title>Node34&#45;&gt;Node6</title>
<path fill="none" stroke="#191970" d="M1490.2641,-517.0471C1687.5138,-510.4813 2422,-479.6447 2422,-384.5 2422,-384.5 2422,-384.5 2422,-317.5 2422,-222.9521 2440.3262,-171.6873 2367,-112 2320.9106,-74.4833 1895.8491,-67.4781 1776.8376,-66.2482"/>
<polygon fill="#191970" stroke="#191970" points="1776.6406,-62.7462 1766.6072,-66.1491 1776.5728,-69.7459 1776.6406,-62.7462"/>
</g>
<!-- Node34&#45;&gt;Node7 -->
<g id="edge85" class="edge">
<title>Node34&#45;&gt;Node7</title>
<path fill="none" stroke="#191970" d="M1434.1285,-503.4112C1400.8449,-441.3967 1264.6464,-205.0444 1076,-112 1043.5192,-95.9798 1004.5609,-84.7268 972.8771,-77.3622"/>
<polygon fill="#191970" stroke="#191970" points="973.3879,-73.8896 962.8632,-75.1066 971.8497,-80.7185 973.3879,-73.8896"/>
</g>
<!-- Node34&#45;&gt;Node13 -->
<g id="edge82" class="edge">
<title>Node34&#45;&gt;Node13</title>
<path fill="none" stroke="#191970" d="M1442.2279,-503.4409C1443.1546,-442.1971 1446.6415,-211.7775 1447.696,-142.0891"/>
<polygon fill="#191970" stroke="#191970" points="1451.2018,-141.7239 1447.8536,-131.672 1444.2026,-141.6179 1451.2018,-141.7239"/>
</g>
<!-- Node34&#45;&gt;Node18 -->
<g id="edge79" class="edge">
<title>Node34&#45;&gt;Node18</title>
<path fill="none" stroke="#191970" d="M1393.9996,-517.7985C1254.5603,-515.3511 837.6131,-505.1332 494,-467 289.2998,-444.283 38,-590.4568 38,-384.5 38,-384.5 38,-384.5 38,-183.5 38,-112.2677 135.7952,-82.7658 191.0624,-71.7807"/>
<polygon fill="#191970" stroke="#191970" points="191.9981,-75.1663 201.1806,-69.8813 190.7065,-68.2864 191.9981,-75.1663"/>
</g>
<!-- Node34&#45;&gt;Node22 -->
<g id="edge84" class="edge">
<title>Node34&#45;&gt;Node22</title>
<path fill="none" stroke="#191970" d="M1490.3507,-518.0075C1737.8639,-515.0612 2856.0138,-496.4594 2973,-400 3026.4393,-355.9373 3017,-319.7624 3017,-250.5 3017,-250.5 3017,-250.5 3017,-183.5 3017,-147.1805 2913.8787,-99.3886 2862.0348,-77.6563"/>
<polygon fill="#191970" stroke="#191970" points="2863.2696,-74.3795 2852.6912,-73.7892 2860.5926,-80.8474 2863.2696,-74.3795"/>
</g>
<!-- Node34&#45;&gt;Node30 -->
<g id="edge96" class="edge">
<title>Node34&#45;&gt;Node30</title>
<path fill="none" stroke="#191970" d="M1447.2552,-503.442C1453.6084,-486.301 1465.3007,-457.8505 1480,-436 1507.3051,-395.4111 1548.5986,-355.3972 1572.3678,-333.8305"/>
<polygon fill="#191970" stroke="#191970" points="1574.8792,-336.2799 1579.9928,-327.0008 1570.2088,-331.0657 1574.8792,-336.2799"/>
</g>
<!-- Node34&#45;&gt;Node33 -->
<g id="edge125" class="edge">
<title>Node34&#45;&gt;Node33</title>
<path fill="none" stroke="#191970" d="M1393.6191,-510.8869C1283.3324,-493.321 1004.9685,-447.7868 774,-400 672.4034,-378.9799 555.1188,-349.8984 486.7902,-332.468"/>
<polygon fill="#191970" stroke="#191970" points="487.6272,-329.0695 477.0719,-329.9832 485.8932,-335.8514 487.6272,-329.0695"/>
</g>
<!-- Node35 -->
<g id="node35" class="node">
<title>Node35</title>
<polygon fill="#ffffff" stroke="#bfbfbf" points="2046,-241 2046,-260 2090,-260 2090,-241 2046,-241"/>
<text text-anchor="middle" x="2068" y="-248" font-family="Helvetica,sans-Serif" font-size="10.00" fill="#000000">mutex</text>
</g>
<!-- Node34&#45;&gt;Node35 -->
<g id="edge80" class="edge">
<title>Node34&#45;&gt;Node35</title>
<path fill="none" stroke="#191970" d="M1490.1401,-508.0279C1530.1978,-498.7978 1588.4686,-484.1683 1638,-467 1779.0503,-418.1099 1815.1696,-404.8947 1946,-333 1983.1565,-312.5815 2023.3631,-284.0018 2047.0798,-266.3996"/>
<polygon fill="#191970" stroke="#191970" points="2049.4129,-269.0252 2055.3213,-260.2308 2045.2182,-263.4211 2049.4129,-269.0252"/>
</g>
<!-- Node36 -->
<g id="node36" class="node">
<title>Node36</title>
<g id="a_node36"><a xlink:href="$_u_r_l_8h.html" xlink:title="uscxml/util/URL.h">
<polygon fill="#ffffff" stroke="#ff0000" points="2072,-308 2072,-327 2166,-327 2166,-308 2072,-308"/>
<text text-anchor="middle" x="2119" y="-315" font-family="Helvetica,sans-Serif" font-size="10.00" fill="#000000">uscxml/util/URL.h</text>
</a>
</g>
</g>
<!-- Node34&#45;&gt;Node36 -->
<g id="edge86" class="edge">
<title>Node34&#45;&gt;Node36</title>
<path fill="none" stroke="#191970" d="M1490.3567,-516.2432C1618.059,-509.9769 1957.5881,-491.2179 2002,-467 2056.8312,-437.1005 2094.5944,-369.5531 2110.515,-336.4741"/>
<polygon fill="#191970" stroke="#191970" points="2113.8612,-337.5795 2114.9105,-327.0367 2107.5157,-334.624 2113.8612,-337.5795"/>
</g>
<!-- Node38 -->
<g id="node38" class="node">
<title>Node38</title>
<g id="a_node38"><a xlink:href="$_data_model_impl_8h.html" xlink:title="uscxml/plugins/DataModel\lImpl.h">
<polygon fill="#ffffff" stroke="#ff0000" points="105.5,-369.5 105.5,-399.5 238.5,-399.5 238.5,-369.5 105.5,-369.5"/>
<text text-anchor="start" x="113.5" y="-387.5" font-family="Helvetica,sans-Serif" font-size="10.00" fill="#000000">uscxml/plugins/DataModel</text>
<text text-anchor="middle" x="172" y="-376.5" font-family="Helvetica,sans-Serif" font-size="10.00" fill="#000000">Impl.h</text>
</a>
</g>
</g>
<!-- Node34&#45;&gt;Node38 -->
<g id="edge97" class="edge">
<title>Node34&#45;&gt;Node38</title>
<path fill="none" stroke="#191970" d="M1393.617,-516.1745C1278.5406,-510.3864 979.5525,-493.836 731,-467 522.9682,-444.539 471.7654,-432.0904 265,-400 259.6421,-399.1684 254.1136,-398.2926 248.5485,-397.3978"/>
<polygon fill="#191970" stroke="#191970" points="248.9518,-393.9175 238.5205,-395.7722 247.8316,-400.8273 248.9518,-393.9175"/>
</g>
<!-- Node39 -->
<g id="node39" class="node">
<title>Node39</title>
<g id="a_node39"><a xlink:href="$_i_o_processor_impl_8h.html" xlink:title="uscxml/plugins/IOProcessor\lImpl.h">
<polygon fill="#ffffff" stroke="#ff0000" points="274,-369.5 274,-399.5 414,-399.5 414,-369.5 274,-369.5"/>
<text text-anchor="start" x="282" y="-387.5" font-family="Helvetica,sans-Serif" font-size="10.00" fill="#000000">uscxml/plugins/IOProcessor</text>
<text text-anchor="middle" x="344" y="-376.5" font-family="Helvetica,sans-Serif" font-size="10.00" fill="#000000">Impl.h</text>
</a>
</g>
</g>
<!-- Node34&#45;&gt;Node39 -->
<g id="edge103" class="edge">
<title>Node34&#45;&gt;Node39</title>
<path fill="none" stroke="#191970" d="M1393.976,-513.4529C1309.8468,-504.5455 1130.3583,-485.2486 979,-467 779.5251,-442.9501 545.2088,-411.7387 424.6678,-395.4644"/>
<polygon fill="#191970" stroke="#191970" points="424.8003,-391.9506 414.4217,-394.0801 423.863,-398.8876 424.8003,-391.9506"/>
</g>
<!-- Node40 -->
<g id="node40" class="node">
<title>Node40</title>
<g id="a_node40"><a xlink:href="$_invoker_impl_8h.html" xlink:title="uscxml/plugins/InvokerImpl.h">
<polygon fill="#ffffff" stroke="#ff0000" points="1135.5,-308 1135.5,-327 1280.5,-327 1280.5,-308 1135.5,-308"/>
<text text-anchor="middle" x="1208" y="-315" font-family="Helvetica,sans-Serif" font-size="10.00" fill="#000000">uscxml/plugins/InvokerImpl.h</text>
</a>
</g>
</g>
<!-- Node34&#45;&gt;Node40 -->
<g id="edge107" class="edge">
<title>Node34&#45;&gt;Node40</title>
<path fill="none" stroke="#191970" d="M1393.8552,-511.7864C1333.6105,-500.5094 1232.9042,-471.493 1188,-400 1175.6319,-380.3085 1186.1069,-353.5511 1195.9653,-335.9178"/>
<polygon fill="#191970" stroke="#191970" points="1199.0758,-337.5366 1201.2297,-327.163 1193.0769,-333.9293 1199.0758,-337.5366"/>
</g>
<!-- Node41 -->
<g id="node41" class="node">
<title>Node41</title>
<g id="a_node41"><a xlink:href="$_micro_step_impl_8h.html" xlink:title="uscxml/interpreter\l/MicroStepImpl.h">
<polygon fill="#ffffff" stroke="#000000" points="1489,-436.5 1489,-466.5 1585,-466.5 1585,-436.5 1489,-436.5"/>
<text text-anchor="start" x="1497" y="-454.5" font-family="Helvetica,sans-Serif" font-size="10.00" fill="#000000">uscxml/interpreter</text>
<text text-anchor="middle" x="1537" y="-443.5" font-family="Helvetica,sans-Serif" font-size="10.00" fill="#000000">/MicroStepImpl.h</text>
</a>
</g>
</g>
<!-- Node34&#45;&gt;Node41 -->
<g id="edge111" class="edge">
<title>Node34&#45;&gt;Node41</title>
<path fill="none" stroke="#191970" d="M1463.557,-503.2967C1476.4321,-494.2163 1492.9755,-482.5488 1507.1005,-472.587"/>
<polygon fill="#191970" stroke="#191970" points="1509.3735,-475.2669 1515.5283,-466.6432 1505.339,-469.5464 1509.3735,-475.2669"/>
</g>
<!-- Node42 -->
<g id="node42" class="node">
<title>Node42</title>
<g id="a_node42"><a xlink:href="$_content_executor_impl_8h.html" xlink:title="uscxml/interpreter\l/ContentExecutorImpl.h">
<polygon fill="#ffffff" stroke="#ff0000" points="1197.5,-369.5 1197.5,-399.5 1318.5,-399.5 1318.5,-369.5 1197.5,-369.5"/>
<text text-anchor="start" x="1205.5" y="-387.5" font-family="Helvetica,sans-Serif" font-size="10.00" fill="#000000">uscxml/interpreter</text>
<text text-anchor="middle" x="1258" y="-376.5" font-family="Helvetica,sans-Serif" font-size="10.00" fill="#000000">/ContentExecutorImpl.h</text>
</a>
</g>
</g>
<!-- Node34&#45;&gt;Node42 -->
<g id="edge118" class="edge">
<title>Node34&#45;&gt;Node42</title>
<path fill="none" stroke="#191970" d="M1421.1726,-503.4187C1407.016,-493.1614 1387.8682,-479.2753 1371,-467 1342.4388,-446.2155 1309.8628,-422.4229 1287.0495,-405.7466"/>
<polygon fill="#191970" stroke="#191970" points="1288.9511,-402.8013 1278.8128,-399.7248 1284.8198,-408.4521 1288.9511,-402.8013"/>
</g>
<!-- Node43 -->
<g id="node43" class="node">
<title>Node43</title>
<g id="a_node43"><a xlink:href="$_event_queue_impl_8h.html" xlink:title="uscxml/interpreter\l/EventQueueImpl.h">
<polygon fill="#ffffff" stroke="#ff0000" points="1782,-302.5 1782,-332.5 1884,-332.5 1884,-302.5 1782,-302.5"/>
<text text-anchor="start" x="1790" y="-320.5" font-family="Helvetica,sans-Serif" font-size="10.00" fill="#000000">uscxml/interpreter</text>
<text text-anchor="middle" x="1833" y="-309.5" font-family="Helvetica,sans-Serif" font-size="10.00" fill="#000000">/EventQueueImpl.h</text>
</a>
</g>
</g>
<!-- Node34&#45;&gt;Node43 -->
<g id="edge126" class="edge">
<title>Node34&#45;&gt;Node43</title>
<path fill="none" stroke="#191970" d="M1490.0178,-505.3573C1520.4998,-496.2588 1560.3915,-482.9384 1594,-467 1674.2203,-428.9565 1760.7609,-369.7598 1804.3826,-338.4921"/>
<polygon fill="#191970" stroke="#191970" points="1806.4552,-341.3126 1812.5201,-332.6254 1802.3615,-335.6344 1806.4552,-341.3126"/>
</g>
<!-- Node36&#45;&gt;Node4 -->
<g id="edge92" class="edge">
<title>Node36&#45;&gt;Node4</title>
<path fill="none" stroke="#191970" d="M2085.0428,-307.9975C2054.8562,-298.9758 2009.9163,-284.1193 1973,-266 1972.4573,-265.7336 1971.9119,-265.4575 1971.3653,-265.1732"/>
<polygon fill="#191970" stroke="#191970" points="1973.0388,-262.0975 1962.6363,-260.0876 1969.515,-268.1459 1973.0388,-262.0975"/>
</g>
<!-- Node36&#45;&gt;Node5 -->
<g id="edge93" class="edge">
<title>Node36&#45;&gt;Node5</title>
<path fill="none" stroke="#191970" d="M2123.335,-307.6545C2129.6183,-291.9873 2139.7051,-260.5425 2132,-235 2120.5247,-196.9594 2091.5891,-159.9695 2073.1984,-139.1744"/>
<polygon fill="#191970" stroke="#191970" points="2075.583,-136.5938 2066.2707,-131.5409 2070.3994,-141.2982 2075.583,-136.5938"/>
</g>
<!-- Node36&#45;&gt;Node6 -->
<g id="edge89" class="edge">
<title>Node36&#45;&gt;Node6</title>
<path fill="none" stroke="#191970" d="M2166.3865,-312.1644C2220.2203,-305.0128 2303.0785,-290.3212 2322,-266 2364.0278,-211.9786 2368.4312,-162.2871 2322,-112 2303.3362,-91.7863 1893.5875,-72.4329 1776.8085,-67.3123"/>
<polygon fill="#191970" stroke="#191970" points="1776.8915,-63.8127 1766.7489,-66.8748 1776.5873,-70.8061 1776.8915,-63.8127"/>
</g>
<!-- Node36&#45;&gt;Node7 -->
<g id="edge87" class="edge">
<title>Node36&#45;&gt;Node7</title>
<path fill="none" stroke="#191970" d="M2147.1566,-307.9624C2206.8115,-286.2628 2336.6955,-230.2349 2289,-168 2230.7649,-92.0125 2175.6443,-126.4182 2081,-112 1863.9813,-78.9391 1179.5766,-68.9047 972.7657,-66.5894"/>
<polygon fill="#191970" stroke="#191970" points="972.7425,-63.089 962.7045,-66.4787 972.6654,-70.0886 972.7425,-63.089"/>
</g>
<!-- Node36&#45;&gt;Node13 -->
<g id="edge91" class="edge">
<title>Node36&#45;&gt;Node13</title>
<path fill="none" stroke="#191970" d="M2119.9255,-307.7817C2121.0004,-290.2104 2120.4001,-253.2869 2099,-235 2024.0803,-170.9793 1753.2682,-220.0722 1657,-199 1617.7183,-190.4016 1609.8279,-181.6394 1572,-168 1530.147,-152.9092 1517.0405,-149.8805 1475.3762,-133.65"/>
<polygon fill="#191970" stroke="#191970" points="1476.6187,-130.3777 1466.0314,-129.9771 1474.058,-136.8926 1476.6187,-130.3777"/>
</g>
<!-- Node36&#45;&gt;Node23 -->
<g id="edge90" class="edge">
<title>Node36&#45;&gt;Node23</title>
<path fill="none" stroke="#191970" d="M2162.8498,-307.9623C2208.4579,-297.9357 2281.8834,-281.4949 2345,-266 2572.1844,-210.2271 2664.3444,-268.9457 2854,-132 2870.3954,-120.1613 2882.1972,-99.9777 2889.2417,-85.04"/>
<polygon fill="#191970" stroke="#191970" points="2892.5262,-86.2659 2893.3566,-75.7036 2886.1208,-83.4427 2892.5262,-86.2659"/>
</g>
<!-- Node36&#45;&gt;Node27 -->
<g id="edge88" class="edge">
<title>Node36&#45;&gt;Node27</title>
<path fill="none" stroke="#191970" d="M2071.8301,-314.0934C2026.118,-310.8327 1954.822,-305.854 1893,-302 1581.0181,-282.5511 1209.1764,-262.7222 1051.606,-254.475"/>
<polygon fill="#191970" stroke="#191970" points="1051.709,-250.9756 1041.5399,-253.9486 1051.3434,-257.9661 1051.709,-250.9756"/>
</g>
<!-- Node36&#45;&gt;Node35 -->
<g id="edge95" class="edge">
<title>Node36&#45;&gt;Node35</title>
<path fill="none" stroke="#191970" d="M2111.6929,-307.9005C2103.8157,-297.552 2091.1054,-280.8542 2081.4194,-268.1295"/>
<polygon fill="#191970" stroke="#191970" points="2084.1354,-265.9188 2075.2935,-260.0817 2078.5654,-270.1586 2084.1354,-265.9188"/>
</g>
<!-- Node37 -->
<g id="node37" class="node">
<title>Node37</title>
<polygon fill="#ffffff" stroke="#bfbfbf" points="1982.5,-241 1982.5,-260 2027.5,-260 2027.5,-241 1982.5,-241"/>
<text text-anchor="middle" x="2005" y="-248" font-family="Helvetica,sans-Serif" font-size="10.00" fill="#000000">thread</text>
</g>
<!-- Node36&#45;&gt;Node37 -->
<g id="edge94" class="edge">
<title>Node36&#45;&gt;Node37</title>
<path fill="none" stroke="#191970" d="M2102.6666,-307.9005C2083.7041,-296.7559 2052.2125,-278.2477 2030.128,-265.2682"/>
<polygon fill="#191970" stroke="#191970" points="2031.6979,-262.1311 2021.3031,-260.0817 2028.151,-268.1661 2031.6979,-262.1311"/>
</g>
<!-- Node38&#45;&gt;Node5 -->
<g id="edge100" class="edge">
<title>Node38&#45;&gt;Node5</title>
<path fill="none" stroke="#191970" d="M238.6897,-372.5785C247.5187,-371.2372 256.4646,-369.9971 265,-369 500.8249,-341.4506 563.8538,-372.3435 798,-333 849.7807,-324.2993 860.2375,-310.8081 912,-302 1132.5143,-264.4763 1191.4846,-288.8357 1414,-266 1469.8688,-260.2665 1861.5996,-216.3952 1915,-199 1939.0078,-191.1795 1999.4989,-156.2635 2033.2703,-136.2393"/>
<polygon fill="#191970" stroke="#191970" points="2035.2326,-139.1444 2042.0345,-131.0212 2031.6516,-133.1297 2035.2326,-139.1444"/>
</g>
<!-- Node38&#45;&gt;Node6 -->
<g id="edge101" class="edge">
<title>Node38&#45;&gt;Node6</title>
<path fill="none" stroke="#191970" d="M176.0708,-369.1961C182.1143,-349.8265 195.4756,-317.1626 220,-302 327.0094,-235.8397 669.5615,-316.0215 785,-266 803.4641,-257.9992 801.5592,-246.6034 818,-235 846.5826,-214.8274 858.0729,-217.1183 888,-199 908.4636,-186.611 910.3982,-178.2766 932,-168 937.1856,-165.5331 1125.3447,-112.9969 1131,-112 1245.3028,-91.8509 1607.0949,-72.8377 1715.2023,-67.4878"/>
<polygon fill="#191970" stroke="#191970" points="1715.6066,-70.9723 1725.4227,-66.9855 1715.2629,-63.9807 1715.6066,-70.9723"/>
</g>
<!-- Node38&#45;&gt;Node7 -->
<g id="edge98" class="edge">
<title>Node38&#45;&gt;Node7</title>
<path fill="none" stroke="#191970" d="M163.1718,-369.3029C157.9089,-359.3419 151.7354,-345.8331 149,-333 146.1277,-319.5249 145.8345,-315.4092 149,-302 172.8594,-200.9301 188.462,-150.2727 285,-112 336.9165,-91.4176 706.0897,-74.3845 852.9556,-68.3487"/>
<polygon fill="#191970" stroke="#191970" points="853.2894,-71.8381 863.1383,-67.9332 853.0039,-64.8439 853.2894,-71.8381"/>
</g>
<!-- Node38&#45;&gt;Node18 -->
<g id="edge102" class="edge">
<title>Node38&#45;&gt;Node18</title>
<path fill="none" stroke="#191970" d="M149.3972,-369.4584C136.7795,-360.1529 121.5295,-347.2779 111,-333 87.3598,-300.9444 76,-290.3299 76,-250.5 76,-250.5 76,-250.5 76,-183.5 76,-125.3581 146.4758,-91.9169 191.4502,-76.4957"/>
<polygon fill="#191970" stroke="#191970" points="192.7659,-79.7476 201.1753,-73.3031 190.5825,-73.0968 192.7659,-79.7476"/>
</g>
<!-- Node38&#45;&gt;Node26 -->
<g id="edge99" class="edge">
<title>Node38&#45;&gt;Node26</title>
<path fill="none" stroke="#191970" d="M195.564,-369.4639C210.0527,-360.2188 228.8172,-348.2452 244.6817,-338.1222"/>
<polygon fill="#191970" stroke="#191970" points="246.604,-341.0474 253.1513,-332.7177 242.8386,-335.1464 246.604,-341.0474"/>
</g>
<!-- Node39&#45;&gt;Node7 -->
<g id="edge104" class="edge">
<title>Node39&#45;&gt;Node7</title>
<path fill="none" stroke="#191970" d="M273.7936,-371.1067C252.9673,-363.508 232.4239,-351.6127 220,-333 160.4479,-243.7827 225.6133,-168.1662 317,-112 361.9078,-84.3997 710.9133,-71.6355 853.0585,-67.5424"/>
<polygon fill="#191970" stroke="#191970" points="853.4366,-71.0332 863.3334,-67.2513 853.2383,-64.036 853.4366,-71.0332"/>
</g>
<!-- Node39&#45;&gt;Node26 -->
<g id="edge105" class="edge">
<title>Node39&#45;&gt;Node26</title>
<path fill="none" stroke="#191970" d="M328.7967,-369.2967C320.059,-360.559 308.9257,-349.4257 299.2218,-339.7218"/>
<polygon fill="#191970" stroke="#191970" points="301.6892,-337.2394 292.1432,-332.6432 296.7394,-342.1892 301.6892,-337.2394"/>
</g>
<!-- Node39&#45;&gt;Node27 -->
<g id="edge106" class="edge">
<title>Node39&#45;&gt;Node27</title>
<path fill="none" stroke="#191970" d="M344.413,-369.1796C345.8303,-350.107 351.3617,-318.0861 372,-302 411.2126,-271.4365 768.4821,-270.4425 818,-266 844.1301,-263.6557 872.6859,-260.8958 898.1941,-258.3594"/>
<polygon fill="#191970" stroke="#191970" points="898.5755,-261.8389 908.1783,-257.3627 897.88,-254.8735 898.5755,-261.8389"/>
</g>
<!-- Node40&#45;&gt;Node4 -->
<g id="edge110" class="edge">
<title>Node40&#45;&gt;Node4</title>
<path fill="none" stroke="#191970" d="M1280.7383,-310.9231C1441.7123,-296.3681 1821.8888,-261.9932 1923.602,-252.7964"/>
<polygon fill="#191970" stroke="#191970" points="1924.1965,-256.2571 1933.8407,-251.8707 1923.5661,-249.2855 1924.1965,-256.2571"/>
</g>
<!-- Node40&#45;&gt;Node7 -->
<g id="edge108" class="edge">
<title>Node40&#45;&gt;Node7</title>
<path fill="none" stroke="#191970" d="M1204.5263,-307.6557C1195.075,-281.9973 1166.7088,-212.0135 1124,-168 1078.501,-121.1111 1007.0627,-92.9129 960.1281,-78.4062"/>
<polygon fill="#191970" stroke="#191970" points="961.0869,-75.0398 950.5028,-75.5166 959.0742,-81.7442 961.0869,-75.0398"/>
</g>
<!-- Node40&#45;&gt;Node27 -->
<g id="edge109" class="edge">
<title>Node40&#45;&gt;Node27</title>
<path fill="none" stroke="#191970" d="M1174.6168,-307.9005C1133.4379,-296.0594 1063.3502,-275.9054 1018.1311,-262.9025"/>
<polygon fill="#191970" stroke="#191970" points="1018.8991,-259.4816 1008.3213,-260.0817 1016.9646,-266.209 1018.8991,-259.4816"/>
</g>
<!-- Node41&#45;&gt;Node4 -->
<g id="edge113" class="edge">
<title>Node41&#45;&gt;Node4</title>
<path fill="none" stroke="#191970" d="M1585.1065,-442.5142C1677.4446,-424.3666 1874.6777,-380.9642 1923,-333 1939.8493,-316.2756 1945.8036,-288.7465 1947.8936,-270.1346"/>
<polygon fill="#191970" stroke="#191970" points="1951.3856,-270.3755 1948.7447,-260.1151 1944.4107,-269.7829 1951.3856,-270.3755"/>
</g>
<!-- Node41&#45;&gt;Node5 -->
<g id="edge112" class="edge">
<title>Node41&#45;&gt;Node5</title>
<path fill="none" stroke="#191970" d="M1585.1968,-446.1085C1727.3103,-429.731 2137.1139,-378.8761 2175,-333 2209.663,-291.0268 2203.3989,-274.4003 2120,-168 2109.3108,-154.3627 2093.5696,-142.8667 2080.4964,-134.778"/>
<polygon fill="#191970" stroke="#191970" points="2081.9508,-131.5725 2071.5589,-129.5085 2078.3955,-137.6024 2081.9508,-131.5725"/>
</g>
<!-- Node41&#45;&gt;Node6 -->
<g id="edge114" class="edge">
<title>Node41&#45;&gt;Node6</title>
<path fill="none" stroke="#191970" d="M1585.2193,-450.3478C1672.7608,-447.3768 1863.1922,-436.8596 2019,-400 2101.6642,-380.444 2119.5269,-365.5236 2198,-333 2264.3284,-305.5099 2296.7505,-319.1709 2345,-266 2366.157,-242.685 2362.8182,-230.0541 2368,-199 2374.6216,-159.3172 2375.8853,-135.176 2343,-112 2296.4914,-79.2229 1892.8821,-68.8646 1776.9916,-66.5523"/>
<polygon fill="#191970" stroke="#191970" points="1776.762,-63.0473 1766.6962,-66.3532 1776.6266,-70.046 1776.762,-63.0473"/>
</g>
<!-- Node41&#45;&gt;Node7 -->
<g id="edge115" class="edge">
<title>Node41&#45;&gt;Node7</title>
<path fill="none" stroke="#191970" d="M1527.2471,-436.211C1491.1957,-381.1657 1359.0739,-192.1323 1196,-112 1157.7308,-93.1951 1043.935,-78.9577 972.8425,-71.5966"/>
<polygon fill="#191970" stroke="#191970" points="972.9807,-68.0926 962.6774,-70.5607 972.271,-75.0566 972.9807,-68.0926"/>
</g>
<!-- Node41&#45;&gt;Node15 -->
<g id="edge116" class="edge">
<title>Node41&#45;&gt;Node15</title>
<path fill="none" stroke="#191970" d="M1488.8174,-446.8948C1365.2402,-435.0836 1037.0547,-403.7164 898.8017,-390.5024"/>
<polygon fill="#191970" stroke="#191970" points="899.0731,-387.0125 888.7854,-389.5451 898.407,-393.9808 899.0731,-387.0125"/>
</g>
<!-- Node41&#45;&gt;Node27 -->
<g id="edge117" class="edge">
<title>Node41&#45;&gt;Node27</title>
<path fill="none" stroke="#191970" d="M1504.5925,-436.4473C1463.9192,-418.1014 1391.6396,-387.2924 1327,-369 1239.6745,-344.2877 1209.749,-367.9649 1126,-333 1103.925,-323.7838 1102.6256,-314.1175 1082,-302 1057.6449,-287.6914 1028.7094,-273.9467 1007.0732,-264.261"/>
<polygon fill="#191970" stroke="#191970" points="1008.2496,-260.9543 997.6885,-260.109 1005.4174,-267.3558 1008.2496,-260.9543"/>
</g>
<!-- Node42&#45;&gt;Node4 -->
<g id="edge123" class="edge">
<title>Node42&#45;&gt;Node4</title>
<path fill="none" stroke="#191970" d="M1318.5509,-382.5525C1467.6735,-377.339 1844.1152,-361.4908 1893,-333 1917.3412,-318.8136 1933.3663,-289.3211 1941.8112,-269.7177"/>
<polygon fill="#191970" stroke="#191970" points="1945.1344,-270.8357 1945.6342,-260.2526 1938.6438,-268.2141 1945.1344,-270.8357"/>
</g>
<!-- Node42&#45;&gt;Node6 -->
<g id="edge122" class="edge">
<title>Node42&#45;&gt;Node6</title>
<path fill="none" stroke="#191970" d="M1281.209,-369.3524C1363.4656,-315.6664 1640.5549,-134.8202 1722.799,-81.1425"/>
<polygon fill="#191970" stroke="#191970" points="1724.9561,-83.9141 1731.4174,-75.5175 1721.1302,-78.0521 1724.9561,-83.9141"/>
</g>
<!-- Node42&#45;&gt;Node7 -->
<g id="edge119" class="edge">
<title>Node42&#45;&gt;Node7</title>
<path fill="none" stroke="#191970" d="M1197.043,-373.8278C1152.5379,-365.1586 1091.1279,-351.361 1039,-333 1038.7458,-332.9105 899.1436,-266.228 899,-266 881.3333,-237.9596 923.104,-197.9316 934,-132 935.4493,-123.2301 935.8889,-120.6859 934,-112 931.9575,-102.6079 927.8211,-92.8357 923.7553,-84.7264"/>
<polygon fill="#191970" stroke="#191970" points="926.7809,-82.9622 918.9765,-75.7968 920.6091,-86.2651 926.7809,-82.9622"/>
</g>
<!-- Node42&#45;&gt;Node13 -->
<g id="edge124" class="edge">
<title>Node42&#45;&gt;Node13</title>
<path fill="none" stroke="#191970" d="M1268.4103,-369.2064C1274.9099,-359.2069 1283.1282,-345.6915 1289,-333 1308.2977,-291.2891 1296.8172,-273.4451 1322,-235 1349.4582,-193.0812 1396.2509,-156.8642 1424.4314,-137.3556"/>
<polygon fill="#191970" stroke="#191970" points="1426.5698,-140.1343 1432.8789,-131.6228 1422.639,-134.3422 1426.5698,-140.1343"/>
</g>
<!-- Node42&#45;&gt;Node26 -->
<g id="edge121" class="edge">
<title>Node42&#45;&gt;Node26</title>
<path fill="none" stroke="#191970" d="M1197.4205,-381.7999C1024.8168,-373.9762 532.6156,-350.7226 372,-333 360.0613,-331.6827 347.3379,-329.8832 335.2115,-327.9762"/>
<polygon fill="#191970" stroke="#191970" points="335.6265,-324.498 325.1961,-326.3573 334.5094,-331.4083 335.6265,-324.498"/>
</g>
<!-- Node42&#45;&gt;Node27 -->
<g id="edge120" class="edge">
<title>Node42&#45;&gt;Node27</title>
<path fill="none" stroke="#191970" d="M1197.498,-370.4128C1165.5182,-361.7897 1126.1336,-349.2656 1093,-333 1055.3952,-314.5395 1016.4557,-284.8927 994.045,-266.6173"/>
<polygon fill="#191970" stroke="#191970" points="996.24,-263.8907 986.3025,-260.2169 991.78,-269.286 996.24,-263.8907"/>
</g>
<!-- Node43&#45;&gt;Node5 -->
<g id="edge131" class="edge">
<title>Node43&#45;&gt;Node5</title>
<path fill="none" stroke="#191970" d="M1848.263,-302.3517C1865.975,-285.1278 1896.4169,-256.6014 1925,-235 1948.9044,-216.9346 1958.7193,-217.8623 1982,-199 2004.719,-180.5928 2027.7236,-155.8726 2042.1532,-139.463"/>
<polygon fill="#191970" stroke="#191970" points="2044.9632,-141.5649 2048.8704,-131.7168 2039.6746,-136.9789 2044.9632,-141.5649"/>
</g>
<!-- Node43&#45;&gt;Node6 -->
<g id="edge129" class="edge">
<title>Node43&#45;&gt;Node6</title>
<path fill="none" stroke="#191970" d="M1835.8468,-302.4737C1840.4101,-274.8337 1847.2113,-214.5008 1830,-168 1816.9824,-132.8297 1786.3365,-100.9835 1765.8848,-82.5579"/>
<polygon fill="#191970" stroke="#191970" points="1767.9152,-79.6838 1758.0847,-75.7326 1763.3056,-84.9518 1767.9152,-79.6838"/>
</g>
<!-- Node43&#45;&gt;Node7 -->
<g id="edge127" class="edge">
<title>Node43&#45;&gt;Node7</title>
<path fill="none" stroke="#191970" d="M1834.0832,-302.2538C1835.3304,-272.0145 1833.4819,-204.2434 1796,-168 1736.7339,-110.6922 1161.1458,-77.986 972.5204,-68.741"/>
<polygon fill="#191970" stroke="#191970" points="972.6656,-65.2441 962.5075,-68.2546 972.3259,-72.2358 972.6656,-65.2441"/>
</g>
<!-- Node43&#45;&gt;Node13 -->
<g id="edge130" class="edge">
<title>Node43&#45;&gt;Node13</title>
<path fill="none" stroke="#191970" d="M1799.9198,-302.419C1752.2308,-280.5002 1661.5878,-238.1726 1586,-199 1546.1249,-178.3351 1500.8184,-152.6136 1473.3314,-136.7521"/>
<polygon fill="#191970" stroke="#191970" points="1474.7985,-133.5572 1464.3903,-131.5773 1471.2921,-139.6157 1474.7985,-133.5572"/>
</g>
<!-- Node43&#45;&gt;Node27 -->
<g id="edge128" class="edge">
<title>Node43&#45;&gt;Node27</title>
<path fill="none" stroke="#191970" d="M1781.6883,-312.6034C1747.9669,-309.4392 1702.8719,-305.3098 1663,-302 1441.3091,-283.5974 1179.1791,-264.7911 1051.9623,-255.8522"/>
<polygon fill="#191970" stroke="#191970" points="1052.1476,-252.3567 1041.927,-255.1479 1051.6574,-259.3395 1052.1476,-252.3567"/>
</g>
<!-- Node43&#45;&gt;Node35 -->
<g id="edge133" class="edge">
<title>Node43&#45;&gt;Node35</title>
<path fill="none" stroke="#191970" d="M1884.2276,-307.7819C1926.0549,-299.0877 1986.3185,-284.8148 2037,-266 2038.4103,-265.4765 2039.8407,-264.9074 2041.274,-264.3066"/>
<polygon fill="#191970" stroke="#191970" points="2042.9617,-267.383 2050.589,-260.0295 2040.0407,-261.0216 2042.9617,-267.383"/>
</g>
<!-- Node43&#45;&gt;Node37 -->
<g id="edge132" class="edge">
<title>Node43&#45;&gt;Node37</title>
<path fill="none" stroke="#191970" d="M1877.2597,-302.4764C1905.024,-292.7435 1941.4179,-279.4191 1973,-266 1974.1824,-265.4976 1975.3841,-264.9744 1976.5941,-264.4372"/>
<polygon fill="#191970" stroke="#191970" points="1978.2444,-267.5302 1985.8505,-260.1547 1975.3051,-261.1771 1978.2444,-267.5302"/>
</g>
<!-- Node44&#45;&gt;Node3 -->
<g id="edge135" class="edge">
<title>Node44&#45;&gt;Node3</title>
<path fill="none" stroke="#191970" d="M2392.1123,-626.4803C2396.4207,-613.5428 2404.6232,-589.756 2413,-570 2450.8079,-480.8332 2503.9907,-378.0313 2525.9311,-336.4288"/>
<polygon fill="#191970" stroke="#191970" points="2529.1104,-337.9039 2530.6949,-327.4282 2522.9235,-334.6293 2529.1104,-337.9039"/>
</g>
<!-- Node44&#45;&gt;Node4 -->
<g id="edge140" class="edge">
<title>Node44&#45;&gt;Node4</title>
<path fill="none" stroke="#191970" d="M2378.1235,-626.4707C2319.6351,-575.2269 2042.3648,-332.3003 1967.6071,-266.8023"/>
<polygon fill="#191970" stroke="#191970" points="1969.7182,-263.9986 1959.8902,-260.0413 1965.1052,-269.2637 1969.7182,-263.9986"/>
</g>
<!-- Node44&#45;&gt;Node11 -->
<g id="edge138" class="edge">
<title>Node44&#45;&gt;Node11</title>
<path fill="none" stroke="#191970" d="M2396.8738,-626.2373C2407.6855,-613.0245 2427.9593,-588.9268 2447,-570 2572.2827,-445.467 2737.9836,-311.5518 2794.8467,-266.3886"/>
<polygon fill="#191970" stroke="#191970" points="2797.0586,-269.1016 2802.7232,-260.1482 2792.7115,-263.6149 2797.0586,-269.1016"/>
</g>
<!-- Node44&#45;&gt;Node12 -->
<g id="edge136" class="edge">
<title>Node44&#45;&gt;Node12</title>
<path fill="none" stroke="#191970" d="M2354.8498,-632.3459C2264.486,-621.7359 2026,-587.2242 2026,-518.5 2026,-518.5 2026,-518.5 2026,-451.5 2026,-405.6333 2002.9504,-393.2202 1964,-369 1890.6423,-323.3845 1837.4113,-390.5613 1773,-333 1753.4571,-315.5354 1737.2323,-239.4089 1730.433,-203.0156"/>
<polygon fill="#191970" stroke="#191970" points="1733.8638,-202.3188 1728.6322,-193.1057 1726.9766,-203.5703 1733.8638,-202.3188"/>
</g>
<!-- Node44&#45;&gt;Node14 -->
<g id="edge137" class="edge">
<title>Node44&#45;&gt;Node14</title>
<path fill="none" stroke="#191970" d="M2354.7363,-633.9738C2211.5822,-625.5086 1660.9179,-592.9455 1491.7343,-582.941"/>
<polygon fill="#191970" stroke="#191970" points="1491.8057,-579.4392 1481.6165,-582.3427 1491.3924,-586.427 1491.8057,-579.4392"/>
</g>
<!-- Node44&#45;&gt;Node45 -->
<g id="edge139" class="edge">
<title>Node44&#45;&gt;Node45</title>
<path fill="none" stroke="#191970" d="M2405.1994,-626.2455C2419.6018,-617.5731 2440.8732,-604.7645 2457.3799,-594.825"/>
<polygon fill="#191970" stroke="#191970" points="2459.225,-597.7996 2465.9863,-589.6427 2455.614,-591.8028 2459.225,-597.7996"/>
</g>
<!-- Node46&#45;&gt;Node3 -->
<g id="edge150" class="edge">
<title>Node46&#45;&gt;Node3</title>
<path fill="none" stroke="#191970" d="M2850.8076,-374.9717C2783.2822,-362.6442 2665.9398,-341.222 2595.172,-328.3025"/>
<polygon fill="#191970" stroke="#191970" points="2595.5463,-324.8131 2585.0803,-326.4602 2594.2891,-331.6993 2595.5463,-324.8131"/>
</g>
<!-- Node46&#45;&gt;Node5 -->
<g id="edge148" class="edge">
<title>Node46&#45;&gt;Node5</title>
<path fill="none" stroke="#191970" d="M2905.286,-374.7809C2910.9055,-348.1913 2922.3,-273.6611 2884,-235 2854.83,-205.555 2217.1064,-138.47 2082.0056,-124.5556"/>
<polygon fill="#191970" stroke="#191970" points="2082.1333,-121.0504 2071.828,-123.5102 2081.418,-128.0137 2082.1333,-121.0504"/>
</g>
<!-- Node46&#45;&gt;Node6 -->
<g id="edge147" class="edge">
<title>Node46&#45;&gt;Node6</title>
<path fill="none" stroke="#191970" d="M2908.6452,-374.6346C2914.0671,-364.5474 2921.8811,-348.2403 2925,-333 2933.8786,-289.615 2936.9141,-267.6532 2907,-235 2853.1481,-176.2171 2648.0863,-128.0619 2570,-112 2413.875,-79.886 1906.7065,-68.8468 1776.6259,-66.5073"/>
<polygon fill="#191970" stroke="#191970" points="1776.6255,-63.0069 1766.5655,-66.3304 1776.5023,-70.0058 1776.6255,-63.0069"/>
</g>
<!-- Node46&#45;&gt;Node11 -->
<g id="edge149" class="edge">
<title>Node46&#45;&gt;Node11</title>
<path fill="none" stroke="#191970" d="M2896.6713,-374.8631C2882.0836,-352.6501 2845.9012,-297.5541 2826.973,-268.7316"/>
<polygon fill="#191970" stroke="#191970" points="2829.6863,-266.4871 2821.2714,-260.0496 2823.8352,-270.3296 2829.6863,-266.4871"/>
</g>
<!-- Node46&#45;&gt;Node21 -->
<g id="edge151" class="edge">
<title>Node46&#45;&gt;Node21</title>
<path fill="none" stroke="#191970" d="M2918.0926,-374.7328C2930.6279,-365.6386 2947.5661,-350.8251 2955,-333 2971.7651,-292.8003 2977.34,-272.39 2955,-235 2921.4551,-178.8567 2849.3474,-148.9746 2799.0412,-134.3216"/>
<polygon fill="#191970" stroke="#191970" points="2799.862,-130.9169 2789.2886,-131.5908 2797.9745,-137.6576 2799.862,-130.9169"/>
</g>
</g>
</svg>
