<?xml version="1.0" encoding="UTF-8" standalone="no"?>
<!DOCTYPE svg PUBLIC "-//W3C//DTD SVG 1.1//EN"
 "http://www.w3.org/Graphics/SVG/1.1/DTD/svg11.dtd">
<!-- Generated by graphviz version 2.40.1 (20161225.0304)
 -->
<!-- Title: util/Convenience.cpp Pages: 1 -->
<svg width="318pt" height="196pt"
 viewBox="0.00 0.00 318.00 196.00" xmlns="http://www.w3.org/2000/svg" xmlns:xlink="http://www.w3.org/1999/xlink">
<g id="graph0" class="graph" transform="scale(1 1) rotate(0) translate(4 192)">
<title>util/Convenience.cpp</title>
<polygon fill="#ffffff" stroke="transparent" points="-4,4 -4,-192 314,-192 314,4 -4,4"/>
<!-- Node1 -->
<g id="node1" class="node">
<title>Node1</title>
<polygon fill="#bfbfbf" stroke="#000000" points="52.5,-168.5 52.5,-187.5 161.5,-187.5 161.5,-168.5 52.5,-168.5"/>
<text text-anchor="middle" x="107" y="-175.5" font-family="Helvetica,sans-Serif" font-size="10.00" fill="#000000">util/Convenience.cpp</text>
</g>
<!-- Node2 -->
<g id="node2" class="node">
<title>Node2</title>
<polygon fill="#ffffff" stroke="#bfbfbf" points="5.5,-112.5 5.5,-131.5 64.5,-131.5 64.5,-112.5 5.5,-112.5"/>
<text text-anchor="middle" x="35" y="-119.5" font-family="Helvetica,sans-Serif" font-size="10.00" fill="#000000">inttypes.h</text>
</g>
<!-- Node1&#45;&gt;Node2 -->
<g id="edge1" class="edge">
<title>Node1&#45;&gt;Node2</title>
<path fill="none" stroke="#191970" d="M94.4586,-168.2455C83.7213,-159.8943 68.0527,-147.7076 55.4953,-137.9408"/>
<polygon fill="#191970" stroke="#191970" points="57.4401,-135.0194 47.3977,-131.6427 53.1425,-140.5449 57.4401,-135.0194"/>
</g>
<!-- Node3 -->
<g id="node3" class="node">
<title>Node3</title>
<polygon fill="#ffffff" stroke="#bfbfbf" points="83,-112.5 83,-131.5 131,-131.5 131,-112.5 83,-112.5"/>
<text text-anchor="middle" x="107" y="-119.5" font-family="Helvetica,sans-Serif" font-size="10.00" fill="#000000">stdlib.h</text>
</g>
<!-- Node1&#45;&gt;Node3 -->
<g id="edge2" class="edge">
<title>Node1&#45;&gt;Node3</title>
<path fill="none" stroke="#191970" d="M107,-168.2455C107,-160.9382 107,-150.6944 107,-141.7046"/>
<polygon fill="#191970" stroke="#191970" points="110.5001,-141.6426 107,-131.6427 103.5001,-141.6427 110.5001,-141.6426"/>
</g>
<!-- Node4 -->
<g id="node4" class="node">
<title>Node4</title>
<g id="a_node4"><a xlink:href="$_convenience_8h.html" xlink:title="Convenience.h">
<polygon fill="#ffffff" stroke="#000000" points="149.5,-112.5 149.5,-131.5 232.5,-131.5 232.5,-112.5 149.5,-112.5"/>
<text text-anchor="middle" x="191" y="-119.5" font-family="Helvetica,sans-Serif" font-size="10.00" fill="#000000">Convenience.h</text>
</a>
</g>
</g>
<!-- Node1&#45;&gt;Node4 -->
<g id="edge3" class="edge">
<title>Node1&#45;&gt;Node4</title>
<path fill="none" stroke="#191970" d="M121.6317,-168.2455C134.3994,-159.7337 153.1438,-147.2375 167.9299,-137.3801"/>
<polygon fill="#191970" stroke="#191970" points="170.1569,-140.1019 176.536,-131.6427 166.274,-134.2775 170.1569,-140.1019"/>
</g>
<!-- Node5 -->
<g id="node5" class="node">
<title>Node5</title>
<g id="a_node5"><a xlink:href="$_common_8h.html" xlink:title="uscxml/Common.h">
<polygon fill="#ffffff" stroke="#000000" points="24.5,-56.5 24.5,-75.5 123.5,-75.5 123.5,-56.5 24.5,-56.5"/>
<text text-anchor="middle" x="74" y="-63.5" font-family="Helvetica,sans-Serif" font-size="10.00" fill="#000000">uscxml/Common.h</text>
</a>
</g>
</g>
<!-- Node4&#45;&gt;Node5 -->
<g id="edge4" class="edge">
<title>Node4&#45;&gt;Node5</title>
<path fill="none" stroke="#191970" d="M170.887,-112.3733C152.1897,-103.4241 124.1256,-89.9917 103.0066,-79.8835"/>
<polygon fill="#191970" stroke="#191970" points="104.3817,-76.6614 93.8506,-75.5011 101.3595,-82.9755 104.3817,-76.6614"/>
</g>
<!-- Node8 -->
<g id="node8" class="node">
<title>Node8</title>
<polygon fill="#ffffff" stroke="#bfbfbf" points="141.5,-56.5 141.5,-75.5 182.5,-75.5 182.5,-56.5 141.5,-56.5"/>
<text text-anchor="middle" x="162" y="-63.5" font-family="Helvetica,sans-Serif" font-size="10.00" fill="#000000">string</text>
</g>
<!-- Node4&#45;&gt;Node8 -->
<g id="edge7" class="edge">
<title>Node4&#45;&gt;Node8</title>
<path fill="none" stroke="#191970" d="M185.9486,-112.2455C181.9981,-104.617 176.3903,-93.7881 171.5942,-84.5267"/>
<polygon fill="#191970" stroke="#191970" points="174.7001,-82.9131 166.9935,-75.6427 168.4841,-86.1321 174.7001,-82.9131"/>
</g>
<!-- Node9 -->
<g id="node9" class="node">
<title>Node9</title>
<polygon fill="#ffffff" stroke="#bfbfbf" points="200.5,-56.5 200.5,-75.5 239.5,-75.5 239.5,-56.5 200.5,-56.5"/>
<text text-anchor="middle" x="220" y="-63.5" font-family="Helvetica,sans-Serif" font-size="10.00" fill="#000000">limits</text>
</g>
<!-- Node4&#45;&gt;Node9 -->
<g id="edge8" class="edge">
<title>Node4&#45;&gt;Node9</title>
<path fill="none" stroke="#191970" d="M196.0514,-112.2455C200.0019,-104.617 205.6097,-93.7881 210.4058,-84.5267"/>
<polygon fill="#191970" stroke="#191970" points="213.5159,-86.1321 215.0065,-75.6427 207.2999,-82.9131 213.5159,-86.1321"/>
</g>
<!-- Node10 -->
<g id="node10" class="node">
<title>Node10</title>
<polygon fill="#ffffff" stroke="#bfbfbf" points="258,-56.5 258,-75.5 310,-75.5 310,-56.5 258,-56.5"/>
<text text-anchor="middle" x="284" y="-63.5" font-family="Helvetica,sans-Serif" font-size="10.00" fill="#000000">sstream</text>
</g>
<!-- Node4&#45;&gt;Node10 -->
<g id="edge9" class="edge">
<title>Node4&#45;&gt;Node10</title>
<path fill="none" stroke="#191970" d="M207.1994,-112.2455C221.6018,-103.5731 242.8732,-90.7645 259.3799,-80.825"/>
<polygon fill="#191970" stroke="#191970" points="261.225,-83.7996 267.9863,-75.6427 257.614,-77.8028 261.225,-83.7996"/>
</g>
<!-- Node6 -->
<g id="node6" class="node">
<title>Node6</title>
<polygon fill="#ffffff" stroke="#bfbfbf" points="0,-.5 0,-19.5 72,-19.5 72,-.5 0,-.5"/>
<text text-anchor="middle" x="36" y="-7.5" font-family="Helvetica,sans-Serif" font-size="10.00" fill="#000000">sys/socket.h</text>
</g>
<!-- Node5&#45;&gt;Node6 -->
<g id="edge5" class="edge">
<title>Node5&#45;&gt;Node6</title>
<path fill="none" stroke="#191970" d="M67.3809,-56.2455C62.0954,-48.4564 54.5459,-37.3308 48.1762,-27.9439"/>
<polygon fill="#191970" stroke="#191970" points="51.0545,-25.9522 42.5432,-19.6427 45.2621,-29.8827 51.0545,-25.9522"/>
</g>
<!-- Node7 -->
<g id="node7" class="node">
<title>Node7</title>
<polygon fill="#ffffff" stroke="#bfbfbf" points="90,-.5 90,-19.5 134,-19.5 134,-.5 90,-.5"/>
<text text-anchor="middle" x="112" y="-7.5" font-family="Helvetica,sans-Serif" font-size="10.00" fill="#000000">cmath</text>
</g>
<!-- Node5&#45;&gt;Node7 -->
<g id="edge6" class="edge">
<title>Node5&#45;&gt;Node7</title>
<path fill="none" stroke="#191970" d="M80.6191,-56.2455C85.9046,-48.4564 93.4541,-37.3308 99.8238,-27.9439"/>
<polygon fill="#191970" stroke="#191970" points="102.7379,-29.8827 105.4568,-19.6427 96.9455,-25.9522 102.7379,-29.8827"/>
</g>
</g>
</svg>
