<?xml version="1.0" encoding="UTF-8" standalone="no"?>
<!DOCTYPE svg PUBLIC "-//W3C//DTD SVG 1.1//EN"
 "http://www.w3.org/Graphics/SVG/1.1/DTD/svg11.dtd">
<!-- Generated by graphviz version 2.38.0 (20140413.2041)
 -->
<!-- Title: interpreter/ContentExecutor.h Pages: 1 -->
<svg width="479pt" height="252pt"
 viewBox="0.00 0.00 479.00 252.00" xmlns="http://www.w3.org/2000/svg" xmlns:xlink="http://www.w3.org/1999/xlink">
<g id="graph0" class="graph" transform="scale(1 1) rotate(0) translate(4 248)">
<title>interpreter/ContentExecutor.h</title>
<polygon fill="white" stroke="none" points="-4,4 -4,-248 475,-248 475,4 -4,4"/>
<!-- Node1 -->
<g id="node1" class="node"><title>Node1</title>
<polygon fill="#bfbfbf" stroke="black" points="60.5,-224.5 60.5,-243.5 208.5,-243.5 208.5,-224.5 60.5,-224.5"/>
<text text-anchor="middle" x="134.5" y="-231.5" font-family="Helvetica,sans-Serif" font-size="10.00">interpreter/ContentExecutor.h</text>
</g>
<!-- Node2 -->
<g id="node2" class="node"><title>Node2</title>
<g id="a_node2"><a xlink:href="_common_8h.html" target="_top" xlink:title="uscxml/Common.h">
<polygon fill="white" stroke="black" points="112,-56.5 112,-75.5 211,-75.5 211,-56.5 112,-56.5"/>
<text text-anchor="middle" x="161.5" y="-63.5" font-family="Helvetica,sans-Serif" font-size="10.00">uscxml/Common.h</text>
</a>
</g>
</g>
<!-- Node1&#45;&gt;Node2 -->
<g id="edge1" class="edge"><title>Node1&#45;&gt;Node2</title>
<path fill="none" stroke="midnightblue" d="M109.61,-224.363C93.1104,-217.268 72.5374,-205.505 61.5,-188 43.4286,-159.339 36.7994,-140.255 55.5,-112 66.1601,-95.8936 83.8704,-85.535 101.792,-78.8797"/>
<polygon fill="midnightblue" stroke="midnightblue" points="103.357,-82.0467 111.726,-75.5504 101.132,-75.4095 103.357,-82.0467"/>
</g>
<!-- Node5 -->
<g id="node5" class="node"><title>Node5</title>
<g id="a_node5"><a xlink:href="_data_8h.html" target="_top" xlink:title="uscxml/messages/Data.h">
<polygon fill="white" stroke="black" points="70.5,-168.5 70.5,-187.5 198.5,-187.5 198.5,-168.5 70.5,-168.5"/>
<text text-anchor="middle" x="134.5" y="-175.5" font-family="Helvetica,sans-Serif" font-size="10.00">uscxml/messages/Data.h</text>
</a>
</g>
</g>
<!-- Node1&#45;&gt;Node5 -->
<g id="edge4" class="edge"><title>Node1&#45;&gt;Node5</title>
<path fill="none" stroke="midnightblue" d="M134.5,-224.083C134.5,-217.006 134.5,-206.861 134.5,-197.986"/>
<polygon fill="midnightblue" stroke="midnightblue" points="138,-197.751 134.5,-187.751 131,-197.751 138,-197.751"/>
</g>
<!-- Node10 -->
<g id="node10" class="node"><title>Node10</title>
<polygon fill="white" stroke="#bfbfbf" points="430,-56.5 430,-75.5 471,-75.5 471,-56.5 430,-56.5"/>
<text text-anchor="middle" x="450.5" y="-63.5" font-family="Helvetica,sans-Serif" font-size="10.00">string</text>
</g>
<!-- Node1&#45;&gt;Node10 -->
<g id="edge18" class="edge"><title>Node1&#45;&gt;Node10</title>
<path fill="none" stroke="midnightblue" d="M187.119,-224.449C270.939,-209.635 428.695,-176.467 461.5,-132 471.56,-118.363 466.304,-98.7576 460.083,-84.6489"/>
<polygon fill="midnightblue" stroke="midnightblue" points="463.142,-82.9393 455.588,-75.5112 456.861,-86.0292 463.142,-82.9393"/>
</g>
<!-- Node3 -->
<g id="node3" class="node"><title>Node3</title>
<polygon fill="white" stroke="#bfbfbf" points="87.5,-0.5 87.5,-19.5 159.5,-19.5 159.5,-0.5 87.5,-0.5"/>
<text text-anchor="middle" x="123.5" y="-7.5" font-family="Helvetica,sans-Serif" font-size="10.00">sys/socket.h</text>
</g>
<!-- Node2&#45;&gt;Node3 -->
<g id="edge2" class="edge"><title>Node2&#45;&gt;Node3</title>
<path fill="none" stroke="midnightblue" d="M155.225,-56.083C149.858,-48.4554 141.982,-37.2645 135.421,-27.9408"/>
<polygon fill="midnightblue" stroke="midnightblue" points="138.275,-25.9149 129.658,-19.7511 132.551,-29.9434 138.275,-25.9149"/>
</g>
<!-- Node4 -->
<g id="node4" class="node"><title>Node4</title>
<polygon fill="white" stroke="#bfbfbf" points="177.5,-0.5 177.5,-19.5 221.5,-19.5 221.5,-0.5 177.5,-0.5"/>
<text text-anchor="middle" x="199.5" y="-7.5" font-family="Helvetica,sans-Serif" font-size="10.00">cmath</text>
</g>
<!-- Node2&#45;&gt;Node4 -->
<g id="edge3" class="edge"><title>Node2&#45;&gt;Node4</title>
<path fill="none" stroke="midnightblue" d="M167.775,-56.083C173.142,-48.4554 181.018,-37.2645 187.579,-27.9408"/>
<polygon fill="midnightblue" stroke="midnightblue" points="190.449,-29.9434 193.342,-19.7511 184.725,-25.9149 190.449,-29.9434"/>
</g>
<!-- Node5&#45;&gt;Node2 -->
<g id="edge8" class="edge"><title>Node5&#45;&gt;Node2</title>
<path fill="none" stroke="midnightblue" d="M111.266,-168.464C84.711,-157.324 46.8186,-136.353 62.5,-112 72.8059,-95.9949 90.351,-85.6167 107.834,-78.9158"/>
<polygon fill="midnightblue" stroke="midnightblue" points="109.197,-82.1475 117.494,-75.559 106.9,-75.5353 109.197,-82.1475"/>
</g>
<!-- Node6 -->
<g id="node6" class="node"><title>Node6</title>
<polygon fill="white" stroke="#bfbfbf" points="72,-112.5 72,-131.5 101,-131.5 101,-112.5 72,-112.5"/>
<text text-anchor="middle" x="86.5" y="-119.5" font-family="Helvetica,sans-Serif" font-size="10.00">list</text>
</g>
<!-- Node5&#45;&gt;Node6 -->
<g id="edge5" class="edge"><title>Node5&#45;&gt;Node6</title>
<path fill="none" stroke="midnightblue" d="M126.574,-168.083C119.654,-160.298 109.435,-148.801 101.048,-139.367"/>
<polygon fill="midnightblue" stroke="midnightblue" points="103.538,-136.9 94.2787,-131.751 98.3065,-141.55 103.538,-136.9"/>
</g>
<!-- Node7 -->
<g id="node7" class="node"><title>Node7</title>
<polygon fill="white" stroke="#bfbfbf" points="264.5,-112.5 264.5,-131.5 300.5,-131.5 300.5,-112.5 264.5,-112.5"/>
<text text-anchor="middle" x="282.5" y="-119.5" font-family="Helvetica,sans-Serif" font-size="10.00">map</text>
</g>
<!-- Node5&#45;&gt;Node7 -->
<g id="edge6" class="edge"><title>Node5&#45;&gt;Node7</title>
<path fill="none" stroke="midnightblue" d="M157.951,-168.444C184.23,-158.855 226.799,-143.323 254.723,-133.135"/>
<polygon fill="midnightblue" stroke="midnightblue" points="256.096,-136.36 264.291,-129.644 253.697,-129.784 256.096,-136.36"/>
</g>
<!-- Node8 -->
<g id="node8" class="node"><title>Node8</title>
<polygon fill="white" stroke="#bfbfbf" points="0,-56.5 0,-75.5 53,-75.5 53,-56.5 0,-56.5"/>
<text text-anchor="middle" x="26.5" y="-63.5" font-family="Helvetica,sans-Serif" font-size="10.00">memory</text>
</g>
<!-- Node5&#45;&gt;Node8 -->
<g id="edge7" class="edge"><title>Node5&#45;&gt;Node8</title>
<path fill="none" stroke="midnightblue" d="M111.133,-168.367C93.8525,-160.974 70.7645,-148.841 55.5,-132 43.4515,-118.707 35.7416,-99.585 31.3245,-85.5213"/>
<polygon fill="midnightblue" stroke="midnightblue" points="34.5832,-84.1868 28.468,-75.5349 27.8531,-86.1119 34.5832,-84.1868"/>
</g>
<!-- Node9 -->
<g id="node9" class="node"><title>Node9</title>
<g id="a_node9"><a xlink:href="_convenience_8h.html" target="_top" xlink:title="uscxml/util/Convenience.h">
<polygon fill="white" stroke="black" points="319,-112.5 319,-131.5 452,-131.5 452,-112.5 319,-112.5"/>
<text text-anchor="middle" x="385.5" y="-119.5" font-family="Helvetica,sans-Serif" font-size="10.00">uscxml/util/Convenience.h</text>
</a>
</g>
</g>
<!-- Node5&#45;&gt;Node9 -->
<g id="edge9" class="edge"><title>Node5&#45;&gt;Node9</title>
<path fill="none" stroke="midnightblue" d="M174.272,-168.444C218.058,-159.023 288.514,-143.866 335.88,-133.675"/>
<polygon fill="midnightblue" stroke="midnightblue" points="336.874,-137.041 345.914,-131.516 335.402,-130.198 336.874,-137.041"/>
</g>
<!-- Node13 -->
<g id="node13" class="node"><title>Node13</title>
<g id="a_node13"><a xlink:href="_blob_8h.html" target="_top" xlink:title="uscxml/messages/Blob.h">
<polygon fill="white" stroke="black" points="119,-112.5 119,-131.5 246,-131.5 246,-112.5 119,-112.5"/>
<text text-anchor="middle" x="182.5" y="-119.5" font-family="Helvetica,sans-Serif" font-size="10.00">uscxml/messages/Blob.h</text>
</a>
</g>
</g>
<!-- Node5&#45;&gt;Node13 -->
<g id="edge14" class="edge"><title>Node5&#45;&gt;Node13</title>
<path fill="none" stroke="midnightblue" d="M142.426,-168.083C149.346,-160.298 159.565,-148.801 167.952,-139.367"/>
<polygon fill="midnightblue" stroke="midnightblue" points="170.694,-141.55 174.721,-131.751 165.462,-136.9 170.694,-141.55"/>
</g>
<!-- Node9&#45;&gt;Node2 -->
<g id="edge10" class="edge"><title>Node9&#45;&gt;Node2</title>
<path fill="none" stroke="midnightblue" d="M350.007,-112.444C311.176,-103.083 248.844,-88.0561 206.582,-77.868"/>
<polygon fill="midnightblue" stroke="midnightblue" points="207.369,-74.4576 196.827,-75.5164 205.729,-81.2626 207.369,-74.4576"/>
</g>
<!-- Node9&#45;&gt;Node10 -->
<g id="edge11" class="edge"><title>Node9&#45;&gt;Node10</title>
<path fill="none" stroke="midnightblue" d="M395.943,-112.324C405.646,-104.263 420.315,-92.0765 432,-82.3695"/>
<polygon fill="midnightblue" stroke="midnightblue" points="434.411,-84.9163 439.867,-75.8339 429.938,-79.532 434.411,-84.9163"/>
</g>
<!-- Node11 -->
<g id="node11" class="node"><title>Node11</title>
<polygon fill="white" stroke="#bfbfbf" points="302,-56.5 302,-75.5 341,-75.5 341,-56.5 302,-56.5"/>
<text text-anchor="middle" x="321.5" y="-63.5" font-family="Helvetica,sans-Serif" font-size="10.00">limits</text>
</g>
<!-- Node9&#45;&gt;Node11 -->
<g id="edge12" class="edge"><title>Node9&#45;&gt;Node11</title>
<path fill="none" stroke="midnightblue" d="M375.217,-112.324C365.664,-104.263 351.22,-92.0765 339.716,-82.3695"/>
<polygon fill="midnightblue" stroke="midnightblue" points="341.87,-79.6076 331.97,-75.8339 337.356,-84.9577 341.87,-79.6076"/>
</g>
<!-- Node12 -->
<g id="node12" class="node"><title>Node12</title>
<polygon fill="white" stroke="#bfbfbf" points="359.5,-56.5 359.5,-75.5 411.5,-75.5 411.5,-56.5 359.5,-56.5"/>
<text text-anchor="middle" x="385.5" y="-63.5" font-family="Helvetica,sans-Serif" font-size="10.00">sstream</text>
</g>
<!-- Node9&#45;&gt;Node12 -->
<g id="edge13" class="edge"><title>Node9&#45;&gt;Node12</title>
<path fill="none" stroke="midnightblue" d="M385.5,-112.083C385.5,-105.006 385.5,-94.8611 385.5,-85.9865"/>
<polygon fill="midnightblue" stroke="midnightblue" points="389,-85.751 385.5,-75.7511 382,-85.7511 389,-85.751"/>
</g>
<!-- Node13&#45;&gt;Node2 -->
<g id="edge17" class="edge"><title>Node13&#45;&gt;Node2</title>
<path fill="none" stroke="midnightblue" d="M179.032,-112.083C176.188,-104.77 172.071,-94.1814 168.54,-85.1034"/>
<polygon fill="midnightblue" stroke="midnightblue" points="171.79,-83.8025 164.903,-75.7511 165.266,-86.3397 171.79,-83.8025"/>
</g>
<!-- Node13&#45;&gt;Node8 -->
<g id="edge16" class="edge"><title>Node13&#45;&gt;Node8</title>
<path fill="none" stroke="midnightblue" d="M157.781,-112.444C131.652,-103.399 90.2406,-89.064 60.9236,-78.9158"/>
<polygon fill="midnightblue" stroke="midnightblue" points="61.6978,-75.4801 51.103,-75.5164 59.408,-82.0951 61.6978,-75.4801"/>
</g>
<!-- Node13&#45;&gt;Node10 -->
<g id="edge15" class="edge"><title>Node13&#45;&gt;Node10</title>
<path fill="none" stroke="midnightblue" d="M236.249,-112.489C282.536,-104.786 351.273,-92.4607 420.196,-75.8542"/>
<polygon fill="midnightblue" stroke="midnightblue" points="421.035,-79.2524 429.921,-73.4826 419.376,-72.4518 421.035,-79.2524"/>
</g>
</g>
</svg>
