<?xml version="1.0" encoding="UTF-8" standalone="no"?>
<!DOCTYPE svg PUBLIC "-//W3C//DTD SVG 1.1//EN"
 "http://www.w3.org/Graphics/SVG/1.1/DTD/svg11.dtd">
<!-- Generated by graphviz version 2.38.0 (20140413.2041)
 -->
<!-- Title: interpreter/ContentExecutorImpl.h Pages: 1 -->
<svg width="1945pt" height="374pt"
 viewBox="0.00 0.00 1944.50 374.00" xmlns="http://www.w3.org/2000/svg" xmlns:xlink="http://www.w3.org/1999/xlink">
<g id="graph0" class="graph" transform="scale(1 1) rotate(0) translate(4 370)">
<title>interpreter/ContentExecutorImpl.h</title>
<polygon fill="white" stroke="none" points="-4,4 -4,-370 1940.5,-370 1940.5,4 -4,4"/>
<!-- Node1 -->
<g id="node1" class="node"><title>Node1</title>
<polygon fill="#bfbfbf" stroke="black" points="1629,-335.5 1629,-365.5 1768,-365.5 1768,-335.5 1629,-335.5"/>
<text text-anchor="start" x="1637" y="-353.5" font-family="Helvetica,sans-Serif" font-size="10.00">interpreter/ContentExecutor</text>
<text text-anchor="middle" x="1698.5" y="-342.5" font-family="Helvetica,sans-Serif" font-size="10.00">Impl.h</text>
</g>
<!-- Node2 -->
<g id="node2" class="node"><title>Node2</title>
<g id="a_node2"><a xlink:href="_basic_content_executor_8h.html" target="_top" xlink:title="interpreter/BasicContent\lExecutor.h">
<polygon fill="white" stroke="black" points="1636.5,-268.5 1636.5,-298.5 1760.5,-298.5 1760.5,-268.5 1636.5,-268.5"/>
<text text-anchor="start" x="1644.5" y="-286.5" font-family="Helvetica,sans-Serif" font-size="10.00">interpreter/BasicContent</text>
<text text-anchor="middle" x="1698.5" y="-275.5" font-family="Helvetica,sans-Serif" font-size="10.00">Executor.h</text>
</a>
</g>
</g>
<!-- Node1&#45;&gt;Node2 -->
<g id="edge1" class="edge"><title>Node1&#45;&gt;Node2</title>
<path fill="none" stroke="midnightblue" d="M1698.5,-325.108C1698.5,-316.154 1698.5,-306.323 1698.5,-298.577"/>
<polygon fill="midnightblue" stroke="midnightblue" points="1695,-325.396 1698.5,-335.396 1702,-325.396 1695,-325.396"/>
</g>
<!-- Node5 -->
<g id="node5" class="node"><title>Node5</title>
<g id="a_node5"><a xlink:href="_content_executor_8cpp.html" target="_top" xlink:title="interpreter/ContentExecutor.cpp">
<polygon fill="white" stroke="black" points="1778.5,-274 1778.5,-293 1936.5,-293 1936.5,-274 1778.5,-274"/>
<text text-anchor="middle" x="1857.5" y="-281" font-family="Helvetica,sans-Serif" font-size="10.00">interpreter/ContentExecutor.cpp</text>
</a>
</g>
</g>
<!-- Node1&#45;&gt;Node5 -->
<g id="edge4" class="edge"><title>Node1&#45;&gt;Node5</title>
<path fill="none" stroke="midnightblue" d="M1742.63,-331.458C1773.35,-318.9 1812.92,-302.724 1836.69,-293.007"/>
<polygon fill="midnightblue" stroke="midnightblue" points="1740.93,-328.372 1733,-335.396 1743.58,-334.852 1740.93,-328.372"/>
</g>
<!-- Node6 -->
<g id="node6" class="node"><title>Node6</title>
<g id="a_node6"><a xlink:href="_interpreter_impl_8h.html" target="_top" xlink:title="interpreter/InterpreterImpl.h">
<polygon fill="white" stroke="black" points="826.5,-274 826.5,-293 964.5,-293 964.5,-274 826.5,-274"/>
<text text-anchor="middle" x="895.5" y="-281" font-family="Helvetica,sans-Serif" font-size="10.00">interpreter/InterpreterImpl.h</text>
</a>
</g>
</g>
<!-- Node1&#45;&gt;Node6 -->
<g id="edge5" class="edge"><title>Node1&#45;&gt;Node6</title>
<path fill="none" stroke="midnightblue" d="M1618.91,-343.058C1461.58,-330.322 1113.18,-302.12 964.7,-290.101"/>
<polygon fill="midnightblue" stroke="midnightblue" points="1618.74,-346.555 1628.99,-343.874 1619.31,-339.578 1618.74,-346.555"/>
</g>
<!-- Node3 -->
<g id="node3" class="node"><title>Node3</title>
<g id="a_node3"><a xlink:href="_basic_content_executor_8cpp.html" target="_top" xlink:title="interpreter/BasicContent\lExecutor.cpp">
<polygon fill="white" stroke="black" points="1636.5,-201.5 1636.5,-231.5 1760.5,-231.5 1760.5,-201.5 1636.5,-201.5"/>
<text text-anchor="start" x="1644.5" y="-219.5" font-family="Helvetica,sans-Serif" font-size="10.00">interpreter/BasicContent</text>
<text text-anchor="middle" x="1698.5" y="-208.5" font-family="Helvetica,sans-Serif" font-size="10.00">Executor.cpp</text>
</a>
</g>
</g>
<!-- Node2&#45;&gt;Node3 -->
<g id="edge2" class="edge"><title>Node2&#45;&gt;Node3</title>
<path fill="none" stroke="midnightblue" d="M1698.5,-258.108C1698.5,-249.154 1698.5,-239.323 1698.5,-231.577"/>
<polygon fill="midnightblue" stroke="midnightblue" points="1695,-258.396 1698.5,-268.396 1702,-258.396 1695,-258.396"/>
</g>
<!-- Node4 -->
<g id="node4" class="node"><title>Node4</title>
<g id="a_node4"><a xlink:href="_interpreter_impl_8cpp.html" target="_top" xlink:title="interpreter/InterpreterImpl.cpp">
<polygon fill="white" stroke="black" points="1718,-140 1718,-159 1867,-159 1867,-140 1718,-140"/>
<text text-anchor="middle" x="1792.5" y="-147" font-family="Helvetica,sans-Serif" font-size="10.00">interpreter/InterpreterImpl.cpp</text>
</a>
</g>
</g>
<!-- Node2&#45;&gt;Node4 -->
<g id="edge3" class="edge"><title>Node2&#45;&gt;Node4</title>
<path fill="none" stroke="midnightblue" d="M1735.84,-262.819C1748.1,-254.73 1760.81,-244.338 1769.5,-232 1785.67,-209.045 1790.52,-174.976 1791.93,-159.155"/>
<polygon fill="midnightblue" stroke="midnightblue" points="1733.68,-260.038 1727.05,-268.296 1737.38,-265.979 1733.68,-260.038"/>
</g>
<!-- Node6&#45;&gt;Node4 -->
<g id="edge13" class="edge"><title>Node6&#45;&gt;Node4</title>
<path fill="none" stroke="midnightblue" d="M975.145,-281.446C1130.53,-278.6 1468.55,-268.309 1578.5,-232 1602.97,-223.919 1604.08,-211.756 1627.5,-201 1669.29,-181.808 1720.29,-167.475 1754.42,-159.074"/>
<polygon fill="midnightblue" stroke="midnightblue" points="974.665,-277.954 964.728,-281.631 974.789,-284.953 974.665,-277.954"/>
</g>
<!-- Node7 -->
<g id="node7" class="node"><title>Node7</title>
<g id="a_node7"><a xlink:href="_breakpoint_8cpp.html" target="_top" xlink:title="debug/Breakpoint.cpp">
<polygon fill="white" stroke="black" points="357.5,-207 357.5,-226 471.5,-226 471.5,-207 357.5,-207"/>
<text text-anchor="middle" x="414.5" y="-214" font-family="Helvetica,sans-Serif" font-size="10.00">debug/Breakpoint.cpp</text>
</a>
</g>
</g>
<!-- Node6&#45;&gt;Node7 -->
<g id="edge6" class="edge"><title>Node6&#45;&gt;Node7</title>
<path fill="none" stroke="midnightblue" d="M816.259,-274.614C733.483,-265.939 599.988,-250.712 485.5,-232 475.07,-230.295 463.841,-228.148 453.46,-226.033"/>
<polygon fill="midnightblue" stroke="midnightblue" points="816.038,-278.11 826.347,-275.665 816.764,-271.148 816.038,-278.11"/>
</g>
<!-- Node8 -->
<g id="node8" class="node"><title>Node8</title>
<g id="a_node8"><a xlink:href="_debugger_8h.html" target="_top" xlink:title="debug/Debugger.h">
<polygon fill="white" stroke="black" points="197,-207 197,-226 296,-226 296,-207 197,-207"/>
<text text-anchor="middle" x="246.5" y="-214" font-family="Helvetica,sans-Serif" font-size="10.00">debug/Debugger.h</text>
</a>
</g>
</g>
<!-- Node6&#45;&gt;Node8 -->
<g id="edge7" class="edge"><title>Node6&#45;&gt;Node8</title>
<path fill="none" stroke="midnightblue" d="M816.281,-276.415C709.775,-267.954 514.588,-251.46 348.5,-232 331.446,-230.002 312.838,-227.463 296.241,-225.07"/>
<polygon fill="midnightblue" stroke="midnightblue" points="816.062,-279.909 826.307,-277.209 816.614,-272.931 816.062,-279.909"/>
</g>
<!-- Node13 -->
<g id="node13" class="node"><title>Node13</title>
<g id="a_node13"><a xlink:href="_interpreter_issue_8cpp.html" target="_top" xlink:title="debug/InterpreterIssue.cpp">
<polygon fill="white" stroke="black" points="527.5,-207 527.5,-226 663.5,-226 663.5,-207 527.5,-207"/>
<text text-anchor="middle" x="595.5" y="-214" font-family="Helvetica,sans-Serif" font-size="10.00">debug/InterpreterIssue.cpp</text>
</a>
</g>
</g>
<!-- Node6&#45;&gt;Node13 -->
<g id="edge12" class="edge"><title>Node6&#45;&gt;Node13</title>
<path fill="none" stroke="midnightblue" d="M846.129,-271.803C787.093,-259.012 689.459,-237.858 635.116,-226.083"/>
<polygon fill="midnightblue" stroke="midnightblue" points="845.457,-275.239 855.972,-273.936 846.94,-268.397 845.457,-275.239"/>
</g>
<!-- Node14 -->
<g id="node14" class="node"><title>Node14</title>
<g id="a_node14"><a xlink:href="_interpreter_8cpp.html" target="_top" xlink:title="Interpreter.cpp">
<polygon fill="white" stroke="black" points="681.5,-207 681.5,-226 763.5,-226 763.5,-207 681.5,-207"/>
<text text-anchor="middle" x="722.5" y="-214" font-family="Helvetica,sans-Serif" font-size="10.00">Interpreter.cpp</text>
</a>
</g>
</g>
<!-- Node6&#45;&gt;Node14 -->
<g id="edge14" class="edge"><title>Node6&#45;&gt;Node14</title>
<path fill="none" stroke="midnightblue" d="M862.951,-270.271C828.615,-257.37 775.4,-237.376 745.293,-226.064"/>
<polygon fill="midnightblue" stroke="midnightblue" points="861.935,-273.628 872.527,-273.869 864.397,-267.075 861.935,-273.628"/>
</g>
<!-- Node15 -->
<g id="node15" class="node"><title>Node15</title>
<g id="a_node15"><a xlink:href="_u_s_c_x_m_l_invoker_8h.html" target="_top" xlink:title="plugins/invoker/scxml\l/USCXMLInvoker.h">
<polygon fill="white" stroke="black" points="1331.5,-134.5 1331.5,-164.5 1443.5,-164.5 1443.5,-134.5 1331.5,-134.5"/>
<text text-anchor="start" x="1339.5" y="-152.5" font-family="Helvetica,sans-Serif" font-size="10.00">plugins/invoker/scxml</text>
<text text-anchor="middle" x="1387.5" y="-141.5" font-family="Helvetica,sans-Serif" font-size="10.00">/USCXMLInvoker.h</text>
</a>
</g>
</g>
<!-- Node6&#45;&gt;Node15 -->
<g id="edge15" class="edge"><title>Node6&#45;&gt;Node15</title>
<path fill="none" stroke="midnightblue" d="M953.276,-272.115C1002.14,-262.909 1073.84,-248.408 1135.5,-232 1211.71,-211.72 1298.9,-182.035 1348.17,-164.648"/>
<polygon fill="midnightblue" stroke="midnightblue" points="952.394,-268.719 943.207,-273.997 953.68,-275.6 952.394,-268.719"/>
</g>
<!-- Node17 -->
<g id="node17" class="node"><title>Node17</title>
<g id="a_node17"><a xlink:href="_invoker_impl_8h.html" target="_top" xlink:title="plugins/InvokerImpl.h">
<polygon fill="white" stroke="black" points="1458,-207 1458,-226 1569,-226 1569,-207 1458,-207"/>
<text text-anchor="middle" x="1513.5" y="-214" font-family="Helvetica,sans-Serif" font-size="10.00">plugins/InvokerImpl.h</text>
</a>
</g>
</g>
<!-- Node6&#45;&gt;Node17 -->
<g id="edge17" class="edge"><title>Node6&#45;&gt;Node17</title>
<path fill="none" stroke="midnightblue" d="M974.645,-274.176C1101.65,-260.817 1347.86,-234.921 1457.96,-223.342"/>
<polygon fill="midnightblue" stroke="midnightblue" points="974.173,-270.706 964.594,-275.233 974.905,-277.668 974.173,-270.706"/>
</g>
<!-- Node21 -->
<g id="node21" class="node"><title>Node21</title>
<g id="a_node21"><a xlink:href="_basic_h_t_t_p_i_o_processor_8h.html" target="_top" xlink:title="plugins/ioprocessor\l/basichttp/BasicHTTPIOProcessor.h">
<polygon fill="white" stroke="black" points="428,-134.5 428,-164.5 605,-164.5 605,-134.5 428,-134.5"/>
<text text-anchor="start" x="436" y="-152.5" font-family="Helvetica,sans-Serif" font-size="10.00">plugins/ioprocessor</text>
<text text-anchor="middle" x="516.5" y="-141.5" font-family="Helvetica,sans-Serif" font-size="10.00">/basichttp/BasicHTTPIOProcessor.h</text>
</a>
</g>
</g>
<!-- Node6&#45;&gt;Node21 -->
<g id="edge23" class="edge"><title>Node6&#45;&gt;Node21</title>
<path fill="none" stroke="midnightblue" d="M816.197,-283.441C717.403,-282.737 556.879,-274.792 518.5,-232 502.057,-213.666 507.042,-182.604 511.923,-164.586"/>
<polygon fill="midnightblue" stroke="midnightblue" points="816.43,-286.942 826.446,-283.49 816.463,-279.942 816.43,-286.942"/>
</g>
<!-- Node23 -->
<g id="node23" class="node"><title>Node23</title>
<g id="a_node23"><a xlink:href="_s_c_x_m_l_i_o_processor_8cpp.html" target="_top" xlink:title="plugins/ioprocessor\l/scxml/SCXMLIOProcessor.cpp">
<polygon fill="white" stroke="black" points="652,-67.5 652,-97.5 809,-97.5 809,-67.5 652,-67.5"/>
<text text-anchor="start" x="660" y="-85.5" font-family="Helvetica,sans-Serif" font-size="10.00">plugins/ioprocessor</text>
<text text-anchor="middle" x="730.5" y="-74.5" font-family="Helvetica,sans-Serif" font-size="10.00">/scxml/SCXMLIOProcessor.cpp</text>
</a>
</g>
</g>
<!-- Node6&#45;&gt;Node23 -->
<g id="edge25" class="edge"><title>Node6&#45;&gt;Node23</title>
<path fill="none" stroke="midnightblue" d="M908.254,-265.501C914.476,-256.143 921.295,-244.015 924.5,-232 929.737,-212.363 928.215,-142.328 921.5,-134 907.049,-116.076 855.228,-103.064 809.206,-94.7401"/>
<polygon fill="midnightblue" stroke="midnightblue" points="905.286,-263.638 902.389,-273.829 911.008,-267.668 905.286,-263.638"/>
</g>
<!-- Node24 -->
<g id="node24" class="node"><title>Node24</title>
<g id="a_node24"><a xlink:href="_i_o_processor_impl_8h.html" target="_top" xlink:title="plugins/IOProcessorImpl.h">
<polygon fill="white" stroke="black" points="781.5,-207 781.5,-226 915.5,-226 915.5,-207 781.5,-207"/>
<text text-anchor="middle" x="848.5" y="-214" font-family="Helvetica,sans-Serif" font-size="10.00">plugins/IOProcessorImpl.h</text>
</a>
</g>
</g>
<!-- Node6&#45;&gt;Node24 -->
<g id="edge26" class="edge"><title>Node6&#45;&gt;Node24</title>
<path fill="none" stroke="midnightblue" d="M883.138,-265.404C874.005,-252.773 861.952,-236.104 854.738,-226.127"/>
<polygon fill="midnightblue" stroke="midnightblue" points="880.466,-267.681 889.161,-273.734 886.138,-263.579 880.466,-267.681"/>
</g>
<!-- Node27 -->
<g id="node27" class="node"><title>Node27</title>
<g id="a_node27"><a xlink:href="_transformer_8h.html" target="_top" xlink:title="transform/Transformer.h">
<polygon fill="white" stroke="black" points="1002.5,-207 1002.5,-226 1126.5,-226 1126.5,-207 1002.5,-207"/>
<text text-anchor="middle" x="1064.5" y="-214" font-family="Helvetica,sans-Serif" font-size="10.00">transform/Transformer.h</text>
</a>
</g>
</g>
<!-- Node6&#45;&gt;Node27 -->
<g id="edge31" class="edge"><title>Node6&#45;&gt;Node27</title>
<path fill="none" stroke="midnightblue" d="M927.296,-270.271C960.838,-257.37 1012.82,-237.376 1042.23,-226.064"/>
<polygon fill="midnightblue" stroke="midnightblue" points="926.019,-267.012 917.942,-273.869 928.532,-273.545 926.019,-267.012"/>
</g>
<!-- Node9 -->
<g id="node9" class="node"><title>Node9</title>
<g id="a_node9"><a xlink:href="_debugger_8cpp.html" target="_top" xlink:title="debug/Debugger.cpp">
<polygon fill="white" stroke="black" points="149.5,-140 149.5,-159 259.5,-159 259.5,-140 149.5,-140"/>
<text text-anchor="middle" x="204.5" y="-147" font-family="Helvetica,sans-Serif" font-size="10.00">debug/Debugger.cpp</text>
</a>
</g>
</g>
<!-- Node8&#45;&gt;Node9 -->
<g id="edge8" class="edge"><title>Node8&#45;&gt;Node9</title>
<path fill="none" stroke="midnightblue" d="M235.215,-198.035C227.083,-185.45 216.459,-169.007 210.075,-159.127"/>
<polygon fill="midnightblue" stroke="midnightblue" points="232.469,-200.234 240.836,-206.734 238.348,-196.435 232.469,-200.234"/>
</g>
<!-- Node10 -->
<g id="node10" class="node"><title>Node10</title>
<g id="a_node10"><a xlink:href="_debugger_servlet_8h.html" target="_top" xlink:title="debug/DebuggerServlet.h">
<polygon fill="white" stroke="black" points="277.5,-140 277.5,-159 407.5,-159 407.5,-140 277.5,-140"/>
<text text-anchor="middle" x="342.5" y="-147" font-family="Helvetica,sans-Serif" font-size="10.00">debug/DebuggerServlet.h</text>
</a>
</g>
</g>
<!-- Node8&#45;&gt;Node10 -->
<g id="edge9" class="edge"><title>Node8&#45;&gt;Node10</title>
<path fill="none" stroke="midnightblue" d="M267.776,-201.095C286.767,-188.236 313.95,-169.831 329.758,-159.127"/>
<polygon fill="midnightblue" stroke="midnightblue" points="265.765,-198.229 259.447,-206.734 269.69,-204.025 265.765,-198.229"/>
</g>
<!-- Node12 -->
<g id="node12" class="node"><title>Node12</title>
<g id="a_node12"><a xlink:href="_debug_session_8cpp.html" target="_top" xlink:title="debug/DebugSession.cpp">
<polygon fill="white" stroke="black" points="0,-140 0,-159 131,-159 131,-140 0,-140"/>
<text text-anchor="middle" x="65.5" y="-147" font-family="Helvetica,sans-Serif" font-size="10.00">debug/DebugSession.cpp</text>
</a>
</g>
</g>
<!-- Node8&#45;&gt;Node12 -->
<g id="edge11" class="edge"><title>Node8&#45;&gt;Node12</title>
<path fill="none" stroke="midnightblue" d="M212.907,-203.436C177.001,-190.542 120.981,-170.424 89.3465,-159.064"/>
<polygon fill="midnightblue" stroke="midnightblue" points="211.87,-206.783 222.465,-206.869 214.236,-200.195 211.87,-206.783"/>
</g>
<!-- Node11 -->
<g id="node11" class="node"><title>Node11</title>
<g id="a_node11"><a xlink:href="_debugger_servlet_8cpp.html" target="_top" xlink:title="debug/DebuggerServlet.cpp">
<polygon fill="white" stroke="black" points="269,-73 269,-92 410,-92 410,-73 269,-73"/>
<text text-anchor="middle" x="339.5" y="-80" font-family="Helvetica,sans-Serif" font-size="10.00">debug/DebuggerServlet.cpp</text>
</a>
</g>
</g>
<!-- Node10&#45;&gt;Node11 -->
<g id="edge10" class="edge"><title>Node10&#45;&gt;Node11</title>
<path fill="none" stroke="midnightblue" d="M341.625,-129.537C341.054,-117.17 340.336,-101.62 339.898,-92.1273"/>
<polygon fill="midnightblue" stroke="midnightblue" points="338.138,-129.906 342.095,-139.734 345.131,-129.583 338.138,-129.906"/>
</g>
<!-- Node16 -->
<g id="node16" class="node"><title>Node16</title>
<g id="a_node16"><a xlink:href="_u_s_c_x_m_l_invoker_8cpp.html" target="_top" xlink:title="plugins/invoker/scxml\l/USCXMLInvoker.cpp">
<polygon fill="white" stroke="black" points="1331,-67.5 1331,-97.5 1444,-97.5 1444,-67.5 1331,-67.5"/>
<text text-anchor="start" x="1339" y="-85.5" font-family="Helvetica,sans-Serif" font-size="10.00">plugins/invoker/scxml</text>
<text text-anchor="middle" x="1387.5" y="-74.5" font-family="Helvetica,sans-Serif" font-size="10.00">/USCXMLInvoker.cpp</text>
</a>
</g>
</g>
<!-- Node15&#45;&gt;Node16 -->
<g id="edge16" class="edge"><title>Node15&#45;&gt;Node16</title>
<path fill="none" stroke="midnightblue" d="M1387.5,-124.108C1387.5,-115.154 1387.5,-105.323 1387.5,-97.5765"/>
<polygon fill="midnightblue" stroke="midnightblue" points="1384,-124.396 1387.5,-134.396 1391,-124.396 1384,-124.396"/>
</g>
<!-- Node17&#45;&gt;Node4 -->
<g id="edge18" class="edge"><title>Node17&#45;&gt;Node4</title>
<path fill="none" stroke="midnightblue" d="M1560.1,-204.644C1615.07,-191.837 1705.33,-170.809 1755.66,-159.083"/>
<polygon fill="midnightblue" stroke="midnightblue" points="1559.21,-201.258 1550.26,-206.936 1560.79,-208.075 1559.21,-201.258"/>
</g>
<!-- Node17&#45;&gt;Node15 -->
<g id="edge21" class="edge"><title>Node17&#45;&gt;Node15</title>
<path fill="none" stroke="midnightblue" d="M1487.71,-202.194C1466.51,-191.261 1436.56,-175.81 1414.93,-164.652"/>
<polygon fill="midnightblue" stroke="midnightblue" points="1486.28,-205.394 1496.77,-206.869 1489.49,-199.173 1486.28,-205.394"/>
</g>
<!-- Node18 -->
<g id="node18" class="node"><title>Node18</title>
<g id="a_node18"><a xlink:href="_dir_mon_invoker_8h.html" target="_top" xlink:title="plugins/invoker/dirmon\l/DirMonInvoker.h">
<polygon fill="white" stroke="black" points="1583,-134.5 1583,-164.5 1700,-164.5 1700,-134.5 1583,-134.5"/>
<text text-anchor="start" x="1591" y="-152.5" font-family="Helvetica,sans-Serif" font-size="10.00">plugins/invoker/dirmon</text>
<text text-anchor="middle" x="1641.5" y="-141.5" font-family="Helvetica,sans-Serif" font-size="10.00">/DirMonInvoker.h</text>
</a>
</g>
</g>
<!-- Node17&#45;&gt;Node18 -->
<g id="edge19" class="edge"><title>Node17&#45;&gt;Node18</title>
<path fill="none" stroke="midnightblue" d="M1539.7,-202.194C1561.23,-191.261 1591.66,-175.81 1613.63,-164.652"/>
<polygon fill="midnightblue" stroke="midnightblue" points="1537.83,-199.22 1530.5,-206.869 1541,-205.461 1537.83,-199.22"/>
</g>
<!-- Node20 -->
<g id="node20" class="node"><title>Node20</title>
<g id="a_node20"><a xlink:href="_invoker_8cpp.html" target="_top" xlink:title="plugins/Invoker.cpp">
<polygon fill="white" stroke="black" points="1462,-140 1462,-159 1565,-159 1565,-140 1462,-140"/>
<text text-anchor="middle" x="1513.5" y="-147" font-family="Helvetica,sans-Serif" font-size="10.00">plugins/Invoker.cpp</text>
</a>
</g>
</g>
<!-- Node17&#45;&gt;Node20 -->
<g id="edge22" class="edge"><title>Node17&#45;&gt;Node20</title>
<path fill="none" stroke="midnightblue" d="M1513.5,-196.537C1513.5,-184.17 1513.5,-168.62 1513.5,-159.127"/>
<polygon fill="midnightblue" stroke="midnightblue" points="1510,-196.734 1513.5,-206.734 1517,-196.734 1510,-196.734"/>
</g>
<!-- Node19 -->
<g id="node19" class="node"><title>Node19</title>
<g id="a_node19"><a xlink:href="_dir_mon_invoker_8cpp.html" target="_top" xlink:title="plugins/invoker/dirmon\l/DirMonInvoker.cpp">
<polygon fill="white" stroke="black" points="1583,-67.5 1583,-97.5 1700,-97.5 1700,-67.5 1583,-67.5"/>
<text text-anchor="start" x="1591" y="-85.5" font-family="Helvetica,sans-Serif" font-size="10.00">plugins/invoker/dirmon</text>
<text text-anchor="middle" x="1641.5" y="-74.5" font-family="Helvetica,sans-Serif" font-size="10.00">/DirMonInvoker.cpp</text>
</a>
</g>
</g>
<!-- Node18&#45;&gt;Node19 -->
<g id="edge20" class="edge"><title>Node18&#45;&gt;Node19</title>
<path fill="none" stroke="midnightblue" d="M1641.5,-124.108C1641.5,-115.154 1641.5,-105.323 1641.5,-97.5765"/>
<polygon fill="midnightblue" stroke="midnightblue" points="1638,-124.396 1641.5,-134.396 1645,-124.396 1638,-124.396"/>
</g>
<!-- Node22 -->
<g id="node22" class="node"><title>Node22</title>
<g id="a_node22"><a xlink:href="_basic_h_t_t_p_i_o_processor_8cpp.html" target="_top" xlink:title="plugins/ioprocessor\l/basichttp/BasicHTTPIOProcessor.cpp">
<polygon fill="white" stroke="black" points="428,-67.5 428,-97.5 615,-97.5 615,-67.5 428,-67.5"/>
<text text-anchor="start" x="436" y="-85.5" font-family="Helvetica,sans-Serif" font-size="10.00">plugins/ioprocessor</text>
<text text-anchor="middle" x="521.5" y="-74.5" font-family="Helvetica,sans-Serif" font-size="10.00">/basichttp/BasicHTTPIOProcessor.cpp</text>
</a>
</g>
</g>
<!-- Node21&#45;&gt;Node22 -->
<g id="edge24" class="edge"><title>Node21&#45;&gt;Node22</title>
<path fill="none" stroke="midnightblue" d="M518.354,-124.403C519.048,-115.37 519.815,-105.408 520.417,-97.5765"/>
<polygon fill="midnightblue" stroke="midnightblue" points="514.862,-124.157 517.585,-134.396 521.842,-124.694 514.862,-124.157"/>
</g>
<!-- Node24&#45;&gt;Node21 -->
<g id="edge27" class="edge"><title>Node24&#45;&gt;Node21</title>
<path fill="none" stroke="midnightblue" d="M794.666,-204.96C738.558,-193.975 650.327,-176.701 588.31,-164.559"/>
<polygon fill="midnightblue" stroke="midnightblue" points="794.269,-208.449 804.755,-206.936 795.614,-201.579 794.269,-208.449"/>
</g>
<!-- Node25 -->
<g id="node25" class="node"><title>Node25</title>
<g id="a_node25"><a xlink:href="_s_c_x_m_l_i_o_processor_8h.html" target="_top" xlink:title="plugins/ioprocessor\l/scxml/SCXMLIOProcessor.h">
<polygon fill="white" stroke="black" points="623.5,-134.5 623.5,-164.5 769.5,-164.5 769.5,-134.5 623.5,-134.5"/>
<text text-anchor="start" x="631.5" y="-152.5" font-family="Helvetica,sans-Serif" font-size="10.00">plugins/ioprocessor</text>
<text text-anchor="middle" x="696.5" y="-141.5" font-family="Helvetica,sans-Serif" font-size="10.00">/scxml/SCXMLIOProcessor.h</text>
</a>
</g>
</g>
<!-- Node24&#45;&gt;Node25 -->
<g id="edge28" class="edge"><title>Node24&#45;&gt;Node25</title>
<path fill="none" stroke="midnightblue" d="M819.065,-202.913C793.327,-191.906 755.995,-175.942 729.304,-164.528"/>
<polygon fill="midnightblue" stroke="midnightblue" points="817.745,-206.155 828.316,-206.869 820.497,-199.718 817.745,-206.155"/>
</g>
<!-- Node26 -->
<g id="node26" class="node"><title>Node26</title>
<g id="a_node26"><a xlink:href="_i_o_processor_8cpp.html" target="_top" xlink:title="plugins/IOProcessor.cpp">
<polygon fill="white" stroke="black" points="788,-140 788,-159 913,-159 913,-140 788,-140"/>
<text text-anchor="middle" x="850.5" y="-147" font-family="Helvetica,sans-Serif" font-size="10.00">plugins/IOProcessor.cpp</text>
</a>
</g>
</g>
<!-- Node24&#45;&gt;Node26 -->
<g id="edge30" class="edge"><title>Node24&#45;&gt;Node26</title>
<path fill="none" stroke="midnightblue" d="M849.083,-196.537C849.464,-184.17 849.942,-168.62 850.235,-159.127"/>
<polygon fill="midnightblue" stroke="midnightblue" points="845.579,-196.631 848.77,-206.734 852.576,-196.846 845.579,-196.631"/>
</g>
<!-- Node25&#45;&gt;Node23 -->
<g id="edge29" class="edge"><title>Node25&#45;&gt;Node23</title>
<path fill="none" stroke="midnightblue" d="M708.644,-125.283C713.488,-116.022 718.907,-105.663 723.137,-97.5765"/>
<polygon fill="midnightblue" stroke="midnightblue" points="705.411,-123.913 703.877,-134.396 711.614,-127.157 705.411,-123.913"/>
</g>
<!-- Node28 -->
<g id="node28" class="node"><title>Node28</title>
<g id="a_node28"><a xlink:href="_chart_to_c_8h.html" target="_top" xlink:title="transform/ChartToC.h">
<polygon fill="white" stroke="black" points="1008,-140 1008,-159 1121,-159 1121,-140 1008,-140"/>
<text text-anchor="middle" x="1064.5" y="-147" font-family="Helvetica,sans-Serif" font-size="10.00">transform/ChartToC.h</text>
</a>
</g>
</g>
<!-- Node27&#45;&gt;Node28 -->
<g id="edge32" class="edge"><title>Node27&#45;&gt;Node28</title>
<path fill="none" stroke="midnightblue" d="M1064.5,-196.537C1064.5,-184.17 1064.5,-168.62 1064.5,-159.127"/>
<polygon fill="midnightblue" stroke="midnightblue" points="1061,-196.734 1064.5,-206.734 1068,-196.734 1061,-196.734"/>
</g>
<!-- Node30 -->
<g id="node30" class="node"><title>Node30</title>
<g id="a_node30"><a xlink:href="_chart_to_promela_8h.html" target="_top" xlink:title="transform/ChartToPromela.h">
<polygon fill="white" stroke="black" points="841,-73 841,-92 984,-92 984,-73 841,-73"/>
<text text-anchor="middle" x="912.5" y="-80" font-family="Helvetica,sans-Serif" font-size="10.00">transform/ChartToPromela.h</text>
</a>
</g>
</g>
<!-- Node27&#45;&gt;Node30 -->
<g id="edge39" class="edge"><title>Node27&#45;&gt;Node30</title>
<path fill="none" stroke="midnightblue" d="M1044.1,-200.76C1030.83,-190.962 1013.31,-177.623 998.5,-165 969.068,-139.915 936.484,-107.72 921.25,-92.3865"/>
<polygon fill="midnightblue" stroke="midnightblue" points="1042.39,-203.841 1052.52,-206.924 1046.52,-198.193 1042.39,-203.841"/>
</g>
<!-- Node33 -->
<g id="node33" class="node"><title>Node33</title>
<g id="a_node33"><a xlink:href="_chart_to_v_h_d_l_8h.html" target="_top" xlink:title="transform/ChartToVHDL.h">
<polygon fill="white" stroke="black" points="1145,-73 1145,-92 1278,-92 1278,-73 1145,-73"/>
<text text-anchor="middle" x="1211.5" y="-80" font-family="Helvetica,sans-Serif" font-size="10.00">transform/ChartToVHDL.h</text>
</a>
</g>
</g>
<!-- Node27&#45;&gt;Node33 -->
<g id="edge40" class="edge"><title>Node27&#45;&gt;Node33</title>
<path fill="none" stroke="midnightblue" d="M1084.66,-200.832C1097.76,-191.064 1115.03,-177.73 1129.5,-165 1157.83,-140.078 1188.78,-107.807 1203.21,-92.421"/>
<polygon fill="midnightblue" stroke="midnightblue" points="1082.31,-198.217 1076.35,-206.973 1086.47,-203.848 1082.31,-198.217"/>
</g>
<!-- Node35 -->
<g id="node35" class="node"><title>Node35</title>
<g id="a_node35"><a xlink:href="_transformer_8cpp.html" target="_top" xlink:title="transform/Transformer.cpp">
<polygon fill="white" stroke="black" points="1178,-140 1178,-159 1313,-159 1313,-140 1178,-140"/>
<text text-anchor="middle" x="1245.5" y="-147" font-family="Helvetica,sans-Serif" font-size="10.00">transform/Transformer.cpp</text>
</a>
</g>
</g>
<!-- Node27&#45;&gt;Node35 -->
<g id="edge41" class="edge"><title>Node27&#45;&gt;Node35</title>
<path fill="none" stroke="midnightblue" d="M1098.09,-203.436C1134,-190.542 1190.02,-170.424 1221.65,-159.064"/>
<polygon fill="midnightblue" stroke="midnightblue" points="1096.76,-200.195 1088.54,-206.869 1099.13,-206.783 1096.76,-200.195"/>
</g>
<!-- Node29 -->
<g id="node29" class="node"><title>Node29</title>
<g id="a_node29"><a xlink:href="_chart_to_c_8cpp.html" target="_top" xlink:title="transform/ChartToC.cpp">
<polygon fill="white" stroke="black" points="1002.5,-73 1002.5,-92 1126.5,-92 1126.5,-73 1002.5,-73"/>
<text text-anchor="middle" x="1064.5" y="-80" font-family="Helvetica,sans-Serif" font-size="10.00">transform/ChartToC.cpp</text>
</a>
</g>
</g>
<!-- Node28&#45;&gt;Node29 -->
<g id="edge33" class="edge"><title>Node28&#45;&gt;Node29</title>
<path fill="none" stroke="midnightblue" d="M1064.5,-129.537C1064.5,-117.17 1064.5,-101.62 1064.5,-92.1273"/>
<polygon fill="midnightblue" stroke="midnightblue" points="1061,-129.734 1064.5,-139.734 1068,-129.734 1061,-129.734"/>
</g>
<!-- Node28&#45;&gt;Node30 -->
<g id="edge34" class="edge"><title>Node28&#45;&gt;Node30</title>
<path fill="none" stroke="midnightblue" d="M1034.76,-135.781C1004.66,-122.909 958.929,-103.355 932.768,-92.1672"/>
<polygon fill="midnightblue" stroke="midnightblue" points="1033.74,-139.155 1044.32,-139.869 1036.5,-132.718 1033.74,-139.155"/>
</g>
<!-- Node28&#45;&gt;Node33 -->
<g id="edge37" class="edge"><title>Node28&#45;&gt;Node33</title>
<path fill="none" stroke="midnightblue" d="M1093.26,-135.781C1122.38,-122.909 1166.6,-103.355 1191.9,-92.1672"/>
<polygon fill="midnightblue" stroke="midnightblue" points="1091.75,-132.623 1084.02,-139.869 1094.58,-139.025 1091.75,-132.623"/>
</g>
<!-- Node31 -->
<g id="node31" class="node"><title>Node31</title>
<g id="a_node31"><a xlink:href="_chart_to_promela_8cpp.html" target="_top" xlink:title="transform/ChartToPromela.cpp">
<polygon fill="white" stroke="black" points="901.5,-6 901.5,-25 1055.5,-25 1055.5,-6 901.5,-6"/>
<text text-anchor="middle" x="978.5" y="-13" font-family="Helvetica,sans-Serif" font-size="10.00">transform/ChartToPromela.cpp</text>
</a>
</g>
</g>
<!-- Node30&#45;&gt;Node31 -->
<g id="edge35" class="edge"><title>Node30&#45;&gt;Node31</title>
<path fill="none" stroke="midnightblue" d="M928.749,-65.4968C941.693,-52.7496 959.315,-35.3947 969.74,-25.1273"/>
<polygon fill="midnightblue" stroke="midnightblue" points="926.07,-63.2232 921.401,-72.7338 930.982,-68.2106 926.07,-63.2232"/>
</g>
<!-- Node32 -->
<g id="node32" class="node"><title>Node32</title>
<g id="a_node32"><a xlink:href="_promela_code_analyzer_8cpp.html" target="_top" xlink:title="transform/promela/Promela\lCodeAnalyzer.cpp">
<polygon fill="white" stroke="black" points="745.5,-0.5 745.5,-30.5 883.5,-30.5 883.5,-0.5 745.5,-0.5"/>
<text text-anchor="start" x="753.5" y="-18.5" font-family="Helvetica,sans-Serif" font-size="10.00">transform/promela/Promela</text>
<text text-anchor="middle" x="814.5" y="-7.5" font-family="Helvetica,sans-Serif" font-size="10.00">CodeAnalyzer.cpp</text>
</a>
</g>
</g>
<!-- Node30&#45;&gt;Node32 -->
<g id="edge36" class="edge"><title>Node30&#45;&gt;Node32</title>
<path fill="none" stroke="midnightblue" d="M890.869,-67.1526C874.468,-56.2748 852.046,-41.4029 835.742,-30.589"/>
<polygon fill="midnightblue" stroke="midnightblue" points="889.015,-70.1232 899.283,-72.7338 892.884,-64.2897 889.015,-70.1232"/>
</g>
<!-- Node34 -->
<g id="node34" class="node"><title>Node34</title>
<g id="a_node34"><a xlink:href="_chart_to_v_h_d_l_8cpp.html" target="_top" xlink:title="transform/ChartToVHDL.cpp">
<polygon fill="white" stroke="black" points="1140,-6 1140,-25 1283,-25 1283,-6 1140,-6"/>
<text text-anchor="middle" x="1211.5" y="-13" font-family="Helvetica,sans-Serif" font-size="10.00">transform/ChartToVHDL.cpp</text>
</a>
</g>
</g>
<!-- Node33&#45;&gt;Node34 -->
<g id="edge38" class="edge"><title>Node33&#45;&gt;Node34</title>
<path fill="none" stroke="midnightblue" d="M1211.5,-62.537C1211.5,-50.1703 1211.5,-34.6198 1211.5,-25.1273"/>
<polygon fill="midnightblue" stroke="midnightblue" points="1208,-62.7338 1211.5,-72.7338 1215,-62.7338 1208,-62.7338"/>
</g>
</g>
</svg>
