<?xml version="1.0" encoding="UTF-8" standalone="no"?>
<!DOCTYPE svg PUBLIC "-//W3C//DTD SVG 1.1//EN"
 "http://www.w3.org/Graphics/SVG/1.1/DTD/svg11.dtd">
<!-- Generated by graphviz version 2.40.1 (20161225.0304)
 -->
<!-- Title: interpreter/ContentExecutorImpl.h Pages: 1 -->
<svg width="919pt" height="464pt"
 viewBox="0.00 0.00 918.50 464.00" xmlns="http://www.w3.org/2000/svg" xmlns:xlink="http://www.w3.org/1999/xlink">
<g id="graph0" class="graph" transform="scale(1 1) rotate(0) translate(4 460)">
<title>interpreter/ContentExecutorImpl.h</title>
<polygon fill="#ffffff" stroke="transparent" points="-4,4 -4,-460 914.5,-460 914.5,4 -4,4"/>
<!-- Node0 -->
<g id="node1" class="node">
<title>Node0</title>
<polygon fill="#bfbfbf" stroke="#000000" points="702,-425.5 702,-455.5 841,-455.5 841,-425.5 702,-425.5"/>
<text text-anchor="start" x="710" y="-443.5" font-family="Helvetica,sans-Serif" font-size="10.00" fill="#000000">interpreter/ContentExecutor</text>
<text text-anchor="middle" x="771.5" y="-432.5" font-family="Helvetica,sans-Serif" font-size="10.00" fill="#000000">Impl.h</text>
</g>
<!-- Node1 -->
<g id="node2" class="node">
<title>Node1</title>
<g id="a_node2"><a xlink:href="_common_8h.html" target="_top" xlink:title="uscxml/Common.h">
<polygon fill="#ffffff" stroke="#000000" points="572,-56.5 572,-75.5 671,-75.5 671,-56.5 572,-56.5"/>
<text text-anchor="middle" x="621.5" y="-63.5" font-family="Helvetica,sans-Serif" font-size="10.00" fill="#000000">uscxml/Common.h</text>
</a>
</g>
</g>
<!-- Node0&#45;&gt;Node1 -->
<g id="edge1" class="edge">
<title>Node0&#45;&gt;Node1</title>
<path fill="none" stroke="#191970" d="M788.2833,-425.4044C812.0087,-402.3154 852.5,-355.7028 852.5,-306.5 852.5,-306.5 852.5,-306.5 852.5,-183.5 852.5,-106.679 749.7507,-80.063 681.3063,-70.8552"/>
<polygon fill="#191970" stroke="#191970" points="681.413,-67.3412 671.0553,-69.5703 680.5423,-74.2869 681.413,-67.3412"/>
</g>
<!-- Node4 -->
<g id="node5" class="node">
<title>Node4</title>
<g id="a_node5"><a xlink:href="_event_8h.html" target="_top" xlink:title="uscxml/messages/Event.h">
<polygon fill="#ffffff" stroke="#000000" points="534,-235.5 534,-254.5 667,-254.5 667,-235.5 534,-235.5"/>
<text text-anchor="middle" x="600.5" y="-242.5" font-family="Helvetica,sans-Serif" font-size="10.00" fill="#000000">uscxml/messages/Event.h</text>
</a>
</g>
</g>
<!-- Node0&#45;&gt;Node4 -->
<g id="edge4" class="edge">
<title>Node0&#45;&gt;Node4</title>
<path fill="none" stroke="#191970" d="M765.3545,-425.3858C752.7261,-395.9723 721.237,-330.4683 676.5,-291 662.325,-278.4944 644.3028,-267.4195 629.3663,-259.2717"/>
<polygon fill="#191970" stroke="#191970" points="631.0021,-256.1776 620.5269,-254.5902 627.7259,-262.3636 631.0021,-256.1776"/>
</g>
<!-- Node7 -->
<g id="node8" class="node">
<title>Node7</title>
<polygon fill="#ffffff" stroke="#bfbfbf" points="712.5,-112.5 712.5,-131.5 748.5,-131.5 748.5,-112.5 712.5,-112.5"/>
<text text-anchor="middle" x="730.5" y="-119.5" font-family="Helvetica,sans-Serif" font-size="10.00" fill="#000000">map</text>
</g>
<!-- Node0&#45;&gt;Node7 -->
<g id="edge38" class="edge">
<title>Node0&#45;&gt;Node7</title>
<path fill="none" stroke="#191970" d="M769.5225,-425.1381C762.7742,-372.7155 740.6531,-200.8719 733.0744,-141.9985"/>
<polygon fill="#191970" stroke="#191970" points="736.5096,-141.2702 731.7614,-131.799 729.5669,-142.164 736.5096,-141.2702"/>
</g>
<!-- Node11 -->
<g id="node12" class="node">
<title>Node11</title>
<polygon fill="#ffffff" stroke="#bfbfbf" points="290,-56.5 290,-75.5 331,-75.5 331,-56.5 290,-56.5"/>
<text text-anchor="middle" x="310.5" y="-63.5" font-family="Helvetica,sans-Serif" font-size="10.00" fill="#000000">string</text>
</g>
<!-- Node0&#45;&gt;Node11 -->
<g id="edge36" class="edge">
<title>Node0&#45;&gt;Node11</title>
<path fill="none" stroke="#191970" d="M701.7708,-438.2229C552.7093,-431.4571 216.5,-405.2511 216.5,-306.5 216.5,-306.5 216.5,-306.5 216.5,-183.5 216.5,-150.6194 215.8591,-138.3699 235.5,-112 246.9096,-96.6815 265.0677,-85.3526 280.6591,-77.7707"/>
<polygon fill="#191970" stroke="#191970" points="282.3063,-80.8663 289.952,-73.5319 279.4013,-74.4976 282.3063,-80.8663"/>
</g>
<!-- Node16 -->
<g id="node17" class="node">
<title>Node16</title>
<g id="a_node17"><a xlink:href="_interpreter_monitor_8h.html" target="_top" xlink:title="uscxml/interpreter\l/InterpreterMonitor.h">
<polygon fill="#ffffff" stroke="#000000" points="614,-358.5 614,-388.5 721,-388.5 721,-358.5 614,-358.5"/>
<text text-anchor="start" x="622" y="-376.5" font-family="Helvetica,sans-Serif" font-size="10.00" fill="#000000">uscxml/interpreter</text>
<text text-anchor="middle" x="667.5" y="-365.5" font-family="Helvetica,sans-Serif" font-size="10.00" fill="#000000">/InterpreterMonitor.h</text>
</a>
</g>
</g>
<!-- Node0&#45;&gt;Node16 -->
<g id="edge23" class="edge">
<title>Node0&#45;&gt;Node16</title>
<path fill="none" stroke="#191970" d="M748.1604,-425.4639C733.9426,-416.3044 715.5677,-404.4667 699.9478,-394.4038"/>
<polygon fill="#191970" stroke="#191970" points="701.4236,-391.1912 691.1216,-388.7177 697.6326,-397.0758 701.4236,-391.1912"/>
</g>
<!-- Node17 -->
<g id="node18" class="node">
<title>Node17</title>
<g id="a_node18"><a xlink:href="_logging_8h.html" target="_top" xlink:title="uscxml/interpreter\l/Logging.h">
<polygon fill="#ffffff" stroke="#000000" points="464.5,-291.5 464.5,-321.5 560.5,-321.5 560.5,-291.5 464.5,-291.5"/>
<text text-anchor="start" x="472.5" y="-309.5" font-family="Helvetica,sans-Serif" font-size="10.00" fill="#000000">uscxml/interpreter</text>
<text text-anchor="middle" x="512.5" y="-298.5" font-family="Helvetica,sans-Serif" font-size="10.00" fill="#000000">/Logging.h</text>
</a>
</g>
</g>
<!-- Node0&#45;&gt;Node17 -->
<g id="edge35" class="edge">
<title>Node0&#45;&gt;Node17</title>
<path fill="none" stroke="#191970" d="M701.7293,-426.1613C670.6901,-418.008 634.4685,-405.9632 604.5,-389 576.5647,-373.1877 549.8563,-347.6764 532.4835,-329.2054"/>
<polygon fill="#191970" stroke="#191970" points="534.9828,-326.7526 525.6333,-321.769 529.8343,-331.4954 534.9828,-326.7526"/>
</g>
<!-- Node20 -->
<g id="node21" class="node">
<title>Node20</title>
<polygon fill="#ffffff" stroke="#bfbfbf" points="880.5,-364 880.5,-383 910.5,-383 910.5,-364 880.5,-364"/>
<text text-anchor="middle" x="895.5" y="-371" font-family="Helvetica,sans-Serif" font-size="10.00" fill="#000000">set</text>
</g>
<!-- Node0&#45;&gt;Node20 -->
<g id="edge37" class="edge">
<title>Node0&#45;&gt;Node20</title>
<path fill="none" stroke="#191970" d="M799.328,-425.4639C820.9029,-413.8065 850.5063,-397.8111 871.1488,-386.6575"/>
<polygon fill="#191970" stroke="#191970" points="873.0805,-389.5921 880.2146,-381.7591 869.7529,-383.4335 873.0805,-389.5921"/>
</g>
<!-- Node2 -->
<g id="node3" class="node">
<title>Node2</title>
<polygon fill="#ffffff" stroke="#bfbfbf" points="547.5,-.5 547.5,-19.5 619.5,-19.5 619.5,-.5 547.5,-.5"/>
<text text-anchor="middle" x="583.5" y="-7.5" font-family="Helvetica,sans-Serif" font-size="10.00" fill="#000000">sys/socket.h</text>
</g>
<!-- Node1&#45;&gt;Node2 -->
<g id="edge2" class="edge">
<title>Node1&#45;&gt;Node2</title>
<path fill="none" stroke="#191970" d="M614.8809,-56.2455C609.5954,-48.4564 602.0459,-37.3308 595.6762,-27.9439"/>
<polygon fill="#191970" stroke="#191970" points="598.5545,-25.9522 590.0432,-19.6427 592.7621,-29.8827 598.5545,-25.9522"/>
</g>
<!-- Node3 -->
<g id="node4" class="node">
<title>Node3</title>
<polygon fill="#ffffff" stroke="#bfbfbf" points="637.5,-.5 637.5,-19.5 681.5,-19.5 681.5,-.5 637.5,-.5"/>
<text text-anchor="middle" x="659.5" y="-7.5" font-family="Helvetica,sans-Serif" font-size="10.00" fill="#000000">cmath</text>
</g>
<!-- Node1&#45;&gt;Node3 -->
<g id="edge3" class="edge">
<title>Node1&#45;&gt;Node3</title>
<path fill="none" stroke="#191970" d="M628.1191,-56.2455C633.4046,-48.4564 640.9541,-37.3308 647.3238,-27.9439"/>
<polygon fill="#191970" stroke="#191970" points="650.2379,-29.8827 652.9568,-19.6427 644.4455,-25.9522 650.2379,-29.8827"/>
</g>
<!-- Node5 -->
<g id="node6" class="node">
<title>Node5</title>
<g id="a_node6"><a xlink:href="_data_8h.html" target="_top" xlink:title="uscxml/messages/Data.h">
<polygon fill="#ffffff" stroke="#000000" points="398.5,-174 398.5,-193 526.5,-193 526.5,-174 398.5,-174"/>
<text text-anchor="middle" x="462.5" y="-181" font-family="Helvetica,sans-Serif" font-size="10.00" fill="#000000">uscxml/messages/Data.h</text>
</a>
</g>
</g>
<!-- Node4&#45;&gt;Node5 -->
<g id="edge5" class="edge">
<title>Node4&#45;&gt;Node5</title>
<path fill="none" stroke="#191970" d="M578.9375,-235.3906C555.9488,-225.1457 519.344,-208.8326 493.3176,-197.2339"/>
<polygon fill="#191970" stroke="#191970" points="494.4698,-193.9156 483.9111,-193.0419 491.6204,-200.3095 494.4698,-193.9156"/>
</g>
<!-- Node15 -->
<g id="node16" class="node">
<title>Node15</title>
<g id="a_node16"><a xlink:href="_u_u_i_d_8h.html" target="_top" xlink:title="uscxml/util/UUID.h">
<polygon fill="#ffffff" stroke="#000000" points="510,-112.5 510,-131.5 609,-131.5 609,-112.5 510,-112.5"/>
<text text-anchor="middle" x="559.5" y="-119.5" font-family="Helvetica,sans-Serif" font-size="10.00" fill="#000000">uscxml/util/UUID.h</text>
</a>
</g>
</g>
<!-- Node4&#45;&gt;Node15 -->
<g id="edge20" class="edge">
<title>Node4&#45;&gt;Node15</title>
<path fill="none" stroke="#191970" d="M593.4194,-235.2789C587.224,-226.3005 578.4611,-212.3699 573.5,-199 566.5775,-180.344 562.9936,-157.8331 561.1939,-141.9837"/>
<polygon fill="#191970" stroke="#191970" points="564.6507,-141.3743 560.1766,-131.7705 557.6851,-142.0682 564.6507,-141.3743"/>
</g>
<!-- Node5&#45;&gt;Node1 -->
<g id="edge10" class="edge">
<title>Node5&#45;&gt;Node1</title>
<path fill="none" stroke="#191970" d="M465.2235,-173.7743C469.9576,-158.5612 481.1018,-129.1096 500.5,-112 518.5586,-96.0719 542.6966,-85.4189 564.6617,-78.4155"/>
<polygon fill="#191970" stroke="#191970" points="565.6711,-81.7668 574.2436,-75.5408 563.6595,-75.0621 565.6711,-81.7668"/>
</g>
<!-- Node6 -->
<g id="node7" class="node">
<title>Node6</title>
<polygon fill="#ffffff" stroke="#bfbfbf" points="627,-112.5 627,-131.5 656,-131.5 656,-112.5 627,-112.5"/>
<text text-anchor="middle" x="641.5" y="-119.5" font-family="Helvetica,sans-Serif" font-size="10.00" fill="#000000">list</text>
</g>
<!-- Node5&#45;&gt;Node6 -->
<g id="edge6" class="edge">
<title>Node5&#45;&gt;Node6</title>
<path fill="none" stroke="#191970" d="M493.6146,-173.9081C525.0805,-164.0337 575.0032,-147.8886 617.5,-132 617.5951,-131.9644 617.6904,-131.9287 617.7859,-131.8929"/>
<polygon fill="#191970" stroke="#191970" points="618.8347,-135.242 626.8453,-128.308 616.259,-128.7331 618.8347,-135.242"/>
</g>
<!-- Node5&#45;&gt;Node7 -->
<g id="edge7" class="edge">
<title>Node5&#45;&gt;Node7</title>
<path fill="none" stroke="#191970" d="M504.081,-173.9581C559.3022,-161.2861 655.3504,-139.2451 702.609,-128.4004"/>
<polygon fill="#191970" stroke="#191970" points="703.4917,-131.7889 712.4555,-126.1408 701.926,-124.9662 703.4917,-131.7889"/>
</g>
<!-- Node8 -->
<g id="node9" class="node">
<title>Node8</title>
<polygon fill="#ffffff" stroke="#bfbfbf" points="0,-56.5 0,-75.5 53,-75.5 53,-56.5 0,-56.5"/>
<text text-anchor="middle" x="26.5" y="-63.5" font-family="Helvetica,sans-Serif" font-size="10.00" fill="#000000">memory</text>
</g>
<!-- Node5&#45;&gt;Node8 -->
<g id="edge8" class="edge">
<title>Node5&#45;&gt;Node8</title>
<path fill="none" stroke="#191970" d="M398.4603,-179.4523C288.2181,-171.9231 71.8167,-154.4688 45.5,-132 32.3483,-120.7713 28.0001,-101.0824 26.7016,-86.123"/>
<polygon fill="#191970" stroke="#191970" points="30.1828,-85.6448 26.2078,-75.8239 23.1908,-85.9801 30.1828,-85.6448"/>
</g>
<!-- Node9 -->
<g id="node10" class="node">
<title>Node9</title>
<polygon fill="#ffffff" stroke="#bfbfbf" points="245,-112.5 245,-131.5 308,-131.5 308,-112.5 245,-112.5"/>
<text text-anchor="middle" x="276.5" y="-119.5" font-family="Helvetica,sans-Serif" font-size="10.00" fill="#000000">type_traits</text>
</g>
<!-- Node5&#45;&gt;Node9 -->
<g id="edge9" class="edge">
<title>Node5&#45;&gt;Node9</title>
<path fill="none" stroke="#191970" d="M433.4375,-173.8906C401.6338,-163.3749 350.4949,-146.466 315.2856,-134.8243"/>
<polygon fill="#191970" stroke="#191970" points="315.9517,-131.3582 305.3584,-131.5419 313.7541,-138.0043 315.9517,-131.3582"/>
</g>
<!-- Node10 -->
<g id="node11" class="node">
<title>Node10</title>
<g id="a_node11"><a xlink:href="_convenience_8h.html" target="_top" xlink:title="uscxml/util/Convenience.h">
<polygon fill="#ffffff" stroke="#000000" points="55,-112.5 55,-131.5 188,-131.5 188,-112.5 55,-112.5"/>
<text text-anchor="middle" x="121.5" y="-119.5" font-family="Helvetica,sans-Serif" font-size="10.00" fill="#000000">uscxml/util/Convenience.h</text>
</a>
</g>
</g>
<!-- Node5&#45;&gt;Node10 -->
<g id="edge11" class="edge">
<title>Node5&#45;&gt;Node10</title>
<path fill="none" stroke="#191970" d="M409.5929,-173.9581C348.7746,-162.9894 249.0353,-145.0012 184.3243,-133.3305"/>
<polygon fill="#191970" stroke="#191970" points="184.7131,-129.8442 174.2506,-131.5137 183.4706,-136.7331 184.7131,-129.8442"/>
</g>
<!-- Node14 -->
<g id="node15" class="node">
<title>Node14</title>
<g id="a_node15"><a xlink:href="_blob_8h.html" target="_top" xlink:title="uscxml/messages/Blob.h">
<polygon fill="#ffffff" stroke="#000000" points="326,-112.5 326,-131.5 453,-131.5 453,-112.5 326,-112.5"/>
<text text-anchor="middle" x="389.5" y="-119.5" font-family="Helvetica,sans-Serif" font-size="10.00" fill="#000000">uscxml/messages/Blob.h</text>
</a>
</g>
</g>
<!-- Node5&#45;&gt;Node14 -->
<g id="edge16" class="edge">
<title>Node5&#45;&gt;Node14</title>
<path fill="none" stroke="#191970" d="M451.0938,-173.8906C439.8031,-164.3786 422.3033,-149.6357 408.8381,-138.2917"/>
<polygon fill="#191970" stroke="#191970" points="410.9699,-135.5111 401.0671,-131.7449 406.4598,-140.8646 410.9699,-135.5111"/>
</g>
<!-- Node10&#45;&gt;Node1 -->
<g id="edge12" class="edge">
<title>Node10&#45;&gt;Node1</title>
<path fill="none" stroke="#191970" d="M188.1546,-114.5347C286.1771,-103.5562 467.7262,-83.2227 561.6852,-72.6993"/>
<polygon fill="#191970" stroke="#191970" points="562.3254,-76.1495 571.8737,-71.5581 561.5462,-69.193 562.3254,-76.1495"/>
</g>
<!-- Node10&#45;&gt;Node11 -->
<g id="edge13" class="edge">
<title>Node10&#45;&gt;Node11</title>
<path fill="none" stroke="#191970" d="M153.9903,-112.3733C189.2844,-101.9157 245.2399,-85.3363 279.8113,-75.0929"/>
<polygon fill="#191970" stroke="#191970" points="281.2137,-78.3279 289.8073,-72.1312 279.225,-71.6163 281.2137,-78.3279"/>
</g>
<!-- Node12 -->
<g id="node13" class="node">
<title>Node12</title>
<polygon fill="#ffffff" stroke="#bfbfbf" points="154,-56.5 154,-75.5 193,-75.5 193,-56.5 154,-56.5"/>
<text text-anchor="middle" x="173.5" y="-63.5" font-family="Helvetica,sans-Serif" font-size="10.00" fill="#000000">limits</text>
</g>
<!-- Node10&#45;&gt;Node12 -->
<g id="edge14" class="edge">
<title>Node10&#45;&gt;Node12</title>
<path fill="none" stroke="#191970" d="M130.5577,-112.2455C138.0142,-104.2155 148.7634,-92.6394 157.6417,-83.0781"/>
<polygon fill="#191970" stroke="#191970" points="160.3063,-85.3522 164.5461,-75.6427 155.1768,-80.589 160.3063,-85.3522"/>
</g>
<!-- Node13 -->
<g id="node14" class="node">
<title>Node13</title>
<polygon fill="#ffffff" stroke="#bfbfbf" points="83.5,-56.5 83.5,-75.5 135.5,-75.5 135.5,-56.5 83.5,-56.5"/>
<text text-anchor="middle" x="109.5" y="-63.5" font-family="Helvetica,sans-Serif" font-size="10.00" fill="#000000">sstream</text>
</g>
<!-- Node10&#45;&gt;Node13 -->
<g id="edge15" class="edge">
<title>Node10&#45;&gt;Node13</title>
<path fill="none" stroke="#191970" d="M119.4098,-112.2455C117.8439,-104.9382 115.6488,-94.6944 113.7224,-85.7046"/>
<polygon fill="#191970" stroke="#191970" points="117.084,-84.6873 111.5663,-75.6427 110.2393,-86.1541 117.084,-84.6873"/>
</g>
<!-- Node14&#45;&gt;Node1 -->
<g id="edge19" class="edge">
<title>Node14&#45;&gt;Node1</title>
<path fill="none" stroke="#191970" d="M429.1186,-112.4369C468.6568,-102.8932 529.5069,-88.2052 572.1582,-77.9101"/>
<polygon fill="#191970" stroke="#191970" points="573.1452,-81.2724 582.0448,-75.5237 571.5027,-74.4679 573.1452,-81.2724"/>
</g>
<!-- Node14&#45;&gt;Node8 -->
<g id="edge18" class="edge">
<title>Node14&#45;&gt;Node8</title>
<path fill="none" stroke="#191970" d="M325.8059,-113.1628C248.144,-102.3063 121.4385,-84.3089 74.5,-76 70.8041,-75.3458 66.9573,-74.6202 63.1213,-73.8674"/>
<polygon fill="#191970" stroke="#191970" points="63.5989,-70.3931 53.1034,-71.8409 62.2109,-77.2542 63.5989,-70.3931"/>
</g>
<!-- Node14&#45;&gt;Node11 -->
<g id="edge17" class="edge">
<title>Node14&#45;&gt;Node11</title>
<path fill="none" stroke="#191970" d="M375.7393,-112.2455C363.8448,-103.814 346.435,-91.4729 332.5915,-81.6598"/>
<polygon fill="#191970" stroke="#191970" points="334.2854,-78.5704 324.1031,-75.6427 330.2372,-84.2811 334.2854,-78.5704"/>
</g>
<!-- Node15&#45;&gt;Node1 -->
<g id="edge21" class="edge">
<title>Node15&#45;&gt;Node1</title>
<path fill="none" stroke="#191970" d="M570.2996,-112.2455C579.3678,-104.0549 592.5206,-92.1749 603.2245,-82.5069"/>
<polygon fill="#191970" stroke="#191970" points="605.7491,-84.9429 610.8242,-75.6427 601.0571,-79.7482 605.7491,-84.9429"/>
</g>
<!-- Node15&#45;&gt;Node11 -->
<g id="edge22" class="edge">
<title>Node15&#45;&gt;Node11</title>
<path fill="none" stroke="#191970" d="M516.9783,-112.4369C466.956,-101.1869 385.1499,-82.7887 341.02,-72.8639"/>
<polygon fill="#191970" stroke="#191970" points="341.693,-69.4279 331.1687,-70.6484 340.157,-76.2573 341.693,-69.4279"/>
</g>
<!-- Node16&#45;&gt;Node1 -->
<g id="edge24" class="edge">
<title>Node16&#45;&gt;Node1</title>
<path fill="none" stroke="#191970" d="M683.3807,-358.3035C725.7754,-315.8984 834.3708,-194.0186 773.5,-112 762.1498,-96.7065 718.782,-84.5228 681.2597,-76.5464"/>
<polygon fill="#191970" stroke="#191970" points="681.868,-73.0983 671.3676,-74.5096 680.4563,-79.9545 681.868,-73.0983"/>
</g>
<!-- Node16&#45;&gt;Node4 -->
<g id="edge25" class="edge">
<title>Node16&#45;&gt;Node4</title>
<path fill="none" stroke="#191970" d="M646.5288,-358.4011C635.2692,-349.1652 622.1655,-336.3782 614.5,-322 605.0357,-304.2477 601.8359,-281.2729 600.8202,-265.0549"/>
<polygon fill="#191970" stroke="#191970" points="604.2998,-264.4654 600.4083,-254.6112 597.3052,-264.7414 604.2998,-264.4654"/>
</g>
<!-- Node16&#45;&gt;Node17 -->
<g id="edge26" class="edge">
<title>Node16&#45;&gt;Node17</title>
<path fill="none" stroke="#191970" d="M632.715,-358.4639C610.258,-348.7567 580.8423,-336.0415 556.73,-325.6188"/>
<polygon fill="#191970" stroke="#191970" points="558.0046,-322.3568 547.4367,-321.6017 555.2272,-328.7822 558.0046,-322.3568"/>
</g>
<!-- Node18 -->
<g id="node19" class="node">
<title>Node18</title>
<g id="a_node19"><a xlink:href="_interpreter_issue_8h.html" target="_top" xlink:title="Identifies some common problems with SCXML documents. ">
<polygon fill="#ffffff" stroke="#000000" points="583,-168.5 583,-198.5 710,-198.5 710,-168.5 583,-168.5"/>
<text text-anchor="start" x="591" y="-186.5" font-family="Helvetica,sans-Serif" font-size="10.00" fill="#000000">uscxml/debug/Interpreter</text>
<text text-anchor="middle" x="646.5" y="-175.5" font-family="Helvetica,sans-Serif" font-size="10.00" fill="#000000">Issue.h</text>
</a>
</g>
</g>
<!-- Node16&#45;&gt;Node18 -->
<g id="edge31" class="edge">
<title>Node16&#45;&gt;Node18</title>
<path fill="none" stroke="#191970" d="M671.5045,-358.2114C677.5985,-332.3307 687.3116,-278.463 675.5,-235 672.8914,-225.4013 668.1003,-215.6876 663.1534,-207.3223"/>
<polygon fill="#191970" stroke="#191970" points="666.1073,-205.4449 657.8204,-198.8436 660.182,-209.1719 666.1073,-205.4449"/>
</g>
<!-- Node19 -->
<g id="node20" class="node">
<title>Node19</title>
<polygon fill="#ffffff" stroke="#bfbfbf" points="623.5,-297 623.5,-316 667.5,-316 667.5,-297 623.5,-297"/>
<text text-anchor="middle" x="645.5" y="-304" font-family="Helvetica,sans-Serif" font-size="10.00" fill="#000000">mutex</text>
</g>
<!-- Node16&#45;&gt;Node19 -->
<g id="edge34" class="edge">
<title>Node16&#45;&gt;Node19</title>
<path fill="none" stroke="#191970" d="M662.5079,-358.2967C659.3464,-348.6685 655.2298,-336.1318 651.8385,-325.8038"/>
<polygon fill="#191970" stroke="#191970" points="655.0825,-324.464 648.6375,-316.055 648.4319,-326.6478 655.0825,-324.464"/>
</g>
<!-- Node17&#45;&gt;Node1 -->
<g id="edge27" class="edge">
<title>Node17&#45;&gt;Node1</title>
<path fill="none" stroke="#191970" d="M510.4521,-291.4337C509.1647,-275.2323 509.9415,-249.8111 524.5,-235 585.9737,-172.4599 646.8012,-249.4931 718.5,-199 746.6706,-179.1612 748.5233,-165.2653 757.5,-132 759.8158,-123.4181 762.6815,-119.2225 757.5,-112 747.7233,-98.3724 710.6413,-86.3603 677.6644,-78.0314"/>
<polygon fill="#191970" stroke="#191970" points="678.1422,-74.545 667.5968,-75.567 676.4779,-81.3443 678.1422,-74.545"/>
</g>
<!-- Node17&#45;&gt;Node4 -->
<g id="edge29" class="edge">
<title>Node17&#45;&gt;Node4</title>
<path fill="none" stroke="#191970" d="M534.2528,-291.2977C547.6968,-281.9022 564.9011,-269.8787 578.4078,-260.4395"/>
<polygon fill="#191970" stroke="#191970" points="580.4811,-263.2605 586.6729,-254.6633 576.4712,-257.5228 580.4811,-263.2605"/>
</g>
<!-- Node17&#45;&gt;Node5 -->
<g id="edge28" class="edge">
<title>Node17&#45;&gt;Node5</title>
<path fill="none" stroke="#191970" d="M506.2441,-291.1794C502.0646,-280.9387 496.447,-267.1643 491.5,-255 484.272,-237.2268 476.0538,-216.959 470.2162,-202.552"/>
<polygon fill="#191970" stroke="#191970" points="473.4331,-201.171 466.4344,-193.2168 466.9452,-203.7993 473.4331,-201.171"/>
</g>
<!-- Node17&#45;&gt;Node8 -->
<g id="edge30" class="edge">
<title>Node17&#45;&gt;Node8</title>
<path fill="none" stroke="#191970" d="M464.4642,-296.3224C352.8649,-271.6201 81.5353,-205.118 28.5,-132 18.9401,-118.8201 19.3725,-99.9492 21.6521,-85.7591"/>
<polygon fill="#191970" stroke="#191970" points="25.1589,-86.0773 23.7208,-75.5805 18.2991,-84.6831 25.1589,-86.0773"/>
</g>
<!-- Node18&#45;&gt;Node1 -->
<g id="edge32" class="edge">
<title>Node18&#45;&gt;Node1</title>
<path fill="none" stroke="#191970" d="M655.6577,-168.3591C663.3273,-153.6395 671.9238,-130.813 664.5,-112 659.9531,-100.4774 651.0068,-90.143 642.4466,-82.2024"/>
<polygon fill="#191970" stroke="#191970" points="644.6847,-79.5106 634.831,-75.6175 640.1062,-84.8057 644.6847,-79.5106"/>
</g>
<!-- Node18&#45;&gt;Node6 -->
<g id="edge33" class="edge">
<title>Node18&#45;&gt;Node6</title>
<path fill="none" stroke="#191970" d="M645.264,-168.2977C644.6206,-160.3834 643.8256,-150.6043 643.1322,-142.0759"/>
<polygon fill="#191970" stroke="#191970" points="646.5995,-141.5304 642.3006,-131.8469 639.6225,-142.0977 646.5995,-141.5304"/>
</g>
</g>
</svg>
