<?xml version="1.0" encoding="UTF-8" standalone="no"?>
<!DOCTYPE svg PUBLIC "-//W3C//DTD SVG 1.1//EN"
 "http://www.w3.org/Graphics/SVG/1.1/DTD/svg11.dtd">
<!-- Generated by graphviz version 2.38.0 (20140413.2041)
 -->
<!-- Title: interpreter/ContentExecutor.cpp Pages: 1 -->
<svg width="1346pt" height="442pt"
 viewBox="0.00 0.00 1346.00 442.00" xmlns="http://www.w3.org/2000/svg" xmlns:xlink="http://www.w3.org/1999/xlink">
<g id="graph0" class="graph" transform="scale(1 1) rotate(0) translate(4 438)">
<title>interpreter/ContentExecutor.cpp</title>
<polygon fill="white" stroke="none" points="-4,4 -4,-438 1342,-438 1342,4 -4,4"/>
<!-- Node1 -->
<g id="node1" class="node"><title>Node1</title>
<polygon fill="#bfbfbf" stroke="black" points="539,-414.5 539,-433.5 697,-433.5 697,-414.5 539,-414.5"/>
<text text-anchor="middle" x="618" y="-421.5" font-family="Helvetica,sans-Serif" font-size="10.00">interpreter/ContentExecutor.cpp</text>
</g>
<!-- Node2 -->
<g id="node2" class="node"><title>Node2</title>
<g id="a_node2"><a xlink:href="_content_executor_8h.html" target="_top" xlink:title="ContentExecutor.h">
<polygon fill="white" stroke="black" points="655.5,-235.5 655.5,-254.5 754.5,-254.5 754.5,-235.5 655.5,-235.5"/>
<text text-anchor="middle" x="705" y="-242.5" font-family="Helvetica,sans-Serif" font-size="10.00">ContentExecutor.h</text>
</a>
</g>
</g>
<!-- Node1&#45;&gt;Node2 -->
<g id="edge1" class="edge"><title>Node1&#45;&gt;Node2</title>
<path fill="none" stroke="midnightblue" d="M622.196,-414.463C635.599,-387.195 677.581,-301.783 696.087,-264.133"/>
<polygon fill="midnightblue" stroke="midnightblue" points="699.371,-265.387 700.641,-254.868 693.089,-262.299 699.371,-265.387"/>
</g>
<!-- Node16 -->
<g id="node16" class="node"><title>Node16</title>
<g id="a_node16"><a xlink:href="_content_executor_impl_8h.html" target="_top" xlink:title="ContentExecutorImpl.h">
<polygon fill="white" stroke="black" points="509,-358.5 509,-377.5 627,-377.5 627,-358.5 509,-358.5"/>
<text text-anchor="middle" x="568" y="-365.5" font-family="Helvetica,sans-Serif" font-size="10.00">ContentExecutorImpl.h</text>
</a>
</g>
</g>
<!-- Node1&#45;&gt;Node16 -->
<g id="edge22" class="edge"><title>Node1&#45;&gt;Node16</title>
<path fill="none" stroke="midnightblue" d="M609.744,-414.083C602.535,-406.298 591.89,-394.801 583.154,-385.367"/>
<polygon fill="midnightblue" stroke="midnightblue" points="585.465,-382.711 576.103,-377.751 580.329,-387.467 585.465,-382.711"/>
</g>
<!-- Node3 -->
<g id="node3" class="node"><title>Node3</title>
<polygon fill="white" stroke="#bfbfbf" points="602.5,-112.5 602.5,-131.5 687.5,-131.5 687.5,-112.5 602.5,-112.5"/>
<text text-anchor="middle" x="645" y="-119.5" font-family="Helvetica,sans-Serif" font-size="10.00">uscxml/config.h</text>
</g>
<!-- Node2&#45;&gt;Node3 -->
<g id="edge2" class="edge"><title>Node2&#45;&gt;Node3</title>
<path fill="none" stroke="midnightblue" d="M700.685,-235.298C690.912,-215.589 666.923,-167.211 653.847,-140.842"/>
<polygon fill="midnightblue" stroke="midnightblue" points="656.854,-139.027 649.276,-131.623 650.583,-142.137 656.854,-139.027"/>
</g>
<!-- Node4 -->
<g id="node4" class="node"><title>Node4</title>
<g id="a_node4"><a xlink:href="_common_8h.html" target="_top" xlink:title="uscxml/Common.h">
<polygon fill="white" stroke="black" points="666.5,-56.5 666.5,-75.5 765.5,-75.5 765.5,-56.5 666.5,-56.5"/>
<text text-anchor="middle" x="716" y="-63.5" font-family="Helvetica,sans-Serif" font-size="10.00">uscxml/Common.h</text>
</a>
</g>
</g>
<!-- Node2&#45;&gt;Node4 -->
<g id="edge3" class="edge"><title>Node2&#45;&gt;Node4</title>
<path fill="none" stroke="midnightblue" d="M705.531,-235.463C707.211,-208.428 712.443,-124.239 714.812,-86.109"/>
<polygon fill="midnightblue" stroke="midnightblue" points="718.322,-86.0662 715.449,-75.8684 711.335,-85.632 718.322,-86.0662"/>
</g>
<!-- Node7 -->
<g id="node7" class="node"><title>Node7</title>
<g id="a_node7"><a xlink:href="_data_8h.html" target="_top" xlink:title="uscxml/messages/Data.h">
<polygon fill="white" stroke="black" points="744,-174 744,-193 872,-193 872,-174 744,-174"/>
<text text-anchor="middle" x="808" y="-181" font-family="Helvetica,sans-Serif" font-size="10.00">uscxml/messages/Data.h</text>
</a>
</g>
</g>
<!-- Node2&#45;&gt;Node7 -->
<g id="edge6" class="edge"><title>Node2&#45;&gt;Node7</title>
<path fill="none" stroke="midnightblue" d="M719.757,-235.475C736.661,-225.711 764.583,-209.581 784.49,-198.081"/>
<polygon fill="midnightblue" stroke="midnightblue" points="786.362,-201.042 793.27,-193.009 782.86,-194.981 786.362,-201.042"/>
</g>
<!-- Node12 -->
<g id="node12" class="node"><title>Node12</title>
<polygon fill="white" stroke="#bfbfbf" points="1126.5,-56.5 1126.5,-75.5 1167.5,-75.5 1167.5,-56.5 1126.5,-56.5"/>
<text text-anchor="middle" x="1147" y="-63.5" font-family="Helvetica,sans-Serif" font-size="10.00">string</text>
</g>
<!-- Node2&#45;&gt;Node12 -->
<g id="edge21" class="edge"><title>Node2&#45;&gt;Node12</title>
<path fill="none" stroke="midnightblue" d="M746.473,-235.45C847.535,-214.277 1100.3,-159.161 1128,-132 1140.19,-120.048 1144.66,-100.746 1146.25,-86.2752"/>
<polygon fill="midnightblue" stroke="midnightblue" points="1149.77,-86.1652 1147,-75.9382 1142.79,-85.659 1149.77,-86.1652"/>
</g>
<!-- Node5 -->
<g id="node5" class="node"><title>Node5</title>
<polygon fill="white" stroke="#bfbfbf" points="642,-0.5 642,-19.5 714,-19.5 714,-0.5 642,-0.5"/>
<text text-anchor="middle" x="678" y="-7.5" font-family="Helvetica,sans-Serif" font-size="10.00">sys/socket.h</text>
</g>
<!-- Node4&#45;&gt;Node5 -->
<g id="edge4" class="edge"><title>Node4&#45;&gt;Node5</title>
<path fill="none" stroke="midnightblue" d="M709.725,-56.083C704.358,-48.4554 696.482,-37.2645 689.921,-27.9408"/>
<polygon fill="midnightblue" stroke="midnightblue" points="692.775,-25.9149 684.158,-19.7511 687.051,-29.9434 692.775,-25.9149"/>
</g>
<!-- Node6 -->
<g id="node6" class="node"><title>Node6</title>
<polygon fill="white" stroke="#bfbfbf" points="732,-0.5 732,-19.5 776,-19.5 776,-0.5 732,-0.5"/>
<text text-anchor="middle" x="754" y="-7.5" font-family="Helvetica,sans-Serif" font-size="10.00">cmath</text>
</g>
<!-- Node4&#45;&gt;Node6 -->
<g id="edge5" class="edge"><title>Node4&#45;&gt;Node6</title>
<path fill="none" stroke="midnightblue" d="M722.275,-56.083C727.642,-48.4554 735.518,-37.2645 742.079,-27.9408"/>
<polygon fill="midnightblue" stroke="midnightblue" points="744.949,-29.9434 747.842,-19.7511 739.225,-25.9149 744.949,-29.9434"/>
</g>
<!-- Node7&#45;&gt;Node3 -->
<g id="edge10" class="edge"><title>Node7&#45;&gt;Node3</title>
<path fill="none" stroke="midnightblue" d="M784.646,-173.975C756.686,-163.769 709.674,-146.608 678.009,-135.049"/>
<polygon fill="midnightblue" stroke="midnightblue" points="678.905,-131.65 668.311,-131.509 676.504,-138.226 678.905,-131.65"/>
</g>
<!-- Node7&#45;&gt;Node4 -->
<g id="edge11" class="edge"><title>Node7&#45;&gt;Node4</title>
<path fill="none" stroke="midnightblue" d="M801.085,-173.819C785.834,-154.672 749.092,-108.544 729.247,-83.6306"/>
<polygon fill="midnightblue" stroke="midnightblue" points="731.963,-81.4233 722.995,-75.782 726.488,-85.7846 731.963,-81.4233"/>
</g>
<!-- Node8 -->
<g id="node8" class="node"><title>Node8</title>
<polygon fill="white" stroke="#bfbfbf" points="516.5,-112.5 516.5,-131.5 545.5,-131.5 545.5,-112.5 516.5,-112.5"/>
<text text-anchor="middle" x="531" y="-119.5" font-family="Helvetica,sans-Serif" font-size="10.00">list</text>
</g>
<!-- Node7&#45;&gt;Node8 -->
<g id="edge7" class="edge"><title>Node7&#45;&gt;Node8</title>
<path fill="none" stroke="midnightblue" d="M768.313,-173.975C710.178,-161.488 603.58,-138.59 555.577,-128.279"/>
<polygon fill="midnightblue" stroke="midnightblue" points="556.249,-124.844 545.737,-126.165 554.779,-131.688 556.249,-124.844"/>
</g>
<!-- Node9 -->
<g id="node9" class="node"><title>Node9</title>
<polygon fill="white" stroke="#bfbfbf" points="782,-112.5 782,-131.5 818,-131.5 818,-112.5 782,-112.5"/>
<text text-anchor="middle" x="800" y="-119.5" font-family="Helvetica,sans-Serif" font-size="10.00">map</text>
</g>
<!-- Node7&#45;&gt;Node9 -->
<g id="edge8" class="edge"><title>Node7&#45;&gt;Node9</title>
<path fill="none" stroke="midnightblue" d="M806.854,-173.975C805.725,-165.58 803.964,-152.481 802.509,-141.663"/>
<polygon fill="midnightblue" stroke="midnightblue" points="805.945,-140.953 801.144,-131.509 799.008,-141.886 805.945,-140.953"/>
</g>
<!-- Node10 -->
<g id="node10" class="node"><title>Node10</title>
<polygon fill="white" stroke="#bfbfbf" points="865.5,-56.5 865.5,-75.5 918.5,-75.5 918.5,-56.5 865.5,-56.5"/>
<text text-anchor="middle" x="892" y="-63.5" font-family="Helvetica,sans-Serif" font-size="10.00">memory</text>
</g>
<!-- Node7&#45;&gt;Node10 -->
<g id="edge9" class="edge"><title>Node7&#45;&gt;Node10</title>
<path fill="none" stroke="midnightblue" d="M814.314,-173.819C828.178,-154.755 861.493,-108.947 879.667,-83.9582"/>
<polygon fill="midnightblue" stroke="midnightblue" points="882.562,-85.928 885.613,-75.782 876.901,-81.8108 882.562,-85.928"/>
</g>
<!-- Node11 -->
<g id="node11" class="node"><title>Node11</title>
<g id="a_node11"><a xlink:href="_convenience_8h.html" target="_top" xlink:title="uscxml/util/Convenience.h">
<polygon fill="white" stroke="black" points="1175.5,-112.5 1175.5,-131.5 1308.5,-131.5 1308.5,-112.5 1175.5,-112.5"/>
<text text-anchor="middle" x="1242" y="-119.5" font-family="Helvetica,sans-Serif" font-size="10.00">uscxml/util/Convenience.h</text>
</a>
</g>
</g>
<!-- Node7&#45;&gt;Node11 -->
<g id="edge12" class="edge"><title>Node7&#45;&gt;Node11</title>
<path fill="none" stroke="midnightblue" d="M870.182,-173.975C949.462,-163.106 1086.27,-144.35 1169.99,-132.872"/>
<polygon fill="midnightblue" stroke="midnightblue" points="1170.5,-136.335 1179.93,-131.509 1169.55,-129.4 1170.5,-136.335"/>
</g>
<!-- Node15 -->
<g id="node15" class="node"><title>Node15</title>
<g id="a_node15"><a xlink:href="_blob_8h.html" target="_top" xlink:title="uscxml/messages/Blob.h">
<polygon fill="white" stroke="black" points="874.5,-112.5 874.5,-131.5 1001.5,-131.5 1001.5,-112.5 874.5,-112.5"/>
<text text-anchor="middle" x="938" y="-119.5" font-family="Helvetica,sans-Serif" font-size="10.00">uscxml/messages/Blob.h</text>
</a>
</g>
</g>
<!-- Node7&#45;&gt;Node15 -->
<g id="edge17" class="edge"><title>Node7&#45;&gt;Node15</title>
<path fill="none" stroke="midnightblue" d="M826.626,-173.975C848.443,-163.99 884.804,-147.348 910.017,-135.807"/>
<polygon fill="midnightblue" stroke="midnightblue" points="911.772,-138.853 919.409,-131.509 908.859,-132.488 911.772,-138.853"/>
</g>
<!-- Node11&#45;&gt;Node4 -->
<g id="edge13" class="edge"><title>Node11&#45;&gt;Node4</title>
<path fill="none" stroke="midnightblue" d="M1175.38,-114.161C1072.05,-103.553 874.769,-83.2995 775.776,-73.1367"/>
<polygon fill="midnightblue" stroke="midnightblue" points="775.949,-69.6362 765.644,-72.0965 775.234,-76.5996 775.949,-69.6362"/>
</g>
<!-- Node11&#45;&gt;Node12 -->
<g id="edge14" class="edge"><title>Node11&#45;&gt;Node12</title>
<path fill="none" stroke="midnightblue" d="M1226.74,-112.324C1211.78,-103.822 1188.75,-90.7288 1171.27,-80.7975"/>
<polygon fill="midnightblue" stroke="midnightblue" points="1172.65,-77.5534 1162.23,-75.6545 1169.19,-83.639 1172.65,-77.5534"/>
</g>
<!-- Node13 -->
<g id="node13" class="node"><title>Node13</title>
<polygon fill="white" stroke="#bfbfbf" points="1271.5,-56.5 1271.5,-75.5 1310.5,-75.5 1310.5,-56.5 1271.5,-56.5"/>
<text text-anchor="middle" x="1291" y="-63.5" font-family="Helvetica,sans-Serif" font-size="10.00">limits</text>
</g>
<!-- Node11&#45;&gt;Node13 -->
<g id="edge15" class="edge"><title>Node11&#45;&gt;Node13</title>
<path fill="none" stroke="midnightblue" d="M1250.09,-112.083C1257.16,-104.298 1267.59,-92.8015 1276.15,-83.3665"/>
<polygon fill="midnightblue" stroke="midnightblue" points="1278.93,-85.5087 1283.06,-75.7511 1273.75,-80.8047 1278.93,-85.5087"/>
</g>
<!-- Node14 -->
<g id="node14" class="node"><title>Node14</title>
<polygon fill="white" stroke="#bfbfbf" points="1201,-56.5 1201,-75.5 1253,-75.5 1253,-56.5 1201,-56.5"/>
<text text-anchor="middle" x="1227" y="-63.5" font-family="Helvetica,sans-Serif" font-size="10.00">sstream</text>
</g>
<!-- Node11&#45;&gt;Node14 -->
<g id="edge16" class="edge"><title>Node11&#45;&gt;Node14</title>
<path fill="none" stroke="midnightblue" d="M1239.52,-112.083C1237.51,-104.849 1234.61,-94.4087 1232.11,-85.3968"/>
<polygon fill="midnightblue" stroke="midnightblue" points="1235.48,-84.4495 1229.43,-75.7511 1228.74,-86.323 1235.48,-84.4495"/>
</g>
<!-- Node15&#45;&gt;Node4 -->
<g id="edge20" class="edge"><title>Node15&#45;&gt;Node4</title>
<path fill="none" stroke="midnightblue" d="M902.823,-112.444C864.421,-103.102 802.824,-88.1194 760.945,-77.9326"/>
<polygon fill="midnightblue" stroke="midnightblue" points="761.556,-74.4792 751.012,-75.5164 759.901,-81.2809 761.556,-74.4792"/>
</g>
<!-- Node15&#45;&gt;Node10 -->
<g id="edge19" class="edge"><title>Node15&#45;&gt;Node10</title>
<path fill="none" stroke="midnightblue" d="M930.404,-112.083C923.773,-104.298 913.979,-92.8015 905.942,-83.3665"/>
<polygon fill="midnightblue" stroke="midnightblue" points="908.604,-81.0939 899.455,-75.7511 903.275,-85.6332 908.604,-81.0939"/>
</g>
<!-- Node15&#45;&gt;Node12 -->
<g id="edge18" class="edge"><title>Node15&#45;&gt;Node12</title>
<path fill="none" stroke="midnightblue" d="M971.117,-112.444C1010.99,-102.141 1077.43,-84.9755 1116.23,-74.951"/>
<polygon fill="midnightblue" stroke="midnightblue" points="1117.59,-78.2149 1126.39,-72.3245 1115.83,-71.4375 1117.59,-78.2149"/>
</g>
<!-- Node16&#45;&gt;Node4 -->
<g id="edge23" class="edge"><title>Node16&#45;&gt;Node4</title>
<path fill="none" stroke="midnightblue" d="M508.821,-366.804C363.343,-364.73 0,-349.218 0,-246 0,-246 0,-246 0,-182.5 0,-146.475 9.48862,-131.154 40,-112 91.4595,-79.6952 500.244,-70.223 656.008,-67.771"/>
<polygon fill="midnightblue" stroke="midnightblue" points="656.392,-71.2656 666.337,-67.6129 656.284,-64.2664 656.392,-71.2656"/>
</g>
<!-- Node16&#45;&gt;Node12 -->
<g id="edge48" class="edge"><title>Node16&#45;&gt;Node12</title>
<path fill="none" stroke="midnightblue" d="M627.065,-363.925C807.136,-353.773 1337,-317.798 1337,-246 1337,-246 1337,-246 1337,-182.5 1337,-150.049 1341.01,-134.878 1318,-112 1307.98,-102.04 1223.96,-83.1369 1177.53,-73.3014"/>
<polygon fill="midnightblue" stroke="midnightblue" points="1178.2,-69.8652 1167.7,-71.2332 1176.76,-76.7155 1178.2,-69.8652"/>
</g>
<!-- Node17 -->
<g id="node17" class="node"><title>Node17</title>
<g id="a_node17"><a xlink:href="_d_o_m_8h.html" target="_top" xlink:title="uscxml/util/DOM.h">
<polygon fill="white" stroke="black" points="334,-174 334,-193 432,-193 432,-174 334,-174"/>
<text text-anchor="middle" x="383" y="-181" font-family="Helvetica,sans-Serif" font-size="10.00">uscxml/util/DOM.h</text>
</a>
</g>
</g>
<!-- Node16&#45;&gt;Node17 -->
<g id="edge24" class="edge"><title>Node16&#45;&gt;Node17</title>
<path fill="none" stroke="midnightblue" d="M554.06,-358.348C540.829,-349.842 520.688,-336.114 505,-322 461.091,-282.495 416.905,-228.244 395.792,-201.216"/>
<polygon fill="midnightblue" stroke="midnightblue" points="398.44,-198.919 389.551,-193.155 392.905,-203.204 398.44,-198.919"/>
</g>
<!-- Node21 -->
<g id="node21" class="node"><title>Node21</title>
<polygon fill="white" stroke="#bfbfbf" points="66.5,-112.5 66.5,-131.5 185.5,-131.5 185.5,-112.5 66.5,-112.5"/>
<text text-anchor="middle" x="126" y="-119.5" font-family="Helvetica,sans-Serif" font-size="10.00">xercesc/dom/DOM.hpp</text>
</g>
<!-- Node16&#45;&gt;Node21 -->
<g id="edge47" class="edge"><title>Node16&#45;&gt;Node21</title>
<path fill="none" stroke="midnightblue" d="M548.058,-358.371C528.272,-349.664 497.198,-335.598 471,-322 346.559,-257.407 202.806,-170.291 148.405,-136.855"/>
<polygon fill="midnightblue" stroke="midnightblue" points="150.232,-133.87 139.881,-131.606 146.561,-139.83 150.232,-133.87"/>
</g>
<!-- Node22 -->
<g id="node22" class="node"><title>Node22</title>
<g id="a_node22"><a xlink:href="_event_8h.html" target="_top" xlink:title="uscxml/messages/Event.h">
<polygon fill="white" stroke="black" points="772.5,-235.5 772.5,-254.5 905.5,-254.5 905.5,-235.5 772.5,-235.5"/>
<text text-anchor="middle" x="839" y="-242.5" font-family="Helvetica,sans-Serif" font-size="10.00">uscxml/messages/Event.h</text>
</a>
</g>
</g>
<!-- Node16&#45;&gt;Node22 -->
<g id="edge32" class="edge"><title>Node16&#45;&gt;Node22</title>
<path fill="none" stroke="midnightblue" d="M587.056,-358.492C633.882,-337.584 754.798,-283.596 810.336,-258.798"/>
<polygon fill="midnightblue" stroke="midnightblue" points="811.898,-261.934 819.602,-254.661 809.044,-255.542 811.898,-261.934"/>
</g>
<!-- Node24 -->
<g id="node24" class="node"><title>Node24</title>
<g id="a_node24"><a xlink:href="_interpreter_monitor_8h.html" target="_top" xlink:title="uscxml/interpreter\l/InterpreterMonitor.h">
<polygon fill="white" stroke="black" points="514.5,-291.5 514.5,-321.5 621.5,-321.5 621.5,-291.5 514.5,-291.5"/>
<text text-anchor="start" x="522.5" y="-309.5" font-family="Helvetica,sans-Serif" font-size="10.00">uscxml/interpreter</text>
<text text-anchor="middle" x="568" y="-298.5" font-family="Helvetica,sans-Serif" font-size="10.00">/InterpreterMonitor.h</text>
</a>
</g>
</g>
<!-- Node16&#45;&gt;Node24 -->
<g id="edge37" class="edge"><title>Node16&#45;&gt;Node24</title>
<path fill="none" stroke="midnightblue" d="M568,-358.475C568,-351.471 568,-341.192 568,-331.696"/>
<polygon fill="midnightblue" stroke="midnightblue" points="571.5,-331.523 568,-321.523 564.5,-331.523 571.5,-331.523"/>
</g>
<!-- Node17&#45;&gt;Node3 -->
<g id="edge28" class="edge"><title>Node17&#45;&gt;Node3</title>
<path fill="none" stroke="midnightblue" d="M420.538,-173.975C467.231,-163.371 546.98,-145.26 597.777,-133.724"/>
<polygon fill="midnightblue" stroke="midnightblue" points="598.555,-137.137 607.531,-131.509 597.005,-130.311 598.555,-137.137"/>
</g>
<!-- Node17&#45;&gt;Node4 -->
<g id="edge29" class="edge"><title>Node17&#45;&gt;Node4</title>
<path fill="none" stroke="midnightblue" d="M333.897,-176.45C278.378,-167.721 199.763,-148.477 233,-112 260.999,-81.2712 533.136,-71.1741 656.154,-68.1628"/>
<polygon fill="midnightblue" stroke="midnightblue" points="656.252,-71.6616 666.167,-67.9254 656.086,-64.6635 656.252,-71.6616"/>
</g>
<!-- Node17&#45;&gt;Node8 -->
<g id="edge26" class="edge"><title>Node17&#45;&gt;Node8</title>
<path fill="none" stroke="midnightblue" d="M404.205,-173.975C431.256,-163.1 477.946,-144.329 506.492,-132.853"/>
<polygon fill="midnightblue" stroke="midnightblue" points="508.146,-135.96 516.119,-128.983 505.535,-129.465 508.146,-135.96"/>
</g>
<!-- Node18 -->
<g id="node18" class="node"><title>Node18</title>
<polygon fill="white" stroke="#bfbfbf" points="242,-112.5 242,-131.5 272,-131.5 272,-112.5 242,-112.5"/>
<text text-anchor="middle" x="257" y="-119.5" font-family="Helvetica,sans-Serif" font-size="10.00">set</text>
</g>
<!-- Node17&#45;&gt;Node18 -->
<g id="edge25" class="edge"><title>Node17&#45;&gt;Node18</title>
<path fill="none" stroke="midnightblue" d="M364.947,-173.975C343.058,-163.638 306.063,-146.169 281.584,-134.609"/>
<polygon fill="midnightblue" stroke="midnightblue" points="282.789,-131.307 272.251,-130.202 279.799,-137.637 282.789,-131.307"/>
</g>
<!-- Node19 -->
<g id="node19" class="node"><title>Node19</title>
<polygon fill="white" stroke="#bfbfbf" points="443.5,-112.5 443.5,-131.5 498.5,-131.5 498.5,-112.5 443.5,-112.5"/>
<text text-anchor="middle" x="471" y="-119.5" font-family="Helvetica,sans-Serif" font-size="10.00">iostream</text>
</g>
<!-- Node17&#45;&gt;Node19 -->
<g id="edge27" class="edge"><title>Node17&#45;&gt;Node19</title>
<path fill="none" stroke="midnightblue" d="M395.608,-173.975C409.723,-164.431 432.831,-148.807 449.749,-137.368"/>
<polygon fill="midnightblue" stroke="midnightblue" points="452.091,-140.01 458.415,-131.509 448.171,-134.211 452.091,-140.01"/>
</g>
<!-- Node20 -->
<g id="node20" class="node"><title>Node20</title>
<polygon fill="white" stroke="#bfbfbf" points="290.5,-112.5 290.5,-131.5 425.5,-131.5 425.5,-112.5 290.5,-112.5"/>
<text text-anchor="middle" x="358" y="-119.5" font-family="Helvetica,sans-Serif" font-size="10.00">xercesc/util/XMLString.hpp</text>
</g>
<!-- Node17&#45;&gt;Node20 -->
<g id="edge30" class="edge"><title>Node17&#45;&gt;Node20</title>
<path fill="none" stroke="midnightblue" d="M379.418,-173.975C375.817,-165.404 370.154,-151.927 365.556,-140.983"/>
<polygon fill="midnightblue" stroke="midnightblue" points="368.676,-139.373 361.575,-131.509 362.222,-142.084 368.676,-139.373"/>
</g>
<!-- Node17&#45;&gt;Node21 -->
<g id="edge31" class="edge"><title>Node17&#45;&gt;Node21</title>
<path fill="none" stroke="midnightblue" d="M346.178,-173.975C300.471,-163.393 222.475,-145.336 172.634,-133.797"/>
<polygon fill="midnightblue" stroke="midnightblue" points="173.285,-130.355 162.754,-131.509 171.706,-137.174 173.285,-130.355"/>
</g>
<!-- Node22&#45;&gt;Node7 -->
<g id="edge33" class="edge"><title>Node22&#45;&gt;Node7</title>
<path fill="none" stroke="midnightblue" d="M834.558,-235.475C830.047,-226.815 822.926,-213.149 817.193,-202.145"/>
<polygon fill="midnightblue" stroke="midnightblue" points="820.158,-200.26 812.433,-193.009 813.95,-203.495 820.158,-200.26"/>
</g>
<!-- Node23 -->
<g id="node23" class="node"><title>Node23</title>
<g id="a_node23"><a xlink:href="_u_u_i_d_8h.html" target="_top" xlink:title="uscxml/util/UUID.h">
<polygon fill="white" stroke="black" points="1019.5,-112.5 1019.5,-131.5 1118.5,-131.5 1118.5,-112.5 1019.5,-112.5"/>
<text text-anchor="middle" x="1069" y="-119.5" font-family="Helvetica,sans-Serif" font-size="10.00">uscxml/util/UUID.h</text>
</a>
</g>
</g>
<!-- Node22&#45;&gt;Node23 -->
<g id="edge34" class="edge"><title>Node22&#45;&gt;Node23</title>
<path fill="none" stroke="midnightblue" d="M855.173,-235.492C894.586,-214.757 995.842,-161.488 1043.49,-136.421"/>
<polygon fill="midnightblue" stroke="midnightblue" points="1045.32,-139.414 1052.54,-131.661 1042.06,-133.219 1045.32,-139.414"/>
</g>
<!-- Node23&#45;&gt;Node4 -->
<g id="edge35" class="edge"><title>Node23&#45;&gt;Node4</title>
<path fill="none" stroke="midnightblue" d="M1019.33,-113.284C1016.51,-112.849 1013.72,-112.418 1011,-112 929.438,-99.4511 835.166,-85.0968 775.577,-76.042"/>
<polygon fill="midnightblue" stroke="midnightblue" points="776.004,-72.5669 765.592,-74.5251 774.953,-79.4875 776.004,-72.5669"/>
</g>
<!-- Node23&#45;&gt;Node12 -->
<g id="edge36" class="edge"><title>Node23&#45;&gt;Node12</title>
<path fill="none" stroke="midnightblue" d="M1081.53,-112.324C1093.59,-103.979 1112.03,-91.2122 1126.27,-81.3524"/>
<polygon fill="midnightblue" stroke="midnightblue" points="1128.27,-84.2243 1134.5,-75.6545 1124.28,-78.469 1128.27,-84.2243"/>
</g>
<!-- Node24&#45;&gt;Node3 -->
<g id="edge38" class="edge"><title>Node24&#45;&gt;Node3</title>
<path fill="none" stroke="midnightblue" d="M573.914,-291.483C587.697,-258.817 621.943,-177.647 637.316,-141.211"/>
<polygon fill="midnightblue" stroke="midnightblue" points="640.617,-142.393 641.279,-131.819 634.167,-139.672 640.617,-142.393"/>
</g>
<!-- Node24&#45;&gt;Node4 -->
<g id="edge39" class="edge"><title>Node24&#45;&gt;Node4</title>
<path fill="none" stroke="midnightblue" d="M514.354,-303.269C357.658,-295.007 -79.8714,-258.536 57,-112 97.4117,-68.7346 501.439,-65.9886 656.157,-66.5441"/>
<polygon fill="midnightblue" stroke="midnightblue" points="656.405,-70.0451 666.419,-66.5872 656.434,-63.0451 656.405,-70.0451"/>
</g>
<!-- Node24&#45;&gt;Node22 -->
<g id="edge40" class="edge"><title>Node24&#45;&gt;Node22</title>
<path fill="none" stroke="midnightblue" d="M621.541,-293.745C670.546,-282.985 742.459,-267.196 789.986,-256.761"/>
<polygon fill="midnightblue" stroke="midnightblue" points="791.018,-260.118 800.035,-254.555 789.517,-253.281 791.018,-260.118"/>
</g>
<!-- Node25 -->
<g id="node25" class="node"><title>Node25</title>
<g id="a_node25"><a xlink:href="_interpreter_issue_8h.html" target="_top" xlink:title="Identifies some common problems with SCXML documents. ">
<polygon fill="white" stroke="black" points="471.5,-168.5 471.5,-198.5 598.5,-198.5 598.5,-168.5 471.5,-168.5"/>
<text text-anchor="start" x="479.5" y="-186.5" font-family="Helvetica,sans-Serif" font-size="10.00">uscxml/debug/Interpreter</text>
<text text-anchor="middle" x="535" y="-175.5" font-family="Helvetica,sans-Serif" font-size="10.00">Issue.h</text>
</a>
</g>
</g>
<!-- Node24&#45;&gt;Node25 -->
<g id="edge41" class="edge"><title>Node24&#45;&gt;Node25</title>
<path fill="none" stroke="midnightblue" d="M564.245,-291.447C560.433,-277.212 554.348,-254.564 549,-235 546.638,-226.361 544.023,-216.899 541.698,-208.524"/>
<polygon fill="midnightblue" stroke="midnightblue" points="545.001,-207.338 538.95,-198.642 538.257,-209.214 545.001,-207.338"/>
</g>
<!-- Node26 -->
<g id="node26" class="node"><title>Node26</title>
<polygon fill="white" stroke="#bfbfbf" points="496,-235.5 496,-254.5 540,-254.5 540,-235.5 496,-235.5"/>
<text text-anchor="middle" x="518" y="-242.5" font-family="Helvetica,sans-Serif" font-size="10.00">mutex</text>
</g>
<!-- Node24&#45;&gt;Node26 -->
<g id="edge46" class="edge"><title>Node24&#45;&gt;Node26</title>
<path fill="none" stroke="midnightblue" d="M556.151,-291.399C548.885,-282.753 539.548,-271.642 531.929,-262.576"/>
<polygon fill="midnightblue" stroke="midnightblue" points="534.388,-260.062 525.275,-254.658 529.029,-264.565 534.388,-260.062"/>
</g>
<!-- Node25&#45;&gt;Node3 -->
<g id="edge42" class="edge"><title>Node25&#45;&gt;Node3</title>
<path fill="none" stroke="midnightblue" d="M561.068,-168.399C578.865,-158.773 602.312,-146.09 619.899,-136.577"/>
<polygon fill="midnightblue" stroke="midnightblue" points="621.864,-139.494 628.994,-131.658 618.533,-133.337 621.864,-139.494"/>
</g>
<!-- Node25&#45;&gt;Node4 -->
<g id="edge43" class="edge"><title>Node25&#45;&gt;Node4</title>
<path fill="none" stroke="midnightblue" d="M543.326,-168.411C553.303,-152.643 571.405,-127.305 593,-112 615.158,-96.2965 643.414,-85.4508 667.254,-78.3483"/>
<polygon fill="midnightblue" stroke="midnightblue" points="668.508,-81.6306 677.171,-75.5303 666.595,-74.8972 668.508,-81.6306"/>
</g>
<!-- Node25&#45;&gt;Node8 -->
<g id="edge44" class="edge"><title>Node25&#45;&gt;Node8</title>
<path fill="none" stroke="midnightblue" d="M534.052,-168.399C533.519,-160.466 532.846,-150.458 532.268,-141.858"/>
<polygon fill="midnightblue" stroke="midnightblue" points="535.745,-141.4 531.582,-131.658 528.761,-141.87 535.745,-141.4"/>
</g>
<!-- Node25&#45;&gt;Node19 -->
<g id="edge45" class="edge"><title>Node25&#45;&gt;Node19</title>
<path fill="none" stroke="midnightblue" d="M519.833,-168.399C510.245,-159.486 497.839,-147.952 487.931,-138.741"/>
<polygon fill="midnightblue" stroke="midnightblue" points="490.02,-135.903 480.313,-131.658 485.253,-141.03 490.02,-135.903"/>
</g>
</g>
</svg>
