<?xml version="1.0" encoding="UTF-8" standalone="no"?>
<!DOCTYPE svg PUBLIC "-//W3C//DTD SVG 1.1//EN"
 "http://www.w3.org/Graphics/SVG/1.1/DTD/svg11.dtd">
<!-- Generated by graphviz version 2.40.1 (20161225.0304)
 -->
<!-- Title: interpreter/ContentExecutor.h Pages: 1 -->
<svg width="541pt" height="252pt"
 viewBox="0.00 0.00 540.90 252.00" xmlns="http://www.w3.org/2000/svg" xmlns:xlink="http://www.w3.org/1999/xlink">
<g id="graph0" class="graph" transform="scale(1 1) rotate(0) translate(4 248)">
<title>interpreter/ContentExecutor.h</title>
<polygon fill="#ffffff" stroke="transparent" points="-4,4 -4,-248 536.9017,-248 536.9017,4 -4,4"/>
<!-- Node0 -->
<g id="node1" class="node">
<title>Node0</title>
<polygon fill="#bfbfbf" stroke="#000000" points="181.4017,-224.5 181.4017,-243.5 329.4017,-243.5 329.4017,-224.5 181.4017,-224.5"/>
<text text-anchor="middle" x="255.4017" y="-231.5" font-family="Helvetica,sans-Serif" font-size="10.00" fill="#000000">interpreter/ContentExecutor.h</text>
</g>
<!-- Node1 -->
<g id="node2" class="node">
<title>Node1</title>
<g id="a_node2"><a xlink:href="_common_8h.html" target="_top" xlink:title="uscxml/Common.h">
<polygon fill="#ffffff" stroke="#000000" points="175.9017,-56.5 175.9017,-75.5 274.9017,-75.5 274.9017,-56.5 175.9017,-56.5"/>
<text text-anchor="middle" x="225.4017" y="-63.5" font-family="Helvetica,sans-Serif" font-size="10.00" fill="#000000">uscxml/Common.h</text>
</a>
</g>
</g>
<!-- Node0&#45;&gt;Node1 -->
<g id="edge1" class="edge">
<title>Node0&#45;&gt;Node1</title>
<path fill="none" stroke="#191970" d="M181.3052,-225.8205C122.6585,-215.0139 44.36,-189.9712 5.4017,-132 .4436,-124.6223 -.2038,-118.8987 5.4017,-112 15.5556,-99.5033 104.0758,-83.9981 165.6846,-74.5592"/>
<polygon fill="#191970" stroke="#191970" points="166.3428,-77.9995 175.7055,-73.0408 165.294,-71.0785 166.3428,-77.9995"/>
</g>
<!-- Node4 -->
<g id="node5" class="node">
<title>Node4</title>
<g id="a_node5"><a xlink:href="_data_8h.html" target="_top" xlink:title="uscxml/messages/Data.h">
<polygon fill="#ffffff" stroke="#000000" points="191.4017,-168.5 191.4017,-187.5 319.4017,-187.5 319.4017,-168.5 191.4017,-168.5"/>
<text text-anchor="middle" x="255.4017" y="-175.5" font-family="Helvetica,sans-Serif" font-size="10.00" fill="#000000">uscxml/messages/Data.h</text>
</a>
</g>
</g>
<!-- Node0&#45;&gt;Node4 -->
<g id="edge4" class="edge">
<title>Node0&#45;&gt;Node4</title>
<path fill="none" stroke="#191970" d="M255.4017,-224.2455C255.4017,-216.9382 255.4017,-206.6944 255.4017,-197.7046"/>
<polygon fill="#191970" stroke="#191970" points="258.9018,-197.6426 255.4017,-187.6427 251.9018,-197.6427 258.9018,-197.6426"/>
</g>
<!-- Node10 -->
<g id="node11" class="node">
<title>Node10</title>
<polygon fill="#ffffff" stroke="#bfbfbf" points="491.9017,-56.5 491.9017,-75.5 532.9017,-75.5 532.9017,-56.5 491.9017,-56.5"/>
<text text-anchor="middle" x="512.4017" y="-63.5" font-family="Helvetica,sans-Serif" font-size="10.00" fill="#000000">string</text>
</g>
<!-- Node0&#45;&gt;Node10 -->
<g id="edge19" class="edge">
<title>Node0&#45;&gt;Node10</title>
<path fill="none" stroke="#191970" d="M296.1894,-224.4557C364.4055,-207.5758 496.8055,-170.5798 523.4017,-132 532.8454,-118.3011 528.2779,-99.2702 522.4216,-85.1623"/>
<polygon fill="#191970" stroke="#191970" points="525.5057,-83.4942 518.1114,-75.9063 519.16,-86.4492 525.5057,-83.4942"/>
</g>
<!-- Node2 -->
<g id="node3" class="node">
<title>Node2</title>
<polygon fill="#ffffff" stroke="#bfbfbf" points="151.4017,-.5 151.4017,-19.5 223.4017,-19.5 223.4017,-.5 151.4017,-.5"/>
<text text-anchor="middle" x="187.4017" y="-7.5" font-family="Helvetica,sans-Serif" font-size="10.00" fill="#000000">sys/socket.h</text>
</g>
<!-- Node1&#45;&gt;Node2 -->
<g id="edge2" class="edge">
<title>Node1&#45;&gt;Node2</title>
<path fill="none" stroke="#191970" d="M218.7826,-56.2455C213.4971,-48.4564 205.9475,-37.3308 199.5779,-27.9439"/>
<polygon fill="#191970" stroke="#191970" points="202.4561,-25.9522 193.9449,-19.6427 196.6638,-29.8827 202.4561,-25.9522"/>
</g>
<!-- Node3 -->
<g id="node4" class="node">
<title>Node3</title>
<polygon fill="#ffffff" stroke="#bfbfbf" points="241.4017,-.5 241.4017,-19.5 285.4017,-19.5 285.4017,-.5 241.4017,-.5"/>
<text text-anchor="middle" x="263.4017" y="-7.5" font-family="Helvetica,sans-Serif" font-size="10.00" fill="#000000">cmath</text>
</g>
<!-- Node1&#45;&gt;Node3 -->
<g id="edge3" class="edge">
<title>Node1&#45;&gt;Node3</title>
<path fill="none" stroke="#191970" d="M232.0208,-56.2455C237.3062,-48.4564 244.8558,-37.3308 251.2254,-27.9439"/>
<polygon fill="#191970" stroke="#191970" points="254.1395,-29.8827 256.8584,-19.6427 248.3472,-25.9522 254.1395,-29.8827"/>
</g>
<!-- Node4&#45;&gt;Node1 -->
<g id="edge9" class="edge">
<title>Node4&#45;&gt;Node1</title>
<path fill="none" stroke="#191970" d="M263.3329,-168.3847C273.0704,-155.3389 287.2654,-131.4298 278.4017,-112 272.7127,-99.5296 261.7885,-89.1361 251.329,-81.4023"/>
<polygon fill="#191970" stroke="#191970" points="253.0054,-78.3082 242.7774,-75.5442 249.0494,-84.0832 253.0054,-78.3082"/>
</g>
<!-- Node5 -->
<g id="node6" class="node">
<title>Node5</title>
<polygon fill="#ffffff" stroke="#bfbfbf" points="240.9017,-112.5 240.9017,-131.5 269.9017,-131.5 269.9017,-112.5 240.9017,-112.5"/>
<text text-anchor="middle" x="255.4017" y="-119.5" font-family="Helvetica,sans-Serif" font-size="10.00" fill="#000000">list</text>
</g>
<!-- Node4&#45;&gt;Node5 -->
<g id="edge5" class="edge">
<title>Node4&#45;&gt;Node5</title>
<path fill="none" stroke="#191970" d="M255.4017,-168.2455C255.4017,-160.9382 255.4017,-150.6944 255.4017,-141.7046"/>
<polygon fill="#191970" stroke="#191970" points="258.9018,-141.6426 255.4017,-131.6427 251.9018,-141.6427 258.9018,-141.6426"/>
</g>
<!-- Node6 -->
<g id="node7" class="node">
<title>Node6</title>
<polygon fill="#ffffff" stroke="#bfbfbf" points="326.4017,-112.5 326.4017,-131.5 362.4017,-131.5 362.4017,-112.5 326.4017,-112.5"/>
<text text-anchor="middle" x="344.4017" y="-119.5" font-family="Helvetica,sans-Serif" font-size="10.00" fill="#000000">map</text>
</g>
<!-- Node4&#45;&gt;Node6 -->
<g id="edge6" class="edge">
<title>Node4&#45;&gt;Node6</title>
<path fill="none" stroke="#191970" d="M270.9043,-168.2455C284.5596,-159.6534 304.6674,-147.0014 320.4006,-137.1018"/>
<polygon fill="#191970" stroke="#191970" points="322.4767,-139.9307 329.0767,-131.6427 318.7488,-134.006 322.4767,-139.9307"/>
</g>
<!-- Node7 -->
<g id="node8" class="node">
<title>Node7</title>
<polygon fill="#ffffff" stroke="#bfbfbf" points="65.9017,-56.5 65.9017,-75.5 118.9017,-75.5 118.9017,-56.5 65.9017,-56.5"/>
<text text-anchor="middle" x="92.4017" y="-63.5" font-family="Helvetica,sans-Serif" font-size="10.00" fill="#000000">memory</text>
</g>
<!-- Node4&#45;&gt;Node7 -->
<g id="edge7" class="edge">
<title>Node4&#45;&gt;Node7</title>
<path fill="none" stroke="#191970" d="M191.3216,-175.261C125.233,-170.9324 28.6301,-159.8924 5.4017,-132 -13.8944,-108.8295 24.3666,-88.9746 56.1149,-77.2589"/>
<polygon fill="#191970" stroke="#191970" points="57.417,-80.5112 65.6879,-73.8897 55.093,-73.9082 57.417,-80.5112"/>
</g>
<!-- Node8 -->
<g id="node9" class="node">
<title>Node8</title>
<polygon fill="#ffffff" stroke="#bfbfbf" points="14.9017,-112.5 14.9017,-131.5 77.9017,-131.5 77.9017,-112.5 14.9017,-112.5"/>
<text text-anchor="middle" x="46.4017" y="-119.5" font-family="Helvetica,sans-Serif" font-size="10.00" fill="#000000">type_traits</text>
</g>
<!-- Node4&#45;&gt;Node8 -->
<g id="edge8" class="edge">
<title>Node4&#45;&gt;Node8</title>
<path fill="none" stroke="#191970" d="M219.4733,-168.3733C182.9395,-158.5843 126.3859,-143.4312 87.9478,-133.132"/>
<polygon fill="#191970" stroke="#191970" points="88.6695,-129.702 78.1043,-130.4945 86.8577,-136.4634 88.6695,-129.702"/>
</g>
<!-- Node9 -->
<g id="node10" class="node">
<title>Node9</title>
<g id="a_node10"><a xlink:href="_convenience_8h.html" target="_top" xlink:title="uscxml/util/Convenience.h">
<polygon fill="#ffffff" stroke="#000000" points="380.9017,-112.5 380.9017,-131.5 513.9017,-131.5 513.9017,-112.5 380.9017,-112.5"/>
<text text-anchor="middle" x="447.4017" y="-119.5" font-family="Helvetica,sans-Serif" font-size="10.00" fill="#000000">uscxml/util/Convenience.h</text>
</a>
</g>
</g>
<!-- Node4&#45;&gt;Node9 -->
<g id="edge10" class="edge">
<title>Node4&#45;&gt;Node9</title>
<path fill="none" stroke="#191970" d="M288.4076,-168.3733C320.6107,-158.9807 369.7459,-144.6496 404.8656,-134.4064"/>
<polygon fill="#191970" stroke="#191970" points="406.2064,-137.6612 414.8264,-131.5011 404.2464,-130.9412 406.2064,-137.6612"/>
</g>
<!-- Node13 -->
<g id="node14" class="node">
<title>Node13</title>
<g id="a_node14"><a xlink:href="_blob_8h.html" target="_top" xlink:title="uscxml/messages/Blob.h">
<polygon fill="#ffffff" stroke="#000000" points="95.9017,-112.5 95.9017,-131.5 222.9017,-131.5 222.9017,-112.5 95.9017,-112.5"/>
<text text-anchor="middle" x="159.4017" y="-119.5" font-family="Helvetica,sans-Serif" font-size="10.00" fill="#000000">uscxml/messages/Blob.h</text>
</a>
</g>
</g>
<!-- Node4&#45;&gt;Node13 -->
<g id="edge15" class="edge">
<title>Node4&#45;&gt;Node13</title>
<path fill="none" stroke="#191970" d="M238.6797,-168.2455C223.8127,-159.5731 201.8551,-146.7645 184.8159,-136.825"/>
<polygon fill="#191970" stroke="#191970" points="186.3333,-133.6582 175.932,-131.6427 182.8062,-139.7047 186.3333,-133.6582"/>
</g>
<!-- Node9&#45;&gt;Node1 -->
<g id="edge11" class="edge">
<title>Node9&#45;&gt;Node1</title>
<path fill="none" stroke="#191970" d="M409.4907,-112.4369C371.7366,-102.9133 313.6751,-88.2672 272.8752,-77.9753"/>
<polygon fill="#191970" stroke="#191970" points="273.7086,-74.576 263.1562,-75.5237 271.9964,-81.3633 273.7086,-74.576"/>
</g>
<!-- Node9&#45;&gt;Node10 -->
<g id="edge12" class="edge">
<title>Node9&#45;&gt;Node10</title>
<path fill="none" stroke="#191970" d="M458.7238,-112.2455C468.324,-103.9746 482.2908,-91.9416 493.5711,-82.2232"/>
<polygon fill="#191970" stroke="#191970" points="495.9177,-84.8214 501.2093,-75.6427 491.3487,-79.5182 495.9177,-84.8214"/>
</g>
<!-- Node11 -->
<g id="node12" class="node">
<title>Node11</title>
<polygon fill="#ffffff" stroke="#bfbfbf" points="363.9017,-56.5 363.9017,-75.5 402.9017,-75.5 402.9017,-56.5 363.9017,-56.5"/>
<text text-anchor="middle" x="383.4017" y="-63.5" font-family="Helvetica,sans-Serif" font-size="10.00" fill="#000000">limits</text>
</g>
<!-- Node9&#45;&gt;Node11 -->
<g id="edge13" class="edge">
<title>Node9&#45;&gt;Node11</title>
<path fill="none" stroke="#191970" d="M436.2537,-112.2455C426.893,-104.0549 413.3159,-92.1749 402.2667,-82.5069"/>
<polygon fill="#191970" stroke="#191970" points="404.2524,-79.5937 394.4219,-75.6427 399.6429,-84.8618 404.2524,-79.5937"/>
</g>
<!-- Node12 -->
<g id="node13" class="node">
<title>Node12</title>
<polygon fill="#ffffff" stroke="#bfbfbf" points="421.4017,-56.5 421.4017,-75.5 473.4017,-75.5 473.4017,-56.5 421.4017,-56.5"/>
<text text-anchor="middle" x="447.4017" y="-63.5" font-family="Helvetica,sans-Serif" font-size="10.00" fill="#000000">sstream</text>
</g>
<!-- Node9&#45;&gt;Node12 -->
<g id="edge14" class="edge">
<title>Node9&#45;&gt;Node12</title>
<path fill="none" stroke="#191970" d="M447.4017,-112.2455C447.4017,-104.9382 447.4017,-94.6944 447.4017,-85.7046"/>
<polygon fill="#191970" stroke="#191970" points="450.9018,-85.6426 447.4017,-75.6427 443.9018,-85.6427 450.9018,-85.6426"/>
</g>
<!-- Node13&#45;&gt;Node1 -->
<g id="edge18" class="edge">
<title>Node13&#45;&gt;Node1</title>
<path fill="none" stroke="#191970" d="M170.898,-112.2455C180.6459,-103.9746 194.8276,-91.9416 206.2814,-82.2232"/>
<polygon fill="#191970" stroke="#191970" points="208.6764,-84.7813 214.0371,-75.6427 204.1475,-79.4437 208.6764,-84.7813"/>
</g>
<!-- Node13&#45;&gt;Node7 -->
<g id="edge17" class="edge">
<title>Node13&#45;&gt;Node7</title>
<path fill="none" stroke="#191970" d="M147.7311,-112.2455C137.8356,-103.9746 123.439,-91.9416 111.8116,-82.2232"/>
<polygon fill="#191970" stroke="#191970" points="113.8559,-79.3703 103.9384,-75.6427 109.3667,-84.7413 113.8559,-79.3703"/>
</g>
<!-- Node13&#45;&gt;Node10 -->
<g id="edge16" class="edge">
<title>Node13&#45;&gt;Node10</title>
<path fill="none" stroke="#191970" d="M223.1936,-113.0619C305.6036,-101.4968 442.4127,-82.2284 482.0579,-75.3081"/>
<polygon fill="#191970" stroke="#191970" points="482.7459,-78.7399 491.8855,-73.381 481.3989,-71.8707 482.7459,-78.7399"/>
</g>
</g>
</svg>
