<?xml version="1.0" encoding="UTF-8" standalone="no"?>
<!DOCTYPE svg PUBLIC "-//W3C//DTD SVG 1.1//EN"
 "http://www.w3.org/Graphics/SVG/1.1/DTD/svg11.dtd">
<!-- Generated by graphviz version 2.38.0 (20140413.2041)
 -->
<!-- Title: util/DOM.h Pages: 1 -->
<!--zoomable 352 -->
<svg id="main" version="1.1" xmlns="http://www.w3.org/2000/svg" xmlns:xlink="http://www.w3.org/1999/xlink" xml:space="preserve" onload="init(evt)">
<style type="text/css"><![CDATA[
.edge:hover path { stroke: red; }
.edge:hover polygon { stroke: red; fill: red; }
]]></style>
<script type="text/javascript"><![CDATA[
var edges = document.getElementsByTagName('g');
if (edges && edges.length) {
  for (var i=0;i<edges.length;i++) {
    if (edges[i].id.substr(0,4)=='edge') {
      edges[i].setAttribute('class','edge');
    }
  }
}
]]></script>
        <defs>
                <circle id="rim" cx="0" cy="0" r="7"/>
                <circle id="rim2" cx="0" cy="0" r="3.5"/>
                <g id="zoomPlus">
                        <use xlink:href="#rim" fill="#404040">
                                <set attributeName="fill" to="#808080" begin="zoomplus.mouseover" end="zoomplus.mouseout"/>
                        </use>
                        <path d="M-4,0h8M0,-4v8" fill="none" stroke="white" stroke-width="1.5" pointer-events="none"/>
                </g>
                <g id="zoomMin">
                        <use xlink:href="#rim" fill="#404040">
                                <set attributeName="fill" to="#808080" begin="zoomminus.mouseover" end="zoomminus.mouseout"/>
                        </use>
                        <path d="M-4,0h8" fill="none" stroke="white" stroke-width="1.5" pointer-events="none"/>
                </g>
                <g id="dirArrow">
                        <path fill="none" stroke="white" stroke-width="1.5" d="M0,-3.0v7 M-2.5,-0.5L0,-3.0L2.5,-0.5"/>
                </g>
               <g id="resetDef">
                       <use xlink:href="#rim2" fill="#404040">
                               <set attributeName="fill" to="#808080" begin="reset.mouseover" end="reset.mouseout"/>
                       </use>
               </g>
        </defs>

<script type="text/javascript">
var viewWidth = 2740;
var viewHeight = 352;
var sectionId = 'dynsection-1';
</script>
<script xlink:href="svgpan.js"/>
<svg id="graph" class="graph">
<g id="viewport">
<title>util/DOM.h</title>
<polygon fill="white" stroke="none" points="-4,4 -4,-348 2736,-348 2736,4 -4,4"/>
<!-- Node1 -->
<g id="node1" class="node"><title>Node1</title>
<polygon fill="#bfbfbf" stroke="black" points="1541,-324.5 1541,-343.5 1605,-343.5 1605,-324.5 1541,-324.5"/>
<text text-anchor="middle" x="1573" y="-331.5" font-family="Helvetica,sans-Serif" font-size="10.00">util/DOM.h</text>
</g>
<!-- Node2 -->
<g id="node2" class="node"><title>Node2</title>
<g id="a_node2"><a xlink:href="_interpreter_issue_8cpp.html" target="_top" xlink:title="debug/InterpreterIssue.cpp">
<polygon fill="white" stroke="black" points="658,-129 658,-148 794,-148 794,-129 658,-129"/>
<text text-anchor="middle" x="726" y="-136" font-family="Helvetica,sans-Serif" font-size="10.00">debug/InterpreterIssue.cpp</text>
</a>
</g>
</g>
<!-- Node1&#45;&gt;Node2 -->
<g id="edge1" class="edge"><title>Node1&#45;&gt;Node2</title>
<path fill="none" stroke="midnightblue" d="M1530.41,-333.023C1378.31,-332.762 867.733,-328.825 808,-288 768.431,-260.956 787.287,-231.319 763,-190 753.857,-174.446 741.014,-157.83 733.114,-148.069"/>
<polygon fill="midnightblue" stroke="midnightblue" points="1530.73,-336.523 1540.73,-333.036 1530.74,-329.523 1530.73,-336.523"/>
</g>
<!-- Node3 -->
<g id="node3" class="node"><title>Node3</title>
<g id="a_node3"><a xlink:href="_content_executor_impl_8h.html" target="_top" xlink:title="interpreter/ContentExecutor\lImpl.h">
<polygon fill="white" stroke="black" points="1007.5,-257.5 1007.5,-287.5 1146.5,-287.5 1146.5,-257.5 1007.5,-257.5"/>
<text text-anchor="start" x="1015.5" y="-275.5" font-family="Helvetica,sans-Serif" font-size="10.00">interpreter/ContentExecutor</text>
<text text-anchor="middle" x="1077" y="-264.5" font-family="Helvetica,sans-Serif" font-size="10.00">Impl.h</text>
</a>
</g>
</g>
<!-- Node1&#45;&gt;Node3 -->
<g id="edge2" class="edge"><title>Node1&#45;&gt;Node3</title>
<path fill="none" stroke="midnightblue" d="M1530.73,-327.929C1445.29,-317.68 1251.31,-294.41 1146.8,-281.873"/>
<polygon fill="midnightblue" stroke="midnightblue" points="1530.49,-331.426 1540.84,-329.142 1531.33,-324.476 1530.49,-331.426"/>
</g>
<!-- Node8 -->
<g id="node8" class="node"><title>Node8</title>
<g id="a_node8"><a xlink:href="_interpreter_impl_8h.html" target="_top" xlink:title="interpreter/InterpreterImpl.h">
<polygon fill="white" stroke="black" points="1091,-196 1091,-215 1229,-215 1229,-196 1091,-196"/>
<text text-anchor="middle" x="1160" y="-203" font-family="Helvetica,sans-Serif" font-size="10.00">interpreter/InterpreterImpl.h</text>
</a>
</g>
</g>
<!-- Node1&#45;&gt;Node8 -->
<g id="edge28" class="edge"><title>Node1&#45;&gt;Node8</title>
<path fill="none" stroke="midnightblue" d="M1535.26,-321.441C1453.18,-296.298 1259.98,-237.125 1187.83,-215.024"/>
<polygon fill="midnightblue" stroke="midnightblue" points="1534.35,-324.822 1544.94,-324.405 1536.4,-318.129 1534.35,-324.822"/>
</g>
<!-- Node9 -->
<g id="node9" class="node"><title>Node9</title>
<g id="a_node9"><a xlink:href="_interpreter_8cpp.html" target="_top" xlink:title="Interpreter.cpp">
<polygon fill="white" stroke="black" points="1494,-129 1494,-148 1576,-148 1576,-129 1494,-129"/>
<text text-anchor="middle" x="1535" y="-136" font-family="Helvetica,sans-Serif" font-size="10.00">Interpreter.cpp</text>
</a>
</g>
</g>
<!-- Node1&#45;&gt;Node9 -->
<g id="edge29" class="edge"><title>Node1&#45;&gt;Node9</title>
<path fill="none" stroke="midnightblue" d="M1566.73,-314.91C1564.07,-306.76 1561.11,-296.971 1559,-288 1546.69,-235.63 1538.65,-171.386 1535.98,-148.288"/>
<polygon fill="midnightblue" stroke="midnightblue" points="1563.44,-316.113 1569.95,-324.473 1570.08,-313.879 1563.44,-316.113"/>
</g>
<!-- Node14 -->
<g id="node14" class="node"><title>Node14</title>
<g id="a_node14"><a xlink:href="_basic_h_t_t_p_i_o_processor_8cpp.html" target="_top" xlink:title="plugins/ioprocessor\l/basichttp/BasicHTTPIOProcessor.cpp">
<polygon fill="white" stroke="black" points="1424.5,-56.5 1424.5,-86.5 1611.5,-86.5 1611.5,-56.5 1424.5,-56.5"/>
<text text-anchor="start" x="1432.5" y="-74.5" font-family="Helvetica,sans-Serif" font-size="10.00">plugins/ioprocessor</text>
<text text-anchor="middle" x="1518" y="-63.5" font-family="Helvetica,sans-Serif" font-size="10.00">/basichttp/BasicHTTPIOProcessor.cpp</text>
</a>
</g>
</g>
<!-- Node1&#45;&gt;Node14 -->
<g id="edge36" class="edge"><title>Node1&#45;&gt;Node14</title>
<path fill="none" stroke="midnightblue" d="M1579.81,-314.703C1592.79,-276.665 1617.03,-187.251 1585,-123 1577.14,-107.226 1561.74,-95.0819 1547.69,-86.6598"/>
<polygon fill="midnightblue" stroke="midnightblue" points="1576.42,-313.797 1576.36,-324.392 1583.02,-316.144 1576.42,-313.797"/>
</g>
<!-- Node17 -->
<g id="node17" class="node"><title>Node17</title>
<g id="a_node17"><a xlink:href="_chart_to_c_8h.html" target="_top" xlink:title="transform/ChartToC.h">
<polygon fill="white" stroke="black" points="739.5,-62 739.5,-81 852.5,-81 852.5,-62 739.5,-62"/>
<text text-anchor="middle" x="796" y="-69" font-family="Helvetica,sans-Serif" font-size="10.00">transform/ChartToC.h</text>
</a>
</g>
</g>
<!-- Node1&#45;&gt;Node17 -->
<g id="edge39" class="edge"><title>Node1&#45;&gt;Node17</title>
<path fill="none" stroke="midnightblue" d="M1530.65,-332.657C1414.99,-331.253 1095.8,-324.12 998,-288 911.943,-256.219 895.592,-227.726 841,-154 822.725,-129.32 806.789,-96.3807 799.787,-81.0368"/>
<polygon fill="midnightblue" stroke="midnightblue" points="1530.84,-336.159 1540.88,-332.773 1530.92,-329.16 1530.84,-336.159"/>
</g>
<!-- Node18 -->
<g id="node18" class="node"><title>Node18</title>
<g id="a_node18"><a xlink:href="_chart_to_c_8cpp.html" target="_top" xlink:title="transform/ChartToC.cpp">
<polygon fill="white" stroke="black" points="92,-0.5 92,-19.5 216,-19.5 216,-0.5 92,-0.5"/>
<text text-anchor="middle" x="154" y="-7.5" font-family="Helvetica,sans-Serif" font-size="10.00">transform/ChartToC.cpp</text>
</a>
</g>
</g>
<!-- Node1&#45;&gt;Node18 -->
<g id="edge38" class="edge"><title>Node1&#45;&gt;Node18</title>
<path fill="none" stroke="midnightblue" d="M1530.73,-332.187C1350.71,-328.593 647.142,-313.188 427,-288 235.049,-266.037 0,-399.704 0,-206.5 0,-206.5 0,-206.5 0,-137.5 0,-72.7985 82.172,-35.1234 126.468,-19.5145"/>
<polygon fill="midnightblue" stroke="midnightblue" points="1530.79,-335.688 1540.86,-332.387 1530.93,-328.69 1530.79,-335.688"/>
</g>
<!-- Node19 -->
<g id="node19" class="node"><title>Node19</title>
<g id="a_node19"><a xlink:href="_chart_to_v_h_d_l_8h.html" target="_top" xlink:title="transform/ChartToVHDL.h">
<polygon fill="white" stroke="black" points="967.5,-0.5 967.5,-19.5 1100.5,-19.5 1100.5,-0.5 967.5,-0.5"/>
<text text-anchor="middle" x="1034" y="-7.5" font-family="Helvetica,sans-Serif" font-size="10.00">transform/ChartToVHDL.h</text>
</a>
</g>
</g>
<!-- Node1&#45;&gt;Node19 -->
<g id="edge40" class="edge"><title>Node1&#45;&gt;Node19</title>
<path fill="none" stroke="midnightblue" d="M1584.34,-315.724C1614.38,-267.6 1689.15,-130.661 1620,-56 1585.31,-18.546 1246.74,-12.1503 1100.6,-11.1426"/>
<polygon fill="midnightblue" stroke="midnightblue" points="1581.26,-314.044 1578.83,-324.356 1587.16,-317.81 1581.26,-314.044"/>
</g>
<!-- Node21 -->
<g id="node21" class="node"><title>Node21</title>
<g id="a_node21"><a xlink:href="_fast_micro_step_8h.html" target="_top" xlink:title="interpreter/FastMicroStep.h">
<polygon fill="white" stroke="black" points="474,-196 474,-215 612,-215 612,-196 474,-196"/>
<text text-anchor="middle" x="543" y="-203" font-family="Helvetica,sans-Serif" font-size="10.00">interpreter/FastMicroStep.h</text>
</a>
</g>
</g>
<!-- Node1&#45;&gt;Node21 -->
<g id="edge24" class="edge"><title>Node1&#45;&gt;Node21</title>
<path fill="none" stroke="midnightblue" d="M1530.78,-332.249C1386.95,-329.441 916.842,-318.124 769,-288 688.691,-271.636 598.515,-232.376 560.936,-215.009"/>
<polygon fill="midnightblue" stroke="midnightblue" points="1530.89,-335.752 1540.96,-332.444 1531.02,-328.753 1530.89,-335.752"/>
</g>
<!-- Node22 -->
<g id="node22" class="node"><title>Node22</title>
<g id="a_node22"><a xlink:href="_fast_micro_step_8cpp.html" target="_top" xlink:title="interpreter/FastMicroStep.cpp">
<polygon fill="white" stroke="black" points="182,-129 182,-148 330,-148 330,-129 182,-129"/>
<text text-anchor="middle" x="256" y="-136" font-family="Helvetica,sans-Serif" font-size="10.00">interpreter/FastMicroStep.cpp</text>
</a>
</g>
</g>
<!-- Node1&#45;&gt;Node22 -->
<g id="edge27" class="edge"><title>Node1&#45;&gt;Node22</title>
<path fill="none" stroke="midnightblue" d="M1530.74,-332.804C1362.5,-331.766 740.106,-325.423 547,-288 459.095,-270.964 435.191,-264.633 357,-221 319.223,-199.92 281.299,-164.616 264.698,-148.282"/>
<polygon fill="midnightblue" stroke="midnightblue" points="1530.91,-336.304 1540.93,-332.863 1530.95,-329.305 1530.91,-336.304"/>
</g>
<!-- Node23 -->
<g id="node23" class="node"><title>Node23</title>
<g id="a_node23"><a xlink:href="_data_8cpp.html" target="_top" xlink:title="messages/Data.cpp">
<polygon fill="white" stroke="black" points="1639.5,-263 1639.5,-282 1744.5,-282 1744.5,-263 1639.5,-263"/>
<text text-anchor="middle" x="1692" y="-270" font-family="Helvetica,sans-Serif" font-size="10.00">messages/Data.cpp</text>
</a>
</g>
</g>
<!-- Node1&#45;&gt;Node23 -->
<g id="edge30" class="edge"><title>Node1&#45;&gt;Node23</title>
<path fill="none" stroke="midnightblue" d="M1599.27,-319.867C1622.33,-308.335 1655.2,-291.899 1674.98,-282.009"/>
<polygon fill="midnightblue" stroke="midnightblue" points="1597.43,-316.872 1590.05,-324.475 1600.56,-323.133 1597.43,-316.872"/>
</g>
<!-- Node24 -->
<g id="node24" class="node"><title>Node24</title>
<g id="a_node24"><a xlink:href="_event_8cpp.html" target="_top" xlink:title="messages/Event.cpp">
<polygon fill="white" stroke="black" points="1762.5,-263 1762.5,-282 1871.5,-282 1871.5,-263 1762.5,-263"/>
<text text-anchor="middle" x="1817" y="-270" font-family="Helvetica,sans-Serif" font-size="10.00">messages/Event.cpp</text>
</a>
</g>
</g>
<!-- Node1&#45;&gt;Node24 -->
<g id="edge31" class="edge"><title>Node1&#45;&gt;Node24</title>
<path fill="none" stroke="midnightblue" d="M1615.05,-322.745C1662.24,-311.239 1737.93,-292.781 1782.02,-282.031"/>
<polygon fill="midnightblue" stroke="midnightblue" points="1614.04,-319.391 1605.15,-325.16 1615.69,-326.191 1614.04,-319.391"/>
</g>
<!-- Node25 -->
<g id="node25" class="node"><title>Node25</title>
<g id="a_node25"><a xlink:href="_j_s_c_data_model_8cpp.html" target="_top" xlink:title="plugins/datamodel/ecmascript\l/JavaScriptCore/JSCDataModel.cpp">
<polygon fill="white" stroke="black" points="1889.5,-257.5 1889.5,-287.5 2066.5,-287.5 2066.5,-257.5 1889.5,-257.5"/>
<text text-anchor="start" x="1897.5" y="-275.5" font-family="Helvetica,sans-Serif" font-size="10.00">plugins/datamodel/ecmascript</text>
<text text-anchor="middle" x="1978" y="-264.5" font-family="Helvetica,sans-Serif" font-size="10.00">/JavaScriptCore/JSCDataModel.cpp</text>
</a>
</g>
</g>
<!-- Node1&#45;&gt;Node25 -->
<g id="edge32" class="edge"><title>Node1&#45;&gt;Node25</title>
<path fill="none" stroke="midnightblue" d="M1615.5,-326.835C1674.92,-318.207 1786.19,-302.012 1881,-288 1883.78,-287.589 1886.6,-287.171 1889.45,-286.748"/>
<polygon fill="midnightblue" stroke="midnightblue" points="1614.77,-323.405 1605.38,-328.306 1615.78,-330.333 1614.77,-323.405"/>
</g>
<!-- Node26 -->
<g id="node26" class="node"><title>Node26</title>
<g id="a_node26"><a xlink:href="_v8_data_model_8cpp.html" target="_top" xlink:title="plugins/datamodel/ecmascript\l/v8/V8DataModel.cpp">
<polygon fill="white" stroke="black" points="2084.5,-257.5 2084.5,-287.5 2233.5,-287.5 2233.5,-257.5 2084.5,-257.5"/>
<text text-anchor="start" x="2092.5" y="-275.5" font-family="Helvetica,sans-Serif" font-size="10.00">plugins/datamodel/ecmascript</text>
<text text-anchor="middle" x="2159" y="-264.5" font-family="Helvetica,sans-Serif" font-size="10.00">/v8/V8DataModel.cpp</text>
</a>
</g>
</g>
<!-- Node1&#45;&gt;Node26 -->
<g id="edge33" class="edge"><title>Node1&#45;&gt;Node26</title>
<path fill="none" stroke="midnightblue" d="M1615.41,-330.41C1702.14,-324.847 1905.99,-310.416 2076,-288 2078.76,-287.637 2081.56,-287.247 2084.39,-286.838"/>
<polygon fill="midnightblue" stroke="midnightblue" points="1614.93,-326.933 1605.17,-331.06 1615.38,-333.919 1614.93,-326.933"/>
</g>
<!-- Node27 -->
<g id="node27" class="node"><title>Node27</title>
<g id="a_node27"><a xlink:href="_lua_data_model_8cpp.html" target="_top" xlink:title="plugins/datamodel/lua\l/LuaDataModel.cpp">
<polygon fill="white" stroke="black" points="2252,-257.5 2252,-287.5 2366,-287.5 2366,-257.5 2252,-257.5"/>
<text text-anchor="start" x="2260" y="-275.5" font-family="Helvetica,sans-Serif" font-size="10.00">plugins/datamodel/lua</text>
<text text-anchor="middle" x="2309" y="-264.5" font-family="Helvetica,sans-Serif" font-size="10.00">/LuaDataModel.cpp</text>
</a>
</g>
</g>
<!-- Node1&#45;&gt;Node27 -->
<g id="edge34" class="edge"><title>Node1&#45;&gt;Node27</title>
<path fill="none" stroke="midnightblue" d="M1615.57,-332.34C1721.91,-330.216 2007.56,-321.577 2243,-288 2245.9,-287.586 2248.87,-287.114 2251.86,-286.601"/>
<polygon fill="midnightblue" stroke="midnightblue" points="1615.19,-328.847 1605.26,-332.537 1615.32,-335.846 1615.19,-328.847"/>
</g>
<!-- Node28 -->
<g id="node28" class="node"><title>Node28</title>
<g id="a_node28"><a xlink:href="_n_u_l_l_data_model_8cpp.html" target="_top" xlink:title="plugins/datamodel/null\l/NULLDataModel.cpp">
<polygon fill="white" stroke="black" points="2384,-257.5 2384,-287.5 2500,-287.5 2500,-257.5 2384,-257.5"/>
<text text-anchor="start" x="2392" y="-275.5" font-family="Helvetica,sans-Serif" font-size="10.00">plugins/datamodel/null</text>
<text text-anchor="middle" x="2442" y="-264.5" font-family="Helvetica,sans-Serif" font-size="10.00">/NULLDataModel.cpp</text>
</a>
</g>
</g>
<!-- Node1&#45;&gt;Node28 -->
<g id="edge35" class="edge"><title>Node1&#45;&gt;Node28</title>
<path fill="none" stroke="midnightblue" d="M1615.48,-332.959C1735.4,-332.339 2086.59,-327.054 2375,-288 2377.95,-287.601 2380.96,-287.141 2383.99,-286.637"/>
<polygon fill="midnightblue" stroke="midnightblue" points="1615.25,-329.46 1605.26,-333.003 1615.28,-336.46 1615.25,-329.46"/>
</g>
<!-- Node29 -->
<g id="node29" class="node"><title>Node29</title>
<g id="a_node29"><a xlink:href="_h_t_t_p_server_8cpp.html" target="_top" xlink:title="server/HTTPServer.cpp">
<polygon fill="white" stroke="black" points="2518,-263 2518,-282 2640,-282 2640,-263 2518,-263"/>
<text text-anchor="middle" x="2579" y="-270" font-family="Helvetica,sans-Serif" font-size="10.00">server/HTTPServer.cpp</text>
</a>
</g>
</g>
<!-- Node1&#45;&gt;Node29 -->
<g id="edge37" class="edge"><title>Node1&#45;&gt;Node29</title>
<path fill="none" stroke="midnightblue" d="M1615.19,-333.311C1747.53,-333.788 2166.04,-331.494 2509,-288 2520.2,-286.579 2532.29,-284.336 2543.21,-282.035"/>
<polygon fill="midnightblue" stroke="midnightblue" points="1615.09,-329.811 1605.08,-333.267 1615.06,-336.811 1615.09,-329.811"/>
</g>
<!-- Node30 -->
<g id="node30" class="node"><title>Node30</title>
<g id="a_node30"><a xlink:href="_d_o_m_8cpp.html" target="_top" xlink:title="util/DOM.cpp">
<polygon fill="white" stroke="black" points="2658,-263 2658,-282 2732,-282 2732,-263 2658,-263"/>
<text text-anchor="middle" x="2695" y="-270" font-family="Helvetica,sans-Serif" font-size="10.00">util/DOM.cpp</text>
</a>
</g>
</g>
<!-- Node1&#45;&gt;Node30 -->
<g id="edge41" class="edge"><title>Node1&#45;&gt;Node30</title>
<path fill="none" stroke="midnightblue" d="M1615.28,-332.717C1788.57,-331.327 2445.05,-323.76 2649,-288 2656.59,-286.67 2664.66,-284.423 2671.89,-282.09"/>
<polygon fill="midnightblue" stroke="midnightblue" points="1615.01,-329.219 1605.03,-332.796 1615.06,-336.218 1615.01,-329.219"/>
</g>
<!-- Node31 -->
<g id="node31" class="node"><title>Node31</title>
<g id="a_node31"><a xlink:href="_predicates_8h.html" target="_top" xlink:title="util/Predicates.h">
<polygon fill="white" stroke="black" points="366,-196 366,-215 454,-215 454,-196 366,-196"/>
<text text-anchor="middle" x="410" y="-203" font-family="Helvetica,sans-Serif" font-size="10.00">util/Predicates.h</text>
</a>
</g>
</g>
<!-- Node1&#45;&gt;Node31 -->
<g id="edge42" class="edge"><title>Node1&#45;&gt;Node31</title>
<path fill="none" stroke="midnightblue" d="M1530.57,-332.366C1374.64,-329.808 833.628,-318.863 664,-288 574.468,-271.71 472.731,-232.41 430.275,-215.021"/>
<polygon fill="midnightblue" stroke="midnightblue" points="1530.64,-335.868 1540.7,-332.529 1530.75,-328.868 1530.64,-335.868"/>
</g>
<!-- Node4 -->
<g id="node4" class="node"><title>Node4</title>
<g id="a_node4"><a xlink:href="_basic_content_executor_8h.html" target="_top" xlink:title="interpreter/BasicContent\lExecutor.h">
<polygon fill="white" stroke="black" points="630,-190.5 630,-220.5 754,-220.5 754,-190.5 630,-190.5"/>
<text text-anchor="start" x="638" y="-208.5" font-family="Helvetica,sans-Serif" font-size="10.00">interpreter/BasicContent</text>
<text text-anchor="middle" x="692" y="-197.5" font-family="Helvetica,sans-Serif" font-size="10.00">Executor.h</text>
</a>
</g>
</g>
<!-- Node3&#45;&gt;Node4 -->
<g id="edge3" class="edge"><title>Node3&#45;&gt;Node4</title>
<path fill="none" stroke="midnightblue" d="M997.323,-258.048C925.174,-245.867 820.348,-228.169 754.203,-217.002"/>
<polygon fill="midnightblue" stroke="midnightblue" points="996.836,-261.515 1007.28,-259.729 998.002,-254.613 996.836,-261.515"/>
</g>
<!-- Node7 -->
<g id="node7" class="node"><title>Node7</title>
<g id="a_node7"><a xlink:href="_content_executor_8cpp.html" target="_top" xlink:title="interpreter/ContentExecutor.cpp">
<polygon fill="white" stroke="black" points="915,-196 915,-215 1073,-215 1073,-196 915,-196"/>
<text text-anchor="middle" x="994" y="-203" font-family="Helvetica,sans-Serif" font-size="10.00">interpreter/ContentExecutor.cpp</text>
</a>
</g>
</g>
<!-- Node3&#45;&gt;Node7 -->
<g id="edge6" class="edge"><title>Node3&#45;&gt;Node7</title>
<path fill="none" stroke="midnightblue" d="M1050.83,-251.008C1035.42,-238.941 1016.74,-224.305 1005.1,-215.195"/>
<polygon fill="midnightblue" stroke="midnightblue" points="1048.96,-253.986 1058.99,-257.396 1053.28,-248.475 1048.96,-253.986"/>
</g>
<!-- Node3&#45;&gt;Node8 -->
<g id="edge7" class="edge"><title>Node3&#45;&gt;Node8</title>
<path fill="none" stroke="midnightblue" d="M1103.17,-251.008C1118.58,-238.941 1137.26,-224.305 1148.9,-215.195"/>
<polygon fill="midnightblue" stroke="midnightblue" points="1100.72,-248.475 1095.01,-257.396 1105.04,-253.986 1100.72,-248.475"/>
</g>
<!-- Node5 -->
<g id="node5" class="node"><title>Node5</title>
<g id="a_node5"><a xlink:href="_basic_content_executor_8cpp.html" target="_top" xlink:title="interpreter/BasicContent\lExecutor.cpp">
<polygon fill="white" stroke="black" points="348,-123.5 348,-153.5 472,-153.5 472,-123.5 348,-123.5"/>
<text text-anchor="start" x="356" y="-141.5" font-family="Helvetica,sans-Serif" font-size="10.00">interpreter/BasicContent</text>
<text text-anchor="middle" x="410" y="-130.5" font-family="Helvetica,sans-Serif" font-size="10.00">Executor.cpp</text>
</a>
</g>
</g>
<!-- Node4&#45;&gt;Node5 -->
<g id="edge4" class="edge"><title>Node4&#45;&gt;Node5</title>
<path fill="none" stroke="midnightblue" d="M621.221,-188.186C575.036,-177.54 515.356,-163.784 471.22,-153.611"/>
<polygon fill="midnightblue" stroke="midnightblue" points="620.627,-191.64 631.157,-190.476 622.199,-184.819 620.627,-191.64"/>
</g>
<!-- Node6 -->
<g id="node6" class="node"><title>Node6</title>
<g id="a_node6"><a xlink:href="_interpreter_impl_8cpp.html" target="_top" xlink:title="interpreter/InterpreterImpl.cpp">
<polygon fill="white" stroke="black" points="490.5,-129 490.5,-148 639.5,-148 639.5,-129 490.5,-129"/>
<text text-anchor="middle" x="565" y="-136" font-family="Helvetica,sans-Serif" font-size="10.00">interpreter/InterpreterImpl.cpp</text>
</a>
</g>
</g>
<!-- Node4&#45;&gt;Node6 -->
<g id="edge5" class="edge"><title>Node4&#45;&gt;Node6</title>
<path fill="none" stroke="midnightblue" d="M655.469,-185.803C631.122,-173.342 600.278,-157.556 581.621,-148.007"/>
<polygon fill="midnightblue" stroke="midnightblue" points="653.946,-188.956 664.443,-190.396 657.136,-182.724 653.946,-188.956"/>
</g>
<!-- Node8&#45;&gt;Node2 -->
<g id="edge8" class="edge"><title>Node8&#45;&gt;Node2</title>
<path fill="none" stroke="midnightblue" d="M1105.9,-194.133C1097.9,-192.69 1089.74,-191.268 1082,-190 981.124,-173.477 863.641,-157.43 792.07,-148.01"/>
<polygon fill="midnightblue" stroke="midnightblue" points="1105.45,-197.609 1115.92,-195.965 1106.71,-190.723 1105.45,-197.609"/>
</g>
<!-- Node8&#45;&gt;Node6 -->
<g id="edge9" class="edge"><title>Node8&#45;&gt;Node6</title>
<path fill="none" stroke="midnightblue" d="M1108.31,-194.135C1099.56,-192.596 1090.54,-191.145 1082,-190 890.607,-164.321 840.555,-178.448 649,-154 636.375,-152.389 622.753,-150.224 610.228,-148.059"/>
<polygon fill="midnightblue" stroke="midnightblue" points="1107.97,-197.629 1118.43,-195.969 1109.22,-190.741 1107.97,-197.629"/>
</g>
<!-- Node8&#45;&gt;Node9 -->
<g id="edge10" class="edge"><title>Node8&#45;&gt;Node9</title>
<path fill="none" stroke="midnightblue" d="M1239.34,-194.891C1305.25,-186.252 1401.26,-172.139 1484,-154 1491.64,-152.324 1499.83,-150.163 1507.36,-148.023"/>
<polygon fill="midnightblue" stroke="midnightblue" points="1238.5,-191.472 1229.03,-196.231 1239.4,-198.414 1238.5,-191.472"/>
</g>
<!-- Node10 -->
<g id="node10" class="node"><title>Node10</title>
<g id="a_node10"><a xlink:href="_u_s_c_x_m_l_invoker_8h.html" target="_top" xlink:title="plugins/invoker/scxml\l/USCXMLInvoker.h">
<polygon fill="white" stroke="black" points="1168,-123.5 1168,-153.5 1280,-153.5 1280,-123.5 1168,-123.5"/>
<text text-anchor="start" x="1176" y="-141.5" font-family="Helvetica,sans-Serif" font-size="10.00">plugins/invoker/scxml</text>
<text text-anchor="middle" x="1224" y="-130.5" font-family="Helvetica,sans-Serif" font-size="10.00">/USCXMLInvoker.h</text>
</a>
</g>
</g>
<!-- Node8&#45;&gt;Node10 -->
<g id="edge11" class="edge"><title>Node8&#45;&gt;Node10</title>
<path fill="none" stroke="midnightblue" d="M1175.95,-188.304C1186.45,-177.635 1200.07,-163.802 1210.13,-153.589"/>
<polygon fill="midnightblue" stroke="midnightblue" points="1173.15,-186.152 1168.63,-195.734 1178.14,-191.064 1173.15,-186.152"/>
</g>
<!-- Node13 -->
<g id="node13" class="node"><title>Node13</title>
<g id="a_node13"><a xlink:href="_basic_h_t_t_p_i_o_processor_8h.html" target="_top" xlink:title="plugins/ioprocessor\l/basichttp/BasicHTTPIOProcessor.h">
<polygon fill="white" stroke="black" points="1298.5,-123.5 1298.5,-153.5 1475.5,-153.5 1475.5,-123.5 1298.5,-123.5"/>
<text text-anchor="start" x="1306.5" y="-141.5" font-family="Helvetica,sans-Serif" font-size="10.00">plugins/ioprocessor</text>
<text text-anchor="middle" x="1387" y="-130.5" font-family="Helvetica,sans-Serif" font-size="10.00">/basichttp/BasicHTTPIOProcessor.h</text>
</a>
</g>
</g>
<!-- Node8&#45;&gt;Node13 -->
<g id="edge14" class="edge"><title>Node8&#45;&gt;Node13</title>
<path fill="none" stroke="midnightblue" d="M1199.96,-193.058C1238.45,-182.037 1296.74,-165.344 1338.01,-153.528"/>
<polygon fill="midnightblue" stroke="midnightblue" points="1198.79,-189.751 1190.14,-195.869 1200.72,-196.48 1198.79,-189.751"/>
</g>
<!-- Node15 -->
<g id="node15" class="node"><title>Node15</title>
<g id="a_node15"><a xlink:href="_s_c_x_m_l_i_o_processor_8cpp.html" target="_top" xlink:title="plugins/ioprocessor\l/scxml/SCXMLIOProcessor.cpp">
<polygon fill="white" stroke="black" points="992.5,-123.5 992.5,-153.5 1149.5,-153.5 1149.5,-123.5 992.5,-123.5"/>
<text text-anchor="start" x="1000.5" y="-141.5" font-family="Helvetica,sans-Serif" font-size="10.00">plugins/ioprocessor</text>
<text text-anchor="middle" x="1071" y="-130.5" font-family="Helvetica,sans-Serif" font-size="10.00">/scxml/SCXMLIOProcessor.cpp</text>
</a>
</g>
</g>
<!-- Node8&#45;&gt;Node15 -->
<g id="edge17" class="edge"><title>Node8&#45;&gt;Node15</title>
<path fill="none" stroke="midnightblue" d="M1139.52,-189.544C1124.71,-178.725 1104.82,-164.203 1090.29,-153.589"/>
<polygon fill="midnightblue" stroke="midnightblue" points="1137.86,-192.662 1148,-195.734 1141.99,-187.009 1137.86,-192.662"/>
</g>
<!-- Node16 -->
<g id="node16" class="node"><title>Node16</title>
<g id="a_node16"><a xlink:href="_transformer_8h.html" target="_top" xlink:title="transform/Transformer.h">
<polygon fill="white" stroke="black" points="850,-129 850,-148 974,-148 974,-129 850,-129"/>
<text text-anchor="middle" x="912" y="-136" font-family="Helvetica,sans-Serif" font-size="10.00">transform/Transformer.h</text>
</a>
</g>
</g>
<!-- Node8&#45;&gt;Node16 -->
<g id="edge18" class="edge"><title>Node8&#45;&gt;Node16</title>
<path fill="none" stroke="midnightblue" d="M1117.36,-193.323C1068.39,-180.489 989.116,-159.712 944.749,-148.083"/>
<polygon fill="midnightblue" stroke="midnightblue" points="1116.76,-196.786 1127.32,-195.936 1118.54,-190.014 1116.76,-196.786"/>
</g>
<!-- Node11 -->
<g id="node11" class="node"><title>Node11</title>
<g id="a_node11"><a xlink:href="_factory_8cpp.html" target="_top" xlink:title="plugins/Factory.cpp">
<polygon fill="white" stroke="black" points="1300.5,-62 1300.5,-81 1403.5,-81 1403.5,-62 1300.5,-62"/>
<text text-anchor="middle" x="1352" y="-69" font-family="Helvetica,sans-Serif" font-size="10.00">plugins/Factory.cpp</text>
</a>
</g>
</g>
<!-- Node10&#45;&gt;Node11 -->
<g id="edge12" class="edge"><title>Node10&#45;&gt;Node11</title>
<path fill="none" stroke="midnightblue" d="M1260.82,-118.803C1285.36,-106.342 1316.44,-90.5558 1335.25,-81.007"/>
<polygon fill="midnightblue" stroke="midnightblue" points="1259.11,-115.747 1251.77,-123.396 1262.28,-121.989 1259.11,-115.747"/>
</g>
<!-- Node12 -->
<g id="node12" class="node"><title>Node12</title>
<g id="a_node12"><a xlink:href="_u_s_c_x_m_l_invoker_8cpp.html" target="_top" xlink:title="plugins/invoker/scxml\l/USCXMLInvoker.cpp">
<polygon fill="white" stroke="black" points="1167.5,-56.5 1167.5,-86.5 1280.5,-86.5 1280.5,-56.5 1167.5,-56.5"/>
<text text-anchor="start" x="1175.5" y="-74.5" font-family="Helvetica,sans-Serif" font-size="10.00">plugins/invoker/scxml</text>
<text text-anchor="middle" x="1224" y="-63.5" font-family="Helvetica,sans-Serif" font-size="10.00">/USCXMLInvoker.cpp</text>
</a>
</g>
</g>
<!-- Node10&#45;&gt;Node12 -->
<g id="edge13" class="edge"><title>Node10&#45;&gt;Node12</title>
<path fill="none" stroke="midnightblue" d="M1224,-113.108C1224,-104.154 1224,-94.3227 1224,-86.5765"/>
<polygon fill="midnightblue" stroke="midnightblue" points="1220.5,-113.396 1224,-123.396 1227.5,-113.396 1220.5,-113.396"/>
</g>
<!-- Node13&#45;&gt;Node11 -->
<g id="edge15" class="edge"><title>Node13&#45;&gt;Node11</title>
<path fill="none" stroke="midnightblue" d="M1374.5,-114.287C1368.32,-102.803 1361.22,-89.6298 1356.68,-81.1945"/>
<polygon fill="midnightblue" stroke="midnightblue" points="1371.58,-116.251 1379.41,-123.396 1377.75,-112.932 1371.58,-116.251"/>
</g>
<!-- Node13&#45;&gt;Node14 -->
<g id="edge16" class="edge"><title>Node13&#45;&gt;Node14</title>
<path fill="none" stroke="midnightblue" d="M1424.58,-118.853C1445.29,-108.576 1470.59,-96.0252 1489.63,-86.5765"/>
<polygon fill="midnightblue" stroke="midnightblue" points="1422.83,-115.816 1415.43,-123.396 1425.94,-122.086 1422.83,-115.816"/>
</g>
<!-- Node16&#45;&gt;Node17 -->
<g id="edge19" class="edge"><title>Node16&#45;&gt;Node17</title>
<path fill="none" stroke="midnightblue" d="M887.528,-123.787C864.538,-110.905 830.843,-92.0243 811.396,-81.1273"/>
<polygon fill="midnightblue" stroke="midnightblue" points="885.921,-126.899 896.356,-128.734 889.343,-120.792 885.921,-126.899"/>
</g>
<!-- Node16&#45;&gt;Node19 -->
<g id="edge22" class="edge"><title>Node16&#45;&gt;Node19</title>
<path fill="none" stroke="midnightblue" d="M954.644,-125.611C975.329,-117.795 998.906,-105.506 1014,-87 1030.38,-66.9117 1033.47,-34.7779 1033.96,-19.5442"/>
<polygon fill="midnightblue" stroke="midnightblue" points="953.339,-122.36 945.079,-128.995 955.674,-128.959 953.339,-122.36"/>
</g>
<!-- Node20 -->
<g id="node20" class="node"><title>Node20</title>
<g id="a_node20"><a xlink:href="_transformer_8cpp.html" target="_top" xlink:title="transform/Transformer.cpp">
<polygon fill="white" stroke="black" points="870.5,-62 870.5,-81 1005.5,-81 1005.5,-62 870.5,-62"/>
<text text-anchor="middle" x="938" y="-69" font-family="Helvetica,sans-Serif" font-size="10.00">transform/Transformer.cpp</text>
</a>
</g>
</g>
<!-- Node16&#45;&gt;Node20 -->
<g id="edge23" class="edge"><title>Node16&#45;&gt;Node20</title>
<path fill="none" stroke="midnightblue" d="M919.284,-119.29C924.277,-106.808 930.675,-90.8135 934.549,-81.1273"/>
<polygon fill="midnightblue" stroke="midnightblue" points="915.971,-118.149 915.506,-128.734 922.47,-120.749 915.971,-118.149"/>
</g>
<!-- Node17&#45;&gt;Node18 -->
<g id="edge20" class="edge"><title>Node17&#45;&gt;Node18</title>
<path fill="none" stroke="midnightblue" d="M729.118,-64.3014C604.214,-52.7255 337.212,-27.9799 216.066,-16.7522"/>
<polygon fill="midnightblue" stroke="midnightblue" points="729.028,-67.808 739.308,-65.2459 729.674,-60.8379 729.028,-67.808"/>
</g>
<!-- Node17&#45;&gt;Node19 -->
<g id="edge21" class="edge"><title>Node17&#45;&gt;Node19</title>
<path fill="none" stroke="midnightblue" d="M839.835,-59.5412C886.04,-47.99 957.842,-30.0394 999.964,-19.5091"/>
<polygon fill="midnightblue" stroke="midnightblue" points="838.952,-56.1542 830.1,-61.9751 840.65,-62.9452 838.952,-56.1542"/>
</g>
<!-- Node21&#45;&gt;Node6 -->
<g id="edge26" class="edge"><title>Node21&#45;&gt;Node6</title>
<path fill="none" stroke="midnightblue" d="M549.29,-185.915C553.496,-173.488 558.834,-157.717 562.08,-148.127"/>
<polygon fill="midnightblue" stroke="midnightblue" points="545.858,-185.14 545.967,-195.734 552.488,-187.384 545.858,-185.14"/>
</g>
<!-- Node21&#45;&gt;Node22 -->
<g id="edge25" class="edge"><title>Node21&#45;&gt;Node22</title>
<path fill="none" stroke="midnightblue" d="M495.418,-193.724C438.905,-180.924 345.78,-159.833 293.899,-148.083"/>
<polygon fill="midnightblue" stroke="midnightblue" points="494.659,-197.14 505.185,-195.936 496.205,-190.313 494.659,-197.14"/>
</g>
<!-- Node31&#45;&gt;Node2 -->
<g id="edge43" class="edge"><title>Node31&#45;&gt;Node2</title>
<path fill="none" stroke="midnightblue" d="M450.744,-193.435C455.538,-192.229 460.37,-191.057 465,-190 505.214,-180.819 616.519,-159.838 680.03,-148.012"/>
<polygon fill="midnightblue" stroke="midnightblue" points="449.847,-190.051 441.034,-195.932 451.59,-196.831 449.847,-190.051"/>
</g>
<!-- Node31&#45;&gt;Node5 -->
<g id="edge44" class="edge"><title>Node31&#45;&gt;Node5</title>
<path fill="none" stroke="midnightblue" d="M410,-185.411C410,-175.222 410,-162.901 410,-153.589"/>
<polygon fill="midnightblue" stroke="midnightblue" points="406.5,-185.734 410,-195.734 413.5,-185.734 406.5,-185.734"/>
</g>
<!-- Node31&#45;&gt;Node6 -->
<g id="edge46" class="edge"><title>Node31&#45;&gt;Node6</title>
<path fill="none" stroke="midnightblue" d="M439.931,-191.948C470.62,-179.079 517.539,-159.403 544.332,-148.167"/>
<polygon fill="midnightblue" stroke="midnightblue" points="438.451,-188.773 430.583,-195.869 441.158,-195.229 438.451,-188.773"/>
</g>
<!-- Node31&#45;&gt;Node18 -->
<g id="edge47" class="edge"><title>Node31&#45;&gt;Node18</title>
<path fill="none" stroke="midnightblue" d="M355.73,-200.097C293.597,-193.874 197.253,-180.219 173,-154 137.456,-115.576 147.285,-44.5788 152.092,-19.8048"/>
<polygon fill="midnightblue" stroke="midnightblue" points="355.48,-203.589 365.77,-201.068 356.154,-196.621 355.48,-203.589"/>
</g>
<!-- Node31&#45;&gt;Node22 -->
<g id="edge45" class="edge"><title>Node31&#45;&gt;Node22</title>
<path fill="none" stroke="midnightblue" d="M380.263,-191.948C349.771,-179.079 303.155,-159.403 276.535,-148.167"/>
<polygon fill="midnightblue" stroke="midnightblue" points="378.976,-195.204 389.55,-195.869 381.698,-188.755 378.976,-195.204"/>
</g>
<!-- Node32 -->
<g id="node32" class="node"><title>Node32</title>
<g id="a_node32"><a xlink:href="_predicates_8cpp.html" target="_top" xlink:title="util/Predicates.cpp">
<polygon fill="white" stroke="black" points="28,-129 28,-148 126,-148 126,-129 28,-129"/>
<text text-anchor="middle" x="77" y="-136" font-family="Helvetica,sans-Serif" font-size="10.00">util/Predicates.cpp</text>
</a>
</g>
</g>
<!-- Node31&#45;&gt;Node32 -->
<g id="edge48" class="edge"><title>Node31&#45;&gt;Node32</title>
<path fill="none" stroke="midnightblue" d="M355.782,-195.039C301.172,-185.349 214.557,-169.546 140,-154 131.21,-152.167 121.762,-150.064 112.925,-148.038"/>
<polygon fill="midnightblue" stroke="midnightblue" points="355.473,-198.538 365.93,-196.834 356.693,-191.645 355.473,-198.538"/>
</g>
</g>
</svg>
        <g id="navigator" transform="translate(0 0)" fill="#404254">
                <rect fill="#f2f5e9" fill-opacity="0.5" stroke="#606060" stroke-width=".5" x="0" y="0" width="60" height="60"/>
                <use id="zoomplus" xlink:href="#zoomPlus" x="17" y="9" onmousedown="handleZoom(evt,'in')"/>
                <use id="zoomminus" xlink:href="#zoomMin" x="42" y="9" onmousedown="handleZoom(evt,'out')"/>
                <use id="reset" xlink:href="#resetDef" x="30" y="36" onmousedown="handleReset()"/>
                <g id="arrowUp" xlink:href="#dirArrow" transform="translate(30 24)" onmousedown="handlePan(0,-1)">
                  <use xlink:href="#rim" fill="#404040">
                        <set attributeName="fill" to="#808080" begin="arrowUp.mouseover" end="arrowUp.mouseout"/>
                  </use>
                  <path fill="none" stroke="white" stroke-width="1.5" d="M0,-3.0v7 M-2.5,-0.5L0,-3.0L2.5,-0.5"/>
                </g>
                <g id="arrowRight" xlink:href="#dirArrow" transform="rotate(90) translate(36 -43)" onmousedown="handlePan(1,0)">
                  <use xlink:href="#rim" fill="#404040">
                        <set attributeName="fill" to="#808080" begin="arrowRight.mouseover" end="arrowRight.mouseout"/>
                  </use>
                  <path fill="none" stroke="white" stroke-width="1.5" d="M0,-3.0v7 M-2.5,-0.5L0,-3.0L2.5,-0.5"/>
                </g>
                <g id="arrowDown" xlink:href="#dirArrow" transform="rotate(180) translate(-30 -48)" onmousedown="handlePan(0,1)">
                  <use xlink:href="#rim" fill="#404040">
                        <set attributeName="fill" to="#808080" begin="arrowDown.mouseover" end="arrowDown.mouseout"/>
                  </use>
                  <path fill="none" stroke="white" stroke-width="1.5" d="M0,-3.0v7 M-2.5,-0.5L0,-3.0L2.5,-0.5"/>
                </g>
                <g id="arrowLeft" xlink:href="#dirArrow" transform="rotate(270) translate(-36 17)" onmousedown="handlePan(-1,0)">
                  <use xlink:href="#rim" fill="#404040">
                        <set attributeName="fill" to="#808080" begin="arrowLeft.mouseover" end="arrowLeft.mouseout"/>
                  </use>
                  <path fill="none" stroke="white" stroke-width="1.5" d="M0,-3.0v7 M-2.5,-0.5L0,-3.0L2.5,-0.5"/>
                </g>
        </g>
        <svg viewBox="0 0 15 15" width="100%" height="30px" preserveAspectRatio="xMaxYMin meet">
         <g id="arrow_out" transform="scale(0.3 0.3)">
          <a xlink:href="_d_o_m_8h__dep__incl_org.svg" target="_base">
           <rect id="button" ry="5" rx="5" y="6" x="6" height="38" width="38"
                fill="#f2f5e9" fill-opacity="0.5" stroke="#606060" stroke-width="1.0"/>
           <path id="arrow"
             d="M 11.500037,31.436501 C 11.940474,20.09759 22.043105,11.32322 32.158766,21.979434 L 37.068811,17.246167 C 37.068811,17.246167 37.088388,32 37.088388,32 L 22.160133,31.978069 C 22.160133,31.978069 26.997745,27.140456 26.997745,27.140456 C 18.528582,18.264221 13.291696,25.230495 11.500037,31.436501 z"
             style="fill:#404040;"/>
          </a>
         </g>
        </svg>
</svg>
