<?xml version="1.0" encoding="UTF-8" standalone="no"?>
<!DOCTYPE svg PUBLIC "-//W3C//DTD SVG 1.1//EN"
 "http://www.w3.org/Graphics/SVG/1.1/DTD/svg11.dtd">
<!-- Generated by graphviz version 2.40.1 (20161225.0304)
 -->
<!-- Title: util/DOM.h Pages: 1 -->
<svg width="3294pt" height="229pt"
 viewBox="0.00 0.00 3294.00 229.00" xmlns="http://www.w3.org/2000/svg" xmlns:xlink="http://www.w3.org/1999/xlink">
<g id="graph0" class="graph" transform="scale(1 1) rotate(0) translate(4 225)">
<title>util/DOM.h</title>
<polygon fill="#ffffff" stroke="transparent" points="-4,4 -4,-225 3290,-225 3290,4 -4,4"/>
<!-- Node1 -->
<g id="node1" class="node">
<title>Node1</title>
<polygon fill="#bfbfbf" stroke="#000000" points="1648,-201.5 1648,-220.5 1712,-220.5 1712,-201.5 1648,-201.5"/>
<text text-anchor="middle" x="1680" y="-208.5" font-family="Helvetica,sans-Serif" font-size="10.00" fill="#000000">util/DOM.h</text>
</g>
<!-- Node2 -->
<g id="node2" class="node">
<title>Node2</title>
<g id="a_node2"><a xlink:href="$_breakpoint_8cpp.html" xlink:title="debug/Breakpoint.cpp">
<polygon fill="#ffffff" stroke="#000000" points="232,-140 232,-159 346,-159 346,-140 232,-140"/>
<text text-anchor="middle" x="289" y="-147" font-family="Helvetica,sans-Serif" font-size="10.00" fill="#000000">debug/Breakpoint.cpp</text>
</a>
</g>
</g>
<!-- Node1&#45;&gt;Node2 -->
<g id="edge1" class="edge">
<title>Node1&#45;&gt;Node2</title>
<path fill="none" stroke="#191970" d="M1637.5198,-210.5492C1440.652,-208.3025 615.8038,-197.1134 360,-165 349.109,-163.6327 337.4204,-161.4046 326.7341,-159.0587"/>
<polygon fill="#191970" stroke="#191970" points="1637.7023,-214.0514 1647.741,-210.6642 1637.7811,-207.0519 1637.7023,-214.0514"/>
</g>
<!-- Node3 -->
<g id="node3" class="node">
<title>Node3</title>
<g id="a_node3"><a xlink:href="$_debugger_8cpp.html" xlink:title="debug/Debugger.cpp">
<polygon fill="#ffffff" stroke="#000000" points="0,-73 0,-92 110,-92 110,-73 0,-73"/>
<text text-anchor="middle" x="55" y="-80" font-family="Helvetica,sans-Serif" font-size="10.00" fill="#000000">debug/Debugger.cpp</text>
</a>
</g>
</g>
<!-- Node1&#45;&gt;Node3 -->
<g id="edge2" class="edge">
<title>Node1&#45;&gt;Node3</title>
<path fill="none" stroke="#191970" d="M1637.7849,-210.3306C1421.663,-206.7986 446.9217,-189.5564 388,-165 369.4255,-157.2588 373.0955,-142.8029 355,-134 259.5886,-87.585 223.1017,-118.5064 119,-98 110.2509,-96.2766 100.8919,-94.1644 92.1068,-92.0604"/>
<polygon fill="#191970" stroke="#191970" points="1637.7299,-213.8301 1647.7855,-210.4931 1637.8437,-206.831 1637.7299,-213.8301"/>
</g>
<!-- Node4 -->
<g id="node4" class="node">
<title>Node4</title>
<g id="a_node4"><a xlink:href="$_interpreter_issue_8cpp.html" xlink:title="debug/InterpreterIssue.cpp">
<polygon fill="#ffffff" stroke="#000000" points="128,-73 128,-92 264,-92 264,-73 128,-73"/>
<text text-anchor="middle" x="196" y="-80" font-family="Helvetica,sans-Serif" font-size="10.00" fill="#000000">debug/InterpreterIssue.cpp</text>
</a>
</g>
</g>
<!-- Node1&#45;&gt;Node4 -->
<g id="edge3" class="edge">
<title>Node1&#45;&gt;Node4</title>
<path fill="none" stroke="#191970" d="M1637.7145,-210.2045C1425.4371,-206.1156 483.8539,-186.8081 426,-165 405.605,-157.3121 407.4011,-143.9328 388,-134 362.3491,-120.8675 288.4586,-102.9529 240.1818,-92.0838"/>
<polygon fill="#191970" stroke="#191970" points="1637.7688,-213.7061 1647.8341,-210.3985 1637.9031,-206.7074 1637.7688,-213.7061"/>
</g>
<!-- Node5 -->
<g id="node5" class="node">
<title>Node5</title>
<g id="a_node5"><a xlink:href="$_fast_micro_step_8h.html" xlink:title="interpreter/FastMicroStep.h">
<polygon fill="#ffffff" stroke="#000000" points="478,-140 478,-159 616,-159 616,-140 478,-140"/>
<text text-anchor="middle" x="547" y="-147" font-family="Helvetica,sans-Serif" font-size="10.00" fill="#000000">interpreter/FastMicroStep.h</text>
</a>
</g>
</g>
<!-- Node1&#45;&gt;Node5 -->
<g id="edge4" class="edge">
<title>Node1&#45;&gt;Node5</title>
<path fill="none" stroke="#191970" d="M1637.4875,-210.7193C1496.462,-209.4434 1031.3362,-202.4725 649,-165 633.8477,-163.5149 617.5125,-161.3073 602.4504,-159.0205"/>
<polygon fill="#191970" stroke="#191970" points="1637.8128,-214.2221 1647.8424,-210.8079 1637.8728,-207.2224 1637.8128,-214.2221"/>
</g>
<!-- Node6 -->
<g id="node6" class="node">
<title>Node6</title>
<g id="a_node6"><a xlink:href="$_fast_micro_step_8cpp.html" xlink:title="interpreter/FastMicroStep.cpp">
<polygon fill="#ffffff" stroke="#000000" points="282,-73 282,-92 430,-92 430,-73 282,-73"/>
<text text-anchor="middle" x="356" y="-80" font-family="Helvetica,sans-Serif" font-size="10.00" fill="#000000">interpreter/FastMicroStep.cpp</text>
</a>
</g>
</g>
<!-- Node1&#45;&gt;Node6 -->
<g id="edge7" class="edge">
<title>Node1&#45;&gt;Node6</title>
<path fill="none" stroke="#191970" d="M1637.5364,-210.855C1436.0004,-209.97 581.0878,-203.9323 469,-165 467.5587,-164.4994 398.7196,-113.9261 369.2068,-92.2185"/>
<polygon fill="#191970" stroke="#191970" points="1637.7043,-214.3557 1647.7189,-210.8977 1637.7337,-207.3557 1637.7043,-214.3557"/>
</g>
<!-- Node8 -->
<g id="node8" class="node">
<title>Node8</title>
<g id="a_node8"><a xlink:href="$_interpreter_8cpp.html" xlink:title="Interpreter.cpp">
<polygon fill="#ffffff" stroke="#000000" points="1727,-140 1727,-159 1809,-159 1809,-140 1727,-140"/>
<text text-anchor="middle" x="1768" y="-147" font-family="Helvetica,sans-Serif" font-size="10.00" fill="#000000">Interpreter.cpp</text>
</a>
</g>
</g>
<!-- Node1&#45;&gt;Node8 -->
<g id="edge8" class="edge">
<title>Node1&#45;&gt;Node8</title>
<path fill="none" stroke="#191970" d="M1702.2239,-195.4685C1718.6288,-184.0037 1740.4339,-168.765 1754.3466,-159.0419"/>
<polygon fill="#191970" stroke="#191970" points="1699.9418,-192.7934 1693.75,-201.3906 1703.9517,-198.5311 1699.9418,-192.7934"/>
</g>
<!-- Node9 -->
<g id="node9" class="node">
<title>Node9</title>
<g id="a_node9"><a xlink:href="$_data_8cpp.html" xlink:title="messages/Data.cpp">
<polygon fill="#ffffff" stroke="#000000" points="1827.5,-140 1827.5,-159 1932.5,-159 1932.5,-140 1827.5,-140"/>
<text text-anchor="middle" x="1880" y="-147" font-family="Helvetica,sans-Serif" font-size="10.00" fill="#000000">messages/Data.cpp</text>
</a>
</g>
</g>
<!-- Node1&#45;&gt;Node9 -->
<g id="edge9" class="edge">
<title>Node1&#45;&gt;Node9</title>
<path fill="none" stroke="#191970" d="M1720.9754,-198.4001C1758.9357,-186.7273 1814.5684,-169.6202 1848.9694,-159.0419"/>
<polygon fill="#191970" stroke="#191970" points="1719.7796,-195.106 1711.25,-201.3906 1721.837,-201.7968 1719.7796,-195.106"/>
</g>
<!-- Node10 -->
<g id="node10" class="node">
<title>Node10</title>
<g id="a_node10"><a xlink:href="$_c89_data_model_8cpp.html" xlink:title="plugins/datamodel/c89\l/C89DataModel.cpp">
<polygon fill="#ffffff" stroke="#000000" points="1950.5,-134.5 1950.5,-164.5 2067.5,-164.5 2067.5,-134.5 1950.5,-134.5"/>
<text text-anchor="start" x="1958.5" y="-152.5" font-family="Helvetica,sans-Serif" font-size="10.00" fill="#000000">plugins/datamodel/c89</text>
<text text-anchor="middle" x="2009" y="-141.5" font-family="Helvetica,sans-Serif" font-size="10.00" fill="#000000">/C89DataModel.cpp</text>
</a>
</g>
</g>
<!-- Node1&#45;&gt;Node10 -->
<g id="edge10" class="edge">
<title>Node1&#45;&gt;Node10</title>
<path fill="none" stroke="#191970" d="M1722.5431,-204.2496C1774.4863,-195.8422 1864.9428,-180.6662 1942,-165 1944.691,-164.4529 1947.4392,-163.879 1950.2127,-163.2875"/>
<polygon fill="#191970" stroke="#191970" points="1721.6884,-200.8421 1712.3728,-205.8888 1722.8024,-207.7529 1721.6884,-200.8421"/>
</g>
<!-- Node11 -->
<g id="node11" class="node">
<title>Node11</title>
<g id="a_node11"><a xlink:href="$_j_s_c_data_model_8cpp.html" xlink:title="plugins/datamodel/ecmascript\l/JavaScriptCore/JSCDataModel.cpp">
<polygon fill="#ffffff" stroke="#000000" points="2085.5,-134.5 2085.5,-164.5 2262.5,-164.5 2262.5,-134.5 2085.5,-134.5"/>
<text text-anchor="start" x="2093.5" y="-152.5" font-family="Helvetica,sans-Serif" font-size="10.00" fill="#000000">plugins/datamodel/ecmascript</text>
<text text-anchor="middle" x="2174" y="-141.5" font-family="Helvetica,sans-Serif" font-size="10.00" fill="#000000">/JavaScriptCore/JSCDataModel.cpp</text>
</a>
</g>
</g>
<!-- Node1&#45;&gt;Node11 -->
<g id="edge11" class="edge">
<title>Node1&#45;&gt;Node11</title>
<path fill="none" stroke="#191970" d="M1722.3475,-206.699C1795.0175,-199.1829 1948.1021,-182.7578 2077,-165 2079.7876,-164.616 2082.6188,-164.217 2085.4764,-163.8068"/>
<polygon fill="#191970" stroke="#191970" points="1721.8102,-203.2358 1712.2216,-207.7424 1722.5277,-210.1989 1721.8102,-203.2358"/>
</g>
<!-- Node12 -->
<g id="node12" class="node">
<title>Node12</title>
<g id="a_node12"><a xlink:href="$_v8_data_model_8cpp.html" xlink:title="plugins/datamodel/ecmascript\l/v8/V8DataModel.cpp">
<polygon fill="#ffffff" stroke="#000000" points="2280.5,-134.5 2280.5,-164.5 2429.5,-164.5 2429.5,-134.5 2280.5,-134.5"/>
<text text-anchor="start" x="2288.5" y="-152.5" font-family="Helvetica,sans-Serif" font-size="10.00" fill="#000000">plugins/datamodel/ecmascript</text>
<text text-anchor="middle" x="2355" y="-141.5" font-family="Helvetica,sans-Serif" font-size="10.00" fill="#000000">/v8/V8DataModel.cpp</text>
</a>
</g>
</g>
<!-- Node1&#45;&gt;Node12 -->
<g id="edge12" class="edge">
<title>Node1&#45;&gt;Node12</title>
<path fill="none" stroke="#191970" d="M1722.242,-209.2728C1819.5499,-204.9549 2066.891,-192.0415 2272,-165 2274.7613,-164.636 2277.5699,-164.2406 2280.4036,-163.8205"/>
<polygon fill="#191970" stroke="#191970" points="1722.0497,-205.7778 1712.212,-209.7108 1722.3552,-212.7711 1722.0497,-205.7778"/>
</g>
<!-- Node13 -->
<g id="node13" class="node">
<title>Node13</title>
<g id="a_node13"><a xlink:href="$_lua_data_model_8cpp.html" xlink:title="plugins/datamodel/lua\l/LuaDataModel.cpp">
<polygon fill="#ffffff" stroke="#000000" points="2448,-134.5 2448,-164.5 2562,-164.5 2562,-134.5 2448,-134.5"/>
<text text-anchor="start" x="2456" y="-152.5" font-family="Helvetica,sans-Serif" font-size="10.00" fill="#000000">plugins/datamodel/lua</text>
<text text-anchor="middle" x="2505" y="-141.5" font-family="Helvetica,sans-Serif" font-size="10.00" fill="#000000">/LuaDataModel.cpp</text>
</a>
</g>
</g>
<!-- Node1&#45;&gt;Node13 -->
<g id="edge13" class="edge">
<title>Node1&#45;&gt;Node13</title>
<path fill="none" stroke="#191970" d="M1722.4938,-209.3783C1861.0687,-203.9401 2298.9707,-185.5336 2439,-165 2441.9114,-164.5731 2444.8836,-164.0817 2447.8769,-163.5426"/>
<polygon fill="#191970" stroke="#191970" points="1722.1392,-205.8894 1712.2833,-209.7768 1722.4122,-212.8841 1722.1392,-205.8894"/>
</g>
<!-- Node14 -->
<g id="node14" class="node">
<title>Node14</title>
<g id="a_node14"><a xlink:href="$_promela_data_model_8cpp.html" xlink:title="plugins/datamodel/promela\l/PromelaDataModel.cpp">
<polygon fill="#ffffff" stroke="#000000" points="2580.5,-134.5 2580.5,-164.5 2717.5,-164.5 2717.5,-134.5 2580.5,-134.5"/>
<text text-anchor="start" x="2588.5" y="-152.5" font-family="Helvetica,sans-Serif" font-size="10.00" fill="#000000">plugins/datamodel/promela</text>
<text text-anchor="middle" x="2649" y="-141.5" font-family="Helvetica,sans-Serif" font-size="10.00" fill="#000000">/PromelaDataModel.cpp</text>
</a>
</g>
</g>
<!-- Node1&#45;&gt;Node14 -->
<g id="edge14" class="edge">
<title>Node1&#45;&gt;Node14</title>
<path fill="none" stroke="#191970" d="M1722.4719,-209.6232C1876.2428,-204.5114 2403.6339,-185.8387 2571,-165 2574.0141,-164.6247 2577.0863,-164.1995 2580.1842,-163.7356"/>
<polygon fill="#191970" stroke="#191970" points="1721.935,-206.139 1712.0562,-209.9677 1722.1664,-213.1352 1721.935,-206.139"/>
</g>
<!-- Node15 -->
<g id="node15" class="node">
<title>Node15</title>
<g id="a_node15"><a xlink:href="$_u_s_c_x_m_l_invoker_8cpp.html" xlink:title="plugins/invoker/scxml\l/USCXMLInvoker.cpp">
<polygon fill="#ffffff" stroke="#000000" points="2735.5,-134.5 2735.5,-164.5 2848.5,-164.5 2848.5,-134.5 2735.5,-134.5"/>
<text text-anchor="start" x="2743.5" y="-152.5" font-family="Helvetica,sans-Serif" font-size="10.00" fill="#000000">plugins/invoker/scxml</text>
<text text-anchor="middle" x="2792" y="-141.5" font-family="Helvetica,sans-Serif" font-size="10.00" fill="#000000">/USCXMLInvoker.cpp</text>
</a>
</g>
</g>
<!-- Node1&#45;&gt;Node15 -->
<g id="edge15" class="edge">
<title>Node1&#45;&gt;Node15</title>
<path fill="none" stroke="#191970" d="M1722.1997,-210.2176C1892.2859,-206.8983 2527.8904,-192.8555 2727,-165 2729.7574,-164.6142 2732.5691,-164.1646 2735.4007,-163.6664"/>
<polygon fill="#191970" stroke="#191970" points="1722.0673,-206.7194 1712.1368,-210.412 1722.2026,-213.7181 1722.0673,-206.7194"/>
</g>
<!-- Node16 -->
<g id="node16" class="node">
<title>Node16</title>
<g id="a_node16"><a xlink:href="$_basic_h_t_t_p_i_o_processor_8cpp.html" xlink:title="plugins/ioprocessor\l/basichttp/BasicHTTPIOProcessor.cpp">
<polygon fill="#ffffff" stroke="#000000" points="2866.5,-134.5 2866.5,-164.5 3053.5,-164.5 3053.5,-134.5 2866.5,-134.5"/>
<text text-anchor="start" x="2874.5" y="-152.5" font-family="Helvetica,sans-Serif" font-size="10.00" fill="#000000">plugins/ioprocessor</text>
<text text-anchor="middle" x="2960" y="-141.5" font-family="Helvetica,sans-Serif" font-size="10.00" fill="#000000">/basichttp/BasicHTTPIOProcessor.cpp</text>
</a>
</g>
</g>
<!-- Node1&#45;&gt;Node16 -->
<g id="edge16" class="edge">
<title>Node1&#45;&gt;Node16</title>
<path fill="none" stroke="#191970" d="M1722.2412,-209.9849C1905.2654,-205.4887 2630.7745,-186.6328 2858,-165 2860.7638,-164.7369 2863.5669,-164.4488 2866.3943,-164.1397"/>
<polygon fill="#191970" stroke="#191970" points="1722.1145,-206.4868 1712.2031,-210.2304 1722.2858,-213.4847 1722.1145,-206.4868"/>
</g>
<!-- Node17 -->
<g id="node17" class="node">
<title>Node17</title>
<g id="a_node17"><a xlink:href="$_h_t_t_p_server_8cpp.html" xlink:title="server/HTTPServer.cpp">
<polygon fill="#ffffff" stroke="#000000" points="3072,-140 3072,-159 3194,-159 3194,-140 3072,-140"/>
<text text-anchor="middle" x="3133" y="-147" font-family="Helvetica,sans-Serif" font-size="10.00" fill="#000000">server/HTTPServer.cpp</text>
</a>
</g>
</g>
<!-- Node1&#45;&gt;Node17 -->
<g id="edge17" class="edge">
<title>Node1&#45;&gt;Node17</title>
<path fill="none" stroke="#191970" d="M1722.2021,-210.6467C1924.2488,-208.7945 2794.0139,-198.9581 3063,-165 3073.7437,-163.6437 3085.2697,-161.4191 3095.8053,-159.073"/>
<polygon fill="#191970" stroke="#191970" points="1721.9732,-207.1485 1712.0052,-210.7385 1722.0363,-214.1482 1721.9732,-207.1485"/>
</g>
<!-- Node18 -->
<g id="node18" class="node">
<title>Node18</title>
<g id="a_node18"><a xlink:href="$_chart_to_c_8cpp.html" xlink:title="transform/ChartToC.cpp">
<polygon fill="#ffffff" stroke="#000000" points="1176,-73 1176,-92 1300,-92 1300,-73 1176,-73"/>
<text text-anchor="middle" x="1238" y="-80" font-family="Helvetica,sans-Serif" font-size="10.00" fill="#000000">transform/ChartToC.cpp</text>
</a>
</g>
</g>
<!-- Node1&#45;&gt;Node18 -->
<g id="edge18" class="edge">
<title>Node1&#45;&gt;Node18</title>
<path fill="none" stroke="#191970" d="M1637.6675,-209.7024C1552.1809,-206.4562 1362.2936,-195.8934 1306,-165 1274.7579,-147.8547 1252.129,-110.0211 1242.7671,-92.1759"/>
<polygon fill="#191970" stroke="#191970" points="1637.6813,-213.2051 1647.802,-210.0714 1637.936,-206.2098 1637.6813,-213.2051"/>
</g>
<!-- Node19 -->
<g id="node19" class="node">
<title>Node19</title>
<g id="a_node19"><a xlink:href="$_chart_to_c_8h.html" xlink:title="transform/ChartToC.h">
<polygon fill="#ffffff" stroke="#000000" points="1325.5,-140 1325.5,-159 1438.5,-159 1438.5,-140 1325.5,-140"/>
<text text-anchor="middle" x="1382" y="-147" font-family="Helvetica,sans-Serif" font-size="10.00" fill="#000000">transform/ChartToC.h</text>
</a>
</g>
</g>
<!-- Node1&#45;&gt;Node19 -->
<g id="edge19" class="edge">
<title>Node1&#45;&gt;Node19</title>
<path fill="none" stroke="#191970" d="M1637.62,-203.0576C1591.0376,-194.2204 1514.0393,-179.2971 1448,-165 1439.4873,-163.1571 1430.3813,-161.0844 1421.7362,-159.0689"/>
<polygon fill="#191970" stroke="#191970" points="1637.1729,-206.535 1647.6493,-204.9553 1638.4744,-199.6571 1637.1729,-206.535"/>
</g>
<!-- Node20 -->
<g id="node20" class="node">
<title>Node20</title>
<g id="a_node20"><a xlink:href="$_chart_to_java_8h.html" xlink:title="transform/ChartToJava.h">
<polygon fill="#ffffff" stroke="#000000" points="1318.5,-73 1318.5,-92 1445.5,-92 1445.5,-73 1318.5,-73"/>
<text text-anchor="middle" x="1382" y="-80" font-family="Helvetica,sans-Serif" font-size="10.00" fill="#000000">transform/ChartToJava.h</text>
</a>
</g>
</g>
<!-- Node1&#45;&gt;Node20 -->
<g id="edge28" class="edge">
<title>Node1&#45;&gt;Node20</title>
<path fill="none" stroke="#191970" d="M1637.7863,-208.7541C1546.4559,-203.4636 1337.0149,-188.8377 1316,-165 1293.5601,-139.5458 1338.0202,-107.7967 1364.4077,-92.1438"/>
<polygon fill="#191970" stroke="#191970" points="1637.6192,-212.2502 1647.8019,-209.3242 1638.017,-205.2615 1637.6192,-212.2502"/>
</g>
<!-- Node22 -->
<g id="node22" class="node">
<title>Node22</title>
<g id="a_node22"><a xlink:href="$_chart_to_promela_8h.html" xlink:title="transform/ChartToPromela.h">
<polygon fill="#ffffff" stroke="#000000" points="1463.5,-73 1463.5,-92 1606.5,-92 1606.5,-73 1463.5,-73"/>
<text text-anchor="middle" x="1535" y="-80" font-family="Helvetica,sans-Serif" font-size="10.00" fill="#000000">transform/ChartToPromela.h</text>
</a>
</g>
</g>
<!-- Node1&#45;&gt;Node22 -->
<g id="edge33" class="edge">
<title>Node1&#45;&gt;Node22</title>
<path fill="none" stroke="#191970" d="M1664.3373,-193.6901C1649.4345,-177.5768 1626.0721,-153.2247 1604,-134 1585.9651,-118.2917 1563.5207,-102.1016 1549.2235,-92.168"/>
<polygon fill="#191970" stroke="#191970" points="1661.9705,-196.2878 1671.3077,-201.2945 1667.1307,-191.5578 1661.9705,-196.2878"/>
</g>
<!-- Node24 -->
<g id="node24" class="node">
<title>Node24</title>
<g id="a_node24"><a xlink:href="$_promela_code_analyzer_8cpp.html" xlink:title="transform/promela/Promela\lCodeAnalyzer.cpp">
<polygon fill="#ffffff" stroke="#000000" points="1466,-.5 1466,-30.5 1604,-30.5 1604,-.5 1466,-.5"/>
<text text-anchor="start" x="1474" y="-18.5" font-family="Helvetica,sans-Serif" font-size="10.00" fill="#000000">transform/promela/Promela</text>
<text text-anchor="middle" x="1535" y="-7.5" font-family="Helvetica,sans-Serif" font-size="10.00" fill="#000000">CodeAnalyzer.cpp</text>
</a>
</g>
</g>
<!-- Node1&#45;&gt;Node24 -->
<g id="edge35" class="edge">
<title>Node1&#45;&gt;Node24</title>
<path fill="none" stroke="#191970" d="M1684.294,-191.4882C1689.2793,-173.6511 1699.3227,-147.9841 1718,-134 1795.0683,-76.2972 1987.4531,-139.4074 1924,-67 1903.2905,-43.368 1710.3801,-27.0496 1604.2371,-19.7776"/>
<polygon fill="#191970" stroke="#191970" points="1680.844,-190.8574 1681.8116,-201.408 1687.6346,-192.5568 1680.844,-190.8574"/>
</g>
<!-- Node25 -->
<g id="node25" class="node">
<title>Node25</title>
<g id="a_node25"><a xlink:href="$_chart_to_v_h_d_l_8h.html" xlink:title="transform/ChartToVHDL.h">
<polygon fill="#ffffff" stroke="#000000" points="1781.5,-73 1781.5,-92 1914.5,-92 1914.5,-73 1781.5,-73"/>
<text text-anchor="middle" x="1848" y="-80" font-family="Helvetica,sans-Serif" font-size="10.00" fill="#000000">transform/ChartToVHDL.h</text>
</a>
</g>
</g>
<!-- Node1&#45;&gt;Node25 -->
<g id="edge34" class="edge">
<title>Node1&#45;&gt;Node25</title>
<path fill="none" stroke="#191970" d="M1675.6149,-191.3292C1673.0357,-174.3502 1672.3906,-150.0868 1685,-134 1692.9183,-123.898 1764.5734,-103.9304 1810.2049,-92.0446"/>
<polygon fill="#191970" stroke="#191970" points="1672.1957,-192.0866 1677.4692,-201.2757 1679.0771,-190.8036 1672.1957,-192.0866"/>
</g>
<!-- Node27 -->
<g id="node27" class="node">
<title>Node27</title>
<g id="a_node27"><a xlink:href="$_promela_inlines_8h.html" xlink:title="transform/promela/Promela\lInlines.h">
<polygon fill="#ffffff" stroke="#000000" points="1457,-134.5 1457,-164.5 1595,-164.5 1595,-134.5 1457,-134.5"/>
<text text-anchor="start" x="1465" y="-152.5" font-family="Helvetica,sans-Serif" font-size="10.00" fill="#000000">transform/promela/Promela</text>
<text text-anchor="middle" x="1526" y="-141.5" font-family="Helvetica,sans-Serif" font-size="10.00" fill="#000000">Inlines.h</text>
</a>
</g>
</g>
<!-- Node1&#45;&gt;Node27 -->
<g id="edge29" class="edge">
<title>Node1&#45;&gt;Node27</title>
<path fill="none" stroke="#191970" d="M1646.3869,-197.5766C1621.9884,-187.833 1588.9622,-174.644 1563.6726,-164.5446"/>
<polygon fill="#191970" stroke="#191970" points="1645.3526,-200.9323 1655.9375,-201.3906 1647.9487,-194.4315 1645.3526,-200.9323"/>
</g>
<!-- Node29 -->
<g id="node29" class="node">
<title>Node29</title>
<g id="a_node29"><a xlink:href="$_d_o_m_8cpp.html" xlink:title="util/DOM.cpp">
<polygon fill="#ffffff" stroke="#000000" points="3212,-140 3212,-159 3286,-159 3286,-140 3212,-140"/>
<text text-anchor="middle" x="3249" y="-147" font-family="Helvetica,sans-Serif" font-size="10.00" fill="#000000">util/DOM.cpp</text>
</a>
</g>
</g>
<!-- Node1&#45;&gt;Node29 -->
<g id="edge36" class="edge">
<title>Node1&#45;&gt;Node29</title>
<path fill="none" stroke="#191970" d="M1722.3344,-210.465C1953.0593,-207.4496 3053.9511,-191.7531 3203,-165 3210.2994,-163.6898 3218.016,-161.4488 3225.0004,-159.0718"/>
<polygon fill="#191970" stroke="#191970" points="1722.273,-206.9654 1712.3194,-210.595 1722.364,-213.9648 1722.273,-206.9654"/>
</g>
<!-- Node30 -->
<g id="node30" class="node">
<title>Node30</title>
<g id="a_node30"><a xlink:href="$_predicates_8h.html" xlink:title="util/Predicates.h">
<polygon fill="#ffffff" stroke="#000000" points="658,-140 658,-159 746,-159 746,-140 658,-140"/>
<text text-anchor="middle" x="702" y="-147" font-family="Helvetica,sans-Serif" font-size="10.00" fill="#000000">util/Predicates.h</text>
</a>
</g>
</g>
<!-- Node1&#45;&gt;Node30 -->
<g id="edge37" class="edge">
<title>Node1&#45;&gt;Node30</title>
<path fill="none" stroke="#191970" d="M1637.3203,-208.3162C1476.6907,-198.2152 909.3777,-162.5406 746.2038,-152.2797"/>
<polygon fill="#191970" stroke="#191970" points="1637.5388,-211.8367 1647.7388,-208.9713 1637.9782,-204.8505 1637.5388,-211.8367"/>
</g>
<!-- Node5&#45;&gt;Node6 -->
<g id="edge5" class="edge">
<title>Node5&#45;&gt;Node6</title>
<path fill="none" stroke="#191970" d="M510.1757,-136.5826C473.0548,-123.5611 416.622,-103.7653 383.3149,-92.0817"/>
<polygon fill="#191970" stroke="#191970" points="509.0395,-139.8931 519.6344,-139.9005 511.3566,-133.2877 509.0395,-139.8931"/>
</g>
<!-- Node7 -->
<g id="node7" class="node">
<title>Node7</title>
<g id="a_node7"><a xlink:href="$_interpreter_impl_8cpp.html" xlink:title="interpreter/InterpreterImpl.cpp">
<polygon fill="#ffffff" stroke="#000000" points="448.5,-73 448.5,-92 597.5,-92 597.5,-73 448.5,-73"/>
<text text-anchor="middle" x="523" y="-80" font-family="Helvetica,sans-Serif" font-size="10.00" fill="#000000">interpreter/InterpreterImpl.cpp</text>
</a>
</g>
</g>
<!-- Node5&#45;&gt;Node7 -->
<g id="edge6" class="edge">
<title>Node5&#45;&gt;Node7</title>
<path fill="none" stroke="#191970" d="M540.1449,-130.3628C535.6607,-117.8444 529.9941,-102.0252 526.4322,-92.0817"/>
<polygon fill="#191970" stroke="#191970" points="536.8941,-131.6666 543.5614,-139.9005 543.484,-129.306 536.8941,-131.6666"/>
</g>
<!-- Node19&#45;&gt;Node18 -->
<g id="edge20" class="edge">
<title>Node19&#45;&gt;Node18</title>
<path fill="none" stroke="#191970" d="M1352.0656,-135.5722C1324.0895,-122.5555 1283.0634,-103.467 1258.5934,-92.0817"/>
<polygon fill="#191970" stroke="#191970" points="1350.8252,-138.8553 1361.3683,-139.9005 1353.7781,-132.5086 1350.8252,-138.8553"/>
</g>
<!-- Node19&#45;&gt;Node20 -->
<g id="edge21" class="edge">
<title>Node19&#45;&gt;Node20</title>
<path fill="none" stroke="#191970" d="M1382,-129.6079C1382,-117.214 1382,-101.8263 1382,-92.0817"/>
<polygon fill="#191970" stroke="#191970" points="1378.5001,-129.9005 1382,-139.9005 1385.5001,-129.9006 1378.5001,-129.9005"/>
</g>
<!-- Node19&#45;&gt;Node22 -->
<g id="edge23" class="edge">
<title>Node19&#45;&gt;Node22</title>
<path fill="none" stroke="#191970" d="M1413.4167,-135.7424C1443.1489,-122.7224 1487.0066,-103.5167 1513.1195,-92.0817"/>
<polygon fill="#191970" stroke="#191970" points="1411.6774,-132.6831 1403.9212,-139.9005 1414.4854,-139.0952 1411.6774,-132.6831"/>
</g>
<!-- Node19&#45;&gt;Node25 -->
<g id="edge26" class="edge">
<title>Node19&#45;&gt;Node25</title>
<path fill="none" stroke="#191970" d="M1429.032,-137.7287C1435.3836,-136.3522 1441.8344,-135.0626 1448,-134 1590.7813,-109.3932 1628.8715,-120.4996 1772,-98 1782.6422,-96.3271 1794.0548,-94.186 1804.7172,-92.0329"/>
<polygon fill="#191970" stroke="#191970" points="1428.1757,-134.3338 1419.1877,-139.9432 1429.7121,-141.1631 1428.1757,-134.3338"/>
</g>
<!-- Node21 -->
<g id="node21" class="node">
<title>Node21</title>
<g id="a_node21"><a xlink:href="$_chart_to_java_8cpp.html" xlink:title="transform/ChartToJava.cpp">
<polygon fill="#ffffff" stroke="#000000" points="610,-6 610,-25 748,-25 748,-6 610,-6"/>
<text text-anchor="middle" x="679" y="-13" font-family="Helvetica,sans-Serif" font-size="10.00" fill="#000000">transform/ChartToJava.cpp</text>
</a>
</g>
</g>
<!-- Node20&#45;&gt;Node21 -->
<g id="edge22" class="edge">
<title>Node20&#45;&gt;Node21</title>
<path fill="none" stroke="#191970" d="M1331.7727,-70.9578C1324.1707,-69.4659 1316.3982,-68.0833 1309,-67 1106.4946,-37.3479 864.6828,-23.567 748.312,-18.2698"/>
<polygon fill="#191970" stroke="#191970" points="1331.1247,-74.3976 1341.6224,-72.966 1332.5232,-67.5387 1331.1247,-74.3976"/>
</g>
<!-- Node23 -->
<g id="node23" class="node">
<title>Node23</title>
<g id="a_node23"><a xlink:href="$_chart_to_promela_8cpp.html" xlink:title="transform/ChartToPromela.cpp">
<polygon fill="#ffffff" stroke="#000000" points="975,-6 975,-25 1129,-25 1129,-6 975,-6"/>
<text text-anchor="middle" x="1052" y="-13" font-family="Helvetica,sans-Serif" font-size="10.00" fill="#000000">transform/ChartToPromela.cpp</text>
</a>
</g>
</g>
<!-- Node22&#45;&gt;Node23 -->
<g id="edge24" class="edge">
<title>Node22&#45;&gt;Node23</title>
<path fill="none" stroke="#191970" d="M1477.9229,-71.1214C1469.9036,-69.656 1461.7542,-68.2374 1454,-67 1341.4377,-49.0375 1210.3555,-33.1855 1129.2684,-23.9661"/>
<polygon fill="#191970" stroke="#191970" points="1477.4999,-74.6027 1487.9716,-72.9924 1478.7813,-67.721 1477.4999,-74.6027"/>
</g>
<!-- Node22&#45;&gt;Node24 -->
<g id="edge25" class="edge">
<title>Node22&#45;&gt;Node24</title>
<path fill="none" stroke="#191970" d="M1535,-62.7758C1535,-52.4641 1535,-40.0437 1535,-30.5218"/>
<polygon fill="#191970" stroke="#191970" points="1531.5001,-62.9005 1535,-72.9005 1538.5001,-62.9006 1531.5001,-62.9005"/>
</g>
<!-- Node26 -->
<g id="node26" class="node">
<title>Node26</title>
<g id="a_node26"><a xlink:href="$_chart_to_v_h_d_l_8cpp.html" xlink:title="transform/ChartToVHDL.cpp">
<polygon fill="#ffffff" stroke="#000000" points="1252.5,-6 1252.5,-25 1395.5,-25 1395.5,-6 1252.5,-6"/>
<text text-anchor="middle" x="1324" y="-13" font-family="Helvetica,sans-Serif" font-size="10.00" fill="#000000">transform/ChartToVHDL.cpp</text>
</a>
</g>
</g>
<!-- Node25&#45;&gt;Node26 -->
<g id="edge27" class="edge">
<title>Node25&#45;&gt;Node26</title>
<path fill="none" stroke="#191970" d="M1794.8018,-71.0366C1787.1689,-69.5709 1779.3978,-68.1748 1772,-67 1632.8326,-44.8995 1596.9821,-47.1558 1457,-31 1437.1398,-28.7079 1415.6136,-26.2065 1395.782,-23.8952"/>
<polygon fill="#191970" stroke="#191970" points="1794.2253,-74.4902 1804.7135,-72.9908 1795.5794,-67.6224 1794.2253,-74.4902"/>
</g>
<!-- Node27&#45;&gt;Node20 -->
<g id="edge30" class="edge">
<title>Node27&#45;&gt;Node20</title>
<path fill="none" stroke="#191970" d="M1484.515,-130.198C1457.6863,-117.7152 1423.9215,-102.0051 1402.6413,-92.1039"/>
<polygon fill="#191970" stroke="#191970" points="1483.1404,-133.4187 1493.6836,-134.4639 1486.0934,-127.072 1483.1404,-133.4187"/>
</g>
<!-- Node27&#45;&gt;Node22 -->
<g id="edge31" class="edge">
<title>Node27&#45;&gt;Node22</title>
<path fill="none" stroke="#191970" d="M1529.4093,-124.1199C1530.9154,-112.9072 1532.5951,-100.4031 1533.7165,-92.055"/>
<polygon fill="#191970" stroke="#191970" points="1525.9048,-123.9197 1528.0422,-134.2967 1532.8425,-124.8517 1525.9048,-123.9197"/>
</g>
<!-- Node28 -->
<g id="node28" class="node">
<title>Node28</title>
<g id="a_node28"><a xlink:href="$_promela_inlines_8cpp.html" xlink:title="transform/promela/Promela\lInlines.cpp">
<polygon fill="#ffffff" stroke="#000000" points="1625,-67.5 1625,-97.5 1763,-97.5 1763,-67.5 1625,-67.5"/>
<text text-anchor="start" x="1633" y="-85.5" font-family="Helvetica,sans-Serif" font-size="10.00" fill="#000000">transform/promela/Promela</text>
<text text-anchor="middle" x="1694" y="-74.5" font-family="Helvetica,sans-Serif" font-size="10.00" fill="#000000">Inlines.cpp</text>
</a>
</g>
</g>
<!-- Node27&#45;&gt;Node28 -->
<g id="edge32" class="edge">
<title>Node27&#45;&gt;Node28</title>
<path fill="none" stroke="#191970" d="M1573.0714,-130.7275C1599.3069,-120.2645 1631.543,-107.4084 1656.1331,-97.6017"/>
<polygon fill="#191970" stroke="#191970" points="1571.6945,-127.5085 1563.7025,-134.4639 1574.2876,-134.0105 1571.6945,-127.5085"/>
</g>
<!-- Node30&#45;&gt;Node3 -->
<g id="edge38" class="edge">
<title>Node30&#45;&gt;Node3</title>
<path fill="none" stroke="#191970" d="M649.8469,-138.0675C641.5643,-136.5221 633.0695,-135.0947 625,-134 401.589,-103.6924 341.7781,-132.6545 119,-98 109.398,-96.5063 99.1167,-94.2958 89.6657,-92.009"/>
<polygon fill="#191970" stroke="#191970" points="649.3184,-141.5301 659.8017,-139.9966 650.6502,-134.658 649.3184,-141.5301"/>
</g>
<!-- Node30&#45;&gt;Node4 -->
<g id="edge40" class="edge">
<title>Node30&#45;&gt;Node4</title>
<path fill="none" stroke="#191970" d="M648.6639,-138.0689C640.7519,-136.5753 632.6787,-135.1627 625,-134 469.512,-110.4556 428.488,-121.5444 273,-98 262.0792,-96.3463 250.3605,-94.1874 239.4421,-92.0084"/>
<polygon fill="#191970" stroke="#191970" points="648.0738,-141.5196 658.5579,-139.9916 649.4092,-134.6482 648.0738,-141.5196"/>
</g>
<!-- Node30&#45;&gt;Node6 -->
<g id="edge42" class="edge">
<title>Node30&#45;&gt;Node6</title>
<path fill="none" stroke="#191970" d="M647.7165,-138.5058C640.0908,-136.9809 632.35,-135.4433 625,-134 548.9467,-119.0654 460.687,-102.2705 406.5979,-92.0388"/>
<polygon fill="#191970" stroke="#191970" points="647.1393,-141.9596 657.6323,-140.4941 648.5156,-135.0962 647.1393,-141.9596"/>
</g>
<!-- Node30&#45;&gt;Node7 -->
<g id="edge43" class="edge">
<title>Node30&#45;&gt;Node7</title>
<path fill="none" stroke="#191970" d="M666.5971,-136.2487C631.8019,-123.2247 579.5476,-103.6659 548.5988,-92.0817"/>
<polygon fill="#191970" stroke="#191970" points="665.7613,-139.6729 676.3537,-139.9005 668.2152,-133.1171 665.7613,-139.6729"/>
</g>
<!-- Node30&#45;&gt;Node18 -->
<g id="edge44" class="edge">
<title>Node30&#45;&gt;Node18</title>
<path fill="none" stroke="#191970" d="M756.2908,-145.3423C843.3277,-138.2608 1019.3137,-122.2308 1167,-98 1177.0847,-96.3454 1187.8957,-94.1861 1197.9638,-92.0071"/>
<polygon fill="#191970" stroke="#191970" points="755.8119,-141.8694 746.1254,-146.1614 756.3742,-148.8468 755.8119,-141.8694"/>
</g>
<!-- Node30&#45;&gt;Node21 -->
<g id="edge45" class="edge">
<title>Node30&#45;&gt;Node21</title>
<path fill="none" stroke="#191970" d="M678.8403,-133.5058C667.8831,-124.4964 655.9239,-112.2043 650,-98 639.2474,-72.2174 658.9331,-40.8776 670.8569,-25.2885"/>
<polygon fill="#191970" stroke="#191970" points="676.8528,-136.393 686.9074,-139.7328 681.13,-130.8518 676.8528,-136.393"/>
</g>
<!-- Node30&#45;&gt;Node23 -->
<g id="edge46" class="edge">
<title>Node30&#45;&gt;Node23</title>
<path fill="none" stroke="#191970" d="M691.1756,-130.8717C682.0617,-112.4609 672.7388,-84.5724 688,-67 706.5186,-45.6769 873.4369,-29.2205 974.6933,-21.0943"/>
<polygon fill="#191970" stroke="#191970" points="688.127,-132.5931 695.9254,-139.7649 694.3016,-129.2953 688.127,-132.5931"/>
</g>
<!-- Node30&#45;&gt;Node24 -->
<g id="edge48" class="edge">
<title>Node30&#45;&gt;Node24</title>
<path fill="none" stroke="#191970" d="M709.2077,-130.4579C717.788,-110.7466 734.1572,-80.9279 759,-67 821.6098,-31.8983 1332.4918,-37.22 1404,-31 1424.0777,-29.2536 1445.8315,-26.8763 1465.7365,-24.5082"/>
<polygon fill="#191970" stroke="#191970" points="705.8698,-129.3741 705.3323,-139.9553 712.351,-132.0188 705.8698,-129.3741"/>
</g>
<!-- Node30&#45;&gt;Node26 -->
<g id="edge47" class="edge">
<title>Node30&#45;&gt;Node26</title>
<path fill="none" stroke="#191970" d="M701.814,-129.6597C702.8034,-110.457 707.5832,-82.1014 726,-67 727.263,-65.9644 1093.8214,-34.9221 1252.3417,-21.5411"/>
<polygon fill="#191970" stroke="#191970" points="698.3132,-129.6652 701.5951,-139.7388 705.3115,-129.8173 698.3132,-129.6652"/>
</g>
<!-- Node31 -->
<g id="node31" class="node">
<title>Node31</title>
<g id="a_node31"><a xlink:href="$_debug_session_8cpp.html" xlink:title="debug/DebugSession.cpp">
<polygon fill="#ffffff" stroke="#000000" points="768.5,-73 768.5,-92 899.5,-92 899.5,-73 768.5,-73"/>
<text text-anchor="middle" x="834" y="-80" font-family="Helvetica,sans-Serif" font-size="10.00" fill="#000000">debug/DebugSession.cpp</text>
</a>
</g>
</g>
<!-- Node30&#45;&gt;Node31 -->
<g id="edge39" class="edge">
<title>Node30&#45;&gt;Node31</title>
<path fill="none" stroke="#191970" d="M730.1145,-135.2298C755.7404,-122.2227 792.8878,-103.3676 815.1227,-92.0817"/>
<polygon fill="#191970" stroke="#191970" points="728.2453,-132.2534 720.9124,-139.9005 731.4136,-138.4954 728.2453,-132.2534"/>
</g>
<!-- Node32 -->
<g id="node32" class="node">
<title>Node32</title>
<g id="a_node32"><a xlink:href="$_basic_content_executor_8cpp.html" xlink:title="interpreter/BasicContent\lExecutor.cpp">
<polygon fill="#ffffff" stroke="#000000" points="918,-67.5 918,-97.5 1042,-97.5 1042,-67.5 918,-67.5"/>
<text text-anchor="start" x="926" y="-85.5" font-family="Helvetica,sans-Serif" font-size="10.00" fill="#000000">interpreter/BasicContent</text>
<text text-anchor="middle" x="980" y="-74.5" font-family="Helvetica,sans-Serif" font-size="10.00" fill="#000000">Executor.cpp</text>
</a>
</g>
</g>
<!-- Node30&#45;&gt;Node32 -->
<g id="edge41" class="edge">
<title>Node30&#45;&gt;Node32</title>
<path fill="none" stroke="#191970" d="M751.3678,-137.602C797.8203,-126.4066 867.56,-109.5988 917.7956,-97.4917"/>
<polygon fill="#191970" stroke="#191970" points="750.437,-134.226 741.5354,-139.9717 752.0771,-141.0312 750.437,-134.226"/>
</g>
<!-- Node33 -->
<g id="node33" class="node">
<title>Node33</title>
<g id="a_node33"><a xlink:href="$_predicates_8cpp.html" xlink:title="util/Predicates.cpp">
<polygon fill="#ffffff" stroke="#000000" points="1060,-73 1060,-92 1158,-92 1158,-73 1060,-73"/>
<text text-anchor="middle" x="1109" y="-80" font-family="Helvetica,sans-Serif" font-size="10.00" fill="#000000">util/Predicates.cpp</text>
</a>
</g>
</g>
<!-- Node30&#45;&gt;Node33 -->
<g id="edge49" class="edge">
<title>Node30&#45;&gt;Node33</title>
<path fill="none" stroke="#191970" d="M756.2654,-143.4484C825.1872,-135.3152 947.5969,-119.3727 1051,-98 1059.1656,-96.3122 1067.8918,-94.1656 1076.0308,-92.0118"/>
<polygon fill="#191970" stroke="#191970" points="755.6097,-140.0012 746.0839,-144.6389 756.4227,-146.9538 755.6097,-140.0012"/>
</g>
</g>
</svg>
