<?xml version="1.0" encoding="UTF-8" standalone="no"?>
<!DOCTYPE svg PUBLIC "-//W3C//DTD SVG 1.1//EN"
 "http://www.w3.org/Graphics/SVG/1.1/DTD/svg11.dtd">
<!-- Generated by graphviz version 2.40.1 (20161225.0304)
 -->
<!-- Title: util/DOM.h Pages: 1 -->
<svg width="552pt" height="140pt"
 viewBox="0.00 0.00 551.50 140.00" xmlns="http://www.w3.org/2000/svg" xmlns:xlink="http://www.w3.org/1999/xlink">
<g id="graph0" class="graph" transform="scale(1 1) rotate(0) translate(4 136)">
<title>util/DOM.h</title>
<polygon fill="#ffffff" stroke="transparent" points="-4,4 -4,-136 547.5,-136 547.5,4 -4,4"/>
<!-- Node1 -->
<g id="node1" class="node">
<title>Node1</title>
<polygon fill="#bfbfbf" stroke="#000000" points="128,-112.5 128,-131.5 192,-131.5 192,-112.5 128,-112.5"/>
<text text-anchor="middle" x="160" y="-119.5" font-family="Helvetica,sans-Serif" font-size="10.00" fill="#000000">util/DOM.h</text>
</g>
<!-- Node2 -->
<g id="node2" class="node">
<title>Node2</title>
<polygon fill="#ffffff" stroke="#bfbfbf" points="0,-56.5 0,-75.5 30,-75.5 30,-56.5 0,-56.5"/>
<text text-anchor="middle" x="15" y="-63.5" font-family="Helvetica,sans-Serif" font-size="10.00" fill="#000000">set</text>
</g>
<!-- Node1&#45;&gt;Node2 -->
<g id="edge1" class="edge">
<title>Node1&#45;&gt;Node2</title>
<path fill="none" stroke="#191970" d="M133.9445,-112.365C111.2969,-103.9313 77.3971,-91.1674 39.831,-76.2564"/>
<polygon fill="#191970" stroke="#191970" points="40.7911,-72.8714 30.2059,-72.4205 38.1996,-79.374 40.7911,-72.8714"/>
</g>
<!-- Node3 -->
<g id="node3" class="node">
<title>Node3</title>
<polygon fill="#ffffff" stroke="#bfbfbf" points="48.5,-56.5 48.5,-75.5 77.5,-75.5 77.5,-56.5 48.5,-56.5"/>
<text text-anchor="middle" x="63" y="-63.5" font-family="Helvetica,sans-Serif" font-size="10.00" fill="#000000">list</text>
</g>
<!-- Node1&#45;&gt;Node3 -->
<g id="edge2" class="edge">
<title>Node1&#45;&gt;Node3</title>
<path fill="none" stroke="#191970" d="M143.1039,-112.2455C127.5324,-103.2558 104.2627,-89.8218 86.8099,-79.7459"/>
<polygon fill="#191970" stroke="#191970" points="88.2085,-76.512 77.7982,-74.5433 84.7086,-82.5743 88.2085,-76.512"/>
</g>
<!-- Node4 -->
<g id="node4" class="node">
<title>Node4</title>
<polygon fill="#ffffff" stroke="#bfbfbf" points="95.5,-56.5 95.5,-75.5 136.5,-75.5 136.5,-56.5 95.5,-56.5"/>
<text text-anchor="middle" x="116" y="-63.5" font-family="Helvetica,sans-Serif" font-size="10.00" fill="#000000">string</text>
</g>
<!-- Node1&#45;&gt;Node4 -->
<g id="edge3" class="edge">
<title>Node1&#45;&gt;Node4</title>
<path fill="none" stroke="#191970" d="M152.3358,-112.2455C146.1527,-104.3761 137.2937,-93.101 129.8711,-83.6542"/>
<polygon fill="#191970" stroke="#191970" points="132.5068,-81.3435 123.5764,-75.6427 127.0025,-85.6683 132.5068,-81.3435"/>
</g>
<!-- Node5 -->
<g id="node5" class="node">
<title>Node5</title>
<g id="a_node5"><a xlink:href="$_common_8h.html" xlink:title="uscxml/Common.h">
<polygon fill="#ffffff" stroke="#000000" points="154.5,-56.5 154.5,-75.5 253.5,-75.5 253.5,-56.5 154.5,-56.5"/>
<text text-anchor="middle" x="204" y="-63.5" font-family="Helvetica,sans-Serif" font-size="10.00" fill="#000000">uscxml/Common.h</text>
</a>
</g>
</g>
<!-- Node1&#45;&gt;Node5 -->
<g id="edge4" class="edge">
<title>Node1&#45;&gt;Node5</title>
<path fill="none" stroke="#191970" d="M167.6642,-112.2455C173.8473,-104.3761 182.7063,-93.101 190.1289,-83.6542"/>
<polygon fill="#191970" stroke="#191970" points="192.9975,-85.6683 196.4236,-75.6427 187.4932,-81.3435 192.9975,-85.6683"/>
</g>
<!-- Node8 -->
<g id="node8" class="node">
<title>Node8</title>
<polygon fill="#ffffff" stroke="#bfbfbf" points="271.5,-56.5 271.5,-75.5 406.5,-75.5 406.5,-56.5 271.5,-56.5"/>
<text text-anchor="middle" x="339" y="-63.5" font-family="Helvetica,sans-Serif" font-size="10.00" fill="#000000">xercesc/util/XMLString.hpp</text>
</g>
<!-- Node1&#45;&gt;Node8 -->
<g id="edge7" class="edge">
<title>Node1&#45;&gt;Node8</title>
<path fill="none" stroke="#191970" d="M190.7712,-112.3733C220.665,-103.021 266.2093,-88.7725 298.9217,-78.5385"/>
<polygon fill="#191970" stroke="#191970" points="300.1315,-81.8273 308.6303,-75.5011 298.0414,-75.1466 300.1315,-81.8273"/>
</g>
<!-- Node9 -->
<g id="node9" class="node">
<title>Node9</title>
<polygon fill="#ffffff" stroke="#bfbfbf" points="424.5,-56.5 424.5,-75.5 543.5,-75.5 543.5,-56.5 424.5,-56.5"/>
<text text-anchor="middle" x="484" y="-63.5" font-family="Helvetica,sans-Serif" font-size="10.00" fill="#000000">xercesc/dom/DOM.hpp</text>
</g>
<!-- Node1&#45;&gt;Node9 -->
<g id="edge8" class="edge">
<title>Node1&#45;&gt;Node9</title>
<path fill="none" stroke="#191970" d="M192.2509,-116.4258C244.7761,-107.3473 349.8183,-89.1919 418.4819,-77.3241"/>
<polygon fill="#191970" stroke="#191970" points="419.4989,-80.7003 428.7567,-75.5482 418.3067,-73.8026 419.4989,-80.7003"/>
</g>
<!-- Node6 -->
<g id="node6" class="node">
<title>Node6</title>
<polygon fill="#ffffff" stroke="#bfbfbf" points="130,-.5 130,-19.5 202,-19.5 202,-.5 130,-.5"/>
<text text-anchor="middle" x="166" y="-7.5" font-family="Helvetica,sans-Serif" font-size="10.00" fill="#000000">sys/socket.h</text>
</g>
<!-- Node5&#45;&gt;Node6 -->
<g id="edge5" class="edge">
<title>Node5&#45;&gt;Node6</title>
<path fill="none" stroke="#191970" d="M197.3809,-56.2455C192.0954,-48.4564 184.5459,-37.3308 178.1762,-27.9439"/>
<polygon fill="#191970" stroke="#191970" points="181.0545,-25.9522 172.5432,-19.6427 175.2621,-29.8827 181.0545,-25.9522"/>
</g>
<!-- Node7 -->
<g id="node7" class="node">
<title>Node7</title>
<polygon fill="#ffffff" stroke="#bfbfbf" points="220,-.5 220,-19.5 264,-19.5 264,-.5 220,-.5"/>
<text text-anchor="middle" x="242" y="-7.5" font-family="Helvetica,sans-Serif" font-size="10.00" fill="#000000">cmath</text>
</g>
<!-- Node5&#45;&gt;Node7 -->
<g id="edge6" class="edge">
<title>Node5&#45;&gt;Node7</title>
<path fill="none" stroke="#191970" d="M210.6191,-56.2455C215.9046,-48.4564 223.4541,-37.3308 229.8238,-27.9439"/>
<polygon fill="#191970" stroke="#191970" points="232.7379,-29.8827 235.4568,-19.6427 226.9455,-25.9522 232.7379,-29.8827"/>
</g>
</g>
</svg>
