<?xml version="1.0" encoding="UTF-8" standalone="no"?>
<!DOCTYPE svg PUBLIC "-//W3C//DTD SVG 1.1//EN"
 "http://www.w3.org/Graphics/SVG/1.1/DTD/svg11.dtd">
<!-- Generated by graphviz version 2.38.0 (20140413.2041)
 -->
<!-- Title: plugins/DataModel.h Pages: 1 -->
<!--zoomable 464 -->
<svg id="main" version="1.1" xmlns="http://www.w3.org/2000/svg" xmlns:xlink="http://www.w3.org/1999/xlink" xml:space="preserve" onload="init(evt)">
<style type="text/css"><![CDATA[
.edge:hover path { stroke: red; }
.edge:hover polygon { stroke: red; fill: red; }
]]></style>
<script type="text/javascript"><![CDATA[
var edges = document.getElementsByTagName('g');
if (edges && edges.length) {
  for (var i=0;i<edges.length;i++) {
    if (edges[i].id.substr(0,4)=='edge') {
      edges[i].setAttribute('class','edge');
    }
  }
}
]]></script>
        <defs>
                <circle id="rim" cx="0" cy="0" r="7"/>
                <circle id="rim2" cx="0" cy="0" r="3.5"/>
                <g id="zoomPlus">
                        <use xlink:href="#rim" fill="#404040">
                                <set attributeName="fill" to="#808080" begin="zoomplus.mouseover" end="zoomplus.mouseout"/>
                        </use>
                        <path d="M-4,0h8M0,-4v8" fill="none" stroke="white" stroke-width="1.5" pointer-events="none"/>
                </g>
                <g id="zoomMin">
                        <use xlink:href="#rim" fill="#404040">
                                <set attributeName="fill" to="#808080" begin="zoomminus.mouseover" end="zoomminus.mouseout"/>
                        </use>
                        <path d="M-4,0h8" fill="none" stroke="white" stroke-width="1.5" pointer-events="none"/>
                </g>
                <g id="dirArrow">
                        <path fill="none" stroke="white" stroke-width="1.5" d="M0,-3.0v7 M-2.5,-0.5L0,-3.0L2.5,-0.5"/>
                </g>
               <g id="resetDef">
                       <use xlink:href="#rim2" fill="#404040">
                               <set attributeName="fill" to="#808080" begin="reset.mouseover" end="reset.mouseout"/>
                       </use>
               </g>
        </defs>

<script type="text/javascript">
var viewWidth = 2006;
var viewHeight = 464;
var sectionId = 'dynsection-1';
</script>
<script xlink:href="svgpan.js"/>
<svg id="graph" class="graph">
<g id="viewport">
<title>plugins/DataModel.h</title>
<polygon fill="white" stroke="none" points="-4,4 -4,-460 2002.28,-460 2002.28,4 -4,4"/>
<!-- Node1 -->
<g id="node1" class="node"><title>Node1</title>
<polygon fill="#bfbfbf" stroke="black" points="982.276,-436.5 982.276,-455.5 1090.28,-455.5 1090.28,-436.5 982.276,-436.5"/>
<text text-anchor="middle" x="1036.28" y="-443.5" font-family="Helvetica,sans-Serif" font-size="10.00">plugins/DataModel.h</text>
</g>
<!-- Node2 -->
<g id="node2" class="node"><title>Node2</title>
<g id="a_node2"><a xlink:href="_interpreter_8h.html" target="_top" xlink:title="Interpreter.h">
<polygon fill="white" stroke="black" points="944.776,-380.5 944.776,-399.5 1015.78,-399.5 1015.78,-380.5 944.776,-380.5"/>
<text text-anchor="middle" x="980.276" y="-387.5" font-family="Helvetica,sans-Serif" font-size="10.00">Interpreter.h</text>
</a>
</g>
</g>
<!-- Node1&#45;&gt;Node2 -->
<g id="edge1" class="edge"><title>Node1&#45;&gt;Node2</title>
<path fill="none" stroke="midnightblue" d="M1019.95,-429.253C1010.01,-419.673 997.689,-407.791 989.437,-399.834"/>
<polygon fill="midnightblue" stroke="midnightblue" points="1017.65,-431.902 1027.28,-436.324 1022.51,-426.863 1017.65,-431.902"/>
</g>
<!-- Node45 -->
<g id="node45" class="node"><title>Node45</title>
<g id="a_node45"><a xlink:href="_data_model_8cpp.html" target="_top" xlink:title="plugins/DataModel.cpp">
<polygon fill="white" stroke="black" points="1034.28,-380.5 1034.28,-399.5 1152.28,-399.5 1152.28,-380.5 1034.28,-380.5"/>
<text text-anchor="middle" x="1093.28" y="-387.5" font-family="Helvetica,sans-Serif" font-size="10.00">plugins/DataModel.cpp</text>
</a>
</g>
</g>
<!-- Node1&#45;&gt;Node45 -->
<g id="edge62" class="edge"><title>Node1&#45;&gt;Node45</title>
<path fill="none" stroke="midnightblue" d="M1052.9,-429.253C1063.01,-419.673 1075.55,-407.791 1083.95,-399.834"/>
<polygon fill="midnightblue" stroke="midnightblue" points="1050.29,-426.906 1045.43,-436.324 1055.1,-431.987 1050.29,-426.906"/>
</g>
<!-- Node3 -->
<g id="node3" class="node"><title>Node3</title>
<g id="a_node3"><a xlink:href="_breakpoint_8cpp.html" target="_top" xlink:title="debug/Breakpoint.cpp">
<polygon fill="white" stroke="black" points="8.27621,-201.5 8.27621,-220.5 122.276,-220.5 122.276,-201.5 8.27621,-201.5"/>
<text text-anchor="middle" x="65.2762" y="-208.5" font-family="Helvetica,sans-Serif" font-size="10.00">debug/Breakpoint.cpp</text>
</a>
</g>
</g>
<!-- Node2&#45;&gt;Node3 -->
<g id="edge2" class="edge"><title>Node2&#45;&gt;Node3</title>
<path fill="none" stroke="midnightblue" d="M934.54,-389.206C796.785,-389.348 387.615,-386.114 262.276,-344 180.323,-316.463 100.261,-245.28 74.1341,-220.587"/>
<polygon fill="midnightblue" stroke="midnightblue" points="934.75,-392.706 944.744,-389.189 934.738,-385.706 934.75,-392.706"/>
</g>
<!-- Node4 -->
<g id="node4" class="node"><title>Node4</title>
<g id="a_node4"><a xlink:href="_breakpoint_8h.html" target="_top" xlink:title="debug/Breakpoint.h">
<polygon fill="white" stroke="black" points="170.776,-257.5 170.776,-276.5 273.776,-276.5 273.776,-257.5 170.776,-257.5"/>
<text text-anchor="middle" x="222.276" y="-264.5" font-family="Helvetica,sans-Serif" font-size="10.00">debug/Breakpoint.h</text>
</a>
</g>
</g>
<!-- Node2&#45;&gt;Node4 -->
<g id="edge3" class="edge"><title>Node2&#45;&gt;Node4</title>
<path fill="none" stroke="midnightblue" d="M934.236,-389.667C802.041,-390.995 423.541,-390.52 310.276,-344 274.05,-329.121 242.193,-293.148 228.886,-276.596"/>
<polygon fill="midnightblue" stroke="midnightblue" points="934.463,-393.165 944.424,-389.556 934.386,-386.165 934.463,-393.165"/>
</g>
<!-- Node10 -->
<g id="node10" class="node"><title>Node10</title>
<g id="a_node10"><a xlink:href="_debug_session_8h.html" target="_top" xlink:title="debug/DebugSession.h">
<polygon fill="white" stroke="black" points="140.276,-201.5 140.276,-220.5 260.276,-220.5 260.276,-201.5 140.276,-201.5"/>
<text text-anchor="middle" x="200.276" y="-208.5" font-family="Helvetica,sans-Serif" font-size="10.00">debug/DebugSession.h</text>
</a>
</g>
</g>
<!-- Node2&#45;&gt;Node10 -->
<g id="edge14" class="edge"><title>Node2&#45;&gt;Node10</title>
<path fill="none" stroke="midnightblue" d="M934.323,-388.924C813.753,-388.183 490.849,-382.548 392.276,-344 334.226,-321.299 334.224,-291.448 282.276,-257 260.893,-242.82 234.669,-229.002 217.725,-220.501"/>
<polygon fill="midnightblue" stroke="midnightblue" points="934.657,-392.426 944.676,-388.979 934.694,-385.426 934.657,-392.426"/>
</g>
<!-- Node11 -->
<g id="node11" class="node"><title>Node11</title>
<g id="a_node11"><a xlink:href="_basic_content_executor_8cpp.html" target="_top" xlink:title="interpreter/BasicContent\lExecutor.cpp">
<polygon fill="white" stroke="black" points="1132.28,-313.5 1132.28,-343.5 1256.28,-343.5 1256.28,-313.5 1132.28,-313.5"/>
<text text-anchor="start" x="1140.28" y="-331.5" font-family="Helvetica,sans-Serif" font-size="10.00">interpreter/BasicContent</text>
<text text-anchor="middle" x="1194.28" y="-320.5" font-family="Helvetica,sans-Serif" font-size="10.00">Executor.cpp</text>
</a>
</g>
</g>
<!-- Node2&#45;&gt;Node11 -->
<g id="edge15" class="edge"><title>Node2&#45;&gt;Node11</title>
<path fill="none" stroke="midnightblue" d="M1020.8,-377.734C1055.72,-368.023 1106.3,-353.961 1143.84,-343.523"/>
<polygon fill="midnightblue" stroke="midnightblue" points="1019.63,-374.424 1010.94,-380.475 1021.51,-381.168 1019.63,-374.424"/>
</g>
<!-- Node12 -->
<g id="node12" class="node"><title>Node12</title>
<g id="a_node12"><a xlink:href="_micro_step_impl_8h.html" target="_top" xlink:title="interpreter/MicroStepImpl.h">
<polygon fill="white" stroke="black" points="826.776,-319 826.776,-338 963.776,-338 963.776,-319 826.776,-319"/>
<text text-anchor="middle" x="895.276" y="-326" font-family="Helvetica,sans-Serif" font-size="10.00">interpreter/MicroStepImpl.h</text>
</a>
</g>
</g>
<!-- Node2&#45;&gt;Node12 -->
<g id="edge16" class="edge"><title>Node2&#45;&gt;Node12</title>
<path fill="none" stroke="midnightblue" d="M959.723,-374.613C943.375,-363.169 921.056,-347.546 907.432,-338.009"/>
<polygon fill="midnightblue" stroke="midnightblue" points="957.898,-377.608 968.098,-380.475 961.913,-371.873 957.898,-377.608"/>
</g>
<!-- Node15 -->
<g id="node15" class="node"><title>Node15</title>
<g id="a_node15"><a xlink:href="_interpreter_impl_8cpp.html" target="_top" xlink:title="interpreter/InterpreterImpl.cpp">
<polygon fill="white" stroke="black" points="443.776,-140 443.776,-159 592.776,-159 592.776,-140 443.776,-140"/>
<text text-anchor="middle" x="518.276" y="-147" font-family="Helvetica,sans-Serif" font-size="10.00">interpreter/InterpreterImpl.cpp</text>
</a>
</g>
</g>
<!-- Node2&#45;&gt;Node15 -->
<g id="edge57" class="edge"><title>Node2&#45;&gt;Node15</title>
<path fill="none" stroke="midnightblue" d="M934.607,-385.247C821.726,-375.031 533.96,-342.964 468.276,-277 444.147,-252.768 441.598,-231.886 456.276,-201 465.393,-181.816 485.758,-167.524 500.67,-159.13"/>
<polygon fill="midnightblue" stroke="midnightblue" points="934.385,-388.741 944.656,-386.14 935.005,-381.768 934.385,-388.741"/>
</g>
<!-- Node18 -->
<g id="node18" class="node"><title>Node18</title>
<g id="a_node18"><a xlink:href="_interpreter_8cpp.html" target="_top" xlink:title="Interpreter.cpp">
<polygon fill="white" stroke="black" points="1229.28,-201.5 1229.28,-220.5 1311.28,-220.5 1311.28,-201.5 1229.28,-201.5"/>
<text text-anchor="middle" x="1270.28" y="-208.5" font-family="Helvetica,sans-Serif" font-size="10.00">Interpreter.cpp</text>
</a>
</g>
</g>
<!-- Node2&#45;&gt;Node18 -->
<g id="edge58" class="edge"><title>Node2&#45;&gt;Node18</title>
<path fill="none" stroke="midnightblue" d="M989.894,-371.434C1006.48,-342.851 1043.27,-286.507 1090.28,-257 1113.19,-242.615 1183.55,-227.731 1229.21,-219.197"/>
<polygon fill="midnightblue" stroke="midnightblue" points="986.758,-369.869 984.885,-380.297 992.852,-373.314 986.758,-369.869"/>
</g>
<!-- Node31 -->
<g id="node31" class="node"><title>Node31</title>
<g id="a_node31"><a xlink:href="_transformer_8h.html" target="_top" xlink:title="transform/Transformer.h">
<polygon fill="white" stroke="black" points="1572.28,-201.5 1572.28,-220.5 1696.28,-220.5 1696.28,-201.5 1572.28,-201.5"/>
<text text-anchor="middle" x="1634.28" y="-208.5" font-family="Helvetica,sans-Serif" font-size="10.00">transform/Transformer.h</text>
</a>
</g>
</g>
<!-- Node2&#45;&gt;Node31 -->
<g id="edge60" class="edge"><title>Node2&#45;&gt;Node31</title>
<path fill="none" stroke="midnightblue" d="M1002.19,-374.714C1029.48,-357.563 1078.02,-329.102 1123.28,-313 1279.62,-257.376 1474.38,-229.601 1572.15,-218.33"/>
<polygon fill="midnightblue" stroke="midnightblue" points="1000.02,-371.947 993.467,-380.271 1003.78,-377.851 1000.02,-371.947"/>
</g>
<!-- Node43 -->
<g id="node43" class="node"><title>Node43</title>
<g id="a_node43"><a xlink:href="_factory_8cpp.html" target="_top" xlink:title="plugins/Factory.cpp">
<polygon fill="white" stroke="black" points="1274.78,-319 1274.78,-338 1377.78,-338 1377.78,-319 1274.78,-319"/>
<text text-anchor="middle" x="1326.28" y="-326" font-family="Helvetica,sans-Serif" font-size="10.00">plugins/Factory.cpp</text>
</a>
</g>
</g>
<!-- Node2&#45;&gt;Node43 -->
<g id="edge59" class="edge"><title>Node2&#45;&gt;Node43</title>
<path fill="none" stroke="midnightblue" d="M1026.03,-379.95C1133.22,-361.578 1162.48,-363.89 1265.28,-344 1274.15,-342.284 1283.68,-340.156 1292.51,-338.064"/>
<polygon fill="midnightblue" stroke="midnightblue" points="1025.36,-376.513 1016.11,-381.671 1026.56,-383.41 1025.36,-376.513"/>
</g>
<!-- Node44 -->
<g id="node44" class="node"><title>Node44</title>
<g id="a_node44"><a xlink:href="uscxml_8h.html" target="_top" xlink:title="uscxml.h">
<polygon fill="white" stroke="black" points="1396.28,-319 1396.28,-338 1452.28,-338 1452.28,-319 1396.28,-319"/>
<text text-anchor="middle" x="1424.28" y="-326" font-family="Helvetica,sans-Serif" font-size="10.00">uscxml.h</text>
</a>
</g>
</g>
<!-- Node2&#45;&gt;Node44 -->
<g id="edge61" class="edge"><title>Node2&#45;&gt;Node44</title>
<path fill="none" stroke="midnightblue" d="M1026.33,-380.01C1187.07,-357.146 1233.31,-381.076 1387.28,-344 1393.31,-342.546 1399.68,-340.323 1405.39,-338.05"/>
<polygon fill="midnightblue" stroke="midnightblue" points="1025.47,-376.599 1016.08,-381.509 1026.48,-383.525 1025.47,-376.599"/>
</g>
<!-- Node4&#45;&gt;Node3 -->
<g id="edge4" class="edge"><title>Node4&#45;&gt;Node3</title>
<path fill="none" stroke="midnightblue" d="M187.888,-254.172C158.325,-244.004 116.403,-229.585 90.0369,-220.516"/>
<polygon fill="midnightblue" stroke="midnightblue" points="186.804,-257.501 197.399,-257.444 189.081,-250.881 186.804,-257.501"/>
</g>
<!-- Node5 -->
<g id="node5" class="node"><title>Node5</title>
<g id="a_node5"><a xlink:href="_debugger_8h.html" target="_top" xlink:title="debug/Debugger.h">
<polygon fill="white" stroke="black" points="278.776,-201.5 278.776,-220.5 377.776,-220.5 377.776,-201.5 278.776,-201.5"/>
<text text-anchor="middle" x="328.276" y="-208.5" font-family="Helvetica,sans-Serif" font-size="10.00">debug/Debugger.h</text>
</a>
</g>
</g>
<!-- Node4&#45;&gt;Node5 -->
<g id="edge5" class="edge"><title>Node4&#45;&gt;Node5</title>
<path fill="none" stroke="midnightblue" d="M248.332,-252.726C267.96,-242.727 294.304,-229.307 311.288,-220.655"/>
<polygon fill="midnightblue" stroke="midnightblue" points="246.629,-249.666 239.307,-257.324 249.806,-255.903 246.629,-249.666"/>
</g>
<!-- Node4&#45;&gt;Node10 -->
<g id="edge10" class="edge"><title>Node4&#45;&gt;Node10</title>
<path fill="none" stroke="midnightblue" d="M214.816,-247.69C211.109,-238.589 206.8,-228.014 203.841,-220.751"/>
<polygon fill="midnightblue" stroke="midnightblue" points="211.629,-249.143 218.643,-257.083 218.112,-246.502 211.629,-249.143"/>
</g>
<!-- Node6 -->
<g id="node6" class="node"><title>Node6</title>
<g id="a_node6"><a xlink:href="_debugger_8cpp.html" target="_top" xlink:title="debug/Debugger.cpp">
<polygon fill="white" stroke="black" points="17.2762,-140 17.2762,-159 127.276,-159 127.276,-140 17.2762,-140"/>
<text text-anchor="middle" x="72.2762" y="-147" font-family="Helvetica,sans-Serif" font-size="10.00">debug/Debugger.cpp</text>
</a>
</g>
</g>
<!-- Node5&#45;&gt;Node6 -->
<g id="edge6" class="edge"><title>Node5&#45;&gt;Node6</title>
<path fill="none" stroke="midnightblue" d="M281.749,-199.186C232.074,-187.641 154.384,-169.584 108.887,-159.009"/>
<polygon fill="midnightblue" stroke="midnightblue" points="281.065,-202.62 291.598,-201.475 282.65,-195.802 281.065,-202.62"/>
</g>
<!-- Node7 -->
<g id="node7" class="node"><title>Node7</title>
<g id="a_node7"><a xlink:href="_debugger_servlet_8h.html" target="_top" xlink:title="debug/DebuggerServlet.h">
<polygon fill="white" stroke="black" points="295.276,-140 295.276,-159 425.276,-159 425.276,-140 295.276,-140"/>
<text text-anchor="middle" x="360.276" y="-147" font-family="Helvetica,sans-Serif" font-size="10.00">debug/DebuggerServlet.h</text>
</a>
</g>
</g>
<!-- Node5&#45;&gt;Node7 -->
<g id="edge7" class="edge"><title>Node5&#45;&gt;Node7</title>
<path fill="none" stroke="midnightblue" d="M337.777,-192.335C343.696,-181.328 351.046,-167.663 355.7,-159.009"/>
<polygon fill="midnightblue" stroke="midnightblue" points="334.515,-191.01 332.861,-201.475 340.68,-194.326 334.515,-191.01"/>
</g>
<!-- Node9 -->
<g id="node9" class="node"><title>Node9</title>
<g id="a_node9"><a xlink:href="_debug_session_8cpp.html" target="_top" xlink:title="debug/DebugSession.cpp">
<polygon fill="white" stroke="black" points="145.776,-140 145.776,-159 276.776,-159 276.776,-140 145.776,-140"/>
<text text-anchor="middle" x="211.276" y="-147" font-family="Helvetica,sans-Serif" font-size="10.00">debug/DebugSession.cpp</text>
</a>
</g>
</g>
<!-- Node5&#45;&gt;Node9 -->
<g id="edge9" class="edge"><title>Node5&#45;&gt;Node9</title>
<path fill="none" stroke="midnightblue" d="M302.451,-196.867C279.775,-185.335 247.456,-168.899 228.008,-159.009"/>
<polygon fill="midnightblue" stroke="midnightblue" points="301.013,-200.062 311.513,-201.475 304.186,-193.822 301.013,-200.062"/>
</g>
<!-- Node8 -->
<g id="node8" class="node"><title>Node8</title>
<g id="a_node8"><a xlink:href="_debugger_servlet_8cpp.html" target="_top" xlink:title="debug/DebuggerServlet.cpp">
<polygon fill="white" stroke="black" points="104.776,-73 104.776,-92 245.776,-92 245.776,-73 104.776,-73"/>
<text text-anchor="middle" x="175.276" y="-80" font-family="Helvetica,sans-Serif" font-size="10.00">debug/DebuggerServlet.cpp</text>
</a>
</g>
</g>
<!-- Node7&#45;&gt;Node8 -->
<g id="edge8" class="edge"><title>Node7&#45;&gt;Node8</title>
<path fill="none" stroke="midnightblue" d="M325.941,-136.436C289.241,-123.542 231.984,-103.424 199.65,-92.0637"/>
<polygon fill="midnightblue" stroke="midnightblue" points="325.115,-139.856 335.71,-139.869 327.435,-133.251 325.115,-139.856"/>
</g>
<!-- Node10&#45;&gt;Node6 -->
<g id="edge11" class="edge"><title>Node10&#45;&gt;Node6</title>
<path fill="none" stroke="midnightblue" d="M172.685,-197.174C147.847,-185.629 112.048,-168.987 90.5815,-159.009"/>
<polygon fill="midnightblue" stroke="midnightblue" points="171.393,-200.434 181.937,-201.475 174.344,-194.086 171.393,-200.434"/>
</g>
<!-- Node10&#45;&gt;Node8 -->
<g id="edge12" class="edge"><title>Node10&#45;&gt;Node8</title>
<path fill="none" stroke="midnightblue" d="M139.498,-199.633C86.4269,-189.962 16.5931,-175.492 8.27621,-165 -23.9901,-124.297 50.3809,-102.556 110.022,-92.0246"/>
<polygon fill="midnightblue" stroke="midnightblue" points="139.067,-203.111 149.529,-201.44 140.308,-196.222 139.067,-203.111"/>
</g>
<!-- Node10&#45;&gt;Node9 -->
<g id="edge13" class="edge"><title>Node10&#45;&gt;Node9</title>
<path fill="none" stroke="midnightblue" d="M203.73,-191.317C205.731,-180.496 208.152,-167.398 209.703,-159.009"/>
<polygon fill="midnightblue" stroke="midnightblue" points="200.229,-191.005 201.852,-201.475 207.112,-192.278 200.229,-191.005"/>
</g>
<!-- Node13 -->
<g id="node13" class="node"><title>Node13</title>
<g id="a_node13"><a xlink:href="_fast_micro_step_8h.html" target="_top" xlink:title="interpreter/FastMicroStep.h">
<polygon fill="white" stroke="black" points="477.276,-257.5 477.276,-276.5 615.276,-276.5 615.276,-257.5 477.276,-257.5"/>
<text text-anchor="middle" x="546.276" y="-264.5" font-family="Helvetica,sans-Serif" font-size="10.00">interpreter/FastMicroStep.h</text>
</a>
</g>
</g>
<!-- Node12&#45;&gt;Node13 -->
<g id="edge17" class="edge"><title>Node12&#45;&gt;Node13</title>
<path fill="none" stroke="midnightblue" d="M835.208,-317.259C767.676,-305.746 659.248,-287.26 596.187,-276.509"/>
<polygon fill="midnightblue" stroke="midnightblue" points="834.827,-320.745 845.273,-318.975 836.003,-313.844 834.827,-320.745"/>
</g>
<!-- Node16 -->
<g id="node16" class="node"><title>Node16</title>
<g id="a_node16"><a xlink:href="_interpreter_impl_8h.html" target="_top" xlink:title="interpreter/InterpreterImpl.h">
<polygon fill="white" stroke="black" points="752.276,-257.5 752.276,-276.5 890.276,-276.5 890.276,-257.5 752.276,-257.5"/>
<text text-anchor="middle" x="821.276" y="-264.5" font-family="Helvetica,sans-Serif" font-size="10.00">interpreter/InterpreterImpl.h</text>
</a>
</g>
</g>
<!-- Node12&#45;&gt;Node16 -->
<g id="edge20" class="edge"><title>Node12&#45;&gt;Node16</title>
<path fill="none" stroke="midnightblue" d="M876.587,-312.473C862.433,-301.093 843.5,-285.869 831.859,-276.509"/>
<polygon fill="midnightblue" stroke="midnightblue" points="874.687,-315.437 884.674,-318.975 879.074,-309.981 874.687,-315.437"/>
</g>
<!-- Node42 -->
<g id="node42" class="node"><title>Node42</title>
<g id="a_node42"><a xlink:href="_micro_step_8cpp.html" target="_top" xlink:title="interpreter/MicroStep.cpp">
<polygon fill="white" stroke="black" points="908.776,-257.5 908.776,-276.5 1037.78,-276.5 1037.78,-257.5 908.776,-257.5"/>
<text text-anchor="middle" x="973.276" y="-264.5" font-family="Helvetica,sans-Serif" font-size="10.00">interpreter/MicroStep.cpp</text>
</a>
</g>
</g>
<!-- Node12&#45;&gt;Node42 -->
<g id="edge56" class="edge"><title>Node12&#45;&gt;Node42</title>
<path fill="none" stroke="midnightblue" d="M914.555,-312.794C929.517,-301.38 949.735,-285.958 962.121,-276.509"/>
<polygon fill="midnightblue" stroke="midnightblue" points="912.28,-310.127 906.452,-318.975 916.525,-315.693 912.28,-310.127"/>
</g>
<!-- Node14 -->
<g id="node14" class="node"><title>Node14</title>
<g id="a_node14"><a xlink:href="_fast_micro_step_8cpp.html" target="_top" xlink:title="interpreter/FastMicroStep.cpp">
<polygon fill="white" stroke="black" points="472.276,-201.5 472.276,-220.5 620.276,-220.5 620.276,-201.5 472.276,-201.5"/>
<text text-anchor="middle" x="546.276" y="-208.5" font-family="Helvetica,sans-Serif" font-size="10.00">interpreter/FastMicroStep.cpp</text>
</a>
</g>
</g>
<!-- Node13&#45;&gt;Node14 -->
<g id="edge18" class="edge"><title>Node13&#45;&gt;Node14</title>
<path fill="none" stroke="midnightblue" d="M546.276,-246.805C546.276,-237.91 546.276,-227.78 546.276,-220.751"/>
<polygon fill="midnightblue" stroke="midnightblue" points="542.776,-247.083 546.276,-257.083 549.776,-247.083 542.776,-247.083"/>
</g>
<!-- Node13&#45;&gt;Node15 -->
<g id="edge19" class="edge"><title>Node13&#45;&gt;Node15</title>
<path fill="none" stroke="midnightblue" d="M504.42,-253.614C488.665,-246.69 472.373,-236.279 463.276,-221 448.982,-196.99 481.98,-171.89 502.833,-159.103"/>
<polygon fill="midnightblue" stroke="midnightblue" points="503.507,-257.019 514.092,-257.488 506.11,-250.521 503.507,-257.019"/>
</g>
<!-- Node16&#45;&gt;Node3 -->
<g id="edge21" class="edge"><title>Node16&#45;&gt;Node3</title>
<path fill="none" stroke="midnightblue" d="M741.955,-262.645C613.468,-256.802 351.942,-243.213 131.276,-221 128.4,-220.71 125.455,-220.392 122.484,-220.052"/>
<polygon fill="midnightblue" stroke="midnightblue" points="741.95,-266.148 752.098,-263.102 742.266,-259.155 741.95,-266.148"/>
</g>
<!-- Node16&#45;&gt;Node5 -->
<g id="edge22" class="edge"><title>Node16&#45;&gt;Node5</title>
<path fill="none" stroke="midnightblue" d="M742.203,-257.339C639.545,-246.094 463.429,-226.804 377.851,-217.43"/>
<polygon fill="midnightblue" stroke="midnightblue" points="741.886,-260.825 752.208,-258.435 742.648,-253.867 741.886,-260.825"/>
</g>
<!-- Node16&#45;&gt;Node15 -->
<g id="edge24" class="edge"><title>Node16&#45;&gt;Node15</title>
<path fill="none" stroke="midnightblue" d="M815.325,-247.517C809.539,-232.596 799.256,-212.289 783.276,-201 778.823,-197.854 640.582,-172.556 565.581,-159.003"/>
<polygon fill="midnightblue" stroke="midnightblue" points="812.125,-248.965 818.761,-257.225 818.724,-246.63 812.125,-248.965"/>
</g>
<!-- Node17 -->
<g id="node17" class="node"><title>Node17</title>
<g id="a_node17"><a xlink:href="_interpreter_issue_8cpp.html" target="_top" xlink:title="debug/InterpreterIssue.cpp">
<polygon fill="white" stroke="black" points="638.276,-201.5 638.276,-220.5 774.276,-220.5 774.276,-201.5 638.276,-201.5"/>
<text text-anchor="middle" x="706.276" y="-208.5" font-family="Helvetica,sans-Serif" font-size="10.00">debug/InterpreterIssue.cpp</text>
</a>
</g>
</g>
<!-- Node16&#45;&gt;Node17 -->
<g id="edge23" class="edge"><title>Node16&#45;&gt;Node17</title>
<path fill="none" stroke="midnightblue" d="M793.795,-253.096C772.31,-243.007 743.054,-229.27 724.413,-220.516"/>
<polygon fill="midnightblue" stroke="midnightblue" points="792.515,-256.361 803.054,-257.444 795.49,-250.025 792.515,-256.361"/>
</g>
<!-- Node16&#45;&gt;Node18 -->
<g id="edge25" class="edge"><title>Node16&#45;&gt;Node18</title>
<path fill="none" stroke="midnightblue" d="M900.898,-256.821C1041.43,-240.866 1078.55,-239.964 1215.28,-221 1219.78,-220.375 1224.48,-219.677 1229.16,-218.952"/>
<polygon fill="midnightblue" stroke="midnightblue" points="900.137,-253.385 890.598,-257.996 900.93,-260.34 900.137,-253.385"/>
</g>
<!-- Node19 -->
<g id="node19" class="node"><title>Node19</title>
<g id="a_node19"><a xlink:href="_u_s_c_x_m_l_invoker_8h.html" target="_top" xlink:title="plugins/invoker/scxml\l/USCXMLInvoker.h">
<polygon fill="white" stroke="black" points="611.276,-134.5 611.276,-164.5 723.276,-164.5 723.276,-134.5 611.276,-134.5"/>
<text text-anchor="start" x="619.276" y="-152.5" font-family="Helvetica,sans-Serif" font-size="10.00">plugins/invoker/scxml</text>
<text text-anchor="middle" x="667.276" y="-141.5" font-family="Helvetica,sans-Serif" font-size="10.00">/USCXMLInvoker.h</text>
</a>
</g>
</g>
<!-- Node16&#45;&gt;Node19 -->
<g id="edge26" class="edge"><title>Node16&#45;&gt;Node19</title>
<path fill="none" stroke="midnightblue" d="M824.943,-247.301C826.611,-233.142 826.356,-213.977 816.276,-201 804.464,-185.793 760.463,-172.017 723.315,-162.71"/>
<polygon fill="midnightblue" stroke="midnightblue" points="821.456,-246.945 823.344,-257.37 828.369,-248.043 821.456,-246.945"/>
</g>
<!-- Node21 -->
<g id="node21" class="node"><title>Node21</title>
<g id="a_node21"><a xlink:href="_invoker_impl_8h.html" target="_top" xlink:title="plugins/InvokerImpl.h">
<polygon fill="white" stroke="black" points="868.776,-201.5 868.776,-220.5 979.776,-220.5 979.776,-201.5 868.776,-201.5"/>
<text text-anchor="middle" x="924.276" y="-208.5" font-family="Helvetica,sans-Serif" font-size="10.00">plugins/InvokerImpl.h</text>
</a>
</g>
</g>
<!-- Node16&#45;&gt;Node21 -->
<g id="edge28" class="edge"><title>Node16&#45;&gt;Node21</title>
<path fill="none" stroke="midnightblue" d="M846.855,-252.59C865.9,-242.605 891.341,-229.267 907.769,-220.655"/>
<polygon fill="midnightblue" stroke="midnightblue" points="845.056,-249.581 837.825,-257.324 848.307,-255.78 845.056,-249.581"/>
</g>
<!-- Node25 -->
<g id="node25" class="node"><title>Node25</title>
<g id="a_node25"><a xlink:href="_basic_h_t_t_p_i_o_processor_8h.html" target="_top" xlink:title="plugins/ioprocessor\l/basichttp/BasicHTTPIOProcessor.h">
<polygon fill="white" stroke="black" points="1343.78,-134.5 1343.78,-164.5 1520.78,-164.5 1520.78,-134.5 1343.78,-134.5"/>
<text text-anchor="start" x="1351.78" y="-152.5" font-family="Helvetica,sans-Serif" font-size="10.00">plugins/ioprocessor</text>
<text text-anchor="middle" x="1432.28" y="-141.5" font-family="Helvetica,sans-Serif" font-size="10.00">/basichttp/BasicHTTPIOProcessor.h</text>
</a>
</g>
</g>
<!-- Node16&#45;&gt;Node25 -->
<g id="edge34" class="edge"><title>Node16&#45;&gt;Node25</title>
<path fill="none" stroke="midnightblue" d="M900.465,-256.859C1002.65,-244.956 1168.99,-225.171 1182.28,-221 1200.48,-215.283 1202.41,-207.708 1220.28,-201 1262.87,-185.008 1312.23,-172.897 1352.59,-164.55"/>
<polygon fill="midnightblue" stroke="midnightblue" points="900.006,-253.389 890.478,-258.021 900.815,-260.342 900.006,-253.389"/>
</g>
<!-- Node27 -->
<g id="node27" class="node"><title>Node27</title>
<g id="a_node27"><a xlink:href="_s_c_x_m_l_i_o_processor_8cpp.html" target="_top" xlink:title="plugins/ioprocessor\l/scxml/SCXMLIOProcessor.cpp">
<polygon fill="white" stroke="black" points="1013.78,-67.5 1013.78,-97.5 1170.78,-97.5 1170.78,-67.5 1013.78,-67.5"/>
<text text-anchor="start" x="1021.78" y="-85.5" font-family="Helvetica,sans-Serif" font-size="10.00">plugins/ioprocessor</text>
<text text-anchor="middle" x="1092.28" y="-74.5" font-family="Helvetica,sans-Serif" font-size="10.00">/scxml/SCXMLIOProcessor.cpp</text>
</a>
</g>
</g>
<!-- Node16&#45;&gt;Node27 -->
<g id="edge36" class="edge"><title>Node16&#45;&gt;Node27</title>
<path fill="none" stroke="midnightblue" d="M881.646,-255.54C922.921,-247.343 972.992,-235.006 989.276,-221 1021.26,-193.485 1001.37,-167.306 1027.28,-134 1038.68,-119.336 1055.27,-106.542 1068.83,-97.5012"/>
<polygon fill="midnightblue" stroke="midnightblue" points="880.79,-252.141 871.64,-257.482 882.123,-259.013 880.79,-252.141"/>
</g>
<!-- Node28 -->
<g id="node28" class="node"><title>Node28</title>
<g id="a_node28"><a xlink:href="_i_o_processor_impl_8h.html" target="_top" xlink:title="plugins/IOProcessorImpl.h">
<polygon fill="white" stroke="black" points="1039.28,-201.5 1039.28,-220.5 1173.28,-220.5 1173.28,-201.5 1039.28,-201.5"/>
<text text-anchor="middle" x="1106.28" y="-208.5" font-family="Helvetica,sans-Serif" font-size="10.00">plugins/IOProcessorImpl.h</text>
</a>
</g>
</g>
<!-- Node16&#45;&gt;Node28 -->
<g id="edge37" class="edge"><title>Node16&#45;&gt;Node28</title>
<path fill="none" stroke="midnightblue" d="M876.497,-255.537C930.36,-245.332 1011.28,-229.999 1061.33,-220.516"/>
<polygon fill="midnightblue" stroke="midnightblue" points="875.609,-252.143 866.435,-257.444 876.912,-259.021 875.609,-252.143"/>
</g>
<!-- Node16&#45;&gt;Node31 -->
<g id="edge42" class="edge"><title>Node16&#45;&gt;Node31</title>
<path fill="none" stroke="midnightblue" d="M900.79,-256.911C1156.05,-234.646 1447.27,-220.297 1572.24,-214.671"/>
<polygon fill="midnightblue" stroke="midnightblue" points="900.235,-253.446 890.579,-257.808 900.847,-260.42 900.235,-253.446"/>
</g>
<!-- Node20 -->
<g id="node20" class="node"><title>Node20</title>
<g id="a_node20"><a xlink:href="_u_s_c_x_m_l_invoker_8cpp.html" target="_top" xlink:title="plugins/invoker/scxml\l/USCXMLInvoker.cpp">
<polygon fill="white" stroke="black" points="610.776,-67.5 610.776,-97.5 723.776,-97.5 723.776,-67.5 610.776,-67.5"/>
<text text-anchor="start" x="618.776" y="-85.5" font-family="Helvetica,sans-Serif" font-size="10.00">plugins/invoker/scxml</text>
<text text-anchor="middle" x="667.276" y="-74.5" font-family="Helvetica,sans-Serif" font-size="10.00">/USCXMLInvoker.cpp</text>
</a>
</g>
</g>
<!-- Node19&#45;&gt;Node20 -->
<g id="edge27" class="edge"><title>Node19&#45;&gt;Node20</title>
<path fill="none" stroke="midnightblue" d="M667.276,-124.108C667.276,-115.154 667.276,-105.323 667.276,-97.5765"/>
<polygon fill="midnightblue" stroke="midnightblue" points="663.776,-124.396 667.276,-134.396 670.776,-124.396 663.776,-124.396"/>
</g>
<!-- Node21&#45;&gt;Node15 -->
<g id="edge29" class="edge"><title>Node21&#45;&gt;Node15</title>
<path fill="none" stroke="midnightblue" d="M858.515,-201.438C793.375,-192.809 690.815,-178.825 602.276,-165 590.579,-163.174 577.989,-161.073 566.207,-159.047"/>
<polygon fill="midnightblue" stroke="midnightblue" points="858.268,-204.936 868.64,-202.776 859.185,-197.996 858.268,-204.936"/>
</g>
<!-- Node21&#45;&gt;Node19 -->
<g id="edge32" class="edge"><title>Node21&#45;&gt;Node19</title>
<path fill="none" stroke="midnightblue" d="M877.456,-199.16C834.099,-189.122 769.553,-174.179 723.44,-163.503"/>
<polygon fill="midnightblue" stroke="midnightblue" points="876.923,-202.629 887.454,-201.475 878.502,-195.81 876.923,-202.629"/>
</g>
<!-- Node22 -->
<g id="node22" class="node"><title>Node22</title>
<g id="a_node22"><a xlink:href="_dir_mon_invoker_8h.html" target="_top" xlink:title="plugins/invoker/dirmon\l/DirMonInvoker.h">
<polygon fill="white" stroke="black" points="862.776,-134.5 862.776,-164.5 979.776,-164.5 979.776,-134.5 862.776,-134.5"/>
<text text-anchor="start" x="870.776" y="-152.5" font-family="Helvetica,sans-Serif" font-size="10.00">plugins/invoker/dirmon</text>
<text text-anchor="middle" x="921.276" y="-141.5" font-family="Helvetica,sans-Serif" font-size="10.00">/DirMonInvoker.h</text>
</a>
</g>
</g>
<!-- Node21&#45;&gt;Node22 -->
<g id="edge30" class="edge"><title>Node21&#45;&gt;Node22</title>
<path fill="none" stroke="midnightblue" d="M923.33,-191.235C922.894,-182.586 922.385,-172.497 921.983,-164.523"/>
<polygon fill="midnightblue" stroke="midnightblue" points="919.847,-191.664 923.846,-201.475 926.838,-191.312 919.847,-191.664"/>
</g>
<!-- Node24 -->
<g id="node24" class="node"><title>Node24</title>
<g id="a_node24"><a xlink:href="_invoker_8cpp.html" target="_top" xlink:title="plugins/Invoker.cpp">
<polygon fill="white" stroke="black" points="741.776,-140 741.776,-159 844.776,-159 844.776,-140 741.776,-140"/>
<text text-anchor="middle" x="793.276" y="-147" font-family="Helvetica,sans-Serif" font-size="10.00">plugins/Invoker.cpp</text>
</a>
</g>
</g>
<!-- Node21&#45;&gt;Node24 -->
<g id="edge33" class="edge"><title>Node21&#45;&gt;Node24</title>
<path fill="none" stroke="midnightblue" d="M896.375,-197.327C870.943,-185.776 834.077,-169.032 812.01,-159.009"/>
<polygon fill="midnightblue" stroke="midnightblue" points="894.955,-200.526 905.507,-201.475 897.85,-194.153 894.955,-200.526"/>
</g>
<!-- Node23 -->
<g id="node23" class="node"><title>Node23</title>
<g id="a_node23"><a xlink:href="_dir_mon_invoker_8cpp.html" target="_top" xlink:title="plugins/invoker/dirmon\l/DirMonInvoker.cpp">
<polygon fill="white" stroke="black" points="862.776,-67.5 862.776,-97.5 979.776,-97.5 979.776,-67.5 862.776,-67.5"/>
<text text-anchor="start" x="870.776" y="-85.5" font-family="Helvetica,sans-Serif" font-size="10.00">plugins/invoker/dirmon</text>
<text text-anchor="middle" x="921.276" y="-74.5" font-family="Helvetica,sans-Serif" font-size="10.00">/DirMonInvoker.cpp</text>
</a>
</g>
</g>
<!-- Node22&#45;&gt;Node23 -->
<g id="edge31" class="edge"><title>Node22&#45;&gt;Node23</title>
<path fill="none" stroke="midnightblue" d="M921.276,-124.108C921.276,-115.154 921.276,-105.323 921.276,-97.5765"/>
<polygon fill="midnightblue" stroke="midnightblue" points="917.776,-124.396 921.276,-134.396 924.776,-124.396 917.776,-124.396"/>
</g>
<!-- Node26 -->
<g id="node26" class="node"><title>Node26</title>
<g id="a_node26"><a xlink:href="_basic_h_t_t_p_i_o_processor_8cpp.html" target="_top" xlink:title="plugins/ioprocessor\l/basichttp/BasicHTTPIOProcessor.cpp">
<polygon fill="white" stroke="black" points="1200.78,-67.5 1200.78,-97.5 1387.78,-97.5 1387.78,-67.5 1200.78,-67.5"/>
<text text-anchor="start" x="1208.78" y="-85.5" font-family="Helvetica,sans-Serif" font-size="10.00">plugins/ioprocessor</text>
<text text-anchor="middle" x="1294.28" y="-74.5" font-family="Helvetica,sans-Serif" font-size="10.00">/basichttp/BasicHTTPIOProcessor.cpp</text>
</a>
</g>
</g>
<!-- Node25&#45;&gt;Node26 -->
<g id="edge35" class="edge"><title>Node25&#45;&gt;Node26</title>
<path fill="none" stroke="midnightblue" d="M1393.28,-130.131C1371.35,-119.802 1344.4,-107.11 1324.16,-97.5765"/>
<polygon fill="midnightblue" stroke="midnightblue" points="1391.79,-133.301 1402.33,-134.396 1394.78,-126.968 1391.79,-133.301"/>
</g>
<!-- Node28&#45;&gt;Node25 -->
<g id="edge38" class="edge"><title>Node28&#45;&gt;Node25</title>
<path fill="none" stroke="midnightblue" d="M1162.94,-199.658C1216.23,-189.933 1296.42,-175.297 1355.44,-164.523"/>
<polygon fill="midnightblue" stroke="midnightblue" points="1162.19,-196.236 1152.98,-201.475 1163.45,-203.123 1162.19,-196.236"/>
</g>
<!-- Node29 -->
<g id="node29" class="node"><title>Node29</title>
<g id="a_node29"><a xlink:href="_s_c_x_m_l_i_o_processor_8h.html" target="_top" xlink:title="plugins/ioprocessor\l/scxml/SCXMLIOProcessor.h">
<polygon fill="white" stroke="black" points="1036.28,-134.5 1036.28,-164.5 1182.28,-164.5 1182.28,-134.5 1036.28,-134.5"/>
<text text-anchor="start" x="1044.28" y="-152.5" font-family="Helvetica,sans-Serif" font-size="10.00">plugins/ioprocessor</text>
<text text-anchor="middle" x="1109.28" y="-141.5" font-family="Helvetica,sans-Serif" font-size="10.00">/scxml/SCXMLIOProcessor.h</text>
</a>
</g>
</g>
<!-- Node28&#45;&gt;Node29 -->
<g id="edge39" class="edge"><title>Node28&#45;&gt;Node29</title>
<path fill="none" stroke="midnightblue" d="M1107.22,-191.235C1107.66,-182.586 1108.17,-172.497 1108.57,-164.523"/>
<polygon fill="midnightblue" stroke="midnightblue" points="1103.71,-191.312 1106.71,-201.475 1110.71,-191.664 1103.71,-191.312"/>
</g>
<!-- Node30 -->
<g id="node30" class="node"><title>Node30</title>
<g id="a_node30"><a xlink:href="_i_o_processor_8cpp.html" target="_top" xlink:title="plugins/IOProcessor.cpp">
<polygon fill="white" stroke="black" points="1200.78,-140 1200.78,-159 1325.78,-159 1325.78,-140 1200.78,-140"/>
<text text-anchor="middle" x="1263.28" y="-147" font-family="Helvetica,sans-Serif" font-size="10.00">plugins/IOProcessor.cpp</text>
</a>
</g>
</g>
<!-- Node28&#45;&gt;Node30 -->
<g id="edge41" class="edge"><title>Node28&#45;&gt;Node30</title>
<path fill="none" stroke="midnightblue" d="M1138.51,-197.782C1169.02,-186.22 1214.03,-169.164 1240.82,-159.009"/>
<polygon fill="midnightblue" stroke="midnightblue" points="1136.88,-194.658 1128.77,-201.475 1139.36,-201.204 1136.88,-194.658"/>
</g>
<!-- Node29&#45;&gt;Node27 -->
<g id="edge40" class="edge"><title>Node29&#45;&gt;Node27</title>
<path fill="none" stroke="midnightblue" d="M1103.05,-124.697C1100.67,-115.587 1098.03,-105.493 1095.96,-97.5765"/>
<polygon fill="midnightblue" stroke="midnightblue" points="1099.67,-125.607 1105.59,-134.396 1106.44,-123.836 1099.67,-125.607"/>
</g>
<!-- Node32 -->
<g id="node32" class="node"><title>Node32</title>
<g id="a_node32"><a xlink:href="_chart_to_c_8h.html" target="_top" xlink:title="transform/ChartToC.h">
<polygon fill="white" stroke="black" points="1577.78,-140 1577.78,-159 1690.78,-159 1690.78,-140 1577.78,-140"/>
<text text-anchor="middle" x="1634.28" y="-147" font-family="Helvetica,sans-Serif" font-size="10.00">transform/ChartToC.h</text>
</a>
</g>
</g>
<!-- Node31&#45;&gt;Node32 -->
<g id="edge43" class="edge"><title>Node31&#45;&gt;Node32</title>
<path fill="none" stroke="midnightblue" d="M1634.28,-191.317C1634.28,-180.496 1634.28,-167.398 1634.28,-159.009"/>
<polygon fill="midnightblue" stroke="midnightblue" points="1630.78,-191.475 1634.28,-201.475 1637.78,-191.475 1630.78,-191.475"/>
</g>
<!-- Node34 -->
<g id="node34" class="node"><title>Node34</title>
<g id="a_node34"><a xlink:href="_chart_to_java_8h.html" target="_top" xlink:title="transform/ChartToJava.h">
<polygon fill="white" stroke="black" points="1860.78,-73 1860.78,-92 1987.78,-92 1987.78,-73 1860.78,-73"/>
<text text-anchor="middle" x="1924.28" y="-80" font-family="Helvetica,sans-Serif" font-size="10.00">transform/ChartToJava.h</text>
</a>
</g>
</g>
<!-- Node31&#45;&gt;Node34 -->
<g id="edge52" class="edge"><title>Node31&#45;&gt;Node34</title>
<path fill="none" stroke="midnightblue" d="M1706.36,-205.266C1772.54,-199.553 1864.43,-187.735 1892.28,-165 1915.12,-146.35 1921.72,-109.163 1923.57,-92.2439"/>
<polygon fill="midnightblue" stroke="midnightblue" points="1706.05,-201.78 1696.38,-206.099 1706.64,-208.755 1706.05,-201.78"/>
</g>
<!-- Node36 -->
<g id="node36" class="node"><title>Node36</title>
<g id="a_node36"><a xlink:href="_chart_to_promela_8h.html" target="_top" xlink:title="transform/ChartToPromela.h">
<polygon fill="white" stroke="black" points="1405.78,-73 1405.78,-92 1548.78,-92 1548.78,-73 1405.78,-73"/>
<text text-anchor="middle" x="1477.28" y="-80" font-family="Helvetica,sans-Serif" font-size="10.00">transform/ChartToPromela.h</text>
</a>
</g>
</g>
<!-- Node31&#45;&gt;Node36 -->
<g id="edge53" class="edge"><title>Node31&#45;&gt;Node36</title>
<path fill="none" stroke="midnightblue" d="M1612.37,-195.783C1599.54,-187.226 1583.18,-175.908 1569.28,-165 1537.55,-140.107 1502.52,-107.548 1486.36,-92.21"/>
<polygon fill="midnightblue" stroke="midnightblue" points="1610.72,-198.892 1621,-201.48 1614.58,-193.05 1610.72,-198.892"/>
</g>
<!-- Node39 -->
<g id="node39" class="node"><title>Node39</title>
<g id="a_node39"><a xlink:href="_chart_to_v_h_d_l_8h.html" target="_top" xlink:title="transform/ChartToVHDL.h">
<polygon fill="white" stroke="black" points="1709.78,-73 1709.78,-92 1842.78,-92 1842.78,-73 1709.78,-73"/>
<text text-anchor="middle" x="1776.28" y="-80" font-family="Helvetica,sans-Serif" font-size="10.00">transform/ChartToVHDL.h</text>
</a>
</g>
</g>
<!-- Node31&#45;&gt;Node39 -->
<g id="edge54" class="edge"><title>Node31&#45;&gt;Node39</title>
<path fill="none" stroke="midnightblue" d="M1657.69,-195.844C1670.74,-187.52 1686.98,-176.412 1700.28,-165 1728.17,-141.057 1756.52,-107.761 1769.29,-92.1838"/>
<polygon fill="midnightblue" stroke="midnightblue" points="1655.46,-193.108 1648.84,-201.378 1659.18,-199.042 1655.46,-193.108"/>
</g>
<!-- Node41 -->
<g id="node41" class="node"><title>Node41</title>
<g id="a_node41"><a xlink:href="_transformer_8cpp.html" target="_top" xlink:title="transform/Transformer.cpp">
<polygon fill="white" stroke="black" points="1747.78,-140 1747.78,-159 1882.78,-159 1882.78,-140 1747.78,-140"/>
<text text-anchor="middle" x="1815.28" y="-147" font-family="Helvetica,sans-Serif" font-size="10.00">transform/Transformer.cpp</text>
</a>
</g>
</g>
<!-- Node31&#45;&gt;Node41 -->
<g id="edge55" class="edge"><title>Node31&#45;&gt;Node41</title>
<path fill="none" stroke="midnightblue" d="M1670.07,-198.232C1705.26,-186.666 1758.1,-169.297 1789.39,-159.009"/>
<polygon fill="midnightblue" stroke="midnightblue" points="1668.62,-195.027 1660.21,-201.475 1670.8,-201.677 1668.62,-195.027"/>
</g>
<!-- Node33 -->
<g id="node33" class="node"><title>Node33</title>
<g id="a_node33"><a xlink:href="_chart_to_c_8cpp.html" target="_top" xlink:title="transform/ChartToC.cpp">
<polygon fill="white" stroke="black" points="1567.28,-73 1567.28,-92 1691.28,-92 1691.28,-73 1567.28,-73"/>
<text text-anchor="middle" x="1629.28" y="-80" font-family="Helvetica,sans-Serif" font-size="10.00">transform/ChartToC.cpp</text>
</a>
</g>
</g>
<!-- Node32&#45;&gt;Node33 -->
<g id="edge44" class="edge"><title>Node32&#45;&gt;Node33</title>
<path fill="none" stroke="midnightblue" d="M1632.82,-129.537C1631.87,-117.17 1630.67,-101.62 1629.94,-92.1273"/>
<polygon fill="midnightblue" stroke="midnightblue" points="1629.35,-130.032 1633.6,-139.734 1636.32,-129.495 1629.35,-130.032"/>
</g>
<!-- Node32&#45;&gt;Node34 -->
<g id="edge45" class="edge"><title>Node32&#45;&gt;Node34</title>
<path fill="none" stroke="midnightblue" d="M1682.36,-137.724C1739.46,-124.924 1833.56,-103.833 1885.98,-92.0834"/>
<polygon fill="midnightblue" stroke="midnightblue" points="1681.48,-134.333 1672.49,-139.936 1683.01,-141.164 1681.48,-134.333"/>
</g>
<!-- Node32&#45;&gt;Node36 -->
<g id="edge47" class="edge"><title>Node32&#45;&gt;Node36</title>
<path fill="none" stroke="midnightblue" d="M1603.96,-135.948C1572.87,-123.079 1525.35,-103.403 1498.21,-92.1672"/>
<polygon fill="midnightblue" stroke="midnightblue" points="1602.85,-139.277 1613.43,-139.869 1605.53,-132.809 1602.85,-139.277"/>
</g>
<!-- Node32&#45;&gt;Node39 -->
<g id="edge50" class="edge"><title>Node32&#45;&gt;Node39</title>
<path fill="none" stroke="midnightblue" d="M1662.43,-135.613C1690.55,-122.739 1733.01,-103.306 1757.34,-92.1672"/>
<polygon fill="midnightblue" stroke="midnightblue" points="1660.77,-132.524 1653.13,-139.869 1663.68,-138.889 1660.77,-132.524"/>
</g>
<!-- Node35 -->
<g id="node35" class="node"><title>Node35</title>
<g id="a_node35"><a xlink:href="_chart_to_java_8cpp.html" target="_top" xlink:title="transform/ChartToJava.cpp">
<polygon fill="white" stroke="black" points="1860.28,-6 1860.28,-25 1998.28,-25 1998.28,-6 1860.28,-6"/>
<text text-anchor="middle" x="1929.28" y="-13" font-family="Helvetica,sans-Serif" font-size="10.00">transform/ChartToJava.cpp</text>
</a>
</g>
</g>
<!-- Node34&#45;&gt;Node35 -->
<g id="edge46" class="edge"><title>Node34&#45;&gt;Node35</title>
<path fill="none" stroke="midnightblue" d="M1925.73,-62.537C1926.69,-50.1703 1927.88,-34.6198 1928.61,-25.1273"/>
<polygon fill="midnightblue" stroke="midnightblue" points="1922.23,-62.4948 1924.95,-72.7338 1929.21,-63.0317 1922.23,-62.4948"/>
</g>
<!-- Node37 -->
<g id="node37" class="node"><title>Node37</title>
<g id="a_node37"><a xlink:href="_chart_to_promela_8cpp.html" target="_top" xlink:title="transform/ChartToPromela.cpp">
<polygon fill="white" stroke="black" points="1306.28,-6 1306.28,-25 1460.28,-25 1460.28,-6 1306.28,-6"/>
<text text-anchor="middle" x="1383.28" y="-13" font-family="Helvetica,sans-Serif" font-size="10.00">transform/ChartToPromela.cpp</text>
</a>
</g>
</g>
<!-- Node36&#45;&gt;Node37 -->
<g id="edge48" class="edge"><title>Node36&#45;&gt;Node37</title>
<path fill="none" stroke="midnightblue" d="M1456.19,-66.9196C1437.61,-54.0695 1411.16,-35.7821 1395.75,-25.1273"/>
<polygon fill="midnightblue" stroke="midnightblue" points="1454.38,-69.925 1464.6,-72.7338 1458.36,-64.1674 1454.38,-69.925"/>
</g>
<!-- Node38 -->
<g id="node38" class="node"><title>Node38</title>
<g id="a_node38"><a xlink:href="_promela_code_analyzer_8cpp.html" target="_top" xlink:title="transform/promela/Promela\lCodeAnalyzer.cpp">
<polygon fill="white" stroke="black" points="1478.28,-0.5 1478.28,-30.5 1616.28,-30.5 1616.28,-0.5 1478.28,-0.5"/>
<text text-anchor="start" x="1486.28" y="-18.5" font-family="Helvetica,sans-Serif" font-size="10.00">transform/promela/Promela</text>
<text text-anchor="middle" x="1547.28" y="-7.5" font-family="Helvetica,sans-Serif" font-size="10.00">CodeAnalyzer.cpp</text>
</a>
</g>
</g>
<!-- Node36&#45;&gt;Node38 -->
<g id="edge49" class="edge"><title>Node36&#45;&gt;Node38</title>
<path fill="none" stroke="midnightblue" d="M1494.05,-65.928C1505.62,-55.1788 1520.89,-41.0024 1532.1,-30.589"/>
<polygon fill="midnightblue" stroke="midnightblue" points="1491.66,-63.3645 1486.72,-72.7338 1496.43,-68.4941 1491.66,-63.3645"/>
</g>
<!-- Node40 -->
<g id="node40" class="node"><title>Node40</title>
<g id="a_node40"><a xlink:href="_chart_to_v_h_d_l_8cpp.html" target="_top" xlink:title="transform/ChartToVHDL.cpp">
<polygon fill="white" stroke="black" points="1698.78,-6 1698.78,-25 1841.78,-25 1841.78,-6 1698.78,-6"/>
<text text-anchor="middle" x="1770.28" y="-13" font-family="Helvetica,sans-Serif" font-size="10.00">transform/ChartToVHDL.cpp</text>
</a>
</g>
</g>
<!-- Node39&#45;&gt;Node40 -->
<g id="edge51" class="edge"><title>Node39&#45;&gt;Node40</title>
<path fill="none" stroke="midnightblue" d="M1774.53,-62.537C1773.38,-50.1703 1771.95,-34.6198 1771.07,-25.1273"/>
<polygon fill="midnightblue" stroke="midnightblue" points="1771.06,-63.0979 1775.47,-72.7338 1778.03,-62.4544 1771.06,-63.0979"/>
</g>
</g>
</svg>
        <g id="navigator" transform="translate(0 0)" fill="#404254">
                <rect fill="#f2f5e9" fill-opacity="0.5" stroke="#606060" stroke-width=".5" x="0" y="0" width="60" height="60"/>
                <use id="zoomplus" xlink:href="#zoomPlus" x="17" y="9" onmousedown="handleZoom(evt,'in')"/>
                <use id="zoomminus" xlink:href="#zoomMin" x="42" y="9" onmousedown="handleZoom(evt,'out')"/>
                <use id="reset" xlink:href="#resetDef" x="30" y="36" onmousedown="handleReset()"/>
                <g id="arrowUp" xlink:href="#dirArrow" transform="translate(30 24)" onmousedown="handlePan(0,-1)">
                  <use xlink:href="#rim" fill="#404040">
                        <set attributeName="fill" to="#808080" begin="arrowUp.mouseover" end="arrowUp.mouseout"/>
                  </use>
                  <path fill="none" stroke="white" stroke-width="1.5" d="M0,-3.0v7 M-2.5,-0.5L0,-3.0L2.5,-0.5"/>
                </g>
                <g id="arrowRight" xlink:href="#dirArrow" transform="rotate(90) translate(36 -43)" onmousedown="handlePan(1,0)">
                  <use xlink:href="#rim" fill="#404040">
                        <set attributeName="fill" to="#808080" begin="arrowRight.mouseover" end="arrowRight.mouseout"/>
                  </use>
                  <path fill="none" stroke="white" stroke-width="1.5" d="M0,-3.0v7 M-2.5,-0.5L0,-3.0L2.5,-0.5"/>
                </g>
                <g id="arrowDown" xlink:href="#dirArrow" transform="rotate(180) translate(-30 -48)" onmousedown="handlePan(0,1)">
                  <use xlink:href="#rim" fill="#404040">
                        <set attributeName="fill" to="#808080" begin="arrowDown.mouseover" end="arrowDown.mouseout"/>
                  </use>
                  <path fill="none" stroke="white" stroke-width="1.5" d="M0,-3.0v7 M-2.5,-0.5L0,-3.0L2.5,-0.5"/>
                </g>
                <g id="arrowLeft" xlink:href="#dirArrow" transform="rotate(270) translate(-36 17)" onmousedown="handlePan(-1,0)">
                  <use xlink:href="#rim" fill="#404040">
                        <set attributeName="fill" to="#808080" begin="arrowLeft.mouseover" end="arrowLeft.mouseout"/>
                  </use>
                  <path fill="none" stroke="white" stroke-width="1.5" d="M0,-3.0v7 M-2.5,-0.5L0,-3.0L2.5,-0.5"/>
                </g>
        </g>
        <svg viewBox="0 0 15 15" width="100%" height="30px" preserveAspectRatio="xMaxYMin meet">
         <g id="arrow_out" transform="scale(0.3 0.3)">
          <a xlink:href="_data_model_8h__dep__incl_org.svg" target="_base">
           <rect id="button" ry="5" rx="5" y="6" x="6" height="38" width="38"
                fill="#f2f5e9" fill-opacity="0.5" stroke="#606060" stroke-width="1.0"/>
           <path id="arrow"
             d="M 11.500037,31.436501 C 11.940474,20.09759 22.043105,11.32322 32.158766,21.979434 L 37.068811,17.246167 C 37.068811,17.246167 37.088388,32 37.088388,32 L 22.160133,31.978069 C 22.160133,31.978069 26.997745,27.140456 26.997745,27.140456 C 18.528582,18.264221 13.291696,25.230495 11.500037,31.436501 z"
             style="fill:#404040;"/>
          </a>
         </g>
        </svg>
</svg>
