<?xml version="1.0" encoding="UTF-8" standalone="no"?>
<!DOCTYPE svg PUBLIC "-//W3C//DTD SVG 1.1//EN"
 "http://www.w3.org/Graphics/SVG/1.1/DTD/svg11.dtd">
<!-- Generated by graphviz version 2.40.1 (20161225.0304)
 -->
<!-- Title: messages/Data.h Pages: 1 -->
<svg width="546pt" height="196pt"
 viewBox="0.00 0.00 546.00 196.00" xmlns="http://www.w3.org/2000/svg" xmlns:xlink="http://www.w3.org/1999/xlink">
<g id="graph0" class="graph" transform="scale(1 1) rotate(0) translate(4 192)">
<title>messages/Data.h</title>
<polygon fill="#ffffff" stroke="transparent" points="-4,4 -4,-192 542,-192 542,4 -4,4"/>
<!-- Node1 -->
<g id="node1" class="node">
<title>Node1</title>
<polygon fill="#bfbfbf" stroke="#000000" points="156.5,-168.5 156.5,-187.5 250.5,-187.5 250.5,-168.5 156.5,-168.5"/>
<text text-anchor="middle" x="203.5" y="-175.5" font-family="Helvetica,sans-Serif" font-size="10.00" fill="#000000">messages/Data.h</text>
</g>
<!-- Node2 -->
<g id="node2" class="node">
<title>Node2</title>
<polygon fill="#ffffff" stroke="#bfbfbf" points="0,-112.5 0,-131.5 29,-131.5 29,-112.5 0,-112.5"/>
<text text-anchor="middle" x="14.5" y="-119.5" font-family="Helvetica,sans-Serif" font-size="10.00" fill="#000000">list</text>
</g>
<!-- Node1&#45;&gt;Node2 -->
<g id="edge1" class="edge">
<title>Node1&#45;&gt;Node2</title>
<path fill="none" stroke="#191970" d="M164.077,-168.4632C130.3848,-159.9683 80.7924,-146.6441 38.5,-132 38.404,-131.9668 38.3079,-131.9333 38.2116,-131.8997"/>
<polygon fill="#191970" stroke="#191970" points="39.7036,-128.7231 29.1129,-128.4238 37.2054,-135.2621 39.7036,-128.7231"/>
</g>
<!-- Node3 -->
<g id="node3" class="node">
<title>Node3</title>
<polygon fill="#ffffff" stroke="#bfbfbf" points="47.5,-112.5 47.5,-131.5 83.5,-131.5 83.5,-112.5 47.5,-112.5"/>
<text text-anchor="middle" x="65.5" y="-119.5" font-family="Helvetica,sans-Serif" font-size="10.00" fill="#000000">map</text>
</g>
<!-- Node1&#45;&gt;Node3 -->
<g id="edge2" class="edge">
<title>Node1&#45;&gt;Node3</title>
<path fill="none" stroke="#191970" d="M179.777,-168.3733C155.6936,-158.6003 118.4346,-143.4807 93.0569,-133.1825"/>
<polygon fill="#191970" stroke="#191970" points="94.2197,-129.8772 83.6375,-129.3601 91.5876,-136.3635 94.2197,-129.8772"/>
</g>
<!-- Node4 -->
<g id="node4" class="node">
<title>Node4</title>
<polygon fill="#ffffff" stroke="#bfbfbf" points="101,-56.5 101,-75.5 154,-75.5 154,-56.5 101,-56.5"/>
<text text-anchor="middle" x="127.5" y="-63.5" font-family="Helvetica,sans-Serif" font-size="10.00" fill="#000000">memory</text>
</g>
<!-- Node1&#45;&gt;Node4 -->
<g id="edge3" class="edge">
<title>Node1&#45;&gt;Node4</title>
<path fill="none" stroke="#191970" d="M176.4426,-168.4371C160.1229,-161.14 140.5951,-149.3499 130.5,-132 122.3979,-118.0754 122.2832,-99.5633 123.8301,-85.6891"/>
<polygon fill="#191970" stroke="#191970" points="127.3017,-86.138 125.3061,-75.7328 120.3774,-85.1114 127.3017,-86.138"/>
</g>
<!-- Node5 -->
<g id="node5" class="node">
<title>Node5</title>
<polygon fill="#ffffff" stroke="#bfbfbf" points="475,-112.5 475,-131.5 538,-131.5 538,-112.5 475,-112.5"/>
<text text-anchor="middle" x="506.5" y="-119.5" font-family="Helvetica,sans-Serif" font-size="10.00" fill="#000000">type_traits</text>
</g>
<!-- Node1&#45;&gt;Node5 -->
<g id="edge4" class="edge">
<title>Node1&#45;&gt;Node5</title>
<path fill="none" stroke="#191970" d="M250.7299,-170.7876C301.3578,-162.8231 384.3023,-149.1056 464.4107,-132.3435"/>
<polygon fill="#191970" stroke="#191970" points="465.6103,-135.6674 474.6711,-130.1762 464.1636,-128.8185 465.6103,-135.6674"/>
</g>
<!-- Node6 -->
<g id="node6" class="node">
<title>Node6</title>
<g id="a_node6"><a xlink:href="$_common_8h.html" xlink:title="uscxml/Common.h">
<polygon fill="#ffffff" stroke="#000000" points="188,-56.5 188,-75.5 287,-75.5 287,-56.5 188,-56.5"/>
<text text-anchor="middle" x="237.5" y="-63.5" font-family="Helvetica,sans-Serif" font-size="10.00" fill="#000000">uscxml/Common.h</text>
</a>
</g>
</g>
<!-- Node1&#45;&gt;Node6 -->
<g id="edge5" class="edge">
<title>Node1&#45;&gt;Node6</title>
<path fill="none" stroke="#191970" d="M230.4644,-168.4934C246.6714,-161.2188 265.9508,-149.4326 275.5,-132 284.7924,-115.0363 271.0559,-95.9081 257.5755,-82.6286"/>
<polygon fill="#191970" stroke="#191970" points="259.5821,-79.7202 249.8441,-75.5463 254.8538,-84.8819 259.5821,-79.7202"/>
</g>
<!-- Node9 -->
<g id="node9" class="node">
<title>Node9</title>
<g id="a_node9"><a xlink:href="$_convenience_8h.html" xlink:title="uscxml/util/Convenience.h">
<polygon fill="#ffffff" stroke="#000000" points="324,-112.5 324,-131.5 457,-131.5 457,-112.5 324,-112.5"/>
<text text-anchor="middle" x="390.5" y="-119.5" font-family="Helvetica,sans-Serif" font-size="10.00" fill="#000000">uscxml/util/Convenience.h</text>
</a>
</g>
</g>
<!-- Node1&#45;&gt;Node9 -->
<g id="edge8" class="edge">
<title>Node1&#45;&gt;Node9</title>
<path fill="none" stroke="#191970" d="M235.6464,-168.3733C267.0109,-158.9807 314.8665,-144.6496 349.0716,-134.4064"/>
<polygon fill="#191970" stroke="#191970" points="350.1975,-137.7229 358.773,-131.5011 348.1893,-131.0171 350.1975,-137.7229"/>
</g>
<!-- Node13 -->
<g id="node13" class="node">
<title>Node13</title>
<g id="a_node13"><a xlink:href="$_blob_8h.html" xlink:title="uscxml/messages/Blob.h">
<polygon fill="#ffffff" stroke="#000000" points="140,-112.5 140,-131.5 267,-131.5 267,-112.5 140,-112.5"/>
<text text-anchor="middle" x="203.5" y="-119.5" font-family="Helvetica,sans-Serif" font-size="10.00" fill="#000000">uscxml/messages/Blob.h</text>
</a>
</g>
</g>
<!-- Node1&#45;&gt;Node13 -->
<g id="edge13" class="edge">
<title>Node1&#45;&gt;Node13</title>
<path fill="none" stroke="#191970" d="M203.5,-168.2455C203.5,-160.9382 203.5,-150.6944 203.5,-141.7046"/>
<polygon fill="#191970" stroke="#191970" points="207.0001,-141.6426 203.5,-131.6427 200.0001,-141.6427 207.0001,-141.6426"/>
</g>
<!-- Node7 -->
<g id="node7" class="node">
<title>Node7</title>
<polygon fill="#ffffff" stroke="#bfbfbf" points="163.5,-.5 163.5,-19.5 235.5,-19.5 235.5,-.5 163.5,-.5"/>
<text text-anchor="middle" x="199.5" y="-7.5" font-family="Helvetica,sans-Serif" font-size="10.00" fill="#000000">sys/socket.h</text>
</g>
<!-- Node6&#45;&gt;Node7 -->
<g id="edge6" class="edge">
<title>Node6&#45;&gt;Node7</title>
<path fill="none" stroke="#191970" d="M230.8809,-56.2455C225.5954,-48.4564 218.0459,-37.3308 211.6762,-27.9439"/>
<polygon fill="#191970" stroke="#191970" points="214.5545,-25.9522 206.0432,-19.6427 208.7621,-29.8827 214.5545,-25.9522"/>
</g>
<!-- Node8 -->
<g id="node8" class="node">
<title>Node8</title>
<polygon fill="#ffffff" stroke="#bfbfbf" points="253.5,-.5 253.5,-19.5 297.5,-19.5 297.5,-.5 253.5,-.5"/>
<text text-anchor="middle" x="275.5" y="-7.5" font-family="Helvetica,sans-Serif" font-size="10.00" fill="#000000">cmath</text>
</g>
<!-- Node6&#45;&gt;Node8 -->
<g id="edge7" class="edge">
<title>Node6&#45;&gt;Node8</title>
<path fill="none" stroke="#191970" d="M244.1191,-56.2455C249.4046,-48.4564 256.9541,-37.3308 263.3238,-27.9439"/>
<polygon fill="#191970" stroke="#191970" points="266.2379,-29.8827 268.9568,-19.6427 260.4455,-25.9522 266.2379,-29.8827"/>
</g>
<!-- Node9&#45;&gt;Node6 -->
<g id="edge9" class="edge">
<title>Node9&#45;&gt;Node6</title>
<path fill="none" stroke="#191970" d="M364.1984,-112.3733C339.0872,-103.1822 301.0562,-89.2624 273.2128,-79.0713"/>
<polygon fill="#191970" stroke="#191970" points="274.0522,-75.6516 263.4584,-75.5011 271.6462,-82.2251 274.0522,-75.6516"/>
</g>
<!-- Node10 -->
<g id="node10" class="node">
<title>Node10</title>
<polygon fill="#ffffff" stroke="#bfbfbf" points="305,-56.5 305,-75.5 346,-75.5 346,-56.5 305,-56.5"/>
<text text-anchor="middle" x="325.5" y="-63.5" font-family="Helvetica,sans-Serif" font-size="10.00" fill="#000000">string</text>
</g>
<!-- Node9&#45;&gt;Node10 -->
<g id="edge10" class="edge">
<title>Node9&#45;&gt;Node10</title>
<path fill="none" stroke="#191970" d="M379.1779,-112.2455C369.5777,-103.9746 355.6108,-91.9416 344.3305,-82.2232"/>
<polygon fill="#191970" stroke="#191970" points="346.553,-79.5182 336.6924,-75.6427 341.984,-84.8214 346.553,-79.5182"/>
</g>
<!-- Node11 -->
<g id="node11" class="node">
<title>Node11</title>
<polygon fill="#ffffff" stroke="#bfbfbf" points="435,-56.5 435,-75.5 474,-75.5 474,-56.5 435,-56.5"/>
<text text-anchor="middle" x="454.5" y="-63.5" font-family="Helvetica,sans-Serif" font-size="10.00" fill="#000000">limits</text>
</g>
<!-- Node9&#45;&gt;Node11 -->
<g id="edge11" class="edge">
<title>Node9&#45;&gt;Node11</title>
<path fill="none" stroke="#191970" d="M401.6479,-112.2455C411.0087,-104.0549 424.5858,-92.1749 435.6349,-82.5069"/>
<polygon fill="#191970" stroke="#191970" points="438.2588,-84.8618 443.4798,-75.6427 433.6492,-79.5937 438.2588,-84.8618"/>
</g>
<!-- Node12 -->
<g id="node12" class="node">
<title>Node12</title>
<polygon fill="#ffffff" stroke="#bfbfbf" points="364.5,-56.5 364.5,-75.5 416.5,-75.5 416.5,-56.5 364.5,-56.5"/>
<text text-anchor="middle" x="390.5" y="-63.5" font-family="Helvetica,sans-Serif" font-size="10.00" fill="#000000">sstream</text>
</g>
<!-- Node9&#45;&gt;Node12 -->
<g id="edge12" class="edge">
<title>Node9&#45;&gt;Node12</title>
<path fill="none" stroke="#191970" d="M390.5,-112.2455C390.5,-104.9382 390.5,-94.6944 390.5,-85.7046"/>
<polygon fill="#191970" stroke="#191970" points="394.0001,-85.6426 390.5,-75.6427 387.0001,-85.6427 394.0001,-85.6426"/>
</g>
<!-- Node13&#45;&gt;Node4 -->
<g id="edge15" class="edge">
<title>Node13&#45;&gt;Node4</title>
<path fill="none" stroke="#191970" d="M190.2618,-112.2455C178.819,-103.814 162.0704,-91.4729 148.7525,-81.6598"/>
<polygon fill="#191970" stroke="#191970" points="150.7133,-78.757 140.5865,-75.6427 146.5609,-84.3924 150.7133,-78.757"/>
</g>
<!-- Node13&#45;&gt;Node6 -->
<g id="edge16" class="edge">
<title>Node13&#45;&gt;Node6</title>
<path fill="none" stroke="#191970" d="M209.4223,-112.2455C214.1027,-104.5367 220.7673,-93.5598 226.4289,-84.2348"/>
<polygon fill="#191970" stroke="#191970" points="229.4475,-86.007 231.6455,-75.6427 223.4639,-82.3741 229.4475,-86.007"/>
</g>
<!-- Node13&#45;&gt;Node10 -->
<g id="edge14" class="edge">
<title>Node13&#45;&gt;Node10</title>
<path fill="none" stroke="#191970" d="M224.4725,-112.3733C244.0567,-103.3838 273.4961,-89.8706 295.551,-79.7471"/>
<polygon fill="#191970" stroke="#191970" points="297.1729,-82.8538 304.8011,-75.5011 294.2527,-76.4919 297.1729,-82.8538"/>
</g>
</g>
</svg>
