<?xml version="1.0" encoding="UTF-8" standalone="no"?>
<!DOCTYPE svg PUBLIC "-//W3C//DTD SVG 1.1//EN"
 "http://www.w3.org/Graphics/SVG/1.1/DTD/svg11.dtd">
<!-- Generated by graphviz version 2.38.0 (20140413.2041)
 -->
<!-- Title: messages/Data.cpp Pages: 1 -->
<!--zoomable 252 -->
<svg id="main" version="1.1" xmlns="http://www.w3.org/2000/svg" xmlns:xlink="http://www.w3.org/1999/xlink" xml:space="preserve" onload="init(evt)">
<style type="text/css"><![CDATA[
.edge:hover path { stroke: red; }
.edge:hover polygon { stroke: red; fill: red; }
]]></style>
<script type="text/javascript"><![CDATA[
var edges = document.getElementsByTagName('g');
if (edges && edges.length) {
  for (var i=0;i<edges.length;i++) {
    if (edges[i].id.substr(0,4)=='edge') {
      edges[i].setAttribute('class','edge');
    }
  }
}
]]></script>
        <defs>
                <circle id="rim" cx="0" cy="0" r="7"/>
                <circle id="rim2" cx="0" cy="0" r="3.5"/>
                <g id="zoomPlus">
                        <use xlink:href="#rim" fill="#404040">
                                <set attributeName="fill" to="#808080" begin="zoomplus.mouseover" end="zoomplus.mouseout"/>
                        </use>
                        <path d="M-4,0h8M0,-4v8" fill="none" stroke="white" stroke-width="1.5" pointer-events="none"/>
                </g>
                <g id="zoomMin">
                        <use xlink:href="#rim" fill="#404040">
                                <set attributeName="fill" to="#808080" begin="zoomminus.mouseover" end="zoomminus.mouseout"/>
                        </use>
                        <path d="M-4,0h8" fill="none" stroke="white" stroke-width="1.5" pointer-events="none"/>
                </g>
                <g id="dirArrow">
                        <path fill="none" stroke="white" stroke-width="1.5" d="M0,-3.0v7 M-2.5,-0.5L0,-3.0L2.5,-0.5"/>
                </g>
               <g id="resetDef">
                       <use xlink:href="#rim2" fill="#404040">
                               <set attributeName="fill" to="#808080" begin="reset.mouseover" end="reset.mouseout"/>
                       </use>
               </g>
        </defs>

<script type="text/javascript">
var viewWidth = 979;
var viewHeight = 252;
var sectionId = 'dynsection-0';
</script>
<script xlink:href="svgpan.js"/>
<svg id="graph" class="graph">
<g id="viewport">
<title>messages/Data.cpp</title>
<polygon fill="white" stroke="none" points="-4,4 -4,-248 974.5,-248 974.5,4 -4,4"/>
<!-- Node1 -->
<g id="node1" class="node"><title>Node1</title>
<polygon fill="#bfbfbf" stroke="black" points="589,-224.5 589,-243.5 694,-243.5 694,-224.5 589,-224.5"/>
<text text-anchor="middle" x="641.5" y="-231.5" font-family="Helvetica,sans-Serif" font-size="10.00">messages/Data.cpp</text>
</g>
<!-- Node2 -->
<g id="node2" class="node"><title>Node2</title>
<g id="a_node2"><a xlink:href="_data_8h.html" target="_top" xlink:title="uscxml/messages/Data.h">
<polygon fill="white" stroke="black" points="294.5,-168.5 294.5,-187.5 422.5,-187.5 422.5,-168.5 294.5,-168.5"/>
<text text-anchor="middle" x="358.5" y="-175.5" font-family="Helvetica,sans-Serif" font-size="10.00">uscxml/messages/Data.h</text>
</a>
</g>
</g>
<!-- Node1&#45;&gt;Node2 -->
<g id="edge1" class="edge"><title>Node1&#45;&gt;Node2</title>
<path fill="none" stroke="midnightblue" d="M596.658,-224.444C546.875,-214.944 466.517,-199.611 413.108,-189.42"/>
<polygon fill="midnightblue" stroke="midnightblue" points="413.611,-185.953 403.132,-187.516 412.299,-192.829 413.611,-185.953"/>
</g>
<!-- Node14 -->
<g id="node14" class="node"><title>Node14</title>
<g id="a_node14"><a xlink:href="_blob_8h.html" target="_top" xlink:title="uscxml/messages/Blob.h">
<polygon fill="white" stroke="black" points="21,-112.5 21,-131.5 148,-131.5 148,-112.5 21,-112.5"/>
<text text-anchor="middle" x="84.5" y="-119.5" font-family="Helvetica,sans-Serif" font-size="10.00">uscxml/messages/Blob.h</text>
</a>
</g>
</g>
<!-- Node1&#45;&gt;Node14 -->
<g id="edge18" class="edge"><title>Node1&#45;&gt;Node14</title>
<path fill="none" stroke="midnightblue" d="M588.792,-229.434C518.833,-223.999 391.758,-211.678 285.5,-188 224.249,-174.351 155.083,-149.91 115.945,-135.201"/>
<polygon fill="midnightblue" stroke="midnightblue" points="117.023,-131.866 106.432,-131.594 114.542,-138.412 117.023,-131.866"/>
</g>
<!-- Node15 -->
<g id="node15" class="node"><title>Node15</title>
<polygon fill="white" stroke="#bfbfbf" points="642.5,-168.5 642.5,-187.5 774.5,-187.5 774.5,-168.5 642.5,-168.5"/>
<text text-anchor="middle" x="708.5" y="-175.5" font-family="Helvetica,sans-Serif" font-size="10.00">boost/algorithm/string.hpp</text>
</g>
<!-- Node1&#45;&gt;Node15 -->
<g id="edge19" class="edge"><title>Node1&#45;&gt;Node15</title>
<path fill="none" stroke="midnightblue" d="M652.265,-224.324C662.266,-216.263 677.387,-204.077 689.43,-194.369"/>
<polygon fill="midnightblue" stroke="midnightblue" points="691.95,-196.834 697.539,-187.834 687.557,-191.384 691.95,-196.834"/>
</g>
<!-- Node16 -->
<g id="node16" class="node"><title>Node16</title>
<g id="a_node16"><a xlink:href="_d_o_m_8h.html" target="_top" xlink:title="uscxml/util/DOM.h">
<polygon fill="white" stroke="black" points="526.5,-168.5 526.5,-187.5 624.5,-187.5 624.5,-168.5 526.5,-168.5"/>
<text text-anchor="middle" x="575.5" y="-175.5" font-family="Helvetica,sans-Serif" font-size="10.00">uscxml/util/DOM.h</text>
</a>
</g>
</g>
<!-- Node1&#45;&gt;Node16 -->
<g id="edge20" class="edge"><title>Node1&#45;&gt;Node16</title>
<path fill="none" stroke="midnightblue" d="M630.896,-224.324C621.044,-216.263 606.149,-204.077 594.285,-194.369"/>
<polygon fill="midnightblue" stroke="midnightblue" points="596.253,-191.457 586.297,-187.834 591.82,-196.875 596.253,-191.457"/>
</g>
<!-- Node21 -->
<g id="node21" class="node"><title>Node21</title>
<polygon fill="white" stroke="#bfbfbf" points="792.5,-168.5 792.5,-187.5 882.5,-187.5 882.5,-168.5 792.5,-168.5"/>
<text text-anchor="middle" x="837.5" y="-175.5" font-family="Helvetica,sans-Serif" font-size="10.00">easylogging++.h</text>
</g>
<!-- Node1&#45;&gt;Node21 -->
<g id="edge28" class="edge"><title>Node1&#45;&gt;Node21</title>
<path fill="none" stroke="midnightblue" d="M672.557,-224.444C706.103,-215.201 759.697,-200.436 796.641,-190.257"/>
<polygon fill="midnightblue" stroke="midnightblue" points="797.877,-193.547 806.589,-187.516 796.018,-186.798 797.877,-193.547"/>
</g>
<!-- Node22 -->
<g id="node22" class="node"><title>Node22</title>
<polygon fill="white" stroke="#bfbfbf" points="900.5,-168.5 900.5,-187.5 970.5,-187.5 970.5,-168.5 900.5,-168.5"/>
<text text-anchor="middle" x="935.5" y="-175.5" font-family="Helvetica,sans-Serif" font-size="10.00">jsmn/jsmn.h</text>
</g>
<!-- Node1&#45;&gt;Node22 -->
<g id="edge29" class="edge"><title>Node1&#45;&gt;Node22</title>
<path fill="none" stroke="midnightblue" d="M690.897,-224.464C739.204,-216.036 815.119,-202.581 890.327,-188.191"/>
<polygon fill="midnightblue" stroke="midnightblue" points="891.29,-191.57 900.45,-186.247 889.97,-184.695 891.29,-191.57"/>
</g>
<!-- Node3 -->
<g id="node3" class="node"><title>Node3</title>
<polygon fill="white" stroke="#bfbfbf" points="513,-112.5 513,-131.5 542,-131.5 542,-112.5 513,-112.5"/>
<text text-anchor="middle" x="527.5" y="-119.5" font-family="Helvetica,sans-Serif" font-size="10.00">list</text>
</g>
<!-- Node2&#45;&gt;Node3 -->
<g id="edge2" class="edge"><title>Node2&#45;&gt;Node3</title>
<path fill="none" stroke="midnightblue" d="M388.631,-168.421C416.33,-160.38 458.707,-147.689 503.394,-132.22"/>
<polygon fill="midnightblue" stroke="midnightblue" points="504.674,-135.48 512.96,-128.877 502.365,-128.872 504.674,-135.48"/>
</g>
<!-- Node4 -->
<g id="node4" class="node"><title>Node4</title>
<polygon fill="white" stroke="#bfbfbf" points="317.5,-112.5 317.5,-131.5 353.5,-131.5 353.5,-112.5 317.5,-112.5"/>
<text text-anchor="middle" x="335.5" y="-119.5" font-family="Helvetica,sans-Serif" font-size="10.00">map</text>
</g>
<!-- Node2&#45;&gt;Node4 -->
<g id="edge3" class="edge"><title>Node2&#45;&gt;Node4</title>
<path fill="none" stroke="midnightblue" d="M354.702,-168.083C351.587,-160.77 347.077,-150.181 343.211,-141.103"/>
<polygon fill="midnightblue" stroke="midnightblue" points="346.366,-139.58 339.227,-131.751 339.926,-142.323 346.366,-139.58"/>
</g>
<!-- Node5 -->
<g id="node5" class="node"><title>Node5</title>
<polygon fill="white" stroke="#bfbfbf" points="0,-56.5 0,-75.5 53,-75.5 53,-56.5 0,-56.5"/>
<text text-anchor="middle" x="26.5" y="-63.5" font-family="Helvetica,sans-Serif" font-size="10.00">memory</text>
</g>
<!-- Node2&#45;&gt;Node5 -->
<g id="edge4" class="edge"><title>Node2&#45;&gt;Node5</title>
<path fill="none" stroke="midnightblue" d="M294.419,-173.202C199.28,-166.902 29.8448,-152.877 11.5,-132 0.071454,-118.994 7.10666,-99.0109 14.9381,-84.6356"/>
<polygon fill="midnightblue" stroke="midnightblue" points="18.134,-86.1112 20.2699,-75.7339 12.1288,-82.5143 18.134,-86.1112"/>
</g>
<!-- Node6 -->
<g id="node6" class="node"><title>Node6</title>
<polygon fill="white" stroke="#bfbfbf" points="410,-112.5 410,-131.5 495,-131.5 495,-112.5 410,-112.5"/>
<text text-anchor="middle" x="452.5" y="-119.5" font-family="Helvetica,sans-Serif" font-size="10.00">uscxml/config.h</text>
</g>
<!-- Node2&#45;&gt;Node6 -->
<g id="edge5" class="edge"><title>Node2&#45;&gt;Node6</title>
<path fill="none" stroke="midnightblue" d="M373.603,-168.324C388.403,-159.822 411.194,-146.729 428.482,-136.797"/>
<polygon fill="midnightblue" stroke="midnightblue" points="430.507,-139.671 437.435,-131.655 427.02,-133.601 430.507,-139.671"/>
</g>
<!-- Node7 -->
<g id="node7" class="node"><title>Node7</title>
<g id="a_node7"><a xlink:href="_common_8h.html" target="_top" xlink:title="uscxml/Common.h">
<polygon fill="white" stroke="black" points="318,-56.5 318,-75.5 417,-75.5 417,-56.5 318,-56.5"/>
<text text-anchor="middle" x="367.5" y="-63.5" font-family="Helvetica,sans-Serif" font-size="10.00">uscxml/Common.h</text>
</a>
</g>
</g>
<!-- Node2&#45;&gt;Node7 -->
<g id="edge6" class="edge"><title>Node2&#45;&gt;Node7</title>
<path fill="none" stroke="midnightblue" d="M359.297,-168.376C360.127,-159.32 361.45,-144.663 362.5,-132 363.787,-116.471 365.136,-98.8463 366.108,-85.8705"/>
<polygon fill="midnightblue" stroke="midnightblue" points="369.603,-86.066 366.854,-75.834 362.622,-85.5471 369.603,-86.066"/>
</g>
<!-- Node10 -->
<g id="node10" class="node"><title>Node10</title>
<g id="a_node10"><a xlink:href="_convenience_8h.html" target="_top" xlink:title="uscxml/util/Convenience.h">
<polygon fill="white" stroke="black" points="166,-112.5 166,-131.5 299,-131.5 299,-112.5 166,-112.5"/>
<text text-anchor="middle" x="232.5" y="-119.5" font-family="Helvetica,sans-Serif" font-size="10.00">uscxml/util/Convenience.h</text>
</a>
</g>
</g>
<!-- Node2&#45;&gt;Node10 -->
<g id="edge9" class="edge"><title>Node2&#45;&gt;Node10</title>
<path fill="none" stroke="midnightblue" d="M338.535,-168.444C317.891,-159.596 285.437,-145.687 261.868,-135.586"/>
<polygon fill="midnightblue" stroke="midnightblue" points="262.942,-132.239 252.372,-131.516 260.184,-138.673 262.942,-132.239"/>
</g>
<!-- Node2&#45;&gt;Node14 -->
<g id="edge14" class="edge"><title>Node2&#45;&gt;Node14</title>
<path fill="none" stroke="midnightblue" d="M315.084,-168.444C266.985,-158.964 189.405,-143.675 137.694,-133.483"/>
<polygon fill="midnightblue" stroke="midnightblue" points="138.201,-130.016 127.713,-131.516 136.847,-136.884 138.201,-130.016"/>
</g>
<!-- Node8 -->
<g id="node8" class="node"><title>Node8</title>
<polygon fill="white" stroke="#bfbfbf" points="293.5,-0.5 293.5,-19.5 365.5,-19.5 365.5,-0.5 293.5,-0.5"/>
<text text-anchor="middle" x="329.5" y="-7.5" font-family="Helvetica,sans-Serif" font-size="10.00">sys/socket.h</text>
</g>
<!-- Node7&#45;&gt;Node8 -->
<g id="edge7" class="edge"><title>Node7&#45;&gt;Node8</title>
<path fill="none" stroke="midnightblue" d="M361.225,-56.083C355.858,-48.4554 347.982,-37.2645 341.421,-27.9408"/>
<polygon fill="midnightblue" stroke="midnightblue" points="344.275,-25.9149 335.658,-19.7511 338.551,-29.9434 344.275,-25.9149"/>
</g>
<!-- Node9 -->
<g id="node9" class="node"><title>Node9</title>
<polygon fill="white" stroke="#bfbfbf" points="383.5,-0.5 383.5,-19.5 427.5,-19.5 427.5,-0.5 383.5,-0.5"/>
<text text-anchor="middle" x="405.5" y="-7.5" font-family="Helvetica,sans-Serif" font-size="10.00">cmath</text>
</g>
<!-- Node7&#45;&gt;Node9 -->
<g id="edge8" class="edge"><title>Node7&#45;&gt;Node9</title>
<path fill="none" stroke="midnightblue" d="M373.775,-56.083C379.142,-48.4554 387.018,-37.2645 393.579,-27.9408"/>
<polygon fill="midnightblue" stroke="midnightblue" points="396.449,-29.9434 399.342,-19.7511 390.725,-25.9149 396.449,-29.9434"/>
</g>
<!-- Node10&#45;&gt;Node7 -->
<g id="edge10" class="edge"><title>Node10&#45;&gt;Node7</title>
<path fill="none" stroke="midnightblue" d="M253.891,-112.444C276.207,-103.517 311.403,-89.4387 336.708,-79.3168"/>
<polygon fill="midnightblue" stroke="midnightblue" points="338.224,-82.4801 346.209,-75.5164 335.624,-75.9807 338.224,-82.4801"/>
</g>
<!-- Node11 -->
<g id="node11" class="node"><title>Node11</title>
<polygon fill="white" stroke="#bfbfbf" points="84,-56.5 84,-75.5 125,-75.5 125,-56.5 84,-56.5"/>
<text text-anchor="middle" x="104.5" y="-63.5" font-family="Helvetica,sans-Serif" font-size="10.00">string</text>
</g>
<!-- Node10&#45;&gt;Node11 -->
<g id="edge11" class="edge"><title>Node10&#45;&gt;Node11</title>
<path fill="none" stroke="midnightblue" d="M212.218,-112.444C191.153,-103.557 157.983,-89.5632 134.014,-79.4514"/>
<polygon fill="midnightblue" stroke="midnightblue" points="135.261,-76.1787 124.687,-75.5164 132.54,-82.6283 135.261,-76.1787"/>
</g>
<!-- Node12 -->
<g id="node12" class="node"><title>Node12</title>
<polygon fill="white" stroke="#bfbfbf" points="163,-56.5 163,-75.5 202,-75.5 202,-56.5 163,-56.5"/>
<text text-anchor="middle" x="182.5" y="-63.5" font-family="Helvetica,sans-Serif" font-size="10.00">limits</text>
</g>
<!-- Node10&#45;&gt;Node12 -->
<g id="edge12" class="edge"><title>Node10&#45;&gt;Node12</title>
<path fill="none" stroke="midnightblue" d="M224.244,-112.083C217.035,-104.298 206.39,-92.8015 197.654,-83.3665"/>
<polygon fill="midnightblue" stroke="midnightblue" points="199.965,-80.7108 190.603,-75.7511 194.829,-85.4666 199.965,-80.7108"/>
</g>
<!-- Node13 -->
<g id="node13" class="node"><title>Node13</title>
<polygon fill="white" stroke="#bfbfbf" points="220.5,-56.5 220.5,-75.5 272.5,-75.5 272.5,-56.5 220.5,-56.5"/>
<text text-anchor="middle" x="246.5" y="-63.5" font-family="Helvetica,sans-Serif" font-size="10.00">sstream</text>
</g>
<!-- Node10&#45;&gt;Node13 -->
<g id="edge13" class="edge"><title>Node10&#45;&gt;Node13</title>
<path fill="none" stroke="midnightblue" d="M234.812,-112.083C236.667,-104.927 239.335,-94.6353 241.654,-85.6911"/>
<polygon fill="midnightblue" stroke="midnightblue" points="245.109,-86.3094 244.231,-75.7511 238.334,-84.5527 245.109,-86.3094"/>
</g>
<!-- Node14&#45;&gt;Node5 -->
<g id="edge16" class="edge"><title>Node14&#45;&gt;Node5</title>
<path fill="none" stroke="midnightblue" d="M75.1813,-112.324C66.6074,-104.341 53.6878,-92.3128 43.3124,-82.6529"/>
<polygon fill="midnightblue" stroke="midnightblue" points="45.6922,-80.0865 35.9883,-75.8339 40.9223,-85.2098 45.6922,-80.0865"/>
</g>
<!-- Node14&#45;&gt;Node7 -->
<g id="edge17" class="edge"><title>Node14&#45;&gt;Node7</title>
<path fill="none" stroke="midnightblue" d="M129.342,-112.444C179.125,-102.944 259.483,-87.611 312.892,-77.4198"/>
<polygon fill="midnightblue" stroke="midnightblue" points="313.701,-80.8288 322.868,-75.5164 312.389,-73.9528 313.701,-80.8288"/>
</g>
<!-- Node14&#45;&gt;Node11 -->
<g id="edge15" class="edge"><title>Node14&#45;&gt;Node11</title>
<path fill="none" stroke="midnightblue" d="M87.8026,-112.083C90.482,-104.849 94.3486,-94.4087 97.6864,-85.3968"/>
<polygon fill="midnightblue" stroke="midnightblue" points="101.068,-86.3442 101.259,-75.7511 94.5035,-83.9129 101.068,-86.3442"/>
</g>
<!-- Node16&#45;&gt;Node3 -->
<g id="edge22" class="edge"><title>Node16&#45;&gt;Node3</title>
<path fill="none" stroke="midnightblue" d="M567.574,-168.083C560.654,-160.298 550.435,-148.801 542.048,-139.367"/>
<polygon fill="midnightblue" stroke="midnightblue" points="544.538,-136.9 535.279,-131.751 539.306,-141.55 544.538,-136.9"/>
</g>
<!-- Node16&#45;&gt;Node6 -->
<g id="edge24" class="edge"><title>Node16&#45;&gt;Node6</title>
<path fill="none" stroke="midnightblue" d="M556.01,-168.444C535.858,-159.596 504.177,-145.687 481.169,-135.586"/>
<polygon fill="midnightblue" stroke="midnightblue" points="482.462,-132.332 471.899,-131.516 479.648,-138.741 482.462,-132.332"/>
</g>
<!-- Node16&#45;&gt;Node7 -->
<g id="edge25" class="edge"><title>Node16&#45;&gt;Node7</title>
<path fill="none" stroke="midnightblue" d="M624.525,-169.233C627.56,-168.802 630.57,-168.387 633.5,-168 707.241,-158.261 1014.08,-166.54 963.5,-112 927.577,-73.2619 571.627,-67.6794 427.562,-67.016"/>
<polygon fill="midnightblue" stroke="midnightblue" points="427.166,-63.5145 417.152,-66.975 427.138,-70.5145 427.166,-63.5145"/>
</g>
<!-- Node17 -->
<g id="node17" class="node"><title>Node17</title>
<polygon fill="white" stroke="#bfbfbf" points="560.5,-112.5 560.5,-131.5 590.5,-131.5 590.5,-112.5 560.5,-112.5"/>
<text text-anchor="middle" x="575.5" y="-119.5" font-family="Helvetica,sans-Serif" font-size="10.00">set</text>
</g>
<!-- Node16&#45;&gt;Node17 -->
<g id="edge21" class="edge"><title>Node16&#45;&gt;Node17</title>
<path fill="none" stroke="midnightblue" d="M575.5,-168.083C575.5,-161.006 575.5,-150.861 575.5,-141.986"/>
<polygon fill="midnightblue" stroke="midnightblue" points="579,-141.751 575.5,-131.751 572,-141.751 579,-141.751"/>
</g>
<!-- Node18 -->
<g id="node18" class="node"><title>Node18</title>
<polygon fill="white" stroke="#bfbfbf" points="609,-112.5 609,-131.5 664,-131.5 664,-112.5 609,-112.5"/>
<text text-anchor="middle" x="636.5" y="-119.5" font-family="Helvetica,sans-Serif" font-size="10.00">iostream</text>
</g>
<!-- Node16&#45;&gt;Node18 -->
<g id="edge23" class="edge"><title>Node16&#45;&gt;Node18</title>
<path fill="none" stroke="midnightblue" d="M585.301,-168.324C594.318,-160.341 607.906,-148.313 618.818,-138.653"/>
<polygon fill="midnightblue" stroke="midnightblue" points="621.353,-141.083 626.521,-131.834 616.713,-135.842 621.353,-141.083"/>
</g>
<!-- Node19 -->
<g id="node19" class="node"><title>Node19</title>
<polygon fill="white" stroke="#bfbfbf" points="682,-112.5 682,-131.5 817,-131.5 817,-112.5 682,-112.5"/>
<text text-anchor="middle" x="749.5" y="-119.5" font-family="Helvetica,sans-Serif" font-size="10.00">xercesc/util/XMLString.hpp</text>
</g>
<!-- Node16&#45;&gt;Node19 -->
<g id="edge26" class="edge"><title>Node16&#45;&gt;Node19</title>
<path fill="none" stroke="midnightblue" d="M603.071,-168.444C632.597,-159.28 679.618,-144.688 712.383,-134.519"/>
<polygon fill="midnightblue" stroke="midnightblue" points="713.545,-137.823 722.058,-131.516 711.47,-131.138 713.545,-137.823"/>
</g>
<!-- Node20 -->
<g id="node20" class="node"><title>Node20</title>
<polygon fill="white" stroke="#bfbfbf" points="835,-112.5 835,-131.5 954,-131.5 954,-112.5 835,-112.5"/>
<text text-anchor="middle" x="894.5" y="-119.5" font-family="Helvetica,sans-Serif" font-size="10.00">xercesc/dom/DOM.hpp</text>
</g>
<!-- Node16&#45;&gt;Node20 -->
<g id="edge27" class="edge"><title>Node16&#45;&gt;Node20</title>
<path fill="none" stroke="midnightblue" d="M624.645,-168.681C680.982,-159.144 773.347,-143.509 834.043,-133.234"/>
<polygon fill="midnightblue" stroke="midnightblue" points="834.971,-136.627 844.246,-131.507 833.802,-129.725 834.971,-136.627"/>
</g>
</g>
</svg>
        <g id="navigator" transform="translate(0 0)" fill="#404254">
                <rect fill="#f2f5e9" fill-opacity="0.5" stroke="#606060" stroke-width=".5" x="0" y="0" width="60" height="60"/>
                <use id="zoomplus" xlink:href="#zoomPlus" x="17" y="9" onmousedown="handleZoom(evt,'in')"/>
                <use id="zoomminus" xlink:href="#zoomMin" x="42" y="9" onmousedown="handleZoom(evt,'out')"/>
                <use id="reset" xlink:href="#resetDef" x="30" y="36" onmousedown="handleReset()"/>
                <g id="arrowUp" xlink:href="#dirArrow" transform="translate(30 24)" onmousedown="handlePan(0,-1)">
                  <use xlink:href="#rim" fill="#404040">
                        <set attributeName="fill" to="#808080" begin="arrowUp.mouseover" end="arrowUp.mouseout"/>
                  </use>
                  <path fill="none" stroke="white" stroke-width="1.5" d="M0,-3.0v7 M-2.5,-0.5L0,-3.0L2.5,-0.5"/>
                </g>
                <g id="arrowRight" xlink:href="#dirArrow" transform="rotate(90) translate(36 -43)" onmousedown="handlePan(1,0)">
                  <use xlink:href="#rim" fill="#404040">
                        <set attributeName="fill" to="#808080" begin="arrowRight.mouseover" end="arrowRight.mouseout"/>
                  </use>
                  <path fill="none" stroke="white" stroke-width="1.5" d="M0,-3.0v7 M-2.5,-0.5L0,-3.0L2.5,-0.5"/>
                </g>
                <g id="arrowDown" xlink:href="#dirArrow" transform="rotate(180) translate(-30 -48)" onmousedown="handlePan(0,1)">
                  <use xlink:href="#rim" fill="#404040">
                        <set attributeName="fill" to="#808080" begin="arrowDown.mouseover" end="arrowDown.mouseout"/>
                  </use>
                  <path fill="none" stroke="white" stroke-width="1.5" d="M0,-3.0v7 M-2.5,-0.5L0,-3.0L2.5,-0.5"/>
                </g>
                <g id="arrowLeft" xlink:href="#dirArrow" transform="rotate(270) translate(-36 17)" onmousedown="handlePan(-1,0)">
                  <use xlink:href="#rim" fill="#404040">
                        <set attributeName="fill" to="#808080" begin="arrowLeft.mouseover" end="arrowLeft.mouseout"/>
                  </use>
                  <path fill="none" stroke="white" stroke-width="1.5" d="M0,-3.0v7 M-2.5,-0.5L0,-3.0L2.5,-0.5"/>
                </g>
        </g>
        <svg viewBox="0 0 15 15" width="100%" height="30px" preserveAspectRatio="xMaxYMin meet">
         <g id="arrow_out" transform="scale(0.3 0.3)">
          <a xlink:href="_data_8cpp__incl_org.svg" target="_base">
           <rect id="button" ry="5" rx="5" y="6" x="6" height="38" width="38"
                fill="#f2f5e9" fill-opacity="0.5" stroke="#606060" stroke-width="1.0"/>
           <path id="arrow"
             d="M 11.500037,31.436501 C 11.940474,20.09759 22.043105,11.32322 32.158766,21.979434 L 37.068811,17.246167 C 37.068811,17.246167 37.088388,32 37.088388,32 L 22.160133,31.978069 C 22.160133,31.978069 26.997745,27.140456 26.997745,27.140456 C 18.528582,18.264221 13.291696,25.230495 11.500037,31.436501 z"
             style="fill:#404040;"/>
          </a>
         </g>
        </svg>
</svg>
