<?xml version="1.0" encoding="UTF-8" standalone="no"?>
<!DOCTYPE svg PUBLIC "-//W3C//DTD SVG 1.1//EN"
 "http://www.w3.org/Graphics/SVG/1.1/DTD/svg11.dtd">
<!-- Generated by graphviz version 2.38.0 (20140413.2041)
 -->
<!-- Title: plugins/DataModel.h Pages: 1 -->
<svg width="1338pt" height="386pt"
 viewBox="0.00 0.00 1338.14 386.00" xmlns="http://www.w3.org/2000/svg" xmlns:xlink="http://www.w3.org/1999/xlink">
<g id="graph0" class="graph" transform="scale(1 1) rotate(0) translate(4 382)">
<title>plugins/DataModel.h</title>
<polygon fill="white" stroke="none" points="-4,4 -4,-382 1334.14,-382 1334.14,4 -4,4"/>
<!-- Node1 -->
<g id="node1" class="node"><title>Node1</title>
<polygon fill="#bfbfbf" stroke="black" points="692.636,-358.5 692.636,-377.5 800.636,-377.5 800.636,-358.5 692.636,-358.5"/>
<text text-anchor="middle" x="746.636" y="-365.5" font-family="Helvetica,sans-Serif" font-size="10.00">plugins/DataModel.h</text>
</g>
<!-- Node2 -->
<g id="node2" class="node"><title>Node2</title>
<g id="a_node2"><a xlink:href="_interpreter_8h.html" target="_top" xlink:title="Interpreter.h">
<polygon fill="white" stroke="black" points="655.136,-302.5 655.136,-321.5 726.136,-321.5 726.136,-302.5 655.136,-302.5"/>
<text text-anchor="middle" x="690.636" y="-309.5" font-family="Helvetica,sans-Serif" font-size="10.00">Interpreter.h</text>
</a>
</g>
</g>
<!-- Node1&#45;&gt;Node2 -->
<g id="edge1" class="edge"><title>Node1&#45;&gt;Node2</title>
<path fill="none" stroke="midnightblue" d="M730.307,-351.253C720.371,-341.673 708.049,-329.791 699.797,-321.834"/>
<polygon fill="midnightblue" stroke="midnightblue" points="728.011,-353.902 737.639,-358.324 732.87,-348.863 728.011,-353.902"/>
</g>
<!-- Node23 -->
<g id="node23" class="node"><title>Node23</title>
<g id="a_node23"><a xlink:href="_data_model_8cpp.html" target="_top" xlink:title="plugins/DataModel.cpp">
<polygon fill="white" stroke="black" points="744.636,-302.5 744.636,-321.5 862.636,-321.5 862.636,-302.5 744.636,-302.5"/>
<text text-anchor="middle" x="803.636" y="-309.5" font-family="Helvetica,sans-Serif" font-size="10.00">plugins/DataModel.cpp</text>
</a>
</g>
</g>
<!-- Node1&#45;&gt;Node23 -->
<g id="edge29" class="edge"><title>Node1&#45;&gt;Node23</title>
<path fill="none" stroke="midnightblue" d="M763.258,-351.253C773.37,-341.673 785.913,-329.791 794.312,-321.834"/>
<polygon fill="midnightblue" stroke="midnightblue" points="760.647,-348.906 755.794,-358.324 765.461,-353.987 760.647,-348.906"/>
</g>
<!-- Node3 -->
<g id="node3" class="node"><title>Node3</title>
<g id="a_node3"><a xlink:href="_micro_step_impl_8h.html" target="_top" xlink:title="interpreter/MicroStepImpl.h">
<polygon fill="white" stroke="black" points="496.136,-246.5 496.136,-265.5 633.136,-265.5 633.136,-246.5 496.136,-246.5"/>
<text text-anchor="middle" x="564.636" y="-253.5" font-family="Helvetica,sans-Serif" font-size="10.00">interpreter/MicroStepImpl.h</text>
</a>
</g>
</g>
<!-- Node2&#45;&gt;Node3 -->
<g id="edge2" class="edge"><title>Node2&#45;&gt;Node3</title>
<path fill="none" stroke="midnightblue" d="M661.477,-298.503C637.855,-288.38 605.208,-274.388 584.508,-265.516"/>
<polygon fill="midnightblue" stroke="midnightblue" points="660.101,-301.721 670.671,-302.444 662.859,-295.287 660.101,-301.721"/>
</g>
<!-- Node6 -->
<g id="node6" class="node"><title>Node6</title>
<g id="a_node6"><a xlink:href="_interpreter_impl_8cpp.html" target="_top" xlink:title="interpreter/InterpreterImpl.cpp">
<polygon fill="white" stroke="black" points="182.136,-129 182.136,-148 331.136,-148 331.136,-129 182.136,-129"/>
<text text-anchor="middle" x="256.636" y="-136" font-family="Helvetica,sans-Serif" font-size="10.00">interpreter/InterpreterImpl.cpp</text>
</a>
</g>
</g>
<!-- Node2&#45;&gt;Node6 -->
<g id="edge24" class="edge"><title>Node2&#45;&gt;Node6</title>
<path fill="none" stroke="midnightblue" d="M644.795,-305.824C548.07,-293.984 327.717,-261.881 275.636,-210 258.753,-193.181 256.42,-163.044 256.372,-148.22"/>
<polygon fill="midnightblue" stroke="midnightblue" points="644.515,-309.315 654.862,-307.037 645.352,-302.365 644.515,-309.315"/>
</g>
<!-- Node9 -->
<g id="node9" class="node"><title>Node9</title>
<g id="a_node9"><a xlink:href="_interpreter_8cpp.html" target="_top" xlink:title="Interpreter.cpp">
<polygon fill="white" stroke="black" points="1004.64,-129 1004.64,-148 1086.64,-148 1086.64,-129 1004.64,-129"/>
<text text-anchor="middle" x="1045.64" y="-136" font-family="Helvetica,sans-Serif" font-size="10.00">Interpreter.cpp</text>
</a>
</g>
</g>
<!-- Node2&#45;&gt;Node9 -->
<g id="edge25" class="edge"><title>Node2&#45;&gt;Node9</title>
<path fill="none" stroke="midnightblue" d="M698.393,-292.681C710.952,-265.448 738.453,-214.835 778.636,-190 861.425,-138.834 899.681,-175.341 994.636,-154 1002.18,-152.304 1010.26,-150.16 1017.72,-148.045"/>
<polygon fill="midnightblue" stroke="midnightblue" points="695.037,-291.614 694.187,-302.175 701.438,-294.45 695.037,-291.614"/>
</g>
<!-- Node11 -->
<g id="node11" class="node"><title>Node11</title>
<g id="a_node11"><a xlink:href="_factory_8cpp.html" target="_top" xlink:title="plugins/Factory.cpp">
<polygon fill="white" stroke="black" points="571.136,-62 571.136,-81 674.136,-81 674.136,-62 571.136,-62"/>
<text text-anchor="middle" x="622.636" y="-69" font-family="Helvetica,sans-Serif" font-size="10.00">plugins/Factory.cpp</text>
</a>
</g>
</g>
<!-- Node2&#45;&gt;Node11 -->
<g id="edge26" class="edge"><title>Node2&#45;&gt;Node11</title>
<path fill="none" stroke="midnightblue" d="M645.001,-308.069C504.329,-297.955 82.2978,-259.173 6.63639,-154 -1.40958,-142.816 -2.78538,-133.053 6.63639,-123 48.8951,-77.9114 500.526,-96.1781 561.636,-87 571.325,-85.545 581.74,-83.3208 591.174,-81.0483"/>
<polygon fill="midnightblue" stroke="midnightblue" points="644.803,-311.564 655.024,-308.775 645.295,-304.581 644.803,-311.564"/>
</g>
<!-- Node16 -->
<g id="node16" class="node"><title>Node16</title>
<g id="a_node16"><a xlink:href="_transformer_8h.html" target="_top" xlink:title="transform/Transformer.h">
<polygon fill="white" stroke="black" points="1104.64,-129 1104.64,-148 1228.64,-148 1228.64,-129 1104.64,-129"/>
<text text-anchor="middle" x="1166.64" y="-136" font-family="Helvetica,sans-Serif" font-size="10.00">transform/Transformer.h</text>
</a>
</g>
</g>
<!-- Node2&#45;&gt;Node16 -->
<g id="edge27" class="edge"><title>Node2&#45;&gt;Node16</title>
<path fill="none" stroke="midnightblue" d="M712.966,-297.232C736.756,-282.992 775.843,-260.806 811.636,-246 924.015,-199.516 1063.96,-163.62 1129.51,-148.014"/>
<polygon fill="midnightblue" stroke="midnightblue" points="711.09,-294.277 704.345,-302.447 714.713,-300.266 711.09,-294.277"/>
</g>
<!-- Node22 -->
<g id="node22" class="node"><title>Node22</title>
<g id="a_node22"><a xlink:href="uscxml_8h.html" target="_top" xlink:title="uscxml.h">
<polygon fill="white" stroke="black" points="820.636,-246.5 820.636,-265.5 876.636,-265.5 876.636,-246.5 820.636,-246.5"/>
<text text-anchor="middle" x="848.636" y="-253.5" font-family="Helvetica,sans-Serif" font-size="10.00">uscxml.h</text>
</a>
</g>
</g>
<!-- Node2&#45;&gt;Node22 -->
<g id="edge28" class="edge"><title>Node2&#45;&gt;Node22</title>
<path fill="none" stroke="midnightblue" d="M725.244,-299.172C754.995,-289.004 797.184,-274.585 823.718,-265.516"/>
<polygon fill="midnightblue" stroke="midnightblue" points="724.003,-295.898 715.672,-302.444 726.267,-302.521 724.003,-295.898"/>
</g>
<!-- Node4 -->
<g id="node4" class="node"><title>Node4</title>
<g id="a_node4"><a xlink:href="_fast_micro_step_8h.html" target="_top" xlink:title="interpreter/FastMicroStep.h">
<polygon fill="white" stroke="black" points="432.636,-190.5 432.636,-209.5 570.636,-209.5 570.636,-190.5 432.636,-190.5"/>
<text text-anchor="middle" x="501.636" y="-197.5" font-family="Helvetica,sans-Serif" font-size="10.00">interpreter/FastMicroStep.h</text>
</a>
</g>
</g>
<!-- Node3&#45;&gt;Node4 -->
<g id="edge3" class="edge"><title>Node3&#45;&gt;Node4</title>
<path fill="none" stroke="midnightblue" d="M546.596,-239.537C535.363,-229.909 521.317,-217.869 511.943,-209.834"/>
<polygon fill="midnightblue" stroke="midnightblue" points="544.644,-242.473 554.514,-246.324 549.2,-237.159 544.644,-242.473"/>
</g>
<!-- Node7 -->
<g id="node7" class="node"><title>Node7</title>
<g id="a_node7"><a xlink:href="_interpreter_impl_8h.html" target="_top" xlink:title="interpreter/InterpreterImpl.h">
<polygon fill="white" stroke="black" points="588.636,-190.5 588.636,-209.5 726.636,-209.5 726.636,-190.5 588.636,-190.5"/>
<text text-anchor="middle" x="657.636" y="-197.5" font-family="Helvetica,sans-Serif" font-size="10.00">interpreter/InterpreterImpl.h</text>
</a>
</g>
</g>
<!-- Node3&#45;&gt;Node7 -->
<g id="edge6" class="edge"><title>Node3&#45;&gt;Node7</title>
<path fill="none" stroke="midnightblue" d="M588.442,-241.177C605.555,-231.241 628.102,-218.149 642.731,-209.655"/>
<polygon fill="midnightblue" stroke="midnightblue" points="586.469,-238.276 579.578,-246.324 589.984,-244.329 586.469,-238.276"/>
</g>
<!-- Node21 -->
<g id="node21" class="node"><title>Node21</title>
<g id="a_node21"><a xlink:href="_micro_step_8cpp.html" target="_top" xlink:title="interpreter/MicroStep.cpp">
<polygon fill="white" stroke="black" points="285.136,-190.5 285.136,-209.5 414.136,-209.5 414.136,-190.5 285.136,-190.5"/>
<text text-anchor="middle" x="349.636" y="-197.5" font-family="Helvetica,sans-Serif" font-size="10.00">interpreter/MicroStep.cpp</text>
</a>
</g>
</g>
<!-- Node3&#45;&gt;Node21 -->
<g id="edge23" class="edge"><title>Node3&#45;&gt;Node21</title>
<path fill="none" stroke="midnightblue" d="M520.677,-243.959C480.069,-233.76 420.593,-218.822 383.544,-209.516"/>
<polygon fill="midnightblue" stroke="midnightblue" points="520.018,-247.402 530.569,-246.444 521.723,-240.613 520.018,-247.402"/>
</g>
<!-- Node5 -->
<g id="node5" class="node"><title>Node5</title>
<g id="a_node5"><a xlink:href="_fast_micro_step_8cpp.html" target="_top" xlink:title="interpreter/FastMicroStep.cpp">
<polygon fill="white" stroke="black" points="15.6364,-129 15.6364,-148 163.636,-148 163.636,-129 15.6364,-129"/>
<text text-anchor="middle" x="89.6364" y="-136" font-family="Helvetica,sans-Serif" font-size="10.00">interpreter/FastMicroStep.cpp</text>
</a>
</g>
</g>
<!-- Node4&#45;&gt;Node5 -->
<g id="edge4" class="edge"><title>Node4&#45;&gt;Node5</title>
<path fill="none" stroke="midnightblue" d="M423.774,-189.176C357.034,-180.557 258.38,-167.349 172.636,-154 160.929,-152.177 148.321,-150.056 136.554,-148.008"/>
<polygon fill="midnightblue" stroke="midnightblue" points="423.429,-192.66 433.794,-190.466 424.323,-185.717 423.429,-192.66"/>
</g>
<!-- Node4&#45;&gt;Node6 -->
<g id="edge5" class="edge"><title>Node4&#45;&gt;Node6</title>
<path fill="none" stroke="midnightblue" d="M456.811,-188.114C409.258,-176.565 335.125,-158.561 291.674,-148.009"/>
<polygon fill="midnightblue" stroke="midnightblue" points="455.99,-191.516 466.534,-190.475 457.642,-184.714 455.99,-191.516"/>
</g>
<!-- Node7&#45;&gt;Node6 -->
<g id="edge8" class="edge"><title>Node7&#45;&gt;Node6</title>
<path fill="none" stroke="midnightblue" d="M583.452,-189.108C519.149,-180.381 423.643,-167.053 340.636,-154 328.941,-152.161 316.352,-150.055 304.57,-148.029"/>
<polygon fill="midnightblue" stroke="midnightblue" points="583.119,-192.595 593.498,-190.468 584.058,-185.658 583.119,-192.595"/>
</g>
<!-- Node8 -->
<g id="node8" class="node"><title>Node8</title>
<g id="a_node8"><a xlink:href="_interpreter_issue_8cpp.html" target="_top" xlink:title="debug/InterpreterIssue.cpp">
<polygon fill="white" stroke="black" points="349.636,-129 349.636,-148 485.636,-148 485.636,-129 349.636,-129"/>
<text text-anchor="middle" x="417.636" y="-136" font-family="Helvetica,sans-Serif" font-size="10.00">debug/InterpreterIssue.cpp</text>
</a>
</g>
</g>
<!-- Node7&#45;&gt;Node8 -->
<g id="edge7" class="edge"><title>Node7&#45;&gt;Node8</title>
<path fill="none" stroke="midnightblue" d="M613.433,-188.041C566.84,-176.49 494.434,-158.539 451.959,-148.009"/>
<polygon fill="midnightblue" stroke="midnightblue" points="612.702,-191.466 623.25,-190.475 614.386,-184.672 612.702,-191.466"/>
</g>
<!-- Node7&#45;&gt;Node9 -->
<g id="edge9" class="edge"><title>Node7&#45;&gt;Node9</title>
<path fill="none" stroke="midnightblue" d="M736.975,-189.747C820.681,-179.745 946.946,-163.91 994.636,-154 1002.39,-152.389 1010.69,-150.225 1018.29,-148.06"/>
<polygon fill="midnightblue" stroke="midnightblue" points="736.502,-186.279 726.986,-190.937 737.33,-193.229 736.502,-186.279"/>
</g>
<!-- Node10 -->
<g id="node10" class="node"><title>Node10</title>
<g id="a_node10"><a xlink:href="_u_s_c_x_m_l_invoker_8h.html" target="_top" xlink:title="plugins/invoker/scxml\l/USCXMLInvoker.h">
<polygon fill="white" stroke="black" points="503.636,-123.5 503.636,-153.5 615.636,-153.5 615.636,-123.5 503.636,-123.5"/>
<text text-anchor="start" x="511.636" y="-141.5" font-family="Helvetica,sans-Serif" font-size="10.00">plugins/invoker/scxml</text>
<text text-anchor="middle" x="559.636" y="-130.5" font-family="Helvetica,sans-Serif" font-size="10.00">/USCXMLInvoker.h</text>
</a>
</g>
</g>
<!-- Node7&#45;&gt;Node10 -->
<g id="edge10" class="edge"><title>Node7&#45;&gt;Node10</title>
<path fill="none" stroke="midnightblue" d="M635.032,-185.276C619.349,-175.754 598.523,-163.11 582.733,-153.523"/>
<polygon fill="midnightblue" stroke="midnightblue" points="633.231,-188.277 643.595,-190.475 636.864,-182.294 633.231,-188.277"/>
</g>
<!-- Node13 -->
<g id="node13" class="node"><title>Node13</title>
<g id="a_node13"><a xlink:href="_basic_h_t_t_p_i_o_processor_8h.html" target="_top" xlink:title="plugins/ioprocessor\l/basichttp/BasicHTTPIOProcessor.h">
<polygon fill="white" stroke="black" points="809.136,-123.5 809.136,-153.5 986.136,-153.5 986.136,-123.5 809.136,-123.5"/>
<text text-anchor="start" x="817.136" y="-141.5" font-family="Helvetica,sans-Serif" font-size="10.00">plugins/ioprocessor</text>
<text text-anchor="middle" x="897.636" y="-130.5" font-family="Helvetica,sans-Serif" font-size="10.00">/basichttp/BasicHTTPIOProcessor.h</text>
</a>
</g>
</g>
<!-- Node7&#45;&gt;Node13 -->
<g id="edge13" class="edge"><title>Node7&#45;&gt;Node13</title>
<path fill="none" stroke="midnightblue" d="M701.823,-188.045C741.029,-178.326 798.52,-164.073 841.073,-153.523"/>
<polygon fill="midnightblue" stroke="midnightblue" points="700.886,-184.672 692.023,-190.475 702.571,-191.466 700.886,-184.672"/>
</g>
<!-- Node15 -->
<g id="node15" class="node"><title>Node15</title>
<g id="a_node15"><a xlink:href="_s_c_x_m_l_i_o_processor_8cpp.html" target="_top" xlink:title="plugins/ioprocessor\l/scxml/SCXMLIOProcessor.cpp">
<polygon fill="white" stroke="black" points="634.136,-123.5 634.136,-153.5 791.136,-153.5 791.136,-123.5 634.136,-123.5"/>
<text text-anchor="start" x="642.136" y="-141.5" font-family="Helvetica,sans-Serif" font-size="10.00">plugins/ioprocessor</text>
<text text-anchor="middle" x="712.636" y="-130.5" font-family="Helvetica,sans-Serif" font-size="10.00">/scxml/SCXMLIOProcessor.cpp</text>
</a>
</g>
</g>
<!-- Node7&#45;&gt;Node15 -->
<g id="edge16" class="edge"><title>Node7&#45;&gt;Node15</title>
<path fill="none" stroke="midnightblue" d="M672.343,-183.091C680.856,-173.88 691.475,-162.393 699.674,-153.523"/>
<polygon fill="midnightblue" stroke="midnightblue" points="669.734,-180.756 665.517,-190.475 674.875,-185.508 669.734,-180.756"/>
</g>
<!-- Node7&#45;&gt;Node16 -->
<g id="edge17" class="edge"><title>Node7&#45;&gt;Node16</title>
<path fill="none" stroke="midnightblue" d="M737.113,-193.216C825.101,-186.259 970.984,-173.084 1095.64,-154 1106.33,-152.363 1117.85,-150.189 1128.44,-148.024"/>
<polygon fill="midnightblue" stroke="midnightblue" points="736.635,-189.742 726.939,-194.013 737.182,-196.721 736.635,-189.742"/>
</g>
<!-- Node10&#45;&gt;Node11 -->
<g id="edge11" class="edge"><title>Node10&#45;&gt;Node11</title>
<path fill="none" stroke="midnightblue" d="M580.478,-115.997C591.977,-104.132 605.625,-90.0516 614.209,-81.1945"/>
<polygon fill="midnightblue" stroke="midnightblue" points="577.753,-113.779 573.306,-123.396 582.779,-118.651 577.753,-113.779"/>
</g>
<!-- Node12 -->
<g id="node12" class="node"><title>Node12</title>
<g id="a_node12"><a xlink:href="_u_s_c_x_m_l_invoker_8cpp.html" target="_top" xlink:title="plugins/invoker/scxml\l/USCXMLInvoker.cpp">
<polygon fill="white" stroke="black" points="440.136,-56.5 440.136,-86.5 553.136,-86.5 553.136,-56.5 440.136,-56.5"/>
<text text-anchor="start" x="448.136" y="-74.5" font-family="Helvetica,sans-Serif" font-size="10.00">plugins/invoker/scxml</text>
<text text-anchor="middle" x="496.636" y="-63.5" font-family="Helvetica,sans-Serif" font-size="10.00">/USCXMLInvoker.cpp</text>
</a>
</g>
</g>
<!-- Node10&#45;&gt;Node12 -->
<g id="edge12" class="edge"><title>Node10&#45;&gt;Node12</title>
<path fill="none" stroke="midnightblue" d="M538.821,-116.024C529.435,-106.34 518.613,-95.1739 510.28,-86.5765"/>
<polygon fill="midnightblue" stroke="midnightblue" points="536.493,-118.651 545.966,-123.396 541.52,-113.779 536.493,-118.651"/>
</g>
<!-- Node13&#45;&gt;Node11 -->
<g id="edge14" class="edge"><title>Node13&#45;&gt;Node11</title>
<path fill="none" stroke="midnightblue" d="M828.459,-121.149C774.496,-108.394 701.712,-91.1905 658.719,-81.0287"/>
<polygon fill="midnightblue" stroke="midnightblue" points="827.767,-124.582 838.304,-123.476 829.377,-117.77 827.767,-124.582"/>
</g>
<!-- Node14 -->
<g id="node14" class="node"><title>Node14</title>
<g id="a_node14"><a xlink:href="_basic_h_t_t_p_i_o_processor_8cpp.html" target="_top" xlink:title="plugins/ioprocessor\l/basichttp/BasicHTTPIOProcessor.cpp">
<polygon fill="white" stroke="black" points="804.136,-56.5 804.136,-86.5 991.136,-86.5 991.136,-56.5 804.136,-56.5"/>
<text text-anchor="start" x="812.136" y="-74.5" font-family="Helvetica,sans-Serif" font-size="10.00">plugins/ioprocessor</text>
<text text-anchor="middle" x="897.636" y="-63.5" font-family="Helvetica,sans-Serif" font-size="10.00">/basichttp/BasicHTTPIOProcessor.cpp</text>
</a>
</g>
</g>
<!-- Node13&#45;&gt;Node14 -->
<g id="edge15" class="edge"><title>Node13&#45;&gt;Node14</title>
<path fill="none" stroke="midnightblue" d="M897.636,-113.108C897.636,-104.154 897.636,-94.3227 897.636,-86.5765"/>
<polygon fill="midnightblue" stroke="midnightblue" points="894.136,-113.396 897.636,-123.396 901.136,-113.396 894.136,-113.396"/>
</g>
<!-- Node17 -->
<g id="node17" class="node"><title>Node17</title>
<g id="a_node17"><a xlink:href="_chart_to_c_8h.html" target="_top" xlink:title="transform/ChartToC.h">
<polygon fill="white" stroke="black" points="1025.14,-62 1025.14,-81 1138.14,-81 1138.14,-62 1025.14,-62"/>
<text text-anchor="middle" x="1081.64" y="-69" font-family="Helvetica,sans-Serif" font-size="10.00">transform/ChartToC.h</text>
</a>
</g>
</g>
<!-- Node16&#45;&gt;Node17 -->
<g id="edge18" class="edge"><title>Node16&#45;&gt;Node17</title>
<path fill="none" stroke="midnightblue" d="M1147.11,-122.568C1130.33,-109.738 1106.72,-91.6853 1092.92,-81.1273"/>
<polygon fill="midnightblue" stroke="midnightblue" points="1145.1,-125.44 1155.17,-128.734 1149.36,-119.879 1145.1,-125.44"/>
</g>
<!-- Node19 -->
<g id="node19" class="node"><title>Node19</title>
<g id="a_node19"><a xlink:href="_chart_to_v_h_d_l_8h.html" target="_top" xlink:title="transform/ChartToVHDL.h">
<polygon fill="white" stroke="black" points="1100.14,-0.5 1100.14,-19.5 1233.14,-19.5 1233.14,-0.5 1100.14,-0.5"/>
<text text-anchor="middle" x="1166.64" y="-7.5" font-family="Helvetica,sans-Serif" font-size="10.00">transform/ChartToVHDL.h</text>
</a>
</g>
</g>
<!-- Node16&#45;&gt;Node19 -->
<g id="edge21" class="edge"><title>Node16&#45;&gt;Node19</title>
<path fill="none" stroke="midnightblue" d="M1166.64,-118.435C1166.64,-90.6238 1166.64,-40.0373 1166.64,-19.7557"/>
<polygon fill="midnightblue" stroke="midnightblue" points="1163.14,-118.805 1166.64,-128.805 1170.14,-118.805 1163.14,-118.805"/>
</g>
<!-- Node20 -->
<g id="node20" class="node"><title>Node20</title>
<g id="a_node20"><a xlink:href="_transformer_8cpp.html" target="_top" xlink:title="transform/Transformer.cpp">
<polygon fill="white" stroke="black" points="1195.14,-62 1195.14,-81 1330.14,-81 1330.14,-62 1195.14,-62"/>
<text text-anchor="middle" x="1262.64" y="-69" font-family="Helvetica,sans-Serif" font-size="10.00">transform/Transformer.cpp</text>
</a>
</g>
</g>
<!-- Node16&#45;&gt;Node20 -->
<g id="edge22" class="edge"><title>Node16&#45;&gt;Node20</title>
<path fill="none" stroke="midnightblue" d="M1187.91,-123.095C1206.9,-110.236 1234.09,-91.8306 1249.89,-81.1273"/>
<polygon fill="midnightblue" stroke="midnightblue" points="1185.9,-120.229 1179.58,-128.734 1189.83,-126.025 1185.9,-120.229"/>
</g>
<!-- Node18 -->
<g id="node18" class="node"><title>Node18</title>
<g id="a_node18"><a xlink:href="_chart_to_c_8cpp.html" target="_top" xlink:title="transform/ChartToC.cpp">
<polygon fill="white" stroke="black" points="957.636,-0.5 957.636,-19.5 1081.64,-19.5 1081.64,-0.5 957.636,-0.5"/>
<text text-anchor="middle" x="1019.64" y="-7.5" font-family="Helvetica,sans-Serif" font-size="10.00">transform/ChartToC.cpp</text>
</a>
</g>
</g>
<!-- Node17&#45;&gt;Node18 -->
<g id="edge19" class="edge"><title>Node17&#45;&gt;Node18</title>
<path fill="none" stroke="midnightblue" d="M1065.3,-54.8245C1053.52,-43.5202 1038.07,-28.6928 1028.5,-19.5091"/>
<polygon fill="midnightblue" stroke="midnightblue" points="1063.11,-57.5762 1072.75,-61.9751 1067.96,-52.5257 1063.11,-57.5762"/>
</g>
<!-- Node17&#45;&gt;Node19 -->
<g id="edge20" class="edge"><title>Node17&#45;&gt;Node19</title>
<path fill="none" stroke="midnightblue" d="M1102.19,-56.1127C1118.54,-44.6691 1140.86,-29.046 1154.48,-19.5091"/>
<polygon fill="midnightblue" stroke="midnightblue" points="1100,-53.3731 1093.81,-61.9751 1104.01,-59.1078 1100,-53.3731"/>
</g>
</g>
</svg>
