<?xml version="1.0" encoding="UTF-8" standalone="no"?>
<!DOCTYPE svg PUBLIC "-//W3C//DTD SVG 1.1//EN"
 "http://www.w3.org/Graphics/SVG/1.1/DTD/svg11.dtd">
<!-- Generated by graphviz version 2.38.0 (20140413.2041)
 -->
<!-- Title: plugins/DataModelImpl.h Pages: 1 -->
<!--zoomable 431 -->
<svg id="main" version="1.1" xmlns="http://www.w3.org/2000/svg" xmlns:xlink="http://www.w3.org/1999/xlink" xml:space="preserve" onload="init(evt)">
<style type="text/css"><![CDATA[
.edge:hover path { stroke: red; }
.edge:hover polygon { stroke: red; fill: red; }
]]></style>
<script type="text/javascript"><![CDATA[
var edges = document.getElementsByTagName('g');
if (edges && edges.length) {
  for (var i=0;i<edges.length;i++) {
    if (edges[i].id.substr(0,4)=='edge') {
      edges[i].setAttribute('class','edge');
    }
  }
}
]]></script>
        <defs>
                <circle id="rim" cx="0" cy="0" r="7"/>
                <circle id="rim2" cx="0" cy="0" r="3.5"/>
                <g id="zoomPlus">
                        <use xlink:href="#rim" fill="#404040">
                                <set attributeName="fill" to="#808080" begin="zoomplus.mouseover" end="zoomplus.mouseout"/>
                        </use>
                        <path d="M-4,0h8M0,-4v8" fill="none" stroke="white" stroke-width="1.5" pointer-events="none"/>
                </g>
                <g id="zoomMin">
                        <use xlink:href="#rim" fill="#404040">
                                <set attributeName="fill" to="#808080" begin="zoomminus.mouseover" end="zoomminus.mouseout"/>
                        </use>
                        <path d="M-4,0h8" fill="none" stroke="white" stroke-width="1.5" pointer-events="none"/>
                </g>
                <g id="dirArrow">
                        <path fill="none" stroke="white" stroke-width="1.5" d="M0,-3.0v7 M-2.5,-0.5L0,-3.0L2.5,-0.5"/>
                </g>
               <g id="resetDef">
                       <use xlink:href="#rim2" fill="#404040">
                               <set attributeName="fill" to="#808080" begin="reset.mouseover" end="reset.mouseout"/>
                       </use>
               </g>
        </defs>

<script type="text/javascript">
var viewWidth = 985;
var viewHeight = 431;
var sectionId = 'dynsection-0';
</script>
<script xlink:href="svgpan.js"/>
<svg id="graph" class="graph">
<g id="viewport">
<title>plugins/DataModelImpl.h</title>
<polygon fill="white" stroke="none" points="-4,4 -4,-427 981.008,-427 981.008,4 -4,4"/>
<!-- Node1 -->
<g id="node1" class="node"><title>Node1</title>
<polygon fill="#bfbfbf" stroke="black" points="126.508,-403.5 126.508,-422.5 253.508,-422.5 253.508,-403.5 126.508,-403.5"/>
<text text-anchor="middle" x="190.008" y="-410.5" font-family="Helvetica,sans-Serif" font-size="10.00">plugins/DataModelImpl.h</text>
</g>
<!-- Node2 -->
<g id="node2" class="node"><title>Node2</title>
<g id="a_node2"><a xlink:href="_common_8h.html" target="_top" xlink:title="uscxml/Common.h">
<polygon fill="white" stroke="black" points="506.508,-56.5 506.508,-75.5 605.508,-75.5 605.508,-56.5 506.508,-56.5"/>
<text text-anchor="middle" x="556.008" y="-63.5" font-family="Helvetica,sans-Serif" font-size="10.00">uscxml/Common.h</text>
</a>
</g>
</g>
<!-- Node1&#45;&gt;Node2 -->
<g id="edge1" class="edge"><title>Node1&#45;&gt;Node2</title>
<path fill="none" stroke="midnightblue" d="M178.228,-403.231C167.864,-394.946 153.055,-381.634 144.008,-367 130.262,-344.763 130.057,-336.828 126.008,-311 112.124,-222.429 91.5685,-171.071 159.008,-112 183.847,-90.2439 391.364,-75.9567 496.071,-70.0638"/>
<polygon fill="midnightblue" stroke="midnightblue" points="496.388,-73.5517 506.179,-69.5031 496,-66.5625 496.388,-73.5517"/>
</g>
<!-- Node5 -->
<g id="node5" class="node"><title>Node5</title>
<g id="a_node5"><a xlink:href="_invoker_8h.html" target="_top" xlink:title="uscxml/plugins/Invoker.h">
<polygon fill="white" stroke="black" points="280.008,-347.5 280.008,-366.5 406.008,-366.5 406.008,-347.5 280.008,-347.5"/>
<text text-anchor="middle" x="343.008" y="-354.5" font-family="Helvetica,sans-Serif" font-size="10.00">uscxml/plugins/Invoker.h</text>
</a>
</g>
</g>
<!-- Node1&#45;&gt;Node5 -->
<g id="edge4" class="edge"><title>Node1&#45;&gt;Node5</title>
<path fill="none" stroke="midnightblue" d="M214.252,-403.444C239.879,-394.399 280.494,-380.064 309.247,-369.916"/>
<polygon fill="midnightblue" stroke="midnightblue" points="310.614,-373.145 318.879,-366.516 308.284,-366.544 310.614,-373.145"/>
</g>
<!-- Node9 -->
<g id="node9" class="node"><title>Node9</title>
<polygon fill="white" stroke="#bfbfbf" points="184.508,-112.5 184.508,-131.5 213.508,-131.5 213.508,-112.5 184.508,-112.5"/>
<text text-anchor="middle" x="199.008" y="-119.5" font-family="Helvetica,sans-Serif" font-size="10.00">list</text>
</g>
<!-- Node1&#45;&gt;Node9 -->
<g id="edge40" class="edge"><title>Node1&#45;&gt;Node9</title>
<path fill="none" stroke="midnightblue" d="M183.145,-403.489C170.265,-386.904 142.882,-348.584 133.008,-311 116.057,-246.473 162.109,-172.466 185.853,-139.889"/>
<polygon fill="midnightblue" stroke="midnightblue" points="188.689,-141.941 191.888,-131.841 183.089,-137.742 188.689,-141.941"/>
</g>
<!-- Node11 -->
<g id="node11" class="node"><title>Node11</title>
<polygon fill="white" stroke="#bfbfbf" points="307.508,-56.5 307.508,-75.5 360.508,-75.5 360.508,-56.5 307.508,-56.5"/>
<text text-anchor="middle" x="334.008" y="-63.5" font-family="Helvetica,sans-Serif" font-size="10.00">memory</text>
</g>
<!-- Node1&#45;&gt;Node11 -->
<g id="edge42" class="edge"><title>Node1&#45;&gt;Node11</title>
<path fill="none" stroke="midnightblue" d="M126.286,-408.891C92.0837,-404.05 51.4418,-392.747 24.0084,-367 -0.126254,-344.349 0.00841695,-329.599 0.00841695,-296.5 0.00841695,-296.5 0.00841695,-296.5 0.00841695,-177 0.00841695,-114.962 210.521,-82.0973 297.294,-71.1858"/>
<polygon fill="midnightblue" stroke="midnightblue" points="297.742,-74.6572 307.24,-69.9635 296.888,-67.7095 297.742,-74.6572"/>
</g>
<!-- Node13 -->
<g id="node13" class="node"><title>Node13</title>
<polygon fill="white" stroke="#bfbfbf" points="840.508,-56.5 840.508,-75.5 881.508,-75.5 881.508,-56.5 840.508,-56.5"/>
<text text-anchor="middle" x="861.008" y="-63.5" font-family="Helvetica,sans-Serif" font-size="10.00">string</text>
</g>
<!-- Node1&#45;&gt;Node13 -->
<g id="edge41" class="edge"><title>Node1&#45;&gt;Node13</title>
<path fill="none" stroke="midnightblue" d="M253.745,-409.332C441.103,-400.647 977.008,-369.432 977.008,-296.5 977.008,-296.5 977.008,-296.5 977.008,-177 977.008,-129.56 925.294,-96.4314 890.924,-79.6521"/>
<polygon fill="midnightblue" stroke="midnightblue" points="892.287,-76.426 881.747,-75.3547 889.319,-82.7653 892.287,-76.426"/>
</g>
<!-- Node18 -->
<g id="node18" class="node"><title>Node18</title>
<g id="a_node18"><a xlink:href="_i_o_processor_8h.html" target="_top" xlink:title="uscxml/plugins/IOProcessor.h">
<polygon fill="white" stroke="black" points="446.508,-347.5 446.508,-366.5 595.508,-366.5 595.508,-347.5 446.508,-347.5"/>
<text text-anchor="middle" x="521.008" y="-354.5" font-family="Helvetica,sans-Serif" font-size="10.00">uscxml/plugins/IOProcessor.h</text>
</a>
</g>
</g>
<!-- Node1&#45;&gt;Node18 -->
<g id="edge30" class="edge"><title>Node1&#45;&gt;Node18</title>
<path fill="none" stroke="midnightblue" d="M242.456,-403.444C301.167,-393.865 396.236,-378.356 458.691,-368.167"/>
<polygon fill="midnightblue" stroke="midnightblue" points="459.5,-371.581 468.806,-366.516 458.373,-364.672 459.5,-371.581"/>
</g>
<!-- Node19 -->
<g id="node19" class="node"><title>Node19</title>
<g id="a_node19"><a xlink:href="_logging_8h.html" target="_top" xlink:title="uscxml/interpreter\l/Logging.h">
<polygon fill="white" stroke="black" points="142.008,-280.5 142.008,-310.5 238.008,-310.5 238.008,-280.5 142.008,-280.5"/>
<text text-anchor="start" x="150.008" y="-298.5" font-family="Helvetica,sans-Serif" font-size="10.00">uscxml/interpreter</text>
<text text-anchor="middle" x="190.008" y="-287.5" font-family="Helvetica,sans-Serif" font-size="10.00">/Logging.h</text>
</a>
</g>
</g>
<!-- Node1&#45;&gt;Node19 -->
<g id="edge34" class="edge"><title>Node1&#45;&gt;Node19</title>
<path fill="none" stroke="midnightblue" d="M190.008,-403.319C190.008,-385.967 190.008,-346.457 190.008,-320.658"/>
<polygon fill="midnightblue" stroke="midnightblue" points="193.509,-320.545 190.008,-310.545 186.509,-320.545 193.509,-320.545"/>
</g>
<!-- Node3 -->
<g id="node3" class="node"><title>Node3</title>
<polygon fill="white" stroke="#bfbfbf" points="482.008,-0.5 482.008,-19.5 554.008,-19.5 554.008,-0.5 482.008,-0.5"/>
<text text-anchor="middle" x="518.008" y="-7.5" font-family="Helvetica,sans-Serif" font-size="10.00">sys/socket.h</text>
</g>
<!-- Node2&#45;&gt;Node3 -->
<g id="edge2" class="edge"><title>Node2&#45;&gt;Node3</title>
<path fill="none" stroke="midnightblue" d="M549.733,-56.083C544.366,-48.4554 536.491,-37.2645 529.93,-27.9408"/>
<polygon fill="midnightblue" stroke="midnightblue" points="532.784,-25.9149 524.167,-19.7511 527.059,-29.9434 532.784,-25.9149"/>
</g>
<!-- Node4 -->
<g id="node4" class="node"><title>Node4</title>
<polygon fill="white" stroke="#bfbfbf" points="572.008,-0.5 572.008,-19.5 616.008,-19.5 616.008,-0.5 572.008,-0.5"/>
<text text-anchor="middle" x="594.008" y="-7.5" font-family="Helvetica,sans-Serif" font-size="10.00">cmath</text>
</g>
<!-- Node2&#45;&gt;Node4 -->
<g id="edge3" class="edge"><title>Node2&#45;&gt;Node4</title>
<path fill="none" stroke="midnightblue" d="M562.283,-56.083C567.651,-48.4554 575.526,-37.2645 582.087,-27.9408"/>
<polygon fill="midnightblue" stroke="midnightblue" points="584.958,-29.9434 587.85,-19.7511 579.233,-25.9149 584.958,-29.9434"/>
</g>
<!-- Node5&#45;&gt;Node2 -->
<g id="edge5" class="edge"><title>Node5&#45;&gt;Node2</title>
<path fill="none" stroke="midnightblue" d="M340.562,-347.461C334.584,-324.647 321.768,-261.464 351.008,-224 383.699,-182.114 418.049,-212.858 465.008,-188 500.528,-169.197 513.291,-165.153 536.008,-132 545.498,-118.151 550.616,-99.6344 553.291,-85.9071"/>
<polygon fill="midnightblue" stroke="midnightblue" points="556.799,-86.1523 555.006,-75.7102 549.896,-84.9912 556.799,-86.1523"/>
</g>
<!-- Node6 -->
<g id="node6" class="node"><title>Node6</title>
<g id="a_node6"><a xlink:href="_event_handler_8h.html" target="_top" xlink:title="uscxml/plugins/EventHandler.h">
<polygon fill="white" stroke="black" points="455.008,-286 455.008,-305 609.008,-305 609.008,-286 455.008,-286"/>
<text text-anchor="middle" x="532.008" y="-293" font-family="Helvetica,sans-Serif" font-size="10.00">uscxml/plugins/EventHandler.h</text>
</a>
</g>
</g>
<!-- Node5&#45;&gt;Node6 -->
<g id="edge6" class="edge"><title>Node5&#45;&gt;Node6</title>
<path fill="none" stroke="midnightblue" d="M370.088,-347.475C402.929,-337.136 458.438,-319.661 495.156,-308.102"/>
<polygon fill="midnightblue" stroke="midnightblue" points="496.492,-311.35 504.98,-305.009 494.39,-304.674 496.492,-311.35"/>
</g>
<!-- Node7 -->
<g id="node7" class="node"><title>Node7</title>
<g id="a_node7"><a xlink:href="_event_8h.html" target="_top" xlink:title="uscxml/messages/Event.h">
<polygon fill="white" stroke="black" points="360.508,-224.5 360.508,-243.5 493.508,-243.5 493.508,-224.5 360.508,-224.5"/>
<text text-anchor="middle" x="427.008" y="-231.5" font-family="Helvetica,sans-Serif" font-size="10.00">uscxml/messages/Event.h</text>
</a>
</g>
</g>
<!-- Node5&#45;&gt;Node7 -->
<g id="edge29" class="edge"><title>Node5&#45;&gt;Node7</title>
<path fill="none" stroke="midnightblue" d="M349.049,-347.298C362.853,-327.414 396.913,-278.352 415.105,-252.147"/>
<polygon fill="midnightblue" stroke="midnightblue" points="418.194,-253.834 421.022,-243.623 412.444,-249.842 418.194,-253.834"/>
</g>
<!-- Node6&#45;&gt;Node2 -->
<g id="edge7" class="edge"><title>Node6&#45;&gt;Node2</title>
<path fill="none" stroke="midnightblue" d="M542.681,-285.76C552.95,-276.595 567.806,-261.159 574.008,-244 593.915,-188.934 574.469,-118.363 563.037,-85.446"/>
<polygon fill="midnightblue" stroke="midnightblue" points="566.238,-84.0081 559.535,-75.8031 559.659,-86.3973 566.238,-84.0081"/>
</g>
<!-- Node6&#45;&gt;Node7 -->
<g id="edge8" class="edge"><title>Node6&#45;&gt;Node7</title>
<path fill="none" stroke="midnightblue" d="M516.964,-285.975C499.733,-276.211 471.269,-260.081 450.975,-248.581"/>
<polygon fill="midnightblue" stroke="midnightblue" points="452.45,-245.394 442.024,-243.509 448.999,-251.484 452.45,-245.394"/>
</g>
<!-- Node6&#45;&gt;Node9 -->
<g id="edge26" class="edge"><title>Node6&#45;&gt;Node9</title>
<path fill="none" stroke="midnightblue" d="M530.894,-285.554C528.506,-270.389 521.432,-239.751 502.008,-224 437.625,-171.79 397.007,-216.06 319.008,-188 282.562,-174.889 243.729,-152.017 220.42,-137.196"/>
<polygon fill="midnightblue" stroke="midnightblue" points="222.016,-134.061 211.717,-131.576 218.219,-139.941 222.016,-134.061"/>
</g>
<!-- Node6&#45;&gt;Node11 -->
<g id="edge28" class="edge"><title>Node6&#45;&gt;Node11</title>
<path fill="none" stroke="midnightblue" d="M532.865,-285.721C533.827,-271.832 534.116,-244.287 524.008,-224 507.886,-191.641 494.723,-188.594 465.008,-168 434.948,-147.166 420.084,-154.187 391.008,-132 372.999,-118.257 356.411,-98.1239 345.83,-83.9134"/>
<polygon fill="midnightblue" stroke="midnightblue" points="348.484,-81.6106 339.789,-75.557 342.811,-85.7117 348.484,-81.6106"/>
</g>
<!-- Node6&#45;&gt;Node13 -->
<g id="edge27" class="edge"><title>Node6&#45;&gt;Node13</title>
<path fill="none" stroke="midnightblue" d="M609.26,-286.915C700.967,-273.308 850.132,-235.623 919.008,-132 931.844,-112.689 908.504,-93.1957 887.714,-80.664"/>
<polygon fill="midnightblue" stroke="midnightblue" points="889.2,-77.4828 878.777,-75.5811 885.739,-83.5675 889.2,-77.4828"/>
</g>
<!-- Node8 -->
<g id="node8" class="node"><title>Node8</title>
<g id="a_node8"><a xlink:href="_data_8h.html" target="_top" xlink:title="uscxml/messages/Data.h">
<polygon fill="white" stroke="black" points="328.008,-168.5 328.008,-187.5 456.008,-187.5 456.008,-168.5 328.008,-168.5"/>
<text text-anchor="middle" x="392.008" y="-175.5" font-family="Helvetica,sans-Serif" font-size="10.00">uscxml/messages/Data.h</text>
</a>
</g>
</g>
<!-- Node7&#45;&gt;Node8 -->
<g id="edge9" class="edge"><title>Node7&#45;&gt;Node8</title>
<path fill="none" stroke="midnightblue" d="M421.229,-224.083C416.336,-216.534 409.181,-205.495 403.176,-196.23"/>
<polygon fill="midnightblue" stroke="midnightblue" points="406.056,-194.239 397.68,-187.751 400.182,-198.046 406.056,-194.239"/>
</g>
<!-- Node17 -->
<g id="node17" class="node"><title>Node17</title>
<g id="a_node17"><a xlink:href="_u_u_i_d_8h.html" target="_top" xlink:title="uscxml/util/UUID.h">
<polygon fill="white" stroke="black" points="811.508,-112.5 811.508,-131.5 910.508,-131.5 910.508,-112.5 811.508,-112.5"/>
<text text-anchor="middle" x="861.008" y="-119.5" font-family="Helvetica,sans-Serif" font-size="10.00">uscxml/util/UUID.h</text>
</a>
</g>
</g>
<!-- Node7&#45;&gt;Node17 -->
<g id="edge23" class="edge"><title>Node7&#45;&gt;Node17</title>
<path fill="none" stroke="midnightblue" d="M449.232,-224.492C485.125,-211.001 558.28,-184.539 622.008,-168 655.088,-159.415 741.903,-143.693 801.265,-133.293"/>
<polygon fill="midnightblue" stroke="midnightblue" points="802.027,-136.713 811.276,-131.544 800.823,-129.817 802.027,-136.713"/>
</g>
<!-- Node8&#45;&gt;Node2 -->
<g id="edge13" class="edge"><title>Node8&#45;&gt;Node2</title>
<path fill="none" stroke="midnightblue" d="M334.505,-168.481C288.454,-159.27 235.448,-141.755 261.008,-112 290.732,-77.3987 419.146,-69.1073 496.415,-67.3024"/>
<polygon fill="midnightblue" stroke="midnightblue" points="496.573,-70.8 506.5,-67.0967 496.43,-63.8015 496.573,-70.8"/>
</g>
<!-- Node8&#45;&gt;Node9 -->
<g id="edge10" class="edge"><title>Node8&#45;&gt;Node9</title>
<path fill="none" stroke="midnightblue" d="M359.557,-168.435C326.407,-159.607 273.492,-145.294 228.008,-132 226.554,-131.575 225.06,-131.132 223.554,-130.68"/>
<polygon fill="midnightblue" stroke="midnightblue" points="224.319,-127.254 213.733,-127.673 222.27,-133.947 224.319,-127.254"/>
</g>
<!-- Node10 -->
<g id="node10" class="node"><title>Node10</title>
<polygon fill="white" stroke="#bfbfbf" points="270.008,-112.5 270.008,-131.5 306.008,-131.5 306.008,-112.5 270.008,-112.5"/>
<text text-anchor="middle" x="288.008" y="-119.5" font-family="Helvetica,sans-Serif" font-size="10.00">map</text>
</g>
<!-- Node8&#45;&gt;Node10 -->
<g id="edge11" class="edge"><title>Node8&#45;&gt;Node10</title>
<path fill="none" stroke="midnightblue" d="M375.299,-168.324C358.696,-159.703 333.006,-146.364 313.788,-136.386"/>
<polygon fill="midnightblue" stroke="midnightblue" points="315.164,-133.156 304.676,-131.655 311.938,-139.369 315.164,-133.156"/>
</g>
<!-- Node8&#45;&gt;Node11 -->
<g id="edge12" class="edge"><title>Node8&#45;&gt;Node11</title>
<path fill="none" stroke="midnightblue" d="M384.139,-168.233C376.642,-159.534 365.431,-145.574 358.008,-132 349.893,-117.158 343.451,-99.0079 339.294,-85.6631"/>
<polygon fill="midnightblue" stroke="midnightblue" points="342.555,-84.3505 336.352,-75.7616 335.845,-86.3443 342.555,-84.3505"/>
</g>
<!-- Node12 -->
<g id="node12" class="node"><title>Node12</title>
<g id="a_node12"><a xlink:href="_convenience_8h.html" target="_top" xlink:title="uscxml/util/Convenience.h">
<polygon fill="white" stroke="black" points="660.508,-112.5 660.508,-131.5 793.508,-131.5 793.508,-112.5 660.508,-112.5"/>
<text text-anchor="middle" x="727.008" y="-119.5" font-family="Helvetica,sans-Serif" font-size="10.00">uscxml/util/Convenience.h</text>
</a>
</g>
</g>
<!-- Node8&#45;&gt;Node12 -->
<g id="edge14" class="edge"><title>Node8&#45;&gt;Node12</title>
<path fill="none" stroke="midnightblue" d="M445.09,-168.444C504.51,-158.865 600.729,-143.356 663.937,-133.167"/>
<polygon fill="midnightblue" stroke="midnightblue" points="664.859,-136.563 674.175,-131.516 663.745,-129.653 664.859,-136.563"/>
</g>
<!-- Node16 -->
<g id="node16" class="node"><title>Node16</title>
<g id="a_node16"><a xlink:href="_blob_8h.html" target="_top" xlink:title="uscxml/messages/Blob.h">
<polygon fill="white" stroke="black" points="400.508,-112.5 400.508,-131.5 527.508,-131.5 527.508,-112.5 400.508,-112.5"/>
<text text-anchor="middle" x="464.008" y="-119.5" font-family="Helvetica,sans-Serif" font-size="10.00">uscxml/messages/Blob.h</text>
</a>
</g>
</g>
<!-- Node8&#45;&gt;Node16 -->
<g id="edge19" class="edge"><title>Node8&#45;&gt;Node16</title>
<path fill="none" stroke="midnightblue" d="M403.576,-168.324C414.429,-160.185 430.889,-147.839 443.892,-138.087"/>
<polygon fill="midnightblue" stroke="midnightblue" points="446.33,-140.634 452.23,-131.834 442.13,-135.034 446.33,-140.634"/>
</g>
<!-- Node12&#45;&gt;Node2 -->
<g id="edge15" class="edge"><title>Node12&#45;&gt;Node2</title>
<path fill="none" stroke="midnightblue" d="M699.913,-112.444C671.021,-103.32 625.084,-88.8133 592.903,-78.6509"/>
<polygon fill="midnightblue" stroke="midnightblue" points="593.567,-75.1903 582.977,-75.5164 591.459,-81.8654 593.567,-75.1903"/>
</g>
<!-- Node12&#45;&gt;Node13 -->
<g id="edge16" class="edge"><title>Node12&#45;&gt;Node13</title>
<path fill="none" stroke="midnightblue" d="M748.241,-112.444C770.522,-103.465 805.739,-89.2729 830.887,-79.1386"/>
<polygon fill="midnightblue" stroke="midnightblue" points="832.348,-82.3231 840.315,-75.339 829.732,-75.8305 832.348,-82.3231"/>
</g>
<!-- Node14 -->
<g id="node14" class="node"><title>Node14</title>
<polygon fill="white" stroke="#bfbfbf" points="739.508,-56.5 739.508,-75.5 778.508,-75.5 778.508,-56.5 739.508,-56.5"/>
<text text-anchor="middle" x="759.008" y="-63.5" font-family="Helvetica,sans-Serif" font-size="10.00">limits</text>
</g>
<!-- Node12&#45;&gt;Node14 -->
<g id="edge17" class="edge"><title>Node12&#45;&gt;Node14</title>
<path fill="none" stroke="midnightblue" d="M732.293,-112.083C736.719,-104.613 743.172,-93.7244 748.626,-84.5199"/>
<polygon fill="midnightblue" stroke="midnightblue" points="751.736,-86.1383 753.823,-75.7511 745.713,-82.5697 751.736,-86.1383"/>
</g>
<!-- Node15 -->
<g id="node15" class="node"><title>Node15</title>
<polygon fill="white" stroke="#bfbfbf" points="669.008,-56.5 669.008,-75.5 721.008,-75.5 721.008,-56.5 669.008,-56.5"/>
<text text-anchor="middle" x="695.008" y="-63.5" font-family="Helvetica,sans-Serif" font-size="10.00">sstream</text>
</g>
<!-- Node12&#45;&gt;Node15 -->
<g id="edge18" class="edge"><title>Node12&#45;&gt;Node15</title>
<path fill="none" stroke="midnightblue" d="M721.724,-112.083C717.297,-104.613 710.845,-93.7244 705.391,-84.5199"/>
<polygon fill="midnightblue" stroke="midnightblue" points="708.303,-82.5697 700.194,-75.7511 702.281,-86.1383 708.303,-82.5697"/>
</g>
<!-- Node16&#45;&gt;Node2 -->
<g id="edge22" class="edge"><title>Node16&#45;&gt;Node2</title>
<path fill="none" stroke="midnightblue" d="M478.79,-112.324C493.275,-103.822 515.581,-90.7288 532.502,-80.7975"/>
<polygon fill="midnightblue" stroke="midnightblue" points="534.411,-83.735 541.264,-75.6545 530.868,-77.6981 534.411,-83.735"/>
</g>
<!-- Node16&#45;&gt;Node11 -->
<g id="edge21" class="edge"><title>Node16&#45;&gt;Node11</title>
<path fill="none" stroke="midnightblue" d="M443.41,-112.444C422.015,-103.557 388.327,-89.5632 363.984,-79.4514"/>
<polygon fill="midnightblue" stroke="midnightblue" points="365.089,-76.1203 354.511,-75.5164 362.403,-82.5848 365.089,-76.1203"/>
</g>
<!-- Node16&#45;&gt;Node13 -->
<g id="edge20" class="edge"><title>Node16&#45;&gt;Node13</title>
<path fill="none" stroke="midnightblue" d="M526.914,-112.444C613.279,-100.696 765.241,-80.0263 830.177,-71.1936"/>
<polygon fill="midnightblue" stroke="midnightblue" points="830.75,-74.6481 840.187,-69.8321 829.807,-67.7119 830.75,-74.6481"/>
</g>
<!-- Node17&#45;&gt;Node2 -->
<g id="edge24" class="edge"><title>Node17&#45;&gt;Node2</title>
<path fill="none" stroke="midnightblue" d="M812.68,-112.444C758.805,-102.905 671.702,-87.4834 614.145,-77.293"/>
<polygon fill="midnightblue" stroke="midnightblue" points="614.568,-73.8135 604.11,-75.5164 613.347,-80.7063 614.568,-73.8135"/>
</g>
<!-- Node17&#45;&gt;Node13 -->
<g id="edge25" class="edge"><title>Node17&#45;&gt;Node13</title>
<path fill="none" stroke="midnightblue" d="M861.008,-112.083C861.008,-105.006 861.008,-94.8611 861.008,-85.9865"/>
<polygon fill="midnightblue" stroke="midnightblue" points="864.509,-85.751 861.008,-75.7511 857.509,-85.7511 864.509,-85.751"/>
</g>
<!-- Node18&#45;&gt;Node2 -->
<g id="edge31" class="edge"><title>Node18&#45;&gt;Node2</title>
<path fill="none" stroke="midnightblue" d="M563.398,-347.451C583.589,-341.022 605.921,-329.933 618.008,-311 641.406,-274.353 674.39,-317.786 588.008,-112 583.703,-101.744 576.727,-91.5402 570.385,-83.4486"/>
<polygon fill="midnightblue" stroke="midnightblue" points="572.971,-81.0835 563.909,-75.5947 567.57,-85.5368 572.971,-81.0835"/>
</g>
<!-- Node18&#45;&gt;Node6 -->
<g id="edge32" class="edge"><title>Node18&#45;&gt;Node6</title>
<path fill="none" stroke="midnightblue" d="M522.584,-347.475C524.136,-339.08 526.558,-325.981 528.558,-315.163"/>
<polygon fill="midnightblue" stroke="midnightblue" points="532.059,-315.479 530.435,-305.009 525.176,-314.206 532.059,-315.479"/>
</g>
<!-- Node18&#45;&gt;Node7 -->
<g id="edge33" class="edge"><title>Node18&#45;&gt;Node7</title>
<path fill="none" stroke="midnightblue" d="M497.273,-347.483C480.517,-340.276 458.845,-328.325 446.008,-311 433.641,-294.308 429.267,-270.477 427.752,-253.97"/>
<polygon fill="midnightblue" stroke="midnightblue" points="431.238,-253.641 427.096,-243.89 424.253,-254.096 431.238,-253.641"/>
</g>
<!-- Node19&#45;&gt;Node2 -->
<g id="edge36" class="edge"><title>Node19&#45;&gt;Node2</title>
<path fill="none" stroke="midnightblue" d="M182.833,-280.474C166.688,-246.728 132.135,-160.236 175.008,-112 195.944,-88.4464 394.144,-75.1246 496.079,-69.7787"/>
<polygon fill="midnightblue" stroke="midnightblue" points="496.422,-73.2658 506.229,-69.2561 496.062,-66.275 496.422,-73.2658"/>
</g>
<!-- Node19&#45;&gt;Node7 -->
<g id="edge38" class="edge"><title>Node19&#45;&gt;Node7</title>
<path fill="none" stroke="midnightblue" d="M238.255,-282.388C280.766,-271.715 342.156,-256.303 383.263,-245.983"/>
<polygon fill="midnightblue" stroke="midnightblue" points="384.148,-249.369 392.995,-243.539 382.444,-242.58 384.148,-249.369"/>
</g>
<!-- Node19&#45;&gt;Node8 -->
<g id="edge37" class="edge"><title>Node19&#45;&gt;Node8</title>
<path fill="none" stroke="midnightblue" d="M189.814,-280.229C190.4,-264.294 193.875,-238.802 209.008,-224 224.849,-208.507 275.157,-196.811 319.025,-189.231"/>
<polygon fill="midnightblue" stroke="midnightblue" points="319.856,-192.641 329.139,-187.535 318.698,-185.737 319.856,-192.641"/>
</g>
<!-- Node19&#45;&gt;Node11 -->
<g id="edge39" class="edge"><title>Node19&#45;&gt;Node11</title>
<path fill="none" stroke="midnightblue" d="M168.713,-280.377C157.281,-271.461 144.281,-258.836 138.008,-244 115.162,-189.965 101.46,-157.891 138.008,-112 157.543,-87.4721 246.16,-75.21 297.298,-70.0766"/>
<polygon fill="midnightblue" stroke="midnightblue" points="297.679,-73.5562 307.299,-69.1154 297.009,-66.5883 297.679,-73.5562"/>
</g>
<!-- Node20 -->
<g id="node20" class="node"><title>Node20</title>
<polygon fill="white" stroke="#bfbfbf" points="218.508,-224.5 218.508,-243.5 303.508,-243.5 303.508,-224.5 218.508,-224.5"/>
<text text-anchor="middle" x="261.008" y="-231.5" font-family="Helvetica,sans-Serif" font-size="10.00">uscxml/config.h</text>
</g>
<!-- Node19&#45;&gt;Node20 -->
<g id="edge35" class="edge"><title>Node19&#45;&gt;Node20</title>
<path fill="none" stroke="midnightblue" d="M206.834,-280.399C217.683,-271.308 231.785,-259.49 242.881,-250.191"/>
<polygon fill="midnightblue" stroke="midnightblue" points="245.261,-252.763 250.677,-243.658 240.765,-247.398 245.261,-252.763"/>
</g>
</g>
</svg>
        <g id="navigator" transform="translate(0 0)" fill="#404254">
                <rect fill="#f2f5e9" fill-opacity="0.5" stroke="#606060" stroke-width=".5" x="0" y="0" width="60" height="60"/>
                <use id="zoomplus" xlink:href="#zoomPlus" x="17" y="9" onmousedown="handleZoom(evt,'in')"/>
                <use id="zoomminus" xlink:href="#zoomMin" x="42" y="9" onmousedown="handleZoom(evt,'out')"/>
                <use id="reset" xlink:href="#resetDef" x="30" y="36" onmousedown="handleReset()"/>
                <g id="arrowUp" xlink:href="#dirArrow" transform="translate(30 24)" onmousedown="handlePan(0,-1)">
                  <use xlink:href="#rim" fill="#404040">
                        <set attributeName="fill" to="#808080" begin="arrowUp.mouseover" end="arrowUp.mouseout"/>
                  </use>
                  <path fill="none" stroke="white" stroke-width="1.5" d="M0,-3.0v7 M-2.5,-0.5L0,-3.0L2.5,-0.5"/>
                </g>
                <g id="arrowRight" xlink:href="#dirArrow" transform="rotate(90) translate(36 -43)" onmousedown="handlePan(1,0)">
                  <use xlink:href="#rim" fill="#404040">
                        <set attributeName="fill" to="#808080" begin="arrowRight.mouseover" end="arrowRight.mouseout"/>
                  </use>
                  <path fill="none" stroke="white" stroke-width="1.5" d="M0,-3.0v7 M-2.5,-0.5L0,-3.0L2.5,-0.5"/>
                </g>
                <g id="arrowDown" xlink:href="#dirArrow" transform="rotate(180) translate(-30 -48)" onmousedown="handlePan(0,1)">
                  <use xlink:href="#rim" fill="#404040">
                        <set attributeName="fill" to="#808080" begin="arrowDown.mouseover" end="arrowDown.mouseout"/>
                  </use>
                  <path fill="none" stroke="white" stroke-width="1.5" d="M0,-3.0v7 M-2.5,-0.5L0,-3.0L2.5,-0.5"/>
                </g>
                <g id="arrowLeft" xlink:href="#dirArrow" transform="rotate(270) translate(-36 17)" onmousedown="handlePan(-1,0)">
                  <use xlink:href="#rim" fill="#404040">
                        <set attributeName="fill" to="#808080" begin="arrowLeft.mouseover" end="arrowLeft.mouseout"/>
                  </use>
                  <path fill="none" stroke="white" stroke-width="1.5" d="M0,-3.0v7 M-2.5,-0.5L0,-3.0L2.5,-0.5"/>
                </g>
        </g>
        <svg viewBox="0 0 15 15" width="100%" height="30px" preserveAspectRatio="xMaxYMin meet">
         <g id="arrow_out" transform="scale(0.3 0.3)">
          <a xlink:href="_data_model_impl_8h__incl_org.svg" target="_base">
           <rect id="button" ry="5" rx="5" y="6" x="6" height="38" width="38"
                fill="#f2f5e9" fill-opacity="0.5" stroke="#606060" stroke-width="1.0"/>
           <path id="arrow"
             d="M 11.500037,31.436501 C 11.940474,20.09759 22.043105,11.32322 32.158766,21.979434 L 37.068811,17.246167 C 37.068811,17.246167 37.088388,32 37.088388,32 L 22.160133,31.978069 C 22.160133,31.978069 26.997745,27.140456 26.997745,27.140456 C 18.528582,18.264221 13.291696,25.230495 11.500037,31.436501 z"
             style="fill:#404040;"/>
          </a>
         </g>
        </svg>
</svg>
