<?xml version="1.0" encoding="UTF-8" standalone="no"?>
<!DOCTYPE svg PUBLIC "-//W3C//DTD SVG 1.1//EN"
 "http://www.w3.org/Graphics/SVG/1.1/DTD/svg11.dtd">
<!-- Generated by graphviz version 2.40.1 (20161225.0304)
 -->
<!-- Title: plugins/DataModel.h Pages: 1 -->
<svg width="766pt" height="308pt"
 viewBox="0.00 0.00 766.25 308.00" xmlns="http://www.w3.org/2000/svg" xmlns:xlink="http://www.w3.org/1999/xlink">
<g id="graph0" class="graph" transform="scale(1 1) rotate(0) translate(4 304)">
<title>plugins/DataModel.h</title>
<polygon fill="#ffffff" stroke="transparent" points="-4,4 -4,-304 762.2534,-304 762.2534,4 -4,4"/>
<!-- Node1 -->
<g id="node1" class="node">
<title>Node1</title>
<polygon fill="#bfbfbf" stroke="#000000" points="625.5,-280.5 625.5,-299.5 733.5,-299.5 733.5,-280.5 625.5,-280.5"/>
<text text-anchor="middle" x="679.5" y="-287.5" font-family="Helvetica,sans-Serif" font-size="10.00" fill="#000000">plugins/DataModel.h</text>
</g>
<!-- Node2 -->
<g id="node2" class="node">
<title>Node2</title>
<g id="a_node2"><a xlink:href="$_common_8h.html" xlink:title="uscxml/Common.h">
<polygon fill="#ffffff" stroke="#000000" points="190,-56.5 190,-75.5 289,-75.5 289,-56.5 190,-56.5"/>
<text text-anchor="middle" x="239.5" y="-63.5" font-family="Helvetica,sans-Serif" font-size="10.00" fill="#000000">uscxml/Common.h</text>
</a>
</g>
</g>
<!-- Node1&#45;&gt;Node2 -->
<g id="edge1" class="edge">
<title>Node1&#45;&gt;Node2</title>
<path fill="none" stroke="#191970" d="M625.2809,-285.0771C546.5292,-277.453 404.6474,-261.799 356.5,-244 269.5346,-211.8508 225.1165,-213.2767 180.5,-132 169.5478,-112.0487 191.0089,-93.0948 211.0483,-80.6604"/>
<polygon fill="#191970" stroke="#191970" points="212.8695,-83.6501 219.7417,-75.5864 209.3409,-77.6045 212.8695,-83.6501"/>
</g>
<!-- Node5 -->
<g id="node5" class="node">
<title>Node5</title>
<g id="a_node5"><a xlink:href="$_event_8h.html" xlink:title="uscxml/messages/Event.h">
<polygon fill="#ffffff" stroke="#000000" points="365,-224.5 365,-243.5 498,-243.5 498,-224.5 365,-224.5"/>
<text text-anchor="middle" x="431.5" y="-231.5" font-family="Helvetica,sans-Serif" font-size="10.00" fill="#000000">uscxml/messages/Event.h</text>
</a>
</g>
</g>
<!-- Node1&#45;&gt;Node5 -->
<g id="edge4" class="edge">
<title>Node1&#45;&gt;Node5</title>
<path fill="none" stroke="#191970" d="M637.1491,-280.4369C594.7058,-270.8529 529.2881,-256.0812 483.6687,-245.78"/>
<polygon fill="#191970" stroke="#191970" points="484.2016,-242.3123 473.6763,-243.5237 482.6597,-249.1404 484.2016,-242.3123"/>
</g>
<!-- Node7 -->
<g id="node7" class="node">
<title>Node7</title>
<polygon fill="#ffffff" stroke="#bfbfbf" points="665,-112.5 665,-131.5 694,-131.5 694,-112.5 665,-112.5"/>
<text text-anchor="middle" x="679.5" y="-119.5" font-family="Helvetica,sans-Serif" font-size="10.00" fill="#000000">list</text>
</g>
<!-- Node1&#45;&gt;Node7 -->
<g id="edge23" class="edge">
<title>Node1&#45;&gt;Node7</title>
<path fill="none" stroke="#191970" d="M679.5,-280.4862C679.5,-253.9293 679.5,-178.5651 679.5,-142.1655"/>
<polygon fill="#191970" stroke="#191970" points="683.0001,-141.8278 679.5,-131.8279 676.0001,-141.8279 683.0001,-141.8278"/>
</g>
<!-- Node9 -->
<g id="node9" class="node">
<title>Node9</title>
<polygon fill="#ffffff" stroke="#bfbfbf" points="610,-56.5 610,-75.5 663,-75.5 663,-56.5 610,-56.5"/>
<text text-anchor="middle" x="636.5" y="-63.5" font-family="Helvetica,sans-Serif" font-size="10.00" fill="#000000">memory</text>
</g>
<!-- Node1&#45;&gt;Node9 -->
<g id="edge25" class="edge">
<title>Node1&#45;&gt;Node9</title>
<path fill="none" stroke="#191970" d="M698.71,-280.4505C712.0266,-272.663 728.7125,-260.2917 736.5,-244 761.8009,-191.0695 768.15,-161.3969 736.5,-112 722.6425,-90.3723 695.7687,-78.7746 673.3673,-72.6368"/>
<polygon fill="#191970" stroke="#191970" points="674.0002,-69.1879 663.4523,-70.1845 672.3194,-75.9832 674.0002,-69.1879"/>
</g>
<!-- Node12 -->
<g id="node12" class="node">
<title>Node12</title>
<polygon fill="#ffffff" stroke="#bfbfbf" points="416,-56.5 416,-75.5 457,-75.5 457,-56.5 416,-56.5"/>
<text text-anchor="middle" x="436.5" y="-63.5" font-family="Helvetica,sans-Serif" font-size="10.00" fill="#000000">string</text>
</g>
<!-- Node1&#45;&gt;Node12 -->
<g id="edge24" class="edge">
<title>Node1&#45;&gt;Node12</title>
<path fill="none" stroke="#191970" d="M685.3935,-280.0979C702.099,-250.6121 745.8909,-162.3188 703.5,-112 688.3616,-94.0305 534.1993,-76.0887 467.2544,-69.0784"/>
<polygon fill="#191970" stroke="#191970" points="467.6005,-65.5956 457.2936,-68.0488 466.8807,-72.5585 467.6005,-65.5956"/>
</g>
<!-- Node3 -->
<g id="node3" class="node">
<title>Node3</title>
<polygon fill="#ffffff" stroke="#bfbfbf" points="165.5,-.5 165.5,-19.5 237.5,-19.5 237.5,-.5 165.5,-.5"/>
<text text-anchor="middle" x="201.5" y="-7.5" font-family="Helvetica,sans-Serif" font-size="10.00" fill="#000000">sys/socket.h</text>
</g>
<!-- Node2&#45;&gt;Node3 -->
<g id="edge2" class="edge">
<title>Node2&#45;&gt;Node3</title>
<path fill="none" stroke="#191970" d="M232.8809,-56.2455C227.5954,-48.4564 220.0459,-37.3308 213.6762,-27.9439"/>
<polygon fill="#191970" stroke="#191970" points="216.5545,-25.9522 208.0432,-19.6427 210.7621,-29.8827 216.5545,-25.9522"/>
</g>
<!-- Node4 -->
<g id="node4" class="node">
<title>Node4</title>
<polygon fill="#ffffff" stroke="#bfbfbf" points="255.5,-.5 255.5,-19.5 299.5,-19.5 299.5,-.5 255.5,-.5"/>
<text text-anchor="middle" x="277.5" y="-7.5" font-family="Helvetica,sans-Serif" font-size="10.00" fill="#000000">cmath</text>
</g>
<!-- Node2&#45;&gt;Node4 -->
<g id="edge3" class="edge">
<title>Node2&#45;&gt;Node4</title>
<path fill="none" stroke="#191970" d="M246.1191,-56.2455C251.4046,-48.4564 258.9541,-37.3308 265.3238,-27.9439"/>
<polygon fill="#191970" stroke="#191970" points="268.2379,-29.8827 270.9568,-19.6427 262.4455,-25.9522 268.2379,-29.8827"/>
</g>
<!-- Node6 -->
<g id="node6" class="node">
<title>Node6</title>
<g id="a_node6"><a xlink:href="$_data_8h.html" xlink:title="uscxml/messages/Data.h">
<polygon fill="#ffffff" stroke="#000000" points="367.5,-168.5 367.5,-187.5 495.5,-187.5 495.5,-168.5 367.5,-168.5"/>
<text text-anchor="middle" x="431.5" y="-175.5" font-family="Helvetica,sans-Serif" font-size="10.00" fill="#000000">uscxml/messages/Data.h</text>
</a>
</g>
</g>
<!-- Node5&#45;&gt;Node6 -->
<g id="edge5" class="edge">
<title>Node5&#45;&gt;Node6</title>
<path fill="none" stroke="#191970" d="M431.5,-224.2455C431.5,-216.9382 431.5,-206.6944 431.5,-197.7046"/>
<polygon fill="#191970" stroke="#191970" points="435.0001,-197.6426 431.5,-187.6427 428.0001,-197.6427 435.0001,-197.6426"/>
</g>
<!-- Node16 -->
<g id="node16" class="node">
<title>Node16</title>
<g id="a_node16"><a xlink:href="$_u_u_i_d_8h.html" xlink:title="uscxml/util/UUID.h">
<polygon fill="#ffffff" stroke="#000000" points="190,-112.5 190,-131.5 289,-131.5 289,-112.5 190,-112.5"/>
<text text-anchor="middle" x="239.5" y="-119.5" font-family="Helvetica,sans-Serif" font-size="10.00" fill="#000000">uscxml/util/UUID.h</text>
</a>
</g>
</g>
<!-- Node5&#45;&gt;Node16 -->
<g id="edge20" class="edge">
<title>Node5&#45;&gt;Node16</title>
<path fill="none" stroke="#191970" d="M415.1302,-224.4509C381.5482,-204.8615 304.669,-160.0152 264.6906,-136.6945"/>
<polygon fill="#191970" stroke="#191970" points="266.2297,-133.5404 255.8284,-131.5249 262.7026,-139.5869 266.2297,-133.5404"/>
</g>
<!-- Node6&#45;&gt;Node2 -->
<g id="edge10" class="edge">
<title>Node6&#45;&gt;Node2</title>
<path fill="none" stroke="#191970" d="M409.5267,-168.4676C389.965,-159.7231 360.7723,-146.033 336.5,-132 309.2806,-116.2631 279.6198,-95.5083 260.3579,-81.5083"/>
<polygon fill="#191970" stroke="#191970" points="262.4208,-78.6809 252.2857,-75.5935 258.2834,-84.3273 262.4208,-78.6809"/>
</g>
<!-- Node6&#45;&gt;Node7 -->
<g id="edge6" class="edge">
<title>Node6&#45;&gt;Node7</title>
<path fill="none" stroke="#191970" d="M486.4053,-168.4386C530.9771,-160.206 595.2647,-147.2599 650.5,-132 651.9758,-131.5923 653.4859,-131.15 655.004,-130.6861"/>
<polygon fill="#191970" stroke="#191970" points="656.4514,-133.8947 664.8587,-127.4474 654.2658,-127.2446 656.4514,-133.8947"/>
</g>
<!-- Node8 -->
<g id="node8" class="node">
<title>Node8</title>
<polygon fill="#ffffff" stroke="#bfbfbf" points="345.5,-112.5 345.5,-131.5 381.5,-131.5 381.5,-112.5 345.5,-112.5"/>
<text text-anchor="middle" x="363.5" y="-119.5" font-family="Helvetica,sans-Serif" font-size="10.00" fill="#000000">map</text>
</g>
<!-- Node6&#45;&gt;Node8 -->
<g id="edge7" class="edge">
<title>Node6&#45;&gt;Node8</title>
<path fill="none" stroke="#191970" d="M419.6553,-168.2455C409.612,-159.9746 395.0005,-147.9416 383.1996,-138.2232"/>
<polygon fill="#191970" stroke="#191970" points="385.1533,-135.298 375.209,-131.6427 380.7033,-140.7015 385.1533,-135.298"/>
</g>
<!-- Node6&#45;&gt;Node9 -->
<g id="edge8" class="edge">
<title>Node6&#45;&gt;Node9</title>
<path fill="none" stroke="#191970" d="M495.8027,-169.0693C542.3666,-161.3497 600.0673,-148.785 617.5,-132 629.9573,-120.0056 634.3979,-100.4185 635.9069,-85.6914"/>
<polygon fill="#191970" stroke="#191970" points="639.4078,-85.7917 636.5737,-75.583 632.423,-85.3309 639.4078,-85.7917"/>
</g>
<!-- Node10 -->
<g id="node10" class="node">
<title>Node10</title>
<polygon fill="#ffffff" stroke="#bfbfbf" points="400,-112.5 400,-131.5 463,-131.5 463,-112.5 400,-112.5"/>
<text text-anchor="middle" x="431.5" y="-119.5" font-family="Helvetica,sans-Serif" font-size="10.00" fill="#000000">type_traits</text>
</g>
<!-- Node6&#45;&gt;Node10 -->
<g id="edge9" class="edge">
<title>Node6&#45;&gt;Node10</title>
<path fill="none" stroke="#191970" d="M431.5,-168.2455C431.5,-160.9382 431.5,-150.6944 431.5,-141.7046"/>
<polygon fill="#191970" stroke="#191970" points="435.0001,-141.6426 431.5,-131.6427 428.0001,-141.6427 435.0001,-141.6426"/>
</g>
<!-- Node11 -->
<g id="node11" class="node">
<title>Node11</title>
<g id="a_node11"><a xlink:href="$_convenience_8h.html" xlink:title="uscxml/util/Convenience.h">
<polygon fill="#ffffff" stroke="#000000" points="0,-112.5 0,-131.5 133,-131.5 133,-112.5 0,-112.5"/>
<text text-anchor="middle" x="66.5" y="-119.5" font-family="Helvetica,sans-Serif" font-size="10.00" fill="#000000">uscxml/util/Convenience.h</text>
</a>
</g>
</g>
<!-- Node6&#45;&gt;Node11 -->
<g id="edge11" class="edge">
<title>Node6&#45;&gt;Node11</title>
<path fill="none" stroke="#191970" d="M369.169,-168.4369C305.2585,-158.6314 205.9541,-143.3957 138.6732,-133.0731"/>
<polygon fill="#191970" stroke="#191970" points="138.9891,-129.5807 128.5739,-131.5237 137.9275,-136.4998 138.9891,-129.5807"/>
</g>
<!-- Node15 -->
<g id="node15" class="node">
<title>Node15</title>
<g id="a_node15"><a xlink:href="$_blob_8h.html" xlink:title="uscxml/messages/Blob.h">
<polygon fill="#ffffff" stroke="#000000" points="481,-112.5 481,-131.5 608,-131.5 608,-112.5 481,-112.5"/>
<text text-anchor="middle" x="544.5" y="-119.5" font-family="Helvetica,sans-Serif" font-size="10.00" fill="#000000">uscxml/messages/Blob.h</text>
</a>
</g>
</g>
<!-- Node6&#45;&gt;Node15 -->
<g id="edge16" class="edge">
<title>Node6&#45;&gt;Node15</title>
<path fill="none" stroke="#191970" d="M450.9254,-168.3733C468.9021,-159.4644 495.8441,-146.1127 516.209,-136.0203"/>
<polygon fill="#191970" stroke="#191970" points="517.9222,-139.0776 525.3281,-131.5011 514.8139,-132.8055 517.9222,-139.0776"/>
</g>
<!-- Node11&#45;&gt;Node2 -->
<g id="edge12" class="edge">
<title>Node11&#45;&gt;Node2</title>
<path fill="none" stroke="#191970" d="M96.2398,-112.3733C125.007,-103.0613 168.77,-88.8953 200.3556,-78.671"/>
<polygon fill="#191970" stroke="#191970" points="201.7122,-81.9107 210.1483,-75.5011 199.5564,-75.251 201.7122,-81.9107"/>
</g>
<!-- Node11&#45;&gt;Node12 -->
<g id="edge13" class="edge">
<title>Node11&#45;&gt;Node12</title>
<path fill="none" stroke="#191970" d="M129.6849,-112.4369C209.9048,-100.2955 345.1347,-79.8283 405.6308,-70.6721"/>
<polygon fill="#191970" stroke="#191970" points="406.3277,-74.1066 415.6913,-69.1494 405.2802,-67.1854 406.3277,-74.1066"/>
</g>
<!-- Node13 -->
<g id="node13" class="node">
<title>Node13</title>
<polygon fill="#ffffff" stroke="#bfbfbf" points="15,-56.5 15,-75.5 54,-75.5 54,-56.5 15,-56.5"/>
<text text-anchor="middle" x="34.5" y="-63.5" font-family="Helvetica,sans-Serif" font-size="10.00" fill="#000000">limits</text>
</g>
<!-- Node11&#45;&gt;Node13 -->
<g id="edge14" class="edge">
<title>Node11&#45;&gt;Node13</title>
<path fill="none" stroke="#191970" d="M60.926,-112.2455C56.5669,-104.617 50.3789,-93.7881 45.0867,-84.5267"/>
<polygon fill="#191970" stroke="#191970" points="48.0104,-82.5886 40.0101,-75.6427 41.9327,-86.0616 48.0104,-82.5886"/>
</g>
<!-- Node14 -->
<g id="node14" class="node">
<title>Node14</title>
<polygon fill="#ffffff" stroke="#bfbfbf" points="72.5,-56.5 72.5,-75.5 124.5,-75.5 124.5,-56.5 72.5,-56.5"/>
<text text-anchor="middle" x="98.5" y="-63.5" font-family="Helvetica,sans-Serif" font-size="10.00" fill="#000000">sstream</text>
</g>
<!-- Node11&#45;&gt;Node14 -->
<g id="edge15" class="edge">
<title>Node11&#45;&gt;Node14</title>
<path fill="none" stroke="#191970" d="M72.074,-112.2455C76.4331,-104.617 82.6211,-93.7881 87.9133,-84.5267"/>
<polygon fill="#191970" stroke="#191970" points="91.0673,-86.0616 92.9899,-75.6427 84.9896,-82.5886 91.0673,-86.0616"/>
</g>
<!-- Node15&#45;&gt;Node2 -->
<g id="edge19" class="edge">
<title>Node15&#45;&gt;Node2</title>
<path fill="none" stroke="#191970" d="M492.4152,-112.4369C438.8381,-102.5998 355.4938,-87.2972 299.2652,-76.9733"/>
<polygon fill="#191970" stroke="#191970" points="299.5626,-73.4695 289.095,-75.106 298.2985,-80.3544 299.5626,-73.4695"/>
</g>
<!-- Node15&#45;&gt;Node9 -->
<g id="edge18" class="edge">
<title>Node15&#45;&gt;Node9</title>
<path fill="none" stroke="#191970" d="M560.5252,-112.2455C574.6408,-103.6534 595.4263,-91.0014 611.6899,-81.1018"/>
<polygon fill="#191970" stroke="#191970" points="613.9363,-83.8319 620.6585,-75.6427 610.2966,-77.8525 613.9363,-83.8319"/>
</g>
<!-- Node15&#45;&gt;Node12 -->
<g id="edge17" class="edge">
<title>Node15&#45;&gt;Node12</title>
<path fill="none" stroke="#191970" d="M525.6878,-112.2455C508.6527,-103.4125 483.3425,-90.2887 464.0319,-80.2758"/>
<polygon fill="#191970" stroke="#191970" points="465.5853,-77.1388 455.0966,-75.6427 462.363,-83.353 465.5853,-77.1388"/>
</g>
<!-- Node16&#45;&gt;Node2 -->
<g id="edge21" class="edge">
<title>Node16&#45;&gt;Node2</title>
<path fill="none" stroke="#191970" d="M239.5,-112.2455C239.5,-104.9382 239.5,-94.6944 239.5,-85.7046"/>
<polygon fill="#191970" stroke="#191970" points="243.0001,-85.6426 239.5,-75.6427 236.0001,-85.6427 243.0001,-85.6426"/>
</g>
<!-- Node16&#45;&gt;Node12 -->
<g id="edge22" class="edge">
<title>Node16&#45;&gt;Node12</title>
<path fill="none" stroke="#191970" d="M273.3655,-112.3733C310.6125,-101.7853 369.9362,-84.9217 405.8505,-74.7126"/>
<polygon fill="#191970" stroke="#191970" points="407.0961,-77.9972 415.758,-71.8962 405.182,-71.264 407.0961,-77.9972"/>
</g>
</g>
</svg>
