<?xml version="1.0" encoding="UTF-8" standalone="no"?>
<!DOCTYPE svg PUBLIC "-//W3C//DTD SVG 1.1//EN"
 "http://www.w3.org/Graphics/SVG/1.1/DTD/svg11.dtd">
<!-- Generated by graphviz version 2.38.0 (20140413.2041)
 -->
<!-- Title: plugins/DataModel.cpp Pages: 1 -->
<!--zoomable 476 -->
<svg id="main" version="1.1" xmlns="http://www.w3.org/2000/svg" xmlns:xlink="http://www.w3.org/1999/xlink" xml:space="preserve" onload="init(evt)">
<style type="text/css"><![CDATA[
.edge:hover path { stroke: red; }
.edge:hover polygon { stroke: red; fill: red; }
]]></style>
<script type="text/javascript"><![CDATA[
var edges = document.getElementsByTagName('g');
if (edges && edges.length) {
  for (var i=0;i<edges.length;i++) {
    if (edges[i].id.substr(0,4)=='edge') {
      edges[i].setAttribute('class','edge');
    }
  }
}
]]></script>
        <defs>
                <circle id="rim" cx="0" cy="0" r="7"/>
                <circle id="rim2" cx="0" cy="0" r="3.5"/>
                <g id="zoomPlus">
                        <use xlink:href="#rim" fill="#404040">
                                <set attributeName="fill" to="#808080" begin="zoomplus.mouseover" end="zoomplus.mouseout"/>
                        </use>
                        <path d="M-4,0h8M0,-4v8" fill="none" stroke="white" stroke-width="1.5" pointer-events="none"/>
                </g>
                <g id="zoomMin">
                        <use xlink:href="#rim" fill="#404040">
                                <set attributeName="fill" to="#808080" begin="zoomminus.mouseover" end="zoomminus.mouseout"/>
                        </use>
                        <path d="M-4,0h8" fill="none" stroke="white" stroke-width="1.5" pointer-events="none"/>
                </g>
                <g id="dirArrow">
                        <path fill="none" stroke="white" stroke-width="1.5" d="M0,-3.0v7 M-2.5,-0.5L0,-3.0L2.5,-0.5"/>
                </g>
               <g id="resetDef">
                       <use xlink:href="#rim2" fill="#404040">
                               <set attributeName="fill" to="#808080" begin="reset.mouseover" end="reset.mouseout"/>
                       </use>
               </g>
        </defs>

<script type="text/javascript">
var viewWidth = 1123;
var viewHeight = 476;
var sectionId = 'dynsection-0';
</script>
<script xlink:href="svgpan.js"/>
<svg id="graph" class="graph">
<g id="viewport">
<title>plugins/DataModel.cpp</title>
<polygon fill="white" stroke="none" points="-4,4 -4,-472 1119,-472 1119,4 -4,4"/>
<!-- Node1 -->
<g id="node1" class="node"><title>Node1</title>
<polygon fill="#bfbfbf" stroke="black" points="657,-448.5 657,-467.5 775,-467.5 775,-448.5 657,-448.5"/>
<text text-anchor="middle" x="716" y="-455.5" font-family="Helvetica,sans-Serif" font-size="10.00">plugins/DataModel.cpp</text>
</g>
<!-- Node2 -->
<g id="node2" class="node"><title>Node2</title>
<g id="a_node2"><a xlink:href="_data_model_8h.html" target="_top" xlink:title="DataModel.h">
<polygon fill="white" stroke="black" points="475.5,-280.5 475.5,-299.5 548.5,-299.5 548.5,-280.5 475.5,-280.5"/>
<text text-anchor="middle" x="512" y="-287.5" font-family="Helvetica,sans-Serif" font-size="10.00">DataModel.h</text>
</a>
</g>
</g>
<!-- Node1&#45;&gt;Node2 -->
<g id="edge1" class="edge"><title>Node1&#45;&gt;Node2</title>
<path fill="none" stroke="midnightblue" d="M692.835,-448.488C656.871,-434.261 587.251,-402.553 544,-356 531.447,-342.489 522.776,-323.132 517.658,-309.058"/>
<polygon fill="midnightblue" stroke="midnightblue" points="520.949,-307.862 514.432,-299.509 514.317,-310.103 520.949,-307.862"/>
</g>
<!-- Node18 -->
<g id="node18" class="node"><title>Node18</title>
<g id="a_node18"><a xlink:href="_data_model_impl_8h.html" target="_top" xlink:title="DataModelImpl.h">
<polygon fill="white" stroke="black" points="867,-392.5 867,-411.5 959,-411.5 959,-392.5 867,-392.5"/>
<text text-anchor="middle" x="913" y="-399.5" font-family="Helvetica,sans-Serif" font-size="10.00">DataModelImpl.h</text>
</a>
</g>
</g>
<!-- Node1&#45;&gt;Node18 -->
<g id="edge27" class="edge"><title>Node1&#45;&gt;Node18</title>
<path fill="none" stroke="midnightblue" d="M747.215,-448.444C780.933,-439.201 834.8,-424.436 871.932,-414.257"/>
<polygon fill="midnightblue" stroke="midnightblue" points="873.212,-417.536 881.931,-411.516 871.361,-410.785 873.212,-417.536"/>
</g>
<!-- Node3 -->
<g id="node3" class="node"><title>Node3</title>
<g id="a_node3"><a xlink:href="_common_8h.html" target="_top" xlink:title="uscxml/Common.h">
<polygon fill="white" stroke="black" points="102.5,-56.5 102.5,-75.5 201.5,-75.5 201.5,-56.5 102.5,-56.5"/>
<text text-anchor="middle" x="152" y="-63.5" font-family="Helvetica,sans-Serif" font-size="10.00">uscxml/Common.h</text>
</a>
</g>
</g>
<!-- Node2&#45;&gt;Node3 -->
<g id="edge2" class="edge"><title>Node2&#45;&gt;Node3</title>
<path fill="none" stroke="midnightblue" d="M475.288,-286.385C397.163,-278.61 215.286,-248.263 138,-132 128.641,-117.921 134.572,-98.6777 141.362,-84.7865"/>
<polygon fill="midnightblue" stroke="midnightblue" points="144.562,-86.2272 146.251,-75.7679 138.408,-82.8909 144.562,-86.2272"/>
</g>
<!-- Node6 -->
<g id="node6" class="node"><title>Node6</title>
<g id="a_node6"><a xlink:href="_event_8h.html" target="_top" xlink:title="uscxml/messages/Event.h">
<polygon fill="white" stroke="black" points="580.5,-224.5 580.5,-243.5 713.5,-243.5 713.5,-224.5 580.5,-224.5"/>
<text text-anchor="middle" x="647" y="-231.5" font-family="Helvetica,sans-Serif" font-size="10.00">uscxml/messages/Event.h</text>
</a>
</g>
</g>
<!-- Node2&#45;&gt;Node6 -->
<g id="edge5" class="edge"><title>Node2&#45;&gt;Node6</title>
<path fill="none" stroke="midnightblue" d="M533.391,-280.444C555.707,-271.517 590.903,-257.439 616.208,-247.317"/>
<polygon fill="midnightblue" stroke="midnightblue" points="617.724,-250.48 625.709,-243.516 615.124,-243.981 617.724,-250.48"/>
</g>
<!-- Node8 -->
<g id="node8" class="node"><title>Node8</title>
<polygon fill="white" stroke="#bfbfbf" points="802.5,-112.5 802.5,-131.5 831.5,-131.5 831.5,-112.5 802.5,-112.5"/>
<text text-anchor="middle" x="817" y="-119.5" font-family="Helvetica,sans-Serif" font-size="10.00">list</text>
</g>
<!-- Node2&#45;&gt;Node8 -->
<g id="edge24" class="edge"><title>Node2&#45;&gt;Node8</title>
<path fill="none" stroke="midnightblue" d="M517.291,-280.216C526.371,-265.963 546.345,-237.989 571,-224 641.579,-183.953 678.186,-225.786 750,-188 772.3,-176.267 792.227,-154.808 804.438,-139.767"/>
<polygon fill="midnightblue" stroke="midnightblue" points="807.286,-141.805 810.695,-131.774 801.775,-137.49 807.286,-141.805"/>
</g>
<!-- Node10 -->
<g id="node10" class="node"><title>Node10</title>
<polygon fill="white" stroke="#bfbfbf" points="747.5,-56.5 747.5,-75.5 800.5,-75.5 800.5,-56.5 747.5,-56.5"/>
<text text-anchor="middle" x="774" y="-63.5" font-family="Helvetica,sans-Serif" font-size="10.00">memory</text>
</g>
<!-- Node2&#45;&gt;Node10 -->
<g id="edge26" class="edge"><title>Node2&#45;&gt;Node10</title>
<path fill="none" stroke="midnightblue" d="M513.581,-280.296C516.627,-266.159 524.699,-238.348 543,-224 605.149,-175.276 654.968,-236.872 717,-188 749.878,-162.097 764.715,-112.684 770.617,-85.7093"/>
<polygon fill="midnightblue" stroke="midnightblue" points="774.099,-86.1485 772.626,-75.6565 767.234,-84.7767 774.099,-86.1485"/>
</g>
<!-- Node13 -->
<g id="node13" class="node"><title>Node13</title>
<polygon fill="white" stroke="#bfbfbf" points="550.5,-56.5 550.5,-75.5 591.5,-75.5 591.5,-56.5 550.5,-56.5"/>
<text text-anchor="middle" x="571" y="-63.5" font-family="Helvetica,sans-Serif" font-size="10.00">string</text>
</g>
<!-- Node2&#45;&gt;Node13 -->
<g id="edge25" class="edge"><title>Node2&#45;&gt;Node13</title>
<path fill="none" stroke="midnightblue" d="M508.912,-280.173C505.948,-271.198 501.681,-256.827 500,-244 493.98,-198.063 506.904,-129.908 517,-112 524.093,-99.4177 536.171,-88.8509 547.107,-81.1254"/>
<polygon fill="midnightblue" stroke="midnightblue" points="549.112,-83.9953 555.516,-75.5547 545.247,-78.1596 549.112,-83.9953"/>
</g>
<!-- Node4 -->
<g id="node4" class="node"><title>Node4</title>
<polygon fill="white" stroke="#bfbfbf" points="78,-0.5 78,-19.5 150,-19.5 150,-0.5 78,-0.5"/>
<text text-anchor="middle" x="114" y="-7.5" font-family="Helvetica,sans-Serif" font-size="10.00">sys/socket.h</text>
</g>
<!-- Node3&#45;&gt;Node4 -->
<g id="edge3" class="edge"><title>Node3&#45;&gt;Node4</title>
<path fill="none" stroke="midnightblue" d="M145.725,-56.083C140.358,-48.4554 132.482,-37.2645 125.921,-27.9408"/>
<polygon fill="midnightblue" stroke="midnightblue" points="128.775,-25.9149 120.158,-19.7511 123.051,-29.9434 128.775,-25.9149"/>
</g>
<!-- Node5 -->
<g id="node5" class="node"><title>Node5</title>
<polygon fill="white" stroke="#bfbfbf" points="168,-0.5 168,-19.5 212,-19.5 212,-0.5 168,-0.5"/>
<text text-anchor="middle" x="190" y="-7.5" font-family="Helvetica,sans-Serif" font-size="10.00">cmath</text>
</g>
<!-- Node3&#45;&gt;Node5 -->
<g id="edge4" class="edge"><title>Node3&#45;&gt;Node5</title>
<path fill="none" stroke="midnightblue" d="M158.275,-56.083C163.642,-48.4554 171.518,-37.2645 178.079,-27.9408"/>
<polygon fill="midnightblue" stroke="midnightblue" points="180.949,-29.9434 183.842,-19.7511 175.225,-25.9149 180.949,-29.9434"/>
</g>
<!-- Node7 -->
<g id="node7" class="node"><title>Node7</title>
<g id="a_node7"><a xlink:href="_data_8h.html" target="_top" xlink:title="uscxml/messages/Data.h">
<polygon fill="white" stroke="black" points="580,-168.5 580,-187.5 708,-187.5 708,-168.5 580,-168.5"/>
<text text-anchor="middle" x="644" y="-175.5" font-family="Helvetica,sans-Serif" font-size="10.00">uscxml/messages/Data.h</text>
</a>
</g>
</g>
<!-- Node6&#45;&gt;Node7 -->
<g id="edge6" class="edge"><title>Node6&#45;&gt;Node7</title>
<path fill="none" stroke="midnightblue" d="M646.505,-224.083C646.111,-217.006 645.548,-206.861 645.055,-197.986"/>
<polygon fill="midnightblue" stroke="midnightblue" points="648.536,-197.542 644.486,-187.751 641.546,-197.93 648.536,-197.542"/>
</g>
<!-- Node17 -->
<g id="node17" class="node"><title>Node17</title>
<g id="a_node17"><a xlink:href="_u_u_i_d_8h.html" target="_top" xlink:title="uscxml/util/UUID.h">
<polygon fill="white" stroke="black" points="180.5,-112.5 180.5,-131.5 279.5,-131.5 279.5,-112.5 180.5,-112.5"/>
<text text-anchor="middle" x="230" y="-119.5" font-family="Helvetica,sans-Serif" font-size="10.00">uscxml/util/UUID.h</text>
</a>
</g>
</g>
<!-- Node6&#45;&gt;Node17 -->
<g id="edge21" class="edge"><title>Node6&#45;&gt;Node17</title>
<path fill="none" stroke="midnightblue" d="M614.626,-224.46C539.953,-204.762 355.682,-156.154 272.252,-134.146"/>
<polygon fill="midnightblue" stroke="midnightblue" points="272.916,-130.701 262.354,-131.535 271.13,-137.469 272.916,-130.701"/>
</g>
<!-- Node7&#45;&gt;Node3 -->
<g id="edge11" class="edge"><title>Node7&#45;&gt;Node3</title>
<path fill="none" stroke="midnightblue" d="M579.853,-169.052C494.219,-158.264 350.543,-139.475 327,-132 308.434,-126.105 305.967,-119.526 288,-112 256.334,-98.7349 219.272,-86.6907 191.843,-78.408"/>
<polygon fill="midnightblue" stroke="midnightblue" points="192.784,-75.0364 182.201,-75.5314 190.783,-81.7443 192.784,-75.0364"/>
</g>
<!-- Node7&#45;&gt;Node8 -->
<g id="edge7" class="edge"><title>Node7&#45;&gt;Node8</title>
<path fill="none" stroke="midnightblue" d="M671.412,-168.444C704.796,-158.023 760.672,-140.582 792.62,-130.61"/>
<polygon fill="midnightblue" stroke="midnightblue" points="793.967,-133.856 802.47,-127.535 791.881,-127.174 793.967,-133.856"/>
</g>
<!-- Node9 -->
<g id="node9" class="node"><title>Node9</title>
<polygon fill="white" stroke="#bfbfbf" points="526,-112.5 526,-131.5 562,-131.5 562,-112.5 526,-112.5"/>
<text text-anchor="middle" x="544" y="-119.5" font-family="Helvetica,sans-Serif" font-size="10.00">map</text>
</g>
<!-- Node7&#45;&gt;Node9 -->
<g id="edge8" class="edge"><title>Node7&#45;&gt;Node9</title>
<path fill="none" stroke="midnightblue" d="M627.933,-168.324C612.042,-159.743 587.493,-146.486 569.042,-136.522"/>
<polygon fill="midnightblue" stroke="midnightblue" points="570.489,-133.326 560.027,-131.655 567.163,-139.486 570.489,-133.326"/>
</g>
<!-- Node7&#45;&gt;Node10 -->
<g id="edge9" class="edge"><title>Node7&#45;&gt;Node10</title>
<path fill="none" stroke="midnightblue" d="M660.621,-168.39C675.821,-160.117 698.531,-146.726 716,-132 733.264,-117.446 750.118,-97.7606 761.169,-83.8785"/>
<polygon fill="midnightblue" stroke="midnightblue" points="764.151,-85.7452 767.538,-75.7064 758.63,-81.4419 764.151,-85.7452"/>
</g>
<!-- Node11 -->
<g id="node11" class="node"><title>Node11</title>
<polygon fill="white" stroke="#bfbfbf" points="960.5,-112.5 960.5,-131.5 1045.5,-131.5 1045.5,-112.5 960.5,-112.5"/>
<text text-anchor="middle" x="1003" y="-119.5" font-family="Helvetica,sans-Serif" font-size="10.00">uscxml/config.h</text>
</g>
<!-- Node7&#45;&gt;Node11 -->
<g id="edge10" class="edge"><title>Node7&#45;&gt;Node11</title>
<path fill="none" stroke="midnightblue" d="M700.885,-168.444C769.385,-158.14 883.519,-140.972 950.161,-130.948"/>
<polygon fill="midnightblue" stroke="midnightblue" points="951.066,-134.351 960.435,-129.403 950.025,-127.429 951.066,-134.351"/>
</g>
<!-- Node12 -->
<g id="node12" class="node"><title>Node12</title>
<g id="a_node12"><a xlink:href="_convenience_8h.html" target="_top" xlink:title="uscxml/util/Convenience.h">
<polygon fill="white" stroke="black" points="336.5,-112.5 336.5,-131.5 469.5,-131.5 469.5,-112.5 336.5,-112.5"/>
<text text-anchor="middle" x="403" y="-119.5" font-family="Helvetica,sans-Serif" font-size="10.00">uscxml/util/Convenience.h</text>
</a>
</g>
</g>
<!-- Node7&#45;&gt;Node12 -->
<g id="edge12" class="edge"><title>Node7&#45;&gt;Node12</title>
<path fill="none" stroke="midnightblue" d="M605.813,-168.444C563.859,-159.043 496.406,-143.929 450.929,-133.739"/>
<polygon fill="midnightblue" stroke="midnightblue" points="451.532,-130.288 441.009,-131.516 450.001,-137.118 451.532,-130.288"/>
</g>
<!-- Node16 -->
<g id="node16" class="node"><title>Node16</title>
<g id="a_node16"><a xlink:href="_blob_8h.html" target="_top" xlink:title="uscxml/messages/Blob.h">
<polygon fill="white" stroke="black" points="580.5,-112.5 580.5,-131.5 707.5,-131.5 707.5,-112.5 580.5,-112.5"/>
<text text-anchor="middle" x="644" y="-119.5" font-family="Helvetica,sans-Serif" font-size="10.00">uscxml/messages/Blob.h</text>
</a>
</g>
</g>
<!-- Node7&#45;&gt;Node16 -->
<g id="edge17" class="edge"><title>Node7&#45;&gt;Node16</title>
<path fill="none" stroke="midnightblue" d="M644,-168.083C644,-161.006 644,-150.861 644,-141.986"/>
<polygon fill="midnightblue" stroke="midnightblue" points="647.5,-141.751 644,-131.751 640.5,-141.751 647.5,-141.751"/>
</g>
<!-- Node12&#45;&gt;Node3 -->
<g id="edge13" class="edge"><title>Node12&#45;&gt;Node3</title>
<path fill="none" stroke="midnightblue" d="M363.228,-112.444C319.442,-103.023 248.986,-87.8656 201.62,-77.6752"/>
<polygon fill="midnightblue" stroke="midnightblue" points="202.098,-74.1981 191.586,-75.5164 200.626,-81.0415 202.098,-74.1981"/>
</g>
<!-- Node12&#45;&gt;Node13 -->
<g id="edge14" class="edge"><title>Node12&#45;&gt;Node13</title>
<path fill="none" stroke="midnightblue" d="M429.62,-112.444C459.842,-102.729 509.047,-86.9134 540.712,-76.7354"/>
<polygon fill="midnightblue" stroke="midnightblue" points="541.881,-80.0361 550.33,-73.6439 539.739,-73.3719 541.881,-80.0361"/>
</g>
<!-- Node14 -->
<g id="node14" class="node"><title>Node14</title>
<polygon fill="white" stroke="#bfbfbf" points="351.5,-56.5 351.5,-75.5 390.5,-75.5 390.5,-56.5 351.5,-56.5"/>
<text text-anchor="middle" x="371" y="-63.5" font-family="Helvetica,sans-Serif" font-size="10.00">limits</text>
</g>
<!-- Node12&#45;&gt;Node14 -->
<g id="edge15" class="edge"><title>Node12&#45;&gt;Node14</title>
<path fill="none" stroke="midnightblue" d="M397.716,-112.083C393.289,-104.613 386.837,-93.7244 381.382,-84.5199"/>
<polygon fill="midnightblue" stroke="midnightblue" points="384.295,-82.5697 376.186,-75.7511 378.273,-86.1383 384.295,-82.5697"/>
</g>
<!-- Node15 -->
<g id="node15" class="node"><title>Node15</title>
<polygon fill="white" stroke="#bfbfbf" points="409,-56.5 409,-75.5 461,-75.5 461,-56.5 409,-56.5"/>
<text text-anchor="middle" x="435" y="-63.5" font-family="Helvetica,sans-Serif" font-size="10.00">sstream</text>
</g>
<!-- Node12&#45;&gt;Node15 -->
<g id="edge16" class="edge"><title>Node12&#45;&gt;Node15</title>
<path fill="none" stroke="midnightblue" d="M408.284,-112.083C412.711,-104.613 419.163,-93.7244 424.618,-84.5199"/>
<polygon fill="midnightblue" stroke="midnightblue" points="427.727,-86.1383 429.814,-75.7511 421.705,-82.5697 427.727,-86.1383"/>
</g>
<!-- Node16&#45;&gt;Node3 -->
<g id="edge20" class="edge"><title>Node16&#45;&gt;Node3</title>
<path fill="none" stroke="midnightblue" d="M580.306,-113.088C577.16,-112.716 574.045,-112.351 571,-112 443.103,-97.2489 293.054,-81.5144 211.741,-73.1185"/>
<polygon fill="midnightblue" stroke="midnightblue" points="211.999,-69.6266 201.692,-72.0822 211.281,-76.5897 211.999,-69.6266"/>
</g>
<!-- Node16&#45;&gt;Node10 -->
<g id="edge19" class="edge"><title>Node16&#45;&gt;Node10</title>
<path fill="none" stroke="midnightblue" d="M664.599,-112.444C685.993,-103.557 719.681,-89.5632 744.024,-79.4514"/>
<polygon fill="midnightblue" stroke="midnightblue" points="745.605,-82.5848 753.497,-75.5164 742.92,-76.1203 745.605,-82.5848"/>
</g>
<!-- Node16&#45;&gt;Node13 -->
<g id="edge18" class="edge"><title>Node16&#45;&gt;Node13</title>
<path fill="none" stroke="midnightblue" d="M632.271,-112.324C621.163,-104.107 604.258,-91.6017 591.017,-81.8069"/>
<polygon fill="midnightblue" stroke="midnightblue" points="593.063,-78.9671 582.942,-75.8339 588.9,-84.5948 593.063,-78.9671"/>
</g>
<!-- Node17&#45;&gt;Node3 -->
<g id="edge22" class="edge"><title>Node17&#45;&gt;Node3</title>
<path fill="none" stroke="midnightblue" d="M217.468,-112.324C205.414,-103.979 186.973,-91.2122 172.731,-81.3524"/>
<polygon fill="midnightblue" stroke="midnightblue" points="174.715,-78.469 164.501,-75.6545 170.731,-84.2243 174.715,-78.469"/>
</g>
<!-- Node17&#45;&gt;Node13 -->
<g id="edge23" class="edge"><title>Node17&#45;&gt;Node13</title>
<path fill="none" stroke="midnightblue" d="M279.584,-113.148C351.055,-101.83 480.927,-81.2638 540.117,-71.8905"/>
<polygon fill="midnightblue" stroke="midnightblue" points="540.987,-75.2965 550.317,-70.2754 539.892,-68.3826 540.987,-75.2965"/>
</g>
<!-- Node18&#45;&gt;Node3 -->
<g id="edge29" class="edge"><title>Node18&#45;&gt;Node3</title>
<path fill="none" stroke="midnightblue" d="M866.784,-400.346C681.187,-397.118 0,-379.258 0,-291 0,-291 0,-291 0,-177 0,-123.437 62.7119,-93.2997 107.573,-78.5935"/>
<polygon fill="midnightblue" stroke="midnightblue" points="108.63,-81.9301 117.128,-75.6023 106.539,-75.2497 108.63,-81.9301"/>
</g>
<!-- Node18&#45;&gt;Node8 -->
<g id="edge46" class="edge"><title>Node18&#45;&gt;Node8</title>
<path fill="none" stroke="midnightblue" d="M924.413,-392.234C948.297,-372.754 999.833,-324.1 981,-280 952.174,-212.498 878.507,-160.126 840.488,-136.59"/>
<polygon fill="midnightblue" stroke="midnightblue" points="842.007,-133.418 831.639,-131.236 838.383,-139.407 842.007,-133.418"/>
</g>
<!-- Node18&#45;&gt;Node10 -->
<g id="edge48" class="edge"><title>Node18&#45;&gt;Node10</title>
<path fill="none" stroke="midnightblue" d="M959.034,-400.819C998.607,-398.249 1054.85,-388.501 1091,-356 1113.9,-335.41 1115,-321.795 1115,-291 1115,-291 1115,-291 1115,-177 1115,-146.205 1114.96,-131.341 1091,-112 1048.59,-77.7684 885.134,-69.5756 810.972,-67.6157"/>
<polygon fill="midnightblue" stroke="midnightblue" points="810.784,-64.1103 800.703,-67.3694 810.616,-71.1083 810.784,-64.1103"/>
</g>
<!-- Node18&#45;&gt;Node11 -->
<g id="edge28" class="edge"><title>Node18&#45;&gt;Node11</title>
<path fill="none" stroke="midnightblue" d="M950.28,-392.351C971.732,-385.651 997.766,-374.333 1015,-356 1036.09,-333.562 1039,-321.795 1039,-291 1039,-291 1039,-291 1039,-233 1039,-198.982 1023.26,-161.85 1012.59,-140.6"/>
<polygon fill="midnightblue" stroke="midnightblue" points="1015.59,-138.772 1007.86,-131.527 1009.38,-142.012 1015.59,-138.772"/>
</g>
<!-- Node18&#45;&gt;Node13 -->
<g id="edge47" class="edge"><title>Node18&#45;&gt;Node13</title>
<path fill="none" stroke="midnightblue" d="M953.961,-392.401C1002.54,-379.524 1077,-350.139 1077,-291 1077,-291 1077,-291 1077,-177 1077,-146.356 1078.17,-130.832 1054,-112 1036.09,-98.0509 705.707,-75.6761 601.925,-68.9645"/>
<polygon fill="midnightblue" stroke="midnightblue" points="601.986,-65.4613 591.782,-68.3119 601.536,-72.4468 601.986,-65.4613"/>
</g>
<!-- Node19 -->
<g id="node19" class="node"><title>Node19</title>
<g id="a_node19"><a xlink:href="_invoker_8h.html" target="_top" xlink:title="uscxml/plugins/Invoker.h">
<polygon fill="white" stroke="black" points="734,-336.5 734,-355.5 860,-355.5 860,-336.5 734,-336.5"/>
<text text-anchor="middle" x="797" y="-343.5" font-family="Helvetica,sans-Serif" font-size="10.00">uscxml/plugins/Invoker.h</text>
</a>
</g>
</g>
<!-- Node18&#45;&gt;Node19 -->
<g id="edge30" class="edge"><title>Node18&#45;&gt;Node19</title>
<path fill="none" stroke="midnightblue" d="M894.619,-392.444C875.784,-383.675 846.269,-369.935 824.621,-359.858"/>
<polygon fill="midnightblue" stroke="midnightblue" points="825.838,-356.564 815.295,-355.516 822.883,-362.91 825.838,-356.564"/>
</g>
<!-- Node21 -->
<g id="node21" class="node"><title>Node21</title>
<polygon fill="white" stroke="#bfbfbf" points="853.5,-280.5 853.5,-299.5 972.5,-299.5 972.5,-280.5 853.5,-280.5"/>
<text text-anchor="middle" x="913" y="-287.5" font-family="Helvetica,sans-Serif" font-size="10.00">xercesc/dom/DOM.hpp</text>
</g>
<!-- Node18&#45;&gt;Node21 -->
<g id="edge45" class="edge"><title>Node18&#45;&gt;Node21</title>
<path fill="none" stroke="midnightblue" d="M913,-392.368C913,-374.617 913,-333.666 913,-309.597"/>
<polygon fill="midnightblue" stroke="midnightblue" points="916.5,-309.591 913,-299.591 909.5,-309.591 916.5,-309.591"/>
</g>
<!-- Node22 -->
<g id="node22" class="node"><title>Node22</title>
<g id="a_node22"><a xlink:href="_i_o_processor_8h.html" target="_top" xlink:title="uscxml/plugins/IOProcessor.h">
<polygon fill="white" stroke="black" points="553.5,-336.5 553.5,-355.5 702.5,-355.5 702.5,-336.5 553.5,-336.5"/>
<text text-anchor="middle" x="628" y="-343.5" font-family="Helvetica,sans-Serif" font-size="10.00">uscxml/plugins/IOProcessor.h</text>
</a>
</g>
</g>
<!-- Node18&#45;&gt;Node22 -->
<g id="edge41" class="edge"><title>Node18&#45;&gt;Node22</title>
<path fill="none" stroke="midnightblue" d="M867.841,-392.444C817.706,-382.944 736.78,-367.611 682.994,-357.42"/>
<polygon fill="midnightblue" stroke="midnightblue" points="683.425,-353.939 672.948,-355.516 682.121,-360.817 683.425,-353.939"/>
</g>
<!-- Node19&#45;&gt;Node3 -->
<g id="edge32" class="edge"><title>Node19&#45;&gt;Node3</title>
<path fill="none" stroke="midnightblue" d="M733.963,-337.032C558.286,-314.616 76,-251.57 76,-235 76,-235 76,-235 76,-177 76,-137.276 109.964,-101.504 132.482,-82.1536"/>
<polygon fill="midnightblue" stroke="midnightblue" points="134.976,-84.6337 140.457,-75.5672 130.518,-79.2364 134.976,-84.6337"/>
</g>
<!-- Node19&#45;&gt;Node6 -->
<g id="edge39" class="edge"><title>Node19&#45;&gt;Node6</title>
<path fill="none" stroke="midnightblue" d="M738.484,-336.431C697.125,-329.038 646.848,-316.876 634,-300 623.678,-286.443 629.645,-266.824 636.511,-252.691"/>
<polygon fill="midnightblue" stroke="midnightblue" points="639.783,-253.997 641.45,-243.535 633.622,-250.675 639.783,-253.997"/>
</g>
<!-- Node19&#45;&gt;Node11 -->
<g id="edge31" class="edge"><title>Node19&#45;&gt;Node11</title>
<path fill="none" stroke="midnightblue" d="M802.081,-336.4C810.028,-323.356 826.327,-298.167 844,-280 862.347,-261.139 871.548,-261.719 891,-244 929.07,-209.321 968.946,-163.625 989.287,-139.524"/>
<polygon fill="midnightblue" stroke="midnightblue" points="992.118,-141.595 995.858,-131.683 986.753,-137.1 992.118,-141.595"/>
</g>
<!-- Node20 -->
<g id="node20" class="node"><title>Node20</title>
<g id="a_node20"><a xlink:href="_event_handler_8h.html" target="_top" xlink:title="uscxml/plugins/EventHandler.h">
<polygon fill="white" stroke="black" points="643,-280.5 643,-299.5 797,-299.5 797,-280.5 643,-280.5"/>
<text text-anchor="middle" x="720" y="-287.5" font-family="Helvetica,sans-Serif" font-size="10.00">uscxml/plugins/EventHandler.h</text>
</a>
</g>
</g>
<!-- Node19&#45;&gt;Node20 -->
<g id="edge33" class="edge"><title>Node19&#45;&gt;Node20</title>
<path fill="none" stroke="midnightblue" d="M784.629,-336.324C772.842,-328.058 754.868,-315.453 740.864,-305.632"/>
<polygon fill="midnightblue" stroke="midnightblue" points="742.538,-302.531 732.341,-299.655 738.518,-308.262 742.538,-302.531"/>
</g>
<!-- Node19&#45;&gt;Node21 -->
<g id="edge40" class="edge"><title>Node19&#45;&gt;Node21</title>
<path fill="none" stroke="midnightblue" d="M815.381,-336.444C834.216,-327.675 863.731,-313.935 885.379,-303.858"/>
<polygon fill="midnightblue" stroke="midnightblue" points="887.117,-306.91 894.705,-299.516 884.162,-300.564 887.117,-306.91"/>
</g>
<!-- Node20&#45;&gt;Node3 -->
<g id="edge34" class="edge"><title>Node20&#45;&gt;Node3</title>
<path fill="none" stroke="midnightblue" d="M723.572,-280.229C728.519,-266.496 735.425,-239.853 722,-224 681.887,-176.634 217.421,-173.204 171,-132 157.967,-120.432 153.657,-100.47 152.337,-85.712"/>
<polygon fill="midnightblue" stroke="midnightblue" points="155.83,-85.4712 151.816,-75.6659 148.839,-85.8337 155.83,-85.4712"/>
</g>
<!-- Node20&#45;&gt;Node6 -->
<g id="edge35" class="edge"><title>Node20&#45;&gt;Node6</title>
<path fill="none" stroke="midnightblue" d="M708.271,-280.324C697.163,-272.107 680.258,-259.602 667.017,-249.807"/>
<polygon fill="midnightblue" stroke="midnightblue" points="669.063,-246.967 658.942,-243.834 664.9,-252.595 669.063,-246.967"/>
</g>
<!-- Node20&#45;&gt;Node8 -->
<g id="edge36" class="edge"><title>Node20&#45;&gt;Node8</title>
<path fill="none" stroke="midnightblue" d="M727.594,-280.347C735.189,-271.508 747.002,-257.239 756,-244 779.269,-209.763 799.37,-165.426 809.664,-141.048"/>
<polygon fill="midnightblue" stroke="midnightblue" points="812.97,-142.212 813.568,-131.634 806.504,-139.53 812.97,-142.212"/>
</g>
<!-- Node20&#45;&gt;Node10 -->
<g id="edge38" class="edge"><title>Node20&#45;&gt;Node10</title>
<path fill="none" stroke="midnightblue" d="M769.832,-280.468C808.51,-272.731 857.579,-260.086 870,-244 905.871,-197.543 905.869,-161.288 874,-112 860.106,-90.511 833.234,-79.1821 810.842,-73.2682"/>
<polygon fill="midnightblue" stroke="midnightblue" points="811.471,-69.8202 800.932,-70.915 809.853,-76.6308 811.471,-69.8202"/>
</g>
<!-- Node20&#45;&gt;Node13 -->
<g id="edge37" class="edge"><title>Node20&#45;&gt;Node13</title>
<path fill="none" stroke="midnightblue" d="M733.923,-280.435C775.187,-254.034 890.856,-172.07 840,-112 809.777,-76.3005 665.984,-68.9013 601.92,-67.3834"/>
<polygon fill="midnightblue" stroke="midnightblue" points="601.708,-63.8785 591.639,-67.1747 601.566,-70.877 601.708,-63.8785"/>
</g>
<!-- Node22&#45;&gt;Node3 -->
<g id="edge42" class="edge"><title>Node22&#45;&gt;Node3</title>
<path fill="none" stroke="midnightblue" d="M553.431,-343.495C408.658,-339.937 100.307,-329.014 62,-300 37.4512,-281.407 38,-265.795 38,-235 38,-235 38,-235 38,-177 38,-146.205 41.4538,-134.939 62,-112 75.4728,-96.9581 95.1284,-86.3253 112.636,-79.1867"/>
<polygon fill="midnightblue" stroke="midnightblue" points="113.997,-82.4135 122.089,-75.5744 111.499,-75.8747 113.997,-82.4135"/>
</g>
<!-- Node22&#45;&gt;Node6 -->
<g id="edge44" class="edge"><title>Node22&#45;&gt;Node6</title>
<path fill="none" stroke="midnightblue" d="M619.659,-336.158C608.914,-323.642 592.566,-300.049 601,-280 606.026,-268.053 615.944,-257.692 625.287,-249.934"/>
<polygon fill="midnightblue" stroke="midnightblue" points="627.439,-252.694 633.213,-243.811 623.16,-247.155 627.439,-252.694"/>
</g>
<!-- Node22&#45;&gt;Node20 -->
<g id="edge43" class="edge"><title>Node22&#45;&gt;Node20</title>
<path fill="none" stroke="midnightblue" d="M642.781,-336.324C657.267,-327.822 679.573,-314.729 696.493,-304.797"/>
<polygon fill="midnightblue" stroke="midnightblue" points="698.403,-307.735 705.255,-299.655 694.859,-301.698 698.403,-307.735"/>
</g>
</g>
</svg>
        <g id="navigator" transform="translate(0 0)" fill="#404254">
                <rect fill="#f2f5e9" fill-opacity="0.5" stroke="#606060" stroke-width=".5" x="0" y="0" width="60" height="60"/>
                <use id="zoomplus" xlink:href="#zoomPlus" x="17" y="9" onmousedown="handleZoom(evt,'in')"/>
                <use id="zoomminus" xlink:href="#zoomMin" x="42" y="9" onmousedown="handleZoom(evt,'out')"/>
                <use id="reset" xlink:href="#resetDef" x="30" y="36" onmousedown="handleReset()"/>
                <g id="arrowUp" xlink:href="#dirArrow" transform="translate(30 24)" onmousedown="handlePan(0,-1)">
                  <use xlink:href="#rim" fill="#404040">
                        <set attributeName="fill" to="#808080" begin="arrowUp.mouseover" end="arrowUp.mouseout"/>
                  </use>
                  <path fill="none" stroke="white" stroke-width="1.5" d="M0,-3.0v7 M-2.5,-0.5L0,-3.0L2.5,-0.5"/>
                </g>
                <g id="arrowRight" xlink:href="#dirArrow" transform="rotate(90) translate(36 -43)" onmousedown="handlePan(1,0)">
                  <use xlink:href="#rim" fill="#404040">
                        <set attributeName="fill" to="#808080" begin="arrowRight.mouseover" end="arrowRight.mouseout"/>
                  </use>
                  <path fill="none" stroke="white" stroke-width="1.5" d="M0,-3.0v7 M-2.5,-0.5L0,-3.0L2.5,-0.5"/>
                </g>
                <g id="arrowDown" xlink:href="#dirArrow" transform="rotate(180) translate(-30 -48)" onmousedown="handlePan(0,1)">
                  <use xlink:href="#rim" fill="#404040">
                        <set attributeName="fill" to="#808080" begin="arrowDown.mouseover" end="arrowDown.mouseout"/>
                  </use>
                  <path fill="none" stroke="white" stroke-width="1.5" d="M0,-3.0v7 M-2.5,-0.5L0,-3.0L2.5,-0.5"/>
                </g>
                <g id="arrowLeft" xlink:href="#dirArrow" transform="rotate(270) translate(-36 17)" onmousedown="handlePan(-1,0)">
                  <use xlink:href="#rim" fill="#404040">
                        <set attributeName="fill" to="#808080" begin="arrowLeft.mouseover" end="arrowLeft.mouseout"/>
                  </use>
                  <path fill="none" stroke="white" stroke-width="1.5" d="M0,-3.0v7 M-2.5,-0.5L0,-3.0L2.5,-0.5"/>
                </g>
        </g>
        <svg viewBox="0 0 15 15" width="100%" height="30px" preserveAspectRatio="xMaxYMin meet">
         <g id="arrow_out" transform="scale(0.3 0.3)">
          <a xlink:href="_data_model_8cpp__incl_org.svg" target="_base">
           <rect id="button" ry="5" rx="5" y="6" x="6" height="38" width="38"
                fill="#f2f5e9" fill-opacity="0.5" stroke="#606060" stroke-width="1.0"/>
           <path id="arrow"
             d="M 11.500037,31.436501 C 11.940474,20.09759 22.043105,11.32322 32.158766,21.979434 L 37.068811,17.246167 C 37.068811,17.246167 37.088388,32 37.088388,32 L 22.160133,31.978069 C 22.160133,31.978069 26.997745,27.140456 26.997745,27.140456 C 18.528582,18.264221 13.291696,25.230495 11.500037,31.436501 z"
             style="fill:#404040;"/>
          </a>
         </g>
        </svg>
</svg>
