<?xml version="1.0" encoding="UTF-8" standalone="no"?>
<!DOCTYPE svg PUBLIC "-//W3C//DTD SVG 1.1//EN"
 "http://www.w3.org/Graphics/SVG/1.1/DTD/svg11.dtd">
<!-- Generated by graphviz version 2.40.1 (20161225.0304)
 -->
<!-- Title: plugins/DataModel.h Pages: 1 -->
<svg width="1858pt" height="464pt"
 viewBox="0.00 0.00 1857.50 464.00" xmlns="http://www.w3.org/2000/svg" xmlns:xlink="http://www.w3.org/1999/xlink">
<g id="graph0" class="graph" transform="scale(1 1) rotate(0) translate(4 460)">
<title>plugins/DataModel.h</title>
<polygon fill="#ffffff" stroke="transparent" points="-4,4 -4,-460 1853.5,-460 1853.5,4 -4,4"/>
<!-- Node1 -->
<g id="node1" class="node">
<title>Node1</title>
<polygon fill="#bfbfbf" stroke="#000000" points="962,-436.5 962,-455.5 1070,-455.5 1070,-436.5 962,-436.5"/>
<text text-anchor="middle" x="1016" y="-443.5" font-family="Helvetica,sans-Serif" font-size="10.00" fill="#000000">plugins/DataModel.h</text>
</g>
<!-- Node2 -->
<g id="node2" class="node">
<title>Node2</title>
<g id="a_node2"><a xlink:href="$_interpreter_8h.html" xlink:title="Interpreter.h">
<polygon fill="#ffffff" stroke="#000000" points="924.5,-380.5 924.5,-399.5 995.5,-399.5 995.5,-380.5 924.5,-380.5"/>
<text text-anchor="middle" x="960" y="-387.5" font-family="Helvetica,sans-Serif" font-size="10.00" fill="#000000">Interpreter.h</text>
</a>
</g>
</g>
<!-- Node1&#45;&gt;Node2 -->
<g id="edge1" class="edge">
<title>Node1&#45;&gt;Node2</title>
<path fill="none" stroke="#191970" d="M999.0751,-429.0751C989.4402,-419.4402 977.7196,-407.7196 969.6427,-399.6427"/>
<polygon fill="#191970" stroke="#191970" points="996.6996,-431.6493 1006.2455,-436.2455 1001.6493,-426.6996 996.6996,-431.6493"/>
</g>
<!-- Node38 -->
<g id="node38" class="node">
<title>Node38</title>
<g id="a_node38"><a xlink:href="$_data_model_8cpp.html" xlink:title="plugins/DataModel.cpp">
<polygon fill="#ffffff" stroke="#000000" points="1014,-380.5 1014,-399.5 1132,-399.5 1132,-380.5 1014,-380.5"/>
<text text-anchor="middle" x="1073" y="-387.5" font-family="Helvetica,sans-Serif" font-size="10.00" fill="#000000">plugins/DataModel.cpp</text>
</a>
</g>
</g>
<!-- Node1&#45;&gt;Node38 -->
<g id="edge51" class="edge">
<title>Node1&#45;&gt;Node38</title>
<path fill="none" stroke="#191970" d="M1033.2271,-429.0751C1043.0341,-419.4402 1054.964,-407.7196 1063.1851,-399.6427"/>
<polygon fill="#191970" stroke="#191970" points="1030.6091,-426.7406 1025.9286,-436.2455 1035.5149,-431.734 1030.6091,-426.7406"/>
</g>
<!-- Node3 -->
<g id="node3" class="node">
<title>Node3</title>
<g id="a_node3"><a xlink:href="$_breakpoint_8cpp.html" xlink:title="debug/Breakpoint.cpp">
<polygon fill="#ffffff" stroke="#000000" points="0,-196 0,-215 114,-215 114,-196 0,-196"/>
<text text-anchor="middle" x="57" y="-203" font-family="Helvetica,sans-Serif" font-size="10.00" fill="#000000">debug/Breakpoint.cpp</text>
</a>
</g>
</g>
<!-- Node2&#45;&gt;Node3 -->
<g id="edge2" class="edge">
<title>Node2&#45;&gt;Node3</title>
<path fill="none" stroke="#191970" d="M914.0781,-388.6901C791.2597,-384.8435 457.3467,-372.0426 351,-344 237.5216,-314.0769 114.3596,-241.3472 72.1634,-215.1255"/>
<polygon fill="#191970" stroke="#191970" points="914.1652,-392.1943 924.2682,-389.0037 914.3806,-385.1976 914.1652,-392.1943"/>
</g>
<!-- Node4 -->
<g id="node4" class="node">
<title>Node4</title>
<g id="a_node4"><a xlink:href="$_breakpoint_8h.html" xlink:title="debug/Breakpoint.h">
<polygon fill="#ffffff" stroke="#000000" points="222.5,-257.5 222.5,-276.5 325.5,-276.5 325.5,-257.5 222.5,-257.5"/>
<text text-anchor="middle" x="274" y="-264.5" font-family="Helvetica,sans-Serif" font-size="10.00" fill="#000000">debug/Breakpoint.h</text>
</a>
</g>
</g>
<!-- Node2&#45;&gt;Node4 -->
<g id="edge3" class="edge">
<title>Node2&#45;&gt;Node4</title>
<path fill="none" stroke="#191970" d="M913.8958,-388.2134C802.2168,-383.5317 519.7266,-369.4749 429,-344 374.0358,-328.5668 315.2785,-293.6274 288.6351,-276.6376"/>
<polygon fill="#191970" stroke="#191970" points="914.0221,-391.7215 924.1581,-388.6373 914.311,-384.7275 914.0221,-391.7215"/>
</g>
<!-- Node10 -->
<g id="node10" class="node">
<title>Node10</title>
<g id="a_node10"><a xlink:href="$_debug_session_8h.html" xlink:title="debug/DebugSession.h">
<polygon fill="#ffffff" stroke="#000000" points="132,-196 132,-215 252,-215 252,-196 132,-196"/>
<text text-anchor="middle" x="192" y="-203" font-family="Helvetica,sans-Serif" font-size="10.00" fill="#000000">debug/DebugSession.h</text>
</a>
</g>
</g>
<!-- Node2&#45;&gt;Node10 -->
<g id="edge14" class="edge">
<title>Node2&#45;&gt;Node10</title>
<path fill="none" stroke="#191970" d="M914.1149,-386.3406C848.677,-380.5393 725.0556,-367.4169 622,-344 541.2179,-325.6442 300.9505,-243.2714 219.4192,-215.034"/>
<polygon fill="#191970" stroke="#191970" points="913.84,-389.8298 924.1057,-387.2092 914.4465,-382.8561 913.84,-389.8298"/>
</g>
<!-- Node11 -->
<g id="node11" class="node">
<title>Node11</title>
<g id="a_node11"><a xlink:href="$_basic_content_executor_8cpp.html" xlink:title="interpreter/BasicContent\lExecutor.cpp">
<polygon fill="#ffffff" stroke="#000000" points="1088,-313.5 1088,-343.5 1212,-343.5 1212,-313.5 1088,-313.5"/>
<text text-anchor="start" x="1096" y="-331.5" font-family="Helvetica,sans-Serif" font-size="10.00" fill="#000000">interpreter/BasicContent</text>
<text text-anchor="middle" x="1150" y="-320.5" font-family="Helvetica,sans-Serif" font-size="10.00" fill="#000000">Executor.cpp</text>
</a>
</g>
</g>
<!-- Node2&#45;&gt;Node11 -->
<g id="edge15" class="edge">
<title>Node2&#45;&gt;Node11</title>
<path fill="none" stroke="#191970" d="M999.4799,-377.221C1029.7571,-367.4207 1071.626,-353.8684 1103.5208,-343.5446"/>
<polygon fill="#191970" stroke="#191970" points="998.1237,-373.9811 989.6875,-380.3906 1000.2794,-380.6409 998.1237,-373.9811"/>
</g>
<!-- Node12 -->
<g id="node12" class="node">
<title>Node12</title>
<g id="a_node12"><a xlink:href="$_micro_step_impl_8h.html" xlink:title="interpreter/MicroStepImpl.h">
<polygon fill="#ffffff" stroke="#000000" points="769.5,-319 769.5,-338 906.5,-338 906.5,-319 769.5,-319"/>
<text text-anchor="middle" x="838" y="-326" font-family="Helvetica,sans-Serif" font-size="10.00" fill="#000000">interpreter/MicroStepImpl.h</text>
</a>
</g>
</g>
<!-- Node2&#45;&gt;Node12 -->
<g id="edge16" class="edge">
<title>Node2&#45;&gt;Node12</title>
<path fill="none" stroke="#191970" d="M931.9922,-375.8813C908.9845,-364.2832 877.0203,-348.1701 856.9286,-338.0419"/>
<polygon fill="#191970" stroke="#191970" points="930.4324,-379.0145 940.9375,-380.3906 933.5834,-372.7638 930.4324,-379.0145"/>
</g>
<!-- Node15 -->
<g id="node15" class="node">
<title>Node15</title>
<g id="a_node15"><a xlink:href="$_interpreter_impl_8cpp.html" xlink:title="interpreter/InterpreterImpl.cpp">
<polygon fill="#ffffff" stroke="#000000" points="387.5,-196 387.5,-215 536.5,-215 536.5,-196 387.5,-196"/>
<text text-anchor="middle" x="462" y="-203" font-family="Helvetica,sans-Serif" font-size="10.00" fill="#000000">interpreter/InterpreterImpl.cpp</text>
</a>
</g>
</g>
<!-- Node2&#45;&gt;Node15 -->
<g id="edge46" class="edge">
<title>Node2&#45;&gt;Node15</title>
<path fill="none" stroke="#191970" d="M914.0865,-384.9937C834.1984,-374.7197 666.3715,-346.1191 543,-277 512.8898,-260.1307 484.2183,-230.574 470.4723,-215.2828"/>
<polygon fill="#191970" stroke="#191970" points="913.9466,-388.5034 924.3031,-386.2688 914.8136,-381.5572 913.9466,-388.5034"/>
</g>
<!-- Node18 -->
<g id="node18" class="node">
<title>Node18</title>
<g id="a_node18"><a xlink:href="$_interpreter_8cpp.html" xlink:title="Interpreter.cpp">
<polygon fill="#ffffff" stroke="#000000" points="1376,-196 1376,-215 1458,-215 1458,-196 1376,-196"/>
<text text-anchor="middle" x="1417" y="-203" font-family="Helvetica,sans-Serif" font-size="10.00" fill="#000000">Interpreter.cpp</text>
</a>
</g>
</g>
<!-- Node2&#45;&gt;Node18 -->
<g id="edge47" class="edge">
<title>Node2&#45;&gt;Node18</title>
<path fill="none" stroke="#191970" d="M966.4684,-370.4147C977.5213,-340.3569 1003.1038,-283.5509 1046,-257 1107.0349,-219.2219 1296.7393,-235.6926 1367,-221 1374.3834,-219.456 1382.235,-217.2839 1389.4751,-215.0532"/>
<polygon fill="#191970" stroke="#191970" points="963.0529,-369.578 963.0485,-380.1729 969.659,-371.8933 963.0529,-369.578"/>
</g>
<!-- Node24 -->
<g id="node24" class="node">
<title>Node24</title>
<g id="a_node24"><a xlink:href="$_transformer_8h.html" xlink:title="transform/Transformer.h">
<polygon fill="#ffffff" stroke="#000000" points="1476,-196 1476,-215 1600,-215 1600,-196 1476,-196"/>
<text text-anchor="middle" x="1538" y="-203" font-family="Helvetica,sans-Serif" font-size="10.00" fill="#000000">transform/Transformer.h</text>
</a>
</g>
</g>
<!-- Node2&#45;&gt;Node24 -->
<g id="edge49" class="edge">
<title>Node2&#45;&gt;Node24</title>
<path fill="none" stroke="#191970" d="M979.8575,-374.0596C1002.5487,-356.6083 1041.418,-328.9862 1079,-313 1098.4403,-304.7307 1385.175,-239.8552 1495.3339,-215.0758"/>
<polygon fill="#191970" stroke="#191970" points="977.4418,-371.5054 971.7173,-380.4206 981.7519,-377.0211 977.4418,-371.5054"/>
</g>
<!-- Node36 -->
<g id="node36" class="node">
<title>Node36</title>
<g id="a_node36"><a xlink:href="$_factory_8cpp.html" xlink:title="plugins/Factory.cpp">
<polygon fill="#ffffff" stroke="#000000" points="1230.5,-319 1230.5,-338 1333.5,-338 1333.5,-319 1230.5,-319"/>
<text text-anchor="middle" x="1282" y="-326" font-family="Helvetica,sans-Serif" font-size="10.00" fill="#000000">plugins/Factory.cpp</text>
</a>
</g>
</g>
<!-- Node2&#45;&gt;Node36 -->
<g id="edge48" class="edge">
<title>Node2&#45;&gt;Node36</title>
<path fill="none" stroke="#191970" d="M1005.7061,-379.9533C1102.2355,-361.5789 1128.8228,-363.357 1221,-344 1229.341,-342.2484 1238.2621,-340.1253 1246.6355,-338.0196"/>
<polygon fill="#191970" stroke="#191970" points="1004.9823,-376.5283 995.8253,-381.8575 1006.3069,-383.4019 1004.9823,-376.5283"/>
</g>
<!-- Node37 -->
<g id="node37" class="node">
<title>Node37</title>
<g id="a_node37"><a xlink:href="$uscxml_8h.html" xlink:title="uscxml.h">
<polygon fill="#ffffff" stroke="#000000" points="1352,-319 1352,-338 1408,-338 1408,-319 1352,-319"/>
<text text-anchor="middle" x="1380" y="-326" font-family="Helvetica,sans-Serif" font-size="10.00" fill="#000000">uscxml.h</text>
</a>
</g>
</g>
<!-- Node2&#45;&gt;Node37 -->
<g id="edge50" class="edge">
<title>Node2&#45;&gt;Node37</title>
<path fill="none" stroke="#191970" d="M1005.8353,-380.0547C1155.9624,-356.6634 1199.821,-380.7745 1343,-344 1348.6663,-342.5447 1354.5977,-340.3756 1360.0102,-338.1178"/>
<polygon fill="#191970" stroke="#191970" points="1005.1106,-376.6261 995.7909,-381.6652 1006.2189,-383.5378 1005.1106,-376.6261"/>
</g>
<!-- Node4&#45;&gt;Node3 -->
<g id="edge4" class="edge">
<title>Node4&#45;&gt;Node3</title>
<path fill="none" stroke="#191970" d="M230.328,-254.6229C189.1263,-242.9459 128.2316,-225.6877 90.6682,-215.0419"/>
<polygon fill="#191970" stroke="#191970" points="229.5183,-258.0312 240.0938,-257.3906 231.427,-251.2965 229.5183,-258.0312"/>
</g>
<!-- Node5 -->
<g id="node5" class="node">
<title>Node5</title>
<g id="a_node5"><a xlink:href="$_debugger_8h.html" xlink:title="debug/Debugger.h">
<polygon fill="#ffffff" stroke="#000000" points="270.5,-196 270.5,-215 369.5,-215 369.5,-196 270.5,-196"/>
<text text-anchor="middle" x="320" y="-203" font-family="Helvetica,sans-Serif" font-size="10.00" fill="#000000">debug/Debugger.h</text>
</a>
</g>
</g>
<!-- Node4&#45;&gt;Node5 -->
<g id="edge5" class="edge">
<title>Node4&#45;&gt;Node5</title>
<path fill="none" stroke="#191970" d="M287.2791,-249.2465C295.5583,-238.1775 305.8969,-224.3552 312.7112,-215.2449"/>
<polygon fill="#191970" stroke="#191970" points="284.3744,-247.2864 281.1875,-257.3906 289.9799,-251.4792 284.3744,-247.2864"/>
</g>
<!-- Node4&#45;&gt;Node10 -->
<g id="edge10" class="edge">
<title>Node4&#45;&gt;Node10</title>
<path fill="none" stroke="#191970" d="M252.8655,-251.1491C237.6293,-239.722 217.5666,-224.6749 204.7225,-215.0419"/>
<polygon fill="#191970" stroke="#191970" points="251.0875,-254.1906 261.1875,-257.3906 255.2875,-248.5906 251.0875,-254.1906"/>
</g>
<!-- Node6 -->
<g id="node6" class="node">
<title>Node6</title>
<g id="a_node6"><a xlink:href="$_debugger_8cpp.html" xlink:title="debug/Debugger.cpp">
<polygon fill="#ffffff" stroke="#000000" points="131,-129 131,-148 241,-148 241,-129 131,-129"/>
<text text-anchor="middle" x="186" y="-136" font-family="Helvetica,sans-Serif" font-size="10.00" fill="#000000">debug/Debugger.cpp</text>
</a>
</g>
</g>
<!-- Node5&#45;&gt;Node6 -->
<g id="edge6" class="edge">
<title>Node5&#45;&gt;Node6</title>
<path fill="none" stroke="#191970" d="M291.8026,-191.4013C265.7779,-178.389 227.8346,-159.4173 205.1633,-148.0817"/>
<polygon fill="#191970" stroke="#191970" points="290.2915,-194.5588 300.8011,-195.9005 293.4221,-188.2978 290.2915,-194.5588"/>
</g>
<!-- Node7 -->
<g id="node7" class="node">
<title>Node7</title>
<g id="a_node7"><a xlink:href="$_debugger_servlet_8h.html" xlink:title="debug/DebuggerServlet.h">
<polygon fill="#ffffff" stroke="#000000" points="409,-129 409,-148 539,-148 539,-129 409,-129"/>
<text text-anchor="middle" x="474" y="-136" font-family="Helvetica,sans-Serif" font-size="10.00" fill="#000000">debug/DebuggerServlet.h</text>
</a>
</g>
</g>
<!-- Node5&#45;&gt;Node7 -->
<g id="edge7" class="edge">
<title>Node5&#45;&gt;Node7</title>
<path fill="none" stroke="#191970" d="M351.622,-191.7424C381.5485,-178.7224 425.6929,-159.5167 451.9765,-148.0817"/>
<polygon fill="#191970" stroke="#191970" points="349.8379,-188.7016 342.0644,-195.9005 352.6305,-195.1205 349.8379,-188.7016"/>
</g>
<!-- Node9 -->
<g id="node9" class="node">
<title>Node9</title>
<g id="a_node9"><a xlink:href="$_debug_session_8cpp.html" xlink:title="debug/DebugSession.cpp">
<polygon fill="#ffffff" stroke="#000000" points="259.5,-129 259.5,-148 390.5,-148 390.5,-129 259.5,-129"/>
<text text-anchor="middle" x="325" y="-136" font-family="Helvetica,sans-Serif" font-size="10.00" fill="#000000">debug/DebugSession.cpp</text>
</a>
</g>
</g>
<!-- Node5&#45;&gt;Node9 -->
<g id="edge9" class="edge">
<title>Node5&#45;&gt;Node9</title>
<path fill="none" stroke="#191970" d="M321.4845,-185.6079C322.4094,-173.214 323.5577,-157.8263 324.285,-148.0817"/>
<polygon fill="#191970" stroke="#191970" points="317.9704,-185.6678 320.7164,-195.9005 324.951,-186.1888 317.9704,-185.6678"/>
</g>
<!-- Node8 -->
<g id="node8" class="node">
<title>Node8</title>
<g id="a_node8"><a xlink:href="$_debugger_servlet_8cpp.html" xlink:title="debug/DebuggerServlet.cpp">
<polygon fill="#ffffff" stroke="#000000" points="218.5,-67.5 218.5,-86.5 359.5,-86.5 359.5,-67.5 218.5,-67.5"/>
<text text-anchor="middle" x="289" y="-74.5" font-family="Helvetica,sans-Serif" font-size="10.00" fill="#000000">debug/DebuggerServlet.cpp</text>
</a>
</g>
</g>
<!-- Node7&#45;&gt;Node8 -->
<g id="edge8" class="edge">
<title>Node7&#45;&gt;Node8</title>
<path fill="none" stroke="#191970" d="M435.1977,-125.6009C400.11,-113.9366 349.2534,-97.0302 317.7033,-86.5419"/>
<polygon fill="#191970" stroke="#191970" points="434.5002,-129.0573 445.0938,-128.8906 436.7085,-122.4147 434.5002,-129.0573"/>
</g>
<!-- Node10&#45;&gt;Node6 -->
<g id="edge11" class="edge">
<title>Node10&#45;&gt;Node6</title>
<path fill="none" stroke="#191970" d="M190.2186,-185.6079C189.1087,-173.214 187.7307,-157.8263 186.8581,-148.0817"/>
<polygon fill="#191970" stroke="#191970" points="186.7623,-186.2526 191.1403,-195.9005 193.7344,-185.6282 186.7623,-186.2526"/>
</g>
<!-- Node10&#45;&gt;Node8 -->
<g id="edge12" class="edge">
<title>Node10&#45;&gt;Node8</title>
<path fill="none" stroke="#191970" d="M164.3465,-190.8106C137.4824,-174.6073 103.285,-147.567 122,-123 129.5173,-113.1321 196.7196,-96.8752 243.5463,-86.5644"/>
<polygon fill="#191970" stroke="#191970" points="162.6807,-193.8904 173.0888,-195.871 166.1875,-187.8322 162.6807,-193.8904"/>
</g>
<!-- Node10&#45;&gt;Node9 -->
<g id="edge13" class="edge">
<title>Node10&#45;&gt;Node9</title>
<path fill="none" stroke="#191970" d="M219.9869,-191.4013C245.8174,-178.389 283.4776,-159.4173 305.9797,-148.0817"/>
<polygon fill="#191970" stroke="#191970" points="218.4118,-188.2757 211.0557,-195.9005 221.5611,-194.5273 218.4118,-188.2757"/>
</g>
<!-- Node13 -->
<g id="node13" class="node">
<title>Node13</title>
<g id="a_node13"><a xlink:href="$_fast_micro_step_8h.html" xlink:title="interpreter/FastMicroStep.h">
<polygon fill="#ffffff" stroke="#000000" points="552,-257.5 552,-276.5 690,-276.5 690,-257.5 552,-257.5"/>
<text text-anchor="middle" x="621" y="-264.5" font-family="Helvetica,sans-Serif" font-size="10.00" fill="#000000">interpreter/FastMicroStep.h</text>
</a>
</g>
</g>
<!-- Node12&#45;&gt;Node13 -->
<g id="edge17" class="edge">
<title>Node12&#45;&gt;Node13</title>
<path fill="none" stroke="#191970" d="M794.328,-316.1229C753.1263,-304.4459 692.2316,-287.1877 654.6682,-276.5419"/>
<polygon fill="#191970" stroke="#191970" points="793.5183,-319.5312 804.0938,-318.8906 795.427,-312.7965 793.5183,-319.5312"/>
</g>
<!-- Node16 -->
<g id="node16" class="node">
<title>Node16</title>
<g id="a_node16"><a xlink:href="$_interpreter_impl_8h.html" xlink:title="interpreter/InterpreterImpl.h">
<polygon fill="#ffffff" stroke="#000000" points="708,-257.5 708,-276.5 846,-276.5 846,-257.5 708,-257.5"/>
<text text-anchor="middle" x="777" y="-264.5" font-family="Helvetica,sans-Serif" font-size="10.00" fill="#000000">interpreter/InterpreterImpl.h</text>
</a>
</g>
</g>
<!-- Node12&#45;&gt;Node16 -->
<g id="edge20" class="edge">
<title>Node12&#45;&gt;Node16</title>
<path fill="none" stroke="#191970" d="M821.3617,-311.7253C810.2304,-300.5028 795.9703,-286.1258 786.6656,-276.7449"/>
<polygon fill="#191970" stroke="#191970" points="818.9416,-314.2555 828.4688,-318.8906 823.9115,-309.326 818.9416,-314.2555"/>
</g>
<!-- Node35 -->
<g id="node35" class="node">
<title>Node35</title>
<g id="a_node35"><a xlink:href="$_micro_step_8cpp.html" xlink:title="interpreter/MicroStep.cpp">
<polygon fill="#ffffff" stroke="#000000" points="864.5,-257.5 864.5,-276.5 993.5,-276.5 993.5,-257.5 864.5,-257.5"/>
<text text-anchor="middle" x="929" y="-264.5" font-family="Helvetica,sans-Serif" font-size="10.00" fill="#000000">interpreter/MicroStep.cpp</text>
</a>
</g>
</g>
<!-- Node12&#45;&gt;Node35 -->
<g id="edge45" class="edge">
<title>Node12&#45;&gt;Node35</title>
<path fill="none" stroke="#191970" d="M860.5117,-313.286C877.5275,-301.7864 900.3609,-286.355 914.8811,-276.5419"/>
<polygon fill="#191970" stroke="#191970" points="858.5443,-310.3913 852.2188,-318.8906 862.4639,-316.191 858.5443,-310.3913"/>
</g>
<!-- Node14 -->
<g id="node14" class="node">
<title>Node14</title>
<g id="a_node14"><a xlink:href="$_fast_micro_step_8cpp.html" xlink:title="interpreter/FastMicroStep.cpp">
<polygon fill="#ffffff" stroke="#000000" points="555,-196 555,-215 703,-215 703,-196 555,-196"/>
<text text-anchor="middle" x="629" y="-203" font-family="Helvetica,sans-Serif" font-size="10.00" fill="#000000">interpreter/FastMicroStep.cpp</text>
</a>
</g>
</g>
<!-- Node13&#45;&gt;Node14 -->
<g id="edge18" class="edge">
<title>Node13&#45;&gt;Node14</title>
<path fill="none" stroke="#191970" d="M623.5696,-247.2462C624.9607,-236.5519 626.6177,-223.814 627.7324,-215.2449"/>
<polygon fill="#191970" stroke="#191970" points="620.0693,-247.0227 622.25,-257.3906 627.0108,-247.9257 620.0693,-247.0227"/>
</g>
<!-- Node13&#45;&gt;Node15 -->
<g id="edge19" class="edge">
<title>Node13&#45;&gt;Node15</title>
<path fill="none" stroke="#191970" d="M586.4795,-253.6477C556.3718,-242.0023 513.4363,-225.3952 486.6693,-215.0419"/>
<polygon fill="#191970" stroke="#191970" points="585.567,-257.0474 596.1563,-257.3906 588.0922,-250.5188 585.567,-257.0474"/>
</g>
<!-- Node16&#45;&gt;Node3 -->
<g id="edge21" class="edge">
<title>Node16&#45;&gt;Node3</title>
<path fill="none" stroke="#191970" d="M697.7417,-256.9427C441.9273,-233.3226 373.5288,-257.9785 123,-221 113.1027,-219.5391 102.5016,-217.3396 92.7553,-215.0529"/>
<polygon fill="#191970" stroke="#191970" points="697.4203,-260.4279 707.7037,-257.8781 698.0747,-253.4585 697.4203,-260.4279"/>
</g>
<!-- Node16&#45;&gt;Node5 -->
<g id="edge22" class="edge">
<title>Node16&#45;&gt;Node5</title>
<path fill="none" stroke="#191970" d="M697.6647,-256.8688C554.7325,-240.2017 515.9053,-247.009 378,-221 369.6014,-219.416 360.6323,-217.2565 352.3199,-215.0526"/>
<polygon fill="#191970" stroke="#191970" points="697.3423,-260.355 707.6846,-258.0556 698.1657,-253.4036 697.3423,-260.355"/>
</g>
<!-- Node16&#45;&gt;Node15 -->
<g id="edge24" class="edge">
<title>Node16&#45;&gt;Node15</title>
<path fill="none" stroke="#191970" d="M718.0716,-255.4949C658.2217,-243.81 566.617,-225.9252 510.7286,-215.0137"/>
<polygon fill="#191970" stroke="#191970" points="717.6415,-258.977 728.1269,-257.4581 718.9829,-252.1067 717.6415,-258.977"/>
</g>
<!-- Node17 -->
<g id="node17" class="node">
<title>Node17</title>
<g id="a_node17"><a xlink:href="$_interpreter_issue_8cpp.html" xlink:title="debug/InterpreterIssue.cpp">
<polygon fill="#ffffff" stroke="#000000" points="1222,-196 1222,-215 1358,-215 1358,-196 1222,-196"/>
<text text-anchor="middle" x="1290" y="-203" font-family="Helvetica,sans-Serif" font-size="10.00" fill="#000000">debug/InterpreterIssue.cpp</text>
</a>
</g>
</g>
<!-- Node16&#45;&gt;Node17 -->
<g id="edge23" class="edge">
<title>Node16&#45;&gt;Node17</title>
<path fill="none" stroke="#191970" d="M856.5338,-256.974C1016.1755,-239.2099 1058.5431,-244.2763 1213,-221 1223.922,-219.3541 1235.6411,-217.198 1246.5595,-215.0193"/>
<polygon fill="#191970" stroke="#191970" points="855.8958,-253.5236 846.3501,-258.1203 856.6789,-260.4797 855.8958,-253.5236"/>
</g>
<!-- Node16&#45;&gt;Node18 -->
<g id="edge25" class="edge">
<title>Node16&#45;&gt;Node18</title>
<path fill="none" stroke="#191970" d="M856.6073,-257.0104C1084.3908,-235.5094 1146.5085,-262.37 1367,-221 1374.6817,-219.5587 1382.845,-217.3365 1390.2993,-215.0208"/>
<polygon fill="#191970" stroke="#191970" points="855.9549,-253.557 846.3375,-258.0018 856.6276,-260.5246 855.9549,-253.557"/>
</g>
<!-- Node19 -->
<g id="node19" class="node">
<title>Node19</title>
<g id="a_node19"><a xlink:href="$_u_s_c_x_m_l_invoker_8h.html" xlink:title="plugins/invoker/scxml\l/USCXMLInvoker.h">
<polygon fill="#ffffff" stroke="#000000" points="721,-190.5 721,-220.5 833,-220.5 833,-190.5 721,-190.5"/>
<text text-anchor="start" x="729" y="-208.5" font-family="Helvetica,sans-Serif" font-size="10.00" fill="#000000">plugins/invoker/scxml</text>
<text text-anchor="middle" x="777" y="-197.5" font-family="Helvetica,sans-Serif" font-size="10.00" fill="#000000">/USCXMLInvoker.h</text>
</a>
</g>
</g>
<!-- Node16&#45;&gt;Node19 -->
<g id="edge26" class="edge">
<title>Node16&#45;&gt;Node19</title>
<path fill="none" stroke="#191970" d="M777,-247.3693C777,-238.681 777,-228.6241 777,-220.5446"/>
<polygon fill="#191970" stroke="#191970" points="773.5001,-247.3906 777,-257.3906 780.5001,-247.3907 773.5001,-247.3906"/>
</g>
<!-- Node21 -->
<g id="node21" class="node">
<title>Node21</title>
<g id="a_node21"><a xlink:href="$_basic_h_t_t_p_i_o_processor_8h.html" xlink:title="plugins/ioprocessor\l/basichttp/BasicHTTPIOProcessor.h">
<polygon fill="#ffffff" stroke="#000000" points="851.5,-190.5 851.5,-220.5 1028.5,-220.5 1028.5,-190.5 851.5,-190.5"/>
<text text-anchor="start" x="859.5" y="-208.5" font-family="Helvetica,sans-Serif" font-size="10.00" fill="#000000">plugins/ioprocessor</text>
<text text-anchor="middle" x="940" y="-197.5" font-family="Helvetica,sans-Serif" font-size="10.00" fill="#000000">/basichttp/BasicHTTPIOProcessor.h</text>
</a>
</g>
</g>
<!-- Node16&#45;&gt;Node21 -->
<g id="edge28" class="edge">
<title>Node16&#45;&gt;Node21</title>
<path fill="none" stroke="#191970" d="M811.891,-253.8356C837.7798,-244.0678 873.1203,-230.7338 900.1257,-220.5446"/>
<polygon fill="#191970" stroke="#191970" points="810.5894,-250.5858 802.4688,-257.3906 813.0605,-257.1351 810.5894,-250.5858"/>
</g>
<!-- Node23 -->
<g id="node23" class="node">
<title>Node23</title>
<g id="a_node23"><a xlink:href="$_s_c_x_m_l_i_o_processor_8cpp.html" xlink:title="plugins/ioprocessor\l/scxml/SCXMLIOProcessor.cpp">
<polygon fill="#ffffff" stroke="#000000" points="1046.5,-190.5 1046.5,-220.5 1203.5,-220.5 1203.5,-190.5 1046.5,-190.5"/>
<text text-anchor="start" x="1054.5" y="-208.5" font-family="Helvetica,sans-Serif" font-size="10.00" fill="#000000">plugins/ioprocessor</text>
<text text-anchor="middle" x="1125" y="-197.5" font-family="Helvetica,sans-Serif" font-size="10.00" fill="#000000">/scxml/SCXMLIOProcessor.cpp</text>
</a>
</g>
</g>
<!-- Node16&#45;&gt;Node23 -->
<g id="edge30" class="edge">
<title>Node16&#45;&gt;Node23</title>
<path fill="none" stroke="#191970" d="M841.1491,-255.7282C893.9855,-246.436 970.8585,-232.8977 1038,-221 1040.7192,-220.5182 1043.4861,-220.0274 1046.2806,-219.5315"/>
<polygon fill="#191970" stroke="#191970" points="840.4846,-252.2913 831.2419,-257.4704 841.697,-259.1855 840.4846,-252.2913"/>
</g>
<!-- Node16&#45;&gt;Node24 -->
<g id="edge31" class="edge">
<title>Node16&#45;&gt;Node24</title>
<path fill="none" stroke="#191970" d="M856.5136,-257.0257C1128.6211,-232.536 1200.808,-257.6696 1467,-221 1477.6239,-219.5365 1489.0202,-217.3361 1499.5048,-215.0494"/>
<polygon fill="#191970" stroke="#191970" points="855.973,-253.5605 846.3332,-257.9566 856.6104,-260.5314 855.973,-253.5605"/>
</g>
<!-- Node20 -->
<g id="node20" class="node">
<title>Node20</title>
<g id="a_node20"><a xlink:href="$_u_s_c_x_m_l_invoker_8cpp.html" xlink:title="plugins/invoker/scxml\l/USCXMLInvoker.cpp">
<polygon fill="#ffffff" stroke="#000000" points="717.5,-123.5 717.5,-153.5 830.5,-153.5 830.5,-123.5 717.5,-123.5"/>
<text text-anchor="start" x="725.5" y="-141.5" font-family="Helvetica,sans-Serif" font-size="10.00" fill="#000000">plugins/invoker/scxml</text>
<text text-anchor="middle" x="774" y="-130.5" font-family="Helvetica,sans-Serif" font-size="10.00" fill="#000000">/USCXMLInvoker.cpp</text>
</a>
</g>
</g>
<!-- Node19&#45;&gt;Node20 -->
<g id="edge27" class="edge">
<title>Node19&#45;&gt;Node20</title>
<path fill="none" stroke="#191970" d="M775.8593,-180.0249C775.461,-171.128 775.0267,-161.4287 774.6781,-153.6432"/>
<polygon fill="#191970" stroke="#191970" points="772.3754,-180.4633 776.3193,-190.2967 779.3683,-180.1501 772.3754,-180.4633"/>
</g>
<!-- Node22 -->
<g id="node22" class="node">
<title>Node22</title>
<g id="a_node22"><a xlink:href="$_basic_h_t_t_p_i_o_processor_8cpp.html" xlink:title="plugins/ioprocessor\l/basichttp/BasicHTTPIOProcessor.cpp">
<polygon fill="#ffffff" stroke="#000000" points="848.5,-123.5 848.5,-153.5 1035.5,-153.5 1035.5,-123.5 848.5,-123.5"/>
<text text-anchor="start" x="856.5" y="-141.5" font-family="Helvetica,sans-Serif" font-size="10.00" fill="#000000">plugins/ioprocessor</text>
<text text-anchor="middle" x="942" y="-130.5" font-family="Helvetica,sans-Serif" font-size="10.00" fill="#000000">/basichttp/BasicHTTPIOProcessor.cpp</text>
</a>
</g>
</g>
<!-- Node21&#45;&gt;Node22 -->
<g id="edge29" class="edge">
<title>Node21&#45;&gt;Node22</title>
<path fill="none" stroke="#191970" d="M940.7605,-180.0249C941.026,-171.128 941.3156,-161.4287 941.548,-153.6432"/>
<polygon fill="#191970" stroke="#191970" points="937.2539,-180.1967 940.4538,-190.2967 944.2507,-180.4056 937.2539,-180.1967"/>
</g>
<!-- Node25 -->
<g id="node25" class="node">
<title>Node25</title>
<g id="a_node25"><a xlink:href="$_chart_to_c_8h.html" xlink:title="transform/ChartToC.h">
<polygon fill="#ffffff" stroke="#000000" points="1481.5,-129 1481.5,-148 1594.5,-148 1594.5,-129 1481.5,-129"/>
<text text-anchor="middle" x="1538" y="-136" font-family="Helvetica,sans-Serif" font-size="10.00" fill="#000000">transform/ChartToC.h</text>
</a>
</g>
</g>
<!-- Node24&#45;&gt;Node25 -->
<g id="edge32" class="edge">
<title>Node24&#45;&gt;Node25</title>
<path fill="none" stroke="#191970" d="M1538,-185.6079C1538,-173.214 1538,-157.8263 1538,-148.0817"/>
<polygon fill="#191970" stroke="#191970" points="1534.5001,-185.9005 1538,-195.9005 1541.5001,-185.9006 1534.5001,-185.9005"/>
</g>
<!-- Node27 -->
<g id="node27" class="node">
<title>Node27</title>
<g id="a_node27"><a xlink:href="$_chart_to_java_8h.html" xlink:title="transform/ChartToJava.h">
<polygon fill="#ffffff" stroke="#000000" points="1236.5,-67.5 1236.5,-86.5 1363.5,-86.5 1363.5,-67.5 1236.5,-67.5"/>
<text text-anchor="middle" x="1300" y="-74.5" font-family="Helvetica,sans-Serif" font-size="10.00" fill="#000000">transform/ChartToJava.h</text>
</a>
</g>
</g>
<!-- Node24&#45;&gt;Node27 -->
<g id="edge41" class="edge">
<title>Node24&#45;&gt;Node27</title>
<path fill="none" stroke="#191970" d="M1485.3163,-193.7543C1421.7704,-179.486 1323.0101,-156.9441 1320,-154 1301.4372,-135.8437 1299.3524,-102.8279 1299.5546,-86.5692"/>
<polygon fill="#191970" stroke="#191970" points="1484.6691,-197.1961 1495.1926,-195.969 1486.2008,-190.3657 1484.6691,-197.1961"/>
</g>
<!-- Node29 -->
<g id="node29" class="node">
<title>Node29</title>
<g id="a_node29"><a xlink:href="$_chart_to_promela_8h.html" xlink:title="transform/ChartToPromela.h">
<polygon fill="#ffffff" stroke="#000000" points="1537.5,-67.5 1537.5,-86.5 1680.5,-86.5 1680.5,-67.5 1537.5,-67.5"/>
<text text-anchor="middle" x="1609" y="-74.5" font-family="Helvetica,sans-Serif" font-size="10.00" fill="#000000">transform/ChartToPromela.h</text>
</a>
</g>
</g>
<!-- Node24&#45;&gt;Node29 -->
<g id="edge42" class="edge">
<title>Node24&#45;&gt;Node29</title>
<path fill="none" stroke="#191970" d="M1566.7064,-190.6966C1580.4813,-181.9839 1595.7501,-169.5977 1604,-154 1615.5246,-132.211 1613.0656,-101.9654 1610.7708,-86.6758"/>
<polygon fill="#191970" stroke="#191970" points="1564.7718,-187.7747 1557.9588,-195.8885 1568.3446,-193.7943 1564.7718,-187.7747"/>
</g>
<!-- Node32 -->
<g id="node32" class="node">
<title>Node32</title>
<g id="a_node32"><a xlink:href="$_chart_to_v_h_d_l_8h.html" xlink:title="transform/ChartToVHDL.h">
<polygon fill="#ffffff" stroke="#000000" points="1698.5,-67.5 1698.5,-86.5 1831.5,-86.5 1831.5,-67.5 1698.5,-67.5"/>
<text text-anchor="middle" x="1765" y="-74.5" font-family="Helvetica,sans-Serif" font-size="10.00" fill="#000000">transform/ChartToVHDL.h</text>
</a>
</g>
</g>
<!-- Node24&#45;&gt;Node32 -->
<g id="edge43" class="edge">
<title>Node24&#45;&gt;Node32</title>
<path fill="none" stroke="#191970" d="M1564.0103,-190.7761C1610.9763,-164.1896 1708.7068,-108.8664 1748.0498,-86.5952"/>
<polygon fill="#191970" stroke="#191970" points="1562.0401,-187.8695 1555.0619,-195.8416 1565.4885,-193.9612 1562.0401,-187.8695"/>
</g>
<!-- Node34 -->
<g id="node34" class="node">
<title>Node34</title>
<g id="a_node34"><a xlink:href="$_transformer_8cpp.html" xlink:title="transform/Transformer.cpp">
<polygon fill="#ffffff" stroke="#000000" points="1328.5,-129 1328.5,-148 1463.5,-148 1463.5,-129 1328.5,-129"/>
<text text-anchor="middle" x="1396" y="-136" font-family="Helvetica,sans-Serif" font-size="10.00" fill="#000000">transform/Transformer.cpp</text>
</a>
</g>
</g>
<!-- Node24&#45;&gt;Node34 -->
<g id="edge44" class="edge">
<title>Node24&#45;&gt;Node34</title>
<path fill="none" stroke="#191970" d="M1508.4814,-191.5722C1480.8938,-178.5555 1440.4375,-159.467 1416.3074,-148.0817"/>
<polygon fill="#191970" stroke="#191970" points="1507.1175,-194.7987 1517.6549,-195.9005 1510.1045,-188.468 1507.1175,-194.7987"/>
</g>
<!-- Node26 -->
<g id="node26" class="node">
<title>Node26</title>
<g id="a_node26"><a xlink:href="$_chart_to_c_8cpp.html" xlink:title="transform/ChartToC.cpp">
<polygon fill="#ffffff" stroke="#000000" points="1395,-67.5 1395,-86.5 1519,-86.5 1519,-67.5 1395,-67.5"/>
<text text-anchor="middle" x="1457" y="-74.5" font-family="Helvetica,sans-Serif" font-size="10.00" fill="#000000">transform/ChartToC.cpp</text>
</a>
</g>
</g>
<!-- Node25&#45;&gt;Node26 -->
<g id="edge33" class="edge">
<title>Node25&#45;&gt;Node26</title>
<path fill="none" stroke="#191970" d="M1517.1232,-122.6491C1502.0729,-111.222 1482.2548,-96.1749 1469.5674,-86.5419"/>
<polygon fill="#191970" stroke="#191970" points="1515.2628,-125.6311 1525.3438,-128.8906 1519.4958,-120.0559 1515.2628,-125.6311"/>
</g>
<!-- Node25&#45;&gt;Node27 -->
<g id="edge34" class="edge">
<title>Node25&#45;&gt;Node27</title>
<path fill="none" stroke="#191970" d="M1491.2296,-126.4144C1446.0617,-114.7428 1378.563,-97.3009 1337.013,-86.5643"/>
<polygon fill="#191970" stroke="#191970" points="1490.516,-129.8449 1501.0736,-128.9581 1492.2673,-123.0675 1490.516,-129.8449"/>
</g>
<!-- Node25&#45;&gt;Node29 -->
<g id="edge36" class="edge">
<title>Node25&#45;&gt;Node29</title>
<path fill="none" stroke="#191970" d="M1556.9932,-122.0482C1570.0022,-110.7798 1586.8157,-96.216 1597.7498,-86.7449"/>
<polygon fill="#191970" stroke="#191970" points="1554.3609,-119.6978 1549.0938,-128.8906 1558.944,-124.9888 1554.3609,-119.6978"/>
</g>
<!-- Node25&#45;&gt;Node32 -->
<g id="edge39" class="edge">
<title>Node25&#45;&gt;Node32</title>
<path fill="none" stroke="#191970" d="M1583.1389,-126.2707C1626.2458,-114.592 1690.3197,-97.2328 1729.7803,-86.5419"/>
<polygon fill="#191970" stroke="#191970" points="1582.2055,-122.8974 1573.4688,-128.8906 1584.0361,-129.6538 1582.2055,-122.8974"/>
</g>
<!-- Node28 -->
<g id="node28" class="node">
<title>Node28</title>
<g id="a_node28"><a xlink:href="$_chart_to_java_8cpp.html" xlink:title="transform/ChartToJava.cpp">
<polygon fill="#ffffff" stroke="#000000" points="1222,-6 1222,-25 1360,-25 1360,-6 1222,-6"/>
<text text-anchor="middle" x="1291" y="-13" font-family="Helvetica,sans-Serif" font-size="10.00" fill="#000000">transform/ChartToJava.cpp</text>
</a>
</g>
</g>
<!-- Node27&#45;&gt;Node28 -->
<g id="edge35" class="edge">
<title>Node27&#45;&gt;Node28</title>
<path fill="none" stroke="#191970" d="M1297.1092,-57.2462C1295.5442,-46.5519 1293.6801,-33.814 1292.4261,-25.2449"/>
<polygon fill="#191970" stroke="#191970" points="1293.6826,-58.0028 1298.5938,-67.3906 1300.6088,-56.9892 1293.6826,-58.0028"/>
</g>
<!-- Node30 -->
<g id="node30" class="node">
<title>Node30</title>
<g id="a_node30"><a xlink:href="$_chart_to_promela_8cpp.html" xlink:title="transform/ChartToPromela.cpp">
<polygon fill="#ffffff" stroke="#000000" points="1378,-6 1378,-25 1532,-25 1532,-6 1378,-6"/>
<text text-anchor="middle" x="1455" y="-13" font-family="Helvetica,sans-Serif" font-size="10.00" fill="#000000">transform/ChartToPromela.cpp</text>
</a>
</g>
</g>
<!-- Node29&#45;&gt;Node30 -->
<g id="edge37" class="edge">
<title>Node29&#45;&gt;Node30</title>
<path fill="none" stroke="#191970" d="M1575.565,-63.6477C1546.4041,-52.0023 1504.8188,-35.3952 1478.8935,-25.0419"/>
<polygon fill="#191970" stroke="#191970" points="1574.3526,-66.9323 1584.9375,-67.3906 1576.9487,-60.4315 1574.3526,-66.9323"/>
</g>
<!-- Node31 -->
<g id="node31" class="node">
<title>Node31</title>
<g id="a_node31"><a xlink:href="$_promela_code_analyzer_8cpp.html" xlink:title="transform/promela/Promela\lCodeAnalyzer.cpp">
<polygon fill="#ffffff" stroke="#000000" points="1550,-.5 1550,-30.5 1688,-30.5 1688,-.5 1550,-.5"/>
<text text-anchor="start" x="1558" y="-18.5" font-family="Helvetica,sans-Serif" font-size="10.00" fill="#000000">transform/promela/Promela</text>
<text text-anchor="middle" x="1619" y="-7.5" font-family="Helvetica,sans-Serif" font-size="10.00" fill="#000000">CodeAnalyzer.cpp</text>
</a>
</g>
</g>
<!-- Node29&#45;&gt;Node31 -->
<g id="edge38" class="edge">
<title>Node29&#45;&gt;Node31</title>
<path fill="none" stroke="#191970" d="M1612.192,-57.3693C1613.6047,-48.681 1615.24,-38.6241 1616.5537,-30.5446"/>
<polygon fill="#191970" stroke="#191970" points="1608.7129,-56.9585 1610.5625,-67.3906 1615.6222,-58.082 1608.7129,-56.9585"/>
</g>
<!-- Node33 -->
<g id="node33" class="node">
<title>Node33</title>
<g id="a_node33"><a xlink:href="$_chart_to_v_h_d_l_8cpp.html" xlink:title="transform/ChartToVHDL.cpp">
<polygon fill="#ffffff" stroke="#000000" points="1706.5,-6 1706.5,-25 1849.5,-25 1849.5,-6 1706.5,-6"/>
<text text-anchor="middle" x="1778" y="-13" font-family="Helvetica,sans-Serif" font-size="10.00" fill="#000000">transform/ChartToVHDL.cpp</text>
</a>
</g>
</g>
<!-- Node32&#45;&gt;Node33 -->
<g id="edge40" class="edge">
<title>Node32&#45;&gt;Node33</title>
<path fill="none" stroke="#191970" d="M1769.1044,-57.5832C1771.3794,-46.8205 1774.1097,-33.9042 1775.9401,-25.2449"/>
<polygon fill="#191970" stroke="#191970" points="1765.6751,-56.8829 1767.0313,-67.3906 1772.5238,-58.3307 1765.6751,-56.8829"/>
</g>
</g>
</svg>
