<?xml version="1.0" encoding="UTF-8" standalone="no"?>
<!DOCTYPE svg PUBLIC "-//W3C//DTD SVG 1.1//EN"
 "http://www.w3.org/Graphics/SVG/1.1/DTD/svg11.dtd">
<!-- Generated by graphviz version 2.38.0 (20140413.2041)
 -->
<!-- Title: debug/Debugger.cpp Pages: 1 -->
<!--zoomable 844 -->
<svg id="main" version="1.1" xmlns="http://www.w3.org/2000/svg" xmlns:xlink="http://www.w3.org/1999/xlink" xml:space="preserve" onload="init(evt)">
<style type="text/css"><![CDATA[
.edge:hover path { stroke: red; }
.edge:hover polygon { stroke: red; fill: red; }
]]></style>
<script type="text/javascript"><![CDATA[
var edges = document.getElementsByTagName('g');
if (edges && edges.length) {
  for (var i=0;i<edges.length;i++) {
    if (edges[i].id.substr(0,4)=='edge') {
      edges[i].setAttribute('class','edge');
    }
  }
}
]]></script>
        <defs>
                <circle id="rim" cx="0" cy="0" r="7"/>
                <circle id="rim2" cx="0" cy="0" r="3.5"/>
                <g id="zoomPlus">
                        <use xlink:href="#rim" fill="#404040">
                                <set attributeName="fill" to="#808080" begin="zoomplus.mouseover" end="zoomplus.mouseout"/>
                        </use>
                        <path d="M-4,0h8M0,-4v8" fill="none" stroke="white" stroke-width="1.5" pointer-events="none"/>
                </g>
                <g id="zoomMin">
                        <use xlink:href="#rim" fill="#404040">
                                <set attributeName="fill" to="#808080" begin="zoomminus.mouseover" end="zoomminus.mouseout"/>
                        </use>
                        <path d="M-4,0h8" fill="none" stroke="white" stroke-width="1.5" pointer-events="none"/>
                </g>
                <g id="dirArrow">
                        <path fill="none" stroke="white" stroke-width="1.5" d="M0,-3.0v7 M-2.5,-0.5L0,-3.0L2.5,-0.5"/>
                </g>
               <g id="resetDef">
                       <use xlink:href="#rim2" fill="#404040">
                               <set attributeName="fill" to="#808080" begin="reset.mouseover" end="reset.mouseout"/>
                       </use>
               </g>
        </defs>

<script type="text/javascript">
var viewWidth = 3255;
var viewHeight = 844;
var sectionId = 'dynsection-0';
</script>
<script xlink:href="svgpan.js"/>
<svg id="graph" class="graph">
<g id="viewport">
<title>debug/Debugger.cpp</title>
<polygon fill="white" stroke="none" points="-4,4 -4,-840 3250.75,-840 3250.75,4 -4,4"/>
<!-- Node1 -->
<g id="node1" class="node"><title>Node1</title>
<polygon fill="#bfbfbf" stroke="black" points="946.793,-816.5 946.793,-835.5 1056.79,-835.5 1056.79,-816.5 946.793,-816.5"/>
<text text-anchor="middle" x="1001.79" y="-823.5" font-family="Helvetica,sans-Serif" font-size="10.00">debug/Debugger.cpp</text>
</g>
<!-- Node2 -->
<g id="node2" class="node"><title>Node2</title>
<g id="a_node2"><a xlink:href="_debugger_8h.html" target="_top" xlink:title="uscxml/debug/Debugger.h">
<polygon fill="white" stroke="black" points="1734.29,-760.5 1734.29,-779.5 1867.29,-779.5 1867.29,-760.5 1734.29,-760.5"/>
<text text-anchor="middle" x="1800.79" y="-767.5" font-family="Helvetica,sans-Serif" font-size="10.00">uscxml/debug/Debugger.h</text>
</a>
</g>
</g>
<!-- Node1&#45;&gt;Node2 -->
<g id="edge1" class="edge"><title>Node1&#45;&gt;Node2</title>
<path fill="none" stroke="midnightblue" d="M1057.03,-821.267C1196.58,-811.835 1563.62,-787.029 1723.98,-776.192"/>
<polygon fill="midnightblue" stroke="midnightblue" points="1724.5,-779.665 1734.24,-775.498 1724.02,-772.681 1724.5,-779.665"/>
</g>
<!-- Node42 -->
<g id="node42" class="node"><title>Node42</title>
<g id="a_node42"><a xlink:href="_d_o_m_8h.html" target="_top" xlink:title="uscxml/util/DOM.h">
<polygon fill="white" stroke="black" points="371.793,-319 371.793,-338 469.793,-338 469.793,-319 371.793,-319"/>
<text text-anchor="middle" x="420.793" y="-326" font-family="Helvetica,sans-Serif" font-size="10.00">uscxml/util/DOM.h</text>
</a>
</g>
</g>
<!-- Node1&#45;&gt;Node42 -->
<g id="edge144" class="edge"><title>Node1&#45;&gt;Node42</title>
<path fill="none" stroke="midnightblue" d="M946.628,-822.838C765.998,-815.032 203.793,-784.698 203.793,-709.5 203.793,-709.5 203.793,-709.5 203.793,-461.5 203.793,-387.413 297.26,-353.717 361.51,-339.305"/>
<polygon fill="midnightblue" stroke="midnightblue" points="362.507,-342.671 371.552,-337.155 361.041,-335.826 362.507,-342.671"/>
</g>
<!-- Node47 -->
<g id="node47" class="node"><title>Node47</title>
<g id="a_node47"><a xlink:href="_predicates_8h.html" target="_top" xlink:title="uscxml/util/Predicates.h">
<polygon fill="white" stroke="black" points="53.7931,-386 53.7931,-405 175.793,-405 175.793,-386 53.7931,-386"/>
<text text-anchor="middle" x="114.793" y="-393" font-family="Helvetica,sans-Serif" font-size="10.00">uscxml/util/Predicates.h</text>
</a>
</g>
</g>
<!-- Node1&#45;&gt;Node47 -->
<g id="edge145" class="edge"><title>Node1&#45;&gt;Node47</title>
<path fill="none" stroke="midnightblue" d="M946.62,-824.723C774.58,-823.477 255.47,-816.684 189.793,-780 156.479,-761.392 140.793,-747.658 140.793,-709.5 140.793,-709.5 140.793,-709.5 140.793,-523 140.793,-483.919 128.74,-439.412 121.047,-414.986"/>
<polygon fill="midnightblue" stroke="midnightblue" points="124.305,-413.69 117.878,-405.268 117.65,-415.86 124.305,-413.69"/>
</g>
<!-- Node48 -->
<g id="node48" class="node"><title>Node48</title>
<g id="a_node48"><a xlink:href="_debug_session_8h.html" target="_top" xlink:title="uscxml/debug/DebugSession.h">
<polygon fill="white" stroke="black" points="2319.79,-699 2319.79,-718 2473.79,-718 2473.79,-699 2319.79,-699"/>
<text text-anchor="middle" x="2396.79" y="-706" font-family="Helvetica,sans-Serif" font-size="10.00">uscxml/debug/DebugSession.h</text>
</a>
</g>
</g>
<!-- Node1&#45;&gt;Node48 -->
<g id="edge151" class="edge"><title>Node1&#45;&gt;Node48</title>
<path fill="none" stroke="midnightblue" d="M1056.87,-823.752C1194.96,-820.279 1566.99,-808.793 1875.79,-780 2042.13,-764.491 2236.92,-735.123 2334.47,-719.64"/>
<polygon fill="midnightblue" stroke="midnightblue" points="2335.13,-723.079 2344.45,-718.049 2334.03,-716.166 2335.13,-723.079"/>
</g>
<!-- Node3 -->
<g id="node3" class="node"><title>Node3</title>
<g id="a_node3"><a xlink:href="_data_8h.html" target="_top" xlink:title="uscxml/messages/Data.h">
<polygon fill="white" stroke="black" points="2202.79,-185 2202.79,-204 2330.79,-204 2330.79,-185 2202.79,-185"/>
<text text-anchor="middle" x="2266.79" y="-192" font-family="Helvetica,sans-Serif" font-size="10.00">uscxml/messages/Data.h</text>
</a>
</g>
</g>
<!-- Node2&#45;&gt;Node3 -->
<g id="edge2" class="edge"><title>Node2&#45;&gt;Node3</title>
<path fill="none" stroke="midnightblue" d="M1863.54,-760.437C1967.9,-744.419 2165.79,-705.71 2165.79,-642.5 2165.79,-642.5 2165.79,-642.5 2165.79,-579 2165.79,-415.169 2380.05,-492.243 2449.79,-344 2500.76,-235.678 2312.29,-338.08 2261.79,-277 2247.3,-259.464 2252.94,-231.881 2259.17,-213.742"/>
<polygon fill="midnightblue" stroke="midnightblue" points="2262.48,-214.892 2262.76,-204.301 2255.94,-212.406 2262.48,-214.892"/>
</g>
<!-- Node15 -->
<g id="node15" class="node"><title>Node15</title>
<g id="a_node15"><a xlink:href="_event_8h.html" target="_top" xlink:title="uscxml/messages/Event.h">
<polygon fill="white" stroke="black" points="1899.29,-252 1899.29,-271 2032.29,-271 2032.29,-252 1899.29,-252"/>
<text text-anchor="middle" x="1965.79" y="-259" font-family="Helvetica,sans-Serif" font-size="10.00">uscxml/messages/Event.h</text>
</a>
</g>
</g>
<!-- Node2&#45;&gt;Node15 -->
<g id="edge18" class="edge"><title>Node2&#45;&gt;Node15</title>
<path fill="none" stroke="midnightblue" d="M1800.79,-760.411C1800.79,-739.977 1800.79,-686.863 1800.79,-642.5 1800.79,-642.5 1800.79,-642.5 1800.79,-579 1800.79,-454.336 1813.99,-411.971 1889.79,-313 1902.11,-296.914 1921.09,-284.297 1937,-275.697"/>
<polygon fill="midnightblue" stroke="midnightblue" points="1938.65,-278.786 1945.94,-271.102 1935.45,-272.561 1938.65,-278.786"/>
</g>
<!-- Node17 -->
<g id="node17" class="node"><title>Node17</title>
<g id="a_node17"><a xlink:href="_interpreter_impl_8h.html" target="_top" xlink:title="uscxml/interpreter\l/InterpreterImpl.h">
<polygon fill="white" stroke="black" points="1324.79,-693.5 1324.79,-723.5 1420.79,-723.5 1420.79,-693.5 1324.79,-693.5"/>
<text text-anchor="start" x="1332.79" y="-711.5" font-family="Helvetica,sans-Serif" font-size="10.00">uscxml/interpreter</text>
<text text-anchor="middle" x="1372.79" y="-700.5" font-family="Helvetica,sans-Serif" font-size="10.00">/InterpreterImpl.h</text>
</a>
</g>
</g>
<!-- Node2&#45;&gt;Node17 -->
<g id="edge23" class="edge"><title>Node2&#45;&gt;Node17</title>
<path fill="none" stroke="midnightblue" d="M1739.47,-760.475C1657.12,-749.027 1511.84,-728.83 1431.07,-717.602"/>
<polygon fill="midnightblue" stroke="midnightblue" points="1431.46,-714.123 1421.08,-716.212 1430.5,-721.056 1431.46,-714.123"/>
</g>
<!-- Node46 -->
<g id="node46" class="node"><title>Node46</title>
<g id="a_node46"><a xlink:href="_breakpoint_8h.html" target="_top" xlink:title="uscxml/debug/Breakpoint.h">
<polygon fill="white" stroke="black" points="2358.29,-632 2358.29,-651 2495.29,-651 2495.29,-632 2358.29,-632"/>
<text text-anchor="middle" x="2426.79" y="-639" font-family="Helvetica,sans-Serif" font-size="10.00">uscxml/debug/Breakpoint.h</text>
</a>
</g>
</g>
<!-- Node2&#45;&gt;Node46 -->
<g id="edge139" class="edge"><title>Node2&#45;&gt;Node46</title>
<path fill="none" stroke="midnightblue" d="M1867.54,-765.136C1943.78,-759.788 2071.93,-747.945 2179.79,-724 2259.67,-706.268 2350.22,-672.805 2396.32,-654.765"/>
<polygon fill="midnightblue" stroke="midnightblue" points="2397.7,-657.98 2405.72,-651.055 2395.14,-651.468 2397.7,-657.98"/>
</g>
<!-- Node4 -->
<g id="node4" class="node"><title>Node4</title>
<polygon fill="white" stroke="#bfbfbf" points="1391.29,-118 1391.29,-137 1420.29,-137 1420.29,-118 1391.29,-118"/>
<text text-anchor="middle" x="1405.79" y="-125" font-family="Helvetica,sans-Serif" font-size="10.00">list</text>
</g>
<!-- Node3&#45;&gt;Node4 -->
<g id="edge3" class="edge"><title>Node3&#45;&gt;Node4</title>
<path fill="none" stroke="midnightblue" d="M2202.36,-188.594C2165.09,-185.766 2117.3,-182.157 2074.79,-179 1855.7,-162.728 1800.83,-160.02 1581.79,-143 1527.97,-138.818 1464.91,-133.528 1430.8,-130.634"/>
<polygon fill="midnightblue" stroke="midnightblue" points="1430.65,-127.109 1420.39,-129.749 1430.06,-134.084 1430.65,-127.109"/>
</g>
<!-- Node5 -->
<g id="node5" class="node"><title>Node5</title>
<polygon fill="white" stroke="#bfbfbf" points="1004.79,-118 1004.79,-137 1040.79,-137 1040.79,-118 1004.79,-118"/>
<text text-anchor="middle" x="1022.79" y="-125" font-family="Helvetica,sans-Serif" font-size="10.00">map</text>
</g>
<!-- Node3&#45;&gt;Node5 -->
<g id="edge4" class="edge"><title>Node3&#45;&gt;Node5</title>
<path fill="none" stroke="midnightblue" d="M2202.53,-190.142C1974.41,-178.223 1208.8,-138.219 1051.28,-129.988"/>
<polygon fill="midnightblue" stroke="midnightblue" points="1051.17,-126.478 1041,-129.451 1050.8,-133.469 1051.17,-126.478"/>
</g>
<!-- Node6 -->
<g id="node6" class="node"><title>Node6</title>
<polygon fill="white" stroke="#bfbfbf" points="2999.29,-56.5 2999.29,-75.5 3052.29,-75.5 3052.29,-56.5 2999.29,-56.5"/>
<text text-anchor="middle" x="3025.79" y="-63.5" font-family="Helvetica,sans-Serif" font-size="10.00">memory</text>
</g>
<!-- Node3&#45;&gt;Node6 -->
<g id="edge5" class="edge"><title>Node3&#45;&gt;Node6</title>
<path fill="none" stroke="midnightblue" d="M2318.07,-184.954C2461.58,-161.036 2864.88,-93.819 2988.98,-73.135"/>
<polygon fill="midnightblue" stroke="midnightblue" points="2989.82,-76.5437 2999.11,-71.4472 2988.67,-69.6389 2989.82,-76.5437"/>
</g>
<!-- Node7 -->
<g id="node7" class="node"><title>Node7</title>
<g id="a_node7"><a xlink:href="_common_8h.html" target="_top" xlink:title="uscxml/Common.h">
<polygon fill="white" stroke="black" points="2385.29,-56.5 2385.29,-75.5 2484.29,-75.5 2484.29,-56.5 2385.29,-56.5"/>
<text text-anchor="middle" x="2434.79" y="-63.5" font-family="Helvetica,sans-Serif" font-size="10.00">uscxml/Common.h</text>
</a>
</g>
</g>
<!-- Node3&#45;&gt;Node7 -->
<g id="edge6" class="edge"><title>Node3&#45;&gt;Node7</title>
<path fill="none" stroke="midnightblue" d="M2264.09,-184.759C2259.66,-168.492 2252.9,-133.297 2269.79,-112 2283.05,-95.2922 2333.38,-83.1655 2375.01,-75.7397"/>
<polygon fill="midnightblue" stroke="midnightblue" points="2375.85,-79.1476 2385.1,-73.9988 2374.66,-72.2494 2375.85,-79.1476"/>
</g>
<!-- Node10 -->
<g id="node10" class="node"><title>Node10</title>
<g id="a_node10"><a xlink:href="_convenience_8h.html" target="_top" xlink:title="uscxml/util/Convenience.h">
<polygon fill="white" stroke="black" points="317.293,-118 317.293,-137 450.293,-137 450.293,-118 317.293,-118"/>
<text text-anchor="middle" x="383.793" y="-125" font-family="Helvetica,sans-Serif" font-size="10.00">uscxml/util/Convenience.h</text>
</a>
</g>
</g>
<!-- Node3&#45;&gt;Node10 -->
<g id="edge9" class="edge"><title>Node3&#45;&gt;Node10</title>
<path fill="none" stroke="midnightblue" d="M2202.79,-191.291C1918.38,-181.473 769.506,-141.815 460.591,-131.151"/>
<polygon fill="midnightblue" stroke="midnightblue" points="460.507,-127.646 450.392,-130.799 460.266,-134.642 460.507,-127.646"/>
</g>
<!-- Node14 -->
<g id="node14" class="node"><title>Node14</title>
<g id="a_node14"><a xlink:href="_blob_8h.html" target="_top" xlink:title="uscxml/messages/Blob.h">
<polygon fill="white" stroke="black" points="2279.29,-118 2279.29,-137 2406.29,-137 2406.29,-118 2279.29,-118"/>
<text text-anchor="middle" x="2342.79" y="-125" font-family="Helvetica,sans-Serif" font-size="10.00">uscxml/messages/Blob.h</text>
</a>
</g>
</g>
<!-- Node3&#45;&gt;Node14 -->
<g id="edge14" class="edge"><title>Node3&#45;&gt;Node14</title>
<path fill="none" stroke="midnightblue" d="M2277.04,-184.734C2289.24,-174.305 2309.81,-156.709 2324.7,-143.973"/>
<polygon fill="midnightblue" stroke="midnightblue" points="2327.38,-146.287 2332.71,-137.127 2322.83,-140.967 2327.38,-146.287"/>
</g>
<!-- Node8 -->
<g id="node8" class="node"><title>Node8</title>
<polygon fill="white" stroke="#bfbfbf" points="2360.79,-0.5 2360.79,-19.5 2432.79,-19.5 2432.79,-0.5 2360.79,-0.5"/>
<text text-anchor="middle" x="2396.79" y="-7.5" font-family="Helvetica,sans-Serif" font-size="10.00">sys/socket.h</text>
</g>
<!-- Node7&#45;&gt;Node8 -->
<g id="edge7" class="edge"><title>Node7&#45;&gt;Node8</title>
<path fill="none" stroke="midnightblue" d="M2428.52,-56.083C2423.15,-48.4554 2415.28,-37.2645 2408.71,-27.9408"/>
<polygon fill="midnightblue" stroke="midnightblue" points="2411.57,-25.9149 2402.95,-19.7511 2405.84,-29.9434 2411.57,-25.9149"/>
</g>
<!-- Node9 -->
<g id="node9" class="node"><title>Node9</title>
<polygon fill="white" stroke="#bfbfbf" points="2450.79,-0.5 2450.79,-19.5 2494.79,-19.5 2494.79,-0.5 2450.79,-0.5"/>
<text text-anchor="middle" x="2472.79" y="-7.5" font-family="Helvetica,sans-Serif" font-size="10.00">cmath</text>
</g>
<!-- Node7&#45;&gt;Node9 -->
<g id="edge8" class="edge"><title>Node7&#45;&gt;Node9</title>
<path fill="none" stroke="midnightblue" d="M2441.07,-56.083C2446.44,-48.4554 2454.31,-37.2645 2460.87,-27.9408"/>
<polygon fill="midnightblue" stroke="midnightblue" points="2463.74,-29.9434 2466.63,-19.7511 2458.02,-25.9149 2463.74,-29.9434"/>
</g>
<!-- Node10&#45;&gt;Node7 -->
<g id="edge10" class="edge"><title>Node10&#45;&gt;Node7</title>
<path fill="none" stroke="midnightblue" d="M450.577,-124.563C763.045,-115.498 2077.97,-77.3517 2375,-68.7347"/>
<polygon fill="midnightblue" stroke="midnightblue" points="2375.23,-72.2294 2385.13,-68.4408 2375.03,-65.2323 2375.23,-72.2294"/>
</g>
<!-- Node11 -->
<g id="node11" class="node"><title>Node11</title>
<polygon fill="white" stroke="#bfbfbf" points="1428.29,-56.5 1428.29,-75.5 1469.29,-75.5 1469.29,-56.5 1428.29,-56.5"/>
<text text-anchor="middle" x="1448.79" y="-63.5" font-family="Helvetica,sans-Serif" font-size="10.00">string</text>
</g>
<!-- Node10&#45;&gt;Node11 -->
<g id="edge11" class="edge"><title>Node10&#45;&gt;Node11</title>
<path fill="none" stroke="midnightblue" d="M425.263,-117.995C437.904,-115.695 451.873,-113.445 464.793,-112 838.868,-70.148 1297.1,-66.9981 1418.25,-66.9376"/>
<polygon fill="midnightblue" stroke="midnightblue" points="1418.28,-70.4375 1428.28,-66.9396 1418.28,-63.4375 1418.28,-70.4375"/>
</g>
<!-- Node12 -->
<g id="node12" class="node"><title>Node12</title>
<polygon fill="white" stroke="#bfbfbf" points="141.293,-56.5 141.293,-75.5 180.293,-75.5 180.293,-56.5 141.293,-56.5"/>
<text text-anchor="middle" x="160.793" y="-63.5" font-family="Helvetica,sans-Serif" font-size="10.00">limits</text>
</g>
<!-- Node10&#45;&gt;Node12 -->
<g id="edge12" class="edge"><title>Node10&#45;&gt;Node12</title>
<path fill="none" stroke="midnightblue" d="M351.843,-117.975C308.654,-106.452 232.241,-86.0635 190.332,-74.8815"/>
<polygon fill="midnightblue" stroke="midnightblue" points="191.026,-71.4444 180.462,-72.248 189.222,-78.2078 191.026,-71.4444"/>
</g>
<!-- Node13 -->
<g id="node13" class="node"><title>Node13</title>
<polygon fill="white" stroke="#bfbfbf" points="357.793,-56.5 357.793,-75.5 409.793,-75.5 409.793,-56.5 357.793,-56.5"/>
<text text-anchor="middle" x="383.793" y="-63.5" font-family="Helvetica,sans-Serif" font-size="10.00">sstream</text>
</g>
<!-- Node10&#45;&gt;Node13 -->
<g id="edge13" class="edge"><title>Node10&#45;&gt;Node13</title>
<path fill="none" stroke="midnightblue" d="M383.793,-117.975C383.793,-109.58 383.793,-96.4806 383.793,-85.6631"/>
<polygon fill="midnightblue" stroke="midnightblue" points="387.293,-85.5091 383.793,-75.5091 380.293,-85.5091 387.293,-85.5091"/>
</g>
<!-- Node14&#45;&gt;Node6 -->
<g id="edge16" class="edge"><title>Node14&#45;&gt;Node6</title>
<path fill="none" stroke="midnightblue" d="M2406.43,-120.956C2546.63,-108.743 2878.42,-79.8383 2989.12,-70.1945"/>
<polygon fill="midnightblue" stroke="midnightblue" points="2989.47,-73.6773 2999.13,-69.3225 2988.87,-66.7037 2989.47,-73.6773"/>
</g>
<!-- Node14&#45;&gt;Node7 -->
<g id="edge17" class="edge"><title>Node14&#45;&gt;Node7</title>
<path fill="none" stroke="midnightblue" d="M2355.97,-117.975C2370.87,-108.343 2395.34,-92.5175 2413.07,-81.0517"/>
<polygon fill="midnightblue" stroke="midnightblue" points="2415.14,-83.8787 2421.64,-75.5091 2411.34,-78.0008 2415.14,-83.8787"/>
</g>
<!-- Node14&#45;&gt;Node11 -->
<g id="edge15" class="edge"><title>Node14&#45;&gt;Node11</title>
<path fill="none" stroke="midnightblue" d="M2302.46,-117.98C2290.4,-115.708 2277.1,-113.477 2264.79,-112 1960.06,-75.4269 1587.68,-68.5312 1479.56,-67.2722"/>
<polygon fill="midnightblue" stroke="midnightblue" points="1479.41,-63.7704 1469.37,-67.1615 1479.33,-70.77 1479.41,-63.7704"/>
</g>
<!-- Node15&#45;&gt;Node3 -->
<g id="edge19" class="edge"><title>Node15&#45;&gt;Node3</title>
<path fill="none" stroke="midnightblue" d="M2005.45,-251.936C2059.93,-240.171 2157.89,-219.018 2217.16,-206.218"/>
<polygon fill="midnightblue" stroke="midnightblue" points="2218.01,-209.615 2227.05,-204.083 2216.53,-202.773 2218.01,-209.615"/>
</g>
<!-- Node16 -->
<g id="node16" class="node"><title>Node16</title>
<g id="a_node16"><a xlink:href="_u_u_i_d_8h.html" target="_top" xlink:title="uscxml/util/UUID.h">
<polygon fill="white" stroke="black" points="1857.29,-118 1857.29,-137 1956.29,-137 1956.29,-118 1857.29,-118"/>
<text text-anchor="middle" x="1906.79" y="-125" font-family="Helvetica,sans-Serif" font-size="10.00">uscxml/util/UUID.h</text>
</a>
</g>
</g>
<!-- Node15&#45;&gt;Node16 -->
<g id="edge20" class="edge"><title>Node15&#45;&gt;Node16</title>
<path fill="none" stroke="midnightblue" d="M1961.92,-251.839C1952.38,-230.486 1927.57,-174.977 1914.74,-146.271"/>
<polygon fill="midnightblue" stroke="midnightblue" points="1917.88,-144.722 1910.6,-137.021 1911.49,-147.579 1917.88,-144.722"/>
</g>
<!-- Node16&#45;&gt;Node7 -->
<g id="edge21" class="edge"><title>Node16&#45;&gt;Node7</title>
<path fill="none" stroke="midnightblue" d="M1956.55,-119.061C1973.15,-116.677 1991.75,-114.111 2008.79,-112 2139.2,-95.8481 2292.53,-80.5552 2375.02,-72.63"/>
<polygon fill="midnightblue" stroke="midnightblue" points="2375.59,-76.0918 2385.21,-71.6541 2374.92,-69.1237 2375.59,-76.0918"/>
</g>
<!-- Node16&#45;&gt;Node11 -->
<g id="edge22" class="edge"><title>Node16&#45;&gt;Node11</title>
<path fill="none" stroke="midnightblue" d="M1857.27,-119.303C1840.6,-116.923 1821.9,-114.297 1804.79,-112 1684.81,-95.8891 1541.84,-78.3069 1479.93,-70.7711"/>
<polygon fill="midnightblue" stroke="midnightblue" points="1480.02,-67.2571 1469.67,-69.5248 1479.18,-74.2059 1480.02,-67.2571"/>
</g>
<!-- Node17&#45;&gt;Node4 -->
<g id="edge26" class="edge"><title>Node17&#45;&gt;Node4</title>
<path fill="none" stroke="midnightblue" d="M1366.12,-693.43C1349.93,-658.164 1309.3,-562.75 1301.79,-478 1293.53,-384.747 1334.61,-365.619 1364.79,-277 1380.48,-230.958 1394.57,-175.39 1401.41,-147.066"/>
<polygon fill="midnightblue" stroke="midnightblue" points="1404.83,-147.853 1403.74,-137.313 1398.02,-146.226 1404.83,-147.853"/>
</g>
<!-- Node17&#45;&gt;Node5 -->
<g id="edge27" class="edge"><title>Node17&#45;&gt;Node5</title>
<path fill="none" stroke="midnightblue" d="M1324.5,-705.806C1201.88,-701.12 881.006,-686.348 778.793,-657 707.721,-636.593 630.793,-654.944 630.793,-581 630.793,-581 630.793,-581 630.793,-260.5 630.793,-183.645 904.844,-143.029 994.663,-131.781"/>
<polygon fill="midnightblue" stroke="midnightblue" points="995.172,-135.245 1004.67,-130.554 994.321,-128.297 995.172,-135.245"/>
</g>
<!-- Node17&#45;&gt;Node6 -->
<g id="edge24" class="edge"><title>Node17&#45;&gt;Node6</title>
<path fill="none" stroke="midnightblue" d="M1420.81,-707.347C1692.72,-706.091 3032.48,-694.601 3179.79,-590 3288.96,-512.48 3237.09,-324.588 3210.79,-246 3187.13,-175.277 3166.43,-160.52 3109.79,-112 3094.14,-98.5936 3073.84,-87.5802 3057.11,-79.8049"/>
<polygon fill="midnightblue" stroke="midnightblue" points="3058.3,-76.5004 3047.74,-75.6074 3055.43,-82.889 3058.3,-76.5004"/>
</g>
<!-- Node17&#45;&gt;Node7 -->
<g id="edge29" class="edge"><title>Node17&#45;&gt;Node7</title>
<path fill="none" stroke="midnightblue" d="M1420.81,-706.439C1577.03,-702.754 2084.88,-688.955 2503.79,-657 2660.11,-645.076 3196.79,-681.769 3196.79,-525 3196.79,-525 3196.79,-525 3196.79,-260.5 3196.79,-168.255 3139.47,-140.677 3051.79,-112 2949.44,-78.5226 2628.87,-69.8807 2494.74,-67.7074"/>
<polygon fill="midnightblue" stroke="midnightblue" points="2494.69,-64.2064 2484.64,-67.5504 2494.58,-71.2056 2494.69,-64.2064"/>
</g>
<!-- Node17&#45;&gt;Node11 -->
<g id="edge28" class="edge"><title>Node17&#45;&gt;Node11</title>
<path fill="none" stroke="midnightblue" d="M1324.62,-707.028C1183.51,-705.193 773.124,-696.51 645.793,-657 582.239,-637.279 516.793,-647.544 516.793,-581 516.793,-581 516.793,-581 516.793,-193.5 516.793,-98.7476 621.465,-133.297 713.793,-112 851.04,-80.341 1296.56,-69.843 1417.99,-67.5331"/>
<polygon fill="midnightblue" stroke="midnightblue" points="1418.14,-71.0309 1428.08,-67.346 1418.01,-64.0321 1418.14,-71.0309"/>
</g>
<!-- Node18 -->
<g id="node18" class="node"><title>Node18</title>
<polygon fill="white" stroke="#bfbfbf" points="734.793,-252 734.793,-271 778.793,-271 778.793,-252 734.793,-252"/>
<text text-anchor="middle" x="756.793" y="-259" font-family="Helvetica,sans-Serif" font-size="10.00">mutex</text>
</g>
<!-- Node17&#45;&gt;Node18 -->
<g id="edge25" class="edge"><title>Node17&#45;&gt;Node18</title>
<path fill="none" stroke="midnightblue" d="M1324.61,-707.957C1178.24,-708.064 748.793,-698.376 748.793,-581 748.793,-581 748.793,-581 748.793,-394.5 748.793,-354.084 752.576,-306.834 754.939,-281.26"/>
<polygon fill="midnightblue" stroke="midnightblue" points="758.439,-281.425 755.906,-271.138 751.471,-280.759 758.439,-281.425"/>
</g>
<!-- Node19 -->
<g id="node19" class="node"><title>Node19</title>
<g id="a_node19"><a xlink:href="_u_r_l_8h.html" target="_top" xlink:title="uscxml/util/URL.h">
<polygon fill="white" stroke="black" points="1193.79,-319 1193.79,-338 1287.79,-338 1287.79,-319 1193.79,-319"/>
<text text-anchor="middle" x="1240.79" y="-326" font-family="Helvetica,sans-Serif" font-size="10.00">uscxml/util/URL.h</text>
</a>
</g>
</g>
<!-- Node17&#45;&gt;Node19 -->
<g id="edge30" class="edge"><title>Node17&#45;&gt;Node19</title>
<path fill="none" stroke="midnightblue" d="M1324.58,-704.081C1252.7,-696.07 1125.79,-669.408 1125.79,-581 1125.79,-581 1125.79,-581 1125.79,-523 1125.79,-447.346 1191.56,-375.457 1223.62,-344.903"/>
<polygon fill="midnightblue" stroke="midnightblue" points="1226.05,-347.423 1230.99,-338.049 1221.28,-342.299 1226.05,-347.423"/>
</g>
<!-- Node23 -->
<g id="node23" class="node"><title>Node23</title>
<g id="a_node23"><a xlink:href="_factory_8h.html" target="_top" xlink:title="uscxml/plugins/Factory.h">
<polygon fill="white" stroke="black" points="1867.29,-514.5 1867.29,-533.5 1994.29,-533.5 1994.29,-514.5 1867.29,-514.5"/>
<text text-anchor="middle" x="1930.79" y="-521.5" font-family="Helvetica,sans-Serif" font-size="10.00">uscxml/plugins/Factory.h</text>
</a>
</g>
</g>
<!-- Node17&#45;&gt;Node23 -->
<g id="edge40" class="edge"><title>Node17&#45;&gt;Node23</title>
<path fill="none" stroke="midnightblue" d="M1420.87,-693.881C1455.22,-684.007 1502.49,-670.135 1543.79,-657 1675.38,-615.148 1830.43,-560.689 1897.32,-536.943"/>
<polygon fill="midnightblue" stroke="midnightblue" points="1898.65,-540.182 1906.9,-533.535 1896.31,-533.586 1898.65,-540.182"/>
</g>
<!-- Node28 -->
<g id="node28" class="node"><title>Node28</title>
<g id="a_node28"><a xlink:href="_data_model_impl_8h.html" target="_top" xlink:title="uscxml/plugins/DataModel\lImpl.h">
<polygon fill="white" stroke="black" points="2016.29,-447.5 2016.29,-477.5 2149.29,-477.5 2149.29,-447.5 2016.29,-447.5"/>
<text text-anchor="start" x="2024.29" y="-465.5" font-family="Helvetica,sans-Serif" font-size="10.00">uscxml/plugins/DataModel</text>
<text text-anchor="middle" x="2082.79" y="-454.5" font-family="Helvetica,sans-Serif" font-size="10.00">Impl.h</text>
</a>
</g>
</g>
<!-- Node17&#45;&gt;Node28 -->
<g id="edge81" class="edge"><title>Node17&#45;&gt;Node28</title>
<path fill="none" stroke="midnightblue" d="M1420.81,-702.248C1530.3,-688.633 1804.35,-645.179 2002.79,-534 2025.76,-521.132 2047.9,-500.805 2063.04,-485.277"/>
<polygon fill="midnightblue" stroke="midnightblue" points="2065.93,-487.316 2070.29,-477.659 2060.86,-482.491 2065.93,-487.316"/>
</g>
<!-- Node32 -->
<g id="node32" class="node"><title>Node32</title>
<g id="a_node32"><a xlink:href="_micro_step_impl_8h.html" target="_top" xlink:title="uscxml/interpreter\l/MicroStepImpl.h">
<polygon fill="white" stroke="black" points="1438.79,-626.5 1438.79,-656.5 1534.79,-656.5 1534.79,-626.5 1438.79,-626.5"/>
<text text-anchor="start" x="1446.79" y="-644.5" font-family="Helvetica,sans-Serif" font-size="10.00">uscxml/interpreter</text>
<text text-anchor="middle" x="1486.79" y="-633.5" font-family="Helvetica,sans-Serif" font-size="10.00">/MicroStepImpl.h</text>
</a>
</g>
</g>
<!-- Node17&#45;&gt;Node32 -->
<g id="edge82" class="edge"><title>Node17&#45;&gt;Node32</title>
<path fill="none" stroke="midnightblue" d="M1397.53,-693.396C1413.81,-684.112 1435.33,-671.841 1453.16,-661.674"/>
<polygon fill="midnightblue" stroke="midnightblue" points="1455.15,-664.57 1462.11,-656.577 1451.68,-658.489 1455.15,-664.57"/>
</g>
<!-- Node39 -->
<g id="node39" class="node"><title>Node39</title>
<g id="a_node39"><a xlink:href="_event_queue_8h.html" target="_top" xlink:title="uscxml/interpreter\l/EventQueue.h">
<polygon fill="white" stroke="black" points="2344.79,-447.5 2344.79,-477.5 2440.79,-477.5 2440.79,-447.5 2344.79,-447.5"/>
<text text-anchor="start" x="2352.79" y="-465.5" font-family="Helvetica,sans-Serif" font-size="10.00">uscxml/interpreter</text>
<text text-anchor="middle" x="2392.79" y="-454.5" font-family="Helvetica,sans-Serif" font-size="10.00">/EventQueue.h</text>
</a>
</g>
</g>
<!-- Node17&#45;&gt;Node39 -->
<g id="edge122" class="edge"><title>Node17&#45;&gt;Node39</title>
<path fill="none" stroke="midnightblue" d="M1420.89,-703.132C1490.93,-696.253 1624.84,-681.136 1736.79,-657 1966.98,-607.373 2234.19,-518.518 2342.93,-480.991"/>
<polygon fill="midnightblue" stroke="midnightblue" points="2344.34,-484.207 2352.65,-477.629 2342.05,-477.591 2344.34,-484.207"/>
</g>
<!-- Node40 -->
<g id="node40" class="node"><title>Node40</title>
<g id="a_node40"><a xlink:href="_content_executor_impl_8h.html" target="_top" xlink:title="uscxml/interpreter\l/ContentExecutorImpl.h">
<polygon fill="white" stroke="red" points="1610.29,-380.5 1610.29,-410.5 1731.29,-410.5 1731.29,-380.5 1610.29,-380.5"/>
<text text-anchor="start" x="1618.29" y="-398.5" font-family="Helvetica,sans-Serif" font-size="10.00">uscxml/interpreter</text>
<text text-anchor="middle" x="1670.79" y="-387.5" font-family="Helvetica,sans-Serif" font-size="10.00">/ContentExecutorImpl.h</text>
</a>
</g>
</g>
<!-- Node17&#45;&gt;Node40 -->
<g id="edge116" class="edge"><title>Node17&#45;&gt;Node40</title>
<path fill="none" stroke="midnightblue" d="M1381.6,-693.434C1392.27,-676.769 1411.14,-648.438 1429.79,-626 1501.12,-540.211 1522.44,-521.168 1605.79,-447 1617.56,-436.527 1631.25,-425.709 1643.02,-416.786"/>
<polygon fill="midnightblue" stroke="midnightblue" points="1645.29,-419.454 1651.2,-410.655 1641.1,-413.853 1645.29,-419.454"/>
</g>
<!-- Node41 -->
<g id="node41" class="node"><title>Node41</title>
<g id="a_node41"><a xlink:href="_event_queue_impl_8h.html" target="_top" xlink:title="uscxml/interpreter\l/EventQueueImpl.h">
<polygon fill="white" stroke="black" points="1004.79,-313.5 1004.79,-343.5 1106.79,-343.5 1106.79,-313.5 1004.79,-313.5"/>
<text text-anchor="start" x="1012.79" y="-331.5" font-family="Helvetica,sans-Serif" font-size="10.00">uscxml/interpreter</text>
<text text-anchor="middle" x="1055.79" y="-320.5" font-family="Helvetica,sans-Serif" font-size="10.00">/EventQueueImpl.h</text>
</a>
</g>
</g>
<!-- Node17&#45;&gt;Node41 -->
<g id="edge123" class="edge"><title>Node17&#45;&gt;Node41</title>
<path fill="none" stroke="midnightblue" d="M1324.55,-704.437C1274.91,-699.674 1196.47,-687.579 1135.79,-657 1090.24,-634.043 1049.79,-632.009 1049.79,-581 1049.79,-581 1049.79,-581 1049.79,-461.5 1049.79,-423.964 1052.24,-380.486 1054.01,-353.996"/>
<polygon fill="midnightblue" stroke="midnightblue" points="1057.52,-353.967 1054.72,-343.75 1050.54,-353.485 1057.52,-353.967"/>
</g>
<!-- Node17&#45;&gt;Node42 -->
<g id="edge132" class="edge"><title>Node17&#45;&gt;Node42</title>
<path fill="none" stroke="midnightblue" d="M1324.55,-707.142C1152.39,-705.53 574.595,-697.154 502.793,-657 466.852,-636.9 449.793,-622.18 449.793,-581 449.793,-581 449.793,-581 449.793,-461.5 449.793,-420.01 435.956,-372.856 427.398,-347.66"/>
<polygon fill="midnightblue" stroke="midnightblue" points="430.623,-346.281 424.007,-338.006 424.019,-348.601 430.623,-346.281"/>
</g>
<!-- Node19&#45;&gt;Node4 -->
<g id="edge37" class="edge"><title>Node19&#45;&gt;Node4</title>
<path fill="none" stroke="midnightblue" d="M1273.73,-318.881C1296.24,-311.363 1325.08,-298.253 1342.79,-277 1371.79,-242.199 1351.41,-219.942 1370.79,-179 1376.47,-167.018 1384.88,-154.768 1392.04,-145.334"/>
<polygon fill="midnightblue" stroke="midnightblue" points="1394.96,-147.279 1398.38,-137.252 1389.45,-142.956 1394.96,-147.279"/>
</g>
<!-- Node19&#45;&gt;Node5 -->
<g id="edge35" class="edge"><title>Node19&#45;&gt;Node5</title>
<path fill="none" stroke="midnightblue" d="M1241.85,-318.768C1243.3,-302.822 1244.2,-268.556 1228.79,-246 1185.59,-182.761 1096.41,-149.387 1050.88,-135.865"/>
<polygon fill="midnightblue" stroke="midnightblue" points="1051.65,-132.446 1041.08,-133.062 1049.73,-139.176 1051.65,-132.446"/>
</g>
<!-- Node19&#45;&gt;Node7 -->
<g id="edge31" class="edge"><title>Node19&#45;&gt;Node7</title>
<path fill="none" stroke="midnightblue" d="M1265.58,-318.906C1311.45,-303.184 1412.82,-269.27 1499.79,-246 1704.28,-191.291 1761.94,-203.471 1964.79,-143 2002.13,-131.869 2008.93,-121.203 2046.79,-112 2160.7,-84.3111 2297.7,-73.4976 2374.66,-69.3945"/>
<polygon fill="midnightblue" stroke="midnightblue" points="2375.3,-72.8662 2385.11,-68.859 2374.94,-65.8753 2375.3,-72.8662"/>
</g>
<!-- Node19&#45;&gt;Node11 -->
<g id="edge33" class="edge"><title>Node19&#45;&gt;Node11</title>
<path fill="none" stroke="midnightblue" d="M1244.87,-318.825C1259.71,-287.87 1313.6,-181.016 1381.79,-112 1394.04,-99.6091 1410.19,-88.641 1423.56,-80.6357"/>
<polygon fill="midnightblue" stroke="midnightblue" points="1425.39,-83.6207 1432.3,-75.5858 1421.89,-77.5603 1425.39,-83.6207"/>
</g>
<!-- Node19&#45;&gt;Node13 -->
<g id="edge34" class="edge"><title>Node19&#45;&gt;Node13</title>
<path fill="none" stroke="midnightblue" d="M1238.7,-318.809C1234.06,-301.641 1221.18,-263.529 1194.79,-246 1029.5,-136.213 439.768,-291.187 307.793,-143 298.63,-132.711 300.97,-123.97 307.793,-112 316.597,-96.5554 333.015,-85.8704 348.344,-78.8016"/>
<polygon fill="midnightblue" stroke="midnightblue" points="349.823,-81.9762 357.67,-74.8574 347.096,-75.5291 349.823,-81.9762"/>
</g>
<!-- Node19&#45;&gt;Node15 -->
<g id="edge32" class="edge"><title>Node19&#45;&gt;Node15</title>
<path fill="none" stroke="midnightblue" d="M1287.8,-323.285C1410.04,-312.326 1738.74,-282.856 1888.98,-269.387"/>
<polygon fill="midnightblue" stroke="midnightblue" points="1889.4,-272.863 1899.05,-268.484 1888.77,-265.891 1889.4,-272.863"/>
</g>
<!-- Node20 -->
<g id="node20" class="node"><title>Node20</title>
<polygon fill="white" stroke="#bfbfbf" points="1508.79,-252 1508.79,-271 1538.79,-271 1538.79,-252 1508.79,-252"/>
<text text-anchor="middle" x="1523.79" y="-259" font-family="Helvetica,sans-Serif" font-size="10.00">set</text>
</g>
<!-- Node19&#45;&gt;Node20 -->
<g id="edge36" class="edge"><title>Node19&#45;&gt;Node20</title>
<path fill="none" stroke="midnightblue" d="M1278.08,-318.936C1336.67,-305.479 1448.75,-279.736 1498.7,-268.264"/>
<polygon fill="midnightblue" stroke="midnightblue" points="1499.68,-271.63 1508.64,-265.98 1498.11,-264.807 1499.68,-271.63"/>
</g>
<!-- Node21 -->
<g id="node21" class="node"><title>Node21</title>
<polygon fill="white" stroke="#bfbfbf" points="949.293,-252 949.293,-271 994.293,-271 994.293,-252 949.293,-252"/>
<text text-anchor="middle" x="971.793" y="-259" font-family="Helvetica,sans-Serif" font-size="10.00">thread</text>
</g>
<!-- Node19&#45;&gt;Node21 -->
<g id="edge38" class="edge"><title>Node19&#45;&gt;Node21</title>
<path fill="none" stroke="midnightblue" d="M1205.35,-318.936C1152.76,-306.229 1054.84,-282.567 1004.12,-270.31"/>
<polygon fill="midnightblue" stroke="midnightblue" points="1004.88,-266.894 994.335,-267.947 1003.23,-273.698 1004.88,-266.894"/>
</g>
<!-- Node22 -->
<g id="node22" class="node"><title>Node22</title>
<polygon fill="white" stroke="#bfbfbf" points="1089.29,-252 1089.29,-271 1186.29,-271 1186.29,-252 1089.29,-252"/>
<text text-anchor="middle" x="1137.79" y="-259" font-family="Helvetica,sans-Serif" font-size="10.00">condition_variable</text>
</g>
<!-- Node19&#45;&gt;Node22 -->
<g id="edge39" class="edge"><title>Node19&#45;&gt;Node22</title>
<path fill="none" stroke="midnightblue" d="M1226.9,-318.734C1209.76,-307.916 1180.39,-289.383 1160.08,-276.566"/>
<polygon fill="midnightblue" stroke="midnightblue" points="1161.79,-273.504 1151.46,-271.127 1158.05,-279.424 1161.79,-273.504"/>
</g>
<!-- Node23&#45;&gt;Node6 -->
<g id="edge78" class="edge"><title>Node23&#45;&gt;Node6</title>
<path fill="none" stroke="midnightblue" d="M1994.5,-519.345C2177.13,-508.234 2699.63,-471.849 2858.79,-411 2979.77,-364.749 3017.52,-328.5 3069.79,-210 3087.77,-169.245 3111.47,-151.456 3090.79,-112 3083.51,-98.1082 3069.78,-87.6523 3056.81,-80.3328"/>
<polygon fill="midnightblue" stroke="midnightblue" points="3058.09,-77.0532 3047.6,-75.553 3054.86,-83.2662 3058.09,-77.0532"/>
</g>
<!-- Node23&#45;&gt;Node7 -->
<g id="edge41" class="edge"><title>Node23&#45;&gt;Node7</title>
<path fill="none" stroke="midnightblue" d="M1973.27,-514.441C2062.22,-496.612 2265.68,-456.369 2335.79,-447 2434.79,-433.771 2704.1,-471.199 2783.79,-411 2842.31,-366.799 2833.14,-301.139 2784.79,-246 2761.73,-219.696 2745.16,-227.365 2714.79,-210 2644.04,-169.545 2633.02,-147.794 2559.79,-112 2531.9,-98.3628 2498.77,-86.6237 2473.63,-78.5578"/>
<polygon fill="midnightblue" stroke="midnightblue" points="2474.66,-75.2132 2464.07,-75.544 2472.56,-81.8892 2474.66,-75.2132"/>
</g>
<!-- Node23&#45;&gt;Node11 -->
<g id="edge77" class="edge"><title>Node23&#45;&gt;Node11</title>
<path fill="none" stroke="midnightblue" d="M1871.84,-514.467C1814.5,-505.968 1724.98,-492.176 1647.79,-478 1437.92,-439.457 1388.58,-413.151 1177.79,-380 1028.99,-356.598 980.517,-400.272 840.793,-344 819.93,-335.598 820.313,-324.174 800.793,-313 763.404,-291.597 734.946,-312.674 710.793,-277 658.453,-199.692 751.784,-140.168 840.793,-112 950.184,-77.3819 1310.36,-69.1242 1418.09,-67.4071"/>
<polygon fill="midnightblue" stroke="midnightblue" points="1418.33,-70.904 1428.28,-67.2525 1418.23,-63.9048 1418.33,-70.904"/>
</g>
<!-- Node23&#45;&gt;Node12 -->
<g id="edge80" class="edge"><title>Node23&#45;&gt;Node12</title>
<path fill="none" stroke="midnightblue" d="M1867.23,-523.482C1554.7,-525.291 190.257,-526.488 44.7931,-411 -9.11821,-368.198 0.7931,-331.336 0.7931,-262.5 0.7931,-262.5 0.7931,-262.5 0.7931,-193.5 0.7931,-127.658 85.1992,-90.7269 131.4,-75.4439"/>
<polygon fill="midnightblue" stroke="midnightblue" points="132.7,-78.7036 141.174,-72.3446 130.584,-72.031 132.7,-78.7036"/>
</g>
<!-- Node23&#45;&gt;Node20 -->
<g id="edge79" class="edge"><title>Node23&#45;&gt;Node20</title>
<path fill="none" stroke="midnightblue" d="M1867.02,-516.103C1794.67,-505.238 1676.87,-477.952 1600.79,-411 1560.02,-375.116 1537.72,-312.401 1528.67,-281.214"/>
<polygon fill="midnightblue" stroke="midnightblue" points="1531.96,-279.968 1525.92,-271.258 1525.21,-281.829 1531.96,-279.968"/>
</g>
<!-- Node24 -->
<g id="node24" class="node"><title>Node24</title>
<g id="a_node24"><a xlink:href="_executable_content_8h.html" target="_top" xlink:title="uscxml/plugins/Executable\lContent.h">
<polygon fill="white" stroke="black" points="1590.79,-112.5 1590.79,-142.5 1724.79,-142.5 1724.79,-112.5 1590.79,-112.5"/>
<text text-anchor="start" x="1598.79" y="-130.5" font-family="Helvetica,sans-Serif" font-size="10.00">uscxml/plugins/Executable</text>
<text text-anchor="middle" x="1657.79" y="-119.5" font-family="Helvetica,sans-Serif" font-size="10.00">Content.h</text>
</a>
</g>
</g>
<!-- Node23&#45;&gt;Node24 -->
<g id="edge42" class="edge"><title>Node23&#45;&gt;Node24</title>
<path fill="none" stroke="midnightblue" d="M1927.54,-514.355C1911.67,-473 1838.74,-292.672 1732.79,-179 1721.47,-166.849 1706.69,-156.114 1693.25,-147.702"/>
<polygon fill="midnightblue" stroke="midnightblue" points="1695.03,-144.688 1684.66,-142.517 1691.41,-150.681 1695.03,-144.688"/>
</g>
<!-- Node25 -->
<g id="node25" class="node"><title>Node25</title>
<g id="a_node25"><a xlink:href="_event_handler_8h.html" target="_top" xlink:title="uscxml/plugins/EventHandler.h">
<polygon fill="white" stroke="black" points="1898.79,-319 1898.79,-338 2052.79,-338 2052.79,-319 1898.79,-319"/>
<text text-anchor="middle" x="1975.79" y="-326" font-family="Helvetica,sans-Serif" font-size="10.00">uscxml/plugins/EventHandler.h</text>
</a>
</g>
</g>
<!-- Node23&#45;&gt;Node25 -->
<g id="edge47" class="edge"><title>Node23&#45;&gt;Node25</title>
<path fill="none" stroke="midnightblue" d="M1932.74,-514.099C1935.86,-499.896 1942.19,-471.24 1947.79,-447 1955.9,-411.882 1965.75,-370.955 1971.34,-347.849"/>
<polygon fill="midnightblue" stroke="midnightblue" points="1974.76,-348.585 1973.71,-338.041 1967.96,-346.935 1974.76,-348.585"/>
</g>
<!-- Node26 -->
<g id="node26" class="node"><title>Node26</title>
<g id="a_node26"><a xlink:href="_i_o_processor_8h.html" target="_top" xlink:title="uscxml/plugins/IOProcessor.h">
<polygon fill="white" stroke="black" points="1978.29,-386 1978.29,-405 2127.29,-405 2127.29,-386 1978.29,-386"/>
<text text-anchor="middle" x="2052.79" y="-393" font-family="Helvetica,sans-Serif" font-size="10.00">uscxml/plugins/IOProcessor.h</text>
</a>
</g>
</g>
<!-- Node23&#45;&gt;Node26 -->
<g id="edge53" class="edge"><title>Node23&#45;&gt;Node26</title>
<path fill="none" stroke="midnightblue" d="M1934.13,-514.141C1940.19,-498.978 1954.19,-467.689 1973.79,-447 1988.39,-431.591 2008.62,-418.776 2024.95,-409.912"/>
<polygon fill="midnightblue" stroke="midnightblue" points="2026.8,-412.893 2034.04,-405.159 2023.56,-406.689 2026.8,-412.893"/>
</g>
<!-- Node27 -->
<g id="node27" class="node"><title>Node27</title>
<g id="a_node27"><a xlink:href="_invoker_8h.html" target="_top" xlink:title="uscxml/plugins/Invoker.h">
<polygon fill="white" stroke="black" points="2145.79,-386 2145.79,-405 2271.79,-405 2271.79,-386 2145.79,-386"/>
<text text-anchor="middle" x="2208.79" y="-393" font-family="Helvetica,sans-Serif" font-size="10.00">uscxml/plugins/Invoker.h</text>
</a>
</g>
</g>
<!-- Node23&#45;&gt;Node27 -->
<g id="edge57" class="edge"><title>Node23&#45;&gt;Node27</title>
<path fill="none" stroke="midnightblue" d="M1938.95,-514.341C1956.85,-495.398 1998.67,-451.597 2006.79,-447 2020.12,-439.455 2104.31,-419.772 2159.71,-407.326"/>
<polygon fill="midnightblue" stroke="midnightblue" points="2160.7,-410.69 2169.7,-405.091 2159.17,-403.859 2160.7,-410.69"/>
</g>
<!-- Node23&#45;&gt;Node28 -->
<g id="edge61" class="edge"><title>Node23&#45;&gt;Node28</title>
<path fill="none" stroke="midnightblue" d="M1952.57,-514.475C1974.6,-505.852 2009.31,-492.264 2037.36,-481.285"/>
<polygon fill="midnightblue" stroke="midnightblue" points="2038.93,-484.427 2046.97,-477.523 2036.38,-477.909 2038.93,-484.427"/>
</g>
<!-- Node31 -->
<g id="node31" class="node"><title>Node31</title>
<g id="a_node31"><a xlink:href="_string_8h.html" target="_top" xlink:title="string.h">
<polygon fill="white" stroke="black" points="1489.29,-185 1489.29,-204 1538.29,-204 1538.29,-185 1489.29,-185"/>
<text text-anchor="middle" x="1513.79" y="-192" font-family="Helvetica,sans-Serif" font-size="10.00">string.h</text>
</a>
</g>
</g>
<!-- Node23&#45;&gt;Node31 -->
<g id="edge74" class="edge"><title>Node23&#45;&gt;Node31</title>
<path fill="none" stroke="midnightblue" d="M1916.04,-514.36C1901.44,-505.646 1878.61,-491.574 1859.79,-478 1859.79,-478 1604.14,-269.263 1532.34,-210.645"/>
<polygon fill="midnightblue" stroke="midnightblue" points="1534.49,-207.878 1524.53,-204.264 1530.06,-213.3 1534.49,-207.878"/>
</g>
<!-- Node24&#45;&gt;Node6 -->
<g id="edge45" class="edge"><title>Node24&#45;&gt;Node6</title>
<path fill="none" stroke="midnightblue" d="M1725.02,-120.744C1761.35,-117.791 1807,-114.335 1847.79,-112 2297.31,-86.2711 2844.18,-71.5307 2989.12,-67.8932"/>
<polygon fill="midnightblue" stroke="midnightblue" points="2989.33,-71.3892 2999.23,-67.641 2989.15,-64.3914 2989.33,-71.3892"/>
</g>
<!-- Node24&#45;&gt;Node7 -->
<g id="edge43" class="edge"><title>Node24&#45;&gt;Node7</title>
<path fill="none" stroke="midnightblue" d="M1724.89,-113.889C1729.59,-113.191 1734.25,-112.551 1738.79,-112 1973.27,-83.5251 2254.51,-72.3173 2375.12,-68.5951"/>
<polygon fill="midnightblue" stroke="midnightblue" points="2375.36,-72.0895 2385.25,-68.2884 2375.15,-65.0927 2375.36,-72.0895"/>
</g>
<!-- Node24&#45;&gt;Node11 -->
<g id="edge44" class="edge"><title>Node24&#45;&gt;Node11</title>
<path fill="none" stroke="midnightblue" d="M1608.53,-112.475C1568.39,-101.048 1512.99,-85.2774 1479.1,-75.6284"/>
<polygon fill="midnightblue" stroke="midnightblue" points="1479.89,-72.214 1469.31,-72.842 1477.97,-78.9465 1479.89,-72.214"/>
</g>
<!-- Node24&#45;&gt;Node13 -->
<g id="edge46" class="edge"><title>Node24&#45;&gt;Node13</title>
<path fill="none" stroke="midnightblue" d="M1590.68,-121.892C1545.04,-118.847 1483.29,-114.899 1428.79,-112 1033.75,-90.9898 554.303,-73.1507 420.179,-68.3004"/>
<polygon fill="midnightblue" stroke="midnightblue" points="420.17,-64.7979 410.05,-67.9351 419.917,-71.7934 420.17,-64.7979"/>
</g>
<!-- Node25&#45;&gt;Node4 -->
<g id="edge50" class="edge"><title>Node25&#45;&gt;Node4</title>
<path fill="none" stroke="midnightblue" d="M1917.23,-318.982C1869.42,-311.044 1800.57,-297.345 1742.79,-277 1650.93,-244.655 1636.35,-217.266 1546.79,-179 1506.72,-161.879 1458.69,-145.532 1430.29,-136.283"/>
<polygon fill="midnightblue" stroke="midnightblue" points="1431.02,-132.84 1420.43,-133.099 1428.87,-139.501 1431.02,-132.84"/>
</g>
<!-- Node25&#45;&gt;Node6 -->
<g id="edge52" class="edge"><title>Node25&#45;&gt;Node6</title>
<path fill="none" stroke="midnightblue" d="M2053.07,-325.888C2144.11,-322.389 2299.27,-311.393 2427.79,-277 2461.06,-268.099 2465.48,-254.712 2498.79,-246 2653.93,-205.426 2710.26,-272.824 2857.79,-210 2875.56,-202.435 2969.58,-118.056 3008.7,-82.5734"/>
<polygon fill="midnightblue" stroke="midnightblue" points="3011.12,-85.1044 3016.16,-75.7891 3006.41,-79.9236 3011.12,-85.1044"/>
</g>
<!-- Node25&#45;&gt;Node7 -->
<g id="edge48" class="edge"><title>Node25&#45;&gt;Node7</title>
<path fill="none" stroke="midnightblue" d="M1946.66,-318.91C1926.78,-311.355 1901.92,-298.187 1889.79,-277 1882.95,-265.043 1882.81,-257.878 1889.79,-246 1901.71,-225.718 2054.62,-155.111 2074.79,-143 2096.57,-129.927 2099.01,-120.907 2122.79,-112 2206.54,-80.6364 2310.49,-70.9773 2374.73,-68.0932"/>
<polygon fill="midnightblue" stroke="midnightblue" points="2375.23,-71.5758 2385.08,-67.6719 2374.95,-64.5816 2375.23,-71.5758"/>
</g>
<!-- Node25&#45;&gt;Node11 -->
<g id="edge51" class="edge"><title>Node25&#45;&gt;Node11</title>
<path fill="none" stroke="midnightblue" d="M1958.36,-318.867C1939.09,-309.182 1907.28,-292.759 1880.79,-277 1813,-236.66 1805.16,-210.408 1732.79,-179 1669.5,-151.533 1644.52,-171.719 1581.79,-143 1560.37,-133.193 1558.95,-124.196 1538.79,-112 1518.99,-100.02 1495.59,-88.3891 1477.61,-79.9537"/>
<polygon fill="midnightblue" stroke="midnightblue" points="1478.78,-76.6395 1468.23,-75.6142 1475.84,-82.9917 1478.78,-76.6395"/>
</g>
<!-- Node25&#45;&gt;Node15 -->
<g id="edge49" class="edge"><title>Node25&#45;&gt;Node15</title>
<path fill="none" stroke="midnightblue" d="M1974.44,-318.734C1972.98,-309.183 1970.58,-293.618 1968.68,-281.283"/>
<polygon fill="midnightblue" stroke="midnightblue" points="1972.1,-280.479 1967.12,-271.127 1965.18,-281.543 1972.1,-280.479"/>
</g>
<!-- Node26&#45;&gt;Node7 -->
<g id="edge54" class="edge"><title>Node26&#45;&gt;Node7</title>
<path fill="none" stroke="midnightblue" d="M2057.52,-385.748C2082.72,-339.099 2200.73,-121.458 2213.79,-112 2239.06,-93.7023 2318.48,-80.7495 2374.86,-73.5764"/>
<polygon fill="midnightblue" stroke="midnightblue" points="2375.61,-77.0104 2385.1,-72.3043 2374.75,-70.0637 2375.61,-77.0104"/>
</g>
<!-- Node26&#45;&gt;Node15 -->
<g id="edge56" class="edge"><title>Node26&#45;&gt;Node15</title>
<path fill="none" stroke="midnightblue" d="M2056.96,-385.907C2063.92,-370.187 2075.85,-336.275 2061.79,-313 2050.55,-294.383 2029.91,-282.285 2010.65,-274.614"/>
<polygon fill="midnightblue" stroke="midnightblue" points="2011.65,-271.252 2001.05,-271.095 2009.23,-277.824 2011.65,-271.252"/>
</g>
<!-- Node26&#45;&gt;Node25 -->
<g id="edge55" class="edge"><title>Node26&#45;&gt;Node25</title>
<path fill="none" stroke="midnightblue" d="M2042.41,-385.734C2029.94,-375.208 2008.82,-357.379 1993.7,-344.617"/>
<polygon fill="midnightblue" stroke="midnightblue" points="1995.91,-341.903 1986.01,-338.127 1991.4,-347.252 1995.91,-341.903"/>
</g>
<!-- Node27&#45;&gt;Node7 -->
<g id="edge58" class="edge"><title>Node27&#45;&gt;Node7</title>
<path fill="none" stroke="midnightblue" d="M2205.64,-385.885C2195.24,-355.989 2164.25,-254.428 2193.79,-179 2221.49,-108.294 2313.19,-82.2096 2375.15,-72.5969"/>
<polygon fill="midnightblue" stroke="midnightblue" points="2375.81,-76.0379 2385.2,-71.1398 2374.8,-69.1102 2375.81,-76.0379"/>
</g>
<!-- Node27&#45;&gt;Node15 -->
<g id="edge60" class="edge"><title>Node27&#45;&gt;Node15</title>
<path fill="none" stroke="midnightblue" d="M2196.35,-385.767C2173.75,-370.113 2124.2,-336.698 2079.79,-313 2052.56,-298.464 2020.28,-284.45 1997.04,-274.888"/>
<polygon fill="midnightblue" stroke="midnightblue" points="1998.25,-271.604 1987.67,-271.074 1995.61,-278.087 1998.25,-271.604"/>
</g>
<!-- Node27&#45;&gt;Node25 -->
<g id="edge59" class="edge"><title>Node27&#45;&gt;Node25</title>
<path fill="none" stroke="midnightblue" d="M2177.85,-385.869C2136.22,-374.254 2062.1,-353.576 2016.13,-340.753"/>
<polygon fill="midnightblue" stroke="midnightblue" points="2017.06,-337.38 2006.49,-338.064 2015.18,-344.122 2017.06,-337.38"/>
</g>
<!-- Node28&#45;&gt;Node4 -->
<g id="edge71" class="edge"><title>Node28&#45;&gt;Node4</title>
<path fill="none" stroke="midnightblue" d="M2046.47,-447.419C1923.8,-399.722 1529.79,-245.267 1479.79,-210 1454.26,-191.988 1431.16,-163.739 1417.79,-145.677"/>
<polygon fill="midnightblue" stroke="midnightblue" points="1420.42,-143.334 1411.73,-137.268 1414.74,-147.427 1420.42,-143.334"/>
</g>
<!-- Node28&#45;&gt;Node6 -->
<g id="edge73" class="edge"><title>Node28&#45;&gt;Node6</title>
<path fill="none" stroke="midnightblue" d="M2149.55,-457.805C2319.03,-448.273 2754.69,-422.78 2783.79,-411 2946.78,-345.04 3018.6,-309.603 3074.79,-143 3079.2,-129.945 3080.34,-124.614 3074.79,-112 3069.4,-99.732 3058.83,-89.3414 3048.89,-81.6461"/>
<polygon fill="midnightblue" stroke="midnightblue" points="3050.62,-78.5811 3040.45,-75.598 3046.54,-84.2697 3050.62,-78.5811"/>
</g>
<!-- Node28&#45;&gt;Node7 -->
<g id="edge62" class="edge"><title>Node28&#45;&gt;Node7</title>
<path fill="none" stroke="midnightblue" d="M2149.37,-457.09C2318.64,-445.805 2752.48,-416.389 2757.79,-411 2809.26,-358.748 2804.04,-305.24 2760.79,-246 2731.21,-205.475 2698.18,-233.403 2653.79,-210 2589.79,-176.251 2585.21,-150.253 2523.79,-112 2504.32,-99.8743 2481.17,-88.2484 2463.36,-79.8518"/>
<polygon fill="midnightblue" stroke="midnightblue" points="2464.62,-76.5762 2454.08,-75.5366 2461.67,-82.9245 2464.62,-76.5762"/>
</g>
<!-- Node28&#45;&gt;Node11 -->
<g id="edge72" class="edge"><title>Node28&#45;&gt;Node11</title>
<path fill="none" stroke="midnightblue" d="M2016.06,-455.102C1922.97,-446.041 1748.89,-428.606 1600.79,-411 1497.06,-398.667 1471.64,-391.417 1367.79,-380 1184.21,-359.816 1135.29,-378.206 953.793,-344 947.306,-342.777 729.748,-282.285 725.793,-277 686.166,-224.052 753.396,-171.736 919.793,-112 1012.5,-78.7175 1319.16,-69.6424 1417.88,-67.5531"/>
<polygon fill="midnightblue" stroke="midnightblue" points="1418.16,-71.0483 1428.09,-67.3467 1418.02,-64.0498 1418.16,-71.0483"/>
</g>
<!-- Node28&#45;&gt;Node26 -->
<g id="edge64" class="edge"><title>Node28&#45;&gt;Node26</title>
<path fill="none" stroke="midnightblue" d="M2076.28,-447.396C2071.84,-437.763 2065.91,-424.914 2061.12,-414.537"/>
<polygon fill="midnightblue" stroke="midnightblue" points="2064.17,-412.807 2056.81,-405.195 2057.82,-415.741 2064.17,-412.807"/>
</g>
<!-- Node28&#45;&gt;Node27 -->
<g id="edge63" class="edge"><title>Node28&#45;&gt;Node27</title>
<path fill="none" stroke="midnightblue" d="M2110.13,-447.396C2131.85,-436.193 2162,-420.641 2183.23,-409.685"/>
<polygon fill="midnightblue" stroke="midnightblue" points="2185.02,-412.702 2192.3,-405.007 2181.81,-406.481 2185.02,-412.702"/>
</g>
<!-- Node29 -->
<g id="node29" class="node"><title>Node29</title>
<g id="a_node29"><a xlink:href="_logging_8h.html" target="_top" xlink:title="uscxml/interpreter\l/Logging.h">
<polygon fill="white" stroke="black" points="2572.79,-313.5 2572.79,-343.5 2668.79,-343.5 2668.79,-313.5 2572.79,-313.5"/>
<text text-anchor="start" x="2580.79" y="-331.5" font-family="Helvetica,sans-Serif" font-size="10.00">uscxml/interpreter</text>
<text text-anchor="middle" x="2620.79" y="-320.5" font-family="Helvetica,sans-Serif" font-size="10.00">/Logging.h</text>
</a>
</g>
</g>
<!-- Node28&#45;&gt;Node29 -->
<g id="edge65" class="edge"><title>Node28&#45;&gt;Node29</title>
<path fill="none" stroke="midnightblue" d="M2139.86,-447.499C2242.84,-422.231 2458.69,-369.272 2562.54,-343.793"/>
<polygon fill="midnightblue" stroke="midnightblue" points="2563.65,-347.123 2572.53,-341.341 2561.99,-340.325 2563.65,-347.123"/>
</g>
<!-- Node29&#45;&gt;Node3 -->
<g id="edge68" class="edge"><title>Node29&#45;&gt;Node3</title>
<path fill="none" stroke="midnightblue" d="M2572.55,-320.291C2486.07,-307.289 2313.11,-280.899 2307.79,-277 2286.97,-261.741 2276.04,-232.87 2270.85,-213.909"/>
<polygon fill="midnightblue" stroke="midnightblue" points="2274.21,-212.94 2268.42,-204.068 2267.42,-214.615 2274.21,-212.94"/>
</g>
<!-- Node29&#45;&gt;Node6 -->
<g id="edge70" class="edge"><title>Node29&#45;&gt;Node6</title>
<path fill="none" stroke="midnightblue" d="M2614.97,-313.39C2608.58,-295.346 2601.25,-264.256 2617.79,-246 2672.52,-185.605 2908.06,-242.521 2982.79,-210 3024.08,-192.033 3040.26,-184.04 3058.79,-143 3064.46,-130.443 3063.08,-125.094 3058.79,-112 3055.3,-101.34 3048.22,-91.1174 3041.51,-83.1175"/>
<polygon fill="midnightblue" stroke="midnightblue" points="3044.1,-80.7633 3034.81,-75.66 3038.89,-85.4395 3044.1,-80.7633"/>
</g>
<!-- Node29&#45;&gt;Node7 -->
<g id="edge67" class="edge"><title>Node29&#45;&gt;Node7</title>
<path fill="none" stroke="midnightblue" d="M2610.79,-313.494C2579.17,-269.208 2481.41,-132.287 2446.96,-84.0391"/>
<polygon fill="midnightblue" stroke="midnightblue" points="2449.61,-81.7301 2440.95,-75.6255 2443.91,-85.7978 2449.61,-81.7301"/>
</g>
<!-- Node29&#45;&gt;Node15 -->
<g id="edge69" class="edge"><title>Node29&#45;&gt;Node15</title>
<path fill="none" stroke="midnightblue" d="M2572.63,-322.72C2460.01,-311.544 2178.69,-283.627 2042.31,-270.093"/>
<polygon fill="midnightblue" stroke="midnightblue" points="2042.65,-266.61 2032.35,-269.105 2041.95,-273.575 2042.65,-266.61"/>
</g>
<!-- Node30 -->
<g id="node30" class="node"><title>Node30</title>
<polygon fill="white" stroke="#bfbfbf" points="2627.29,-252 2627.29,-271 2712.29,-271 2712.29,-252 2627.29,-252"/>
<text text-anchor="middle" x="2669.79" y="-259" font-family="Helvetica,sans-Serif" font-size="10.00">uscxml/config.h</text>
</g>
<!-- Node29&#45;&gt;Node30 -->
<g id="edge66" class="edge"><title>Node29&#45;&gt;Node30</title>
<path fill="none" stroke="midnightblue" d="M2631.43,-313.396C2638.99,-303.361 2649.18,-289.838 2657.16,-279.253"/>
<polygon fill="midnightblue" stroke="midnightblue" points="2660.01,-281.287 2663.24,-271.195 2654.42,-277.073 2660.01,-281.287"/>
</g>
<!-- Node31&#45;&gt;Node4 -->
<g id="edge76" class="edge"><title>Node31&#45;&gt;Node4</title>
<path fill="none" stroke="midnightblue" d="M1499.23,-184.734C1481.17,-173.867 1450.18,-155.216 1428.88,-142.393"/>
<polygon fill="midnightblue" stroke="midnightblue" points="1430.5,-139.285 1420.13,-137.127 1426.89,-145.283 1430.5,-139.285"/>
</g>
<!-- Node31&#45;&gt;Node11 -->
<g id="edge75" class="edge"><title>Node31&#45;&gt;Node11</title>
<path fill="none" stroke="midnightblue" d="M1505.12,-184.94C1495.93,-175.446 1481.57,-159.307 1472.79,-143 1462.98,-124.765 1456.43,-101.874 1452.69,-86.0045"/>
<polygon fill="midnightblue" stroke="midnightblue" points="1456.03,-84.8698 1450.46,-75.8567 1449.19,-86.3756 1456.03,-84.8698"/>
</g>
<!-- Node32&#45;&gt;Node4 -->
<g id="edge83" class="edge"><title>Node32&#45;&gt;Node4</title>
<path fill="none" stroke="midnightblue" d="M1438.71,-629.891C1388.13,-615.565 1315.79,-584.649 1315.79,-525 1315.79,-525 1315.79,-525 1315.79,-461.5 1315.79,-367.587 1395.14,-367.886 1418.79,-277 1430.7,-231.231 1418.99,-175.135 1411.3,-146.778"/>
<polygon fill="midnightblue" stroke="midnightblue" points="1414.63,-145.695 1408.52,-137.041 1407.9,-147.617 1414.63,-145.695"/>
</g>
<!-- Node32&#45;&gt;Node7 -->
<g id="edge86" class="edge"><title>Node32&#45;&gt;Node7</title>
<path fill="none" stroke="midnightblue" d="M1535.12,-639.398C1777.6,-633.561 2855.24,-603.839 2985.79,-534 3081.82,-482.629 3120.79,-438.407 3120.79,-329.5 3120.79,-329.5 3120.79,-329.5 3120.79,-260.5 3120.79,-232.284 2941.21,-121.914 2914.79,-112 2839.28,-83.6591 2605.4,-72.4857 2494.42,-68.6939"/>
<polygon fill="midnightblue" stroke="midnightblue" points="2494.5,-65.1949 2484.39,-68.3601 2494.27,-72.191 2494.5,-65.1949"/>
</g>
<!-- Node32&#45;&gt;Node11 -->
<g id="edge85" class="edge"><title>Node32&#45;&gt;Node11</title>
<path fill="none" stroke="midnightblue" d="M1438.5,-626.661C1407.17,-617.269 1365.65,-604.042 1329.79,-590 1314.7,-584.091 815.035,-351.732 800.793,-344 751.482,-317.23 720.972,-326.087 693.793,-277 687.119,-264.947 693.485,-259.774 693.793,-246 694.46,-216.2 684.672,-206.232 696.793,-179 714.046,-140.239 726.085,-129.372 764.793,-112 824.928,-85.0125 1293.24,-71.0336 1418.22,-67.7595"/>
<polygon fill="midnightblue" stroke="midnightblue" points="1418.35,-71.2575 1428.26,-67.5005 1418.17,-64.2598 1418.35,-71.2575"/>
</g>
<!-- Node32&#45;&gt;Node15 -->
<g id="edge115" class="edge"><title>Node32&#45;&gt;Node15</title>
<path fill="none" stroke="midnightblue" d="M1502.09,-626.485C1566.84,-567.231 1816.86,-339.119 1856.79,-313 1880.82,-297.288 1910.51,-283.874 1932.84,-274.828"/>
<polygon fill="midnightblue" stroke="midnightblue" points="1934.22,-278.046 1942.23,-271.106 1931.64,-271.539 1934.22,-278.046"/>
</g>
<!-- Node32&#45;&gt;Node20 -->
<g id="edge84" class="edge"><title>Node32&#45;&gt;Node20</title>
<path fill="none" stroke="midnightblue" d="M1463.8,-626.446C1435.68,-607.299 1391.79,-570.177 1391.79,-525 1391.79,-525 1391.79,-525 1391.79,-394.5 1391.79,-352.686 1409.42,-342.758 1438.79,-313 1448.25,-303.423 1478.01,-286.633 1499.65,-275.058"/>
<polygon fill="midnightblue" stroke="midnightblue" points="1501.44,-278.075 1508.64,-270.303 1498.16,-271.888 1501.44,-278.075"/>
</g>
<!-- Node33 -->
<g id="node33" class="node"><title>Node33</title>
<g id="a_node33"><a xlink:href="_interpreter_8h.html" target="_top" xlink:title="uscxml/Interpreter.h">
<polygon fill="white" stroke="black" points="2476.29,-570.5 2476.29,-589.5 2581.29,-589.5 2581.29,-570.5 2476.29,-570.5"/>
<text text-anchor="middle" x="2528.79" y="-577.5" font-family="Helvetica,sans-Serif" font-size="10.00">uscxml/Interpreter.h</text>
</a>
</g>
</g>
<!-- Node32&#45;&gt;Node33 -->
<g id="edge87" class="edge"><title>Node32&#45;&gt;Node33</title>
<path fill="none" stroke="midnightblue" d="M1534.96,-637.75C1704.75,-628.054 2275.38,-595.47 2466.11,-584.579"/>
<polygon fill="midnightblue" stroke="midnightblue" points="2466.47,-588.065 2476.25,-584 2466.07,-581.076 2466.47,-588.065"/>
</g>
<!-- Node33&#45;&gt;Node5 -->
<g id="edge89" class="edge"><title>Node33&#45;&gt;Node5</title>
<path fill="none" stroke="midnightblue" d="M2475.97,-578.338C2358.41,-576.271 2066.46,-567.856 1824.79,-534 1709.02,-517.781 1681.61,-504.693 1567.79,-478 1546.04,-472.899 1199.59,-384.891 1177.79,-380 1097.34,-361.947 1066.73,-386.035 995.793,-344 952.636,-318.426 924.609,-293.812 939.793,-246 952.873,-204.812 986.19,-165.623 1006.41,-144.547"/>
<polygon fill="midnightblue" stroke="midnightblue" points="1009.17,-146.731 1013.69,-137.149 1004.18,-141.82 1009.17,-146.731"/>
</g>
<!-- Node33&#45;&gt;Node7 -->
<g id="edge88" class="edge"><title>Node33&#45;&gt;Node7</title>
<path fill="none" stroke="midnightblue" d="M2581.34,-577.108C2679.16,-572.981 2885.23,-561.259 2950.79,-534 2987.26,-518.838 3002.54,-513.53 3019.79,-478 3023.92,-469.499 3023.93,-334.465 3020.79,-313 3004.76,-203.227 2972.98,-159.643 2872.79,-112 2807.32,-80.865 2598.41,-71.1636 2494.56,-68.2267"/>
<polygon fill="midnightblue" stroke="midnightblue" points="2494.64,-64.7276 2484.55,-67.9553 2494.45,-71.725 2494.64,-64.7276"/>
</g>
<!-- Node33&#45;&gt;Node11 -->
<g id="edge90" class="edge"><title>Node33&#45;&gt;Node11</title>
<path fill="none" stroke="midnightblue" d="M2476.27,-576.622C2328.66,-569.777 1916.94,-549.524 1857.79,-534 1735.31,-501.853 1668.29,-518.139 1600.79,-411 1541.49,-316.871 1764.05,-266.064 1694.79,-179 1650.5,-123.315 1602.42,-174.846 1538.79,-143 1534.66,-140.934 1491.58,-103.964 1466.55,-82.3624"/>
<polygon fill="midnightblue" stroke="midnightblue" points="1468.69,-79.5876 1458.83,-75.6982 1464.11,-84.8844 1468.69,-79.5876"/>
</g>
<!-- Node33&#45;&gt;Node23 -->
<g id="edge106" class="edge"><title>Node33&#45;&gt;Node23</title>
<path fill="none" stroke="midnightblue" d="M2476.25,-574.255C2369.52,-564.618 2127.13,-542.729 2004.61,-531.666"/>
<polygon fill="midnightblue" stroke="midnightblue" points="2004.85,-528.173 1994.57,-530.759 2004.22,-535.145 2004.85,-528.173"/>
</g>
<!-- Node33&#45;&gt;Node29 -->
<g id="edge99" class="edge"><title>Node33&#45;&gt;Node29</title>
<path fill="none" stroke="midnightblue" d="M2535.58,-570.493C2542.26,-561.767 2552.38,-547.585 2558.79,-534 2588.12,-471.906 2607.45,-392.695 2615.91,-353.582"/>
<polygon fill="midnightblue" stroke="midnightblue" points="2619.36,-354.168 2618,-343.66 2612.51,-352.721 2619.36,-354.168"/>
</g>
<!-- Node34 -->
<g id="node34" class="node"><title>Node34</title>
<polygon fill="white" stroke="#bfbfbf" points="2610.79,-514.5 2610.79,-533.5 2654.79,-533.5 2654.79,-514.5 2610.79,-514.5"/>
<text text-anchor="middle" x="2632.79" y="-521.5" font-family="Helvetica,sans-Serif" font-size="10.00">vector</text>
</g>
<!-- Node33&#45;&gt;Node34 -->
<g id="edge91" class="edge"><title>Node33&#45;&gt;Node34</title>
<path fill="none" stroke="midnightblue" d="M2545.5,-570.324C2562.11,-561.703 2587.8,-548.364 2607.01,-538.386"/>
<polygon fill="midnightblue" stroke="midnightblue" points="2608.86,-541.369 2616.13,-533.655 2605.64,-535.156 2608.86,-541.369"/>
</g>
<!-- Node35 -->
<g id="node35" class="node"><title>Node35</title>
<g id="a_node35"><a xlink:href="_micro_step_8h.html" target="_top" xlink:title="uscxml/interpreter\l/MicroStep.h">
<polygon fill="white" stroke="black" points="2752.79,-179.5 2752.79,-209.5 2848.79,-209.5 2848.79,-179.5 2752.79,-179.5"/>
<text text-anchor="start" x="2760.79" y="-197.5" font-family="Helvetica,sans-Serif" font-size="10.00">uscxml/interpreter</text>
<text text-anchor="middle" x="2800.79" y="-186.5" font-family="Helvetica,sans-Serif" font-size="10.00">/MicroStep.h</text>
</a>
</g>
</g>
<!-- Node33&#45;&gt;Node35 -->
<g id="edge92" class="edge"><title>Node33&#45;&gt;Node35</title>
<path fill="none" stroke="midnightblue" d="M2564.77,-570.467C2632.26,-552.621 2778.29,-504.991 2858.79,-411 2907.33,-354.33 2927.34,-310.48 2889.79,-246 2881.73,-232.147 2868.29,-221.786 2854.27,-214.176"/>
<polygon fill="midnightblue" stroke="midnightblue" points="2855.53,-210.895 2845.02,-209.563 2852.41,-217.159 2855.53,-210.895"/>
</g>
<!-- Node36 -->
<g id="node36" class="node"><title>Node36</title>
<g id="a_node36"><a xlink:href="_interpreter_state_8h.html" target="_top" xlink:title="uscxml/interpreter\l/InterpreterState.h">
<polygon fill="white" stroke="black" points="2767.29,-112.5 2767.29,-142.5 2864.29,-142.5 2864.29,-112.5 2767.29,-112.5"/>
<text text-anchor="start" x="2775.29" y="-130.5" font-family="Helvetica,sans-Serif" font-size="10.00">uscxml/interpreter</text>
<text text-anchor="middle" x="2815.79" y="-119.5" font-family="Helvetica,sans-Serif" font-size="10.00">/InterpreterState.h</text>
</a>
</g>
</g>
<!-- Node33&#45;&gt;Node36 -->
<g id="edge114" class="edge"><title>Node33&#45;&gt;Node36</title>
<path fill="none" stroke="midnightblue" d="M2581.31,-577.36C2705.49,-572.061 3006.79,-550.262 3006.79,-463.5 3006.79,-463.5 3006.79,-463.5 3006.79,-327.5 3006.79,-240.632 2910.89,-176.953 2855,-147.217"/>
<polygon fill="midnightblue" stroke="midnightblue" points="2856.54,-144.077 2846.06,-142.568 2853.31,-150.287 2856.54,-144.077"/>
</g>
<!-- Node37 -->
<g id="node37" class="node"><title>Node37</title>
<g id="a_node37"><a xlink:href="_data_model_8h.html" target="_top" xlink:title="uscxml/plugins/DataModel.h">
<polygon fill="white" stroke="black" points="2298.79,-319 2298.79,-338 2440.79,-338 2440.79,-319 2298.79,-319"/>
<text text-anchor="middle" x="2369.79" y="-326" font-family="Helvetica,sans-Serif" font-size="10.00">uscxml/plugins/DataModel.h</text>
</a>
</g>
</g>
<!-- Node33&#45;&gt;Node37 -->
<g id="edge100" class="edge"><title>Node33&#45;&gt;Node37</title>
<path fill="none" stroke="midnightblue" d="M2523.79,-570.244C2511.55,-548.919 2478.98,-492.687 2449.79,-447 2426.55,-410.626 2397.73,-369.108 2381.8,-346.453"/>
<polygon fill="midnightblue" stroke="midnightblue" points="2384.62,-344.381 2375.99,-338.226 2378.9,-348.416 2384.62,-344.381"/>
</g>
<!-- Node38 -->
<g id="node38" class="node"><title>Node38</title>
<g id="a_node38"><a xlink:href="_content_executor_8h.html" target="_top" xlink:title="uscxml/interpreter\l/ContentExecutor.h">
<polygon fill="white" stroke="black" points="2316.79,-246.5 2316.79,-276.5 2418.79,-276.5 2418.79,-246.5 2316.79,-246.5"/>
<text text-anchor="start" x="2324.79" y="-264.5" font-family="Helvetica,sans-Serif" font-size="10.00">uscxml/interpreter</text>
<text text-anchor="middle" x="2367.79" y="-253.5" font-family="Helvetica,sans-Serif" font-size="10.00">/ContentExecutor.h</text>
</a>
</g>
</g>
<!-- Node33&#45;&gt;Node38 -->
<g id="edge107" class="edge"><title>Node33&#45;&gt;Node38</title>
<path fill="none" stroke="midnightblue" d="M2530.82,-570.363C2535.12,-551.232 2544.79,-503.785 2544.79,-463.5 2544.79,-463.5 2544.79,-463.5 2544.79,-394.5 2544.79,-356.74 2547.06,-340.13 2520.79,-313 2496.74,-288.156 2460.24,-275.53 2428.92,-269.115"/>
<polygon fill="midnightblue" stroke="midnightblue" points="2429.43,-265.65 2418.96,-267.243 2428.14,-272.53 2429.43,-265.65"/>
</g>
<!-- Node33&#45;&gt;Node39 -->
<g id="edge111" class="edge"><title>Node33&#45;&gt;Node39</title>
<path fill="none" stroke="midnightblue" d="M2518.57,-570.319C2497.23,-552.192 2447.41,-509.885 2417.27,-484.288"/>
<polygon fill="midnightblue" stroke="midnightblue" points="2419.22,-481.351 2409.33,-477.545 2414.69,-486.686 2419.22,-481.351"/>
</g>
<!-- Node35&#45;&gt;Node4 -->
<g id="edge94" class="edge"><title>Node35&#45;&gt;Node4</title>
<path fill="none" stroke="midnightblue" d="M2752.56,-192.209C2588.47,-187.667 2036.85,-171.159 1581.79,-143 1527.67,-139.651 1464.33,-134.009 1430.34,-130.84"/>
<polygon fill="midnightblue" stroke="midnightblue" points="1430.66,-127.356 1420.38,-129.905 1430.01,-134.325 1430.66,-127.356"/>
</g>
<!-- Node35&#45;&gt;Node6 -->
<g id="edge93" class="edge"><title>Node35&#45;&gt;Node6</title>
<path fill="none" stroke="midnightblue" d="M2825.73,-179.479C2869.24,-155.019 2958.47,-104.853 3001.51,-80.653"/>
<polygon fill="midnightblue" stroke="midnightblue" points="3003.44,-83.582 3010.44,-75.6303 3000.01,-77.4803 3003.44,-83.582"/>
</g>
<!-- Node35&#45;&gt;Node7 -->
<g id="edge96" class="edge"><title>Node35&#45;&gt;Node7</title>
<path fill="none" stroke="midnightblue" d="M2790.36,-179.296C2775.73,-160.545 2747.25,-128.038 2714.79,-112 2644.63,-77.3298 2553.65,-68.3651 2494.75,-66.5506"/>
<polygon fill="midnightblue" stroke="midnightblue" points="2494.58,-63.0455 2484.5,-66.297 2494.41,-70.0433 2494.58,-63.0455"/>
</g>
<!-- Node35&#45;&gt;Node11 -->
<g id="edge95" class="edge"><title>Node35&#45;&gt;Node11</title>
<path fill="none" stroke="midnightblue" d="M2752.44,-189.213C2659.09,-180.866 2447.55,-161.617 2269.79,-143 2149.22,-130.372 2119.44,-123.833 1998.79,-112 1801.49,-92.6488 1563.8,-75.1794 1479.92,-69.1933"/>
<polygon fill="midnightblue" stroke="midnightblue" points="1480.02,-65.6914 1469.8,-68.4731 1479.52,-72.6738 1480.02,-65.6914"/>
</g>
<!-- Node35&#45;&gt;Node36 -->
<g id="edge97" class="edge"><title>Node35&#45;&gt;Node36</title>
<path fill="none" stroke="midnightblue" d="M2804.05,-179.396C2805.86,-171.56 2808.16,-161.596 2810.24,-152.565"/>
<polygon fill="midnightblue" stroke="midnightblue" points="2813.71,-153.107 2812.54,-142.577 2806.89,-151.533 2813.71,-153.107"/>
</g>
<!-- Node36&#45;&gt;Node7 -->
<g id="edge98" class="edge"><title>Node36&#45;&gt;Node7</title>
<path fill="none" stroke="midnightblue" d="M2767.04,-114.845C2762.24,-113.828 2757.43,-112.86 2752.79,-112 2663.34,-95.4081 2558.73,-81.6857 2494.63,-73.9153"/>
<polygon fill="midnightblue" stroke="midnightblue" points="2494.65,-70.3933 2484.31,-72.6734 2493.82,-77.3432 2494.65,-70.3933"/>
</g>
<!-- Node37&#45;&gt;Node4 -->
<g id="edge103" class="edge"><title>Node37&#45;&gt;Node4</title>
<path fill="none" stroke="midnightblue" d="M2333.5,-318.914C2291.79,-309.002 2221.27,-292.117 2160.79,-277 2107.35,-263.642 2094.57,-257.907 2040.79,-246 1804.84,-193.76 1516.04,-146.189 1430.67,-132.461"/>
<polygon fill="midnightblue" stroke="midnightblue" points="1431.07,-128.979 1420.64,-130.853 1429.96,-135.891 1431.07,-128.979"/>
</g>
<!-- Node37&#45;&gt;Node6 -->
<g id="edge105" class="edge"><title>Node37&#45;&gt;Node6</title>
<path fill="none" stroke="midnightblue" d="M2389.71,-318.922C2429.56,-302.128 2522.29,-264.903 2603.79,-246 2733.32,-215.96 2774.37,-251.185 2900.79,-210 2929.83,-200.54 3004.48,-168.817 3020.79,-143 3031.58,-125.926 3031.28,-102.17 3029.28,-85.7838"/>
<polygon fill="midnightblue" stroke="midnightblue" points="3032.72,-85.1396 3027.73,-75.7902 3025.8,-86.2069 3032.72,-85.1396"/>
</g>
<!-- Node37&#45;&gt;Node7 -->
<g id="edge101" class="edge"><title>Node37&#45;&gt;Node7</title>
<path fill="none" stroke="midnightblue" d="M2385.29,-318.99C2399.18,-310.408 2418.74,-295.759 2427.79,-277 2458.83,-212.689 2446.49,-123.944 2438.97,-85.7341"/>
<polygon fill="midnightblue" stroke="midnightblue" points="2442.32,-84.6508 2436.84,-75.5811 2435.47,-86.0864 2442.32,-84.6508"/>
</g>
<!-- Node37&#45;&gt;Node11 -->
<g id="edge104" class="edge"><title>Node37&#45;&gt;Node11</title>
<path fill="none" stroke="midnightblue" d="M2338.71,-318.99C2304.29,-309.413 2247.27,-293.084 2198.79,-277 2161.02,-264.469 2152.23,-259.491 2114.79,-246 1945.92,-185.147 1907.83,-155.957 1733.79,-112 1642.69,-88.9906 1532.08,-75.5405 1479.46,-69.9944"/>
<polygon fill="midnightblue" stroke="midnightblue" points="1479.75,-66.505 1469.44,-68.9601 1479.03,-73.4681 1479.75,-66.505"/>
</g>
<!-- Node37&#45;&gt;Node15 -->
<g id="edge102" class="edge"><title>Node37&#45;&gt;Node15</title>
<path fill="none" stroke="midnightblue" d="M2320.83,-318.985C2309.03,-316.979 2296.47,-314.879 2284.79,-313 2179.17,-296.004 2152.35,-294.427 2046.79,-277 2038.88,-275.693 2030.54,-274.261 2022.34,-272.823"/>
<polygon fill="midnightblue" stroke="midnightblue" points="2022.9,-269.369 2012.44,-271.073 2021.68,-276.262 2022.9,-269.369"/>
</g>
<!-- Node38&#45;&gt;Node3 -->
<g id="edge109" class="edge"><title>Node38&#45;&gt;Node3</title>
<path fill="none" stroke="midnightblue" d="M2345.88,-246.396C2328.94,-235.496 2305.61,-220.479 2288.68,-209.584"/>
<polygon fill="midnightblue" stroke="midnightblue" points="2290.31,-206.476 2280.01,-204.007 2286.53,-212.362 2290.31,-206.476"/>
</g>
<!-- Node38&#45;&gt;Node7 -->
<g id="edge108" class="edge"><title>Node38&#45;&gt;Node7</title>
<path fill="none" stroke="midnightblue" d="M2374.16,-246.24C2383.79,-224.34 2402.26,-180.97 2414.79,-143 2421.2,-123.609 2426.95,-100.914 2430.62,-85.406"/>
<polygon fill="midnightblue" stroke="midnightblue" points="2434.06,-86.0664 2432.91,-75.5344 2427.24,-84.4862 2434.06,-86.0664"/>
</g>
<!-- Node38&#45;&gt;Node11 -->
<g id="edge110" class="edge"><title>Node38&#45;&gt;Node11</title>
<path fill="none" stroke="midnightblue" d="M2367.33,-246.403C2365.9,-227.774 2360.39,-195.404 2339.79,-179 2280.19,-131.531 2068.3,-174.226 1998.79,-143 1980.14,-134.62 1983.52,-120.21 1964.79,-112 1876.88,-73.4612 1576.72,-67.905 1479.47,-67.1224"/>
<polygon fill="midnightblue" stroke="midnightblue" points="1479.44,-63.6222 1469.41,-67.053 1479.39,-70.622 1479.44,-63.6222"/>
</g>
<!-- Node39&#45;&gt;Node7 -->
<g id="edge112" class="edge"><title>Node39&#45;&gt;Node7</title>
<path fill="none" stroke="midnightblue" d="M2441.08,-461.331C2541.3,-460.129 2767.77,-452.729 2830.79,-411 2859.34,-392.101 2860.06,-377.101 2868.79,-344 2879.9,-301.886 2894.99,-280.8 2868.79,-246 2834.03,-199.808 2790.65,-243.862 2743.79,-210 2701.03,-179.097 2721,-140.803 2676.79,-112 2647.37,-92.8292 2555.98,-79.7264 2494.32,-72.8018"/>
<polygon fill="midnightblue" stroke="midnightblue" points="2494.64,-69.3156 2484.32,-71.7028 2493.87,-76.2737 2494.64,-69.3156"/>
</g>
<!-- Node39&#45;&gt;Node15 -->
<g id="edge113" class="edge"><title>Node39&#45;&gt;Node15</title>
<path fill="none" stroke="midnightblue" d="M2376.18,-447.476C2355.02,-430.082 2316.86,-400.254 2280.79,-380 2189.2,-328.56 2070.7,-291.372 2008.4,-273.822"/>
<polygon fill="midnightblue" stroke="midnightblue" points="2009.1,-270.385 1998.53,-271.074 2007.22,-277.129 2009.1,-270.385"/>
</g>
<!-- Node40&#45;&gt;Node7 -->
<g id="edge117" class="edge"><title>Node40&#45;&gt;Node7</title>
<path fill="none" stroke="midnightblue" d="M1684.56,-380.34C1701.11,-363.584 1730.01,-335.166 1756.79,-313 1835.28,-248.034 1854.93,-230.579 1942.79,-179 1975.37,-159.875 1986.2,-160.287 2019.79,-143 2044.74,-130.16 2048.15,-120.795 2074.79,-112 2176.55,-78.4126 2302.06,-69.5932 2374.8,-67.4557"/>
<polygon fill="midnightblue" stroke="midnightblue" points="2375.24,-70.9456 2385.14,-67.1866 2375.06,-63.948 2375.24,-70.9456"/>
</g>
<!-- Node40&#45;&gt;Node11 -->
<g id="edge120" class="edge"><title>Node40&#45;&gt;Node11</title>
<path fill="none" stroke="midnightblue" d="M1610.28,-390.494C1447.19,-379.632 1009.84,-350.026 995.793,-344 985.6,-339.627 926.516,-287.036 921.793,-277 889.831,-209.087 894.501,-152.347 957.793,-112 996.576,-87.2768 1316.3,-72.3489 1417.92,-68.1946"/>
<polygon fill="midnightblue" stroke="midnightblue" points="1418.28,-71.6828 1428.13,-67.7834 1418,-64.6885 1418.28,-71.6828"/>
</g>
<!-- Node40&#45;&gt;Node15 -->
<g id="edge118" class="edge"><title>Node40&#45;&gt;Node15</title>
<path fill="none" stroke="midnightblue" d="M1693.49,-380.385C1722.01,-363.031 1772.8,-333.381 1818.79,-313 1854.37,-297.235 1896.51,-283.208 1926.53,-273.962"/>
<polygon fill="midnightblue" stroke="midnightblue" points="1927.67,-277.273 1936.22,-271.014 1925.63,-270.576 1927.67,-277.273"/>
</g>
<!-- Node40&#45;&gt;Node20 -->
<g id="edge121" class="edge"><title>Node40&#45;&gt;Node20</title>
<path fill="none" stroke="midnightblue" d="M1655.06,-380.374C1627.29,-355.434 1569.78,-303.798 1541,-277.948"/>
<polygon fill="midnightblue" stroke="midnightblue" points="1543.15,-275.174 1533.37,-271.097 1538.47,-280.383 1543.15,-275.174"/>
</g>
<!-- Node40&#45;&gt;Node29 -->
<g id="edge119" class="edge"><title>Node40&#45;&gt;Node29</title>
<path fill="none" stroke="midnightblue" d="M1731.43,-390.98C1862.54,-383.28 2182.2,-364.017 2449.79,-344 2487.19,-341.202 2529.16,-337.65 2562.15,-334.762"/>
<polygon fill="midnightblue" stroke="midnightblue" points="2562.88,-338.212 2572.54,-333.849 2562.27,-331.239 2562.88,-338.212"/>
</g>
<!-- Node41&#45;&gt;Node4 -->
<g id="edge128" class="edge"><title>Node41&#45;&gt;Node4</title>
<path fill="none" stroke="midnightblue" d="M1056.21,-313.211C1057.49,-295.263 1062.29,-264.573 1079.79,-246 1163.88,-156.754 1320.71,-135.136 1381.16,-130.032"/>
<polygon fill="midnightblue" stroke="midnightblue" points="1381.58,-133.51 1391.28,-129.258 1381.05,-126.53 1381.58,-133.51"/>
</g>
<!-- Node41&#45;&gt;Node5 -->
<g id="edge127" class="edge"><title>Node41&#45;&gt;Node5</title>
<path fill="none" stroke="midnightblue" d="M1053.21,-313.362C1051.38,-303.242 1048.88,-289.292 1046.79,-277 1038.87,-230.384 1030.15,-175.427 1025.72,-147.244"/>
<polygon fill="midnightblue" stroke="midnightblue" points="1029.16,-146.549 1024.15,-137.212 1022.24,-147.633 1029.16,-146.549"/>
</g>
<!-- Node41&#45;&gt;Node7 -->
<g id="edge124" class="edge"><title>Node41&#45;&gt;Node7</title>
<path fill="none" stroke="midnightblue" d="M1106.9,-313.802C1172.68,-296.477 1290.69,-266.446 1392.79,-246 1492.52,-226.03 1525.71,-250.989 1618.79,-210 1639.06,-201.077 1638.31,-189.524 1657.79,-179 1702.68,-154.751 1718.73,-160.122 1766.79,-143 1803.1,-130.063 1810.18,-120.45 1847.79,-112 1946.95,-89.721 2246.27,-74.9005 2374.94,-69.3948"/>
<polygon fill="midnightblue" stroke="midnightblue" points="2375.17,-72.8883 2385.01,-68.968 2374.88,-65.8946 2375.17,-72.8883"/>
</g>
<!-- Node41&#45;&gt;Node11 -->
<g id="edge126" class="edge"><title>Node41&#45;&gt;Node11</title>
<path fill="none" stroke="midnightblue" d="M1010.49,-313.498C981.64,-303.559 948.16,-289.768 939.793,-277 905.519,-224.697 915.202,-171.626 995.793,-112 1029.67,-86.9362 1321.53,-72.4005 1417.99,-68.2473"/>
<polygon fill="midnightblue" stroke="midnightblue" points="1418.4,-71.733 1428.25,-67.8133 1418.11,-64.7393 1418.4,-71.733"/>
</g>
<!-- Node41&#45;&gt;Node15 -->
<g id="edge125" class="edge"><title>Node41&#45;&gt;Node15</title>
<path fill="none" stroke="midnightblue" d="M1106.9,-321.192C1130.57,-318.415 1159.09,-315.274 1184.79,-313 1442.44,-290.203 1748.76,-273.386 1888.9,-266.261"/>
<polygon fill="midnightblue" stroke="midnightblue" points="1889.3,-269.746 1899.11,-265.745 1888.95,-262.755 1889.3,-269.746"/>
</g>
<!-- Node41&#45;&gt;Node18 -->
<g id="edge130" class="edge"><title>Node41&#45;&gt;Node18</title>
<path fill="none" stroke="midnightblue" d="M1004.73,-316.4C942.94,-302.967 840.756,-280.753 788.988,-269.499"/>
<polygon fill="midnightblue" stroke="midnightblue" points="789.551,-266.04 779.036,-267.335 788.064,-272.88 789.551,-266.04"/>
</g>
<!-- Node41&#45;&gt;Node21 -->
<g id="edge129" class="edge"><title>Node41&#45;&gt;Node21</title>
<path fill="none" stroke="midnightblue" d="M1037.57,-313.396C1023.82,-302.759 1005.01,-288.203 991.024,-277.381"/>
<polygon fill="midnightblue" stroke="midnightblue" points="993.08,-274.546 983.029,-271.195 988.796,-280.082 993.08,-274.546"/>
</g>
<!-- Node41&#45;&gt;Node22 -->
<g id="edge131" class="edge"><title>Node41&#45;&gt;Node22</title>
<path fill="none" stroke="midnightblue" d="M1073.59,-313.396C1086.88,-302.86 1105.02,-288.477 1118.63,-277.689"/>
<polygon fill="midnightblue" stroke="midnightblue" points="1121.16,-280.149 1126.82,-271.195 1116.81,-274.664 1121.16,-280.149"/>
</g>
<!-- Node42&#45;&gt;Node4 -->
<g id="edge134" class="edge"><title>Node42&#45;&gt;Node4</title>
<path fill="none" stroke="midnightblue" d="M449.177,-318.997C502.838,-303.126 623.007,-268.565 725.793,-246 979.666,-190.266 1291.62,-144.609 1380.88,-131.977"/>
<polygon fill="midnightblue" stroke="midnightblue" points="1381.45,-135.431 1390.86,-130.571 1380.47,-128.5 1381.45,-135.431"/>
</g>
<!-- Node42&#45;&gt;Node7 -->
<g id="edge136" class="edge"><title>Node42&#45;&gt;Node7</title>
<path fill="none" stroke="midnightblue" d="M469.921,-321.761C540.47,-313.288 674.466,-296.333 787.793,-277 855.757,-265.406 871.431,-254.952 939.793,-246 1207.76,-210.909 1283.84,-272.375 1546.79,-210 1580.69,-201.959 1586.13,-191.109 1618.79,-179 1669.01,-160.385 1687.55,-170.018 1733.79,-143 1751.17,-132.848 1748.34,-120.034 1766.79,-112 1821.71,-88.0837 2221.31,-73.5059 2374.89,-68.7345"/>
<polygon fill="midnightblue" stroke="midnightblue" points="2375.19,-72.227 2385.08,-68.4211 2374.98,-65.2303 2375.19,-72.227"/>
</g>
<!-- Node42&#45;&gt;Node20 -->
<g id="edge133" class="edge"><title>Node42&#45;&gt;Node20</title>
<path fill="none" stroke="midnightblue" d="M469.97,-324.602C661.886,-313.292 1356.84,-272.338 1498.49,-263.991"/>
<polygon fill="midnightblue" stroke="midnightblue" points="1498.98,-267.469 1508.75,-263.386 1498.57,-260.481 1498.98,-267.469"/>
</g>
<!-- Node43 -->
<g id="node43" class="node"><title>Node43</title>
<polygon fill="white" stroke="#bfbfbf" points="280.293,-252 280.293,-271 335.293,-271 335.293,-252 280.293,-252"/>
<text text-anchor="middle" x="307.793" y="-259" font-family="Helvetica,sans-Serif" font-size="10.00">iostream</text>
</g>
<!-- Node42&#45;&gt;Node43 -->
<g id="edge135" class="edge"><title>Node42&#45;&gt;Node43</title>
<path fill="none" stroke="midnightblue" d="M405.553,-318.734C386.577,-307.818 353.947,-289.049 331.646,-276.221"/>
<polygon fill="midnightblue" stroke="midnightblue" points="333.205,-273.08 322.791,-271.127 329.714,-279.147 333.205,-273.08"/>
</g>
<!-- Node44 -->
<g id="node44" class="node"><title>Node44</title>
<polygon fill="white" stroke="#bfbfbf" points="353.293,-252 353.293,-271 488.293,-271 488.293,-252 353.293,-252"/>
<text text-anchor="middle" x="420.793" y="-259" font-family="Helvetica,sans-Serif" font-size="10.00">xercesc/util/XMLString.hpp</text>
</g>
<!-- Node42&#45;&gt;Node44 -->
<g id="edge137" class="edge"><title>Node42&#45;&gt;Node44</title>
<path fill="none" stroke="midnightblue" d="M420.793,-318.734C420.793,-309.183 420.793,-293.618 420.793,-281.283"/>
<polygon fill="midnightblue" stroke="midnightblue" points="424.293,-281.127 420.793,-271.127 417.293,-281.127 424.293,-281.127"/>
</g>
<!-- Node45 -->
<g id="node45" class="node"><title>Node45</title>
<polygon fill="white" stroke="#bfbfbf" points="143.293,-252 143.293,-271 262.293,-271 262.293,-252 143.293,-252"/>
<text text-anchor="middle" x="202.793" y="-259" font-family="Helvetica,sans-Serif" font-size="10.00">xercesc/dom/DOM.hpp</text>
</g>
<!-- Node42&#45;&gt;Node45 -->
<g id="edge138" class="edge"><title>Node42&#45;&gt;Node45</title>
<path fill="none" stroke="midnightblue" d="M391.844,-318.869C353.136,-307.327 284.41,-286.835 241.348,-273.996"/>
<polygon fill="midnightblue" stroke="midnightblue" points="242.098,-270.567 231.514,-271.064 240.097,-277.275 242.098,-270.567"/>
</g>
<!-- Node46&#45;&gt;Node3 -->
<g id="edge143" class="edge"><title>Node46&#45;&gt;Node3</title>
<path fill="none" stroke="midnightblue" d="M2430.06,-631.723C2447.27,-584.769 2525.13,-363.505 2482.79,-313 2423.93,-242.778 2344.02,-342.351 2279.79,-277 2263.66,-260.583 2262.65,-232.673 2264.15,-214.162"/>
<polygon fill="midnightblue" stroke="midnightblue" points="2267.64,-214.365 2265.28,-204.037 2260.69,-213.584 2267.64,-214.365"/>
</g>
<!-- Node46&#45;&gt;Node7 -->
<g id="edge141" class="edge"><title>Node46&#45;&gt;Node7</title>
<path fill="none" stroke="midnightblue" d="M2495.35,-639.157C2656.17,-635.467 3047.83,-623.149 3096.79,-590 3148.64,-554.897 3158.79,-526.112 3158.79,-463.5 3158.79,-463.5 3158.79,-463.5 3158.79,-260.5 3158.79,-222.74 3159.72,-207.363 3134.79,-179 3086.06,-123.545 3054.35,-130.161 2982.79,-112 2891.76,-88.8969 2616.93,-74.724 2494.61,-69.4021"/>
<polygon fill="midnightblue" stroke="midnightblue" points="2494.46,-65.8922 2484.32,-68.9593 2494.16,-72.8858 2494.46,-65.8922"/>
</g>
<!-- Node46&#45;&gt;Node11 -->
<g id="edge140" class="edge"><title>Node46&#45;&gt;Node11</title>
<path fill="none" stroke="midnightblue" d="M2358.26,-635.296C2184.78,-620.805 1734.27,-574.552 1624.79,-478 1521.79,-387.16 1617.25,-296.883 1546.79,-179 1533.47,-156.716 1518.55,-161.935 1500.79,-143 1483.77,-124.846 1468.22,-100.664 1458.65,-84.5004"/>
<polygon fill="midnightblue" stroke="midnightblue" points="1461.53,-82.5036 1453.5,-75.598 1455.47,-86.0071 1461.53,-82.5036"/>
</g>
<!-- Node46&#45;&gt;Node33 -->
<g id="edge142" class="edge"><title>Node46&#45;&gt;Node33</title>
<path fill="none" stroke="midnightblue" d="M2441.41,-631.975C2458.15,-622.211 2485.8,-606.081 2505.51,-594.581"/>
<polygon fill="midnightblue" stroke="midnightblue" points="2507.33,-597.571 2514.21,-589.509 2503.8,-591.525 2507.33,-597.571"/>
</g>
<!-- Node47&#45;&gt;Node4 -->
<g id="edge147" class="edge"><title>Node47&#45;&gt;Node4</title>
<path fill="none" stroke="midnightblue" d="M112.691,-385.879C107.015,-360.273 94.3387,-284.092 133.793,-246 145.496,-234.701 1205.02,-145.347 1381.12,-130.567"/>
<polygon fill="midnightblue" stroke="midnightblue" points="1381.54,-134.044 1391.21,-129.721 1380.95,-127.069 1381.54,-134.044"/>
</g>
<!-- Node47&#45;&gt;Node10 -->
<g id="edge150" class="edge"><title>Node47&#45;&gt;Node10</title>
<path fill="none" stroke="midnightblue" d="M100.688,-385.68C88.0755,-376.879 70.4383,-362.082 62.7931,-344 45.8311,-303.883 37.8433,-281.701 62.7931,-246 117.613,-167.557 230.741,-141.316 306.966,-132.636"/>
<polygon fill="midnightblue" stroke="midnightblue" points="307.427,-136.107 317.001,-131.57 306.688,-129.146 307.427,-136.107"/>
</g>
<!-- Node47&#45;&gt;Node11 -->
<g id="edge146" class="edge"><title>Node47&#45;&gt;Node11</title>
<path fill="none" stroke="midnightblue" d="M111.127,-385.824C101.158,-360.713 76.582,-287.141 111.793,-246 216.398,-123.779 314.017,-213.142 458.793,-143 480.321,-132.57 480.167,-119.766 502.793,-112 590.973,-81.732 1265.45,-69.7748 1418.13,-67.4413"/>
<polygon fill="midnightblue" stroke="midnightblue" points="1418.26,-70.9398 1428.21,-67.2898 1418.16,-63.9406 1418.26,-70.9398"/>
</g>
<!-- Node47&#45;&gt;Node42 -->
<g id="edge149" class="edge"><title>Node47&#45;&gt;Node42</title>
<path fill="none" stroke="midnightblue" d="M155.112,-385.936C210.494,-374.171 310.078,-353.018 370.338,-340.218"/>
<polygon fill="midnightblue" stroke="midnightblue" points="371.331,-343.585 380.385,-338.083 369.876,-336.738 371.331,-343.585"/>
</g>
<!-- Node47&#45;&gt;Node45 -->
<g id="edge148" class="edge"><title>Node47&#45;&gt;Node45</title>
<path fill="none" stroke="midnightblue" d="M120.567,-385.839C134.927,-364.299 172.459,-308 191.445,-279.522"/>
<polygon fill="midnightblue" stroke="midnightblue" points="194.477,-281.283 197.112,-271.021 188.653,-277.4 194.477,-281.283"/>
</g>
<!-- Node48&#45;&gt;Node20 -->
<g id="edge161" class="edge"><title>Node48&#45;&gt;Node20</title>
<path fill="none" stroke="midnightblue" d="M2319.53,-699.853C2119.76,-678.326 1594.5,-610.007 1491.79,-478 1445.11,-418.007 1491.45,-319.399 1513.52,-279.777"/>
<polygon fill="midnightblue" stroke="midnightblue" points="1516.6,-281.449 1518.54,-271.033 1510.53,-277.964 1516.6,-281.449"/>
</g>
<!-- Node48&#45;&gt;Node21 -->
<g id="edge162" class="edge"><title>Node48&#45;&gt;Node21</title>
<path fill="none" stroke="midnightblue" d="M2319.61,-708.078C2103.56,-709.041 1496,-707.085 1303.79,-657 1114.93,-607.787 1080.86,-519.653 995.793,-344 985.973,-323.722 979.327,-298.627 975.564,-281.683"/>
<polygon fill="midnightblue" stroke="midnightblue" points="978.889,-280.485 973.415,-271.413 972.037,-281.918 978.889,-280.485"/>
</g>
<!-- Node48&#45;&gt;Node22 -->
<g id="edge163" class="edge"><title>Node48&#45;&gt;Node22</title>
<path fill="none" stroke="midnightblue" d="M2319.74,-705.643C2122.08,-700.533 1600.6,-684.764 1429.79,-657 1416.02,-654.762 1197.06,-600.432 1187.79,-590 1107.4,-499.455 1125.42,-336.349 1134.36,-281.259"/>
<polygon fill="midnightblue" stroke="midnightblue" points="1137.84,-281.657 1136.09,-271.208 1130.94,-280.469 1137.84,-281.657"/>
</g>
<!-- Node48&#45;&gt;Node33 -->
<g id="edge153" class="edge"><title>Node48&#45;&gt;Node33</title>
<path fill="none" stroke="midnightblue" d="M2431.31,-698.983C2454.75,-691.537 2484.82,-678.471 2503.79,-657 2517.99,-640.933 2524.16,-616.607 2526.82,-599.825"/>
<polygon fill="midnightblue" stroke="midnightblue" points="2530.33,-599.976 2528.15,-589.607 2523.38,-599.069 2530.33,-599.976"/>
</g>
<!-- Node48&#45;&gt;Node46 -->
<g id="edge152" class="edge"><title>Node48&#45;&gt;Node46</title>
<path fill="none" stroke="midnightblue" d="M2400.84,-698.734C2405.34,-688.988 2412.73,-672.981 2418.47,-660.532"/>
<polygon fill="midnightblue" stroke="midnightblue" points="2421.8,-661.674 2422.81,-651.127 2415.44,-658.74 2421.8,-661.674"/>
</g>
<!-- Node49 -->
<g id="node49" class="node"><title>Node49</title>
<g id="a_node49"><a xlink:href="_logging_impl_8h.html" target="_top" xlink:title="uscxml/interpreter\l/LoggingImpl.h">
<polygon fill="white" stroke="black" points="2652.79,-380.5 2652.79,-410.5 2748.79,-410.5 2748.79,-380.5 2652.79,-380.5"/>
<text text-anchor="start" x="2660.79" y="-398.5" font-family="Helvetica,sans-Serif" font-size="10.00">uscxml/interpreter</text>
<text text-anchor="middle" x="2700.79" y="-387.5" font-family="Helvetica,sans-Serif" font-size="10.00">/LoggingImpl.h</text>
</a>
</g>
</g>
<!-- Node48&#45;&gt;Node49 -->
<g id="edge154" class="edge"><title>Node48&#45;&gt;Node49</title>
<path fill="none" stroke="midnightblue" d="M2473.98,-706.532C2639.02,-702.659 3017.64,-683.542 3096.79,-590 3196.75,-471.869 2891.66,-419.624 2759.09,-402.889"/>
<polygon fill="midnightblue" stroke="midnightblue" points="2759.44,-399.406 2749.09,-401.653 2758.59,-406.353 2759.44,-399.406"/>
</g>
<!-- Node50 -->
<g id="node50" class="node"><title>Node50</title>
<polygon fill="white" stroke="#bfbfbf" points="3186.79,-632 3186.79,-651 3230.79,-651 3230.79,-632 3186.79,-632"/>
<text text-anchor="middle" x="3208.79" y="-639" font-family="Helvetica,sans-Serif" font-size="10.00">time.h</text>
</g>
<!-- Node48&#45;&gt;Node50 -->
<g id="edge160" class="edge"><title>Node48&#45;&gt;Node50</title>
<path fill="none" stroke="midnightblue" d="M2474,-705.585C2643.07,-700.887 3041.4,-686.926 3172.79,-657 3175.63,-656.355 3178.53,-655.515 3181.39,-654.566"/>
<polygon fill="midnightblue" stroke="midnightblue" points="3182.7,-657.813 3190.84,-651.033 3180.25,-651.256 3182.7,-657.813"/>
</g>
<!-- Node49&#45;&gt;Node3 -->
<g id="edge158" class="edge"><title>Node49&#45;&gt;Node3</title>
<path fill="none" stroke="midnightblue" d="M2709.18,-380.113C2725.01,-350.858 2754.8,-283.994 2720.79,-246 2695.97,-218.266 2463.43,-204.051 2341.15,-198.442"/>
<polygon fill="midnightblue" stroke="midnightblue" points="2341.26,-194.943 2331.11,-197.989 2340.94,-201.936 2341.26,-194.943"/>
</g>
<!-- Node49&#45;&gt;Node7 -->
<g id="edge156" class="edge"><title>Node49&#45;&gt;Node7</title>
<path fill="none" stroke="midnightblue" d="M2718.42,-380.13C2728.23,-370.958 2739.49,-358.157 2744.79,-344 2751.2,-326.889 2753.57,-259.685 2742.79,-246 2705.17,-198.231 2664.74,-238.062 2610.79,-210 2550.31,-178.54 2545.95,-154.678 2492.79,-112 2479.96,-101.7 2465.32,-90.345 2453.96,-81.6181"/>
<polygon fill="midnightblue" stroke="midnightblue" points="2456.07,-78.8197 2446,-75.5179 2451.81,-84.3771 2456.07,-78.8197"/>
</g>
<!-- Node49&#45;&gt;Node15 -->
<g id="edge159" class="edge"><title>Node49&#45;&gt;Node15</title>
<path fill="none" stroke="midnightblue" d="M2652.64,-392.378C2575.17,-388.122 2418.51,-376.029 2289.79,-344 2252.39,-334.692 2245.78,-323.845 2208.79,-313 2174.35,-302.9 2081.81,-284.557 2021.39,-272.977"/>
<polygon fill="midnightblue" stroke="midnightblue" points="2021.72,-269.478 2011.24,-271.039 2020.4,-276.353 2021.72,-269.478"/>
</g>
<!-- Node49&#45;&gt;Node29 -->
<g id="edge157" class="edge"><title>Node49&#45;&gt;Node29</title>
<path fill="none" stroke="midnightblue" d="M2683.43,-380.396C2672.53,-371.538 2658.28,-359.96 2646.13,-350.086"/>
<polygon fill="midnightblue" stroke="midnightblue" points="2648.09,-347.166 2638.12,-343.577 2643.67,-352.599 2648.09,-347.166"/>
</g>
<!-- Node49&#45;&gt;Node30 -->
<g id="edge155" class="edge"><title>Node49&#45;&gt;Node30</title>
<path fill="none" stroke="midnightblue" d="M2697.48,-380.374C2691.84,-356.397 2680.42,-307.748 2674.15,-281.056"/>
<polygon fill="midnightblue" stroke="midnightblue" points="2677.51,-280.032 2671.81,-271.097 2670.69,-281.633 2677.51,-280.032"/>
</g>
</g>
</svg>
        <g id="navigator" transform="translate(0 0)" fill="#404254">
                <rect fill="#f2f5e9" fill-opacity="0.5" stroke="#606060" stroke-width=".5" x="0" y="0" width="60" height="60"/>
                <use id="zoomplus" xlink:href="#zoomPlus" x="17" y="9" onmousedown="handleZoom(evt,'in')"/>
                <use id="zoomminus" xlink:href="#zoomMin" x="42" y="9" onmousedown="handleZoom(evt,'out')"/>
                <use id="reset" xlink:href="#resetDef" x="30" y="36" onmousedown="handleReset()"/>
                <g id="arrowUp" xlink:href="#dirArrow" transform="translate(30 24)" onmousedown="handlePan(0,-1)">
                  <use xlink:href="#rim" fill="#404040">
                        <set attributeName="fill" to="#808080" begin="arrowUp.mouseover" end="arrowUp.mouseout"/>
                  </use>
                  <path fill="none" stroke="white" stroke-width="1.5" d="M0,-3.0v7 M-2.5,-0.5L0,-3.0L2.5,-0.5"/>
                </g>
                <g id="arrowRight" xlink:href="#dirArrow" transform="rotate(90) translate(36 -43)" onmousedown="handlePan(1,0)">
                  <use xlink:href="#rim" fill="#404040">
                        <set attributeName="fill" to="#808080" begin="arrowRight.mouseover" end="arrowRight.mouseout"/>
                  </use>
                  <path fill="none" stroke="white" stroke-width="1.5" d="M0,-3.0v7 M-2.5,-0.5L0,-3.0L2.5,-0.5"/>
                </g>
                <g id="arrowDown" xlink:href="#dirArrow" transform="rotate(180) translate(-30 -48)" onmousedown="handlePan(0,1)">
                  <use xlink:href="#rim" fill="#404040">
                        <set attributeName="fill" to="#808080" begin="arrowDown.mouseover" end="arrowDown.mouseout"/>
                  </use>
                  <path fill="none" stroke="white" stroke-width="1.5" d="M0,-3.0v7 M-2.5,-0.5L0,-3.0L2.5,-0.5"/>
                </g>
                <g id="arrowLeft" xlink:href="#dirArrow" transform="rotate(270) translate(-36 17)" onmousedown="handlePan(-1,0)">
                  <use xlink:href="#rim" fill="#404040">
                        <set attributeName="fill" to="#808080" begin="arrowLeft.mouseover" end="arrowLeft.mouseout"/>
                  </use>
                  <path fill="none" stroke="white" stroke-width="1.5" d="M0,-3.0v7 M-2.5,-0.5L0,-3.0L2.5,-0.5"/>
                </g>
        </g>
        <svg viewBox="0 0 15 15" width="100%" height="30px" preserveAspectRatio="xMaxYMin meet">
         <g id="arrow_out" transform="scale(0.3 0.3)">
          <a xlink:href="_debugger_8cpp__incl_org.svg" target="_base">
           <rect id="button" ry="5" rx="5" y="6" x="6" height="38" width="38"
                fill="#f2f5e9" fill-opacity="0.5" stroke="#606060" stroke-width="1.0"/>
           <path id="arrow"
             d="M 11.500037,31.436501 C 11.940474,20.09759 22.043105,11.32322 32.158766,21.979434 L 37.068811,17.246167 C 37.068811,17.246167 37.088388,32 37.088388,32 L 22.160133,31.978069 C 22.160133,31.978069 26.997745,27.140456 26.997745,27.140456 C 18.528582,18.264221 13.291696,25.230495 11.500037,31.436501 z"
             style="fill:#404040;"/>
          </a>
         </g>
        </svg>
</svg>
