<?xml version="1.0" encoding="UTF-8" standalone="no"?>
<!DOCTYPE svg PUBLIC "-//W3C//DTD SVG 1.1//EN"
 "http://www.w3.org/Graphics/SVG/1.1/DTD/svg11.dtd">
<!-- Generated by graphviz version 2.40.1 (20161225.0304)
 -->
<!-- Title: debug/DebugSession.cpp Pages: 1 -->
<svg width="3344pt" height="654pt"
 viewBox="0.00 0.00 3344.00 654.00" xmlns="http://www.w3.org/2000/svg" xmlns:xlink="http://www.w3.org/1999/xlink">
<g id="graph0" class="graph" transform="scale(1 1) rotate(0) translate(4 650)">
<title>debug/DebugSession.cpp</title>
<polygon fill="#ffffff" stroke="transparent" points="-4,4 -4,-650 3340,-650 3340,4 -4,4"/>
<!-- Node1 -->
<g id="node1" class="node">
<title>Node1</title>
<polygon fill="#bfbfbf" stroke="#000000" points="1221.5,-626.5 1221.5,-645.5 1352.5,-645.5 1352.5,-626.5 1221.5,-626.5"/>
<text text-anchor="middle" x="1287" y="-633.5" font-family="Helvetica,sans-Serif" font-size="10.00" fill="#000000">debug/DebugSession.cpp</text>
</g>
<!-- Node2 -->
<g id="node2" class="node">
<title>Node2</title>
<g id="a_node2"><a xlink:href="$_debug_session_8h.html" xlink:title="uscxml/debug/DebugSession.h">
<polygon fill="#ffffff" stroke="#000000" points="1268,-509 1268,-528 1422,-528 1422,-509 1268,-509"/>
<text text-anchor="middle" x="1345" y="-516" font-family="Helvetica,sans-Serif" font-size="10.00" fill="#000000">uscxml/debug/DebugSession.h</text>
</a>
</g>
</g>
<!-- Node1&#45;&gt;Node2 -->
<g id="edge1" class="edge">
<title>Node1&#45;&gt;Node2</title>
<path fill="none" stroke="#191970" d="M1293.7414,-626.4252C1299.9803,-617.3193 1309.2789,-603.1044 1316,-590 1324.7562,-572.9278 1332.7925,-552.5766 1338.1734,-537.9601"/>
<polygon fill="#191970" stroke="#191970" points="1341.4995,-539.0539 1341.5945,-528.4595 1334.9135,-536.6822 1341.4995,-539.0539"/>
</g>
<!-- Node21 -->
<g id="node21" class="node">
<title>Node21</title>
<g id="a_node21"><a xlink:href="$_logging_8h.html" xlink:title="uscxml/interpreter\l/Logging.h">
<polygon fill="#ffffff" stroke="#000000" points="508,-302.5 508,-332.5 604,-332.5 604,-302.5 508,-302.5"/>
<text text-anchor="start" x="516" y="-320.5" font-family="Helvetica,sans-Serif" font-size="10.00" fill="#000000">uscxml/interpreter</text>
<text text-anchor="middle" x="556" y="-309.5" font-family="Helvetica,sans-Serif" font-size="10.00" fill="#000000">/Logging.h</text>
</a>
</g>
</g>
<!-- Node1&#45;&gt;Node21 -->
<g id="edge161" class="edge">
<title>Node1&#45;&gt;Node21</title>
<path fill="none" stroke="#191970" d="M1221.487,-629.8015C1008.8213,-609.0286 347.9483,-539.1129 287,-467 278.1063,-456.4772 279.4734,-447.5402 287,-436 311.2295,-398.8501 426.5757,-357.5163 498.1311,-334.8081"/>
<polygon fill="#191970" stroke="#191970" points="499.4331,-338.0677 507.9232,-331.7298 497.3338,-331.3899 499.4331,-338.0677"/>
</g>
<!-- Node36 -->
<g id="node36" class="node">
<title>Node36</title>
<g id="a_node36"><a xlink:href="$_debugger_8h.html" xlink:title="uscxml/debug/Debugger.h">
<polygon fill="#ffffff" stroke="#000000" points="1173.5,-570.5 1173.5,-589.5 1306.5,-589.5 1306.5,-570.5 1173.5,-570.5"/>
<text text-anchor="middle" x="1240" y="-577.5" font-family="Helvetica,sans-Serif" font-size="10.00" fill="#000000">uscxml/debug/Debugger.h</text>
</a>
</g>
</g>
<!-- Node1&#45;&gt;Node36 -->
<g id="edge80" class="edge">
<title>Node1&#45;&gt;Node36</title>
<path fill="none" stroke="#191970" d="M1278.8132,-626.2455C1272.1411,-618.2958 1262.5521,-606.8706 1254.5747,-597.3656"/>
<polygon fill="#191970" stroke="#191970" points="1257.2026,-595.0524 1248.093,-589.6427 1251.8408,-599.5525 1257.2026,-595.0524"/>
</g>
<!-- Node47 -->
<g id="node47" class="node">
<title>Node47</title>
<g id="a_node47"><a xlink:href="$_predicates_8h.html" xlink:title="uscxml/util/Predicates.h">
<polygon fill="#ffffff" stroke="#000000" points="2980,-308 2980,-327 3102,-327 3102,-308 2980,-308"/>
<text text-anchor="middle" x="3041" y="-315" font-family="Helvetica,sans-Serif" font-size="10.00" fill="#000000">uscxml/util/Predicates.h</text>
</a>
</g>
</g>
<!-- Node1&#45;&gt;Node47 -->
<g id="edge149" class="edge">
<title>Node1&#45;&gt;Node47</title>
<path fill="none" stroke="#191970" d="M1352.7439,-634.9522C1665.0846,-629.5515 2984,-601.8135 2984,-518.5 2984,-518.5 2984,-518.5 2984,-451.5 2984,-407.1138 3010.81,-360.5826 3027.6563,-335.7256"/>
<polygon fill="#191970" stroke="#191970" points="3030.6801,-337.5091 3033.5482,-327.3099 3024.9458,-333.4944 3030.6801,-337.5091"/>
</g>
<!-- Node3 -->
<g id="node3" class="node">
<title>Node3</title>
<g id="a_node3"><a xlink:href="$_breakpoint_8h.html" xlink:title="uscxml/debug/Breakpoint.h">
<polygon fill="#ffffff" stroke="#000000" points="428.5,-442 428.5,-461 565.5,-461 565.5,-442 428.5,-442"/>
<text text-anchor="middle" x="497" y="-449" font-family="Helvetica,sans-Serif" font-size="10.00" fill="#000000">uscxml/debug/Breakpoint.h</text>
</a>
</g>
</g>
<!-- Node2&#45;&gt;Node3 -->
<g id="edge2" class="edge">
<title>Node2&#45;&gt;Node3</title>
<path fill="none" stroke="#191970" d="M1267.8896,-516.3022C1129.5876,-511.6948 830.4173,-498.7002 580,-467 571.23,-465.8898 561.9861,-464.4426 552.9782,-462.8786"/>
<polygon fill="#191970" stroke="#191970" points="553.4076,-459.3998 542.9461,-461.0751 552.169,-466.2894 553.4076,-459.3998"/>
</g>
<!-- Node8 -->
<g id="node8" class="node">
<title>Node8</title>
<g id="a_node8"><a xlink:href="$_interpreter_8h.html" xlink:title="uscxml/Interpreter.h">
<polygon fill="#ffffff" stroke="#000000" points="519.5,-375 519.5,-394 624.5,-394 624.5,-375 519.5,-375"/>
<text text-anchor="middle" x="572" y="-382" font-family="Helvetica,sans-Serif" font-size="10.00" fill="#000000">uscxml/Interpreter.h</text>
</a>
</g>
</g>
<!-- Node2&#45;&gt;Node8 -->
<g id="edge68" class="edge">
<title>Node2&#45;&gt;Node8</title>
<path fill="none" stroke="#191970" d="M1267.7264,-515.7147C1099.458,-509.2203 710.5597,-491.7256 656,-467 624.8396,-452.8786 598.5194,-421.9591 584.0293,-402.2418"/>
<polygon fill="#191970" stroke="#191970" points="586.8719,-400.1997 578.2293,-394.0714 581.1639,-404.2517 586.8719,-400.1997"/>
</g>
<!-- Node27 -->
<g id="node27" class="node">
<title>Node27</title>
<polygon fill="#ffffff" stroke="#bfbfbf" points="1812,-174 1812,-193 1842,-193 1842,-174 1812,-174"/>
<text text-anchor="middle" x="1827" y="-181" font-family="Helvetica,sans-Serif" font-size="10.00" fill="#000000">set</text>
</g>
<!-- Node2&#45;&gt;Node27 -->
<g id="edge76" class="edge">
<title>Node2&#45;&gt;Node27</title>
<path fill="none" stroke="#191970" d="M1422.0389,-517.4235C1573.6735,-514.5021 1899.1437,-503.9512 1933,-467 1959.4079,-438.1781 1988.2596,-431.1983 1908,-302 1893.9284,-279.3482 1876.221,-287.1658 1860,-266 1845.4686,-247.0389 1836.4423,-220.8287 1831.5782,-203.0779"/>
<polygon fill="#191970" stroke="#191970" points="1834.937,-202.0849 1829.0755,-193.2593 1828.1539,-203.8139 1834.937,-202.0849"/>
</g>
<!-- Node30 -->
<g id="node30" class="node">
<title>Node30</title>
<g id="a_node30"><a xlink:href="$_logging_impl_8h.html" xlink:title="uscxml/interpreter\l/LoggingImpl.h">
<polygon fill="#ffffff" stroke="#000000" points="180,-369.5 180,-399.5 276,-399.5 276,-369.5 180,-369.5"/>
<text text-anchor="start" x="188" y="-387.5" font-family="Helvetica,sans-Serif" font-size="10.00" fill="#000000">uscxml/interpreter</text>
<text text-anchor="middle" x="228" y="-376.5" font-family="Helvetica,sans-Serif" font-size="10.00" fill="#000000">/LoggingImpl.h</text>
</a>
</g>
</g>
<!-- Node2&#45;&gt;Node30 -->
<g id="edge69" class="edge">
<title>Node2&#45;&gt;Node30</title>
<path fill="none" stroke="#191970" d="M1267.9828,-515.9061C1091.7069,-509.5688 669.49,-491.9706 610,-467 590.8396,-458.9575 593.835,-444.7776 575,-436 524.8712,-412.6386 371.2214,-396.5039 286.1652,-389.1001"/>
<polygon fill="#191970" stroke="#191970" points="286.4067,-385.6081 276.1441,-388.2406 285.8084,-392.5824 286.4067,-385.6081"/>
</g>
<!-- Node32 -->
<g id="node32" class="node">
<title>Node32</title>
<polygon fill="#ffffff" stroke="#bfbfbf" points="296,-442 296,-461 340,-461 340,-442 296,-442"/>
<text text-anchor="middle" x="318" y="-449" font-family="Helvetica,sans-Serif" font-size="10.00" fill="#000000">time.h</text>
</g>
<!-- Node2&#45;&gt;Node32 -->
<g id="edge75" class="edge">
<title>Node2&#45;&gt;Node32</title>
<path fill="none" stroke="#191970" d="M1267.9702,-518.0054C1066.4551,-516.1518 527.3312,-507.4461 354,-467 351.3576,-466.3834 348.665,-465.5828 346.0018,-464.6706"/>
<polygon fill="#191970" stroke="#191970" points="347.2166,-461.3876 336.6286,-461.0065 344.668,-467.9072 347.2166,-461.3876"/>
</g>
<!-- Node33 -->
<g id="node33" class="node">
<title>Node33</title>
<polygon fill="#ffffff" stroke="#bfbfbf" points="2400.5,-241 2400.5,-260 2445.5,-260 2445.5,-241 2400.5,-241"/>
<text text-anchor="middle" x="2423" y="-248" font-family="Helvetica,sans-Serif" font-size="10.00" fill="#000000">thread</text>
</g>
<!-- Node2&#45;&gt;Node33 -->
<g id="edge77" class="edge">
<title>Node2&#45;&gt;Node33</title>
<path fill="none" stroke="#191970" d="M1422.0672,-514.6997C1573.3191,-506.8927 1904.0391,-488.008 2016,-467 2116.8764,-448.0718 2140.1687,-434.0296 2237,-400 2312.4493,-373.4848 2352.0041,-393.7625 2404,-333 2418.9568,-315.5215 2422.7269,-288.5771 2423.3983,-270.2749"/>
<polygon fill="#191970" stroke="#191970" points="2426.8991,-270.1887 2423.4883,-260.1579 2419.8994,-270.1263 2426.8991,-270.1887"/>
</g>
<!-- Node34 -->
<g id="node34" class="node">
<title>Node34</title>
<polygon fill="#ffffff" stroke="#bfbfbf" points="2463.5,-241 2463.5,-260 2560.5,-260 2560.5,-241 2463.5,-241"/>
<text text-anchor="middle" x="2512" y="-248" font-family="Helvetica,sans-Serif" font-size="10.00" fill="#000000">condition_variable</text>
</g>
<!-- Node2&#45;&gt;Node34 -->
<g id="edge78" class="edge">
<title>Node2&#45;&gt;Node34</title>
<path fill="none" stroke="#191970" d="M1422.0231,-515.3664C1585.7004,-508.3495 1963.5066,-490.1569 2090,-467 2191.3775,-448.441 2217.6509,-441.4738 2312,-400 2365.4504,-376.5044 2378.4146,-368.1964 2425,-333 2451.9325,-312.6518 2479.654,-284.9787 2496.3578,-267.4256"/>
<polygon fill="#191970" stroke="#191970" points="2498.9129,-269.8176 2503.2148,-260.1355 2493.814,-265.0216 2498.9129,-269.8176"/>
</g>
<!-- Node35 -->
<g id="node35" class="node">
<title>Node35</title>
<polygon fill="#ffffff" stroke="#bfbfbf" points="2693,-241 2693,-260 2737,-260 2737,-241 2693,-241"/>
<text text-anchor="middle" x="2715" y="-248" font-family="Helvetica,sans-Serif" font-size="10.00" fill="#000000">mutex</text>
</g>
<!-- Node2&#45;&gt;Node35 -->
<g id="edge79" class="edge">
<title>Node2&#45;&gt;Node35</title>
<path fill="none" stroke="#191970" d="M1422.2205,-515.8904C1598.7834,-509.5651 2027.6967,-492.0689 2170,-467 2377.6127,-430.4259 2441.4486,-436.6802 2625,-333 2655.4085,-315.8235 2683.956,-286.5823 2700.4415,-267.9216"/>
<polygon fill="#191970" stroke="#191970" points="2703.2449,-270.0302 2707.1305,-260.1736 2697.9463,-265.4558 2703.2449,-270.0302"/>
</g>
<!-- Node4 -->
<g id="node4" class="node">
<title>Node4</title>
<polygon fill="#ffffff" stroke="#bfbfbf" points="2164.5,-56.5 2164.5,-75.5 2205.5,-75.5 2205.5,-56.5 2164.5,-56.5"/>
<text text-anchor="middle" x="2185" y="-63.5" font-family="Helvetica,sans-Serif" font-size="10.00" fill="#000000">string</text>
</g>
<!-- Node3&#45;&gt;Node4 -->
<g id="edge3" class="edge">
<title>Node3&#45;&gt;Node4</title>
<path fill="none" stroke="#191970" d="M565.5141,-448.5979C800.4316,-438.0876 1563.603,-399.1104 1650,-333 1735.1882,-267.8145 1660.3836,-175.2754 1747,-112 1779.8085,-88.0326 2060.0949,-72.153 2154.2765,-67.4538"/>
<polygon fill="#191970" stroke="#191970" points="2154.4955,-70.9474 2164.3116,-66.9605 2154.1518,-63.9558 2154.4955,-70.9474"/>
</g>
<!-- Node5 -->
<g id="node5" class="node">
<title>Node5</title>
<g id="a_node5"><a xlink:href="$_common_8h.html" xlink:title="uscxml/Common.h">
<polygon fill="#ffffff" stroke="#000000" points="934.5,-56.5 934.5,-75.5 1033.5,-75.5 1033.5,-56.5 934.5,-56.5"/>
<text text-anchor="middle" x="984" y="-63.5" font-family="Helvetica,sans-Serif" font-size="10.00" fill="#000000">uscxml/Common.h</text>
</a>
</g>
</g>
<!-- Node3&#45;&gt;Node5 -->
<g id="edge4" class="edge">
<title>Node3&#45;&gt;Node5</title>
<path fill="none" stroke="#191970" d="M428.3028,-442.0743C331.5467,-428.6393 166.3286,-405.0449 162,-400 115.8086,-346.1649 257.598,-182.0801 268,-168 287.8263,-141.1634 288.0353,-126.6766 318,-112 371.6403,-85.7272 770.7251,-71.9395 924.1507,-67.5653"/>
<polygon fill="#191970" stroke="#191970" points="924.4328,-71.0589 934.3303,-67.2787 924.2357,-64.0617 924.4328,-71.0589"/>
</g>
<!-- Node3&#45;&gt;Node8 -->
<g id="edge7" class="edge">
<title>Node3&#45;&gt;Node8</title>
<path fill="none" stroke="#191970" d="M507.7457,-441.9005C519.664,-431.2535 539.1057,-413.8856 553.4868,-401.0385"/>
<polygon fill="#191970" stroke="#191970" points="556.1484,-403.354 561.2743,-394.0817 551.4849,-398.1337 556.1484,-403.354"/>
</g>
<!-- Node14 -->
<g id="node14" class="node">
<title>Node14</title>
<g id="a_node14"><a xlink:href="$_data_8h.html" xlink:title="uscxml/messages/Data.h">
<polygon fill="#ffffff" stroke="#000000" points="611,-174 611,-193 739,-193 739,-174 611,-174"/>
<text text-anchor="middle" x="675" y="-181" font-family="Helvetica,sans-Serif" font-size="10.00" fill="#000000">uscxml/messages/Data.h</text>
</a>
</g>
</g>
<!-- Node3&#45;&gt;Node14 -->
<g id="edge67" class="edge">
<title>Node3&#45;&gt;Node14</title>
<path fill="none" stroke="#191970" d="M429.7554,-441.9863C335.5428,-428.5012 175.199,-404.9145 171,-400 162.05,-389.5251 165.3301,-381.557 171,-369 208.0615,-286.9204 241.2869,-272.8627 323,-235 370.9745,-212.7704 512.2372,-197.2388 600.5393,-189.3895"/>
<polygon fill="#191970" stroke="#191970" points="601.1135,-192.8527 610.7699,-188.4934 600.5026,-185.8794 601.1135,-192.8527"/>
</g>
<!-- Node6 -->
<g id="node6" class="node">
<title>Node6</title>
<polygon fill="#ffffff" stroke="#bfbfbf" points="910,-.5 910,-19.5 982,-19.5 982,-.5 910,-.5"/>
<text text-anchor="middle" x="946" y="-7.5" font-family="Helvetica,sans-Serif" font-size="10.00" fill="#000000">sys/socket.h</text>
</g>
<!-- Node5&#45;&gt;Node6 -->
<g id="edge5" class="edge">
<title>Node5&#45;&gt;Node6</title>
<path fill="none" stroke="#191970" d="M977.3809,-56.2455C972.0954,-48.4564 964.5459,-37.3308 958.1762,-27.9439"/>
<polygon fill="#191970" stroke="#191970" points="961.0545,-25.9522 952.5432,-19.6427 955.2621,-29.8827 961.0545,-25.9522"/>
</g>
<!-- Node7 -->
<g id="node7" class="node">
<title>Node7</title>
<polygon fill="#ffffff" stroke="#bfbfbf" points="1000,-.5 1000,-19.5 1044,-19.5 1044,-.5 1000,-.5"/>
<text text-anchor="middle" x="1022" y="-7.5" font-family="Helvetica,sans-Serif" font-size="10.00" fill="#000000">cmath</text>
</g>
<!-- Node5&#45;&gt;Node7 -->
<g id="edge6" class="edge">
<title>Node5&#45;&gt;Node7</title>
<path fill="none" stroke="#191970" d="M990.6191,-56.2455C995.9046,-48.4564 1003.4541,-37.3308 1009.8238,-27.9439"/>
<polygon fill="#191970" stroke="#191970" points="1012.7379,-29.8827 1015.4568,-19.6427 1006.9455,-25.9522 1012.7379,-29.8827"/>
</g>
<!-- Node8&#45;&gt;Node4 -->
<g id="edge10" class="edge">
<title>Node8&#45;&gt;Node4</title>
<path fill="none" stroke="#191970" d="M624.7956,-380.121C667.0332,-376.7297 727.7872,-372.1019 781,-369 828.0736,-366.2559 1596.3722,-367.0424 1629,-333 1680.322,-279.453 1580.5453,-238.3641 1604,-168 1613.8382,-138.4854 1618.7907,-127.0849 1646,-112 1690.5197,-87.3182 2046.217,-71.4497 2154.094,-67.169"/>
<polygon fill="#191970" stroke="#191970" points="2154.4537,-70.6577 2164.309,-66.7691 2154.1798,-63.6631 2154.4537,-70.6577"/>
</g>
<!-- Node8&#45;&gt;Node5 -->
<g id="edge8" class="edge">
<title>Node8&#45;&gt;Node5</title>
<path fill="none" stroke="#191970" d="M519.2966,-377.9327C461.1246,-369.7594 372.2295,-354.2432 346,-333 288.2545,-286.2321 280.6794,-231.6656 319,-168 343.6854,-126.9879 365.4642,-126.7597 411,-112 505.0721,-81.5081 796.8859,-70.6588 923.9075,-67.3134"/>
<polygon fill="#191970" stroke="#191970" points="924.3145,-70.8042 934.2214,-67.0487 924.1349,-63.8065 924.3145,-70.8042"/>
</g>
<!-- Node9 -->
<g id="node9" class="node">
<title>Node9</title>
<polygon fill="#ffffff" stroke="#bfbfbf" points="2338,-112.5 2338,-131.5 2374,-131.5 2374,-112.5 2338,-112.5"/>
<text text-anchor="middle" x="2356" y="-119.5" font-family="Helvetica,sans-Serif" font-size="10.00" fill="#000000">map</text>
</g>
<!-- Node8&#45;&gt;Node9 -->
<g id="edge9" class="edge">
<title>Node8&#45;&gt;Node9</title>
<path fill="none" stroke="#191970" d="M624.7928,-380.0732C667.0289,-376.6551 727.7822,-372.0148 781,-369 1096.8781,-351.1053 1914.8563,-400.9852 2201,-266 2217.5229,-258.2055 2301.9806,-175.5532 2338.8011,-139.1039"/>
<polygon fill="#191970" stroke="#191970" points="2341.6521,-141.2059 2346.2879,-131.6791 2336.7229,-136.2356 2341.6521,-141.2059"/>
</g>
<!-- Node10 -->
<g id="node10" class="node">
<title>Node10</title>
<polygon fill="#ffffff" stroke="#bfbfbf" points="446,-308 446,-327 490,-327 490,-308 446,-308"/>
<text text-anchor="middle" x="468" y="-315" font-family="Helvetica,sans-Serif" font-size="10.00" fill="#000000">vector</text>
</g>
<!-- Node8&#45;&gt;Node10 -->
<g id="edge11" class="edge">
<title>Node8&#45;&gt;Node10</title>
<path fill="none" stroke="#191970" d="M557.0993,-374.9005C539.9547,-363.8554 511.5832,-345.5776 491.4655,-332.6172"/>
<polygon fill="#191970" stroke="#191970" points="493.1751,-329.5552 482.873,-327.0817 489.384,-335.4397 493.1751,-329.5552"/>
</g>
<!-- Node11 -->
<g id="node11" class="node">
<title>Node11</title>
<g id="a_node11"><a xlink:href="$_micro_step_8h.html" xlink:title="uscxml/interpreter\l/MicroStep.h">
<polygon fill="#ffffff" stroke="#000000" points="332,-235.5 332,-265.5 428,-265.5 428,-235.5 332,-235.5"/>
<text text-anchor="start" x="340" y="-253.5" font-family="Helvetica,sans-Serif" font-size="10.00" fill="#000000">uscxml/interpreter</text>
<text text-anchor="middle" x="380" y="-242.5" font-family="Helvetica,sans-Serif" font-size="10.00" fill="#000000">/MicroStep.h</text>
</a>
</g>
</g>
<!-- Node8&#45;&gt;Node11 -->
<g id="edge12" class="edge">
<title>Node8&#45;&gt;Node11</title>
<path fill="none" stroke="#191970" d="M519.1625,-375.2148C489.4666,-367.828 453.2166,-354.953 427,-333 408.7652,-317.7308 396.1554,-293.4674 388.6223,-275.1982"/>
<polygon fill="#191970" stroke="#191970" points="391.8396,-273.8145 384.956,-265.7605 385.3147,-276.3493 391.8396,-273.8145"/>
</g>
<!-- Node20 -->
<g id="node20" class="node">
<title>Node20</title>
<g id="a_node20"><a xlink:href="$_interpreter_state_8h.html" xlink:title="uscxml/interpreter\l/InterpreterState.h">
<polygon fill="#ffffff" stroke="#000000" points="328.5,-168.5 328.5,-198.5 425.5,-198.5 425.5,-168.5 328.5,-168.5"/>
<text text-anchor="start" x="336.5" y="-186.5" font-family="Helvetica,sans-Serif" font-size="10.00" fill="#000000">uscxml/interpreter</text>
<text text-anchor="middle" x="377" y="-175.5" font-family="Helvetica,sans-Serif" font-size="10.00" fill="#000000">/InterpreterState.h</text>
</a>
</g>
</g>
<!-- Node8&#45;&gt;Node20 -->
<g id="edge66" class="edge">
<title>Node8&#45;&gt;Node20</title>
<path fill="none" stroke="#191970" d="M519.2928,-378.7051C456.7635,-368.5013 356.7392,-340.7217 323,-266 317.3301,-253.443 317.5771,-247.6657 323,-235 327.9397,-223.4629 336.8737,-213.2827 346.0716,-205.0845"/>
<polygon fill="#191970" stroke="#191970" points="348.3256,-207.7622 353.778,-198.678 343.8507,-202.3793 348.3256,-207.7622"/>
</g>
<!-- Node8&#45;&gt;Node21 -->
<g id="edge34" class="edge">
<title>Node8&#45;&gt;Node21</title>
<path fill="none" stroke="#191970" d="M569.7076,-374.9005C567.6832,-366.4234 564.6413,-353.6856 561.9371,-342.3614"/>
<polygon fill="#191970" stroke="#191970" points="565.3144,-341.4353 559.5873,-332.5218 558.5058,-343.0613 565.3144,-341.4353"/>
</g>
<!-- Node24 -->
<g id="node24" class="node">
<title>Node24</title>
<g id="a_node24"><a xlink:href="$_data_model_8h.html" xlink:title="uscxml/plugins/DataModel.h">
<polygon fill="#ffffff" stroke="#000000" points="736,-308 736,-327 878,-327 878,-308 736,-308"/>
<text text-anchor="middle" x="807" y="-315" font-family="Helvetica,sans-Serif" font-size="10.00" fill="#000000">uscxml/plugins/DataModel.h</text>
</a>
</g>
</g>
<!-- Node8&#45;&gt;Node24 -->
<g id="edge43" class="edge">
<title>Node8&#45;&gt;Node24</title>
<path fill="none" stroke="#191970" d="M605.6698,-374.9005C647.2021,-363.0594 717.8914,-342.9054 763.4987,-329.9025"/>
<polygon fill="#191970" stroke="#191970" points="764.7356,-333.1894 773.3927,-327.0817 762.8162,-326.4577 764.7356,-333.1894"/>
</g>
<!-- Node25 -->
<g id="node25" class="node">
<title>Node25</title>
<g id="a_node25"><a xlink:href="$_factory_8h.html" xlink:title="uscxml/plugins/Factory.h">
<polygon fill="#ffffff" stroke="#000000" points="2064.5,-241 2064.5,-260 2191.5,-260 2191.5,-241 2064.5,-241"/>
<text text-anchor="middle" x="2128" y="-248" font-family="Helvetica,sans-Serif" font-size="10.00" fill="#000000">uscxml/plugins/Factory.h</text>
</a>
</g>
</g>
<!-- Node8&#45;&gt;Node25 -->
<g id="edge49" class="edge">
<title>Node8&#45;&gt;Node25</title>
<path fill="none" stroke="#191970" d="M624.7942,-380.0979C667.0311,-376.6935 727.7848,-372.0597 781,-369 878.809,-363.3763 1568.6142,-362.6198 1662,-333 1686.2072,-325.322 1686.1268,-310.6607 1710,-302 1771.6139,-279.6477 1951.9328,-263.3451 2054.4777,-255.5812"/>
<polygon fill="#191970" stroke="#191970" points="2054.7451,-259.071 2064.4559,-254.8341 2054.2224,-252.0906 2054.7451,-259.071"/>
</g>
<!-- Node28 -->
<g id="node28" class="node">
<title>Node28</title>
<g id="a_node28"><a xlink:href="$_content_executor_8h.html" xlink:title="uscxml/interpreter\l/ContentExecutor.h">
<polygon fill="#ffffff" stroke="#000000" points="560,-235.5 560,-265.5 662,-265.5 662,-235.5 560,-235.5"/>
<text text-anchor="start" x="568" y="-253.5" font-family="Helvetica,sans-Serif" font-size="10.00" fill="#000000">uscxml/interpreter</text>
<text text-anchor="middle" x="611" y="-242.5" font-family="Helvetica,sans-Serif" font-size="10.00" fill="#000000">/ContentExecutor.h</text>
</a>
</g>
</g>
<!-- Node8&#45;&gt;Node28 -->
<g id="edge59" class="edge">
<title>Node8&#45;&gt;Node28</title>
<path fill="none" stroke="#191970" d="M524.8823,-374.954C475.7585,-362.8046 409.4683,-338.8611 437,-302 450.7584,-283.5794 505.3922,-269.4225 549.8177,-260.6554"/>
<polygon fill="#191970" stroke="#191970" points="550.5388,-264.081 559.7001,-258.7592 549.2197,-257.2064 550.5388,-264.081"/>
</g>
<!-- Node29 -->
<g id="node29" class="node">
<title>Node29</title>
<g id="a_node29"><a xlink:href="$_event_queue_8h.html" xlink:title="uscxml/interpreter\l/EventQueue.h">
<polygon fill="#ffffff" stroke="#000000" points="896,-302.5 896,-332.5 992,-332.5 992,-302.5 896,-302.5"/>
<text text-anchor="start" x="904" y="-320.5" font-family="Helvetica,sans-Serif" font-size="10.00" fill="#000000">uscxml/interpreter</text>
<text text-anchor="middle" x="944" y="-309.5" font-family="Helvetica,sans-Serif" font-size="10.00" fill="#000000">/EventQueue.h</text>
</a>
</g>
</g>
<!-- Node8&#45;&gt;Node29 -->
<g id="edge63" class="edge">
<title>Node8&#45;&gt;Node29</title>
<path fill="none" stroke="#191970" d="M624.7053,-377.583C685.4325,-369.2351 788.3632,-353.9281 885.8601,-333.123"/>
<polygon fill="#191970" stroke="#191970" points="886.8473,-336.4906 895.8841,-330.96 885.3708,-329.6481 886.8473,-336.4906"/>
</g>
<!-- Node11&#45;&gt;Node4 -->
<g id="edge15" class="edge">
<title>Node11&#45;&gt;Node4</title>
<path fill="none" stroke="#191970" d="M428.2417,-243.8834C498.578,-234.2058 633.3895,-215.5416 748,-199 1008.1637,-161.4508 1071.4744,-138.448 1333,-112 1652.8496,-79.6537 2042.7071,-69.0913 2154.0067,-66.6248"/>
<polygon fill="#191970" stroke="#191970" points="2154.2639,-70.1202 2164.1859,-66.4048 2154.1126,-63.1218 2154.2639,-70.1202"/>
</g>
<!-- Node11&#45;&gt;Node5 -->
<g id="edge16" class="edge">
<title>Node11&#45;&gt;Node5</title>
<path fill="none" stroke="#191970" d="M398.8597,-235.4343C410.0414,-225.8374 423.9459,-212.6723 434,-199 459.5523,-164.252 441.4291,-136.3938 477,-112 513.157,-87.2042 797.8485,-73.2113 924.082,-68.1712"/>
<polygon fill="#191970" stroke="#191970" points="924.4888,-71.658 934.3434,-67.7673 924.2135,-64.6634 924.4888,-71.658"/>
</g>
<!-- Node12 -->
<g id="node12" class="node">
<title>Node12</title>
<polygon fill="#ffffff" stroke="#bfbfbf" points="197.5,-56.5 197.5,-75.5 250.5,-75.5 250.5,-56.5 197.5,-56.5"/>
<text text-anchor="middle" x="224" y="-63.5" font-family="Helvetica,sans-Serif" font-size="10.00" fill="#000000">memory</text>
</g>
<!-- Node11&#45;&gt;Node12 -->
<g id="edge13" class="edge">
<title>Node11&#45;&gt;Node12</title>
<path fill="none" stroke="#191970" d="M359.659,-235.4229C347.2332,-225.7211 331.4028,-212.4491 319,-199 284.3918,-161.4721 251.5084,-111.0056 235.0175,-84.3199"/>
<polygon fill="#191970" stroke="#191970" points="237.9105,-82.3416 229.7107,-75.6322 231.9367,-85.9906 237.9105,-82.3416"/>
</g>
<!-- Node13 -->
<g id="node13" class="node">
<title>Node13</title>
<polygon fill="#ffffff" stroke="#bfbfbf" points="1755.5,-112.5 1755.5,-131.5 1784.5,-131.5 1784.5,-112.5 1755.5,-112.5"/>
<text text-anchor="middle" x="1770" y="-119.5" font-family="Helvetica,sans-Serif" font-size="10.00" fill="#000000">list</text>
</g>
<!-- Node11&#45;&gt;Node13 -->
<g id="edge14" class="edge">
<title>Node11&#45;&gt;Node13</title>
<path fill="none" stroke="#191970" d="M428.2603,-245.914C462.5034,-242.7118 509.5567,-238.4162 551,-235 766.418,-217.2432 820.7128,-218.2778 1036,-199 1314.3794,-174.0726 1651.2702,-135.7203 1744.8443,-124.9196"/>
<polygon fill="#191970" stroke="#191970" points="1745.4975,-128.3675 1755.0292,-123.7418 1744.6933,-121.4138 1745.4975,-128.3675"/>
</g>
<!-- Node11&#45;&gt;Node14 -->
<g id="edge17" class="edge">
<title>Node11&#45;&gt;Node14</title>
<path fill="none" stroke="#191970" d="M428.0321,-238.3538C432.7477,-237.2029 437.4641,-236.0681 442,-235 502.8607,-220.6693 572.9447,-205.336 620.2232,-195.1632"/>
<polygon fill="#191970" stroke="#191970" points="621.2075,-198.5317 630.2495,-193.0097 619.7374,-191.6878 621.2075,-198.5317"/>
</g>
<!-- Node11&#45;&gt;Node20 -->
<g id="edge32" class="edge">
<title>Node11&#45;&gt;Node20</title>
<path fill="none" stroke="#191970" d="M379.3193,-235.2967C378.9702,-227.5013 378.5358,-217.7991 378.1376,-208.9064"/>
<polygon fill="#191970" stroke="#191970" points="381.622,-208.4766 377.6781,-198.6432 374.629,-208.7898 381.622,-208.4766"/>
</g>
<!-- Node14&#45;&gt;Node5 -->
<g id="edge22" class="edge">
<title>Node14&#45;&gt;Node5</title>
<path fill="none" stroke="#191970" d="M702.4779,-173.9602C730.507,-164.0627 775.137,-147.8419 813,-132 832.4439,-123.8647 836.507,-120.0168 856,-112 885.6907,-99.7893 919.946,-87.5746 945.5439,-78.8038"/>
<polygon fill="#191970" stroke="#191970" points="946.9099,-82.0362 955.2493,-75.5012 944.6548,-75.4094 946.9099,-82.0362"/>
</g>
<!-- Node14&#45;&gt;Node9 -->
<g id="edge19" class="edge">
<title>Node14&#45;&gt;Node9</title>
<path fill="none" stroke="#191970" d="M739.0995,-181.1549C1019.8512,-170.8835 2135.6085,-130.0631 2327.753,-123.0334"/>
<polygon fill="#191970" stroke="#191970" points="2328.0207,-126.5261 2337.886,-122.6627 2327.7647,-119.5308 2328.0207,-126.5261"/>
</g>
<!-- Node14&#45;&gt;Node12 -->
<g id="edge20" class="edge">
<title>Node14&#45;&gt;Node12</title>
<path fill="none" stroke="#191970" d="M638.4748,-173.984C553.8256,-151.9302 345.0217,-97.53 260.448,-75.4959"/>
<polygon fill="#191970" stroke="#191970" points="261.0913,-72.0467 250.5319,-72.9124 259.3265,-78.8206 261.0913,-72.0467"/>
</g>
<!-- Node14&#45;&gt;Node13 -->
<g id="edge18" class="edge">
<title>Node14&#45;&gt;Node13</title>
<path fill="none" stroke="#191970" d="M739.1348,-180.0375C889.8577,-171.8793 1278.4013,-150.7254 1603,-132 1653.5405,-129.0844 1712.6736,-125.5035 1745.2706,-123.5147"/>
<polygon fill="#191970" stroke="#191970" points="1745.4893,-127.0079 1755.2572,-122.9045 1745.0624,-120.021 1745.4893,-127.0079"/>
</g>
<!-- Node15 -->
<g id="node15" class="node">
<title>Node15</title>
<polygon fill="#ffffff" stroke="#bfbfbf" points="740.5,-112.5 740.5,-131.5 803.5,-131.5 803.5,-112.5 740.5,-112.5"/>
<text text-anchor="middle" x="772" y="-119.5" font-family="Helvetica,sans-Serif" font-size="10.00" fill="#000000">type_traits</text>
</g>
<!-- Node14&#45;&gt;Node15 -->
<g id="edge21" class="edge">
<title>Node14&#45;&gt;Node15</title>
<path fill="none" stroke="#191970" d="M690.1563,-173.8906C705.6743,-164.0519 730.0193,-148.6167 748.1284,-137.1351"/>
<polygon fill="#191970" stroke="#191970" points="750.3787,-139.8526 756.9502,-131.5419 746.6304,-133.9407 750.3787,-139.8526"/>
</g>
<!-- Node16 -->
<g id="node16" class="node">
<title>Node16</title>
<g id="a_node16"><a xlink:href="$_convenience_8h.html" xlink:title="uscxml/util/Convenience.h">
<polygon fill="#ffffff" stroke="#000000" points="3098.5,-112.5 3098.5,-131.5 3231.5,-131.5 3231.5,-112.5 3098.5,-112.5"/>
<text text-anchor="middle" x="3165" y="-119.5" font-family="Helvetica,sans-Serif" font-size="10.00" fill="#000000">uscxml/util/Convenience.h</text>
</a>
</g>
</g>
<!-- Node14&#45;&gt;Node16 -->
<g id="edge23" class="edge">
<title>Node14&#45;&gt;Node16</title>
<path fill="none" stroke="#191970" d="M739.0532,-181.918C1083.5127,-173.4102 2714.0676,-133.1375 3088.3142,-123.894"/>
<polygon fill="#191970" stroke="#191970" points="3088.5847,-127.3885 3098.4952,-123.6426 3088.4118,-120.3907 3088.5847,-127.3885"/>
</g>
<!-- Node19 -->
<g id="node19" class="node">
<title>Node19</title>
<g id="a_node19"><a xlink:href="$_blob_8h.html" xlink:title="uscxml/messages/Blob.h">
<polygon fill="#ffffff" stroke="#000000" points="595.5,-112.5 595.5,-131.5 722.5,-131.5 722.5,-112.5 595.5,-112.5"/>
<text text-anchor="middle" x="659" y="-119.5" font-family="Helvetica,sans-Serif" font-size="10.00" fill="#000000">uscxml/messages/Blob.h</text>
</a>
</g>
</g>
<!-- Node14&#45;&gt;Node19 -->
<g id="edge28" class="edge">
<title>Node14&#45;&gt;Node19</title>
<path fill="none" stroke="#191970" d="M672.5,-173.8906C670.2588,-165.276 666.9014,-152.3708 664.0955,-141.5858"/>
<polygon fill="#191970" stroke="#191970" points="667.4404,-140.5414 661.5352,-131.7449 660.6659,-142.304 667.4404,-140.5414"/>
</g>
<!-- Node16&#45;&gt;Node4 -->
<g id="edge25" class="edge">
<title>Node16&#45;&gt;Node4</title>
<path fill="none" stroke="#191970" d="M3098.2948,-113.3803C3093.4614,-112.8738 3088.6582,-112.4062 3084,-112 2744.2679,-82.3756 2330.522,-69.8322 2215.7757,-66.7745"/>
<polygon fill="#191970" stroke="#191970" points="2215.7056,-63.2716 2205.6172,-66.508 2215.5219,-70.2692 2215.7056,-63.2716"/>
</g>
<!-- Node16&#45;&gt;Node5 -->
<g id="edge24" class="edge">
<title>Node16&#45;&gt;Node5</title>
<path fill="none" stroke="#191970" d="M3098.2369,-120.2858C2772.5954,-111.9245 1354.045,-75.5014 1044.0051,-67.5407"/>
<polygon fill="#191970" stroke="#191970" points="1043.9596,-64.0385 1033.873,-67.2806 1043.7798,-71.0362 1043.9596,-64.0385"/>
</g>
<!-- Node17 -->
<g id="node17" class="node">
<title>Node17</title>
<polygon fill="#ffffff" stroke="#bfbfbf" points="3278.5,-56.5 3278.5,-75.5 3317.5,-75.5 3317.5,-56.5 3278.5,-56.5"/>
<text text-anchor="middle" x="3298" y="-63.5" font-family="Helvetica,sans-Serif" font-size="10.00" fill="#000000">limits</text>
</g>
<!-- Node16&#45;&gt;Node17 -->
<g id="edge26" class="edge">
<title>Node16&#45;&gt;Node17</title>
<path fill="none" stroke="#191970" d="M3187.8635,-112.3733C3210.3188,-102.9184 3244.6592,-88.4593 3269.0177,-78.2031"/>
<polygon fill="#191970" stroke="#191970" points="3270.6021,-81.3336 3278.4602,-74.2273 3267.8857,-74.8822 3270.6021,-81.3336"/>
</g>
<!-- Node18 -->
<g id="node18" class="node">
<title>Node18</title>
<polygon fill="#ffffff" stroke="#bfbfbf" points="3173,-56.5 3173,-75.5 3225,-75.5 3225,-56.5 3173,-56.5"/>
<text text-anchor="middle" x="3199" y="-63.5" font-family="Helvetica,sans-Serif" font-size="10.00" fill="#000000">sstream</text>
</g>
<!-- Node16&#45;&gt;Node18 -->
<g id="edge27" class="edge">
<title>Node16&#45;&gt;Node18</title>
<path fill="none" stroke="#191970" d="M3170.9223,-112.2455C3175.6027,-104.5367 3182.2673,-93.5598 3187.9289,-84.2348"/>
<polygon fill="#191970" stroke="#191970" points="3190.9475,-86.007 3193.1455,-75.6427 3184.9639,-82.3741 3190.9475,-86.007"/>
</g>
<!-- Node19&#45;&gt;Node4 -->
<g id="edge29" class="edge">
<title>Node19&#45;&gt;Node4</title>
<path fill="none" stroke="#191970" d="M722.6578,-112.881C725.8135,-112.5542 728.9407,-112.2573 732,-112 1022.3523,-87.584 1970.9831,-69.7902 2154.2097,-66.5357"/>
<polygon fill="#191970" stroke="#191970" points="2154.3005,-70.0348 2164.237,-66.3586 2154.1768,-63.0359 2154.3005,-70.0348"/>
</g>
<!-- Node19&#45;&gt;Node5 -->
<g id="edge31" class="edge">
<title>Node19&#45;&gt;Node5</title>
<path fill="none" stroke="#191970" d="M714.5002,-112.4369C772.8558,-102.3818 864.3518,-86.6163 924.2559,-76.2944"/>
<polygon fill="#191970" stroke="#191970" points="925.0623,-79.7071 934.3227,-74.5598 923.8736,-72.8087 925.0623,-79.7071"/>
</g>
<!-- Node19&#45;&gt;Node12 -->
<g id="edge30" class="edge">
<title>Node19&#45;&gt;Node12</title>
<path fill="none" stroke="#191970" d="M595.2814,-113.7971C503.062,-101.9252 335.3274,-80.3318 261.0724,-70.7725"/>
<polygon fill="#191970" stroke="#191970" points="261.1802,-67.2576 250.8152,-69.4521 260.2864,-74.2003 261.1802,-67.2576"/>
</g>
<!-- Node20&#45;&gt;Node5 -->
<g id="edge33" class="edge">
<title>Node20&#45;&gt;Node5</title>
<path fill="none" stroke="#191970" d="M385.2193,-168.3966C395.3825,-151.3922 414.3944,-124.5088 439,-112 481.391,-90.4496 791.1619,-74.4589 923.8952,-68.5229"/>
<polygon fill="#191970" stroke="#191970" points="924.4453,-72.0021 934.2806,-68.0628 924.1355,-65.0089 924.4453,-72.0021"/>
</g>
<!-- Node21&#45;&gt;Node5 -->
<g id="edge35" class="edge">
<title>Node21&#45;&gt;Node5</title>
<path fill="none" stroke="#191970" d="M604.2058,-302.4313C630.1136,-293.4532 662.1568,-280.9045 689,-266 788.6283,-210.682 797.3532,-172.376 894,-112 913.0865,-100.0765 935.6372,-88.5548 953.3909,-80.0249"/>
<polygon fill="#191970" stroke="#191970" points="955.1698,-83.0551 962.708,-75.6103 952.1724,-76.7292 955.1698,-83.0551"/>
</g>
<!-- Node21&#45;&gt;Node12 -->
<g id="edge42" class="edge">
<title>Node21&#45;&gt;Node12</title>
<path fill="none" stroke="#191970" d="M507.91,-303.9149C504.9051,-303.2239 501.9173,-302.578 499,-302 373.7609,-277.1886 331.0193,-317.0581 214,-266 143.3074,-235.1553 93.7417,-177.7884 134,-112 145.6747,-92.9216 168.0358,-81.4378 187.5472,-74.7156"/>
<polygon fill="#191970" stroke="#191970" points="188.6381,-78.0416 197.1273,-71.7025 186.5378,-71.3641 188.6381,-78.0416"/>
</g>
<!-- Node21&#45;&gt;Node14 -->
<g id="edge36" class="edge">
<title>Node21&#45;&gt;Node14</title>
<path fill="none" stroke="#191970" d="M604.2875,-308.3236C628.4657,-301.0816 655.7653,-288.3116 671,-266 683.5891,-247.5629 682.3454,-221.0382 679.4377,-203.082"/>
<polygon fill="#191970" stroke="#191970" points="682.8539,-202.3127 677.5211,-193.1579 675.9809,-203.6401 682.8539,-202.3127"/>
</g>
<!-- Node22 -->
<g id="node22" class="node">
<title>Node22</title>
<g id="a_node22"><a xlink:href="$_event_8h.html" xlink:title="uscxml/messages/Event.h">
<polygon fill="#ffffff" stroke="#000000" points="1266.5,-241 1266.5,-260 1399.5,-260 1399.5,-241 1266.5,-241"/>
<text text-anchor="middle" x="1333" y="-248" font-family="Helvetica,sans-Serif" font-size="10.00" fill="#000000">uscxml/messages/Event.h</text>
</a>
</g>
</g>
<!-- Node21&#45;&gt;Node22 -->
<g id="edge37" class="edge">
<title>Node21&#45;&gt;Node22</title>
<path fill="none" stroke="#191970" d="M604.2657,-312.9789C638.5114,-309.8068 685.5654,-305.5205 727,-302 928.6844,-284.8636 979.4149,-284.2682 1181,-266 1205.5022,-263.7795 1232.2021,-261.1334 1256.291,-258.6616"/>
<polygon fill="#191970" stroke="#191970" points="1256.8528,-262.1223 1266.4409,-257.6147 1256.1345,-255.1592 1256.8528,-262.1223"/>
</g>
<!-- Node22&#45;&gt;Node14 -->
<g id="edge38" class="edge">
<title>Node22&#45;&gt;Node14</title>
<path fill="none" stroke="#191970" d="M1266.41,-243.7068C1239.8403,-240.997 1208.9725,-237.8497 1181,-235 1027.6448,-219.3768 848.1433,-201.1128 749.4678,-191.0747"/>
<polygon fill="#191970" stroke="#191970" points="749.603,-187.5705 739.3001,-190.0404 748.8945,-194.5345 749.603,-187.5705"/>
</g>
<!-- Node23 -->
<g id="node23" class="node">
<title>Node23</title>
<g id="a_node23"><a xlink:href="$_u_u_i_d_8h.html" xlink:title="uscxml/util/UUID.h">
<polygon fill="#ffffff" stroke="#000000" points="1494.5,-112.5 1494.5,-131.5 1593.5,-131.5 1593.5,-112.5 1494.5,-112.5"/>
<text text-anchor="middle" x="1544" y="-119.5" font-family="Helvetica,sans-Serif" font-size="10.00" fill="#000000">uscxml/util/UUID.h</text>
</a>
</g>
</g>
<!-- Node22&#45;&gt;Node23 -->
<g id="edge39" class="edge">
<title>Node22&#45;&gt;Node23</title>
<path fill="none" stroke="#191970" d="M1356.6812,-240.9815C1379.2578,-231.5237 1413.8842,-216.007 1442,-199 1472.7313,-180.4108 1505.3814,-154.5432 1525.2362,-138.0344"/>
<polygon fill="#191970" stroke="#191970" points="1527.5133,-140.6926 1532.9192,-131.5807 1523.0109,-135.3327 1527.5133,-140.6926"/>
</g>
<!-- Node23&#45;&gt;Node4 -->
<g id="edge41" class="edge">
<title>Node23&#45;&gt;Node4</title>
<path fill="none" stroke="#191970" d="M1593.5635,-113.8778C1598.4348,-113.1931 1603.3092,-112.5527 1608,-112 1815.9251,-87.503 2067.5748,-72.4122 2154.0693,-67.6423"/>
<polygon fill="#191970" stroke="#191970" points="2154.4503,-71.1268 2164.2447,-67.087 2154.0688,-64.1372 2154.4503,-71.1268"/>
</g>
<!-- Node23&#45;&gt;Node5 -->
<g id="edge40" class="edge">
<title>Node23&#45;&gt;Node5</title>
<path fill="none" stroke="#191970" d="M1494.3037,-117.0304C1391.2513,-106.7251 1154.6576,-83.0658 1043.6101,-71.961"/>
<polygon fill="#191970" stroke="#191970" points="1043.8836,-68.471 1033.5849,-70.9585 1043.187,-75.4362 1043.8836,-68.471"/>
</g>
<!-- Node24&#45;&gt;Node4 -->
<g id="edge47" class="edge">
<title>Node24&#45;&gt;Node4</title>
<path fill="none" stroke="#191970" d="M838.2885,-307.9448C888.7306,-292.5472 991.1596,-261.3082 1078,-235 1259.2591,-180.0878 1299.6405,-145.7692 1486,-112 1617.276,-88.2122 2036.9564,-71.411 2154.2734,-67.0932"/>
<polygon fill="#191970" stroke="#191970" points="2154.493,-70.5876 2164.3588,-66.7255 2154.2379,-63.5922 2154.493,-70.5876"/>
</g>
<!-- Node24&#45;&gt;Node5 -->
<g id="edge44" class="edge">
<title>Node24&#45;&gt;Node5</title>
<path fill="none" stroke="#191970" d="M735.6937,-313.0431C668.2332,-307.1625 573.9776,-294.0604 551,-266 523.6683,-232.6223 490.0084,-189.0193 571,-112 596.1015,-88.1296 815.9849,-74.1852 924.2665,-68.7084"/>
<polygon fill="#191970" stroke="#191970" points="924.573,-72.1976 934.3867,-68.2048 924.225,-65.2062 924.573,-72.1976"/>
</g>
<!-- Node24&#45;&gt;Node12 -->
<g id="edge48" class="edge">
<title>Node24&#45;&gt;Node12</title>
<path fill="none" stroke="#191970" d="M735.8176,-310.3497C602.3045,-296.8815 327.2542,-268.8422 323,-266 259.2593,-223.4153 234.9092,-127.1858 227.1366,-85.6726"/>
<polygon fill="#191970" stroke="#191970" points="230.5664,-84.9669 225.3991,-75.7176 223.6706,-86.1705 230.5664,-84.9669"/>
</g>
<!-- Node24&#45;&gt;Node13 -->
<g id="edge46" class="edge">
<title>Node24&#45;&gt;Node13</title>
<path fill="none" stroke="#191970" d="M853.4366,-307.9362C864.4158,-305.8324 876.1003,-303.7211 887,-302 1017.0315,-281.4675 1053.5249,-298.8613 1181,-266 1216.7237,-256.7909 1222.6276,-245.4777 1258,-235 1337.8969,-211.3336 1360.5354,-216.5251 1442,-199 1555.9218,-174.4925 1691.1704,-141.4978 1745.5627,-128.0669"/>
<polygon fill="#191970" stroke="#191970" points="1746.466,-131.449 1755.3328,-125.6498 1744.7849,-124.6538 1746.466,-131.449"/>
</g>
<!-- Node24&#45;&gt;Node22 -->
<g id="edge45" class="edge">
<title>Node24&#45;&gt;Node22</title>
<path fill="none" stroke="#191970" d="M852.1447,-307.9921C863.4881,-305.8131 875.6608,-303.654 887,-302 1048.3024,-278.4713 1090.6706,-289.3427 1252,-266 1260.0592,-264.8339 1268.5355,-263.4209 1276.8457,-261.9282"/>
<polygon fill="#191970" stroke="#191970" points="1277.6625,-265.3367 1286.8608,-260.0793 1276.3916,-258.453 1277.6625,-265.3367"/>
</g>
<!-- Node25&#45;&gt;Node4 -->
<g id="edge57" class="edge">
<title>Node25&#45;&gt;Node4</title>
<path fill="none" stroke="#191970" d="M2130.9843,-240.8402C2139.9877,-211.6978 2167.0002,-124.2626 2179.0658,-85.208"/>
<polygon fill="#191970" stroke="#191970" points="2182.4374,-86.1517 2182.0452,-75.5641 2175.7493,-84.0854 2182.4374,-86.1517"/>
</g>
<!-- Node25&#45;&gt;Node5 -->
<g id="edge50" class="edge">
<title>Node25&#45;&gt;Node5</title>
<path fill="none" stroke="#191970" d="M2104.7479,-240.9761C2085.9045,-232.3103 2059.6701,-217.9777 2042,-199 2012.4727,-167.2877 2034.3874,-135.5263 1998,-112 1957.8204,-86.0218 1255.8444,-71.0116 1044.0251,-67.0591"/>
<polygon fill="#191970" stroke="#191970" points="1043.7852,-63.5541 1033.7221,-66.8684 1043.6555,-70.5529 1043.7852,-63.5541"/>
</g>
<!-- Node25&#45;&gt;Node9 -->
<g id="edge56" class="edge">
<title>Node25&#45;&gt;Node9</title>
<path fill="none" stroke="#191970" d="M2143.5317,-240.7544C2168.8728,-224.9587 2220.8229,-193.0133 2266,-168 2286.7247,-156.5253 2310.6195,-144.3606 2328.5777,-135.4247"/>
<polygon fill="#191970" stroke="#191970" points="2330.4762,-138.3903 2337.8858,-130.8173 2327.3709,-132.1167 2330.4762,-138.3903"/>
</g>
<!-- Node25&#45;&gt;Node12 -->
<g id="edge54" class="edge">
<title>Node25&#45;&gt;Node12</title>
<path fill="none" stroke="#191970" d="M2103.6732,-240.8973C2056.0681,-222.6392 1946.8699,-183.3702 1851,-168 1573.5405,-123.5167 866.4797,-161.2173 587,-132 523.5918,-125.3712 339.3091,-89.1449 260.4723,-73.3585"/>
<polygon fill="#191970" stroke="#191970" points="261.0048,-69.8956 250.5117,-71.3603 259.6279,-76.7589 261.0048,-69.8956"/>
</g>
<!-- Node25&#45;&gt;Node17 -->
<g id="edge58" class="edge">
<title>Node25&#45;&gt;Node17</title>
<path fill="none" stroke="#191970" d="M2191.6504,-243.8011C2427.4792,-218.9718 3238.0578,-133.5402 3241,-132 3261.4386,-121.3008 3277.7405,-99.9557 3287.5891,-84.4285"/>
<polygon fill="#191970" stroke="#191970" points="3290.7088,-86.0323 3292.8666,-75.6595 3284.7112,-82.4227 3290.7088,-86.0323"/>
</g>
<!-- Node26 -->
<g id="node26" class="node">
<title>Node26</title>
<g id="a_node26"><a xlink:href="$_string_8h.html" xlink:title="string.h">
<polygon fill="#ffffff" stroke="#000000" points="2050.5,-174 2050.5,-193 2099.5,-193 2099.5,-174 2050.5,-174"/>
<text text-anchor="middle" x="2075" y="-181" font-family="Helvetica,sans-Serif" font-size="10.00" fill="#000000">string.h</text>
</a>
</g>
</g>
<!-- Node25&#45;&gt;Node26 -->
<g id="edge51" class="edge">
<title>Node25&#45;&gt;Node26</title>
<path fill="none" stroke="#191970" d="M2120.4064,-240.9005C2112.2202,-230.552 2099.0115,-213.8542 2088.9457,-201.1295"/>
<polygon fill="#191970" stroke="#191970" points="2091.5286,-198.7531 2082.5795,-193.0817 2086.0386,-203.0959 2091.5286,-198.7531"/>
</g>
<!-- Node25&#45;&gt;Node27 -->
<g id="edge55" class="edge">
<title>Node25&#45;&gt;Node27</title>
<path fill="none" stroke="#191970" d="M2083.9783,-240.9587C2036.9208,-230.725 1960.1397,-213.9282 1894,-199 1880.0792,-195.858 1864.5512,-192.2709 1851.9519,-189.3393"/>
<polygon fill="#191970" stroke="#191970" points="1852.6905,-185.9177 1842.1569,-187.0552 1851.1007,-192.7348 1852.6905,-185.9177"/>
</g>
<!-- Node26&#45;&gt;Node4 -->
<g id="edge52" class="edge">
<title>Node26&#45;&gt;Node4</title>
<path fill="none" stroke="#191970" d="M2078.5063,-173.7613C2084.1728,-159.0482 2096.5032,-130.8711 2114,-112 2125.7647,-99.3113 2141.738,-88.5591 2155.5547,-80.6484"/>
<polygon fill="#191970" stroke="#191970" points="2157.6107,-83.5128 2164.6973,-75.6368 2154.246,-77.3745 2157.6107,-83.5128"/>
</g>
<!-- Node26&#45;&gt;Node13 -->
<g id="edge53" class="edge">
<title>Node26&#45;&gt;Node13</title>
<path fill="none" stroke="#191970" d="M2050.2989,-178.5193C1993.0101,-166.9676 1851.6331,-138.4604 1794.521,-126.9444"/>
<polygon fill="#191970" stroke="#191970" points="1795.0681,-123.4844 1784.5736,-124.9386 1793.6844,-130.3462 1795.0681,-123.4844"/>
</g>
<!-- Node28&#45;&gt;Node4 -->
<g id="edge62" class="edge">
<title>Node28&#45;&gt;Node4</title>
<path fill="none" stroke="#191970" d="M662.2286,-245.7219C742.2869,-237.9334 901.7974,-221.1226 1036,-199 1222.3736,-168.2772 1264.815,-137.3138 1452,-112 1722.651,-75.3988 2053.5439,-67.843 2154.3959,-66.3513"/>
<polygon fill="#191970" stroke="#191970" points="2154.5395,-69.8497 2164.4899,-66.2113 2154.4423,-62.8504 2154.5395,-69.8497"/>
</g>
<!-- Node28&#45;&gt;Node5 -->
<g id="edge60" class="edge">
<title>Node28&#45;&gt;Node5</title>
<path fill="none" stroke="#191970" d="M601.4063,-235.4193C584.9168,-207.3993 555.8337,-146.986 587,-112 609.0256,-87.275 818.9488,-73.8462 924.3008,-68.6148"/>
<polygon fill="#191970" stroke="#191970" points="924.6489,-72.1021 934.4667,-68.1194 924.3081,-65.1104 924.6489,-72.1021"/>
</g>
<!-- Node28&#45;&gt;Node14 -->
<g id="edge61" class="edge">
<title>Node28&#45;&gt;Node14</title>
<path fill="none" stroke="#191970" d="M625.5226,-235.2967C635.3973,-224.9591 648.4749,-211.2684 658.7051,-200.5588"/>
<polygon fill="#191970" stroke="#191970" points="661.4964,-202.7037 665.8729,-193.055 656.4346,-197.8685 661.4964,-202.7037"/>
</g>
<!-- Node29&#45;&gt;Node5 -->
<g id="edge64" class="edge">
<title>Node29&#45;&gt;Node5</title>
<path fill="none" stroke="#191970" d="M948.7159,-302.306C951.7325,-292.1188 955.5293,-278.3564 958,-266 971.0714,-200.6285 979.0811,-121.8679 982.3279,-85.7929"/>
<polygon fill="#191970" stroke="#191970" points="985.8302,-85.9183 983.2151,-75.6513 978.8569,-85.3082 985.8302,-85.9183"/>
</g>
<!-- Node29&#45;&gt;Node22 -->
<g id="edge65" class="edge">
<title>Node29&#45;&gt;Node22</title>
<path fill="none" stroke="#191970" d="M992.0352,-309.6093C1065.6447,-297.4935 1202.9719,-274.7887 1252,-266 1259.1698,-264.7148 1266.6889,-263.3282 1274.1353,-261.9313"/>
<polygon fill="#191970" stroke="#191970" points="1275.0285,-265.3246 1284.2048,-260.0287 1273.7288,-258.4463 1275.0285,-265.3246"/>
</g>
<!-- Node30&#45;&gt;Node5 -->
<g id="edge71" class="edge">
<title>Node30&#45;&gt;Node5</title>
<path fill="none" stroke="#191970" d="M228.7542,-369.1746C232.1792,-319.088 250.8598,-160.6598 351,-112 401.7199,-87.3543 776.0945,-72.7101 924.0661,-67.8315"/>
<polygon fill="#191970" stroke="#191970" points="924.4407,-71.3213 934.3213,-67.4972 924.2125,-64.325 924.4407,-71.3213"/>
</g>
<!-- Node30&#45;&gt;Node14 -->
<g id="edge73" class="edge">
<title>Node30&#45;&gt;Node14</title>
<path fill="none" stroke="#191970" d="M236.6757,-369.3525C248.3269,-350.4627 270.8573,-318.6346 299,-302 365.8596,-262.4805 395.6902,-288.5844 470,-266 487.1914,-260.7751 589.0044,-219.0165 642.381,-196.9926"/>
<polygon fill="#191970" stroke="#191970" points="643.8452,-200.1748 651.7526,-193.1232 641.1737,-193.7046 643.8452,-200.1748"/>
</g>
<!-- Node30&#45;&gt;Node21 -->
<g id="edge72" class="edge">
<title>Node30&#45;&gt;Node21</title>
<path fill="none" stroke="#191970" d="M276.3197,-372.051C280.9331,-370.9738 285.5488,-369.9384 290,-369 379.1672,-350.2018 405.2573,-353.1606 498.0734,-333.0828"/>
<polygon fill="#191970" stroke="#191970" points="498.8606,-336.4934 507.8777,-330.9308 497.3598,-329.6562 498.8606,-336.4934"/>
</g>
<!-- Node30&#45;&gt;Node22 -->
<g id="edge74" class="edge">
<title>Node30&#45;&gt;Node22</title>
<path fill="none" stroke="#191970" d="M264.1345,-369.4898C319.1629,-346.745 419.458,-305.7785 437,-302 760.6311,-232.291 850.8768,-290.8011 1181,-266 1205.5335,-264.1569 1232.242,-261.6147 1256.3291,-259.1219"/>
<polygon fill="#191970" stroke="#191970" points="1256.8968,-262.5817 1266.4777,-258.0588 1256.1675,-255.6198 1256.8968,-262.5817"/>
</g>
<!-- Node31 -->
<g id="node31" class="node">
<title>Node31</title>
<polygon fill="#ffffff" stroke="#bfbfbf" points="1086.5,-241 1086.5,-260 1171.5,-260 1171.5,-241 1086.5,-241"/>
<text text-anchor="middle" x="1129" y="-248" font-family="Helvetica,sans-Serif" font-size="10.00" fill="#000000">uscxml/config.h</text>
</g>
<!-- Node30&#45;&gt;Node31 -->
<g id="edge70" class="edge">
<title>Node30&#45;&gt;Node31</title>
<path fill="none" stroke="#191970" d="M246.7019,-369.3278C272.01,-349.779 319.3787,-316.5805 366,-302 433.3044,-280.951 914.4267,-259.3683 1076.1358,-252.6358"/>
<polygon fill="#191970" stroke="#191970" points="1076.4711,-256.125 1086.3176,-252.2139 1076.1812,-249.131 1076.4711,-256.125"/>
</g>
<!-- Node36&#45;&gt;Node3 -->
<g id="edge148" class="edge">
<title>Node36&#45;&gt;Node3</title>
<path fill="none" stroke="#191970" d="M1182.5658,-570.4655C1067.9194,-551.3672 802.5711,-506.8333 580,-467 572.6759,-465.6892 564.9932,-464.2889 557.3821,-462.886"/>
<polygon fill="#191970" stroke="#191970" points="557.924,-459.4269 547.4538,-461.0477 556.6494,-466.3099 557.924,-459.4269"/>
</g>
<!-- Node36&#45;&gt;Node14 -->
<g id="edge81" class="edge">
<title>Node36&#45;&gt;Node14</title>
<path fill="none" stroke="#191970" d="M1173.2898,-573.746C1085.8686,-565.4104 927.8148,-549.8589 793,-534 512.1497,-500.9623 312.3718,-644.9131 171,-400 134.381,-336.561 258.0816,-302.8636 260,-302 333.2026,-269.0482 365.6985,-302.8855 437,-266 454.8731,-256.7539 452.3417,-244.65 470,-235 510.3725,-212.9369 560.37,-200.1321 600.8814,-192.809"/>
<polygon fill="#191970" stroke="#191970" points="601.7087,-196.218 610.9649,-191.0631 600.5144,-189.3206 601.7087,-196.218"/>
</g>
<!-- Node36&#45;&gt;Node22 -->
<g id="edge82" class="edge">
<title>Node36&#45;&gt;Node22</title>
<path fill="none" stroke="#191970" d="M1240,-570.3281C1240,-548.9175 1240,-495.895 1240,-451.5 1240,-451.5 1240,-451.5 1240,-384.5 1240,-346.7713 1238.7866,-333.2001 1260,-302 1270.6883,-286.2799 1287.8748,-273.8078 1302.8874,-265.0768"/>
<polygon fill="#191970" stroke="#191970" points="1304.8039,-268.0171 1311.8764,-260.1284 1301.4282,-261.8848 1304.8039,-268.0171"/>
</g>
<!-- Node37 -->
<g id="node37" class="node">
<title>Node37</title>
<g id="a_node37"><a xlink:href="$_interpreter_impl_8h.html" xlink:title="uscxml/interpreter\l/InterpreterImpl.h">
<polygon fill="#ffffff" stroke="#000000" points="1992,-503.5 1992,-533.5 2088,-533.5 2088,-503.5 1992,-503.5"/>
<text text-anchor="start" x="2000" y="-521.5" font-family="Helvetica,sans-Serif" font-size="10.00" fill="#000000">uscxml/interpreter</text>
<text text-anchor="middle" x="2040" y="-510.5" font-family="Helvetica,sans-Serif" font-size="10.00" fill="#000000">/InterpreterImpl.h</text>
</a>
</g>
</g>
<!-- Node36&#45;&gt;Node37 -->
<g id="edge83" class="edge">
<title>Node36&#45;&gt;Node37</title>
<path fill="none" stroke="#191970" d="M1306.8316,-574.8623C1460.4912,-563.0497 1836.813,-534.12 1981.7626,-522.977"/>
<polygon fill="#191970" stroke="#191970" points="1982.0906,-526.4622 1991.7929,-522.2059 1981.554,-519.4828 1982.0906,-526.4622"/>
</g>
<!-- Node37&#45;&gt;Node4 -->
<g id="edge88" class="edge">
<title>Node37&#45;&gt;Node4</title>
<path fill="none" stroke="#191970" d="M2088.0869,-516.2748C2271.5194,-507.1581 2917,-469.0688 2917,-384.5 2917,-384.5 2917,-384.5 2917,-317.5 2917,-207.5871 2816.512,-220.5953 2720,-168 2656.0503,-133.1499 2636.8366,-128.9197 2566,-112 2438.0104,-81.429 2280.7317,-70.6493 2215.5389,-67.3191"/>
<polygon fill="#191970" stroke="#191970" points="2215.687,-63.8223 2205.5281,-66.8301 2215.3454,-70.8139 2215.687,-63.8223"/>
</g>
<!-- Node37&#45;&gt;Node5 -->
<g id="edge90" class="edge">
<title>Node37&#45;&gt;Node5</title>
<path fill="none" stroke="#191970" d="M1991.9774,-517.4779C1790.6422,-513.0329 1020.1296,-494.3706 915,-467 850.5629,-450.2237 834.8699,-439.1358 781,-400 738.5156,-369.1356 693.3325,-349.8336 715,-302 728.5603,-272.0639 903.4758,-130.3875 963.7502,-82.1373"/>
<polygon fill="#191970" stroke="#191970" points="966.1521,-84.6982 971.7784,-75.7207 961.7817,-79.2301 966.1521,-84.6982"/>
</g>
<!-- Node37&#45;&gt;Node9 -->
<g id="edge87" class="edge">
<title>Node37&#45;&gt;Node9</title>
<path fill="none" stroke="#191970" d="M2088.0181,-515.1767C2255.3998,-502.96 2803,-457.4202 2803,-384.5 2803,-384.5 2803,-384.5 2803,-317.5 2803,-272.9329 2781.294,-262.2132 2746,-235 2614.457,-133.5747 2543.5131,-180.5713 2383.8431,-133.2722"/>
<polygon fill="#191970" stroke="#191970" points="2384.7803,-129.8989 2374.1943,-130.3314 2382.7394,-136.5948 2384.7803,-129.8989"/>
</g>
<!-- Node37&#45;&gt;Node12 -->
<g id="edge84" class="edge">
<title>Node37&#45;&gt;Node12</title>
<path fill="none" stroke="#191970" d="M1991.89,-517.2246C1727.1552,-510.1751 458.3322,-475.9744 419,-467 385.8271,-459.431 381.5308,-445.9738 349,-436 262.6499,-409.5256 234.0903,-430.28 149,-400 77.6853,-374.6222 0,-393.1956 0,-317.5 0,-317.5 0,-317.5 0,-183.5 0,-99.8867 123.9093,-75.6514 187.4124,-68.7212"/>
<polygon fill="#191970" stroke="#191970" points="187.8237,-72.1976 197.4246,-67.7174 187.1253,-65.2325 187.8237,-72.1976"/>
</g>
<!-- Node37&#45;&gt;Node13 -->
<g id="edge86" class="edge">
<title>Node37&#45;&gt;Node13</title>
<path fill="none" stroke="#191970" d="M2029.3765,-503.268C2003.9623,-467.1484 1937.0696,-373.9437 1874,-302 1859.0838,-284.9851 1851.3929,-284.2382 1838,-266 1818.115,-238.9209 1817.4054,-229.3509 1803,-199 1793.7782,-179.5704 1784.1992,-156.8952 1777.7526,-141.2069"/>
<polygon fill="#191970" stroke="#191970" points="1780.8478,-139.5276 1773.8329,-131.5877 1774.3654,-142.1692 1780.8478,-139.5276"/>
</g>
<!-- Node37&#45;&gt;Node17 -->
<g id="edge89" class="edge">
<title>Node37&#45;&gt;Node17</title>
<path fill="none" stroke="#191970" d="M2088.0502,-516.1034C2322.5974,-504.095 3336,-448.5074 3336,-384.5 3336,-384.5 3336,-384.5 3336,-183.5 3336,-147.2454 3319.4195,-107.6181 3308.163,-84.8929"/>
<polygon fill="#191970" stroke="#191970" points="3311.1292,-83.0073 3303.4445,-75.7137 3304.9035,-86.2076 3311.1292,-83.0073"/>
</g>
<!-- Node37&#45;&gt;Node25 -->
<g id="edge102" class="edge">
<title>Node37&#45;&gt;Node25</title>
<path fill="none" stroke="#191970" d="M2088.1853,-504.7642C2135.6074,-488.3841 2205.3712,-455.9355 2237,-400 2266.6913,-347.491 2194.1632,-291.5691 2153.41,-265.4988"/>
<polygon fill="#191970" stroke="#191970" points="2155.1044,-262.4307 2144.7667,-260.1103 2151.4011,-268.3709 2155.1044,-262.4307"/>
</g>
<!-- Node37&#45;&gt;Node29 -->
<g id="edge138" class="edge">
<title>Node37&#45;&gt;Node29</title>
<path fill="none" stroke="#191970" d="M1991.7608,-516.7306C1845.8051,-511.1462 1410.3961,-492.7294 1271,-467 1171.3221,-448.6017 1143.2311,-446.1792 1053,-400 1020.9657,-383.6052 988.6399,-357.6891 967.6062,-339.2822"/>
<polygon fill="#191970" stroke="#191970" points="969.9216,-336.6575 960.1218,-332.6308 965.2716,-341.8899 969.9216,-336.6575"/>
</g>
<!-- Node37&#45;&gt;Node35 -->
<g id="edge85" class="edge">
<title>Node37&#45;&gt;Node35</title>
<path fill="none" stroke="#191970" d="M2088.0289,-515.4719C2218.0118,-506.3448 2572.6355,-474.9769 2658,-400 2696.8318,-365.8935 2709.3273,-302.3916 2713.2565,-270.2405"/>
<polygon fill="#191970" stroke="#191970" points="2716.739,-270.5899 2714.3182,-260.2753 2709.7784,-269.8482 2716.739,-270.5899"/>
</g>
<!-- Node38 -->
<g id="node38" class="node">
<title>Node38</title>
<g id="a_node38"><a xlink:href="$_u_r_l_8h.html" xlink:title="uscxml/util/URL.h">
<polygon fill="#ffffff" stroke="#000000" points="2301,-308 2301,-327 2395,-327 2395,-308 2301,-308"/>
<text text-anchor="middle" x="2348" y="-315" font-family="Helvetica,sans-Serif" font-size="10.00" fill="#000000">uscxml/util/URL.h</text>
</a>
</g>
</g>
<!-- Node37&#45;&gt;Node38 -->
<g id="edge91" class="edge">
<title>Node37&#45;&gt;Node38</title>
<path fill="none" stroke="#191970" d="M2088.0147,-515.3061C2156.3067,-509.7871 2276.7018,-496.1343 2308,-467 2344.4315,-433.0874 2349.0827,-369.9705 2348.871,-337.6738"/>
<polygon fill="#191970" stroke="#191970" points="2352.3606,-337.1942 2348.6228,-327.2807 2345.3626,-337.3614 2352.3606,-337.1942"/>
</g>
<!-- Node39 -->
<g id="node39" class="node">
<title>Node39</title>
<g id="a_node39"><a xlink:href="$_data_model_impl_8h.html" xlink:title="uscxml/plugins/DataModel\lImpl.h">
<polygon fill="#ffffff" stroke="#000000" points="1061.5,-369.5 1061.5,-399.5 1194.5,-399.5 1194.5,-369.5 1061.5,-369.5"/>
<text text-anchor="start" x="1069.5" y="-387.5" font-family="Helvetica,sans-Serif" font-size="10.00" fill="#000000">uscxml/plugins/DataModel</text>
<text text-anchor="middle" x="1128" y="-376.5" font-family="Helvetica,sans-Serif" font-size="10.00" fill="#000000">Impl.h</text>
</a>
</g>
</g>
<!-- Node37&#45;&gt;Node39 -->
<g id="edge103" class="edge">
<title>Node37&#45;&gt;Node39</title>
<path fill="none" stroke="#191970" d="M1991.5683,-516.0306C1861.8448,-509.1942 1508.6238,-489.062 1394,-467 1316.2268,-452.0307 1229.0752,-422.4406 1176.3891,-403.069"/>
<polygon fill="#191970" stroke="#191970" points="1177.5557,-399.7687 1166.9626,-399.5766 1175.1238,-406.3328 1177.5557,-399.7687"/>
</g>
<!-- Node42 -->
<g id="node42" class="node">
<title>Node42</title>
<g id="a_node42"><a xlink:href="$_i_o_processor_impl_8h.html" xlink:title="uscxml/plugins/IOProcessor\lImpl.h">
<polygon fill="#ffffff" stroke="#ff0000" points="790,-369.5 790,-399.5 930,-399.5 930,-369.5 790,-369.5"/>
<text text-anchor="start" x="798" y="-387.5" font-family="Helvetica,sans-Serif" font-size="10.00" fill="#000000">uscxml/plugins/IOProcessor</text>
<text text-anchor="middle" x="860" y="-376.5" font-family="Helvetica,sans-Serif" font-size="10.00" fill="#000000">Impl.h</text>
</a>
</g>
</g>
<!-- Node37&#45;&gt;Node42 -->
<g id="edge115" class="edge">
<title>Node37&#45;&gt;Node42</title>
<path fill="none" stroke="#191970" d="M1991.7874,-516.9452C1790.0173,-510.3392 1021.5831,-484.1546 973,-467 937.4581,-454.4502 903.4851,-426.8022 882.2379,-406.9707"/>
<polygon fill="#191970" stroke="#191970" points="884.3871,-404.1831 874.7411,-399.8006 879.5488,-409.2419 884.3871,-404.1831"/>
</g>
<!-- Node43 -->
<g id="node43" class="node">
<title>Node43</title>
<g id="a_node43"><a xlink:href="$_invoker_impl_8h.html" xlink:title="uscxml/plugins/InvokerImpl.h">
<polygon fill="#ffffff" stroke="#ff0000" points="1474.5,-308 1474.5,-327 1619.5,-327 1619.5,-308 1474.5,-308"/>
<text text-anchor="middle" x="1547" y="-315" font-family="Helvetica,sans-Serif" font-size="10.00" fill="#000000">uscxml/plugins/InvokerImpl.h</text>
</a>
</g>
</g>
<!-- Node37&#45;&gt;Node43 -->
<g id="edge119" class="edge">
<title>Node37&#45;&gt;Node43</title>
<path fill="none" stroke="#191970" d="M1991.889,-511.2014C1946.3494,-503.3879 1876.5766,-489.051 1819,-467 1721.079,-429.4976 1614.862,-362.6276 1569.5399,-332.7054"/>
<polygon fill="#191970" stroke="#191970" points="1571.3277,-329.691 1561.0624,-327.0688 1567.4519,-335.5202 1571.3277,-329.691"/>
</g>
<!-- Node44 -->
<g id="node44" class="node">
<title>Node44</title>
<g id="a_node44"><a xlink:href="$_micro_step_impl_8h.html" xlink:title="uscxml/interpreter\l/MicroStepImpl.h">
<polygon fill="#ffffff" stroke="#000000" points="1828,-436.5 1828,-466.5 1924,-466.5 1924,-436.5 1828,-436.5"/>
<text text-anchor="start" x="1836" y="-454.5" font-family="Helvetica,sans-Serif" font-size="10.00" fill="#000000">uscxml/interpreter</text>
<text text-anchor="middle" x="1876" y="-443.5" font-family="Helvetica,sans-Serif" font-size="10.00" fill="#000000">/MicroStepImpl.h</text>
</a>
</g>
</g>
<!-- Node37&#45;&gt;Node44 -->
<g id="edge124" class="edge">
<title>Node37&#45;&gt;Node44</title>
<path fill="none" stroke="#191970" d="M2003.1952,-503.4639C1979.3291,-493.7137 1948.0349,-480.9289 1922.4598,-470.4805"/>
<polygon fill="#191970" stroke="#191970" points="1923.5463,-467.1436 1912.9653,-466.6017 1920.8989,-473.6237 1923.5463,-467.1436"/>
</g>
<!-- Node45 -->
<g id="node45" class="node">
<title>Node45</title>
<g id="a_node45"><a xlink:href="$_content_executor_impl_8h.html" xlink:title="uscxml/interpreter\l/ContentExecutorImpl.h">
<polygon fill="#ffffff" stroke="#ff0000" points="2106.5,-369.5 2106.5,-399.5 2227.5,-399.5 2227.5,-369.5 2106.5,-369.5"/>
<text text-anchor="start" x="2114.5" y="-387.5" font-family="Helvetica,sans-Serif" font-size="10.00" fill="#000000">uscxml/interpreter</text>
<text text-anchor="middle" x="2167" y="-376.5" font-family="Helvetica,sans-Serif" font-size="10.00" fill="#000000">/ContentExecutorImpl.h</text>
</a>
</g>
</g>
<!-- Node37&#45;&gt;Node45 -->
<g id="edge131" class="edge">
<title>Node37&#45;&gt;Node45</title>
<path fill="none" stroke="#191970" d="M2054.3216,-503.389C2076.5216,-479.9654 2119.3842,-434.7403 2145.37,-407.3222"/>
<polygon fill="#191970" stroke="#191970" points="2148.1972,-409.4272 2152.5358,-399.7614 2143.1165,-404.6119 2148.1972,-409.4272"/>
</g>
<!-- Node46 -->
<g id="node46" class="node">
<title>Node46</title>
<g id="a_node46"><a xlink:href="$_event_queue_impl_8h.html" xlink:title="uscxml/interpreter\l/EventQueueImpl.h">
<polygon fill="#ffffff" stroke="#000000" points="2514,-302.5 2514,-332.5 2616,-332.5 2616,-302.5 2514,-302.5"/>
<text text-anchor="start" x="2522" y="-320.5" font-family="Helvetica,sans-Serif" font-size="10.00" fill="#000000">uscxml/interpreter</text>
<text text-anchor="middle" x="2565" y="-309.5" font-family="Helvetica,sans-Serif" font-size="10.00" fill="#000000">/EventQueueImpl.h</text>
</a>
</g>
</g>
<!-- Node37&#45;&gt;Node46 -->
<g id="edge139" class="edge">
<title>Node37&#45;&gt;Node46</title>
<path fill="none" stroke="#191970" d="M2088.2558,-515.8875C2147.6573,-511.3619 2250.7618,-499.2011 2333,-467 2414.8142,-434.9649 2498.4536,-372.1203 2539.3283,-339.0382"/>
<polygon fill="#191970" stroke="#191970" points="2541.624,-341.6823 2547.1528,-332.6444 2537.1946,-336.2618 2541.624,-341.6823"/>
</g>
<!-- Node38&#45;&gt;Node4 -->
<g id="edge94" class="edge">
<title>Node38&#45;&gt;Node4</title>
<path fill="none" stroke="#191970" d="M2354.4505,-307.5831C2374.5254,-275.3589 2431.7104,-172.2126 2383,-112 2362.2265,-86.3212 2265.9724,-73.6011 2215.726,-68.6181"/>
<polygon fill="#191970" stroke="#191970" points="2216.0321,-65.1315 2205.746,-67.6704 2215.3702,-72.1002 2216.0321,-65.1315"/>
</g>
<!-- Node38&#45;&gt;Node5 -->
<g id="edge92" class="edge">
<title>Node38&#45;&gt;Node5</title>
<path fill="none" stroke="#191970" d="M2300.8417,-312.7338C2223.096,-304.4303 2071.677,-286.2513 2022,-266 2004.5851,-258.9007 1899.6578,-178.417 1884,-168 1844.7763,-141.9048 1838.9132,-126.2219 1794,-112 1723.1517,-89.5657 1218.6158,-72.8579 1043.6055,-67.6818"/>
<polygon fill="#191970" stroke="#191970" points="1043.6435,-64.1816 1033.545,-67.3863 1043.4379,-71.1785 1043.6435,-64.1816"/>
</g>
<!-- Node38&#45;&gt;Node9 -->
<g id="edge96" class="edge">
<title>Node38&#45;&gt;Node9</title>
<path fill="none" stroke="#191970" d="M2348.546,-307.7394C2349.5579,-292.1886 2352.1759,-260.9003 2358,-235 2361.7001,-218.5454 2367.2984,-215.6477 2370,-199 2372.207,-185.4001 2372.0279,-181.6277 2370,-168 2368.6673,-159.0439 2365.9506,-149.419 2363.2619,-141.3"/>
<polygon fill="#191970" stroke="#191970" points="2366.4936,-139.9402 2359.8624,-131.6772 2359.8933,-142.272 2366.4936,-139.9402"/>
</g>
<!-- Node38&#45;&gt;Node13 -->
<g id="edge98" class="edge">
<title>Node38&#45;&gt;Node13</title>
<path fill="none" stroke="#191970" d="M2300.7641,-313.712C2215.7345,-306.4174 2040.4998,-289.0786 1984,-266 1967.0068,-259.0587 1866.3969,-177.9944 1851,-168 1832.1768,-155.7815 1809.9604,-143.2934 1793.5601,-134.418"/>
<polygon fill="#191970" stroke="#191970" points="1795.1126,-131.2791 1784.6455,-129.6391 1791.8053,-137.4485 1795.1126,-131.2791"/>
</g>
<!-- Node38&#45;&gt;Node18 -->
<g id="edge95" class="edge">
<title>Node38&#45;&gt;Node18</title>
<path fill="none" stroke="#191970" d="M2395.0233,-312.4525C2426.1951,-309.2063 2468.0122,-305.0422 2505,-302 2747.8171,-282.0288 2815.4428,-324.3069 3052,-266 3123.2873,-248.429 3148.5953,-248.3026 3203,-199 3234.2658,-170.6664 3256.2576,-151.3389 3241,-112 3236.6142,-100.692 3228.0098,-90.463 3219.7251,-82.5381"/>
<polygon fill="#191970" stroke="#191970" points="3221.8244,-79.721 3212.028,-75.6859 3217.1699,-84.9494 3221.8244,-79.721"/>
</g>
<!-- Node38&#45;&gt;Node22 -->
<g id="edge93" class="edge">
<title>Node38&#45;&gt;Node22</title>
<path fill="none" stroke="#191970" d="M2300.7435,-314.3806C2139.3677,-303.7282 1609.0855,-268.7244 1409.7024,-255.5631"/>
<polygon fill="#191970" stroke="#191970" points="1409.815,-252.063 1399.6062,-254.8967 1409.3539,-259.0478 1409.815,-252.063"/>
</g>
<!-- Node38&#45;&gt;Node27 -->
<g id="edge97" class="edge">
<title>Node38&#45;&gt;Node27</title>
<path fill="none" stroke="#191970" d="M2300.9586,-314.2863C2209.2535,-307.5626 2009.9572,-290.572 1946,-266 1935.3286,-261.9001 1879.7428,-221.9749 1848.4573,-199.2049"/>
<polygon fill="#191970" stroke="#191970" points="1850.4771,-196.346 1840.3351,-193.2816 1846.3524,-202.0018 1850.4771,-196.346"/>
</g>
<!-- Node38&#45;&gt;Node33 -->
<g id="edge99" class="edge">
<title>Node38&#45;&gt;Node33</title>
<path fill="none" stroke="#191970" d="M2358.7457,-307.9005C2370.664,-297.2535 2390.1057,-279.8856 2404.4868,-267.0385"/>
<polygon fill="#191970" stroke="#191970" points="2407.1484,-269.354 2412.2743,-260.0817 2402.4849,-264.1337 2407.1484,-269.354"/>
</g>
<!-- Node38&#45;&gt;Node34 -->
<g id="edge100" class="edge">
<title>Node38&#45;&gt;Node34</title>
<path fill="none" stroke="#191970" d="M2371.4972,-307.9005C2399.7508,-296.3579 2447.3392,-276.9163 2479.2017,-263.8993"/>
<polygon fill="#191970" stroke="#191970" points="2480.6128,-267.1037 2488.5464,-260.0817 2477.9654,-260.6236 2480.6128,-267.1037"/>
</g>
<!-- Node38&#45;&gt;Node35 -->
<g id="edge101" class="edge">
<title>Node38&#45;&gt;Node35</title>
<path fill="none" stroke="#191970" d="M2395.2275,-308.8781C2470.966,-295.0512 2617.6607,-268.2704 2682.6558,-256.4048"/>
<polygon fill="#191970" stroke="#191970" points="2683.5159,-259.8057 2692.7247,-254.5666 2682.2587,-252.9195 2683.5159,-259.8057"/>
</g>
<!-- Node39&#45;&gt;Node4 -->
<g id="edge113" class="edge">
<title>Node39&#45;&gt;Node4</title>
<path fill="none" stroke="#191970" d="M1194.6768,-382.2526C1418.7421,-374.0178 2134.3474,-341.9238 2201,-266 2246.1443,-214.5763 2212.5828,-124.3044 2194.5244,-85.0865"/>
<polygon fill="#191970" stroke="#191970" points="2197.5872,-83.3779 2190.1218,-75.86 2191.2695,-86.3925 2197.5872,-83.3779"/>
</g>
<!-- Node39&#45;&gt;Node5 -->
<g id="edge104" class="edge">
<title>Node39&#45;&gt;Node5</title>
<path fill="none" stroke="#191970" d="M1086.2993,-369.3415C1069.1902,-361.1027 1050.6934,-349.2181 1039,-333 1031.6541,-322.8116 998.6618,-145.8698 987.6162,-85.78"/>
<polygon fill="#191970" stroke="#191970" points="991.013,-84.8986 985.7668,-75.6939 984.1278,-86.1612 991.013,-84.8986"/>
</g>
<!-- Node39&#45;&gt;Node12 -->
<g id="edge114" class="edge">
<title>Node39&#45;&gt;Node12</title>
<path fill="none" stroke="#191970" d="M1061.2021,-378.7614C981.2368,-371.239 843.5074,-356.2075 727,-333 675.5051,-322.7426 664.5822,-311.8088 613,-302 541.6152,-288.4256 349.119,-305.3003 288,-266 227.0467,-226.8063 222.1642,-127.8978 223.027,-85.6374"/>
<polygon fill="#191970" stroke="#191970" points="226.5287,-85.6449 223.3705,-75.5318 219.5327,-85.4071 226.5287,-85.6449"/>
</g>
<!-- Node39&#45;&gt;Node13 -->
<g id="edge112" class="edge">
<title>Node39&#45;&gt;Node13</title>
<path fill="none" stroke="#191970" d="M1194.5448,-382.0824C1329.5789,-376.6057 1626.0647,-361.4624 1662,-333 1722.7067,-284.9174 1675.116,-232.4841 1718,-168 1725.7174,-156.3954 1737.0714,-145.8896 1747.2026,-137.8574"/>
<polygon fill="#191970" stroke="#191970" points="1749.4519,-140.5446 1755.3185,-131.7222 1745.2307,-134.9605 1749.4519,-140.5446"/>
</g>
<!-- Node39&#45;&gt;Node21 -->
<g id="edge111" class="edge">
<title>Node39&#45;&gt;Node21</title>
<path fill="none" stroke="#191970" d="M1061.3238,-378.9735C943.1398,-368.9763 701.5023,-347.5753 618,-333 616.7396,-332.78 615.467,-332.5484 614.1858,-332.3066"/>
<polygon fill="#191970" stroke="#191970" points="614.7541,-328.8505 604.2561,-330.2795 613.3539,-335.7091 614.7541,-328.8505"/>
</g>
<!-- Node40 -->
<g id="node40" class="node">
<title>Node40</title>
<g id="a_node40"><a xlink:href="$_invoker_8h.html" xlink:title="uscxml/plugins/Invoker.h">
<polygon fill="#ffffff" stroke="#ff0000" points="1048,-308 1048,-327 1174,-327 1174,-308 1048,-308"/>
<text text-anchor="middle" x="1111" y="-315" font-family="Helvetica,sans-Serif" font-size="10.00" fill="#000000">uscxml/plugins/Invoker.h</text>
</a>
</g>
</g>
<!-- Node39&#45;&gt;Node40 -->
<g id="edge105" class="edge">
<title>Node39&#45;&gt;Node40</title>
<path fill="none" stroke="#191970" d="M1124.1424,-369.2967C1121.6995,-359.6685 1118.5185,-347.1318 1115.898,-336.8038"/>
<polygon fill="#191970" stroke="#191970" points="1119.2764,-335.887 1113.4244,-327.055 1112.4914,-337.6086 1119.2764,-335.887"/>
</g>
<!-- Node41 -->
<g id="node41" class="node">
<title>Node41</title>
<g id="a_node41"><a xlink:href="$_i_o_processor_8h.html" xlink:title="uscxml/plugins/IOProcessor.h">
<polygon fill="#ffffff" stroke="#ff0000" points="1268.5,-308 1268.5,-327 1417.5,-327 1417.5,-308 1268.5,-308"/>
<text text-anchor="middle" x="1343" y="-315" font-family="Helvetica,sans-Serif" font-size="10.00" fill="#000000">uscxml/plugins/IOProcessor.h</text>
</a>
</g>
</g>
<!-- Node39&#45;&gt;Node41 -->
<g id="edge108" class="edge">
<title>Node39&#45;&gt;Node41</title>
<path fill="none" stroke="#191970" d="M1176.2502,-369.4639C1214.3876,-357.5792 1266.9934,-341.1858 1302.8536,-330.0108"/>
<polygon fill="#191970" stroke="#191970" points="1303.9921,-333.322 1312.498,-327.0053 1301.9095,-326.639 1303.9921,-333.322"/>
</g>
<!-- Node40&#45;&gt;Node5 -->
<g id="edge106" class="edge">
<title>Node40&#45;&gt;Node5</title>
<path fill="none" stroke="#191970" d="M1133.4995,-307.8603C1149.9806,-299.4512 1171.1264,-285.522 1181,-266 1187.2183,-253.7053 1184.4836,-248.3301 1181,-235 1165.1517,-174.3558 1159.8486,-152.4895 1112,-112 1092.5996,-95.5834 1066.8881,-84.8399 1043.601,-77.9011"/>
<polygon fill="#191970" stroke="#191970" points="1044.3681,-74.4813 1033.7947,-75.1548 1042.4803,-81.222 1044.3681,-74.4813"/>
</g>
<!-- Node40&#45;&gt;Node22 -->
<g id="edge107" class="edge">
<title>Node40&#45;&gt;Node22</title>
<path fill="none" stroke="#191970" d="M1142.8072,-307.9005C1181.9596,-296.0843 1248.5404,-275.9901 1291.6333,-262.9845"/>
<polygon fill="#191970" stroke="#191970" points="1292.6896,-266.3218 1301.2518,-260.0817 1290.667,-259.6203 1292.6896,-266.3218"/>
</g>
<!-- Node41&#45;&gt;Node5 -->
<g id="edge109" class="edge">
<title>Node41&#45;&gt;Node5</title>
<path fill="none" stroke="#191970" d="M1363.6094,-307.8834C1379.2575,-299.3307 1399.6284,-285.1997 1409,-266 1415.0436,-253.6185 1416.4783,-246.5716 1409,-235 1404.4854,-228.0143 1143.7884,-114.9191 1136,-112 1101.0914,-98.9165 1060.6545,-86.821 1030.2679,-78.3198"/>
<polygon fill="#191970" stroke="#191970" points="1030.9422,-74.8748 1020.3707,-75.5784 1029.0735,-81.6208 1030.9422,-74.8748"/>
</g>
<!-- Node41&#45;&gt;Node22 -->
<g id="edge110" class="edge">
<title>Node41&#45;&gt;Node22</title>
<path fill="none" stroke="#191970" d="M1341.5672,-307.9005C1340.0969,-298.0495 1337.7679,-282.4451 1335.9091,-269.9912"/>
<polygon fill="#191970" stroke="#191970" points="1339.368,-269.4554 1334.4301,-260.0817 1332.4447,-270.4888 1339.368,-269.4554"/>
</g>
<!-- Node42&#45;&gt;Node5 -->
<g id="edge116" class="edge">
<title>Node42&#45;&gt;Node5</title>
<path fill="none" stroke="#191970" d="M795.6994,-369.494C750.0991,-355.8273 701.2164,-333.0377 727,-302 782.7571,-234.8809 854.5581,-323.7164 920,-266 933.9831,-253.6676 966.4851,-133.3375 978.981,-85.4828"/>
<polygon fill="#191970" stroke="#191970" points="982.3944,-86.263 981.5187,-75.7044 975.6188,-84.5045 982.3944,-86.263"/>
</g>
<!-- Node42&#45;&gt;Node21 -->
<g id="edge117" class="edge">
<title>Node42&#45;&gt;Node21</title>
<path fill="none" stroke="#191970" d="M789.9616,-370.2768C741.5629,-360.2814 675.7524,-346.3598 618,-333 616.7231,-332.7046 615.432,-332.4035 614.1308,-332.0978"/>
<polygon fill="#191970" stroke="#191970" points="614.563,-328.6026 604.0234,-329.6836 612.9367,-335.4111 614.563,-328.6026"/>
</g>
<!-- Node42&#45;&gt;Node22 -->
<g id="edge118" class="edge">
<title>Node42&#45;&gt;Node22</title>
<path fill="none" stroke="#191970" d="M930.1156,-377.1622C1010.9622,-368.0319 1138.4483,-351.3848 1183,-333 1204.7783,-324.0129 1205.7516,-314.0443 1226,-302 1250.277,-287.5593 1279.218,-273.8239 1300.8762,-264.1754"/>
<polygon fill="#191970" stroke="#191970" points="1302.5278,-267.2726 1310.2719,-260.0421 1299.7091,-260.8652 1302.5278,-267.2726"/>
</g>
<!-- Node43&#45;&gt;Node5 -->
<g id="edge121" class="edge">
<title>Node43&#45;&gt;Node5</title>
<path fill="none" stroke="#191970" d="M1533.2609,-307.8437C1510.8466,-292.1733 1464.904,-260.4002 1425,-235 1319.1888,-167.6477 1290.5102,-150.0743 1171,-112 1127.7598,-98.2243 1077.8005,-86.1246 1040.404,-77.7965"/>
<polygon fill="#191970" stroke="#191970" points="1040.7243,-74.2832 1030.2054,-75.5493 1039.218,-81.1192 1040.7243,-74.2832"/>
</g>
<!-- Node43&#45;&gt;Node22 -->
<g id="edge122" class="edge">
<title>Node43&#45;&gt;Node22</title>
<path fill="none" stroke="#191970" d="M1516.339,-307.9005C1478.7564,-296.134 1414.9561,-276.1591 1373.4019,-263.1492"/>
<polygon fill="#191970" stroke="#191970" points="1374.1931,-259.7294 1363.6041,-260.0817 1372.1016,-266.4097 1374.1931,-259.7294"/>
</g>
<!-- Node43&#45;&gt;Node27 -->
<g id="edge123" class="edge">
<title>Node43&#45;&gt;Node27</title>
<path fill="none" stroke="#191970" d="M1567.1369,-307.8631C1617.4246,-283.7968 1748.3666,-221.1317 1802.7603,-195.1004"/>
<polygon fill="#191970" stroke="#191970" points="1804.48,-198.1577 1811.9893,-190.6837 1801.4582,-191.8435 1804.48,-198.1577"/>
</g>
<!-- Node43&#45;&gt;Node31 -->
<g id="edge120" class="edge">
<title>Node43&#45;&gt;Node31</title>
<path fill="none" stroke="#191970" d="M1487.5547,-307.9717C1405.8005,-294.8675 1259.9325,-271.4868 1181.8206,-258.9665"/>
<polygon fill="#191970" stroke="#191970" points="1182.149,-255.4745 1171.7211,-257.3476 1181.0411,-262.3863 1182.149,-255.4745"/>
</g>
<!-- Node44&#45;&gt;Node4 -->
<g id="edge127" class="edge">
<title>Node44&#45;&gt;Node4</title>
<path fill="none" stroke="#191970" d="M1924.1045,-450.7121C2098.5851,-446.5988 2691.8152,-421.223 2766,-266 2791.63,-212.3722 2728.1654,-194.576 2675,-168 2515.4014,-88.2207 2296.5747,-70.8001 2216.2198,-67.0296"/>
<polygon fill="#191970" stroke="#191970" points="2215.9619,-63.5154 2205.8209,-66.5831 2215.6615,-70.509 2215.9619,-63.5154"/>
</g>
<!-- Node44&#45;&gt;Node5 -->
<g id="edge128" class="edge">
<title>Node44&#45;&gt;Node5</title>
<path fill="none" stroke="#191970" d="M1854.1354,-436.3947C1773.5165,-381.5757 1483.5926,-192.142 1214,-112 1157.089,-95.082 1090.398,-82.5137 1043.5276,-74.8282"/>
<polygon fill="#191970" stroke="#191970" points="1043.9722,-71.3548 1033.5421,-73.2155 1042.8561,-78.2652 1043.9722,-71.3548"/>
</g>
<!-- Node44&#45;&gt;Node8 -->
<g id="edge129" class="edge">
<title>Node44&#45;&gt;Node8</title>
<path fill="none" stroke="#191970" d="M1827.9449,-449.7041C1674.9718,-443.8877 1185.6275,-424.5148 781,-400 731.9511,-397.0283 676.4862,-392.8782 635.0261,-389.6201"/>
<polygon fill="#191970" stroke="#191970" points="635.0441,-386.1107 624.7995,-388.8122 634.4928,-393.089 635.0441,-386.1107"/>
</g>
<!-- Node44&#45;&gt;Node13 -->
<g id="edge125" class="edge">
<title>Node44&#45;&gt;Node13</title>
<path fill="none" stroke="#191970" d="M1878.1403,-436.3867C1881.4223,-406.9749 1884.2883,-341.4737 1852,-302 1823.1491,-266.7286 1781.9553,-303.4535 1756,-266 1729.764,-228.1414 1748.2986,-170.6316 1760.9255,-141.0498"/>
<polygon fill="#191970" stroke="#191970" points="1764.1623,-142.3856 1765.0624,-131.8291 1757.7756,-139.5202 1764.1623,-142.3856"/>
</g>
<!-- Node44&#45;&gt;Node22 -->
<g id="edge130" class="edge">
<title>Node44&#45;&gt;Node22</title>
<path fill="none" stroke="#191970" d="M1827.9505,-443.8876C1748.9762,-430.0318 1588.2996,-396.1246 1466,-333 1446.3242,-322.8444 1445.4429,-314.2528 1427,-302 1405.9178,-287.9937 1380.7017,-274.3324 1361.6963,-264.6036"/>
<polygon fill="#191970" stroke="#191970" points="1363.1485,-261.4159 1352.6452,-260.0265 1359.9896,-267.6626 1363.1485,-261.4159"/>
</g>
<!-- Node44&#45;&gt;Node27 -->
<g id="edge126" class="edge">
<title>Node44&#45;&gt;Node27</title>
<path fill="none" stroke="#191970" d="M1882.7496,-436.3417C1894.2906,-407.9634 1914.3313,-345.7393 1890,-302 1875.2511,-275.4865 1847.5445,-292.055 1832,-266 1820.6688,-247.0071 1821.1694,-220.9792 1823.3622,-203.2721"/>
<polygon fill="#191970" stroke="#191970" points="1826.8463,-203.6413 1824.8977,-193.2272 1819.9267,-202.5835 1826.8463,-203.6413"/>
</g>
<!-- Node45&#45;&gt;Node4 -->
<g id="edge135" class="edge">
<title>Node45&#45;&gt;Node4</title>
<path fill="none" stroke="#191970" d="M2227.7666,-380.6317C2334.8019,-373.3268 2552.4868,-356.1348 2625,-333 2683.5633,-314.3158 2714.7888,-318.9587 2746,-266 2801.0791,-172.5425 2670.9948,-201.0202 2590,-168 2526.0284,-141.9198 2511.5468,-130.5489 2445,-112 2363.5465,-89.2961 2264.4823,-75.4276 2215.4786,-69.4497"/>
<polygon fill="#191970" stroke="#191970" points="2215.8715,-65.9719 2205.5269,-68.2609 2215.0412,-72.9225 2215.8715,-65.9719"/>
</g>
<!-- Node45&#45;&gt;Node5 -->
<g id="edge132" class="edge">
<title>Node45&#45;&gt;Node5</title>
<path fill="none" stroke="#191970" d="M2126.7468,-369.4997C1980.0498,-314.9195 1478.7521,-129.192 1404,-112 1277.8599,-82.9894 1126.0699,-72.1168 1043.9176,-68.1609"/>
<polygon fill="#191970" stroke="#191970" points="1043.9177,-64.6573 1033.7663,-67.6905 1043.5935,-71.6498 1043.9177,-64.6573"/>
</g>
<!-- Node45&#45;&gt;Node9 -->
<g id="edge137" class="edge">
<title>Node45&#45;&gt;Node9</title>
<path fill="none" stroke="#191970" d="M2182.3128,-369.239C2203.7541,-347.4414 2243.3105,-305.6332 2272,-266 2302.6832,-223.6127 2331.924,-169.2733 2346.4558,-141.0054"/>
<polygon fill="#191970" stroke="#191970" points="2349.7034,-142.3407 2351.1195,-131.841 2343.4647,-139.1659 2349.7034,-142.3407"/>
</g>
<!-- Node45&#45;&gt;Node21 -->
<g id="edge134" class="edge">
<title>Node45&#45;&gt;Node21</title>
<path fill="none" stroke="#191970" d="M2106.234,-383.5149C1907.8134,-380.0441 1260.9655,-366.7232 727,-333 689.5517,-330.6349 647.5869,-326.8482 614.6013,-323.6096"/>
<polygon fill="#191970" stroke="#191970" points="614.5211,-320.0846 604.2244,-322.5799 613.8298,-327.0504 614.5211,-320.0846"/>
</g>
<!-- Node45&#45;&gt;Node22 -->
<g id="edge133" class="edge">
<title>Node45&#45;&gt;Node22</title>
<path fill="none" stroke="#191970" d="M2106.349,-374.7551C1955.2331,-350.4751 1562.6197,-287.3933 1402.5103,-261.6683"/>
<polygon fill="#191970" stroke="#191970" points="1402.7341,-258.1595 1392.3054,-260.0287 1401.6235,-265.0708 1402.7341,-258.1595"/>
</g>
<!-- Node45&#45;&gt;Node27 -->
<g id="edge136" class="edge">
<title>Node45&#45;&gt;Node27</title>
<path fill="none" stroke="#191970" d="M2162.3962,-369.2273C2155.8166,-350.2052 2141.8099,-318.2376 2118,-302 2036.1446,-246.1772 1984.4125,-314.4704 1898,-266 1870.9299,-250.8159 1849.3689,-221.1547 1837.3912,-201.8441"/>
<polygon fill="#191970" stroke="#191970" points="1840.285,-199.8629 1832.1606,-193.0626 1834.271,-203.4451 1840.285,-199.8629"/>
</g>
<!-- Node46&#45;&gt;Node4 -->
<g id="edge142" class="edge">
<title>Node46&#45;&gt;Node4</title>
<path fill="none" stroke="#191970" d="M2588.222,-302.322C2599.8101,-293.3119 2612.6771,-280.7675 2619,-266 2624.4229,-253.3343 2625.9362,-246.9045 2619,-235 2563.1895,-139.2129 2505.6645,-151.2894 2402,-112 2338.0943,-87.7794 2258.5121,-75.0339 2215.6965,-69.4932"/>
<polygon fill="#191970" stroke="#191970" points="2215.9918,-66.003 2205.6352,-68.2371 2215.1246,-72.949 2215.9918,-66.003"/>
</g>
<!-- Node46&#45;&gt;Node5 -->
<g id="edge140" class="edge">
<title>Node46&#45;&gt;Node5</title>
<path fill="none" stroke="#191970" d="M2513.5481,-312.4689C2385.3049,-299.9065 2061.3262,-268.0215 2056,-266 2033.9733,-257.6402 2032.1824,-248.6783 2013,-235 1932.6083,-177.6753 1922.1642,-141.6993 1828,-112 1753.8236,-88.6048 1223.6486,-72.4104 1043.63,-67.5356"/>
<polygon fill="#191970" stroke="#191970" points="1043.6384,-64.0347 1033.5479,-67.2646 1043.4502,-71.0322 1043.6384,-64.0347"/>
</g>
<!-- Node46&#45;&gt;Node9 -->
<g id="edge143" class="edge">
<title>Node46&#45;&gt;Node9</title>
<path fill="none" stroke="#191970" d="M2581.0324,-302.2465C2596.9678,-285.176 2617.145,-257.0262 2603,-235 2553.7722,-158.344 2438.1782,-133.0318 2384.4196,-125.2255"/>
<polygon fill="#191970" stroke="#191970" points="2384.6095,-121.7195 2374.2312,-123.8503 2383.6731,-128.6566 2384.6095,-121.7195"/>
</g>
<!-- Node46&#45;&gt;Node13 -->
<g id="edge144" class="edge">
<title>Node46&#45;&gt;Node13</title>
<path fill="none" stroke="#191970" d="M2571.6273,-302.3653C2578.4904,-284.0801 2586.145,-253.4773 2570,-235 2530.7513,-190.0816 2363.0146,-207.6832 2304,-199 2217.1798,-186.2256 2195.818,-180.7895 2109,-168 1991.3895,-150.6743 1850.4564,-132.3211 1794.5666,-125.1384"/>
<polygon fill="#191970" stroke="#191970" points="1794.9187,-121.655 1784.5547,-123.8544 1794.0282,-128.5981 1794.9187,-121.655"/>
</g>
<!-- Node46&#45;&gt;Node22 -->
<g id="edge141" class="edge">
<title>Node46&#45;&gt;Node22</title>
<path fill="none" stroke="#191970" d="M2513.9337,-311.953C2482.3045,-308.674 2440.8303,-304.6569 2404,-302 2031.9486,-275.161 1586.1471,-258.7846 1410.0043,-252.9357"/>
<polygon fill="#191970" stroke="#191970" points="1409.9117,-249.4309 1399.8016,-252.5987 1409.6805,-256.427 1409.9117,-249.4309"/>
</g>
<!-- Node46&#45;&gt;Node33 -->
<g id="edge145" class="edge">
<title>Node46&#45;&gt;Node33</title>
<path fill="none" stroke="#191970" d="M2532.2166,-302.2892C2510.3181,-292.0948 2480.8914,-278.3309 2455,-266 2453.9968,-265.5222 2452.9765,-265.035 2451.9464,-264.5421"/>
<polygon fill="#191970" stroke="#191970" points="2453.1398,-261.2322 2442.6112,-260.0497 2450.1044,-267.5398 2453.1398,-261.2322"/>
</g>
<!-- Node46&#45;&gt;Node34 -->
<g id="edge147" class="edge">
<title>Node46&#45;&gt;Node34</title>
<path fill="none" stroke="#191970" d="M2552.9735,-302.2967C2544.9563,-292.1618 2534.3898,-278.804 2525.9953,-268.1921"/>
<polygon fill="#191970" stroke="#191970" points="2528.5075,-265.7264 2519.5584,-260.055 2523.0175,-270.0692 2528.5075,-265.7264"/>
</g>
<!-- Node46&#45;&gt;Node35 -->
<g id="edge146" class="edge">
<title>Node46&#45;&gt;Node35</title>
<path fill="none" stroke="#191970" d="M2598.6629,-302.4639C2624.2845,-291.0196 2659.2661,-275.3945 2684.1627,-264.274"/>
<polygon fill="#191970" stroke="#191970" points="2685.7955,-267.378 2693.4987,-260.1039 2682.9407,-260.9866 2685.7955,-267.378"/>
</g>
<!-- Node47&#45;&gt;Node4 -->
<g id="edge150" class="edge">
<title>Node47&#45;&gt;Node4</title>
<path fill="none" stroke="#191970" d="M3067.1221,-307.8764C3124.5502,-285.3376 3252.8463,-226.5897 3203,-168 3177.8353,-138.4213 2896.5804,-116.44 2858,-112 2611.2595,-83.6041 2311.4595,-70.6867 2215.8464,-67.09"/>
<polygon fill="#191970" stroke="#191970" points="2215.8389,-63.5874 2205.7163,-66.7154 2215.5801,-70.5827 2215.8389,-63.5874"/>
</g>
<!-- Node47&#45;&gt;Node13 -->
<g id="edge151" class="edge">
<title>Node47&#45;&gt;Node13</title>
<path fill="none" stroke="#191970" d="M3013.3386,-307.8944C2961.5659,-290.338 2846.2002,-253.204 2746,-235 2564.2803,-201.9858 2513.7636,-231.7717 2332,-199 2281.1702,-189.8355 2270.759,-177.5488 2220,-168 2059.5271,-137.8118 1862.8728,-126.3165 1794.6713,-123.0636"/>
<polygon fill="#191970" stroke="#191970" points="1794.6541,-119.5592 1784.5036,-122.5951 1794.3319,-126.5518 1794.6541,-119.5592"/>
</g>
<!-- Node47&#45;&gt;Node16 -->
<g id="edge160" class="edge">
<title>Node47&#45;&gt;Node16</title>
<path fill="none" stroke="#191970" d="M3102.3611,-309.5042C3153.195,-301.4723 3219.6553,-287.2218 3236,-266 3262.577,-231.4927 3256.8034,-206.2662 3236,-168 3228.3623,-153.9511 3214.3791,-143.5317 3200.8292,-136.1958"/>
<polygon fill="#191970" stroke="#191970" points="3202.113,-132.9253 3191.601,-131.603 3198.9941,-139.1921 3202.113,-132.9253"/>
</g>
<!-- Node48 -->
<g id="node48" class="node">
<title>Node48</title>
<polygon fill="#ffffff" stroke="#bfbfbf" points="3074.5,-174 3074.5,-193 3193.5,-193 3193.5,-174 3074.5,-174"/>
<text text-anchor="middle" x="3134" y="-181" font-family="Helvetica,sans-Serif" font-size="10.00" fill="#000000">xercesc/dom/DOM.hpp</text>
</g>
<!-- Node47&#45;&gt;Node48 -->
<g id="edge152" class="edge">
<title>Node47&#45;&gt;Node48</title>
<path fill="none" stroke="#191970" d="M3047.6883,-307.8631C3063.1718,-285.5535 3101.676,-230.0744 3121.6066,-201.3571"/>
<polygon fill="#191970" stroke="#191970" points="3124.5459,-203.2605 3127.3723,-193.0496 3118.7952,-199.2693 3124.5459,-203.2605"/>
</g>
<!-- Node49 -->
<g id="node49" class="node">
<title>Node49</title>
<g id="a_node49"><a xlink:href="$_d_o_m_8h.html" xlink:title="uscxml/util/DOM.h">
<polygon fill="#ffffff" stroke="#000000" points="2945,-241 2945,-260 3043,-260 3043,-241 2945,-241"/>
<text text-anchor="middle" x="2994" y="-248" font-family="Helvetica,sans-Serif" font-size="10.00" fill="#000000">uscxml/util/DOM.h</text>
</a>
</g>
</g>
<!-- Node47&#45;&gt;Node49 -->
<g id="edge153" class="edge">
<title>Node47&#45;&gt;Node49</title>
<path fill="none" stroke="#191970" d="M3034.266,-307.9005C3027.0764,-297.6515 3015.5181,-281.1747 3006.6252,-268.4976"/>
<polygon fill="#191970" stroke="#191970" points="3009.3296,-266.2582 3000.7215,-260.0817 3003.599,-270.2783 3009.3296,-266.2582"/>
</g>
<!-- Node49&#45;&gt;Node4 -->
<g id="edge156" class="edge">
<title>Node49&#45;&gt;Node4</title>
<path fill="none" stroke="#191970" d="M2976.0762,-240.8288C2959.0632,-231.2605 2933.1671,-215.6667 2913,-199 2872.0421,-165.151 2879.005,-134.7778 2831,-112 2775.0413,-85.4482 2336.8095,-70.5246 2215.839,-66.883"/>
<polygon fill="#191970" stroke="#191970" points="2215.8717,-63.3825 2205.7722,-66.5841 2215.6639,-70.3795 2215.8717,-63.3825"/>
</g>
<!-- Node49&#45;&gt;Node5 -->
<g id="edge157" class="edge">
<title>Node49&#45;&gt;Node5</title>
<path fill="none" stroke="#191970" d="M2965.9952,-240.9059C2916.3399,-224.1777 2809.3863,-189.4168 2717,-168 2570.3718,-134.009 2532.7721,-126.9508 2383,-112 2117.1638,-85.4632 1275.9819,-70.5775 1043.8448,-66.9044"/>
<polygon fill="#191970" stroke="#191970" points="1043.6311,-63.4007 1033.5773,-66.743 1043.521,-70.3998 1043.6311,-63.4007"/>
</g>
<!-- Node49&#45;&gt;Node13 -->
<g id="edge155" class="edge">
<title>Node49&#45;&gt;Node13</title>
<path fill="none" stroke="#191970" d="M2944.6694,-243.627C2834.8019,-228.4791 2561.5516,-191.6874 2332,-168 2125.0247,-146.6423 1874.331,-129.0402 1795.1893,-123.68"/>
<polygon fill="#191970" stroke="#191970" points="1794.9958,-120.1591 1784.7831,-122.979 1794.5252,-127.1433 1794.9958,-120.1591"/>
</g>
<!-- Node49&#45;&gt;Node27 -->
<g id="edge154" class="edge">
<title>Node49&#45;&gt;Node27</title>
<path fill="none" stroke="#191970" d="M2944.6036,-247.2475C2894.5591,-243.9912 2814.9122,-238.9153 2746,-235 2433.2067,-217.2282 2354.7048,-218.2651 2042,-199 1973.3736,-194.7721 1892.5116,-188.6292 1852.3237,-185.4977"/>
<polygon fill="#191970" stroke="#191970" points="1852.3539,-181.9895 1842.1112,-184.6984 1851.8076,-188.9681 1852.3539,-181.9895"/>
</g>
<!-- Node49&#45;&gt;Node48 -->
<g id="edge159" class="edge">
<title>Node49&#45;&gt;Node48</title>
<path fill="none" stroke="#191970" d="M3014.0586,-240.9005C3037.8656,-229.5072 3077.7539,-210.4178 3104.9396,-197.4075"/>
<polygon fill="#191970" stroke="#191970" points="3106.4693,-200.5556 3113.9786,-193.0817 3103.4474,-194.2415 3106.4693,-200.5556"/>
</g>
<!-- Node50 -->
<g id="node50" class="node">
<title>Node50</title>
<polygon fill="#ffffff" stroke="#bfbfbf" points="2921.5,-174 2921.5,-193 3056.5,-193 3056.5,-174 2921.5,-174"/>
<text text-anchor="middle" x="2989" y="-181" font-family="Helvetica,sans-Serif" font-size="10.00" fill="#000000">xercesc/util/XMLString.hpp</text>
</g>
<!-- Node49&#45;&gt;Node50 -->
<g id="edge158" class="edge">
<title>Node49&#45;&gt;Node50</title>
<path fill="none" stroke="#191970" d="M2993.2836,-240.9005C2992.5559,-231.149 2991.4074,-215.7597 2990.4828,-203.3695"/>
<polygon fill="#191970" stroke="#191970" points="2993.9496,-202.7934 2989.715,-193.0817 2986.969,-203.3144 2993.9496,-202.7934"/>
</g>
</g>
</svg>
