<?xml version="1.0" encoding="UTF-8" standalone="no"?>
<!DOCTYPE svg PUBLIC "-//W3C//DTD SVG 1.1//EN"
 "http://www.w3.org/Graphics/SVG/1.1/DTD/svg11.dtd">
<!-- Generated by graphviz version 2.38.0 (20140413.2041)
 -->
<!-- Title: plugins/invoker/dirmon/DirMonInvoker.cpp Pages: 1 -->
<svg width="3193pt" height="889pt"
 viewBox="0.00 0.00 3192.50 889.00" xmlns="http://www.w3.org/2000/svg" xmlns:xlink="http://www.w3.org/1999/xlink">
<g id="graph0" class="graph" transform="scale(1 1) rotate(0) translate(4 885)">
<title>plugins/invoker/dirmon/DirMonInvoker.cpp</title>
<polygon fill="white" stroke="none" points="-4,4 -4,-885 3188.5,-885 3188.5,4 -4,4"/>
<!-- Node1 -->
<g id="node1" class="node"><title>Node1</title>
<polygon fill="#bfbfbf" stroke="black" points="2780.5,-850.5 2780.5,-880.5 2897.5,-880.5 2897.5,-850.5 2780.5,-850.5"/>
<text text-anchor="start" x="2788.5" y="-868.5" font-family="Helvetica,sans-Serif" font-size="10.00">plugins/invoker/dirmon</text>
<text text-anchor="middle" x="2839" y="-857.5" font-family="Helvetica,sans-Serif" font-size="10.00">/DirMonInvoker.cpp</text>
</g>
<!-- Node2 -->
<g id="node2" class="node"><title>Node2</title>
<g id="a_node2"><a xlink:href="_dir_mon_invoker_8h.html" target="_top" xlink:title="DirMonInvoker.h">
<polygon fill="white" stroke="black" points="2695,-794.5 2695,-813.5 2785,-813.5 2785,-794.5 2695,-794.5"/>
<text text-anchor="middle" x="2740" y="-801.5" font-family="Helvetica,sans-Serif" font-size="10.00">DirMonInvoker.h</text>
</a>
</g>
</g>
<!-- Node1&#45;&gt;Node2 -->
<g id="edge1" class="edge"><title>Node1&#45;&gt;Node2</title>
<path fill="none" stroke="midnightblue" d="M2815.54,-850.399C2799.67,-840.862 2778.81,-828.325 2763.03,-818.842"/>
<polygon fill="midnightblue" stroke="midnightblue" points="2764.78,-815.809 2754.41,-813.658 2761.17,-821.809 2764.78,-815.809"/>
</g>
<!-- Node4 -->
<g id="node4" class="node"><title>Node4</title>
<polygon fill="white" stroke="#bfbfbf" points="1252.5,-112.5 1252.5,-131.5 1337.5,-131.5 1337.5,-112.5 1252.5,-112.5"/>
<text text-anchor="middle" x="1295" y="-119.5" font-family="Helvetica,sans-Serif" font-size="10.00">uscxml/config.h</text>
</g>
<!-- Node1&#45;&gt;Node4 -->
<g id="edge144" class="edge"><title>Node1&#45;&gt;Node4</title>
<path fill="none" stroke="midnightblue" d="M2780.41,-863.545C2388.93,-856.975 168,-816.719 168,-749 168,-749 168,-749 168,-501 168,-143.55 572.611,-281.677 927,-235 1057.95,-217.752 1103.85,-258.05 1222,-199 1229.22,-195.39 1261.21,-160.608 1280.36,-139.369"/>
<polygon fill="midnightblue" stroke="midnightblue" points="1283.14,-141.51 1287.22,-131.732 1277.94,-136.832 1283.14,-141.51"/>
</g>
<!-- Node47 -->
<g id="node47" class="node"><title>Node47</title>
<polygon fill="white" stroke="#bfbfbf" points="3125.5,-738.5 3125.5,-757.5 3184.5,-757.5 3184.5,-738.5 3125.5,-738.5"/>
<text text-anchor="middle" x="3155" y="-745.5" font-family="Helvetica,sans-Serif" font-size="10.00">sys/stat.h</text>
</g>
<!-- Node1&#45;&gt;Node47 -->
<g id="edge145" class="edge"><title>Node1&#45;&gt;Node47</title>
<path fill="none" stroke="midnightblue" d="M2832.13,-850.455C2825.55,-834.727 2818.44,-809.426 2832,-794 2873.28,-747.053 3049.34,-768.271 3111,-758 3112.44,-757.76 3113.91,-757.507 3115.39,-757.243"/>
<polygon fill="midnightblue" stroke="midnightblue" points="3116.05,-760.681 3125.23,-755.397 3114.76,-753.801 3116.05,-760.681"/>
</g>
<!-- Node48 -->
<g id="node48" class="node"><title>Node48</title>
<polygon fill="white" stroke="#bfbfbf" points="2841,-794.5 2841,-813.5 2891,-813.5 2891,-794.5 2841,-794.5"/>
<text text-anchor="middle" x="2866" y="-801.5" font-family="Helvetica,sans-Serif" font-size="10.00">dirent.h</text>
</g>
<!-- Node1&#45;&gt;Node48 -->
<g id="edge146" class="edge"><title>Node1&#45;&gt;Node48</title>
<path fill="none" stroke="midnightblue" d="M2845.4,-850.399C2849.12,-842.199 2853.85,-831.781 2857.83,-822.994"/>
<polygon fill="midnightblue" stroke="midnightblue" points="2861.13,-824.21 2862.07,-813.658 2854.75,-821.318 2861.13,-824.21"/>
</g>
<!-- Node49 -->
<g id="node49" class="node"><title>Node49</title>
<polygon fill="white" stroke="#bfbfbf" points="2909,-794.5 2909,-813.5 3041,-813.5 3041,-794.5 2909,-794.5"/>
<text text-anchor="middle" x="2975" y="-801.5" font-family="Helvetica,sans-Serif" font-size="10.00">boost/algorithm/string.hpp</text>
</g>
<!-- Node1&#45;&gt;Node49 -->
<g id="edge147" class="edge"><title>Node1&#45;&gt;Node49</title>
<path fill="none" stroke="midnightblue" d="M2871.23,-850.399C2893.84,-840.505 2923.84,-827.383 2945.76,-817.792"/>
<polygon fill="midnightblue" stroke="midnightblue" points="2947.45,-820.873 2955.21,-813.658 2944.65,-814.459 2947.45,-820.873"/>
</g>
<!-- Node50 -->
<g id="node50" class="node"><title>Node50</title>
<polygon fill="white" stroke="#bfbfbf" points="3059,-794.5 3059,-813.5 3149,-813.5 3149,-794.5 3059,-794.5"/>
<text text-anchor="middle" x="3104" y="-801.5" font-family="Helvetica,sans-Serif" font-size="10.00">easylogging++.h</text>
</g>
<!-- Node1&#45;&gt;Node50 -->
<g id="edge148" class="edge"><title>Node1&#45;&gt;Node50</title>
<path fill="none" stroke="midnightblue" d="M2897.81,-851.295C2945.34,-840.623 3011.43,-825.786 3055.85,-815.811"/>
<polygon fill="midnightblue" stroke="midnightblue" points="3056.83,-819.178 3065.82,-813.572 3055.3,-812.348 3056.83,-819.178"/>
</g>
<!-- Node3 -->
<g id="node3" class="node"><title>Node3</title>
<g id="a_node3"><a xlink:href="_invoker_impl_8h.html" target="_top" xlink:title="uscxml/plugins/InvokerImpl.h">
<polygon fill="white" stroke="black" points="1883.5,-738.5 1883.5,-757.5 2028.5,-757.5 2028.5,-738.5 1883.5,-738.5"/>
<text text-anchor="middle" x="1956" y="-745.5" font-family="Helvetica,sans-Serif" font-size="10.00">uscxml/plugins/InvokerImpl.h</text>
</a>
</g>
</g>
<!-- Node2&#45;&gt;Node3 -->
<g id="edge2" class="edge"><title>Node2&#45;&gt;Node3</title>
<path fill="none" stroke="midnightblue" d="M2694.75,-799.883C2567.23,-791.1 2203.53,-766.05 2038.84,-754.706"/>
<polygon fill="midnightblue" stroke="midnightblue" points="2038.97,-751.207 2028.76,-754.011 2038.49,-758.19 2038.97,-751.207"/>
</g>
<!-- Node12 -->
<g id="node12" class="node"><title>Node12</title>
<polygon fill="white" stroke="#bfbfbf" points="2690,-112.5 2690,-131.5 2726,-131.5 2726,-112.5 2690,-112.5"/>
<text text-anchor="middle" x="2708" y="-119.5" font-family="Helvetica,sans-Serif" font-size="10.00">map</text>
</g>
<!-- Node2&#45;&gt;Node12 -->
<g id="edge141" class="edge"><title>Node2&#45;&gt;Node12</title>
<path fill="none" stroke="midnightblue" d="M2785.21,-798.012C2881.28,-786.156 3097,-752.316 3097,-687.5 3097,-687.5 3097,-687.5 3097,-244 3097,-183.476 3040.28,-190.273 2984,-168 2898.2,-134.045 2787.68,-125.704 2736.43,-123.66"/>
<polygon fill="midnightblue" stroke="midnightblue" points="2736.25,-120.152 2726.14,-123.305 2736.01,-127.148 2736.25,-120.152"/>
</g>
<!-- Node23 -->
<g id="node23" class="node"><title>Node23</title>
<polygon fill="white" stroke="#bfbfbf" points="1800,-235.5 1800,-254.5 1830,-254.5 1830,-235.5 1800,-235.5"/>
<text text-anchor="middle" x="1815" y="-242.5" font-family="Helvetica,sans-Serif" font-size="10.00">set</text>
</g>
<!-- Node2&#45;&gt;Node23 -->
<g id="edge142" class="edge"><title>Node2&#45;&gt;Node23</title>
<path fill="none" stroke="midnightblue" d="M2725.5,-794.311C2668.12,-760.127 2450.82,-632.634 2262,-548 2075.3,-464.32 1955.65,-550.46 1830,-389 1801.71,-352.652 1806.41,-294.416 1811.24,-264.724"/>
<polygon fill="midnightblue" stroke="midnightblue" points="1814.75,-264.992 1813.09,-254.527 1807.86,-263.74 1814.75,-264.992"/>
</g>
<!-- Node2&#45;&gt;Node47 -->
<g id="edge143" class="edge"><title>Node2&#45;&gt;Node47</title>
<path fill="none" stroke="midnightblue" d="M2785.07,-795.951C2789.77,-795.268 2794.48,-794.605 2799,-794 2937.35,-775.472 2973.16,-780.007 3111,-758 3112.44,-757.77 3113.91,-757.525 3115.39,-757.268"/>
<polygon fill="midnightblue" stroke="midnightblue" points="3116.04,-760.708 3125.24,-755.452 3114.77,-753.824 3116.04,-760.708"/>
</g>
<!-- Node3&#45;&gt;Node4 -->
<g id="edge3" class="edge"><title>Node3&#45;&gt;Node4</title>
<path fill="none" stroke="midnightblue" d="M2028.63,-745.691C2262.82,-740.517 2983,-716.779 2983,-620.5 2983,-620.5 2983,-620.5 2983,-305.5 2983,-273.049 2989.49,-255.088 2964,-235 2906.78,-189.897 1724.73,-211.774 1653,-199 1610.52,-191.435 1602.87,-178.423 1561,-168 1468.46,-144.964 1440.93,-148.97 1347.39,-132.92"/>
<polygon fill="midnightblue" stroke="midnightblue" points="1347.97,-129.468 1337.52,-131.194 1346.77,-136.363 1347.97,-129.468"/>
</g>
<!-- Node5 -->
<g id="node5" class="node"><title>Node5</title>
<g id="a_node5"><a xlink:href="_common_8h.html" target="_top" xlink:title="uscxml/Common.h">
<polygon fill="white" stroke="black" points="591.5,-56.5 591.5,-75.5 690.5,-75.5 690.5,-56.5 591.5,-56.5"/>
<text text-anchor="middle" x="641" y="-63.5" font-family="Helvetica,sans-Serif" font-size="10.00">uscxml/Common.h</text>
</a>
</g>
</g>
<!-- Node3&#45;&gt;Node5 -->
<g id="edge4" class="edge"><title>Node3&#45;&gt;Node5</title>
<path fill="none" stroke="midnightblue" d="M1883.44,-746.084C1533.64,-741.199 38,-714.799 38,-620.5 38,-620.5 38,-620.5 38,-244 38,-131.547 428.981,-85.4291 581.285,-71.7303"/>
<polygon fill="midnightblue" stroke="midnightblue" points="581.745,-75.2034 591.398,-70.837 581.129,-68.2306 581.745,-75.2034"/>
</g>
<!-- Node8 -->
<g id="node8" class="node"><title>Node8</title>
<g id="a_node8"><a xlink:href="_event_handler_8h.html" target="_top" xlink:title="uscxml/plugins/EventHandler.h">
<polygon fill="white" stroke="black" points="598,-297 598,-316 752,-316 752,-297 598,-297"/>
<text text-anchor="middle" x="675" y="-304" font-family="Helvetica,sans-Serif" font-size="10.00">uscxml/plugins/EventHandler.h</text>
</a>
</g>
</g>
<!-- Node3&#45;&gt;Node8 -->
<g id="edge7" class="edge"><title>Node3&#45;&gt;Node8</title>
<path fill="none" stroke="midnightblue" d="M1883.35,-746.296C1666.16,-743.172 1025.39,-726.255 841,-635 773.926,-601.805 755.271,-580.877 726,-512 699.194,-448.923 743.334,-421.682 718,-358 712.679,-344.626 702.303,-332.272 693.076,-323.131"/>
<polygon fill="midnightblue" stroke="midnightblue" points="695.425,-320.535 685.732,-316.256 690.641,-325.646 695.425,-320.535"/>
</g>
<!-- Node9 -->
<g id="node9" class="node"><title>Node9</title>
<g id="a_node9"><a xlink:href="_event_8h.html" target="_top" xlink:title="uscxml/messages/Event.h">
<polygon fill="white" stroke="black" points="1848.5,-235.5 1848.5,-254.5 1981.5,-254.5 1981.5,-235.5 1848.5,-235.5"/>
<text text-anchor="middle" x="1915" y="-242.5" font-family="Helvetica,sans-Serif" font-size="10.00">uscxml/messages/Event.h</text>
</a>
</g>
</g>
<!-- Node3&#45;&gt;Node9 -->
<g id="edge31" class="edge"><title>Node3&#45;&gt;Node9</title>
<path fill="none" stroke="midnightblue" d="M2010.46,-738.425C2132.58,-716.296 2413.29,-647.745 2356,-492 2288.47,-308.402 2097.96,-449.974 1950,-322 1932.79,-307.111 1923.53,-281.979 1918.94,-264.719"/>
<polygon fill="midnightblue" stroke="midnightblue" points="1922.28,-263.621 1916.56,-254.7 1915.47,-265.238 1922.28,-263.621"/>
</g>
<!-- Node20 -->
<g id="node20" class="node"><title>Node20</title>
<g id="a_node20"><a xlink:href="_interpreter_impl_8h.html" target="_top" xlink:title="uscxml/interpreter\l/InterpreterImpl.h">
<polygon fill="white" stroke="black" points="1630,-671.5 1630,-701.5 1726,-701.5 1726,-671.5 1630,-671.5"/>
<text text-anchor="start" x="1638" y="-689.5" font-family="Helvetica,sans-Serif" font-size="10.00">uscxml/interpreter</text>
<text text-anchor="middle" x="1678" y="-678.5" font-family="Helvetica,sans-Serif" font-size="10.00">/InterpreterImpl.h</text>
</a>
</g>
</g>
<!-- Node3&#45;&gt;Node20 -->
<g id="edge32" class="edge"><title>Node3&#45;&gt;Node20</title>
<path fill="none" stroke="midnightblue" d="M1916.17,-738.475C1869.06,-728.392 1790.24,-711.523 1736.27,-699.972"/>
<polygon fill="midnightblue" stroke="midnightblue" points="1736.67,-696.478 1726.16,-697.808 1735.21,-703.323 1736.67,-696.478"/>
</g>
<!-- Node6 -->
<g id="node6" class="node"><title>Node6</title>
<polygon fill="white" stroke="#bfbfbf" points="567,-0.5 567,-19.5 639,-19.5 639,-0.5 567,-0.5"/>
<text text-anchor="middle" x="603" y="-7.5" font-family="Helvetica,sans-Serif" font-size="10.00">sys/socket.h</text>
</g>
<!-- Node5&#45;&gt;Node6 -->
<g id="edge5" class="edge"><title>Node5&#45;&gt;Node6</title>
<path fill="none" stroke="midnightblue" d="M634.725,-56.083C629.358,-48.4554 621.482,-37.2645 614.921,-27.9408"/>
<polygon fill="midnightblue" stroke="midnightblue" points="617.775,-25.9149 609.158,-19.7511 612.051,-29.9434 617.775,-25.9149"/>
</g>
<!-- Node7 -->
<g id="node7" class="node"><title>Node7</title>
<polygon fill="white" stroke="#bfbfbf" points="657,-0.5 657,-19.5 701,-19.5 701,-0.5 657,-0.5"/>
<text text-anchor="middle" x="679" y="-7.5" font-family="Helvetica,sans-Serif" font-size="10.00">cmath</text>
</g>
<!-- Node5&#45;&gt;Node7 -->
<g id="edge6" class="edge"><title>Node5&#45;&gt;Node7</title>
<path fill="none" stroke="midnightblue" d="M647.275,-56.083C652.642,-48.4554 660.518,-37.2645 667.079,-27.9408"/>
<polygon fill="midnightblue" stroke="midnightblue" points="669.949,-29.9434 672.842,-19.7511 664.225,-25.9149 669.949,-29.9434"/>
</g>
<!-- Node8&#45;&gt;Node5 -->
<g id="edge8" class="edge"><title>Node8&#45;&gt;Node5</title>
<path fill="none" stroke="midnightblue" d="M634.108,-296.929C586.325,-284.485 509.426,-256.334 475,-199 455.095,-165.85 451.506,-142.711 475,-112 488.101,-94.8746 539.252,-82.7499 581.351,-75.434"/>
<polygon fill="midnightblue" stroke="midnightblue" points="581.996,-78.8749 591.278,-73.7671 580.836,-71.9716 581.996,-78.8749"/>
</g>
<!-- Node8&#45;&gt;Node9 -->
<g id="edge9" class="edge"><title>Node8&#45;&gt;Node9</title>
<path fill="none" stroke="midnightblue" d="M752.077,-304.141C937.317,-300.445 1422.32,-288.224 1838.18,-254.997"/>
<polygon fill="midnightblue" stroke="midnightblue" points="1838.61,-258.474 1848.3,-254.184 1838.05,-251.497 1838.61,-258.474"/>
</g>
<!-- Node11 -->
<g id="node11" class="node"><title>Node11</title>
<polygon fill="white" stroke="#bfbfbf" points="1040.5,-112.5 1040.5,-131.5 1069.5,-131.5 1069.5,-112.5 1040.5,-112.5"/>
<text text-anchor="middle" x="1055" y="-119.5" font-family="Helvetica,sans-Serif" font-size="10.00">list</text>
</g>
<!-- Node8&#45;&gt;Node11 -->
<g id="edge28" class="edge"><title>Node8&#45;&gt;Node11</title>
<path fill="none" stroke="midnightblue" d="M752.259,-298.864C825.943,-291.335 930.633,-277.145 965,-255 1008.4,-227.035 1036.27,-169.95 1048.25,-140.877"/>
<polygon fill="midnightblue" stroke="midnightblue" points="1051.52,-142.125 1051.94,-131.539 1045.01,-139.551 1051.52,-142.125"/>
</g>
<!-- Node13 -->
<g id="node13" class="node"><title>Node13</title>
<polygon fill="white" stroke="#bfbfbf" points="263.5,-56.5 263.5,-75.5 316.5,-75.5 316.5,-56.5 263.5,-56.5"/>
<text text-anchor="middle" x="290" y="-63.5" font-family="Helvetica,sans-Serif" font-size="10.00">memory</text>
</g>
<!-- Node8&#45;&gt;Node13 -->
<g id="edge30" class="edge"><title>Node8&#45;&gt;Node13</title>
<path fill="none" stroke="midnightblue" d="M625.995,-296.924C590.553,-289.35 542.355,-276.153 504,-255 417.405,-207.244 335.519,-119.385 303.822,-83.2127"/>
<polygon fill="midnightblue" stroke="midnightblue" points="306.383,-80.8236 297.19,-75.557 301.093,-85.407 306.383,-80.8236"/>
</g>
<!-- Node15 -->
<g id="node15" class="node"><title>Node15</title>
<polygon fill="white" stroke="#bfbfbf" points="1705.5,-56.5 1705.5,-75.5 1746.5,-75.5 1746.5,-56.5 1705.5,-56.5"/>
<text text-anchor="middle" x="1726" y="-63.5" font-family="Helvetica,sans-Serif" font-size="10.00">string</text>
</g>
<!-- Node8&#45;&gt;Node15 -->
<g id="edge29" class="edge"><title>Node8&#45;&gt;Node15</title>
<path fill="none" stroke="midnightblue" d="M670.337,-296.726C658.576,-273.261 630.66,-208.125 660,-168 708.452,-101.738 755.229,-126.638 836,-112 1006.26,-81.1426 1558.51,-69.8529 1695.19,-67.4948"/>
<polygon fill="midnightblue" stroke="midnightblue" points="1695.42,-70.9915 1705.36,-67.3227 1695.3,-63.9925 1695.42,-70.9915"/>
</g>
<!-- Node10 -->
<g id="node10" class="node"><title>Node10</title>
<g id="a_node10"><a xlink:href="_data_8h.html" target="_top" xlink:title="uscxml/messages/Data.h">
<polygon fill="white" stroke="black" points="1662,-174 1662,-193 1790,-193 1790,-174 1662,-174"/>
<text text-anchor="middle" x="1726" y="-181" font-family="Helvetica,sans-Serif" font-size="10.00">uscxml/messages/Data.h</text>
</a>
</g>
</g>
<!-- Node9&#45;&gt;Node10 -->
<g id="edge10" class="edge"><title>Node9&#45;&gt;Node10</title>
<path fill="none" stroke="midnightblue" d="M1887.92,-235.475C1855.08,-225.136 1799.57,-207.661 1762.85,-196.102"/>
<polygon fill="midnightblue" stroke="midnightblue" points="1763.62,-192.674 1753.03,-193.009 1761.52,-199.35 1763.62,-192.674"/>
</g>
<!-- Node19 -->
<g id="node19" class="node"><title>Node19</title>
<g id="a_node19"><a xlink:href="_u_u_i_d_8h.html" target="_top" xlink:title="uscxml/util/UUID.h">
<polygon fill="white" stroke="black" points="1958.5,-112.5 1958.5,-131.5 2057.5,-131.5 2057.5,-112.5 1958.5,-112.5"/>
<text text-anchor="middle" x="2008" y="-119.5" font-family="Helvetica,sans-Serif" font-size="10.00">uscxml/util/UUID.h</text>
</a>
</g>
</g>
<!-- Node9&#45;&gt;Node19 -->
<g id="edge25" class="edge"><title>Node9&#45;&gt;Node19</title>
<path fill="none" stroke="midnightblue" d="M1921.69,-235.298C1937.04,-215.327 1975.01,-165.921 1995.08,-139.804"/>
<polygon fill="midnightblue" stroke="midnightblue" points="1998.05,-141.685 2001.37,-131.623 1992.5,-137.419 1998.05,-141.685"/>
</g>
<!-- Node10&#45;&gt;Node4 -->
<g id="edge14" class="edge"><title>Node10&#45;&gt;Node4</title>
<path fill="none" stroke="midnightblue" d="M1682.35,-173.931C1671.17,-171.862 1659.16,-169.747 1648,-168 1541.9,-151.389 1417.13,-136.589 1347.97,-128.799"/>
<polygon fill="midnightblue" stroke="midnightblue" points="1348.09,-125.291 1337.77,-127.655 1347.31,-132.247 1348.09,-125.291"/>
</g>
<!-- Node10&#45;&gt;Node5 -->
<g id="edge15" class="edge"><title>Node10&#45;&gt;Node5</title>
<path fill="none" stroke="midnightblue" d="M1680.36,-173.95C1605.95,-159.991 1466.22,-133.684 1461,-132 1440.94,-125.533 1438.44,-117.145 1418,-112 1282.54,-77.9022 859.088,-69.5293 701.169,-67.5697"/>
<polygon fill="midnightblue" stroke="midnightblue" points="700.752,-64.0645 690.711,-67.4445 700.668,-71.064 700.752,-64.0645"/>
</g>
<!-- Node10&#45;&gt;Node11 -->
<g id="edge11" class="edge"><title>Node10&#45;&gt;Node11</title>
<path fill="none" stroke="midnightblue" d="M1661.97,-176.822C1518.12,-164.067 1174.56,-133.601 1079.65,-125.186"/>
<polygon fill="midnightblue" stroke="midnightblue" points="1079.85,-121.69 1069.58,-124.293 1079.23,-128.662 1079.85,-121.69"/>
</g>
<!-- Node10&#45;&gt;Node12 -->
<g id="edge12" class="edge"><title>Node10&#45;&gt;Node12</title>
<path fill="none" stroke="midnightblue" d="M1790.05,-178.619C1981.83,-166.999 2546.41,-132.791 2679.61,-124.72"/>
<polygon fill="midnightblue" stroke="midnightblue" points="2680.03,-128.201 2689.8,-124.102 2679.61,-121.214 2680.03,-128.201"/>
</g>
<!-- Node10&#45;&gt;Node13 -->
<g id="edge13" class="edge"><title>Node10&#45;&gt;Node13</title>
<path fill="none" stroke="midnightblue" d="M1681.49,-173.999C1670.55,-171.972 1658.86,-169.859 1648,-168 1546.02,-150.543 1519.13,-153.883 1418,-132 1385.54,-124.976 1378.82,-117.105 1346,-112 926.741,-46.7761 815.464,-102.655 392,-76 370.443,-74.6431 346.373,-72.5469 327.03,-70.7188"/>
<polygon fill="midnightblue" stroke="midnightblue" points="327.106,-67.21 316.817,-69.7372 326.436,-74.1779 327.106,-67.21"/>
</g>
<!-- Node14 -->
<g id="node14" class="node"><title>Node14</title>
<g id="a_node14"><a xlink:href="_convenience_8h.html" target="_top" xlink:title="uscxml/util/Convenience.h">
<polygon fill="white" stroke="black" points="1692.5,-112.5 1692.5,-131.5 1825.5,-131.5 1825.5,-112.5 1692.5,-112.5"/>
<text text-anchor="middle" x="1759" y="-119.5" font-family="Helvetica,sans-Serif" font-size="10.00">uscxml/util/Convenience.h</text>
</a>
</g>
</g>
<!-- Node10&#45;&gt;Node14 -->
<g id="edge16" class="edge"><title>Node10&#45;&gt;Node14</title>
<path fill="none" stroke="midnightblue" d="M1730.73,-173.975C1735.58,-165.227 1743.27,-151.369 1749.4,-140.309"/>
<polygon fill="midnightblue" stroke="midnightblue" points="1752.49,-141.952 1754.28,-131.509 1746.37,-138.557 1752.49,-141.952"/>
</g>
<!-- Node18 -->
<g id="node18" class="node"><title>Node18</title>
<g id="a_node18"><a xlink:href="_blob_8h.html" target="_top" xlink:title="uscxml/messages/Blob.h">
<polygon fill="white" stroke="black" points="1470.5,-112.5 1470.5,-131.5 1597.5,-131.5 1597.5,-112.5 1470.5,-112.5"/>
<text text-anchor="middle" x="1534" y="-119.5" font-family="Helvetica,sans-Serif" font-size="10.00">uscxml/messages/Blob.h</text>
</a>
</g>
</g>
<!-- Node10&#45;&gt;Node18 -->
<g id="edge21" class="edge"><title>Node10&#45;&gt;Node18</title>
<path fill="none" stroke="midnightblue" d="M1698.49,-173.975C1665.13,-163.636 1608.74,-146.161 1571.44,-134.602"/>
<polygon fill="midnightblue" stroke="midnightblue" points="1572.05,-131.126 1561.46,-131.509 1569.97,-137.812 1572.05,-131.126"/>
</g>
<!-- Node14&#45;&gt;Node5 -->
<g id="edge17" class="edge"><title>Node14&#45;&gt;Node5</title>
<path fill="none" stroke="midnightblue" d="M1692.29,-113.228C1687.46,-112.775 1682.66,-112.359 1678,-112 1307.04,-83.375 859.92,-71.6521 700.782,-68.1872"/>
<polygon fill="midnightblue" stroke="midnightblue" points="700.793,-64.6867 690.72,-67.9708 700.643,-71.6851 700.793,-64.6867"/>
</g>
<!-- Node14&#45;&gt;Node15 -->
<g id="edge18" class="edge"><title>Node14&#45;&gt;Node15</title>
<path fill="none" stroke="midnightblue" d="M1753.55,-112.083C1748.99,-104.613 1742.33,-93.7244 1736.71,-84.5199"/>
<polygon fill="midnightblue" stroke="midnightblue" points="1739.55,-82.4588 1731.35,-75.7511 1733.58,-86.109 1739.55,-82.4588"/>
</g>
<!-- Node16 -->
<g id="node16" class="node"><title>Node16</title>
<polygon fill="white" stroke="#bfbfbf" points="401.5,-56.5 401.5,-75.5 440.5,-75.5 440.5,-56.5 401.5,-56.5"/>
<text text-anchor="middle" x="421" y="-63.5" font-family="Helvetica,sans-Serif" font-size="10.00">limits</text>
</g>
<!-- Node14&#45;&gt;Node16 -->
<g id="edge19" class="edge"><title>Node14&#45;&gt;Node16</title>
<path fill="none" stroke="midnightblue" d="M1692.37,-116.738C1665.54,-115.111 1634.31,-113.33 1606,-112 1151.11,-90.6277 1036.92,-96.7096 582,-76 536.271,-73.9183 483.275,-70.8241 450.951,-68.8601"/>
<polygon fill="midnightblue" stroke="midnightblue" points="451.017,-65.3577 440.822,-68.2405 450.59,-72.3446 451.017,-65.3577"/>
</g>
<!-- Node17 -->
<g id="node17" class="node"><title>Node17</title>
<polygon fill="white" stroke="#bfbfbf" points="1765,-56.5 1765,-75.5 1817,-75.5 1817,-56.5 1765,-56.5"/>
<text text-anchor="middle" x="1791" y="-63.5" font-family="Helvetica,sans-Serif" font-size="10.00">sstream</text>
</g>
<!-- Node14&#45;&gt;Node17 -->
<g id="edge20" class="edge"><title>Node14&#45;&gt;Node17</title>
<path fill="none" stroke="midnightblue" d="M1764.28,-112.083C1768.71,-104.613 1775.16,-93.7244 1780.62,-84.5199"/>
<polygon fill="midnightblue" stroke="midnightblue" points="1783.73,-86.1383 1785.81,-75.7511 1777.71,-82.5697 1783.73,-86.1383"/>
</g>
<!-- Node18&#45;&gt;Node5 -->
<g id="edge24" class="edge"><title>Node18&#45;&gt;Node5</title>
<path fill="none" stroke="midnightblue" d="M1470.18,-113.322C1465.39,-112.841 1460.62,-112.394 1456,-112 1173.9,-87.9582 835.711,-74.0337 700.811,-69.0783"/>
<polygon fill="midnightblue" stroke="midnightblue" points="700.807,-65.5759 690.686,-68.7092 700.552,-72.5712 700.807,-65.5759"/>
</g>
<!-- Node18&#45;&gt;Node13 -->
<g id="edge23" class="edge"><title>Node18&#45;&gt;Node13</title>
<path fill="none" stroke="midnightblue" d="M1470.21,-115.563C1453.25,-114.251 1434.94,-112.954 1418,-112 962.441,-86.3467 847.417,-104.062 392,-76 370.442,-74.6716 346.371,-72.5769 327.029,-70.7424"/>
<polygon fill="midnightblue" stroke="midnightblue" points="327.106,-67.2337 316.816,-69.7566 326.433,-74.2013 327.106,-67.2337"/>
</g>
<!-- Node18&#45;&gt;Node15 -->
<g id="edge22" class="edge"><title>Node18&#45;&gt;Node15</title>
<path fill="none" stroke="midnightblue" d="M1564.42,-112.444C1600.32,-102.347 1659.65,-85.6606 1695.56,-75.562"/>
<polygon fill="midnightblue" stroke="midnightblue" points="1696.78,-78.8536 1705.46,-72.7767 1694.89,-72.115 1696.78,-78.8536"/>
</g>
<!-- Node19&#45;&gt;Node5 -->
<g id="edge26" class="edge"><title>Node19&#45;&gt;Node5</title>
<path fill="none" stroke="midnightblue" d="M1958.44,-113.507C1953.57,-112.928 1948.69,-112.41 1944,-112 1465.7,-70.2268 885.459,-66.7839 700.578,-66.8311"/>
<polygon fill="midnightblue" stroke="midnightblue" points="700.517,-63.331 690.519,-66.8373 700.522,-70.331 700.517,-63.331"/>
</g>
<!-- Node19&#45;&gt;Node15 -->
<g id="edge27" class="edge"><title>Node19&#45;&gt;Node15</title>
<path fill="none" stroke="midnightblue" d="M1958.4,-113.865C1909.42,-106.434 1832.25,-93.6958 1756.31,-75.8309"/>
<polygon fill="midnightblue" stroke="midnightblue" points="1757.11,-72.4245 1746.57,-73.5106 1755.49,-79.2338 1757.11,-72.4245"/>
</g>
<!-- Node20&#45;&gt;Node5 -->
<g id="edge38" class="edge"><title>Node20&#45;&gt;Node5</title>
<path fill="none" stroke="midnightblue" d="M1629.69,-685.847C1402.32,-687.193 444.79,-689.556 324,-635 214.562,-585.572 116.703,-539.143 154,-425 207.537,-261.157 236.588,-202.963 383,-112 415.307,-91.9286 515.575,-78.8725 581.179,-72.2345"/>
<polygon fill="midnightblue" stroke="midnightblue" points="581.788,-75.6915 591.395,-71.2242 581.099,-68.7255 581.788,-75.6915"/>
</g>
<!-- Node20&#45;&gt;Node11 -->
<g id="edge35" class="edge"><title>Node20&#45;&gt;Node11</title>
<path fill="none" stroke="midnightblue" d="M1629.88,-684.757C1493.84,-682.242 1094.95,-672.014 766,-635 566.181,-612.516 320,-760.08 320,-559 320,-559 320,-559 320,-501 320,-388.58 369.368,-356.13 461,-291 592.448,-197.569 668.24,-272.083 812,-199 831.429,-189.123 830.376,-177.484 850,-168 881.806,-152.629 983.033,-134.727 1030.28,-126.946"/>
<polygon fill="midnightblue" stroke="midnightblue" points="1030.97,-130.38 1040.27,-125.318 1029.84,-123.471 1030.97,-130.38"/>
</g>
<!-- Node20&#45;&gt;Node12 -->
<g id="edge36" class="edge"><title>Node20&#45;&gt;Node12</title>
<path fill="none" stroke="midnightblue" d="M1726.14,-683.462C1849.21,-677.929 2172.9,-661.259 2277,-635 2615.33,-549.657 2805.67,-613.798 2997,-322 3036.03,-262.472 3008.98,-211.965 2953,-168 2919.61,-141.778 2793.32,-129.308 2736.27,-124.92"/>
<polygon fill="midnightblue" stroke="midnightblue" points="2736.38,-121.419 2726.15,-124.171 2735.86,-128.4 2736.38,-121.419"/>
</g>
<!-- Node20&#45;&gt;Node13 -->
<g id="edge33" class="edge"><title>Node20&#45;&gt;Node13</title>
<path fill="none" stroke="midnightblue" d="M1629.84,-685.59C1396.4,-685.786 388.644,-683.779 258,-635 165.507,-600.466 0,-393.513 0,-374.5 0,-374.5 0,-374.5 0,-182.5 0,-128.496 175.768,-88.5743 253.626,-73.5399"/>
<polygon fill="midnightblue" stroke="midnightblue" points="254.324,-76.97 263.496,-71.6664 253.018,-70.0928 254.324,-76.97"/>
</g>
<!-- Node20&#45;&gt;Node15 -->
<g id="edge37" class="edge"><title>Node20&#45;&gt;Node15</title>
<path fill="none" stroke="midnightblue" d="M1726.24,-683.582C1825.9,-679.043 2051.07,-665.636 2121,-635 2168.33,-614.262 2209,-610.678 2209,-559 2209,-559 2209,-559 2209,-439.5 2209,-288.781 2250.66,-188.838 2121,-112 2053.35,-71.9087 1850.89,-90.3612 1756.41,-75.4901"/>
<polygon fill="midnightblue" stroke="midnightblue" points="1756.98,-72.0371 1746.53,-73.7273 1755.76,-78.9284 1756.98,-72.0371"/>
</g>
<!-- Node21 -->
<g id="node21" class="node"><title>Node21</title>
<polygon fill="white" stroke="#bfbfbf" points="2152,-235.5 2152,-254.5 2196,-254.5 2196,-235.5 2152,-235.5"/>
<text text-anchor="middle" x="2174" y="-242.5" font-family="Helvetica,sans-Serif" font-size="10.00">mutex</text>
</g>
<!-- Node20&#45;&gt;Node21 -->
<g id="edge34" class="edge"><title>Node20&#45;&gt;Node21</title>
<path fill="none" stroke="midnightblue" d="M1726.17,-683.374C1850.22,-676.592 2171,-650.235 2171,-559 2171,-559 2171,-559 2171,-372.5 2171,-334.192 2172.39,-289.376 2173.28,-264.694"/>
<polygon fill="midnightblue" stroke="midnightblue" points="2176.78,-264.711 2173.66,-254.588 2169.79,-264.451 2176.78,-264.711"/>
</g>
<!-- Node22 -->
<g id="node22" class="node"><title>Node22</title>
<g id="a_node22"><a xlink:href="_u_r_l_8h.html" target="_top" xlink:title="uscxml/util/URL.h">
<polygon fill="white" stroke="black" points="2665,-297 2665,-316 2759,-316 2759,-297 2665,-297"/>
<text text-anchor="middle" x="2712" y="-304" font-family="Helvetica,sans-Serif" font-size="10.00">uscxml/util/URL.h</text>
</a>
</g>
</g>
<!-- Node20&#45;&gt;Node22 -->
<g id="edge39" class="edge"><title>Node20&#45;&gt;Node22</title>
<path fill="none" stroke="midnightblue" d="M1726.35,-683.545C1855.77,-677.987 2203.32,-660.809 2248,-635 2288.89,-611.378 2274.4,-580.144 2309,-548 2429.57,-435.974 2610.78,-351 2681.86,-320.135"/>
<polygon fill="midnightblue" stroke="midnightblue" points="2683.34,-323.309 2691.15,-316.142 2680.58,-316.879 2683.34,-323.309"/>
</g>
<!-- Node28 -->
<g id="node28" class="node"><title>Node28</title>
<g id="a_node28"><a xlink:href="_factory_8h.html" target="_top" xlink:title="uscxml/plugins/Factory.h">
<polygon fill="white" stroke="black" points="735.5,-492.5 735.5,-511.5 862.5,-511.5 862.5,-492.5 735.5,-492.5"/>
<text text-anchor="middle" x="799" y="-499.5" font-family="Helvetica,sans-Serif" font-size="10.00">uscxml/plugins/Factory.h</text>
</a>
</g>
</g>
<!-- Node20&#45;&gt;Node28 -->
<g id="edge51" class="edge"><title>Node20&#45;&gt;Node28</title>
<path fill="none" stroke="midnightblue" d="M1629.86,-685.064C1466.68,-683.232 941.108,-674.307 877,-635 834.945,-609.214 812.902,-551.586 803.936,-521.731"/>
<polygon fill="midnightblue" stroke="midnightblue" points="807.211,-520.447 801.126,-511.774 800.474,-522.348 807.211,-520.447"/>
</g>
<!-- Node32 -->
<g id="node32" class="node"><title>Node32</title>
<polygon fill="white" stroke="#bfbfbf" points="1283.5,-235.5 1283.5,-254.5 1402.5,-254.5 1402.5,-235.5 1283.5,-235.5"/>
<text text-anchor="middle" x="1343" y="-242.5" font-family="Helvetica,sans-Serif" font-size="10.00">xercesc/dom/DOM.hpp</text>
</g>
<!-- Node20&#45;&gt;Node32 -->
<g id="edge140" class="edge"><title>Node20&#45;&gt;Node32</title>
<path fill="none" stroke="midnightblue" d="M1667.97,-671.195C1631.31,-619.114 1500.59,-435.123 1383,-291 1375.07,-281.281 1365.79,-270.786 1358.16,-262.378"/>
<polygon fill="midnightblue" stroke="midnightblue" points="1360.53,-259.784 1351.2,-254.771 1355.37,-264.511 1360.53,-259.784"/>
</g>
<!-- Node33 -->
<g id="node33" class="node"><title>Node33</title>
<g id="a_node33"><a xlink:href="_data_model_impl_8h.html" target="_top" xlink:title="uscxml/plugins/DataModel\lImpl.h">
<polygon fill="white" stroke="black" points="464.5,-425.5 464.5,-455.5 597.5,-455.5 597.5,-425.5 464.5,-425.5"/>
<text text-anchor="start" x="472.5" y="-443.5" font-family="Helvetica,sans-Serif" font-size="10.00">uscxml/plugins/DataModel</text>
<text text-anchor="middle" x="531" y="-432.5" font-family="Helvetica,sans-Serif" font-size="10.00">Impl.h</text>
</a>
</g>
</g>
<!-- Node20&#45;&gt;Node33 -->
<g id="edge86" class="edge"><title>Node20&#45;&gt;Node33</title>
<path fill="none" stroke="midnightblue" d="M1629.79,-685.695C1474.58,-685.839 989.383,-682.391 841,-635 722.739,-597.23 604.146,-504.145 554.825,-462.376"/>
<polygon fill="midnightblue" stroke="midnightblue" points="556.849,-459.501 546.974,-455.662 552.3,-464.821 556.849,-459.501"/>
</g>
<!-- Node35 -->
<g id="node35" class="node"><title>Node35</title>
<g id="a_node35"><a xlink:href="_micro_step_impl_8h.html" target="_top" xlink:title="uscxml/interpreter\l/MicroStepImpl.h">
<polygon fill="white" stroke="black" points="1366,-604.5 1366,-634.5 1462,-634.5 1462,-604.5 1366,-604.5"/>
<text text-anchor="start" x="1374" y="-622.5" font-family="Helvetica,sans-Serif" font-size="10.00">uscxml/interpreter</text>
<text text-anchor="middle" x="1414" y="-611.5" font-family="Helvetica,sans-Serif" font-size="10.00">/MicroStepImpl.h</text>
</a>
</g>
</g>
<!-- Node20&#45;&gt;Node35 -->
<g id="edge87" class="edge"><title>Node20&#45;&gt;Node35</title>
<path fill="none" stroke="midnightblue" d="M1629.89,-673.654C1585.45,-662.714 1519.37,-646.444 1472.03,-634.788"/>
<polygon fill="midnightblue" stroke="midnightblue" points="1472.78,-631.367 1462.23,-632.375 1471.1,-638.164 1472.78,-631.367"/>
</g>
<!-- Node39 -->
<g id="node39" class="node"><title>Node39</title>
<g id="a_node39"><a xlink:href="_event_queue_8h.html" target="_top" xlink:title="uscxml/interpreter\l/EventQueue.h">
<polygon fill="white" stroke="black" points="986,-425.5 986,-455.5 1082,-455.5 1082,-425.5 986,-425.5"/>
<text text-anchor="start" x="994" y="-443.5" font-family="Helvetica,sans-Serif" font-size="10.00">uscxml/interpreter</text>
<text text-anchor="middle" x="1034" y="-432.5" font-family="Helvetica,sans-Serif" font-size="10.00">/EventQueue.h</text>
</a>
</g>
</g>
<!-- Node20&#45;&gt;Node39 -->
<g id="edge128" class="edge"><title>Node20&#45;&gt;Node39</title>
<path fill="none" stroke="midnightblue" d="M1629.61,-683.318C1497.87,-676.337 1137.32,-649.98 1058,-568 1031.79,-540.912 1029.7,-494.628 1031.32,-466.186"/>
<polygon fill="midnightblue" stroke="midnightblue" points="1034.83,-466.13 1032.11,-455.89 1027.85,-465.591 1034.83,-466.13"/>
</g>
<!-- Node40 -->
<g id="node40" class="node"><title>Node40</title>
<g id="a_node40"><a xlink:href="_content_executor_impl_8h.html" target="_top" xlink:title="uscxml/interpreter\l/ContentExecutorImpl.h">
<polygon fill="white" stroke="black" points="1839.5,-358.5 1839.5,-388.5 1960.5,-388.5 1960.5,-358.5 1839.5,-358.5"/>
<text text-anchor="start" x="1847.5" y="-376.5" font-family="Helvetica,sans-Serif" font-size="10.00">uscxml/interpreter</text>
<text text-anchor="middle" x="1900" y="-365.5" font-family="Helvetica,sans-Serif" font-size="10.00">/ContentExecutorImpl.h</text>
</a>
</g>
</g>
<!-- Node20&#45;&gt;Node40 -->
<g id="edge110" class="edge"><title>Node20&#45;&gt;Node40</title>
<path fill="none" stroke="midnightblue" d="M1726.37,-673.427C1778.77,-657.104 1855,-622.454 1855,-559 1855,-559 1855,-559 1855,-501 1855,-463.136 1873.12,-422.392 1886.36,-397.667"/>
<polygon fill="midnightblue" stroke="midnightblue" points="1889.54,-399.156 1891.32,-388.712 1883.42,-395.763 1889.54,-399.156"/>
</g>
<!-- Node41 -->
<g id="node41" class="node"><title>Node41</title>
<g id="a_node41"><a xlink:href="_d_o_m_8h.html" target="_top" xlink:title="uscxml/util/DOM.h">
<polygon fill="white" stroke="black" points="1501,-297 1501,-316 1599,-316 1599,-297 1501,-297"/>
<text text-anchor="middle" x="1550" y="-304" font-family="Helvetica,sans-Serif" font-size="10.00">uscxml/util/DOM.h</text>
</a>
</g>
</g>
<!-- Node20&#45;&gt;Node41 -->
<g id="edge139" class="edge"><title>Node20&#45;&gt;Node41</title>
<path fill="none" stroke="midnightblue" d="M1681.57,-671.187C1687.08,-647.852 1697,-600.085 1697,-559 1697,-559 1697,-559 1697,-439.5 1697,-378.593 1626.27,-338.672 1582.94,-319.927"/>
<polygon fill="midnightblue" stroke="midnightblue" points="1584.19,-316.659 1573.62,-316.038 1581.5,-323.119 1584.19,-316.659"/>
</g>
<!-- Node45 -->
<g id="node45" class="node"><title>Node45</title>
<g id="a_node45"><a xlink:href="_event_queue_impl_8h.html" target="_top" xlink:title="uscxml/interpreter\l/EventQueueImpl.h">
<polygon fill="white" stroke="black" points="2264,-291.5 2264,-321.5 2366,-321.5 2366,-291.5 2264,-291.5"/>
<text text-anchor="start" x="2272" y="-309.5" font-family="Helvetica,sans-Serif" font-size="10.00">uscxml/interpreter</text>
<text text-anchor="middle" x="2315" y="-298.5" font-family="Helvetica,sans-Serif" font-size="10.00">/EventQueueImpl.h</text>
</a>
</g>
</g>
<!-- Node20&#45;&gt;Node45 -->
<g id="edge129" class="edge"><title>Node20&#45;&gt;Node45</title>
<path fill="none" stroke="midnightblue" d="M1726.05,-684.051C1852.01,-679.835 2184.72,-665.869 2223,-635 2250.57,-612.764 2247,-594.422 2247,-559 2247,-559 2247,-559 2247,-501 2247,-436.556 2280.99,-366.519 2300.91,-331.007"/>
<polygon fill="midnightblue" stroke="midnightblue" points="2304.17,-332.355 2306.11,-321.94 2298.1,-328.87 2304.17,-332.355"/>
</g>
<!-- Node22&#45;&gt;Node5 -->
<g id="edge40" class="edge"><title>Node22&#45;&gt;Node5</title>
<path fill="none" stroke="midnightblue" d="M2713.03,-296.61C2714.24,-281.531 2714.23,-251.019 2697,-235 2574.11,-120.75 2112.49,-169.735 1949,-132 1921.2,-125.584 1916.09,-117.008 1888,-112 1655.87,-70.611 916.854,-67.0729 700.84,-66.9409"/>
<polygon fill="midnightblue" stroke="midnightblue" points="700.653,-63.441 690.652,-66.937 700.65,-70.441 700.653,-63.441"/>
</g>
<!-- Node22&#45;&gt;Node9 -->
<g id="edge41" class="edge"><title>Node22&#45;&gt;Node9</title>
<path fill="none" stroke="midnightblue" d="M2664.83,-301.978C2532.22,-292.079 2155.24,-263.935 1991.96,-251.746"/>
<polygon fill="midnightblue" stroke="midnightblue" points="1991.75,-248.22 1981.52,-250.966 1991.23,-255.201 1991.75,-248.22"/>
</g>
<!-- Node22&#45;&gt;Node11 -->
<g id="edge46" class="edge"><title>Node22&#45;&gt;Node11</title>
<path fill="none" stroke="midnightblue" d="M2710.08,-296.628C2706.17,-280.995 2695.66,-248.888 2673,-235 2623.09,-204.413 1678.33,-203.908 1620,-199 1409.95,-181.326 1158.33,-140.456 1079.71,-127.22"/>
<polygon fill="midnightblue" stroke="midnightblue" points="1080.22,-123.758 1069.78,-125.541 1079.06,-130.66 1080.22,-123.758"/>
</g>
<!-- Node22&#45;&gt;Node12 -->
<g id="edge44" class="edge"><title>Node22&#45;&gt;Node12</title>
<path fill="none" stroke="midnightblue" d="M2759.26,-302.964C2824.94,-298.34 2938.62,-285.974 2964,-255 3030.45,-173.918 2816.39,-137.113 2736.68,-126.442"/>
<polygon fill="midnightblue" stroke="midnightblue" points="2736.74,-122.92 2726.37,-125.108 2735.84,-129.862 2736.74,-122.92"/>
</g>
<!-- Node22&#45;&gt;Node15 -->
<g id="edge42" class="edge"><title>Node22&#45;&gt;Node15</title>
<path fill="none" stroke="midnightblue" d="M2719.82,-297C2727.93,-287.557 2740.1,-271.462 2745,-255 2757.9,-211.666 2800.56,-174.718 2735,-112 2697.09,-75.7377 1872.61,-84.1947 1756.78,-75.0871"/>
<polygon fill="midnightblue" stroke="midnightblue" points="1757.14,-71.6061 1746.82,-73.9855 1756.38,-78.5636 1757.14,-71.6061"/>
</g>
<!-- Node22&#45;&gt;Node17 -->
<g id="edge43" class="edge"><title>Node22&#45;&gt;Node17</title>
<path fill="none" stroke="midnightblue" d="M2759.05,-301.329C2894.92,-287.688 3270.73,-237.828 3149,-112 3101.74,-63.1525 2038.72,-65.7865 1827.35,-66.7964"/>
<polygon fill="midnightblue" stroke="midnightblue" points="1827.09,-63.2975 1817.11,-66.8473 1827.13,-70.2974 1827.09,-63.2975"/>
</g>
<!-- Node22&#45;&gt;Node23 -->
<g id="edge45" class="edge"><title>Node22&#45;&gt;Node23</title>
<path fill="none" stroke="midnightblue" d="M2664.77,-303.599C2500.25,-296.867 1956.49,-273.653 1840.2,-254.336"/>
<polygon fill="midnightblue" stroke="midnightblue" points="1840.5,-250.833 1830.03,-252.42 1839.21,-257.712 1840.5,-250.833"/>
</g>
<!-- Node24 -->
<g id="node24" class="node"><title>Node24</title>
<polygon fill="white" stroke="#bfbfbf" points="2504.5,-235.5 2504.5,-254.5 2549.5,-254.5 2549.5,-235.5 2504.5,-235.5"/>
<text text-anchor="middle" x="2527" y="-242.5" font-family="Helvetica,sans-Serif" font-size="10.00">thread</text>
</g>
<!-- Node22&#45;&gt;Node24 -->
<g id="edge47" class="edge"><title>Node22&#45;&gt;Node24</title>
<path fill="none" stroke="midnightblue" d="M2685.49,-296.975C2652.3,-286.3 2595.46,-268.018 2559.63,-256.494"/>
<polygon fill="midnightblue" stroke="midnightblue" points="2560.27,-253.023 2549.67,-253.293 2558.12,-259.686 2560.27,-253.023"/>
</g>
<!-- Node25 -->
<g id="node25" class="node"><title>Node25</title>
<polygon fill="white" stroke="#bfbfbf" points="2567.5,-235.5 2567.5,-254.5 2664.5,-254.5 2664.5,-235.5 2567.5,-235.5"/>
<text text-anchor="middle" x="2616" y="-242.5" font-family="Helvetica,sans-Serif" font-size="10.00">condition_variable</text>
</g>
<!-- Node22&#45;&gt;Node25 -->
<g id="edge48" class="edge"><title>Node22&#45;&gt;Node25</title>
<path fill="none" stroke="midnightblue" d="M2698.25,-296.975C2682.63,-287.299 2656.94,-271.372 2638.42,-259.894"/>
<polygon fill="midnightblue" stroke="midnightblue" points="2640.07,-256.802 2629.73,-254.509 2636.38,-262.752 2640.07,-256.802"/>
</g>
<!-- Node26 -->
<g id="node26" class="node"><title>Node26</title>
<polygon fill="white" stroke="#bfbfbf" points="2797,-235.5 2797,-254.5 2857,-254.5 2857,-235.5 2797,-235.5"/>
<text text-anchor="middle" x="2827" y="-242.5" font-family="Helvetica,sans-Serif" font-size="10.00">curl/curl.h</text>
</g>
<!-- Node22&#45;&gt;Node26 -->
<g id="edge49" class="edge"><title>Node22&#45;&gt;Node26</title>
<path fill="none" stroke="midnightblue" d="M2728.48,-296.975C2747.61,-287.078 2779.37,-270.642 2801.65,-259.115"/>
<polygon fill="midnightblue" stroke="midnightblue" points="2803.28,-262.213 2810.55,-254.509 2800.06,-255.996 2803.28,-262.213"/>
</g>
<!-- Node27 -->
<g id="node27" class="node"><title>Node27</title>
<polygon fill="white" stroke="#bfbfbf" points="2875,-235.5 2875,-254.5 2955,-254.5 2955,-235.5 2875,-235.5"/>
<text text-anchor="middle" x="2915" y="-242.5" font-family="Helvetica,sans-Serif" font-size="10.00">uriparser/Uri.h</text>
</g>
<!-- Node22&#45;&gt;Node27 -->
<g id="edge50" class="edge"><title>Node22&#45;&gt;Node27</title>
<path fill="none" stroke="midnightblue" d="M2741.08,-296.975C2776.58,-286.57 2836.75,-268.937 2876.17,-257.38"/>
<polygon fill="midnightblue" stroke="midnightblue" points="2877.36,-260.681 2885.97,-254.509 2875.39,-253.963 2877.36,-260.681"/>
</g>
<!-- Node28&#45;&gt;Node5 -->
<g id="edge52" class="edge"><title>Node28&#45;&gt;Node5</title>
<path fill="none" stroke="midnightblue" d="M735.275,-497.667C649.675,-492.343 502.772,-479.985 455,-456 417.923,-437.384 405.873,-427.332 390,-389 342.227,-273.629 341.421,-192.358 437,-112 458.536,-93.8936 528.903,-81.2051 580.999,-74.0182"/>
<polygon fill="midnightblue" stroke="midnightblue" points="581.709,-77.4543 591.154,-72.6542 580.777,-70.5165 581.709,-77.4543"/>
</g>
<!-- Node28&#45;&gt;Node8 -->
<g id="edge59" class="edge"><title>Node28&#45;&gt;Node8</title>
<path fill="none" stroke="midnightblue" d="M798.15,-492.353C795.427,-468.581 785.066,-401.143 752,-358 739.562,-341.772 720.333,-329.154 704.203,-320.589"/>
<polygon fill="midnightblue" stroke="midnightblue" points="705.643,-317.396 695.138,-316.019 702.491,-323.646 705.643,-317.396"/>
</g>
<!-- Node28&#45;&gt;Node13 -->
<g id="edge83" class="edge"><title>Node28&#45;&gt;Node13</title>
<path fill="none" stroke="midnightblue" d="M735.395,-497.866C628.176,-492.055 416.187,-478.146 345,-456 214.601,-415.434 76,-444.063 76,-307.5 76,-307.5 76,-307.5 76,-244 76,-152.885 192.617,-99.8379 253.678,-78.3074"/>
<polygon fill="midnightblue" stroke="midnightblue" points="255.002,-81.5536 263.329,-75.0035 252.735,-74.9309 255.002,-81.5536"/>
</g>
<!-- Node28&#45;&gt;Node15 -->
<g id="edge82" class="edge"><title>Node28&#45;&gt;Node15</title>
<path fill="none" stroke="midnightblue" d="M824.227,-492.371C845.39,-484.534 875.928,-471.801 900,-456 900.575,-455.622 972.66,-389.598 973,-389 1035.2,-279.678 935.985,-194.419 1031,-112 1081.7,-68.0223 1567.24,-66.4789 1695.21,-66.8437"/>
<polygon fill="midnightblue" stroke="midnightblue" points="1695.46,-70.3445 1705.47,-66.8795 1695.48,-63.3445 1695.46,-70.3445"/>
</g>
<!-- Node28&#45;&gt;Node16 -->
<g id="edge85" class="edge"><title>Node28&#45;&gt;Node16</title>
<path fill="none" stroke="midnightblue" d="M735.459,-498.612C640.338,-494.207 466.094,-482.692 410,-456 294.493,-401.036 253.677,-372.877 204,-255 183.766,-206.988 175.445,-177.834 247,-112 267.948,-92.727 347.422,-78.0679 391.357,-71.2359"/>
<polygon fill="midnightblue" stroke="midnightblue" points="392.083,-74.6658 401.446,-69.7074 391.035,-67.7448 392.083,-74.6658"/>
</g>
<!-- Node28&#45;&gt;Node23 -->
<g id="edge84" class="edge"><title>Node28&#45;&gt;Node23</title>
<path fill="none" stroke="midnightblue" d="M834,-492.474C861.959,-484.932 901.674,-472.551 934,-456 954.971,-445.263 955.238,-434.027 977,-425 1042.62,-397.78 1539.29,-340.046 1608,-322 1675.81,-304.19 1752.53,-272.968 1790.72,-256.638"/>
<polygon fill="midnightblue" stroke="midnightblue" points="1792.2,-259.81 1800,-252.637 1789.43,-253.382 1792.2,-259.81"/>
</g>
<!-- Node29 -->
<g id="node29" class="node"><title>Node29</title>
<g id="a_node29"><a xlink:href="_executable_content_8h.html" target="_top" xlink:title="uscxml/plugins/Executable\lContent.h">
<polygon fill="white" stroke="black" points="669,-168.5 669,-198.5 803,-198.5 803,-168.5 669,-168.5"/>
<text text-anchor="start" x="677" y="-186.5" font-family="Helvetica,sans-Serif" font-size="10.00">uscxml/plugins/Executable</text>
<text text-anchor="middle" x="736" y="-175.5" font-family="Helvetica,sans-Serif" font-size="10.00">Content.h</text>
</a>
</g>
</g>
<!-- Node28&#45;&gt;Node29 -->
<g id="edge53" class="edge"><title>Node28&#45;&gt;Node29</title>
<path fill="none" stroke="midnightblue" d="M805.379,-492.062C816.634,-476.779 841.358,-445.315 868,-425 896.134,-403.548 920.484,-419.148 939,-389 946.21,-377.26 944.766,-370.513 939,-358 934.177,-347.533 814.352,-248.634 761.104,-205.007"/>
<polygon fill="midnightblue" stroke="midnightblue" points="763.112,-202.128 753.157,-198.502 758.678,-207.545 763.112,-202.128"/>
</g>
<!-- Node30 -->
<g id="node30" class="node"><title>Node30</title>
<g id="a_node30"><a xlink:href="_i_o_processor_8h.html" target="_top" xlink:title="uscxml/plugins/IOProcessor.h">
<polygon fill="white" stroke="black" points="560.5,-364 560.5,-383 709.5,-383 709.5,-364 560.5,-364"/>
<text text-anchor="middle" x="635" y="-371" font-family="Helvetica,sans-Serif" font-size="10.00">uscxml/plugins/IOProcessor.h</text>
</a>
</g>
</g>
<!-- Node28&#45;&gt;Node30 -->
<g id="edge60" class="edge"><title>Node28&#45;&gt;Node30</title>
<path fill="none" stroke="midnightblue" d="M787.728,-492.305C760.108,-471.001 688.801,-415.999 654.285,-389.375"/>
<polygon fill="midnightblue" stroke="midnightblue" points="656.407,-386.592 646.351,-383.256 652.132,-392.135 656.407,-386.592"/>
</g>
<!-- Node31 -->
<g id="node31" class="node"><title>Node31</title>
<g id="a_node31"><a xlink:href="_invoker_8h.html" target="_top" xlink:title="uscxml/plugins/Invoker.h">
<polygon fill="white" stroke="black" points="804,-364 804,-383 930,-383 930,-364 804,-364"/>
<text text-anchor="middle" x="867" y="-371" font-family="Helvetica,sans-Serif" font-size="10.00">uscxml/plugins/Invoker.h</text>
</a>
</g>
</g>
<!-- Node28&#45;&gt;Node31 -->
<g id="edge64" class="edge"><title>Node28&#45;&gt;Node31</title>
<path fill="none" stroke="midnightblue" d="M801.785,-492.25C806.562,-477.771 817.065,-448.134 830,-425 836.66,-413.088 845.688,-400.713 853.159,-391.194"/>
<polygon fill="midnightblue" stroke="midnightblue" points="855.927,-393.336 859.469,-383.351 850.474,-388.948 855.927,-393.336"/>
</g>
<!-- Node28&#45;&gt;Node33 -->
<g id="edge70" class="edge"><title>Node28&#45;&gt;Node33</title>
<path fill="none" stroke="midnightblue" d="M760.602,-492.475C719.895,-483.438 654.628,-468.947 604.067,-457.722"/>
<polygon fill="midnightblue" stroke="midnightblue" points="604.683,-454.274 594.162,-455.523 603.166,-461.107 604.683,-454.274"/>
</g>
<!-- Node34 -->
<g id="node34" class="node"><title>Node34</title>
<g id="a_node34"><a xlink:href="_string_8h.html" target="_top" xlink:title="string.h">
<polygon fill="white" stroke="black" points="859.5,-174 859.5,-193 908.5,-193 908.5,-174 859.5,-174"/>
<text text-anchor="middle" x="884" y="-181" font-family="Helvetica,sans-Serif" font-size="10.00">string.h</text>
</a>
</g>
</g>
<!-- Node28&#45;&gt;Node34 -->
<g id="edge79" class="edge"><title>Node28&#45;&gt;Node34</title>
<path fill="none" stroke="midnightblue" d="M812.276,-492.464C825.925,-483.6 847.71,-469.206 866,-456 884.235,-442.833 887.982,-438.462 906,-425 927.936,-408.61 943.516,-413.372 956,-389 962.281,-376.737 960.866,-370.89 956,-358 941.986,-320.88 924.153,-319.932 897,-291 881.515,-274.501 869.659,-275.905 861,-255 853.644,-237.242 862.691,-216.219 871.51,-201.778"/>
<polygon fill="midnightblue" stroke="midnightblue" points="874.495,-203.61 877.098,-193.34 868.658,-199.745 874.495,-203.61"/>
</g>
<!-- Node29&#45;&gt;Node4 -->
<g id="edge54" class="edge"><title>Node29&#45;&gt;Node4</title>
<path fill="none" stroke="midnightblue" d="M803.178,-173.663C818.555,-171.722 834.836,-169.731 850,-168 991.642,-151.833 1158.99,-135.71 1242.33,-127.883"/>
<polygon fill="midnightblue" stroke="midnightblue" points="1242.68,-131.366 1252.31,-126.948 1242.03,-124.396 1242.68,-131.366"/>
</g>
<!-- Node29&#45;&gt;Node5 -->
<g id="edge55" class="edge"><title>Node29&#45;&gt;Node5</title>
<path fill="none" stroke="midnightblue" d="M724.351,-168.337C706.69,-146.865 673.219,-106.172 654.513,-83.4293"/>
<polygon fill="midnightblue" stroke="midnightblue" points="657.186,-81.1693 648.131,-75.6695 651.78,-85.616 657.186,-81.1693"/>
</g>
<!-- Node29&#45;&gt;Node13 -->
<g id="edge57" class="edge"><title>Node29&#45;&gt;Node13</title>
<path fill="none" stroke="midnightblue" d="M681.758,-168.453C589.667,-144.604 405.109,-96.8095 326.649,-76.4909"/>
<polygon fill="midnightblue" stroke="midnightblue" points="327.299,-73.0438 316.74,-73.9249 325.544,-79.8202 327.299,-73.0438"/>
</g>
<!-- Node29&#45;&gt;Node15 -->
<g id="edge56" class="edge"><title>Node29&#45;&gt;Node15</title>
<path fill="none" stroke="midnightblue" d="M760.894,-168.492C792.236,-151.646 848.252,-124.128 900,-112 1055.55,-75.5436 1564.65,-68.4655 1695.25,-67.2373"/>
<polygon fill="midnightblue" stroke="midnightblue" points="1695.38,-70.7363 1705.35,-67.147 1695.32,-63.7366 1695.38,-70.7363"/>
</g>
<!-- Node29&#45;&gt;Node17 -->
<g id="edge58" class="edge"><title>Node29&#45;&gt;Node17</title>
<path fill="none" stroke="midnightblue" d="M782.743,-168.49C840.481,-151.847 941.994,-124.737 1031,-112 1346.66,-66.8302 1434.52,-122.138 1754.74,-75.663"/>
<polygon fill="midnightblue" stroke="midnightblue" points="1755.39,-79.1059 1764.77,-74.1856 1754.37,-72.1806 1755.39,-79.1059"/>
</g>
<!-- Node30&#45;&gt;Node5 -->
<g id="edge61" class="edge"><title>Node30&#45;&gt;Node5</title>
<path fill="none" stroke="midnightblue" d="M619.124,-363.855C581.334,-342.182 486.967,-281.318 457,-199 452.287,-186.053 456.631,-181.773 457,-168 457.667,-143.084 444.128,-131.218 460,-112 475.416,-93.334 534.574,-81.1209 581.116,-74.1907"/>
<polygon fill="midnightblue" stroke="midnightblue" points="581.735,-77.6378 591.135,-72.7501 580.739,-70.7091 581.735,-77.6378"/>
</g>
<!-- Node30&#45;&gt;Node8 -->
<g id="edge62" class="edge"><title>Node30&#45;&gt;Node8</title>
<path fill="none" stroke="midnightblue" d="M640.395,-363.734C646.512,-353.793 656.638,-337.338 664.36,-324.789"/>
<polygon fill="midnightblue" stroke="midnightblue" points="667.431,-326.478 669.691,-316.127 661.469,-322.81 667.431,-326.478"/>
</g>
<!-- Node30&#45;&gt;Node9 -->
<g id="edge63" class="edge"><title>Node30&#45;&gt;Node9</title>
<path fill="none" stroke="midnightblue" d="M709.83,-364.999C736.67,-362.499 767.172,-359.876 795,-358 885.217,-351.918 1524.69,-357.146 1608,-322 1626.54,-314.178 1622.96,-299.906 1641,-291 1658.68,-282.276 1765.61,-266.331 1840.53,-255.953"/>
<polygon fill="midnightblue" stroke="midnightblue" points="1841.45,-259.36 1850.88,-254.527 1840.49,-252.425 1841.45,-259.36"/>
</g>
<!-- Node31&#45;&gt;Node4 -->
<g id="edge65" class="edge"><title>Node31&#45;&gt;Node4</title>
<path fill="none" stroke="midnightblue" d="M882.335,-363.949C925.52,-340.199 1052.34,-272.7 1165,-235 1236.59,-211.043 1283.61,-257.767 1331,-199 1345.81,-180.638 1327.59,-155.183 1312.13,-138.9"/>
<polygon fill="midnightblue" stroke="midnightblue" points="1314.47,-136.295 1304.92,-131.716 1309.53,-141.254 1314.47,-136.295"/>
</g>
<!-- Node31&#45;&gt;Node5 -->
<g id="edge66" class="edge"><title>Node31&#45;&gt;Node5</title>
<path fill="none" stroke="midnightblue" d="M857.75,-363.811C840.124,-347.632 799.999,-312.577 761,-291 658.133,-234.087 580.134,-295.509 513,-199 488.905,-164.362 519.254,-139.794 551,-112 567.08,-97.9214 588.346,-87.0215 606.169,-79.4776"/>
<polygon fill="midnightblue" stroke="midnightblue" points="607.707,-82.6311 615.661,-75.633 605.079,-76.1431 607.707,-82.6311"/>
</g>
<!-- Node31&#45;&gt;Node8 -->
<g id="edge67" class="edge"><title>Node31&#45;&gt;Node8</title>
<path fill="none" stroke="midnightblue" d="M841.504,-363.869C807.7,-352.424 747.903,-332.181 709.921,-319.322"/>
<polygon fill="midnightblue" stroke="midnightblue" points="710.89,-315.955 700.296,-316.064 708.645,-322.586 710.89,-315.955"/>
</g>
<!-- Node31&#45;&gt;Node9 -->
<g id="edge68" class="edge"><title>Node31&#45;&gt;Node9</title>
<path fill="none" stroke="midnightblue" d="M930.13,-370.055C1089.44,-363.617 1504.75,-345.089 1641,-322 1729.29,-307.038 1830.04,-275.118 1881.26,-257.787"/>
<polygon fill="midnightblue" stroke="midnightblue" points="1882.49,-261.065 1890.82,-254.524 1880.23,-254.44 1882.49,-261.065"/>
</g>
<!-- Node31&#45;&gt;Node32 -->
<g id="edge69" class="edge"><title>Node31&#45;&gt;Node32</title>
<path fill="none" stroke="midnightblue" d="M899.343,-363.905C983.229,-341.611 1207.75,-281.944 1301.24,-257.098"/>
<polygon fill="midnightblue" stroke="midnightblue" points="1302.16,-260.475 1310.93,-254.524 1300.36,-253.71 1302.16,-260.475"/>
</g>
<!-- Node33&#45;&gt;Node4 -->
<g id="edge71" class="edge"><title>Node33&#45;&gt;Node4</title>
<path fill="none" stroke="midnightblue" d="M528.064,-425.091C522.789,-394.562 515.711,-323.503 556,-291 616.969,-241.813 1190.73,-243.786 1255,-199 1274.45,-185.446 1285.17,-159.411 1290.5,-141.627"/>
<polygon fill="midnightblue" stroke="midnightblue" points="1293.93,-142.373 1293.15,-131.806 1287.17,-140.548 1293.93,-142.373"/>
</g>
<!-- Node33&#45;&gt;Node5 -->
<g id="edge72" class="edge"><title>Node33&#45;&gt;Node5</title>
<path fill="none" stroke="midnightblue" d="M464.171,-428.723C441.187,-421.466 417.789,-409.322 404,-389 363.133,-328.771 442.653,-118.246 449,-112 467.606,-93.6903 532.174,-81.2265 581.345,-74.1409"/>
<polygon fill="midnightblue" stroke="midnightblue" points="581.849,-77.6045 591.268,-72.7529 580.879,-70.672 581.849,-77.6045"/>
</g>
<!-- Node33&#45;&gt;Node11 -->
<g id="edge76" class="edge"><title>Node33&#45;&gt;Node11</title>
<path fill="none" stroke="midnightblue" d="M510.367,-425.499C499.089,-416.542 486.188,-403.835 480,-389 463.233,-348.801 452.557,-324.822 480,-291 511.264,-252.468 870.482,-216.268 917,-199 960.81,-182.737 1007.61,-154.329 1033.9,-137.232"/>
<polygon fill="midnightblue" stroke="midnightblue" points="1035.88,-140.119 1042.3,-131.695 1032.02,-134.274 1035.88,-140.119"/>
</g>
<!-- Node33&#45;&gt;Node13 -->
<g id="edge78" class="edge"><title>Node33&#45;&gt;Node13</title>
<path fill="none" stroke="midnightblue" d="M464.313,-428.913C438.08,-421.658 409.607,-409.465 390,-389 304.923,-300.201 292.136,-140.294 290.286,-85.7896"/>
<polygon fill="midnightblue" stroke="midnightblue" points="293.78,-85.4736 290.031,-75.564 286.782,-85.6481 293.78,-85.4736"/>
</g>
<!-- Node33&#45;&gt;Node15 -->
<g id="edge77" class="edge"><title>Node33&#45;&gt;Node15</title>
<path fill="none" stroke="midnightblue" d="M501.954,-425.399C487.887,-416.929 472.282,-404.723 464,-389 443.691,-350.446 441.658,-330.048 461,-291 519.278,-173.351 572.547,-156.687 696,-112 791.937,-77.2728 1534.07,-68.7084 1695.2,-67.2508"/>
<polygon fill="midnightblue" stroke="midnightblue" points="1695.4,-70.7492 1705.37,-67.1613 1695.34,-63.7495 1695.4,-70.7492"/>
</g>
<!-- Node33&#45;&gt;Node30 -->
<g id="edge74" class="edge"><title>Node33&#45;&gt;Node30</title>
<path fill="none" stroke="midnightblue" d="M553.566,-425.396C571.007,-414.496 595.034,-399.479 612.466,-388.584"/>
<polygon fill="midnightblue" stroke="midnightblue" points="614.764,-391.275 621.389,-383.007 611.054,-385.339 614.764,-391.275"/>
</g>
<!-- Node33&#45;&gt;Node31 -->
<g id="edge73" class="edge"><title>Node33&#45;&gt;Node31</title>
<path fill="none" stroke="midnightblue" d="M597.785,-426.58C660.794,-414.391 754.087,-396.343 812.663,-385.012"/>
<polygon fill="midnightblue" stroke="midnightblue" points="813.672,-388.381 822.825,-383.046 812.342,-381.509 813.672,-388.381"/>
</g>
<!-- Node33&#45;&gt;Node32 -->
<g id="edge75" class="edge"><title>Node33&#45;&gt;Node32</title>
<path fill="none" stroke="midnightblue" d="M531.368,-425.494C533.045,-394.445 542.019,-320.275 589,-291 617.762,-273.078 1091.8,-254.755 1273.18,-248.367"/>
<polygon fill="midnightblue" stroke="midnightblue" points="1273.53,-251.857 1283.4,-248.008 1273.29,-244.861 1273.53,-251.857"/>
</g>
<!-- Node34&#45;&gt;Node11 -->
<g id="edge81" class="edge"><title>Node34&#45;&gt;Node11</title>
<path fill="none" stroke="midnightblue" d="M908.5,-173.975C940.999,-162.667 998.033,-142.822 1030.52,-131.517"/>
<polygon fill="midnightblue" stroke="midnightblue" points="1031.85,-134.761 1040.14,-128.169 1029.55,-128.15 1031.85,-134.761"/>
</g>
<!-- Node34&#45;&gt;Node15 -->
<g id="edge80" class="edge"><title>Node34&#45;&gt;Node15</title>
<path fill="none" stroke="midnightblue" d="M885.952,-173.677C889.912,-158.122 900.494,-126.134 923,-112 989.271,-70.383 1555.25,-67.1457 1694.94,-66.984"/>
<polygon fill="midnightblue" stroke="midnightblue" points="1695.33,-70.4838 1705.33,-66.9769 1695.32,-63.4838 1695.33,-70.4838"/>
</g>
<!-- Node35&#45;&gt;Node4 -->
<g id="edge88" class="edge"><title>Node35&#45;&gt;Node4</title>
<path fill="none" stroke="midnightblue" d="M1401.47,-604.477C1371.29,-570.065 1293.66,-477.768 1248,-389 1219.26,-333.134 1213.13,-317.002 1203,-255 1201.57,-246.227 1197.52,-242.002 1203,-235 1243.91,-182.696 1307.09,-251.304 1348,-199 1356.49,-188.147 1353.79,-180.504 1348,-168 1342.08,-155.207 1330.53,-144.722 1319.72,-137.1"/>
<polygon fill="midnightblue" stroke="midnightblue" points="1321.62,-134.158 1311.33,-131.613 1317.79,-140.016 1321.62,-134.158"/>
</g>
<!-- Node35&#45;&gt;Node5 -->
<g id="edge93" class="edge"><title>Node35&#45;&gt;Node5</title>
<path fill="none" stroke="midnightblue" d="M1365.73,-616.607C1186.44,-608.7 561.164,-573.074 407,-456 304.035,-377.807 312.667,-285.778 366,-168 379.286,-138.659 384.35,-128.521 412,-112 463.63,-81.1509 532.381,-70.9473 581.037,-67.8189"/>
<polygon fill="midnightblue" stroke="midnightblue" points="581.314,-71.309 591.102,-67.2539 580.921,-64.32 581.314,-71.309"/>
</g>
<!-- Node35&#45;&gt;Node9 -->
<g id="edge109" class="edge"><title>Node35&#45;&gt;Node9</title>
<path fill="none" stroke="midnightblue" d="M1453.79,-604.44C1476.86,-595.504 1505.99,-582.838 1530,-568 1687.63,-470.581 1849.05,-312.811 1899.19,-262.185"/>
<polygon fill="midnightblue" stroke="midnightblue" points="1901.98,-264.335 1906.51,-254.755 1896.99,-259.423 1901.98,-264.335"/>
</g>
<!-- Node35&#45;&gt;Node11 -->
<g id="edge89" class="edge"><title>Node35&#45;&gt;Node11</title>
<path fill="none" stroke="midnightblue" d="M1365.7,-617.92C1286.12,-615.849 1132.76,-606.791 1098,-568 1087.38,-556.152 1092.33,-440.852 1091,-425 1081.98,-317.575 1064.45,-189.413 1057.72,-141.917"/>
<polygon fill="midnightblue" stroke="midnightblue" points="1061.16,-141.276 1056.29,-131.871 1054.23,-142.265 1061.16,-141.276"/>
</g>
<!-- Node35&#45;&gt;Node15 -->
<g id="edge91" class="edge"><title>Node35&#45;&gt;Node15</title>
<path fill="none" stroke="midnightblue" d="M1431.25,-604.429C1453.67,-584.436 1490,-545.487 1490,-503 1490,-503 1490,-503 1490,-439.5 1490,-373.494 1462.6,-350.098 1492,-291 1510.06,-254.703 1526.62,-250.695 1564,-235 1774,-146.824 1928.79,-313.793 2066,-132 2071.35,-124.905 2071.91,-118.638 2066,-112 2021.72,-62.2832 1839.37,-87.762 1756.38,-75.4282"/>
<polygon fill="midnightblue" stroke="midnightblue" points="1756.99,-71.9818 1746.53,-73.6794 1755.77,-78.8739 1756.99,-71.9818"/>
</g>
<!-- Node35&#45;&gt;Node23 -->
<g id="edge90" class="edge"><title>Node35&#45;&gt;Node23</title>
<path fill="none" stroke="midnightblue" d="M1444.19,-604.473C1462.37,-595.335 1485.5,-582.45 1504,-568 1637.29,-463.859 1644.03,-409.234 1765,-291 1775.34,-280.898 1787.36,-270.047 1797.03,-261.532"/>
<polygon fill="midnightblue" stroke="midnightblue" points="1799.59,-263.944 1804.82,-254.728 1794.98,-258.673 1799.59,-263.944"/>
</g>
<!-- Node35&#45;&gt;Node32 -->
<g id="edge92" class="edge"><title>Node35&#45;&gt;Node32</title>
<path fill="none" stroke="midnightblue" d="M1414,-604.275C1414,-582.476 1414,-539.495 1414,-503 1414,-503 1414,-503 1414,-439.5 1414,-403.454 1370.03,-304.305 1351.29,-263.696"/>
<polygon fill="midnightblue" stroke="midnightblue" points="1354.41,-262.095 1347.02,-254.502 1348.06,-265.046 1354.41,-262.095"/>
</g>
<!-- Node36 -->
<g id="node36" class="node"><title>Node36</title>
<g id="a_node36"><a xlink:href="_interpreter_8h.html" target="_top" xlink:title="uscxml/Interpreter.h">
<polygon fill="white" stroke="red" points="1107.5,-548.5 1107.5,-567.5 1212.5,-567.5 1212.5,-548.5 1107.5,-548.5"/>
<text text-anchor="middle" x="1160" y="-555.5" font-family="Helvetica,sans-Serif" font-size="10.00">uscxml/Interpreter.h</text>
</a>
</g>
</g>
<!-- Node35&#45;&gt;Node36 -->
<g id="edge94" class="edge"><title>Node35&#45;&gt;Node36</title>
<path fill="none" stroke="midnightblue" d="M1365.93,-607.239C1320.06,-596.495 1251.45,-580.422 1206.21,-569.826"/>
<polygon fill="midnightblue" stroke="midnightblue" points="1206.91,-566.393 1196.37,-567.52 1205.31,-573.209 1206.91,-566.393"/>
</g>
<!-- Node36&#45;&gt;Node5 -->
<g id="edge95" class="edge"><title>Node36&#45;&gt;Node5</title>
<path fill="none" stroke="midnightblue" d="M1157.39,-548.219C1150.23,-525.35 1128.24,-463.084 1091,-425 1004.77,-336.825 957.422,-347.9 848,-291 806.734,-269.541 687.377,-236.601 660,-199 635.436,-165.262 636.044,-113.594 638.554,-85.9706"/>
<polygon fill="midnightblue" stroke="midnightblue" points="642.066,-86.0489 639.679,-75.7267 635.108,-85.285 642.066,-86.0489"/>
</g>
<!-- Node36&#45;&gt;Node12 -->
<g id="edge96" class="edge"><title>Node36&#45;&gt;Node12</title>
<path fill="none" stroke="midnightblue" d="M1212.75,-554.722C1243.55,-550.346 1280.15,-539.233 1300,-512 1305.24,-504.817 1300.49,-500.876 1300,-492 1294.21,-386.193 1279.79,-360.807 1274,-255 1273.51,-246.124 1267.91,-241.472 1274,-235 1319.48,-186.695 1803.85,-203.997 1870,-199 2187.96,-174.985 2572.93,-136.671 2679.48,-125.9"/>
<polygon fill="midnightblue" stroke="midnightblue" points="2680.14,-129.352 2689.74,-124.862 2679.43,-122.387 2680.14,-129.352"/>
</g>
<!-- Node36&#45;&gt;Node15 -->
<g id="edge97" class="edge"><title>Node36&#45;&gt;Node15</title>
<path fill="none" stroke="midnightblue" d="M1181.98,-548.481C1197.68,-541.211 1217.91,-529.184 1229,-512 1258.99,-465.522 1240.22,-443.765 1248,-389 1257.71,-320.668 1217.72,-282.282 1268,-235 1354.16,-153.979 1699.98,-263.671 1799,-199 1833.9,-176.21 1857.12,-146.678 1834,-112 1829.39,-105.091 1786.61,-88.649 1756.3,-77.6707"/>
<polygon fill="midnightblue" stroke="midnightblue" points="1757.16,-74.263 1746.57,-74.1788 1754.8,-80.8515 1757.16,-74.263"/>
</g>
<!-- Node36&#45;&gt;Node28 -->
<g id="edge105" class="edge"><title>Node36&#45;&gt;Node28</title>
<path fill="none" stroke="midnightblue" d="M1107.12,-549.09C1043.19,-539.527 935.525,-523.422 865.884,-513.005"/>
<polygon fill="midnightblue" stroke="midnightblue" points="866.302,-509.529 855.895,-511.511 865.267,-516.452 866.302,-509.529"/>
</g>
<!-- Node37 -->
<g id="node37" class="node"><title>Node37</title>
<polygon fill="white" stroke="#bfbfbf" points="1176,-492.5 1176,-511.5 1220,-511.5 1220,-492.5 1176,-492.5"/>
<text text-anchor="middle" x="1198" y="-499.5" font-family="Helvetica,sans-Serif" font-size="10.00">vector</text>
</g>
<!-- Node36&#45;&gt;Node37 -->
<g id="edge98" class="edge"><title>Node36&#45;&gt;Node37</title>
<path fill="none" stroke="midnightblue" d="M1166.27,-548.083C1171.64,-540.455 1179.52,-529.264 1186.08,-519.941"/>
<polygon fill="midnightblue" stroke="midnightblue" points="1188.95,-521.943 1191.84,-511.751 1183.22,-517.915 1188.95,-521.943"/>
</g>
<!-- Node38 -->
<g id="node38" class="node"><title>Node38</title>
<g id="a_node38"><a xlink:href="_micro_step_8h.html" target="_top" xlink:title="uscxml/interpreter\l/MicroStep.h">
<polygon fill="white" stroke="red" points="1117,-168.5 1117,-198.5 1213,-198.5 1213,-168.5 1117,-168.5"/>
<text text-anchor="start" x="1125" y="-186.5" font-family="Helvetica,sans-Serif" font-size="10.00">uscxml/interpreter</text>
<text text-anchor="middle" x="1165" y="-175.5" font-family="Helvetica,sans-Serif" font-size="10.00">/MicroStep.h</text>
</a>
</g>
</g>
<!-- Node36&#45;&gt;Node38 -->
<g id="edge99" class="edge"><title>Node36&#45;&gt;Node38</title>
<path fill="none" stroke="midnightblue" d="M1160.2,-548.354C1160.59,-530.898 1161.47,-490.195 1162,-456 1163.41,-364.804 1164.4,-256.367 1164.8,-208.847"/>
<polygon fill="midnightblue" stroke="midnightblue" points="1168.3,-208.662 1164.89,-198.633 1161.3,-208.603 1168.3,-208.662"/>
</g>
<!-- Node36&#45;&gt;Node39 -->
<g id="edge106" class="edge"><title>Node36&#45;&gt;Node39</title>
<path fill="none" stroke="midnightblue" d="M1145.81,-548.404C1132.35,-539.938 1111.87,-526.239 1096,-512 1079.47,-497.171 1062.97,-478.155 1051.15,-463.61"/>
<polygon fill="midnightblue" stroke="midnightblue" points="1053.75,-461.254 1044.77,-455.629 1048.28,-465.625 1053.75,-461.254"/>
</g>
<!-- Node38&#45;&gt;Node4 -->
<g id="edge103" class="edge"><title>Node38&#45;&gt;Node4</title>
<path fill="none" stroke="midnightblue" d="M1195.81,-168.399C1217.33,-158.55 1245.84,-145.501 1266.77,-135.922"/>
<polygon fill="midnightblue" stroke="midnightblue" points="1268.45,-139.002 1276.08,-131.658 1265.53,-132.637 1268.45,-139.002"/>
</g>
<!-- Node38&#45;&gt;Node5 -->
<g id="edge104" class="edge"><title>Node38&#45;&gt;Node5</title>
<path fill="none" stroke="midnightblue" d="M1159.73,-168.312C1152.73,-151.692 1138.67,-124.805 1117,-112 1048.04,-71.259 812.57,-66.3696 700.807,-66.4315"/>
<polygon fill="midnightblue" stroke="midnightblue" points="700.703,-62.9316 690.71,-66.4508 700.717,-69.9316 700.703,-62.9316"/>
</g>
<!-- Node38&#45;&gt;Node11 -->
<g id="edge101" class="edge"><title>Node38&#45;&gt;Node11</title>
<path fill="none" stroke="midnightblue" d="M1138.93,-168.399C1120.71,-158.541 1096.55,-145.477 1078.84,-135.895"/>
<polygon fill="midnightblue" stroke="midnightblue" points="1080.2,-132.652 1069.74,-130.972 1076.87,-138.809 1080.2,-132.652"/>
</g>
<!-- Node38&#45;&gt;Node13 -->
<g id="edge100" class="edge"><title>Node38&#45;&gt;Node13</title>
<path fill="none" stroke="midnightblue" d="M1152.86,-168.287C1137.43,-151.371 1109.03,-123.92 1078,-112 935.496,-57.2645 544.278,-86.7104 392,-76 370.454,-74.4846 346.384,-72.3803 327.039,-70.5875"/>
<polygon fill="midnightblue" stroke="midnightblue" points="327.107,-67.0787 316.824,-69.6293 326.453,-74.0481 327.107,-67.0787"/>
</g>
<!-- Node38&#45;&gt;Node15 -->
<g id="edge102" class="edge"><title>Node38&#45;&gt;Node15</title>
<path fill="none" stroke="midnightblue" d="M1175.64,-168.497C1189.22,-151.792 1214.42,-124.554 1243,-112 1324.68,-76.119 1601.97,-68.8068 1695.16,-67.352"/>
<polygon fill="midnightblue" stroke="midnightblue" points="1695.39,-70.8491 1705.34,-67.2053 1695.29,-63.8498 1695.39,-70.8491"/>
</g>
<!-- Node39&#45;&gt;Node5 -->
<g id="edge107" class="edge"><title>Node39&#45;&gt;Node5</title>
<path fill="none" stroke="midnightblue" d="M1019.84,-425.209C1002.08,-407.811 970.157,-378.25 939,-358 893.463,-328.404 589.313,-199.479 589,-199 567.872,-166.616 572.926,-147.167 589,-112 594.777,-99.3602 606.052,-88.911 616.631,-81.2737"/>
<polygon fill="midnightblue" stroke="midnightblue" points="618.849,-84.0009 625.217,-75.5333 614.958,-78.1817 618.849,-84.0009"/>
</g>
<!-- Node39&#45;&gt;Node9 -->
<g id="edge108" class="edge"><title>Node39&#45;&gt;Node9</title>
<path fill="none" stroke="midnightblue" d="M1082.14,-434.642C1195.1,-422.511 1485.39,-387.092 1720,-322 1781.39,-304.969 1850.16,-275.617 1887.4,-258.81"/>
<polygon fill="midnightblue" stroke="midnightblue" points="1888.95,-261.95 1896.6,-254.622 1886.05,-255.579 1888.95,-261.95"/>
</g>
<!-- Node40&#45;&gt;Node5 -->
<g id="edge111" class="edge"><title>Node40&#45;&gt;Node5</title>
<path fill="none" stroke="midnightblue" d="M1960.55,-367.881C2019.6,-360.428 2097.48,-341.065 2075,-291 2059.65,-256.825 2044.59,-253.474 2012,-235 1925.67,-186.061 1894.81,-193.868 1799,-168 1729.05,-149.114 1707.36,-158.686 1640,-132 1623.7,-125.543 1622.8,-116.999 1606,-112 1519.63,-86.3059 898.223,-72.0387 700.941,-68.1202"/>
<polygon fill="midnightblue" stroke="midnightblue" points="700.832,-64.6174 690.765,-67.9198 700.694,-71.6161 700.832,-64.6174"/>
</g>
<!-- Node40&#45;&gt;Node9 -->
<g id="edge120" class="edge"><title>Node40&#45;&gt;Node9</title>
<path fill="none" stroke="midnightblue" d="M1901.66,-358.479C1904.36,-335.719 1909.7,-290.702 1912.74,-265.058"/>
<polygon fill="midnightblue" stroke="midnightblue" points="1916.26,-265.131 1913.96,-254.789 1909.3,-264.307 1916.26,-265.131"/>
</g>
<!-- Node40&#45;&gt;Node15 -->
<g id="edge127" class="edge"><title>Node40&#45;&gt;Node15</title>
<path fill="none" stroke="midnightblue" d="M1960.68,-366.118C2015.66,-358.934 2090.79,-345.136 2109,-322 2117.56,-311.125 2146.32,-160.892 2100,-112 2049.1,-58.2727 1847.15,-88.6433 1756.5,-75.4389"/>
<polygon fill="midnightblue" stroke="midnightblue" points="1756.98,-71.9701 1746.53,-73.7108 1755.78,-78.8673 1756.98,-71.9701"/>
</g>
<!-- Node40&#45;&gt;Node32 -->
<g id="edge126" class="edge"><title>Node40&#45;&gt;Node32</title>
<path fill="none" stroke="midnightblue" d="M1839.18,-371.525C1758.23,-368.761 1611.42,-358.602 1492,-322 1443.86,-307.244 1392.57,-277.61 1364.49,-260.023"/>
<polygon fill="midnightblue" stroke="midnightblue" points="1366.21,-256.969 1355.89,-254.559 1362.46,-262.877 1366.21,-256.969"/>
</g>
<!-- Node40&#45;&gt;Node41 -->
<g id="edge112" class="edge"><title>Node40&#45;&gt;Node41</title>
<path fill="none" stroke="midnightblue" d="M1839.43,-361.252C1773.69,-349.042 1669.57,-329.707 1605.77,-317.858"/>
<polygon fill="midnightblue" stroke="midnightblue" points="1606.36,-314.407 1595.89,-316.022 1605.08,-321.29 1606.36,-314.407"/>
</g>
<!-- Node44 -->
<g id="node44" class="node"><title>Node44</title>
<g id="a_node44"><a xlink:href="_interpreter_monitor_8h.html" target="_top" xlink:title="uscxml/interpreter\l/InterpreterMonitor.h">
<polygon fill="white" stroke="red" points="1959.5,-291.5 1959.5,-321.5 2066.5,-321.5 2066.5,-291.5 1959.5,-291.5"/>
<text text-anchor="start" x="1967.5" y="-309.5" font-family="Helvetica,sans-Serif" font-size="10.00">uscxml/interpreter</text>
<text text-anchor="middle" x="2013" y="-298.5" font-family="Helvetica,sans-Serif" font-size="10.00">/InterpreterMonitor.h</text>
</a>
</g>
</g>
<!-- Node40&#45;&gt;Node44 -->
<g id="edge121" class="edge"><title>Node40&#45;&gt;Node44</title>
<path fill="none" stroke="midnightblue" d="M1924.52,-358.396C1940.66,-349.112 1961.99,-336.841 1979.67,-326.674"/>
<polygon fill="midnightblue" stroke="midnightblue" points="1981.61,-329.597 1988.53,-321.577 1978.12,-323.529 1981.61,-329.597"/>
</g>
<!-- Node41&#45;&gt;Node4 -->
<g id="edge116" class="edge"><title>Node41&#45;&gt;Node4</title>
<path fill="none" stroke="midnightblue" d="M1539.73,-296.759C1528.17,-286.843 1508.94,-270.089 1493,-255 1453.52,-217.619 1452.28,-198.096 1407,-168 1385.06,-153.414 1357.65,-142.301 1335.44,-134.767"/>
<polygon fill="midnightblue" stroke="midnightblue" points="1336.23,-131.343 1325.64,-131.558 1334.05,-137.996 1336.23,-131.343"/>
</g>
<!-- Node41&#45;&gt;Node5 -->
<g id="edge117" class="edge"><title>Node41&#45;&gt;Node5</title>
<path fill="none" stroke="midnightblue" d="M1545.12,-296.983C1525.51,-263.845 1448.58,-143.789 1346,-112 1226.31,-74.9069 848.497,-68.3587 700.906,-67.2264"/>
<polygon fill="midnightblue" stroke="midnightblue" points="700.708,-63.725 690.684,-67.1539 700.659,-70.7248 700.708,-63.725"/>
</g>
<!-- Node41&#45;&gt;Node11 -->
<g id="edge114" class="edge"><title>Node41&#45;&gt;Node11</title>
<path fill="none" stroke="midnightblue" d="M1536.86,-296.827C1512.94,-281.512 1460.21,-249.889 1411,-235 1281.2,-195.725 1224.31,-268.73 1108,-199 1085.86,-185.725 1070.65,-159.222 1062.38,-141.296"/>
<polygon fill="midnightblue" stroke="midnightblue" points="1065.5,-139.686 1058.31,-131.897 1059.07,-142.465 1065.5,-139.686"/>
</g>
<!-- Node41&#45;&gt;Node23 -->
<g id="edge113" class="edge"><title>Node41&#45;&gt;Node23</title>
<path fill="none" stroke="midnightblue" d="M1586.28,-296.984C1595.02,-294.978 1604.33,-292.878 1613,-291 1691.46,-273.996 1712.7,-276.653 1790,-255 1790.1,-254.972 1790.2,-254.944 1790.3,-254.915"/>
<polygon fill="midnightblue" stroke="midnightblue" points="1791.32,-258.263 1799.78,-251.876 1789.19,-251.597 1791.32,-258.263"/>
</g>
<!-- Node41&#45;&gt;Node32 -->
<g id="edge119" class="edge"><title>Node41&#45;&gt;Node32</title>
<path fill="none" stroke="midnightblue" d="M1520.34,-296.975C1484.07,-286.548 1422.54,-268.862 1382.34,-257.307"/>
<polygon fill="midnightblue" stroke="midnightblue" points="1383.18,-253.908 1372.6,-254.509 1381.25,-260.635 1383.18,-253.908"/>
</g>
<!-- Node42 -->
<g id="node42" class="node"><title>Node42</title>
<polygon fill="white" stroke="#bfbfbf" points="1573.5,-235.5 1573.5,-254.5 1628.5,-254.5 1628.5,-235.5 1573.5,-235.5"/>
<text text-anchor="middle" x="1601" y="-242.5" font-family="Helvetica,sans-Serif" font-size="10.00">iostream</text>
</g>
<!-- Node41&#45;&gt;Node42 -->
<g id="edge115" class="edge"><title>Node41&#45;&gt;Node42</title>
<path fill="none" stroke="midnightblue" d="M1557.31,-296.975C1565.03,-287.962 1577.41,-273.525 1587.02,-262.312"/>
<polygon fill="midnightblue" stroke="midnightblue" points="1589.86,-264.379 1593.71,-254.509 1584.54,-259.824 1589.86,-264.379"/>
</g>
<!-- Node43 -->
<g id="node43" class="node"><title>Node43</title>
<polygon fill="white" stroke="#bfbfbf" points="1646.5,-235.5 1646.5,-254.5 1781.5,-254.5 1781.5,-235.5 1646.5,-235.5"/>
<text text-anchor="middle" x="1714" y="-242.5" font-family="Helvetica,sans-Serif" font-size="10.00">xercesc/util/XMLString.hpp</text>
</g>
<!-- Node41&#45;&gt;Node43 -->
<g id="edge118" class="edge"><title>Node41&#45;&gt;Node43</title>
<path fill="none" stroke="midnightblue" d="M1573.5,-296.975C1601.63,-286.769 1648.93,-269.608 1680.79,-258.049"/>
<polygon fill="midnightblue" stroke="midnightblue" points="1682.34,-261.21 1690.55,-254.509 1679.95,-254.63 1682.34,-261.21"/>
</g>
<!-- Node44&#45;&gt;Node4 -->
<g id="edge122" class="edge"><title>Node44&#45;&gt;Node4</title>
<path fill="none" stroke="midnightblue" d="M2012.72,-291.325C2011.56,-274.98 2006.97,-248.617 1990,-235 1925.57,-183.298 1701.51,-212.435 1620,-199 1516.5,-181.941 1396.86,-151.004 1335.67,-134.348"/>
<polygon fill="midnightblue" stroke="midnightblue" points="1336.22,-130.869 1325.65,-131.606 1334.37,-137.621 1336.22,-130.869"/>
</g>
<!-- Node44&#45;&gt;Node5 -->
<g id="edge123" class="edge"><title>Node44&#45;&gt;Node5</title>
<path fill="none" stroke="midnightblue" d="M2017.28,-291.249C2020.99,-275.804 2024.06,-251.199 2012,-235 1989.12,-204.278 1718.74,-145.785 1683,-132 1663.34,-124.415 1660.47,-117.014 1640,-112 1460.43,-68.0216 888.227,-66.0722 700.956,-66.6593"/>
<polygon fill="midnightblue" stroke="midnightblue" points="700.741,-63.1599 690.753,-66.695 700.765,-70.1599 700.741,-63.1599"/>
</g>
<!-- Node44&#45;&gt;Node9 -->
<g id="edge124" class="edge"><title>Node44&#45;&gt;Node9</title>
<path fill="none" stroke="midnightblue" d="M1989.78,-291.399C1974.21,-281.951 1953.8,-269.559 1938.24,-260.109"/>
<polygon fill="midnightblue" stroke="midnightblue" points="1939.62,-256.856 1929.26,-254.658 1935.99,-262.839 1939.62,-256.856"/>
</g>
<!-- Node44&#45;&gt;Node21 -->
<g id="edge125" class="edge"><title>Node44&#45;&gt;Node21</title>
<path fill="none" stroke="midnightblue" d="M2051.15,-291.399C2079.02,-281.1 2116.36,-267.302 2142.53,-257.63"/>
<polygon fill="midnightblue" stroke="midnightblue" points="2143.8,-260.891 2151.97,-254.142 2141.38,-254.325 2143.8,-260.891"/>
</g>
<!-- Node45&#45;&gt;Node5 -->
<g id="edge130" class="edge"><title>Node45&#45;&gt;Node5</title>
<path fill="none" stroke="midnightblue" d="M2302.89,-291.311C2288.63,-275.452 2263.52,-250.029 2237,-235 2196.27,-211.917 1880.17,-119.781 1834,-112 1612.53,-74.6752 911.075,-68.2959 701.01,-67.217"/>
<polygon fill="midnightblue" stroke="midnightblue" points="700.813,-63.7161 690.796,-67.1668 700.778,-70.716 700.813,-63.7161"/>
</g>
<!-- Node45&#45;&gt;Node9 -->
<g id="edge131" class="edge"><title>Node45&#45;&gt;Node9</title>
<path fill="none" stroke="midnightblue" d="M2263.93,-297.904C2192.23,-287.238 2061.61,-267.808 1982.13,-255.985"/>
<polygon fill="midnightblue" stroke="midnightblue" points="1982.62,-252.52 1972.22,-254.511 1981.59,-259.444 1982.62,-252.52"/>
</g>
<!-- Node45&#45;&gt;Node11 -->
<g id="edge134" class="edge"><title>Node45&#45;&gt;Node11</title>
<path fill="none" stroke="midnightblue" d="M2295.5,-291.24C2269.39,-272.456 2224.13,-241.082 2205,-235 2037.94,-181.892 1590.9,-221.08 1417,-199 1288.36,-182.666 1137.42,-144.813 1079.41,-129.553"/>
<polygon fill="midnightblue" stroke="midnightblue" points="1080.24,-126.154 1069.68,-126.976 1078.45,-132.92 1080.24,-126.154"/>
</g>
<!-- Node45&#45;&gt;Node12 -->
<g id="edge133" class="edge"><title>Node45&#45;&gt;Node12</title>
<path fill="none" stroke="midnightblue" d="M2327.9,-291.276C2342.75,-275.622 2368.53,-250.615 2395,-235 2491.9,-177.834 2622.72,-142.787 2679.61,-129.32"/>
<polygon fill="midnightblue" stroke="midnightblue" points="2680.71,-132.657 2689.66,-126.984 2679.13,-125.838 2680.71,-132.657"/>
</g>
<!-- Node45&#45;&gt;Node15 -->
<g id="edge132" class="edge"><title>Node45&#45;&gt;Node15</title>
<path fill="none" stroke="midnightblue" d="M2316,-291.48C2317.79,-254.305 2316.74,-153.247 2257,-112 2167.66,-50.3141 1882,-93.6395 1756.69,-75.4821"/>
<polygon fill="midnightblue" stroke="midnightblue" points="1756.95,-71.9771 1746.51,-73.8012 1755.81,-78.8836 1756.95,-71.9771"/>
</g>
<!-- Node45&#45;&gt;Node21 -->
<g id="edge136" class="edge"><title>Node45&#45;&gt;Node21</title>
<path fill="none" stroke="midnightblue" d="M2281.58,-291.399C2258.03,-281.461 2226.76,-268.265 2204.01,-258.662"/>
<polygon fill="midnightblue" stroke="midnightblue" points="2205.09,-255.321 2194.52,-254.658 2202.37,-261.77 2205.09,-255.321"/>
</g>
<!-- Node45&#45;&gt;Node24 -->
<g id="edge135" class="edge"><title>Node45&#45;&gt;Node24</title>
<path fill="none" stroke="midnightblue" d="M2365.05,-291.468C2398.91,-281.972 2444.91,-269.068 2494.34,-255.183"/>
<polygon fill="midnightblue" stroke="midnightblue" points="2495.59,-258.467 2504.27,-252.393 2493.7,-251.728 2495.59,-258.467"/>
</g>
<!-- Node45&#45;&gt;Node25 -->
<g id="edge137" class="edge"><title>Node45&#45;&gt;Node25</title>
<path fill="none" stroke="midnightblue" d="M2366.06,-295.407C2420.85,-284.576 2507.47,-267.453 2563,-256.477"/>
<polygon fill="midnightblue" stroke="midnightblue" points="2563.86,-259.875 2572.99,-254.502 2562.5,-253.007 2563.86,-259.875"/>
</g>
<!-- Node46 -->
<g id="node46" class="node"><title>Node46</title>
<polygon fill="white" stroke="#bfbfbf" points="2404,-235.5 2404,-254.5 2486,-254.5 2486,-235.5 2404,-235.5"/>
<text text-anchor="middle" x="2445" y="-242.5" font-family="Helvetica,sans-Serif" font-size="10.00">event2/event.h</text>
</g>
<!-- Node45&#45;&gt;Node46 -->
<g id="edge138" class="edge"><title>Node45&#45;&gt;Node46</title>
<path fill="none" stroke="midnightblue" d="M2345.81,-291.399C2367.33,-281.55 2395.84,-268.501 2416.77,-258.922"/>
<polygon fill="midnightblue" stroke="midnightblue" points="2418.45,-262.002 2426.08,-254.658 2415.53,-255.637 2418.45,-262.002"/>
</g>
</g>
</svg>
