<?xml version="1.0" encoding="UTF-8" standalone="no"?>
<!DOCTYPE svg PUBLIC "-//W3C//DTD SVG 1.1//EN"
 "http://www.w3.org/Graphics/SVG/1.1/DTD/svg11.dtd">
<!-- Generated by graphviz version 2.38.0 (20140413.2041)
 -->
<!-- Title: plugins/invoker/dirmon/DirMonInvoker.cpp Pages: 1 -->
<svg width="3045pt" height="911pt"
 viewBox="0.00 0.00 3045.00 911.00" xmlns="http://www.w3.org/2000/svg" xmlns:xlink="http://www.w3.org/1999/xlink">
<g id="graph0" class="graph" transform="scale(1 1) rotate(0) translate(4 907)">
<title>plugins/invoker/dirmon/DirMonInvoker.cpp</title>
<polygon fill="white" stroke="none" points="-4,4 -4,-907 3041,-907 3041,4 -4,4"/>
<!-- Node1 -->
<g id="node1" class="node"><title>Node1</title>
<polygon fill="#bfbfbf" stroke="black" points="139.5,-872.5 139.5,-902.5 256.5,-902.5 256.5,-872.5 139.5,-872.5"/>
<text text-anchor="start" x="147.5" y="-890.5" font-family="Helvetica,sans-Serif" font-size="10.00">plugins/invoker/dirmon</text>
<text text-anchor="middle" x="198" y="-879.5" font-family="Helvetica,sans-Serif" font-size="10.00">/DirMonInvoker.cpp</text>
</g>
<!-- Node2 -->
<g id="node2" class="node"><title>Node2</title>
<g id="a_node2"><a xlink:href="_dir_mon_invoker_8h.html" target="_top" xlink:title="DirMonInvoker.h">
<polygon fill="white" stroke="black" points="190,-816.5 190,-835.5 280,-835.5 280,-816.5 190,-816.5"/>
<text text-anchor="middle" x="235" y="-823.5" font-family="Helvetica,sans-Serif" font-size="10.00">DirMonInvoker.h</text>
</a>
</g>
</g>
<!-- Node1&#45;&gt;Node2 -->
<g id="edge1" class="edge"><title>Node1&#45;&gt;Node2</title>
<path fill="none" stroke="midnightblue" d="M206.768,-872.399C211.979,-864.021 218.629,-853.327 224.166,-844.423"/>
<polygon fill="midnightblue" stroke="midnightblue" points="227.308,-845.998 229.616,-835.658 221.363,-842.302 227.308,-845.998"/>
</g>
<!-- Node4 -->
<g id="node4" class="node"><title>Node4</title>
<polygon fill="white" stroke="#bfbfbf" points="28.5,-252 28.5,-271 113.5,-271 113.5,-252 28.5,-252"/>
<text text-anchor="middle" x="71" y="-259" font-family="Helvetica,sans-Serif" font-size="10.00">uscxml/config.h</text>
</g>
<!-- Node1&#45;&gt;Node4 -->
<g id="edge149" class="edge"><title>Node1&#45;&gt;Node4</title>
<path fill="none" stroke="midnightblue" d="M139.496,-872.577C90.3207,-856.981 28,-826.306 28,-771 28,-771 28,-771 28,-640.5 28,-561.708 38,-542.292 38,-463.5 38,-463.5 38,-463.5 38,-394.5 38,-352.748 53.7309,-305.726 63.4705,-280.614"/>
<polygon fill="midnightblue" stroke="midnightblue" points="66.743,-281.857 67.2145,-271.273 60.2454,-279.253 66.743,-281.857"/>
</g>
<!-- Node31 -->
<g id="node31" class="node"><title>Node31</title>
<g id="a_node31"><a xlink:href="_logging_8h.html" target="_top" xlink:title="uscxml/interpreter\l/Logging.h">
<polygon fill="white" stroke="black" points="436,-313.5 436,-343.5 532,-343.5 532,-313.5 436,-313.5"/>
<text text-anchor="start" x="444" y="-331.5" font-family="Helvetica,sans-Serif" font-size="10.00">uscxml/interpreter</text>
<text text-anchor="middle" x="484" y="-320.5" font-family="Helvetica,sans-Serif" font-size="10.00">/Logging.h</text>
</a>
</g>
</g>
<!-- Node1&#45;&gt;Node31 -->
<g id="edge153" class="edge"><title>Node1&#45;&gt;Node31</title>
<path fill="none" stroke="midnightblue" d="M175.245,-872.387C147.426,-853.177 104,-815.985 104,-771 104,-771 104,-771 104,-707.5 104,-519.321 341.126,-392.567 440.745,-347.619"/>
<polygon fill="midnightblue" stroke="midnightblue" points="442.23,-350.789 449.943,-343.526 439.384,-344.394 442.23,-350.789"/>
</g>
<!-- Node48 -->
<g id="node48" class="node"><title>Node48</title>
<polygon fill="white" stroke="#bfbfbf" points="132.5,-760.5 132.5,-779.5 191.5,-779.5 191.5,-760.5 132.5,-760.5"/>
<text text-anchor="middle" x="162" y="-767.5" font-family="Helvetica,sans-Serif" font-size="10.00">sys/stat.h</text>
</g>
<!-- Node1&#45;&gt;Node48 -->
<g id="edge150" class="edge"><title>Node1&#45;&gt;Node48</title>
<path fill="none" stroke="midnightblue" d="M193.084,-872.401C189.604,-862.3 184.884,-848.355 181,-836 176.097,-820.403 170.915,-802.571 167.203,-789.534"/>
<polygon fill="midnightblue" stroke="midnightblue" points="170.558,-788.536 164.469,-779.865 163.822,-790.441 170.558,-788.536"/>
</g>
<!-- Node49 -->
<g id="node49" class="node"><title>Node49</title>
<polygon fill="white" stroke="#bfbfbf" points="298,-816.5 298,-835.5 348,-835.5 348,-816.5 298,-816.5"/>
<text text-anchor="middle" x="323" y="-823.5" font-family="Helvetica,sans-Serif" font-size="10.00">dirent.h</text>
</g>
<!-- Node1&#45;&gt;Node49 -->
<g id="edge151" class="edge"><title>Node1&#45;&gt;Node49</title>
<path fill="none" stroke="midnightblue" d="M227.623,-872.399C248.222,-862.595 275.48,-849.619 295.58,-840.052"/>
<polygon fill="midnightblue" stroke="midnightblue" points="297.286,-843.116 304.811,-835.658 294.278,-836.796 297.286,-843.116"/>
</g>
<!-- Node50 -->
<g id="node50" class="node"><title>Node50</title>
<polygon fill="white" stroke="#bfbfbf" points="366,-816.5 366,-835.5 498,-835.5 498,-816.5 366,-816.5"/>
<text text-anchor="middle" x="432" y="-823.5" font-family="Helvetica,sans-Serif" font-size="10.00">boost/algorithm/string.hpp</text>
</g>
<!-- Node1&#45;&gt;Node50 -->
<g id="edge152" class="edge"><title>Node1&#45;&gt;Node50</title>
<path fill="none" stroke="midnightblue" d="M253.158,-872.475C294.586,-861.941 350.53,-847.716 388.748,-837.998"/>
<polygon fill="midnightblue" stroke="midnightblue" points="389.717,-841.363 398.546,-835.506 387.992,-834.579 389.717,-841.363"/>
</g>
<!-- Node3 -->
<g id="node3" class="node"><title>Node3</title>
<g id="a_node3"><a xlink:href="_invoker_impl_8h.html" target="_top" xlink:title="uscxml/plugins/InvokerImpl.h">
<polygon fill="white" stroke="black" points="209.5,-760.5 209.5,-779.5 354.5,-779.5 354.5,-760.5 209.5,-760.5"/>
<text text-anchor="middle" x="282" y="-767.5" font-family="Helvetica,sans-Serif" font-size="10.00">uscxml/plugins/InvokerImpl.h</text>
</a>
</g>
</g>
<!-- Node2&#45;&gt;Node3 -->
<g id="edge2" class="edge"><title>Node2&#45;&gt;Node3</title>
<path fill="none" stroke="midnightblue" d="M242.761,-816.083C249.537,-808.298 259.543,-796.801 267.755,-787.367"/>
<polygon fill="midnightblue" stroke="midnightblue" points="270.458,-789.592 274.383,-779.751 265.178,-784.996 270.458,-789.592"/>
</g>
<!-- Node12 -->
<g id="node12" class="node"><title>Node12</title>
<polygon fill="white" stroke="#bfbfbf" points="2890,-118 2890,-137 2926,-137 2926,-118 2890,-118"/>
<text text-anchor="middle" x="2908" y="-125" font-family="Helvetica,sans-Serif" font-size="10.00">map</text>
</g>
<!-- Node2&#45;&gt;Node12 -->
<g id="edge146" class="edge"><title>Node2&#45;&gt;Node12</title>
<path fill="none" stroke="midnightblue" d="M280.024,-817.061C283.056,-816.66 286.069,-816.301 289,-816 438.885,-800.626 2999,-860.172 2999,-709.5 2999,-709.5 2999,-709.5 2999,-260.5 2999,-210.769 2954.68,-166.16 2927.9,-143.746"/>
<polygon fill="midnightblue" stroke="midnightblue" points="2929.87,-140.841 2919.9,-137.27 2925.47,-146.282 2929.87,-140.841"/>
</g>
<!-- Node23 -->
<g id="node23" class="node"><title>Node23</title>
<polygon fill="white" stroke="#bfbfbf" points="1728,-252 1728,-271 1758,-271 1758,-252 1728,-252"/>
<text text-anchor="middle" x="1743" y="-259" font-family="Helvetica,sans-Serif" font-size="10.00">set</text>
</g>
<!-- Node2&#45;&gt;Node23 -->
<g id="edge147" class="edge"><title>Node2&#45;&gt;Node23</title>
<path fill="none" stroke="midnightblue" d="M280.029,-817.111C283.06,-816.699 286.071,-816.322 289,-816 1040.24,-733.304 1236.45,-812.668 1987,-724 2151.23,-704.599 2247.12,-784.027 2353,-657 2528.53,-446.418 2079.96,-447.373 1841,-313 1816.2,-299.052 1787.15,-284.273 1767.15,-274.332"/>
<polygon fill="midnightblue" stroke="midnightblue" points="1768.64,-271.161 1758.12,-269.865 1765.53,-277.436 1768.64,-271.161"/>
</g>
<!-- Node2&#45;&gt;Node48 -->
<g id="edge148" class="edge"><title>Node2&#45;&gt;Node48</title>
<path fill="none" stroke="midnightblue" d="M223.271,-816.324C212.163,-808.107 195.258,-795.602 182.017,-785.807"/>
<polygon fill="midnightblue" stroke="midnightblue" points="184.063,-782.967 173.942,-779.834 179.9,-788.595 184.063,-782.967"/>
</g>
<!-- Node3&#45;&gt;Node4 -->
<g id="edge3" class="edge"><title>Node3&#45;&gt;Node4</title>
<path fill="none" stroke="midnightblue" d="M268.911,-760.314C227.804,-731.88 104,-636.949 104,-525 104,-525 104,-525 104,-394.5 104,-352.748 88.2691,-305.726 78.5295,-280.614"/>
<polygon fill="midnightblue" stroke="midnightblue" points="81.7546,-279.253 74.7855,-271.273 75.257,-281.857 81.7546,-279.253"/>
</g>
<!-- Node5 -->
<g id="node5" class="node"><title>Node5</title>
<g id="a_node5"><a xlink:href="_common_8h.html" target="_top" xlink:title="uscxml/Common.h">
<polygon fill="white" stroke="black" points="588.5,-56.5 588.5,-75.5 687.5,-75.5 687.5,-56.5 588.5,-56.5"/>
<text text-anchor="middle" x="638" y="-63.5" font-family="Helvetica,sans-Serif" font-size="10.00">uscxml/Common.h</text>
</a>
</g>
</g>
<!-- Node3&#45;&gt;Node5 -->
<g id="edge4" class="edge"><title>Node3&#45;&gt;Node5</title>
<path fill="none" stroke="midnightblue" d="M256.003,-760.402C235.819,-752.891 207.852,-740.587 187,-724 124.128,-673.989 0,-508.664 0,-463.5 0,-463.5 0,-463.5 0,-193.5 0,-76.2381 419.925,-65.9818 578.414,-66.2867"/>
<polygon fill="midnightblue" stroke="midnightblue" points="578.456,-69.7868 588.468,-66.321 578.48,-62.7868 578.456,-69.7868"/>
</g>
<!-- Node8 -->
<g id="node8" class="node"><title>Node8</title>
<g id="a_node8"><a xlink:href="_event_handler_8h.html" target="_top" xlink:title="uscxml/plugins/EventHandler.h">
<polygon fill="white" stroke="black" points="1330,-319 1330,-338 1484,-338 1484,-319 1330,-319"/>
<text text-anchor="middle" x="1407" y="-326" font-family="Helvetica,sans-Serif" font-size="10.00">uscxml/plugins/EventHandler.h</text>
</a>
</g>
</g>
<!-- Node3&#45;&gt;Node8 -->
<g id="edge7" class="edge"><title>Node3&#45;&gt;Node8</title>
<path fill="none" stroke="midnightblue" d="M341.269,-760.477C499.501,-735.877 941.741,-654.921 1264,-478 1323.99,-445.063 1374.15,-378.478 1395.69,-346.888"/>
<polygon fill="midnightblue" stroke="midnightblue" points="1398.79,-348.543 1401.43,-338.283 1392.97,-344.656 1398.79,-348.543"/>
</g>
<!-- Node9 -->
<g id="node9" class="node"><title>Node9</title>
<g id="a_node9"><a xlink:href="_event_8h.html" target="_top" xlink:title="uscxml/messages/Event.h">
<polygon fill="white" stroke="black" points="1196.5,-252 1196.5,-271 1329.5,-271 1329.5,-252 1196.5,-252"/>
<text text-anchor="middle" x="1263" y="-259" font-family="Helvetica,sans-Serif" font-size="10.00">uscxml/messages/Event.h</text>
</a>
</g>
</g>
<!-- Node3&#45;&gt;Node9 -->
<g id="edge30" class="edge"><title>Node3&#45;&gt;Node9</title>
<path fill="none" stroke="midnightblue" d="M354.793,-768.417C602.584,-765.482 1398,-747.856 1398,-642.5 1398,-642.5 1398,-642.5 1398,-461.5 1398,-456.033 1307.56,-326.203 1274.73,-279.25"/>
<polygon fill="midnightblue" stroke="midnightblue" points="1277.58,-277.212 1268.97,-271.026 1271.84,-281.226 1277.58,-277.212"/>
</g>
<!-- Node20 -->
<g id="node20" class="node"><title>Node20</title>
<g id="a_node20"><a xlink:href="_interpreter_impl_8h.html" target="_top" xlink:title="uscxml/interpreter\l/InterpreterImpl.h">
<polygon fill="white" stroke="black" points="1882,-693.5 1882,-723.5 1978,-723.5 1978,-693.5 1882,-693.5"/>
<text text-anchor="start" x="1890" y="-711.5" font-family="Helvetica,sans-Serif" font-size="10.00">uscxml/interpreter</text>
<text text-anchor="middle" x="1930" y="-700.5" font-family="Helvetica,sans-Serif" font-size="10.00">/InterpreterImpl.h</text>
</a>
</g>
</g>
<!-- Node3&#45;&gt;Node20 -->
<g id="edge31" class="edge"><title>Node3&#45;&gt;Node20</title>
<path fill="none" stroke="midnightblue" d="M354.672,-766.376C632.005,-756.363 1620.77,-720.665 1871.75,-711.603"/>
<polygon fill="midnightblue" stroke="midnightblue" points="1871.89,-715.101 1881.75,-711.242 1871.63,-708.105 1871.89,-715.101"/>
</g>
<!-- Node6 -->
<g id="node6" class="node"><title>Node6</title>
<polygon fill="white" stroke="#bfbfbf" points="564,-0.5 564,-19.5 636,-19.5 636,-0.5 564,-0.5"/>
<text text-anchor="middle" x="600" y="-7.5" font-family="Helvetica,sans-Serif" font-size="10.00">sys/socket.h</text>
</g>
<!-- Node5&#45;&gt;Node6 -->
<g id="edge5" class="edge"><title>Node5&#45;&gt;Node6</title>
<path fill="none" stroke="midnightblue" d="M631.725,-56.083C626.358,-48.4554 618.482,-37.2645 611.921,-27.9408"/>
<polygon fill="midnightblue" stroke="midnightblue" points="614.775,-25.9149 606.158,-19.7511 609.051,-29.9434 614.775,-25.9149"/>
</g>
<!-- Node7 -->
<g id="node7" class="node"><title>Node7</title>
<polygon fill="white" stroke="#bfbfbf" points="654,-0.5 654,-19.5 698,-19.5 698,-0.5 654,-0.5"/>
<text text-anchor="middle" x="676" y="-7.5" font-family="Helvetica,sans-Serif" font-size="10.00">cmath</text>
</g>
<!-- Node5&#45;&gt;Node7 -->
<g id="edge6" class="edge"><title>Node5&#45;&gt;Node7</title>
<path fill="none" stroke="midnightblue" d="M644.275,-56.083C649.642,-48.4554 657.518,-37.2645 664.079,-27.9408"/>
<polygon fill="midnightblue" stroke="midnightblue" points="666.949,-29.9434 669.842,-19.7511 661.225,-25.9149 666.949,-29.9434"/>
</g>
<!-- Node8&#45;&gt;Node5 -->
<g id="edge8" class="edge"><title>Node8&#45;&gt;Node5</title>
<path fill="none" stroke="midnightblue" d="M1329.93,-323.635C1180.14,-315.732 860.32,-296.789 814,-277 725.294,-239.103 729.31,-190.32 673,-112 666.139,-102.457 658.112,-92.0849 651.477,-83.7059"/>
<polygon fill="midnightblue" stroke="midnightblue" points="654.15,-81.4435 645.174,-75.814 648.68,-85.812 654.15,-81.4435"/>
</g>
<!-- Node8&#45;&gt;Node9 -->
<g id="edge9" class="edge"><title>Node8&#45;&gt;Node9</title>
<path fill="none" stroke="midnightblue" d="M1387.88,-318.869C1363.24,-307.748 1320.19,-288.317 1291.64,-275.429"/>
<polygon fill="midnightblue" stroke="midnightblue" points="1292.76,-272.091 1282.2,-271.167 1289.88,-278.471 1292.76,-272.091"/>
</g>
<!-- Node11 -->
<g id="node11" class="node"><title>Node11</title>
<polygon fill="white" stroke="#bfbfbf" points="2031.5,-118 2031.5,-137 2060.5,-137 2060.5,-118 2031.5,-118"/>
<text text-anchor="middle" x="2046" y="-125" font-family="Helvetica,sans-Serif" font-size="10.00">list</text>
</g>
<!-- Node8&#45;&gt;Node11 -->
<g id="edge27" class="edge"><title>Node8&#45;&gt;Node11</title>
<path fill="none" stroke="midnightblue" d="M1418.38,-318.923C1439.99,-302.93 1488.85,-268.172 1534,-246 1576.78,-224.995 1592.25,-231.067 1635,-210 1657.78,-198.773 1659.06,-187.479 1683,-179 1823.74,-129.152 1873.74,-185.051 2017,-143 2018.67,-142.51 2020.36,-141.926 2022.04,-141.279"/>
<polygon fill="midnightblue" stroke="midnightblue" points="2023.68,-144.379 2031.36,-137.084 2020.81,-137.996 2023.68,-144.379"/>
</g>
<!-- Node13 -->
<g id="node13" class="node"><title>Node13</title>
<polygon fill="white" stroke="#bfbfbf" points="1124.5,-56.5 1124.5,-75.5 1177.5,-75.5 1177.5,-56.5 1124.5,-56.5"/>
<text text-anchor="middle" x="1151" y="-63.5" font-family="Helvetica,sans-Serif" font-size="10.00">memory</text>
</g>
<!-- Node8&#45;&gt;Node13 -->
<g id="edge29" class="edge"><title>Node8&#45;&gt;Node13</title>
<path fill="none" stroke="midnightblue" d="M1402.2,-318.801C1392.45,-301.961 1368.6,-264.904 1338,-246 1280.41,-210.418 1238.53,-257.202 1190,-210 1155.65,-176.588 1150.64,-116.123 1150.46,-85.6388"/>
<polygon fill="midnightblue" stroke="midnightblue" points="1153.96,-85.5819 1150.57,-75.5423 1146.96,-85.5014 1153.96,-85.5819"/>
</g>
<!-- Node15 -->
<g id="node15" class="node"><title>Node15</title>
<polygon fill="white" stroke="#bfbfbf" points="2068.5,-56.5 2068.5,-75.5 2109.5,-75.5 2109.5,-56.5 2068.5,-56.5"/>
<text text-anchor="middle" x="2089" y="-63.5" font-family="Helvetica,sans-Serif" font-size="10.00">string</text>
</g>
<!-- Node8&#45;&gt;Node15 -->
<g id="edge28" class="edge"><title>Node8&#45;&gt;Node15</title>
<path fill="none" stroke="midnightblue" d="M1439.78,-318.893C1496.61,-303.982 1617.12,-272.406 1719,-246 1885.48,-202.851 1988.55,-280.39 2092,-143 2104.38,-126.559 2100.57,-101.966 2095.7,-85.2424"/>
<polygon fill="midnightblue" stroke="midnightblue" points="2098.96,-83.9534 2092.5,-75.5533 2092.31,-86.1464 2098.96,-83.9534"/>
</g>
<!-- Node10 -->
<g id="node10" class="node"><title>Node10</title>
<g id="a_node10"><a xlink:href="_data_8h.html" target="_top" xlink:title="uscxml/messages/Data.h">
<polygon fill="white" stroke="black" points="1199,-185 1199,-204 1327,-204 1327,-185 1199,-185"/>
<text text-anchor="middle" x="1263" y="-192" font-family="Helvetica,sans-Serif" font-size="10.00">uscxml/messages/Data.h</text>
</a>
</g>
</g>
<!-- Node9&#45;&gt;Node10 -->
<g id="edge10" class="edge"><title>Node9&#45;&gt;Node10</title>
<path fill="none" stroke="midnightblue" d="M1263,-251.734C1263,-242.183 1263,-226.618 1263,-214.283"/>
<polygon fill="midnightblue" stroke="midnightblue" points="1266.5,-214.127 1263,-204.127 1259.5,-214.127 1266.5,-214.127"/>
</g>
<!-- Node19 -->
<g id="node19" class="node"><title>Node19</title>
<g id="a_node19"><a xlink:href="_u_u_i_d_8h.html" target="_top" xlink:title="uscxml/util/UUID.h">
<polygon fill="white" stroke="black" points="1381.5,-118 1381.5,-137 1480.5,-137 1480.5,-118 1381.5,-118"/>
<text text-anchor="middle" x="1431" y="-125" font-family="Helvetica,sans-Serif" font-size="10.00">uscxml/util/UUID.h</text>
</a>
</g>
</g>
<!-- Node9&#45;&gt;Node19 -->
<g id="edge24" class="edge"><title>Node9&#45;&gt;Node19</title>
<path fill="none" stroke="midnightblue" d="M1276.21,-251.958C1291.06,-242.221 1315.75,-225.626 1336,-210 1364.2,-188.244 1395.23,-160.939 1413.91,-144.109"/>
<polygon fill="midnightblue" stroke="midnightblue" points="1416.51,-146.478 1421.57,-137.17 1411.81,-141.291 1416.51,-146.478"/>
</g>
<!-- Node10&#45;&gt;Node5 -->
<g id="edge14" class="edge"><title>Node10&#45;&gt;Node5</title>
<path fill="none" stroke="midnightblue" d="M1238.96,-184.991C1191.44,-168.484 1081.84,-131.985 987,-112 886.642,-90.8526 767.821,-78.089 697.912,-71.8078"/>
<polygon fill="midnightblue" stroke="midnightblue" points="697.811,-68.2853 687.542,-70.8915 697.195,-75.2582 697.811,-68.2853"/>
</g>
<!-- Node10&#45;&gt;Node11 -->
<g id="edge11" class="edge"><title>Node10&#45;&gt;Node11</title>
<path fill="none" stroke="midnightblue" d="M1327.08,-188.919C1442.37,-180.572 1692.37,-161.987 1903,-143 1944.47,-139.262 1992.63,-134.237 2021.14,-131.191"/>
<polygon fill="midnightblue" stroke="midnightblue" points="2021.83,-134.637 2031.39,-130.09 2021.08,-127.677 2021.83,-134.637"/>
</g>
<!-- Node10&#45;&gt;Node12 -->
<g id="edge12" class="edge"><title>Node10&#45;&gt;Node12</title>
<path fill="none" stroke="midnightblue" d="M1327.23,-190.962C1604.05,-180.024 2689.65,-137.128 2879.57,-129.623"/>
<polygon fill="midnightblue" stroke="midnightblue" points="2879.99,-133.11 2889.84,-129.218 2879.71,-126.115 2879.99,-133.11"/>
</g>
<!-- Node10&#45;&gt;Node13 -->
<g id="edge13" class="edge"><title>Node10&#45;&gt;Node13</title>
<path fill="none" stroke="midnightblue" d="M1255.3,-184.805C1236.76,-163.862 1189.38,-110.354 1165.39,-83.2532"/>
<polygon fill="midnightblue" stroke="midnightblue" points="1168,-80.9227 1158.75,-75.7557 1162.76,-85.563 1168,-80.9227"/>
</g>
<!-- Node14 -->
<g id="node14" class="node"><title>Node14</title>
<g id="a_node14"><a xlink:href="_convenience_8h.html" target="_top" xlink:title="uscxml/util/Convenience.h">
<polygon fill="white" stroke="black" points="1575.5,-118 1575.5,-137 1708.5,-137 1708.5,-118 1575.5,-118"/>
<text text-anchor="middle" x="1642" y="-125" font-family="Helvetica,sans-Serif" font-size="10.00">uscxml/util/Convenience.h</text>
</a>
</g>
</g>
<!-- Node10&#45;&gt;Node14 -->
<g id="edge15" class="edge"><title>Node10&#45;&gt;Node14</title>
<path fill="none" stroke="midnightblue" d="M1312.94,-184.936C1382.34,-173.033 1507.77,-151.52 1582.11,-138.771"/>
<polygon fill="midnightblue" stroke="midnightblue" points="1582.99,-142.172 1592.25,-137.032 1581.81,-135.273 1582.99,-142.172"/>
</g>
<!-- Node18 -->
<g id="node18" class="node"><title>Node18</title>
<g id="a_node18"><a xlink:href="_blob_8h.html" target="_top" xlink:title="uscxml/messages/Blob.h">
<polygon fill="white" stroke="black" points="1236.5,-118 1236.5,-137 1363.5,-137 1363.5,-118 1236.5,-118"/>
<text text-anchor="middle" x="1300" y="-125" font-family="Helvetica,sans-Serif" font-size="10.00">uscxml/messages/Blob.h</text>
</a>
</g>
</g>
<!-- Node10&#45;&gt;Node18 -->
<g id="edge20" class="edge"><title>Node10&#45;&gt;Node18</title>
<path fill="none" stroke="midnightblue" d="M1267.99,-184.734C1273.59,-174.89 1282.83,-158.66 1289.95,-146.159"/>
<polygon fill="midnightblue" stroke="midnightblue" points="1293.18,-147.549 1295.09,-137.127 1287.1,-144.087 1293.18,-147.549"/>
</g>
<!-- Node14&#45;&gt;Node5 -->
<g id="edge16" class="edge"><title>Node14&#45;&gt;Node5</title>
<path fill="none" stroke="midnightblue" d="M1575.4,-119.58C1548.58,-116.952 1517.34,-114.091 1489,-112 1192.47,-90.1183 837.054,-74.8596 697.956,-69.3107"/>
<polygon fill="midnightblue" stroke="midnightblue" points="698.055,-65.812 687.924,-68.9125 697.777,-72.8065 698.055,-65.812"/>
</g>
<!-- Node14&#45;&gt;Node15 -->
<g id="edge17" class="edge"><title>Node14&#45;&gt;Node15</title>
<path fill="none" stroke="midnightblue" d="M1684.12,-117.937C1695.12,-115.845 1706.98,-113.717 1718,-112 1843.75,-92.401 1994.61,-76.4171 2058.27,-70.0148"/>
<polygon fill="midnightblue" stroke="midnightblue" points="2058.82,-73.4775 2068.42,-69.001 2058.12,-66.5121 2058.82,-73.4775"/>
</g>
<!-- Node16 -->
<g id="node16" class="node"><title>Node16</title>
<polygon fill="white" stroke="#bfbfbf" points="1574.5,-56.5 1574.5,-75.5 1613.5,-75.5 1613.5,-56.5 1574.5,-56.5"/>
<text text-anchor="middle" x="1594" y="-63.5" font-family="Helvetica,sans-Serif" font-size="10.00">limits</text>
</g>
<!-- Node14&#45;&gt;Node16 -->
<g id="edge18" class="edge"><title>Node14&#45;&gt;Node16</title>
<path fill="none" stroke="midnightblue" d="M1635.12,-117.975C1627.85,-108.962 1616.2,-94.5246 1607.16,-83.3118"/>
<polygon fill="midnightblue" stroke="midnightblue" points="1609.87,-81.0946 1600.86,-75.5091 1604.42,-85.4898 1609.87,-81.0946"/>
</g>
<!-- Node17 -->
<g id="node17" class="node"><title>Node17</title>
<polygon fill="white" stroke="#bfbfbf" points="1768,-56.5 1768,-75.5 1820,-75.5 1820,-56.5 1768,-56.5"/>
<text text-anchor="middle" x="1794" y="-63.5" font-family="Helvetica,sans-Serif" font-size="10.00">sstream</text>
</g>
<!-- Node14&#45;&gt;Node17 -->
<g id="edge19" class="edge"><title>Node14&#45;&gt;Node17</title>
<path fill="none" stroke="midnightblue" d="M1663.78,-117.975C1689.74,-107.813 1733.31,-90.7564 1762.83,-79.1996"/>
<polygon fill="midnightblue" stroke="midnightblue" points="1764.23,-82.4135 1772.26,-75.5091 1761.67,-75.8951 1764.23,-82.4135"/>
</g>
<!-- Node18&#45;&gt;Node5 -->
<g id="edge23" class="edge"><title>Node18&#45;&gt;Node5</title>
<path fill="none" stroke="midnightblue" d="M1236.22,-120.768C1108.41,-109.28 822.52,-83.5845 697.943,-72.3876"/>
<polygon fill="midnightblue" stroke="midnightblue" points="698.099,-68.8877 687.826,-71.4783 697.473,-75.8596 698.099,-68.8877"/>
</g>
<!-- Node18&#45;&gt;Node13 -->
<g id="edge22" class="edge"><title>Node18&#45;&gt;Node13</title>
<path fill="none" stroke="midnightblue" d="M1278.65,-117.975C1253.31,-107.857 1210.86,-90.9046 1181.93,-79.3507"/>
<polygon fill="midnightblue" stroke="midnightblue" points="1182.89,-75.9673 1172.31,-75.5091 1180.3,-82.4681 1182.89,-75.9673"/>
</g>
<!-- Node18&#45;&gt;Node15 -->
<g id="edge21" class="edge"><title>Node18&#45;&gt;Node15</title>
<path fill="none" stroke="midnightblue" d="M1337.58,-117.927C1348.62,-115.682 1360.75,-113.479 1372,-112 1507.81,-94.1478 1938.38,-73.8034 2057.94,-68.3849"/>
<polygon fill="midnightblue" stroke="midnightblue" points="2058.38,-71.8688 2068.21,-67.9216 2058.06,-64.8759 2058.38,-71.8688"/>
</g>
<!-- Node19&#45;&gt;Node5 -->
<g id="edge25" class="edge"><title>Node19&#45;&gt;Node5</title>
<path fill="none" stroke="midnightblue" d="M1400.89,-117.995C1391.69,-115.695 1381.49,-113.445 1372,-112 1123.71,-74.193 823.587,-67.9183 697.906,-67.0396"/>
<polygon fill="midnightblue" stroke="midnightblue" points="697.746,-63.5386 687.725,-66.9777 697.703,-70.5385 697.746,-63.5386"/>
</g>
<!-- Node19&#45;&gt;Node15 -->
<g id="edge26" class="edge"><title>Node19&#45;&gt;Node15</title>
<path fill="none" stroke="midnightblue" d="M1480.66,-120.912C1506.16,-118.107 1537.73,-114.734 1566,-112 1752.65,-93.9485 1977.13,-75.8439 2058.05,-69.4333"/>
<polygon fill="midnightblue" stroke="midnightblue" points="2058.37,-72.9189 2068.06,-68.6416 2057.81,-65.9407 2058.37,-72.9189"/>
</g>
<!-- Node20&#45;&gt;Node5 -->
<g id="edge37" class="edge"><title>Node20&#45;&gt;Node5</title>
<path fill="none" stroke="midnightblue" d="M1881.95,-707.464C1641.99,-707.069 579.5,-702.731 440,-657 272.838,-602.201 142,-572.415 142,-396.5 142,-396.5 142,-396.5 142,-193.5 142,-150.292 158.113,-134.5 195,-112 257.832,-73.6742 472.273,-67.466 578.033,-66.8007"/>
<polygon fill="midnightblue" stroke="midnightblue" points="578.244,-70.2998 588.227,-66.7517 578.211,-63.2999 578.244,-70.2998"/>
</g>
<!-- Node20&#45;&gt;Node11 -->
<g id="edge34" class="edge"><title>Node20&#45;&gt;Node11</title>
<path fill="none" stroke="midnightblue" d="M1937.15,-693.496C1948.16,-670.594 1968,-623.423 1968,-581 1968,-581 1968,-581 1968,-523 1968,-357.46 1652.39,-397.547 1719,-246 1723.43,-235.921 1782.09,-183.802 1792,-179 1882.34,-135.213 1919.05,-172.552 2015,-143 2017.3,-142.292 2019.65,-141.445 2021.97,-140.52"/>
<polygon fill="midnightblue" stroke="midnightblue" points="2023.46,-143.687 2031.2,-136.445 2020.64,-137.284 2023.46,-143.687"/>
</g>
<!-- Node20&#45;&gt;Node12 -->
<g id="edge35" class="edge"><title>Node20&#45;&gt;Node12</title>
<path fill="none" stroke="midnightblue" d="M1978.28,-706.548C2091.71,-703.729 2372.08,-693.2 2458,-657 2698.92,-555.497 2767.04,-497.811 2907,-277 2930.71,-239.597 2932.16,-222.702 2925,-179 2923.2,-167.989 2919.32,-156.144 2915.72,-146.695"/>
<polygon fill="midnightblue" stroke="midnightblue" points="2918.89,-145.186 2911.91,-137.217 2912.39,-147.801 2918.89,-145.186"/>
</g>
<!-- Node20&#45;&gt;Node13 -->
<g id="edge32" class="edge"><title>Node20&#45;&gt;Node13</title>
<path fill="none" stroke="midnightblue" d="M1881.93,-706.842C1655.64,-703.59 702.132,-688.136 573,-657 447.163,-626.659 395.413,-630.376 309,-534 54.3651,-250.006 922.644,-101.254 1114.32,-72.283"/>
<polygon fill="midnightblue" stroke="midnightblue" points="1115.09,-75.7082 1124.46,-70.7682 1114.05,-68.7851 1115.09,-75.7082"/>
</g>
<!-- Node20&#45;&gt;Node15 -->
<g id="edge36" class="edge"><title>Node20&#45;&gt;Node15</title>
<path fill="none" stroke="midnightblue" d="M1978,-706.728C2181.3,-702.836 2961,-681.368 2961,-581 2961,-581 2961,-581 2961,-461.5 2961,-366.825 3037,-357.175 3037,-262.5 3037,-262.5 3037,-262.5 3037,-193.5 3037,-135.473 2989.23,-132.639 2935,-112 2857.71,-82.5874 2263.33,-70.1238 2120.02,-67.529"/>
<polygon fill="midnightblue" stroke="midnightblue" points="2119.81,-64.0249 2109.75,-67.3462 2119.69,-71.0238 2119.81,-64.0249"/>
</g>
<!-- Node21 -->
<g id="node21" class="node"><title>Node21</title>
<polygon fill="white" stroke="#bfbfbf" points="2520,-252 2520,-271 2564,-271 2564,-252 2520,-252"/>
<text text-anchor="middle" x="2542" y="-259" font-family="Helvetica,sans-Serif" font-size="10.00">mutex</text>
</g>
<!-- Node20&#45;&gt;Node21 -->
<g id="edge33" class="edge"><title>Node20&#45;&gt;Node21</title>
<path fill="none" stroke="midnightblue" d="M1978.26,-704.931C2099.27,-697.177 2406,-668.859 2406,-581 2406,-581 2406,-581 2406,-394.5 2406,-335.709 2472.25,-294.682 2512.27,-275.262"/>
<polygon fill="midnightblue" stroke="midnightblue" points="2513.78,-278.423 2521.34,-271.01 2510.8,-272.085 2513.78,-278.423"/>
</g>
<!-- Node22 -->
<g id="node22" class="node"><title>Node22</title>
<g id="a_node22"><a xlink:href="_u_r_l_8h.html" target="_top" xlink:title="uscxml/util/URL.h">
<polygon fill="white" stroke="black" points="2208,-319 2208,-338 2302,-338 2302,-319 2208,-319"/>
<text text-anchor="middle" x="2255" y="-326" font-family="Helvetica,sans-Serif" font-size="10.00">uscxml/util/URL.h</text>
</a>
</g>
</g>
<!-- Node20&#45;&gt;Node22 -->
<g id="edge38" class="edge"><title>Node20&#45;&gt;Node22</title>
<path fill="none" stroke="midnightblue" d="M1978.31,-698.039C2064.76,-679.713 2237,-636.268 2237,-581 2237,-581 2237,-581 2237,-461.5 2237,-420.784 2245.51,-373.647 2250.83,-348.173"/>
<polygon fill="midnightblue" stroke="midnightblue" points="2254.32,-348.607 2253,-338.093 2247.47,-347.129 2254.32,-348.607"/>
</g>
<!-- Node26 -->
<g id="node26" class="node"><title>Node26</title>
<g id="a_node26"><a xlink:href="_factory_8h.html" target="_top" xlink:title="uscxml/plugins/Factory.h">
<polygon fill="white" stroke="black" points="1448.5,-514.5 1448.5,-533.5 1575.5,-533.5 1575.5,-514.5 1448.5,-514.5"/>
<text text-anchor="middle" x="1512" y="-521.5" font-family="Helvetica,sans-Serif" font-size="10.00">uscxml/plugins/Factory.h</text>
</a>
</g>
</g>
<!-- Node20&#45;&gt;Node26 -->
<g id="edge48" class="edge"><title>Node20&#45;&gt;Node26</title>
<path fill="none" stroke="midnightblue" d="M1897.89,-693.483C1819.04,-659.054 1616.78,-570.748 1541.13,-537.72"/>
<polygon fill="midnightblue" stroke="midnightblue" points="1542.3,-534.409 1531.73,-533.615 1539.5,-540.824 1542.3,-534.409"/>
</g>
<!-- Node30 -->
<g id="node30" class="node"><title>Node30</title>
<g id="a_node30"><a xlink:href="_data_model_impl_8h.html" target="_top" xlink:title="uscxml/plugins/DataModel\lImpl.h">
<polygon fill="white" stroke="black" points="1122.5,-447.5 1122.5,-477.5 1255.5,-477.5 1255.5,-447.5 1122.5,-447.5"/>
<text text-anchor="start" x="1130.5" y="-465.5" font-family="Helvetica,sans-Serif" font-size="10.00">uscxml/plugins/DataModel</text>
<text text-anchor="middle" x="1189" y="-454.5" font-family="Helvetica,sans-Serif" font-size="10.00">Impl.h</text>
</a>
</g>
</g>
<!-- Node20&#45;&gt;Node30 -->
<g id="edge84" class="edge"><title>Node20&#45;&gt;Node30</title>
<path fill="none" stroke="midnightblue" d="M1881.73,-704.163C1817.76,-698.795 1701.92,-685.772 1607,-657 1456.8,-611.47 1291.21,-522.016 1222.12,-482.751"/>
<polygon fill="midnightblue" stroke="midnightblue" points="1223.44,-479.475 1213.02,-477.553 1219.97,-485.553 1223.44,-479.475"/>
</g>
<!-- Node33 -->
<g id="node33" class="node"><title>Node33</title>
<g id="a_node33"><a xlink:href="_micro_step_impl_8h.html" target="_top" xlink:title="uscxml/interpreter\l/MicroStepImpl.h">
<polygon fill="white" stroke="black" points="1616,-626.5 1616,-656.5 1712,-656.5 1712,-626.5 1616,-626.5"/>
<text text-anchor="start" x="1624" y="-644.5" font-family="Helvetica,sans-Serif" font-size="10.00">uscxml/interpreter</text>
<text text-anchor="middle" x="1664" y="-633.5" font-family="Helvetica,sans-Serif" font-size="10.00">/MicroStepImpl.h</text>
</a>
</g>
</g>
<!-- Node20&#45;&gt;Node33 -->
<g id="edge85" class="edge"><title>Node20&#45;&gt;Node33</title>
<path fill="none" stroke="midnightblue" d="M1881.83,-695.729C1836.96,-684.765 1769.99,-668.4 1722.16,-656.712"/>
<polygon fill="midnightblue" stroke="midnightblue" points="1722.81,-653.267 1712.26,-654.293 1721.14,-660.067 1722.81,-653.267"/>
</g>
<!-- Node40 -->
<g id="node40" class="node"><title>Node40</title>
<g id="a_node40"><a xlink:href="_event_queue_8h.html" target="_top" xlink:title="uscxml/interpreter\l/EventQueue.h">
<polygon fill="white" stroke="black" points="322,-447.5 322,-477.5 418,-477.5 418,-447.5 322,-447.5"/>
<text text-anchor="start" x="330" y="-465.5" font-family="Helvetica,sans-Serif" font-size="10.00">uscxml/interpreter</text>
<text text-anchor="middle" x="370" y="-454.5" font-family="Helvetica,sans-Serif" font-size="10.00">/EventQueue.h</text>
</a>
</g>
</g>
<!-- Node20&#45;&gt;Node40 -->
<g id="edge129" class="edge"><title>Node20&#45;&gt;Node40</title>
<path fill="none" stroke="midnightblue" d="M1881.82,-706.719C1698.8,-703.528 1046.64,-690.041 842,-657 642.388,-624.771 558.961,-663.888 404,-534 389.785,-522.085 381.062,-502.833 376.017,-487.455"/>
<polygon fill="midnightblue" stroke="midnightblue" points="379.284,-486.161 373.089,-477.566 372.572,-488.148 379.284,-486.161"/>
</g>
<!-- Node41 -->
<g id="node41" class="node"><title>Node41</title>
<g id="a_node41"><a xlink:href="_content_executor_impl_8h.html" target="_top" xlink:title="uscxml/interpreter\l/ContentExecutorImpl.h">
<polygon fill="white" stroke="black" points="822.5,-380.5 822.5,-410.5 943.5,-410.5 943.5,-380.5 822.5,-380.5"/>
<text text-anchor="start" x="830.5" y="-398.5" font-family="Helvetica,sans-Serif" font-size="10.00">uscxml/interpreter</text>
<text text-anchor="middle" x="883" y="-387.5" font-family="Helvetica,sans-Serif" font-size="10.00">/ContentExecutorImpl.h</text>
</a>
</g>
</g>
<!-- Node20&#45;&gt;Node41 -->
<g id="edge119" class="edge"><title>Node20&#45;&gt;Node41</title>
<path fill="none" stroke="midnightblue" d="M1881.77,-706.964C1672.78,-704.015 856,-685.786 856,-581 856,-581 856,-581 856,-523 856,-486.649 866.796,-445.69 874.734,-420.485"/>
<polygon fill="midnightblue" stroke="midnightblue" points="878.15,-421.299 877.922,-410.707 871.494,-419.13 878.15,-421.299"/>
</g>
<!-- Node43 -->
<g id="node43" class="node"><title>Node43</title>
<g id="a_node43"><a xlink:href="_event_queue_impl_8h.html" target="_top" xlink:title="uscxml/interpreter\l/EventQueueImpl.h">
<polygon fill="white" stroke="black" points="2669,-313.5 2669,-343.5 2771,-343.5 2771,-313.5 2669,-313.5"/>
<text text-anchor="start" x="2677" y="-331.5" font-family="Helvetica,sans-Serif" font-size="10.00">uscxml/interpreter</text>
<text text-anchor="middle" x="2720" y="-320.5" font-family="Helvetica,sans-Serif" font-size="10.00">/EventQueueImpl.h</text>
</a>
</g>
</g>
<!-- Node20&#45;&gt;Node43 -->
<g id="edge130" class="edge"><title>Node20&#45;&gt;Node43</title>
<path fill="none" stroke="midnightblue" d="M1978.06,-707.152C2086.07,-705.642 2344.45,-697.747 2420,-657 2458.37,-636.308 2482,-624.592 2482,-581 2482,-581 2482,-581 2482,-461.5 2482,-380.664 2588.3,-348.919 2658.82,-336.753"/>
<polygon fill="midnightblue" stroke="midnightblue" points="2659.64,-340.165 2668.94,-335.097 2658.51,-333.257 2659.64,-340.165"/>
</g>
<!-- Node44 -->
<g id="node44" class="node"><title>Node44</title>
<g id="a_node44"><a xlink:href="_d_o_m_8h.html" target="_top" xlink:title="uscxml/util/DOM.h">
<polygon fill="white" stroke="black" points="1937,-319 1937,-338 2035,-338 2035,-319 1937,-319"/>
<text text-anchor="middle" x="1986" y="-326" font-family="Helvetica,sans-Serif" font-size="10.00">uscxml/util/DOM.h</text>
</a>
</g>
</g>
<!-- Node20&#45;&gt;Node44 -->
<g id="edge139" class="edge"><title>Node20&#45;&gt;Node44</title>
<path fill="none" stroke="midnightblue" d="M1948.64,-693.383C1959.72,-684.121 1973.28,-671.136 1982,-657 2000.6,-626.857 2006,-616.422 2006,-581 2006,-581 2006,-581 2006,-461.5 2006,-420.513 1996.46,-373.168 1990.56,-347.804"/>
<polygon fill="midnightblue" stroke="midnightblue" points="1993.96,-346.985 1988.22,-338.08 1987.15,-348.622 1993.96,-346.985"/>
</g>
<!-- Node22&#45;&gt;Node5 -->
<g id="edge39" class="edge"><title>Node22&#45;&gt;Node5</title>
<path fill="none" stroke="midnightblue" d="M2245.99,-318.903C2224.24,-298.162 2170.44,-247.005 2168,-246 2040.56,-193.482 1057.62,-256.871 928,-210 911.403,-203.999 818.77,-119.923 803,-112 769.962,-95.401 730.025,-84.303 697.717,-77.2818"/>
<polygon fill="midnightblue" stroke="midnightblue" points="698.02,-73.7692 687.514,-75.1436 696.584,-80.6204 698.02,-73.7692"/>
</g>
<!-- Node22&#45;&gt;Node9 -->
<g id="edge40" class="edge"><title>Node22&#45;&gt;Node9</title>
<path fill="none" stroke="midnightblue" d="M2207.66,-324.192C2164.9,-321.217 2100.24,-316.751 2044,-313 1785.92,-295.789 1479.81,-276.251 1339.8,-267.363"/>
<polygon fill="midnightblue" stroke="midnightblue" points="1339.81,-263.856 1329.61,-266.716 1339.37,-270.842 1339.81,-263.856"/>
</g>
<!-- Node22&#45;&gt;Node11 -->
<g id="edge45" class="edge"><title>Node22&#45;&gt;Node11</title>
<path fill="none" stroke="midnightblue" d="M2250.74,-318.964C2242.67,-303.335 2224,-269.567 2202,-246 2160.94,-202.007 2101.83,-162.538 2069.44,-142.465"/>
<polygon fill="midnightblue" stroke="midnightblue" points="2071.02,-139.333 2060.67,-137.102 2067.37,-145.305 2071.02,-139.333"/>
</g>
<!-- Node22&#45;&gt;Node12 -->
<g id="edge43" class="edge"><title>Node22&#45;&gt;Node12</title>
<path fill="none" stroke="midnightblue" d="M2281.11,-318.993C2327.36,-303.97 2426.73,-271.882 2511,-246 2648.99,-203.62 2814.79,-155.425 2879.85,-136.617"/>
<polygon fill="midnightblue" stroke="midnightblue" points="2881.12,-139.893 2889.76,-133.755 2879.18,-133.168 2881.12,-139.893"/>
</g>
<!-- Node22&#45;&gt;Node15 -->
<g id="edge41" class="edge"><title>Node22&#45;&gt;Node15</title>
<path fill="none" stroke="midnightblue" d="M2292.32,-318.884C2314.4,-311.659 2340.6,-298.883 2354,-277 2382.06,-231.188 2387.65,-178.09 2316,-112 2287.76,-85.9507 2175.02,-73.7076 2119.8,-69.1807"/>
<polygon fill="midnightblue" stroke="midnightblue" points="2119.81,-65.6707 2109.56,-68.3765 2119.26,-72.6492 2119.81,-65.6707"/>
</g>
<!-- Node22&#45;&gt;Node17 -->
<g id="edge42" class="edge"><title>Node22&#45;&gt;Node17</title>
<path fill="none" stroke="midnightblue" d="M2253.56,-318.816C2250.67,-303.238 2243.13,-269.94 2228,-246 2178.63,-167.878 2153.98,-148.307 2069,-112 1988.5,-77.6107 1884.42,-69.3536 1830.3,-67.468"/>
<polygon fill="midnightblue" stroke="midnightblue" points="1830.27,-63.9655 1820.17,-67.1699 1830.06,-70.9624 1830.27,-63.9655"/>
</g>
<!-- Node22&#45;&gt;Node23 -->
<g id="edge44" class="edge"><title>Node22&#45;&gt;Node23</title>
<path fill="none" stroke="midnightblue" d="M2207.77,-324.045C2125.53,-317.618 1950.84,-302.147 1805,-277 1792.78,-274.893 1779.37,-271.849 1768.15,-269.094"/>
<polygon fill="midnightblue" stroke="midnightblue" points="1768.74,-265.631 1758.19,-266.58 1767.03,-272.419 1768.74,-265.631"/>
</g>
<!-- Node24 -->
<g id="node24" class="node"><title>Node24</title>
<polygon fill="white" stroke="#bfbfbf" points="2697.5,-252 2697.5,-271 2742.5,-271 2742.5,-252 2697.5,-252"/>
<text text-anchor="middle" x="2720" y="-259" font-family="Helvetica,sans-Serif" font-size="10.00">thread</text>
</g>
<!-- Node22&#45;&gt;Node24 -->
<g id="edge46" class="edge"><title>Node22&#45;&gt;Node24</title>
<path fill="none" stroke="midnightblue" d="M2302.2,-326.933C2382.96,-324.882 2552.18,-315.851 2689,-277 2690.93,-276.452 2692.89,-275.797 2694.84,-275.072"/>
<polygon fill="midnightblue" stroke="midnightblue" points="2696.46,-278.183 2704.29,-271.041 2693.72,-271.744 2696.46,-278.183"/>
</g>
<!-- Node25 -->
<g id="node25" class="node"><title>Node25</title>
<polygon fill="white" stroke="#bfbfbf" points="2582.5,-252 2582.5,-271 2679.5,-271 2679.5,-252 2582.5,-252"/>
<text text-anchor="middle" x="2631" y="-259" font-family="Helvetica,sans-Serif" font-size="10.00">condition_variable</text>
</g>
<!-- Node22&#45;&gt;Node25 -->
<g id="edge47" class="edge"><title>Node22&#45;&gt;Node25</title>
<path fill="none" stroke="midnightblue" d="M2302.11,-321.332C2364.39,-312.878 2477.42,-296.497 2573,-277 2578.14,-275.951 2583.52,-274.75 2588.83,-273.499"/>
<polygon fill="midnightblue" stroke="midnightblue" points="2590.01,-276.815 2598.9,-271.057 2588.36,-270.013 2590.01,-276.815"/>
</g>
<!-- Node26&#45;&gt;Node5 -->
<g id="edge49" class="edge"><title>Node26&#45;&gt;Node5</title>
<path fill="none" stroke="midnightblue" d="M1448.4,-520.903C1251.17,-513.659 652.47,-485.894 475,-411 342.612,-355.131 247.889,-211.039 352,-112 383.652,-81.8906 504.178,-71.9229 578.295,-68.6262"/>
<polygon fill="midnightblue" stroke="midnightblue" points="578.585,-72.1172 588.431,-68.2039 578.294,-65.1233 578.585,-72.1172"/>
</g>
<!-- Node26&#45;&gt;Node8 -->
<g id="edge55" class="edge"><title>Node26&#45;&gt;Node8</title>
<path fill="none" stroke="midnightblue" d="M1507.35,-514.436C1491.4,-485.038 1438.65,-387.825 1416.71,-347.388"/>
<polygon fill="midnightblue" stroke="midnightblue" points="1419.68,-345.527 1411.83,-338.407 1413.53,-348.866 1419.68,-345.527"/>
</g>
<!-- Node26&#45;&gt;Node13 -->
<g id="edge81" class="edge"><title>Node26&#45;&gt;Node13</title>
<path fill="none" stroke="midnightblue" d="M1512.92,-514.444C1518.45,-460.953 1545.34,-172.817 1489,-112 1448.99,-68.8112 1267.13,-65.5689 1187.98,-66.2714"/>
<polygon fill="midnightblue" stroke="midnightblue" points="1187.48,-62.7769 1177.52,-66.393 1187.56,-69.7764 1187.48,-62.7769"/>
</g>
<!-- Node26&#45;&gt;Node15 -->
<g id="edge80" class="edge"><title>Node26&#45;&gt;Node15</title>
<path fill="none" stroke="midnightblue" d="M1575.52,-516.211C1629.76,-509.47 1709.48,-497.312 1777,-478 1874.75,-450.043 2143.89,-368.604 2188,-277 2220.52,-209.457 2202.41,-168.375 2153,-112 2142.05,-99.5065 2126.95,-88.6789 2114.17,-80.7773"/>
<polygon fill="midnightblue" stroke="midnightblue" points="2115.75,-77.6467 2105.37,-75.5589 2112.19,-83.6685 2115.75,-77.6467"/>
</g>
<!-- Node26&#45;&gt;Node16 -->
<g id="edge83" class="edge"><title>Node26&#45;&gt;Node16</title>
<path fill="none" stroke="midnightblue" d="M1515.3,-514.169C1518.53,-505.19 1523.33,-490.816 1526,-478 1559.35,-317.799 1512.55,-266.661 1566,-112 1569.45,-102.016 1575.44,-91.9378 1580.99,-83.8569"/>
<polygon fill="midnightblue" stroke="midnightblue" points="1583.87,-85.8416 1586.92,-75.6937 1578.21,-81.728 1583.87,-85.8416"/>
</g>
<!-- Node26&#45;&gt;Node23 -->
<g id="edge82" class="edge"><title>Node26&#45;&gt;Node23</title>
<path fill="none" stroke="midnightblue" d="M1575.58,-515.401C1643.38,-506.645 1742.61,-491.7 1754,-478 1801.92,-420.348 1768.2,-321.145 1751.19,-280.582"/>
<polygon fill="midnightblue" stroke="midnightblue" points="1754.3,-278.957 1747.11,-271.184 1747.89,-281.75 1754.3,-278.957"/>
</g>
<!-- Node27 -->
<g id="node27" class="node"><title>Node27</title>
<g id="a_node27"><a xlink:href="_executable_content_8h.html" target="_top" xlink:title="uscxml/plugins/Executable\lContent.h">
<polygon fill="white" stroke="black" points="1727,-112.5 1727,-142.5 1861,-142.5 1861,-112.5 1727,-112.5"/>
<text text-anchor="start" x="1735" y="-130.5" font-family="Helvetica,sans-Serif" font-size="10.00">uscxml/plugins/Executable</text>
<text text-anchor="middle" x="1794" y="-119.5" font-family="Helvetica,sans-Serif" font-size="10.00">Content.h</text>
</a>
</g>
</g>
<!-- Node26&#45;&gt;Node27 -->
<g id="edge50" class="edge"><title>Node26&#45;&gt;Node27</title>
<path fill="none" stroke="midnightblue" d="M1549.1,-514.458C1568.44,-507.918 1590.43,-496.724 1602,-478 1640.55,-415.619 1626.96,-381.953 1602,-313 1594.91,-293.417 1579.09,-296.583 1572,-277 1567.31,-264.045 1564.89,-257.803 1572,-246 1604.28,-192.392 1670.13,-161.963 1721.77,-145.572"/>
<polygon fill="midnightblue" stroke="midnightblue" points="1723.02,-148.848 1731.56,-142.576 1720.97,-142.154 1723.02,-148.848"/>
</g>
<!-- Node28 -->
<g id="node28" class="node"><title>Node28</title>
<g id="a_node28"><a xlink:href="_i_o_processor_8h.html" target="_top" xlink:title="uscxml/plugins/IOProcessor.h">
<polygon fill="white" stroke="black" points="1038.5,-386 1038.5,-405 1187.5,-405 1187.5,-386 1038.5,-386"/>
<text text-anchor="middle" x="1113" y="-393" font-family="Helvetica,sans-Serif" font-size="10.00">uscxml/plugins/IOProcessor.h</text>
</a>
</g>
</g>
<!-- Node26&#45;&gt;Node28 -->
<g id="edge56" class="edge"><title>Node26&#45;&gt;Node28</title>
<path fill="none" stroke="midnightblue" d="M1483.5,-514.422C1453.86,-505.463 1406.12,-490.941 1365,-478 1287.81,-453.706 1197.66,-424.299 1148.85,-408.289"/>
<polygon fill="midnightblue" stroke="midnightblue" points="1149.67,-404.876 1139.08,-405.083 1147.49,-411.527 1149.67,-404.876"/>
</g>
<!-- Node29 -->
<g id="node29" class="node"><title>Node29</title>
<g id="a_node29"><a xlink:href="_invoker_8h.html" target="_top" xlink:title="uscxml/plugins/Invoker.h">
<polygon fill="white" stroke="black" points="1206,-386 1206,-405 1332,-405 1332,-386 1206,-386"/>
<text text-anchor="middle" x="1269" y="-393" font-family="Helvetica,sans-Serif" font-size="10.00">uscxml/plugins/Invoker.h</text>
</a>
</g>
</g>
<!-- Node26&#45;&gt;Node29 -->
<g id="edge60" class="edge"><title>Node26&#45;&gt;Node29</title>
<path fill="none" stroke="midnightblue" d="M1495.3,-514.305C1453.58,-492.588 1344.59,-435.852 1294.66,-409.858"/>
<polygon fill="midnightblue" stroke="midnightblue" points="1295.98,-406.602 1285.5,-405.088 1292.75,-412.811 1295.98,-406.602"/>
</g>
<!-- Node26&#45;&gt;Node30 -->
<g id="edge64" class="edge"><title>Node26&#45;&gt;Node30</title>
<path fill="none" stroke="midnightblue" d="M1465.72,-514.475C1413.59,-504.872 1328.03,-489.111 1265.83,-477.654"/>
<polygon fill="midnightblue" stroke="midnightblue" points="1266.14,-474.152 1255.67,-475.782 1264.87,-481.036 1266.14,-474.152"/>
</g>
<!-- Node32 -->
<g id="node32" class="node"><title>Node32</title>
<g id="a_node32"><a xlink:href="_string_8h.html" target="_top" xlink:title="string.h">
<polygon fill="white" stroke="black" points="1801.5,-185 1801.5,-204 1850.5,-204 1850.5,-185 1801.5,-185"/>
<text text-anchor="middle" x="1826" y="-192" font-family="Helvetica,sans-Serif" font-size="10.00">string.h</text>
</a>
</g>
</g>
<!-- Node26&#45;&gt;Node32 -->
<g id="edge77" class="edge"><title>Node26&#45;&gt;Node32</title>
<path fill="none" stroke="midnightblue" d="M1569.02,-514.436C1593.66,-508.092 1621.11,-497.082 1640,-478 1716.64,-400.599 1646.44,-327.24 1719,-246 1738.07,-224.647 1768.09,-211.576 1791.49,-204.098"/>
<polygon fill="midnightblue" stroke="midnightblue" points="1792.8,-207.358 1801.38,-201.137 1790.8,-200.651 1792.8,-207.358"/>
</g>
<!-- Node27&#45;&gt;Node5 -->
<g id="edge51" class="edge"><title>Node27&#45;&gt;Node5</title>
<path fill="none" stroke="midnightblue" d="M1726.9,-113.273C1723.56,-112.8 1720.24,-112.371 1717,-112 1517.07,-89.128 893.78,-72.9733 697.686,-68.3522"/>
<polygon fill="midnightblue" stroke="midnightblue" points="697.655,-64.8506 687.575,-68.1152 697.49,-71.8486 697.655,-64.8506"/>
</g>
<!-- Node27&#45;&gt;Node13 -->
<g id="edge53" class="edge"><title>Node27&#45;&gt;Node13</title>
<path fill="none" stroke="midnightblue" d="M1726.88,-113.423C1723.54,-112.911 1720.24,-112.432 1717,-112 1518.22,-85.4589 1277.92,-72.6824 1187.64,-68.5552"/>
<polygon fill="midnightblue" stroke="midnightblue" points="1187.78,-65.058 1177.63,-68.1053 1187.46,-72.051 1187.78,-65.058"/>
</g>
<!-- Node27&#45;&gt;Node15 -->
<g id="edge52" class="edge"><title>Node27&#45;&gt;Node15</title>
<path fill="none" stroke="midnightblue" d="M1861.31,-112.924C1923.15,-100.451 2012.02,-82.5272 2058.31,-73.1891"/>
<polygon fill="midnightblue" stroke="midnightblue" points="2059.22,-76.578 2068.33,-71.1699 2057.83,-69.7162 2059.22,-76.578"/>
</g>
<!-- Node27&#45;&gt;Node17 -->
<g id="edge54" class="edge"><title>Node27&#45;&gt;Node17</title>
<path fill="none" stroke="midnightblue" d="M1794,-112.399C1794,-104.466 1794,-94.458 1794,-85.8583"/>
<polygon fill="midnightblue" stroke="midnightblue" points="1797.5,-85.6577 1794,-75.6578 1790.5,-85.6578 1797.5,-85.6577"/>
</g>
<!-- Node28&#45;&gt;Node5 -->
<g id="edge57" class="edge"><title>Node28&#45;&gt;Node5</title>
<path fill="none" stroke="midnightblue" d="M1038.41,-387.731C903.168,-375.334 630.555,-349.73 622,-344 535.302,-285.936 542.623,-206.902 586,-112 591.777,-99.3602 603.052,-88.911 613.631,-81.2737"/>
<polygon fill="midnightblue" stroke="midnightblue" points="615.849,-84.0009 622.217,-75.5333 611.958,-78.1817 615.849,-84.0009"/>
</g>
<!-- Node28&#45;&gt;Node8 -->
<g id="edge58" class="edge"><title>Node28&#45;&gt;Node8</title>
<path fill="none" stroke="midnightblue" d="M1151.74,-385.936C1204.84,-374.196 1300.23,-353.105 1358.16,-340.297"/>
<polygon fill="midnightblue" stroke="midnightblue" points="1359.17,-343.66 1368.18,-338.083 1357.66,-336.825 1359.17,-343.66"/>
</g>
<!-- Node28&#45;&gt;Node9 -->
<g id="edge59" class="edge"><title>Node28&#45;&gt;Node9</title>
<path fill="none" stroke="midnightblue" d="M1133.25,-385.956C1152.34,-377.254 1181.07,-362.437 1202,-344 1223.48,-325.074 1242.2,-297.464 1253.06,-279.74"/>
<polygon fill="midnightblue" stroke="midnightblue" points="1256.13,-281.411 1258.24,-271.029 1250.12,-277.831 1256.13,-281.411"/>
</g>
<!-- Node29&#45;&gt;Node5 -->
<g id="edge61" class="edge"><title>Node29&#45;&gt;Node5</title>
<path fill="none" stroke="midnightblue" d="M1230.11,-385.997C1219.12,-383.807 1207.12,-381.615 1196,-380 1024.17,-355.053 974.238,-390.669 807,-344 741.329,-325.674 715.521,-326.843 669,-277 618.999,-223.43 627.97,-126.386 634.468,-85.721"/>
<polygon fill="midnightblue" stroke="midnightblue" points="637.959,-86.077 636.223,-75.6253 631.062,-84.8782 637.959,-86.077"/>
</g>
<!-- Node29&#45;&gt;Node8 -->
<g id="edge62" class="edge"><title>Node29&#45;&gt;Node8</title>
<path fill="none" stroke="midnightblue" d="M1287.33,-385.869C1310.94,-374.748 1352.19,-355.317 1379.55,-342.429"/>
<polygon fill="midnightblue" stroke="midnightblue" points="1381.04,-345.595 1388.6,-338.167 1378.06,-339.262 1381.04,-345.595"/>
</g>
<!-- Node29&#45;&gt;Node9 -->
<g id="edge63" class="edge"><title>Node29&#45;&gt;Node9</title>
<path fill="none" stroke="midnightblue" d="M1268.61,-385.839C1267.64,-364.674 1265.16,-309.948 1263.84,-281.033"/>
<polygon fill="midnightblue" stroke="midnightblue" points="1267.34,-280.852 1263.39,-271.021 1260.35,-281.17 1267.34,-280.852"/>
</g>
<!-- Node30&#45;&gt;Node5 -->
<g id="edge65" class="edge"><title>Node30&#45;&gt;Node5</title>
<path fill="none" stroke="midnightblue" d="M1122.11,-459.325C1020.24,-455.084 820.494,-443.117 654,-411 550.712,-391.076 503.944,-415.728 427,-344 349.777,-272.012 307.96,-192.723 376,-112 401.321,-81.9588 508.851,-71.9723 578.039,-68.6527"/>
<polygon fill="midnightblue" stroke="midnightblue" points="578.541,-72.1339 588.375,-68.1923 578.229,-65.1408 578.541,-72.1339"/>
</g>
<!-- Node30&#45;&gt;Node11 -->
<g id="edge74" class="edge"><title>Node30&#45;&gt;Node11</title>
<path fill="none" stroke="midnightblue" d="M1234.96,-447.476C1265.32,-437.907 1305.84,-424.554 1341,-411 1409.89,-384.443 1434.4,-388.899 1493,-344 1537.41,-309.976 1526.38,-278.386 1572,-246 1610.86,-218.413 1630.25,-231.067 1673,-210 1695.78,-198.773 1697.12,-187.652 1721,-179 1844.77,-134.152 1888.47,-179.339 2015,-143 2017.31,-142.336 2019.67,-141.519 2022,-140.614"/>
<polygon fill="midnightblue" stroke="midnightblue" points="2023.48,-143.787 2031.23,-136.567 2020.67,-137.375 2023.48,-143.787"/>
</g>
<!-- Node30&#45;&gt;Node13 -->
<g id="edge76" class="edge"><title>Node30&#45;&gt;Node13</title>
<path fill="none" stroke="midnightblue" d="M1122.48,-461.328C1026.87,-459.664 857.22,-450.969 813,-411 790.288,-390.471 800.58,-374.405 797,-344 795.389,-330.317 790.047,-324.894 797,-313 827.631,-260.601 859.362,-267.82 916,-246 983.612,-219.953 1017.43,-253.992 1075,-210 1085.98,-201.61 1124.92,-121.774 1142.4,-85.1723"/>
<polygon fill="midnightblue" stroke="midnightblue" points="1145.76,-86.2414 1146.9,-75.7075 1139.44,-83.2348 1145.76,-86.2414"/>
</g>
<!-- Node30&#45;&gt;Node15 -->
<g id="edge75" class="edge"><title>Node30&#45;&gt;Node15</title>
<path fill="none" stroke="midnightblue" d="M1255.69,-460.383C1402.05,-456.212 1760.95,-436.538 2044,-344 2103.54,-324.534 2135.92,-330.802 2168,-277 2207.71,-210.408 2137.91,-120.418 2104.89,-83.671"/>
<polygon fill="midnightblue" stroke="midnightblue" points="2107.08,-80.8836 2097.73,-75.8991 2101.93,-85.6258 2107.08,-80.8836"/>
</g>
<!-- Node30&#45;&gt;Node28 -->
<g id="edge67" class="edge"><title>Node30&#45;&gt;Node28</title>
<path fill="none" stroke="midnightblue" d="M1172.51,-447.396C1160.31,-436.96 1143.69,-422.751 1131.12,-411.998"/>
<polygon fill="midnightblue" stroke="midnightblue" points="1133.04,-409.034 1123.17,-405.195 1128.49,-414.354 1133.04,-409.034"/>
</g>
<!-- Node30&#45;&gt;Node29 -->
<g id="edge66" class="edge"><title>Node30&#45;&gt;Node29</title>
<path fill="none" stroke="midnightblue" d="M1206.36,-447.396C1219.33,-436.86 1237.03,-422.477 1250.31,-411.689"/>
<polygon fill="midnightblue" stroke="midnightblue" points="1252.74,-414.217 1258.3,-405.195 1248.33,-408.784 1252.74,-414.217"/>
</g>
<!-- Node30&#45;&gt;Node31 -->
<g id="edge68" class="edge"><title>Node30&#45;&gt;Node31</title>
<path fill="none" stroke="midnightblue" d="M1122.29,-456.273C1040.93,-449.208 899.481,-434.694 780,-411 693.755,-393.897 595.756,-364.996 536.96,-346.603"/>
<polygon fill="midnightblue" stroke="midnightblue" points="537.748,-343.182 527.159,-343.52 535.648,-349.859 537.748,-343.182"/>
</g>
<!-- Node31&#45;&gt;Node4 -->
<g id="edge69" class="edge"><title>Node31&#45;&gt;Node4</title>
<path fill="none" stroke="midnightblue" d="M435.815,-319.916C357.764,-307.632 204.3,-283.479 123.541,-270.769"/>
<polygon fill="midnightblue" stroke="midnightblue" points="124.012,-267.3 113.589,-269.203 122.923,-274.215 124.012,-267.3"/>
</g>
<!-- Node31&#45;&gt;Node5 -->
<g id="edge70" class="edge"><title>Node31&#45;&gt;Node5</title>
<path fill="none" stroke="midnightblue" d="M468.926,-313.395C431.404,-276.616 340.564,-176.192 394,-112 416.987,-84.3854 513.632,-73.6517 578.173,-69.5245"/>
<polygon fill="midnightblue" stroke="midnightblue" points="578.469,-73.0132 588.24,-68.9173 578.047,-66.0259 578.469,-73.0132"/>
</g>
<!-- Node31&#45;&gt;Node9 -->
<g id="edge72" class="edge"><title>Node31&#45;&gt;Node9</title>
<path fill="none" stroke="midnightblue" d="M532.142,-323.483C663.115,-312.555 1026.71,-282.216 1186.27,-268.902"/>
<polygon fill="midnightblue" stroke="midnightblue" points="1186.81,-272.37 1196.48,-268.05 1186.22,-265.394 1186.81,-272.37"/>
</g>
<!-- Node31&#45;&gt;Node10 -->
<g id="edge71" class="edge"><title>Node31&#45;&gt;Node10</title>
<path fill="none" stroke="midnightblue" d="M532.245,-318.943C617.224,-303.909 799.174,-271.894 953,-246 1038.19,-231.659 1136.67,-215.727 1199.36,-205.666"/>
<polygon fill="midnightblue" stroke="midnightblue" points="1200.17,-209.081 1209.49,-204.041 1199.06,-202.169 1200.17,-209.081"/>
</g>
<!-- Node31&#45;&gt;Node13 -->
<g id="edge73" class="edge"><title>Node31&#45;&gt;Node13</title>
<path fill="none" stroke="midnightblue" d="M523.848,-313.432C584.564,-291.87 703.77,-249.037 804,-210 922.234,-163.951 1061.38,-105.214 1121.21,-79.738"/>
<polygon fill="midnightblue" stroke="midnightblue" points="1122.95,-82.8006 1130.77,-75.6594 1120.2,-76.3613 1122.95,-82.8006"/>
</g>
<!-- Node32&#45;&gt;Node11 -->
<g id="edge79" class="edge"><title>Node32&#45;&gt;Node11</title>
<path fill="none" stroke="midnightblue" d="M1847.7,-184.891C1853.29,-182.823 1859.33,-180.718 1865,-179 1931.44,-158.865 1951.74,-166.682 2017,-143 2018.64,-142.406 2020.3,-141.744 2021.96,-141.038"/>
<polygon fill="midnightblue" stroke="midnightblue" points="2023.66,-144.108 2031.24,-136.704 2020.7,-137.767 2023.66,-144.108"/>
</g>
<!-- Node32&#45;&gt;Node15 -->
<g id="edge78" class="edge"><title>Node32&#45;&gt;Node15</title>
<path fill="none" stroke="midnightblue" d="M1850.89,-191.601C1906.36,-186.869 2037.67,-172.734 2069,-143 2084.51,-128.286 2088.52,-103.114 2089.31,-85.7978"/>
<polygon fill="midnightblue" stroke="midnightblue" points="2092.81,-85.7879 2089.44,-75.7415 2085.81,-85.6933 2092.81,-85.7879"/>
</g>
<!-- Node33&#45;&gt;Node5 -->
<g id="edge89" class="edge"><title>Node33&#45;&gt;Node5</title>
<path fill="none" stroke="midnightblue" d="M1615.81,-640.3C1470.42,-639.223 1023.49,-632.432 656,-590 517.785,-574.041 471.803,-597.489 348,-534 221.735,-469.248 180,-404.4 180,-262.5 180,-262.5 180,-262.5 180,-193.5 180,-147.168 204.469,-134.447 245,-112 300.863,-81.0611 482.965,-71.3255 578.409,-68.3143"/>
<polygon fill="midnightblue" stroke="midnightblue" points="578.597,-71.8103 588.487,-68.0112 578.386,-64.8135 578.597,-71.8103"/>
</g>
<!-- Node33&#45;&gt;Node9 -->
<g id="edge118" class="edge"><title>Node33&#45;&gt;Node9</title>
<path fill="none" stroke="midnightblue" d="M1615.91,-637.095C1464.88,-625.767 1010,-586.541 1010,-525 1010,-525 1010,-525 1010,-461.5 1010,-424.306 1003.07,-406.664 1029,-380 1072.89,-334.866 1110.27,-373.291 1166,-344 1184.69,-334.176 1185.87,-326.622 1202,-313 1216.2,-301.009 1232.41,-287.6 1244.55,-277.614"/>
<polygon fill="midnightblue" stroke="midnightblue" points="1247.08,-280.068 1252.59,-271.017 1242.64,-274.659 1247.08,-280.068"/>
</g>
<!-- Node33&#45;&gt;Node11 -->
<g id="edge86" class="edge"><title>Node33&#45;&gt;Node11</title>
<path fill="none" stroke="midnightblue" d="M1664,-626.275C1664,-604.476 1664,-561.495 1664,-525 1664,-525 1664,-525 1664,-394.5 1664,-289.829 1665.68,-226.416 1759,-179 1861.43,-126.951 1904.85,-175.702 2015,-143 2017.31,-142.315 2019.66,-141.484 2021.99,-140.57"/>
<polygon fill="midnightblue" stroke="midnightblue" points="2023.47,-143.74 2031.22,-136.51 2020.65,-137.333 2023.47,-143.74"/>
</g>
<!-- Node33&#45;&gt;Node15 -->
<g id="edge88" class="edge"><title>Node33&#45;&gt;Node15</title>
<path fill="none" stroke="midnightblue" d="M1712.2,-636.199C1855.31,-620.396 2275.36,-551.224 2398,-277 2428.23,-209.409 2434.89,-155.54 2375,-112 2334.66,-82.6719 2184.99,-71.772 2119.74,-68.3535"/>
<polygon fill="midnightblue" stroke="midnightblue" points="2119.83,-64.8534 2109.67,-67.8502 2119.48,-71.8446 2119.83,-64.8534"/>
</g>
<!-- Node33&#45;&gt;Node23 -->
<g id="edge87" class="edge"><title>Node33&#45;&gt;Node23</title>
<path fill="none" stroke="midnightblue" d="M1712.44,-632.695C1768.73,-620.541 1854,-591.204 1854,-525 1854,-525 1854,-525 1854,-394.5 1854,-340.857 1799.64,-297.647 1767,-276.54"/>
<polygon fill="midnightblue" stroke="midnightblue" points="1768.77,-273.518 1758.43,-271.183 1765.06,-279.453 1768.77,-273.518"/>
</g>
<!-- Node34 -->
<g id="node34" class="node"><title>Node34</title>
<g id="a_node34"><a xlink:href="_interpreter_8h.html" target="_top" xlink:title="uscxml/Interpreter.h">
<polygon fill="white" stroke="black" points="665.5,-570.5 665.5,-589.5 770.5,-589.5 770.5,-570.5 665.5,-570.5"/>
<text text-anchor="middle" x="718" y="-577.5" font-family="Helvetica,sans-Serif" font-size="10.00">uscxml/Interpreter.h</text>
</a>
</g>
</g>
<!-- Node33&#45;&gt;Node34 -->
<g id="edge90" class="edge"><title>Node33&#45;&gt;Node34</title>
<path fill="none" stroke="midnightblue" d="M1615.79,-637.468C1458.15,-627.553 958.029,-596.097 780.918,-584.957"/>
<polygon fill="midnightblue" stroke="midnightblue" points="780.923,-581.451 770.723,-584.316 780.484,-588.437 780.923,-581.451"/>
</g>
<!-- Node34&#45;&gt;Node5 -->
<g id="edge91" class="edge"><title>Node34&#45;&gt;Node5</title>
<path fill="none" stroke="midnightblue" d="M665.307,-577.956C601.62,-575.235 492.04,-565.838 404,-534 359.341,-517.85 341.124,-516.265 313,-478 241.042,-380.094 264.424,-331.384 259,-210 257.054,-166.452 233.111,-143.732 263,-112 284.217,-89.4748 478.038,-75.7012 578.381,-70.0202"/>
<polygon fill="midnightblue" stroke="midnightblue" points="578.588,-73.5142 588.377,-69.4635 578.198,-66.525 578.588,-73.5142"/>
</g>
<!-- Node34&#45;&gt;Node12 -->
<g id="edge92" class="edge"><title>Node34&#45;&gt;Node12</title>
<path fill="none" stroke="midnightblue" d="M770.664,-578.572C911.871,-576.961 1310.56,-569.372 1640,-534 2150.72,-479.165 2300.47,-528.095 2780,-344 2831.68,-324.16 2850.48,-320.273 2885,-277 2915.3,-239.025 2913.69,-177.725 2910.56,-147.125"/>
<polygon fill="midnightblue" stroke="midnightblue" points="2914.01,-146.526 2909.35,-137.013 2907.06,-147.358 2914.01,-146.526"/>
</g>
<!-- Node34&#45;&gt;Node15 -->
<g id="edge93" class="edge"><title>Node34&#45;&gt;Node15</title>
<path fill="none" stroke="midnightblue" d="M770.642,-578.267C933.415,-575.684 1427.06,-565.401 1584,-534 1609.91,-528.815 1614.46,-520.786 1640,-514 1728.13,-490.583 1753.15,-498.553 1842,-478 2053.21,-429.141 2125,-455.35 2311,-344 2400.41,-290.472 2430.49,-171.6 2345,-112 2308.94,-86.8628 2179.53,-73.9248 2119.71,-69.1757"/>
<polygon fill="midnightblue" stroke="midnightblue" points="2119.96,-65.6849 2109.73,-68.408 2119.43,-72.6643 2119.96,-65.6849"/>
</g>
<!-- Node34&#45;&gt;Node26 -->
<g id="edge109" class="edge"><title>Node34&#45;&gt;Node26</title>
<path fill="none" stroke="midnightblue" d="M770.711,-575.415C908.482,-566.045 1279.6,-540.806 1438.34,-530.01"/>
<polygon fill="midnightblue" stroke="midnightblue" points="1438.74,-533.49 1448.48,-529.32 1438.27,-526.507 1438.74,-533.49"/>
</g>
<!-- Node34&#45;&gt;Node31 -->
<g id="edge102" class="edge"><title>Node34&#45;&gt;Node31</title>
<path fill="none" stroke="midnightblue" d="M693.139,-570.428C673.889,-562.932 647.334,-550.634 628,-534 565.529,-480.254 516.542,-393.804 495.38,-352.679"/>
<polygon fill="midnightblue" stroke="midnightblue" points="498.474,-351.043 490.834,-343.703 492.229,-354.205 498.474,-351.043"/>
</g>
<!-- Node35 -->
<g id="node35" class="node"><title>Node35</title>
<polygon fill="white" stroke="#bfbfbf" points="784,-514.5 784,-533.5 828,-533.5 828,-514.5 784,-514.5"/>
<text text-anchor="middle" x="806" y="-521.5" font-family="Helvetica,sans-Serif" font-size="10.00">vector</text>
</g>
<!-- Node34&#45;&gt;Node35 -->
<g id="edge94" class="edge"><title>Node34&#45;&gt;Node35</title>
<path fill="none" stroke="midnightblue" d="M732.139,-570.324C745.866,-561.9 766.936,-548.971 783.064,-539.074"/>
<polygon fill="midnightblue" stroke="midnightblue" points="785.204,-541.868 791.896,-533.655 781.543,-535.902 785.204,-541.868"/>
</g>
<!-- Node36 -->
<g id="node36" class="node"><title>Node36</title>
<g id="a_node36"><a xlink:href="_micro_step_8h.html" target="_top" xlink:title="uscxml/interpreter\l/MicroStep.h">
<polygon fill="white" stroke="black" points="970,-179.5 970,-209.5 1066,-209.5 1066,-179.5 970,-179.5"/>
<text text-anchor="start" x="978" y="-197.5" font-family="Helvetica,sans-Serif" font-size="10.00">uscxml/interpreter</text>
<text text-anchor="middle" x="1018" y="-186.5" font-family="Helvetica,sans-Serif" font-size="10.00">/MicroStep.h</text>
</a>
</g>
</g>
<!-- Node34&#45;&gt;Node36 -->
<g id="edge95" class="edge"><title>Node34&#45;&gt;Node36</title>
<path fill="none" stroke="midnightblue" d="M716.013,-570.433C714.033,-561.424 711.129,-546.805 710,-534 706.603,-495.483 706.857,-485.539 710,-447 718.383,-344.199 739.82,-302.669 826,-246 866.222,-219.552 919.703,-206.931 960.005,-200.923"/>
<polygon fill="midnightblue" stroke="midnightblue" points="960.531,-204.383 969.951,-199.533 959.563,-197.45 960.531,-204.383"/>
</g>
<!-- Node37 -->
<g id="node37" class="node"><title>Node37</title>
<g id="a_node37"><a xlink:href="_interpreter_state_8h.html" target="_top" xlink:title="uscxml/interpreter\l/InterpreterState.h">
<polygon fill="white" stroke="black" points="436.5,-112.5 436.5,-142.5 533.5,-142.5 533.5,-112.5 436.5,-112.5"/>
<text text-anchor="start" x="444.5" y="-130.5" font-family="Helvetica,sans-Serif" font-size="10.00">uscxml/interpreter</text>
<text text-anchor="middle" x="485" y="-119.5" font-family="Helvetica,sans-Serif" font-size="10.00">/InterpreterState.h</text>
</a>
</g>
</g>
<!-- Node34&#45;&gt;Node37 -->
<g id="edge117" class="edge"><title>Node34&#45;&gt;Node37</title>
<path fill="none" stroke="midnightblue" d="M686.579,-570.363C662.911,-562.968 630.323,-550.834 605,-534 562.044,-505.444 441.073,-380.142 427,-344 400.459,-275.837 444.609,-191.007 469.619,-151.165"/>
<polygon fill="midnightblue" stroke="midnightblue" points="472.598,-153.004 475.073,-142.702 466.714,-149.212 472.598,-153.004"/>
</g>
<!-- Node38 -->
<g id="node38" class="node"><title>Node38</title>
<g id="a_node38"><a xlink:href="_data_model_8h.html" target="_top" xlink:title="uscxml/plugins/DataModel.h">
<polygon fill="white" stroke="black" points="816,-319 816,-338 958,-338 958,-319 816,-319"/>
<text text-anchor="middle" x="887" y="-326" font-family="Helvetica,sans-Serif" font-size="10.00">uscxml/plugins/DataModel.h</text>
</a>
</g>
</g>
<!-- Node34&#45;&gt;Node38 -->
<g id="edge103" class="edge"><title>Node34&#45;&gt;Node38</title>
<path fill="none" stroke="midnightblue" d="M720.408,-570.131C728.834,-540.379 759.431,-442.491 813,-380 826.077,-364.745 844.801,-352.026 860.142,-343.168"/>
<polygon fill="midnightblue" stroke="midnightblue" points="862.124,-346.071 869.176,-338.164 858.732,-339.948 862.124,-346.071"/>
</g>
<!-- Node39 -->
<g id="node39" class="node"><title>Node39</title>
<g id="a_node39"><a xlink:href="_content_executor_8h.html" target="_top" xlink:title="uscxml/interpreter\l/ContentExecutor.h">
<polygon fill="white" stroke="black" points="962,-246.5 962,-276.5 1064,-276.5 1064,-246.5 962,-246.5"/>
<text text-anchor="start" x="970" y="-264.5" font-family="Helvetica,sans-Serif" font-size="10.00">uscxml/interpreter</text>
<text text-anchor="middle" x="1013" y="-253.5" font-family="Helvetica,sans-Serif" font-size="10.00">/ContentExecutor.h</text>
</a>
</g>
</g>
<!-- Node34&#45;&gt;Node39 -->
<g id="edge110" class="edge"><title>Node34&#45;&gt;Node39</title>
<path fill="none" stroke="midnightblue" d="M716.757,-570.067C712.091,-532.595 699.474,-386.636 774,-313 798.683,-288.612 889.466,-274.768 951.759,-267.953"/>
<polygon fill="midnightblue" stroke="midnightblue" points="952.306,-271.415 961.881,-266.88 951.568,-264.454 952.306,-271.415"/>
</g>
<!-- Node34&#45;&gt;Node40 -->
<g id="edge114" class="edge"><title>Node34&#45;&gt;Node40</title>
<path fill="none" stroke="midnightblue" d="M665.444,-575.016C594.156,-568.891 471.199,-555.555 432,-534 411.703,-522.839 394.835,-502.345 383.844,-486.318"/>
<polygon fill="midnightblue" stroke="midnightblue" points="386.477,-483.95 378.069,-477.503 380.621,-487.786 386.477,-483.95"/>
</g>
<!-- Node36&#45;&gt;Node5 -->
<g id="edge99" class="edge"><title>Node36&#45;&gt;Node5</title>
<path fill="none" stroke="midnightblue" d="M1011.53,-179.236C1002.17,-160.416 982.989,-127.832 956,-112 913.424,-87.0247 777.635,-75.0712 697.931,-70.0737"/>
<polygon fill="midnightblue" stroke="midnightblue" points="697.742,-66.5559 687.548,-69.4421 697.317,-73.5429 697.742,-66.5559"/>
</g>
<!-- Node36&#45;&gt;Node11 -->
<g id="edge97" class="edge"><title>Node36&#45;&gt;Node11</title>
<path fill="none" stroke="midnightblue" d="M1066.16,-189.004C1100.62,-185.892 1148.14,-181.82 1190,-179 1506.57,-157.67 1586.62,-167.012 1903,-143 1944.52,-139.849 1992.66,-134.646 2021.16,-131.404"/>
<polygon fill="midnightblue" stroke="midnightblue" points="2021.87,-134.845 2031.41,-130.226 2021.07,-127.891 2021.87,-134.845"/>
</g>
<!-- Node36&#45;&gt;Node13 -->
<g id="edge96" class="edge"><title>Node36&#45;&gt;Node13</title>
<path fill="none" stroke="midnightblue" d="M1026.56,-179.311C1037.47,-162.016 1057.61,-132.559 1080,-112 1093.58,-99.5324 1111.05,-88.4115 1125.26,-80.3443"/>
<polygon fill="midnightblue" stroke="midnightblue" points="1126.98,-83.3907 1134.05,-75.5004 1123.6,-77.2592 1126.98,-83.3907"/>
</g>
<!-- Node36&#45;&gt;Node15 -->
<g id="edge98" class="edge"><title>Node36&#45;&gt;Node15</title>
<path fill="none" stroke="midnightblue" d="M1066.16,-189.035C1100.63,-185.939 1148.14,-181.871 1190,-179 1340.97,-168.643 1727.28,-193.288 1870,-143 1892.22,-135.171 1891.66,-121.981 1913,-112 1961.23,-89.4413 2022.4,-77.0651 2058.46,-71.2525"/>
<polygon fill="midnightblue" stroke="midnightblue" points="2059.02,-74.7074 2068.37,-69.7195 2057.95,-67.7897 2059.02,-74.7074"/>
</g>
<!-- Node36&#45;&gt;Node37 -->
<g id="edge100" class="edge"><title>Node36&#45;&gt;Node37</title>
<path fill="none" stroke="midnightblue" d="M969.76,-187.617C871.801,-175.671 649.892,-148.609 543.727,-135.662"/>
<polygon fill="midnightblue" stroke="midnightblue" points="543.865,-132.153 533.515,-134.416 543.018,-139.101 543.865,-132.153"/>
</g>
<!-- Node37&#45;&gt;Node5 -->
<g id="edge101" class="edge"><title>Node37&#45;&gt;Node5</title>
<path fill="none" stroke="midnightblue" d="M521.259,-112.399C547.044,-102.372 581.357,-89.028 606.101,-79.405"/>
<polygon fill="midnightblue" stroke="midnightblue" points="607.686,-82.5443 615.737,-75.6578 605.149,-76.0203 607.686,-82.5443"/>
</g>
<!-- Node38&#45;&gt;Node5 -->
<g id="edge104" class="edge"><title>Node38&#45;&gt;Node5</title>
<path fill="none" stroke="midnightblue" d="M815.861,-321.516C778.225,-315.292 733.092,-302.647 700,-277 639.852,-230.385 635.86,-128.267 636.979,-85.9502"/>
<polygon fill="midnightblue" stroke="midnightblue" points="640.486,-85.8278 637.387,-75.6963 633.492,-85.549 640.486,-85.8278"/>
</g>
<!-- Node38&#45;&gt;Node9 -->
<g id="edge105" class="edge"><title>Node38&#45;&gt;Node9</title>
<path fill="none" stroke="midnightblue" d="M937.025,-318.958C1014.81,-305.672 1158.33,-281.145 1182,-277 1189.62,-275.666 1197.64,-274.248 1205.55,-272.84"/>
<polygon fill="midnightblue" stroke="midnightblue" points="1206.24,-276.272 1215.47,-271.071 1205.01,-269.381 1206.24,-276.272"/>
</g>
<!-- Node38&#45;&gt;Node11 -->
<g id="edge106" class="edge"><title>Node38&#45;&gt;Node11</title>
<path fill="none" stroke="midnightblue" d="M931.594,-318.988C1003.88,-305.156 1139.12,-279.118 1144,-277 1165.61,-267.623 1164.96,-254.312 1187,-246 1342.43,-187.399 1397.73,-249.788 1559,-210 1594.42,-201.262 1599.57,-187.694 1635,-179 1800.62,-138.36 1853.06,-189.931 2017,-143 2018.67,-142.521 2020.37,-141.946 2022.05,-141.305"/>
<polygon fill="midnightblue" stroke="midnightblue" points="2023.68,-144.409 2031.38,-137.125 2020.82,-138.021 2023.68,-144.409"/>
</g>
<!-- Node38&#45;&gt;Node13 -->
<g id="edge108" class="edge"><title>Node38&#45;&gt;Node13</title>
<path fill="none" stroke="midnightblue" d="M891.47,-318.771C900.594,-301.88 923.058,-264.737 953,-246 1012.95,-208.484 1056.42,-258.386 1108,-210 1126.18,-192.949 1141.3,-120.85 1147.71,-86.0065"/>
<polygon fill="midnightblue" stroke="midnightblue" points="1151.23,-86.2111 1149.54,-75.7517 1144.34,-84.9813 1151.23,-86.2111"/>
</g>
<!-- Node38&#45;&gt;Node15 -->
<g id="edge107" class="edge"><title>Node38&#45;&gt;Node15</title>
<path fill="none" stroke="midnightblue" d="M928.784,-318.935C987.801,-306.674 1090.19,-284.745 1106,-277 1125.57,-267.412 1123.84,-254.281 1144,-246 1299.69,-182.047 1365.31,-273.953 1521,-210 1541.16,-201.719 1538.8,-187.184 1559,-179 1732.64,-108.656 1803.34,-208.134 1979,-143 2001.09,-134.809 2002.66,-125.459 2022,-112 2037.14,-101.464 2054.42,-89.8662 2067.64,-81.0838"/>
<polygon fill="midnightblue" stroke="midnightblue" points="2069.67,-83.9415 2076.07,-75.501 2065.8,-78.1058 2069.67,-83.9415"/>
</g>
<!-- Node39&#45;&gt;Node5 -->
<g id="edge111" class="edge"><title>Node39&#45;&gt;Node5</title>
<path fill="none" stroke="midnightblue" d="M970.629,-246.438C946.256,-237.542 915.506,-224.917 890,-210 829.364,-174.538 827.529,-145.889 766,-112 739.315,-97.3025 706.923,-85.9701 681.402,-78.3539"/>
<polygon fill="midnightblue" stroke="midnightblue" points="682.21,-74.9442 671.631,-75.5182 680.259,-81.6668 682.21,-74.9442"/>
</g>
<!-- Node39&#45;&gt;Node10 -->
<g id="edge112" class="edge"><title>Node39&#45;&gt;Node10</title>
<path fill="none" stroke="midnightblue" d="M1064.19,-247.189C1110.22,-235.223 1177.04,-217.85 1220.26,-206.613"/>
<polygon fill="midnightblue" stroke="midnightblue" points="1221.38,-209.938 1230.18,-204.034 1219.62,-203.163 1221.38,-209.938"/>
</g>
<!-- Node39&#45;&gt;Node15 -->
<g id="edge113" class="edge"><title>Node39&#45;&gt;Node15</title>
<path fill="none" stroke="midnightblue" d="M1064.02,-248.711C1068.73,-247.744 1073.45,-246.824 1078,-246 1191.93,-225.379 1221.83,-229.221 1336,-210 1406.14,-198.192 1422.58,-188.992 1493,-179 1675.42,-153.116 1732.61,-205.329 1906,-143 1928.85,-134.784 1929.23,-122.765 1951,-112 1986.21,-94.5907 2029.7,-81.6997 2058.33,-74.2785"/>
<polygon fill="midnightblue" stroke="midnightblue" points="2059.33,-77.6365 2068.17,-71.7936 2057.62,-70.8498 2059.33,-77.6365"/>
</g>
<!-- Node40&#45;&gt;Node5 -->
<g id="edge115" class="edge"><title>Node40&#45;&gt;Node5</title>
<path fill="none" stroke="midnightblue" d="M350.241,-447.313C339.037,-438.206 325.749,-425.408 318,-411 286.275,-352.011 235.69,-162.228 280,-112 299.367,-90.0462 481.347,-76.1595 578.124,-70.2647"/>
<polygon fill="midnightblue" stroke="midnightblue" points="578.578,-73.7438 588.351,-69.6522 578.16,-66.7564 578.578,-73.7438"/>
</g>
<!-- Node40&#45;&gt;Node9 -->
<g id="edge116" class="edge"><title>Node40&#45;&gt;Node9</title>
<path fill="none" stroke="midnightblue" d="M418.022,-460.543C539.118,-457.619 854.232,-446.706 952,-411 974.47,-402.794 974.338,-390.148 996,-380 1051.84,-353.839 1074.16,-370.161 1130,-344 1151.66,-333.852 1153.8,-325.807 1174,-313 1194.89,-299.759 1219.38,-285.984 1237.38,-276.173"/>
<polygon fill="midnightblue" stroke="midnightblue" points="1239.51,-278.996 1246.64,-271.158 1236.18,-272.839 1239.51,-278.996"/>
</g>
<!-- Node41&#45;&gt;Node5 -->
<g id="edge120" class="edge"><title>Node41&#45;&gt;Node5</title>
<path fill="none" stroke="midnightblue" d="M822.335,-388.319C747.469,-379.994 625.033,-363.9 584,-344 564.04,-334.32 524.202,-294.041 510,-277 465.15,-223.185 446.177,-210.379 427,-143 423.228,-129.748 418.333,-122.71 427,-112 445.743,-88.8381 522.684,-77.0848 578.247,-71.5057"/>
<polygon fill="midnightblue" stroke="midnightblue" points="578.735,-74.9751 588.354,-70.5345 578.065,-68.0072 578.735,-74.9751"/>
</g>
<!-- Node41&#45;&gt;Node9 -->
<g id="edge121" class="edge"><title>Node41&#45;&gt;Node9</title>
<path fill="none" stroke="midnightblue" d="M908.589,-380.388C925.545,-370.731 948.069,-357.31 967,-344 984.83,-331.464 985.269,-322.26 1005,-313 1014.11,-308.723 1133.23,-286.35 1206.39,-272.859"/>
<polygon fill="midnightblue" stroke="midnightblue" points="1207.19,-276.271 1216.39,-271.017 1205.92,-269.387 1207.19,-276.271"/>
</g>
<!-- Node41&#45;&gt;Node15 -->
<g id="edge127" class="edge"><title>Node41&#45;&gt;Node15</title>
<path fill="none" stroke="midnightblue" d="M853.856,-380.475C824.329,-364.436 785.805,-337.257 807,-313 846.249,-268.082 1019.14,-302.641 1073,-277 1091.17,-268.35 1087.73,-254.436 1106,-246 1237.14,-185.447 1287.97,-241.24 1429,-210 1471.13,-200.668 1478.76,-187.786 1521,-179 1705.29,-140.671 1769.48,-215.957 1943,-143 1962.46,-134.816 1961,-123.029 1979,-112 2004.29,-96.5087 2035.86,-84.2274 2058.68,-76.4349"/>
<polygon fill="midnightblue" stroke="midnightblue" points="2059.8,-79.7498 2068.19,-73.2745 2057.59,-73.1071 2059.8,-79.7498"/>
</g>
<!-- Node41&#45;&gt;Node23 -->
<g id="edge128" class="edge"><title>Node41&#45;&gt;Node23</title>
<path fill="none" stroke="midnightblue" d="M943.707,-388.175C969.928,-385.52 1000.96,-382.48 1029,-380 1235.04,-361.778 1290.13,-384.339 1493,-344 1577.95,-327.109 1674.29,-290.492 1718.49,-272.663"/>
<polygon fill="midnightblue" stroke="midnightblue" points="1719.89,-275.87 1727.83,-268.857 1717.25,-269.387 1719.89,-275.87"/>
</g>
<!-- Node41&#45;&gt;Node31 -->
<g id="edge126" class="edge"><title>Node41&#45;&gt;Node31</title>
<path fill="none" stroke="midnightblue" d="M822.482,-386.934C754.836,-378.128 642.162,-362.418 546,-344 544.748,-343.76 543.483,-343.513 542.209,-343.258"/>
<polygon fill="midnightblue" stroke="midnightblue" points="542.823,-339.811 532.319,-341.199 541.396,-346.664 542.823,-339.811"/>
</g>
<!-- Node42 -->
<g id="node42" class="node"><title>Node42</title>
<g id="a_node42"><a xlink:href="_interpreter_monitor_8h.html" target="_top" xlink:title="uscxml/interpreter\l/InterpreterMonitor.h">
<polygon fill="white" stroke="red" points="1014.5,-313.5 1014.5,-343.5 1121.5,-343.5 1121.5,-313.5 1014.5,-313.5"/>
<text text-anchor="start" x="1022.5" y="-331.5" font-family="Helvetica,sans-Serif" font-size="10.00">uscxml/interpreter</text>
<text text-anchor="middle" x="1068" y="-320.5" font-family="Helvetica,sans-Serif" font-size="10.00">/InterpreterMonitor.h</text>
</a>
</g>
</g>
<!-- Node41&#45;&gt;Node42 -->
<g id="edge122" class="edge"><title>Node41&#45;&gt;Node42</title>
<path fill="none" stroke="midnightblue" d="M923.142,-380.396C951.021,-370.601 988.362,-357.481 1018.15,-347.015"/>
<polygon fill="midnightblue" stroke="midnightblue" points="1019.66,-350.194 1027.94,-343.577 1017.34,-343.589 1019.66,-350.194"/>
</g>
<!-- Node42&#45;&gt;Node5 -->
<g id="edge123" class="edge"><title>Node42&#45;&gt;Node5</title>
<path fill="none" stroke="midnightblue" d="M1014.44,-319.604C921.714,-305.895 740.837,-278.955 738,-277 703.831,-253.455 660.072,-132.364 644.145,-85.5271"/>
<polygon fill="midnightblue" stroke="midnightblue" points="647.373,-84.1469 640.87,-75.7829 640.738,-86.3769 647.373,-84.1469"/>
</g>
<!-- Node42&#45;&gt;Node9 -->
<g id="edge124" class="edge"><title>Node42&#45;&gt;Node9</title>
<path fill="none" stroke="midnightblue" d="M1110.31,-313.396C1145.44,-301.688 1194.81,-285.231 1227.8,-274.234"/>
<polygon fill="midnightblue" stroke="midnightblue" points="1229.1,-277.49 1237.48,-271.007 1226.89,-270.849 1229.1,-277.49"/>
</g>
<!-- Node42&#45;&gt;Node21 -->
<g id="edge125" class="edge"><title>Node42&#45;&gt;Node21</title>
<path fill="none" stroke="midnightblue" d="M1121.78,-324.169C1172.99,-321.056 1252.23,-316.393 1321,-313 1562.3,-301.096 2340.64,-270.403 2509.49,-263.774"/>
<polygon fill="midnightblue" stroke="midnightblue" points="2509.86,-267.262 2519.72,-263.373 2509.59,-260.268 2509.86,-267.262"/>
</g>
<!-- Node43&#45;&gt;Node5 -->
<g id="edge131" class="edge"><title>Node43&#45;&gt;Node5</title>
<path fill="none" stroke="midnightblue" d="M2733.71,-313.277C2749.32,-295.398 2770.41,-264.781 2752,-246 2682.34,-174.925 1054.63,-243.737 961,-210 940.169,-202.494 939.361,-192.742 922,-179 884.283,-149.145 880.419,-132.704 837,-112 792.936,-90.9881 738.64,-79.5577 697.9,-73.4821"/>
<polygon fill="midnightblue" stroke="midnightblue" points="698.243,-69.9957 687.849,-72.0503 697.256,-76.9257 698.243,-69.9957"/>
</g>
<!-- Node43&#45;&gt;Node9 -->
<g id="edge132" class="edge"><title>Node43&#45;&gt;Node9</title>
<path fill="none" stroke="midnightblue" d="M2669,-325.225C2451.55,-315.524 1601.11,-277.584 1339.8,-265.926"/>
<polygon fill="midnightblue" stroke="midnightblue" points="1339.79,-262.422 1329.65,-265.473 1339.48,-269.416 1339.79,-262.422"/>
</g>
<!-- Node43&#45;&gt;Node11 -->
<g id="edge135" class="edge"><title>Node43&#45;&gt;Node11</title>
<path fill="none" stroke="midnightblue" d="M2744.76,-313.428C2770.58,-296.998 2804.74,-269.126 2785,-246 2689.92,-134.604 2189.05,-128.285 2070.96,-128.362"/>
<polygon fill="midnightblue" stroke="midnightblue" points="2070.74,-124.862 2060.75,-128.386 2070.76,-131.862 2070.74,-124.862"/>
</g>
<!-- Node43&#45;&gt;Node12 -->
<g id="edge134" class="edge"><title>Node43&#45;&gt;Node12</title>
<path fill="none" stroke="midnightblue" d="M2771.12,-320.684C2801,-314.181 2837.37,-301.532 2861,-277 2895.93,-240.734 2904.91,-178.657 2907.21,-147.506"/>
<polygon fill="midnightblue" stroke="midnightblue" points="2910.73,-147.384 2907.81,-137.199 2903.74,-146.981 2910.73,-147.384"/>
</g>
<!-- Node43&#45;&gt;Node15 -->
<g id="edge133" class="edge"><title>Node43&#45;&gt;Node15</title>
<path fill="none" stroke="midnightblue" d="M2758.66,-313.371C2774.77,-305.339 2791.83,-293.518 2801,-277 2807.69,-264.953 2808.71,-257.417 2801,-246 2711.7,-113.803 2622.56,-151.528 2468,-112 2341.52,-79.6525 2185.22,-70.4412 2119.93,-67.914"/>
<polygon fill="midnightblue" stroke="midnightblue" points="2120.01,-64.4148 2109.89,-67.5513 2119.76,-71.4102 2120.01,-64.4148"/>
</g>
<!-- Node43&#45;&gt;Node21 -->
<g id="edge137" class="edge"><title>Node43&#45;&gt;Node21</title>
<path fill="none" stroke="midnightblue" d="M2675.16,-313.471C2645.81,-303.952 2606.77,-290.655 2573,-277 2571.62,-276.443 2570.22,-275.857 2568.81,-275.252"/>
<polygon fill="midnightblue" stroke="midnightblue" points="2570.12,-272.005 2559.56,-271.111 2567.26,-278.393 2570.12,-272.005"/>
</g>
<!-- Node43&#45;&gt;Node24 -->
<g id="edge136" class="edge"><title>Node43&#45;&gt;Node24</title>
<path fill="none" stroke="midnightblue" d="M2720,-313.396C2720,-304.064 2720,-291.714 2720,-281.517"/>
<polygon fill="midnightblue" stroke="midnightblue" points="2723.5,-281.195 2720,-271.195 2716.5,-281.195 2723.5,-281.195"/>
</g>
<!-- Node43&#45;&gt;Node25 -->
<g id="edge138" class="edge"><title>Node43&#45;&gt;Node25</title>
<path fill="none" stroke="midnightblue" d="M2700.69,-313.396C2686.04,-302.697 2665.96,-288.033 2651.12,-277.193"/>
<polygon fill="midnightblue" stroke="midnightblue" points="2652.79,-274.078 2642.65,-271.007 2648.66,-279.731 2652.79,-274.078"/>
</g>
<!-- Node44&#45;&gt;Node5 -->
<g id="edge143" class="edge"><title>Node44&#45;&gt;Node5</title>
<path fill="none" stroke="midnightblue" d="M1936.69,-325.778C1737.46,-318.731 1000.41,-291.772 953,-277 919.507,-266.564 722.787,-127.474 658.393,-81.5789"/>
<polygon fill="midnightblue" stroke="midnightblue" points="660.061,-78.4693 649.888,-75.5102 655.995,-84.1676 660.061,-78.4693"/>
</g>
<!-- Node44&#45;&gt;Node11 -->
<g id="edge141" class="edge"><title>Node44&#45;&gt;Node11</title>
<path fill="none" stroke="midnightblue" d="M1951.34,-318.973C1900.06,-306.195 1809.51,-282.944 1805,-277 1796.67,-266.026 1797.69,-257.679 1805,-246 1818.89,-223.801 1993.51,-154.578 2017,-143 2018.6,-142.213 2020.24,-141.399 2021.9,-140.577"/>
<polygon fill="midnightblue" stroke="midnightblue" points="2023.87,-143.503 2031.26,-135.909 2020.75,-137.238 2023.87,-143.503"/>
</g>
<!-- Node44&#45;&gt;Node23 -->
<g id="edge140" class="edge"><title>Node44&#45;&gt;Node23</title>
<path fill="none" stroke="midnightblue" d="M1949.14,-318.915C1889.05,-304.906 1776.21,-278.524 1772,-277 1770.4,-276.42 1768.77,-275.774 1767.15,-275.087"/>
<polygon fill="midnightblue" stroke="midnightblue" points="1768.6,-271.904 1758.06,-270.857 1765.65,-278.25 1768.6,-271.904"/>
</g>
<!-- Node45 -->
<g id="node45" class="node"><title>Node45</title>
<polygon fill="white" stroke="#bfbfbf" points="1951.5,-252 1951.5,-271 2006.5,-271 2006.5,-252 1951.5,-252"/>
<text text-anchor="middle" x="1979" y="-259" font-family="Helvetica,sans-Serif" font-size="10.00">iostream</text>
</g>
<!-- Node44&#45;&gt;Node45 -->
<g id="edge142" class="edge"><title>Node44&#45;&gt;Node45</title>
<path fill="none" stroke="midnightblue" d="M1985.06,-318.734C1984.03,-309.183 1982.35,-293.618 1981.02,-281.283"/>
<polygon fill="midnightblue" stroke="midnightblue" points="1984.48,-280.695 1979.93,-271.127 1977.52,-281.445 1984.48,-280.695"/>
</g>
<!-- Node46 -->
<g id="node46" class="node"><title>Node46</title>
<polygon fill="white" stroke="#bfbfbf" points="2024.5,-252 2024.5,-271 2159.5,-271 2159.5,-252 2024.5,-252"/>
<text text-anchor="middle" x="2092" y="-259" font-family="Helvetica,sans-Serif" font-size="10.00">xercesc/util/XMLString.hpp</text>
</g>
<!-- Node44&#45;&gt;Node46 -->
<g id="edge144" class="edge"><title>Node44&#45;&gt;Node46</title>
<path fill="none" stroke="midnightblue" d="M2000.3,-318.734C2018.02,-307.867 2048.43,-289.216 2069.34,-276.393"/>
<polygon fill="midnightblue" stroke="midnightblue" points="2071.24,-279.339 2077.93,-271.127 2067.58,-273.371 2071.24,-279.339"/>
</g>
<!-- Node47 -->
<g id="node47" class="node"><title>Node47</title>
<polygon fill="white" stroke="#bfbfbf" points="1814.5,-252 1814.5,-271 1933.5,-271 1933.5,-252 1814.5,-252"/>
<text text-anchor="middle" x="1874" y="-259" font-family="Helvetica,sans-Serif" font-size="10.00">xercesc/dom/DOM.hpp</text>
</g>
<!-- Node44&#45;&gt;Node47 -->
<g id="edge145" class="edge"><title>Node44&#45;&gt;Node47</title>
<path fill="none" stroke="midnightblue" d="M1970.9,-318.734C1952.09,-307.818 1919.75,-289.049 1897.64,-276.221"/>
<polygon fill="midnightblue" stroke="midnightblue" points="1899.27,-273.12 1888.87,-271.127 1895.76,-279.174 1899.27,-273.12"/>
</g>
</g>
</svg>
