<?xml version="1.0" encoding="UTF-8" standalone="no"?>
<!DOCTYPE svg PUBLIC "-//W3C//DTD SVG 1.1//EN"
 "http://www.w3.org/Graphics/SVG/1.1/DTD/svg11.dtd">
<!-- Generated by graphviz version 2.38.0 (20140413.2041)
 -->
<!-- Title: interpreter/EventQueue.cpp Pages: 1 -->
<!--zoomable 364 -->
<svg id="main" version="1.1" xmlns="http://www.w3.org/2000/svg" xmlns:xlink="http://www.w3.org/1999/xlink" xml:space="preserve" onload="init(evt)">
<style type="text/css"><![CDATA[
.edge:hover path { stroke: red; }
.edge:hover polygon { stroke: red; fill: red; }
]]></style>
<script type="text/javascript"><![CDATA[
var edges = document.getElementsByTagName('g');
if (edges && edges.length) {
  for (var i=0;i<edges.length;i++) {
    if (edges[i].id.substr(0,4)=='edge') {
      edges[i].setAttribute('class','edge');
    }
  }
}
]]></script>
        <defs>
                <circle id="rim" cx="0" cy="0" r="7"/>
                <circle id="rim2" cx="0" cy="0" r="3.5"/>
                <g id="zoomPlus">
                        <use xlink:href="#rim" fill="#404040">
                                <set attributeName="fill" to="#808080" begin="zoomplus.mouseover" end="zoomplus.mouseout"/>
                        </use>
                        <path d="M-4,0h8M0,-4v8" fill="none" stroke="white" stroke-width="1.5" pointer-events="none"/>
                </g>
                <g id="zoomMin">
                        <use xlink:href="#rim" fill="#404040">
                                <set attributeName="fill" to="#808080" begin="zoomminus.mouseover" end="zoomminus.mouseout"/>
                        </use>
                        <path d="M-4,0h8" fill="none" stroke="white" stroke-width="1.5" pointer-events="none"/>
                </g>
                <g id="dirArrow">
                        <path fill="none" stroke="white" stroke-width="1.5" d="M0,-3.0v7 M-2.5,-0.5L0,-3.0L2.5,-0.5"/>
                </g>
               <g id="resetDef">
                       <use xlink:href="#rim2" fill="#404040">
                               <set attributeName="fill" to="#808080" begin="reset.mouseover" end="reset.mouseout"/>
                       </use>
               </g>
        </defs>

<script type="text/javascript">
var viewWidth = 976;
var viewHeight = 364;
var sectionId = 'dynsection-0';
</script>
<script xlink:href="svgpan.js"/>
<svg id="graph" class="graph">
<g id="viewport">
<title>interpreter/EventQueue.cpp</title>
<polygon fill="white" stroke="none" points="-4,4 -4,-360 972,-360 972,4 -4,4"/>
<!-- Node1 -->
<g id="node1" class="node"><title>Node1</title>
<polygon fill="#bfbfbf" stroke="black" points="546.5,-336.5 546.5,-355.5 685.5,-355.5 685.5,-336.5 546.5,-336.5"/>
<text text-anchor="middle" x="616" y="-343.5" font-family="Helvetica,sans-Serif" font-size="10.00">interpreter/EventQueue.cpp</text>
</g>
<!-- Node2 -->
<g id="node2" class="node"><title>Node2</title>
<g id="a_node2"><a xlink:href="_common_8h.html" target="_top" xlink:title="uscxml/Common.h">
<polygon fill="white" stroke="black" points="112.5,-56.5 112.5,-75.5 211.5,-75.5 211.5,-56.5 112.5,-56.5"/>
<text text-anchor="middle" x="162" y="-63.5" font-family="Helvetica,sans-Serif" font-size="10.00">uscxml/Common.h</text>
</a>
</g>
</g>
<!-- Node1&#45;&gt;Node2 -->
<g id="edge1" class="edge"><title>Node1&#45;&gt;Node2</title>
<path fill="none" stroke="midnightblue" d="M546.236,-339.777C384.959,-326.769 0,-289.963 0,-235 0,-235 0,-235 0,-177 0,-121.934 64.856,-92.5137 112.495,-78.3309"/>
<polygon fill="midnightblue" stroke="midnightblue" points="113.704,-81.6264 122.37,-75.532 111.795,-74.8917 113.704,-81.6264"/>
</g>
<!-- Node5 -->
<g id="node5" class="node"><title>Node5</title>
<g id="a_node5"><a xlink:href="_event_queue_8h.html" target="_top" xlink:title="EventQueue.h">
<polygon fill="white" stroke="black" points="364,-280.5 364,-299.5 444,-299.5 444,-280.5 364,-280.5"/>
<text text-anchor="middle" x="404" y="-287.5" font-family="Helvetica,sans-Serif" font-size="10.00">EventQueue.h</text>
</a>
</g>
</g>
<!-- Node1&#45;&gt;Node5 -->
<g id="edge4" class="edge"><title>Node1&#45;&gt;Node5</title>
<path fill="none" stroke="midnightblue" d="M582.408,-336.444C545.813,-327.122 487.162,-312.183 447.174,-301.997"/>
<polygon fill="midnightblue" stroke="midnightblue" points="447.989,-298.593 437.435,-299.516 446.261,-305.377 447.989,-298.593"/>
</g>
<!-- Node8 -->
<g id="node8" class="node"><title>Node8</title>
<polygon fill="white" stroke="#bfbfbf" points="104.5,-112.5 104.5,-131.5 133.5,-131.5 133.5,-112.5 104.5,-112.5"/>
<text text-anchor="middle" x="119" y="-119.5" font-family="Helvetica,sans-Serif" font-size="10.00">list</text>
</g>
<!-- Node1&#45;&gt;Node8 -->
<g id="edge35" class="edge"><title>Node1&#45;&gt;Node8</title>
<path fill="none" stroke="midnightblue" d="M546.332,-340.74C492.526,-335.63 417.032,-324.439 355,-300 270.473,-266.699 254.492,-245.312 184,-188 165.337,-172.826 146.119,-152.989 133.469,-139.239"/>
<polygon fill="midnightblue" stroke="midnightblue" points="135.815,-136.617 126.504,-131.561 130.63,-141.319 135.815,-136.617"/>
</g>
<!-- Node9 -->
<g id="node9" class="node"><title>Node9</title>
<polygon fill="white" stroke="#bfbfbf" points="642,-112.5 642,-131.5 678,-131.5 678,-112.5 642,-112.5"/>
<text text-anchor="middle" x="660" y="-119.5" font-family="Helvetica,sans-Serif" font-size="10.00">map</text>
</g>
<!-- Node1&#45;&gt;Node9 -->
<g id="edge34" class="edge"><title>Node1&#45;&gt;Node9</title>
<path fill="none" stroke="midnightblue" d="M572.933,-336.486C552.604,-330.074 530.177,-318.991 518,-300 513.202,-292.517 516.083,-288.68 518,-280 529.834,-226.41 531.759,-207.365 570,-168 579.319,-158.406 609.69,-144.19 632.594,-134.313"/>
<polygon fill="midnightblue" stroke="midnightblue" points="634.035,-137.503 641.87,-130.371 631.298,-131.061 634.035,-137.503"/>
</g>
<!-- Node12 -->
<g id="node12" class="node"><title>Node12</title>
<polygon fill="white" stroke="#bfbfbf" points="553.5,-56.5 553.5,-75.5 594.5,-75.5 594.5,-56.5 553.5,-56.5"/>
<text text-anchor="middle" x="574" y="-63.5" font-family="Helvetica,sans-Serif" font-size="10.00">string</text>
</g>
<!-- Node1&#45;&gt;Node12 -->
<g id="edge33" class="edge"><title>Node1&#45;&gt;Node12</title>
<path fill="none" stroke="midnightblue" d="M685.672,-342.082C757.163,-334.905 858,-311.264 858,-235 858,-235 858,-235 858,-177 858,-123.202 678.554,-85.4274 604.942,-72.1948"/>
<polygon fill="midnightblue" stroke="midnightblue" points="605.339,-68.7109 594.883,-70.4216 604.124,-75.6046 605.339,-68.7109"/>
</g>
<!-- Node17 -->
<g id="node17" class="node"><title>Node17</title>
<g id="a_node17"><a xlink:href="_event_queue_impl_8h.html" target="_top" xlink:title="EventQueueImpl.h">
<polygon fill="white" stroke="black" points="527.5,-280.5 527.5,-299.5 626.5,-299.5 626.5,-280.5 527.5,-280.5"/>
<text text-anchor="middle" x="577" y="-287.5" font-family="Helvetica,sans-Serif" font-size="10.00">EventQueueImpl.h</text>
</a>
</g>
</g>
<!-- Node1&#45;&gt;Node17 -->
<g id="edge24" class="edge"><title>Node1&#45;&gt;Node17</title>
<path fill="none" stroke="midnightblue" d="M609.56,-336.083C604.051,-328.455 595.969,-317.264 589.235,-307.941"/>
<polygon fill="midnightblue" stroke="midnightblue" points="592.013,-305.809 583.32,-299.751 586.338,-309.907 592.013,-305.809"/>
</g>
<!-- Node18 -->
<g id="node18" class="node"><title>Node18</title>
<polygon fill="white" stroke="#bfbfbf" points="606.5,-224.5 606.5,-243.5 651.5,-243.5 651.5,-224.5 606.5,-224.5"/>
<text text-anchor="middle" x="629" y="-231.5" font-family="Helvetica,sans-Serif" font-size="10.00">thread</text>
</g>
<!-- Node1&#45;&gt;Node18 -->
<g id="edge36" class="edge"><title>Node1&#45;&gt;Node18</title>
<path fill="none" stroke="midnightblue" d="M620.876,-336.372C625.559,-327.552 632.308,-313.299 635,-300 638.096,-284.708 636.127,-267.065 633.645,-254.022"/>
<polygon fill="midnightblue" stroke="midnightblue" points="636.993,-252.946 631.446,-243.919 630.153,-254.435 636.993,-252.946"/>
</g>
<!-- Node19 -->
<g id="node19" class="node"><title>Node19</title>
<polygon fill="white" stroke="#bfbfbf" points="670,-224.5 670,-243.5 714,-243.5 714,-224.5 670,-224.5"/>
<text text-anchor="middle" x="692" y="-231.5" font-family="Helvetica,sans-Serif" font-size="10.00">mutex</text>
</g>
<!-- Node1&#45;&gt;Node19 -->
<g id="edge37" class="edge"><title>Node1&#45;&gt;Node19</title>
<path fill="none" stroke="midnightblue" d="M622.97,-336.178C629.984,-327.207 641.02,-312.838 650,-300 661.154,-284.053 673.131,-265.344 681.43,-252.102"/>
<polygon fill="midnightblue" stroke="midnightblue" points="684.444,-253.884 686.758,-243.545 678.501,-250.184 684.444,-253.884"/>
</g>
<!-- Node20 -->
<g id="node20" class="node"><title>Node20</title>
<polygon fill="white" stroke="#bfbfbf" points="732.5,-224.5 732.5,-243.5 829.5,-243.5 829.5,-224.5 732.5,-224.5"/>
<text text-anchor="middle" x="781" y="-231.5" font-family="Helvetica,sans-Serif" font-size="10.00">condition_variable</text>
</g>
<!-- Node1&#45;&gt;Node20 -->
<g id="edge38" class="edge"><title>Node1&#45;&gt;Node20</title>
<path fill="none" stroke="midnightblue" d="M628.947,-336.368C657.261,-317.492 724.923,-272.385 759.645,-249.237"/>
<polygon fill="midnightblue" stroke="midnightblue" points="761.734,-252.051 768.113,-243.591 757.851,-246.226 761.734,-252.051"/>
</g>
<!-- Node21 -->
<g id="node21" class="node"><title>Node21</title>
<polygon fill="white" stroke="#bfbfbf" points="886,-280.5 886,-299.5 968,-299.5 968,-280.5 886,-280.5"/>
<text text-anchor="middle" x="927" y="-287.5" font-family="Helvetica,sans-Serif" font-size="10.00">event2/event.h</text>
</g>
<!-- Node1&#45;&gt;Node21 -->
<g id="edge39" class="edge"><title>Node1&#45;&gt;Node21</title>
<path fill="none" stroke="midnightblue" d="M665.279,-336.444C722.8,-326.456 817.465,-310.019 875.799,-299.89"/>
<polygon fill="midnightblue" stroke="midnightblue" points="876.643,-303.296 885.897,-298.137 875.446,-296.399 876.643,-303.296"/>
</g>
<!-- Node3 -->
<g id="node3" class="node"><title>Node3</title>
<polygon fill="white" stroke="#bfbfbf" points="88,-0.5 88,-19.5 160,-19.5 160,-0.5 88,-0.5"/>
<text text-anchor="middle" x="124" y="-7.5" font-family="Helvetica,sans-Serif" font-size="10.00">sys/socket.h</text>
</g>
<!-- Node2&#45;&gt;Node3 -->
<g id="edge2" class="edge"><title>Node2&#45;&gt;Node3</title>
<path fill="none" stroke="midnightblue" d="M155.725,-56.083C150.358,-48.4554 142.482,-37.2645 135.921,-27.9408"/>
<polygon fill="midnightblue" stroke="midnightblue" points="138.775,-25.9149 130.158,-19.7511 133.051,-29.9434 138.775,-25.9149"/>
</g>
<!-- Node4 -->
<g id="node4" class="node"><title>Node4</title>
<polygon fill="white" stroke="#bfbfbf" points="178,-0.5 178,-19.5 222,-19.5 222,-0.5 178,-0.5"/>
<text text-anchor="middle" x="200" y="-7.5" font-family="Helvetica,sans-Serif" font-size="10.00">cmath</text>
</g>
<!-- Node2&#45;&gt;Node4 -->
<g id="edge3" class="edge"><title>Node2&#45;&gt;Node4</title>
<path fill="none" stroke="midnightblue" d="M168.275,-56.083C173.642,-48.4554 181.518,-37.2645 188.079,-27.9408"/>
<polygon fill="midnightblue" stroke="midnightblue" points="190.949,-29.9434 193.842,-19.7511 185.225,-25.9149 190.949,-29.9434"/>
</g>
<!-- Node5&#45;&gt;Node2 -->
<g id="edge5" class="edge"><title>Node5&#45;&gt;Node2</title>
<path fill="none" stroke="midnightblue" d="M363.874,-288.121C290.664,-285.719 139.328,-276.813 100,-244 53.1237,-204.89 28.852,-163.266 62,-112 72.379,-95.9479 89.9995,-85.5651 107.585,-78.8738"/>
<polygon fill="midnightblue" stroke="midnightblue" points="108.99,-82.0913 117.304,-75.5236 106.709,-75.4734 108.99,-82.0913"/>
</g>
<!-- Node6 -->
<g id="node6" class="node"><title>Node6</title>
<g id="a_node6"><a xlink:href="_event_8h.html" target="_top" xlink:title="uscxml/messages/Event.h">
<polygon fill="white" stroke="black" points="337.5,-224.5 337.5,-243.5 470.5,-243.5 470.5,-224.5 337.5,-224.5"/>
<text text-anchor="middle" x="404" y="-231.5" font-family="Helvetica,sans-Serif" font-size="10.00">uscxml/messages/Event.h</text>
</a>
</g>
</g>
<!-- Node5&#45;&gt;Node6 -->
<g id="edge6" class="edge"><title>Node5&#45;&gt;Node6</title>
<path fill="none" stroke="midnightblue" d="M404,-280.083C404,-273.006 404,-262.861 404,-253.986"/>
<polygon fill="midnightblue" stroke="midnightblue" points="407.5,-253.751 404,-243.751 400.5,-253.751 407.5,-253.751"/>
</g>
<!-- Node7 -->
<g id="node7" class="node"><title>Node7</title>
<g id="a_node7"><a xlink:href="_data_8h.html" target="_top" xlink:title="uscxml/messages/Data.h">
<polygon fill="white" stroke="black" points="228,-168.5 228,-187.5 356,-187.5 356,-168.5 228,-168.5"/>
<text text-anchor="middle" x="292" y="-175.5" font-family="Helvetica,sans-Serif" font-size="10.00">uscxml/messages/Data.h</text>
</a>
</g>
</g>
<!-- Node6&#45;&gt;Node7 -->
<g id="edge7" class="edge"><title>Node6&#45;&gt;Node7</title>
<path fill="none" stroke="midnightblue" d="M386.005,-224.324C367.962,-215.625 339.953,-202.12 319.197,-192.113"/>
<polygon fill="midnightblue" stroke="midnightblue" points="320.478,-188.845 309.95,-187.655 317.438,-195.15 320.478,-188.845"/>
</g>
<!-- Node16 -->
<g id="node16" class="node"><title>Node16</title>
<g id="a_node16"><a xlink:href="_u_u_i_d_8h.html" target="_top" xlink:title="uscxml/util/UUID.h">
<polygon fill="white" stroke="black" points="524.5,-112.5 524.5,-131.5 623.5,-131.5 623.5,-112.5 524.5,-112.5"/>
<text text-anchor="middle" x="574" y="-119.5" font-family="Helvetica,sans-Serif" font-size="10.00">uscxml/util/UUID.h</text>
</a>
</g>
</g>
<!-- Node6&#45;&gt;Node16 -->
<g id="edge21" class="edge"><title>Node6&#45;&gt;Node16</title>
<path fill="none" stroke="midnightblue" d="M413.476,-224.3C428.11,-211.126 457.411,-185.769 485,-168 504.16,-155.66 527.145,-144.113 544.957,-135.806"/>
<polygon fill="midnightblue" stroke="midnightblue" points="546.632,-138.889 554.264,-131.54 543.715,-132.526 546.632,-138.889"/>
</g>
<!-- Node7&#45;&gt;Node2 -->
<g id="edge11" class="edge"><title>Node7&#45;&gt;Node2</title>
<path fill="none" stroke="midnightblue" d="M272.141,-168.355C255.292,-160.425 231.049,-147.566 213,-132 196.937,-118.148 182.415,-98.6104 173.012,-84.5779"/>
<polygon fill="midnightblue" stroke="midnightblue" points="175.746,-82.3613 167.365,-75.88 169.875,-86.1732 175.746,-82.3613"/>
</g>
<!-- Node7&#45;&gt;Node8 -->
<g id="edge8" class="edge"><title>Node7&#45;&gt;Node8</title>
<path fill="none" stroke="midnightblue" d="M264.588,-168.444C231.204,-158.023 175.328,-140.582 143.38,-130.61"/>
<polygon fill="midnightblue" stroke="midnightblue" points="144.119,-127.174 133.53,-127.535 142.033,-133.856 144.119,-127.174"/>
</g>
<!-- Node7&#45;&gt;Node9 -->
<g id="edge9" class="edge"><title>Node7&#45;&gt;Node9</title>
<path fill="none" stroke="midnightblue" d="M356.206,-171.961C425.02,-165.759 537.167,-153.335 632,-132 632.1,-131.978 632.199,-131.955 632.299,-131.932"/>
<polygon fill="midnightblue" stroke="midnightblue" points="633.011,-135.365 641.755,-129.383 631.189,-128.607 633.011,-135.365"/>
</g>
<!-- Node10 -->
<g id="node10" class="node"><title>Node10</title>
<polygon fill="white" stroke="#bfbfbf" points="247.5,-56.5 247.5,-75.5 300.5,-75.5 300.5,-56.5 247.5,-56.5"/>
<text text-anchor="middle" x="274" y="-63.5" font-family="Helvetica,sans-Serif" font-size="10.00">memory</text>
</g>
<!-- Node7&#45;&gt;Node10 -->
<g id="edge10" class="edge"><title>Node7&#45;&gt;Node10</title>
<path fill="none" stroke="midnightblue" d="M265.789,-168.414C249.15,-161.445 228.943,-149.809 219,-132 208.064,-112.412 229.422,-93.2059 248.629,-80.8121"/>
<polygon fill="midnightblue" stroke="midnightblue" points="250.448,-83.8024 257.178,-75.6202 246.814,-77.8192 250.448,-83.8024"/>
</g>
<!-- Node11 -->
<g id="node11" class="node"><title>Node11</title>
<g id="a_node11"><a xlink:href="_convenience_8h.html" target="_top" xlink:title="uscxml/util/Convenience.h">
<polygon fill="white" stroke="black" points="373.5,-112.5 373.5,-131.5 506.5,-131.5 506.5,-112.5 373.5,-112.5"/>
<text text-anchor="middle" x="440" y="-119.5" font-family="Helvetica,sans-Serif" font-size="10.00">uscxml/util/Convenience.h</text>
</a>
</g>
</g>
<!-- Node7&#45;&gt;Node11 -->
<g id="edge12" class="edge"><title>Node7&#45;&gt;Node11</title>
<path fill="none" stroke="midnightblue" d="M315.451,-168.444C340.133,-159.438 379.185,-145.189 406.977,-135.049"/>
<polygon fill="midnightblue" stroke="midnightblue" points="408.464,-138.232 416.659,-131.516 406.065,-131.656 408.464,-138.232"/>
</g>
<!-- Node15 -->
<g id="node15" class="node"><title>Node15</title>
<g id="a_node15"><a xlink:href="_blob_8h.html" target="_top" xlink:title="uscxml/messages/Blob.h">
<polygon fill="white" stroke="black" points="228.5,-112.5 228.5,-131.5 355.5,-131.5 355.5,-112.5 228.5,-112.5"/>
<text text-anchor="middle" x="292" y="-119.5" font-family="Helvetica,sans-Serif" font-size="10.00">uscxml/messages/Blob.h</text>
</a>
</g>
</g>
<!-- Node7&#45;&gt;Node15 -->
<g id="edge17" class="edge"><title>Node7&#45;&gt;Node15</title>
<path fill="none" stroke="midnightblue" d="M292,-168.083C292,-161.006 292,-150.861 292,-141.986"/>
<polygon fill="midnightblue" stroke="midnightblue" points="295.5,-141.751 292,-131.751 288.5,-141.751 295.5,-141.751"/>
</g>
<!-- Node11&#45;&gt;Node2 -->
<g id="edge13" class="edge"><title>Node11&#45;&gt;Node2</title>
<path fill="none" stroke="midnightblue" d="M395.95,-112.444C347.149,-102.964 268.437,-87.6747 215.97,-77.4835"/>
<polygon fill="midnightblue" stroke="midnightblue" points="216.328,-73.9875 205.844,-75.5164 214.993,-80.8591 216.328,-73.9875"/>
</g>
<!-- Node11&#45;&gt;Node12 -->
<g id="edge14" class="edge"><title>Node11&#45;&gt;Node12</title>
<path fill="none" stroke="midnightblue" d="M461.233,-112.444C483.514,-103.465 518.73,-89.2729 543.878,-79.1386"/>
<polygon fill="midnightblue" stroke="midnightblue" points="545.34,-82.3231 553.307,-75.339 542.724,-75.8305 545.34,-82.3231"/>
</g>
<!-- Node13 -->
<g id="node13" class="node"><title>Node13</title>
<polygon fill="white" stroke="#bfbfbf" points="452.5,-56.5 452.5,-75.5 491.5,-75.5 491.5,-56.5 452.5,-56.5"/>
<text text-anchor="middle" x="472" y="-63.5" font-family="Helvetica,sans-Serif" font-size="10.00">limits</text>
</g>
<!-- Node11&#45;&gt;Node13 -->
<g id="edge15" class="edge"><title>Node11&#45;&gt;Node13</title>
<path fill="none" stroke="midnightblue" d="M445.284,-112.083C449.711,-104.613 456.163,-93.7244 461.618,-84.5199"/>
<polygon fill="midnightblue" stroke="midnightblue" points="464.727,-86.1383 466.814,-75.7511 458.705,-82.5697 464.727,-86.1383"/>
</g>
<!-- Node14 -->
<g id="node14" class="node"><title>Node14</title>
<polygon fill="white" stroke="#bfbfbf" points="382,-56.5 382,-75.5 434,-75.5 434,-56.5 382,-56.5"/>
<text text-anchor="middle" x="408" y="-63.5" font-family="Helvetica,sans-Serif" font-size="10.00">sstream</text>
</g>
<!-- Node11&#45;&gt;Node14 -->
<g id="edge16" class="edge"><title>Node11&#45;&gt;Node14</title>
<path fill="none" stroke="midnightblue" d="M434.716,-112.083C430.289,-104.613 423.837,-93.7244 418.382,-84.5199"/>
<polygon fill="midnightblue" stroke="midnightblue" points="421.295,-82.5697 413.186,-75.7511 415.273,-86.1383 421.295,-82.5697"/>
</g>
<!-- Node15&#45;&gt;Node2 -->
<g id="edge20" class="edge"><title>Node15&#45;&gt;Node2</title>
<path fill="none" stroke="midnightblue" d="M271.401,-112.444C250.007,-103.557 216.319,-89.5632 191.976,-79.4514"/>
<polygon fill="midnightblue" stroke="midnightblue" points="193.08,-76.1203 182.503,-75.5164 190.395,-82.5848 193.08,-76.1203"/>
</g>
<!-- Node15&#45;&gt;Node10 -->
<g id="edge19" class="edge"><title>Node15&#45;&gt;Node10</title>
<path fill="none" stroke="midnightblue" d="M289.028,-112.083C286.616,-104.849 283.136,-94.4087 280.132,-85.3968"/>
<polygon fill="midnightblue" stroke="midnightblue" points="283.4,-84.1311 276.917,-75.7511 276.759,-86.3447 283.4,-84.1311"/>
</g>
<!-- Node15&#45;&gt;Node12 -->
<g id="edge18" class="edge"><title>Node15&#45;&gt;Node12</title>
<path fill="none" stroke="midnightblue" d="M336.684,-112.444C394.536,-101.366 493.825,-82.3527 543.634,-72.8148"/>
<polygon fill="midnightblue" stroke="midnightblue" points="544.315,-76.2479 553.479,-70.9296 542.999,-69.3729 544.315,-76.2479"/>
</g>
<!-- Node16&#45;&gt;Node2 -->
<g id="edge22" class="edge"><title>Node16&#45;&gt;Node2</title>
<path fill="none" stroke="midnightblue" d="M524.438,-113.349C521.246,-112.884 518.078,-112.431 515,-112 412.072,-97.5912 291.985,-82.6873 221.737,-74.161"/>
<polygon fill="midnightblue" stroke="midnightblue" points="222.09,-70.6784 211.742,-72.9502 221.248,-77.6276 222.09,-70.6784"/>
</g>
<!-- Node16&#45;&gt;Node12 -->
<g id="edge23" class="edge"><title>Node16&#45;&gt;Node12</title>
<path fill="none" stroke="midnightblue" d="M574,-112.083C574,-105.006 574,-94.8611 574,-85.9865"/>
<polygon fill="midnightblue" stroke="midnightblue" points="577.5,-85.751 574,-75.7511 570.5,-85.7511 577.5,-85.751"/>
</g>
<!-- Node17&#45;&gt;Node2 -->
<g id="edge25" class="edge"><title>Node17&#45;&gt;Node2</title>
<path fill="none" stroke="midnightblue" d="M527.294,-283.929C454.336,-276.083 322.033,-260.206 277,-244 187.633,-211.839 140.917,-215.141 95,-132 83.1558,-110.554 108.663,-91.7701 131.539,-79.983"/>
<polygon fill="midnightblue" stroke="midnightblue" points="133.27,-83.0337 140.74,-75.5208 130.215,-76.7353 133.27,-83.0337"/>
</g>
<!-- Node17&#45;&gt;Node6 -->
<g id="edge26" class="edge"><title>Node17&#45;&gt;Node6</title>
<path fill="none" stroke="midnightblue" d="M549.588,-280.444C520.231,-271.28 473.481,-256.688 440.904,-246.519"/>
<polygon fill="midnightblue" stroke="midnightblue" points="441.873,-243.155 431.284,-243.516 439.787,-249.837 441.873,-243.155"/>
</g>
<!-- Node17&#45;&gt;Node8 -->
<g id="edge29" class="edge"><title>Node17&#45;&gt;Node8</title>
<path fill="none" stroke="midnightblue" d="M527.254,-284.385C476.201,-278.644 394.986,-266.697 328,-244 276.417,-226.522 266.116,-215.321 219,-188 190.884,-171.696 159.653,-150.95 139.696,-137.338"/>
<polygon fill="midnightblue" stroke="midnightblue" points="141.598,-134.398 131.372,-131.627 137.638,-140.17 141.598,-134.398"/>
</g>
<!-- Node17&#45;&gt;Node9 -->
<g id="edge28" class="edge"><title>Node17&#45;&gt;Node9</title>
<path fill="none" stroke="midnightblue" d="M573.656,-280.197C570.446,-271.24 565.824,-256.883 564,-244 559.016,-208.793 565.744,-194.899 589,-168 600.979,-154.144 618.278,-143.058 632.801,-135.357"/>
<polygon fill="midnightblue" stroke="midnightblue" points="634.506,-138.416 641.86,-130.789 631.355,-132.166 634.506,-138.416"/>
</g>
<!-- Node17&#45;&gt;Node12 -->
<g id="edge27" class="edge"><title>Node17&#45;&gt;Node12</title>
<path fill="none" stroke="midnightblue" d="M578.294,-280.476C580.542,-267.531 586.017,-242.47 597,-224 629.637,-169.112 722.841,-164.851 687,-112 668.69,-84.9997 631.326,-74.1993 604.573,-69.8792"/>
<polygon fill="midnightblue" stroke="midnightblue" points="604.938,-66.3963 594.55,-68.4787 603.97,-73.329 604.938,-66.3963"/>
</g>
<!-- Node17&#45;&gt;Node18 -->
<g id="edge30" class="edge"><title>Node17&#45;&gt;Node18</title>
<path fill="none" stroke="midnightblue" d="M585.587,-280.083C593.159,-272.22 604.378,-260.569 613.514,-251.081"/>
<polygon fill="midnightblue" stroke="midnightblue" points="616.158,-253.382 620.573,-243.751 611.115,-248.527 616.158,-253.382"/>
</g>
<!-- Node17&#45;&gt;Node19 -->
<g id="edge31" class="edge"><title>Node17&#45;&gt;Node19</title>
<path fill="none" stroke="midnightblue" d="M595.222,-280.444C613.896,-271.675 643.156,-257.935 664.617,-247.858"/>
<polygon fill="midnightblue" stroke="midnightblue" points="666.299,-250.935 673.863,-243.516 663.324,-244.599 666.299,-250.935"/>
</g>
<!-- Node17&#45;&gt;Node20 -->
<g id="edge32" class="edge"><title>Node17&#45;&gt;Node20</title>
<path fill="none" stroke="midnightblue" d="M609.324,-280.444C644.389,-271.162 700.498,-256.309 738.965,-246.127"/>
<polygon fill="midnightblue" stroke="midnightblue" points="740.055,-249.459 748.827,-243.516 738.264,-242.692 740.055,-249.459"/>
</g>
</g>
</svg>
        <g id="navigator" transform="translate(0 0)" fill="#404254">
                <rect fill="#f2f5e9" fill-opacity="0.5" stroke="#606060" stroke-width=".5" x="0" y="0" width="60" height="60"/>
                <use id="zoomplus" xlink:href="#zoomPlus" x="17" y="9" onmousedown="handleZoom(evt,'in')"/>
                <use id="zoomminus" xlink:href="#zoomMin" x="42" y="9" onmousedown="handleZoom(evt,'out')"/>
                <use id="reset" xlink:href="#resetDef" x="30" y="36" onmousedown="handleReset()"/>
                <g id="arrowUp" xlink:href="#dirArrow" transform="translate(30 24)" onmousedown="handlePan(0,-1)">
                  <use xlink:href="#rim" fill="#404040">
                        <set attributeName="fill" to="#808080" begin="arrowUp.mouseover" end="arrowUp.mouseout"/>
                  </use>
                  <path fill="none" stroke="white" stroke-width="1.5" d="M0,-3.0v7 M-2.5,-0.5L0,-3.0L2.5,-0.5"/>
                </g>
                <g id="arrowRight" xlink:href="#dirArrow" transform="rotate(90) translate(36 -43)" onmousedown="handlePan(1,0)">
                  <use xlink:href="#rim" fill="#404040">
                        <set attributeName="fill" to="#808080" begin="arrowRight.mouseover" end="arrowRight.mouseout"/>
                  </use>
                  <path fill="none" stroke="white" stroke-width="1.5" d="M0,-3.0v7 M-2.5,-0.5L0,-3.0L2.5,-0.5"/>
                </g>
                <g id="arrowDown" xlink:href="#dirArrow" transform="rotate(180) translate(-30 -48)" onmousedown="handlePan(0,1)">
                  <use xlink:href="#rim" fill="#404040">
                        <set attributeName="fill" to="#808080" begin="arrowDown.mouseover" end="arrowDown.mouseout"/>
                  </use>
                  <path fill="none" stroke="white" stroke-width="1.5" d="M0,-3.0v7 M-2.5,-0.5L0,-3.0L2.5,-0.5"/>
                </g>
                <g id="arrowLeft" xlink:href="#dirArrow" transform="rotate(270) translate(-36 17)" onmousedown="handlePan(-1,0)">
                  <use xlink:href="#rim" fill="#404040">
                        <set attributeName="fill" to="#808080" begin="arrowLeft.mouseover" end="arrowLeft.mouseout"/>
                  </use>
                  <path fill="none" stroke="white" stroke-width="1.5" d="M0,-3.0v7 M-2.5,-0.5L0,-3.0L2.5,-0.5"/>
                </g>
        </g>
        <svg viewBox="0 0 15 15" width="100%" height="30px" preserveAspectRatio="xMaxYMin meet">
         <g id="arrow_out" transform="scale(0.3 0.3)">
          <a xlink:href="_event_queue_8cpp__incl_org.svg" target="_base">
           <rect id="button" ry="5" rx="5" y="6" x="6" height="38" width="38"
                fill="#f2f5e9" fill-opacity="0.5" stroke="#606060" stroke-width="1.0"/>
           <path id="arrow"
             d="M 11.500037,31.436501 C 11.940474,20.09759 22.043105,11.32322 32.158766,21.979434 L 37.068811,17.246167 C 37.068811,17.246167 37.088388,32 37.088388,32 L 22.160133,31.978069 C 22.160133,31.978069 26.997745,27.140456 26.997745,27.140456 C 18.528582,18.264221 13.291696,25.230495 11.500037,31.436501 z"
             style="fill:#404040;"/>
          </a>
         </g>
        </svg>
</svg>
