<?xml version="1.0" encoding="UTF-8" standalone="no"?>
<!DOCTYPE svg PUBLIC "-//W3C//DTD SVG 1.1//EN"
 "http://www.w3.org/Graphics/SVG/1.1/DTD/svg11.dtd">
<!-- Generated by graphviz version 2.38.0 (20140413.2041)
 -->
<!-- Title: plugins/EventHandler.h Pages: 1 -->
<!--zoomable 464 -->
<svg id="main" version="1.1" xmlns="http://www.w3.org/2000/svg" xmlns:xlink="http://www.w3.org/1999/xlink" xml:space="preserve" onload="init(evt)">
<style type="text/css"><![CDATA[
.edge:hover path { stroke: red; }
.edge:hover polygon { stroke: red; fill: red; }
]]></style>
<script type="text/javascript"><![CDATA[
var edges = document.getElementsByTagName('g');
if (edges && edges.length) {
  for (var i=0;i<edges.length;i++) {
    if (edges[i].id.substr(0,4)=='edge') {
      edges[i].setAttribute('class','edge');
    }
  }
}
]]></script>
        <defs>
                <circle id="rim" cx="0" cy="0" r="7"/>
                <circle id="rim2" cx="0" cy="0" r="3.5"/>
                <g id="zoomPlus">
                        <use xlink:href="#rim" fill="#404040">
                                <set attributeName="fill" to="#808080" begin="zoomplus.mouseover" end="zoomplus.mouseout"/>
                        </use>
                        <path d="M-4,0h8M0,-4v8" fill="none" stroke="white" stroke-width="1.5" pointer-events="none"/>
                </g>
                <g id="zoomMin">
                        <use xlink:href="#rim" fill="#404040">
                                <set attributeName="fill" to="#808080" begin="zoomminus.mouseover" end="zoomminus.mouseout"/>
                        </use>
                        <path d="M-4,0h8" fill="none" stroke="white" stroke-width="1.5" pointer-events="none"/>
                </g>
                <g id="dirArrow">
                        <path fill="none" stroke="white" stroke-width="1.5" d="M0,-3.0v7 M-2.5,-0.5L0,-3.0L2.5,-0.5"/>
                </g>
               <g id="resetDef">
                       <use xlink:href="#rim2" fill="#404040">
                               <set attributeName="fill" to="#808080" begin="reset.mouseover" end="reset.mouseout"/>
                       </use>
               </g>
        </defs>

<script type="text/javascript">
var viewWidth = 1771;
var viewHeight = 464;
var sectionId = 'dynsection-1';
</script>
<script xlink:href="svgpan.js"/>
<svg id="graph" class="graph">
<g id="viewport">
<title>plugins/EventHandler.h</title>
<polygon fill="white" stroke="none" points="-4,4 -4,-460 1767,-460 1767,4 -4,4"/>
<!-- Node1 -->
<g id="node1" class="node"><title>Node1</title>
<polygon fill="#bfbfbf" stroke="black" points="407.5,-436.5 407.5,-455.5 527.5,-455.5 527.5,-436.5 407.5,-436.5"/>
<text text-anchor="middle" x="467.5" y="-443.5" font-family="Helvetica,sans-Serif" font-size="10.00">plugins/EventHandler.h</text>
</g>
<!-- Node2 -->
<g id="node2" class="node"><title>Node2</title>
<g id="a_node2"><a xlink:href="_factory_8h.html" target="_top" xlink:title="plugins/Factory.h">
<polygon fill="white" stroke="black" points="402,-263 402,-282 495,-282 495,-263 402,-263"/>
<text text-anchor="middle" x="448.5" y="-270" font-family="Helvetica,sans-Serif" font-size="10.00">plugins/Factory.h</text>
</a>
</g>
</g>
<!-- Node1&#45;&gt;Node2 -->
<g id="edge1" class="edge"><title>Node1&#45;&gt;Node2</title>
<path fill="none" stroke="midnightblue" d="M465.379,-425.853C461.266,-388.734 452.358,-308.327 449.444,-282.019"/>
<polygon fill="midnightblue" stroke="midnightblue" points="461.952,-426.706 466.532,-436.26 468.909,-425.935 461.952,-426.706"/>
</g>
<!-- Node10 -->
<g id="node10" class="node"><title>Node10</title>
<g id="a_node10"><a xlink:href="_invoker_impl_8h.html" target="_top" xlink:title="plugins/InvokerImpl.h">
<polygon fill="white" stroke="black" points="271,-134.5 271,-153.5 382,-153.5 382,-134.5 271,-134.5"/>
<text text-anchor="middle" x="326.5" y="-141.5" font-family="Helvetica,sans-Serif" font-size="10.00">plugins/InvokerImpl.h</text>
</a>
</g>
</g>
<!-- Node1&#45;&gt;Node10 -->
<g id="edge48" class="edge"><title>Node1&#45;&gt;Node10</title>
<path fill="none" stroke="midnightblue" d="M397.507,-436.278C375.156,-429.881 352.587,-418.878 338.5,-400 279.921,-321.501 313.539,-188.496 323.827,-153.594"/>
<polygon fill="midnightblue" stroke="midnightblue" points="396.83,-439.718 407.387,-438.826 398.578,-432.94 396.83,-439.718"/>
</g>
<!-- Node15 -->
<g id="node15" class="node"><title>Node15</title>
<g id="a_node15"><a xlink:href="_i_o_processor_impl_8h.html" target="_top" xlink:title="plugins/IOProcessorImpl.h">
<polygon fill="white" stroke="black" points="1001.5,-134.5 1001.5,-153.5 1135.5,-153.5 1135.5,-134.5 1001.5,-134.5"/>
<text text-anchor="middle" x="1068.5" y="-141.5" font-family="Helvetica,sans-Serif" font-size="10.00">plugins/IOProcessorImpl.h</text>
</a>
</g>
</g>
<!-- Node1&#45;&gt;Node15 -->
<g id="edge53" class="edge"><title>Node1&#45;&gt;Node15</title>
<path fill="none" stroke="midnightblue" d="M537.977,-443.258C741.965,-437.289 1318.5,-413.475 1318.5,-335 1318.5,-335 1318.5,-335 1318.5,-271.5 1318.5,-234.306 1326.28,-215.814 1299.5,-190 1276.48,-167.811 1195.28,-155.934 1135.63,-150.053"/>
<polygon fill="midnightblue" stroke="midnightblue" points="537.575,-439.768 527.68,-443.554 537.776,-446.765 537.575,-439.768"/>
</g>
<!-- Node23 -->
<g id="node23" class="node"><title>Node23</title>
<g id="a_node23"><a xlink:href="_invoker_8h.html" target="_top" xlink:title="plugins/Invoker.h">
<polygon fill="white" stroke="black" points="347.5,-380.5 347.5,-399.5 439.5,-399.5 439.5,-380.5 347.5,-380.5"/>
<text text-anchor="middle" x="393.5" y="-387.5" font-family="Helvetica,sans-Serif" font-size="10.00">plugins/Invoker.h</text>
</a>
</g>
</g>
<!-- Node1&#45;&gt;Node23 -->
<g id="edge31" class="edge"><title>Node1&#45;&gt;Node23</title>
<path fill="none" stroke="midnightblue" d="M447.466,-430.38C434.091,-420.62 416.941,-408.106 405.606,-399.834"/>
<polygon fill="midnightblue" stroke="midnightblue" points="445.47,-433.257 455.611,-436.324 449.596,-427.602 445.47,-433.257"/>
</g>
<!-- Node34 -->
<g id="node34" class="node"><title>Node34</title>
<g id="a_node34"><a xlink:href="_i_o_processor_8h.html" target="_top" xlink:title="plugins/IOProcessor.h">
<polygon fill="white" stroke="black" points="576,-380.5 576,-399.5 691,-399.5 691,-380.5 576,-380.5"/>
<text text-anchor="middle" x="633.5" y="-387.5" font-family="Helvetica,sans-Serif" font-size="10.00">plugins/IOProcessor.h</text>
</a>
</g>
</g>
<!-- Node1&#45;&gt;Node34 -->
<g id="edge49" class="edge"><title>Node1&#45;&gt;Node34</title>
<path fill="none" stroke="midnightblue" d="M503.453,-433.304C534.732,-423.129 579.321,-408.625 607.32,-399.516"/>
<polygon fill="midnightblue" stroke="midnightblue" points="502.23,-430.022 493.803,-436.444 504.395,-436.678 502.23,-430.022"/>
</g>
<!-- Node3 -->
<g id="node3" class="node"><title>Node3</title>
<g id="a_node3"><a xlink:href="_interpreter_issue_8cpp.html" target="_top" xlink:title="debug/InterpreterIssue.cpp">
<polygon fill="white" stroke="black" points="485.5,-134.5 485.5,-153.5 621.5,-153.5 621.5,-134.5 485.5,-134.5"/>
<text text-anchor="middle" x="553.5" y="-141.5" font-family="Helvetica,sans-Serif" font-size="10.00">debug/InterpreterIssue.cpp</text>
</a>
</g>
</g>
<!-- Node2&#45;&gt;Node3 -->
<g id="edge2" class="edge"><title>Node2&#45;&gt;Node3</title>
<path fill="none" stroke="midnightblue" d="M461.832,-254.704C475.05,-238.132 495.952,-212.138 514.5,-190 525.256,-177.162 538.016,-162.552 545.937,-153.553"/>
<polygon fill="midnightblue" stroke="midnightblue" points="458.832,-252.853 455.343,-262.857 464.309,-257.213 458.832,-252.853"/>
</g>
<!-- Node4 -->
<g id="node4" class="node"><title>Node4</title>
<g id="a_node4"><a xlink:href="_interpreter_impl_8h.html" target="_top" xlink:title="interpreter/InterpreterImpl.h">
<polygon fill="white" stroke="black" points="657.5,-196 657.5,-215 795.5,-215 795.5,-196 657.5,-196"/>
<text text-anchor="middle" x="726.5" y="-203" font-family="Helvetica,sans-Serif" font-size="10.00">interpreter/InterpreterImpl.h</text>
</a>
</g>
</g>
<!-- Node2&#45;&gt;Node4 -->
<g id="edge3" class="edge"><title>Node2&#45;&gt;Node4</title>
<path fill="none" stroke="midnightblue" d="M490.763,-260.414C495.394,-259.242 500.043,-258.084 504.5,-257 568.448,-241.451 643.121,-224.766 687.518,-215"/>
<polygon fill="midnightblue" stroke="midnightblue" points="489.558,-257.11 480.737,-262.979 491.292,-263.892 489.558,-257.11"/>
</g>
<!-- Node8 -->
<g id="node8" class="node"><title>Node8</title>
<g id="a_node8"><a xlink:href="_factory_8cpp.html" target="_top" xlink:title="plugins/Factory.cpp">
<polygon fill="white" stroke="black" points="416,-6 416,-25 519,-25 519,-6 416,-6"/>
<text text-anchor="middle" x="467.5" y="-13" font-family="Helvetica,sans-Serif" font-size="10.00">plugins/Factory.cpp</text>
</a>
</g>
</g>
<!-- Node2&#45;&gt;Node8 -->
<g id="edge30" class="edge"><title>Node2&#45;&gt;Node8</title>
<path fill="none" stroke="midnightblue" d="M446.227,-253.004C445.167,-243.463 444.025,-231.625 443.5,-221 440.117,-152.495 439.249,-134.092 453.5,-67 456.638,-52.2269 461.593,-35.3788 464.689,-25.3585"/>
<polygon fill="midnightblue" stroke="midnightblue" points="442.752,-253.417 447.393,-262.941 449.704,-252.602 442.752,-253.417"/>
</g>
<!-- Node4&#45;&gt;Node3 -->
<g id="edge4" class="edge"><title>Node4&#45;&gt;Node3</title>
<path fill="none" stroke="midnightblue" d="M691.85,-192.583C658.222,-181.017 608.024,-163.752 578.241,-153.509"/>
<polygon fill="midnightblue" stroke="midnightblue" points="691.119,-196.032 701.713,-195.975 693.395,-189.413 691.119,-196.032"/>
</g>
<!-- Node5 -->
<g id="node5" class="node"><title>Node5</title>
<g id="a_node5"><a xlink:href="_interpreter_impl_8cpp.html" target="_top" xlink:title="interpreter/InterpreterImpl.cpp">
<polygon fill="white" stroke="black" points="252,-73 252,-92 401,-92 401,-73 252,-73"/>
<text text-anchor="middle" x="326.5" y="-80" font-family="Helvetica,sans-Serif" font-size="10.00">interpreter/InterpreterImpl.cpp</text>
</a>
</g>
</g>
<!-- Node4&#45;&gt;Node5 -->
<g id="edge5" class="edge"><title>Node4&#45;&gt;Node5</title>
<path fill="none" stroke="midnightblue" d="M716.075,-187.093C705.165,-170.541 686.44,-146.388 663.5,-134 619.448,-110.212 486.343,-95.8047 401.192,-88.772"/>
<polygon fill="midnightblue" stroke="midnightblue" points="713.277,-189.218 721.569,-195.813 719.2,-185.487 713.277,-189.218"/>
</g>
<!-- Node6 -->
<g id="node6" class="node"><title>Node6</title>
<g id="a_node6"><a xlink:href="_interpreter_8cpp.html" target="_top" xlink:title="Interpreter.cpp">
<polygon fill="white" stroke="black" points="715.5,-134.5 715.5,-153.5 797.5,-153.5 797.5,-134.5 715.5,-134.5"/>
<text text-anchor="middle" x="756.5" y="-141.5" font-family="Helvetica,sans-Serif" font-size="10.00">Interpreter.cpp</text>
</a>
</g>
</g>
<!-- Node4&#45;&gt;Node6 -->
<g id="edge6" class="edge"><title>Node4&#45;&gt;Node6</title>
<path fill="none" stroke="midnightblue" d="M735.407,-186.835C740.956,-175.828 747.846,-162.163 752.21,-153.509"/>
<polygon fill="midnightblue" stroke="midnightblue" points="732.175,-185.47 730.798,-195.975 738.426,-188.622 732.175,-185.47"/>
</g>
<!-- Node7 -->
<g id="node7" class="node"><title>Node7</title>
<g id="a_node7"><a xlink:href="_u_s_c_x_m_l_invoker_8h.html" target="_top" xlink:title="plugins/invoker/scxml\l/USCXMLInvoker.h">
<polygon fill="white" stroke="black" points="121.5,-67.5 121.5,-97.5 233.5,-97.5 233.5,-67.5 121.5,-67.5"/>
<text text-anchor="start" x="129.5" y="-85.5" font-family="Helvetica,sans-Serif" font-size="10.00">plugins/invoker/scxml</text>
<text text-anchor="middle" x="177.5" y="-74.5" font-family="Helvetica,sans-Serif" font-size="10.00">/USCXMLInvoker.h</text>
</a>
</g>
</g>
<!-- Node4&#45;&gt;Node7 -->
<g id="edge7" class="edge"><title>Node4&#45;&gt;Node7</title>
<path fill="none" stroke="midnightblue" d="M708.358,-189.334C685.534,-170.591 647.298,-140.38 630.5,-134 468.599,-72.5099 413.582,-124.908 242.5,-98 239.645,-97.5509 236.727,-97.0512 233.787,-96.5152"/>
<polygon fill="midnightblue" stroke="midnightblue" points="706.337,-192.205 716.274,-195.883 710.799,-186.812 706.337,-192.205"/>
</g>
<!-- Node4&#45;&gt;Node10 -->
<g id="edge10" class="edge"><title>Node4&#45;&gt;Node10</title>
<path fill="none" stroke="midnightblue" d="M672.406,-194.119C664.401,-192.677 656.243,-191.26 648.5,-190 555.32,-174.836 446.454,-160.279 382.17,-152.008"/>
<polygon fill="midnightblue" stroke="midnightblue" points="671.956,-197.595 682.422,-195.949 673.214,-190.708 671.956,-197.595"/>
</g>
<!-- Node12 -->
<g id="node12" class="node"><title>Node12</title>
<g id="a_node12"><a xlink:href="_basic_h_t_t_p_i_o_processor_8h.html" target="_top" xlink:title="plugins/ioprocessor\l/basichttp/BasicHTTPIOProcessor.h">
<polygon fill="white" stroke="black" points="737,-67.5 737,-97.5 914,-97.5 914,-67.5 737,-67.5"/>
<text text-anchor="start" x="745" y="-85.5" font-family="Helvetica,sans-Serif" font-size="10.00">plugins/ioprocessor</text>
<text text-anchor="middle" x="825.5" y="-74.5" font-family="Helvetica,sans-Serif" font-size="10.00">/basichttp/BasicHTTPIOProcessor.h</text>
</a>
</g>
</g>
<!-- Node4&#45;&gt;Node12 -->
<g id="edge14" class="edge"><title>Node4&#45;&gt;Node12</title>
<path fill="none" stroke="midnightblue" d="M758.177,-191.421C774.833,-183.028 794.276,-170.574 806.5,-154 818.915,-137.167 823.219,-112.746 824.711,-97.5106"/>
<polygon fill="midnightblue" stroke="midnightblue" points="756.296,-188.439 748.767,-195.894 759.302,-194.762 756.296,-188.439"/>
</g>
<!-- Node14 -->
<g id="node14" class="node"><title>Node14</title>
<g id="a_node14"><a xlink:href="_s_c_x_m_l_i_o_processor_8cpp.html" target="_top" xlink:title="plugins/ioprocessor\l/scxml/SCXMLIOProcessor.cpp">
<polygon fill="white" stroke="black" points="1054,-0.5 1054,-30.5 1211,-30.5 1211,-0.5 1054,-0.5"/>
<text text-anchor="start" x="1062" y="-18.5" font-family="Helvetica,sans-Serif" font-size="10.00">plugins/ioprocessor</text>
<text text-anchor="middle" x="1132.5" y="-7.5" font-family="Helvetica,sans-Serif" font-size="10.00">/scxml/SCXMLIOProcessor.cpp</text>
</a>
</g>
</g>
<!-- Node4&#45;&gt;Node14 -->
<g id="edge17" class="edge"><title>Node4&#45;&gt;Node14</title>
<path fill="none" stroke="midnightblue" d="M778.813,-194.193C787.378,-192.673 796.173,-191.213 804.5,-190 922.574,-172.801 1262.11,-193.608 1333.5,-98 1369.55,-49.7243 1282.02,-29.9573 1211.3,-21.9208"/>
<polygon fill="midnightblue" stroke="midnightblue" points="778.119,-190.761 768.906,-195.993 779.37,-197.649 778.119,-190.761"/>
</g>
<!-- Node4&#45;&gt;Node15 -->
<g id="edge18" class="edge"><title>Node4&#45;&gt;Node15</title>
<path fill="none" stroke="midnightblue" d="M781.776,-194.118C789.407,-192.716 797.146,-191.31 804.5,-190 878.195,-176.87 963.614,-162.457 1016.86,-153.567"/>
<polygon fill="midnightblue" stroke="midnightblue" points="781.047,-190.694 771.849,-195.951 782.318,-197.577 781.047,-190.694"/>
</g>
<!-- Node18 -->
<g id="node18" class="node"><title>Node18</title>
<g id="a_node18"><a xlink:href="_transformer_8h.html" target="_top" xlink:title="transform/Transformer.h">
<polygon fill="white" stroke="black" points="1478.5,-134.5 1478.5,-153.5 1602.5,-153.5 1602.5,-134.5 1478.5,-134.5"/>
<text text-anchor="middle" x="1540.5" y="-141.5" font-family="Helvetica,sans-Serif" font-size="10.00">transform/Transformer.h</text>
</a>
</g>
</g>
<!-- Node4&#45;&gt;Node18 -->
<g id="edge24" class="edge"><title>Node4&#45;&gt;Node18</title>
<path fill="none" stroke="midnightblue" d="M777.27,-194.131C786.309,-192.551 795.66,-191.088 804.5,-190 821.147,-187.952 1304.03,-159.085 1478.43,-148.694"/>
<polygon fill="midnightblue" stroke="midnightblue" points="776.455,-190.722 767.24,-195.95 777.704,-197.609 776.455,-190.722"/>
</g>
<!-- Node7&#45;&gt;Node8 -->
<g id="edge8" class="edge"><title>Node7&#45;&gt;Node8</title>
<path fill="none" stroke="midnightblue" d="M243.835,-66.6318C301.262,-53.7603 382.297,-35.5972 429.421,-25.0349"/>
<polygon fill="midnightblue" stroke="midnightblue" points="242.751,-63.2878 233.759,-68.8903 244.282,-70.1183 242.751,-63.2878"/>
</g>
<!-- Node9 -->
<g id="node9" class="node"><title>Node9</title>
<g id="a_node9"><a xlink:href="_u_s_c_x_m_l_invoker_8cpp.html" target="_top" xlink:title="plugins/invoker/scxml\l/USCXMLInvoker.cpp">
<polygon fill="white" stroke="black" points="121,-0.5 121,-30.5 234,-30.5 234,-0.5 121,-0.5"/>
<text text-anchor="start" x="129" y="-18.5" font-family="Helvetica,sans-Serif" font-size="10.00">plugins/invoker/scxml</text>
<text text-anchor="middle" x="177.5" y="-7.5" font-family="Helvetica,sans-Serif" font-size="10.00">/USCXMLInvoker.cpp</text>
</a>
</g>
</g>
<!-- Node7&#45;&gt;Node9 -->
<g id="edge9" class="edge"><title>Node7&#45;&gt;Node9</title>
<path fill="none" stroke="midnightblue" d="M177.5,-57.1081C177.5,-48.1539 177.5,-38.3227 177.5,-30.5765"/>
<polygon fill="midnightblue" stroke="midnightblue" points="174,-57.3959 177.5,-67.396 181,-57.396 174,-57.3959"/>
</g>
<!-- Node10&#45;&gt;Node5 -->
<g id="edge11" class="edge"><title>Node10&#45;&gt;Node5</title>
<path fill="none" stroke="midnightblue" d="M326.5,-124.317C326.5,-113.496 326.5,-100.398 326.5,-92.0091"/>
<polygon fill="midnightblue" stroke="midnightblue" points="323,-124.475 326.5,-134.475 330,-124.475 323,-124.475"/>
</g>
<!-- Node10&#45;&gt;Node7 -->
<g id="edge12" class="edge"><title>Node10&#45;&gt;Node7</title>
<path fill="none" stroke="midnightblue" d="M295.746,-130.719C271.563,-121.062 237.857,-107.602 212.616,-97.523"/>
<polygon fill="midnightblue" stroke="midnightblue" points="294.567,-134.017 305.152,-134.475 297.163,-127.516 294.567,-134.017"/>
</g>
<!-- Node11 -->
<g id="node11" class="node"><title>Node11</title>
<g id="a_node11"><a xlink:href="_invoker_8cpp.html" target="_top" xlink:title="plugins/Invoker.cpp">
<polygon fill="white" stroke="black" points="0,-73 0,-92 103,-92 103,-73 0,-73"/>
<text text-anchor="middle" x="51.5" y="-80" font-family="Helvetica,sans-Serif" font-size="10.00">plugins/Invoker.cpp</text>
</a>
</g>
</g>
<!-- Node10&#45;&gt;Node11 -->
<g id="edge13" class="edge"><title>Node10&#45;&gt;Node11</title>
<path fill="none" stroke="midnightblue" d="M274.166,-132.393C230.788,-123.505 167.548,-110.328 112.5,-98 104.108,-96.1207 95.087,-94.0204 86.6236,-92.0145"/>
<polygon fill="midnightblue" stroke="midnightblue" points="273.702,-135.87 284.201,-134.445 275.105,-129.012 273.702,-135.87"/>
</g>
<!-- Node12&#45;&gt;Node8 -->
<g id="edge15" class="edge"><title>Node12&#45;&gt;Node8</title>
<path fill="none" stroke="midnightblue" d="M738.055,-65.6231C667.559,-52.8236 571.138,-35.317 514.473,-25.0287"/>
<polygon fill="midnightblue" stroke="midnightblue" points="737.796,-69.1332 748.26,-67.476 739.046,-62.2458 737.796,-69.1332"/>
</g>
<!-- Node13 -->
<g id="node13" class="node"><title>Node13</title>
<g id="a_node13"><a xlink:href="_basic_h_t_t_p_i_o_processor_8cpp.html" target="_top" xlink:title="plugins/ioprocessor\l/basichttp/BasicHTTPIOProcessor.cpp">
<polygon fill="white" stroke="black" points="732,-0.5 732,-30.5 919,-30.5 919,-0.5 732,-0.5"/>
<text text-anchor="start" x="740" y="-18.5" font-family="Helvetica,sans-Serif" font-size="10.00">plugins/ioprocessor</text>
<text text-anchor="middle" x="825.5" y="-7.5" font-family="Helvetica,sans-Serif" font-size="10.00">/basichttp/BasicHTTPIOProcessor.cpp</text>
</a>
</g>
</g>
<!-- Node12&#45;&gt;Node13 -->
<g id="edge16" class="edge"><title>Node12&#45;&gt;Node13</title>
<path fill="none" stroke="midnightblue" d="M825.5,-57.1081C825.5,-48.1539 825.5,-38.3227 825.5,-30.5765"/>
<polygon fill="midnightblue" stroke="midnightblue" points="822,-57.3959 825.5,-67.396 829,-57.396 822,-57.3959"/>
</g>
<!-- Node15&#45;&gt;Node12 -->
<g id="edge19" class="edge"><title>Node15&#45;&gt;Node12</title>
<path fill="none" stroke="midnightblue" d="M1023.76,-132.045C984.065,-122.326 925.856,-108.073 882.77,-97.523"/>
<polygon fill="midnightblue" stroke="midnightblue" points="1023.14,-135.496 1033.68,-134.475 1024.8,-128.697 1023.14,-135.496"/>
</g>
<!-- Node16 -->
<g id="node16" class="node"><title>Node16</title>
<g id="a_node16"><a xlink:href="_s_c_x_m_l_i_o_processor_8h.html" target="_top" xlink:title="plugins/ioprocessor\l/scxml/SCXMLIOProcessor.h">
<polygon fill="white" stroke="black" points="995.5,-67.5 995.5,-97.5 1141.5,-97.5 1141.5,-67.5 995.5,-67.5"/>
<text text-anchor="start" x="1003.5" y="-85.5" font-family="Helvetica,sans-Serif" font-size="10.00">plugins/ioprocessor</text>
<text text-anchor="middle" x="1068.5" y="-74.5" font-family="Helvetica,sans-Serif" font-size="10.00">/scxml/SCXMLIOProcessor.h</text>
</a>
</g>
</g>
<!-- Node15&#45;&gt;Node16 -->
<g id="edge20" class="edge"><title>Node15&#45;&gt;Node16</title>
<path fill="none" stroke="midnightblue" d="M1068.5,-124.235C1068.5,-115.586 1068.5,-105.497 1068.5,-97.523"/>
<polygon fill="midnightblue" stroke="midnightblue" points="1065,-124.475 1068.5,-134.475 1072,-124.475 1065,-124.475"/>
</g>
<!-- Node17 -->
<g id="node17" class="node"><title>Node17</title>
<g id="a_node17"><a xlink:href="_i_o_processor_8cpp.html" target="_top" xlink:title="plugins/IOProcessor.cpp">
<polygon fill="white" stroke="black" points="1200,-73 1200,-92 1325,-92 1325,-73 1200,-73"/>
<text text-anchor="middle" x="1262.5" y="-80" font-family="Helvetica,sans-Serif" font-size="10.00">plugins/IOProcessor.cpp</text>
</a>
</g>
</g>
<!-- Node15&#45;&gt;Node17 -->
<g id="edge23" class="edge"><title>Node15&#45;&gt;Node17</title>
<path fill="none" stroke="midnightblue" d="M1105.9,-131.529C1143.61,-119.965 1200.93,-102.385 1234.76,-92.0091"/>
<polygon fill="midnightblue" stroke="midnightblue" points="1104.83,-128.197 1096.3,-134.475 1106.88,-134.889 1104.83,-128.197"/>
</g>
<!-- Node16&#45;&gt;Node8 -->
<g id="edge21" class="edge"><title>Node16&#45;&gt;Node8</title>
<path fill="none" stroke="midnightblue" d="M985.405,-72.5131C859.268,-58.8709 623.16,-33.3351 519.056,-22.0759"/>
<polygon fill="midnightblue" stroke="midnightblue" points="985.088,-75.9991 995.406,-73.5947 985.841,-69.0397 985.088,-75.9991"/>
</g>
<!-- Node16&#45;&gt;Node14 -->
<g id="edge22" class="edge"><title>Node16&#45;&gt;Node14</title>
<path fill="none" stroke="midnightblue" d="M1089.65,-60.0243C1099.18,-50.3398 1110.17,-39.1739 1118.64,-30.5765"/>
<polygon fill="midnightblue" stroke="midnightblue" points="1086.91,-57.8146 1082.39,-67.396 1091.9,-62.7259 1086.91,-57.8146"/>
</g>
<!-- Node19 -->
<g id="node19" class="node"><title>Node19</title>
<g id="a_node19"><a xlink:href="_chart_to_c_8h.html" target="_top" xlink:title="transform/ChartToC.h">
<polygon fill="white" stroke="black" points="1555,-73 1555,-92 1668,-92 1668,-73 1555,-73"/>
<text text-anchor="middle" x="1611.5" y="-80" font-family="Helvetica,sans-Serif" font-size="10.00">transform/ChartToC.h</text>
</a>
</g>
</g>
<!-- Node18&#45;&gt;Node19 -->
<g id="edge25" class="edge"><title>Node18&#45;&gt;Node19</title>
<path fill="none" stroke="midnightblue" d="M1558.43,-127.973C1572.01,-116.593 1590.18,-101.369 1601.35,-92.0091"/>
<polygon fill="midnightblue" stroke="midnightblue" points="1556.09,-125.369 1550.67,-134.475 1560.59,-130.735 1556.09,-125.369"/>
</g>
<!-- Node21 -->
<g id="node21" class="node"><title>Node21</title>
<g id="a_node21"><a xlink:href="_chart_to_v_h_d_l_8h.html" target="_top" xlink:title="transform/ChartToVHDL.h">
<polygon fill="white" stroke="black" points="1630,-6 1630,-25 1763,-25 1763,-6 1630,-6"/>
<text text-anchor="middle" x="1696.5" y="-13" font-family="Helvetica,sans-Serif" font-size="10.00">transform/ChartToVHDL.h</text>
</a>
</g>
</g>
<!-- Node18&#45;&gt;Node21 -->
<g id="edge28" class="edge"><title>Node18&#45;&gt;Node21</title>
<path fill="none" stroke="midnightblue" d="M1612.45,-133.364C1635.73,-126.882 1659.81,-116.06 1676.5,-98 1695.48,-77.4556 1697.24,-41.884 1696.93,-25.3823"/>
<polygon fill="midnightblue" stroke="midnightblue" points="1611.37,-130.026 1602.54,-135.884 1613.1,-136.809 1611.37,-130.026"/>
</g>
<!-- Node22 -->
<g id="node22" class="node"><title>Node22</title>
<g id="a_node22"><a xlink:href="_transformer_8cpp.html" target="_top" xlink:title="transform/Transformer.cpp">
<polygon fill="white" stroke="black" points="1402,-73 1402,-92 1537,-92 1537,-73 1402,-73"/>
<text text-anchor="middle" x="1469.5" y="-80" font-family="Helvetica,sans-Serif" font-size="10.00">transform/Transformer.cpp</text>
</a>
</g>
</g>
<!-- Node18&#45;&gt;Node22 -->
<g id="edge29" class="edge"><title>Node18&#45;&gt;Node22</title>
<path fill="none" stroke="midnightblue" d="M1522.57,-127.973C1508.99,-116.593 1490.82,-101.369 1479.65,-92.0091"/>
<polygon fill="midnightblue" stroke="midnightblue" points="1520.41,-130.735 1530.33,-134.475 1524.91,-125.369 1520.41,-130.735"/>
</g>
<!-- Node20 -->
<g id="node20" class="node"><title>Node20</title>
<g id="a_node20"><a xlink:href="_chart_to_c_8cpp.html" target="_top" xlink:title="transform/ChartToC.cpp">
<polygon fill="white" stroke="black" points="1487.5,-6 1487.5,-25 1611.5,-25 1611.5,-6 1487.5,-6"/>
<text text-anchor="middle" x="1549.5" y="-13" font-family="Helvetica,sans-Serif" font-size="10.00">transform/ChartToC.cpp</text>
</a>
</g>
</g>
<!-- Node19&#45;&gt;Node20 -->
<g id="edge26" class="edge"><title>Node19&#45;&gt;Node20</title>
<path fill="none" stroke="midnightblue" d="M1596.24,-65.4968C1584.08,-52.7496 1567.52,-35.3947 1557.73,-25.1273"/>
<polygon fill="midnightblue" stroke="midnightblue" points="1593.7,-67.9134 1603.14,-72.7338 1598.77,-63.082 1593.7,-67.9134"/>
</g>
<!-- Node19&#45;&gt;Node21 -->
<g id="edge27" class="edge"><title>Node19&#45;&gt;Node21</title>
<path fill="none" stroke="midnightblue" d="M1631.03,-66.5678C1647.8,-53.7376 1671.41,-35.6853 1685.22,-25.1273"/>
<polygon fill="midnightblue" stroke="midnightblue" points="1628.78,-63.879 1622.96,-72.7338 1633.03,-69.4395 1628.78,-63.879"/>
</g>
<!-- Node23&#45;&gt;Node2 -->
<g id="edge45" class="edge"><title>Node23&#45;&gt;Node2</title>
<path fill="none" stroke="midnightblue" d="M401.986,-371.179C413.949,-346.057 435.316,-301.187 444.318,-282.282"/>
<polygon fill="midnightblue" stroke="midnightblue" points="398.773,-369.785 397.634,-380.319 405.093,-372.795 398.773,-369.785"/>
</g>
<!-- Node23&#45;&gt;Node7 -->
<g id="edge46" class="edge"><title>Node23&#45;&gt;Node7</title>
<path fill="none" stroke="midnightblue" d="M352.457,-377.172C307.742,-361.468 242.5,-329.039 242.5,-273.5 242.5,-273.5 242.5,-273.5 242.5,-204.5 242.5,-161.577 210.365,-119.194 191.285,-97.812"/>
<polygon fill="midnightblue" stroke="midnightblue" points="351.619,-380.582 362.213,-380.451 353.849,-373.947 351.619,-380.582"/>
</g>
<!-- Node23&#45;&gt;Node11 -->
<g id="edge47" class="edge"><title>Node23&#45;&gt;Node11</title>
<path fill="none" stroke="midnightblue" d="M337.482,-379.327C281.757,-366.111 204.5,-336.44 204.5,-273.5 204.5,-273.5 204.5,-273.5 204.5,-204.5 204.5,-142.188 125.46,-106.941 80.9999,-92.0431"/>
<polygon fill="midnightblue" stroke="midnightblue" points="336.74,-382.747 347.265,-381.533 338.28,-375.919 336.74,-382.747"/>
</g>
<!-- Node24 -->
<g id="node24" class="node"><title>Node24</title>
<g id="a_node24"><a xlink:href="_data_model_impl_8h.html" target="_top" xlink:title="plugins/DataModelImpl.h">
<polygon fill="white" stroke="black" points="643,-324.5 643,-343.5 770,-343.5 770,-324.5 643,-324.5"/>
<text text-anchor="middle" x="706.5" y="-331.5" font-family="Helvetica,sans-Serif" font-size="10.00">plugins/DataModelImpl.h</text>
</a>
</g>
</g>
<!-- Node23&#45;&gt;Node24 -->
<g id="edge32" class="edge"><title>Node23&#45;&gt;Node24</title>
<path fill="none" stroke="midnightblue" d="M449.583,-379.324C508.607,-369.141 600.616,-353.268 657.023,-343.536"/>
<polygon fill="midnightblue" stroke="midnightblue" points="448.944,-375.883 439.684,-381.032 450.134,-382.781 448.944,-375.883"/>
</g>
<!-- Node24&#45;&gt;Node2 -->
<g id="edge44" class="edge"><title>Node24&#45;&gt;Node2</title>
<path fill="none" stroke="midnightblue" d="M656.167,-322.287C615.233,-313.454 556.023,-300.406 504.5,-288 496.787,-286.143 488.501,-284.051 480.731,-282.046"/>
<polygon fill="midnightblue" stroke="midnightblue" points="655.652,-325.756 666.164,-324.439 657.125,-318.913 655.652,-325.756"/>
</g>
<!-- Node24&#45;&gt;Node4 -->
<g id="edge33" class="edge"><title>Node24&#45;&gt;Node4</title>
<path fill="none" stroke="midnightblue" d="M739.094,-319.897C752.603,-312.648 766.878,-302.185 774.5,-288 781.022,-275.864 779.611,-269.795 774.5,-257 767.411,-239.252 750.788,-224.175 739.1,-215.233"/>
<polygon fill="midnightblue" stroke="midnightblue" points="737.372,-316.844 729.954,-324.408 740.47,-323.121 737.372,-316.844"/>
</g>
<!-- Node25 -->
<g id="node25" class="node"><title>Node25</title>
<g id="a_node25"><a xlink:href="_j_s_c_data_model_8h.html" target="_top" xlink:title="plugins/datamodel/ecmascript\l/JavaScriptCore/JSCDataModel.h">
<polygon fill="white" stroke="black" points="821.5,-257.5 821.5,-287.5 987.5,-287.5 987.5,-257.5 821.5,-257.5"/>
<text text-anchor="start" x="829.5" y="-275.5" font-family="Helvetica,sans-Serif" font-size="10.00">plugins/datamodel/ecmascript</text>
<text text-anchor="middle" x="904.5" y="-264.5" font-family="Helvetica,sans-Serif" font-size="10.00">/JavaScriptCore/JSCDataModel.h</text>
</a>
</g>
</g>
<!-- Node24&#45;&gt;Node25 -->
<g id="edge34" class="edge"><title>Node24&#45;&gt;Node25</title>
<path fill="none" stroke="midnightblue" d="M744.825,-321.483C777.107,-311.782 823.399,-297.871 857.835,-287.523"/>
<polygon fill="midnightblue" stroke="midnightblue" points="743.438,-318.245 734.869,-324.475 745.453,-324.949 743.438,-318.245"/>
</g>
<!-- Node27 -->
<g id="node27" class="node"><title>Node27</title>
<g id="a_node27"><a xlink:href="_v8_data_model_8h.html" target="_top" xlink:title="plugins/datamodel/ecmascript\l/v8/V8DataModel.h">
<polygon fill="white" stroke="black" points="1007,-257.5 1007,-287.5 1156,-287.5 1156,-257.5 1007,-257.5"/>
<text text-anchor="start" x="1015" y="-275.5" font-family="Helvetica,sans-Serif" font-size="10.00">plugins/datamodel/ecmascript</text>
<text text-anchor="middle" x="1081.5" y="-264.5" font-family="Helvetica,sans-Serif" font-size="10.00">/v8/V8DataModel.h</text>
</a>
</g>
</g>
<!-- Node24&#45;&gt;Node27 -->
<g id="edge36" class="edge"><title>Node24&#45;&gt;Node27</title>
<path fill="none" stroke="midnightblue" d="M772.851,-322.994C831.66,-314.056 919.846,-300.485 996.5,-288 999.898,-287.447 1003.37,-286.875 1006.88,-286.294"/>
<polygon fill="midnightblue" stroke="midnightblue" points="772.309,-319.536 762.948,-324.497 773.36,-326.457 772.309,-319.536"/>
</g>
<!-- Node29 -->
<g id="node29" class="node"><title>Node29</title>
<g id="a_node29"><a xlink:href="_lua_data_model_8h.html" target="_top" xlink:title="plugins/datamodel/lua\l/LuaDataModel.h">
<polygon fill="white" stroke="black" points="1175.5,-257.5 1175.5,-287.5 1289.5,-287.5 1289.5,-257.5 1175.5,-257.5"/>
<text text-anchor="start" x="1183.5" y="-275.5" font-family="Helvetica,sans-Serif" font-size="10.00">plugins/datamodel/lua</text>
<text text-anchor="middle" x="1232.5" y="-264.5" font-family="Helvetica,sans-Serif" font-size="10.00">/LuaDataModel.h</text>
</a>
</g>
</g>
<!-- Node24&#45;&gt;Node29 -->
<g id="edge38" class="edge"><title>Node24&#45;&gt;Node29</title>
<path fill="none" stroke="midnightblue" d="M780.317,-328.307C871.105,-321.946 1029.75,-308.919 1164.5,-288 1168.08,-287.444 1171.75,-286.82 1175.45,-286.15"/>
<polygon fill="midnightblue" stroke="midnightblue" points="779.862,-324.83 770.128,-329.012 780.346,-331.813 779.862,-324.83"/>
</g>
<!-- Node31 -->
<g id="node31" class="node"><title>Node31</title>
<g id="a_node31"><a xlink:href="_n_u_l_l_data_model_8h.html" target="_top" xlink:title="plugins/datamodel/null\l/NULLDataModel.h">
<polygon fill="white" stroke="black" points="513.5,-257.5 513.5,-287.5 629.5,-287.5 629.5,-257.5 513.5,-257.5"/>
<text text-anchor="start" x="521.5" y="-275.5" font-family="Helvetica,sans-Serif" font-size="10.00">plugins/datamodel/null</text>
<text text-anchor="middle" x="571.5" y="-264.5" font-family="Helvetica,sans-Serif" font-size="10.00">/NULLDataModel.h</text>
</a>
</g>
</g>
<!-- Node24&#45;&gt;Node31 -->
<g id="edge40" class="edge"><title>Node24&#45;&gt;Node31</title>
<path fill="none" stroke="midnightblue" d="M677.754,-320.331C655.912,-310.704 625.881,-297.468 603.317,-287.523"/>
<polygon fill="midnightblue" stroke="midnightblue" points="676.596,-323.645 687.158,-324.475 679.419,-317.239 676.596,-323.645"/>
</g>
<!-- Node33 -->
<g id="node33" class="node"><title>Node33</title>
<g id="a_node33"><a xlink:href="_data_model_8cpp.html" target="_top" xlink:title="plugins/DataModel.cpp">
<polygon fill="white" stroke="black" points="647.5,-263 647.5,-282 765.5,-282 765.5,-263 647.5,-263"/>
<text text-anchor="middle" x="706.5" y="-270" font-family="Helvetica,sans-Serif" font-size="10.00">plugins/DataModel.cpp</text>
</a>
</g>
</g>
<!-- Node24&#45;&gt;Node33 -->
<g id="edge43" class="edge"><title>Node24&#45;&gt;Node33</title>
<path fill="none" stroke="midnightblue" d="M706.5,-314.317C706.5,-303.496 706.5,-290.398 706.5,-282.009"/>
<polygon fill="midnightblue" stroke="midnightblue" points="703,-314.475 706.5,-324.475 710,-314.475 703,-314.475"/>
</g>
<!-- Node26 -->
<g id="node26" class="node"><title>Node26</title>
<g id="a_node26"><a xlink:href="_j_s_c_data_model_8cpp.html" target="_top" xlink:title="plugins/datamodel/ecmascript\l/JavaScriptCore/JSCDataModel.cpp">
<polygon fill="white" stroke="black" points="814,-190.5 814,-220.5 991,-220.5 991,-190.5 814,-190.5"/>
<text text-anchor="start" x="822" y="-208.5" font-family="Helvetica,sans-Serif" font-size="10.00">plugins/datamodel/ecmascript</text>
<text text-anchor="middle" x="902.5" y="-197.5" font-family="Helvetica,sans-Serif" font-size="10.00">/JavaScriptCore/JSCDataModel.cpp</text>
</a>
</g>
</g>
<!-- Node25&#45;&gt;Node26 -->
<g id="edge35" class="edge"><title>Node25&#45;&gt;Node26</title>
<path fill="none" stroke="midnightblue" d="M903.749,-247.108C903.474,-238.154 903.171,-228.323 902.933,-220.577"/>
<polygon fill="midnightblue" stroke="midnightblue" points="900.26,-247.508 904.066,-257.396 907.257,-247.293 900.26,-247.508"/>
</g>
<!-- Node28 -->
<g id="node28" class="node"><title>Node28</title>
<g id="a_node28"><a xlink:href="_v8_data_model_8cpp.html" target="_top" xlink:title="plugins/datamodel/ecmascript\l/v8/V8DataModel.cpp">
<polygon fill="white" stroke="black" points="1009,-190.5 1009,-220.5 1158,-220.5 1158,-190.5 1009,-190.5"/>
<text text-anchor="start" x="1017" y="-208.5" font-family="Helvetica,sans-Serif" font-size="10.00">plugins/datamodel/ecmascript</text>
<text text-anchor="middle" x="1083.5" y="-197.5" font-family="Helvetica,sans-Serif" font-size="10.00">/v8/V8DataModel.cpp</text>
</a>
</g>
</g>
<!-- Node27&#45;&gt;Node28 -->
<g id="edge37" class="edge"><title>Node27&#45;&gt;Node28</title>
<path fill="none" stroke="midnightblue" d="M1082.25,-247.108C1082.53,-238.154 1082.83,-228.323 1083.07,-220.577"/>
<polygon fill="midnightblue" stroke="midnightblue" points="1078.74,-247.293 1081.93,-257.396 1085.74,-247.508 1078.74,-247.293"/>
</g>
<!-- Node30 -->
<g id="node30" class="node"><title>Node30</title>
<g id="a_node30"><a xlink:href="_lua_data_model_8cpp.html" target="_top" xlink:title="plugins/datamodel/lua\l/LuaDataModel.cpp">
<polygon fill="white" stroke="black" points="1176.5,-190.5 1176.5,-220.5 1290.5,-220.5 1290.5,-190.5 1176.5,-190.5"/>
<text text-anchor="start" x="1184.5" y="-208.5" font-family="Helvetica,sans-Serif" font-size="10.00">plugins/datamodel/lua</text>
<text text-anchor="middle" x="1233.5" y="-197.5" font-family="Helvetica,sans-Serif" font-size="10.00">/LuaDataModel.cpp</text>
</a>
</g>
</g>
<!-- Node29&#45;&gt;Node30 -->
<g id="edge39" class="edge"><title>Node29&#45;&gt;Node30</title>
<path fill="none" stroke="midnightblue" d="M1232.88,-247.108C1233.01,-238.154 1233.16,-228.323 1233.28,-220.577"/>
<polygon fill="midnightblue" stroke="midnightblue" points="1229.37,-247.343 1232.72,-257.396 1236.37,-247.451 1229.37,-247.343"/>
</g>
<!-- Node31&#45;&gt;Node8 -->
<g id="edge42" class="edge"><title>Node31&#45;&gt;Node8</title>
<path fill="none" stroke="midnightblue" d="M544.734,-250.956C534.554,-242.366 523.299,-231.862 514.5,-221 492.951,-194.399 486.31,-186.798 476.5,-154 462.446,-107.015 465.129,-47.1076 466.756,-25.1028"/>
<polygon fill="midnightblue" stroke="midnightblue" points="542.648,-253.771 552.6,-257.403 547.085,-248.357 542.648,-253.771"/>
</g>
<!-- Node32 -->
<g id="node32" class="node"><title>Node32</title>
<g id="a_node32"><a xlink:href="_n_u_l_l_data_model_8cpp.html" target="_top" xlink:title="plugins/datamodel/null\l/NULLDataModel.cpp">
<polygon fill="white" stroke="black" points="523.5,-190.5 523.5,-220.5 639.5,-220.5 639.5,-190.5 523.5,-190.5"/>
<text text-anchor="start" x="531.5" y="-208.5" font-family="Helvetica,sans-Serif" font-size="10.00">plugins/datamodel/null</text>
<text text-anchor="middle" x="581.5" y="-197.5" font-family="Helvetica,sans-Serif" font-size="10.00">/NULLDataModel.cpp</text>
</a>
</g>
</g>
<!-- Node31&#45;&gt;Node32 -->
<g id="edge41" class="edge"><title>Node31&#45;&gt;Node32</title>
<path fill="none" stroke="midnightblue" d="M575.207,-247.403C576.597,-238.37 578.13,-228.408 579.334,-220.577"/>
<polygon fill="midnightblue" stroke="midnightblue" points="571.731,-246.98 573.67,-257.396 578.65,-248.044 571.731,-246.98"/>
</g>
<!-- Node34&#45;&gt;Node2 -->
<g id="edge51" class="edge"><title>Node34&#45;&gt;Node2</title>
<path fill="none" stroke="midnightblue" d="M610.622,-374.717C571.843,-350.506 494.328,-302.112 462.566,-282.282"/>
<polygon fill="midnightblue" stroke="midnightblue" points="609.259,-377.992 619.595,-380.319 612.966,-372.054 609.259,-377.992"/>
</g>
<!-- Node34&#45;&gt;Node17 -->
<g id="edge52" class="edge"><title>Node34&#45;&gt;Node17</title>
<path fill="none" stroke="midnightblue" d="M701.137,-387.216C851.557,-381.937 1207.68,-361.772 1298.5,-288 1333.39,-259.659 1335.06,-233.439 1323.5,-190 1312.87,-150.053 1283.32,-109.49 1269.63,-92.1852"/>
<polygon fill="midnightblue" stroke="midnightblue" points="700.976,-383.72 691.1,-387.557 701.213,-390.716 700.976,-383.72"/>
</g>
<!-- Node34&#45;&gt;Node24 -->
<g id="edge50" class="edge"><title>Node34&#45;&gt;Node24</title>
<path fill="none" stroke="midnightblue" d="M653.642,-374.101C666.779,-364.382 683.482,-352.027 694.558,-343.834"/>
<polygon fill="midnightblue" stroke="midnightblue" points="651.187,-371.563 645.229,-380.324 655.35,-377.191 651.187,-371.563"/>
</g>
</g>
</svg>
        <g id="navigator" transform="translate(0 0)" fill="#404254">
                <rect fill="#f2f5e9" fill-opacity="0.5" stroke="#606060" stroke-width=".5" x="0" y="0" width="60" height="60"/>
                <use id="zoomplus" xlink:href="#zoomPlus" x="17" y="9" onmousedown="handleZoom(evt,'in')"/>
                <use id="zoomminus" xlink:href="#zoomMin" x="42" y="9" onmousedown="handleZoom(evt,'out')"/>
                <use id="reset" xlink:href="#resetDef" x="30" y="36" onmousedown="handleReset()"/>
                <g id="arrowUp" xlink:href="#dirArrow" transform="translate(30 24)" onmousedown="handlePan(0,-1)">
                  <use xlink:href="#rim" fill="#404040">
                        <set attributeName="fill" to="#808080" begin="arrowUp.mouseover" end="arrowUp.mouseout"/>
                  </use>
                  <path fill="none" stroke="white" stroke-width="1.5" d="M0,-3.0v7 M-2.5,-0.5L0,-3.0L2.5,-0.5"/>
                </g>
                <g id="arrowRight" xlink:href="#dirArrow" transform="rotate(90) translate(36 -43)" onmousedown="handlePan(1,0)">
                  <use xlink:href="#rim" fill="#404040">
                        <set attributeName="fill" to="#808080" begin="arrowRight.mouseover" end="arrowRight.mouseout"/>
                  </use>
                  <path fill="none" stroke="white" stroke-width="1.5" d="M0,-3.0v7 M-2.5,-0.5L0,-3.0L2.5,-0.5"/>
                </g>
                <g id="arrowDown" xlink:href="#dirArrow" transform="rotate(180) translate(-30 -48)" onmousedown="handlePan(0,1)">
                  <use xlink:href="#rim" fill="#404040">
                        <set attributeName="fill" to="#808080" begin="arrowDown.mouseover" end="arrowDown.mouseout"/>
                  </use>
                  <path fill="none" stroke="white" stroke-width="1.5" d="M0,-3.0v7 M-2.5,-0.5L0,-3.0L2.5,-0.5"/>
                </g>
                <g id="arrowLeft" xlink:href="#dirArrow" transform="rotate(270) translate(-36 17)" onmousedown="handlePan(-1,0)">
                  <use xlink:href="#rim" fill="#404040">
                        <set attributeName="fill" to="#808080" begin="arrowLeft.mouseover" end="arrowLeft.mouseout"/>
                  </use>
                  <path fill="none" stroke="white" stroke-width="1.5" d="M0,-3.0v7 M-2.5,-0.5L0,-3.0L2.5,-0.5"/>
                </g>
        </g>
        <svg viewBox="0 0 15 15" width="100%" height="30px" preserveAspectRatio="xMaxYMin meet">
         <g id="arrow_out" transform="scale(0.3 0.3)">
          <a xlink:href="_event_handler_8h__dep__incl_org.svg" target="_base">
           <rect id="button" ry="5" rx="5" y="6" x="6" height="38" width="38"
                fill="#f2f5e9" fill-opacity="0.5" stroke="#606060" stroke-width="1.0"/>
           <path id="arrow"
             d="M 11.500037,31.436501 C 11.940474,20.09759 22.043105,11.32322 32.158766,21.979434 L 37.068811,17.246167 C 37.068811,17.246167 37.088388,32 37.088388,32 L 22.160133,31.978069 C 22.160133,31.978069 26.997745,27.140456 26.997745,27.140456 C 18.528582,18.264221 13.291696,25.230495 11.500037,31.436501 z"
             style="fill:#404040;"/>
          </a>
         </g>
        </svg>
</svg>
