<?xml version="1.0" encoding="UTF-8" standalone="no"?>
<!DOCTYPE svg PUBLIC "-//W3C//DTD SVG 1.1//EN"
 "http://www.w3.org/Graphics/SVG/1.1/DTD/svg11.dtd">
<!-- Generated by graphviz version 2.40.1 (20161225.0304)
 -->
<!-- Title: interpreter/EventQueue.h Pages: 1 -->
<svg width="648pt" height="308pt"
 viewBox="0.00 0.00 648.34 308.00" xmlns="http://www.w3.org/2000/svg" xmlns:xlink="http://www.w3.org/1999/xlink">
<g id="graph0" class="graph" transform="scale(1 1) rotate(0) translate(4 304)">
<title>interpreter/EventQueue.h</title>
<polygon fill="#ffffff" stroke="transparent" points="-4,4 -4,-304 644.3389,-304 644.3389,4 -4,4"/>
<!-- Node1 -->
<g id="node1" class="node">
<title>Node1</title>
<polygon fill="#bfbfbf" stroke="#000000" points="511,-280.5 511,-299.5 640,-299.5 640,-280.5 511,-280.5"/>
<text text-anchor="middle" x="575.5" y="-287.5" font-family="Helvetica,sans-Serif" font-size="10.00" fill="#000000">interpreter/EventQueue.h</text>
</g>
<!-- Node2 -->
<g id="node2" class="node">
<title>Node2</title>
<g id="a_node2"><a xlink:href="$_common_8h.html" xlink:title="uscxml/Common.h">
<polygon fill="#ffffff" stroke="#000000" points="418,-56.5 418,-75.5 517,-75.5 517,-56.5 418,-56.5"/>
<text text-anchor="middle" x="467.5" y="-63.5" font-family="Helvetica,sans-Serif" font-size="10.00" fill="#000000">uscxml/Common.h</text>
</a>
</g>
</g>
<!-- Node1&#45;&gt;Node2 -->
<g id="edge1" class="edge">
<title>Node1&#45;&gt;Node2</title>
<path fill="none" stroke="#191970" d="M583.4515,-280.4594C606.1821,-251.9831 667.2561,-166.2185 626.5,-112 614.2831,-95.7477 566.9901,-83.4075 527.1315,-75.6204"/>
<polygon fill="#191970" stroke="#191970" points="527.6602,-72.1585 517.184,-73.7391 526.3594,-79.0365 527.6602,-72.1585"/>
</g>
<!-- Node5 -->
<g id="node5" class="node">
<title>Node5</title>
<g id="a_node5"><a xlink:href="$_event_8h.html" xlink:title="uscxml/messages/Event.h">
<polygon fill="#ffffff" stroke="#000000" points="401,-224.5 401,-243.5 534,-243.5 534,-224.5 401,-224.5"/>
<text text-anchor="middle" x="467.5" y="-231.5" font-family="Helvetica,sans-Serif" font-size="10.00" fill="#000000">uscxml/messages/Event.h</text>
</a>
</g>
</g>
<!-- Node1&#45;&gt;Node5 -->
<g id="edge4" class="edge">
<title>Node1&#45;&gt;Node5</title>
<path fill="none" stroke="#191970" d="M556.6878,-280.2455C539.6527,-271.4125 514.3425,-258.2887 495.0319,-248.2758"/>
<polygon fill="#191970" stroke="#191970" points="496.5853,-245.1388 486.0966,-243.6427 493.363,-251.353 496.5853,-245.1388"/>
</g>
<!-- Node3 -->
<g id="node3" class="node">
<title>Node3</title>
<polygon fill="#ffffff" stroke="#bfbfbf" points="393.5,-.5 393.5,-19.5 465.5,-19.5 465.5,-.5 393.5,-.5"/>
<text text-anchor="middle" x="429.5" y="-7.5" font-family="Helvetica,sans-Serif" font-size="10.00" fill="#000000">sys/socket.h</text>
</g>
<!-- Node2&#45;&gt;Node3 -->
<g id="edge2" class="edge">
<title>Node2&#45;&gt;Node3</title>
<path fill="none" stroke="#191970" d="M460.8809,-56.2455C455.5954,-48.4564 448.0459,-37.3308 441.6762,-27.9439"/>
<polygon fill="#191970" stroke="#191970" points="444.5545,-25.9522 436.0432,-19.6427 438.7621,-29.8827 444.5545,-25.9522"/>
</g>
<!-- Node4 -->
<g id="node4" class="node">
<title>Node4</title>
<polygon fill="#ffffff" stroke="#bfbfbf" points="483.5,-.5 483.5,-19.5 527.5,-19.5 527.5,-.5 483.5,-.5"/>
<text text-anchor="middle" x="505.5" y="-7.5" font-family="Helvetica,sans-Serif" font-size="10.00" fill="#000000">cmath</text>
</g>
<!-- Node2&#45;&gt;Node4 -->
<g id="edge3" class="edge">
<title>Node2&#45;&gt;Node4</title>
<path fill="none" stroke="#191970" d="M474.1191,-56.2455C479.4046,-48.4564 486.9541,-37.3308 493.3238,-27.9439"/>
<polygon fill="#191970" stroke="#191970" points="496.2379,-29.8827 498.9568,-19.6427 490.4455,-25.9522 496.2379,-29.8827"/>
</g>
<!-- Node6 -->
<g id="node6" class="node">
<title>Node6</title>
<g id="a_node6"><a xlink:href="$_data_8h.html" xlink:title="uscxml/messages/Data.h">
<polygon fill="#ffffff" stroke="#000000" points="403.5,-168.5 403.5,-187.5 531.5,-187.5 531.5,-168.5 403.5,-168.5"/>
<text text-anchor="middle" x="467.5" y="-175.5" font-family="Helvetica,sans-Serif" font-size="10.00" fill="#000000">uscxml/messages/Data.h</text>
</a>
</g>
</g>
<!-- Node5&#45;&gt;Node6 -->
<g id="edge5" class="edge">
<title>Node5&#45;&gt;Node6</title>
<path fill="none" stroke="#191970" d="M467.5,-224.2455C467.5,-216.9382 467.5,-206.6944 467.5,-197.7046"/>
<polygon fill="#191970" stroke="#191970" points="471.0001,-197.6426 467.5,-187.6427 464.0001,-197.6427 471.0001,-197.6426"/>
</g>
<!-- Node16 -->
<g id="node16" class="node">
<title>Node16</title>
<g id="a_node16"><a xlink:href="$_u_u_i_d_8h.html" xlink:title="uscxml/util/UUID.h">
<polygon fill="#ffffff" stroke="#000000" points="151,-112.5 151,-131.5 250,-131.5 250,-112.5 151,-112.5"/>
<text text-anchor="middle" x="200.5" y="-119.5" font-family="Helvetica,sans-Serif" font-size="10.00" fill="#000000">uscxml/util/UUID.h</text>
</a>
</g>
</g>
<!-- Node5&#45;&gt;Node16 -->
<g id="edge20" class="edge">
<title>Node5&#45;&gt;Node16</title>
<path fill="none" stroke="#191970" d="M444.7357,-224.4509C397.2476,-204.5308 287.4997,-158.4942 232.7602,-135.5323"/>
<polygon fill="#191970" stroke="#191970" points="233.7821,-132.1656 223.2067,-131.5249 231.0743,-138.6207 233.7821,-132.1656"/>
</g>
<!-- Node6&#45;&gt;Node2 -->
<g id="edge10" class="edge">
<title>Node6&#45;&gt;Node2</title>
<path fill="none" stroke="#191970" d="M495.1959,-168.4275C511.5463,-161.1781 530.8739,-149.4435 540.5,-132 552.6509,-109.9812 526.6946,-91.4633 502.4359,-79.7"/>
<polygon fill="#191970" stroke="#191970" points="503.8548,-76.5003 493.3046,-75.5291 500.9464,-82.8675 503.8548,-76.5003"/>
</g>
<!-- Node7 -->
<g id="node7" class="node">
<title>Node7</title>
<polygon fill="#ffffff" stroke="#bfbfbf" points="588,-112.5 588,-131.5 617,-131.5 617,-112.5 588,-112.5"/>
<text text-anchor="middle" x="602.5" y="-119.5" font-family="Helvetica,sans-Serif" font-size="10.00" fill="#000000">list</text>
</g>
<!-- Node6&#45;&gt;Node7 -->
<g id="edge6" class="edge">
<title>Node6&#45;&gt;Node7</title>
<path fill="none" stroke="#191970" d="M490.7073,-168.3733C515.223,-158.2038 553.6951,-142.245 578.5049,-131.9535"/>
<polygon fill="#191970" stroke="#191970" points="580.0135,-135.117 587.9093,-128.0524 577.3314,-128.6512 580.0135,-135.117"/>
</g>
<!-- Node8 -->
<g id="node8" class="node">
<title>Node8</title>
<polygon fill="#ffffff" stroke="#bfbfbf" points="268.5,-112.5 268.5,-131.5 304.5,-131.5 304.5,-112.5 268.5,-112.5"/>
<text text-anchor="middle" x="286.5" y="-119.5" font-family="Helvetica,sans-Serif" font-size="10.00" fill="#000000">map</text>
</g>
<!-- Node6&#45;&gt;Node8 -->
<g id="edge7" class="edge">
<title>Node6&#45;&gt;Node8</title>
<path fill="none" stroke="#191970" d="M433.3534,-168.4839C404.0347,-160.1622 360.46,-147.4371 314.3138,-132.1364"/>
<polygon fill="#191970" stroke="#191970" points="315.3372,-128.7882 304.7434,-128.938 313.1184,-135.4273 315.3372,-128.7882"/>
</g>
<!-- Node9 -->
<g id="node9" class="node">
<title>Node9</title>
<polygon fill="#ffffff" stroke="#bfbfbf" points="577,-56.5 577,-75.5 630,-75.5 630,-56.5 577,-56.5"/>
<text text-anchor="middle" x="603.5" y="-63.5" font-family="Helvetica,sans-Serif" font-size="10.00" fill="#000000">memory</text>
</g>
<!-- Node6&#45;&gt;Node9 -->
<g id="edge8" class="edge">
<title>Node6&#45;&gt;Node9</title>
<path fill="none" stroke="#191970" d="M526.7158,-168.4607C566.6607,-160.6782 614.2406,-148.3088 626.5,-132 637.1461,-117.8374 628.1652,-98.3592 618.4833,-84.2366"/>
<polygon fill="#191970" stroke="#191970" points="621.0037,-81.7618 612.2189,-75.8392 615.3929,-85.9474 621.0037,-81.7618"/>
</g>
<!-- Node10 -->
<g id="node10" class="node">
<title>Node10</title>
<polygon fill="#ffffff" stroke="#bfbfbf" points="323,-112.5 323,-131.5 386,-131.5 386,-112.5 323,-112.5"/>
<text text-anchor="middle" x="354.5" y="-119.5" font-family="Helvetica,sans-Serif" font-size="10.00" fill="#000000">type_traits</text>
</g>
<!-- Node6&#45;&gt;Node10 -->
<g id="edge9" class="edge">
<title>Node6&#45;&gt;Node10</title>
<path fill="none" stroke="#191970" d="M448.0746,-168.3733C430.0979,-159.4644 403.1559,-146.1127 382.791,-136.0203"/>
<polygon fill="#191970" stroke="#191970" points="384.1861,-132.8055 373.6719,-131.5011 381.0778,-139.0776 384.1861,-132.8055"/>
</g>
<!-- Node11 -->
<g id="node11" class="node">
<title>Node11</title>
<g id="a_node11"><a xlink:href="$_convenience_8h.html" xlink:title="uscxml/util/Convenience.h">
<polygon fill="#ffffff" stroke="#000000" points="0,-112.5 0,-131.5 133,-131.5 133,-112.5 0,-112.5"/>
<text text-anchor="middle" x="66.5" y="-119.5" font-family="Helvetica,sans-Serif" font-size="10.00" fill="#000000">uscxml/util/Convenience.h</text>
</a>
</g>
</g>
<!-- Node6&#45;&gt;Node11 -->
<g id="edge11" class="edge">
<title>Node6&#45;&gt;Node11</title>
<path fill="none" stroke="#191970" d="M403.0724,-169.0026C332.1984,-159.105 218.3741,-143.2094 143.0158,-132.6855"/>
<polygon fill="#191970" stroke="#191970" points="143.4935,-129.2183 133.1055,-131.3015 142.5253,-136.1511 143.4935,-129.2183"/>
</g>
<!-- Node15 -->
<g id="node15" class="node">
<title>Node15</title>
<g id="a_node15"><a xlink:href="$_blob_8h.html" xlink:title="uscxml/messages/Blob.h">
<polygon fill="#ffffff" stroke="#000000" points="404,-112.5 404,-131.5 531,-131.5 531,-112.5 404,-112.5"/>
<text text-anchor="middle" x="467.5" y="-119.5" font-family="Helvetica,sans-Serif" font-size="10.00" fill="#000000">uscxml/messages/Blob.h</text>
</a>
</g>
</g>
<!-- Node6&#45;&gt;Node15 -->
<g id="edge16" class="edge">
<title>Node6&#45;&gt;Node15</title>
<path fill="none" stroke="#191970" d="M467.5,-168.2455C467.5,-160.9382 467.5,-150.6944 467.5,-141.7046"/>
<polygon fill="#191970" stroke="#191970" points="471.0001,-141.6426 467.5,-131.6427 464.0001,-141.6427 471.0001,-141.6426"/>
</g>
<!-- Node11&#45;&gt;Node2 -->
<g id="edge12" class="edge">
<title>Node11&#45;&gt;Node2</title>
<path fill="none" stroke="#191970" d="M133.1671,-112.6899C209.7401,-101.9964 334.242,-84.6096 407.7688,-74.3415"/>
<polygon fill="#191970" stroke="#191970" points="408.3753,-77.7909 417.7951,-72.9413 407.4071,-70.8581 408.3753,-77.7909"/>
</g>
<!-- Node12 -->
<g id="node12" class="node">
<title>Node12</title>
<polygon fill="#ffffff" stroke="#bfbfbf" points="180,-56.5 180,-75.5 221,-75.5 221,-56.5 180,-56.5"/>
<text text-anchor="middle" x="200.5" y="-63.5" font-family="Helvetica,sans-Serif" font-size="10.00" fill="#000000">string</text>
</g>
<!-- Node11&#45;&gt;Node12 -->
<g id="edge13" class="edge">
<title>Node11&#45;&gt;Node12</title>
<path fill="none" stroke="#191970" d="M89.5354,-112.3733C111.8965,-103.0283 145.9552,-88.7949 170.4397,-78.5625"/>
<polygon fill="#191970" stroke="#191970" points="172.0819,-81.6696 179.959,-74.5843 169.3827,-75.2109 172.0819,-81.6696"/>
</g>
<!-- Node13 -->
<g id="node13" class="node">
<title>Node13</title>
<polygon fill="#ffffff" stroke="#bfbfbf" points="15,-56.5 15,-75.5 54,-75.5 54,-56.5 15,-56.5"/>
<text text-anchor="middle" x="34.5" y="-63.5" font-family="Helvetica,sans-Serif" font-size="10.00" fill="#000000">limits</text>
</g>
<!-- Node11&#45;&gt;Node13 -->
<g id="edge14" class="edge">
<title>Node11&#45;&gt;Node13</title>
<path fill="none" stroke="#191970" d="M60.926,-112.2455C56.5669,-104.617 50.3789,-93.7881 45.0867,-84.5267"/>
<polygon fill="#191970" stroke="#191970" points="48.0104,-82.5886 40.0101,-75.6427 41.9327,-86.0616 48.0104,-82.5886"/>
</g>
<!-- Node14 -->
<g id="node14" class="node">
<title>Node14</title>
<polygon fill="#ffffff" stroke="#bfbfbf" points="72.5,-56.5 72.5,-75.5 124.5,-75.5 124.5,-56.5 72.5,-56.5"/>
<text text-anchor="middle" x="98.5" y="-63.5" font-family="Helvetica,sans-Serif" font-size="10.00" fill="#000000">sstream</text>
</g>
<!-- Node11&#45;&gt;Node14 -->
<g id="edge15" class="edge">
<title>Node11&#45;&gt;Node14</title>
<path fill="none" stroke="#191970" d="M72.074,-112.2455C76.4331,-104.617 82.6211,-93.7881 87.9133,-84.5267"/>
<polygon fill="#191970" stroke="#191970" points="91.0673,-86.0616 92.9899,-75.6427 84.9896,-82.5886 91.0673,-86.0616"/>
</g>
<!-- Node15&#45;&gt;Node2 -->
<g id="edge19" class="edge">
<title>Node15&#45;&gt;Node2</title>
<path fill="none" stroke="#191970" d="M467.5,-112.2455C467.5,-104.9382 467.5,-94.6944 467.5,-85.7046"/>
<polygon fill="#191970" stroke="#191970" points="471.0001,-85.6426 467.5,-75.6427 464.0001,-85.6427 471.0001,-85.6426"/>
</g>
<!-- Node15&#45;&gt;Node9 -->
<g id="edge18" class="edge">
<title>Node15&#45;&gt;Node9</title>
<path fill="none" stroke="#191970" d="M490.8792,-112.3733C513.0045,-103.2629 546.4134,-89.5062 571.1019,-79.3404"/>
<polygon fill="#191970" stroke="#191970" points="572.5117,-82.5451 580.4258,-75.5011 569.8464,-76.0723 572.5117,-82.5451"/>
</g>
<!-- Node15&#45;&gt;Node12 -->
<g id="edge17" class="edge">
<title>Node15&#45;&gt;Node12</title>
<path fill="none" stroke="#191970" d="M421.9044,-112.4369C367.3474,-100.9942 277.5315,-82.1564 230.8308,-72.3615"/>
<polygon fill="#191970" stroke="#191970" points="231.5141,-68.9287 221.0086,-70.3014 230.0771,-75.7797 231.5141,-68.9287"/>
</g>
<!-- Node16&#45;&gt;Node2 -->
<g id="edge21" class="edge">
<title>Node16&#45;&gt;Node2</title>
<path fill="none" stroke="#191970" d="M246.0956,-112.4369C292.0785,-102.7925 363.1088,-87.8948 412.2606,-77.5858"/>
<polygon fill="#191970" stroke="#191970" points="413.0239,-81.0019 422.0925,-75.5237 411.587,-74.151 413.0239,-81.0019"/>
</g>
<!-- Node16&#45;&gt;Node12 -->
<g id="edge22" class="edge">
<title>Node16&#45;&gt;Node12</title>
<path fill="none" stroke="#191970" d="M200.5,-112.2455C200.5,-104.9382 200.5,-94.6944 200.5,-85.7046"/>
<polygon fill="#191970" stroke="#191970" points="204.0001,-85.6426 200.5,-75.6427 197.0001,-85.6427 204.0001,-85.6426"/>
</g>
</g>
</svg>
