<?xml version="1.0" encoding="UTF-8" standalone="no"?>
<!DOCTYPE svg PUBLIC "-//W3C//DTD SVG 1.1//EN"
 "http://www.w3.org/Graphics/SVG/1.1/DTD/svg11.dtd">
<!-- Generated by graphviz version 2.40.1 (20161225.0304)
 -->
<!-- Title: messages/Event.h Pages: 1 -->
<svg width="639pt" height="252pt"
 viewBox="0.00 0.00 638.91 252.00" xmlns="http://www.w3.org/2000/svg" xmlns:xlink="http://www.w3.org/1999/xlink">
<g id="graph0" class="graph" transform="scale(1 1) rotate(0) translate(4 248)">
<title>messages/Event.h</title>
<polygon fill="#ffffff" stroke="transparent" points="-4,4 -4,-248 634.9138,-248 634.9138,4 -4,4"/>
<!-- Node1 -->
<g id="node1" class="node">
<title>Node1</title>
<polygon fill="#bfbfbf" stroke="#000000" points="268.9138,-224.5 268.9138,-243.5 367.9138,-243.5 367.9138,-224.5 268.9138,-224.5"/>
<text text-anchor="middle" x="318.4138" y="-231.5" font-family="Helvetica,sans-Serif" font-size="10.00" fill="#000000">messages/Event.h</text>
</g>
<!-- Node2 -->
<g id="node2" class="node">
<title>Node2</title>
<g id="a_node2"><a xlink:href="$_data_8h.html" xlink:title="uscxml/messages/Data.h">
<polygon fill="#ffffff" stroke="#000000" points="208.4138,-168.5 208.4138,-187.5 336.4138,-187.5 336.4138,-168.5 208.4138,-168.5"/>
<text text-anchor="middle" x="272.4138" y="-175.5" font-family="Helvetica,sans-Serif" font-size="10.00" fill="#000000">uscxml/messages/Data.h</text>
</a>
</g>
</g>
<!-- Node1&#45;&gt;Node2 -->
<g id="edge1" class="edge">
<title>Node1&#45;&gt;Node2</title>
<path fill="none" stroke="#191970" d="M310.4012,-224.2455C303.937,-216.3761 294.6753,-205.101 286.9154,-195.6542"/>
<polygon fill="#191970" stroke="#191970" points="289.3865,-193.1484 280.3345,-187.6427 283.9774,-197.5916 289.3865,-193.1484"/>
</g>
<!-- Node15 -->
<g id="node15" class="node">
<title>Node15</title>
<g id="a_node15"><a xlink:href="$_u_u_i_d_8h.html" xlink:title="uscxml/util/UUID.h">
<polygon fill="#ffffff" stroke="#000000" points="380.9138,-112.5 380.9138,-131.5 479.9138,-131.5 479.9138,-112.5 380.9138,-112.5"/>
<text text-anchor="middle" x="430.4138" y="-119.5" font-family="Helvetica,sans-Serif" font-size="10.00" fill="#000000">uscxml/util/UUID.h</text>
</a>
</g>
</g>
<!-- Node1&#45;&gt;Node15 -->
<g id="edge18" class="edge">
<title>Node1&#45;&gt;Node15</title>
<path fill="none" stroke="#191970" d="M327.9628,-224.4509C346.9737,-205.4401 389.7714,-162.6423 413.5977,-138.816"/>
<polygon fill="#191970" stroke="#191970" points="416.2927,-141.0709 420.8889,-131.5249 411.3429,-136.1211 416.2927,-141.0709"/>
</g>
<!-- Node3 -->
<g id="node3" class="node">
<title>Node3</title>
<polygon fill="#ffffff" stroke="#bfbfbf" points="159.9138,-112.5 159.9138,-131.5 188.9138,-131.5 188.9138,-112.5 159.9138,-112.5"/>
<text text-anchor="middle" x="174.4138" y="-119.5" font-family="Helvetica,sans-Serif" font-size="10.00" fill="#000000">list</text>
</g>
<!-- Node2&#45;&gt;Node3 -->
<g id="edge2" class="edge">
<title>Node2&#45;&gt;Node3</title>
<path fill="none" stroke="#191970" d="M255.3435,-168.2455C239.519,-159.203 215.825,-145.6636 198.1586,-135.5685"/>
<polygon fill="#191970" stroke="#191970" points="199.4712,-132.2874 189.0523,-130.3649 195.9982,-138.3651 199.4712,-132.2874"/>
</g>
<!-- Node4 -->
<g id="node4" class="node">
<title>Node4</title>
<polygon fill="#ffffff" stroke="#bfbfbf" points="288.4138,-112.5 288.4138,-131.5 324.4138,-131.5 324.4138,-112.5 288.4138,-112.5"/>
<text text-anchor="middle" x="306.4138" y="-119.5" font-family="Helvetica,sans-Serif" font-size="10.00" fill="#000000">map</text>
</g>
<!-- Node2&#45;&gt;Node4 -->
<g id="edge3" class="edge">
<title>Node2&#45;&gt;Node4</title>
<path fill="none" stroke="#191970" d="M278.3361,-168.2455C283.0165,-160.5367 289.681,-149.5598 295.3426,-140.2348"/>
<polygon fill="#191970" stroke="#191970" points="298.3612,-142.007 300.5593,-131.6427 292.3777,-138.3741 298.3612,-142.007"/>
</g>
<!-- Node5 -->
<g id="node5" class="node">
<title>Node5</title>
<polygon fill="#ffffff" stroke="#bfbfbf" points="5.9138,-56.5 5.9138,-75.5 58.9138,-75.5 58.9138,-56.5 5.9138,-56.5"/>
<text text-anchor="middle" x="32.4138" y="-63.5" font-family="Helvetica,sans-Serif" font-size="10.00" fill="#000000">memory</text>
</g>
<!-- Node2&#45;&gt;Node5 -->
<g id="edge4" class="edge">
<title>Node2&#45;&gt;Node5</title>
<path fill="none" stroke="#191970" d="M208.2673,-171.2773C133.4836,-162.7816 18.3883,-147.401 5.4138,-132 -6.4548,-117.9118 4.5952,-97.9035 15.9311,-83.6166"/>
<polygon fill="#191970" stroke="#191970" points="18.6405,-85.8334 22.4674,-75.9539 13.3148,-81.2906 18.6405,-85.8334"/>
</g>
<!-- Node6 -->
<g id="node6" class="node">
<title>Node6</title>
<polygon fill="#ffffff" stroke="#bfbfbf" points="206.9138,-112.5 206.9138,-131.5 269.9138,-131.5 269.9138,-112.5 206.9138,-112.5"/>
<text text-anchor="middle" x="238.4138" y="-119.5" font-family="Helvetica,sans-Serif" font-size="10.00" fill="#000000">type_traits</text>
</g>
<!-- Node2&#45;&gt;Node6 -->
<g id="edge5" class="edge">
<title>Node2&#45;&gt;Node6</title>
<path fill="none" stroke="#191970" d="M266.4914,-168.2455C261.8111,-160.5367 255.1465,-149.5598 249.4849,-140.2348"/>
<polygon fill="#191970" stroke="#191970" points="252.4499,-138.3741 244.2683,-131.6427 246.4663,-142.007 252.4499,-138.3741"/>
</g>
<!-- Node7 -->
<g id="node7" class="node">
<title>Node7</title>
<g id="a_node7"><a xlink:href="$_common_8h.html" xlink:title="uscxml/Common.h">
<polygon fill="#ffffff" stroke="#000000" points="302.9138,-56.5 302.9138,-75.5 401.9138,-75.5 401.9138,-56.5 302.9138,-56.5"/>
<text text-anchor="middle" x="352.4138" y="-63.5" font-family="Helvetica,sans-Serif" font-size="10.00" fill="#000000">uscxml/Common.h</text>
</a>
</g>
</g>
<!-- Node2&#45;&gt;Node7 -->
<g id="edge6" class="edge">
<title>Node2&#45;&gt;Node7</title>
<path fill="none" stroke="#191970" d="M290.7261,-168.4926C304.3925,-160.4993 322.5147,-147.8464 333.4138,-132 342.9043,-118.2015 347.7002,-99.6772 350.0961,-85.7662"/>
<polygon fill="#191970" stroke="#191970" points="353.5731,-86.1765 351.5468,-75.7773 346.6458,-85.1704 353.5731,-86.1765"/>
</g>
<!-- Node10 -->
<g id="node10" class="node">
<title>Node10</title>
<g id="a_node10"><a xlink:href="$_convenience_8h.html" xlink:title="uscxml/util/Convenience.h">
<polygon fill="#ffffff" stroke="#000000" points="497.9138,-112.5 497.9138,-131.5 630.9138,-131.5 630.9138,-112.5 497.9138,-112.5"/>
<text text-anchor="middle" x="564.4138" y="-119.5" font-family="Helvetica,sans-Serif" font-size="10.00" fill="#000000">uscxml/util/Convenience.h</text>
</a>
</g>
</g>
<!-- Node2&#45;&gt;Node10 -->
<g id="edge9" class="edge">
<title>Node2&#45;&gt;Node10</title>
<path fill="none" stroke="#191970" d="M322.2786,-168.4369C372.7771,-158.7522 450.8973,-143.7703 504.6743,-133.4569"/>
<polygon fill="#191970" stroke="#191970" points="505.5929,-136.8446 514.7546,-131.5237 504.2744,-129.9699 505.5929,-136.8446"/>
</g>
<!-- Node14 -->
<g id="node14" class="node">
<title>Node14</title>
<g id="a_node14"><a xlink:href="$_blob_8h.html" xlink:title="uscxml/messages/Blob.h">
<polygon fill="#ffffff" stroke="#000000" points="14.9138,-112.5 14.9138,-131.5 141.9138,-131.5 141.9138,-112.5 14.9138,-112.5"/>
<text text-anchor="middle" x="78.4138" y="-119.5" font-family="Helvetica,sans-Serif" font-size="10.00" fill="#000000">uscxml/messages/Blob.h</text>
</a>
</g>
</g>
<!-- Node2&#45;&gt;Node14 -->
<g id="edge14" class="edge">
<title>Node2&#45;&gt;Node14</title>
<path fill="none" stroke="#191970" d="M239.064,-168.3733C206.3858,-158.9404 156.452,-144.5265 120.9368,-134.2747"/>
<polygon fill="#191970" stroke="#191970" points="121.9068,-130.9119 111.3284,-131.5011 119.9654,-137.6373 121.9068,-130.9119"/>
</g>
<!-- Node8 -->
<g id="node8" class="node">
<title>Node8</title>
<polygon fill="#ffffff" stroke="#bfbfbf" points="278.4138,-.5 278.4138,-19.5 350.4138,-19.5 350.4138,-.5 278.4138,-.5"/>
<text text-anchor="middle" x="314.4138" y="-7.5" font-family="Helvetica,sans-Serif" font-size="10.00" fill="#000000">sys/socket.h</text>
</g>
<!-- Node7&#45;&gt;Node8 -->
<g id="edge7" class="edge">
<title>Node7&#45;&gt;Node8</title>
<path fill="none" stroke="#191970" d="M345.7947,-56.2455C340.5092,-48.4564 332.9597,-37.3308 326.59,-27.9439"/>
<polygon fill="#191970" stroke="#191970" points="329.4683,-25.9522 320.957,-19.6427 323.6759,-29.8827 329.4683,-25.9522"/>
</g>
<!-- Node9 -->
<g id="node9" class="node">
<title>Node9</title>
<polygon fill="#ffffff" stroke="#bfbfbf" points="368.4138,-.5 368.4138,-19.5 412.4138,-19.5 412.4138,-.5 368.4138,-.5"/>
<text text-anchor="middle" x="390.4138" y="-7.5" font-family="Helvetica,sans-Serif" font-size="10.00" fill="#000000">cmath</text>
</g>
<!-- Node7&#45;&gt;Node9 -->
<g id="edge8" class="edge">
<title>Node7&#45;&gt;Node9</title>
<path fill="none" stroke="#191970" d="M359.0329,-56.2455C364.3184,-48.4564 371.8679,-37.3308 378.2375,-27.9439"/>
<polygon fill="#191970" stroke="#191970" points="381.1517,-29.8827 383.8705,-19.6427 375.3593,-25.9522 381.1517,-29.8827"/>
</g>
<!-- Node10&#45;&gt;Node7 -->
<g id="edge10" class="edge">
<title>Node10&#45;&gt;Node7</title>
<path fill="none" stroke="#191970" d="M527.9697,-112.3733C492.1069,-102.9001 437.2259,-88.4032 398.3856,-78.1435"/>
<polygon fill="#191970" stroke="#191970" points="398.9446,-74.6712 388.3823,-75.5011 397.1568,-81.439 398.9446,-74.6712"/>
</g>
<!-- Node11 -->
<g id="node11" class="node">
<title>Node11</title>
<polygon fill="#ffffff" stroke="#bfbfbf" points="419.9138,-56.5 419.9138,-75.5 460.9138,-75.5 460.9138,-56.5 419.9138,-56.5"/>
<text text-anchor="middle" x="440.4138" y="-63.5" font-family="Helvetica,sans-Serif" font-size="10.00" fill="#000000">string</text>
</g>
<!-- Node10&#45;&gt;Node11 -->
<g id="edge11" class="edge">
<title>Node10&#45;&gt;Node11</title>
<path fill="none" stroke="#191970" d="M543.0974,-112.3733C523.0716,-103.3293 492.9071,-89.7067 470.447,-79.5634"/>
<polygon fill="#191970" stroke="#191970" points="471.5942,-76.2412 461.0399,-75.315 468.7131,-82.6208 471.5942,-76.2412"/>
</g>
<!-- Node12 -->
<g id="node12" class="node">
<title>Node12</title>
<polygon fill="#ffffff" stroke="#bfbfbf" points="578.9138,-56.5 578.9138,-75.5 617.9138,-75.5 617.9138,-56.5 578.9138,-56.5"/>
<text text-anchor="middle" x="598.4138" y="-63.5" font-family="Helvetica,sans-Serif" font-size="10.00" fill="#000000">limits</text>
</g>
<!-- Node10&#45;&gt;Node12 -->
<g id="edge12" class="edge">
<title>Node10&#45;&gt;Node12</title>
<path fill="none" stroke="#191970" d="M570.3361,-112.2455C575.0165,-104.5367 581.681,-93.5598 587.3426,-84.2348"/>
<polygon fill="#191970" stroke="#191970" points="590.3612,-86.007 592.5593,-75.6427 584.3777,-82.3741 590.3612,-86.007"/>
</g>
<!-- Node13 -->
<g id="node13" class="node">
<title>Node13</title>
<polygon fill="#ffffff" stroke="#bfbfbf" points="508.4138,-56.5 508.4138,-75.5 560.4138,-75.5 560.4138,-56.5 508.4138,-56.5"/>
<text text-anchor="middle" x="534.4138" y="-63.5" font-family="Helvetica,sans-Serif" font-size="10.00" fill="#000000">sstream</text>
</g>
<!-- Node10&#45;&gt;Node13 -->
<g id="edge13" class="edge">
<title>Node10&#45;&gt;Node13</title>
<path fill="none" stroke="#191970" d="M559.1882,-112.2455C555.1015,-104.617 549.3003,-93.7881 544.3388,-84.5267"/>
<polygon fill="#191970" stroke="#191970" points="547.387,-82.8047 539.5795,-75.6427 541.2166,-86.1103 547.387,-82.8047"/>
</g>
<!-- Node14&#45;&gt;Node5 -->
<g id="edge16" class="edge">
<title>Node14&#45;&gt;Node5</title>
<path fill="none" stroke="#191970" d="M70.4012,-112.2455C63.937,-104.3761 54.6753,-93.101 46.9154,-83.6542"/>
<polygon fill="#191970" stroke="#191970" points="49.3865,-81.1484 40.3345,-75.6427 43.9774,-85.5916 49.3865,-81.1484"/>
</g>
<!-- Node14&#45;&gt;Node7 -->
<g id="edge17" class="edge">
<title>Node14&#45;&gt;Node7</title>
<path fill="none" stroke="#191970" d="M125.2047,-112.4369C172.3933,-102.7925 245.2857,-87.8948 295.7262,-77.5858"/>
<polygon fill="#191970" stroke="#191970" points="296.7192,-80.9553 305.8158,-75.5237 295.3175,-74.097 296.7192,-80.9553"/>
</g>
<!-- Node14&#45;&gt;Node11 -->
<g id="edge15" class="edge">
<title>Node14&#45;&gt;Node11</title>
<path fill="none" stroke="#191970" d="M142.0168,-113.1648C144.8546,-112.771 147.6637,-112.3814 150.4138,-112 262.8063,-96.4139 295.0684,-102.2147 410.0069,-75.7053"/>
<polygon fill="#191970" stroke="#191970" points="410.9599,-79.0769 419.9002,-73.3917 409.3659,-72.2608 410.9599,-79.0769"/>
</g>
<!-- Node15&#45;&gt;Node7 -->
<g id="edge19" class="edge">
<title>Node15&#45;&gt;Node7</title>
<path fill="none" stroke="#191970" d="M416.8272,-112.2455C405.0833,-103.814 387.8939,-91.4729 374.2256,-81.6598"/>
<polygon fill="#191970" stroke="#191970" points="376.0091,-78.6316 365.8446,-75.6427 371.9267,-84.3179 376.0091,-78.6316"/>
</g>
<!-- Node15&#45;&gt;Node11 -->
<g id="edge20" class="edge">
<title>Node15&#45;&gt;Node11</title>
<path fill="none" stroke="#191970" d="M432.1556,-112.2455C433.4605,-104.9382 435.2898,-94.6944 436.8951,-85.7046"/>
<polygon fill="#191970" stroke="#191970" points="440.3794,-86.1022 438.6919,-75.6427 433.4884,-84.8717 440.3794,-86.1022"/>
</g>
</g>
</svg>
