<?xml version="1.0" encoding="UTF-8" standalone="no"?>
<!DOCTYPE svg PUBLIC "-//W3C//DTD SVG 1.1//EN"
 "http://www.w3.org/Graphics/SVG/1.1/DTD/svg11.dtd">
<!-- Generated by graphviz version 2.40.1 (20161225.0304)
 -->
<!-- Title: interpreter/EventQueueImpl.h Pages: 1 -->
<svg width="1677pt" height="341pt"
 viewBox="0.00 0.00 1677.00 341.00" xmlns="http://www.w3.org/2000/svg" xmlns:xlink="http://www.w3.org/1999/xlink">
<g id="graph0" class="graph" transform="scale(1 1) rotate(0) translate(4 337)">
<title>interpreter/EventQueueImpl.h</title>
<polygon fill="#ffffff" stroke="transparent" points="-4,4 -4,-337 1673,-337 1673,4 -4,4"/>
<!-- Node19 -->
<g id="node1" class="node">
<title>Node19</title>
<polygon fill="#bfbfbf" stroke="#000000" points="710,-313.5 710,-332.5 858,-332.5 858,-313.5 710,-313.5"/>
<text text-anchor="middle" x="784" y="-320.5" font-family="Helvetica,sans-Serif" font-size="10.00" fill="#000000">interpreter/EventQueueImpl.h</text>
</g>
<!-- Node20 -->
<g id="node2" class="node">
<title>Node20</title>
<g id="a_node2"><a xlink:href="_basic_event_queue_8h.html" target="_top" xlink:title="interpreter/BasicEventQueue.h">
<polygon fill="#ffffff" stroke="#000000" points="259.5,-257.5 259.5,-276.5 412.5,-276.5 412.5,-257.5 259.5,-257.5"/>
<text text-anchor="middle" x="336" y="-264.5" font-family="Helvetica,sans-Serif" font-size="10.00" fill="#000000">interpreter/BasicEventQueue.h</text>
</a>
</g>
</g>
<!-- Node19&#45;&gt;Node20 -->
<g id="edge1" class="edge">
<title>Node19&#45;&gt;Node20</title>
<path fill="none" stroke="#191970" d="M699.6508,-312.4563C616.9618,-302.1202 492.0334,-286.5042 412.2484,-276.531"/>
<polygon fill="#191970" stroke="#191970" points="699.4137,-315.9539 709.7706,-313.7213 700.282,-309.0079 699.4137,-315.9539"/>
</g>
<!-- Node27 -->
<g id="node9" class="node">
<title>Node27</title>
<g id="a_node9"><a xlink:href="_event_queue_8cpp.html" target="_top" xlink:title="interpreter/EventQueue.cpp">
<polygon fill="#ffffff" stroke="#000000" points="871.5,-257.5 871.5,-276.5 1010.5,-276.5 1010.5,-257.5 871.5,-257.5"/>
<text text-anchor="middle" x="941" y="-264.5" font-family="Helvetica,sans-Serif" font-size="10.00" fill="#000000">interpreter/EventQueue.cpp</text>
</a>
</g>
</g>
<!-- Node19&#45;&gt;Node27 -->
<g id="edge9" class="edge">
<title>Node19&#45;&gt;Node27</title>
<path fill="none" stroke="#191970" d="M820.6619,-309.9231C849.3624,-299.686 888.6044,-285.6889 914.3629,-276.5011"/>
<polygon fill="#191970" stroke="#191970" points="819.2322,-306.7171 810.9893,-313.3733 821.5839,-313.3102 819.2322,-306.7171"/>
</g>
<!-- Node28 -->
<g id="node10" class="node">
<title>Node28</title>
<g id="a_node10"><a xlink:href="_interpreter_impl_8h.html" target="_top" xlink:title="interpreter/InterpreterImpl.h">
<polygon fill="#ffffff" stroke="#000000" points="715,-257.5 715,-276.5 853,-276.5 853,-257.5 715,-257.5"/>
<text text-anchor="middle" x="784" y="-264.5" font-family="Helvetica,sans-Serif" font-size="10.00" fill="#000000">interpreter/InterpreterImpl.h</text>
</a>
</g>
</g>
<!-- Node19&#45;&gt;Node28 -->
<g id="edge10" class="edge">
<title>Node19&#45;&gt;Node28</title>
<path fill="none" stroke="#191970" d="M784,-303.1575C784,-294.155 784,-283.9199 784,-276.6427"/>
<polygon fill="#191970" stroke="#191970" points="780.5001,-303.2455 784,-313.2455 787.5001,-303.2456 780.5001,-303.2455"/>
</g>
<!-- Node21 -->
<g id="node3" class="node">
<title>Node21</title>
<g id="a_node3"><a xlink:href="_basic_delayed_event_queue_8h.html" target="_top" xlink:title="interpreter/BasicDelayed\lEventQueue.h">
<polygon fill="#ffffff" stroke="#000000" points="0,-190.5 0,-220.5 126,-220.5 126,-190.5 0,-190.5"/>
<text text-anchor="start" x="8" y="-208.5" font-family="Helvetica,sans-Serif" font-size="10.00" fill="#000000">interpreter/BasicDelayed</text>
<text text-anchor="middle" x="63" y="-197.5" font-family="Helvetica,sans-Serif" font-size="10.00" fill="#000000">EventQueue.h</text>
</a>
</g>
</g>
<!-- Node20&#45;&gt;Node21 -->
<g id="edge2" class="edge">
<title>Node20&#45;&gt;Node21</title>
<path fill="none" stroke="#191970" d="M283.8055,-255.2419C238.8597,-245.1168 173.8705,-230.4763 126.0311,-219.6993"/>
<polygon fill="#191970" stroke="#191970" points="283.1185,-258.6748 293.6433,-257.4581 284.657,-251.8459 283.1185,-258.6748"/>
</g>
<!-- Node23 -->
<g id="node5" class="node">
<title>Node23</title>
<g id="a_node5"><a xlink:href="_interpreter_impl_8cpp.html" target="_top" xlink:title="interpreter/InterpreterImpl.cpp">
<polygon fill="#ffffff" stroke="#000000" points="206.5,-129 206.5,-148 355.5,-148 355.5,-129 206.5,-129"/>
<text text-anchor="middle" x="281" y="-136" font-family="Helvetica,sans-Serif" font-size="10.00" fill="#000000">interpreter/InterpreterImpl.cpp</text>
</a>
</g>
</g>
<!-- Node20&#45;&gt;Node23 -->
<g id="edge6" class="edge">
<title>Node20&#45;&gt;Node23</title>
<path fill="none" stroke="#191970" d="M333.1631,-247.1175C330.4048,-231.164 325.3786,-208.4638 317,-190 309.7874,-174.1057 297.5281,-157.9621 289.3478,-148.0895"/>
<polygon fill="#191970" stroke="#191970" points="329.7676,-248.0538 334.7862,-257.3846 336.6817,-246.9607 329.7676,-248.0538"/>
</g>
<!-- Node24 -->
<g id="node6" class="node">
<title>Node24</title>
<g id="a_node6"><a xlink:href="_basic_event_queue_8cpp.html" target="_top" xlink:title="interpreter/BasicEventQueue.cpp">
<polygon fill="#ffffff" stroke="#000000" points="144,-196 144,-215 308,-215 308,-196 144,-196"/>
<text text-anchor="middle" x="226" y="-203" font-family="Helvetica,sans-Serif" font-size="10.00" fill="#000000">interpreter/BasicEventQueue.cpp</text>
</a>
</g>
</g>
<!-- Node20&#45;&gt;Node24 -->
<g id="edge5" class="edge">
<title>Node20&#45;&gt;Node24</title>
<path fill="none" stroke="#191970" d="M309.913,-252.415C289.2358,-240.8546 260.9407,-225.035 243.0668,-215.0419"/>
<polygon fill="#191970" stroke="#191970" points="308.376,-255.5655 318.8125,-257.3906 311.7921,-249.4556 308.376,-255.5655"/>
</g>
<!-- Node25 -->
<g id="node7" class="node">
<title>Node25</title>
<g id="a_node7"><a xlink:href="_u_s_c_x_m_l_invoker_8h.html" target="_top" xlink:title="plugins/invoker/scxml\l/USCXMLInvoker.h">
<polygon fill="#ffffff" stroke="#000000" points="364,-190.5 364,-220.5 476,-220.5 476,-190.5 364,-190.5"/>
<text text-anchor="start" x="372" y="-208.5" font-family="Helvetica,sans-Serif" font-size="10.00" fill="#000000">plugins/invoker/scxml</text>
<text text-anchor="middle" x="420" y="-197.5" font-family="Helvetica,sans-Serif" font-size="10.00" fill="#000000">/USCXMLInvoker.h</text>
</a>
</g>
</g>
<!-- Node20&#45;&gt;Node25 -->
<g id="edge7" class="edge">
<title>Node20&#45;&gt;Node25</title>
<path fill="none" stroke="#191970" d="M357.4277,-251.3119C370.3408,-241.8577 386.6992,-229.8809 399.4513,-220.5446"/>
<polygon fill="#191970" stroke="#191970" points="355.126,-248.6592 349.125,-257.3906 359.2612,-254.3072 355.126,-248.6592"/>
</g>
<!-- Node22 -->
<g id="node4" class="node">
<title>Node22</title>
<g id="a_node4"><a xlink:href="_basic_delayed_event_queue_8cpp.html" target="_top" xlink:title="interpreter/BasicDelayed\lEventQueue.cpp">
<polygon fill="#ffffff" stroke="#000000" points="0,-123.5 0,-153.5 126,-153.5 126,-123.5 0,-123.5"/>
<text text-anchor="start" x="8" y="-141.5" font-family="Helvetica,sans-Serif" font-size="10.00" fill="#000000">interpreter/BasicDelayed</text>
<text text-anchor="middle" x="63" y="-130.5" font-family="Helvetica,sans-Serif" font-size="10.00" fill="#000000">EventQueue.cpp</text>
</a>
</g>
</g>
<!-- Node21&#45;&gt;Node22 -->
<g id="edge3" class="edge">
<title>Node21&#45;&gt;Node22</title>
<path fill="none" stroke="#191970" d="M63,-180.0249C63,-171.128 63,-161.4287 63,-153.6432"/>
<polygon fill="#191970" stroke="#191970" points="59.5001,-180.2966 63,-190.2967 66.5001,-180.2967 59.5001,-180.2966"/>
</g>
<!-- Node21&#45;&gt;Node23 -->
<g id="edge4" class="edge">
<title>Node21&#45;&gt;Node23</title>
<path fill="none" stroke="#191970" d="M121.6162,-187.4849C162.983,-174.7713 216.7626,-158.2427 250.0724,-148.0053"/>
<polygon fill="#191970" stroke="#191970" points="120.454,-184.1805 111.9235,-190.4639 122.5104,-190.8716 120.454,-184.1805"/>
</g>
<!-- Node26 -->
<g id="node8" class="node">
<title>Node26</title>
<g id="a_node8"><a xlink:href="_u_s_c_x_m_l_invoker_8cpp.html" target="_top" xlink:title="plugins/invoker/scxml\l/USCXMLInvoker.cpp">
<polygon fill="#ffffff" stroke="#000000" points="373.5,-123.5 373.5,-153.5 486.5,-153.5 486.5,-123.5 373.5,-123.5"/>
<text text-anchor="start" x="381.5" y="-141.5" font-family="Helvetica,sans-Serif" font-size="10.00" fill="#000000">plugins/invoker/scxml</text>
<text text-anchor="middle" x="430" y="-130.5" font-family="Helvetica,sans-Serif" font-size="10.00" fill="#000000">/USCXMLInvoker.cpp</text>
</a>
</g>
</g>
<!-- Node25&#45;&gt;Node26 -->
<g id="edge8" class="edge">
<title>Node25&#45;&gt;Node26</title>
<path fill="none" stroke="#191970" d="M423.7585,-180.3179C425.0983,-171.3414 426.565,-161.5143 427.7398,-153.6432"/>
<polygon fill="#191970" stroke="#191970" points="420.2838,-179.8895 422.2692,-190.2967 427.2071,-180.9229 420.2838,-179.8895"/>
</g>
<!-- Node28&#45;&gt;Node23 -->
<g id="edge18" class="edge">
<title>Node28&#45;&gt;Node23</title>
<path fill="none" stroke="#191970" d="M704.7485,-257.4991C640.1673,-248.9382 554.6687,-235.4999 523,-221 503.1826,-211.9263 504.4739,-199.7892 485,-190 457.9118,-176.3833 380.1775,-158.7715 328.8685,-148.0712"/>
<polygon fill="#191970" stroke="#191970" points="704.5527,-261.0032 714.9223,-258.8306 705.4611,-254.0624 704.5527,-261.0032"/>
</g>
<!-- Node28&#45;&gt;Node25 -->
<g id="edge20" class="edge">
<title>Node28&#45;&gt;Node25</title>
<path fill="none" stroke="#191970" d="M705.1283,-256.0301C645.7993,-247.4463 562.5848,-234.7006 490,-221 485.4745,-220.1458 480.7949,-219.2147 476.1002,-218.2468"/>
<polygon fill="#191970" stroke="#191970" points="704.7818,-259.5162 715.1786,-257.4774 705.7796,-252.5877 704.7818,-259.5162"/>
</g>
<!-- Node29 -->
<g id="node11" class="node">
<title>Node29</title>
<g id="a_node11"><a xlink:href="_breakpoint_8cpp.html" target="_top" xlink:title="debug/Breakpoint.cpp">
<polygon fill="#ffffff" stroke="#000000" points="1120,-196 1120,-215 1234,-215 1234,-196 1120,-196"/>
<text text-anchor="middle" x="1177" y="-203" font-family="Helvetica,sans-Serif" font-size="10.00" fill="#000000">debug/Breakpoint.cpp</text>
</a>
</g>
</g>
<!-- Node28&#45;&gt;Node29 -->
<g id="edge11" class="edge">
<title>Node28&#45;&gt;Node29</title>
<path fill="none" stroke="#191970" d="M863.2806,-256.6214C944.1677,-245.887 1064.1256,-229.5261 1110,-221 1119.2731,-219.2765 1129.2034,-217.1407 1138.5022,-215.0111"/>
<polygon fill="#191970" stroke="#191970" points="862.579,-253.1836 853.1253,-257.9667 863.4983,-260.123 862.579,-253.1836"/>
</g>
<!-- Node30 -->
<g id="node12" class="node">
<title>Node30</title>
<g id="a_node12"><a xlink:href="_debugger_8h.html" target="_top" xlink:title="debug/Debugger.h">
<polygon fill="#ffffff" stroke="#000000" points="807.5,-196 807.5,-215 906.5,-215 906.5,-196 807.5,-196"/>
<text text-anchor="middle" x="857" y="-203" font-family="Helvetica,sans-Serif" font-size="10.00" fill="#000000">debug/Debugger.h</text>
</a>
</g>
</g>
<!-- Node28&#45;&gt;Node30 -->
<g id="edge12" class="edge">
<title>Node28&#45;&gt;Node30</title>
<path fill="none" stroke="#191970" d="M803.1471,-250.8692C816.5739,-239.5576 834.0837,-224.8062 845.4329,-215.2449"/>
<polygon fill="#191970" stroke="#191970" points="800.799,-248.2709 795.4063,-257.3906 805.3091,-253.6243 800.799,-248.2709"/>
</g>
<!-- Node35 -->
<g id="node17" class="node">
<title>Node35</title>
<g id="a_node17"><a xlink:href="_interpreter_issue_8cpp.html" target="_top" xlink:title="debug/InterpreterIssue.cpp">
<polygon fill="#ffffff" stroke="#000000" points="1394,-196 1394,-215 1530,-215 1530,-196 1394,-196"/>
<text text-anchor="middle" x="1462" y="-203" font-family="Helvetica,sans-Serif" font-size="10.00" fill="#000000">debug/InterpreterIssue.cpp</text>
</a>
</g>
</g>
<!-- Node28&#45;&gt;Node35 -->
<g id="edge17" class="edge">
<title>Node28&#45;&gt;Node35</title>
<path fill="none" stroke="#191970" d="M863.4108,-256.9178C1095.6133,-234.6724 1157.3542,-251.6153 1385,-221 1396.3522,-219.4733 1408.5448,-217.2796 1419.8041,-215.0211"/>
<polygon fill="#191970" stroke="#191970" points="862.9129,-253.4496 853.2985,-257.9008 863.5903,-260.4167 862.9129,-253.4496"/>
</g>
<!-- Node36 -->
<g id="node18" class="node">
<title>Node36</title>
<g id="a_node18"><a xlink:href="_interpreter_8cpp.html" target="_top" xlink:title="Interpreter.cpp">
<polygon fill="#ffffff" stroke="#000000" points="532,-196 532,-215 614,-215 614,-196 532,-196"/>
<text text-anchor="middle" x="573" y="-203" font-family="Helvetica,sans-Serif" font-size="10.00" fill="#000000">Interpreter.cpp</text>
</a>
</g>
</g>
<!-- Node28&#45;&gt;Node36 -->
<g id="edge19" class="edge">
<title>Node28&#45;&gt;Node36</title>
<path fill="none" stroke="#191970" d="M740.0724,-254.7346C707.6617,-245.6156 662.5141,-232.768 623,-221 616.6417,-219.1064 609.8439,-217.0324 603.3743,-215.0348"/>
<polygon fill="#191970" stroke="#191970" points="739.1277,-258.1047 749.7017,-257.4396 741.0209,-251.3655 739.1277,-258.1047"/>
</g>
<!-- Node37 -->
<g id="node19" class="node">
<title>Node37</title>
<g id="a_node19"><a xlink:href="_basic_h_t_t_p_i_o_processor_8h.html" target="_top" xlink:title="plugins/ioprocessor\l/basichttp/BasicHTTPIOProcessor.h">
<polygon fill="#ffffff" stroke="#000000" points="924.5,-190.5 924.5,-220.5 1101.5,-220.5 1101.5,-190.5 924.5,-190.5"/>
<text text-anchor="start" x="932.5" y="-208.5" font-family="Helvetica,sans-Serif" font-size="10.00" fill="#000000">plugins/ioprocessor</text>
<text text-anchor="middle" x="1013" y="-197.5" font-family="Helvetica,sans-Serif" font-size="10.00" fill="#000000">/basichttp/BasicHTTPIOProcessor.h</text>
</a>
</g>
</g>
<!-- Node28&#45;&gt;Node37 -->
<g id="edge21" class="edge">
<title>Node28&#45;&gt;Node37</title>
<path fill="none" stroke="#191970" d="M829.6925,-254.7289C866.3167,-244.8931 917.8702,-231.048 956.9803,-220.5446"/>
<polygon fill="#191970" stroke="#191970" points="828.5312,-251.4166 819.7813,-257.3906 830.3469,-258.1771 828.5312,-251.4166"/>
</g>
<!-- Node39 -->
<g id="node21" class="node">
<title>Node39</title>
<g id="a_node21"><a xlink:href="_s_c_x_m_l_i_o_processor_8cpp.html" target="_top" xlink:title="plugins/ioprocessor\l/scxml/SCXMLIOProcessor.cpp">
<polygon fill="#ffffff" stroke="#000000" points="632.5,-190.5 632.5,-220.5 789.5,-220.5 789.5,-190.5 632.5,-190.5"/>
<text text-anchor="start" x="640.5" y="-208.5" font-family="Helvetica,sans-Serif" font-size="10.00" fill="#000000">plugins/ioprocessor</text>
<text text-anchor="middle" x="711" y="-197.5" font-family="Helvetica,sans-Serif" font-size="10.00" fill="#000000">/scxml/SCXMLIOProcessor.cpp</text>
</a>
</g>
</g>
<!-- Node28&#45;&gt;Node39 -->
<g id="edge23" class="edge">
<title>Node28&#45;&gt;Node39</title>
<path fill="none" stroke="#191970" d="M764.7276,-250.7637C753.6106,-241.398 739.7268,-229.7014 728.8578,-220.5446"/>
<polygon fill="#191970" stroke="#191970" points="762.6909,-253.6243 772.5938,-257.3906 767.201,-248.2709 762.6909,-253.6243"/>
</g>
<!-- Node40 -->
<g id="node22" class="node">
<title>Node40</title>
<g id="a_node22"><a xlink:href="_transformer_8h.html" target="_top" xlink:title="transform/Transformer.h">
<polygon fill="#ffffff" stroke="#000000" points="1252,-196 1252,-215 1376,-215 1376,-196 1252,-196"/>
<text text-anchor="middle" x="1314" y="-203" font-family="Helvetica,sans-Serif" font-size="10.00" fill="#000000">transform/Transformer.h</text>
</a>
</g>
</g>
<!-- Node28&#45;&gt;Node40 -->
<g id="edge24" class="edge">
<title>Node28&#45;&gt;Node40</title>
<path fill="none" stroke="#191970" d="M863.3182,-256.8919C1032.7603,-238.513 1078.1407,-246.6877 1243,-221 1253.2223,-219.4072 1264.1806,-217.2445 1274.3545,-215.0404"/>
<polygon fill="#191970" stroke="#191970" points="862.8656,-253.4204 853.3081,-257.9927 863.6308,-260.3785 862.8656,-253.4204"/>
</g>
<!-- Node31 -->
<g id="node13" class="node">
<title>Node31</title>
<g id="a_node13"><a xlink:href="_debugger_8cpp.html" target="_top" xlink:title="debug/Debugger.cpp">
<polygon fill="#ffffff" stroke="#000000" points="521,-129 521,-148 631,-148 631,-129 521,-129"/>
<text text-anchor="middle" x="576" y="-136" font-family="Helvetica,sans-Serif" font-size="10.00" fill="#000000">debug/Debugger.cpp</text>
</a>
</g>
</g>
<!-- Node30&#45;&gt;Node31 -->
<g id="edge13" class="edge">
<title>Node30&#45;&gt;Node31</title>
<path fill="none" stroke="#191970" d="M811.5501,-193.3995C806.9778,-192.2303 802.4004,-191.079 798,-190 728.0503,-172.8477 710.1119,-170.4767 640,-154 631.8757,-152.0907 623.1807,-150.01 614.9011,-148.0108"/>
<polygon fill="#191970" stroke="#191970" points="810.9232,-196.8524 821.4809,-195.9667 812.6752,-190.0752 810.9232,-196.8524"/>
</g>
<!-- Node32 -->
<g id="node14" class="node">
<title>Node32</title>
<g id="a_node14"><a xlink:href="_debugger_servlet_8h.html" target="_top" xlink:title="debug/DebuggerServlet.h">
<polygon fill="#ffffff" stroke="#000000" points="649,-129 649,-148 779,-148 779,-129 649,-129"/>
<text text-anchor="middle" x="714" y="-136" font-family="Helvetica,sans-Serif" font-size="10.00" fill="#000000">debug/DebuggerServlet.h</text>
</a>
</g>
</g>
<!-- Node30&#45;&gt;Node32 -->
<g id="edge14" class="edge">
<title>Node30&#45;&gt;Node32</title>
<path fill="none" stroke="#191970" d="M827.2735,-191.5722C799.4917,-178.5555 758.7505,-159.467 734.4504,-148.0817"/>
<polygon fill="#191970" stroke="#191970" points="825.9713,-194.8271 836.5116,-195.9005 828.9412,-188.4884 825.9713,-194.8271"/>
</g>
<!-- Node34 -->
<g id="node16" class="node">
<title>Node34</title>
<g id="a_node16"><a xlink:href="_debug_session_8cpp.html" target="_top" xlink:title="debug/DebugSession.cpp">
<polygon fill="#ffffff" stroke="#000000" points="797.5,-129 797.5,-148 928.5,-148 928.5,-129 797.5,-129"/>
<text text-anchor="middle" x="863" y="-136" font-family="Helvetica,sans-Serif" font-size="10.00" fill="#000000">debug/DebugSession.cpp</text>
</a>
</g>
</g>
<!-- Node30&#45;&gt;Node34 -->
<g id="edge16" class="edge">
<title>Node30&#45;&gt;Node34</title>
<path fill="none" stroke="#191970" d="M858.7814,-185.6079C859.8913,-173.214 861.2693,-157.8263 862.1419,-148.0817"/>
<polygon fill="#191970" stroke="#191970" points="855.2656,-185.6282 857.8597,-195.9005 862.2377,-186.2526 855.2656,-185.6282"/>
</g>
<!-- Node33 -->
<g id="node15" class="node">
<title>Node33</title>
<g id="a_node15"><a xlink:href="_debugger_servlet_8cpp.html" target="_top" xlink:title="debug/DebuggerServlet.cpp">
<polygon fill="#ffffff" stroke="#000000" points="643.5,-67.5 643.5,-86.5 784.5,-86.5 784.5,-67.5 643.5,-67.5"/>
<text text-anchor="middle" x="714" y="-74.5" font-family="Helvetica,sans-Serif" font-size="10.00" fill="#000000">debug/DebuggerServlet.cpp</text>
</a>
</g>
</g>
<!-- Node32&#45;&gt;Node33 -->
<g id="edge15" class="edge">
<title>Node32&#45;&gt;Node33</title>
<path fill="none" stroke="#191970" d="M714,-118.7462C714,-108.0519 714,-95.314 714,-86.7449"/>
<polygon fill="#191970" stroke="#191970" points="710.5001,-118.8906 714,-128.8906 717.5001,-118.8907 710.5001,-118.8906"/>
</g>
<!-- Node38 -->
<g id="node20" class="node">
<title>Node38</title>
<g id="a_node20"><a xlink:href="_basic_h_t_t_p_i_o_processor_8cpp.html" target="_top" xlink:title="plugins/ioprocessor\l/basichttp/BasicHTTPIOProcessor.cpp">
<polygon fill="#ffffff" stroke="#000000" points="946.5,-123.5 946.5,-153.5 1133.5,-153.5 1133.5,-123.5 946.5,-123.5"/>
<text text-anchor="start" x="954.5" y="-141.5" font-family="Helvetica,sans-Serif" font-size="10.00" fill="#000000">plugins/ioprocessor</text>
<text text-anchor="middle" x="1040" y="-130.5" font-family="Helvetica,sans-Serif" font-size="10.00" fill="#000000">/basichttp/BasicHTTPIOProcessor.cpp</text>
</a>
</g>
</g>
<!-- Node37&#45;&gt;Node38 -->
<g id="edge22" class="edge">
<title>Node37&#45;&gt;Node38</title>
<path fill="none" stroke="#191970" d="M1022.9126,-180.9021C1026.5928,-171.7696 1030.6566,-161.6854 1033.8975,-153.6432"/>
<polygon fill="#191970" stroke="#191970" points="1019.6182,-179.7132 1019.1267,-190.2967 1026.1109,-182.3297 1019.6182,-179.7132"/>
</g>
<!-- Node41 -->
<g id="node23" class="node">
<title>Node41</title>
<g id="a_node23"><a xlink:href="_chart_to_c_8h.html" target="_top" xlink:title="transform/ChartToC.h">
<polygon fill="#ffffff" stroke="#000000" points="1399.5,-129 1399.5,-148 1512.5,-148 1512.5,-129 1399.5,-129"/>
<text text-anchor="middle" x="1456" y="-136" font-family="Helvetica,sans-Serif" font-size="10.00" fill="#000000">transform/ChartToC.h</text>
</a>
</g>
</g>
<!-- Node40&#45;&gt;Node41 -->
<g id="edge25" class="edge">
<title>Node40&#45;&gt;Node41</title>
<path fill="none" stroke="#191970" d="M1343.5186,-191.5722C1371.1062,-178.5555 1411.5625,-159.467 1435.6926,-148.0817"/>
<polygon fill="#191970" stroke="#191970" points="1341.8955,-188.468 1334.3451,-195.9005 1344.8825,-194.7987 1341.8955,-188.468"/>
</g>
<!-- Node43 -->
<g id="node25" class="node">
<title>Node43</title>
<g id="a_node25"><a xlink:href="_chart_to_java_8h.html" target="_top" xlink:title="transform/ChartToJava.h">
<polygon fill="#ffffff" stroke="#000000" points="1536.5,-67.5 1536.5,-86.5 1663.5,-86.5 1663.5,-67.5 1536.5,-67.5"/>
<text text-anchor="middle" x="1600" y="-74.5" font-family="Helvetica,sans-Serif" font-size="10.00" fill="#000000">transform/ChartToJava.h</text>
</a>
</g>
</g>
<!-- Node40&#45;&gt;Node43 -->
<g id="edge34" class="edge">
<title>Node40&#45;&gt;Node43</title>
<path fill="none" stroke="#191970" d="M1368.0222,-193.6858C1425.0411,-180.9687 1508.5297,-161.5494 1522,-154 1553.2066,-136.5103 1580.6444,-103.182 1593.0189,-86.7103"/>
<polygon fill="#191970" stroke="#191970" points="1367.0614,-190.3139 1358.0589,-195.9 1368.58,-197.1472 1367.0614,-190.3139"/>
</g>
<!-- Node45 -->
<g id="node27" class="node">
<title>Node45</title>
<g id="a_node27"><a xlink:href="_chart_to_promela_8h.html" target="_top" xlink:title="transform/ChartToPromela.h">
<polygon fill="#ffffff" stroke="#000000" points="1081.5,-67.5 1081.5,-86.5 1224.5,-86.5 1224.5,-67.5 1081.5,-67.5"/>
<text text-anchor="middle" x="1153" y="-74.5" font-family="Helvetica,sans-Serif" font-size="10.00" fill="#000000">transform/ChartToPromela.h</text>
</a>
</g>
</g>
<!-- Node40&#45;&gt;Node45 -->
<g id="edge35" class="edge">
<title>Node40&#45;&gt;Node45</title>
<path fill="none" stroke="#191970" d="M1286.256,-190.9919C1269.0724,-181.4589 1246.939,-168.1637 1229,-154 1201.8749,-132.5835 1174.4804,-102.1749 1161.2167,-86.7641"/>
<polygon fill="#191970" stroke="#191970" points="1284.7791,-194.173 1295.2351,-195.8826 1288.1274,-188.0257 1284.7791,-194.173"/>
</g>
<!-- Node48 -->
<g id="node30" class="node">
<title>Node48</title>
<g id="a_node30"><a xlink:href="_chart_to_v_h_d_l_8h.html" target="_top" xlink:title="transform/ChartToVHDL.h">
<polygon fill="#ffffff" stroke="#000000" points="1242.5,-67.5 1242.5,-86.5 1375.5,-86.5 1375.5,-67.5 1242.5,-67.5"/>
<text text-anchor="middle" x="1309" y="-74.5" font-family="Helvetica,sans-Serif" font-size="10.00" fill="#000000">transform/ChartToVHDL.h</text>
</a>
</g>
</g>
<!-- Node40&#45;&gt;Node48 -->
<g id="edge36" class="edge">
<title>Node40&#45;&gt;Node48</title>
<path fill="none" stroke="#191970" d="M1279.5163,-191.3724C1263.8483,-183.001 1246.8642,-170.7144 1238,-154 1231.5448,-141.828 1231.4193,-135.1046 1238,-123 1247.4002,-105.709 1266.4127,-93.9161 1282.399,-86.603"/>
<polygon fill="#191970" stroke="#191970" points="1278.0059,-194.5303 1288.5179,-195.8529 1281.1251,-188.2636 1278.0059,-194.5303"/>
</g>
<!-- Node50 -->
<g id="node32" class="node">
<title>Node50</title>
<g id="a_node32"><a xlink:href="_transformer_8cpp.html" target="_top" xlink:title="transform/Transformer.cpp">
<polygon fill="#ffffff" stroke="#000000" points="1246.5,-129 1246.5,-148 1381.5,-148 1381.5,-129 1246.5,-129"/>
<text text-anchor="middle" x="1314" y="-136" font-family="Helvetica,sans-Serif" font-size="10.00" fill="#000000">transform/Transformer.cpp</text>
</a>
</g>
</g>
<!-- Node40&#45;&gt;Node50 -->
<g id="edge37" class="edge">
<title>Node40&#45;&gt;Node50</title>
<path fill="none" stroke="#191970" d="M1314,-185.6079C1314,-173.214 1314,-157.8263 1314,-148.0817"/>
<polygon fill="#191970" stroke="#191970" points="1310.5001,-185.9005 1314,-195.9005 1317.5001,-185.9006 1310.5001,-185.9005"/>
</g>
<!-- Node42 -->
<g id="node24" class="node">
<title>Node42</title>
<g id="a_node24"><a xlink:href="_chart_to_c_8cpp.html" target="_top" xlink:title="transform/ChartToC.cpp">
<polygon fill="#ffffff" stroke="#000000" points="1394,-67.5 1394,-86.5 1518,-86.5 1518,-67.5 1394,-67.5"/>
<text text-anchor="middle" x="1456" y="-74.5" font-family="Helvetica,sans-Serif" font-size="10.00" fill="#000000">transform/ChartToC.cpp</text>
</a>
</g>
</g>
<!-- Node41&#45;&gt;Node42 -->
<g id="edge26" class="edge">
<title>Node41&#45;&gt;Node42</title>
<path fill="none" stroke="#191970" d="M1456,-118.7462C1456,-108.0519 1456,-95.314 1456,-86.7449"/>
<polygon fill="#191970" stroke="#191970" points="1452.5001,-118.8906 1456,-128.8906 1459.5001,-118.8907 1452.5001,-118.8906"/>
</g>
<!-- Node41&#45;&gt;Node43 -->
<g id="edge27" class="edge">
<title>Node41&#45;&gt;Node43</title>
<path fill="none" stroke="#191970" d="M1487.9778,-124.8428C1515.2064,-113.2139 1553.627,-96.8051 1577.658,-86.5419"/>
<polygon fill="#191970" stroke="#191970" points="1486.3217,-121.7442 1478.5,-128.8906 1489.0711,-128.1817 1486.3217,-121.7442"/>
</g>
<!-- Node41&#45;&gt;Node45 -->
<g id="edge29" class="edge">
<title>Node41&#45;&gt;Node45</title>
<path fill="none" stroke="#191970" d="M1407.3816,-126.6648C1401.864,-125.3935 1396.3157,-124.1469 1391,-123 1327.6483,-109.331 1254.3898,-95.4611 1206.0691,-86.5786"/>
<polygon fill="#191970" stroke="#191970" points="1406.689,-130.0972 1417.223,-128.9637 1408.2813,-123.2807 1406.689,-130.0972"/>
</g>
<!-- Node41&#45;&gt;Node48 -->
<g id="edge32" class="edge">
<title>Node41&#45;&gt;Node48</title>
<path fill="none" stroke="#191970" d="M1423.721,-124.9955C1395.9045,-113.358 1356.4467,-96.8501 1331.8075,-86.5419"/>
<polygon fill="#191970" stroke="#191970" points="1422.4552,-128.2599 1433.0313,-128.8906 1425.1569,-121.8022 1422.4552,-128.2599"/>
</g>
<!-- Node44 -->
<g id="node26" class="node">
<title>Node44</title>
<g id="a_node26"><a xlink:href="_chart_to_java_8cpp.html" target="_top" xlink:title="transform/ChartToJava.cpp">
<polygon fill="#ffffff" stroke="#000000" points="1531,-6 1531,-25 1669,-25 1669,-6 1531,-6"/>
<text text-anchor="middle" x="1600" y="-13" font-family="Helvetica,sans-Serif" font-size="10.00" fill="#000000">transform/ChartToJava.cpp</text>
</a>
</g>
</g>
<!-- Node43&#45;&gt;Node44 -->
<g id="edge28" class="edge">
<title>Node43&#45;&gt;Node44</title>
<path fill="none" stroke="#191970" d="M1600,-57.2462C1600,-46.5519 1600,-33.814 1600,-25.2449"/>
<polygon fill="#191970" stroke="#191970" points="1596.5001,-57.3906 1600,-67.3906 1603.5001,-57.3907 1596.5001,-57.3906"/>
</g>
<!-- Node46 -->
<g id="node28" class="node">
<title>Node46</title>
<g id="a_node28"><a xlink:href="_chart_to_promela_8cpp.html" target="_top" xlink:title="transform/ChartToPromela.cpp">
<polygon fill="#ffffff" stroke="#000000" points="1076,-6 1076,-25 1230,-25 1230,-6 1076,-6"/>
<text text-anchor="middle" x="1153" y="-13" font-family="Helvetica,sans-Serif" font-size="10.00" fill="#000000">transform/ChartToPromela.cpp</text>
</a>
</g>
</g>
<!-- Node45&#45;&gt;Node46 -->
<g id="edge30" class="edge">
<title>Node45&#45;&gt;Node46</title>
<path fill="none" stroke="#191970" d="M1153,-57.2462C1153,-46.5519 1153,-33.814 1153,-25.2449"/>
<polygon fill="#191970" stroke="#191970" points="1149.5001,-57.3906 1153,-67.3906 1156.5001,-57.3907 1149.5001,-57.3906"/>
</g>
<!-- Node47 -->
<g id="node29" class="node">
<title>Node47</title>
<g id="a_node29"><a xlink:href="_promela_code_analyzer_8cpp.html" target="_top" xlink:title="transform/promela/Promela\lCodeAnalyzer.cpp">
<polygon fill="#ffffff" stroke="#000000" points="920,-.5 920,-30.5 1058,-30.5 1058,-.5 920,-.5"/>
<text text-anchor="start" x="928" y="-18.5" font-family="Helvetica,sans-Serif" font-size="10.00" fill="#000000">transform/promela/Promela</text>
<text text-anchor="middle" x="989" y="-7.5" font-family="Helvetica,sans-Serif" font-size="10.00" fill="#000000">CodeAnalyzer.cpp</text>
</a>
</g>
</g>
<!-- Node45&#45;&gt;Node47 -->
<g id="edge31" class="edge">
<title>Node45&#45;&gt;Node47</title>
<path fill="none" stroke="#191970" d="M1117.8949,-63.8356C1091.8473,-54.0678 1056.29,-40.7338 1029.1189,-30.5446"/>
<polygon fill="#191970" stroke="#191970" points="1116.7827,-67.1565 1127.375,-67.3906 1119.2407,-60.6022 1116.7827,-67.1565"/>
</g>
<!-- Node49 -->
<g id="node31" class="node">
<title>Node49</title>
<g id="a_node31"><a xlink:href="_chart_to_v_h_d_l_8cpp.html" target="_top" xlink:title="transform/ChartToVHDL.cpp">
<polygon fill="#ffffff" stroke="#000000" points="1248.5,-6 1248.5,-25 1391.5,-25 1391.5,-6 1248.5,-6"/>
<text text-anchor="middle" x="1320" y="-13" font-family="Helvetica,sans-Serif" font-size="10.00" fill="#000000">transform/ChartToVHDL.cpp</text>
</a>
</g>
</g>
<!-- Node48&#45;&gt;Node49 -->
<g id="edge33" class="edge">
<title>Node48&#45;&gt;Node49</title>
<path fill="none" stroke="#191970" d="M1312.5332,-57.2462C1314.446,-46.5519 1316.7243,-33.814 1318.257,-25.2449"/>
<polygon fill="#191970" stroke="#191970" points="1309.0342,-56.9306 1310.7188,-67.3906 1315.9248,-58.1631 1309.0342,-56.9306"/>
</g>
</g>
</svg>
