<?xml version="1.0" encoding="UTF-8" standalone="no"?>
<!DOCTYPE svg PUBLIC "-//W3C//DTD SVG 1.1//EN"
 "http://www.w3.org/Graphics/SVG/1.1/DTD/svg11.dtd">
<!-- Generated by graphviz version 2.38.0 (20140413.2041)
 -->
<!-- Title: interpreter/EventQueue.h Pages: 1 -->
<!--zoomable 464 -->
<svg id="main" version="1.1" xmlns="http://www.w3.org/2000/svg" xmlns:xlink="http://www.w3.org/1999/xlink" xml:space="preserve" onload="init(evt)">
<style type="text/css"><![CDATA[
.edge:hover path { stroke: red; }
.edge:hover polygon { stroke: red; fill: red; }
]]></style>
<script type="text/javascript"><![CDATA[
var edges = document.getElementsByTagName('g');
if (edges && edges.length) {
  for (var i=0;i<edges.length;i++) {
    if (edges[i].id.substr(0,4)=='edge') {
      edges[i].setAttribute('class','edge');
    }
  }
}
]]></script>
        <defs>
                <circle id="rim" cx="0" cy="0" r="7"/>
                <circle id="rim2" cx="0" cy="0" r="3.5"/>
                <g id="zoomPlus">
                        <use xlink:href="#rim" fill="#404040">
                                <set attributeName="fill" to="#808080" begin="zoomplus.mouseover" end="zoomplus.mouseout"/>
                        </use>
                        <path d="M-4,0h8M0,-4v8" fill="none" stroke="white" stroke-width="1.5" pointer-events="none"/>
                </g>
                <g id="zoomMin">
                        <use xlink:href="#rim" fill="#404040">
                                <set attributeName="fill" to="#808080" begin="zoomminus.mouseover" end="zoomminus.mouseout"/>
                        </use>
                        <path d="M-4,0h8" fill="none" stroke="white" stroke-width="1.5" pointer-events="none"/>
                </g>
                <g id="dirArrow">
                        <path fill="none" stroke="white" stroke-width="1.5" d="M0,-3.0v7 M-2.5,-0.5L0,-3.0L2.5,-0.5"/>
                </g>
               <g id="resetDef">
                       <use xlink:href="#rim2" fill="#404040">
                               <set attributeName="fill" to="#808080" begin="reset.mouseover" end="reset.mouseout"/>
                       </use>
               </g>
        </defs>

<script type="text/javascript">
var viewWidth = 2129;
var viewHeight = 464;
var sectionId = 'dynsection-1';
</script>
<script xlink:href="svgpan.js"/>
<svg id="graph" class="graph">
<g id="viewport">
<title>interpreter/EventQueue.h</title>
<polygon fill="white" stroke="none" points="-4,4 -4,-460 2125.04,-460 2125.04,4 -4,4"/>
<!-- Node1 -->
<g id="node1" class="node"><title>Node1</title>
<polygon fill="#bfbfbf" stroke="black" points="988.5,-436.5 988.5,-455.5 1117.5,-455.5 1117.5,-436.5 988.5,-436.5"/>
<text text-anchor="middle" x="1053" y="-443.5" font-family="Helvetica,sans-Serif" font-size="10.00">interpreter/EventQueue.h</text>
</g>
<!-- Node2 -->
<g id="node2" class="node"><title>Node2</title>
<g id="a_node2"><a xlink:href="_event_queue_8cpp.html" target="_top" xlink:title="interpreter/EventQueue.cpp">
<polygon fill="white" stroke="black" points="885.5,-380.5 885.5,-399.5 1024.5,-399.5 1024.5,-380.5 885.5,-380.5"/>
<text text-anchor="middle" x="955" y="-387.5" font-family="Helvetica,sans-Serif" font-size="10.00">interpreter/EventQueue.cpp</text>
</a>
</g>
</g>
<!-- Node1&#45;&gt;Node2 -->
<g id="edge1" class="edge"><title>Node1&#45;&gt;Node2</title>
<path fill="none" stroke="midnightblue" d="M1028.41,-431.453C1010.32,-421.483 986.265,-408.228 970.706,-399.655"/>
<polygon fill="midnightblue" stroke="midnightblue" points="1026.81,-434.563 1037.25,-436.324 1030.19,-428.432 1026.81,-434.563"/>
</g>
<!-- Node3 -->
<g id="node3" class="node"><title>Node3</title>
<g id="a_node3"><a xlink:href="_interpreter_impl_8h.html" target="_top" xlink:title="interpreter/InterpreterImpl.h">
<polygon fill="white" stroke="black" points="1119,-257.5 1119,-276.5 1257,-276.5 1257,-257.5 1119,-257.5"/>
<text text-anchor="middle" x="1188" y="-264.5" font-family="Helvetica,sans-Serif" font-size="10.00">interpreter/InterpreterImpl.h</text>
</a>
</g>
</g>
<!-- Node1&#45;&gt;Node3 -->
<g id="edge2" class="edge"><title>Node1&#45;&gt;Node3</title>
<path fill="none" stroke="midnightblue" d="M1065.77,-428.263C1093.79,-391.518 1159.9,-304.839 1181.24,-276.868"/>
<polygon fill="midnightblue" stroke="midnightblue" points="1062.79,-426.389 1059.51,-436.463 1068.36,-430.634 1062.79,-426.389"/>
</g>
<!-- Node34 -->
<g id="node34" class="node"><title>Node34</title>
<g id="a_node34"><a xlink:href="_interpreter_8h.html" target="_top" xlink:title="Interpreter.h">
<polygon fill="white" stroke="black" points="1493.5,-380.5 1493.5,-399.5 1564.5,-399.5 1564.5,-380.5 1493.5,-380.5"/>
<text text-anchor="middle" x="1529" y="-387.5" font-family="Helvetica,sans-Serif" font-size="10.00">Interpreter.h</text>
</a>
</g>
</g>
<!-- Node1&#45;&gt;Node34 -->
<g id="edge39" class="edge"><title>Node1&#45;&gt;Node34</title>
<path fill="none" stroke="midnightblue" d="M1127.81,-436.513C1231.89,-424.705 1416.27,-403.788 1493.46,-395.032"/>
<polygon fill="midnightblue" stroke="midnightblue" points="1127.23,-433.056 1117.69,-437.661 1128.02,-440.012 1127.23,-433.056"/>
</g>
<!-- Node4 -->
<g id="node4" class="node"><title>Node4</title>
<g id="a_node4"><a xlink:href="_breakpoint_8cpp.html" target="_top" xlink:title="debug/Breakpoint.cpp">
<polygon fill="white" stroke="black" points="1422,-201.5 1422,-220.5 1536,-220.5 1536,-201.5 1422,-201.5"/>
<text text-anchor="middle" x="1479" y="-208.5" font-family="Helvetica,sans-Serif" font-size="10.00">debug/Breakpoint.cpp</text>
</a>
</g>
</g>
<!-- Node3&#45;&gt;Node4 -->
<g id="edge3" class="edge"><title>Node3&#45;&gt;Node4</title>
<path fill="none" stroke="midnightblue" d="M1244.04,-255.601C1299.04,-245.395 1381.9,-230.019 1433.11,-220.516"/>
<polygon fill="midnightblue" stroke="midnightblue" points="1243.3,-252.178 1234.11,-257.444 1244.58,-259.06 1243.3,-252.178"/>
</g>
<!-- Node5 -->
<g id="node5" class="node"><title>Node5</title>
<g id="a_node5"><a xlink:href="_debugger_8h.html" target="_top" xlink:title="debug/Debugger.h">
<polygon fill="white" stroke="black" points="1765.5,-201.5 1765.5,-220.5 1864.5,-220.5 1864.5,-201.5 1765.5,-201.5"/>
<text text-anchor="middle" x="1815" y="-208.5" font-family="Helvetica,sans-Serif" font-size="10.00">debug/Debugger.h</text>
</a>
</g>
</g>
<!-- Node3&#45;&gt;Node5 -->
<g id="edge4" class="edge"><title>Node3&#45;&gt;Node5</title>
<path fill="none" stroke="midnightblue" d="M1267.45,-261.021C1376.27,-253.883 1577.73,-239.532 1749,-221 1754.29,-220.428 1759.81,-219.771 1765.3,-219.077"/>
<polygon fill="midnightblue" stroke="midnightblue" points="1266.96,-257.545 1257.21,-261.689 1267.42,-264.53 1266.96,-257.545"/>
</g>
<!-- Node10 -->
<g id="node10" class="node"><title>Node10</title>
<g id="a_node10"><a xlink:href="_interpreter_issue_8cpp.html" target="_top" xlink:title="debug/InterpreterIssue.cpp">
<polygon fill="white" stroke="black" points="975,-201.5 975,-220.5 1111,-220.5 1111,-201.5 975,-201.5"/>
<text text-anchor="middle" x="1043" y="-208.5" font-family="Helvetica,sans-Serif" font-size="10.00">debug/InterpreterIssue.cpp</text>
</a>
</g>
</g>
<!-- Node3&#45;&gt;Node10 -->
<g id="edge9" class="edge"><title>Node3&#45;&gt;Node10</title>
<path fill="none" stroke="midnightblue" d="M1155.52,-253.906C1128.26,-243.754 1090.01,-229.506 1065.87,-220.516"/>
<polygon fill="midnightblue" stroke="midnightblue" points="1154.43,-257.233 1165.02,-257.444 1156.87,-250.674 1154.43,-257.233"/>
</g>
<!-- Node11 -->
<g id="node11" class="node"><title>Node11</title>
<g id="a_node11"><a xlink:href="_interpreter_impl_8cpp.html" target="_top" xlink:title="interpreter/InterpreterImpl.cpp">
<polygon fill="white" stroke="black" points="1530.5,-140 1530.5,-159 1679.5,-159 1679.5,-140 1530.5,-140"/>
<text text-anchor="middle" x="1605" y="-147" font-family="Helvetica,sans-Serif" font-size="10.00">interpreter/InterpreterImpl.cpp</text>
</a>
</g>
</g>
<!-- Node3&#45;&gt;Node11 -->
<g id="edge10" class="edge"><title>Node3&#45;&gt;Node11</title>
<path fill="none" stroke="midnightblue" d="M1230.76,-254.826C1260.84,-246.545 1301.84,-234.408 1337,-221 1356.69,-213.49 1360.05,-207.791 1380,-201 1413.16,-189.713 1506.13,-170.259 1561.64,-159.078"/>
<polygon fill="midnightblue" stroke="midnightblue" points="1229.73,-251.479 1221,-257.483 1231.57,-258.233 1229.73,-251.479"/>
</g>
<!-- Node12 -->
<g id="node12" class="node"><title>Node12</title>
<g id="a_node12"><a xlink:href="_interpreter_8cpp.html" target="_top" xlink:title="Interpreter.cpp">
<polygon fill="white" stroke="black" points="685,-201.5 685,-220.5 767,-220.5 767,-201.5 685,-201.5"/>
<text text-anchor="middle" x="726" y="-208.5" font-family="Helvetica,sans-Serif" font-size="10.00">Interpreter.cpp</text>
</a>
</g>
</g>
<!-- Node3&#45;&gt;Node12 -->
<g id="edge11" class="edge"><title>Node3&#45;&gt;Node12</title>
<path fill="none" stroke="midnightblue" d="M1108.76,-257.346C994.929,-244.899 796.981,-223.19 781,-221 776.495,-220.383 771.79,-219.689 767.11,-218.967"/>
<polygon fill="midnightblue" stroke="midnightblue" points="1108.5,-260.839 1118.82,-258.446 1109.26,-253.88 1108.5,-260.839"/>
</g>
<!-- Node13 -->
<g id="node13" class="node"><title>Node13</title>
<g id="a_node13"><a xlink:href="_u_s_c_x_m_l_invoker_8h.html" target="_top" xlink:title="plugins/invoker/scxml\l/USCXMLInvoker.h">
<polygon fill="white" stroke="black" points="1144,-134.5 1144,-164.5 1256,-164.5 1256,-134.5 1144,-134.5"/>
<text text-anchor="start" x="1152" y="-152.5" font-family="Helvetica,sans-Serif" font-size="10.00">plugins/invoker/scxml</text>
<text text-anchor="middle" x="1200" y="-141.5" font-family="Helvetica,sans-Serif" font-size="10.00">/USCXMLInvoker.h</text>
</a>
</g>
</g>
<!-- Node3&#45;&gt;Node13 -->
<g id="edge12" class="edge"><title>Node3&#45;&gt;Node13</title>
<path fill="none" stroke="midnightblue" d="M1189.97,-247.068C1192.37,-223.904 1196.39,-185.223 1198.54,-164.545"/>
<polygon fill="midnightblue" stroke="midnightblue" points="1186.45,-247.011 1188.9,-257.319 1193.42,-247.734 1186.45,-247.011"/>
</g>
<!-- Node15 -->
<g id="node15" class="node"><title>Node15</title>
<g id="a_node15"><a xlink:href="_invoker_impl_8h.html" target="_top" xlink:title="plugins/InvokerImpl.h">
<polygon fill="white" stroke="black" points="1216.5,-201.5 1216.5,-220.5 1327.5,-220.5 1327.5,-201.5 1216.5,-201.5"/>
<text text-anchor="middle" x="1272" y="-208.5" font-family="Helvetica,sans-Serif" font-size="10.00">plugins/InvokerImpl.h</text>
</a>
</g>
</g>
<!-- Node3&#45;&gt;Node15 -->
<g id="edge14" class="edge"><title>Node3&#45;&gt;Node15</title>
<path fill="none" stroke="midnightblue" d="M1209.93,-251.901C1225.34,-241.999 1245.45,-229.071 1258.54,-220.655"/>
<polygon fill="midnightblue" stroke="midnightblue" points="1208.02,-248.972 1201.5,-257.324 1211.8,-254.86 1208.02,-248.972"/>
</g>
<!-- Node19 -->
<g id="node19" class="node"><title>Node19</title>
<g id="a_node19"><a xlink:href="_basic_h_t_t_p_i_o_processor_8h.html" target="_top" xlink:title="plugins/ioprocessor\l/basichttp/BasicHTTPIOProcessor.h">
<polygon fill="white" stroke="black" points="603.5,-134.5 603.5,-164.5 780.5,-164.5 780.5,-134.5 603.5,-134.5"/>
<text text-anchor="start" x="611.5" y="-152.5" font-family="Helvetica,sans-Serif" font-size="10.00">plugins/ioprocessor</text>
<text text-anchor="middle" x="692" y="-141.5" font-family="Helvetica,sans-Serif" font-size="10.00">/basichttp/BasicHTTPIOProcessor.h</text>
</a>
</g>
</g>
<!-- Node3&#45;&gt;Node19 -->
<g id="edge20" class="edge"><title>Node3&#45;&gt;Node19</title>
<path fill="none" stroke="midnightblue" d="M1108.86,-257.297C1003.24,-245.562 827.805,-225.603 814,-221 803.557,-217.518 747.485,-184.078 715.112,-164.53"/>
<polygon fill="midnightblue" stroke="midnightblue" points="1108.53,-260.781 1118.85,-258.406 1109.3,-253.824 1108.53,-260.781"/>
</g>
<!-- Node21 -->
<g id="node21" class="node"><title>Node21</title>
<g id="a_node21"><a xlink:href="_s_c_x_m_l_i_o_processor_8cpp.html" target="_top" xlink:title="plugins/ioprocessor\l/scxml/SCXMLIOProcessor.cpp">
<polygon fill="white" stroke="black" points="952.5,-67.5 952.5,-97.5 1109.5,-97.5 1109.5,-67.5 952.5,-67.5"/>
<text text-anchor="start" x="960.5" y="-85.5" font-family="Helvetica,sans-Serif" font-size="10.00">plugins/ioprocessor</text>
<text text-anchor="middle" x="1031" y="-74.5" font-family="Helvetica,sans-Serif" font-size="10.00">/scxml/SCXMLIOProcessor.cpp</text>
</a>
</g>
</g>
<!-- Node3&#45;&gt;Node21 -->
<g id="edge22" class="edge"><title>Node3&#45;&gt;Node21</title>
<path fill="none" stroke="midnightblue" d="M1178.28,-248.389C1163.11,-221.808 1131.88,-170.653 1097,-134 1083.77,-120.099 1066.47,-107.012 1052.91,-97.6444"/>
<polygon fill="midnightblue" stroke="midnightblue" points="1175.34,-250.29 1183.29,-257.292 1181.44,-246.86 1175.34,-250.29"/>
</g>
<!-- Node22 -->
<g id="node22" class="node"><title>Node22</title>
<g id="a_node22"><a xlink:href="_i_o_processor_impl_8h.html" target="_top" xlink:title="plugins/IOProcessorImpl.h">
<polygon fill="white" stroke="black" points="823,-201.5 823,-220.5 957,-220.5 957,-201.5 823,-201.5"/>
<text text-anchor="middle" x="890" y="-208.5" font-family="Helvetica,sans-Serif" font-size="10.00">plugins/IOProcessorImpl.h</text>
</a>
</g>
</g>
<!-- Node3&#45;&gt;Node22 -->
<g id="edge23" class="edge"><title>Node3&#45;&gt;Node22</title>
<path fill="none" stroke="midnightblue" d="M1130.61,-255.601C1074.29,-245.395 989.438,-230.019 936.998,-220.516"/>
<polygon fill="midnightblue" stroke="midnightblue" points="1130.32,-259.104 1140.78,-257.444 1131.57,-252.217 1130.32,-259.104"/>
</g>
<!-- Node25 -->
<g id="node25" class="node"><title>Node25</title>
<g id="a_node25"><a xlink:href="_transformer_8h.html" target="_top" xlink:title="transform/Transformer.h">
<polygon fill="white" stroke="black" points="396,-201.5 396,-220.5 520,-220.5 520,-201.5 396,-201.5"/>
<text text-anchor="middle" x="458" y="-208.5" font-family="Helvetica,sans-Serif" font-size="10.00">transform/Transformer.h</text>
</a>
</g>
</g>
<!-- Node3&#45;&gt;Node25 -->
<g id="edge28" class="edge"><title>Node3&#45;&gt;Node25</title>
<path fill="none" stroke="midnightblue" d="M1108.74,-260.137C962.39,-249.311 652.603,-226.395 520.166,-216.599"/>
<polygon fill="midnightblue" stroke="midnightblue" points="1108.76,-263.648 1118.99,-260.895 1109.28,-256.667 1108.76,-263.648"/>
</g>
<!-- Node6 -->
<g id="node6" class="node"><title>Node6</title>
<g id="a_node6"><a xlink:href="_debugger_8cpp.html" target="_top" xlink:title="debug/Debugger.cpp">
<polygon fill="white" stroke="black" points="1846,-140 1846,-159 1956,-159 1956,-140 1846,-140"/>
<text text-anchor="middle" x="1901" y="-147" font-family="Helvetica,sans-Serif" font-size="10.00">debug/Debugger.cpp</text>
</a>
</g>
</g>
<!-- Node5&#45;&gt;Node6 -->
<g id="edge5" class="edge"><title>Node5&#45;&gt;Node6</title>
<path fill="none" stroke="midnightblue" d="M1835.8,-195.613C1852.34,-184.169 1874.92,-168.546 1888.7,-159.009"/>
<polygon fill="midnightblue" stroke="midnightblue" points="1833.55,-192.907 1827.32,-201.475 1837.54,-198.664 1833.55,-192.907"/>
</g>
<!-- Node7 -->
<g id="node7" class="node"><title>Node7</title>
<g id="a_node7"><a xlink:href="_debugger_servlet_8h.html" target="_top" xlink:title="debug/DebuggerServlet.h">
<polygon fill="white" stroke="black" points="1698,-140 1698,-159 1828,-159 1828,-140 1698,-140"/>
<text text-anchor="middle" x="1763" y="-147" font-family="Helvetica,sans-Serif" font-size="10.00">debug/DebuggerServlet.h</text>
</a>
</g>
</g>
<!-- Node5&#45;&gt;Node7 -->
<g id="edge6" class="edge"><title>Node5&#45;&gt;Node7</title>
<path fill="none" stroke="midnightblue" d="M1800.73,-193.669C1790.92,-182.452 1778.31,-168.016 1770.44,-159.009"/>
<polygon fill="midnightblue" stroke="midnightblue" points="1798.33,-196.249 1807.55,-201.475 1803.6,-191.642 1798.33,-196.249"/>
</g>
<!-- Node9 -->
<g id="node9" class="node"><title>Node9</title>
<g id="a_node9"><a xlink:href="_debug_session_8cpp.html" target="_top" xlink:title="debug/DebugSession.cpp">
<polygon fill="white" stroke="black" points="1974.5,-140 1974.5,-159 2105.5,-159 2105.5,-140 1974.5,-140"/>
<text text-anchor="middle" x="2040" y="-147" font-family="Helvetica,sans-Serif" font-size="10.00">debug/DebugSession.cpp</text>
</a>
</g>
</g>
<!-- Node5&#45;&gt;Node9 -->
<g id="edge8" class="edge"><title>Node5&#45;&gt;Node9</title>
<path fill="none" stroke="midnightblue" d="M1856.99,-198.896C1900.69,-187.34 1968.17,-169.495 2007.82,-159.009"/>
<polygon fill="midnightblue" stroke="midnightblue" points="1856.01,-195.535 1847.24,-201.475 1857.8,-202.302 1856.01,-195.535"/>
</g>
<!-- Node8 -->
<g id="node8" class="node"><title>Node8</title>
<g id="a_node8"><a xlink:href="_debugger_servlet_8cpp.html" target="_top" xlink:title="debug/DebuggerServlet.cpp">
<polygon fill="white" stroke="black" points="1877.5,-73 1877.5,-92 2018.5,-92 2018.5,-73 1877.5,-73"/>
<text text-anchor="middle" x="1948" y="-80" font-family="Helvetica,sans-Serif" font-size="10.00">debug/DebuggerServlet.cpp</text>
</a>
</g>
</g>
<!-- Node7&#45;&gt;Node8 -->
<g id="edge7" class="edge"><title>Node7&#45;&gt;Node8</title>
<path fill="none" stroke="midnightblue" d="M1797.34,-136.436C1834.04,-123.542 1891.29,-103.424 1923.63,-92.0637"/>
<polygon fill="midnightblue" stroke="midnightblue" points="1795.84,-133.251 1787.57,-139.869 1798.16,-139.856 1795.84,-133.251"/>
</g>
<!-- Node14 -->
<g id="node14" class="node"><title>Node14</title>
<g id="a_node14"><a xlink:href="_u_s_c_x_m_l_invoker_8cpp.html" target="_top" xlink:title="plugins/invoker/scxml\l/USCXMLInvoker.cpp">
<polygon fill="white" stroke="black" points="1143.5,-67.5 1143.5,-97.5 1256.5,-97.5 1256.5,-67.5 1143.5,-67.5"/>
<text text-anchor="start" x="1151.5" y="-85.5" font-family="Helvetica,sans-Serif" font-size="10.00">plugins/invoker/scxml</text>
<text text-anchor="middle" x="1200" y="-74.5" font-family="Helvetica,sans-Serif" font-size="10.00">/USCXMLInvoker.cpp</text>
</a>
</g>
</g>
<!-- Node13&#45;&gt;Node14 -->
<g id="edge13" class="edge"><title>Node13&#45;&gt;Node14</title>
<path fill="none" stroke="midnightblue" d="M1200,-124.108C1200,-115.154 1200,-105.323 1200,-97.5765"/>
<polygon fill="midnightblue" stroke="midnightblue" points="1196.5,-124.396 1200,-134.396 1203.5,-124.396 1196.5,-124.396"/>
</g>
<!-- Node15&#45;&gt;Node11 -->
<g id="edge15" class="edge"><title>Node15&#45;&gt;Node11</title>
<path fill="none" stroke="midnightblue" d="M1329.71,-199.688C1394.17,-188.17 1497.33,-169.738 1557.38,-159.009"/>
<polygon fill="midnightblue" stroke="midnightblue" points="1328.94,-196.271 1319.71,-201.475 1330.17,-203.162 1328.94,-196.271"/>
</g>
<!-- Node15&#45;&gt;Node13 -->
<g id="edge18" class="edge"><title>Node15&#45;&gt;Node13</title>
<path fill="none" stroke="midnightblue" d="M1253.75,-194.921C1242.45,-185.579 1228.03,-173.662 1216.97,-164.523"/>
<polygon fill="midnightblue" stroke="midnightblue" points="1251.75,-197.803 1261.68,-201.475 1256.21,-192.407 1251.75,-197.803"/>
</g>
<!-- Node16 -->
<g id="node16" class="node"><title>Node16</title>
<g id="a_node16"><a xlink:href="_dir_mon_invoker_8h.html" target="_top" xlink:title="plugins/invoker/dirmon\l/DirMonInvoker.h">
<polygon fill="white" stroke="black" points="1395.5,-134.5 1395.5,-164.5 1512.5,-164.5 1512.5,-134.5 1395.5,-134.5"/>
<text text-anchor="start" x="1403.5" y="-152.5" font-family="Helvetica,sans-Serif" font-size="10.00">plugins/invoker/dirmon</text>
<text text-anchor="middle" x="1454" y="-141.5" font-family="Helvetica,sans-Serif" font-size="10.00">/DirMonInvoker.h</text>
</a>
</g>
</g>
<!-- Node15&#45;&gt;Node16 -->
<g id="edge16" class="edge"><title>Node15&#45;&gt;Node16</title>
<path fill="none" stroke="midnightblue" d="M1307.61,-198.357C1337.27,-188.662 1379.59,-174.826 1411.11,-164.523"/>
<polygon fill="midnightblue" stroke="midnightblue" points="1306.49,-195.041 1298.08,-201.475 1308.67,-201.694 1306.49,-195.041"/>
</g>
<!-- Node18 -->
<g id="node18" class="node"><title>Node18</title>
<g id="a_node18"><a xlink:href="_invoker_8cpp.html" target="_top" xlink:title="plugins/Invoker.cpp">
<polygon fill="white" stroke="black" points="1274.5,-140 1274.5,-159 1377.5,-159 1377.5,-140 1274.5,-140"/>
<text text-anchor="middle" x="1326" y="-147" font-family="Helvetica,sans-Serif" font-size="10.00">plugins/Invoker.cpp</text>
</a>
</g>
</g>
<!-- Node15&#45;&gt;Node18 -->
<g id="edge19" class="edge"><title>Node15&#45;&gt;Node18</title>
<path fill="none" stroke="midnightblue" d="M1286.52,-193.997C1296.74,-182.736 1310.02,-168.104 1318.28,-159.009"/>
<polygon fill="midnightblue" stroke="midnightblue" points="1283.87,-191.718 1279.74,-201.475 1289.05,-196.422 1283.87,-191.718"/>
</g>
<!-- Node17 -->
<g id="node17" class="node"><title>Node17</title>
<g id="a_node17"><a xlink:href="_dir_mon_invoker_8cpp.html" target="_top" xlink:title="plugins/invoker/dirmon\l/DirMonInvoker.cpp">
<polygon fill="white" stroke="black" points="1395.5,-67.5 1395.5,-97.5 1512.5,-97.5 1512.5,-67.5 1395.5,-67.5"/>
<text text-anchor="start" x="1403.5" y="-85.5" font-family="Helvetica,sans-Serif" font-size="10.00">plugins/invoker/dirmon</text>
<text text-anchor="middle" x="1454" y="-74.5" font-family="Helvetica,sans-Serif" font-size="10.00">/DirMonInvoker.cpp</text>
</a>
</g>
</g>
<!-- Node16&#45;&gt;Node17 -->
<g id="edge17" class="edge"><title>Node16&#45;&gt;Node17</title>
<path fill="none" stroke="midnightblue" d="M1454,-124.108C1454,-115.154 1454,-105.323 1454,-97.5765"/>
<polygon fill="midnightblue" stroke="midnightblue" points="1450.5,-124.396 1454,-134.396 1457.5,-124.396 1450.5,-124.396"/>
</g>
<!-- Node20 -->
<g id="node20" class="node"><title>Node20</title>
<g id="a_node20"><a xlink:href="_basic_h_t_t_p_i_o_processor_8cpp.html" target="_top" xlink:title="plugins/ioprocessor\l/basichttp/BasicHTTPIOProcessor.cpp">
<polygon fill="white" stroke="black" points="616.5,-67.5 616.5,-97.5 803.5,-97.5 803.5,-67.5 616.5,-67.5"/>
<text text-anchor="start" x="624.5" y="-85.5" font-family="Helvetica,sans-Serif" font-size="10.00">plugins/ioprocessor</text>
<text text-anchor="middle" x="710" y="-74.5" font-family="Helvetica,sans-Serif" font-size="10.00">/basichttp/BasicHTTPIOProcessor.cpp</text>
</a>
</g>
</g>
<!-- Node19&#45;&gt;Node20 -->
<g id="edge21" class="edge"><title>Node19&#45;&gt;Node20</title>
<path fill="none" stroke="midnightblue" d="M698.592,-124.697C701.114,-115.587 703.91,-105.493 706.102,-97.5765"/>
<polygon fill="midnightblue" stroke="midnightblue" points="695.202,-123.825 695.906,-134.396 701.948,-125.693 695.202,-123.825"/>
</g>
<!-- Node22&#45;&gt;Node19 -->
<g id="edge24" class="edge"><title>Node22&#45;&gt;Node19</title>
<path fill="none" stroke="midnightblue" d="M851.675,-198.483C819.393,-188.782 773.101,-174.871 738.665,-164.523"/>
<polygon fill="midnightblue" stroke="midnightblue" points="851.047,-201.949 861.631,-201.475 853.062,-195.245 851.047,-201.949"/>
</g>
<!-- Node23 -->
<g id="node23" class="node"><title>Node23</title>
<g id="a_node23"><a xlink:href="_s_c_x_m_l_i_o_processor_8h.html" target="_top" xlink:title="plugins/ioprocessor\l/scxml/SCXMLIOProcessor.h">
<polygon fill="white" stroke="black" points="942,-134.5 942,-164.5 1088,-164.5 1088,-134.5 942,-134.5"/>
<text text-anchor="start" x="950" y="-152.5" font-family="Helvetica,sans-Serif" font-size="10.00">plugins/ioprocessor</text>
<text text-anchor="middle" x="1015" y="-141.5" font-family="Helvetica,sans-Serif" font-size="10.00">/scxml/SCXMLIOProcessor.h</text>
</a>
</g>
</g>
<!-- Node22&#45;&gt;Node23 -->
<g id="edge25" class="edge"><title>Node22&#45;&gt;Node23</title>
<path fill="none" stroke="midnightblue" d="M917.165,-197.07C937.341,-187.465 964.835,-174.378 985.54,-164.523"/>
<polygon fill="midnightblue" stroke="midnightblue" points="915.434,-194.017 907.909,-201.475 918.443,-200.337 915.434,-194.017"/>
</g>
<!-- Node24 -->
<g id="node24" class="node"><title>Node24</title>
<g id="a_node24"><a xlink:href="_i_o_processor_8cpp.html" target="_top" xlink:title="plugins/IOProcessor.cpp">
<polygon fill="white" stroke="black" points="798.5,-140 798.5,-159 923.5,-159 923.5,-140 798.5,-140"/>
<text text-anchor="middle" x="861" y="-147" font-family="Helvetica,sans-Serif" font-size="10.00">plugins/IOProcessor.cpp</text>
</a>
</g>
</g>
<!-- Node22&#45;&gt;Node24 -->
<g id="edge27" class="edge"><title>Node22&#45;&gt;Node24</title>
<path fill="none" stroke="midnightblue" d="M881.39,-192.335C876.025,-181.328 869.365,-167.663 865.147,-159.009"/>
<polygon fill="midnightblue" stroke="midnightblue" points="878.317,-194.019 885.845,-201.475 884.61,-190.952 878.317,-194.019"/>
</g>
<!-- Node23&#45;&gt;Node21 -->
<g id="edge26" class="edge"><title>Node23&#45;&gt;Node21</title>
<path fill="none" stroke="midnightblue" d="M1020.93,-124.403C1023.16,-115.37 1025.61,-105.408 1027.54,-97.5765"/>
<polygon fill="midnightblue" stroke="midnightblue" points="1017.46,-123.849 1018.47,-134.396 1024.26,-125.522 1017.46,-123.849"/>
</g>
<!-- Node26 -->
<g id="node26" class="node"><title>Node26</title>
<g id="a_node26"><a xlink:href="_chart_to_c_8h.html" target="_top" xlink:title="transform/ChartToC.h">
<polygon fill="white" stroke="black" points="472.5,-140 472.5,-159 585.5,-159 585.5,-140 472.5,-140"/>
<text text-anchor="middle" x="529" y="-147" font-family="Helvetica,sans-Serif" font-size="10.00">transform/ChartToC.h</text>
</a>
</g>
</g>
<!-- Node25&#45;&gt;Node26 -->
<g id="edge29" class="edge"><title>Node25&#45;&gt;Node26</title>
<path fill="none" stroke="midnightblue" d="M475.932,-194.973C489.511,-183.593 507.677,-168.369 518.846,-159.009"/>
<polygon fill="midnightblue" stroke="midnightblue" points="473.589,-192.369 468.173,-201.475 478.085,-197.735 473.589,-192.369"/>
</g>
<!-- Node28 -->
<g id="node28" class="node"><title>Node28</title>
<g id="a_node28"><a xlink:href="_chart_to_promela_8h.html" target="_top" xlink:title="transform/ChartToPromela.h">
<polygon fill="white" stroke="black" points="161.5,-73 161.5,-92 304.5,-92 304.5,-73 161.5,-73"/>
<text text-anchor="middle" x="233" y="-80" font-family="Helvetica,sans-Serif" font-size="10.00">transform/ChartToPromela.h</text>
</a>
</g>
</g>
<!-- Node25&#45;&gt;Node28 -->
<g id="edge36" class="edge"><title>Node25&#45;&gt;Node28</title>
<path fill="none" stroke="midnightblue" d="M387.872,-199.236C359.283,-192.555 326.929,-181.888 301,-165 271.044,-145.489 247.439,-108.746 237.762,-92.0924"/>
<polygon fill="midnightblue" stroke="midnightblue" points="387.29,-202.692 397.81,-201.437 388.803,-195.858 387.29,-202.692"/>
</g>
<!-- Node31 -->
<g id="node31" class="node"><title>Node31</title>
<g id="a_node31"><a xlink:href="_chart_to_v_h_d_l_8h.html" target="_top" xlink:title="transform/ChartToVHDL.h">
<polygon fill="white" stroke="black" points="322.5,-73 322.5,-92 455.5,-92 455.5,-73 322.5,-73"/>
<text text-anchor="middle" x="389" y="-80" font-family="Helvetica,sans-Serif" font-size="10.00">transform/ChartToVHDL.h</text>
</a>
</g>
</g>
<!-- Node25&#45;&gt;Node31 -->
<g id="edge37" class="edge"><title>Node25&#45;&gt;Node31</title>
<path fill="none" stroke="midnightblue" d="M386.023,-206.015C357.647,-200.48 327.666,-188.836 310,-165 301.796,-153.931 303.382,-146.084 310,-134 321.337,-113.298 345.176,-99.846 363.717,-92.073"/>
<polygon fill="midnightblue" stroke="midnightblue" points="385.522,-209.481 395.971,-207.729 386.71,-202.582 385.522,-209.481"/>
</g>
<!-- Node33 -->
<g id="node33" class="node"><title>Node33</title>
<g id="a_node33"><a xlink:href="_transformer_8cpp.html" target="_top" xlink:title="transform/Transformer.cpp">
<polygon fill="white" stroke="black" points="319.5,-140 319.5,-159 454.5,-159 454.5,-140 319.5,-140"/>
<text text-anchor="middle" x="387" y="-147" font-family="Helvetica,sans-Serif" font-size="10.00">transform/Transformer.cpp</text>
</a>
</g>
</g>
<!-- Node25&#45;&gt;Node33 -->
<g id="edge38" class="edge"><title>Node25&#45;&gt;Node33</title>
<path fill="none" stroke="midnightblue" d="M440.068,-194.973C426.489,-183.593 408.323,-168.369 397.154,-159.009"/>
<polygon fill="midnightblue" stroke="midnightblue" points="437.915,-197.735 447.827,-201.475 442.411,-192.369 437.915,-197.735"/>
</g>
<!-- Node27 -->
<g id="node27" class="node"><title>Node27</title>
<g id="a_node27"><a xlink:href="_chart_to_c_8cpp.html" target="_top" xlink:title="transform/ChartToC.cpp">
<polygon fill="white" stroke="black" points="474,-73 474,-92 598,-92 598,-73 474,-73"/>
<text text-anchor="middle" x="536" y="-80" font-family="Helvetica,sans-Serif" font-size="10.00">transform/ChartToC.cpp</text>
</a>
</g>
</g>
<!-- Node26&#45;&gt;Node27 -->
<g id="edge30" class="edge"><title>Node26&#45;&gt;Node27</title>
<path fill="none" stroke="midnightblue" d="M531.042,-129.537C532.374,-117.17 534.049,-101.62 535.071,-92.1273"/>
<polygon fill="midnightblue" stroke="midnightblue" points="527.535,-129.417 529.944,-139.734 534.495,-130.166 527.535,-129.417"/>
</g>
<!-- Node26&#45;&gt;Node28 -->
<g id="edge31" class="edge"><title>Node26&#45;&gt;Node28</title>
<path fill="none" stroke="midnightblue" d="M479.926,-137.724C421.64,-124.924 325.595,-103.833 272.088,-92.0834"/>
<polygon fill="midnightblue" stroke="midnightblue" points="479.481,-141.209 489.999,-139.936 480.982,-134.372 479.481,-141.209"/>
</g>
<!-- Node26&#45;&gt;Node31 -->
<g id="edge34" class="edge"><title>Node26&#45;&gt;Node31</title>
<path fill="none" stroke="midnightblue" d="M501.243,-135.613C473.514,-122.739 431.659,-103.306 407.668,-92.1672"/>
<polygon fill="midnightblue" stroke="midnightblue" points="499.865,-138.832 510.409,-139.869 502.813,-132.483 499.865,-138.832"/>
</g>
<!-- Node29 -->
<g id="node29" class="node"><title>Node29</title>
<g id="a_node29"><a xlink:href="_chart_to_promela_8cpp.html" target="_top" xlink:title="transform/ChartToPromela.cpp">
<polygon fill="white" stroke="black" points="156,-6 156,-25 310,-25 310,-6 156,-6"/>
<text text-anchor="middle" x="233" y="-13" font-family="Helvetica,sans-Serif" font-size="10.00">transform/ChartToPromela.cpp</text>
</a>
</g>
</g>
<!-- Node28&#45;&gt;Node29 -->
<g id="edge32" class="edge"><title>Node28&#45;&gt;Node29</title>
<path fill="none" stroke="midnightblue" d="M233,-62.537C233,-50.1703 233,-34.6198 233,-25.1273"/>
<polygon fill="midnightblue" stroke="midnightblue" points="229.5,-62.7338 233,-72.7338 236.5,-62.7338 229.5,-62.7338"/>
</g>
<!-- Node30 -->
<g id="node30" class="node"><title>Node30</title>
<g id="a_node30"><a xlink:href="_promela_code_analyzer_8cpp.html" target="_top" xlink:title="transform/promela/Promela\lCodeAnalyzer.cpp">
<polygon fill="white" stroke="black" points="0,-0.5 0,-30.5 138,-30.5 138,-0.5 0,-0.5"/>
<text text-anchor="start" x="8" y="-18.5" font-family="Helvetica,sans-Serif" font-size="10.00">transform/promela/Promela</text>
<text text-anchor="middle" x="69" y="-7.5" font-family="Helvetica,sans-Serif" font-size="10.00">CodeAnalyzer.cpp</text>
</a>
</g>
</g>
<!-- Node28&#45;&gt;Node30 -->
<g id="edge33" class="edge"><title>Node28&#45;&gt;Node30</title>
<path fill="none" stroke="midnightblue" d="M201.608,-69.0579C173.826,-58.0469 133.319,-41.9921 104.394,-30.5281"/>
<polygon fill="midnightblue" stroke="midnightblue" points="200.636,-72.4376 211.222,-72.8685 203.215,-65.9301 200.636,-72.4376"/>
</g>
<!-- Node32 -->
<g id="node32" class="node"><title>Node32</title>
<g id="a_node32"><a xlink:href="_chart_to_v_h_d_l_8cpp.html" target="_top" xlink:title="transform/ChartToVHDL.cpp">
<polygon fill="white" stroke="black" points="328.5,-6 328.5,-25 471.5,-25 471.5,-6 328.5,-6"/>
<text text-anchor="middle" x="400" y="-13" font-family="Helvetica,sans-Serif" font-size="10.00">transform/ChartToVHDL.cpp</text>
</a>
</g>
</g>
<!-- Node31&#45;&gt;Node32 -->
<g id="edge35" class="edge"><title>Node31&#45;&gt;Node32</title>
<path fill="none" stroke="midnightblue" d="M392.209,-62.537C394.302,-50.1703 396.934,-34.6198 398.54,-25.1273"/>
<polygon fill="midnightblue" stroke="midnightblue" points="388.701,-62.29 390.484,-72.7338 395.603,-63.458 388.701,-62.29"/>
</g>
<!-- Node34&#45;&gt;Node4 -->
<g id="edge40" class="edge"><title>Node34&#45;&gt;Node4</title>
<path fill="none" stroke="midnightblue" d="M1491.54,-376.481C1476.52,-369.424 1460.73,-358.949 1452,-344 1432.5,-310.605 1440.38,-294.181 1451,-257 1454.99,-243.021 1464.72,-229.156 1471.59,-220.589"/>
<polygon fill="midnightblue" stroke="midnightblue" points="1490.15,-379.694 1500.72,-380.442 1492.92,-373.267 1490.15,-379.694"/>
</g>
<!-- Node34&#45;&gt;Node11 -->
<g id="edge56" class="edge"><title>Node34&#45;&gt;Node11</title>
<path fill="none" stroke="midnightblue" d="M1484.3,-377.024C1466.73,-370.13 1447.95,-359.633 1436,-344 1396.91,-292.852 1373.7,-251.98 1413,-201 1422.15,-189.126 1507.56,-170.064 1561.34,-159.07"/>
<polygon fill="midnightblue" stroke="midnightblue" points="1483.28,-380.38 1493.88,-380.492 1485.67,-373.798 1483.28,-380.38"/>
</g>
<!-- Node34&#45;&gt;Node12 -->
<g id="edge57" class="edge"><title>Node34&#45;&gt;Node12</title>
<path fill="none" stroke="midnightblue" d="M1483.67,-379.007C1340.35,-347.418 898.675,-250.062 764.836,-220.56"/>
<polygon fill="midnightblue" stroke="midnightblue" points="1482.94,-382.431 1493.46,-381.166 1484.45,-375.596 1482.94,-382.431"/>
</g>
<!-- Node34&#45;&gt;Node25 -->
<g id="edge59" class="edge"><title>Node34&#45;&gt;Node25</title>
<path fill="none" stroke="midnightblue" d="M1482.69,-383.489C1417.65,-375.594 1295.58,-360.22 1192,-344 929.133,-302.835 615.314,-242.7 501.732,-220.578"/>
<polygon fill="midnightblue" stroke="midnightblue" points="1482.67,-387.011 1493.01,-384.736 1483.51,-380.061 1482.67,-387.011"/>
</g>
<!-- Node35 -->
<g id="node35" class="node"><title>Node35</title>
<g id="a_node35"><a xlink:href="_breakpoint_8h.html" target="_top" xlink:title="debug/Breakpoint.h">
<polygon fill="white" stroke="black" points="1763.5,-257.5 1763.5,-276.5 1866.5,-276.5 1866.5,-257.5 1763.5,-257.5"/>
<text text-anchor="middle" x="1815" y="-264.5" font-family="Helvetica,sans-Serif" font-size="10.00">debug/Breakpoint.h</text>
</a>
</g>
</g>
<!-- Node34&#45;&gt;Node35 -->
<g id="edge41" class="edge"><title>Node34&#45;&gt;Node35</title>
<path fill="none" stroke="midnightblue" d="M1574.75,-388.104C1621.49,-385.333 1694.7,-375.721 1749,-344 1777.97,-327.075 1800.61,-292.787 1810.12,-276.702"/>
<polygon fill="midnightblue" stroke="midnightblue" points="1574.43,-384.616 1564.62,-388.622 1574.79,-391.607 1574.43,-384.616"/>
</g>
<!-- Node36 -->
<g id="node36" class="node"><title>Node36</title>
<g id="a_node36"><a xlink:href="_debug_session_8h.html" target="_top" xlink:title="debug/DebugSession.h">
<polygon fill="white" stroke="black" points="1942,-201.5 1942,-220.5 2062,-220.5 2062,-201.5 1942,-201.5"/>
<text text-anchor="middle" x="2002" y="-208.5" font-family="Helvetica,sans-Serif" font-size="10.00">debug/DebugSession.h</text>
</a>
</g>
</g>
<!-- Node34&#45;&gt;Node36 -->
<g id="edge48" class="edge"><title>Node34&#45;&gt;Node36</title>
<path fill="none" stroke="midnightblue" d="M1574.88,-387.61C1684.34,-383.854 1953.89,-371.849 1983,-344 2017.8,-310.707 2008.59,-244.375 2003.92,-220.67"/>
<polygon fill="midnightblue" stroke="midnightblue" points="1574.67,-384.115 1564.8,-387.948 1574.91,-391.111 1574.67,-384.115"/>
</g>
<!-- Node37 -->
<g id="node37" class="node"><title>Node37</title>
<g id="a_node37"><a xlink:href="_basic_content_executor_8cpp.html" target="_top" xlink:title="interpreter/BasicContent\lExecutor.cpp">
<polygon fill="white" stroke="black" points="1616,-313.5 1616,-343.5 1740,-343.5 1740,-313.5 1616,-313.5"/>
<text text-anchor="start" x="1624" y="-331.5" font-family="Helvetica,sans-Serif" font-size="10.00">interpreter/BasicContent</text>
<text text-anchor="middle" x="1678" y="-320.5" font-family="Helvetica,sans-Serif" font-size="10.00">Executor.cpp</text>
</a>
</g>
</g>
<!-- Node34&#45;&gt;Node37 -->
<g id="edge49" class="edge"><title>Node34&#45;&gt;Node37</title>
<path fill="none" stroke="midnightblue" d="M1559.75,-376.719C1583.94,-367.062 1617.64,-353.602 1642.88,-343.523"/>
<polygon fill="midnightblue" stroke="midnightblue" points="1558.34,-373.516 1550.35,-380.475 1560.93,-380.017 1558.34,-373.516"/>
</g>
<!-- Node38 -->
<g id="node38" class="node"><title>Node38</title>
<g id="a_node38"><a xlink:href="_micro_step_impl_8h.html" target="_top" xlink:title="interpreter/MicroStepImpl.h">
<polygon fill="white" stroke="black" points="1460.5,-319 1460.5,-338 1597.5,-338 1597.5,-319 1460.5,-319"/>
<text text-anchor="middle" x="1529" y="-326" font-family="Helvetica,sans-Serif" font-size="10.00">interpreter/MicroStepImpl.h</text>
</a>
</g>
</g>
<!-- Node34&#45;&gt;Node38 -->
<g id="edge50" class="edge"><title>Node34&#45;&gt;Node38</title>
<path fill="none" stroke="midnightblue" d="M1529,-370.317C1529,-359.496 1529,-346.398 1529,-338.009"/>
<polygon fill="midnightblue" stroke="midnightblue" points="1525.5,-370.475 1529,-380.475 1532.5,-370.475 1525.5,-370.475"/>
</g>
<!-- Node42 -->
<g id="node42" class="node"><title>Node42</title>
<g id="a_node42"><a xlink:href="_factory_8cpp.html" target="_top" xlink:title="plugins/Factory.cpp">
<polygon fill="white" stroke="black" points="1796.5,-319 1796.5,-338 1899.5,-338 1899.5,-319 1796.5,-319"/>
<text text-anchor="middle" x="1848" y="-326" font-family="Helvetica,sans-Serif" font-size="10.00">plugins/Factory.cpp</text>
</a>
</g>
</g>
<!-- Node34&#45;&gt;Node42 -->
<g id="edge58" class="edge"><title>Node34&#45;&gt;Node42</title>
<path fill="none" stroke="midnightblue" d="M1574.69,-381.442C1625.44,-372.915 1709.75,-358.357 1782,-344 1791.21,-342.171 1801.1,-340.069 1810.36,-338.043"/>
<polygon fill="midnightblue" stroke="midnightblue" points="1573.98,-378.012 1564.7,-383.116 1575.14,-384.916 1573.98,-378.012"/>
</g>
<!-- Node43 -->
<g id="node43" class="node"><title>Node43</title>
<g id="a_node43"><a xlink:href="uscxml_8h.html" target="_top" xlink:title="uscxml.h">
<polygon fill="white" stroke="black" points="1918,-319 1918,-338 1974,-338 1974,-319 1918,-319"/>
<text text-anchor="middle" x="1946" y="-326" font-family="Helvetica,sans-Serif" font-size="10.00">uscxml.h</text>
</a>
</g>
</g>
<!-- Node34&#45;&gt;Node43 -->
<g id="edge60" class="edge"><title>Node34&#45;&gt;Node43</title>
<path fill="none" stroke="midnightblue" d="M1574.75,-387.349C1646.82,-383.912 1790.77,-373.646 1909,-344 1914.89,-342.523 1921.1,-340.348 1926.72,-338.13"/>
<polygon fill="midnightblue" stroke="midnightblue" points="1574.48,-383.858 1564.65,-387.809 1574.79,-390.851 1574.48,-383.858"/>
</g>
<!-- Node35&#45;&gt;Node4 -->
<g id="edge42" class="edge"><title>Node35&#45;&gt;Node4</title>
<path fill="none" stroke="midnightblue" d="M1753.36,-256.093C1689.88,-245.892 1592.01,-230.163 1531.93,-220.507"/>
<polygon fill="midnightblue" stroke="midnightblue" points="1752.81,-259.55 1763.24,-257.681 1753.92,-252.638 1752.81,-259.55"/>
</g>
<!-- Node35&#45;&gt;Node5 -->
<g id="edge43" class="edge"><title>Node35&#45;&gt;Node5</title>
<path fill="none" stroke="midnightblue" d="M1815,-246.805C1815,-237.91 1815,-227.78 1815,-220.751"/>
<polygon fill="midnightblue" stroke="midnightblue" points="1811.5,-247.083 1815,-257.083 1818.5,-247.083 1811.5,-247.083"/>
</g>
<!-- Node35&#45;&gt;Node36 -->
<g id="edge44" class="edge"><title>Node35&#45;&gt;Node36</title>
<path fill="none" stroke="midnightblue" d="M1854.59,-254.568C1889.87,-244.381 1940.69,-229.703 1972.51,-220.516"/>
<polygon fill="midnightblue" stroke="midnightblue" points="1853.27,-251.307 1844.63,-257.444 1855.21,-258.032 1853.27,-251.307"/>
</g>
<!-- Node36&#45;&gt;Node6 -->
<g id="edge45" class="edge"><title>Node36&#45;&gt;Node6</title>
<path fill="none" stroke="midnightblue" d="M1978.65,-196.244C1959.14,-184.75 1931.93,-168.723 1915.44,-159.009"/>
<polygon fill="midnightblue" stroke="midnightblue" points="1977.14,-199.415 1987.53,-201.475 1980.69,-193.384 1977.14,-199.415"/>
</g>
<!-- Node36&#45;&gt;Node8 -->
<g id="edge46" class="edge"><title>Node36&#45;&gt;Node8</title>
<path fill="none" stroke="midnightblue" d="M2067.54,-198.322C2085.96,-191.691 2103.95,-181.296 2115,-165 2122.73,-153.597 2123.21,-145.063 2115,-134 2092.88,-104.207 2053.69,-91.3632 2018.84,-86.07"/>
<polygon fill="midnightblue" stroke="midnightblue" points="2066.34,-195.034 2057.91,-201.458 2068.51,-201.69 2066.34,-195.034"/>
</g>
<!-- Node36&#45;&gt;Node9 -->
<g id="edge47" class="edge"><title>Node36&#45;&gt;Node9</title>
<path fill="none" stroke="midnightblue" d="M2012.85,-193.005C2019.95,-181.888 2028.93,-167.84 2034.57,-159.009"/>
<polygon fill="midnightblue" stroke="midnightblue" points="2009.88,-191.163 2007.44,-201.475 2015.78,-194.931 2009.88,-191.163"/>
</g>
<!-- Node38&#45;&gt;Node3 -->
<g id="edge54" class="edge"><title>Node38&#45;&gt;Node3</title>
<path fill="none" stroke="midnightblue" d="M1469.9,-317.188C1403.89,-305.67 1298.26,-287.238 1236.77,-276.509"/>
<polygon fill="midnightblue" stroke="midnightblue" points="1469.69,-320.704 1480.14,-318.975 1470.89,-313.808 1469.69,-320.704"/>
</g>
<!-- Node39 -->
<g id="node39" class="node"><title>Node39</title>
<g id="a_node39"><a xlink:href="_fast_micro_step_8h.html" target="_top" xlink:title="interpreter/FastMicroStep.h">
<polygon fill="white" stroke="black" points="1460,-257.5 1460,-276.5 1598,-276.5 1598,-257.5 1460,-257.5"/>
<text text-anchor="middle" x="1529" y="-264.5" font-family="Helvetica,sans-Serif" font-size="10.00">interpreter/FastMicroStep.h</text>
</a>
</g>
</g>
<!-- Node38&#45;&gt;Node39 -->
<g id="edge51" class="edge"><title>Node38&#45;&gt;Node39</title>
<path fill="none" stroke="midnightblue" d="M1529,-308.817C1529,-297.996 1529,-284.898 1529,-276.509"/>
<polygon fill="midnightblue" stroke="midnightblue" points="1525.5,-308.975 1529,-318.975 1532.5,-308.975 1525.5,-308.975"/>
</g>
<!-- Node41 -->
<g id="node41" class="node"><title>Node41</title>
<g id="a_node41"><a xlink:href="_micro_step_8cpp.html" target="_top" xlink:title="interpreter/MicroStep.cpp">
<polygon fill="white" stroke="black" points="1616.5,-257.5 1616.5,-276.5 1745.5,-276.5 1745.5,-257.5 1616.5,-257.5"/>
<text text-anchor="middle" x="1681" y="-264.5" font-family="Helvetica,sans-Serif" font-size="10.00">interpreter/MicroStep.cpp</text>
</a>
</g>
</g>
<!-- Node38&#45;&gt;Node41 -->
<g id="edge55" class="edge"><title>Node38&#45;&gt;Node41</title>
<path fill="none" stroke="midnightblue" d="M1560.21,-315.282C1589.75,-303.72 1633.32,-286.664 1659.26,-276.509"/>
<polygon fill="midnightblue" stroke="midnightblue" points="1558.81,-312.071 1550.78,-318.975 1561.37,-318.589 1558.81,-312.071"/>
</g>
<!-- Node39&#45;&gt;Node11 -->
<g id="edge53" class="edge"><title>Node39&#45;&gt;Node11</title>
<path fill="none" stroke="midnightblue" d="M1540.29,-248.844C1556.73,-223.857 1586.67,-178.355 1599.22,-159.282"/>
<polygon fill="midnightblue" stroke="midnightblue" points="1537.29,-247.041 1534.71,-257.319 1543.13,-250.889 1537.29,-247.041"/>
</g>
<!-- Node40 -->
<g id="node40" class="node"><title>Node40</title>
<g id="a_node40"><a xlink:href="_fast_micro_step_8cpp.html" target="_top" xlink:title="interpreter/FastMicroStep.cpp">
<polygon fill="white" stroke="black" points="1592,-201.5 1592,-220.5 1740,-220.5 1740,-201.5 1592,-201.5"/>
<text text-anchor="middle" x="1666" y="-208.5" font-family="Helvetica,sans-Serif" font-size="10.00">interpreter/FastMicroStep.cpp</text>
</a>
</g>
</g>
<!-- Node39&#45;&gt;Node40 -->
<g id="edge52" class="edge"><title>Node39&#45;&gt;Node40</title>
<path fill="none" stroke="midnightblue" d="M1560.02,-253.772C1585.76,-243.629 1621.69,-229.467 1644.39,-220.516"/>
<polygon fill="midnightblue" stroke="midnightblue" points="1558.73,-250.52 1550.71,-257.444 1561.29,-257.033 1558.73,-250.52"/>
</g>
</g>
</svg>
        <g id="navigator" transform="translate(0 0)" fill="#404254">
                <rect fill="#f2f5e9" fill-opacity="0.5" stroke="#606060" stroke-width=".5" x="0" y="0" width="60" height="60"/>
                <use id="zoomplus" xlink:href="#zoomPlus" x="17" y="9" onmousedown="handleZoom(evt,'in')"/>
                <use id="zoomminus" xlink:href="#zoomMin" x="42" y="9" onmousedown="handleZoom(evt,'out')"/>
                <use id="reset" xlink:href="#resetDef" x="30" y="36" onmousedown="handleReset()"/>
                <g id="arrowUp" xlink:href="#dirArrow" transform="translate(30 24)" onmousedown="handlePan(0,-1)">
                  <use xlink:href="#rim" fill="#404040">
                        <set attributeName="fill" to="#808080" begin="arrowUp.mouseover" end="arrowUp.mouseout"/>
                  </use>
                  <path fill="none" stroke="white" stroke-width="1.5" d="M0,-3.0v7 M-2.5,-0.5L0,-3.0L2.5,-0.5"/>
                </g>
                <g id="arrowRight" xlink:href="#dirArrow" transform="rotate(90) translate(36 -43)" onmousedown="handlePan(1,0)">
                  <use xlink:href="#rim" fill="#404040">
                        <set attributeName="fill" to="#808080" begin="arrowRight.mouseover" end="arrowRight.mouseout"/>
                  </use>
                  <path fill="none" stroke="white" stroke-width="1.5" d="M0,-3.0v7 M-2.5,-0.5L0,-3.0L2.5,-0.5"/>
                </g>
                <g id="arrowDown" xlink:href="#dirArrow" transform="rotate(180) translate(-30 -48)" onmousedown="handlePan(0,1)">
                  <use xlink:href="#rim" fill="#404040">
                        <set attributeName="fill" to="#808080" begin="arrowDown.mouseover" end="arrowDown.mouseout"/>
                  </use>
                  <path fill="none" stroke="white" stroke-width="1.5" d="M0,-3.0v7 M-2.5,-0.5L0,-3.0L2.5,-0.5"/>
                </g>
                <g id="arrowLeft" xlink:href="#dirArrow" transform="rotate(270) translate(-36 17)" onmousedown="handlePan(-1,0)">
                  <use xlink:href="#rim" fill="#404040">
                        <set attributeName="fill" to="#808080" begin="arrowLeft.mouseover" end="arrowLeft.mouseout"/>
                  </use>
                  <path fill="none" stroke="white" stroke-width="1.5" d="M0,-3.0v7 M-2.5,-0.5L0,-3.0L2.5,-0.5"/>
                </g>
        </g>
        <svg viewBox="0 0 15 15" width="100%" height="30px" preserveAspectRatio="xMaxYMin meet">
         <g id="arrow_out" transform="scale(0.3 0.3)">
          <a xlink:href="_event_queue_8h__dep__incl_org.svg" target="_base">
           <rect id="button" ry="5" rx="5" y="6" x="6" height="38" width="38"
                fill="#f2f5e9" fill-opacity="0.5" stroke="#606060" stroke-width="1.0"/>
           <path id="arrow"
             d="M 11.500037,31.436501 C 11.940474,20.09759 22.043105,11.32322 32.158766,21.979434 L 37.068811,17.246167 C 37.068811,17.246167 37.088388,32 37.088388,32 L 22.160133,31.978069 C 22.160133,31.978069 26.997745,27.140456 26.997745,27.140456 C 18.528582,18.264221 13.291696,25.230495 11.500037,31.436501 z"
             style="fill:#404040;"/>
          </a>
         </g>
        </svg>
</svg>
