<?xml version="1.0" encoding="UTF-8" standalone="no"?>
<!DOCTYPE svg PUBLIC "-//W3C//DTD SVG 1.1//EN"
 "http://www.w3.org/Graphics/SVG/1.1/DTD/svg11.dtd">
<!-- Generated by graphviz version 2.38.0 (20140413.2041)
 -->
<!-- Title: interpreter/EventQueue.h Pages: 1 -->
<!--zoomable 464 -->
<svg id="main" version="1.1" xmlns="http://www.w3.org/2000/svg" xmlns:xlink="http://www.w3.org/1999/xlink" xml:space="preserve" onload="init(evt)">
<style type="text/css"><![CDATA[
.edge:hover path { stroke: red; }
.edge:hover polygon { stroke: red; fill: red; }
]]></style>
<script type="text/javascript"><![CDATA[
var edges = document.getElementsByTagName('g');
if (edges && edges.length) {
  for (var i=0;i<edges.length;i++) {
    if (edges[i].id.substr(0,4)=='edge') {
      edges[i].setAttribute('class','edge');
    }
  }
}
]]></script>
        <defs>
                <circle id="rim" cx="0" cy="0" r="7"/>
                <circle id="rim2" cx="0" cy="0" r="3.5"/>
                <g id="zoomPlus">
                        <use xlink:href="#rim" fill="#404040">
                                <set attributeName="fill" to="#808080" begin="zoomplus.mouseover" end="zoomplus.mouseout"/>
                        </use>
                        <path d="M-4,0h8M0,-4v8" fill="none" stroke="white" stroke-width="1.5" pointer-events="none"/>
                </g>
                <g id="zoomMin">
                        <use xlink:href="#rim" fill="#404040">
                                <set attributeName="fill" to="#808080" begin="zoomminus.mouseover" end="zoomminus.mouseout"/>
                        </use>
                        <path d="M-4,0h8" fill="none" stroke="white" stroke-width="1.5" pointer-events="none"/>
                </g>
                <g id="dirArrow">
                        <path fill="none" stroke="white" stroke-width="1.5" d="M0,-3.0v7 M-2.5,-0.5L0,-3.0L2.5,-0.5"/>
                </g>
               <g id="resetDef">
                       <use xlink:href="#rim2" fill="#404040">
                               <set attributeName="fill" to="#808080" begin="reset.mouseover" end="reset.mouseout"/>
                       </use>
               </g>
        </defs>

<script type="text/javascript">
var viewWidth = 2131;
var viewHeight = 464;
var sectionId = 'dynsection-1';
</script>
<script xlink:href="svgpan.js"/>
<svg id="graph" class="graph">
<g id="viewport">
<title>interpreter/EventQueue.h</title>
<polygon fill="white" stroke="none" points="-4,4 -4,-460 2126.56,-460 2126.56,4 -4,4"/>
<!-- Node1 -->
<g id="node1" class="node"><title>Node1</title>
<polygon fill="#bfbfbf" stroke="black" points="699.559,-436.5 699.559,-455.5 828.559,-455.5 828.559,-436.5 699.559,-436.5"/>
<text text-anchor="middle" x="764.059" y="-443.5" font-family="Helvetica,sans-Serif" font-size="10.00">interpreter/EventQueue.h</text>
</g>
<!-- Node2 -->
<g id="node2" class="node"><title>Node2</title>
<g id="a_node2"><a xlink:href="_event_queue_8cpp.html" target="_top" xlink:title="interpreter/EventQueue.cpp">
<polygon fill="white" stroke="black" points="571.559,-380.5 571.559,-399.5 710.559,-399.5 710.559,-380.5 571.559,-380.5"/>
<text text-anchor="middle" x="641.059" y="-387.5" font-family="Helvetica,sans-Serif" font-size="10.00">interpreter/EventQueue.cpp</text>
</a>
</g>
</g>
<!-- Node1&#45;&gt;Node2 -->
<g id="edge1" class="edge"><title>Node1&#45;&gt;Node2</title>
<path fill="none" stroke="midnightblue" d="M735.286,-432.368C712.252,-422.255 680.575,-408.349 660.458,-399.516"/>
<polygon fill="midnightblue" stroke="midnightblue" points="734.006,-435.628 744.57,-436.444 736.82,-429.219 734.006,-435.628"/>
</g>
<!-- Node3 -->
<g id="node3" class="node"><title>Node3</title>
<g id="a_node3"><a xlink:href="_interpreter_impl_8h.html" target="_top" xlink:title="interpreter/InterpreterImpl.h">
<polygon fill="white" stroke="black" points="884.059,-257.5 884.059,-276.5 1022.06,-276.5 1022.06,-257.5 884.059,-257.5"/>
<text text-anchor="middle" x="953.059" y="-264.5" font-family="Helvetica,sans-Serif" font-size="10.00">interpreter/InterpreterImpl.h</text>
</a>
</g>
</g>
<!-- Node1&#45;&gt;Node3 -->
<g id="edge2" class="edge"><title>Node1&#45;&gt;Node3</title>
<path fill="none" stroke="midnightblue" d="M838.913,-439.273C901.831,-430.05 988.163,-406.089 1031.06,-344 1038.89,-332.664 1037.95,-324.931 1031.06,-313 1020.58,-294.859 999.702,-283.38 982.18,-276.559"/>
<polygon fill="midnightblue" stroke="midnightblue" points="838.067,-435.856 828.635,-440.68 839.017,-442.791 838.067,-435.856"/>
</g>
<!-- Node36 -->
<g id="node36" class="node"><title>Node36</title>
<g id="a_node36"><a xlink:href="_interpreter_8h.html" target="_top" xlink:title="Interpreter.h">
<polygon fill="white" stroke="black" points="728.559,-380.5 728.559,-399.5 799.559,-399.5 799.559,-380.5 728.559,-380.5"/>
<text text-anchor="middle" x="764.059" y="-387.5" font-family="Helvetica,sans-Serif" font-size="10.00">Interpreter.h</text>
</a>
</g>
</g>
<!-- Node1&#45;&gt;Node36 -->
<g id="edge42" class="edge"><title>Node1&#45;&gt;Node36</title>
<path fill="none" stroke="midnightblue" d="M764.059,-425.805C764.059,-416.91 764.059,-406.78 764.059,-399.751"/>
<polygon fill="midnightblue" stroke="midnightblue" points="760.559,-426.083 764.059,-436.083 767.559,-426.083 760.559,-426.083"/>
</g>
<!-- Node4 -->
<g id="node4" class="node"><title>Node4</title>
<g id="a_node4"><a xlink:href="_breakpoint_8cpp.html" target="_top" xlink:title="debug/Breakpoint.cpp">
<polygon fill="white" stroke="black" points="376.059,-201.5 376.059,-220.5 490.059,-220.5 490.059,-201.5 376.059,-201.5"/>
<text text-anchor="middle" x="433.059" y="-208.5" font-family="Helvetica,sans-Serif" font-size="10.00">debug/Breakpoint.cpp</text>
</a>
</g>
</g>
<!-- Node3&#45;&gt;Node4 -->
<g id="edge3" class="edge"><title>Node3&#45;&gt;Node4</title>
<path fill="none" stroke="midnightblue" d="M874.036,-257.794C768.392,-246.823 583.649,-227.638 490.389,-217.953"/>
<polygon fill="midnightblue" stroke="midnightblue" points="873.699,-261.277 884.007,-258.829 874.422,-254.315 873.699,-261.277"/>
</g>
<!-- Node5 -->
<g id="node5" class="node"><title>Node5</title>
<g id="a_node5"><a xlink:href="_debugger_8h.html" target="_top" xlink:title="debug/Debugger.h">
<polygon fill="white" stroke="black" points="258.559,-201.5 258.559,-220.5 357.559,-220.5 357.559,-201.5 258.559,-201.5"/>
<text text-anchor="middle" x="308.059" y="-208.5" font-family="Helvetica,sans-Serif" font-size="10.00">debug/Debugger.h</text>
</a>
</g>
</g>
<!-- Node3&#45;&gt;Node5 -->
<g id="edge4" class="edge"><title>Node3&#45;&gt;Node5</title>
<path fill="none" stroke="midnightblue" d="M873.973,-259.601C862.92,-258.72 851.705,-257.832 841.059,-257 630.428,-240.539 576.971,-244.947 367.059,-221 363.971,-220.648 360.796,-220.254 357.597,-219.834"/>
<polygon fill="midnightblue" stroke="midnightblue" points="873.81,-263.099 884.057,-260.407 874.368,-256.122 873.81,-263.099"/>
</g>
<!-- Node10 -->
<g id="node10" class="node"><title>Node10</title>
<g id="a_node10"><a xlink:href="_interpreter_issue_8cpp.html" target="_top" xlink:title="debug/InterpreterIssue.cpp">
<polygon fill="white" stroke="black" points="994.059,-201.5 994.059,-220.5 1130.06,-220.5 1130.06,-201.5 994.059,-201.5"/>
<text text-anchor="middle" x="1062.06" y="-208.5" font-family="Helvetica,sans-Serif" font-size="10.00">debug/InterpreterIssue.cpp</text>
</a>
</g>
</g>
<!-- Node3&#45;&gt;Node10 -->
<g id="edge9" class="edge"><title>Node3&#45;&gt;Node10</title>
<path fill="none" stroke="midnightblue" d="M979.578,-252.862C999.79,-242.849 1027.05,-229.346 1044.59,-220.655"/>
<polygon fill="midnightblue" stroke="midnightblue" points="977.979,-249.748 970.572,-257.324 981.086,-256.021 977.979,-249.748"/>
</g>
<!-- Node11 -->
<g id="node11" class="node"><title>Node11</title>
<g id="a_node11"><a xlink:href="_interpreter_impl_8cpp.html" target="_top" xlink:title="interpreter/InterpreterImpl.cpp">
<polygon fill="white" stroke="black" points="443.559,-140 443.559,-159 592.559,-159 592.559,-140 443.559,-140"/>
<text text-anchor="middle" x="518.059" y="-147" font-family="Helvetica,sans-Serif" font-size="10.00">interpreter/InterpreterImpl.cpp</text>
</a>
</g>
</g>
<!-- Node3&#45;&gt;Node11 -->
<g id="edge10" class="edge"><title>Node3&#45;&gt;Node11</title>
<path fill="none" stroke="midnightblue" d="M892.22,-255.41C856.89,-248.113 812.005,-236.846 774.059,-221 758.234,-214.391 756.962,-207.421 741.059,-201 709.312,-188.18 619.098,-169.708 563.624,-159.021"/>
<polygon fill="midnightblue" stroke="midnightblue" points="891.893,-258.915 902.387,-257.456 893.274,-252.052 891.893,-258.915"/>
</g>
<!-- Node12 -->
<g id="node12" class="node"><title>Node12</title>
<g id="a_node12"><a xlink:href="_interpreter_8cpp.html" target="_top" xlink:title="Interpreter.cpp">
<polygon fill="white" stroke="black" points="1538.06,-201.5 1538.06,-220.5 1620.06,-220.5 1620.06,-201.5 1538.06,-201.5"/>
<text text-anchor="middle" x="1579.06" y="-208.5" font-family="Helvetica,sans-Serif" font-size="10.00">Interpreter.cpp</text>
</a>
</g>
</g>
<!-- Node3&#45;&gt;Node12 -->
<g id="edge11" class="edge"><title>Node3&#45;&gt;Node12</title>
<path fill="none" stroke="midnightblue" d="M1032.68,-257.312C1033.81,-257.206 1034.94,-257.102 1036.06,-257 1252.64,-237.275 1308.09,-246.585 1524.06,-221 1528.58,-220.465 1533.29,-219.823 1537.97,-219.132"/>
<polygon fill="midnightblue" stroke="midnightblue" points="1031.95,-253.866 1022.33,-258.308 1032.62,-260.833 1031.95,-253.866"/>
</g>
<!-- Node13 -->
<g id="node13" class="node"><title>Node13</title>
<g id="a_node13"><a xlink:href="_u_s_c_x_m_l_invoker_8h.html" target="_top" xlink:title="plugins/invoker/scxml\l/USCXMLInvoker.h">
<polygon fill="white" stroke="black" points="611.059,-134.5 611.059,-164.5 723.059,-164.5 723.059,-134.5 611.059,-134.5"/>
<text text-anchor="start" x="619.059" y="-152.5" font-family="Helvetica,sans-Serif" font-size="10.00">plugins/invoker/scxml</text>
<text text-anchor="middle" x="667.059" y="-141.5" font-family="Helvetica,sans-Serif" font-size="10.00">/USCXMLInvoker.h</text>
</a>
</g>
</g>
<!-- Node3&#45;&gt;Node13 -->
<g id="edge12" class="edge"><title>Node3&#45;&gt;Node13</title>
<path fill="none" stroke="midnightblue" d="M914.151,-254.487C886.711,-246.038 849.258,-233.84 817.059,-221 814.027,-219.791 739.896,-184.859 697.006,-164.63"/>
<polygon fill="midnightblue" stroke="midnightblue" points="913.193,-257.854 923.779,-257.424 915.236,-251.159 913.193,-257.854"/>
</g>
<!-- Node15 -->
<g id="node15" class="node"><title>Node15</title>
<g id="a_node15"><a xlink:href="_invoker_impl_8h.html" target="_top" xlink:title="plugins/InvokerImpl.h">
<polygon fill="white" stroke="black" points="826.559,-201.5 826.559,-220.5 937.559,-220.5 937.559,-201.5 826.559,-201.5"/>
<text text-anchor="middle" x="882.059" y="-208.5" font-family="Helvetica,sans-Serif" font-size="10.00">plugins/InvokerImpl.h</text>
</a>
</g>
</g>
<!-- Node3&#45;&gt;Node15 -->
<g id="edge14" class="edge"><title>Node3&#45;&gt;Node15</title>
<path fill="none" stroke="midnightblue" d="M933.47,-251.101C920.692,-241.382 904.447,-229.027 893.674,-220.834"/>
<polygon fill="midnightblue" stroke="midnightblue" points="931.574,-254.056 941.652,-257.324 935.811,-248.484 931.574,-254.056"/>
</g>
<!-- Node19 -->
<g id="node19" class="node"><title>Node19</title>
<g id="a_node19"><a xlink:href="_basic_h_t_t_p_i_o_processor_8h.html" target="_top" xlink:title="plugins/ioprocessor\l/basichttp/BasicHTTPIOProcessor.h">
<polygon fill="white" stroke="black" points="997.559,-134.5 997.559,-164.5 1174.56,-164.5 1174.56,-134.5 997.559,-134.5"/>
<text text-anchor="start" x="1005.56" y="-152.5" font-family="Helvetica,sans-Serif" font-size="10.00">plugins/ioprocessor</text>
<text text-anchor="middle" x="1086.06" y="-141.5" font-family="Helvetica,sans-Serif" font-size="10.00">/basichttp/BasicHTTPIOProcessor.h</text>
</a>
</g>
</g>
<!-- Node3&#45;&gt;Node19 -->
<g id="edge20" class="edge"><title>Node3&#45;&gt;Node19</title>
<path fill="none" stroke="midnightblue" d="M958.472,-247.707C963.453,-233.501 972.059,-214.081 985.059,-201 1001.3,-184.661 1023.91,-172.683 1043.62,-164.503"/>
<polygon fill="midnightblue" stroke="midnightblue" points="955.097,-246.771 955.358,-257.363 961.759,-248.92 955.097,-246.771"/>
</g>
<!-- Node21 -->
<g id="node21" class="node"><title>Node21</title>
<g id="a_node21"><a xlink:href="_s_c_x_m_l_i_o_processor_8cpp.html" target="_top" xlink:title="plugins/ioprocessor\l/scxml/SCXMLIOProcessor.cpp">
<polygon fill="white" stroke="black" points="1333.56,-67.5 1333.56,-97.5 1490.56,-97.5 1490.56,-67.5 1333.56,-67.5"/>
<text text-anchor="start" x="1341.56" y="-85.5" font-family="Helvetica,sans-Serif" font-size="10.00">plugins/ioprocessor</text>
<text text-anchor="middle" x="1412.06" y="-74.5" font-family="Helvetica,sans-Serif" font-size="10.00">/scxml/SCXMLIOProcessor.cpp</text>
</a>
</g>
</g>
<!-- Node3&#45;&gt;Node21 -->
<g id="edge22" class="edge"><title>Node3&#45;&gt;Node21</title>
<path fill="none" stroke="midnightblue" d="M1032.18,-256.805C1129.32,-245.4 1284.49,-226.756 1311.06,-221 1392.94,-203.262 1441.39,-232.471 1491.06,-165 1499.23,-153.905 1497.68,-146.084 1491.06,-134 1482.07,-117.581 1465.21,-105.723 1449.37,-97.6408"/>
<polygon fill="midnightblue" stroke="midnightblue" points="1031.62,-253.347 1022.1,-257.988 1032.44,-260.299 1031.62,-253.347"/>
</g>
<!-- Node22 -->
<g id="node22" class="node"><title>Node22</title>
<g id="a_node22"><a xlink:href="_i_o_processor_impl_8h.html" target="_top" xlink:title="plugins/IOProcessorImpl.h">
<polygon fill="white" stroke="black" points="1168.06,-201.5 1168.06,-220.5 1302.06,-220.5 1302.06,-201.5 1168.06,-201.5"/>
<text text-anchor="middle" x="1235.06" y="-208.5" font-family="Helvetica,sans-Serif" font-size="10.00">plugins/IOProcessorImpl.h</text>
</a>
</g>
</g>
<!-- Node3&#45;&gt;Node22 -->
<g id="edge23" class="edge"><title>Node3&#45;&gt;Node22</title>
<path fill="none" stroke="midnightblue" d="M1007.7,-255.537C1060.99,-245.332 1141.06,-229.999 1190.58,-220.516"/>
<polygon fill="midnightblue" stroke="midnightblue" points="1006.91,-252.125 997.743,-257.444 1008.22,-259 1006.91,-252.125"/>
</g>
<!-- Node25 -->
<g id="node25" class="node"><title>Node25</title>
<g id="a_node25"><a xlink:href="_transformer_8h.html" target="_top" xlink:title="transform/Transformer.h">
<polygon fill="white" stroke="black" points="1640.06,-201.5 1640.06,-220.5 1764.06,-220.5 1764.06,-201.5 1640.06,-201.5"/>
<text text-anchor="middle" x="1702.06" y="-208.5" font-family="Helvetica,sans-Serif" font-size="10.00">transform/Transformer.h</text>
</a>
</g>
</g>
<!-- Node3&#45;&gt;Node25 -->
<g id="edge28" class="edge"><title>Node3&#45;&gt;Node25</title>
<path fill="none" stroke="midnightblue" d="M1032.21,-260.004C1046.16,-258.979 1060.53,-257.942 1074.06,-257 1320.65,-239.832 1382.96,-244.133 1629.06,-221 1632.62,-220.665 1636.27,-220.296 1639.96,-219.904"/>
<polygon fill="midnightblue" stroke="midnightblue" points="1031.87,-256.52 1022.16,-260.747 1032.39,-263.501 1031.87,-256.52"/>
</g>
<!-- Node6 -->
<g id="node6" class="node"><title>Node6</title>
<g id="a_node6"><a xlink:href="_debugger_8cpp.html" target="_top" xlink:title="debug/Debugger.cpp">
<polygon fill="white" stroke="black" points="17.0593,-140 17.0593,-159 127.059,-159 127.059,-140 17.0593,-140"/>
<text text-anchor="middle" x="72.0593" y="-147" font-family="Helvetica,sans-Serif" font-size="10.00">debug/Debugger.cpp</text>
</a>
</g>
</g>
<!-- Node5&#45;&gt;Node6 -->
<g id="edge5" class="edge"><title>Node5&#45;&gt;Node6</title>
<path fill="none" stroke="midnightblue" d="M264.304,-198.968C218.477,-187.415 147.489,-169.517 105.81,-159.009"/>
<polygon fill="midnightblue" stroke="midnightblue" points="263.694,-202.424 274.246,-201.475 265.405,-195.637 263.694,-202.424"/>
</g>
<!-- Node7 -->
<g id="node7" class="node"><title>Node7</title>
<g id="a_node7"><a xlink:href="_debugger_servlet_8h.html" target="_top" xlink:title="debug/DebuggerServlet.h">
<polygon fill="white" stroke="black" points="295.059,-140 295.059,-159 425.059,-159 425.059,-140 295.059,-140"/>
<text text-anchor="middle" x="360.059" y="-147" font-family="Helvetica,sans-Serif" font-size="10.00">debug/DebuggerServlet.h</text>
</a>
</g>
</g>
<!-- Node5&#45;&gt;Node7 -->
<g id="edge6" class="edge"><title>Node5&#45;&gt;Node7</title>
<path fill="none" stroke="midnightblue" d="M322.332,-193.669C332.135,-182.452 344.751,-168.016 352.623,-159.009"/>
<polygon fill="midnightblue" stroke="midnightblue" points="319.455,-191.642 315.51,-201.475 324.726,-196.249 319.455,-191.642"/>
</g>
<!-- Node9 -->
<g id="node9" class="node"><title>Node9</title>
<g id="a_node9"><a xlink:href="_debug_session_8cpp.html" target="_top" xlink:title="debug/DebugSession.cpp">
<polygon fill="white" stroke="black" points="145.559,-140 145.559,-159 276.559,-159 276.559,-140 145.559,-140"/>
<text text-anchor="middle" x="211.059" y="-147" font-family="Helvetica,sans-Serif" font-size="10.00">debug/DebugSession.cpp</text>
</a>
</g>
</g>
<!-- Node5&#45;&gt;Node9 -->
<g id="edge8" class="edge"><title>Node5&#45;&gt;Node9</title>
<path fill="none" stroke="midnightblue" d="M285.634,-196.244C266.895,-184.75 240.767,-168.723 224.931,-159.009"/>
<polygon fill="midnightblue" stroke="midnightblue" points="283.807,-199.23 294.162,-201.475 287.467,-193.263 283.807,-199.23"/>
</g>
<!-- Node8 -->
<g id="node8" class="node"><title>Node8</title>
<g id="a_node8"><a xlink:href="_debugger_servlet_8cpp.html" target="_top" xlink:title="debug/DebuggerServlet.cpp">
<polygon fill="white" stroke="black" points="104.559,-73 104.559,-92 245.559,-92 245.559,-73 104.559,-73"/>
<text text-anchor="middle" x="175.059" y="-80" font-family="Helvetica,sans-Serif" font-size="10.00">debug/DebuggerServlet.cpp</text>
</a>
</g>
</g>
<!-- Node7&#45;&gt;Node8 -->
<g id="edge7" class="edge"><title>Node7&#45;&gt;Node8</title>
<path fill="none" stroke="midnightblue" d="M325.724,-136.436C289.024,-123.542 231.767,-103.424 199.433,-92.0637"/>
<polygon fill="midnightblue" stroke="midnightblue" points="324.898,-139.856 335.493,-139.869 327.218,-133.251 324.898,-139.856"/>
</g>
<!-- Node14 -->
<g id="node14" class="node"><title>Node14</title>
<g id="a_node14"><a xlink:href="_u_s_c_x_m_l_invoker_8cpp.html" target="_top" xlink:title="plugins/invoker/scxml\l/USCXMLInvoker.cpp">
<polygon fill="white" stroke="black" points="610.559,-67.5 610.559,-97.5 723.559,-97.5 723.559,-67.5 610.559,-67.5"/>
<text text-anchor="start" x="618.559" y="-85.5" font-family="Helvetica,sans-Serif" font-size="10.00">plugins/invoker/scxml</text>
<text text-anchor="middle" x="667.059" y="-74.5" font-family="Helvetica,sans-Serif" font-size="10.00">/USCXMLInvoker.cpp</text>
</a>
</g>
</g>
<!-- Node13&#45;&gt;Node14 -->
<g id="edge13" class="edge"><title>Node13&#45;&gt;Node14</title>
<path fill="none" stroke="midnightblue" d="M667.059,-124.108C667.059,-115.154 667.059,-105.323 667.059,-97.5765"/>
<polygon fill="midnightblue" stroke="midnightblue" points="663.559,-124.396 667.059,-134.396 670.559,-124.396 663.559,-124.396"/>
</g>
<!-- Node15&#45;&gt;Node11 -->
<g id="edge15" class="edge"><title>Node15&#45;&gt;Node11</title>
<path fill="none" stroke="midnightblue" d="M817.916,-199.908C761.142,-190.923 676.049,-177.331 602.059,-165 590.673,-163.102 578.427,-161.015 566.903,-159.03"/>
<polygon fill="midnightblue" stroke="midnightblue" points="817.404,-203.37 827.828,-201.475 818.498,-196.456 817.404,-203.37"/>
</g>
<!-- Node15&#45;&gt;Node13 -->
<g id="edge18" class="edge"><title>Node15&#45;&gt;Node13</title>
<path fill="none" stroke="midnightblue" d="M841.351,-198.734C806.262,-189.023 755.447,-174.961 717.731,-164.523"/>
<polygon fill="midnightblue" stroke="midnightblue" points="840.684,-202.181 851.255,-201.475 842.551,-195.435 840.684,-202.181"/>
</g>
<!-- Node16 -->
<g id="node16" class="node"><title>Node16</title>
<g id="a_node16"><a xlink:href="_dir_mon_invoker_8h.html" target="_top" xlink:title="plugins/invoker/dirmon\l/DirMonInvoker.h">
<polygon fill="white" stroke="black" points="741.559,-134.5 741.559,-164.5 858.559,-164.5 858.559,-134.5 741.559,-134.5"/>
<text text-anchor="start" x="749.559" y="-152.5" font-family="Helvetica,sans-Serif" font-size="10.00">plugins/invoker/dirmon</text>
<text text-anchor="middle" x="800.059" y="-141.5" font-family="Helvetica,sans-Serif" font-size="10.00">/DirMonInvoker.h</text>
</a>
</g>
</g>
<!-- Node15&#45;&gt;Node16 -->
<g id="edge16" class="edge"><title>Node15&#45;&gt;Node16</title>
<path fill="none" stroke="midnightblue" d="M862.032,-195.468C849.049,-186.047 832.226,-173.841 819.385,-164.523"/>
<polygon fill="midnightblue" stroke="midnightblue" points="860.161,-198.435 870.311,-201.475 864.272,-192.769 860.161,-198.435"/>
</g>
<!-- Node18 -->
<g id="node18" class="node"><title>Node18</title>
<g id="a_node18"><a xlink:href="_invoker_8cpp.html" target="_top" xlink:title="plugins/Invoker.cpp">
<polygon fill="white" stroke="black" points="876.559,-140 876.559,-159 979.559,-159 979.559,-140 876.559,-140"/>
<text text-anchor="middle" x="928.059" y="-147" font-family="Helvetica,sans-Serif" font-size="10.00">plugins/Invoker.cpp</text>
</a>
</g>
</g>
<!-- Node15&#45;&gt;Node18 -->
<g id="edge19" class="edge"><title>Node15&#45;&gt;Node18</title>
<path fill="none" stroke="midnightblue" d="M894.941,-193.338C903.575,-182.169 914.586,-167.928 921.481,-159.009"/>
<polygon fill="midnightblue" stroke="midnightblue" points="891.997,-191.423 888.65,-201.475 897.535,-195.704 891.997,-191.423"/>
</g>
<!-- Node17 -->
<g id="node17" class="node"><title>Node17</title>
<g id="a_node17"><a xlink:href="_dir_mon_invoker_8cpp.html" target="_top" xlink:title="plugins/invoker/dirmon\l/DirMonInvoker.cpp">
<polygon fill="white" stroke="black" points="741.559,-67.5 741.559,-97.5 858.559,-97.5 858.559,-67.5 741.559,-67.5"/>
<text text-anchor="start" x="749.559" y="-85.5" font-family="Helvetica,sans-Serif" font-size="10.00">plugins/invoker/dirmon</text>
<text text-anchor="middle" x="800.059" y="-74.5" font-family="Helvetica,sans-Serif" font-size="10.00">/DirMonInvoker.cpp</text>
</a>
</g>
</g>
<!-- Node16&#45;&gt;Node17 -->
<g id="edge17" class="edge"><title>Node16&#45;&gt;Node17</title>
<path fill="none" stroke="midnightblue" d="M800.059,-124.108C800.059,-115.154 800.059,-105.323 800.059,-97.5765"/>
<polygon fill="midnightblue" stroke="midnightblue" points="796.559,-124.396 800.059,-134.396 803.559,-124.396 796.559,-124.396"/>
</g>
<!-- Node20 -->
<g id="node20" class="node"><title>Node20</title>
<g id="a_node20"><a xlink:href="_basic_h_t_t_p_i_o_processor_8cpp.html" target="_top" xlink:title="plugins/ioprocessor\l/basichttp/BasicHTTPIOProcessor.cpp">
<polygon fill="white" stroke="black" points="992.559,-67.5 992.559,-97.5 1179.56,-97.5 1179.56,-67.5 992.559,-67.5"/>
<text text-anchor="start" x="1000.56" y="-85.5" font-family="Helvetica,sans-Serif" font-size="10.00">plugins/ioprocessor</text>
<text text-anchor="middle" x="1086.06" y="-74.5" font-family="Helvetica,sans-Serif" font-size="10.00">/basichttp/BasicHTTPIOProcessor.cpp</text>
</a>
</g>
</g>
<!-- Node19&#45;&gt;Node20 -->
<g id="edge21" class="edge"><title>Node19&#45;&gt;Node20</title>
<path fill="none" stroke="midnightblue" d="M1086.06,-124.108C1086.06,-115.154 1086.06,-105.323 1086.06,-97.5765"/>
<polygon fill="midnightblue" stroke="midnightblue" points="1082.56,-124.396 1086.06,-134.396 1089.56,-124.396 1082.56,-124.396"/>
</g>
<!-- Node22&#45;&gt;Node19 -->
<g id="edge24" class="edge"><title>Node22&#45;&gt;Node19</title>
<path fill="none" stroke="midnightblue" d="M1204.31,-197.719C1180.12,-188.062 1146.42,-174.602 1121.18,-164.523"/>
<polygon fill="midnightblue" stroke="midnightblue" points="1203.13,-201.017 1213.71,-201.475 1205.72,-194.516 1203.13,-201.017"/>
</g>
<!-- Node23 -->
<g id="node23" class="node"><title>Node23</title>
<g id="a_node23"><a xlink:href="_s_c_x_m_l_i_o_processor_8h.html" target="_top" xlink:title="plugins/ioprocessor\l/scxml/SCXMLIOProcessor.h">
<polygon fill="white" stroke="black" points="1336.06,-134.5 1336.06,-164.5 1482.06,-164.5 1482.06,-134.5 1336.06,-134.5"/>
<text text-anchor="start" x="1344.06" y="-152.5" font-family="Helvetica,sans-Serif" font-size="10.00">plugins/ioprocessor</text>
<text text-anchor="middle" x="1409.06" y="-141.5" font-family="Helvetica,sans-Serif" font-size="10.00">/scxml/SCXMLIOProcessor.h</text>
</a>
</g>
</g>
<!-- Node22&#45;&gt;Node23 -->
<g id="edge25" class="edge"><title>Node22&#45;&gt;Node23</title>
<path fill="none" stroke="midnightblue" d="M1269.48,-198.23C1297.81,-188.542 1338.05,-174.782 1368.05,-164.523"/>
<polygon fill="midnightblue" stroke="midnightblue" points="1268.32,-194.928 1259.99,-201.475 1270.58,-201.551 1268.32,-194.928"/>
</g>
<!-- Node24 -->
<g id="node24" class="node"><title>Node24</title>
<g id="a_node24"><a xlink:href="_i_o_processor_8cpp.html" target="_top" xlink:title="plugins/IOProcessor.cpp">
<polygon fill="white" stroke="black" points="1192.56,-140 1192.56,-159 1317.56,-159 1317.56,-140 1192.56,-140"/>
<text text-anchor="middle" x="1255.06" y="-147" font-family="Helvetica,sans-Serif" font-size="10.00">plugins/IOProcessor.cpp</text>
</a>
</g>
</g>
<!-- Node22&#45;&gt;Node24 -->
<g id="edge27" class="edge"><title>Node22&#45;&gt;Node24</title>
<path fill="none" stroke="midnightblue" d="M1241.22,-191.657C1244.88,-180.772 1249.35,-167.486 1252.2,-159.009"/>
<polygon fill="midnightblue" stroke="midnightblue" points="1237.79,-190.881 1237.92,-201.475 1244.43,-193.111 1237.79,-190.881"/>
</g>
<!-- Node23&#45;&gt;Node21 -->
<g id="edge26" class="edge"><title>Node23&#45;&gt;Node21</title>
<path fill="none" stroke="midnightblue" d="M1410.17,-124.403C1410.59,-115.37 1411.05,-105.408 1411.41,-97.5765"/>
<polygon fill="midnightblue" stroke="midnightblue" points="1406.68,-124.245 1409.71,-134.396 1413.67,-124.568 1406.68,-124.245"/>
</g>
<!-- Node26 -->
<g id="node26" class="node"><title>Node26</title>
<g id="a_node26"><a xlink:href="_chart_to_c_8h.html" target="_top" xlink:title="transform/ChartToC.h">
<polygon fill="white" stroke="black" points="1730.56,-140 1730.56,-159 1843.56,-159 1843.56,-140 1730.56,-140"/>
<text text-anchor="middle" x="1787.06" y="-147" font-family="Helvetica,sans-Serif" font-size="10.00">transform/ChartToC.h</text>
</a>
</g>
</g>
<!-- Node25&#45;&gt;Node26 -->
<g id="edge29" class="edge"><title>Node25&#45;&gt;Node26</title>
<path fill="none" stroke="midnightblue" d="M1722.61,-195.613C1738.96,-184.169 1761.28,-168.546 1774.9,-159.009"/>
<polygon fill="midnightblue" stroke="midnightblue" points="1720.42,-192.873 1714.24,-201.475 1724.44,-198.608 1720.42,-192.873"/>
</g>
<!-- Node28 -->
<g id="node28" class="node"><title>Node28</title>
<g id="a_node28"><a xlink:href="_chart_to_java_8h.html" target="_top" xlink:title="transform/ChartToJava.h">
<polygon fill="white" stroke="black" points="1512.56,-73 1512.56,-92 1639.56,-92 1639.56,-73 1512.56,-73"/>
<text text-anchor="middle" x="1576.06" y="-80" font-family="Helvetica,sans-Serif" font-size="10.00">transform/ChartToJava.h</text>
</a>
</g>
</g>
<!-- Node25&#45;&gt;Node28 -->
<g id="edge38" class="edge"><title>Node25&#45;&gt;Node28</title>
<path fill="none" stroke="midnightblue" d="M1701.75,-191.251C1700.55,-174.521 1696.38,-150.228 1683.06,-134 1665.27,-112.329 1636.03,-99.4104 1612.61,-92.0721"/>
<polygon fill="midnightblue" stroke="midnightblue" points="1698.26,-191.593 1702.19,-201.433 1705.26,-191.291 1698.26,-191.593"/>
</g>
<!-- Node30 -->
<g id="node30" class="node"><title>Node30</title>
<g id="a_node30"><a xlink:href="_chart_to_promela_8h.html" target="_top" xlink:title="transform/ChartToPromela.h">
<polygon fill="white" stroke="black" points="1800.56,-73 1800.56,-92 1943.56,-92 1943.56,-73 1800.56,-73"/>
<text text-anchor="middle" x="1872.06" y="-80" font-family="Helvetica,sans-Serif" font-size="10.00">transform/ChartToPromela.h</text>
</a>
</g>
</g>
<!-- Node25&#45;&gt;Node30 -->
<g id="edge39" class="edge"><title>Node25&#45;&gt;Node30</title>
<path fill="none" stroke="midnightblue" d="M1773.93,-204.026C1802.14,-198.121 1832.6,-186.739 1853.06,-165 1872.18,-144.687 1873.31,-109 1872.68,-92.4256"/>
<polygon fill="midnightblue" stroke="midnightblue" points="1773.24,-200.595 1764.06,-205.894 1774.54,-207.473 1773.24,-200.595"/>
</g>
<!-- Node33 -->
<g id="node33" class="node"><title>Node33</title>
<g id="a_node33"><a xlink:href="_chart_to_v_h_d_l_8h.html" target="_top" xlink:title="transform/ChartToVHDL.h">
<polygon fill="white" stroke="black" points="1961.56,-73 1961.56,-92 2094.56,-92 2094.56,-73 1961.56,-73"/>
<text text-anchor="middle" x="2028.06" y="-80" font-family="Helvetica,sans-Serif" font-size="10.00">transform/ChartToVHDL.h</text>
</a>
</g>
</g>
<!-- Node25&#45;&gt;Node33 -->
<g id="edge40" class="edge"><title>Node25&#45;&gt;Node33</title>
<path fill="none" stroke="midnightblue" d="M1755.92,-199.27C1790.34,-191.598 1835.58,-179.984 1874.06,-165 1928.46,-143.817 1988.37,-108.251 2014.55,-92.0294"/>
<polygon fill="midnightblue" stroke="midnightblue" points="1755.08,-195.871 1746.06,-201.427 1756.57,-202.71 1755.08,-195.871"/>
</g>
<!-- Node35 -->
<g id="node35" class="node"><title>Node35</title>
<g id="a_node35"><a xlink:href="_transformer_8cpp.html" target="_top" xlink:title="transform/Transformer.cpp">
<polygon fill="white" stroke="black" points="1538.56,-140 1538.56,-159 1673.56,-159 1673.56,-140 1538.56,-140"/>
<text text-anchor="middle" x="1606.06" y="-147" font-family="Helvetica,sans-Serif" font-size="10.00">transform/Transformer.cpp</text>
</a>
</g>
</g>
<!-- Node25&#45;&gt;Node35 -->
<g id="edge41" class="edge"><title>Node25&#45;&gt;Node35</title>
<path fill="none" stroke="midnightblue" d="M1679.61,-196.087C1661.08,-184.604 1635.39,-168.678 1619.79,-159.009"/>
<polygon fill="midnightblue" stroke="midnightblue" points="1677.96,-199.182 1688.3,-201.475 1681.65,-193.232 1677.96,-199.182"/>
</g>
<!-- Node27 -->
<g id="node27" class="node"><title>Node27</title>
<g id="a_node27"><a xlink:href="_chart_to_c_8cpp.html" target="_top" xlink:title="transform/ChartToC.cpp">
<polygon fill="white" stroke="black" points="1658.06,-73 1658.06,-92 1782.06,-92 1782.06,-73 1658.06,-73"/>
<text text-anchor="middle" x="1720.06" y="-80" font-family="Helvetica,sans-Serif" font-size="10.00">transform/ChartToC.cpp</text>
</a>
</g>
</g>
<!-- Node26&#45;&gt;Node27 -->
<g id="edge30" class="edge"><title>Node26&#45;&gt;Node27</title>
<path fill="none" stroke="midnightblue" d="M1770.56,-132.497C1757.42,-119.75 1739.54,-102.395 1728.95,-92.1273"/>
<polygon fill="midnightblue" stroke="midnightblue" points="1768.41,-135.283 1778.02,-139.734 1773.28,-130.259 1768.41,-135.283"/>
</g>
<!-- Node26&#45;&gt;Node28 -->
<g id="edge31" class="edge"><title>Node26&#45;&gt;Node28</title>
<path fill="none" stroke="midnightblue" d="M1749.23,-136.847C1707.44,-123.973 1641.13,-103.546 1603.86,-92.0637"/>
<polygon fill="midnightblue" stroke="midnightblue" points="1748.45,-140.269 1759.04,-139.869 1750.51,-133.58 1748.45,-140.269"/>
</g>
<!-- Node26&#45;&gt;Node30 -->
<g id="edge33" class="edge"><title>Node26&#45;&gt;Node30</title>
<path fill="none" stroke="midnightblue" d="M1806.59,-133.568C1823.36,-120.738 1846.97,-102.685 1860.78,-92.1273"/>
<polygon fill="midnightblue" stroke="midnightblue" points="1804.34,-130.879 1798.52,-139.734 1808.59,-136.44 1804.34,-130.879"/>
</g>
<!-- Node26&#45;&gt;Node33 -->
<g id="edge36" class="edge"><title>Node26&#45;&gt;Node33</title>
<path fill="none" stroke="midnightblue" d="M1828.76,-137.253C1876.39,-124.405 1953.29,-103.667 1996.31,-92.0637"/>
<polygon fill="midnightblue" stroke="midnightblue" points="1827.81,-133.885 1819.06,-139.869 1829.63,-140.644 1827.81,-133.885"/>
</g>
<!-- Node29 -->
<g id="node29" class="node"><title>Node29</title>
<g id="a_node29"><a xlink:href="_chart_to_java_8cpp.html" target="_top" xlink:title="transform/ChartToJava.cpp">
<polygon fill="white" stroke="black" points="1495.06,-6 1495.06,-25 1633.06,-25 1633.06,-6 1495.06,-6"/>
<text text-anchor="middle" x="1564.06" y="-13" font-family="Helvetica,sans-Serif" font-size="10.00">transform/ChartToJava.cpp</text>
</a>
</g>
</g>
<!-- Node28&#45;&gt;Node29 -->
<g id="edge32" class="edge"><title>Node28&#45;&gt;Node29</title>
<path fill="none" stroke="midnightblue" d="M1572.56,-62.537C1570.28,-50.1703 1567.4,-34.6198 1565.65,-25.1273"/>
<polygon fill="midnightblue" stroke="midnightblue" points="1569.18,-63.5354 1574.44,-72.7338 1576.07,-62.2645 1569.18,-63.5354"/>
</g>
<!-- Node31 -->
<g id="node31" class="node"><title>Node31</title>
<g id="a_node31"><a xlink:href="_chart_to_promela_8cpp.html" target="_top" xlink:title="transform/ChartToPromela.cpp">
<polygon fill="white" stroke="black" points="1807.06,-6 1807.06,-25 1961.06,-25 1961.06,-6 1807.06,-6"/>
<text text-anchor="middle" x="1884.06" y="-13" font-family="Helvetica,sans-Serif" font-size="10.00">transform/ChartToPromela.cpp</text>
</a>
</g>
</g>
<!-- Node30&#45;&gt;Node31 -->
<g id="edge34" class="edge"><title>Node30&#45;&gt;Node31</title>
<path fill="none" stroke="midnightblue" d="M1875.56,-62.537C1877.84,-50.1703 1880.71,-34.6198 1882.47,-25.1273"/>
<polygon fill="midnightblue" stroke="midnightblue" points="1872.05,-62.2645 1873.68,-72.7338 1878.94,-63.5354 1872.05,-62.2645"/>
</g>
<!-- Node32 -->
<g id="node32" class="node"><title>Node32</title>
<g id="a_node32"><a xlink:href="_promela_code_analyzer_8cpp.html" target="_top" xlink:title="transform/promela/Promela\lCodeAnalyzer.cpp">
<polygon fill="white" stroke="black" points="1651.06,-0.5 1651.06,-30.5 1789.06,-30.5 1789.06,-0.5 1651.06,-0.5"/>
<text text-anchor="start" x="1659.06" y="-18.5" font-family="Helvetica,sans-Serif" font-size="10.00">transform/promela/Promela</text>
<text text-anchor="middle" x="1720.06" y="-7.5" font-family="Helvetica,sans-Serif" font-size="10.00">CodeAnalyzer.cpp</text>
</a>
</g>
</g>
<!-- Node30&#45;&gt;Node32 -->
<g id="edge35" class="edge"><title>Node30&#45;&gt;Node32</title>
<path fill="none" stroke="midnightblue" d="M1842.62,-68.9127C1816.89,-57.9062 1779.55,-41.9418 1752.86,-30.5281"/>
<polygon fill="midnightblue" stroke="midnightblue" points="1841.3,-72.1547 1851.87,-72.8685 1844.06,-65.7184 1841.3,-72.1547"/>
</g>
<!-- Node34 -->
<g id="node34" class="node"><title>Node34</title>
<g id="a_node34"><a xlink:href="_chart_to_v_h_d_l_8cpp.html" target="_top" xlink:title="transform/ChartToVHDL.cpp">
<polygon fill="white" stroke="black" points="1979.56,-6 1979.56,-25 2122.56,-25 2122.56,-6 1979.56,-6"/>
<text text-anchor="middle" x="2051.06" y="-13" font-family="Helvetica,sans-Serif" font-size="10.00">transform/ChartToVHDL.cpp</text>
</a>
</g>
</g>
<!-- Node33&#45;&gt;Node34 -->
<g id="edge37" class="edge"><title>Node33&#45;&gt;Node34</title>
<path fill="none" stroke="midnightblue" d="M2034.5,-63.29C2038.92,-50.8076 2044.58,-34.8135 2048.01,-25.1273"/>
<polygon fill="midnightblue" stroke="midnightblue" points="2031.2,-62.139 2031.16,-72.7338 2037.8,-64.4741 2031.2,-62.139"/>
</g>
<!-- Node36&#45;&gt;Node4 -->
<g id="edge43" class="edge"><title>Node36&#45;&gt;Node4</title>
<path fill="none" stroke="midnightblue" d="M718.314,-380.04C621.089,-364.844 580.284,-398.602 504.059,-344 459.847,-312.33 440.502,-244.39 434.889,-220.512"/>
<polygon fill="midnightblue" stroke="midnightblue" points="717.772,-383.498 728.217,-381.726 718.947,-376.597 717.772,-383.498"/>
</g>
<!-- Node36&#45;&gt;Node11 -->
<g id="edge59" class="edge"><title>Node36&#45;&gt;Node11</title>
<path fill="none" stroke="midnightblue" d="M718.104,-380.023C634.69,-366.901 590.347,-402.749 537.059,-344 488.074,-289.995 508.225,-189.368 515.718,-159.241"/>
<polygon fill="midnightblue" stroke="midnightblue" points="717.74,-383.513 728.199,-381.821 718.968,-376.622 717.74,-383.513"/>
</g>
<!-- Node36&#45;&gt;Node12 -->
<g id="edge60" class="edge"><title>Node36&#45;&gt;Node12</title>
<path fill="none" stroke="midnightblue" d="M809.995,-386.255C876.874,-381.44 996.819,-369.46 1031.06,-344 1065.67,-318.264 1038.47,-281.365 1074.06,-257 1093.12,-243.948 1420.73,-222.028 1537.85,-214.572"/>
<polygon fill="midnightblue" stroke="midnightblue" points="809.472,-382.783 799.738,-386.967 809.957,-389.766 809.472,-382.783"/>
</g>
<!-- Node36&#45;&gt;Node25 -->
<g id="edge62" class="edge"><title>Node36&#45;&gt;Node25</title>
<path fill="none" stroke="midnightblue" d="M810.042,-382.546C867.324,-374.349 968.135,-359.409 1054.06,-344 1286.29,-302.353 1563.24,-242.51 1663.47,-220.521"/>
<polygon fill="midnightblue" stroke="midnightblue" points="809.272,-379.12 799.866,-383.997 810.26,-386.05 809.272,-379.12"/>
</g>
<!-- Node37 -->
<g id="node37" class="node"><title>Node37</title>
<g id="a_node37"><a xlink:href="_breakpoint_8h.html" target="_top" xlink:title="debug/Breakpoint.h">
<polygon fill="white" stroke="black" points="290.559,-257.5 290.559,-276.5 393.559,-276.5 393.559,-257.5 290.559,-257.5"/>
<text text-anchor="middle" x="342.059" y="-264.5" font-family="Helvetica,sans-Serif" font-size="10.00">debug/Breakpoint.h</text>
</a>
</g>
</g>
<!-- Node36&#45;&gt;Node37 -->
<g id="edge44" class="edge"><title>Node36&#45;&gt;Node37</title>
<path fill="none" stroke="midnightblue" d="M718.046,-379.995C594.874,-361.432 554.578,-389.501 443.059,-344 404.048,-328.083 366.741,-293.292 350.526,-276.891"/>
<polygon fill="midnightblue" stroke="midnightblue" points="717.814,-383.502 728.238,-381.608 718.908,-376.588 717.814,-383.502"/>
</g>
<!-- Node38 -->
<g id="node38" class="node"><title>Node38</title>
<g id="a_node38"><a xlink:href="_debug_session_8h.html" target="_top" xlink:title="debug/DebugSession.h">
<polygon fill="white" stroke="black" points="120.059,-201.5 120.059,-220.5 240.059,-220.5 240.059,-201.5 120.059,-201.5"/>
<text text-anchor="middle" x="180.059" y="-208.5" font-family="Helvetica,sans-Serif" font-size="10.00">debug/DebugSession.h</text>
</a>
</g>
</g>
<!-- Node36&#45;&gt;Node38 -->
<g id="edge51" class="edge"><title>Node36&#45;&gt;Node38</title>
<path fill="none" stroke="midnightblue" d="M717.969,-380.008C571.191,-359.022 525.408,-391.002 389.059,-344 304.262,-314.769 218.62,-245.286 190.032,-220.758"/>
<polygon fill="midnightblue" stroke="midnightblue" points="717.842,-383.528 728.249,-381.54 718.874,-376.604 717.842,-383.528"/>
</g>
<!-- Node39 -->
<g id="node39" class="node"><title>Node39</title>
<g id="a_node39"><a xlink:href="_basic_content_executor_8cpp.html" target="_top" xlink:title="interpreter/BasicContent\lExecutor.cpp">
<polygon fill="white" stroke="black" points="702.059,-313.5 702.059,-343.5 826.059,-343.5 826.059,-313.5 702.059,-313.5"/>
<text text-anchor="start" x="710.059" y="-331.5" font-family="Helvetica,sans-Serif" font-size="10.00">interpreter/BasicContent</text>
<text text-anchor="middle" x="764.059" y="-320.5" font-family="Helvetica,sans-Serif" font-size="10.00">Executor.cpp</text>
</a>
</g>
</g>
<!-- Node36&#45;&gt;Node39 -->
<g id="edge52" class="edge"><title>Node36&#45;&gt;Node39</title>
<path fill="none" stroke="midnightblue" d="M764.059,-370.235C764.059,-361.586 764.059,-351.497 764.059,-343.523"/>
<polygon fill="midnightblue" stroke="midnightblue" points="760.559,-370.475 764.059,-380.475 767.559,-370.475 760.559,-370.475"/>
</g>
<!-- Node40 -->
<g id="node40" class="node"><title>Node40</title>
<g id="a_node40"><a xlink:href="_micro_step_impl_8h.html" target="_top" xlink:title="interpreter/MicroStepImpl.h">
<polygon fill="white" stroke="black" points="546.559,-319 546.559,-338 683.559,-338 683.559,-319 546.559,-319"/>
<text text-anchor="middle" x="615.059" y="-326" font-family="Helvetica,sans-Serif" font-size="10.00">interpreter/MicroStepImpl.h</text>
</a>
</g>
</g>
<!-- Node36&#45;&gt;Node40 -->
<g id="edge53" class="edge"><title>Node36&#45;&gt;Node40</title>
<path fill="none" stroke="midnightblue" d="M733.085,-376.631C704.138,-365.072 661.687,-348.12 636.368,-338.009"/>
<polygon fill="midnightblue" stroke="midnightblue" points="732.126,-380.017 742.711,-380.475 734.722,-373.516 732.126,-380.017"/>
</g>
<!-- Node44 -->
<g id="node44" class="node"><title>Node44</title>
<g id="a_node44"><a xlink:href="_factory_8cpp.html" target="_top" xlink:title="plugins/Factory.cpp">
<polygon fill="white" stroke="black" points="844.559,-319 844.559,-338 947.559,-338 947.559,-319 844.559,-319"/>
<text text-anchor="middle" x="896.059" y="-326" font-family="Helvetica,sans-Serif" font-size="10.00">plugins/Factory.cpp</text>
</a>
</g>
</g>
<!-- Node36&#45;&gt;Node44 -->
<g id="edge61" class="edge"><title>Node36&#45;&gt;Node44</title>
<path fill="none" stroke="midnightblue" d="M792.174,-376.327C817.8,-364.776 854.947,-348.032 877.182,-338.009"/>
<polygon fill="midnightblue" stroke="midnightblue" points="790.65,-373.175 782.972,-380.475 793.527,-379.556 790.65,-373.175"/>
</g>
<!-- Node45 -->
<g id="node45" class="node"><title>Node45</title>
<g id="a_node45"><a xlink:href="uscxml_8h.html" target="_top" xlink:title="uscxml.h">
<polygon fill="white" stroke="black" points="966.059,-319 966.059,-338 1022.06,-338 1022.06,-319 966.059,-319"/>
<text text-anchor="middle" x="994.059" y="-326" font-family="Helvetica,sans-Serif" font-size="10.00">uscxml.h</text>
</a>
</g>
</g>
<!-- Node36&#45;&gt;Node45 -->
<g id="edge63" class="edge"><title>Node36&#45;&gt;Node45</title>
<path fill="none" stroke="midnightblue" d="M809.535,-380.332C848.961,-372.359 907.339,-359.45 957.059,-344 962.594,-342.28 968.48,-340.128 973.891,-338.012"/>
<polygon fill="midnightblue" stroke="midnightblue" points="808.808,-376.908 799.688,-382.3 810.18,-383.772 808.808,-376.908"/>
</g>
<!-- Node37&#45;&gt;Node4 -->
<g id="edge45" class="edge"><title>Node37&#45;&gt;Node4</title>
<path fill="none" stroke="midnightblue" d="M365.353,-252.177C382.098,-242.241 404.16,-229.149 418.475,-220.655"/>
<polygon fill="midnightblue" stroke="midnightblue" points="363.494,-249.211 356.68,-257.324 367.066,-255.231 363.494,-249.211"/>
</g>
<!-- Node37&#45;&gt;Node5 -->
<g id="edge46" class="edge"><title>Node37&#45;&gt;Node5</title>
<path fill="none" stroke="midnightblue" d="M331.082,-248.566C325.232,-239.275 318.29,-228.248 313.569,-220.751"/>
<polygon fill="midnightblue" stroke="midnightblue" points="328.155,-250.486 336.445,-257.083 334.079,-246.756 328.155,-250.486"/>
</g>
<!-- Node37&#45;&gt;Node38 -->
<g id="edge47" class="edge"><title>Node37&#45;&gt;Node38</title>
<path fill="none" stroke="midnightblue" d="M306.575,-254.172C276.071,-244.004 232.815,-229.585 205.609,-220.516"/>
<polygon fill="midnightblue" stroke="midnightblue" points="305.796,-257.602 316.39,-257.444 308.01,-250.961 305.796,-257.602"/>
</g>
<!-- Node38&#45;&gt;Node6 -->
<g id="edge48" class="edge"><title>Node38&#45;&gt;Node6</title>
<path fill="none" stroke="midnightblue" d="M155.658,-196.556C134.757,-185.042 105.296,-168.811 87.5043,-159.009"/>
<polygon fill="midnightblue" stroke="midnightblue" points="154.138,-199.715 164.586,-201.475 157.516,-193.584 154.138,-199.715"/>
</g>
<!-- Node38&#45;&gt;Node8 -->
<g id="edge49" class="edge"><title>Node38&#45;&gt;Node8</title>
<path fill="none" stroke="midnightblue" d="M109.792,-200.423C68.0414,-193.132 20.8069,-181.512 8.05928,-165 -23.534,-124.078 49.8644,-102.453 109.19,-92.0009"/>
<polygon fill="midnightblue" stroke="midnightblue" points="109.265,-203.884 119.707,-202.094 110.428,-196.981 109.265,-203.884"/>
</g>
<!-- Node38&#45;&gt;Node9 -->
<g id="edge50" class="edge"><title>Node38&#45;&gt;Node9</title>
<path fill="none" stroke="midnightblue" d="M189.263,-192.335C194.998,-181.328 202.117,-167.663 206.626,-159.009"/>
<polygon fill="midnightblue" stroke="midnightblue" points="186.017,-190.989 184.501,-201.475 192.225,-194.224 186.017,-190.989"/>
</g>
<!-- Node40&#45;&gt;Node3 -->
<g id="edge57" class="edge"><title>Node40&#45;&gt;Node3</title>
<path fill="none" stroke="midnightblue" d="M670.339,-317.136C677.969,-315.731 685.707,-314.32 693.059,-313 765.879,-299.93 850.296,-285.442 902.697,-276.526"/>
<polygon fill="midnightblue" stroke="midnightblue" points="669.609,-313.711 660.412,-318.971 670.881,-320.595 669.609,-313.711"/>
</g>
<!-- Node41 -->
<g id="node41" class="node"><title>Node41</title>
<g id="a_node41"><a xlink:href="_fast_micro_step_8h.html" target="_top" xlink:title="interpreter/FastMicroStep.h">
<polygon fill="white" stroke="black" points="694.059,-257.5 694.059,-276.5 832.059,-276.5 832.059,-257.5 694.059,-257.5"/>
<text text-anchor="middle" x="763.059" y="-264.5" font-family="Helvetica,sans-Serif" font-size="10.00">interpreter/FastMicroStep.h</text>
</a>
</g>
</g>
<!-- Node40&#45;&gt;Node41 -->
<g id="edge54" class="edge"><title>Node40&#45;&gt;Node41</title>
<path fill="none" stroke="midnightblue" d="M645.825,-315.131C674.578,-303.572 716.744,-286.62 741.894,-276.509"/>
<polygon fill="midnightblue" stroke="midnightblue" points="644.237,-311.998 636.264,-318.975 646.848,-318.492 644.237,-311.998"/>
</g>
<!-- Node43 -->
<g id="node43" class="node"><title>Node43</title>
<g id="a_node43"><a xlink:href="_micro_step_8cpp.html" target="_top" xlink:title="interpreter/MicroStep.cpp">
<polygon fill="white" stroke="black" points="546.559,-257.5 546.559,-276.5 675.559,-276.5 675.559,-257.5 546.559,-257.5"/>
<text text-anchor="middle" x="611.059" y="-264.5" font-family="Helvetica,sans-Serif" font-size="10.00">interpreter/MicroStep.cpp</text>
</a>
</g>
</g>
<!-- Node40&#45;&gt;Node43 -->
<g id="edge58" class="edge"><title>Node40&#45;&gt;Node43</title>
<path fill="none" stroke="midnightblue" d="M613.803,-308.817C613.076,-297.996 612.195,-284.898 611.631,-276.509"/>
<polygon fill="midnightblue" stroke="midnightblue" points="610.323,-309.232 614.486,-318.975 617.307,-308.763 610.323,-309.232"/>
</g>
<!-- Node41&#45;&gt;Node11 -->
<g id="edge56" class="edge"><title>Node41&#45;&gt;Node11</title>
<path fill="none" stroke="midnightblue" d="M701.369,-255.667C654.972,-247.082 595.949,-234.182 575.059,-221 550.035,-205.209 531.024,-174.59 522.691,-159.438"/>
<polygon fill="midnightblue" stroke="midnightblue" points="700.893,-259.138 711.359,-257.486 702.147,-252.251 700.893,-259.138"/>
</g>
<!-- Node42 -->
<g id="node42" class="node"><title>Node42</title>
<g id="a_node42"><a xlink:href="_fast_micro_step_8cpp.html" target="_top" xlink:title="interpreter/FastMicroStep.cpp">
<polygon fill="white" stroke="black" points="584.059,-201.5 584.059,-220.5 732.059,-220.5 732.059,-201.5 584.059,-201.5"/>
<text text-anchor="middle" x="658.059" y="-208.5" font-family="Helvetica,sans-Serif" font-size="10.00">interpreter/FastMicroStep.cpp</text>
</a>
</g>
</g>
<!-- Node41&#45;&gt;Node42 -->
<g id="edge55" class="edge"><title>Node41&#45;&gt;Node42</title>
<path fill="none" stroke="midnightblue" d="M737.249,-252.726C717.806,-242.727 691.711,-229.307 674.887,-220.655"/>
<polygon fill="midnightblue" stroke="midnightblue" points="735.696,-255.863 746.189,-257.324 738.897,-249.638 735.696,-255.863"/>
</g>
</g>
</svg>
        <g id="navigator" transform="translate(0 0)" fill="#404254">
                <rect fill="#f2f5e9" fill-opacity="0.5" stroke="#606060" stroke-width=".5" x="0" y="0" width="60" height="60"/>
                <use id="zoomplus" xlink:href="#zoomPlus" x="17" y="9" onmousedown="handleZoom(evt,'in')"/>
                <use id="zoomminus" xlink:href="#zoomMin" x="42" y="9" onmousedown="handleZoom(evt,'out')"/>
                <use id="reset" xlink:href="#resetDef" x="30" y="36" onmousedown="handleReset()"/>
                <g id="arrowUp" xlink:href="#dirArrow" transform="translate(30 24)" onmousedown="handlePan(0,-1)">
                  <use xlink:href="#rim" fill="#404040">
                        <set attributeName="fill" to="#808080" begin="arrowUp.mouseover" end="arrowUp.mouseout"/>
                  </use>
                  <path fill="none" stroke="white" stroke-width="1.5" d="M0,-3.0v7 M-2.5,-0.5L0,-3.0L2.5,-0.5"/>
                </g>
                <g id="arrowRight" xlink:href="#dirArrow" transform="rotate(90) translate(36 -43)" onmousedown="handlePan(1,0)">
                  <use xlink:href="#rim" fill="#404040">
                        <set attributeName="fill" to="#808080" begin="arrowRight.mouseover" end="arrowRight.mouseout"/>
                  </use>
                  <path fill="none" stroke="white" stroke-width="1.5" d="M0,-3.0v7 M-2.5,-0.5L0,-3.0L2.5,-0.5"/>
                </g>
                <g id="arrowDown" xlink:href="#dirArrow" transform="rotate(180) translate(-30 -48)" onmousedown="handlePan(0,1)">
                  <use xlink:href="#rim" fill="#404040">
                        <set attributeName="fill" to="#808080" begin="arrowDown.mouseover" end="arrowDown.mouseout"/>
                  </use>
                  <path fill="none" stroke="white" stroke-width="1.5" d="M0,-3.0v7 M-2.5,-0.5L0,-3.0L2.5,-0.5"/>
                </g>
                <g id="arrowLeft" xlink:href="#dirArrow" transform="rotate(270) translate(-36 17)" onmousedown="handlePan(-1,0)">
                  <use xlink:href="#rim" fill="#404040">
                        <set attributeName="fill" to="#808080" begin="arrowLeft.mouseover" end="arrowLeft.mouseout"/>
                  </use>
                  <path fill="none" stroke="white" stroke-width="1.5" d="M0,-3.0v7 M-2.5,-0.5L0,-3.0L2.5,-0.5"/>
                </g>
        </g>
        <svg viewBox="0 0 15 15" width="100%" height="30px" preserveAspectRatio="xMaxYMin meet">
         <g id="arrow_out" transform="scale(0.3 0.3)">
          <a xlink:href="_event_queue_8h__dep__incl_org.svg" target="_base">
           <rect id="button" ry="5" rx="5" y="6" x="6" height="38" width="38"
                fill="#f2f5e9" fill-opacity="0.5" stroke="#606060" stroke-width="1.0"/>
           <path id="arrow"
             d="M 11.500037,31.436501 C 11.940474,20.09759 22.043105,11.32322 32.158766,21.979434 L 37.068811,17.246167 C 37.068811,17.246167 37.088388,32 37.088388,32 L 22.160133,31.978069 C 22.160133,31.978069 26.997745,27.140456 26.997745,27.140456 C 18.528582,18.264221 13.291696,25.230495 11.500037,31.436501 z"
             style="fill:#404040;"/>
          </a>
         </g>
        </svg>
</svg>
