<?xml version="1.0" encoding="UTF-8" standalone="no"?>
<!DOCTYPE svg PUBLIC "-//W3C//DTD SVG 1.1//EN"
 "http://www.w3.org/Graphics/SVG/1.1/DTD/svg11.dtd">
<!-- Generated by graphviz version 2.38.0 (20140413.2041)
 -->
<!-- Title: plugins/ExecutableContentImpl.h Pages: 1 -->
<svg width="332pt" height="151pt"
 viewBox="0.00 0.00 332.00 151.00" xmlns="http://www.w3.org/2000/svg" xmlns:xlink="http://www.w3.org/1999/xlink">
<g id="graph0" class="graph" transform="scale(1 1) rotate(0) translate(4 147)">
<title>plugins/ExecutableContentImpl.h</title>
<polygon fill="white" stroke="none" points="-4,4 -4,-147 328,-147 328,4 -4,4"/>
<!-- Node1 -->
<g id="node1" class="node"><title>Node1</title>
<polygon fill="#bfbfbf" stroke="black" points="126.5,-112.5 126.5,-142.5 261.5,-142.5 261.5,-112.5 126.5,-112.5"/>
<text text-anchor="start" x="134.5" y="-130.5" font-family="Helvetica,sans-Serif" font-size="10.00">plugins/ExecutableContent</text>
<text text-anchor="middle" x="194" y="-119.5" font-family="Helvetica,sans-Serif" font-size="10.00">Impl.h</text>
</g>
<!-- Node2 -->
<g id="node2" class="node"><title>Node2</title>
<g id="a_node2"><a xlink:href="_common_8h.html" target="_top" xlink:title="uscxml/Common.h">
<polygon fill="white" stroke="black" points="24.5,-56.5 24.5,-75.5 123.5,-75.5 123.5,-56.5 24.5,-56.5"/>
<text text-anchor="middle" x="74" y="-63.5" font-family="Helvetica,sans-Serif" font-size="10.00">uscxml/Common.h</text>
</a>
</g>
</g>
<!-- Node1&#45;&gt;Node2 -->
<g id="edge1" class="edge"><title>Node1&#45;&gt;Node2</title>
<path fill="none" stroke="midnightblue" d="M165.562,-112.399C145.877,-102.639 119.857,-89.7373 100.587,-80.1826"/>
<polygon fill="midnightblue" stroke="midnightblue" points="101.975,-76.9644 91.4611,-75.6578 98.8654,-83.2358 101.975,-76.9644"/>
</g>
<!-- Node5 -->
<g id="node5" class="node"><title>Node5</title>
<polygon fill="white" stroke="#bfbfbf" points="141.5,-56.5 141.5,-75.5 182.5,-75.5 182.5,-56.5 141.5,-56.5"/>
<text text-anchor="middle" x="162" y="-63.5" font-family="Helvetica,sans-Serif" font-size="10.00">string</text>
</g>
<!-- Node1&#45;&gt;Node5 -->
<g id="edge4" class="edge"><title>Node1&#45;&gt;Node5</title>
<path fill="none" stroke="midnightblue" d="M186.416,-112.399C181.958,-104.11 176.281,-93.5542 171.523,-84.7077"/>
<polygon fill="midnightblue" stroke="midnightblue" points="174.475,-82.8071 166.656,-75.6578 168.31,-86.1227 174.475,-82.8071"/>
</g>
<!-- Node6 -->
<g id="node6" class="node"><title>Node6</title>
<polygon fill="white" stroke="#bfbfbf" points="200.5,-56.5 200.5,-75.5 253.5,-75.5 253.5,-56.5 200.5,-56.5"/>
<text text-anchor="middle" x="227" y="-63.5" font-family="Helvetica,sans-Serif" font-size="10.00">memory</text>
</g>
<!-- Node1&#45;&gt;Node6 -->
<g id="edge5" class="edge"><title>Node1&#45;&gt;Node6</title>
<path fill="none" stroke="midnightblue" d="M201.821,-112.399C206.468,-104.021 212.399,-93.3269 217.337,-84.4229"/>
<polygon fill="midnightblue" stroke="midnightblue" points="220.409,-86.1004 222.198,-75.6578 214.287,-82.7052 220.409,-86.1004"/>
</g>
<!-- Node7 -->
<g id="node7" class="node"><title>Node7</title>
<polygon fill="white" stroke="#bfbfbf" points="272,-56.5 272,-75.5 324,-75.5 324,-56.5 272,-56.5"/>
<text text-anchor="middle" x="298" y="-63.5" font-family="Helvetica,sans-Serif" font-size="10.00">sstream</text>
</g>
<!-- Node1&#45;&gt;Node7 -->
<g id="edge6" class="edge"><title>Node1&#45;&gt;Node7</title>
<path fill="none" stroke="midnightblue" d="M218.647,-112.399C235.317,-102.862 257.231,-90.3248 273.805,-80.8422"/>
<polygon fill="midnightblue" stroke="midnightblue" points="275.925,-83.6617 282.867,-75.6578 272.449,-77.5858 275.925,-83.6617"/>
</g>
<!-- Node3 -->
<g id="node3" class="node"><title>Node3</title>
<polygon fill="white" stroke="#bfbfbf" points="0,-0.5 0,-19.5 72,-19.5 72,-0.5 0,-0.5"/>
<text text-anchor="middle" x="36" y="-7.5" font-family="Helvetica,sans-Serif" font-size="10.00">sys/socket.h</text>
</g>
<!-- Node2&#45;&gt;Node3 -->
<g id="edge2" class="edge"><title>Node2&#45;&gt;Node3</title>
<path fill="none" stroke="midnightblue" d="M67.7251,-56.083C62.3575,-48.4554 54.4824,-37.2645 47.9213,-27.9408"/>
<polygon fill="midnightblue" stroke="midnightblue" points="50.7755,-25.9149 42.1582,-19.7511 45.0508,-29.9434 50.7755,-25.9149"/>
</g>
<!-- Node4 -->
<g id="node4" class="node"><title>Node4</title>
<polygon fill="white" stroke="#bfbfbf" points="90,-0.5 90,-19.5 134,-19.5 134,-0.5 90,-0.5"/>
<text text-anchor="middle" x="112" y="-7.5" font-family="Helvetica,sans-Serif" font-size="10.00">cmath</text>
</g>
<!-- Node2&#45;&gt;Node4 -->
<g id="edge3" class="edge"><title>Node2&#45;&gt;Node4</title>
<path fill="none" stroke="midnightblue" d="M80.2749,-56.083C85.6425,-48.4554 93.5176,-37.2645 100.079,-27.9408"/>
<polygon fill="midnightblue" stroke="midnightblue" points="102.949,-29.9434 105.842,-19.7511 97.2245,-25.9149 102.949,-29.9434"/>
</g>
</g>
</svg>
