<?xml version="1.0" encoding="UTF-8" standalone="no"?>
<!DOCTYPE svg PUBLIC "-//W3C//DTD SVG 1.1//EN"
 "http://www.w3.org/Graphics/SVG/1.1/DTD/svg11.dtd">
<!-- Generated by graphviz version 2.40.1 (20161225.0304)
 -->
<!-- Title: plugins/ExecutableContent.h Pages: 1 -->
<svg width="332pt" height="140pt"
 viewBox="0.00 0.00 332.00 140.00" xmlns="http://www.w3.org/2000/svg" xmlns:xlink="http://www.w3.org/1999/xlink">
<g id="graph0" class="graph" transform="scale(1 1) rotate(0) translate(4 136)">
<title>plugins/ExecutableContent.h</title>
<polygon fill="#ffffff" stroke="transparent" points="-4,4 -4,-136 328,-136 328,4 -4,4"/>
<!-- Node1 -->
<g id="node1" class="node">
<title>Node1</title>
<polygon fill="#bfbfbf" stroke="#000000" points="122,-112.5 122,-131.5 266,-131.5 266,-112.5 122,-112.5"/>
<text text-anchor="middle" x="194" y="-119.5" font-family="Helvetica,sans-Serif" font-size="10.00" fill="#000000">plugins/ExecutableContent.h</text>
</g>
<!-- Node2 -->
<g id="node2" class="node">
<title>Node2</title>
<g id="a_node2"><a xlink:href="$_common_8h.html" xlink:title="uscxml/Common.h">
<polygon fill="#ffffff" stroke="#000000" points="24.5,-56.5 24.5,-75.5 123.5,-75.5 123.5,-56.5 24.5,-56.5"/>
<text text-anchor="middle" x="74" y="-63.5" font-family="Helvetica,sans-Serif" font-size="10.00" fill="#000000">uscxml/Common.h</text>
</a>
</g>
</g>
<!-- Node1&#45;&gt;Node2 -->
<g id="edge1" class="edge">
<title>Node1&#45;&gt;Node2</title>
<path fill="none" stroke="#191970" d="M173.3713,-112.3733C154.1081,-103.3838 125.1514,-89.8706 103.4581,-79.7471"/>
<polygon fill="#191970" stroke="#191970" points="104.9015,-76.5584 94.3595,-75.5011 101.9413,-82.9017 104.9015,-76.5584"/>
</g>
<!-- Node5 -->
<g id="node5" class="node">
<title>Node5</title>
<polygon fill="#ffffff" stroke="#bfbfbf" points="141.5,-56.5 141.5,-75.5 182.5,-75.5 182.5,-56.5 141.5,-56.5"/>
<text text-anchor="middle" x="162" y="-63.5" font-family="Helvetica,sans-Serif" font-size="10.00" fill="#000000">string</text>
</g>
<!-- Node1&#45;&gt;Node5 -->
<g id="edge4" class="edge">
<title>Node1&#45;&gt;Node5</title>
<path fill="none" stroke="#191970" d="M188.426,-112.2455C184.0669,-104.617 177.8789,-93.7881 172.5867,-84.5267"/>
<polygon fill="#191970" stroke="#191970" points="175.5104,-82.5886 167.5101,-75.6427 169.4327,-86.0616 175.5104,-82.5886"/>
</g>
<!-- Node6 -->
<g id="node6" class="node">
<title>Node6</title>
<polygon fill="#ffffff" stroke="#bfbfbf" points="200.5,-56.5 200.5,-75.5 253.5,-75.5 253.5,-56.5 200.5,-56.5"/>
<text text-anchor="middle" x="227" y="-63.5" font-family="Helvetica,sans-Serif" font-size="10.00" fill="#000000">memory</text>
</g>
<!-- Node1&#45;&gt;Node6 -->
<g id="edge5" class="edge">
<title>Node1&#45;&gt;Node6</title>
<path fill="none" stroke="#191970" d="M199.7482,-112.2455C204.2435,-104.617 210.6248,-93.7881 216.0825,-84.5267"/>
<polygon fill="#191970" stroke="#191970" points="219.2561,-86.035 221.3177,-75.6427 213.2253,-82.4811 219.2561,-86.035"/>
</g>
<!-- Node7 -->
<g id="node7" class="node">
<title>Node7</title>
<polygon fill="#ffffff" stroke="#bfbfbf" points="272,-56.5 272,-75.5 324,-75.5 324,-56.5 272,-56.5"/>
<text text-anchor="middle" x="298" y="-63.5" font-family="Helvetica,sans-Serif" font-size="10.00" fill="#000000">sstream</text>
</g>
<!-- Node1&#45;&gt;Node7 -->
<g id="edge6" class="edge">
<title>Node1&#45;&gt;Node7</title>
<path fill="none" stroke="#191970" d="M212.1154,-112.2455C228.445,-103.4527 252.671,-90.4079 271.2339,-80.4125"/>
<polygon fill="#191970" stroke="#191970" points="272.9468,-83.4654 280.0922,-75.6427 269.6281,-77.3021 272.9468,-83.4654"/>
</g>
<!-- Node3 -->
<g id="node3" class="node">
<title>Node3</title>
<polygon fill="#ffffff" stroke="#bfbfbf" points="0,-.5 0,-19.5 72,-19.5 72,-.5 0,-.5"/>
<text text-anchor="middle" x="36" y="-7.5" font-family="Helvetica,sans-Serif" font-size="10.00" fill="#000000">sys/socket.h</text>
</g>
<!-- Node2&#45;&gt;Node3 -->
<g id="edge2" class="edge">
<title>Node2&#45;&gt;Node3</title>
<path fill="none" stroke="#191970" d="M67.3809,-56.2455C62.0954,-48.4564 54.5459,-37.3308 48.1762,-27.9439"/>
<polygon fill="#191970" stroke="#191970" points="51.0545,-25.9522 42.5432,-19.6427 45.2621,-29.8827 51.0545,-25.9522"/>
</g>
<!-- Node4 -->
<g id="node4" class="node">
<title>Node4</title>
<polygon fill="#ffffff" stroke="#bfbfbf" points="90,-.5 90,-19.5 134,-19.5 134,-.5 90,-.5"/>
<text text-anchor="middle" x="112" y="-7.5" font-family="Helvetica,sans-Serif" font-size="10.00" fill="#000000">cmath</text>
</g>
<!-- Node2&#45;&gt;Node4 -->
<g id="edge3" class="edge">
<title>Node2&#45;&gt;Node4</title>
<path fill="none" stroke="#191970" d="M80.6191,-56.2455C85.9046,-48.4564 93.4541,-37.3308 99.8238,-27.9439"/>
<polygon fill="#191970" stroke="#191970" points="102.7379,-29.8827 105.4568,-19.6427 96.9455,-25.9522 102.7379,-29.8827"/>
</g>
</g>
</svg>
