<?xml version="1.0" encoding="UTF-8" standalone="no"?>
<!DOCTYPE svg PUBLIC "-//W3C//DTD SVG 1.1//EN"
 "http://www.w3.org/Graphics/SVG/1.1/DTD/svg11.dtd">
<!-- Generated by graphviz version 2.38.0 (20140413.2041)
 -->
<!-- Title: plugins/ExecutableContent.cpp Pages: 1 -->
<svg width="492pt" height="196pt"
 viewBox="0.00 0.00 492.23 196.00" xmlns="http://www.w3.org/2000/svg" xmlns:xlink="http://www.w3.org/1999/xlink">
<g id="graph0" class="graph" transform="scale(1 1) rotate(0) translate(4 192)">
<title>plugins/ExecutableContent.cpp</title>
<polygon fill="white" stroke="none" points="-4,4 -4,-192 488.229,-192 488.229,4 -4,4"/>
<!-- Node1 -->
<g id="node1" class="node"><title>Node1</title>
<polygon fill="#bfbfbf" stroke="black" points="175.729,-168.5 175.729,-187.5 329.729,-187.5 329.729,-168.5 175.729,-168.5"/>
<text text-anchor="middle" x="252.729" y="-175.5" font-family="Helvetica,sans-Serif" font-size="10.00">plugins/ExecutableContent.cpp</text>
</g>
<!-- Node2 -->
<g id="node2" class="node"><title>Node2</title>
<g id="a_node2"><a xlink:href="_executable_content_8h.html" target="_top" xlink:title="ExecutableContent.h">
<polygon fill="white" stroke="black" points="15.2288,-112.5 15.2288,-131.5 124.229,-131.5 124.229,-112.5 15.2288,-112.5"/>
<text text-anchor="middle" x="69.7288" y="-119.5" font-family="Helvetica,sans-Serif" font-size="10.00">ExecutableContent.h</text>
</a>
</g>
</g>
<!-- Node1&#45;&gt;Node2 -->
<g id="edge1" class="edge"><title>Node1&#45;&gt;Node2</title>
<path fill="none" stroke="midnightblue" d="M223.732,-168.444C192.544,-159.241 142.799,-144.562 108.321,-134.388"/>
<polygon fill="midnightblue" stroke="midnightblue" points="109.172,-130.99 98.59,-131.516 107.191,-137.704 109.172,-130.99"/>
</g>
<!-- Node6 -->
<g id="node6" class="node"><title>Node6</title>
<polygon fill="white" stroke="#bfbfbf" points="4.22876,-56.5 4.22876,-75.5 45.2288,-75.5 45.2288,-56.5 4.22876,-56.5"/>
<text text-anchor="middle" x="24.7288" y="-63.5" font-family="Helvetica,sans-Serif" font-size="10.00">string</text>
</g>
<!-- Node1&#45;&gt;Node6 -->
<g id="edge14" class="edge"><title>Node1&#45;&gt;Node6</title>
<path fill="none" stroke="midnightblue" d="M175.639,-173.466C111.419,-168.713 27.1246,-157.646 5.72876,-132 -5.63928,-118.374 3.00279,-98.2197 12.0109,-83.9724"/>
<polygon fill="midnightblue" stroke="midnightblue" points="14.9927,-85.8133 17.7768,-75.5908 9.22551,-81.8459 14.9927,-85.8133"/>
</g>
<!-- Node7 -->
<g id="node7" class="node"><title>Node7</title>
<polygon fill="white" stroke="#bfbfbf" points="180.229,-56.5 180.229,-75.5 233.229,-75.5 233.229,-56.5 180.229,-56.5"/>
<text text-anchor="middle" x="206.729" y="-63.5" font-family="Helvetica,sans-Serif" font-size="10.00">memory</text>
</g>
<!-- Node1&#45;&gt;Node7 -->
<g id="edge15" class="edge"><title>Node1&#45;&gt;Node7</title>
<path fill="none" stroke="midnightblue" d="M261.29,-168.293C272.747,-155.538 290.451,-131.205 279.729,-112 271.573,-97.3909 256.509,-86.9362 242.175,-79.8038"/>
<polygon fill="midnightblue" stroke="midnightblue" points="243.49,-76.557 232.94,-75.5863 240.582,-82.9244 243.49,-76.557"/>
</g>
<!-- Node8 -->
<g id="node8" class="node"><title>Node8</title>
<polygon fill="white" stroke="#bfbfbf" points="251.729,-56.5 251.729,-75.5 303.729,-75.5 303.729,-56.5 251.729,-56.5"/>
<text text-anchor="middle" x="277.729" y="-63.5" font-family="Helvetica,sans-Serif" font-size="10.00">sstream</text>
</g>
<!-- Node1&#45;&gt;Node8 -->
<g id="edge16" class="edge"><title>Node1&#45;&gt;Node8</title>
<path fill="none" stroke="midnightblue" d="M272.025,-168.48C286.158,-161.081 304.285,-148.887 312.729,-132 321.178,-115.102 308.292,-96.113 295.84,-83.0436"/>
<polygon fill="midnightblue" stroke="midnightblue" points="297.946,-80.2085 288.338,-75.7427 293.064,-85.2252 297.946,-80.2085"/>
</g>
<!-- Node9 -->
<g id="node9" class="node"><title>Node9</title>
<g id="a_node9"><a xlink:href="_executable_content_impl_8h.html" target="_top" xlink:title="ExecutableContentImpl.h">
<polygon fill="white" stroke="black" points="142.729,-112.5 142.729,-131.5 270.729,-131.5 270.729,-112.5 142.729,-112.5"/>
<text text-anchor="middle" x="206.729" y="-119.5" font-family="Helvetica,sans-Serif" font-size="10.00">ExecutableContentImpl.h</text>
</a>
</g>
</g>
<!-- Node1&#45;&gt;Node9 -->
<g id="edge8" class="edge"><title>Node1&#45;&gt;Node9</title>
<path fill="none" stroke="midnightblue" d="M245.133,-168.083C238.501,-160.298 228.708,-148.801 220.671,-139.367"/>
<polygon fill="midnightblue" stroke="midnightblue" points="223.332,-137.094 214.183,-131.751 218.004,-141.633 223.332,-137.094"/>
</g>
<!-- Node10 -->
<g id="node10" class="node"><title>Node10</title>
<polygon fill="white" stroke="#bfbfbf" points="365.229,-112.5 365.229,-131.5 484.229,-131.5 484.229,-112.5 365.229,-112.5"/>
<text text-anchor="middle" x="424.729" y="-119.5" font-family="Helvetica,sans-Serif" font-size="10.00">xercesc/dom/DOM.hpp</text>
</g>
<!-- Node1&#45;&gt;Node10 -->
<g id="edge13" class="edge"><title>Node1&#45;&gt;Node10</title>
<path fill="none" stroke="midnightblue" d="M279.983,-168.444C309.17,-159.28 355.65,-144.688 388.038,-134.519"/>
<polygon fill="midnightblue" stroke="midnightblue" points="389.11,-137.851 397.602,-131.516 387.013,-131.173 389.11,-137.851"/>
</g>
<!-- Node3 -->
<g id="node3" class="node"><title>Node3</title>
<g id="a_node3"><a xlink:href="_common_8h.html" target="_top" xlink:title="uscxml/Common.h">
<polygon fill="white" stroke="black" points="63.2288,-56.5 63.2288,-75.5 162.229,-75.5 162.229,-56.5 63.2288,-56.5"/>
<text text-anchor="middle" x="112.729" y="-63.5" font-family="Helvetica,sans-Serif" font-size="10.00">uscxml/Common.h</text>
</a>
</g>
</g>
<!-- Node2&#45;&gt;Node3 -->
<g id="edge2" class="edge"><title>Node2&#45;&gt;Node3</title>
<path fill="none" stroke="midnightblue" d="M76.8293,-112.083C82.9658,-104.377 91.9985,-93.0333 99.468,-83.6531"/>
<polygon fill="midnightblue" stroke="midnightblue" points="102.269,-85.7542 105.76,-75.7511 96.793,-81.3936 102.269,-85.7542"/>
</g>
<!-- Node2&#45;&gt;Node6 -->
<g id="edge5" class="edge"><title>Node2&#45;&gt;Node6</title>
<path fill="none" stroke="midnightblue" d="M62.2979,-112.083C55.8761,-104.377 46.4232,-93.0333 38.6063,-83.6531"/>
<polygon fill="midnightblue" stroke="midnightblue" points="41.112,-81.1927 32.0213,-75.7511 35.7344,-85.674 41.112,-81.1927"/>
</g>
<!-- Node2&#45;&gt;Node7 -->
<g id="edge6" class="edge"><title>Node2&#45;&gt;Node7</title>
<path fill="none" stroke="midnightblue" d="M91.4368,-112.444C114.084,-103.517 149.801,-89.4387 175.481,-79.3168"/>
<polygon fill="midnightblue" stroke="midnightblue" points="177.102,-82.4397 185.122,-75.5164 174.535,-75.9273 177.102,-82.4397"/>
</g>
<!-- Node2&#45;&gt;Node8 -->
<g id="edge7" class="edge"><title>Node2&#45;&gt;Node8</title>
<path fill="none" stroke="midnightblue" d="M102.687,-112.444C140.543,-102.616 202.453,-86.5427 241.596,-76.3807"/>
<polygon fill="midnightblue" stroke="midnightblue" points="242.711,-79.7073 251.511,-73.8067 240.952,-72.9319 242.711,-79.7073"/>
</g>
<!-- Node4 -->
<g id="node4" class="node"><title>Node4</title>
<polygon fill="white" stroke="#bfbfbf" points="38.7288,-0.5 38.7288,-19.5 110.729,-19.5 110.729,-0.5 38.7288,-0.5"/>
<text text-anchor="middle" x="74.7288" y="-7.5" font-family="Helvetica,sans-Serif" font-size="10.00">sys/socket.h</text>
</g>
<!-- Node3&#45;&gt;Node4 -->
<g id="edge3" class="edge"><title>Node3&#45;&gt;Node4</title>
<path fill="none" stroke="midnightblue" d="M106.454,-56.083C101.086,-48.4554 93.2112,-37.2645 86.6501,-27.9408"/>
<polygon fill="midnightblue" stroke="midnightblue" points="89.5042,-25.9149 80.8869,-19.7511 83.7796,-29.9434 89.5042,-25.9149"/>
</g>
<!-- Node5 -->
<g id="node5" class="node"><title>Node5</title>
<polygon fill="white" stroke="#bfbfbf" points="128.729,-0.5 128.729,-19.5 172.729,-19.5 172.729,-0.5 128.729,-0.5"/>
<text text-anchor="middle" x="150.729" y="-7.5" font-family="Helvetica,sans-Serif" font-size="10.00">cmath</text>
</g>
<!-- Node3&#45;&gt;Node5 -->
<g id="edge4" class="edge"><title>Node3&#45;&gt;Node5</title>
<path fill="none" stroke="midnightblue" d="M119.004,-56.083C124.371,-48.4554 132.246,-37.2645 138.807,-27.9408"/>
<polygon fill="midnightblue" stroke="midnightblue" points="141.678,-29.9434 144.571,-19.7511 135.953,-25.9149 141.678,-29.9434"/>
</g>
<!-- Node9&#45;&gt;Node3 -->
<g id="edge9" class="edge"><title>Node9&#45;&gt;Node3</title>
<path fill="none" stroke="midnightblue" d="M191.626,-112.324C176.825,-103.822 154.035,-90.7288 136.747,-80.7975"/>
<polygon fill="midnightblue" stroke="midnightblue" points="138.209,-77.6009 127.794,-75.6545 134.722,-83.6707 138.209,-77.6009"/>
</g>
<!-- Node9&#45;&gt;Node6 -->
<g id="edge10" class="edge"><title>Node9&#45;&gt;Node6</title>
<path fill="none" stroke="midnightblue" d="M177.073,-112.419C148.149,-104.019 102.67,-90.7295 54.8938,-76.3242"/>
<polygon fill="midnightblue" stroke="midnightblue" points="55.8972,-72.9711 45.3123,-73.4294 53.8727,-79.672 55.8972,-72.9711"/>
</g>
<!-- Node9&#45;&gt;Node7 -->
<g id="edge11" class="edge"><title>Node9&#45;&gt;Node7</title>
<path fill="none" stroke="midnightblue" d="M206.729,-112.083C206.729,-105.006 206.729,-94.8611 206.729,-85.9865"/>
<polygon fill="midnightblue" stroke="midnightblue" points="210.229,-85.751 206.729,-75.7511 203.229,-85.7511 210.229,-85.751"/>
</g>
<!-- Node9&#45;&gt;Node8 -->
<g id="edge12" class="edge"><title>Node9&#45;&gt;Node8</title>
<path fill="none" stroke="midnightblue" d="M218.136,-112.324C228.838,-104.185 245.069,-91.8395 257.892,-82.0874"/>
<polygon fill="midnightblue" stroke="midnightblue" points="260.273,-84.6734 266.114,-75.8339 256.036,-79.1018 260.273,-84.6734"/>
</g>
</g>
</svg>
