<?xml version="1.0" encoding="UTF-8" standalone="no"?>
<!DOCTYPE svg PUBLIC "-//W3C//DTD SVG 1.1//EN"
 "http://www.w3.org/Graphics/SVG/1.1/DTD/svg11.dtd">
<!-- Generated by graphviz version 2.38.0 (20140413.2041)
 -->
<!-- Title: plugins/Factory.h Pages: 1 -->
<svg width="1378pt" height="498pt"
 viewBox="0.00 0.00 1378.00 498.00" xmlns="http://www.w3.org/2000/svg" xmlns:xlink="http://www.w3.org/1999/xlink">
<g id="graph0" class="graph" transform="scale(1 1) rotate(0) translate(4 494)">
<title>plugins/Factory.h</title>
<polygon fill="white" stroke="none" points="-4,4 -4,-494 1374,-494 1374,4 -4,4"/>
<!-- Node1 -->
<g id="node1" class="node"><title>Node1</title>
<polygon fill="#bfbfbf" stroke="black" points="630.5,-470.5 630.5,-489.5 723.5,-489.5 723.5,-470.5 630.5,-470.5"/>
<text text-anchor="middle" x="677" y="-477.5" font-family="Helvetica,sans-Serif" font-size="10.00">plugins/Factory.h</text>
</g>
<!-- Node2 -->
<g id="node2" class="node"><title>Node2</title>
<g id="a_node2"><a xlink:href="_common_8h.html" target="_top" xlink:title="uscxml/Common.h">
<polygon fill="white" stroke="black" points="480.5,-56.5 480.5,-75.5 579.5,-75.5 579.5,-56.5 480.5,-56.5"/>
<text text-anchor="middle" x="530" y="-63.5" font-family="Helvetica,sans-Serif" font-size="10.00">uscxml/Common.h</text>
</a>
</g>
</g>
<!-- Node1&#45;&gt;Node2 -->
<g id="edge1" class="edge"><title>Node1&#45;&gt;Node2</title>
<path fill="none" stroke="midnightblue" d="M630.448,-478.869C495.561,-477.247 114,-463.349 114,-358 114,-358 114,-358 114,-182.5 114,-109.469 355.045,-80.6965 470.165,-71.1196"/>
<polygon fill="midnightblue" stroke="midnightblue" points="470.549,-74.6 480.234,-70.3043 469.984,-67.6229 470.549,-74.6"/>
</g>
<!-- Node5 -->
<g id="node5" class="node"><title>Node5</title>
<g id="a_node5"><a xlink:href="_executable_content_8h.html" target="_top" xlink:title="uscxml/plugins/Executable\lContent.h">
<polygon fill="white" stroke="black" points="142,-168.5 142,-198.5 276,-198.5 276,-168.5 142,-168.5"/>
<text text-anchor="start" x="150" y="-186.5" font-family="Helvetica,sans-Serif" font-size="10.00">uscxml/plugins/Executable</text>
<text text-anchor="middle" x="209" y="-175.5" font-family="Helvetica,sans-Serif" font-size="10.00">Content.h</text>
</a>
</g>
</g>
<!-- Node1&#45;&gt;Node5 -->
<g id="edge4" class="edge"><title>Node1&#45;&gt;Node5</title>
<path fill="none" stroke="midnightblue" d="M630.435,-476.063C517.453,-467.666 238,-438.737 238,-358 238,-358 238,-358 238,-300 238,-267.549 227.098,-231.472 218.663,-208.414"/>
<polygon fill="midnightblue" stroke="midnightblue" points="221.832,-206.901 215.009,-198.796 215.289,-209.387 221.832,-206.901"/>
</g>
<!-- Node7 -->
<g id="node7" class="node"><title>Node7</title>
<polygon fill="white" stroke="#bfbfbf" points="1045.5,-56.5 1045.5,-75.5 1086.5,-75.5 1086.5,-56.5 1045.5,-56.5"/>
<text text-anchor="middle" x="1066" y="-63.5" font-family="Helvetica,sans-Serif" font-size="10.00">string</text>
</g>
<!-- Node1&#45;&gt;Node7 -->
<g id="edge56" class="edge"><title>Node1&#45;&gt;Node7</title>
<path fill="none" stroke="midnightblue" d="M723.846,-479.44C864.583,-479.515 1274,-470.098 1274,-358 1274,-358 1274,-358 1274,-182.5 1274,-102.397 1154.64,-77.3751 1096.75,-69.9502"/>
<polygon fill="midnightblue" stroke="midnightblue" points="1097.05,-66.4605 1086.7,-68.7593 1096.22,-73.4118 1097.05,-66.4605"/>
</g>
<!-- Node8 -->
<g id="node8" class="node"><title>Node8</title>
<polygon fill="white" stroke="#bfbfbf" points="87.5,-56.5 87.5,-75.5 140.5,-75.5 140.5,-56.5 87.5,-56.5"/>
<text text-anchor="middle" x="114" y="-63.5" font-family="Helvetica,sans-Serif" font-size="10.00">memory</text>
</g>
<!-- Node1&#45;&gt;Node8 -->
<g id="edge57" class="edge"><title>Node1&#45;&gt;Node8</title>
<path fill="none" stroke="midnightblue" d="M630.109,-477.516C517.054,-473.545 232.075,-461.085 141,-434 72.7633,-413.707 0,-429.19 0,-358 0,-358 0,-358 0,-182.5 0,-133.698 52.1909,-98.0591 85.9459,-80.1129"/>
<polygon fill="midnightblue" stroke="midnightblue" points="87.6093,-83.1934 94.919,-75.524 84.422,-76.9611 87.6093,-83.1934"/>
</g>
<!-- Node10 -->
<g id="node10" class="node"><title>Node10</title>
<g id="a_node10"><a xlink:href="_event_handler_8h.html" target="_top" xlink:title="uscxml/plugins/EventHandler.h">
<polygon fill="white" stroke="black" points="704,-291.5 704,-310.5 858,-310.5 858,-291.5 704,-291.5"/>
<text text-anchor="middle" x="781" y="-298.5" font-family="Helvetica,sans-Serif" font-size="10.00">uscxml/plugins/EventHandler.h</text>
</a>
</g>
</g>
<!-- Node1&#45;&gt;Node10 -->
<g id="edge10" class="edge"><title>Node1&#45;&gt;Node10</title>
<path fill="none" stroke="midnightblue" d="M684.965,-470.378C701.175,-452.425 738.301,-409.181 760,-367 767.629,-352.17 773.213,-334.019 776.697,-320.671"/>
<polygon fill="midnightblue" stroke="midnightblue" points="780.143,-321.312 779.128,-310.766 773.345,-319.643 780.143,-321.312"/>
</g>
<!-- Node16 -->
<g id="node16" class="node"><title>Node16</title>
<polygon fill="white" stroke="#bfbfbf" points="1217.5,-56.5 1217.5,-75.5 1256.5,-75.5 1256.5,-56.5 1217.5,-56.5"/>
<text text-anchor="middle" x="1237" y="-63.5" font-family="Helvetica,sans-Serif" font-size="10.00">limits</text>
</g>
<!-- Node1&#45;&gt;Node16 -->
<g id="edge59" class="edge"><title>Node1&#45;&gt;Node16</title>
<path fill="none" stroke="midnightblue" d="M723.565,-479.004C839.427,-478.412 1137.83,-473.028 1228,-434 1274.2,-414.003 1312,-408.346 1312,-358 1312,-358 1312,-358 1312,-182.5 1312,-140.977 1277.48,-102.636 1255.28,-82.2697"/>
<polygon fill="midnightblue" stroke="midnightblue" points="1257.56,-79.6089 1247.75,-75.607 1252.92,-84.853 1257.56,-79.6089"/>
</g>
<!-- Node19 -->
<g id="node19" class="node"><title>Node19</title>
<g id="a_node19"><a xlink:href="_i_o_processor_8h.html" target="_top" xlink:title="uscxml/plugins/IOProcessor.h">
<polygon fill="white" stroke="black" points="602.5,-347.5 602.5,-366.5 751.5,-366.5 751.5,-347.5 602.5,-347.5"/>
<text text-anchor="middle" x="677" y="-354.5" font-family="Helvetica,sans-Serif" font-size="10.00">uscxml/plugins/IOProcessor.h</text>
</a>
</g>
</g>
<!-- Node1&#45;&gt;Node19 -->
<g id="edge34" class="edge"><title>Node1&#45;&gt;Node19</title>
<path fill="none" stroke="midnightblue" d="M677,-470.298C677,-450.85 677,-403.49 677,-376.904"/>
<polygon fill="midnightblue" stroke="midnightblue" points="680.5,-376.623 677,-366.623 673.5,-376.623 680.5,-376.623"/>
</g>
<!-- Node20 -->
<g id="node20" class="node"><title>Node20</title>
<g id="a_node20"><a xlink:href="_invoker_8h.html" target="_top" xlink:title="uscxml/plugins/Invoker.h">
<polygon fill="white" stroke="black" points="458,-347.5 458,-366.5 584,-366.5 584,-347.5 458,-347.5"/>
<text text-anchor="middle" x="521" y="-354.5" font-family="Helvetica,sans-Serif" font-size="10.00">uscxml/plugins/Invoker.h</text>
</a>
</g>
</g>
<!-- Node1&#45;&gt;Node20 -->
<g id="edge38" class="edge"><title>Node1&#45;&gt;Node20</title>
<path fill="none" stroke="midnightblue" d="M669.014,-470.387C655.051,-455.597 624.926,-424.853 596,-403 580.396,-391.212 561.51,-379.895 546.594,-371.559"/>
<polygon fill="midnightblue" stroke="midnightblue" points="547.89,-368.278 537.44,-366.537 544.523,-374.416 547.89,-368.278"/>
</g>
<!-- Node22 -->
<g id="node22" class="node"><title>Node22</title>
<g id="a_node22"><a xlink:href="_data_model_impl_8h.html" target="_top" xlink:title="uscxml/plugins/DataModel\lImpl.h">
<polygon fill="white" stroke="black" points="454.5,-403.5 454.5,-433.5 587.5,-433.5 587.5,-403.5 454.5,-403.5"/>
<text text-anchor="start" x="462.5" y="-421.5" font-family="Helvetica,sans-Serif" font-size="10.00">uscxml/plugins/DataModel</text>
<text text-anchor="middle" x="521" y="-410.5" font-family="Helvetica,sans-Serif" font-size="10.00">Impl.h</text>
</a>
</g>
</g>
<!-- Node1&#45;&gt;Node22 -->
<g id="edge44" class="edge"><title>Node1&#45;&gt;Node22</title>
<path fill="none" stroke="midnightblue" d="M654.649,-470.475C631.941,-461.814 596.104,-448.145 567.253,-437.141"/>
<polygon fill="midnightblue" stroke="midnightblue" points="568.357,-433.817 557.766,-433.523 565.862,-440.357 568.357,-433.817"/>
</g>
<!-- Node23 -->
<g id="node23" class="node"><title>Node23</title>
<g id="a_node23"><a xlink:href="_string_8h.html" target="_top" xlink:title="string.h">
<polygon fill="white" stroke="black" points="1196.5,-174 1196.5,-193 1245.5,-193 1245.5,-174 1196.5,-174"/>
<text text-anchor="middle" x="1221" y="-181" font-family="Helvetica,sans-Serif" font-size="10.00">string.h</text>
</a>
</g>
</g>
<!-- Node1&#45;&gt;Node23 -->
<g id="edge53" class="edge"><title>Node1&#45;&gt;Node23</title>
<path fill="none" stroke="midnightblue" d="M723.629,-478.365C854.034,-475.337 1213,-457.929 1213,-358 1213,-358 1213,-358 1213,-300 1213,-265.782 1216.54,-225.997 1218.91,-203.182"/>
<polygon fill="midnightblue" stroke="midnightblue" points="1222.39,-203.497 1219.99,-193.179 1215.43,-202.746 1222.39,-203.497"/>
</g>
<!-- Node24 -->
<g id="node24" class="node"><title>Node24</title>
<polygon fill="white" stroke="#bfbfbf" points="1340,-409 1340,-428 1370,-428 1370,-409 1340,-409"/>
<text text-anchor="middle" x="1355" y="-416" font-family="Helvetica,sans-Serif" font-size="10.00">set</text>
</g>
<!-- Node1&#45;&gt;Node24 -->
<g id="edge58" class="edge"><title>Node1&#45;&gt;Node24</title>
<path fill="none" stroke="midnightblue" d="M723.543,-478.139C852.482,-475.379 1212.27,-465.039 1326,-434 1327.72,-433.531 1329.45,-432.957 1331.18,-432.311"/>
<polygon fill="midnightblue" stroke="midnightblue" points="1333,-435.33 1340.7,-428.049 1330.14,-428.941 1333,-435.33"/>
</g>
<!-- Node3 -->
<g id="node3" class="node"><title>Node3</title>
<polygon fill="white" stroke="#bfbfbf" points="456,-0.5 456,-19.5 528,-19.5 528,-0.5 456,-0.5"/>
<text text-anchor="middle" x="492" y="-7.5" font-family="Helvetica,sans-Serif" font-size="10.00">sys/socket.h</text>
</g>
<!-- Node2&#45;&gt;Node3 -->
<g id="edge2" class="edge"><title>Node2&#45;&gt;Node3</title>
<path fill="none" stroke="midnightblue" d="M523.725,-56.083C518.358,-48.4554 510.482,-37.2645 503.921,-27.9408"/>
<polygon fill="midnightblue" stroke="midnightblue" points="506.775,-25.9149 498.158,-19.7511 501.051,-29.9434 506.775,-25.9149"/>
</g>
<!-- Node4 -->
<g id="node4" class="node"><title>Node4</title>
<polygon fill="white" stroke="#bfbfbf" points="546,-0.5 546,-19.5 590,-19.5 590,-0.5 546,-0.5"/>
<text text-anchor="middle" x="568" y="-7.5" font-family="Helvetica,sans-Serif" font-size="10.00">cmath</text>
</g>
<!-- Node2&#45;&gt;Node4 -->
<g id="edge3" class="edge"><title>Node2&#45;&gt;Node4</title>
<path fill="none" stroke="midnightblue" d="M536.275,-56.083C541.642,-48.4554 549.518,-37.2645 556.079,-27.9408"/>
<polygon fill="midnightblue" stroke="midnightblue" points="558.949,-29.9434 561.842,-19.7511 553.225,-25.9149 558.949,-29.9434"/>
</g>
<!-- Node5&#45;&gt;Node2 -->
<g id="edge6" class="edge"><title>Node5&#45;&gt;Node2</title>
<path fill="none" stroke="midnightblue" d="M213.556,-168.29C219.593,-151.911 231.891,-125.516 252,-112 286.76,-88.6361 399.504,-76.3897 470.285,-70.8444"/>
<polygon fill="midnightblue" stroke="midnightblue" points="470.703,-74.3228 480.409,-70.0744 470.172,-67.343 470.703,-74.3228"/>
</g>
<!-- Node6 -->
<g id="node6" class="node"><title>Node6</title>
<polygon fill="white" stroke="#bfbfbf" points="294.5,-112.5 294.5,-131.5 379.5,-131.5 379.5,-112.5 294.5,-112.5"/>
<text text-anchor="middle" x="337" y="-119.5" font-family="Helvetica,sans-Serif" font-size="10.00">uscxml/config.h</text>
</g>
<!-- Node5&#45;&gt;Node6 -->
<g id="edge5" class="edge"><title>Node5&#45;&gt;Node6</title>
<path fill="none" stroke="midnightblue" d="M239.334,-168.399C260.523,-158.55 288.594,-145.501 309.202,-135.922"/>
<polygon fill="midnightblue" stroke="midnightblue" points="310.782,-139.047 318.375,-131.658 307.831,-132.699 310.782,-139.047"/>
</g>
<!-- Node5&#45;&gt;Node7 -->
<g id="edge7" class="edge"><title>Node5&#45;&gt;Node7</title>
<path fill="none" stroke="midnightblue" d="M276.312,-177.236C371.568,-169.42 551.036,-153.342 703,-132 719.549,-129.676 950.627,-87.8946 1035.24,-72.5729"/>
<polygon fill="midnightblue" stroke="midnightblue" points="1036.05,-75.9835 1045.27,-70.7573 1034.8,-69.0955 1036.05,-75.9835"/>
</g>
<!-- Node5&#45;&gt;Node8 -->
<g id="edge8" class="edge"><title>Node5&#45;&gt;Node8</title>
<path fill="none" stroke="midnightblue" d="M197.351,-168.337C179.69,-146.865 146.219,-106.172 127.513,-83.4293"/>
<polygon fill="midnightblue" stroke="midnightblue" points="130.186,-81.1693 121.131,-75.6695 124.78,-85.616 130.186,-81.1693"/>
</g>
<!-- Node9 -->
<g id="node9" class="node"><title>Node9</title>
<polygon fill="white" stroke="#bfbfbf" points="287,-56.5 287,-75.5 339,-75.5 339,-56.5 287,-56.5"/>
<text text-anchor="middle" x="313" y="-63.5" font-family="Helvetica,sans-Serif" font-size="10.00">sstream</text>
</g>
<!-- Node5&#45;&gt;Node9 -->
<g id="edge9" class="edge"><title>Node5&#45;&gt;Node9</title>
<path fill="none" stroke="midnightblue" d="M206.065,-168.41C203.707,-153.106 202.443,-128.624 214,-112 228.485,-91.1633 255.052,-79.8017 277.02,-73.7096"/>
<polygon fill="midnightblue" stroke="midnightblue" points="277.886,-77.1008 286.73,-71.2662 276.178,-70.3124 277.886,-77.1008"/>
</g>
<!-- Node10&#45;&gt;Node2 -->
<g id="edge11" class="edge"><title>Node10&#45;&gt;Node2</title>
<path fill="none" stroke="midnightblue" d="M781.271,-291.43C781.714,-261.041 778.698,-157.816 720,-112 682.925,-83.0616 630.229,-72.2727 589.734,-68.4605"/>
<polygon fill="midnightblue" stroke="midnightblue" points="589.972,-64.9683 579.719,-67.6348 589.397,-71.9447 589.972,-64.9683"/>
</g>
<!-- Node10&#45;&gt;Node7 -->
<g id="edge32" class="edge"><title>Node10&#45;&gt;Node7</title>
<path fill="none" stroke="midnightblue" d="M821.487,-291.472C890.086,-274.595 1027.32,-229.772 1085,-132 1093.83,-117.026 1086.12,-97.6627 1078.03,-83.9774"/>
<polygon fill="midnightblue" stroke="midnightblue" points="1080.94,-82.029 1072.57,-75.5339 1075.06,-85.8312 1080.94,-82.029"/>
</g>
<!-- Node10&#45;&gt;Node8 -->
<g id="edge33" class="edge"><title>Node10&#45;&gt;Node8</title>
<path fill="none" stroke="midnightblue" d="M703.825,-299.034C549.614,-295.404 211.438,-278.359 133,-199 103.114,-168.763 106.326,-113.989 110.531,-85.4355"/>
<polygon fill="midnightblue" stroke="midnightblue" points="113.983,-86.01 112.183,-75.5693 107.08,-84.8539 113.983,-86.01"/>
</g>
<!-- Node11 -->
<g id="node11" class="node"><title>Node11</title>
<g id="a_node11"><a xlink:href="_event_8h.html" target="_top" xlink:title="uscxml/messages/Event.h">
<polygon fill="white" stroke="black" points="609.5,-235.5 609.5,-254.5 742.5,-254.5 742.5,-235.5 609.5,-235.5"/>
<text text-anchor="middle" x="676" y="-242.5" font-family="Helvetica,sans-Serif" font-size="10.00">uscxml/messages/Event.h</text>
</a>
</g>
</g>
<!-- Node10&#45;&gt;Node11 -->
<g id="edge12" class="edge"><title>Node10&#45;&gt;Node11</title>
<path fill="none" stroke="midnightblue" d="M764.13,-291.324C747.291,-282.664 721.193,-269.242 701.762,-259.249"/>
<polygon fill="midnightblue" stroke="midnightblue" points="703.322,-256.116 692.828,-254.655 700.12,-262.341 703.322,-256.116"/>
</g>
<!-- Node13 -->
<g id="node13" class="node"><title>Node13</title>
<polygon fill="white" stroke="#bfbfbf" points="1133.5,-112.5 1133.5,-131.5 1162.5,-131.5 1162.5,-112.5 1133.5,-112.5"/>
<text text-anchor="middle" x="1148" y="-119.5" font-family="Helvetica,sans-Serif" font-size="10.00">list</text>
</g>
<!-- Node10&#45;&gt;Node13 -->
<g id="edge31" class="edge"><title>Node10&#45;&gt;Node13</title>
<path fill="none" stroke="midnightblue" d="M798.701,-291.463C858.885,-262.437 1055.67,-167.531 1124.2,-134.476"/>
<polygon fill="midnightblue" stroke="midnightblue" points="1125.87,-137.56 1133.35,-130.063 1122.83,-131.255 1125.87,-137.56"/>
</g>
<!-- Node12 -->
<g id="node12" class="node"><title>Node12</title>
<g id="a_node12"><a xlink:href="_data_8h.html" target="_top" xlink:title="uscxml/messages/Data.h">
<polygon fill="white" stroke="black" points="612,-174 612,-193 740,-193 740,-174 612,-174"/>
<text text-anchor="middle" x="676" y="-181" font-family="Helvetica,sans-Serif" font-size="10.00">uscxml/messages/Data.h</text>
</a>
</g>
</g>
<!-- Node11&#45;&gt;Node12 -->
<g id="edge13" class="edge"><title>Node11&#45;&gt;Node12</title>
<path fill="none" stroke="midnightblue" d="M676,-235.475C676,-227.08 676,-213.981 676,-203.163"/>
<polygon fill="midnightblue" stroke="midnightblue" points="679.5,-203.009 676,-193.009 672.5,-203.009 679.5,-203.009"/>
</g>
<!-- Node18 -->
<g id="node18" class="node"><title>Node18</title>
<g id="a_node18"><a xlink:href="_u_u_i_d_8h.html" target="_top" xlink:title="uscxml/util/UUID.h">
<polygon fill="white" stroke="black" points="977.5,-112.5 977.5,-131.5 1076.5,-131.5 1076.5,-112.5 977.5,-112.5"/>
<text text-anchor="middle" x="1027" y="-119.5" font-family="Helvetica,sans-Serif" font-size="10.00">uscxml/util/UUID.h</text>
</a>
</g>
</g>
<!-- Node11&#45;&gt;Node18 -->
<g id="edge28" class="edge"><title>Node11&#45;&gt;Node18</title>
<path fill="none" stroke="midnightblue" d="M700.682,-235.492C761.959,-214.368 921.194,-159.474 992.08,-135.038"/>
<polygon fill="midnightblue" stroke="midnightblue" points="993.562,-138.229 1001.88,-131.661 991.281,-131.611 993.562,-138.229"/>
</g>
<!-- Node12&#45;&gt;Node2 -->
<g id="edge18" class="edge"><title>Node12&#45;&gt;Node2</title>
<path fill="none" stroke="midnightblue" d="M684.297,-173.895C696.901,-159.763 717.911,-131.286 703,-112 689.044,-93.9488 634.042,-81.7878 589.752,-74.706"/>
<polygon fill="midnightblue" stroke="midnightblue" points="590.039,-71.2089 579.622,-73.1432 588.971,-78.127 590.039,-71.2089"/>
</g>
<!-- Node12&#45;&gt;Node6 -->
<g id="edge17" class="edge"><title>Node12&#45;&gt;Node6</title>
<path fill="none" stroke="midnightblue" d="M627.43,-173.975C564.347,-162.903 454.634,-143.647 389.625,-132.236"/>
<polygon fill="midnightblue" stroke="midnightblue" points="390.043,-128.757 379.589,-130.475 388.833,-135.651 390.043,-128.757"/>
</g>
<!-- Node12&#45;&gt;Node8 -->
<g id="edge16" class="edge"><title>Node12&#45;&gt;Node8</title>
<path fill="none" stroke="midnightblue" d="M644.644,-173.98C591.925,-159.846 482.062,-131.207 388,-112 303.601,-94.7662 203.528,-79.6665 150.782,-72.1181"/>
<polygon fill="midnightblue" stroke="midnightblue" points="150.968,-68.6094 140.575,-70.6673 149.983,-75.5398 150.968,-68.6094"/>
</g>
<!-- Node12&#45;&gt;Node13 -->
<g id="edge14" class="edge"><title>Node12&#45;&gt;Node13</title>
<path fill="none" stroke="midnightblue" d="M740.159,-174.961C820.734,-165.405 963.195,-148.219 1085,-132 1097.75,-130.303 1111.92,-128.289 1123.59,-126.597"/>
<polygon fill="midnightblue" stroke="midnightblue" points="1124.11,-130.059 1133.5,-125.152 1123.1,-123.132 1124.11,-130.059"/>
</g>
<!-- Node14 -->
<g id="node14" class="node"><title>Node14</title>
<polygon fill="white" stroke="#bfbfbf" points="658,-112.5 658,-131.5 694,-131.5 694,-112.5 658,-112.5"/>
<text text-anchor="middle" x="676" y="-119.5" font-family="Helvetica,sans-Serif" font-size="10.00">map</text>
</g>
<!-- Node12&#45;&gt;Node14 -->
<g id="edge15" class="edge"><title>Node12&#45;&gt;Node14</title>
<path fill="none" stroke="midnightblue" d="M676,-173.975C676,-165.58 676,-152.481 676,-141.663"/>
<polygon fill="midnightblue" stroke="midnightblue" points="679.5,-141.509 676,-131.509 672.5,-141.509 679.5,-141.509"/>
</g>
<!-- Node15 -->
<g id="node15" class="node"><title>Node15</title>
<g id="a_node15"><a xlink:href="_convenience_8h.html" target="_top" xlink:title="uscxml/util/Convenience.h">
<polygon fill="white" stroke="black" points="826.5,-112.5 826.5,-131.5 959.5,-131.5 959.5,-112.5 826.5,-112.5"/>
<text text-anchor="middle" x="893" y="-119.5" font-family="Helvetica,sans-Serif" font-size="10.00">uscxml/util/Convenience.h</text>
</a>
</g>
</g>
<!-- Node12&#45;&gt;Node15 -->
<g id="edge19" class="edge"><title>Node12&#45;&gt;Node15</title>
<path fill="none" stroke="midnightblue" d="M707.091,-173.975C745.281,-163.504 810.169,-145.712 852.299,-134.16"/>
<polygon fill="midnightblue" stroke="midnightblue" points="853.248,-137.529 861.967,-131.509 851.397,-130.778 853.248,-137.529"/>
</g>
<!-- Node17 -->
<g id="node17" class="node"><title>Node17</title>
<g id="a_node17"><a xlink:href="_blob_8h.html" target="_top" xlink:title="uscxml/messages/Blob.h">
<polygon fill="white" stroke="black" points="512.5,-112.5 512.5,-131.5 639.5,-131.5 639.5,-112.5 512.5,-112.5"/>
<text text-anchor="middle" x="576" y="-119.5" font-family="Helvetica,sans-Serif" font-size="10.00">uscxml/messages/Blob.h</text>
</a>
</g>
</g>
<!-- Node12&#45;&gt;Node17 -->
<g id="edge24" class="edge"><title>Node12&#45;&gt;Node17</title>
<path fill="none" stroke="midnightblue" d="M661.672,-173.975C645.336,-164.255 618.398,-148.227 599.088,-136.737"/>
<polygon fill="midnightblue" stroke="midnightblue" points="600.685,-133.615 590.301,-131.509 597.105,-139.63 600.685,-133.615"/>
</g>
<!-- Node15&#45;&gt;Node2 -->
<g id="edge20" class="edge"><title>Node15&#45;&gt;Node2</title>
<path fill="none" stroke="midnightblue" d="M835.482,-112.444C768.358,-102.458 657.897,-86.026 589.806,-75.8968"/>
<polygon fill="midnightblue" stroke="midnightblue" points="590.073,-72.398 579.667,-74.3884 589.043,-79.3218 590.073,-72.398"/>
</g>
<!-- Node15&#45;&gt;Node7 -->
<g id="edge21" class="edge"><title>Node15&#45;&gt;Node7</title>
<path fill="none" stroke="midnightblue" d="M920.412,-112.444C951.792,-102.649 1003.04,-86.6509 1035.62,-76.4836"/>
<polygon fill="midnightblue" stroke="midnightblue" points="1036.99,-79.7233 1045.49,-73.4026 1034.9,-73.0413 1036.99,-79.7233"/>
</g>
<!-- Node15&#45;&gt;Node9 -->
<g id="edge23" class="edge"><title>Node15&#45;&gt;Node9</title>
<path fill="none" stroke="midnightblue" d="M826.467,-114.806C703.429,-103.35 444.221,-79.2171 349.039,-70.3554"/>
<polygon fill="midnightblue" stroke="midnightblue" points="349.324,-66.8668 339.042,-69.4246 348.675,-73.8367 349.324,-66.8668"/>
</g>
<!-- Node15&#45;&gt;Node16 -->
<g id="edge22" class="edge"><title>Node15&#45;&gt;Node16</title>
<path fill="none" stroke="midnightblue" d="M947.508,-112.444C1021.17,-100.881 1149.89,-80.6739 1207.58,-71.6188"/>
<polygon fill="midnightblue" stroke="midnightblue" points="1208.15,-75.0709 1217.49,-70.0624 1207.07,-68.1556 1208.15,-75.0709"/>
</g>
<!-- Node17&#45;&gt;Node2 -->
<g id="edge27" class="edge"><title>Node17&#45;&gt;Node2</title>
<path fill="none" stroke="midnightblue" d="M568.404,-112.083C561.773,-104.298 551.979,-92.8015 543.942,-83.3665"/>
<polygon fill="midnightblue" stroke="midnightblue" points="546.604,-81.0939 537.455,-75.7511 541.275,-85.6332 546.604,-81.0939"/>
</g>
<!-- Node17&#45;&gt;Node7 -->
<g id="edge25" class="edge"><title>Node17&#45;&gt;Node7</title>
<path fill="none" stroke="midnightblue" d="M639.694,-113.09C642.84,-112.717 645.956,-112.352 649,-112 793.189,-95.3327 965.66,-77.3378 1034.95,-70.1883"/>
<polygon fill="midnightblue" stroke="midnightblue" points="1035.57,-73.6425 1045.16,-69.1359 1034.85,-66.6794 1035.57,-73.6425"/>
</g>
<!-- Node17&#45;&gt;Node8 -->
<g id="edge26" class="edge"><title>Node17&#45;&gt;Node8</title>
<path fill="none" stroke="midnightblue" d="M512.246,-113.548C414.251,-102.094 229.708,-80.5243 151.04,-71.3294"/>
<polygon fill="midnightblue" stroke="midnightblue" points="151.001,-67.8011 140.663,-70.1164 150.189,-74.7538 151.001,-67.8011"/>
</g>
<!-- Node18&#45;&gt;Node2 -->
<g id="edge29" class="edge"><title>Node18&#45;&gt;Node2</title>
<path fill="none" stroke="midnightblue" d="M977.45,-113.261C974.255,-112.818 971.083,-112.393 968,-112 833.154,-94.7986 674.294,-79.7806 589.854,-72.2131"/>
<polygon fill="midnightblue" stroke="midnightblue" points="589.955,-68.7084 579.684,-71.3055 589.333,-75.6806 589.955,-68.7084"/>
</g>
<!-- Node18&#45;&gt;Node7 -->
<g id="edge30" class="edge"><title>Node18&#45;&gt;Node7</title>
<path fill="none" stroke="midnightblue" d="M1033.44,-112.083C1038.95,-104.455 1047.03,-93.2645 1053.76,-83.9408"/>
<polygon fill="midnightblue" stroke="midnightblue" points="1056.66,-85.9071 1059.68,-75.7511 1050.99,-81.8087 1056.66,-85.9071"/>
</g>
<!-- Node19&#45;&gt;Node2 -->
<g id="edge35" class="edge"><title>Node19&#45;&gt;Node2</title>
<path fill="none" stroke="midnightblue" d="M666.346,-347.175C633.963,-319.564 536.85,-230.755 503,-132 497.27,-115.282 506.631,-96.7083 515.862,-83.711"/>
<polygon fill="midnightblue" stroke="midnightblue" points="518.708,-85.7513 522.044,-75.6952 513.165,-81.4763 518.708,-85.7513"/>
</g>
<!-- Node19&#45;&gt;Node10 -->
<g id="edge36" class="edge"><title>Node19&#45;&gt;Node10</title>
<path fill="none" stroke="midnightblue" d="M693.709,-347.324C710.312,-338.703 736.002,-325.364 755.22,-315.386"/>
<polygon fill="midnightblue" stroke="midnightblue" points="757.07,-318.369 764.332,-310.655 753.844,-312.156 757.07,-318.369"/>
</g>
<!-- Node19&#45;&gt;Node11 -->
<g id="edge37" class="edge"><title>Node19&#45;&gt;Node11</title>
<path fill="none" stroke="midnightblue" d="M676.922,-347.368C676.76,-329.617 676.388,-288.666 676.169,-264.597"/>
<polygon fill="midnightblue" stroke="midnightblue" points="679.669,-264.559 676.078,-254.591 672.669,-264.623 679.669,-264.559"/>
</g>
<!-- Node20&#45;&gt;Node2 -->
<g id="edge40" class="edge"><title>Node20&#45;&gt;Node2</title>
<path fill="none" stroke="midnightblue" d="M521.28,-347.094C521.519,-334.502 521.395,-310.82 518,-291 504.093,-209.816 433.165,-185.671 470,-112 476.728,-98.5432 489.606,-88.0665 501.712,-80.6212"/>
<polygon fill="midnightblue" stroke="midnightblue" points="503.733,-83.4985 510.704,-75.5195 500.279,-77.4101 503.733,-83.4985"/>
</g>
<!-- Node20&#45;&gt;Node6 -->
<g id="edge39" class="edge"><title>Node20&#45;&gt;Node6</title>
<path fill="none" stroke="midnightblue" d="M519.642,-347.2C517.228,-333.894 511.152,-308.368 498,-291 481.251,-268.881 467.388,-273.818 447,-255 406.802,-217.898 367.75,-166.218 348.829,-139.883"/>
<polygon fill="midnightblue" stroke="midnightblue" points="351.653,-137.815 343.007,-131.691 345.947,-141.87 351.653,-137.815"/>
</g>
<!-- Node20&#45;&gt;Node10 -->
<g id="edge41" class="edge"><title>Node20&#45;&gt;Node10</title>
<path fill="none" stroke="midnightblue" d="M562.198,-347.444C607.649,-338.004 680.842,-322.802 729.909,-312.611"/>
<polygon fill="midnightblue" stroke="midnightblue" points="730.916,-315.977 739.995,-310.516 729.492,-309.123 730.916,-315.977"/>
</g>
<!-- Node20&#45;&gt;Node11 -->
<g id="edge42" class="edge"><title>Node20&#45;&gt;Node11</title>
<path fill="none" stroke="midnightblue" d="M533.163,-347.368C559.647,-328.573 622.781,-283.768 655.521,-260.533"/>
<polygon fill="midnightblue" stroke="midnightblue" points="657.764,-263.233 663.894,-254.591 653.713,-257.525 657.764,-263.233"/>
</g>
<!-- Node21 -->
<g id="node21" class="node"><title>Node21</title>
<polygon fill="white" stroke="#bfbfbf" points="370.5,-291.5 370.5,-310.5 489.5,-310.5 489.5,-291.5 370.5,-291.5"/>
<text text-anchor="middle" x="430" y="-298.5" font-family="Helvetica,sans-Serif" font-size="10.00">xercesc/dom/DOM.hpp</text>
</g>
<!-- Node20&#45;&gt;Node21 -->
<g id="edge43" class="edge"><title>Node20&#45;&gt;Node21</title>
<path fill="none" stroke="midnightblue" d="M506.379,-347.324C492.051,-338.822 469.987,-325.729 453.251,-315.797"/>
<polygon fill="midnightblue" stroke="midnightblue" points="454.97,-312.748 444.584,-310.655 451.398,-318.768 454.97,-312.748"/>
</g>
<!-- Node22&#45;&gt;Node2 -->
<g id="edge46" class="edge"><title>Node22&#45;&gt;Node2</title>
<path fill="none" stroke="midnightblue" d="M454.418,-410.132C390.63,-398.939 304,-371.031 304,-302 304,-302 304,-302 304,-244 304,-214.364 266.031,-134.77 285,-112 308.122,-84.2449 405.404,-73.5509 470.207,-69.4703"/>
<polygon fill="midnightblue" stroke="midnightblue" points="470.537,-72.957 480.313,-68.8706 470.123,-65.9693 470.537,-72.957"/>
</g>
<!-- Node22&#45;&gt;Node6 -->
<g id="edge45" class="edge"><title>Node22&#45;&gt;Node6</title>
<path fill="none" stroke="midnightblue" d="M455.871,-403.484C404.69,-388.195 342,-358.031 342,-302 342,-302 342,-302 342,-244 342,-207.683 339.724,-165.286 338.243,-141.549"/>
<polygon fill="midnightblue" stroke="midnightblue" points="341.731,-141.257 337.593,-131.504 334.746,-141.709 341.731,-141.257"/>
</g>
<!-- Node22&#45;&gt;Node7 -->
<g id="edge51" class="edge"><title>Node22&#45;&gt;Node7</title>
<path fill="none" stroke="midnightblue" d="M587.694,-416.642C682.809,-414.068 862.264,-404.188 1010,-367 1083.64,-348.464 1168,-377.932 1168,-302 1168,-302 1168,-302 1168,-244 1168,-185.306 1204.39,-160.944 1172,-112 1155.39,-86.9092 1121.68,-75.767 1096.71,-70.8446"/>
<polygon fill="midnightblue" stroke="midnightblue" points="1097.07,-67.3551 1086.62,-69.0934 1095.87,-74.252 1097.07,-67.3551"/>
</g>
<!-- Node22&#45;&gt;Node8 -->
<g id="edge52" class="edge"><title>Node22&#45;&gt;Node8</title>
<path fill="none" stroke="midnightblue" d="M454.313,-408.361C413.66,-400.991 361.523,-388.247 319,-367 213.008,-314.04 169.214,-302.758 112,-199 92.0597,-162.838 101.179,-112.192 108.33,-85.3632"/>
<polygon fill="midnightblue" stroke="midnightblue" points="111.7,-86.3078 111.092,-75.7304 104.971,-84.378 111.7,-86.3078"/>
</g>
<!-- Node22&#45;&gt;Node13 -->
<g id="edge50" class="edge"><title>Node22&#45;&gt;Node13</title>
<path fill="none" stroke="midnightblue" d="M587.624,-411.801C745.645,-397.39 1130,-356.715 1130,-302 1130,-302 1130,-302 1130,-244 1130,-207.497 1138.11,-165.467 1143.45,-141.786"/>
<polygon fill="midnightblue" stroke="midnightblue" points="1146.93,-142.273 1145.79,-131.739 1140.11,-140.681 1146.93,-142.273"/>
</g>
<!-- Node22&#45;&gt;Node19 -->
<g id="edge48" class="edge"><title>Node22&#45;&gt;Node19</title>
<path fill="none" stroke="midnightblue" d="M557.97,-403.399C584.378,-393.327 619.557,-379.909 644.812,-370.277"/>
<polygon fill="midnightblue" stroke="midnightblue" points="646.204,-373.492 654.301,-366.658 643.71,-366.951 646.204,-373.492"/>
</g>
<!-- Node22&#45;&gt;Node20 -->
<g id="edge47" class="edge"><title>Node22&#45;&gt;Node20</title>
<path fill="none" stroke="midnightblue" d="M521,-403.399C521,-395.466 521,-385.458 521,-376.858"/>
<polygon fill="midnightblue" stroke="midnightblue" points="524.5,-376.658 521,-366.658 517.5,-376.658 524.5,-376.658"/>
</g>
<!-- Node22&#45;&gt;Node21 -->
<g id="edge49" class="edge"><title>Node22&#45;&gt;Node21</title>
<path fill="none" stroke="midnightblue" d="M492.109,-403.341C477.265,-394.719 460.028,-382.389 449,-367 439.263,-353.412 434.481,-334.866 432.153,-321.061"/>
<polygon fill="midnightblue" stroke="midnightblue" points="435.569,-320.214 430.721,-310.794 428.636,-321.182 435.569,-320.214"/>
</g>
<!-- Node23&#45;&gt;Node7 -->
<g id="edge54" class="edge"><title>Node23&#45;&gt;Node7</title>
<path fill="none" stroke="midnightblue" d="M1221.58,-173.907C1222.09,-159.274 1220.92,-129.418 1205,-112 1177.1,-81.4677 1128.34,-71.5739 1096.62,-68.4142"/>
<polygon fill="midnightblue" stroke="midnightblue" points="1096.83,-64.9193 1086.57,-67.5808 1096.25,-71.8954 1096.83,-64.9193"/>
</g>
<!-- Node23&#45;&gt;Node13 -->
<g id="edge55" class="edge"><title>Node23&#45;&gt;Node13</title>
<path fill="none" stroke="midnightblue" d="M1210.54,-173.975C1199.05,-164.608 1180.37,-149.384 1166.41,-138.008"/>
<polygon fill="midnightblue" stroke="midnightblue" points="1168.4,-135.114 1158.44,-131.509 1163.98,-140.54 1168.4,-135.114"/>
</g>
</g>
</svg>
