<?xml version="1.0" encoding="UTF-8" standalone="no"?>
<!DOCTYPE svg PUBLIC "-//W3C//DTD SVG 1.1//EN"
 "http://www.w3.org/Graphics/SVG/1.1/DTD/svg11.dtd">
<!-- Generated by graphviz version 2.40.1 (20161225.0304)
 -->
<!-- Title: plugins/Factory.h Pages: 1 -->
<svg width="498pt" height="140pt"
 viewBox="0.00 0.00 497.50 140.00" xmlns="http://www.w3.org/2000/svg" xmlns:xlink="http://www.w3.org/1999/xlink">
<g id="graph0" class="graph" transform="scale(1 1) rotate(0) translate(4 136)">
<title>plugins/Factory.h</title>
<polygon fill="#ffffff" stroke="transparent" points="-4,4 -4,-136 493.5,-136 493.5,4 -4,4"/>
<!-- Node1 -->
<g id="node1" class="node">
<title>Node1</title>
<polygon fill="#bfbfbf" stroke="#000000" points="256.5,-112.5 256.5,-131.5 349.5,-131.5 349.5,-112.5 256.5,-112.5"/>
<text text-anchor="middle" x="303" y="-119.5" font-family="Helvetica,sans-Serif" font-size="10.00" fill="#000000">plugins/Factory.h</text>
</g>
<!-- Node2 -->
<g id="node2" class="node">
<title>Node2</title>
<g id="a_node2"><a xlink:href="$_common_8h.html" xlink:title="uscxml/Common.h">
<polygon fill="#ffffff" stroke="#000000" points="53.5,-56.5 53.5,-75.5 152.5,-75.5 152.5,-56.5 53.5,-56.5"/>
<text text-anchor="middle" x="103" y="-63.5" font-family="Helvetica,sans-Serif" font-size="10.00" fill="#000000">uscxml/Common.h</text>
</a>
</g>
</g>
<!-- Node1&#45;&gt;Node2 -->
<g id="edge1" class="edge">
<title>Node1&#45;&gt;Node2</title>
<path fill="none" stroke="#191970" d="M268.6188,-112.3733C234.9299,-102.9404 183.4518,-88.5265 146.8382,-78.2747"/>
<polygon fill="#191970" stroke="#191970" points="147.506,-74.8271 136.9326,-75.5011 145.6185,-81.5679 147.506,-74.8271"/>
</g>
<!-- Node5 -->
<g id="node5" class="node">
<title>Node5</title>
<g id="a_node5"><a xlink:href="$_string_8h.html" xlink:title="string.h">
<polygon fill="#ffffff" stroke="#000000" points="209.5,-56.5 209.5,-75.5 258.5,-75.5 258.5,-56.5 209.5,-56.5"/>
<text text-anchor="middle" x="234" y="-63.5" font-family="Helvetica,sans-Serif" font-size="10.00" fill="#000000">string.h</text>
</a>
</g>
</g>
<!-- Node1&#45;&gt;Node5 -->
<g id="edge4" class="edge">
<title>Node1&#45;&gt;Node5</title>
<path fill="none" stroke="#191970" d="M290.9811,-112.2455C280.7902,-103.9746 265.9638,-91.9416 253.9893,-82.2232"/>
<polygon fill="#191970" stroke="#191970" points="255.8514,-79.2268 245.8812,-75.6427 251.4402,-84.662 255.8514,-79.2268"/>
</g>
<!-- Node6 -->
<g id="node6" class="node">
<title>Node6</title>
<polygon fill="#ffffff" stroke="#bfbfbf" points="160.5,-.5 160.5,-19.5 201.5,-19.5 201.5,-.5 160.5,-.5"/>
<text text-anchor="middle" x="181" y="-7.5" font-family="Helvetica,sans-Serif" font-size="10.00" fill="#000000">string</text>
</g>
<!-- Node1&#45;&gt;Node6 -->
<g id="edge10" class="edge">
<title>Node1&#45;&gt;Node6</title>
<path fill="none" stroke="#191970" d="M261.5369,-112.4581C240.396,-105.602 215.8669,-94.2546 200,-76 188.89,-63.2182 184.2594,-44.3036 182.3384,-29.9957"/>
<polygon fill="#191970" stroke="#191970" points="185.7877,-29.3144 181.3066,-19.7139 178.8227,-30.0134 185.7877,-29.3144"/>
</g>
<!-- Node8 -->
<g id="node8" class="node">
<title>Node8</title>
<polygon fill="#ffffff" stroke="#bfbfbf" points="276.5,-56.5 276.5,-75.5 329.5,-75.5 329.5,-56.5 276.5,-56.5"/>
<text text-anchor="middle" x="303" y="-63.5" font-family="Helvetica,sans-Serif" font-size="10.00" fill="#000000">memory</text>
</g>
<!-- Node1&#45;&gt;Node8 -->
<g id="edge7" class="edge">
<title>Node1&#45;&gt;Node8</title>
<path fill="none" stroke="#191970" d="M303,-112.2455C303,-104.9382 303,-94.6944 303,-85.7046"/>
<polygon fill="#191970" stroke="#191970" points="306.5001,-85.6426 303,-75.6427 299.5001,-85.6427 306.5001,-85.6426"/>
</g>
<!-- Node9 -->
<g id="node9" class="node">
<title>Node9</title>
<polygon fill="#ffffff" stroke="#bfbfbf" points="348,-56.5 348,-75.5 378,-75.5 378,-56.5 348,-56.5"/>
<text text-anchor="middle" x="363" y="-63.5" font-family="Helvetica,sans-Serif" font-size="10.00" fill="#000000">set</text>
</g>
<!-- Node1&#45;&gt;Node9 -->
<g id="edge8" class="edge">
<title>Node1&#45;&gt;Node9</title>
<path fill="none" stroke="#191970" d="M313.4512,-112.2455C322.2269,-104.0549 334.9554,-92.1749 345.314,-82.5069"/>
<polygon fill="#191970" stroke="#191970" points="347.7461,-85.0246 352.6686,-75.6427 342.9699,-79.9072 347.7461,-85.0246"/>
</g>
<!-- Node10 -->
<g id="node10" class="node">
<title>Node10</title>
<polygon fill="#ffffff" stroke="#bfbfbf" points="396,-56.5 396,-75.5 432,-75.5 432,-56.5 396,-56.5"/>
<text text-anchor="middle" x="414" y="-63.5" font-family="Helvetica,sans-Serif" font-size="10.00" fill="#000000">map</text>
</g>
<!-- Node1&#45;&gt;Node10 -->
<g id="edge9" class="edge">
<title>Node1&#45;&gt;Node10</title>
<path fill="none" stroke="#191970" d="M322.0816,-112.3733C339.9542,-103.3564 366.8481,-89.7883 386.9343,-79.6548"/>
<polygon fill="#191970" stroke="#191970" points="388.5508,-82.7595 395.9024,-75.1303 385.3978,-76.5098 388.5508,-82.7595"/>
</g>
<!-- Node11 -->
<g id="node11" class="node">
<title>Node11</title>
<polygon fill="#ffffff" stroke="#bfbfbf" points="450.5,-56.5 450.5,-75.5 489.5,-75.5 489.5,-56.5 450.5,-56.5"/>
<text text-anchor="middle" x="470" y="-63.5" font-family="Helvetica,sans-Serif" font-size="10.00" fill="#000000">limits</text>
</g>
<!-- Node1&#45;&gt;Node11 -->
<g id="edge11" class="edge">
<title>Node1&#45;&gt;Node11</title>
<path fill="none" stroke="#191970" d="M331.8387,-112.4831C357.8678,-103.8722 397.4494,-90.7261 440.7631,-76.0575"/>
<polygon fill="#191970" stroke="#191970" points="442.0077,-79.3313 450.354,-72.8051 439.7596,-72.702 442.0077,-79.3313"/>
</g>
<!-- Node3 -->
<g id="node3" class="node">
<title>Node3</title>
<polygon fill="#ffffff" stroke="#bfbfbf" points="0,-.5 0,-19.5 72,-19.5 72,-.5 0,-.5"/>
<text text-anchor="middle" x="36" y="-7.5" font-family="Helvetica,sans-Serif" font-size="10.00" fill="#000000">sys/socket.h</text>
</g>
<!-- Node2&#45;&gt;Node3 -->
<g id="edge2" class="edge">
<title>Node2&#45;&gt;Node3</title>
<path fill="none" stroke="#191970" d="M91.3295,-56.2455C81.4339,-47.9746 67.0373,-35.9416 55.4099,-26.2232"/>
<polygon fill="#191970" stroke="#191970" points="57.4542,-23.3703 47.5368,-19.6427 52.965,-28.7413 57.4542,-23.3703"/>
</g>
<!-- Node4 -->
<g id="node4" class="node">
<title>Node4</title>
<polygon fill="#ffffff" stroke="#bfbfbf" points="90,-.5 90,-19.5 134,-19.5 134,-.5 90,-.5"/>
<text text-anchor="middle" x="112" y="-7.5" font-family="Helvetica,sans-Serif" font-size="10.00" fill="#000000">cmath</text>
</g>
<!-- Node2&#45;&gt;Node4 -->
<g id="edge3" class="edge">
<title>Node2&#45;&gt;Node4</title>
<path fill="none" stroke="#191970" d="M104.5677,-56.2455C105.7421,-48.9382 107.3884,-38.6944 108.8332,-29.7046"/>
<polygon fill="#191970" stroke="#191970" points="112.3191,-30.0714 110.4503,-19.6427 105.4078,-28.9606 112.3191,-30.0714"/>
</g>
<!-- Node5&#45;&gt;Node6 -->
<g id="edge5" class="edge">
<title>Node5&#45;&gt;Node6</title>
<path fill="none" stroke="#191970" d="M224.7681,-56.2455C217.1683,-48.2155 206.2123,-36.6394 197.1632,-27.0781"/>
<polygon fill="#191970" stroke="#191970" points="199.542,-24.4998 190.1261,-19.6427 194.4579,-29.3115 199.542,-24.4998"/>
</g>
<!-- Node7 -->
<g id="node7" class="node">
<title>Node7</title>
<polygon fill="#ffffff" stroke="#bfbfbf" points="219.5,-.5 219.5,-19.5 248.5,-19.5 248.5,-.5 219.5,-.5"/>
<text text-anchor="middle" x="234" y="-7.5" font-family="Helvetica,sans-Serif" font-size="10.00" fill="#000000">list</text>
</g>
<!-- Node5&#45;&gt;Node7 -->
<g id="edge6" class="edge">
<title>Node5&#45;&gt;Node7</title>
<path fill="none" stroke="#191970" d="M234,-56.2455C234,-48.9382 234,-38.6944 234,-29.7046"/>
<polygon fill="#191970" stroke="#191970" points="237.5001,-29.6426 234,-19.6427 230.5001,-29.6427 237.5001,-29.6426"/>
</g>
</g>
</svg>
