<?xml version="1.0" encoding="UTF-8" standalone="no"?>
<!DOCTYPE svg PUBLIC "-//W3C//DTD SVG 1.1//EN"
 "http://www.w3.org/Graphics/SVG/1.1/DTD/svg11.dtd">
<!-- Generated by graphviz version 2.40.1 (20161225.0304)
 -->
<!-- Title: plugins/Factory.h Pages: 1 -->
<svg width="1625pt" height="464pt"
 viewBox="0.00 0.00 1624.50 464.00" xmlns="http://www.w3.org/2000/svg" xmlns:xlink="http://www.w3.org/1999/xlink">
<g id="graph0" class="graph" transform="scale(1 1) rotate(0) translate(4 460)">
<title>plugins/Factory.h</title>
<polygon fill="#ffffff" stroke="transparent" points="-4,4 -4,-460 1620.5,-460 1620.5,4 -4,4"/>
<!-- Node1 -->
<g id="node1" class="node">
<title>Node1</title>
<polygon fill="#bfbfbf" stroke="#000000" points="855.5,-436.5 855.5,-455.5 948.5,-455.5 948.5,-436.5 855.5,-436.5"/>
<text text-anchor="middle" x="902" y="-443.5" font-family="Helvetica,sans-Serif" font-size="10.00" fill="#000000">plugins/Factory.h</text>
</g>
<!-- Node2 -->
<g id="node2" class="node">
<title>Node2</title>
<g id="a_node2"><a xlink:href="$_interpreter_issue_8cpp.html" xlink:title="debug/InterpreterIssue.cpp">
<polygon fill="#ffffff" stroke="#000000" points="0,-196 0,-215 136,-215 136,-196 0,-196"/>
<text text-anchor="middle" x="68" y="-203" font-family="Helvetica,sans-Serif" font-size="10.00" fill="#000000">debug/InterpreterIssue.cpp</text>
</a>
</g>
</g>
<!-- Node1&#45;&gt;Node2 -->
<g id="edge1" class="edge">
<title>Node1&#45;&gt;Node2</title>
<path fill="none" stroke="#191970" d="M852.7971,-434.0684C816.3154,-425.0827 765.4248,-412.2558 721,-400 479.8258,-333.4655 191.4426,-244.111 98.4718,-215.0567"/>
<polygon fill="#191970" stroke="#191970" points="852.1411,-437.5113 862.6873,-436.4973 853.8107,-430.7133 852.1411,-437.5113"/>
</g>
<!-- Node3 -->
<g id="node3" class="node">
<title>Node3</title>
<g id="a_node3"><a xlink:href="$_interpreter_impl_8h.html" xlink:title="interpreter/InterpreterImpl.h">
<polygon fill="#ffffff" stroke="#000000" points="525,-257.5 525,-276.5 663,-276.5 663,-257.5 525,-257.5"/>
<text text-anchor="middle" x="594" y="-264.5" font-family="Helvetica,sans-Serif" font-size="10.00" fill="#000000">interpreter/InterpreterImpl.h</text>
</a>
</g>
</g>
<!-- Node1&#45;&gt;Node3 -->
<g id="edge2" class="edge">
<title>Node1&#45;&gt;Node3</title>
<path fill="none" stroke="#191970" d="M858.5322,-433.394C808.7609,-417.6335 726.2193,-387.3518 665,-344 637.3982,-324.4541 612.4249,-292.6631 600.8313,-276.7388"/>
<polygon fill="#191970" stroke="#191970" points="857.7463,-436.8149 868.3346,-436.4441 859.8261,-430.131 857.7463,-436.8149"/>
</g>
<!-- Node28 -->
<g id="node28" class="node">
<title>Node28</title>
<g id="a_node28"><a xlink:href="$_interpreter_8h.html" xlink:title="Interpreter.h">
<polygon fill="#ffffff" stroke="#000000" points="1125.5,-380.5 1125.5,-399.5 1196.5,-399.5 1196.5,-380.5 1125.5,-380.5"/>
<text text-anchor="middle" x="1161" y="-387.5" font-family="Helvetica,sans-Serif" font-size="10.00" fill="#000000">Interpreter.h</text>
</a>
</g>
</g>
<!-- Node1&#45;&gt;Node28 -->
<g id="edge31" class="edge">
<title>Node1&#45;&gt;Node28</title>
<path fill="none" stroke="#191970" d="M956.0606,-434.3112C1006.8844,-423.3223 1081.5104,-407.1869 1125.2898,-397.7211"/>
<polygon fill="#191970" stroke="#191970" points="955.2639,-430.9025 946.2294,-436.4369 956.7432,-437.7444 955.2639,-430.9025"/>
</g>
<!-- Node36 -->
<g id="node36" class="node">
<title>Node36</title>
<g id="a_node36"><a xlink:href="$_factory_8cpp.html" xlink:title="plugins/Factory.cpp">
<polygon fill="#ffffff" stroke="#000000" points="1513.5,-319 1513.5,-338 1616.5,-338 1616.5,-319 1513.5,-319"/>
<text text-anchor="middle" x="1565" y="-326" font-family="Helvetica,sans-Serif" font-size="10.00" fill="#000000">plugins/Factory.cpp</text>
</a>
</g>
</g>
<!-- Node1&#45;&gt;Node36 -->
<g id="edge53" class="edge">
<title>Node1&#45;&gt;Node36</title>
<path fill="none" stroke="#191970" d="M958.9154,-438.0583C1020.0744,-429.3679 1120.0807,-414.7055 1206,-400 1336.6791,-377.6336 1369.3266,-371.6062 1499,-344 1507.6341,-342.1619 1516.8739,-340.0704 1525.6236,-338.0318"/>
<polygon fill="#191970" stroke="#191970" points="958.1114,-434.6372 948.7013,-439.5054 959.0935,-441.5679 958.1114,-434.6372"/>
</g>
<!-- Node3&#45;&gt;Node2 -->
<g id="edge9" class="edge">
<title>Node3&#45;&gt;Node2</title>
<path fill="none" stroke="#191970" d="M514.7735,-261.21C424.8355,-254.0981 273.8717,-240.5257 145,-221 134.0793,-219.3454 122.3607,-217.1861 111.4423,-215.0071"/>
<polygon fill="#191970" stroke="#191970" points="514.6524,-264.7112 524.8954,-262.0035 515.1995,-257.7326 514.6524,-264.7112"/>
</g>
<!-- Node4 -->
<g id="node4" class="node">
<title>Node4</title>
<g id="a_node4"><a xlink:href="$_breakpoint_8cpp.html" xlink:title="debug/Breakpoint.cpp">
<polygon fill="#ffffff" stroke="#000000" points="1486,-196 1486,-215 1600,-215 1600,-196 1486,-196"/>
<text text-anchor="middle" x="1543" y="-203" font-family="Helvetica,sans-Serif" font-size="10.00" fill="#000000">debug/Breakpoint.cpp</text>
</a>
</g>
</g>
<!-- Node3&#45;&gt;Node4 -->
<g id="edge3" class="edge">
<title>Node3&#45;&gt;Node4</title>
<path fill="none" stroke="#191970" d="M673.4465,-257.0468C1031.1437,-227.3162 1125.9818,-269.6457 1477,-221 1487.143,-219.5943 1498.0146,-217.3539 1507.948,-215.0085"/>
<polygon fill="#191970" stroke="#191970" points="672.9983,-253.5721 663.3283,-257.9011 673.5873,-260.5473 672.9983,-253.5721"/>
</g>
<!-- Node5 -->
<g id="node5" class="node">
<title>Node5</title>
<g id="a_node5"><a xlink:href="$_debugger_8h.html" xlink:title="debug/Debugger.h">
<polygon fill="#ffffff" stroke="#000000" points="1064.5,-196 1064.5,-215 1163.5,-215 1163.5,-196 1064.5,-196"/>
<text text-anchor="middle" x="1114" y="-203" font-family="Helvetica,sans-Serif" font-size="10.00" fill="#000000">debug/Debugger.h</text>
</a>
</g>
</g>
<!-- Node3&#45;&gt;Node5 -->
<g id="edge4" class="edge">
<title>Node3&#45;&gt;Node5</title>
<path fill="none" stroke="#191970" d="M673.4623,-256.9958C844.6925,-238.7384 890.9163,-250.6019 1056,-221 1064.5151,-219.4731 1073.6056,-217.307 1082.0031,-215.0766"/>
<polygon fill="#191970" stroke="#191970" points="672.9111,-253.535 663.3471,-258.0937 673.6664,-260.4941 672.9111,-253.535"/>
</g>
<!-- Node10 -->
<g id="node10" class="node">
<title>Node10</title>
<g id="a_node10"><a xlink:href="$_interpreter_impl_8cpp.html" xlink:title="interpreter/InterpreterImpl.cpp">
<polygon fill="#ffffff" stroke="#000000" points="897.5,-196 897.5,-215 1046.5,-215 1046.5,-196 897.5,-196"/>
<text text-anchor="middle" x="972" y="-203" font-family="Helvetica,sans-Serif" font-size="10.00" fill="#000000">interpreter/InterpreterImpl.cpp</text>
</a>
</g>
</g>
<!-- Node3&#45;&gt;Node10 -->
<g id="edge10" class="edge">
<title>Node3&#45;&gt;Node10</title>
<path fill="none" stroke="#191970" d="M668.0856,-255.9799C727.5891,-246.9912 813.2581,-233.7405 888,-221 898.8178,-219.156 910.4004,-217.0829 921.4017,-215.0673"/>
<polygon fill="#191970" stroke="#191970" points="667.3948,-252.5444 658.0284,-257.4962 668.4385,-259.4662 667.3948,-252.5444"/>
</g>
<!-- Node11 -->
<g id="node11" class="node">
<title>Node11</title>
<g id="a_node11"><a xlink:href="$_interpreter_8cpp.html" xlink:title="Interpreter.cpp">
<polygon fill="#ffffff" stroke="#000000" points="655,-196 655,-215 737,-215 737,-196 655,-196"/>
<text text-anchor="middle" x="696" y="-203" font-family="Helvetica,sans-Serif" font-size="10.00" fill="#000000">Interpreter.cpp</text>
</a>
</g>
</g>
<!-- Node3&#45;&gt;Node11 -->
<g id="edge11" class="edge">
<title>Node3&#45;&gt;Node11</title>
<path fill="none" stroke="#191970" d="M618.7097,-252.1015C637.8351,-240.57 663.7497,-224.945 680.1744,-215.0419"/>
<polygon fill="#191970" stroke="#191970" points="616.6941,-249.2298 609.9375,-257.3906 620.3085,-255.2244 616.6941,-249.2298"/>
</g>
<!-- Node12 -->
<g id="node12" class="node">
<title>Node12</title>
<g id="a_node12"><a xlink:href="$_u_s_c_x_m_l_invoker_8h.html" xlink:title="plugins/invoker/scxml\l/USCXMLInvoker.h">
<polygon fill="#ffffff" stroke="#000000" points="525,-190.5 525,-220.5 637,-220.5 637,-190.5 525,-190.5"/>
<text text-anchor="start" x="533" y="-208.5" font-family="Helvetica,sans-Serif" font-size="10.00" fill="#000000">plugins/invoker/scxml</text>
<text text-anchor="middle" x="581" y="-197.5" font-family="Helvetica,sans-Serif" font-size="10.00" fill="#000000">/USCXMLInvoker.h</text>
</a>
</g>
</g>
<!-- Node3&#45;&gt;Node12 -->
<g id="edge12" class="edge">
<title>Node3&#45;&gt;Node12</title>
<path fill="none" stroke="#191970" d="M589.8504,-247.3693C588.0139,-238.681 585.888,-228.6241 584.1802,-220.5446"/>
<polygon fill="#191970" stroke="#191970" points="586.4762,-248.3307 591.9688,-257.3906 593.3249,-246.8829 586.4762,-248.3307"/>
</g>
<!-- Node14 -->
<g id="node14" class="node">
<title>Node14</title>
<g id="a_node14"><a xlink:href="$_basic_h_t_t_p_i_o_processor_8h.html" xlink:title="plugins/ioprocessor\l/basichttp/BasicHTTPIOProcessor.h">
<polygon fill="#ffffff" stroke="#000000" points="154.5,-190.5 154.5,-220.5 331.5,-220.5 331.5,-190.5 154.5,-190.5"/>
<text text-anchor="start" x="162.5" y="-208.5" font-family="Helvetica,sans-Serif" font-size="10.00" fill="#000000">plugins/ioprocessor</text>
<text text-anchor="middle" x="243" y="-197.5" font-family="Helvetica,sans-Serif" font-size="10.00" fill="#000000">/basichttp/BasicHTTPIOProcessor.h</text>
</a>
</g>
</g>
<!-- Node3&#45;&gt;Node14 -->
<g id="edge14" class="edge">
<title>Node3&#45;&gt;Node14</title>
<path fill="none" stroke="#191970" d="M529.6688,-255.7283C473.2382,-245.8409 390.7423,-231.3865 328.72,-220.5193"/>
<polygon fill="#191970" stroke="#191970" points="529.0873,-259.1797 539.5414,-257.4581 530.2955,-252.2847 529.0873,-259.1797"/>
</g>
<!-- Node16 -->
<g id="node16" class="node">
<title>Node16</title>
<g id="a_node16"><a xlink:href="$_s_c_x_m_l_i_o_processor_8cpp.html" xlink:title="plugins/ioprocessor\l/scxml/SCXMLIOProcessor.cpp">
<polygon fill="#ffffff" stroke="#000000" points="349.5,-190.5 349.5,-220.5 506.5,-220.5 506.5,-190.5 349.5,-190.5"/>
<text text-anchor="start" x="357.5" y="-208.5" font-family="Helvetica,sans-Serif" font-size="10.00" fill="#000000">plugins/ioprocessor</text>
<text text-anchor="middle" x="428" y="-197.5" font-family="Helvetica,sans-Serif" font-size="10.00" fill="#000000">/scxml/SCXMLIOProcessor.cpp</text>
</a>
</g>
</g>
<!-- Node3&#45;&gt;Node16 -->
<g id="edge16" class="edge">
<title>Node3&#45;&gt;Node16</title>
<path fill="none" stroke="#191970" d="M558.4668,-253.8356C532.1016,-244.0678 496.1106,-230.7338 468.6082,-220.5446"/>
<polygon fill="#191970" stroke="#191970" points="557.4694,-257.1985 568.0625,-257.3906 559.9013,-250.6345 557.4694,-257.1985"/>
</g>
<!-- Node17 -->
<g id="node17" class="node">
<title>Node17</title>
<g id="a_node17"><a xlink:href="$_transformer_8h.html" xlink:title="transform/Transformer.h">
<polygon fill="#ffffff" stroke="#000000" points="755,-196 755,-215 879,-215 879,-196 755,-196"/>
<text text-anchor="middle" x="817" y="-203" font-family="Helvetica,sans-Serif" font-size="10.00" fill="#000000">transform/Transformer.h</text>
</a>
</g>
</g>
<!-- Node3&#45;&gt;Node17 -->
<g id="edge17" class="edge">
<title>Node3&#45;&gt;Node17</title>
<path fill="none" stroke="#191970" d="M638.6113,-254.6969C680.9557,-243.0189 743.7173,-225.7103 782.4009,-215.0419"/>
<polygon fill="#191970" stroke="#191970" points="637.5533,-251.3579 628.8438,-257.3906 639.4144,-258.106 637.5533,-251.3579"/>
</g>
<!-- Node6 -->
<g id="node6" class="node">
<title>Node6</title>
<g id="a_node6"><a xlink:href="$_debugger_8cpp.html" xlink:title="debug/Debugger.cpp">
<polygon fill="#ffffff" stroke="#000000" points="1344,-129 1344,-148 1454,-148 1454,-129 1344,-129"/>
<text text-anchor="middle" x="1399" y="-136" font-family="Helvetica,sans-Serif" font-size="10.00" fill="#000000">debug/Debugger.cpp</text>
</a>
</g>
</g>
<!-- Node5&#45;&gt;Node6 -->
<g id="edge5" class="edge">
<title>Node5&#45;&gt;Node6</title>
<path fill="none" stroke="#191970" d="M1159.4439,-193.375C1164.0174,-192.2107 1168.5967,-191.0672 1173,-190 1244.681,-172.6265 1263.1548,-170.6812 1335,-154 1343.1294,-152.1125 1351.8265,-150.0411 1360.1067,-148.0442"/>
<polygon fill="#191970" stroke="#191970" points="1158.321,-190.0499 1149.5115,-195.9358 1160.0687,-196.8283 1158.321,-190.0499"/>
</g>
<!-- Node7 -->
<g id="node7" class="node">
<title>Node7</title>
<g id="a_node7"><a xlink:href="$_debugger_servlet_8h.html" xlink:title="debug/DebuggerServlet.h">
<polygon fill="#ffffff" stroke="#000000" points="1046,-129 1046,-148 1176,-148 1176,-129 1046,-129"/>
<text text-anchor="middle" x="1111" y="-136" font-family="Helvetica,sans-Serif" font-size="10.00" fill="#000000">debug/DebuggerServlet.h</text>
</a>
</g>
</g>
<!-- Node5&#45;&gt;Node7 -->
<g id="edge6" class="edge">
<title>Node5&#45;&gt;Node7</title>
<path fill="none" stroke="#191970" d="M1113.1093,-185.6079C1112.5544,-173.214 1111.8654,-157.8263 1111.429,-148.0817"/>
<polygon fill="#191970" stroke="#191970" points="1109.6263,-186.0671 1113.5702,-195.9005 1116.6193,-185.754 1109.6263,-186.0671"/>
</g>
<!-- Node9 -->
<g id="node9" class="node">
<title>Node9</title>
<g id="a_node9"><a xlink:href="$_debug_session_8cpp.html" xlink:title="debug/DebugSession.cpp">
<polygon fill="#ffffff" stroke="#000000" points="1194.5,-129 1194.5,-148 1325.5,-148 1325.5,-129 1194.5,-129"/>
<text text-anchor="middle" x="1260" y="-136" font-family="Helvetica,sans-Serif" font-size="10.00" fill="#000000">debug/DebugSession.cpp</text>
</a>
</g>
</g>
<!-- Node5&#45;&gt;Node9 -->
<g id="edge8" class="edge">
<title>Node5&#45;&gt;Node9</title>
<path fill="none" stroke="#191970" d="M1144.3502,-191.5722C1172.7148,-178.5555 1214.3107,-159.467 1239.1206,-148.0817"/>
<polygon fill="#191970" stroke="#191970" points="1142.5471,-188.5486 1134.9182,-195.9005 1145.4667,-194.9107 1142.5471,-188.5486"/>
</g>
<!-- Node8 -->
<g id="node8" class="node">
<title>Node8</title>
<g id="a_node8"><a xlink:href="$_debugger_servlet_8cpp.html" xlink:title="debug/DebuggerServlet.cpp">
<polygon fill="#ffffff" stroke="#000000" points="1258.5,-67.5 1258.5,-86.5 1399.5,-86.5 1399.5,-67.5 1258.5,-67.5"/>
<text text-anchor="middle" x="1329" y="-74.5" font-family="Helvetica,sans-Serif" font-size="10.00" fill="#000000">debug/DebuggerServlet.cpp</text>
</a>
</g>
</g>
<!-- Node7&#45;&gt;Node8 -->
<g id="edge7" class="edge">
<title>Node7&#45;&gt;Node8</title>
<path fill="none" stroke="#191970" d="M1154.8733,-126.1229C1196.2648,-114.4459 1257.4402,-97.1877 1295.1767,-86.5419"/>
<polygon fill="#191970" stroke="#191970" points="1153.7365,-122.8069 1145.0625,-128.8906 1155.6372,-129.544 1153.7365,-122.8069"/>
</g>
<!-- Node13 -->
<g id="node13" class="node">
<title>Node13</title>
<g id="a_node13"><a xlink:href="$_u_s_c_x_m_l_invoker_8cpp.html" xlink:title="plugins/invoker/scxml\l/USCXMLInvoker.cpp">
<polygon fill="#ffffff" stroke="#000000" points="511.5,-123.5 511.5,-153.5 624.5,-153.5 624.5,-123.5 511.5,-123.5"/>
<text text-anchor="start" x="519.5" y="-141.5" font-family="Helvetica,sans-Serif" font-size="10.00" fill="#000000">plugins/invoker/scxml</text>
<text text-anchor="middle" x="568" y="-130.5" font-family="Helvetica,sans-Serif" font-size="10.00" fill="#000000">/USCXMLInvoker.cpp</text>
</a>
</g>
</g>
<!-- Node12&#45;&gt;Node13 -->
<g id="edge13" class="edge">
<title>Node12&#45;&gt;Node13</title>
<path fill="none" stroke="#191970" d="M576.1139,-180.3179C574.3722,-171.3414 572.4655,-161.5143 570.9382,-153.6432"/>
<polygon fill="#191970" stroke="#191970" points="572.7093,-181.1464 578.0501,-190.2967 579.5812,-179.813 572.7093,-181.1464"/>
</g>
<!-- Node15 -->
<g id="node15" class="node">
<title>Node15</title>
<g id="a_node15"><a xlink:href="$_basic_h_t_t_p_i_o_processor_8cpp.html" xlink:title="plugins/ioprocessor\l/basichttp/BasicHTTPIOProcessor.cpp">
<polygon fill="#ffffff" stroke="#000000" points="149.5,-123.5 149.5,-153.5 336.5,-153.5 336.5,-123.5 149.5,-123.5"/>
<text text-anchor="start" x="157.5" y="-141.5" font-family="Helvetica,sans-Serif" font-size="10.00" fill="#000000">plugins/ioprocessor</text>
<text text-anchor="middle" x="243" y="-130.5" font-family="Helvetica,sans-Serif" font-size="10.00" fill="#000000">/basichttp/BasicHTTPIOProcessor.cpp</text>
</a>
</g>
</g>
<!-- Node14&#45;&gt;Node15 -->
<g id="edge15" class="edge">
<title>Node14&#45;&gt;Node15</title>
<path fill="none" stroke="#191970" d="M243,-180.0249C243,-171.128 243,-161.4287 243,-153.6432"/>
<polygon fill="#191970" stroke="#191970" points="239.5001,-180.2966 243,-190.2967 246.5001,-180.2967 239.5001,-180.2966"/>
</g>
<!-- Node18 -->
<g id="node18" class="node">
<title>Node18</title>
<g id="a_node18"><a xlink:href="$_chart_to_c_8h.html" xlink:title="transform/ChartToC.h">
<polygon fill="#ffffff" stroke="#000000" points="681.5,-129 681.5,-148 794.5,-148 794.5,-129 681.5,-129"/>
<text text-anchor="middle" x="738" y="-136" font-family="Helvetica,sans-Serif" font-size="10.00" fill="#000000">transform/ChartToC.h</text>
</a>
</g>
</g>
<!-- Node17&#45;&gt;Node18 -->
<g id="edge18" class="edge">
<title>Node17&#45;&gt;Node18</title>
<path fill="none" stroke="#191970" d="M797.8976,-189.2992C782.7035,-176.4131 761.9602,-158.8207 749.2978,-148.0817"/>
<polygon fill="#191970" stroke="#191970" points="795.7908,-192.1017 805.6812,-195.9005 800.3185,-186.7631 795.7908,-192.1017"/>
</g>
<!-- Node20 -->
<g id="node20" class="node">
<title>Node20</title>
<g id="a_node20"><a xlink:href="$_chart_to_java_8h.html" xlink:title="transform/ChartToJava.h">
<polygon fill="#ffffff" stroke="#000000" points="951.5,-67.5 951.5,-86.5 1078.5,-86.5 1078.5,-67.5 951.5,-67.5"/>
<text text-anchor="middle" x="1015" y="-74.5" font-family="Helvetica,sans-Serif" font-size="10.00" fill="#000000">transform/ChartToJava.h</text>
</a>
</g>
</g>
<!-- Node17&#45;&gt;Node20 -->
<g id="edge27" class="edge">
<title>Node17&#45;&gt;Node20</title>
<path fill="none" stroke="#191970" d="M868.1434,-193.5516C917.7781,-181.5191 986.9265,-163.4271 996,-154 1013.8554,-135.4488 1015.7633,-102.9137 1015.4946,-86.723"/>
<polygon fill="#191970" stroke="#191970" points="867.0921,-190.2046 858.1887,-195.9474 868.7301,-197.0102 867.0921,-190.2046"/>
</g>
<!-- Node22 -->
<g id="node22" class="node">
<title>Node22</title>
<g id="a_node22"><a xlink:href="$_chart_to_promela_8h.html" xlink:title="transform/ChartToPromela.h">
<polygon fill="#ffffff" stroke="#000000" points="493.5,-67.5 493.5,-86.5 636.5,-86.5 636.5,-67.5 493.5,-67.5"/>
<text text-anchor="middle" x="565" y="-74.5" font-family="Helvetica,sans-Serif" font-size="10.00" fill="#000000">transform/ChartToPromela.h</text>
</a>
</g>
</g>
<!-- Node17&#45;&gt;Node22 -->
<g id="edge28" class="edge">
<title>Node17&#45;&gt;Node22</title>
<path fill="none" stroke="#191970" d="M770.1895,-193.0235C741.1781,-184.2715 703.7198,-171.0841 673,-154 653.649,-143.2384 651.894,-136.0414 634,-123 615.8495,-109.7716 594.1976,-95.5838 580.0516,-86.518"/>
<polygon fill="#191970" stroke="#191970" points="769.4926,-196.4668 780.0739,-195.9333 771.4694,-189.7517 769.4926,-196.4668"/>
</g>
<!-- Node25 -->
<g id="node25" class="node">
<title>Node25</title>
<g id="a_node25"><a xlink:href="$_chart_to_v_h_d_l_8h.html" xlink:title="transform/ChartToVHDL.h">
<polygon fill="#ffffff" stroke="#000000" points="797.5,-67.5 797.5,-86.5 930.5,-86.5 930.5,-67.5 797.5,-67.5"/>
<text text-anchor="middle" x="864" y="-74.5" font-family="Helvetica,sans-Serif" font-size="10.00" fill="#000000">transform/ChartToVHDL.h</text>
</a>
</g>
</g>
<!-- Node17&#45;&gt;Node25 -->
<g id="edge29" class="edge">
<title>Node17&#45;&gt;Node25</title>
<path fill="none" stroke="#191970" d="M822.4357,-185.9107C827.2897,-169.0468 834.8714,-144.1592 843,-123 847.9113,-110.2157 854.635,-95.9308 859.1386,-86.7213"/>
<polygon fill="#191970" stroke="#191970" points="819.0167,-185.139 819.6616,-195.7142 825.7523,-187.0451 819.0167,-185.139"/>
</g>
<!-- Node27 -->
<g id="node27" class="node">
<title>Node27</title>
<g id="a_node27"><a xlink:href="$_transformer_8cpp.html" xlink:title="transform/Transformer.cpp">
<polygon fill="#ffffff" stroke="#000000" points="851.5,-129 851.5,-148 986.5,-148 986.5,-129 851.5,-129"/>
<text text-anchor="middle" x="919" y="-136" font-family="Helvetica,sans-Serif" font-size="10.00" fill="#000000">transform/Transformer.cpp</text>
</a>
</g>
</g>
<!-- Node17&#45;&gt;Node27 -->
<g id="edge30" class="edge">
<title>Node17&#45;&gt;Node27</title>
<path fill="none" stroke="#191970" d="M840.0461,-190.3619C859.7856,-177.3957 887.6099,-159.119 904.413,-148.0817"/>
<polygon fill="#191970" stroke="#191970" points="838.0507,-187.485 831.6141,-195.9005 841.8938,-193.3357 838.0507,-187.485"/>
</g>
<!-- Node19 -->
<g id="node19" class="node">
<title>Node19</title>
<g id="a_node19"><a xlink:href="$_chart_to_c_8cpp.html" xlink:title="transform/ChartToC.cpp">
<polygon fill="#ffffff" stroke="#000000" points="655,-67.5 655,-86.5 779,-86.5 779,-67.5 655,-67.5"/>
<text text-anchor="middle" x="717" y="-74.5" font-family="Helvetica,sans-Serif" font-size="10.00" fill="#000000">transform/ChartToC.cpp</text>
</a>
</g>
</g>
<!-- Node18&#45;&gt;Node19 -->
<g id="edge19" class="edge">
<title>Node18&#45;&gt;Node19</title>
<path fill="none" stroke="#191970" d="M731.4845,-119.4189C727.7869,-108.5901 723.3152,-95.4944 720.3275,-86.7449"/>
<polygon fill="#191970" stroke="#191970" points="728.175,-120.5581 734.7188,-128.8906 734.7995,-118.2961 728.175,-120.5581"/>
</g>
<!-- Node18&#45;&gt;Node20 -->
<g id="edge20" class="edge">
<title>Node18&#45;&gt;Node20</title>
<path fill="none" stroke="#191970" d="M790.7866,-126.7802C843.35,-115.11 923.0553,-97.4137 971.9219,-86.5643"/>
<polygon fill="#191970" stroke="#191970" points="789.981,-123.3738 780.9773,-128.9581 791.4982,-130.2074 789.981,-123.3738"/>
</g>
<!-- Node18&#45;&gt;Node22 -->
<g id="edge22" class="edge">
<title>Node18&#45;&gt;Node22</title>
<path fill="none" stroke="#191970" d="M701.2913,-125.4504C668.495,-113.7916 621.2185,-96.9852 591.8414,-86.5419"/>
<polygon fill="#191970" stroke="#191970" points="700.374,-128.8388 710.9688,-128.8906 702.7188,-122.2432 700.374,-128.8388"/>
</g>
<!-- Node18&#45;&gt;Node25 -->
<g id="edge25" class="edge">
<title>Node18&#45;&gt;Node25</title>
<path fill="none" stroke="#191970" d="M766.9261,-124.3813C790.6881,-112.7832 823.7003,-96.6701 844.4507,-86.5419"/>
<polygon fill="#191970" stroke="#191970" points="765.1389,-121.3589 757.6875,-128.8906 768.2094,-127.6496 765.1389,-121.3589"/>
</g>
<!-- Node21 -->
<g id="node21" class="node">
<title>Node21</title>
<g id="a_node21"><a xlink:href="$_chart_to_java_8cpp.html" xlink:title="transform/ChartToJava.cpp">
<polygon fill="#ffffff" stroke="#000000" points="951,-6 951,-25 1089,-25 1089,-6 951,-6"/>
<text text-anchor="middle" x="1020" y="-13" font-family="Helvetica,sans-Serif" font-size="10.00" fill="#000000">transform/ChartToJava.cpp</text>
</a>
</g>
</g>
<!-- Node20&#45;&gt;Node21 -->
<g id="edge21" class="edge">
<title>Node20&#45;&gt;Node21</title>
<path fill="none" stroke="#191970" d="M1016.606,-57.2462C1017.4755,-46.5519 1018.5111,-33.814 1019.2077,-25.2449"/>
<polygon fill="#191970" stroke="#191970" points="1013.1032,-57.1399 1015.7813,-67.3906 1020.0802,-57.7072 1013.1032,-57.1399"/>
</g>
<!-- Node23 -->
<g id="node23" class="node">
<title>Node23</title>
<g id="a_node23"><a xlink:href="$_chart_to_promela_8cpp.html" xlink:title="transform/ChartToPromela.cpp">
<polygon fill="#ffffff" stroke="#000000" points="551,-6 551,-25 705,-25 705,-6 551,-6"/>
<text text-anchor="middle" x="628" y="-13" font-family="Helvetica,sans-Serif" font-size="10.00" fill="#000000">transform/ChartToPromela.cpp</text>
</a>
</g>
</g>
<!-- Node22&#45;&gt;Node23 -->
<g id="edge23" class="edge">
<title>Node22&#45;&gt;Node23</title>
<path fill="none" stroke="#191970" d="M582.1838,-60.2253C593.68,-49.0028 608.4077,-34.6258 618.0175,-25.2449"/>
<polygon fill="#191970" stroke="#191970" points="579.5546,-57.9007 574.8438,-67.3906 584.4444,-62.9097 579.5546,-57.9007"/>
</g>
<!-- Node24 -->
<g id="node24" class="node">
<title>Node24</title>
<g id="a_node24"><a xlink:href="$_promela_code_analyzer_8cpp.html" xlink:title="transform/promela/Promela\lCodeAnalyzer.cpp">
<polygon fill="#ffffff" stroke="#000000" points="395,-.5 395,-30.5 533,-30.5 533,-.5 395,-.5"/>
<text text-anchor="start" x="403" y="-18.5" font-family="Helvetica,sans-Serif" font-size="10.00" fill="#000000">transform/promela/Promela</text>
<text text-anchor="middle" x="464" y="-7.5" font-family="Helvetica,sans-Serif" font-size="10.00" fill="#000000">CodeAnalyzer.cpp</text>
</a>
</g>
</g>
<!-- Node22&#45;&gt;Node24 -->
<g id="edge24" class="edge">
<title>Node22&#45;&gt;Node24</title>
<path fill="none" stroke="#191970" d="M540.5688,-62.1236C524.8477,-52.5508 504.4825,-40.1502 488.7074,-30.5446"/>
<polygon fill="#191970" stroke="#191970" points="538.8573,-65.1792 549.2188,-67.3906 542.4979,-59.2004 538.8573,-65.1792"/>
</g>
<!-- Node26 -->
<g id="node26" class="node">
<title>Node26</title>
<g id="a_node26"><a xlink:href="$_chart_to_v_h_d_l_8cpp.html" xlink:title="transform/ChartToVHDL.cpp">
<polygon fill="#ffffff" stroke="#000000" points="789.5,-6 789.5,-25 932.5,-25 932.5,-6 789.5,-6"/>
<text text-anchor="middle" x="861" y="-13" font-family="Helvetica,sans-Serif" font-size="10.00" fill="#000000">transform/ChartToVHDL.cpp</text>
</a>
</g>
</g>
<!-- Node25&#45;&gt;Node26 -->
<g id="edge26" class="edge">
<title>Node25&#45;&gt;Node26</title>
<path fill="none" stroke="#191970" d="M863.0364,-57.2462C862.5147,-46.5519 861.8934,-33.814 861.4754,-25.2449"/>
<polygon fill="#191970" stroke="#191970" points="859.5481,-57.5731 863.5313,-67.3906 866.5398,-57.2319 859.5481,-57.5731"/>
</g>
<!-- Node28&#45;&gt;Node4 -->
<g id="edge32" class="edge">
<title>Node28&#45;&gt;Node4</title>
<path fill="none" stroke="#191970" d="M1206.6764,-379.0262C1278.0896,-363.8848 1302.3113,-372.8579 1369,-344 1417.0864,-323.1918 1425.1412,-309.8 1466,-277 1491.6066,-256.4439 1519.2715,-229.4463 1533.4408,-215.2282"/>
<polygon fill="#191970" stroke="#191970" points="1205.7729,-375.6413 1196.764,-381.2171 1207.2837,-382.4764 1205.7729,-375.6413"/>
</g>
<!-- Node28&#45;&gt;Node10 -->
<g id="edge48" class="edge">
<title>Node28&#45;&gt;Node10</title>
<path fill="none" stroke="#191970" d="M1130.4819,-375.4662C1116.688,-367.6854 1101.0437,-357.0094 1090,-344 1062.6935,-311.8332 1079.3534,-289.1269 1052,-257 1036.0448,-238.2605 1011.5616,-223.8888 993.8826,-215.1487"/>
<polygon fill="#191970" stroke="#191970" points="1129.1893,-378.7444 1139.6566,-380.3835 1132.4961,-372.5747 1129.1893,-378.7444"/>
</g>
<!-- Node28&#45;&gt;Node11 -->
<g id="edge49" class="edge">
<title>Node28&#45;&gt;Node11</title>
<path fill="none" stroke="#191970" d="M1115.3142,-383.9583C1073.6965,-377.4354 1011.1157,-365.0415 960,-344 892.2572,-316.114 885.1532,-290.493 820,-257 787.4512,-240.2678 748.1874,-224.6888 722.687,-215.1418"/>
<polygon fill="#191970" stroke="#191970" points="1115.0117,-387.4524 1125.4235,-385.4919 1116.0616,-380.5316 1115.0117,-387.4524"/>
</g>
<!-- Node28&#45;&gt;Node17 -->
<g id="edge51" class="edge">
<title>Node28&#45;&gt;Node17</title>
<path fill="none" stroke="#191970" d="M1119.9983,-377.2791C1066.0773,-359.5133 969.5643,-324.0836 896,-277 867.6434,-258.8508 839.6772,-230.3691 825.8786,-215.4196"/>
<polygon fill="#191970" stroke="#191970" points="1118.9634,-380.6229 1129.5557,-380.3896 1121.1298,-373.9666 1118.9634,-380.6229"/>
</g>
<!-- Node29 -->
<g id="node29" class="node">
<title>Node29</title>
<g id="a_node29"><a xlink:href="$_breakpoint_8h.html" xlink:title="debug/Breakpoint.h">
<polygon fill="#ffffff" stroke="#000000" points="1353.5,-257.5 1353.5,-276.5 1456.5,-276.5 1456.5,-257.5 1353.5,-257.5"/>
<text text-anchor="middle" x="1405" y="-264.5" font-family="Helvetica,sans-Serif" font-size="10.00" fill="#000000">debug/Breakpoint.h</text>
</a>
</g>
</g>
<!-- Node28&#45;&gt;Node29 -->
<g id="edge33" class="edge">
<title>Node28&#45;&gt;Node29</title>
<path fill="none" stroke="#191970" d="M1206.8023,-385.8436C1244.6419,-380.6862 1298.5225,-369.2384 1339,-344 1367.0881,-326.4866 1389.516,-293.1694 1399.4491,-276.7053"/>
<polygon fill="#191970" stroke="#191970" points="1206.0607,-382.4094 1196.5794,-387.1376 1206.9398,-389.354 1206.0607,-382.4094"/>
</g>
<!-- Node30 -->
<g id="node30" class="node">
<title>Node30</title>
<g id="a_node30"><a xlink:href="$_debug_session_8h.html" xlink:title="debug/DebugSession.h">
<polygon fill="#ffffff" stroke="#000000" points="1348,-196 1348,-215 1468,-215 1468,-196 1348,-196"/>
<text text-anchor="middle" x="1408" y="-203" font-family="Helvetica,sans-Serif" font-size="10.00" fill="#000000">debug/DebugSession.h</text>
</a>
</g>
</g>
<!-- Node28&#45;&gt;Node30 -->
<g id="edge40" class="edge">
<title>Node28&#45;&gt;Node30</title>
<path fill="none" stroke="#191970" d="M1206.0253,-377.7182C1245.6689,-366.5812 1298.2776,-350.8871 1306,-344 1337.6244,-315.7962 1319.2393,-290.6443 1345,-257 1358.3118,-239.6143 1378.5992,-224.4021 1392.5351,-215.1049"/>
<polygon fill="#191970" stroke="#191970" points="1204.952,-374.384 1196.261,-380.4434 1206.8338,-381.1263 1204.952,-374.384"/>
</g>
<!-- Node31 -->
<g id="node31" class="node">
<title>Node31</title>
<g id="a_node31"><a xlink:href="$_basic_content_executor_8cpp.html" xlink:title="interpreter/BasicContent\lExecutor.cpp">
<polygon fill="#ffffff" stroke="#000000" points="1099,-313.5 1099,-343.5 1223,-343.5 1223,-313.5 1099,-313.5"/>
<text text-anchor="start" x="1107" y="-331.5" font-family="Helvetica,sans-Serif" font-size="10.00" fill="#000000">interpreter/BasicContent</text>
<text text-anchor="middle" x="1161" y="-320.5" font-family="Helvetica,sans-Serif" font-size="10.00" fill="#000000">Executor.cpp</text>
</a>
</g>
</g>
<!-- Node28&#45;&gt;Node31 -->
<g id="edge41" class="edge">
<title>Node28&#45;&gt;Node31</title>
<path fill="none" stroke="#191970" d="M1161,-370.3693C1161,-361.681 1161,-351.6241 1161,-343.5446"/>
<polygon fill="#191970" stroke="#191970" points="1157.5001,-370.3906 1161,-380.3906 1164.5001,-370.3907 1157.5001,-370.3906"/>
</g>
<!-- Node32 -->
<g id="node32" class="node">
<title>Node32</title>
<g id="a_node32"><a xlink:href="$_micro_step_impl_8h.html" xlink:title="interpreter/MicroStepImpl.h">
<polygon fill="#ffffff" stroke="#000000" points="673.5,-319 673.5,-338 810.5,-338 810.5,-319 673.5,-319"/>
<text text-anchor="middle" x="742" y="-326" font-family="Helvetica,sans-Serif" font-size="10.00" fill="#000000">interpreter/MicroStepImpl.h</text>
</a>
</g>
</g>
<!-- Node28&#45;&gt;Node32 -->
<g id="edge42" class="edge">
<title>Node28&#45;&gt;Node32</title>
<path fill="none" stroke="#191970" d="M1114.8201,-384.3985C1049.9554,-376.3668 928.2323,-360.6955 825,-344 814.0022,-342.2213 802.2191,-340.1327 791.0864,-338.0748"/>
<polygon fill="#191970" stroke="#191970" points="1114.7582,-387.9174 1125.1115,-385.6678 1115.6151,-380.97 1114.7582,-387.9174"/>
</g>
<!-- Node28&#45;&gt;Node36 -->
<g id="edge50" class="edge">
<title>Node28&#45;&gt;Node36</title>
<path fill="none" stroke="#191970" d="M1206.6475,-385.1876C1271.8002,-378.0019 1395.0814,-363.2286 1499,-344 1508.1432,-342.3082 1517.9285,-340.1845 1527.0889,-338.0565"/>
<polygon fill="#191970" stroke="#191970" points="1206.2621,-381.7088 1196.7019,-386.2753 1207.0232,-388.6673 1206.2621,-381.7088"/>
</g>
<!-- Node37 -->
<g id="node37" class="node">
<title>Node37</title>
<g id="a_node37"><a xlink:href="$uscxml_8h.html" xlink:title="uscxml.h">
<polygon fill="#ffffff" stroke="#000000" points="1241,-319 1241,-338 1297,-338 1297,-319 1241,-319"/>
<text text-anchor="middle" x="1269" y="-326" font-family="Helvetica,sans-Serif" font-size="10.00" fill="#000000">uscxml.h</text>
</a>
</g>
</g>
<!-- Node28&#45;&gt;Node37 -->
<g id="edge52" class="edge">
<title>Node28&#45;&gt;Node37</title>
<path fill="none" stroke="#191970" d="M1186.6127,-375.415C1206.9139,-363.8546 1234.6946,-348.035 1252.2435,-338.0419"/>
<polygon fill="#191970" stroke="#191970" points="1184.8329,-372.4007 1177.875,-380.3906 1188.2968,-378.4836 1184.8329,-372.4007"/>
</g>
<!-- Node29&#45;&gt;Node4 -->
<g id="edge34" class="edge">
<title>Node29&#45;&gt;Node4</title>
<path fill="none" stroke="#191970" d="M1435.9894,-253.1895C1462.0622,-241.5701 1498.6602,-225.2601 1521.5889,-215.0419"/>
<polygon fill="#191970" stroke="#191970" points="1434.2718,-250.1231 1426.5625,-257.3906 1437.1213,-256.5169 1434.2718,-250.1231"/>
</g>
<!-- Node29&#45;&gt;Node5 -->
<g id="edge35" class="edge">
<title>Node29&#45;&gt;Node5</title>
<path fill="none" stroke="#191970" d="M1343.2079,-255.8127C1296.34,-247.07 1230.4102,-234.2197 1173,-221 1165.1564,-219.1939 1156.77,-217.094 1148.8543,-215.0341"/>
<polygon fill="#191970" stroke="#191970" points="1342.7349,-259.2846 1353.2059,-257.6694 1344.0131,-252.4023 1342.7349,-259.2846"/>
</g>
<!-- Node29&#45;&gt;Node30 -->
<g id="edge36" class="edge">
<title>Node29&#45;&gt;Node30</title>
<path fill="none" stroke="#191970" d="M1405.9636,-247.2462C1406.4853,-236.5519 1407.1066,-223.814 1407.5246,-215.2449"/>
<polygon fill="#191970" stroke="#191970" points="1402.4602,-247.2319 1405.4688,-257.3906 1409.4519,-247.5731 1402.4602,-247.2319"/>
</g>
<!-- Node30&#45;&gt;Node6 -->
<g id="edge37" class="edge">
<title>Node30&#45;&gt;Node6</title>
<path fill="none" stroke="#191970" d="M1405.3788,-185.9863C1403.7053,-173.5286 1401.6094,-157.9258 1400.2871,-148.0817"/>
<polygon fill="#191970" stroke="#191970" points="1401.9103,-186.4555 1406.7105,-195.9005 1408.848,-185.5236 1401.9103,-186.4555"/>
</g>
<!-- Node30&#45;&gt;Node8 -->
<g id="edge38" class="edge">
<title>Node30&#45;&gt;Node8</title>
<path fill="none" stroke="#191970" d="M1430.8299,-189.8869C1452.4433,-173.1447 1479.3365,-145.8804 1463,-123 1452.352,-108.0868 1408.7051,-94.9505 1374.0791,-86.5747"/>
<polygon fill="#191970" stroke="#191970" points="1428.5736,-187.2024 1422.6153,-195.9631 1432.7363,-192.8302 1428.5736,-187.2024"/>
</g>
<!-- Node30&#45;&gt;Node9 -->
<g id="edge39" class="edge">
<title>Node30&#45;&gt;Node9</title>
<path fill="none" stroke="#191970" d="M1377.61,-191.7424C1348.8495,-178.7224 1306.425,-159.5167 1281.1655,-148.0817"/>
<polygon fill="#191970" stroke="#191970" points="1376.2418,-194.9649 1386.7952,-195.9005 1379.1287,-188.5879 1376.2418,-194.9649"/>
</g>
<!-- Node32&#45;&gt;Node3 -->
<g id="edge46" class="edge">
<title>Node32&#45;&gt;Node3</title>
<path fill="none" stroke="#191970" d="M709.5015,-314.9955C681.4956,-303.358 641.7694,-286.8501 616.9626,-276.5419"/>
<polygon fill="#191970" stroke="#191970" points="708.2975,-318.2853 718.875,-318.8906 710.9836,-311.8212 708.2975,-318.2853"/>
</g>
<!-- Node33 -->
<g id="node33" class="node">
<title>Node33</title>
<g id="a_node33"><a xlink:href="$_fast_micro_step_8h.html" xlink:title="interpreter/FastMicroStep.h">
<polygon fill="#ffffff" stroke="#000000" points="905,-257.5 905,-276.5 1043,-276.5 1043,-257.5 905,-257.5"/>
<text text-anchor="middle" x="974" y="-264.5" font-family="Helvetica,sans-Serif" font-size="10.00" fill="#000000">interpreter/FastMicroStep.h</text>
</a>
</g>
</g>
<!-- Node32&#45;&gt;Node33 -->
<g id="edge43" class="edge">
<title>Node32&#45;&gt;Node33</title>
<path fill="none" stroke="#191970" d="M787.8691,-316.3407C831.8968,-304.6696 897.5027,-287.2784 937.9201,-276.5643"/>
<polygon fill="#191970" stroke="#191970" points="786.7647,-313.0125 777.9954,-318.9581 788.5584,-319.7788 786.7647,-313.0125"/>
</g>
<!-- Node35 -->
<g id="node35" class="node">
<title>Node35</title>
<g id="a_node35"><a xlink:href="$_micro_step_8cpp.html" xlink:title="interpreter/MicroStep.cpp">
<polygon fill="#ffffff" stroke="#000000" points="681.5,-257.5 681.5,-276.5 810.5,-276.5 810.5,-257.5 681.5,-257.5"/>
<text text-anchor="middle" x="746" y="-264.5" font-family="Helvetica,sans-Serif" font-size="10.00" fill="#000000">interpreter/MicroStep.cpp</text>
</a>
</g>
</g>
<!-- Node32&#45;&gt;Node35 -->
<g id="edge47" class="edge">
<title>Node32&#45;&gt;Node35</title>
<path fill="none" stroke="#191970" d="M743.2848,-308.7462C743.9804,-298.0519 744.8088,-285.314 745.3662,-276.7449"/>
<polygon fill="#191970" stroke="#191970" points="739.7815,-308.6845 742.625,-318.8906 746.7667,-309.1389 739.7815,-308.6845"/>
</g>
<!-- Node33&#45;&gt;Node10 -->
<g id="edge45" class="edge">
<title>Node33&#45;&gt;Node10</title>
<path fill="none" stroke="#191970" d="M973.3576,-247.2462C973.0098,-236.5519 972.5956,-223.814 972.3169,-215.2449"/>
<polygon fill="#191970" stroke="#191970" points="969.8642,-247.5097 973.6875,-257.3906 976.8605,-247.2821 969.8642,-247.5097"/>
</g>
<!-- Node34 -->
<g id="node34" class="node">
<title>Node34</title>
<g id="a_node34"><a xlink:href="$_fast_micro_step_8cpp.html" xlink:title="interpreter/FastMicroStep.cpp">
<polygon fill="#ffffff" stroke="#000000" points="1182,-196 1182,-215 1330,-215 1330,-196 1182,-196"/>
<text text-anchor="middle" x="1256" y="-203" font-family="Helvetica,sans-Serif" font-size="10.00" fill="#000000">interpreter/FastMicroStep.cpp</text>
</a>
</g>
</g>
<!-- Node33&#45;&gt;Node34 -->
<g id="edge44" class="edge">
<title>Node33&#45;&gt;Node34</title>
<path fill="none" stroke="#191970" d="M1027.7394,-255.2802C1081.2516,-243.61 1162.3957,-225.9137 1212.1443,-215.0643"/>
<polygon fill="#191970" stroke="#191970" points="1026.7777,-251.9076 1017.7531,-257.4581 1028.2692,-258.7469 1026.7777,-251.9076"/>
</g>
</g>
</svg>
