<?xml version="1.0" encoding="UTF-8" standalone="no"?>
<!DOCTYPE svg PUBLIC "-//W3C//DTD SVG 1.1//EN"
 "http://www.w3.org/Graphics/SVG/1.1/DTD/svg11.dtd">
<!-- Generated by graphviz version 2.38.0 (20140413.2041)
 -->
<!-- Title: plugins/Factory.h Pages: 1 -->
<!--zoomable 509 -->
<svg id="main" version="1.1" xmlns="http://www.w3.org/2000/svg" xmlns:xlink="http://www.w3.org/1999/xlink" xml:space="preserve" onload="init(evt)">
<style type="text/css"><![CDATA[
.edge:hover path { stroke: red; }
.edge:hover polygon { stroke: red; fill: red; }
]]></style>
<script type="text/javascript"><![CDATA[
var edges = document.getElementsByTagName('g');
if (edges && edges.length) {
  for (var i=0;i<edges.length;i++) {
    if (edges[i].id.substr(0,4)=='edge') {
      edges[i].setAttribute('class','edge');
    }
  }
}
]]></script>
        <defs>
                <circle id="rim" cx="0" cy="0" r="7"/>
                <circle id="rim2" cx="0" cy="0" r="3.5"/>
                <g id="zoomPlus">
                        <use xlink:href="#rim" fill="#404040">
                                <set attributeName="fill" to="#808080" begin="zoomplus.mouseover" end="zoomplus.mouseout"/>
                        </use>
                        <path d="M-4,0h8M0,-4v8" fill="none" stroke="white" stroke-width="1.5" pointer-events="none"/>
                </g>
                <g id="zoomMin">
                        <use xlink:href="#rim" fill="#404040">
                                <set attributeName="fill" to="#808080" begin="zoomminus.mouseover" end="zoomminus.mouseout"/>
                        </use>
                        <path d="M-4,0h8" fill="none" stroke="white" stroke-width="1.5" pointer-events="none"/>
                </g>
                <g id="dirArrow">
                        <path fill="none" stroke="white" stroke-width="1.5" d="M0,-3.0v7 M-2.5,-0.5L0,-3.0L2.5,-0.5"/>
                </g>
               <g id="resetDef">
                       <use xlink:href="#rim2" fill="#404040">
                               <set attributeName="fill" to="#808080" begin="reset.mouseover" end="reset.mouseout"/>
                       </use>
               </g>
        </defs>

<script type="text/javascript">
var viewWidth = 1351;
var viewHeight = 509;
var sectionId = 'dynsection-0';
</script>
<script xlink:href="svgpan.js"/>
<svg id="graph" class="graph">
<g id="viewport">
<title>plugins/Factory.h</title>
<polygon fill="white" stroke="none" points="-4,4 -4,-505 1347,-505 1347,4 -4,4"/>
<!-- Node1 -->
<g id="node1" class="node"><title>Node1</title>
<polygon fill="#bfbfbf" stroke="black" points="721.5,-481.5 721.5,-500.5 814.5,-500.5 814.5,-481.5 721.5,-481.5"/>
<text text-anchor="middle" x="768" y="-488.5" font-family="Helvetica,sans-Serif" font-size="10.00">plugins/Factory.h</text>
</g>
<!-- Node2 -->
<g id="node2" class="node"><title>Node2</title>
<g id="a_node2"><a xlink:href="_common_8h.html" target="_top" xlink:title="uscxml/Common.h">
<polygon fill="white" stroke="black" points="498.5,-56.5 498.5,-75.5 597.5,-75.5 597.5,-56.5 498.5,-56.5"/>
<text text-anchor="middle" x="548" y="-63.5" font-family="Helvetica,sans-Serif" font-size="10.00">uscxml/Common.h</text>
</a>
</g>
</g>
<!-- Node1&#45;&gt;Node2 -->
<g id="edge1" class="edge"><title>Node1&#45;&gt;Node2</title>
<path fill="none" stroke="midnightblue" d="M721.035,-489.953C584.949,-488.564 200,-475.243 200,-369 200,-369 200,-369 200,-305.5 200,-263.229 336.66,-138.52 383,-112 415.346,-93.4886 455.638,-82.3118 488.309,-75.7273"/>
<polygon fill="midnightblue" stroke="midnightblue" points="489.027,-79.1534 498.186,-73.8282 487.705,-72.2793 489.027,-79.1534"/>
</g>
<!-- Node5 -->
<g id="node5" class="node"><title>Node5</title>
<g id="a_node5"><a xlink:href="_executable_content_8h.html" target="_top" xlink:title="uscxml/plugins/Executable\lContent.h">
<polygon fill="white" stroke="black" points="180,-112.5 180,-142.5 314,-142.5 314,-112.5 180,-112.5"/>
<text text-anchor="start" x="188" y="-130.5" font-family="Helvetica,sans-Serif" font-size="10.00">uscxml/plugins/Executable</text>
<text text-anchor="middle" x="247" y="-119.5" font-family="Helvetica,sans-Serif" font-size="10.00">Content.h</text>
</a>
</g>
</g>
<!-- Node1&#45;&gt;Node5 -->
<g id="edge4" class="edge"><title>Node1&#45;&gt;Node5</title>
<path fill="none" stroke="midnightblue" d="M721.096,-488.488C591.144,-484.003 232.923,-469.538 186,-445 147.371,-424.799 124,-412.592 124,-369 124,-369 124,-369 124,-244 124,-198.825 168.637,-166.162 204.132,-147.331"/>
<polygon fill="midnightblue" stroke="midnightblue" points="206.068,-150.273 213.39,-142.615 202.89,-144.036 206.068,-150.273"/>
</g>
<!-- Node6 -->
<g id="node6" class="node"><title>Node6</title>
<polygon fill="white" stroke="#bfbfbf" points="1018.5,-56.5 1018.5,-75.5 1059.5,-75.5 1059.5,-56.5 1018.5,-56.5"/>
<text text-anchor="middle" x="1039" y="-63.5" font-family="Helvetica,sans-Serif" font-size="10.00">string</text>
</g>
<!-- Node1&#45;&gt;Node6 -->
<g id="edge56" class="edge"><title>Node1&#45;&gt;Node6</title>
<path fill="none" stroke="midnightblue" d="M814.801,-488.111C935.33,-481.979 1247,-457.56 1247,-369 1247,-369 1247,-369 1247,-188 1247,-148.049 1231.02,-135.885 1199,-112 1160.43,-83.2332 1104.22,-72.8494 1069.72,-69.1055"/>
<polygon fill="midnightblue" stroke="midnightblue" points="1070.04,-65.6204 1059.75,-68.1438 1069.37,-72.5881 1070.04,-65.6204"/>
</g>
<!-- Node7 -->
<g id="node7" class="node"><title>Node7</title>
<polygon fill="white" stroke="#bfbfbf" points="87.5,-56.5 87.5,-75.5 140.5,-75.5 140.5,-56.5 87.5,-56.5"/>
<text text-anchor="middle" x="114" y="-63.5" font-family="Helvetica,sans-Serif" font-size="10.00">memory</text>
</g>
<!-- Node1&#45;&gt;Node7 -->
<g id="edge57" class="edge"><title>Node1&#45;&gt;Node7</title>
<path fill="none" stroke="midnightblue" d="M721.236,-489.301C594.323,-486.988 245.612,-477.75 136,-445 69.6559,-425.178 0,-438.242 0,-369 0,-369 0,-369 0,-188 0,-137.348 53.5771,-99.2775 87.2721,-80.3435"/>
<polygon fill="midnightblue" stroke="midnightblue" points="89.0604,-83.3554 96.1875,-75.516 85.7273,-77.1998 89.0604,-83.3554"/>
</g>
<!-- Node9 -->
<g id="node9" class="node"><title>Node9</title>
<g id="a_node9"><a xlink:href="_event_handler_8h.html" target="_top" xlink:title="uscxml/plugins/EventHandler.h">
<polygon fill="white" stroke="black" points="760,-297 760,-316 914,-316 914,-297 760,-297"/>
<text text-anchor="middle" x="837" y="-304" font-family="Helvetica,sans-Serif" font-size="10.00">uscxml/plugins/EventHandler.h</text>
</a>
</g>
</g>
<!-- Node1&#45;&gt;Node9 -->
<g id="edge9" class="edge"><title>Node1&#45;&gt;Node9</title>
<path fill="none" stroke="midnightblue" d="M772.221,-481.449C781.258,-462.923 802.811,-417.555 817,-378 823.169,-360.802 828.711,-340.714 832.387,-326.39"/>
<polygon fill="midnightblue" stroke="midnightblue" points="835.879,-326.854 834.913,-316.303 829.089,-325.154 835.879,-326.854"/>
</g>
<!-- Node15 -->
<g id="node15" class="node"><title>Node15</title>
<polygon fill="white" stroke="#bfbfbf" points="1190.5,-56.5 1190.5,-75.5 1229.5,-75.5 1229.5,-56.5 1190.5,-56.5"/>
<text text-anchor="middle" x="1210" y="-63.5" font-family="Helvetica,sans-Serif" font-size="10.00">limits</text>
</g>
<!-- Node1&#45;&gt;Node15 -->
<g id="edge59" class="edge"><title>Node1&#45;&gt;Node15</title>
<path fill="none" stroke="midnightblue" d="M814.824,-488.392C910.446,-484.565 1124.8,-473.052 1192,-445 1241.26,-424.437 1285,-422.38 1285,-369 1285,-369 1285,-369 1285,-188 1285,-144.637 1249.77,-103.876 1227.6,-82.5194"/>
<polygon fill="midnightblue" stroke="midnightblue" points="1229.82,-79.8047 1220.11,-75.5602 1225.06,-84.932 1229.82,-79.8047"/>
</g>
<!-- Node18 -->
<g id="node18" class="node"><title>Node18</title>
<g id="a_node18"><a xlink:href="_i_o_processor_8h.html" target="_top" xlink:title="uscxml/plugins/IOProcessor.h">
<polygon fill="white" stroke="black" points="659.5,-358.5 659.5,-377.5 808.5,-377.5 808.5,-358.5 659.5,-358.5"/>
<text text-anchor="middle" x="734" y="-365.5" font-family="Helvetica,sans-Serif" font-size="10.00">uscxml/plugins/IOProcessor.h</text>
</a>
</g>
</g>
<!-- Node1&#45;&gt;Node18 -->
<g id="edge32" class="edge"><title>Node1&#45;&gt;Node18</title>
<path fill="none" stroke="midnightblue" d="M765.787,-481.073C762.227,-466.835 754.925,-438.13 748,-414 745.458,-405.141 742.442,-395.366 739.862,-387.196"/>
<polygon fill="midnightblue" stroke="midnightblue" points="743.172,-386.055 736.798,-377.593 736.503,-388.184 743.172,-386.055"/>
</g>
<!-- Node19 -->
<g id="node19" class="node"><title>Node19</title>
<g id="a_node19"><a xlink:href="_invoker_8h.html" target="_top" xlink:title="uscxml/plugins/Invoker.h">
<polygon fill="white" stroke="black" points="515,-358.5 515,-377.5 641,-377.5 641,-358.5 515,-358.5"/>
<text text-anchor="middle" x="578" y="-365.5" font-family="Helvetica,sans-Serif" font-size="10.00">uscxml/plugins/Invoker.h</text>
</a>
</g>
</g>
<!-- Node1&#45;&gt;Node19 -->
<g id="edge36" class="edge"><title>Node1&#45;&gt;Node19</title>
<path fill="none" stroke="midnightblue" d="M721.354,-490.119C682.86,-487.645 629.467,-477.87 597,-445 582.168,-429.984 578.336,-405.245 577.618,-388.089"/>
<polygon fill="midnightblue" stroke="midnightblue" points="581.114,-387.604 577.522,-377.636 574.115,-387.668 581.114,-387.604"/>
</g>
<!-- Node20 -->
<g id="node20" class="node"><title>Node20</title>
<g id="a_node20"><a xlink:href="_data_model_impl_8h.html" target="_top" xlink:title="uscxml/plugins/DataModel\lImpl.h">
<polygon fill="white" stroke="black" points="606.5,-414.5 606.5,-444.5 739.5,-444.5 739.5,-414.5 606.5,-414.5"/>
<text text-anchor="start" x="614.5" y="-432.5" font-family="Helvetica,sans-Serif" font-size="10.00">uscxml/plugins/DataModel</text>
<text text-anchor="middle" x="673" y="-421.5" font-family="Helvetica,sans-Serif" font-size="10.00">Impl.h</text>
</a>
</g>
</g>
<!-- Node1&#45;&gt;Node20 -->
<g id="edge40" class="edge"><title>Node1&#45;&gt;Node20</title>
<path fill="none" stroke="midnightblue" d="M754.389,-481.475C741.282,-473.266 720.992,-460.558 703.95,-449.885"/>
<polygon fill="midnightblue" stroke="midnightblue" points="705.722,-446.865 695.39,-444.523 702.007,-452.797 705.722,-446.865"/>
</g>
<!-- Node23 -->
<g id="node23" class="node"><title>Node23</title>
<g id="a_node23"><a xlink:href="_string_8h.html" target="_top" xlink:title="string.h">
<polygon fill="white" stroke="black" points="1169.5,-179.5 1169.5,-198.5 1218.5,-198.5 1218.5,-179.5 1169.5,-179.5"/>
<text text-anchor="middle" x="1194" y="-186.5" font-family="Helvetica,sans-Serif" font-size="10.00">string.h</text>
</a>
</g>
</g>
<!-- Node1&#45;&gt;Node23 -->
<g id="edge53" class="edge"><title>Node1&#45;&gt;Node23</title>
<path fill="none" stroke="midnightblue" d="M814.733,-486.413C923.809,-476.759 1186,-445.588 1186,-369 1186,-369 1186,-369 1186,-305.5 1186,-271.282 1189.54,-231.497 1191.91,-208.682"/>
<polygon fill="midnightblue" stroke="midnightblue" points="1195.39,-208.997 1192.99,-198.679 1188.43,-208.246 1195.39,-208.997"/>
</g>
<!-- Node24 -->
<g id="node24" class="node"><title>Node24</title>
<polygon fill="white" stroke="#bfbfbf" points="1313,-420 1313,-439 1343,-439 1343,-420 1313,-420"/>
<text text-anchor="middle" x="1328" y="-427" font-family="Helvetica,sans-Serif" font-size="10.00">set</text>
</g>
<!-- Node1&#45;&gt;Node24 -->
<g id="edge58" class="edge"><title>Node1&#45;&gt;Node24</title>
<path fill="none" stroke="midnightblue" d="M814.816,-488.297C926.984,-483.854 1208.49,-470.449 1299,-445 1300.71,-444.518 1302.45,-443.934 1304.17,-443.28"/>
<polygon fill="midnightblue" stroke="midnightblue" points="1306,-446.295 1313.68,-439.002 1303.13,-439.911 1306,-446.295"/>
</g>
<!-- Node3 -->
<g id="node3" class="node"><title>Node3</title>
<polygon fill="white" stroke="#bfbfbf" points="474,-0.5 474,-19.5 546,-19.5 546,-0.5 474,-0.5"/>
<text text-anchor="middle" x="510" y="-7.5" font-family="Helvetica,sans-Serif" font-size="10.00">sys/socket.h</text>
</g>
<!-- Node2&#45;&gt;Node3 -->
<g id="edge2" class="edge"><title>Node2&#45;&gt;Node3</title>
<path fill="none" stroke="midnightblue" d="M541.725,-56.083C536.358,-48.4554 528.482,-37.2645 521.921,-27.9408"/>
<polygon fill="midnightblue" stroke="midnightblue" points="524.775,-25.9149 516.158,-19.7511 519.051,-29.9434 524.775,-25.9149"/>
</g>
<!-- Node4 -->
<g id="node4" class="node"><title>Node4</title>
<polygon fill="white" stroke="#bfbfbf" points="564,-0.5 564,-19.5 608,-19.5 608,-0.5 564,-0.5"/>
<text text-anchor="middle" x="586" y="-7.5" font-family="Helvetica,sans-Serif" font-size="10.00">cmath</text>
</g>
<!-- Node2&#45;&gt;Node4 -->
<g id="edge3" class="edge"><title>Node2&#45;&gt;Node4</title>
<path fill="none" stroke="midnightblue" d="M554.275,-56.083C559.642,-48.4554 567.518,-37.2645 574.079,-27.9408"/>
<polygon fill="midnightblue" stroke="midnightblue" points="576.949,-29.9434 579.842,-19.7511 571.225,-25.9149 576.949,-29.9434"/>
</g>
<!-- Node5&#45;&gt;Node2 -->
<g id="edge5" class="edge"><title>Node5&#45;&gt;Node2</title>
<path fill="none" stroke="midnightblue" d="M314.176,-113.221C368.64,-102.455 444.365,-87.486 494.714,-77.5332"/>
<polygon fill="midnightblue" stroke="midnightblue" points="495.613,-80.9235 504.744,-75.5506 494.255,-74.0564 495.613,-80.9235"/>
</g>
<!-- Node5&#45;&gt;Node6 -->
<g id="edge6" class="edge"><title>Node5&#45;&gt;Node6</title>
<path fill="none" stroke="midnightblue" d="M314.184,-121.453C477.732,-109.166 891.677,-78.0679 1008.11,-69.3209"/>
<polygon fill="midnightblue" stroke="midnightblue" points="1008.72,-72.785 1018.43,-68.5456 1008.19,-65.8047 1008.72,-72.785"/>
</g>
<!-- Node5&#45;&gt;Node7 -->
<g id="edge7" class="edge"><title>Node5&#45;&gt;Node7</title>
<path fill="none" stroke="midnightblue" d="M215.481,-112.399C193.365,-102.505 164.033,-89.3832 142.594,-79.7919"/>
<polygon fill="midnightblue" stroke="midnightblue" points="143.91,-76.5466 133.353,-75.6578 141.052,-82.9364 143.91,-76.5466"/>
</g>
<!-- Node8 -->
<g id="node8" class="node"><title>Node8</title>
<polygon fill="white" stroke="#bfbfbf" points="324,-56.5 324,-75.5 376,-75.5 376,-56.5 324,-56.5"/>
<text text-anchor="middle" x="350" y="-63.5" font-family="Helvetica,sans-Serif" font-size="10.00">sstream</text>
</g>
<!-- Node5&#45;&gt;Node8 -->
<g id="edge8" class="edge"><title>Node5&#45;&gt;Node8</title>
<path fill="none" stroke="midnightblue" d="M271.41,-112.399C287.92,-102.862 309.623,-90.3248 326.038,-80.8422"/>
<polygon fill="midnightblue" stroke="midnightblue" points="328.104,-83.6906 335.013,-75.6578 324.603,-77.6292 328.104,-83.6906"/>
</g>
<!-- Node9&#45;&gt;Node2 -->
<g id="edge10" class="edge"><title>Node9&#45;&gt;Node2</title>
<path fill="none" stroke="midnightblue" d="M845.343,-296.599C872.286,-266.796 952.365,-169.173 902,-112 882.911,-90.3303 703.837,-76.3548 607.953,-70.3609"/>
<polygon fill="midnightblue" stroke="midnightblue" points="608.01,-66.8579 597.814,-69.7375 607.581,-73.8447 608.01,-66.8579"/>
</g>
<!-- Node9&#45;&gt;Node6 -->
<g id="edge30" class="edge"><title>Node9&#45;&gt;Node6</title>
<path fill="none" stroke="midnightblue" d="M862.013,-296.873C911.692,-278.139 1021.26,-228.411 1059,-143 1067.49,-123.778 1058.53,-100.173 1050.03,-84.4186"/>
<polygon fill="midnightblue" stroke="midnightblue" points="1053.03,-82.6081 1044.97,-75.733 1046.98,-86.1346 1053.03,-82.6081"/>
</g>
<!-- Node9&#45;&gt;Node7 -->
<g id="edge31" class="edge"><title>Node9&#45;&gt;Node7</title>
<path fill="none" stroke="midnightblue" d="M821.685,-296.9C794.451,-281.983 735.429,-251.346 682,-235 446.679,-163.005 319.71,-306.737 136,-143 119.849,-128.605 115.244,-103.156 114.092,-85.7027"/>
<polygon fill="midnightblue" stroke="midnightblue" points="117.585,-85.4594 113.746,-75.5848 110.589,-85.6985 117.585,-85.4594"/>
</g>
<!-- Node10 -->
<g id="node10" class="node"><title>Node10</title>
<g id="a_node10"><a xlink:href="_event_8h.html" target="_top" xlink:title="uscxml/messages/Event.h">
<polygon fill="white" stroke="black" points="540.5,-235.5 540.5,-254.5 673.5,-254.5 673.5,-235.5 540.5,-235.5"/>
<text text-anchor="middle" x="607" y="-242.5" font-family="Helvetica,sans-Serif" font-size="10.00">uscxml/messages/Event.h</text>
</a>
</g>
</g>
<!-- Node9&#45;&gt;Node10 -->
<g id="edge11" class="edge"><title>Node9&#45;&gt;Node10</title>
<path fill="none" stroke="midnightblue" d="M804.047,-296.975C763.398,-286.459 694.213,-268.562 649.576,-257.014"/>
<polygon fill="midnightblue" stroke="midnightblue" points="650.45,-253.625 639.892,-254.509 648.697,-260.402 650.45,-253.625"/>
</g>
<!-- Node12 -->
<g id="node12" class="node"><title>Node12</title>
<polygon fill="white" stroke="#bfbfbf" points="1106.5,-118 1106.5,-137 1135.5,-137 1135.5,-118 1106.5,-118"/>
<text text-anchor="middle" x="1121" y="-125" font-family="Helvetica,sans-Serif" font-size="10.00">list</text>
</g>
<!-- Node9&#45;&gt;Node12 -->
<g id="edge29" class="edge"><title>Node9&#45;&gt;Node12</title>
<path fill="none" stroke="midnightblue" d="M914.024,-300.255C954.908,-294.251 1004.16,-281.581 1041,-255 1073.4,-231.623 1067.64,-212.762 1089,-179 1095.99,-167.948 1103.85,-155.542 1110.03,-145.792"/>
<polygon fill="midnightblue" stroke="midnightblue" points="1113.16,-147.395 1115.56,-137.076 1107.25,-143.647 1113.16,-147.395"/>
</g>
<!-- Node11 -->
<g id="node11" class="node"><title>Node11</title>
<g id="a_node11"><a xlink:href="_data_8h.html" target="_top" xlink:title="uscxml/messages/Data.h">
<polygon fill="white" stroke="black" points="526,-179.5 526,-198.5 654,-198.5 654,-179.5 526,-179.5"/>
<text text-anchor="middle" x="590" y="-186.5" font-family="Helvetica,sans-Serif" font-size="10.00">uscxml/messages/Data.h</text>
</a>
</g>
</g>
<!-- Node10&#45;&gt;Node11 -->
<g id="edge12" class="edge"><title>Node10&#45;&gt;Node11</title>
<path fill="none" stroke="midnightblue" d="M604.193,-235.083C601.915,-227.849 598.629,-217.409 595.792,-208.397"/>
<polygon fill="midnightblue" stroke="midnightblue" points="599.096,-207.239 592.755,-198.751 592.419,-209.341 599.096,-207.239"/>
</g>
<!-- Node17 -->
<g id="node17" class="node"><title>Node17</title>
<g id="a_node17"><a xlink:href="_u_u_i_d_8h.html" target="_top" xlink:title="uscxml/util/UUID.h">
<polygon fill="white" stroke="black" points="950.5,-118 950.5,-137 1049.5,-137 1049.5,-118 950.5,-118"/>
<text text-anchor="middle" x="1000" y="-125" font-family="Helvetica,sans-Serif" font-size="10.00">uscxml/util/UUID.h</text>
</a>
</g>
</g>
<!-- Node10&#45;&gt;Node17 -->
<g id="edge26" class="edge"><title>Node10&#45;&gt;Node17</title>
<path fill="none" stroke="midnightblue" d="M636.218,-235.413C705.933,-214.924 882.061,-163.161 960.851,-140.005"/>
<polygon fill="midnightblue" stroke="midnightblue" points="962.25,-143.243 970.857,-137.065 960.276,-136.527 962.25,-143.243"/>
</g>
<!-- Node11&#45;&gt;Node2 -->
<g id="edge16" class="edge"><title>Node11&#45;&gt;Node2</title>
<path fill="none" stroke="midnightblue" d="M584.802,-179.307C579.681,-170.436 571.929,-156.144 567,-143 559.853,-123.94 554.569,-101.188 551.412,-85.5771"/>
<polygon fill="midnightblue" stroke="midnightblue" points="554.823,-84.7829 549.493,-75.6266 547.95,-86.1084 554.823,-84.7829"/>
</g>
<!-- Node11&#45;&gt;Node7 -->
<g id="edge15" class="edge"><title>Node11&#45;&gt;Node7</title>
<path fill="none" stroke="midnightblue" d="M525.617,-182.44C411.949,-172.435 186.183,-151.636 171,-143 147.883,-129.851 131.273,-103.114 122.144,-85.1229"/>
<polygon fill="midnightblue" stroke="midnightblue" points="125.222,-83.4459 117.745,-75.9395 118.909,-86.4702 125.222,-83.4459"/>
</g>
<!-- Node11&#45;&gt;Node12 -->
<g id="edge13" class="edge"><title>Node11&#45;&gt;Node12</title>
<path fill="none" stroke="midnightblue" d="M654.072,-184.581C744.704,-179.127 915.323,-166.585 1059,-143 1071.4,-140.965 1085.01,-137.878 1096.31,-135.075"/>
<polygon fill="midnightblue" stroke="midnightblue" points="1097.51,-138.383 1106.33,-132.518 1095.77,-131.601 1097.51,-138.383"/>
</g>
<!-- Node13 -->
<g id="node13" class="node"><title>Node13</title>
<polygon fill="white" stroke="#bfbfbf" points="484,-118 484,-137 520,-137 520,-118 484,-118"/>
<text text-anchor="middle" x="502" y="-125" font-family="Helvetica,sans-Serif" font-size="10.00">map</text>
</g>
<!-- Node11&#45;&gt;Node13 -->
<g id="edge14" class="edge"><title>Node11&#45;&gt;Node13</title>
<path fill="none" stroke="midnightblue" d="M577.392,-179.475C563.277,-169.931 540.169,-154.307 523.251,-142.868"/>
<polygon fill="midnightblue" stroke="midnightblue" points="524.829,-139.711 514.585,-137.009 520.909,-145.51 524.829,-139.711"/>
</g>
<!-- Node14 -->
<g id="node14" class="node"><title>Node14</title>
<g id="a_node14"><a xlink:href="_convenience_8h.html" target="_top" xlink:title="uscxml/util/Convenience.h">
<polygon fill="white" stroke="black" points="760.5,-118 760.5,-137 893.5,-137 893.5,-118 760.5,-118"/>
<text text-anchor="middle" x="827" y="-125" font-family="Helvetica,sans-Serif" font-size="10.00">uscxml/util/Convenience.h</text>
</a>
</g>
</g>
<!-- Node11&#45;&gt;Node14 -->
<g id="edge17" class="edge"><title>Node11&#45;&gt;Node14</title>
<path fill="none" stroke="midnightblue" d="M623.956,-179.475C665.842,-168.959 737.133,-151.062 783.128,-139.514"/>
<polygon fill="midnightblue" stroke="midnightblue" points="784.26,-142.839 793.107,-137.009 782.555,-136.049 784.26,-142.839"/>
</g>
<!-- Node16 -->
<g id="node16" class="node"><title>Node16</title>
<g id="a_node16"><a xlink:href="_blob_8h.html" target="_top" xlink:title="uscxml/messages/Blob.h">
<polygon fill="white" stroke="black" points="576.5,-118 576.5,-137 703.5,-137 703.5,-118 576.5,-118"/>
<text text-anchor="middle" x="640" y="-125" font-family="Helvetica,sans-Serif" font-size="10.00">uscxml/messages/Blob.h</text>
</a>
</g>
</g>
<!-- Node11&#45;&gt;Node16 -->
<g id="edge22" class="edge"><title>Node11&#45;&gt;Node16</title>
<path fill="none" stroke="midnightblue" d="M597.164,-179.475C604.738,-170.462 616.87,-156.025 626.293,-144.812"/>
<polygon fill="midnightblue" stroke="midnightblue" points="629.096,-146.917 632.85,-137.009 623.737,-142.413 629.096,-146.917"/>
</g>
<!-- Node14&#45;&gt;Node2 -->
<g id="edge18" class="edge"><title>Node14&#45;&gt;Node2</title>
<path fill="none" stroke="midnightblue" d="M787.026,-117.975C737.2,-107.349 652.026,-89.1847 597.95,-77.6524"/>
<polygon fill="midnightblue" stroke="midnightblue" points="598.41,-74.1719 587.9,-75.5091 596.95,-81.0179 598.41,-74.1719"/>
</g>
<!-- Node14&#45;&gt;Node6 -->
<g id="edge19" class="edge"><title>Node14&#45;&gt;Node6</title>
<path fill="none" stroke="midnightblue" d="M857.374,-117.975C897.608,-106.683 968.172,-86.8786 1008.48,-75.566"/>
<polygon fill="midnightblue" stroke="midnightblue" points="1009.6,-78.8881 1018.28,-72.816 1007.7,-72.1485 1009.6,-78.8881"/>
</g>
<!-- Node14&#45;&gt;Node8 -->
<g id="edge21" class="edge"><title>Node14&#45;&gt;Node8</title>
<path fill="none" stroke="midnightblue" d="M760.415,-118.084C744.549,-116.085 727.674,-113.962 712,-112 592.947,-97.0948 451.846,-79.6054 386.533,-71.5199"/>
<polygon fill="midnightblue" stroke="midnightblue" points="386.7,-68.014 376.346,-70.2591 385.841,-74.961 386.7,-68.014"/>
</g>
<!-- Node14&#45;&gt;Node15 -->
<g id="edge20" class="edge"><title>Node14&#45;&gt;Node15</title>
<path fill="none" stroke="midnightblue" d="M881.875,-117.975C963.997,-105.217 1116.07,-81.5929 1180.22,-71.6267"/>
<polygon fill="midnightblue" stroke="midnightblue" points="1181.09,-75.0326 1190.44,-70.0388 1180.02,-68.1155 1181.09,-75.0326"/>
</g>
<!-- Node16&#45;&gt;Node2 -->
<g id="edge25" class="edge"><title>Node16&#45;&gt;Node2</title>
<path fill="none" stroke="midnightblue" d="M626.819,-117.975C611.926,-108.343 587.456,-92.5175 569.727,-81.0517"/>
<polygon fill="midnightblue" stroke="midnightblue" points="571.455,-78.0008 561.157,-75.5091 567.653,-83.8787 571.455,-78.0008"/>
</g>
<!-- Node16&#45;&gt;Node6 -->
<g id="edge23" class="edge"><title>Node16&#45;&gt;Node6</title>
<path fill="none" stroke="midnightblue" d="M697.167,-117.975C782.693,-105.221 941.04,-81.608 1007.91,-71.6362"/>
<polygon fill="midnightblue" stroke="midnightblue" points="1008.82,-75.0386 1018.2,-70.1019 1007.79,-68.1152 1008.82,-75.0386"/>
</g>
<!-- Node16&#45;&gt;Node7 -->
<g id="edge24" class="edge"><title>Node16&#45;&gt;Node7</title>
<path fill="none" stroke="midnightblue" d="M576.635,-117.979C561.067,-115.953 544.438,-113.845 529,-112 389.428,-95.3187 223.122,-78.0827 150.714,-70.7085"/>
<polygon fill="midnightblue" stroke="midnightblue" points="151.029,-67.2225 140.726,-69.6932 150.321,-74.1867 151.029,-67.2225"/>
</g>
<!-- Node17&#45;&gt;Node2 -->
<g id="edge27" class="edge"><title>Node17&#45;&gt;Node2</title>
<path fill="none" stroke="midnightblue" d="M965.592,-117.992C956.05,-115.827 945.658,-113.649 936,-112 820.605,-92.2947 684.405,-78.7026 607.932,-71.9395"/>
<polygon fill="midnightblue" stroke="midnightblue" points="607.814,-68.4158 597.547,-71.0306 607.203,-75.3892 607.814,-68.4158"/>
</g>
<!-- Node17&#45;&gt;Node6 -->
<g id="edge28" class="edge"><title>Node17&#45;&gt;Node6</title>
<path fill="none" stroke="midnightblue" d="M1005.59,-117.975C1011.38,-109.138 1020.59,-95.0886 1027.87,-83.975"/>
<polygon fill="midnightblue" stroke="midnightblue" points="1030.87,-85.7913 1033.42,-75.5091 1025.01,-81.9539 1030.87,-85.7913"/>
</g>
<!-- Node18&#45;&gt;Node2 -->
<g id="edge33" class="edge"><title>Node18&#45;&gt;Node2</title>
<path fill="none" stroke="midnightblue" d="M733.763,-358.492C733.233,-338.738 732,-288.23 732,-246 732,-246 732,-246 732,-188 732,-153.072 736.568,-136.827 712,-112 684.782,-84.4951 642.448,-73.3584 607.609,-69.0393"/>
<polygon fill="midnightblue" stroke="midnightblue" points="607.851,-65.5451 597.533,-67.9503 607.099,-72.5046 607.851,-65.5451"/>
</g>
<!-- Node18&#45;&gt;Node9 -->
<g id="edge34" class="edge"><title>Node18&#45;&gt;Node9</title>
<path fill="none" stroke="midnightblue" d="M748.757,-358.475C765.661,-348.711 793.583,-332.581 813.49,-321.081"/>
<polygon fill="midnightblue" stroke="midnightblue" points="815.362,-324.042 822.27,-316.009 811.86,-317.981 815.362,-324.042"/>
</g>
<!-- Node18&#45;&gt;Node10 -->
<g id="edge35" class="edge"><title>Node18&#45;&gt;Node10</title>
<path fill="none" stroke="midnightblue" d="M724.866,-358.298C703.631,-338.066 650.686,-287.622 623.572,-261.789"/>
<polygon fill="midnightblue" stroke="midnightblue" points="625.705,-258.987 616.051,-254.623 620.877,-264.055 625.705,-258.987"/>
</g>
<!-- Node19&#45;&gt;Node2 -->
<g id="edge37" class="edge"><title>Node19&#45;&gt;Node2</title>
<path fill="none" stroke="midnightblue" d="M572.174,-358.116C553.402,-328.89 494.587,-232.48 475,-143 472.054,-129.541 468.284,-124.03 475,-112 483.156,-97.3909 498.22,-86.9362 512.554,-79.8038"/>
<polygon fill="midnightblue" stroke="midnightblue" points="514.146,-82.9244 521.789,-75.5863 511.238,-76.557 514.146,-82.9244"/>
</g>
<!-- Node19&#45;&gt;Node9 -->
<g id="edge38" class="edge"><title>Node19&#45;&gt;Node9</title>
<path fill="none" stroke="midnightblue" d="M615.108,-358.475C661.171,-347.893 739.774,-329.836 790.003,-318.297"/>
<polygon fill="midnightblue" stroke="midnightblue" points="790.998,-321.659 799.96,-316.009 789.431,-314.837 790.998,-321.659"/>
</g>
<!-- Node19&#45;&gt;Node10 -->
<g id="edge39" class="edge"><title>Node19&#45;&gt;Node10</title>
<path fill="none" stroke="midnightblue" d="M580.086,-358.298C584.767,-338.763 596.199,-291.065 602.555,-264.547"/>
<polygon fill="midnightblue" stroke="midnightblue" points="606.006,-265.164 604.933,-254.623 599.199,-263.532 606.006,-265.164"/>
</g>
<!-- Node20&#45;&gt;Node2 -->
<g id="edge41" class="edge"><title>Node20&#45;&gt;Node2</title>
<path fill="none" stroke="midnightblue" d="M606.149,-424.749C571.33,-419.205 530.929,-406.497 506,-378 427.369,-288.117 407.71,-215.087 468,-112 476.861,-96.8495 492.905,-86.406 508.312,-79.4236"/>
<polygon fill="midnightblue" stroke="midnightblue" points="509.854,-82.5733 517.753,-75.5122 507.175,-76.1064 509.854,-82.5733"/>
</g>
<!-- Node20&#45;&gt;Node6 -->
<g id="edge51" class="edge"><title>Node20&#45;&gt;Node6</title>
<path fill="none" stroke="midnightblue" d="M739.556,-425.133C868.762,-416.77 1141,-389.429 1141,-307.5 1141,-307.5 1141,-307.5 1141,-244 1141,-185.306 1177.39,-160.944 1145,-112 1128.39,-86.9092 1094.68,-75.767 1069.71,-70.8446"/>
<polygon fill="midnightblue" stroke="midnightblue" points="1070.07,-67.3551 1059.62,-69.0934 1068.87,-74.252 1070.07,-67.3551"/>
</g>
<!-- Node20&#45;&gt;Node7 -->
<g id="edge52" class="edge"><title>Node20&#45;&gt;Node7</title>
<path fill="none" stroke="midnightblue" d="M606.287,-421.16C553.288,-413.979 477.885,-400.726 415,-378 307.818,-339.265 284.174,-319.185 190,-255 135.344,-217.749 108.543,-207.041 92,-143 88.5541,-129.66 88.8944,-125.423 92,-112 94.2297,-102.363 98.8215,-92.4052 103.236,-84.3149"/>
<polygon fill="midnightblue" stroke="midnightblue" points="106.351,-85.9216 108.362,-75.5194 100.303,-82.3968 106.351,-85.9216"/>
</g>
<!-- Node20&#45;&gt;Node12 -->
<g id="edge50" class="edge"><title>Node20&#45;&gt;Node12</title>
<path fill="none" stroke="midnightblue" d="M739.716,-423.595C860.495,-412.868 1103,-382.047 1103,-307.5 1103,-307.5 1103,-307.5 1103,-244 1103,-209.452 1110.96,-169.776 1116.29,-147.07"/>
<polygon fill="midnightblue" stroke="midnightblue" points="1119.75,-147.666 1118.72,-137.122 1112.95,-146.007 1119.75,-147.666"/>
</g>
<!-- Node20&#45;&gt;Node18 -->
<g id="edge43" class="edge"><title>Node20&#45;&gt;Node18</title>
<path fill="none" stroke="midnightblue" d="M687.456,-414.399C696.594,-405.486 708.419,-393.952 717.862,-384.741"/>
<polygon fill="midnightblue" stroke="midnightblue" points="720.409,-387.146 725.124,-377.658 715.522,-382.135 720.409,-387.146"/>
</g>
<!-- Node20&#45;&gt;Node19 -->
<g id="edge42" class="edge"><title>Node20&#45;&gt;Node19</title>
<path fill="none" stroke="midnightblue" d="M650.486,-414.399C635.401,-404.951 615.615,-392.559 600.527,-383.109"/>
<polygon fill="midnightblue" stroke="midnightblue" points="602.156,-380 591.823,-377.658 598.441,-385.932 602.156,-380"/>
</g>
<!-- Node21 -->
<g id="node21" class="node"><title>Node21</title>
<g id="a_node21"><a xlink:href="_logging_8h.html" target="_top" xlink:title="uscxml/interpreter\l/Logging.h">
<polygon fill="white" stroke="black" points="332,-291.5 332,-321.5 428,-321.5 428,-291.5 332,-291.5"/>
<text text-anchor="start" x="340" y="-309.5" font-family="Helvetica,sans-Serif" font-size="10.00">uscxml/interpreter</text>
<text text-anchor="middle" x="380" y="-298.5" font-family="Helvetica,sans-Serif" font-size="10.00">/Logging.h</text>
</a>
</g>
</g>
<!-- Node20&#45;&gt;Node21 -->
<g id="edge44" class="edge"><title>Node20&#45;&gt;Node21</title>
<path fill="none" stroke="midnightblue" d="M606.254,-424.978C557.806,-419.889 492.226,-407.587 442,-378 422.16,-366.313 405.336,-346.055 394.241,-330.245"/>
<polygon fill="midnightblue" stroke="midnightblue" points="396.877,-327.892 388.391,-321.549 391.069,-331.799 396.877,-327.892"/>
</g>
<!-- Node21&#45;&gt;Node2 -->
<g id="edge46" class="edge"><title>Node21&#45;&gt;Node2</title>
<path fill="none" stroke="midnightblue" d="M377.09,-291.354C370.78,-256.41 359.743,-165.01 404,-112 424.662,-87.2523 458.744,-75.8994 488.565,-70.7818"/>
<polygon fill="midnightblue" stroke="midnightblue" points="489.128,-74.2365 498.489,-69.2749 488.077,-67.3158 489.128,-74.2365"/>
</g>
<!-- Node21&#45;&gt;Node7 -->
<g id="edge49" class="edge"><title>Node21&#45;&gt;Node7</title>
<path fill="none" stroke="midnightblue" d="M331.746,-294.515C264.603,-276.252 146.062,-232.442 100,-143 90.6276,-124.801 97.4004,-101.298 104.402,-85.2789"/>
<polygon fill="midnightblue" stroke="midnightblue" points="107.701,-86.4936 108.869,-75.9633 101.39,-83.4669 107.701,-86.4936"/>
</g>
<!-- Node21&#45;&gt;Node10 -->
<g id="edge48" class="edge"><title>Node21&#45;&gt;Node10</title>
<path fill="none" stroke="midnightblue" d="M428.141,-292.882C468.521,-282.297 525.644,-267.324 564.389,-257.169"/>
<polygon fill="midnightblue" stroke="midnightblue" points="565.525,-260.49 574.31,-254.568 563.75,-253.718 565.525,-260.49"/>
</g>
<!-- Node21&#45;&gt;Node11 -->
<g id="edge47" class="edge"><title>Node21&#45;&gt;Node11</title>
<path fill="none" stroke="midnightblue" d="M405.75,-291.337C446.612,-268.863 525.758,-225.333 565.695,-203.367"/>
<polygon fill="midnightblue" stroke="midnightblue" points="567.429,-206.408 574.505,-198.522 564.056,-200.275 567.429,-206.408"/>
</g>
<!-- Node22 -->
<g id="node22" class="node"><title>Node22</title>
<polygon fill="white" stroke="#bfbfbf" points="266.5,-235.5 266.5,-254.5 351.5,-254.5 351.5,-235.5 266.5,-235.5"/>
<text text-anchor="middle" x="309" y="-242.5" font-family="Helvetica,sans-Serif" font-size="10.00">uscxml/config.h</text>
</g>
<!-- Node21&#45;&gt;Node22 -->
<g id="edge45" class="edge"><title>Node21&#45;&gt;Node22</title>
<path fill="none" stroke="midnightblue" d="M363.174,-291.399C352.325,-282.308 338.223,-270.49 327.127,-261.191"/>
<polygon fill="midnightblue" stroke="midnightblue" points="329.244,-258.398 319.331,-254.658 324.748,-263.763 329.244,-258.398"/>
</g>
<!-- Node23&#45;&gt;Node6 -->
<g id="edge54" class="edge"><title>Node23&#45;&gt;Node6</title>
<path fill="none" stroke="midnightblue" d="M1194.77,-179.248C1195.65,-163.685 1195.13,-131.046 1178,-112 1150.34,-81.25 1101.52,-71.4158 1069.72,-68.3281"/>
<polygon fill="midnightblue" stroke="midnightblue" points="1069.89,-64.8307 1059.64,-67.5192 1069.33,-71.8083 1069.89,-64.8307"/>
</g>
<!-- Node23&#45;&gt;Node12 -->
<g id="edge55" class="edge"><title>Node23&#45;&gt;Node12</title>
<path fill="none" stroke="midnightblue" d="M1183.54,-179.475C1172.05,-170.108 1153.37,-154.884 1139.41,-143.508"/>
<polygon fill="midnightblue" stroke="midnightblue" points="1141.4,-140.614 1131.44,-137.009 1136.98,-146.04 1141.4,-140.614"/>
</g>
</g>
</svg>
        <g id="navigator" transform="translate(0 0)" fill="#404254">
                <rect fill="#f2f5e9" fill-opacity="0.5" stroke="#606060" stroke-width=".5" x="0" y="0" width="60" height="60"/>
                <use id="zoomplus" xlink:href="#zoomPlus" x="17" y="9" onmousedown="handleZoom(evt,'in')"/>
                <use id="zoomminus" xlink:href="#zoomMin" x="42" y="9" onmousedown="handleZoom(evt,'out')"/>
                <use id="reset" xlink:href="#resetDef" x="30" y="36" onmousedown="handleReset()"/>
                <g id="arrowUp" xlink:href="#dirArrow" transform="translate(30 24)" onmousedown="handlePan(0,-1)">
                  <use xlink:href="#rim" fill="#404040">
                        <set attributeName="fill" to="#808080" begin="arrowUp.mouseover" end="arrowUp.mouseout"/>
                  </use>
                  <path fill="none" stroke="white" stroke-width="1.5" d="M0,-3.0v7 M-2.5,-0.5L0,-3.0L2.5,-0.5"/>
                </g>
                <g id="arrowRight" xlink:href="#dirArrow" transform="rotate(90) translate(36 -43)" onmousedown="handlePan(1,0)">
                  <use xlink:href="#rim" fill="#404040">
                        <set attributeName="fill" to="#808080" begin="arrowRight.mouseover" end="arrowRight.mouseout"/>
                  </use>
                  <path fill="none" stroke="white" stroke-width="1.5" d="M0,-3.0v7 M-2.5,-0.5L0,-3.0L2.5,-0.5"/>
                </g>
                <g id="arrowDown" xlink:href="#dirArrow" transform="rotate(180) translate(-30 -48)" onmousedown="handlePan(0,1)">
                  <use xlink:href="#rim" fill="#404040">
                        <set attributeName="fill" to="#808080" begin="arrowDown.mouseover" end="arrowDown.mouseout"/>
                  </use>
                  <path fill="none" stroke="white" stroke-width="1.5" d="M0,-3.0v7 M-2.5,-0.5L0,-3.0L2.5,-0.5"/>
                </g>
                <g id="arrowLeft" xlink:href="#dirArrow" transform="rotate(270) translate(-36 17)" onmousedown="handlePan(-1,0)">
                  <use xlink:href="#rim" fill="#404040">
                        <set attributeName="fill" to="#808080" begin="arrowLeft.mouseover" end="arrowLeft.mouseout"/>
                  </use>
                  <path fill="none" stroke="white" stroke-width="1.5" d="M0,-3.0v7 M-2.5,-0.5L0,-3.0L2.5,-0.5"/>
                </g>
        </g>
        <svg viewBox="0 0 15 15" width="100%" height="30px" preserveAspectRatio="xMaxYMin meet">
         <g id="arrow_out" transform="scale(0.3 0.3)">
          <a xlink:href="_factory_8h__incl_org.svg" target="_base">
           <rect id="button" ry="5" rx="5" y="6" x="6" height="38" width="38"
                fill="#f2f5e9" fill-opacity="0.5" stroke="#606060" stroke-width="1.0"/>
           <path id="arrow"
             d="M 11.500037,31.436501 C 11.940474,20.09759 22.043105,11.32322 32.158766,21.979434 L 37.068811,17.246167 C 37.068811,17.246167 37.088388,32 37.088388,32 L 22.160133,31.978069 C 22.160133,31.978069 26.997745,27.140456 26.997745,27.140456 C 18.528582,18.264221 13.291696,25.230495 11.500037,31.436501 z"
             style="fill:#404040;"/>
          </a>
         </g>
        </svg>
</svg>
