<?xml version="1.0" encoding="UTF-8" standalone="no"?>
<!DOCTYPE svg PUBLIC "-//W3C//DTD SVG 1.1//EN"
 "http://www.w3.org/Graphics/SVG/1.1/DTD/svg11.dtd">
<!-- Generated by graphviz version 2.38.0 (20140413.2041)
 -->
<!-- Title: plugins/Factory.cpp Pages: 1 -->
<svg width="2136pt" height="654pt"
 viewBox="0.00 0.00 2136.00 654.00" xmlns="http://www.w3.org/2000/svg" xmlns:xlink="http://www.w3.org/1999/xlink">
<g id="graph0" class="graph" transform="scale(1 1) rotate(0) translate(4 650)">
<title>plugins/Factory.cpp</title>
<polygon fill="white" stroke="none" points="-4,4 -4,-650 2132,-650 2132,4 -4,4"/>
<!-- Node1 -->
<g id="node1" class="node"><title>Node1</title>
<polygon fill="#bfbfbf" stroke="black" points="1319.5,-626.5 1319.5,-645.5 1422.5,-645.5 1422.5,-626.5 1319.5,-626.5"/>
<text text-anchor="middle" x="1371" y="-633.5" font-family="Helvetica,sans-Serif" font-size="10.00">plugins/Factory.cpp</text>
</g>
<!-- Node2 -->
<g id="node2" class="node"><title>Node2</title>
<polygon fill="white" stroke="#bfbfbf" points="1477.5,-118 1477.5,-137 1562.5,-137 1562.5,-118 1477.5,-118"/>
<text text-anchor="middle" x="1520" y="-125" font-family="Helvetica,sans-Serif" font-size="10.00">uscxml/config.h</text>
</g>
<!-- Node1&#45;&gt;Node2 -->
<g id="edge1" class="edge"><title>Node1&#45;&gt;Node2</title>
<path fill="none" stroke="midnightblue" d="M1422.76,-632.876C1542.8,-626.544 1830,-602.699 1830,-519.5 1830,-519.5 1830,-519.5 1830,-327.5 1830,-261.722 1629.85,-173.168 1551.2,-140.91"/>
<polygon fill="midnightblue" stroke="midnightblue" points="1552.38,-137.612 1541.8,-137.086 1549.74,-144.096 1552.38,-137.612"/>
</g>
<!-- Node3 -->
<g id="node3" class="node"><title>Node3</title>
<g id="a_node3"><a xlink:href="_factory_8h.html" target="_top" xlink:title="uscxml/plugins/Factory.h">
<polygon fill="white" stroke="black" points="668.5,-509 668.5,-528 795.5,-528 795.5,-509 668.5,-509"/>
<text text-anchor="middle" x="732" y="-516" font-family="Helvetica,sans-Serif" font-size="10.00">uscxml/plugins/Factory.h</text>
</a>
</g>
</g>
<!-- Node1&#45;&gt;Node3 -->
<g id="edge2" class="edge"><title>Node1&#45;&gt;Node3</title>
<path fill="none" stroke="midnightblue" d="M1319.46,-632.774C1209.64,-627.636 955.878,-613.552 873,-590 828.02,-577.218 780.275,-550.095 753.49,-533.467"/>
<polygon fill="midnightblue" stroke="midnightblue" points="755.254,-530.441 744.929,-528.063 751.518,-536.361 755.254,-530.441"/>
</g>
<!-- Node13 -->
<g id="node13" class="node"><title>Node13</title>
<g id="a_node13"><a xlink:href="_data_8h.html" target="_top" xlink:title="uscxml/messages/Data.h">
<polygon fill="white" stroke="black" points="868,-185 868,-204 996,-204 996,-185 868,-185"/>
<text text-anchor="middle" x="932" y="-192" font-family="Helvetica,sans-Serif" font-size="10.00">uscxml/messages/Data.h</text>
</a>
</g>
</g>
<!-- Node1&#45;&gt;Node13 -->
<g id="edge62" class="edge"><title>Node1&#45;&gt;Node13</title>
<path fill="none" stroke="midnightblue" d="M1319.12,-628.946C1207.5,-613.08 943.587,-559.812 806,-400 780.448,-370.32 778.322,-349.698 792,-313 811.094,-261.769 867.905,-226.273 903.013,-208.539"/>
<polygon fill="midnightblue" stroke="midnightblue" points="904.839,-211.542 912.29,-204.009 901.768,-205.251 904.839,-211.542"/>
</g>
<!-- Node26 -->
<g id="node26" class="node"><title>Node26</title>
<g id="a_node26"><a xlink:href="_interpreter_8h.html" target="_top" xlink:title="uscxml/Interpreter.h">
<polygon fill="white" stroke="black" points="1507.5,-570.5 1507.5,-589.5 1612.5,-589.5 1612.5,-570.5 1507.5,-570.5"/>
<text text-anchor="middle" x="1560" y="-577.5" font-family="Helvetica,sans-Serif" font-size="10.00">uscxml/Interpreter.h</text>
</a>
</g>
</g>
<!-- Node1&#45;&gt;Node26 -->
<g id="edge63" class="edge"><title>Node1&#45;&gt;Node26</title>
<path fill="none" stroke="midnightblue" d="M1400.95,-626.444C1433.16,-617.241 1484.53,-602.562 1520.14,-592.388"/>
<polygon fill="midnightblue" stroke="midnightblue" points="1521.54,-595.629 1530.19,-589.516 1519.62,-588.898 1521.54,-595.629"/>
</g>
<!-- Node33 -->
<g id="node33" class="node"><title>Node33</title>
<polygon fill="white" stroke="#bfbfbf" points="1399,-570.5 1399,-589.5 1489,-589.5 1489,-570.5 1399,-570.5"/>
<text text-anchor="middle" x="1444" y="-577.5" font-family="Helvetica,sans-Serif" font-size="10.00">easylogging++.h</text>
</g>
<!-- Node1&#45;&gt;Node33 -->
<g id="edge92" class="edge"><title>Node1&#45;&gt;Node33</title>
<path fill="none" stroke="midnightblue" d="M1382.73,-626.324C1393.84,-618.107 1410.74,-605.602 1423.98,-595.807"/>
<polygon fill="midnightblue" stroke="midnightblue" points="1426.1,-598.595 1432.06,-589.834 1421.94,-592.967 1426.1,-598.595"/>
</g>
<!-- Node34 -->
<g id="node34" class="node"><title>Node34</title>
<g id="a_node34"><a xlink:href="_executable_content_impl_8h.html" target="_top" xlink:title="uscxml/plugins/Executable\lContentImpl.h">
<polygon fill="white" stroke="black" points="1204,-179.5 1204,-209.5 1338,-209.5 1338,-179.5 1204,-179.5"/>
<text text-anchor="start" x="1212" y="-197.5" font-family="Helvetica,sans-Serif" font-size="10.00">uscxml/plugins/Executable</text>
<text text-anchor="middle" x="1271" y="-186.5" font-family="Helvetica,sans-Serif" font-size="10.00">ContentImpl.h</text>
</a>
</g>
</g>
<!-- Node1&#45;&gt;Node34 -->
<g id="edge93" class="edge"><title>Node1&#45;&gt;Node34</title>
<path fill="none" stroke="midnightblue" d="M1371,-626.307C1371,-607.062 1371,-559.404 1371,-519.5 1371,-519.5 1371,-519.5 1371,-450.5 1371,-356.719 1370.23,-324.55 1319,-246 1312.15,-235.5 1302.98,-225.224 1294.49,-216.713"/>
<polygon fill="midnightblue" stroke="midnightblue" points="1296.9,-214.172 1287.28,-209.726 1292.03,-219.199 1296.9,-214.172"/>
</g>
<!-- Node35 -->
<g id="node35" class="node"><title>Node35</title>
<g id="a_node35"><a xlink:href="_n_u_l_l_data_model_8h.html" target="_top" xlink:title="uscxml/plugins/datamodel\l/null/NULLDataModel.h">
<polygon fill="white" stroke="black" points="518,-503.5 518,-533.5 650,-533.5 650,-503.5 518,-503.5"/>
<text text-anchor="start" x="526" y="-521.5" font-family="Helvetica,sans-Serif" font-size="10.00">uscxml/plugins/datamodel</text>
<text text-anchor="middle" x="584" y="-510.5" font-family="Helvetica,sans-Serif" font-size="10.00">/null/NULLDataModel.h</text>
</a>
</g>
</g>
<!-- Node1&#45;&gt;Node35 -->
<g id="edge100" class="edge"><title>Node1&#45;&gt;Node35</title>
<path fill="none" stroke="midnightblue" d="M1319.34,-634.456C1220.79,-632.616 999.504,-624.614 817,-590 751.293,-577.538 677.79,-553.545 631.235,-537.038"/>
<polygon fill="midnightblue" stroke="midnightblue" points="632.317,-533.707 621.722,-533.636 629.959,-540.299 632.317,-533.707"/>
</g>
<!-- Node4 -->
<g id="node4" class="node"><title>Node4</title>
<g id="a_node4"><a xlink:href="_common_8h.html" target="_top" xlink:title="uscxml/Common.h">
<polygon fill="white" stroke="black" points="1696.5,-56.5 1696.5,-75.5 1795.5,-75.5 1795.5,-56.5 1696.5,-56.5"/>
<text text-anchor="middle" x="1746" y="-63.5" font-family="Helvetica,sans-Serif" font-size="10.00">uscxml/Common.h</text>
</a>
</g>
</g>
<!-- Node3&#45;&gt;Node4 -->
<g id="edge3" class="edge"><title>Node3&#45;&gt;Node4</title>
<path fill="none" stroke="midnightblue" d="M793.647,-508.975C938.343,-488.184 1310.29,-430.179 1612,-344 1650.67,-332.956 1658,-322.807 1697,-313 1805.87,-285.623 1850.78,-334.829 1947,-277 2012.79,-237.459 2047.27,-170.853 1998,-112 1974,-83.334 1872.7,-72.9105 1806.07,-69.1328"/>
<polygon fill="midnightblue" stroke="midnightblue" points="1805.86,-65.617 1795.69,-68.5818 1805.49,-72.6071 1805.86,-65.617"/>
</g>
<!-- Node7 -->
<g id="node7" class="node"><title>Node7</title>
<g id="a_node7"><a xlink:href="_executable_content_8h.html" target="_top" xlink:title="uscxml/plugins/Executable\lContent.h">
<polygon fill="white" stroke="black" points="1356,-179.5 1356,-209.5 1490,-209.5 1490,-179.5 1356,-179.5"/>
<text text-anchor="start" x="1364" y="-197.5" font-family="Helvetica,sans-Serif" font-size="10.00">uscxml/plugins/Executable</text>
<text text-anchor="middle" x="1423" y="-186.5" font-family="Helvetica,sans-Serif" font-size="10.00">Content.h</text>
</a>
</g>
</g>
<!-- Node3&#45;&gt;Node7 -->
<g id="edge6" class="edge"><title>Node3&#45;&gt;Node7</title>
<path fill="none" stroke="midnightblue" d="M736.358,-508.739C741.171,-498.807 748.91,-482.037 754,-467 776.603,-400.224 742.6,-363.294 792,-313 877.754,-225.694 1206.43,-228.946 1345.81,-210.029"/>
<polygon fill="midnightblue" stroke="midnightblue" points="1346.51,-213.463 1355.91,-208.565 1345.51,-206.536 1346.51,-213.463"/>
</g>
<!-- Node8 -->
<g id="node8" class="node"><title>Node8</title>
<polygon fill="white" stroke="#bfbfbf" points="789.5,-56.5 789.5,-75.5 830.5,-75.5 830.5,-56.5 789.5,-56.5"/>
<text text-anchor="middle" x="810" y="-63.5" font-family="Helvetica,sans-Serif" font-size="10.00">string</text>
</g>
<!-- Node3&#45;&gt;Node8 -->
<g id="edge58" class="edge"><title>Node3&#45;&gt;Node8</title>
<path fill="none" stroke="midnightblue" d="M689.212,-508.952C621.573,-495.401 496.581,-470.187 487,-467 364.937,-426.401 310.263,-440.322 225,-344 153.945,-263.729 85.8507,-190.368 159,-112 198.67,-69.4997 623.002,-80.0231 681,-76 714.66,-73.6651 753.26,-70.9698 779.397,-69.142"/>
<polygon fill="midnightblue" stroke="midnightblue" points="779.714,-72.6284 789.446,-68.4391 779.226,-65.6455 779.714,-72.6284"/>
</g>
<!-- Node9 -->
<g id="node9" class="node"><title>Node9</title>
<polygon fill="white" stroke="#bfbfbf" points="463.5,-56.5 463.5,-75.5 516.5,-75.5 516.5,-56.5 463.5,-56.5"/>
<text text-anchor="middle" x="490" y="-63.5" font-family="Helvetica,sans-Serif" font-size="10.00">memory</text>
</g>
<!-- Node3&#45;&gt;Node9 -->
<g id="edge59" class="edge"><title>Node3&#45;&gt;Node9</title>
<path fill="none" stroke="midnightblue" d="M692.723,-508.958C681.838,-506.793 669.993,-504.624 659,-503 495.99,-478.919 448.304,-512.738 290,-467 138.485,-423.223 0,-420.212 0,-262.5 0,-262.5 0,-262.5 0,-193.5 0,-153.72 4.66587,-135.173 37,-112 70.5812,-87.9336 351.527,-73.1598 453.34,-68.5544"/>
<polygon fill="midnightblue" stroke="midnightblue" points="453.623,-72.0454 463.457,-68.1037 453.311,-65.0523 453.623,-72.0454"/>
</g>
<!-- Node11 -->
<g id="node11" class="node"><title>Node11</title>
<g id="a_node11"><a xlink:href="_event_handler_8h.html" target="_top" xlink:title="uscxml/plugins/EventHandler.h">
<polygon fill="white" stroke="black" points="801,-319 801,-338 955,-338 955,-319 801,-319"/>
<text text-anchor="middle" x="878" y="-326" font-family="Helvetica,sans-Serif" font-size="10.00">uscxml/plugins/EventHandler.h</text>
</a>
</g>
</g>
<!-- Node3&#45;&gt;Node11 -->
<g id="edge12" class="edge"><title>Node3&#45;&gt;Node11</title>
<path fill="none" stroke="midnightblue" d="M724.969,-508.958C713.242,-493.605 692.269,-460.652 706,-436 734.084,-385.579 796.984,-356.007 838.431,-341.293"/>
<polygon fill="midnightblue" stroke="midnightblue" points="839.626,-344.583 847.957,-338.037 837.362,-337.959 839.626,-344.583"/>
</g>
<!-- Node17 -->
<g id="node17" class="node"><title>Node17</title>
<polygon fill="white" stroke="#bfbfbf" points="633.5,-56.5 633.5,-75.5 672.5,-75.5 672.5,-56.5 633.5,-56.5"/>
<text text-anchor="middle" x="653" y="-63.5" font-family="Helvetica,sans-Serif" font-size="10.00">limits</text>
</g>
<!-- Node3&#45;&gt;Node17 -->
<g id="edge61" class="edge"><title>Node3&#45;&gt;Node17</title>
<path fill="none" stroke="midnightblue" d="M691.549,-508.931C680.982,-506.84 669.587,-504.713 659,-503 532.096,-482.464 493.619,-508.656 372,-467 221.833,-415.566 148.014,-366.904 124,-210 117.377,-166.722 102.102,-141.989 134,-112 142.988,-103.549 513.887,-76.7997 623.065,-69.0952"/>
<polygon fill="midnightblue" stroke="midnightblue" points="623.633,-72.564 633.362,-68.3703 623.141,-65.5813 623.633,-72.564"/>
</g>
<!-- Node20 -->
<g id="node20" class="node"><title>Node20</title>
<g id="a_node20"><a xlink:href="_i_o_processor_8h.html" target="_top" xlink:title="uscxml/plugins/IOProcessor.h">
<polygon fill="white" stroke="black" points="1117.5,-380.5 1117.5,-399.5 1266.5,-399.5 1266.5,-380.5 1117.5,-380.5"/>
<text text-anchor="middle" x="1192" y="-387.5" font-family="Helvetica,sans-Serif" font-size="10.00">uscxml/plugins/IOProcessor.h</text>
</a>
</g>
</g>
<!-- Node3&#45;&gt;Node20 -->
<g id="edge36" class="edge"><title>Node3&#45;&gt;Node20</title>
<path fill="none" stroke="midnightblue" d="M763.256,-508.905C844.158,-486.657 1060.42,-427.186 1151.09,-402.249"/>
<polygon fill="midnightblue" stroke="midnightblue" points="1152.29,-405.55 1161,-399.524 1150.43,-398.801 1152.29,-405.55"/>
</g>
<!-- Node21 -->
<g id="node21" class="node"><title>Node21</title>
<g id="a_node21"><a xlink:href="_invoker_8h.html" target="_top" xlink:title="uscxml/plugins/Invoker.h">
<polygon fill="white" stroke="black" points="815,-380.5 815,-399.5 941,-399.5 941,-380.5 815,-380.5"/>
<text text-anchor="middle" x="878" y="-387.5" font-family="Helvetica,sans-Serif" font-size="10.00">uscxml/plugins/Invoker.h</text>
</a>
</g>
</g>
<!-- Node3&#45;&gt;Node21 -->
<g id="edge40" class="edge"><title>Node3&#45;&gt;Node21</title>
<path fill="none" stroke="midnightblue" d="M742.035,-508.805C766.415,-487.682 829.031,-433.429 860.043,-406.558"/>
<polygon fill="midnightblue" stroke="midnightblue" points="862.629,-408.949 867.895,-399.756 858.045,-403.659 862.629,-408.949"/>
</g>
<!-- Node23 -->
<g id="node23" class="node"><title>Node23</title>
<g id="a_node23"><a xlink:href="_data_model_impl_8h.html" target="_top" xlink:title="uscxml/plugins/DataModel\lImpl.h">
<polygon fill="white" stroke="black" points="522.5,-436.5 522.5,-466.5 655.5,-466.5 655.5,-436.5 522.5,-436.5"/>
<text text-anchor="start" x="530.5" y="-454.5" font-family="Helvetica,sans-Serif" font-size="10.00">uscxml/plugins/DataModel</text>
<text text-anchor="middle" x="589" y="-443.5" font-family="Helvetica,sans-Serif" font-size="10.00">Impl.h</text>
</a>
</g>
</g>
<!-- Node3&#45;&gt;Node23 -->
<g id="edge46" class="edge"><title>Node3&#45;&gt;Node23</title>
<path fill="none" stroke="midnightblue" d="M713.011,-508.869C691.739,-499.199 656.647,-483.249 629.212,-470.778"/>
<polygon fill="midnightblue" stroke="midnightblue" points="630.414,-467.48 619.862,-466.528 627.517,-473.852 630.414,-467.48"/>
</g>
<!-- Node24 -->
<g id="node24" class="node"><title>Node24</title>
<g id="a_node24"><a xlink:href="_string_8h.html" target="_top" xlink:title="string.h">
<polygon fill="white" stroke="black" points="432.5,-185 432.5,-204 481.5,-204 481.5,-185 432.5,-185"/>
<text text-anchor="middle" x="457" y="-192" font-family="Helvetica,sans-Serif" font-size="10.00">string.h</text>
</a>
</g>
</g>
<!-- Node3&#45;&gt;Node24 -->
<g id="edge55" class="edge"><title>Node3&#45;&gt;Node24</title>
<path fill="none" stroke="midnightblue" d="M689.747,-508.976C627.871,-496.321 519.221,-473.367 513,-467 443.563,-395.931 449.7,-262.918 454.678,-214.09"/>
<polygon fill="midnightblue" stroke="midnightblue" points="458.168,-214.374 455.813,-204.044 451.212,-213.588 458.168,-214.374"/>
</g>
<!-- Node25 -->
<g id="node25" class="node"><title>Node25</title>
<polygon fill="white" stroke="#bfbfbf" points="715,-442 715,-461 745,-461 745,-442 715,-442"/>
<text text-anchor="middle" x="730" y="-449" font-family="Helvetica,sans-Serif" font-size="10.00">set</text>
</g>
<!-- Node3&#45;&gt;Node25 -->
<g id="edge60" class="edge"><title>Node3&#45;&gt;Node25</title>
<path fill="none" stroke="midnightblue" d="M731.73,-508.734C731.436,-499.183 730.957,-483.618 730.578,-471.283"/>
<polygon fill="midnightblue" stroke="midnightblue" points="734.071,-471.015 730.265,-461.127 727.075,-471.23 734.071,-471.015"/>
</g>
<!-- Node5 -->
<g id="node5" class="node"><title>Node5</title>
<polygon fill="white" stroke="#bfbfbf" points="1672,-0.5 1672,-19.5 1744,-19.5 1744,-0.5 1672,-0.5"/>
<text text-anchor="middle" x="1708" y="-7.5" font-family="Helvetica,sans-Serif" font-size="10.00">sys/socket.h</text>
</g>
<!-- Node4&#45;&gt;Node5 -->
<g id="edge4" class="edge"><title>Node4&#45;&gt;Node5</title>
<path fill="none" stroke="midnightblue" d="M1739.73,-56.083C1734.36,-48.4554 1726.48,-37.2645 1719.92,-27.9408"/>
<polygon fill="midnightblue" stroke="midnightblue" points="1722.78,-25.9149 1714.16,-19.7511 1717.05,-29.9434 1722.78,-25.9149"/>
</g>
<!-- Node6 -->
<g id="node6" class="node"><title>Node6</title>
<polygon fill="white" stroke="#bfbfbf" points="1762,-0.5 1762,-19.5 1806,-19.5 1806,-0.5 1762,-0.5"/>
<text text-anchor="middle" x="1784" y="-7.5" font-family="Helvetica,sans-Serif" font-size="10.00">cmath</text>
</g>
<!-- Node4&#45;&gt;Node6 -->
<g id="edge5" class="edge"><title>Node4&#45;&gt;Node6</title>
<path fill="none" stroke="midnightblue" d="M1752.27,-56.083C1757.64,-48.4554 1765.52,-37.2645 1772.08,-27.9408"/>
<polygon fill="midnightblue" stroke="midnightblue" points="1774.95,-29.9434 1777.84,-19.7511 1769.22,-25.9149 1774.95,-29.9434"/>
</g>
<!-- Node7&#45;&gt;Node2 -->
<g id="edge7" class="edge"><title>Node7&#45;&gt;Node2</title>
<path fill="none" stroke="midnightblue" d="M1444.05,-179.396C1460.31,-168.496 1482.72,-153.479 1498.98,-142.584"/>
<polygon fill="midnightblue" stroke="midnightblue" points="1500.95,-145.481 1507.3,-137.007 1497.05,-139.666 1500.95,-145.481"/>
</g>
<!-- Node7&#45;&gt;Node4 -->
<g id="edge8" class="edge"><title>Node7&#45;&gt;Node4</title>
<path fill="none" stroke="midnightblue" d="M1426.62,-179.395C1432.19,-160.756 1444.74,-128.375 1468,-112 1502.25,-87.8908 1615.16,-75.8967 1686.12,-70.5998"/>
<polygon fill="midnightblue" stroke="midnightblue" points="1686.54,-74.0781 1696.27,-69.8663 1686.04,-67.0964 1686.54,-74.0781"/>
</g>
<!-- Node7&#45;&gt;Node8 -->
<g id="edge9" class="edge"><title>Node7&#45;&gt;Node8</title>
<path fill="none" stroke="midnightblue" d="M1396.7,-179.454C1360.34,-160.727 1292.15,-128.078 1230,-112 1088.14,-75.3011 911.865,-68.4761 841.317,-67.2481"/>
<polygon fill="midnightblue" stroke="midnightblue" points="840.974,-63.7427 830.924,-67.0953 840.871,-70.742 840.974,-63.7427"/>
</g>
<!-- Node7&#45;&gt;Node9 -->
<g id="edge10" class="edge"><title>Node7&#45;&gt;Node9</title>
<path fill="none" stroke="midnightblue" d="M1355.94,-180.217C1352.92,-179.774 1349.93,-179.365 1347,-179 1077.49,-145.481 1000.76,-207.714 737,-143 704.349,-134.989 699.751,-123.051 668,-112 620.189,-95.3592 563.19,-82.046 526.806,-74.3365"/>
<polygon fill="midnightblue" stroke="midnightblue" points="527.167,-70.8365 516.663,-72.2194 525.737,-77.6888 527.167,-70.8365"/>
</g>
<!-- Node10 -->
<g id="node10" class="node"><title>Node10</title>
<polygon fill="white" stroke="#bfbfbf" points="1271,-56.5 1271,-75.5 1323,-75.5 1323,-56.5 1271,-56.5"/>
<text text-anchor="middle" x="1297" y="-63.5" font-family="Helvetica,sans-Serif" font-size="10.00">sstream</text>
</g>
<!-- Node7&#45;&gt;Node10 -->
<g id="edge11" class="edge"><title>Node7&#45;&gt;Node10</title>
<path fill="none" stroke="midnightblue" d="M1411.18,-179.478C1396.96,-162.855 1372.11,-134.565 1349,-112 1338.32,-101.574 1325.67,-90.6008 1315.53,-82.1006"/>
<polygon fill="midnightblue" stroke="midnightblue" points="1317.62,-79.2914 1307.69,-75.6083 1313.16,-84.6825 1317.62,-79.2914"/>
</g>
<!-- Node11&#45;&gt;Node4 -->
<g id="edge13" class="edge"><title>Node11&#45;&gt;Node4</title>
<path fill="none" stroke="midnightblue" d="M945.181,-318.963C963.581,-316.811 983.542,-314.647 1002,-313 1131.51,-301.445 1467.87,-331.328 1586,-277 1595.42,-272.666 1710.38,-151.715 1716,-143 1727.62,-124.988 1735.98,-101.757 1740.87,-85.7454"/>
<polygon fill="midnightblue" stroke="midnightblue" points="1744.29,-86.546 1743.71,-75.967 1737.56,-84.5979 1744.29,-86.546"/>
</g>
<!-- Node11&#45;&gt;Node8 -->
<g id="edge34" class="edge"><title>Node11&#45;&gt;Node8</title>
<path fill="none" stroke="midnightblue" d="M826.045,-318.979C794.256,-311.808 754.058,-299.055 724,-277 664.932,-233.66 650.407,-212.751 628,-143 623.786,-129.882 619.507,-122.849 628,-112 646.428,-88.4607 732.117,-75.5333 779.053,-70.1084"/>
<polygon fill="midnightblue" stroke="midnightblue" points="779.712,-73.5568 789.265,-68.9758 778.941,-66.5994 779.712,-73.5568"/>
</g>
<!-- Node11&#45;&gt;Node9 -->
<g id="edge35" class="edge"><title>Node11&#45;&gt;Node9</title>
<path fill="none" stroke="midnightblue" d="M800.897,-322.283C667.961,-311.452 404.764,-281.32 352,-210 326.095,-174.985 326.417,-147.251 352,-112 374.972,-80.3463 420.812,-70.5336 453.349,-67.7135"/>
<polygon fill="midnightblue" stroke="midnightblue" points="453.662,-71.2004 463.4,-67.0248 453.184,-64.2168 453.662,-71.2004"/>
</g>
<!-- Node12 -->
<g id="node12" class="node"><title>Node12</title>
<g id="a_node12"><a xlink:href="_event_8h.html" target="_top" xlink:title="uscxml/messages/Event.h">
<polygon fill="white" stroke="black" points="1114.5,-252 1114.5,-271 1247.5,-271 1247.5,-252 1114.5,-252"/>
<text text-anchor="middle" x="1181" y="-259" font-family="Helvetica,sans-Serif" font-size="10.00">uscxml/messages/Event.h</text>
</a>
</g>
</g>
<!-- Node11&#45;&gt;Node12 -->
<g id="edge14" class="edge"><title>Node11&#45;&gt;Node12</title>
<path fill="none" stroke="midnightblue" d="M917.924,-318.936C972.763,-307.171 1071.37,-286.018 1131.04,-273.218"/>
<polygon fill="midnightblue" stroke="midnightblue" points="1131.94,-276.603 1140.99,-271.083 1130.48,-269.759 1131.94,-276.603"/>
</g>
<!-- Node14 -->
<g id="node14" class="node"><title>Node14</title>
<polygon fill="white" stroke="#bfbfbf" points="432.5,-118 432.5,-137 461.5,-137 461.5,-118 432.5,-118"/>
<text text-anchor="middle" x="447" y="-125" font-family="Helvetica,sans-Serif" font-size="10.00">list</text>
</g>
<!-- Node11&#45;&gt;Node14 -->
<g id="edge33" class="edge"><title>Node11&#45;&gt;Node14</title>
<path fill="none" stroke="midnightblue" d="M800.935,-326.215C744.737,-322.248 668.502,-310.371 610,-277 559.665,-248.288 567.738,-217.014 524,-179 507.357,-164.535 486.296,-150.998 470.408,-141.587"/>
<polygon fill="midnightblue" stroke="midnightblue" points="472.13,-138.54 461.725,-136.547 468.617,-144.594 472.13,-138.54"/>
</g>
<!-- Node12&#45;&gt;Node13 -->
<g id="edge15" class="edge"><title>Node12&#45;&gt;Node13</title>
<path fill="none" stroke="midnightblue" d="M1148.19,-251.936C1103.59,-240.293 1023.76,-219.454 974.587,-206.617"/>
<polygon fill="midnightblue" stroke="midnightblue" points="975.441,-203.223 964.881,-204.083 973.673,-209.996 975.441,-203.223"/>
</g>
<!-- Node19 -->
<g id="node19" class="node"><title>Node19</title>
<g id="a_node19"><a xlink:href="_u_u_i_d_8h.html" target="_top" xlink:title="uscxml/util/UUID.h">
<polygon fill="white" stroke="black" points="1580.5,-118 1580.5,-137 1679.5,-137 1679.5,-118 1580.5,-118"/>
<text text-anchor="middle" x="1630" y="-125" font-family="Helvetica,sans-Serif" font-size="10.00">uscxml/util/UUID.h</text>
</a>
</g>
</g>
<!-- Node12&#45;&gt;Node19 -->
<g id="edge30" class="edge"><title>Node12&#45;&gt;Node19</title>
<path fill="none" stroke="midnightblue" d="M1247.53,-255.267C1334.74,-247.668 1482.42,-232.039 1532,-210 1566.35,-194.731 1598.26,-163.843 1615.85,-144.785"/>
<polygon fill="midnightblue" stroke="midnightblue" points="1618.59,-146.968 1622.68,-137.191 1613.39,-142.287 1618.59,-146.968"/>
</g>
<!-- Node13&#45;&gt;Node2 -->
<g id="edge19" class="edge"><title>Node13&#45;&gt;Node2</title>
<path fill="none" stroke="midnightblue" d="M995.07,-184.99C1010.72,-182.952 1027.46,-180.837 1043,-179 1196.93,-160.801 1379.18,-142.37 1467.2,-133.665"/>
<polygon fill="midnightblue" stroke="midnightblue" points="1467.59,-137.143 1477.2,-132.677 1466.91,-130.177 1467.59,-137.143"/>
</g>
<!-- Node13&#45;&gt;Node4 -->
<g id="edge20" class="edge"><title>Node13&#45;&gt;Node4</title>
<path fill="none" stroke="midnightblue" d="M952.021,-184.98C972.889,-175.762 1006.22,-160.075 1033,-143 1051.67,-131.096 1051.35,-119.989 1072,-112 1128.43,-90.1679 1531.93,-74.2902 1686.22,-68.9556"/>
<polygon fill="midnightblue" stroke="midnightblue" points="1686.58,-72.4455 1696.45,-68.6047 1686.34,-65.4496 1686.58,-72.4455"/>
</g>
<!-- Node13&#45;&gt;Node9 -->
<g id="edge18" class="edge"><title>Node13&#45;&gt;Node9</title>
<path fill="none" stroke="midnightblue" d="M867.903,-193.978C764.331,-193.434 566.459,-186.524 514,-143 497.228,-129.085 492.009,-103.525 490.476,-85.9157"/>
<polygon fill="midnightblue" stroke="midnightblue" points="493.958,-85.4881 489.916,-75.6944 486.968,-85.8708 493.958,-85.4881"/>
</g>
<!-- Node13&#45;&gt;Node14 -->
<g id="edge16" class="edge"><title>Node13&#45;&gt;Node14</title>
<path fill="none" stroke="midnightblue" d="M867.915,-193.455C778.381,-191.82 611.598,-183.017 476,-143 474.33,-142.507 472.64,-141.922 470.959,-141.273"/>
<polygon fill="midnightblue" stroke="midnightblue" points="472.193,-137.99 461.638,-137.075 469.319,-144.373 472.193,-137.99"/>
</g>
<!-- Node15 -->
<g id="node15" class="node"><title>Node15</title>
<polygon fill="white" stroke="#bfbfbf" points="1081,-118 1081,-137 1117,-137 1117,-118 1081,-118"/>
<text text-anchor="middle" x="1099" y="-125" font-family="Helvetica,sans-Serif" font-size="10.00">map</text>
</g>
<!-- Node13&#45;&gt;Node15 -->
<g id="edge17" class="edge"><title>Node13&#45;&gt;Node15</title>
<path fill="none" stroke="midnightblue" d="M956.581,-184.869C983.788,-175.185 1028.84,-158.763 1067,-143 1068.41,-142.418 1069.85,-141.811 1071.3,-141.19"/>
<polygon fill="midnightblue" stroke="midnightblue" points="1073.08,-144.231 1080.82,-136.996 1070.25,-137.826 1073.08,-144.231"/>
</g>
<!-- Node16 -->
<g id="node16" class="node"><title>Node16</title>
<g id="a_node16"><a xlink:href="_convenience_8h.html" target="_top" xlink:title="uscxml/util/Convenience.h">
<polygon fill="white" stroke="black" points="891.5,-118 891.5,-137 1024.5,-137 1024.5,-118 891.5,-118"/>
<text text-anchor="middle" x="958" y="-125" font-family="Helvetica,sans-Serif" font-size="10.00">uscxml/util/Convenience.h</text>
</a>
</g>
</g>
<!-- Node13&#45;&gt;Node16 -->
<g id="edge21" class="edge"><title>Node13&#45;&gt;Node16</title>
<path fill="none" stroke="midnightblue" d="M935.506,-184.734C939.405,-174.988 945.808,-158.981 950.787,-146.532"/>
<polygon fill="midnightblue" stroke="midnightblue" points="954.085,-147.712 954.549,-137.127 947.585,-145.112 954.085,-147.712"/>
</g>
<!-- Node18 -->
<g id="node18" class="node"><title>Node18</title>
<g id="a_node18"><a xlink:href="_blob_8h.html" target="_top" xlink:title="uscxml/messages/Blob.h">
<polygon fill="white" stroke="black" points="746.5,-118 746.5,-137 873.5,-137 873.5,-118 746.5,-118"/>
<text text-anchor="middle" x="810" y="-125" font-family="Helvetica,sans-Serif" font-size="10.00">uscxml/messages/Blob.h</text>
</a>
</g>
</g>
<!-- Node13&#45;&gt;Node18 -->
<g id="edge26" class="edge"><title>Node13&#45;&gt;Node18</title>
<path fill="none" stroke="midnightblue" d="M915.799,-184.869C895.2,-173.893 859.409,-154.824 835.223,-141.938"/>
<polygon fill="midnightblue" stroke="midnightblue" points="836.739,-138.78 826.268,-137.167 833.447,-144.958 836.739,-138.78"/>
</g>
<!-- Node16&#45;&gt;Node4 -->
<g id="edge22" class="edge"><title>Node16&#45;&gt;Node4</title>
<path fill="none" stroke="midnightblue" d="M1000.32,-117.988C1012.74,-115.744 1026.38,-113.527 1039,-112 1277.47,-83.1603 1563.58,-72.1333 1685.84,-68.5257"/>
<polygon fill="midnightblue" stroke="midnightblue" points="1686.21,-72.0165 1696.11,-68.2289 1686.01,-65.0194 1686.21,-72.0165"/>
</g>
<!-- Node16&#45;&gt;Node8 -->
<g id="edge23" class="edge"><title>Node16&#45;&gt;Node8</title>
<path fill="none" stroke="midnightblue" d="M936.795,-117.975C911.485,-107.8 868.98,-90.7117 840.232,-79.1542"/>
<polygon fill="midnightblue" stroke="midnightblue" points="841.272,-75.8 830.688,-75.3173 838.661,-82.2948 841.272,-75.8"/>
</g>
<!-- Node16&#45;&gt;Node10 -->
<g id="edge25" class="edge"><title>Node16&#45;&gt;Node10</title>
<path fill="none" stroke="midnightblue" d="M1005.54,-117.954C1016.52,-115.989 1028.17,-113.914 1039,-112 1118.21,-98.002 1211.16,-81.8599 1261.03,-73.2225"/>
<polygon fill="midnightblue" stroke="midnightblue" points="1261.74,-76.6516 1270.99,-71.4967 1260.54,-69.7543 1261.74,-76.6516"/>
</g>
<!-- Node16&#45;&gt;Node17 -->
<g id="edge24" class="edge"><title>Node16&#45;&gt;Node17</title>
<path fill="none" stroke="midnightblue" d="M914.301,-117.975C851.297,-105.684 736.594,-83.3077 682.601,-72.7746"/>
<polygon fill="midnightblue" stroke="midnightblue" points="683.13,-69.312 672.645,-70.8324 681.79,-76.1825 683.13,-69.312"/>
</g>
<!-- Node18&#45;&gt;Node4 -->
<g id="edge29" class="edge"><title>Node18&#45;&gt;Node4</title>
<path fill="none" stroke="midnightblue" d="M847.198,-117.927C858.335,-115.653 870.614,-113.435 882,-112 1182.22,-74.1586 1544.99,-68.0077 1685.94,-67.1045"/>
<polygon fill="midnightblue" stroke="midnightblue" points="1686.12,-70.6036 1696.1,-67.0461 1686.08,-63.6037 1686.12,-70.6036"/>
</g>
<!-- Node18&#45;&gt;Node8 -->
<g id="edge27" class="edge"><title>Node18&#45;&gt;Node8</title>
<path fill="none" stroke="midnightblue" d="M810,-117.975C810,-109.58 810,-96.4806 810,-85.6631"/>
<polygon fill="midnightblue" stroke="midnightblue" points="813.5,-85.5091 810,-75.5091 806.5,-85.5091 813.5,-85.5091"/>
</g>
<!-- Node18&#45;&gt;Node9 -->
<g id="edge28" class="edge"><title>Node18&#45;&gt;Node9</title>
<path fill="none" stroke="midnightblue" d="M764.152,-117.975C700.081,-106.062 585.054,-84.674 526.459,-73.7791"/>
<polygon fill="midnightblue" stroke="midnightblue" points="527.009,-70.3215 516.538,-71.9344 525.73,-77.2036 527.009,-70.3215"/>
</g>
<!-- Node19&#45;&gt;Node4 -->
<g id="edge31" class="edge"><title>Node19&#45;&gt;Node4</title>
<path fill="none" stroke="midnightblue" d="M1646.62,-117.975C1665.92,-108.078 1697.96,-91.6416 1720.43,-80.1151"/>
<polygon fill="midnightblue" stroke="midnightblue" points="1722.11,-83.1873 1729.41,-75.5091 1718.92,-76.9589 1722.11,-83.1873"/>
</g>
<!-- Node19&#45;&gt;Node8 -->
<g id="edge32" class="edge"><title>Node19&#45;&gt;Node8</title>
<path fill="none" stroke="midnightblue" d="M1599.89,-117.982C1590.69,-115.682 1580.49,-113.435 1571,-112 1289.78,-69.491 944.454,-66.6398 840.808,-66.8201"/>
<polygon fill="midnightblue" stroke="midnightblue" points="840.716,-63.3203 830.726,-66.849 840.736,-70.3202 840.716,-63.3203"/>
</g>
<!-- Node20&#45;&gt;Node4 -->
<g id="edge37" class="edge"><title>Node20&#45;&gt;Node4</title>
<path fill="none" stroke="midnightblue" d="M1234.42,-380.484C1306.82,-366.033 1458.96,-336.034 1588,-313 1684.67,-295.744 1712.1,-305.734 1806,-277 1874.27,-256.11 1913.46,-270.097 1952,-210 1975.51,-173.337 1979.32,-145.926 1952,-112 1933.94,-89.5655 1860.25,-77.7086 1806.14,-71.9022"/>
<polygon fill="midnightblue" stroke="midnightblue" points="1806.25,-68.3949 1795.94,-70.8537 1805.53,-75.3582 1806.25,-68.3949"/>
</g>
<!-- Node20&#45;&gt;Node11 -->
<g id="edge38" class="edge"><title>Node20&#45;&gt;Node11</title>
<path fill="none" stroke="midnightblue" d="M1147.01,-380.475C1090.58,-369.783 993.878,-351.458 933.081,-339.937"/>
<polygon fill="midnightblue" stroke="midnightblue" points="933.382,-336.432 922.905,-338.009 932.079,-343.31 933.382,-336.432"/>
</g>
<!-- Node20&#45;&gt;Node12 -->
<g id="edge39" class="edge"><title>Node20&#45;&gt;Node12</title>
<path fill="none" stroke="midnightblue" d="M1192.75,-380.382C1193.49,-371.33 1194.58,-356.677 1195,-344 1195.46,-330.23 1196.86,-326.652 1195,-313 1193.52,-302.127 1190.33,-290.29 1187.36,-280.811"/>
<polygon fill="midnightblue" stroke="midnightblue" points="1190.68,-279.686 1184.22,-271.287 1184.03,-281.881 1190.68,-279.686"/>
</g>
<!-- Node21&#45;&gt;Node2 -->
<g id="edge41" class="edge"><title>Node21&#45;&gt;Node2</title>
<path fill="none" stroke="midnightblue" d="M897.071,-380.392C914.922,-372.02 942.057,-358.476 964,-344 982.193,-331.997 984.395,-325.85 1002,-313 1046.11,-280.804 1053.41,-263.898 1105,-246 1188.06,-217.184 1432.03,-266.966 1499,-210 1517.06,-194.64 1520.66,-166.013 1520.88,-147.106"/>
<polygon fill="midnightblue" stroke="midnightblue" points="1524.38,-146.964 1520.69,-137.032 1517.38,-147.097 1524.38,-146.964"/>
</g>
<!-- Node21&#45;&gt;Node4 -->
<g id="edge42" class="edge"><title>Node21&#45;&gt;Node4</title>
<path fill="none" stroke="midnightblue" d="M938.928,-380.465C1124.04,-354.527 1667.57,-278.311 1672,-277 1783.6,-243.962 1847.44,-248.312 1897,-143 1902.87,-130.534 1905.23,-123.046 1897,-112 1876.13,-83.9975 1838.51,-72.7337 1806.05,-68.4774"/>
<polygon fill="midnightblue" stroke="midnightblue" points="1806.04,-64.9553 1795.72,-67.3294 1805.27,-71.9125 1806.04,-64.9553"/>
</g>
<!-- Node21&#45;&gt;Node11 -->
<g id="edge43" class="edge"><title>Node21&#45;&gt;Node11</title>
<path fill="none" stroke="midnightblue" d="M878,-380.475C878,-372.08 878,-358.981 878,-348.163"/>
<polygon fill="midnightblue" stroke="midnightblue" points="881.5,-348.009 878,-338.009 874.5,-348.009 881.5,-348.009"/>
</g>
<!-- Node21&#45;&gt;Node12 -->
<g id="edge44" class="edge"><title>Node21&#45;&gt;Node12</title>
<path fill="none" stroke="midnightblue" d="M941.127,-387.012C1014.87,-383.357 1130.8,-373.034 1162,-344 1179.09,-328.099 1182.21,-300.058 1182.17,-281.377"/>
<polygon fill="midnightblue" stroke="midnightblue" points="1185.66,-281.025 1181.83,-271.147 1178.66,-281.258 1185.66,-281.025"/>
</g>
<!-- Node22 -->
<g id="node22" class="node"><title>Node22</title>
<polygon fill="white" stroke="#bfbfbf" points="180.5,-118 180.5,-137 299.5,-137 299.5,-118 180.5,-118"/>
<text text-anchor="middle" x="240" y="-125" font-family="Helvetica,sans-Serif" font-size="10.00">xercesc/dom/DOM.hpp</text>
</g>
<!-- Node21&#45;&gt;Node22 -->
<g id="edge45" class="edge"><title>Node21&#45;&gt;Node22</title>
<path fill="none" stroke="midnightblue" d="M814.972,-384.451C720.147,-375.416 537.383,-349.365 401,-277 336.493,-242.772 278.165,-176.329 253.047,-145.266"/>
<polygon fill="midnightblue" stroke="midnightblue" points="255.569,-142.814 246.605,-137.166 250.091,-147.172 255.569,-142.814"/>
</g>
<!-- Node23&#45;&gt;Node2 -->
<g id="edge47" class="edge"><title>Node23&#45;&gt;Node2</title>
<path fill="none" stroke="midnightblue" d="M655.568,-441.958C743.887,-430.492 895.042,-410.368 950,-400 1055.51,-380.096 1082.63,-376.365 1185,-344 1223.42,-331.853 1499.37,-243.345 1522,-210 1534.64,-191.378 1530.8,-164.449 1526.09,-146.715"/>
<polygon fill="midnightblue" stroke="midnightblue" points="1529.4,-145.588 1523.17,-137.018 1522.7,-147.602 1529.4,-145.588"/>
</g>
<!-- Node23&#45;&gt;Node4 -->
<g id="edge48" class="edge"><title>Node23&#45;&gt;Node4</title>
<path fill="none" stroke="midnightblue" d="M655.746,-441.525C672.157,-439.512 689.697,-437.525 706,-436 958.294,-412.407 1024.14,-435.763 1275,-400 1450.39,-374.997 1490.17,-347.174 1664,-313 1806.46,-284.994 1905.29,-337.894 1974,-210 1994.62,-171.63 2002.67,-145.639 1975,-112 1953.95,-86.4139 1866.34,-75.1535 1805.8,-70.3572"/>
<polygon fill="midnightblue" stroke="midnightblue" points="1805.82,-66.8487 1795.59,-69.5882 1805.29,-73.829 1805.82,-66.8487"/>
</g>
<!-- Node23&#45;&gt;Node8 -->
<g id="edge53" class="edge"><title>Node23&#45;&gt;Node8</title>
<path fill="none" stroke="midnightblue" d="M561.67,-436.391C458.376,-382.234 101.124,-186.97 171,-112 171.329,-111.647 651.749,-78.0569 779.247,-69.1483"/>
<polygon fill="midnightblue" stroke="midnightblue" points="779.743,-72.6223 789.475,-68.4337 779.255,-65.6393 779.743,-72.6223"/>
</g>
<!-- Node23&#45;&gt;Node9 -->
<g id="edge54" class="edge"><title>Node23&#45;&gt;Node9</title>
<path fill="none" stroke="midnightblue" d="M522.442,-448.325C453.954,-444.277 345.124,-432.748 257,-400 149.271,-359.966 38,-377.428 38,-262.5 38,-262.5 38,-262.5 38,-193.5 38,-155.74 32.9881,-136.169 62,-112 91.8051,-87.1702 354.936,-73.0108 453.201,-68.5504"/>
<polygon fill="midnightblue" stroke="midnightblue" points="453.432,-72.0437 463.266,-68.1015 453.12,-65.0506 453.432,-72.0437"/>
</g>
<!-- Node23&#45;&gt;Node14 -->
<g id="edge52" class="edge"><title>Node23&#45;&gt;Node14</title>
<path fill="none" stroke="midnightblue" d="M571.858,-436.433C548.624,-415.672 510,-374.407 510,-329.5 510,-329.5 510,-329.5 510,-260.5 510,-223.203 506.991,-212.202 490,-179 483.427,-166.156 472.988,-153.787 464.041,-144.506"/>
<polygon fill="midnightblue" stroke="midnightblue" points="466.258,-141.775 456.698,-137.209 461.324,-146.74 466.258,-141.775"/>
</g>
<!-- Node23&#45;&gt;Node20 -->
<g id="edge50" class="edge"><title>Node23&#45;&gt;Node20</title>
<path fill="none" stroke="midnightblue" d="M655.778,-441.84C672.188,-439.818 689.719,-437.747 706,-436 882.158,-417.102 926.641,-416.913 1103,-400 1104.3,-399.875 1105.62,-399.748 1106.94,-399.62"/>
<polygon fill="midnightblue" stroke="midnightblue" points="1107.61,-403.072 1117.22,-398.618 1106.93,-396.105 1107.61,-403.072"/>
</g>
<!-- Node23&#45;&gt;Node21 -->
<g id="edge49" class="edge"><title>Node23&#45;&gt;Node21</title>
<path fill="none" stroke="midnightblue" d="M655.665,-436.775C707.8,-426.041 779.203,-411.341 826.881,-401.525"/>
<polygon fill="midnightblue" stroke="midnightblue" points="827.59,-404.952 836.679,-399.507 826.179,-398.096 827.59,-404.952"/>
</g>
<!-- Node23&#45;&gt;Node22 -->
<g id="edge51" class="edge"><title>Node23&#45;&gt;Node22</title>
<path fill="none" stroke="midnightblue" d="M522.438,-444.287C446.915,-436.368 329.148,-421.127 290,-400 260.11,-383.87 250.415,-375.614 238,-344 211.114,-275.535 226.702,-185.136 235.384,-146.868"/>
<polygon fill="midnightblue" stroke="midnightblue" points="238.79,-147.669 237.705,-137.13 231.981,-146.046 238.79,-147.669"/>
</g>
<!-- Node24&#45;&gt;Node8 -->
<g id="edge56" class="edge"><title>Node24&#45;&gt;Node8</title>
<path fill="none" stroke="midnightblue" d="M448.017,-184.888C432.337,-168.836 403.425,-133.984 423,-112 434.86,-98.6812 689.895,-76.7613 779.336,-69.4552"/>
<polygon fill="midnightblue" stroke="midnightblue" points="779.711,-72.9363 789.395,-68.6382 779.144,-65.9593 779.711,-72.9363"/>
</g>
<!-- Node24&#45;&gt;Node14 -->
<g id="edge57" class="edge"><title>Node24&#45;&gt;Node14</title>
<path fill="none" stroke="midnightblue" d="M455.651,-184.734C454.182,-175.183 451.787,-159.618 449.89,-147.283"/>
<polygon fill="midnightblue" stroke="midnightblue" points="453.307,-146.479 448.327,-137.127 446.389,-147.543 453.307,-146.479"/>
</g>
<!-- Node26&#45;&gt;Node3 -->
<g id="edge82" class="edge"><title>Node26&#45;&gt;Node3</title>
<path fill="none" stroke="midnightblue" d="M1507.27,-571.059C1504.14,-570.676 1501.03,-570.319 1498,-570 1244.82,-543.319 942.973,-528.338 806.06,-522.452"/>
<polygon fill="midnightblue" stroke="midnightblue" points="805.839,-518.939 795.699,-522.01 805.54,-525.933 805.839,-518.939"/>
</g>
<!-- Node26&#45;&gt;Node4 -->
<g id="edge64" class="edge"><title>Node26&#45;&gt;Node4</title>
<path fill="none" stroke="midnightblue" d="M1612.67,-578.402C1753.48,-575.389 2128,-557.505 2128,-452.5 2128,-452.5 2128,-452.5 2128,-193.5 2128,-153.72 2122.97,-135.666 2091,-112 2047.03,-79.4542 1892.56,-70.4357 1805.97,-67.9444"/>
<polygon fill="midnightblue" stroke="midnightblue" points="1805.85,-64.44 1795.76,-67.6718 1805.67,-71.4375 1805.85,-64.44"/>
</g>
<!-- Node26&#45;&gt;Node8 -->
<g id="edge66" class="edge"><title>Node26&#45;&gt;Node8</title>
<path fill="none" stroke="midnightblue" d="M1533.52,-570.422C1473.64,-550.226 1333,-497.954 1333,-452.5 1333,-452.5 1333,-452.5 1333,-389 1333,-316.816 1316.23,-285.778 1256,-246 1182.08,-197.184 943.723,-235.867 859,-210 799.835,-191.936 768.501,-196.239 737,-143 729.984,-131.142 730.284,-124.03 737,-112 746.195,-95.5294 764.171,-84.3393 779.982,-77.2374"/>
<polygon fill="midnightblue" stroke="midnightblue" points="781.54,-80.3812 789.45,-73.3331 778.871,-73.9099 781.54,-80.3812"/>
</g>
<!-- Node26&#45;&gt;Node15 -->
<g id="edge65" class="edge"><title>Node26&#45;&gt;Node15</title>
<path fill="none" stroke="midnightblue" d="M1570.46,-570.385C1592.14,-551.486 1640,-503.95 1640,-452.5 1640,-452.5 1640,-452.5 1640,-389 1640,-321.064 1640.57,-286.46 1586,-246 1488.85,-173.978 1125.63,-298.295 1043,-210 1023.24,-188.883 1053.74,-160.262 1076.91,-143.16"/>
<polygon fill="midnightblue" stroke="midnightblue" points="1079.17,-145.846 1085.31,-137.209 1075.13,-140.134 1079.17,-145.846"/>
</g>
<!-- Node27 -->
<g id="node27" class="node"><title>Node27</title>
<polygon fill="white" stroke="#bfbfbf" points="1668,-509 1668,-528 1712,-528 1712,-509 1668,-509"/>
<text text-anchor="middle" x="1690" y="-516" font-family="Helvetica,sans-Serif" font-size="10.00">vector</text>
</g>
<!-- Node26&#45;&gt;Node27 -->
<g id="edge67" class="edge"><title>Node26&#45;&gt;Node27</title>
<path fill="none" stroke="midnightblue" d="M1578.63,-570.475C1600.44,-560.49 1636.8,-543.848 1662.02,-532.307"/>
<polygon fill="midnightblue" stroke="midnightblue" points="1663.77,-535.353 1671.41,-528.009 1660.86,-528.988 1663.77,-535.353"/>
</g>
<!-- Node28 -->
<g id="node28" class="node"><title>Node28</title>
<g id="a_node28"><a xlink:href="_micro_step_8h.html" target="_top" xlink:title="uscxml/interpreter\l/MicroStep.h">
<polygon fill="white" stroke="black" points="1052,-179.5 1052,-209.5 1148,-209.5 1148,-179.5 1052,-179.5"/>
<text text-anchor="start" x="1060" y="-197.5" font-family="Helvetica,sans-Serif" font-size="10.00">uscxml/interpreter</text>
<text text-anchor="middle" x="1100" y="-186.5" font-family="Helvetica,sans-Serif" font-size="10.00">/MicroStep.h</text>
</a>
</g>
</g>
<!-- Node26&#45;&gt;Node28 -->
<g id="edge68" class="edge"><title>Node26&#45;&gt;Node28</title>
<path fill="none" stroke="midnightblue" d="M1556.5,-570.312C1538.71,-527.262 1453.72,-335.322 1319,-246 1312.2,-241.494 1220.87,-221.334 1158.33,-207.889"/>
<polygon fill="midnightblue" stroke="midnightblue" points="1158.68,-204.385 1148.17,-205.709 1157.21,-211.229 1158.68,-204.385"/>
</g>
<!-- Node29 -->
<g id="node29" class="node"><title>Node29</title>
<g id="a_node29"><a xlink:href="_interpreter_state_8h.html" target="_top" xlink:title="uscxml/interpreter\l/InterpreterState.h">
<polygon fill="white" stroke="black" points="1774.5,-112.5 1774.5,-142.5 1871.5,-142.5 1871.5,-112.5 1774.5,-112.5"/>
<text text-anchor="start" x="1782.5" y="-130.5" font-family="Helvetica,sans-Serif" font-size="10.00">uscxml/interpreter</text>
<text text-anchor="middle" x="1823" y="-119.5" font-family="Helvetica,sans-Serif" font-size="10.00">/InterpreterState.h</text>
</a>
</g>
</g>
<!-- Node26&#45;&gt;Node29 -->
<g id="edge91" class="edge"><title>Node26&#45;&gt;Node29</title>
<path fill="none" stroke="midnightblue" d="M1612.51,-579.026C1653.46,-576.321 1709.35,-566.274 1746,-534 1847.48,-444.65 1855.94,-380.679 1844,-246 1841.11,-213.422 1833.8,-176.353 1828.62,-152.713"/>
<polygon fill="midnightblue" stroke="midnightblue" points="1832.02,-151.854 1826.41,-142.861 1825.19,-153.384 1832.02,-151.854"/>
</g>
<!-- Node30 -->
<g id="node30" class="node"><title>Node30</title>
<g id="a_node30"><a xlink:href="_data_model_8h.html" target="_top" xlink:title="uscxml/plugins/DataModel.h">
<polygon fill="white" stroke="black" points="1011,-319 1011,-338 1153,-338 1153,-319 1011,-319"/>
<text text-anchor="middle" x="1082" y="-326" font-family="Helvetica,sans-Serif" font-size="10.00">uscxml/plugins/DataModel.h</text>
</a>
</g>
</g>
<!-- Node26&#45;&gt;Node30 -->
<g id="edge76" class="edge"><title>Node26&#45;&gt;Node30</title>
<path fill="none" stroke="midnightblue" d="M1507.3,-570.6C1438.51,-559.425 1325.96,-540.34 1319,-534 1266.36,-486.078 1325.89,-429.768 1275,-380 1245.56,-351.214 1201.85,-338.273 1163.46,-332.668"/>
<polygon fill="midnightblue" stroke="midnightblue" points="1163.68,-329.167 1153.31,-331.335 1162.77,-336.108 1163.68,-329.167"/>
</g>
<!-- Node31 -->
<g id="node31" class="node"><title>Node31</title>
<g id="a_node31"><a xlink:href="_content_executor_8h.html" target="_top" xlink:title="uscxml/interpreter\l/ContentExecutor.h">
<polygon fill="white" stroke="black" points="1475,-246.5 1475,-276.5 1577,-276.5 1577,-246.5 1475,-246.5"/>
<text text-anchor="start" x="1483" y="-264.5" font-family="Helvetica,sans-Serif" font-size="10.00">uscxml/interpreter</text>
<text text-anchor="middle" x="1526" y="-253.5" font-family="Helvetica,sans-Serif" font-size="10.00">/ContentExecutor.h</text>
</a>
</g>
</g>
<!-- Node26&#45;&gt;Node31 -->
<g id="edge83" class="edge"><title>Node26&#45;&gt;Node31</title>
<path fill="none" stroke="midnightblue" d="M1558.05,-570.464C1553.58,-550.145 1543,-497.262 1543,-452.5 1543,-452.5 1543,-452.5 1543,-389 1543,-353.13 1536.2,-312.044 1531.2,-286.68"/>
<polygon fill="midnightblue" stroke="midnightblue" points="1534.62,-285.933 1529.2,-276.834 1527.77,-287.331 1534.62,-285.933"/>
</g>
<!-- Node32 -->
<g id="node32" class="node"><title>Node32</title>
<g id="a_node32"><a xlink:href="_event_queue_8h.html" target="_top" xlink:title="uscxml/interpreter\l/EventQueue.h">
<polygon fill="white" stroke="black" points="1706,-313.5 1706,-343.5 1802,-343.5 1802,-313.5 1706,-313.5"/>
<text text-anchor="start" x="1714" y="-331.5" font-family="Helvetica,sans-Serif" font-size="10.00">uscxml/interpreter</text>
<text text-anchor="middle" x="1754" y="-320.5" font-family="Helvetica,sans-Serif" font-size="10.00">/EventQueue.h</text>
</a>
</g>
</g>
<!-- Node26&#45;&gt;Node32 -->
<g id="edge88" class="edge"><title>Node26&#45;&gt;Node32</title>
<path fill="none" stroke="midnightblue" d="M1612.54,-578.32C1648.32,-574.919 1693.93,-564.302 1721,-534 1766.31,-483.284 1762.69,-395.909 1757.7,-353.706"/>
<polygon fill="midnightblue" stroke="midnightblue" points="1761.14,-352.993 1756.36,-343.533 1754.19,-353.904 1761.14,-352.993"/>
</g>
<!-- Node28&#45;&gt;Node2 -->
<g id="edge72" class="edge"><title>Node28&#45;&gt;Node2</title>
<path fill="none" stroke="midnightblue" d="M1148.18,-186.044C1227.53,-173.764 1385.08,-149.381 1467.29,-136.657"/>
<polygon fill="midnightblue" stroke="midnightblue" points="1468.07,-140.079 1477.42,-135.09 1467,-133.161 1468.07,-140.079"/>
</g>
<!-- Node28&#45;&gt;Node4 -->
<g id="edge73" class="edge"><title>Node28&#45;&gt;Node4</title>
<path fill="none" stroke="midnightblue" d="M1137.3,-179.366C1187.27,-161.001 1279.03,-129.25 1360,-112 1473.91,-87.7311 1609.72,-75.7302 1686.09,-70.4875"/>
<polygon fill="midnightblue" stroke="midnightblue" points="1686.72,-73.9532 1696.47,-69.792 1686.26,-66.9689 1686.72,-73.9532"/>
</g>
<!-- Node28&#45;&gt;Node8 -->
<g id="edge71" class="edge"><title>Node28&#45;&gt;Node8</title>
<path fill="none" stroke="midnightblue" d="M1111.74,-179.474C1125.05,-161.803 1142.84,-131.407 1126,-112 1089.3,-69.7004 913.562,-66.1435 841.22,-66.5199"/>
<polygon fill="midnightblue" stroke="midnightblue" points="840.9,-63.0223 830.929,-66.6043 840.957,-70.0221 840.9,-63.0223"/>
</g>
<!-- Node28&#45;&gt;Node9 -->
<g id="edge69" class="edge"><title>Node28&#45;&gt;Node9</title>
<path fill="none" stroke="midnightblue" d="M1051.76,-185.448C1036.8,-183.137 1020.25,-180.767 1005,-179 904.687,-167.374 641.437,-189.892 552,-143 527.314,-130.057 508.849,-102.594 498.742,-84.4709"/>
<polygon fill="midnightblue" stroke="midnightblue" points="501.772,-82.7149 494,-75.5148 495.586,-85.9903 501.772,-82.7149"/>
</g>
<!-- Node28&#45;&gt;Node14 -->
<g id="edge70" class="edge"><title>Node28&#45;&gt;Node14</title>
<path fill="none" stroke="midnightblue" d="M1051.77,-185.39C1036.81,-183.077 1020.25,-180.721 1005,-179 787.571,-154.474 730.57,-174.218 514,-143 499.736,-140.944 483.975,-137.589 471.325,-134.623"/>
<polygon fill="midnightblue" stroke="midnightblue" points="472.074,-131.203 461.532,-132.261 470.432,-138.008 472.074,-131.203"/>
</g>
<!-- Node28&#45;&gt;Node29 -->
<g id="edge74" class="edge"><title>Node28&#45;&gt;Node29</title>
<path fill="none" stroke="midnightblue" d="M1148.23,-185.388C1163.19,-183.074 1179.75,-180.718 1195,-179 1413.31,-154.407 1469.19,-162.734 1688,-143 1712.95,-140.75 1740.45,-137.869 1764.08,-135.269"/>
<polygon fill="midnightblue" stroke="midnightblue" points="1764.75,-138.717 1774.3,-134.136 1763.98,-131.76 1764.75,-138.717"/>
</g>
<!-- Node29&#45;&gt;Node4 -->
<g id="edge75" class="edge"><title>Node29&#45;&gt;Node4</title>
<path fill="none" stroke="midnightblue" d="M1804.75,-112.399C1792.87,-103.218 1777.39,-91.2579 1765.31,-81.9182"/>
<polygon fill="midnightblue" stroke="midnightblue" points="1767.26,-79.0028 1757.2,-75.6578 1762.98,-84.5418 1767.26,-79.0028"/>
</g>
<!-- Node30&#45;&gt;Node4 -->
<g id="edge77" class="edge"><title>Node30&#45;&gt;Node4</title>
<path fill="none" stroke="midnightblue" d="M1150.92,-318.999C1168.54,-316.929 1187.46,-314.796 1205,-313 1388.73,-294.186 1440.76,-325.403 1619,-277 1685.96,-258.817 1698.34,-241.818 1760,-210 1814.28,-181.988 1849.08,-195.679 1880,-143 1886.97,-131.118 1888.04,-123.186 1880,-112 1862.97,-88.3101 1832.85,-76.9187 1805.48,-71.5118"/>
<polygon fill="midnightblue" stroke="midnightblue" points="1806,-68.0501 1795.55,-69.7789 1804.8,-74.9459 1806,-68.0501"/>
</g>
<!-- Node30&#45;&gt;Node8 -->
<g id="edge80" class="edge"><title>Node30&#45;&gt;Node8</title>
<path fill="none" stroke="midnightblue" d="M1051.09,-318.965C961.692,-293.544 706.582,-215.58 666,-143 659.276,-130.974 657.839,-123.101 666,-112 691.829,-76.8674 744.964,-68.3985 778.966,-66.7715"/>
<polygon fill="midnightblue" stroke="midnightblue" points="779.385,-70.2605 789.274,-66.4585 779.173,-63.2637 779.385,-70.2605"/>
</g>
<!-- Node30&#45;&gt;Node9 -->
<g id="edge81" class="edge"><title>Node30&#45;&gt;Node9</title>
<path fill="none" stroke="midnightblue" d="M1013.06,-318.985C898.291,-304.8 680.108,-277.796 676,-277 561.802,-254.882 500.574,-296.676 423,-210 393.802,-177.376 391.209,-149.974 413,-112 421.871,-96.5413 438.332,-85.8864 453.764,-78.8406"/>
<polygon fill="midnightblue" stroke="midnightblue" points="455.288,-81.9971 463.163,-74.9094 452.587,-75.5393 455.288,-81.9971"/>
</g>
<!-- Node30&#45;&gt;Node12 -->
<g id="edge78" class="edge"><title>Node30&#45;&gt;Node12</title>
<path fill="none" stroke="midnightblue" d="M1095.35,-318.734C1111.75,-307.964 1139.8,-289.55 1159.31,-276.739"/>
<polygon fill="midnightblue" stroke="midnightblue" points="1161.42,-279.542 1167.86,-271.127 1157.58,-273.69 1161.42,-279.542"/>
</g>
<!-- Node30&#45;&gt;Node14 -->
<g id="edge79" class="edge"><title>Node30&#45;&gt;Node14</title>
<path fill="none" stroke="midnightblue" d="M1016.18,-318.96C916.553,-305.925 737.527,-282.042 724,-277 700.204,-268.13 697.855,-258.935 676,-246 622.093,-214.095 607.797,-207.472 552,-179 524.469,-164.951 492.395,-149.682 471.011,-139.654"/>
<polygon fill="midnightblue" stroke="midnightblue" points="472.256,-136.373 461.715,-135.31 469.293,-142.715 472.256,-136.373"/>
</g>
<!-- Node31&#45;&gt;Node2 -->
<g id="edge84" class="edge"><title>Node31&#45;&gt;Node2</title>
<path fill="none" stroke="midnightblue" d="M1543.63,-246.13C1553.43,-236.958 1564.7,-224.157 1570,-210 1574.83,-197.097 1575.24,-191.742 1570,-179 1564.09,-164.634 1551.9,-152.183 1541.04,-143.239"/>
<polygon fill="midnightblue" stroke="midnightblue" points="1543.16,-140.46 1533.11,-137.11 1538.88,-145.997 1543.16,-140.46"/>
</g>
<!-- Node31&#45;&gt;Node4 -->
<g id="edge85" class="edge"><title>Node31&#45;&gt;Node4</title>
<path fill="none" stroke="midnightblue" d="M1549.63,-246.453C1582.71,-226.128 1643.74,-186.195 1688,-143 1706.67,-124.781 1724.27,-100.29 1735.09,-84.0929"/>
<polygon fill="midnightblue" stroke="midnightblue" points="1738.08,-85.9099 1740.62,-75.625 1732.22,-82.0785 1738.08,-85.9099"/>
</g>
<!-- Node31&#45;&gt;Node8 -->
<g id="edge87" class="edge"><title>Node31&#45;&gt;Node8</title>
<path fill="none" stroke="midnightblue" d="M1474.79,-255.255C1387.56,-245.945 1217.37,-226.006 1195,-210 1155.07,-181.424 1184.18,-140.226 1144,-112 1095.5,-77.9274 914.576,-69.6008 841.205,-67.6095"/>
<polygon fill="midnightblue" stroke="midnightblue" points="840.873,-64.1003 830.789,-67.3503 840.698,-71.0981 840.873,-64.1003"/>
</g>
<!-- Node31&#45;&gt;Node13 -->
<g id="edge86" class="edge"><title>Node31&#45;&gt;Node13</title>
<path fill="none" stroke="midnightblue" d="M1474.92,-256.969C1382.08,-250.225 1179.55,-234.011 1010,-210 1001.67,-208.82 992.871,-207.378 984.305,-205.865"/>
<polygon fill="midnightblue" stroke="midnightblue" points="984.861,-202.409 974.397,-204.069 983.612,-209.296 984.861,-202.409"/>
</g>
<!-- Node32&#45;&gt;Node4 -->
<g id="edge89" class="edge"><title>Node32&#45;&gt;Node4</title>
<path fill="none" stroke="midnightblue" d="M1802.22,-326.994C1881.19,-325.03 2032.7,-316.121 2066,-277 2113.53,-221.156 2114.11,-167.347 2066,-112 2032.97,-73.995 1888.91,-67.1628 1805.78,-66.4729"/>
<polygon fill="midnightblue" stroke="midnightblue" points="1805.73,-62.9726 1795.71,-66.4168 1805.69,-69.9725 1805.73,-62.9726"/>
</g>
<!-- Node32&#45;&gt;Node12 -->
<g id="edge90" class="edge"><title>Node32&#45;&gt;Node12</title>
<path fill="none" stroke="midnightblue" d="M1705.64,-322.014C1606.15,-310.728 1377.83,-284.828 1257.86,-271.219"/>
<polygon fill="midnightblue" stroke="midnightblue" points="1257.98,-267.71 1247.65,-270.061 1257.19,-274.666 1257.98,-267.71"/>
</g>
<!-- Node34&#45;&gt;Node2 -->
<g id="edge94" class="edge"><title>Node34&#45;&gt;Node2</title>
<path fill="none" stroke="midnightblue" d="M1324.72,-179.476C1370.52,-167.521 1435.44,-150.573 1477.64,-139.558"/>
<polygon fill="midnightblue" stroke="midnightblue" points="1478.54,-142.941 1487.33,-137.029 1476.77,-136.168 1478.54,-142.941"/>
</g>
<!-- Node34&#45;&gt;Node4 -->
<g id="edge95" class="edge"><title>Node34&#45;&gt;Node4</title>
<path fill="none" stroke="midnightblue" d="M1294.26,-179.357C1325.85,-160.829 1384.62,-128.737 1439,-112 1522.52,-86.2924 1623.46,-75.0959 1686.21,-70.3425"/>
<polygon fill="midnightblue" stroke="midnightblue" points="1686.61,-73.8231 1696.33,-69.6072 1686.1,-66.8415 1686.61,-73.8231"/>
</g>
<!-- Node34&#45;&gt;Node8 -->
<g id="edge97" class="edge"><title>Node34&#45;&gt;Node8</title>
<path fill="none" stroke="midnightblue" d="M1262.8,-179.423C1250.94,-160.503 1227.09,-127.461 1197,-112 1134.94,-80.1117 921.589,-70.3951 841.082,-67.8241"/>
<polygon fill="midnightblue" stroke="midnightblue" points="840.735,-64.312 830.633,-67.5072 840.523,-71.3088 840.735,-64.312"/>
</g>
<!-- Node34&#45;&gt;Node9 -->
<g id="edge98" class="edge"><title>Node34&#45;&gt;Node9</title>
<path fill="none" stroke="midnightblue" d="M1203.85,-184.423C1188.47,-182.494 1172.18,-180.568 1157,-179 956.1,-158.252 901.519,-185.157 704,-143 635.074,-128.289 558.061,-97.0653 517.864,-79.5631"/>
<polygon fill="midnightblue" stroke="midnightblue" points="519.26,-76.3534 508.697,-75.5306 516.441,-82.7609 519.26,-76.3534"/>
</g>
<!-- Node34&#45;&gt;Node10 -->
<g id="edge99" class="edge"><title>Node34&#45;&gt;Node10</title>
<path fill="none" stroke="midnightblue" d="M1273.88,-179.479C1278.58,-156.616 1287.9,-111.296 1293.15,-85.7129"/>
<polygon fill="midnightblue" stroke="midnightblue" points="1296.61,-86.2885 1295.19,-75.7885 1289.75,-84.8791 1296.61,-86.2885"/>
</g>
<!-- Node34&#45;&gt;Node22 -->
<g id="edge96" class="edge"><title>Node34&#45;&gt;Node22</title>
<path fill="none" stroke="midnightblue" d="M1203.88,-184.084C1188.5,-182.171 1172.2,-180.338 1157,-179 831.643,-150.373 748.945,-163.902 423,-143 385.674,-140.606 344.111,-137.36 310.041,-134.546"/>
<polygon fill="midnightblue" stroke="midnightblue" points="309.976,-131.029 299.721,-133.688 309.396,-138.004 309.976,-131.029"/>
</g>
<!-- Node35&#45;&gt;Node14 -->
<g id="edge102" class="edge"><title>Node35&#45;&gt;Node14</title>
<path fill="none" stroke="midnightblue" d="M517.898,-515.423C391.918,-510.78 127.464,-497.479 100,-467 -24.7488,-328.558 325.924,-176.357 422.903,-137.777"/>
<polygon fill="midnightblue" stroke="midnightblue" points="424.434,-140.936 432.459,-134.018 421.871,-134.421 424.434,-140.936"/>
</g>
<!-- Node35&#45;&gt;Node23 -->
<g id="edge101" class="edge"><title>Node35&#45;&gt;Node23</title>
<path fill="none" stroke="midnightblue" d="M585.085,-503.396C585.688,-495.56 586.454,-485.596 587.149,-476.565"/>
<polygon fill="midnightblue" stroke="midnightblue" points="590.64,-476.816 587.917,-466.577 583.66,-476.279 590.64,-476.816"/>
</g>
</g>
</svg>
