<?xml version="1.0" encoding="UTF-8" standalone="no"?>
<!DOCTYPE svg PUBLIC "-//W3C//DTD SVG 1.1//EN"
 "http://www.w3.org/Graphics/SVG/1.1/DTD/svg11.dtd">
<!-- Generated by graphviz version 2.40.1 (20161225.0304)
 -->
<!-- Title: interpreter/FastMicroStep.h Pages: 1 -->
<svg width="324pt" height="84pt"
 viewBox="0.00 0.00 323.50 84.00" xmlns="http://www.w3.org/2000/svg" xmlns:xlink="http://www.w3.org/1999/xlink">
<g id="graph0" class="graph" transform="scale(1 1) rotate(0) translate(4 80)">
<title>interpreter/FastMicroStep.h</title>
<polygon fill="#ffffff" stroke="transparent" points="-4,4 -4,-80 319.5,-80 319.5,4 -4,4"/>
<!-- Node1 -->
<g id="node1" class="node">
<title>Node1</title>
<polygon fill="#bfbfbf" stroke="#000000" points="88,-56.5 88,-75.5 226,-75.5 226,-56.5 88,-56.5"/>
<text text-anchor="middle" x="157" y="-63.5" font-family="Helvetica,sans-Serif" font-size="10.00" fill="#000000">interpreter/FastMicroStep.h</text>
</g>
<!-- Node2 -->
<g id="node2" class="node">
<title>Node2</title>
<g id="a_node2"><a xlink:href="$_fast_micro_step_8cpp.html" xlink:title="interpreter/FastMicroStep.cpp">
<polygon fill="#ffffff" stroke="#000000" points="0,-.5 0,-19.5 148,-19.5 148,-.5 0,-.5"/>
<text text-anchor="middle" x="74" y="-7.5" font-family="Helvetica,sans-Serif" font-size="10.00" fill="#000000">interpreter/FastMicroStep.cpp</text>
</a>
</g>
</g>
<!-- Node1&#45;&gt;Node2 -->
<g id="edge1" class="edge">
<title>Node1&#45;&gt;Node2</title>
<path fill="none" stroke="#191970" d="M134.012,-50.49C119.3678,-40.6096 100.8556,-28.1194 88.2918,-19.6427"/>
<polygon fill="#191970" stroke="#191970" points="132.2953,-53.5539 142.5425,-56.2455 136.2104,-47.7511 132.2953,-53.5539"/>
</g>
<!-- Node3 -->
<g id="node3" class="node">
<title>Node3</title>
<g id="a_node3"><a xlink:href="$_interpreter_impl_8cpp.html" xlink:title="interpreter/InterpreterImpl.cpp">
<polygon fill="#ffffff" stroke="#000000" points="166.5,-.5 166.5,-19.5 315.5,-19.5 315.5,-.5 166.5,-.5"/>
<text text-anchor="middle" x="241" y="-7.5" font-family="Helvetica,sans-Serif" font-size="10.00" fill="#000000">interpreter/InterpreterImpl.cpp</text>
</a>
</g>
</g>
<!-- Node1&#45;&gt;Node3 -->
<g id="edge2" class="edge">
<title>Node1&#45;&gt;Node3</title>
<path fill="none" stroke="#191970" d="M180.2649,-50.49C195.0856,-40.6096 213.8209,-28.1194 226.536,-19.6427"/>
<polygon fill="#191970" stroke="#191970" points="178.0107,-47.7863 171.6317,-56.2455 181.8937,-53.6107 178.0107,-47.7863"/>
</g>
</g>
</svg>
