<?xml version="1.0" encoding="UTF-8" standalone="no"?>
<!DOCTYPE svg PUBLIC "-//W3C//DTD SVG 1.1//EN"
 "http://www.w3.org/Graphics/SVG/1.1/DTD/svg11.dtd">
<!-- Generated by graphviz version 2.40.1 (20161225.0304)
 -->
<!-- Title: interpreter/FastMicroStep.h Pages: 1 -->
<svg width="2117pt" height="509pt"
 viewBox="0.00 0.00 2116.74 509.00" xmlns="http://www.w3.org/2000/svg" xmlns:xlink="http://www.w3.org/1999/xlink">
<g id="graph0" class="graph" transform="scale(1 1) rotate(0) translate(4 505)">
<title>interpreter/FastMicroStep.h</title>
<polygon fill="#ffffff" stroke="transparent" points="-4,4 -4,-505 2112.7447,-505 2112.7447,4 -4,4"/>
<!-- Node0 -->
<g id="node1" class="node">
<title>Node0</title>
<polygon fill="#bfbfbf" stroke="#000000" points="560.7447,-481.5 560.7447,-500.5 698.7447,-500.5 698.7447,-481.5 560.7447,-481.5"/>
<text text-anchor="middle" x="629.7447" y="-488.5" font-family="Helvetica,sans-Serif" font-size="10.00" fill="#000000">interpreter/FastMicroStep.h</text>
</g>
<!-- Node1 -->
<g id="node2" class="node">
<title>Node1</title>
<polygon fill="#ffffff" stroke="#bfbfbf" points="231.2447,-425.5 231.2447,-444.5 316.2447,-444.5 316.2447,-425.5 231.2447,-425.5"/>
<text text-anchor="middle" x="273.7447" y="-432.5" font-family="Helvetica,sans-Serif" font-size="10.00" fill="#000000">uscxml/config.h</text>
</g>
<!-- Node0&#45;&gt;Node1 -->
<g id="edge1" class="edge">
<title>Node0&#45;&gt;Node1</title>
<path fill="none" stroke="#191970" d="M565.2328,-481.4753C504.6348,-472.4336 411.4589,-458.2875 330.7447,-445 329.2887,-444.7603 327.8121,-444.5152 326.3221,-444.2661"/>
<polygon fill="#191970" stroke="#191970" points="326.8141,-440.7996 316.3697,-442.5788 325.644,-447.7011 326.8141,-440.7996"/>
</g>
<!-- Node2 -->
<g id="node3" class="node">
<title>Node2</title>
<g id="a_node3"><a xlink:href="_common_8h.html" target="_top" xlink:title="uscxml/Common.h">
<polygon fill="#ffffff" stroke="#000000" points="1635.2447,-56.5 1635.2447,-75.5 1734.2447,-75.5 1734.2447,-56.5 1635.2447,-56.5"/>
<text text-anchor="middle" x="1684.7447" y="-63.5" font-family="Helvetica,sans-Serif" font-size="10.00" fill="#000000">uscxml/Common.h</text>
</a>
</g>
</g>
<!-- Node0&#45;&gt;Node2 -->
<g id="edge2" class="edge">
<title>Node0&#45;&gt;Node2</title>
<path fill="none" stroke="#191970" d="M698.9075,-488.7958C970.7131,-479.6856 1950.7447,-442.4387 1950.7447,-379 1950.7447,-379 1950.7447,-379 1950.7447,-183.5 1950.7447,-143.4081 1929.6085,-133.4616 1895.7447,-112 1870.9773,-96.3033 1797.7025,-82.6149 1744.4441,-74.3408"/>
<polygon fill="#191970" stroke="#191970" points="1744.8282,-70.8589 1734.4145,-72.8094 1743.7716,-77.7787 1744.8282,-70.8589"/>
</g>
<!-- Node5 -->
<g id="node6" class="node">
<title>Node5</title>
<g id="a_node6"><a xlink:href="_d_o_m_8h.html" target="_top" xlink:title="uscxml/util/DOM.h">
<polygon fill="#ffffff" stroke="#000000" points="256.7447,-241 256.7447,-260 354.7447,-260 354.7447,-241 256.7447,-241"/>
<text text-anchor="middle" x="305.7447" y="-248" font-family="Helvetica,sans-Serif" font-size="10.00" fill="#000000">uscxml/util/DOM.h</text>
</a>
</g>
</g>
<!-- Node0&#45;&gt;Node5 -->
<g id="edge5" class="edge">
<title>Node0&#45;&gt;Node5</title>
<path fill="none" stroke="#191970" d="M560.4516,-486.7668C493.0138,-481.2746 396.7315,-469.349 368.7447,-445 316.3439,-399.4102 307.242,-309.8726 305.8619,-270.2113"/>
<polygon fill="#191970" stroke="#191970" points="309.357,-269.9375 305.6447,-260.0143 302.3585,-270.0866 309.357,-269.9375"/>
</g>
<!-- Node6 -->
<g id="node7" class="node">
<title>Node6</title>
<polygon fill="#ffffff" stroke="#bfbfbf" points="382.7447,-174 382.7447,-193 412.7447,-193 412.7447,-174 382.7447,-174"/>
<text text-anchor="middle" x="397.7447" y="-181" font-family="Helvetica,sans-Serif" font-size="10.00" fill="#000000">set</text>
</g>
<!-- Node0&#45;&gt;Node6 -->
<g id="edge14" class="edge">
<title>Node0&#45;&gt;Node6</title>
<path fill="none" stroke="#191970" d="M560.4907,-484.1196C503.8291,-477.1785 429.4748,-464.6451 406.7447,-445 383.1299,-424.5902 382.7447,-410.2125 382.7447,-379 382.7447,-379 382.7447,-379 382.7447,-317.5 382.7447,-276.7168 389.6918,-229.3825 394.1304,-203.302"/>
<polygon fill="#191970" stroke="#191970" points="397.6202,-203.6652 395.9054,-193.21 390.726,-202.4525 397.6202,-203.6652"/>
</g>
<!-- Node11 -->
<g id="node12" class="node">
<title>Node11</title>
<polygon fill="#ffffff" stroke="#bfbfbf" points="1840.7447,-308 1840.7447,-327 1884.7447,-327 1884.7447,-308 1840.7447,-308"/>
<text text-anchor="middle" x="1862.7447" y="-315" font-family="Helvetica,sans-Serif" font-size="10.00" fill="#000000">vector</text>
</g>
<!-- Node0&#45;&gt;Node11 -->
<g id="edge12" class="edge">
<title>Node0&#45;&gt;Node11</title>
<path fill="none" stroke="#191970" d="M698.8784,-488.5056C884.6166,-480.3946 1408.6873,-448.2069 1826.7447,-333 1829.0695,-332.3594 1831.4405,-331.5991 1833.8003,-330.7645"/>
<polygon fill="#191970" stroke="#191970" points="1835.2662,-333.949 1843.2917,-327.0322 1832.7045,-327.4346 1835.2662,-333.949"/>
</g>
<!-- Node12 -->
<g id="node13" class="node">
<title>Node12</title>
<polygon fill="#ffffff" stroke="#bfbfbf" points="582.7447,-112.5 582.7447,-131.5 618.7447,-131.5 618.7447,-112.5 582.7447,-112.5"/>
<text text-anchor="middle" x="600.7447" y="-119.5" font-family="Helvetica,sans-Serif" font-size="10.00" fill="#000000">map</text>
</g>
<!-- Node0&#45;&gt;Node12 -->
<g id="edge13" class="edge">
<title>Node0&#45;&gt;Node12</title>
<path fill="none" stroke="#191970" d="M627.5723,-481.1888C620.7369,-449.9433 599.4874,-349.8882 588.7447,-266 584.9518,-236.3813 584.8566,-228.8399 583.7447,-199 583.2317,-185.2318 581.3188,-181.5625 583.7447,-168 585.3891,-158.8071 588.7453,-149.047 592.0445,-140.8935"/>
<polygon fill="#191970" stroke="#191970" points="595.3112,-142.1569 596.0598,-131.5885 588.8841,-139.3833 595.3112,-142.1569"/>
</g>
<!-- Node13 -->
<g id="node14" class="node">
<title>Node13</title>
<g id="a_node14"><a xlink:href="_micro_step_impl_8h.html" target="_top" xlink:title="MicroStepImpl.h">
<polygon fill="#ffffff" stroke="#000000" points="806.2447,-425.5 806.2447,-444.5 895.2447,-444.5 895.2447,-425.5 806.2447,-425.5"/>
<text text-anchor="middle" x="850.7447" y="-432.5" font-family="Helvetica,sans-Serif" font-size="10.00" fill="#000000">MicroStepImpl.h</text>
</a>
</g>
</g>
<!-- Node0&#45;&gt;Node13 -->
<g id="edge15" class="edge">
<title>Node0&#45;&gt;Node13</title>
<path fill="none" stroke="#191970" d="M667.4849,-481.4369C704.9895,-471.9335 762.6246,-457.3291 803.2272,-447.0407"/>
<polygon fill="#191970" stroke="#191970" points="804.3263,-450.3728 813.1603,-444.5237 802.6069,-443.5873 804.3263,-450.3728"/>
</g>
<!-- Node32 -->
<g id="node33" class="node">
<title>Node32</title>
<polygon fill="#ffffff" stroke="#bfbfbf" points="1978.7447,-425.5 1978.7447,-444.5 2108.7447,-444.5 2108.7447,-425.5 1978.7447,-425.5"/>
<text text-anchor="middle" x="2043.7447" y="-432.5" font-family="Helvetica,sans-Serif" font-size="10.00" fill="#000000">boost/dynamic_bitset.hpp</text>
</g>
<!-- Node0&#45;&gt;Node32 -->
<g id="edge81" class="edge">
<title>Node0&#45;&gt;Node32</title>
<path fill="none" stroke="#191970" d="M699.0524,-489.451C936.3218,-484.0168 1715.0883,-465.0599 1964.7447,-445 1966.0237,-444.8972 1967.3138,-444.7888 1968.6125,-444.6752"/>
<polygon fill="#191970" stroke="#191970" points="1969.0744,-448.1471 1978.6965,-443.7126 1968.4091,-441.1788 1969.0744,-448.1471"/>
</g>
<!-- Node3 -->
<g id="node4" class="node">
<title>Node3</title>
<polygon fill="#ffffff" stroke="#bfbfbf" points="1610.7447,-.5 1610.7447,-19.5 1682.7447,-19.5 1682.7447,-.5 1610.7447,-.5"/>
<text text-anchor="middle" x="1646.7447" y="-7.5" font-family="Helvetica,sans-Serif" font-size="10.00" fill="#000000">sys/socket.h</text>
</g>
<!-- Node2&#45;&gt;Node3 -->
<g id="edge3" class="edge">
<title>Node2&#45;&gt;Node3</title>
<path fill="none" stroke="#191970" d="M1678.1256,-56.2455C1672.8402,-48.4564 1665.2906,-37.3308 1658.921,-27.9439"/>
<polygon fill="#191970" stroke="#191970" points="1661.7992,-25.9522 1653.288,-19.6427 1656.0069,-29.8827 1661.7992,-25.9522"/>
</g>
<!-- Node4 -->
<g id="node5" class="node">
<title>Node4</title>
<polygon fill="#ffffff" stroke="#bfbfbf" points="1700.7447,-.5 1700.7447,-19.5 1744.7447,-19.5 1744.7447,-.5 1700.7447,-.5"/>
<text text-anchor="middle" x="1722.7447" y="-7.5" font-family="Helvetica,sans-Serif" font-size="10.00" fill="#000000">cmath</text>
</g>
<!-- Node2&#45;&gt;Node4 -->
<g id="edge4" class="edge">
<title>Node2&#45;&gt;Node4</title>
<path fill="none" stroke="#191970" d="M1691.3638,-56.2455C1696.6493,-48.4564 1704.1989,-37.3308 1710.5685,-27.9439"/>
<polygon fill="#191970" stroke="#191970" points="1713.4826,-29.8827 1716.2015,-19.6427 1707.6903,-25.9522 1713.4826,-29.8827"/>
</g>
<!-- Node5&#45;&gt;Node2 -->
<g id="edge9" class="edge">
<title>Node5&#45;&gt;Node2</title>
<path fill="none" stroke="#191970" d="M306.2304,-240.9911C307.6431,-223.7601 313.1647,-187.3693 334.7447,-168 415.9359,-95.1261 465.6496,-126.7668 573.7447,-112 677.8954,-97.772 1409.053,-74.4562 1624.8945,-67.816"/>
<polygon fill="#191970" stroke="#191970" points="1625.1916,-71.3086 1635.0795,-67.5033 1624.9767,-64.3119 1625.1916,-71.3086"/>
</g>
<!-- Node5&#45;&gt;Node6 -->
<g id="edge6" class="edge">
<title>Node5&#45;&gt;Node6</title>
<path fill="none" stroke="#191970" d="M318.9261,-240.9005C333.9559,-229.9549 358.739,-211.9064 376.504,-198.9688"/>
<polygon fill="#191970" stroke="#191970" points="378.5647,-201.7979 384.5878,-193.0817 374.4438,-196.1394 378.5647,-201.7979"/>
</g>
<!-- Node7 -->
<g id="node8" class="node">
<title>Node7</title>
<polygon fill="#ffffff" stroke="#bfbfbf" points="789.2447,-112.5 789.2447,-131.5 818.2447,-131.5 818.2447,-112.5 789.2447,-112.5"/>
<text text-anchor="middle" x="803.7447" y="-119.5" font-family="Helvetica,sans-Serif" font-size="10.00" fill="#000000">list</text>
</g>
<!-- Node5&#45;&gt;Node7 -->
<g id="edge7" class="edge">
<title>Node5&#45;&gt;Node7</title>
<path fill="none" stroke="#191970" d="M310.4866,-240.7777C319.8064,-222.8552 342.3681,-184.8978 373.7447,-168 409.5242,-148.731 692.353,-129.1524 778.7592,-123.5705"/>
<polygon fill="#191970" stroke="#191970" points="779.1959,-127.0499 788.952,-122.9184 778.7489,-120.0641 779.1959,-127.0499"/>
</g>
<!-- Node8 -->
<g id="node9" class="node">
<title>Node8</title>
<polygon fill="#ffffff" stroke="#bfbfbf" points="826.2447,-56.5 826.2447,-75.5 867.2447,-75.5 867.2447,-56.5 826.2447,-56.5"/>
<text text-anchor="middle" x="846.7447" y="-63.5" font-family="Helvetica,sans-Serif" font-size="10.00" fill="#000000">string</text>
</g>
<!-- Node5&#45;&gt;Node8 -->
<g id="edge8" class="edge">
<title>Node5&#45;&gt;Node8</title>
<path fill="none" stroke="#191970" d="M256.7174,-245.5022C176.0626,-236.7823 22.6745,-217.9081 6.7447,-199 -2.1324,-188.4632 -2.331,-178.3662 6.7447,-168 61.2648,-105.7281 670.7555,-74.0487 815.8696,-67.3575"/>
<polygon fill="#191970" stroke="#191970" points="816.0452,-70.8533 825.8756,-66.9021 815.7268,-63.8605 816.0452,-70.8533"/>
</g>
<!-- Node9 -->
<g id="node10" class="node">
<title>Node9</title>
<polygon fill="#ffffff" stroke="#bfbfbf" points="16.2447,-174 16.2447,-193 151.2447,-193 151.2447,-174 16.2447,-174"/>
<text text-anchor="middle" x="83.7447" y="-181" font-family="Helvetica,sans-Serif" font-size="10.00" fill="#000000">xercesc/util/XMLString.hpp</text>
</g>
<!-- Node5&#45;&gt;Node9 -->
<g id="edge10" class="edge">
<title>Node5&#45;&gt;Node9</title>
<path fill="none" stroke="#191970" d="M273.9376,-240.9005C234.7851,-229.0843 168.2044,-208.9901 125.1115,-195.9845"/>
<polygon fill="#191970" stroke="#191970" points="126.0777,-192.6203 115.4929,-193.0817 124.0551,-199.3218 126.0777,-192.6203"/>
</g>
<!-- Node10 -->
<g id="node11" class="node">
<title>Node10</title>
<polygon fill="#ffffff" stroke="#bfbfbf" points="169.2447,-174 169.2447,-193 288.2447,-193 288.2447,-174 169.2447,-174"/>
<text text-anchor="middle" x="228.7447" y="-181" font-family="Helvetica,sans-Serif" font-size="10.00" fill="#000000">xercesc/dom/DOM.hpp</text>
</g>
<!-- Node5&#45;&gt;Node10 -->
<g id="edge11" class="edge">
<title>Node5&#45;&gt;Node10</title>
<path fill="none" stroke="#191970" d="M294.7125,-240.9005C282.362,-230.1539 262.1424,-212.5603 247.339,-199.6794"/>
<polygon fill="#191970" stroke="#191970" points="249.598,-197.0055 239.7565,-193.0817 245.003,-202.2863 249.598,-197.0055"/>
</g>
<!-- Node13&#45;&gt;Node2 -->
<g id="edge19" class="edge">
<title>Node13&#45;&gt;Node2</title>
<path fill="none" stroke="#191970" d="M895.4407,-433.6756C1085.2114,-427.6498 1817.9611,-400.1614 1893.7447,-333 1921.9043,-308.0442 1912.7447,-288.1265 1912.7447,-250.5 1912.7447,-250.5 1912.7447,-250.5 1912.7447,-183.5 1912.7447,-107.7882 1812.1755,-80.8157 1744.6229,-71.2382"/>
<polygon fill="#191970" stroke="#191970" points="1744.8717,-67.7407 1734.4986,-69.8965 1743.9521,-74.68 1744.8717,-67.7407"/>
</g>
<!-- Node13&#45;&gt;Node6 -->
<g id="edge17" class="edge">
<title>Node13&#45;&gt;Node6</title>
<path fill="none" stroke="#191970" d="M806.1882,-431.9369C713.8476,-425.2315 508.0563,-408.301 482.7447,-389 421.9997,-342.6796 404.3776,-245.2035 399.5065,-203.3167"/>
<polygon fill="#191970" stroke="#191970" points="402.9785,-202.865 398.4648,-193.2798 396.0159,-203.5877 402.9785,-202.865"/>
</g>
<!-- Node13&#45;&gt;Node7 -->
<g id="edge16" class="edge">
<title>Node13&#45;&gt;Node7</title>
<path fill="none" stroke="#191970" d="M850.7447,-425.2511C850.7447,-405.1182 850.7447,-357.4826 850.7447,-317.5 850.7447,-317.5 850.7447,-317.5 850.7447,-250.5 850.7447,-209.1617 829.0261,-164.6454 815.1165,-140.3742"/>
<polygon fill="#191970" stroke="#191970" points="817.9994,-138.3736 809.8892,-131.5563 811.9779,-141.9432 817.9994,-138.3736"/>
</g>
<!-- Node13&#45;&gt;Node8 -->
<g id="edge18" class="edge">
<title>Node13&#45;&gt;Node8</title>
<path fill="none" stroke="#191970" d="M807.2555,-425.4174C752.6362,-411.7967 657.9485,-382.7962 590.7447,-333 527.5467,-286.1719 515.835,-245.8963 526.7447,-168 530.335,-142.3654 523.3072,-129.0941 542.7447,-112 582.9802,-76.6155 747.0682,-68.4394 816.0093,-66.5585"/>
<polygon fill="#191970" stroke="#191970" points="816.3125,-70.0522 826.2234,-66.3075 816.1404,-63.0543 816.3125,-70.0522"/>
</g>
<!-- Node14 -->
<g id="node15" class="node">
<title>Node14</title>
<g id="a_node15"><a xlink:href="_interpreter_8h.html" target="_top" xlink:title="uscxml/Interpreter.h">
<polygon fill="#ffffff" stroke="#000000" points="1252.2447,-369.5 1252.2447,-388.5 1357.2447,-388.5 1357.2447,-369.5 1252.2447,-369.5"/>
<text text-anchor="middle" x="1304.7447" y="-376.5" font-family="Helvetica,sans-Serif" font-size="10.00" fill="#000000">uscxml/Interpreter.h</text>
</a>
</g>
</g>
<!-- Node13&#45;&gt;Node14 -->
<g id="edge20" class="edge">
<title>Node13&#45;&gt;Node14</title>
<path fill="none" stroke="#191970" d="M895.5185,-429.4772C976.8082,-419.4503 1148.8414,-398.2304 1241.8665,-386.7559"/>
<polygon fill="#191970" stroke="#191970" points="1242.49,-390.2056 1251.9863,-385.5076 1241.633,-383.2583 1242.49,-390.2056"/>
</g>
<!-- Node25 -->
<g id="node26" class="node">
<title>Node25</title>
<g id="a_node26"><a xlink:href="_event_8h.html" target="_top" xlink:title="uscxml/messages/Event.h">
<polygon fill="#ffffff" stroke="#000000" points="1249.2447,-241 1249.2447,-260 1382.2447,-260 1382.2447,-241 1249.2447,-241"/>
<text text-anchor="middle" x="1315.7447" y="-248" font-family="Helvetica,sans-Serif" font-size="10.00" fill="#000000">uscxml/messages/Event.h</text>
</a>
</g>
</g>
<!-- Node13&#45;&gt;Node25 -->
<g id="edge80" class="edge">
<title>Node13&#45;&gt;Node25</title>
<path fill="none" stroke="#191970" d="M874.766,-425.469C951.8456,-394.8858 1193.1012,-299.1618 1282.2233,-263.8004"/>
<polygon fill="#191970" stroke="#191970" points="1283.5839,-267.0261 1291.5881,-260.0847 1281.0022,-260.5196 1283.5839,-267.0261"/>
</g>
<!-- Node14&#45;&gt;Node2 -->
<g id="edge21" class="edge">
<title>Node14&#45;&gt;Node2</title>
<path fill="none" stroke="#191970" d="M1357.5137,-377.0469C1476.6916,-372.2104 1759.0297,-358.2077 1793.7447,-333 1873.231,-275.2824 1860.0467,-181.6177 1790.7447,-112 1775.3684,-96.5536 1753.9516,-85.9328 1734.391,-78.8238"/>
<polygon fill="#191970" stroke="#191970" points="1735.2682,-75.4252 1724.6737,-75.515 1733.0118,-82.0516 1735.2682,-75.4252"/>
</g>
<!-- Node14&#45;&gt;Node8 -->
<g id="edge23" class="edge">
<title>Node14&#45;&gt;Node8</title>
<path fill="none" stroke="#191970" d="M1252.0021,-377.8108C1104.3431,-374.1385 694.1136,-361.4647 640.7447,-333 548.5755,-283.8407 492.9988,-191.5128 560.7447,-112 577.1869,-92.702 745.1764,-75.2647 815.7672,-68.7304"/>
<polygon fill="#191970" stroke="#191970" points="816.1943,-72.206 825.8348,-67.8115 815.558,-65.235 816.1943,-72.206"/>
</g>
<!-- Node14&#45;&gt;Node11 -->
<g id="edge24" class="edge">
<title>Node14&#45;&gt;Node11</title>
<path fill="none" stroke="#191970" d="M1357.3722,-376.4906C1471.5642,-370.6998 1738.8656,-355.1802 1826.7447,-333 1829.2272,-332.3735 1831.7575,-331.5963 1834.2681,-330.7262"/>
<polygon fill="#191970" stroke="#191970" points="1835.6719,-333.9354 1843.7098,-327.033 1833.1219,-327.4164 1835.6719,-333.9354"/>
</g>
<!-- Node14&#45;&gt;Node12 -->
<g id="edge22" class="edge">
<title>Node14&#45;&gt;Node12</title>
<path fill="none" stroke="#191970" d="M1252.1249,-377.1865C1164.2884,-373.4243 982.5527,-362.5013 831.7447,-333 729.3462,-312.9687 670.8415,-348.3306 606.7447,-266 578.5436,-229.7764 587.6828,-171.5122 595.1254,-141.4046"/>
<polygon fill="#191970" stroke="#191970" points="598.5239,-142.2433 597.7183,-131.6792 591.7602,-140.44 598.5239,-142.2433"/>
</g>
<!-- Node15 -->
<g id="node16" class="node">
<title>Node15</title>
<g id="a_node16"><a xlink:href="_micro_step_8h.html" target="_top" xlink:title="uscxml/interpreter\l/MicroStep.h">
<polygon fill="#ffffff" stroke="#000000" points="1134.7447,-235.5 1134.7447,-265.5 1230.7447,-265.5 1230.7447,-235.5 1134.7447,-235.5"/>
<text text-anchor="start" x="1142.7447" y="-253.5" font-family="Helvetica,sans-Serif" font-size="10.00" fill="#000000">uscxml/interpreter</text>
<text text-anchor="middle" x="1182.7447" y="-242.5" font-family="Helvetica,sans-Serif" font-size="10.00" fill="#000000">/MicroStep.h</text>
</a>
</g>
</g>
<!-- Node14&#45;&gt;Node15 -->
<g id="edge25" class="edge">
<title>Node14&#45;&gt;Node15</title>
<path fill="none" stroke="#191970" d="M1295.5749,-369.3416C1276.3268,-349.068 1231.2665,-301.6069 1204.2748,-273.1772"/>
<polygon fill="#191970" stroke="#191970" points="1206.6009,-270.5439 1197.1774,-265.7016 1201.5245,-275.3636 1206.6009,-270.5439"/>
</g>
<!-- Node23 -->
<g id="node24" class="node">
<title>Node23</title>
<g id="a_node24"><a xlink:href="_interpreter_state_8h.html" target="_top" xlink:title="uscxml/interpreter\l/InterpreterState.h">
<polygon fill="#ffffff" stroke="#000000" points="1623.2447,-168.5 1623.2447,-198.5 1720.2447,-198.5 1720.2447,-168.5 1623.2447,-168.5"/>
<text text-anchor="start" x="1631.2447" y="-186.5" font-family="Helvetica,sans-Serif" font-size="10.00" fill="#000000">uscxml/interpreter</text>
<text text-anchor="middle" x="1671.7447" y="-175.5" font-family="Helvetica,sans-Serif" font-size="10.00" fill="#000000">/InterpreterState.h</text>
</a>
</g>
</g>
<!-- Node14&#45;&gt;Node23 -->
<g id="edge79" class="edge">
<title>Node14&#45;&gt;Node23</title>
<path fill="none" stroke="#191970" d="M1357.4389,-370.1242C1422.4634,-356.9405 1533.6167,-326.8911 1608.7447,-266 1629.0126,-249.573 1646.504,-225.3428 1657.8778,-207.3877"/>
<polygon fill="#191970" stroke="#191970" points="1660.9967,-208.9973 1663.2503,-198.6449 1655.0327,-205.3324 1660.9967,-208.9973"/>
</g>
<!-- Node24 -->
<g id="node25" class="node">
<title>Node24</title>
<g id="a_node25"><a xlink:href="_logging_8h.html" target="_top" xlink:title="uscxml/interpreter\l/Logging.h">
<polygon fill="#ffffff" stroke="#000000" points="1362.7447,-302.5 1362.7447,-332.5 1458.7447,-332.5 1458.7447,-302.5 1362.7447,-302.5"/>
<text text-anchor="start" x="1370.7447" y="-320.5" font-family="Helvetica,sans-Serif" font-size="10.00" fill="#000000">uscxml/interpreter</text>
<text text-anchor="middle" x="1410.7447" y="-309.5" font-family="Helvetica,sans-Serif" font-size="10.00" fill="#000000">/Logging.h</text>
</a>
</g>
</g>
<!-- Node14&#45;&gt;Node24 -->
<g id="edge47" class="edge">
<title>Node14&#45;&gt;Node24</title>
<path fill="none" stroke="#191970" d="M1321.3072,-369.3906C1335.9187,-360.9132 1357.6914,-348.2809 1376.096,-337.6028"/>
<polygon fill="#191970" stroke="#191970" points="1377.9211,-340.5904 1384.8142,-332.5446 1374.4081,-334.5357 1377.9211,-340.5904"/>
</g>
<!-- Node27 -->
<g id="node28" class="node">
<title>Node27</title>
<g id="a_node28"><a xlink:href="_data_model_8h.html" target="_top" xlink:title="uscxml/plugins/DataModel.h">
<polygon fill="#ffffff" stroke="#000000" points="956.7447,-308 956.7447,-327 1098.7447,-327 1098.7447,-308 956.7447,-308"/>
<text text-anchor="middle" x="1027.7447" y="-315" font-family="Helvetica,sans-Serif" font-size="10.00" fill="#000000">uscxml/plugins/DataModel.h</text>
</a>
</g>
</g>
<!-- Node14&#45;&gt;Node27 -->
<g id="edge56" class="edge">
<title>Node14&#45;&gt;Node27</title>
<path fill="none" stroke="#191970" d="M1261.7674,-369.4581C1212.9433,-358.6181 1133.2406,-340.9224 1080.6399,-329.2439"/>
<polygon fill="#191970" stroke="#191970" points="1081.3438,-325.815 1070.8229,-327.0643 1079.8265,-332.6486 1081.3438,-325.815"/>
</g>
<!-- Node28 -->
<g id="node29" class="node">
<title>Node28</title>
<g id="a_node29"><a xlink:href="_factory_8h.html" target="_top" xlink:title="uscxml/plugins/Factory.h">
<polygon fill="#ffffff" stroke="#000000" points="616.2447,-241 616.2447,-260 743.2447,-260 743.2447,-241 616.2447,-241"/>
<text text-anchor="middle" x="679.7447" y="-248" font-family="Helvetica,sans-Serif" font-size="10.00" fill="#000000">uscxml/plugins/Factory.h</text>
</a>
</g>
</g>
<!-- Node14&#45;&gt;Node28 -->
<g id="edge62" class="edge">
<title>Node14&#45;&gt;Node28</title>
<path fill="none" stroke="#191970" d="M1252.2409,-375.0543C1182.2059,-369.1514 1054.6246,-356.1594 947.7447,-333 862.7729,-314.5877 765.9262,-281.7135 715.1282,-263.5166"/>
<polygon fill="#191970" stroke="#191970" points="716.1941,-260.1804 705.5997,-260.0816 713.8201,-266.7656 716.1941,-260.1804"/>
</g>
<!-- Node30 -->
<g id="node31" class="node">
<title>Node30</title>
<g id="a_node31"><a xlink:href="_content_executor_8h.html" target="_top" xlink:title="uscxml/interpreter\l/ContentExecutor.h">
<polygon fill="#ffffff" stroke="#000000" points="1696.7447,-235.5 1696.7447,-265.5 1798.7447,-265.5 1798.7447,-235.5 1696.7447,-235.5"/>
<text text-anchor="start" x="1704.7447" y="-253.5" font-family="Helvetica,sans-Serif" font-size="10.00" fill="#000000">uscxml/interpreter</text>
<text text-anchor="middle" x="1747.7447" y="-242.5" font-family="Helvetica,sans-Serif" font-size="10.00" fill="#000000">/ContentExecutor.h</text>
</a>
</g>
</g>
<!-- Node14&#45;&gt;Node30 -->
<g id="edge72" class="edge">
<title>Node14&#45;&gt;Node30</title>
<path fill="none" stroke="#191970" d="M1357.328,-374.9144C1437.7701,-368.1278 1587.2656,-353.2473 1636.7447,-333 1639.1098,-332.0322 1687.4404,-295.8498 1719.5405,-271.7283"/>
<polygon fill="#191970" stroke="#191970" points="1721.8229,-274.3912 1727.7128,-265.5844 1717.6165,-268.796 1721.8229,-274.3912"/>
</g>
<!-- Node31 -->
<g id="node32" class="node">
<title>Node31</title>
<g id="a_node32"><a xlink:href="_event_queue_8h.html" target="_top" xlink:title="uscxml/interpreter\l/EventQueue.h">
<polygon fill="#ffffff" stroke="#000000" points="1688.7447,-302.5 1688.7447,-332.5 1784.7447,-332.5 1784.7447,-302.5 1688.7447,-302.5"/>
<text text-anchor="start" x="1696.7447" y="-320.5" font-family="Helvetica,sans-Serif" font-size="10.00" fill="#000000">uscxml/interpreter</text>
<text text-anchor="middle" x="1736.7447" y="-309.5" font-family="Helvetica,sans-Serif" font-size="10.00" fill="#000000">/EventQueue.h</text>
</a>
</g>
</g>
<!-- Node14&#45;&gt;Node31 -->
<g id="edge76" class="edge">
<title>Node14&#45;&gt;Node31</title>
<path fill="none" stroke="#191970" d="M1357.4419,-374.4771C1429.487,-367.8328 1562.5898,-353.9114 1674.7447,-333 1676.0025,-332.7655 1677.2727,-332.5207 1678.5517,-332.2669"/>
<polygon fill="#191970" stroke="#191970" points="1679.4092,-335.6631 1688.469,-330.1703 1677.9612,-328.8145 1679.4092,-335.6631"/>
</g>
<!-- Node15&#45;&gt;Node2 -->
<g id="edge29" class="edge">
<title>Node15&#45;&gt;Node2</title>
<path fill="none" stroke="#191970" d="M1230.8226,-237.5325C1234.1776,-236.6642 1237.5099,-235.8126 1240.7447,-235 1396.77,-195.8053 1443.9528,-204.1387 1587.7447,-132 1616.1633,-117.7427 1645.989,-96.3342 1664.9403,-81.7958"/>
<polygon fill="#191970" stroke="#191970" points="1667.0957,-84.5535 1672.8383,-75.6499 1662.7968,-79.029 1667.0957,-84.5535"/>
</g>
<!-- Node15&#45;&gt;Node7 -->
<g id="edge27" class="edge">
<title>Node15&#45;&gt;Node7</title>
<path fill="none" stroke="#191970" d="M1138.1541,-235.3816C1057.6905,-208.1003 890.7662,-151.5046 828.165,-130.2797"/>
<polygon fill="#191970" stroke="#191970" points="828.979,-126.86 818.3847,-126.9637 826.7313,-133.4894 828.979,-126.86"/>
</g>
<!-- Node15&#45;&gt;Node8 -->
<g id="edge28" class="edge">
<title>Node15&#45;&gt;Node8</title>
<path fill="none" stroke="#191970" d="M1155.2484,-235.4016C1091.7409,-200.5291 935.5312,-114.7533 873.1253,-80.4858"/>
<polygon fill="#191970" stroke="#191970" points="874.7315,-77.3748 864.2814,-75.6295 871.3622,-83.5107 874.7315,-77.3748"/>
</g>
<!-- Node16 -->
<g id="node17" class="node">
<title>Node16</title>
<polygon fill="#ffffff" stroke="#bfbfbf" points="1256.2447,-56.5 1256.2447,-75.5 1309.2447,-75.5 1309.2447,-56.5 1256.2447,-56.5"/>
<text text-anchor="middle" x="1282.7447" y="-63.5" font-family="Helvetica,sans-Serif" font-size="10.00" fill="#000000">memory</text>
</g>
<!-- Node15&#45;&gt;Node16 -->
<g id="edge26" class="edge">
<title>Node15&#45;&gt;Node16</title>
<path fill="none" stroke="#191970" d="M1169.9319,-235.2779C1153.7113,-216.9046 1124.0823,-186.213 1092.7447,-168 1044.6278,-140.035 944.4757,-154.2118 980.7447,-112 985.0604,-106.9773 1166.5616,-81.7794 1246.0718,-70.9543"/>
<polygon fill="#191970" stroke="#191970" points="1246.7017,-74.401 1256.1393,-69.5863 1245.7591,-67.4647 1246.7017,-74.401"/>
</g>
<!-- Node17 -->
<g id="node18" class="node">
<title>Node17</title>
<g id="a_node18"><a xlink:href="_data_8h.html" target="_top" xlink:title="uscxml/messages/Data.h">
<polygon fill="#ffffff" stroke="#000000" points="1256.7447,-174 1256.7447,-193 1384.7447,-193 1384.7447,-174 1256.7447,-174"/>
<text text-anchor="middle" x="1320.7447" y="-181" font-family="Helvetica,sans-Serif" font-size="10.00" fill="#000000">uscxml/messages/Data.h</text>
</a>
</g>
</g>
<!-- Node15&#45;&gt;Node17 -->
<g id="edge30" class="edge">
<title>Node15&#45;&gt;Node17</title>
<path fill="none" stroke="#191970" d="M1213.7146,-235.4639C1237.0779,-224.1209 1268.9006,-208.6707 1291.7642,-197.5703"/>
<polygon fill="#191970" stroke="#191970" points="1293.4964,-200.62 1300.9635,-193.1039 1290.4391,-194.323 1293.4964,-200.62"/>
</g>
<!-- Node15&#45;&gt;Node23 -->
<g id="edge45" class="edge">
<title>Node15&#45;&gt;Node23</title>
<path fill="none" stroke="#191970" d="M1231.0462,-237.0412C1234.3169,-236.3001 1237.5718,-235.6103 1240.7447,-235 1276.4551,-228.131 1503.3433,-202.342 1612.8123,-190.0694"/>
<polygon fill="#191970" stroke="#191970" points="1613.4809,-193.5165 1623.0291,-188.925 1612.7017,-186.56 1613.4809,-193.5165"/>
</g>
<!-- Node17&#45;&gt;Node2 -->
<g id="edge35" class="edge">
<title>Node17&#45;&gt;Node2</title>
<path fill="none" stroke="#191970" d="M1382.1802,-173.9697C1429.3874,-165.6559 1495.7703,-151.8 1551.7447,-132 1590.9194,-118.1427 1633.4949,-95.5668 1659.6546,-80.7473"/>
<polygon fill="#191970" stroke="#191970" points="1661.5783,-83.6789 1668.513,-75.6689 1658.0967,-77.6061 1661.5783,-83.6789"/>
</g>
<!-- Node17&#45;&gt;Node7 -->
<g id="edge31" class="edge">
<title>Node17&#45;&gt;Node7</title>
<path fill="none" stroke="#191970" d="M1256.572,-175.8663C1141.6159,-162.1916 905.3979,-134.0922 828.5192,-124.9471"/>
<polygon fill="#191970" stroke="#191970" points="828.7095,-121.4451 818.366,-123.7393 827.8825,-128.3961 828.7095,-121.4451"/>
</g>
<!-- Node17&#45;&gt;Node12 -->
<g id="edge32" class="edge">
<title>Node17&#45;&gt;Node12</title>
<path fill="none" stroke="#191970" d="M1256.533,-178.0153C1105.9029,-165.1489 734.6148,-133.4347 629.1171,-124.4235"/>
<polygon fill="#191970" stroke="#191970" points="629.1984,-120.9178 618.9368,-123.5539 628.6026,-127.8924 629.1984,-120.9178"/>
</g>
<!-- Node17&#45;&gt;Node16 -->
<g id="edge33" class="edge">
<title>Node17&#45;&gt;Node16</title>
<path fill="none" stroke="#191970" d="M1344.166,-173.8735C1371.4619,-161.2004 1410.7931,-137.5194 1393.7447,-112 1377.3476,-87.4554 1345.1634,-75.9904 1319.6546,-70.6446"/>
<polygon fill="#191970" stroke="#191970" points="1320.0213,-67.1529 1309.5499,-68.7653 1318.7413,-74.0348 1320.0213,-67.1529"/>
</g>
<!-- Node18 -->
<g id="node19" class="node">
<title>Node18</title>
<polygon fill="#ffffff" stroke="#bfbfbf" points="1479.2447,-112.5 1479.2447,-131.5 1542.2447,-131.5 1542.2447,-112.5 1479.2447,-112.5"/>
<text text-anchor="middle" x="1510.7447" y="-119.5" font-family="Helvetica,sans-Serif" font-size="10.00" fill="#000000">type_traits</text>
</g>
<!-- Node17&#45;&gt;Node18 -->
<g id="edge34" class="edge">
<title>Node17&#45;&gt;Node18</title>
<path fill="none" stroke="#191970" d="M1350.4322,-173.8906C1383.0593,-163.3298 1435.6073,-146.3208 1471.5872,-134.6747"/>
<polygon fill="#191970" stroke="#191970" points="1472.8295,-137.9514 1481.2657,-131.5419 1470.6738,-131.2916 1472.8295,-137.9514"/>
</g>
<!-- Node19 -->
<g id="node20" class="node">
<title>Node19</title>
<g id="a_node20"><a xlink:href="_convenience_8h.html" target="_top" xlink:title="uscxml/util/Convenience.h">
<polygon fill="#ffffff" stroke="#000000" points="1106.2447,-112.5 1106.2447,-131.5 1239.2447,-131.5 1239.2447,-112.5 1106.2447,-112.5"/>
<text text-anchor="middle" x="1172.7447" y="-119.5" font-family="Helvetica,sans-Serif" font-size="10.00" fill="#000000">uscxml/util/Convenience.h</text>
</a>
</g>
</g>
<!-- Node17&#45;&gt;Node19 -->
<g id="edge36" class="edge">
<title>Node17&#45;&gt;Node19</title>
<path fill="none" stroke="#191970" d="M1297.6197,-173.8906C1272.748,-163.5554 1233.015,-147.0447 1205.0604,-135.4284"/>
<polygon fill="#191970" stroke="#191970" points="1206.2849,-132.1472 1195.7074,-131.5419 1203.5987,-138.6113 1206.2849,-132.1472"/>
</g>
<!-- Node22 -->
<g id="node23" class="node">
<title>Node22</title>
<g id="a_node23"><a xlink:href="_blob_8h.html" target="_top" xlink:title="uscxml/messages/Blob.h">
<polygon fill="#ffffff" stroke="#000000" points="1257.2447,-112.5 1257.2447,-131.5 1384.2447,-131.5 1384.2447,-112.5 1257.2447,-112.5"/>
<text text-anchor="middle" x="1320.7447" y="-119.5" font-family="Helvetica,sans-Serif" font-size="10.00" fill="#000000">uscxml/messages/Blob.h</text>
</a>
</g>
</g>
<!-- Node17&#45;&gt;Node22 -->
<g id="edge41" class="edge">
<title>Node17&#45;&gt;Node22</title>
<path fill="none" stroke="#191970" d="M1320.7447,-173.8906C1320.7447,-165.3657 1320.7447,-152.6392 1320.7447,-141.9235"/>
<polygon fill="#191970" stroke="#191970" points="1324.2448,-141.7448 1320.7447,-131.7449 1317.2448,-141.7449 1324.2448,-141.7448"/>
</g>
<!-- Node19&#45;&gt;Node2 -->
<g id="edge37" class="edge">
<title>Node19&#45;&gt;Node2</title>
<path fill="none" stroke="#191970" d="M1239.4607,-113.123C1242.5982,-112.7365 1245.7051,-112.3603 1248.7447,-112 1382.9792,-96.0903 1540.7959,-80.1169 1624.8755,-71.8247"/>
<polygon fill="#191970" stroke="#191970" points="1625.3952,-75.2906 1635.0042,-70.8278 1624.7094,-68.3243 1625.3952,-75.2906"/>
</g>
<!-- Node19&#45;&gt;Node8 -->
<g id="edge38" class="edge">
<title>Node19&#45;&gt;Node8</title>
<path fill="none" stroke="#191970" d="M1117.0738,-112.4369C1048.0259,-100.5759 932.7228,-80.7692 877.7401,-71.3244"/>
<polygon fill="#191970" stroke="#191970" points="878.0276,-67.8226 867.5794,-69.579 876.8425,-74.7215 878.0276,-67.8226"/>
</g>
<!-- Node20 -->
<g id="node21" class="node">
<title>Node20</title>
<polygon fill="#ffffff" stroke="#bfbfbf" points="987.2447,-56.5 987.2447,-75.5 1026.2447,-75.5 1026.2447,-56.5 987.2447,-56.5"/>
<text text-anchor="middle" x="1006.7447" y="-63.5" font-family="Helvetica,sans-Serif" font-size="10.00" fill="#000000">limits</text>
</g>
<!-- Node19&#45;&gt;Node20 -->
<g id="edge39" class="edge">
<title>Node19&#45;&gt;Node20</title>
<path fill="none" stroke="#191970" d="M1144.2083,-112.3733C1114.0594,-102.2026 1066.7454,-86.2412 1036.2389,-75.9498"/>
<polygon fill="#191970" stroke="#191970" points="1037.1808,-72.5738 1026.5866,-72.6936 1034.9432,-79.2066 1037.1808,-72.5738"/>
</g>
<!-- Node21 -->
<g id="node22" class="node">
<title>Node21</title>
<polygon fill="#ffffff" stroke="#bfbfbf" points="1146.7447,-56.5 1146.7447,-75.5 1198.7447,-75.5 1198.7447,-56.5 1146.7447,-56.5"/>
<text text-anchor="middle" x="1172.7447" y="-63.5" font-family="Helvetica,sans-Serif" font-size="10.00" fill="#000000">sstream</text>
</g>
<!-- Node19&#45;&gt;Node21 -->
<g id="edge40" class="edge">
<title>Node19&#45;&gt;Node21</title>
<path fill="none" stroke="#191970" d="M1172.7447,-112.2455C1172.7447,-104.9382 1172.7447,-94.6944 1172.7447,-85.7046"/>
<polygon fill="#191970" stroke="#191970" points="1176.2448,-85.6426 1172.7447,-75.6427 1169.2448,-85.6427 1176.2448,-85.6426"/>
</g>
<!-- Node22&#45;&gt;Node2 -->
<g id="edge44" class="edge">
<title>Node22&#45;&gt;Node2</title>
<path fill="none" stroke="#191970" d="M1382.905,-112.4369C1450.6963,-102.0075 1558.4198,-85.4346 1625.1733,-75.1648"/>
<polygon fill="#191970" stroke="#191970" points="1625.7673,-78.6147 1635.1188,-73.6348 1624.7029,-71.6961 1625.7673,-78.6147"/>
</g>
<!-- Node22&#45;&gt;Node8 -->
<g id="edge42" class="edge">
<title>Node22&#45;&gt;Node8</title>
<path fill="none" stroke="#191970" d="M1257.1525,-113.0832C1254.3119,-112.7115 1251.4991,-112.3488 1248.7447,-112 1110.4425,-94.4854 944.9869,-76.4823 877.5881,-69.2733"/>
<polygon fill="#191970" stroke="#191970" points="877.5801,-65.7527 867.2651,-68.1716 876.8372,-72.7131 877.5801,-65.7527"/>
</g>
<!-- Node22&#45;&gt;Node16 -->
<g id="edge43" class="edge">
<title>Node22&#45;&gt;Node16</title>
<path fill="none" stroke="#191970" d="M1314.1256,-112.2455C1308.8402,-104.4564 1301.2906,-93.3308 1294.921,-83.9439"/>
<polygon fill="#191970" stroke="#191970" points="1297.7992,-81.9522 1289.288,-75.6427 1292.0069,-85.8827 1297.7992,-81.9522"/>
</g>
<!-- Node23&#45;&gt;Node2 -->
<g id="edge46" class="edge">
<title>Node23&#45;&gt;Node2</title>
<path fill="none" stroke="#191970" d="M1701.259,-168.291C1714.717,-159.6371 1729.2866,-147.4245 1736.7447,-132 1746.0763,-112.7009 1727.5597,-93.8104 1710.0917,-81.2188"/>
<polygon fill="#191970" stroke="#191970" points="1711.9732,-78.2661 1701.7273,-75.5693 1708.0552,-84.0669 1711.9732,-78.2661"/>
</g>
<!-- Node24&#45;&gt;Node2 -->
<g id="edge48" class="edge">
<title>Node24&#45;&gt;Node2</title>
<path fill="none" stroke="#191970" d="M1451.5437,-302.4474C1472.2677,-293.6612 1497.1402,-281.2844 1516.7447,-266 1587.2971,-210.9949 1648.8802,-121.9928 1673.419,-84.0579"/>
<polygon fill="#191970" stroke="#191970" points="1676.4099,-85.8773 1678.8425,-75.5655 1670.5103,-82.1096 1676.4099,-85.8773"/>
</g>
<!-- Node24&#45;&gt;Node16 -->
<g id="edge55" class="edge">
<title>Node24&#45;&gt;Node16</title>
<path fill="none" stroke="#191970" d="M1435.2377,-302.3247C1488.9166,-267.2488 1607.8185,-178.4766 1551.7447,-112 1536.9257,-94.4318 1390.0278,-77.0682 1319.7871,-69.6922"/>
<polygon fill="#191970" stroke="#191970" points="1319.9116,-66.1865 1309.604,-68.6366 1319.1898,-73.1492 1319.9116,-66.1865"/>
</g>
<!-- Node24&#45;&gt;Node17 -->
<g id="edge49" class="edge">
<title>Node24&#45;&gt;Node17</title>
<path fill="none" stroke="#191970" d="M1410.385,-302.2551C1409.2988,-284.6847 1405.3759,-255.589 1391.7447,-235 1381.3722,-219.333 1364.5041,-206.8044 1349.8117,-198.0285"/>
<polygon fill="#191970" stroke="#191970" points="1351.4493,-194.9337 1341.0224,-193.0548 1348.0018,-201.0259 1351.4493,-194.9337"/>
</g>
<!-- Node24&#45;&gt;Node25 -->
<g id="edge50" class="edge">
<title>Node24&#45;&gt;Node25</title>
<path fill="none" stroke="#191970" d="M1389.1878,-302.2967C1373.8115,-291.4524 1353.2033,-276.9182 1337.7309,-266.006"/>
<polygon fill="#191970" stroke="#191970" points="1339.4821,-262.9582 1329.2928,-260.055 1335.4477,-268.6787 1339.4821,-262.9582"/>
</g>
<!-- Node25&#45;&gt;Node17 -->
<g id="edge51" class="edge">
<title>Node25&#45;&gt;Node17</title>
<path fill="none" stroke="#191970" d="M1316.4611,-240.9005C1317.1888,-231.149 1318.3373,-215.7597 1319.2619,-203.3695"/>
<polygon fill="#191970" stroke="#191970" points="1322.7757,-203.3144 1320.0297,-193.0817 1315.7951,-202.7934 1322.7757,-203.3144"/>
</g>
<!-- Node26 -->
<g id="node27" class="node">
<title>Node26</title>
<g id="a_node27"><a xlink:href="_u_u_i_d_8h.html" target="_top" xlink:title="uscxml/util/UUID.h">
<polygon fill="#ffffff" stroke="#000000" points="989.2447,-112.5 989.2447,-131.5 1088.2447,-131.5 1088.2447,-112.5 989.2447,-112.5"/>
<text text-anchor="middle" x="1038.7447" y="-119.5" font-family="Helvetica,sans-Serif" font-size="10.00" fill="#000000">uscxml/util/UUID.h</text>
</a>
</g>
</g>
<!-- Node25&#45;&gt;Node26 -->
<g id="edge52" class="edge">
<title>Node25&#45;&gt;Node26</title>
<path fill="none" stroke="#191970" d="M1294.9247,-240.8416C1246.2788,-218.2748 1125.0181,-162.0221 1068.5513,-135.8273"/>
<polygon fill="#191970" stroke="#191970" points="1069.9728,-132.6285 1059.4285,-131.5952 1067.027,-138.9785 1069.9728,-132.6285"/>
</g>
<!-- Node26&#45;&gt;Node2 -->
<g id="edge53" class="edge">
<title>Node26&#45;&gt;Node2</title>
<path fill="none" stroke="#191970" d="M1088.2718,-113.2742C1091.4731,-112.8128 1094.6516,-112.3825 1097.7447,-112 1289.6864,-88.2616 1518.541,-74.4857 1624.9059,-68.9127"/>
<polygon fill="#191970" stroke="#191970" points="1625.313,-72.3964 1635.1183,-68.3832 1624.9504,-65.4058 1625.313,-72.3964"/>
</g>
<!-- Node26&#45;&gt;Node8 -->
<g id="edge54" class="edge">
<title>Node26&#45;&gt;Node8</title>
<path fill="none" stroke="#191970" d="M1005.7388,-112.3733C969.6322,-101.8422 912.2402,-85.1028 877.1829,-74.8778"/>
<polygon fill="#191970" stroke="#191970" points="878.076,-71.4925 867.4959,-72.0524 876.1159,-78.2125 878.076,-71.4925"/>
</g>
<!-- Node27&#45;&gt;Node2 -->
<g id="edge57" class="edge">
<title>Node27&#45;&gt;Node2</title>
<path fill="none" stroke="#191970" d="M1037.7894,-307.8758C1054.9626,-291.6975 1091.4429,-258.5163 1125.7447,-235 1176.7666,-200.021 1190.1146,-190.4842 1247.7447,-168 1310.0063,-143.7088 1328.9561,-148.4011 1393.7447,-132 1428.0213,-123.323 1436.3418,-120.1616 1470.7447,-112 1523.6315,-99.4535 1584.2249,-86.5671 1627.4034,-77.6373"/>
<polygon fill="#191970" stroke="#191970" points="1628.3522,-81.0154 1637.4394,-75.5682 1626.9386,-74.1596 1628.3522,-81.0154"/>
</g>
<!-- Node27&#45;&gt;Node7 -->
<g id="edge59" class="edge">
<title>Node27&#45;&gt;Node7</title>
<path fill="none" stroke="#191970" d="M1010.6214,-307.821C994.3873,-298.2471 969.7273,-282.6493 950.7447,-266 907.1792,-227.7892 907.2112,-207.4287 864.7447,-168 852.9711,-157.0686 838.6829,-146.1836 826.8954,-137.7483"/>
<polygon fill="#191970" stroke="#191970" points="828.6462,-134.7009 818.4519,-131.8151 824.6215,-140.4283 828.6462,-134.7009"/>
</g>
<!-- Node27&#45;&gt;Node8 -->
<g id="edge60" class="edge">
<title>Node27&#45;&gt;Node8</title>
<path fill="none" stroke="#191970" d="M1018.7045,-307.7689C988.7715,-275.4073 893.5,-171.2341 870.7447,-132 862.2497,-117.353 855.9086,-99.1747 851.8845,-85.6067"/>
<polygon fill="#191970" stroke="#191970" points="855.2246,-84.5547 849.157,-75.8694 848.484,-86.4428 855.2246,-84.5547"/>
</g>
<!-- Node27&#45;&gt;Node16 -->
<g id="edge61" class="edge">
<title>Node27&#45;&gt;Node16</title>
<path fill="none" stroke="#191970" d="M1022.7382,-307.7898C1004.2405,-271.2798 942.1691,-142.7526 968.7447,-112 971.0119,-109.3765 1164.0293,-82.4138 1246.2802,-71.0291"/>
<polygon fill="#191970" stroke="#191970" points="1246.776,-74.4939 1256.2023,-69.6569 1245.8171,-67.5599 1246.776,-74.4939"/>
</g>
<!-- Node27&#45;&gt;Node25 -->
<g id="edge58" class="edge">
<title>Node27&#45;&gt;Node25</title>
<path fill="none" stroke="#191970" d="M1068.7023,-307.9717C1120.1636,-295.9998 1208.4951,-275.4504 1264.4143,-262.4415"/>
<polygon fill="#191970" stroke="#191970" points="1265.5154,-265.7788 1274.4622,-260.1039 1263.9292,-258.9609 1265.5154,-265.7788"/>
</g>
<!-- Node28&#45;&gt;Node2 -->
<g id="edge63" class="edge">
<title>Node28&#45;&gt;Node2</title>
<path fill="none" stroke="#191970" d="M729.8198,-240.9682C753.4618,-233.685 779.5514,-220.9863 793.7447,-199 814.9488,-166.1537 753.8113,-140.3388 780.7447,-112 795.3189,-96.6653 1425.344,-74.5704 1624.8332,-67.9472"/>
<polygon fill="#191970" stroke="#191970" points="1625.2431,-71.4357 1635.1219,-67.6067 1625.0115,-64.4395 1625.2431,-71.4357"/>
</g>
<!-- Node28&#45;&gt;Node6 -->
<g id="edge68" class="edge">
<title>Node28&#45;&gt;Node6</title>
<path fill="none" stroke="#191970" d="M639.6405,-240.9717C580.4241,-226.9025 471.3487,-200.9875 422.5167,-189.3855"/>
<polygon fill="#191970" stroke="#191970" points="423.3223,-185.9796 412.784,-187.0732 421.7041,-192.79 423.3223,-185.9796"/>
</g>
<!-- Node28&#45;&gt;Node8 -->
<g id="edge70" class="edge">
<title>Node28&#45;&gt;Node8</title>
<path fill="none" stroke="#191970" d="M662.3135,-240.8466C623.0812,-217.9363 534.2514,-158.7046 573.7447,-112 589.2842,-93.6231 747.6101,-75.8448 815.7889,-68.9768"/>
<polygon fill="#191970" stroke="#191970" points="816.3167,-72.4417 825.9215,-67.9698 815.6244,-65.476 816.3167,-72.4417"/>
</g>
<!-- Node28&#45;&gt;Node12 -->
<g id="edge69" class="edge">
<title>Node28&#45;&gt;Node12</title>
<path fill="none" stroke="#191970" d="M673.8069,-240.8416C660.7105,-219.5393 629.1603,-168.2203 612.1198,-140.5025"/>
<polygon fill="#191970" stroke="#191970" points="614.9704,-138.4563 606.7515,-131.7705 609.0072,-142.1224 614.9704,-138.4563"/>
</g>
<!-- Node28&#45;&gt;Node16 -->
<g id="edge67" class="edge">
<title>Node28&#45;&gt;Node16</title>
<path fill="none" stroke="#191970" d="M683.0703,-240.6389C693.0474,-211.6745 723.4722,-127.8902 746.7447,-112 831.6065,-54.0574 1105.5569,-86.7944 1207.7447,-76 1220.1723,-74.6872 1233.7206,-72.9692 1245.8404,-71.3284"/>
<polygon fill="#191970" stroke="#191970" points="1246.6317,-74.7525 1256.0594,-69.9185 1245.6749,-67.8181 1246.6317,-74.7525"/>
</g>
<!-- Node28&#45;&gt;Node20 -->
<g id="edge71" class="edge">
<title>Node28&#45;&gt;Node20</title>
<path fill="none" stroke="#191970" d="M678.3338,-240.9173C675.1847,-215.4322 670.6082,-145.6395 708.7447,-112 728.7225,-94.3781 905.3312,-75.6973 976.8598,-68.7824"/>
<polygon fill="#191970" stroke="#191970" points="977.3878,-72.2479 987.0093,-67.8122 976.7216,-65.2797 977.3878,-72.2479"/>
</g>
<!-- Node29 -->
<g id="node30" class="node">
<title>Node29</title>
<g id="a_node30"><a xlink:href="_string_8h.html" target="_top" xlink:title="string.h">
<polygon fill="#ffffff" stroke="#000000" points="735.2447,-174 735.2447,-193 784.2447,-193 784.2447,-174 735.2447,-174"/>
<text text-anchor="middle" x="759.7447" y="-181" font-family="Helvetica,sans-Serif" font-size="10.00" fill="#000000">string.h</text>
</a>
</g>
</g>
<!-- Node28&#45;&gt;Node29 -->
<g id="edge64" class="edge">
<title>Node28&#45;&gt;Node29</title>
<path fill="none" stroke="#191970" d="M691.2068,-240.9005C704.0385,-230.1539 725.0458,-212.5603 740.426,-199.6794"/>
<polygon fill="#191970" stroke="#191970" points="742.8847,-202.1856 748.304,-193.0817 738.3902,-196.8191 742.8847,-202.1856"/>
</g>
<!-- Node29&#45;&gt;Node7 -->
<g id="edge66" class="edge">
<title>Node29&#45;&gt;Node7</title>
<path fill="none" stroke="#191970" d="M766.6197,-173.8906C773.1041,-164.8273 782.9861,-151.0149 790.9248,-139.9188"/>
<polygon fill="#191970" stroke="#191970" points="793.8006,-141.9143 796.7728,-131.7449 788.1076,-137.8412 793.8006,-141.9143"/>
</g>
<!-- Node29&#45;&gt;Node8 -->
<g id="edge65" class="edge">
<title>Node29&#45;&gt;Node8</title>
<path fill="none" stroke="#191970" d="M754.0087,-173.8774C746.1536,-159.316 734.3568,-131.3342 746.7447,-112 761.9219,-88.3126 792.7127,-76.6566 816.1407,-71.0278"/>
<polygon fill="#191970" stroke="#191970" points="816.9458,-74.4347 825.9834,-68.9054 815.4702,-67.592 816.9458,-74.4347"/>
</g>
<!-- Node30&#45;&gt;Node2 -->
<g id="edge73" class="edge">
<title>Node30&#45;&gt;Node2</title>
<path fill="none" stroke="#191970" d="M1753.3634,-235.4257C1756.8344,-225.2891 1760.956,-211.538 1762.7447,-199 1768.2494,-160.4162 1773.1542,-144.5676 1751.7447,-112 1742.9283,-98.5887 1728.7187,-88.0137 1715.6493,-80.4023"/>
<polygon fill="#191970" stroke="#191970" points="1717.3184,-77.3259 1706.8638,-75.6078 1713.9652,-83.4705 1717.3184,-77.3259"/>
</g>
<!-- Node30&#45;&gt;Node8 -->
<g id="edge75" class="edge">
<title>Node30&#45;&gt;Node8</title>
<path fill="none" stroke="#191970" d="M1748.7023,-235.3746C1749.0058,-217.0988 1746.6555,-186.5054 1729.7447,-168 1673.7987,-106.7786 1633.2821,-127.1554 1551.7447,-112 1300.8727,-65.3701 1233.3032,-93.6382 978.7447,-76 944.085,-73.5984 904.33,-70.5461 877.5835,-68.449"/>
<polygon fill="#191970" stroke="#191970" points="877.5603,-64.9365 867.3165,-67.6409 877.0109,-71.9149 877.5603,-64.9365"/>
</g>
<!-- Node30&#45;&gt;Node17 -->
<g id="edge74" class="edge">
<title>Node30&#45;&gt;Node17</title>
<path fill="none" stroke="#191970" d="M1696.6627,-242.4848C1620.6448,-230.5569 1477.4915,-208.0949 1391.4564,-194.5953"/>
<polygon fill="#191970" stroke="#191970" points="1391.935,-191.1276 1381.5133,-193.0351 1390.8499,-198.043 1391.935,-191.1276"/>
</g>
<!-- Node31&#45;&gt;Node2 -->
<g id="edge77" class="edge">
<title>Node31&#45;&gt;Node2</title>
<path fill="none" stroke="#191970" d="M1769.6504,-302.4761C1784.1242,-293.9924 1799.6501,-281.8713 1807.7447,-266 1814.0045,-253.7263 1809.7505,-248.631 1807.7447,-235 1799.434,-178.5217 1806.9024,-156.1757 1770.7447,-112 1758.8212,-97.4324 1741.0336,-86.8419 1724.7244,-79.5216"/>
<polygon fill="#191970" stroke="#191970" points="1725.9234,-76.2291 1715.3482,-75.5842 1723.213,-82.6831 1725.9234,-76.2291"/>
</g>
<!-- Node31&#45;&gt;Node25 -->
<g id="edge78" class="edge">
<title>Node31&#45;&gt;Node25</title>
<path fill="none" stroke="#191970" d="M1688.4507,-309.8142C1614.0738,-297.9775 1471.1441,-275.231 1385.5235,-261.6049"/>
<polygon fill="#191970" stroke="#191970" points="1386.0565,-258.1458 1375.6306,-260.0305 1384.9562,-265.0588 1386.0565,-258.1458"/>
</g>
</g>
</svg>
