<?xml version="1.0" encoding="UTF-8" standalone="no"?>
<!DOCTYPE svg PUBLIC "-//W3C//DTD SVG 1.1//EN"
 "http://www.w3.org/Graphics/SVG/1.1/DTD/svg11.dtd">
<!-- Generated by graphviz version 2.40.1 (20161225.0304)
 -->
<!-- Title: interpreter/FastMicroStep.cpp Pages: 1 -->
<svg width="2219pt" height="576pt"
 viewBox="0.00 0.00 2218.70 576.00" xmlns="http://www.w3.org/2000/svg" xmlns:xlink="http://www.w3.org/1999/xlink">
<g id="graph0" class="graph" transform="scale(1 1) rotate(0) translate(4 572)">
<title>interpreter/FastMicroStep.cpp</title>
<polygon fill="#ffffff" stroke="transparent" points="-4,4 -4,-572 2214.7049,-572 2214.7049,4 -4,4"/>
<!-- Node0 -->
<g id="node1" class="node">
<title>Node0</title>
<polygon fill="#bfbfbf" stroke="#000000" points="1683.7049,-548.5 1683.7049,-567.5 1831.7049,-567.5 1831.7049,-548.5 1683.7049,-548.5"/>
<text text-anchor="middle" x="1757.7049" y="-555.5" font-family="Helvetica,sans-Serif" font-size="10.00" fill="#000000">interpreter/FastMicroStep.cpp</text>
</g>
<!-- Node1 -->
<g id="node2" class="node">
<title>Node1</title>
<g id="a_node2"><a xlink:href="_fast_micro_step_8h.html" target="_top" xlink:title="FastMicroStep.h">
<polygon fill="#ffffff" stroke="#000000" points="1386.2049,-492.5 1386.2049,-511.5 1475.2049,-511.5 1475.2049,-492.5 1386.2049,-492.5"/>
<text text-anchor="middle" x="1430.7049" y="-499.5" font-family="Helvetica,sans-Serif" font-size="10.00" fill="#000000">FastMicroStep.h</text>
</a>
</g>
</g>
<!-- Node0&#45;&gt;Node1 -->
<g id="edge1" class="edge">
<title>Node0&#45;&gt;Node1</title>
<path fill="none" stroke="#191970" d="M1701.8631,-548.4369C1641.3379,-538.0717 1545.38,-521.6386 1485.3334,-511.3553"/>
<polygon fill="#191970" stroke="#191970" points="1485.7337,-507.873 1475.2864,-509.6348 1484.5521,-514.7726 1485.7337,-507.873"/>
</g>
<!-- Node6 -->
<g id="node7" class="node">
<title>Node6</title>
<g id="a_node7"><a xlink:href="_d_o_m_8h.html" target="_top" xlink:title="uscxml/util/DOM.h">
<polygon fill="#ffffff" stroke="#000000" points="1709.7049,-241 1709.7049,-260 1807.7049,-260 1807.7049,-241 1709.7049,-241"/>
<text text-anchor="middle" x="1758.7049" y="-248" font-family="Helvetica,sans-Serif" font-size="10.00" fill="#000000">uscxml/util/DOM.h</text>
</a>
</g>
</g>
<!-- Node0&#45;&gt;Node6 -->
<g id="edge83" class="edge">
<title>Node0&#45;&gt;Node6</title>
<path fill="none" stroke="#191970" d="M1763.3119,-548.4834C1773.8822,-529.6141 1795.7049,-485.8343 1795.7049,-446 1795.7049,-446 1795.7049,-446 1795.7049,-384.5 1795.7049,-342.0762 1778.26,-294.734 1767.3272,-269.2299"/>
<polygon fill="#191970" stroke="#191970" points="1770.4904,-267.7289 1763.2418,-260.0018 1764.0896,-270.5627 1770.4904,-267.7289"/>
</g>
<!-- Node20 -->
<g id="node21" class="node">
<title>Node20</title>
<g id="a_node21"><a xlink:href="_convenience_8h.html" target="_top" xlink:title="uscxml/util/Convenience.h">
<polygon fill="#ffffff" stroke="#000000" points="1753.2049,-112.5 1753.2049,-131.5 1886.2049,-131.5 1886.2049,-112.5 1753.2049,-112.5"/>
<text text-anchor="middle" x="1819.7049" y="-119.5" font-family="Helvetica,sans-Serif" font-size="10.00" fill="#000000">uscxml/util/Convenience.h</text>
</a>
</g>
</g>
<!-- Node0&#45;&gt;Node20 -->
<g id="edge96" class="edge">
<title>Node0&#45;&gt;Node20</title>
<path fill="none" stroke="#191970" d="M1831.8986,-553.1836C1951.2673,-543.3749 2172.7049,-515.7756 2172.7049,-446 2172.7049,-446 2172.7049,-446 2172.7049,-250.5 2172.7049,-209.7508 2165.568,-192.0937 2132.7049,-168 2113.9308,-154.2357 1982.747,-138.5276 1896.2753,-129.4871"/>
<polygon fill="#191970" stroke="#191970" points="1896.5317,-125.995 1886.2241,-128.4451 1895.8099,-132.9576 1896.5317,-125.995"/>
</g>
<!-- Node25 -->
<g id="node26" class="node">
<title>Node25</title>
<g id="a_node26"><a xlink:href="_logging_8h.html" target="_top" xlink:title="uscxml/interpreter\l/Logging.h">
<polygon fill="#ffffff" stroke="#000000" points="550.7049,-302.5 550.7049,-332.5 646.7049,-332.5 646.7049,-302.5 550.7049,-302.5"/>
<text text-anchor="start" x="558.7049" y="-320.5" font-family="Helvetica,sans-Serif" font-size="10.00" fill="#000000">uscxml/interpreter</text>
<text text-anchor="middle" x="598.7049" y="-309.5" font-family="Helvetica,sans-Serif" font-size="10.00" fill="#000000">/Logging.h</text>
</a>
</g>
</g>
<!-- Node0&#45;&gt;Node25 -->
<g id="edge105" class="edge">
<title>Node0&#45;&gt;Node25</title>
<path fill="none" stroke="#191970" d="M1683.5675,-551.6546C1606.5074,-544.4508 1482.587,-531.1574 1376.7049,-512 1103.9833,-462.6562 784.9757,-372.4465 656.5671,-334.7608"/>
<polygon fill="#191970" stroke="#191970" points="657.5047,-331.3884 646.9235,-331.924 655.5293,-338.1039 657.5047,-331.3884"/>
</g>
<!-- Node30 -->
<g id="node31" class="node">
<title>Node30</title>
<g id="a_node31"><a xlink:href="_string_8h.html" target="_top" xlink:title="string.h">
<polygon fill="#ffffff" stroke="#000000" points="1452.2049,-174 1452.2049,-193 1501.2049,-193 1501.2049,-174 1452.2049,-174"/>
<text text-anchor="middle" x="1476.7049" y="-181" font-family="Helvetica,sans-Serif" font-size="10.00" fill="#000000">string.h</text>
</a>
</g>
</g>
<!-- Node0&#45;&gt;Node30 -->
<g id="edge84" class="edge">
<title>Node0&#45;&gt;Node30</title>
<path fill="none" stroke="#191970" d="M1750.4764,-548.3663C1712.8997,-498.2863 1539.7017,-267.4585 1490.0454,-201.2795"/>
<polygon fill="#191970" stroke="#191970" points="1492.6869,-198.9681 1483.8856,-193.07 1487.0878,-203.1693 1492.6869,-198.9681"/>
</g>
<!-- Node34 -->
<g id="node35" class="node">
<title>Node34</title>
<g id="a_node35"><a xlink:href="_base64_8hpp_source.html" target="_top" xlink:title="uscxml/util/Base64.hpp">
<polygon fill="#ffffff" stroke="#000000" points="1943.2049,-112.5 1943.2049,-131.5 2062.2049,-131.5 2062.2049,-112.5 1943.2049,-112.5"/>
<text text-anchor="middle" x="2002.7049" y="-119.5" font-family="Helvetica,sans-Serif" font-size="10.00" fill="#000000">uscxml/util/Base64.hpp</text>
</a>
</g>
</g>
<!-- Node0&#45;&gt;Node34 -->
<g id="edge85" class="edge">
<title>Node0&#45;&gt;Node34</title>
<path fill="none" stroke="#191970" d="M1831.7482,-554.8961C1960.1874,-547.4747 2210.7049,-523.1151 2210.7049,-446 2210.7049,-446 2210.7049,-446 2210.7049,-250.5 2210.7049,-207.8536 2195.4414,-194.0876 2161.7049,-168 2136.0731,-148.1796 2102.1754,-136.8952 2072.2655,-130.4724"/>
<polygon fill="#191970" stroke="#191970" points="2072.7854,-127.0071 2062.2928,-128.4754 2071.4108,-133.8709 2072.7854,-127.0071"/>
</g>
<!-- Node37 -->
<g id="node38" class="node">
<title>Node37</title>
<g id="a_node38"><a xlink:href="_predicates_8h.html" target="_top" xlink:title="uscxml/util/Predicates.h">
<polygon fill="#ffffff" stroke="#000000" points="1965.7049,-308 1965.7049,-327 2087.7049,-327 2087.7049,-308 1965.7049,-308"/>
<text text-anchor="middle" x="2026.7049" y="-315" font-family="Helvetica,sans-Serif" font-size="10.00" fill="#000000">uscxml/util/Predicates.h</text>
</a>
</g>
</g>
<!-- Node0&#45;&gt;Node37 -->
<g id="edge90" class="edge">
<title>Node0&#45;&gt;Node37</title>
<path fill="none" stroke="#191970" d="M1768.8815,-548.1505C1779.4245,-538.8505 1795.6623,-524.5042 1809.7049,-512 1883.4714,-446.3148 1970.9338,-367.6938 2008.2987,-334.0708"/>
<polygon fill="#191970" stroke="#191970" points="2010.7977,-336.5306 2015.8892,-327.2393 2006.1149,-331.3275 2010.7977,-336.5306"/>
</g>
<!-- Node38 -->
<g id="node39" class="node">
<title>Node38</title>
<g id="a_node39"><a xlink:href="_interpreter_monitor_8h.html" target="_top" xlink:title="uscxml/interpreter\l/InterpreterMonitor.h">
<polygon fill="#ffffff" stroke="#000000" points="46.2049,-369.5 46.2049,-399.5 153.2049,-399.5 153.2049,-369.5 46.2049,-369.5"/>
<text text-anchor="start" x="54.2049" y="-387.5" font-family="Helvetica,sans-Serif" font-size="10.00" fill="#000000">uscxml/interpreter</text>
<text text-anchor="middle" x="99.7049" y="-376.5" font-family="Helvetica,sans-Serif" font-size="10.00" fill="#000000">/InterpreterMonitor.h</text>
</a>
</g>
</g>
<!-- Node0&#45;&gt;Node38 -->
<g id="edge97" class="edge">
<title>Node0&#45;&gt;Node38</title>
<path fill="none" stroke="#191970" d="M1683.5246,-556.8619C1374.0384,-551.9882 200.3003,-532.204 167.7049,-512 131.0829,-489.3002 112.993,-439.6706 105.0527,-409.4627"/>
<polygon fill="#191970" stroke="#191970" points="108.4314,-408.5446 102.6536,-399.6638 101.6322,-410.2093 108.4314,-408.5446"/>
</g>
<!-- Node2 -->
<g id="node3" class="node">
<title>Node2</title>
<polygon fill="#ffffff" stroke="#bfbfbf" points="1262.2049,-436.5 1262.2049,-455.5 1347.2049,-455.5 1347.2049,-436.5 1262.2049,-436.5"/>
<text text-anchor="middle" x="1304.7049" y="-443.5" font-family="Helvetica,sans-Serif" font-size="10.00" fill="#000000">uscxml/config.h</text>
</g>
<!-- Node1&#45;&gt;Node2 -->
<g id="edge2" class="edge">
<title>Node1&#45;&gt;Node2</title>
<path fill="none" stroke="#191970" d="M1409.0447,-492.3733C1388.7277,-483.3435 1358.1409,-469.7494 1335.3299,-459.6111"/>
<polygon fill="#191970" stroke="#191970" points="1336.642,-456.3642 1326.0824,-455.5011 1333.799,-462.7609 1336.642,-456.3642"/>
</g>
<!-- Node3 -->
<g id="node4" class="node">
<title>Node3</title>
<g id="a_node4"><a xlink:href="_common_8h.html" target="_top" xlink:title="uscxml/Common.h">
<polygon fill="#ffffff" stroke="#000000" points="417.2049,-56.5 417.2049,-75.5 516.2049,-75.5 516.2049,-56.5 417.2049,-56.5"/>
<text text-anchor="middle" x="466.7049" y="-63.5" font-family="Helvetica,sans-Serif" font-size="10.00" fill="#000000">uscxml/Common.h</text>
</a>
</g>
</g>
<!-- Node1&#45;&gt;Node3 -->
<g id="edge3" class="edge">
<title>Node1&#45;&gt;Node3</title>
<path fill="none" stroke="#191970" d="M1385.8537,-501.8427C1158.5971,-500.6376 140.9575,-490.2067 36.7049,-400 -14.7507,-355.477 3.7049,-318.5439 3.7049,-250.5 3.7049,-250.5 3.7049,-250.5 3.7049,-183.5 3.7049,-101.2243 281.8556,-75.901 406.9759,-68.6719"/>
<polygon fill="#191970" stroke="#191970" points="407.3662,-72.1557 417.1558,-68.1042 406.9764,-65.1665 407.3662,-72.1557"/>
</g>
<!-- Node1&#45;&gt;Node6 -->
<g id="edge6" class="edge">
<title>Node1&#45;&gt;Node6</title>
<path fill="none" stroke="#191970" d="M1475.2424,-499.8047C1542.0119,-495.6209 1663.6566,-484.2561 1695.7049,-456 1750.9683,-407.2756 1758.4621,-311.4739 1758.9987,-270.1925"/>
<polygon fill="#191970" stroke="#191970" points="1762.4986,-270.0795 1758.9994,-260.0792 1755.4986,-270.0789 1762.4986,-270.0795"/>
</g>
<!-- Node7 -->
<g id="node8" class="node">
<title>Node7</title>
<polygon fill="#ffffff" stroke="#bfbfbf" points="1633.7049,-174 1633.7049,-193 1663.7049,-193 1663.7049,-174 1633.7049,-174"/>
<text text-anchor="middle" x="1648.7049" y="-181" font-family="Helvetica,sans-Serif" font-size="10.00" fill="#000000">set</text>
</g>
<!-- Node1&#45;&gt;Node7 -->
<g id="edge15" class="edge">
<title>Node1&#45;&gt;Node7</title>
<path fill="none" stroke="#191970" d="M1469.3736,-492.4462C1539.7811,-473.9128 1681.7049,-430.8105 1681.7049,-384.5 1681.7049,-384.5 1681.7049,-384.5 1681.7049,-317.5 1681.7049,-275.5718 1666.284,-228.3491 1656.5254,-202.6635"/>
<polygon fill="#191970" stroke="#191970" points="1659.6643,-201.081 1652.7513,-193.0522 1653.1486,-203.6396 1659.6643,-201.081"/>
</g>
<!-- Node12 -->
<g id="node13" class="node">
<title>Node12</title>
<polygon fill="#ffffff" stroke="#bfbfbf" points="1495.7049,-308 1495.7049,-327 1539.7049,-327 1539.7049,-308 1495.7049,-308"/>
<text text-anchor="middle" x="1517.7049" y="-315" font-family="Helvetica,sans-Serif" font-size="10.00" fill="#000000">vector</text>
</g>
<!-- Node1&#45;&gt;Node12 -->
<g id="edge13" class="edge">
<title>Node1&#45;&gt;Node12</title>
<path fill="none" stroke="#191970" d="M1457.8381,-492.3604C1474.2639,-485.0327 1494.0389,-473.2373 1504.7049,-456 1527.5909,-419.0139 1524.7104,-365.523 1520.9901,-337.0536"/>
<polygon fill="#191970" stroke="#191970" points="1524.4488,-336.516 1519.5225,-327.1361 1517.5242,-337.5408 1524.4488,-336.516"/>
</g>
<!-- Node13 -->
<g id="node14" class="node">
<title>Node13</title>
<polygon fill="#ffffff" stroke="#bfbfbf" points="654.7049,-112.5 654.7049,-131.5 690.7049,-131.5 690.7049,-112.5 654.7049,-112.5"/>
<text text-anchor="middle" x="672.7049" y="-119.5" font-family="Helvetica,sans-Serif" font-size="10.00" fill="#000000">map</text>
</g>
<!-- Node1&#45;&gt;Node13 -->
<g id="edge14" class="edge">
<title>Node1&#45;&gt;Node13</title>
<path fill="none" stroke="#191970" d="M1386.1514,-496.8838C1213.6283,-476.6315 596.3692,-399.9182 541.7049,-333 496.4157,-277.5585 585.6425,-303.564 649.7049,-199 660.6012,-181.2147 666.6149,-157.9422 669.7326,-141.6568"/>
<polygon fill="#191970" stroke="#191970" points="673.2076,-142.1004 671.4527,-131.6519 666.3088,-140.9142 673.2076,-142.1004"/>
</g>
<!-- Node14 -->
<g id="node15" class="node">
<title>Node14</title>
<g id="a_node15"><a xlink:href="_micro_step_impl_8h.html" target="_top" xlink:title="MicroStepImpl.h">
<polygon fill="#ffffff" stroke="#000000" points="1155.2049,-436.5 1155.2049,-455.5 1244.2049,-455.5 1244.2049,-436.5 1155.2049,-436.5"/>
<text text-anchor="middle" x="1199.7049" y="-443.5" font-family="Helvetica,sans-Serif" font-size="10.00" fill="#000000">MicroStepImpl.h</text>
</a>
</g>
</g>
<!-- Node1&#45;&gt;Node14 -->
<g id="edge16" class="edge">
<title>Node1&#45;&gt;Node14</title>
<path fill="none" stroke="#191970" d="M1391.257,-492.4369C1351.8893,-482.8932 1291.3014,-468.2052 1248.834,-457.9101"/>
<polygon fill="#191970" stroke="#191970" points="1249.5331,-454.4783 1238.99,-455.5237 1247.8839,-461.2812 1249.5331,-454.4783"/>
</g>
<!-- Node33 -->
<g id="node34" class="node">
<title>Node33</title>
<polygon fill="#ffffff" stroke="#bfbfbf" points="1365.7049,-436.5 1365.7049,-455.5 1495.7049,-455.5 1495.7049,-436.5 1365.7049,-436.5"/>
<text text-anchor="middle" x="1430.7049" y="-443.5" font-family="Helvetica,sans-Serif" font-size="10.00" fill="#000000">boost/dynamic_bitset.hpp</text>
</g>
<!-- Node1&#45;&gt;Node33 -->
<g id="edge82" class="edge">
<title>Node1&#45;&gt;Node33</title>
<path fill="none" stroke="#191970" d="M1430.7049,-492.2455C1430.7049,-484.9382 1430.7049,-474.6944 1430.7049,-465.7046"/>
<polygon fill="#191970" stroke="#191970" points="1434.205,-465.6426 1430.7049,-455.6427 1427.205,-465.6427 1434.205,-465.6426"/>
</g>
<!-- Node4 -->
<g id="node5" class="node">
<title>Node4</title>
<polygon fill="#ffffff" stroke="#bfbfbf" points="392.7049,-.5 392.7049,-19.5 464.7049,-19.5 464.7049,-.5 392.7049,-.5"/>
<text text-anchor="middle" x="428.7049" y="-7.5" font-family="Helvetica,sans-Serif" font-size="10.00" fill="#000000">sys/socket.h</text>
</g>
<!-- Node3&#45;&gt;Node4 -->
<g id="edge4" class="edge">
<title>Node3&#45;&gt;Node4</title>
<path fill="none" stroke="#191970" d="M460.0858,-56.2455C454.8003,-48.4564 447.2508,-37.3308 440.8811,-27.9439"/>
<polygon fill="#191970" stroke="#191970" points="443.7593,-25.9522 435.2481,-19.6427 437.967,-29.8827 443.7593,-25.9522"/>
</g>
<!-- Node5 -->
<g id="node6" class="node">
<title>Node5</title>
<polygon fill="#ffffff" stroke="#bfbfbf" points="482.7049,-.5 482.7049,-19.5 526.7049,-19.5 526.7049,-.5 482.7049,-.5"/>
<text text-anchor="middle" x="504.7049" y="-7.5" font-family="Helvetica,sans-Serif" font-size="10.00" fill="#000000">cmath</text>
</g>
<!-- Node3&#45;&gt;Node5 -->
<g id="edge5" class="edge">
<title>Node3&#45;&gt;Node5</title>
<path fill="none" stroke="#191970" d="M473.324,-56.2455C478.6094,-48.4564 486.159,-37.3308 492.5286,-27.9439"/>
<polygon fill="#191970" stroke="#191970" points="495.4427,-29.8827 498.1616,-19.6427 489.6504,-25.9522 495.4427,-29.8827"/>
</g>
<!-- Node6&#45;&gt;Node3 -->
<g id="edge10" class="edge">
<title>Node6&#45;&gt;Node3</title>
<path fill="none" stroke="#191970" d="M1709.5794,-244.918C1585.2907,-230.4032 1248.5337,-188.6312 971.7049,-132 937.0645,-124.9136 929.4876,-118.3508 894.7049,-112 764.4949,-88.2257 609.5926,-75.3297 526.4898,-69.6395"/>
<polygon fill="#191970" stroke="#191970" points="526.6858,-66.1448 516.4731,-68.9648 526.2153,-73.129 526.6858,-66.1448"/>
</g>
<!-- Node6&#45;&gt;Node7 -->
<g id="edge7" class="edge">
<title>Node6&#45;&gt;Node7</title>
<path fill="none" stroke="#191970" d="M1742.9446,-240.9005C1724.5221,-229.6796 1693.8441,-210.9939 1672.5147,-198.0023"/>
<polygon fill="#191970" stroke="#191970" points="1674.0909,-194.8643 1663.7298,-192.6515 1670.4496,-200.8427 1674.0909,-194.8643"/>
</g>
<!-- Node8 -->
<g id="node9" class="node">
<title>Node8</title>
<polygon fill="#ffffff" stroke="#bfbfbf" points="1434.2049,-112.5 1434.2049,-131.5 1463.2049,-131.5 1463.2049,-112.5 1434.2049,-112.5"/>
<text text-anchor="middle" x="1448.7049" y="-119.5" font-family="Helvetica,sans-Serif" font-size="10.00" fill="#000000">list</text>
</g>
<!-- Node6&#45;&gt;Node8 -->
<g id="edge8" class="edge">
<title>Node6&#45;&gt;Node8</title>
<path fill="none" stroke="#191970" d="M1751.654,-240.7986C1738.3437,-223.2546 1707.691,-186.3739 1672.7049,-168 1638.0766,-149.814 1524.0503,-132.3716 1473.3653,-125.302"/>
<polygon fill="#191970" stroke="#191970" points="1473.6712,-121.8112 1463.2878,-123.9171 1472.7181,-128.746 1473.6712,-121.8112"/>
</g>
<!-- Node9 -->
<g id="node10" class="node">
<title>Node9</title>
<polygon fill="#ffffff" stroke="#bfbfbf" points="1509.2049,-56.5 1509.2049,-75.5 1550.2049,-75.5 1550.2049,-56.5 1509.2049,-56.5"/>
<text text-anchor="middle" x="1529.7049" y="-63.5" font-family="Helvetica,sans-Serif" font-size="10.00" fill="#000000">string</text>
</g>
<!-- Node6&#45;&gt;Node9 -->
<g id="edge9" class="edge">
<title>Node6&#45;&gt;Node9</title>
<path fill="none" stroke="#191970" d="M1754.5285,-240.8986C1747.0236,-224.462 1729.9431,-190.5303 1707.7049,-168 1664.4107,-124.1373 1598.3199,-92.9691 1560.0302,-77.3742"/>
<polygon fill="#191970" stroke="#191970" points="1561.0529,-74.0142 1550.4675,-73.5685 1558.4646,-80.5181 1561.0529,-74.0142"/>
</g>
<!-- Node10 -->
<g id="node11" class="node">
<title>Node10</title>
<polygon fill="#ffffff" stroke="#bfbfbf" points="1758.2049,-174 1758.2049,-193 1893.2049,-193 1893.2049,-174 1758.2049,-174"/>
<text text-anchor="middle" x="1825.7049" y="-181" font-family="Helvetica,sans-Serif" font-size="10.00" fill="#000000">xercesc/util/XMLString.hpp</text>
</g>
<!-- Node6&#45;&gt;Node10 -->
<g id="edge11" class="edge">
<title>Node6&#45;&gt;Node10</title>
<path fill="none" stroke="#191970" d="M1768.3043,-240.9005C1778.8519,-230.353 1795.9953,-213.2096 1808.805,-200.3998"/>
<polygon fill="#191970" stroke="#191970" points="1811.527,-202.6276 1816.1232,-193.0817 1806.5772,-197.6779 1811.527,-202.6276"/>
</g>
<!-- Node11 -->
<g id="node12" class="node">
<title>Node11</title>
<polygon fill="#ffffff" stroke="#bfbfbf" points="1911.2049,-174 1911.2049,-193 2030.2049,-193 2030.2049,-174 1911.2049,-174"/>
<text text-anchor="middle" x="1970.7049" y="-181" font-family="Helvetica,sans-Serif" font-size="10.00" fill="#000000">xercesc/dom/DOM.hpp</text>
</g>
<!-- Node6&#45;&gt;Node11 -->
<g id="edge12" class="edge">
<title>Node6&#45;&gt;Node11</title>
<path fill="none" stroke="#191970" d="M1789.0793,-240.9005C1826.3107,-229.134 1889.5148,-209.1591 1930.6805,-196.1492"/>
<polygon fill="#191970" stroke="#191970" points="1931.9064,-199.4325 1940.3868,-193.0817 1929.7969,-192.7579 1931.9064,-199.4325"/>
</g>
<!-- Node14&#45;&gt;Node3 -->
<g id="edge20" class="edge">
<title>Node14&#45;&gt;Node3</title>
<path fill="none" stroke="#191970" d="M1154.9197,-442.5568C953.5452,-426.4892 141.7049,-355.2192 141.7049,-250.5 141.7049,-250.5 141.7049,-250.5 141.7049,-183.5 141.7049,-134.4734 181.493,-133.1876 225.7049,-112 257.0238,-96.991 346.2274,-82.4387 406.8658,-73.8511"/>
<polygon fill="#191970" stroke="#191970" points="407.6675,-77.2731 417.0862,-72.4216 406.6978,-70.3406 407.6675,-77.2731"/>
</g>
<!-- Node14&#45;&gt;Node7 -->
<g id="edge18" class="edge">
<title>Node14&#45;&gt;Node7</title>
<path fill="none" stroke="#191970" d="M1244.483,-437.2988C1247.2615,-436.8372 1250.019,-436.3997 1252.7049,-436 1325.4512,-425.1737 1524.9738,-446.8062 1581.7049,-400 1642.1604,-350.1209 1649.0991,-246.7808 1649.202,-203.3785"/>
<polygon fill="#191970" stroke="#191970" points="1652.7007,-203.2237 1649.0991,-193.2598 1645.7011,-203.2949 1652.7007,-203.2237"/>
</g>
<!-- Node14&#45;&gt;Node8 -->
<g id="edge17" class="edge">
<title>Node14&#45;&gt;Node8</title>
<path fill="none" stroke="#191970" d="M1207.3842,-436.3728C1222.8747,-416.9263 1258.927,-371.5301 1288.7049,-333 1343.6477,-261.9086 1407.9523,-176.3881 1435.3027,-139.9032"/>
<polygon fill="#191970" stroke="#191970" points="1438.2368,-141.8242 1441.4318,-131.7226 1432.6347,-137.627 1438.2368,-141.8242"/>
</g>
<!-- Node14&#45;&gt;Node9 -->
<g id="edge19" class="edge">
<title>Node14&#45;&gt;Node9</title>
<path fill="none" stroke="#191970" d="M1237.1629,-436.4713C1323.2669,-414.2086 1529.4012,-358.7247 1548.7049,-333 1607.6732,-254.417 1577.1009,-207.421 1553.7049,-112 1551.3306,-102.3164 1546.5227,-92.4071 1541.8296,-84.2776"/>
<polygon fill="#191970" stroke="#191970" points="1544.7521,-82.3486 1536.5257,-75.672 1538.793,-86.0214 1544.7521,-82.3486"/>
</g>
<!-- Node15 -->
<g id="node16" class="node">
<title>Node15</title>
<g id="a_node16"><a xlink:href="_interpreter_8h.html" target="_top" xlink:title="uscxml/Interpreter.h">
<polygon fill="#ffffff" stroke="#000000" points="960.2049,-375 960.2049,-394 1065.2049,-394 1065.2049,-375 960.2049,-375"/>
<text text-anchor="middle" x="1012.7049" y="-382" font-family="Helvetica,sans-Serif" font-size="10.00" fill="#000000">uscxml/Interpreter.h</text>
</a>
</g>
</g>
<!-- Node14&#45;&gt;Node15 -->
<g id="edge21" class="edge">
<title>Node14&#45;&gt;Node15</title>
<path fill="none" stroke="#191970" d="M1170.4861,-436.3906C1138.3742,-425.8298 1086.6559,-408.8208 1051.2441,-397.1747"/>
<polygon fill="#191970" stroke="#191970" points="1052.3114,-393.8413 1041.7185,-394.0419 1050.1244,-400.4909 1052.3114,-393.8413"/>
</g>
<!-- Node26 -->
<g id="node27" class="node">
<title>Node26</title>
<g id="a_node27"><a xlink:href="_event_8h.html" target="_top" xlink:title="uscxml/messages/Event.h">
<polygon fill="#ffffff" stroke="#000000" points="950.2049,-241 950.2049,-260 1083.2049,-260 1083.2049,-241 950.2049,-241"/>
<text text-anchor="middle" x="1016.7049" y="-248" font-family="Helvetica,sans-Serif" font-size="10.00" fill="#000000">uscxml/messages/Event.h</text>
</a>
</g>
</g>
<!-- Node14&#45;&gt;Node26 -->
<g id="edge81" class="edge">
<title>Node14&#45;&gt;Node26</title>
<path fill="none" stroke="#191970" d="M1190.6299,-436.3051C1161.482,-405.1663 1069.978,-307.412 1032.7238,-267.6131"/>
<polygon fill="#191970" stroke="#191970" points="1035.2237,-265.1622 1025.8346,-260.2534 1030.1133,-269.9459 1035.2237,-265.1622"/>
</g>
<!-- Node15&#45;&gt;Node3 -->
<g id="edge22" class="edge">
<title>Node15&#45;&gt;Node3</title>
<path fill="none" stroke="#191970" d="M960.0702,-380.9053C812.9431,-370.0879 400.6633,-334.2964 285.7049,-266 250.5642,-245.123 237.7642,-236.9991 222.7049,-199 207.7887,-161.362 217.8511,-136.989 249.7049,-112 273.7366,-93.1473 351.3035,-79.9966 406.8339,-72.72"/>
<polygon fill="#191970" stroke="#191970" points="407.4529,-76.1694 416.9283,-71.4296 406.5652,-69.2259 407.4529,-76.1694"/>
</g>
<!-- Node15&#45;&gt;Node9 -->
<g id="edge24" class="edge">
<title>Node15&#45;&gt;Node9</title>
<path fill="none" stroke="#191970" d="M1065.4194,-380.0835C1181.9357,-369.1066 1455.3696,-336.2542 1509.7049,-266 1551.2861,-212.2365 1541.1719,-124.5096 1533.9555,-85.6222"/>
<polygon fill="#191970" stroke="#191970" points="1537.3472,-84.7339 1531.9556,-75.6136 1530.4829,-86.1056 1537.3472,-84.7339"/>
</g>
<!-- Node15&#45;&gt;Node12 -->
<g id="edge25" class="edge">
<title>Node15&#45;&gt;Node12</title>
<path fill="none" stroke="#191970" d="M1065.5296,-380.6837C1170.9979,-372.7388 1404.1854,-353.4533 1481.7049,-333 1484.0365,-332.3848 1486.4124,-331.6429 1488.7757,-330.8212"/>
<polygon fill="#191970" stroke="#191970" points="1490.231,-334.0104 1498.2739,-327.1139 1487.6857,-327.4896 1490.231,-334.0104"/>
</g>
<!-- Node15&#45;&gt;Node13 -->
<g id="edge23" class="edge">
<title>Node15&#45;&gt;Node13</title>
<path fill="none" stroke="#191970" d="M990.7491,-374.8274C969.8204,-365.258 937.7289,-349.6634 911.7049,-333 871.195,-307.0612 863.1939,-297.3437 826.7049,-266 819.7707,-260.0436 729.8638,-175.6789 690.7156,-138.9175"/>
<polygon fill="#191970" stroke="#191970" points="692.8659,-136.1354 683.1804,-131.8409 688.0738,-141.238 692.8659,-136.1354"/>
</g>
<!-- Node16 -->
<g id="node17" class="node">
<title>Node16</title>
<g id="a_node17"><a xlink:href="_micro_step_8h.html" target="_top" xlink:title="uscxml/interpreter\l/MicroStep.h">
<polygon fill="#ffffff" stroke="#000000" points="835.7049,-235.5 835.7049,-265.5 931.7049,-265.5 931.7049,-235.5 835.7049,-235.5"/>
<text text-anchor="start" x="843.7049" y="-253.5" font-family="Helvetica,sans-Serif" font-size="10.00" fill="#000000">uscxml/interpreter</text>
<text text-anchor="middle" x="883.7049" y="-242.5" font-family="Helvetica,sans-Serif" font-size="10.00" fill="#000000">/MicroStep.h</text>
</a>
</g>
</g>
<!-- Node15&#45;&gt;Node16 -->
<g id="edge26" class="edge">
<title>Node15&#45;&gt;Node16</title>
<path fill="none" stroke="#191970" d="M995.1686,-374.8671C979.2331,-365.5506 955.6876,-350.3257 938.7049,-333 921.6242,-315.5743 906.5963,-292.1521 896.5847,-274.7166"/>
<polygon fill="#191970" stroke="#191970" points="899.4917,-272.7438 891.5576,-265.7223 893.3813,-276.159 899.4917,-272.7438"/>
</g>
<!-- Node24 -->
<g id="node25" class="node">
<title>Node24</title>
<g id="a_node25"><a xlink:href="_interpreter_state_8h.html" target="_top" xlink:title="uscxml/interpreter\l/InterpreterState.h">
<polygon fill="#ffffff" stroke="#000000" points="246.2049,-168.5 246.2049,-198.5 343.2049,-198.5 343.2049,-168.5 246.2049,-168.5"/>
<text text-anchor="start" x="254.2049" y="-186.5" font-family="Helvetica,sans-Serif" font-size="10.00" fill="#000000">uscxml/interpreter</text>
<text text-anchor="middle" x="294.7049" y="-175.5" font-family="Helvetica,sans-Serif" font-size="10.00" fill="#000000">/InterpreterState.h</text>
</a>
</g>
</g>
<!-- Node15&#45;&gt;Node24 -->
<g id="edge80" class="edge">
<title>Node15&#45;&gt;Node24</title>
<path fill="none" stroke="#191970" d="M960.1705,-377.5901C904.1562,-369.554 813.1718,-354.5747 736.7049,-333 699.6068,-322.533 692.0274,-314.9036 655.7049,-302 549.5885,-264.302 424.4599,-224.184 352.8691,-201.6389"/>
<polygon fill="#191970" stroke="#191970" points="353.7196,-198.2375 343.1302,-198.5764 351.6197,-204.9151 353.7196,-198.2375"/>
</g>
<!-- Node15&#45;&gt;Node25 -->
<g id="edge48" class="edge">
<title>Node15&#45;&gt;Node25</title>
<path fill="none" stroke="#191970" d="M959.851,-375.9463C882.0859,-363.3612 737.3601,-339.9394 656.7381,-326.8918"/>
<polygon fill="#191970" stroke="#191970" points="657.1863,-323.4189 646.7556,-325.2763 656.0679,-330.329 657.1863,-323.4189"/>
</g>
<!-- Node28 -->
<g id="node29" class="node">
<title>Node28</title>
<g id="a_node29"><a xlink:href="_data_model_8h.html" target="_top" xlink:title="uscxml/plugins/DataModel.h">
<polygon fill="#ffffff" stroke="#000000" points="1137.7049,-308 1137.7049,-327 1279.7049,-327 1279.7049,-308 1137.7049,-308"/>
<text text-anchor="middle" x="1208.7049" y="-315" font-family="Helvetica,sans-Serif" font-size="10.00" fill="#000000">uscxml/plugins/DataModel.h</text>
</a>
</g>
</g>
<!-- Node15&#45;&gt;Node28 -->
<g id="edge57" class="edge">
<title>Node15&#45;&gt;Node28</title>
<path fill="none" stroke="#191970" d="M1040.7869,-374.9005C1074.99,-363.2086 1132.9021,-343.4122 1170.9746,-330.3976"/>
<polygon fill="#191970" stroke="#191970" points="1172.3447,-333.6282 1180.6749,-327.0817 1170.0804,-327.0045 1172.3447,-333.6282"/>
</g>
<!-- Node29 -->
<g id="node30" class="node">
<title>Node29</title>
<g id="a_node30"><a xlink:href="_factory_8h.html" target="_top" xlink:title="uscxml/plugins/Factory.h">
<polygon fill="#ffffff" stroke="#000000" points="1374.2049,-241 1374.2049,-260 1501.2049,-260 1501.2049,-241 1374.2049,-241"/>
<text text-anchor="middle" x="1437.7049" y="-248" font-family="Helvetica,sans-Serif" font-size="10.00" fill="#000000">uscxml/plugins/Factory.h</text>
</a>
</g>
</g>
<!-- Node15&#45;&gt;Node29 -->
<g id="edge63" class="edge">
<title>Node15&#45;&gt;Node29</title>
<path fill="none" stroke="#191970" d="M1065.392,-379.7466C1121.9263,-373.4886 1213.7069,-359.9584 1288.7049,-333 1336.6616,-315.7617 1387.5794,-284.3417 1415.7352,-265.6483"/>
<polygon fill="#191970" stroke="#191970" points="1417.6995,-268.5452 1424.0443,-260.0603 1413.7931,-262.7365 1417.6995,-268.5452"/>
</g>
<!-- Node31 -->
<g id="node32" class="node">
<title>Node31</title>
<g id="a_node32"><a xlink:href="_content_executor_8h.html" target="_top" xlink:title="uscxml/interpreter\l/ContentExecutor.h">
<polygon fill="#ffffff" stroke="#000000" points="1101.7049,-235.5 1101.7049,-265.5 1203.7049,-265.5 1203.7049,-235.5 1101.7049,-235.5"/>
<text text-anchor="start" x="1109.7049" y="-253.5" font-family="Helvetica,sans-Serif" font-size="10.00" fill="#000000">uscxml/interpreter</text>
<text text-anchor="middle" x="1152.7049" y="-242.5" font-family="Helvetica,sans-Serif" font-size="10.00" fill="#000000">/ContentExecutor.h</text>
</a>
</g>
</g>
<!-- Node15&#45;&gt;Node31 -->
<g id="edge73" class="edge">
<title>Node15&#45;&gt;Node31</title>
<path fill="none" stroke="#191970" d="M1022.7733,-374.8631C1044.968,-353.6196 1098.5844,-302.301 1129.5622,-272.6509"/>
<polygon fill="#191970" stroke="#191970" points="1132.1131,-275.0541 1136.9172,-265.611 1127.2729,-269.9972 1132.1131,-275.0541"/>
</g>
<!-- Node32 -->
<g id="node33" class="node">
<title>Node32</title>
<g id="a_node33"><a xlink:href="_event_queue_8h.html" target="_top" xlink:title="uscxml/interpreter\l/EventQueue.h">
<polygon fill="#ffffff" stroke="#000000" points="947.7049,-302.5 947.7049,-332.5 1043.7049,-332.5 1043.7049,-302.5 947.7049,-302.5"/>
<text text-anchor="start" x="955.7049" y="-320.5" font-family="Helvetica,sans-Serif" font-size="10.00" fill="#000000">uscxml/interpreter</text>
<text text-anchor="middle" x="995.7049" y="-309.5" font-family="Helvetica,sans-Serif" font-size="10.00" fill="#000000">/EventQueue.h</text>
</a>
</g>
</g>
<!-- Node15&#45;&gt;Node32 -->
<g id="edge77" class="edge">
<title>Node15&#45;&gt;Node32</title>
<path fill="none" stroke="#191970" d="M1010.2692,-374.9005C1008.1183,-366.4234 1004.8863,-353.6856 1002.013,-342.3614"/>
<polygon fill="#191970" stroke="#191970" points="1005.3683,-341.3538 999.5164,-332.5218 998.5833,-343.0754 1005.3683,-341.3538"/>
</g>
<!-- Node16&#45;&gt;Node3 -->
<g id="edge30" class="edge">
<title>Node16&#45;&gt;Node3</title>
<path fill="none" stroke="#191970" d="M835.4473,-237.7293C830.8211,-236.7184 826.1854,-235.7864 821.7049,-235 744.6938,-221.484 525.1688,-256.0526 471.7049,-199 442.9841,-168.3515 452.5298,-114.1699 460.4792,-85.3283"/>
<polygon fill="#191970" stroke="#191970" points="463.8714,-86.1998 463.3647,-75.6171 457.1614,-84.206 463.8714,-86.1998"/>
</g>
<!-- Node16&#45;&gt;Node8 -->
<g id="edge28" class="edge">
<title>Node16&#45;&gt;Node8</title>
<path fill="none" stroke="#191970" d="M931.8658,-237.2341C934.8531,-236.4638 937.8177,-235.7133 940.7049,-235 1036.0627,-211.4425 1335.8986,-146.3858 1424.0805,-127.3177"/>
<polygon fill="#191970" stroke="#191970" points="1424.9448,-130.7118 1433.9796,-125.1781 1423.4659,-123.8698 1424.9448,-130.7118"/>
</g>
<!-- Node16&#45;&gt;Node9 -->
<g id="edge29" class="edge">
<title>Node16&#45;&gt;Node9</title>
<path fill="none" stroke="#191970" d="M926.8281,-235.46C954.8655,-225.507 992.1324,-211.9487 1024.7049,-199 1057.0805,-186.1295 1063.6415,-178.9837 1096.7049,-168 1198.1883,-134.2869 1226.6094,-136.4866 1330.7049,-112 1390.1788,-98.0098 1459.7411,-82.014 1498.8704,-73.0498"/>
<polygon fill="#191970" stroke="#191970" points="1500.0996,-76.359 1509.0662,-70.7154 1498.5372,-69.5356 1500.0996,-76.359"/>
</g>
<!-- Node17 -->
<g id="node18" class="node">
<title>Node17</title>
<polygon fill="#ffffff" stroke="#bfbfbf" points="953.2049,-56.5 953.2049,-75.5 1006.2049,-75.5 1006.2049,-56.5 953.2049,-56.5"/>
<text text-anchor="middle" x="979.7049" y="-63.5" font-family="Helvetica,sans-Serif" font-size="10.00" fill="#000000">memory</text>
</g>
<!-- Node16&#45;&gt;Node17 -->
<g id="edge27" class="edge">
<title>Node16&#45;&gt;Node17</title>
<path fill="none" stroke="#191970" d="M865.496,-235.3337C835.7237,-208.7052 782.8793,-152.5293 813.7049,-112 829.292,-91.5062 899.0155,-77.7699 942.9947,-70.9726"/>
<polygon fill="#191970" stroke="#191970" points="943.6619,-74.4119 953.0345,-69.4717 942.6269,-67.4888 943.6619,-74.4119"/>
</g>
<!-- Node18 -->
<g id="node19" class="node">
<title>Node18</title>
<g id="a_node19"><a xlink:href="_data_8h.html" target="_top" xlink:title="uscxml/messages/Data.h">
<polygon fill="#ffffff" stroke="#000000" points="887.7049,-174 887.7049,-193 1015.7049,-193 1015.7049,-174 887.7049,-174"/>
<text text-anchor="middle" x="951.7049" y="-181" font-family="Helvetica,sans-Serif" font-size="10.00" fill="#000000">uscxml/messages/Data.h</text>
</a>
</g>
</g>
<!-- Node16&#45;&gt;Node18 -->
<g id="edge31" class="edge">
<title>Node16&#45;&gt;Node18</title>
<path fill="none" stroke="#191970" d="M899.1351,-235.2967C909.7298,-224.8578 923.7948,-210.9997 934.7103,-200.2446"/>
<polygon fill="#191970" stroke="#191970" points="937.3405,-202.5666 942.0073,-193.055 932.4275,-197.5804 937.3405,-202.5666"/>
</g>
<!-- Node16&#45;&gt;Node24 -->
<g id="edge46" class="edge">
<title>Node16&#45;&gt;Node24</title>
<path fill="none" stroke="#191970" d="M835.5045,-245.0171C728.2921,-232.8215 470.3656,-203.4818 353.737,-190.215"/>
<polygon fill="#191970" stroke="#191970" points="353.9028,-186.7114 343.5712,-189.0587 353.1115,-193.6665 353.9028,-186.7114"/>
</g>
<!-- Node18&#45;&gt;Node3 -->
<g id="edge36" class="edge">
<title>Node18&#45;&gt;Node3</title>
<path fill="none" stroke="#191970" d="M926.4285,-173.923C886.0161,-158.9138 804.128,-129.7365 732.7049,-112 662.8404,-94.6506 581.0529,-81.5604 526.8014,-73.8642"/>
<polygon fill="#191970" stroke="#191970" points="527.0548,-70.3656 516.6658,-72.4437 526.0832,-77.2978 527.0548,-70.3656"/>
</g>
<!-- Node18&#45;&gt;Node8 -->
<g id="edge32" class="edge">
<title>Node18&#45;&gt;Node8</title>
<path fill="none" stroke="#191970" d="M1015.9153,-175.5544C1126.7366,-161.8411 1349.1935,-134.3138 1423.7228,-125.0913"/>
<polygon fill="#191970" stroke="#191970" points="1424.5015,-128.5218 1433.996,-123.8201 1423.6418,-121.5748 1424.5015,-128.5218"/>
</g>
<!-- Node18&#45;&gt;Node13 -->
<g id="edge33" class="edge">
<title>Node18&#45;&gt;Node13</title>
<path fill="none" stroke="#191970" d="M908.4172,-173.9581C850.5235,-161.1966 749.5246,-138.9334 700.7061,-128.1723"/>
<polygon fill="#191970" stroke="#191970" points="701.3593,-124.7323 690.8403,-125.9976 699.8524,-131.5682 701.3593,-124.7323"/>
</g>
<!-- Node18&#45;&gt;Node17 -->
<g id="edge34" class="edge">
<title>Node18&#45;&gt;Node17</title>
<path fill="none" stroke="#191970" d="M953.9962,-173.8845C958.5699,-154.6913 968.9133,-111.286 974.9946,-85.7663"/>
<polygon fill="#191970" stroke="#191970" points="978.4684,-86.2874 977.3819,-75.7484 971.659,-84.6646 978.4684,-86.2874"/>
</g>
<!-- Node19 -->
<g id="node20" class="node">
<title>Node19</title>
<polygon fill="#ffffff" stroke="#bfbfbf" points="823.2049,-112.5 823.2049,-131.5 886.2049,-131.5 886.2049,-112.5 823.2049,-112.5"/>
<text text-anchor="middle" x="854.7049" y="-119.5" font-family="Helvetica,sans-Serif" font-size="10.00" fill="#000000">type_traits</text>
</g>
<!-- Node18&#45;&gt;Node19 -->
<g id="edge35" class="edge">
<title>Node18&#45;&gt;Node19</title>
<path fill="none" stroke="#191970" d="M936.5486,-173.8906C921.0306,-164.0519 896.6856,-148.6167 878.5764,-137.1351"/>
<polygon fill="#191970" stroke="#191970" points="880.0744,-133.9407 869.7547,-131.5419 876.3261,-139.8526 880.0744,-133.9407"/>
</g>
<!-- Node18&#45;&gt;Node20 -->
<g id="edge37" class="edge">
<title>Node18&#45;&gt;Node20</title>
<path fill="none" stroke="#191970" d="M1015.8835,-178.9528C1172.6029,-167.8488 1574.3022,-139.3874 1743.1389,-127.4249"/>
<polygon fill="#191970" stroke="#191970" points="1743.463,-130.9108 1753.1906,-126.7127 1742.9682,-123.9283 1743.463,-130.9108"/>
</g>
<!-- Node23 -->
<g id="node24" class="node">
<title>Node23</title>
<g id="a_node24"><a xlink:href="_blob_8h.html" target="_top" xlink:title="uscxml/messages/Blob.h">
<polygon fill="#ffffff" stroke="#000000" points="981.2049,-112.5 981.2049,-131.5 1108.2049,-131.5 1108.2049,-112.5 981.2049,-112.5"/>
<text text-anchor="middle" x="1044.7049" y="-119.5" font-family="Helvetica,sans-Serif" font-size="10.00" fill="#000000">uscxml/messages/Blob.h</text>
</a>
</g>
</g>
<!-- Node18&#45;&gt;Node23 -->
<g id="edge42" class="edge">
<title>Node18&#45;&gt;Node23</title>
<path fill="none" stroke="#191970" d="M966.2361,-173.8906C981.1143,-164.0519 1004.4553,-148.6167 1021.8177,-137.1351"/>
<polygon fill="#191970" stroke="#191970" points="1023.8651,-139.9773 1030.2757,-131.5419 1020.0039,-134.1385 1023.8651,-139.9773"/>
</g>
<!-- Node20&#45;&gt;Node3 -->
<g id="edge38" class="edge">
<title>Node20&#45;&gt;Node3</title>
<path fill="none" stroke="#191970" d="M1753.0709,-119.2421C1520.6037,-109.6204 747.6506,-77.6282 526.3681,-68.4694"/>
<polygon fill="#191970" stroke="#191970" points="526.3884,-64.9674 516.2521,-68.0507 526.0988,-71.9614 526.3884,-64.9674"/>
</g>
<!-- Node20&#45;&gt;Node9 -->
<g id="edge39" class="edge">
<title>Node20&#45;&gt;Node9</title>
<path fill="none" stroke="#191970" d="M1770.1816,-112.4369C1709.9208,-100.8003 1610.0549,-81.5159 1560.1106,-71.8714"/>
<polygon fill="#191970" stroke="#191970" points="1560.7252,-68.4255 1550.2429,-69.966 1559.3979,-75.2986 1560.7252,-68.4255"/>
</g>
<!-- Node21 -->
<g id="node22" class="node">
<title>Node21</title>
<polygon fill="#ffffff" stroke="#bfbfbf" points="1879.2049,-56.5 1879.2049,-75.5 1918.2049,-75.5 1918.2049,-56.5 1879.2049,-56.5"/>
<text text-anchor="middle" x="1898.7049" y="-63.5" font-family="Helvetica,sans-Serif" font-size="10.00" fill="#000000">limits</text>
</g>
<!-- Node20&#45;&gt;Node21 -->
<g id="edge40" class="edge">
<title>Node20&#45;&gt;Node21</title>
<path fill="none" stroke="#191970" d="M1833.4656,-112.2455C1845.3601,-103.814 1862.7699,-91.4729 1876.6134,-81.6598"/>
<polygon fill="#191970" stroke="#191970" points="1878.9677,-84.2811 1885.1018,-75.6427 1874.9195,-78.5704 1878.9677,-84.2811"/>
</g>
<!-- Node22 -->
<g id="node23" class="node">
<title>Node22</title>
<polygon fill="#ffffff" stroke="#bfbfbf" points="1793.7049,-56.5 1793.7049,-75.5 1845.7049,-75.5 1845.7049,-56.5 1793.7049,-56.5"/>
<text text-anchor="middle" x="1819.7049" y="-63.5" font-family="Helvetica,sans-Serif" font-size="10.00" fill="#000000">sstream</text>
</g>
<!-- Node20&#45;&gt;Node22 -->
<g id="edge41" class="edge">
<title>Node20&#45;&gt;Node22</title>
<path fill="none" stroke="#191970" d="M1819.7049,-112.2455C1819.7049,-104.9382 1819.7049,-94.6944 1819.7049,-85.7046"/>
<polygon fill="#191970" stroke="#191970" points="1823.205,-85.6426 1819.7049,-75.6427 1816.205,-85.6427 1823.205,-85.6426"/>
</g>
<!-- Node23&#45;&gt;Node3 -->
<g id="edge45" class="edge">
<title>Node23&#45;&gt;Node3</title>
<path fill="none" stroke="#191970" d="M980.8763,-113.628C976.0831,-113.0572 971.3189,-112.5078 966.7049,-112 808.0207,-94.5341 620.4951,-78.5167 526.6001,-70.8136"/>
<polygon fill="#191970" stroke="#191970" points="526.6937,-67.3096 516.4416,-69.9827 526.123,-74.2863 526.6937,-67.3096"/>
</g>
<!-- Node23&#45;&gt;Node9 -->
<g id="edge43" class="edge">
<title>Node23&#45;&gt;Node9</title>
<path fill="none" stroke="#191970" d="M1108.2958,-113.0728C1111.1368,-112.704 1113.95,-112.3447 1116.7049,-112 1259.4028,-94.1469 1430.2796,-76.2066 1498.9334,-69.1393"/>
<polygon fill="#191970" stroke="#191970" points="1499.4641,-72.6033 1509.0543,-68.1001 1498.7491,-65.6399 1499.4641,-72.6033"/>
</g>
<!-- Node23&#45;&gt;Node17 -->
<g id="edge44" class="edge">
<title>Node23&#45;&gt;Node17</title>
<path fill="none" stroke="#191970" d="M1033.3827,-112.2455C1023.7826,-103.9746 1009.8157,-91.9416 998.5354,-82.2232"/>
<polygon fill="#191970" stroke="#191970" points="1000.7579,-79.5182 990.8973,-75.6427 996.1889,-84.8214 1000.7579,-79.5182"/>
</g>
<!-- Node24&#45;&gt;Node3 -->
<g id="edge47" class="edge">
<title>Node24&#45;&gt;Node3</title>
<path fill="none" stroke="#191970" d="M304.9417,-168.2854C316.2621,-152.4339 335.8184,-127.755 357.7049,-112 377.7081,-97.6006 402.9075,-86.5935 424.0369,-78.9621"/>
<polygon fill="#191970" stroke="#191970" points="425.4372,-82.1808 433.7327,-75.5903 423.1379,-75.5692 425.4372,-82.1808"/>
</g>
<!-- Node25&#45;&gt;Node3 -->
<g id="edge49" class="edge">
<title>Node25&#45;&gt;Node3</title>
<path fill="none" stroke="#191970" d="M550.5295,-308.8898C460.8901,-291.7827 274.1573,-250.668 236.7049,-199 187.5389,-131.1724 323.8946,-92.6443 407.2839,-75.9813"/>
<polygon fill="#191970" stroke="#191970" points="408.0271,-79.4024 417.1747,-74.0572 406.6903,-72.5313 408.0271,-79.4024"/>
</g>
<!-- Node25&#45;&gt;Node17 -->
<g id="edge56" class="edge">
<title>Node25&#45;&gt;Node17</title>
<path fill="none" stroke="#191970" d="M607.5752,-302.4445C619.9034,-280.5566 641.6139,-238.2663 649.7049,-199 655.7251,-169.783 647.3545,-161.7852 645.7049,-132 645.2133,-123.1247 639.864,-118.7005 645.7049,-112 665.0497,-89.8083 860.2631,-74.0871 942.9797,-68.3718"/>
<polygon fill="#191970" stroke="#191970" points="943.4445,-71.8483 953.1842,-67.6782 942.9698,-64.8644 943.4445,-71.8483"/>
</g>
<!-- Node25&#45;&gt;Node18 -->
<g id="edge50" class="edge">
<title>Node25&#45;&gt;Node18</title>
<path fill="none" stroke="#191970" d="M638.5123,-302.389C708.1435,-275.9567 850.909,-221.7625 916.8731,-196.7223"/>
<polygon fill="#191970" stroke="#191970" points="918.2974,-199.9253 926.4044,-193.1042 915.8131,-193.381 918.2974,-199.9253"/>
</g>
<!-- Node25&#45;&gt;Node26 -->
<g id="edge51" class="edge">
<title>Node25&#45;&gt;Node26</title>
<path fill="none" stroke="#191970" d="M646.9844,-304.8495C651.606,-303.8138 656.2347,-302.8431 660.7049,-302 783.9997,-278.7448 816.9305,-286.5503 940.7049,-266 947.8285,-264.8173 955.3026,-263.4499 962.6676,-262.0272"/>
<polygon fill="#191970" stroke="#191970" points="963.4681,-265.4368 972.6001,-260.0649 962.1113,-258.5695 963.4681,-265.4368"/>
</g>
<!-- Node26&#45;&gt;Node18 -->
<g id="edge52" class="edge">
<title>Node26&#45;&gt;Node18</title>
<path fill="none" stroke="#191970" d="M1007.392,-240.9005C997.1592,-230.353 980.5276,-213.2096 968.1002,-200.3998"/>
<polygon fill="#191970" stroke="#191970" points="970.4758,-197.822 961.0005,-193.0817 965.4516,-202.6962 970.4758,-197.822"/>
</g>
<!-- Node27 -->
<g id="node28" class="node">
<title>Node27</title>
<g id="a_node28"><a xlink:href="_u_u_i_d_8h.html" target="_top" xlink:title="uscxml/util/UUID.h">
<polygon fill="#ffffff" stroke="#000000" points="1126.2049,-112.5 1126.2049,-131.5 1225.2049,-131.5 1225.2049,-112.5 1126.2049,-112.5"/>
<text text-anchor="middle" x="1175.7049" y="-119.5" font-family="Helvetica,sans-Serif" font-size="10.00" fill="#000000">uscxml/util/UUID.h</text>
</a>
</g>
</g>
<!-- Node26&#45;&gt;Node27 -->
<g id="edge53" class="edge">
<title>Node26&#45;&gt;Node27</title>
<path fill="none" stroke="#191970" d="M1028.6557,-240.8416C1055.7048,-218.9812 1121.867,-165.5105 1155.4453,-138.3733"/>
<polygon fill="#191970" stroke="#191970" points="1158.0378,-140.7783 1163.6154,-131.7705 1153.6378,-135.334 1158.0378,-140.7783"/>
</g>
<!-- Node27&#45;&gt;Node3 -->
<g id="edge54" class="edge">
<title>Node27&#45;&gt;Node3</title>
<path fill="none" stroke="#191970" d="M1126.1811,-113.2469C1122.979,-112.7921 1119.7995,-112.3709 1116.7049,-112 900.2706,-86.062 641.4084,-73.1099 526.601,-68.2897"/>
<polygon fill="#191970" stroke="#191970" points="526.7412,-64.7926 516.6048,-67.8754 526.4512,-71.7866 526.7412,-64.7926"/>
</g>
<!-- Node27&#45;&gt;Node9 -->
<g id="edge55" class="edge">
<title>Node27&#45;&gt;Node9</title>
<path fill="none" stroke="#191970" d="M1225.2998,-114.1545C1299.6157,-102.3983 1437.6758,-80.5583 1498.9916,-70.8586"/>
<polygon fill="#191970" stroke="#191970" points="1499.8454,-74.2671 1509.1756,-69.2476 1498.7516,-67.3531 1499.8454,-74.2671"/>
</g>
<!-- Node28&#45;&gt;Node3 -->
<g id="edge58" class="edge">
<title>Node28&#45;&gt;Node3</title>
<path fill="none" stroke="#191970" d="M1137.4644,-308.8207C1060.6387,-299.2451 934.7996,-282.935 826.7049,-266 816.2508,-264.3622 458.6772,-206.9597 451.7049,-199 423.8869,-167.2427 443.1101,-113.5709 456.6146,-85.0869"/>
<polygon fill="#191970" stroke="#191970" points="459.9052,-86.3309 461.2335,-75.8197 453.6402,-83.2084 459.9052,-86.3309"/>
</g>
<!-- Node28&#45;&gt;Node8 -->
<g id="edge60" class="edge">
<title>Node28&#45;&gt;Node8</title>
<path fill="none" stroke="#191970" d="M1225.0172,-307.8749C1240.7763,-298.2223 1264.9495,-282.4635 1283.7049,-266 1327.6985,-227.3823 1326.5129,-205.2082 1371.7049,-168 1388.1312,-154.4756 1408.959,-142.2836 1424.8099,-133.8546"/>
<polygon fill="#191970" stroke="#191970" points="1426.6858,-136.8245 1433.9524,-129.1143 1423.4637,-130.6101 1426.6858,-136.8245"/>
</g>
<!-- Node28&#45;&gt;Node9 -->
<g id="edge61" class="edge">
<title>Node28&#45;&gt;Node9</title>
<path fill="none" stroke="#191970" d="M1217.601,-307.6955C1226.924,-297.3844 1241.9592,-280.6535 1254.7049,-266 1292.164,-222.9339 1294.7935,-205.6362 1337.7049,-168 1372.2762,-137.6786 1384.1837,-133.7393 1424.7049,-112 1449.2311,-98.8419 1478.2962,-86.332 1499.6216,-77.689"/>
<polygon fill="#191970" stroke="#191970" points="1501.1389,-80.8517 1509.1223,-73.8864 1498.5378,-74.3529 1501.1389,-80.8517"/>
</g>
<!-- Node28&#45;&gt;Node17 -->
<g id="edge62" class="edge">
<title>Node28&#45;&gt;Node17</title>
<path fill="none" stroke="#191970" d="M1214.2347,-307.9389C1231.9371,-275.9439 1283.2368,-171.308 1233.7049,-112 1206.425,-79.3359 1079.817,-69.8197 1016.2795,-67.0833"/>
<polygon fill="#191970" stroke="#191970" points="1016.4135,-63.586 1006.2825,-66.6866 1016.1358,-70.5805 1016.4135,-63.586"/>
</g>
<!-- Node28&#45;&gt;Node26 -->
<g id="edge59" class="edge">
<title>Node28&#45;&gt;Node26</title>
<path fill="none" stroke="#191970" d="M1181.196,-307.9005C1147.6909,-296.2086 1090.9607,-276.4122 1053.6651,-263.3976"/>
<polygon fill="#191970" stroke="#191970" points="1054.7576,-260.0719 1044.1628,-260.0817 1052.4512,-266.681 1054.7576,-260.0719"/>
</g>
<!-- Node29&#45;&gt;Node3 -->
<g id="edge64" class="edge">
<title>Node29&#45;&gt;Node3</title>
<path fill="none" stroke="#191970" d="M1374.1311,-245.8578C1237.7398,-235.7226 925.5777,-211.522 878.7049,-199 844.2167,-189.7866 764.2432,-148.723 732.7049,-132 717.5531,-123.9659 715.695,-118.2 699.7049,-112 642.9977,-90.0125 574.282,-78.0911 526.2238,-71.9356"/>
<polygon fill="#191970" stroke="#191970" points="526.6478,-68.4614 516.294,-70.708 525.789,-75.4086 526.6478,-68.4614"/>
</g>
<!-- Node29&#45;&gt;Node7 -->
<g id="edge69" class="edge">
<title>Node29&#45;&gt;Node7</title>
<path fill="none" stroke="#191970" d="M1467.936,-240.9005C1509.808,-227.6047 1584.6866,-203.8281 1623.6284,-191.4627"/>
<polygon fill="#191970" stroke="#191970" points="1625.13,-194.6582 1633.6017,-188.2958 1623.0114,-187.9864 1625.13,-194.6582"/>
</g>
<!-- Node29&#45;&gt;Node9 -->
<g id="edge71" class="edge">
<title>Node29&#45;&gt;Node9</title>
<path fill="none" stroke="#191970" d="M1436.3827,-240.9202C1434.6059,-225.0875 1432.7218,-192.7521 1442.7049,-168 1444.7365,-162.9628 1490.0718,-111.0285 1514.4722,-83.2751"/>
<polygon fill="#191970" stroke="#191970" points="1517.3211,-85.3357 1521.3015,-75.517 1512.0668,-80.7105 1517.3211,-85.3357"/>
</g>
<!-- Node29&#45;&gt;Node13 -->
<g id="edge70" class="edge">
<title>Node29&#45;&gt;Node13</title>
<path fill="none" stroke="#191970" d="M1374.1325,-246.1423C1219.4677,-235.4271 834.2336,-208.0128 807.7049,-199 783.6591,-190.8307 781.6176,-180.8363 759.7049,-168 740.0516,-156.4873 717.2744,-144.4907 699.9565,-135.6363"/>
<polygon fill="#191970" stroke="#191970" points="701.4525,-132.4706 690.9516,-131.0634 698.283,-138.712 701.4525,-132.4706"/>
</g>
<!-- Node29&#45;&gt;Node17 -->
<g id="edge68" class="edge">
<title>Node29&#45;&gt;Node17</title>
<path fill="none" stroke="#191970" d="M1431.7694,-240.6749C1415.4196,-214.5878 1366.8574,-143.4337 1305.7049,-112 1255.8595,-86.3784 1091.08,-73.0176 1016.7038,-68.1682"/>
<polygon fill="#191970" stroke="#191970" points="1016.6126,-64.6555 1006.4107,-67.5141 1016.1686,-71.6414 1016.6126,-64.6555"/>
</g>
<!-- Node29&#45;&gt;Node21 -->
<g id="edge72" class="edge">
<title>Node29&#45;&gt;Node21</title>
<path fill="none" stroke="#191970" d="M1454.8766,-240.9265C1487.0981,-223.4229 1559.2832,-186.3725 1624.7049,-168 1683.1935,-151.5745 1854.648,-176.7778 1895.7049,-132 1906.8238,-119.8734 1906.4246,-100.6159 1903.9239,-86.0255"/>
<polygon fill="#191970" stroke="#191970" points="1907.2859,-85.0117 1901.7579,-75.9733 1900.4429,-86.4862 1907.2859,-85.0117"/>
</g>
<!-- Node29&#45;&gt;Node30 -->
<g id="edge65" class="edge">
<title>Node29&#45;&gt;Node30</title>
<path fill="none" stroke="#191970" d="M1443.2926,-240.9005C1449.2006,-230.751 1458.6636,-214.4941 1466.0131,-201.8679"/>
<polygon fill="#191970" stroke="#191970" points="1469.1216,-203.4849 1471.1275,-193.0817 1463.0719,-199.9634 1469.1216,-203.4849"/>
</g>
<!-- Node30&#45;&gt;Node8 -->
<g id="edge67" class="edge">
<title>Node30&#45;&gt;Node8</title>
<path fill="none" stroke="#191970" d="M1472.3299,-173.8906C1468.326,-165.0965 1462.2866,-151.8312 1457.3164,-140.9145"/>
<polygon fill="#191970" stroke="#191970" points="1460.4706,-139.3957 1453.1416,-131.7449 1454.0998,-142.2963 1460.4706,-139.3957"/>
</g>
<!-- Node30&#45;&gt;Node9 -->
<g id="edge66" class="edge">
<title>Node30&#45;&gt;Node9</title>
<path fill="none" stroke="#191970" d="M1482.7556,-173.8778C1488.9939,-163.7153 1498.763,-147.104 1505.7049,-132 1512.7759,-116.6149 1519.238,-98.4993 1523.6709,-85.1432"/>
<polygon fill="#191970" stroke="#191970" points="1527.0117,-86.1873 1526.7638,-75.5953 1520.3524,-84.03 1527.0117,-86.1873"/>
</g>
<!-- Node31&#45;&gt;Node3 -->
<g id="edge74" class="edge">
<title>Node31&#45;&gt;Node3</title>
<path fill="none" stroke="#191970" d="M1101.594,-236.7722C1098.261,-236.1066 1094.9436,-235.5062 1091.7049,-235 1027.1439,-224.9093 555.6434,-239.9293 504.7049,-199 487.0453,-184.8104 474.7755,-119.2949 469.5431,-85.8151"/>
<polygon fill="#191970" stroke="#191970" points="472.9869,-85.1791 468.0408,-75.8097 466.0645,-86.2186 472.9869,-85.1791"/>
</g>
<!-- Node31&#45;&gt;Node9 -->
<g id="edge76" class="edge">
<title>Node31&#45;&gt;Node9</title>
<path fill="none" stroke="#191970" d="M1169.1367,-235.2647C1188.9813,-217.4371 1223.9189,-187.8371 1257.7049,-168 1339.2841,-120.1016 1447.3456,-87.6336 1499.2825,-73.6995"/>
<polygon fill="#191970" stroke="#191970" points="1500.4149,-77.0205 1509.1907,-71.0845 1498.6286,-70.2523 1500.4149,-77.0205"/>
</g>
<!-- Node31&#45;&gt;Node18 -->
<g id="edge75" class="edge">
<title>Node31&#45;&gt;Node18</title>
<path fill="none" stroke="#191970" d="M1107.5966,-235.4639C1072.2473,-223.6808 1023.6019,-207.4657 990.1002,-196.2984"/>
<polygon fill="#191970" stroke="#191970" points="990.8144,-192.8472 980.2207,-193.0053 988.6008,-199.488 990.8144,-192.8472"/>
</g>
<!-- Node32&#45;&gt;Node3 -->
<g id="edge78" class="edge">
<title>Node32&#45;&gt;Node3</title>
<path fill="none" stroke="#191970" d="M947.2623,-309.6461C807.6828,-286.7929 413.4434,-220.5845 395.7049,-199 371.1547,-169.1269 377.2366,-145.9711 395.7049,-112 403.3426,-97.9511 417.3258,-87.5317 430.8757,-80.1958"/>
<polygon fill="#191970" stroke="#191970" points="432.7108,-83.1921 440.1039,-75.603 429.5918,-76.9253 432.7108,-83.1921"/>
</g>
<!-- Node32&#45;&gt;Node26 -->
<g id="edge79" class="edge">
<title>Node32&#45;&gt;Node26</title>
<path fill="none" stroke="#191970" d="M1000.4701,-302.2967C1003.4879,-292.6685 1007.4173,-280.1318 1010.6544,-269.8038"/>
<polygon fill="#191970" stroke="#191970" points="1014.0589,-270.6441 1013.71,-260.055 1007.3793,-268.5504 1014.0589,-270.6441"/>
</g>
<!-- Node34&#45;&gt;Node3 -->
<g id="edge89" class="edge">
<title>Node34&#45;&gt;Node3</title>
<path fill="none" stroke="#191970" d="M1943.0485,-115.7749C1927.6402,-114.3455 1911.067,-112.9642 1895.7049,-112 1622.9204,-94.8786 761.9432,-73.1728 526.6409,-67.4407"/>
<polygon fill="#191970" stroke="#191970" points="526.6477,-63.94 516.5655,-67.1958 526.4774,-70.9379 526.6477,-63.94"/>
</g>
<!-- Node34&#45;&gt;Node9 -->
<g id="edge88" class="edge">
<title>Node34&#45;&gt;Node9</title>
<path fill="none" stroke="#191970" d="M1942.7991,-114.9076C1840.945,-102.8487 1637.5624,-78.7696 1560.3754,-69.6312"/>
<polygon fill="#191970" stroke="#191970" points="1560.6873,-66.1438 1550.3452,-68.4437 1559.8643,-73.0952 1560.6873,-66.1438"/>
</g>
<!-- Node35 -->
<g id="node36" class="node">
<title>Node35</title>
<g id="a_node36"><a xlink:href="_base64_8h_source.html" target="_top" xlink:title="Base64.h">
<polygon fill="#ffffff" stroke="#000000" points="2024.2049,-56.5 2024.2049,-75.5 2083.2049,-75.5 2083.2049,-56.5 2024.2049,-56.5"/>
<text text-anchor="middle" x="2053.7049" y="-63.5" font-family="Helvetica,sans-Serif" font-size="10.00" fill="#000000">Base64.h</text>
</a>
</g>
</g>
<!-- Node34&#45;&gt;Node35 -->
<g id="edge86" class="edge">
<title>Node34&#45;&gt;Node35</title>
<path fill="none" stroke="#191970" d="M2011.5884,-112.2455C2018.9015,-104.2155 2029.444,-92.6394 2038.1516,-83.0781"/>
<polygon fill="#191970" stroke="#191970" points="2040.7775,-85.3928 2044.9232,-75.6427 2035.6021,-80.6795 2040.7775,-85.3928"/>
</g>
<!-- Node36 -->
<g id="node37" class="node">
<title>Node36</title>
<polygon fill="#ffffff" stroke="#bfbfbf" points="1957.7049,-56.5 1957.7049,-75.5 2005.7049,-75.5 2005.7049,-56.5 1957.7049,-56.5"/>
<text text-anchor="middle" x="1981.7049" y="-63.5" font-family="Helvetica,sans-Serif" font-size="10.00" fill="#000000">stdlib.h</text>
</g>
<!-- Node34&#45;&gt;Node36 -->
<g id="edge87" class="edge">
<title>Node34&#45;&gt;Node36</title>
<path fill="none" stroke="#191970" d="M1999.047,-112.2455C1996.2465,-104.7776 1992.2959,-94.2427 1988.8725,-85.1137"/>
<polygon fill="#191970" stroke="#191970" points="1992.1093,-83.777 1985.3209,-75.6427 1985.555,-86.2349 1992.1093,-83.777"/>
</g>
<!-- Node37&#45;&gt;Node6 -->
<g id="edge94" class="edge">
<title>Node37&#45;&gt;Node6</title>
<path fill="none" stroke="#191970" d="M1988.5916,-307.9717C1940.9027,-296.0495 1859.1881,-275.6208 1807.12,-262.6038"/>
<polygon fill="#191970" stroke="#191970" points="1807.6709,-259.1339 1797.1206,-260.1039 1805.9731,-265.9248 1807.6709,-259.1339"/>
</g>
<!-- Node37&#45;&gt;Node8 -->
<g id="edge92" class="edge">
<title>Node37&#45;&gt;Node8</title>
<path fill="none" stroke="#191970" d="M2031.786,-307.8986C2044.9233,-281.6097 2076.5061,-207.777 2039.7049,-168 2020.1517,-146.8658 1583.057,-127.5255 1473.4554,-122.9964"/>
<polygon fill="#191970" stroke="#191970" points="1473.487,-119.4948 1463.3521,-122.5827 1473.2005,-126.489 1473.487,-119.4948"/>
</g>
<!-- Node37&#45;&gt;Node9 -->
<g id="edge91" class="edge">
<title>Node37&#45;&gt;Node9</title>
<path fill="none" stroke="#191970" d="M2037.3582,-307.6566C2046.8702,-298.0812 2060.1336,-282.5853 2065.7049,-266 2072.5083,-245.7467 2067.7579,-175.3306 2060.7049,-168 2011.5496,-116.9101 1813.1014,-146.5099 1743.7049,-132 1676.7293,-117.9963 1600.7034,-92.055 1559.7232,-77.2074"/>
<polygon fill="#191970" stroke="#191970" points="1560.9198,-73.9184 1550.326,-73.7739 1558.5175,-80.4933 1560.9198,-73.9184"/>
</g>
<!-- Node37&#45;&gt;Node11 -->
<g id="edge93" class="edge">
<title>Node37&#45;&gt;Node11</title>
<path fill="none" stroke="#191970" d="M2022.6775,-307.8631C2013.4752,-285.8432 1990.7687,-231.5098 1978.6407,-202.4894"/>
<polygon fill="#191970" stroke="#191970" points="1981.7811,-200.9267 1974.6958,-193.0496 1975.3224,-203.6259 1981.7811,-200.9267"/>
</g>
<!-- Node37&#45;&gt;Node20 -->
<g id="edge95" class="edge">
<title>Node37&#45;&gt;Node20</title>
<path fill="none" stroke="#191970" d="M2056.4424,-307.8901C2075.6641,-299.9537 2099.1726,-286.5976 2110.7049,-266 2131.983,-227.9957 2138.9969,-201.1156 2110.7049,-168 2096.8851,-151.824 1978.1057,-137.2436 1896.6387,-129.0177"/>
<polygon fill="#191970" stroke="#191970" points="1896.6994,-125.5065 1886.4016,-127.9974 1896.0051,-132.4719 1896.6994,-125.5065"/>
</g>
<!-- Node38&#45;&gt;Node3 -->
<g id="edge98" class="edge">
<title>Node38&#45;&gt;Node3</title>
<path fill="none" stroke="#191970" d="M100.4572,-369.2315C101.6159,-344.3625 103.7049,-293.5574 103.7049,-250.5 103.7049,-250.5 103.7049,-250.5 103.7049,-183.5 103.7049,-149.9798 101.872,-133.3604 127.7049,-112 148.8053,-94.5528 315.3869,-78.3741 406.926,-70.6885"/>
<polygon fill="#191970" stroke="#191970" points="407.4867,-74.154 417.1626,-69.8381 406.9071,-67.1781 407.4867,-74.154"/>
</g>
<!-- Node38&#45;&gt;Node25 -->
<g id="edge100" class="edge">
<title>Node38&#45;&gt;Node25</title>
<path fill="none" stroke="#191970" d="M153.4214,-371.707C158.2385,-370.7261 163.0519,-369.806 167.7049,-369 300.2855,-346.0343 457.5908,-330.0514 540.6352,-322.4828"/>
<polygon fill="#191970" stroke="#191970" points="540.9871,-325.9653 550.6316,-321.5797 540.3572,-318.9937 540.9871,-325.9653"/>
</g>
<!-- Node38&#45;&gt;Node26 -->
<g id="edge99" class="edge">
<title>Node38&#45;&gt;Node26</title>
<path fill="none" stroke="#191970" d="M153.2837,-381.8995C252.7832,-376.5475 472.6297,-362.2662 655.7049,-333 771.0375,-314.563 904.4831,-280.7453 972.2493,-262.6624"/>
<polygon fill="#191970" stroke="#191970" points="973.4027,-265.9769 982.155,-260.0062 971.5897,-259.2157 973.4027,-265.9769"/>
</g>
<!-- Node39 -->
<g id="node40" class="node">
<title>Node39</title>
<g id="a_node40"><a xlink:href="_interpreter_issue_8h.html" target="_top" xlink:title="Identifies some common problems with SCXML documents. ">
<polygon fill="#ffffff" stroke="#000000" points="514.2049,-168.5 514.2049,-198.5 641.2049,-198.5 641.2049,-168.5 514.2049,-168.5"/>
<text text-anchor="start" x="522.2049" y="-186.5" font-family="Helvetica,sans-Serif" font-size="10.00" fill="#000000">uscxml/debug/Interpreter</text>
<text text-anchor="middle" x="577.7049" y="-175.5" font-family="Helvetica,sans-Serif" font-size="10.00" fill="#000000">Issue.h</text>
</a>
</g>
</g>
<!-- Node38&#45;&gt;Node39 -->
<g id="edge101" class="edge">
<title>Node38&#45;&gt;Node39</title>
<path fill="none" stroke="#191970" d="M135.6326,-369.3923C221.4853,-333.2911 438.4051,-242.0759 532.7373,-202.409"/>
<polygon fill="#191970" stroke="#191970" points="534.1509,-205.6115 542.0123,-198.5088 531.4374,-199.1588 534.1509,-205.6115"/>
</g>
<!-- Node40 -->
<g id="node41" class="node">
<title>Node40</title>
<polygon fill="#ffffff" stroke="#bfbfbf" points="31.7049,-308 31.7049,-327 75.7049,-327 75.7049,-308 31.7049,-308"/>
<text text-anchor="middle" x="53.7049" y="-315" font-family="Helvetica,sans-Serif" font-size="10.00" fill="#000000">mutex</text>
</g>
<!-- Node38&#45;&gt;Node40 -->
<g id="edge104" class="edge">
<title>Node38&#45;&gt;Node40</title>
<path fill="none" stroke="#191970" d="M89.2668,-369.2967C82.3781,-359.2631 73.3207,-346.0709 66.0708,-335.5113"/>
<polygon fill="#191970" stroke="#191970" points="68.8105,-333.318 60.265,-327.055 63.0397,-337.28 68.8105,-333.318"/>
</g>
<!-- Node39&#45;&gt;Node3 -->
<g id="edge102" class="edge">
<title>Node39&#45;&gt;Node3</title>
<path fill="none" stroke="#191970" d="M563.1936,-168.1389C542.3769,-146.1032 504.178,-105.6675 482.6136,-82.8403"/>
<polygon fill="#191970" stroke="#191970" points="485.147,-80.4253 475.7355,-75.5595 480.0585,-85.2323 485.147,-80.4253"/>
</g>
<!-- Node39&#45;&gt;Node8 -->
<g id="edge103" class="edge">
<title>Node39&#45;&gt;Node8</title>
<path fill="none" stroke="#191970" d="M641.3987,-179.0027C817.88,-166.5416 1307.7956,-131.9494 1423.8323,-123.7562"/>
<polygon fill="#191970" stroke="#191970" points="1424.4265,-127.2231 1434.1552,-123.0273 1423.9334,-120.2404 1424.4265,-127.2231"/>
</g>
</g>
</svg>
