<?xml version="1.0" encoding="UTF-8" standalone="no"?>
<!DOCTYPE svg PUBLIC "-//W3C//DTD SVG 1.1//EN"
 "http://www.w3.org/Graphics/SVG/1.1/DTD/svg11.dtd">
<!-- Generated by graphviz version 2.38.0 (20140413.2041)
 -->
<!-- Title: interpreter/FastMicroStep.h Pages: 1 -->
<!--zoomable 509 -->
<svg id="main" version="1.1" xmlns="http://www.w3.org/2000/svg" xmlns:xlink="http://www.w3.org/1999/xlink" xml:space="preserve" onload="init(evt)">
<style type="text/css"><![CDATA[
.edge:hover path { stroke: red; }
.edge:hover polygon { stroke: red; fill: red; }
]]></style>
<script type="text/javascript"><![CDATA[
var edges = document.getElementsByTagName('g');
if (edges && edges.length) {
  for (var i=0;i<edges.length;i++) {
    if (edges[i].id.substr(0,4)=='edge') {
      edges[i].setAttribute('class','edge');
    }
  }
}
]]></script>
        <defs>
                <circle id="rim" cx="0" cy="0" r="7"/>
                <circle id="rim2" cx="0" cy="0" r="3.5"/>
                <g id="zoomPlus">
                        <use xlink:href="#rim" fill="#404040">
                                <set attributeName="fill" to="#808080" begin="zoomplus.mouseover" end="zoomplus.mouseout"/>
                        </use>
                        <path d="M-4,0h8M0,-4v8" fill="none" stroke="white" stroke-width="1.5" pointer-events="none"/>
                </g>
                <g id="zoomMin">
                        <use xlink:href="#rim" fill="#404040">
                                <set attributeName="fill" to="#808080" begin="zoomminus.mouseover" end="zoomminus.mouseout"/>
                        </use>
                        <path d="M-4,0h8" fill="none" stroke="white" stroke-width="1.5" pointer-events="none"/>
                </g>
                <g id="dirArrow">
                        <path fill="none" stroke="white" stroke-width="1.5" d="M0,-3.0v7 M-2.5,-0.5L0,-3.0L2.5,-0.5"/>
                </g>
               <g id="resetDef">
                       <use xlink:href="#rim2" fill="#404040">
                               <set attributeName="fill" to="#808080" begin="reset.mouseover" end="reset.mouseout"/>
                       </use>
               </g>
        </defs>

<script type="text/javascript">
var viewWidth = 1594;
var viewHeight = 509;
var sectionId = 'dynsection-0';
</script>
<script xlink:href="svgpan.js"/>
<svg id="graph" class="graph">
<g id="viewport">
<title>interpreter/FastMicroStep.h</title>
<polygon fill="white" stroke="none" points="-4,4 -4,-505 1590.24,-505 1590.24,4 -4,4"/>
<!-- Node1 -->
<g id="node1" class="node"><title>Node1</title>
<polygon fill="#bfbfbf" stroke="black" points="394.24,-481.5 394.24,-500.5 532.24,-500.5 532.24,-481.5 394.24,-481.5"/>
<text text-anchor="middle" x="463.24" y="-488.5" font-family="Helvetica,sans-Serif" font-size="10.00">interpreter/FastMicroStep.h</text>
</g>
<!-- Node2 -->
<g id="node2" class="node"><title>Node2</title>
<polygon fill="white" stroke="#bfbfbf" points="1314.74,-118 1314.74,-137 1399.74,-137 1399.74,-118 1314.74,-118"/>
<text text-anchor="middle" x="1357.24" y="-125" font-family="Helvetica,sans-Serif" font-size="10.00">uscxml/config.h</text>
</g>
<!-- Node1&#45;&gt;Node2 -->
<g id="edge1" class="edge"><title>Node1&#45;&gt;Node2</title>
<path fill="none" stroke="midnightblue" d="M532.253,-489.379C753.118,-486.487 1428.24,-470.264 1428.24,-380 1428.24,-380 1428.24,-380 1428.24,-322 1428.24,-253.575 1388.63,-179.41 1368.58,-146.257"/>
<polygon fill="midnightblue" stroke="midnightblue" points="1371.29,-143.992 1363.05,-137.336 1365.34,-147.68 1371.29,-143.992"/>
</g>
<!-- Node3 -->
<g id="node3" class="node"><title>Node3</title>
<g id="a_node3"><a xlink:href="_d_o_m_8h.html" target="_top" xlink:title="uscxml/util/DOM.h">
<polygon fill="white" stroke="black" points="268.24,-425.5 268.24,-444.5 366.24,-444.5 366.24,-425.5 268.24,-425.5"/>
<text text-anchor="middle" x="317.24" y="-432.5" font-family="Helvetica,sans-Serif" font-size="10.00">uscxml/util/DOM.h</text>
</a>
</g>
</g>
<!-- Node1&#45;&gt;Node3 -->
<g id="edge2" class="edge"><title>Node1&#45;&gt;Node3</title>
<path fill="none" stroke="midnightblue" d="M440.106,-481.444C415.758,-472.438 377.233,-458.189 349.817,-448.049"/>
<polygon fill="midnightblue" stroke="midnightblue" points="350.859,-444.703 340.266,-444.516 348.431,-451.268 350.859,-444.703"/>
</g>
<!-- Node4 -->
<g id="node4" class="node"><title>Node4</title>
<polygon fill="white" stroke="#bfbfbf" points="13.2401,-369.5 13.2401,-388.5 43.2401,-388.5 43.2401,-369.5 13.2401,-369.5"/>
<text text-anchor="middle" x="28.2401" y="-376.5" font-family="Helvetica,sans-Serif" font-size="10.00">set</text>
</g>
<!-- Node1&#45;&gt;Node4 -->
<g id="edge13" class="edge"><title>Node1&#45;&gt;Node4</title>
<path fill="none" stroke="midnightblue" d="M420.084,-481.491C346.369,-466.505 191.557,-433.064 53.3222,-389.114"/>
<polygon fill="midnightblue" stroke="midnightblue" points="53.9905,-385.653 43.3993,-385.932 51.8527,-392.319 53.9905,-385.653"/>
</g>
<!-- Node12 -->
<g id="node12" class="node"><title>Node12</title>
<polygon fill="white" stroke="#bfbfbf" points="314.24,-313.5 314.24,-332.5 358.24,-332.5 358.24,-313.5 314.24,-313.5"/>
<text text-anchor="middle" x="336.24" y="-320.5" font-family="Helvetica,sans-Serif" font-size="10.00">vector</text>
</g>
<!-- Node1&#45;&gt;Node12 -->
<g id="edge12" class="edge"><title>Node1&#45;&gt;Node12</title>
<path fill="none" stroke="midnightblue" d="M393.834,-485.562C277.117,-476.438 49.7822,-450.967 4.24005,-389 -1.02402,-381.837 -1.60802,-375.694 4.24005,-369 42.9025,-324.744 227.37,-322.316 303.385,-323.257"/>
<polygon fill="midnightblue" stroke="midnightblue" points="303.731,-326.763 313.783,-323.416 303.838,-319.764 303.731,-326.763"/>
</g>
<!-- Node13 -->
<g id="node13" class="node"><title>Node13</title>
<g id="a_node13"><a xlink:href="_micro_step_impl_8h.html" target="_top" xlink:title="MicroStepImpl.h">
<polygon fill="white" stroke="black" points="564.74,-425.5 564.74,-444.5 653.74,-444.5 653.74,-425.5 564.74,-425.5"/>
<text text-anchor="middle" x="609.24" y="-432.5" font-family="Helvetica,sans-Serif" font-size="10.00">MicroStepImpl.h</text>
</a>
</g>
</g>
<!-- Node1&#45;&gt;Node13 -->
<g id="edge14" class="edge"><title>Node1&#45;&gt;Node13</title>
<path fill="none" stroke="midnightblue" d="M486.374,-481.444C510.722,-472.438 549.247,-458.189 576.663,-448.049"/>
<polygon fill="midnightblue" stroke="midnightblue" points="578.049,-451.268 586.214,-444.516 575.621,-444.703 578.049,-451.268"/>
</g>
<!-- Node29 -->
<g id="node29" class="node"><title>Node29</title>
<polygon fill="white" stroke="#bfbfbf" points="1456.24,-425.5 1456.24,-444.5 1586.24,-444.5 1586.24,-425.5 1456.24,-425.5"/>
<text text-anchor="middle" x="1521.24" y="-432.5" font-family="Helvetica,sans-Serif" font-size="10.00">boost/dynamic_bitset.hpp</text>
</g>
<!-- Node1&#45;&gt;Node29 -->
<g id="edge64" class="edge"><title>Node1&#45;&gt;Node29</title>
<path fill="none" stroke="midnightblue" d="M532.481,-488.423C692.741,-484.423 1101.55,-472.205 1442.24,-445 1443.52,-444.898 1444.81,-444.792 1446.1,-444.681"/>
<polygon fill="midnightblue" stroke="midnightblue" points="1446.54,-448.156 1456.18,-443.764 1445.9,-441.185 1446.54,-448.156"/>
</g>
<!-- Node3&#45;&gt;Node2 -->
<g id="edge6" class="edge"><title>Node3&#45;&gt;Node2</title>
<path fill="none" stroke="midnightblue" d="M366.341,-431.192C567.013,-419.398 1314.24,-372.242 1314.24,-324 1314.24,-324 1314.24,-324 1314.24,-260.5 1314.24,-217.71 1334.92,-170.784 1347.6,-146.039"/>
<polygon fill="midnightblue" stroke="midnightblue" points="1350.72,-147.619 1352.31,-137.143 1344.54,-144.344 1350.72,-147.619"/>
</g>
<!-- Node3&#45;&gt;Node4 -->
<g id="edge3" class="edge"><title>Node3&#45;&gt;Node4</title>
<path fill="none" stroke="midnightblue" d="M267.793,-428.465C216.202,-422.055 132.951,-409.928 53.0569,-388.781"/>
<polygon fill="midnightblue" stroke="midnightblue" points="53.8992,-385.383 43.3327,-386.157 52.0756,-392.142 53.8992,-385.383"/>
</g>
<!-- Node5 -->
<g id="node5" class="node"><title>Node5</title>
<polygon fill="white" stroke="#bfbfbf" points="300.74,-118 300.74,-137 329.74,-137 329.74,-118 300.74,-118"/>
<text text-anchor="middle" x="315.24" y="-125" font-family="Helvetica,sans-Serif" font-size="10.00">list</text>
</g>
<!-- Node3&#45;&gt;Node5 -->
<g id="edge4" class="edge"><title>Node3&#45;&gt;Node5</title>
<path fill="none" stroke="midnightblue" d="M315.867,-425.384C313.172,-407.983 307.275,-367.373 305.24,-333 301.184,-264.48 308.937,-182.975 312.991,-147.06"/>
<polygon fill="midnightblue" stroke="midnightblue" points="316.473,-147.414 314.158,-137.075 309.521,-146.602 316.473,-147.414"/>
</g>
<!-- Node6 -->
<g id="node6" class="node"><title>Node6</title>
<polygon fill="white" stroke="#bfbfbf" points="61.7401,-369.5 61.7401,-388.5 116.74,-388.5 116.74,-369.5 61.7401,-369.5"/>
<text text-anchor="middle" x="89.2401" y="-376.5" font-family="Helvetica,sans-Serif" font-size="10.00">iostream</text>
</g>
<!-- Node3&#45;&gt;Node6 -->
<g id="edge5" class="edge"><title>Node3&#45;&gt;Node6</title>
<path fill="none" stroke="midnightblue" d="M280.035,-425.451C243.368,-416.988 185.489,-403.528 126.59,-389.303"/>
<polygon fill="midnightblue" stroke="midnightblue" points="127.29,-385.872 116.747,-386.921 125.643,-392.675 127.29,-385.872"/>
</g>
<!-- Node7 -->
<g id="node7" class="node"><title>Node7</title>
<g id="a_node7"><a xlink:href="_common_8h.html" target="_top" xlink:title="uscxml/Common.h">
<polygon fill="white" stroke="black" points="916.74,-56.5 916.74,-75.5 1015.74,-75.5 1015.74,-56.5 916.74,-56.5"/>
<text text-anchor="middle" x="966.24" y="-63.5" font-family="Helvetica,sans-Serif" font-size="10.00">uscxml/Common.h</text>
</a>
</g>
</g>
<!-- Node3&#45;&gt;Node7 -->
<g id="edge7" class="edge"><title>Node3&#45;&gt;Node7</title>
<path fill="none" stroke="midnightblue" d="M320.497,-425.469C325.963,-412.065 338.091,-385.864 355.24,-369 365.624,-358.788 798.816,-117.649 812.24,-112 846.609,-97.5383 887.144,-85.8962 917.998,-78.0793"/>
<polygon fill="midnightblue" stroke="midnightblue" points="919.208,-81.3854 928.068,-75.5765 917.519,-74.5921 919.208,-81.3854"/>
</g>
<!-- Node10 -->
<g id="node10" class="node"><title>Node10</title>
<polygon fill="white" stroke="#bfbfbf" points="134.74,-369.5 134.74,-388.5 269.74,-388.5 269.74,-369.5 134.74,-369.5"/>
<text text-anchor="middle" x="202.24" y="-376.5" font-family="Helvetica,sans-Serif" font-size="10.00">xercesc/util/XMLString.hpp</text>
</g>
<!-- Node3&#45;&gt;Node10 -->
<g id="edge10" class="edge"><title>Node3&#45;&gt;Node10</title>
<path fill="none" stroke="midnightblue" d="M299.018,-425.444C280.344,-416.675 251.084,-402.935 229.623,-392.858"/>
<polygon fill="midnightblue" stroke="midnightblue" points="230.916,-389.599 220.377,-388.516 227.941,-395.935 230.916,-389.599"/>
</g>
<!-- Node11 -->
<g id="node11" class="node"><title>Node11</title>
<polygon fill="white" stroke="#bfbfbf" points="364.74,-369.5 364.74,-388.5 483.74,-388.5 483.74,-369.5 364.74,-369.5"/>
<text text-anchor="middle" x="424.24" y="-376.5" font-family="Helvetica,sans-Serif" font-size="10.00">xercesc/dom/DOM.hpp</text>
</g>
<!-- Node3&#45;&gt;Node11 -->
<g id="edge11" class="edge"><title>Node3&#45;&gt;Node11</title>
<path fill="none" stroke="midnightblue" d="M334.431,-425.324C351.591,-416.664 378.186,-403.242 397.987,-393.249"/>
<polygon fill="midnightblue" stroke="midnightblue" points="399.741,-396.285 407.091,-388.655 396.587,-390.035 399.741,-396.285"/>
</g>
<!-- Node8 -->
<g id="node8" class="node"><title>Node8</title>
<polygon fill="white" stroke="#bfbfbf" points="892.24,-0.5 892.24,-19.5 964.24,-19.5 964.24,-0.5 892.24,-0.5"/>
<text text-anchor="middle" x="928.24" y="-7.5" font-family="Helvetica,sans-Serif" font-size="10.00">sys/socket.h</text>
</g>
<!-- Node7&#45;&gt;Node8 -->
<g id="edge8" class="edge"><title>Node7&#45;&gt;Node8</title>
<path fill="none" stroke="midnightblue" d="M959.965,-56.083C954.598,-48.4554 946.722,-37.2645 940.161,-27.9408"/>
<polygon fill="midnightblue" stroke="midnightblue" points="943.016,-25.9149 934.398,-19.7511 937.291,-29.9434 943.016,-25.9149"/>
</g>
<!-- Node9 -->
<g id="node9" class="node"><title>Node9</title>
<polygon fill="white" stroke="#bfbfbf" points="982.24,-0.5 982.24,-19.5 1026.24,-19.5 1026.24,-0.5 982.24,-0.5"/>
<text text-anchor="middle" x="1004.24" y="-7.5" font-family="Helvetica,sans-Serif" font-size="10.00">cmath</text>
</g>
<!-- Node7&#45;&gt;Node9 -->
<g id="edge9" class="edge"><title>Node7&#45;&gt;Node9</title>
<path fill="none" stroke="midnightblue" d="M972.515,-56.083C977.883,-48.4554 985.758,-37.2645 992.319,-27.9408"/>
<polygon fill="midnightblue" stroke="midnightblue" points="995.189,-29.9434 998.082,-19.7511 989.465,-25.9149 995.189,-29.9434"/>
</g>
<!-- Node13&#45;&gt;Node2 -->
<g id="edge15" class="edge"><title>Node13&#45;&gt;Node2</title>
<path fill="none" stroke="midnightblue" d="M653.99,-433.997C802.733,-433.607 1274.25,-429.183 1328.24,-389 1352.94,-370.614 1352.24,-354.795 1352.24,-324 1352.24,-324 1352.24,-324 1352.24,-260.5 1352.24,-220.129 1354.6,-172.862 1356.08,-147.273"/>
<polygon fill="midnightblue" stroke="midnightblue" points="1359.58,-147.335 1356.69,-137.144 1352.6,-146.918 1359.58,-147.335"/>
</g>
<!-- Node13&#45;&gt;Node5 -->
<g id="edge16" class="edge"><title>Node13&#45;&gt;Node5</title>
<path fill="none" stroke="midnightblue" d="M598.903,-425.376C557.298,-390.553 402.395,-259.794 362.24,-210 346.107,-189.995 332.051,-163.793 323.613,-146.569"/>
<polygon fill="midnightblue" stroke="midnightblue" points="326.58,-144.661 319.117,-137.141 320.262,-147.674 326.58,-144.661"/>
</g>
<!-- Node13&#45;&gt;Node7 -->
<g id="edge19" class="edge"><title>Node13&#45;&gt;Node7</title>
<path fill="none" stroke="midnightblue" d="M653.989,-434.227C806.214,-434.602 1297.6,-432.412 1352.24,-389 1451.92,-309.799 1510.76,-206.315 1425.24,-112 1421.91,-108.331 1149.33,-83.4339 1025.85,-72.3286"/>
<polygon fill="midnightblue" stroke="midnightblue" points="1026.08,-68.8346 1015.8,-71.4255 1025.45,-75.8065 1026.08,-68.8346"/>
</g>
<!-- Node13&#45;&gt;Node11 -->
<g id="edge18" class="edge"><title>Node13&#45;&gt;Node11</title>
<path fill="none" stroke="midnightblue" d="M579.926,-425.444C548.398,-416.241 498.109,-401.562 463.254,-391.388"/>
<polygon fill="midnightblue" stroke="midnightblue" points="463.997,-387.959 453.417,-388.516 462.035,-394.678 463.997,-387.959"/>
</g>
<!-- Node14 -->
<g id="node14" class="node"><title>Node14</title>
<polygon fill="white" stroke="#bfbfbf" points="356.74,-56.5 356.74,-75.5 397.74,-75.5 397.74,-56.5 356.74,-56.5"/>
<text text-anchor="middle" x="377.24" y="-63.5" font-family="Helvetica,sans-Serif" font-size="10.00">string</text>
</g>
<!-- Node13&#45;&gt;Node14 -->
<g id="edge17" class="edge"><title>Node13&#45;&gt;Node14</title>
<path fill="none" stroke="midnightblue" d="M593.889,-425.39C562.764,-407.942 494.929,-369.977 492.24,-369 412.695,-340.086 367.849,-389.953 305.24,-333 231.516,-265.936 211.689,-194.746 267.24,-112 284.727,-85.9523 320.247,-74.9717 346.209,-70.349"/>
<polygon fill="midnightblue" stroke="midnightblue" points="346.979,-73.7714 356.323,-68.7776 345.905,-66.8544 346.979,-73.7714"/>
</g>
<!-- Node15 -->
<g id="node15" class="node"><title>Node15</title>
<g id="a_node15"><a xlink:href="_interpreter_8h.html" target="_top" xlink:title="uscxml/Interpreter.h">
<polygon fill="white" stroke="black" points="785.74,-369.5 785.74,-388.5 890.74,-388.5 890.74,-369.5 785.74,-369.5"/>
<text text-anchor="middle" x="838.24" y="-376.5" font-family="Helvetica,sans-Serif" font-size="10.00">uscxml/Interpreter.h</text>
</a>
</g>
</g>
<!-- Node13&#45;&gt;Node15 -->
<g id="edge20" class="edge"><title>Node13&#45;&gt;Node15</title>
<path fill="none" stroke="midnightblue" d="M645.526,-425.444C685.223,-416.083 748.947,-401.056 792.152,-390.868"/>
<polygon fill="midnightblue" stroke="midnightblue" points="793.194,-394.218 802.124,-388.516 791.588,-387.405 793.194,-394.218"/>
</g>
<!-- Node21 -->
<g id="node21" class="node"><title>Node21</title>
<g id="a_node21"><a xlink:href="_event_8h.html" target="_top" xlink:title="uscxml/messages/Event.h">
<polygon fill="white" stroke="black" points="676.74,-252 676.74,-271 809.74,-271 809.74,-252 676.74,-252"/>
<text text-anchor="middle" x="743.24" y="-259" font-family="Helvetica,sans-Serif" font-size="10.00">uscxml/messages/Event.h</text>
</a>
</g>
</g>
<!-- Node13&#45;&gt;Node21 -->
<g id="edge63" class="edge"><title>Node13&#45;&gt;Node21</title>
<path fill="none" stroke="midnightblue" d="M616.007,-425.356C629.668,-407.905 661.517,-367.21 688.24,-333 702.643,-314.562 719.151,-293.398 730.293,-279.108"/>
<polygon fill="midnightblue" stroke="midnightblue" points="733.081,-281.224 736.47,-271.186 727.561,-276.92 733.081,-281.224"/>
</g>
<!-- Node15&#45;&gt;Node7 -->
<g id="edge21" class="edge"><title>Node15&#45;&gt;Node7</title>
<path fill="none" stroke="midnightblue" d="M890.842,-377.384C1014.36,-372.612 1319.27,-340.555 1409.24,-143 1414.95,-130.461 1418.48,-122.223 1409.24,-112 1406.05,-108.473 1146.06,-83.7833 1025.91,-72.5464"/>
<polygon fill="midnightblue" stroke="midnightblue" points="1026.05,-69.0446 1015.77,-71.599 1025.4,-76.0142 1026.05,-69.0446"/>
</g>
<!-- Node15&#45;&gt;Node12 -->
<g id="edge24" class="edge"><title>Node15&#45;&gt;Node12</title>
<path fill="none" stroke="midnightblue" d="M785.466,-372.323C681.42,-361.131 452.607,-336.518 368.273,-327.446"/>
<polygon fill="midnightblue" stroke="midnightblue" points="368.583,-323.959 358.266,-326.369 367.834,-330.919 368.583,-323.959"/>
</g>
<!-- Node15&#45;&gt;Node14 -->
<g id="edge23" class="edge"><title>Node15&#45;&gt;Node14</title>
<path fill="none" stroke="midnightblue" d="M785.637,-377.609C695.375,-374.644 508.09,-358.269 377.24,-277 305.544,-232.471 238.254,-183.41 283.24,-112 297.06,-90.0619 324.863,-78.5839 346.664,-72.7297"/>
<polygon fill="midnightblue" stroke="midnightblue" points="347.594,-76.1057 356.491,-70.3522 345.948,-69.302 347.594,-76.1057"/>
</g>
<!-- Node16 -->
<g id="node16" class="node"><title>Node16</title>
<polygon fill="white" stroke="#bfbfbf" points="1222.24,-118 1222.24,-137 1258.24,-137 1258.24,-118 1222.24,-118"/>
<text text-anchor="middle" x="1240.24" y="-125" font-family="Helvetica,sans-Serif" font-size="10.00">map</text>
</g>
<!-- Node15&#45;&gt;Node16 -->
<g id="edge22" class="edge"><title>Node15&#45;&gt;Node16</title>
<path fill="none" stroke="midnightblue" d="M852.078,-369.412C911.393,-332.598 1144.47,-187.938 1217.94,-142.343"/>
<polygon fill="midnightblue" stroke="midnightblue" points="1219.81,-145.299 1226.46,-137.052 1216.12,-139.352 1219.81,-145.299"/>
</g>
<!-- Node17 -->
<g id="node17" class="node"><title>Node17</title>
<g id="a_node17"><a xlink:href="_micro_step_8h.html" target="_top" xlink:title="uscxml/interpreter\l/MicroStep.h">
<polygon fill="white" stroke="black" points="764.24,-179.5 764.24,-209.5 860.24,-209.5 860.24,-179.5 764.24,-179.5"/>
<text text-anchor="start" x="772.24" y="-197.5" font-family="Helvetica,sans-Serif" font-size="10.00">uscxml/interpreter</text>
<text text-anchor="middle" x="812.24" y="-186.5" font-family="Helvetica,sans-Serif" font-size="10.00">/MicroStep.h</text>
</a>
</g>
</g>
<!-- Node15&#45;&gt;Node17 -->
<g id="edge25" class="edge"><title>Node15&#45;&gt;Node17</title>
<path fill="none" stroke="midnightblue" d="M836.986,-369.198C833.159,-342.334 821.535,-260.744 815.683,-219.668"/>
<polygon fill="midnightblue" stroke="midnightblue" points="819.138,-219.101 814.262,-209.695 812.208,-220.088 819.138,-219.101"/>
</g>
<!-- Node19 -->
<g id="node19" class="node"><title>Node19</title>
<g id="a_node19"><a xlink:href="_interpreter_state_8h.html" target="_top" xlink:title="uscxml/interpreter\l/InterpreterState.h">
<polygon fill="white" stroke="black" points="840.74,-112.5 840.74,-142.5 937.74,-142.5 937.74,-112.5 840.74,-112.5"/>
<text text-anchor="start" x="848.74" y="-130.5" font-family="Helvetica,sans-Serif" font-size="10.00">uscxml/interpreter</text>
<text text-anchor="middle" x="889.24" y="-119.5" font-family="Helvetica,sans-Serif" font-size="10.00">/InterpreterState.h</text>
</a>
</g>
</g>
<!-- Node15&#45;&gt;Node19 -->
<g id="edge62" class="edge"><title>Node15&#45;&gt;Node19</title>
<path fill="none" stroke="midnightblue" d="M839.996,-369.412C847.025,-335.021 873.294,-206.512 884.319,-152.573"/>
<polygon fill="midnightblue" stroke="midnightblue" points="887.796,-153.041 886.37,-142.542 880.938,-151.639 887.796,-153.041"/>
</g>
<!-- Node20 -->
<g id="node20" class="node"><title>Node20</title>
<g id="a_node20"><a xlink:href="_data_model_8h.html" target="_top" xlink:title="uscxml/plugins/DataModel.h">
<polygon fill="white" stroke="black" points="537.24,-313.5 537.24,-332.5 679.24,-332.5 679.24,-313.5 537.24,-313.5"/>
<text text-anchor="middle" x="608.24" y="-320.5" font-family="Helvetica,sans-Serif" font-size="10.00">uscxml/plugins/DataModel.h</text>
</a>
</g>
</g>
<!-- Node15&#45;&gt;Node20 -->
<g id="edge33" class="edge"><title>Node15&#45;&gt;Node20</title>
<path fill="none" stroke="midnightblue" d="M801.796,-369.444C761.841,-360.063 697.653,-344.993 654.255,-334.804"/>
<polygon fill="midnightblue" stroke="midnightblue" points="655.049,-331.395 644.514,-332.516 653.449,-338.21 655.049,-331.395"/>
</g>
<!-- Node28 -->
<g id="node28" class="node"><title>Node28</title>
<g id="a_node28"><a xlink:href="_content_executor_8h.html" target="_top" xlink:title="uscxml/interpreter\l/ContentExecutor.h">
<polygon fill="white" stroke="black" points="1144.24,-246.5 1144.24,-276.5 1246.24,-276.5 1246.24,-246.5 1144.24,-246.5"/>
<text text-anchor="start" x="1152.24" y="-264.5" font-family="Helvetica,sans-Serif" font-size="10.00">uscxml/interpreter</text>
<text text-anchor="middle" x="1195.24" y="-253.5" font-family="Helvetica,sans-Serif" font-size="10.00">/ContentExecutor.h</text>
</a>
</g>
</g>
<!-- Node15&#45;&gt;Node28 -->
<g id="edge57" class="edge"><title>Node15&#45;&gt;Node28</title>
<path fill="none" stroke="midnightblue" d="M890.907,-374.068C963.459,-367.946 1089.78,-354.552 1130.24,-333 1151.32,-321.774 1169.18,-300.995 1180.82,-284.893"/>
<polygon fill="midnightblue" stroke="midnightblue" points="1183.8,-286.731 1186.62,-276.518 1178.05,-282.744 1183.8,-286.731"/>
</g>
<!-- Node17&#45;&gt;Node2 -->
<g id="edge29" class="edge"><title>Node17&#45;&gt;Node2</title>
<path fill="none" stroke="midnightblue" d="M860.477,-188.45C960.887,-177.89 1189.47,-153.574 1267.24,-143 1279.37,-141.351 1292.38,-139.375 1304.64,-137.42"/>
<polygon fill="midnightblue" stroke="midnightblue" points="1305.41,-140.841 1314.73,-135.79 1304.3,-133.93 1305.41,-140.841"/>
</g>
<!-- Node17&#45;&gt;Node5 -->
<g id="edge27" class="edge"><title>Node17&#45;&gt;Node5</title>
<path fill="none" stroke="midnightblue" d="M763.983,-189.36C684.211,-182.175 519.964,-165.936 382.24,-143 368.024,-140.633 352.266,-137.26 339.605,-134.364"/>
<polygon fill="midnightblue" stroke="midnightblue" points="340.334,-130.94 329.801,-132.075 338.743,-137.757 340.334,-130.94"/>
</g>
<!-- Node17&#45;&gt;Node7 -->
<g id="edge30" class="edge"><title>Node17&#45;&gt;Node7</title>
<path fill="none" stroke="midnightblue" d="M811.598,-179.212C811.585,-161.266 814.31,-130.577 831.24,-112 850.57,-90.7891 880.153,-79.5621 906.705,-73.6257"/>
<polygon fill="midnightblue" stroke="midnightblue" points="907.599,-77.0157 916.705,-71.5997 906.209,-70.1551 907.599,-77.0157"/>
</g>
<!-- Node17&#45;&gt;Node14 -->
<g id="edge28" class="edge"><title>Node17&#45;&gt;Node14</title>
<path fill="none" stroke="midnightblue" d="M763.964,-190.505C679.035,-184.615 506.82,-169.718 453.24,-143 425.938,-129.385 402.509,-102.161 389.143,-84.2642"/>
<polygon fill="midnightblue" stroke="midnightblue" points="391.787,-81.9469 383.104,-75.8773 386.107,-86.0375 391.787,-81.9469"/>
</g>
<!-- Node18 -->
<g id="node18" class="node"><title>Node18</title>
<polygon fill="white" stroke="#bfbfbf" points="609.74,-56.5 609.74,-75.5 662.74,-75.5 662.74,-56.5 609.74,-56.5"/>
<text text-anchor="middle" x="636.24" y="-63.5" font-family="Helvetica,sans-Serif" font-size="10.00">memory</text>
</g>
<!-- Node17&#45;&gt;Node18 -->
<g id="edge26" class="edge"><title>Node17&#45;&gt;Node18</title>
<path fill="none" stroke="midnightblue" d="M763.91,-188.283C710.068,-181.357 628.084,-167.106 609.24,-143 595.561,-125.501 609.2,-100.508 621.555,-84.0271"/>
<polygon fill="midnightblue" stroke="midnightblue" points="624.586,-85.8415 628.105,-75.8482 619.122,-81.4658 624.586,-85.8415"/>
</g>
<!-- Node17&#45;&gt;Node19 -->
<g id="edge31" class="edge"><title>Node17&#45;&gt;Node19</title>
<path fill="none" stroke="midnightblue" d="M828.948,-179.396C839.442,-170.538 853.156,-158.96 864.853,-149.086"/>
<polygon fill="midnightblue" stroke="midnightblue" points="867.181,-151.702 872.565,-142.577 862.666,-146.353 867.181,-151.702"/>
</g>
<!-- Node19&#45;&gt;Node7 -->
<g id="edge32" class="edge"><title>Node19&#45;&gt;Node7</title>
<path fill="none" stroke="midnightblue" d="M907.488,-112.399C919.369,-103.218 934.847,-91.2579 946.934,-81.9182"/>
<polygon fill="midnightblue" stroke="midnightblue" points="949.263,-84.5418 955.036,-75.6578 944.983,-79.0028 949.263,-84.5418"/>
</g>
<!-- Node20&#45;&gt;Node5 -->
<g id="edge54" class="edge"><title>Node20&#45;&gt;Node5</title>
<path fill="none" stroke="midnightblue" d="M575.473,-313.434C550.055,-305.975 514.51,-293.725 486.24,-277 421.282,-238.57 357.597,-174.28 329.797,-144.517"/>
<polygon fill="midnightblue" stroke="midnightblue" points="332.292,-142.06 322.936,-137.089 327.149,-146.81 332.292,-142.06"/>
</g>
<!-- Node20&#45;&gt;Node7 -->
<g id="edge34" class="edge"><title>Node20&#45;&gt;Node7</title>
<path fill="none" stroke="midnightblue" d="M612.312,-313.235C620.328,-297.043 639.791,-262.586 667.24,-246 745.291,-198.84 786.977,-249.355 869.24,-210 910.162,-190.423 922.296,-181.53 946.24,-143 957.134,-125.469 962.137,-102.117 964.407,-85.9466"/>
<polygon fill="midnightblue" stroke="midnightblue" points="967.929,-85.9674 965.622,-75.6267 960.977,-85.1488 967.929,-85.9674"/>
</g>
<!-- Node20&#45;&gt;Node14 -->
<g id="edge55" class="edge"><title>Node20&#45;&gt;Node14</title>
<path fill="none" stroke="midnightblue" d="M551.056,-313.481C517.137,-306.827 474.101,-295.512 439.24,-277 360.871,-235.385 326.381,-224.478 291.24,-143 285.784,-130.349 284.105,-123.786 291.24,-112 303.279,-92.1136 327.316,-80.5923 346.925,-74.1954"/>
<polygon fill="midnightblue" stroke="midnightblue" points="348.096,-77.4989 356.688,-71.3002 346.106,-70.7878 348.096,-77.4989"/>
</g>
<!-- Node20&#45;&gt;Node18 -->
<g id="edge56" class="edge"><title>Node20&#45;&gt;Node18</title>
<path fill="none" stroke="midnightblue" d="M592.961,-313.466C543.315,-284.681 393.136,-188.675 453.24,-112 471.057,-89.2706 551.333,-76.4894 599.447,-70.7451"/>
<polygon fill="midnightblue" stroke="midnightblue" points="599.946,-74.2109 609.481,-69.5932 599.148,-67.2566 599.946,-74.2109"/>
</g>
<!-- Node20&#45;&gt;Node21 -->
<g id="edge35" class="edge"><title>Node20&#45;&gt;Node21</title>
<path fill="none" stroke="midnightblue" d="M627.582,-313.475C650.339,-303.445 688.332,-286.7 714.528,-275.155"/>
<polygon fill="midnightblue" stroke="midnightblue" points="716.195,-278.245 723.934,-271.009 713.371,-271.839 716.195,-278.245"/>
</g>
<!-- Node22 -->
<g id="node22" class="node"><title>Node22</title>
<g id="a_node22"><a xlink:href="_data_8h.html" target="_top" xlink:title="uscxml/messages/Data.h">
<polygon fill="white" stroke="black" points="960.24,-185 960.24,-204 1088.24,-204 1088.24,-185 960.24,-185"/>
<text text-anchor="middle" x="1024.24" y="-192" font-family="Helvetica,sans-Serif" font-size="10.00">uscxml/messages/Data.h</text>
</a>
</g>
</g>
<!-- Node21&#45;&gt;Node22 -->
<g id="edge36" class="edge"><title>Node21&#45;&gt;Node22</title>
<path fill="none" stroke="midnightblue" d="M780.265,-251.936C830.913,-240.22 921.815,-219.193 977.219,-206.377"/>
<polygon fill="midnightblue" stroke="midnightblue" points="978.179,-209.747 987.133,-204.083 976.602,-202.927 978.179,-209.747"/>
</g>
<!-- Node27 -->
<g id="node27" class="node"><title>Node27</title>
<g id="a_node27"><a xlink:href="_u_u_i_d_8h.html" target="_top" xlink:title="uscxml/util/UUID.h">
<polygon fill="white" stroke="black" points="462.74,-118 462.74,-137 561.74,-137 561.74,-118 462.74,-118"/>
<text text-anchor="middle" x="512.24" y="-125" font-family="Helvetica,sans-Serif" font-size="10.00">uscxml/util/UUID.h</text>
</a>
</g>
</g>
<!-- Node21&#45;&gt;Node27 -->
<g id="edge51" class="edge"><title>Node21&#45;&gt;Node27</title>
<path fill="none" stroke="midnightblue" d="M728.083,-251.839C688.832,-229.409 583.623,-169.29 536.11,-142.14"/>
<polygon fill="midnightblue" stroke="midnightblue" points="537.571,-138.944 527.152,-137.021 534.098,-145.021 537.571,-138.944"/>
</g>
<!-- Node22&#45;&gt;Node2 -->
<g id="edge40" class="edge"><title>Node22&#45;&gt;Node2</title>
<path fill="none" stroke="midnightblue" d="M1068.12,-184.936C1129.05,-173.041 1239.16,-151.548 1304.5,-138.795"/>
<polygon fill="midnightblue" stroke="midnightblue" points="1305.44,-142.177 1314.58,-136.826 1304.1,-135.307 1305.44,-142.177"/>
</g>
<!-- Node22&#45;&gt;Node5 -->
<g id="edge37" class="edge"><title>Node22&#45;&gt;Node5</title>
<path fill="none" stroke="midnightblue" d="M960.149,-187.404C932.228,-184.774 899.119,-181.69 869.24,-179 684.408,-162.357 637.974,-160.697 453.24,-143 413.652,-139.208 367.734,-134.276 340.113,-131.252"/>
<polygon fill="midnightblue" stroke="midnightblue" points="340.461,-127.77 330.138,-130.156 339.696,-134.728 340.461,-127.77"/>
</g>
<!-- Node22&#45;&gt;Node7 -->
<g id="edge41" class="edge"><title>Node22&#45;&gt;Node7</title>
<path fill="none" stroke="midnightblue" d="M1025.66,-184.845C1027.78,-169.314 1030.34,-136.089 1018.24,-112 1011.96,-99.4976 1000.53,-89.0118 989.988,-81.3163"/>
<polygon fill="midnightblue" stroke="midnightblue" points="991.706,-78.2526 981.469,-75.5253 987.771,-84.0417 991.706,-78.2526"/>
</g>
<!-- Node22&#45;&gt;Node16 -->
<g id="edge38" class="edge"><title>Node22&#45;&gt;Node16</title>
<path fill="none" stroke="midnightblue" d="M1066.13,-184.969C1104.79,-176.465 1163.4,-161.949 1212.24,-143 1213.45,-142.532 1214.67,-142.027 1215.89,-141.496"/>
<polygon fill="midnightblue" stroke="midnightblue" points="1217.6,-144.559 1225.11,-137.088 1214.58,-138.244 1217.6,-144.559"/>
</g>
<!-- Node22&#45;&gt;Node18 -->
<g id="edge39" class="edge"><title>Node22&#45;&gt;Node18</title>
<path fill="none" stroke="midnightblue" d="M1018.85,-184.802C1007.68,-167.623 980.19,-129.492 946.24,-112 899.222,-87.7754 744.682,-74.3837 673.161,-69.3484"/>
<polygon fill="midnightblue" stroke="midnightblue" points="673.044,-65.8322 662.828,-68.6386 672.565,-72.8158 673.044,-65.8322"/>
</g>
<!-- Node23 -->
<g id="node23" class="node"><title>Node23</title>
<g id="a_node23"><a xlink:href="_convenience_8h.html" target="_top" xlink:title="uscxml/util/Convenience.h">
<polygon fill="white" stroke="black" points="1070.74,-118 1070.74,-137 1203.74,-137 1203.74,-118 1070.74,-118"/>
<text text-anchor="middle" x="1137.24" y="-125" font-family="Helvetica,sans-Serif" font-size="10.00">uscxml/util/Convenience.h</text>
</a>
</g>
</g>
<!-- Node22&#45;&gt;Node23 -->
<g id="edge42" class="edge"><title>Node22&#45;&gt;Node23</title>
<path fill="none" stroke="midnightblue" d="M1039.48,-184.734C1058.46,-173.818 1091.09,-155.049 1113.39,-142.221"/>
<polygon fill="midnightblue" stroke="midnightblue" points="1115.32,-145.147 1122.24,-137.127 1111.83,-139.08 1115.32,-145.147"/>
</g>
<!-- Node26 -->
<g id="node26" class="node"><title>Node26</title>
<g id="a_node26"><a xlink:href="_blob_8h.html" target="_top" xlink:title="uscxml/messages/Blob.h">
<polygon fill="white" stroke="black" points="618.74,-118 618.74,-137 745.74,-137 745.74,-118 618.74,-118"/>
<text text-anchor="middle" x="682.24" y="-125" font-family="Helvetica,sans-Serif" font-size="10.00">uscxml/messages/Blob.h</text>
</a>
</g>
</g>
<!-- Node22&#45;&gt;Node26 -->
<g id="edge47" class="edge"><title>Node22&#45;&gt;Node26</title>
<path fill="none" stroke="midnightblue" d="M979.178,-184.936C916.81,-173.082 804.287,-151.696 737.105,-138.928"/>
<polygon fill="midnightblue" stroke="midnightblue" points="737.608,-135.461 727.13,-137.032 736.301,-142.337 737.608,-135.461"/>
</g>
<!-- Node23&#45;&gt;Node7 -->
<g id="edge43" class="edge"><title>Node23&#45;&gt;Node7</title>
<path fill="none" stroke="midnightblue" d="M1112.74,-117.975C1083.28,-107.725 1033.66,-90.4593 1000.44,-78.8994"/>
<polygon fill="midnightblue" stroke="midnightblue" points="1001.29,-75.4898 990.695,-75.5091 998.989,-82.101 1001.29,-75.4898"/>
</g>
<!-- Node23&#45;&gt;Node14 -->
<g id="edge44" class="edge"><title>Node23&#45;&gt;Node14</title>
<path fill="none" stroke="midnightblue" d="M1070.46,-121.272C912.383,-108.896 520.124,-78.1863 407.762,-69.3896"/>
<polygon fill="midnightblue" stroke="midnightblue" points="408.023,-65.8993 397.78,-68.6081 407.476,-72.878 408.023,-65.8993"/>
</g>
<!-- Node24 -->
<g id="node24" class="node"><title>Node24</title>
<polygon fill="white" stroke="#bfbfbf" points="1149.74,-56.5 1149.74,-75.5 1188.74,-75.5 1188.74,-56.5 1149.74,-56.5"/>
<text text-anchor="middle" x="1169.24" y="-63.5" font-family="Helvetica,sans-Serif" font-size="10.00">limits</text>
</g>
<!-- Node23&#45;&gt;Node24 -->
<g id="edge45" class="edge"><title>Node23&#45;&gt;Node24</title>
<path fill="none" stroke="midnightblue" d="M1141.82,-117.975C1146.48,-109.315 1153.83,-95.6486 1159.75,-84.6453"/>
<polygon fill="midnightblue" stroke="midnightblue" points="1163.01,-85.974 1164.66,-75.5091 1156.84,-82.6584 1163.01,-85.974"/>
</g>
<!-- Node25 -->
<g id="node25" class="node"><title>Node25</title>
<polygon fill="white" stroke="#bfbfbf" points="1079.24,-56.5 1079.24,-75.5 1131.24,-75.5 1131.24,-56.5 1079.24,-56.5"/>
<text text-anchor="middle" x="1105.24" y="-63.5" font-family="Helvetica,sans-Serif" font-size="10.00">sstream</text>
</g>
<!-- Node23&#45;&gt;Node25 -->
<g id="edge46" class="edge"><title>Node23&#45;&gt;Node25</title>
<path fill="none" stroke="midnightblue" d="M1132.66,-117.975C1128,-109.315 1120.65,-95.6486 1114.73,-84.6453"/>
<polygon fill="midnightblue" stroke="midnightblue" points="1117.64,-82.6584 1109.82,-75.5091 1111.47,-85.974 1117.64,-82.6584"/>
</g>
<!-- Node26&#45;&gt;Node7 -->
<g id="edge50" class="edge"><title>Node26&#45;&gt;Node7</title>
<path fill="none" stroke="midnightblue" d="M722.93,-117.975C773.755,-107.327 860.711,-89.1092 915.738,-77.5806"/>
<polygon fill="midnightblue" stroke="midnightblue" points="916.555,-80.9853 925.625,-75.5091 915.12,-74.1341 916.555,-80.9853"/>
</g>
<!-- Node26&#45;&gt;Node14 -->
<g id="edge48" class="edge"><title>Node26&#45;&gt;Node14</title>
<path fill="none" stroke="midnightblue" d="M638.541,-117.975C576,-105.774 462.518,-83.6362 408.042,-73.0089"/>
<polygon fill="midnightblue" stroke="midnightblue" points="408.451,-69.5228 397.966,-71.0433 407.111,-76.3933 408.451,-69.5228"/>
</g>
<!-- Node26&#45;&gt;Node18 -->
<g id="edge49" class="edge"><title>Node26&#45;&gt;Node18</title>
<path fill="none" stroke="midnightblue" d="M675.649,-117.975C668.749,-109.05 657.738,-94.8071 649.107,-83.6425"/>
<polygon fill="midnightblue" stroke="midnightblue" points="651.704,-81.2798 642.819,-75.5091 646.166,-85.5612 651.704,-81.2798"/>
</g>
<!-- Node27&#45;&gt;Node7 -->
<g id="edge52" class="edge"><title>Node27&#45;&gt;Node7</title>
<path fill="none" stroke="midnightblue" d="M562.054,-118.829C577.196,-116.558 593.89,-114.114 609.24,-112 713.642,-97.6187 835.48,-82.6494 906.434,-74.1126"/>
<polygon fill="midnightblue" stroke="midnightblue" points="907.014,-77.5681 916.525,-72.9005 906.179,-70.6181 907.014,-77.5681"/>
</g>
<!-- Node27&#45;&gt;Node14 -->
<g id="edge53" class="edge"><title>Node27&#45;&gt;Node14</title>
<path fill="none" stroke="midnightblue" d="M492.898,-117.975C470.142,-107.945 432.148,-91.2002 405.952,-79.6546"/>
<polygon fill="midnightblue" stroke="midnightblue" points="407.109,-76.3395 396.546,-75.5091 404.285,-82.7449 407.109,-76.3395"/>
</g>
<!-- Node28&#45;&gt;Node2 -->
<g id="edge58" class="edge"><title>Node28&#45;&gt;Node2</title>
<path fill="none" stroke="midnightblue" d="M1212.58,-246.374C1243.32,-221.327 1307.1,-169.355 1338.69,-143.617"/>
<polygon fill="midnightblue" stroke="midnightblue" points="1341.15,-146.127 1346.69,-137.097 1336.73,-140.701 1341.15,-146.127"/>
</g>
<!-- Node28&#45;&gt;Node7 -->
<g id="edge59" class="edge"><title>Node28&#45;&gt;Node7</title>
<path fill="none" stroke="midnightblue" d="M1206.02,-246.392C1230.38,-213.708 1286.13,-133.923 1267.24,-112 1259.42,-102.925 1111.59,-84.1201 1026.06,-73.9284"/>
<polygon fill="midnightblue" stroke="midnightblue" points="1026.3,-70.4319 1015.96,-72.7294 1025.48,-77.3832 1026.3,-70.4319"/>
</g>
<!-- Node28&#45;&gt;Node14 -->
<g id="edge61" class="edge"><title>Node28&#45;&gt;Node14</title>
<path fill="none" stroke="midnightblue" d="M1144.01,-259.392C988.287,-255.04 524.211,-234.502 410.24,-143 392.574,-128.816 384.154,-103.318 380.291,-85.7964"/>
<polygon fill="midnightblue" stroke="midnightblue" points="383.665,-84.8032 378.358,-75.633 376.788,-86.1108 383.665,-84.8032"/>
</g>
<!-- Node28&#45;&gt;Node22 -->
<g id="edge60" class="edge"><title>Node28&#45;&gt;Node22</title>
<path fill="none" stroke="midnightblue" d="M1158.14,-246.396C1127.73,-234.84 1085.16,-218.656 1056.24,-207.663"/>
<polygon fill="midnightblue" stroke="midnightblue" points="1057.21,-204.289 1046.62,-204.007 1054.72,-210.832 1057.21,-204.289"/>
</g>
</g>
</svg>
        <g id="navigator" transform="translate(0 0)" fill="#404254">
                <rect fill="#f2f5e9" fill-opacity="0.5" stroke="#606060" stroke-width=".5" x="0" y="0" width="60" height="60"/>
                <use id="zoomplus" xlink:href="#zoomPlus" x="17" y="9" onmousedown="handleZoom(evt,'in')"/>
                <use id="zoomminus" xlink:href="#zoomMin" x="42" y="9" onmousedown="handleZoom(evt,'out')"/>
                <use id="reset" xlink:href="#resetDef" x="30" y="36" onmousedown="handleReset()"/>
                <g id="arrowUp" xlink:href="#dirArrow" transform="translate(30 24)" onmousedown="handlePan(0,-1)">
                  <use xlink:href="#rim" fill="#404040">
                        <set attributeName="fill" to="#808080" begin="arrowUp.mouseover" end="arrowUp.mouseout"/>
                  </use>
                  <path fill="none" stroke="white" stroke-width="1.5" d="M0,-3.0v7 M-2.5,-0.5L0,-3.0L2.5,-0.5"/>
                </g>
                <g id="arrowRight" xlink:href="#dirArrow" transform="rotate(90) translate(36 -43)" onmousedown="handlePan(1,0)">
                  <use xlink:href="#rim" fill="#404040">
                        <set attributeName="fill" to="#808080" begin="arrowRight.mouseover" end="arrowRight.mouseout"/>
                  </use>
                  <path fill="none" stroke="white" stroke-width="1.5" d="M0,-3.0v7 M-2.5,-0.5L0,-3.0L2.5,-0.5"/>
                </g>
                <g id="arrowDown" xlink:href="#dirArrow" transform="rotate(180) translate(-30 -48)" onmousedown="handlePan(0,1)">
                  <use xlink:href="#rim" fill="#404040">
                        <set attributeName="fill" to="#808080" begin="arrowDown.mouseover" end="arrowDown.mouseout"/>
                  </use>
                  <path fill="none" stroke="white" stroke-width="1.5" d="M0,-3.0v7 M-2.5,-0.5L0,-3.0L2.5,-0.5"/>
                </g>
                <g id="arrowLeft" xlink:href="#dirArrow" transform="rotate(270) translate(-36 17)" onmousedown="handlePan(-1,0)">
                  <use xlink:href="#rim" fill="#404040">
                        <set attributeName="fill" to="#808080" begin="arrowLeft.mouseover" end="arrowLeft.mouseout"/>
                  </use>
                  <path fill="none" stroke="white" stroke-width="1.5" d="M0,-3.0v7 M-2.5,-0.5L0,-3.0L2.5,-0.5"/>
                </g>
        </g>
        <svg viewBox="0 0 15 15" width="100%" height="30px" preserveAspectRatio="xMaxYMin meet">
         <g id="arrow_out" transform="scale(0.3 0.3)">
          <a xlink:href="_fast_micro_step_8h__incl_org.svg" target="_base">
           <rect id="button" ry="5" rx="5" y="6" x="6" height="38" width="38"
                fill="#f2f5e9" fill-opacity="0.5" stroke="#606060" stroke-width="1.0"/>
           <path id="arrow"
             d="M 11.500037,31.436501 C 11.940474,20.09759 22.043105,11.32322 32.158766,21.979434 L 37.068811,17.246167 C 37.068811,17.246167 37.088388,32 37.088388,32 L 22.160133,31.978069 C 22.160133,31.978069 26.997745,27.140456 26.997745,27.140456 C 18.528582,18.264221 13.291696,25.230495 11.500037,31.436501 z"
             style="fill:#404040;"/>
          </a>
         </g>
        </svg>
</svg>
