<?xml version="1.0" encoding="UTF-8" standalone="no"?>
<!DOCTYPE svg PUBLIC "-//W3C//DTD SVG 1.1//EN"
 "http://www.w3.org/Graphics/SVG/1.1/DTD/svg11.dtd">
<!-- Generated by graphviz version 2.40.1 (20161225.0304)
 -->
<!-- Title: server/HTTPServer.cpp Pages: 1 -->
<svg width="2021pt" height="375pt"
 viewBox="0.00 0.00 2021.18 375.00" xmlns="http://www.w3.org/2000/svg" xmlns:xlink="http://www.w3.org/1999/xlink">
<g id="graph0" class="graph" transform="scale(1 1) rotate(0) translate(4 371)">
<title>server/HTTPServer.cpp</title>
<polygon fill="#ffffff" stroke="transparent" points="-4,4 -4,-371 2017.1828,-371 2017.1828,4 -4,4"/>
<!-- Node0 -->
<g id="node1" class="node">
<title>Node0</title>
<polygon fill="#bfbfbf" stroke="#000000" points="1190.1828,-347.5 1190.1828,-366.5 1312.1828,-366.5 1312.1828,-347.5 1190.1828,-347.5"/>
<text text-anchor="middle" x="1251.1828" y="-354.5" font-family="Helvetica,sans-Serif" font-size="10.00" fill="#000000">server/HTTPServer.cpp</text>
</g>
<!-- Node1 -->
<g id="node2" class="node">
<title>Node1</title>
<polygon fill="#ffffff" stroke="#bfbfbf" points="388.6828,-224.5 388.6828,-243.5 473.6828,-243.5 473.6828,-224.5 388.6828,-224.5"/>
<text text-anchor="middle" x="431.1828" y="-231.5" font-family="Helvetica,sans-Serif" font-size="10.00" fill="#000000">uscxml/config.h</text>
</g>
<!-- Node0&#45;&gt;Node1 -->
<g id="edge1" class="edge">
<title>Node0&#45;&gt;Node1</title>
<path fill="none" stroke="#191970" d="M1189.9265,-353.8634C1062.4488,-347.0488 772.4139,-329.9706 675.1828,-311 598.2118,-295.9823 511.3596,-265.0574 464.8618,-247.3078"/>
<polygon fill="#191970" stroke="#191970" points="465.8878,-243.9524 455.2981,-243.6249 463.3723,-250.4848 465.8878,-243.9524"/>
</g>
<!-- Node2 -->
<g id="node3" class="node">
<title>Node2</title>
<g id="a_node3"><a xlink:href="_h_t_t_p_server_8h.html" target="_top" xlink:title="HTTPServer.h">
<polygon fill="#ffffff" stroke="#000000" points="684.1828,-286 684.1828,-305 764.1828,-305 764.1828,-286 684.1828,-286"/>
<text text-anchor="middle" x="724.1828" y="-293" font-family="Helvetica,sans-Serif" font-size="10.00" fill="#000000">HTTPServer.h</text>
</a>
</g>
</g>
<!-- Node0&#45;&gt;Node2 -->
<g id="edge2" class="edge">
<title>Node0&#45;&gt;Node2</title>
<path fill="none" stroke="#191970" d="M1189.8333,-355.2172C1098.2754,-351.6317 920.8348,-341.1078 773.1828,-311 769.052,-310.1577 764.7768,-309.0983 760.5512,-307.9306"/>
<polygon fill="#191970" stroke="#191970" points="761.4553,-304.5481 750.8729,-305.0608 759.4652,-311.2593 761.4553,-304.5481"/>
</g>
<!-- Node5 -->
<g id="node6" class="node">
<title>Node5</title>
<polygon fill="#ffffff" stroke="#bfbfbf" points="656.6828,-56.5 656.6828,-75.5 697.6828,-75.5 697.6828,-56.5 656.6828,-56.5"/>
<text text-anchor="middle" x="677.1828" y="-63.5" font-family="Helvetica,sans-Serif" font-size="10.00" fill="#000000">string</text>
</g>
<!-- Node0&#45;&gt;Node5 -->
<g id="edge41" class="edge">
<title>Node0&#45;&gt;Node5</title>
<path fill="none" stroke="#191970" d="M1190.0377,-356.2431C1052.3066,-353.9631 707.4425,-345.0357 421.1828,-311 232.7324,-288.5936 1.1828,-423.7778 1.1828,-234 1.1828,-234 1.1828,-234 1.1828,-178 1.1828,-147.4754 -3.5485,-131.1984 20.1828,-112 44.8273,-92.0628 519.891,-72.1449 646.4342,-67.177"/>
<polygon fill="#191970" stroke="#191970" points="646.7348,-70.668 656.5908,-66.7811 646.4621,-63.6733 646.7348,-70.668"/>
</g>
<!-- Node19 -->
<g id="node20" class="node">
<title>Node19</title>
<g id="a_node20"><a xlink:href="_convenience_8h.html" target="_top" xlink:title="uscxml/util/Convenience.h">
<polygon fill="#ffffff" stroke="#000000" points="1314.6828,-112.5 1314.6828,-131.5 1447.6828,-131.5 1447.6828,-112.5 1314.6828,-112.5"/>
<text text-anchor="middle" x="1381.1828" y="-119.5" font-family="Helvetica,sans-Serif" font-size="10.00" fill="#000000">uscxml/util/Convenience.h</text>
</a>
</g>
</g>
<!-- Node0&#45;&gt;Node19 -->
<g id="edge58" class="edge">
<title>Node0&#45;&gt;Node19</title>
<path fill="none" stroke="#191970" d="M1312.3357,-351.7186C1394.5187,-343.9926 1532.1062,-328.6005 1547.1828,-311 1603.6809,-245.0437 1472.2354,-167.5107 1410.744,-136.1861"/>
<polygon fill="#191970" stroke="#191970" points="1412.0239,-132.9127 1401.5152,-131.5643 1408.8893,-139.1717 1412.0239,-132.9127"/>
</g>
<!-- Node24 -->
<g id="node25" class="node">
<title>Node24</title>
<g id="a_node25"><a xlink:href="_d_o_m_8h.html" target="_top" xlink:title="uscxml/util/DOM.h">
<polygon fill="#ffffff" stroke="#000000" points="311.1828,-168.5 311.1828,-187.5 409.1828,-187.5 409.1828,-168.5 311.1828,-168.5"/>
<text text-anchor="middle" x="360.1828" y="-175.5" font-family="Helvetica,sans-Serif" font-size="10.00" fill="#000000">uscxml/util/DOM.h</text>
</a>
</g>
</g>
<!-- Node0&#45;&gt;Node24 -->
<g id="edge34" class="edge">
<title>Node0&#45;&gt;Node24</title>
<path fill="none" stroke="#191970" d="M1190.1136,-355.2695C1043.7641,-350.7501 676.269,-337.0951 556.1828,-311 473.9871,-293.1386 436.186,-305.853 379.1828,-244 367.7059,-231.5466 363.1155,-212.596 361.303,-198.191"/>
<polygon fill="#191970" stroke="#191970" points="364.7521,-197.4685 360.3665,-187.8239 357.7805,-198.0983 364.7521,-197.4685"/>
</g>
<!-- Node28 -->
<g id="node29" class="node">
<title>Node28</title>
<polygon fill="#ffffff" stroke="#bfbfbf" points="896.1828,-286 896.1828,-305 970.1828,-305 970.1828,-286 896.1828,-286"/>
<text text-anchor="middle" x="933.1828" y="-293" font-family="Helvetica,sans-Serif" font-size="10.00" fill="#000000">event2/dns.h</text>
</g>
<!-- Node0&#45;&gt;Node28 -->
<g id="edge42" class="edge">
<title>Node0&#45;&gt;Node28</title>
<path fill="none" stroke="#191970" d="M1190.1169,-349.4748C1134.6136,-341.9746 1050.7124,-328.9806 979.1828,-311 975.8115,-310.1525 972.3322,-309.1757 968.8674,-308.1333"/>
<polygon fill="#191970" stroke="#191970" points="969.833,-304.7677 959.2426,-305.0745 967.7128,-311.4389 969.833,-304.7677"/>
</g>
<!-- Node29 -->
<g id="node30" class="node">
<title>Node29</title>
<polygon fill="#ffffff" stroke="#bfbfbf" points="988.1828,-286 988.1828,-305 1070.1828,-305 1070.1828,-286 988.1828,-286"/>
<text text-anchor="middle" x="1029.1828" y="-293" font-family="Helvetica,sans-Serif" font-size="10.00" fill="#000000">event2/event.h</text>
</g>
<!-- Node0&#45;&gt;Node29 -->
<g id="edge43" class="edge">
<title>Node0&#45;&gt;Node29</title>
<path fill="none" stroke="#191970" d="M1213.8233,-347.4603C1178.9036,-338.4367 1125.364,-324.3279 1079.1828,-311 1075.8511,-310.0385 1072.4018,-309.0192 1068.944,-307.9808"/>
<polygon fill="#191970" stroke="#191970" points="1069.8529,-304.599 1059.2671,-305.0358 1067.8148,-311.2958 1069.8529,-304.599"/>
</g>
<!-- Node30 -->
<g id="node31" class="node">
<title>Node30</title>
<polygon fill="#ffffff" stroke="#bfbfbf" points="1088.6828,-286 1088.6828,-305 1171.6828,-305 1171.6828,-286 1088.6828,-286"/>
<text text-anchor="middle" x="1130.1828" y="-293" font-family="Helvetica,sans-Serif" font-size="10.00" fill="#000000">event2/buffer.h</text>
</g>
<!-- Node0&#45;&gt;Node30 -->
<g id="edge44" class="edge">
<title>Node0&#45;&gt;Node30</title>
<path fill="none" stroke="#191970" d="M1232.2766,-347.3906C1212.3862,-337.2811 1180.8705,-321.2628 1158.1136,-309.6962"/>
<polygon fill="#191970" stroke="#191970" points="1159.4568,-306.4528 1148.9563,-305.0419 1156.2851,-312.693 1159.4568,-306.4528"/>
</g>
<!-- Node31 -->
<g id="node32" class="node">
<title>Node31</title>
<polygon fill="#ffffff" stroke="#bfbfbf" points="1190.1828,-286 1190.1828,-305 1312.1828,-305 1312.1828,-286 1190.1828,-286"/>
<text text-anchor="middle" x="1251.1828" y="-293" font-family="Helvetica,sans-Serif" font-size="10.00" fill="#000000">event2/keyvalq_struct.h</text>
</g>
<!-- Node0&#45;&gt;Node31 -->
<g id="edge45" class="edge">
<title>Node0&#45;&gt;Node31</title>
<path fill="none" stroke="#191970" d="M1251.1828,-347.3906C1251.1828,-338.8657 1251.1828,-326.1392 1251.1828,-315.4235"/>
<polygon fill="#191970" stroke="#191970" points="1254.6829,-315.2448 1251.1828,-305.2449 1247.6829,-315.2449 1254.6829,-315.2448"/>
</g>
<!-- Node32 -->
<g id="node33" class="node">
<title>Node32</title>
<polygon fill="#ffffff" stroke="#bfbfbf" points="1330.1828,-286 1330.1828,-305 1434.1828,-305 1434.1828,-286 1330.1828,-286"/>
<text text-anchor="middle" x="1382.1828" y="-293" font-family="Helvetica,sans-Serif" font-size="10.00" fill="#000000">event2/http_struct.h</text>
</g>
<!-- Node0&#45;&gt;Node32 -->
<g id="edge46" class="edge">
<title>Node0&#45;&gt;Node32</title>
<path fill="none" stroke="#191970" d="M1271.6516,-347.3906C1293.378,-337.1908 1327.9163,-320.9763 1352.6014,-309.3875"/>
<polygon fill="#191970" stroke="#191970" points="1354.2931,-312.4598 1361.8578,-305.0419 1351.3183,-306.1234 1354.2931,-312.4598"/>
</g>
<!-- Node33 -->
<g id="node34" class="node">
<title>Node33</title>
<polygon fill="#ffffff" stroke="#bfbfbf" points="1452.1828,-286 1452.1828,-305 1538.1828,-305 1538.1828,-286 1452.1828,-286"/>
<text text-anchor="middle" x="1495.1828" y="-293" font-family="Helvetica,sans-Serif" font-size="10.00" fill="#000000">event2/thread.h</text>
</g>
<!-- Node0&#45;&gt;Node33 -->
<g id="edge47" class="edge">
<title>Node0&#45;&gt;Node33</title>
<path fill="none" stroke="#191970" d="M1294.056,-347.4332C1333.0785,-338.5586 1392.2039,-324.6937 1443.1828,-311 1446.8077,-310.0263 1450.5639,-308.9802 1454.3227,-307.9079"/>
<polygon fill="#191970" stroke="#191970" points="1455.5645,-311.1919 1464.1901,-305.0397 1453.6106,-304.4701 1455.5645,-311.1919"/>
</g>
<!-- Node34 -->
<g id="node35" class="node">
<title>Node34</title>
<g id="a_node35"><a xlink:href="_logging_8h.html" target="_top" xlink:title="uscxml/interpreter\l/Logging.h">
<polygon fill="#ffffff" stroke="#000000" points="782.1828,-280.5 782.1828,-310.5 878.1828,-310.5 878.1828,-280.5 782.1828,-280.5"/>
<text text-anchor="start" x="790.1828" y="-298.5" font-family="Helvetica,sans-Serif" font-size="10.00" fill="#000000">uscxml/interpreter</text>
<text text-anchor="middle" x="830.1828" y="-287.5" font-family="Helvetica,sans-Serif" font-size="10.00" fill="#000000">/Logging.h</text>
</a>
</g>
</g>
<!-- Node0&#45;&gt;Node34 -->
<g id="edge48" class="edge">
<title>Node0&#45;&gt;Node34</title>
<path fill="none" stroke="#191970" d="M1189.9016,-351.8926C1119.3482,-345.4238 999.8778,-332.6676 888.3479,-311.0651"/>
<polygon fill="#191970" stroke="#191970" points="888.7601,-307.5792 878.2728,-309.0849 887.4101,-314.4478 888.7601,-307.5792"/>
</g>
<!-- Node35 -->
<g id="node36" class="node">
<title>Node35</title>
<polygon fill="#ffffff" stroke="#bfbfbf" points="1594.1828,-286 1594.1828,-305 1726.1828,-305 1726.1828,-286 1594.1828,-286"/>
<text text-anchor="middle" x="1660.1828" y="-293" font-family="Helvetica,sans-Serif" font-size="10.00" fill="#000000">boost/algorithm/string.hpp</text>
</g>
<!-- Node0&#45;&gt;Node35 -->
<g id="edge53" class="edge">
<title>Node0&#45;&gt;Node35</title>
<path fill="none" stroke="#191970" d="M1312.2686,-349.4334C1378.4349,-341.0104 1487.0272,-326.5259 1580.1828,-311 1587.654,-309.7548 1595.4993,-308.3525 1603.2354,-306.9133"/>
<polygon fill="#191970" stroke="#191970" points="1604.126,-310.307 1613.3017,-305.0101 1602.8255,-303.4288 1604.126,-310.307"/>
</g>
<!-- Node36 -->
<g id="node37" class="node">
<title>Node36</title>
<polygon fill="#ffffff" stroke="#bfbfbf" points="1744.6828,-286 1744.6828,-305 1809.6828,-305 1809.6828,-286 1744.6828,-286"/>
<text text-anchor="middle" x="1777.1828" y="-293" font-family="Helvetica,sans-Serif" font-size="10.00" fill="#000000">netinet/in.h</text>
</g>
<!-- Node0&#45;&gt;Node36 -->
<g id="edge54" class="edge">
<title>Node0&#45;&gt;Node36</title>
<path fill="none" stroke="#191970" d="M1312.4307,-353.161C1424.0371,-345.8366 1656.2826,-328.9877 1735.1828,-311 1738.3656,-310.2744 1741.6344,-309.3697 1744.8756,-308.3641"/>
<polygon fill="#191970" stroke="#191970" points="1746.0617,-311.6577 1754.4016,-305.1234 1743.8072,-305.0307 1746.0617,-311.6577"/>
</g>
<!-- Node37 -->
<g id="node38" class="node">
<title>Node37</title>
<polygon fill="#ffffff" stroke="#bfbfbf" points="1827.6828,-286 1827.6828,-305 1876.6828,-305 1876.6828,-286 1827.6828,-286"/>
<text text-anchor="middle" x="1852.1828" y="-293" font-family="Helvetica,sans-Serif" font-size="10.00" fill="#000000">stdint.h</text>
</g>
<!-- Node0&#45;&gt;Node37 -->
<g id="edge55" class="edge">
<title>Node0&#45;&gt;Node37</title>
<path fill="none" stroke="#191970" d="M1312.2978,-354.8067C1438.6913,-349.821 1724.8877,-336.0806 1819.1828,-311 1821.1556,-310.4753 1823.155,-309.8368 1825.143,-309.1215"/>
<polygon fill="#191970" stroke="#191970" points="1826.938,-312.1646 1834.8126,-305.0765 1824.2366,-305.7069 1826.938,-312.1646"/>
</g>
<!-- Node38 -->
<g id="node39" class="node">
<title>Node38</title>
<polygon fill="#ffffff" stroke="#bfbfbf" points="1895.1828,-286 1895.1828,-305 1943.1828,-305 1943.1828,-286 1895.1828,-286"/>
<text text-anchor="middle" x="1919.1828" y="-293" font-family="Helvetica,sans-Serif" font-size="10.00" fill="#000000">stdlib.h</text>
</g>
<!-- Node0&#45;&gt;Node38 -->
<g id="edge56" class="edge">
<title>Node0&#45;&gt;Node38</title>
<path fill="none" stroke="#191970" d="M1312.4055,-355.4108C1449.7758,-351.3846 1778.9109,-339.0449 1886.1828,-311 1888.1578,-310.4837 1890.1588,-309.8515 1892.1481,-309.1407"/>
<polygon fill="#191970" stroke="#191970" points="1893.9387,-312.1862 1901.8204,-305.1061 1891.2437,-305.7257 1893.9387,-312.1862"/>
</g>
<!-- Node39 -->
<g id="node40" class="node">
<title>Node39</title>
<polygon fill="#ffffff" stroke="#bfbfbf" points="1961.1828,-286 1961.1828,-305 2013.1828,-305 2013.1828,-286 1961.1828,-286"/>
<text text-anchor="middle" x="1987.1828" y="-293" font-family="Helvetica,sans-Serif" font-size="10.00" fill="#000000">unistd.h</text>
</g>
<!-- Node0&#45;&gt;Node39 -->
<g id="edge57" class="edge">
<title>Node0&#45;&gt;Node39</title>
<path fill="none" stroke="#191970" d="M1312.3323,-355.7299C1459.7946,-352.2263 1831.6781,-340.6444 1952.1828,-311 1954.5241,-310.424 1956.9048,-309.7 1959.2666,-308.8814"/>
<polygon fill="#191970" stroke="#191970" points="1960.722,-312.0693 1968.7206,-305.1214 1958.1351,-305.5649 1960.722,-312.0693"/>
</g>
<!-- Node2&#45;&gt;Node1 -->
<g id="edge33" class="edge">
<title>Node2&#45;&gt;Node1</title>
<path fill="none" stroke="#191970" d="M684.0568,-287.0776C632.1608,-276.1848 541.6261,-257.1818 484.1344,-245.1144"/>
<polygon fill="#191970" stroke="#191970" points="484.6574,-241.648 474.1517,-243.0191 483.2194,-248.4987 484.6574,-241.648"/>
</g>
<!-- Node3 -->
<g id="node4" class="node">
<title>Node3</title>
<polygon fill="#ffffff" stroke="#bfbfbf" points="568.1828,-224.5 568.1828,-243.5 620.1828,-243.5 620.1828,-224.5 568.1828,-224.5"/>
<text text-anchor="middle" x="594.1828" y="-231.5" font-family="Helvetica,sans-Serif" font-size="10.00" fill="#000000">stddef.h</text>
</g>
<!-- Node2&#45;&gt;Node3 -->
<g id="edge3" class="edge">
<title>Node2&#45;&gt;Node3</title>
<path fill="none" stroke="#191970" d="M703.8703,-285.8906C682.3097,-275.6908 648.0351,-259.4763 623.5385,-247.8875"/>
<polygon fill="#191970" stroke="#191970" points="624.889,-244.6545 614.3527,-243.5419 621.8954,-250.9822 624.889,-244.6545"/>
</g>
<!-- Node4 -->
<g id="node5" class="node">
<title>Node4</title>
<polygon fill="#ffffff" stroke="#bfbfbf" points="919.1828,-112.5 919.1828,-131.5 955.1828,-131.5 955.1828,-112.5 919.1828,-112.5"/>
<text text-anchor="middle" x="937.1828" y="-119.5" font-family="Helvetica,sans-Serif" font-size="10.00" fill="#000000">map</text>
</g>
<!-- Node2&#45;&gt;Node4 -->
<g id="edge4" class="edge">
<title>Node2&#45;&gt;Node4</title>
<path fill="none" stroke="#191970" d="M751.709,-285.9977C758.66,-283.8186 766.1484,-281.6581 773.1828,-280 823.109,-268.2319 967.8605,-282.9966 1001.1828,-244 1029.4666,-210.9 985.1687,-163.1882 957.2085,-138.3799"/>
<polygon fill="#191970" stroke="#191970" points="959.3543,-135.6089 949.4915,-131.7389 954.7882,-140.9147 959.3543,-135.6089"/>
</g>
<!-- Node2&#45;&gt;Node5 -->
<g id="edge5" class="edge">
<title>Node2&#45;&gt;Node5</title>
<path fill="none" stroke="#191970" d="M683.8585,-287.7381C628.8349,-276.743 535.9051,-256.5745 526.1828,-244 490.2983,-197.5879 491.2629,-159.1421 526.1828,-112 540.5578,-92.5937 606.7131,-78.105 646.5359,-70.9611"/>
<polygon fill="#191970" stroke="#191970" points="647.2729,-74.3856 656.5252,-69.2237 646.0734,-67.4891 647.2729,-74.3856"/>
</g>
<!-- Node6 -->
<g id="node7" class="node">
<title>Node6</title>
<polygon fill="#ffffff" stroke="#bfbfbf" points="638.6828,-224.5 638.6828,-243.5 683.6828,-243.5 683.6828,-224.5 638.6828,-224.5"/>
<text text-anchor="middle" x="661.1828" y="-231.5" font-family="Helvetica,sans-Serif" font-size="10.00" fill="#000000">thread</text>
</g>
<!-- Node2&#45;&gt;Node6 -->
<g id="edge6" class="edge">
<title>Node2&#45;&gt;Node6</title>
<path fill="none" stroke="#191970" d="M714.3391,-285.8906C704.7789,-276.5581 690.0605,-262.1902 678.5333,-250.9374"/>
<polygon fill="#191970" stroke="#191970" points="680.766,-248.2257 671.1654,-243.7449 675.8762,-253.2348 680.766,-248.2257"/>
</g>
<!-- Node7 -->
<g id="node8" class="node">
<title>Node7</title>
<polygon fill="#ffffff" stroke="#bfbfbf" points="702.1828,-224.5 702.1828,-243.5 746.1828,-243.5 746.1828,-224.5 702.1828,-224.5"/>
<text text-anchor="middle" x="724.1828" y="-231.5" font-family="Helvetica,sans-Serif" font-size="10.00" fill="#000000">mutex</text>
</g>
<!-- Node2&#45;&gt;Node7 -->
<g id="edge7" class="edge">
<title>Node2&#45;&gt;Node7</title>
<path fill="none" stroke="#191970" d="M724.1828,-285.8906C724.1828,-277.3657 724.1828,-264.6392 724.1828,-253.9235"/>
<polygon fill="#191970" stroke="#191970" points="727.6829,-253.7448 724.1828,-243.7449 720.6829,-253.7449 727.6829,-253.7448"/>
</g>
<!-- Node8 -->
<g id="node9" class="node">
<title>Node8</title>
<polygon fill="#ffffff" stroke="#bfbfbf" points="764.1828,-224.5 764.1828,-243.5 834.1828,-243.5 834.1828,-224.5 764.1828,-224.5"/>
<text text-anchor="middle" x="799.1828" y="-231.5" font-family="Helvetica,sans-Serif" font-size="10.00" fill="#000000">event2/util.h</text>
</g>
<!-- Node2&#45;&gt;Node8 -->
<g id="edge8" class="edge">
<title>Node2&#45;&gt;Node8</title>
<path fill="none" stroke="#191970" d="M735.9016,-285.8906C747.5016,-276.3786 765.4808,-261.6357 779.3149,-250.2917"/>
<polygon fill="#191970" stroke="#191970" points="781.7854,-252.7921 787.2989,-243.7449 777.3469,-247.3792 781.7854,-252.7921"/>
</g>
<!-- Node9 -->
<g id="node10" class="node">
<title>Node9</title>
<polygon fill="#ffffff" stroke="#bfbfbf" points="852.1828,-224.5 852.1828,-243.5 926.1828,-243.5 926.1828,-224.5 852.1828,-224.5"/>
<text text-anchor="middle" x="889.1828" y="-231.5" font-family="Helvetica,sans-Serif" font-size="10.00" fill="#000000">event2/http.h</text>
</g>
<!-- Node2&#45;&gt;Node9 -->
<g id="edge9" class="edge">
<title>Node2&#45;&gt;Node9</title>
<path fill="none" stroke="#191970" d="M749.9641,-285.8906C777.9349,-275.4652 822.7647,-258.7559 853.9688,-247.1252"/>
<polygon fill="#191970" stroke="#191970" points="855.4347,-250.3141 863.5826,-243.5419 852.9899,-243.7549 855.4347,-250.3141"/>
</g>
<!-- Node10 -->
<g id="node11" class="node">
<title>Node10</title>
<polygon fill="#ffffff" stroke="#bfbfbf" points="944.1828,-224.5 944.1828,-243.5 992.1828,-243.5 992.1828,-224.5 944.1828,-224.5"/>
<text text-anchor="middle" x="968.1828" y="-231.5" font-family="Helvetica,sans-Serif" font-size="10.00" fill="#000000">evws.h</text>
</g>
<!-- Node2&#45;&gt;Node10 -->
<g id="edge10" class="edge">
<title>Node2&#45;&gt;Node10</title>
<path fill="none" stroke="#191970" d="M752.819,-285.9783C759.4714,-283.8956 766.5479,-281.7829 773.1828,-280 841.3516,-261.6817 862.0735,-262.5881 934.0748,-244.1357"/>
<polygon fill="#191970" stroke="#191970" points="935.2954,-247.4348 944.092,-241.5297 933.5329,-240.6603 935.2954,-247.4348"/>
</g>
<!-- Node11 -->
<g id="node12" class="node">
<title>Node11</title>
<g id="a_node12"><a xlink:href="_common_8h.html" target="_top" xlink:title="uscxml/Common.h">
<polygon fill="#ffffff" stroke="#000000" points="987.6828,-56.5 987.6828,-75.5 1086.6828,-75.5 1086.6828,-56.5 987.6828,-56.5"/>
<text text-anchor="middle" x="1037.1828" y="-63.5" font-family="Helvetica,sans-Serif" font-size="10.00" fill="#000000">uscxml/Common.h</text>
</a>
</g>
</g>
<!-- Node2&#45;&gt;Node11 -->
<g id="edge11" class="edge">
<title>Node2&#45;&gt;Node11</title>
<path fill="none" stroke="#191970" d="M683.9977,-288.55C640.1153,-280.0458 574.0731,-264.2463 559.1828,-244 553.9164,-236.8392 554.4509,-231.5247 559.1828,-224 620.3474,-126.735 683.0036,-147.7979 792.1828,-112 853.7401,-91.8165 927.0742,-79.5092 977.3668,-72.7679"/>
<polygon fill="#191970" stroke="#191970" points="977.9601,-76.2202 987.4219,-71.4532 977.0525,-69.2793 977.9601,-76.2202"/>
</g>
<!-- Node14 -->
<g id="node15" class="node">
<title>Node14</title>
<g id="a_node15"><a xlink:href="_event_8h.html" target="_top" xlink:title="uscxml/messages/Event.h">
<polygon fill="#ffffff" stroke="#000000" points="1048.6828,-224.5 1048.6828,-243.5 1181.6828,-243.5 1181.6828,-224.5 1048.6828,-224.5"/>
<text text-anchor="middle" x="1115.1828" y="-231.5" font-family="Helvetica,sans-Serif" font-size="10.00" fill="#000000">uscxml/messages/Event.h</text>
</a>
</g>
</g>
<!-- Node2&#45;&gt;Node14 -->
<g id="edge14" class="edge">
<title>Node2&#45;&gt;Node14</title>
<path fill="none" stroke="#191970" d="M751.4258,-285.9653C758.4495,-283.7611 766.0428,-281.5969 773.1828,-280 798.4615,-274.3463 945.6759,-255.3369 1038.5342,-243.5979"/>
<polygon fill="#191970" stroke="#191970" points="1038.977,-247.0699 1048.4597,-242.3446 1038.1,-240.125 1038.977,-247.0699"/>
</g>
<!-- Node12 -->
<g id="node13" class="node">
<title>Node12</title>
<polygon fill="#ffffff" stroke="#bfbfbf" points="963.1828,-.5 963.1828,-19.5 1035.1828,-19.5 1035.1828,-.5 963.1828,-.5"/>
<text text-anchor="middle" x="999.1828" y="-7.5" font-family="Helvetica,sans-Serif" font-size="10.00" fill="#000000">sys/socket.h</text>
</g>
<!-- Node11&#45;&gt;Node12 -->
<g id="edge12" class="edge">
<title>Node11&#45;&gt;Node12</title>
<path fill="none" stroke="#191970" d="M1030.5637,-56.2455C1025.2783,-48.4564 1017.7287,-37.3308 1011.3591,-27.9439"/>
<polygon fill="#191970" stroke="#191970" points="1014.2373,-25.9522 1005.7261,-19.6427 1008.445,-29.8827 1014.2373,-25.9522"/>
</g>
<!-- Node13 -->
<g id="node14" class="node">
<title>Node13</title>
<polygon fill="#ffffff" stroke="#bfbfbf" points="1053.1828,-.5 1053.1828,-19.5 1097.1828,-19.5 1097.1828,-.5 1053.1828,-.5"/>
<text text-anchor="middle" x="1075.1828" y="-7.5" font-family="Helvetica,sans-Serif" font-size="10.00" fill="#000000">cmath</text>
</g>
<!-- Node11&#45;&gt;Node13 -->
<g id="edge13" class="edge">
<title>Node11&#45;&gt;Node13</title>
<path fill="none" stroke="#191970" d="M1043.8019,-56.2455C1049.0874,-48.4564 1056.6369,-37.3308 1063.0066,-27.9439"/>
<polygon fill="#191970" stroke="#191970" points="1065.9207,-29.8827 1068.6396,-19.6427 1060.1284,-25.9522 1065.9207,-29.8827"/>
</g>
<!-- Node15 -->
<g id="node16" class="node">
<title>Node15</title>
<g id="a_node16"><a xlink:href="_data_8h.html" target="_top" xlink:title="uscxml/messages/Data.h">
<polygon fill="#ffffff" stroke="#000000" points="1086.1828,-168.5 1086.1828,-187.5 1214.1828,-187.5 1214.1828,-168.5 1086.1828,-168.5"/>
<text text-anchor="middle" x="1150.1828" y="-175.5" font-family="Helvetica,sans-Serif" font-size="10.00" fill="#000000">uscxml/messages/Data.h</text>
</a>
</g>
</g>
<!-- Node14&#45;&gt;Node15 -->
<g id="edge15" class="edge">
<title>Node14&#45;&gt;Node15</title>
<path fill="none" stroke="#191970" d="M1121.2794,-224.2455C1126.0974,-216.5367 1132.9579,-205.5598 1138.7861,-196.2348"/>
<polygon fill="#191970" stroke="#191970" points="1141.8241,-197.9777 1144.1562,-187.6427 1135.8881,-194.2677 1141.8241,-197.9777"/>
</g>
<!-- Node23 -->
<g id="node24" class="node">
<title>Node23</title>
<g id="a_node24"><a xlink:href="_u_u_i_d_8h.html" target="_top" xlink:title="uscxml/util/UUID.h">
<polygon fill="#ffffff" stroke="#000000" points="801.6828,-112.5 801.6828,-131.5 900.6828,-131.5 900.6828,-112.5 801.6828,-112.5"/>
<text text-anchor="middle" x="851.1828" y="-119.5" font-family="Helvetica,sans-Serif" font-size="10.00" fill="#000000">uscxml/util/UUID.h</text>
</a>
</g>
</g>
<!-- Node14&#45;&gt;Node23 -->
<g id="edge30" class="edge">
<title>Node14&#45;&gt;Node23</title>
<path fill="none" stroke="#191970" d="M1092.6743,-224.4509C1045.7198,-204.5308 937.205,-158.4942 883.0805,-135.5323"/>
<polygon fill="#191970" stroke="#191970" points="884.2071,-132.2084 873.6343,-131.5249 881.4732,-138.6525 884.2071,-132.2084"/>
</g>
<!-- Node15&#45;&gt;Node4 -->
<g id="edge17" class="edge">
<title>Node15&#45;&gt;Node4</title>
<path fill="none" stroke="#191970" d="M1105.4519,-168.4206C1069.6812,-160.4277 1018.1205,-148.1655 964.9746,-132.0101"/>
<polygon fill="#191970" stroke="#191970" points="965.9749,-128.656 955.3877,-129.0581 963.9149,-135.346 965.9749,-128.656"/>
</g>
<!-- Node15&#45;&gt;Node11 -->
<g id="edge20" class="edge">
<title>Node15&#45;&gt;Node11</title>
<path fill="none" stroke="#191970" d="M1163.5614,-168.4937C1180.3865,-155.3681 1205.4465,-131.147 1191.1828,-112 1179.5914,-96.4401 1135.1453,-84.2104 1096.9621,-76.2848"/>
<polygon fill="#191970" stroke="#191970" points="1097.3973,-72.8024 1086.9037,-74.2639 1096.0183,-79.6652 1097.3973,-72.8024"/>
</g>
<!-- Node16 -->
<g id="node17" class="node">
<title>Node16</title>
<polygon fill="#ffffff" stroke="#bfbfbf" points="444.6828,-112.5 444.6828,-131.5 473.6828,-131.5 473.6828,-112.5 444.6828,-112.5"/>
<text text-anchor="middle" x="459.1828" y="-119.5" font-family="Helvetica,sans-Serif" font-size="10.00" fill="#000000">list</text>
</g>
<!-- Node15&#45;&gt;Node16 -->
<g id="edge16" class="edge">
<title>Node15&#45;&gt;Node16</title>
<path fill="none" stroke="#191970" d="M1086.1051,-172.807C938.7173,-160.8624 580.8549,-131.8605 483.8089,-123.9957"/>
<polygon fill="#191970" stroke="#191970" points="484.0278,-120.5021 473.7777,-123.1828 483.4623,-127.4792 484.0278,-120.5021"/>
</g>
<!-- Node17 -->
<g id="node18" class="node">
<title>Node17</title>
<polygon fill="#ffffff" stroke="#bfbfbf" points="1259.6828,-56.5 1259.6828,-75.5 1312.6828,-75.5 1312.6828,-56.5 1259.6828,-56.5"/>
<text text-anchor="middle" x="1286.1828" y="-63.5" font-family="Helvetica,sans-Serif" font-size="10.00" fill="#000000">memory</text>
</g>
<!-- Node15&#45;&gt;Node17 -->
<g id="edge18" class="edge">
<title>Node15&#45;&gt;Node17</title>
<path fill="none" stroke="#191970" d="M1162.4624,-168.1892C1174.0391,-158.9166 1191.8516,-144.5889 1207.1828,-132 1227.5772,-115.2536 1250.7269,-95.8685 1266.6687,-82.4598"/>
<polygon fill="#191970" stroke="#191970" points="1269.3253,-84.7984 1274.7204,-75.6801 1264.8166,-79.4438 1269.3253,-84.7984"/>
</g>
<!-- Node18 -->
<g id="node19" class="node">
<title>Node18</title>
<polygon fill="#ffffff" stroke="#bfbfbf" points="1118.6828,-112.5 1118.6828,-131.5 1181.6828,-131.5 1181.6828,-112.5 1118.6828,-112.5"/>
<text text-anchor="middle" x="1150.1828" y="-119.5" font-family="Helvetica,sans-Serif" font-size="10.00" fill="#000000">type_traits</text>
</g>
<!-- Node15&#45;&gt;Node18 -->
<g id="edge19" class="edge">
<title>Node15&#45;&gt;Node18</title>
<path fill="none" stroke="#191970" d="M1150.1828,-168.2455C1150.1828,-160.9382 1150.1828,-150.6944 1150.1828,-141.7046"/>
<polygon fill="#191970" stroke="#191970" points="1153.6829,-141.6426 1150.1828,-131.6427 1146.6829,-141.6427 1153.6829,-141.6426"/>
</g>
<!-- Node15&#45;&gt;Node19 -->
<g id="edge21" class="edge">
<title>Node15&#45;&gt;Node19</title>
<path fill="none" stroke="#191970" d="M1189.6307,-168.4369C1228.9984,-158.8932 1289.5863,-144.2052 1332.0537,-133.9101"/>
<polygon fill="#191970" stroke="#191970" points="1333.0038,-137.2812 1341.8977,-131.5237 1331.3546,-130.4783 1333.0038,-137.2812"/>
</g>
<!-- Node22 -->
<g id="node23" class="node">
<title>Node22</title>
<g id="a_node23"><a xlink:href="_blob_8h.html" target="_top" xlink:title="uscxml/messages/Blob.h">
<polygon fill="#ffffff" stroke="#000000" points="973.6828,-112.5 973.6828,-131.5 1100.6828,-131.5 1100.6828,-112.5 973.6828,-112.5"/>
<text text-anchor="middle" x="1037.1828" y="-119.5" font-family="Helvetica,sans-Serif" font-size="10.00" fill="#000000">uscxml/messages/Blob.h</text>
</a>
</g>
</g>
<!-- Node15&#45;&gt;Node22 -->
<g id="edge26" class="edge">
<title>Node15&#45;&gt;Node22</title>
<path fill="none" stroke="#191970" d="M1130.7574,-168.3733C1112.7807,-159.4644 1085.8387,-146.1127 1065.4738,-136.0203"/>
<polygon fill="#191970" stroke="#191970" points="1066.869,-132.8055 1056.3547,-131.5011 1063.7607,-139.0776 1066.869,-132.8055"/>
</g>
<!-- Node19&#45;&gt;Node5 -->
<g id="edge23" class="edge">
<title>Node19&#45;&gt;Node5</title>
<path fill="none" stroke="#191970" d="M1314.6352,-116.7064C1166.5103,-104.9238 814.294,-76.9066 708.0461,-68.455"/>
<polygon fill="#191970" stroke="#191970" points="708.2339,-64.959 697.9879,-67.6549 707.6788,-71.937 708.2339,-64.959"/>
</g>
<!-- Node19&#45;&gt;Node11 -->
<g id="edge22" class="edge">
<title>Node19&#45;&gt;Node11</title>
<path fill="none" stroke="#191970" d="M1322.438,-112.4369C1259.5435,-102.1982 1160.2789,-86.0389 1096.9816,-75.7347"/>
<polygon fill="#191970" stroke="#191970" points="1097.1897,-72.2226 1086.7572,-74.0702 1096.0649,-79.1316 1097.1897,-72.2226"/>
</g>
<!-- Node20 -->
<g id="node21" class="node">
<title>Node20</title>
<polygon fill="#ffffff" stroke="#bfbfbf" points="1413.6828,-56.5 1413.6828,-75.5 1452.6828,-75.5 1452.6828,-56.5 1413.6828,-56.5"/>
<text text-anchor="middle" x="1433.1828" y="-63.5" font-family="Helvetica,sans-Serif" font-size="10.00" fill="#000000">limits</text>
</g>
<!-- Node19&#45;&gt;Node20 -->
<g id="edge24" class="edge">
<title>Node19&#45;&gt;Node20</title>
<path fill="none" stroke="#191970" d="M1390.2405,-112.2455C1397.697,-104.2155 1408.4463,-92.6394 1417.3246,-83.0781"/>
<polygon fill="#191970" stroke="#191970" points="1419.9892,-85.3522 1424.2289,-75.6427 1414.8596,-80.589 1419.9892,-85.3522"/>
</g>
<!-- Node21 -->
<g id="node22" class="node">
<title>Node21</title>
<polygon fill="#ffffff" stroke="#bfbfbf" points="1343.1828,-56.5 1343.1828,-75.5 1395.1828,-75.5 1395.1828,-56.5 1343.1828,-56.5"/>
<text text-anchor="middle" x="1369.1828" y="-63.5" font-family="Helvetica,sans-Serif" font-size="10.00" fill="#000000">sstream</text>
</g>
<!-- Node19&#45;&gt;Node21 -->
<g id="edge25" class="edge">
<title>Node19&#45;&gt;Node21</title>
<path fill="none" stroke="#191970" d="M1379.0926,-112.2455C1377.5267,-104.9382 1375.3316,-94.6944 1373.4052,-85.7046"/>
<polygon fill="#191970" stroke="#191970" points="1376.7668,-84.6873 1371.2491,-75.6427 1369.9222,-86.1541 1376.7668,-84.6873"/>
</g>
<!-- Node22&#45;&gt;Node5 -->
<g id="edge27" class="edge">
<title>Node22&#45;&gt;Node5</title>
<path fill="none" stroke="#191970" d="M975.7057,-112.4369C898.0045,-100.35 767.2599,-80.012 708.0154,-70.7962"/>
<polygon fill="#191970" stroke="#191970" points="708.2333,-67.2881 697.8141,-69.2093 707.1573,-74.2049 708.2333,-67.2881"/>
</g>
<!-- Node22&#45;&gt;Node11 -->
<g id="edge29" class="edge">
<title>Node22&#45;&gt;Node11</title>
<path fill="none" stroke="#191970" d="M1037.1828,-112.2455C1037.1828,-104.9382 1037.1828,-94.6944 1037.1828,-85.7046"/>
<polygon fill="#191970" stroke="#191970" points="1040.6829,-85.6426 1037.1828,-75.6427 1033.6829,-85.6427 1040.6829,-85.6426"/>
</g>
<!-- Node22&#45;&gt;Node17 -->
<g id="edge28" class="edge">
<title>Node22&#45;&gt;Node17</title>
<path fill="none" stroke="#191970" d="M1079.7045,-112.4369C1127.5128,-101.6848 1204.3536,-84.4033 1249.5878,-74.2302"/>
<polygon fill="#191970" stroke="#191970" points="1250.5661,-77.5977 1259.5544,-71.9887 1249.0301,-70.7683 1250.5661,-77.5977"/>
</g>
<!-- Node23&#45;&gt;Node5 -->
<g id="edge32" class="edge">
<title>Node23&#45;&gt;Node5</title>
<path fill="none" stroke="#191970" d="M821.2712,-112.3733C789.4442,-102.1301 739.3677,-86.0135 707.4178,-75.7308"/>
<polygon fill="#191970" stroke="#191970" points="708.319,-72.3441 697.7275,-72.6121 706.1744,-79.0075 708.319,-72.3441"/>
</g>
<!-- Node23&#45;&gt;Node11 -->
<g id="edge31" class="edge">
<title>Node23&#45;&gt;Node11</title>
<path fill="none" stroke="#191970" d="M883.1574,-112.3733C914.3541,-102.9807 961.9538,-88.6496 995.976,-78.4064"/>
<polygon fill="#191970" stroke="#191970" points="997.0591,-81.7355 1005.6255,-75.5011 995.041,-75.0327 997.0591,-81.7355"/>
</g>
<!-- Node24&#45;&gt;Node5 -->
<g id="edge37" class="edge">
<title>Node24&#45;&gt;Node5</title>
<path fill="none" stroke="#191970" d="M363.5159,-168.065C369.0398,-153.2485 381.5733,-125.6476 402.1828,-112 441.9567,-85.6618 583.4963,-72.6126 646.5236,-68.0021"/>
<polygon fill="#191970" stroke="#191970" points="646.9113,-71.4835 656.639,-67.2857 646.4167,-64.5009 646.9113,-71.4835"/>
</g>
<!-- Node24&#45;&gt;Node11 -->
<g id="edge38" class="edge">
<title>Node24&#45;&gt;Node11</title>
<path fill="none" stroke="#191970" d="M367.665,-168.2165C379.8959,-153.0692 405.7751,-124.3973 435.1828,-112 484.2406,-91.3189 834.588,-74.4915 977.1104,-68.4266"/>
<polygon fill="#191970" stroke="#191970" points="977.5685,-71.9104 987.4119,-67.9916 977.2731,-64.9167 977.5685,-71.9104"/>
</g>
<!-- Node24&#45;&gt;Node16 -->
<g id="edge36" class="edge">
<title>Node24&#45;&gt;Node16</title>
<path fill="none" stroke="#191970" d="M377.4273,-168.2455C393.5613,-159.1192 417.793,-145.4124 435.6899,-135.2889"/>
<polygon fill="#191970" stroke="#191970" points="437.4142,-138.3348 444.395,-130.3649 433.9677,-132.242 437.4142,-138.3348"/>
</g>
<!-- Node25 -->
<g id="node26" class="node">
<title>Node25</title>
<polygon fill="#ffffff" stroke="#bfbfbf" points="29.1828,-112.5 29.1828,-131.5 59.1828,-131.5 59.1828,-112.5 29.1828,-112.5"/>
<text text-anchor="middle" x="44.1828" y="-119.5" font-family="Helvetica,sans-Serif" font-size="10.00" fill="#000000">set</text>
</g>
<!-- Node24&#45;&gt;Node25 -->
<g id="edge35" class="edge">
<title>Node24&#45;&gt;Node25</title>
<path fill="none" stroke="#191970" d="M311.1093,-173.8735C254.5236,-168.3233 158.7936,-156.4996 69.0119,-131.6731"/>
<polygon fill="#191970" stroke="#191970" points="69.7985,-128.2584 59.2235,-128.9071 67.8949,-134.9946 69.7985,-128.2584"/>
</g>
<!-- Node26 -->
<g id="node27" class="node">
<title>Node26</title>
<polygon fill="#ffffff" stroke="#bfbfbf" points="77.6828,-112.5 77.6828,-131.5 212.6828,-131.5 212.6828,-112.5 77.6828,-112.5"/>
<text text-anchor="middle" x="145.1828" y="-119.5" font-family="Helvetica,sans-Serif" font-size="10.00" fill="#000000">xercesc/util/XMLString.hpp</text>
</g>
<!-- Node24&#45;&gt;Node26 -->
<g id="edge39" class="edge">
<title>Node24&#45;&gt;Node26</title>
<path fill="none" stroke="#191970" d="M323.223,-168.3733C286.7753,-158.8799 230.9582,-144.3415 191.5539,-134.0781"/>
<polygon fill="#191970" stroke="#191970" points="192.2197,-130.6348 181.6603,-131.5011 190.4553,-137.4087 192.2197,-130.6348"/>
</g>
<!-- Node27 -->
<g id="node28" class="node">
<title>Node27</title>
<polygon fill="#ffffff" stroke="#bfbfbf" points="230.6828,-112.5 230.6828,-131.5 349.6828,-131.5 349.6828,-112.5 230.6828,-112.5"/>
<text text-anchor="middle" x="290.1828" y="-119.5" font-family="Helvetica,sans-Serif" font-size="10.00" fill="#000000">xercesc/dom/DOM.hpp</text>
</g>
<!-- Node24&#45;&gt;Node27 -->
<g id="edge40" class="edge">
<title>Node24&#45;&gt;Node27</title>
<path fill="none" stroke="#191970" d="M347.9898,-168.2455C337.5507,-159.8943 322.3174,-147.7076 310.1089,-137.9408"/>
<polygon fill="#191970" stroke="#191970" points="312.2313,-135.1566 302.2362,-131.6427 307.8584,-140.6227 312.2313,-135.1566"/>
</g>
<!-- Node34&#45;&gt;Node11 -->
<g id="edge49" class="edge">
<title>Node34&#45;&gt;Node11</title>
<path fill="none" stroke="#191970" d="M878.2637,-281.868C881.2708,-281.1886 884.2617,-280.5581 887.1828,-280 957.4713,-266.5718 1152.5554,-290.2238 1207.1828,-244 1251.9679,-206.1045 1248.9566,-153.1914 1207.1828,-112 1191.4616,-96.498 1139.3739,-83.8467 1096.9553,-75.7635"/>
<polygon fill="#191970" stroke="#191970" points="1097.4344,-72.2927 1086.9635,-73.9083 1096.1566,-79.1751 1097.4344,-72.2927"/>
</g>
<!-- Node34&#45;&gt;Node14 -->
<g id="edge51" class="edge">
<title>Node34&#45;&gt;Node14</title>
<path fill="none" stroke="#191970" d="M878.3275,-282.1666C881.3188,-281.4131 884.2887,-280.6847 887.1828,-280 942.8961,-266.8201 1006.8302,-254.1299 1052.7914,-245.4294"/>
<polygon fill="#191970" stroke="#191970" points="1053.7205,-248.816 1062.8998,-243.5253 1052.4247,-241.937 1053.7205,-248.816"/>
</g>
<!-- Node34&#45;&gt;Node15 -->
<g id="edge50" class="edge">
<title>Node34&#45;&gt;Node15</title>
<path fill="none" stroke="#191970" d="M878.2675,-281.8882C881.2738,-281.2037 884.2633,-280.5666 887.1828,-280 953.9644,-267.0394 1145.9969,-294.8526 1191.1828,-244 1204.7642,-228.7154 1187.8884,-208.3923 1171.8616,-194.3559"/>
<polygon fill="#191970" stroke="#191970" points="1173.6667,-191.308 1163.7238,-187.6487 1169.2146,-196.7098 1173.6667,-191.308"/>
</g>
<!-- Node34&#45;&gt;Node17 -->
<g id="edge52" class="edge">
<title>Node34&#45;&gt;Node17</title>
<path fill="none" stroke="#191970" d="M878.259,-281.8434C881.2673,-281.1701 884.2597,-280.5476 887.1828,-280 1144.441,-231.8053 1318.7982,-354.158 1457.1828,-132 1461.8826,-124.4552 1462.5906,-119.0547 1457.1828,-112 1453.014,-106.5615 1371.687,-86.3811 1322.7133,-74.6343"/>
<polygon fill="#191970" stroke="#191970" points="1323.3329,-71.1839 1312.7933,-72.2641 1321.7061,-77.9923 1323.3329,-71.1839"/>
</g>
</g>
</svg>
