<?xml version="1.0" encoding="UTF-8" standalone="no"?>
<!DOCTYPE svg PUBLIC "-//W3C//DTD SVG 1.1//EN"
 "http://www.w3.org/Graphics/SVG/1.1/DTD/svg11.dtd">
<!-- Generated by graphviz version 2.38.0 (20140413.2041)
 -->
<!-- Title: server/HTTPServer.h Pages: 1 -->
<!--zoomable 308 -->
<svg id="main" version="1.1" xmlns="http://www.w3.org/2000/svg" xmlns:xlink="http://www.w3.org/1999/xlink" xml:space="preserve" onload="init(evt)">
<style type="text/css"><![CDATA[
.edge:hover path { stroke: red; }
.edge:hover polygon { stroke: red; fill: red; }
]]></style>
<script type="text/javascript"><![CDATA[
var edges = document.getElementsByTagName('g');
if (edges && edges.length) {
  for (var i=0;i<edges.length;i++) {
    if (edges[i].id.substr(0,4)=='edge') {
      edges[i].setAttribute('class','edge');
    }
  }
}
]]></script>
        <defs>
                <circle id="rim" cx="0" cy="0" r="7"/>
                <circle id="rim2" cx="0" cy="0" r="3.5"/>
                <g id="zoomPlus">
                        <use xlink:href="#rim" fill="#404040">
                                <set attributeName="fill" to="#808080" begin="zoomplus.mouseover" end="zoomplus.mouseout"/>
                        </use>
                        <path d="M-4,0h8M0,-4v8" fill="none" stroke="white" stroke-width="1.5" pointer-events="none"/>
                </g>
                <g id="zoomMin">
                        <use xlink:href="#rim" fill="#404040">
                                <set attributeName="fill" to="#808080" begin="zoomminus.mouseover" end="zoomminus.mouseout"/>
                        </use>
                        <path d="M-4,0h8" fill="none" stroke="white" stroke-width="1.5" pointer-events="none"/>
                </g>
                <g id="dirArrow">
                        <path fill="none" stroke="white" stroke-width="1.5" d="M0,-3.0v7 M-2.5,-0.5L0,-3.0L2.5,-0.5"/>
                </g>
               <g id="resetDef">
                       <use xlink:href="#rim2" fill="#404040">
                               <set attributeName="fill" to="#808080" begin="reset.mouseover" end="reset.mouseout"/>
                       </use>
               </g>
        </defs>

<script type="text/javascript">
var viewWidth = 1171;
var viewHeight = 308;
var sectionId = 'dynsection-0';
</script>
<script xlink:href="svgpan.js"/>
<svg id="graph" class="graph">
<g id="viewport">
<title>server/HTTPServer.h</title>
<polygon fill="white" stroke="none" points="-4,4 -4,-304 1167,-304 1167,4 -4,4"/>
<!-- Node1 -->
<g id="node1" class="node"><title>Node1</title>
<polygon fill="#bfbfbf" stroke="black" points="725.5,-280.5 725.5,-299.5 836.5,-299.5 836.5,-280.5 725.5,-280.5"/>
<text text-anchor="middle" x="781" y="-287.5" font-family="Helvetica,sans-Serif" font-size="10.00">server/HTTPServer.h</text>
</g>
<!-- Node2 -->
<g id="node2" class="node"><title>Node2</title>
<polygon fill="white" stroke="#bfbfbf" points="0,-224.5 0,-243.5 52,-243.5 52,-224.5 0,-224.5"/>
<text text-anchor="middle" x="26" y="-231.5" font-family="Helvetica,sans-Serif" font-size="10.00">stddef.h</text>
</g>
<!-- Node1&#45;&gt;Node2 -->
<g id="edge1" class="edge"><title>Node1&#45;&gt;Node2</title>
<path fill="none" stroke="midnightblue" d="M725.067,-288.487C604.182,-286.721 309.786,-278.873 66,-244 64.7317,-243.819 63.4439,-243.618 62.1458,-243.402"/>
<polygon fill="midnightblue" stroke="midnightblue" points="62.617,-239.929 52.14,-241.505 61.3129,-246.807 62.617,-239.929"/>
</g>
<!-- Node3 -->
<g id="node3" class="node"><title>Node3</title>
<polygon fill="white" stroke="#bfbfbf" points="226,-112.5 226,-131.5 262,-131.5 262,-112.5 226,-112.5"/>
<text text-anchor="middle" x="244" y="-119.5" font-family="Helvetica,sans-Serif" font-size="10.00">map</text>
</g>
<!-- Node1&#45;&gt;Node3 -->
<g id="edge2" class="edge"><title>Node1&#45;&gt;Node3</title>
<path fill="none" stroke="midnightblue" d="M725.213,-280.757C642.994,-267.481 485.367,-237.695 359,-188 324.297,-174.353 287.285,-151.82 264.896,-137.194"/>
<polygon fill="midnightblue" stroke="midnightblue" points="266.789,-134.249 256.519,-131.643 262.922,-140.084 266.789,-134.249"/>
</g>
<!-- Node4 -->
<g id="node4" class="node"><title>Node4</title>
<polygon fill="white" stroke="#bfbfbf" points="518.5,-56.5 518.5,-75.5 559.5,-75.5 559.5,-56.5 518.5,-56.5"/>
<text text-anchor="middle" x="539" y="-63.5" font-family="Helvetica,sans-Serif" font-size="10.00">string</text>
</g>
<!-- Node1&#45;&gt;Node4 -->
<g id="edge3" class="edge"><title>Node1&#45;&gt;Node4</title>
<path fill="none" stroke="midnightblue" d="M783.274,-280.148C791.317,-247.945 816.792,-137.574 795,-112 762.301,-73.6258 620.237,-86.8429 571,-76 570.535,-75.8976 570.067,-75.7925 569.596,-75.6849"/>
<polygon fill="midnightblue" stroke="midnightblue" points="570.121,-72.2078 559.569,-73.1601 568.412,-78.9959 570.121,-72.2078"/>
</g>
<!-- Node5 -->
<g id="node5" class="node"><title>Node5</title>
<polygon fill="white" stroke="#bfbfbf" points="809.5,-224.5 809.5,-243.5 854.5,-243.5 854.5,-224.5 809.5,-224.5"/>
<text text-anchor="middle" x="832" y="-231.5" font-family="Helvetica,sans-Serif" font-size="10.00">thread</text>
</g>
<!-- Node1&#45;&gt;Node5 -->
<g id="edge4" class="edge"><title>Node1&#45;&gt;Node5</title>
<path fill="none" stroke="midnightblue" d="M789.422,-280.083C796.848,-272.22 807.852,-260.569 816.812,-251.081"/>
<polygon fill="midnightblue" stroke="midnightblue" points="819.413,-253.424 823.735,-243.751 814.324,-248.618 819.413,-253.424"/>
</g>
<!-- Node6 -->
<g id="node6" class="node"><title>Node6</title>
<polygon fill="white" stroke="#bfbfbf" points="873,-224.5 873,-243.5 917,-243.5 917,-224.5 873,-224.5"/>
<text text-anchor="middle" x="895" y="-231.5" font-family="Helvetica,sans-Serif" font-size="10.00">mutex</text>
</g>
<!-- Node1&#45;&gt;Node6 -->
<g id="edge5" class="edge"><title>Node1&#45;&gt;Node6</title>
<path fill="none" stroke="midnightblue" d="M799.064,-280.444C817.575,-271.675 846.581,-257.935 867.855,-247.858"/>
<polygon fill="midnightblue" stroke="midnightblue" points="869.482,-250.96 877.021,-243.516 866.485,-244.634 869.482,-250.96"/>
</g>
<!-- Node7 -->
<g id="node7" class="node"><title>Node7</title>
<polygon fill="white" stroke="#bfbfbf" points="935,-224.5 935,-243.5 1005,-243.5 1005,-224.5 935,-224.5"/>
<text text-anchor="middle" x="970" y="-231.5" font-family="Helvetica,sans-Serif" font-size="10.00">event2/util.h</text>
</g>
<!-- Node1&#45;&gt;Node7 -->
<g id="edge6" class="edge"><title>Node1&#45;&gt;Node7</title>
<path fill="none" stroke="midnightblue" d="M810.948,-280.444C843.158,-271.241 894.534,-256.562 930.142,-246.388"/>
<polygon fill="midnightblue" stroke="midnightblue" points="931.539,-249.629 940.192,-243.516 929.616,-242.898 931.539,-249.629"/>
</g>
<!-- Node8 -->
<g id="node8" class="node"><title>Node8</title>
<polygon fill="white" stroke="#bfbfbf" points="1023,-224.5 1023,-243.5 1097,-243.5 1097,-224.5 1023,-224.5"/>
<text text-anchor="middle" x="1060" y="-231.5" font-family="Helvetica,sans-Serif" font-size="10.00">event2/http.h</text>
</g>
<!-- Node1&#45;&gt;Node8 -->
<g id="edge7" class="edge"><title>Node1&#45;&gt;Node8</title>
<path fill="none" stroke="midnightblue" d="M825.24,-280.489C870.007,-271.869 941.498,-258.083 1012.79,-244.232"/>
<polygon fill="midnightblue" stroke="midnightblue" points="1013.7,-247.621 1022.84,-242.278 1012.36,-240.75 1013.7,-247.621"/>
</g>
<!-- Node9 -->
<g id="node9" class="node"><title>Node9</title>
<polygon fill="white" stroke="#bfbfbf" points="1115,-224.5 1115,-243.5 1163,-243.5 1163,-224.5 1115,-224.5"/>
<text text-anchor="middle" x="1139" y="-231.5" font-family="Helvetica,sans-Serif" font-size="10.00">evws.h</text>
</g>
<!-- Node1&#45;&gt;Node9 -->
<g id="edge8" class="edge"><title>Node1&#45;&gt;Node9</title>
<path fill="none" stroke="midnightblue" d="M836.573,-283.507C899.485,-276.798 1005.16,-264.048 1104.98,-243.977"/>
<polygon fill="midnightblue" stroke="midnightblue" points="1105.84,-247.375 1114.94,-241.947 1104.44,-240.516 1105.84,-247.375"/>
</g>
<!-- Node10 -->
<g id="node10" class="node"><title>Node10</title>
<g id="a_node10"><a xlink:href="_common_8h.html" target="_top" xlink:title="uscxml/Common.h">
<polygon fill="white" stroke="black" points="240.5,-56.5 240.5,-75.5 339.5,-75.5 339.5,-56.5 240.5,-56.5"/>
<text text-anchor="middle" x="290" y="-63.5" font-family="Helvetica,sans-Serif" font-size="10.00">uscxml/Common.h</text>
</a>
</g>
</g>
<!-- Node1&#45;&gt;Node10 -->
<g id="edge9" class="edge"><title>Node1&#45;&gt;Node10</title>
<path fill="none" stroke="midnightblue" d="M725.458,-287.764C583.635,-284.209 215.98,-272.34 169,-244 112.139,-209.699 57.7784,-164.062 99,-112 115.223,-91.5101 180.608,-79.4167 230.398,-73.0152"/>
<polygon fill="midnightblue" stroke="midnightblue" points="230.951,-76.4736 240.446,-71.7723 230.092,-69.5266 230.951,-76.4736"/>
</g>
<!-- Node13 -->
<g id="node13" class="node"><title>Node13</title>
<g id="a_node13"><a xlink:href="_event_8h.html" target="_top" xlink:title="uscxml/messages/Event.h">
<polygon fill="white" stroke="black" points="178.5,-224.5 178.5,-243.5 311.5,-243.5 311.5,-224.5 178.5,-224.5"/>
<text text-anchor="middle" x="245" y="-231.5" font-family="Helvetica,sans-Serif" font-size="10.00">uscxml/messages/Event.h</text>
</a>
</g>
</g>
<!-- Node1&#45;&gt;Node13 -->
<g id="edge12" class="edge"><title>Node1&#45;&gt;Node13</title>
<path fill="none" stroke="midnightblue" d="M725.294,-283.709C639.501,-275.511 469.876,-259.107 326,-244 324.694,-243.863 323.376,-243.724 322.049,-243.583"/>
<polygon fill="midnightblue" stroke="midnightblue" points="322.054,-240.064 311.738,-242.48 321.309,-247.024 322.054,-240.064"/>
</g>
<!-- Node17 -->
<g id="node17" class="node"><title>Node17</title>
<polygon fill="white" stroke="#bfbfbf" points="700.5,-112.5 700.5,-131.5 785.5,-131.5 785.5,-112.5 700.5,-112.5"/>
<text text-anchor="middle" x="743" y="-119.5" font-family="Helvetica,sans-Serif" font-size="10.00">uscxml/config.h</text>
</g>
<!-- Node1&#45;&gt;Node17 -->
<g id="edge31" class="edge"><title>Node1&#45;&gt;Node17</title>
<path fill="none" stroke="midnightblue" d="M778.043,-280.45C775.002,-271.455 770.263,-256.847 767,-244 757.894,-208.145 750.15,-165.587 746.075,-141.696"/>
<polygon fill="midnightblue" stroke="midnightblue" points="749.484,-140.862 744.38,-131.578 742.581,-142.019 749.484,-140.862"/>
</g>
<!-- Node11 -->
<g id="node11" class="node"><title>Node11</title>
<polygon fill="white" stroke="#bfbfbf" points="216,-0.5 216,-19.5 288,-19.5 288,-0.5 216,-0.5"/>
<text text-anchor="middle" x="252" y="-7.5" font-family="Helvetica,sans-Serif" font-size="10.00">sys/socket.h</text>
</g>
<!-- Node10&#45;&gt;Node11 -->
<g id="edge10" class="edge"><title>Node10&#45;&gt;Node11</title>
<path fill="none" stroke="midnightblue" d="M283.725,-56.083C278.358,-48.4554 270.482,-37.2645 263.921,-27.9408"/>
<polygon fill="midnightblue" stroke="midnightblue" points="266.775,-25.9149 258.158,-19.7511 261.051,-29.9434 266.775,-25.9149"/>
</g>
<!-- Node12 -->
<g id="node12" class="node"><title>Node12</title>
<polygon fill="white" stroke="#bfbfbf" points="306,-0.5 306,-19.5 350,-19.5 350,-0.5 306,-0.5"/>
<text text-anchor="middle" x="328" y="-7.5" font-family="Helvetica,sans-Serif" font-size="10.00">cmath</text>
</g>
<!-- Node10&#45;&gt;Node12 -->
<g id="edge11" class="edge"><title>Node10&#45;&gt;Node12</title>
<path fill="none" stroke="midnightblue" d="M296.275,-56.083C301.642,-48.4554 309.518,-37.2645 316.079,-27.9408"/>
<polygon fill="midnightblue" stroke="midnightblue" points="318.949,-29.9434 321.842,-19.7511 313.225,-25.9149 318.949,-29.9434"/>
</g>
<!-- Node14 -->
<g id="node14" class="node"><title>Node14</title>
<g id="a_node14"><a xlink:href="_data_8h.html" target="_top" xlink:title="uscxml/messages/Data.h">
<polygon fill="white" stroke="black" points="368,-168.5 368,-187.5 496,-187.5 496,-168.5 368,-168.5"/>
<text text-anchor="middle" x="432" y="-175.5" font-family="Helvetica,sans-Serif" font-size="10.00">uscxml/messages/Data.h</text>
</a>
</g>
</g>
<!-- Node13&#45;&gt;Node14 -->
<g id="edge13" class="edge"><title>Node13&#45;&gt;Node14</title>
<path fill="none" stroke="midnightblue" d="M274.631,-224.444C306.5,-215.241 357.333,-200.562 392.564,-190.388"/>
<polygon fill="midnightblue" stroke="midnightblue" points="393.872,-193.653 402.508,-187.516 391.929,-186.928 393.872,-193.653"/>
</g>
<!-- Node22 -->
<g id="node22" class="node"><title>Node22</title>
<g id="a_node22"><a xlink:href="_u_u_i_d_8h.html" target="_top" xlink:title="uscxml/util/UUID.h">
<polygon fill="white" stroke="black" points="108.5,-112.5 108.5,-131.5 207.5,-131.5 207.5,-112.5 108.5,-112.5"/>
<text text-anchor="middle" x="158" y="-119.5" font-family="Helvetica,sans-Serif" font-size="10.00">uscxml/util/UUID.h</text>
</a>
</g>
</g>
<!-- Node13&#45;&gt;Node22 -->
<g id="edge28" class="edge"><title>Node13&#45;&gt;Node22</title>
<path fill="none" stroke="midnightblue" d="M238.173,-224.368C223.752,-206.135 189.973,-163.426 171.189,-139.675"/>
<polygon fill="midnightblue" stroke="midnightblue" points="173.744,-137.264 164.795,-131.591 168.253,-141.606 173.744,-137.264"/>
</g>
<!-- Node14&#45;&gt;Node3 -->
<g id="edge15" class="edge"><title>Node14&#45;&gt;Node3</title>
<path fill="none" stroke="midnightblue" d="M402.211,-168.444C366.461,-158.175 306.977,-141.089 272.029,-131.051"/>
<polygon fill="midnightblue" stroke="midnightblue" points="272.602,-127.574 262.024,-128.177 270.669,-134.302 272.602,-127.574"/>
</g>
<!-- Node14&#45;&gt;Node10 -->
<g id="edge18" class="edge"><title>Node14&#45;&gt;Node10</title>
<path fill="none" stroke="midnightblue" d="M377.423,-168.461C353.503,-162.113 326.867,-151.093 309,-132 297.337,-119.536 292.792,-100.303 291.042,-85.9874"/>
<polygon fill="midnightblue" stroke="midnightblue" points="294.508,-85.4438 290.156,-75.7843 287.534,-86.0497 294.508,-85.4438"/>
</g>
<!-- Node15 -->
<g id="node15" class="node"><title>Node15</title>
<polygon fill="white" stroke="#bfbfbf" points="318.5,-112.5 318.5,-131.5 347.5,-131.5 347.5,-112.5 318.5,-112.5"/>
<text text-anchor="middle" x="333" y="-119.5" font-family="Helvetica,sans-Serif" font-size="10.00">list</text>
</g>
<!-- Node14&#45;&gt;Node15 -->
<g id="edge14" class="edge"><title>Node14&#45;&gt;Node15</title>
<path fill="none" stroke="midnightblue" d="M416.094,-168.324C399.989,-159.54 374.902,-145.856 356.504,-135.821"/>
<polygon fill="midnightblue" stroke="midnightblue" points="358.031,-132.667 347.576,-130.951 354.679,-138.812 358.031,-132.667"/>
</g>
<!-- Node16 -->
<g id="node16" class="node"><title>Node16</title>
<polygon fill="white" stroke="#bfbfbf" points="579.5,-56.5 579.5,-75.5 632.5,-75.5 632.5,-56.5 579.5,-56.5"/>
<text text-anchor="middle" x="606" y="-63.5" font-family="Helvetica,sans-Serif" font-size="10.00">memory</text>
</g>
<!-- Node14&#45;&gt;Node16 -->
<g id="edge16" class="edge"><title>Node14&#45;&gt;Node16</title>
<path fill="none" stroke="midnightblue" d="M496.036,-172.772C554.086,-167.446 633.462,-155.918 653,-132 666.628,-115.317 646.626,-95.0632 628.66,-81.6446"/>
<polygon fill="midnightblue" stroke="midnightblue" points="630.35,-78.5537 620.16,-75.6521 626.317,-84.2748 630.35,-78.5537"/>
</g>
<!-- Node14&#45;&gt;Node17 -->
<g id="edge17" class="edge"><title>Node14&#45;&gt;Node17</title>
<path fill="none" stroke="midnightblue" d="M481.279,-168.444C538.315,-158.54 631.872,-142.295 690.316,-132.148"/>
<polygon fill="midnightblue" stroke="midnightblue" points="691.194,-135.548 700.448,-130.388 689.997,-128.651 691.194,-135.548"/>
</g>
<!-- Node18 -->
<g id="node18" class="node"><title>Node18</title>
<g id="a_node18"><a xlink:href="_convenience_8h.html" target="_top" xlink:title="uscxml/util/Convenience.h">
<polygon fill="white" stroke="black" points="365.5,-112.5 365.5,-131.5 498.5,-131.5 498.5,-112.5 365.5,-112.5"/>
<text text-anchor="middle" x="432" y="-119.5" font-family="Helvetica,sans-Serif" font-size="10.00">uscxml/util/Convenience.h</text>
</a>
</g>
</g>
<!-- Node14&#45;&gt;Node18 -->
<g id="edge19" class="edge"><title>Node14&#45;&gt;Node18</title>
<path fill="none" stroke="midnightblue" d="M432,-168.083C432,-161.006 432,-150.861 432,-141.986"/>
<polygon fill="midnightblue" stroke="midnightblue" points="435.5,-141.751 432,-131.751 428.5,-141.751 435.5,-141.751"/>
</g>
<!-- Node21 -->
<g id="node21" class="node"><title>Node21</title>
<g id="a_node21"><a xlink:href="_blob_8h.html" target="_top" xlink:title="uscxml/messages/Blob.h">
<polygon fill="white" stroke="black" points="516.5,-112.5 516.5,-131.5 643.5,-131.5 643.5,-112.5 516.5,-112.5"/>
<text text-anchor="middle" x="580" y="-119.5" font-family="Helvetica,sans-Serif" font-size="10.00">uscxml/messages/Blob.h</text>
</a>
</g>
</g>
<!-- Node14&#45;&gt;Node21 -->
<g id="edge24" class="edge"><title>Node14&#45;&gt;Node21</title>
<path fill="none" stroke="midnightblue" d="M455.451,-168.444C480.133,-159.438 519.185,-145.189 546.977,-135.049"/>
<polygon fill="midnightblue" stroke="midnightblue" points="548.464,-138.232 556.659,-131.516 546.065,-131.656 548.464,-138.232"/>
</g>
<!-- Node18&#45;&gt;Node4 -->
<g id="edge21" class="edge"><title>Node18&#45;&gt;Node4</title>
<path fill="none" stroke="midnightblue" d="M449.191,-112.324C466.351,-103.664 492.946,-90.2424 512.747,-80.249"/>
<polygon fill="midnightblue" stroke="midnightblue" points="514.501,-83.2847 521.851,-75.6545 511.347,-77.0354 514.501,-83.2847"/>
</g>
<!-- Node18&#45;&gt;Node10 -->
<g id="edge20" class="edge"><title>Node18&#45;&gt;Node10</title>
<path fill="none" stroke="midnightblue" d="M409.5,-112.444C385.923,-103.478 348.678,-89.314 322.036,-79.1827"/>
<polygon fill="midnightblue" stroke="midnightblue" points="322.986,-75.7995 312.395,-75.5164 320.498,-82.3424 322.986,-75.7995"/>
</g>
<!-- Node19 -->
<g id="node19" class="node"><title>Node19</title>
<polygon fill="white" stroke="#bfbfbf" points="386.5,-56.5 386.5,-75.5 425.5,-75.5 425.5,-56.5 386.5,-56.5"/>
<text text-anchor="middle" x="406" y="-63.5" font-family="Helvetica,sans-Serif" font-size="10.00">limits</text>
</g>
<!-- Node18&#45;&gt;Node19 -->
<g id="edge22" class="edge"><title>Node18&#45;&gt;Node19</title>
<path fill="none" stroke="midnightblue" d="M427.707,-112.083C424.148,-104.691 418.978,-93.9533 414.576,-84.8111"/>
<polygon fill="midnightblue" stroke="midnightblue" points="417.705,-83.2427 410.213,-75.7511 411.398,-86.2795 417.705,-83.2427"/>
</g>
<!-- Node20 -->
<g id="node20" class="node"><title>Node20</title>
<polygon fill="white" stroke="#bfbfbf" points="444,-56.5 444,-75.5 496,-75.5 496,-56.5 444,-56.5"/>
<text text-anchor="middle" x="470" y="-63.5" font-family="Helvetica,sans-Serif" font-size="10.00">sstream</text>
</g>
<!-- Node18&#45;&gt;Node20 -->
<g id="edge23" class="edge"><title>Node18&#45;&gt;Node20</title>
<path fill="none" stroke="midnightblue" d="M438.275,-112.083C443.642,-104.455 451.518,-93.2645 458.079,-83.9408"/>
<polygon fill="midnightblue" stroke="midnightblue" points="460.949,-85.9434 463.842,-75.7511 455.225,-81.9149 460.949,-85.9434"/>
</g>
<!-- Node21&#45;&gt;Node4 -->
<g id="edge25" class="edge"><title>Node21&#45;&gt;Node4</title>
<path fill="none" stroke="midnightblue" d="M573.23,-112.083C567.438,-104.455 558.942,-93.2645 551.862,-83.9408"/>
<polygon fill="midnightblue" stroke="midnightblue" points="554.479,-81.5991 545.644,-75.7511 548.904,-85.8321 554.479,-81.5991"/>
</g>
<!-- Node21&#45;&gt;Node10 -->
<g id="edge27" class="edge"><title>Node21&#45;&gt;Node10</title>
<path fill="none" stroke="midnightblue" d="M534.049,-112.444C482.929,-102.925 400.346,-87.5472 345.617,-77.3563"/>
<polygon fill="midnightblue" stroke="midnightblue" points="346.208,-73.9063 335.736,-75.5164 344.927,-80.788 346.208,-73.9063"/>
</g>
<!-- Node21&#45;&gt;Node16 -->
<g id="edge26" class="edge"><title>Node21&#45;&gt;Node16</title>
<path fill="none" stroke="midnightblue" d="M584.293,-112.083C587.852,-104.691 593.022,-93.9533 597.424,-84.8111"/>
<polygon fill="midnightblue" stroke="midnightblue" points="600.602,-86.2795 601.787,-75.7511 594.295,-83.2427 600.602,-86.2795"/>
</g>
<!-- Node22&#45;&gt;Node4 -->
<g id="edge30" class="edge"><title>Node22&#45;&gt;Node4</title>
<path fill="none" stroke="midnightblue" d="M207.56,-113.341C210.753,-112.878 213.921,-112.427 217,-112 344.772,-94.2722 378.363,-100.56 505,-76 506.079,-75.7907 507.174,-75.5664 508.278,-75.3302"/>
<polygon fill="midnightblue" stroke="midnightblue" points="509.322,-78.68 518.244,-72.9675 507.707,-71.8688 509.322,-78.68"/>
</g>
<!-- Node22&#45;&gt;Node10 -->
<g id="edge29" class="edge"><title>Node22&#45;&gt;Node10</title>
<path fill="none" stroke="midnightblue" d="M178.916,-112.444C200.736,-103.517 235.15,-89.4387 259.892,-79.3168"/>
<polygon fill="midnightblue" stroke="midnightblue" points="261.252,-82.5422 269.182,-75.5164 258.601,-76.0634 261.252,-82.5422"/>
</g>
</g>
</svg>
        <g id="navigator" transform="translate(0 0)" fill="#404254">
                <rect fill="#f2f5e9" fill-opacity="0.5" stroke="#606060" stroke-width=".5" x="0" y="0" width="60" height="60"/>
                <use id="zoomplus" xlink:href="#zoomPlus" x="17" y="9" onmousedown="handleZoom(evt,'in')"/>
                <use id="zoomminus" xlink:href="#zoomMin" x="42" y="9" onmousedown="handleZoom(evt,'out')"/>
                <use id="reset" xlink:href="#resetDef" x="30" y="36" onmousedown="handleReset()"/>
                <g id="arrowUp" xlink:href="#dirArrow" transform="translate(30 24)" onmousedown="handlePan(0,-1)">
                  <use xlink:href="#rim" fill="#404040">
                        <set attributeName="fill" to="#808080" begin="arrowUp.mouseover" end="arrowUp.mouseout"/>
                  </use>
                  <path fill="none" stroke="white" stroke-width="1.5" d="M0,-3.0v7 M-2.5,-0.5L0,-3.0L2.5,-0.5"/>
                </g>
                <g id="arrowRight" xlink:href="#dirArrow" transform="rotate(90) translate(36 -43)" onmousedown="handlePan(1,0)">
                  <use xlink:href="#rim" fill="#404040">
                        <set attributeName="fill" to="#808080" begin="arrowRight.mouseover" end="arrowRight.mouseout"/>
                  </use>
                  <path fill="none" stroke="white" stroke-width="1.5" d="M0,-3.0v7 M-2.5,-0.5L0,-3.0L2.5,-0.5"/>
                </g>
                <g id="arrowDown" xlink:href="#dirArrow" transform="rotate(180) translate(-30 -48)" onmousedown="handlePan(0,1)">
                  <use xlink:href="#rim" fill="#404040">
                        <set attributeName="fill" to="#808080" begin="arrowDown.mouseover" end="arrowDown.mouseout"/>
                  </use>
                  <path fill="none" stroke="white" stroke-width="1.5" d="M0,-3.0v7 M-2.5,-0.5L0,-3.0L2.5,-0.5"/>
                </g>
                <g id="arrowLeft" xlink:href="#dirArrow" transform="rotate(270) translate(-36 17)" onmousedown="handlePan(-1,0)">
                  <use xlink:href="#rim" fill="#404040">
                        <set attributeName="fill" to="#808080" begin="arrowLeft.mouseover" end="arrowLeft.mouseout"/>
                  </use>
                  <path fill="none" stroke="white" stroke-width="1.5" d="M0,-3.0v7 M-2.5,-0.5L0,-3.0L2.5,-0.5"/>
                </g>
        </g>
        <svg viewBox="0 0 15 15" width="100%" height="30px" preserveAspectRatio="xMaxYMin meet">
         <g id="arrow_out" transform="scale(0.3 0.3)">
          <a xlink:href="_h_t_t_p_server_8h__incl_org.svg" target="_base">
           <rect id="button" ry="5" rx="5" y="6" x="6" height="38" width="38"
                fill="#f2f5e9" fill-opacity="0.5" stroke="#606060" stroke-width="1.0"/>
           <path id="arrow"
             d="M 11.500037,31.436501 C 11.940474,20.09759 22.043105,11.32322 32.158766,21.979434 L 37.068811,17.246167 C 37.068811,17.246167 37.088388,32 37.088388,32 L 22.160133,31.978069 C 22.160133,31.978069 26.997745,27.140456 26.997745,27.140456 C 18.528582,18.264221 13.291696,25.230495 11.500037,31.436501 z"
             style="fill:#404040;"/>
          </a>
         </g>
        </svg>
</svg>
