<?xml version="1.0" encoding="UTF-8" standalone="no"?>
<!DOCTYPE svg PUBLIC "-//W3C//DTD SVG 1.1//EN"
 "http://www.w3.org/Graphics/SVG/1.1/DTD/svg11.dtd">
<!-- Generated by graphviz version 2.38.0 (20140413.2041)
 -->
<!-- Title: plugins/IOProcessorImpl.h Pages: 1 -->
<svg width="505pt" height="162pt"
 viewBox="0.00 0.00 505.00 162.00" xmlns="http://www.w3.org/2000/svg" xmlns:xlink="http://www.w3.org/1999/xlink">
<g id="graph0" class="graph" transform="scale(1 1) rotate(0) translate(4 158)">
<title>plugins/IOProcessorImpl.h</title>
<polygon fill="white" stroke="none" points="-4,4 -4,-158 501,-158 501,4 -4,4"/>
<!-- Node1 -->
<g id="node1" class="node"><title>Node1</title>
<polygon fill="#bfbfbf" stroke="black" points="213.5,-134.5 213.5,-153.5 347.5,-153.5 347.5,-134.5 213.5,-134.5"/>
<text text-anchor="middle" x="280.5" y="-141.5" font-family="Helvetica,sans-Serif" font-size="10.00">plugins/IOProcessorImpl.h</text>
</g>
<!-- Node2 -->
<g id="node2" class="node"><title>Node2</title>
<g id="a_node2"><a xlink:href="_basic_h_t_t_p_i_o_processor_8h.html" target="_top" xlink:title="plugins/ioprocessor\l/basichttp/BasicHTTPIOProcessor.h">
<polygon fill="white" stroke="black" points="7,-67.5 7,-97.5 184,-97.5 184,-67.5 7,-67.5"/>
<text text-anchor="start" x="15" y="-85.5" font-family="Helvetica,sans-Serif" font-size="10.00">plugins/ioprocessor</text>
<text text-anchor="middle" x="95.5" y="-74.5" font-family="Helvetica,sans-Serif" font-size="10.00">/basichttp/BasicHTTPIOProcessor.h</text>
</a>
</g>
</g>
<!-- Node1&#45;&gt;Node2 -->
<g id="edge1" class="edge"><title>Node1&#45;&gt;Node2</title>
<path fill="none" stroke="midnightblue" d="M244.299,-131.357C214.155,-121.662 171.136,-107.826 139.101,-97.523"/>
<polygon fill="midnightblue" stroke="midnightblue" points="243.403,-134.745 253.994,-134.475 245.546,-128.081 243.403,-134.745"/>
</g>
<!-- Node4 -->
<g id="node4" class="node"><title>Node4</title>
<g id="a_node4"><a xlink:href="_s_c_x_m_l_i_o_processor_8h.html" target="_top" xlink:title="plugins/ioprocessor\l/scxml/SCXMLIOProcessor.h">
<polygon fill="white" stroke="black" points="207.5,-67.5 207.5,-97.5 353.5,-97.5 353.5,-67.5 207.5,-67.5"/>
<text text-anchor="start" x="215.5" y="-85.5" font-family="Helvetica,sans-Serif" font-size="10.00">plugins/ioprocessor</text>
<text text-anchor="middle" x="280.5" y="-74.5" font-family="Helvetica,sans-Serif" font-size="10.00">/scxml/SCXMLIOProcessor.h</text>
</a>
</g>
</g>
<!-- Node1&#45;&gt;Node4 -->
<g id="edge3" class="edge"><title>Node1&#45;&gt;Node4</title>
<path fill="none" stroke="midnightblue" d="M280.5,-124.235C280.5,-115.586 280.5,-105.497 280.5,-97.523"/>
<polygon fill="midnightblue" stroke="midnightblue" points="277,-124.475 280.5,-134.475 284,-124.475 277,-124.475"/>
</g>
<!-- Node6 -->
<g id="node6" class="node"><title>Node6</title>
<g id="a_node6"><a xlink:href="_i_o_processor_8cpp.html" target="_top" xlink:title="plugins/IOProcessor.cpp">
<polygon fill="white" stroke="black" points="372,-73 372,-92 497,-92 497,-73 372,-73"/>
<text text-anchor="middle" x="434.5" y="-80" font-family="Helvetica,sans-Serif" font-size="10.00">plugins/IOProcessor.cpp</text>
</a>
</g>
</g>
<!-- Node1&#45;&gt;Node6 -->
<g id="edge5" class="edge"><title>Node1&#45;&gt;Node6</title>
<path fill="none" stroke="midnightblue" d="M312.122,-130.782C342.049,-119.22 386.193,-102.164 412.476,-92.0091"/>
<polygon fill="midnightblue" stroke="midnightblue" points="310.631,-127.606 302.564,-134.475 313.154,-134.136 310.631,-127.606"/>
</g>
<!-- Node3 -->
<g id="node3" class="node"><title>Node3</title>
<g id="a_node3"><a xlink:href="_basic_h_t_t_p_i_o_processor_8cpp.html" target="_top" xlink:title="plugins/ioprocessor\l/basichttp/BasicHTTPIOProcessor.cpp">
<polygon fill="white" stroke="black" points="0,-0.5 0,-30.5 187,-30.5 187,-0.5 0,-0.5"/>
<text text-anchor="start" x="8" y="-18.5" font-family="Helvetica,sans-Serif" font-size="10.00">plugins/ioprocessor</text>
<text text-anchor="middle" x="93.5" y="-7.5" font-family="Helvetica,sans-Serif" font-size="10.00">/basichttp/BasicHTTPIOProcessor.cpp</text>
</a>
</g>
</g>
<!-- Node2&#45;&gt;Node3 -->
<g id="edge2" class="edge"><title>Node2&#45;&gt;Node3</title>
<path fill="none" stroke="midnightblue" d="M94.7495,-57.1081C94.474,-48.1539 94.1715,-38.3227 93.9331,-30.5765"/>
<polygon fill="midnightblue" stroke="midnightblue" points="91.26,-57.5084 95.066,-67.396 98.2567,-57.293 91.26,-57.5084"/>
</g>
<!-- Node5 -->
<g id="node5" class="node"><title>Node5</title>
<g id="a_node5"><a xlink:href="_s_c_x_m_l_i_o_processor_8cpp.html" target="_top" xlink:title="plugins/ioprocessor\l/scxml/SCXMLIOProcessor.cpp">
<polygon fill="white" stroke="black" points="205,-0.5 205,-30.5 362,-30.5 362,-0.5 205,-0.5"/>
<text text-anchor="start" x="213" y="-18.5" font-family="Helvetica,sans-Serif" font-size="10.00">plugins/ioprocessor</text>
<text text-anchor="middle" x="283.5" y="-7.5" font-family="Helvetica,sans-Serif" font-size="10.00">/scxml/SCXMLIOProcessor.cpp</text>
</a>
</g>
</g>
<!-- Node4&#45;&gt;Node5 -->
<g id="edge4" class="edge"><title>Node4&#45;&gt;Node5</title>
<path fill="none" stroke="midnightblue" d="M281.612,-57.4029C282.029,-48.3703 282.489,-38.4078 282.85,-30.5765"/>
<polygon fill="midnightblue" stroke="midnightblue" points="278.116,-57.2452 281.151,-67.396 285.108,-57.568 278.116,-57.2452"/>
</g>
</g>
</svg>
