<?xml version="1.0" encoding="UTF-8" standalone="no"?>
<!DOCTYPE svg PUBLIC "-//W3C//DTD SVG 1.1//EN"
 "http://www.w3.org/Graphics/SVG/1.1/DTD/svg11.dtd">
<!-- Generated by graphviz version 2.40.1 (20161225.0304)
 -->
<!-- Title: interpreter/InterpreterImpl.h Pages: 1 -->
<svg width="1501pt" height="285pt"
 viewBox="0.00 0.00 1500.50 285.00" xmlns="http://www.w3.org/2000/svg" xmlns:xlink="http://www.w3.org/1999/xlink">
<g id="graph0" class="graph" transform="scale(1 1) rotate(0) translate(4 281)">
<title>interpreter/InterpreterImpl.h</title>
<polygon fill="#ffffff" stroke="transparent" points="-4,4 -4,-281 1496.5,-281 1496.5,4 -4,4"/>
<!-- Node1 -->
<g id="node1" class="node">
<title>Node1</title>
<polygon fill="#bfbfbf" stroke="#000000" points="555,-257.5 555,-276.5 693,-276.5 693,-257.5 555,-257.5"/>
<text text-anchor="middle" x="624" y="-264.5" font-family="Helvetica,sans-Serif" font-size="10.00" fill="#000000">interpreter/InterpreterImpl.h</text>
</g>
<!-- Node2 -->
<g id="node2" class="node">
<title>Node2</title>
<g id="a_node2"><a xlink:href="$_breakpoint_8cpp.html" xlink:title="debug/Breakpoint.cpp">
<polygon fill="#ffffff" stroke="#000000" points="11,-196 11,-215 125,-215 125,-196 11,-196"/>
<text text-anchor="middle" x="68" y="-203" font-family="Helvetica,sans-Serif" font-size="10.00" fill="#000000">debug/Breakpoint.cpp</text>
</a>
</g>
</g>
<!-- Node1&#45;&gt;Node2 -->
<g id="edge1" class="edge">
<title>Node1&#45;&gt;Node2</title>
<path fill="none" stroke="#191970" d="M544.5923,-262.9004C447.3217,-257.1082 277.7429,-244.5123 134,-221 124.359,-219.423 114.0318,-217.2393 104.4768,-215.008"/>
<polygon fill="#191970" stroke="#191970" points="544.4555,-266.3983 554.6433,-263.4899 544.8654,-259.4103 544.4555,-266.3983"/>
</g>
<!-- Node3 -->
<g id="node3" class="node">
<title>Node3</title>
<g id="a_node3"><a xlink:href="$_debugger_8h.html" xlink:title="debug/Debugger.h">
<polygon fill="#ffffff" stroke="#000000" points="143.5,-196 143.5,-215 242.5,-215 242.5,-196 143.5,-196"/>
<text text-anchor="middle" x="193" y="-203" font-family="Helvetica,sans-Serif" font-size="10.00" fill="#000000">debug/Debugger.h</text>
</a>
</g>
</g>
<!-- Node1&#45;&gt;Node3 -->
<g id="edge2" class="edge">
<title>Node1&#45;&gt;Node3</title>
<path fill="none" stroke="#191970" d="M544.2654,-260.2556C468.6091,-253.1227 351.9429,-240.2178 252,-221 243.5759,-219.3802 234.576,-217.2336 226.2081,-215.0558"/>
<polygon fill="#191970" stroke="#191970" points="544.3811,-263.7814 554.6626,-261.2238 545.0302,-256.8116 544.3811,-263.7814"/>
</g>
<!-- Node8 -->
<g id="node8" class="node">
<title>Node8</title>
<g id="a_node8"><a xlink:href="$_interpreter_issue_8cpp.html" xlink:title="debug/InterpreterIssue.cpp">
<polygon fill="#ffffff" stroke="#000000" points="261,-196 261,-215 397,-215 397,-196 261,-196"/>
<text text-anchor="middle" x="329" y="-203" font-family="Helvetica,sans-Serif" font-size="10.00" fill="#000000">debug/InterpreterIssue.cpp</text>
</a>
</g>
</g>
<!-- Node1&#45;&gt;Node8 -->
<g id="edge7" class="edge">
<title>Node1&#45;&gt;Node8</title>
<path fill="none" stroke="#191970" d="M568.132,-255.3529C512.1572,-243.6836 427.0276,-225.9363 374.8775,-215.0643"/>
<polygon fill="#191970" stroke="#191970" points="567.7261,-258.8435 578.2299,-257.4581 569.1547,-251.9908 567.7261,-258.8435"/>
</g>
<!-- Node9 -->
<g id="node9" class="node">
<title>Node9</title>
<g id="a_node9"><a xlink:href="$_interpreter_impl_8cpp.html" xlink:title="interpreter/InterpreterImpl.cpp">
<polygon fill="#ffffff" stroke="#000000" points="415.5,-196 415.5,-215 564.5,-215 564.5,-196 415.5,-196"/>
<text text-anchor="middle" x="490" y="-203" font-family="Helvetica,sans-Serif" font-size="10.00" fill="#000000">interpreter/InterpreterImpl.cpp</text>
</a>
</g>
</g>
<!-- Node1&#45;&gt;Node9 -->
<g id="edge8" class="edge">
<title>Node1&#45;&gt;Node9</title>
<path fill="none" stroke="#191970" d="M593.9089,-253.1895C568.5918,-241.5701 533.0546,-225.2601 510.7905,-215.0419"/>
<polygon fill="#191970" stroke="#191970" points="592.514,-256.4003 603.0625,-257.3906 595.4339,-250.0384 592.514,-256.4003"/>
</g>
<!-- Node10 -->
<g id="node10" class="node">
<title>Node10</title>
<g id="a_node10"><a xlink:href="$_interpreter_8cpp.html" xlink:title="Interpreter.cpp">
<polygon fill="#ffffff" stroke="#000000" points="583,-196 583,-215 665,-215 665,-196 583,-196"/>
<text text-anchor="middle" x="624" y="-203" font-family="Helvetica,sans-Serif" font-size="10.00" fill="#000000">Interpreter.cpp</text>
</a>
</g>
</g>
<!-- Node1&#45;&gt;Node10 -->
<g id="edge9" class="edge">
<title>Node1&#45;&gt;Node10</title>
<path fill="none" stroke="#191970" d="M624,-247.2462C624,-236.5519 624,-223.814 624,-215.2449"/>
<polygon fill="#191970" stroke="#191970" points="620.5001,-247.3906 624,-257.3906 627.5001,-247.3907 620.5001,-247.3906"/>
</g>
<!-- Node11 -->
<g id="node11" class="node">
<title>Node11</title>
<g id="a_node11"><a xlink:href="$_u_s_c_x_m_l_invoker_8h.html" xlink:title="plugins/invoker/scxml\l/USCXMLInvoker.h">
<polygon fill="#ffffff" stroke="#000000" points="683,-190.5 683,-220.5 795,-220.5 795,-190.5 683,-190.5"/>
<text text-anchor="start" x="691" y="-208.5" font-family="Helvetica,sans-Serif" font-size="10.00" fill="#000000">plugins/invoker/scxml</text>
<text text-anchor="middle" x="739" y="-197.5" font-family="Helvetica,sans-Serif" font-size="10.00" fill="#000000">/USCXMLInvoker.h</text>
</a>
</g>
</g>
<!-- Node1&#45;&gt;Node11 -->
<g id="edge10" class="edge">
<title>Node1&#45;&gt;Node11</title>
<path fill="none" stroke="#191970" d="M650.8195,-252.6574C668.8493,-243.0154 692.5703,-230.3298 710.8678,-220.5446"/>
<polygon fill="#191970" stroke="#191970" points="649.1364,-249.5884 641.9688,-257.3906 652.4375,-255.7611 649.1364,-249.5884"/>
</g>
<!-- Node13 -->
<g id="node13" class="node">
<title>Node13</title>
<g id="a_node13"><a xlink:href="$_basic_h_t_t_p_i_o_processor_8h.html" xlink:title="plugins/ioprocessor\l/basichttp/BasicHTTPIOProcessor.h">
<polygon fill="#ffffff" stroke="#000000" points="813.5,-190.5 813.5,-220.5 990.5,-220.5 990.5,-190.5 813.5,-190.5"/>
<text text-anchor="start" x="821.5" y="-208.5" font-family="Helvetica,sans-Serif" font-size="10.00" fill="#000000">plugins/ioprocessor</text>
<text text-anchor="middle" x="902" y="-197.5" font-family="Helvetica,sans-Serif" font-size="10.00" fill="#000000">/basichttp/BasicHTTPIOProcessor.h</text>
</a>
</g>
</g>
<!-- Node1&#45;&gt;Node13 -->
<g id="edge12" class="edge">
<title>Node1&#45;&gt;Node13</title>
<path fill="none" stroke="#191970" d="M676.9079,-255.2956C721.5366,-245.4227 785.6967,-231.229 834.1078,-220.5193"/>
<polygon fill="#191970" stroke="#191970" points="676.1404,-251.8806 667.1325,-257.4581 677.6524,-258.7154 676.1404,-251.8806"/>
</g>
<!-- Node15 -->
<g id="node15" class="node">
<title>Node15</title>
<g id="a_node15"><a xlink:href="$_s_c_x_m_l_i_o_processor_8cpp.html" xlink:title="plugins/ioprocessor\l/scxml/SCXMLIOProcessor.cpp">
<polygon fill="#ffffff" stroke="#000000" points="1008.5,-190.5 1008.5,-220.5 1165.5,-220.5 1165.5,-190.5 1008.5,-190.5"/>
<text text-anchor="start" x="1016.5" y="-208.5" font-family="Helvetica,sans-Serif" font-size="10.00" fill="#000000">plugins/ioprocessor</text>
<text text-anchor="middle" x="1087" y="-197.5" font-family="Helvetica,sans-Serif" font-size="10.00" fill="#000000">/scxml/SCXMLIOProcessor.cpp</text>
</a>
</g>
</g>
<!-- Node1&#45;&gt;Node15 -->
<g id="edge14" class="edge">
<title>Node1&#45;&gt;Node15</title>
<path fill="none" stroke="#191970" d="M703.2419,-258.4974C779.2525,-250.0539 897.1796,-236.2015 999,-221 1002.0686,-220.5419 1005.1948,-220.0607 1008.3509,-219.5629"/>
<polygon fill="#191970" stroke="#191970" points="702.8168,-255.0229 693.2624,-259.6016 703.5867,-261.9805 702.8168,-255.0229"/>
</g>
<!-- Node16 -->
<g id="node16" class="node">
<title>Node16</title>
<g id="a_node16"><a xlink:href="$_transformer_8h.html" xlink:title="transform/Transformer.h">
<polygon fill="#ffffff" stroke="#000000" points="1184,-196 1184,-215 1308,-215 1308,-196 1184,-196"/>
<text text-anchor="middle" x="1246" y="-203" font-family="Helvetica,sans-Serif" font-size="10.00" fill="#000000">transform/Transformer.h</text>
</a>
</g>
</g>
<!-- Node1&#45;&gt;Node16 -->
<g id="edge15" class="edge">
<title>Node1&#45;&gt;Node16</title>
<path fill="none" stroke="#191970" d="M703.4521,-263.5662C810.7146,-258.1992 1007.5873,-245.7666 1174,-221 1184.4971,-219.4378 1195.7559,-217.2592 1206.1792,-215.0282"/>
<polygon fill="#191970" stroke="#191970" points="703.1713,-260.0756 693.3557,-264.0636 703.5158,-267.0672 703.1713,-260.0756"/>
</g>
<!-- Node4 -->
<g id="node4" class="node">
<title>Node4</title>
<g id="a_node4"><a xlink:href="$_debugger_8cpp.html" xlink:title="debug/Debugger.cpp">
<polygon fill="#ffffff" stroke="#000000" points="0,-129 0,-148 110,-148 110,-129 0,-129"/>
<text text-anchor="middle" x="55" y="-136" font-family="Helvetica,sans-Serif" font-size="10.00" fill="#000000">debug/Debugger.cpp</text>
</a>
</g>
</g>
<!-- Node3&#45;&gt;Node4 -->
<g id="edge3" class="edge">
<title>Node3&#45;&gt;Node4</title>
<path fill="none" stroke="#191970" d="M163.9609,-191.4013C137.1594,-178.389 98.0834,-159.4173 74.7354,-148.0817"/>
<polygon fill="#191970" stroke="#191970" points="162.7035,-194.6815 173.228,-195.9005 165.7608,-188.3844 162.7035,-194.6815"/>
</g>
<!-- Node5 -->
<g id="node5" class="node">
<title>Node5</title>
<g id="a_node5"><a xlink:href="$_debugger_servlet_8h.html" xlink:title="debug/DebuggerServlet.h">
<polygon fill="#ffffff" stroke="#000000" points="128,-129 128,-148 258,-148 258,-129 128,-129"/>
<text text-anchor="middle" x="193" y="-136" font-family="Helvetica,sans-Serif" font-size="10.00" fill="#000000">debug/DebuggerServlet.h</text>
</a>
</g>
</g>
<!-- Node3&#45;&gt;Node5 -->
<g id="edge4" class="edge">
<title>Node3&#45;&gt;Node5</title>
<path fill="none" stroke="#191970" d="M193,-185.6079C193,-173.214 193,-157.8263 193,-148.0817"/>
<polygon fill="#191970" stroke="#191970" points="189.5001,-185.9005 193,-195.9005 196.5001,-185.9006 189.5001,-185.9005"/>
</g>
<!-- Node7 -->
<g id="node7" class="node">
<title>Node7</title>
<g id="a_node7"><a xlink:href="$_debug_session_8cpp.html" xlink:title="debug/DebugSession.cpp">
<polygon fill="#ffffff" stroke="#000000" points="276.5,-129 276.5,-148 407.5,-148 407.5,-129 276.5,-129"/>
<text text-anchor="middle" x="342" y="-136" font-family="Helvetica,sans-Serif" font-size="10.00" fill="#000000">debug/DebugSession.cpp</text>
</a>
</g>
</g>
<!-- Node3&#45;&gt;Node7 -->
<g id="edge6" class="edge">
<title>Node3&#45;&gt;Node7</title>
<path fill="none" stroke="#191970" d="M223.5953,-191.7424C252.5502,-178.7224 295.2613,-159.5167 320.6915,-148.0817"/>
<polygon fill="#191970" stroke="#191970" points="222.033,-188.6072 214.3481,-195.9005 224.9038,-194.9915 222.033,-188.6072"/>
</g>
<!-- Node6 -->
<g id="node6" class="node">
<title>Node6</title>
<g id="a_node6"><a xlink:href="$_debugger_servlet_8cpp.html" xlink:title="debug/DebuggerServlet.cpp">
<polygon fill="#ffffff" stroke="#000000" points="122.5,-67.5 122.5,-86.5 263.5,-86.5 263.5,-67.5 122.5,-67.5"/>
<text text-anchor="middle" x="193" y="-74.5" font-family="Helvetica,sans-Serif" font-size="10.00" fill="#000000">debug/DebuggerServlet.cpp</text>
</a>
</g>
</g>
<!-- Node5&#45;&gt;Node6 -->
<g id="edge5" class="edge">
<title>Node5&#45;&gt;Node6</title>
<path fill="none" stroke="#191970" d="M193,-118.7462C193,-108.0519 193,-95.314 193,-86.7449"/>
<polygon fill="#191970" stroke="#191970" points="189.5001,-118.8906 193,-128.8906 196.5001,-118.8907 189.5001,-118.8906"/>
</g>
<!-- Node12 -->
<g id="node12" class="node">
<title>Node12</title>
<g id="a_node12"><a xlink:href="$_u_s_c_x_m_l_invoker_8cpp.html" xlink:title="plugins/invoker/scxml\l/USCXMLInvoker.cpp">
<polygon fill="#ffffff" stroke="#000000" points="679.5,-123.5 679.5,-153.5 792.5,-153.5 792.5,-123.5 679.5,-123.5"/>
<text text-anchor="start" x="687.5" y="-141.5" font-family="Helvetica,sans-Serif" font-size="10.00" fill="#000000">plugins/invoker/scxml</text>
<text text-anchor="middle" x="736" y="-130.5" font-family="Helvetica,sans-Serif" font-size="10.00" fill="#000000">/USCXMLInvoker.cpp</text>
</a>
</g>
</g>
<!-- Node11&#45;&gt;Node12 -->
<g id="edge11" class="edge">
<title>Node11&#45;&gt;Node12</title>
<path fill="none" stroke="#191970" d="M737.8593,-180.0249C737.461,-171.128 737.0267,-161.4287 736.6781,-153.6432"/>
<polygon fill="#191970" stroke="#191970" points="734.3754,-180.4633 738.3193,-190.2967 741.3683,-180.1501 734.3754,-180.4633"/>
</g>
<!-- Node14 -->
<g id="node14" class="node">
<title>Node14</title>
<g id="a_node14"><a xlink:href="$_basic_h_t_t_p_i_o_processor_8cpp.html" xlink:title="plugins/ioprocessor\l/basichttp/BasicHTTPIOProcessor.cpp">
<polygon fill="#ffffff" stroke="#000000" points="810.5,-123.5 810.5,-153.5 997.5,-153.5 997.5,-123.5 810.5,-123.5"/>
<text text-anchor="start" x="818.5" y="-141.5" font-family="Helvetica,sans-Serif" font-size="10.00" fill="#000000">plugins/ioprocessor</text>
<text text-anchor="middle" x="904" y="-130.5" font-family="Helvetica,sans-Serif" font-size="10.00" fill="#000000">/basichttp/BasicHTTPIOProcessor.cpp</text>
</a>
</g>
</g>
<!-- Node13&#45;&gt;Node14 -->
<g id="edge13" class="edge">
<title>Node13&#45;&gt;Node14</title>
<path fill="none" stroke="#191970" d="M902.7605,-180.0249C903.026,-171.128 903.3156,-161.4287 903.548,-153.6432"/>
<polygon fill="#191970" stroke="#191970" points="899.2539,-180.1967 902.4538,-190.2967 906.2507,-180.4056 899.2539,-180.1967"/>
</g>
<!-- Node17 -->
<g id="node17" class="node">
<title>Node17</title>
<g id="a_node17"><a xlink:href="$_chart_to_c_8h.html" xlink:title="transform/ChartToC.h">
<polygon fill="#ffffff" stroke="#000000" points="1104.5,-129 1104.5,-148 1217.5,-148 1217.5,-129 1104.5,-129"/>
<text text-anchor="middle" x="1161" y="-136" font-family="Helvetica,sans-Serif" font-size="10.00" fill="#000000">transform/ChartToC.h</text>
</a>
</g>
</g>
<!-- Node16&#45;&gt;Node17 -->
<g id="edge16" class="edge">
<title>Node16&#45;&gt;Node17</title>
<path fill="none" stroke="#191970" d="M1225.8993,-189.6559C1209.5128,-176.7395 1186.9061,-158.9201 1173.1558,-148.0817"/>
<polygon fill="#191970" stroke="#191970" points="1223.8013,-192.4588 1233.8216,-195.9005 1228.1347,-186.9613 1223.8013,-192.4588"/>
</g>
<!-- Node19 -->
<g id="node19" class="node">
<title>Node19</title>
<g id="a_node19"><a xlink:href="$_chart_to_java_8h.html" xlink:title="transform/ChartToJava.h">
<polygon fill="#ffffff" stroke="#000000" points="886.5,-67.5 886.5,-86.5 1013.5,-86.5 1013.5,-67.5 886.5,-67.5"/>
<text text-anchor="middle" x="950" y="-74.5" font-family="Helvetica,sans-Serif" font-size="10.00" fill="#000000">transform/ChartToJava.h</text>
</a>
</g>
</g>
<!-- Node16&#45;&gt;Node19 -->
<g id="edge25" class="edge">
<title>Node16&#45;&gt;Node19</title>
<path fill="none" stroke="#191970" d="M1203.1093,-192.8787C1172.5046,-183.3905 1130.6274,-169.4182 1095,-154 1046.6069,-133.0573 992.4333,-102.1715 966.1063,-86.6504"/>
<polygon fill="#191970" stroke="#191970" points="1202.4442,-196.3355 1213.0308,-195.9202 1204.4958,-189.6429 1202.4442,-196.3355"/>
</g>
<!-- Node21 -->
<g id="node21" class="node">
<title>Node21</title>
<g id="a_node21"><a xlink:href="$_chart_to_promela_8h.html" xlink:title="transform/ChartToPromela.h">
<polygon fill="#ffffff" stroke="#000000" points="1174.5,-67.5 1174.5,-86.5 1317.5,-86.5 1317.5,-67.5 1174.5,-67.5"/>
<text text-anchor="middle" x="1246" y="-74.5" font-family="Helvetica,sans-Serif" font-size="10.00" fill="#000000">transform/ChartToPromela.h</text>
</a>
</g>
</g>
<!-- Node16&#45;&gt;Node21 -->
<g id="edge26" class="edge">
<title>Node16&#45;&gt;Node21</title>
<path fill="none" stroke="#191970" d="M1246,-185.6733C1246,-157.7236 1246,-107.8037 1246,-86.7705"/>
<polygon fill="#191970" stroke="#191970" points="1242.5001,-185.8416 1246,-195.8416 1249.5001,-185.8416 1242.5001,-185.8416"/>
</g>
<!-- Node24 -->
<g id="node24" class="node">
<title>Node24</title>
<g id="a_node24"><a xlink:href="$_chart_to_v_h_d_l_8h.html" xlink:title="transform/ChartToVHDL.h">
<polygon fill="#ffffff" stroke="#000000" points="1335.5,-67.5 1335.5,-86.5 1468.5,-86.5 1468.5,-67.5 1335.5,-67.5"/>
<text text-anchor="middle" x="1402" y="-74.5" font-family="Helvetica,sans-Serif" font-size="10.00" fill="#000000">transform/ChartToVHDL.h</text>
</a>
</g>
</g>
<!-- Node16&#45;&gt;Node24 -->
<g id="edge27" class="edge">
<title>Node16&#45;&gt;Node24</title>
<path fill="none" stroke="#191970" d="M1255.4002,-186.8137C1265.3684,-168.5526 1282.6176,-140.9536 1304,-123 1324.0076,-106.2008 1351.18,-94.083 1371.8383,-86.5155"/>
<polygon fill="#191970" stroke="#191970" points="1252.1902,-185.3979 1250.6314,-195.8775 1258.3851,-188.6574 1252.1902,-185.3979"/>
</g>
<!-- Node26 -->
<g id="node26" class="node">
<title>Node26</title>
<g id="a_node26"><a xlink:href="$_transformer_8cpp.html" xlink:title="transform/Transformer.cpp">
<polygon fill="#ffffff" stroke="#000000" points="1312.5,-129 1312.5,-148 1447.5,-148 1447.5,-129 1312.5,-129"/>
<text text-anchor="middle" x="1380" y="-136" font-family="Helvetica,sans-Serif" font-size="10.00" fill="#000000">transform/Transformer.cpp</text>
</a>
</g>
</g>
<!-- Node16&#45;&gt;Node26 -->
<g id="edge28" class="edge">
<title>Node16&#45;&gt;Node26</title>
<path fill="none" stroke="#191970" d="M1274.1974,-191.4013C1300.2221,-178.389 1338.1654,-159.4173 1360.8367,-148.0817"/>
<polygon fill="#191970" stroke="#191970" points="1272.5779,-188.2978 1265.1989,-195.9005 1275.7085,-194.5588 1272.5779,-188.2978"/>
</g>
<!-- Node18 -->
<g id="node18" class="node">
<title>Node18</title>
<g id="a_node18"><a xlink:href="$_chart_to_c_8cpp.html" xlink:title="transform/ChartToC.cpp">
<polygon fill="#ffffff" stroke="#000000" points="1032,-67.5 1032,-86.5 1156,-86.5 1156,-67.5 1032,-67.5"/>
<text text-anchor="middle" x="1094" y="-74.5" font-family="Helvetica,sans-Serif" font-size="10.00" fill="#000000">transform/ChartToC.cpp</text>
</a>
</g>
</g>
<!-- Node17&#45;&gt;Node18 -->
<g id="edge17" class="edge">
<title>Node17&#45;&gt;Node18</title>
<path fill="none" stroke="#191970" d="M1143.0769,-122.0482C1130.8007,-110.7798 1114.9345,-96.216 1104.6163,-86.7449"/>
<polygon fill="#191970" stroke="#191970" points="1140.7975,-124.7068 1150.5313,-128.8906 1145.531,-119.5499 1140.7975,-124.7068"/>
</g>
<!-- Node17&#45;&gt;Node19 -->
<g id="edge18" class="edge">
<title>Node17&#45;&gt;Node19</title>
<path fill="none" stroke="#191970" d="M1118.2812,-126.0488C1078.2228,-114.373 1019.1848,-97.1652 982.7372,-86.5419"/>
<polygon fill="#191970" stroke="#191970" points="1117.4513,-129.4525 1128.0313,-128.8906 1119.4101,-122.7321 1117.4513,-129.4525"/>
</g>
<!-- Node17&#45;&gt;Node21 -->
<g id="edge20" class="edge">
<title>Node17&#45;&gt;Node21</title>
<path fill="none" stroke="#191970" d="M1182.4662,-122.9685C1198.3119,-111.5037 1219.3736,-96.265 1232.812,-86.5419"/>
<polygon fill="#191970" stroke="#191970" points="1180.3314,-120.1931 1174.2813,-128.8906 1184.4347,-125.8643 1180.3314,-120.1931"/>
</g>
<!-- Node17&#45;&gt;Node24 -->
<g id="edge23" class="edge">
<title>Node17&#45;&gt;Node24</title>
<path fill="none" stroke="#191970" d="M1208.36,-126.4144C1254.0971,-114.7428 1322.4468,-97.3009 1364.5205,-86.5643"/>
<polygon fill="#191970" stroke="#191970" points="1207.2159,-123.0941 1198.3918,-128.9581 1208.9468,-129.8767 1207.2159,-123.0941"/>
</g>
<!-- Node20 -->
<g id="node20" class="node">
<title>Node20</title>
<g id="a_node20"><a xlink:href="$_chart_to_java_8cpp.html" xlink:title="transform/ChartToJava.cpp">
<polygon fill="#ffffff" stroke="#000000" points="865,-6 865,-25 1003,-25 1003,-6 865,-6"/>
<text text-anchor="middle" x="934" y="-13" font-family="Helvetica,sans-Serif" font-size="10.00" fill="#000000">transform/ChartToJava.cpp</text>
</a>
</g>
</g>
<!-- Node19&#45;&gt;Node20 -->
<g id="edge19" class="edge">
<title>Node19&#45;&gt;Node20</title>
<path fill="none" stroke="#191970" d="M944.9485,-57.5832C942.1484,-46.8205 938.7881,-33.9042 936.5352,-25.2449"/>
<polygon fill="#191970" stroke="#191970" points="941.5949,-58.594 947.5,-67.3906 948.3694,-56.8315 941.5949,-58.594"/>
</g>
<!-- Node22 -->
<g id="node22" class="node">
<title>Node22</title>
<g id="a_node22"><a xlink:href="$_chart_to_promela_8cpp.html" xlink:title="transform/ChartToPromela.cpp">
<polygon fill="#ffffff" stroke="#000000" points="1021,-6 1021,-25 1175,-25 1175,-6 1021,-6"/>
<text text-anchor="middle" x="1098" y="-13" font-family="Helvetica,sans-Serif" font-size="10.00" fill="#000000">transform/ChartToPromela.cpp</text>
</a>
</g>
</g>
<!-- Node21&#45;&gt;Node22 -->
<g id="edge21" class="edge">
<title>Node21&#45;&gt;Node22</title>
<path fill="none" stroke="#191970" d="M1213.5015,-63.4955C1185.4956,-51.858 1145.7694,-35.3501 1120.9626,-25.0419"/>
<polygon fill="#191970" stroke="#191970" points="1212.2975,-66.7853 1222.875,-67.3906 1214.9836,-60.3212 1212.2975,-66.7853"/>
</g>
<!-- Node23 -->
<g id="node23" class="node">
<title>Node23</title>
<g id="a_node23"><a xlink:href="$_promela_code_analyzer_8cpp.html" xlink:title="transform/promela/Promela\lCodeAnalyzer.cpp">
<polygon fill="#ffffff" stroke="#000000" points="1193,-.5 1193,-30.5 1331,-30.5 1331,-.5 1193,-.5"/>
<text text-anchor="start" x="1201" y="-18.5" font-family="Helvetica,sans-Serif" font-size="10.00" fill="#000000">transform/promela/Promela</text>
<text text-anchor="middle" x="1262" y="-7.5" font-family="Helvetica,sans-Serif" font-size="10.00" fill="#000000">CodeAnalyzer.cpp</text>
</a>
</g>
</g>
<!-- Node21&#45;&gt;Node23 -->
<g id="edge22" class="edge">
<title>Node21&#45;&gt;Node23</title>
<path fill="none" stroke="#191970" d="M1251.032,-57.6584C1253.3093,-48.9047 1255.9606,-38.7139 1258.086,-30.5446"/>
<polygon fill="#191970" stroke="#191970" points="1247.6306,-56.8315 1248.5,-67.3906 1254.4051,-58.594 1247.6306,-56.8315"/>
</g>
<!-- Node25 -->
<g id="node25" class="node">
<title>Node25</title>
<g id="a_node25"><a xlink:href="$_chart_to_v_h_d_l_8cpp.html" xlink:title="transform/ChartToVHDL.cpp">
<polygon fill="#ffffff" stroke="#000000" points="1349.5,-6 1349.5,-25 1492.5,-25 1492.5,-6 1349.5,-6"/>
<text text-anchor="middle" x="1421" y="-13" font-family="Helvetica,sans-Serif" font-size="10.00" fill="#000000">transform/ChartToVHDL.cpp</text>
</a>
</g>
</g>
<!-- Node24&#45;&gt;Node25 -->
<g id="edge24" class="edge">
<title>Node24&#45;&gt;Node25</title>
<path fill="none" stroke="#191970" d="M1407.9987,-57.5832C1411.3237,-46.8205 1415.3141,-33.9042 1417.9894,-25.2449"/>
<polygon fill="#191970" stroke="#191970" points="1404.5765,-56.8031 1404.9688,-67.3906 1411.2646,-58.8693 1404.5765,-56.8031"/>
</g>
</g>
</svg>
