<?xml version="1.0" encoding="UTF-8" standalone="no"?>
<!DOCTYPE svg PUBLIC "-//W3C//DTD SVG 1.1//EN"
 "http://www.w3.org/Graphics/SVG/1.1/DTD/svg11.dtd">
<!-- Generated by graphviz version 2.40.1 (20161225.0304)
 -->
<!-- Title: interpreter/InterpreterMonitor.h Pages: 1 -->
<svg width="839pt" height="386pt"
 viewBox="0.00 0.00 838.50 386.00" xmlns="http://www.w3.org/2000/svg" xmlns:xlink="http://www.w3.org/1999/xlink">
<g id="graph0" class="graph" transform="scale(1 1) rotate(0) translate(4 382)">
<title>interpreter/InterpreterMonitor.h</title>
<polygon fill="#ffffff" stroke="transparent" points="-4,4 -4,-382 834.5,-382 834.5,4 -4,4"/>
<!-- Node1 -->
<g id="node1" class="node">
<title>Node1</title>
<polygon fill="#bfbfbf" stroke="#000000" points="126.5,-358.5 126.5,-377.5 279.5,-377.5 279.5,-358.5 126.5,-358.5"/>
<text text-anchor="middle" x="203" y="-365.5" font-family="Helvetica,sans-Serif" font-size="10.00" fill="#000000">interpreter/InterpreterMonitor.h</text>
</g>
<!-- Node2 -->
<g id="node2" class="node">
<title>Node2</title>
<g id="a_node2"><a xlink:href="$_common_8h.html" xlink:title="uscxml/Common.h">
<polygon fill="#ffffff" stroke="#000000" points="205.5,-56.5 205.5,-75.5 304.5,-75.5 304.5,-56.5 205.5,-56.5"/>
<text text-anchor="middle" x="255" y="-63.5" font-family="Helvetica,sans-Serif" font-size="10.00" fill="#000000">uscxml/Common.h</text>
</a>
</g>
</g>
<!-- Node1&#45;&gt;Node2 -->
<g id="edge1" class="edge">
<title>Node1&#45;&gt;Node2</title>
<path fill="none" stroke="#191970" d="M145.3713,-358.4458C85.3557,-344.8151 0,-313.4048 0,-245 0,-245 0,-245 0,-183.5 0,-138.7491 131.1809,-97.7465 205.366,-78.1367"/>
<polygon fill="#191970" stroke="#191970" points="206.6413,-81.4214 215.436,-75.5135 204.8767,-74.6474 206.6413,-81.4214"/>
</g>
<!-- Node5 -->
<g id="node5" class="node">
<title>Node5</title>
<g id="a_node5"><a xlink:href="$_event_8h.html" xlink:title="uscxml/messages/Event.h">
<polygon fill="#ffffff" stroke="#000000" points="212.5,-235.5 212.5,-254.5 345.5,-254.5 345.5,-235.5 212.5,-235.5"/>
<text text-anchor="middle" x="279" y="-242.5" font-family="Helvetica,sans-Serif" font-size="10.00" fill="#000000">uscxml/messages/Event.h</text>
</a>
</g>
</g>
<!-- Node1&#45;&gt;Node5 -->
<g id="edge4" class="edge">
<title>Node1&#45;&gt;Node5</title>
<path fill="none" stroke="#191970" d="M203.435,-358.2254C204.5321,-342.8003 208.3956,-312.3724 222,-291 229.8666,-278.6417 242.1962,-268.0906 253.3789,-260.223"/>
<polygon fill="#191970" stroke="#191970" points="255.5975,-262.9513 261.9942,-254.5053 251.7267,-257.1188 255.5975,-262.9513"/>
</g>
<!-- Node17 -->
<g id="node17" class="node">
<title>Node17</title>
<g id="a_node17"><a xlink:href="$_logging_8h.html" xlink:title="uscxml/interpreter\l/Logging.h">
<polygon fill="#ffffff" stroke="#000000" points="231,-291.5 231,-321.5 327,-321.5 327,-291.5 231,-291.5"/>
<text text-anchor="start" x="239" y="-309.5" font-family="Helvetica,sans-Serif" font-size="10.00" fill="#000000">uscxml/interpreter</text>
<text text-anchor="middle" x="279" y="-298.5" font-family="Helvetica,sans-Serif" font-size="10.00" fill="#000000">/Logging.h</text>
</a>
</g>
</g>
<!-- Node1&#45;&gt;Node17 -->
<g id="edge23" class="edge">
<title>Node1&#45;&gt;Node17</title>
<path fill="none" stroke="#191970" d="M214.875,-358.3906C224.875,-350.2986 239.5533,-338.4207 252.3438,-328.0705"/>
<polygon fill="#191970" stroke="#191970" points="254.8363,-330.5559 260.4083,-321.5446 250.433,-325.1144 254.8363,-330.5559"/>
</g>
<!-- Node18 -->
<g id="node18" class="node">
<title>Node18</title>
<g id="a_node18"><a xlink:href="$_interpreter_issue_8h.html" xlink:title="Identifies some common problems with SCXML documents. ">
<polygon fill="#ffffff" stroke="#000000" points="28.5,-168.5 28.5,-198.5 155.5,-198.5 155.5,-168.5 28.5,-168.5"/>
<text text-anchor="start" x="36.5" y="-186.5" font-family="Helvetica,sans-Serif" font-size="10.00" fill="#000000">uscxml/debug/Interpreter</text>
<text text-anchor="middle" x="92" y="-175.5" font-family="Helvetica,sans-Serif" font-size="10.00" fill="#000000">Issue.h</text>
</a>
</g>
</g>
<!-- Node1&#45;&gt;Node18 -->
<g id="edge28" class="edge">
<title>Node1&#45;&gt;Node18</title>
<path fill="none" stroke="#191970" d="M197.1884,-358.3402C180.3452,-330.344 131.1359,-248.5503 106.4596,-207.5342"/>
<polygon fill="#191970" stroke="#191970" points="109.3209,-205.5008 101.1666,-198.7363 103.3227,-209.1095 109.3209,-205.5008"/>
</g>
<!-- Node19 -->
<g id="node19" class="node">
<title>Node19</title>
<polygon fill="#ffffff" stroke="#bfbfbf" points="345,-297 345,-316 389,-316 389,-297 345,-297"/>
<text text-anchor="middle" x="367" y="-304" font-family="Helvetica,sans-Serif" font-size="10.00" fill="#000000">mutex</text>
</g>
<!-- Node1&#45;&gt;Node19 -->
<g id="edge31" class="edge">
<title>Node1&#45;&gt;Node19</title>
<path fill="none" stroke="#191970" d="M234.3374,-358.4397C261.5667,-349.8314 301.8827,-336.3569 336,-322 337.1855,-321.5011 338.3891,-320.9775 339.5996,-320.4368"/>
<polygon fill="#191970" stroke="#191970" points="341.2765,-323.5156 348.8259,-316.0821 338.2886,-317.1853 341.2765,-323.5156"/>
</g>
<!-- Node3 -->
<g id="node3" class="node">
<title>Node3</title>
<polygon fill="#ffffff" stroke="#bfbfbf" points="181,-.5 181,-19.5 253,-19.5 253,-.5 181,-.5"/>
<text text-anchor="middle" x="217" y="-7.5" font-family="Helvetica,sans-Serif" font-size="10.00" fill="#000000">sys/socket.h</text>
</g>
<!-- Node2&#45;&gt;Node3 -->
<g id="edge2" class="edge">
<title>Node2&#45;&gt;Node3</title>
<path fill="none" stroke="#191970" d="M248.3809,-56.2455C243.0954,-48.4564 235.5459,-37.3308 229.1762,-27.9439"/>
<polygon fill="#191970" stroke="#191970" points="232.0545,-25.9522 223.5432,-19.6427 226.2621,-29.8827 232.0545,-25.9522"/>
</g>
<!-- Node4 -->
<g id="node4" class="node">
<title>Node4</title>
<polygon fill="#ffffff" stroke="#bfbfbf" points="271,-.5 271,-19.5 315,-19.5 315,-.5 271,-.5"/>
<text text-anchor="middle" x="293" y="-7.5" font-family="Helvetica,sans-Serif" font-size="10.00" fill="#000000">cmath</text>
</g>
<!-- Node2&#45;&gt;Node4 -->
<g id="edge3" class="edge">
<title>Node2&#45;&gt;Node4</title>
<path fill="none" stroke="#191970" d="M261.6191,-56.2455C266.9046,-48.4564 274.4541,-37.3308 280.8238,-27.9439"/>
<polygon fill="#191970" stroke="#191970" points="283.7379,-29.8827 286.4568,-19.6427 277.9455,-25.9522 283.7379,-29.8827"/>
</g>
<!-- Node6 -->
<g id="node6" class="node">
<title>Node6</title>
<g id="a_node6"><a xlink:href="$_data_8h.html" xlink:title="uscxml/messages/Data.h">
<polygon fill="#ffffff" stroke="#000000" points="329,-174 329,-193 457,-193 457,-174 329,-174"/>
<text text-anchor="middle" x="393" y="-181" font-family="Helvetica,sans-Serif" font-size="10.00" fill="#000000">uscxml/messages/Data.h</text>
</a>
</g>
</g>
<!-- Node5&#45;&gt;Node6 -->
<g id="edge5" class="edge">
<title>Node5&#45;&gt;Node6</title>
<path fill="none" stroke="#191970" d="M296.8125,-235.3906C315.4685,-225.3262 344.9797,-209.4057 366.3974,-197.8514"/>
<polygon fill="#191970" stroke="#191970" points="368.1734,-200.8702 375.3126,-193.0419 364.8498,-194.7095 368.1734,-200.8702"/>
</g>
<!-- Node16 -->
<g id="node16" class="node">
<title>Node16</title>
<g id="a_node16"><a xlink:href="$_u_u_i_d_8h.html" xlink:title="uscxml/util/UUID.h">
<polygon fill="#ffffff" stroke="#000000" points="205.5,-112.5 205.5,-131.5 304.5,-131.5 304.5,-112.5 205.5,-112.5"/>
<text text-anchor="middle" x="255" y="-119.5" font-family="Helvetica,sans-Serif" font-size="10.00" fill="#000000">uscxml/util/UUID.h</text>
</a>
</g>
</g>
<!-- Node5&#45;&gt;Node16 -->
<g id="edge20" class="edge">
<title>Node5&#45;&gt;Node16</title>
<path fill="none" stroke="#191970" d="M277.1168,-235.3484C273.1911,-215.2295 264.0655,-168.4608 258.8458,-141.7098"/>
<polygon fill="#191970" stroke="#191970" points="262.2249,-140.7514 256.8745,-131.6068 255.3545,-142.092 262.2249,-140.7514"/>
</g>
<!-- Node6&#45;&gt;Node2 -->
<g id="edge10" class="edge">
<title>Node6&#45;&gt;Node2</title>
<path fill="none" stroke="#191970" d="M382.5631,-173.8151C367.4547,-159.8777 338.5038,-133.4788 313,-112 300.7798,-101.7084 286.7512,-90.565 275.552,-81.8238"/>
<polygon fill="#191970" stroke="#191970" points="277.6613,-79.0304 267.6163,-75.6615 273.368,-84.5592 277.6613,-79.0304"/>
</g>
<!-- Node7 -->
<g id="node7" class="node">
<title>Node7</title>
<polygon fill="#ffffff" stroke="#bfbfbf" points="158.5,-112.5 158.5,-131.5 187.5,-131.5 187.5,-112.5 158.5,-112.5"/>
<text text-anchor="middle" x="173" y="-119.5" font-family="Helvetica,sans-Serif" font-size="10.00" fill="#000000">list</text>
</g>
<!-- Node6&#45;&gt;Node7 -->
<g id="edge6" class="edge">
<title>Node6&#45;&gt;Node7</title>
<path fill="none" stroke="#191970" d="M348.6029,-173.9609C310.4946,-165.3141 254.044,-151.4165 197.7304,-132.2754"/>
<polygon fill="#191970" stroke="#191970" points="198.5567,-128.8579 187.962,-128.9007 196.271,-135.4742 198.5567,-128.8579"/>
</g>
<!-- Node8 -->
<g id="node8" class="node">
<title>Node8</title>
<polygon fill="#ffffff" stroke="#bfbfbf" points="588,-112.5 588,-131.5 624,-131.5 624,-112.5 588,-112.5"/>
<text text-anchor="middle" x="606" y="-119.5" font-family="Helvetica,sans-Serif" font-size="10.00" fill="#000000">map</text>
</g>
<!-- Node6&#45;&gt;Node8 -->
<g id="edge7" class="edge">
<title>Node6&#45;&gt;Node8</title>
<path fill="none" stroke="#191970" d="M430.4375,-173.9195C467.9731,-164.1169 527.3143,-148.0833 578,-132 578.1015,-131.9678 578.2031,-131.9355 578.305,-131.903"/>
<polygon fill="#191970" stroke="#191970" points="579.6271,-135.1511 587.9898,-128.6459 577.3958,-128.5162 579.6271,-135.1511"/>
</g>
<!-- Node9 -->
<g id="node9" class="node">
<title>Node9</title>
<polygon fill="#ffffff" stroke="#bfbfbf" points="777.5,-56.5 777.5,-75.5 830.5,-75.5 830.5,-56.5 777.5,-56.5"/>
<text text-anchor="middle" x="804" y="-63.5" font-family="Helvetica,sans-Serif" font-size="10.00" fill="#000000">memory</text>
</g>
<!-- Node6&#45;&gt;Node9 -->
<g id="edge8" class="edge">
<title>Node6&#45;&gt;Node9</title>
<path fill="none" stroke="#191970" d="M457.1652,-178.8397C561.6851,-170.6929 759.5633,-152.7403 784,-132 797.2389,-120.7637 801.8964,-101.0758 803.4467,-86.1187"/>
<polygon fill="#191970" stroke="#191970" points="806.96,-86.0278 804.1172,-75.8215 799.9748,-85.5729 806.96,-86.0278"/>
</g>
<!-- Node10 -->
<g id="node10" class="node">
<title>Node10</title>
<polygon fill="#ffffff" stroke="#bfbfbf" points="361.5,-112.5 361.5,-131.5 424.5,-131.5 424.5,-112.5 361.5,-112.5"/>
<text text-anchor="middle" x="393" y="-119.5" font-family="Helvetica,sans-Serif" font-size="10.00" fill="#000000">type_traits</text>
</g>
<!-- Node6&#45;&gt;Node10 -->
<g id="edge9" class="edge">
<title>Node6&#45;&gt;Node10</title>
<path fill="none" stroke="#191970" d="M393,-173.8906C393,-165.3657 393,-152.6392 393,-141.9235"/>
<polygon fill="#191970" stroke="#191970" points="396.5001,-141.7448 393,-131.7449 389.5001,-141.7449 396.5001,-141.7448"/>
</g>
<!-- Node11 -->
<g id="node11" class="node">
<title>Node11</title>
<g id="a_node11"><a xlink:href="$_convenience_8h.html" xlink:title="uscxml/util/Convenience.h">
<polygon fill="#ffffff" stroke="#000000" points="642.5,-112.5 642.5,-131.5 775.5,-131.5 775.5,-112.5 642.5,-112.5"/>
<text text-anchor="middle" x="709" y="-119.5" font-family="Helvetica,sans-Serif" font-size="10.00" fill="#000000">uscxml/util/Convenience.h</text>
</a>
</g>
</g>
<!-- Node6&#45;&gt;Node11 -->
<g id="edge11" class="edge">
<title>Node6&#45;&gt;Node11</title>
<path fill="none" stroke="#191970" d="M442.0283,-173.9581C498.1558,-163.0345 590.0547,-145.1492 650.0396,-133.4749"/>
<polygon fill="#191970" stroke="#191970" points="650.9695,-136.8597 660.1167,-131.5137 649.6322,-129.9886 650.9695,-136.8597"/>
</g>
<!-- Node15 -->
<g id="node15" class="node">
<title>Node15</title>
<g id="a_node15"><a xlink:href="$_blob_8h.html" xlink:title="uscxml/messages/Blob.h">
<polygon fill="#ffffff" stroke="#000000" points="442.5,-112.5 442.5,-131.5 569.5,-131.5 569.5,-112.5 442.5,-112.5"/>
<text text-anchor="middle" x="506" y="-119.5" font-family="Helvetica,sans-Serif" font-size="10.00" fill="#000000">uscxml/messages/Blob.h</text>
</a>
</g>
</g>
<!-- Node6&#45;&gt;Node15 -->
<g id="edge16" class="edge">
<title>Node6&#45;&gt;Node15</title>
<path fill="none" stroke="#191970" d="M410.6563,-173.8906C429.1486,-163.8262 458.401,-147.9057 479.6308,-136.3514"/>
<polygon fill="#191970" stroke="#191970" points="481.3575,-139.3965 488.4677,-131.5419 478.0112,-133.2481 481.3575,-139.3965"/>
</g>
<!-- Node11&#45;&gt;Node2 -->
<g id="edge12" class="edge">
<title>Node11&#45;&gt;Node2</title>
<path fill="none" stroke="#191970" d="M642.2766,-113.1833C639.1411,-112.7807 636.0366,-112.3845 633,-112 520.5627,-97.7617 389.199,-81.9642 314.6819,-73.0811"/>
<polygon fill="#191970" stroke="#191970" points="314.8962,-69.5819 304.5524,-71.8744 314.0681,-76.5328 314.8962,-69.5819"/>
</g>
<!-- Node12 -->
<g id="node12" class="node">
<title>Node12</title>
<polygon fill="#ffffff" stroke="#bfbfbf" points="485.5,-56.5 485.5,-75.5 526.5,-75.5 526.5,-56.5 485.5,-56.5"/>
<text text-anchor="middle" x="506" y="-63.5" font-family="Helvetica,sans-Serif" font-size="10.00" fill="#000000">string</text>
</g>
<!-- Node11&#45;&gt;Node12 -->
<g id="edge13" class="edge">
<title>Node11&#45;&gt;Node12</title>
<path fill="none" stroke="#191970" d="M674.1031,-112.3733C635.246,-101.6541 573.0727,-84.5028 536.2185,-74.3361"/>
<polygon fill="#191970" stroke="#191970" points="537.1062,-70.9504 526.5355,-71.665 535.2447,-77.6983 537.1062,-70.9504"/>
</g>
<!-- Node13 -->
<g id="node13" class="node">
<title>Node13</title>
<polygon fill="#ffffff" stroke="#bfbfbf" points="704.5,-56.5 704.5,-75.5 743.5,-75.5 743.5,-56.5 704.5,-56.5"/>
<text text-anchor="middle" x="724" y="-63.5" font-family="Helvetica,sans-Serif" font-size="10.00" fill="#000000">limits</text>
</g>
<!-- Node11&#45;&gt;Node13 -->
<g id="edge14" class="edge">
<title>Node11&#45;&gt;Node13</title>
<path fill="none" stroke="#191970" d="M711.6128,-112.2455C713.5916,-104.8579 716.3744,-94.4689 718.8012,-85.4087"/>
<polygon fill="#191970" stroke="#191970" points="722.2105,-86.2078 721.4171,-75.6427 715.4489,-84.3966 722.2105,-86.2078"/>
</g>
<!-- Node14 -->
<g id="node14" class="node">
<title>Node14</title>
<polygon fill="#ffffff" stroke="#bfbfbf" points="634,-56.5 634,-75.5 686,-75.5 686,-56.5 634,-56.5"/>
<text text-anchor="middle" x="660" y="-63.5" font-family="Helvetica,sans-Serif" font-size="10.00" fill="#000000">sstream</text>
</g>
<!-- Node11&#45;&gt;Node14 -->
<g id="edge15" class="edge">
<title>Node11&#45;&gt;Node14</title>
<path fill="none" stroke="#191970" d="M700.4649,-112.2455C693.5088,-104.2958 683.5117,-92.8706 675.1949,-83.3656"/>
<polygon fill="#191970" stroke="#191970" points="677.6564,-80.8637 668.4373,-75.6427 672.3884,-85.4732 677.6564,-80.8637"/>
</g>
<!-- Node15&#45;&gt;Node2 -->
<g id="edge19" class="edge">
<title>Node15&#45;&gt;Node2</title>
<path fill="none" stroke="#191970" d="M463.1368,-112.4369C420.0898,-102.8328 353.6927,-88.0191 307.509,-77.7152"/>
<polygon fill="#191970" stroke="#191970" points="308.2087,-74.2853 297.6865,-75.5237 306.6843,-81.1173 308.2087,-74.2853"/>
</g>
<!-- Node15&#45;&gt;Node9 -->
<g id="edge18" class="edge">
<title>Node15&#45;&gt;Node9</title>
<path fill="none" stroke="#191970" d="M557.3709,-112.4734C607.1477,-103.2236 684.7669,-88.7507 752,-76 756.8802,-75.0745 762.0168,-74.0942 767.0841,-73.1234"/>
<polygon fill="#191970" stroke="#191970" points="768.1234,-76.4879 777.284,-71.1649 766.8033,-69.6135 768.1234,-76.4879"/>
</g>
<!-- Node15&#45;&gt;Node12 -->
<g id="edge17" class="edge">
<title>Node15&#45;&gt;Node12</title>
<path fill="none" stroke="#191970" d="M506,-112.2455C506,-104.9382 506,-94.6944 506,-85.7046"/>
<polygon fill="#191970" stroke="#191970" points="509.5001,-85.6426 506,-75.6427 502.5001,-85.6427 509.5001,-85.6426"/>
</g>
<!-- Node16&#45;&gt;Node2 -->
<g id="edge21" class="edge">
<title>Node16&#45;&gt;Node2</title>
<path fill="none" stroke="#191970" d="M255,-112.2455C255,-104.9382 255,-94.6944 255,-85.7046"/>
<polygon fill="#191970" stroke="#191970" points="258.5001,-85.6426 255,-75.6427 251.5001,-85.6427 258.5001,-85.6426"/>
</g>
<!-- Node16&#45;&gt;Node12 -->
<g id="edge22" class="edge">
<title>Node16&#45;&gt;Node12</title>
<path fill="none" stroke="#191970" d="M297.8632,-112.4369C348.417,-101.158 431.1747,-82.6941 475.5772,-72.7876"/>
<polygon fill="#191970" stroke="#191970" points="476.4825,-76.1717 485.4804,-70.5781 474.9582,-69.3397 476.4825,-76.1717"/>
</g>
<!-- Node17&#45;&gt;Node2 -->
<g id="edge24" class="edge">
<title>Node17&#45;&gt;Node2</title>
<path fill="none" stroke="#191970" d="M248.9337,-291.4398C233.581,-282.5411 215.5463,-270.0639 203,-255 200.612,-252.1328 149.7663,-135.6519 149,-132 147.1745,-123.3006 144.1236,-119.4319 149,-112 159.7774,-95.5745 177.8208,-84.9844 195.9941,-78.1687"/>
<polygon fill="#191970" stroke="#191970" points="197.1359,-81.4773 205.4716,-74.9377 194.8771,-74.8517 197.1359,-81.4773"/>
</g>
<!-- Node17&#45;&gt;Node5 -->
<g id="edge26" class="edge">
<title>Node17&#45;&gt;Node5</title>
<path fill="none" stroke="#191970" d="M279,-291.2977C279,-283.3834 279,-273.6043 279,-265.0759"/>
<polygon fill="#191970" stroke="#191970" points="282.5001,-264.8469 279,-254.8469 275.5001,-264.847 282.5001,-264.8469"/>
</g>
<!-- Node17&#45;&gt;Node6 -->
<g id="edge25" class="edge">
<title>Node17&#45;&gt;Node6</title>
<path fill="none" stroke="#191970" d="M307.4263,-291.359C322.5802,-282.2791 340.7716,-269.657 354,-255 368.0091,-239.4779 378.8468,-218.0311 385.5025,-202.6834"/>
<polygon fill="#191970" stroke="#191970" points="388.8451,-203.7589 389.4298,-193.1802 382.3758,-201.0854 388.8451,-203.7589"/>
</g>
<!-- Node17&#45;&gt;Node9 -->
<g id="edge27" class="edge">
<title>Node17&#45;&gt;Node9</title>
<path fill="none" stroke="#191970" d="M327.3719,-292.1248C454.7013,-254.0652 790.4115,-152.2101 805,-132 814.6206,-118.6721 813.1464,-99.5596 809.99,-85.3288"/>
<polygon fill="#191970" stroke="#191970" points="813.3499,-84.3439 807.4042,-75.5747 806.5836,-86.1377 813.3499,-84.3439"/>
</g>
<!-- Node18&#45;&gt;Node2 -->
<g id="edge29" class="edge">
<title>Node18&#45;&gt;Node2</title>
<path fill="none" stroke="#191970" d="M93.1753,-168.305C95.2135,-152.2341 100.7834,-127.152 116,-112 137.1756,-90.9143 168.2161,-79.494 195.5954,-73.3085"/>
<polygon fill="#191970" stroke="#191970" points="196.4097,-76.7142 205.4917,-71.2583 194.9896,-69.8598 196.4097,-76.7142"/>
</g>
<!-- Node18&#45;&gt;Node7 -->
<g id="edge30" class="edge">
<title>Node18&#45;&gt;Node7</title>
<path fill="none" stroke="#191970" d="M112.0225,-168.2977C124.086,-159.1384 139.4388,-147.4816 151.7211,-138.1562"/>
<polygon fill="#191970" stroke="#191970" points="154.1829,-140.6816 160.0309,-131.8469 149.9499,-135.1065 154.1829,-140.6816"/>
</g>
</g>
</svg>
