<?xml version="1.0" encoding="UTF-8" standalone="no"?>
<!DOCTYPE svg PUBLIC "-//W3C//DTD SVG 1.1//EN"
 "http://www.w3.org/Graphics/SVG/1.1/DTD/svg11.dtd">
<!-- Generated by graphviz version 2.38.0 (20140413.2041)
 -->
<!-- Title: interpreter/InterpreterImpl.h Pages: 1 -->
<svg width="2028pt" height="285pt"
 viewBox="0.00 0.00 2028.00 285.00" xmlns="http://www.w3.org/2000/svg" xmlns:xlink="http://www.w3.org/1999/xlink">
<g id="graph0" class="graph" transform="scale(1 1) rotate(0) translate(4 281)">
<title>interpreter/InterpreterImpl.h</title>
<polygon fill="white" stroke="none" points="-4,4 -4,-281 2024,-281 2024,4 -4,4"/>
<!-- Node1 -->
<g id="node1" class="node"><title>Node1</title>
<polygon fill="#bfbfbf" stroke="black" points="688,-257.5 688,-276.5 826,-276.5 826,-257.5 688,-257.5"/>
<text text-anchor="middle" x="757" y="-264.5" font-family="Helvetica,sans-Serif" font-size="10.00">interpreter/InterpreterImpl.h</text>
</g>
<!-- Node2 -->
<g id="node2" class="node"><title>Node2</title>
<g id="a_node2"><a xlink:href="_breakpoint_8cpp.html" target="_top" xlink:title="debug/Breakpoint.cpp">
<polygon fill="white" stroke="black" points="160,-201.5 160,-220.5 274,-220.5 274,-201.5 160,-201.5"/>
<text text-anchor="middle" x="217" y="-208.5" font-family="Helvetica,sans-Serif" font-size="10.00">debug/Breakpoint.cpp</text>
</a>
</g>
</g>
<!-- Node1&#45;&gt;Node2 -->
<g id="edge1" class="edge"><title>Node1&#45;&gt;Node2</title>
<path fill="none" stroke="midnightblue" d="M677.805,-259.478C583.603,-251.489 421.649,-237.028 283,-221 280.128,-220.668 277.188,-220.315 274.219,-219.948"/>
<polygon fill="midnightblue" stroke="midnightblue" points="677.568,-262.97 687.828,-260.325 678.158,-255.995 677.568,-262.97"/>
</g>
<!-- Node3 -->
<g id="node3" class="node"><title>Node3</title>
<g id="a_node3"><a xlink:href="_debugger_8h.html" target="_top" xlink:title="debug/Debugger.h">
<polygon fill="white" stroke="black" points="292.5,-201.5 292.5,-220.5 391.5,-220.5 391.5,-201.5 292.5,-201.5"/>
<text text-anchor="middle" x="342" y="-208.5" font-family="Helvetica,sans-Serif" font-size="10.00">debug/Debugger.h</text>
</a>
</g>
</g>
<!-- Node1&#45;&gt;Node3 -->
<g id="edge2" class="edge"><title>Node1&#45;&gt;Node3</title>
<path fill="none" stroke="midnightblue" d="M681.22,-256.139C596.967,-245.176 463.32,-227.786 391.512,-218.443"/>
<polygon fill="midnightblue" stroke="midnightblue" points="680.874,-259.624 691.242,-257.444 681.777,-252.682 680.874,-259.624"/>
</g>
<!-- Node8 -->
<g id="node8" class="node"><title>Node8</title>
<g id="a_node8"><a xlink:href="_interpreter_issue_8cpp.html" target="_top" xlink:title="debug/InterpreterIssue.cpp">
<polygon fill="white" stroke="black" points="471,-201.5 471,-220.5 607,-220.5 607,-201.5 471,-201.5"/>
<text text-anchor="middle" x="539" y="-208.5" font-family="Helvetica,sans-Serif" font-size="10.00">debug/InterpreterIssue.cpp</text>
</a>
</g>
</g>
<!-- Node1&#45;&gt;Node8 -->
<g id="edge7" class="edge"><title>Node1&#45;&gt;Node8</title>
<path fill="none" stroke="midnightblue" d="M712.688,-255.024C671.508,-244.823 611.027,-229.841 573.381,-220.516"/>
<polygon fill="midnightblue" stroke="midnightblue" points="711.909,-258.436 722.457,-257.444 713.592,-251.642 711.909,-258.436"/>
</g>
<!-- Node9 -->
<g id="node9" class="node"><title>Node9</title>
<g id="a_node9"><a xlink:href="_interpreter_impl_8cpp.html" target="_top" xlink:title="interpreter/InterpreterImpl.cpp">
<polygon fill="white" stroke="black" points="425.5,-140 425.5,-159 574.5,-159 574.5,-140 425.5,-140"/>
<text text-anchor="middle" x="500" y="-147" font-family="Helvetica,sans-Serif" font-size="10.00">interpreter/InterpreterImpl.cpp</text>
</a>
</g>
</g>
<!-- Node1&#45;&gt;Node9 -->
<g id="edge8" class="edge"><title>Node1&#45;&gt;Node9</title>
<path fill="none" stroke="midnightblue" d="M729.529,-253.125C701.171,-239.884 655.607,-218.748 616,-201 582.526,-186 543.361,-169.08 520.175,-159.128"/>
<polygon fill="midnightblue" stroke="midnightblue" points="728.263,-256.397 738.805,-257.461 731.228,-250.056 728.263,-256.397"/>
</g>
<!-- Node10 -->
<g id="node10" class="node"><title>Node10</title>
<g id="a_node10"><a xlink:href="_interpreter_8cpp.html" target="_top" xlink:title="Interpreter.cpp">
<polygon fill="white" stroke="black" points="831,-201.5 831,-220.5 913,-220.5 913,-201.5 831,-201.5"/>
<text text-anchor="middle" x="872" y="-208.5" font-family="Helvetica,sans-Serif" font-size="10.00">Interpreter.cpp</text>
</a>
</g>
</g>
<!-- Node1&#45;&gt;Node10 -->
<g id="edge9" class="edge"><title>Node1&#45;&gt;Node10</title>
<path fill="none" stroke="midnightblue" d="M784.481,-253.096C805.966,-243.007 835.222,-229.27 853.863,-220.516"/>
<polygon fill="midnightblue" stroke="midnightblue" points="782.786,-250.025 775.222,-257.444 785.762,-256.361 782.786,-250.025"/>
</g>
<!-- Node11 -->
<g id="node11" class="node"><title>Node11</title>
<g id="a_node11"><a xlink:href="_u_s_c_x_m_l_invoker_8h.html" target="_top" xlink:title="plugins/invoker/scxml\l/USCXMLInvoker.h">
<polygon fill="white" stroke="black" points="593,-134.5 593,-164.5 705,-164.5 705,-134.5 593,-134.5"/>
<text text-anchor="start" x="601" y="-152.5" font-family="Helvetica,sans-Serif" font-size="10.00">plugins/invoker/scxml</text>
<text text-anchor="middle" x="649" y="-141.5" font-family="Helvetica,sans-Serif" font-size="10.00">/USCXMLInvoker.h</text>
</a>
</g>
</g>
<!-- Node1&#45;&gt;Node11 -->
<g id="edge10" class="edge"><title>Node1&#45;&gt;Node11</title>
<path fill="none" stroke="midnightblue" d="M732.016,-252.147C719.074,-244.166 703.598,-233.289 692,-221 675.862,-203.901 662.754,-179.777 655.416,-164.646"/>
<polygon fill="midnightblue" stroke="midnightblue" points="730.515,-255.326 740.9,-257.425 734.091,-249.308 730.515,-255.326"/>
</g>
<!-- Node13 -->
<g id="node13" class="node"><title>Node13</title>
<g id="a_node13"><a xlink:href="_invoker_impl_8h.html" target="_top" xlink:title="plugins/InvokerImpl.h">
<polygon fill="white" stroke="black" points="701.5,-201.5 701.5,-220.5 812.5,-220.5 812.5,-201.5 701.5,-201.5"/>
<text text-anchor="middle" x="757" y="-208.5" font-family="Helvetica,sans-Serif" font-size="10.00">plugins/InvokerImpl.h</text>
</a>
</g>
</g>
<!-- Node1&#45;&gt;Node13 -->
<g id="edge12" class="edge"><title>Node1&#45;&gt;Node13</title>
<path fill="none" stroke="midnightblue" d="M757,-246.805C757,-237.91 757,-227.78 757,-220.751"/>
<polygon fill="midnightblue" stroke="midnightblue" points="753.5,-247.083 757,-257.083 760.5,-247.083 753.5,-247.083"/>
</g>
<!-- Node17 -->
<g id="node17" class="node"><title>Node17</title>
<g id="a_node17"><a xlink:href="_basic_h_t_t_p_i_o_processor_8h.html" target="_top" xlink:title="plugins/ioprocessor\l/basichttp/BasicHTTPIOProcessor.h">
<polygon fill="white" stroke="black" points="979.5,-134.5 979.5,-164.5 1156.5,-164.5 1156.5,-134.5 979.5,-134.5"/>
<text text-anchor="start" x="987.5" y="-152.5" font-family="Helvetica,sans-Serif" font-size="10.00">plugins/ioprocessor</text>
<text text-anchor="middle" x="1068" y="-141.5" font-family="Helvetica,sans-Serif" font-size="10.00">/basichttp/BasicHTTPIOProcessor.h</text>
</a>
</g>
</g>
<!-- Node1&#45;&gt;Node17 -->
<g id="edge18" class="edge"><title>Node1&#45;&gt;Node17</title>
<path fill="none" stroke="midnightblue" d="M806.23,-255.083C839.427,-247.114 883.945,-235.239 922,-221 965.63,-204.674 1013.87,-179.992 1042.52,-164.582"/>
<polygon fill="midnightblue" stroke="midnightblue" points="805.236,-251.721 796.31,-257.429 806.848,-258.533 805.236,-251.721"/>
</g>
<!-- Node19 -->
<g id="node19" class="node"><title>Node19</title>
<g id="a_node19"><a xlink:href="_s_c_x_m_l_i_o_processor_8cpp.html" target="_top" xlink:title="plugins/ioprocessor\l/scxml/SCXMLIOProcessor.cpp">
<polygon fill="white" stroke="black" points="1312.5,-67.5 1312.5,-97.5 1469.5,-97.5 1469.5,-67.5 1312.5,-67.5"/>
<text text-anchor="start" x="1320.5" y="-85.5" font-family="Helvetica,sans-Serif" font-size="10.00">plugins/ioprocessor</text>
<text text-anchor="middle" x="1391" y="-74.5" font-family="Helvetica,sans-Serif" font-size="10.00">/scxml/SCXMLIOProcessor.cpp</text>
</a>
</g>
</g>
<!-- Node1&#45;&gt;Node19 -->
<g id="edge20" class="edge"><title>Node1&#45;&gt;Node19</title>
<path fill="none" stroke="midnightblue" d="M836.182,-260.814C1014.11,-248.332 1433.2,-213.979 1473,-165 1481.69,-154.308 1479.72,-146.029 1473,-134 1463.71,-117.36 1446.43,-105.526 1430.12,-97.5167"/>
<polygon fill="midnightblue" stroke="midnightblue" points="835.829,-257.33 826.097,-261.516 836.316,-264.313 835.829,-257.33"/>
</g>
<!-- Node20 -->
<g id="node20" class="node"><title>Node20</title>
<g id="a_node20"><a xlink:href="_i_o_processor_impl_8h.html" target="_top" xlink:title="plugins/IOProcessorImpl.h">
<polygon fill="white" stroke="black" points="1062,-201.5 1062,-220.5 1196,-220.5 1196,-201.5 1062,-201.5"/>
<text text-anchor="middle" x="1129" y="-208.5" font-family="Helvetica,sans-Serif" font-size="10.00">plugins/IOProcessorImpl.h</text>
</a>
</g>
</g>
<!-- Node1&#45;&gt;Node20 -->
<g id="edge21" class="edge"><title>Node1&#45;&gt;Node20</title>
<path fill="none" stroke="midnightblue" d="M826.031,-255.979C896.3,-245.779 1004.06,-230.137 1070.33,-220.516"/>
<polygon fill="midnightblue" stroke="midnightblue" points="825.338,-252.543 815.945,-257.444 826.344,-259.471 825.338,-252.543"/>
</g>
<!-- Node23 -->
<g id="node23" class="node"><title>Node23</title>
<g id="a_node23"><a xlink:href="_transformer_8h.html" target="_top" xlink:title="transform/Transformer.h">
<polygon fill="white" stroke="black" points="1564,-201.5 1564,-220.5 1688,-220.5 1688,-201.5 1564,-201.5"/>
<text text-anchor="middle" x="1626" y="-208.5" font-family="Helvetica,sans-Serif" font-size="10.00">transform/Transformer.h</text>
</a>
</g>
</g>
<!-- Node1&#45;&gt;Node23 -->
<g id="edge26" class="edge"><title>Node1&#45;&gt;Node23</title>
<path fill="none" stroke="midnightblue" d="M836.591,-261.607C973.442,-253.968 1262.15,-237.468 1506,-221 1524.76,-219.733 1545.16,-218.245 1563.73,-216.847"/>
<polygon fill="midnightblue" stroke="midnightblue" points="835.997,-258.135 826.208,-262.186 836.387,-265.124 835.997,-258.135"/>
</g>
<!-- Node4 -->
<g id="node4" class="node"><title>Node4</title>
<g id="a_node4"><a xlink:href="_debugger_8cpp.html" target="_top" xlink:title="debug/Debugger.cpp">
<polygon fill="white" stroke="black" points="0,-140 0,-159 110,-159 110,-140 0,-140"/>
<text text-anchor="middle" x="55" y="-147" font-family="Helvetica,sans-Serif" font-size="10.00">debug/Debugger.cpp</text>
</a>
</g>
</g>
<!-- Node3&#45;&gt;Node4 -->
<g id="edge3" class="edge"><title>Node3&#45;&gt;Node4</title>
<path fill="none" stroke="midnightblue" d="M288.047,-199.484C242.837,-190.583 176.627,-177.341 119,-165 110.199,-163.115 100.736,-161.013 91.8561,-159.007"/>
<polygon fill="midnightblue" stroke="midnightblue" points="287.444,-202.933 297.932,-201.427 288.794,-196.064 287.444,-202.933"/>
</g>
<!-- Node5 -->
<g id="node5" class="node"><title>Node5</title>
<g id="a_node5"><a xlink:href="_debugger_servlet_8h.html" target="_top" xlink:title="debug/DebuggerServlet.h">
<polygon fill="white" stroke="black" points="128,-140 128,-159 258,-159 258,-140 128,-140"/>
<text text-anchor="middle" x="193" y="-147" font-family="Helvetica,sans-Serif" font-size="10.00">debug/DebuggerServlet.h</text>
</a>
</g>
</g>
<!-- Node3&#45;&gt;Node5 -->
<g id="edge4" class="edge"><title>Node3&#45;&gt;Node5</title>
<path fill="none" stroke="midnightblue" d="M311.026,-197.631C282.079,-186.072 239.628,-169.12 214.308,-159.009"/>
<polygon fill="midnightblue" stroke="midnightblue" points="310.067,-201.017 320.652,-201.475 312.663,-194.516 310.067,-201.017"/>
</g>
<!-- Node7 -->
<g id="node7" class="node"><title>Node7</title>
<g id="a_node7"><a xlink:href="_debug_session_8cpp.html" target="_top" xlink:title="debug/DebugSession.cpp">
<polygon fill="white" stroke="black" points="276.5,-140 276.5,-159 407.5,-159 407.5,-140 276.5,-140"/>
<text text-anchor="middle" x="342" y="-147" font-family="Helvetica,sans-Serif" font-size="10.00">debug/DebugSession.cpp</text>
</a>
</g>
</g>
<!-- Node3&#45;&gt;Node7 -->
<g id="edge6" class="edge"><title>Node3&#45;&gt;Node7</title>
<path fill="none" stroke="midnightblue" d="M342,-191.317C342,-180.496 342,-167.398 342,-159.009"/>
<polygon fill="midnightblue" stroke="midnightblue" points="338.5,-191.475 342,-201.475 345.5,-191.475 338.5,-191.475"/>
</g>
<!-- Node6 -->
<g id="node6" class="node"><title>Node6</title>
<g id="a_node6"><a xlink:href="_debugger_servlet_8cpp.html" target="_top" xlink:title="debug/DebuggerServlet.cpp">
<polygon fill="white" stroke="black" points="122.5,-73 122.5,-92 263.5,-92 263.5,-73 122.5,-73"/>
<text text-anchor="middle" x="193" y="-80" font-family="Helvetica,sans-Serif" font-size="10.00">debug/DebuggerServlet.cpp</text>
</a>
</g>
</g>
<!-- Node5&#45;&gt;Node6 -->
<g id="edge5" class="edge"><title>Node5&#45;&gt;Node6</title>
<path fill="none" stroke="midnightblue" d="M193,-129.537C193,-117.17 193,-101.62 193,-92.1273"/>
<polygon fill="midnightblue" stroke="midnightblue" points="189.5,-129.734 193,-139.734 196.5,-129.734 189.5,-129.734"/>
</g>
<!-- Node12 -->
<g id="node12" class="node"><title>Node12</title>
<g id="a_node12"><a xlink:href="_u_s_c_x_m_l_invoker_8cpp.html" target="_top" xlink:title="plugins/invoker/scxml\l/USCXMLInvoker.cpp">
<polygon fill="white" stroke="black" points="592.5,-67.5 592.5,-97.5 705.5,-97.5 705.5,-67.5 592.5,-67.5"/>
<text text-anchor="start" x="600.5" y="-85.5" font-family="Helvetica,sans-Serif" font-size="10.00">plugins/invoker/scxml</text>
<text text-anchor="middle" x="649" y="-74.5" font-family="Helvetica,sans-Serif" font-size="10.00">/USCXMLInvoker.cpp</text>
</a>
</g>
</g>
<!-- Node11&#45;&gt;Node12 -->
<g id="edge11" class="edge"><title>Node11&#45;&gt;Node12</title>
<path fill="none" stroke="midnightblue" d="M649,-124.108C649,-115.154 649,-105.323 649,-97.5765"/>
<polygon fill="midnightblue" stroke="midnightblue" points="645.5,-124.396 649,-134.396 652.5,-124.396 645.5,-124.396"/>
</g>
<!-- Node13&#45;&gt;Node9 -->
<g id="edge13" class="edge"><title>Node13&#45;&gt;Node9</title>
<path fill="none" stroke="midnightblue" d="M710.291,-199.186C660.422,-187.641 582.428,-169.584 536.754,-159.009"/>
<polygon fill="midnightblue" stroke="midnightblue" points="709.646,-202.629 720.178,-201.475 711.225,-195.81 709.646,-202.629"/>
</g>
<!-- Node13&#45;&gt;Node11 -->
<g id="edge16" class="edge"><title>Node13&#45;&gt;Node11</title>
<path fill="none" stroke="midnightblue" d="M732.573,-196.542C715.235,-186.991 692.017,-174.199 674.453,-164.523"/>
<polygon fill="midnightblue" stroke="midnightblue" points="731.079,-199.715 741.526,-201.475 734.456,-193.584 731.079,-199.715"/>
</g>
<!-- Node14 -->
<g id="node14" class="node"><title>Node14</title>
<g id="a_node14"><a xlink:href="_dir_mon_invoker_8h.html" target="_top" xlink:title="plugins/invoker/dirmon\l/DirMonInvoker.h">
<polygon fill="white" stroke="black" points="723.5,-134.5 723.5,-164.5 840.5,-164.5 840.5,-134.5 723.5,-134.5"/>
<text text-anchor="start" x="731.5" y="-152.5" font-family="Helvetica,sans-Serif" font-size="10.00">plugins/invoker/dirmon</text>
<text text-anchor="middle" x="782" y="-141.5" font-family="Helvetica,sans-Serif" font-size="10.00">/DirMonInvoker.h</text>
</a>
</g>
</g>
<!-- Node13&#45;&gt;Node14 -->
<g id="edge14" class="edge"><title>Node13&#45;&gt;Node14</title>
<path fill="none" stroke="midnightblue" d="M764.519,-192.104C768.232,-183.269 772.645,-172.766 776.108,-164.523"/>
<polygon fill="midnightblue" stroke="midnightblue" points="761.229,-190.9 760.582,-201.475 767.682,-193.612 761.229,-190.9"/>
</g>
<!-- Node16 -->
<g id="node16" class="node"><title>Node16</title>
<g id="a_node16"><a xlink:href="_invoker_8cpp.html" target="_top" xlink:title="plugins/Invoker.cpp">
<polygon fill="white" stroke="black" points="858.5,-140 858.5,-159 961.5,-159 961.5,-140 858.5,-140"/>
<text text-anchor="middle" x="910" y="-147" font-family="Helvetica,sans-Serif" font-size="10.00">plugins/Invoker.cpp</text>
</a>
</g>
</g>
<!-- Node13&#45;&gt;Node16 -->
<g id="edge17" class="edge"><title>Node13&#45;&gt;Node16</title>
<path fill="none" stroke="midnightblue" d="M788.417,-197.782C818.149,-186.22 862.007,-169.164 888.119,-159.009"/>
<polygon fill="midnightblue" stroke="midnightblue" points="786.973,-194.589 778.921,-201.475 789.51,-201.113 786.973,-194.589"/>
</g>
<!-- Node15 -->
<g id="node15" class="node"><title>Node15</title>
<g id="a_node15"><a xlink:href="_dir_mon_invoker_8cpp.html" target="_top" xlink:title="plugins/invoker/dirmon\l/DirMonInvoker.cpp">
<polygon fill="white" stroke="black" points="723.5,-67.5 723.5,-97.5 840.5,-97.5 840.5,-67.5 723.5,-67.5"/>
<text text-anchor="start" x="731.5" y="-85.5" font-family="Helvetica,sans-Serif" font-size="10.00">plugins/invoker/dirmon</text>
<text text-anchor="middle" x="782" y="-74.5" font-family="Helvetica,sans-Serif" font-size="10.00">/DirMonInvoker.cpp</text>
</a>
</g>
</g>
<!-- Node14&#45;&gt;Node15 -->
<g id="edge15" class="edge"><title>Node14&#45;&gt;Node15</title>
<path fill="none" stroke="midnightblue" d="M782,-124.108C782,-115.154 782,-105.323 782,-97.5765"/>
<polygon fill="midnightblue" stroke="midnightblue" points="778.5,-124.396 782,-134.396 785.5,-124.396 778.5,-124.396"/>
</g>
<!-- Node18 -->
<g id="node18" class="node"><title>Node18</title>
<g id="a_node18"><a xlink:href="_basic_h_t_t_p_i_o_processor_8cpp.html" target="_top" xlink:title="plugins/ioprocessor\l/basichttp/BasicHTTPIOProcessor.cpp">
<polygon fill="white" stroke="black" points="974.5,-67.5 974.5,-97.5 1161.5,-97.5 1161.5,-67.5 974.5,-67.5"/>
<text text-anchor="start" x="982.5" y="-85.5" font-family="Helvetica,sans-Serif" font-size="10.00">plugins/ioprocessor</text>
<text text-anchor="middle" x="1068" y="-74.5" font-family="Helvetica,sans-Serif" font-size="10.00">/basichttp/BasicHTTPIOProcessor.cpp</text>
</a>
</g>
</g>
<!-- Node17&#45;&gt;Node18 -->
<g id="edge19" class="edge"><title>Node17&#45;&gt;Node18</title>
<path fill="none" stroke="midnightblue" d="M1068,-124.108C1068,-115.154 1068,-105.323 1068,-97.5765"/>
<polygon fill="midnightblue" stroke="midnightblue" points="1064.5,-124.396 1068,-134.396 1071.5,-124.396 1064.5,-124.396"/>
</g>
<!-- Node20&#45;&gt;Node17 -->
<g id="edge22" class="edge"><title>Node20&#45;&gt;Node17</title>
<path fill="none" stroke="midnightblue" d="M1112.97,-194.369C1103.49,-185.113 1091.56,-173.482 1082.38,-164.523"/>
<polygon fill="midnightblue" stroke="midnightblue" points="1110.66,-196.998 1120.26,-201.475 1115.55,-191.987 1110.66,-196.998"/>
</g>
<!-- Node21 -->
<g id="node21" class="node"><title>Node21</title>
<g id="a_node21"><a xlink:href="_s_c_x_m_l_i_o_processor_8h.html" target="_top" xlink:title="plugins/ioprocessor\l/scxml/SCXMLIOProcessor.h">
<polygon fill="white" stroke="black" points="1318,-134.5 1318,-164.5 1464,-164.5 1464,-134.5 1318,-134.5"/>
<text text-anchor="start" x="1326" y="-152.5" font-family="Helvetica,sans-Serif" font-size="10.00">plugins/ioprocessor</text>
<text text-anchor="middle" x="1391" y="-141.5" font-family="Helvetica,sans-Serif" font-size="10.00">/scxml/SCXMLIOProcessor.h</text>
</a>
</g>
</g>
<!-- Node20&#45;&gt;Node21 -->
<g id="edge23" class="edge"><title>Node20&#45;&gt;Node21</title>
<path fill="none" stroke="midnightblue" d="M1176.42,-199.23C1219.24,-189.507 1282.5,-175.14 1329.25,-164.523"/>
<polygon fill="midnightblue" stroke="midnightblue" points="1175.51,-195.847 1166.54,-201.475 1177.07,-202.674 1175.51,-195.847"/>
</g>
<!-- Node22 -->
<g id="node22" class="node"><title>Node22</title>
<g id="a_node22"><a xlink:href="_i_o_processor_8cpp.html" target="_top" xlink:title="plugins/IOProcessor.cpp">
<polygon fill="white" stroke="black" points="1174.5,-140 1174.5,-159 1299.5,-159 1299.5,-140 1174.5,-140"/>
<text text-anchor="middle" x="1237" y="-147" font-family="Helvetica,sans-Serif" font-size="10.00">plugins/IOProcessor.cpp</text>
</a>
</g>
</g>
<!-- Node20&#45;&gt;Node22 -->
<g id="edge25" class="edge"><title>Node20&#45;&gt;Node22</title>
<path fill="none" stroke="midnightblue" d="M1153.4,-196.556C1174.3,-185.042 1203.76,-168.811 1221.55,-159.009"/>
<polygon fill="midnightblue" stroke="midnightblue" points="1151.54,-193.584 1144.47,-201.475 1154.92,-199.715 1151.54,-193.584"/>
</g>
<!-- Node21&#45;&gt;Node19 -->
<g id="edge24" class="edge"><title>Node21&#45;&gt;Node19</title>
<path fill="none" stroke="midnightblue" d="M1391,-124.108C1391,-115.154 1391,-105.323 1391,-97.5765"/>
<polygon fill="midnightblue" stroke="midnightblue" points="1387.5,-124.396 1391,-134.396 1394.5,-124.396 1387.5,-124.396"/>
</g>
<!-- Node24 -->
<g id="node24" class="node"><title>Node24</title>
<g id="a_node24"><a xlink:href="_chart_to_c_8h.html" target="_top" xlink:title="transform/ChartToC.h">
<polygon fill="white" stroke="black" points="1711.5,-140 1711.5,-159 1824.5,-159 1824.5,-140 1711.5,-140"/>
<text text-anchor="middle" x="1768" y="-147" font-family="Helvetica,sans-Serif" font-size="10.00">transform/ChartToC.h</text>
</a>
</g>
</g>
<!-- Node23&#45;&gt;Node24 -->
<g id="edge27" class="edge"><title>Node23&#45;&gt;Node24</title>
<path fill="none" stroke="midnightblue" d="M1655.88,-197.48C1683.46,-185.924 1723.67,-169.076 1747.69,-159.009"/>
<polygon fill="midnightblue" stroke="midnightblue" points="1654.22,-194.382 1646.35,-201.475 1656.92,-200.839 1654.22,-194.382"/>
</g>
<!-- Node26 -->
<g id="node26" class="node"><title>Node26</title>
<g id="a_node26"><a xlink:href="_chart_to_promela_8h.html" target="_top" xlink:title="transform/ChartToPromela.h">
<polygon fill="white" stroke="black" points="1781.5,-73 1781.5,-92 1924.5,-92 1924.5,-73 1781.5,-73"/>
<text text-anchor="middle" x="1853" y="-80" font-family="Helvetica,sans-Serif" font-size="10.00">transform/ChartToPromela.h</text>
</a>
</g>
</g>
<!-- Node23&#45;&gt;Node26 -->
<g id="edge34" class="edge"><title>Node23&#45;&gt;Node26</title>
<path fill="none" stroke="midnightblue" d="M1698.3,-202.597C1750.44,-195.782 1814.87,-183.829 1834,-165 1854.09,-145.23 1854.64,-108.62 1853.73,-92.0467"/>
<polygon fill="midnightblue" stroke="midnightblue" points="1697.53,-199.166 1688.05,-203.892 1698.41,-206.111 1697.53,-199.166"/>
</g>
<!-- Node29 -->
<g id="node29" class="node"><title>Node29</title>
<g id="a_node29"><a xlink:href="_chart_to_v_h_d_l_8h.html" target="_top" xlink:title="transform/ChartToVHDL.h">
<polygon fill="white" stroke="black" points="1487.5,-73 1487.5,-92 1620.5,-92 1620.5,-73 1487.5,-73"/>
<text text-anchor="middle" x="1554" y="-80" font-family="Helvetica,sans-Serif" font-size="10.00">transform/ChartToVHDL.h</text>
</a>
</g>
</g>
<!-- Node23&#45;&gt;Node29 -->
<g id="edge35" class="edge"><title>Node23&#45;&gt;Node29</title>
<path fill="none" stroke="midnightblue" d="M1588.43,-197.542C1573.39,-190.496 1557.62,-180.014 1549,-165 1535.52,-141.516 1544.94,-107.707 1550.59,-92.0524"/>
<polygon fill="midnightblue" stroke="midnightblue" points="1587.06,-200.762 1597.63,-201.495 1589.82,-194.331 1587.06,-200.762"/>
</g>
<!-- Node31 -->
<g id="node31" class="node"><title>Node31</title>
<g id="a_node31"><a xlink:href="_transformer_8cpp.html" target="_top" xlink:title="transform/Transformer.cpp">
<polygon fill="white" stroke="black" points="1558.5,-140 1558.5,-159 1693.5,-159 1693.5,-140 1558.5,-140"/>
<text text-anchor="middle" x="1626" y="-147" font-family="Helvetica,sans-Serif" font-size="10.00">transform/Transformer.cpp</text>
</a>
</g>
</g>
<!-- Node23&#45;&gt;Node31 -->
<g id="edge36" class="edge"><title>Node23&#45;&gt;Node31</title>
<path fill="none" stroke="midnightblue" d="M1626,-191.317C1626,-180.496 1626,-167.398 1626,-159.009"/>
<polygon fill="midnightblue" stroke="midnightblue" points="1622.5,-191.475 1626,-201.475 1629.5,-191.475 1622.5,-191.475"/>
</g>
<!-- Node25 -->
<g id="node25" class="node"><title>Node25</title>
<g id="a_node25"><a xlink:href="_chart_to_c_8cpp.html" target="_top" xlink:title="transform/ChartToC.cpp">
<polygon fill="white" stroke="black" points="1639,-73 1639,-92 1763,-92 1763,-73 1639,-73"/>
<text text-anchor="middle" x="1701" y="-80" font-family="Helvetica,sans-Serif" font-size="10.00">transform/ChartToC.cpp</text>
</a>
</g>
</g>
<!-- Node24&#45;&gt;Node25 -->
<g id="edge28" class="edge"><title>Node24&#45;&gt;Node25</title>
<path fill="none" stroke="midnightblue" d="M1751.5,-132.497C1738.36,-119.75 1720.48,-102.395 1709.89,-92.1273"/>
<polygon fill="midnightblue" stroke="midnightblue" points="1749.35,-135.283 1758.96,-139.734 1754.22,-130.259 1749.35,-135.283"/>
</g>
<!-- Node24&#45;&gt;Node26 -->
<g id="edge29" class="edge"><title>Node24&#45;&gt;Node26</title>
<path fill="none" stroke="midnightblue" d="M1787.53,-133.568C1804.3,-120.738 1827.91,-102.685 1841.72,-92.1273"/>
<polygon fill="midnightblue" stroke="midnightblue" points="1785.28,-130.879 1779.46,-139.734 1789.53,-136.44 1785.28,-130.879"/>
</g>
<!-- Node24&#45;&gt;Node29 -->
<g id="edge32" class="edge"><title>Node24&#45;&gt;Node29</title>
<path fill="none" stroke="midnightblue" d="M1729.9,-136.929C1687.53,-124.059 1620.08,-103.57 1582.19,-92.0637"/>
<polygon fill="midnightblue" stroke="midnightblue" points="1729,-140.311 1739.58,-139.869 1731.03,-133.613 1729,-140.311"/>
</g>
<!-- Node27 -->
<g id="node27" class="node"><title>Node27</title>
<g id="a_node27"><a xlink:href="_chart_to_promela_8cpp.html" target="_top" xlink:title="transform/ChartToPromela.cpp">
<polygon fill="white" stroke="black" points="1710,-6 1710,-25 1864,-25 1864,-6 1710,-6"/>
<text text-anchor="middle" x="1787" y="-13" font-family="Helvetica,sans-Serif" font-size="10.00">transform/ChartToPromela.cpp</text>
</a>
</g>
</g>
<!-- Node26&#45;&gt;Node27 -->
<g id="edge30" class="edge"><title>Node26&#45;&gt;Node27</title>
<path fill="none" stroke="midnightblue" d="M1836.75,-65.4968C1823.81,-52.7496 1806.19,-35.3947 1795.76,-25.1273"/>
<polygon fill="midnightblue" stroke="midnightblue" points="1834.52,-68.2106 1844.1,-72.7338 1839.43,-63.2232 1834.52,-68.2106"/>
</g>
<!-- Node28 -->
<g id="node28" class="node"><title>Node28</title>
<g id="a_node28"><a xlink:href="_promela_code_analyzer_8cpp.html" target="_top" xlink:title="transform/promela/Promela\lCodeAnalyzer.cpp">
<polygon fill="white" stroke="black" points="1882,-0.5 1882,-30.5 2020,-30.5 2020,-0.5 1882,-0.5"/>
<text text-anchor="start" x="1890" y="-18.5" font-family="Helvetica,sans-Serif" font-size="10.00">transform/promela/Promela</text>
<text text-anchor="middle" x="1951" y="-7.5" font-family="Helvetica,sans-Serif" font-size="10.00">CodeAnalyzer.cpp</text>
</a>
</g>
</g>
<!-- Node26&#45;&gt;Node28 -->
<g id="edge31" class="edge"><title>Node26&#45;&gt;Node28</title>
<path fill="none" stroke="midnightblue" d="M1874.63,-67.1526C1891.03,-56.2748 1913.45,-41.4029 1929.76,-30.589"/>
<polygon fill="midnightblue" stroke="midnightblue" points="1872.62,-64.2897 1866.22,-72.7338 1876.48,-70.1232 1872.62,-64.2897"/>
</g>
<!-- Node30 -->
<g id="node30" class="node"><title>Node30</title>
<g id="a_node30"><a xlink:href="_chart_to_v_h_d_l_8cpp.html" target="_top" xlink:title="transform/ChartToVHDL.cpp">
<polygon fill="white" stroke="black" points="1482.5,-6 1482.5,-25 1625.5,-25 1625.5,-6 1482.5,-6"/>
<text text-anchor="middle" x="1554" y="-13" font-family="Helvetica,sans-Serif" font-size="10.00">transform/ChartToVHDL.cpp</text>
</a>
</g>
</g>
<!-- Node29&#45;&gt;Node30 -->
<g id="edge33" class="edge"><title>Node29&#45;&gt;Node30</title>
<path fill="none" stroke="midnightblue" d="M1554,-62.537C1554,-50.1703 1554,-34.6198 1554,-25.1273"/>
<polygon fill="midnightblue" stroke="midnightblue" points="1550.5,-62.7338 1554,-72.7338 1557.5,-62.7338 1550.5,-62.7338"/>
</g>
</g>
</svg>
