<?xml version="1.0" encoding="UTF-8" standalone="no"?>
<!DOCTYPE svg PUBLIC "-//W3C//DTD SVG 1.1//EN"
 "http://www.w3.org/Graphics/SVG/1.1/DTD/svg11.dtd">
<!-- Generated by graphviz version 2.38.0 (20140413.2041)
 -->
<!-- Title: interpreter/InterpreterImpl.h Pages: 1 -->
<svg width="2088pt" height="285pt"
 viewBox="0.00 0.00 2087.50 285.00" xmlns="http://www.w3.org/2000/svg" xmlns:xlink="http://www.w3.org/1999/xlink">
<g id="graph0" class="graph" transform="scale(1 1) rotate(0) translate(4 281)">
<title>interpreter/InterpreterImpl.h</title>
<polygon fill="white" stroke="none" points="-4,4 -4,-281 2083.5,-281 2083.5,4 -4,4"/>
<!-- Node1 -->
<g id="node1" class="node"><title>Node1</title>
<polygon fill="#bfbfbf" stroke="black" points="688,-257.5 688,-276.5 826,-276.5 826,-257.5 688,-257.5"/>
<text text-anchor="middle" x="757" y="-264.5" font-family="Helvetica,sans-Serif" font-size="10.00">interpreter/InterpreterImpl.h</text>
</g>
<!-- Node2 -->
<g id="node2" class="node"><title>Node2</title>
<g id="a_node2"><a xlink:href="_breakpoint_8cpp.html" target="_top" xlink:title="debug/Breakpoint.cpp">
<polygon fill="white" stroke="black" points="160,-201.5 160,-220.5 274,-220.5 274,-201.5 160,-201.5"/>
<text text-anchor="middle" x="217" y="-208.5" font-family="Helvetica,sans-Serif" font-size="10.00">debug/Breakpoint.cpp</text>
</a>
</g>
</g>
<!-- Node1&#45;&gt;Node2 -->
<g id="edge1" class="edge"><title>Node1&#45;&gt;Node2</title>
<path fill="none" stroke="midnightblue" d="M677.805,-259.478C583.603,-251.489 421.649,-237.028 283,-221 280.128,-220.668 277.188,-220.315 274.219,-219.948"/>
<polygon fill="midnightblue" stroke="midnightblue" points="677.568,-262.97 687.828,-260.325 678.158,-255.995 677.568,-262.97"/>
</g>
<!-- Node3 -->
<g id="node3" class="node"><title>Node3</title>
<g id="a_node3"><a xlink:href="_debugger_8h.html" target="_top" xlink:title="debug/Debugger.h">
<polygon fill="white" stroke="black" points="292.5,-201.5 292.5,-220.5 391.5,-220.5 391.5,-201.5 292.5,-201.5"/>
<text text-anchor="middle" x="342" y="-208.5" font-family="Helvetica,sans-Serif" font-size="10.00">debug/Debugger.h</text>
</a>
</g>
</g>
<!-- Node1&#45;&gt;Node3 -->
<g id="edge2" class="edge"><title>Node1&#45;&gt;Node3</title>
<path fill="none" stroke="midnightblue" d="M681.22,-256.139C596.967,-245.176 463.32,-227.786 391.512,-218.443"/>
<polygon fill="midnightblue" stroke="midnightblue" points="680.874,-259.624 691.242,-257.444 681.777,-252.682 680.874,-259.624"/>
</g>
<!-- Node8 -->
<g id="node8" class="node"><title>Node8</title>
<g id="a_node8"><a xlink:href="_interpreter_issue_8cpp.html" target="_top" xlink:title="debug/InterpreterIssue.cpp">
<polygon fill="white" stroke="black" points="471,-201.5 471,-220.5 607,-220.5 607,-201.5 471,-201.5"/>
<text text-anchor="middle" x="539" y="-208.5" font-family="Helvetica,sans-Serif" font-size="10.00">debug/InterpreterIssue.cpp</text>
</a>
</g>
</g>
<!-- Node1&#45;&gt;Node8 -->
<g id="edge7" class="edge"><title>Node1&#45;&gt;Node8</title>
<path fill="none" stroke="midnightblue" d="M712.688,-255.024C671.508,-244.823 611.027,-229.841 573.381,-220.516"/>
<polygon fill="midnightblue" stroke="midnightblue" points="711.909,-258.436 722.457,-257.444 713.592,-251.642 711.909,-258.436"/>
</g>
<!-- Node9 -->
<g id="node9" class="node"><title>Node9</title>
<g id="a_node9"><a xlink:href="_interpreter_impl_8cpp.html" target="_top" xlink:title="interpreter/InterpreterImpl.cpp">
<polygon fill="white" stroke="black" points="425.5,-140 425.5,-159 574.5,-159 574.5,-140 425.5,-140"/>
<text text-anchor="middle" x="500" y="-147" font-family="Helvetica,sans-Serif" font-size="10.00">interpreter/InterpreterImpl.cpp</text>
</a>
</g>
</g>
<!-- Node1&#45;&gt;Node9 -->
<g id="edge8" class="edge"><title>Node1&#45;&gt;Node9</title>
<path fill="none" stroke="midnightblue" d="M729.529,-253.125C701.171,-239.884 655.607,-218.748 616,-201 582.526,-186 543.361,-169.08 520.175,-159.128"/>
<polygon fill="midnightblue" stroke="midnightblue" points="728.263,-256.397 738.805,-257.461 731.228,-250.056 728.263,-256.397"/>
</g>
<!-- Node10 -->
<g id="node10" class="node"><title>Node10</title>
<g id="a_node10"><a xlink:href="_interpreter_8cpp.html" target="_top" xlink:title="Interpreter.cpp">
<polygon fill="white" stroke="black" points="831,-201.5 831,-220.5 913,-220.5 913,-201.5 831,-201.5"/>
<text text-anchor="middle" x="872" y="-208.5" font-family="Helvetica,sans-Serif" font-size="10.00">Interpreter.cpp</text>
</a>
</g>
</g>
<!-- Node1&#45;&gt;Node10 -->
<g id="edge9" class="edge"><title>Node1&#45;&gt;Node10</title>
<path fill="none" stroke="midnightblue" d="M784.481,-253.096C805.966,-243.007 835.222,-229.27 853.863,-220.516"/>
<polygon fill="midnightblue" stroke="midnightblue" points="782.786,-250.025 775.222,-257.444 785.762,-256.361 782.786,-250.025"/>
</g>
<!-- Node11 -->
<g id="node11" class="node"><title>Node11</title>
<g id="a_node11"><a xlink:href="_u_s_c_x_m_l_invoker_8h.html" target="_top" xlink:title="plugins/invoker/scxml\l/USCXMLInvoker.h">
<polygon fill="white" stroke="black" points="593,-134.5 593,-164.5 705,-164.5 705,-134.5 593,-134.5"/>
<text text-anchor="start" x="601" y="-152.5" font-family="Helvetica,sans-Serif" font-size="10.00">plugins/invoker/scxml</text>
<text text-anchor="middle" x="649" y="-141.5" font-family="Helvetica,sans-Serif" font-size="10.00">/USCXMLInvoker.h</text>
</a>
</g>
</g>
<!-- Node1&#45;&gt;Node11 -->
<g id="edge10" class="edge"><title>Node1&#45;&gt;Node11</title>
<path fill="none" stroke="midnightblue" d="M732.016,-252.147C719.074,-244.166 703.598,-233.289 692,-221 675.862,-203.901 662.754,-179.777 655.416,-164.646"/>
<polygon fill="midnightblue" stroke="midnightblue" points="730.515,-255.326 740.9,-257.425 734.091,-249.308 730.515,-255.326"/>
</g>
<!-- Node13 -->
<g id="node13" class="node"><title>Node13</title>
<g id="a_node13"><a xlink:href="_invoker_impl_8h.html" target="_top" xlink:title="plugins/InvokerImpl.h">
<polygon fill="white" stroke="black" points="701.5,-201.5 701.5,-220.5 812.5,-220.5 812.5,-201.5 701.5,-201.5"/>
<text text-anchor="middle" x="757" y="-208.5" font-family="Helvetica,sans-Serif" font-size="10.00">plugins/InvokerImpl.h</text>
</a>
</g>
</g>
<!-- Node1&#45;&gt;Node13 -->
<g id="edge12" class="edge"><title>Node1&#45;&gt;Node13</title>
<path fill="none" stroke="midnightblue" d="M757,-246.805C757,-237.91 757,-227.78 757,-220.751"/>
<polygon fill="midnightblue" stroke="midnightblue" points="753.5,-247.083 757,-257.083 760.5,-247.083 753.5,-247.083"/>
</g>
<!-- Node17 -->
<g id="node17" class="node"><title>Node17</title>
<g id="a_node17"><a xlink:href="_basic_h_t_t_p_i_o_processor_8h.html" target="_top" xlink:title="plugins/ioprocessor\l/basichttp/BasicHTTPIOProcessor.h">
<polygon fill="white" stroke="black" points="979.5,-134.5 979.5,-164.5 1156.5,-164.5 1156.5,-134.5 979.5,-134.5"/>
<text text-anchor="start" x="987.5" y="-152.5" font-family="Helvetica,sans-Serif" font-size="10.00">plugins/ioprocessor</text>
<text text-anchor="middle" x="1068" y="-141.5" font-family="Helvetica,sans-Serif" font-size="10.00">/basichttp/BasicHTTPIOProcessor.h</text>
</a>
</g>
</g>
<!-- Node1&#45;&gt;Node17 -->
<g id="edge18" class="edge"><title>Node1&#45;&gt;Node17</title>
<path fill="none" stroke="midnightblue" d="M806.23,-255.083C839.427,-247.114 883.945,-235.239 922,-221 965.63,-204.674 1013.87,-179.992 1042.52,-164.582"/>
<polygon fill="midnightblue" stroke="midnightblue" points="805.236,-251.721 796.31,-257.429 806.848,-258.533 805.236,-251.721"/>
</g>
<!-- Node19 -->
<g id="node19" class="node"><title>Node19</title>
<g id="a_node19"><a xlink:href="_s_c_x_m_l_i_o_processor_8cpp.html" target="_top" xlink:title="plugins/ioprocessor\l/scxml/SCXMLIOProcessor.cpp">
<polygon fill="white" stroke="black" points="1193.5,-67.5 1193.5,-97.5 1350.5,-97.5 1350.5,-67.5 1193.5,-67.5"/>
<text text-anchor="start" x="1201.5" y="-85.5" font-family="Helvetica,sans-Serif" font-size="10.00">plugins/ioprocessor</text>
<text text-anchor="middle" x="1272" y="-74.5" font-family="Helvetica,sans-Serif" font-size="10.00">/scxml/SCXMLIOProcessor.cpp</text>
</a>
</g>
</g>
<!-- Node1&#45;&gt;Node19 -->
<g id="edge20" class="edge"><title>Node1&#45;&gt;Node19</title>
<path fill="none" stroke="midnightblue" d="M836.459,-257.094C921.481,-245.163 1058.48,-218.908 1165,-165 1184.76,-155.001 1186.44,-147.491 1204,-134 1220.21,-121.546 1238.86,-107.728 1252.53,-97.6988"/>
<polygon fill="midnightblue" stroke="midnightblue" points="835.786,-253.653 826.354,-258.478 836.736,-260.588 835.786,-253.653"/>
</g>
<!-- Node20 -->
<g id="node20" class="node"><title>Node20</title>
<g id="a_node20"><a xlink:href="_i_o_processor_impl_8h.html" target="_top" xlink:title="plugins/IOProcessorImpl.h">
<polygon fill="white" stroke="black" points="1216,-201.5 1216,-220.5 1350,-220.5 1350,-201.5 1216,-201.5"/>
<text text-anchor="middle" x="1283" y="-208.5" font-family="Helvetica,sans-Serif" font-size="10.00">plugins/IOProcessorImpl.h</text>
</a>
</g>
</g>
<!-- Node1&#45;&gt;Node20 -->
<g id="edge21" class="edge"><title>Node1&#45;&gt;Node20</title>
<path fill="none" stroke="midnightblue" d="M836.256,-258.058C924.723,-249.164 1072.13,-234.255 1199,-221 1204.4,-220.436 1209.99,-219.847 1215.61,-219.252"/>
<polygon fill="midnightblue" stroke="midnightblue" points="835.895,-254.577 826.295,-259.059 836.595,-261.542 835.895,-254.577"/>
</g>
<!-- Node23 -->
<g id="node23" class="node"><title>Node23</title>
<g id="a_node23"><a xlink:href="_transformer_8h.html" target="_top" xlink:title="transform/Transformer.h">
<polygon fill="white" stroke="black" points="1636,-201.5 1636,-220.5 1760,-220.5 1760,-201.5 1636,-201.5"/>
<text text-anchor="middle" x="1698" y="-208.5" font-family="Helvetica,sans-Serif" font-size="10.00">transform/Transformer.h</text>
</a>
</g>
</g>
<!-- Node1&#45;&gt;Node23 -->
<g id="edge26" class="edge"><title>Node1&#45;&gt;Node23</title>
<path fill="none" stroke="midnightblue" d="M836.31,-261.449C1019.8,-250.919 1470.5,-225.055 1635.86,-215.566"/>
<polygon fill="midnightblue" stroke="midnightblue" points="835.977,-257.962 826.194,-262.029 836.378,-264.95 835.977,-257.962"/>
</g>
<!-- Node4 -->
<g id="node4" class="node"><title>Node4</title>
<g id="a_node4"><a xlink:href="_debugger_8cpp.html" target="_top" xlink:title="debug/Debugger.cpp">
<polygon fill="white" stroke="black" points="0,-140 0,-159 110,-159 110,-140 0,-140"/>
<text text-anchor="middle" x="55" y="-147" font-family="Helvetica,sans-Serif" font-size="10.00">debug/Debugger.cpp</text>
</a>
</g>
</g>
<!-- Node3&#45;&gt;Node4 -->
<g id="edge3" class="edge"><title>Node3&#45;&gt;Node4</title>
<path fill="none" stroke="midnightblue" d="M288.047,-199.484C242.837,-190.583 176.627,-177.341 119,-165 110.199,-163.115 100.736,-161.013 91.8561,-159.007"/>
<polygon fill="midnightblue" stroke="midnightblue" points="287.444,-202.933 297.932,-201.427 288.794,-196.064 287.444,-202.933"/>
</g>
<!-- Node5 -->
<g id="node5" class="node"><title>Node5</title>
<g id="a_node5"><a xlink:href="_debugger_servlet_8h.html" target="_top" xlink:title="debug/DebuggerServlet.h">
<polygon fill="white" stroke="black" points="128,-140 128,-159 258,-159 258,-140 128,-140"/>
<text text-anchor="middle" x="193" y="-147" font-family="Helvetica,sans-Serif" font-size="10.00">debug/DebuggerServlet.h</text>
</a>
</g>
</g>
<!-- Node3&#45;&gt;Node5 -->
<g id="edge4" class="edge"><title>Node3&#45;&gt;Node5</title>
<path fill="none" stroke="midnightblue" d="M311.026,-197.631C282.079,-186.072 239.628,-169.12 214.308,-159.009"/>
<polygon fill="midnightblue" stroke="midnightblue" points="310.067,-201.017 320.652,-201.475 312.663,-194.516 310.067,-201.017"/>
</g>
<!-- Node7 -->
<g id="node7" class="node"><title>Node7</title>
<g id="a_node7"><a xlink:href="_debug_session_8cpp.html" target="_top" xlink:title="debug/DebugSession.cpp">
<polygon fill="white" stroke="black" points="276.5,-140 276.5,-159 407.5,-159 407.5,-140 276.5,-140"/>
<text text-anchor="middle" x="342" y="-147" font-family="Helvetica,sans-Serif" font-size="10.00">debug/DebugSession.cpp</text>
</a>
</g>
</g>
<!-- Node3&#45;&gt;Node7 -->
<g id="edge6" class="edge"><title>Node3&#45;&gt;Node7</title>
<path fill="none" stroke="midnightblue" d="M342,-191.317C342,-180.496 342,-167.398 342,-159.009"/>
<polygon fill="midnightblue" stroke="midnightblue" points="338.5,-191.475 342,-201.475 345.5,-191.475 338.5,-191.475"/>
</g>
<!-- Node6 -->
<g id="node6" class="node"><title>Node6</title>
<g id="a_node6"><a xlink:href="_debugger_servlet_8cpp.html" target="_top" xlink:title="debug/DebuggerServlet.cpp">
<polygon fill="white" stroke="black" points="122.5,-73 122.5,-92 263.5,-92 263.5,-73 122.5,-73"/>
<text text-anchor="middle" x="193" y="-80" font-family="Helvetica,sans-Serif" font-size="10.00">debug/DebuggerServlet.cpp</text>
</a>
</g>
</g>
<!-- Node5&#45;&gt;Node6 -->
<g id="edge5" class="edge"><title>Node5&#45;&gt;Node6</title>
<path fill="none" stroke="midnightblue" d="M193,-129.537C193,-117.17 193,-101.62 193,-92.1273"/>
<polygon fill="midnightblue" stroke="midnightblue" points="189.5,-129.734 193,-139.734 196.5,-129.734 189.5,-129.734"/>
</g>
<!-- Node12 -->
<g id="node12" class="node"><title>Node12</title>
<g id="a_node12"><a xlink:href="_u_s_c_x_m_l_invoker_8cpp.html" target="_top" xlink:title="plugins/invoker/scxml\l/USCXMLInvoker.cpp">
<polygon fill="white" stroke="black" points="592.5,-67.5 592.5,-97.5 705.5,-97.5 705.5,-67.5 592.5,-67.5"/>
<text text-anchor="start" x="600.5" y="-85.5" font-family="Helvetica,sans-Serif" font-size="10.00">plugins/invoker/scxml</text>
<text text-anchor="middle" x="649" y="-74.5" font-family="Helvetica,sans-Serif" font-size="10.00">/USCXMLInvoker.cpp</text>
</a>
</g>
</g>
<!-- Node11&#45;&gt;Node12 -->
<g id="edge11" class="edge"><title>Node11&#45;&gt;Node12</title>
<path fill="none" stroke="midnightblue" d="M649,-124.108C649,-115.154 649,-105.323 649,-97.5765"/>
<polygon fill="midnightblue" stroke="midnightblue" points="645.5,-124.396 649,-134.396 652.5,-124.396 645.5,-124.396"/>
</g>
<!-- Node13&#45;&gt;Node9 -->
<g id="edge13" class="edge"><title>Node13&#45;&gt;Node9</title>
<path fill="none" stroke="midnightblue" d="M710.291,-199.186C660.422,-187.641 582.428,-169.584 536.754,-159.009"/>
<polygon fill="midnightblue" stroke="midnightblue" points="709.646,-202.629 720.178,-201.475 711.225,-195.81 709.646,-202.629"/>
</g>
<!-- Node13&#45;&gt;Node11 -->
<g id="edge16" class="edge"><title>Node13&#45;&gt;Node11</title>
<path fill="none" stroke="midnightblue" d="M732.573,-196.542C715.235,-186.991 692.017,-174.199 674.453,-164.523"/>
<polygon fill="midnightblue" stroke="midnightblue" points="731.079,-199.715 741.526,-201.475 734.456,-193.584 731.079,-199.715"/>
</g>
<!-- Node14 -->
<g id="node14" class="node"><title>Node14</title>
<g id="a_node14"><a xlink:href="_dir_mon_invoker_8h.html" target="_top" xlink:title="plugins/invoker/dirmon\l/DirMonInvoker.h">
<polygon fill="white" stroke="black" points="723.5,-134.5 723.5,-164.5 840.5,-164.5 840.5,-134.5 723.5,-134.5"/>
<text text-anchor="start" x="731.5" y="-152.5" font-family="Helvetica,sans-Serif" font-size="10.00">plugins/invoker/dirmon</text>
<text text-anchor="middle" x="782" y="-141.5" font-family="Helvetica,sans-Serif" font-size="10.00">/DirMonInvoker.h</text>
</a>
</g>
</g>
<!-- Node13&#45;&gt;Node14 -->
<g id="edge14" class="edge"><title>Node13&#45;&gt;Node14</title>
<path fill="none" stroke="midnightblue" d="M764.519,-192.104C768.232,-183.269 772.645,-172.766 776.108,-164.523"/>
<polygon fill="midnightblue" stroke="midnightblue" points="761.229,-190.9 760.582,-201.475 767.682,-193.612 761.229,-190.9"/>
</g>
<!-- Node16 -->
<g id="node16" class="node"><title>Node16</title>
<g id="a_node16"><a xlink:href="_invoker_8cpp.html" target="_top" xlink:title="plugins/Invoker.cpp">
<polygon fill="white" stroke="black" points="858.5,-140 858.5,-159 961.5,-159 961.5,-140 858.5,-140"/>
<text text-anchor="middle" x="910" y="-147" font-family="Helvetica,sans-Serif" font-size="10.00">plugins/Invoker.cpp</text>
</a>
</g>
</g>
<!-- Node13&#45;&gt;Node16 -->
<g id="edge17" class="edge"><title>Node13&#45;&gt;Node16</title>
<path fill="none" stroke="midnightblue" d="M788.417,-197.782C818.149,-186.22 862.007,-169.164 888.119,-159.009"/>
<polygon fill="midnightblue" stroke="midnightblue" points="786.973,-194.589 778.921,-201.475 789.51,-201.113 786.973,-194.589"/>
</g>
<!-- Node15 -->
<g id="node15" class="node"><title>Node15</title>
<g id="a_node15"><a xlink:href="_dir_mon_invoker_8cpp.html" target="_top" xlink:title="plugins/invoker/dirmon\l/DirMonInvoker.cpp">
<polygon fill="white" stroke="black" points="723.5,-67.5 723.5,-97.5 840.5,-97.5 840.5,-67.5 723.5,-67.5"/>
<text text-anchor="start" x="731.5" y="-85.5" font-family="Helvetica,sans-Serif" font-size="10.00">plugins/invoker/dirmon</text>
<text text-anchor="middle" x="782" y="-74.5" font-family="Helvetica,sans-Serif" font-size="10.00">/DirMonInvoker.cpp</text>
</a>
</g>
</g>
<!-- Node14&#45;&gt;Node15 -->
<g id="edge15" class="edge"><title>Node14&#45;&gt;Node15</title>
<path fill="none" stroke="midnightblue" d="M782,-124.108C782,-115.154 782,-105.323 782,-97.5765"/>
<polygon fill="midnightblue" stroke="midnightblue" points="778.5,-124.396 782,-134.396 785.5,-124.396 778.5,-124.396"/>
</g>
<!-- Node18 -->
<g id="node18" class="node"><title>Node18</title>
<g id="a_node18"><a xlink:href="_basic_h_t_t_p_i_o_processor_8cpp.html" target="_top" xlink:title="plugins/ioprocessor\l/basichttp/BasicHTTPIOProcessor.cpp">
<polygon fill="white" stroke="black" points="974.5,-67.5 974.5,-97.5 1161.5,-97.5 1161.5,-67.5 974.5,-67.5"/>
<text text-anchor="start" x="982.5" y="-85.5" font-family="Helvetica,sans-Serif" font-size="10.00">plugins/ioprocessor</text>
<text text-anchor="middle" x="1068" y="-74.5" font-family="Helvetica,sans-Serif" font-size="10.00">/basichttp/BasicHTTPIOProcessor.cpp</text>
</a>
</g>
</g>
<!-- Node17&#45;&gt;Node18 -->
<g id="edge19" class="edge"><title>Node17&#45;&gt;Node18</title>
<path fill="none" stroke="midnightblue" d="M1068,-124.108C1068,-115.154 1068,-105.323 1068,-97.5765"/>
<polygon fill="midnightblue" stroke="midnightblue" points="1064.5,-124.396 1068,-134.396 1071.5,-124.396 1064.5,-124.396"/>
</g>
<!-- Node20&#45;&gt;Node17 -->
<g id="edge22" class="edge"><title>Node20&#45;&gt;Node17</title>
<path fill="none" stroke="midnightblue" d="M1242.29,-198.734C1207.2,-189.023 1156.39,-174.961 1118.67,-164.523"/>
<polygon fill="midnightblue" stroke="midnightblue" points="1241.62,-202.181 1252.2,-201.475 1243.49,-195.435 1241.62,-202.181"/>
</g>
<!-- Node21 -->
<g id="node21" class="node"><title>Node21</title>
<g id="a_node21"><a xlink:href="_s_c_x_m_l_i_o_processor_8h.html" target="_top" xlink:title="plugins/ioprocessor\l/scxml/SCXMLIOProcessor.h">
<polygon fill="white" stroke="black" points="1213,-134.5 1213,-164.5 1359,-164.5 1359,-134.5 1213,-134.5"/>
<text text-anchor="start" x="1221" y="-152.5" font-family="Helvetica,sans-Serif" font-size="10.00">plugins/ioprocessor</text>
<text text-anchor="middle" x="1286" y="-141.5" font-family="Helvetica,sans-Serif" font-size="10.00">/scxml/SCXMLIOProcessor.h</text>
</a>
</g>
</g>
<!-- Node20&#45;&gt;Node21 -->
<g id="edge23" class="edge"><title>Node20&#45;&gt;Node21</title>
<path fill="none" stroke="midnightblue" d="M1283.95,-191.235C1284.38,-182.586 1284.89,-172.497 1285.29,-164.523"/>
<polygon fill="midnightblue" stroke="midnightblue" points="1280.44,-191.312 1283.43,-201.475 1287.43,-191.664 1280.44,-191.312"/>
</g>
<!-- Node22 -->
<g id="node22" class="node"><title>Node22</title>
<g id="a_node22"><a xlink:href="_i_o_processor_8cpp.html" target="_top" xlink:title="plugins/IOProcessor.cpp">
<polygon fill="white" stroke="black" points="1377.5,-140 1377.5,-159 1502.5,-159 1502.5,-140 1377.5,-140"/>
<text text-anchor="middle" x="1440" y="-147" font-family="Helvetica,sans-Serif" font-size="10.00">plugins/IOProcessor.cpp</text>
</a>
</g>
</g>
<!-- Node20&#45;&gt;Node22 -->
<g id="edge25" class="edge"><title>Node20&#45;&gt;Node22</title>
<path fill="none" stroke="midnightblue" d="M1315.24,-197.782C1345.75,-186.22 1390.75,-169.164 1417.55,-159.009"/>
<polygon fill="midnightblue" stroke="midnightblue" points="1313.6,-194.658 1305.49,-201.475 1316.09,-201.204 1313.6,-194.658"/>
</g>
<!-- Node21&#45;&gt;Node19 -->
<g id="edge24" class="edge"><title>Node21&#45;&gt;Node19</title>
<path fill="none" stroke="midnightblue" d="M1280.81,-124.403C1278.86,-115.37 1276.72,-105.408 1275.03,-97.5765"/>
<polygon fill="midnightblue" stroke="midnightblue" points="1277.44,-125.357 1282.96,-134.396 1284.28,-123.883 1277.44,-125.357"/>
</g>
<!-- Node24 -->
<g id="node24" class="node"><title>Node24</title>
<g id="a_node24"><a xlink:href="_chart_to_c_8h.html" target="_top" xlink:title="transform/ChartToC.h">
<polygon fill="white" stroke="black" points="1712.5,-140 1712.5,-159 1825.5,-159 1825.5,-140 1712.5,-140"/>
<text text-anchor="middle" x="1769" y="-147" font-family="Helvetica,sans-Serif" font-size="10.00">transform/ChartToC.h</text>
</a>
</g>
</g>
<!-- Node23&#45;&gt;Node24 -->
<g id="edge27" class="edge"><title>Node23&#45;&gt;Node24</title>
<path fill="none" stroke="midnightblue" d="M1715.93,-194.973C1729.51,-183.593 1747.68,-168.369 1758.85,-159.009"/>
<polygon fill="midnightblue" stroke="midnightblue" points="1713.59,-192.369 1708.17,-201.475 1718.09,-197.735 1713.59,-192.369"/>
</g>
<!-- Node26 -->
<g id="node26" class="node"><title>Node26</title>
<g id="a_node26"><a xlink:href="_chart_to_java_8h.html" target="_top" xlink:title="transform/ChartToJava.h">
<polygon fill="white" stroke="black" points="1467.5,-73 1467.5,-92 1594.5,-92 1594.5,-73 1467.5,-73"/>
<text text-anchor="middle" x="1531" y="-80" font-family="Helvetica,sans-Serif" font-size="10.00">transform/ChartToJava.h</text>
</a>
</g>
</g>
<!-- Node23&#45;&gt;Node26 -->
<g id="edge36" class="edge"><title>Node23&#45;&gt;Node26</title>
<path fill="none" stroke="midnightblue" d="M1625.81,-203.313C1598.65,-197.257 1569.61,-185.955 1550,-165 1530.94,-144.634 1529.78,-108.973 1530.39,-92.4157"/>
<polygon fill="midnightblue" stroke="midnightblue" points="1625.22,-206.764 1635.72,-205.315 1626.61,-199.903 1625.22,-206.764"/>
</g>
<!-- Node28 -->
<g id="node28" class="node"><title>Node28</title>
<g id="a_node28"><a xlink:href="_chart_to_promela_8h.html" target="_top" xlink:title="transform/ChartToPromela.h">
<polygon fill="white" stroke="black" points="1768.5,-73 1768.5,-92 1911.5,-92 1911.5,-73 1768.5,-73"/>
<text text-anchor="middle" x="1840" y="-80" font-family="Helvetica,sans-Serif" font-size="10.00">transform/ChartToPromela.h</text>
</a>
</g>
</g>
<!-- Node23&#45;&gt;Node28 -->
<g id="edge37" class="edge"><title>Node23&#45;&gt;Node28</title>
<path fill="none" stroke="midnightblue" d="M1770.15,-202.284C1794.09,-196.006 1818.54,-184.822 1834,-165 1850.75,-143.52 1845.75,-108.416 1842.2,-92.2069"/>
<polygon fill="midnightblue" stroke="midnightblue" points="1769.24,-198.903 1760.32,-204.609 1770.85,-205.715 1769.24,-198.903"/>
</g>
<!-- Node31 -->
<g id="node31" class="node"><title>Node31</title>
<g id="a_node31"><a xlink:href="_chart_to_v_h_d_l_8h.html" target="_top" xlink:title="transform/ChartToVHDL.h">
<polygon fill="white" stroke="black" points="1929.5,-73 1929.5,-92 2062.5,-92 2062.5,-73 1929.5,-73"/>
<text text-anchor="middle" x="1996" y="-80" font-family="Helvetica,sans-Serif" font-size="10.00">transform/ChartToVHDL.h</text>
</a>
</g>
</g>
<!-- Node23&#45;&gt;Node31 -->
<g id="edge38" class="edge"><title>Node23&#45;&gt;Node31</title>
<path fill="none" stroke="midnightblue" d="M1747.14,-199.046C1778.39,-191.301 1819.34,-179.692 1854,-165 1904.25,-143.7 1959,-108.506 1983.23,-92.2407"/>
<polygon fill="midnightblue" stroke="midnightblue" points="1746.25,-195.661 1737.36,-201.424 1747.9,-202.463 1746.25,-195.661"/>
</g>
<!-- Node33 -->
<g id="node33" class="node"><title>Node33</title>
<g id="a_node33"><a xlink:href="_transformer_8cpp.html" target="_top" xlink:title="transform/Transformer.cpp">
<polygon fill="white" stroke="black" points="1559.5,-140 1559.5,-159 1694.5,-159 1694.5,-140 1559.5,-140"/>
<text text-anchor="middle" x="1627" y="-147" font-family="Helvetica,sans-Serif" font-size="10.00">transform/Transformer.cpp</text>
</a>
</g>
</g>
<!-- Node23&#45;&gt;Node33 -->
<g id="edge39" class="edge"><title>Node23&#45;&gt;Node33</title>
<path fill="none" stroke="midnightblue" d="M1680.07,-194.973C1666.49,-183.593 1648.32,-168.369 1637.15,-159.009"/>
<polygon fill="midnightblue" stroke="midnightblue" points="1677.91,-197.735 1687.83,-201.475 1682.41,-192.369 1677.91,-197.735"/>
</g>
<!-- Node25 -->
<g id="node25" class="node"><title>Node25</title>
<g id="a_node25"><a xlink:href="_chart_to_c_8cpp.html" target="_top" xlink:title="transform/ChartToC.cpp">
<polygon fill="white" stroke="black" points="1626,-73 1626,-92 1750,-92 1750,-73 1626,-73"/>
<text text-anchor="middle" x="1688" y="-80" font-family="Helvetica,sans-Serif" font-size="10.00">transform/ChartToC.cpp</text>
</a>
</g>
</g>
<!-- Node24&#45;&gt;Node25 -->
<g id="edge28" class="edge"><title>Node24&#45;&gt;Node25</title>
<path fill="none" stroke="midnightblue" d="M1749.95,-133.213C1733.99,-120.407 1711.79,-102.588 1698.75,-92.1273"/>
<polygon fill="midnightblue" stroke="midnightblue" points="1748.09,-136.205 1758.08,-139.734 1752.47,-130.745 1748.09,-136.205"/>
</g>
<!-- Node24&#45;&gt;Node26 -->
<g id="edge29" class="edge"><title>Node24&#45;&gt;Node26</title>
<path fill="none" stroke="midnightblue" d="M1727.52,-137.172C1680.46,-124.319 1604.75,-103.643 1562.36,-92.0637"/>
<polygon fill="midnightblue" stroke="midnightblue" points="1726.83,-140.61 1737.4,-139.869 1728.67,-133.857 1726.83,-140.61"/>
</g>
<!-- Node24&#45;&gt;Node28 -->
<g id="edge31" class="edge"><title>Node24&#45;&gt;Node28</title>
<path fill="none" stroke="midnightblue" d="M1786.09,-132.856C1800.05,-120.078 1819.26,-102.492 1830.58,-92.1273"/>
<polygon fill="midnightblue" stroke="midnightblue" points="1783.59,-130.4 1778.58,-139.734 1788.31,-135.563 1783.59,-130.4"/>
</g>
<!-- Node24&#45;&gt;Node31 -->
<g id="edge34" class="edge"><title>Node24&#45;&gt;Node31</title>
<path fill="none" stroke="midnightblue" d="M1808.84,-137.091C1853.75,-124.232 1925.74,-103.618 1966.09,-92.0637"/>
<polygon fill="midnightblue" stroke="midnightblue" points="1807.79,-133.751 1799.14,-139.869 1809.72,-140.48 1807.79,-133.751"/>
</g>
<!-- Node27 -->
<g id="node27" class="node"><title>Node27</title>
<g id="a_node27"><a xlink:href="_chart_to_java_8cpp.html" target="_top" xlink:title="transform/ChartToJava.cpp">
<polygon fill="white" stroke="black" points="1452,-6 1452,-25 1590,-25 1590,-6 1452,-6"/>
<text text-anchor="middle" x="1521" y="-13" font-family="Helvetica,sans-Serif" font-size="10.00">transform/ChartToJava.cpp</text>
</a>
</g>
</g>
<!-- Node26&#45;&gt;Node27 -->
<g id="edge30" class="edge"><title>Node26&#45;&gt;Node27</title>
<path fill="none" stroke="midnightblue" d="M1528.08,-62.537C1526.18,-50.1703 1523.79,-34.6198 1522.33,-25.1273"/>
<polygon fill="midnightblue" stroke="midnightblue" points="1524.67,-63.3823 1529.65,-72.7338 1531.59,-62.3179 1524.67,-63.3823"/>
</g>
<!-- Node29 -->
<g id="node29" class="node"><title>Node29</title>
<g id="a_node29"><a xlink:href="_chart_to_promela_8cpp.html" target="_top" xlink:title="transform/ChartToPromela.cpp">
<polygon fill="white" stroke="black" points="1608,-6 1608,-25 1762,-25 1762,-6 1608,-6"/>
<text text-anchor="middle" x="1685" y="-13" font-family="Helvetica,sans-Serif" font-size="10.00">transform/ChartToPromela.cpp</text>
</a>
</g>
</g>
<!-- Node28&#45;&gt;Node29 -->
<g id="edge32" class="edge"><title>Node28&#45;&gt;Node29</title>
<path fill="none" stroke="midnightblue" d="M1810.07,-68.9485C1779.38,-56.0787 1732.46,-36.4032 1705.67,-25.1672"/>
<polygon fill="midnightblue" stroke="midnightblue" points="1808.84,-72.2289 1819.42,-72.8685 1811.55,-65.7735 1808.84,-72.2289"/>
</g>
<!-- Node30 -->
<g id="node30" class="node"><title>Node30</title>
<g id="a_node30"><a xlink:href="_promela_code_analyzer_8cpp.html" target="_top" xlink:title="transform/promela/Promela\lCodeAnalyzer.cpp">
<polygon fill="white" stroke="black" points="1780,-0.5 1780,-30.5 1918,-30.5 1918,-0.5 1780,-0.5"/>
<text text-anchor="start" x="1788" y="-18.5" font-family="Helvetica,sans-Serif" font-size="10.00">transform/promela/Promela</text>
<text text-anchor="middle" x="1849" y="-7.5" font-family="Helvetica,sans-Serif" font-size="10.00">CodeAnalyzer.cpp</text>
</a>
</g>
</g>
<!-- Node28&#45;&gt;Node30 -->
<g id="edge33" class="edge"><title>Node28&#45;&gt;Node30</title>
<path fill="none" stroke="midnightblue" d="M1842.6,-62.7386C1844.02,-52.4873 1845.75,-40.0011 1847.05,-30.589"/>
<polygon fill="midnightblue" stroke="midnightblue" points="1839.12,-62.3482 1841.21,-72.7338 1846.05,-63.3084 1839.12,-62.3482"/>
</g>
<!-- Node32 -->
<g id="node32" class="node"><title>Node32</title>
<g id="a_node32"><a xlink:href="_chart_to_v_h_d_l_8cpp.html" target="_top" xlink:title="transform/ChartToVHDL.cpp">
<polygon fill="white" stroke="black" points="1936.5,-6 1936.5,-25 2079.5,-25 2079.5,-6 1936.5,-6"/>
<text text-anchor="middle" x="2008" y="-13" font-family="Helvetica,sans-Serif" font-size="10.00">transform/ChartToVHDL.cpp</text>
</a>
</g>
</g>
<!-- Node31&#45;&gt;Node32 -->
<g id="edge35" class="edge"><title>Node31&#45;&gt;Node32</title>
<path fill="none" stroke="midnightblue" d="M1999.5,-62.537C2001.78,-50.1703 2004.65,-34.6198 2006.41,-25.1273"/>
<polygon fill="midnightblue" stroke="midnightblue" points="1995.99,-62.2645 1997.62,-72.7338 2002.88,-63.5354 1995.99,-62.2645"/>
</g>
</g>
</svg>
