<?xml version="1.0" encoding="UTF-8" standalone="no"?>
<!DOCTYPE svg PUBLIC "-//W3C//DTD SVG 1.1//EN"
 "http://www.w3.org/Graphics/SVG/1.1/DTD/svg11.dtd">
<!-- Generated by graphviz version 2.38.0 (20140413.2041)
 -->
<!-- Title: Interpreter.h Pages: 1 -->
<!--zoomable 397 -->
<svg id="main" version="1.1" xmlns="http://www.w3.org/2000/svg" xmlns:xlink="http://www.w3.org/1999/xlink" xml:space="preserve" onload="init(evt)">
<style type="text/css"><![CDATA[
.edge:hover path { stroke: red; }
.edge:hover polygon { stroke: red; fill: red; }
]]></style>
<script type="text/javascript"><![CDATA[
var edges = document.getElementsByTagName('g');
if (edges && edges.length) {
  for (var i=0;i<edges.length;i++) {
    if (edges[i].id.substr(0,4)=='edge') {
      edges[i].setAttribute('class','edge');
    }
  }
}
]]></script>
        <defs>
                <circle id="rim" cx="0" cy="0" r="7"/>
                <circle id="rim2" cx="0" cy="0" r="3.5"/>
                <g id="zoomPlus">
                        <use xlink:href="#rim" fill="#404040">
                                <set attributeName="fill" to="#808080" begin="zoomplus.mouseover" end="zoomplus.mouseout"/>
                        </use>
                        <path d="M-4,0h8M0,-4v8" fill="none" stroke="white" stroke-width="1.5" pointer-events="none"/>
                </g>
                <g id="zoomMin">
                        <use xlink:href="#rim" fill="#404040">
                                <set attributeName="fill" to="#808080" begin="zoomminus.mouseover" end="zoomminus.mouseout"/>
                        </use>
                        <path d="M-4,0h8" fill="none" stroke="white" stroke-width="1.5" pointer-events="none"/>
                </g>
                <g id="dirArrow">
                        <path fill="none" stroke="white" stroke-width="1.5" d="M0,-3.0v7 M-2.5,-0.5L0,-3.0L2.5,-0.5"/>
                </g>
               <g id="resetDef">
                       <use xlink:href="#rim2" fill="#404040">
                               <set attributeName="fill" to="#808080" begin="reset.mouseover" end="reset.mouseout"/>
                       </use>
               </g>
        </defs>

<script type="text/javascript">
var viewWidth = 1235;
var viewHeight = 397;
var sectionId = 'dynsection-0';
</script>
<script xlink:href="svgpan.js"/>
<svg id="graph" class="graph">
<g id="viewport">
<title>Interpreter.h</title>
<polygon fill="white" stroke="none" points="-4,4 -4,-393 1231,-393 1231,4 -4,4"/>
<!-- Node1 -->
<g id="node1" class="node"><title>Node1</title>
<polygon fill="#bfbfbf" stroke="black" points="426.5,-369.5 426.5,-388.5 497.5,-388.5 497.5,-369.5 426.5,-369.5"/>
<text text-anchor="middle" x="462" y="-376.5" font-family="Helvetica,sans-Serif" font-size="10.00">Interpreter.h</text>
</g>
<!-- Node2 -->
<g id="node2" class="node"><title>Node2</title>
<g id="a_node2"><a xlink:href="_common_8h.html" target="_top" xlink:title="Common.h">
<polygon fill="white" stroke="black" points="197.5,-56.5 197.5,-75.5 262.5,-75.5 262.5,-56.5 197.5,-56.5"/>
<text text-anchor="middle" x="230" y="-63.5" font-family="Helvetica,sans-Serif" font-size="10.00">Common.h</text>
</a>
</g>
</g>
<!-- Node1&#45;&gt;Node2 -->
<g id="edge1" class="edge"><title>Node1&#45;&gt;Node2</title>
<path fill="none" stroke="midnightblue" d="M426.132,-376.721C317.583,-371.885 0,-350.241 0,-262.5 0,-262.5 0,-262.5 0,-193.5 0,-109.148 120.24,-80.6433 186.844,-71.3242"/>
<polygon fill="midnightblue" stroke="midnightblue" points="187.586,-74.7571 197.047,-69.9877 186.677,-67.8164 187.586,-74.7571"/>
</g>
<!-- Node5 -->
<g id="node5" class="node"><title>Node5</title>
<polygon fill="white" stroke="#bfbfbf" points="1091,-118 1091,-137 1127,-137 1127,-118 1091,-118"/>
<text text-anchor="middle" x="1109" y="-125" font-family="Helvetica,sans-Serif" font-size="10.00">map</text>
</g>
<!-- Node1&#45;&gt;Node5 -->
<g id="edge4" class="edge"><title>Node1&#45;&gt;Node5</title>
<path fill="none" stroke="midnightblue" d="M497.54,-373.512C571.504,-363.308 746.381,-334.655 882,-277 932.945,-255.342 940.648,-240.266 987,-210 1022.55,-186.784 1063.54,-159.245 1087.8,-142.857"/>
<polygon fill="midnightblue" stroke="midnightblue" points="1089.91,-145.655 1096.24,-137.154 1085.99,-139.856 1089.91,-145.655"/>
</g>
<!-- Node6 -->
<g id="node6" class="node"><title>Node6</title>
<polygon fill="white" stroke="#bfbfbf" points="851.5,-56.5 851.5,-75.5 892.5,-75.5 892.5,-56.5 851.5,-56.5"/>
<text text-anchor="middle" x="872" y="-63.5" font-family="Helvetica,sans-Serif" font-size="10.00">string</text>
</g>
<!-- Node1&#45;&gt;Node6 -->
<g id="edge5" class="edge"><title>Node1&#45;&gt;Node6</title>
<path fill="none" stroke="midnightblue" d="M497.799,-375.862C639.706,-366.92 1155,-329.813 1155,-262.5 1155,-262.5 1155,-262.5 1155,-193.5 1155,-156.306 1163.28,-137.276 1136,-112 1099.36,-78.0612 967.682,-86.5564 902.434,-75.5246"/>
<polygon fill="midnightblue" stroke="midnightblue" points="903.045,-72.0779 892.557,-73.5769 901.691,-78.9456 903.045,-72.0779"/>
</g>
<!-- Node7 -->
<g id="node7" class="node"><title>Node7</title>
<polygon fill="white" stroke="#bfbfbf" points="1183,-313.5 1183,-332.5 1227,-332.5 1227,-313.5 1183,-313.5"/>
<text text-anchor="middle" x="1205" y="-320.5" font-family="Helvetica,sans-Serif" font-size="10.00">vector</text>
</g>
<!-- Node1&#45;&gt;Node7 -->
<g id="edge6" class="edge"><title>Node1&#45;&gt;Node7</title>
<path fill="none" stroke="midnightblue" d="M497.558,-378.008C601.533,-377.544 913.785,-372.688 1169,-333 1170.25,-332.805 1171.53,-332.587 1172.81,-332.35"/>
<polygon fill="midnightblue" stroke="midnightblue" points="1173.61,-335.759 1182.66,-330.252 1172.15,-328.912 1173.61,-335.759"/>
</g>
<!-- Node8 -->
<g id="node8" class="node"><title>Node8</title>
<g id="a_node8"><a xlink:href="_micro_step_8h.html" target="_top" xlink:title="uscxml/interpreter\l/MicroStep.h">
<polygon fill="white" stroke="black" points="220,-179.5 220,-209.5 316,-209.5 316,-179.5 220,-179.5"/>
<text text-anchor="start" x="228" y="-197.5" font-family="Helvetica,sans-Serif" font-size="10.00">uscxml/interpreter</text>
<text text-anchor="middle" x="268" y="-186.5" font-family="Helvetica,sans-Serif" font-size="10.00">/MicroStep.h</text>
</a>
</g>
</g>
<!-- Node1&#45;&gt;Node8 -->
<g id="edge7" class="edge"><title>Node1&#45;&gt;Node8</title>
<path fill="none" stroke="midnightblue" d="M444.919,-369.39C415.697,-354.016 355.452,-319.439 316,-277 300.018,-259.808 286.918,-236.405 278.465,-219.087"/>
<polygon fill="midnightblue" stroke="midnightblue" points="281.465,-217.242 274.038,-209.686 275.132,-220.225 281.465,-217.242"/>
</g>
<!-- Node12 -->
<g id="node12" class="node"><title>Node12</title>
<g id="a_node12"><a xlink:href="_interpreter_state_8h.html" target="_top" xlink:title="uscxml/interpreter\l/InterpreterState.h">
<polygon fill="white" stroke="black" points="104.5,-112.5 104.5,-142.5 201.5,-142.5 201.5,-112.5 104.5,-112.5"/>
<text text-anchor="start" x="112.5" y="-130.5" font-family="Helvetica,sans-Serif" font-size="10.00">uscxml/interpreter</text>
<text text-anchor="middle" x="153" y="-119.5" font-family="Helvetica,sans-Serif" font-size="10.00">/InterpreterState.h</text>
</a>
</g>
</g>
<!-- Node1&#45;&gt;Node12 -->
<g id="edge44" class="edge"><title>Node1&#45;&gt;Node12</title>
<path fill="none" stroke="midnightblue" d="M435.124,-369.469C412.556,-361.693 379.934,-348.992 354,-333 282.644,-288.999 267.494,-271.937 211,-210 194.213,-191.596 178.029,-168.229 167.043,-151.239"/>
<polygon fill="midnightblue" stroke="midnightblue" points="169.823,-149.088 161.503,-142.528 163.916,-152.845 169.823,-149.088"/>
</g>
<!-- Node13 -->
<g id="node13" class="node"><title>Node13</title>
<g id="a_node13"><a xlink:href="_data_model_8h.html" target="_top" xlink:title="uscxml/plugins/DataModel.h">
<polygon fill="white" stroke="black" points="460,-313.5 460,-332.5 602,-332.5 602,-313.5 460,-313.5"/>
<text text-anchor="middle" x="531" y="-320.5" font-family="Helvetica,sans-Serif" font-size="10.00">uscxml/plugins/DataModel.h</text>
</a>
</g>
</g>
<!-- Node1&#45;&gt;Node13 -->
<g id="edge15" class="edge"><title>Node1&#45;&gt;Node13</title>
<path fill="none" stroke="midnightblue" d="M473.086,-369.324C483.486,-361.185 499.261,-348.839 511.722,-339.087"/>
<polygon fill="midnightblue" stroke="midnightblue" points="513.994,-341.753 519.712,-332.834 509.68,-336.241 513.994,-341.753"/>
</g>
<!-- Node21 -->
<g id="node21" class="node"><title>Node21</title>
<g id="a_node21"><a xlink:href="_content_executor_8h.html" target="_top" xlink:title="uscxml/interpreter\l/ContentExecutor.h">
<polygon fill="white" stroke="black" points="325,-246.5 325,-276.5 427,-276.5 427,-246.5 325,-246.5"/>
<text text-anchor="start" x="333" y="-264.5" font-family="Helvetica,sans-Serif" font-size="10.00">uscxml/interpreter</text>
<text text-anchor="middle" x="376" y="-253.5" font-family="Helvetica,sans-Serif" font-size="10.00">/ContentExecutor.h</text>
</a>
</g>
</g>
<!-- Node1&#45;&gt;Node21 -->
<g id="edge39" class="edge"><title>Node1&#45;&gt;Node21</title>
<path fill="none" stroke="midnightblue" d="M455.536,-369.319C442.27,-351.502 411.609,-310.324 392.467,-284.615"/>
<polygon fill="midnightblue" stroke="midnightblue" points="395.237,-282.476 386.458,-276.545 389.623,-286.656 395.237,-282.476"/>
</g>
<!-- Node3 -->
<g id="node3" class="node"><title>Node3</title>
<polygon fill="white" stroke="#bfbfbf" points="156,-0.5 156,-19.5 228,-19.5 228,-0.5 156,-0.5"/>
<text text-anchor="middle" x="192" y="-7.5" font-family="Helvetica,sans-Serif" font-size="10.00">sys/socket.h</text>
</g>
<!-- Node2&#45;&gt;Node3 -->
<g id="edge2" class="edge"><title>Node2&#45;&gt;Node3</title>
<path fill="none" stroke="midnightblue" d="M223.725,-56.083C218.358,-48.4554 210.482,-37.2645 203.921,-27.9408"/>
<polygon fill="midnightblue" stroke="midnightblue" points="206.775,-25.9149 198.158,-19.7511 201.051,-29.9434 206.775,-25.9149"/>
</g>
<!-- Node4 -->
<g id="node4" class="node"><title>Node4</title>
<polygon fill="white" stroke="#bfbfbf" points="246,-0.5 246,-19.5 290,-19.5 290,-0.5 246,-0.5"/>
<text text-anchor="middle" x="268" y="-7.5" font-family="Helvetica,sans-Serif" font-size="10.00">cmath</text>
</g>
<!-- Node2&#45;&gt;Node4 -->
<g id="edge3" class="edge"><title>Node2&#45;&gt;Node4</title>
<path fill="none" stroke="midnightblue" d="M236.275,-56.083C241.642,-48.4554 249.518,-37.2645 256.079,-27.9408"/>
<polygon fill="midnightblue" stroke="midnightblue" points="258.949,-29.9434 261.842,-19.7511 253.225,-25.9149 258.949,-29.9434"/>
</g>
<!-- Node8&#45;&gt;Node2 -->
<g id="edge12" class="edge"><title>Node8&#45;&gt;Node2</title>
<path fill="none" stroke="midnightblue" d="M263.788,-179.479C256.89,-156.514 243.184,-110.889 235.518,-85.3699"/>
<polygon fill="midnightblue" stroke="midnightblue" points="238.869,-84.3588 232.64,-75.7885 232.165,-86.3727 238.869,-84.3588"/>
</g>
<!-- Node8&#45;&gt;Node6 -->
<g id="edge10" class="edge"><title>Node8&#45;&gt;Node6</title>
<path fill="none" stroke="midnightblue" d="M316.069,-190.317C434.888,-182.225 735.864,-160.286 778,-143 810.496,-129.669 840.679,-101.285 857.685,-83.2281"/>
<polygon fill="midnightblue" stroke="midnightblue" points="860.36,-85.4889 864.532,-75.7497 855.197,-80.7619 860.36,-85.4889"/>
</g>
<!-- Node9 -->
<g id="node9" class="node"><title>Node9</title>
<polygon fill="white" stroke="#bfbfbf" points="568.5,-56.5 568.5,-75.5 621.5,-75.5 621.5,-56.5 568.5,-56.5"/>
<text text-anchor="middle" x="595" y="-63.5" font-family="Helvetica,sans-Serif" font-size="10.00">memory</text>
</g>
<!-- Node8&#45;&gt;Node9 -->
<g id="edge8" class="edge"><title>Node8&#45;&gt;Node9</title>
<path fill="none" stroke="midnightblue" d="M266.881,-179.354C266.277,-160.974 268.283,-129.208 287,-112 325.865,-76.2683 484.826,-68.8662 557.917,-67.3642"/>
<polygon fill="midnightblue" stroke="midnightblue" points="558.118,-70.8612 568.054,-67.1827 557.993,-63.8624 558.118,-70.8612"/>
</g>
<!-- Node10 -->
<g id="node10" class="node"><title>Node10</title>
<polygon fill="white" stroke="#bfbfbf" points="399.5,-118 399.5,-137 428.5,-137 428.5,-118 399.5,-118"/>
<text text-anchor="middle" x="414" y="-125" font-family="Helvetica,sans-Serif" font-size="10.00">list</text>
</g>
<!-- Node8&#45;&gt;Node10 -->
<g id="edge9" class="edge"><title>Node8&#45;&gt;Node10</title>
<path fill="none" stroke="midnightblue" d="M306.035,-179.465C330.444,-170.043 362.585,-156.856 390,-143 390.543,-142.726 391.09,-142.443 391.64,-142.155"/>
<polygon fill="midnightblue" stroke="midnightblue" points="393.514,-145.116 400.495,-137.146 390.068,-139.023 393.514,-145.116"/>
</g>
<!-- Node11 -->
<g id="node11" class="node"><title>Node11</title>
<polygon fill="white" stroke="#bfbfbf" points="296.5,-118 296.5,-137 381.5,-137 381.5,-118 296.5,-118"/>
<text text-anchor="middle" x="339" y="-125" font-family="Helvetica,sans-Serif" font-size="10.00">uscxml/config.h</text>
</g>
<!-- Node8&#45;&gt;Node11 -->
<g id="edge11" class="edge"><title>Node8&#45;&gt;Node11</title>
<path fill="none" stroke="midnightblue" d="M283.406,-179.396C294.805,-168.96 310.326,-154.751 322.072,-143.998"/>
<polygon fill="midnightblue" stroke="midnightblue" points="324.49,-146.529 329.503,-137.195 319.764,-141.366 324.49,-146.529"/>
</g>
<!-- Node8&#45;&gt;Node12 -->
<g id="edge13" class="edge"><title>Node8&#45;&gt;Node12</title>
<path fill="none" stroke="midnightblue" d="M243.047,-179.396C226.621,-170.112 204.911,-157.841 186.924,-147.674"/>
<polygon fill="midnightblue" stroke="midnightblue" points="188.332,-144.45 177.905,-142.577 184.888,-150.544 188.332,-144.45"/>
</g>
<!-- Node12&#45;&gt;Node2 -->
<g id="edge14" class="edge"><title>Node12&#45;&gt;Node2</title>
<path fill="none" stroke="midnightblue" d="M171.248,-112.399C183.129,-103.218 198.607,-91.2579 210.694,-81.9182"/>
<polygon fill="midnightblue" stroke="midnightblue" points="213.023,-84.5418 218.796,-75.6578 208.743,-79.0028 213.023,-84.5418"/>
</g>
<!-- Node13&#45;&gt;Node2 -->
<g id="edge16" class="edge"><title>Node13&#45;&gt;Node2</title>
<path fill="none" stroke="midnightblue" d="M459.944,-319.848C371.682,-313.618 220.931,-290.869 124,-210 88.1294,-180.073 58.3288,-149.638 86,-112 109.059,-80.6359 153.879,-70.5221 187.421,-67.5557"/>
<polygon fill="midnightblue" stroke="midnightblue" points="187.704,-71.0445 197.432,-66.8489 187.211,-64.0619 187.704,-71.0445"/>
</g>
<!-- Node13&#45;&gt;Node6 -->
<g id="edge37" class="edge"><title>Node13&#45;&gt;Node6</title>
<path fill="none" stroke="midnightblue" d="M602.049,-320.304C713.888,-313.315 928.024,-281.488 1023,-143 1030.79,-131.638 1031.24,-123.044 1023,-112 991.225,-69.3953 959.313,-89.6152 902.397,-75.8371"/>
<polygon fill="midnightblue" stroke="midnightblue" points="903.222,-72.4344 892.655,-73.2032 901.395,-79.1918 903.222,-72.4344"/>
</g>
<!-- Node13&#45;&gt;Node9 -->
<g id="edge38" class="edge"><title>Node13&#45;&gt;Node9</title>
<path fill="none" stroke="midnightblue" d="M556.214,-313.455C609.993,-293.628 734.584,-238.738 778,-143 804.807,-83.8879 692.701,-70.6262 631.878,-67.7393"/>
<polygon fill="midnightblue" stroke="midnightblue" points="631.651,-64.2274 621.519,-67.3238 631.37,-71.2218 631.651,-64.2274"/>
</g>
<!-- Node13&#45;&gt;Node10 -->
<g id="edge36" class="edge"><title>Node13&#45;&gt;Node10</title>
<path fill="none" stroke="midnightblue" d="M516.113,-313.346C503.434,-305.323 485.495,-292.334 474,-277 443.24,-235.964 425.659,-176.977 418.233,-147.205"/>
<polygon fill="midnightblue" stroke="midnightblue" points="421.601,-146.24 415.878,-137.323 414.792,-147.862 421.601,-146.24"/>
</g>
<!-- Node14 -->
<g id="node14" class="node"><title>Node14</title>
<g id="a_node14"><a xlink:href="_event_8h.html" target="_top" xlink:title="uscxml/messages/Event.h">
<polygon fill="white" stroke="black" points="483.5,-252 483.5,-271 616.5,-271 616.5,-252 483.5,-252"/>
<text text-anchor="middle" x="550" y="-259" font-family="Helvetica,sans-Serif" font-size="10.00">uscxml/messages/Event.h</text>
</a>
</g>
</g>
<!-- Node13&#45;&gt;Node14 -->
<g id="edge17" class="edge"><title>Node13&#45;&gt;Node14</title>
<path fill="none" stroke="midnightblue" d="M533.722,-313.475C536.431,-304.992 540.674,-291.704 544.149,-280.822"/>
<polygon fill="midnightblue" stroke="midnightblue" points="547.575,-281.6 547.283,-271.009 540.907,-279.47 547.575,-281.6"/>
</g>
<!-- Node15 -->
<g id="node15" class="node"><title>Node15</title>
<g id="a_node15"><a xlink:href="_data_8h.html" target="_top" xlink:title="uscxml/messages/Data.h">
<polygon fill="white" stroke="black" points="485,-185 485,-204 613,-204 613,-185 485,-185"/>
<text text-anchor="middle" x="549" y="-192" font-family="Helvetica,sans-Serif" font-size="10.00">uscxml/messages/Data.h</text>
</a>
</g>
</g>
<!-- Node14&#45;&gt;Node15 -->
<g id="edge18" class="edge"><title>Node14&#45;&gt;Node15</title>
<path fill="none" stroke="midnightblue" d="M549.865,-251.734C549.718,-242.183 549.479,-226.618 549.289,-214.283"/>
<polygon fill="midnightblue" stroke="midnightblue" points="552.786,-214.072 549.133,-204.127 545.787,-214.18 552.786,-214.072"/>
</g>
<!-- Node20 -->
<g id="node20" class="node"><title>Node20</title>
<g id="a_node20"><a xlink:href="_u_u_i_d_8h.html" target="_top" xlink:title="uscxml/util/UUID.h">
<polygon fill="white" stroke="black" points="669.5,-118 669.5,-137 768.5,-137 768.5,-118 669.5,-118"/>
<text text-anchor="middle" x="719" y="-125" font-family="Helvetica,sans-Serif" font-size="10.00">uscxml/util/UUID.h</text>
</a>
</g>
</g>
<!-- Node14&#45;&gt;Node20 -->
<g id="edge33" class="edge"><title>Node14&#45;&gt;Node20</title>
<path fill="none" stroke="midnightblue" d="M562.988,-251.89C577.596,-242.093 601.903,-225.444 622,-210 650.713,-187.935 682.613,-160.542 701.726,-143.801"/>
<polygon fill="midnightblue" stroke="midnightblue" points="704.123,-146.354 709.319,-137.12 699.499,-141.098 704.123,-146.354"/>
</g>
<!-- Node15&#45;&gt;Node2 -->
<g id="edge23" class="edge"><title>Node15&#45;&gt;Node2</title>
<path fill="none" stroke="midnightblue" d="M536.159,-184.994C521.435,-175.154 496.667,-158.336 476,-143 458.219,-129.805 457.006,-121.488 437,-112 383.738,-86.7409 316.025,-75.4711 272.836,-70.5749"/>
<polygon fill="midnightblue" stroke="midnightblue" points="272.99,-67.0715 262.675,-69.4895 272.247,-74.0319 272.99,-67.0715"/>
</g>
<!-- Node15&#45;&gt;Node5 -->
<g id="edge20" class="edge"><title>Node15&#45;&gt;Node5</title>
<path fill="none" stroke="midnightblue" d="M613.026,-187.033C701.479,-177.96 866.013,-160.584 1006,-143 1031.33,-139.819 1060.09,-135.729 1080.77,-132.705"/>
<polygon fill="midnightblue" stroke="midnightblue" points="1081.4,-136.15 1090.79,-131.231 1080.39,-129.224 1081.4,-136.15"/>
</g>
<!-- Node15&#45;&gt;Node9 -->
<g id="edge21" class="edge"><title>Node15&#45;&gt;Node9</title>
<path fill="none" stroke="midnightblue" d="M570.719,-184.986C587.835,-176.979 610.503,-163.183 621,-143 631.004,-123.763 619.265,-99.8584 608.504,-84.0521"/>
<polygon fill="midnightblue" stroke="midnightblue" points="611.181,-81.7836 602.453,-75.7779 605.531,-85.9158 611.181,-81.7836"/>
</g>
<!-- Node15&#45;&gt;Node10 -->
<g id="edge19" class="edge"><title>Node15&#45;&gt;Node10</title>
<path fill="none" stroke="midnightblue" d="M530.566,-184.848C509.379,-174.874 473.592,-157.933 443,-143 441.4,-142.219 439.753,-141.41 438.095,-140.591"/>
<polygon fill="midnightblue" stroke="midnightblue" points="439.238,-137.251 428.726,-135.931 436.121,-143.518 439.238,-137.251"/>
</g>
<!-- Node15&#45;&gt;Node11 -->
<g id="edge22" class="edge"><title>Node15&#45;&gt;Node11</title>
<path fill="none" stroke="midnightblue" d="M521.114,-184.869C483.905,-173.351 417.901,-152.922 376.403,-140.077"/>
<polygon fill="midnightblue" stroke="midnightblue" points="377.255,-136.677 366.667,-137.064 375.185,-143.364 377.255,-136.677"/>
</g>
<!-- Node16 -->
<g id="node16" class="node"><title>Node16</title>
<g id="a_node16"><a xlink:href="_convenience_8h.html" target="_top" xlink:title="uscxml/util/Convenience.h">
<polygon fill="white" stroke="black" points="863.5,-118 863.5,-137 996.5,-137 996.5,-118 863.5,-118"/>
<text text-anchor="middle" x="930" y="-125" font-family="Helvetica,sans-Serif" font-size="10.00">uscxml/util/Convenience.h</text>
</a>
</g>
</g>
<!-- Node15&#45;&gt;Node16 -->
<g id="edge24" class="edge"><title>Node15&#45;&gt;Node16</title>
<path fill="none" stroke="midnightblue" d="M599.201,-184.936C668.966,-173.033 795.066,-151.52 869.798,-138.771"/>
<polygon fill="midnightblue" stroke="midnightblue" points="870.722,-142.164 879.991,-137.032 869.545,-135.263 870.722,-142.164"/>
</g>
<!-- Node19 -->
<g id="node19" class="node"><title>Node19</title>
<g id="a_node19"><a xlink:href="_blob_8h.html" target="_top" xlink:title="uscxml/messages/Blob.h">
<polygon fill="white" stroke="black" points="485.5,-118 485.5,-137 612.5,-137 612.5,-118 485.5,-118"/>
<text text-anchor="middle" x="549" y="-125" font-family="Helvetica,sans-Serif" font-size="10.00">uscxml/messages/Blob.h</text>
</a>
</g>
</g>
<!-- Node15&#45;&gt;Node19 -->
<g id="edge29" class="edge"><title>Node15&#45;&gt;Node19</title>
<path fill="none" stroke="midnightblue" d="M549,-184.734C549,-175.183 549,-159.618 549,-147.283"/>
<polygon fill="midnightblue" stroke="midnightblue" points="552.5,-147.127 549,-137.127 545.5,-147.127 552.5,-147.127"/>
</g>
<!-- Node16&#45;&gt;Node2 -->
<g id="edge25" class="edge"><title>Node16&#45;&gt;Node2</title>
<path fill="none" stroke="midnightblue" d="M863.427,-119.958C836.86,-117.397 805.989,-114.484 778,-112 589.851,-95.3014 365.16,-77.532 272.826,-70.3236"/>
<polygon fill="midnightblue" stroke="midnightblue" points="272.991,-66.826 262.75,-69.5379 272.447,-73.8048 272.991,-66.826"/>
</g>
<!-- Node16&#45;&gt;Node6 -->
<g id="edge26" class="edge"><title>Node16&#45;&gt;Node6</title>
<path fill="none" stroke="midnightblue" d="M921.69,-117.975C912.818,-108.873 898.554,-94.241 887.58,-82.983"/>
<polygon fill="midnightblue" stroke="midnightblue" points="889.781,-80.2268 880.295,-75.5091 884.769,-85.113 889.781,-80.2268"/>
</g>
<!-- Node17 -->
<g id="node17" class="node"><title>Node17</title>
<polygon fill="white" stroke="#bfbfbf" points="910.5,-56.5 910.5,-75.5 949.5,-75.5 949.5,-56.5 910.5,-56.5"/>
<text text-anchor="middle" x="930" y="-63.5" font-family="Helvetica,sans-Serif" font-size="10.00">limits</text>
</g>
<!-- Node16&#45;&gt;Node17 -->
<g id="edge27" class="edge"><title>Node16&#45;&gt;Node17</title>
<path fill="none" stroke="midnightblue" d="M930,-117.975C930,-109.58 930,-96.4806 930,-85.6631"/>
<polygon fill="midnightblue" stroke="midnightblue" points="933.5,-85.5091 930,-75.5091 926.5,-85.5091 933.5,-85.5091"/>
</g>
<!-- Node18 -->
<g id="node18" class="node"><title>Node18</title>
<polygon fill="white" stroke="#bfbfbf" points="968,-56.5 968,-75.5 1020,-75.5 1020,-56.5 968,-56.5"/>
<text text-anchor="middle" x="994" y="-63.5" font-family="Helvetica,sans-Serif" font-size="10.00">sstream</text>
</g>
<!-- Node16&#45;&gt;Node18 -->
<g id="edge28" class="edge"><title>Node16&#45;&gt;Node18</title>
<path fill="none" stroke="midnightblue" d="M939.17,-117.975C949.15,-108.697 965.312,-93.6706 977.509,-82.331"/>
<polygon fill="midnightblue" stroke="midnightblue" points="979.907,-84.8814 984.847,-75.5091 975.14,-79.7547 979.907,-84.8814"/>
</g>
<!-- Node19&#45;&gt;Node2 -->
<g id="edge32" class="edge"><title>Node19&#45;&gt;Node2</title>
<path fill="none" stroke="midnightblue" d="M503.295,-117.975C441.572,-106.463 332.411,-86.1017 272.424,-74.913"/>
<polygon fill="midnightblue" stroke="midnightblue" points="272.998,-71.4597 262.526,-73.0667 271.714,-78.3411 272.998,-71.4597"/>
</g>
<!-- Node19&#45;&gt;Node6 -->
<g id="edge30" class="edge"><title>Node19&#45;&gt;Node6</title>
<path fill="none" stroke="midnightblue" d="M595.278,-117.975C662.14,-105.658 783.979,-83.2144 841.009,-72.709"/>
<polygon fill="midnightblue" stroke="midnightblue" points="841.995,-76.0862 851.195,-70.8324 840.727,-69.202 841.995,-76.0862"/>
</g>
<!-- Node19&#45;&gt;Node9 -->
<g id="edge31" class="edge"><title>Node19&#45;&gt;Node9</title>
<path fill="none" stroke="midnightblue" d="M555.591,-117.975C562.491,-109.05 573.502,-94.8071 582.134,-83.6425"/>
<polygon fill="midnightblue" stroke="midnightblue" points="585.074,-85.5612 588.422,-75.5091 579.536,-81.2798 585.074,-85.5612"/>
</g>
<!-- Node20&#45;&gt;Node2 -->
<g id="edge34" class="edge"><title>Node20&#45;&gt;Node2</title>
<path fill="none" stroke="midnightblue" d="M669.44,-118.849C653.943,-116.542 636.773,-114.074 621,-112 494.602,-95.38 344.76,-79.0834 272.784,-71.4667"/>
<polygon fill="midnightblue" stroke="midnightblue" points="273.054,-67.9758 262.742,-70.4068 272.319,-74.9371 273.054,-67.9758"/>
</g>
<!-- Node20&#45;&gt;Node6 -->
<g id="edge35" class="edge"><title>Node20&#45;&gt;Node6</title>
<path fill="none" stroke="midnightblue" d="M740.921,-117.975C767.349,-107.697 811.911,-90.3679 841.637,-78.8078"/>
<polygon fill="midnightblue" stroke="midnightblue" points="843.05,-82.0136 851.102,-75.1271 840.513,-75.4896 843.05,-82.0136"/>
</g>
<!-- Node21&#45;&gt;Node2 -->
<g id="edge41" class="edge"><title>Node21&#45;&gt;Node2</title>
<path fill="none" stroke="midnightblue" d="M324.745,-256.895C257.223,-248.985 141.592,-223.715 95,-143 88.1122,-131.067 86.944,-123.177 95,-112 115.83,-83.0996 156.027,-72.4794 187.164,-68.7154"/>
<polygon fill="midnightblue" stroke="midnightblue" points="187.739,-72.1752 197.335,-67.6852 187.033,-65.2108 187.739,-72.1752"/>
</g>
<!-- Node21&#45;&gt;Node6 -->
<g id="edge43" class="edge"><title>Node21&#45;&gt;Node6</title>
<path fill="none" stroke="midnightblue" d="M427.118,-252.778C573.886,-230.372 987.304,-165.505 1006,-143 1014.8,-132.402 1014.04,-123.186 1006,-112 1002.85,-107.622 940.842,-88.0374 902.293,-76.195"/>
<polygon fill="midnightblue" stroke="midnightblue" points="903.166,-72.802 892.58,-73.2221 901.117,-79.4955 903.166,-72.802"/>
</g>
<!-- Node21&#45;&gt;Node11 -->
<g id="edge40" class="edge"><title>Node21&#45;&gt;Node11</title>
<path fill="none" stroke="midnightblue" d="M372.04,-246.374C365.32,-222.397 351.683,-173.748 344.201,-147.056"/>
<polygon fill="midnightblue" stroke="midnightblue" points="347.479,-145.781 341.41,-137.097 340.739,-147.671 347.479,-145.781"/>
</g>
<!-- Node21&#45;&gt;Node15 -->
<g id="edge42" class="edge"><title>Node21&#45;&gt;Node15</title>
<path fill="none" stroke="midnightblue" d="M413.538,-246.396C444.296,-234.84 487.369,-218.656 516.628,-207.663"/>
<polygon fill="midnightblue" stroke="midnightblue" points="518.228,-210.801 526.358,-204.007 515.766,-204.248 518.228,-210.801"/>
</g>
</g>
</svg>
        <g id="navigator" transform="translate(0 0)" fill="#404254">
                <rect fill="#f2f5e9" fill-opacity="0.5" stroke="#606060" stroke-width=".5" x="0" y="0" width="60" height="60"/>
                <use id="zoomplus" xlink:href="#zoomPlus" x="17" y="9" onmousedown="handleZoom(evt,'in')"/>
                <use id="zoomminus" xlink:href="#zoomMin" x="42" y="9" onmousedown="handleZoom(evt,'out')"/>
                <use id="reset" xlink:href="#resetDef" x="30" y="36" onmousedown="handleReset()"/>
                <g id="arrowUp" xlink:href="#dirArrow" transform="translate(30 24)" onmousedown="handlePan(0,-1)">
                  <use xlink:href="#rim" fill="#404040">
                        <set attributeName="fill" to="#808080" begin="arrowUp.mouseover" end="arrowUp.mouseout"/>
                  </use>
                  <path fill="none" stroke="white" stroke-width="1.5" d="M0,-3.0v7 M-2.5,-0.5L0,-3.0L2.5,-0.5"/>
                </g>
                <g id="arrowRight" xlink:href="#dirArrow" transform="rotate(90) translate(36 -43)" onmousedown="handlePan(1,0)">
                  <use xlink:href="#rim" fill="#404040">
                        <set attributeName="fill" to="#808080" begin="arrowRight.mouseover" end="arrowRight.mouseout"/>
                  </use>
                  <path fill="none" stroke="white" stroke-width="1.5" d="M0,-3.0v7 M-2.5,-0.5L0,-3.0L2.5,-0.5"/>
                </g>
                <g id="arrowDown" xlink:href="#dirArrow" transform="rotate(180) translate(-30 -48)" onmousedown="handlePan(0,1)">
                  <use xlink:href="#rim" fill="#404040">
                        <set attributeName="fill" to="#808080" begin="arrowDown.mouseover" end="arrowDown.mouseout"/>
                  </use>
                  <path fill="none" stroke="white" stroke-width="1.5" d="M0,-3.0v7 M-2.5,-0.5L0,-3.0L2.5,-0.5"/>
                </g>
                <g id="arrowLeft" xlink:href="#dirArrow" transform="rotate(270) translate(-36 17)" onmousedown="handlePan(-1,0)">
                  <use xlink:href="#rim" fill="#404040">
                        <set attributeName="fill" to="#808080" begin="arrowLeft.mouseover" end="arrowLeft.mouseout"/>
                  </use>
                  <path fill="none" stroke="white" stroke-width="1.5" d="M0,-3.0v7 M-2.5,-0.5L0,-3.0L2.5,-0.5"/>
                </g>
        </g>
        <svg viewBox="0 0 15 15" width="100%" height="30px" preserveAspectRatio="xMaxYMin meet">
         <g id="arrow_out" transform="scale(0.3 0.3)">
          <a xlink:href="_interpreter_8h__incl_org.svg" target="_base">
           <rect id="button" ry="5" rx="5" y="6" x="6" height="38" width="38"
                fill="#f2f5e9" fill-opacity="0.5" stroke="#606060" stroke-width="1.0"/>
           <path id="arrow"
             d="M 11.500037,31.436501 C 11.940474,20.09759 22.043105,11.32322 32.158766,21.979434 L 37.068811,17.246167 C 37.068811,17.246167 37.088388,32 37.088388,32 L 22.160133,31.978069 C 22.160133,31.978069 26.997745,27.140456 26.997745,27.140456 C 18.528582,18.264221 13.291696,25.230495 11.500037,31.436501 z"
             style="fill:#404040;"/>
          </a>
         </g>
        </svg>
</svg>
