<?xml version="1.0" encoding="UTF-8" standalone="no"?>
<!DOCTYPE svg PUBLIC "-//W3C//DTD SVG 1.1//EN"
 "http://www.w3.org/Graphics/SVG/1.1/DTD/svg11.dtd">
<!-- Generated by graphviz version 2.38.0 (20140413.2041)
 -->
<!-- Title: debug/InterpreterIssue.h Pages: 1 -->
<svg width="1381pt" height="419pt"
 viewBox="0.00 0.00 1380.50 419.00" xmlns="http://www.w3.org/2000/svg" xmlns:xlink="http://www.w3.org/1999/xlink">
<g id="graph0" class="graph" transform="scale(1 1) rotate(0) translate(4 415)">
<title>debug/InterpreterIssue.h</title>
<polygon fill="white" stroke="none" points="-4,4 -4,-415 1376.5,-415 1376.5,4 -4,4"/>
<!-- Node1 -->
<g id="node1" class="node"><title>Node1</title>
<polygon fill="#bfbfbf" stroke="black" points="209.5,-391.5 209.5,-410.5 334.5,-410.5 334.5,-391.5 209.5,-391.5"/>
<text text-anchor="middle" x="272" y="-398.5" font-family="Helvetica,sans-Serif" font-size="10.00">debug/InterpreterIssue.h</text>
</g>
<!-- Node2 -->
<g id="node2" class="node"><title>Node2</title>
<g id="a_node2"><a xlink:href="_interpreter_issue_8cpp.html" target="_top" xlink:title="debug/InterpreterIssue.cpp">
<polygon fill="white" stroke="black" points="0,-140 0,-159 136,-159 136,-140 0,-140"/>
<text text-anchor="middle" x="68" y="-147" font-family="Helvetica,sans-Serif" font-size="10.00">debug/InterpreterIssue.cpp</text>
</a>
</g>
</g>
<!-- Node1&#45;&gt;Node2 -->
<g id="edge1" class="edge"><title>Node1&#45;&gt;Node2</title>
<path fill="none" stroke="midnightblue" d="M258.512,-383.503C219.005,-335.185 104.484,-195.122 74.9926,-159.052"/>
<polygon fill="midnightblue" stroke="midnightblue" points="255.938,-385.885 264.978,-391.412 261.358,-381.455 255.938,-385.885"/>
</g>
<!-- Node3 -->
<g id="node3" class="node"><title>Node3</title>
<g id="a_node3"><a xlink:href="_interpreter_monitor_8h.html" target="_top" xlink:title="interpreter/InterpreterMonitor.h">
<polygon fill="white" stroke="black" points="310.5,-335.5 310.5,-354.5 463.5,-354.5 463.5,-335.5 310.5,-335.5"/>
<text text-anchor="middle" x="387" y="-342.5" font-family="Helvetica,sans-Serif" font-size="10.00">interpreter/InterpreterMonitor.h</text>
</a>
</g>
</g>
<!-- Node1&#45;&gt;Node3 -->
<g id="edge2" class="edge"><title>Node1&#45;&gt;Node3</title>
<path fill="none" stroke="midnightblue" d="M299.481,-387.096C320.966,-377.007 350.222,-363.27 368.863,-354.516"/>
<polygon fill="midnightblue" stroke="midnightblue" points="297.786,-384.025 290.222,-391.444 300.762,-390.361 297.786,-384.025"/>
</g>
<!-- Node4 -->
<g id="node4" class="node"><title>Node4</title>
<g id="a_node4"><a xlink:href="_content_executor_impl_8h.html" target="_top" xlink:title="interpreter/ContentExecutor\lImpl.h">
<polygon fill="white" stroke="black" points="317.5,-268.5 317.5,-298.5 456.5,-298.5 456.5,-268.5 317.5,-268.5"/>
<text text-anchor="start" x="325.5" y="-286.5" font-family="Helvetica,sans-Serif" font-size="10.00">interpreter/ContentExecutor</text>
<text text-anchor="middle" x="387" y="-275.5" font-family="Helvetica,sans-Serif" font-size="10.00">Impl.h</text>
</a>
</g>
</g>
<!-- Node3&#45;&gt;Node4 -->
<g id="edge3" class="edge"><title>Node3&#45;&gt;Node4</title>
<path fill="none" stroke="midnightblue" d="M387,-325.235C387,-316.586 387,-306.497 387,-298.523"/>
<polygon fill="midnightblue" stroke="midnightblue" points="383.5,-325.475 387,-335.475 390.5,-325.475 383.5,-325.475"/>
</g>
<!-- Node27 -->
<g id="node27" class="node"><title>Node27</title>
<g id="a_node27"><a xlink:href="_fast_micro_step_8cpp.html" target="_top" xlink:title="interpreter/FastMicroStep.cpp">
<polygon fill="white" stroke="black" points="475,-274 475,-293 623,-293 623,-274 475,-274"/>
<text text-anchor="middle" x="549" y="-281" font-family="Helvetica,sans-Serif" font-size="10.00">interpreter/FastMicroStep.cpp</text>
</a>
</g>
</g>
<!-- Node3&#45;&gt;Node27 -->
<g id="edge35" class="edge"><title>Node3&#45;&gt;Node27</title>
<path fill="none" stroke="midnightblue" d="M419.855,-331.933C451.342,-320.368 498.063,-303.208 525.832,-293.009"/>
<polygon fill="midnightblue" stroke="midnightblue" points="418.391,-328.742 410.211,-335.475 420.804,-335.313 418.391,-328.742"/>
</g>
<!-- Node5 -->
<g id="node5" class="node"><title>Node5</title>
<g id="a_node5"><a xlink:href="_basic_content_executor_8h.html" target="_top" xlink:title="interpreter/BasicContent\lExecutor.h">
<polygon fill="white" stroke="black" points="192,-201.5 192,-231.5 316,-231.5 316,-201.5 192,-201.5"/>
<text text-anchor="start" x="200" y="-219.5" font-family="Helvetica,sans-Serif" font-size="10.00">interpreter/BasicContent</text>
<text text-anchor="middle" x="254" y="-208.5" font-family="Helvetica,sans-Serif" font-size="10.00">Executor.h</text>
</a>
</g>
</g>
<!-- Node4&#45;&gt;Node5 -->
<g id="edge4" class="edge"><title>Node4&#45;&gt;Node5</title>
<path fill="none" stroke="midnightblue" d="M349.13,-263.992C328.049,-253.689 302.223,-241.068 282.803,-231.577"/>
<polygon fill="midnightblue" stroke="midnightblue" points="347.62,-267.15 358.141,-268.396 350.693,-260.86 347.62,-267.15"/>
</g>
<!-- Node8 -->
<g id="node8" class="node"><title>Node8</title>
<g id="a_node8"><a xlink:href="_content_executor_8cpp.html" target="_top" xlink:title="interpreter/ContentExecutor.cpp">
<polygon fill="white" stroke="black" points="599,-207 599,-226 757,-226 757,-207 599,-207"/>
<text text-anchor="middle" x="678" y="-214" font-family="Helvetica,sans-Serif" font-size="10.00">interpreter/ContentExecutor.cpp</text>
</a>
</g>
</g>
<!-- Node4&#45;&gt;Node8 -->
<g id="edge7" class="edge"><title>Node4&#45;&gt;Node8</title>
<path fill="none" stroke="midnightblue" d="M459.848,-266.228C516.985,-253.466 594.23,-236.212 639.818,-226.029"/>
<polygon fill="midnightblue" stroke="midnightblue" points="458.781,-262.88 449.784,-268.476 460.307,-269.712 458.781,-262.88"/>
</g>
<!-- Node9 -->
<g id="node9" class="node"><title>Node9</title>
<g id="a_node9"><a xlink:href="_interpreter_impl_8h.html" target="_top" xlink:title="interpreter/InterpreterImpl.h">
<polygon fill="white" stroke="black" points="443,-207 443,-226 581,-226 581,-207 443,-207"/>
<text text-anchor="middle" x="512" y="-214" font-family="Helvetica,sans-Serif" font-size="10.00">interpreter/InterpreterImpl.h</text>
</a>
</g>
</g>
<!-- Node4&#45;&gt;Node9 -->
<g id="edge8" class="edge"><title>Node4&#45;&gt;Node9</title>
<path fill="none" stroke="midnightblue" d="M423.273,-263.638C447.187,-251.203 477.358,-235.514 495.64,-226.007"/>
<polygon fill="midnightblue" stroke="midnightblue" points="421.381,-260.677 414.123,-268.396 424.61,-266.888 421.381,-260.677"/>
</g>
<!-- Node6 -->
<g id="node6" class="node"><title>Node6</title>
<g id="a_node6"><a xlink:href="_basic_content_executor_8cpp.html" target="_top" xlink:title="interpreter/BasicContent\lExecutor.cpp">
<polygon fill="white" stroke="black" points="192,-134.5 192,-164.5 316,-164.5 316,-134.5 192,-134.5"/>
<text text-anchor="start" x="200" y="-152.5" font-family="Helvetica,sans-Serif" font-size="10.00">interpreter/BasicContent</text>
<text text-anchor="middle" x="254" y="-141.5" font-family="Helvetica,sans-Serif" font-size="10.00">Executor.cpp</text>
</a>
</g>
</g>
<!-- Node5&#45;&gt;Node6 -->
<g id="edge5" class="edge"><title>Node5&#45;&gt;Node6</title>
<path fill="none" stroke="midnightblue" d="M254,-191.108C254,-182.154 254,-172.323 254,-164.577"/>
<polygon fill="midnightblue" stroke="midnightblue" points="250.5,-191.396 254,-201.396 257.5,-191.396 250.5,-191.396"/>
</g>
<!-- Node7 -->
<g id="node7" class="node"><title>Node7</title>
<g id="a_node7"><a xlink:href="_interpreter_impl_8cpp.html" target="_top" xlink:title="interpreter/InterpreterImpl.cpp">
<polygon fill="white" stroke="black" points="83.5,-73 83.5,-92 232.5,-92 232.5,-73 83.5,-73"/>
<text text-anchor="middle" x="158" y="-80" font-family="Helvetica,sans-Serif" font-size="10.00">interpreter/InterpreterImpl.cpp</text>
</a>
</g>
</g>
<!-- Node5&#45;&gt;Node7 -->
<g id="edge6" class="edge"><title>Node5&#45;&gt;Node7</title>
<path fill="none" stroke="midnightblue" d="M217.114,-195.904C204.771,-187.777 191.903,-177.338 183,-165 166.458,-142.077 160.684,-107.992 158.817,-92.161"/>
<polygon fill="midnightblue" stroke="midnightblue" points="215.606,-199.088 225.944,-201.407 219.309,-193.148 215.606,-199.088"/>
</g>
<!-- Node9&#45;&gt;Node2 -->
<g id="edge9" class="edge"><title>Node9&#45;&gt;Node2</title>
<path fill="none" stroke="midnightblue" d="M443.467,-205.467C356.511,-192.737 208.04,-171.001 126.278,-159.032"/>
<polygon fill="midnightblue" stroke="midnightblue" points="443.097,-208.95 453.498,-206.936 444.111,-202.024 443.097,-208.95"/>
</g>
<!-- Node9&#45;&gt;Node7 -->
<g id="edge10" class="edge"><title>Node9&#45;&gt;Node7</title>
<path fill="none" stroke="midnightblue" d="M465.371,-204.327C435.059,-195.965 395.312,-182.885 363,-165 343.93,-154.445 344.242,-144.238 325,-134 286.093,-113.299 237.466,-99.8159 202.736,-92.0333"/>
<polygon fill="midnightblue" stroke="midnightblue" points="464.7,-207.771 475.265,-206.982 466.514,-201.01 464.7,-207.771"/>
</g>
<!-- Node10 -->
<g id="node10" class="node"><title>Node10</title>
<g id="a_node10"><a xlink:href="_interpreter_8cpp.html" target="_top" xlink:title="Interpreter.cpp">
<polygon fill="white" stroke="black" points="1044,-140 1044,-159 1126,-159 1126,-140 1044,-140"/>
<text text-anchor="middle" x="1085" y="-147" font-family="Helvetica,sans-Serif" font-size="10.00">Interpreter.cpp</text>
</a>
</g>
</g>
<!-- Node9&#45;&gt;Node10 -->
<g id="edge11" class="edge"><title>Node9&#45;&gt;Node10</title>
<path fill="none" stroke="midnightblue" d="M563.684,-205.126C572.443,-203.588 581.463,-202.14 590,-201 784.484,-175.036 836.61,-198.138 1030,-165 1038.66,-163.516 1047.95,-161.311 1056.38,-159.066"/>
<polygon fill="midnightblue" stroke="midnightblue" points="562.784,-201.732 553.568,-206.959 564.032,-208.62 562.784,-201.732"/>
</g>
<!-- Node11 -->
<g id="node11" class="node"><title>Node11</title>
<g id="a_node11"><a xlink:href="_u_s_c_x_m_l_invoker_8h.html" target="_top" xlink:title="plugins/invoker/scxml\l/USCXMLInvoker.h">
<polygon fill="white" stroke="black" points="372,-67.5 372,-97.5 484,-97.5 484,-67.5 372,-67.5"/>
<text text-anchor="start" x="380" y="-85.5" font-family="Helvetica,sans-Serif" font-size="10.00">plugins/invoker/scxml</text>
<text text-anchor="middle" x="428" y="-74.5" font-family="Helvetica,sans-Serif" font-size="10.00">/USCXMLInvoker.h</text>
</a>
</g>
</g>
<!-- Node9&#45;&gt;Node11 -->
<g id="edge12" class="edge"><title>Node9&#45;&gt;Node11</title>
<path fill="none" stroke="midnightblue" d="M510.882,-196.885C509.075,-179.424 504.351,-153.197 492,-134 482.274,-118.883 466.447,-106.337 452.966,-97.5306"/>
<polygon fill="midnightblue" stroke="midnightblue" points="507.4,-197.248 511.699,-206.932 514.377,-196.681 507.4,-197.248"/>
</g>
<!-- Node14 -->
<g id="node14" class="node"><title>Node14</title>
<g id="a_node14"><a xlink:href="_invoker_impl_8h.html" target="_top" xlink:title="plugins/InvokerImpl.h">
<polygon fill="white" stroke="black" points="372.5,-140 372.5,-159 483.5,-159 483.5,-140 372.5,-140"/>
<text text-anchor="middle" x="428" y="-147" font-family="Helvetica,sans-Serif" font-size="10.00">plugins/InvokerImpl.h</text>
</a>
</g>
</g>
<!-- Node9&#45;&gt;Node14 -->
<g id="edge15" class="edge"><title>Node9&#45;&gt;Node14</title>
<path fill="none" stroke="midnightblue" d="M492.703,-200.568C476.122,-187.738 452.793,-169.685 439.149,-159.127"/>
<polygon fill="midnightblue" stroke="midnightblue" points="490.621,-203.382 500.671,-206.734 494.905,-197.846 490.621,-203.382"/>
</g>
<!-- Node16 -->
<g id="node16" class="node"><title>Node16</title>
<g id="a_node16"><a xlink:href="_basic_h_t_t_p_i_o_processor_8h.html" target="_top" xlink:title="plugins/ioprocessor\l/basichttp/BasicHTTPIOProcessor.h">
<polygon fill="white" stroke="black" points="502.5,-67.5 502.5,-97.5 679.5,-97.5 679.5,-67.5 502.5,-67.5"/>
<text text-anchor="start" x="510.5" y="-85.5" font-family="Helvetica,sans-Serif" font-size="10.00">plugins/ioprocessor</text>
<text text-anchor="middle" x="591" y="-74.5" font-family="Helvetica,sans-Serif" font-size="10.00">/basichttp/BasicHTTPIOProcessor.h</text>
</a>
</g>
</g>
<!-- Node9&#45;&gt;Node16 -->
<g id="edge19" class="edge"><title>Node9&#45;&gt;Node16</title>
<path fill="none" stroke="midnightblue" d="M522.505,-197.948C538.306,-171.546 567.887,-122.119 582.452,-97.7832"/>
<polygon fill="midnightblue" stroke="midnightblue" points="519.316,-196.461 517.183,-206.839 525.322,-200.056 519.316,-196.461"/>
</g>
<!-- Node18 -->
<g id="node18" class="node"><title>Node18</title>
<g id="a_node18"><a xlink:href="_s_c_x_m_l_i_o_processor_8cpp.html" target="_top" xlink:title="plugins/ioprocessor\l/scxml/SCXMLIOProcessor.cpp">
<polygon fill="white" stroke="black" points="827.5,-0.5 827.5,-30.5 984.5,-30.5 984.5,-0.5 827.5,-0.5"/>
<text text-anchor="start" x="835.5" y="-18.5" font-family="Helvetica,sans-Serif" font-size="10.00">plugins/ioprocessor</text>
<text text-anchor="middle" x="906" y="-7.5" font-family="Helvetica,sans-Serif" font-size="10.00">/scxml/SCXMLIOProcessor.cpp</text>
</a>
</g>
</g>
<!-- Node9&#45;&gt;Node18 -->
<g id="edge22" class="edge"><title>Node9&#45;&gt;Node18</title>
<path fill="none" stroke="midnightblue" d="M567.282,-205.153C574.912,-203.745 582.649,-202.329 590,-201 773.192,-167.888 887.15,-249.021 996,-98 1004.06,-86.8229 1002.96,-78.8894 996,-67 986.132,-50.1474 968.351,-38.4908 951.185,-30.6605"/>
<polygon fill="midnightblue" stroke="midnightblue" points="566.552,-201.728 557.356,-206.99 567.826,-208.611 566.552,-201.728"/>
</g>
<!-- Node19 -->
<g id="node19" class="node"><title>Node19</title>
<g id="a_node19"><a xlink:href="_i_o_processor_impl_8h.html" target="_top" xlink:title="plugins/IOProcessorImpl.h">
<polygon fill="white" stroke="black" points="652,-140 652,-159 786,-159 786,-140 652,-140"/>
<text text-anchor="middle" x="719" y="-147" font-family="Helvetica,sans-Serif" font-size="10.00">plugins/IOProcessorImpl.h</text>
</a>
</g>
</g>
<!-- Node9&#45;&gt;Node19 -->
<g id="edge23" class="edge"><title>Node9&#45;&gt;Node19</title>
<path fill="none" stroke="midnightblue" d="M549.11,-203.847C590.111,-190.973 655.162,-170.546 691.728,-159.064"/>
<polygon fill="midnightblue" stroke="midnightblue" points="547.98,-200.533 539.488,-206.869 550.077,-207.212 547.98,-200.533"/>
</g>
<!-- Node22 -->
<g id="node22" class="node"><title>Node22</title>
<g id="a_node22"><a xlink:href="_transformer_8h.html" target="_top" xlink:title="transform/Transformer.h">
<polygon fill="white" stroke="black" points="1146,-140 1146,-159 1270,-159 1270,-140 1146,-140"/>
<text text-anchor="middle" x="1208" y="-147" font-family="Helvetica,sans-Serif" font-size="10.00">transform/Transformer.h</text>
</a>
</g>
</g>
<!-- Node9&#45;&gt;Node22 -->
<g id="edge29" class="edge"><title>Node9&#45;&gt;Node22</title>
<path fill="none" stroke="midnightblue" d="M562.774,-205.167C571.813,-203.583 581.163,-202.109 590,-201 830.86,-170.764 894.33,-196.714 1135,-165 1146.4,-163.498 1158.7,-161.287 1169.89,-159.043"/>
<polygon fill="midnightblue" stroke="midnightblue" points="561.958,-201.758 552.745,-206.988 563.209,-208.645 561.958,-201.758"/>
</g>
<!-- Node12 -->
<g id="node12" class="node"><title>Node12</title>
<g id="a_node12"><a xlink:href="_factory_8cpp.html" target="_top" xlink:title="plugins/Factory.cpp">
<polygon fill="white" stroke="black" points="501.5,-6 501.5,-25 604.5,-25 604.5,-6 501.5,-6"/>
<text text-anchor="middle" x="553" y="-13" font-family="Helvetica,sans-Serif" font-size="10.00">plugins/Factory.cpp</text>
</a>
</g>
</g>
<!-- Node11&#45;&gt;Node12 -->
<g id="edge13" class="edge"><title>Node11&#45;&gt;Node12</title>
<path fill="none" stroke="midnightblue" d="M464.273,-62.638C488.187,-50.2028 518.358,-34.5137 536.64,-25.007"/>
<polygon fill="midnightblue" stroke="midnightblue" points="462.381,-59.6771 455.123,-67.396 465.61,-65.8877 462.381,-59.6771"/>
</g>
<!-- Node13 -->
<g id="node13" class="node"><title>Node13</title>
<g id="a_node13"><a xlink:href="_u_s_c_x_m_l_invoker_8cpp.html" target="_top" xlink:title="plugins/invoker/scxml\l/USCXMLInvoker.cpp">
<polygon fill="white" stroke="black" points="370.5,-0.5 370.5,-30.5 483.5,-30.5 483.5,-0.5 370.5,-0.5"/>
<text text-anchor="start" x="378.5" y="-18.5" font-family="Helvetica,sans-Serif" font-size="10.00">plugins/invoker/scxml</text>
<text text-anchor="middle" x="427" y="-7.5" font-family="Helvetica,sans-Serif" font-size="10.00">/USCXMLInvoker.cpp</text>
</a>
</g>
</g>
<!-- Node11&#45;&gt;Node13 -->
<g id="edge14" class="edge"><title>Node11&#45;&gt;Node13</title>
<path fill="none" stroke="midnightblue" d="M427.625,-57.1081C427.487,-48.1539 427.336,-38.3227 427.217,-30.5765"/>
<polygon fill="midnightblue" stroke="midnightblue" points="424.13,-57.451 427.783,-67.396 431.129,-57.3433 424.13,-57.451"/>
</g>
<!-- Node14&#45;&gt;Node7 -->
<g id="edge16" class="edge"><title>Node14&#45;&gt;Node7</title>
<path fill="none" stroke="midnightblue" d="M382.574,-137.564C329.346,-124.75 242.26,-103.785 193.654,-92.0834"/>
<polygon fill="midnightblue" stroke="midnightblue" points="381.883,-140.998 392.425,-139.936 383.522,-134.192 381.883,-140.998"/>
</g>
<!-- Node14&#45;&gt;Node11 -->
<g id="edge17" class="edge"><title>Node14&#45;&gt;Node11</title>
<path fill="none" stroke="midnightblue" d="M428,-129.411C428,-119.222 428,-106.901 428,-97.589"/>
<polygon fill="midnightblue" stroke="midnightblue" points="424.5,-129.734 428,-139.734 431.5,-129.734 424.5,-129.734"/>
</g>
<!-- Node15 -->
<g id="node15" class="node"><title>Node15</title>
<g id="a_node15"><a xlink:href="_invoker_8cpp.html" target="_top" xlink:title="plugins/Invoker.cpp">
<polygon fill="white" stroke="black" points="250.5,-73 250.5,-92 353.5,-92 353.5,-73 250.5,-73"/>
<text text-anchor="middle" x="302" y="-80" font-family="Helvetica,sans-Serif" font-size="10.00">plugins/Invoker.cpp</text>
</a>
</g>
</g>
<!-- Node14&#45;&gt;Node15 -->
<g id="edge18" class="edge"><title>Node14&#45;&gt;Node15</title>
<path fill="none" stroke="midnightblue" d="M402.362,-135.274C377.406,-122.4 340.204,-103.209 318.801,-92.1672"/>
<polygon fill="midnightblue" stroke="midnightblue" points="400.776,-138.394 411.268,-139.869 403.986,-132.173 400.776,-138.394"/>
</g>
<!-- Node16&#45;&gt;Node12 -->
<g id="edge20" class="edge"><title>Node16&#45;&gt;Node12</title>
<path fill="none" stroke="midnightblue" d="M577.631,-58.6315C570.87,-47.0671 563.064,-33.7142 558.083,-25.1945"/>
<polygon fill="midnightblue" stroke="midnightblue" points="574.686,-60.5294 582.755,-67.396 580.729,-56.9965 574.686,-60.5294"/>
</g>
<!-- Node17 -->
<g id="node17" class="node"><title>Node17</title>
<g id="a_node17"><a xlink:href="_basic_h_t_t_p_i_o_processor_8cpp.html" target="_top" xlink:title="plugins/ioprocessor\l/basichttp/BasicHTTPIOProcessor.cpp">
<polygon fill="white" stroke="black" points="622.5,-0.5 622.5,-30.5 809.5,-30.5 809.5,-0.5 622.5,-0.5"/>
<text text-anchor="start" x="630.5" y="-18.5" font-family="Helvetica,sans-Serif" font-size="10.00">plugins/ioprocessor</text>
<text text-anchor="middle" x="716" y="-7.5" font-family="Helvetica,sans-Serif" font-size="10.00">/basichttp/BasicHTTPIOProcessor.cpp</text>
</a>
</g>
</g>
<!-- Node16&#45;&gt;Node17 -->
<g id="edge21" class="edge"><title>Node16&#45;&gt;Node17</title>
<path fill="none" stroke="midnightblue" d="M627.126,-62.7143C646.84,-52.4631 670.841,-39.9826 688.93,-30.5765"/>
<polygon fill="midnightblue" stroke="midnightblue" points="625.381,-59.6771 618.123,-67.396 628.61,-65.8877 625.381,-59.6771"/>
</g>
<!-- Node19&#45;&gt;Node16 -->
<g id="edge24" class="edge"><title>Node19&#45;&gt;Node16</title>
<path fill="none" stroke="midnightblue" d="M692.798,-135.194C671.267,-124.261 640.842,-108.81 618.868,-97.6516"/>
<polygon fill="midnightblue" stroke="midnightblue" points="691.502,-138.461 702.003,-139.869 694.671,-132.22 691.502,-138.461"/>
</g>
<!-- Node20 -->
<g id="node20" class="node"><title>Node20</title>
<g id="a_node20"><a xlink:href="_s_c_x_m_l_i_o_processor_8h.html" target="_top" xlink:title="plugins/ioprocessor\l/scxml/SCXMLIOProcessor.h">
<polygon fill="white" stroke="black" points="698,-67.5 698,-97.5 844,-97.5 844,-67.5 698,-67.5"/>
<text text-anchor="start" x="706" y="-85.5" font-family="Helvetica,sans-Serif" font-size="10.00">plugins/ioprocessor</text>
<text text-anchor="middle" x="771" y="-74.5" font-family="Helvetica,sans-Serif" font-size="10.00">/scxml/SCXMLIOProcessor.h</text>
</a>
</g>
</g>
<!-- Node19&#45;&gt;Node20 -->
<g id="edge25" class="edge"><title>Node19&#45;&gt;Node20</title>
<path fill="none" stroke="midnightblue" d="M732.462,-131.673C740.925,-121.094 751.719,-107.602 759.729,-97.589"/>
<polygon fill="midnightblue" stroke="midnightblue" points="729.527,-129.739 726.013,-139.734 734.993,-134.112 729.527,-129.739"/>
</g>
<!-- Node21 -->
<g id="node21" class="node"><title>Node21</title>
<g id="a_node21"><a xlink:href="_i_o_processor_8cpp.html" target="_top" xlink:title="plugins/IOProcessor.cpp">
<polygon fill="white" stroke="black" points="862.5,-73 862.5,-92 987.5,-92 987.5,-73 862.5,-73"/>
<text text-anchor="middle" x="925" y="-80" font-family="Helvetica,sans-Serif" font-size="10.00">plugins/IOProcessor.cpp</text>
</a>
</g>
</g>
<!-- Node19&#45;&gt;Node21 -->
<g id="edge28" class="edge"><title>Node19&#45;&gt;Node21</title>
<path fill="none" stroke="midnightblue" d="M755.931,-136.847C796.733,-123.973 861.471,-103.546 897.86,-92.0637"/>
<polygon fill="midnightblue" stroke="midnightblue" points="754.839,-133.522 746.355,-139.869 756.945,-140.197 754.839,-133.522"/>
</g>
<!-- Node20&#45;&gt;Node12 -->
<g id="edge26" class="edge"><title>Node20&#45;&gt;Node12</title>
<path fill="none" stroke="midnightblue" d="M714.288,-64.5904C671.713,-51.896 615.19,-35.0429 581.604,-25.0287"/>
<polygon fill="midnightblue" stroke="midnightblue" points="713.382,-67.9727 723.966,-67.476 715.383,-61.2645 713.382,-67.9727"/>
</g>
<!-- Node20&#45;&gt;Node18 -->
<g id="edge27" class="edge"><title>Node20&#45;&gt;Node18</title>
<path fill="none" stroke="midnightblue" d="M809.44,-62.9921C830.838,-52.6892 857.052,-40.0677 876.764,-30.5765"/>
<polygon fill="midnightblue" stroke="midnightblue" points="807.785,-59.9042 800.293,-67.396 810.821,-66.2113 807.785,-59.9042"/>
</g>
<!-- Node23 -->
<g id="node23" class="node"><title>Node23</title>
<g id="a_node23"><a xlink:href="_chart_to_c_8h.html" target="_top" xlink:title="transform/ChartToC.h">
<polygon fill="white" stroke="black" points="1067.5,-73 1067.5,-92 1180.5,-92 1180.5,-73 1067.5,-73"/>
<text text-anchor="middle" x="1124" y="-80" font-family="Helvetica,sans-Serif" font-size="10.00">transform/ChartToC.h</text>
</a>
</g>
</g>
<!-- Node22&#45;&gt;Node23 -->
<g id="edge30" class="edge"><title>Node22&#45;&gt;Node23</title>
<path fill="none" stroke="midnightblue" d="M1188.7,-133.568C1172.12,-120.738 1148.79,-102.685 1135.15,-92.1273"/>
<polygon fill="midnightblue" stroke="midnightblue" points="1186.62,-136.382 1196.67,-139.734 1190.9,-130.846 1186.62,-136.382"/>
</g>
<!-- Node25 -->
<g id="node25" class="node"><title>Node25</title>
<g id="a_node25"><a xlink:href="_chart_to_v_h_d_l_8h.html" target="_top" xlink:title="transform/ChartToVHDL.h">
<polygon fill="white" stroke="black" points="1145.5,-6 1145.5,-25 1278.5,-25 1278.5,-6 1145.5,-6"/>
<text text-anchor="middle" x="1212" y="-13" font-family="Helvetica,sans-Serif" font-size="10.00">transform/ChartToVHDL.h</text>
</a>
</g>
</g>
<!-- Node22&#45;&gt;Node25 -->
<g id="edge33" class="edge"><title>Node22&#45;&gt;Node25</title>
<path fill="none" stroke="midnightblue" d="M1208.57,-129.775C1209.45,-100.746 1211.1,-46.0381 1211.74,-25.0212"/>
<polygon fill="midnightblue" stroke="midnightblue" points="1205.07,-129.738 1208.26,-139.839 1212.06,-129.95 1205.07,-129.738"/>
</g>
<!-- Node26 -->
<g id="node26" class="node"><title>Node26</title>
<g id="a_node26"><a xlink:href="_transformer_8cpp.html" target="_top" xlink:title="transform/Transformer.cpp">
<polygon fill="white" stroke="black" points="1237.5,-73 1237.5,-92 1372.5,-92 1372.5,-73 1237.5,-73"/>
<text text-anchor="middle" x="1305" y="-80" font-family="Helvetica,sans-Serif" font-size="10.00">transform/Transformer.cpp</text>
</a>
</g>
</g>
<!-- Node22&#45;&gt;Node26 -->
<g id="edge34" class="edge"><title>Node22&#45;&gt;Node26</title>
<path fill="none" stroke="midnightblue" d="M1229.5,-134.095C1248.69,-121.236 1276.15,-102.831 1292.13,-92.1273"/>
<polygon fill="midnightblue" stroke="midnightblue" points="1227.44,-131.259 1221.08,-139.734 1231.34,-137.075 1227.44,-131.259"/>
</g>
<!-- Node24 -->
<g id="node24" class="node"><title>Node24</title>
<g id="a_node24"><a xlink:href="_chart_to_c_8cpp.html" target="_top" xlink:title="transform/ChartToC.cpp">
<polygon fill="white" stroke="black" points="1003,-6 1003,-25 1127,-25 1127,-6 1003,-6"/>
<text text-anchor="middle" x="1065" y="-13" font-family="Helvetica,sans-Serif" font-size="10.00">transform/ChartToC.cpp</text>
</a>
</g>
</g>
<!-- Node23&#45;&gt;Node24 -->
<g id="edge31" class="edge"><title>Node23&#45;&gt;Node24</title>
<path fill="none" stroke="midnightblue" d="M1109.15,-65.1348C1097.61,-52.4228 1082.06,-35.2978 1072.83,-25.1273"/>
<polygon fill="midnightblue" stroke="midnightblue" points="1106.73,-67.6816 1116.04,-72.7338 1111.91,-62.9769 1106.73,-67.6816"/>
</g>
<!-- Node23&#45;&gt;Node25 -->
<g id="edge32" class="edge"><title>Node23&#45;&gt;Node25</title>
<path fill="none" stroke="midnightblue" d="M1144.22,-66.5678C1161.59,-53.7376 1186.03,-35.6853 1200.32,-25.1273"/>
<polygon fill="midnightblue" stroke="midnightblue" points="1141.83,-63.9771 1135.87,-72.7338 1145.99,-69.6077 1141.83,-63.9771"/>
</g>
</g>
</svg>
