<?xml version="1.0" encoding="UTF-8" standalone="no"?>
<!DOCTYPE svg PUBLIC "-//W3C//DTD SVG 1.1//EN"
 "http://www.w3.org/Graphics/SVG/1.1/DTD/svg11.dtd">
<!-- Generated by graphviz version 2.38.0 (20140413.2041)
 -->
<!-- Title: plugins/Invoker.cpp Pages: 1 -->
<!--zoomable 420 -->
<svg id="main" version="1.1" xmlns="http://www.w3.org/2000/svg" xmlns:xlink="http://www.w3.org/1999/xlink" xml:space="preserve" onload="init(evt)">
<style type="text/css"><![CDATA[
.edge:hover path { stroke: red; }
.edge:hover polygon { stroke: red; fill: red; }
]]></style>
<script type="text/javascript"><![CDATA[
var edges = document.getElementsByTagName('g');
if (edges && edges.length) {
  for (var i=0;i<edges.length;i++) {
    if (edges[i].id.substr(0,4)=='edge') {
      edges[i].setAttribute('class','edge');
    }
  }
}
]]></script>
        <defs>
                <circle id="rim" cx="0" cy="0" r="7"/>
                <circle id="rim2" cx="0" cy="0" r="3.5"/>
                <g id="zoomPlus">
                        <use xlink:href="#rim" fill="#404040">
                                <set attributeName="fill" to="#808080" begin="zoomplus.mouseover" end="zoomplus.mouseout"/>
                        </use>
                        <path d="M-4,0h8M0,-4v8" fill="none" stroke="white" stroke-width="1.5" pointer-events="none"/>
                </g>
                <g id="zoomMin">
                        <use xlink:href="#rim" fill="#404040">
                                <set attributeName="fill" to="#808080" begin="zoomminus.mouseover" end="zoomminus.mouseout"/>
                        </use>
                        <path d="M-4,0h8" fill="none" stroke="white" stroke-width="1.5" pointer-events="none"/>
                </g>
                <g id="dirArrow">
                        <path fill="none" stroke="white" stroke-width="1.5" d="M0,-3.0v7 M-2.5,-0.5L0,-3.0L2.5,-0.5"/>
                </g>
               <g id="resetDef">
                       <use xlink:href="#rim2" fill="#404040">
                               <set attributeName="fill" to="#808080" begin="reset.mouseover" end="reset.mouseout"/>
                       </use>
               </g>
        </defs>

<script type="text/javascript">
var viewWidth = 867;
var viewHeight = 420;
var sectionId = 'dynsection-0';
</script>
<script xlink:href="svgpan.js"/>
<svg id="graph" class="graph">
<g id="viewport">
<title>plugins/Invoker.cpp</title>
<polygon fill="white" stroke="none" points="-4,4 -4,-416 862.5,-416 862.5,4 -4,4"/>
<!-- Node1 -->
<g id="node1" class="node"><title>Node1</title>
<polygon fill="#bfbfbf" stroke="black" points="178.5,-392.5 178.5,-411.5 281.5,-411.5 281.5,-392.5 178.5,-392.5"/>
<text text-anchor="middle" x="230" y="-399.5" font-family="Helvetica,sans-Serif" font-size="10.00">plugins/Invoker.cpp</text>
</g>
<!-- Node2 -->
<g id="node2" class="node"><title>Node2</title>
<g id="a_node2"><a xlink:href="_invoker_8h.html" target="_top" xlink:title="Invoker.h">
<polygon fill="white" stroke="black" points="244,-336.5 244,-355.5 302,-355.5 302,-336.5 244,-336.5"/>
<text text-anchor="middle" x="273" y="-343.5" font-family="Helvetica,sans-Serif" font-size="10.00">Invoker.h</text>
</a>
</g>
</g>
<!-- Node1&#45;&gt;Node2 -->
<g id="edge1" class="edge"><title>Node1&#45;&gt;Node2</title>
<path fill="none" stroke="midnightblue" d="M237.101,-392.083C243.237,-384.377 252.27,-373.033 259.739,-363.653"/>
<polygon fill="midnightblue" stroke="midnightblue" points="262.54,-365.754 266.032,-355.751 257.064,-361.394 262.54,-365.754"/>
</g>
<!-- Node20 -->
<g id="node20" class="node"><title>Node20</title>
<g id="a_node20"><a xlink:href="_invoker_impl_8h.html" target="_top" xlink:title="InvokerImpl.h">
<polygon fill="white" stroke="black" points="148.5,-336.5 148.5,-355.5 225.5,-355.5 225.5,-336.5 148.5,-336.5"/>
<text text-anchor="middle" x="187" y="-343.5" font-family="Helvetica,sans-Serif" font-size="10.00">InvokerImpl.h</text>
</a>
</g>
</g>
<!-- Node1&#45;&gt;Node20 -->
<g id="edge32" class="edge"><title>Node1&#45;&gt;Node20</title>
<path fill="none" stroke="midnightblue" d="M222.899,-392.083C216.763,-384.377 207.73,-373.033 200.261,-363.653"/>
<polygon fill="midnightblue" stroke="midnightblue" points="202.936,-361.394 193.968,-355.751 197.46,-365.754 202.936,-361.394"/>
</g>
<!-- Node3 -->
<g id="node3" class="node"><title>Node3</title>
<polygon fill="white" stroke="#bfbfbf" points="773.5,-112.5 773.5,-131.5 858.5,-131.5 858.5,-112.5 773.5,-112.5"/>
<text text-anchor="middle" x="816" y="-119.5" font-family="Helvetica,sans-Serif" font-size="10.00">uscxml/config.h</text>
</g>
<!-- Node2&#45;&gt;Node3 -->
<g id="edge2" class="edge"><title>Node2&#45;&gt;Node3</title>
<path fill="none" stroke="midnightblue" d="M302.344,-344.637C407.843,-343.045 763.537,-335.096 799,-300 841.569,-257.872 829.381,-177.944 820.981,-141.702"/>
<polygon fill="midnightblue" stroke="midnightblue" points="824.272,-140.433 818.462,-131.573 817.479,-142.123 824.272,-140.433"/>
</g>
<!-- Node4 -->
<g id="node4" class="node"><title>Node4</title>
<g id="a_node4"><a xlink:href="_common_8h.html" target="_top" xlink:title="uscxml/Common.h">
<polygon fill="white" stroke="black" points="144.5,-56.5 144.5,-75.5 243.5,-75.5 243.5,-56.5 144.5,-56.5"/>
<text text-anchor="middle" x="194" y="-63.5" font-family="Helvetica,sans-Serif" font-size="10.00">uscxml/Common.h</text>
</a>
</g>
</g>
<!-- Node2&#45;&gt;Node4 -->
<g id="edge3" class="edge"><title>Node2&#45;&gt;Node4</title>
<path fill="none" stroke="midnightblue" d="M243.712,-337.857C180.716,-321.638 38,-279.934 38,-235 38,-235 38,-235 38,-177 38,-146.902 36.0715,-133.63 57,-112 77.2212,-91.1006 107.299,-79.9024 134.124,-73.9045"/>
<polygon fill="midnightblue" stroke="midnightblue" points="135.117,-77.2743 144.219,-71.851 133.722,-70.4148 135.117,-77.2743"/>
</g>
<!-- Node7 -->
<g id="node7" class="node"><title>Node7</title>
<g id="a_node7"><a xlink:href="_event_handler_8h.html" target="_top" xlink:title="uscxml/plugins/EventHandler.h">
<polygon fill="white" stroke="black" points="196,-280.5 196,-299.5 350,-299.5 350,-280.5 196,-280.5"/>
<text text-anchor="middle" x="273" y="-287.5" font-family="Helvetica,sans-Serif" font-size="10.00">uscxml/plugins/EventHandler.h</text>
</a>
</g>
</g>
<!-- Node2&#45;&gt;Node7 -->
<g id="edge6" class="edge"><title>Node2&#45;&gt;Node7</title>
<path fill="none" stroke="midnightblue" d="M273,-336.083C273,-329.006 273,-318.861 273,-309.986"/>
<polygon fill="midnightblue" stroke="midnightblue" points="276.5,-309.751 273,-299.751 269.5,-309.751 276.5,-309.751"/>
</g>
<!-- Node8 -->
<g id="node8" class="node"><title>Node8</title>
<g id="a_node8"><a xlink:href="_event_8h.html" target="_top" xlink:title="uscxml/messages/Event.h">
<polygon fill="white" stroke="black" points="66.5,-224.5 66.5,-243.5 199.5,-243.5 199.5,-224.5 66.5,-224.5"/>
<text text-anchor="middle" x="133" y="-231.5" font-family="Helvetica,sans-Serif" font-size="10.00">uscxml/messages/Event.h</text>
</a>
</g>
</g>
<!-- Node2&#45;&gt;Node8 -->
<g id="edge30" class="edge"><title>Node2&#45;&gt;Node8</title>
<path fill="none" stroke="midnightblue" d="M251.087,-336.417C232.804,-328.609 206.657,-315.89 187,-300 169.779,-286.079 154.093,-265.978 144.119,-251.824"/>
<polygon fill="midnightblue" stroke="midnightblue" points="146.964,-249.784 138.43,-243.506 141.186,-253.736 146.964,-249.784"/>
</g>
<!-- Node19 -->
<g id="node19" class="node"><title>Node19</title>
<polygon fill="white" stroke="#bfbfbf" points="670.5,-280.5 670.5,-299.5 789.5,-299.5 789.5,-280.5 670.5,-280.5"/>
<text text-anchor="middle" x="730" y="-287.5" font-family="Helvetica,sans-Serif" font-size="10.00">xercesc/dom/DOM.hpp</text>
</g>
<!-- Node2&#45;&gt;Node19 -->
<g id="edge31" class="edge"><title>Node2&#45;&gt;Node19</title>
<path fill="none" stroke="midnightblue" d="M302.315,-341.597C366.451,-334.142 524.043,-315.776 656,-300 657.301,-299.844 658.615,-299.687 659.939,-299.528"/>
<polygon fill="midnightblue" stroke="midnightblue" points="660.718,-302.96 670.228,-298.291 659.882,-296.01 660.718,-302.96"/>
</g>
<!-- Node5 -->
<g id="node5" class="node"><title>Node5</title>
<polygon fill="white" stroke="#bfbfbf" points="120,-0.5 120,-19.5 192,-19.5 192,-0.5 120,-0.5"/>
<text text-anchor="middle" x="156" y="-7.5" font-family="Helvetica,sans-Serif" font-size="10.00">sys/socket.h</text>
</g>
<!-- Node4&#45;&gt;Node5 -->
<g id="edge4" class="edge"><title>Node4&#45;&gt;Node5</title>
<path fill="none" stroke="midnightblue" d="M187.725,-56.083C182.358,-48.4554 174.482,-37.2645 167.921,-27.9408"/>
<polygon fill="midnightblue" stroke="midnightblue" points="170.775,-25.9149 162.158,-19.7511 165.051,-29.9434 170.775,-25.9149"/>
</g>
<!-- Node6 -->
<g id="node6" class="node"><title>Node6</title>
<polygon fill="white" stroke="#bfbfbf" points="210,-0.5 210,-19.5 254,-19.5 254,-0.5 210,-0.5"/>
<text text-anchor="middle" x="232" y="-7.5" font-family="Helvetica,sans-Serif" font-size="10.00">cmath</text>
</g>
<!-- Node4&#45;&gt;Node6 -->
<g id="edge5" class="edge"><title>Node4&#45;&gt;Node6</title>
<path fill="none" stroke="midnightblue" d="M200.275,-56.083C205.642,-48.4554 213.518,-37.2645 220.079,-27.9408"/>
<polygon fill="midnightblue" stroke="midnightblue" points="222.949,-29.9434 225.842,-19.7511 217.225,-25.9149 222.949,-29.9434"/>
</g>
<!-- Node7&#45;&gt;Node4 -->
<g id="edge7" class="edge"><title>Node7&#45;&gt;Node4</title>
<path fill="none" stroke="midnightblue" d="M269.903,-280.297C258.23,-247.494 216.733,-130.884 200.54,-85.3774"/>
<polygon fill="midnightblue" stroke="midnightblue" points="203.811,-84.1316 197.161,-75.8837 197.217,-86.4784 203.811,-84.1316"/>
</g>
<!-- Node7&#45;&gt;Node8 -->
<g id="edge8" class="edge"><title>Node7&#45;&gt;Node8</title>
<path fill="none" stroke="midnightblue" d="M250.817,-280.444C227.572,-271.478 190.851,-257.314 164.585,-247.183"/>
<polygon fill="midnightblue" stroke="midnightblue" points="165.669,-243.85 155.08,-243.516 163.15,-250.381 165.669,-243.85"/>
</g>
<!-- Node10 -->
<g id="node10" class="node"><title>Node10</title>
<polygon fill="white" stroke="#bfbfbf" points="687.5,-112.5 687.5,-131.5 716.5,-131.5 716.5,-112.5 687.5,-112.5"/>
<text text-anchor="middle" x="702" y="-119.5" font-family="Helvetica,sans-Serif" font-size="10.00">list</text>
</g>
<!-- Node7&#45;&gt;Node10 -->
<g id="edge27" class="edge"><title>Node7&#45;&gt;Node10</title>
<path fill="none" stroke="midnightblue" d="M295.162,-280.425C368.247,-252.144 601.322,-161.957 677.589,-132.446"/>
<polygon fill="midnightblue" stroke="midnightblue" points="679.213,-135.57 687.277,-128.697 676.687,-129.042 679.213,-135.57"/>
</g>
<!-- Node12 -->
<g id="node12" class="node"><title>Node12</title>
<polygon fill="white" stroke="#bfbfbf" points="632.5,-56.5 632.5,-75.5 685.5,-75.5 685.5,-56.5 632.5,-56.5"/>
<text text-anchor="middle" x="659" y="-63.5" font-family="Helvetica,sans-Serif" font-size="10.00">memory</text>
</g>
<!-- Node7&#45;&gt;Node12 -->
<g id="edge29" class="edge"><title>Node7&#45;&gt;Node12</title>
<path fill="none" stroke="midnightblue" d="M350.39,-288.04C455.867,-282.017 641.21,-253.583 725,-132 739.018,-111.659 712.451,-92.3256 688.956,-80.1145"/>
<polygon fill="midnightblue" stroke="midnightblue" points="690.382,-76.9157 679.864,-75.6425 687.293,-83.197 690.382,-76.9157"/>
</g>
<!-- Node14 -->
<g id="node14" class="node"><title>Node14</title>
<polygon fill="white" stroke="#bfbfbf" points="328.5,-56.5 328.5,-75.5 369.5,-75.5 369.5,-56.5 328.5,-56.5"/>
<text text-anchor="middle" x="349" y="-63.5" font-family="Helvetica,sans-Serif" font-size="10.00">string</text>
</g>
<!-- Node7&#45;&gt;Node14 -->
<g id="edge28" class="edge"><title>Node7&#45;&gt;Node14</title>
<path fill="none" stroke="midnightblue" d="M271.432,-280.174C267.076,-253.023 257.141,-169.128 289,-112 296.378,-98.7694 309.443,-88.2702 321.501,-80.7525"/>
<polygon fill="midnightblue" stroke="midnightblue" points="323.516,-83.6299 330.415,-75.5888 320.008,-77.5728 323.516,-83.6299"/>
</g>
<!-- Node9 -->
<g id="node9" class="node"><title>Node9</title>
<g id="a_node9"><a xlink:href="_data_8h.html" target="_top" xlink:title="uscxml/messages/Data.h">
<polygon fill="white" stroke="black" points="377,-168.5 377,-187.5 505,-187.5 505,-168.5 377,-168.5"/>
<text text-anchor="middle" x="441" y="-175.5" font-family="Helvetica,sans-Serif" font-size="10.00">uscxml/messages/Data.h</text>
</a>
</g>
</g>
<!-- Node8&#45;&gt;Node9 -->
<g id="edge9" class="edge"><title>Node8&#45;&gt;Node9</title>
<path fill="none" stroke="midnightblue" d="M181.804,-224.444C236.209,-214.905 324.169,-199.483 382.292,-189.293"/>
<polygon fill="midnightblue" stroke="midnightblue" points="383.179,-192.691 392.425,-187.516 381.971,-185.796 383.179,-192.691"/>
</g>
<!-- Node18 -->
<g id="node18" class="node"><title>Node18</title>
<g id="a_node18"><a xlink:href="_u_u_i_d_8h.html" target="_top" xlink:title="uscxml/util/UUID.h">
<polygon fill="white" stroke="black" points="66.5,-112.5 66.5,-131.5 165.5,-131.5 165.5,-112.5 66.5,-112.5"/>
<text text-anchor="middle" x="116" y="-119.5" font-family="Helvetica,sans-Serif" font-size="10.00">uscxml/util/UUID.h</text>
</a>
</g>
</g>
<!-- Node8&#45;&gt;Node18 -->
<g id="edge24" class="edge"><title>Node8&#45;&gt;Node18</title>
<path fill="none" stroke="midnightblue" d="M131.666,-224.368C128.923,-206.617 122.594,-165.666 118.874,-141.597"/>
<polygon fill="midnightblue" stroke="midnightblue" points="122.314,-140.94 117.328,-131.591 115.396,-142.009 122.314,-140.94"/>
</g>
<!-- Node9&#45;&gt;Node3 -->
<g id="edge13" class="edge"><title>Node9&#45;&gt;Node3</title>
<path fill="none" stroke="midnightblue" d="M500.42,-168.444C572.808,-158.02 693.983,-140.571 763.222,-130.6"/>
<polygon fill="midnightblue" stroke="midnightblue" points="764.062,-134.015 773.461,-129.126 763.064,-127.087 764.062,-134.015"/>
</g>
<!-- Node9&#45;&gt;Node4 -->
<g id="edge14" class="edge"><title>Node9&#45;&gt;Node4</title>
<path fill="none" stroke="midnightblue" d="M399.726,-168.471C368.409,-161.132 324.789,-149.021 289,-132 260.308,-118.354 230.614,-96.5879 212.228,-82.0504"/>
<polygon fill="midnightblue" stroke="midnightblue" points="214.15,-79.1043 204.164,-75.5618 209.761,-84.5579 214.15,-79.1043"/>
</g>
<!-- Node9&#45;&gt;Node10 -->
<g id="edge10" class="edge"><title>Node9&#45;&gt;Node10</title>
<path fill="none" stroke="midnightblue" d="M493.882,-168.439C541.142,-160.387 612.12,-147.302 673,-132 674.47,-131.631 675.975,-131.231 677.49,-130.812"/>
<polygon fill="midnightblue" stroke="midnightblue" points="678.742,-134.091 687.335,-127.893 676.753,-127.38 678.742,-134.091"/>
</g>
<!-- Node11 -->
<g id="node11" class="node"><title>Node11</title>
<polygon fill="white" stroke="#bfbfbf" points="298,-112.5 298,-131.5 334,-131.5 334,-112.5 298,-112.5"/>
<text text-anchor="middle" x="316" y="-119.5" font-family="Helvetica,sans-Serif" font-size="10.00">map</text>
</g>
<!-- Node9&#45;&gt;Node11 -->
<g id="edge11" class="edge"><title>Node9&#45;&gt;Node11</title>
<path fill="none" stroke="midnightblue" d="M421.193,-168.444C400.231,-159.388 366.996,-145.03 343.5,-134.88"/>
<polygon fill="midnightblue" stroke="midnightblue" points="344.659,-131.568 334.091,-130.815 341.882,-137.994 344.659,-131.568"/>
</g>
<!-- Node9&#45;&gt;Node12 -->
<g id="edge12" class="edge"><title>Node9&#45;&gt;Node12</title>
<path fill="none" stroke="midnightblue" d="M505.01,-169.456C555.186,-162.299 619.649,-149.951 639,-132 651.704,-120.215 656.415,-100.579 658.122,-85.9671"/>
<polygon fill="midnightblue" stroke="midnightblue" points="661.645,-85.8164 658.943,-75.572 654.667,-85.2655 661.645,-85.8164"/>
</g>
<!-- Node13 -->
<g id="node13" class="node"><title>Node13</title>
<g id="a_node13"><a xlink:href="_convenience_8h.html" target="_top" xlink:title="uscxml/util/Convenience.h">
<polygon fill="white" stroke="black" points="497.5,-112.5 497.5,-131.5 630.5,-131.5 630.5,-112.5 497.5,-112.5"/>
<text text-anchor="middle" x="564" y="-119.5" font-family="Helvetica,sans-Serif" font-size="10.00">uscxml/util/Convenience.h</text>
</a>
</g>
</g>
<!-- Node9&#45;&gt;Node13 -->
<g id="edge15" class="edge"><title>Node9&#45;&gt;Node13</title>
<path fill="none" stroke="midnightblue" d="M460.49,-168.444C480.642,-159.596 512.323,-145.687 535.331,-135.586"/>
<polygon fill="midnightblue" stroke="midnightblue" points="536.852,-138.741 544.601,-131.516 534.038,-132.332 536.852,-138.741"/>
</g>
<!-- Node17 -->
<g id="node17" class="node"><title>Node17</title>
<g id="a_node17"><a xlink:href="_blob_8h.html" target="_top" xlink:title="uscxml/messages/Blob.h">
<polygon fill="white" stroke="black" points="352.5,-112.5 352.5,-131.5 479.5,-131.5 479.5,-112.5 352.5,-112.5"/>
<text text-anchor="middle" x="416" y="-119.5" font-family="Helvetica,sans-Serif" font-size="10.00">uscxml/messages/Blob.h</text>
</a>
</g>
</g>
<!-- Node9&#45;&gt;Node17 -->
<g id="edge20" class="edge"><title>Node9&#45;&gt;Node17</title>
<path fill="none" stroke="midnightblue" d="M436.872,-168.083C433.486,-160.77 428.584,-150.181 424.381,-141.103"/>
<polygon fill="midnightblue" stroke="midnightblue" points="427.429,-139.355 420.051,-131.751 421.077,-142.296 427.429,-139.355"/>
</g>
<!-- Node13&#45;&gt;Node4 -->
<g id="edge16" class="edge"><title>Node13&#45;&gt;Node4</title>
<path fill="none" stroke="midnightblue" d="M505.372,-112.444C436.663,-102.416 323.406,-85.8862 254.077,-75.768"/>
<polygon fill="midnightblue" stroke="midnightblue" points="254.16,-72.2431 243.759,-74.2622 253.149,-79.1697 254.16,-72.2431"/>
</g>
<!-- Node13&#45;&gt;Node14 -->
<g id="edge17" class="edge"><title>Node13&#45;&gt;Node14</title>
<path fill="none" stroke="midnightblue" d="M529.933,-112.444C488.52,-102.042 419.258,-84.6462 379.518,-74.6651"/>
<polygon fill="midnightblue" stroke="midnightblue" points="380.164,-71.2186 369.613,-72.1772 378.459,-78.0078 380.164,-71.2186"/>
</g>
<!-- Node15 -->
<g id="node15" class="node"><title>Node15</title>
<polygon fill="white" stroke="#bfbfbf" points="559.5,-56.5 559.5,-75.5 598.5,-75.5 598.5,-56.5 559.5,-56.5"/>
<text text-anchor="middle" x="579" y="-63.5" font-family="Helvetica,sans-Serif" font-size="10.00">limits</text>
</g>
<!-- Node13&#45;&gt;Node15 -->
<g id="edge18" class="edge"><title>Node13&#45;&gt;Node15</title>
<path fill="none" stroke="midnightblue" d="M566.477,-112.083C568.486,-104.849 571.386,-94.4087 573.89,-85.3968"/>
<polygon fill="midnightblue" stroke="midnightblue" points="577.265,-86.323 576.569,-75.7511 570.52,-84.4495 577.265,-86.323"/>
</g>
<!-- Node16 -->
<g id="node16" class="node"><title>Node16</title>
<polygon fill="white" stroke="#bfbfbf" points="489,-56.5 489,-75.5 541,-75.5 541,-56.5 489,-56.5"/>
<text text-anchor="middle" x="515" y="-63.5" font-family="Helvetica,sans-Serif" font-size="10.00">sstream</text>
</g>
<!-- Node13&#45;&gt;Node16 -->
<g id="edge19" class="edge"><title>Node13&#45;&gt;Node16</title>
<path fill="none" stroke="midnightblue" d="M555.909,-112.083C548.845,-104.298 538.412,-92.8015 529.851,-83.3665"/>
<polygon fill="midnightblue" stroke="midnightblue" points="532.253,-80.8047 522.941,-75.7511 527.069,-85.5087 532.253,-80.8047"/>
</g>
<!-- Node17&#45;&gt;Node4 -->
<g id="edge23" class="edge"><title>Node17&#45;&gt;Node4</title>
<path fill="none" stroke="midnightblue" d="M380.823,-112.444C342.421,-103.102 280.824,-88.1194 238.945,-77.9326"/>
<polygon fill="midnightblue" stroke="midnightblue" points="239.556,-74.4792 229.012,-75.5164 237.901,-81.2809 239.556,-74.4792"/>
</g>
<!-- Node17&#45;&gt;Node12 -->
<g id="edge22" class="edge"><title>Node17&#45;&gt;Node12</title>
<path fill="none" stroke="midnightblue" d="M454.504,-112.444C500.566,-102.208 577.113,-85.1972 622.341,-75.1463"/>
<polygon fill="midnightblue" stroke="midnightblue" points="623.309,-78.5168 632.311,-72.9308 621.79,-71.6835 623.309,-78.5168"/>
</g>
<!-- Node17&#45;&gt;Node14 -->
<g id="edge21" class="edge"><title>Node17&#45;&gt;Node14</title>
<path fill="none" stroke="midnightblue" d="M405.235,-112.324C395.234,-104.263 380.113,-92.0765 368.07,-82.3695"/>
<polygon fill="midnightblue" stroke="midnightblue" points="369.943,-79.3841 359.961,-75.8339 365.55,-84.8343 369.943,-79.3841"/>
</g>
<!-- Node18&#45;&gt;Node4 -->
<g id="edge25" class="edge"><title>Node18&#45;&gt;Node4</title>
<path fill="none" stroke="midnightblue" d="M128.532,-112.324C140.586,-103.979 159.027,-91.2122 173.269,-81.3524"/>
<polygon fill="midnightblue" stroke="midnightblue" points="175.269,-84.2243 181.499,-75.6545 171.285,-78.469 175.269,-84.2243"/>
</g>
<!-- Node18&#45;&gt;Node14 -->
<g id="edge26" class="edge"><title>Node18&#45;&gt;Node14</title>
<path fill="none" stroke="midnightblue" d="M152.92,-112.444C198.678,-101.839 275.812,-83.962 318.42,-74.0871"/>
<polygon fill="midnightblue" stroke="midnightblue" points="319.267,-77.4837 328.219,-71.8162 317.687,-70.6645 319.267,-77.4837"/>
</g>
<!-- Node20&#45;&gt;Node3 -->
<g id="edge33" class="edge"><title>Node20&#45;&gt;Node3</title>
<path fill="none" stroke="midnightblue" d="M225.553,-337.252C315.6,-318.914 537.445,-272.276 608,-244 681.285,-214.63 759.723,-162.682 795.767,-137.496"/>
<polygon fill="midnightblue" stroke="midnightblue" points="797.833,-140.323 803.989,-131.7 793.799,-134.602 797.833,-140.323"/>
</g>
<!-- Node20&#45;&gt;Node4 -->
<g id="edge34" class="edge"><title>Node20&#45;&gt;Node4</title>
<path fill="none" stroke="midnightblue" d="M148.296,-344.036C111.896,-341.11 58.0442,-331.288 24,-300 1.32586,-279.162 0,-265.795 0,-235 0,-235 0,-235 0,-177 0,-146.205 1.2158,-132.718 24,-112 53.8103,-84.8933 98.0641,-73.7755 133.947,-69.3652"/>
<polygon fill="midnightblue" stroke="midnightblue" points="134.741,-72.8 144.307,-68.2463 133.989,-65.8404 134.741,-72.8"/>
</g>
<!-- Node20&#45;&gt;Node7 -->
<g id="edge35" class="edge"><title>Node20&#45;&gt;Node7</title>
<path fill="none" stroke="midnightblue" d="M200.817,-336.324C214.233,-327.9 234.824,-314.971 250.586,-305.074"/>
<polygon fill="midnightblue" stroke="midnightblue" points="252.609,-307.936 259.217,-299.655 248.887,-302.008 252.609,-307.936"/>
</g>
<!-- Node20&#45;&gt;Node8 -->
<g id="edge36" class="edge"><title>Node20&#45;&gt;Node8</title>
<path fill="none" stroke="midnightblue" d="M179.258,-336.257C171.905,-327.576 160.968,-313.629 154,-300 146.408,-285.151 140.82,-267.002 137.326,-253.659"/>
<polygon fill="midnightblue" stroke="midnightblue" points="140.677,-252.631 134.884,-243.759 133.881,-254.307 140.677,-252.631"/>
</g>
</g>
</svg>
        <g id="navigator" transform="translate(0 0)" fill="#404254">
                <rect fill="#f2f5e9" fill-opacity="0.5" stroke="#606060" stroke-width=".5" x="0" y="0" width="60" height="60"/>
                <use id="zoomplus" xlink:href="#zoomPlus" x="17" y="9" onmousedown="handleZoom(evt,'in')"/>
                <use id="zoomminus" xlink:href="#zoomMin" x="42" y="9" onmousedown="handleZoom(evt,'out')"/>
                <use id="reset" xlink:href="#resetDef" x="30" y="36" onmousedown="handleReset()"/>
                <g id="arrowUp" xlink:href="#dirArrow" transform="translate(30 24)" onmousedown="handlePan(0,-1)">
                  <use xlink:href="#rim" fill="#404040">
                        <set attributeName="fill" to="#808080" begin="arrowUp.mouseover" end="arrowUp.mouseout"/>
                  </use>
                  <path fill="none" stroke="white" stroke-width="1.5" d="M0,-3.0v7 M-2.5,-0.5L0,-3.0L2.5,-0.5"/>
                </g>
                <g id="arrowRight" xlink:href="#dirArrow" transform="rotate(90) translate(36 -43)" onmousedown="handlePan(1,0)">
                  <use xlink:href="#rim" fill="#404040">
                        <set attributeName="fill" to="#808080" begin="arrowRight.mouseover" end="arrowRight.mouseout"/>
                  </use>
                  <path fill="none" stroke="white" stroke-width="1.5" d="M0,-3.0v7 M-2.5,-0.5L0,-3.0L2.5,-0.5"/>
                </g>
                <g id="arrowDown" xlink:href="#dirArrow" transform="rotate(180) translate(-30 -48)" onmousedown="handlePan(0,1)">
                  <use xlink:href="#rim" fill="#404040">
                        <set attributeName="fill" to="#808080" begin="arrowDown.mouseover" end="arrowDown.mouseout"/>
                  </use>
                  <path fill="none" stroke="white" stroke-width="1.5" d="M0,-3.0v7 M-2.5,-0.5L0,-3.0L2.5,-0.5"/>
                </g>
                <g id="arrowLeft" xlink:href="#dirArrow" transform="rotate(270) translate(-36 17)" onmousedown="handlePan(-1,0)">
                  <use xlink:href="#rim" fill="#404040">
                        <set attributeName="fill" to="#808080" begin="arrowLeft.mouseover" end="arrowLeft.mouseout"/>
                  </use>
                  <path fill="none" stroke="white" stroke-width="1.5" d="M0,-3.0v7 M-2.5,-0.5L0,-3.0L2.5,-0.5"/>
                </g>
        </g>
        <svg viewBox="0 0 15 15" width="100%" height="30px" preserveAspectRatio="xMaxYMin meet">
         <g id="arrow_out" transform="scale(0.3 0.3)">
          <a xlink:href="_invoker_8cpp__incl_org.svg" target="_base">
           <rect id="button" ry="5" rx="5" y="6" x="6" height="38" width="38"
                fill="#f2f5e9" fill-opacity="0.5" stroke="#606060" stroke-width="1.0"/>
           <path id="arrow"
             d="M 11.500037,31.436501 C 11.940474,20.09759 22.043105,11.32322 32.158766,21.979434 L 37.068811,17.246167 C 37.068811,17.246167 37.088388,32 37.088388,32 L 22.160133,31.978069 C 22.160133,31.978069 26.997745,27.140456 26.997745,27.140456 C 18.528582,18.264221 13.291696,25.230495 11.500037,31.436501 z"
             style="fill:#404040;"/>
          </a>
         </g>
        </svg>
</svg>
