<?xml version="1.0" encoding="UTF-8" standalone="no"?>
<!DOCTYPE svg PUBLIC "-//W3C//DTD SVG 1.1//EN"
 "http://www.w3.org/Graphics/SVG/1.1/DTD/svg11.dtd">
<!-- Generated by graphviz version 2.38.0 (20140413.2041)
 -->
<!-- Title: plugins/Invoker.h Pages: 1 -->
<!--zoomable 408 -->
<svg id="main" version="1.1" xmlns="http://www.w3.org/2000/svg" xmlns:xlink="http://www.w3.org/1999/xlink" xml:space="preserve" onload="init(evt)">
<style type="text/css"><![CDATA[
.edge:hover path { stroke: red; }
.edge:hover polygon { stroke: red; fill: red; }
]]></style>
<script type="text/javascript"><![CDATA[
var edges = document.getElementsByTagName('g');
if (edges && edges.length) {
  for (var i=0;i<edges.length;i++) {
    if (edges[i].id.substr(0,4)=='edge') {
      edges[i].setAttribute('class','edge');
    }
  }
}
]]></script>
        <defs>
                <circle id="rim" cx="0" cy="0" r="7"/>
                <circle id="rim2" cx="0" cy="0" r="3.5"/>
                <g id="zoomPlus">
                        <use xlink:href="#rim" fill="#404040">
                                <set attributeName="fill" to="#808080" begin="zoomplus.mouseover" end="zoomplus.mouseout"/>
                        </use>
                        <path d="M-4,0h8M0,-4v8" fill="none" stroke="white" stroke-width="1.5" pointer-events="none"/>
                </g>
                <g id="zoomMin">
                        <use xlink:href="#rim" fill="#404040">
                                <set attributeName="fill" to="#808080" begin="zoomminus.mouseover" end="zoomminus.mouseout"/>
                        </use>
                        <path d="M-4,0h8" fill="none" stroke="white" stroke-width="1.5" pointer-events="none"/>
                </g>
                <g id="dirArrow">
                        <path fill="none" stroke="white" stroke-width="1.5" d="M0,-3.0v7 M-2.5,-0.5L0,-3.0L2.5,-0.5"/>
                </g>
               <g id="resetDef">
                       <use xlink:href="#rim2" fill="#404040">
                               <set attributeName="fill" to="#808080" begin="reset.mouseover" end="reset.mouseout"/>
                       </use>
               </g>
        </defs>

<script type="text/javascript">
var viewWidth = 1402;
var viewHeight = 408;
var sectionId = 'dynsection-1';
</script>
<script xlink:href="svgpan.js"/>
<svg id="graph" class="graph">
<g id="viewport">
<title>plugins/Invoker.h</title>
<polygon fill="white" stroke="none" points="-4,4 -4,-404 1397.89,-404 1397.89,4 -4,4"/>
<!-- Node1 -->
<g id="node1" class="node"><title>Node1</title>
<polygon fill="#bfbfbf" stroke="black" points="558.386,-380.5 558.386,-399.5 650.386,-399.5 650.386,-380.5 558.386,-380.5"/>
<text text-anchor="middle" x="604.386" y="-387.5" font-family="Helvetica,sans-Serif" font-size="10.00">plugins/Invoker.h</text>
</g>
<!-- Node2 -->
<g id="node2" class="node"><title>Node2</title>
<g id="a_node2"><a xlink:href="_data_model_impl_8h.html" target="_top" xlink:title="plugins/DataModelImpl.h">
<polygon fill="white" stroke="black" points="494.886,-324.5 494.886,-343.5 621.886,-343.5 621.886,-324.5 494.886,-324.5"/>
<text text-anchor="middle" x="558.386" y="-331.5" font-family="Helvetica,sans-Serif" font-size="10.00">plugins/DataModelImpl.h</text>
</a>
</g>
</g>
<!-- Node1&#45;&gt;Node2 -->
<g id="edge1" class="edge"><title>Node1&#45;&gt;Node2</title>
<path fill="none" stroke="midnightblue" d="M590.271,-372.431C582.21,-362.967 572.426,-351.483 565.84,-343.751"/>
<polygon fill="midnightblue" stroke="midnightblue" points="587.64,-374.74 596.79,-380.083 592.969,-370.201 587.64,-374.74"/>
</g>
<!-- Node7 -->
<g id="node7" class="node"><title>Node7</title>
<g id="a_node7"><a xlink:href="_u_s_c_x_m_l_invoker_8h.html" target="_top" xlink:title="plugins/invoker/scxml\l/USCXMLInvoker.h">
<polygon fill="white" stroke="black" points="131.386,-123.5 131.386,-153.5 243.386,-153.5 243.386,-123.5 131.386,-123.5"/>
<text text-anchor="start" x="139.386" y="-141.5" font-family="Helvetica,sans-Serif" font-size="10.00">plugins/invoker/scxml</text>
<text text-anchor="middle" x="187.386" y="-130.5" font-family="Helvetica,sans-Serif" font-size="10.00">/USCXMLInvoker.h</text>
</a>
</g>
</g>
<!-- Node1&#45;&gt;Node7 -->
<g id="edge34" class="edge"><title>Node1&#45;&gt;Node7</title>
<path fill="none" stroke="midnightblue" d="M547.831,-388.066C414.677,-384.55 87.5679,-367.799 20.3855,-288 -7.66618,-254.68 -5.57575,-224.973 20.3855,-190 45.6613,-155.951 93.2368,-144.04 131.162,-140.236"/>
<polygon fill="midnightblue" stroke="midnightblue" points="548.129,-391.574 558.213,-388.324 548.303,-384.577 548.129,-391.574"/>
</g>
<!-- Node27 -->
<g id="node27" class="node"><title>Node27</title>
<g id="a_node27"><a xlink:href="_factory_8h.html" target="_top" xlink:title="plugins/Factory.h">
<polygon fill="white" stroke="black" points="821.886,-263 821.886,-282 914.886,-282 914.886,-263 821.886,-263"/>
<text text-anchor="middle" x="868.386" y="-270" font-family="Helvetica,sans-Serif" font-size="10.00">plugins/Factory.h</text>
</a>
</g>
</g>
<!-- Node1&#45;&gt;Node27 -->
<g id="edge33" class="edge"><title>Node1&#45;&gt;Node27</title>
<path fill="none" stroke="midnightblue" d="M616.937,-372.06C628.83,-357.21 648.016,-336.149 669.386,-324 676.551,-319.926 777.284,-295.368 832.609,-282.059"/>
<polygon fill="midnightblue" stroke="midnightblue" points="613.862,-370.315 610.519,-380.369 619.402,-374.594 613.862,-370.315"/>
</g>
<!-- Node28 -->
<g id="node28" class="node"><title>Node28</title>
<g id="a_node28"><a xlink:href="_invoker_8cpp.html" target="_top" xlink:title="plugins/Invoker.cpp">
<polygon fill="white" stroke="black" points="678.886,-324.5 678.886,-343.5 781.886,-343.5 781.886,-324.5 678.886,-324.5"/>
<text text-anchor="middle" x="730.386" y="-331.5" font-family="Helvetica,sans-Serif" font-size="10.00">plugins/Invoker.cpp</text>
</a>
</g>
</g>
<!-- Node1&#45;&gt;Node28 -->
<g id="edge35" class="edge"><title>Node1&#45;&gt;Node28</title>
<path fill="none" stroke="midnightblue" d="M633.545,-376.503C657.167,-366.38 689.813,-352.388 710.514,-343.516"/>
<polygon fill="midnightblue" stroke="midnightblue" points="632.163,-373.287 624.351,-380.444 634.921,-379.721 632.163,-373.287"/>
</g>
<!-- Node3 -->
<g id="node3" class="node"><title>Node3</title>
<g id="a_node3"><a xlink:href="_interpreter_impl_8h.html" target="_top" xlink:title="interpreter/InterpreterImpl.h">
<polygon fill="white" stroke="black" points="785.386,-196 785.386,-215 923.386,-215 923.386,-196 785.386,-196"/>
<text text-anchor="middle" x="854.386" y="-203" font-family="Helvetica,sans-Serif" font-size="10.00">interpreter/InterpreterImpl.h</text>
</a>
</g>
</g>
<!-- Node2&#45;&gt;Node3 -->
<g id="edge2" class="edge"><title>Node2&#45;&gt;Node3</title>
<path fill="none" stroke="midnightblue" d="M628.543,-322.9C681.67,-314.419 749.595,-301.544 774.386,-288 791.785,-278.494 830.826,-234.097 847.074,-215.129"/>
<polygon fill="midnightblue" stroke="midnightblue" points="627.806,-319.473 618.471,-324.484 628.894,-326.388 627.806,-319.473"/>
</g>
<!-- Node18 -->
<g id="node18" class="node"><title>Node18</title>
<g id="a_node18"><a xlink:href="_j_s_c_data_model_8h.html" target="_top" xlink:title="plugins/datamodel/ecmascript\l/JavaScriptCore/JSCDataModel.h">
<polygon fill="white" stroke="black" points="29.3855,-257.5 29.3855,-287.5 195.386,-287.5 195.386,-257.5 29.3855,-257.5"/>
<text text-anchor="start" x="37.3855" y="-275.5" font-family="Helvetica,sans-Serif" font-size="10.00">plugins/datamodel/ecmascript</text>
<text text-anchor="middle" x="112.386" y="-264.5" font-family="Helvetica,sans-Serif" font-size="10.00">/JavaScriptCore/JSCDataModel.h</text>
</a>
</g>
</g>
<!-- Node2&#45;&gt;Node18 -->
<g id="edge19" class="edge"><title>Node2&#45;&gt;Node18</title>
<path fill="none" stroke="midnightblue" d="M484.401,-324.248C412.723,-315.614 300.99,-301.75 204.386,-288 201.504,-287.59 198.573,-287.166 195.613,-286.732"/>
<polygon fill="midnightblue" stroke="midnightblue" points="484.333,-327.765 494.679,-325.483 485.169,-320.815 484.333,-327.765"/>
</g>
<!-- Node20 -->
<g id="node20" class="node"><title>Node20</title>
<g id="a_node20"><a xlink:href="_v8_data_model_8h.html" target="_top" xlink:title="plugins/datamodel/ecmascript\l/v8/V8DataModel.h">
<polygon fill="white" stroke="black" points="483.886,-257.5 483.886,-287.5 632.886,-287.5 632.886,-257.5 483.886,-257.5"/>
<text text-anchor="start" x="491.886" y="-275.5" font-family="Helvetica,sans-Serif" font-size="10.00">plugins/datamodel/ecmascript</text>
<text text-anchor="middle" x="558.386" y="-264.5" font-family="Helvetica,sans-Serif" font-size="10.00">/v8/V8DataModel.h</text>
</a>
</g>
</g>
<!-- Node2&#45;&gt;Node20 -->
<g id="edge21" class="edge"><title>Node2&#45;&gt;Node20</title>
<path fill="none" stroke="midnightblue" d="M558.386,-314.235C558.386,-305.586 558.386,-295.497 558.386,-287.523"/>
<polygon fill="midnightblue" stroke="midnightblue" points="554.886,-314.475 558.386,-324.475 561.886,-314.475 554.886,-314.475"/>
</g>
<!-- Node22 -->
<g id="node22" class="node"><title>Node22</title>
<g id="a_node22"><a xlink:href="_lua_data_model_8h.html" target="_top" xlink:title="plugins/datamodel/lua\l/LuaDataModel.h">
<polygon fill="white" stroke="black" points="651.386,-257.5 651.386,-287.5 765.386,-287.5 765.386,-257.5 651.386,-257.5"/>
<text text-anchor="start" x="659.386" y="-275.5" font-family="Helvetica,sans-Serif" font-size="10.00">plugins/datamodel/lua</text>
<text text-anchor="middle" x="708.386" y="-264.5" font-family="Helvetica,sans-Serif" font-size="10.00">/LuaDataModel.h</text>
</a>
</g>
</g>
<!-- Node2&#45;&gt;Node22 -->
<g id="edge23" class="edge"><title>Node2&#45;&gt;Node22</title>
<path fill="none" stroke="midnightblue" d="M589.346,-320.719C613.691,-311.062 647.623,-297.602 673.033,-287.523"/>
<polygon fill="midnightblue" stroke="midnightblue" points="587.882,-317.534 579.877,-324.475 590.463,-324.041 587.882,-317.534"/>
</g>
<!-- Node24 -->
<g id="node24" class="node"><title>Node24</title>
<g id="a_node24"><a xlink:href="_n_u_l_l_data_model_8h.html" target="_top" xlink:title="plugins/datamodel/null\l/NULLDataModel.h">
<polygon fill="white" stroke="black" points="213.386,-257.5 213.386,-287.5 329.386,-287.5 329.386,-257.5 213.386,-257.5"/>
<text text-anchor="start" x="221.386" y="-275.5" font-family="Helvetica,sans-Serif" font-size="10.00">plugins/datamodel/null</text>
<text text-anchor="middle" x="271.386" y="-264.5" font-family="Helvetica,sans-Serif" font-size="10.00">/NULLDataModel.h</text>
</a>
</g>
</g>
<!-- Node2&#45;&gt;Node24 -->
<g id="edge25" class="edge"><title>Node2&#45;&gt;Node24</title>
<path fill="none" stroke="midnightblue" d="M505.746,-322.408C461.156,-313.393 395.544,-300.031 338.386,-288 335.474,-287.387 332.492,-286.756 329.482,-286.115"/>
<polygon fill="midnightblue" stroke="midnightblue" points="505.274,-325.883 515.769,-324.432 506.66,-319.022 505.274,-325.883"/>
</g>
<!-- Node26 -->
<g id="node26" class="node"><title>Node26</title>
<g id="a_node26"><a xlink:href="_data_model_8cpp.html" target="_top" xlink:title="plugins/DataModel.cpp">
<polygon fill="white" stroke="black" points="347.386,-263 347.386,-282 465.386,-282 465.386,-263 347.386,-263"/>
<text text-anchor="middle" x="406.386" y="-270" font-family="Helvetica,sans-Serif" font-size="10.00">plugins/DataModel.cpp</text>
</a>
</g>
</g>
<!-- Node2&#45;&gt;Node26 -->
<g id="edge28" class="edge"><title>Node2&#45;&gt;Node26</title>
<path fill="none" stroke="midnightblue" d="M527.174,-320.782C497.636,-309.22 454.065,-292.164 428.123,-282.009"/>
<polygon fill="midnightblue" stroke="midnightblue" points="526.02,-324.089 536.608,-324.475 528.571,-317.571 526.02,-324.089"/>
</g>
<!-- Node2&#45;&gt;Node27 -->
<g id="edge29" class="edge"><title>Node2&#45;&gt;Node27</title>
<path fill="none" stroke="midnightblue" d="M620.632,-322.721C671.111,-314.151 744.026,-301.245 807.386,-288 816.016,-286.196 825.292,-284.082 833.941,-282.034"/>
<polygon fill="midnightblue" stroke="midnightblue" points="619.805,-319.311 610.529,-324.429 620.972,-326.213 619.805,-319.311"/>
</g>
<!-- Node4 -->
<g id="node4" class="node"><title>Node4</title>
<g id="a_node4"><a xlink:href="_interpreter_issue_8cpp.html" target="_top" xlink:title="debug/InterpreterIssue.cpp">
<polygon fill="white" stroke="black" points="1251.39,-129 1251.39,-148 1387.39,-148 1387.39,-129 1251.39,-129"/>
<text text-anchor="middle" x="1319.39" y="-136" font-family="Helvetica,sans-Serif" font-size="10.00">debug/InterpreterIssue.cpp</text>
</a>
</g>
</g>
<!-- Node3&#45;&gt;Node4 -->
<g id="edge3" class="edge"><title>Node3&#45;&gt;Node4</title>
<path fill="none" stroke="midnightblue" d="M933.897,-195.488C1012.46,-186.269 1135.97,-170.931 1242.39,-154 1253.4,-152.247 1265.26,-150.13 1276.29,-148.061"/>
<polygon fill="midnightblue" stroke="midnightblue" points="933.119,-192.055 923.593,-196.693 933.931,-199.008 933.119,-192.055"/>
</g>
<!-- Node5 -->
<g id="node5" class="node"><title>Node5</title>
<g id="a_node5"><a xlink:href="_interpreter_impl_8cpp.html" target="_top" xlink:title="interpreter/InterpreterImpl.cpp">
<polygon fill="white" stroke="black" points="645.886,-129 645.886,-148 794.886,-148 794.886,-129 645.886,-129"/>
<text text-anchor="middle" x="720.386" y="-136" font-family="Helvetica,sans-Serif" font-size="10.00">interpreter/InterpreterImpl.cpp</text>
</a>
</g>
</g>
<!-- Node3&#45;&gt;Node5 -->
<g id="edge4" class="edge"><title>Node3&#45;&gt;Node5</title>
<path fill="none" stroke="midnightblue" d="M827.469,-191.444C800.928,-178.569 761.116,-159.257 738.253,-148.167"/>
<polygon fill="midnightblue" stroke="midnightblue" points="826.066,-194.653 836.591,-195.869 829.122,-188.355 826.066,-194.653"/>
</g>
<!-- Node6 -->
<g id="node6" class="node"><title>Node6</title>
<g id="a_node6"><a xlink:href="_interpreter_8cpp.html" target="_top" xlink:title="Interpreter.cpp">
<polygon fill="white" stroke="black" points="813.386,-129 813.386,-148 895.386,-148 895.386,-129 813.386,-129"/>
<text text-anchor="middle" x="854.386" y="-136" font-family="Helvetica,sans-Serif" font-size="10.00">Interpreter.cpp</text>
</a>
</g>
</g>
<!-- Node3&#45;&gt;Node6 -->
<g id="edge5" class="edge"><title>Node3&#45;&gt;Node6</title>
<path fill="none" stroke="midnightblue" d="M854.386,-185.537C854.386,-173.17 854.386,-157.62 854.386,-148.127"/>
<polygon fill="midnightblue" stroke="midnightblue" points="850.886,-185.734 854.386,-195.734 857.886,-185.734 850.886,-185.734"/>
</g>
<!-- Node3&#45;&gt;Node7 -->
<g id="edge6" class="edge"><title>Node3&#45;&gt;Node7</title>
<path fill="none" stroke="midnightblue" d="M774.977,-195.422C758.273,-193.574 740.755,-191.682 724.386,-190 549.031,-171.977 341.193,-153.153 243.466,-144.452"/>
<polygon fill="midnightblue" stroke="midnightblue" points="774.93,-198.938 785.256,-196.564 775.704,-191.981 774.93,-198.938"/>
</g>
<!-- Node10 -->
<g id="node10" class="node"><title>Node10</title>
<g id="a_node10"><a xlink:href="_basic_h_t_t_p_i_o_processor_8h.html" target="_top" xlink:title="plugins/ioprocessor\l/basichttp/BasicHTTPIOProcessor.h">
<polygon fill="white" stroke="black" points="913.886,-123.5 913.886,-153.5 1090.89,-153.5 1090.89,-123.5 913.886,-123.5"/>
<text text-anchor="start" x="921.886" y="-141.5" font-family="Helvetica,sans-Serif" font-size="10.00">plugins/ioprocessor</text>
<text text-anchor="middle" x="1002.39" y="-130.5" font-family="Helvetica,sans-Serif" font-size="10.00">/basichttp/BasicHTTPIOProcessor.h</text>
</a>
</g>
</g>
<!-- Node3&#45;&gt;Node10 -->
<g id="edge9" class="edge"><title>Node3&#45;&gt;Node10</title>
<path fill="none" stroke="midnightblue" d="M883.378,-191.767C908.427,-180.766 944.571,-164.892 970.445,-153.528"/>
<polygon fill="midnightblue" stroke="midnightblue" points="881.787,-188.643 874.039,-195.869 884.602,-195.052 881.787,-188.643"/>
</g>
<!-- Node12 -->
<g id="node12" class="node"><title>Node12</title>
<g id="a_node12"><a xlink:href="_s_c_x_m_l_i_o_processor_8cpp.html" target="_top" xlink:title="plugins/ioprocessor\l/scxml/SCXMLIOProcessor.cpp">
<polygon fill="white" stroke="black" points="470.886,-123.5 470.886,-153.5 627.886,-153.5 627.886,-123.5 470.886,-123.5"/>
<text text-anchor="start" x="478.886" y="-141.5" font-family="Helvetica,sans-Serif" font-size="10.00">plugins/ioprocessor</text>
<text text-anchor="middle" x="549.386" y="-130.5" font-family="Helvetica,sans-Serif" font-size="10.00">/scxml/SCXMLIOProcessor.cpp</text>
</a>
</g>
</g>
<!-- Node3&#45;&gt;Node12 -->
<g id="edge12" class="edge"><title>Node3&#45;&gt;Node12</title>
<path fill="none" stroke="midnightblue" d="M804.287,-193.823C752.712,-182.832 672.092,-165.651 615.355,-153.559"/>
<polygon fill="midnightblue" stroke="midnightblue" points="803.689,-197.274 814.198,-195.936 805.148,-190.428 803.689,-197.274"/>
</g>
<!-- Node13 -->
<g id="node13" class="node"><title>Node13</title>
<g id="a_node13"><a xlink:href="_transformer_8h.html" target="_top" xlink:title="transform/Transformer.h">
<polygon fill="white" stroke="black" points="1109.39,-129 1109.39,-148 1233.39,-148 1233.39,-129 1109.39,-129"/>
<text text-anchor="middle" x="1171.39" y="-136" font-family="Helvetica,sans-Serif" font-size="10.00">transform/Transformer.h</text>
</a>
</g>
</g>
<!-- Node3&#45;&gt;Node13 -->
<g id="edge13" class="edge"><title>Node3&#45;&gt;Node13</title>
<path fill="none" stroke="midnightblue" d="M906.182,-193.879C968.617,-181.077 1072.29,-159.819 1129.78,-148.032"/>
<polygon fill="midnightblue" stroke="midnightblue" points="905.247,-190.498 896.154,-195.936 906.653,-197.355 905.247,-190.498"/>
</g>
<!-- Node8 -->
<g id="node8" class="node"><title>Node8</title>
<g id="a_node8"><a xlink:href="_factory_8cpp.html" target="_top" xlink:title="plugins/Factory.cpp">
<polygon fill="white" stroke="black" points="325.886,-62 325.886,-81 428.886,-81 428.886,-62 325.886,-62"/>
<text text-anchor="middle" x="377.386" y="-69" font-family="Helvetica,sans-Serif" font-size="10.00">plugins/Factory.cpp</text>
</a>
</g>
</g>
<!-- Node7&#45;&gt;Node8 -->
<g id="edge7" class="edge"><title>Node7&#45;&gt;Node8</title>
<path fill="none" stroke="midnightblue" d="M238.225,-120.108C275.188,-107.462 323.623,-90.8923 352.519,-81.007"/>
<polygon fill="midnightblue" stroke="midnightblue" points="236.941,-116.847 228.613,-123.396 239.207,-123.471 236.941,-116.847"/>
</g>
<!-- Node9 -->
<g id="node9" class="node"><title>Node9</title>
<g id="a_node9"><a xlink:href="_u_s_c_x_m_l_invoker_8cpp.html" target="_top" xlink:title="plugins/invoker/scxml\l/USCXMLInvoker.cpp">
<polygon fill="white" stroke="black" points="130.886,-56.5 130.886,-86.5 243.886,-86.5 243.886,-56.5 130.886,-56.5"/>
<text text-anchor="start" x="138.886" y="-74.5" font-family="Helvetica,sans-Serif" font-size="10.00">plugins/invoker/scxml</text>
<text text-anchor="middle" x="187.386" y="-63.5" font-family="Helvetica,sans-Serif" font-size="10.00">/USCXMLInvoker.cpp</text>
</a>
</g>
</g>
<!-- Node7&#45;&gt;Node9 -->
<g id="edge8" class="edge"><title>Node7&#45;&gt;Node9</title>
<path fill="none" stroke="midnightblue" d="M187.386,-113.108C187.386,-104.154 187.386,-94.3227 187.386,-86.5765"/>
<polygon fill="midnightblue" stroke="midnightblue" points="183.886,-113.396 187.386,-123.396 190.886,-113.396 183.886,-113.396"/>
</g>
<!-- Node10&#45;&gt;Node8 -->
<g id="edge10" class="edge"><title>Node10&#45;&gt;Node8</title>
<path fill="none" stroke="midnightblue" d="M903.79,-122.969C723.136,-101.195 521.913,-84.064 429.096,-76.5681"/>
<polygon fill="midnightblue" stroke="midnightblue" points="903.391,-126.446 913.739,-124.176 904.233,-119.497 903.391,-126.446"/>
</g>
<!-- Node11 -->
<g id="node11" class="node"><title>Node11</title>
<g id="a_node11"><a xlink:href="_basic_h_t_t_p_i_o_processor_8cpp.html" target="_top" xlink:title="plugins/ioprocessor\l/basichttp/BasicHTTPIOProcessor.cpp">
<polygon fill="white" stroke="black" points="827.886,-56.5 827.886,-86.5 1014.89,-86.5 1014.89,-56.5 827.886,-56.5"/>
<text text-anchor="start" x="835.886" y="-74.5" font-family="Helvetica,sans-Serif" font-size="10.00">plugins/ioprocessor</text>
<text text-anchor="middle" x="921.386" y="-63.5" font-family="Helvetica,sans-Serif" font-size="10.00">/basichttp/BasicHTTPIOProcessor.cpp</text>
</a>
</g>
</g>
<!-- Node10&#45;&gt;Node11 -->
<g id="edge11" class="edge"><title>Node10&#45;&gt;Node11</title>
<path fill="none" stroke="midnightblue" d="M976.694,-116.883C964.385,-107.005 949.959,-95.4293 938.927,-86.5765"/>
<polygon fill="midnightblue" stroke="midnightblue" points="974.82,-119.867 984.81,-123.396 979.201,-114.407 974.82,-119.867"/>
</g>
<!-- Node14 -->
<g id="node14" class="node"><title>Node14</title>
<g id="a_node14"><a xlink:href="_chart_to_c_8h.html" target="_top" xlink:title="transform/ChartToC.h">
<polygon fill="white" stroke="black" points="1185.89,-62 1185.89,-81 1298.89,-81 1298.89,-62 1185.89,-62"/>
<text text-anchor="middle" x="1242.39" y="-69" font-family="Helvetica,sans-Serif" font-size="10.00">transform/ChartToC.h</text>
</a>
</g>
</g>
<!-- Node13&#45;&gt;Node14 -->
<g id="edge14" class="edge"><title>Node13&#45;&gt;Node14</title>
<path fill="none" stroke="midnightblue" d="M1188.47,-121.856C1202.43,-109.078 1221.64,-91.4915 1232.96,-81.1273"/>
<polygon fill="midnightblue" stroke="midnightblue" points="1185.97,-119.4 1180.96,-128.734 1190.7,-124.563 1185.97,-119.4"/>
</g>
<!-- Node16 -->
<g id="node16" class="node"><title>Node16</title>
<g id="a_node16"><a xlink:href="_chart_to_v_h_d_l_8h.html" target="_top" xlink:title="transform/ChartToVHDL.h">
<polygon fill="white" stroke="black" points="1260.89,-0.5 1260.89,-19.5 1393.89,-19.5 1393.89,-0.5 1260.89,-0.5"/>
<text text-anchor="middle" x="1327.39" y="-7.5" font-family="Helvetica,sans-Serif" font-size="10.00">transform/ChartToVHDL.h</text>
</a>
</g>
</g>
<!-- Node13&#45;&gt;Node16 -->
<g id="edge17" class="edge"><title>Node13&#45;&gt;Node16</title>
<path fill="none" stroke="midnightblue" d="M1215.11,-126.189C1250.18,-116.272 1295.6,-101.253 1308.39,-87 1325.64,-67.7665 1327.75,-35.2187 1327.69,-19.7147"/>
<polygon fill="midnightblue" stroke="midnightblue" points="1213.77,-122.928 1205.07,-128.97 1215.64,-129.674 1213.77,-122.928"/>
</g>
<!-- Node17 -->
<g id="node17" class="node"><title>Node17</title>
<g id="a_node17"><a xlink:href="_transformer_8cpp.html" target="_top" xlink:title="transform/Transformer.cpp">
<polygon fill="white" stroke="black" points="1032.89,-62 1032.89,-81 1167.89,-81 1167.89,-62 1032.89,-62"/>
<text text-anchor="middle" x="1100.39" y="-69" font-family="Helvetica,sans-Serif" font-size="10.00">transform/Transformer.cpp</text>
</a>
</g>
</g>
<!-- Node13&#45;&gt;Node17 -->
<g id="edge18" class="edge"><title>Node13&#45;&gt;Node17</title>
<path fill="none" stroke="midnightblue" d="M1154.3,-121.856C1140.34,-109.078 1121.13,-91.4915 1109.81,-81.1273"/>
<polygon fill="midnightblue" stroke="midnightblue" points="1152.07,-124.563 1161.81,-128.734 1156.8,-119.4 1152.07,-124.563"/>
</g>
<!-- Node15 -->
<g id="node15" class="node"><title>Node15</title>
<g id="a_node15"><a xlink:href="_chart_to_c_8cpp.html" target="_top" xlink:title="transform/ChartToC.cpp">
<polygon fill="white" stroke="black" points="1118.39,-0.5 1118.39,-19.5 1242.39,-19.5 1242.39,-0.5 1118.39,-0.5"/>
<text text-anchor="middle" x="1180.39" y="-7.5" font-family="Helvetica,sans-Serif" font-size="10.00">transform/ChartToC.cpp</text>
</a>
</g>
</g>
<!-- Node14&#45;&gt;Node15 -->
<g id="edge15" class="edge"><title>Node14&#45;&gt;Node15</title>
<path fill="none" stroke="midnightblue" d="M1226.05,-54.8245C1214.27,-43.5202 1198.82,-28.6928 1189.25,-19.5091"/>
<polygon fill="midnightblue" stroke="midnightblue" points="1223.86,-57.5762 1233.5,-61.9751 1228.71,-52.5257 1223.86,-57.5762"/>
</g>
<!-- Node14&#45;&gt;Node16 -->
<g id="edge16" class="edge"><title>Node14&#45;&gt;Node16</title>
<path fill="none" stroke="midnightblue" d="M1262.94,-56.1127C1279.29,-44.6691 1301.61,-29.046 1315.23,-19.5091"/>
<polygon fill="midnightblue" stroke="midnightblue" points="1260.75,-53.3731 1254.56,-61.9751 1264.76,-59.1078 1260.75,-53.3731"/>
</g>
<!-- Node19 -->
<g id="node19" class="node"><title>Node19</title>
<g id="a_node19"><a xlink:href="_j_s_c_data_model_8cpp.html" target="_top" xlink:title="plugins/datamodel/ecmascript\l/JavaScriptCore/JSCDataModel.cpp">
<polygon fill="white" stroke="black" points="29.8855,-190.5 29.8855,-220.5 206.886,-220.5 206.886,-190.5 29.8855,-190.5"/>
<text text-anchor="start" x="37.8855" y="-208.5" font-family="Helvetica,sans-Serif" font-size="10.00">plugins/datamodel/ecmascript</text>
<text text-anchor="middle" x="118.386" y="-197.5" font-family="Helvetica,sans-Serif" font-size="10.00">/JavaScriptCore/JSCDataModel.cpp</text>
</a>
</g>
</g>
<!-- Node18&#45;&gt;Node19 -->
<g id="edge20" class="edge"><title>Node18&#45;&gt;Node19</title>
<path fill="none" stroke="midnightblue" d="M114.61,-247.403C115.444,-238.37 116.363,-228.408 117.086,-220.577"/>
<polygon fill="midnightblue" stroke="midnightblue" points="111.121,-247.117 113.687,-257.396 118.092,-247.76 111.121,-247.117"/>
</g>
<!-- Node21 -->
<g id="node21" class="node"><title>Node21</title>
<g id="a_node21"><a xlink:href="_v8_data_model_8cpp.html" target="_top" xlink:title="plugins/datamodel/ecmascript\l/v8/V8DataModel.cpp">
<polygon fill="white" stroke="black" points="433.886,-190.5 433.886,-220.5 582.886,-220.5 582.886,-190.5 433.886,-190.5"/>
<text text-anchor="start" x="441.886" y="-208.5" font-family="Helvetica,sans-Serif" font-size="10.00">plugins/datamodel/ecmascript</text>
<text text-anchor="middle" x="508.386" y="-197.5" font-family="Helvetica,sans-Serif" font-size="10.00">/v8/V8DataModel.cpp</text>
</a>
</g>
</g>
<!-- Node20&#45;&gt;Node21 -->
<g id="edge22" class="edge"><title>Node20&#45;&gt;Node21</title>
<path fill="none" stroke="midnightblue" d="M541.422,-249.447C534.077,-239.899 525.696,-229.004 519.214,-220.577"/>
<polygon fill="midnightblue" stroke="midnightblue" points="538.665,-251.604 547.536,-257.396 544.213,-247.336 538.665,-251.604"/>
</g>
<!-- Node23 -->
<g id="node23" class="node"><title>Node23</title>
<g id="a_node23"><a xlink:href="_lua_data_model_8cpp.html" target="_top" xlink:title="plugins/datamodel/lua\l/LuaDataModel.cpp">
<polygon fill="white" stroke="black" points="601.386,-190.5 601.386,-220.5 715.386,-220.5 715.386,-190.5 601.386,-190.5"/>
<text text-anchor="start" x="609.386" y="-208.5" font-family="Helvetica,sans-Serif" font-size="10.00">plugins/datamodel/lua</text>
<text text-anchor="middle" x="658.386" y="-197.5" font-family="Helvetica,sans-Serif" font-size="10.00">/LuaDataModel.cpp</text>
</a>
</g>
</g>
<!-- Node22&#45;&gt;Node23 -->
<g id="edge24" class="edge"><title>Node22&#45;&gt;Node23</title>
<path fill="none" stroke="midnightblue" d="M691.422,-249.447C684.077,-239.899 675.696,-229.004 669.214,-220.577"/>
<polygon fill="midnightblue" stroke="midnightblue" points="688.665,-251.604 697.536,-257.396 694.213,-247.336 688.665,-251.604"/>
</g>
<!-- Node24&#45;&gt;Node8 -->
<g id="edge27" class="edge"><title>Node24&#45;&gt;Node8</title>
<path fill="none" stroke="midnightblue" d="M274.373,-247.343C277.061,-230.663 281.931,-208.281 290.386,-190 311.375,-144.615 351.58,-99.4996 368.997,-81.1146"/>
<polygon fill="midnightblue" stroke="midnightblue" points="270.889,-246.98 272.906,-257.381 277.816,-247.992 270.889,-246.98"/>
</g>
<!-- Node25 -->
<g id="node25" class="node"><title>Node25</title>
<g id="a_node25"><a xlink:href="_n_u_l_l_data_model_8cpp.html" target="_top" xlink:title="plugins/datamodel/null\l/NULLDataModel.cpp">
<polygon fill="white" stroke="black" points="299.386,-190.5 299.386,-220.5 415.386,-220.5 415.386,-190.5 299.386,-190.5"/>
<text text-anchor="start" x="307.386" y="-208.5" font-family="Helvetica,sans-Serif" font-size="10.00">plugins/datamodel/null</text>
<text text-anchor="middle" x="357.386" y="-197.5" font-family="Helvetica,sans-Serif" font-size="10.00">/NULLDataModel.cpp</text>
</a>
</g>
</g>
<!-- Node24&#45;&gt;Node25 -->
<g id="edge26" class="edge"><title>Node24&#45;&gt;Node25</title>
<path fill="none" stroke="midnightblue" d="M298.287,-251.168C311.437,-241.228 326.936,-229.514 338.761,-220.577"/>
<polygon fill="midnightblue" stroke="midnightblue" points="295.914,-248.574 290.046,-257.396 300.134,-254.158 295.914,-248.574"/>
</g>
<!-- Node27&#45;&gt;Node3 -->
<g id="edge31" class="edge"><title>Node27&#45;&gt;Node3</title>
<path fill="none" stroke="midnightblue" d="M864.382,-252.915C861.706,-240.488 858.309,-224.717 856.244,-215.127"/>
<polygon fill="midnightblue" stroke="midnightblue" points="860.97,-253.695 866.497,-262.734 867.813,-252.221 860.97,-253.695"/>
</g>
<!-- Node27&#45;&gt;Node4 -->
<g id="edge30" class="edge"><title>Node27&#45;&gt;Node4</title>
<path fill="none" stroke="midnightblue" d="M907.309,-260.108C996.048,-234.135 1211.72,-171.011 1290.21,-148.04"/>
<polygon fill="midnightblue" stroke="midnightblue" points="906.244,-256.773 897.629,-262.941 908.21,-263.491 906.244,-256.773"/>
</g>
<!-- Node27&#45;&gt;Node8 -->
<g id="edge32" class="edge"><title>Node27&#45;&gt;Node8</title>
<path fill="none" stroke="midnightblue" d="M843.344,-258.066C824.768,-248.025 798.874,-233.87 776.386,-221 753.033,-207.636 749.78,-198.892 724.386,-190 613.036,-151.01 567.456,-205.653 461.386,-154 425.762,-136.653 395.671,-98.4453 383.353,-81.2221"/>
<polygon fill="midnightblue" stroke="midnightblue" points="841.871,-261.248 852.334,-262.913 845.193,-255.087 841.871,-261.248"/>
</g>
</g>
</svg>
        <g id="navigator" transform="translate(0 0)" fill="#404254">
                <rect fill="#f2f5e9" fill-opacity="0.5" stroke="#606060" stroke-width=".5" x="0" y="0" width="60" height="60"/>
                <use id="zoomplus" xlink:href="#zoomPlus" x="17" y="9" onmousedown="handleZoom(evt,'in')"/>
                <use id="zoomminus" xlink:href="#zoomMin" x="42" y="9" onmousedown="handleZoom(evt,'out')"/>
                <use id="reset" xlink:href="#resetDef" x="30" y="36" onmousedown="handleReset()"/>
                <g id="arrowUp" xlink:href="#dirArrow" transform="translate(30 24)" onmousedown="handlePan(0,-1)">
                  <use xlink:href="#rim" fill="#404040">
                        <set attributeName="fill" to="#808080" begin="arrowUp.mouseover" end="arrowUp.mouseout"/>
                  </use>
                  <path fill="none" stroke="white" stroke-width="1.5" d="M0,-3.0v7 M-2.5,-0.5L0,-3.0L2.5,-0.5"/>
                </g>
                <g id="arrowRight" xlink:href="#dirArrow" transform="rotate(90) translate(36 -43)" onmousedown="handlePan(1,0)">
                  <use xlink:href="#rim" fill="#404040">
                        <set attributeName="fill" to="#808080" begin="arrowRight.mouseover" end="arrowRight.mouseout"/>
                  </use>
                  <path fill="none" stroke="white" stroke-width="1.5" d="M0,-3.0v7 M-2.5,-0.5L0,-3.0L2.5,-0.5"/>
                </g>
                <g id="arrowDown" xlink:href="#dirArrow" transform="rotate(180) translate(-30 -48)" onmousedown="handlePan(0,1)">
                  <use xlink:href="#rim" fill="#404040">
                        <set attributeName="fill" to="#808080" begin="arrowDown.mouseover" end="arrowDown.mouseout"/>
                  </use>
                  <path fill="none" stroke="white" stroke-width="1.5" d="M0,-3.0v7 M-2.5,-0.5L0,-3.0L2.5,-0.5"/>
                </g>
                <g id="arrowLeft" xlink:href="#dirArrow" transform="rotate(270) translate(-36 17)" onmousedown="handlePan(-1,0)">
                  <use xlink:href="#rim" fill="#404040">
                        <set attributeName="fill" to="#808080" begin="arrowLeft.mouseover" end="arrowLeft.mouseout"/>
                  </use>
                  <path fill="none" stroke="white" stroke-width="1.5" d="M0,-3.0v7 M-2.5,-0.5L0,-3.0L2.5,-0.5"/>
                </g>
        </g>
        <svg viewBox="0 0 15 15" width="100%" height="30px" preserveAspectRatio="xMaxYMin meet">
         <g id="arrow_out" transform="scale(0.3 0.3)">
          <a xlink:href="_invoker_8h__dep__incl_org.svg" target="_base">
           <rect id="button" ry="5" rx="5" y="6" x="6" height="38" width="38"
                fill="#f2f5e9" fill-opacity="0.5" stroke="#606060" stroke-width="1.0"/>
           <path id="arrow"
             d="M 11.500037,31.436501 C 11.940474,20.09759 22.043105,11.32322 32.158766,21.979434 L 37.068811,17.246167 C 37.068811,17.246167 37.088388,32 37.088388,32 L 22.160133,31.978069 C 22.160133,31.978069 26.997745,27.140456 26.997745,27.140456 C 18.528582,18.264221 13.291696,25.230495 11.500037,31.436501 z"
             style="fill:#404040;"/>
          </a>
         </g>
        </svg>
</svg>
