<?xml version="1.0" encoding="UTF-8" standalone="no"?>
<!DOCTYPE svg PUBLIC "-//W3C//DTD SVG 1.1//EN"
 "http://www.w3.org/Graphics/SVG/1.1/DTD/svg11.dtd">
<!-- Generated by graphviz version 2.40.1 (20161225.0304)
 -->
<!-- Title: plugins/Invoker.cpp Pages: 1 -->
<svg width="938pt" height="420pt"
 viewBox="0.00 0.00 938.21 420.00" xmlns="http://www.w3.org/2000/svg" xmlns:xlink="http://www.w3.org/1999/xlink">
<g id="graph0" class="graph" transform="scale(1 1) rotate(0) translate(4 416)">
<title>plugins/Invoker.cpp</title>
<polygon fill="#ffffff" stroke="transparent" points="-4,4 -4,-416 934.2131,-416 934.2131,4 -4,4"/>
<!-- Node0 -->
<g id="node1" class="node">
<title>Node0</title>
<polygon fill="#bfbfbf" stroke="#000000" points="662.2131,-392.5 662.2131,-411.5 765.2131,-411.5 765.2131,-392.5 662.2131,-392.5"/>
<text text-anchor="middle" x="713.7131" y="-399.5" font-family="Helvetica,sans-Serif" font-size="10.00" fill="#000000">plugins/Invoker.cpp</text>
</g>
<!-- Node1 -->
<g id="node2" class="node">
<title>Node1</title>
<g id="a_node2"><a xlink:href="_invoker_8h.html" target="_top" xlink:title="Invoker.h">
<polygon fill="#ffffff" stroke="#000000" points="641.7131,-336.5 641.7131,-355.5 699.7131,-355.5 699.7131,-336.5 641.7131,-336.5"/>
<text text-anchor="middle" x="670.7131" y="-343.5" font-family="Helvetica,sans-Serif" font-size="10.00" fill="#000000">Invoker.h</text>
</a>
</g>
</g>
<!-- Node0&#45;&gt;Node1 -->
<g id="edge1" class="edge">
<title>Node0&#45;&gt;Node1</title>
<path fill="none" stroke="#191970" d="M706.223,-392.2455C700.1805,-384.3761 691.5228,-373.101 684.269,-363.6542"/>
<polygon fill="#191970" stroke="#191970" points="686.9836,-361.4426 678.1173,-355.6427 681.4315,-365.7058 686.9836,-361.4426"/>
</g>
<!-- Node18 -->
<g id="node19" class="node">
<title>Node18</title>
<g id="a_node19"><a xlink:href="_invoker_impl_8h.html" target="_top" xlink:title="InvokerImpl.h">
<polygon fill="#ffffff" stroke="#000000" points="726.2131,-336.5 726.2131,-355.5 803.2131,-355.5 803.2131,-336.5 726.2131,-336.5"/>
<text text-anchor="middle" x="764.7131" y="-343.5" font-family="Helvetica,sans-Serif" font-size="10.00" fill="#000000">InvokerImpl.h</text>
</a>
</g>
</g>
<!-- Node0&#45;&gt;Node18 -->
<g id="edge30" class="edge">
<title>Node0&#45;&gt;Node18</title>
<path fill="none" stroke="#191970" d="M722.5966,-392.2455C729.9096,-384.2155 740.4522,-372.6394 749.1598,-363.0781"/>
<polygon fill="#191970" stroke="#191970" points="751.7857,-365.3928 755.9314,-355.6427 746.6103,-360.6795 751.7857,-365.3928"/>
</g>
<!-- Node2 -->
<g id="node3" class="node">
<title>Node2</title>
<g id="a_node3"><a xlink:href="_common_8h.html" target="_top" xlink:title="uscxml/Common.h">
<polygon fill="#ffffff" stroke="#000000" points="539.2131,-56.5 539.2131,-75.5 638.2131,-75.5 638.2131,-56.5 539.2131,-56.5"/>
<text text-anchor="middle" x="588.7131" y="-63.5" font-family="Helvetica,sans-Serif" font-size="10.00" fill="#000000">uscxml/Common.h</text>
</a>
</g>
</g>
<!-- Node1&#45;&gt;Node2 -->
<g id="edge2" class="edge">
<title>Node1&#45;&gt;Node2</title>
<path fill="none" stroke="#191970" d="M677.8347,-336.4813C702.3033,-302.5354 778.5832,-185.5229 725.7131,-112 715.8566,-98.2933 678.5024,-86.2854 645.2852,-77.978"/>
<polygon fill="#191970" stroke="#191970" points="645.6872,-74.4742 635.1442,-75.5209 644.0388,-81.2774 645.6872,-74.4742"/>
</g>
<!-- Node5 -->
<g id="node6" class="node">
<title>Node5</title>
<g id="a_node6"><a xlink:href="_event_handler_8h.html" target="_top" xlink:title="uscxml/plugins/EventHandler.h">
<polygon fill="#ffffff" stroke="#000000" points="472.7131,-280.5 472.7131,-299.5 626.7131,-299.5 626.7131,-280.5 472.7131,-280.5"/>
<text text-anchor="middle" x="549.7131" y="-287.5" font-family="Helvetica,sans-Serif" font-size="10.00" fill="#000000">uscxml/plugins/EventHandler.h</text>
</a>
</g>
</g>
<!-- Node1&#45;&gt;Node5 -->
<g id="edge5" class="edge">
<title>Node1&#45;&gt;Node5</title>
<path fill="none" stroke="#191970" d="M649.9124,-336.3733C630.4888,-327.3838 601.2907,-313.8706 579.4166,-303.7471"/>
<polygon fill="#191970" stroke="#191970" points="580.7875,-300.5249 570.2423,-299.5011 577.8474,-306.8776 580.7875,-300.5249"/>
</g>
<!-- Node6 -->
<g id="node7" class="node">
<title>Node6</title>
<g id="a_node7"><a xlink:href="_event_8h.html" target="_top" xlink:title="uscxml/messages/Event.h">
<polygon fill="#ffffff" stroke="#000000" points="583.2131,-224.5 583.2131,-243.5 716.2131,-243.5 716.2131,-224.5 583.2131,-224.5"/>
<text text-anchor="middle" x="649.7131" y="-231.5" font-family="Helvetica,sans-Serif" font-size="10.00" fill="#000000">uscxml/messages/Event.h</text>
</a>
</g>
</g>
<!-- Node1&#45;&gt;Node6 -->
<g id="edge29" class="edge">
<title>Node1&#45;&gt;Node6</title>
<path fill="none" stroke="#191970" d="M668.9226,-336.4509C665.4821,-318.1013 657.8863,-277.5908 653.3448,-253.3693"/>
<polygon fill="#191970" stroke="#191970" points="656.782,-252.7086 651.499,-243.5249 649.9019,-253.9986 656.782,-252.7086"/>
</g>
<!-- Node3 -->
<g id="node4" class="node">
<title>Node3</title>
<polygon fill="#ffffff" stroke="#bfbfbf" points="514.7131,-.5 514.7131,-19.5 586.7131,-19.5 586.7131,-.5 514.7131,-.5"/>
<text text-anchor="middle" x="550.7131" y="-7.5" font-family="Helvetica,sans-Serif" font-size="10.00" fill="#000000">sys/socket.h</text>
</g>
<!-- Node2&#45;&gt;Node3 -->
<g id="edge3" class="edge">
<title>Node2&#45;&gt;Node3</title>
<path fill="none" stroke="#191970" d="M582.094,-56.2455C576.8085,-48.4564 569.2589,-37.3308 562.8893,-27.9439"/>
<polygon fill="#191970" stroke="#191970" points="565.7675,-25.9522 557.2563,-19.6427 559.9752,-29.8827 565.7675,-25.9522"/>
</g>
<!-- Node4 -->
<g id="node5" class="node">
<title>Node4</title>
<polygon fill="#ffffff" stroke="#bfbfbf" points="604.7131,-.5 604.7131,-19.5 648.7131,-19.5 648.7131,-.5 604.7131,-.5"/>
<text text-anchor="middle" x="626.7131" y="-7.5" font-family="Helvetica,sans-Serif" font-size="10.00" fill="#000000">cmath</text>
</g>
<!-- Node2&#45;&gt;Node4 -->
<g id="edge4" class="edge">
<title>Node2&#45;&gt;Node4</title>
<path fill="none" stroke="#191970" d="M595.3322,-56.2455C600.6176,-48.4564 608.1672,-37.3308 614.5368,-27.9439"/>
<polygon fill="#191970" stroke="#191970" points="617.4509,-29.8827 620.1698,-19.6427 611.6586,-25.9522 617.4509,-29.8827"/>
</g>
<!-- Node5&#45;&gt;Node2 -->
<g id="edge6" class="edge">
<title>Node5&#45;&gt;Node2</title>
<path fill="none" stroke="#191970" d="M551.3889,-280.375C557.3018,-246.4133 577.266,-131.7472 585.3112,-85.5392"/>
<polygon fill="#191970" stroke="#191970" points="588.7763,-86.0413 587.0435,-75.5891 581.8801,-84.8406 588.7763,-86.0413"/>
</g>
<!-- Node5&#45;&gt;Node6 -->
<g id="edge7" class="edge">
<title>Node5&#45;&gt;Node6</title>
<path fill="none" stroke="#191970" d="M567.1317,-280.2455C582.7616,-271.4928 605.9149,-258.527 623.7316,-248.5496"/>
<polygon fill="#191970" stroke="#191970" points="625.4791,-251.5825 632.494,-243.6427 622.0588,-245.475 625.4791,-251.5825"/>
</g>
<!-- Node8 -->
<g id="node9" class="node">
<title>Node8</title>
<polygon fill="#ffffff" stroke="#bfbfbf" points="22.2131,-112.5 22.2131,-131.5 51.2131,-131.5 51.2131,-112.5 22.2131,-112.5"/>
<text text-anchor="middle" x="36.7131" y="-119.5" font-family="Helvetica,sans-Serif" font-size="10.00" fill="#000000">list</text>
</g>
<!-- Node5&#45;&gt;Node8 -->
<g id="edge26" class="edge">
<title>Node5&#45;&gt;Node8</title>
<path fill="none" stroke="#191970" d="M520.6621,-280.4862C428.897,-250.4345 146.2884,-157.8843 61.2014,-130.0196"/>
<polygon fill="#191970" stroke="#191970" points="62.2065,-126.6659 51.6138,-126.8798 60.0279,-133.3182 62.2065,-126.6659"/>
</g>
<!-- Node10 -->
<g id="node11" class="node">
<title>Node10</title>
<polygon fill="#ffffff" stroke="#bfbfbf" points="53.2131,-56.5 53.2131,-75.5 106.2131,-75.5 106.2131,-56.5 53.2131,-56.5"/>
<text text-anchor="middle" x="79.7131" y="-63.5" font-family="Helvetica,sans-Serif" font-size="10.00" fill="#000000">memory</text>
</g>
<!-- Node5&#45;&gt;Node10 -->
<g id="edge28" class="edge">
<title>Node5&#45;&gt;Node10</title>
<path fill="none" stroke="#191970" d="M472.7069,-284.8111C402.1535,-278.8648 295.2345,-266.8384 204.7131,-244 136.5209,-226.7953 114.8805,-227.5313 56.7131,-188 23.0691,-165.1352 -14.0497,-147.5549 5.7131,-112 13.9723,-97.1409 29.2411,-86.463 43.7734,-79.1588"/>
<polygon fill="#191970" stroke="#191970" points="45.5239,-82.2056 53.1357,-74.836 42.5896,-75.8503 45.5239,-82.2056"/>
</g>
<!-- Node13 -->
<g id="node14" class="node">
<title>Node13</title>
<polygon fill="#ffffff" stroke="#bfbfbf" points="160.2131,-56.5 160.2131,-75.5 201.2131,-75.5 201.2131,-56.5 160.2131,-56.5"/>
<text text-anchor="middle" x="180.7131" y="-63.5" font-family="Helvetica,sans-Serif" font-size="10.00" fill="#000000">string</text>
</g>
<!-- Node5&#45;&gt;Node13 -->
<g id="edge27" class="edge">
<title>Node5&#45;&gt;Node13</title>
<path fill="none" stroke="#191970" d="M482.4867,-280.4775C351.1183,-260.3249 68.2865,-208.8175 12.7131,-132 7.5029,-124.7982 7.3211,-119.0668 12.7131,-112 21.1369,-100.9595 103.97,-82.0791 150.0912,-72.2941"/>
<polygon fill="#191970" stroke="#191970" points="151.0816,-75.6626 160.1483,-70.1811 149.6422,-68.8121 151.0816,-75.6626"/>
</g>
<!-- Node7 -->
<g id="node8" class="node">
<title>Node7</title>
<g id="a_node8"><a xlink:href="_data_8h.html" target="_top" xlink:title="uscxml/messages/Data.h">
<polygon fill="#ffffff" stroke="#000000" points="306.7131,-168.5 306.7131,-187.5 434.7131,-187.5 434.7131,-168.5 306.7131,-168.5"/>
<text text-anchor="middle" x="370.7131" y="-175.5" font-family="Helvetica,sans-Serif" font-size="10.00" fill="#000000">uscxml/messages/Data.h</text>
</a>
</g>
</g>
<!-- Node6&#45;&gt;Node7 -->
<g id="edge8" class="edge">
<title>Node6&#45;&gt;Node7</title>
<path fill="none" stroke="#191970" d="M602.0683,-224.4369C553.9183,-214.7724 479.486,-199.8326 428.1137,-189.5213"/>
<polygon fill="#191970" stroke="#191970" points="428.6546,-186.0601 418.1614,-187.5237 427.277,-192.9232 428.6546,-186.0601"/>
</g>
<!-- Node17 -->
<g id="node18" class="node">
<title>Node17</title>
<g id="a_node18"><a xlink:href="_u_u_i_d_8h.html" target="_top" xlink:title="uscxml/util/UUID.h">
<polygon fill="#ffffff" stroke="#000000" points="617.2131,-112.5 617.2131,-131.5 716.2131,-131.5 716.2131,-112.5 617.2131,-112.5"/>
<text text-anchor="middle" x="666.7131" y="-119.5" font-family="Helvetica,sans-Serif" font-size="10.00" fill="#000000">uscxml/util/UUID.h</text>
</a>
</g>
</g>
<!-- Node6&#45;&gt;Node17 -->
<g id="edge23" class="edge">
<title>Node6&#45;&gt;Node17</title>
<path fill="none" stroke="#191970" d="M651.1625,-224.4509C653.9351,-206.184 660.0413,-165.9553 663.7233,-141.6976"/>
<polygon fill="#191970" stroke="#191970" points="667.2269,-141.9369 665.2673,-131.5249 660.3062,-140.8864 667.2269,-141.9369"/>
</g>
<!-- Node7&#45;&gt;Node2 -->
<g id="edge13" class="edge">
<title>Node7&#45;&gt;Node2</title>
<path fill="none" stroke="#191970" d="M433.7876,-168.4823C464.7385,-161.7407 501.5397,-150.4895 530.7131,-132 550.1322,-119.6926 566.7895,-99 577.2059,-84.0618"/>
<polygon fill="#191970" stroke="#191970" points="580.1962,-85.8867 582.854,-75.6307 574.3805,-81.9907 580.1962,-85.8867"/>
</g>
<!-- Node7&#45;&gt;Node8 -->
<g id="edge9" class="edge">
<title>Node7&#45;&gt;Node8</title>
<path fill="none" stroke="#191970" d="M306.6728,-171.7789C244.496,-164.9351 147.7497,-152.1519 65.7131,-132 64.2262,-131.6347 62.7075,-131.2254 61.1829,-130.7865"/>
<polygon fill="#191970" stroke="#191970" points="61.902,-127.3414 51.3107,-127.6147 59.7608,-134.0059 61.902,-127.3414"/>
</g>
<!-- Node9 -->
<g id="node10" class="node">
<title>Node9</title>
<polygon fill="#ffffff" stroke="#bfbfbf" points="404.7131,-112.5 404.7131,-131.5 440.7131,-131.5 440.7131,-112.5 404.7131,-112.5"/>
<text text-anchor="middle" x="422.7131" y="-119.5" font-family="Helvetica,sans-Serif" font-size="10.00" fill="#000000">map</text>
</g>
<!-- Node7&#45;&gt;Node9 -->
<g id="edge10" class="edge">
<title>Node7&#45;&gt;Node9</title>
<path fill="none" stroke="#191970" d="M379.7708,-168.2455C387.2272,-160.2155 397.9765,-148.6394 406.8548,-139.0781"/>
<polygon fill="#191970" stroke="#191970" points="409.5194,-141.3522 413.7592,-131.6427 404.3898,-136.589 409.5194,-141.3522"/>
</g>
<!-- Node7&#45;&gt;Node10 -->
<g id="edge11" class="edge">
<title>Node7&#45;&gt;Node10</title>
<path fill="none" stroke="#191970" d="M306.7091,-174.9092C236.1614,-170.2005 128.6731,-158.7587 98.7131,-132 85.8154,-120.4805 81.4334,-100.8302 80.0579,-85.9591"/>
<polygon fill="#191970" stroke="#191970" points="83.5396,-85.5272 79.5008,-75.7324 76.55,-85.908 83.5396,-85.5272"/>
</g>
<!-- Node11 -->
<g id="node12" class="node">
<title>Node11</title>
<polygon fill="#ffffff" stroke="#bfbfbf" points="459.2131,-112.5 459.2131,-131.5 522.2131,-131.5 522.2131,-112.5 459.2131,-112.5"/>
<text text-anchor="middle" x="490.7131" y="-119.5" font-family="Helvetica,sans-Serif" font-size="10.00" fill="#000000">type_traits</text>
</g>
<!-- Node7&#45;&gt;Node11 -->
<g id="edge12" class="edge">
<title>Node7&#45;&gt;Node11</title>
<path fill="none" stroke="#191970" d="M391.3418,-168.3733C410.6049,-159.3838 439.5617,-145.8706 461.255,-135.7471"/>
<polygon fill="#191970" stroke="#191970" points="462.7718,-138.9017 470.3535,-131.5011 459.8116,-132.5584 462.7718,-138.9017"/>
</g>
<!-- Node12 -->
<g id="node13" class="node">
<title>Node12</title>
<g id="a_node13"><a xlink:href="_convenience_8h.html" target="_top" xlink:title="uscxml/util/Convenience.h">
<polygon fill="#ffffff" stroke="#000000" points="253.2131,-112.5 253.2131,-131.5 386.2131,-131.5 386.2131,-112.5 253.2131,-112.5"/>
<text text-anchor="middle" x="319.7131" y="-119.5" font-family="Helvetica,sans-Serif" font-size="10.00" fill="#000000">uscxml/util/Convenience.h</text>
</a>
</g>
</g>
<!-- Node7&#45;&gt;Node12 -->
<g id="edge14" class="edge">
<title>Node7&#45;&gt;Node12</title>
<path fill="none" stroke="#191970" d="M361.8295,-168.2455C354.5165,-160.2155 343.9739,-148.6394 335.2664,-139.0781"/>
<polygon fill="#191970" stroke="#191970" points="337.8158,-136.6795 328.4948,-131.6427 332.6404,-141.3928 337.8158,-136.6795"/>
</g>
<!-- Node16 -->
<g id="node17" class="node">
<title>Node16</title>
<g id="a_node17"><a xlink:href="_blob_8h.html" target="_top" xlink:title="uscxml/messages/Blob.h">
<polygon fill="#ffffff" stroke="#000000" points="108.2131,-112.5 108.2131,-131.5 235.2131,-131.5 235.2131,-112.5 108.2131,-112.5"/>
<text text-anchor="middle" x="171.7131" y="-119.5" font-family="Helvetica,sans-Serif" font-size="10.00" fill="#000000">uscxml/messages/Blob.h</text>
</a>
</g>
</g>
<!-- Node7&#45;&gt;Node16 -->
<g id="edge19" class="edge">
<title>Node7&#45;&gt;Node16</title>
<path fill="none" stroke="#191970" d="M336.5038,-168.3733C302.9833,-158.9404 251.7626,-144.5265 215.3321,-134.2747"/>
<polygon fill="#191970" stroke="#191970" points="216.0502,-130.8409 205.476,-131.5011 214.154,-137.5792 216.0502,-130.8409"/>
</g>
<!-- Node12&#45;&gt;Node2 -->
<g id="edge15" class="edge">
<title>Node12&#45;&gt;Node2</title>
<path fill="none" stroke="#191970" d="M365.6502,-112.4369C411.9776,-102.7925 483.5399,-87.8948 533.0599,-77.5858"/>
<polygon fill="#191970" stroke="#191970" points="533.8887,-80.9884 542.9654,-75.5237 532.462,-74.1353 533.8887,-80.9884"/>
</g>
<!-- Node12&#45;&gt;Node13 -->
<g id="edge16" class="edge">
<title>Node12&#45;&gt;Node13</title>
<path fill="none" stroke="#191970" d="M295.8181,-112.3733C272.3825,-102.9316 236.5603,-88.4996 211.1095,-78.246"/>
<polygon fill="#191970" stroke="#191970" points="212.1591,-74.8956 201.5756,-74.4051 209.5432,-81.3885 212.1591,-74.8956"/>
</g>
<!-- Node14 -->
<g id="node15" class="node">
<title>Node14</title>
<polygon fill="#ffffff" stroke="#bfbfbf" points="332.2131,-56.5 332.2131,-75.5 371.2131,-75.5 371.2131,-56.5 332.2131,-56.5"/>
<text text-anchor="middle" x="351.7131" y="-63.5" font-family="Helvetica,sans-Serif" font-size="10.00" fill="#000000">limits</text>
</g>
<!-- Node12&#45;&gt;Node14 -->
<g id="edge17" class="edge">
<title>Node12&#45;&gt;Node14</title>
<path fill="none" stroke="#191970" d="M325.287,-112.2455C329.6462,-104.617 335.8341,-93.7881 341.1264,-84.5267"/>
<polygon fill="#191970" stroke="#191970" points="344.2804,-86.0616 346.203,-75.6427 338.2027,-82.5886 344.2804,-86.0616"/>
</g>
<!-- Node15 -->
<g id="node16" class="node">
<title>Node15</title>
<polygon fill="#ffffff" stroke="#bfbfbf" points="261.7131,-56.5 261.7131,-75.5 313.7131,-75.5 313.7131,-56.5 261.7131,-56.5"/>
<text text-anchor="middle" x="287.7131" y="-63.5" font-family="Helvetica,sans-Serif" font-size="10.00" fill="#000000">sstream</text>
</g>
<!-- Node12&#45;&gt;Node15 -->
<g id="edge18" class="edge">
<title>Node12&#45;&gt;Node15</title>
<path fill="none" stroke="#191970" d="M314.1391,-112.2455C309.7799,-104.617 303.592,-93.7881 298.2998,-84.5267"/>
<polygon fill="#191970" stroke="#191970" points="301.2235,-82.5886 293.2232,-75.6427 295.1458,-86.0616 301.2235,-82.5886"/>
</g>
<!-- Node16&#45;&gt;Node2 -->
<g id="edge22" class="edge">
<title>Node16&#45;&gt;Node2</title>
<path fill="none" stroke="#191970" d="M235.3137,-113.1474C238.1521,-112.7584 240.962,-112.3744 243.7131,-112 343.6609,-98.3961 459.9558,-82.9745 528.7812,-73.8901"/>
<polygon fill="#191970" stroke="#191970" points="529.5404,-77.3204 538.9966,-72.5423 528.6247,-70.3805 529.5404,-77.3204"/>
</g>
<!-- Node16&#45;&gt;Node10 -->
<g id="edge21" class="edge">
<title>Node16&#45;&gt;Node10</title>
<path fill="none" stroke="#191970" d="M155.6879,-112.2455C141.5723,-103.6534 120.7867,-91.0014 104.5232,-81.1018"/>
<polygon fill="#191970" stroke="#191970" points="105.9164,-77.8525 95.5546,-75.6427 102.2768,-83.8319 105.9164,-77.8525"/>
</g>
<!-- Node16&#45;&gt;Node13 -->
<g id="edge20" class="edge">
<title>Node16&#45;&gt;Node13</title>
<path fill="none" stroke="#191970" d="M173.2808,-112.2455C174.4551,-104.9382 176.1015,-94.6944 177.5463,-85.7046"/>
<polygon fill="#191970" stroke="#191970" points="181.0321,-86.0714 179.1634,-75.6427 174.1208,-84.9606 181.0321,-86.0714"/>
</g>
<!-- Node17&#45;&gt;Node2 -->
<g id="edge24" class="edge">
<title>Node17&#45;&gt;Node2</title>
<path fill="none" stroke="#191970" d="M653.1265,-112.2455C641.3826,-103.814 624.1932,-91.4729 610.5249,-81.6598"/>
<polygon fill="#191970" stroke="#191970" points="612.3084,-78.6316 602.1439,-75.6427 608.226,-84.3179 612.3084,-78.6316"/>
</g>
<!-- Node17&#45;&gt;Node13 -->
<g id="edge25" class="edge">
<title>Node17&#45;&gt;Node13</title>
<path fill="none" stroke="#191970" d="M616.9543,-116.9154C539.1607,-108.8659 384.0322,-92.4118 252.7131,-76 239.2122,-74.3127 224.3129,-72.273 211.5876,-70.4769"/>
<polygon fill="#191970" stroke="#191970" points="211.8817,-66.9836 201.4881,-69.0387 210.8947,-73.9137 211.8817,-66.9836"/>
</g>
<!-- Node18&#45;&gt;Node2 -->
<g id="edge32" class="edge">
<title>Node18&#45;&gt;Node2</title>
<path fill="none" stroke="#191970" d="M773.1109,-336.3984C780.5106,-327.5003 791.1117,-313.6206 797.7131,-300 811.026,-272.5315 816.7131,-264.5246 816.7131,-234 816.7131,-234 816.7131,-234 816.7131,-178 816.7131,-134.5898 782.5066,-133.3563 744.7131,-112 715.0072,-95.2138 678.5866,-84.0254 648.4094,-76.8903"/>
<polygon fill="#191970" stroke="#191970" points="648.9603,-73.4264 638.4334,-74.6238 647.4094,-80.2524 648.9603,-73.4264"/>
</g>
<!-- Node18&#45;&gt;Node5 -->
<g id="edge33" class="edge">
<title>Node18&#45;&gt;Node5</title>
<path fill="none" stroke="#191970" d="M727.7533,-336.3733C691.3056,-326.8799 635.4885,-312.3415 596.0842,-302.0781"/>
<polygon fill="#191970" stroke="#191970" points="596.7499,-298.6348 586.1906,-299.5011 594.9855,-305.4087 596.7499,-298.6348"/>
</g>
<!-- Node18&#45;&gt;Node6 -->
<g id="edge34" class="edge">
<title>Node18&#45;&gt;Node6</title>
<path fill="none" stroke="#191970" d="M754.9082,-336.4509C735.3033,-317.3574 691.0615,-274.2697 666.6616,-250.5063"/>
<polygon fill="#191970" stroke="#191970" points="669.099,-247.9946 659.4931,-243.5249 664.215,-253.0093 669.099,-247.9946"/>
</g>
<!-- Node19 -->
<g id="node20" class="node">
<title>Node19</title>
<polygon fill="#ffffff" stroke="#bfbfbf" points="845.2131,-280.5 845.2131,-299.5 930.2131,-299.5 930.2131,-280.5 845.2131,-280.5"/>
<text text-anchor="middle" x="887.7131" y="-287.5" font-family="Helvetica,sans-Serif" font-size="10.00" fill="#000000">uscxml/config.h</text>
</g>
<!-- Node18&#45;&gt;Node19 -->
<g id="edge31" class="edge">
<title>Node18&#45;&gt;Node19</title>
<path fill="none" stroke="#191970" d="M785.8575,-336.3733C805.6022,-327.3838 835.2829,-313.8706 857.5185,-303.7471"/>
<polygon fill="#191970" stroke="#191970" points="859.1937,-306.8302 866.8445,-299.5011 856.2931,-300.4594 859.1937,-306.8302"/>
</g>
<!-- Node20 -->
<g id="node21" class="node">
<title>Node20</title>
<polygon fill="#ffffff" stroke="#bfbfbf" points="758.7131,-280.5 758.7131,-299.5 788.7131,-299.5 788.7131,-280.5 758.7131,-280.5"/>
<text text-anchor="middle" x="773.7131" y="-287.5" font-family="Helvetica,sans-Serif" font-size="10.00" fill="#000000">set</text>
</g>
<!-- Node18&#45;&gt;Node20 -->
<g id="edge35" class="edge">
<title>Node18&#45;&gt;Node20</title>
<path fill="none" stroke="#191970" d="M766.2808,-336.2455C767.4551,-328.9382 769.1015,-318.6944 770.5463,-309.7046"/>
<polygon fill="#191970" stroke="#191970" points="774.0321,-310.0714 772.1634,-299.6427 767.1208,-308.9606 774.0321,-310.0714"/>
</g>
</g>
</svg>
