<?xml version="1.0" encoding="UTF-8" standalone="no"?>
<!DOCTYPE svg PUBLIC "-//W3C//DTD SVG 1.1//EN"
 "http://www.w3.org/Graphics/SVG/1.1/DTD/svg11.dtd">
<!-- Generated by graphviz version 2.38.0 (20140413.2041)
 -->
<!-- Title: plugins/Invoker.cpp Pages: 1 -->
<svg width="3326pt" height="844pt"
 viewBox="0.00 0.00 3325.88 844.00" xmlns="http://www.w3.org/2000/svg" xmlns:xlink="http://www.w3.org/1999/xlink">
<g id="graph0" class="graph" transform="scale(1 1) rotate(0) translate(4 840)">
<title>plugins/Invoker.cpp</title>
<polygon fill="white" stroke="none" points="-4,4 -4,-840 3321.88,-840 3321.88,4 -4,4"/>
<!-- Node1 -->
<g id="node1" class="node"><title>Node1</title>
<polygon fill="#bfbfbf" stroke="black" points="903.38,-816.5 903.38,-835.5 1006.38,-835.5 1006.38,-816.5 903.38,-816.5"/>
<text text-anchor="middle" x="954.88" y="-823.5" font-family="Helvetica,sans-Serif" font-size="10.00">plugins/Invoker.cpp</text>
</g>
<!-- Node2 -->
<g id="node2" class="node"><title>Node2</title>
<g id="a_node2"><a xlink:href="_invoker_8h.html" target="_top" xlink:title="Invoker.h">
<polygon fill="white" stroke="black" points="902.88,-386 902.88,-405 960.88,-405 960.88,-386 902.88,-386"/>
<text text-anchor="middle" x="931.88" y="-393" font-family="Helvetica,sans-Serif" font-size="10.00">Invoker.h</text>
</a>
</g>
</g>
<!-- Node1&#45;&gt;Node2 -->
<g id="edge1" class="edge"><title>Node1&#45;&gt;Node2</title>
<path fill="none" stroke="midnightblue" d="M949.39,-816.406C938.005,-797.736 912.88,-751.747 912.88,-709.5 912.88,-709.5 912.88,-709.5 912.88,-523 912.88,-484.273 921.697,-439.609 927.318,-415.066"/>
<polygon fill="midnightblue" stroke="midnightblue" points="930.798,-415.561 929.701,-405.023 923.987,-413.945 930.798,-415.561"/>
</g>
<!-- Node20 -->
<g id="node20" class="node"><title>Node20</title>
<g id="a_node20"><a xlink:href="_invoker_impl_8h.html" target="_top" xlink:title="InvokerImpl.h">
<polygon fill="white" stroke="black" points="959.38,-760.5 959.38,-779.5 1036.38,-779.5 1036.38,-760.5 959.38,-760.5"/>
<text text-anchor="middle" x="997.88" y="-767.5" font-family="Helvetica,sans-Serif" font-size="10.00">InvokerImpl.h</text>
</a>
</g>
</g>
<!-- Node1&#45;&gt;Node20 -->
<g id="edge32" class="edge"><title>Node1&#45;&gt;Node20</title>
<path fill="none" stroke="midnightblue" d="M961.981,-816.083C968.117,-808.377 977.15,-797.033 984.62,-787.653"/>
<polygon fill="midnightblue" stroke="midnightblue" points="987.421,-789.754 990.912,-779.751 981.945,-785.394 987.421,-789.754"/>
</g>
<!-- Node3 -->
<g id="node3" class="node"><title>Node3</title>
<polygon fill="white" stroke="#bfbfbf" points="1583.38,-118 1583.38,-137 1668.38,-137 1668.38,-118 1583.38,-118"/>
<text text-anchor="middle" x="1625.88" y="-125" font-family="Helvetica,sans-Serif" font-size="10.00">uscxml/config.h</text>
</g>
<!-- Node2&#45;&gt;Node3 -->
<g id="edge2" class="edge"><title>Node2&#45;&gt;Node3</title>
<path fill="none" stroke="midnightblue" d="M939.65,-385.96C955.55,-369.064 993.699,-331.416 1033.88,-313 1112.81,-276.827 1151.36,-321.551 1225.88,-277 1273.9,-248.292 1256.45,-207.001 1304.88,-179 1310.66,-175.657 1483.68,-149.605 1573.25,-136.286"/>
<polygon fill="midnightblue" stroke="midnightblue" points="1573.84,-139.737 1583.22,-134.805 1572.81,-132.813 1573.84,-139.737"/>
</g>
<!-- Node4 -->
<g id="node4" class="node"><title>Node4</title>
<g id="a_node4"><a xlink:href="_common_8h.html" target="_top" xlink:title="uscxml/Common.h">
<polygon fill="white" stroke="black" points="1733.38,-56.5 1733.38,-75.5 1832.38,-75.5 1832.38,-56.5 1733.38,-56.5"/>
<text text-anchor="middle" x="1782.88" y="-63.5" font-family="Helvetica,sans-Serif" font-size="10.00">uscxml/Common.h</text>
</a>
</g>
</g>
<!-- Node2&#45;&gt;Node4 -->
<g id="edge3" class="edge"><title>Node2&#45;&gt;Node4</title>
<path fill="none" stroke="midnightblue" d="M919.227,-385.985C885.813,-362.486 800.408,-295.207 839.88,-246 886.032,-188.467 931.248,-231.239 1001.88,-210 1038.79,-198.9 1045.36,-187.825 1082.88,-179 1244.57,-140.971 1301.27,-206.211 1454.88,-143 1475.04,-134.706 1472.97,-120.87 1492.88,-112 1567.56,-78.7283 1662.56,-69.4867 1723.07,-67.2227"/>
<polygon fill="midnightblue" stroke="midnightblue" points="1723.33,-70.7162 1733.21,-66.8965 1723.1,-63.7198 1723.33,-70.7162"/>
</g>
<!-- Node7 -->
<g id="node7" class="node"><title>Node7</title>
<g id="a_node7"><a xlink:href="_event_handler_8h.html" target="_top" xlink:title="uscxml/plugins/EventHandler.h">
<polygon fill="white" stroke="black" points="448.88,-319 448.88,-338 602.88,-338 602.88,-319 448.88,-319"/>
<text text-anchor="middle" x="525.88" y="-326" font-family="Helvetica,sans-Serif" font-size="10.00">uscxml/plugins/EventHandler.h</text>
</a>
</g>
</g>
<!-- Node2&#45;&gt;Node7 -->
<g id="edge6" class="edge"><title>Node2&#45;&gt;Node7</title>
<path fill="none" stroke="midnightblue" d="M902.671,-388.759C888.299,-385.995 870.703,-382.703 854.88,-380 765.483,-364.726 662.045,-349.2 595.382,-339.471"/>
<polygon fill="midnightblue" stroke="midnightblue" points="595.813,-335.997 585.413,-338.02 594.804,-342.924 595.813,-335.997"/>
</g>
<!-- Node8 -->
<g id="node8" class="node"><title>Node8</title>
<g id="a_node8"><a xlink:href="_event_8h.html" target="_top" xlink:title="uscxml/messages/Event.h">
<polygon fill="white" stroke="black" points="849.38,-252 849.38,-271 982.38,-271 982.38,-252 849.38,-252"/>
<text text-anchor="middle" x="915.88" y="-259" font-family="Helvetica,sans-Serif" font-size="10.00">uscxml/messages/Event.h</text>
</a>
</g>
</g>
<!-- Node2&#45;&gt;Node8 -->
<g id="edge30" class="edge"><title>Node2&#45;&gt;Node8</title>
<path fill="none" stroke="midnightblue" d="M930.831,-385.839C928.265,-364.674 921.632,-309.948 918.127,-281.033"/>
<polygon fill="midnightblue" stroke="midnightblue" points="921.591,-280.527 916.913,-271.021 914.642,-281.37 921.591,-280.527"/>
</g>
<!-- Node19 -->
<g id="node19" class="node"><title>Node19</title>
<polygon fill="white" stroke="#bfbfbf" points="1577.38,-252 1577.38,-271 1696.38,-271 1696.38,-252 1577.38,-252"/>
<text text-anchor="middle" x="1636.88" y="-259" font-family="Helvetica,sans-Serif" font-size="10.00">xercesc/dom/DOM.hpp</text>
</g>
<!-- Node2&#45;&gt;Node19 -->
<g id="edge31" class="edge"><title>Node2&#45;&gt;Node19</title>
<path fill="none" stroke="midnightblue" d="M961.276,-388.996C1068.44,-368.932 1439.26,-299.502 1581.1,-272.944"/>
<polygon fill="midnightblue" stroke="midnightblue" points="1582.13,-276.312 1591.31,-271.032 1580.84,-269.432 1582.13,-276.312"/>
</g>
<!-- Node5 -->
<g id="node5" class="node"><title>Node5</title>
<polygon fill="white" stroke="#bfbfbf" points="1708.88,-0.5 1708.88,-19.5 1780.88,-19.5 1780.88,-0.5 1708.88,-0.5"/>
<text text-anchor="middle" x="1744.88" y="-7.5" font-family="Helvetica,sans-Serif" font-size="10.00">sys/socket.h</text>
</g>
<!-- Node4&#45;&gt;Node5 -->
<g id="edge4" class="edge"><title>Node4&#45;&gt;Node5</title>
<path fill="none" stroke="midnightblue" d="M1776.61,-56.083C1771.24,-48.4554 1763.36,-37.2645 1756.8,-27.9408"/>
<polygon fill="midnightblue" stroke="midnightblue" points="1759.66,-25.9149 1751.04,-19.7511 1753.93,-29.9434 1759.66,-25.9149"/>
</g>
<!-- Node6 -->
<g id="node6" class="node"><title>Node6</title>
<polygon fill="white" stroke="#bfbfbf" points="1798.88,-0.5 1798.88,-19.5 1842.88,-19.5 1842.88,-0.5 1798.88,-0.5"/>
<text text-anchor="middle" x="1820.88" y="-7.5" font-family="Helvetica,sans-Serif" font-size="10.00">cmath</text>
</g>
<!-- Node4&#45;&gt;Node6 -->
<g id="edge5" class="edge"><title>Node4&#45;&gt;Node6</title>
<path fill="none" stroke="midnightblue" d="M1789.16,-56.083C1794.52,-48.4554 1802.4,-37.2645 1808.96,-27.9408"/>
<polygon fill="midnightblue" stroke="midnightblue" points="1811.83,-29.9434 1814.72,-19.7511 1806.1,-25.9149 1811.83,-29.9434"/>
</g>
<!-- Node7&#45;&gt;Node4 -->
<g id="edge7" class="edge"><title>Node7&#45;&gt;Node4</title>
<path fill="none" stroke="midnightblue" d="M532.868,-318.782C546.894,-301.91 580.282,-264.8 616.88,-246 682.487,-212.3 707.182,-227.299 778.88,-210 832.01,-197.181 844.049,-188.445 897.88,-179 1068.46,-149.072 1118.91,-188.988 1285.88,-143 1316.74,-134.501 1320.07,-120.673 1350.88,-112 1480.13,-75.6144 1638.6,-68.0748 1723.09,-66.8561"/>
<polygon fill="midnightblue" stroke="midnightblue" points="1723.31,-70.3538 1733.27,-66.735 1723.23,-63.3543 1723.31,-70.3538"/>
</g>
<!-- Node7&#45;&gt;Node8 -->
<g id="edge8" class="edge"><title>Node7&#45;&gt;Node8</title>
<path fill="none" stroke="midnightblue" d="M577.267,-318.936C648.827,-307.009 778.287,-285.432 854.725,-272.693"/>
<polygon fill="midnightblue" stroke="midnightblue" points="855.402,-276.128 864.69,-271.032 854.251,-269.223 855.402,-276.128"/>
</g>
<!-- Node10 -->
<g id="node10" class="node"><title>Node10</title>
<polygon fill="white" stroke="#bfbfbf" points="1725.38,-118 1725.38,-137 1754.38,-137 1754.38,-118 1725.38,-118"/>
<text text-anchor="middle" x="1739.88" y="-125" font-family="Helvetica,sans-Serif" font-size="10.00">list</text>
</g>
<!-- Node7&#45;&gt;Node10 -->
<g id="edge27" class="edge"><title>Node7&#45;&gt;Node10</title>
<path fill="none" stroke="midnightblue" d="M602.903,-327.084C732.497,-325.242 1001.95,-316.49 1225.88,-277 1275.48,-268.253 1286.28,-259.204 1334.88,-246 1396.46,-229.27 1414.79,-234.102 1473.88,-210 1499.5,-199.548 1501.96,-188.689 1527.88,-179 1605.53,-149.979 1632.43,-169.778 1710.88,-143 1712.53,-142.437 1714.2,-141.799 1715.87,-141.111"/>
<polygon fill="midnightblue" stroke="midnightblue" points="1717.55,-144.191 1725.16,-136.819 1714.61,-137.836 1717.55,-144.191"/>
</g>
<!-- Node12 -->
<g id="node12" class="node"><title>Node12</title>
<polygon fill="white" stroke="#bfbfbf" points="87.3804,-56.5 87.3804,-75.5 140.38,-75.5 140.38,-56.5 87.3804,-56.5"/>
<text text-anchor="middle" x="113.88" y="-63.5" font-family="Helvetica,sans-Serif" font-size="10.00">memory</text>
</g>
<!-- Node7&#45;&gt;Node12 -->
<g id="edge29" class="edge"><title>Node7&#45;&gt;Node12</title>
<path fill="none" stroke="midnightblue" d="M448.605,-319.251C348.43,-303.947 177.41,-261.066 99.8804,-143 88.4152,-125.54 96.0732,-101.208 103.835,-84.8202"/>
<polygon fill="midnightblue" stroke="midnightblue" points="107.028,-86.2659 108.511,-75.7754 100.81,-83.051 107.028,-86.2659"/>
</g>
<!-- Node14 -->
<g id="node14" class="node"><title>Node14</title>
<polygon fill="white" stroke="#bfbfbf" points="511.38,-56.5 511.38,-75.5 552.38,-75.5 552.38,-56.5 511.38,-56.5"/>
<text text-anchor="middle" x="531.88" y="-63.5" font-family="Helvetica,sans-Serif" font-size="10.00">string</text>
</g>
<!-- Node7&#45;&gt;Node14 -->
<g id="edge28" class="edge"><title>Node7&#45;&gt;Node14</title>
<path fill="none" stroke="midnightblue" d="M509.382,-318.906C471.974,-298.137 385.551,-242.236 406.88,-179 422.747,-131.96 472.86,-97.9247 504.608,-80.4198"/>
<polygon fill="midnightblue" stroke="midnightblue" points="506.629,-83.3091 513.813,-75.5218 503.341,-77.1295 506.629,-83.3091"/>
</g>
<!-- Node9 -->
<g id="node9" class="node"><title>Node9</title>
<g id="a_node9"><a xlink:href="_data_8h.html" target="_top" xlink:title="uscxml/messages/Data.h">
<polygon fill="white" stroke="black" points="1091.88,-185 1091.88,-204 1219.88,-204 1219.88,-185 1091.88,-185"/>
<text text-anchor="middle" x="1155.88" y="-192" font-family="Helvetica,sans-Serif" font-size="10.00">uscxml/messages/Data.h</text>
</a>
</g>
</g>
<!-- Node8&#45;&gt;Node9 -->
<g id="edge9" class="edge"><title>Node8&#45;&gt;Node9</title>
<path fill="none" stroke="midnightblue" d="M947.751,-251.869C990.635,-240.254 1066.99,-219.576 1114.33,-206.753"/>
<polygon fill="midnightblue" stroke="midnightblue" points="1115.52,-210.056 1124.26,-204.064 1113.69,-203.3 1115.52,-210.056"/>
</g>
<!-- Node18 -->
<g id="node18" class="node"><title>Node18</title>
<g id="a_node18"><a xlink:href="_u_u_i_d_8h.html" target="_top" xlink:title="uscxml/util/UUID.h">
<polygon fill="white" stroke="black" points="933.38,-118 933.38,-137 1032.38,-137 1032.38,-118 933.38,-118"/>
<text text-anchor="middle" x="982.88" y="-125" font-family="Helvetica,sans-Serif" font-size="10.00">uscxml/util/UUID.h</text>
</a>
</g>
</g>
<!-- Node8&#45;&gt;Node18 -->
<g id="edge24" class="edge"><title>Node8&#45;&gt;Node18</title>
<path fill="none" stroke="midnightblue" d="M920.276,-251.839C931.115,-230.486 959.29,-174.977 973.86,-146.271"/>
<polygon fill="midnightblue" stroke="midnightblue" points="977.15,-147.522 978.555,-137.021 970.908,-144.354 977.15,-147.522"/>
</g>
<!-- Node9&#45;&gt;Node3 -->
<g id="edge13" class="edge"><title>Node9&#45;&gt;Node3</title>
<path fill="none" stroke="midnightblue" d="M1199.12,-184.959C1210.41,-182.867 1222.58,-180.733 1233.88,-179 1365.31,-158.839 1399.14,-161.033 1530.88,-143 1544.58,-141.125 1559.37,-138.944 1573.1,-136.852"/>
<polygon fill="midnightblue" stroke="midnightblue" points="1574.01,-140.254 1583.36,-135.276 1572.94,-133.335 1574.01,-140.254"/>
</g>
<!-- Node9&#45;&gt;Node4 -->
<g id="edge14" class="edge"><title>Node9&#45;&gt;Node4</title>
<path fill="none" stroke="midnightblue" d="M1195.78,-184.993C1206.21,-182.9 1217.44,-180.758 1227.88,-179 1345.09,-159.257 1383.86,-190.341 1492.88,-143 1512.87,-134.319 1511.07,-121.096 1530.88,-112 1592.6,-83.6581 1670.43,-73.1178 1723.14,-69.2254"/>
<polygon fill="midnightblue" stroke="midnightblue" points="1723.6,-72.7026 1733.34,-68.5323 1723.12,-65.7187 1723.6,-72.7026"/>
</g>
<!-- Node9&#45;&gt;Node10 -->
<g id="edge10" class="edge"><title>Node9&#45;&gt;Node10</title>
<path fill="none" stroke="midnightblue" d="M1220.05,-187.247C1246.34,-184.688 1277.07,-181.699 1304.88,-179 1470.21,-162.956 1512.93,-169.684 1676.88,-143 1689.69,-140.916 1703.78,-137.757 1715.38,-134.919"/>
<polygon fill="midnightblue" stroke="midnightblue" points="1716.38,-138.276 1725.22,-132.443 1714.67,-131.487 1716.38,-138.276"/>
</g>
<!-- Node11 -->
<g id="node11" class="node"><title>Node11</title>
<polygon fill="white" stroke="#bfbfbf" points="2431.88,-118 2431.88,-137 2467.88,-137 2467.88,-118 2431.88,-118"/>
<text text-anchor="middle" x="2449.88" y="-125" font-family="Helvetica,sans-Serif" font-size="10.00">map</text>
</g>
<!-- Node9&#45;&gt;Node11 -->
<g id="edge11" class="edge"><title>Node9&#45;&gt;Node11</title>
<path fill="none" stroke="midnightblue" d="M1219.99,-186.484C1246.27,-183.81 1277.01,-180.942 1304.88,-179 1683.85,-152.592 1779.39,-160.453 2158.88,-143 2255.35,-138.563 2369.78,-132.679 2421.73,-129.975"/>
<polygon fill="midnightblue" stroke="midnightblue" points="2422.03,-133.464 2431.83,-129.447 2421.67,-126.473 2422.03,-133.464"/>
</g>
<!-- Node9&#45;&gt;Node12 -->
<g id="edge12" class="edge"><title>Node9&#45;&gt;Node12</title>
<path fill="none" stroke="midnightblue" d="M1091.78,-191.195C940.57,-185.399 565.106,-168.808 441.88,-143 401.704,-134.586 394.512,-122.689 354.88,-112 283.627,-92.782 198.34,-78.9538 150.714,-72.0302"/>
<polygon fill="midnightblue" stroke="midnightblue" points="150.973,-68.5315 140.577,-70.5785 149.98,-75.4608 150.973,-68.5315"/>
</g>
<!-- Node13 -->
<g id="node13" class="node"><title>Node13</title>
<g id="a_node13"><a xlink:href="_convenience_8h.html" target="_top" xlink:title="uscxml/util/Convenience.h">
<polygon fill="white" stroke="black" points="1089.38,-118 1089.38,-137 1222.38,-137 1222.38,-118 1089.38,-118"/>
<text text-anchor="middle" x="1155.88" y="-125" font-family="Helvetica,sans-Serif" font-size="10.00">uscxml/util/Convenience.h</text>
</a>
</g>
</g>
<!-- Node9&#45;&gt;Node13 -->
<g id="edge15" class="edge"><title>Node9&#45;&gt;Node13</title>
<path fill="none" stroke="midnightblue" d="M1155.88,-184.734C1155.88,-175.183 1155.88,-159.618 1155.88,-147.283"/>
<polygon fill="midnightblue" stroke="midnightblue" points="1159.38,-147.127 1155.88,-137.127 1152.38,-147.127 1159.38,-147.127"/>
</g>
<!-- Node17 -->
<g id="node17" class="node"><title>Node17</title>
<g id="a_node17"><a xlink:href="_blob_8h.html" target="_top" xlink:title="uscxml/messages/Blob.h">
<polygon fill="white" stroke="black" points="788.38,-118 788.38,-137 915.38,-137 915.38,-118 788.38,-118"/>
<text text-anchor="middle" x="851.88" y="-125" font-family="Helvetica,sans-Serif" font-size="10.00">uscxml/messages/Blob.h</text>
</a>
</g>
</g>
<!-- Node9&#45;&gt;Node17 -->
<g id="edge20" class="edge"><title>Node9&#45;&gt;Node17</title>
<path fill="none" stroke="midnightblue" d="M1115.83,-184.936C1060.8,-173.171 961.872,-152.018 902.006,-139.218"/>
<polygon fill="midnightblue" stroke="midnightblue" points="902.535,-135.752 892.024,-137.083 901.072,-142.597 902.535,-135.752"/>
</g>
<!-- Node13&#45;&gt;Node4 -->
<g id="edge16" class="edge"><title>Node13&#45;&gt;Node4</title>
<path fill="none" stroke="midnightblue" d="M1222.55,-117.984C1239.6,-115.915 1257.91,-113.785 1274.88,-112 1436.73,-94.976 1628.04,-79.2005 1723.08,-71.6565"/>
<polygon fill="midnightblue" stroke="midnightblue" points="1723.38,-75.1433 1733.07,-70.865 1722.83,-68.1651 1723.38,-75.1433"/>
</g>
<!-- Node13&#45;&gt;Node14 -->
<g id="edge17" class="edge"><title>Node13&#45;&gt;Node14</title>
<path fill="none" stroke="midnightblue" d="M1112.7,-117.991C1100.51,-115.8 1087.2,-113.61 1074.88,-112 880.787,-86.6425 645.687,-72.8768 562.69,-68.5312"/>
<polygon fill="midnightblue" stroke="midnightblue" points="562.836,-65.0342 552.669,-68.0139 562.475,-72.0249 562.836,-65.0342"/>
</g>
<!-- Node15 -->
<g id="node15" class="node"><title>Node15</title>
<polygon fill="white" stroke="#bfbfbf" points="868.38,-56.5 868.38,-75.5 907.38,-75.5 907.38,-56.5 868.38,-56.5"/>
<text text-anchor="middle" x="887.88" y="-63.5" font-family="Helvetica,sans-Serif" font-size="10.00">limits</text>
</g>
<!-- Node13&#45;&gt;Node15 -->
<g id="edge18" class="edge"><title>Node13&#45;&gt;Node15</title>
<path fill="none" stroke="midnightblue" d="M1117.48,-117.975C1063.41,-105.97 966.005,-84.3449 917.292,-73.5299"/>
<polygon fill="midnightblue" stroke="midnightblue" points="917.913,-70.0825 907.392,-71.3319 916.396,-76.9162 917.913,-70.0825"/>
</g>
<!-- Node16 -->
<g id="node16" class="node"><title>Node16</title>
<polygon fill="white" stroke="#bfbfbf" points="1129.88,-56.5 1129.88,-75.5 1181.88,-75.5 1181.88,-56.5 1129.88,-56.5"/>
<text text-anchor="middle" x="1155.88" y="-63.5" font-family="Helvetica,sans-Serif" font-size="10.00">sstream</text>
</g>
<!-- Node13&#45;&gt;Node16 -->
<g id="edge19" class="edge"><title>Node13&#45;&gt;Node16</title>
<path fill="none" stroke="midnightblue" d="M1155.88,-117.975C1155.88,-109.58 1155.88,-96.4806 1155.88,-85.6631"/>
<polygon fill="midnightblue" stroke="midnightblue" points="1159.38,-85.5091 1155.88,-75.5091 1152.38,-85.5091 1159.38,-85.5091"/>
</g>
<!-- Node17&#45;&gt;Node4 -->
<g id="edge23" class="edge"><title>Node17&#45;&gt;Node4</title>
<path fill="none" stroke="midnightblue" d="M889.079,-117.929C900.216,-115.656 912.495,-113.437 923.88,-112 1222.36,-74.3319 1583.03,-68.0815 1723.17,-67.128"/>
<polygon fill="midnightblue" stroke="midnightblue" points="1723.29,-70.6275 1733.27,-67.066 1723.25,-63.6276 1723.29,-70.6275"/>
</g>
<!-- Node17&#45;&gt;Node12 -->
<g id="edge22" class="edge"><title>Node17&#45;&gt;Node12</title>
<path fill="none" stroke="midnightblue" d="M788.32,-121.376C638.819,-109.322 268.628,-79.4762 150.636,-69.9633"/>
<polygon fill="midnightblue" stroke="midnightblue" points="150.903,-66.4737 140.655,-69.1586 150.341,-73.451 150.903,-66.4737"/>
</g>
<!-- Node17&#45;&gt;Node14 -->
<g id="edge21" class="edge"><title>Node17&#45;&gt;Node14</title>
<path fill="none" stroke="midnightblue" d="M806.032,-117.975C739.792,-105.658 619.084,-83.2144 562.584,-72.709"/>
<polygon fill="midnightblue" stroke="midnightblue" points="562.963,-69.2195 552.492,-70.8324 561.683,-76.1016 562.963,-69.2195"/>
</g>
<!-- Node18&#45;&gt;Node4 -->
<g id="edge25" class="edge"><title>Node18&#45;&gt;Node4</title>
<path fill="none" stroke="midnightblue" d="M1032.62,-118.24C1047.76,-115.949 1064.47,-113.642 1079.88,-112 1317.39,-86.6916 1601.68,-73.8077 1723.13,-69.1211"/>
<polygon fill="midnightblue" stroke="midnightblue" points="1723.47,-72.6108 1733.32,-68.7321 1723.2,-65.6159 1723.47,-72.6108"/>
</g>
<!-- Node18&#45;&gt;Node14 -->
<g id="edge26" class="edge"><title>Node18&#45;&gt;Node14</title>
<path fill="none" stroke="midnightblue" d="M951.194,-117.93C942.397,-115.765 932.809,-113.603 923.88,-112 790.394,-88.0348 628.926,-74.2233 562.591,-69.1938"/>
<polygon fill="midnightblue" stroke="midnightblue" points="562.651,-65.6886 552.418,-68.4352 562.13,-72.6692 562.651,-65.6886"/>
</g>
<!-- Node20&#45;&gt;Node3 -->
<g id="edge33" class="edge"><title>Node20&#45;&gt;Node3</title>
<path fill="none" stroke="midnightblue" d="M1032.58,-760.461C1104.59,-741.208 1272.16,-688.245 1375.88,-590 1412.92,-554.917 1576.47,-228.051 1616.85,-146.745"/>
<polygon fill="midnightblue" stroke="midnightblue" points="1620.21,-147.841 1621.52,-137.327 1613.94,-144.73 1620.21,-147.841"/>
</g>
<!-- Node20&#45;&gt;Node4 -->
<g id="edge34" class="edge"><title>Node20&#45;&gt;Node4</title>
<path fill="none" stroke="midnightblue" d="M1036.69,-768.985C1339.95,-768.622 3317.88,-761.685 3317.88,-642.5 3317.88,-642.5 3317.88,-642.5 3317.88,-193.5 3317.88,-138.206 3275.38,-132.137 3223.88,-112 3158.68,-86.5043 2106.55,-71.1989 1842.58,-67.7482"/>
<polygon fill="midnightblue" stroke="midnightblue" points="1842.47,-64.2466 1832.43,-67.6163 1842.38,-71.246 1842.47,-64.2466"/>
</g>
<!-- Node20&#45;&gt;Node7 -->
<g id="edge35" class="edge"><title>Node20&#45;&gt;Node7</title>
<path fill="none" stroke="midnightblue" d="M959.181,-767.083C798.192,-758.604 189.88,-721.347 189.88,-642.5 189.88,-642.5 189.88,-642.5 189.88,-523 189.88,-404.717 348.18,-357.647 447.469,-339.757"/>
<polygon fill="midnightblue" stroke="midnightblue" points="448.229,-343.177 457.481,-338.015 447.029,-336.281 448.229,-343.177"/>
</g>
<!-- Node20&#45;&gt;Node8 -->
<g id="edge36" class="edge"><title>Node20&#45;&gt;Node8</title>
<path fill="none" stroke="midnightblue" d="M989.81,-760.495C962.446,-730.728 874.88,-627.468 874.88,-525 874.88,-525 874.88,-525 874.88,-394.5 874.88,-352.086 894.425,-305.316 906.526,-280.424"/>
<polygon fill="midnightblue" stroke="midnightblue" points="909.812,-281.678 911.177,-271.172 903.558,-278.534 909.812,-281.678"/>
</g>
<!-- Node21 -->
<g id="node21" class="node"><title>Node21</title>
<g id="a_node21"><a xlink:href="_interpreter_impl_8h.html" target="_top" xlink:title="uscxml/interpreter\l/InterpreterImpl.h">
<polygon fill="white" stroke="black" points="1829.88,-693.5 1829.88,-723.5 1925.88,-723.5 1925.88,-693.5 1829.88,-693.5"/>
<text text-anchor="start" x="1837.88" y="-711.5" font-family="Helvetica,sans-Serif" font-size="10.00">uscxml/interpreter</text>
<text text-anchor="middle" x="1877.88" y="-700.5" font-family="Helvetica,sans-Serif" font-size="10.00">/InterpreterImpl.h</text>
</a>
</g>
</g>
<!-- Node20&#45;&gt;Node21 -->
<g id="edge37" class="edge"><title>Node20&#45;&gt;Node21</title>
<path fill="none" stroke="midnightblue" d="M1036.54,-766.386C1175.85,-756.967 1652.66,-724.728 1819.59,-713.441"/>
<polygon fill="midnightblue" stroke="midnightblue" points="1819.92,-716.927 1829.66,-712.76 1819.45,-709.943 1819.92,-716.927"/>
</g>
<!-- Node21&#45;&gt;Node4 -->
<g id="edge43" class="edge"><title>Node21&#45;&gt;Node4</title>
<path fill="none" stroke="midnightblue" d="M1925.99,-706.817C2141.98,-703.585 3016.66,-688.633 3134.88,-657 3205.17,-638.192 3279.88,-653.76 3279.88,-581 3279.88,-581 3279.88,-581 3279.88,-193.5 3279.88,-131.217 3224.87,-131.982 3165.88,-112 3039.57,-69.2139 2091.79,-66.7961 1842.7,-66.907"/>
<polygon fill="midnightblue" stroke="midnightblue" points="1842.4,-63.4071 1832.4,-66.9133 1842.41,-70.4071 1842.4,-63.4071"/>
</g>
<!-- Node21&#45;&gt;Node10 -->
<g id="edge40" class="edge"><title>Node21&#45;&gt;Node10</title>
<path fill="none" stroke="midnightblue" d="M1925.97,-702.629C2032.68,-690.489 2279.88,-654.44 2279.88,-581 2279.88,-581 2279.88,-581 2279.88,-327.5 2279.88,-290.203 2286.5,-272.129 2259.88,-246 2250.72,-237.007 1866.7,-155.312 1764.59,-133.716"/>
<polygon fill="midnightblue" stroke="midnightblue" points="1765.1,-130.245 1754.59,-131.601 1763.65,-137.094 1765.1,-130.245"/>
</g>
<!-- Node21&#45;&gt;Node11 -->
<g id="edge41" class="edge"><title>Node21&#45;&gt;Node11</title>
<path fill="none" stroke="midnightblue" d="M1926.19,-706.68C2134.25,-702.981 2948.4,-686.717 3058.88,-657 3129.14,-638.101 3203.88,-653.76 3203.88,-581 3203.88,-581 3203.88,-581 3203.88,-394.5 3203.88,-293.842 3120.04,-296.348 3032.88,-246 2842.77,-136.188 2566.27,-127.733 2478.04,-128.019"/>
<polygon fill="midnightblue" stroke="midnightblue" points="2477.98,-124.52 2468,-128.094 2478.03,-131.519 2477.98,-124.52"/>
</g>
<!-- Node21&#45;&gt;Node12 -->
<g id="edge38" class="edge"><title>Node21&#45;&gt;Node12</title>
<path fill="none" stroke="midnightblue" d="M1829.87,-707.004C1682.96,-705.086 1226.63,-696.161 850.88,-657 663.308,-637.451 615.816,-631.632 431.88,-590 346.016,-570.565 322.207,-570.027 241.88,-534 102.559,-471.513 52.4881,-424.732 13.8804,-277 -4.87316,-205.24 -9.28192,-168.406 38.8804,-112 50.6087,-98.2643 67.6294,-87.578 82.4926,-80.0727"/>
<polygon fill="midnightblue" stroke="midnightblue" points="84.3517,-83.0638 91.871,-75.5999 81.3383,-76.7456 84.3517,-83.0638"/>
</g>
<!-- Node21&#45;&gt;Node14 -->
<g id="edge42" class="edge"><title>Node21&#45;&gt;Node14</title>
<path fill="none" stroke="midnightblue" d="M1829.64,-706.795C1662.57,-704.062 1109.48,-692.486 935.88,-657 896.483,-648.947 889.775,-636.21 850.88,-626 608.193,-562.296 532.408,-611.848 293.88,-534 267.616,-525.428 202.554,-497.397 182.88,-478 66.936,-363.685 36.5239,-209.561 166.88,-112 219.363,-72.7213 422.489,-67.5022 500.824,-66.9747"/>
<polygon fill="midnightblue" stroke="midnightblue" points="501.037,-70.4739 511.021,-66.9284 501.005,-63.474 501.037,-70.4739"/>
</g>
<!-- Node21&#45;&gt;Node19 -->
<g id="edge159" class="edge"><title>Node21&#45;&gt;Node19</title>
<path fill="none" stroke="midnightblue" d="M1870.7,-693.31C1862.43,-677.005 1848.35,-649.475 1835.88,-626 1764.84,-492.278 1676.1,-332.736 1646.78,-280.215"/>
<polygon fill="midnightblue" stroke="midnightblue" points="1649.67,-278.201 1641.74,-271.178 1643.56,-281.615 1649.67,-278.201"/>
</g>
<!-- Node22 -->
<g id="node22" class="node"><title>Node22</title>
<polygon fill="white" stroke="#bfbfbf" points="2941.88,-252 2941.88,-271 2985.88,-271 2985.88,-252 2941.88,-252"/>
<text text-anchor="middle" x="2963.88" y="-259" font-family="Helvetica,sans-Serif" font-size="10.00">mutex</text>
</g>
<!-- Node21&#45;&gt;Node22 -->
<g id="edge39" class="edge"><title>Node21&#45;&gt;Node22</title>
<path fill="none" stroke="midnightblue" d="M1926.07,-706.53C2125.43,-702.351 2880.05,-684.819 2982.88,-657 3053.12,-637.998 3127.88,-653.76 3127.88,-581 3127.88,-581 3127.88,-581 3127.88,-394.5 3127.88,-327.28 3043.23,-288.515 2995.57,-272.014"/>
<polygon fill="midnightblue" stroke="midnightblue" points="2996.59,-268.667 2986,-268.829 2994.38,-275.309 2996.59,-268.667"/>
</g>
<!-- Node23 -->
<g id="node23" class="node"><title>Node23</title>
<g id="a_node23"><a xlink:href="_u_r_l_8h.html" target="_top" xlink:title="uscxml/util/URL.h">
<polygon fill="white" stroke="black" points="1849.88,-319 1849.88,-338 1943.88,-338 1943.88,-319 1849.88,-319"/>
<text text-anchor="middle" x="1896.88" y="-326" font-family="Helvetica,sans-Serif" font-size="10.00">uscxml/util/URL.h</text>
</a>
</g>
</g>
<!-- Node21&#45;&gt;Node23 -->
<g id="edge44" class="edge"><title>Node21&#45;&gt;Node23</title>
<path fill="none" stroke="midnightblue" d="M1881.45,-693.187C1886.96,-669.852 1896.88,-622.085 1896.88,-581 1896.88,-581 1896.88,-581 1896.88,-461.5 1896.88,-421.158 1896.88,-373.88 1896.88,-348.282"/>
<polygon fill="midnightblue" stroke="midnightblue" points="1900.38,-348.149 1896.88,-338.149 1893.38,-348.149 1900.38,-348.149"/>
</g>
<!-- Node29 -->
<g id="node29" class="node"><title>Node29</title>
<g id="a_node29"><a xlink:href="_factory_8h.html" target="_top" xlink:title="uscxml/plugins/Factory.h">
<polygon fill="white" stroke="black" points="513.38,-514.5 513.38,-533.5 640.38,-533.5 640.38,-514.5 513.38,-514.5"/>
<text text-anchor="middle" x="576.88" y="-521.5" font-family="Helvetica,sans-Serif" font-size="10.00">uscxml/plugins/Factory.h</text>
</a>
</g>
</g>
<!-- Node21&#45;&gt;Node29 -->
<g id="edge56" class="edge"><title>Node21&#45;&gt;Node29</title>
<path fill="none" stroke="midnightblue" d="M1829.75,-707.509C1706.43,-706.862 1369.38,-700.868 1092.88,-657 909.433,-627.895 696.178,-563.195 612.839,-536.678"/>
<polygon fill="midnightblue" stroke="midnightblue" points="613.692,-533.276 603.101,-533.565 611.56,-539.944 613.692,-533.276"/>
</g>
<!-- Node32 -->
<g id="node32" class="node"><title>Node32</title>
<g id="a_node32"><a xlink:href="_data_model_impl_8h.html" target="_top" xlink:title="uscxml/plugins/DataModel\lImpl.h">
<polygon fill="white" stroke="black" points="1012.38,-447.5 1012.38,-477.5 1145.38,-477.5 1145.38,-447.5 1012.38,-447.5"/>
<text text-anchor="start" x="1020.38" y="-465.5" font-family="Helvetica,sans-Serif" font-size="10.00">uscxml/plugins/DataModel</text>
<text text-anchor="middle" x="1078.88" y="-454.5" font-family="Helvetica,sans-Serif" font-size="10.00">Impl.h</text>
</a>
</g>
</g>
<!-- Node21&#45;&gt;Node32 -->
<g id="edge86" class="edge"><title>Node21&#45;&gt;Node32</title>
<path fill="none" stroke="midnightblue" d="M1829.59,-704.272C1689.34,-694.156 1285.01,-659.52 1174.88,-590 1134.46,-564.482 1104.75,-515.496 1089.79,-486.541"/>
<polygon fill="midnightblue" stroke="midnightblue" points="1092.89,-484.926 1085.29,-477.552 1086.64,-488.061 1092.89,-484.926"/>
</g>
<!-- Node34 -->
<g id="node34" class="node"><title>Node34</title>
<g id="a_node34"><a xlink:href="_micro_step_impl_8h.html" target="_top" xlink:title="uscxml/interpreter\l/MicroStepImpl.h">
<polygon fill="white" stroke="black" points="1506.88,-626.5 1506.88,-656.5 1602.88,-656.5 1602.88,-626.5 1506.88,-626.5"/>
<text text-anchor="start" x="1514.88" y="-644.5" font-family="Helvetica,sans-Serif" font-size="10.00">uscxml/interpreter</text>
<text text-anchor="middle" x="1554.88" y="-633.5" font-family="Helvetica,sans-Serif" font-size="10.00">/MicroStepImpl.h</text>
</a>
</g>
</g>
<!-- Node21&#45;&gt;Node34 -->
<g id="edge87" class="edge"><title>Node21&#45;&gt;Node34</title>
<path fill="none" stroke="midnightblue" d="M1829.87,-697.839C1772.02,-686.198 1674.89,-666.651 1612.9,-654.176"/>
<polygon fill="midnightblue" stroke="midnightblue" points="1613.38,-650.703 1602.89,-652.161 1612,-657.565 1613.38,-650.703"/>
</g>
<!-- Node41 -->
<g id="node41" class="node"><title>Node41</title>
<g id="a_node41"><a xlink:href="_event_queue_8h.html" target="_top" xlink:title="uscxml/interpreter\l/EventQueue.h">
<polygon fill="white" stroke="black" points="1620.88,-447.5 1620.88,-477.5 1716.88,-477.5 1716.88,-447.5 1620.88,-447.5"/>
<text text-anchor="start" x="1628.88" y="-465.5" font-family="Helvetica,sans-Serif" font-size="10.00">uscxml/interpreter</text>
<text text-anchor="middle" x="1668.88" y="-454.5" font-family="Helvetica,sans-Serif" font-size="10.00">/EventQueue.h</text>
</a>
</g>
</g>
<!-- Node21&#45;&gt;Node41 -->
<g id="edge147" class="edge"><title>Node21&#45;&gt;Node41</title>
<path fill="none" stroke="midnightblue" d="M1865.74,-693.327C1830.82,-652.56 1729.93,-534.775 1687.76,-485.541"/>
<polygon fill="midnightblue" stroke="midnightblue" points="1690.22,-483.03 1681.05,-477.712 1684.9,-487.584 1690.22,-483.03"/>
</g>
<!-- Node42 -->
<g id="node42" class="node"><title>Node42</title>
<g id="a_node42"><a xlink:href="_content_executor_impl_8h.html" target="_top" xlink:title="uscxml/interpreter\l/ContentExecutorImpl.h">
<polygon fill="white" stroke="black" points="1925.38,-380.5 1925.38,-410.5 2046.38,-410.5 2046.38,-380.5 1925.38,-380.5"/>
<text text-anchor="start" x="1933.38" y="-398.5" font-family="Helvetica,sans-Serif" font-size="10.00">uscxml/interpreter</text>
<text text-anchor="middle" x="1985.88" y="-387.5" font-family="Helvetica,sans-Serif" font-size="10.00">/ContentExecutorImpl.h</text>
</a>
</g>
</g>
<!-- Node21&#45;&gt;Node42 -->
<g id="edge124" class="edge"><title>Node21&#45;&gt;Node42</title>
<path fill="none" stroke="midnightblue" d="M1895.48,-693.174C1919.85,-671.613 1960.88,-628.281 1960.88,-581 1960.88,-581 1960.88,-581 1960.88,-523 1960.88,-486.762 1970.88,-445.773 1978.23,-420.531"/>
<polygon fill="midnightblue" stroke="midnightblue" points="1981.64,-421.321 1981.18,-410.737 1974.94,-419.302 1981.64,-421.321"/>
</g>
<!-- Node43 -->
<g id="node43" class="node"><title>Node43</title>
<g id="a_node43"><a xlink:href="_d_o_m_8h.html" target="_top" xlink:title="uscxml/util/DOM.h">
<polygon fill="white" stroke="black" points="2482.88,-319 2482.88,-338 2580.88,-338 2580.88,-319 2482.88,-319"/>
<text text-anchor="middle" x="2531.88" y="-326" font-family="Helvetica,sans-Serif" font-size="10.00">uscxml/util/DOM.h</text>
</a>
</g>
</g>
<!-- Node21&#45;&gt;Node43 -->
<g id="edge158" class="edge"><title>Node21&#45;&gt;Node43</title>
<path fill="none" stroke="midnightblue" d="M1926.14,-707.62C2151.56,-707.556 3089.88,-700.135 3089.88,-581 3089.88,-581 3089.88,-581 3089.88,-523 3089.88,-479.408 3064.43,-470.751 3027.88,-447 2889.56,-357.124 2689.7,-335.836 2591.25,-330.903"/>
<polygon fill="midnightblue" stroke="midnightblue" points="2591.34,-327.404 2581.19,-330.439 2591.02,-334.396 2591.34,-327.404"/>
</g>
<!-- Node48 -->
<g id="node48" class="node"><title>Node48</title>
<g id="a_node48"><a xlink:href="_event_queue_impl_8h.html" target="_top" xlink:title="uscxml/interpreter\l/EventQueueImpl.h">
<polygon fill="white" stroke="black" points="2321.88,-313.5 2321.88,-343.5 2423.88,-343.5 2423.88,-313.5 2321.88,-313.5"/>
<text text-anchor="start" x="2329.88" y="-331.5" font-family="Helvetica,sans-Serif" font-size="10.00">uscxml/interpreter</text>
<text text-anchor="middle" x="2372.88" y="-320.5" font-family="Helvetica,sans-Serif" font-size="10.00">/EventQueueImpl.h</text>
</a>
</g>
</g>
<!-- Node21&#45;&gt;Node48 -->
<g id="edge148" class="edge"><title>Node21&#45;&gt;Node48</title>
<path fill="none" stroke="midnightblue" d="M1925.97,-707.279C2142.19,-705.663 3013.88,-692.251 3013.88,-581 3013.88,-581 3013.88,-581 3013.88,-461.5 3013.88,-432.09 2594.46,-363.889 2434.16,-338.897"/>
<polygon fill="midnightblue" stroke="midnightblue" points="2434.4,-335.393 2423.98,-337.314 2433.33,-342.31 2434.4,-335.393"/>
</g>
<!-- Node23&#45;&gt;Node4 -->
<g id="edge45" class="edge"><title>Node23&#45;&gt;Node4</title>
<path fill="none" stroke="midnightblue" d="M1941.16,-318.958C1964.68,-311.924 1991.62,-299.321 2005.88,-277 2013.3,-265.389 2011.84,-258.423 2005.88,-246 1965.24,-161.264 1862.77,-103.969 1812.13,-79.8654"/>
<polygon fill="midnightblue" stroke="midnightblue" points="1813.56,-76.6696 1803.02,-75.6201 1810.6,-83.0151 1813.56,-76.6696"/>
</g>
<!-- Node23&#45;&gt;Node8 -->
<g id="edge46" class="edge"><title>Node23&#45;&gt;Node8</title>
<path fill="none" stroke="midnightblue" d="M1849.85,-323.207C1814.42,-320.075 1764.63,-315.889 1720.88,-313 1399.41,-291.771 1316.99,-313.459 996.88,-277 987.399,-275.92 977.351,-274.417 967.677,-272.784"/>
<polygon fill="midnightblue" stroke="midnightblue" points="968.225,-269.327 957.771,-271.048 967.017,-276.222 968.225,-269.327"/>
</g>
<!-- Node23&#45;&gt;Node10 -->
<g id="edge51" class="edge"><title>Node23&#45;&gt;Node10</title>
<path fill="none" stroke="midnightblue" d="M1882.54,-318.986C1868.05,-309.887 1845.6,-294.399 1829.88,-277 1792.44,-235.567 1762.06,-176.337 1748.12,-146.764"/>
<polygon fill="midnightblue" stroke="midnightblue" points="1751.12,-144.909 1743.75,-137.298 1744.77,-147.844 1751.12,-144.909"/>
</g>
<!-- Node23&#45;&gt;Node11 -->
<g id="edge49" class="edge"><title>Node23&#45;&gt;Node11</title>
<path fill="none" stroke="midnightblue" d="M1928.98,-318.919C1958.49,-310.38 2002.97,-295.842 2038.88,-277 2059.74,-266.055 2060.84,-256.604 2081.88,-246 2201.62,-185.65 2358.79,-147.897 2421.89,-134.255"/>
<polygon fill="midnightblue" stroke="midnightblue" points="2422.82,-137.636 2431.87,-132.13 2421.36,-130.789 2422.82,-137.636"/>
</g>
<!-- Node23&#45;&gt;Node14 -->
<g id="edge47" class="edge"><title>Node23&#45;&gt;Node14</title>
<path fill="none" stroke="midnightblue" d="M1849.7,-324.722C1675.56,-314.457 1078.48,-279.143 1068.88,-277 1032.47,-268.874 1027.16,-254.663 990.88,-246 904.718,-225.429 665.664,-261.907 593.88,-210 572.61,-194.62 547.972,-120.425 537.285,-85.3917"/>
<polygon fill="midnightblue" stroke="midnightblue" points="540.55,-84.0928 534.328,-75.5174 533.844,-86.1012 540.55,-84.0928"/>
</g>
<!-- Node23&#45;&gt;Node16 -->
<g id="edge48" class="edge"><title>Node23&#45;&gt;Node16</title>
<path fill="none" stroke="midnightblue" d="M1849.72,-324.663C1679.93,-314.425 1109.6,-279.842 1105.88,-277 926.821,-140.33 1226.1,-149.088 1230.88,-143 1239.39,-132.167 1237.67,-123.989 1230.88,-112 1222.35,-96.9332 1206.54,-86.3607 1191.63,-79.268"/>
<polygon fill="midnightblue" stroke="midnightblue" points="1192.61,-75.878 1182.04,-75.0973 1189.81,-82.2967 1192.61,-75.878"/>
</g>
<!-- Node24 -->
<g id="node24" class="node"><title>Node24</title>
<polygon fill="white" stroke="#bfbfbf" points="1752.88,-252 1752.88,-271 1782.88,-271 1782.88,-252 1752.88,-252"/>
<text text-anchor="middle" x="1767.88" y="-259" font-family="Helvetica,sans-Serif" font-size="10.00">set</text>
</g>
<!-- Node23&#45;&gt;Node24 -->
<g id="edge50" class="edge"><title>Node23&#45;&gt;Node24</title>
<path fill="none" stroke="midnightblue" d="M1879.75,-318.869C1857.26,-307.538 1817.66,-287.583 1792.11,-274.709"/>
<polygon fill="midnightblue" stroke="midnightblue" points="1793.58,-271.528 1783.07,-270.154 1790.43,-277.779 1793.58,-271.528"/>
</g>
<!-- Node25 -->
<g id="node25" class="node"><title>Node25</title>
<polygon fill="white" stroke="#bfbfbf" points="2206.38,-252 2206.38,-271 2251.38,-271 2251.38,-252 2206.38,-252"/>
<text text-anchor="middle" x="2228.88" y="-259" font-family="Helvetica,sans-Serif" font-size="10.00">thread</text>
</g>
<!-- Node23&#45;&gt;Node25 -->
<g id="edge52" class="edge"><title>Node23&#45;&gt;Node25</title>
<path fill="none" stroke="midnightblue" d="M1944,-323.372C2003.82,-317.272 2109.74,-303.585 2196.88,-277 2198.81,-276.413 2200.77,-275.736 2202.72,-275.002"/>
<polygon fill="midnightblue" stroke="midnightblue" points="2204.38,-278.101 2212.26,-271.014 2201.68,-271.643 2204.38,-278.101"/>
</g>
<!-- Node26 -->
<g id="node26" class="node"><title>Node26</title>
<polygon fill="white" stroke="#bfbfbf" points="2091.38,-252 2091.38,-271 2188.38,-271 2188.38,-252 2091.38,-252"/>
<text text-anchor="middle" x="2139.88" y="-259" font-family="Helvetica,sans-Serif" font-size="10.00">condition_variable</text>
</g>
<!-- Node23&#45;&gt;Node26 -->
<g id="edge53" class="edge"><title>Node23&#45;&gt;Node26</title>
<path fill="none" stroke="midnightblue" d="M1928.9,-318.936C1972.33,-307.317 2050,-286.541 2098.02,-273.698"/>
<polygon fill="midnightblue" stroke="midnightblue" points="2099.04,-277.049 2107.79,-271.083 2097.23,-270.286 2099.04,-277.049"/>
</g>
<!-- Node27 -->
<g id="node27" class="node"><title>Node27</title>
<polygon fill="white" stroke="#bfbfbf" points="1838.88,-252 1838.88,-271 1898.88,-271 1898.88,-252 1838.88,-252"/>
<text text-anchor="middle" x="1868.88" y="-259" font-family="Helvetica,sans-Serif" font-size="10.00">curl/curl.h</text>
</g>
<!-- Node23&#45;&gt;Node27 -->
<g id="edge54" class="edge"><title>Node23&#45;&gt;Node27</title>
<path fill="none" stroke="midnightblue" d="M1893.1,-318.734C1888.91,-308.988 1882.01,-292.981 1876.65,-280.532"/>
<polygon fill="midnightblue" stroke="midnightblue" points="1879.77,-278.927 1872.6,-271.127 1873.34,-281.696 1879.77,-278.927"/>
</g>
<!-- Node28 -->
<g id="node28" class="node"><title>Node28</title>
<polygon fill="white" stroke="#bfbfbf" points="1916.88,-252 1916.88,-271 1996.88,-271 1996.88,-252 1916.88,-252"/>
<text text-anchor="middle" x="1956.88" y="-259" font-family="Helvetica,sans-Serif" font-size="10.00">uriparser/Uri.h</text>
</g>
<!-- Node23&#45;&gt;Node28 -->
<g id="edge55" class="edge"><title>Node23&#45;&gt;Node28</title>
<path fill="none" stroke="midnightblue" d="M1904.97,-318.734C1914.42,-308.5 1930.24,-291.364 1941.93,-278.692"/>
<polygon fill="midnightblue" stroke="midnightblue" points="1944.71,-280.849 1948.92,-271.127 1939.56,-276.101 1944.71,-280.849"/>
</g>
<!-- Node29&#45;&gt;Node2 -->
<g id="edge69" class="edge"><title>Node29&#45;&gt;Node2</title>
<path fill="none" stroke="midnightblue" d="M601.002,-514.405C662.73,-492.409 826.562,-434.029 897.896,-408.61"/>
<polygon fill="midnightblue" stroke="midnightblue" points="899.481,-411.761 907.726,-405.107 897.131,-405.167 899.481,-411.761"/>
</g>
<!-- Node29&#45;&gt;Node4 -->
<g id="edge57" class="edge"><title>Node29&#45;&gt;Node4</title>
<path fill="none" stroke="midnightblue" d="M583.502,-514.345C597.921,-494.604 630.88,-444.258 630.88,-396.5 630.88,-396.5 630.88,-396.5 630.88,-327.5 630.88,-289.74 626.796,-271.241 654.88,-246 721.403,-186.211 766.646,-233.741 852.88,-210 890.846,-199.548 897.486,-187.745 935.88,-179 1108.62,-139.655 1163.52,-195.019 1332.88,-143 1360.07,-134.647 1361.79,-120.669 1388.88,-112 1503.25,-75.4076 1644.67,-67.7886 1723.19,-66.6488"/>
<polygon fill="midnightblue" stroke="midnightblue" points="1723.42,-70.1465 1733.38,-66.5324 1723.34,-63.147 1723.42,-70.1465"/>
</g>
<!-- Node29&#45;&gt;Node7 -->
<g id="edge64" class="edge"><title>Node29&#45;&gt;Node7</title>
<path fill="none" stroke="midnightblue" d="M574.623,-514.436C566.924,-485.225 541.578,-389.058 530.8,-348.166"/>
<polygon fill="midnightblue" stroke="midnightblue" points="534.161,-347.185 528.228,-338.407 527.392,-348.969 534.161,-347.185"/>
</g>
<!-- Node29&#45;&gt;Node12 -->
<g id="edge83" class="edge"><title>Node29&#45;&gt;Node12</title>
<path fill="none" stroke="midnightblue" d="M513.308,-522.802C451.5,-520.467 356.188,-511.092 280.88,-478 150.356,-420.645 99.0894,-402.194 30.8804,-277 9.98926,-238.655 9.38172,-220.189 23.8804,-179 38.0546,-138.733 73.4985,-102.251 95.4399,-82.4882"/>
<polygon fill="midnightblue" stroke="midnightblue" points="97.903,-84.9836 103.116,-75.7597 93.2886,-79.7197 97.903,-84.9836"/>
</g>
<!-- Node29&#45;&gt;Node14 -->
<g id="edge82" class="edge"><title>Node29&#45;&gt;Node14</title>
<path fill="none" stroke="midnightblue" d="M513.361,-520.91C461.234,-517.041 386.701,-506.462 327.88,-478 307.614,-468.193 261.146,-431.52 251.88,-411 196.174,-287.628 209.328,-202.627 309.88,-112 337.677,-86.9471 446.835,-74.2737 501.023,-69.4195"/>
<polygon fill="midnightblue" stroke="midnightblue" points="501.425,-72.8979 511.087,-68.5515 500.823,-65.9238 501.425,-72.8979"/>
</g>
<!-- Node29&#45;&gt;Node15 -->
<g id="edge85" class="edge"><title>Node29&#45;&gt;Node15</title>
<path fill="none" stroke="midnightblue" d="M513.306,-522.129C475.062,-518.306 427.934,-507.28 396.88,-478 300.14,-386.783 309.713,-269.761 406.88,-179 473.85,-116.446 764.35,-80.2675 858.388,-70.032"/>
<polygon fill="midnightblue" stroke="midnightblue" points="858.791,-73.509 868.361,-68.9642 858.045,-66.5488 858.791,-73.509"/>
</g>
<!-- Node29&#45;&gt;Node24 -->
<g id="edge84" class="edge"><title>Node29&#45;&gt;Node24</title>
<path fill="none" stroke="midnightblue" d="M640.396,-523.397C747.489,-522.88 970.271,-516.692 1153.88,-478 1391.05,-428.021 1661.95,-310.449 1743.46,-273.688"/>
<polygon fill="midnightblue" stroke="midnightblue" points="1744.99,-276.837 1752.65,-269.52 1742.1,-270.461 1744.99,-276.837"/>
</g>
<!-- Node30 -->
<g id="node30" class="node"><title>Node30</title>
<g id="a_node30"><a xlink:href="_executable_content_8h.html" target="_top" xlink:title="uscxml/plugins/Executable\lContent.h">
<polygon fill="white" stroke="black" points="635.88,-179.5 635.88,-209.5 769.88,-209.5 769.88,-179.5 635.88,-179.5"/>
<text text-anchor="start" x="643.88" y="-197.5" font-family="Helvetica,sans-Serif" font-size="10.00">uscxml/plugins/Executable</text>
<text text-anchor="middle" x="702.88" y="-186.5" font-family="Helvetica,sans-Serif" font-size="10.00">Content.h</text>
</a>
</g>
</g>
<!-- Node29&#45;&gt;Node30 -->
<g id="edge58" class="edge"><title>Node29&#45;&gt;Node30</title>
<path fill="none" stroke="midnightblue" d="M563.112,-514.32C519.704,-485.846 391.391,-392.541 439.88,-313 479.106,-248.655 563.278,-219.349 625.892,-206.126"/>
<polygon fill="midnightblue" stroke="midnightblue" points="626.635,-209.547 635.746,-204.139 625.251,-202.685 626.635,-209.547"/>
</g>
<!-- Node31 -->
<g id="node31" class="node"><title>Node31</title>
<g id="a_node31"><a xlink:href="_i_o_processor_8h.html" target="_top" xlink:title="uscxml/plugins/IOProcessor.h">
<polygon fill="white" stroke="black" points="697.38,-386 697.38,-405 846.38,-405 846.38,-386 697.38,-386"/>
<text text-anchor="middle" x="771.88" y="-393" font-family="Helvetica,sans-Serif" font-size="10.00">uscxml/plugins/IOProcessor.h</text>
</a>
</g>
</g>
<!-- Node29&#45;&gt;Node31 -->
<g id="edge65" class="edge"><title>Node29&#45;&gt;Node31</title>
<path fill="none" stroke="midnightblue" d="M590.284,-514.305C623.412,-492.814 709.404,-437.03 750.022,-410.68"/>
<polygon fill="midnightblue" stroke="midnightblue" points="752.157,-413.467 758.641,-405.088 748.347,-407.595 752.157,-413.467"/>
</g>
<!-- Node29&#45;&gt;Node32 -->
<g id="edge70" class="edge"><title>Node29&#45;&gt;Node32</title>
<path fill="none" stroke="midnightblue" d="M640.459,-515.464C732.667,-504.535 903.277,-484.314 1002.29,-472.578"/>
<polygon fill="midnightblue" stroke="midnightblue" points="1002.71,-476.053 1012.23,-471.4 1001.89,-469.101 1002.71,-476.053"/>
</g>
<!-- Node33 -->
<g id="node33" class="node"><title>Node33</title>
<g id="a_node33"><a xlink:href="_string_8h.html" target="_top" xlink:title="string.h">
<polygon fill="white" stroke="black" points="416.38,-185 416.38,-204 465.38,-204 465.38,-185 416.38,-185"/>
<text text-anchor="middle" x="440.88" y="-192" font-family="Helvetica,sans-Serif" font-size="10.00">string.h</text>
</a>
</g>
</g>
<!-- Node29&#45;&gt;Node33 -->
<g id="edge79" class="edge"><title>Node29&#45;&gt;Node33</title>
<path fill="none" stroke="midnightblue" d="M530.194,-514.384C471.939,-500.625 379.88,-467.63 379.88,-396.5 379.88,-396.5 379.88,-396.5 379.88,-327.5 379.88,-282.505 409.448,-236.18 427.412,-212.187"/>
<polygon fill="midnightblue" stroke="midnightblue" points="430.292,-214.185 433.643,-204.134 424.756,-209.901 430.292,-214.185"/>
</g>
<!-- Node30&#45;&gt;Node3 -->
<g id="edge59" class="edge"><title>Node30&#45;&gt;Node3</title>
<path fill="none" stroke="midnightblue" d="M770.004,-188.773C945.392,-176.422 1414.72,-143.37 1572.95,-132.227"/>
<polygon fill="midnightblue" stroke="midnightblue" points="1573.63,-135.688 1583.36,-131.494 1573.14,-128.706 1573.63,-135.688"/>
</g>
<!-- Node30&#45;&gt;Node4 -->
<g id="edge60" class="edge"><title>Node30&#45;&gt;Node4</title>
<path fill="none" stroke="midnightblue" d="M769.987,-180.971C774.681,-180.254 779.347,-179.587 783.88,-179 981.541,-153.41 1036.41,-186.671 1230.88,-143 1268.9,-134.463 1274.93,-120.824 1312.88,-112 1457.6,-78.3511 1633.02,-69.7924 1723.1,-67.663"/>
<polygon fill="midnightblue" stroke="midnightblue" points="1723.21,-71.1616 1733.13,-67.4444 1723.06,-64.1632 1723.21,-71.1616"/>
</g>
<!-- Node30&#45;&gt;Node12 -->
<g id="edge62" class="edge"><title>Node30&#45;&gt;Node12</title>
<path fill="none" stroke="midnightblue" d="M635.757,-183.911C574.944,-174.809 483.013,-160.016 403.88,-143 311.859,-123.212 205.13,-93.4547 150.394,-77.6882"/>
<polygon fill="midnightblue" stroke="midnightblue" points="151.056,-74.2362 140.477,-74.8205 149.111,-80.9607 151.056,-74.2362"/>
</g>
<!-- Node30&#45;&gt;Node14 -->
<g id="edge61" class="edge"><title>Node30&#45;&gt;Node14</title>
<path fill="none" stroke="midnightblue" d="M691.421,-179.428C676.692,-161.985 649.685,-132.105 621.88,-112 603.281,-98.5509 580.067,-87.0536 561.874,-79.0471"/>
<polygon fill="midnightblue" stroke="midnightblue" points="563.178,-75.798 552.607,-75.0775 560.421,-82.2325 563.178,-75.798"/>
</g>
<!-- Node30&#45;&gt;Node16 -->
<g id="edge63" class="edge"><title>Node30&#45;&gt;Node16</title>
<path fill="none" stroke="midnightblue" d="M711.402,-179.433C723.702,-160.524 748.343,-127.495 778.88,-112 838.01,-81.9976 1037.03,-71.3596 1119.56,-68.1794"/>
<polygon fill="midnightblue" stroke="midnightblue" points="1119.85,-71.671 1129.72,-67.8032 1119.59,-64.6757 1119.85,-71.671"/>
</g>
<!-- Node31&#45;&gt;Node4 -->
<g id="edge66" class="edge"><title>Node31&#45;&gt;Node4</title>
<path fill="none" stroke="midnightblue" d="M772.332,-385.96C774.15,-360.582 783.081,-284.97 825.88,-246 872.749,-203.325 907.36,-238.692 963.88,-210 983.316,-200.134 981.683,-187.194 1001.88,-179 1173.44,-109.399 1245.32,-212.601 1416.88,-143 1437.08,-134.806 1434.89,-120.694 1454.88,-112 1501.76,-91.6065 1641.87,-77.8262 1723,-71.3157"/>
<polygon fill="midnightblue" stroke="midnightblue" points="1723.38,-74.7966 1733.08,-70.5203 1722.83,-67.8183 1723.38,-74.7966"/>
</g>
<!-- Node31&#45;&gt;Node7 -->
<g id="edge67" class="edge"><title>Node31&#45;&gt;Node7</title>
<path fill="none" stroke="midnightblue" d="M739.467,-385.936C695.496,-374.317 616.866,-353.541 568.259,-340.698"/>
<polygon fill="midnightblue" stroke="midnightblue" points="568.928,-337.254 558.365,-338.083 567.139,-344.022 568.928,-337.254"/>
</g>
<!-- Node31&#45;&gt;Node8 -->
<g id="edge68" class="edge"><title>Node31&#45;&gt;Node8</title>
<path fill="none" stroke="midnightblue" d="M781.329,-385.839C805.236,-363.925 868.391,-306.032 898.904,-278.062"/>
<polygon fill="midnightblue" stroke="midnightblue" points="901.578,-280.359 906.585,-271.021 896.848,-275.198 901.578,-280.359"/>
</g>
<!-- Node32&#45;&gt;Node2 -->
<g id="edge73" class="edge"><title>Node32&#45;&gt;Node2</title>
<path fill="none" stroke="midnightblue" d="M1046.98,-447.396C1021.19,-435.991 985.206,-420.079 960.37,-409.098"/>
<polygon fill="midnightblue" stroke="midnightblue" points="961.681,-405.85 951.119,-405.007 958.85,-412.252 961.681,-405.85"/>
</g>
<!-- Node32&#45;&gt;Node3 -->
<g id="edge71" class="edge"><title>Node32&#45;&gt;Node3</title>
<path fill="none" stroke="midnightblue" d="M1086.22,-447.25C1095.88,-429.622 1114.3,-399.553 1136.88,-380 1176.13,-346.015 1501.75,-188.195 1598.73,-141.529"/>
<polygon fill="midnightblue" stroke="midnightblue" points="1600.4,-144.612 1607.89,-137.124 1597.36,-138.303 1600.4,-144.612"/>
</g>
<!-- Node32&#45;&gt;Node4 -->
<g id="edge72" class="edge"><title>Node32&#45;&gt;Node4</title>
<path fill="none" stroke="midnightblue" d="M1145.59,-458.408C1466.82,-443.371 2842.37,-377.263 2926.88,-344 2971.32,-326.509 2990.16,-320.026 3010.88,-277 3047.03,-201.929 2997.96,-145.976 2921.88,-112 2823.16,-67.9124 2063,-66.3031 1842.59,-66.7765"/>
<polygon fill="midnightblue" stroke="midnightblue" points="1842.5,-63.2766 1832.51,-66.8004 1842.52,-70.2765 1842.5,-63.2766"/>
</g>
<!-- Node32&#45;&gt;Node10 -->
<g id="edge76" class="edge"><title>Node32&#45;&gt;Node10</title>
<path fill="none" stroke="midnightblue" d="M1103.23,-447.44C1132.34,-430.782 1182.69,-402.457 1226.88,-380 1386.06,-299.113 1431.59,-290.661 1590.88,-210 1635.78,-187.263 1687.05,-158.611 1716.23,-142.042"/>
<polygon fill="midnightblue" stroke="midnightblue" points="1718.28,-144.902 1725.24,-136.912 1714.82,-138.819 1718.28,-144.902"/>
</g>
<!-- Node32&#45;&gt;Node12 -->
<g id="edge78" class="edge"><title>Node32&#45;&gt;Node12</title>
<path fill="none" stroke="midnightblue" d="M1012.17,-458.585C884.268,-452.488 609.166,-436.779 517.88,-411 449.997,-391.83 161.335,-245.427 125.88,-210 93.1641,-177.309 80.0553,-156.965 90.8804,-112 93.1872,-102.418 97.8978,-92.5813 102.459,-84.5579"/>
<polygon fill="midnightblue" stroke="midnightblue" points="105.573,-86.1727 107.776,-75.8095 99.591,-82.537 105.573,-86.1727"/>
</g>
<!-- Node32&#45;&gt;Node14 -->
<g id="edge77" class="edge"><title>Node32&#45;&gt;Node14</title>
<path fill="none" stroke="midnightblue" d="M1012.37,-455.679C934.205,-448.2 800.832,-433.444 687.88,-411 575.896,-388.748 539.517,-399.751 439.88,-344 364.154,-301.628 332.246,-289.68 297.88,-210 259.591,-121.22 429.297,-83.3069 501.102,-71.4251"/>
<polygon fill="midnightblue" stroke="midnightblue" points="502.018,-74.8235 511.345,-69.7977 500.92,-67.9102 502.018,-74.8235"/>
</g>
<!-- Node32&#45;&gt;Node19 -->
<g id="edge75" class="edge"><title>Node32&#45;&gt;Node19</title>
<path fill="none" stroke="midnightblue" d="M1118.56,-447.348C1223.29,-409.999 1505.75,-309.265 1603.25,-274.495"/>
<polygon fill="midnightblue" stroke="midnightblue" points="1604.64,-277.713 1612.89,-271.057 1602.29,-271.119 1604.64,-277.713"/>
</g>
<!-- Node32&#45;&gt;Node31 -->
<g id="edge74" class="edge"><title>Node32&#45;&gt;Node31</title>
<path fill="none" stroke="midnightblue" d="M1012.64,-447.476C955.467,-435.37 874.101,-418.143 822.145,-407.142"/>
<polygon fill="midnightblue" stroke="midnightblue" points="822.67,-403.676 812.162,-405.029 821.22,-410.524 822.67,-403.676"/>
</g>
<!-- Node33&#45;&gt;Node10 -->
<g id="edge81" class="edge"><title>Node33&#45;&gt;Node10</title>
<path fill="none" stroke="midnightblue" d="M465.529,-191.235C501.121,-188.042 568.994,-182.247 626.88,-179 1093.09,-152.848 1213.89,-203.645 1676.88,-143 1689.75,-141.315 1703.84,-138.195 1715.43,-135.279"/>
<polygon fill="midnightblue" stroke="midnightblue" points="1716.47,-138.624 1725.26,-132.706 1714.7,-131.852 1716.47,-138.624"/>
</g>
<!-- Node33&#45;&gt;Node14 -->
<g id="edge80" class="edge"><title>Node33&#45;&gt;Node14</title>
<path fill="none" stroke="midnightblue" d="M443.715,-184.766C449.075,-169.11 461.799,-135.692 479.88,-112 488.595,-100.581 500.604,-89.9564 510.885,-81.9011"/>
<polygon fill="midnightblue" stroke="midnightblue" points="513.128,-84.5932 519.006,-75.778 508.914,-79.0041 513.128,-84.5932"/>
</g>
<!-- Node34&#45;&gt;Node3 -->
<g id="edge88" class="edge"><title>Node34&#45;&gt;Node3</title>
<path fill="none" stroke="midnightblue" d="M1553.23,-626.18C1550.06,-597.904 1543.24,-532.883 1540.88,-478 1535.13,-344.327 1517.06,-299.176 1575.88,-179 1582.64,-165.184 1594.68,-152.848 1605.24,-143.827"/>
<polygon fill="midnightblue" stroke="midnightblue" points="1607.7,-146.345 1613.28,-137.338 1603.3,-140.9 1607.7,-146.345"/>
</g>
<!-- Node34&#45;&gt;Node4 -->
<g id="edge93" class="edge"><title>Node34&#45;&gt;Node4</title>
<path fill="none" stroke="midnightblue" d="M1603.1,-636.862C1878.67,-615.445 3241.88,-500.838 3241.88,-329.5 3241.88,-329.5 3241.88,-329.5 3241.88,-193.5 3241.88,-116.062 3162.7,-131.953 3087.88,-112 2966.88,-79.7319 2082.51,-69.642 1842.72,-67.4847"/>
<polygon fill="midnightblue" stroke="midnightblue" points="1842.49,-63.9826 1832.45,-67.3937 1842.42,-70.9823 1842.49,-63.9826"/>
</g>
<!-- Node34&#45;&gt;Node8 -->
<g id="edge123" class="edge"><title>Node34&#45;&gt;Node8</title>
<path fill="none" stroke="midnightblue" d="M1506.77,-641.404C1444.66,-640.639 1334.83,-632.604 1252.88,-590 1216.91,-571.299 1188.88,-565.542 1188.88,-525 1188.88,-525 1188.88,-525 1188.88,-461.5 1188.88,-453.709 1000.69,-321.678 936.807,-277.081"/>
<polygon fill="midnightblue" stroke="midnightblue" points="938.524,-274.011 928.32,-271.16 934.519,-279.752 938.524,-274.011"/>
</g>
<!-- Node34&#45;&gt;Node10 -->
<g id="edge89" class="edge"><title>Node34&#45;&gt;Node10</title>
<path fill="none" stroke="midnightblue" d="M1602.95,-637.155C1669.85,-629.593 1782.88,-604.982 1782.88,-525 1782.88,-525 1782.88,-525 1782.88,-394.5 1782.88,-339.476 1753.39,-331.196 1743.88,-277 1735.81,-231.008 1737.15,-175.792 1738.63,-147.404"/>
<polygon fill="midnightblue" stroke="midnightblue" points="1742.13,-147.481 1739.23,-137.293 1735.15,-147.07 1742.13,-147.481"/>
</g>
<!-- Node34&#45;&gt;Node14 -->
<g id="edge91" class="edge"><title>Node34&#45;&gt;Node14</title>
<path fill="none" stroke="midnightblue" d="M1506.57,-638.671C1310.2,-630.865 571.683,-597.781 347.88,-534 296.713,-519.418 151.88,-449.705 151.88,-396.5 151.88,-396.5 151.88,-396.5 151.88,-193.5 151.88,-148.52 173.254,-135.046 211.88,-112 260.456,-83.0177 431.052,-71.773 501.301,-68.3047"/>
<polygon fill="midnightblue" stroke="midnightblue" points="501.474,-71.8006 511.296,-67.8307 501.142,-64.8084 501.474,-71.8006"/>
</g>
<!-- Node34&#45;&gt;Node19 -->
<g id="edge92" class="edge"><title>Node34&#45;&gt;Node19</title>
<path fill="none" stroke="midnightblue" d="M1554.88,-626.275C1554.88,-604.476 1554.88,-561.495 1554.88,-525 1554.88,-525 1554.88,-525 1554.88,-461.5 1554.88,-389.4 1601.46,-312.935 1624.41,-279.645"/>
<polygon fill="midnightblue" stroke="midnightblue" points="1627.54,-281.283 1630.45,-271.095 1621.82,-277.246 1627.54,-281.283"/>
</g>
<!-- Node34&#45;&gt;Node24 -->
<g id="edge90" class="edge"><title>Node34&#45;&gt;Node24</title>
<path fill="none" stroke="midnightblue" d="M1558.88,-626.347C1571.11,-583.11 1607.47,-455.189 1611.88,-447 1650.05,-376.152 1718.63,-307.871 1750.6,-278.101"/>
<polygon fill="midnightblue" stroke="midnightblue" points="1753.25,-280.415 1758.24,-271.069 1748.51,-275.263 1753.25,-280.415"/>
</g>
<!-- Node35 -->
<g id="node35" class="node"><title>Node35</title>
<g id="a_node35"><a xlink:href="_interpreter_8h.html" target="_top" xlink:title="uscxml/Interpreter.h">
<polygon fill="white" stroke="black" points="1262.38,-570.5 1262.38,-589.5 1367.38,-589.5 1367.38,-570.5 1262.38,-570.5"/>
<text text-anchor="middle" x="1314.88" y="-577.5" font-family="Helvetica,sans-Serif" font-size="10.00">uscxml/Interpreter.h</text>
</a>
</g>
</g>
<!-- Node34&#45;&gt;Node35 -->
<g id="edge94" class="edge"><title>Node34&#45;&gt;Node35</title>
<path fill="none" stroke="midnightblue" d="M1506.6,-628.531C1463.61,-617.872 1401.21,-602.402 1359.4,-592.036"/>
<polygon fill="midnightblue" stroke="midnightblue" points="1360.04,-588.591 1349.5,-589.582 1358.36,-595.385 1360.04,-588.591"/>
</g>
<!-- Node35&#45;&gt;Node4 -->
<g id="edge95" class="edge"><title>Node35&#45;&gt;Node4</title>
<path fill="none" stroke="midnightblue" d="M1262.29,-575.14C1108.25,-563.139 668.88,-523.634 668.88,-463.5 668.88,-463.5 668.88,-463.5 668.88,-327.5 668.88,-259.307 737.128,-274.931 798.88,-246 845.462,-224.176 861.802,-230.729 908.88,-210 934.561,-198.692 937.076,-187.301 963.88,-179 1139.04,-124.757 1203.37,-207.87 1374.88,-143 1396.58,-134.792 1395.33,-120.586 1416.88,-112 1471.16,-90.3782 1634.09,-76.7129 1723.15,-70.6497"/>
<polygon fill="midnightblue" stroke="midnightblue" points="1723.63,-74.1257 1733.37,-69.9652 1723.16,-67.1414 1723.63,-74.1257"/>
</g>
<!-- Node35&#45;&gt;Node11 -->
<g id="edge96" class="edge"><title>Node35&#45;&gt;Node11</title>
<path fill="none" stroke="midnightblue" d="M1367.48,-578.405C1561.31,-575.095 2252.81,-553.378 2799.88,-411 2909.58,-382.451 2977.75,-383.383 3016.88,-277 3044.77,-201.169 2922.26,-241.572 2847.88,-210 2825.19,-200.367 2824.89,-187.863 2801.88,-179 2687.75,-135.03 2539.47,-128.871 2478.24,-128.334"/>
<polygon fill="midnightblue" stroke="midnightblue" points="2478.19,-124.834 2468.17,-128.291 2478.16,-131.834 2478.19,-124.834"/>
</g>
<!-- Node35&#45;&gt;Node14 -->
<g id="edge97" class="edge"><title>Node35&#45;&gt;Node14</title>
<path fill="none" stroke="midnightblue" d="M1262.15,-577.388C1106.53,-572.424 650.965,-556.34 503.88,-534 402.851,-518.655 364.481,-536.766 280.88,-478 217.554,-433.486 189.88,-406.906 189.88,-329.5 189.88,-329.5 189.88,-329.5 189.88,-193.5 189.88,-140.841 228.843,-135.673 275.88,-112 350.424,-74.4836 450.86,-67.687 500.88,-66.8047"/>
<polygon fill="midnightblue" stroke="midnightblue" points="501.085,-70.3028 511.047,-66.6962 501.01,-63.3032 501.085,-70.3028"/>
</g>
<!-- Node35&#45;&gt;Node29 -->
<g id="edge113" class="edge"><title>Node35&#45;&gt;Node29</title>
<path fill="none" stroke="midnightblue" d="M1262.2,-576.247C1150.25,-570.214 880.474,-554.694 654.88,-534 653.582,-533.881 652.272,-533.758 650.953,-533.632"/>
<polygon fill="midnightblue" stroke="midnightblue" points="651.004,-530.12 640.706,-532.611 650.309,-537.085 651.004,-530.12"/>
</g>
<!-- Node36 -->
<g id="node36" class="node"><title>Node36</title>
<polygon fill="white" stroke="#bfbfbf" points="1292.88,-514.5 1292.88,-533.5 1336.88,-533.5 1336.88,-514.5 1292.88,-514.5"/>
<text text-anchor="middle" x="1314.88" y="-521.5" font-family="Helvetica,sans-Serif" font-size="10.00">vector</text>
</g>
<!-- Node35&#45;&gt;Node36 -->
<g id="edge98" class="edge"><title>Node35&#45;&gt;Node36</title>
<path fill="none" stroke="midnightblue" d="M1314.88,-570.083C1314.88,-563.006 1314.88,-552.861 1314.88,-543.986"/>
<polygon fill="midnightblue" stroke="midnightblue" points="1318.38,-543.751 1314.88,-533.751 1311.38,-543.751 1318.38,-543.751"/>
</g>
<!-- Node37 -->
<g id="node37" class="node"><title>Node37</title>
<g id="a_node37"><a xlink:href="_micro_step_8h.html" target="_top" xlink:title="uscxml/interpreter\l/MicroStep.h">
<polygon fill="white" stroke="black" points="1313.88,-179.5 1313.88,-209.5 1409.88,-209.5 1409.88,-179.5 1313.88,-179.5"/>
<text text-anchor="start" x="1321.88" y="-197.5" font-family="Helvetica,sans-Serif" font-size="10.00">uscxml/interpreter</text>
<text text-anchor="middle" x="1361.88" y="-186.5" font-family="Helvetica,sans-Serif" font-size="10.00">/MicroStep.h</text>
</a>
</g>
</g>
<!-- Node35&#45;&gt;Node37 -->
<g id="edge99" class="edge"><title>Node35&#45;&gt;Node37</title>
<path fill="none" stroke="midnightblue" d="M1322.26,-570.246C1329.25,-561.557 1339.59,-547.604 1345.88,-534 1359.5,-504.547 1364.88,-495.951 1364.88,-463.5 1364.88,-463.5 1364.88,-463.5 1364.88,-394.5 1364.88,-331.604 1363.36,-257.538 1362.49,-219.988"/>
<polygon fill="midnightblue" stroke="midnightblue" points="1365.99,-219.895 1362.25,-209.981 1358.99,-220.062 1365.99,-219.895"/>
</g>
<!-- Node38 -->
<g id="node38" class="node"><title>Node38</title>
<g id="a_node38"><a xlink:href="_interpreter_state_8h.html" target="_top" xlink:title="uscxml/interpreter\l/InterpreterState.h">
<polygon fill="white" stroke="black" points="2053.38,-112.5 2053.38,-142.5 2150.38,-142.5 2150.38,-112.5 2053.38,-112.5"/>
<text text-anchor="start" x="2061.38" y="-130.5" font-family="Helvetica,sans-Serif" font-size="10.00">uscxml/interpreter</text>
<text text-anchor="middle" x="2101.88" y="-119.5" font-family="Helvetica,sans-Serif" font-size="10.00">/InterpreterState.h</text>
</a>
</g>
</g>
<!-- Node35&#45;&gt;Node38 -->
<g id="edge122" class="edge"><title>Node35&#45;&gt;Node38</title>
<path fill="none" stroke="midnightblue" d="M1328.72,-570.497C1369.93,-545.715 1496.13,-473.632 1611.88,-447 1913.64,-377.57 2832.89,-540.892 2994.88,-277 3060.57,-169.99 2949.06,-269.336 2809.88,-210 2787.87,-200.619 2788.39,-187.087 2765.88,-179 2709.71,-158.824 2312.09,-138.338 2160.44,-131.171"/>
<polygon fill="midnightblue" stroke="midnightblue" points="2160.54,-127.671 2150.39,-130.698 2160.21,-134.664 2160.54,-127.671"/>
</g>
<!-- Node39 -->
<g id="node39" class="node"><title>Node39</title>
<g id="a_node39"><a xlink:href="_data_model_8h.html" target="_top" xlink:title="uscxml/plugins/DataModel.h">
<polygon fill="white" stroke="black" points="1042.88,-319 1042.88,-338 1184.88,-338 1184.88,-319 1042.88,-319"/>
<text text-anchor="middle" x="1113.88" y="-326" font-family="Helvetica,sans-Serif" font-size="10.00">uscxml/plugins/DataModel.h</text>
</a>
</g>
</g>
<!-- Node35&#45;&gt;Node39 -->
<g id="edge107" class="edge"><title>Node35&#45;&gt;Node39</title>
<path fill="none" stroke="midnightblue" d="M1296.64,-570.403C1282.26,-562.745 1262.72,-550.243 1250.88,-534 1208.64,-476.073 1247.87,-435.817 1202.88,-380 1188.92,-362.686 1167.34,-350.229 1148.92,-342.02"/>
<polygon fill="midnightblue" stroke="midnightblue" points="1150.21,-338.765 1139.63,-338.111 1147.49,-345.217 1150.21,-338.765"/>
</g>
<!-- Node40 -->
<g id="node40" class="node"><title>Node40</title>
<g id="a_node40"><a xlink:href="_content_executor_8h.html" target="_top" xlink:title="uscxml/interpreter\l/ContentExecutor.h">
<polygon fill="white" stroke="black" points="1114.88,-246.5 1114.88,-276.5 1216.88,-276.5 1216.88,-246.5 1114.88,-246.5"/>
<text text-anchor="start" x="1122.88" y="-264.5" font-family="Helvetica,sans-Serif" font-size="10.00">uscxml/interpreter</text>
<text text-anchor="middle" x="1165.88" y="-253.5" font-family="Helvetica,sans-Serif" font-size="10.00">/ContentExecutor.h</text>
</a>
</g>
</g>
<!-- Node35&#45;&gt;Node40 -->
<g id="edge114" class="edge"><title>Node35&#45;&gt;Node40</title>
<path fill="none" stroke="midnightblue" d="M1308.04,-570.437C1301.26,-561.667 1290.91,-547.452 1283.88,-534 1250,-469.185 1254.56,-447.282 1225.88,-380 1212.94,-349.642 1209,-342.333 1193.88,-313 1189.16,-303.839 1183.71,-293.891 1178.89,-285.265"/>
<polygon fill="midnightblue" stroke="midnightblue" points="1181.92,-283.516 1173.96,-276.525 1175.82,-286.955 1181.92,-283.516"/>
</g>
<!-- Node35&#45;&gt;Node41 -->
<g id="edge119" class="edge"><title>Node35&#45;&gt;Node41</title>
<path fill="none" stroke="midnightblue" d="M1341.74,-570.431C1369.94,-561.419 1415.55,-546.799 1454.88,-534 1510.27,-515.976 1573.62,-495.068 1616.94,-480.729"/>
<polygon fill="midnightblue" stroke="midnightblue" points="1618.29,-483.968 1626.68,-477.502 1616.09,-477.323 1618.29,-483.968"/>
</g>
<!-- Node37&#45;&gt;Node3 -->
<g id="edge103" class="edge"><title>Node37&#45;&gt;Node3</title>
<path fill="none" stroke="midnightblue" d="M1410.01,-181.899C1451.99,-171.748 1514.5,-156.55 1568.88,-143 1573.29,-141.901 1577.89,-140.746 1582.48,-139.587"/>
<polygon fill="midnightblue" stroke="midnightblue" points="1583.6,-142.914 1592.44,-137.066 1581.89,-136.128 1583.6,-142.914"/>
</g>
<!-- Node37&#45;&gt;Node4 -->
<g id="edge104" class="edge"><title>Node37&#45;&gt;Node4</title>
<path fill="none" stroke="midnightblue" d="M1410.1,-181.016C1452.13,-169.784 1509.59,-153.483 1530.88,-143 1552.02,-132.593 1552.35,-121.571 1573.88,-112 1621.76,-90.7116 1680.4,-79.2175 1723.36,-73.1895"/>
<polygon fill="midnightblue" stroke="midnightblue" points="1723.93,-76.644 1733.38,-71.8429 1723,-69.7064 1723.93,-76.644"/>
</g>
<!-- Node37&#45;&gt;Node10 -->
<g id="edge101" class="edge"><title>Node37&#45;&gt;Node10</title>
<path fill="none" stroke="midnightblue" d="M1410.09,-186.8C1472.04,-177.955 1582.83,-161.34 1676.88,-143 1689.62,-140.516 1703.7,-137.319 1715.31,-134.559"/>
<polygon fill="midnightblue" stroke="midnightblue" points="1716.27,-137.927 1725.17,-132.18 1714.63,-131.122 1716.27,-137.927"/>
</g>
<!-- Node37&#45;&gt;Node12 -->
<g id="edge100" class="edge"><title>Node37&#45;&gt;Node12</title>
<path fill="none" stroke="midnightblue" d="M1313.59,-187.897C1288.36,-185.056 1256.98,-181.655 1228.88,-179 1029.13,-160.125 978.58,-162.394 778.88,-143 538.713,-119.676 250.63,-84.1862 150.381,-71.6128"/>
<polygon fill="midnightblue" stroke="midnightblue" points="150.812,-68.1395 140.454,-70.3655 149.939,-75.0849 150.812,-68.1395"/>
</g>
<!-- Node37&#45;&gt;Node14 -->
<g id="edge102" class="edge"><title>Node37&#45;&gt;Node14</title>
<path fill="none" stroke="midnightblue" d="M1313.73,-187.773C1244.54,-179.056 1120.84,-161.509 1079.88,-143 1059.7,-133.882 1061.44,-120.211 1040.88,-112 953.121,-76.9587 658.927,-69.0751 562.658,-67.416"/>
<polygon fill="midnightblue" stroke="midnightblue" points="562.488,-63.9129 552.433,-67.2507 562.375,-70.912 562.488,-63.9129"/>
</g>
<!-- Node37&#45;&gt;Node38 -->
<g id="edge105" class="edge"><title>Node37&#45;&gt;Node38</title>
<path fill="none" stroke="midnightblue" d="M1410.15,-189.26C1540.7,-177.793 1900.51,-146.188 2042.83,-133.687"/>
<polygon fill="midnightblue" stroke="midnightblue" points="2043.44,-137.147 2053.1,-132.785 2042.83,-130.174 2043.44,-137.147"/>
</g>
<!-- Node38&#45;&gt;Node4 -->
<g id="edge106" class="edge"><title>Node38&#45;&gt;Node4</title>
<path fill="none" stroke="midnightblue" d="M2053.1,-115.007C2048.3,-113.957 2043.5,-112.937 2038.88,-112 1971.92,-98.4188 1894.62,-85.1617 1842.63,-76.5959"/>
<polygon fill="midnightblue" stroke="midnightblue" points="1843.01,-73.1124 1832.58,-74.9466 1841.88,-80.02 1843.01,-73.1124"/>
</g>
<!-- Node39&#45;&gt;Node4 -->
<g id="edge108" class="edge"><title>Node39&#45;&gt;Node4</title>
<path fill="none" stroke="midnightblue" d="M1175.17,-318.981C1231.87,-310.485 1318.25,-295.975 1391.88,-277 1476.76,-255.124 1704.53,-208.417 1762.88,-143 1776.9,-127.281 1781.28,-102.884 1782.56,-85.99"/>
<polygon fill="midnightblue" stroke="midnightblue" points="1786.07,-85.8394 1783.02,-75.6922 1779.07,-85.5249 1786.07,-85.8394"/>
</g>
<!-- Node39&#45;&gt;Node8 -->
<g id="edge109" class="edge"><title>Node39&#45;&gt;Node8</title>
<path fill="none" stroke="midnightblue" d="M1087.59,-318.869C1052.65,-307.4 990.799,-287.094 951.643,-274.24"/>
<polygon fill="midnightblue" stroke="midnightblue" points="952.56,-270.857 941.967,-271.064 950.376,-277.508 952.56,-270.857"/>
</g>
<!-- Node39&#45;&gt;Node10 -->
<g id="edge110" class="edge"><title>Node39&#45;&gt;Node10</title>
<path fill="none" stroke="midnightblue" d="M1158.31,-318.999C1203.23,-310.019 1274.45,-294.723 1334.88,-277 1373.87,-265.565 1382.51,-259.368 1420.88,-246 1550.04,-200.998 1585.29,-197.182 1710.88,-143 1712.51,-142.295 1714.19,-141.543 1715.87,-140.766"/>
<polygon fill="midnightblue" stroke="midnightblue" points="1717.81,-143.714 1725.28,-136.202 1714.75,-137.415 1717.81,-143.714"/>
</g>
<!-- Node39&#45;&gt;Node12 -->
<g id="edge112" class="edge"><title>Node39&#45;&gt;Node12</title>
<path fill="none" stroke="midnightblue" d="M1042.63,-323.032C913.105,-313.306 631.653,-284.754 406.88,-210 301.138,-174.833 184.748,-109.182 136.627,-80.7324"/>
<polygon fill="midnightblue" stroke="midnightblue" points="138.319,-77.6666 127.936,-75.5586 134.738,-83.6814 138.319,-77.6666"/>
</g>
<!-- Node39&#45;&gt;Node14 -->
<g id="edge111" class="edge"><title>Node39&#45;&gt;Node14</title>
<path fill="none" stroke="midnightblue" d="M1049.17,-318.993C993.165,-310.822 910.314,-296.788 839.88,-277 802.771,-266.574 796.025,-256.301 758.88,-246 670.583,-221.514 620.373,-275.091 555.88,-210 522.887,-176.701 525.194,-116.184 528.903,-85.6639"/>
<polygon fill="midnightblue" stroke="midnightblue" points="532.398,-85.9442 530.323,-75.5546 525.466,-84.9707 532.398,-85.9442"/>
</g>
<!-- Node40&#45;&gt;Node3 -->
<g id="edge115" class="edge"><title>Node40&#45;&gt;Node3</title>
<path fill="none" stroke="midnightblue" d="M1183.09,-246.487C1210.48,-224.305 1261.92,-183.172 1271.88,-179 1379.07,-134.087 1415.88,-159.768 1530.88,-143 1544.56,-141.005 1559.34,-138.782 1573.07,-136.688"/>
<polygon fill="midnightblue" stroke="midnightblue" points="1573.98,-140.09 1583.34,-135.117 1572.92,-133.171 1573.98,-140.09"/>
</g>
<!-- Node40&#45;&gt;Node4 -->
<g id="edge116" class="edge"><title>Node40&#45;&gt;Node4</title>
<path fill="none" stroke="midnightblue" d="M1216.89,-252.913C1268.42,-244.646 1350.03,-229.892 1418.88,-210 1455.91,-199.301 1462.87,-189.767 1499.88,-179 1576.96,-156.577 1604.12,-176.912 1676.88,-143 1696.95,-133.646 1698.01,-125.072 1715.88,-112 1730.58,-101.246 1747.63,-89.8097 1760.85,-81.1572"/>
<polygon fill="midnightblue" stroke="midnightblue" points="1762.84,-84.0393 1769.32,-75.6544 1759.02,-78.1704 1762.84,-84.0393"/>
</g>
<!-- Node40&#45;&gt;Node9 -->
<g id="edge117" class="edge"><title>Node40&#45;&gt;Node9</title>
<path fill="none" stroke="midnightblue" d="M1163.71,-246.396C1162.26,-236.963 1160.33,-224.448 1158.76,-214.189"/>
<polygon fill="midnightblue" stroke="midnightblue" points="1162.2,-213.546 1157.22,-204.195 1155.28,-214.61 1162.2,-213.546"/>
</g>
<!-- Node40&#45;&gt;Node14 -->
<g id="edge118" class="edge"><title>Node40&#45;&gt;Node14</title>
<path fill="none" stroke="midnightblue" d="M1119.4,-246.448C1046.72,-224.463 901.764,-180.56 778.88,-143 700.896,-119.164 609.142,-90.8649 562.479,-76.4551"/>
<polygon fill="midnightblue" stroke="midnightblue" points="563.278,-73.0389 552.691,-73.4319 561.213,-79.7272 563.278,-73.0389"/>
</g>
<!-- Node41&#45;&gt;Node4 -->
<g id="edge120" class="edge"><title>Node41&#45;&gt;Node4</title>
<path fill="none" stroke="midnightblue" d="M1716.92,-460.994C1935.65,-458.504 2831.83,-446.217 2951.88,-411 3038.3,-385.65 3080.91,-364.079 3103.88,-277 3119.19,-218.982 3080.23,-123.249 3065.88,-112 3017.24,-73.8788 2089.67,-68.0347 1842.81,-67.1537"/>
<polygon fill="midnightblue" stroke="midnightblue" points="1842.61,-63.6531 1832.59,-67.1187 1842.58,-70.653 1842.61,-63.6531"/>
</g>
<!-- Node41&#45;&gt;Node8 -->
<g id="edge121" class="edge"><title>Node41&#45;&gt;Node8</title>
<path fill="none" stroke="midnightblue" d="M1629.62,-447.413C1548.91,-418.854 1358.11,-353.425 1193.88,-313 1188.51,-311.679 1052.83,-287.172 973.036,-272.792"/>
<polygon fill="midnightblue" stroke="midnightblue" points="973.582,-269.334 963.12,-271.005 972.34,-276.223 973.582,-269.334"/>
</g>
<!-- Node42&#45;&gt;Node4 -->
<g id="edge125" class="edge"><title>Node42&#45;&gt;Node4</title>
<path fill="none" stroke="midnightblue" d="M2046.6,-394.229C2218.93,-392.951 2708.55,-385.651 2862.88,-344 2933.42,-324.961 3019.65,-314.74 2994.88,-246 2968.66,-173.246 2953.18,-146.327 2883.88,-112 2790.54,-65.7611 2059.04,-65.6288 1842.85,-66.6184"/>
<polygon fill="midnightblue" stroke="midnightblue" points="1842.63,-63.1194 1832.65,-66.6678 1842.67,-70.1193 1842.63,-63.1194"/>
</g>
<!-- Node42&#45;&gt;Node8 -->
<g id="edge134" class="edge"><title>Node42&#45;&gt;Node8</title>
<path fill="none" stroke="midnightblue" d="M1925.12,-381.418C1838.18,-363.203 1673.06,-330.472 1530.88,-313 1294.78,-283.986 1232.98,-306.002 996.88,-277 987.717,-275.874 978.018,-274.393 968.638,-272.807"/>
<polygon fill="midnightblue" stroke="midnightblue" points="969.079,-269.331 958.625,-271.058 967.874,-276.227 969.079,-269.331"/>
</g>
<!-- Node42&#45;&gt;Node14 -->
<g id="edge146" class="edge"><title>Node42&#45;&gt;Node14</title>
<path fill="none" stroke="midnightblue" d="M1925.36,-395.107C1774.15,-395.798 1368.01,-392.566 1033.88,-344 907.681,-325.657 877.974,-310.326 754.88,-277 655.4,-250.067 600.288,-287.962 532.88,-210 502.655,-175.042 515.855,-115.318 525.311,-85.3251"/>
<polygon fill="midnightblue" stroke="midnightblue" points="528.67,-86.3152 528.537,-75.7212 522.035,-84.0858 528.67,-86.3152"/>
</g>
<!-- Node42&#45;&gt;Node19 -->
<g id="edge145" class="edge"><title>Node42&#45;&gt;Node19</title>
<path fill="none" stroke="midnightblue" d="M1943.82,-380.41C1914.78,-370.545 1875.34,-356.877 1840.88,-344 1778.47,-320.678 1706.24,-291.234 1666.66,-274.883"/>
<polygon fill="midnightblue" stroke="midnightblue" points="1667.9,-271.61 1657.32,-271.02 1665.22,-278.078 1667.9,-271.61"/>
</g>
<!-- Node42&#45;&gt;Node43 -->
<g id="edge126" class="edge"><title>Node42&#45;&gt;Node43</title>
<path fill="none" stroke="midnightblue" d="M2046.69,-388.272C2132.77,-379.309 2295.02,-361.878 2432.88,-344 2445.85,-342.318 2459.76,-340.37 2472.93,-338.46"/>
<polygon fill="midnightblue" stroke="midnightblue" points="2473.44,-341.922 2482.83,-337.011 2472.43,-334.996 2473.44,-341.922"/>
</g>
<!-- Node46 -->
<g id="node46" class="node"><title>Node46</title>
<g id="a_node46"><a xlink:href="_interpreter_monitor_8h.html" target="_top" xlink:title="uscxml/interpreter\l/InterpreterMonitor.h">
<polygon fill="white" stroke="black" points="2746.38,-313.5 2746.38,-343.5 2853.38,-343.5 2853.38,-313.5 2746.38,-313.5"/>
<text text-anchor="start" x="2754.38" y="-331.5" font-family="Helvetica,sans-Serif" font-size="10.00">uscxml/interpreter</text>
<text text-anchor="middle" x="2799.88" y="-320.5" font-family="Helvetica,sans-Serif" font-size="10.00">/InterpreterMonitor.h</text>
</a>
</g>
</g>
<!-- Node42&#45;&gt;Node46 -->
<g id="edge135" class="edge"><title>Node42&#45;&gt;Node46</title>
<path fill="none" stroke="midnightblue" d="M2046.4,-389.668C2196.14,-377.71 2582.91,-346.826 2736.07,-334.596"/>
<polygon fill="midnightblue" stroke="midnightblue" points="2736.56,-338.068 2746.25,-333.783 2736,-331.09 2736.56,-338.068"/>
</g>
<!-- Node43&#45;&gt;Node3 -->
<g id="edge130" class="edge"><title>Node43&#45;&gt;Node3</title>
<path fill="none" stroke="midnightblue" d="M2524.84,-318.802C2510.39,-301.623 2475.48,-263.491 2436.88,-246 2142.04,-112.392 2035.9,-191.635 1715.88,-143 1703.78,-141.161 1690.77,-139.109 1678.52,-137.142"/>
<polygon fill="midnightblue" stroke="midnightblue" points="1678.86,-133.653 1668.43,-135.515 1677.75,-140.563 1678.86,-133.653"/>
</g>
<!-- Node43&#45;&gt;Node4 -->
<g id="edge131" class="edge"><title>Node43&#45;&gt;Node4</title>
<path fill="none" stroke="midnightblue" d="M2581.06,-321.992C2641.57,-314.381 2739.86,-299.045 2768.88,-277 2832.31,-228.812 2894,-169.515 2838.88,-112 2804.26,-75.8679 2061.64,-68.6381 1842.96,-67.2905"/>
<polygon fill="midnightblue" stroke="midnightblue" points="1842.66,-63.7887 1832.64,-67.2289 1842.62,-70.7886 1842.66,-63.7887"/>
</g>
<!-- Node43&#45;&gt;Node10 -->
<g id="edge128" class="edge"><title>Node43&#45;&gt;Node10</title>
<path fill="none" stroke="midnightblue" d="M2533.3,-318.735C2536.94,-292.729 2543.65,-215.545 2501.88,-179 2487.66,-166.554 1893.81,-136.194 1764.55,-129.725"/>
<polygon fill="midnightblue" stroke="midnightblue" points="1764.62,-126.224 1754.46,-129.221 1764.27,-133.216 1764.62,-126.224"/>
</g>
<!-- Node43&#45;&gt;Node19 -->
<g id="edge133" class="edge"><title>Node43&#45;&gt;Node19</title>
<path fill="none" stroke="midnightblue" d="M2482.64,-319.365C2466.79,-316.994 2449.13,-314.611 2432.88,-313 2127.74,-282.748 2049.18,-305.613 1743.88,-277 1730.72,-275.766 1716.69,-274.112 1703.27,-272.362"/>
<polygon fill="midnightblue" stroke="midnightblue" points="1703.52,-268.865 1693.14,-271.011 1702.59,-275.804 1703.52,-268.865"/>
</g>
<!-- Node43&#45;&gt;Node24 -->
<g id="edge127" class="edge"><title>Node43&#45;&gt;Node24</title>
<path fill="none" stroke="midnightblue" d="M2482.64,-319.437C2466.79,-317.07 2449.12,-314.671 2432.88,-313 2165.81,-285.521 2095.55,-315.71 1829.88,-277 1817.61,-275.212 1804.19,-272.208 1792.99,-269.396"/>
<polygon fill="midnightblue" stroke="midnightblue" points="1793.59,-265.936 1783.03,-266.805 1791.83,-272.711 1793.59,-265.936"/>
</g>
<!-- Node44 -->
<g id="node44" class="node"><title>Node44</title>
<polygon fill="white" stroke="#bfbfbf" points="2774.38,-118 2774.38,-137 2829.38,-137 2829.38,-118 2774.38,-118"/>
<text text-anchor="middle" x="2801.88" y="-125" font-family="Helvetica,sans-Serif" font-size="10.00">iostream</text>
</g>
<!-- Node43&#45;&gt;Node44 -->
<g id="edge129" class="edge"><title>Node43&#45;&gt;Node44</title>
<path fill="none" stroke="midnightblue" d="M2580.91,-327.97C2627.53,-325.852 2697,-315.682 2741.88,-277 2781.46,-242.884 2795.26,-178.834 2799.8,-147.182"/>
<polygon fill="midnightblue" stroke="midnightblue" points="2803.3,-147.464 2801.09,-137.102 2796.35,-146.579 2803.3,-147.464"/>
</g>
<!-- Node45 -->
<g id="node45" class="node"><title>Node45</title>
<polygon fill="white" stroke="#bfbfbf" points="2598.38,-252 2598.38,-271 2733.38,-271 2733.38,-252 2598.38,-252"/>
<text text-anchor="middle" x="2665.88" y="-259" font-family="Helvetica,sans-Serif" font-size="10.00">xercesc/util/XMLString.hpp</text>
</g>
<!-- Node43&#45;&gt;Node45 -->
<g id="edge132" class="edge"><title>Node43&#45;&gt;Node45</title>
<path fill="none" stroke="midnightblue" d="M2549.67,-318.869C2572.5,-307.796 2612.31,-288.486 2638.88,-275.598"/>
<polygon fill="midnightblue" stroke="midnightblue" points="2640.54,-278.681 2648.01,-271.167 2637.49,-272.383 2640.54,-278.681"/>
</g>
<!-- Node46&#45;&gt;Node3 -->
<g id="edge136" class="edge"><title>Node46&#45;&gt;Node3</title>
<path fill="none" stroke="midnightblue" d="M2794.05,-313.296C2785.56,-294.545 2767.9,-262.038 2741.88,-246 2700.16,-220.282 2354.61,-184.22 2305.88,-179 2044.66,-151.02 1976.99,-171.929 1715.88,-143 1703.84,-141.666 1690.95,-139.833 1678.79,-137.918"/>
<polygon fill="midnightblue" stroke="midnightblue" points="1679.23,-134.443 1668.79,-136.3 1678.11,-141.353 1679.23,-134.443"/>
</g>
<!-- Node46&#45;&gt;Node4 -->
<g id="edge137" class="edge"><title>Node46&#45;&gt;Node4</title>
<path fill="none" stroke="midnightblue" d="M2811.78,-313.459C2842.5,-275.512 2918.23,-169.88 2861.88,-112 2826.13,-75.2834 2064.3,-68.4591 1842.79,-67.2494"/>
<polygon fill="midnightblue" stroke="midnightblue" points="1842.67,-63.7489 1832.65,-67.196 1842.63,-70.7488 1842.67,-63.7489"/>
</g>
<!-- Node46&#45;&gt;Node8 -->
<g id="edge138" class="edge"><title>Node46&#45;&gt;Node8</title>
<path fill="none" stroke="midnightblue" d="M2745.97,-323.112C2703.57,-319.822 2643,-315.477 2589.88,-313 1930.85,-282.269 1764.8,-310.113 1105.88,-277 1068.59,-275.126 1027.25,-272.086 992.683,-269.273"/>
<polygon fill="midnightblue" stroke="midnightblue" points="992.907,-265.779 982.654,-268.448 992.333,-272.756 992.907,-265.779"/>
</g>
<!-- Node46&#45;&gt;Node22 -->
<g id="edge144" class="edge"><title>Node46&#45;&gt;Node22</title>
<path fill="none" stroke="midnightblue" d="M2835.77,-313.419C2861.44,-303.327 2896.81,-289.385 2927.88,-277 2929.52,-276.348 2931.19,-275.678 2932.88,-275.001"/>
<polygon fill="midnightblue" stroke="midnightblue" points="2934.59,-278.086 2942.57,-271.112 2931.99,-271.59 2934.59,-278.086"/>
</g>
<!-- Node47 -->
<g id="node47" class="node"><title>Node47</title>
<g id="a_node47"><a xlink:href="_interpreter_issue_8h.html" target="_top" xlink:title="Identifies some common problems with SCXML documents. ">
<polygon fill="white" stroke="black" points="2630.38,-179.5 2630.38,-209.5 2757.38,-209.5 2757.38,-179.5 2630.38,-179.5"/>
<text text-anchor="start" x="2638.38" y="-197.5" font-family="Helvetica,sans-Serif" font-size="10.00">uscxml/debug/Interpreter</text>
<text text-anchor="middle" x="2693.88" y="-186.5" font-family="Helvetica,sans-Serif" font-size="10.00">Issue.h</text>
</a>
</g>
</g>
<!-- Node46&#45;&gt;Node47 -->
<g id="edge139" class="edge"><title>Node46&#45;&gt;Node47</title>
<path fill="none" stroke="midnightblue" d="M2798.8,-313.445C2796.82,-296.018 2791.29,-266.157 2775.88,-246 2765.89,-232.924 2751.45,-222.437 2737.47,-214.482"/>
<polygon fill="midnightblue" stroke="midnightblue" points="2738.87,-211.259 2728.4,-209.618 2735.56,-217.428 2738.87,-211.259"/>
</g>
<!-- Node47&#45;&gt;Node3 -->
<g id="edge140" class="edge"><title>Node47&#45;&gt;Node3</title>
<path fill="none" stroke="midnightblue" d="M2630.16,-184.574C2613.2,-182.461 2594.87,-180.414 2577.88,-179 2195.76,-147.193 2097.38,-181.562 1715.88,-143 1703.82,-141.781 1690.93,-139.995 1678.78,-138.089"/>
<polygon fill="midnightblue" stroke="midnightblue" points="1679.21,-134.613 1668.78,-136.47 1678.09,-141.523 1679.21,-134.613"/>
</g>
<!-- Node47&#45;&gt;Node4 -->
<g id="edge141" class="edge"><title>Node47&#45;&gt;Node4</title>
<path fill="none" stroke="midnightblue" d="M2685.39,-179.466C2672.89,-160.27 2647.56,-126.554 2615.88,-112 2546.21,-79.9913 2021.81,-70.1461 1842.66,-67.6994"/>
<polygon fill="midnightblue" stroke="midnightblue" points="1842.67,-64.1993 1832.62,-67.5651 1842.58,-71.1986 1842.67,-64.1993"/>
</g>
<!-- Node47&#45;&gt;Node10 -->
<g id="edge142" class="edge"><title>Node47&#45;&gt;Node10</title>
<path fill="none" stroke="midnightblue" d="M2630.14,-184.786C2613.18,-182.672 2594.86,-180.571 2577.88,-179 2413.75,-163.812 1885.46,-136.039 1764.65,-129.777"/>
<polygon fill="midnightblue" stroke="midnightblue" points="1764.72,-126.276 1754.55,-129.254 1764.35,-133.267 1764.72,-126.276"/>
</g>
<!-- Node47&#45;&gt;Node44 -->
<g id="edge143" class="edge"><title>Node47&#45;&gt;Node44</title>
<path fill="none" stroke="midnightblue" d="M2717.31,-179.396C2735.59,-168.395 2760.84,-153.2 2778.98,-142.282"/>
<polygon fill="midnightblue" stroke="midnightblue" points="2780.98,-145.162 2787.75,-137.007 2777.37,-139.165 2780.98,-145.162"/>
</g>
<!-- Node48&#45;&gt;Node4 -->
<g id="edge149" class="edge"><title>Node48&#45;&gt;Node4</title>
<path fill="none" stroke="midnightblue" d="M2410.19,-313.43C2426.94,-305.262 2445.47,-293.311 2456.88,-277 2499.23,-216.477 2527.4,-165.897 2476.88,-112 2433.96,-66.2054 2002.9,-65.1153 1842.55,-66.3203"/>
<polygon fill="midnightblue" stroke="midnightblue" points="1842.36,-62.8216 1832.39,-66.4025 1842.41,-69.8214 1842.36,-62.8216"/>
</g>
<!-- Node48&#45;&gt;Node8 -->
<g id="edge150" class="edge"><title>Node48&#45;&gt;Node8</title>
<path fill="none" stroke="midnightblue" d="M2321.81,-325.678C2096.73,-317.624 1198.88,-285.26 1072.88,-277 1046.72,-275.285 1018.15,-272.823 992.648,-270.414"/>
<polygon fill="midnightblue" stroke="midnightblue" points="992.953,-266.927 982.665,-269.459 992.286,-273.895 992.953,-266.927"/>
</g>
<!-- Node48&#45;&gt;Node10 -->
<g id="edge153" class="edge"><title>Node48&#45;&gt;Node10</title>
<path fill="none" stroke="midnightblue" d="M2363.18,-313.268C2349.81,-294.793 2323.93,-262.922 2293.88,-246 2110.6,-142.785 1846.75,-130.022 1764.99,-128.615"/>
<polygon fill="midnightblue" stroke="midnightblue" points="1764.73,-125.111 1754.69,-128.483 1764.64,-132.111 1764.73,-125.111"/>
</g>
<!-- Node48&#45;&gt;Node11 -->
<g id="edge152" class="edge"><title>Node48&#45;&gt;Node11</title>
<path fill="none" stroke="midnightblue" d="M2399.73,-313.385C2413.27,-304.774 2428.54,-292.443 2436.88,-277 2459.46,-235.183 2456.33,-176.953 2452.76,-147.37"/>
<polygon fill="midnightblue" stroke="midnightblue" points="2456.2,-146.644 2451.38,-137.209 2449.26,-147.59 2456.2,-146.644"/>
</g>
<!-- Node48&#45;&gt;Node14 -->
<g id="edge151" class="edge"><title>Node48&#45;&gt;Node14</title>
<path fill="none" stroke="midnightblue" d="M2321.8,-325.757C2088.68,-317.767 1135.81,-284.698 1105.88,-277 1076.04,-269.326 1073.53,-254.362 1043.88,-246 954.361,-220.754 706.171,-258.622 626.88,-210 583.145,-183.181 594.929,-154.288 565.88,-112 559.366,-102.517 551.669,-92.2587 545.247,-83.9351"/>
<polygon fill="midnightblue" stroke="midnightblue" points="547.805,-81.5239 538.896,-75.7904 542.285,-85.8285 547.805,-81.5239"/>
</g>
<!-- Node48&#45;&gt;Node22 -->
<g id="edge155" class="edge"><title>Node48&#45;&gt;Node22</title>
<path fill="none" stroke="midnightblue" d="M2423.95,-319.764C2439.92,-317.454 2457.62,-315.005 2473.88,-313 2646.14,-291.766 2853.24,-272.46 2931.67,-265.371"/>
<polygon fill="midnightblue" stroke="midnightblue" points="2932.22,-268.836 2941.87,-264.453 2931.59,-261.864 2932.22,-268.836"/>
</g>
<!-- Node48&#45;&gt;Node25 -->
<g id="edge154" class="edge"><title>Node48&#45;&gt;Node25</title>
<path fill="none" stroke="midnightblue" d="M2341.63,-313.396C2316.48,-302.041 2281.43,-286.22 2257.11,-275.244"/>
<polygon fill="midnightblue" stroke="midnightblue" points="2258.28,-271.931 2247.73,-271.007 2255.4,-278.311 2258.28,-271.931"/>
</g>
<!-- Node48&#45;&gt;Node26 -->
<g id="edge156" class="edge"><title>Node48&#45;&gt;Node26</title>
<path fill="none" stroke="midnightblue" d="M2322.61,-313.476C2280.03,-301.597 2219.77,-284.787 2180.27,-273.768"/>
<polygon fill="midnightblue" stroke="midnightblue" points="2181.03,-270.345 2170.45,-271.029 2179.14,-277.087 2181.03,-270.345"/>
</g>
<!-- Node49 -->
<g id="node49" class="node"><title>Node49</title>
<polygon fill="white" stroke="#bfbfbf" points="2345.88,-252 2345.88,-271 2427.88,-271 2427.88,-252 2345.88,-252"/>
<text text-anchor="middle" x="2386.88" y="-259" font-family="Helvetica,sans-Serif" font-size="10.00">event2/event.h</text>
</g>
<!-- Node48&#45;&gt;Node49 -->
<g id="edge157" class="edge"><title>Node48&#45;&gt;Node49</title>
<path fill="none" stroke="midnightblue" d="M2375.92,-313.396C2377.95,-303.963 2380.65,-291.448 2382.86,-281.189"/>
<polygon fill="midnightblue" stroke="midnightblue" points="2386.32,-281.707 2385.01,-271.195 2379.48,-280.233 2386.32,-281.707"/>
</g>
</g>
</svg>
