<?xml version="1.0" encoding="UTF-8" standalone="no"?>
<!DOCTYPE svg PUBLIC "-//W3C//DTD SVG 1.1//EN"
 "http://www.w3.org/Graphics/SVG/1.1/DTD/svg11.dtd">
<!-- Generated by graphviz version 2.40.1 (20161225.0304)
 -->
<!-- Title: plugins/datamodel/ecmascript/JavaScriptCore/JSCDataModel.cpp Pages: 1 -->
<svg width="1891pt" height="565pt"
 viewBox="0.00 0.00 1891.00 565.00" xmlns="http://www.w3.org/2000/svg" xmlns:xlink="http://www.w3.org/1999/xlink">
<g id="graph0" class="graph" transform="scale(1 1) rotate(0) translate(4 561)">
<title>plugins/datamodel/ecmascript/JavaScriptCore/JSCDataModel.cpp</title>
<polygon fill="#ffffff" stroke="transparent" points="-4,4 -4,-561 1887,-561 1887,4 -4,4"/>
<!-- Node1 -->
<g id="node1" class="node">
<title>Node1</title>
<polygon fill="#bfbfbf" stroke="#000000" points="1335.5,-526.5 1335.5,-556.5 1512.5,-556.5 1512.5,-526.5 1335.5,-526.5"/>
<text text-anchor="start" x="1343.5" y="-544.5" font-family="Helvetica,sans-Serif" font-size="10.00" fill="#000000">plugins/datamodel/ecmascript</text>
<text text-anchor="middle" x="1424" y="-533.5" font-family="Helvetica,sans-Serif" font-size="10.00" fill="#000000">/JavaScriptCore/JSCDataModel.cpp</text>
</g>
<!-- Node2 -->
<g id="node2" class="node">
<title>Node2</title>
<g id="a_node2"><a xlink:href="$_common_8h.html" xlink:title="uscxml/Common.h">
<polygon fill="#ffffff" stroke="#000000" points="563.5,-56.5 563.5,-75.5 662.5,-75.5 662.5,-56.5 563.5,-56.5"/>
<text text-anchor="middle" x="613" y="-63.5" font-family="Helvetica,sans-Serif" font-size="10.00" fill="#000000">uscxml/Common.h</text>
</a>
</g>
</g>
<!-- Node1&#45;&gt;Node2 -->
<g id="edge1" class="edge">
<title>Node1&#45;&gt;Node2</title>
<path fill="none" stroke="#191970" d="M1335.4604,-538.5114C1024.3532,-527.4341 0,-485.8475 0,-418.5 0,-418.5 0,-418.5 0,-295.5 0,-97.076 214.7621,-161.1599 407,-112 457.3449,-99.1256 515.1242,-86.3995 556.6534,-77.6079"/>
<polygon fill="#191970" stroke="#191970" points="557.518,-81.0026 566.5813,-75.5156 556.0744,-74.1531 557.518,-81.0026"/>
</g>
<!-- Node5 -->
<g id="node5" class="node">
<title>Node5</title>
<g id="a_node5"><a xlink:href="$_u_r_l_8h.html" xlink:title="uscxml/util/URL.h">
<polygon fill="#ffffff" stroke="#000000" points="699,-286 699,-305 793,-305 793,-286 699,-286"/>
<text text-anchor="middle" x="746" y="-293" font-family="Helvetica,sans-Serif" font-size="10.00" fill="#000000">uscxml/util/URL.h</text>
</a>
</g>
</g>
<!-- Node1&#45;&gt;Node5 -->
<g id="edge4" class="edge">
<title>Node1&#45;&gt;Node5</title>
<path fill="none" stroke="#191970" d="M1335.3677,-537.2024C1191.2506,-529.6083 918.2697,-512.4722 880,-490 810.2126,-449.0205 768.3856,-355.6235 752.886,-314.9883"/>
<polygon fill="#191970" stroke="#191970" points="756.1058,-313.6036 749.3603,-305.4336 749.5386,-316.0269 756.1058,-313.6036"/>
</g>
<!-- Node6 -->
<g id="node6" class="node">
<title>Node6</title>
<g id="a_node6"><a xlink:href="$_event_8h.html" xlink:title="uscxml/messages/Event.h">
<polygon fill="#ffffff" stroke="#000000" points="1026.5,-224.5 1026.5,-243.5 1159.5,-243.5 1159.5,-224.5 1026.5,-224.5"/>
<text text-anchor="middle" x="1093" y="-231.5" font-family="Helvetica,sans-Serif" font-size="10.00" fill="#000000">uscxml/messages/Event.h</text>
</a>
</g>
</g>
<!-- Node1&#45;&gt;Node6 -->
<g id="edge64" class="edge">
<title>Node1&#45;&gt;Node6</title>
<path fill="none" stroke="#191970" d="M1335.2899,-539.0305C1184.4119,-532.3956 894,-508.0002 894,-418.5 894,-418.5 894,-418.5 894,-357 894,-292.6897 970.1296,-260.8782 1028.2142,-245.9661"/>
<polygon fill="#191970" stroke="#191970" points="1029.216,-249.3242 1038.0956,-243.5447 1027.5499,-242.5254 1029.216,-249.3242"/>
</g>
<!-- Node13 -->
<g id="node13" class="node">
<title>Node13</title>
<polygon fill="#ffffff" stroke="#bfbfbf" points="1232.5,-56.5 1232.5,-75.5 1273.5,-75.5 1273.5,-56.5 1232.5,-56.5"/>
<text text-anchor="middle" x="1253" y="-63.5" font-family="Helvetica,sans-Serif" font-size="10.00" fill="#000000">string</text>
</g>
<!-- Node1&#45;&gt;Node13 -->
<g id="edge74" class="edge">
<title>Node1&#45;&gt;Node13</title>
<path fill="none" stroke="#191970" d="M1512.5871,-531.3986C1579.9035,-518.2119 1661,-487.9197 1661,-418.5 1661,-418.5 1661,-418.5 1661,-234 1661,-145.6315 1584.6548,-148.1081 1504,-112 1464.8874,-94.4898 1341.5481,-77.1748 1283.6187,-69.7596"/>
<polygon fill="#191970" stroke="#191970" points="1283.9584,-66.2748 1273.5983,-68.4925 1283.0801,-73.2195 1283.9584,-66.2748"/>
</g>
<!-- Node22 -->
<g id="node22" class="node">
<title>Node22</title>
<g id="a_node22"><a xlink:href="$_string_8h.html" xlink:title="uscxml/util/String.h">
<polygon fill="#ffffff" stroke="#000000" points="1457,-168.5 1457,-187.5 1557,-187.5 1557,-168.5 1457,-168.5"/>
<text text-anchor="middle" x="1507" y="-175.5" font-family="Helvetica,sans-Serif" font-size="10.00" fill="#000000">uscxml/util/String.h</text>
</a>
</g>
</g>
<!-- Node1&#45;&gt;Node22 -->
<g id="edge33" class="edge">
<title>Node1&#45;&gt;Node22</title>
<path fill="none" stroke="#191970" d="M1476.3415,-526.4423C1524.3373,-509.0437 1588,-475.2665 1588,-418.5 1588,-418.5 1588,-418.5 1588,-295.5 1588,-253.1676 1551.9203,-215.003 1527.9204,-194.2991"/>
<polygon fill="#191970" stroke="#191970" points="1529.9412,-191.4275 1520.0141,-187.7258 1525.466,-196.8102 1529.9412,-191.4275"/>
</g>
<!-- Node23 -->
<g id="node23" class="node">
<title>Node23</title>
<g id="a_node23"><a xlink:href="$_j_s_c_data_model_8h.html" xlink:title="JSCDataModel.h">
<polygon fill="#ffffff" stroke="#000000" points="1279,-470.5 1279,-489.5 1371,-489.5 1371,-470.5 1279,-470.5"/>
<text text-anchor="middle" x="1325" y="-477.5" font-family="Helvetica,sans-Serif" font-size="10.00" fill="#000000">JSCDataModel.h</text>
</a>
</g>
</g>
<!-- Node1&#45;&gt;Node23 -->
<g id="edge36" class="edge">
<title>Node1&#45;&gt;Node23</title>
<path fill="none" stroke="#191970" d="M1399.7819,-526.4554C1384.4227,-516.9141 1364.6243,-504.6151 1349.2575,-495.0691"/>
<polygon fill="#191970" stroke="#191970" points="1350.6828,-491.8341 1340.3415,-489.5303 1346.989,-497.7802 1350.6828,-491.8341"/>
</g>
<!-- Node29 -->
<g id="node29" class="node">
<title>Node29</title>
<g id="a_node29"><a xlink:href="$_logging_8h.html" xlink:title="uscxml/interpreter\l/Logging.h">
<polygon fill="#ffffff" stroke="#000000" points="1274,-280.5 1274,-310.5 1370,-310.5 1370,-280.5 1274,-280.5"/>
<text text-anchor="start" x="1282" y="-298.5" font-family="Helvetica,sans-Serif" font-size="10.00" fill="#000000">uscxml/interpreter</text>
<text text-anchor="middle" x="1322" y="-287.5" font-family="Helvetica,sans-Serif" font-size="10.00" fill="#000000">/Logging.h</text>
</a>
</g>
</g>
<!-- Node1&#45;&gt;Node29 -->
<g id="edge72" class="edge">
<title>Node1&#45;&gt;Node29</title>
<path fill="none" stroke="#191970" d="M1433.6251,-526.2233C1448.8862,-499.9011 1474.9618,-444.8017 1455,-403 1436.0777,-363.3751 1394.627,-333.6545 1362.9947,-315.6199"/>
<polygon fill="#191970" stroke="#191970" points="1364.3912,-312.3929 1353.9453,-310.6225 1361.0072,-318.5206 1364.3912,-312.3929"/>
</g>
<!-- Node30 -->
<g id="node30" class="node">
<title>Node30</title>
<g id="a_node30"><a xlink:href="$_d_o_m_8h.html" xlink:title="uscxml/util/DOM.h">
<polygon fill="#ffffff" stroke="#000000" points="323,-286 323,-305 421,-305 421,-286 323,-286"/>
<text text-anchor="middle" x="372" y="-293" font-family="Helvetica,sans-Serif" font-size="10.00" fill="#000000">uscxml/util/DOM.h</text>
</a>
</g>
</g>
<!-- Node1&#45;&gt;Node30 -->
<g id="edge65" class="edge">
<title>Node1&#45;&gt;Node30</title>
<path fill="none" stroke="#191970" d="M1335.3956,-536.7676C1197.8975,-528.8799 939.6372,-511.7423 850,-490 670.7964,-446.5326 470.7728,-347.237 399.2418,-309.9796"/>
<polygon fill="#191970" stroke="#191970" points="400.4991,-306.6871 390.0168,-305.1465 397.2504,-312.8876 400.4991,-306.6871"/>
</g>
<!-- Node33 -->
<g id="node33" class="node">
<title>Node33</title>
<polygon fill="#ffffff" stroke="#bfbfbf" points="1689,-470.5 1689,-489.5 1733,-489.5 1733,-470.5 1689,-470.5"/>
<text text-anchor="middle" x="1711" y="-477.5" font-family="Helvetica,sans-Serif" font-size="10.00" fill="#000000">vector</text>
</g>
<!-- Node1&#45;&gt;Node33 -->
<g id="edge73" class="edge">
<title>Node1&#45;&gt;Node33</title>
<path fill="none" stroke="#191970" d="M1504.2869,-526.4824C1553.706,-516.8784 1618.2419,-503.6888 1675,-490 1676.2769,-489.692 1677.5771,-489.3702 1678.8889,-489.0387"/>
<polygon fill="#191970" stroke="#191970" points="1680.2025,-492.3118 1688.9776,-486.3749 1678.4154,-485.5438 1680.2025,-492.3118"/>
</g>
<!-- Node34 -->
<g id="node34" class="node">
<title>Node34</title>
<polygon fill="#ffffff" stroke="#bfbfbf" points="1751,-470.5 1751,-489.5 1883,-489.5 1883,-470.5 1751,-470.5"/>
<text text-anchor="middle" x="1817" y="-477.5" font-family="Helvetica,sans-Serif" font-size="10.00" fill="#000000">boost/algorithm/string.hpp</text>
</g>
<!-- Node1&#45;&gt;Node34 -->
<g id="edge75" class="edge">
<title>Node1&#45;&gt;Node34</title>
<path fill="none" stroke="#191970" d="M1512.6869,-527.6215C1583.1718,-516.5914 1680.462,-501.3666 1745.8936,-491.1273"/>
<polygon fill="#191970" stroke="#191970" points="1746.7738,-494.5323 1756.1124,-489.5282 1745.6915,-487.6164 1746.7738,-494.5323"/>
</g>
<!-- Node3 -->
<g id="node3" class="node">
<title>Node3</title>
<polygon fill="#ffffff" stroke="#bfbfbf" points="539,-.5 539,-19.5 611,-19.5 611,-.5 539,-.5"/>
<text text-anchor="middle" x="575" y="-7.5" font-family="Helvetica,sans-Serif" font-size="10.00" fill="#000000">sys/socket.h</text>
</g>
<!-- Node2&#45;&gt;Node3 -->
<g id="edge2" class="edge">
<title>Node2&#45;&gt;Node3</title>
<path fill="none" stroke="#191970" d="M606.3809,-56.2455C601.0954,-48.4564 593.5459,-37.3308 587.1762,-27.9439"/>
<polygon fill="#191970" stroke="#191970" points="590.0545,-25.9522 581.5432,-19.6427 584.2621,-29.8827 590.0545,-25.9522"/>
</g>
<!-- Node4 -->
<g id="node4" class="node">
<title>Node4</title>
<polygon fill="#ffffff" stroke="#bfbfbf" points="629,-.5 629,-19.5 673,-19.5 673,-.5 629,-.5"/>
<text text-anchor="middle" x="651" y="-7.5" font-family="Helvetica,sans-Serif" font-size="10.00" fill="#000000">cmath</text>
</g>
<!-- Node2&#45;&gt;Node4 -->
<g id="edge3" class="edge">
<title>Node2&#45;&gt;Node4</title>
<path fill="none" stroke="#191970" d="M619.6191,-56.2455C624.9046,-48.4564 632.4541,-37.3308 638.8238,-27.9439"/>
<polygon fill="#191970" stroke="#191970" points="641.7379,-29.8827 644.4568,-19.6427 635.9455,-25.9522 641.7379,-29.8827"/>
</g>
<!-- Node5&#45;&gt;Node2 -->
<g id="edge5" class="edge">
<title>Node5&#45;&gt;Node2</title>
<path fill="none" stroke="#191970" d="M698.5711,-288.6356C647.0731,-280.262 569.3051,-264.6325 548,-244 504.5595,-201.9309 482.5728,-163.0428 515,-112 524.9494,-96.339 541.7982,-85.9161 558.746,-79.0202"/>
<polygon fill="#191970" stroke="#191970" points="559.9691,-82.2996 568.1284,-75.5412 557.5353,-75.7363 559.9691,-82.2996"/>
</g>
<!-- Node5&#45;&gt;Node6 -->
<g id="edge6" class="edge">
<title>Node5&#45;&gt;Node6</title>
<path fill="none" stroke="#191970" d="M793.1591,-287.1418C854.2322,-276.3176 960.9222,-257.4086 1029.1941,-245.3085"/>
<polygon fill="#191970" stroke="#191970" points="1030.1574,-248.6924 1039.3931,-243.5009 1028.9358,-241.7999 1030.1574,-248.6924"/>
</g>
<!-- Node8 -->
<g id="node8" class="node">
<title>Node8</title>
<polygon fill="#ffffff" stroke="#bfbfbf" points="1411.5,-112.5 1411.5,-131.5 1440.5,-131.5 1440.5,-112.5 1411.5,-112.5"/>
<text text-anchor="middle" x="1426" y="-119.5" font-family="Helvetica,sans-Serif" font-size="10.00" fill="#000000">list</text>
</g>
<!-- Node5&#45;&gt;Node8 -->
<g id="edge29" class="edge">
<title>Node5&#45;&gt;Node8</title>
<path fill="none" stroke="#191970" d="M762.9776,-285.9042C796.0174,-267.2997 866.8002,-227.807 879,-224 1016.0437,-181.2354 1059.2413,-216.2268 1200,-188 1274.8417,-172.9917 1360.7543,-144.7593 1401.7609,-130.5823"/>
<polygon fill="#191970" stroke="#191970" points="1403.1215,-133.8146 1411.4118,-127.2175 1400.817,-127.2048 1403.1215,-133.8146"/>
</g>
<!-- Node9 -->
<g id="node9" class="node">
<title>Node9</title>
<polygon fill="#ffffff" stroke="#bfbfbf" points="595,-112.5 595,-131.5 631,-131.5 631,-112.5 595,-112.5"/>
<text text-anchor="middle" x="613" y="-119.5" font-family="Helvetica,sans-Serif" font-size="10.00" fill="#000000">map</text>
</g>
<!-- Node5&#45;&gt;Node9 -->
<g id="edge27" class="edge">
<title>Node5&#45;&gt;Node9</title>
<path fill="none" stroke="#191970" d="M744.9892,-285.5516C743.1425,-271.0593 738.2186,-243.7234 726,-224 702.9674,-186.8206 662.4924,-155.0855 636.7508,-137.2926"/>
<polygon fill="#191970" stroke="#191970" points="638.5589,-134.2903 628.3128,-131.5944 634.6414,-140.0915 638.5589,-134.2903"/>
</g>
<!-- Node5&#45;&gt;Node13 -->
<g id="edge25" class="edge">
<title>Node5&#45;&gt;Node13</title>
<path fill="none" stroke="#191970" d="M754.7972,-285.8868C783.8736,-254.7905 880.8656,-156.3803 983,-112 1025.6838,-93.4527 1160.9532,-76.3745 1222.2635,-69.3628"/>
<polygon fill="#191970" stroke="#191970" points="1222.9268,-72.8102 1232.4711,-68.2105 1222.1416,-65.8544 1222.9268,-72.8102"/>
</g>
<!-- Node15 -->
<g id="node15" class="node">
<title>Node15</title>
<polygon fill="#ffffff" stroke="#bfbfbf" points="383,-56.5 383,-75.5 435,-75.5 435,-56.5 383,-56.5"/>
<text text-anchor="middle" x="409" y="-63.5" font-family="Helvetica,sans-Serif" font-size="10.00" fill="#000000">sstream</text>
</g>
<!-- Node5&#45;&gt;Node15 -->
<g id="edge26" class="edge">
<title>Node5&#45;&gt;Node15</title>
<path fill="none" stroke="#191970" d="M698.6824,-288.2249C642.909,-279.0001 554.2337,-262.1033 526,-244 465.6485,-205.3029 429.6067,-123.137 415.666,-85.5299"/>
<polygon fill="#191970" stroke="#191970" points="418.8429,-84.019 412.1816,-75.7803 412.2512,-86.3749 418.8429,-84.019"/>
</g>
<!-- Node18 -->
<g id="node18" class="node">
<title>Node18</title>
<polygon fill="#ffffff" stroke="#bfbfbf" points="357,-224.5 357,-243.5 387,-243.5 387,-224.5 357,-224.5"/>
<text text-anchor="middle" x="372" y="-231.5" font-family="Helvetica,sans-Serif" font-size="10.00" fill="#000000">set</text>
</g>
<!-- Node5&#45;&gt;Node18 -->
<g id="edge28" class="edge">
<title>Node5&#45;&gt;Node18</title>
<path fill="none" stroke="#191970" d="M698.8754,-291.2383C631.9507,-284.5619 505.8502,-269.672 401,-244 399.7197,-243.6865 398.4159,-243.3402 397.1051,-242.9703"/>
<polygon fill="#191970" stroke="#191970" points="397.7845,-239.514 387.1943,-239.8275 395.6685,-246.1866 397.7845,-239.514"/>
</g>
<!-- Node19 -->
<g id="node19" class="node">
<title>Node19</title>
<polygon fill="#ffffff" stroke="#bfbfbf" points="557.5,-224.5 557.5,-243.5 602.5,-243.5 602.5,-224.5 557.5,-224.5"/>
<text text-anchor="middle" x="580" y="-231.5" font-family="Helvetica,sans-Serif" font-size="10.00" fill="#000000">thread</text>
</g>
<!-- Node5&#45;&gt;Node19 -->
<g id="edge30" class="edge">
<title>Node5&#45;&gt;Node19</title>
<path fill="none" stroke="#191970" d="M720.0625,-285.8906C690.9348,-275.0993 643.6348,-257.5755 612.1748,-245.9202"/>
<polygon fill="#191970" stroke="#191970" points="613.1534,-242.5503 602.5603,-242.3582 610.7215,-249.1143 613.1534,-242.5503"/>
</g>
<!-- Node20 -->
<g id="node20" class="node">
<title>Node20</title>
<polygon fill="#ffffff" stroke="#bfbfbf" points="620.5,-224.5 620.5,-243.5 717.5,-243.5 717.5,-224.5 620.5,-224.5"/>
<text text-anchor="middle" x="669" y="-231.5" font-family="Helvetica,sans-Serif" font-size="10.00" fill="#000000">condition_variable</text>
</g>
<!-- Node5&#45;&gt;Node20 -->
<g id="edge31" class="edge">
<title>Node5&#45;&gt;Node20</title>
<path fill="none" stroke="#191970" d="M733.9688,-285.8906C721.9893,-276.3227 703.3834,-261.4621 689.1475,-250.0919"/>
<polygon fill="#191970" stroke="#191970" points="690.9447,-247.0479 680.9468,-243.5419 686.5761,-252.5175 690.9447,-247.0479"/>
</g>
<!-- Node21 -->
<g id="node21" class="node">
<title>Node21</title>
<polygon fill="#ffffff" stroke="#bfbfbf" points="888,-224.5 888,-243.5 932,-243.5 932,-224.5 888,-224.5"/>
<text text-anchor="middle" x="910" y="-231.5" font-family="Helvetica,sans-Serif" font-size="10.00" fill="#000000">mutex</text>
</g>
<!-- Node5&#45;&gt;Node21 -->
<g id="edge32" class="edge">
<title>Node5&#45;&gt;Node21</title>
<path fill="none" stroke="#191970" d="M771.625,-285.8906C800.483,-275.0689 847.3961,-257.4765 878.4758,-245.8216"/>
<polygon fill="#191970" stroke="#191970" points="879.833,-249.0507 887.9674,-242.2622 877.3751,-242.4964 879.833,-249.0507"/>
</g>
<!-- Node7 -->
<g id="node7" class="node">
<title>Node7</title>
<g id="a_node7"><a xlink:href="$_data_8h.html" xlink:title="uscxml/messages/Data.h">
<polygon fill="#ffffff" stroke="#000000" points="1030,-168.5 1030,-187.5 1158,-187.5 1158,-168.5 1030,-168.5"/>
<text text-anchor="middle" x="1094" y="-175.5" font-family="Helvetica,sans-Serif" font-size="10.00" fill="#000000">uscxml/messages/Data.h</text>
</a>
</g>
</g>
<!-- Node6&#45;&gt;Node7 -->
<g id="edge7" class="edge">
<title>Node6&#45;&gt;Node7</title>
<path fill="none" stroke="#191970" d="M1093.1742,-224.2455C1093.3047,-216.9382 1093.4876,-206.6944 1093.6481,-197.7046"/>
<polygon fill="#191970" stroke="#191970" points="1097.1486,-197.7036 1093.8278,-187.6427 1090.1497,-197.5786 1097.1486,-197.7036"/>
</g>
<!-- Node17 -->
<g id="node17" class="node">
<title>Node17</title>
<g id="a_node17"><a xlink:href="$_u_u_i_d_8h.html" xlink:title="uscxml/util/UUID.h">
<polygon fill="#ffffff" stroke="#000000" points="991.5,-112.5 991.5,-131.5 1090.5,-131.5 1090.5,-112.5 991.5,-112.5"/>
<text text-anchor="middle" x="1041" y="-119.5" font-family="Helvetica,sans-Serif" font-size="10.00" fill="#000000">uscxml/util/UUID.h</text>
</a>
</g>
</g>
<!-- Node6&#45;&gt;Node17 -->
<g id="edge22" class="edge">
<title>Node6&#45;&gt;Node17</title>
<path fill="none" stroke="#191970" d="M1066.0356,-224.4934C1049.8286,-217.2188 1030.5492,-205.4326 1021,-188 1012.7746,-172.9841 1019.979,-154.15 1027.9419,-140.4487"/>
<polygon fill="#191970" stroke="#191970" points="1030.9716,-142.2071 1033.3954,-131.8932 1025.0688,-138.4444 1030.9716,-142.2071"/>
</g>
<!-- Node7&#45;&gt;Node2 -->
<g id="edge12" class="edge">
<title>Node7&#45;&gt;Node2</title>
<path fill="none" stroke="#191970" d="M1029.875,-171.6654C946.1322,-162.9889 804.2865,-146.7947 754,-132 753.2705,-131.7854 683.809,-99.2199 642.6655,-79.9194"/>
<polygon fill="#191970" stroke="#191970" points="643.906,-76.6354 633.3662,-75.5568 640.9329,-82.9727 643.906,-76.6354"/>
</g>
<!-- Node7&#45;&gt;Node8 -->
<g id="edge8" class="edge">
<title>Node7&#45;&gt;Node8</title>
<path fill="none" stroke="#191970" d="M1150.6956,-168.4369C1224.0064,-156.0712 1348.518,-135.0693 1401.2401,-126.1764"/>
<polygon fill="#191970" stroke="#191970" points="1402.0779,-129.5846 1411.3565,-124.47 1400.9136,-122.6821 1402.0779,-129.5846"/>
</g>
<!-- Node7&#45;&gt;Node9 -->
<g id="edge9" class="edge">
<title>Node7&#45;&gt;Node9</title>
<path fill="none" stroke="#191970" d="M1029.6293,-170.5057C923.7364,-158.1772 717,-134.1081 641.4879,-125.3167"/>
<polygon fill="#191970" stroke="#191970" points="641.6642,-121.8137 631.3265,-124.1337 640.8547,-128.7667 641.6642,-121.8137"/>
</g>
<!-- Node10 -->
<g id="node10" class="node">
<title>Node10</title>
<polygon fill="#ffffff" stroke="#bfbfbf" points="1558.5,-56.5 1558.5,-75.5 1611.5,-75.5 1611.5,-56.5 1558.5,-56.5"/>
<text text-anchor="middle" x="1585" y="-63.5" font-family="Helvetica,sans-Serif" font-size="10.00" fill="#000000">memory</text>
</g>
<!-- Node7&#45;&gt;Node10 -->
<g id="edge10" class="edge">
<title>Node7&#45;&gt;Node10</title>
<path fill="none" stroke="#191970" d="M1146.7061,-168.4576C1193.8505,-159.7064 1264.7579,-146.0124 1326,-132 1360.4671,-124.1138 1368.7488,-120.7766 1403,-112 1453.501,-99.0596 1511.9502,-84.3308 1548.6975,-75.1009"/>
<polygon fill="#191970" stroke="#191970" points="1549.6152,-78.4792 1558.462,-72.6494 1547.9107,-71.6899 1549.6152,-78.4792"/>
</g>
<!-- Node11 -->
<g id="node11" class="node">
<title>Node11</title>
<polygon fill="#ffffff" stroke="#bfbfbf" points="1108.5,-112.5 1108.5,-131.5 1171.5,-131.5 1171.5,-112.5 1108.5,-112.5"/>
<text text-anchor="middle" x="1140" y="-119.5" font-family="Helvetica,sans-Serif" font-size="10.00" fill="#000000">type_traits</text>
</g>
<!-- Node7&#45;&gt;Node11 -->
<g id="edge11" class="edge">
<title>Node7&#45;&gt;Node11</title>
<path fill="none" stroke="#191970" d="M1102.0126,-168.2455C1108.4768,-160.3761 1117.7385,-149.101 1125.4983,-139.6542"/>
<polygon fill="#191970" stroke="#191970" points="1128.4364,-141.5916 1132.0792,-131.6427 1123.0273,-137.1484 1128.4364,-141.5916"/>
</g>
<!-- Node12 -->
<g id="node12" class="node">
<title>Node12</title>
<g id="a_node12"><a xlink:href="$_convenience_8h.html" xlink:title="uscxml/util/Convenience.h">
<polygon fill="#ffffff" stroke="#000000" points="763.5,-112.5 763.5,-131.5 896.5,-131.5 896.5,-112.5 763.5,-112.5"/>
<text text-anchor="middle" x="830" y="-119.5" font-family="Helvetica,sans-Serif" font-size="10.00" fill="#000000">uscxml/util/Convenience.h</text>
</a>
</g>
</g>
<!-- Node7&#45;&gt;Node12 -->
<g id="edge13" class="edge">
<title>Node7&#45;&gt;Node12</title>
<path fill="none" stroke="#191970" d="M1048.9167,-168.4369C1003.5454,-158.8127 933.5114,-143.957 884.9234,-133.6504"/>
<polygon fill="#191970" stroke="#191970" points="885.4059,-130.175 874.8973,-131.5237 883.9534,-137.0226 885.4059,-130.175"/>
</g>
<!-- Node16 -->
<g id="node16" class="node">
<title>Node16</title>
<g id="a_node16"><a xlink:href="$_blob_8h.html" xlink:title="uscxml/messages/Blob.h">
<polygon fill="#ffffff" stroke="#000000" points="1189.5,-112.5 1189.5,-131.5 1316.5,-131.5 1316.5,-112.5 1189.5,-112.5"/>
<text text-anchor="middle" x="1253" y="-119.5" font-family="Helvetica,sans-Serif" font-size="10.00" fill="#000000">uscxml/messages/Blob.h</text>
</a>
</g>
</g>
<!-- Node7&#45;&gt;Node16 -->
<g id="edge18" class="edge">
<title>Node7&#45;&gt;Node16</title>
<path fill="none" stroke="#191970" d="M1121.3331,-168.3733C1147.5434,-159.1419 1187.2984,-145.1402 1216.2668,-134.9375"/>
<polygon fill="#191970" stroke="#191970" points="1217.7542,-138.1244 1226.0236,-131.5011 1215.4288,-131.5219 1217.7542,-138.1244"/>
</g>
<!-- Node12&#45;&gt;Node2 -->
<g id="edge14" class="edge">
<title>Node12&#45;&gt;Node2</title>
<path fill="none" stroke="#191970" d="M792.6964,-112.3733C755.8315,-102.8598 699.334,-88.2797 659.5494,-78.0127"/>
<polygon fill="#191970" stroke="#191970" points="660.3742,-74.611 649.8169,-75.5011 658.625,-81.3889 660.3742,-74.611"/>
</g>
<!-- Node12&#45;&gt;Node13 -->
<g id="edge15" class="edge">
<title>Node12&#45;&gt;Node13</title>
<path fill="none" stroke="#191970" d="M896.5591,-113.1884C989.3146,-100.9087 1153.7328,-79.1418 1221.9744,-70.1074"/>
<polygon fill="#191970" stroke="#191970" points="1222.6211,-73.5524 1232.0753,-68.7702 1221.7024,-66.613 1222.6211,-73.5524"/>
</g>
<!-- Node14 -->
<g id="node14" class="node">
<title>Node14</title>
<polygon fill="#ffffff" stroke="#bfbfbf" points="810.5,-56.5 810.5,-75.5 849.5,-75.5 849.5,-56.5 810.5,-56.5"/>
<text text-anchor="middle" x="830" y="-63.5" font-family="Helvetica,sans-Serif" font-size="10.00" fill="#000000">limits</text>
</g>
<!-- Node12&#45;&gt;Node14 -->
<g id="edge16" class="edge">
<title>Node12&#45;&gt;Node14</title>
<path fill="none" stroke="#191970" d="M830,-112.2455C830,-104.9382 830,-94.6944 830,-85.7046"/>
<polygon fill="#191970" stroke="#191970" points="833.5001,-85.6426 830,-75.6427 826.5001,-85.6427 833.5001,-85.6426"/>
</g>
<!-- Node12&#45;&gt;Node15 -->
<g id="edge17" class="edge">
<title>Node12&#45;&gt;Node15</title>
<path fill="none" stroke="#191970" d="M763.2913,-113.1266C673.3128,-101.158 516.1912,-80.2582 445.4043,-70.8424"/>
<polygon fill="#191970" stroke="#191970" points="445.5804,-67.3351 435.2062,-69.4859 444.6573,-74.2739 445.5804,-67.3351"/>
</g>
<!-- Node16&#45;&gt;Node2 -->
<g id="edge21" class="edge">
<title>Node16&#45;&gt;Node2</title>
<path fill="none" stroke="#191970" d="M1189.4213,-112.9687C1186.577,-112.6281 1183.7598,-112.3032 1181,-112 996.3126,-91.7128 776.921,-76.4353 673.1344,-69.7352"/>
<polygon fill="#191970" stroke="#191970" points="673.0601,-66.2233 662.8564,-69.0753 672.6116,-73.2089 673.0601,-66.2233"/>
</g>
<!-- Node16&#45;&gt;Node10 -->
<g id="edge20" class="edge">
<title>Node16&#45;&gt;Node10</title>
<path fill="none" stroke="#191970" d="M1309.6956,-112.4369C1377.8664,-100.9382 1490.3099,-81.9718 1548.1342,-72.2183"/>
<polygon fill="#191970" stroke="#191970" points="1548.9941,-75.6228 1558.2727,-70.5082 1547.8298,-68.7203 1548.9941,-75.6228"/>
</g>
<!-- Node16&#45;&gt;Node13 -->
<g id="edge19" class="edge">
<title>Node16&#45;&gt;Node13</title>
<path fill="none" stroke="#191970" d="M1253,-112.2455C1253,-104.9382 1253,-94.6944 1253,-85.7046"/>
<polygon fill="#191970" stroke="#191970" points="1256.5001,-85.6426 1253,-75.6427 1249.5001,-85.6427 1256.5001,-85.6426"/>
</g>
<!-- Node17&#45;&gt;Node2 -->
<g id="edge23" class="edge">
<title>Node17&#45;&gt;Node2</title>
<path fill="none" stroke="#191970" d="M991.4848,-115.5214C912.4029,-105.1742 757.8575,-84.9533 672.7541,-73.8183"/>
<polygon fill="#191970" stroke="#191970" points="673.0993,-70.3337 662.7297,-72.5067 672.191,-77.2745 673.0993,-70.3337"/>
</g>
<!-- Node17&#45;&gt;Node13 -->
<g id="edge24" class="edge">
<title>Node17&#45;&gt;Node13</title>
<path fill="none" stroke="#191970" d="M1077.4441,-112.3733C1118.3485,-101.5683 1183.9941,-84.228 1222.3604,-74.0935"/>
<polygon fill="#191970" stroke="#191970" points="1223.6406,-77.3755 1232.415,-71.4375 1221.8528,-70.6076 1223.6406,-77.3755"/>
</g>
<!-- Node22&#45;&gt;Node8 -->
<g id="edge35" class="edge">
<title>Node22&#45;&gt;Node8</title>
<path fill="none" stroke="#191970" d="M1492.8909,-168.2455C1480.5791,-159.7337 1462.5042,-147.2375 1448.2462,-137.3801"/>
<polygon fill="#191970" stroke="#191970" points="1450.1634,-134.4506 1439.9474,-131.6427 1446.1826,-140.2085 1450.1634,-134.4506"/>
</g>
<!-- Node22&#45;&gt;Node13 -->
<g id="edge34" class="edge">
<title>Node22&#45;&gt;Node13</title>
<path fill="none" stroke="#191970" d="M1506.3626,-168.2685C1504.8616,-153.7179 1499.8324,-126.4594 1483,-112 1453.4007,-86.5734 1339.2174,-73.4365 1283.6825,-68.4387"/>
<polygon fill="#191970" stroke="#191970" points="1283.9795,-64.9514 1273.7141,-67.5727 1283.3736,-71.9251 1283.9795,-64.9514"/>
</g>
<!-- Node23&#45;&gt;Node8 -->
<g id="edge61" class="edge">
<title>Node23&#45;&gt;Node8</title>
<path fill="none" stroke="#191970" d="M1367.7394,-470.4972C1401.4987,-462.0233 1444.6007,-448.7109 1455,-434 1462.9531,-422.7495 1455.7081,-416.7596 1455,-403 1452.3643,-351.7863 1434.6826,-196.729 1428.2957,-141.6624"/>
<polygon fill="#191970" stroke="#191970" points="1431.746,-141.0313 1427.1138,-131.5028 1424.7929,-141.8403 1431.746,-141.0313"/>
</g>
<!-- Node23&#45;&gt;Node18 -->
<g id="edge62" class="edge">
<title>Node23&#45;&gt;Node18</title>
<path fill="none" stroke="#191970" d="M1278.873,-474.6975C1220.1881,-467.531 1115.8938,-453.3838 1028,-434 835.1399,-391.4672 789.5321,-369.8192 601,-311 526.252,-287.6797 438.7464,-257.4252 396.8373,-242.7503"/>
<polygon fill="#191970" stroke="#191970" points="397.7952,-239.3772 387.2003,-239.3688 395.4774,-245.9824 397.7952,-239.3772"/>
</g>
<!-- Node23&#45;&gt;Node21 -->
<g id="edge63" class="edge">
<title>Node23&#45;&gt;Node21</title>
<path fill="none" stroke="#191970" d="M1278.854,-471.848C1206.0655,-457.7434 1061.5162,-424.6238 951,-367 915.3636,-348.419 897.5347,-347.1627 880,-311 870.3877,-291.1762 883.1021,-267.4286 894.8164,-251.5978"/>
<polygon fill="#191970" stroke="#191970" points="897.6115,-253.7059 901.0733,-243.6926 892.1227,-249.3616 897.6115,-253.7059"/>
</g>
<!-- Node24 -->
<g id="node24" class="node">
<title>Node24</title>
<polygon fill="#ffffff" stroke="#bfbfbf" points="1360.5,-409 1360.5,-428 1445.5,-428 1445.5,-409 1360.5,-409"/>
<text text-anchor="middle" x="1403" y="-416" font-family="Helvetica,sans-Serif" font-size="10.00" fill="#000000">uscxml/config.h</text>
</g>
<!-- Node23&#45;&gt;Node24 -->
<g id="edge37" class="edge">
<title>Node23&#45;&gt;Node24</title>
<path fill="none" stroke="#191970" d="M1337.1875,-470.3906C1349.437,-460.7324 1368.5263,-445.6812 1382.9977,-434.271"/>
<polygon fill="#191970" stroke="#191970" points="1385.2124,-436.9819 1390.8981,-428.0419 1380.8783,-431.485 1385.2124,-436.9819"/>
</g>
<!-- Node25 -->
<g id="node25" class="node">
<title>Node25</title>
<g id="a_node25"><a xlink:href="$_data_model_impl_8h.html" xlink:title="uscxml/plugins/DataModel\lImpl.h">
<polygon fill="#ffffff" stroke="#000000" points="1209.5,-403.5 1209.5,-433.5 1342.5,-433.5 1342.5,-403.5 1209.5,-403.5"/>
<text text-anchor="start" x="1217.5" y="-421.5" font-family="Helvetica,sans-Serif" font-size="10.00" fill="#000000">uscxml/plugins/DataModel</text>
<text text-anchor="middle" x="1276" y="-410.5" font-family="Helvetica,sans-Serif" font-size="10.00" fill="#000000">Impl.h</text>
</a>
</g>
</g>
<!-- Node23&#45;&gt;Node25 -->
<g id="edge38" class="edge">
<title>Node23&#45;&gt;Node25</title>
<path fill="none" stroke="#191970" d="M1317.3438,-470.3906C1311.2034,-462.6839 1302.3272,-451.5434 1294.3721,-441.5589"/>
<polygon fill="#191970" stroke="#191970" points="1296.9556,-439.1847 1287.9867,-433.5446 1291.4808,-443.5467 1296.9556,-439.1847"/>
</g>
<!-- Node25&#45;&gt;Node2 -->
<g id="edge39" class="edge">
<title>Node25&#45;&gt;Node2</title>
<path fill="none" stroke="#191970" d="M1209.4056,-411.3508C1045.1941,-392.454 626.907,-336.212 526,-244 481.9226,-203.7207 466.0061,-160.3804 501,-112 513.5457,-94.6551 533.8332,-83.8306 553.718,-77.0835"/>
<polygon fill="#191970" stroke="#191970" points="554.8906,-80.3845 563.4116,-74.0882 552.824,-73.6966 554.8906,-80.3845"/>
</g>
<!-- Node25&#45;&gt;Node8 -->
<g id="edge58" class="edge">
<title>Node25&#45;&gt;Node8</title>
<path fill="none" stroke="#191970" d="M1298.4068,-403.4088C1323.5126,-384.998 1362.8123,-351.2932 1379,-311 1402.6951,-252.02 1351.7521,-226.3322 1377,-168 1382.4314,-155.4514 1393.158,-144.7522 1403.1938,-136.8387"/>
<polygon fill="#191970" stroke="#191970" points="1405.3392,-139.6057 1411.33,-130.8672 1401.1974,-133.9625 1405.3392,-139.6057"/>
</g>
<!-- Node25&#45;&gt;Node10 -->
<g id="edge60" class="edge">
<title>Node25&#45;&gt;Node10</title>
<path fill="none" stroke="#191970" d="M1322.4869,-403.4131C1400.3246,-375.3126 1554.621,-306.7781 1617,-188 1632.7173,-158.0721 1630.8007,-144.0322 1620,-112 1616.4305,-101.4138 1609.3465,-91.3356 1602.4798,-83.3256"/>
<polygon fill="#191970" stroke="#191970" points="1604.9019,-80.7886 1595.559,-75.7924 1599.747,-85.5244 1604.9019,-80.7886"/>
</g>
<!-- Node25&#45;&gt;Node13 -->
<g id="edge59" class="edge">
<title>Node25&#45;&gt;Node13</title>
<path fill="none" stroke="#191970" d="M1310.1228,-403.399C1327.4055,-394.5634 1347.8733,-382.1567 1363,-367 1383.4073,-346.5523 1384.4118,-337.4628 1396,-311 1405.1902,-290.0133 1464.2398,-129.9479 1450,-112 1429.6122,-86.3031 1334.0922,-73.6156 1283.9372,-68.6337"/>
<polygon fill="#191970" stroke="#191970" points="1283.9632,-65.1206 1273.6771,-67.6595 1283.3015,-72.0892 1283.9632,-65.1206"/>
</g>
<!-- Node26 -->
<g id="node26" class="node">
<title>Node26</title>
<g id="a_node26"><a xlink:href="$_invoker_8h.html" xlink:title="uscxml/plugins/Invoker.h">
<polygon fill="#ffffff" stroke="#000000" points="960,-347.5 960,-366.5 1086,-366.5 1086,-347.5 960,-347.5"/>
<text text-anchor="middle" x="1023" y="-354.5" font-family="Helvetica,sans-Serif" font-size="10.00" fill="#000000">uscxml/plugins/Invoker.h</text>
</a>
</g>
</g>
<!-- Node25&#45;&gt;Node26 -->
<g id="edge40" class="edge">
<title>Node25&#45;&gt;Node26</title>
<path fill="none" stroke="#191970" d="M1214.1092,-403.4554C1170.4144,-392.8339 1112.6611,-378.7951 1072.1225,-368.9408"/>
<polygon fill="#191970" stroke="#191970" points="1072.7498,-365.4915 1062.206,-366.5303 1071.0963,-372.2934 1072.7498,-365.4915"/>
</g>
<!-- Node28 -->
<g id="node28" class="node">
<title>Node28</title>
<g id="a_node28"><a xlink:href="$_i_o_processor_8h.html" xlink:title="uscxml/plugins/IOProcessor.h">
<polygon fill="#ffffff" stroke="#000000" points="1104.5,-347.5 1104.5,-366.5 1253.5,-366.5 1253.5,-347.5 1104.5,-347.5"/>
<text text-anchor="middle" x="1179" y="-354.5" font-family="Helvetica,sans-Serif" font-size="10.00" fill="#000000">uscxml/plugins/IOProcessor.h</text>
</a>
</g>
</g>
<!-- Node25&#45;&gt;Node28 -->
<g id="edge49" class="edge">
<title>Node25&#45;&gt;Node28</title>
<path fill="none" stroke="#191970" d="M1252.0225,-403.2977C1237.0624,-393.8127 1217.878,-381.6495 1202.9274,-372.1705"/>
<polygon fill="#191970" stroke="#191970" points="1204.561,-369.062 1194.2413,-366.6633 1200.8127,-374.9739 1204.561,-369.062"/>
</g>
<!-- Node25&#45;&gt;Node29 -->
<g id="edge53" class="edge">
<title>Node25&#45;&gt;Node29</title>
<path fill="none" stroke="#191970" d="M1281.6405,-403.4178C1289.4,-382.6694 1303.4619,-345.0692 1312.7671,-320.1881"/>
<polygon fill="#191970" stroke="#191970" points="1316.0887,-321.298 1316.3134,-310.7056 1309.5322,-318.846 1316.0887,-321.298"/>
</g>
<!-- Node26&#45;&gt;Node2 -->
<g id="edge41" class="edge">
<title>Node26&#45;&gt;Node2</title>
<path fill="none" stroke="#191970" d="M1019.9006,-347.1445C1011.5435,-322.2601 986.0784,-256.5616 941,-224 869.1672,-172.1127 607.9573,-201.5122 553,-132 538.397,-113.5295 562.3073,-93.717 584.1327,-80.6725"/>
<polygon fill="#191970" stroke="#191970" points="585.9547,-83.663 592.929,-75.6874 582.5032,-77.573 585.9547,-83.663"/>
</g>
<!-- Node26&#45;&gt;Node6 -->
<g id="edge48" class="edge">
<title>Node26&#45;&gt;Node6</title>
<path fill="none" stroke="#191970" d="M1027.037,-347.2384C1033.3411,-332.3421 1046.235,-303.2195 1060,-280 1065.7419,-270.3142 1072.9535,-260.0852 1079.1694,-251.7389"/>
<polygon fill="#191970" stroke="#191970" points="1082.14,-253.6146 1085.4069,-243.536 1076.5679,-249.3776 1082.14,-253.6146"/>
</g>
<!-- Node27 -->
<g id="node27" class="node">
<title>Node27</title>
<g id="a_node27"><a xlink:href="$_event_handler_8h.html" xlink:title="uscxml/plugins/EventHandler.h">
<polygon fill="#ffffff" stroke="#000000" points="1102,-286 1102,-305 1256,-305 1256,-286 1102,-286"/>
<text text-anchor="middle" x="1179" y="-293" font-family="Helvetica,sans-Serif" font-size="10.00" fill="#000000">uscxml/plugins/EventHandler.h</text>
</a>
</g>
</g>
<!-- Node26&#45;&gt;Node27 -->
<g id="edge42" class="edge">
<title>Node26&#45;&gt;Node27</title>
<path fill="none" stroke="#191970" d="M1047.375,-347.3906C1073.7056,-337.0103 1115.838,-320.4004 1145.3229,-308.7766"/>
<polygon fill="#191970" stroke="#191970" points="1146.7767,-311.9657 1154.7962,-305.0419 1144.2093,-305.4534 1146.7767,-311.9657"/>
</g>
<!-- Node27&#45;&gt;Node2 -->
<g id="edge43" class="edge">
<title>Node27&#45;&gt;Node2</title>
<path fill="none" stroke="#191970" d="M1180.8951,-285.6301C1183.2285,-270.2194 1185.1111,-240.502 1169,-224 1134.546,-188.7102 998.3783,-197.591 950,-188 911.5069,-180.3688 902.3602,-176.2731 864,-168 783.8233,-150.7084 755.8962,-169.5958 683,-132 660.4151,-120.3519 639.9511,-99.2381 627.064,-84.0235"/>
<polygon fill="#191970" stroke="#191970" points="629.432,-81.3902 620.393,-75.8632 624.0125,-85.8206 629.432,-81.3902"/>
</g>
<!-- Node27&#45;&gt;Node6 -->
<g id="edge44" class="edge">
<title>Node27&#45;&gt;Node6</title>
<path fill="none" stroke="#191970" d="M1165.5625,-285.8906C1151.9305,-276.1421 1130.6154,-260.8994 1114.6078,-249.4521"/>
<polygon fill="#191970" stroke="#191970" points="1116.5132,-246.5118 1106.3431,-243.5419 1112.4414,-252.2057 1116.5132,-246.5118"/>
</g>
<!-- Node27&#45;&gt;Node8 -->
<g id="edge45" class="edge">
<title>Node27&#45;&gt;Node8</title>
<path fill="none" stroke="#191970" d="M1190.5059,-285.8674C1221.785,-259.7567 1308.0934,-188.2314 1339,-168 1359.5045,-154.5777 1384.3443,-141.7553 1402.224,-133.0744"/>
<polygon fill="#191970" stroke="#191970" points="1403.8584,-136.1725 1411.3694,-128.7002 1400.838,-129.8576 1403.8584,-136.1725"/>
</g>
<!-- Node27&#45;&gt;Node10 -->
<g id="edge47" class="edge">
<title>Node27&#45;&gt;Node10</title>
<path fill="none" stroke="#191970" d="M1223.4891,-285.9784C1320.2115,-264.8808 1542.8516,-214.0141 1566,-188 1591.1864,-159.6956 1590.6511,-112.319 1587.906,-85.6988"/>
<polygon fill="#191970" stroke="#191970" points="1591.3673,-85.17 1586.6627,-75.677 1584.4205,-86.0319 1591.3673,-85.17"/>
</g>
<!-- Node27&#45;&gt;Node13 -->
<g id="edge46" class="edge">
<title>Node27&#45;&gt;Node13</title>
<path fill="none" stroke="#191970" d="M1187.1496,-285.6648C1198.7193,-271.7677 1220.6528,-245.6621 1240,-224 1277.2846,-182.2544 1305.4547,-184.0647 1326,-132 1329.2628,-123.7316 1330.2947,-119.7825 1326,-112 1316.8297,-95.3823 1298.8547,-83.9458 1283.0369,-76.6324"/>
<polygon fill="#191970" stroke="#191970" points="1284.1369,-73.2969 1273.5648,-72.6022 1281.3962,-79.7381 1284.1369,-73.2969"/>
</g>
<!-- Node28&#45;&gt;Node2 -->
<g id="edge50" class="edge">
<title>Node28&#45;&gt;Node2</title>
<path fill="none" stroke="#191970" d="M1154.9369,-347.3412C1134.6563,-338.8199 1105.1638,-325.5233 1081,-311 1025.7646,-277.8016 1023.2837,-251.4972 965,-224 955.2021,-219.3775 592.6962,-140.5162 586,-132 574.7202,-117.6545 585.3823,-97.947 596.4575,-83.8087"/>
<polygon fill="#191970" stroke="#191970" points="599.427,-85.7178 603.2144,-75.8231 594.0832,-81.1963 599.427,-85.7178"/>
</g>
<!-- Node28&#45;&gt;Node6 -->
<g id="edge52" class="edge">
<title>Node28&#45;&gt;Node6</title>
<path fill="none" stroke="#191970" d="M1143.0343,-347.454C1124.6374,-340.5484 1103.8785,-329.1556 1093,-311 1082.728,-293.8566 1084.4534,-270.4762 1087.6667,-253.9901"/>
<polygon fill="#191970" stroke="#191970" points="1091.1707,-254.3693 1089.9999,-243.8393 1084.3486,-252.8011 1091.1707,-254.3693"/>
</g>
<!-- Node28&#45;&gt;Node27 -->
<g id="edge51" class="edge">
<title>Node28&#45;&gt;Node27</title>
<path fill="none" stroke="#191970" d="M1179,-347.3906C1179,-338.8657 1179,-326.1392 1179,-315.4235"/>
<polygon fill="#191970" stroke="#191970" points="1182.5001,-315.2448 1179,-305.2449 1175.5001,-315.2449 1182.5001,-315.2448"/>
</g>
<!-- Node29&#45;&gt;Node2 -->
<g id="edge54" class="edge">
<title>Node29&#45;&gt;Node2</title>
<path fill="none" stroke="#191970" d="M1298.7433,-280.4505C1272.739,-264.2637 1228.8933,-238.8553 1188,-224 1173.7547,-218.8251 935.8883,-170.8365 921,-168 827.9783,-150.2779 798.4025,-168.4406 711,-132 696.8847,-126.1149 695.6148,-120.6454 683,-112 667.6985,-101.5134 650.2656,-90.056 636.6247,-81.1991"/>
<polygon fill="#191970" stroke="#191970" points="638.1566,-78.0215 627.8597,-75.5267 634.3534,-83.8982 638.1566,-78.0215"/>
</g>
<!-- Node29&#45;&gt;Node6 -->
<g id="edge56" class="edge">
<title>Node29&#45;&gt;Node6</title>
<path fill="none" stroke="#191970" d="M1273.8018,-282.3783C1270.8237,-281.5722 1267.8714,-280.7744 1265,-280 1222.2183,-268.4624 1173.4172,-255.4225 1138.7524,-246.1804"/>
<polygon fill="#191970" stroke="#191970" points="1139.4836,-242.7531 1128.9195,-243.5596 1137.6807,-249.517 1139.4836,-242.7531"/>
</g>
<!-- Node29&#45;&gt;Node7 -->
<g id="edge55" class="edge">
<title>Node29&#45;&gt;Node7</title>
<path fill="none" stroke="#191970" d="M1316.6286,-280.2053C1310.073,-263.8039 1297.4033,-238.2085 1278,-224 1259.4144,-210.3903 1206.1801,-197.9162 1161.7238,-189.402"/>
<polygon fill="#191970" stroke="#191970" points="1162.2807,-185.9455 1151.8065,-187.5394 1160.9885,-192.8252 1162.2807,-185.9455"/>
</g>
<!-- Node29&#45;&gt;Node10 -->
<g id="edge57" class="edge">
<title>Node29&#45;&gt;Node10</title>
<path fill="none" stroke="#191970" d="M1370.0877,-283.9466C1442.2672,-265.5026 1572.9631,-227.4464 1599,-188 1619.7477,-156.5668 1605.1934,-110.4189 1594.1792,-84.8337"/>
<polygon fill="#191970" stroke="#191970" points="1597.2655,-83.1662 1589.9298,-75.5217 1590.8972,-86.0723 1597.2655,-83.1662"/>
</g>
<!-- Node30&#45;&gt;Node2 -->
<g id="edge69" class="edge">
<title>Node30&#45;&gt;Node2</title>
<path fill="none" stroke="#191970" d="M364.5018,-285.7488C354.8511,-271.9515 340.202,-245.9638 348,-224 369.4589,-163.5592 385.1232,-146.7975 439,-112 473.1618,-89.9359 517.5626,-78.4169 552.9611,-72.4237"/>
<polygon fill="#191970" stroke="#191970" points="553.8341,-75.8291 563.1623,-70.8056 552.7374,-68.9155 553.8341,-75.8291"/>
</g>
<!-- Node30&#45;&gt;Node8 -->
<g id="edge67" class="edge">
<title>Node30&#45;&gt;Node8</title>
<path fill="none" stroke="#191970" d="M421.0454,-288.9236C489.457,-279.6232 617.3625,-261.7727 726,-244 775.0385,-235.9775 786.8246,-231.1354 836,-224 982.445,-202.7508 1026.8437,-235.4752 1167,-188 1183.2435,-182.4979 1184.0243,-174.237 1200,-168 1275.1861,-138.6468 1298.9359,-148.2309 1378,-132 1385.5944,-130.441 1393.8607,-128.7255 1401.3594,-127.1622"/>
<polygon fill="#191970" stroke="#191970" points="1402.2261,-130.5568 1411.2991,-125.0859 1400.7947,-123.7047 1402.2261,-130.5568"/>
</g>
<!-- Node30&#45;&gt;Node13 -->
<g id="edge68" class="edge">
<title>Node30&#45;&gt;Node13</title>
<path fill="none" stroke="#191970" d="M392.7903,-285.9873C425.3761,-271.3222 490.6847,-242.9118 548,-224 704.0078,-172.5237 753.3966,-192.8313 906,-132 923.0023,-125.2225 924.6664,-117.8786 942,-112 1040.8179,-78.4864 1165.4871,-69.3741 1222.286,-66.9081"/>
<polygon fill="#191970" stroke="#191970" points="1222.5427,-70.4008 1232.397,-66.5094 1222.2669,-63.4062 1222.5427,-70.4008"/>
</g>
<!-- Node30&#45;&gt;Node18 -->
<g id="edge66" class="edge">
<title>Node30&#45;&gt;Node18</title>
<path fill="none" stroke="#191970" d="M372,-285.8906C372,-277.3657 372,-264.6392 372,-253.9235"/>
<polygon fill="#191970" stroke="#191970" points="375.5001,-253.7448 372,-243.7449 368.5001,-253.7449 375.5001,-253.7448"/>
</g>
<!-- Node31 -->
<g id="node31" class="node">
<title>Node31</title>
<polygon fill="#ffffff" stroke="#bfbfbf" points="28.5,-224.5 28.5,-243.5 163.5,-243.5 163.5,-224.5 28.5,-224.5"/>
<text text-anchor="middle" x="96" y="-231.5" font-family="Helvetica,sans-Serif" font-size="10.00" fill="#000000">xercesc/util/XMLString.hpp</text>
</g>
<!-- Node30&#45;&gt;Node31 -->
<g id="edge70" class="edge">
<title>Node30&#45;&gt;Node31</title>
<path fill="none" stroke="#191970" d="M329.1778,-285.9581C280.53,-275.1181 201.115,-257.4224 148.7042,-245.7439"/>
<polygon fill="#191970" stroke="#191970" points="149.4445,-242.3231 138.9226,-243.5643 147.922,-249.1555 149.4445,-242.3231"/>
</g>
<!-- Node32 -->
<g id="node32" class="node">
<title>Node32</title>
<polygon fill="#ffffff" stroke="#bfbfbf" points="181.5,-224.5 181.5,-243.5 300.5,-243.5 300.5,-224.5 181.5,-224.5"/>
<text text-anchor="middle" x="241" y="-231.5" font-family="Helvetica,sans-Serif" font-size="10.00" fill="#000000">xercesc/dom/DOM.hpp</text>
</g>
<!-- Node30&#45;&gt;Node32 -->
<g id="edge71" class="edge">
<title>Node30&#45;&gt;Node32</title>
<path fill="none" stroke="#191970" d="M351.5313,-285.8906C329.8048,-275.6908 295.2665,-259.4763 270.5815,-247.8875"/>
<polygon fill="#191970" stroke="#191970" points="271.8645,-244.6234 261.325,-243.5419 268.8897,-250.9598 271.8645,-244.6234"/>
</g>
</g>
</svg>
