<?xml version="1.0" encoding="UTF-8" standalone="no"?>
<!DOCTYPE svg PUBLIC "-//W3C//DTD SVG 1.1//EN"
 "http://www.w3.org/Graphics/SVG/1.1/DTD/svg11.dtd">
<!-- Generated by graphviz version 2.38.0 (20140413.2041)
 -->
<!-- Title: interpreter/Logging.h Pages: 1 -->
<svg width="762pt" height="308pt"
 viewBox="0.00 0.00 762.00 308.00" xmlns="http://www.w3.org/2000/svg" xmlns:xlink="http://www.w3.org/1999/xlink">
<g id="graph0" class="graph" transform="scale(1 1) rotate(0) translate(4 304)">
<title>interpreter/Logging.h</title>
<polygon fill="white" stroke="none" points="-4,4 -4,-304 758,-304 758,4 -4,4"/>
<!-- Node1 -->
<g id="node1" class="node"><title>Node1</title>
<polygon fill="#bfbfbf" stroke="black" points="97,-280.5 97,-299.5 206,-299.5 206,-280.5 97,-280.5"/>
<text text-anchor="middle" x="151.5" y="-287.5" font-family="Helvetica,sans-Serif" font-size="10.00">interpreter/Logging.h</text>
</g>
<!-- Node2 -->
<g id="node2" class="node"><title>Node2</title>
<polygon fill="white" stroke="#bfbfbf" points="0,-224.5 0,-243.5 85,-243.5 85,-224.5 0,-224.5"/>
<text text-anchor="middle" x="42.5" y="-231.5" font-family="Helvetica,sans-Serif" font-size="10.00">uscxml/config.h</text>
</g>
<!-- Node1&#45;&gt;Node2 -->
<g id="edge1" class="edge"><title>Node1&#45;&gt;Node2</title>
<path fill="none" stroke="midnightblue" d="M133.987,-280.324C116.428,-271.625 89.1686,-258.12 68.9688,-248.113"/>
<polygon fill="midnightblue" stroke="midnightblue" points="70.4837,-244.958 59.9693,-243.655 67.3762,-251.23 70.4837,-244.958"/>
</g>
<!-- Node3 -->
<g id="node3" class="node"><title>Node3</title>
<g id="a_node3"><a xlink:href="_common_8h.html" target="_top" xlink:title="uscxml/Common.h">
<polygon fill="white" stroke="black" points="421,-56.5 421,-75.5 520,-75.5 520,-56.5 421,-56.5"/>
<text text-anchor="middle" x="470.5" y="-63.5" font-family="Helvetica,sans-Serif" font-size="10.00">uscxml/Common.h</text>
</a>
</g>
</g>
<!-- Node1&#45;&gt;Node3 -->
<g id="edge2" class="edge"><title>Node1&#45;&gt;Node3</title>
<path fill="none" stroke="midnightblue" d="M151.438,-280.331C151.737,-251.402 156.886,-157.447 209.5,-112 238.916,-86.5913 343.318,-75.1163 410.829,-70.2531"/>
<polygon fill="midnightblue" stroke="midnightblue" points="411.185,-73.737 420.92,-69.5554 410.702,-66.7536 411.185,-73.737"/>
</g>
<!-- Node6 -->
<g id="node6" class="node"><title>Node6</title>
<g id="a_node6"><a xlink:href="_data_8h.html" target="_top" xlink:title="uscxml/messages/Data.h">
<polygon fill="white" stroke="black" points="219.5,-168.5 219.5,-187.5 347.5,-187.5 347.5,-168.5 219.5,-168.5"/>
<text text-anchor="middle" x="283.5" y="-175.5" font-family="Helvetica,sans-Serif" font-size="10.00">uscxml/messages/Data.h</text>
</a>
</g>
</g>
<!-- Node1&#45;&gt;Node6 -->
<g id="edge5" class="edge"><title>Node1&#45;&gt;Node6</title>
<path fill="none" stroke="midnightblue" d="M157.935,-280.261C167.955,-267.035 188.346,-241.612 209.5,-224 224.192,-211.767 242.545,-200.585 257.297,-192.427"/>
<polygon fill="midnightblue" stroke="midnightblue" points="259.255,-195.348 266.397,-187.523 255.934,-189.186 259.255,-195.348"/>
</g>
<!-- Node9 -->
<g id="node9" class="node"><title>Node9</title>
<polygon fill="white" stroke="#bfbfbf" points="163,-56.5 163,-75.5 216,-75.5 216,-56.5 163,-56.5"/>
<text text-anchor="middle" x="189.5" y="-63.5" font-family="Helvetica,sans-Serif" font-size="10.00">memory</text>
</g>
<!-- Node1&#45;&gt;Node9 -->
<g id="edge24" class="edge"><title>Node1&#45;&gt;Node9</title>
<path fill="none" stroke="midnightblue" d="M147.994,-280.378C137.763,-253.816 110.334,-171.435 137.5,-112 143.277,-99.3602 154.552,-88.911 165.131,-81.2737"/>
<polygon fill="midnightblue" stroke="midnightblue" points="167.349,-84.0009 173.717,-75.5333 163.458,-78.1817 167.349,-84.0009"/>
</g>
<!-- Node15 -->
<g id="node15" class="node"><title>Node15</title>
<g id="a_node15"><a xlink:href="_event_8h.html" target="_top" xlink:title="uscxml/messages/Event.h">
<polygon fill="white" stroke="black" points="218,-224.5 218,-243.5 351,-243.5 351,-224.5 218,-224.5"/>
<text text-anchor="middle" x="284.5" y="-231.5" font-family="Helvetica,sans-Serif" font-size="10.00">uscxml/messages/Event.h</text>
</a>
</g>
</g>
<!-- Node1&#45;&gt;Node15 -->
<g id="edge19" class="edge"><title>Node1&#45;&gt;Node15</title>
<path fill="none" stroke="midnightblue" d="M172.574,-280.444C194.56,-271.517 229.234,-257.439 254.164,-247.317"/>
<polygon fill="midnightblue" stroke="midnightblue" points="255.576,-250.521 263.524,-243.516 252.942,-244.035 255.576,-250.521"/>
</g>
<!-- Node4 -->
<g id="node4" class="node"><title>Node4</title>
<polygon fill="white" stroke="#bfbfbf" points="396.5,-0.5 396.5,-19.5 468.5,-19.5 468.5,-0.5 396.5,-0.5"/>
<text text-anchor="middle" x="432.5" y="-7.5" font-family="Helvetica,sans-Serif" font-size="10.00">sys/socket.h</text>
</g>
<!-- Node3&#45;&gt;Node4 -->
<g id="edge3" class="edge"><title>Node3&#45;&gt;Node4</title>
<path fill="none" stroke="midnightblue" d="M464.225,-56.083C458.858,-48.4554 450.982,-37.2645 444.421,-27.9408"/>
<polygon fill="midnightblue" stroke="midnightblue" points="447.275,-25.9149 438.658,-19.7511 441.551,-29.9434 447.275,-25.9149"/>
</g>
<!-- Node5 -->
<g id="node5" class="node"><title>Node5</title>
<polygon fill="white" stroke="#bfbfbf" points="486.5,-0.5 486.5,-19.5 530.5,-19.5 530.5,-0.5 486.5,-0.5"/>
<text text-anchor="middle" x="508.5" y="-7.5" font-family="Helvetica,sans-Serif" font-size="10.00">cmath</text>
</g>
<!-- Node3&#45;&gt;Node5 -->
<g id="edge4" class="edge"><title>Node3&#45;&gt;Node5</title>
<path fill="none" stroke="midnightblue" d="M476.775,-56.083C482.142,-48.4554 490.018,-37.2645 496.579,-27.9408"/>
<polygon fill="midnightblue" stroke="midnightblue" points="499.449,-29.9434 502.342,-19.7511 493.725,-25.9149 499.449,-29.9434"/>
</g>
<!-- Node6&#45;&gt;Node3 -->
<g id="edge9" class="edge"><title>Node6&#45;&gt;Node3</title>
<path fill="none" stroke="midnightblue" d="M342.297,-168.429C386.016,-160.86 440.716,-148.467 456.5,-132 468.097,-119.901 471.043,-100.619 471.42,-86.1923"/>
<polygon fill="midnightblue" stroke="midnightblue" points="474.916,-85.8483 471.289,-75.8939 467.917,-85.938 474.916,-85.8483"/>
</g>
<!-- Node7 -->
<g id="node7" class="node"><title>Node7</title>
<polygon fill="white" stroke="#bfbfbf" points="218,-112.5 218,-131.5 247,-131.5 247,-112.5 218,-112.5"/>
<text text-anchor="middle" x="232.5" y="-119.5" font-family="Helvetica,sans-Serif" font-size="10.00">list</text>
</g>
<!-- Node6&#45;&gt;Node7 -->
<g id="edge6" class="edge"><title>Node6&#45;&gt;Node7</title>
<path fill="none" stroke="midnightblue" d="M275.078,-168.083C267.652,-160.22 256.648,-148.569 247.688,-139.081"/>
<polygon fill="midnightblue" stroke="midnightblue" points="250.176,-136.618 240.765,-131.751 245.087,-141.424 250.176,-136.618"/>
</g>
<!-- Node8 -->
<g id="node8" class="node"><title>Node8</title>
<polygon fill="white" stroke="#bfbfbf" points="265.5,-112.5 265.5,-131.5 301.5,-131.5 301.5,-112.5 265.5,-112.5"/>
<text text-anchor="middle" x="283.5" y="-119.5" font-family="Helvetica,sans-Serif" font-size="10.00">map</text>
</g>
<!-- Node6&#45;&gt;Node8 -->
<g id="edge7" class="edge"><title>Node6&#45;&gt;Node8</title>
<path fill="none" stroke="midnightblue" d="M283.5,-168.083C283.5,-161.006 283.5,-150.861 283.5,-141.986"/>
<polygon fill="midnightblue" stroke="midnightblue" points="287,-141.751 283.5,-131.751 280,-141.751 287,-141.751"/>
</g>
<!-- Node6&#45;&gt;Node9 -->
<g id="edge8" class="edge"><title>Node6&#45;&gt;Node9</title>
<path fill="none" stroke="midnightblue" d="M260.694,-168.354C244.25,-161.02 222.708,-148.967 209.5,-132 199.085,-118.62 194.061,-99.797 191.657,-85.848"/>
<polygon fill="midnightblue" stroke="midnightblue" points="195.116,-85.3086 190.238,-75.9033 188.186,-86.2974 195.116,-85.3086"/>
</g>
<!-- Node10 -->
<g id="node10" class="node"><title>Node10</title>
<g id="a_node10"><a xlink:href="_convenience_8h.html" target="_top" xlink:title="uscxml/util/Convenience.h">
<polygon fill="white" stroke="black" points="621,-112.5 621,-131.5 754,-131.5 754,-112.5 621,-112.5"/>
<text text-anchor="middle" x="687.5" y="-119.5" font-family="Helvetica,sans-Serif" font-size="10.00">uscxml/util/Convenience.h</text>
</a>
</g>
</g>
<!-- Node6&#45;&gt;Node10 -->
<g id="edge10" class="edge"><title>Node6&#45;&gt;Node10</title>
<path fill="none" stroke="midnightblue" d="M347.515,-168.444C419.913,-158.767 537.607,-143.035 613.783,-132.853"/>
<polygon fill="midnightblue" stroke="midnightblue" points="614.336,-136.311 623.784,-131.516 613.409,-129.372 614.336,-136.311"/>
</g>
<!-- Node14 -->
<g id="node14" class="node"><title>Node14</title>
<g id="a_node14"><a xlink:href="_blob_8h.html" target="_top" xlink:title="uscxml/messages/Blob.h">
<polygon fill="white" stroke="black" points="320,-112.5 320,-131.5 447,-131.5 447,-112.5 320,-112.5"/>
<text text-anchor="middle" x="383.5" y="-119.5" font-family="Helvetica,sans-Serif" font-size="10.00">uscxml/messages/Blob.h</text>
</a>
</g>
</g>
<!-- Node6&#45;&gt;Node14 -->
<g id="edge15" class="edge"><title>Node6&#45;&gt;Node14</title>
<path fill="none" stroke="midnightblue" d="M299.567,-168.324C315.458,-159.743 340.007,-146.486 358.458,-136.522"/>
<polygon fill="midnightblue" stroke="midnightblue" points="360.337,-139.486 367.473,-131.655 357.011,-133.326 360.337,-139.486"/>
</g>
<!-- Node10&#45;&gt;Node3 -->
<g id="edge11" class="edge"><title>Node10&#45;&gt;Node3</title>
<path fill="none" stroke="midnightblue" d="M653.116,-112.444C615.578,-103.102 555.369,-88.1194 514.433,-77.9326"/>
<polygon fill="midnightblue" stroke="midnightblue" points="515.273,-74.5349 504.723,-75.5164 513.582,-81.3278 515.273,-74.5349"/>
</g>
<!-- Node11 -->
<g id="node11" class="node"><title>Node11</title>
<polygon fill="white" stroke="#bfbfbf" points="538,-56.5 538,-75.5 579,-75.5 579,-56.5 538,-56.5"/>
<text text-anchor="middle" x="558.5" y="-63.5" font-family="Helvetica,sans-Serif" font-size="10.00">string</text>
</g>
<!-- Node10&#45;&gt;Node11 -->
<g id="edge12" class="edge"><title>Node10&#45;&gt;Node11</title>
<path fill="none" stroke="midnightblue" d="M667.06,-112.444C645.83,-103.557 612.401,-89.5632 588.245,-79.4514"/>
<polygon fill="midnightblue" stroke="midnightblue" points="589.421,-76.1493 578.845,-75.5164 586.718,-82.6064 589.421,-76.1493"/>
</g>
<!-- Node12 -->
<g id="node12" class="node"><title>Node12</title>
<polygon fill="white" stroke="#bfbfbf" points="700,-56.5 700,-75.5 739,-75.5 739,-56.5 700,-56.5"/>
<text text-anchor="middle" x="719.5" y="-63.5" font-family="Helvetica,sans-Serif" font-size="10.00">limits</text>
</g>
<!-- Node10&#45;&gt;Node12 -->
<g id="edge13" class="edge"><title>Node10&#45;&gt;Node12</title>
<path fill="none" stroke="midnightblue" d="M692.784,-112.083C697.211,-104.613 703.663,-93.7244 709.118,-84.5199"/>
<polygon fill="midnightblue" stroke="midnightblue" points="712.227,-86.1383 714.314,-75.7511 706.205,-82.5697 712.227,-86.1383"/>
</g>
<!-- Node13 -->
<g id="node13" class="node"><title>Node13</title>
<polygon fill="white" stroke="#bfbfbf" points="629.5,-56.5 629.5,-75.5 681.5,-75.5 681.5,-56.5 629.5,-56.5"/>
<text text-anchor="middle" x="655.5" y="-63.5" font-family="Helvetica,sans-Serif" font-size="10.00">sstream</text>
</g>
<!-- Node10&#45;&gt;Node13 -->
<g id="edge14" class="edge"><title>Node10&#45;&gt;Node13</title>
<path fill="none" stroke="midnightblue" d="M682.216,-112.083C677.789,-104.613 671.337,-93.7244 665.882,-84.5199"/>
<polygon fill="midnightblue" stroke="midnightblue" points="668.795,-82.5697 660.686,-75.7511 662.773,-86.1383 668.795,-82.5697"/>
</g>
<!-- Node14&#45;&gt;Node3 -->
<g id="edge18" class="edge"><title>Node14&#45;&gt;Node3</title>
<path fill="none" stroke="midnightblue" d="M397.478,-112.324C411.05,-103.9 431.88,-90.9709 447.825,-81.0741"/>
<polygon fill="midnightblue" stroke="midnightblue" points="449.906,-83.9019 456.557,-75.6545 446.214,-77.9544 449.906,-83.9019"/>
</g>
<!-- Node14&#45;&gt;Node9 -->
<g id="edge17" class="edge"><title>Node14&#45;&gt;Node9</title>
<path fill="none" stroke="midnightblue" d="M352.76,-112.444C318.286,-102.848 262.424,-87.2984 225.822,-77.1104"/>
<polygon fill="midnightblue" stroke="midnightblue" points="226.616,-73.6982 216.044,-74.3884 224.739,-80.4419 226.616,-73.6982"/>
</g>
<!-- Node14&#45;&gt;Node11 -->
<g id="edge16" class="edge"><title>Node14&#45;&gt;Node11</title>
<path fill="none" stroke="midnightblue" d="M411.223,-112.473C438.701,-104.017 482.247,-90.6066 528.347,-76.3531"/>
<polygon fill="midnightblue" stroke="midnightblue" points="529.387,-79.6949 537.906,-73.3965 527.319,-73.0075 529.387,-79.6949"/>
</g>
<!-- Node15&#45;&gt;Node6 -->
<g id="edge20" class="edge"><title>Node15&#45;&gt;Node6</title>
<path fill="none" stroke="midnightblue" d="M284.335,-224.083C284.204,-217.006 284.016,-206.861 283.852,-197.986"/>
<polygon fill="midnightblue" stroke="midnightblue" points="287.347,-197.685 283.662,-187.751 280.348,-197.814 287.347,-197.685"/>
</g>
<!-- Node16 -->
<g id="node16" class="node"><title>Node16</title>
<g id="a_node16"><a xlink:href="_u_u_i_d_8h.html" target="_top" xlink:title="uscxml/util/UUID.h">
<polygon fill="white" stroke="black" points="504,-112.5 504,-131.5 603,-131.5 603,-112.5 504,-112.5"/>
<text text-anchor="middle" x="553.5" y="-119.5" font-family="Helvetica,sans-Serif" font-size="10.00">uscxml/util/UUID.h</text>
</a>
</g>
</g>
<!-- Node15&#45;&gt;Node16 -->
<g id="edge21" class="edge"><title>Node15&#45;&gt;Node16</title>
<path fill="none" stroke="midnightblue" d="M305.608,-224.368C352.947,-205.01 467.751,-158.065 522.914,-135.507"/>
<polygon fill="midnightblue" stroke="midnightblue" points="524.559,-138.616 532.49,-131.591 521.909,-132.137 524.559,-138.616"/>
</g>
<!-- Node16&#45;&gt;Node3 -->
<g id="edge22" class="edge"><title>Node16&#45;&gt;Node3</title>
<path fill="none" stroke="midnightblue" d="M540.165,-112.324C527.338,-103.979 507.715,-91.2122 492.56,-81.3524"/>
<polygon fill="midnightblue" stroke="midnightblue" points="494.093,-78.1742 483.802,-75.6545 490.276,-84.0417 494.093,-78.1742"/>
</g>
<!-- Node16&#45;&gt;Node11 -->
<g id="edge23" class="edge"><title>Node16&#45;&gt;Node11</title>
<path fill="none" stroke="midnightblue" d="M554.326,-112.083C554.981,-105.006 555.92,-94.8611 556.742,-85.9865"/>
<polygon fill="midnightblue" stroke="midnightblue" points="560.253,-86.0312 557.69,-75.7511 553.283,-85.3858 560.253,-86.0312"/>
</g>
</g>
</svg>
