<?xml version="1.0" encoding="UTF-8" standalone="no"?>
<!DOCTYPE svg PUBLIC "-//W3C//DTD SVG 1.1//EN"
 "http://www.w3.org/Graphics/SVG/1.1/DTD/svg11.dtd">
<!-- Generated by graphviz version 2.40.1 (20161225.0304)
 -->
<!-- Title: interpreter/Logging.h Pages: 1 -->
<svg width="718pt" height="308pt"
 viewBox="0.00 0.00 718.00 308.00" xmlns="http://www.w3.org/2000/svg" xmlns:xlink="http://www.w3.org/1999/xlink">
<g id="graph0" class="graph" transform="scale(1 1) rotate(0) translate(4 304)">
<title>interpreter/Logging.h</title>
<polygon fill="#ffffff" stroke="transparent" points="-4,4 -4,-304 714,-304 714,4 -4,4"/>
<!-- Node0 -->
<g id="node1" class="node">
<title>Node0</title>
<polygon fill="#bfbfbf" stroke="#000000" points="340,-280.5 340,-299.5 449,-299.5 449,-280.5 340,-280.5"/>
<text text-anchor="middle" x="394.5" y="-287.5" font-family="Helvetica,sans-Serif" font-size="10.00" fill="#000000">interpreter/Logging.h</text>
</g>
<!-- Node1 -->
<g id="node2" class="node">
<title>Node1</title>
<g id="a_node2"><a xlink:href="_common_8h.html" target="_top" xlink:title="uscxml/Common.h">
<polygon fill="#ffffff" stroke="#000000" points="377,-56.5 377,-75.5 476,-75.5 476,-56.5 377,-56.5"/>
<text text-anchor="middle" x="426.5" y="-63.5" font-family="Helvetica,sans-Serif" font-size="10.00" fill="#000000">uscxml/Common.h</text>
</a>
</g>
</g>
<!-- Node0&#45;&gt;Node1 -->
<g id="edge1" class="edge">
<title>Node0&#45;&gt;Node1</title>
<path fill="none" stroke="#191970" d="M395.875,-280.375C400.7267,-246.4133 417.1075,-131.7472 423.7087,-85.5392"/>
<polygon fill="#191970" stroke="#191970" points="427.1806,-85.9836 425.1301,-75.5891 420.251,-84.9936 427.1806,-85.9836"/>
</g>
<!-- Node4 -->
<g id="node5" class="node">
<title>Node4</title>
<g id="a_node5"><a xlink:href="_data_8h.html" target="_top" xlink:title="uscxml/messages/Data.h">
<polygon fill="#ffffff" stroke="#000000" points="270.5,-168.5 270.5,-187.5 398.5,-187.5 398.5,-168.5 270.5,-168.5"/>
<text text-anchor="middle" x="334.5" y="-175.5" font-family="Helvetica,sans-Serif" font-size="10.00" fill="#000000">uscxml/messages/Data.h</text>
</a>
</g>
</g>
<!-- Node0&#45;&gt;Node4 -->
<g id="edge4" class="edge">
<title>Node0&#45;&gt;Node4</title>
<path fill="none" stroke="#191970" d="M389.3844,-280.4509C379.4214,-261.8533 357.2635,-220.4919 344.3552,-196.3964"/>
<polygon fill="#191970" stroke="#191970" points="347.4101,-194.6869 339.6026,-187.5249 341.2397,-197.9925 347.4101,-194.6869"/>
</g>
<!-- Node7 -->
<g id="node8" class="node">
<title>Node7</title>
<polygon fill="#ffffff" stroke="#bfbfbf" points="0,-56.5 0,-75.5 53,-75.5 53,-56.5 0,-56.5"/>
<text text-anchor="middle" x="26.5" y="-63.5" font-family="Helvetica,sans-Serif" font-size="10.00" fill="#000000">memory</text>
</g>
<!-- Node0&#45;&gt;Node7 -->
<g id="edge24" class="edge">
<title>Node0&#45;&gt;Node7</title>
<path fill="none" stroke="#191970" d="M339.8906,-284.1581C256.9356,-272.0598 101.2502,-236.0158 29.5,-132 20.2496,-118.5898 20.3402,-99.7441 22.2542,-85.6221"/>
<polygon fill="#191970" stroke="#191970" points="25.7487,-85.9589 24.0365,-75.5033 18.8548,-84.7445 25.7487,-85.9589"/>
</g>
<!-- Node14 -->
<g id="node15" class="node">
<title>Node14</title>
<g id="a_node15"><a xlink:href="_event_8h.html" target="_top" xlink:title="uscxml/messages/Event.h">
<polygon fill="#ffffff" stroke="#000000" points="454,-224.5 454,-243.5 587,-243.5 587,-224.5 454,-224.5"/>
<text text-anchor="middle" x="520.5" y="-231.5" font-family="Helvetica,sans-Serif" font-size="10.00" fill="#000000">uscxml/messages/Event.h</text>
</a>
</g>
</g>
<!-- Node0&#45;&gt;Node14 -->
<g id="edge19" class="edge">
<title>Node0&#45;&gt;Node14</title>
<path fill="none" stroke="#191970" d="M416.1602,-280.3733C436.4772,-271.3435 467.064,-257.7494 489.875,-247.6111"/>
<polygon fill="#191970" stroke="#191970" points="491.4059,-250.7609 499.1225,-243.5011 488.5628,-244.3642 491.4059,-250.7609"/>
</g>
<!-- Node2 -->
<g id="node3" class="node">
<title>Node2</title>
<polygon fill="#ffffff" stroke="#bfbfbf" points="352.5,-.5 352.5,-19.5 424.5,-19.5 424.5,-.5 352.5,-.5"/>
<text text-anchor="middle" x="388.5" y="-7.5" font-family="Helvetica,sans-Serif" font-size="10.00" fill="#000000">sys/socket.h</text>
</g>
<!-- Node1&#45;&gt;Node2 -->
<g id="edge2" class="edge">
<title>Node1&#45;&gt;Node2</title>
<path fill="none" stroke="#191970" d="M419.8809,-56.2455C414.5954,-48.4564 407.0459,-37.3308 400.6762,-27.9439"/>
<polygon fill="#191970" stroke="#191970" points="403.5545,-25.9522 395.0432,-19.6427 397.7621,-29.8827 403.5545,-25.9522"/>
</g>
<!-- Node3 -->
<g id="node4" class="node">
<title>Node3</title>
<polygon fill="#ffffff" stroke="#bfbfbf" points="442.5,-.5 442.5,-19.5 486.5,-19.5 486.5,-.5 442.5,-.5"/>
<text text-anchor="middle" x="464.5" y="-7.5" font-family="Helvetica,sans-Serif" font-size="10.00" fill="#000000">cmath</text>
</g>
<!-- Node1&#45;&gt;Node3 -->
<g id="edge3" class="edge">
<title>Node1&#45;&gt;Node3</title>
<path fill="none" stroke="#191970" d="M433.1191,-56.2455C438.4046,-48.4564 445.9541,-37.3308 452.3238,-27.9439"/>
<polygon fill="#191970" stroke="#191970" points="455.2379,-29.8827 457.9568,-19.6427 449.4455,-25.9522 455.2379,-29.8827"/>
</g>
<!-- Node4&#45;&gt;Node1 -->
<g id="edge9" class="edge">
<title>Node4&#45;&gt;Node1</title>
<path fill="none" stroke="#191970" d="M270.4482,-173.7393C209.7975,-167.2831 132.5469,-151.2688 165.5,-112 190.6434,-82.0377 297.5142,-71.5839 366.4635,-67.9418"/>
<polygon fill="#191970" stroke="#191970" points="366.9509,-71.4221 376.7661,-67.433 366.6056,-64.4306 366.9509,-71.4221"/>
</g>
<!-- Node5 -->
<g id="node6" class="node">
<title>Node5</title>
<polygon fill="#ffffff" stroke="#bfbfbf" points="320,-112.5 320,-131.5 349,-131.5 349,-112.5 320,-112.5"/>
<text text-anchor="middle" x="334.5" y="-119.5" font-family="Helvetica,sans-Serif" font-size="10.00" fill="#000000">list</text>
</g>
<!-- Node4&#45;&gt;Node5 -->
<g id="edge5" class="edge">
<title>Node4&#45;&gt;Node5</title>
<path fill="none" stroke="#191970" d="M334.5,-168.2455C334.5,-160.9382 334.5,-150.6944 334.5,-141.7046"/>
<polygon fill="#191970" stroke="#191970" points="338.0001,-141.6426 334.5,-131.6427 331.0001,-141.6427 338.0001,-141.6426"/>
</g>
<!-- Node6 -->
<g id="node7" class="node">
<title>Node6</title>
<polygon fill="#ffffff" stroke="#bfbfbf" points="367.5,-112.5 367.5,-131.5 403.5,-131.5 403.5,-112.5 367.5,-112.5"/>
<text text-anchor="middle" x="385.5" y="-119.5" font-family="Helvetica,sans-Serif" font-size="10.00" fill="#000000">map</text>
</g>
<!-- Node4&#45;&gt;Node6 -->
<g id="edge6" class="edge">
<title>Node4&#45;&gt;Node6</title>
<path fill="none" stroke="#191970" d="M343.3835,-168.2455C350.6966,-160.2155 361.2391,-148.6394 369.9467,-139.0781"/>
<polygon fill="#191970" stroke="#191970" points="372.5727,-141.3928 376.7183,-131.6427 367.3972,-136.6795 372.5727,-141.3928"/>
</g>
<!-- Node4&#45;&gt;Node7 -->
<g id="edge7" class="edge">
<title>Node4&#45;&gt;Node7</title>
<path fill="none" stroke="#191970" d="M270.1795,-175.6363C195.3642,-171.5715 77.9424,-160.6945 45.5,-132 32.5466,-120.5431 28.172,-100.8845 26.8134,-85.9944"/>
<polygon fill="#191970" stroke="#191970" points="30.295,-85.5527 26.2702,-75.7521 23.3048,-85.9235 30.295,-85.5527"/>
</g>
<!-- Node8 -->
<g id="node9" class="node">
<title>Node8</title>
<polygon fill="#ffffff" stroke="#bfbfbf" points="55,-112.5 55,-131.5 118,-131.5 118,-112.5 55,-112.5"/>
<text text-anchor="middle" x="86.5" y="-119.5" font-family="Helvetica,sans-Serif" font-size="10.00" fill="#000000">type_traits</text>
</g>
<!-- Node4&#45;&gt;Node8 -->
<g id="edge8" class="edge">
<title>Node4&#45;&gt;Node8</title>
<path fill="none" stroke="#191970" d="M292.1491,-168.4369C246.2332,-158.0688 173.4296,-141.6293 127.8922,-131.3466"/>
<polygon fill="#191970" stroke="#191970" points="128.5768,-127.9132 118.0515,-129.1245 127.0349,-134.7413 128.5768,-127.9132"/>
</g>
<!-- Node9 -->
<g id="node10" class="node">
<title>Node9</title>
<g id="a_node10"><a xlink:href="_convenience_8h.html" target="_top" xlink:title="uscxml/util/Convenience.h">
<polygon fill="#ffffff" stroke="#000000" points="577,-112.5 577,-131.5 710,-131.5 710,-112.5 577,-112.5"/>
<text text-anchor="middle" x="643.5" y="-119.5" font-family="Helvetica,sans-Serif" font-size="10.00" fill="#000000">uscxml/util/Convenience.h</text>
</a>
</g>
</g>
<!-- Node4&#45;&gt;Node9 -->
<g id="edge10" class="edge">
<title>Node4&#45;&gt;Node9</title>
<path fill="none" stroke="#191970" d="M387.2679,-168.4369C440.9285,-158.712 524.0627,-143.6456 580.991,-133.3285"/>
<polygon fill="#191970" stroke="#191970" points="581.7342,-136.7509 590.9497,-131.5237 580.4859,-129.8631 581.7342,-136.7509"/>
</g>
<!-- Node13 -->
<g id="node14" class="node">
<title>Node13</title>
<g id="a_node14"><a xlink:href="_blob_8h.html" target="_top" xlink:title="uscxml/messages/Blob.h">
<polygon fill="#ffffff" stroke="#000000" points="175,-112.5 175,-131.5 302,-131.5 302,-112.5 175,-112.5"/>
<text text-anchor="middle" x="238.5" y="-119.5" font-family="Helvetica,sans-Serif" font-size="10.00" fill="#000000">uscxml/messages/Blob.h</text>
</a>
</g>
</g>
<!-- Node4&#45;&gt;Node13 -->
<g id="edge15" class="edge">
<title>Node4&#45;&gt;Node13</title>
<path fill="none" stroke="#191970" d="M317.7781,-168.2455C302.9111,-159.5731 280.9534,-146.7645 263.9142,-136.825"/>
<polygon fill="#191970" stroke="#191970" points="265.4317,-133.6582 255.0303,-131.6427 261.9045,-139.7047 265.4317,-133.6582"/>
</g>
<!-- Node9&#45;&gt;Node1 -->
<g id="edge11" class="edge">
<title>Node9&#45;&gt;Node1</title>
<path fill="none" stroke="#191970" d="M606.1964,-112.3733C569.3315,-102.8598 512.834,-88.2797 473.0494,-78.0127"/>
<polygon fill="#191970" stroke="#191970" points="473.8742,-74.611 463.3169,-75.5011 472.125,-81.3889 473.8742,-74.611"/>
</g>
<!-- Node10 -->
<g id="node11" class="node">
<title>Node10</title>
<polygon fill="#ffffff" stroke="#bfbfbf" points="494,-56.5 494,-75.5 535,-75.5 535,-56.5 494,-56.5"/>
<text text-anchor="middle" x="514.5" y="-63.5" font-family="Helvetica,sans-Serif" font-size="10.00" fill="#000000">string</text>
</g>
<!-- Node9&#45;&gt;Node10 -->
<g id="edge12" class="edge">
<title>Node9&#45;&gt;Node10</title>
<path fill="none" stroke="#191970" d="M621.3241,-112.3733C600.1452,-103.1793 568.0661,-89.2535 544.5883,-79.0616"/>
<polygon fill="#191970" stroke="#191970" points="545.6766,-75.7185 535.1099,-74.9469 542.8891,-82.1396 545.6766,-75.7185"/>
</g>
<!-- Node11 -->
<g id="node12" class="node">
<title>Node11</title>
<polygon fill="#ffffff" stroke="#bfbfbf" points="592,-56.5 592,-75.5 631,-75.5 631,-56.5 592,-56.5"/>
<text text-anchor="middle" x="611.5" y="-63.5" font-family="Helvetica,sans-Serif" font-size="10.00" fill="#000000">limits</text>
</g>
<!-- Node9&#45;&gt;Node11 -->
<g id="edge13" class="edge">
<title>Node9&#45;&gt;Node11</title>
<path fill="none" stroke="#191970" d="M637.926,-112.2455C633.5669,-104.617 627.3789,-93.7881 622.0867,-84.5267"/>
<polygon fill="#191970" stroke="#191970" points="625.0104,-82.5886 617.0101,-75.6427 618.9327,-86.0616 625.0104,-82.5886"/>
</g>
<!-- Node12 -->
<g id="node13" class="node">
<title>Node12</title>
<polygon fill="#ffffff" stroke="#bfbfbf" points="649.5,-56.5 649.5,-75.5 701.5,-75.5 701.5,-56.5 649.5,-56.5"/>
<text text-anchor="middle" x="675.5" y="-63.5" font-family="Helvetica,sans-Serif" font-size="10.00" fill="#000000">sstream</text>
</g>
<!-- Node9&#45;&gt;Node12 -->
<g id="edge14" class="edge">
<title>Node9&#45;&gt;Node12</title>
<path fill="none" stroke="#191970" d="M649.074,-112.2455C653.4331,-104.617 659.6211,-93.7881 664.9133,-84.5267"/>
<polygon fill="#191970" stroke="#191970" points="668.0673,-86.0616 669.9899,-75.6427 661.9896,-82.5886 668.0673,-86.0616"/>
</g>
<!-- Node13&#45;&gt;Node1 -->
<g id="edge18" class="edge">
<title>Node13&#45;&gt;Node1</title>
<path fill="none" stroke="#191970" d="M270.8184,-112.3733C302.3506,-102.9807 350.4621,-88.6496 384.8501,-78.4064"/>
<polygon fill="#191970" stroke="#191970" points="386.0187,-81.7103 394.6034,-75.5011 384.0203,-75.0016 386.0187,-81.7103"/>
</g>
<!-- Node13&#45;&gt;Node7 -->
<g id="edge17" class="edge">
<title>Node13&#45;&gt;Node7</title>
<path fill="none" stroke="#191970" d="M202.0559,-112.3733C163.1502,-102.0963 101.8621,-85.907 62.953,-75.6291"/>
<polygon fill="#191970" stroke="#191970" points="63.6524,-72.1938 53.0901,-73.0238 61.8646,-78.9617 63.6524,-72.1938"/>
</g>
<!-- Node13&#45;&gt;Node10 -->
<g id="edge16" class="edge">
<title>Node13&#45;&gt;Node10</title>
<path fill="none" stroke="#191970" d="M302.015,-112.8229C349.8913,-105.3005 417.2524,-93.4324 483.8816,-76.1695"/>
<polygon fill="#191970" stroke="#191970" points="484.9252,-79.5141 493.7044,-73.5833 483.1428,-72.7448 484.9252,-79.5141"/>
</g>
<!-- Node14&#45;&gt;Node4 -->
<g id="edge20" class="edge">
<title>Node14&#45;&gt;Node4</title>
<path fill="none" stroke="#191970" d="M488.5255,-224.3733C457.3287,-214.9807 409.729,-200.6496 375.7068,-190.4064"/>
<polygon fill="#191970" stroke="#191970" points="376.6418,-187.0327 366.0573,-187.5011 374.6237,-193.7355 376.6418,-187.0327"/>
</g>
<!-- Node15 -->
<g id="node16" class="node">
<title>Node15</title>
<g id="a_node16"><a xlink:href="_u_u_i_d_8h.html" target="_top" xlink:title="uscxml/util/UUID.h">
<polygon fill="#ffffff" stroke="#000000" points="460,-112.5 460,-131.5 559,-131.5 559,-112.5 460,-112.5"/>
<text text-anchor="middle" x="509.5" y="-119.5" font-family="Helvetica,sans-Serif" font-size="10.00" fill="#000000">uscxml/util/UUID.h</text>
</a>
</g>
</g>
<!-- Node14&#45;&gt;Node15 -->
<g id="edge21" class="edge">
<title>Node14&#45;&gt;Node15</title>
<path fill="none" stroke="#191970" d="M519.5621,-224.4509C517.7681,-206.184 513.817,-165.9553 511.4346,-141.6976"/>
<polygon fill="#191970" stroke="#191970" points="514.8962,-141.1349 510.4355,-131.5249 507.9298,-141.8191 514.8962,-141.1349"/>
</g>
<!-- Node15&#45;&gt;Node1 -->
<g id="edge22" class="edge">
<title>Node15&#45;&gt;Node1</title>
<path fill="none" stroke="#191970" d="M495.0425,-112.2455C482.4268,-103.7337 463.9056,-91.2375 449.2955,-81.3801"/>
<polygon fill="#191970" stroke="#191970" points="451.0391,-78.3343 440.7918,-75.6427 447.1239,-84.1371 451.0391,-78.3343"/>
</g>
<!-- Node15&#45;&gt;Node10 -->
<g id="edge23" class="edge">
<title>Node15&#45;&gt;Node10</title>
<path fill="none" stroke="#191970" d="M510.3709,-112.2455C511.0234,-104.9382 511.938,-94.6944 512.7407,-85.7046"/>
<polygon fill="#191970" stroke="#191970" points="516.2358,-85.9143 513.639,-75.6427 509.2635,-85.2918 516.2358,-85.9143"/>
</g>
</g>
</svg>
