<?xml version="1.0" encoding="UTF-8" standalone="no"?>
<!DOCTYPE svg PUBLIC "-//W3C//DTD SVG 1.1//EN"
 "http://www.w3.org/Graphics/SVG/1.1/DTD/svg11.dtd">
<!-- Generated by graphviz version 2.38.0 (20140413.2041)
 -->
<!-- Title: interpreter/LoggingImpl.h Pages: 1 -->
<svg width="728pt" height="140pt"
 viewBox="0.00 0.00 728.00 140.00" xmlns="http://www.w3.org/2000/svg" xmlns:xlink="http://www.w3.org/1999/xlink">
<g id="graph0" class="graph" transform="scale(1 1) rotate(0) translate(4 136)">
<title>interpreter/LoggingImpl.h</title>
<polygon fill="white" stroke="none" points="-4,4 -4,-136 724,-136 724,4 -4,4"/>
<!-- Node1 -->
<g id="node1" class="node"><title>Node1</title>
<polygon fill="#bfbfbf" stroke="black" points="384,-112.5 384,-131.5 512,-131.5 512,-112.5 384,-112.5"/>
<text text-anchor="middle" x="448" y="-119.5" font-family="Helvetica,sans-Serif" font-size="10.00">interpreter/LoggingImpl.h</text>
</g>
<!-- Node2 -->
<g id="node2" class="node"><title>Node2</title>
<g id="a_node2"><a xlink:href="_debug_session_8h.html" target="_top" xlink:title="debug/DebugSession.h">
<polygon fill="white" stroke="black" points="244,-56.5 244,-75.5 364,-75.5 364,-56.5 244,-56.5"/>
<text text-anchor="middle" x="304" y="-63.5" font-family="Helvetica,sans-Serif" font-size="10.00">debug/DebugSession.h</text>
</a>
</g>
</g>
<!-- Node1&#45;&gt;Node2 -->
<g id="edge1" class="edge"><title>Node1&#45;&gt;Node2</title>
<path fill="none" stroke="midnightblue" d="M415.749,-108.906C388.676,-98.7536 350.683,-84.5063 326.71,-75.5164"/>
<polygon fill="midnightblue" stroke="midnightblue" points="414.591,-112.209 425.183,-112.444 417.048,-105.655 414.591,-112.209"/>
</g>
<!-- Node6 -->
<g id="node6" class="node"><title>Node6</title>
<g id="a_node6"><a xlink:href="_logging_8cpp.html" target="_top" xlink:title="interpreter/Logging.cpp">
<polygon fill="white" stroke="black" points="436.5,-0.5 436.5,-19.5 555.5,-19.5 555.5,-0.5 436.5,-0.5"/>
<text text-anchor="middle" x="496" y="-7.5" font-family="Helvetica,sans-Serif" font-size="10.00">interpreter/Logging.cpp</text>
</a>
</g>
</g>
<!-- Node1&#45;&gt;Node6 -->
<g id="edge5" class="edge"><title>Node1&#45;&gt;Node6</title>
<path fill="none" stroke="midnightblue" d="M451.914,-102.457C455.076,-89.1693 460.132,-71.039 467,-56 473.178,-42.4731 482.962,-28.2767 489.431,-19.5316"/>
<polygon fill="midnightblue" stroke="midnightblue" points="448.478,-101.781 449.705,-112.305 455.309,-103.313 448.478,-101.781"/>
</g>
<!-- Node7 -->
<g id="node7" class="node"><title>Node7</title>
<g id="a_node7"><a xlink:href="_std_out_logger_8h.html" target="_top" xlink:title="interpreter/StdOutLogger.h">
<polygon fill="white" stroke="black" points="476.5,-56.5 476.5,-75.5 611.5,-75.5 611.5,-56.5 476.5,-56.5"/>
<text text-anchor="middle" x="544" y="-63.5" font-family="Helvetica,sans-Serif" font-size="10.00">interpreter/StdOutLogger.h</text>
</a>
</g>
</g>
<!-- Node1&#45;&gt;Node7 -->
<g id="edge6" class="edge"><title>Node1&#45;&gt;Node7</title>
<path fill="none" stroke="midnightblue" d="M472.574,-107.177C490.239,-97.2407 513.513,-84.1492 528.614,-75.6545"/>
<polygon fill="midnightblue" stroke="midnightblue" points="470.424,-104.371 463.424,-112.324 473.856,-110.472 470.424,-104.371"/>
</g>
<!-- Node3 -->
<g id="node3" class="node"><title>Node3</title>
<g id="a_node3"><a xlink:href="_debugger_8cpp.html" target="_top" xlink:title="debug/Debugger.cpp">
<polygon fill="white" stroke="black" points="0,-0.5 0,-19.5 110,-19.5 110,-0.5 0,-0.5"/>
<text text-anchor="middle" x="55" y="-7.5" font-family="Helvetica,sans-Serif" font-size="10.00">debug/Debugger.cpp</text>
</a>
</g>
</g>
<!-- Node2&#45;&gt;Node3 -->
<g id="edge2" class="edge"><title>Node2&#45;&gt;Node3</title>
<path fill="none" stroke="midnightblue" d="M254.576,-54.2815C207.521,-44.0769 137.633,-28.9203 94.2702,-19.5164"/>
<polygon fill="midnightblue" stroke="midnightblue" points="254.031,-57.7445 264.545,-56.4435 255.514,-50.9036 254.031,-57.7445"/>
</g>
<!-- Node4 -->
<g id="node4" class="node"><title>Node4</title>
<g id="a_node4"><a xlink:href="_debugger_servlet_8cpp.html" target="_top" xlink:title="debug/DebuggerServlet.cpp">
<polygon fill="white" stroke="black" points="128.5,-0.5 128.5,-19.5 269.5,-19.5 269.5,-0.5 128.5,-0.5"/>
<text text-anchor="middle" x="199" y="-7.5" font-family="Helvetica,sans-Serif" font-size="10.00">debug/DebuggerServlet.cpp</text>
</a>
</g>
</g>
<!-- Node2&#45;&gt;Node4 -->
<g id="edge3" class="edge"><title>Node2&#45;&gt;Node4</title>
<path fill="none" stroke="midnightblue" d="M278.19,-51.7261C258.747,-41.7271 232.652,-28.3065 215.828,-19.6545"/>
<polygon fill="midnightblue" stroke="midnightblue" points="276.636,-54.8629 287.13,-56.324 279.838,-48.6379 276.636,-54.8629"/>
</g>
<!-- Node5 -->
<g id="node5" class="node"><title>Node5</title>
<g id="a_node5"><a xlink:href="_debug_session_8cpp.html" target="_top" xlink:title="debug/DebugSession.cpp">
<polygon fill="white" stroke="black" points="287.5,-0.5 287.5,-19.5 418.5,-19.5 418.5,-0.5 287.5,-0.5"/>
<text text-anchor="middle" x="353" y="-7.5" font-family="Helvetica,sans-Serif" font-size="10.00">debug/DebugSession.cpp</text>
</a>
</g>
</g>
<!-- Node2&#45;&gt;Node5 -->
<g id="edge4" class="edge"><title>Node2&#45;&gt;Node5</title>
<path fill="none" stroke="midnightblue" d="M319.034,-48.4314C327.622,-38.9673 338.043,-27.4827 345.059,-19.7511"/>
<polygon fill="midnightblue" stroke="midnightblue" points="316.219,-46.3254 312.091,-56.083 321.403,-51.0293 316.219,-46.3254"/>
</g>
<!-- Node7&#45;&gt;Node6 -->
<g id="edge7" class="edge"><title>Node7&#45;&gt;Node6</title>
<path fill="none" stroke="midnightblue" d="M529.272,-48.4314C520.86,-38.9673 510.651,-27.4827 503.779,-19.7511"/>
<polygon fill="midnightblue" stroke="midnightblue" points="526.814,-50.9342 536.074,-56.083 532.046,-46.2836 526.814,-50.9342"/>
</g>
<!-- Node8 -->
<g id="node8" class="node"><title>Node8</title>
<g id="a_node8"><a xlink:href="_std_out_logger_8cpp.html" target="_top" xlink:title="interpreter/StdOutLogger.cpp">
<polygon fill="white" stroke="black" points="574,-0.5 574,-19.5 720,-19.5 720,-0.5 574,-0.5"/>
<text text-anchor="middle" x="647" y="-7.5" font-family="Helvetica,sans-Serif" font-size="10.00">interpreter/StdOutLogger.cpp</text>
</a>
</g>
</g>
<!-- Node7&#45;&gt;Node8 -->
<g id="edge8" class="edge"><title>Node7&#45;&gt;Node8</title>
<path fill="none" stroke="midnightblue" d="M569.579,-51.5895C588.623,-41.6052 614.064,-28.2672 630.492,-19.6545"/>
<polygon fill="midnightblue" stroke="midnightblue" points="567.78,-48.5808 560.549,-56.324 571.031,-54.7805 567.78,-48.5808"/>
</g>
</g>
</svg>
