<?xml version="1.0" encoding="UTF-8" standalone="no"?>
<!DOCTYPE svg PUBLIC "-//W3C//DTD SVG 1.1//EN"
 "http://www.w3.org/Graphics/SVG/1.1/DTD/svg11.dtd">
<!-- Generated by graphviz version 2.38.0 (20140413.2041)
 -->
<!-- Title: plugins/datamodel/lua/LuaDataModel.cpp Pages: 1 -->
<!--zoomable 554 -->
<svg id="main" version="1.1" xmlns="http://www.w3.org/2000/svg" xmlns:xlink="http://www.w3.org/1999/xlink" xml:space="preserve" onload="init(evt)">
<style type="text/css"><![CDATA[
.edge:hover path { stroke: red; }
.edge:hover polygon { stroke: red; fill: red; }
]]></style>
<script type="text/javascript"><![CDATA[
var edges = document.getElementsByTagName('g');
if (edges && edges.length) {
  for (var i=0;i<edges.length;i++) {
    if (edges[i].id.substr(0,4)=='edge') {
      edges[i].setAttribute('class','edge');
    }
  }
}
]]></script>
        <defs>
                <circle id="rim" cx="0" cy="0" r="7"/>
                <circle id="rim2" cx="0" cy="0" r="3.5"/>
                <g id="zoomPlus">
                        <use xlink:href="#rim" fill="#404040">
                                <set attributeName="fill" to="#808080" begin="zoomplus.mouseover" end="zoomplus.mouseout"/>
                        </use>
                        <path d="M-4,0h8M0,-4v8" fill="none" stroke="white" stroke-width="1.5" pointer-events="none"/>
                </g>
                <g id="zoomMin">
                        <use xlink:href="#rim" fill="#404040">
                                <set attributeName="fill" to="#808080" begin="zoomminus.mouseover" end="zoomminus.mouseout"/>
                        </use>
                        <path d="M-4,0h8" fill="none" stroke="white" stroke-width="1.5" pointer-events="none"/>
                </g>
                <g id="dirArrow">
                        <path fill="none" stroke="white" stroke-width="1.5" d="M0,-3.0v7 M-2.5,-0.5L0,-3.0L2.5,-0.5"/>
                </g>
               <g id="resetDef">
                       <use xlink:href="#rim2" fill="#404040">
                               <set attributeName="fill" to="#808080" begin="reset.mouseover" end="reset.mouseout"/>
                       </use>
               </g>
        </defs>

<script type="text/javascript">
var viewWidth = 1993;
var viewHeight = 554;
var sectionId = 'dynsection-0';
</script>
<script xlink:href="svgpan.js"/>
<svg id="graph" class="graph">
<g id="viewport">
<title>plugins/datamodel/lua/LuaDataModel.cpp</title>
<polygon fill="white" stroke="none" points="-4,4 -4,-550 1989,-550 1989,4 -4,4"/>
<!-- Node1 -->
<g id="node1" class="node"><title>Node1</title>
<polygon fill="#bfbfbf" stroke="black" points="1250,-515.5 1250,-545.5 1364,-545.5 1364,-515.5 1250,-515.5"/>
<text text-anchor="start" x="1258" y="-533.5" font-family="Helvetica,sans-Serif" font-size="10.00">plugins/datamodel/lua</text>
<text text-anchor="middle" x="1307" y="-522.5" font-family="Helvetica,sans-Serif" font-size="10.00">/LuaDataModel.cpp</text>
</g>
<!-- Node2 -->
<g id="node2" class="node"><title>Node2</title>
<g id="a_node2"><a xlink:href="_common_8h.html" target="_top" xlink:title="uscxml/Common.h">
<polygon fill="white" stroke="black" points="1254.5,-56.5 1254.5,-75.5 1353.5,-75.5 1353.5,-56.5 1254.5,-56.5"/>
<text text-anchor="middle" x="1304" y="-63.5" font-family="Helvetica,sans-Serif" font-size="10.00">uscxml/Common.h</text>
</a>
</g>
</g>
<!-- Node1&#45;&gt;Node2 -->
<g id="edge1" class="edge"><title>Node1&#45;&gt;Node2</title>
<path fill="none" stroke="midnightblue" d="M1250,-527.257C998.439,-516.992 0,-472.235 0,-408.5 0,-408.5 0,-408.5 0,-289 0,-250.577 24.0006,-243.682 57,-224 248.86,-109.568 325.856,-143.625 547,-112 804.593,-75.1625 1115.66,-68.3831 1244.09,-67.2064"/>
<polygon fill="midnightblue" stroke="midnightblue" points="1244.14,-70.7062 1254.12,-67.1227 1244.09,-63.7064 1244.14,-70.7062"/>
</g>
<!-- Node5 -->
<g id="node5" class="node"><title>Node5</title>
<g id="a_node5"><a xlink:href="_u_r_l_8h.html" target="_top" xlink:title="uscxml/util/URL.h">
<polygon fill="white" stroke="black" points="403,-280.5 403,-299.5 497,-299.5 497,-280.5 403,-280.5"/>
<text text-anchor="middle" x="450" y="-287.5" font-family="Helvetica,sans-Serif" font-size="10.00">uscxml/util/URL.h</text>
</a>
</g>
</g>
<!-- Node1&#45;&gt;Node5 -->
<g id="edge4" class="edge"><title>Node1&#45;&gt;Node5</title>
<path fill="none" stroke="midnightblue" d="M1249.98,-526.136C1175.43,-520.771 1041.24,-507.787 930,-479 750.845,-432.637 547.95,-338.519 476.545,-304.038"/>
<polygon fill="midnightblue" stroke="midnightblue" points="477.883,-300.797 467.359,-299.579 474.827,-307.094 477.883,-300.797"/>
</g>
<!-- Node6 -->
<g id="node6" class="node"><title>Node6</title>
<g id="a_node6"><a xlink:href="_event_8h.html" target="_top" xlink:title="uscxml/messages/Event.h">
<polygon fill="white" stroke="black" points="1366.5,-224.5 1366.5,-243.5 1499.5,-243.5 1499.5,-224.5 1366.5,-224.5"/>
<text text-anchor="middle" x="1433" y="-231.5" font-family="Helvetica,sans-Serif" font-size="10.00">uscxml/messages/Event.h</text>
</a>
</g>
</g>
<!-- Node1&#45;&gt;Node6 -->
<g id="edge65" class="edge"><title>Node1&#45;&gt;Node6</title>
<path fill="none" stroke="midnightblue" d="M1310.35,-515.324C1313.84,-500.994 1319.68,-478.273 1326,-459 1335.95,-428.647 1332.58,-417.357 1352,-392 1368.43,-370.547 1385.79,-378.336 1401,-356 1422.53,-324.383 1429.58,-279.032 1431.89,-253.786"/>
<polygon fill="midnightblue" stroke="midnightblue" points="1435.38,-253.958 1432.65,-243.723 1428.4,-253.431 1435.38,-253.958"/>
</g>
<!-- Node23 -->
<g id="node23" class="node"><title>Node23</title>
<g id="a_node23"><a xlink:href="_string_8h.html" target="_top" xlink:title="uscxml/util/String.h">
<polygon fill="white" stroke="black" points="651,-168.5 651,-187.5 751,-187.5 751,-168.5 651,-168.5"/>
<text text-anchor="middle" x="701" y="-175.5" font-family="Helvetica,sans-Serif" font-size="10.00">uscxml/util/String.h</text>
</a>
</g>
</g>
<!-- Node1&#45;&gt;Node23 -->
<g id="edge34" class="edge"><title>Node1&#45;&gt;Node23</title>
<path fill="none" stroke="midnightblue" d="M1249.79,-520.919C1154.11,-504.939 972,-466.859 972,-408.5 972,-408.5 972,-408.5 972,-289 972,-242.741 834.716,-206.607 755.571,-189.619"/>
<polygon fill="midnightblue" stroke="midnightblue" points="756.258,-186.187 745.75,-187.546 754.811,-193.036 756.258,-186.187"/>
</g>
<!-- Node24 -->
<g id="node24" class="node"><title>Node24</title>
<g id="a_node24"><a xlink:href="_lua_data_model_8h.html" target="_top" xlink:title="LuaDataModel.h">
<polygon fill="white" stroke="black" points="1335,-459.5 1335,-478.5 1425,-478.5 1425,-459.5 1335,-459.5"/>
<text text-anchor="middle" x="1380" y="-466.5" font-family="Helvetica,sans-Serif" font-size="10.00">LuaDataModel.h</text>
</a>
</g>
</g>
<!-- Node1&#45;&gt;Node24 -->
<g id="edge37" class="edge"><title>Node1&#45;&gt;Node24</title>
<path fill="none" stroke="midnightblue" d="M1324.3,-515.399C1335.45,-506.308 1349.95,-494.49 1361.36,-485.191"/>
<polygon fill="midnightblue" stroke="midnightblue" points="1363.84,-487.689 1369.38,-478.658 1359.42,-482.263 1363.84,-487.689"/>
</g>
<!-- Node33 -->
<g id="node33" class="node"><title>Node33</title>
<polygon fill="white" stroke="#bfbfbf" points="1443,-459.5 1443,-478.5 1513,-478.5 1513,-459.5 1443,-459.5"/>
<text text-anchor="middle" x="1478" y="-466.5" font-family="Helvetica,sans-Serif" font-size="10.00">LuaBridge.h</text>
</g>
<!-- Node1&#45;&gt;Node33 -->
<g id="edge64" class="edge"><title>Node1&#45;&gt;Node33</title>
<path fill="none" stroke="midnightblue" d="M1347.52,-515.399C1376.73,-505.238 1415.72,-491.672 1443.45,-482.022"/>
<polygon fill="midnightblue" stroke="midnightblue" points="1444.82,-485.25 1453.12,-478.658 1442.52,-478.639 1444.82,-485.25"/>
</g>
<!-- Node34 -->
<g id="node34" class="node"><title>Node34</title>
<g id="a_node34"><a xlink:href="_d_o_m_8h.html" target="_top" xlink:title="uscxml/util/DOM.h">
<polygon fill="white" stroke="black" points="784,-280.5 784,-299.5 882,-299.5 882,-280.5 784,-280.5"/>
<text text-anchor="middle" x="833" y="-287.5" font-family="Helvetica,sans-Serif" font-size="10.00">uscxml/util/DOM.h</text>
</a>
</g>
</g>
<!-- Node1&#45;&gt;Node34 -->
<g id="edge66" class="edge"><title>Node1&#45;&gt;Node34</title>
<path fill="none" stroke="midnightblue" d="M1249.95,-526.846C1163.77,-521.915 1005.41,-508.98 958,-479 892.572,-437.627 853.698,-348.193 839.349,-309.481"/>
<polygon fill="midnightblue" stroke="midnightblue" points="842.476,-307.833 835.814,-299.595 835.885,-310.19 842.476,-307.833"/>
</g>
<!-- Node37 -->
<g id="node37" class="node"><title>Node37</title>
<polygon fill="white" stroke="#bfbfbf" points="1531,-459.5 1531,-478.5 1621,-478.5 1621,-459.5 1531,-459.5"/>
<text text-anchor="middle" x="1576" y="-466.5" font-family="Helvetica,sans-Serif" font-size="10.00">easylogging++.h</text>
</g>
<!-- Node1&#45;&gt;Node37 -->
<g id="edge74" class="edge"><title>Node1&#45;&gt;Node37</title>
<path fill="none" stroke="midnightblue" d="M1364.05,-516.882C1412.51,-506.162 1481.32,-490.941 1527.25,-480.782"/>
<polygon fill="midnightblue" stroke="midnightblue" points="1528.25,-484.146 1537.26,-478.568 1526.74,-477.311 1528.25,-484.146"/>
</g>
<!-- Node38 -->
<g id="node38" class="node"><title>Node38</title>
<polygon fill="white" stroke="#bfbfbf" points="1639,-459.5 1639,-478.5 1771,-478.5 1771,-459.5 1639,-459.5"/>
<text text-anchor="middle" x="1705" y="-466.5" font-family="Helvetica,sans-Serif" font-size="10.00">boost/algorithm/string.hpp</text>
</g>
<!-- Node1&#45;&gt;Node38 -->
<g id="edge75" class="edge"><title>Node1&#45;&gt;Node38</title>
<path fill="none" stroke="midnightblue" d="M1364.02,-520.975C1436.43,-510.15 1561.17,-491.502 1638.03,-480.012"/>
<polygon fill="midnightblue" stroke="midnightblue" points="1638.71,-483.449 1648.08,-478.509 1637.67,-476.526 1638.71,-483.449"/>
</g>
<!-- Node3 -->
<g id="node3" class="node"><title>Node3</title>
<polygon fill="white" stroke="#bfbfbf" points="1230,-0.5 1230,-19.5 1302,-19.5 1302,-0.5 1230,-0.5"/>
<text text-anchor="middle" x="1266" y="-7.5" font-family="Helvetica,sans-Serif" font-size="10.00">sys/socket.h</text>
</g>
<!-- Node2&#45;&gt;Node3 -->
<g id="edge2" class="edge"><title>Node2&#45;&gt;Node3</title>
<path fill="none" stroke="midnightblue" d="M1297.73,-56.083C1292.36,-48.4554 1284.48,-37.2645 1277.92,-27.9408"/>
<polygon fill="midnightblue" stroke="midnightblue" points="1280.78,-25.9149 1272.16,-19.7511 1275.05,-29.9434 1280.78,-25.9149"/>
</g>
<!-- Node4 -->
<g id="node4" class="node"><title>Node4</title>
<polygon fill="white" stroke="#bfbfbf" points="1320,-0.5 1320,-19.5 1364,-19.5 1364,-0.5 1320,-0.5"/>
<text text-anchor="middle" x="1342" y="-7.5" font-family="Helvetica,sans-Serif" font-size="10.00">cmath</text>
</g>
<!-- Node2&#45;&gt;Node4 -->
<g id="edge3" class="edge"><title>Node2&#45;&gt;Node4</title>
<path fill="none" stroke="midnightblue" d="M1310.27,-56.083C1315.64,-48.4554 1323.52,-37.2645 1330.08,-27.9408"/>
<polygon fill="midnightblue" stroke="midnightblue" points="1332.95,-29.9434 1335.84,-19.7511 1327.22,-25.9149 1332.95,-29.9434"/>
</g>
<!-- Node5&#45;&gt;Node2 -->
<g id="edge5" class="edge"><title>Node5&#45;&gt;Node2</title>
<path fill="none" stroke="midnightblue" d="M448.552,-280.386C446.799,-267.323 445.186,-242.111 455,-224 493.964,-152.096 524.435,-140.745 601,-112 717.983,-68.0811 1096.13,-65.6042 1243.97,-66.3927"/>
<polygon fill="midnightblue" stroke="midnightblue" points="1244.19,-69.894 1254.21,-66.4546 1244.24,-62.8941 1244.19,-69.894"/>
</g>
<!-- Node5&#45;&gt;Node6 -->
<g id="edge6" class="edge"><title>Node5&#45;&gt;Node6</title>
<path fill="none" stroke="midnightblue" d="M497.081,-286.414C654.263,-277.779 1161.95,-249.89 1356.32,-239.212"/>
<polygon fill="midnightblue" stroke="midnightblue" points="1356.65,-242.699 1366.45,-238.656 1356.27,-235.71 1356.65,-242.699"/>
</g>
<!-- Node8 -->
<g id="node8" class="node"><title>Node8</title>
<polygon fill="white" stroke="#bfbfbf" points="995.5,-112.5 995.5,-131.5 1024.5,-131.5 1024.5,-112.5 995.5,-112.5"/>
<text text-anchor="middle" x="1010" y="-119.5" font-family="Helvetica,sans-Serif" font-size="10.00">list</text>
</g>
<!-- Node5&#45;&gt;Node8 -->
<g id="edge29" class="edge"><title>Node5&#45;&gt;Node8</title>
<path fill="none" stroke="midnightblue" d="M464.987,-280.277C494.717,-262.999 558.756,-225.914 564,-224 647.201,-193.636 673.528,-207.156 760,-188 843.501,-169.502 941.335,-142.492 985.805,-129.917"/>
<polygon fill="midnightblue" stroke="midnightblue" points="986.773,-133.281 995.437,-127.183 984.861,-126.547 986.773,-133.281"/>
</g>
<!-- Node9 -->
<g id="node9" class="node"><title>Node9</title>
<polygon fill="white" stroke="#bfbfbf" points="627,-112.5 627,-131.5 663,-131.5 663,-112.5 627,-112.5"/>
<text text-anchor="middle" x="645" y="-119.5" font-family="Helvetica,sans-Serif" font-size="10.00">map</text>
</g>
<!-- Node5&#45;&gt;Node9 -->
<g id="edge27" class="edge"><title>Node5&#45;&gt;Node9</title>
<path fill="none" stroke="midnightblue" d="M460.209,-280.309C491.669,-253.528 587.399,-172.035 627.274,-138.09"/>
<polygon fill="midnightblue" stroke="midnightblue" points="629.546,-140.752 634.892,-131.605 625.008,-135.422 629.546,-140.752"/>
</g>
<!-- Node13 -->
<g id="node13" class="node"><title>Node13</title>
<polygon fill="white" stroke="#bfbfbf" points="1589.5,-56.5 1589.5,-75.5 1630.5,-75.5 1630.5,-56.5 1589.5,-56.5"/>
<text text-anchor="middle" x="1610" y="-63.5" font-family="Helvetica,sans-Serif" font-size="10.00">string</text>
</g>
<!-- Node5&#45;&gt;Node13 -->
<g id="edge25" class="edge"><title>Node5&#45;&gt;Node13</title>
<path fill="none" stroke="midnightblue" d="M454.618,-280.432C471.508,-250.135 533.389,-147.962 618,-112 700.809,-76.8041 1337.12,-80.2099 1427,-76 1480.42,-73.498 1542.59,-70.401 1578.99,-68.5694"/>
<polygon fill="midnightblue" stroke="midnightblue" points="1579.61,-72.0427 1589.42,-68.0436 1579.25,-65.0516 1579.61,-72.0427"/>
</g>
<!-- Node15 -->
<g id="node15" class="node"><title>Node15</title>
<polygon fill="white" stroke="#bfbfbf" points="598,-56.5 598,-75.5 650,-75.5 650,-56.5 598,-56.5"/>
<text text-anchor="middle" x="624" y="-63.5" font-family="Helvetica,sans-Serif" font-size="10.00">sstream</text>
</g>
<!-- Node5&#45;&gt;Node15 -->
<g id="edge26" class="edge"><title>Node5&#45;&gt;Node15</title>
<path fill="none" stroke="midnightblue" d="M402.766,-289.075C289.57,-288.353 15.1811,-280.806 57,-224 121.667,-136.158 473.099,-85.6077 587.785,-71.2677"/>
<polygon fill="midnightblue" stroke="midnightblue" points="588.321,-74.7281 597.817,-70.0305 587.464,-67.7808 588.321,-74.7281"/>
</g>
<!-- Node18 -->
<g id="node18" class="node"><title>Node18</title>
<polygon fill="white" stroke="#bfbfbf" points="573,-224.5 573,-243.5 603,-243.5 603,-224.5 573,-224.5"/>
<text text-anchor="middle" x="588" y="-231.5" font-family="Helvetica,sans-Serif" font-size="10.00">set</text>
</g>
<!-- Node5&#45;&gt;Node18 -->
<g id="edge28" class="edge"><title>Node5&#45;&gt;Node18</title>
<path fill="none" stroke="midnightblue" d="M471.867,-280.444C496.691,-270.729 537.108,-254.914 563.119,-244.736"/>
<polygon fill="midnightblue" stroke="midnightblue" points="564.608,-247.912 572.645,-241.008 562.057,-241.393 564.608,-247.912"/>
</g>
<!-- Node19 -->
<g id="node19" class="node"><title>Node19</title>
<polygon fill="white" stroke="#bfbfbf" points="66.5,-224.5 66.5,-243.5 111.5,-243.5 111.5,-224.5 66.5,-224.5"/>
<text text-anchor="middle" x="89" y="-231.5" font-family="Helvetica,sans-Serif" font-size="10.00">thread</text>
</g>
<!-- Node5&#45;&gt;Node19 -->
<g id="edge30" class="edge"><title>Node5&#45;&gt;Node19</title>
<path fill="none" stroke="midnightblue" d="M402.902,-284.777C340.482,-278.697 226.838,-265.951 121.435,-244.052"/>
<polygon fill="midnightblue" stroke="midnightblue" points="122.097,-240.615 111.59,-241.975 120.651,-247.464 122.097,-240.615"/>
</g>
<!-- Node20 -->
<g id="node20" class="node"><title>Node20</title>
<polygon fill="white" stroke="#bfbfbf" points="129.5,-224.5 129.5,-243.5 226.5,-243.5 226.5,-224.5 129.5,-224.5"/>
<text text-anchor="middle" x="178" y="-231.5" font-family="Helvetica,sans-Serif" font-size="10.00">condition_variable</text>
</g>
<!-- Node5&#45;&gt;Node20 -->
<g id="edge31" class="edge"><title>Node5&#45;&gt;Node20</title>
<path fill="none" stroke="midnightblue" d="M406.901,-280.444C359.153,-270.964 282.139,-255.675 230.806,-245.483"/>
<polygon fill="midnightblue" stroke="midnightblue" points="231.388,-242.031 220.898,-243.516 230.025,-248.897 231.388,-242.031"/>
</g>
<!-- Node21 -->
<g id="node21" class="node"><title>Node21</title>
<polygon fill="white" stroke="#bfbfbf" points="245,-224.5 245,-243.5 305,-243.5 305,-224.5 245,-224.5"/>
<text text-anchor="middle" x="275" y="-231.5" font-family="Helvetica,sans-Serif" font-size="10.00">curl/curl.h</text>
</g>
<!-- Node5&#45;&gt;Node21 -->
<g id="edge32" class="edge"><title>Node5&#45;&gt;Node21</title>
<path fill="none" stroke="midnightblue" d="M422.271,-280.444C392.574,-271.28 345.284,-256.688 312.331,-246.519"/>
<polygon fill="midnightblue" stroke="midnightblue" points="313.187,-243.121 302.6,-243.516 311.123,-249.809 313.187,-243.121"/>
</g>
<!-- Node22 -->
<g id="node22" class="node"><title>Node22</title>
<polygon fill="white" stroke="#bfbfbf" points="323,-224.5 323,-243.5 403,-243.5 403,-224.5 323,-224.5"/>
<text text-anchor="middle" x="363" y="-231.5" font-family="Helvetica,sans-Serif" font-size="10.00">uriparser/Uri.h</text>
</g>
<!-- Node5&#45;&gt;Node22 -->
<g id="edge33" class="edge"><title>Node5&#45;&gt;Node22</title>
<path fill="none" stroke="midnightblue" d="M436.022,-280.324C422.45,-271.9 401.62,-258.971 385.675,-249.074"/>
<polygon fill="midnightblue" stroke="midnightblue" points="387.286,-245.954 376.943,-243.655 383.594,-251.902 387.286,-245.954"/>
</g>
<!-- Node7 -->
<g id="node7" class="node"><title>Node7</title>
<g id="a_node7"><a xlink:href="_data_8h.html" target="_top" xlink:title="uscxml/messages/Data.h">
<polygon fill="white" stroke="black" points="1366,-168.5 1366,-187.5 1494,-187.5 1494,-168.5 1366,-168.5"/>
<text text-anchor="middle" x="1430" y="-175.5" font-family="Helvetica,sans-Serif" font-size="10.00">uscxml/messages/Data.h</text>
</a>
</g>
</g>
<!-- Node6&#45;&gt;Node7 -->
<g id="edge7" class="edge"><title>Node6&#45;&gt;Node7</title>
<path fill="none" stroke="midnightblue" d="M1432.5,-224.083C1432.11,-217.006 1431.55,-206.861 1431.05,-197.986"/>
<polygon fill="midnightblue" stroke="midnightblue" points="1434.54,-197.542 1430.49,-187.751 1427.55,-197.93 1434.54,-197.542"/>
</g>
<!-- Node17 -->
<g id="node17" class="node"><title>Node17</title>
<g id="a_node17"><a xlink:href="_u_u_i_d_8h.html" target="_top" xlink:title="uscxml/util/UUID.h">
<polygon fill="white" stroke="black" points="1560.5,-112.5 1560.5,-131.5 1659.5,-131.5 1659.5,-112.5 1560.5,-112.5"/>
<text text-anchor="middle" x="1610" y="-119.5" font-family="Helvetica,sans-Serif" font-size="10.00">uscxml/util/UUID.h</text>
</a>
</g>
</g>
<!-- Node6&#45;&gt;Node17 -->
<g id="edge22" class="edge"><title>Node6&#45;&gt;Node17</title>
<path fill="none" stroke="midnightblue" d="M1446.89,-224.368C1477.39,-205.412 1550.46,-160.001 1587.57,-136.942"/>
<polygon fill="midnightblue" stroke="midnightblue" points="1589.53,-139.843 1596.18,-131.591 1585.83,-133.897 1589.53,-139.843"/>
</g>
<!-- Node7&#45;&gt;Node2 -->
<g id="edge12" class="edge"><title>Node7&#45;&gt;Node2</title>
<path fill="none" stroke="midnightblue" d="M1387.79,-168.475C1365.68,-161.965 1339.77,-150.796 1323,-132 1311.64,-119.264 1307.05,-100.067 1305.21,-85.8341"/>
<polygon fill="midnightblue" stroke="midnightblue" points="1308.68,-85.3256 1304.25,-75.7023 1301.71,-85.9889 1308.68,-85.3256"/>
</g>
<!-- Node7&#45;&gt;Node8 -->
<g id="edge8" class="edge"><title>Node7&#45;&gt;Node8</title>
<path fill="none" stroke="midnightblue" d="M1365.75,-168.74C1271.04,-156.563 1098.28,-134.351 1034.5,-126.151"/>
<polygon fill="midnightblue" stroke="midnightblue" points="1034.93,-122.677 1024.57,-124.873 1034.04,-129.619 1034.93,-122.677"/>
</g>
<!-- Node7&#45;&gt;Node9 -->
<g id="edge9" class="edge"><title>Node7&#45;&gt;Node9</title>
<path fill="none" stroke="midnightblue" d="M1365.76,-172.581C1204.34,-161.477 786.592,-132.74 673.558,-124.965"/>
<polygon fill="midnightblue" stroke="midnightblue" points="673.517,-121.454 663.301,-124.259 673.037,-128.437 673.517,-121.454"/>
</g>
<!-- Node10 -->
<g id="node10" class="node"><title>Node10</title>
<polygon fill="white" stroke="#bfbfbf" points="1901.5,-56.5 1901.5,-75.5 1954.5,-75.5 1954.5,-56.5 1901.5,-56.5"/>
<text text-anchor="middle" x="1928" y="-63.5" font-family="Helvetica,sans-Serif" font-size="10.00">memory</text>
</g>
<!-- Node7&#45;&gt;Node10 -->
<g id="edge10" class="edge"><title>Node7&#45;&gt;Node10</title>
<path fill="none" stroke="midnightblue" d="M1494.19,-177.235C1571.83,-175.774 1705.59,-167.616 1814,-132 1849.42,-120.365 1886.13,-97.0487 1908.02,-81.7372"/>
<polygon fill="midnightblue" stroke="midnightblue" points="1910.34,-84.3818 1916.44,-75.7226 1906.27,-78.6847 1910.34,-84.3818"/>
</g>
<!-- Node11 -->
<g id="node11" class="node"><title>Node11</title>
<polygon fill="white" stroke="#bfbfbf" points="1152.5,-112.5 1152.5,-131.5 1237.5,-131.5 1237.5,-112.5 1152.5,-112.5"/>
<text text-anchor="middle" x="1195" y="-119.5" font-family="Helvetica,sans-Serif" font-size="10.00">uscxml/config.h</text>
</g>
<!-- Node7&#45;&gt;Node11 -->
<g id="edge11" class="edge"><title>Node7&#45;&gt;Node11</title>
<path fill="none" stroke="midnightblue" d="M1392.76,-168.444C1351.94,-159.063 1286.36,-143.993 1242.02,-133.804"/>
<polygon fill="midnightblue" stroke="midnightblue" points="1242.59,-130.345 1232.06,-131.516 1241.02,-137.167 1242.59,-130.345"/>
</g>
<!-- Node12 -->
<g id="node12" class="node"><title>Node12</title>
<g id="a_node12"><a xlink:href="_convenience_8h.html" target="_top" xlink:title="uscxml/util/Convenience.h">
<polygon fill="white" stroke="black" points="1332.5,-112.5 1332.5,-131.5 1465.5,-131.5 1465.5,-112.5 1332.5,-112.5"/>
<text text-anchor="middle" x="1399" y="-119.5" font-family="Helvetica,sans-Serif" font-size="10.00">uscxml/util/Convenience.h</text>
</a>
</g>
</g>
<!-- Node7&#45;&gt;Node12 -->
<g id="edge13" class="edge"><title>Node7&#45;&gt;Node12</title>
<path fill="none" stroke="midnightblue" d="M1424.88,-168.083C1420.59,-160.613 1414.34,-149.724 1409.06,-140.52"/>
<polygon fill="midnightblue" stroke="midnightblue" points="1412.04,-138.681 1404.02,-131.751 1405.97,-142.166 1412.04,-138.681"/>
</g>
<!-- Node16 -->
<g id="node16" class="node"><title>Node16</title>
<g id="a_node16"><a xlink:href="_blob_8h.html" target="_top" xlink:title="uscxml/messages/Blob.h">
<polygon fill="white" stroke="black" points="1677.5,-112.5 1677.5,-131.5 1804.5,-131.5 1804.5,-112.5 1677.5,-112.5"/>
<text text-anchor="middle" x="1741" y="-119.5" font-family="Helvetica,sans-Serif" font-size="10.00">uscxml/messages/Blob.h</text>
</a>
</g>
</g>
<!-- Node7&#45;&gt;Node16 -->
<g id="edge18" class="edge"><title>Node7&#45;&gt;Node16</title>
<path fill="none" stroke="midnightblue" d="M1479.28,-168.444C1534.33,-158.885 1623.4,-143.419 1682.08,-133.23"/>
<polygon fill="midnightblue" stroke="midnightblue" points="1682.7,-136.676 1691.95,-131.516 1681.5,-129.779 1682.7,-136.676"/>
</g>
<!-- Node12&#45;&gt;Node2 -->
<g id="edge14" class="edge"><title>Node12&#45;&gt;Node2</title>
<path fill="none" stroke="midnightblue" d="M1383.74,-112.324C1368.78,-103.822 1345.75,-90.7288 1328.27,-80.7975"/>
<polygon fill="midnightblue" stroke="midnightblue" points="1329.65,-77.5534 1319.23,-75.6545 1326.19,-83.639 1329.65,-77.5534"/>
</g>
<!-- Node12&#45;&gt;Node13 -->
<g id="edge15" class="edge"><title>Node12&#45;&gt;Node13</title>
<path fill="none" stroke="midnightblue" d="M1432.43,-112.444C1472.97,-102.07 1540.69,-84.7375 1579.74,-74.7438"/>
<polygon fill="midnightblue" stroke="midnightblue" points="1580.66,-78.1208 1589.48,-72.2506 1578.93,-71.3393 1580.66,-78.1208"/>
</g>
<!-- Node14 -->
<g id="node14" class="node"><title>Node14</title>
<polygon fill="white" stroke="#bfbfbf" points="1379.5,-56.5 1379.5,-75.5 1418.5,-75.5 1418.5,-56.5 1379.5,-56.5"/>
<text text-anchor="middle" x="1399" y="-63.5" font-family="Helvetica,sans-Serif" font-size="10.00">limits</text>
</g>
<!-- Node12&#45;&gt;Node14 -->
<g id="edge16" class="edge"><title>Node12&#45;&gt;Node14</title>
<path fill="none" stroke="midnightblue" d="M1399,-112.083C1399,-105.006 1399,-94.8611 1399,-85.9865"/>
<polygon fill="midnightblue" stroke="midnightblue" points="1402.5,-85.751 1399,-75.7511 1395.5,-85.7511 1402.5,-85.751"/>
</g>
<!-- Node12&#45;&gt;Node15 -->
<g id="edge17" class="edge"><title>Node12&#45;&gt;Node15</title>
<path fill="none" stroke="midnightblue" d="M1332.25,-116.349C1174.37,-105.348 782.086,-78.015 660.514,-69.5442"/>
<polygon fill="midnightblue" stroke="midnightblue" points="660.479,-66.0334 650.26,-68.8297 659.993,-73.0165 660.479,-66.0334"/>
</g>
<!-- Node16&#45;&gt;Node2 -->
<g id="edge21" class="edge"><title>Node16&#45;&gt;Node2</title>
<path fill="none" stroke="midnightblue" d="M1677.3,-113.137C1674.16,-112.752 1671.04,-112.371 1668,-112 1535.58,-95.838 1502.32,-93.013 1370,-76 1367.94,-75.735 1365.84,-75.4629 1363.72,-75.1859"/>
<polygon fill="midnightblue" stroke="midnightblue" points="1364.09,-71.7044 1353.72,-73.8632 1363.18,-78.644 1364.09,-71.7044"/>
</g>
<!-- Node16&#45;&gt;Node10 -->
<g id="edge20" class="edge"><title>Node16&#45;&gt;Node10</title>
<path fill="none" stroke="midnightblue" d="M1770.63,-112.444C1803.34,-102.997 1856.04,-87.7807 1891.33,-77.5897"/>
<polygon fill="midnightblue" stroke="midnightblue" points="1892.6,-80.8661 1901.23,-74.729 1890.66,-74.1408 1892.6,-80.8661"/>
</g>
<!-- Node16&#45;&gt;Node13 -->
<g id="edge19" class="edge"><title>Node16&#45;&gt;Node13</title>
<path fill="none" stroke="midnightblue" d="M1720.24,-112.444C1698.68,-103.557 1664.74,-89.5632 1640.21,-79.4514"/>
<polygon fill="midnightblue" stroke="midnightblue" points="1641.24,-76.0917 1630.66,-75.5164 1638.57,-82.5634 1641.24,-76.0917"/>
</g>
<!-- Node17&#45;&gt;Node2 -->
<g id="edge23" class="edge"><title>Node17&#45;&gt;Node2</title>
<path fill="none" stroke="midnightblue" d="M1561.51,-112.444C1507.46,-102.905 1420.07,-87.4834 1362.33,-77.293"/>
<polygon fill="midnightblue" stroke="midnightblue" points="1362.72,-73.8076 1352.26,-75.5164 1361.5,-80.7011 1362.72,-73.8076"/>
</g>
<!-- Node17&#45;&gt;Node13 -->
<g id="edge24" class="edge"><title>Node17&#45;&gt;Node13</title>
<path fill="none" stroke="midnightblue" d="M1610,-112.083C1610,-105.006 1610,-94.8611 1610,-85.9865"/>
<polygon fill="midnightblue" stroke="midnightblue" points="1613.5,-85.751 1610,-75.7511 1606.5,-85.7511 1613.5,-85.751"/>
</g>
<!-- Node23&#45;&gt;Node8 -->
<g id="edge36" class="edge"><title>Node23&#45;&gt;Node8</title>
<path fill="none" stroke="midnightblue" d="M749.962,-168.444C816.867,-156.751 934.349,-136.22 985.286,-127.319"/>
<polygon fill="midnightblue" stroke="midnightblue" points="986.129,-130.725 995.377,-125.555 984.924,-123.829 986.129,-130.725"/>
</g>
<!-- Node23&#45;&gt;Node13 -->
<g id="edge35" class="edge"><title>Node23&#45;&gt;Node13</title>
<path fill="none" stroke="midnightblue" d="M731.496,-168.432C783.33,-154.232 892.137,-126.005 986,-112 1102.58,-94.6054 1470.03,-74.3592 1579.15,-68.6004"/>
<polygon fill="midnightblue" stroke="midnightblue" points="1579.66,-72.0788 1589.46,-68.0591 1579.29,-65.0884 1579.66,-72.0788"/>
</g>
<!-- Node24&#45;&gt;Node8 -->
<g id="edge60" class="edge"><title>Node24&#45;&gt;Node8</title>
<path fill="none" stroke="midnightblue" d="M1334.63,-462.865C1235.83,-450.42 1010,-414.584 1010,-347 1010,-347 1010,-347 1010,-233 1010,-200.948 1010,-163.643 1010,-141.749"/>
<polygon fill="midnightblue" stroke="midnightblue" points="1013.5,-141.558 1010,-131.558 1006.5,-141.558 1013.5,-141.558"/>
</g>
<!-- Node25 -->
<g id="node25" class="node"><title>Node25</title>
<g id="a_node25"><a xlink:href="_data_model_impl_8h.html" target="_top" xlink:title="uscxml/plugins/DataModel\lImpl.h">
<polygon fill="white" stroke="black" points="1171.5,-392.5 1171.5,-422.5 1304.5,-422.5 1304.5,-392.5 1171.5,-392.5"/>
<text text-anchor="start" x="1179.5" y="-410.5" font-family="Helvetica,sans-Serif" font-size="10.00">uscxml/plugins/DataModel</text>
<text text-anchor="middle" x="1238" y="-399.5" font-family="Helvetica,sans-Serif" font-size="10.00">Impl.h</text>
</a>
</g>
</g>
<!-- Node24&#45;&gt;Node25 -->
<g id="edge38" class="edge"><title>Node24&#45;&gt;Node25</title>
<path fill="none" stroke="midnightblue" d="M1359.65,-459.475C1339.16,-450.889 1306.93,-437.383 1280.79,-426.429"/>
<polygon fill="midnightblue" stroke="midnightblue" points="1282.04,-423.16 1271.47,-422.523 1279.34,-429.616 1282.04,-423.16"/>
</g>
<!-- Node30 -->
<g id="node30" class="node"><title>Node30</title>
<polygon fill="white" stroke="#bfbfbf" points="1361,-398 1361,-417 1399,-417 1399,-398 1361,-398"/>
<text text-anchor="middle" x="1380" y="-405" font-family="Helvetica,sans-Serif" font-size="10.00">lua.h</text>
</g>
<!-- Node24&#45;&gt;Node30 -->
<g id="edge61" class="edge"><title>Node24&#45;&gt;Node30</title>
<path fill="none" stroke="midnightblue" d="M1380,-459.475C1380,-451.08 1380,-437.981 1380,-427.163"/>
<polygon fill="midnightblue" stroke="midnightblue" points="1383.5,-427.009 1380,-417.009 1376.5,-427.009 1383.5,-427.009"/>
</g>
<!-- Node31 -->
<g id="node31" class="node"><title>Node31</title>
<polygon fill="white" stroke="#bfbfbf" points="1417,-398 1417,-417 1465,-417 1465,-398 1417,-398"/>
<text text-anchor="middle" x="1441" y="-405" font-family="Helvetica,sans-Serif" font-size="10.00">lualib.h</text>
</g>
<!-- Node24&#45;&gt;Node31 -->
<g id="edge62" class="edge"><title>Node24&#45;&gt;Node31</title>
<path fill="none" stroke="midnightblue" d="M1388.74,-459.475C1398.16,-450.285 1413.36,-435.456 1424.95,-424.156"/>
<polygon fill="midnightblue" stroke="midnightblue" points="1427.56,-426.497 1432.28,-417.009 1422.67,-421.486 1427.56,-426.497"/>
</g>
<!-- Node32 -->
<g id="node32" class="node"><title>Node32</title>
<polygon fill="white" stroke="#bfbfbf" points="1483.5,-398 1483.5,-417 1536.5,-417 1536.5,-398 1483.5,-398"/>
<text text-anchor="middle" x="1510" y="-405" font-family="Helvetica,sans-Serif" font-size="10.00">lauxlib.h</text>
</g>
<!-- Node24&#45;&gt;Node32 -->
<g id="edge63" class="edge"><title>Node24&#45;&gt;Node32</title>
<path fill="none" stroke="midnightblue" d="M1398.63,-459.475C1420.44,-449.49 1456.8,-432.848 1482.02,-421.307"/>
<polygon fill="midnightblue" stroke="midnightblue" points="1483.77,-424.353 1491.41,-417.009 1480.86,-417.988 1483.77,-424.353"/>
</g>
<!-- Node25&#45;&gt;Node2 -->
<g id="edge40" class="edge"><title>Node25&#45;&gt;Node2</title>
<path fill="none" stroke="midnightblue" d="M1215.56,-392.346C1174.53,-364.473 1092.68,-298.656 1105,-224 1113.56,-172.137 1104.83,-148.141 1143,-112 1170.12,-86.3206 1210.66,-75.0874 1244.27,-70.2655"/>
<polygon fill="midnightblue" stroke="midnightblue" points="1244.98,-73.7034 1254.46,-68.966 1244.09,-66.7597 1244.98,-73.7034"/>
</g>
<!-- Node25&#45;&gt;Node8 -->
<g id="edge57" class="edge"><title>Node25&#45;&gt;Node8</title>
<path fill="none" stroke="midnightblue" d="M1171.14,-400.203C1137.69,-393.868 1098.73,-381.217 1072,-356 1049.6,-334.869 1048,-321.795 1048,-291 1048,-291 1048,-291 1048,-233 1048,-198.813 1031.4,-161.764 1020.14,-140.571"/>
<polygon fill="midnightblue" stroke="midnightblue" points="1023.18,-138.832 1015.28,-131.769 1017.05,-142.215 1023.18,-138.832"/>
</g>
<!-- Node25&#45;&gt;Node10 -->
<g id="edge59" class="edge"><title>Node25&#45;&gt;Node10</title>
<path fill="none" stroke="midnightblue" d="M1304.56,-397.606C1320.11,-395.647 1336.63,-393.662 1352,-392 1493.62,-376.689 1985,-433.446 1985,-291 1985,-291 1985,-291 1985,-177 1985,-140.3 1959.68,-103.657 1942.79,-83.2973"/>
<polygon fill="midnightblue" stroke="midnightblue" points="1945.35,-80.9037 1936.17,-75.6161 1940.05,-85.475 1945.35,-80.9037"/>
</g>
<!-- Node25&#45;&gt;Node11 -->
<g id="edge39" class="edge"><title>Node25&#45;&gt;Node11</title>
<path fill="none" stroke="midnightblue" d="M1240.61,-392.076C1245.75,-360.934 1255.56,-285.267 1242,-224 1235.1,-192.822 1217.55,-159.849 1205.96,-140.365"/>
<polygon fill="midnightblue" stroke="midnightblue" points="1208.87,-138.425 1200.67,-131.718 1202.9,-142.076 1208.87,-138.425"/>
</g>
<!-- Node25&#45;&gt;Node13 -->
<g id="edge58" class="edge"><title>Node25&#45;&gt;Node13</title>
<path fill="none" stroke="midnightblue" d="M1304.8,-397.918C1413.68,-383.913 1618.19,-357.538 1626,-356 1736.53,-334.24 1871,-403.656 1871,-291 1871,-291 1871,-291 1871,-177 1871,-78.2816 1710.49,-66.7469 1641.21,-66.3655"/>
<polygon fill="midnightblue" stroke="midnightblue" points="1640.91,-62.8661 1630.92,-66.3884 1640.93,-69.866 1640.91,-62.8661"/>
</g>
<!-- Node26 -->
<g id="node26" class="node"><title>Node26</title>
<g id="a_node26"><a xlink:href="_invoker_8h.html" target="_top" xlink:title="uscxml/plugins/Invoker.h">
<polygon fill="white" stroke="black" points="1266,-336.5 1266,-355.5 1392,-355.5 1392,-336.5 1266,-336.5"/>
<text text-anchor="middle" x="1329" y="-343.5" font-family="Helvetica,sans-Serif" font-size="10.00">uscxml/plugins/Invoker.h</text>
</a>
</g>
</g>
<!-- Node25&#45;&gt;Node26 -->
<g id="edge41" class="edge"><title>Node25&#45;&gt;Node26</title>
<path fill="none" stroke="midnightblue" d="M1259.57,-392.399C1273.88,-383.04 1292.61,-370.792 1307.01,-361.377"/>
<polygon fill="midnightblue" stroke="midnightblue" points="1309.3,-364.06 1315.76,-355.658 1305.47,-358.201 1309.3,-364.06"/>
</g>
<!-- Node28 -->
<g id="node28" class="node"><title>Node28</title>
<polygon fill="white" stroke="#bfbfbf" points="1114.5,-224.5 1114.5,-243.5 1233.5,-243.5 1233.5,-224.5 1114.5,-224.5"/>
<text text-anchor="middle" x="1174" y="-231.5" font-family="Helvetica,sans-Serif" font-size="10.00">xercesc/dom/DOM.hpp</text>
</g>
<!-- Node25&#45;&gt;Node28 -->
<g id="edge56" class="edge"><title>Node25&#45;&gt;Node28</title>
<path fill="none" stroke="midnightblue" d="M1232.76,-392.465C1221.23,-361.57 1193.66,-287.69 1180.81,-253.251"/>
<polygon fill="midnightblue" stroke="midnightblue" points="1183.97,-251.705 1177.19,-243.56 1177.41,-254.152 1183.97,-251.705"/>
</g>
<!-- Node29 -->
<g id="node29" class="node"><title>Node29</title>
<g id="a_node29"><a xlink:href="_i_o_processor_8h.html" target="_top" xlink:title="uscxml/plugins/IOProcessor.h">
<polygon fill="white" stroke="black" points="1468.5,-336.5 1468.5,-355.5 1617.5,-355.5 1617.5,-336.5 1468.5,-336.5"/>
<text text-anchor="middle" x="1543" y="-343.5" font-family="Helvetica,sans-Serif" font-size="10.00">uscxml/plugins/IOProcessor.h</text>
</a>
</g>
</g>
<!-- Node25&#45;&gt;Node29 -->
<g id="edge52" class="edge"><title>Node25&#45;&gt;Node29</title>
<path fill="none" stroke="midnightblue" d="M1304.56,-393.516C1359.93,-382.713 1437.76,-367.53 1489.24,-357.487"/>
<polygon fill="midnightblue" stroke="midnightblue" points="1490.03,-360.899 1499.18,-355.549 1488.69,-354.029 1490.03,-360.899"/>
</g>
<!-- Node26&#45;&gt;Node2 -->
<g id="edge43" class="edge"><title>Node26&#45;&gt;Node2</title>
<path fill="none" stroke="midnightblue" d="M1328.41,-336.161C1327.55,-323.649 1325.86,-300.061 1324,-280 1317.91,-214.12 1313.59,-197.925 1308,-132 1306.69,-116.49 1305.63,-98.8638 1304.93,-85.8826"/>
<polygon fill="midnightblue" stroke="midnightblue" points="1308.42,-85.6477 1304.41,-75.8408 1301.43,-86.0075 1308.42,-85.6477"/>
</g>
<!-- Node26&#45;&gt;Node6 -->
<g id="edge50" class="edge"><title>Node26&#45;&gt;Node6</title>
<path fill="none" stroke="midnightblue" d="M1337.16,-336.368C1354.55,-317.974 1395.49,-274.671 1417.82,-251.052"/>
<polygon fill="midnightblue" stroke="midnightblue" points="1420.55,-253.262 1424.88,-243.591 1415.46,-248.453 1420.55,-253.262"/>
</g>
<!-- Node26&#45;&gt;Node11 -->
<g id="edge42" class="edge"><title>Node26&#45;&gt;Node11</title>
<path fill="none" stroke="midnightblue" d="M1327.29,-336.259C1320.94,-304.442 1297.91,-195.246 1276,-168 1264.31,-153.466 1246.6,-142.867 1230.71,-135.62"/>
<polygon fill="midnightblue" stroke="midnightblue" points="1231.7,-132.236 1221.13,-131.535 1228.95,-138.675 1231.7,-132.236"/>
</g>
<!-- Node27 -->
<g id="node27" class="node"><title>Node27</title>
<g id="a_node27"><a xlink:href="_event_handler_8h.html" target="_top" xlink:title="uscxml/plugins/EventHandler.h">
<polygon fill="white" stroke="black" points="1486,-280.5 1486,-299.5 1640,-299.5 1640,-280.5 1486,-280.5"/>
<text text-anchor="middle" x="1563" y="-287.5" font-family="Helvetica,sans-Serif" font-size="10.00">uscxml/plugins/EventHandler.h</text>
</a>
</g>
</g>
<!-- Node26&#45;&gt;Node27 -->
<g id="edge44" class="edge"><title>Node26&#45;&gt;Node27</title>
<path fill="none" stroke="midnightblue" d="M1366.08,-336.444C1406.73,-327.063 1472.03,-311.993 1516.18,-301.804"/>
<polygon fill="midnightblue" stroke="midnightblue" points="1517.14,-305.175 1526.1,-299.516 1515.56,-298.355 1517.14,-305.175"/>
</g>
<!-- Node26&#45;&gt;Node28 -->
<g id="edge51" class="edge"><title>Node26&#45;&gt;Node28</title>
<path fill="none" stroke="midnightblue" d="M1316.84,-336.368C1290.35,-317.573 1227.22,-272.768 1194.48,-249.533"/>
<polygon fill="midnightblue" stroke="midnightblue" points="1196.29,-246.525 1186.11,-243.591 1192.24,-252.233 1196.29,-246.525"/>
</g>
<!-- Node27&#45;&gt;Node2 -->
<g id="edge45" class="edge"><title>Node27&#45;&gt;Node2</title>
<path fill="none" stroke="midnightblue" d="M1561.35,-280.363C1555.36,-251.533 1532.01,-157.857 1474,-112 1456.76,-98.3728 1405.15,-85.8416 1363.28,-77.4831"/>
<polygon fill="midnightblue" stroke="midnightblue" points="1363.9,-74.0393 1353.42,-75.5549 1362.56,-80.9092 1363.9,-74.0393"/>
</g>
<!-- Node27&#45;&gt;Node6 -->
<g id="edge46" class="edge"><title>Node27&#45;&gt;Node6</title>
<path fill="none" stroke="midnightblue" d="M1542.4,-280.444C1521.01,-271.557 1487.32,-257.563 1462.98,-247.451"/>
<polygon fill="midnightblue" stroke="midnightblue" points="1464.08,-244.12 1453.5,-243.516 1461.39,-250.585 1464.08,-244.12"/>
</g>
<!-- Node27&#45;&gt;Node8 -->
<g id="edge47" class="edge"><title>Node27&#45;&gt;Node8</title>
<path fill="none" stroke="midnightblue" d="M1558.22,-280.219C1549.97,-265.97 1531.66,-238.002 1508,-224 1487.05,-211.605 1132.01,-145.5 1034.57,-127.518"/>
<polygon fill="midnightblue" stroke="midnightblue" points="1035.19,-124.075 1024.72,-125.704 1033.92,-130.959 1035.19,-124.075"/>
</g>
<!-- Node27&#45;&gt;Node10 -->
<g id="edge49" class="edge"><title>Node27&#45;&gt;Node10</title>
<path fill="none" stroke="midnightblue" d="M1606.38,-280.496C1637.86,-273.324 1680.9,-261.412 1716,-244 1801.13,-201.764 1881.52,-118.829 1913.48,-83.5337"/>
<polygon fill="midnightblue" stroke="midnightblue" points="1916.48,-85.4288 1920.53,-75.6405 1911.26,-80.7638 1916.48,-85.4288"/>
</g>
<!-- Node27&#45;&gt;Node13 -->
<g id="edge48" class="edge"><title>Node27&#45;&gt;Node13</title>
<path fill="none" stroke="midnightblue" d="M1594.13,-280.384C1650.12,-263.003 1766.42,-217.874 1814,-132 1818.31,-124.225 1819.57,-118.929 1814,-112 1792.63,-85.4066 1692.51,-73.5974 1640.92,-69.2046"/>
<polygon fill="midnightblue" stroke="midnightblue" points="1640.94,-65.695 1630.69,-68.3771 1640.37,-72.6722 1640.94,-65.695"/>
</g>
<!-- Node29&#45;&gt;Node2 -->
<g id="edge53" class="edge"><title>Node29&#45;&gt;Node2</title>
<path fill="none" stroke="midnightblue" d="M1588.09,-336.437C1621.95,-327.468 1660.63,-310.336 1649,-280 1613.06,-186.258 1584.45,-163.037 1498,-112 1475.48,-98.7084 1411.86,-85.4154 1363.56,-76.7619"/>
<polygon fill="midnightblue" stroke="midnightblue" points="1363.96,-73.2788 1353.51,-74.9874 1362.75,-80.1723 1363.96,-73.2788"/>
</g>
<!-- Node29&#45;&gt;Node6 -->
<g id="edge55" class="edge"><title>Node29&#45;&gt;Node6</title>
<path fill="none" stroke="midnightblue" d="M1527.1,-336.466C1512.9,-328.339 1492.08,-315.127 1477,-300 1462.91,-285.864 1450.54,-266.629 1442.54,-252.755"/>
<polygon fill="midnightblue" stroke="midnightblue" points="1445.44,-250.78 1437.52,-243.75 1439.33,-254.189 1445.44,-250.78"/>
</g>
<!-- Node29&#45;&gt;Node27 -->
<g id="edge54" class="edge"><title>Node29&#45;&gt;Node27</title>
<path fill="none" stroke="midnightblue" d="M1546.3,-336.083C1548.98,-328.849 1552.85,-318.409 1556.19,-309.397"/>
<polygon fill="midnightblue" stroke="midnightblue" points="1559.57,-310.344 1559.76,-299.751 1553,-307.913 1559.57,-310.344"/>
</g>
<!-- Node34&#45;&gt;Node2 -->
<g id="edge71" class="edge"><title>Node34&#45;&gt;Node2</title>
<path fill="none" stroke="midnightblue" d="M783.936,-282.558C736.457,-275.361 668.966,-262.274 650,-244 606.529,-202.116 576.735,-156.06 618,-112 660.337,-66.795 1085.01,-65.3118 1244.18,-66.3685"/>
<polygon fill="midnightblue" stroke="midnightblue" points="1244.24,-69.869 1254.27,-66.4414 1244.29,-62.8692 1244.24,-69.869"/>
</g>
<!-- Node34&#45;&gt;Node8 -->
<g id="edge68" class="edge"><title>Node34&#45;&gt;Node8</title>
<path fill="none" stroke="midnightblue" d="M842.575,-280.269C851.775,-271.597 865.753,-257.656 876,-244 899.425,-212.781 891.571,-194.742 920,-168 938.875,-150.245 966.095,-137.957 985.651,-130.762"/>
<polygon fill="midnightblue" stroke="midnightblue" points="987.071,-133.973 995.359,-127.373 984.764,-127.364 987.071,-133.973"/>
</g>
<!-- Node34&#45;&gt;Node11 -->
<g id="edge70" class="edge"><title>Node34&#45;&gt;Node11</title>
<path fill="none" stroke="midnightblue" d="M851.7,-280.425C911.159,-253.159 1096.11,-168.348 1166.98,-135.851"/>
<polygon fill="midnightblue" stroke="midnightblue" points="1168.56,-138.973 1176.19,-131.624 1165.65,-132.611 1168.56,-138.973"/>
</g>
<!-- Node34&#45;&gt;Node18 -->
<g id="edge67" class="edge"><title>Node34&#45;&gt;Node18</title>
<path fill="none" stroke="midnightblue" d="M785.506,-280.458C741.54,-272.231 674.481,-258.871 617,-244 615.737,-243.673 614.447,-243.325 613.147,-242.964"/>
<polygon fill="midnightblue" stroke="midnightblue" points="613.855,-239.523 603.273,-240.04 611.867,-246.235 613.855,-239.523"/>
</g>
<!-- Node34&#45;&gt;Node28 -->
<g id="edge73" class="edge"><title>Node34&#45;&gt;Node28</title>
<path fill="none" stroke="midnightblue" d="M882.22,-281.206C942.394,-271.677 1044.35,-255.53 1110.42,-245.069"/>
<polygon fill="midnightblue" stroke="midnightblue" points="1110.97,-248.526 1120.29,-243.505 1109.87,-241.612 1110.97,-248.526"/>
</g>
<!-- Node35 -->
<g id="node35" class="node"><title>Node35</title>
<polygon fill="white" stroke="#bfbfbf" points="659.5,-224.5 659.5,-243.5 714.5,-243.5 714.5,-224.5 659.5,-224.5"/>
<text text-anchor="middle" x="687" y="-231.5" font-family="Helvetica,sans-Serif" font-size="10.00">iostream</text>
</g>
<!-- Node34&#45;&gt;Node35 -->
<g id="edge69" class="edge"><title>Node34&#45;&gt;Node35</title>
<path fill="none" stroke="midnightblue" d="M809.866,-280.444C785.518,-271.438 746.993,-257.189 719.577,-247.049"/>
<polygon fill="midnightblue" stroke="midnightblue" points="720.619,-243.703 710.026,-243.516 718.191,-250.268 720.619,-243.703"/>
</g>
<!-- Node36 -->
<g id="node36" class="node"><title>Node36</title>
<polygon fill="white" stroke="#bfbfbf" points="732.5,-224.5 732.5,-243.5 867.5,-243.5 867.5,-224.5 732.5,-224.5"/>
<text text-anchor="middle" x="800" y="-231.5" font-family="Helvetica,sans-Serif" font-size="10.00">xercesc/util/XMLString.hpp</text>
</g>
<!-- Node34&#45;&gt;Node36 -->
<g id="edge72" class="edge"><title>Node34&#45;&gt;Node36</title>
<path fill="none" stroke="midnightblue" d="M827.551,-280.083C822.986,-272.613 816.332,-261.724 810.707,-252.52"/>
<polygon fill="midnightblue" stroke="midnightblue" points="813.549,-250.459 805.348,-243.751 807.576,-254.109 813.549,-250.459"/>
</g>
</g>
</svg>
        <g id="navigator" transform="translate(0 0)" fill="#404254">
                <rect fill="#f2f5e9" fill-opacity="0.5" stroke="#606060" stroke-width=".5" x="0" y="0" width="60" height="60"/>
                <use id="zoomplus" xlink:href="#zoomPlus" x="17" y="9" onmousedown="handleZoom(evt,'in')"/>
                <use id="zoomminus" xlink:href="#zoomMin" x="42" y="9" onmousedown="handleZoom(evt,'out')"/>
                <use id="reset" xlink:href="#resetDef" x="30" y="36" onmousedown="handleReset()"/>
                <g id="arrowUp" xlink:href="#dirArrow" transform="translate(30 24)" onmousedown="handlePan(0,-1)">
                  <use xlink:href="#rim" fill="#404040">
                        <set attributeName="fill" to="#808080" begin="arrowUp.mouseover" end="arrowUp.mouseout"/>
                  </use>
                  <path fill="none" stroke="white" stroke-width="1.5" d="M0,-3.0v7 M-2.5,-0.5L0,-3.0L2.5,-0.5"/>
                </g>
                <g id="arrowRight" xlink:href="#dirArrow" transform="rotate(90) translate(36 -43)" onmousedown="handlePan(1,0)">
                  <use xlink:href="#rim" fill="#404040">
                        <set attributeName="fill" to="#808080" begin="arrowRight.mouseover" end="arrowRight.mouseout"/>
                  </use>
                  <path fill="none" stroke="white" stroke-width="1.5" d="M0,-3.0v7 M-2.5,-0.5L0,-3.0L2.5,-0.5"/>
                </g>
                <g id="arrowDown" xlink:href="#dirArrow" transform="rotate(180) translate(-30 -48)" onmousedown="handlePan(0,1)">
                  <use xlink:href="#rim" fill="#404040">
                        <set attributeName="fill" to="#808080" begin="arrowDown.mouseover" end="arrowDown.mouseout"/>
                  </use>
                  <path fill="none" stroke="white" stroke-width="1.5" d="M0,-3.0v7 M-2.5,-0.5L0,-3.0L2.5,-0.5"/>
                </g>
                <g id="arrowLeft" xlink:href="#dirArrow" transform="rotate(270) translate(-36 17)" onmousedown="handlePan(-1,0)">
                  <use xlink:href="#rim" fill="#404040">
                        <set attributeName="fill" to="#808080" begin="arrowLeft.mouseover" end="arrowLeft.mouseout"/>
                  </use>
                  <path fill="none" stroke="white" stroke-width="1.5" d="M0,-3.0v7 M-2.5,-0.5L0,-3.0L2.5,-0.5"/>
                </g>
        </g>
        <svg viewBox="0 0 15 15" width="100%" height="30px" preserveAspectRatio="xMaxYMin meet">
         <g id="arrow_out" transform="scale(0.3 0.3)">
          <a xlink:href="_lua_data_model_8cpp__incl_org.svg" target="_base">
           <rect id="button" ry="5" rx="5" y="6" x="6" height="38" width="38"
                fill="#f2f5e9" fill-opacity="0.5" stroke="#606060" stroke-width="1.0"/>
           <path id="arrow"
             d="M 11.500037,31.436501 C 11.940474,20.09759 22.043105,11.32322 32.158766,21.979434 L 37.068811,17.246167 C 37.068811,17.246167 37.088388,32 37.088388,32 L 22.160133,31.978069 C 22.160133,31.978069 26.997745,27.140456 26.997745,27.140456 C 18.528582,18.264221 13.291696,25.230495 11.500037,31.436501 z"
             style="fill:#404040;"/>
          </a>
         </g>
        </svg>
</svg>
