<?xml version="1.0" encoding="UTF-8" standalone="no"?>
<!DOCTYPE svg PUBLIC "-//W3C//DTD SVG 1.1//EN"
 "http://www.w3.org/Graphics/SVG/1.1/DTD/svg11.dtd">
<!-- Generated by graphviz version 2.38.0 (20140413.2041)
 -->
<!-- Title: util/MD5.hpp Pages: 1 -->
<svg width="463pt" height="140pt"
 viewBox="0.00 0.00 463.00 140.00" xmlns="http://www.w3.org/2000/svg" xmlns:xlink="http://www.w3.org/1999/xlink">
<g id="graph0" class="graph" transform="scale(1 1) rotate(0) translate(4 136)">
<title>util/MD5.hpp</title>
<polygon fill="white" stroke="none" points="-4,4 -4,-136 459,-136 459,4 -4,4"/>
<!-- Node1 -->
<g id="node1" class="node"><title>Node1</title>
<polygon fill="#bfbfbf" stroke="black" points="158.5,-112.5 158.5,-131.5 231.5,-131.5 231.5,-112.5 158.5,-112.5"/>
<text text-anchor="middle" x="195" y="-119.5" font-family="Helvetica,sans-Serif" font-size="10.00">util/MD5.hpp</text>
</g>
<!-- Node2 -->
<g id="node2" class="node"><title>Node2</title>
<g id="a_node2"><a xlink:href="_m_d5_8h_source.html" target="_top" xlink:title="MD5.h">
<polygon fill="white" stroke="black" points="0,-56.5 0,-75.5 46,-75.5 46,-56.5 0,-56.5"/>
<text text-anchor="middle" x="23" y="-63.5" font-family="Helvetica,sans-Serif" font-size="10.00">MD5.h</text>
</a>
</g>
</g>
<!-- Node1&#45;&gt;Node2 -->
<g id="edge1" class="edge"><title>Node1&#45;&gt;Node2</title>
<path fill="none" stroke="midnightblue" d="M167.746,-112.444C137.488,-102.944 88.6451,-87.6095 56.1844,-77.4183"/>
<polygon fill="midnightblue" stroke="midnightblue" points="56.8544,-73.9603 46.2651,-74.3042 54.7576,-80.6389 56.8544,-73.9603"/>
</g>
<!-- Node3 -->
<g id="node3" class="node"><title>Node3</title>
<g id="a_node3"><a xlink:href="_string_8h.html" target="_top" xlink:title="string.h">
<polygon fill="white" stroke="black" points="64.5,-56.5 64.5,-75.5 113.5,-75.5 113.5,-56.5 64.5,-56.5"/>
<text text-anchor="middle" x="89" y="-63.5" font-family="Helvetica,sans-Serif" font-size="10.00">string.h</text>
</a>
</g>
</g>
<!-- Node1&#45;&gt;Node3 -->
<g id="edge2" class="edge"><title>Node1&#45;&gt;Node3</title>
<path fill="none" stroke="midnightblue" d="M177.969,-112.324C160.97,-103.664 134.624,-90.2424 115.007,-80.249"/>
<polygon fill="midnightblue" stroke="midnightblue" points="116.488,-77.0752 105.988,-75.6545 113.31,-83.3125 116.488,-77.0752"/>
</g>
<!-- Node6 -->
<g id="node6" class="node"><title>Node6</title>
<polygon fill="white" stroke="#bfbfbf" points="131.5,-56.5 131.5,-75.5 186.5,-75.5 186.5,-56.5 131.5,-56.5"/>
<text text-anchor="middle" x="159" y="-63.5" font-family="Helvetica,sans-Serif" font-size="10.00">iostream</text>
</g>
<!-- Node1&#45;&gt;Node6 -->
<g id="edge5" class="edge"><title>Node1&#45;&gt;Node6</title>
<path fill="none" stroke="midnightblue" d="M189.055,-112.083C184.023,-104.534 176.663,-93.4948 170.487,-84.2298"/>
<polygon fill="midnightblue" stroke="midnightblue" points="173.293,-82.1301 164.834,-75.7511 167.469,-86.0131 173.293,-82.1301"/>
</g>
<!-- Node7 -->
<g id="node7" class="node"><title>Node7</title>
<polygon fill="white" stroke="#bfbfbf" points="205,-56.5 205,-75.5 257,-75.5 257,-56.5 205,-56.5"/>
<text text-anchor="middle" x="231" y="-63.5" font-family="Helvetica,sans-Serif" font-size="10.00">sstream</text>
</g>
<!-- Node1&#45;&gt;Node7 -->
<g id="edge6" class="edge"><title>Node1&#45;&gt;Node7</title>
<path fill="none" stroke="midnightblue" d="M200.945,-112.083C205.977,-104.534 213.337,-93.4948 219.513,-84.2298"/>
<polygon fill="midnightblue" stroke="midnightblue" points="222.531,-86.0131 225.166,-75.7511 216.707,-82.1301 222.531,-86.0131"/>
</g>
<!-- Node8 -->
<g id="node8" class="node"><title>Node8</title>
<polygon fill="white" stroke="#bfbfbf" points="275,-56.5 275,-75.5 327,-75.5 327,-56.5 275,-56.5"/>
<text text-anchor="middle" x="301" y="-63.5" font-family="Helvetica,sans-Serif" font-size="10.00">iomanip</text>
</g>
<!-- Node1&#45;&gt;Node8 -->
<g id="edge7" class="edge"><title>Node1&#45;&gt;Node8</title>
<path fill="none" stroke="midnightblue" d="M212.031,-112.324C229.03,-103.664 255.376,-90.2424 274.993,-80.249"/>
<polygon fill="midnightblue" stroke="midnightblue" points="276.69,-83.3125 284.012,-75.6545 273.512,-77.0752 276.69,-83.3125"/>
</g>
<!-- Node9 -->
<g id="node9" class="node"><title>Node9</title>
<g id="a_node9"><a xlink:href="_common_8h.html" target="_top" xlink:title="uscxml/Common.h">
<polygon fill="white" stroke="black" points="345.5,-56.5 345.5,-75.5 444.5,-75.5 444.5,-56.5 345.5,-56.5"/>
<text text-anchor="middle" x="395" y="-63.5" font-family="Helvetica,sans-Serif" font-size="10.00">uscxml/Common.h</text>
</a>
</g>
</g>
<!-- Node1&#45;&gt;Node9 -->
<g id="edge8" class="edge"><title>Node1&#45;&gt;Node9</title>
<path fill="none" stroke="midnightblue" d="M226.691,-112.444C261.068,-103.162 316.077,-88.3093 353.789,-78.127"/>
<polygon fill="midnightblue" stroke="midnightblue" points="354.716,-81.5022 363.458,-75.5164 352.891,-74.7442 354.716,-81.5022"/>
</g>
<!-- Node4 -->
<g id="node4" class="node"><title>Node4</title>
<polygon fill="white" stroke="#bfbfbf" points="41.5,-0.5 41.5,-19.5 82.5,-19.5 82.5,-0.5 41.5,-0.5"/>
<text text-anchor="middle" x="62" y="-7.5" font-family="Helvetica,sans-Serif" font-size="10.00">string</text>
</g>
<!-- Node3&#45;&gt;Node4 -->
<g id="edge3" class="edge"><title>Node3&#45;&gt;Node4</title>
<path fill="none" stroke="midnightblue" d="M84.5415,-56.083C80.8457,-48.6913 75.4766,-37.9533 70.9055,-28.8111"/>
<polygon fill="midnightblue" stroke="midnightblue" points="73.9782,-27.1301 66.3755,-19.7511 67.7172,-30.2606 73.9782,-27.1301"/>
</g>
<!-- Node5 -->
<g id="node5" class="node"><title>Node5</title>
<polygon fill="white" stroke="#bfbfbf" points="100.5,-0.5 100.5,-19.5 129.5,-19.5 129.5,-0.5 100.5,-0.5"/>
<text text-anchor="middle" x="115" y="-7.5" font-family="Helvetica,sans-Serif" font-size="10.00">list</text>
</g>
<!-- Node3&#45;&gt;Node5 -->
<g id="edge4" class="edge"><title>Node3&#45;&gt;Node5</title>
<path fill="none" stroke="midnightblue" d="M93.2934,-56.083C96.8523,-48.6913 102.022,-37.9533 106.424,-28.8111"/>
<polygon fill="midnightblue" stroke="midnightblue" points="109.602,-30.2795 110.787,-19.7511 103.295,-27.2427 109.602,-30.2795"/>
</g>
<!-- Node10 -->
<g id="node10" class="node"><title>Node10</title>
<polygon fill="white" stroke="#bfbfbf" points="321,-0.5 321,-19.5 393,-19.5 393,-0.5 321,-0.5"/>
<text text-anchor="middle" x="357" y="-7.5" font-family="Helvetica,sans-Serif" font-size="10.00">sys/socket.h</text>
</g>
<!-- Node9&#45;&gt;Node10 -->
<g id="edge9" class="edge"><title>Node9&#45;&gt;Node10</title>
<path fill="none" stroke="midnightblue" d="M388.725,-56.083C383.358,-48.4554 375.482,-37.2645 368.921,-27.9408"/>
<polygon fill="midnightblue" stroke="midnightblue" points="371.775,-25.9149 363.158,-19.7511 366.051,-29.9434 371.775,-25.9149"/>
</g>
<!-- Node11 -->
<g id="node11" class="node"><title>Node11</title>
<polygon fill="white" stroke="#bfbfbf" points="411,-0.5 411,-19.5 455,-19.5 455,-0.5 411,-0.5"/>
<text text-anchor="middle" x="433" y="-7.5" font-family="Helvetica,sans-Serif" font-size="10.00">cmath</text>
</g>
<!-- Node9&#45;&gt;Node11 -->
<g id="edge10" class="edge"><title>Node9&#45;&gt;Node11</title>
<path fill="none" stroke="midnightblue" d="M401.275,-56.083C406.642,-48.4554 414.518,-37.2645 421.079,-27.9408"/>
<polygon fill="midnightblue" stroke="midnightblue" points="423.949,-29.9434 426.842,-19.7511 418.225,-25.9149 423.949,-29.9434"/>
</g>
</g>
</svg>
