<?xml version="1.0" encoding="UTF-8" standalone="no"?>
<!DOCTYPE svg PUBLIC "-//W3C//DTD SVG 1.1//EN"
 "http://www.w3.org/Graphics/SVG/1.1/DTD/svg11.dtd">
<!-- Generated by graphviz version 2.40.1 (20161225.0304)
 -->
<!-- Title: interpreter/MicroStep.h Pages: 1 -->
<svg width="694pt" height="263pt"
 viewBox="0.00 0.00 693.78 263.00" xmlns="http://www.w3.org/2000/svg" xmlns:xlink="http://www.w3.org/1999/xlink">
<g id="graph0" class="graph" transform="scale(1 1) rotate(0) translate(4 259)">
<title>interpreter/MicroStep.h</title>
<polygon fill="#ffffff" stroke="transparent" points="-4,4 -4,-259 689.7763,-259 689.7763,4 -4,4"/>
<!-- Node0 -->
<g id="node1" class="node">
<title>Node0</title>
<polygon fill="#bfbfbf" stroke="#000000" points="395.7964,-235.5 395.7964,-254.5 513.7964,-254.5 513.7964,-235.5 395.7964,-235.5"/>
<text text-anchor="middle" x="454.7964" y="-242.5" font-family="Helvetica,sans-Serif" font-size="10.00" fill="#000000">interpreter/MicroStep.h</text>
</g>
<!-- Node1 -->
<g id="node2" class="node">
<title>Node1</title>
<polygon fill="#ffffff" stroke="#bfbfbf" points="44.2964,-56.5 44.2964,-75.5 97.2964,-75.5 97.2964,-56.5 44.2964,-56.5"/>
<text text-anchor="middle" x="70.7964" y="-63.5" font-family="Helvetica,sans-Serif" font-size="10.00" fill="#000000">memory</text>
</g>
<!-- Node0&#45;&gt;Node1 -->
<g id="edge1" class="edge">
<title>Node0&#45;&gt;Node1</title>
<path fill="none" stroke="#191970" d="M395.7176,-239.9046C283.3532,-228.7645 46.2358,-197.798 3.7964,-132 -9.4075,-111.5286 15.5354,-92.5016 38.6463,-80.1885"/>
<polygon fill="#191970" stroke="#191970" points="40.3005,-83.2744 47.6595,-75.6523 37.1535,-77.0216 40.3005,-83.2744"/>
</g>
<!-- Node2 -->
<g id="node3" class="node">
<title>Node2</title>
<polygon fill="#ffffff" stroke="#bfbfbf" points="13.2964,-112.5 13.2964,-131.5 42.2964,-131.5 42.2964,-112.5 13.2964,-112.5"/>
<text text-anchor="middle" x="27.7964" y="-119.5" font-family="Helvetica,sans-Serif" font-size="10.00" fill="#000000">list</text>
</g>
<!-- Node0&#45;&gt;Node2 -->
<g id="edge2" class="edge">
<title>Node0&#45;&gt;Node2</title>
<path fill="none" stroke="#191970" d="M403.2514,-235.4903C360.6791,-227.1986 298.8493,-214.1458 245.7964,-199 174.0744,-178.5245 91.6117,-147.2034 51.7911,-131.5702"/>
<polygon fill="#191970" stroke="#191970" points="52.9834,-128.2781 42.3967,-127.8618 50.4131,-134.7891 52.9834,-128.2781"/>
</g>
<!-- Node3 -->
<g id="node4" class="node">
<title>Node3</title>
<polygon fill="#ffffff" stroke="#bfbfbf" points="348.2964,-56.5 348.2964,-75.5 389.2964,-75.5 389.2964,-56.5 348.2964,-56.5"/>
<text text-anchor="middle" x="368.7964" y="-63.5" font-family="Helvetica,sans-Serif" font-size="10.00" fill="#000000">string</text>
</g>
<!-- Node0&#45;&gt;Node3 -->
<g id="edge3" class="edge">
<title>Node0&#45;&gt;Node3</title>
<path fill="none" stroke="#191970" d="M466.6419,-235.3375C493.2278,-212.4893 552.9594,-153.9102 521.7964,-112 507.1734,-92.3339 439.8378,-77.8999 399.5289,-70.8452"/>
<polygon fill="#191970" stroke="#191970" points="399.8715,-67.3534 389.427,-69.1323 398.7011,-74.2549 399.8715,-67.3534"/>
</g>
<!-- Node4 -->
<g id="node5" class="node">
<title>Node4</title>
<g id="a_node5"><a xlink:href="_common_8h.html" target="_top" xlink:title="uscxml/Common.h">
<polygon fill="#ffffff" stroke="#000000" points="492.2964,-56.5 492.2964,-75.5 591.2964,-75.5 591.2964,-56.5 492.2964,-56.5"/>
<text text-anchor="middle" x="541.7964" y="-63.5" font-family="Helvetica,sans-Serif" font-size="10.00" fill="#000000">uscxml/Common.h</text>
</a>
</g>
</g>
<!-- Node0&#45;&gt;Node4 -->
<g id="edge4" class="edge">
<title>Node0&#45;&gt;Node4</title>
<path fill="none" stroke="#191970" d="M513.933,-240.9349C572.3307,-235.5433 655.7362,-223.6656 675.7964,-199 714.2662,-151.6985 626.0845,-102.9177 574.9928,-79.7806"/>
<polygon fill="#191970" stroke="#191970" points="576.1815,-76.4793 565.6204,-75.6339 573.3492,-82.8807 576.1815,-76.4793"/>
</g>
<!-- Node7 -->
<g id="node8" class="node">
<title>Node7</title>
<g id="a_node8"><a xlink:href="_data_8h.html" target="_top" xlink:title="uscxml/messages/Data.h">
<polygon fill="#ffffff" stroke="#000000" points="254.7964,-174 254.7964,-193 382.7964,-193 382.7964,-174 254.7964,-174"/>
<text text-anchor="middle" x="318.7964" y="-181" font-family="Helvetica,sans-Serif" font-size="10.00" fill="#000000">uscxml/messages/Data.h</text>
</a>
</g>
</g>
<!-- Node0&#45;&gt;Node7 -->
<g id="edge7" class="edge">
<title>Node0&#45;&gt;Node7</title>
<path fill="none" stroke="#191970" d="M433.5464,-235.3906C410.8909,-225.1457 374.8166,-208.8326 349.1674,-197.2339"/>
<polygon fill="#191970" stroke="#191970" points="350.4511,-193.9732 339.8972,-193.0419 347.5668,-200.3514 350.4511,-193.9732"/>
</g>
<!-- Node14 -->
<g id="node15" class="node">
<title>Node14</title>
<g id="a_node15"><a xlink:href="_interpreter_state_8h.html" target="_top" xlink:title="uscxml/interpreter\l/InterpreterState.h">
<polygon fill="#ffffff" stroke="#000000" points="569.2964,-168.5 569.2964,-198.5 666.2964,-198.5 666.2964,-168.5 569.2964,-168.5"/>
<text text-anchor="start" x="577.2964" y="-186.5" font-family="Helvetica,sans-Serif" font-size="10.00" fill="#000000">uscxml/interpreter</text>
<text text-anchor="middle" x="617.7964" y="-175.5" font-family="Helvetica,sans-Serif" font-size="10.00" fill="#000000">/InterpreterState.h</text>
</a>
</g>
</g>
<!-- Node0&#45;&gt;Node14 -->
<g id="edge22" class="edge">
<title>Node0&#45;&gt;Node14</title>
<path fill="none" stroke="#191970" d="M480.2652,-235.3906C503.7551,-226.5279 539.2809,-213.1239 568.3414,-202.1594"/>
<polygon fill="#191970" stroke="#191970" points="569.8015,-205.3494 577.9222,-198.5446 567.3304,-198.8001 569.8015,-205.3494"/>
</g>
<!-- Node5 -->
<g id="node6" class="node">
<title>Node5</title>
<polygon fill="#ffffff" stroke="#bfbfbf" points="467.7964,-.5 467.7964,-19.5 539.7964,-19.5 539.7964,-.5 467.7964,-.5"/>
<text text-anchor="middle" x="503.7964" y="-7.5" font-family="Helvetica,sans-Serif" font-size="10.00" fill="#000000">sys/socket.h</text>
</g>
<!-- Node4&#45;&gt;Node5 -->
<g id="edge5" class="edge">
<title>Node4&#45;&gt;Node5</title>
<path fill="none" stroke="#191970" d="M535.1773,-56.2455C529.8919,-48.4564 522.3423,-37.3308 515.9727,-27.9439"/>
<polygon fill="#191970" stroke="#191970" points="518.8509,-25.9522 510.3397,-19.6427 513.0586,-29.8827 518.8509,-25.9522"/>
</g>
<!-- Node6 -->
<g id="node7" class="node">
<title>Node6</title>
<polygon fill="#ffffff" stroke="#bfbfbf" points="557.7964,-.5 557.7964,-19.5 601.7964,-19.5 601.7964,-.5 557.7964,-.5"/>
<text text-anchor="middle" x="579.7964" y="-7.5" font-family="Helvetica,sans-Serif" font-size="10.00" fill="#000000">cmath</text>
</g>
<!-- Node4&#45;&gt;Node6 -->
<g id="edge6" class="edge">
<title>Node4&#45;&gt;Node6</title>
<path fill="none" stroke="#191970" d="M548.4155,-56.2455C553.701,-48.4564 561.2506,-37.3308 567.6202,-27.9439"/>
<polygon fill="#191970" stroke="#191970" points="570.5343,-29.8827 573.2532,-19.6427 564.742,-25.9522 570.5343,-29.8827"/>
</g>
<!-- Node7&#45;&gt;Node1 -->
<g id="edge10" class="edge">
<title>Node7&#45;&gt;Node1</title>
<path fill="none" stroke="#191970" d="M254.6731,-176.4187C195.4807,-168.6146 113.2966,-154.151 89.7964,-132 77.2125,-120.1385 72.7888,-100.5338 71.3181,-85.7663"/>
<polygon fill="#191970" stroke="#191970" points="74.8013,-85.3864 70.6829,-75.6248 67.8149,-85.8241 74.8013,-85.3864"/>
</g>
<!-- Node7&#45;&gt;Node2 -->
<g id="edge8" class="edge">
<title>Node7&#45;&gt;Node2</title>
<path fill="none" stroke="#191970" d="M257.895,-173.9797C204.4423,-165.0438 124.8341,-150.3237 56.7964,-132 55.318,-131.6018 53.8059,-131.167 52.2863,-130.7087"/>
<polygon fill="#191970" stroke="#191970" points="53.0201,-127.2663 42.4275,-127.485 50.8445,-133.9197 53.0201,-127.2663"/>
</g>
<!-- Node7&#45;&gt;Node4 -->
<g id="edge12" class="edge">
<title>Node7&#45;&gt;Node4</title>
<path fill="none" stroke="#191970" d="M382.9588,-174.2286C434.6639,-165.5202 501.9133,-150.9931 521.7964,-132 534.3528,-120.0058 539.1011,-100.4187 540.8584,-85.6915"/>
<polygon fill="#191970" stroke="#191970" points="544.3582,-85.8388 541.699,-75.5831 537.3822,-85.2586 544.3582,-85.8388"/>
</g>
<!-- Node8 -->
<g id="node9" class="node">
<title>Node8</title>
<polygon fill="#ffffff" stroke="#bfbfbf" points="250.7964,-112.5 250.7964,-131.5 286.7964,-131.5 286.7964,-112.5 250.7964,-112.5"/>
<text text-anchor="middle" x="268.7964" y="-119.5" font-family="Helvetica,sans-Serif" font-size="10.00" fill="#000000">map</text>
</g>
<!-- Node7&#45;&gt;Node8 -->
<g id="edge9" class="edge">
<title>Node7&#45;&gt;Node8</title>
<path fill="none" stroke="#191970" d="M310.9839,-173.8906C303.5424,-164.7376 292.163,-150.7409 283.0972,-139.59"/>
<polygon fill="#191970" stroke="#191970" points="285.7432,-137.2962 276.7191,-131.7449 280.3117,-141.712 285.7432,-137.2962"/>
</g>
<!-- Node9 -->
<g id="node10" class="node">
<title>Node9</title>
<polygon fill="#ffffff" stroke="#bfbfbf" points="450.2964,-112.5 450.2964,-131.5 513.2964,-131.5 513.2964,-112.5 450.2964,-112.5"/>
<text text-anchor="middle" x="481.7964" y="-119.5" font-family="Helvetica,sans-Serif" font-size="10.00" fill="#000000">type_traits</text>
</g>
<!-- Node7&#45;&gt;Node9 -->
<g id="edge11" class="edge">
<title>Node7&#45;&gt;Node9</title>
<path fill="none" stroke="#191970" d="M344.2652,-173.8906C371.8969,-163.4652 416.1834,-146.7559 447.0093,-135.1252"/>
<polygon fill="#191970" stroke="#191970" points="448.3859,-138.3467 456.5065,-131.5419 445.9148,-131.7974 448.3859,-138.3467"/>
</g>
<!-- Node10 -->
<g id="node11" class="node">
<title>Node10</title>
<g id="a_node11"><a xlink:href="_convenience_8h.html" target="_top" xlink:title="uscxml/util/Convenience.h">
<polygon fill="#ffffff" stroke="#000000" points="99.2964,-112.5 99.2964,-131.5 232.2964,-131.5 232.2964,-112.5 99.2964,-112.5"/>
<text text-anchor="middle" x="165.7964" y="-119.5" font-family="Helvetica,sans-Serif" font-size="10.00" fill="#000000">uscxml/util/Convenience.h</text>
</a>
</g>
</g>
<!-- Node7&#45;&gt;Node10 -->
<g id="edge13" class="edge">
<title>Node7&#45;&gt;Node10</title>
<path fill="none" stroke="#191970" d="M294.8902,-173.8906C269.0659,-163.5103 227.7438,-146.9004 198.8259,-135.2766"/>
<polygon fill="#191970" stroke="#191970" points="200.1187,-132.0241 189.5348,-131.5419 197.5079,-138.519 200.1187,-132.0241"/>
</g>
<!-- Node13 -->
<g id="node14" class="node">
<title>Node13</title>
<g id="a_node14"><a xlink:href="_blob_8h.html" target="_top" xlink:title="uscxml/messages/Blob.h">
<polygon fill="#ffffff" stroke="#000000" points="305.2964,-112.5 305.2964,-131.5 432.2964,-131.5 432.2964,-112.5 305.2964,-112.5"/>
<text text-anchor="middle" x="368.7964" y="-119.5" font-family="Helvetica,sans-Serif" font-size="10.00" fill="#000000">uscxml/messages/Blob.h</text>
</a>
</g>
</g>
<!-- Node7&#45;&gt;Node13 -->
<g id="edge18" class="edge">
<title>Node7&#45;&gt;Node13</title>
<path fill="none" stroke="#191970" d="M326.6089,-173.8906C334.0505,-164.7376 345.4298,-150.7409 354.4956,-139.59"/>
<polygon fill="#191970" stroke="#191970" points="357.2812,-141.712 360.8738,-131.7449 351.8497,-137.2962 357.2812,-141.712"/>
</g>
<!-- Node10&#45;&gt;Node3 -->
<g id="edge15" class="edge">
<title>Node10&#45;&gt;Node3</title>
<path fill="none" stroke="#191970" d="M200.6934,-112.3733C239.5504,-101.6541 301.7237,-84.5028 338.5779,-74.3361"/>
<polygon fill="#191970" stroke="#191970" points="339.5518,-77.6983 348.2609,-71.665 337.6902,-70.9504 339.5518,-77.6983"/>
</g>
<!-- Node10&#45;&gt;Node4 -->
<g id="edge14" class="edge">
<title>Node10&#45;&gt;Node4</title>
<path fill="none" stroke="#191970" d="M230.0059,-112.4369C300.6306,-101.9183 413.2121,-85.1509 482.0199,-74.9029"/>
<polygon fill="#191970" stroke="#191970" points="482.8836,-78.3129 492.2589,-73.3779 481.8524,-71.3893 482.8836,-78.3129"/>
</g>
<!-- Node11 -->
<g id="node12" class="node">
<title>Node11</title>
<polygon fill="#ffffff" stroke="#bfbfbf" points="131.2964,-56.5 131.2964,-75.5 170.2964,-75.5 170.2964,-56.5 131.2964,-56.5"/>
<text text-anchor="middle" x="150.7964" y="-63.5" font-family="Helvetica,sans-Serif" font-size="10.00" fill="#000000">limits</text>
</g>
<!-- Node10&#45;&gt;Node11 -->
<g id="edge16" class="edge">
<title>Node10&#45;&gt;Node11</title>
<path fill="none" stroke="#191970" d="M163.1836,-112.2455C161.2048,-104.8579 158.422,-94.4689 155.9952,-85.4087"/>
<polygon fill="#191970" stroke="#191970" points="159.3476,-84.3966 153.3793,-75.6427 152.5859,-86.2078 159.3476,-84.3966"/>
</g>
<!-- Node12 -->
<g id="node13" class="node">
<title>Node12</title>
<polygon fill="#ffffff" stroke="#bfbfbf" points="188.7964,-56.5 188.7964,-75.5 240.7964,-75.5 240.7964,-56.5 188.7964,-56.5"/>
<text text-anchor="middle" x="214.7964" y="-63.5" font-family="Helvetica,sans-Serif" font-size="10.00" fill="#000000">sstream</text>
</g>
<!-- Node10&#45;&gt;Node12 -->
<g id="edge17" class="edge">
<title>Node10&#45;&gt;Node12</title>
<path fill="none" stroke="#191970" d="M174.3316,-112.2455C181.2876,-104.2958 191.2847,-92.8706 199.6016,-83.3656"/>
<polygon fill="#191970" stroke="#191970" points="202.408,-85.4732 206.3591,-75.6427 197.14,-80.8637 202.408,-85.4732"/>
</g>
<!-- Node13&#45;&gt;Node1 -->
<g id="edge20" class="edge">
<title>Node13&#45;&gt;Node1</title>
<path fill="none" stroke="#191970" d="M316.7275,-112.4513C266.7213,-103.2459 189.0608,-88.8577 121.7964,-76 117.2365,-75.1284 112.4493,-74.2031 107.7105,-73.2811"/>
<polygon fill="#191970" stroke="#191970" points="108.0062,-69.7727 97.5205,-71.2896 106.6635,-76.6428 108.0062,-69.7727"/>
</g>
<!-- Node13&#45;&gt;Node3 -->
<g id="edge19" class="edge">
<title>Node13&#45;&gt;Node3</title>
<path fill="none" stroke="#191970" d="M368.7964,-112.2455C368.7964,-104.9382 368.7964,-94.6944 368.7964,-85.7046"/>
<polygon fill="#191970" stroke="#191970" points="372.2965,-85.6426 368.7964,-75.6427 365.2965,-85.6427 372.2965,-85.6426"/>
</g>
<!-- Node13&#45;&gt;Node4 -->
<g id="edge21" class="edge">
<title>Node13&#45;&gt;Node4</title>
<path fill="none" stroke="#191970" d="M398.5362,-112.3733C427.3035,-103.0613 471.0664,-88.8953 502.652,-78.671"/>
<polygon fill="#191970" stroke="#191970" points="504.0087,-81.9107 512.4448,-75.5011 501.8529,-75.251 504.0087,-81.9107"/>
</g>
<!-- Node14&#45;&gt;Node4 -->
<g id="edge23" class="edge">
<title>Node14&#45;&gt;Node4</title>
<path fill="none" stroke="#191970" d="M615.0847,-168.2446C611.8505,-153.0278 605.3685,-129.4641 593.7964,-112 586.0984,-100.3825 574.7464,-89.8755 564.6114,-81.8457"/>
<polygon fill="#191970" stroke="#191970" points="566.5805,-78.9469 556.4912,-75.7134 562.362,-84.533 566.5805,-78.9469"/>
</g>
</g>
</svg>
