<?xml version="1.0" encoding="UTF-8" standalone="no"?>
<!DOCTYPE svg PUBLIC "-//W3C//DTD SVG 1.1//EN"
 "http://www.w3.org/Graphics/SVG/1.1/DTD/svg11.dtd">
<!-- Generated by graphviz version 2.38.0 (20140413.2041)
 -->
<!-- Title: interpreter/MicroStep.h Pages: 1 -->
<svg width="424pt" height="207pt"
 viewBox="0.00 0.00 424.00 207.00" xmlns="http://www.w3.org/2000/svg" xmlns:xlink="http://www.w3.org/1999/xlink">
<g id="graph0" class="graph" transform="scale(1 1) rotate(0) translate(4 203)">
<title>interpreter/MicroStep.h</title>
<polygon fill="white" stroke="none" points="-4,4 -4,-203 420,-203 420,4 -4,4"/>
<!-- Node1 -->
<g id="node1" class="node"><title>Node1</title>
<polygon fill="#bfbfbf" stroke="black" points="119.5,-179.5 119.5,-198.5 237.5,-198.5 237.5,-179.5 119.5,-179.5"/>
<text text-anchor="middle" x="178.5" y="-186.5" font-family="Helvetica,sans-Serif" font-size="10.00">interpreter/MicroStep.h</text>
</g>
<!-- Node2 -->
<g id="node2" class="node"><title>Node2</title>
<polygon fill="white" stroke="#bfbfbf" points="0,-118 0,-137 53,-137 53,-118 0,-118"/>
<text text-anchor="middle" x="26.5" y="-125" font-family="Helvetica,sans-Serif" font-size="10.00">memory</text>
</g>
<!-- Node1&#45;&gt;Node2 -->
<g id="edge1" class="edge"><title>Node1&#45;&gt;Node2</title>
<path fill="none" stroke="midnightblue" d="M155.565,-179.377C131.927,-170.444 94.0395,-155.995 61.5,-143 59.8623,-142.346 58.1837,-141.67 56.4907,-140.983"/>
<polygon fill="midnightblue" stroke="midnightblue" points="57.4027,-137.575 46.8223,-137.022 54.7489,-144.052 57.4027,-137.575"/>
</g>
<!-- Node3 -->
<g id="node3" class="node"><title>Node3</title>
<polygon fill="white" stroke="#bfbfbf" points="71,-118 71,-137 100,-137 100,-118 71,-118"/>
<text text-anchor="middle" x="85.5" y="-125" font-family="Helvetica,sans-Serif" font-size="10.00">list</text>
</g>
<!-- Node1&#45;&gt;Node3 -->
<g id="edge2" class="edge"><title>Node1&#45;&gt;Node3</title>
<path fill="none" stroke="midnightblue" d="M165.175,-179.475C150.12,-169.843 125.384,-154.017 107.463,-142.552"/>
<polygon fill="midnightblue" stroke="midnightblue" points="109.11,-139.45 98.7999,-137.009 105.337,-145.347 109.11,-139.45"/>
</g>
<!-- Node4 -->
<g id="node4" class="node"><title>Node4</title>
<polygon fill="white" stroke="#bfbfbf" points="118,-118 118,-137 159,-137 159,-118 118,-118"/>
<text text-anchor="middle" x="138.5" y="-125" font-family="Helvetica,sans-Serif" font-size="10.00">string</text>
</g>
<!-- Node1&#45;&gt;Node4 -->
<g id="edge3" class="edge"><title>Node1&#45;&gt;Node4</title>
<path fill="none" stroke="midnightblue" d="M172.769,-179.475C166.828,-170.638 157.383,-156.589 149.912,-145.475"/>
<polygon fill="midnightblue" stroke="midnightblue" points="152.704,-143.355 144.22,-137.009 146.895,-147.261 152.704,-143.355"/>
</g>
<!-- Node5 -->
<g id="node5" class="node"><title>Node5</title>
<polygon fill="white" stroke="#bfbfbf" points="177,-118 177,-137 262,-137 262,-118 177,-118"/>
<text text-anchor="middle" x="219.5" y="-125" font-family="Helvetica,sans-Serif" font-size="10.00">uscxml/config.h</text>
</g>
<!-- Node1&#45;&gt;Node5 -->
<g id="edge4" class="edge"><title>Node1&#45;&gt;Node5</title>
<path fill="none" stroke="midnightblue" d="M184.374,-179.475C190.463,-170.638 200.145,-156.589 207.803,-145.475"/>
<polygon fill="midnightblue" stroke="midnightblue" points="210.844,-147.229 213.637,-137.009 205.08,-143.258 210.844,-147.229"/>
</g>
<!-- Node6 -->
<g id="node6" class="node"><title>Node6</title>
<g id="a_node6"><a xlink:href="_common_8h.html" target="_top" xlink:title="uscxml/Common.h">
<polygon fill="white" stroke="black" points="279,-56.5 279,-75.5 378,-75.5 378,-56.5 279,-56.5"/>
<text text-anchor="middle" x="328.5" y="-63.5" font-family="Helvetica,sans-Serif" font-size="10.00">uscxml/Common.h</text>
</a>
</g>
</g>
<!-- Node1&#45;&gt;Node6 -->
<g id="edge5" class="edge"><title>Node1&#45;&gt;Node6</title>
<path fill="none" stroke="midnightblue" d="M204.06,-179.436C223.88,-171.944 251.286,-159.649 271.5,-143 291.72,-126.346 308.791,-101.103 318.837,-84.3389"/>
<polygon fill="midnightblue" stroke="midnightblue" points="321.928,-85.985 323.911,-75.5773 315.871,-82.477 321.928,-85.985"/>
</g>
<!-- Node9 -->
<g id="node9" class="node"><title>Node9</title>
<g id="a_node9"><a xlink:href="_interpreter_state_8h.html" target="_top" xlink:title="uscxml/interpreter\l/InterpreterState.h">
<polygon fill="white" stroke="black" points="319,-112.5 319,-142.5 416,-142.5 416,-112.5 319,-112.5"/>
<text text-anchor="start" x="327" y="-130.5" font-family="Helvetica,sans-Serif" font-size="10.00">uscxml/interpreter</text>
<text text-anchor="middle" x="367.5" y="-119.5" font-family="Helvetica,sans-Serif" font-size="10.00">/InterpreterState.h</text>
</a>
</g>
</g>
<!-- Node1&#45;&gt;Node9 -->
<g id="edge8" class="edge"><title>Node1&#45;&gt;Node9</title>
<path fill="none" stroke="midnightblue" d="M205.579,-179.475C233.569,-170.664 278.024,-156.668 313.278,-145.57"/>
<polygon fill="midnightblue" stroke="midnightblue" points="314.469,-148.864 322.956,-142.523 312.367,-142.187 314.469,-148.864"/>
</g>
<!-- Node7 -->
<g id="node7" class="node"><title>Node7</title>
<polygon fill="white" stroke="#bfbfbf" points="254.5,-0.5 254.5,-19.5 326.5,-19.5 326.5,-0.5 254.5,-0.5"/>
<text text-anchor="middle" x="290.5" y="-7.5" font-family="Helvetica,sans-Serif" font-size="10.00">sys/socket.h</text>
</g>
<!-- Node6&#45;&gt;Node7 -->
<g id="edge6" class="edge"><title>Node6&#45;&gt;Node7</title>
<path fill="none" stroke="midnightblue" d="M322.225,-56.083C316.858,-48.4554 308.982,-37.2645 302.421,-27.9408"/>
<polygon fill="midnightblue" stroke="midnightblue" points="305.275,-25.9149 296.658,-19.7511 299.551,-29.9434 305.275,-25.9149"/>
</g>
<!-- Node8 -->
<g id="node8" class="node"><title>Node8</title>
<polygon fill="white" stroke="#bfbfbf" points="344.5,-0.5 344.5,-19.5 388.5,-19.5 388.5,-0.5 344.5,-0.5"/>
<text text-anchor="middle" x="366.5" y="-7.5" font-family="Helvetica,sans-Serif" font-size="10.00">cmath</text>
</g>
<!-- Node6&#45;&gt;Node8 -->
<g id="edge7" class="edge"><title>Node6&#45;&gt;Node8</title>
<path fill="none" stroke="midnightblue" d="M334.775,-56.083C340.142,-48.4554 348.018,-37.2645 354.579,-27.9408"/>
<polygon fill="midnightblue" stroke="midnightblue" points="357.449,-29.9434 360.342,-19.7511 351.725,-25.9149 357.449,-29.9434"/>
</g>
<!-- Node9&#45;&gt;Node6 -->
<g id="edge9" class="edge"><title>Node9&#45;&gt;Node6</title>
<path fill="none" stroke="midnightblue" d="M358.258,-112.399C352.707,-103.932 345.607,-93.0991 339.734,-84.1393"/>
<polygon fill="midnightblue" stroke="midnightblue" points="342.584,-82.1026 334.175,-75.6578 336.73,-85.94 342.584,-82.1026"/>
</g>
</g>
</svg>
