<?xml version="1.0" encoding="UTF-8" standalone="no"?>
<!DOCTYPE svg PUBLIC "-//W3C//DTD SVG 1.1//EN"
 "http://www.w3.org/Graphics/SVG/1.1/DTD/svg11.dtd">
<!-- Generated by graphviz version 2.38.0 (20140413.2041)
 -->
<!-- Title: interpreter/MicroStepImpl.h Pages: 1 -->
<!--zoomable 341 -->
<svg id="main" version="1.1" xmlns="http://www.w3.org/2000/svg" xmlns:xlink="http://www.w3.org/1999/xlink" xml:space="preserve" onload="init(evt)">
<style type="text/css"><![CDATA[
.edge:hover path { stroke: red; }
.edge:hover polygon { stroke: red; fill: red; }
]]></style>
<script type="text/javascript"><![CDATA[
var edges = document.getElementsByTagName('g');
if (edges && edges.length) {
  for (var i=0;i<edges.length;i++) {
    if (edges[i].id.substr(0,4)=='edge') {
      edges[i].setAttribute('class','edge');
    }
  }
}
]]></script>
        <defs>
                <circle id="rim" cx="0" cy="0" r="7"/>
                <circle id="rim2" cx="0" cy="0" r="3.5"/>
                <g id="zoomPlus">
                        <use xlink:href="#rim" fill="#404040">
                                <set attributeName="fill" to="#808080" begin="zoomplus.mouseover" end="zoomplus.mouseout"/>
                        </use>
                        <path d="M-4,0h8M0,-4v8" fill="none" stroke="white" stroke-width="1.5" pointer-events="none"/>
                </g>
                <g id="zoomMin">
                        <use xlink:href="#rim" fill="#404040">
                                <set attributeName="fill" to="#808080" begin="zoomminus.mouseover" end="zoomminus.mouseout"/>
                        </use>
                        <path d="M-4,0h8" fill="none" stroke="white" stroke-width="1.5" pointer-events="none"/>
                </g>
                <g id="dirArrow">
                        <path fill="none" stroke="white" stroke-width="1.5" d="M0,-3.0v7 M-2.5,-0.5L0,-3.0L2.5,-0.5"/>
                </g>
               <g id="resetDef">
                       <use xlink:href="#rim2" fill="#404040">
                               <set attributeName="fill" to="#808080" begin="reset.mouseover" end="reset.mouseout"/>
                       </use>
               </g>
        </defs>

<script type="text/javascript">
var viewWidth = 1951;
var viewHeight = 341;
var sectionId = 'dynsection-1';
</script>
<script xlink:href="svgpan.js"/>
<svg id="graph" class="graph">
<g id="viewport">
<title>interpreter/MicroStepImpl.h</title>
<polygon fill="white" stroke="none" points="-4,4 -4,-337 1946.5,-337 1946.5,4 -4,4"/>
<!-- Node1 -->
<g id="node1" class="node"><title>Node1</title>
<polygon fill="#bfbfbf" stroke="black" points="1657.5,-313.5 1657.5,-332.5 1794.5,-332.5 1794.5,-313.5 1657.5,-313.5"/>
<text text-anchor="middle" x="1726" y="-320.5" font-family="Helvetica,sans-Serif" font-size="10.00">interpreter/MicroStepImpl.h</text>
</g>
<!-- Node2 -->
<g id="node2" class="node"><title>Node2</title>
<g id="a_node2"><a xlink:href="_fast_micro_step_8h.html" target="_top" xlink:title="interpreter/FastMicroStep.h">
<polygon fill="white" stroke="black" points="1657,-257.5 1657,-276.5 1795,-276.5 1795,-257.5 1657,-257.5"/>
<text text-anchor="middle" x="1726" y="-264.5" font-family="Helvetica,sans-Serif" font-size="10.00">interpreter/FastMicroStep.h</text>
</a>
</g>
</g>
<!-- Node1&#45;&gt;Node2 -->
<g id="edge1" class="edge"><title>Node1&#45;&gt;Node2</title>
<path fill="none" stroke="midnightblue" d="M1726,-302.805C1726,-293.91 1726,-283.78 1726,-276.751"/>
<polygon fill="midnightblue" stroke="midnightblue" points="1722.5,-303.083 1726,-313.083 1729.5,-303.083 1722.5,-303.083"/>
</g>
<!-- Node5 -->
<g id="node5" class="node"><title>Node5</title>
<g id="a_node5"><a xlink:href="_interpreter_impl_8h.html" target="_top" xlink:title="interpreter/InterpreterImpl.h">
<polygon fill="white" stroke="black" points="721,-257.5 721,-276.5 859,-276.5 859,-257.5 721,-257.5"/>
<text text-anchor="middle" x="790" y="-264.5" font-family="Helvetica,sans-Serif" font-size="10.00">interpreter/InterpreterImpl.h</text>
</a>
</g>
</g>
<!-- Node1&#45;&gt;Node5 -->
<g id="edge4" class="edge"><title>Node1&#45;&gt;Node5</title>
<path fill="none" stroke="midnightblue" d="M1646.99,-317.442C1467.09,-307.063 1029.38,-281.81 859.244,-271.995"/>
<polygon fill="midnightblue" stroke="midnightblue" points="1646.99,-320.947 1657.17,-318.029 1647.39,-313.959 1646.99,-320.947"/>
</g>
<!-- Node37 -->
<g id="node37" class="node"><title>Node37</title>
<g id="a_node37"><a xlink:href="_micro_step_8cpp.html" target="_top" xlink:title="interpreter/MicroStep.cpp">
<polygon fill="white" stroke="black" points="1813.5,-257.5 1813.5,-276.5 1942.5,-276.5 1942.5,-257.5 1813.5,-257.5"/>
<text text-anchor="middle" x="1878" y="-264.5" font-family="Helvetica,sans-Serif" font-size="10.00">interpreter/MicroStep.cpp</text>
</a>
</g>
</g>
<!-- Node1&#45;&gt;Node37 -->
<g id="edge44" class="edge"><title>Node1&#45;&gt;Node37</title>
<path fill="none" stroke="midnightblue" d="M1759.67,-310.039C1788.27,-299.879 1828.61,-285.546 1854.03,-276.516"/>
<polygon fill="midnightblue" stroke="midnightblue" points="1758.34,-306.798 1750.08,-313.444 1760.68,-313.394 1758.34,-306.798"/>
</g>
<!-- Node3 -->
<g id="node3" class="node"><title>Node3</title>
<g id="a_node3"><a xlink:href="_fast_micro_step_8cpp.html" target="_top" xlink:title="interpreter/FastMicroStep.cpp">
<polygon fill="white" stroke="black" points="1652,-201.5 1652,-220.5 1800,-220.5 1800,-201.5 1652,-201.5"/>
<text text-anchor="middle" x="1726" y="-208.5" font-family="Helvetica,sans-Serif" font-size="10.00">interpreter/FastMicroStep.cpp</text>
</a>
</g>
</g>
<!-- Node2&#45;&gt;Node3 -->
<g id="edge2" class="edge"><title>Node2&#45;&gt;Node3</title>
<path fill="none" stroke="midnightblue" d="M1726,-246.805C1726,-237.91 1726,-227.78 1726,-220.751"/>
<polygon fill="midnightblue" stroke="midnightblue" points="1722.5,-247.083 1726,-257.083 1729.5,-247.083 1722.5,-247.083"/>
</g>
<!-- Node4 -->
<g id="node4" class="node"><title>Node4</title>
<g id="a_node4"><a xlink:href="_interpreter_impl_8cpp.html" target="_top" xlink:title="interpreter/InterpreterImpl.cpp">
<polygon fill="white" stroke="black" points="1753.5,-140 1753.5,-159 1902.5,-159 1902.5,-140 1753.5,-140"/>
<text text-anchor="middle" x="1828" y="-147" font-family="Helvetica,sans-Serif" font-size="10.00">interpreter/InterpreterImpl.cpp</text>
</a>
</g>
</g>
<!-- Node2&#45;&gt;Node4 -->
<g id="edge3" class="edge"><title>Node2&#45;&gt;Node4</title>
<path fill="none" stroke="midnightblue" d="M1763.01,-253.612C1779.27,-246.44 1797.28,-235.837 1809,-221 1823.62,-202.499 1827.02,-173.666 1827.79,-159.281"/>
<polygon fill="midnightblue" stroke="midnightblue" points="1761.62,-250.4 1753.71,-257.445 1764.29,-256.873 1761.62,-250.4"/>
</g>
<!-- Node5&#45;&gt;Node4 -->
<g id="edge12" class="edge"><title>Node5&#45;&gt;Node4</title>
<path fill="none" stroke="midnightblue" d="M869.245,-265.801C1045.89,-264.68 1467.14,-258.073 1604,-221 1622.8,-215.907 1624.84,-208.047 1643,-201 1691.26,-182.271 1749.15,-167.662 1787.17,-159.079"/>
<polygon fill="midnightblue" stroke="midnightblue" points="869.217,-262.301 859.238,-265.86 869.259,-269.301 869.217,-262.301"/>
</g>
<!-- Node6 -->
<g id="node6" class="node"><title>Node6</title>
<g id="a_node6"><a xlink:href="_breakpoint_8cpp.html" target="_top" xlink:title="debug/Breakpoint.cpp">
<polygon fill="white" stroke="black" points="309,-201.5 309,-220.5 423,-220.5 423,-201.5 309,-201.5"/>
<text text-anchor="middle" x="366" y="-208.5" font-family="Helvetica,sans-Serif" font-size="10.00">debug/Breakpoint.cpp</text>
</a>
</g>
</g>
<!-- Node5&#45;&gt;Node6 -->
<g id="edge5" class="edge"><title>Node5&#45;&gt;Node6</title>
<path fill="none" stroke="midnightblue" d="M712.864,-256.176C629.255,-245.528 497.793,-228.785 423.022,-219.262"/>
<polygon fill="midnightblue" stroke="midnightblue" points="712.454,-259.652 722.816,-257.444 713.338,-252.708 712.454,-259.652"/>
</g>
<!-- Node7 -->
<g id="node7" class="node"><title>Node7</title>
<g id="a_node7"><a xlink:href="_debugger_8h.html" target="_top" xlink:title="debug/Debugger.h">
<polygon fill="white" stroke="black" points="167.5,-201.5 167.5,-220.5 266.5,-220.5 266.5,-201.5 167.5,-201.5"/>
<text text-anchor="middle" x="217" y="-208.5" font-family="Helvetica,sans-Serif" font-size="10.00">debug/Debugger.h</text>
</a>
</g>
</g>
<!-- Node5&#45;&gt;Node7 -->
<g id="edge6" class="edge"><title>Node5&#45;&gt;Node7</title>
<path fill="none" stroke="midnightblue" d="M710.98,-259.145C614.096,-250.648 444.901,-235.509 300,-221 289.183,-219.917 277.581,-218.696 266.581,-217.511"/>
<polygon fill="midnightblue" stroke="midnightblue" points="710.723,-262.636 720.99,-260.022 711.334,-255.663 710.723,-262.636"/>
</g>
<!-- Node12 -->
<g id="node12" class="node"><title>Node12</title>
<g id="a_node12"><a xlink:href="_interpreter_issue_8cpp.html" target="_top" xlink:title="debug/InterpreterIssue.cpp">
<polygon fill="white" stroke="black" points="479,-201.5 479,-220.5 615,-220.5 615,-201.5 479,-201.5"/>
<text text-anchor="middle" x="547" y="-208.5" font-family="Helvetica,sans-Serif" font-size="10.00">debug/InterpreterIssue.cpp</text>
</a>
</g>
</g>
<!-- Node5&#45;&gt;Node12 -->
<g id="edge11" class="edge"><title>Node5&#45;&gt;Node12</title>
<path fill="none" stroke="midnightblue" d="M741.478,-255.217C695.56,-245.013 627.553,-229.901 585.324,-220.516"/>
<polygon fill="midnightblue" stroke="midnightblue" points="740.975,-258.691 751.496,-257.444 742.493,-251.858 740.975,-258.691"/>
</g>
<!-- Node13 -->
<g id="node13" class="node"><title>Node13</title>
<g id="a_node13"><a xlink:href="_interpreter_8cpp.html" target="_top" xlink:title="Interpreter.cpp">
<polygon fill="white" stroke="black" points="633,-201.5 633,-220.5 715,-220.5 715,-201.5 633,-201.5"/>
<text text-anchor="middle" x="674" y="-208.5" font-family="Helvetica,sans-Serif" font-size="10.00">Interpreter.cpp</text>
</a>
</g>
</g>
<!-- Node5&#45;&gt;Node13 -->
<g id="edge13" class="edge"><title>Node5&#45;&gt;Node13</title>
<path fill="none" stroke="midnightblue" d="M762.28,-253.096C740.608,-243.007 711.098,-229.27 692.295,-220.516"/>
<polygon fill="midnightblue" stroke="midnightblue" points="761.077,-256.396 771.619,-257.444 764.031,-250.05 761.077,-256.396"/>
</g>
<!-- Node14 -->
<g id="node14" class="node"><title>Node14</title>
<g id="a_node14"><a xlink:href="_u_s_c_x_m_l_invoker_8h.html" target="_top" xlink:title="plugins/invoker/scxml\l/USCXMLInvoker.h">
<polygon fill="white" stroke="black" points="1367,-134.5 1367,-164.5 1479,-164.5 1479,-134.5 1367,-134.5"/>
<text text-anchor="start" x="1375" y="-152.5" font-family="Helvetica,sans-Serif" font-size="10.00">plugins/invoker/scxml</text>
<text text-anchor="middle" x="1423" y="-141.5" font-family="Helvetica,sans-Serif" font-size="10.00">/USCXMLInvoker.h</text>
</a>
</g>
</g>
<!-- Node5&#45;&gt;Node14 -->
<g id="edge14" class="edge"><title>Node5&#45;&gt;Node14</title>
<path fill="none" stroke="midnightblue" d="M869.446,-261.451C951.032,-255.767 1081.36,-243.87 1192,-221 1261.19,-206.697 1339.37,-180.68 1384.74,-164.566"/>
<polygon fill="midnightblue" stroke="midnightblue" points="868.989,-257.974 859.25,-262.146 869.465,-264.957 868.989,-257.974"/>
</g>
<!-- Node16 -->
<g id="node16" class="node"><title>Node16</title>
<g id="a_node16"><a xlink:href="_invoker_impl_8h.html" target="_top" xlink:title="plugins/InvokerImpl.h">
<polygon fill="white" stroke="black" points="1484.5,-201.5 1484.5,-220.5 1595.5,-220.5 1595.5,-201.5 1484.5,-201.5"/>
<text text-anchor="middle" x="1540" y="-208.5" font-family="Helvetica,sans-Serif" font-size="10.00">plugins/InvokerImpl.h</text>
</a>
</g>
</g>
<!-- Node5&#45;&gt;Node16 -->
<g id="edge16" class="edge"><title>Node5&#45;&gt;Node16</title>
<path fill="none" stroke="midnightblue" d="M869.45,-260.28C1022.12,-249.288 1352.96,-225.467 1484.47,-215.998"/>
<polygon fill="midnightblue" stroke="midnightblue" points="868.937,-256.807 859.214,-261.017 869.439,-263.789 868.937,-256.807"/>
</g>
<!-- Node20 -->
<g id="node20" class="node"><title>Node20</title>
<g id="a_node20"><a xlink:href="_basic_h_t_t_p_i_o_processor_8h.html" target="_top" xlink:title="plugins/ioprocessor\l/basichttp/BasicHTTPIOProcessor.h">
<polygon fill="white" stroke="black" points="425.5,-134.5 425.5,-164.5 602.5,-164.5 602.5,-134.5 425.5,-134.5"/>
<text text-anchor="start" x="433.5" y="-152.5" font-family="Helvetica,sans-Serif" font-size="10.00">plugins/ioprocessor</text>
<text text-anchor="middle" x="514" y="-141.5" font-family="Helvetica,sans-Serif" font-size="10.00">/basichttp/BasicHTTPIOProcessor.h</text>
</a>
</g>
</g>
<!-- Node5&#45;&gt;Node20 -->
<g id="edge22" class="edge"><title>Node5&#45;&gt;Node20</title>
<path fill="none" stroke="midnightblue" d="M710.853,-266.263C626.396,-264.657 500.592,-256.195 470,-221 454.572,-203.251 476.629,-179.523 494.69,-164.625"/>
<polygon fill="midnightblue" stroke="midnightblue" points="710.883,-269.764 720.938,-266.427 710.996,-262.765 710.883,-269.764"/>
</g>
<!-- Node22 -->
<g id="node22" class="node"><title>Node22</title>
<g id="a_node22"><a xlink:href="_s_c_x_m_l_i_o_processor_8cpp.html" target="_top" xlink:title="plugins/ioprocessor\l/scxml/SCXMLIOProcessor.cpp">
<polygon fill="white" stroke="black" points="639.5,-67.5 639.5,-97.5 796.5,-97.5 796.5,-67.5 639.5,-67.5"/>
<text text-anchor="start" x="647.5" y="-85.5" font-family="Helvetica,sans-Serif" font-size="10.00">plugins/ioprocessor</text>
<text text-anchor="middle" x="718" y="-74.5" font-family="Helvetica,sans-Serif" font-size="10.00">/scxml/SCXMLIOProcessor.cpp</text>
</a>
</g>
</g>
<!-- Node5&#45;&gt;Node22 -->
<g id="edge24" class="edge"><title>Node5&#45;&gt;Node22</title>
<path fill="none" stroke="midnightblue" d="M775.737,-249.16C763.158,-235.037 743.794,-214.99 724,-201 694.133,-179.89 669.397,-196.007 650,-165 642.693,-153.319 643.809,-146.309 650,-134 657.995,-118.104 673.624,-105.953 687.884,-97.5578"/>
<polygon fill="midnightblue" stroke="midnightblue" points="773.428,-251.839 782.635,-257.081 778.707,-247.242 773.428,-251.839"/>
</g>
<!-- Node23 -->
<g id="node23" class="node"><title>Node23</title>
<g id="a_node23"><a xlink:href="_i_o_processor_impl_8h.html" target="_top" xlink:title="plugins/IOProcessorImpl.h">
<polygon fill="white" stroke="black" points="771,-201.5 771,-220.5 905,-220.5 905,-201.5 771,-201.5"/>
<text text-anchor="middle" x="838" y="-208.5" font-family="Helvetica,sans-Serif" font-size="10.00">plugins/IOProcessorImpl.h</text>
</a>
</g>
</g>
<!-- Node5&#45;&gt;Node23 -->
<g id="edge25" class="edge"><title>Node5&#45;&gt;Node23</title>
<path fill="none" stroke="midnightblue" d="M804.728,-249.431C813.14,-239.967 823.349,-228.483 830.221,-220.751"/>
<polygon fill="midnightblue" stroke="midnightblue" points="801.954,-247.284 797.926,-257.083 807.186,-251.934 801.954,-247.284"/>
</g>
<!-- Node26 -->
<g id="node26" class="node"><title>Node26</title>
<g id="a_node26"><a xlink:href="_transformer_8h.html" target="_top" xlink:title="transform/Transformer.h">
<polygon fill="white" stroke="black" points="1059,-201.5 1059,-220.5 1183,-220.5 1183,-201.5 1059,-201.5"/>
<text text-anchor="middle" x="1121" y="-208.5" font-family="Helvetica,sans-Serif" font-size="10.00">transform/Transformer.h</text>
</a>
</g>
</g>
<!-- Node5&#45;&gt;Node26 -->
<g id="edge30" class="edge"><title>Node5&#45;&gt;Node26</title>
<path fill="none" stroke="midnightblue" d="M852.579,-255.791C915.124,-245.587 1010.19,-230.078 1068.8,-220.516"/>
<polygon fill="midnightblue" stroke="midnightblue" points="851.754,-252.379 842.448,-257.444 852.881,-259.288 851.754,-252.379"/>
</g>
<!-- Node8 -->
<g id="node8" class="node"><title>Node8</title>
<g id="a_node8"><a xlink:href="_debugger_8cpp.html" target="_top" xlink:title="debug/Debugger.cpp">
<polygon fill="white" stroke="black" points="0,-140 0,-159 110,-159 110,-140 0,-140"/>
<text text-anchor="middle" x="55" y="-147" font-family="Helvetica,sans-Serif" font-size="10.00">debug/Debugger.cpp</text>
</a>
</g>
</g>
<!-- Node7&#45;&gt;Node8 -->
<g id="edge7" class="edge"><title>Node7&#45;&gt;Node8</title>
<path fill="none" stroke="midnightblue" d="M184.145,-197.933C152.658,-186.368 105.937,-169.208 78.1676,-159.009"/>
<polygon fill="midnightblue" stroke="midnightblue" points="183.196,-201.313 193.789,-201.475 185.609,-194.742 183.196,-201.313"/>
</g>
<!-- Node9 -->
<g id="node9" class="node"><title>Node9</title>
<g id="a_node9"><a xlink:href="_debugger_servlet_8h.html" target="_top" xlink:title="debug/DebuggerServlet.h">
<polygon fill="white" stroke="black" points="128,-140 128,-159 258,-159 258,-140 128,-140"/>
<text text-anchor="middle" x="193" y="-147" font-family="Helvetica,sans-Serif" font-size="10.00">debug/DebuggerServlet.h</text>
</a>
</g>
</g>
<!-- Node7&#45;&gt;Node9 -->
<g id="edge8" class="edge"><title>Node7&#45;&gt;Node9</title>
<path fill="none" stroke="midnightblue" d="M209.738,-191.997C205.323,-181.05 199.887,-167.575 196.432,-159.009"/>
<polygon fill="midnightblue" stroke="midnightblue" points="206.575,-193.51 213.561,-201.475 213.066,-190.892 206.575,-193.51"/>
</g>
<!-- Node11 -->
<g id="node11" class="node"><title>Node11</title>
<g id="a_node11"><a xlink:href="_debug_session_8cpp.html" target="_top" xlink:title="debug/DebugSession.cpp">
<polygon fill="white" stroke="black" points="276.5,-140 276.5,-159 407.5,-159 407.5,-140 276.5,-140"/>
<text text-anchor="middle" x="342" y="-147" font-family="Helvetica,sans-Serif" font-size="10.00">debug/DebugSession.cpp</text>
</a>
</g>
</g>
<!-- Node7&#45;&gt;Node11 -->
<g id="edge10" class="edge"><title>Node7&#45;&gt;Node11</title>
<path fill="none" stroke="midnightblue" d="M243.945,-197.174C268.2,-185.629 303.161,-168.987 324.124,-159.009"/>
<polygon fill="midnightblue" stroke="midnightblue" points="242.434,-194.017 234.909,-201.475 245.443,-200.337 242.434,-194.017"/>
</g>
<!-- Node10 -->
<g id="node10" class="node"><title>Node10</title>
<g id="a_node10"><a xlink:href="_debugger_servlet_8cpp.html" target="_top" xlink:title="debug/DebuggerServlet.cpp">
<polygon fill="white" stroke="black" points="122.5,-73 122.5,-92 263.5,-92 263.5,-73 122.5,-73"/>
<text text-anchor="middle" x="193" y="-80" font-family="Helvetica,sans-Serif" font-size="10.00">debug/DebuggerServlet.cpp</text>
</a>
</g>
</g>
<!-- Node9&#45;&gt;Node10 -->
<g id="edge9" class="edge"><title>Node9&#45;&gt;Node10</title>
<path fill="none" stroke="midnightblue" d="M193,-129.537C193,-117.17 193,-101.62 193,-92.1273"/>
<polygon fill="midnightblue" stroke="midnightblue" points="189.5,-129.734 193,-139.734 196.5,-129.734 189.5,-129.734"/>
</g>
<!-- Node15 -->
<g id="node15" class="node"><title>Node15</title>
<g id="a_node15"><a xlink:href="_u_s_c_x_m_l_invoker_8cpp.html" target="_top" xlink:title="plugins/invoker/scxml\l/USCXMLInvoker.cpp">
<polygon fill="white" stroke="black" points="1495.5,-67.5 1495.5,-97.5 1608.5,-97.5 1608.5,-67.5 1495.5,-67.5"/>
<text text-anchor="start" x="1503.5" y="-85.5" font-family="Helvetica,sans-Serif" font-size="10.00">plugins/invoker/scxml</text>
<text text-anchor="middle" x="1552" y="-74.5" font-family="Helvetica,sans-Serif" font-size="10.00">/USCXMLInvoker.cpp</text>
</a>
</g>
</g>
<!-- Node14&#45;&gt;Node15 -->
<g id="edge15" class="edge"><title>Node14&#45;&gt;Node15</title>
<path fill="none" stroke="midnightblue" d="M1460.01,-129.853C1480.4,-119.576 1505.31,-107.025 1524.06,-97.5765"/>
<polygon fill="midnightblue" stroke="midnightblue" points="1458.35,-126.77 1450.99,-134.396 1461.5,-133.022 1458.35,-126.77"/>
</g>
<!-- Node16&#45;&gt;Node4 -->
<g id="edge17" class="edge"><title>Node16&#45;&gt;Node4</title>
<path fill="none" stroke="midnightblue" d="M1591.3,-199.402C1647.13,-187.867 1735.31,-169.65 1786.81,-159.009"/>
<polygon fill="midnightblue" stroke="midnightblue" points="1590.35,-196.024 1581.26,-201.475 1591.76,-202.879 1590.35,-196.024"/>
</g>
<!-- Node16&#45;&gt;Node14 -->
<g id="edge20" class="edge"><title>Node16&#45;&gt;Node14</title>
<path fill="none" stroke="midnightblue" d="M1514.32,-196.938C1495.45,-187.347 1469.87,-174.334 1450.57,-164.523"/>
<polygon fill="midnightblue" stroke="midnightblue" points="1512.74,-200.062 1523.24,-201.475 1515.91,-193.822 1512.74,-200.062"/>
</g>
<!-- Node17 -->
<g id="node17" class="node"><title>Node17</title>
<g id="a_node17"><a xlink:href="_dir_mon_invoker_8h.html" target="_top" xlink:title="plugins/invoker/dirmon\l/DirMonInvoker.h">
<polygon fill="white" stroke="black" points="1497.5,-134.5 1497.5,-164.5 1614.5,-164.5 1614.5,-134.5 1497.5,-134.5"/>
<text text-anchor="start" x="1505.5" y="-152.5" font-family="Helvetica,sans-Serif" font-size="10.00">plugins/invoker/dirmon</text>
<text text-anchor="middle" x="1556" y="-141.5" font-family="Helvetica,sans-Serif" font-size="10.00">/DirMonInvoker.h</text>
</a>
</g>
</g>
<!-- Node16&#45;&gt;Node17 -->
<g id="edge18" class="edge"><title>Node16&#45;&gt;Node17</title>
<path fill="none" stroke="midnightblue" d="M1544.89,-191.816C1547.25,-183.041 1550.04,-172.676 1552.23,-164.523"/>
<polygon fill="midnightblue" stroke="midnightblue" points="1541.51,-190.909 1542.29,-201.475 1548.27,-192.727 1541.51,-190.909"/>
</g>
<!-- Node19 -->
<g id="node19" class="node"><title>Node19</title>
<g id="a_node19"><a xlink:href="_invoker_8cpp.html" target="_top" xlink:title="plugins/Invoker.cpp">
<polygon fill="white" stroke="black" points="1632.5,-140 1632.5,-159 1735.5,-159 1735.5,-140 1632.5,-140"/>
<text text-anchor="middle" x="1684" y="-147" font-family="Helvetica,sans-Serif" font-size="10.00">plugins/Invoker.cpp</text>
</a>
</g>
</g>
<!-- Node16&#45;&gt;Node19 -->
<g id="edge21" class="edge"><title>Node16&#45;&gt;Node19</title>
<path fill="none" stroke="midnightblue" d="M1569.93,-197.631C1597.91,-186.072 1638.94,-169.12 1663.41,-159.009"/>
<polygon fill="midnightblue" stroke="midnightblue" points="1568.54,-194.422 1560.63,-201.475 1571.21,-200.891 1568.54,-194.422"/>
</g>
<!-- Node18 -->
<g id="node18" class="node"><title>Node18</title>
<g id="a_node18"><a xlink:href="_dir_mon_invoker_8cpp.html" target="_top" xlink:title="plugins/invoker/dirmon\l/DirMonInvoker.cpp">
<polygon fill="white" stroke="black" points="1626.5,-67.5 1626.5,-97.5 1743.5,-97.5 1743.5,-67.5 1626.5,-67.5"/>
<text text-anchor="start" x="1634.5" y="-85.5" font-family="Helvetica,sans-Serif" font-size="10.00">plugins/invoker/dirmon</text>
<text text-anchor="middle" x="1685" y="-74.5" font-family="Helvetica,sans-Serif" font-size="10.00">/DirMonInvoker.cpp</text>
</a>
</g>
</g>
<!-- Node17&#45;&gt;Node18 -->
<g id="edge19" class="edge"><title>Node17&#45;&gt;Node18</title>
<path fill="none" stroke="midnightblue" d="M1593.01,-129.853C1613.4,-119.576 1638.31,-107.025 1657.06,-97.5765"/>
<polygon fill="midnightblue" stroke="midnightblue" points="1591.35,-126.77 1583.99,-134.396 1594.5,-133.022 1591.35,-126.77"/>
</g>
<!-- Node21 -->
<g id="node21" class="node"><title>Node21</title>
<g id="a_node21"><a xlink:href="_basic_h_t_t_p_i_o_processor_8cpp.html" target="_top" xlink:title="plugins/ioprocessor\l/basichttp/BasicHTTPIOProcessor.cpp">
<polygon fill="white" stroke="black" points="420.5,-67.5 420.5,-97.5 607.5,-97.5 607.5,-67.5 420.5,-67.5"/>
<text text-anchor="start" x="428.5" y="-85.5" font-family="Helvetica,sans-Serif" font-size="10.00">plugins/ioprocessor</text>
<text text-anchor="middle" x="514" y="-74.5" font-family="Helvetica,sans-Serif" font-size="10.00">/basichttp/BasicHTTPIOProcessor.cpp</text>
</a>
</g>
</g>
<!-- Node20&#45;&gt;Node21 -->
<g id="edge23" class="edge"><title>Node20&#45;&gt;Node21</title>
<path fill="none" stroke="midnightblue" d="M514,-124.108C514,-115.154 514,-105.323 514,-97.5765"/>
<polygon fill="midnightblue" stroke="midnightblue" points="510.5,-124.396 514,-134.396 517.5,-124.396 510.5,-124.396"/>
</g>
<!-- Node23&#45;&gt;Node20 -->
<g id="edge26" class="edge"><title>Node23&#45;&gt;Node20</title>
<path fill="none" stroke="midnightblue" d="M781.685,-199.658C728.725,-189.933 649.027,-175.297 590.36,-164.523"/>
<polygon fill="midnightblue" stroke="midnightblue" points="781.111,-203.111 791.579,-201.475 782.375,-196.226 781.111,-203.111"/>
</g>
<!-- Node24 -->
<g id="node24" class="node"><title>Node24</title>
<g id="a_node24"><a xlink:href="_s_c_x_m_l_i_o_processor_8h.html" target="_top" xlink:title="plugins/ioprocessor\l/scxml/SCXMLIOProcessor.h">
<polygon fill="white" stroke="black" points="659,-134.5 659,-164.5 805,-164.5 805,-134.5 659,-134.5"/>
<text text-anchor="start" x="667" y="-152.5" font-family="Helvetica,sans-Serif" font-size="10.00">plugins/ioprocessor</text>
<text text-anchor="middle" x="732" y="-141.5" font-family="Helvetica,sans-Serif" font-size="10.00">/scxml/SCXMLIOProcessor.h</text>
</a>
</g>
</g>
<!-- Node23&#45;&gt;Node24 -->
<g id="edge27" class="edge"><title>Node23&#45;&gt;Node24</title>
<path fill="none" stroke="midnightblue" d="M814.025,-196.542C797.009,-186.991 774.22,-174.199 756.982,-164.523"/>
<polygon fill="midnightblue" stroke="midnightblue" points="812.379,-199.632 822.813,-201.475 815.806,-193.528 812.379,-199.632"/>
</g>
<!-- Node25 -->
<g id="node25" class="node"><title>Node25</title>
<g id="a_node25"><a xlink:href="_i_o_processor_8cpp.html" target="_top" xlink:title="plugins/IOProcessor.cpp">
<polygon fill="white" stroke="black" points="823.5,-140 823.5,-159 948.5,-159 948.5,-140 823.5,-140"/>
<text text-anchor="middle" x="886" y="-147" font-family="Helvetica,sans-Serif" font-size="10.00">plugins/IOProcessor.cpp</text>
</a>
</g>
</g>
<!-- Node23&#45;&gt;Node25 -->
<g id="edge29" class="edge"><title>Node23&#45;&gt;Node25</title>
<path fill="none" stroke="midnightblue" d="M851.175,-193.669C860.224,-182.452 871.869,-168.016 879.136,-159.009"/>
<polygon fill="midnightblue" stroke="midnightblue" points="848.432,-191.494 844.877,-201.475 853.88,-195.89 848.432,-191.494"/>
</g>
<!-- Node24&#45;&gt;Node22 -->
<g id="edge28" class="edge"><title>Node24&#45;&gt;Node22</title>
<path fill="none" stroke="midnightblue" d="M726.81,-124.403C724.864,-115.37 722.719,-105.408 721.032,-97.5765"/>
<polygon fill="midnightblue" stroke="midnightblue" points="723.435,-125.357 728.962,-134.396 730.278,-123.883 723.435,-125.357"/>
</g>
<!-- Node27 -->
<g id="node27" class="node"><title>Node27</title>
<g id="a_node27"><a xlink:href="_chart_to_c_8h.html" target="_top" xlink:title="transform/ChartToC.h">
<polygon fill="white" stroke="black" points="1197.5,-140 1197.5,-159 1310.5,-159 1310.5,-140 1197.5,-140"/>
<text text-anchor="middle" x="1254" y="-147" font-family="Helvetica,sans-Serif" font-size="10.00">transform/ChartToC.h</text>
</a>
</g>
</g>
<!-- Node26&#45;&gt;Node27 -->
<g id="edge31" class="edge"><title>Node26&#45;&gt;Node27</title>
<path fill="none" stroke="midnightblue" d="M1149.33,-197.327C1175.15,-185.776 1212.58,-169.032 1234.98,-159.009"/>
<polygon fill="midnightblue" stroke="midnightblue" points="1147.75,-194.197 1140.06,-201.475 1150.61,-200.586 1147.75,-194.197"/>
</g>
<!-- Node29 -->
<g id="node29" class="node"><title>Node29</title>
<g id="a_node29"><a xlink:href="_chart_to_java_8h.html" target="_top" xlink:title="transform/ChartToJava.h">
<polygon fill="white" stroke="black" points="1046.5,-73 1046.5,-92 1173.5,-92 1173.5,-73 1046.5,-73"/>
<text text-anchor="middle" x="1110" y="-80" font-family="Helvetica,sans-Serif" font-size="10.00">transform/ChartToJava.h</text>
</a>
</g>
</g>
<!-- Node26&#45;&gt;Node29 -->
<g id="edge40" class="edge"><title>Node26&#45;&gt;Node29</title>
<path fill="none" stroke="midnightblue" d="M1134.51,-193.301C1140.17,-185.253 1146.1,-175.156 1149,-165 1152.79,-151.752 1153.45,-147.04 1149,-134 1143.21,-117.016 1129.13,-101.304 1119.57,-92.0563"/>
<polygon fill="midnightblue" stroke="midnightblue" points="1131.62,-191.315 1128.41,-201.411 1137.22,-195.521 1131.62,-191.315"/>
</g>
<!-- Node31 -->
<g id="node31" class="node"><title>Node31</title>
<g id="a_node31"><a xlink:href="_chart_to_promela_8h.html" target="_top" xlink:title="transform/ChartToPromela.h">
<polygon fill="white" stroke="black" points="1334.5,-73 1334.5,-92 1477.5,-92 1477.5,-73 1334.5,-73"/>
<text text-anchor="middle" x="1406" y="-80" font-family="Helvetica,sans-Serif" font-size="10.00">transform/ChartToPromela.h</text>
</a>
</g>
</g>
<!-- Node26&#45;&gt;Node31 -->
<g id="edge41" class="edge"><title>Node26&#45;&gt;Node31</title>
<path fill="none" stroke="midnightblue" d="M1193.48,-202.853C1232.44,-196.767 1280.27,-185.563 1319,-165 1337.28,-155.294 1380.1,-111.01 1397.96,-92.1002"/>
<polygon fill="midnightblue" stroke="midnightblue" points="1192.65,-199.438 1183.27,-204.365 1193.67,-206.363 1192.65,-199.438"/>
</g>
<!-- Node34 -->
<g id="node34" class="node"><title>Node34</title>
<g id="a_node34"><a xlink:href="_chart_to_v_h_d_l_8h.html" target="_top" xlink:title="transform/ChartToVHDL.h">
<polygon fill="white" stroke="black" points="895.5,-73 895.5,-92 1028.5,-92 1028.5,-73 895.5,-73"/>
<text text-anchor="middle" x="962" y="-80" font-family="Helvetica,sans-Serif" font-size="10.00">transform/ChartToVHDL.h</text>
</a>
</g>
</g>
<!-- Node26&#45;&gt;Node34 -->
<g id="edge42" class="edge"><title>Node26&#45;&gt;Node34</title>
<path fill="none" stroke="midnightblue" d="M1059.57,-198.752C1037.31,-192.082 1013.39,-181.55 996,-165 974.675,-144.709 966.213,-109.011 963.314,-92.4298"/>
<polygon fill="midnightblue" stroke="midnightblue" points="1058.74,-202.155 1069.31,-201.467 1060.62,-195.412 1058.74,-202.155"/>
</g>
<!-- Node36 -->
<g id="node36" class="node"><title>Node36</title>
<g id="a_node36"><a xlink:href="_transformer_8cpp.html" target="_top" xlink:title="transform/Transformer.cpp">
<polygon fill="white" stroke="black" points="1005.5,-140 1005.5,-159 1140.5,-159 1140.5,-140 1005.5,-140"/>
<text text-anchor="middle" x="1073" y="-147" font-family="Helvetica,sans-Serif" font-size="10.00">transform/Transformer.cpp</text>
</a>
</g>
</g>
<!-- Node26&#45;&gt;Node36 -->
<g id="edge43" class="edge"><title>Node26&#45;&gt;Node36</title>
<path fill="none" stroke="midnightblue" d="M1107.83,-193.669C1098.78,-182.452 1087.13,-168.016 1079.86,-159.009"/>
<polygon fill="midnightblue" stroke="midnightblue" points="1105.12,-195.89 1114.12,-201.475 1110.57,-191.494 1105.12,-195.89"/>
</g>
<!-- Node28 -->
<g id="node28" class="node"><title>Node28</title>
<g id="a_node28"><a xlink:href="_chart_to_c_8cpp.html" target="_top" xlink:title="transform/ChartToC.cpp">
<polygon fill="white" stroke="black" points="1192,-73 1192,-92 1316,-92 1316,-73 1192,-73"/>
<text text-anchor="middle" x="1254" y="-80" font-family="Helvetica,sans-Serif" font-size="10.00">transform/ChartToC.cpp</text>
</a>
</g>
</g>
<!-- Node27&#45;&gt;Node28 -->
<g id="edge32" class="edge"><title>Node27&#45;&gt;Node28</title>
<path fill="none" stroke="midnightblue" d="M1254,-129.537C1254,-117.17 1254,-101.62 1254,-92.1273"/>
<polygon fill="midnightblue" stroke="midnightblue" points="1250.5,-129.734 1254,-139.734 1257.5,-129.734 1250.5,-129.734"/>
</g>
<!-- Node27&#45;&gt;Node29 -->
<g id="edge33" class="edge"><title>Node27&#45;&gt;Node29</title>
<path fill="none" stroke="midnightblue" d="M1225.45,-135.613C1196.93,-122.739 1153.88,-103.306 1129.2,-92.1672"/>
<polygon fill="midnightblue" stroke="midnightblue" points="1224.32,-138.944 1234.88,-139.869 1227.2,-132.564 1224.32,-138.944"/>
</g>
<!-- Node27&#45;&gt;Node31 -->
<g id="edge35" class="edge"><title>Node27&#45;&gt;Node31</title>
<path fill="none" stroke="midnightblue" d="M1283.74,-135.781C1313.84,-122.909 1359.57,-103.355 1385.73,-92.1672"/>
<polygon fill="midnightblue" stroke="midnightblue" points="1282,-132.718 1274.18,-139.869 1284.76,-139.155 1282,-132.718"/>
</g>
<!-- Node27&#45;&gt;Node34 -->
<g id="edge38" class="edge"><title>Node27&#45;&gt;Node34</title>
<path fill="none" stroke="midnightblue" d="M1205.59,-137.724C1148.09,-124.924 1053.34,-103.833 1000.56,-92.0834"/>
<polygon fill="midnightblue" stroke="midnightblue" points="1205,-141.179 1215.53,-139.936 1206.53,-134.346 1205,-141.179"/>
</g>
<!-- Node30 -->
<g id="node30" class="node"><title>Node30</title>
<g id="a_node30"><a xlink:href="_chart_to_java_8cpp.html" target="_top" xlink:title="transform/ChartToJava.cpp">
<polygon fill="white" stroke="black" points="1046,-6 1046,-25 1184,-25 1184,-6 1046,-6"/>
<text text-anchor="middle" x="1115" y="-13" font-family="Helvetica,sans-Serif" font-size="10.00">transform/ChartToJava.cpp</text>
</a>
</g>
</g>
<!-- Node29&#45;&gt;Node30 -->
<g id="edge34" class="edge"><title>Node29&#45;&gt;Node30</title>
<path fill="none" stroke="midnightblue" d="M1111.46,-62.537C1112.41,-50.1703 1113.61,-34.6198 1114.34,-25.1273"/>
<polygon fill="midnightblue" stroke="midnightblue" points="1107.95,-62.4948 1110.67,-72.7338 1114.93,-63.0317 1107.95,-62.4948"/>
</g>
<!-- Node32 -->
<g id="node32" class="node"><title>Node32</title>
<g id="a_node32"><a xlink:href="_chart_to_promela_8cpp.html" target="_top" xlink:title="transform/ChartToPromela.cpp">
<polygon fill="white" stroke="black" points="1268,-6 1268,-25 1422,-25 1422,-6 1268,-6"/>
<text text-anchor="middle" x="1345" y="-13" font-family="Helvetica,sans-Serif" font-size="10.00">transform/ChartToPromela.cpp</text>
</a>
</g>
</g>
<!-- Node31&#45;&gt;Node32 -->
<g id="edge36" class="edge"><title>Node31&#45;&gt;Node32</title>
<path fill="none" stroke="midnightblue" d="M1390.64,-65.1348C1378.71,-52.4228 1362.64,-35.2978 1353.1,-25.1273"/>
<polygon fill="midnightblue" stroke="midnightblue" points="1388.38,-67.837 1397.77,-72.7338 1393.48,-63.0468 1388.38,-67.837"/>
</g>
<!-- Node33 -->
<g id="node33" class="node"><title>Node33</title>
<g id="a_node33"><a xlink:href="_promela_code_analyzer_8cpp.html" target="_top" xlink:title="transform/promela/Promela\lCodeAnalyzer.cpp">
<polygon fill="white" stroke="black" points="1440,-0.5 1440,-30.5 1578,-30.5 1578,-0.5 1440,-0.5"/>
<text text-anchor="start" x="1448" y="-18.5" font-family="Helvetica,sans-Serif" font-size="10.00">transform/promela/Promela</text>
<text text-anchor="middle" x="1509" y="-7.5" font-family="Helvetica,sans-Serif" font-size="10.00">CodeAnalyzer.cpp</text>
</a>
</g>
</g>
<!-- Node31&#45;&gt;Node33 -->
<g id="edge37" class="edge"><title>Node31&#45;&gt;Node33</title>
<path fill="none" stroke="midnightblue" d="M1428.74,-67.1526C1445.97,-56.2748 1469.54,-41.4029 1486.67,-30.589"/>
<polygon fill="midnightblue" stroke="midnightblue" points="1426.48,-64.437 1419.89,-72.7338 1430.22,-70.3568 1426.48,-64.437"/>
</g>
<!-- Node35 -->
<g id="node35" class="node"><title>Node35</title>
<g id="a_node35"><a xlink:href="_chart_to_v_h_d_l_8cpp.html" target="_top" xlink:title="transform/ChartToVHDL.cpp">
<polygon fill="white" stroke="black" points="884.5,-6 884.5,-25 1027.5,-25 1027.5,-6 884.5,-6"/>
<text text-anchor="middle" x="956" y="-13" font-family="Helvetica,sans-Serif" font-size="10.00">transform/ChartToVHDL.cpp</text>
</a>
</g>
</g>
<!-- Node34&#45;&gt;Node35 -->
<g id="edge39" class="edge"><title>Node34&#45;&gt;Node35</title>
<path fill="none" stroke="midnightblue" d="M960.25,-62.537C959.108,-50.1703 957.673,-34.6198 956.796,-25.1273"/>
<polygon fill="midnightblue" stroke="midnightblue" points="956.786,-63.0979 961.191,-72.7338 963.757,-62.4544 956.786,-63.0979"/>
</g>
</g>
</svg>
        <g id="navigator" transform="translate(0 0)" fill="#404254">
                <rect fill="#f2f5e9" fill-opacity="0.5" stroke="#606060" stroke-width=".5" x="0" y="0" width="60" height="60"/>
                <use id="zoomplus" xlink:href="#zoomPlus" x="17" y="9" onmousedown="handleZoom(evt,'in')"/>
                <use id="zoomminus" xlink:href="#zoomMin" x="42" y="9" onmousedown="handleZoom(evt,'out')"/>
                <use id="reset" xlink:href="#resetDef" x="30" y="36" onmousedown="handleReset()"/>
                <g id="arrowUp" xlink:href="#dirArrow" transform="translate(30 24)" onmousedown="handlePan(0,-1)">
                  <use xlink:href="#rim" fill="#404040">
                        <set attributeName="fill" to="#808080" begin="arrowUp.mouseover" end="arrowUp.mouseout"/>
                  </use>
                  <path fill="none" stroke="white" stroke-width="1.5" d="M0,-3.0v7 M-2.5,-0.5L0,-3.0L2.5,-0.5"/>
                </g>
                <g id="arrowRight" xlink:href="#dirArrow" transform="rotate(90) translate(36 -43)" onmousedown="handlePan(1,0)">
                  <use xlink:href="#rim" fill="#404040">
                        <set attributeName="fill" to="#808080" begin="arrowRight.mouseover" end="arrowRight.mouseout"/>
                  </use>
                  <path fill="none" stroke="white" stroke-width="1.5" d="M0,-3.0v7 M-2.5,-0.5L0,-3.0L2.5,-0.5"/>
                </g>
                <g id="arrowDown" xlink:href="#dirArrow" transform="rotate(180) translate(-30 -48)" onmousedown="handlePan(0,1)">
                  <use xlink:href="#rim" fill="#404040">
                        <set attributeName="fill" to="#808080" begin="arrowDown.mouseover" end="arrowDown.mouseout"/>
                  </use>
                  <path fill="none" stroke="white" stroke-width="1.5" d="M0,-3.0v7 M-2.5,-0.5L0,-3.0L2.5,-0.5"/>
                </g>
                <g id="arrowLeft" xlink:href="#dirArrow" transform="rotate(270) translate(-36 17)" onmousedown="handlePan(-1,0)">
                  <use xlink:href="#rim" fill="#404040">
                        <set attributeName="fill" to="#808080" begin="arrowLeft.mouseover" end="arrowLeft.mouseout"/>
                  </use>
                  <path fill="none" stroke="white" stroke-width="1.5" d="M0,-3.0v7 M-2.5,-0.5L0,-3.0L2.5,-0.5"/>
                </g>
        </g>
        <svg viewBox="0 0 15 15" width="100%" height="30px" preserveAspectRatio="xMaxYMin meet">
         <g id="arrow_out" transform="scale(0.3 0.3)">
          <a xlink:href="_micro_step_impl_8h__dep__incl_org.svg" target="_base">
           <rect id="button" ry="5" rx="5" y="6" x="6" height="38" width="38"
                fill="#f2f5e9" fill-opacity="0.5" stroke="#606060" stroke-width="1.0"/>
           <path id="arrow"
             d="M 11.500037,31.436501 C 11.940474,20.09759 22.043105,11.32322 32.158766,21.979434 L 37.068811,17.246167 C 37.068811,17.246167 37.088388,32 37.088388,32 L 22.160133,31.978069 C 22.160133,31.978069 26.997745,27.140456 26.997745,27.140456 C 18.528582,18.264221 13.291696,25.230495 11.500037,31.436501 z"
             style="fill:#404040;"/>
          </a>
         </g>
        </svg>
</svg>
