<?xml version="1.0" encoding="UTF-8" standalone="no"?>
<!DOCTYPE svg PUBLIC "-//W3C//DTD SVG 1.1//EN"
 "http://www.w3.org/Graphics/SVG/1.1/DTD/svg11.dtd">
<!-- Generated by graphviz version 2.38.0 (20140413.2041)
 -->
<!-- Title: interpreter/MicroStepImpl.h Pages: 1 -->
<svg width="1382pt" height="274pt"
 viewBox="0.00 0.00 1381.50 274.00" xmlns="http://www.w3.org/2000/svg" xmlns:xlink="http://www.w3.org/1999/xlink">
<g id="graph0" class="graph" transform="scale(1 1) rotate(0) translate(4 270)">
<title>interpreter/MicroStepImpl.h</title>
<polygon fill="white" stroke="none" points="-4,4 -4,-270 1377.5,-270 1377.5,4 -4,4"/>
<!-- Node1 -->
<g id="node1" class="node"><title>Node1</title>
<polygon fill="#bfbfbf" stroke="black" points="544.5,-246.5 544.5,-265.5 681.5,-265.5 681.5,-246.5 544.5,-246.5"/>
<text text-anchor="middle" x="613" y="-253.5" font-family="Helvetica,sans-Serif" font-size="10.00">interpreter/MicroStepImpl.h</text>
</g>
<!-- Node2 -->
<g id="node2" class="node"><title>Node2</title>
<g id="a_node2"><a xlink:href="_fast_micro_step_8h.html" target="_top" xlink:title="interpreter/FastMicroStep.h">
<polygon fill="white" stroke="black" points="107,-190.5 107,-209.5 245,-209.5 245,-190.5 107,-190.5"/>
<text text-anchor="middle" x="176" y="-197.5" font-family="Helvetica,sans-Serif" font-size="10.00">interpreter/FastMicroStep.h</text>
</a>
</g>
</g>
<!-- Node1&#45;&gt;Node2 -->
<g id="edge1" class="edge"><title>Node1&#45;&gt;Node2</title>
<path fill="none" stroke="midnightblue" d="M534.17,-245.259C451.745,-235.074 323.667,-219.247 245.082,-209.536"/>
<polygon fill="midnightblue" stroke="midnightblue" points="533.884,-248.75 544.238,-246.503 534.743,-241.803 533.884,-248.75"/>
</g>
<!-- Node5 -->
<g id="node5" class="node"><title>Node5</title>
<g id="a_node5"><a xlink:href="_interpreter_impl_8h.html" target="_top" xlink:title="interpreter/InterpreterImpl.h">
<polygon fill="white" stroke="black" points="544,-190.5 544,-209.5 682,-209.5 682,-190.5 544,-190.5"/>
<text text-anchor="middle" x="613" y="-197.5" font-family="Helvetica,sans-Serif" font-size="10.00">interpreter/InterpreterImpl.h</text>
</a>
</g>
</g>
<!-- Node1&#45;&gt;Node5 -->
<g id="edge4" class="edge"><title>Node1&#45;&gt;Node5</title>
<path fill="none" stroke="midnightblue" d="M613,-235.805C613,-226.91 613,-216.78 613,-209.751"/>
<polygon fill="midnightblue" stroke="midnightblue" points="609.5,-236.083 613,-246.083 616.5,-236.083 609.5,-236.083"/>
</g>
<!-- Node24 -->
<g id="node24" class="node"><title>Node24</title>
<g id="a_node24"><a xlink:href="_micro_step_8cpp.html" target="_top" xlink:title="interpreter/MicroStep.cpp">
<polygon fill="white" stroke="black" points="700.5,-190.5 700.5,-209.5 829.5,-209.5 829.5,-190.5 700.5,-190.5"/>
<text text-anchor="middle" x="765" y="-197.5" font-family="Helvetica,sans-Serif" font-size="10.00">interpreter/MicroStep.cpp</text>
</a>
</g>
</g>
<!-- Node1&#45;&gt;Node24 -->
<g id="edge31" class="edge"><title>Node1&#45;&gt;Node24</title>
<path fill="none" stroke="midnightblue" d="M646.668,-243.039C675.268,-232.879 715.612,-218.546 741.028,-209.516"/>
<polygon fill="midnightblue" stroke="midnightblue" points="645.336,-239.798 637.085,-246.444 647.68,-246.394 645.336,-239.798"/>
</g>
<!-- Node3 -->
<g id="node3" class="node"><title>Node3</title>
<g id="a_node3"><a xlink:href="_fast_micro_step_8cpp.html" target="_top" xlink:title="interpreter/FastMicroStep.cpp">
<polygon fill="white" stroke="black" points="0,-134.5 0,-153.5 148,-153.5 148,-134.5 0,-134.5"/>
<text text-anchor="middle" x="74" y="-141.5" font-family="Helvetica,sans-Serif" font-size="10.00">interpreter/FastMicroStep.cpp</text>
</a>
</g>
</g>
<!-- Node2&#45;&gt;Node3 -->
<g id="edge2" class="edge"><title>Node2&#45;&gt;Node3</title>
<path fill="none" stroke="midnightblue" d="M150.669,-185.59C131.81,-175.605 106.616,-162.267 90.3474,-153.655"/>
<polygon fill="midnightblue" stroke="midnightblue" points="149.136,-188.738 159.612,-190.324 152.412,-182.552 149.136,-188.738"/>
</g>
<!-- Node4 -->
<g id="node4" class="node"><title>Node4</title>
<g id="a_node4"><a xlink:href="_interpreter_impl_8cpp.html" target="_top" xlink:title="interpreter/InterpreterImpl.cpp">
<polygon fill="white" stroke="black" points="99.5,-73 99.5,-92 248.5,-92 248.5,-73 99.5,-73"/>
<text text-anchor="middle" x="174" y="-80" font-family="Helvetica,sans-Serif" font-size="10.00">interpreter/InterpreterImpl.cpp</text>
</a>
</g>
</g>
<!-- Node2&#45;&gt;Node4 -->
<g id="edge3" class="edge"><title>Node2&#45;&gt;Node4</title>
<path fill="none" stroke="midnightblue" d="M175.674,-180.164C175.236,-154.865 174.475,-110.935 174.152,-92.282"/>
<polygon fill="midnightblue" stroke="midnightblue" points="172.177,-180.381 175.85,-190.319 179.176,-180.26 172.177,-180.381"/>
</g>
<!-- Node5&#45;&gt;Node4 -->
<g id="edge6" class="edge"><title>Node5&#45;&gt;Node4</title>
<path fill="none" stroke="midnightblue" d="M533.57,-195.297C440.976,-189.943 294.327,-177.935 245,-154 215.307,-139.591 190.58,-107.736 179.803,-92.2686"/>
<polygon fill="midnightblue" stroke="midnightblue" points="533.566,-198.803 543.748,-195.872 533.961,-191.814 533.566,-198.803"/>
</g>
<!-- Node6 -->
<g id="node6" class="node"><title>Node6</title>
<g id="a_node6"><a xlink:href="_interpreter_issue_8cpp.html" target="_top" xlink:title="debug/InterpreterIssue.cpp">
<polygon fill="white" stroke="black" points="384,-134.5 384,-153.5 520,-153.5 520,-134.5 384,-134.5"/>
<text text-anchor="middle" x="452" y="-141.5" font-family="Helvetica,sans-Serif" font-size="10.00">debug/InterpreterIssue.cpp</text>
</a>
</g>
</g>
<!-- Node5&#45;&gt;Node6 -->
<g id="edge5" class="edge"><title>Node5&#45;&gt;Node6</title>
<path fill="none" stroke="midnightblue" d="M577.735,-187.172C547.419,-177.004 504.43,-162.585 477.392,-153.516"/>
<polygon fill="midnightblue" stroke="midnightblue" points="576.895,-190.582 587.489,-190.444 579.121,-183.945 576.895,-190.582"/>
</g>
<!-- Node7 -->
<g id="node7" class="node"><title>Node7</title>
<g id="a_node7"><a xlink:href="_interpreter_8cpp.html" target="_top" xlink:title="Interpreter.cpp">
<polygon fill="white" stroke="black" points="538,-134.5 538,-153.5 620,-153.5 620,-134.5 538,-134.5"/>
<text text-anchor="middle" x="579" y="-141.5" font-family="Helvetica,sans-Serif" font-size="10.00">Interpreter.cpp</text>
</a>
</g>
</g>
<!-- Node5&#45;&gt;Node7 -->
<g id="edge7" class="edge"><title>Node5&#45;&gt;Node7</title>
<path fill="none" stroke="midnightblue" d="M602.023,-181.566C596.173,-172.275 589.23,-161.248 584.51,-153.751"/>
<polygon fill="midnightblue" stroke="midnightblue" points="599.096,-183.486 607.386,-190.083 605.019,-179.756 599.096,-183.486"/>
</g>
<!-- Node8 -->
<g id="node8" class="node"><title>Node8</title>
<g id="a_node8"><a xlink:href="_u_s_c_x_m_l_invoker_8h.html" target="_top" xlink:title="plugins/invoker/scxml\l/USCXMLInvoker.h">
<polygon fill="white" stroke="black" points="388,-67.5 388,-97.5 500,-97.5 500,-67.5 388,-67.5"/>
<text text-anchor="start" x="396" y="-85.5" font-family="Helvetica,sans-Serif" font-size="10.00">plugins/invoker/scxml</text>
<text text-anchor="middle" x="444" y="-74.5" font-family="Helvetica,sans-Serif" font-size="10.00">/USCXMLInvoker.h</text>
</a>
</g>
</g>
<!-- Node5&#45;&gt;Node8 -->
<g id="edge8" class="edge"><title>Node5&#45;&gt;Node8</title>
<path fill="none" stroke="midnightblue" d="M624.733,-181.318C632.472,-167.226 639.43,-147.659 629,-134 624.946,-128.691 553.258,-110.189 500.335,-97.1236"/>
<polygon fill="midnightblue" stroke="midnightblue" points="621.628,-179.69 619.456,-190.06 627.62,-183.308 621.628,-179.69"/>
</g>
<!-- Node11 -->
<g id="node11" class="node"><title>Node11</title>
<g id="a_node11"><a xlink:href="_invoker_impl_8h.html" target="_top" xlink:title="plugins/InvokerImpl.h">
<polygon fill="white" stroke="black" points="254.5,-134.5 254.5,-153.5 365.5,-153.5 365.5,-134.5 254.5,-134.5"/>
<text text-anchor="middle" x="310" y="-141.5" font-family="Helvetica,sans-Serif" font-size="10.00">plugins/InvokerImpl.h</text>
</a>
</g>
</g>
<!-- Node5&#45;&gt;Node11 -->
<g id="edge11" class="edge"><title>Node5&#45;&gt;Node11</title>
<path fill="none" stroke="midnightblue" d="M555.005,-188.664C497.743,-178.459 411.217,-163.039 357.787,-153.516"/>
<polygon fill="midnightblue" stroke="midnightblue" points="554.53,-192.135 564.989,-190.444 555.758,-185.243 554.53,-192.135"/>
</g>
<!-- Node13 -->
<g id="node13" class="node"><title>Node13</title>
<g id="a_node13"><a xlink:href="_basic_h_t_t_p_i_o_processor_8h.html" target="_top" xlink:title="plugins/ioprocessor\l/basichttp/BasicHTTPIOProcessor.h">
<polygon fill="white" stroke="black" points="518.5,-67.5 518.5,-97.5 695.5,-97.5 695.5,-67.5 518.5,-67.5"/>
<text text-anchor="start" x="526.5" y="-85.5" font-family="Helvetica,sans-Serif" font-size="10.00">plugins/ioprocessor</text>
<text text-anchor="middle" x="607" y="-74.5" font-family="Helvetica,sans-Serif" font-size="10.00">/basichttp/BasicHTTPIOProcessor.h</text>
</a>
</g>
</g>
<!-- Node5&#45;&gt;Node13 -->
<g id="edge15" class="edge"><title>Node5&#45;&gt;Node13</title>
<path fill="none" stroke="midnightblue" d="M635.957,-184.535C652.476,-172.14 670.472,-153.281 662,-134 655.377,-118.928 641.789,-106.381 629.777,-97.5644"/>
<polygon fill="midnightblue" stroke="midnightblue" points="633.778,-181.788 627.6,-190.396 637.797,-187.519 633.778,-181.788"/>
</g>
<!-- Node15 -->
<g id="node15" class="node"><title>Node15</title>
<g id="a_node15"><a xlink:href="_s_c_x_m_l_i_o_processor_8cpp.html" target="_top" xlink:title="plugins/ioprocessor\l/scxml/SCXMLIOProcessor.cpp">
<polygon fill="white" stroke="black" points="835.5,-0.5 835.5,-30.5 992.5,-30.5 992.5,-0.5 835.5,-0.5"/>
<text text-anchor="start" x="843.5" y="-18.5" font-family="Helvetica,sans-Serif" font-size="10.00">plugins/ioprocessor</text>
<text text-anchor="middle" x="914" y="-7.5" font-family="Helvetica,sans-Serif" font-size="10.00">/scxml/SCXMLIOProcessor.cpp</text>
</a>
</g>
</g>
<!-- Node5&#45;&gt;Node15 -->
<g id="edge18" class="edge"><title>Node5&#45;&gt;Node15</title>
<path fill="none" stroke="midnightblue" d="M685.224,-188.984C734.397,-181.375 800.702,-169.562 858,-154 928.283,-134.911 970.218,-157.652 1012,-98 1019.9,-86.7151 1019.17,-78.7639 1012,-67 1001.54,-49.8405 983.172,-38.2616 965.146,-30.5723"/>
<polygon fill="midnightblue" stroke="midnightblue" points="684.671,-185.528 675.314,-190.497 685.727,-192.448 684.671,-185.528"/>
</g>
<!-- Node16 -->
<g id="node16" class="node"><title>Node16</title>
<g id="a_node16"><a xlink:href="_i_o_processor_impl_8h.html" target="_top" xlink:title="plugins/IOProcessorImpl.h">
<polygon fill="white" stroke="black" points="715,-134.5 715,-153.5 849,-153.5 849,-134.5 715,-134.5"/>
<text text-anchor="middle" x="782" y="-141.5" font-family="Helvetica,sans-Serif" font-size="10.00">plugins/IOProcessorImpl.h</text>
</a>
</g>
</g>
<!-- Node5&#45;&gt;Node16 -->
<g id="edge19" class="edge"><title>Node5&#45;&gt;Node16</title>
<path fill="none" stroke="midnightblue" d="M649.603,-187.304C681.447,-177.129 726.842,-162.625 755.347,-153.516"/>
<polygon fill="midnightblue" stroke="midnightblue" points="648.239,-184.066 639.779,-190.444 650.369,-190.734 648.239,-184.066"/>
</g>
<!-- Node19 -->
<g id="node19" class="node"><title>Node19</title>
<g id="a_node19"><a xlink:href="_transformer_8h.html" target="_top" xlink:title="transform/Transformer.h">
<polygon fill="white" stroke="black" points="1071,-134.5 1071,-153.5 1195,-153.5 1195,-134.5 1071,-134.5"/>
<text text-anchor="middle" x="1133" y="-141.5" font-family="Helvetica,sans-Serif" font-size="10.00">transform/Transformer.h</text>
</a>
</g>
</g>
<!-- Node5&#45;&gt;Node19 -->
<g id="edge25" class="edge"><title>Node5&#45;&gt;Node19</title>
<path fill="none" stroke="midnightblue" d="M692.393,-189.861C850.336,-172.792 891.474,-169.828 1046,-154 1054.01,-153.18 1062.43,-152.314 1070.75,-151.456"/>
<polygon fill="midnightblue" stroke="midnightblue" points="691.882,-186.395 682.317,-190.952 692.636,-193.355 691.882,-186.395"/>
</g>
<!-- Node9 -->
<g id="node9" class="node"><title>Node9</title>
<g id="a_node9"><a xlink:href="_factory_8cpp.html" target="_top" xlink:title="plugins/Factory.cpp">
<polygon fill="white" stroke="black" points="509.5,-6 509.5,-25 612.5,-25 612.5,-6 509.5,-6"/>
<text text-anchor="middle" x="561" y="-13" font-family="Helvetica,sans-Serif" font-size="10.00">plugins/Factory.cpp</text>
</a>
</g>
</g>
<!-- Node8&#45;&gt;Node9 -->
<g id="edge9" class="edge"><title>Node8&#45;&gt;Node9</title>
<path fill="none" stroke="midnightblue" d="M478.249,-62.4727C500.585,-50.0641 528.651,-34.4716 545.687,-25.007"/>
<polygon fill="midnightblue" stroke="midnightblue" points="476.429,-59.4799 469.387,-67.396 479.829,-65.599 476.429,-59.4799"/>
</g>
<!-- Node10 -->
<g id="node10" class="node"><title>Node10</title>
<g id="a_node10"><a xlink:href="_u_s_c_x_m_l_invoker_8cpp.html" target="_top" xlink:title="plugins/invoker/scxml\l/USCXMLInvoker.cpp">
<polygon fill="white" stroke="black" points="378.5,-0.5 378.5,-30.5 491.5,-30.5 491.5,-0.5 378.5,-0.5"/>
<text text-anchor="start" x="386.5" y="-18.5" font-family="Helvetica,sans-Serif" font-size="10.00">plugins/invoker/scxml</text>
<text text-anchor="middle" x="435" y="-7.5" font-family="Helvetica,sans-Serif" font-size="10.00">/USCXMLInvoker.cpp</text>
</a>
</g>
</g>
<!-- Node8&#45;&gt;Node10 -->
<g id="edge10" class="edge"><title>Node8&#45;&gt;Node10</title>
<path fill="none" stroke="midnightblue" d="M440.663,-57.4029C439.413,-48.3703 438.033,-38.4078 436.949,-30.5765"/>
<polygon fill="midnightblue" stroke="midnightblue" points="437.209,-57.9705 442.047,-67.396 444.142,-57.0104 437.209,-57.9705"/>
</g>
<!-- Node11&#45;&gt;Node4 -->
<g id="edge12" class="edge"><title>Node11&#45;&gt;Node4</title>
<path fill="none" stroke="midnightblue" d="M281.034,-130.327C254.631,-118.776 216.358,-102.032 193.449,-92.0091"/>
<polygon fill="midnightblue" stroke="midnightblue" points="279.95,-133.673 290.515,-134.475 282.756,-127.26 279.95,-133.673"/>
</g>
<!-- Node11&#45;&gt;Node8 -->
<g id="edge13" class="edge"><title>Node11&#45;&gt;Node8</title>
<path fill="none" stroke="midnightblue" d="M338.533,-130.331C360.213,-120.704 390.022,-107.468 412.419,-97.523"/>
<polygon fill="midnightblue" stroke="midnightblue" points="336.918,-127.218 329.199,-134.475 339.759,-133.616 336.918,-127.218"/>
</g>
<!-- Node12 -->
<g id="node12" class="node"><title>Node12</title>
<g id="a_node12"><a xlink:href="_invoker_8cpp.html" target="_top" xlink:title="plugins/Invoker.cpp">
<polygon fill="white" stroke="black" points="266.5,-73 266.5,-92 369.5,-92 369.5,-73 266.5,-73"/>
<text text-anchor="middle" x="318" y="-80" font-family="Helvetica,sans-Serif" font-size="10.00">plugins/Invoker.cpp</text>
</a>
</g>
</g>
<!-- Node11&#45;&gt;Node12 -->
<g id="edge14" class="edge"><title>Node11&#45;&gt;Node12</title>
<path fill="none" stroke="midnightblue" d="M312.512,-124.317C313.967,-113.496 315.728,-100.398 316.856,-92.0091"/>
<polygon fill="midnightblue" stroke="midnightblue" points="309.01,-124.098 311.146,-134.475 315.948,-125.031 309.01,-124.098"/>
</g>
<!-- Node13&#45;&gt;Node9 -->
<g id="edge16" class="edge"><title>Node13&#45;&gt;Node9</title>
<path fill="none" stroke="midnightblue" d="M591.059,-58.9745C582.82,-47.332 573.242,-33.7985 567.153,-25.1945"/>
<polygon fill="midnightblue" stroke="midnightblue" points="588.385,-61.2551 597.019,-67.396 594.099,-57.2114 588.385,-61.2551"/>
</g>
<!-- Node14 -->
<g id="node14" class="node"><title>Node14</title>
<g id="a_node14"><a xlink:href="_basic_h_t_t_p_i_o_processor_8cpp.html" target="_top" xlink:title="plugins/ioprocessor\l/basichttp/BasicHTTPIOProcessor.cpp">
<polygon fill="white" stroke="black" points="630.5,-0.5 630.5,-30.5 817.5,-30.5 817.5,-0.5 630.5,-0.5"/>
<text text-anchor="start" x="638.5" y="-18.5" font-family="Helvetica,sans-Serif" font-size="10.00">plugins/ioprocessor</text>
<text text-anchor="middle" x="724" y="-7.5" font-family="Helvetica,sans-Serif" font-size="10.00">/basichttp/BasicHTTPIOProcessor.cpp</text>
</a>
</g>
</g>
<!-- Node13&#45;&gt;Node14 -->
<g id="edge17" class="edge"><title>Node13&#45;&gt;Node14</title>
<path fill="none" stroke="midnightblue" d="M641.316,-62.4354C659.673,-52.2374 681.885,-39.8975 698.662,-30.5765"/>
<polygon fill="midnightblue" stroke="midnightblue" points="639.429,-59.4799 632.387,-67.396 642.829,-65.599 639.429,-59.4799"/>
</g>
<!-- Node16&#45;&gt;Node13 -->
<g id="edge20" class="edge"><title>Node16&#45;&gt;Node13</title>
<path fill="none" stroke="midnightblue" d="M747.383,-131.23C718.887,-121.542 678.416,-107.782 648.244,-97.523"/>
<polygon fill="midnightblue" stroke="midnightblue" points="746.332,-134.57 756.927,-134.475 748.586,-127.942 746.332,-134.57"/>
</g>
<!-- Node17 -->
<g id="node17" class="node"><title>Node17</title>
<g id="a_node17"><a xlink:href="_s_c_x_m_l_i_o_processor_8h.html" target="_top" xlink:title="plugins/ioprocessor\l/scxml/SCXMLIOProcessor.h">
<polygon fill="white" stroke="black" points="714,-67.5 714,-97.5 860,-97.5 860,-67.5 714,-67.5"/>
<text text-anchor="start" x="722" y="-85.5" font-family="Helvetica,sans-Serif" font-size="10.00">plugins/ioprocessor</text>
<text text-anchor="middle" x="787" y="-74.5" font-family="Helvetica,sans-Serif" font-size="10.00">/scxml/SCXMLIOProcessor.h</text>
</a>
</g>
</g>
<!-- Node16&#45;&gt;Node17 -->
<g id="edge21" class="edge"><title>Node16&#45;&gt;Node17</title>
<path fill="none" stroke="midnightblue" d="M783.577,-124.235C784.304,-115.586 785.152,-105.497 785.822,-97.523"/>
<polygon fill="midnightblue" stroke="midnightblue" points="780.066,-124.217 782.716,-134.475 787.042,-124.803 780.066,-124.217"/>
</g>
<!-- Node18 -->
<g id="node18" class="node"><title>Node18</title>
<g id="a_node18"><a xlink:href="_i_o_processor_8cpp.html" target="_top" xlink:title="plugins/IOProcessor.cpp">
<polygon fill="white" stroke="black" points="878.5,-73 878.5,-92 1003.5,-92 1003.5,-73 878.5,-73"/>
<text text-anchor="middle" x="941" y="-80" font-family="Helvetica,sans-Serif" font-size="10.00">plugins/IOProcessor.cpp</text>
</a>
</g>
</g>
<!-- Node16&#45;&gt;Node18 -->
<g id="edge24" class="edge"><title>Node16&#45;&gt;Node18</title>
<path fill="none" stroke="midnightblue" d="M814.247,-130.933C845.15,-119.368 891.007,-102.208 918.261,-92.0091"/>
<polygon fill="midnightblue" stroke="midnightblue" points="812.92,-127.692 804.781,-134.475 815.373,-134.248 812.92,-127.692"/>
</g>
<!-- Node17&#45;&gt;Node9 -->
<g id="edge22" class="edge"><title>Node17&#45;&gt;Node9</title>
<path fill="none" stroke="midnightblue" d="M728.485,-64.6705C684.316,-51.967 625.546,-35.064 590.653,-25.0287"/>
<polygon fill="midnightblue" stroke="midnightblue" points="727.662,-68.0755 738.24,-67.476 729.597,-61.3482 727.662,-68.0755"/>
</g>
<!-- Node17&#45;&gt;Node15 -->
<g id="edge23" class="edge"><title>Node17&#45;&gt;Node15</title>
<path fill="none" stroke="midnightblue" d="M823.704,-62.7143C843.734,-52.4631 868.119,-39.9826 886.497,-30.5765"/>
<polygon fill="midnightblue" stroke="midnightblue" points="821.864,-59.7242 814.557,-67.396 825.054,-65.9555 821.864,-59.7242"/>
</g>
<!-- Node20 -->
<g id="node20" class="node"><title>Node20</title>
<g id="a_node20"><a xlink:href="_chart_to_c_8h.html" target="_top" xlink:title="transform/ChartToC.h">
<polygon fill="white" stroke="black" points="1068.5,-73 1068.5,-92 1181.5,-92 1181.5,-73 1068.5,-73"/>
<text text-anchor="middle" x="1125" y="-80" font-family="Helvetica,sans-Serif" font-size="10.00">transform/ChartToC.h</text>
</a>
</g>
</g>
<!-- Node19&#45;&gt;Node20 -->
<g id="edge26" class="edge"><title>Node19&#45;&gt;Node20</title>
<path fill="none" stroke="midnightblue" d="M1130.49,-124.317C1129.03,-113.496 1127.27,-100.398 1126.14,-92.0091"/>
<polygon fill="midnightblue" stroke="midnightblue" points="1127.05,-125.031 1131.85,-134.475 1133.99,-124.098 1127.05,-125.031"/>
</g>
<!-- Node22 -->
<g id="node22" class="node"><title>Node22</title>
<g id="a_node22"><a xlink:href="_chart_to_v_h_d_l_8h.html" target="_top" xlink:title="transform/ChartToVHDL.h">
<polygon fill="white" stroke="black" points="1153.5,-6 1153.5,-25 1286.5,-25 1286.5,-6 1153.5,-6"/>
<text text-anchor="middle" x="1220" y="-13" font-family="Helvetica,sans-Serif" font-size="10.00">transform/ChartToVHDL.h</text>
</a>
</g>
</g>
<!-- Node19&#45;&gt;Node22 -->
<g id="edge29" class="edge"><title>Node19&#45;&gt;Node22</title>
<path fill="none" stroke="midnightblue" d="M1156.66,-128.75C1168.05,-120.888 1181.12,-110.24 1190,-98 1206.91,-74.6899 1215.29,-40.7954 1218.45,-25.0861"/>
<polygon fill="midnightblue" stroke="midnightblue" points="1154.44,-126.02 1148.01,-134.434 1158.29,-131.871 1154.44,-126.02"/>
</g>
<!-- Node23 -->
<g id="node23" class="node"><title>Node23</title>
<g id="a_node23"><a xlink:href="_transformer_8cpp.html" target="_top" xlink:title="transform/Transformer.cpp">
<polygon fill="white" stroke="black" points="1238.5,-73 1238.5,-92 1373.5,-92 1373.5,-73 1238.5,-73"/>
<text text-anchor="middle" x="1306" y="-80" font-family="Helvetica,sans-Serif" font-size="10.00">transform/Transformer.cpp</text>
</a>
</g>
</g>
<!-- Node19&#45;&gt;Node23 -->
<g id="edge30" class="edge"><title>Node19&#45;&gt;Node23</title>
<path fill="none" stroke="midnightblue" d="M1167.65,-131.083C1201.28,-119.517 1251.48,-102.252 1281.26,-92.0091"/>
<polygon fill="midnightblue" stroke="midnightblue" points="1166.1,-127.913 1157.79,-134.475 1168.38,-134.532 1166.1,-127.913"/>
</g>
<!-- Node21 -->
<g id="node21" class="node"><title>Node21</title>
<g id="a_node21"><a xlink:href="_chart_to_c_8cpp.html" target="_top" xlink:title="transform/ChartToC.cpp">
<polygon fill="white" stroke="black" points="1011,-6 1011,-25 1135,-25 1135,-6 1011,-6"/>
<text text-anchor="middle" x="1073" y="-13" font-family="Helvetica,sans-Serif" font-size="10.00">transform/ChartToC.cpp</text>
</a>
</g>
</g>
<!-- Node20&#45;&gt;Node21 -->
<g id="edge27" class="edge"><title>Node20&#45;&gt;Node21</title>
<path fill="none" stroke="midnightblue" d="M1111.62,-64.7705C1101.48,-52.0972 1087.96,-35.201 1079.9,-25.1273"/>
<polygon fill="midnightblue" stroke="midnightblue" points="1109.01,-67.1115 1117.99,-72.7338 1114.47,-62.7387 1109.01,-67.1115"/>
</g>
<!-- Node20&#45;&gt;Node22 -->
<g id="edge28" class="edge"><title>Node20&#45;&gt;Node22</title>
<path fill="none" stroke="midnightblue" d="M1146.31,-66.9196C1165.09,-54.0695 1191.82,-35.7821 1207.39,-25.1273"/>
<polygon fill="midnightblue" stroke="midnightblue" points="1144.09,-64.1983 1137.81,-72.7338 1148.04,-69.9755 1144.09,-64.1983"/>
</g>
</g>
</svg>
