<?xml version="1.0" encoding="UTF-8" standalone="no"?>
<!DOCTYPE svg PUBLIC "-//W3C//DTD SVG 1.1//EN"
 "http://www.w3.org/Graphics/SVG/1.1/DTD/svg11.dtd">
<!-- Generated by graphviz version 2.38.0 (20140413.2041)
 -->
<!-- Title: interpreter/MicroStepImpl.h Pages: 1 -->
<!--zoomable 341 -->
<svg id="main" version="1.1" xmlns="http://www.w3.org/2000/svg" xmlns:xlink="http://www.w3.org/1999/xlink" xml:space="preserve" onload="init(evt)">
<style type="text/css"><![CDATA[
.edge:hover path { stroke: red; }
.edge:hover polygon { stroke: red; fill: red; }
]]></style>
<script type="text/javascript"><![CDATA[
var edges = document.getElementsByTagName('g');
if (edges && edges.length) {
  for (var i=0;i<edges.length;i++) {
    if (edges[i].id.substr(0,4)=='edge') {
      edges[i].setAttribute('class','edge');
    }
  }
}
]]></script>
        <defs>
                <circle id="rim" cx="0" cy="0" r="7"/>
                <circle id="rim2" cx="0" cy="0" r="3.5"/>
                <g id="zoomPlus">
                        <use xlink:href="#rim" fill="#404040">
                                <set attributeName="fill" to="#808080" begin="zoomplus.mouseover" end="zoomplus.mouseout"/>
                        </use>
                        <path d="M-4,0h8M0,-4v8" fill="none" stroke="white" stroke-width="1.5" pointer-events="none"/>
                </g>
                <g id="zoomMin">
                        <use xlink:href="#rim" fill="#404040">
                                <set attributeName="fill" to="#808080" begin="zoomminus.mouseover" end="zoomminus.mouseout"/>
                        </use>
                        <path d="M-4,0h8" fill="none" stroke="white" stroke-width="1.5" pointer-events="none"/>
                </g>
                <g id="dirArrow">
                        <path fill="none" stroke="white" stroke-width="1.5" d="M0,-3.0v7 M-2.5,-0.5L0,-3.0L2.5,-0.5"/>
                </g>
               <g id="resetDef">
                       <use xlink:href="#rim2" fill="#404040">
                               <set attributeName="fill" to="#808080" begin="reset.mouseover" end="reset.mouseout"/>
                       </use>
               </g>
        </defs>

<script type="text/javascript">
var viewWidth = 1915;
var viewHeight = 341;
var sectionId = 'dynsection-1';
</script>
<script xlink:href="svgpan.js"/>
<svg id="graph" class="graph">
<g id="viewport">
<title>interpreter/MicroStepImpl.h</title>
<polygon fill="white" stroke="none" points="-4,4 -4,-337 1911,-337 1911,4 -4,4"/>
<!-- Node1 -->
<g id="node1" class="node"><title>Node1</title>
<polygon fill="#bfbfbf" stroke="black" points="1622,-313.5 1622,-332.5 1759,-332.5 1759,-313.5 1622,-313.5"/>
<text text-anchor="middle" x="1690.5" y="-320.5" font-family="Helvetica,sans-Serif" font-size="10.00">interpreter/MicroStepImpl.h</text>
</g>
<!-- Node2 -->
<g id="node2" class="node"><title>Node2</title>
<g id="a_node2"><a xlink:href="_fast_micro_step_8h.html" target="_top" xlink:title="interpreter/FastMicroStep.h">
<polygon fill="white" stroke="black" points="1621.5,-257.5 1621.5,-276.5 1759.5,-276.5 1759.5,-257.5 1621.5,-257.5"/>
<text text-anchor="middle" x="1690.5" y="-264.5" font-family="Helvetica,sans-Serif" font-size="10.00">interpreter/FastMicroStep.h</text>
</a>
</g>
</g>
<!-- Node1&#45;&gt;Node2 -->
<g id="edge1" class="edge"><title>Node1&#45;&gt;Node2</title>
<path fill="none" stroke="midnightblue" d="M1690.5,-302.805C1690.5,-293.91 1690.5,-283.78 1690.5,-276.751"/>
<polygon fill="midnightblue" stroke="midnightblue" points="1687,-303.083 1690.5,-313.083 1694,-303.083 1687,-303.083"/>
</g>
<!-- Node5 -->
<g id="node5" class="node"><title>Node5</title>
<g id="a_node5"><a xlink:href="_interpreter_impl_8h.html" target="_top" xlink:title="interpreter/InterpreterImpl.h">
<polygon fill="white" stroke="black" points="826.5,-257.5 826.5,-276.5 964.5,-276.5 964.5,-257.5 826.5,-257.5"/>
<text text-anchor="middle" x="895.5" y="-264.5" font-family="Helvetica,sans-Serif" font-size="10.00">interpreter/InterpreterImpl.h</text>
</a>
</g>
</g>
<!-- Node1&#45;&gt;Node5 -->
<g id="edge4" class="edge"><title>Node1&#45;&gt;Node5</title>
<path fill="none" stroke="midnightblue" d="M1611.25,-316.617C1455.47,-306.036 1111.75,-282.689 964.576,-272.692"/>
<polygon fill="midnightblue" stroke="midnightblue" points="1611.47,-320.14 1621.69,-317.326 1611.95,-313.156 1611.47,-320.14"/>
</g>
<!-- Node35 -->
<g id="node35" class="node"><title>Node35</title>
<g id="a_node35"><a xlink:href="_micro_step_8cpp.html" target="_top" xlink:title="interpreter/MicroStep.cpp">
<polygon fill="white" stroke="black" points="1778,-257.5 1778,-276.5 1907,-276.5 1907,-257.5 1778,-257.5"/>
<text text-anchor="middle" x="1842.5" y="-264.5" font-family="Helvetica,sans-Serif" font-size="10.00">interpreter/MicroStep.cpp</text>
</a>
</g>
</g>
<!-- Node1&#45;&gt;Node35 -->
<g id="edge41" class="edge"><title>Node1&#45;&gt;Node35</title>
<path fill="none" stroke="midnightblue" d="M1724.17,-310.039C1752.77,-299.879 1793.11,-285.546 1818.53,-276.516"/>
<polygon fill="midnightblue" stroke="midnightblue" points="1722.84,-306.798 1714.58,-313.444 1725.18,-313.394 1722.84,-306.798"/>
</g>
<!-- Node3 -->
<g id="node3" class="node"><title>Node3</title>
<g id="a_node3"><a xlink:href="_fast_micro_step_8cpp.html" target="_top" xlink:title="interpreter/FastMicroStep.cpp">
<polygon fill="white" stroke="black" points="1616.5,-201.5 1616.5,-220.5 1764.5,-220.5 1764.5,-201.5 1616.5,-201.5"/>
<text text-anchor="middle" x="1690.5" y="-208.5" font-family="Helvetica,sans-Serif" font-size="10.00">interpreter/FastMicroStep.cpp</text>
</a>
</g>
</g>
<!-- Node2&#45;&gt;Node3 -->
<g id="edge2" class="edge"><title>Node2&#45;&gt;Node3</title>
<path fill="none" stroke="midnightblue" d="M1690.5,-246.805C1690.5,-237.91 1690.5,-227.78 1690.5,-220.751"/>
<polygon fill="midnightblue" stroke="midnightblue" points="1687,-247.083 1690.5,-257.083 1694,-247.083 1687,-247.083"/>
</g>
<!-- Node4 -->
<g id="node4" class="node"><title>Node4</title>
<g id="a_node4"><a xlink:href="_interpreter_impl_8cpp.html" target="_top" xlink:title="interpreter/InterpreterImpl.cpp">
<polygon fill="white" stroke="black" points="1718,-140 1718,-159 1867,-159 1867,-140 1718,-140"/>
<text text-anchor="middle" x="1792.5" y="-147" font-family="Helvetica,sans-Serif" font-size="10.00">interpreter/InterpreterImpl.cpp</text>
</a>
</g>
</g>
<!-- Node2&#45;&gt;Node4 -->
<g id="edge3" class="edge"><title>Node2&#45;&gt;Node4</title>
<path fill="none" stroke="midnightblue" d="M1727.51,-253.612C1743.77,-246.44 1761.78,-235.837 1773.5,-221 1788.12,-202.499 1791.52,-173.666 1792.29,-159.281"/>
<polygon fill="midnightblue" stroke="midnightblue" points="1726.12,-250.4 1718.21,-257.445 1728.79,-256.873 1726.12,-250.4"/>
</g>
<!-- Node5&#45;&gt;Node4 -->
<g id="edge12" class="edge"><title>Node5&#45;&gt;Node4</title>
<path fill="none" stroke="midnightblue" d="M975.011,-264.82C1128.44,-261.864 1459.87,-251.998 1569.5,-221 1587.87,-215.807 1589.74,-207.999 1607.5,-201 1655.51,-182.076 1713.2,-167.555 1751.25,-159.042"/>
<polygon fill="midnightblue" stroke="midnightblue" points="974.654,-261.326 964.722,-265.013 974.786,-268.325 974.654,-261.326"/>
</g>
<!-- Node6 -->
<g id="node6" class="node"><title>Node6</title>
<g id="a_node6"><a xlink:href="_breakpoint_8cpp.html" target="_top" xlink:title="debug/Breakpoint.cpp">
<polygon fill="white" stroke="black" points="357.5,-201.5 357.5,-220.5 471.5,-220.5 471.5,-201.5 357.5,-201.5"/>
<text text-anchor="middle" x="414.5" y="-208.5" font-family="Helvetica,sans-Serif" font-size="10.00">debug/Breakpoint.cpp</text>
</a>
</g>
</g>
<!-- Node5&#45;&gt;Node6 -->
<g id="edge5" class="edge"><title>Node5&#45;&gt;Node6</title>
<path fill="none" stroke="midnightblue" d="M816.11,-257.685C733.485,-248.938 600.356,-234.582 485.5,-221 481.058,-220.475 476.461,-219.919 471.841,-219.352"/>
<polygon fill="midnightblue" stroke="midnightblue" points="815.868,-261.179 826.18,-258.75 816.604,-254.218 815.868,-261.179"/>
</g>
<!-- Node7 -->
<g id="node7" class="node"><title>Node7</title>
<g id="a_node7"><a xlink:href="_debugger_8h.html" target="_top" xlink:title="debug/Debugger.h">
<polygon fill="white" stroke="black" points="197,-201.5 197,-220.5 296,-220.5 296,-201.5 197,-201.5"/>
<text text-anchor="middle" x="246.5" y="-208.5" font-family="Helvetica,sans-Serif" font-size="10.00">debug/Debugger.h</text>
</a>
</g>
</g>
<!-- Node5&#45;&gt;Node7 -->
<g id="edge6" class="edge"><title>Node5&#45;&gt;Node7</title>
<path fill="none" stroke="midnightblue" d="M816.396,-259.64C710.018,-251.054 514.974,-235.192 348.5,-221 331.407,-219.543 312.707,-217.905 296.04,-216.431"/>
<polygon fill="midnightblue" stroke="midnightblue" points="816.161,-263.133 826.41,-260.448 816.724,-256.155 816.161,-263.133"/>
</g>
<!-- Node12 -->
<g id="node12" class="node"><title>Node12</title>
<g id="a_node12"><a xlink:href="_interpreter_issue_8cpp.html" target="_top" xlink:title="debug/InterpreterIssue.cpp">
<polygon fill="white" stroke="black" points="527.5,-201.5 527.5,-220.5 663.5,-220.5 663.5,-201.5 527.5,-201.5"/>
<text text-anchor="middle" x="595.5" y="-208.5" font-family="Helvetica,sans-Serif" font-size="10.00">debug/InterpreterIssue.cpp</text>
</a>
</g>
</g>
<!-- Node5&#45;&gt;Node12 -->
<g id="edge11" class="edge"><title>Node5&#45;&gt;Node12</title>
<path fill="none" stroke="midnightblue" d="M838.079,-255.664C781.384,-245.459 695.714,-230.039 642.813,-220.516"/>
<polygon fill="midnightblue" stroke="midnightblue" points="837.502,-259.117 847.964,-257.444 838.742,-252.227 837.502,-259.117"/>
</g>
<!-- Node13 -->
<g id="node13" class="node"><title>Node13</title>
<g id="a_node13"><a xlink:href="_interpreter_8cpp.html" target="_top" xlink:title="Interpreter.cpp">
<polygon fill="white" stroke="black" points="681.5,-201.5 681.5,-220.5 763.5,-220.5 763.5,-201.5 681.5,-201.5"/>
<text text-anchor="middle" x="722.5" y="-208.5" font-family="Helvetica,sans-Serif" font-size="10.00">Interpreter.cpp</text>
</a>
</g>
</g>
<!-- Node5&#45;&gt;Node13 -->
<g id="edge13" class="edge"><title>Node5&#45;&gt;Node13</title>
<path fill="none" stroke="midnightblue" d="M858.453,-254.436C825.836,-244.255 779.09,-229.664 749.784,-220.516"/>
<polygon fill="midnightblue" stroke="midnightblue" points="857.499,-257.805 868.088,-257.444 859.585,-251.123 857.499,-257.805"/>
</g>
<!-- Node14 -->
<g id="node14" class="node"><title>Node14</title>
<g id="a_node14"><a xlink:href="_u_s_c_x_m_l_invoker_8h.html" target="_top" xlink:title="plugins/invoker/scxml\l/USCXMLInvoker.h">
<polygon fill="white" stroke="black" points="1331.5,-134.5 1331.5,-164.5 1443.5,-164.5 1443.5,-134.5 1331.5,-134.5"/>
<text text-anchor="start" x="1339.5" y="-152.5" font-family="Helvetica,sans-Serif" font-size="10.00">plugins/invoker/scxml</text>
<text text-anchor="middle" x="1387.5" y="-141.5" font-family="Helvetica,sans-Serif" font-size="10.00">/USCXMLInvoker.h</text>
</a>
</g>
</g>
<!-- Node5&#45;&gt;Node14 -->
<g id="edge14" class="edge"><title>Node5&#45;&gt;Node14</title>
<path fill="none" stroke="midnightblue" d="M958.265,-255.778C1006.87,-247.49 1075.76,-234.93 1135.5,-221 1208.28,-204.031 1291.58,-179.76 1341.83,-164.577"/>
<polygon fill="midnightblue" stroke="midnightblue" points="957.487,-252.36 948.212,-257.481 958.656,-259.262 957.487,-252.36"/>
</g>
<!-- Node16 -->
<g id="node16" class="node"><title>Node16</title>
<g id="a_node16"><a xlink:href="_invoker_impl_8h.html" target="_top" xlink:title="plugins/InvokerImpl.h">
<polygon fill="white" stroke="black" points="1449,-201.5 1449,-220.5 1560,-220.5 1560,-201.5 1449,-201.5"/>
<text text-anchor="middle" x="1504.5" y="-208.5" font-family="Helvetica,sans-Serif" font-size="10.00">plugins/InvokerImpl.h</text>
</a>
</g>
</g>
<!-- Node5&#45;&gt;Node16 -->
<g id="edge16" class="edge"><title>Node5&#45;&gt;Node16</title>
<path fill="none" stroke="midnightblue" d="M975.049,-258.946C1100.26,-247.844 1340.2,-226.568 1448.74,-216.944"/>
<polygon fill="midnightblue" stroke="midnightblue" points="974.419,-255.488 964.767,-259.858 975.037,-262.461 974.419,-255.488"/>
</g>
<!-- Node20 -->
<g id="node20" class="node"><title>Node20</title>
<g id="a_node20"><a xlink:href="_basic_h_t_t_p_i_o_processor_8h.html" target="_top" xlink:title="plugins/ioprocessor\l/basichttp/BasicHTTPIOProcessor.h">
<polygon fill="white" stroke="black" points="428,-134.5 428,-164.5 605,-164.5 605,-134.5 428,-134.5"/>
<text text-anchor="start" x="436" y="-152.5" font-family="Helvetica,sans-Serif" font-size="10.00">plugins/ioprocessor</text>
<text text-anchor="middle" x="516.5" y="-141.5" font-family="Helvetica,sans-Serif" font-size="10.00">/basichttp/BasicHTTPIOProcessor.h</text>
</a>
</g>
</g>
<!-- Node5&#45;&gt;Node20 -->
<g id="edge22" class="edge"><title>Node5&#45;&gt;Node20</title>
<path fill="none" stroke="midnightblue" d="M816.183,-261.977C711.536,-255.855 538.21,-242.578 518.5,-221 504.709,-205.902 508.06,-180.501 512.057,-164.664"/>
<polygon fill="midnightblue" stroke="midnightblue" points="816.216,-265.485 826.401,-262.565 816.618,-258.496 816.216,-265.485"/>
</g>
<!-- Node22 -->
<g id="node22" class="node"><title>Node22</title>
<g id="a_node22"><a xlink:href="_s_c_x_m_l_i_o_processor_8cpp.html" target="_top" xlink:title="plugins/ioprocessor\l/scxml/SCXMLIOProcessor.cpp">
<polygon fill="white" stroke="black" points="652,-67.5 652,-97.5 809,-97.5 809,-67.5 652,-67.5"/>
<text text-anchor="start" x="660" y="-85.5" font-family="Helvetica,sans-Serif" font-size="10.00">plugins/ioprocessor</text>
<text text-anchor="middle" x="730.5" y="-74.5" font-family="Helvetica,sans-Serif" font-size="10.00">/scxml/SCXMLIOProcessor.cpp</text>
</a>
</g>
</g>
<!-- Node5&#45;&gt;Node22 -->
<g id="edge24" class="edge"><title>Node5&#45;&gt;Node22</title>
<path fill="none" stroke="midnightblue" d="M909.486,-249.373C915.345,-241.34 921.488,-231.235 924.5,-221 930.712,-199.892 937.934,-154.384 921.5,-134 907.049,-116.076 855.228,-103.064 809.206,-94.7401"/>
<polygon fill="midnightblue" stroke="midnightblue" points="906.568,-247.423 903.173,-257.459 912.086,-251.731 906.568,-247.423"/>
</g>
<!-- Node23 -->
<g id="node23" class="node"><title>Node23</title>
<g id="a_node23"><a xlink:href="_i_o_processor_impl_8h.html" target="_top" xlink:title="plugins/IOProcessorImpl.h">
<polygon fill="white" stroke="black" points="781.5,-201.5 781.5,-220.5 915.5,-220.5 915.5,-201.5 781.5,-201.5"/>
<text text-anchor="middle" x="848.5" y="-208.5" font-family="Helvetica,sans-Serif" font-size="10.00">plugins/IOProcessorImpl.h</text>
</a>
</g>
</g>
<!-- Node5&#45;&gt;Node23 -->
<g id="edge25" class="edge"><title>Node5&#45;&gt;Node23</title>
<path fill="none" stroke="midnightblue" d="M881.079,-249.431C872.842,-239.967 862.846,-228.483 856.117,-220.751"/>
<polygon fill="midnightblue" stroke="midnightblue" points="878.534,-251.838 887.739,-257.083 883.814,-247.242 878.534,-251.838"/>
</g>
<!-- Node26 -->
<g id="node26" class="node"><title>Node26</title>
<g id="a_node26"><a xlink:href="_transformer_8h.html" target="_top" xlink:title="transform/Transformer.h">
<polygon fill="white" stroke="black" points="1002.5,-201.5 1002.5,-220.5 1126.5,-220.5 1126.5,-201.5 1002.5,-201.5"/>
<text text-anchor="middle" x="1064.5" y="-208.5" font-family="Helvetica,sans-Serif" font-size="10.00">transform/Transformer.h</text>
</a>
</g>
</g>
<!-- Node5&#45;&gt;Node26 -->
<g id="edge30" class="edge"><title>Node5&#45;&gt;Node26</title>
<path fill="none" stroke="midnightblue" d="M932.103,-254.304C963.947,-244.129 1009.34,-229.625 1037.85,-220.516"/>
<polygon fill="midnightblue" stroke="midnightblue" points="930.739,-251.066 922.279,-257.444 932.869,-257.734 930.739,-251.066"/>
</g>
<!-- Node8 -->
<g id="node8" class="node"><title>Node8</title>
<g id="a_node8"><a xlink:href="_debugger_8cpp.html" target="_top" xlink:title="debug/Debugger.cpp">
<polygon fill="white" stroke="black" points="149.5,-140 149.5,-159 259.5,-159 259.5,-140 149.5,-140"/>
<text text-anchor="middle" x="204.5" y="-147" font-family="Helvetica,sans-Serif" font-size="10.00">debug/Debugger.cpp</text>
</a>
</g>
</g>
<!-- Node7&#45;&gt;Node8 -->
<g id="edge7" class="edge"><title>Node7&#45;&gt;Node8</title>
<path fill="none" stroke="midnightblue" d="M234.504,-193.005C226.656,-181.888 216.74,-167.84 210.506,-159.009"/>
<polygon fill="midnightblue" stroke="midnightblue" points="231.856,-195.324 240.482,-201.475 237.575,-191.287 231.856,-195.324"/>
</g>
<!-- Node9 -->
<g id="node9" class="node"><title>Node9</title>
<g id="a_node9"><a xlink:href="_debugger_servlet_8h.html" target="_top" xlink:title="debug/DebuggerServlet.h">
<polygon fill="white" stroke="black" points="277.5,-140 277.5,-159 407.5,-159 407.5,-140 277.5,-140"/>
<text text-anchor="middle" x="342.5" y="-147" font-family="Helvetica,sans-Serif" font-size="10.00">debug/DebuggerServlet.h</text>
</a>
</g>
</g>
<!-- Node7&#45;&gt;Node9 -->
<g id="edge8" class="edge"><title>Node7&#45;&gt;Node9</title>
<path fill="none" stroke="midnightblue" d="M268.948,-196.087C287.475,-184.604 313.17,-168.678 328.771,-159.009"/>
<polygon fill="midnightblue" stroke="midnightblue" points="266.91,-193.232 260.254,-201.475 270.598,-199.182 266.91,-193.232"/>
</g>
<!-- Node11 -->
<g id="node11" class="node"><title>Node11</title>
<g id="a_node11"><a xlink:href="_debug_session_8cpp.html" target="_top" xlink:title="debug/DebugSession.cpp">
<polygon fill="white" stroke="black" points="0,-140 0,-159 131,-159 131,-140 0,-140"/>
<text text-anchor="middle" x="65.5" y="-147" font-family="Helvetica,sans-Serif" font-size="10.00">debug/DebugSession.cpp</text>
</a>
</g>
</g>
<!-- Node7&#45;&gt;Node11 -->
<g id="edge10" class="edge"><title>Node7&#45;&gt;Node11</title>
<path fill="none" stroke="midnightblue" d="M210.702,-198.232C175.518,-186.666 122.679,-169.297 91.3848,-159.009"/>
<polygon fill="midnightblue" stroke="midnightblue" points="209.974,-201.677 220.567,-201.475 212.16,-195.027 209.974,-201.677"/>
</g>
<!-- Node10 -->
<g id="node10" class="node"><title>Node10</title>
<g id="a_node10"><a xlink:href="_debugger_servlet_8cpp.html" target="_top" xlink:title="debug/DebuggerServlet.cpp">
<polygon fill="white" stroke="black" points="269,-73 269,-92 410,-92 410,-73 269,-73"/>
<text text-anchor="middle" x="339.5" y="-80" font-family="Helvetica,sans-Serif" font-size="10.00">debug/DebuggerServlet.cpp</text>
</a>
</g>
</g>
<!-- Node9&#45;&gt;Node10 -->
<g id="edge9" class="edge"><title>Node9&#45;&gt;Node10</title>
<path fill="none" stroke="midnightblue" d="M341.625,-129.537C341.054,-117.17 340.336,-101.62 339.898,-92.1273"/>
<polygon fill="midnightblue" stroke="midnightblue" points="338.138,-129.906 342.095,-139.734 345.131,-129.583 338.138,-129.906"/>
</g>
<!-- Node15 -->
<g id="node15" class="node"><title>Node15</title>
<g id="a_node15"><a xlink:href="_u_s_c_x_m_l_invoker_8cpp.html" target="_top" xlink:title="plugins/invoker/scxml\l/USCXMLInvoker.cpp">
<polygon fill="white" stroke="black" points="1331,-67.5 1331,-97.5 1444,-97.5 1444,-67.5 1331,-67.5"/>
<text text-anchor="start" x="1339" y="-85.5" font-family="Helvetica,sans-Serif" font-size="10.00">plugins/invoker/scxml</text>
<text text-anchor="middle" x="1387.5" y="-74.5" font-family="Helvetica,sans-Serif" font-size="10.00">/USCXMLInvoker.cpp</text>
</a>
</g>
</g>
<!-- Node14&#45;&gt;Node15 -->
<g id="edge15" class="edge"><title>Node14&#45;&gt;Node15</title>
<path fill="none" stroke="midnightblue" d="M1387.5,-124.108C1387.5,-115.154 1387.5,-105.323 1387.5,-97.5765"/>
<polygon fill="midnightblue" stroke="midnightblue" points="1384,-124.396 1387.5,-134.396 1391,-124.396 1384,-124.396"/>
</g>
<!-- Node16&#45;&gt;Node4 -->
<g id="edge17" class="edge"><title>Node16&#45;&gt;Node4</title>
<path fill="none" stroke="midnightblue" d="M1555.8,-199.402C1611.63,-187.867 1699.81,-169.65 1751.31,-159.009"/>
<polygon fill="midnightblue" stroke="midnightblue" points="1554.85,-196.024 1545.76,-201.475 1556.26,-202.879 1554.85,-196.024"/>
</g>
<!-- Node16&#45;&gt;Node14 -->
<g id="edge20" class="edge"><title>Node16&#45;&gt;Node14</title>
<path fill="none" stroke="midnightblue" d="M1478.82,-196.938C1459.95,-187.347 1434.37,-174.334 1415.07,-164.523"/>
<polygon fill="midnightblue" stroke="midnightblue" points="1477.24,-200.062 1487.74,-201.475 1480.41,-193.822 1477.24,-200.062"/>
</g>
<!-- Node17 -->
<g id="node17" class="node"><title>Node17</title>
<g id="a_node17"><a xlink:href="_dir_mon_invoker_8h.html" target="_top" xlink:title="plugins/invoker/dirmon\l/DirMonInvoker.h">
<polygon fill="white" stroke="black" points="1583,-134.5 1583,-164.5 1700,-164.5 1700,-134.5 1583,-134.5"/>
<text text-anchor="start" x="1591" y="-152.5" font-family="Helvetica,sans-Serif" font-size="10.00">plugins/invoker/dirmon</text>
<text text-anchor="middle" x="1641.5" y="-141.5" font-family="Helvetica,sans-Serif" font-size="10.00">/DirMonInvoker.h</text>
</a>
</g>
</g>
<!-- Node16&#45;&gt;Node17 -->
<g id="edge18" class="edge"><title>Node16&#45;&gt;Node17</title>
<path fill="none" stroke="midnightblue" d="M1533.37,-197.461C1555.56,-187.823 1586.21,-174.513 1609.21,-164.523"/>
<polygon fill="midnightblue" stroke="midnightblue" points="1531.91,-194.281 1524.13,-201.475 1534.7,-200.702 1531.91,-194.281"/>
</g>
<!-- Node19 -->
<g id="node19" class="node"><title>Node19</title>
<g id="a_node19"><a xlink:href="_invoker_8cpp.html" target="_top" xlink:title="plugins/Invoker.cpp">
<polygon fill="white" stroke="black" points="1462,-140 1462,-159 1565,-159 1565,-140 1462,-140"/>
<text text-anchor="middle" x="1513.5" y="-147" font-family="Helvetica,sans-Serif" font-size="10.00">plugins/Invoker.cpp</text>
</a>
</g>
</g>
<!-- Node16&#45;&gt;Node19 -->
<g id="edge21" class="edge"><title>Node16&#45;&gt;Node19</title>
<path fill="none" stroke="midnightblue" d="M1507.33,-191.317C1508.96,-180.496 1510.94,-167.398 1512.21,-159.009"/>
<polygon fill="midnightblue" stroke="midnightblue" points="1503.82,-191.064 1505.79,-201.475 1510.75,-192.111 1503.82,-191.064"/>
</g>
<!-- Node18 -->
<g id="node18" class="node"><title>Node18</title>
<g id="a_node18"><a xlink:href="_dir_mon_invoker_8cpp.html" target="_top" xlink:title="plugins/invoker/dirmon\l/DirMonInvoker.cpp">
<polygon fill="white" stroke="black" points="1583,-67.5 1583,-97.5 1700,-97.5 1700,-67.5 1583,-67.5"/>
<text text-anchor="start" x="1591" y="-85.5" font-family="Helvetica,sans-Serif" font-size="10.00">plugins/invoker/dirmon</text>
<text text-anchor="middle" x="1641.5" y="-74.5" font-family="Helvetica,sans-Serif" font-size="10.00">/DirMonInvoker.cpp</text>
</a>
</g>
</g>
<!-- Node17&#45;&gt;Node18 -->
<g id="edge19" class="edge"><title>Node17&#45;&gt;Node18</title>
<path fill="none" stroke="midnightblue" d="M1641.5,-124.108C1641.5,-115.154 1641.5,-105.323 1641.5,-97.5765"/>
<polygon fill="midnightblue" stroke="midnightblue" points="1638,-124.396 1641.5,-134.396 1645,-124.396 1638,-124.396"/>
</g>
<!-- Node21 -->
<g id="node21" class="node"><title>Node21</title>
<g id="a_node21"><a xlink:href="_basic_h_t_t_p_i_o_processor_8cpp.html" target="_top" xlink:title="plugins/ioprocessor\l/basichttp/BasicHTTPIOProcessor.cpp">
<polygon fill="white" stroke="black" points="428,-67.5 428,-97.5 615,-97.5 615,-67.5 428,-67.5"/>
<text text-anchor="start" x="436" y="-85.5" font-family="Helvetica,sans-Serif" font-size="10.00">plugins/ioprocessor</text>
<text text-anchor="middle" x="521.5" y="-74.5" font-family="Helvetica,sans-Serif" font-size="10.00">/basichttp/BasicHTTPIOProcessor.cpp</text>
</a>
</g>
</g>
<!-- Node20&#45;&gt;Node21 -->
<g id="edge23" class="edge"><title>Node20&#45;&gt;Node21</title>
<path fill="none" stroke="midnightblue" d="M518.354,-124.403C519.048,-115.37 519.815,-105.408 520.417,-97.5765"/>
<polygon fill="midnightblue" stroke="midnightblue" points="514.862,-124.157 517.585,-134.396 521.842,-124.694 514.862,-124.157"/>
</g>
<!-- Node23&#45;&gt;Node20 -->
<g id="edge26" class="edge"><title>Node23&#45;&gt;Node20</title>
<path fill="none" stroke="midnightblue" d="M790.795,-199.658C736.527,-189.933 654.861,-175.297 594.746,-164.523"/>
<polygon fill="midnightblue" stroke="midnightblue" points="790.472,-203.156 800.932,-201.475 791.707,-196.266 790.472,-203.156"/>
</g>
<!-- Node24 -->
<g id="node24" class="node"><title>Node24</title>
<g id="a_node24"><a xlink:href="_s_c_x_m_l_i_o_processor_8h.html" target="_top" xlink:title="plugins/ioprocessor\l/scxml/SCXMLIOProcessor.h">
<polygon fill="white" stroke="black" points="623.5,-134.5 623.5,-164.5 769.5,-164.5 769.5,-134.5 623.5,-134.5"/>
<text text-anchor="start" x="631.5" y="-152.5" font-family="Helvetica,sans-Serif" font-size="10.00">plugins/ioprocessor</text>
<text text-anchor="middle" x="696.5" y="-141.5" font-family="Helvetica,sans-Serif" font-size="10.00">/scxml/SCXMLIOProcessor.h</text>
</a>
</g>
</g>
<!-- Node23&#45;&gt;Node24 -->
<g id="edge27" class="edge"><title>Node23&#45;&gt;Node24</title>
<path fill="none" stroke="midnightblue" d="M817.127,-197.719C792.457,-188.062 758.072,-174.602 732.323,-164.523"/>
<polygon fill="midnightblue" stroke="midnightblue" points="816.134,-201.089 826.722,-201.475 818.686,-194.571 816.134,-201.089"/>
</g>
<!-- Node25 -->
<g id="node25" class="node"><title>Node25</title>
<g id="a_node25"><a xlink:href="_i_o_processor_8cpp.html" target="_top" xlink:title="plugins/IOProcessor.cpp">
<polygon fill="white" stroke="black" points="788,-140 788,-159 913,-159 913,-140 788,-140"/>
<text text-anchor="middle" x="850.5" y="-147" font-family="Helvetica,sans-Serif" font-size="10.00">plugins/IOProcessor.cpp</text>
</a>
</g>
</g>
<!-- Node23&#45;&gt;Node25 -->
<g id="edge29" class="edge"><title>Node23&#45;&gt;Node25</title>
<path fill="none" stroke="midnightblue" d="M849.128,-191.317C849.492,-180.496 849.932,-167.398 850.214,-159.009"/>
<polygon fill="midnightblue" stroke="midnightblue" points="845.625,-191.363 848.787,-201.475 852.621,-191.598 845.625,-191.363"/>
</g>
<!-- Node24&#45;&gt;Node22 -->
<g id="edge28" class="edge"><title>Node24&#45;&gt;Node22</title>
<path fill="none" stroke="midnightblue" d="M708.644,-125.283C713.488,-116.022 718.907,-105.663 723.137,-97.5765"/>
<polygon fill="midnightblue" stroke="midnightblue" points="705.411,-123.913 703.877,-134.396 711.614,-127.157 705.411,-123.913"/>
</g>
<!-- Node27 -->
<g id="node27" class="node"><title>Node27</title>
<g id="a_node27"><a xlink:href="_chart_to_c_8h.html" target="_top" xlink:title="transform/ChartToC.h">
<polygon fill="white" stroke="black" points="1008,-140 1008,-159 1121,-159 1121,-140 1008,-140"/>
<text text-anchor="middle" x="1064.5" y="-147" font-family="Helvetica,sans-Serif" font-size="10.00">transform/ChartToC.h</text>
</a>
</g>
</g>
<!-- Node26&#45;&gt;Node27 -->
<g id="edge31" class="edge"><title>Node26&#45;&gt;Node27</title>
<path fill="none" stroke="midnightblue" d="M1064.5,-191.317C1064.5,-180.496 1064.5,-167.398 1064.5,-159.009"/>
<polygon fill="midnightblue" stroke="midnightblue" points="1061,-191.475 1064.5,-201.475 1068,-191.475 1061,-191.475"/>
</g>
<!-- Node29 -->
<g id="node29" class="node"><title>Node29</title>
<g id="a_node29"><a xlink:href="_chart_to_promela_8h.html" target="_top" xlink:title="transform/ChartToPromela.h">
<polygon fill="white" stroke="black" points="841,-73 841,-92 984,-92 984,-73 841,-73"/>
<text text-anchor="middle" x="912.5" y="-80" font-family="Helvetica,sans-Serif" font-size="10.00">transform/ChartToPromela.h</text>
</a>
</g>
</g>
<!-- Node26&#45;&gt;Node29 -->
<g id="edge38" class="edge"><title>Node26&#45;&gt;Node29</title>
<path fill="none" stroke="midnightblue" d="M1041.85,-195.845C1028.81,-187.381 1012.31,-176.136 998.5,-165 968.073,-140.471 935.439,-107.459 920.634,-92.067"/>
<polygon fill="midnightblue" stroke="midnightblue" points="1040.34,-199.034 1050.65,-201.475 1044.11,-193.137 1040.34,-199.034"/>
</g>
<!-- Node32 -->
<g id="node32" class="node"><title>Node32</title>
<g id="a_node32"><a xlink:href="_chart_to_v_h_d_l_8h.html" target="_top" xlink:title="transform/ChartToVHDL.h">
<polygon fill="white" stroke="black" points="1145,-73 1145,-92 1278,-92 1278,-73 1145,-73"/>
<text text-anchor="middle" x="1211.5" y="-80" font-family="Helvetica,sans-Serif" font-size="10.00">transform/ChartToVHDL.h</text>
</a>
</g>
</g>
<!-- Node26&#45;&gt;Node32 -->
<g id="edge39" class="edge"><title>Node26&#45;&gt;Node32</title>
<path fill="none" stroke="midnightblue" d="M1087.13,-195.757C1099.96,-187.335 1116.09,-176.161 1129.5,-165 1158.82,-140.609 1189.79,-107.53 1203.81,-92.0945"/>
<polygon fill="midnightblue" stroke="midnightblue" points="1084.95,-192.996 1078.45,-201.363 1088.75,-198.875 1084.95,-192.996"/>
</g>
<!-- Node34 -->
<g id="node34" class="node"><title>Node34</title>
<g id="a_node34"><a xlink:href="_transformer_8cpp.html" target="_top" xlink:title="transform/Transformer.cpp">
<polygon fill="white" stroke="black" points="1178,-140 1178,-159 1313,-159 1313,-140 1178,-140"/>
<text text-anchor="middle" x="1245.5" y="-147" font-family="Helvetica,sans-Serif" font-size="10.00">transform/Transformer.cpp</text>
</a>
</g>
</g>
<!-- Node26&#45;&gt;Node34 -->
<g id="edge40" class="edge"><title>Node26&#45;&gt;Node34</title>
<path fill="none" stroke="midnightblue" d="M1100.3,-198.232C1135.48,-186.666 1188.32,-169.297 1219.62,-159.009"/>
<polygon fill="midnightblue" stroke="midnightblue" points="1098.84,-195.027 1090.43,-201.475 1101.03,-201.677 1098.84,-195.027"/>
</g>
<!-- Node28 -->
<g id="node28" class="node"><title>Node28</title>
<g id="a_node28"><a xlink:href="_chart_to_c_8cpp.html" target="_top" xlink:title="transform/ChartToC.cpp">
<polygon fill="white" stroke="black" points="1002.5,-73 1002.5,-92 1126.5,-92 1126.5,-73 1002.5,-73"/>
<text text-anchor="middle" x="1064.5" y="-80" font-family="Helvetica,sans-Serif" font-size="10.00">transform/ChartToC.cpp</text>
</a>
</g>
</g>
<!-- Node27&#45;&gt;Node28 -->
<g id="edge32" class="edge"><title>Node27&#45;&gt;Node28</title>
<path fill="none" stroke="midnightblue" d="M1064.5,-129.537C1064.5,-117.17 1064.5,-101.62 1064.5,-92.1273"/>
<polygon fill="midnightblue" stroke="midnightblue" points="1061,-129.734 1064.5,-139.734 1068,-129.734 1061,-129.734"/>
</g>
<!-- Node27&#45;&gt;Node29 -->
<g id="edge33" class="edge"><title>Node27&#45;&gt;Node29</title>
<path fill="none" stroke="midnightblue" d="M1034.76,-135.781C1004.66,-122.909 958.929,-103.355 932.768,-92.1672"/>
<polygon fill="midnightblue" stroke="midnightblue" points="1033.74,-139.155 1044.32,-139.869 1036.5,-132.718 1033.74,-139.155"/>
</g>
<!-- Node27&#45;&gt;Node32 -->
<g id="edge36" class="edge"><title>Node27&#45;&gt;Node32</title>
<path fill="none" stroke="midnightblue" d="M1093.26,-135.781C1122.38,-122.909 1166.6,-103.355 1191.9,-92.1672"/>
<polygon fill="midnightblue" stroke="midnightblue" points="1091.75,-132.623 1084.02,-139.869 1094.58,-139.025 1091.75,-132.623"/>
</g>
<!-- Node30 -->
<g id="node30" class="node"><title>Node30</title>
<g id="a_node30"><a xlink:href="_chart_to_promela_8cpp.html" target="_top" xlink:title="transform/ChartToPromela.cpp">
<polygon fill="white" stroke="black" points="901.5,-6 901.5,-25 1055.5,-25 1055.5,-6 901.5,-6"/>
<text text-anchor="middle" x="978.5" y="-13" font-family="Helvetica,sans-Serif" font-size="10.00">transform/ChartToPromela.cpp</text>
</a>
</g>
</g>
<!-- Node29&#45;&gt;Node30 -->
<g id="edge34" class="edge"><title>Node29&#45;&gt;Node30</title>
<path fill="none" stroke="midnightblue" d="M928.749,-65.4968C941.693,-52.7496 959.315,-35.3947 969.74,-25.1273"/>
<polygon fill="midnightblue" stroke="midnightblue" points="926.07,-63.2232 921.401,-72.7338 930.982,-68.2106 926.07,-63.2232"/>
</g>
<!-- Node31 -->
<g id="node31" class="node"><title>Node31</title>
<g id="a_node31"><a xlink:href="_promela_code_analyzer_8cpp.html" target="_top" xlink:title="transform/promela/Promela\lCodeAnalyzer.cpp">
<polygon fill="white" stroke="black" points="745.5,-0.5 745.5,-30.5 883.5,-30.5 883.5,-0.5 745.5,-0.5"/>
<text text-anchor="start" x="753.5" y="-18.5" font-family="Helvetica,sans-Serif" font-size="10.00">transform/promela/Promela</text>
<text text-anchor="middle" x="814.5" y="-7.5" font-family="Helvetica,sans-Serif" font-size="10.00">CodeAnalyzer.cpp</text>
</a>
</g>
</g>
<!-- Node29&#45;&gt;Node31 -->
<g id="edge35" class="edge"><title>Node29&#45;&gt;Node31</title>
<path fill="none" stroke="midnightblue" d="M890.869,-67.1526C874.468,-56.2748 852.046,-41.4029 835.742,-30.589"/>
<polygon fill="midnightblue" stroke="midnightblue" points="889.015,-70.1232 899.283,-72.7338 892.884,-64.2897 889.015,-70.1232"/>
</g>
<!-- Node33 -->
<g id="node33" class="node"><title>Node33</title>
<g id="a_node33"><a xlink:href="_chart_to_v_h_d_l_8cpp.html" target="_top" xlink:title="transform/ChartToVHDL.cpp">
<polygon fill="white" stroke="black" points="1140,-6 1140,-25 1283,-25 1283,-6 1140,-6"/>
<text text-anchor="middle" x="1211.5" y="-13" font-family="Helvetica,sans-Serif" font-size="10.00">transform/ChartToVHDL.cpp</text>
</a>
</g>
</g>
<!-- Node32&#45;&gt;Node33 -->
<g id="edge37" class="edge"><title>Node32&#45;&gt;Node33</title>
<path fill="none" stroke="midnightblue" d="M1211.5,-62.537C1211.5,-50.1703 1211.5,-34.6198 1211.5,-25.1273"/>
<polygon fill="midnightblue" stroke="midnightblue" points="1208,-62.7338 1211.5,-72.7338 1215,-62.7338 1208,-62.7338"/>
</g>
</g>
</svg>
        <g id="navigator" transform="translate(0 0)" fill="#404254">
                <rect fill="#f2f5e9" fill-opacity="0.5" stroke="#606060" stroke-width=".5" x="0" y="0" width="60" height="60"/>
                <use id="zoomplus" xlink:href="#zoomPlus" x="17" y="9" onmousedown="handleZoom(evt,'in')"/>
                <use id="zoomminus" xlink:href="#zoomMin" x="42" y="9" onmousedown="handleZoom(evt,'out')"/>
                <use id="reset" xlink:href="#resetDef" x="30" y="36" onmousedown="handleReset()"/>
                <g id="arrowUp" xlink:href="#dirArrow" transform="translate(30 24)" onmousedown="handlePan(0,-1)">
                  <use xlink:href="#rim" fill="#404040">
                        <set attributeName="fill" to="#808080" begin="arrowUp.mouseover" end="arrowUp.mouseout"/>
                  </use>
                  <path fill="none" stroke="white" stroke-width="1.5" d="M0,-3.0v7 M-2.5,-0.5L0,-3.0L2.5,-0.5"/>
                </g>
                <g id="arrowRight" xlink:href="#dirArrow" transform="rotate(90) translate(36 -43)" onmousedown="handlePan(1,0)">
                  <use xlink:href="#rim" fill="#404040">
                        <set attributeName="fill" to="#808080" begin="arrowRight.mouseover" end="arrowRight.mouseout"/>
                  </use>
                  <path fill="none" stroke="white" stroke-width="1.5" d="M0,-3.0v7 M-2.5,-0.5L0,-3.0L2.5,-0.5"/>
                </g>
                <g id="arrowDown" xlink:href="#dirArrow" transform="rotate(180) translate(-30 -48)" onmousedown="handlePan(0,1)">
                  <use xlink:href="#rim" fill="#404040">
                        <set attributeName="fill" to="#808080" begin="arrowDown.mouseover" end="arrowDown.mouseout"/>
                  </use>
                  <path fill="none" stroke="white" stroke-width="1.5" d="M0,-3.0v7 M-2.5,-0.5L0,-3.0L2.5,-0.5"/>
                </g>
                <g id="arrowLeft" xlink:href="#dirArrow" transform="rotate(270) translate(-36 17)" onmousedown="handlePan(-1,0)">
                  <use xlink:href="#rim" fill="#404040">
                        <set attributeName="fill" to="#808080" begin="arrowLeft.mouseover" end="arrowLeft.mouseout"/>
                  </use>
                  <path fill="none" stroke="white" stroke-width="1.5" d="M0,-3.0v7 M-2.5,-0.5L0,-3.0L2.5,-0.5"/>
                </g>
        </g>
        <svg viewBox="0 0 15 15" width="100%" height="30px" preserveAspectRatio="xMaxYMin meet">
         <g id="arrow_out" transform="scale(0.3 0.3)">
          <a xlink:href="_micro_step_impl_8h__dep__incl_org.svg" target="_base">
           <rect id="button" ry="5" rx="5" y="6" x="6" height="38" width="38"
                fill="#f2f5e9" fill-opacity="0.5" stroke="#606060" stroke-width="1.0"/>
           <path id="arrow"
             d="M 11.500037,31.436501 C 11.940474,20.09759 22.043105,11.32322 32.158766,21.979434 L 37.068811,17.246167 C 37.068811,17.246167 37.088388,32 37.088388,32 L 22.160133,31.978069 C 22.160133,31.978069 26.997745,27.140456 26.997745,27.140456 C 18.528582,18.264221 13.291696,25.230495 11.500037,31.436501 z"
             style="fill:#404040;"/>
          </a>
         </g>
        </svg>
</svg>
