<?xml version="1.0" encoding="UTF-8" standalone="no"?>
<!DOCTYPE svg PUBLIC "-//W3C//DTD SVG 1.1//EN"
 "http://www.w3.org/Graphics/SVG/1.1/DTD/svg11.dtd">
<!-- Generated by graphviz version 2.38.0 (20140413.2041)
 -->
<!-- Title: interpreter/MicroStepImpl.h Pages: 1 -->
<svg width="1323pt" height="274pt"
 viewBox="0.00 0.00 1322.50 274.00" xmlns="http://www.w3.org/2000/svg" xmlns:xlink="http://www.w3.org/1999/xlink">
<g id="graph0" class="graph" transform="scale(1 1) rotate(0) translate(4 270)">
<title>interpreter/MicroStepImpl.h</title>
<polygon fill="white" stroke="none" points="-4,4 -4,-270 1318.5,-270 1318.5,4 -4,4"/>
<!-- Node1 -->
<g id="node1" class="node"><title>Node1</title>
<polygon fill="#bfbfbf" stroke="black" points="517.5,-246.5 517.5,-265.5 654.5,-265.5 654.5,-246.5 517.5,-246.5"/>
<text text-anchor="middle" x="586" y="-253.5" font-family="Helvetica,sans-Serif" font-size="10.00">interpreter/MicroStepImpl.h</text>
</g>
<!-- Node2 -->
<g id="node2" class="node"><title>Node2</title>
<g id="a_node2"><a xlink:href="_fast_micro_step_8h.html" target="_top" xlink:title="interpreter/FastMicroStep.h">
<polygon fill="white" stroke="black" points="172,-190.5 172,-209.5 310,-209.5 310,-190.5 172,-190.5"/>
<text text-anchor="middle" x="241" y="-197.5" font-family="Helvetica,sans-Serif" font-size="10.00">interpreter/FastMicroStep.h</text>
</a>
</g>
</g>
<!-- Node1&#45;&gt;Node2 -->
<g id="edge1" class="edge"><title>Node1&#45;&gt;Node2</title>
<path fill="none" stroke="midnightblue" d="M521.177,-244.854C455.992,-234.651 356.624,-219.098 295.411,-209.516"/>
<polygon fill="midnightblue" stroke="midnightblue" points="520.913,-248.355 531.334,-246.444 521.995,-241.439 520.913,-248.355"/>
</g>
<!-- Node5 -->
<g id="node5" class="node"><title>Node5</title>
<g id="a_node5"><a xlink:href="_interpreter_impl_8h.html" target="_top" xlink:title="interpreter/InterpreterImpl.h">
<polygon fill="white" stroke="black" points="517,-190.5 517,-209.5 655,-209.5 655,-190.5 517,-190.5"/>
<text text-anchor="middle" x="586" y="-197.5" font-family="Helvetica,sans-Serif" font-size="10.00">interpreter/InterpreterImpl.h</text>
</a>
</g>
</g>
<!-- Node1&#45;&gt;Node5 -->
<g id="edge4" class="edge"><title>Node1&#45;&gt;Node5</title>
<path fill="none" stroke="midnightblue" d="M586,-235.805C586,-226.91 586,-216.78 586,-209.751"/>
<polygon fill="midnightblue" stroke="midnightblue" points="582.5,-236.083 586,-246.083 589.5,-236.083 582.5,-236.083"/>
</g>
<!-- Node19 -->
<g id="node19" class="node"><title>Node19</title>
<g id="a_node19"><a xlink:href="_micro_step_8cpp.html" target="_top" xlink:title="interpreter/MicroStep.cpp">
<polygon fill="white" stroke="black" points="673.5,-190.5 673.5,-209.5 802.5,-209.5 802.5,-190.5 673.5,-190.5"/>
<text text-anchor="middle" x="738" y="-197.5" font-family="Helvetica,sans-Serif" font-size="10.00">interpreter/MicroStep.cpp</text>
</a>
</g>
</g>
<!-- Node1&#45;&gt;Node19 -->
<g id="edge21" class="edge"><title>Node1&#45;&gt;Node19</title>
<path fill="none" stroke="midnightblue" d="M619.668,-243.039C648.268,-232.879 688.612,-218.546 714.028,-209.516"/>
<polygon fill="midnightblue" stroke="midnightblue" points="618.336,-239.798 610.085,-246.444 620.68,-246.394 618.336,-239.798"/>
</g>
<!-- Node3 -->
<g id="node3" class="node"><title>Node3</title>
<g id="a_node3"><a xlink:href="_fast_micro_step_8cpp.html" target="_top" xlink:title="interpreter/FastMicroStep.cpp">
<polygon fill="white" stroke="black" points="0,-129 0,-148 148,-148 148,-129 0,-129"/>
<text text-anchor="middle" x="74" y="-136" font-family="Helvetica,sans-Serif" font-size="10.00">interpreter/FastMicroStep.cpp</text>
</a>
</g>
</g>
<!-- Node2&#45;&gt;Node3 -->
<g id="edge2" class="edge"><title>Node2&#45;&gt;Node3</title>
<path fill="none" stroke="midnightblue" d="M207.552,-187.083C175.09,-175.517 126.633,-158.252 97.8826,-148.009"/>
<polygon fill="midnightblue" stroke="midnightblue" points="206.478,-190.416 217.073,-190.475 208.828,-183.822 206.478,-190.416"/>
</g>
<!-- Node4 -->
<g id="node4" class="node"><title>Node4</title>
<g id="a_node4"><a xlink:href="_interpreter_impl_8cpp.html" target="_top" xlink:title="interpreter/InterpreterImpl.cpp">
<polygon fill="white" stroke="black" points="166.5,-129 166.5,-148 315.5,-148 315.5,-129 166.5,-129"/>
<text text-anchor="middle" x="241" y="-136" font-family="Helvetica,sans-Serif" font-size="10.00">interpreter/InterpreterImpl.cpp</text>
</a>
</g>
</g>
<!-- Node2&#45;&gt;Node4 -->
<g id="edge3" class="edge"><title>Node2&#45;&gt;Node4</title>
<path fill="none" stroke="midnightblue" d="M241,-180.317C241,-169.496 241,-156.398 241,-148.009"/>
<polygon fill="midnightblue" stroke="midnightblue" points="237.5,-180.475 241,-190.475 244.5,-180.475 237.5,-180.475"/>
</g>
<!-- Node5&#45;&gt;Node4 -->
<g id="edge6" class="edge"><title>Node5&#45;&gt;Node4</title>
<path fill="none" stroke="midnightblue" d="M526.562,-188.756C473.661,-179.637 394.173,-165.934 325,-154 313.771,-152.063 301.697,-149.979 290.303,-148.012"/>
<polygon fill="midnightblue" stroke="midnightblue" points="526,-192.21 536.45,-190.46 527.189,-185.312 526,-192.21"/>
</g>
<!-- Node6 -->
<g id="node6" class="node"><title>Node6</title>
<g id="a_node6"><a xlink:href="_interpreter_issue_8cpp.html" target="_top" xlink:title="debug/InterpreterIssue.cpp">
<polygon fill="white" stroke="black" points="334,-129 334,-148 470,-148 470,-129 334,-129"/>
<text text-anchor="middle" x="402" y="-136" font-family="Helvetica,sans-Serif" font-size="10.00">debug/InterpreterIssue.cpp</text>
</a>
</g>
</g>
<!-- Node5&#45;&gt;Node6 -->
<g id="edge5" class="edge"><title>Node5&#45;&gt;Node6</title>
<path fill="none" stroke="midnightblue" d="M550.068,-187.381C514.303,-175.815 460.264,-158.341 428.314,-148.009"/>
<polygon fill="midnightblue" stroke="midnightblue" points="549.045,-190.728 559.637,-190.475 551.199,-184.068 549.045,-190.728"/>
</g>
<!-- Node7 -->
<g id="node7" class="node"><title>Node7</title>
<g id="a_node7"><a xlink:href="_interpreter_8cpp.html" target="_top" xlink:title="Interpreter.cpp">
<polygon fill="white" stroke="black" points="488,-129 488,-148 570,-148 570,-129 488,-129"/>
<text text-anchor="middle" x="529" y="-136" font-family="Helvetica,sans-Serif" font-size="10.00">Interpreter.cpp</text>
</a>
</g>
</g>
<!-- Node5&#45;&gt;Node7 -->
<g id="edge7" class="edge"><title>Node5&#45;&gt;Node7</title>
<path fill="none" stroke="midnightblue" d="M570.67,-182.997C559.881,-171.736 545.865,-157.104 537.152,-148.009"/>
<polygon fill="midnightblue" stroke="midnightblue" points="568.388,-185.675 577.833,-190.475 573.443,-180.833 568.388,-185.675"/>
</g>
<!-- Node8 -->
<g id="node8" class="node"><title>Node8</title>
<g id="a_node8"><a xlink:href="_u_s_c_x_m_l_invoker_8h.html" target="_top" xlink:title="plugins/invoker/scxml\l/USCXMLInvoker.h">
<polygon fill="white" stroke="black" points="588,-123.5 588,-153.5 700,-153.5 700,-123.5 588,-123.5"/>
<text text-anchor="start" x="596" y="-141.5" font-family="Helvetica,sans-Serif" font-size="10.00">plugins/invoker/scxml</text>
<text text-anchor="middle" x="644" y="-130.5" font-family="Helvetica,sans-Serif" font-size="10.00">/USCXMLInvoker.h</text>
</a>
</g>
</g>
<!-- Node5&#45;&gt;Node8 -->
<g id="edge8" class="edge"><title>Node5&#45;&gt;Node8</title>
<path fill="none" stroke="midnightblue" d="M601.508,-183.091C610.486,-173.88 621.684,-162.393 630.331,-153.523"/>
<polygon fill="midnightblue" stroke="midnightblue" points="598.784,-180.871 594.31,-190.475 603.797,-185.757 598.784,-180.871"/>
</g>
<!-- Node11 -->
<g id="node11" class="node"><title>Node11</title>
<g id="a_node11"><a xlink:href="_basic_h_t_t_p_i_o_processor_8h.html" target="_top" xlink:title="plugins/ioprocessor\l/basichttp/BasicHTTPIOProcessor.h">
<polygon fill="white" stroke="black" points="718.5,-123.5 718.5,-153.5 895.5,-153.5 895.5,-123.5 718.5,-123.5"/>
<text text-anchor="start" x="726.5" y="-141.5" font-family="Helvetica,sans-Serif" font-size="10.00">plugins/ioprocessor</text>
<text text-anchor="middle" x="807" y="-130.5" font-family="Helvetica,sans-Serif" font-size="10.00">/basichttp/BasicHTTPIOProcessor.h</text>
</a>
</g>
</g>
<!-- Node5&#45;&gt;Node11 -->
<g id="edge11" class="edge"><title>Node5&#45;&gt;Node11</title>
<path fill="none" stroke="midnightblue" d="M627.381,-187.859C663.464,-178.144 715.98,-164.006 754.915,-153.523"/>
<polygon fill="midnightblue" stroke="midnightblue" points="626.41,-184.496 617.664,-190.475 628.23,-191.255 626.41,-184.496"/>
</g>
<!-- Node13 -->
<g id="node13" class="node"><title>Node13</title>
<g id="a_node13"><a xlink:href="_s_c_x_m_l_i_o_processor_8cpp.html" target="_top" xlink:title="plugins/ioprocessor\l/scxml/SCXMLIOProcessor.cpp">
<polygon fill="white" stroke="black" points="913.5,-123.5 913.5,-153.5 1070.5,-153.5 1070.5,-123.5 913.5,-123.5"/>
<text text-anchor="start" x="921.5" y="-141.5" font-family="Helvetica,sans-Serif" font-size="10.00">plugins/ioprocessor</text>
<text text-anchor="middle" x="992" y="-130.5" font-family="Helvetica,sans-Serif" font-size="10.00">/scxml/SCXMLIOProcessor.cpp</text>
</a>
</g>
</g>
<!-- Node5&#45;&gt;Node13 -->
<g id="edge14" class="edge"><title>Node5&#45;&gt;Node13</title>
<path fill="none" stroke="midnightblue" d="M660.027,-189.091C724.73,-180.303 821.175,-166.896 905,-154 907.724,-153.581 910.495,-153.149 913.294,-152.708"/>
<polygon fill="midnightblue" stroke="midnightblue" points="659.361,-185.649 649.922,-190.461 660.302,-192.586 659.361,-185.649"/>
</g>
<!-- Node14 -->
<g id="node14" class="node"><title>Node14</title>
<g id="a_node14"><a xlink:href="_transformer_8h.html" target="_top" xlink:title="transform/Transformer.h">
<polygon fill="white" stroke="black" points="1089,-129 1089,-148 1213,-148 1213,-129 1089,-129"/>
<text text-anchor="middle" x="1151" y="-136" font-family="Helvetica,sans-Serif" font-size="10.00">transform/Transformer.h</text>
</a>
</g>
</g>
<!-- Node5&#45;&gt;Node14 -->
<g id="edge15" class="edge"><title>Node5&#45;&gt;Node14</title>
<path fill="none" stroke="midnightblue" d="M665.44,-189.992C850.927,-171.827 900,-180.099 1080,-154 1090.83,-152.429 1102.5,-150.252 1113.19,-148.061"/>
<polygon fill="midnightblue" stroke="midnightblue" points="664.956,-186.522 655.351,-190.992 665.647,-193.488 664.956,-186.522"/>
</g>
<!-- Node9 -->
<g id="node9" class="node"><title>Node9</title>
<g id="a_node9"><a xlink:href="_factory_8cpp.html" target="_top" xlink:title="plugins/Factory.cpp">
<polygon fill="white" stroke="black" points="637.5,-62 637.5,-81 740.5,-81 740.5,-62 637.5,-62"/>
<text text-anchor="middle" x="689" y="-69" font-family="Helvetica,sans-Serif" font-size="10.00">plugins/Factory.cpp</text>
</a>
</g>
</g>
<!-- Node8&#45;&gt;Node9 -->
<g id="edge9" class="edge"><title>Node8&#45;&gt;Node9</title>
<path fill="none" stroke="midnightblue" d="M659.595,-114.974C667.655,-103.332 677.024,-89.7985 682.981,-81.1945"/>
<polygon fill="midnightblue" stroke="midnightblue" points="656.579,-113.182 653.764,-123.396 662.334,-117.166 656.579,-113.182"/>
</g>
<!-- Node10 -->
<g id="node10" class="node"><title>Node10</title>
<g id="a_node10"><a xlink:href="_u_s_c_x_m_l_invoker_8cpp.html" target="_top" xlink:title="plugins/invoker/scxml\l/USCXMLInvoker.cpp">
<polygon fill="white" stroke="black" points="506.5,-56.5 506.5,-86.5 619.5,-86.5 619.5,-56.5 506.5,-56.5"/>
<text text-anchor="start" x="514.5" y="-74.5" font-family="Helvetica,sans-Serif" font-size="10.00">plugins/invoker/scxml</text>
<text text-anchor="middle" x="563" y="-63.5" font-family="Helvetica,sans-Serif" font-size="10.00">/USCXMLInvoker.cpp</text>
</a>
</g>
</g>
<!-- Node8&#45;&gt;Node10 -->
<g id="edge10" class="edge"><title>Node8&#45;&gt;Node10</title>
<path fill="none" stroke="midnightblue" d="M618.308,-116.883C605.999,-107.005 591.573,-95.4293 580.541,-86.5765"/>
<polygon fill="midnightblue" stroke="midnightblue" points="616.434,-119.867 626.424,-123.396 620.815,-114.407 616.434,-119.867"/>
</g>
<!-- Node11&#45;&gt;Node9 -->
<g id="edge12" class="edge"><title>Node11&#45;&gt;Node9</title>
<path fill="none" stroke="midnightblue" d="M772.458,-118.473C749.932,-106.064 721.625,-90.4716 704.443,-81.007"/>
<polygon fill="midnightblue" stroke="midnightblue" points="770.948,-121.637 781.396,-123.396 774.325,-115.505 770.948,-121.637"/>
</g>
<!-- Node12 -->
<g id="node12" class="node"><title>Node12</title>
<g id="a_node12"><a xlink:href="_basic_h_t_t_p_i_o_processor_8cpp.html" target="_top" xlink:title="plugins/ioprocessor\l/basichttp/BasicHTTPIOProcessor.cpp">
<polygon fill="white" stroke="black" points="758.5,-56.5 758.5,-86.5 945.5,-86.5 945.5,-56.5 758.5,-56.5"/>
<text text-anchor="start" x="766.5" y="-74.5" font-family="Helvetica,sans-Serif" font-size="10.00">plugins/ioprocessor</text>
<text text-anchor="middle" x="852" y="-63.5" font-family="Helvetica,sans-Serif" font-size="10.00">/basichttp/BasicHTTPIOProcessor.cpp</text>
</a>
</g>
</g>
<!-- Node11&#45;&gt;Node12 -->
<g id="edge13" class="edge"><title>Node11&#45;&gt;Node12</title>
<path fill="none" stroke="midnightblue" d="M822.468,-115.157C829.03,-105.679 836.479,-94.9186 842.255,-86.5765"/>
<polygon fill="midnightblue" stroke="midnightblue" points="819.579,-113.182 816.764,-123.396 825.334,-117.166 819.579,-113.182"/>
</g>
<!-- Node15 -->
<g id="node15" class="node"><title>Node15</title>
<g id="a_node15"><a xlink:href="_chart_to_c_8h.html" target="_top" xlink:title="transform/ChartToC.h">
<polygon fill="white" stroke="black" points="1009.5,-62 1009.5,-81 1122.5,-81 1122.5,-62 1009.5,-62"/>
<text text-anchor="middle" x="1066" y="-69" font-family="Helvetica,sans-Serif" font-size="10.00">transform/ChartToC.h</text>
</a>
</g>
</g>
<!-- Node14&#45;&gt;Node15 -->
<g id="edge16" class="edge"><title>Node14&#45;&gt;Node15</title>
<path fill="none" stroke="midnightblue" d="M1131.47,-122.568C1114.7,-109.738 1091.09,-91.6853 1077.28,-81.1273"/>
<polygon fill="midnightblue" stroke="midnightblue" points="1129.47,-125.44 1139.54,-128.734 1133.72,-119.879 1129.47,-125.44"/>
</g>
<!-- Node17 -->
<g id="node17" class="node"><title>Node17</title>
<g id="a_node17"><a xlink:href="_chart_to_v_h_d_l_8h.html" target="_top" xlink:title="transform/ChartToVHDL.h">
<polygon fill="white" stroke="black" points="1084.5,-0.5 1084.5,-19.5 1217.5,-19.5 1217.5,-0.5 1084.5,-0.5"/>
<text text-anchor="middle" x="1151" y="-7.5" font-family="Helvetica,sans-Serif" font-size="10.00">transform/ChartToVHDL.h</text>
</a>
</g>
</g>
<!-- Node14&#45;&gt;Node17 -->
<g id="edge19" class="edge"><title>Node14&#45;&gt;Node17</title>
<path fill="none" stroke="midnightblue" d="M1151,-118.435C1151,-90.6238 1151,-40.0373 1151,-19.7557"/>
<polygon fill="midnightblue" stroke="midnightblue" points="1147.5,-118.805 1151,-128.805 1154.5,-118.805 1147.5,-118.805"/>
</g>
<!-- Node18 -->
<g id="node18" class="node"><title>Node18</title>
<g id="a_node18"><a xlink:href="_transformer_8cpp.html" target="_top" xlink:title="transform/Transformer.cpp">
<polygon fill="white" stroke="black" points="1179.5,-62 1179.5,-81 1314.5,-81 1314.5,-62 1179.5,-62"/>
<text text-anchor="middle" x="1247" y="-69" font-family="Helvetica,sans-Serif" font-size="10.00">transform/Transformer.cpp</text>
</a>
</g>
</g>
<!-- Node14&#45;&gt;Node18 -->
<g id="edge20" class="edge"><title>Node14&#45;&gt;Node18</title>
<path fill="none" stroke="midnightblue" d="M1172.28,-123.095C1191.27,-110.236 1218.45,-91.8306 1234.26,-81.1273"/>
<polygon fill="midnightblue" stroke="midnightblue" points="1170.27,-120.229 1163.95,-128.734 1174.19,-126.025 1170.27,-120.229"/>
</g>
<!-- Node16 -->
<g id="node16" class="node"><title>Node16</title>
<g id="a_node16"><a xlink:href="_chart_to_c_8cpp.html" target="_top" xlink:title="transform/ChartToC.cpp">
<polygon fill="white" stroke="black" points="942,-0.5 942,-19.5 1066,-19.5 1066,-0.5 942,-0.5"/>
<text text-anchor="middle" x="1004" y="-7.5" font-family="Helvetica,sans-Serif" font-size="10.00">transform/ChartToC.cpp</text>
</a>
</g>
</g>
<!-- Node15&#45;&gt;Node16 -->
<g id="edge17" class="edge"><title>Node15&#45;&gt;Node16</title>
<path fill="none" stroke="midnightblue" d="M1049.67,-54.8245C1037.89,-43.5202 1022.44,-28.6928 1012.87,-19.5091"/>
<polygon fill="midnightblue" stroke="midnightblue" points="1047.48,-57.5762 1057.12,-61.9751 1052.33,-52.5257 1047.48,-57.5762"/>
</g>
<!-- Node15&#45;&gt;Node17 -->
<g id="edge18" class="edge"><title>Node15&#45;&gt;Node17</title>
<path fill="none" stroke="midnightblue" d="M1086.55,-56.1127C1102.9,-44.6691 1125.22,-29.046 1138.84,-19.5091"/>
<polygon fill="midnightblue" stroke="midnightblue" points="1084.36,-53.3731 1078.18,-61.9751 1088.38,-59.1078 1084.36,-53.3731"/>
</g>
</g>
</svg>
