<?xml version="1.0" encoding="UTF-8" standalone="no"?>
<!DOCTYPE svg PUBLIC "-//W3C//DTD SVG 1.1//EN"
 "http://www.w3.org/Graphics/SVG/1.1/DTD/svg11.dtd">
<!-- Generated by graphviz version 2.38.0 (20140413.2041)
 -->
<!-- Title: plugins/datamodel/null/NULLDataModel.h Pages: 1 -->
<!--zoomable 509 -->
<svg id="main" version="1.1" xmlns="http://www.w3.org/2000/svg" xmlns:xlink="http://www.w3.org/1999/xlink" xml:space="preserve" onload="init(evt)">
<style type="text/css"><![CDATA[
.edge:hover path { stroke: red; }
.edge:hover polygon { stroke: red; fill: red; }
]]></style>
<script type="text/javascript"><![CDATA[
var edges = document.getElementsByTagName('g');
if (edges && edges.length) {
  for (var i=0;i<edges.length;i++) {
    if (edges[i].id.substr(0,4)=='edge') {
      edges[i].setAttribute('class','edge');
    }
  }
}
]]></script>
        <defs>
                <circle id="rim" cx="0" cy="0" r="7"/>
                <circle id="rim2" cx="0" cy="0" r="3.5"/>
                <g id="zoomPlus">
                        <use xlink:href="#rim" fill="#404040">
                                <set attributeName="fill" to="#808080" begin="zoomplus.mouseover" end="zoomplus.mouseout"/>
                        </use>
                        <path d="M-4,0h8M0,-4v8" fill="none" stroke="white" stroke-width="1.5" pointer-events="none"/>
                </g>
                <g id="zoomMin">
                        <use xlink:href="#rim" fill="#404040">
                                <set attributeName="fill" to="#808080" begin="zoomminus.mouseover" end="zoomminus.mouseout"/>
                        </use>
                        <path d="M-4,0h8" fill="none" stroke="white" stroke-width="1.5" pointer-events="none"/>
                </g>
                <g id="dirArrow">
                        <path fill="none" stroke="white" stroke-width="1.5" d="M0,-3.0v7 M-2.5,-0.5L0,-3.0L2.5,-0.5"/>
                </g>
               <g id="resetDef">
                       <use xlink:href="#rim2" fill="#404040">
                               <set attributeName="fill" to="#808080" begin="reset.mouseover" end="reset.mouseout"/>
                       </use>
               </g>
        </defs>

<script type="text/javascript">
var viewWidth = 973;
var viewHeight = 509;
var sectionId = 'dynsection-0';
</script>
<script xlink:href="svgpan.js"/>
<svg id="graph" class="graph">
<g id="viewport">
<title>plugins/datamodel/null/NULLDataModel.h</title>
<polygon fill="white" stroke="none" points="-4,4 -4,-505 968.794,-505 968.794,4 -4,4"/>
<!-- Node1 -->
<g id="node1" class="node"><title>Node1</title>
<polygon fill="#bfbfbf" stroke="black" points="667.794,-470.5 667.794,-500.5 783.794,-500.5 783.794,-470.5 667.794,-470.5"/>
<text text-anchor="start" x="675.794" y="-488.5" font-family="Helvetica,sans-Serif" font-size="10.00">plugins/datamodel/null</text>
<text text-anchor="middle" x="725.794" y="-477.5" font-family="Helvetica,sans-Serif" font-size="10.00">/NULLDataModel.h</text>
</g>
<!-- Node2 -->
<g id="node2" class="node"><title>Node2</title>
<g id="a_node2"><a xlink:href="_data_model_impl_8h.html" target="_top" xlink:title="uscxml/plugins/DataModel\lImpl.h">
<polygon fill="white" stroke="black" points="358.294,-403.5 358.294,-433.5 491.294,-433.5 491.294,-403.5 358.294,-403.5"/>
<text text-anchor="start" x="366.294" y="-421.5" font-family="Helvetica,sans-Serif" font-size="10.00">uscxml/plugins/DataModel</text>
<text text-anchor="middle" x="424.794" y="-410.5" font-family="Helvetica,sans-Serif" font-size="10.00">Impl.h</text>
</a>
</g>
</g>
<!-- Node1&#45;&gt;Node2 -->
<g id="edge1" class="edge"><title>Node1&#45;&gt;Node2</title>
<path fill="none" stroke="midnightblue" d="M667.758,-471.967C619.852,-461.622 551.537,-446.87 499.541,-435.641"/>
<polygon fill="midnightblue" stroke="midnightblue" points="500.215,-432.206 489.701,-433.517 498.737,-439.049 500.215,-432.206"/>
</g>
<!-- Node10 -->
<g id="node10" class="node"><title>Node10</title>
<polygon fill="white" stroke="#bfbfbf" points="879.294,-112.5 879.294,-131.5 908.294,-131.5 908.294,-112.5 879.294,-112.5"/>
<text text-anchor="middle" x="893.794" y="-119.5" font-family="Helvetica,sans-Serif" font-size="10.00">list</text>
</g>
<!-- Node1&#45;&gt;Node10 -->
<g id="edge44" class="edge"><title>Node1&#45;&gt;Node10</title>
<path fill="none" stroke="midnightblue" d="M783.954,-478.977C854.699,-468.687 964.794,-439.57 964.794,-358 964.794,-358 964.794,-358 964.794,-294.5 964.794,-234.018 926.63,-170.037 906.263,-140.198"/>
<polygon fill="midnightblue" stroke="midnightblue" points="908.952,-137.937 900.346,-131.758 903.22,-141.955 908.952,-137.937"/>
</g>
<!-- Node3 -->
<g id="node3" class="node"><title>Node3</title>
<g id="a_node3"><a xlink:href="_common_8h.html" target="_top" xlink:title="uscxml/Common.h">
<polygon fill="white" stroke="black" points="143.294,-56.5 143.294,-75.5 242.294,-75.5 242.294,-56.5 143.294,-56.5"/>
<text text-anchor="middle" x="192.794" y="-63.5" font-family="Helvetica,sans-Serif" font-size="10.00">uscxml/Common.h</text>
</a>
</g>
</g>
<!-- Node2&#45;&gt;Node3 -->
<g id="edge2" class="edge"><title>Node2&#45;&gt;Node3</title>
<path fill="none" stroke="midnightblue" d="M358.24,-417.607C257.378,-416.402 72.294,-408.41 22.7939,-367 -2.38176,-345.939 0.793921,-329.324 0.793921,-296.5 0.793921,-296.5 0.793921,-296.5 0.793921,-177 0.793921,-115.21 76.5861,-87.6418 132.931,-75.6844"/>
<polygon fill="midnightblue" stroke="midnightblue" points="133.733,-79.0934 142.849,-73.6954 132.356,-72.2301 133.733,-79.0934"/>
</g>
<!-- Node6 -->
<g id="node6" class="node"><title>Node6</title>
<g id="a_node6"><a xlink:href="_invoker_8h.html" target="_top" xlink:title="uscxml/plugins/Invoker.h">
<polygon fill="white" stroke="black" points="205.794,-347.5 205.794,-366.5 331.794,-366.5 331.794,-347.5 205.794,-347.5"/>
<text text-anchor="middle" x="268.794" y="-354.5" font-family="Helvetica,sans-Serif" font-size="10.00">uscxml/plugins/Invoker.h</text>
</a>
</g>
</g>
<!-- Node2&#45;&gt;Node6 -->
<g id="edge5" class="edge"><title>Node2&#45;&gt;Node6</title>
<path fill="none" stroke="midnightblue" d="M387.824,-403.399C361.416,-393.327 326.237,-379.909 300.982,-370.277"/>
<polygon fill="midnightblue" stroke="midnightblue" points="302.084,-366.951 291.493,-366.658 299.589,-373.492 302.084,-366.951"/>
</g>
<!-- Node2&#45;&gt;Node10 -->
<g id="edge41" class="edge"><title>Node2&#45;&gt;Node10</title>
<path fill="none" stroke="midnightblue" d="M491.768,-413.956C620.264,-405.317 888.794,-377.564 888.794,-296.5 888.794,-296.5 888.794,-296.5 888.794,-233 888.794,-200.915 890.943,-163.62 892.423,-141.737"/>
<polygon fill="midnightblue" stroke="midnightblue" points="895.929,-141.773 893.14,-131.552 888.947,-141.281 895.929,-141.773"/>
</g>
<!-- Node12 -->
<g id="node12" class="node"><title>Node12</title>
<polygon fill="white" stroke="#bfbfbf" points="786.294,-56.5 786.294,-75.5 839.294,-75.5 839.294,-56.5 786.294,-56.5"/>
<text text-anchor="middle" x="812.794" y="-63.5" font-family="Helvetica,sans-Serif" font-size="10.00">memory</text>
</g>
<!-- Node2&#45;&gt;Node12 -->
<g id="edge43" class="edge"><title>Node2&#45;&gt;Node12</title>
<path fill="none" stroke="midnightblue" d="M491.359,-413.856C591.047,-407.632 773.825,-393.031 833.794,-367 869.394,-351.547 882.713,-345.34 900.794,-311 942.149,-232.456 966.659,-186.106 917.794,-112 902.7,-89.1097 873.286,-77.8188 849.421,-72.2748"/>
<polygon fill="midnightblue" stroke="midnightblue" points="850.094,-68.8399 839.591,-70.2336 848.671,-75.6937 850.094,-68.8399"/>
</g>
<!-- Node14 -->
<g id="node14" class="node"><title>Node14</title>
<polygon fill="white" stroke="#bfbfbf" points="326.294,-56.5 326.294,-75.5 367.294,-75.5 367.294,-56.5 326.294,-56.5"/>
<text text-anchor="middle" x="346.794" y="-63.5" font-family="Helvetica,sans-Serif" font-size="10.00">string</text>
</g>
<!-- Node2&#45;&gt;Node14 -->
<g id="edge42" class="edge"><title>Node2&#45;&gt;Node14</title>
<path fill="none" stroke="midnightblue" d="M421.64,-403.326C409.378,-348.226 364.877,-148.256 350.974,-85.7822"/>
<polygon fill="midnightblue" stroke="midnightblue" points="354.337,-84.784 348.748,-75.7831 347.504,-86.3046 354.337,-84.784"/>
</g>
<!-- Node19 -->
<g id="node19" class="node"><title>Node19</title>
<g id="a_node19"><a xlink:href="_i_o_processor_8h.html" target="_top" xlink:title="uscxml/plugins/IOProcessor.h">
<polygon fill="white" stroke="black" points="32.2939,-347.5 32.2939,-366.5 181.294,-366.5 181.294,-347.5 32.2939,-347.5"/>
<text text-anchor="middle" x="106.794" y="-354.5" font-family="Helvetica,sans-Serif" font-size="10.00">uscxml/plugins/IOProcessor.h</text>
</a>
</g>
</g>
<!-- Node2&#45;&gt;Node19 -->
<g id="edge31" class="edge"><title>Node2&#45;&gt;Node19</title>
<path fill="none" stroke="midnightblue" d="M358.131,-405.027C300.008,-394.152 216.693,-378.563 162.173,-368.362"/>
<polygon fill="midnightblue" stroke="midnightblue" points="162.814,-364.921 152.341,-366.522 161.527,-371.802 162.814,-364.921"/>
</g>
<!-- Node20 -->
<g id="node20" class="node"><title>Node20</title>
<g id="a_node20"><a xlink:href="_logging_8h.html" target="_top" xlink:title="uscxml/interpreter\l/Logging.h">
<polygon fill="white" stroke="black" points="525.794,-280.5 525.794,-310.5 621.794,-310.5 621.794,-280.5 525.794,-280.5"/>
<text text-anchor="start" x="533.794" y="-298.5" font-family="Helvetica,sans-Serif" font-size="10.00">uscxml/interpreter</text>
<text text-anchor="middle" x="573.794" y="-287.5" font-family="Helvetica,sans-Serif" font-size="10.00">/Logging.h</text>
</a>
</g>
</g>
<!-- Node2&#45;&gt;Node20 -->
<g id="edge35" class="edge"><title>Node2&#45;&gt;Node20</title>
<path fill="none" stroke="midnightblue" d="M442.178,-403.383C468.421,-382.071 518.296,-341.569 548.545,-317.004"/>
<polygon fill="midnightblue" stroke="midnightblue" points="550.964,-319.548 556.521,-310.527 546.552,-314.114 550.964,-319.548"/>
</g>
<!-- Node4 -->
<g id="node4" class="node"><title>Node4</title>
<polygon fill="white" stroke="#bfbfbf" points="118.794,-0.5 118.794,-19.5 190.794,-19.5 190.794,-0.5 118.794,-0.5"/>
<text text-anchor="middle" x="154.794" y="-7.5" font-family="Helvetica,sans-Serif" font-size="10.00">sys/socket.h</text>
</g>
<!-- Node3&#45;&gt;Node4 -->
<g id="edge3" class="edge"><title>Node3&#45;&gt;Node4</title>
<path fill="none" stroke="midnightblue" d="M186.519,-56.083C181.151,-48.4554 173.276,-37.2645 166.715,-27.9408"/>
<polygon fill="midnightblue" stroke="midnightblue" points="169.569,-25.9149 160.952,-19.7511 163.845,-29.9434 169.569,-25.9149"/>
</g>
<!-- Node5 -->
<g id="node5" class="node"><title>Node5</title>
<polygon fill="white" stroke="#bfbfbf" points="208.794,-0.5 208.794,-19.5 252.794,-19.5 252.794,-0.5 208.794,-0.5"/>
<text text-anchor="middle" x="230.794" y="-7.5" font-family="Helvetica,sans-Serif" font-size="10.00">cmath</text>
</g>
<!-- Node3&#45;&gt;Node5 -->
<g id="edge4" class="edge"><title>Node3&#45;&gt;Node5</title>
<path fill="none" stroke="midnightblue" d="M199.069,-56.083C204.436,-48.4554 212.312,-37.2645 218.873,-27.9408"/>
<polygon fill="midnightblue" stroke="midnightblue" points="221.743,-29.9434 224.636,-19.7511 216.018,-25.9149 221.743,-29.9434"/>
</g>
<!-- Node6&#45;&gt;Node3 -->
<g id="edge6" class="edge"><title>Node6&#45;&gt;Node3</title>
<path fill="none" stroke="midnightblue" d="M205.757,-350.698C179.186,-345.013 150.579,-333.616 133.794,-311 81.0662,-239.957 88.0187,-190.516 128.794,-112 135.947,-98.2262 149.465,-87.783 162.241,-80.4413"/>
<polygon fill="midnightblue" stroke="midnightblue" points="164.11,-83.412 171.311,-75.6403 160.836,-77.2252 164.11,-83.412"/>
</g>
<!-- Node7 -->
<g id="node7" class="node"><title>Node7</title>
<g id="a_node7"><a xlink:href="_event_handler_8h.html" target="_top" xlink:title="uscxml/plugins/EventHandler.h">
<polygon fill="white" stroke="black" points="142.794,-286 142.794,-305 296.794,-305 296.794,-286 142.794,-286"/>
<text text-anchor="middle" x="219.794" y="-293" font-family="Helvetica,sans-Serif" font-size="10.00">uscxml/plugins/EventHandler.h</text>
</a>
</g>
</g>
<!-- Node6&#45;&gt;Node7 -->
<g id="edge7" class="edge"><title>Node6&#45;&gt;Node7</title>
<path fill="none" stroke="midnightblue" d="M261.773,-347.475C254.351,-338.462 242.461,-324.025 233.227,-312.812"/>
<polygon fill="midnightblue" stroke="midnightblue" points="235.86,-310.503 226.801,-305.009 230.457,-314.953 235.86,-310.503"/>
</g>
<!-- Node8 -->
<g id="node8" class="node"><title>Node8</title>
<g id="a_node8"><a xlink:href="_event_8h.html" target="_top" xlink:title="uscxml/messages/Event.h">
<polygon fill="white" stroke="black" points="201.294,-224.5 201.294,-243.5 334.294,-243.5 334.294,-224.5 201.294,-224.5"/>
<text text-anchor="middle" x="267.794" y="-231.5" font-family="Helvetica,sans-Serif" font-size="10.00">uscxml/messages/Event.h</text>
</a>
</g>
</g>
<!-- Node6&#45;&gt;Node8 -->
<g id="edge30" class="edge"><title>Node6&#45;&gt;Node8</title>
<path fill="none" stroke="midnightblue" d="M279.232,-347.245C288.218,-338.969 300.54,-325.663 305.794,-311 310.441,-298.03 310.526,-292.939 305.794,-280 301.737,-268.908 293.606,-258.665 285.902,-250.763"/>
<polygon fill="midnightblue" stroke="midnightblue" points="288.156,-248.075 278.508,-243.695 283.319,-253.135 288.156,-248.075"/>
</g>
<!-- Node7&#45;&gt;Node3 -->
<g id="edge8" class="edge"><title>Node7&#45;&gt;Node3</title>
<path fill="none" stroke="midnightblue" d="M204.539,-285.943C190.455,-277.231 170.066,-262.408 158.794,-244 132.159,-200.504 139.383,-182.696 133.794,-132 132.82,-123.165 129.851,-119.966 133.794,-112 140.397,-98.6595 153.059,-88.1941 164.965,-80.7262"/>
<polygon fill="midnightblue" stroke="midnightblue" points="166.912,-83.6435 173.81,-75.6018 163.402,-77.5866 166.912,-83.6435"/>
</g>
<!-- Node7&#45;&gt;Node8 -->
<g id="edge9" class="edge"><title>Node7&#45;&gt;Node8</title>
<path fill="none" stroke="midnightblue" d="M226.671,-285.975C233.942,-276.962 245.589,-262.525 254.635,-251.312"/>
<polygon fill="midnightblue" stroke="midnightblue" points="257.375,-253.49 260.929,-243.509 251.927,-249.095 257.375,-253.49"/>
</g>
<!-- Node7&#45;&gt;Node10 -->
<g id="edge27" class="edge"><title>Node7&#45;&gt;Node10</title>
<path fill="none" stroke="midnightblue" d="M296.94,-293.153C383.678,-289.866 527.932,-279.033 646.794,-244 734.94,-218.02 830.143,-162.722 871.981,-136.866"/>
<polygon fill="midnightblue" stroke="midnightblue" points="873.9,-139.794 880.531,-131.531 870.195,-133.855 873.9,-139.794"/>
</g>
<!-- Node7&#45;&gt;Node12 -->
<g id="edge29" class="edge"><title>Node7&#45;&gt;Node12</title>
<path fill="none" stroke="midnightblue" d="M297.035,-292.159C415.07,-284.611 641.287,-253.971 780.794,-132 794.678,-119.861 803.155,-100.304 807.865,-85.809"/>
<polygon fill="midnightblue" stroke="midnightblue" points="811.31,-86.4982 810.759,-75.9177 804.591,-84.5325 811.31,-86.4982"/>
</g>
<!-- Node7&#45;&gt;Node14 -->
<g id="edge28" class="edge"><title>Node7&#45;&gt;Node14</title>
<path fill="none" stroke="midnightblue" d="M211.846,-285.792C200.684,-272.452 182.693,-246.173 191.794,-224 218.744,-158.343 287.886,-105.479 324.023,-81.2873"/>
<polygon fill="midnightblue" stroke="midnightblue" points="326.006,-84.172 332.453,-75.7642 322.17,-78.3167 326.006,-84.172"/>
</g>
<!-- Node9 -->
<g id="node9" class="node"><title>Node9</title>
<g id="a_node9"><a xlink:href="_data_8h.html" target="_top" xlink:title="uscxml/messages/Data.h">
<polygon fill="white" stroke="black" points="476.794,-168.5 476.794,-187.5 604.794,-187.5 604.794,-168.5 476.794,-168.5"/>
<text text-anchor="middle" x="540.794" y="-175.5" font-family="Helvetica,sans-Serif" font-size="10.00">uscxml/messages/Data.h</text>
</a>
</g>
</g>
<!-- Node8&#45;&gt;Node9 -->
<g id="edge10" class="edge"><title>Node8&#45;&gt;Node9</title>
<path fill="none" stroke="midnightblue" d="M311.052,-224.444C358.975,-214.964 436.272,-199.675 487.794,-189.483"/>
<polygon fill="midnightblue" stroke="midnightblue" points="488.608,-192.89 497.739,-187.516 487.25,-186.023 488.608,-192.89"/>
</g>
<!-- Node18 -->
<g id="node18" class="node"><title>Node18</title>
<g id="a_node18"><a xlink:href="_u_u_i_d_8h.html" target="_top" xlink:title="uscxml/util/UUID.h">
<polygon fill="white" stroke="black" points="143.294,-112.5 143.294,-131.5 242.294,-131.5 242.294,-112.5 143.294,-112.5"/>
<text text-anchor="middle" x="192.794" y="-119.5" font-family="Helvetica,sans-Serif" font-size="10.00">uscxml/util/UUID.h</text>
</a>
</g>
</g>
<!-- Node8&#45;&gt;Node18 -->
<g id="edge24" class="edge"><title>Node8&#45;&gt;Node18</title>
<path fill="none" stroke="midnightblue" d="M261.909,-224.368C249.532,-206.215 220.613,-163.802 204.378,-139.99"/>
<polygon fill="midnightblue" stroke="midnightblue" points="207.177,-137.882 198.652,-131.591 201.393,-141.825 207.177,-137.882"/>
</g>
<!-- Node9&#45;&gt;Node3 -->
<g id="edge14" class="edge"><title>Node9&#45;&gt;Node3</title>
<path fill="none" stroke="midnightblue" d="M513.777,-168.46C451.979,-148.926 300.239,-100.963 229.814,-78.7018"/>
<polygon fill="midnightblue" stroke="midnightblue" points="230.624,-75.2871 220.034,-75.6104 228.514,-81.9616 230.624,-75.2871"/>
</g>
<!-- Node9&#45;&gt;Node10 -->
<g id="edge11" class="edge"><title>Node9&#45;&gt;Node10</title>
<path fill="none" stroke="midnightblue" d="M596.728,-168.444C674.734,-156.511 812.924,-135.371 869.058,-126.784"/>
<polygon fill="midnightblue" stroke="midnightblue" points="869.793,-130.212 879.149,-125.24 868.734,-123.293 869.793,-130.212"/>
</g>
<!-- Node11 -->
<g id="node11" class="node"><title>Node11</title>
<polygon fill="white" stroke="#bfbfbf" points="558.794,-112.5 558.794,-131.5 594.794,-131.5 594.794,-112.5 558.794,-112.5"/>
<text text-anchor="middle" x="576.794" y="-119.5" font-family="Helvetica,sans-Serif" font-size="10.00">map</text>
</g>
<!-- Node9&#45;&gt;Node11 -->
<g id="edge12" class="edge"><title>Node9&#45;&gt;Node11</title>
<path fill="none" stroke="midnightblue" d="M546.739,-168.083C551.771,-160.534 559.131,-149.495 565.307,-140.23"/>
<polygon fill="midnightblue" stroke="midnightblue" points="568.325,-142.013 570.96,-131.751 562.501,-138.13 568.325,-142.013"/>
</g>
<!-- Node9&#45;&gt;Node12 -->
<g id="edge13" class="edge"><title>Node9&#45;&gt;Node12</title>
<path fill="none" stroke="midnightblue" d="M602.867,-168.474C656.839,-160.258 730.273,-146.905 755.794,-132 775.569,-120.451 792.02,-99.5786 802.084,-84.5994"/>
<polygon fill="midnightblue" stroke="midnightblue" points="805.297,-86.0719 807.746,-75.764 799.404,-82.2948 805.297,-86.0719"/>
</g>
<!-- Node13 -->
<g id="node13" class="node"><title>Node13</title>
<g id="a_node13"><a xlink:href="_convenience_8h.html" target="_top" xlink:title="uscxml/util/Convenience.h">
<polygon fill="white" stroke="black" points="613.294,-112.5 613.294,-131.5 746.294,-131.5 746.294,-112.5 613.294,-112.5"/>
<text text-anchor="middle" x="679.794" y="-119.5" font-family="Helvetica,sans-Serif" font-size="10.00">uscxml/util/Convenience.h</text>
</a>
</g>
</g>
<!-- Node9&#45;&gt;Node13 -->
<g id="edge15" class="edge"><title>Node9&#45;&gt;Node13</title>
<path fill="none" stroke="midnightblue" d="M562.819,-168.444C585.898,-159.478 622.356,-145.314 648.435,-135.183"/>
<polygon fill="midnightblue" stroke="midnightblue" points="649.818,-138.4 657.872,-131.516 647.283,-131.875 649.818,-138.4"/>
</g>
<!-- Node17 -->
<g id="node17" class="node"><title>Node17</title>
<g id="a_node17"><a xlink:href="_blob_8h.html" target="_top" xlink:title="uscxml/messages/Blob.h">
<polygon fill="white" stroke="black" points="413.294,-112.5 413.294,-131.5 540.294,-131.5 540.294,-112.5 413.294,-112.5"/>
<text text-anchor="middle" x="476.794" y="-119.5" font-family="Helvetica,sans-Serif" font-size="10.00">uscxml/messages/Blob.h</text>
</a>
</g>
</g>
<!-- Node9&#45;&gt;Node17 -->
<g id="edge20" class="edge"><title>Node9&#45;&gt;Node17</title>
<path fill="none" stroke="midnightblue" d="M530.511,-168.324C520.958,-160.263 506.514,-148.077 495.01,-138.369"/>
<polygon fill="midnightblue" stroke="midnightblue" points="497.164,-135.608 487.264,-131.834 492.65,-140.958 497.164,-135.608"/>
</g>
<!-- Node13&#45;&gt;Node3 -->
<g id="edge16" class="edge"><title>Node13&#45;&gt;Node3</title>
<path fill="none" stroke="midnightblue" d="M613.07,-113.065C609.934,-112.702 606.83,-112.346 603.794,-112 479.059,-97.7861 332.925,-81.99 252.851,-73.408"/>
<polygon fill="midnightblue" stroke="midnightblue" points="252.789,-69.8814 242.473,-72.2964 252.044,-76.8416 252.789,-69.8814"/>
</g>
<!-- Node13&#45;&gt;Node14 -->
<g id="edge17" class="edge"><title>Node13&#45;&gt;Node14</title>
<path fill="none" stroke="midnightblue" d="M627.029,-112.444C556.735,-101.045 434.634,-81.2443 377.689,-72.01"/>
<polygon fill="midnightblue" stroke="midnightblue" points="377.954,-68.5073 367.522,-70.3614 376.833,-75.417 377.954,-68.5073"/>
</g>
<!-- Node15 -->
<g id="node15" class="node"><title>Node15</title>
<polygon fill="white" stroke="#bfbfbf" points="692.294,-56.5 692.294,-75.5 731.294,-75.5 731.294,-56.5 692.294,-56.5"/>
<text text-anchor="middle" x="711.794" y="-63.5" font-family="Helvetica,sans-Serif" font-size="10.00">limits</text>
</g>
<!-- Node13&#45;&gt;Node15 -->
<g id="edge18" class="edge"><title>Node13&#45;&gt;Node15</title>
<path fill="none" stroke="midnightblue" d="M685.078,-112.083C689.505,-104.613 695.957,-93.7244 701.412,-84.5199"/>
<polygon fill="midnightblue" stroke="midnightblue" points="704.521,-86.1383 706.608,-75.7511 698.499,-82.5697 704.521,-86.1383"/>
</g>
<!-- Node16 -->
<g id="node16" class="node"><title>Node16</title>
<polygon fill="white" stroke="#bfbfbf" points="621.794,-56.5 621.794,-75.5 673.794,-75.5 673.794,-56.5 621.794,-56.5"/>
<text text-anchor="middle" x="647.794" y="-63.5" font-family="Helvetica,sans-Serif" font-size="10.00">sstream</text>
</g>
<!-- Node13&#45;&gt;Node16 -->
<g id="edge19" class="edge"><title>Node13&#45;&gt;Node16</title>
<path fill="none" stroke="midnightblue" d="M674.51,-112.083C670.083,-104.613 663.631,-93.7244 658.176,-84.5199"/>
<polygon fill="midnightblue" stroke="midnightblue" points="661.089,-82.5697 652.98,-75.7511 655.067,-86.1383 661.089,-82.5697"/>
</g>
<!-- Node17&#45;&gt;Node3 -->
<g id="edge23" class="edge"><title>Node17&#45;&gt;Node3</title>
<path fill="none" stroke="midnightblue" d="M431.793,-112.444C381.835,-102.944 301.192,-87.611 247.595,-77.4198"/>
<polygon fill="midnightblue" stroke="midnightblue" points="248.062,-73.9461 237.584,-75.5164 246.754,-80.8228 248.062,-73.9461"/>
</g>
<!-- Node17&#45;&gt;Node12 -->
<g id="edge22" class="edge"><title>Node17&#45;&gt;Node12</title>
<path fill="none" stroke="midnightblue" d="M530.034,-112.444C598.812,-101.39 716.745,-82.4364 776.22,-72.878"/>
<polygon fill="midnightblue" stroke="midnightblue" points="776.959,-76.3041 786.277,-71.2616 775.849,-69.3928 776.959,-76.3041"/>
</g>
<!-- Node17&#45;&gt;Node14 -->
<g id="edge21" class="edge"><title>Node17&#45;&gt;Node14</title>
<path fill="none" stroke="midnightblue" d="M456.195,-112.444C434.801,-103.557 401.113,-89.5632 376.77,-79.4514"/>
<polygon fill="midnightblue" stroke="midnightblue" points="377.874,-76.1203 367.296,-75.5164 375.189,-82.5848 377.874,-76.1203"/>
</g>
<!-- Node18&#45;&gt;Node3 -->
<g id="edge25" class="edge"><title>Node18&#45;&gt;Node3</title>
<path fill="none" stroke="midnightblue" d="M192.794,-112.083C192.794,-105.006 192.794,-94.8611 192.794,-85.9865"/>
<polygon fill="midnightblue" stroke="midnightblue" points="196.294,-85.751 192.794,-75.7511 189.294,-85.7511 196.294,-85.751"/>
</g>
<!-- Node18&#45;&gt;Node14 -->
<g id="edge26" class="edge"><title>Node18&#45;&gt;Node14</title>
<path fill="none" stroke="midnightblue" d="M217.196,-112.444C244.053,-103.026 287.263,-87.8746 316.324,-77.6842"/>
<polygon fill="midnightblue" stroke="midnightblue" points="317.685,-80.916 325.963,-74.3042 315.369,-74.3104 317.685,-80.916"/>
</g>
<!-- Node19&#45;&gt;Node3 -->
<g id="edge32" class="edge"><title>Node19&#45;&gt;Node3</title>
<path fill="none" stroke="midnightblue" d="M97.6231,-347.246C79.062,-328.535 38.7939,-282.471 38.7939,-235 38.7939,-235 38.7939,-235 38.7939,-177 38.7939,-123.126 101.971,-93.1383 147.396,-78.5396"/>
<polygon fill="midnightblue" stroke="midnightblue" points="148.542,-81.8492 157.076,-75.5713 146.489,-75.1567 148.542,-81.8492"/>
</g>
<!-- Node19&#45;&gt;Node7 -->
<g id="edge33" class="edge"><title>Node19&#45;&gt;Node7</title>
<path fill="none" stroke="midnightblue" d="M122.984,-347.475C141.696,-337.622 172.717,-321.288 194.593,-309.77"/>
<polygon fill="midnightblue" stroke="midnightblue" points="196.416,-312.765 203.634,-305.009 193.155,-306.571 196.416,-312.765"/>
</g>
<!-- Node19&#45;&gt;Node8 -->
<g id="edge34" class="edge"><title>Node19&#45;&gt;Node8</title>
<path fill="none" stroke="midnightblue" d="M107.443,-347.415C109.078,-331.825 114.719,-298.746 133.794,-280 150.718,-263.368 173.973,-252.88 196.364,-246.268"/>
<polygon fill="midnightblue" stroke="midnightblue" points="197.496,-249.587 206.223,-243.579 195.655,-242.833 197.496,-249.587"/>
</g>
<!-- Node20&#45;&gt;Node3 -->
<g id="edge37" class="edge"><title>Node20&#45;&gt;Node3</title>
<path fill="none" stroke="midnightblue" d="M550.248,-280.441C481.915,-239.638 284.109,-121.525 216.091,-80.9108"/>
<polygon fill="midnightblue" stroke="midnightblue" points="217.762,-77.8321 207.381,-75.7104 214.173,-83.8422 217.762,-77.8321"/>
</g>
<!-- Node20&#45;&gt;Node8 -->
<g id="edge39" class="edge"><title>Node20&#45;&gt;Node8</title>
<path fill="none" stroke="midnightblue" d="M525.645,-285.138C470.232,-274.363 379.465,-256.714 321.724,-245.486"/>
<polygon fill="midnightblue" stroke="midnightblue" points="322.18,-242.01 311.695,-243.536 320.843,-248.881 322.18,-242.01"/>
</g>
<!-- Node20&#45;&gt;Node9 -->
<g id="edge38" class="edge"><title>Node20&#45;&gt;Node9</title>
<path fill="none" stroke="midnightblue" d="M569.747,-280.337C563.802,-259.527 552.698,-220.663 546.103,-197.583"/>
<polygon fill="midnightblue" stroke="midnightblue" points="549.384,-196.323 543.271,-187.669 542.653,-198.246 549.384,-196.323"/>
</g>
<!-- Node20&#45;&gt;Node12 -->
<g id="edge40" class="edge"><title>Node20&#45;&gt;Node12</title>
<path fill="none" stroke="midnightblue" d="M621.886,-292.157C689.066,-287.763 805.722,-275.669 831.794,-244 870.053,-197.526 839.096,-119.31 822.1,-84.5556"/>
<polygon fill="midnightblue" stroke="midnightblue" points="825.204,-82.9374 817.555,-75.6062 818.962,-86.1072 825.204,-82.9374"/>
</g>
<!-- Node21 -->
<g id="node21" class="node"><title>Node21</title>
<polygon fill="white" stroke="#bfbfbf" points="737.294,-224.5 737.294,-243.5 822.294,-243.5 822.294,-224.5 737.294,-224.5"/>
<text text-anchor="middle" x="779.794" y="-231.5" font-family="Helvetica,sans-Serif" font-size="10.00">uscxml/config.h</text>
</g>
<!-- Node20&#45;&gt;Node21 -->
<g id="edge36" class="edge"><title>Node20&#45;&gt;Node21</title>
<path fill="none" stroke="midnightblue" d="M621.832,-280.625C657.818,-270.231 706.463,-256.18 740.222,-246.43"/>
<polygon fill="midnightblue" stroke="midnightblue" points="741.555,-249.688 750.191,-243.55 739.612,-242.963 741.555,-249.688"/>
</g>
</g>
</svg>
        <g id="navigator" transform="translate(0 0)" fill="#404254">
                <rect fill="#f2f5e9" fill-opacity="0.5" stroke="#606060" stroke-width=".5" x="0" y="0" width="60" height="60"/>
                <use id="zoomplus" xlink:href="#zoomPlus" x="17" y="9" onmousedown="handleZoom(evt,'in')"/>
                <use id="zoomminus" xlink:href="#zoomMin" x="42" y="9" onmousedown="handleZoom(evt,'out')"/>
                <use id="reset" xlink:href="#resetDef" x="30" y="36" onmousedown="handleReset()"/>
                <g id="arrowUp" xlink:href="#dirArrow" transform="translate(30 24)" onmousedown="handlePan(0,-1)">
                  <use xlink:href="#rim" fill="#404040">
                        <set attributeName="fill" to="#808080" begin="arrowUp.mouseover" end="arrowUp.mouseout"/>
                  </use>
                  <path fill="none" stroke="white" stroke-width="1.5" d="M0,-3.0v7 M-2.5,-0.5L0,-3.0L2.5,-0.5"/>
                </g>
                <g id="arrowRight" xlink:href="#dirArrow" transform="rotate(90) translate(36 -43)" onmousedown="handlePan(1,0)">
                  <use xlink:href="#rim" fill="#404040">
                        <set attributeName="fill" to="#808080" begin="arrowRight.mouseover" end="arrowRight.mouseout"/>
                  </use>
                  <path fill="none" stroke="white" stroke-width="1.5" d="M0,-3.0v7 M-2.5,-0.5L0,-3.0L2.5,-0.5"/>
                </g>
                <g id="arrowDown" xlink:href="#dirArrow" transform="rotate(180) translate(-30 -48)" onmousedown="handlePan(0,1)">
                  <use xlink:href="#rim" fill="#404040">
                        <set attributeName="fill" to="#808080" begin="arrowDown.mouseover" end="arrowDown.mouseout"/>
                  </use>
                  <path fill="none" stroke="white" stroke-width="1.5" d="M0,-3.0v7 M-2.5,-0.5L0,-3.0L2.5,-0.5"/>
                </g>
                <g id="arrowLeft" xlink:href="#dirArrow" transform="rotate(270) translate(-36 17)" onmousedown="handlePan(-1,0)">
                  <use xlink:href="#rim" fill="#404040">
                        <set attributeName="fill" to="#808080" begin="arrowLeft.mouseover" end="arrowLeft.mouseout"/>
                  </use>
                  <path fill="none" stroke="white" stroke-width="1.5" d="M0,-3.0v7 M-2.5,-0.5L0,-3.0L2.5,-0.5"/>
                </g>
        </g>
        <svg viewBox="0 0 15 15" width="100%" height="30px" preserveAspectRatio="xMaxYMin meet">
         <g id="arrow_out" transform="scale(0.3 0.3)">
          <a xlink:href="_n_u_l_l_data_model_8h__incl_org.svg" target="_base">
           <rect id="button" ry="5" rx="5" y="6" x="6" height="38" width="38"
                fill="#f2f5e9" fill-opacity="0.5" stroke="#606060" stroke-width="1.0"/>
           <path id="arrow"
             d="M 11.500037,31.436501 C 11.940474,20.09759 22.043105,11.32322 32.158766,21.979434 L 37.068811,17.246167 C 37.068811,17.246167 37.088388,32 37.088388,32 L 22.160133,31.978069 C 22.160133,31.978069 26.997745,27.140456 26.997745,27.140456 C 18.528582,18.264221 13.291696,25.230495 11.500037,31.436501 z"
             style="fill:#404040;"/>
          </a>
         </g>
        </svg>
</svg>
