<?xml version="1.0" encoding="UTF-8" standalone="no"?>
<!DOCTYPE svg PUBLIC "-//W3C//DTD SVG 1.1//EN"
 "http://www.w3.org/Graphics/SVG/1.1/DTD/svg11.dtd">
<!-- Generated by graphviz version 2.38.0 (20140413.2041)
 -->
<!-- Title: plugins/datamodel/null/NULLDataModel.cpp Pages: 1 -->
<!--zoomable 554 -->
<svg id="main" version="1.1" xmlns="http://www.w3.org/2000/svg" xmlns:xlink="http://www.w3.org/1999/xlink" xml:space="preserve" onload="init(evt)">
<style type="text/css"><![CDATA[
.edge:hover path { stroke: red; }
.edge:hover polygon { stroke: red; fill: red; }
]]></style>
<script type="text/javascript"><![CDATA[
var edges = document.getElementsByTagName('g');
if (edges && edges.length) {
  for (var i=0;i<edges.length;i++) {
    if (edges[i].id.substr(0,4)=='edge') {
      edges[i].setAttribute('class','edge');
    }
  }
}
]]></script>
        <defs>
                <circle id="rim" cx="0" cy="0" r="7"/>
                <circle id="rim2" cx="0" cy="0" r="3.5"/>
                <g id="zoomPlus">
                        <use xlink:href="#rim" fill="#404040">
                                <set attributeName="fill" to="#808080" begin="zoomplus.mouseover" end="zoomplus.mouseout"/>
                        </use>
                        <path d="M-4,0h8M0,-4v8" fill="none" stroke="white" stroke-width="1.5" pointer-events="none"/>
                </g>
                <g id="zoomMin">
                        <use xlink:href="#rim" fill="#404040">
                                <set attributeName="fill" to="#808080" begin="zoomminus.mouseover" end="zoomminus.mouseout"/>
                        </use>
                        <path d="M-4,0h8" fill="none" stroke="white" stroke-width="1.5" pointer-events="none"/>
                </g>
                <g id="dirArrow">
                        <path fill="none" stroke="white" stroke-width="1.5" d="M0,-3.0v7 M-2.5,-0.5L0,-3.0L2.5,-0.5"/>
                </g>
               <g id="resetDef">
                       <use xlink:href="#rim2" fill="#404040">
                               <set attributeName="fill" to="#808080" begin="reset.mouseover" end="reset.mouseout"/>
                       </use>
               </g>
        </defs>

<script type="text/javascript">
var viewWidth = 1511;
var viewHeight = 554;
var sectionId = 'dynsection-0';
</script>
<script xlink:href="svgpan.js"/>
<svg id="graph" class="graph">
<g id="viewport">
<title>plugins/datamodel/null/NULLDataModel.cpp</title>
<polygon fill="white" stroke="none" points="-4,4 -4,-550 1507,-550 1507,4 -4,4"/>
<!-- Node1 -->
<g id="node1" class="node"><title>Node1</title>
<polygon fill="#bfbfbf" stroke="black" points="234,-515.5 234,-545.5 350,-545.5 350,-515.5 234,-515.5"/>
<text text-anchor="start" x="242" y="-533.5" font-family="Helvetica,sans-Serif" font-size="10.00">plugins/datamodel/null</text>
<text text-anchor="middle" x="292" y="-522.5" font-family="Helvetica,sans-Serif" font-size="10.00">/NULLDataModel.cpp</text>
</g>
<!-- Node2 -->
<g id="node2" class="node"><title>Node2</title>
<polygon fill="white" stroke="#bfbfbf" points="0,-459.5 0,-478.5 132,-478.5 132,-459.5 0,-459.5"/>
<text text-anchor="middle" x="66" y="-466.5" font-family="Helvetica,sans-Serif" font-size="10.00">boost/algorithm/string.hpp</text>
</g>
<!-- Node1&#45;&gt;Node2 -->
<g id="edge1" class="edge"><title>Node1&#45;&gt;Node2</title>
<path fill="none" stroke="midnightblue" d="M238.727,-515.475C198.886,-504.986 145.145,-490.837 108.245,-481.122"/>
<polygon fill="midnightblue" stroke="midnightblue" points="108.871,-477.668 98.3099,-478.506 107.089,-484.437 108.871,-477.668"/>
</g>
<!-- Node3 -->
<g id="node3" class="node"><title>Node3</title>
<g id="a_node3"><a xlink:href="_common_8h.html" target="_top" xlink:title="uscxml/Common.h">
<polygon fill="white" stroke="black" points="689.5,-56.5 689.5,-75.5 788.5,-75.5 788.5,-56.5 689.5,-56.5"/>
<text text-anchor="middle" x="739" y="-63.5" font-family="Helvetica,sans-Serif" font-size="10.00">uscxml/Common.h</text>
</a>
</g>
</g>
<!-- Node1&#45;&gt;Node3 -->
<g id="edge2" class="edge"><title>Node1&#45;&gt;Node3</title>
<path fill="none" stroke="midnightblue" d="M256.973,-515.44C217.867,-497.155 160,-461.194 160,-408.5 160,-408.5 160,-408.5 160,-177 160,-124.573 531.125,-85.5857 679.122,-72.1227"/>
<polygon fill="midnightblue" stroke="midnightblue" points="679.739,-75.5814 689.384,-71.1977 679.111,-68.6097 679.739,-75.5814"/>
</g>
<!-- Node6 -->
<g id="node6" class="node"><title>Node6</title>
<g id="a_node6"><a xlink:href="_n_u_l_l_data_model_8h.html" target="_top" xlink:title="NULLDataModel.h">
<polygon fill="white" stroke="black" points="857.5,-459.5 857.5,-478.5 956.5,-478.5 956.5,-459.5 857.5,-459.5"/>
<text text-anchor="middle" x="907" y="-466.5" font-family="Helvetica,sans-Serif" font-size="10.00">NULLDataModel.h</text>
</a>
</g>
</g>
<!-- Node1&#45;&gt;Node6 -->
<g id="edge5" class="edge"><title>Node1&#45;&gt;Node6</title>
<path fill="none" stroke="midnightblue" d="M350.135,-523.876C466.949,-512.574 729.061,-487.215 847.223,-475.783"/>
<polygon fill="midnightblue" stroke="midnightblue" points="847.565,-479.267 857.181,-474.82 846.89,-472.299 847.565,-479.267"/>
</g>
<!-- Node24 -->
<g id="node24" class="node"><title>Node24</title>
<g id="a_node24"><a xlink:href="_d_o_m_8h.html" target="_top" xlink:title="uscxml/util/DOM.h">
<polygon fill="white" stroke="black" points="376,-336.5 376,-355.5 474,-355.5 474,-336.5 376,-336.5"/>
<text text-anchor="middle" x="425" y="-343.5" font-family="Helvetica,sans-Serif" font-size="10.00">uscxml/util/DOM.h</text>
</a>
</g>
</g>
<!-- Node1&#45;&gt;Node24 -->
<g id="edge47" class="edge"><title>Node1&#45;&gt;Node24</title>
<path fill="none" stroke="midnightblue" d="M302.215,-515.483C326.226,-482.536 386.193,-400.25 412.405,-364.283"/>
<polygon fill="midnightblue" stroke="midnightblue" points="415.512,-365.962 418.573,-355.819 409.855,-361.839 415.512,-365.962"/>
</g>
<!-- Node4 -->
<g id="node4" class="node"><title>Node4</title>
<polygon fill="white" stroke="#bfbfbf" points="665,-0.5 665,-19.5 737,-19.5 737,-0.5 665,-0.5"/>
<text text-anchor="middle" x="701" y="-7.5" font-family="Helvetica,sans-Serif" font-size="10.00">sys/socket.h</text>
</g>
<!-- Node3&#45;&gt;Node4 -->
<g id="edge3" class="edge"><title>Node3&#45;&gt;Node4</title>
<path fill="none" stroke="midnightblue" d="M732.725,-56.083C727.358,-48.4554 719.482,-37.2645 712.921,-27.9408"/>
<polygon fill="midnightblue" stroke="midnightblue" points="715.775,-25.9149 707.158,-19.7511 710.051,-29.9434 715.775,-25.9149"/>
</g>
<!-- Node5 -->
<g id="node5" class="node"><title>Node5</title>
<polygon fill="white" stroke="#bfbfbf" points="755,-0.5 755,-19.5 799,-19.5 799,-0.5 755,-0.5"/>
<text text-anchor="middle" x="777" y="-7.5" font-family="Helvetica,sans-Serif" font-size="10.00">cmath</text>
</g>
<!-- Node3&#45;&gt;Node5 -->
<g id="edge4" class="edge"><title>Node3&#45;&gt;Node5</title>
<path fill="none" stroke="midnightblue" d="M745.275,-56.083C750.642,-48.4554 758.518,-37.2645 765.079,-27.9408"/>
<polygon fill="midnightblue" stroke="midnightblue" points="767.949,-29.9434 770.842,-19.7511 762.225,-25.9149 767.949,-29.9434"/>
</g>
<!-- Node7 -->
<g id="node7" class="node"><title>Node7</title>
<g id="a_node7"><a xlink:href="_data_model_impl_8h.html" target="_top" xlink:title="uscxml/plugins/DataModel\lImpl.h">
<polygon fill="white" stroke="black" points="840.5,-392.5 840.5,-422.5 973.5,-422.5 973.5,-392.5 840.5,-392.5"/>
<text text-anchor="start" x="848.5" y="-410.5" font-family="Helvetica,sans-Serif" font-size="10.00">uscxml/plugins/DataModel</text>
<text text-anchor="middle" x="907" y="-399.5" font-family="Helvetica,sans-Serif" font-size="10.00">Impl.h</text>
</a>
</g>
</g>
<!-- Node6&#45;&gt;Node7 -->
<g id="edge6" class="edge"><title>Node6&#45;&gt;Node7</title>
<path fill="none" stroke="midnightblue" d="M907,-459.475C907,-452.471 907,-442.192 907,-432.696"/>
<polygon fill="midnightblue" stroke="midnightblue" points="910.5,-432.523 907,-422.523 903.5,-432.523 910.5,-432.523"/>
</g>
<!-- Node13 -->
<g id="node13" class="node"><title>Node13</title>
<polygon fill="white" stroke="#bfbfbf" points="1331.5,-112.5 1331.5,-131.5 1360.5,-131.5 1360.5,-112.5 1331.5,-112.5"/>
<text text-anchor="middle" x="1346" y="-119.5" font-family="Helvetica,sans-Serif" font-size="10.00">list</text>
</g>
<!-- Node6&#45;&gt;Node13 -->
<g id="edge46" class="edge"><title>Node6&#45;&gt;Node13</title>
<path fill="none" stroke="midnightblue" d="M956.777,-459.953C1029.06,-446.677 1165.51,-415.526 1267,-356 1298.18,-337.709 1309.89,-332.363 1326,-300 1352.14,-247.502 1350.53,-175.653 1347.93,-141.931"/>
<polygon fill="midnightblue" stroke="midnightblue" points="1351.4,-141.337 1347.02,-131.688 1344.42,-141.959 1351.4,-141.337"/>
</g>
<!-- Node7&#45;&gt;Node3 -->
<g id="edge8" class="edge"><title>Node7&#45;&gt;Node3</title>
<path fill="none" stroke="midnightblue" d="M840.492,-406.762C781.709,-404.224 695.532,-393.53 631,-356 602.912,-339.665 598.019,-329.313 584,-300 547.399,-223.469 498.458,-178.603 551,-112 566.816,-91.9517 630.259,-79.8373 679.119,-73.3086"/>
<polygon fill="midnightblue" stroke="midnightblue" points="679.829,-76.7462 689.301,-71.9994 678.936,-69.8033 679.829,-76.7462"/>
</g>
<!-- Node8 -->
<g id="node8" class="node"><title>Node8</title>
<polygon fill="white" stroke="#bfbfbf" points="560.5,-112.5 560.5,-131.5 645.5,-131.5 645.5,-112.5 560.5,-112.5"/>
<text text-anchor="middle" x="603" y="-119.5" font-family="Helvetica,sans-Serif" font-size="10.00">uscxml/config.h</text>
</g>
<!-- Node7&#45;&gt;Node8 -->
<g id="edge7" class="edge"><title>Node7&#45;&gt;Node8</title>
<path fill="none" stroke="midnightblue" d="M840.127,-396.158C746.586,-379.774 588,-344.158 588,-291 588,-291 588,-291 588,-233 588,-200.502 594.507,-163.095 598.949,-141.343"/>
<polygon fill="midnightblue" stroke="midnightblue" points="602.385,-142.013 601.039,-131.504 595.538,-140.559 602.385,-142.013"/>
</g>
<!-- Node9 -->
<g id="node9" class="node"><title>Node9</title>
<g id="a_node9"><a xlink:href="_invoker_8h.html" target="_top" xlink:title="uscxml/plugins/Invoker.h">
<polygon fill="white" stroke="black" points="766,-336.5 766,-355.5 892,-355.5 892,-336.5 766,-336.5"/>
<text text-anchor="middle" x="829" y="-343.5" font-family="Helvetica,sans-Serif" font-size="10.00">uscxml/plugins/Invoker.h</text>
</a>
</g>
</g>
<!-- Node7&#45;&gt;Node9 -->
<g id="edge9" class="edge"><title>Node7&#45;&gt;Node9</title>
<path fill="none" stroke="midnightblue" d="M888.515,-392.399C876.48,-383.218 860.8,-371.258 848.557,-361.918"/>
<polygon fill="midnightblue" stroke="midnightblue" points="850.423,-358.94 840.35,-355.658 846.178,-364.506 850.423,-358.94"/>
</g>
<!-- Node7&#45;&gt;Node13 -->
<g id="edge43" class="edge"><title>Node7&#45;&gt;Node13</title>
<path fill="none" stroke="midnightblue" d="M973.588,-401.352C1088.77,-390.598 1313,-360.71 1313,-291 1313,-291 1313,-291 1313,-233 1313,-199.245 1327.43,-162.028 1337.21,-140.691"/>
<polygon fill="midnightblue" stroke="midnightblue" points="1340.41,-142.11 1341.55,-131.576 1334.09,-139.099 1340.41,-142.11"/>
</g>
<!-- Node15 -->
<g id="node15" class="node"><title>Node15</title>
<polygon fill="white" stroke="#bfbfbf" points="1357.5,-56.5 1357.5,-75.5 1410.5,-75.5 1410.5,-56.5 1357.5,-56.5"/>
<text text-anchor="middle" x="1384" y="-63.5" font-family="Helvetica,sans-Serif" font-size="10.00">memory</text>
</g>
<!-- Node7&#45;&gt;Node15 -->
<g id="edge45" class="edge"><title>Node7&#45;&gt;Node15</title>
<path fill="none" stroke="midnightblue" d="M973.821,-405.242C1088.8,-402.138 1318.58,-391.552 1390,-356 1455.87,-323.21 1503,-308.582 1503,-235 1503,-235 1503,-235 1503,-177 1503,-129.296 1450.8,-96.5284 1415.54,-79.8385"/>
<polygon fill="midnightblue" stroke="midnightblue" points="1416.66,-76.5015 1406.1,-75.5584 1413.77,-82.8765 1416.66,-76.5015"/>
</g>
<!-- Node17 -->
<g id="node17" class="node"><title>Node17</title>
<polygon fill="white" stroke="#bfbfbf" points="1190.5,-56.5 1190.5,-75.5 1231.5,-75.5 1231.5,-56.5 1190.5,-56.5"/>
<text text-anchor="middle" x="1211" y="-63.5" font-family="Helvetica,sans-Serif" font-size="10.00">string</text>
</g>
<!-- Node7&#45;&gt;Node17 -->
<g id="edge44" class="edge"><title>Node7&#45;&gt;Node17</title>
<path fill="none" stroke="midnightblue" d="M973.651,-405.535C1113.97,-401.697 1427,-382.842 1427,-291 1427,-291 1427,-291 1427,-177 1427,-94.8228 1301.32,-74.0102 1241.69,-68.7602"/>
<polygon fill="midnightblue" stroke="midnightblue" points="1241.96,-65.27 1231.71,-67.973 1241.4,-72.2483 1241.96,-65.27"/>
</g>
<!-- Node22 -->
<g id="node22" class="node"><title>Node22</title>
<polygon fill="white" stroke="#bfbfbf" points="616.5,-280.5 616.5,-299.5 735.5,-299.5 735.5,-280.5 616.5,-280.5"/>
<text text-anchor="middle" x="676" y="-287.5" font-family="Helvetica,sans-Serif" font-size="10.00">xercesc/dom/DOM.hpp</text>
</g>
<!-- Node7&#45;&gt;Node22 -->
<g id="edge42" class="edge"><title>Node7&#45;&gt;Node22</title>
<path fill="none" stroke="midnightblue" d="M850.19,-392.491C821.276,-384.109 786.17,-371.955 757,-356 732.441,-342.568 707.88,-321.522 692.351,-307.037"/>
<polygon fill="midnightblue" stroke="midnightblue" points="694.364,-304.121 684.71,-299.755 689.534,-309.188 694.364,-304.121"/>
</g>
<!-- Node23 -->
<g id="node23" class="node"><title>Node23</title>
<g id="a_node23"><a xlink:href="_i_o_processor_8h.html" target="_top" xlink:title="uscxml/plugins/IOProcessor.h">
<polygon fill="white" stroke="black" points="910.5,-336.5 910.5,-355.5 1059.5,-355.5 1059.5,-336.5 910.5,-336.5"/>
<text text-anchor="middle" x="985" y="-343.5" font-family="Helvetica,sans-Serif" font-size="10.00">uscxml/plugins/IOProcessor.h</text>
</a>
</g>
</g>
<!-- Node7&#45;&gt;Node23 -->
<g id="edge38" class="edge"><title>Node7&#45;&gt;Node23</title>
<path fill="none" stroke="midnightblue" d="M925.485,-392.399C937.52,-383.218 953.2,-371.258 965.443,-361.918"/>
<polygon fill="midnightblue" stroke="midnightblue" points="967.822,-364.506 973.65,-355.658 963.577,-358.94 967.822,-364.506"/>
</g>
<!-- Node9&#45;&gt;Node3 -->
<g id="edge11" class="edge"><title>Node9&#45;&gt;Node3</title>
<path fill="none" stroke="midnightblue" d="M823.108,-336.24C800.258,-302.067 718.159,-177.371 706,-132 703.699,-123.414 703.234,-120.448 706,-112 709.49,-101.34 716.573,-91.1174 723.286,-83.1175"/>
<polygon fill="midnightblue" stroke="midnightblue" points="725.904,-85.4395 729.98,-75.66 720.695,-80.7633 725.904,-85.4395"/>
</g>
<!-- Node9&#45;&gt;Node8 -->
<g id="edge10" class="edge"><title>Node9&#45;&gt;Node8</title>
<path fill="none" stroke="midnightblue" d="M820.141,-336.297C786.183,-302.94 664.003,-182.923 619.426,-139.135"/>
<polygon fill="midnightblue" stroke="midnightblue" points="621.63,-136.395 612.044,-131.884 616.725,-141.388 621.63,-136.395"/>
</g>
<!-- Node10 -->
<g id="node10" class="node"><title>Node10</title>
<g id="a_node10"><a xlink:href="_event_handler_8h.html" target="_top" xlink:title="uscxml/plugins/EventHandler.h">
<polygon fill="white" stroke="black" points="1001,-280.5 1001,-299.5 1155,-299.5 1155,-280.5 1001,-280.5"/>
<text text-anchor="middle" x="1078" y="-287.5" font-family="Helvetica,sans-Serif" font-size="10.00">uscxml/plugins/EventHandler.h</text>
</a>
</g>
</g>
<!-- Node9&#45;&gt;Node10 -->
<g id="edge12" class="edge"><title>Node9&#45;&gt;Node10</title>
<path fill="none" stroke="midnightblue" d="M868.455,-336.444C911.892,-327.023 981.786,-311.866 1028.78,-301.675"/>
<polygon fill="midnightblue" stroke="midnightblue" points="1029.7,-305.056 1038.73,-299.516 1028.22,-298.215 1029.7,-305.056"/>
</g>
<!-- Node11 -->
<g id="node11" class="node"><title>Node11</title>
<g id="a_node11"><a xlink:href="_event_8h.html" target="_top" xlink:title="uscxml/messages/Event.h">
<polygon fill="white" stroke="black" points="906.5,-224.5 906.5,-243.5 1039.5,-243.5 1039.5,-224.5 906.5,-224.5"/>
<text text-anchor="middle" x="973" y="-231.5" font-family="Helvetica,sans-Serif" font-size="10.00">uscxml/messages/Event.h</text>
</a>
</g>
</g>
<!-- Node9&#45;&gt;Node11 -->
<g id="edge36" class="edge"><title>Node9&#45;&gt;Node11</title>
<path fill="none" stroke="midnightblue" d="M840.299,-336.368C864.8,-317.653 923.057,-273.151 953.583,-249.832"/>
<polygon fill="midnightblue" stroke="midnightblue" points="955.931,-252.443 961.753,-243.591 951.682,-246.881 955.931,-252.443"/>
</g>
<!-- Node9&#45;&gt;Node22 -->
<g id="edge37" class="edge"><title>Node9&#45;&gt;Node22</title>
<path fill="none" stroke="midnightblue" d="M804.757,-336.444C779.129,-327.399 738.515,-313.064 709.762,-302.916"/>
<polygon fill="midnightblue" stroke="midnightblue" points="710.725,-299.544 700.13,-299.516 708.395,-306.145 710.725,-299.544"/>
</g>
<!-- Node10&#45;&gt;Node3 -->
<g id="edge13" class="edge"><title>Node10&#45;&gt;Node3</title>
<path fill="none" stroke="midnightblue" d="M1076.64,-280.379C1073.96,-266.361 1066.65,-238.716 1049,-224 997.001,-180.655 964.979,-210.124 901,-188 844.232,-168.37 822.807,-172.003 778,-132 763.465,-119.023 752.697,-99.314 746.201,-85.0008"/>
<polygon fill="midnightblue" stroke="midnightblue" points="749.378,-83.5287 742.233,-75.7058 742.94,-86.277 749.378,-83.5287"/>
</g>
<!-- Node10&#45;&gt;Node11 -->
<g id="edge14" class="edge"><title>Node10&#45;&gt;Node11</title>
<path fill="none" stroke="midnightblue" d="M1061.13,-280.324C1044.29,-271.664 1018.19,-258.242 998.762,-248.249"/>
<polygon fill="midnightblue" stroke="midnightblue" points="1000.32,-245.116 989.828,-243.655 997.12,-251.341 1000.32,-245.116"/>
</g>
<!-- Node10&#45;&gt;Node13 -->
<g id="edge33" class="edge"><title>Node10&#45;&gt;Node13</title>
<path fill="none" stroke="midnightblue" d="M1090.16,-280.361C1119.15,-259.901 1194.84,-207.262 1261,-168 1281.17,-156.033 1304.79,-143.654 1322,-134.915"/>
<polygon fill="midnightblue" stroke="midnightblue" points="1323.97,-137.845 1331.33,-130.222 1320.82,-131.593 1323.97,-137.845"/>
</g>
<!-- Node10&#45;&gt;Node15 -->
<g id="edge35" class="edge"><title>Node10&#45;&gt;Node15</title>
<path fill="none" stroke="midnightblue" d="M1139.2,-280.434C1176.93,-273.69 1225.66,-262.298 1266,-244 1305.19,-226.223 1314.34,-218.198 1345,-188 1366.98,-166.356 1376.41,-161.319 1386,-132 1390.88,-117.06 1389.86,-99.1464 1387.92,-85.9114"/>
<polygon fill="midnightblue" stroke="midnightblue" points="1391.29,-84.9082 1386.09,-75.6776 1384.4,-86.1367 1391.29,-84.9082"/>
</g>
<!-- Node10&#45;&gt;Node17 -->
<g id="edge34" class="edge"><title>Node10&#45;&gt;Node17</title>
<path fill="none" stroke="midnightblue" d="M1121.34,-280.489C1188.74,-264.645 1316.47,-223.55 1370,-132 1398.79,-82.7642 1295.82,-70.8162 1241.89,-67.922"/>
<polygon fill="midnightblue" stroke="midnightblue" points="1241.97,-64.4217 1231.82,-67.4555 1241.64,-71.4142 1241.97,-64.4217"/>
</g>
<!-- Node12 -->
<g id="node12" class="node"><title>Node12</title>
<g id="a_node12"><a xlink:href="_data_8h.html" target="_top" xlink:title="uscxml/messages/Data.h">
<polygon fill="white" stroke="black" points="910,-168.5 910,-187.5 1038,-187.5 1038,-168.5 910,-168.5"/>
<text text-anchor="middle" x="974" y="-175.5" font-family="Helvetica,sans-Serif" font-size="10.00">uscxml/messages/Data.h</text>
</a>
</g>
</g>
<!-- Node11&#45;&gt;Node12 -->
<g id="edge15" class="edge"><title>Node11&#45;&gt;Node12</title>
<path fill="none" stroke="midnightblue" d="M973.165,-224.083C973.296,-217.006 973.484,-206.861 973.648,-197.986"/>
<polygon fill="midnightblue" stroke="midnightblue" points="977.152,-197.814 973.838,-187.751 970.153,-197.685 977.152,-197.814"/>
</g>
<!-- Node21 -->
<g id="node21" class="node"><title>Node21</title>
<g id="a_node21"><a xlink:href="_u_u_i_d_8h.html" target="_top" xlink:title="uscxml/util/UUID.h">
<polygon fill="white" stroke="black" points="786.5,-112.5 786.5,-131.5 885.5,-131.5 885.5,-112.5 786.5,-112.5"/>
<text text-anchor="middle" x="836" y="-119.5" font-family="Helvetica,sans-Serif" font-size="10.00">uscxml/util/UUID.h</text>
</a>
</g>
</g>
<!-- Node11&#45;&gt;Node21 -->
<g id="edge30" class="edge"><title>Node11&#45;&gt;Node21</title>
<path fill="none" stroke="midnightblue" d="M957.151,-224.48C942.088,-216.068 919.111,-202.408 901,-188 882.176,-173.026 862.987,-153.153 850.387,-139.34"/>
<polygon fill="midnightblue" stroke="midnightblue" points="852.741,-136.723 843.456,-131.621 847.533,-141.4 852.741,-136.723"/>
</g>
<!-- Node12&#45;&gt;Node3 -->
<g id="edge20" class="edge"><title>Node12&#45;&gt;Node3</title>
<path fill="none" stroke="midnightblue" d="M965.63,-168.081C952.077,-154.144 923.917,-127.226 895,-112 864.413,-95.8944 827.331,-84.8925 796.996,-77.8006"/>
<polygon fill="midnightblue" stroke="midnightblue" points="797.512,-74.329 786.987,-75.5437 795.972,-81.1576 797.512,-74.329"/>
</g>
<!-- Node12&#45;&gt;Node8 -->
<g id="edge19" class="edge"><title>Node12&#45;&gt;Node8</title>
<path fill="none" stroke="midnightblue" d="M915.214,-168.444C843.793,-158.048 724.366,-140.665 655.774,-130.681"/>
<polygon fill="midnightblue" stroke="midnightblue" points="656.025,-127.181 645.626,-129.204 655.017,-134.108 656.025,-127.181"/>
</g>
<!-- Node12&#45;&gt;Node13 -->
<g id="edge16" class="edge"><title>Node12&#45;&gt;Node13</title>
<path fill="none" stroke="midnightblue" d="M1038.23,-169.174C1129.98,-157.903 1290.45,-137.816 1317,-132 1318.48,-131.676 1319.99,-131.311 1321.51,-130.918"/>
<polygon fill="midnightblue" stroke="midnightblue" points="1322.74,-134.207 1331.38,-128.07 1320.8,-127.482 1322.74,-134.207"/>
</g>
<!-- Node14 -->
<g id="node14" class="node"><title>Node14</title>
<polygon fill="white" stroke="#bfbfbf" points="942,-112.5 942,-131.5 978,-131.5 978,-112.5 942,-112.5"/>
<text text-anchor="middle" x="960" y="-119.5" font-family="Helvetica,sans-Serif" font-size="10.00">map</text>
</g>
<!-- Node12&#45;&gt;Node14 -->
<g id="edge17" class="edge"><title>Node12&#45;&gt;Node14</title>
<path fill="none" stroke="midnightblue" d="M971.688,-168.083C969.833,-160.927 967.165,-150.635 964.846,-141.691"/>
<polygon fill="midnightblue" stroke="midnightblue" points="968.166,-140.553 962.269,-131.751 961.391,-142.309 968.166,-140.553"/>
</g>
<!-- Node12&#45;&gt;Node15 -->
<g id="edge18" class="edge"><title>Node12&#45;&gt;Node15</title>
<path fill="none" stroke="midnightblue" d="M1038.27,-169.168C1122.3,-158.696 1261.51,-140.471 1284,-132 1300.58,-125.754 1339.68,-98.8107 1363.78,-81.6338"/>
<polygon fill="midnightblue" stroke="midnightblue" points="1366.12,-84.2642 1372.21,-75.5923 1362.04,-78.5757 1366.12,-84.2642"/>
</g>
<!-- Node16 -->
<g id="node16" class="node"><title>Node16</title>
<g id="a_node16"><a xlink:href="_convenience_8h.html" target="_top" xlink:title="uscxml/util/Convenience.h">
<polygon fill="white" stroke="black" points="996.5,-112.5 996.5,-131.5 1129.5,-131.5 1129.5,-112.5 996.5,-112.5"/>
<text text-anchor="middle" x="1063" y="-119.5" font-family="Helvetica,sans-Serif" font-size="10.00">uscxml/util/Convenience.h</text>
</a>
</g>
</g>
<!-- Node12&#45;&gt;Node16 -->
<g id="edge21" class="edge"><title>Node12&#45;&gt;Node16</title>
<path fill="none" stroke="midnightblue" d="M988.299,-168.324C1002.18,-159.9 1023.49,-146.971 1039.8,-137.074"/>
<polygon fill="midnightblue" stroke="midnightblue" points="1042,-139.834 1048.74,-131.655 1038.37,-133.85 1042,-139.834"/>
</g>
<!-- Node20 -->
<g id="node20" class="node"><title>Node20</title>
<g id="a_node20"><a xlink:href="_blob_8h.html" target="_top" xlink:title="uscxml/messages/Blob.h">
<polygon fill="white" stroke="black" points="1147.5,-112.5 1147.5,-131.5 1274.5,-131.5 1274.5,-112.5 1147.5,-112.5"/>
<text text-anchor="middle" x="1211" y="-119.5" font-family="Helvetica,sans-Serif" font-size="10.00">uscxml/messages/Blob.h</text>
</a>
</g>
</g>
<!-- Node12&#45;&gt;Node20 -->
<g id="edge26" class="edge"><title>Node12&#45;&gt;Node20</title>
<path fill="none" stroke="midnightblue" d="M1011.55,-168.444C1052.81,-159.043 1119.14,-143.929 1163.87,-133.739"/>
<polygon fill="midnightblue" stroke="midnightblue" points="1164.65,-137.151 1173.62,-131.516 1163.09,-130.326 1164.65,-137.151"/>
</g>
<!-- Node16&#45;&gt;Node3 -->
<g id="edge22" class="edge"><title>Node16&#45;&gt;Node3</title>
<path fill="none" stroke="midnightblue" d="M1011.66,-112.444C953.685,-102.781 859.488,-87.0814 798.389,-76.8982"/>
<polygon fill="midnightblue" stroke="midnightblue" points="798.944,-73.4425 788.505,-75.2508 797.793,-80.3472 798.944,-73.4425"/>
</g>
<!-- Node16&#45;&gt;Node17 -->
<g id="edge23" class="edge"><title>Node16&#45;&gt;Node17</title>
<path fill="none" stroke="midnightblue" d="M1086.45,-112.444C1111.86,-103.173 1152.49,-88.3464 1180.4,-78.1652"/>
<polygon fill="midnightblue" stroke="midnightblue" points="1181.86,-81.359 1190.05,-74.6433 1179.46,-74.783 1181.86,-81.359"/>
</g>
<!-- Node18 -->
<g id="node18" class="node"><title>Node18</title>
<polygon fill="white" stroke="#bfbfbf" points="1011.5,-56.5 1011.5,-75.5 1050.5,-75.5 1050.5,-56.5 1011.5,-56.5"/>
<text text-anchor="middle" x="1031" y="-63.5" font-family="Helvetica,sans-Serif" font-size="10.00">limits</text>
</g>
<!-- Node16&#45;&gt;Node18 -->
<g id="edge24" class="edge"><title>Node16&#45;&gt;Node18</title>
<path fill="none" stroke="midnightblue" d="M1057.72,-112.083C1053.29,-104.613 1046.84,-93.7244 1041.38,-84.5199"/>
<polygon fill="midnightblue" stroke="midnightblue" points="1044.29,-82.5697 1036.19,-75.7511 1038.27,-86.1383 1044.29,-82.5697"/>
</g>
<!-- Node19 -->
<g id="node19" class="node"><title>Node19</title>
<polygon fill="white" stroke="#bfbfbf" points="1069,-56.5 1069,-75.5 1121,-75.5 1121,-56.5 1069,-56.5"/>
<text text-anchor="middle" x="1095" y="-63.5" font-family="Helvetica,sans-Serif" font-size="10.00">sstream</text>
</g>
<!-- Node16&#45;&gt;Node19 -->
<g id="edge25" class="edge"><title>Node16&#45;&gt;Node19</title>
<path fill="none" stroke="midnightblue" d="M1068.28,-112.083C1072.71,-104.613 1079.16,-93.7244 1084.62,-84.5199"/>
<polygon fill="midnightblue" stroke="midnightblue" points="1087.73,-86.1383 1089.81,-75.7511 1081.71,-82.5697 1087.73,-86.1383"/>
</g>
<!-- Node20&#45;&gt;Node3 -->
<g id="edge29" class="edge"><title>Node20&#45;&gt;Node3</title>
<path fill="none" stroke="midnightblue" d="M1147.4,-113.007C1144.56,-112.664 1141.75,-112.327 1139,-112 1018.29,-97.6667 876.953,-82.0364 798.743,-73.4887"/>
<polygon fill="midnightblue" stroke="midnightblue" points="798.919,-69.9872 788.598,-72.381 798.159,-76.9458 798.919,-69.9872"/>
</g>
<!-- Node20&#45;&gt;Node15 -->
<g id="edge28" class="edge"><title>Node20&#45;&gt;Node15</title>
<path fill="none" stroke="midnightblue" d="M1238.41,-112.444C1267.94,-103.226 1315.07,-88.5157 1347.67,-78.3402"/>
<polygon fill="midnightblue" stroke="midnightblue" points="1348.78,-81.6597 1357.28,-75.339 1346.7,-74.9776 1348.78,-81.6597"/>
</g>
<!-- Node20&#45;&gt;Node17 -->
<g id="edge27" class="edge"><title>Node20&#45;&gt;Node17</title>
<path fill="none" stroke="midnightblue" d="M1211,-112.083C1211,-105.006 1211,-94.8611 1211,-85.9865"/>
<polygon fill="midnightblue" stroke="midnightblue" points="1214.5,-85.751 1211,-75.7511 1207.5,-85.7511 1214.5,-85.751"/>
</g>
<!-- Node21&#45;&gt;Node3 -->
<g id="edge31" class="edge"><title>Node21&#45;&gt;Node3</title>
<path fill="none" stroke="midnightblue" d="M820.415,-112.324C805.001,-103.743 781.188,-90.486 763.29,-80.5224"/>
<polygon fill="midnightblue" stroke="midnightblue" points="764.986,-77.4606 754.546,-75.6545 761.581,-83.5767 764.986,-77.4606"/>
</g>
<!-- Node21&#45;&gt;Node17 -->
<g id="edge32" class="edge"><title>Node21&#45;&gt;Node17</title>
<path fill="none" stroke="midnightblue" d="M885.797,-113.829C964.496,-102.497 1115.33,-80.7767 1180.15,-71.4426"/>
<polygon fill="midnightblue" stroke="midnightblue" points="1180.75,-74.8924 1190.15,-70.0027 1179.75,-67.9639 1180.75,-74.8924"/>
</g>
<!-- Node23&#45;&gt;Node3 -->
<g id="edge39" class="edge"><title>Node23&#45;&gt;Node3</title>
<path fill="none" stroke="midnightblue" d="M971.553,-336.448C932.161,-310.679 816.091,-229.52 757,-132 748.372,-117.761 743.775,-99.2871 741.394,-85.6755"/>
<polygon fill="midnightblue" stroke="midnightblue" points="744.824,-84.9522 739.874,-75.5849 737.902,-85.9947 744.824,-84.9522"/>
</g>
<!-- Node23&#45;&gt;Node10 -->
<g id="edge40" class="edge"><title>Node23&#45;&gt;Node10</title>
<path fill="none" stroke="midnightblue" d="M999.942,-336.324C1014.59,-327.822 1037.13,-314.729 1054.24,-304.797"/>
<polygon fill="midnightblue" stroke="midnightblue" points="1056.2,-307.703 1063.1,-299.655 1052.69,-301.649 1056.2,-307.703"/>
</g>
<!-- Node23&#45;&gt;Node11 -->
<g id="edge41" class="edge"><title>Node23&#45;&gt;Node11</title>
<path fill="none" stroke="midnightblue" d="M984.058,-336.368C982.122,-318.617 977.655,-277.666 975.029,-253.597"/>
<polygon fill="midnightblue" stroke="midnightblue" points="978.501,-253.153 973.937,-243.591 971.542,-253.912 978.501,-253.153"/>
</g>
<!-- Node24&#45;&gt;Node3 -->
<g id="edge52" class="edge"><title>Node24&#45;&gt;Node3</title>
<path fill="none" stroke="midnightblue" d="M410.54,-336.435C398.299,-328.469 381.169,-315.514 371,-300 354.5,-274.828 352,-265.098 352,-235 352,-235 352,-235 352,-177 352,-109.841 570.361,-81.51 679.035,-71.5685"/>
<polygon fill="midnightblue" stroke="midnightblue" points="679.549,-75.0367 689.199,-70.6632 678.928,-68.0644 679.549,-75.0367"/>
</g>
<!-- Node24&#45;&gt;Node8 -->
<g id="edge51" class="edge"><title>Node24&#45;&gt;Node8</title>
<path fill="none" stroke="midnightblue" d="M441.58,-336.5C456.088,-328.487 477.113,-315.426 492,-300 539.96,-250.303 537.07,-226.362 574,-168 579.85,-158.756 586.451,-148.499 591.876,-140.115"/>
<polygon fill="midnightblue" stroke="midnightblue" points="594.894,-141.894 597.398,-131.6 589.02,-138.086 594.894,-141.894"/>
</g>
<!-- Node24&#45;&gt;Node13 -->
<g id="edge49" class="edge"><title>Node24&#45;&gt;Node13</title>
<path fill="none" stroke="midnightblue" d="M474.036,-342.981C537.76,-339.262 651.887,-328.841 745,-300 817.528,-277.535 826.396,-249.255 898,-224 942.746,-208.218 1269.03,-143.732 1315,-132 1317.08,-131.47 1319.23,-130.896 1321.38,-130.305"/>
<polygon fill="midnightblue" stroke="midnightblue" points="1322.57,-133.606 1331.23,-127.501 1320.66,-126.873 1322.57,-133.606"/>
</g>
<!-- Node24&#45;&gt;Node22 -->
<g id="edge54" class="edge"><title>Node24&#45;&gt;Node22</title>
<path fill="none" stroke="midnightblue" d="M464.772,-336.444C508.558,-327.023 579.014,-311.866 626.38,-301.675"/>
<polygon fill="midnightblue" stroke="midnightblue" points="627.374,-305.041 636.414,-299.516 625.902,-298.198 627.374,-305.041"/>
</g>
<!-- Node25 -->
<g id="node25" class="node"><title>Node25</title>
<polygon fill="white" stroke="#bfbfbf" points="380,-280.5 380,-299.5 410,-299.5 410,-280.5 380,-280.5"/>
<text text-anchor="middle" x="395" y="-287.5" font-family="Helvetica,sans-Serif" font-size="10.00">set</text>
</g>
<!-- Node24&#45;&gt;Node25 -->
<g id="edge48" class="edge"><title>Node24&#45;&gt;Node25</title>
<path fill="none" stroke="midnightblue" d="M420.046,-336.083C415.896,-328.613 409.847,-317.724 404.733,-308.52"/>
<polygon fill="midnightblue" stroke="midnightblue" points="407.778,-306.793 399.862,-299.751 401.659,-310.192 407.778,-306.793"/>
</g>
<!-- Node26 -->
<g id="node26" class="node"><title>Node26</title>
<polygon fill="white" stroke="#bfbfbf" points="428.5,-280.5 428.5,-299.5 483.5,-299.5 483.5,-280.5 428.5,-280.5"/>
<text text-anchor="middle" x="456" y="-287.5" font-family="Helvetica,sans-Serif" font-size="10.00">iostream</text>
</g>
<!-- Node24&#45;&gt;Node26 -->
<g id="edge50" class="edge"><title>Node24&#45;&gt;Node26</title>
<path fill="none" stroke="midnightblue" d="M430.119,-336.083C434.408,-328.613 440.658,-317.724 445.942,-308.52"/>
<polygon fill="midnightblue" stroke="midnightblue" points="449.033,-310.166 450.976,-299.751 442.962,-306.681 449.033,-310.166"/>
</g>
<!-- Node27 -->
<g id="node27" class="node"><title>Node27</title>
<polygon fill="white" stroke="#bfbfbf" points="188.5,-280.5 188.5,-299.5 323.5,-299.5 323.5,-280.5 188.5,-280.5"/>
<text text-anchor="middle" x="256" y="-287.5" font-family="Helvetica,sans-Serif" font-size="10.00">xercesc/util/XMLString.hpp</text>
</g>
<!-- Node24&#45;&gt;Node27 -->
<g id="edge53" class="edge"><title>Node24&#45;&gt;Node27</title>
<path fill="none" stroke="midnightblue" d="M398.221,-336.444C369.667,-327.32 324.267,-312.813 292.463,-302.651"/>
<polygon fill="midnightblue" stroke="midnightblue" points="293.244,-299.226 282.653,-299.516 291.114,-305.894 293.244,-299.226"/>
</g>
</g>
</svg>
        <g id="navigator" transform="translate(0 0)" fill="#404254">
                <rect fill="#f2f5e9" fill-opacity="0.5" stroke="#606060" stroke-width=".5" x="0" y="0" width="60" height="60"/>
                <use id="zoomplus" xlink:href="#zoomPlus" x="17" y="9" onmousedown="handleZoom(evt,'in')"/>
                <use id="zoomminus" xlink:href="#zoomMin" x="42" y="9" onmousedown="handleZoom(evt,'out')"/>
                <use id="reset" xlink:href="#resetDef" x="30" y="36" onmousedown="handleReset()"/>
                <g id="arrowUp" xlink:href="#dirArrow" transform="translate(30 24)" onmousedown="handlePan(0,-1)">
                  <use xlink:href="#rim" fill="#404040">
                        <set attributeName="fill" to="#808080" begin="arrowUp.mouseover" end="arrowUp.mouseout"/>
                  </use>
                  <path fill="none" stroke="white" stroke-width="1.5" d="M0,-3.0v7 M-2.5,-0.5L0,-3.0L2.5,-0.5"/>
                </g>
                <g id="arrowRight" xlink:href="#dirArrow" transform="rotate(90) translate(36 -43)" onmousedown="handlePan(1,0)">
                  <use xlink:href="#rim" fill="#404040">
                        <set attributeName="fill" to="#808080" begin="arrowRight.mouseover" end="arrowRight.mouseout"/>
                  </use>
                  <path fill="none" stroke="white" stroke-width="1.5" d="M0,-3.0v7 M-2.5,-0.5L0,-3.0L2.5,-0.5"/>
                </g>
                <g id="arrowDown" xlink:href="#dirArrow" transform="rotate(180) translate(-30 -48)" onmousedown="handlePan(0,1)">
                  <use xlink:href="#rim" fill="#404040">
                        <set attributeName="fill" to="#808080" begin="arrowDown.mouseover" end="arrowDown.mouseout"/>
                  </use>
                  <path fill="none" stroke="white" stroke-width="1.5" d="M0,-3.0v7 M-2.5,-0.5L0,-3.0L2.5,-0.5"/>
                </g>
                <g id="arrowLeft" xlink:href="#dirArrow" transform="rotate(270) translate(-36 17)" onmousedown="handlePan(-1,0)">
                  <use xlink:href="#rim" fill="#404040">
                        <set attributeName="fill" to="#808080" begin="arrowLeft.mouseover" end="arrowLeft.mouseout"/>
                  </use>
                  <path fill="none" stroke="white" stroke-width="1.5" d="M0,-3.0v7 M-2.5,-0.5L0,-3.0L2.5,-0.5"/>
                </g>
        </g>
        <svg viewBox="0 0 15 15" width="100%" height="30px" preserveAspectRatio="xMaxYMin meet">
         <g id="arrow_out" transform="scale(0.3 0.3)">
          <a xlink:href="_n_u_l_l_data_model_8cpp__incl_org.svg" target="_base">
           <rect id="button" ry="5" rx="5" y="6" x="6" height="38" width="38"
                fill="#f2f5e9" fill-opacity="0.5" stroke="#606060" stroke-width="1.0"/>
           <path id="arrow"
             d="M 11.500037,31.436501 C 11.940474,20.09759 22.043105,11.32322 32.158766,21.979434 L 37.068811,17.246167 C 37.068811,17.246167 37.088388,32 37.088388,32 L 22.160133,31.978069 C 22.160133,31.978069 26.997745,27.140456 26.997745,27.140456 C 18.528582,18.264221 13.291696,25.230495 11.500037,31.436501 z"
             style="fill:#404040;"/>
          </a>
         </g>
        </svg>
</svg>
