<?xml version="1.0" encoding="UTF-8" standalone="no"?>
<!DOCTYPE svg PUBLIC "-//W3C//DTD SVG 1.1//EN"
 "http://www.w3.org/Graphics/SVG/1.1/DTD/svg11.dtd">
<!-- Generated by graphviz version 2.40.1 (20161225.0304)
 -->
<!-- Title: plugins/datamodel/null/NullDataModel.cpp Pages: 1 -->
<svg width="1256pt" height="565pt"
 viewBox="0.00 0.00 1256.00 565.00" xmlns="http://www.w3.org/2000/svg" xmlns:xlink="http://www.w3.org/1999/xlink">
<g id="graph0" class="graph" transform="scale(1 1) rotate(0) translate(4 561)">
<title>plugins/datamodel/null/NullDataModel.cpp</title>
<polygon fill="#ffffff" stroke="transparent" points="-4,4 -4,-561 1252,-561 1252,4 -4,4"/>
<!-- Node0 -->
<g id="node1" class="node">
<title>Node0</title>
<polygon fill="#bfbfbf" stroke="#000000" points="102,-526.5 102,-556.5 218,-556.5 218,-526.5 102,-526.5"/>
<text text-anchor="start" x="110" y="-544.5" font-family="Helvetica,sans-Serif" font-size="10.00" fill="#000000">plugins/datamodel/null</text>
<text text-anchor="middle" x="160" y="-533.5" font-family="Helvetica,sans-Serif" font-size="10.00" fill="#000000">/NullDataModel.cpp</text>
</g>
<!-- Node1 -->
<g id="node2" class="node">
<title>Node1</title>
<polygon fill="#ffffff" stroke="#bfbfbf" points="0,-470.5 0,-489.5 132,-489.5 132,-470.5 0,-470.5"/>
<text text-anchor="middle" x="66" y="-477.5" font-family="Helvetica,sans-Serif" font-size="10.00" fill="#000000">boost/algorithm/string.hpp</text>
</g>
<!-- Node0&#45;&gt;Node1 -->
<g id="edge1" class="edge">
<title>Node0&#45;&gt;Node1</title>
<path fill="none" stroke="#191970" d="M136.764,-526.2977C122.2666,-516.8127 103.6756,-504.6495 89.1874,-495.1705"/>
<polygon fill="#191970" stroke="#191970" points="91.0543,-492.2094 80.7699,-489.6633 87.2218,-498.0671 91.0543,-492.2094"/>
</g>
<!-- Node2 -->
<g id="node3" class="node">
<title>Node2</title>
<g id="a_node3"><a xlink:href="_common_8h.html" target="_top" xlink:title="uscxml/Common.h">
<polygon fill="#ffffff" stroke="#000000" points="362.5,-56.5 362.5,-75.5 461.5,-75.5 461.5,-56.5 362.5,-56.5"/>
<text text-anchor="middle" x="412" y="-63.5" font-family="Helvetica,sans-Serif" font-size="10.00" fill="#000000">uscxml/Common.h</text>
</a>
</g>
</g>
<!-- Node0&#45;&gt;Node2 -->
<g id="edge2" class="edge">
<title>Node0&#45;&gt;Node2</title>
<path fill="none" stroke="#191970" d="M160,-526.3514C160,-503.1367 160,-457.3646 160,-418.5 160,-418.5 160,-418.5 160,-178 160,-133.5978 195.7799,-132.8168 235,-112 271.5005,-92.6267 316.6374,-81.0624 352.1945,-74.3745"/>
<polygon fill="#191970" stroke="#191970" points="353.2045,-77.749 362.4267,-72.5336 351.965,-70.8596 353.2045,-77.749"/>
</g>
<!-- Node5 -->
<g id="node6" class="node">
<title>Node5</title>
<g id="a_node6"><a xlink:href="_null_data_model_8h.html" target="_top" xlink:title="NullDataModel.h">
<polygon fill="#ffffff" stroke="#000000" points="303,-470.5 303,-489.5 393,-489.5 393,-470.5 303,-470.5"/>
<text text-anchor="middle" x="348" y="-477.5" font-family="Helvetica,sans-Serif" font-size="10.00" fill="#000000">NullDataModel.h</text>
</a>
</g>
</g>
<!-- Node0&#45;&gt;Node5 -->
<g id="edge5" class="edge">
<title>Node0&#45;&gt;Node5</title>
<path fill="none" stroke="#191970" d="M205.99,-526.4554C237.6334,-516.104 279.199,-502.5067 309.1759,-492.7004"/>
<polygon fill="#191970" stroke="#191970" points="310.4505,-495.9661 318.8667,-489.5303 308.2741,-489.313 310.4505,-495.9661"/>
</g>
<!-- Node3 -->
<g id="node4" class="node">
<title>Node3</title>
<polygon fill="#ffffff" stroke="#bfbfbf" points="338,-.5 338,-19.5 410,-19.5 410,-.5 338,-.5"/>
<text text-anchor="middle" x="374" y="-7.5" font-family="Helvetica,sans-Serif" font-size="10.00" fill="#000000">sys/socket.h</text>
</g>
<!-- Node2&#45;&gt;Node3 -->
<g id="edge3" class="edge">
<title>Node2&#45;&gt;Node3</title>
<path fill="none" stroke="#191970" d="M405.3809,-56.2455C400.0954,-48.4564 392.5459,-37.3308 386.1762,-27.9439"/>
<polygon fill="#191970" stroke="#191970" points="389.0545,-25.9522 380.5432,-19.6427 383.2621,-29.8827 389.0545,-25.9522"/>
</g>
<!-- Node4 -->
<g id="node5" class="node">
<title>Node4</title>
<polygon fill="#ffffff" stroke="#bfbfbf" points="428,-.5 428,-19.5 472,-19.5 472,-.5 428,-.5"/>
<text text-anchor="middle" x="450" y="-7.5" font-family="Helvetica,sans-Serif" font-size="10.00" fill="#000000">cmath</text>
</g>
<!-- Node2&#45;&gt;Node4 -->
<g id="edge4" class="edge">
<title>Node2&#45;&gt;Node4</title>
<path fill="none" stroke="#191970" d="M418.6191,-56.2455C423.9046,-48.4564 431.4541,-37.3308 437.8238,-27.9439"/>
<polygon fill="#191970" stroke="#191970" points="440.7379,-29.8827 443.4568,-19.6427 434.9455,-25.9522 440.7379,-29.8827"/>
</g>
<!-- Node6 -->
<g id="node7" class="node">
<title>Node6</title>
<polygon fill="#ffffff" stroke="#bfbfbf" points="548.5,-409 548.5,-428 633.5,-428 633.5,-409 548.5,-409"/>
<text text-anchor="middle" x="591" y="-416" font-family="Helvetica,sans-Serif" font-size="10.00" fill="#000000">uscxml/config.h</text>
</g>
<!-- Node5&#45;&gt;Node6 -->
<g id="edge6" class="edge">
<title>Node5&#45;&gt;Node6</title>
<path fill="none" stroke="#191970" d="M390.8908,-470.4982C429.9251,-461.6674 489.058,-447.8303 540,-434 543.5584,-433.0339 547.2445,-431.9931 550.9324,-430.9242"/>
<polygon fill="#191970" stroke="#191970" points="552.0155,-434.2538 560.6122,-428.0613 550.0301,-427.5413 552.0155,-434.2538"/>
</g>
<!-- Node7 -->
<g id="node8" class="node">
<title>Node7</title>
<g id="a_node8"><a xlink:href="_data_model_impl_8h.html" target="_top" xlink:title="uscxml/plugins/DataModel\lImpl.h">
<polygon fill="#ffffff" stroke="#000000" points="397.5,-403.5 397.5,-433.5 530.5,-433.5 530.5,-403.5 397.5,-403.5"/>
<text text-anchor="start" x="405.5" y="-421.5" font-family="Helvetica,sans-Serif" font-size="10.00" fill="#000000">uscxml/plugins/DataModel</text>
<text text-anchor="middle" x="464" y="-410.5" font-family="Helvetica,sans-Serif" font-size="10.00" fill="#000000">Impl.h</text>
</a>
</g>
</g>
<!-- Node5&#45;&gt;Node7 -->
<g id="edge7" class="edge">
<title>Node5&#45;&gt;Node7</title>
<path fill="none" stroke="#191970" d="M366.125,-470.3906C382.2603,-461.8361 406.3755,-449.0509 426.6309,-438.3121"/>
<polygon fill="#191970" stroke="#191970" points="428.4276,-441.3211 435.6232,-433.5446 425.1486,-435.1365 428.4276,-441.3211"/>
</g>
<!-- Node12 -->
<g id="node13" class="node">
<title>Node12</title>
<polygon fill="#ffffff" stroke="#bfbfbf" points="259.5,-112.5 259.5,-131.5 288.5,-131.5 288.5,-112.5 259.5,-112.5"/>
<text text-anchor="middle" x="274" y="-119.5" font-family="Helvetica,sans-Serif" font-size="10.00" fill="#000000">list</text>
</g>
<!-- Node5&#45;&gt;Node12 -->
<g id="edge48" class="edge">
<title>Node5&#45;&gt;Node12</title>
<path fill="none" stroke="#191970" d="M317.6453,-470.4735C273.8148,-454.6031 198,-418.2929 198,-357 198,-357 198,-357 198,-295.5 198,-234.1085 238.417,-169.9885 260.303,-139.7677"/>
<polygon fill="#191970" stroke="#191970" points="263.2786,-141.6314 266.435,-131.5176 257.6605,-137.4556 263.2786,-141.6314"/>
</g>
<!-- Node7&#45;&gt;Node2 -->
<g id="edge8" class="edge">
<title>Node7&#45;&gt;Node2</title>
<path fill="none" stroke="#191970" d="M397.2587,-404.3794C356.6279,-394.6454 309.626,-380.9848 294,-367 251.7372,-329.1761 266.7111,-300.3183 260,-244 253.0383,-185.5786 214.5317,-158.9417 250,-112 262.5784,-95.3526 311.4895,-82.9692 352.3089,-75.2699"/>
<polygon fill="#191970" stroke="#191970" points="353.0072,-78.7004 362.216,-73.4613 351.75,-71.8142 353.0072,-78.7004"/>
</g>
<!-- Node8 -->
<g id="node9" class="node">
<title>Node8</title>
<g id="a_node9"><a xlink:href="_invoker_8h.html" target="_top" xlink:title="uscxml/plugins/Invoker.h">
<polygon fill="#ffffff" stroke="#000000" points="660,-347.5 660,-366.5 786,-366.5 786,-347.5 660,-347.5"/>
<text text-anchor="middle" x="723" y="-354.5" font-family="Helvetica,sans-Serif" font-size="10.00" fill="#000000">uscxml/plugins/Invoker.h</text>
</a>
</g>
</g>
<!-- Node7&#45;&gt;Node8 -->
<g id="edge9" class="edge">
<title>Node7&#45;&gt;Node8</title>
<path fill="none" stroke="#191970" d="M527.3585,-403.4554C572.1844,-392.8114 631.4631,-378.7356 672.9761,-368.8783"/>
<polygon fill="#191970" stroke="#191970" points="673.9433,-372.246 682.8642,-366.5303 672.3261,-365.4354 673.9433,-372.246"/>
</g>
<!-- Node7&#45;&gt;Node12 -->
<g id="edge45" class="edge">
<title>Node7&#45;&gt;Node12</title>
<path fill="none" stroke="#191970" d="M397.2803,-404.2224C342.5337,-388.1284 274,-355.9158 274,-295.5 274,-295.5 274,-295.5 274,-234 274,-201.7116 274,-164.1872 274,-141.8048"/>
<polygon fill="#191970" stroke="#191970" points="277.5001,-141.5883 274,-131.5884 270.5001,-141.5884 277.5001,-141.5883"/>
</g>
<!-- Node14 -->
<g id="node15" class="node">
<title>Node14</title>
<polygon fill="#ffffff" stroke="#bfbfbf" points="1145.5,-56.5 1145.5,-75.5 1198.5,-75.5 1198.5,-56.5 1145.5,-56.5"/>
<text text-anchor="middle" x="1172" y="-63.5" font-family="Helvetica,sans-Serif" font-size="10.00" fill="#000000">memory</text>
</g>
<!-- Node7&#45;&gt;Node14 -->
<g id="edge47" class="edge">
<title>Node7&#45;&gt;Node14</title>
<path fill="none" stroke="#191970" d="M530.6768,-404.6135C533.8248,-404.0485 536.9446,-403.5073 540,-403 696.9876,-376.9354 1248,-454.6366 1248,-295.5 1248,-295.5 1248,-295.5 1248,-178 1248,-138.2361 1214.7929,-102.1042 1192.2792,-82.177"/>
<polygon fill="#191970" stroke="#191970" points="1194.4317,-79.4128 1184.5499,-75.5918 1189.8921,-84.7412 1194.4317,-79.4128"/>
</g>
<!-- Node17 -->
<g id="node18" class="node">
<title>Node17</title>
<polygon fill="#ffffff" stroke="#bfbfbf" points="642.5,-56.5 642.5,-75.5 683.5,-75.5 683.5,-56.5 642.5,-56.5"/>
<text text-anchor="middle" x="663" y="-63.5" font-family="Helvetica,sans-Serif" font-size="10.00" fill="#000000">string</text>
</g>
<!-- Node7&#45;&gt;Node17 -->
<g id="edge46" class="edge">
<title>Node7&#45;&gt;Node17</title>
<path fill="none" stroke="#191970" d="M466.8981,-403.2637C470.024,-388.4733 475.6962,-365.5959 484,-347 531.7789,-240.001 616.0373,-126.3735 649.1158,-83.618"/>
<polygon fill="#191970" stroke="#191970" points="651.9796,-85.6371 655.366,-75.598 646.4583,-81.3341 651.9796,-85.6371"/>
</g>
<!-- Node22 -->
<g id="node23" class="node">
<title>Node22</title>
<g id="a_node23"><a xlink:href="_i_o_processor_8h.html" target="_top" xlink:title="uscxml/plugins/IOProcessor.h">
<polygon fill="#ffffff" stroke="#000000" points="492.5,-347.5 492.5,-366.5 641.5,-366.5 641.5,-347.5 492.5,-347.5"/>
<text text-anchor="middle" x="567" y="-354.5" font-family="Helvetica,sans-Serif" font-size="10.00" fill="#000000">uscxml/plugins/IOProcessor.h</text>
</a>
</g>
</g>
<!-- Node7&#45;&gt;Node22 -->
<g id="edge36" class="edge">
<title>Node7&#45;&gt;Node22</title>
<path fill="none" stroke="#191970" d="M489.1966,-403.4554C505.3272,-393.8241 526.1638,-381.3828 542.2136,-371.7996"/>
<polygon fill="#191970" stroke="#191970" points="544.247,-374.662 551.0387,-366.5303 540.6584,-368.6518 544.247,-374.662"/>
</g>
<!-- Node23 -->
<g id="node24" class="node">
<title>Node23</title>
<g id="a_node24"><a xlink:href="_logging_8h.html" target="_top" xlink:title="uscxml/interpreter\l/Logging.h">
<polygon fill="#ffffff" stroke="#000000" points="804,-280.5 804,-310.5 900,-310.5 900,-280.5 804,-280.5"/>
<text text-anchor="start" x="812" y="-298.5" font-family="Helvetica,sans-Serif" font-size="10.00" fill="#000000">uscxml/interpreter</text>
<text text-anchor="middle" x="852" y="-287.5" font-family="Helvetica,sans-Serif" font-size="10.00" fill="#000000">/Logging.h</text>
</a>
</g>
</g>
<!-- Node7&#45;&gt;Node23 -->
<g id="edge40" class="edge">
<title>Node7&#45;&gt;Node23</title>
<path fill="none" stroke="#191970" d="M530.6847,-404.6605C533.8306,-404.0829 536.9478,-403.5262 540,-403 652.7933,-383.5548 695.6154,-423.7728 795,-367 814.2433,-356.0074 829.4494,-335.7416 839.2989,-319.5852"/>
<polygon fill="#191970" stroke="#191970" points="842.4909,-321.0571 844.4693,-310.6486 836.4319,-317.5516 842.4909,-321.0571"/>
</g>
<!-- Node8&#45;&gt;Node2 -->
<g id="edge10" class="edge">
<title>Node8&#45;&gt;Node2</title>
<path fill="none" stroke="#191970" d="M662.5435,-347.4554C613.7993,-338.9068 549.8889,-325.51 528,-311 447.9617,-257.9434 431.0169,-224.9748 407,-132 403.0482,-116.7018 404.784,-98.7971 407.2376,-85.4992"/>
<polygon fill="#191970" stroke="#191970" points="410.6921,-86.0813 409.3584,-75.5708 403.8466,-84.619 410.6921,-86.0813"/>
</g>
<!-- Node9 -->
<g id="node10" class="node">
<title>Node9</title>
<g id="a_node10"><a xlink:href="_event_handler_8h.html" target="_top" xlink:title="uscxml/plugins/EventHandler.h">
<polygon fill="#ffffff" stroke="#000000" points="537,-286 537,-305 691,-305 691,-286 537,-286"/>
<text text-anchor="middle" x="614" y="-293" font-family="Helvetica,sans-Serif" font-size="10.00" fill="#000000">uscxml/plugins/EventHandler.h</text>
</a>
</g>
</g>
<!-- Node8&#45;&gt;Node9 -->
<g id="edge11" class="edge">
<title>Node8&#45;&gt;Node9</title>
<path fill="none" stroke="#191970" d="M705.9688,-347.3906C688.211,-337.3713 660.167,-321.5483 639.7118,-310.0071"/>
<polygon fill="#191970" stroke="#191970" points="641.3409,-306.9077 630.9117,-305.0419 637.9011,-313.0042 641.3409,-306.9077"/>
</g>
<!-- Node10 -->
<g id="node11" class="node">
<title>Node10</title>
<g id="a_node11"><a xlink:href="_event_8h.html" target="_top" xlink:title="uscxml/messages/Event.h">
<polygon fill="#ffffff" stroke="#000000" points="690.5,-224.5 690.5,-243.5 823.5,-243.5 823.5,-224.5 690.5,-224.5"/>
<text text-anchor="middle" x="757" y="-231.5" font-family="Helvetica,sans-Serif" font-size="10.00" fill="#000000">uscxml/messages/Event.h</text>
</a>
</g>
</g>
<!-- Node8&#45;&gt;Node10 -->
<g id="edge35" class="edge">
<title>Node8&#45;&gt;Node10</title>
<path fill="none" stroke="#191970" d="M725.6679,-347.3484C731.2541,-327.1397 744.2727,-280.0427 751.6505,-253.3528"/>
<polygon fill="#191970" stroke="#191970" points="755.0536,-254.1778 754.3445,-243.6068 748.3066,-252.3128 755.0536,-254.1778"/>
</g>
<!-- Node9&#45;&gt;Node2 -->
<g id="edge12" class="edge">
<title>Node9&#45;&gt;Node2</title>
<path fill="none" stroke="#191970" d="M593.8354,-285.8456C552.1828,-264.6784 457.187,-209.792 417,-132 409.6657,-117.8026 408.8242,-99.5544 409.5857,-85.8455"/>
<polygon fill="#191970" stroke="#191970" points="413.0984,-85.8564 410.4951,-75.5864 406.1257,-85.2383 413.0984,-85.8564"/>
</g>
<!-- Node9&#45;&gt;Node10 -->
<g id="edge13" class="edge">
<title>Node9&#45;&gt;Node10</title>
<path fill="none" stroke="#191970" d="M636.3438,-285.8906C660.2703,-275.6005 698.4309,-259.1888 725.4216,-247.5809"/>
<polygon fill="#191970" stroke="#191970" points="727.0095,-250.708 734.8131,-243.5419 724.2439,-244.2775 727.0095,-250.708"/>
</g>
<!-- Node9&#45;&gt;Node12 -->
<g id="edge32" class="edge">
<title>Node9&#45;&gt;Node12</title>
<path fill="none" stroke="#191970" d="M587.5019,-285.8224C561.6987,-276.1308 521.5709,-260.3441 488,-244 416.7509,-209.3122 336.5277,-160.9226 297.6496,-136.8396"/>
<polygon fill="#191970" stroke="#191970" points="299.0266,-133.5743 288.6868,-131.2637 295.3289,-139.518 299.0266,-133.5743"/>
</g>
<!-- Node9&#45;&gt;Node14 -->
<g id="edge34" class="edge">
<title>Node9&#45;&gt;Node14</title>
<path fill="none" stroke="#191970" d="M619.9292,-285.8726C630.312,-269.9558 653.424,-238.4779 682,-224 867.2074,-130.1652 982.9382,-267.7879 1140,-132 1154.108,-119.8029 1162.547,-99.9609 1167.1861,-85.2129"/>
<polygon fill="#191970" stroke="#191970" points="1170.5634,-86.1318 1169.9192,-75.5565 1163.828,-84.2254 1170.5634,-86.1318"/>
</g>
<!-- Node9&#45;&gt;Node17 -->
<g id="edge33" class="edge">
<title>Node9&#45;&gt;Node17</title>
<path fill="none" stroke="#191970" d="M616.0431,-285.9309C623.4211,-251.3746 648.7816,-132.5944 658.841,-85.4794"/>
<polygon fill="#191970" stroke="#191970" points="662.283,-86.1204 660.9482,-75.61 655.4372,-84.6587 662.283,-86.1204"/>
</g>
<!-- Node11 -->
<g id="node12" class="node">
<title>Node11</title>
<g id="a_node12"><a xlink:href="_data_8h.html" target="_top" xlink:title="uscxml/messages/Data.h">
<polygon fill="#ffffff" stroke="#000000" points="826,-168.5 826,-187.5 954,-187.5 954,-168.5 826,-168.5"/>
<text text-anchor="middle" x="890" y="-175.5" font-family="Helvetica,sans-Serif" font-size="10.00" fill="#000000">uscxml/messages/Data.h</text>
</a>
</g>
</g>
<!-- Node10&#45;&gt;Node11 -->
<g id="edge14" class="edge">
<title>Node10&#45;&gt;Node11</title>
<path fill="none" stroke="#191970" d="M779.8635,-224.3733C801.405,-215.3032 833.8838,-201.6279 857.9956,-191.4755"/>
<polygon fill="#191970" stroke="#191970" points="859.5767,-194.6075 867.4348,-187.5011 856.8603,-188.156 859.5767,-194.6075"/>
</g>
<!-- Node21 -->
<g id="node22" class="node">
<title>Node21</title>
<g id="a_node22"><a xlink:href="_u_u_i_d_8h.html" target="_top" xlink:title="uscxml/util/UUID.h">
<polygon fill="#ffffff" stroke="#000000" points="497.5,-112.5 497.5,-131.5 596.5,-131.5 596.5,-112.5 497.5,-112.5"/>
<text text-anchor="middle" x="547" y="-119.5" font-family="Helvetica,sans-Serif" font-size="10.00" fill="#000000">uscxml/util/UUID.h</text>
</a>
</g>
</g>
<!-- Node10&#45;&gt;Node21 -->
<g id="edge29" class="edge">
<title>Node10&#45;&gt;Node21</title>
<path fill="none" stroke="#191970" d="M739.0955,-224.4509C702.1328,-204.7375 617.2123,-159.4465 573.7269,-136.2543"/>
<polygon fill="#191970" stroke="#191970" points="575.3298,-133.1426 564.8592,-131.5249 572.0356,-139.3191 575.3298,-133.1426"/>
</g>
<!-- Node11&#45;&gt;Node2 -->
<g id="edge19" class="edge">
<title>Node11&#45;&gt;Node2</title>
<path fill="none" stroke="#191970" d="M825.9614,-171.6444C716.6308,-160.6543 504.2138,-138.6381 489,-132 463.9465,-121.0686 440.9614,-99.1226 426.75,-83.5418"/>
<polygon fill="#191970" stroke="#191970" points="429.0361,-80.842 419.8001,-75.651 423.7831,-85.4687 429.0361,-80.842"/>
</g>
<!-- Node11&#45;&gt;Node12 -->
<g id="edge15" class="edge">
<title>Node11&#45;&gt;Node12</title>
<path fill="none" stroke="#191970" d="M825.8205,-172.1655C691.9538,-159.9958 387.9903,-132.3628 298.9485,-124.268"/>
<polygon fill="#191970" stroke="#191970" points="299.0089,-120.7592 288.7331,-123.3394 298.3751,-127.7304 299.0089,-120.7592"/>
</g>
<!-- Node13 -->
<g id="node14" class="node">
<title>Node13</title>
<polygon fill="#ffffff" stroke="#bfbfbf" points="988,-112.5 988,-131.5 1024,-131.5 1024,-112.5 988,-112.5"/>
<text text-anchor="middle" x="1006" y="-119.5" font-family="Helvetica,sans-Serif" font-size="10.00" fill="#000000">map</text>
</g>
<!-- Node11&#45;&gt;Node13 -->
<g id="edge16" class="edge">
<title>Node11&#45;&gt;Node13</title>
<path fill="none" stroke="#191970" d="M909.9411,-168.3733C928.928,-159.2072 957.6573,-145.3378 978.7518,-135.1543"/>
<polygon fill="#191970" stroke="#191970" points="980.3602,-138.2644 987.8441,-130.7649 977.317,-131.9605 980.3602,-138.2644"/>
</g>
<!-- Node11&#45;&gt;Node14 -->
<g id="edge17" class="edge">
<title>Node11&#45;&gt;Node14</title>
<path fill="none" stroke="#191970" d="M954.1645,-169.5842C1010.7356,-161.3214 1088.2114,-147.6978 1115,-132 1134.6877,-120.4633 1150.9507,-99.634 1160.9974,-84.4528"/>
<polygon fill="#191970" stroke="#191970" points="1164.0416,-86.1873 1166.4246,-75.8639 1158.124,-82.448 1164.0416,-86.1873"/>
</g>
<!-- Node15 -->
<g id="node16" class="node">
<title>Node15</title>
<polygon fill="#ffffff" stroke="#bfbfbf" points="1042.5,-112.5 1042.5,-131.5 1105.5,-131.5 1105.5,-112.5 1042.5,-112.5"/>
<text text-anchor="middle" x="1074" y="-119.5" font-family="Helvetica,sans-Serif" font-size="10.00" fill="#000000">type_traits</text>
</g>
<!-- Node11&#45;&gt;Node15 -->
<g id="edge18" class="edge">
<title>Node11&#45;&gt;Node15</title>
<path fill="none" stroke="#191970" d="M921.6307,-168.3733C952.3596,-159.021 999.176,-144.7725 1032.8022,-134.5385"/>
<polygon fill="#191970" stroke="#191970" points="1034.2344,-137.7612 1042.782,-131.5011 1032.1962,-131.0644 1034.2344,-137.7612"/>
</g>
<!-- Node16 -->
<g id="node17" class="node">
<title>Node16</title>
<g id="a_node17"><a xlink:href="_convenience_8h.html" target="_top" xlink:title="uscxml/util/Convenience.h">
<polygon fill="#ffffff" stroke="#000000" points="836.5,-112.5 836.5,-131.5 969.5,-131.5 969.5,-112.5 836.5,-112.5"/>
<text text-anchor="middle" x="903" y="-119.5" font-family="Helvetica,sans-Serif" font-size="10.00" fill="#000000">uscxml/util/Convenience.h</text>
</a>
</g>
</g>
<!-- Node11&#45;&gt;Node16 -->
<g id="edge20" class="edge">
<title>Node11&#45;&gt;Node16</title>
<path fill="none" stroke="#191970" d="M892.2644,-168.2455C893.9794,-160.8579 896.3912,-150.4689 898.4944,-141.4087"/>
<polygon fill="#191970" stroke="#191970" points="901.9095,-142.1751 900.7615,-131.6427 895.0908,-140.5922 901.9095,-142.1751"/>
</g>
<!-- Node20 -->
<g id="node21" class="node">
<title>Node20</title>
<g id="a_node21"><a xlink:href="_blob_8h.html" target="_top" xlink:title="uscxml/messages/Blob.h">
<polygon fill="#ffffff" stroke="#000000" points="691.5,-112.5 691.5,-131.5 818.5,-131.5 818.5,-112.5 691.5,-112.5"/>
<text text-anchor="middle" x="755" y="-119.5" font-family="Helvetica,sans-Serif" font-size="10.00" fill="#000000">uscxml/messages/Blob.h</text>
</a>
</g>
</g>
<!-- Node11&#45;&gt;Node20 -->
<g id="edge25" class="edge">
<title>Node11&#45;&gt;Node20</title>
<path fill="none" stroke="#191970" d="M866.7927,-168.3733C844.8301,-159.2629 811.6668,-145.5062 787.1599,-135.3404"/>
<polygon fill="#191970" stroke="#191970" points="788.4824,-132.0999 777.9045,-131.5011 785.8003,-138.5657 788.4824,-132.0999"/>
</g>
<!-- Node16&#45;&gt;Node2 -->
<g id="edge21" class="edge">
<title>Node16&#45;&gt;Node2</title>
<path fill="none" stroke="#191970" d="M836.3537,-113.0349C833.532,-112.6803 830.7383,-112.3339 828,-112 701.2464,-96.5437 552.4846,-80.6312 471.66,-72.1723"/>
<polygon fill="#191970" stroke="#191970" points="471.9789,-68.6866 461.6693,-71.1284 471.2514,-75.6487 471.9789,-68.6866"/>
</g>
<!-- Node16&#45;&gt;Node17 -->
<g id="edge22" class="edge">
<title>Node16&#45;&gt;Node17</title>
<path fill="none" stroke="#191970" d="M862.0152,-112.4369C814.15,-101.2683 736.0919,-83.0548 693.3464,-73.0808"/>
<polygon fill="#191970" stroke="#191970" points="694.0637,-69.6542 683.5299,-70.7903 692.473,-76.4711 694.0637,-69.6542"/>
</g>
<!-- Node18 -->
<g id="node19" class="node">
<title>Node18</title>
<polygon fill="#ffffff" stroke="#bfbfbf" points="915.5,-56.5 915.5,-75.5 954.5,-75.5 954.5,-56.5 915.5,-56.5"/>
<text text-anchor="middle" x="935" y="-63.5" font-family="Helvetica,sans-Serif" font-size="10.00" fill="#000000">limits</text>
</g>
<!-- Node16&#45;&gt;Node18 -->
<g id="edge23" class="edge">
<title>Node16&#45;&gt;Node18</title>
<path fill="none" stroke="#191970" d="M908.574,-112.2455C912.9331,-104.617 919.1211,-93.7881 924.4133,-84.5267"/>
<polygon fill="#191970" stroke="#191970" points="927.5673,-86.0616 929.4899,-75.6427 921.4896,-82.5886 927.5673,-86.0616"/>
</g>
<!-- Node19 -->
<g id="node20" class="node">
<title>Node19</title>
<polygon fill="#ffffff" stroke="#bfbfbf" points="845,-56.5 845,-75.5 897,-75.5 897,-56.5 845,-56.5"/>
<text text-anchor="middle" x="871" y="-63.5" font-family="Helvetica,sans-Serif" font-size="10.00" fill="#000000">sstream</text>
</g>
<!-- Node16&#45;&gt;Node19 -->
<g id="edge24" class="edge">
<title>Node16&#45;&gt;Node19</title>
<path fill="none" stroke="#191970" d="M897.426,-112.2455C893.0669,-104.617 886.8789,-93.7881 881.5867,-84.5267"/>
<polygon fill="#191970" stroke="#191970" points="884.5104,-82.5886 876.5101,-75.6427 878.4327,-86.0616 884.5104,-82.5886"/>
</g>
<!-- Node20&#45;&gt;Node2 -->
<g id="edge28" class="edge">
<title>Node20&#45;&gt;Node2</title>
<path fill="none" stroke="#191970" d="M696.4259,-112.4369C633.8049,-102.213 535.0242,-86.0856 471.8988,-75.7794"/>
<polygon fill="#191970" stroke="#191970" points="472.1334,-72.2714 461.7001,-74.1143 471.0054,-79.18 472.1334,-72.2714"/>
</g>
<!-- Node20&#45;&gt;Node14 -->
<g id="edge27" class="edge">
<title>Node20&#45;&gt;Node14</title>
<path fill="none" stroke="#191970" d="M818.6996,-113.2618C821.8442,-112.8343 824.9577,-112.4118 828,-112 939.7591,-96.873 1071.9857,-79.2759 1135.008,-70.907"/>
<polygon fill="#191970" stroke="#191970" points="1135.7812,-74.3352 1145.2336,-69.5495 1134.8599,-67.3961 1135.7812,-74.3352"/>
</g>
<!-- Node20&#45;&gt;Node17 -->
<g id="edge26" class="edge">
<title>Node20&#45;&gt;Node17</title>
<path fill="none" stroke="#191970" d="M738.9748,-112.2455C724.8592,-103.6534 704.0737,-91.0014 687.8101,-81.1018"/>
<polygon fill="#191970" stroke="#191970" points="689.2034,-77.8525 678.8415,-75.6427 685.5637,-83.8319 689.2034,-77.8525"/>
</g>
<!-- Node21&#45;&gt;Node2 -->
<g id="edge30" class="edge">
<title>Node21&#45;&gt;Node2</title>
<path fill="none" stroke="#191970" d="M523.7927,-112.3733C501.8301,-103.2629 468.6668,-89.5062 444.1599,-79.3404"/>
<polygon fill="#191970" stroke="#191970" points="445.4824,-76.0999 434.9045,-75.5011 442.8003,-82.5657 445.4824,-76.0999"/>
</g>
<!-- Node21&#45;&gt;Node17 -->
<g id="edge31" class="edge">
<title>Node21&#45;&gt;Node17</title>
<path fill="none" stroke="#191970" d="M566.9411,-112.3733C585.4786,-103.4241 613.3028,-89.9917 634.2413,-79.8835"/>
<polygon fill="#191970" stroke="#191970" points="635.8352,-83.0006 643.3191,-75.5011 632.7919,-76.6967 635.8352,-83.0006"/>
</g>
<!-- Node22&#45;&gt;Node2 -->
<g id="edge37" class="edge">
<title>Node22&#45;&gt;Node2</title>
<path fill="none" stroke="#191970" d="M492.473,-347.7153C445.37,-340.2987 390.396,-328.2658 374,-311 312.2649,-245.9899 298.1795,-190.7651 341,-112 348.6377,-97.9511 362.6209,-87.5317 376.1708,-80.1958"/>
<polygon fill="#191970" stroke="#191970" points="378.0059,-83.1921 385.399,-75.603 374.887,-76.9253 378.0059,-83.1921"/>
</g>
<!-- Node22&#45;&gt;Node9 -->
<g id="edge38" class="edge">
<title>Node22&#45;&gt;Node9</title>
<path fill="none" stroke="#191970" d="M574.3438,-347.3906C581.2702,-338.3273 591.826,-324.5149 600.306,-313.4188"/>
<polygon fill="#191970" stroke="#191970" points="603.2615,-315.3155 606.5527,-305.2449 597.6997,-311.065 603.2615,-315.3155"/>
</g>
<!-- Node22&#45;&gt;Node10 -->
<g id="edge39" class="edge">
<title>Node22&#45;&gt;Node10</title>
<path fill="none" stroke="#191970" d="M616.1791,-347.4723C642.8364,-340.5552 675.283,-329.1457 700,-311 720.9582,-295.6138 737.5744,-270.3075 747.3367,-252.933"/>
<polygon fill="#191970" stroke="#191970" points="750.6189,-254.2195 752.2736,-243.7546 744.4541,-250.9035 750.6189,-254.2195"/>
</g>
<!-- Node23&#45;&gt;Node2 -->
<g id="edge41" class="edge">
<title>Node23&#45;&gt;Node2</title>
<path fill="none" stroke="#191970" d="M852.246,-280.4382C851.6611,-264.2406 848.1463,-238.8228 833,-224 709.1166,-102.7633 594.9635,-232.8699 454,-132 437.667,-120.3125 426.1892,-100.1055 419.4072,-85.1209"/>
<polygon fill="#191970" stroke="#191970" points="422.5677,-83.6075 415.4603,-75.7503 416.1166,-86.3248 422.5677,-83.6075"/>
</g>
<!-- Node23&#45;&gt;Node10 -->
<g id="edge43" class="edge">
<title>Node23&#45;&gt;Node10</title>
<path fill="none" stroke="#191970" d="M828.5168,-280.2977C813.8652,-270.8127 795.0764,-258.6495 780.4341,-249.1705"/>
<polygon fill="#191970" stroke="#191970" points="782.2236,-246.1596 771.927,-243.6633 778.4195,-252.0357 782.2236,-246.1596"/>
</g>
<!-- Node23&#45;&gt;Node11 -->
<g id="edge42" class="edge">
<title>Node23&#45;&gt;Node11</title>
<path fill="none" stroke="#191970" d="M856.9678,-280.1389C863.8453,-258.873 876.2649,-220.4702 883.7597,-197.2956"/>
<polygon fill="#191970" stroke="#191970" points="887.1614,-198.1513 886.9084,-187.5595 880.5011,-195.9973 887.1614,-198.1513"/>
</g>
<!-- Node23&#45;&gt;Node14 -->
<g id="edge44" class="edge">
<title>Node23&#45;&gt;Node14</title>
<path fill="none" stroke="#191970" d="M900.2105,-288.844C977.5072,-275.2257 1126.5093,-236.1256 1186,-132 1194.3229,-117.4325 1188.9496,-98.505 1182.601,-84.6567"/>
<polygon fill="#191970" stroke="#191970" points="1185.6471,-82.9257 1177.9876,-75.6057 1179.4105,-86.1046 1185.6471,-82.9257"/>
</g>
</g>
</svg>
