<?xml version="1.0" encoding="UTF-8" standalone="no"?>
<!DOCTYPE svg PUBLIC "-//W3C//DTD SVG 1.1//EN"
 "http://www.w3.org/Graphics/SVG/1.1/DTD/svg11.dtd">
<!-- Generated by graphviz version 2.40.1 (20161225.0304)
 -->
<!-- Title: plugins/Plugins.cpp Pages: 1 -->
<svg width="1420pt" height="576pt"
 viewBox="0.00 0.00 1420.38 576.00" xmlns="http://www.w3.org/2000/svg" xmlns:xlink="http://www.w3.org/1999/xlink">
<g id="graph0" class="graph" transform="scale(1 1) rotate(0) translate(4 572)">
<title>plugins/Plugins.cpp</title>
<polygon fill="#ffffff" stroke="transparent" points="-4,4 -4,-572 1416.3801,-572 1416.3801,4 -4,4"/>
<!-- Node0 -->
<g id="node1" class="node">
<title>Node0</title>
<polygon fill="#bfbfbf" stroke="#000000" points="406,-548.5 406,-567.5 509,-567.5 509,-548.5 406,-548.5"/>
<text text-anchor="middle" x="457.5" y="-555.5" font-family="Helvetica,sans-Serif" font-size="10.00" fill="#000000">plugins/Plugins.cpp</text>
</g>
<!-- Node1 -->
<g id="node2" class="node">
<title>Node1</title>
<g id="a_node2"><a xlink:href="_plugins_8h.html" target="_top" xlink:title="Plugins.h">
<polygon fill="#ffffff" stroke="#000000" points="428.5,-492.5 428.5,-511.5 486.5,-511.5 486.5,-492.5 428.5,-492.5"/>
<text text-anchor="middle" x="457.5" y="-499.5" font-family="Helvetica,sans-Serif" font-size="10.00" fill="#000000">Plugins.h</text>
</a>
</g>
</g>
<!-- Node0&#45;&gt;Node1 -->
<g id="edge1" class="edge">
<title>Node0&#45;&gt;Node1</title>
<path fill="none" stroke="#191970" d="M457.5,-548.2455C457.5,-540.9382 457.5,-530.6944 457.5,-521.7046"/>
<polygon fill="#191970" stroke="#191970" points="461.0001,-521.6426 457.5,-511.6427 454.0001,-521.6427 461.0001,-521.6426"/>
</g>
<!-- Node2 -->
<g id="node3" class="node">
<title>Node2</title>
<polygon fill="#ffffff" stroke="#bfbfbf" points="0,-297 0,-316 85,-316 85,-297 0,-297"/>
<text text-anchor="middle" x="42.5" y="-304" font-family="Helvetica,sans-Serif" font-size="10.00" fill="#000000">uscxml/config.h</text>
</g>
<!-- Node1&#45;&gt;Node2 -->
<g id="edge2" class="edge">
<title>Node1&#45;&gt;Node2</title>
<path fill="none" stroke="#191970" d="M428.3066,-498.1228C343.7231,-486.2672 101.3442,-447.6988 51.5,-389 36.8348,-371.7295 36.7905,-344.5468 38.9383,-326.1462"/>
<polygon fill="#191970" stroke="#191970" points="42.4041,-326.6341 40.4048,-316.2296 35.4794,-325.61 42.4041,-326.6341"/>
</g>
<!-- Node3 -->
<g id="node4" class="node">
<title>Node3</title>
<polygon fill="#ffffff" stroke="#bfbfbf" points="315,-431 315,-450 410,-450 410,-431 315,-431"/>
<text text-anchor="middle" x="362.5" y="-438" font-family="Helvetica,sans-Serif" font-size="10.00" fill="#000000">Pluma/Pluma.hpp</text>
</g>
<!-- Node1&#45;&gt;Node3 -->
<g id="edge3" class="edge">
<title>Node1&#45;&gt;Node3</title>
<path fill="none" stroke="#191970" d="M442.6563,-492.3906C427.4582,-482.5519 403.6152,-467.1167 385.8794,-455.6351"/>
<polygon fill="#191970" stroke="#191970" points="387.5361,-452.5382 377.2395,-450.0419 383.732,-458.4144 387.5361,-452.5382"/>
</g>
<!-- Node4 -->
<g id="node5" class="node">
<title>Node4</title>
<g id="a_node5"><a xlink:href="_data_model_impl_8h.html" target="_top" xlink:title="uscxml/plugins/DataModel\lImpl.h">
<polygon fill="#ffffff" stroke="#000000" points="625,-425.5 625,-455.5 758,-455.5 758,-425.5 625,-425.5"/>
<text text-anchor="start" x="633" y="-443.5" font-family="Helvetica,sans-Serif" font-size="10.00" fill="#000000">uscxml/plugins/DataModel</text>
<text text-anchor="middle" x="691.5" y="-432.5" font-family="Helvetica,sans-Serif" font-size="10.00" fill="#000000">Impl.h</text>
</a>
</g>
</g>
<!-- Node1&#45;&gt;Node4 -->
<g id="edge4" class="edge">
<title>Node1&#45;&gt;Node4</title>
<path fill="none" stroke="#191970" d="M486.6631,-494.3353C520.9052,-485.3358 578.8019,-470.1194 624.3243,-458.1552"/>
<polygon fill="#191970" stroke="#191970" points="625.3489,-461.5048 634.1308,-455.5778 623.5695,-454.7347 625.3489,-461.5048"/>
</g>
<!-- Node24 -->
<g id="node25" class="node">
<title>Node24</title>
<g id="a_node25"><a xlink:href="_i_o_processor_impl_8h.html" target="_top" xlink:title="uscxml/plugins/IOProcessor\lImpl.h">
<polygon fill="#ffffff" stroke="#000000" points="406.5,-358.5 406.5,-388.5 546.5,-388.5 546.5,-358.5 406.5,-358.5"/>
<text text-anchor="start" x="414.5" y="-376.5" font-family="Helvetica,sans-Serif" font-size="10.00" fill="#000000">uscxml/plugins/IOProcessor</text>
<text text-anchor="middle" x="476.5" y="-365.5" font-family="Helvetica,sans-Serif" font-size="10.00" fill="#000000">Impl.h</text>
</a>
</g>
</g>
<!-- Node1&#45;&gt;Node24 -->
<g id="edge47" class="edge">
<title>Node1&#45;&gt;Node24</title>
<path fill="none" stroke="#191970" d="M458.9281,-492.3416C461.8361,-472.6745 468.5271,-427.4221 472.7623,-398.7784"/>
<polygon fill="#191970" stroke="#191970" points="476.2519,-399.106 474.2523,-388.7016 469.3272,-398.0821 476.2519,-399.106"/>
</g>
<!-- Node25 -->
<g id="node26" class="node">
<title>Node25</title>
<g id="a_node26"><a xlink:href="_invoker_impl_8h.html" target="_top" xlink:title="uscxml/plugins/InvokerImpl.h">
<polygon fill="#ffffff" stroke="#000000" points="61,-364 61,-383 206,-383 206,-364 61,-364"/>
<text text-anchor="middle" x="133.5" y="-371" font-family="Helvetica,sans-Serif" font-size="10.00" fill="#000000">uscxml/plugins/InvokerImpl.h</text>
</a>
</g>
</g>
<!-- Node1&#45;&gt;Node25 -->
<g id="edge52" class="edge">
<title>Node1&#45;&gt;Node25</title>
<path fill="none" stroke="#191970" d="M455.6794,-492.4199C451.9949,-475.8389 442.0101,-441.9445 419.5,-425 418.9394,-424.578 280.8678,-399.8409 196.7972,-384.8085"/>
<polygon fill="#191970" stroke="#191970" points="197.2852,-381.3404 186.8252,-383.0257 196.0532,-388.2311 197.2852,-381.3404"/>
</g>
<!-- Node27 -->
<g id="node28" class="node">
<title>Node27</title>
<g id="a_node28"><a xlink:href="_executable_content_impl_8h.html" target="_top" xlink:title="uscxml/plugins/Executable\lContentImpl.h">
<polygon fill="#ffffff" stroke="#000000" points="1178.5,-112.5 1178.5,-142.5 1312.5,-142.5 1312.5,-112.5 1178.5,-112.5"/>
<text text-anchor="start" x="1186.5" y="-130.5" font-family="Helvetica,sans-Serif" font-size="10.00" fill="#000000">uscxml/plugins/Executable</text>
<text text-anchor="middle" x="1245.5" y="-119.5" font-family="Helvetica,sans-Serif" font-size="10.00" fill="#000000">ContentImpl.h</text>
</a>
</g>
</g>
<!-- Node1&#45;&gt;Node27 -->
<g id="edge58" class="edge">
<title>Node1&#45;&gt;Node27</title>
<path fill="none" stroke="#191970" d="M486.5848,-501.0804C643.1368,-495.7549 1378.5,-465.8262 1378.5,-373.5 1378.5,-373.5 1378.5,-373.5 1378.5,-245 1378.5,-198.4182 1332.1122,-165.875 1294.1277,-147.0354"/>
<polygon fill="#191970" stroke="#191970" points="1295.2186,-143.6784 1284.685,-142.5407 1292.21,-149.9989 1295.2186,-143.6784"/>
</g>
<!-- Node5 -->
<g id="node6" class="node">
<title>Node5</title>
<g id="a_node6"><a xlink:href="_common_8h.html" target="_top" xlink:title="uscxml/Common.h">
<polygon fill="#ffffff" stroke="#000000" points="370,-56.5 370,-75.5 469,-75.5 469,-56.5 370,-56.5"/>
<text text-anchor="middle" x="419.5" y="-63.5" font-family="Helvetica,sans-Serif" font-size="10.00" fill="#000000">uscxml/Common.h</text>
</a>
</g>
</g>
<!-- Node4&#45;&gt;Node5 -->
<g id="edge5" class="edge">
<title>Node4&#45;&gt;Node5</title>
<path fill="none" stroke="#191970" d="M624.7253,-436.6612C509.1258,-429.4323 281.3437,-412.3967 253.5,-389 202.3639,-346.031 210.5,-311.7925 210.5,-245 210.5,-245 210.5,-245 210.5,-189 210.5,-119.2068 298.1367,-88.2264 359.9127,-75.058"/>
<polygon fill="#191970" stroke="#191970" points="360.8639,-78.4365 369.9699,-73.0208 359.4741,-71.5759 360.8639,-78.4365"/>
</g>
<!-- Node8 -->
<g id="node9" class="node">
<title>Node8</title>
<g id="a_node9"><a xlink:href="_invoker_8h.html" target="_top" xlink:title="uscxml/plugins/Invoker.h">
<polygon fill="#ffffff" stroke="#000000" points="262.5,-364 262.5,-383 388.5,-383 388.5,-364 262.5,-364"/>
<text text-anchor="middle" x="325.5" y="-371" font-family="Helvetica,sans-Serif" font-size="10.00" fill="#000000">uscxml/plugins/Invoker.h</text>
</a>
</g>
</g>
<!-- Node4&#45;&gt;Node8 -->
<g id="edge8" class="edge">
<title>Node4&#45;&gt;Node8</title>
<path fill="none" stroke="#191970" d="M624.809,-429.5727C565.1315,-419.615 475.315,-404.1855 397.5,-389 391.3232,-387.7946 384.8601,-386.4798 378.4491,-385.1421"/>
<polygon fill="#191970" stroke="#191970" points="378.9737,-381.6758 368.4662,-383.0338 377.5272,-388.5247 378.9737,-381.6758"/>
</g>
<!-- Node12 -->
<g id="node13" class="node">
<title>Node12</title>
<polygon fill="#ffffff" stroke="#bfbfbf" points="584,-118 584,-137 613,-137 613,-118 584,-118"/>
<text text-anchor="middle" x="598.5" y="-125" font-family="Helvetica,sans-Serif" font-size="10.00" fill="#000000">list</text>
</g>
<!-- Node4&#45;&gt;Node12 -->
<g id="edge44" class="edge">
<title>Node4&#45;&gt;Node12</title>
<path fill="none" stroke="#191970" d="M716.7292,-425.3504C756.1072,-399.6253 825.1489,-344.9265 799.5,-291 794.5572,-280.6078 669.0531,-182.3346 618.9131,-143.3359"/>
<polygon fill="#191970" stroke="#191970" points="621.0496,-140.5636 611.0058,-137.1912 616.7543,-146.0909 621.0496,-140.5636"/>
</g>
<!-- Node14 -->
<g id="node15" class="node">
<title>Node14</title>
<polygon fill="#ffffff" stroke="#bfbfbf" points="1333,-56.5 1333,-75.5 1386,-75.5 1386,-56.5 1333,-56.5"/>
<text text-anchor="middle" x="1359.5" y="-63.5" font-family="Helvetica,sans-Serif" font-size="10.00" fill="#000000">memory</text>
</g>
<!-- Node4&#45;&gt;Node14 -->
<g id="edge46" class="edge">
<title>Node4&#45;&gt;Node14</title>
<path fill="none" stroke="#191970" d="M758.3438,-435.5069C854.4203,-427.6923 1026.3871,-411.1451 1084.5,-389 1253.4517,-324.6176 1348.4675,-313.5458 1408.5,-143 1413.0747,-130.0039 1413.9728,-124.6442 1408.5,-112 1403.2663,-99.9081 1393.1158,-89.5335 1383.4045,-81.7139"/>
<polygon fill="#191970" stroke="#191970" points="1385.2234,-78.7038 1375.118,-75.5209 1381.0329,-84.3109 1385.2234,-78.7038"/>
</g>
<!-- Node17 -->
<g id="node18" class="node">
<title>Node17</title>
<polygon fill="#ffffff" stroke="#bfbfbf" points="1046,-56.5 1046,-75.5 1087,-75.5 1087,-56.5 1046,-56.5"/>
<text text-anchor="middle" x="1066.5" y="-63.5" font-family="Helvetica,sans-Serif" font-size="10.00" fill="#000000">string</text>
</g>
<!-- Node4&#45;&gt;Node17 -->
<g id="edge45" class="edge">
<title>Node4&#45;&gt;Node17</title>
<path fill="none" stroke="#191970" d="M758.2425,-434.9928C885.5451,-422.6394 1150.5,-387.231 1150.5,-306.5 1150.5,-306.5 1150.5,-306.5 1150.5,-189 1150.5,-144.1614 1111.962,-103.6338 1087.0924,-82.1486"/>
<polygon fill="#191970" stroke="#191970" points="1089.179,-79.3313 1079.2578,-75.6136 1084.6951,-84.7068 1089.179,-79.3313"/>
</g>
<!-- Node22 -->
<g id="node23" class="node">
<title>Node22</title>
<g id="a_node23"><a xlink:href="_i_o_processor_8h.html" target="_top" xlink:title="uscxml/plugins/IOProcessor.h">
<polygon fill="#ffffff" stroke="#000000" points="565,-364 565,-383 714,-383 714,-364 565,-364"/>
<text text-anchor="middle" x="639.5" y="-371" font-family="Helvetica,sans-Serif" font-size="10.00" fill="#000000">uscxml/plugins/IOProcessor.h</text>
</a>
</g>
</g>
<!-- Node4&#45;&gt;Node22 -->
<g id="edge35" class="edge">
<title>Node4&#45;&gt;Node22</title>
<path fill="none" stroke="#191970" d="M679.7004,-425.2967C671.8345,-415.1618 661.4673,-401.804 653.2312,-391.1921"/>
<polygon fill="#191970" stroke="#191970" points="655.812,-388.8089 646.9158,-383.055 650.2821,-393.1008 655.812,-388.8089"/>
</g>
<!-- Node23 -->
<g id="node24" class="node">
<title>Node23</title>
<g id="a_node24"><a xlink:href="_logging_8h.html" target="_top" xlink:title="uscxml/interpreter\l/Logging.h">
<polygon fill="#ffffff" stroke="#000000" points="694.5,-291.5 694.5,-321.5 790.5,-321.5 790.5,-291.5 694.5,-291.5"/>
<text text-anchor="start" x="702.5" y="-309.5" font-family="Helvetica,sans-Serif" font-size="10.00" fill="#000000">uscxml/interpreter</text>
<text text-anchor="middle" x="742.5" y="-298.5" font-family="Helvetica,sans-Serif" font-size="10.00" fill="#000000">/Logging.h</text>
</a>
</g>
</g>
<!-- Node4&#45;&gt;Node23 -->
<g id="edge39" class="edge">
<title>Node4&#45;&gt;Node23</title>
<path fill="none" stroke="#191970" d="M702.7117,-425.4438C709.6066,-415.539 718.1221,-402.0399 723.5,-389 731.1308,-370.4974 736.0195,-348.3361 738.9242,-331.6435"/>
<polygon fill="#191970" stroke="#191970" points="742.4139,-331.9877 740.5554,-321.5572 735.5037,-330.8701 742.4139,-331.9877"/>
</g>
<!-- Node6 -->
<g id="node7" class="node">
<title>Node6</title>
<polygon fill="#ffffff" stroke="#bfbfbf" points="345.5,-.5 345.5,-19.5 417.5,-19.5 417.5,-.5 345.5,-.5"/>
<text text-anchor="middle" x="381.5" y="-7.5" font-family="Helvetica,sans-Serif" font-size="10.00" fill="#000000">sys/socket.h</text>
</g>
<!-- Node5&#45;&gt;Node6 -->
<g id="edge6" class="edge">
<title>Node5&#45;&gt;Node6</title>
<path fill="none" stroke="#191970" d="M412.8809,-56.2455C407.5954,-48.4564 400.0459,-37.3308 393.6762,-27.9439"/>
<polygon fill="#191970" stroke="#191970" points="396.5545,-25.9522 388.0432,-19.6427 390.7621,-29.8827 396.5545,-25.9522"/>
</g>
<!-- Node7 -->
<g id="node8" class="node">
<title>Node7</title>
<polygon fill="#ffffff" stroke="#bfbfbf" points="435.5,-.5 435.5,-19.5 479.5,-19.5 479.5,-.5 435.5,-.5"/>
<text text-anchor="middle" x="457.5" y="-7.5" font-family="Helvetica,sans-Serif" font-size="10.00" fill="#000000">cmath</text>
</g>
<!-- Node5&#45;&gt;Node7 -->
<g id="edge7" class="edge">
<title>Node5&#45;&gt;Node7</title>
<path fill="none" stroke="#191970" d="M426.1191,-56.2455C431.4046,-48.4564 438.9541,-37.3308 445.3238,-27.9439"/>
<polygon fill="#191970" stroke="#191970" points="448.2379,-29.8827 450.9568,-19.6427 442.4455,-25.9522 448.2379,-29.8827"/>
</g>
<!-- Node8&#45;&gt;Node5 -->
<g id="edge9" class="edge">
<title>Node8&#45;&gt;Node5</title>
<path fill="none" stroke="#191970" d="M320.4014,-363.8094C309.83,-342.7863 286.5,-291.1615 286.5,-245 286.5,-245 286.5,-245 286.5,-189 286.5,-135.2164 345.8477,-98.4022 385.2546,-79.8858"/>
<polygon fill="#191970" stroke="#191970" points="387.1247,-82.8815 394.7954,-75.5732 384.2414,-76.5028 387.1247,-82.8815"/>
</g>
<!-- Node9 -->
<g id="node10" class="node">
<title>Node9</title>
<g id="a_node10"><a xlink:href="_event_handler_8h.html" target="_top" xlink:title="uscxml/plugins/EventHandler.h">
<polygon fill="#ffffff" stroke="#000000" points="390.5,-297 390.5,-316 544.5,-316 544.5,-297 390.5,-297"/>
<text text-anchor="middle" x="467.5" y="-304" font-family="Helvetica,sans-Serif" font-size="10.00" fill="#000000">uscxml/plugins/EventHandler.h</text>
</a>
</g>
</g>
<!-- Node8&#45;&gt;Node9 -->
<g id="edge10" class="edge">
<title>Node8&#45;&gt;Node9</title>
<path fill="none" stroke="#191970" d="M345.8451,-363.9005C369.9923,-352.5072 410.4504,-333.4178 438.0245,-320.4075"/>
<polygon fill="#191970" stroke="#191970" points="439.6423,-323.5142 447.1926,-316.0817 436.6552,-317.1835 439.6423,-323.5142"/>
</g>
<!-- Node10 -->
<g id="node11" class="node">
<title>Node10</title>
<g id="a_node11"><a xlink:href="_event_8h.html" target="_top" xlink:title="uscxml/messages/Event.h">
<polygon fill="#ffffff" stroke="#000000" points="543,-235.5 543,-254.5 676,-254.5 676,-235.5 543,-235.5"/>
<text text-anchor="middle" x="609.5" y="-242.5" font-family="Helvetica,sans-Serif" font-size="10.00" fill="#000000">uscxml/messages/Event.h</text>
</a>
</g>
</g>
<!-- Node8&#45;&gt;Node10 -->
<g id="edge34" class="edge">
<title>Node8&#45;&gt;Node10</title>
<path fill="none" stroke="#191970" d="M329.1723,-363.7855C336.3454,-346.2204 353.9666,-309.3065 381.5,-291 406.0449,-274.6806 476.7392,-262.0149 532.9676,-254.1427"/>
<polygon fill="#191970" stroke="#191970" points="533.4944,-257.6033 542.9261,-252.7768 532.5432,-250.6682 533.4944,-257.6033"/>
</g>
<!-- Node9&#45;&gt;Node5 -->
<g id="edge11" class="edge">
<title>Node9&#45;&gt;Node5</title>
<path fill="none" stroke="#191970" d="M456.425,-296.9394C437.4396,-279.6923 399.4717,-241.2179 386.5,-199 375.1434,-162.0387 374.662,-148.81 386.5,-112 389.8946,-101.4445 396.7058,-91.2592 403.2631,-83.1676"/>
<polygon fill="#191970" stroke="#191970" points="405.947,-85.4149 409.8508,-75.5654 400.6569,-80.8307 405.947,-85.4149"/>
</g>
<!-- Node9&#45;&gt;Node10 -->
<g id="edge12" class="edge">
<title>Node9&#45;&gt;Node10</title>
<path fill="none" stroke="#191970" d="M489.6875,-296.8906C513.4467,-286.6005 551.3405,-270.1888 578.1425,-258.5809"/>
<polygon fill="#191970" stroke="#191970" points="579.683,-261.7279 587.4683,-254.5419 576.9009,-255.3045 579.683,-261.7279"/>
</g>
<!-- Node9&#45;&gt;Node12 -->
<g id="edge31" class="edge">
<title>Node9&#45;&gt;Node12</title>
<path fill="none" stroke="#191970" d="M474.5431,-296.8762C495.512,-268.2241 557.7767,-183.1448 585.2369,-145.6229"/>
<polygon fill="#191970" stroke="#191970" points="588.3406,-147.3082 591.422,-137.1714 582.6918,-143.1741 588.3406,-147.3082"/>
</g>
<!-- Node9&#45;&gt;Node14 -->
<g id="edge33" class="edge">
<title>Node9&#45;&gt;Node14</title>
<path fill="none" stroke="#191970" d="M544.5789,-299.4351C627.644,-291.2238 763.5383,-276.0568 879.5,-255 984.7161,-235.8944 1274.9803,-221.5898 1347.5,-143 1361.5744,-127.7476 1363.0903,-103.1267 1362.0447,-85.8413"/>
<polygon fill="#191970" stroke="#191970" points="1365.5134,-85.3428 1361.0939,-75.7138 1358.544,-85.9972 1365.5134,-85.3428"/>
</g>
<!-- Node9&#45;&gt;Node17 -->
<g id="edge32" class="edge">
<title>Node9&#45;&gt;Node17</title>
<path fill="none" stroke="#191970" d="M544.7687,-298.5905C697.9327,-281.0764 1030.715,-233.248 1093.5,-143 1106.0598,-124.9463 1093.456,-100.471 1081.5901,-84.0026"/>
<polygon fill="#191970" stroke="#191970" points="1084.1176,-81.5488 1075.2383,-75.7688 1078.5751,-85.8244 1084.1176,-81.5488"/>
</g>
<!-- Node11 -->
<g id="node12" class="node">
<title>Node11</title>
<g id="a_node12"><a xlink:href="_data_8h.html" target="_top" xlink:title="uscxml/messages/Data.h">
<polygon fill="#ffffff" stroke="#000000" points="805.5,-179.5 805.5,-198.5 933.5,-198.5 933.5,-179.5 805.5,-179.5"/>
<text text-anchor="middle" x="869.5" y="-186.5" font-family="Helvetica,sans-Serif" font-size="10.00" fill="#000000">uscxml/messages/Data.h</text>
</a>
</g>
</g>
<!-- Node10&#45;&gt;Node11 -->
<g id="edge13" class="edge">
<title>Node10&#45;&gt;Node11</title>
<path fill="none" stroke="#191970" d="M653.9002,-235.4369C698.5841,-225.8127 767.557,-210.957 815.4088,-200.6504"/>
<polygon fill="#191970" stroke="#191970" points="816.2441,-204.0508 825.283,-198.5237 814.7702,-197.2078 816.2441,-204.0508"/>
</g>
<!-- Node21 -->
<g id="node22" class="node">
<title>Node21</title>
<g id="a_node22"><a xlink:href="_u_u_i_d_8h.html" target="_top" xlink:title="uscxml/util/UUID.h">
<polygon fill="#ffffff" stroke="#000000" points="467,-118 467,-137 566,-137 566,-118 467,-118"/>
<text text-anchor="middle" x="516.5" y="-125" font-family="Helvetica,sans-Serif" font-size="10.00" fill="#000000">uscxml/util/UUID.h</text>
</a>
</g>
</g>
<!-- Node10&#45;&gt;Node21 -->
<g id="edge28" class="edge">
<title>Node10&#45;&gt;Node21</title>
<path fill="none" stroke="#191970" d="M601.8894,-235.3845C586.2895,-215.6749 550.4809,-170.4328 530.5459,-145.2461"/>
<polygon fill="#191970" stroke="#191970" points="533.1664,-142.9174 524.2157,-137.2484 527.6775,-147.2617 533.1664,-142.9174"/>
</g>
<!-- Node11&#45;&gt;Node5 -->
<g id="edge18" class="edge">
<title>Node11&#45;&gt;Node5</title>
<path fill="none" stroke="#191970" d="M812.989,-179.4628C760.9258,-170.1439 687.8763,-155.5669 661.5,-143 641.5108,-133.4762 642.4644,-121.5756 622.5,-112 577.0479,-90.1997 520.8537,-78.4991 479.1206,-72.3645"/>
<polygon fill="#191970" stroke="#191970" points="479.4963,-68.883 469.1067,-70.958 478.5227,-75.815 479.4963,-68.883"/>
</g>
<!-- Node11&#45;&gt;Node12 -->
<g id="edge14" class="edge">
<title>Node11&#45;&gt;Node12</title>
<path fill="none" stroke="#191970" d="M807.9489,-179.4771C747.582,-169.7466 660.0139,-154.4775 627.5,-143 625.8346,-142.4121 624.1482,-141.7399 622.4701,-141.0124"/>
<polygon fill="#191970" stroke="#191970" points="623.6753,-137.7052 613.156,-136.4425 620.5919,-143.9895 623.6753,-137.7052"/>
</g>
<!-- Node13 -->
<g id="node14" class="node">
<title>Node13</title>
<polygon fill="#ffffff" stroke="#bfbfbf" points="902.5,-118 902.5,-137 938.5,-137 938.5,-118 902.5,-118"/>
<text text-anchor="middle" x="920.5" y="-125" font-family="Helvetica,sans-Serif" font-size="10.00" fill="#000000">map</text>
</g>
<!-- Node11&#45;&gt;Node13 -->
<g id="edge15" class="edge">
<title>Node11&#45;&gt;Node13</title>
<path fill="none" stroke="#191970" d="M877.4688,-179.3906C885.0591,-170.2376 896.6661,-156.2409 905.9132,-145.09"/>
<polygon fill="#191970" stroke="#191970" points="908.7297,-147.1766 912.4189,-137.2449 903.3413,-142.7083 908.7297,-147.1766"/>
</g>
<!-- Node11&#45;&gt;Node14 -->
<g id="edge16" class="edge">
<title>Node11&#45;&gt;Node14</title>
<path fill="none" stroke="#191970" d="M933.8357,-185.8853C1051.0779,-179.7107 1290.3593,-164.6209 1321.5,-143 1340.7562,-129.6305 1350.6938,-103.6315 1355.4953,-85.5637"/>
<polygon fill="#191970" stroke="#191970" points="1358.9183,-86.2967 1357.8096,-75.7601 1352.1056,-84.6884 1358.9183,-86.2967"/>
</g>
<!-- Node15 -->
<g id="node16" class="node">
<title>Node15</title>
<polygon fill="#ffffff" stroke="#bfbfbf" points="670,-118 670,-137 733,-137 733,-118 670,-118"/>
<text text-anchor="middle" x="701.5" y="-125" font-family="Helvetica,sans-Serif" font-size="10.00" fill="#000000">type_traits</text>
</g>
<!-- Node11&#45;&gt;Node15 -->
<g id="edge17" class="edge">
<title>Node11&#45;&gt;Node15</title>
<path fill="none" stroke="#191970" d="M842.702,-179.4161C816.9718,-170.1851 777.0281,-155.7791 742.5,-143 740.4125,-142.2274 738.2668,-141.429 736.1035,-140.6208"/>
<polygon fill="#191970" stroke="#191970" points="737.2235,-137.3028 726.6313,-137.0641 734.7627,-143.8561 737.2235,-137.3028"/>
</g>
<!-- Node16 -->
<g id="node17" class="node">
<title>Node16</title>
<g id="a_node17"><a xlink:href="_convenience_8h.html" target="_top" xlink:title="uscxml/util/Convenience.h">
<polygon fill="#ffffff" stroke="#000000" points="751,-118 751,-137 884,-137 884,-118 751,-118"/>
<text text-anchor="middle" x="817.5" y="-125" font-family="Helvetica,sans-Serif" font-size="10.00" fill="#000000">uscxml/util/Convenience.h</text>
</a>
</g>
</g>
<!-- Node11&#45;&gt;Node16 -->
<g id="edge19" class="edge">
<title>Node11&#45;&gt;Node16</title>
<path fill="none" stroke="#191970" d="M861.375,-179.3906C853.6358,-170.2376 841.8013,-156.2409 832.3728,-145.09"/>
<polygon fill="#191970" stroke="#191970" points="834.8689,-142.6213 825.7396,-137.2449 829.5235,-147.1409 834.8689,-142.6213"/>
</g>
<!-- Node20 -->
<g id="node21" class="node">
<title>Node20</title>
<g id="a_node21"><a xlink:href="_blob_8h.html" target="_top" xlink:title="uscxml/messages/Blob.h">
<polygon fill="#ffffff" stroke="#000000" points="957,-118 957,-137 1084,-137 1084,-118 957,-118"/>
<text text-anchor="middle" x="1020.5" y="-125" font-family="Helvetica,sans-Serif" font-size="10.00" fill="#000000">uscxml/messages/Blob.h</text>
</a>
</g>
</g>
<!-- Node11&#45;&gt;Node20 -->
<g id="edge24" class="edge">
<title>Node11&#45;&gt;Node20</title>
<path fill="none" stroke="#191970" d="M893.0938,-179.3906C918.4696,-169.0554 959.0081,-152.5447 987.5293,-140.9284"/>
<polygon fill="#191970" stroke="#191970" points="989.1308,-144.0554 997.0719,-137.0419 986.4904,-137.5725 989.1308,-144.0554"/>
</g>
<!-- Node16&#45;&gt;Node5 -->
<g id="edge20" class="edge">
<title>Node16&#45;&gt;Node5</title>
<path fill="none" stroke="#191970" d="M773.5668,-117.9427C763.3895,-115.8616 752.5857,-113.7586 742.5,-112 651.0001,-96.0455 544.1953,-81.6567 479.2337,-73.3737"/>
<polygon fill="#191970" stroke="#191970" points="479.5369,-69.8842 469.1758,-72.0974 478.6557,-76.8285 479.5369,-69.8842"/>
</g>
<!-- Node16&#45;&gt;Node17 -->
<g id="edge21" class="edge">
<title>Node16&#45;&gt;Node17</title>
<path fill="none" stroke="#191970" d="M856.133,-117.9581C905.6841,-105.7196 990.6166,-84.7423 1035.924,-73.5519"/>
<polygon fill="#191970" stroke="#191970" points="1036.8859,-76.9196 1045.7549,-71.1238 1035.2073,-70.1238 1036.8859,-76.9196"/>
</g>
<!-- Node18 -->
<g id="node19" class="node">
<title>Node18</title>
<polygon fill="#ffffff" stroke="#bfbfbf" points="798,-56.5 798,-75.5 837,-75.5 837,-56.5 798,-56.5"/>
<text text-anchor="middle" x="817.5" y="-63.5" font-family="Helvetica,sans-Serif" font-size="10.00" fill="#000000">limits</text>
</g>
<!-- Node16&#45;&gt;Node18 -->
<g id="edge22" class="edge">
<title>Node16&#45;&gt;Node18</title>
<path fill="none" stroke="#191970" d="M817.5,-117.8906C817.5,-109.3657 817.5,-96.6392 817.5,-85.9235"/>
<polygon fill="#191970" stroke="#191970" points="821.0001,-85.7448 817.5,-75.7449 814.0001,-85.7449 821.0001,-85.7448"/>
</g>
<!-- Node19 -->
<g id="node20" class="node">
<title>Node19</title>
<polygon fill="#ffffff" stroke="#bfbfbf" points="1185.5,-56.5 1185.5,-75.5 1237.5,-75.5 1237.5,-56.5 1185.5,-56.5"/>
<text text-anchor="middle" x="1211.5" y="-63.5" font-family="Helvetica,sans-Serif" font-size="10.00" fill="#000000">sstream</text>
</g>
<!-- Node16&#45;&gt;Node19 -->
<g id="edge23" class="edge">
<title>Node16&#45;&gt;Node19</title>
<path fill="none" stroke="#191970" d="M862.0264,-117.9725C872.3391,-115.8901 883.2849,-113.779 893.5,-112 995.3716,-94.2588 1116.4473,-78.0916 1175.5019,-70.521"/>
<polygon fill="#191970" stroke="#191970" points="1175.9741,-73.9893 1185.4508,-69.2519 1175.0882,-67.0455 1175.9741,-73.9893"/>
</g>
<!-- Node20&#45;&gt;Node5 -->
<g id="edge27" class="edge">
<title>Node20&#45;&gt;Node5</title>
<path fill="none" stroke="#191970" d="M979.7343,-117.9242C969.2739,-115.7208 958.0078,-113.5673 947.5,-112 778.7386,-86.8287 577.4228,-73.9874 479.265,-68.8208"/>
<polygon fill="#191970" stroke="#191970" points="479.4053,-65.3234 469.2374,-68.3009 479.0428,-72.314 479.4053,-65.3234"/>
</g>
<!-- Node20&#45;&gt;Node14 -->
<g id="edge26" class="edge">
<title>Node20&#45;&gt;Node14</title>
<path fill="none" stroke="#191970" d="M1073.0968,-117.9581C1142.3958,-105.3862 1262.5253,-83.5928 1322.7919,-72.6594"/>
<polygon fill="#191970" stroke="#191970" points="1323.7613,-76.0408 1332.9759,-70.8119 1322.5118,-69.1532 1323.7613,-76.0408"/>
</g>
<!-- Node20&#45;&gt;Node17 -->
<g id="edge25" class="edge">
<title>Node20&#45;&gt;Node17</title>
<path fill="none" stroke="#191970" d="M1027.6875,-117.8906C1034.4666,-108.8273 1044.7978,-95.0149 1053.0973,-83.9188"/>
<polygon fill="#191970" stroke="#191970" points="1056.0243,-85.849 1059.2112,-75.7449 1050.4188,-81.6563 1056.0243,-85.849"/>
</g>
<!-- Node21&#45;&gt;Node5 -->
<g id="edge29" class="edge">
<title>Node21&#45;&gt;Node5</title>
<path fill="none" stroke="#191970" d="M501.3438,-117.8906C485.8257,-108.0519 461.4807,-92.6167 443.3716,-81.1351"/>
<polygon fill="#191970" stroke="#191970" points="444.8696,-77.9407 434.5498,-75.5419 441.1213,-83.8526 444.8696,-77.9407"/>
</g>
<!-- Node21&#45;&gt;Node17 -->
<g id="edge30" class="edge">
<title>Node21&#45;&gt;Node17</title>
<path fill="none" stroke="#191970" d="M549.057,-117.9301C557.5993,-115.6997 566.8443,-113.5318 575.5,-112 747.8109,-81.5055 957.9537,-70.3824 1035.6852,-67.1369"/>
<polygon fill="#191970" stroke="#191970" points="1035.9064,-70.6309 1045.757,-66.73 1035.6238,-63.6366 1035.9064,-70.6309"/>
</g>
<!-- Node22&#45;&gt;Node5 -->
<g id="edge36" class="edge">
<title>Node22&#45;&gt;Node5</title>
<path fill="none" stroke="#191970" d="M629.3111,-363.7865C591.0543,-327.0903 456.8729,-196.2904 431.5,-143 422.8885,-124.9134 420.2241,-101.991 419.5083,-85.8766"/>
<polygon fill="#191970" stroke="#191970" points="422.9992,-85.431 419.2742,-75.5126 416.001,-85.5891 422.9992,-85.431"/>
</g>
<!-- Node22&#45;&gt;Node9 -->
<g id="edge37" class="edge">
<title>Node22&#45;&gt;Node9</title>
<path fill="none" stroke="#191970" d="M614.8566,-363.9005C585.0971,-352.3082 534.8844,-332.7486 501.467,-319.7313"/>
<polygon fill="#191970" stroke="#191970" points="502.6861,-316.4501 492.0977,-316.0817 500.1453,-322.9727 502.6861,-316.4501"/>
</g>
<!-- Node22&#45;&gt;Node10 -->
<g id="edge38" class="edge">
<title>Node22&#45;&gt;Node10</title>
<path fill="none" stroke="#191970" d="M638.1653,-363.7559C635.9407,-348.2276 631.063,-316.9698 624.5,-291 622.2676,-282.1664 619.2341,-272.5602 616.479,-264.4221"/>
<polygon fill="#191970" stroke="#191970" points="619.7065,-263.0475 613.1086,-254.7578 613.0969,-265.3527 619.7065,-263.0475"/>
</g>
<!-- Node23&#45;&gt;Node5 -->
<g id="edge40" class="edge">
<title>Node23&#45;&gt;Node5</title>
<path fill="none" stroke="#191970" d="M733.7889,-291.4698C723.8864,-275.5399 706.3606,-250.5774 685.5,-235 598.2757,-169.8664 538.6313,-216.6847 458.5,-143 441.4184,-127.2927 430.7316,-102.4122 424.9536,-85.2045"/>
<polygon fill="#191970" stroke="#191970" points="428.2886,-84.142 421.977,-75.6323 421.6043,-86.2206 428.2886,-84.142"/>
</g>
<!-- Node23&#45;&gt;Node10 -->
<g id="edge42" class="edge">
<title>Node23&#45;&gt;Node10</title>
<path fill="none" stroke="#191970" d="M709.9645,-291.4554C688.3571,-281.464 660.2102,-268.4487 639.208,-258.7372"/>
<polygon fill="#191970" stroke="#191970" points="640.6559,-255.5506 630.1103,-254.5303 637.7179,-261.9043 640.6559,-255.5506"/>
</g>
<!-- Node23&#45;&gt;Node11 -->
<g id="edge41" class="edge">
<title>Node23&#45;&gt;Node11</title>
<path fill="none" stroke="#191970" d="M758.843,-291.3795C782.6781,-269.3274 826.8203,-228.4871 851.5383,-205.6181"/>
<polygon fill="#191970" stroke="#191970" points="854.1555,-207.9649 859.1188,-198.6046 849.4016,-202.8267 854.1555,-207.9649"/>
</g>
<!-- Node23&#45;&gt;Node14 -->
<g id="edge43" class="edge">
<title>Node23&#45;&gt;Node14</title>
<path fill="none" stroke="#191970" d="M790.7072,-300.7294C851.7251,-292.9034 959.8159,-277.2954 1050.5,-255 1205.8179,-216.8138 1298.6378,-272.5057 1392.5,-143 1405.8734,-124.5481 1390.5138,-99.8379 1376.5839,-83.4428"/>
<polygon fill="#191970" stroke="#191970" points="1378.8915,-80.7763 1369.5895,-75.7044 1373.6984,-85.47 1378.8915,-80.7763"/>
</g>
<!-- Node24&#45;&gt;Node5 -->
<g id="edge48" class="edge">
<title>Node24&#45;&gt;Node5</title>
<path fill="none" stroke="#191970" d="M427.2099,-358.3333C409.7729,-350.3854 391.9191,-338.7177 381.5,-322 332.1064,-242.7468 339.2376,-198.4717 374.5,-112 379.2156,-100.4363 388.3927,-90.2008 397.2362,-82.3383"/>
<polygon fill="#191970" stroke="#191970" points="399.6496,-84.8842 405.1263,-75.8147 395.1891,-79.4894 399.6496,-84.8842"/>
</g>
<!-- Node24&#45;&gt;Node9 -->
<g id="edge49" class="edge">
<title>Node24&#45;&gt;Node9</title>
<path fill="none" stroke="#191970" d="M474.4578,-358.2967C473.178,-348.7699 471.5158,-336.3954 470.137,-326.1306"/>
<polygon fill="#191970" stroke="#191970" points="473.5838,-325.5 468.7835,-316.055 466.6461,-326.4319 473.5838,-325.5"/>
</g>
<!-- Node24&#45;&gt;Node10 -->
<g id="edge51" class="edge">
<title>Node24&#45;&gt;Node10</title>
<path fill="none" stroke="#191970" d="M503.8705,-358.4505C519.4106,-349.1424 538.6606,-336.2674 553.5,-322 571.8276,-304.3788 588.3475,-280.1356 598.6157,-263.5889"/>
<polygon fill="#191970" stroke="#191970" points="601.7244,-265.212 603.9054,-254.8441 595.7349,-261.5889 601.7244,-265.212"/>
</g>
<!-- Node24&#45;&gt;Node23 -->
<g id="edge50" class="edge">
<title>Node24&#45;&gt;Node23</title>
<path fill="none" stroke="#191970" d="M536.1956,-358.4639C580.3905,-347.3321 640.2898,-332.2447 684.1592,-321.1949"/>
<polygon fill="#191970" stroke="#191970" points="685.2618,-324.5265 694.104,-318.69 683.552,-317.7385 685.2618,-324.5265"/>
</g>
<!-- Node25&#45;&gt;Node2 -->
<g id="edge53" class="edge">
<title>Node25&#45;&gt;Node2</title>
<path fill="none" stroke="#191970" d="M120.4619,-363.9005C105.7307,-353.0544 81.5267,-335.2339 63.9908,-322.3229"/>
<polygon fill="#191970" stroke="#191970" points="65.6418,-319.1922 55.5139,-316.0817 61.4915,-324.8291 65.6418,-319.1922"/>
</g>
<!-- Node25&#45;&gt;Node5 -->
<g id="edge54" class="edge">
<title>Node25&#45;&gt;Node5</title>
<path fill="none" stroke="#191970" d="M132.3601,-363.8443C129.9384,-342.4659 124.5,-289.5037 124.5,-245 124.5,-245 124.5,-245 124.5,-189 124.5,-142.1475 155.6368,-134.9207 196.5,-112 223.9261,-96.6163 303.3925,-82.5872 359.6229,-74.1706"/>
<polygon fill="#191970" stroke="#191970" points="360.4516,-77.5863 369.8342,-72.6652 359.4306,-70.6612 360.4516,-77.5863"/>
</g>
<!-- Node25&#45;&gt;Node9 -->
<g id="edge55" class="edge">
<title>Node25&#45;&gt;Node9</title>
<path fill="none" stroke="#191970" d="M180.9993,-363.9717C241.2609,-351.8833 345.118,-331.0497 409.8534,-318.0638"/>
<polygon fill="#191970" stroke="#191970" points="410.7781,-321.4481 419.8944,-316.0496 409.4013,-314.5849 410.7781,-321.4481"/>
</g>
<!-- Node25&#45;&gt;Node10 -->
<g id="edge56" class="edge">
<title>Node25&#45;&gt;Node10</title>
<path fill="none" stroke="#191970" d="M154.3022,-363.9134C192.033,-346.8825 274.6044,-311.2434 347.5,-291 408.8469,-273.9637 480.104,-261.9358 532.8055,-254.4627"/>
<polygon fill="#191970" stroke="#191970" points="533.336,-257.9227 542.7564,-253.0745 532.3687,-250.9899 533.336,-257.9227"/>
</g>
<!-- Node26 -->
<g id="node27" class="node">
<title>Node26</title>
<polygon fill="#ffffff" stroke="#bfbfbf" points="152.5,-297 152.5,-316 182.5,-316 182.5,-297 152.5,-297"/>
<text text-anchor="middle" x="167.5" y="-304" font-family="Helvetica,sans-Serif" font-size="10.00" fill="#000000">set</text>
</g>
<!-- Node25&#45;&gt;Node26 -->
<g id="edge57" class="edge">
<title>Node25&#45;&gt;Node26</title>
<path fill="none" stroke="#191970" d="M138.3714,-363.9005C143.4714,-353.8505 151.6102,-337.8122 157.99,-325.2403"/>
<polygon fill="#191970" stroke="#191970" points="161.2334,-326.583 162.6377,-316.0817 154.9912,-323.4153 161.2334,-326.583"/>
</g>
<!-- Node27&#45;&gt;Node5 -->
<g id="edge59" class="edge">
<title>Node27&#45;&gt;Node5</title>
<path fill="none" stroke="#191970" d="M1178.2019,-120.1482C1151.8091,-117.3932 1121.2517,-114.3613 1093.5,-112 866.9035,-92.7195 596.9042,-76.2565 479.2428,-69.4038"/>
<polygon fill="#191970" stroke="#191970" points="479.1971,-65.8953 469.011,-68.8098 478.7913,-72.8836 479.1971,-65.8953"/>
</g>
<!-- Node27&#45;&gt;Node14 -->
<g id="edge61" class="edge">
<title>Node27&#45;&gt;Node14</title>
<path fill="none" stroke="#191970" d="M1273.3875,-112.4554C1291.4076,-102.734 1314.7341,-90.15 1332.5632,-80.5317"/>
<polygon fill="#191970" stroke="#191970" points="1334.6948,-83.3586 1341.834,-75.5303 1331.3713,-77.1979 1334.6948,-83.3586"/>
</g>
<!-- Node27&#45;&gt;Node17 -->
<g id="edge60" class="edge">
<title>Node27&#45;&gt;Node17</title>
<path fill="none" stroke="#191970" d="M1201.7117,-112.4554C1169.1217,-101.2583 1125.4779,-86.2634 1096.7023,-76.3768"/>
<polygon fill="#191970" stroke="#191970" points="1097.7812,-73.0467 1087.1866,-73.1074 1095.5066,-79.6669 1097.7812,-73.0467"/>
</g>
<!-- Node27&#45;&gt;Node19 -->
<g id="edge62" class="edge">
<title>Node27&#45;&gt;Node19</title>
<path fill="none" stroke="#191970" d="M1237.0955,-112.2977C1232.4743,-103.9388 1226.7031,-93.4997 1221.8111,-84.6509"/>
<polygon fill="#191970" stroke="#191970" points="1224.8452,-82.9051 1216.9438,-75.8469 1218.7191,-86.292 1224.8452,-82.9051"/>
</g>
</g>
</svg>
