<?xml version="1.0" encoding="UTF-8" standalone="no"?>
<!DOCTYPE svg PUBLIC "-//W3C//DTD SVG 1.1//EN"
 "http://www.w3.org/Graphics/SVG/1.1/DTD/svg11.dtd">
<!-- Generated by graphviz version 2.38.0 (20140413.2041)
 -->
<!-- Title: util/Predicates.h Pages: 1 -->
<!--zoomable 95 -->
<svg id="main" version="1.1" xmlns="http://www.w3.org/2000/svg" xmlns:xlink="http://www.w3.org/1999/xlink" xml:space="preserve" onload="init(evt)">
<style type="text/css"><![CDATA[
.edge:hover path { stroke: red; }
.edge:hover polygon { stroke: red; fill: red; }
]]></style>
<script type="text/javascript"><![CDATA[
var edges = document.getElementsByTagName('g');
if (edges && edges.length) {
  for (var i=0;i<edges.length;i++) {
    if (edges[i].id.substr(0,4)=='edge') {
      edges[i].setAttribute('class','edge');
    }
  }
}
]]></script>
        <defs>
                <circle id="rim" cx="0" cy="0" r="7"/>
                <circle id="rim2" cx="0" cy="0" r="3.5"/>
                <g id="zoomPlus">
                        <use xlink:href="#rim" fill="#404040">
                                <set attributeName="fill" to="#808080" begin="zoomplus.mouseover" end="zoomplus.mouseout"/>
                        </use>
                        <path d="M-4,0h8M0,-4v8" fill="none" stroke="white" stroke-width="1.5" pointer-events="none"/>
                </g>
                <g id="zoomMin">
                        <use xlink:href="#rim" fill="#404040">
                                <set attributeName="fill" to="#808080" begin="zoomminus.mouseover" end="zoomminus.mouseout"/>
                        </use>
                        <path d="M-4,0h8" fill="none" stroke="white" stroke-width="1.5" pointer-events="none"/>
                </g>
                <g id="dirArrow">
                        <path fill="none" stroke="white" stroke-width="1.5" d="M0,-3.0v7 M-2.5,-0.5L0,-3.0L2.5,-0.5"/>
                </g>
               <g id="resetDef">
                       <use xlink:href="#rim2" fill="#404040">
                               <set attributeName="fill" to="#808080" begin="reset.mouseover" end="reset.mouseout"/>
                       </use>
               </g>
        </defs>

<script type="text/javascript">
var viewWidth = 1802;
var viewHeight = 95;
var sectionId = 'dynsection-1';
</script>
<script xlink:href="svgpan.js"/>
<svg id="graph" class="graph">
<g id="viewport">
<title>util/Predicates.h</title>
<polygon fill="white" stroke="none" points="-4,4 -4,-91 1798,-91 1798,4 -4,4"/>
<!-- Node1 -->
<g id="node1" class="node"><title>Node1</title>
<polygon fill="#bfbfbf" stroke="black" points="848,-67.5 848,-86.5 936,-86.5 936,-67.5 848,-67.5"/>
<text text-anchor="middle" x="892" y="-74.5" font-family="Helvetica,sans-Serif" font-size="10.00">util/Predicates.h</text>
</g>
<!-- Node2 -->
<g id="node2" class="node"><title>Node2</title>
<g id="a_node2"><a xlink:href="_debugger_8cpp.html" target="_top" xlink:title="debug/Debugger.cpp">
<polygon fill="white" stroke="black" points="0,-6 0,-25 110,-25 110,-6 0,-6"/>
<text text-anchor="middle" x="55" y="-13" font-family="Helvetica,sans-Serif" font-size="10.00">debug/Debugger.cpp</text>
</a>
</g>
</g>
<!-- Node1&#45;&gt;Node2 -->
<g id="edge1" class="edge"><title>Node1&#45;&gt;Node2</title>
<path fill="none" stroke="midnightblue" d="M837.521,-75.9012C710.802,-75.003 386.669,-68.8501 119,-31 108.848,-29.5644 97.9234,-27.346 88.0249,-25.0728"/>
<polygon fill="midnightblue" stroke="midnightblue" points="837.713,-79.4024 847.735,-75.9651 837.757,-72.4025 837.713,-79.4024"/>
</g>
<!-- Node3 -->
<g id="node3" class="node"><title>Node3</title>
<g id="a_node3"><a xlink:href="_debug_session_8cpp.html" target="_top" xlink:title="debug/DebugSession.cpp">
<polygon fill="white" stroke="black" points="128.5,-6 128.5,-25 259.5,-25 259.5,-6 128.5,-6"/>
<text text-anchor="middle" x="194" y="-13" font-family="Helvetica,sans-Serif" font-size="10.00">debug/DebugSession.cpp</text>
</a>
</g>
</g>
<!-- Node1&#45;&gt;Node3 -->
<g id="edge2" class="edge"><title>Node1&#45;&gt;Node3</title>
<path fill="none" stroke="midnightblue" d="M837.574,-74.245C729.027,-70.2652 478.071,-58.6613 269,-31 257.43,-29.4693 244.952,-27.2775 233.558,-25.0601"/>
<polygon fill="midnightblue" stroke="midnightblue" points="837.508,-77.7448 847.627,-74.6066 837.76,-70.7493 837.508,-77.7448"/>
</g>
<!-- Node4 -->
<g id="node4" class="node"><title>Node4</title>
<g id="a_node4"><a xlink:href="_interpreter_issue_8cpp.html" target="_top" xlink:title="debug/InterpreterIssue.cpp">
<polygon fill="white" stroke="black" points="278,-6 278,-25 414,-25 414,-6 278,-6"/>
<text text-anchor="middle" x="346" y="-13" font-family="Helvetica,sans-Serif" font-size="10.00">debug/InterpreterIssue.cpp</text>
</a>
</g>
</g>
<!-- Node1&#45;&gt;Node4 -->
<g id="edge3" class="edge"><title>Node1&#45;&gt;Node4</title>
<path fill="none" stroke="midnightblue" d="M837.648,-72.3895C750.07,-66.2118 572.421,-52.1929 423,-31 411.417,-29.3572 398.927,-27.1818 387.446,-25.017"/>
<polygon fill="midnightblue" stroke="midnightblue" points="837.654,-75.8984 847.874,-73.104 838.142,-68.9154 837.654,-75.8984"/>
</g>
<!-- Node5 -->
<g id="node5" class="node"><title>Node5</title>
<g id="a_node5"><a xlink:href="_basic_content_executor_8cpp.html" target="_top" xlink:title="interpreter/BasicContent\lExecutor.cpp">
<polygon fill="white" stroke="black" points="432,-0.5 432,-30.5 556,-30.5 556,-0.5 432,-0.5"/>
<text text-anchor="start" x="440" y="-18.5" font-family="Helvetica,sans-Serif" font-size="10.00">interpreter/BasicContent</text>
<text text-anchor="middle" x="494" y="-7.5" font-family="Helvetica,sans-Serif" font-size="10.00">Executor.cpp</text>
</a>
</g>
</g>
<!-- Node1&#45;&gt;Node5 -->
<g id="edge4" class="edge"><title>Node1&#45;&gt;Node5</title>
<path fill="none" stroke="midnightblue" d="M837.949,-69.6492C772.972,-61.7639 660.712,-47.3414 565,-31 562.148,-30.513 559.235,-29.9965 556.295,-29.4597"/>
<polygon fill="midnightblue" stroke="midnightblue" points="837.614,-73.1341 847.962,-70.8579 838.453,-66.1846 837.614,-73.1341"/>
</g>
<!-- Node6 -->
<g id="node6" class="node"><title>Node6</title>
<g id="a_node6"><a xlink:href="_fast_micro_step_8cpp.html" target="_top" xlink:title="interpreter/FastMicroStep.cpp">
<polygon fill="white" stroke="black" points="574,-6 574,-25 722,-25 722,-6 574,-6"/>
<text text-anchor="middle" x="648" y="-13" font-family="Helvetica,sans-Serif" font-size="10.00">interpreter/FastMicroStep.cpp</text>
</a>
</g>
</g>
<!-- Node1&#45;&gt;Node6 -->
<g id="edge5" class="edge"><title>Node1&#45;&gt;Node6</title>
<path fill="none" stroke="midnightblue" d="M847.06,-65.0412C799.69,-53.49 726.078,-35.5394 682.894,-25.0091"/>
<polygon fill="midnightblue" stroke="midnightblue" points="846.496,-68.5063 857.041,-67.4751 848.155,-61.7056 846.496,-68.5063"/>
</g>
<!-- Node7 -->
<g id="node7" class="node"><title>Node7</title>
<g id="a_node7"><a xlink:href="_interpreter_impl_8cpp.html" target="_top" xlink:title="interpreter/InterpreterImpl.cpp">
<polygon fill="white" stroke="black" points="740.5,-6 740.5,-25 889.5,-25 889.5,-6 740.5,-6"/>
<text text-anchor="middle" x="815" y="-13" font-family="Helvetica,sans-Serif" font-size="10.00">interpreter/InterpreterImpl.cpp</text>
</a>
</g>
</g>
<!-- Node1&#45;&gt;Node7 -->
<g id="edge6" class="edge"><title>Node1&#45;&gt;Node7</title>
<path fill="none" stroke="midnightblue" d="M872.968,-61.2938C858.198,-49.8803 838.239,-34.4577 826.012,-25.0091"/>
<polygon fill="midnightblue" stroke="midnightblue" points="870.915,-64.1301 880.968,-67.4751 875.195,-58.5911 870.915,-64.1301"/>
</g>
<!-- Node8 -->
<g id="node8" class="node"><title>Node8</title>
<g id="a_node8"><a xlink:href="_chart_to_c_8cpp.html" target="_top" xlink:title="transform/ChartToC.cpp">
<polygon fill="white" stroke="black" points="908,-6 908,-25 1032,-25 1032,-6 908,-6"/>
<text text-anchor="middle" x="970" y="-13" font-family="Helvetica,sans-Serif" font-size="10.00">transform/ChartToC.cpp</text>
</a>
</g>
</g>
<!-- Node1&#45;&gt;Node8 -->
<g id="edge7" class="edge"><title>Node1&#45;&gt;Node8</title>
<path fill="none" stroke="midnightblue" d="M911.279,-61.2938C926.241,-49.8803 946.459,-34.4577 958.845,-25.0091"/>
<polygon fill="midnightblue" stroke="midnightblue" points="909.004,-58.6272 903.175,-67.4751 913.249,-64.1928 909.004,-58.6272"/>
</g>
<!-- Node9 -->
<g id="node9" class="node"><title>Node9</title>
<g id="a_node9"><a xlink:href="_chart_to_java_8cpp.html" target="_top" xlink:title="transform/ChartToJava.cpp">
<polygon fill="white" stroke="black" points="1050,-6 1050,-25 1188,-25 1188,-6 1050,-6"/>
<text text-anchor="middle" x="1119" y="-13" font-family="Helvetica,sans-Serif" font-size="10.00">transform/ChartToJava.cpp</text>
</a>
</g>
</g>
<!-- Node1&#45;&gt;Node9 -->
<g id="edge8" class="edge"><title>Node1&#45;&gt;Node9</title>
<path fill="none" stroke="midnightblue" d="M934.365,-64.8956C978.452,-53.3396 1046.53,-35.4952 1086.54,-25.0091"/>
<polygon fill="midnightblue" stroke="midnightblue" points="933.309,-61.5539 924.524,-67.4751 935.084,-68.3252 933.309,-61.5539"/>
</g>
<!-- Node10 -->
<g id="node10" class="node"><title>Node10</title>
<g id="a_node10"><a xlink:href="_chart_to_promela_8cpp.html" target="_top" xlink:title="transform/ChartToPromela.cpp">
<polygon fill="white" stroke="black" points="1206,-6 1206,-25 1360,-25 1360,-6 1206,-6"/>
<text text-anchor="middle" x="1283" y="-13" font-family="Helvetica,sans-Serif" font-size="10.00">transform/ChartToPromela.cpp</text>
</a>
</g>
</g>
<!-- Node1&#45;&gt;Node10 -->
<g id="edge9" class="edge"><title>Node1&#45;&gt;Node10</title>
<path fill="none" stroke="midnightblue" d="M946.413,-68.3159C1007.46,-59.6148 1109.42,-44.8433 1197,-31 1208.81,-29.1326 1221.53,-27.0369 1233.46,-25.0316"/>
<polygon fill="midnightblue" stroke="midnightblue" points="945.646,-64.8896 936.239,-69.7637 946.633,-71.8198 945.646,-64.8896"/>
</g>
<!-- Node11 -->
<g id="node11" class="node"><title>Node11</title>
<g id="a_node11"><a xlink:href="_chart_to_v_h_d_l_8cpp.html" target="_top" xlink:title="transform/ChartToVHDL.cpp">
<polygon fill="white" stroke="black" points="1378.5,-6 1378.5,-25 1521.5,-25 1521.5,-6 1378.5,-6"/>
<text text-anchor="middle" x="1450" y="-13" font-family="Helvetica,sans-Serif" font-size="10.00">transform/ChartToVHDL.cpp</text>
</a>
</g>
</g>
<!-- Node1&#45;&gt;Node11 -->
<g id="edge10" class="edge"><title>Node1&#45;&gt;Node11</title>
<path fill="none" stroke="midnightblue" d="M946.294,-72.3534C1034.99,-66.0652 1216.39,-51.8214 1369,-31 1381.03,-29.3584 1394,-27.2084 1405.96,-25.0686"/>
<polygon fill="midnightblue" stroke="midnightblue" points="945.932,-68.8701 936.202,-73.0628 946.422,-75.8529 945.932,-68.8701"/>
</g>
<!-- Node12 -->
<g id="node12" class="node"><title>Node12</title>
<g id="a_node12"><a xlink:href="_promela_code_analyzer_8cpp.html" target="_top" xlink:title="transform/promela/Promela\lCodeAnalyzer.cpp">
<polygon fill="white" stroke="black" points="1540,-0.5 1540,-30.5 1678,-30.5 1678,-0.5 1540,-0.5"/>
<text text-anchor="start" x="1548" y="-18.5" font-family="Helvetica,sans-Serif" font-size="10.00">transform/promela/Promela</text>
<text text-anchor="middle" x="1609" y="-7.5" font-family="Helvetica,sans-Serif" font-size="10.00">CodeAnalyzer.cpp</text>
</a>
</g>
</g>
<!-- Node1&#45;&gt;Node12 -->
<g id="edge11" class="edge"><title>Node1&#45;&gt;Node12</title>
<path fill="none" stroke="midnightblue" d="M946.566,-74.2458C1057.19,-70.2296 1315.66,-58.5077 1531,-31 1533.87,-30.6335 1536.79,-30.2295 1539.74,-29.7968"/>
<polygon fill="midnightblue" stroke="midnightblue" points="946.197,-70.7566 936.328,-74.6107 946.447,-77.7522 946.197,-70.7566"/>
</g>
<!-- Node13 -->
<g id="node13" class="node"><title>Node13</title>
<g id="a_node13"><a xlink:href="_predicates_8cpp.html" target="_top" xlink:title="util/Predicates.cpp">
<polygon fill="white" stroke="black" points="1696,-6 1696,-25 1794,-25 1794,-6 1696,-6"/>
<text text-anchor="middle" x="1745" y="-13" font-family="Helvetica,sans-Serif" font-size="10.00">util/Predicates.cpp</text>
</a>
</g>
</g>
<!-- Node1&#45;&gt;Node13 -->
<g id="edge12" class="edge"><title>Node1&#45;&gt;Node13</title>
<path fill="none" stroke="midnightblue" d="M946.289,-76.4362C1075.45,-76.7126 1410.88,-72.9465 1687,-31 1696.34,-29.5814 1706.37,-27.3392 1715.41,-25.0381"/>
<polygon fill="midnightblue" stroke="midnightblue" points="946.265,-72.9362 936.255,-76.4055 946.244,-79.9362 946.265,-72.9362"/>
</g>
</g>
</svg>
        <g id="navigator" transform="translate(0 0)" fill="#404254">
                <rect fill="#f2f5e9" fill-opacity="0.5" stroke="#606060" stroke-width=".5" x="0" y="0" width="60" height="60"/>
                <use id="zoomplus" xlink:href="#zoomPlus" x="17" y="9" onmousedown="handleZoom(evt,'in')"/>
                <use id="zoomminus" xlink:href="#zoomMin" x="42" y="9" onmousedown="handleZoom(evt,'out')"/>
                <use id="reset" xlink:href="#resetDef" x="30" y="36" onmousedown="handleReset()"/>
                <g id="arrowUp" xlink:href="#dirArrow" transform="translate(30 24)" onmousedown="handlePan(0,-1)">
                  <use xlink:href="#rim" fill="#404040">
                        <set attributeName="fill" to="#808080" begin="arrowUp.mouseover" end="arrowUp.mouseout"/>
                  </use>
                  <path fill="none" stroke="white" stroke-width="1.5" d="M0,-3.0v7 M-2.5,-0.5L0,-3.0L2.5,-0.5"/>
                </g>
                <g id="arrowRight" xlink:href="#dirArrow" transform="rotate(90) translate(36 -43)" onmousedown="handlePan(1,0)">
                  <use xlink:href="#rim" fill="#404040">
                        <set attributeName="fill" to="#808080" begin="arrowRight.mouseover" end="arrowRight.mouseout"/>
                  </use>
                  <path fill="none" stroke="white" stroke-width="1.5" d="M0,-3.0v7 M-2.5,-0.5L0,-3.0L2.5,-0.5"/>
                </g>
                <g id="arrowDown" xlink:href="#dirArrow" transform="rotate(180) translate(-30 -48)" onmousedown="handlePan(0,1)">
                  <use xlink:href="#rim" fill="#404040">
                        <set attributeName="fill" to="#808080" begin="arrowDown.mouseover" end="arrowDown.mouseout"/>
                  </use>
                  <path fill="none" stroke="white" stroke-width="1.5" d="M0,-3.0v7 M-2.5,-0.5L0,-3.0L2.5,-0.5"/>
                </g>
                <g id="arrowLeft" xlink:href="#dirArrow" transform="rotate(270) translate(-36 17)" onmousedown="handlePan(-1,0)">
                  <use xlink:href="#rim" fill="#404040">
                        <set attributeName="fill" to="#808080" begin="arrowLeft.mouseover" end="arrowLeft.mouseout"/>
                  </use>
                  <path fill="none" stroke="white" stroke-width="1.5" d="M0,-3.0v7 M-2.5,-0.5L0,-3.0L2.5,-0.5"/>
                </g>
        </g>
        <svg viewBox="0 0 15 15" width="100%" height="30px" preserveAspectRatio="xMaxYMin meet">
         <g id="arrow_out" transform="scale(0.3 0.3)">
          <a xlink:href="_predicates_8h__dep__incl_org.svg" target="_base">
           <rect id="button" ry="5" rx="5" y="6" x="6" height="38" width="38"
                fill="#f2f5e9" fill-opacity="0.5" stroke="#606060" stroke-width="1.0"/>
           <path id="arrow"
             d="M 11.500037,31.436501 C 11.940474,20.09759 22.043105,11.32322 32.158766,21.979434 L 37.068811,17.246167 C 37.068811,17.246167 37.088388,32 37.088388,32 L 22.160133,31.978069 C 22.160133,31.978069 26.997745,27.140456 26.997745,27.140456 C 18.528582,18.264221 13.291696,25.230495 11.500037,31.436501 z"
             style="fill:#404040;"/>
          </a>
         </g>
        </svg>
</svg>
