<?xml version="1.0" encoding="UTF-8" standalone="no"?>
<!DOCTYPE svg PUBLIC "-//W3C//DTD SVG 1.1//EN"
 "http://www.w3.org/Graphics/SVG/1.1/DTD/svg11.dtd">
<!-- Generated by graphviz version 2.40.1 (20161225.0304)
 -->
<!-- Title: util/Predicates.cpp Pages: 1 -->
<svg width="680pt" height="252pt"
 viewBox="0.00 0.00 679.50 252.00" xmlns="http://www.w3.org/2000/svg" xmlns:xlink="http://www.w3.org/1999/xlink">
<g id="graph0" class="graph" transform="scale(1 1) rotate(0) translate(4 248)">
<title>util/Predicates.cpp</title>
<polygon fill="#ffffff" stroke="transparent" points="-4,4 -4,-248 675.5,-248 675.5,4 -4,4"/>
<!-- Node1 -->
<g id="node1" class="node">
<title>Node1</title>
<polygon fill="#bfbfbf" stroke="#000000" points="156.5,-224.5 156.5,-243.5 254.5,-243.5 254.5,-224.5 156.5,-224.5"/>
<text text-anchor="middle" x="205.5" y="-231.5" font-family="Helvetica,sans-Serif" font-size="10.00" fill="#000000">util/Predicates.cpp</text>
</g>
<!-- Node2 -->
<g id="node2" class="node">
<title>Node2</title>
<g id="a_node2"><a xlink:href="$_predicates_8h.html" xlink:title="Predicates.h">
<polygon fill="#ffffff" stroke="#000000" points="246.5,-168.5 246.5,-187.5 318.5,-187.5 318.5,-168.5 246.5,-168.5"/>
<text text-anchor="middle" x="282.5" y="-175.5" font-family="Helvetica,sans-Serif" font-size="10.00" fill="#000000">Predicates.h</text>
</a>
</g>
</g>
<!-- Node1&#45;&gt;Node2 -->
<g id="edge1" class="edge">
<title>Node1&#45;&gt;Node2</title>
<path fill="none" stroke="#191970" d="M218.9124,-224.2455C230.5057,-215.814 247.4748,-203.4729 260.9678,-193.6598"/>
<polygon fill="#191970" stroke="#191970" points="263.2126,-196.355 269.2413,-187.6427 259.0953,-190.6938 263.2126,-196.355"/>
</g>
<!-- Node15 -->
<g id="node15" class="node">
<title>Node15</title>
<g id="a_node15"><a xlink:href="$_string_8h.html" xlink:title="uscxml/util/String.h">
<polygon fill="#ffffff" stroke="#000000" points="39.5,-112.5 39.5,-131.5 139.5,-131.5 139.5,-112.5 39.5,-112.5"/>
<text text-anchor="middle" x="89.5" y="-119.5" font-family="Helvetica,sans-Serif" font-size="10.00" fill="#000000">uscxml/util/String.h</text>
</a>
</g>
</g>
<!-- Node1&#45;&gt;Node15 -->
<g id="edge19" class="edge">
<title>Node1&#45;&gt;Node15</title>
<path fill="none" stroke="#191970" d="M195.6099,-224.4509C175.8344,-205.3574 131.2079,-162.2697 106.5959,-138.5063"/>
<polygon fill="#191970" stroke="#191970" points="108.9902,-135.9529 99.3651,-131.5249 104.128,-140.9888 108.9902,-135.9529"/>
</g>
<!-- Node3 -->
<g id="node3" class="node">
<title>Node3</title>
<polygon fill="#ffffff" stroke="#bfbfbf" points="386,-56.5 386,-75.5 427,-75.5 427,-56.5 386,-56.5"/>
<text text-anchor="middle" x="406.5" y="-63.5" font-family="Helvetica,sans-Serif" font-size="10.00" fill="#000000">string</text>
</g>
<!-- Node2&#45;&gt;Node3 -->
<g id="edge2" class="edge">
<title>Node2&#45;&gt;Node3</title>
<path fill="none" stroke="#191970" d="M293.0722,-168.4509C314.2115,-149.3574 361.9156,-106.2697 388.2251,-82.5063"/>
<polygon fill="#191970" stroke="#191970" points="390.8796,-84.8251 395.9546,-75.5249 386.1875,-79.6304 390.8796,-84.8251"/>
</g>
<!-- Node4 -->
<g id="node4" class="node">
<title>Node4</title>
<polygon fill="#ffffff" stroke="#bfbfbf" points="0,-56.5 0,-75.5 29,-75.5 29,-56.5 0,-56.5"/>
<text text-anchor="middle" x="14.5" y="-63.5" font-family="Helvetica,sans-Serif" font-size="10.00" fill="#000000">list</text>
</g>
<!-- Node2&#45;&gt;Node4 -->
<g id="edge3" class="edge">
<title>Node2&#45;&gt;Node4</title>
<path fill="none" stroke="#191970" d="M261.7912,-168.3524C242.2742,-159.1951 212.261,-144.9454 186.5,-132 169.4468,-123.4305 166.0857,-119.4154 148.5,-112 103.5119,-93.0297 87.8413,-94.1444 38.6111,-76.1531"/>
<polygon fill="#191970" stroke="#191970" points="39.606,-72.7884 29.0136,-72.5622 37.153,-79.3446 39.606,-72.7884"/>
</g>
<!-- Node5 -->
<g id="node5" class="node">
<title>Node5</title>
<polygon fill="#ffffff" stroke="#bfbfbf" points="249,-56.5 249,-75.5 368,-75.5 368,-56.5 249,-56.5"/>
<text text-anchor="middle" x="308.5" y="-63.5" font-family="Helvetica,sans-Serif" font-size="10.00" fill="#000000">xercesc/dom/DOM.hpp</text>
</g>
<!-- Node2&#45;&gt;Node5 -->
<g id="edge4" class="edge">
<title>Node2&#45;&gt;Node5</title>
<path fill="none" stroke="#191970" d="M287.7302,-168.4513C292.4434,-159.3638 299.1339,-145.1613 302.5,-132 306.3808,-116.8264 307.8309,-99.1284 308.3381,-85.8809"/>
<polygon fill="#191970" stroke="#191970" points="311.8446,-85.6389 308.5784,-75.5601 304.8465,-85.4758 311.8446,-85.6389"/>
</g>
<!-- Node6 -->
<g id="node6" class="node">
<title>Node6</title>
<g id="a_node6"><a xlink:href="$_d_o_m_8h.html" xlink:title="uscxml/util/DOM.h">
<polygon fill="#ffffff" stroke="#000000" points="195.5,-112.5 195.5,-131.5 293.5,-131.5 293.5,-112.5 195.5,-112.5"/>
<text text-anchor="middle" x="244.5" y="-119.5" font-family="Helvetica,sans-Serif" font-size="10.00" fill="#000000">uscxml/util/DOM.h</text>
</a>
</g>
</g>
<!-- Node2&#45;&gt;Node6 -->
<g id="edge5" class="edge">
<title>Node2&#45;&gt;Node6</title>
<path fill="none" stroke="#191970" d="M275.8809,-168.2455C270.5954,-160.4564 263.0459,-149.3308 256.6762,-139.9439"/>
<polygon fill="#191970" stroke="#191970" points="259.5545,-137.9522 251.0432,-131.6427 253.7621,-141.8827 259.5545,-137.9522"/>
</g>
<!-- Node12 -->
<g id="node12" class="node">
<title>Node12</title>
<g id="a_node12"><a xlink:href="$_convenience_8h.html" xlink:title="uscxml/util/Convenience.h">
<polygon fill="#ffffff" stroke="#000000" points="428,-112.5 428,-131.5 561,-131.5 561,-112.5 428,-112.5"/>
<text text-anchor="middle" x="494.5" y="-119.5" font-family="Helvetica,sans-Serif" font-size="10.00" fill="#000000">uscxml/util/Convenience.h</text>
</a>
</g>
</g>
<!-- Node2&#45;&gt;Node12 -->
<g id="edge14" class="edge">
<title>Node2&#45;&gt;Node12</title>
<path fill="none" stroke="#191970" d="M318.9441,-168.3733C354.8069,-158.9001 409.6878,-144.4032 448.5282,-134.1435"/>
<polygon fill="#191970" stroke="#191970" points="449.757,-137.439 458.5315,-131.5011 447.9692,-130.6712 449.757,-137.439"/>
</g>
<!-- Node6&#45;&gt;Node3 -->
<g id="edge8" class="edge">
<title>Node6&#45;&gt;Node3</title>
<path fill="none" stroke="#191970" d="M272.3488,-112.3733C301.2835,-102.3711 346.4192,-86.7687 376.2229,-76.4662"/>
<polygon fill="#191970" stroke="#191970" points="377.3891,-79.7663 385.6969,-73.1912 375.1021,-73.1504 377.3891,-79.7663"/>
</g>
<!-- Node6&#45;&gt;Node4 -->
<g id="edge7" class="edge">
<title>Node6&#45;&gt;Node4</title>
<path fill="none" stroke="#191970" d="M195.2762,-113.8084C155.1195,-106.512 96.9024,-94.5383 39.0837,-76.1196"/>
<polygon fill="#191970" stroke="#191970" points="40.0265,-72.7459 29.4343,-72.9833 37.8626,-79.4031 40.0265,-72.7459"/>
</g>
<!-- Node6&#45;&gt;Node5 -->
<g id="edge13" class="edge">
<title>Node6&#45;&gt;Node5</title>
<path fill="none" stroke="#191970" d="M255.6479,-112.2455C265.0087,-104.0549 278.5858,-92.1749 289.6349,-82.5069"/>
<polygon fill="#191970" stroke="#191970" points="292.2588,-84.8618 297.4798,-75.6427 287.6492,-79.5937 292.2588,-84.8618"/>
</g>
<!-- Node7 -->
<g id="node7" class="node">
<title>Node7</title>
<polygon fill="#ffffff" stroke="#bfbfbf" points="200.5,-56.5 200.5,-75.5 230.5,-75.5 230.5,-56.5 200.5,-56.5"/>
<text text-anchor="middle" x="215.5" y="-63.5" font-family="Helvetica,sans-Serif" font-size="10.00" fill="#000000">set</text>
</g>
<!-- Node6&#45;&gt;Node7 -->
<g id="edge6" class="edge">
<title>Node6&#45;&gt;Node7</title>
<path fill="none" stroke="#191970" d="M239.4486,-112.2455C235.4981,-104.617 229.8903,-93.7881 225.0942,-84.5267"/>
<polygon fill="#191970" stroke="#191970" points="228.2001,-82.9131 220.4935,-75.6427 221.9841,-86.1321 228.2001,-82.9131"/>
</g>
<!-- Node8 -->
<g id="node8" class="node">
<title>Node8</title>
<g id="a_node8"><a xlink:href="$_common_8h.html" xlink:title="uscxml/Common.h">
<polygon fill="#ffffff" stroke="#000000" points="445,-56.5 445,-75.5 544,-75.5 544,-56.5 445,-56.5"/>
<text text-anchor="middle" x="494.5" y="-63.5" font-family="Helvetica,sans-Serif" font-size="10.00" fill="#000000">uscxml/Common.h</text>
</a>
</g>
</g>
<!-- Node6&#45;&gt;Node8 -->
<g id="edge9" class="edge">
<title>Node6&#45;&gt;Node8</title>
<path fill="none" stroke="#191970" d="M287.1925,-112.4369C330.0679,-102.8328 396.2005,-88.0191 442.2002,-77.7152"/>
<polygon fill="#191970" stroke="#191970" points="442.9905,-81.1249 451.9836,-75.5237 441.4604,-74.2942 442.9905,-81.1249"/>
</g>
<!-- Node11 -->
<g id="node11" class="node">
<title>Node11</title>
<polygon fill="#ffffff" stroke="#bfbfbf" points="47,-56.5 47,-75.5 182,-75.5 182,-56.5 47,-56.5"/>
<text text-anchor="middle" x="114.5" y="-63.5" font-family="Helvetica,sans-Serif" font-size="10.00" fill="#000000">xercesc/util/XMLString.hpp</text>
</g>
<!-- Node6&#45;&gt;Node11 -->
<g id="edge12" class="edge">
<title>Node6&#45;&gt;Node11</title>
<path fill="none" stroke="#191970" d="M222.1522,-112.3733C201.0967,-103.3032 169.3505,-89.6279 145.7825,-79.4755"/>
<polygon fill="#191970" stroke="#191970" points="147.125,-76.243 136.5562,-75.5011 144.3556,-82.6719 147.125,-76.243"/>
</g>
<!-- Node9 -->
<g id="node9" class="node">
<title>Node9</title>
<polygon fill="#ffffff" stroke="#bfbfbf" points="420.5,-.5 420.5,-19.5 492.5,-19.5 492.5,-.5 420.5,-.5"/>
<text text-anchor="middle" x="456.5" y="-7.5" font-family="Helvetica,sans-Serif" font-size="10.00" fill="#000000">sys/socket.h</text>
</g>
<!-- Node8&#45;&gt;Node9 -->
<g id="edge10" class="edge">
<title>Node8&#45;&gt;Node9</title>
<path fill="none" stroke="#191970" d="M487.8809,-56.2455C482.5954,-48.4564 475.0459,-37.3308 468.6762,-27.9439"/>
<polygon fill="#191970" stroke="#191970" points="471.5545,-25.9522 463.0432,-19.6427 465.7621,-29.8827 471.5545,-25.9522"/>
</g>
<!-- Node10 -->
<g id="node10" class="node">
<title>Node10</title>
<polygon fill="#ffffff" stroke="#bfbfbf" points="510.5,-.5 510.5,-19.5 554.5,-19.5 554.5,-.5 510.5,-.5"/>
<text text-anchor="middle" x="532.5" y="-7.5" font-family="Helvetica,sans-Serif" font-size="10.00" fill="#000000">cmath</text>
</g>
<!-- Node8&#45;&gt;Node10 -->
<g id="edge11" class="edge">
<title>Node8&#45;&gt;Node10</title>
<path fill="none" stroke="#191970" d="M501.1191,-56.2455C506.4046,-48.4564 513.9541,-37.3308 520.3238,-27.9439"/>
<polygon fill="#191970" stroke="#191970" points="523.2379,-29.8827 525.9568,-19.6427 517.4455,-25.9522 523.2379,-29.8827"/>
</g>
<!-- Node12&#45;&gt;Node3 -->
<g id="edge16" class="edge">
<title>Node12&#45;&gt;Node3</title>
<path fill="none" stroke="#191970" d="M479.1716,-112.2455C465.6697,-103.6534 445.7878,-91.0014 430.2314,-81.1018"/>
<polygon fill="#191970" stroke="#191970" points="431.9685,-78.0587 421.6528,-75.6427 428.2103,-83.9643 431.9685,-78.0587"/>
</g>
<!-- Node12&#45;&gt;Node8 -->
<g id="edge15" class="edge">
<title>Node12&#45;&gt;Node8</title>
<path fill="none" stroke="#191970" d="M494.5,-112.2455C494.5,-104.9382 494.5,-94.6944 494.5,-85.7046"/>
<polygon fill="#191970" stroke="#191970" points="498.0001,-85.6426 494.5,-75.6427 491.0001,-85.6427 498.0001,-85.6426"/>
</g>
<!-- Node13 -->
<g id="node13" class="node">
<title>Node13</title>
<polygon fill="#ffffff" stroke="#bfbfbf" points="562,-56.5 562,-75.5 601,-75.5 601,-56.5 562,-56.5"/>
<text text-anchor="middle" x="581.5" y="-63.5" font-family="Helvetica,sans-Serif" font-size="10.00" fill="#000000">limits</text>
</g>
<!-- Node12&#45;&gt;Node13 -->
<g id="edge17" class="edge">
<title>Node12&#45;&gt;Node13</title>
<path fill="none" stroke="#191970" d="M509.6542,-112.2455C523.0027,-103.6534 542.6586,-91.0014 558.0383,-81.1018"/>
<polygon fill="#191970" stroke="#191970" points="560.0051,-83.9982 566.5194,-75.6427 556.2164,-78.1121 560.0051,-83.9982"/>
</g>
<!-- Node14 -->
<g id="node14" class="node">
<title>Node14</title>
<polygon fill="#ffffff" stroke="#bfbfbf" points="619.5,-56.5 619.5,-75.5 671.5,-75.5 671.5,-56.5 619.5,-56.5"/>
<text text-anchor="middle" x="645.5" y="-63.5" font-family="Helvetica,sans-Serif" font-size="10.00" fill="#000000">sstream</text>
</g>
<!-- Node12&#45;&gt;Node14 -->
<g id="edge18" class="edge">
<title>Node12&#45;&gt;Node14</title>
<path fill="none" stroke="#191970" d="M520.4578,-112.3733C545.2407,-103.1822 582.7746,-89.2624 610.254,-79.0713"/>
<polygon fill="#191970" stroke="#191970" points="611.7219,-82.26 619.8809,-75.5011 609.2879,-75.6968 611.7219,-82.26"/>
</g>
<!-- Node15&#45;&gt;Node3 -->
<g id="edge20" class="edge">
<title>Node15&#45;&gt;Node3</title>
<path fill="none" stroke="#191970" d="M139.5084,-116.491C195.0809,-109.8136 287.5434,-97.0546 376.0387,-75.763"/>
<polygon fill="#191970" stroke="#191970" points="377.0907,-79.109 385.9722,-73.3324 375.4269,-72.3096 377.0907,-79.109"/>
</g>
<!-- Node15&#45;&gt;Node4 -->
<g id="edge21" class="edge">
<title>Node15&#45;&gt;Node4</title>
<path fill="none" stroke="#191970" d="M76.436,-112.2455C65.1438,-103.814 48.6155,-91.4729 35.4729,-81.6598"/>
<polygon fill="#191970" stroke="#191970" points="37.5211,-78.8211 27.4143,-75.6427 33.3331,-84.4301 37.5211,-78.8211"/>
</g>
</g>
</svg>
