<?xml version="1.0" encoding="UTF-8" standalone="no"?>
<!DOCTYPE svg PUBLIC "-//W3C//DTD SVG 1.1//EN"
 "http://www.w3.org/Graphics/SVG/1.1/DTD/svg11.dtd">
<!-- Generated by graphviz version 2.38.0 (20140413.2041)
 -->
<!-- Title: util/Predicates.h Pages: 1 -->
<svg width="753pt" height="196pt"
 viewBox="0.00 0.00 753.00 196.00" xmlns="http://www.w3.org/2000/svg" xmlns:xlink="http://www.w3.org/1999/xlink">
<g id="graph0" class="graph" transform="scale(1 1) rotate(0) translate(4 192)">
<title>util/Predicates.h</title>
<polygon fill="white" stroke="none" points="-4,4 -4,-192 749,-192 749,4 -4,4"/>
<!-- Node1 -->
<g id="node1" class="node"><title>Node1</title>
<polygon fill="#bfbfbf" stroke="black" points="185.5,-168.5 185.5,-187.5 273.5,-187.5 273.5,-168.5 185.5,-168.5"/>
<text text-anchor="middle" x="229.5" y="-175.5" font-family="Helvetica,sans-Serif" font-size="10.00">util/Predicates.h</text>
</g>
<!-- Node2 -->
<g id="node2" class="node"><title>Node2</title>
<polygon fill="white" stroke="#bfbfbf" points="576,-56.5 576,-75.5 617,-75.5 617,-56.5 576,-56.5"/>
<text text-anchor="middle" x="596.5" y="-63.5" font-family="Helvetica,sans-Serif" font-size="10.00">string</text>
</g>
<!-- Node1&#45;&gt;Node2 -->
<g id="edge1" class="edge"><title>Node1&#45;&gt;Node2</title>
<path fill="none" stroke="midnightblue" d="M258.467,-168.456C315.4,-151.64 446.121,-112.91 566.184,-76.3808"/>
<polygon fill="midnightblue" stroke="midnightblue" points="567.366,-79.6795 575.913,-73.4184 565.327,-72.983 567.366,-79.6795"/>
</g>
<!-- Node3 -->
<g id="node3" class="node"><title>Node3</title>
<polygon fill="white" stroke="#bfbfbf" points="0,-56.5 0,-75.5 29,-75.5 29,-56.5 0,-56.5"/>
<text text-anchor="middle" x="14.5" y="-63.5" font-family="Helvetica,sans-Serif" font-size="10.00">list</text>
</g>
<!-- Node1&#45;&gt;Node3 -->
<g id="edge2" class="edge"><title>Node1&#45;&gt;Node3</title>
<path fill="none" stroke="midnightblue" d="M212.629,-168.368C174.62,-148.922 82.1938,-101.634 38.3436,-79.1991"/>
<polygon fill="midnightblue" stroke="midnightblue" points="39.7692,-75.997 29.2725,-74.558 36.5808,-82.2287 39.7692,-75.997"/>
</g>
<!-- Node4 -->
<g id="node4" class="node"><title>Node4</title>
<polygon fill="white" stroke="#bfbfbf" points="47,-56.5 47,-75.5 166,-75.5 166,-56.5 47,-56.5"/>
<text text-anchor="middle" x="106.5" y="-63.5" font-family="Helvetica,sans-Serif" font-size="10.00">xercesc/dom/DOM.hpp</text>
</g>
<!-- Node1&#45;&gt;Node4 -->
<g id="edge3" class="edge"><title>Node1&#45;&gt;Node4</title>
<path fill="none" stroke="midnightblue" d="M217.601,-168.451C205.628,-159.693 186.795,-145.486 171.5,-132 153.657,-116.267 134.555,-96.8181 121.71,-83.3147"/>
<polygon fill="midnightblue" stroke="midnightblue" points="123.995,-80.6361 114.588,-75.7616 118.902,-85.4384 123.995,-80.6361"/>
</g>
<!-- Node5 -->
<g id="node5" class="node"><title>Node5</title>
<g id="a_node5"><a xlink:href="_d_o_m_8h.html" target="_top" xlink:title="uscxml/util/DOM.h">
<polygon fill="white" stroke="black" points="180.5,-112.5 180.5,-131.5 278.5,-131.5 278.5,-112.5 180.5,-112.5"/>
<text text-anchor="middle" x="229.5" y="-119.5" font-family="Helvetica,sans-Serif" font-size="10.00">uscxml/util/DOM.h</text>
</a>
</g>
</g>
<!-- Node1&#45;&gt;Node5 -->
<g id="edge4" class="edge"><title>Node1&#45;&gt;Node5</title>
<path fill="none" stroke="midnightblue" d="M229.5,-168.083C229.5,-161.006 229.5,-150.861 229.5,-141.986"/>
<polygon fill="midnightblue" stroke="midnightblue" points="233,-141.751 229.5,-131.751 226,-141.751 233,-141.751"/>
</g>
<!-- Node12 -->
<g id="node12" class="node"><title>Node12</title>
<g id="a_node12"><a xlink:href="_convenience_8h.html" target="_top" xlink:title="uscxml/util/Convenience.h">
<polygon fill="white" stroke="black" points="530,-112.5 530,-131.5 663,-131.5 663,-112.5 530,-112.5"/>
<text text-anchor="middle" x="596.5" y="-119.5" font-family="Helvetica,sans-Serif" font-size="10.00">uscxml/util/Convenience.h</text>
</a>
</g>
</g>
<!-- Node1&#45;&gt;Node12 -->
<g id="edge13" class="edge"><title>Node1&#45;&gt;Node12</title>
<path fill="none" stroke="midnightblue" d="M273.769,-170.486C337.042,-161.176 453.894,-143.983 528.276,-133.038"/>
<polygon fill="midnightblue" stroke="midnightblue" points="529.096,-136.456 538.48,-131.537 528.077,-129.53 529.096,-136.456"/>
</g>
<!-- Node5&#45;&gt;Node3 -->
<g id="edge6" class="edge"><title>Node5&#45;&gt;Node3</title>
<path fill="none" stroke="midnightblue" d="M185.173,-112.486C148.167,-104.961 93.9293,-92.9659 39.321,-76.2753"/>
<polygon fill="midnightblue" stroke="midnightblue" points="40.0726,-72.8438 29.4844,-73.2181 37.995,-79.5284 40.0726,-72.8438"/>
</g>
<!-- Node5&#45;&gt;Node4 -->
<g id="edge12" class="edge"><title>Node5&#45;&gt;Node4</title>
<path fill="none" stroke="midnightblue" d="M210.01,-112.444C189.858,-103.596 158.177,-89.6875 135.169,-79.5865"/>
<polygon fill="midnightblue" stroke="midnightblue" points="136.462,-76.3316 125.899,-75.5164 133.648,-82.7411 136.462,-76.3316"/>
</g>
<!-- Node6 -->
<g id="node6" class="node"><title>Node6</title>
<polygon fill="white" stroke="#bfbfbf" points="184.5,-56.5 184.5,-75.5 214.5,-75.5 214.5,-56.5 184.5,-56.5"/>
<text text-anchor="middle" x="199.5" y="-63.5" font-family="Helvetica,sans-Serif" font-size="10.00">set</text>
</g>
<!-- Node5&#45;&gt;Node6 -->
<g id="edge5" class="edge"><title>Node5&#45;&gt;Node6</title>
<path fill="none" stroke="midnightblue" d="M224.546,-112.083C220.396,-104.613 214.347,-93.7244 209.233,-84.5199"/>
<polygon fill="midnightblue" stroke="midnightblue" points="212.278,-82.7929 204.362,-75.7511 206.159,-86.1924 212.278,-82.7929"/>
</g>
<!-- Node7 -->
<g id="node7" class="node"><title>Node7</title>
<polygon fill="white" stroke="#bfbfbf" points="233,-56.5 233,-75.5 288,-75.5 288,-56.5 233,-56.5"/>
<text text-anchor="middle" x="260.5" y="-63.5" font-family="Helvetica,sans-Serif" font-size="10.00">iostream</text>
</g>
<!-- Node5&#45;&gt;Node7 -->
<g id="edge7" class="edge"><title>Node5&#45;&gt;Node7</title>
<path fill="none" stroke="midnightblue" d="M234.619,-112.083C238.908,-104.613 245.158,-93.7244 250.442,-84.5199"/>
<polygon fill="midnightblue" stroke="midnightblue" points="253.533,-86.1662 255.476,-75.7511 247.462,-82.6811 253.533,-86.1662"/>
</g>
<!-- Node8 -->
<g id="node8" class="node"><title>Node8</title>
<g id="a_node8"><a xlink:href="_common_8h.html" target="_top" xlink:title="uscxml/Common.h">
<polygon fill="white" stroke="black" points="459,-56.5 459,-75.5 558,-75.5 558,-56.5 459,-56.5"/>
<text text-anchor="middle" x="508.5" y="-63.5" font-family="Helvetica,sans-Serif" font-size="10.00">uscxml/Common.h</text>
</a>
</g>
</g>
<!-- Node5&#45;&gt;Node8 -->
<g id="edge8" class="edge"><title>Node5&#45;&gt;Node8</title>
<path fill="none" stroke="midnightblue" d="M273.708,-112.444C322.787,-102.944 402.01,-87.611 454.664,-77.4198"/>
<polygon fill="midnightblue" stroke="midnightblue" points="455.346,-80.853 464.498,-75.5164 454.016,-73.9805 455.346,-80.853"/>
</g>
<!-- Node11 -->
<g id="node11" class="node"><title>Node11</title>
<polygon fill="white" stroke="#bfbfbf" points="306,-56.5 306,-75.5 441,-75.5 441,-56.5 306,-56.5"/>
<text text-anchor="middle" x="373.5" y="-63.5" font-family="Helvetica,sans-Serif" font-size="10.00">xercesc/util/XMLString.hpp</text>
</g>
<!-- Node5&#45;&gt;Node11 -->
<g id="edge11" class="edge"><title>Node5&#45;&gt;Node11</title>
<path fill="none" stroke="midnightblue" d="M252.317,-112.444C276.332,-103.438 314.329,-89.1891 341.369,-79.049"/>
<polygon fill="midnightblue" stroke="midnightblue" points="342.655,-82.3049 350.79,-75.5164 340.197,-75.7506 342.655,-82.3049"/>
</g>
<!-- Node9 -->
<g id="node9" class="node"><title>Node9</title>
<polygon fill="white" stroke="#bfbfbf" points="434.5,-0.5 434.5,-19.5 506.5,-19.5 506.5,-0.5 434.5,-0.5"/>
<text text-anchor="middle" x="470.5" y="-7.5" font-family="Helvetica,sans-Serif" font-size="10.00">sys/socket.h</text>
</g>
<!-- Node8&#45;&gt;Node9 -->
<g id="edge9" class="edge"><title>Node8&#45;&gt;Node9</title>
<path fill="none" stroke="midnightblue" d="M502.225,-56.083C496.858,-48.4554 488.982,-37.2645 482.421,-27.9408"/>
<polygon fill="midnightblue" stroke="midnightblue" points="485.275,-25.9149 476.658,-19.7511 479.551,-29.9434 485.275,-25.9149"/>
</g>
<!-- Node10 -->
<g id="node10" class="node"><title>Node10</title>
<polygon fill="white" stroke="#bfbfbf" points="524.5,-0.5 524.5,-19.5 568.5,-19.5 568.5,-0.5 524.5,-0.5"/>
<text text-anchor="middle" x="546.5" y="-7.5" font-family="Helvetica,sans-Serif" font-size="10.00">cmath</text>
</g>
<!-- Node8&#45;&gt;Node10 -->
<g id="edge10" class="edge"><title>Node8&#45;&gt;Node10</title>
<path fill="none" stroke="midnightblue" d="M514.775,-56.083C520.142,-48.4554 528.018,-37.2645 534.579,-27.9408"/>
<polygon fill="midnightblue" stroke="midnightblue" points="537.449,-29.9434 540.342,-19.7511 531.725,-25.9149 537.449,-29.9434"/>
</g>
<!-- Node12&#45;&gt;Node2 -->
<g id="edge15" class="edge"><title>Node12&#45;&gt;Node2</title>
<path fill="none" stroke="midnightblue" d="M596.5,-112.083C596.5,-105.006 596.5,-94.8611 596.5,-85.9865"/>
<polygon fill="midnightblue" stroke="midnightblue" points="600,-85.751 596.5,-75.7511 593,-85.7511 600,-85.751"/>
</g>
<!-- Node12&#45;&gt;Node8 -->
<g id="edge14" class="edge"><title>Node12&#45;&gt;Node8</title>
<path fill="none" stroke="midnightblue" d="M582.361,-112.324C568.634,-103.9 547.564,-90.9709 531.436,-81.0741"/>
<polygon fill="midnightblue" stroke="midnightblue" points="532.957,-77.9016 522.604,-75.6545 529.296,-83.8678 532.957,-77.9016"/>
</g>
<!-- Node13 -->
<g id="node13" class="node"><title>Node13</title>
<polygon fill="white" stroke="#bfbfbf" points="706,-56.5 706,-75.5 745,-75.5 745,-56.5 706,-56.5"/>
<text text-anchor="middle" x="725.5" y="-63.5" font-family="Helvetica,sans-Serif" font-size="10.00">limits</text>
</g>
<!-- Node12&#45;&gt;Node13 -->
<g id="edge16" class="edge"><title>Node12&#45;&gt;Node13</title>
<path fill="none" stroke="midnightblue" d="M616.94,-112.444C638.42,-103.452 672.387,-89.2332 696.604,-79.0962"/>
<polygon fill="midnightblue" stroke="midnightblue" points="698.127,-82.2529 706,-75.1629 695.424,-75.7958 698.127,-82.2529"/>
</g>
<!-- Node14 -->
<g id="node14" class="node"><title>Node14</title>
<polygon fill="white" stroke="#bfbfbf" points="635.5,-56.5 635.5,-75.5 687.5,-75.5 687.5,-56.5 635.5,-56.5"/>
<text text-anchor="middle" x="661.5" y="-63.5" font-family="Helvetica,sans-Serif" font-size="10.00">sstream</text>
</g>
<!-- Node12&#45;&gt;Node14 -->
<g id="edge17" class="edge"><title>Node12&#45;&gt;Node14</title>
<path fill="none" stroke="midnightblue" d="M606.943,-112.324C616.646,-104.263 631.315,-92.0765 643,-82.3695"/>
<polygon fill="midnightblue" stroke="midnightblue" points="645.411,-84.9163 650.867,-75.8339 640.938,-79.532 645.411,-84.9163"/>
</g>
</g>
</svg>
