<?xml version="1.0" encoding="UTF-8" standalone="no"?>
<!DOCTYPE svg PUBLIC "-//W3C//DTD SVG 1.1//EN"
 "http://www.w3.org/Graphics/SVG/1.1/DTD/svg11.dtd">
<!-- Generated by graphviz version 2.40.1 (20161225.0304)
 -->
<!-- Title: plugins/datamodel/promela/PromelaParser.h Pages: 1 -->
<svg width="836pt" height="319pt"
 viewBox="0.00 0.00 835.50 319.00" xmlns="http://www.w3.org/2000/svg" xmlns:xlink="http://www.w3.org/1999/xlink">
<g id="graph0" class="graph" transform="scale(1 1) rotate(0) translate(4 315)">
<title>plugins/datamodel/promela/PromelaParser.h</title>
<polygon fill="#ffffff" stroke="transparent" points="-4,4 -4,-315 831.5,-315 831.5,4 -4,4"/>
<!-- Node1 -->
<g id="node1" class="node">
<title>Node1</title>
<polygon fill="#bfbfbf" stroke="#000000" points="75.5,-280.5 75.5,-310.5 212.5,-310.5 212.5,-280.5 75.5,-280.5"/>
<text text-anchor="start" x="83.5" y="-298.5" font-family="Helvetica,sans-Serif" font-size="10.00" fill="#000000">plugins/datamodel/promela</text>
<text text-anchor="middle" x="144" y="-287.5" font-family="Helvetica,sans-Serif" font-size="10.00" fill="#000000">/PromelaParser.h</text>
</g>
<!-- Node2 -->
<g id="node2" class="node">
<title>Node2</title>
<polygon fill="#ffffff" stroke="#bfbfbf" points="0,-224.5 0,-243.5 48,-243.5 48,-224.5 0,-224.5"/>
<text text-anchor="middle" x="24" y="-231.5" font-family="Helvetica,sans-Serif" font-size="10.00" fill="#000000">stdlib.h</text>
</g>
<!-- Node1&#45;&gt;Node2 -->
<g id="edge1" class="edge">
<title>Node1&#45;&gt;Node2</title>
<path fill="none" stroke="#191970" d="M114.6447,-280.4554C95.4127,-270.599 70.4388,-257.7999 51.5759,-248.1327"/>
<polygon fill="#191970" stroke="#191970" points="53.0914,-244.9765 42.5957,-243.5303 49.8987,-251.206 53.0914,-244.9765"/>
</g>
<!-- Node3 -->
<g id="node3" class="node">
<title>Node3</title>
<polygon fill="#ffffff" stroke="#bfbfbf" points="66.5,-224.5 66.5,-243.5 115.5,-243.5 115.5,-224.5 66.5,-224.5"/>
<text text-anchor="middle" x="91" y="-231.5" font-family="Helvetica,sans-Serif" font-size="10.00" fill="#000000">cstdarg</text>
</g>
<!-- Node1&#45;&gt;Node3 -->
<g id="edge2" class="edge">
<title>Node1&#45;&gt;Node3</title>
<path fill="none" stroke="#191970" d="M130.8989,-280.2977C123.3887,-271.5831 113.93,-260.6075 106.1073,-251.5302"/>
<polygon fill="#191970" stroke="#191970" points="108.6655,-249.1372 99.486,-243.8469 103.3629,-253.707 108.6655,-249.1372"/>
</g>
<!-- Node4 -->
<g id="node4" class="node">
<title>Node4</title>
<polygon fill="#ffffff" stroke="#bfbfbf" points="453.5,-56.5 453.5,-75.5 494.5,-75.5 494.5,-56.5 453.5,-56.5"/>
<text text-anchor="middle" x="474" y="-63.5" font-family="Helvetica,sans-Serif" font-size="10.00" fill="#000000">string</text>
</g>
<!-- Node1&#45;&gt;Node4 -->
<g id="edge3" class="edge">
<title>Node1&#45;&gt;Node4</title>
<path fill="none" stroke="#191970" d="M140.1489,-280.4298C132.2274,-245.5355 118.3732,-158.6196 163,-112 167.8551,-106.9281 365.9296,-80.2779 443.3955,-70.0249"/>
<polygon fill="#191970" stroke="#191970" points="444.0377,-73.4705 453.4932,-68.6909 443.1209,-66.5308 444.0377,-73.4705"/>
</g>
<!-- Node5 -->
<g id="node5" class="node">
<title>Node5</title>
<polygon fill="#ffffff" stroke="#bfbfbf" points="172.5,-112.5 172.5,-131.5 201.5,-131.5 201.5,-112.5 172.5,-112.5"/>
<text text-anchor="middle" x="187" y="-119.5" font-family="Helvetica,sans-Serif" font-size="10.00" fill="#000000">list</text>
</g>
<!-- Node1&#45;&gt;Node5 -->
<g id="edge4" class="edge">
<title>Node1&#45;&gt;Node5</title>
<path fill="none" stroke="#191970" d="M148.2944,-280.2103C151.133,-269.9826 154.8898,-256.2111 158,-244 167.185,-207.9387 177.0331,-165.6438 182.564,-141.5162"/>
<polygon fill="#191970" stroke="#191970" points="186.0333,-142.045 184.8472,-131.5168 179.2089,-140.4867 186.0333,-142.045"/>
</g>
<!-- Node6 -->
<g id="node6" class="node">
<title>Node6</title>
<g id="a_node6"><a xlink:href="$_event_8h.html" xlink:title="uscxml/messages/Event.h">
<polygon fill="#ffffff" stroke="#000000" points="277.5,-224.5 277.5,-243.5 410.5,-243.5 410.5,-224.5 277.5,-224.5"/>
<text text-anchor="middle" x="344" y="-231.5" font-family="Helvetica,sans-Serif" font-size="10.00" fill="#000000">uscxml/messages/Event.h</text>
</a>
</g>
</g>
<!-- Node1&#45;&gt;Node6 -->
<g id="edge5" class="edge">
<title>Node1&#45;&gt;Node6</title>
<path fill="none" stroke="#191970" d="M192.9255,-280.4554C226.7351,-270.059 271.1921,-256.3884 303.113,-246.5727"/>
<polygon fill="#191970" stroke="#191970" points="304.4775,-249.815 313.0071,-243.5303 302.4201,-243.1242 304.4775,-249.815"/>
</g>
<!-- Node7 -->
<g id="node7" class="node">
<title>Node7</title>
<g id="a_node7"><a xlink:href="$_data_8h.html" xlink:title="uscxml/messages/Data.h">
<polygon fill="#ffffff" stroke="#000000" points="280,-168.5 280,-187.5 408,-187.5 408,-168.5 280,-168.5"/>
<text text-anchor="middle" x="344" y="-175.5" font-family="Helvetica,sans-Serif" font-size="10.00" fill="#000000">uscxml/messages/Data.h</text>
</a>
</g>
</g>
<!-- Node6&#45;&gt;Node7 -->
<g id="edge6" class="edge">
<title>Node6&#45;&gt;Node7</title>
<path fill="none" stroke="#191970" d="M344,-224.2455C344,-216.9382 344,-206.6944 344,-197.7046"/>
<polygon fill="#191970" stroke="#191970" points="347.5001,-197.6426 344,-187.6427 340.5001,-197.6427 347.5001,-197.6426"/>
</g>
<!-- Node18 -->
<g id="node18" class="node">
<title>Node18</title>
<g id="a_node18"><a xlink:href="$_u_u_i_d_8h.html" xlink:title="uscxml/util/UUID.h">
<polygon fill="#ffffff" stroke="#000000" points="577.5,-112.5 577.5,-131.5 676.5,-131.5 676.5,-112.5 577.5,-112.5"/>
<text text-anchor="middle" x="627" y="-119.5" font-family="Helvetica,sans-Serif" font-size="10.00" fill="#000000">uscxml/util/UUID.h</text>
</a>
</g>
</g>
<!-- Node6&#45;&gt;Node18 -->
<g id="edge23" class="edge">
<title>Node6&#45;&gt;Node18</title>
<path fill="none" stroke="#191970" d="M368.1284,-224.4509C418.6711,-204.4482 535.7534,-158.1117 593.5259,-135.2477"/>
<polygon fill="#191970" stroke="#191970" points="594.9223,-138.4592 602.9327,-131.5249 592.3464,-131.9504 594.9223,-138.4592"/>
</g>
<!-- Node7&#45;&gt;Node5 -->
<g id="edge7" class="edge">
<title>Node7&#45;&gt;Node5</title>
<path fill="none" stroke="#191970" d="M314.755,-168.4633C287.682,-159.4985 246.3904,-145.4784 211,-132 210.9051,-131.9639 210.81,-131.9276 210.7147,-131.8912"/>
<polygon fill="#191970" stroke="#191970" points="212.2505,-128.7357 201.6655,-128.2792 209.6555,-135.237 212.2505,-128.7357"/>
</g>
<!-- Node8 -->
<g id="node8" class="node">
<title>Node8</title>
<polygon fill="#ffffff" stroke="#bfbfbf" points="220,-112.5 220,-131.5 256,-131.5 256,-112.5 220,-112.5"/>
<text text-anchor="middle" x="238" y="-119.5" font-family="Helvetica,sans-Serif" font-size="10.00" fill="#000000">map</text>
</g>
<!-- Node7&#45;&gt;Node8 -->
<g id="edge8" class="edge">
<title>Node7&#45;&gt;Node8</title>
<path fill="none" stroke="#191970" d="M325.5362,-168.2455C308.8926,-159.4527 284.2007,-146.4079 265.2808,-136.4125"/>
<polygon fill="#191970" stroke="#191970" points="266.7291,-133.2193 256.2522,-131.6427 263.4592,-139.4086 266.7291,-133.2193"/>
</g>
<!-- Node9 -->
<g id="node9" class="node">
<title>Node9</title>
<polygon fill="#ffffff" stroke="#bfbfbf" points="328.5,-56.5 328.5,-75.5 381.5,-75.5 381.5,-56.5 328.5,-56.5"/>
<text text-anchor="middle" x="355" y="-63.5" font-family="Helvetica,sans-Serif" font-size="10.00" fill="#000000">memory</text>
</g>
<!-- Node7&#45;&gt;Node9 -->
<g id="edge9" class="edge">
<title>Node7&#45;&gt;Node9</title>
<path fill="none" stroke="#191970" d="M330.8424,-168.3952C315.5084,-155.9377 293.4146,-133.277 303,-112 308.5697,-99.6369 319.2863,-89.2563 329.5506,-81.5033"/>
<polygon fill="#191970" stroke="#191970" points="331.7618,-84.2277 337.9433,-75.623 327.7451,-78.4948 331.7618,-84.2277"/>
</g>
<!-- Node10 -->
<g id="node10" class="node">
<title>Node10</title>
<polygon fill="#ffffff" stroke="#bfbfbf" points="312.5,-112.5 312.5,-131.5 375.5,-131.5 375.5,-112.5 312.5,-112.5"/>
<text text-anchor="middle" x="344" y="-119.5" font-family="Helvetica,sans-Serif" font-size="10.00" fill="#000000">type_traits</text>
</g>
<!-- Node7&#45;&gt;Node10 -->
<g id="edge10" class="edge">
<title>Node7&#45;&gt;Node10</title>
<path fill="none" stroke="#191970" d="M344,-168.2455C344,-160.9382 344,-150.6944 344,-141.7046"/>
<polygon fill="#191970" stroke="#191970" points="347.5001,-141.6426 344,-131.6427 340.5001,-141.6427 347.5001,-141.6426"/>
</g>
<!-- Node11 -->
<g id="node11" class="node">
<title>Node11</title>
<g id="a_node11"><a xlink:href="$_common_8h.html" xlink:title="uscxml/Common.h">
<polygon fill="#ffffff" stroke="#000000" points="529.5,-56.5 529.5,-75.5 628.5,-75.5 628.5,-56.5 529.5,-56.5"/>
<text text-anchor="middle" x="579" y="-63.5" font-family="Helvetica,sans-Serif" font-size="10.00" fill="#000000">uscxml/Common.h</text>
</a>
</g>
</g>
<!-- Node7&#45;&gt;Node11 -->
<g id="edge11" class="edge">
<title>Node7&#45;&gt;Node11</title>
<path fill="none" stroke="#191970" d="M400.2712,-168.4149C446.9229,-159.6883 508.8859,-146.0548 530,-132 547.736,-120.1939 561.4506,-99.7108 569.802,-84.6869"/>
<polygon fill="#191970" stroke="#191970" points="572.9459,-86.228 574.5039,-75.7484 566.7508,-82.9691 572.9459,-86.228"/>
</g>
<!-- Node14 -->
<g id="node14" class="node">
<title>Node14</title>
<g id="a_node14"><a xlink:href="$_convenience_8h.html" xlink:title="uscxml/util/Convenience.h">
<polygon fill="#ffffff" stroke="#000000" points="694.5,-112.5 694.5,-131.5 827.5,-131.5 827.5,-112.5 694.5,-112.5"/>
<text text-anchor="middle" x="761" y="-119.5" font-family="Helvetica,sans-Serif" font-size="10.00" fill="#000000">uscxml/util/Convenience.h</text>
</a>
</g>
</g>
<!-- Node7&#45;&gt;Node14 -->
<g id="edge14" class="edge">
<title>Node7&#45;&gt;Node14</title>
<path fill="none" stroke="#191970" d="M408.2424,-169.3727C482.6235,-159.3839 605.0476,-142.9432 684.3383,-132.2951"/>
<polygon fill="#191970" stroke="#191970" points="684.8231,-135.7615 694.2682,-130.9616 683.8913,-128.8238 684.8231,-135.7615"/>
</g>
<!-- Node17 -->
<g id="node17" class="node">
<title>Node17</title>
<g id="a_node17"><a xlink:href="$_blob_8h.html" xlink:title="uscxml/messages/Blob.h">
<polygon fill="#ffffff" stroke="#000000" points="393.5,-112.5 393.5,-131.5 520.5,-131.5 520.5,-112.5 393.5,-112.5"/>
<text text-anchor="middle" x="457" y="-119.5" font-family="Helvetica,sans-Serif" font-size="10.00" fill="#000000">uscxml/messages/Blob.h</text>
</a>
</g>
</g>
<!-- Node7&#45;&gt;Node17 -->
<g id="edge19" class="edge">
<title>Node7&#45;&gt;Node17</title>
<path fill="none" stroke="#191970" d="M363.4254,-168.3733C381.4021,-159.4644 408.3441,-146.1127 428.709,-136.0203"/>
<polygon fill="#191970" stroke="#191970" points="430.4222,-139.0776 437.8281,-131.5011 427.3139,-132.8055 430.4222,-139.0776"/>
</g>
<!-- Node12 -->
<g id="node12" class="node">
<title>Node12</title>
<polygon fill="#ffffff" stroke="#bfbfbf" points="505,-.5 505,-19.5 577,-19.5 577,-.5 505,-.5"/>
<text text-anchor="middle" x="541" y="-7.5" font-family="Helvetica,sans-Serif" font-size="10.00" fill="#000000">sys/socket.h</text>
</g>
<!-- Node11&#45;&gt;Node12 -->
<g id="edge12" class="edge">
<title>Node11&#45;&gt;Node12</title>
<path fill="none" stroke="#191970" d="M572.3809,-56.2455C567.0954,-48.4564 559.5459,-37.3308 553.1762,-27.9439"/>
<polygon fill="#191970" stroke="#191970" points="556.0545,-25.9522 547.5432,-19.6427 550.2621,-29.8827 556.0545,-25.9522"/>
</g>
<!-- Node13 -->
<g id="node13" class="node">
<title>Node13</title>
<polygon fill="#ffffff" stroke="#bfbfbf" points="595,-.5 595,-19.5 639,-19.5 639,-.5 595,-.5"/>
<text text-anchor="middle" x="617" y="-7.5" font-family="Helvetica,sans-Serif" font-size="10.00" fill="#000000">cmath</text>
</g>
<!-- Node11&#45;&gt;Node13 -->
<g id="edge13" class="edge">
<title>Node11&#45;&gt;Node13</title>
<path fill="none" stroke="#191970" d="M585.6191,-56.2455C590.9046,-48.4564 598.4541,-37.3308 604.8238,-27.9439"/>
<polygon fill="#191970" stroke="#191970" points="607.7379,-29.8827 610.4568,-19.6427 601.9455,-25.9522 607.7379,-29.8827"/>
</g>
<!-- Node14&#45;&gt;Node4 -->
<g id="edge16" class="edge">
<title>Node14&#45;&gt;Node4</title>
<path fill="none" stroke="#191970" d="M709.4423,-112.4307C660.8011,-103.3288 585.8704,-89.1165 521,-76 515.7182,-74.9321 510.1096,-73.7664 504.6753,-72.6203"/>
<polygon fill="#191970" stroke="#191970" points="505.081,-69.1284 494.5717,-70.4713 503.6247,-75.9752 505.081,-69.1284"/>
</g>
<!-- Node14&#45;&gt;Node11 -->
<g id="edge15" class="edge">
<title>Node14&#45;&gt;Node11</title>
<path fill="none" stroke="#191970" d="M729.7131,-112.3733C699.3182,-103.021 653.0107,-88.7725 619.75,-78.5385"/>
<polygon fill="#191970" stroke="#191970" points="620.4658,-75.0968 609.8786,-75.5011 618.4071,-81.7873 620.4658,-75.0968"/>
</g>
<!-- Node15 -->
<g id="node15" class="node">
<title>Node15</title>
<polygon fill="#ffffff" stroke="#bfbfbf" points="709.5,-56.5 709.5,-75.5 748.5,-75.5 748.5,-56.5 709.5,-56.5"/>
<text text-anchor="middle" x="729" y="-63.5" font-family="Helvetica,sans-Serif" font-size="10.00" fill="#000000">limits</text>
</g>
<!-- Node14&#45;&gt;Node15 -->
<g id="edge17" class="edge">
<title>Node14&#45;&gt;Node15</title>
<path fill="none" stroke="#191970" d="M755.426,-112.2455C751.0669,-104.617 744.8789,-93.7881 739.5867,-84.5267"/>
<polygon fill="#191970" stroke="#191970" points="742.5104,-82.5886 734.5101,-75.6427 736.4327,-86.0616 742.5104,-82.5886"/>
</g>
<!-- Node16 -->
<g id="node16" class="node">
<title>Node16</title>
<polygon fill="#ffffff" stroke="#bfbfbf" points="767,-56.5 767,-75.5 819,-75.5 819,-56.5 767,-56.5"/>
<text text-anchor="middle" x="793" y="-63.5" font-family="Helvetica,sans-Serif" font-size="10.00" fill="#000000">sstream</text>
</g>
<!-- Node14&#45;&gt;Node16 -->
<g id="edge18" class="edge">
<title>Node14&#45;&gt;Node16</title>
<path fill="none" stroke="#191970" d="M766.574,-112.2455C770.9331,-104.617 777.1211,-93.7881 782.4133,-84.5267"/>
<polygon fill="#191970" stroke="#191970" points="785.5673,-86.0616 787.4899,-75.6427 779.4896,-82.5886 785.5673,-86.0616"/>
</g>
<!-- Node17&#45;&gt;Node4 -->
<g id="edge20" class="edge">
<title>Node17&#45;&gt;Node4</title>
<path fill="none" stroke="#191970" d="M459.9612,-112.2455C462.2038,-104.8579 465.3577,-94.4689 468.1081,-85.4087"/>
<polygon fill="#191970" stroke="#191970" points="471.517,-86.2282 471.0728,-75.6427 464.8188,-84.1948 471.517,-86.2282"/>
</g>
<!-- Node17&#45;&gt;Node9 -->
<g id="edge21" class="edge">
<title>Node17&#45;&gt;Node9</title>
<path fill="none" stroke="#191970" d="M439.233,-112.2455C423.2905,-103.4928 399.6741,-90.527 381.5011,-80.5496"/>
<polygon fill="#191970" stroke="#191970" points="383.0137,-77.3873 372.5634,-75.6427 379.6448,-83.5233 383.0137,-77.3873"/>
</g>
<!-- Node17&#45;&gt;Node11 -->
<g id="edge22" class="edge">
<title>Node17&#45;&gt;Node11</title>
<path fill="none" stroke="#191970" d="M477.9725,-112.3733C497.5567,-103.3838 526.9961,-89.8706 549.051,-79.7471"/>
<polygon fill="#191970" stroke="#191970" points="550.6729,-82.8538 558.3011,-75.5011 547.7527,-76.4919 550.6729,-82.8538"/>
</g>
<!-- Node18&#45;&gt;Node4 -->
<g id="edge25" class="edge">
<title>Node18&#45;&gt;Node4</title>
<path fill="none" stroke="#191970" d="M600.6984,-112.3733C573.9131,-102.5695 532.428,-87.3854 504.2868,-77.0854"/>
<polygon fill="#191970" stroke="#191970" points="505.1684,-73.681 494.5747,-73.5306 502.7624,-80.2546 505.1684,-73.681"/>
</g>
<!-- Node18&#45;&gt;Node11 -->
<g id="edge24" class="edge">
<title>Node18&#45;&gt;Node11</title>
<path fill="none" stroke="#191970" d="M618.639,-112.2455C611.825,-104.2958 602.0319,-92.8706 593.8848,-83.3656"/>
<polygon fill="#191970" stroke="#191970" points="596.4305,-80.9575 587.2651,-75.6427 591.1157,-85.513 596.4305,-80.9575"/>
</g>
</g>
</svg>
