<?xml version="1.0" encoding="UTF-8" standalone="no"?>
<!DOCTYPE svg PUBLIC "-//W3C//DTD SVG 1.1//EN"
 "http://www.w3.org/Graphics/SVG/1.1/DTD/svg11.dtd">
<!-- Generated by graphviz version 2.38.0 (20140413.2041)
 -->
<!-- Title: transform/promela/PromelaCodeAnalyzer.h Pages: 1 -->
<svg width="675pt" height="386pt"
 viewBox="0.00 0.00 675.41 386.00" xmlns="http://www.w3.org/2000/svg" xmlns:xlink="http://www.w3.org/1999/xlink">
<g id="graph0" class="graph" transform="scale(1 1) rotate(0) translate(4 382)">
<title>transform/promela/PromelaCodeAnalyzer.h</title>
<polygon fill="white" stroke="none" points="-4,4 -4,-382 671.406,-382 671.406,4 -4,4"/>
<!-- Node1 -->
<g id="node1" class="node"><title>Node1</title>
<polygon fill="#bfbfbf" stroke="black" points="386.406,-347.5 386.406,-377.5 524.406,-377.5 524.406,-347.5 386.406,-347.5"/>
<text text-anchor="start" x="394.406" y="-365.5" font-family="Helvetica,sans-Serif" font-size="10.00">transform/promela/Promela</text>
<text text-anchor="middle" x="455.406" y="-354.5" font-family="Helvetica,sans-Serif" font-size="10.00">CodeAnalyzer.h</text>
</g>
<!-- Node2 -->
<g id="node2" class="node"><title>Node2</title>
<g id="a_node2"><a xlink:href="_trie_8h.html" target="_top" xlink:title="uscxml/transform/Trie.h">
<polygon fill="white" stroke="black" points="427.906,-168.5 427.906,-187.5 548.906,-187.5 548.906,-168.5 427.906,-168.5"/>
<text text-anchor="middle" x="488.406" y="-175.5" font-family="Helvetica,sans-Serif" font-size="10.00">uscxml/transform/Trie.h</text>
</a>
</g>
</g>
<!-- Node1&#45;&gt;Node2 -->
<g id="edge1" class="edge"><title>Node1&#45;&gt;Node2</title>
<path fill="none" stroke="midnightblue" d="M394.93,-347.455C316.997,-326.584 197.057,-283.371 246.406,-224 257.4,-210.773 350.266,-196.387 417.687,-187.529"/>
<polygon fill="midnightblue" stroke="midnightblue" points="418.388,-190.968 427.854,-186.21 417.487,-184.026 418.388,-190.968"/>
</g>
<!-- Node9 -->
<g id="node9" class="node"><title>Node9</title>
<g id="a_node9"><a xlink:href="_promela_parser_8h.html" target="_top" xlink:title="uscxml/plugins/datamodel\l/promela/PromelaParser.h">
<polygon fill="white" stroke="black" points="305.906,-280.5 305.906,-310.5 438.906,-310.5 438.906,-280.5 305.906,-280.5"/>
<text text-anchor="start" x="313.906" y="-298.5" font-family="Helvetica,sans-Serif" font-size="10.00">uscxml/plugins/datamodel</text>
<text text-anchor="middle" x="372.406" y="-287.5" font-family="Helvetica,sans-Serif" font-size="10.00">/promela/PromelaParser.h</text>
</a>
</g>
</g>
<!-- Node1&#45;&gt;Node9 -->
<g id="edge8" class="edge"><title>Node1&#45;&gt;Node9</title>
<path fill="none" stroke="midnightblue" d="M437.396,-347.396C425.976,-338.452 411.017,-326.737 398.33,-316.802"/>
<polygon fill="midnightblue" stroke="midnightblue" points="400.412,-313.987 390.38,-310.577 396.096,-319.498 400.412,-313.987"/>
</g>
<!-- Node20 -->
<g id="node20" class="node"><title>Node20</title>
<g id="a_node20"><a xlink:href="promela_8tab_8hpp_source.html" target="_top" xlink:title="uscxml/plugins/datamodel\l/promela/parser/promela.tab.hpp">
<polygon fill="white" stroke="black" points="457.406,-280.5 457.406,-310.5 619.406,-310.5 619.406,-280.5 457.406,-280.5"/>
<text text-anchor="start" x="465.406" y="-298.5" font-family="Helvetica,sans-Serif" font-size="10.00">uscxml/plugins/datamodel</text>
<text text-anchor="middle" x="538.406" y="-287.5" font-family="Helvetica,sans-Serif" font-size="10.00">/promela/parser/promela.tab.hpp</text>
</a>
</g>
</g>
<!-- Node1&#45;&gt;Node20 -->
<g id="edge31" class="edge"><title>Node1&#45;&gt;Node20</title>
<path fill="none" stroke="midnightblue" d="M473.416,-347.396C484.836,-338.452 499.795,-326.737 512.482,-316.802"/>
<polygon fill="midnightblue" stroke="midnightblue" points="514.716,-319.498 520.431,-310.577 510.4,-313.987 514.716,-319.498"/>
</g>
<!-- Node21 -->
<g id="node21" class="node"><title>Node21</title>
<polygon fill="white" stroke="#bfbfbf" points="637.406,-286 637.406,-305 667.406,-305 667.406,-286 637.406,-286"/>
<text text-anchor="middle" x="652.406" y="-293" font-family="Helvetica,sans-Serif" font-size="10.00">set</text>
</g>
<!-- Node1&#45;&gt;Node21 -->
<g id="edge32" class="edge"><title>Node1&#45;&gt;Node21</title>
<path fill="none" stroke="midnightblue" d="M518.032,-347.404C551.519,-338.834 593.025,-326.535 628.406,-311 629.108,-310.692 629.814,-310.367 630.522,-310.028"/>
<polygon fill="midnightblue" stroke="midnightblue" points="632.428,-312.975 639.533,-305.115 629.077,-306.829 632.428,-312.975"/>
</g>
<!-- Node3 -->
<g id="node3" class="node"><title>Node3</title>
<g id="a_node3"><a xlink:href="_common_8h.html" target="_top" xlink:title="uscxml/Common.h">
<polygon fill="white" stroke="black" points="271.906,-56.5 271.906,-75.5 370.906,-75.5 370.906,-56.5 271.906,-56.5"/>
<text text-anchor="middle" x="321.406" y="-63.5" font-family="Helvetica,sans-Serif" font-size="10.00">uscxml/Common.h</text>
</a>
</g>
</g>
<!-- Node2&#45;&gt;Node3 -->
<g id="edge2" class="edge"><title>Node2&#45;&gt;Node3</title>
<path fill="none" stroke="midnightblue" d="M484.178,-168.156C477.145,-154.322 461.777,-127.543 441.406,-112 420.588,-96.1162 393.55,-85.3263 370.411,-78.3035"/>
<polygon fill="midnightblue" stroke="midnightblue" points="371.34,-74.929 360.762,-75.5206 369.4,-81.6549 371.34,-74.929"/>
</g>
<!-- Node6 -->
<g id="node6" class="node"><title>Node6</title>
<polygon fill="white" stroke="#bfbfbf" points="478.906,-56.5 478.906,-75.5 519.906,-75.5 519.906,-56.5 478.906,-56.5"/>
<text text-anchor="middle" x="499.406" y="-63.5" font-family="Helvetica,sans-Serif" font-size="10.00">string</text>
</g>
<!-- Node2&#45;&gt;Node6 -->
<g id="edge5" class="edge"><title>Node2&#45;&gt;Node6</title>
<path fill="none" stroke="midnightblue" d="M489.269,-168.368C491.044,-150.617 495.139,-109.666 497.546,-85.5974"/>
<polygon fill="midnightblue" stroke="midnightblue" points="501.034,-85.8901 498.547,-75.5914 494.069,-85.1935 501.034,-85.8901"/>
</g>
<!-- Node7 -->
<g id="node7" class="node"><title>Node7</title>
<polygon fill="white" stroke="#bfbfbf" points="349.406,-112.5 349.406,-131.5 385.406,-131.5 385.406,-112.5 349.406,-112.5"/>
<text text-anchor="middle" x="367.406" y="-119.5" font-family="Helvetica,sans-Serif" font-size="10.00">map</text>
</g>
<!-- Node2&#45;&gt;Node7 -->
<g id="edge6" class="edge"><title>Node2&#45;&gt;Node7</title>
<path fill="none" stroke="midnightblue" d="M469.233,-168.444C449.265,-159.532 417.79,-145.486 395.118,-135.367"/>
<polygon fill="midnightblue" stroke="midnightblue" points="396.255,-132.042 385.697,-131.163 393.402,-138.435 396.255,-132.042"/>
</g>
<!-- Node8 -->
<g id="node8" class="node"><title>Node8</title>
<polygon fill="white" stroke="#bfbfbf" points="403.906,-112.5 403.906,-131.5 432.906,-131.5 432.906,-112.5 403.906,-112.5"/>
<text text-anchor="middle" x="418.406" y="-119.5" font-family="Helvetica,sans-Serif" font-size="10.00">list</text>
</g>
<!-- Node2&#45;&gt;Node8 -->
<g id="edge7" class="edge"><title>Node2&#45;&gt;Node8</title>
<path fill="none" stroke="midnightblue" d="M477.159,-168.324C466.608,-160.185 450.605,-147.839 437.964,-138.087"/>
<polygon fill="midnightblue" stroke="midnightblue" points="439.913,-135.171 429.857,-131.834 435.637,-140.713 439.913,-135.171"/>
</g>
<!-- Node4 -->
<g id="node4" class="node"><title>Node4</title>
<polygon fill="white" stroke="#bfbfbf" points="247.406,-0.5 247.406,-19.5 319.406,-19.5 319.406,-0.5 247.406,-0.5"/>
<text text-anchor="middle" x="283.406" y="-7.5" font-family="Helvetica,sans-Serif" font-size="10.00">sys/socket.h</text>
</g>
<!-- Node3&#45;&gt;Node4 -->
<g id="edge3" class="edge"><title>Node3&#45;&gt;Node4</title>
<path fill="none" stroke="midnightblue" d="M315.131,-56.083C309.763,-48.4554 301.888,-37.2645 295.327,-27.9408"/>
<polygon fill="midnightblue" stroke="midnightblue" points="298.181,-25.9149 289.564,-19.7511 292.457,-29.9434 298.181,-25.9149"/>
</g>
<!-- Node5 -->
<g id="node5" class="node"><title>Node5</title>
<polygon fill="white" stroke="#bfbfbf" points="337.406,-0.5 337.406,-19.5 381.406,-19.5 381.406,-0.5 337.406,-0.5"/>
<text text-anchor="middle" x="359.406" y="-7.5" font-family="Helvetica,sans-Serif" font-size="10.00">cmath</text>
</g>
<!-- Node3&#45;&gt;Node5 -->
<g id="edge4" class="edge"><title>Node3&#45;&gt;Node5</title>
<path fill="none" stroke="midnightblue" d="M327.681,-56.083C333.048,-48.4554 340.923,-37.2645 347.485,-27.9408"/>
<polygon fill="midnightblue" stroke="midnightblue" points="350.355,-29.9434 353.248,-19.7511 344.63,-25.9149 350.355,-29.9434"/>
</g>
<!-- Node9&#45;&gt;Node6 -->
<g id="edge11" class="edge"><title>Node9&#45;&gt;Node6</title>
<path fill="none" stroke="midnightblue" d="M437.763,-280.452C491.174,-268.54 559.572,-252.134 570.406,-244 616.61,-209.31 621.204,-187.742 636.406,-132 638.745,-123.424 641.619,-119.2 636.406,-112 612.265,-78.6614 562.624,-69.5843 530.194,-67.3566"/>
<polygon fill="midnightblue" stroke="midnightblue" points="530.082,-63.8465 519.918,-66.8385 529.729,-70.8377 530.082,-63.8465"/>
</g>
<!-- Node9&#45;&gt;Node8 -->
<g id="edge12" class="edge"><title>Node9&#45;&gt;Node8</title>
<path fill="none" stroke="midnightblue" d="M376.17,-280.465C384.457,-249.57 404.273,-175.69 413.511,-141.251"/>
<polygon fill="midnightblue" stroke="midnightblue" points="416.9,-142.125 416.11,-131.56 410.139,-140.312 416.9,-142.125"/>
</g>
<!-- Node10 -->
<g id="node10" class="node"><title>Node10</title>
<polygon fill="white" stroke="#bfbfbf" points="255.406,-224.5 255.406,-243.5 303.406,-243.5 303.406,-224.5 255.406,-224.5"/>
<text text-anchor="middle" x="279.406" y="-231.5" font-family="Helvetica,sans-Serif" font-size="10.00">stdlib.h</text>
</g>
<!-- Node9&#45;&gt;Node10 -->
<g id="edge9" class="edge"><title>Node9&#45;&gt;Node10</title>
<path fill="none" stroke="midnightblue" d="M350.366,-280.399C335.598,-270.951 316.229,-258.559 301.458,-249.109"/>
<polygon fill="midnightblue" stroke="midnightblue" points="303.248,-246.099 292.938,-243.658 299.475,-251.995 303.248,-246.099"/>
</g>
<!-- Node11 -->
<g id="node11" class="node"><title>Node11</title>
<polygon fill="white" stroke="#bfbfbf" points="321.906,-224.5 321.906,-243.5 370.906,-243.5 370.906,-224.5 321.906,-224.5"/>
<text text-anchor="middle" x="346.406" y="-231.5" font-family="Helvetica,sans-Serif" font-size="10.00">cstdarg</text>
</g>
<!-- Node9&#45;&gt;Node11 -->
<g id="edge10" class="edge"><title>Node9&#45;&gt;Node11</title>
<path fill="none" stroke="midnightblue" d="M366.244,-280.399C362.661,-272.199 358.108,-261.781 354.269,-252.994"/>
<polygon fill="midnightblue" stroke="midnightblue" points="357.4,-251.42 350.189,-243.658 350.986,-254.223 357.4,-251.42"/>
</g>
<!-- Node12 -->
<g id="node12" class="node"><title>Node12</title>
<g id="a_node12"><a xlink:href="_event_8h.html" target="_top" xlink:title="uscxml/messages/Event.h">
<polygon fill="white" stroke="black" points="427.906,-224.5 427.906,-243.5 560.906,-243.5 560.906,-224.5 427.906,-224.5"/>
<text text-anchor="middle" x="494.406" y="-231.5" font-family="Helvetica,sans-Serif" font-size="10.00">uscxml/messages/Event.h</text>
</a>
</g>
</g>
<!-- Node9&#45;&gt;Node12 -->
<g id="edge13" class="edge"><title>Node9&#45;&gt;Node12</title>
<path fill="none" stroke="midnightblue" d="M401.318,-280.399C421.422,-270.595 448.027,-257.619 467.644,-248.052"/>
<polygon fill="midnightblue" stroke="midnightblue" points="469.2,-251.187 476.654,-243.658 466.131,-244.896 469.2,-251.187"/>
</g>
<!-- Node13 -->
<g id="node13" class="node"><title>Node13</title>
<g id="a_node13"><a xlink:href="_data_8h.html" target="_top" xlink:title="uscxml/messages/Data.h">
<polygon fill="white" stroke="black" points="243.406,-168.5 243.406,-187.5 371.406,-187.5 371.406,-168.5 243.406,-168.5"/>
<text text-anchor="middle" x="307.406" y="-175.5" font-family="Helvetica,sans-Serif" font-size="10.00">uscxml/messages/Data.h</text>
</a>
</g>
</g>
<!-- Node12&#45;&gt;Node13 -->
<g id="edge14" class="edge"><title>Node12&#45;&gt;Node13</title>
<path fill="none" stroke="midnightblue" d="M464.775,-224.444C432.906,-215.241 382.073,-200.562 346.842,-190.388"/>
<polygon fill="midnightblue" stroke="midnightblue" points="347.476,-186.928 336.898,-187.516 345.534,-193.653 347.476,-186.928"/>
</g>
<!-- Node19 -->
<g id="node19" class="node"><title>Node19</title>
<g id="a_node19"><a xlink:href="_u_u_i_d_8h.html" target="_top" xlink:title="uscxml/util/UUID.h">
<polygon fill="white" stroke="black" points="527.906,-112.5 527.906,-131.5 626.906,-131.5 626.906,-112.5 527.906,-112.5"/>
<text text-anchor="middle" x="577.406" y="-119.5" font-family="Helvetica,sans-Serif" font-size="10.00">uscxml/util/UUID.h</text>
</a>
</g>
</g>
<!-- Node12&#45;&gt;Node19 -->
<g id="edge28" class="edge"><title>Node12&#45;&gt;Node19</title>
<path fill="none" stroke="midnightblue" d="M512.72,-224.459C527.144,-216.833 546.706,-204.347 558.406,-188 568.135,-174.406 572.918,-155.861 575.248,-142.058"/>
<polygon fill="midnightblue" stroke="midnightblue" points="578.765,-142.18 576.683,-131.792 571.832,-141.211 578.765,-142.18"/>
</g>
<!-- Node13&#45;&gt;Node3 -->
<g id="edge18" class="edge"><title>Node13&#45;&gt;Node3</title>
<path fill="none" stroke="midnightblue" d="M308.504,-168.368C310.764,-150.617 315.976,-109.666 319.039,-85.5974"/>
<polygon fill="midnightblue" stroke="midnightblue" points="322.522,-85.9533 320.312,-75.5914 315.578,-85.0695 322.522,-85.9533"/>
</g>
<!-- Node13&#45;&gt;Node7 -->
<g id="edge16" class="edge"><title>Node13&#45;&gt;Node7</title>
<path fill="none" stroke="midnightblue" d="M317.046,-168.324C325.915,-160.341 339.281,-148.313 350.014,-138.653"/>
<polygon fill="midnightblue" stroke="midnightblue" points="352.499,-141.125 357.59,-131.834 347.816,-135.922 352.499,-141.125"/>
</g>
<!-- Node13&#45;&gt;Node8 -->
<g id="edge15" class="edge"><title>Node13&#45;&gt;Node8</title>
<path fill="none" stroke="midnightblue" d="M325.24,-168.324C344.074,-159.161 373.866,-144.668 394.674,-134.545"/>
<polygon fill="midnightblue" stroke="midnightblue" points="396.344,-137.625 403.805,-130.103 393.282,-131.33 396.344,-137.625"/>
</g>
<!-- Node14 -->
<g id="node14" class="node"><title>Node14</title>
<polygon fill="white" stroke="#bfbfbf" points="5.90587,-56.5 5.90587,-75.5 58.9059,-75.5 58.9059,-56.5 5.90587,-56.5"/>
<text text-anchor="middle" x="32.4059" y="-63.5" font-family="Helvetica,sans-Serif" font-size="10.00">memory</text>
</g>
<!-- Node13&#45;&gt;Node14 -->
<g id="edge17" class="edge"><title>Node13&#45;&gt;Node14</title>
<path fill="none" stroke="midnightblue" d="M243.226,-176.851C163.843,-175.143 35.4743,-166.881 5.40587,-132 -6.73259,-117.919 5.09288,-97.617 16.686,-83.4618"/>
<polygon fill="midnightblue" stroke="midnightblue" points="19.3313,-85.7538 23.3021,-75.9312 14.0725,-81.1337 19.3313,-85.7538"/>
</g>
<!-- Node15 -->
<g id="node15" class="node"><title>Node15</title>
<g id="a_node15"><a xlink:href="_convenience_8h.html" target="_top" xlink:title="uscxml/util/Convenience.h">
<polygon fill="white" stroke="black" points="159.906,-112.5 159.906,-131.5 292.906,-131.5 292.906,-112.5 159.906,-112.5"/>
<text text-anchor="middle" x="226.406" y="-119.5" font-family="Helvetica,sans-Serif" font-size="10.00">uscxml/util/Convenience.h</text>
</a>
</g>
</g>
<!-- Node13&#45;&gt;Node15 -->
<g id="edge19" class="edge"><title>Node13&#45;&gt;Node15</title>
<path fill="none" stroke="midnightblue" d="M294.392,-168.324C281.874,-159.979 262.724,-147.212 247.934,-137.352"/>
<polygon fill="midnightblue" stroke="midnightblue" points="249.65,-134.289 239.388,-131.655 245.767,-140.114 249.65,-134.289"/>
</g>
<!-- Node18 -->
<g id="node18" class="node"><title>Node18</title>
<g id="a_node18"><a xlink:href="_blob_8h.html" target="_top" xlink:title="uscxml/messages/Blob.h">
<polygon fill="white" stroke="black" points="14.9059,-112.5 14.9059,-131.5 141.906,-131.5 141.906,-112.5 14.9059,-112.5"/>
<text text-anchor="middle" x="78.4059" y="-119.5" font-family="Helvetica,sans-Serif" font-size="10.00">uscxml/messages/Blob.h</text>
</a>
</g>
</g>
<!-- Node13&#45;&gt;Node18 -->
<g id="edge24" class="edge"><title>Node13&#45;&gt;Node18</title>
<path fill="none" stroke="midnightblue" d="M271.12,-168.444C231.423,-159.083 167.699,-144.056 124.494,-133.868"/>
<polygon fill="midnightblue" stroke="midnightblue" points="125.058,-130.405 114.522,-131.516 123.452,-137.218 125.058,-130.405"/>
</g>
<!-- Node15&#45;&gt;Node3 -->
<g id="edge20" class="edge"><title>Node15&#45;&gt;Node3</title>
<path fill="none" stroke="midnightblue" d="M241.669,-112.324C256.627,-103.822 279.661,-90.7288 297.133,-80.7975"/>
<polygon fill="midnightblue" stroke="midnightblue" points="299.216,-83.639 306.18,-75.6545 295.757,-77.5534 299.216,-83.639"/>
</g>
<!-- Node15&#45;&gt;Node6 -->
<g id="edge21" class="edge"><title>Node15&#45;&gt;Node6</title>
<path fill="none" stroke="midnightblue" d="M269.664,-112.444C325.272,-101.444 420.428,-82.622 468.975,-73.0192"/>
<polygon fill="midnightblue" stroke="midnightblue" points="469.744,-76.435 478.875,-71.061 468.386,-69.5681 469.744,-76.435"/>
</g>
<!-- Node16 -->
<g id="node16" class="node"><title>Node16</title>
<polygon fill="white" stroke="#bfbfbf" points="210.906,-56.5 210.906,-75.5 249.906,-75.5 249.906,-56.5 210.906,-56.5"/>
<text text-anchor="middle" x="230.406" y="-63.5" font-family="Helvetica,sans-Serif" font-size="10.00">limits</text>
</g>
<!-- Node15&#45;&gt;Node16 -->
<g id="edge22" class="edge"><title>Node15&#45;&gt;Node16</title>
<path fill="none" stroke="midnightblue" d="M227.066,-112.083C227.591,-105.006 228.342,-94.8611 228.999,-85.9865"/>
<polygon fill="midnightblue" stroke="midnightblue" points="232.509,-85.9823 229.758,-75.7511 225.528,-85.4652 232.509,-85.9823"/>
</g>
<!-- Node17 -->
<g id="node17" class="node"><title>Node17</title>
<polygon fill="white" stroke="#bfbfbf" points="140.406,-56.5 140.406,-75.5 192.406,-75.5 192.406,-56.5 140.406,-56.5"/>
<text text-anchor="middle" x="166.406" y="-63.5" font-family="Helvetica,sans-Serif" font-size="10.00">sstream</text>
</g>
<!-- Node15&#45;&gt;Node17 -->
<g id="edge23" class="edge"><title>Node15&#45;&gt;Node17</title>
<path fill="none" stroke="midnightblue" d="M216.766,-112.324C207.896,-104.341 194.531,-92.3128 183.798,-82.6529"/>
<polygon fill="midnightblue" stroke="midnightblue" points="185.996,-79.922 176.221,-75.8339 181.313,-85.1251 185.996,-79.922"/>
</g>
<!-- Node18&#45;&gt;Node3 -->
<g id="edge27" class="edge"><title>Node18&#45;&gt;Node3</title>
<path fill="none" stroke="midnightblue" d="M116.91,-112.444C159.212,-103.043 227.225,-87.9291 273.079,-77.7393"/>
<polygon fill="midnightblue" stroke="midnightblue" points="274.079,-81.1025 283.082,-75.5164 272.561,-74.2692 274.079,-81.1025"/>
</g>
<!-- Node18&#45;&gt;Node6 -->
<g id="edge25" class="edge"><title>Node18&#45;&gt;Node6</title>
<path fill="none" stroke="midnightblue" d="M142.347,-112.799C234.27,-101.008 400.218,-79.7224 468.638,-70.9465"/>
<polygon fill="midnightblue" stroke="midnightblue" points="469.281,-74.3927 478.755,-69.6488 468.391,-67.4496 469.281,-74.3927"/>
</g>
<!-- Node18&#45;&gt;Node14 -->
<g id="edge26" class="edge"><title>Node18&#45;&gt;Node14</title>
<path fill="none" stroke="midnightblue" d="M70.8099,-112.083C64.1784,-104.298 54.3849,-92.8015 46.3477,-83.3665"/>
<polygon fill="midnightblue" stroke="midnightblue" points="49.0095,-81.0939 39.8605,-75.7511 43.6808,-85.6332 49.0095,-81.0939"/>
</g>
<!-- Node19&#45;&gt;Node3 -->
<g id="edge29" class="edge"><title>Node19&#45;&gt;Node3</title>
<path fill="none" stroke="midnightblue" d="M536.842,-112.444C492.09,-103.004 420.023,-87.802 371.71,-77.6111"/>
<polygon fill="midnightblue" stroke="midnightblue" points="372.287,-74.1558 361.78,-75.5164 370.842,-81.0051 372.287,-74.1558"/>
</g>
<!-- Node19&#45;&gt;Node6 -->
<g id="edge30" class="edge"><title>Node19&#45;&gt;Node6</title>
<path fill="none" stroke="midnightblue" d="M564.874,-112.324C552.82,-103.979 534.379,-91.2122 520.137,-81.3524"/>
<polygon fill="midnightblue" stroke="midnightblue" points="522.121,-78.469 511.907,-75.6545 518.137,-84.2243 522.121,-78.469"/>
</g>
</g>
</svg>
