<?xml version="1.0" encoding="UTF-8" standalone="no"?>
<!DOCTYPE svg PUBLIC "-//W3C//DTD SVG 1.1//EN"
 "http://www.w3.org/Graphics/SVG/1.1/DTD/svg11.dtd">
<!-- Generated by graphviz version 2.38.0 (20140413.2041)
 -->
<!-- Title: plugins/datamodel/promela/PromelaParser.h Pages: 1 -->
<svg width="755pt" height="319pt"
 viewBox="0.00 0.00 754.50 319.00" xmlns="http://www.w3.org/2000/svg" xmlns:xlink="http://www.w3.org/1999/xlink">
<g id="graph0" class="graph" transform="scale(1 1) rotate(0) translate(4 315)">
<title>plugins/datamodel/promela/PromelaParser.h</title>
<polygon fill="white" stroke="none" points="-4,4 -4,-315 750.5,-315 750.5,4 -4,4"/>
<!-- Node1 -->
<g id="node1" class="node"><title>Node1</title>
<polygon fill="#bfbfbf" stroke="black" points="75.5,-280.5 75.5,-310.5 212.5,-310.5 212.5,-280.5 75.5,-280.5"/>
<text text-anchor="start" x="83.5" y="-298.5" font-family="Helvetica,sans-Serif" font-size="10.00">plugins/datamodel/promela</text>
<text text-anchor="middle" x="144" y="-287.5" font-family="Helvetica,sans-Serif" font-size="10.00">/PromelaParser.h</text>
</g>
<!-- Node2 -->
<g id="node2" class="node"><title>Node2</title>
<polygon fill="white" stroke="#bfbfbf" points="0,-224.5 0,-243.5 48,-243.5 48,-224.5 0,-224.5"/>
<text text-anchor="middle" x="24" y="-231.5" font-family="Helvetica,sans-Serif" font-size="10.00">stdlib.h</text>
</g>
<!-- Node1&#45;&gt;Node2 -->
<g id="edge1" class="edge"><title>Node1&#45;&gt;Node2</title>
<path fill="none" stroke="midnightblue" d="M115.562,-280.399C95.8772,-270.639 69.8567,-257.737 50.5868,-248.183"/>
<polygon fill="midnightblue" stroke="midnightblue" points="51.975,-244.964 41.4611,-243.658 48.8654,-251.236 51.975,-244.964"/>
</g>
<!-- Node3 -->
<g id="node3" class="node"><title>Node3</title>
<polygon fill="white" stroke="#bfbfbf" points="66.5,-224.5 66.5,-243.5 115.5,-243.5 115.5,-224.5 66.5,-224.5"/>
<text text-anchor="middle" x="91" y="-231.5" font-family="Helvetica,sans-Serif" font-size="10.00">cstdarg</text>
</g>
<!-- Node1&#45;&gt;Node3 -->
<g id="edge2" class="edge"><title>Node1&#45;&gt;Node3</title>
<path fill="none" stroke="midnightblue" d="M131.44,-280.399C123.659,-271.664 113.636,-260.413 105.516,-251.296"/>
<polygon fill="midnightblue" stroke="midnightblue" points="107.977,-248.797 98.712,-243.658 102.75,-253.453 107.977,-248.797"/>
</g>
<!-- Node4 -->
<g id="node4" class="node"><title>Node4</title>
<polygon fill="white" stroke="#bfbfbf" points="357.5,-56.5 357.5,-75.5 398.5,-75.5 398.5,-56.5 357.5,-56.5"/>
<text text-anchor="middle" x="378" y="-63.5" font-family="Helvetica,sans-Serif" font-size="10.00">string</text>
</g>
<!-- Node1&#45;&gt;Node4 -->
<g id="edge3" class="edge"><title>Node1&#45;&gt;Node4</title>
<path fill="none" stroke="midnightblue" d="M140.535,-280.445C133.115,-246.635 119.679,-160.01 163,-112 164.555,-110.276 288.239,-85.1188 347.283,-73.1895"/>
<polygon fill="midnightblue" stroke="midnightblue" points="348.069,-76.6015 357.178,-71.1918 346.683,-69.74 348.069,-76.6015"/>
</g>
<!-- Node5 -->
<g id="node5" class="node"><title>Node5</title>
<polygon fill="white" stroke="#bfbfbf" points="172.5,-112.5 172.5,-131.5 201.5,-131.5 201.5,-112.5 172.5,-112.5"/>
<text text-anchor="middle" x="187" y="-119.5" font-family="Helvetica,sans-Serif" font-size="10.00">list</text>
</g>
<!-- Node1&#45;&gt;Node5 -->
<g id="edge4" class="edge"><title>Node1&#45;&gt;Node5</title>
<path fill="none" stroke="midnightblue" d="M148.056,-280.387C150.925,-270.279 154.814,-256.332 158,-244 167.376,-207.708 177.365,-165.024 182.829,-141.286"/>
<polygon fill="midnightblue" stroke="midnightblue" points="186.241,-142.063 185.063,-131.534 179.418,-140.5 186.241,-142.063"/>
</g>
<!-- Node6 -->
<g id="node6" class="node"><title>Node6</title>
<g id="a_node6"><a xlink:href="_event_8h.html" target="_top" xlink:title="uscxml/messages/Event.h">
<polygon fill="white" stroke="black" points="259.5,-224.5 259.5,-243.5 392.5,-243.5 392.5,-224.5 259.5,-224.5"/>
<text text-anchor="middle" x="326" y="-231.5" font-family="Helvetica,sans-Serif" font-size="10.00">uscxml/messages/Event.h</text>
</a>
</g>
</g>
<!-- Node1&#45;&gt;Node6 -->
<g id="edge5" class="edge"><title>Node1&#45;&gt;Node6</title>
<path fill="none" stroke="midnightblue" d="M187.131,-280.399C218.58,-270.118 260.692,-256.351 290.267,-246.682"/>
<polygon fill="midnightblue" stroke="midnightblue" points="291.366,-250.005 299.783,-243.571 289.19,-243.352 291.366,-250.005"/>
</g>
<!-- Node7 -->
<g id="node7" class="node"><title>Node7</title>
<g id="a_node7"><a xlink:href="_data_8h.html" target="_top" xlink:title="uscxml/messages/Data.h">
<polygon fill="white" stroke="black" points="262,-168.5 262,-187.5 390,-187.5 390,-168.5 262,-168.5"/>
<text text-anchor="middle" x="326" y="-175.5" font-family="Helvetica,sans-Serif" font-size="10.00">uscxml/messages/Data.h</text>
</a>
</g>
</g>
<!-- Node6&#45;&gt;Node7 -->
<g id="edge6" class="edge"><title>Node6&#45;&gt;Node7</title>
<path fill="none" stroke="midnightblue" d="M326,-224.083C326,-217.006 326,-206.861 326,-197.986"/>
<polygon fill="midnightblue" stroke="midnightblue" points="329.5,-197.751 326,-187.751 322.5,-197.751 329.5,-197.751"/>
</g>
<!-- Node17 -->
<g id="node17" class="node"><title>Node17</title>
<g id="a_node17"><a xlink:href="_u_u_i_d_8h.html" target="_top" xlink:title="uscxml/util/UUID.h">
<polygon fill="white" stroke="black" points="496.5,-112.5 496.5,-131.5 595.5,-131.5 595.5,-112.5 496.5,-112.5"/>
<text text-anchor="middle" x="546" y="-119.5" font-family="Helvetica,sans-Serif" font-size="10.00">uscxml/util/UUID.h</text>
</a>
</g>
</g>
<!-- Node6&#45;&gt;Node17 -->
<g id="edge22" class="edge"><title>Node6&#45;&gt;Node17</title>
<path fill="none" stroke="midnightblue" d="M343.263,-224.368C381.658,-205.171 474.316,-158.842 519.852,-136.074"/>
<polygon fill="midnightblue" stroke="midnightblue" points="521.438,-139.194 528.817,-131.591 518.308,-132.933 521.438,-139.194"/>
</g>
<!-- Node7&#45;&gt;Node5 -->
<g id="edge7" class="edge"><title>Node7&#45;&gt;Node5</title>
<path fill="none" stroke="midnightblue" d="M303.975,-168.444C278.7,-158.624 237.379,-142.572 211.217,-132.408"/>
<polygon fill="midnightblue" stroke="midnightblue" points="212.262,-129.059 201.673,-128.7 209.727,-135.584 212.262,-129.059"/>
</g>
<!-- Node8 -->
<g id="node8" class="node"><title>Node8</title>
<polygon fill="white" stroke="#bfbfbf" points="220,-112.5 220,-131.5 256,-131.5 256,-112.5 220,-112.5"/>
<text text-anchor="middle" x="238" y="-119.5" font-family="Helvetica,sans-Serif" font-size="10.00">map</text>
</g>
<!-- Node7&#45;&gt;Node8 -->
<g id="edge8" class="edge"><title>Node7&#45;&gt;Node8</title>
<path fill="none" stroke="midnightblue" d="M311.861,-168.324C298.134,-159.9 277.064,-146.971 260.936,-137.074"/>
<polygon fill="midnightblue" stroke="midnightblue" points="262.457,-133.902 252.104,-131.655 258.796,-139.868 262.457,-133.902"/>
</g>
<!-- Node9 -->
<g id="node9" class="node"><title>Node9</title>
<polygon fill="white" stroke="#bfbfbf" points="270.5,-56.5 270.5,-75.5 323.5,-75.5 323.5,-56.5 270.5,-56.5"/>
<text text-anchor="middle" x="297" y="-63.5" font-family="Helvetica,sans-Serif" font-size="10.00">memory</text>
</g>
<!-- Node7&#45;&gt;Node9 -->
<g id="edge9" class="edge"><title>Node7&#45;&gt;Node9</title>
<path fill="none" stroke="midnightblue" d="M320.372,-168.45C314.917,-159.69 306.91,-145.483 303,-132 298.605,-116.847 297.216,-98.9519 296.863,-85.7784"/>
<polygon fill="midnightblue" stroke="midnightblue" points="300.361,-85.5723 296.77,-75.6047 293.362,-85.6363 300.361,-85.5723"/>
</g>
<!-- Node10 -->
<g id="node10" class="node"><title>Node10</title>
<g id="a_node10"><a xlink:href="_common_8h.html" target="_top" xlink:title="uscxml/Common.h">
<polygon fill="white" stroke="black" points="457.5,-56.5 457.5,-75.5 556.5,-75.5 556.5,-56.5 457.5,-56.5"/>
<text text-anchor="middle" x="507" y="-63.5" font-family="Helvetica,sans-Serif" font-size="10.00">uscxml/Common.h</text>
</a>
</g>
</g>
<!-- Node7&#45;&gt;Node10 -->
<g id="edge10" class="edge"><title>Node7&#45;&gt;Node10</title>
<path fill="none" stroke="midnightblue" d="M363.483,-168.443C389.081,-161.411 422.946,-149.691 449,-132 467.886,-119.177 484.664,-98.8788 495.254,-84.3781"/>
<polygon fill="midnightblue" stroke="midnightblue" points="498.383,-86.0141 501.28,-75.823 492.66,-81.983 498.383,-86.0141"/>
</g>
<!-- Node13 -->
<g id="node13" class="node"><title>Node13</title>
<g id="a_node13"><a xlink:href="_convenience_8h.html" target="_top" xlink:title="uscxml/util/Convenience.h">
<polygon fill="white" stroke="black" points="613.5,-112.5 613.5,-131.5 746.5,-131.5 746.5,-112.5 613.5,-112.5"/>
<text text-anchor="middle" x="680" y="-119.5" font-family="Helvetica,sans-Serif" font-size="10.00">uscxml/util/Convenience.h</text>
</a>
</g>
</g>
<!-- Node7&#45;&gt;Node13 -->
<g id="edge13" class="edge"><title>Node7&#45;&gt;Node13</title>
<path fill="none" stroke="midnightblue" d="M382.092,-168.444C445.141,-158.826 547.397,-143.228 614.176,-133.041"/>
<polygon fill="midnightblue" stroke="midnightblue" points="614.812,-136.484 624.17,-131.516 613.757,-129.565 614.812,-136.484"/>
</g>
<!-- Node16 -->
<g id="node16" class="node"><title>Node16</title>
<g id="a_node16"><a xlink:href="_blob_8h.html" target="_top" xlink:title="uscxml/messages/Blob.h">
<polygon fill="white" stroke="black" points="312.5,-112.5 312.5,-131.5 439.5,-131.5 439.5,-112.5 312.5,-112.5"/>
<text text-anchor="middle" x="376" y="-119.5" font-family="Helvetica,sans-Serif" font-size="10.00">uscxml/messages/Blob.h</text>
</a>
</g>
</g>
<!-- Node7&#45;&gt;Node16 -->
<g id="edge18" class="edge"><title>Node7&#45;&gt;Node16</title>
<path fill="none" stroke="midnightblue" d="M334.256,-168.083C341.465,-160.298 352.11,-148.801 360.846,-139.367"/>
<polygon fill="midnightblue" stroke="midnightblue" points="363.671,-141.467 367.897,-131.751 358.535,-136.711 363.671,-141.467"/>
</g>
<!-- Node11 -->
<g id="node11" class="node"><title>Node11</title>
<polygon fill="white" stroke="#bfbfbf" points="433,-0.5 433,-19.5 505,-19.5 505,-0.5 433,-0.5"/>
<text text-anchor="middle" x="469" y="-7.5" font-family="Helvetica,sans-Serif" font-size="10.00">sys/socket.h</text>
</g>
<!-- Node10&#45;&gt;Node11 -->
<g id="edge11" class="edge"><title>Node10&#45;&gt;Node11</title>
<path fill="none" stroke="midnightblue" d="M500.725,-56.083C495.358,-48.4554 487.482,-37.2645 480.921,-27.9408"/>
<polygon fill="midnightblue" stroke="midnightblue" points="483.775,-25.9149 475.158,-19.7511 478.051,-29.9434 483.775,-25.9149"/>
</g>
<!-- Node12 -->
<g id="node12" class="node"><title>Node12</title>
<polygon fill="white" stroke="#bfbfbf" points="523,-0.5 523,-19.5 567,-19.5 567,-0.5 523,-0.5"/>
<text text-anchor="middle" x="545" y="-7.5" font-family="Helvetica,sans-Serif" font-size="10.00">cmath</text>
</g>
<!-- Node10&#45;&gt;Node12 -->
<g id="edge12" class="edge"><title>Node10&#45;&gt;Node12</title>
<path fill="none" stroke="midnightblue" d="M513.275,-56.083C518.642,-48.4554 526.518,-37.2645 533.079,-27.9408"/>
<polygon fill="midnightblue" stroke="midnightblue" points="535.949,-29.9434 538.842,-19.7511 530.225,-25.9149 535.949,-29.9434"/>
</g>
<!-- Node13&#45;&gt;Node4 -->
<g id="edge15" class="edge"><title>Node13&#45;&gt;Node4</title>
<path fill="none" stroke="midnightblue" d="M632.147,-112.444C569.44,-101.231 461.273,-81.89 408.601,-72.4717"/>
<polygon fill="midnightblue" stroke="midnightblue" points="408.998,-68.9872 398.538,-70.6723 407.766,-75.8779 408.998,-68.9872"/>
</g>
<!-- Node13&#45;&gt;Node10 -->
<g id="edge14" class="edge"><title>Node13&#45;&gt;Node10</title>
<path fill="none" stroke="midnightblue" d="M652.588,-112.444C623.231,-103.28 576.481,-88.6876 543.904,-78.5192"/>
<polygon fill="midnightblue" stroke="midnightblue" points="544.873,-75.1551 534.284,-75.5164 542.787,-81.8371 544.873,-75.1551"/>
</g>
<!-- Node14 -->
<g id="node14" class="node"><title>Node14</title>
<polygon fill="white" stroke="#bfbfbf" points="628.5,-56.5 628.5,-75.5 667.5,-75.5 667.5,-56.5 628.5,-56.5"/>
<text text-anchor="middle" x="648" y="-63.5" font-family="Helvetica,sans-Serif" font-size="10.00">limits</text>
</g>
<!-- Node13&#45;&gt;Node14 -->
<g id="edge16" class="edge"><title>Node13&#45;&gt;Node14</title>
<path fill="none" stroke="midnightblue" d="M674.716,-112.083C670.289,-104.613 663.837,-93.7244 658.382,-84.5199"/>
<polygon fill="midnightblue" stroke="midnightblue" points="661.295,-82.5697 653.186,-75.7511 655.273,-86.1383 661.295,-82.5697"/>
</g>
<!-- Node15 -->
<g id="node15" class="node"><title>Node15</title>
<polygon fill="white" stroke="#bfbfbf" points="686,-56.5 686,-75.5 738,-75.5 738,-56.5 686,-56.5"/>
<text text-anchor="middle" x="712" y="-63.5" font-family="Helvetica,sans-Serif" font-size="10.00">sstream</text>
</g>
<!-- Node13&#45;&gt;Node15 -->
<g id="edge17" class="edge"><title>Node13&#45;&gt;Node15</title>
<path fill="none" stroke="midnightblue" d="M685.284,-112.083C689.711,-104.613 696.163,-93.7244 701.618,-84.5199"/>
<polygon fill="midnightblue" stroke="midnightblue" points="704.727,-86.1383 706.814,-75.7511 698.705,-82.5697 704.727,-86.1383"/>
</g>
<!-- Node16&#45;&gt;Node4 -->
<g id="edge19" class="edge"><title>Node16&#45;&gt;Node4</title>
<path fill="none" stroke="midnightblue" d="M376.33,-112.083C376.592,-105.006 376.968,-94.8611 377.297,-85.9865"/>
<polygon fill="midnightblue" stroke="midnightblue" points="380.803,-85.8738 377.676,-75.7511 373.808,-85.6147 380.803,-85.8738"/>
</g>
<!-- Node16&#45;&gt;Node9 -->
<g id="edge20" class="edge"><title>Node16&#45;&gt;Node9</title>
<path fill="none" stroke="midnightblue" d="M363.307,-112.324C351.099,-103.979 332.422,-91.2122 317.997,-81.3524"/>
<polygon fill="midnightblue" stroke="midnightblue" points="319.892,-78.4082 309.661,-75.6545 315.942,-84.1871 319.892,-78.4082"/>
</g>
<!-- Node16&#45;&gt;Node10 -->
<g id="edge21" class="edge"><title>Node16&#45;&gt;Node10</title>
<path fill="none" stroke="midnightblue" d="M396.757,-112.444C418.316,-103.557 452.263,-89.5632 476.794,-79.4514"/>
<polygon fill="midnightblue" stroke="midnightblue" points="478.428,-82.5634 486.34,-75.5164 475.761,-76.0917 478.428,-82.5634"/>
</g>
<!-- Node17&#45;&gt;Node4 -->
<g id="edge24" class="edge"><title>Node17&#45;&gt;Node4</title>
<path fill="none" stroke="midnightblue" d="M519.38,-112.444C489.158,-102.729 439.953,-86.9134 408.288,-76.7354"/>
<polygon fill="midnightblue" stroke="midnightblue" points="409.261,-73.3719 398.67,-73.6439 407.119,-80.0361 409.261,-73.3719"/>
</g>
<!-- Node17&#45;&gt;Node10 -->
<g id="edge23" class="edge"><title>Node17&#45;&gt;Node10</title>
<path fill="none" stroke="midnightblue" d="M539.56,-112.083C534.051,-104.455 525.969,-93.2645 519.235,-83.9408"/>
<polygon fill="midnightblue" stroke="midnightblue" points="522.013,-81.8087 513.32,-75.7511 516.338,-85.9071 522.013,-81.8087"/>
</g>
</g>
</svg>
