<?xml version="1.0" encoding="UTF-8" standalone="no"?>
<!DOCTYPE svg PUBLIC "-//W3C//DTD SVG 1.1//EN"
 "http://www.w3.org/Graphics/SVG/1.1/DTD/svg11.dtd">
<!-- Generated by graphviz version 2.38.0 (20140413.2041)
 -->
<!-- Title: plugins/datamodel/promela/PromelaParser.h Pages: 1 -->
<svg width="858pt" height="319pt"
 viewBox="0.00 0.00 857.50 319.00" xmlns="http://www.w3.org/2000/svg" xmlns:xlink="http://www.w3.org/1999/xlink">
<g id="graph0" class="graph" transform="scale(1 1) rotate(0) translate(4 315)">
<title>plugins/datamodel/promela/PromelaParser.h</title>
<polygon fill="white" stroke="none" points="-4,4 -4,-315 853.5,-315 853.5,4 -4,4"/>
<!-- Node1 -->
<g id="node1" class="node"><title>Node1</title>
<polygon fill="#bfbfbf" stroke="black" points="75.5,-280.5 75.5,-310.5 212.5,-310.5 212.5,-280.5 75.5,-280.5"/>
<text text-anchor="start" x="83.5" y="-298.5" font-family="Helvetica,sans-Serif" font-size="10.00">plugins/datamodel/promela</text>
<text text-anchor="middle" x="144" y="-287.5" font-family="Helvetica,sans-Serif" font-size="10.00">/PromelaParser.h</text>
</g>
<!-- Node2 -->
<g id="node2" class="node"><title>Node2</title>
<polygon fill="white" stroke="#bfbfbf" points="0,-224.5 0,-243.5 48,-243.5 48,-224.5 0,-224.5"/>
<text text-anchor="middle" x="24" y="-231.5" font-family="Helvetica,sans-Serif" font-size="10.00">stdlib.h</text>
</g>
<!-- Node1&#45;&gt;Node2 -->
<g id="edge1" class="edge"><title>Node1&#45;&gt;Node2</title>
<path fill="none" stroke="midnightblue" d="M115.562,-280.399C95.8772,-270.639 69.8567,-257.737 50.5868,-248.183"/>
<polygon fill="midnightblue" stroke="midnightblue" points="51.975,-244.964 41.4611,-243.658 48.8654,-251.236 51.975,-244.964"/>
</g>
<!-- Node3 -->
<g id="node3" class="node"><title>Node3</title>
<polygon fill="white" stroke="#bfbfbf" points="66.5,-224.5 66.5,-243.5 115.5,-243.5 115.5,-224.5 66.5,-224.5"/>
<text text-anchor="middle" x="91" y="-231.5" font-family="Helvetica,sans-Serif" font-size="10.00">cstdarg</text>
</g>
<!-- Node1&#45;&gt;Node3 -->
<g id="edge2" class="edge"><title>Node1&#45;&gt;Node3</title>
<path fill="none" stroke="midnightblue" d="M131.44,-280.399C123.659,-271.664 113.636,-260.413 105.516,-251.296"/>
<polygon fill="midnightblue" stroke="midnightblue" points="107.977,-248.797 98.712,-243.658 102.75,-253.453 107.977,-248.797"/>
</g>
<!-- Node4 -->
<g id="node4" class="node"><title>Node4</title>
<polygon fill="white" stroke="#bfbfbf" points="460.5,-56.5 460.5,-75.5 501.5,-75.5 501.5,-56.5 460.5,-56.5"/>
<text text-anchor="middle" x="481" y="-63.5" font-family="Helvetica,sans-Serif" font-size="10.00">string</text>
</g>
<!-- Node1&#45;&gt;Node4 -->
<g id="edge3" class="edge"><title>Node1&#45;&gt;Node4</title>
<path fill="none" stroke="midnightblue" d="M140.336,-280.259C132.471,-246.035 118.124,-158.56 163,-112 172.955,-101.671 372.454,-78.8634 450.282,-70.3187"/>
<polygon fill="midnightblue" stroke="midnightblue" points="450.863,-73.7761 460.424,-69.2104 450.103,-66.8175 450.863,-73.7761"/>
</g>
<!-- Node5 -->
<g id="node5" class="node"><title>Node5</title>
<polygon fill="white" stroke="#bfbfbf" points="172.5,-112.5 172.5,-131.5 201.5,-131.5 201.5,-112.5 172.5,-112.5"/>
<text text-anchor="middle" x="187" y="-119.5" font-family="Helvetica,sans-Serif" font-size="10.00">list</text>
</g>
<!-- Node1&#45;&gt;Node5 -->
<g id="edge4" class="edge"><title>Node1&#45;&gt;Node5</title>
<path fill="none" stroke="midnightblue" d="M148.056,-280.387C150.925,-270.279 154.814,-256.332 158,-244 167.376,-207.708 177.365,-165.024 182.829,-141.286"/>
<polygon fill="midnightblue" stroke="midnightblue" points="186.241,-142.063 185.063,-131.534 179.418,-140.5 186.241,-142.063"/>
</g>
<!-- Node6 -->
<g id="node6" class="node"><title>Node6</title>
<g id="a_node6"><a xlink:href="_event_8h.html" target="_top" xlink:title="uscxml/messages/Event.h">
<polygon fill="white" stroke="black" points="288.5,-224.5 288.5,-243.5 421.5,-243.5 421.5,-224.5 288.5,-224.5"/>
<text text-anchor="middle" x="355" y="-231.5" font-family="Helvetica,sans-Serif" font-size="10.00">uscxml/messages/Event.h</text>
</a>
</g>
</g>
<!-- Node1&#45;&gt;Node6 -->
<g id="edge5" class="edge"><title>Node1&#45;&gt;Node6</title>
<path fill="none" stroke="midnightblue" d="M193.737,-280.475C230.775,-270.03 280.68,-255.958 315.116,-246.247"/>
<polygon fill="midnightblue" stroke="midnightblue" points="316.16,-249.589 324.835,-243.506 314.26,-242.852 316.16,-249.589"/>
</g>
<!-- Node7 -->
<g id="node7" class="node"><title>Node7</title>
<g id="a_node7"><a xlink:href="_data_8h.html" target="_top" xlink:title="uscxml/messages/Data.h">
<polygon fill="white" stroke="black" points="291,-168.5 291,-187.5 419,-187.5 419,-168.5 291,-168.5"/>
<text text-anchor="middle" x="355" y="-175.5" font-family="Helvetica,sans-Serif" font-size="10.00">uscxml/messages/Data.h</text>
</a>
</g>
</g>
<!-- Node6&#45;&gt;Node7 -->
<g id="edge6" class="edge"><title>Node6&#45;&gt;Node7</title>
<path fill="none" stroke="midnightblue" d="M355,-224.083C355,-217.006 355,-206.861 355,-197.986"/>
<polygon fill="midnightblue" stroke="midnightblue" points="358.5,-197.751 355,-187.751 351.5,-197.751 358.5,-197.751"/>
</g>
<!-- Node18 -->
<g id="node18" class="node"><title>Node18</title>
<g id="a_node18"><a xlink:href="_u_u_i_d_8h.html" target="_top" xlink:title="uscxml/util/UUID.h">
<polygon fill="white" stroke="black" points="599.5,-112.5 599.5,-131.5 698.5,-131.5 698.5,-112.5 599.5,-112.5"/>
<text text-anchor="middle" x="649" y="-119.5" font-family="Helvetica,sans-Serif" font-size="10.00">uscxml/util/UUID.h</text>
</a>
</g>
</g>
<!-- Node6&#45;&gt;Node18 -->
<g id="edge23" class="edge"><title>Node6&#45;&gt;Node18</title>
<path fill="none" stroke="midnightblue" d="M378.07,-224.368C430.023,-204.93 556.325,-157.674 616.318,-135.228"/>
<polygon fill="midnightblue" stroke="midnightblue" points="617.898,-138.374 626.037,-131.591 615.445,-131.818 617.898,-138.374"/>
</g>
<!-- Node7&#45;&gt;Node5 -->
<g id="edge7" class="edge"><title>Node7&#45;&gt;Node5</title>
<path fill="none" stroke="midnightblue" d="M325.884,-168.423C298.626,-160.278 256.569,-147.423 211.366,-131.985"/>
<polygon fill="midnightblue" stroke="midnightblue" points="212.271,-128.595 201.676,-128.652 209.994,-135.214 212.271,-128.595"/>
</g>
<!-- Node8 -->
<g id="node8" class="node"><title>Node8</title>
<polygon fill="white" stroke="#bfbfbf" points="220,-112.5 220,-131.5 256,-131.5 256,-112.5 220,-112.5"/>
<text text-anchor="middle" x="238" y="-119.5" font-family="Helvetica,sans-Serif" font-size="10.00">map</text>
</g>
<!-- Node7&#45;&gt;Node8 -->
<g id="edge8" class="edge"><title>Node7&#45;&gt;Node8</title>
<path fill="none" stroke="midnightblue" d="M336.461,-168.444C317.265,-159.584 287.072,-145.649 265.179,-135.544"/>
<polygon fill="midnightblue" stroke="midnightblue" points="266.614,-132.352 256.068,-131.339 263.681,-138.707 266.614,-132.352"/>
</g>
<!-- Node9 -->
<g id="node9" class="node"><title>Node9</title>
<polygon fill="white" stroke="#bfbfbf" points="322.5,-56.5 322.5,-75.5 375.5,-75.5 375.5,-56.5 322.5,-56.5"/>
<text text-anchor="middle" x="349" y="-63.5" font-family="Helvetica,sans-Serif" font-size="10.00">memory</text>
</g>
<!-- Node7&#45;&gt;Node9 -->
<g id="edge9" class="edge"><title>Node7&#45;&gt;Node9</title>
<path fill="none" stroke="midnightblue" d="M339.217,-168.467C326.797,-160.769 310.395,-148.179 303,-132 294.466,-113.328 311.311,-94.4468 326.963,-81.8817"/>
<polygon fill="midnightblue" stroke="midnightblue" points="329.458,-84.3862 335.368,-75.5924 325.264,-78.7817 329.458,-84.3862"/>
</g>
<!-- Node10 -->
<g id="node10" class="node"><title>Node10</title>
<polygon fill="white" stroke="#bfbfbf" points="312.5,-112.5 312.5,-131.5 397.5,-131.5 397.5,-112.5 312.5,-112.5"/>
<text text-anchor="middle" x="355" y="-119.5" font-family="Helvetica,sans-Serif" font-size="10.00">uscxml/config.h</text>
</g>
<!-- Node7&#45;&gt;Node10 -->
<g id="edge10" class="edge"><title>Node7&#45;&gt;Node10</title>
<path fill="none" stroke="midnightblue" d="M355,-168.083C355,-161.006 355,-150.861 355,-141.986"/>
<polygon fill="midnightblue" stroke="midnightblue" points="358.5,-141.751 355,-131.751 351.5,-141.751 358.5,-141.751"/>
</g>
<!-- Node11 -->
<g id="node11" class="node"><title>Node11</title>
<g id="a_node11"><a xlink:href="_common_8h.html" target="_top" xlink:title="uscxml/Common.h">
<polygon fill="white" stroke="black" points="560.5,-56.5 560.5,-75.5 659.5,-75.5 659.5,-56.5 560.5,-56.5"/>
<text text-anchor="middle" x="610" y="-63.5" font-family="Helvetica,sans-Serif" font-size="10.00">uscxml/Common.h</text>
</a>
</g>
</g>
<!-- Node7&#45;&gt;Node11 -->
<g id="edge11" class="edge"><title>Node7&#45;&gt;Node11</title>
<path fill="none" stroke="midnightblue" d="M419.452,-172.308C459.831,-167.029 511.671,-155.814 552,-132 572.06,-120.155 588.977,-99.0321 599.272,-84.0845"/>
<polygon fill="midnightblue" stroke="midnightblue" points="602.209,-85.9881 604.795,-75.7136 596.367,-82.133 602.209,-85.9881"/>
</g>
<!-- Node14 -->
<g id="node14" class="node"><title>Node14</title>
<g id="a_node14"><a xlink:href="_convenience_8h.html" target="_top" xlink:title="uscxml/util/Convenience.h">
<polygon fill="white" stroke="black" points="716.5,-112.5 716.5,-131.5 849.5,-131.5 849.5,-112.5 716.5,-112.5"/>
<text text-anchor="middle" x="783" y="-119.5" font-family="Helvetica,sans-Serif" font-size="10.00">uscxml/util/Convenience.h</text>
</a>
</g>
</g>
<!-- Node7&#45;&gt;Node14 -->
<g id="edge14" class="edge"><title>Node7&#45;&gt;Node14</title>
<path fill="none" stroke="midnightblue" d="M419.076,-168.916C495.86,-159.228 624.395,-143.011 706.363,-132.669"/>
<polygon fill="midnightblue" stroke="midnightblue" points="706.886,-136.131 716.369,-131.407 706.01,-129.186 706.886,-136.131"/>
</g>
<!-- Node17 -->
<g id="node17" class="node"><title>Node17</title>
<g id="a_node17"><a xlink:href="_blob_8h.html" target="_top" xlink:title="uscxml/messages/Blob.h">
<polygon fill="white" stroke="black" points="415.5,-112.5 415.5,-131.5 542.5,-131.5 542.5,-112.5 415.5,-112.5"/>
<text text-anchor="middle" x="479" y="-119.5" font-family="Helvetica,sans-Serif" font-size="10.00">uscxml/messages/Blob.h</text>
</a>
</g>
</g>
<!-- Node7&#45;&gt;Node17 -->
<g id="edge19" class="edge"><title>Node7&#45;&gt;Node17</title>
<path fill="none" stroke="midnightblue" d="M374.648,-168.444C394.965,-159.596 426.903,-145.687 450.098,-135.586"/>
<polygon fill="midnightblue" stroke="midnightblue" points="451.673,-138.718 459.444,-131.516 448.878,-132.3 451.673,-138.718"/>
</g>
<!-- Node12 -->
<g id="node12" class="node"><title>Node12</title>
<polygon fill="white" stroke="#bfbfbf" points="536,-0.5 536,-19.5 608,-19.5 608,-0.5 536,-0.5"/>
<text text-anchor="middle" x="572" y="-7.5" font-family="Helvetica,sans-Serif" font-size="10.00">sys/socket.h</text>
</g>
<!-- Node11&#45;&gt;Node12 -->
<g id="edge12" class="edge"><title>Node11&#45;&gt;Node12</title>
<path fill="none" stroke="midnightblue" d="M603.725,-56.083C598.358,-48.4554 590.482,-37.2645 583.921,-27.9408"/>
<polygon fill="midnightblue" stroke="midnightblue" points="586.775,-25.9149 578.158,-19.7511 581.051,-29.9434 586.775,-25.9149"/>
</g>
<!-- Node13 -->
<g id="node13" class="node"><title>Node13</title>
<polygon fill="white" stroke="#bfbfbf" points="626,-0.5 626,-19.5 670,-19.5 670,-0.5 626,-0.5"/>
<text text-anchor="middle" x="648" y="-7.5" font-family="Helvetica,sans-Serif" font-size="10.00">cmath</text>
</g>
<!-- Node11&#45;&gt;Node13 -->
<g id="edge13" class="edge"><title>Node11&#45;&gt;Node13</title>
<path fill="none" stroke="midnightblue" d="M616.275,-56.083C621.642,-48.4554 629.518,-37.2645 636.079,-27.9408"/>
<polygon fill="midnightblue" stroke="midnightblue" points="638.949,-29.9434 641.842,-19.7511 633.225,-25.9149 638.949,-29.9434"/>
</g>
<!-- Node14&#45;&gt;Node4 -->
<g id="edge16" class="edge"><title>Node14&#45;&gt;Node4</title>
<path fill="none" stroke="midnightblue" d="M735.147,-112.444C672.44,-101.231 564.273,-81.89 511.601,-72.4717"/>
<polygon fill="midnightblue" stroke="midnightblue" points="511.998,-68.9872 501.538,-70.6723 510.766,-75.8779 511.998,-68.9872"/>
</g>
<!-- Node14&#45;&gt;Node11 -->
<g id="edge15" class="edge"><title>Node14&#45;&gt;Node11</title>
<path fill="none" stroke="midnightblue" d="M755.588,-112.444C726.231,-103.28 679.481,-88.6876 646.904,-78.5192"/>
<polygon fill="midnightblue" stroke="midnightblue" points="647.873,-75.1551 637.284,-75.5164 645.787,-81.8371 647.873,-75.1551"/>
</g>
<!-- Node15 -->
<g id="node15" class="node"><title>Node15</title>
<polygon fill="white" stroke="#bfbfbf" points="731.5,-56.5 731.5,-75.5 770.5,-75.5 770.5,-56.5 731.5,-56.5"/>
<text text-anchor="middle" x="751" y="-63.5" font-family="Helvetica,sans-Serif" font-size="10.00">limits</text>
</g>
<!-- Node14&#45;&gt;Node15 -->
<g id="edge17" class="edge"><title>Node14&#45;&gt;Node15</title>
<path fill="none" stroke="midnightblue" d="M777.716,-112.083C773.289,-104.613 766.837,-93.7244 761.382,-84.5199"/>
<polygon fill="midnightblue" stroke="midnightblue" points="764.295,-82.5697 756.186,-75.7511 758.273,-86.1383 764.295,-82.5697"/>
</g>
<!-- Node16 -->
<g id="node16" class="node"><title>Node16</title>
<polygon fill="white" stroke="#bfbfbf" points="789,-56.5 789,-75.5 841,-75.5 841,-56.5 789,-56.5"/>
<text text-anchor="middle" x="815" y="-63.5" font-family="Helvetica,sans-Serif" font-size="10.00">sstream</text>
</g>
<!-- Node14&#45;&gt;Node16 -->
<g id="edge18" class="edge"><title>Node14&#45;&gt;Node16</title>
<path fill="none" stroke="midnightblue" d="M788.284,-112.083C792.711,-104.613 799.163,-93.7244 804.618,-84.5199"/>
<polygon fill="midnightblue" stroke="midnightblue" points="807.727,-86.1383 809.814,-75.7511 801.705,-82.5697 807.727,-86.1383"/>
</g>
<!-- Node17&#45;&gt;Node4 -->
<g id="edge20" class="edge"><title>Node17&#45;&gt;Node4</title>
<path fill="none" stroke="midnightblue" d="M479.33,-112.083C479.592,-105.006 479.968,-94.8611 480.297,-85.9865"/>
<polygon fill="midnightblue" stroke="midnightblue" points="483.803,-85.8738 480.676,-75.7511 476.808,-85.6147 483.803,-85.8738"/>
</g>
<!-- Node17&#45;&gt;Node9 -->
<g id="edge21" class="edge"><title>Node17&#45;&gt;Node9</title>
<path fill="none" stroke="midnightblue" d="M458.401,-112.444C437.007,-103.557 403.319,-89.5632 378.976,-79.4514"/>
<polygon fill="midnightblue" stroke="midnightblue" points="380.08,-76.1203 369.503,-75.5164 377.395,-82.5848 380.08,-76.1203"/>
</g>
<!-- Node17&#45;&gt;Node11 -->
<g id="edge22" class="edge"><title>Node17&#45;&gt;Node11</title>
<path fill="none" stroke="midnightblue" d="M499.757,-112.444C521.316,-103.557 555.263,-89.5632 579.794,-79.4514"/>
<polygon fill="midnightblue" stroke="midnightblue" points="581.428,-82.5634 589.34,-75.5164 578.761,-76.0917 581.428,-82.5634"/>
</g>
<!-- Node18&#45;&gt;Node4 -->
<g id="edge25" class="edge"><title>Node18&#45;&gt;Node4</title>
<path fill="none" stroke="midnightblue" d="M622.38,-112.444C592.158,-102.729 542.953,-86.9134 511.288,-76.7354"/>
<polygon fill="midnightblue" stroke="midnightblue" points="512.261,-73.3719 501.67,-73.6439 510.119,-80.0361 512.261,-73.3719"/>
</g>
<!-- Node18&#45;&gt;Node11 -->
<g id="edge24" class="edge"><title>Node18&#45;&gt;Node11</title>
<path fill="none" stroke="midnightblue" d="M642.56,-112.083C637.051,-104.455 628.969,-93.2645 622.235,-83.9408"/>
<polygon fill="midnightblue" stroke="midnightblue" points="625.013,-81.8087 616.32,-75.7511 619.338,-85.9071 625.013,-81.8087"/>
</g>
</g>
</svg>
