<?xml version="1.0" encoding="UTF-8" standalone="no"?>
<!DOCTYPE svg PUBLIC "-//W3C//DTD SVG 1.1//EN"
 "http://www.w3.org/Graphics/SVG/1.1/DTD/svg11.dtd">
<!-- Generated by graphviz version 2.38.0 (20140413.2041)
 -->
<!-- Title: plugins/ioprocessor/scxml/SCXMLIOProcessor.h Pages: 1 -->
<!--zoomable 442 -->
<svg id="main" version="1.1" xmlns="http://www.w3.org/2000/svg" xmlns:xlink="http://www.w3.org/1999/xlink" xml:space="preserve" onload="init(evt)">
<style type="text/css"><![CDATA[
.edge:hover path { stroke: red; }
.edge:hover polygon { stroke: red; fill: red; }
]]></style>
<script type="text/javascript"><![CDATA[
var edges = document.getElementsByTagName('g');
if (edges && edges.length) {
  for (var i=0;i<edges.length;i++) {
    if (edges[i].id.substr(0,4)=='edge') {
      edges[i].setAttribute('class','edge');
    }
  }
}
]]></script>
        <defs>
                <circle id="rim" cx="0" cy="0" r="7"/>
                <circle id="rim2" cx="0" cy="0" r="3.5"/>
                <g id="zoomPlus">
                        <use xlink:href="#rim" fill="#404040">
                                <set attributeName="fill" to="#808080" begin="zoomplus.mouseover" end="zoomplus.mouseout"/>
                        </use>
                        <path d="M-4,0h8M0,-4v8" fill="none" stroke="white" stroke-width="1.5" pointer-events="none"/>
                </g>
                <g id="zoomMin">
                        <use xlink:href="#rim" fill="#404040">
                                <set attributeName="fill" to="#808080" begin="zoomminus.mouseover" end="zoomminus.mouseout"/>
                        </use>
                        <path d="M-4,0h8" fill="none" stroke="white" stroke-width="1.5" pointer-events="none"/>
                </g>
                <g id="dirArrow">
                        <path fill="none" stroke="white" stroke-width="1.5" d="M0,-3.0v7 M-2.5,-0.5L0,-3.0L2.5,-0.5"/>
                </g>
               <g id="resetDef">
                       <use xlink:href="#rim2" fill="#404040">
                               <set attributeName="fill" to="#808080" begin="reset.mouseover" end="reset.mouseout"/>
                       </use>
               </g>
        </defs>

<script type="text/javascript">
var viewWidth = 820;
var viewHeight = 442;
var sectionId = 'dynsection-0';
</script>
<script xlink:href="svgpan.js"/>
<svg id="graph" class="graph">
<g id="viewport">
<title>plugins/ioprocessor/scxml/SCXMLIOProcessor.h</title>
<polygon fill="white" stroke="none" points="-4,4 -4,-438 815.655,-438 815.655,4 -4,4"/>
<!-- Node1 -->
<g id="node1" class="node"><title>Node1</title>
<polygon fill="#bfbfbf" stroke="black" points="390.707,-403.5 390.707,-433.5 536.707,-433.5 536.707,-403.5 390.707,-403.5"/>
<text text-anchor="start" x="398.707" y="-421.5" font-family="Helvetica,sans-Serif" font-size="10.00">plugins/ioprocessor</text>
<text text-anchor="middle" x="463.707" y="-410.5" font-family="Helvetica,sans-Serif" font-size="10.00">/scxml/SCXMLIOProcessor.h</text>
</g>
<!-- Node2 -->
<g id="node2" class="node"><title>Node2</title>
<g id="a_node2"><a xlink:href="_i_o_processor_impl_8h.html" target="_top" xlink:title="uscxml/plugins/IOProcessor\lImpl.h">
<polygon fill="white" stroke="black" points="393.707,-336.5 393.707,-366.5 533.707,-366.5 533.707,-336.5 393.707,-336.5"/>
<text text-anchor="start" x="401.707" y="-354.5" font-family="Helvetica,sans-Serif" font-size="10.00">uscxml/plugins/IOProcessor</text>
<text text-anchor="middle" x="463.707" y="-343.5" font-family="Helvetica,sans-Serif" font-size="10.00">Impl.h</text>
</a>
</g>
</g>
<!-- Node1&#45;&gt;Node2 -->
<g id="edge1" class="edge"><title>Node1&#45;&gt;Node2</title>
<path fill="none" stroke="midnightblue" d="M463.707,-403.396C463.707,-395.645 463.707,-385.812 463.707,-376.86"/>
<polygon fill="midnightblue" stroke="midnightblue" points="467.207,-376.576 463.707,-366.577 460.207,-376.577 467.207,-376.576"/>
</g>
<!-- Node3 -->
<g id="node3" class="node"><title>Node3</title>
<g id="a_node3"><a xlink:href="_common_8h.html" target="_top" xlink:title="uscxml/Common.h">
<polygon fill="white" stroke="black" points="160.207,-56.5 160.207,-75.5 259.207,-75.5 259.207,-56.5 160.207,-56.5"/>
<text text-anchor="middle" x="209.707" y="-63.5" font-family="Helvetica,sans-Serif" font-size="10.00">uscxml/Common.h</text>
</a>
</g>
</g>
<!-- Node2&#45;&gt;Node3 -->
<g id="edge2" class="edge"><title>Node2&#45;&gt;Node3</title>
<path fill="none" stroke="midnightblue" d="M393.638,-347.498C264.205,-340.028 0.706662,-314.997 0.706662,-235 0.706662,-235 0.706662,-235 0.706662,-177 0.706662,-146.902 -2.11999,-132.724 19.7067,-112 38.354,-94.2949 101.626,-81.7708 150.084,-74.5049"/>
<polygon fill="midnightblue" stroke="midnightblue" points="150.787,-77.9395 160.178,-73.0343 149.778,-71.0126 150.787,-77.9395"/>
</g>
<!-- Node6 -->
<g id="node6" class="node"><title>Node6</title>
<g id="a_node6"><a xlink:href="_event_handler_8h.html" target="_top" xlink:title="uscxml/plugins/EventHandler.h">
<polygon fill="white" stroke="black" points="571.707,-280.5 571.707,-299.5 725.707,-299.5 725.707,-280.5 571.707,-280.5"/>
<text text-anchor="middle" x="648.707" y="-287.5" font-family="Helvetica,sans-Serif" font-size="10.00">uscxml/plugins/EventHandler.h</text>
</a>
</g>
</g>
<!-- Node2&#45;&gt;Node6 -->
<g id="edge5" class="edge"><title>Node2&#45;&gt;Node6</title>
<path fill="none" stroke="midnightblue" d="M507.549,-336.399C539.516,-326.118 582.322,-312.351 612.385,-302.682"/>
<polygon fill="midnightblue" stroke="midnightblue" points="613.609,-305.965 622.058,-299.571 611.466,-299.301 613.609,-305.965"/>
</g>
<!-- Node7 -->
<g id="node7" class="node"><title>Node7</title>
<g id="a_node7"><a xlink:href="_event_8h.html" target="_top" xlink:title="uscxml/messages/Event.h">
<polygon fill="white" stroke="black" points="397.207,-224.5 397.207,-243.5 530.207,-243.5 530.207,-224.5 397.207,-224.5"/>
<text text-anchor="middle" x="463.707" y="-231.5" font-family="Helvetica,sans-Serif" font-size="10.00">uscxml/messages/Event.h</text>
</a>
</g>
</g>
<!-- Node2&#45;&gt;Node7 -->
<g id="edge29" class="edge"><title>Node2&#45;&gt;Node7</title>
<path fill="none" stroke="midnightblue" d="M463.707,-336.337C463.707,-315.622 463.707,-277.016 463.707,-253.899"/>
<polygon fill="midnightblue" stroke="midnightblue" points="467.207,-253.669 463.707,-243.669 460.207,-253.669 467.207,-253.669"/>
</g>
<!-- Node4 -->
<g id="node4" class="node"><title>Node4</title>
<polygon fill="white" stroke="#bfbfbf" points="135.707,-0.5 135.707,-19.5 207.707,-19.5 207.707,-0.5 135.707,-0.5"/>
<text text-anchor="middle" x="171.707" y="-7.5" font-family="Helvetica,sans-Serif" font-size="10.00">sys/socket.h</text>
</g>
<!-- Node3&#45;&gt;Node4 -->
<g id="edge3" class="edge"><title>Node3&#45;&gt;Node4</title>
<path fill="none" stroke="midnightblue" d="M203.432,-56.083C198.064,-48.4554 190.189,-37.2645 183.628,-27.9408"/>
<polygon fill="midnightblue" stroke="midnightblue" points="186.482,-25.9149 177.865,-19.7511 180.757,-29.9434 186.482,-25.9149"/>
</g>
<!-- Node5 -->
<g id="node5" class="node"><title>Node5</title>
<polygon fill="white" stroke="#bfbfbf" points="225.707,-0.5 225.707,-19.5 269.707,-19.5 269.707,-0.5 225.707,-0.5"/>
<text text-anchor="middle" x="247.707" y="-7.5" font-family="Helvetica,sans-Serif" font-size="10.00">cmath</text>
</g>
<!-- Node3&#45;&gt;Node5 -->
<g id="edge4" class="edge"><title>Node3&#45;&gt;Node5</title>
<path fill="none" stroke="midnightblue" d="M215.982,-56.083C221.349,-48.4554 229.224,-37.2645 235.785,-27.9408"/>
<polygon fill="midnightblue" stroke="midnightblue" points="238.656,-29.9434 241.548,-19.7511 232.931,-25.9149 238.656,-29.9434"/>
</g>
<!-- Node6&#45;&gt;Node3 -->
<g id="edge6" class="edge"><title>Node6&#45;&gt;Node3</title>
<path fill="none" stroke="midnightblue" d="M571.531,-282.807C518.601,-276.857 447.423,-265.456 387.707,-244 306.018,-214.649 273.312,-205.856 227.707,-132 218.959,-117.834 214.376,-99.352 212.03,-85.7188"/>
<polygon fill="midnightblue" stroke="midnightblue" points="215.461,-84.9926 210.543,-75.6083 208.535,-86.0112 215.461,-84.9926"/>
</g>
<!-- Node6&#45;&gt;Node7 -->
<g id="edge7" class="edge"><title>Node6&#45;&gt;Node7</title>
<path fill="none" stroke="midnightblue" d="M619.393,-280.444C587.864,-271.241 537.575,-256.562 502.721,-246.388"/>
<polygon fill="midnightblue" stroke="midnightblue" points="503.463,-242.959 492.883,-243.516 501.502,-249.678 503.463,-242.959"/>
</g>
<!-- Node9 -->
<g id="node9" class="node"><title>Node9</title>
<polygon fill="white" stroke="#bfbfbf" points="715.207,-112.5 715.207,-131.5 744.207,-131.5 744.207,-112.5 715.207,-112.5"/>
<text text-anchor="middle" x="729.707" y="-119.5" font-family="Helvetica,sans-Serif" font-size="10.00">list</text>
</g>
<!-- Node6&#45;&gt;Node9 -->
<g id="edge26" class="edge"><title>Node6&#45;&gt;Node9</title>
<path fill="none" stroke="midnightblue" d="M653.062,-280.075C665.922,-253.719 703.905,-175.878 721.089,-140.661"/>
<polygon fill="midnightblue" stroke="midnightblue" points="724.286,-142.09 725.526,-131.568 717.995,-139.02 724.286,-142.09"/>
</g>
<!-- Node11 -->
<g id="node11" class="node"><title>Node11</title>
<polygon fill="white" stroke="#bfbfbf" points="660.207,-56.5 660.207,-75.5 713.207,-75.5 713.207,-56.5 660.207,-56.5"/>
<text text-anchor="middle" x="686.707" y="-63.5" font-family="Helvetica,sans-Serif" font-size="10.00">memory</text>
</g>
<!-- Node6&#45;&gt;Node11 -->
<g id="edge28" class="edge"><title>Node6&#45;&gt;Node11</title>
<path fill="none" stroke="midnightblue" d="M726.029,-281.282C749.299,-274.919 772.423,-263.681 786.707,-244 821.165,-196.519 818.561,-161.265 786.707,-112 772.812,-90.511 745.94,-79.1821 723.549,-73.2682"/>
<polygon fill="midnightblue" stroke="midnightblue" points="724.177,-69.8202 713.639,-70.915 722.56,-76.6308 724.177,-69.8202"/>
</g>
<!-- Node14 -->
<g id="node14" class="node"><title>Node14</title>
<polygon fill="white" stroke="#bfbfbf" points="508.207,-56.5 508.207,-75.5 549.207,-75.5 549.207,-56.5 508.207,-56.5"/>
<text text-anchor="middle" x="528.707" y="-63.5" font-family="Helvetica,sans-Serif" font-size="10.00">string</text>
</g>
<!-- Node6&#45;&gt;Node14 -->
<g id="edge27" class="edge"><title>Node6&#45;&gt;Node14</title>
<path fill="none" stroke="midnightblue" d="M660.852,-280.48C697.357,-253.87 800.698,-170.591 752.707,-112 728.672,-82.6564 615.531,-72.0412 559.835,-68.5485"/>
<polygon fill="midnightblue" stroke="midnightblue" points="559.693,-65.0342 549.505,-67.9415 559.283,-72.0222 559.693,-65.0342"/>
</g>
<!-- Node8 -->
<g id="node8" class="node"><title>Node8</title>
<g id="a_node8"><a xlink:href="_data_8h.html" target="_top" xlink:title="uscxml/messages/Data.h">
<polygon fill="white" stroke="black" points="298.707,-168.5 298.707,-187.5 426.707,-187.5 426.707,-168.5 298.707,-168.5"/>
<text text-anchor="middle" x="362.707" y="-175.5" font-family="Helvetica,sans-Serif" font-size="10.00">uscxml/messages/Data.h</text>
</a>
</g>
</g>
<!-- Node7&#45;&gt;Node8 -->
<g id="edge8" class="edge"><title>Node7&#45;&gt;Node8</title>
<path fill="none" stroke="midnightblue" d="M447.479,-224.324C431.356,-215.703 406.407,-202.364 387.743,-192.386"/>
<polygon fill="midnightblue" stroke="midnightblue" points="389.363,-189.283 378.894,-187.655 386.062,-195.456 389.363,-189.283"/>
</g>
<!-- Node18 -->
<g id="node18" class="node"><title>Node18</title>
<g id="a_node18"><a xlink:href="_u_u_i_d_8h.html" target="_top" xlink:title="uscxml/util/UUID.h">
<polygon fill="white" stroke="black" points="414.207,-112.5 414.207,-131.5 513.207,-131.5 513.207,-112.5 414.207,-112.5"/>
<text text-anchor="middle" x="463.707" y="-119.5" font-family="Helvetica,sans-Serif" font-size="10.00">uscxml/util/UUID.h</text>
</a>
</g>
</g>
<!-- Node7&#45;&gt;Node18 -->
<g id="edge23" class="edge"><title>Node7&#45;&gt;Node18</title>
<path fill="none" stroke="midnightblue" d="M463.707,-224.368C463.707,-206.617 463.707,-165.666 463.707,-141.597"/>
<polygon fill="midnightblue" stroke="midnightblue" points="467.207,-141.591 463.707,-131.591 460.207,-141.591 467.207,-141.591"/>
</g>
<!-- Node8&#45;&gt;Node3 -->
<g id="edge13" class="edge"><title>Node8&#45;&gt;Node3</title>
<path fill="none" stroke="midnightblue" d="M323.041,-168.499C299.119,-161.78 269.217,-150.391 247.707,-132 232.996,-119.423 222.59,-99.6509 216.431,-85.2139"/>
<polygon fill="midnightblue" stroke="midnightblue" points="219.644,-83.8216 212.695,-75.8236 213.14,-86.4091 219.644,-83.8216"/>
</g>
<!-- Node8&#45;&gt;Node9 -->
<g id="edge9" class="edge"><title>Node8&#45;&gt;Node9</title>
<path fill="none" stroke="midnightblue" d="M426.807,-171.71C495.208,-165.313 606.469,-152.741 700.707,-132 702.187,-131.674 703.7,-131.308 705.221,-130.915"/>
<polygon fill="midnightblue" stroke="midnightblue" points="706.447,-134.204 715.082,-128.065 704.504,-127.479 706.447,-134.204"/>
</g>
<!-- Node10 -->
<g id="node10" class="node"><title>Node10</title>
<polygon fill="white" stroke="#bfbfbf" points="256.707,-112.5 256.707,-131.5 292.707,-131.5 292.707,-112.5 256.707,-112.5"/>
<text text-anchor="middle" x="274.707" y="-119.5" font-family="Helvetica,sans-Serif" font-size="10.00">map</text>
</g>
<!-- Node8&#45;&gt;Node10 -->
<g id="edge10" class="edge"><title>Node8&#45;&gt;Node10</title>
<path fill="none" stroke="midnightblue" d="M348.568,-168.324C334.84,-159.9 313.77,-146.971 297.642,-137.074"/>
<polygon fill="midnightblue" stroke="midnightblue" points="299.164,-133.902 288.81,-131.655 295.503,-139.868 299.164,-133.902"/>
</g>
<!-- Node8&#45;&gt;Node11 -->
<g id="edge11" class="edge"><title>Node8&#45;&gt;Node11</title>
<path fill="none" stroke="midnightblue" d="M426.812,-175.359C505.174,-172.049 631.697,-162.069 666.707,-132 679.982,-120.598 684.59,-100.61 686.116,-85.8002"/>
<polygon fill="midnightblue" stroke="midnightblue" points="689.616,-85.9195 686.775,-75.7125 682.63,-85.463 689.616,-85.9195"/>
</g>
<!-- Node12 -->
<g id="node12" class="node"><title>Node12</title>
<polygon fill="white" stroke="#bfbfbf" points="311.207,-112.5 311.207,-131.5 396.207,-131.5 396.207,-112.5 311.207,-112.5"/>
<text text-anchor="middle" x="353.707" y="-119.5" font-family="Helvetica,sans-Serif" font-size="10.00">uscxml/config.h</text>
</g>
<!-- Node8&#45;&gt;Node12 -->
<g id="edge12" class="edge"><title>Node8&#45;&gt;Node12</title>
<path fill="none" stroke="midnightblue" d="M361.22,-168.083C360.028,-160.927 358.313,-150.635 356.822,-141.691"/>
<polygon fill="midnightblue" stroke="midnightblue" points="360.262,-141.04 355.165,-131.751 353.357,-142.19 360.262,-141.04"/>
</g>
<!-- Node13 -->
<g id="node13" class="node"><title>Node13</title>
<g id="a_node13"><a xlink:href="_convenience_8h.html" target="_top" xlink:title="uscxml/util/Convenience.h">
<polygon fill="white" stroke="black" points="29.2067,-112.5 29.2067,-131.5 162.207,-131.5 162.207,-112.5 29.2067,-112.5"/>
<text text-anchor="middle" x="95.7067" y="-119.5" font-family="Helvetica,sans-Serif" font-size="10.00">uscxml/util/Convenience.h</text>
</a>
</g>
</g>
<!-- Node8&#45;&gt;Node13 -->
<g id="edge14" class="edge"><title>Node8&#45;&gt;Node13</title>
<path fill="none" stroke="midnightblue" d="M320.4,-168.444C273.627,-158.984 198.247,-143.738 147.857,-133.547"/>
<polygon fill="midnightblue" stroke="midnightblue" points="148.311,-130.068 137.816,-131.516 146.923,-136.929 148.311,-130.068"/>
</g>
<!-- Node17 -->
<g id="node17" class="node"><title>Node17</title>
<g id="a_node17"><a xlink:href="_blob_8h.html" target="_top" xlink:title="uscxml/messages/Blob.h">
<polygon fill="white" stroke="black" points="531.207,-112.5 531.207,-131.5 658.207,-131.5 658.207,-112.5 531.207,-112.5"/>
<text text-anchor="middle" x="594.707" y="-119.5" font-family="Helvetica,sans-Serif" font-size="10.00">uscxml/messages/Blob.h</text>
</a>
</g>
</g>
<!-- Node8&#45;&gt;Node17 -->
<g id="edge19" class="edge"><title>Node8&#45;&gt;Node17</title>
<path fill="none" stroke="midnightblue" d="M399.468,-168.444C439.77,-159.063 504.516,-143.993 548.291,-133.804"/>
<polygon fill="midnightblue" stroke="midnightblue" points="549.171,-137.192 558.118,-131.516 547.584,-130.375 549.171,-137.192"/>
</g>
<!-- Node13&#45;&gt;Node3 -->
<g id="edge15" class="edge"><title>Node13&#45;&gt;Node3</title>
<path fill="none" stroke="midnightblue" d="M113.77,-112.444C132.281,-103.675 161.287,-89.9355 182.562,-79.8579"/>
<polygon fill="midnightblue" stroke="midnightblue" points="184.188,-82.9604 191.728,-75.5164 181.192,-76.6343 184.188,-82.9604"/>
</g>
<!-- Node13&#45;&gt;Node14 -->
<g id="edge16" class="edge"><title>Node13&#45;&gt;Node14</title>
<path fill="none" stroke="midnightblue" d="M162.414,-112.681C257.44,-100.83 427.981,-79.5616 497.712,-70.8653"/>
<polygon fill="midnightblue" stroke="midnightblue" points="498.521,-74.2917 508.011,-69.5809 497.655,-67.3455 498.521,-74.2917"/>
</g>
<!-- Node15 -->
<g id="node15" class="node"><title>Node15</title>
<polygon fill="white" stroke="#bfbfbf" points="80.2067,-56.5 80.2067,-75.5 119.207,-75.5 119.207,-56.5 80.2067,-56.5"/>
<text text-anchor="middle" x="99.7067" y="-63.5" font-family="Helvetica,sans-Serif" font-size="10.00">limits</text>
</g>
<!-- Node13&#45;&gt;Node15 -->
<g id="edge17" class="edge"><title>Node13&#45;&gt;Node15</title>
<path fill="none" stroke="midnightblue" d="M96.3672,-112.083C96.8914,-105.006 97.6429,-94.8611 98.3003,-85.9865"/>
<polygon fill="midnightblue" stroke="midnightblue" points="101.81,-85.9823 99.0584,-75.7511 94.8292,-85.4652 101.81,-85.9823"/>
</g>
<!-- Node16 -->
<g id="node16" class="node"><title>Node16</title>
<polygon fill="white" stroke="#bfbfbf" points="9.70666,-56.5 9.70666,-75.5 61.7067,-75.5 61.7067,-56.5 9.70666,-56.5"/>
<text text-anchor="middle" x="35.7067" y="-63.5" font-family="Helvetica,sans-Serif" font-size="10.00">sstream</text>
</g>
<!-- Node13&#45;&gt;Node16 -->
<g id="edge18" class="edge"><title>Node13&#45;&gt;Node16</title>
<path fill="none" stroke="midnightblue" d="M86.0666,-112.324C77.1971,-104.341 63.8319,-92.3128 53.0988,-82.6529"/>
<polygon fill="midnightblue" stroke="midnightblue" points="55.2965,-79.922 45.5221,-75.8339 50.6137,-85.1251 55.2965,-79.922"/>
</g>
<!-- Node17&#45;&gt;Node3 -->
<g id="edge22" class="edge"><title>Node17&#45;&gt;Node3</title>
<path fill="none" stroke="midnightblue" d="M533.702,-112.444C461.354,-102.296 341.536,-85.4903 269.654,-75.4081"/>
<polygon fill="midnightblue" stroke="midnightblue" points="269.796,-71.894 259.407,-73.971 268.824,-78.8261 269.796,-71.894"/>
</g>
<!-- Node17&#45;&gt;Node11 -->
<g id="edge21" class="edge"><title>Node17&#45;&gt;Node11</title>
<path fill="none" stroke="midnightblue" d="M609.488,-112.324C623.974,-103.822 646.28,-90.7288 663.2,-80.7975"/>
<polygon fill="midnightblue" stroke="midnightblue" points="665.11,-83.735 671.962,-75.6545 661.566,-77.6981 665.11,-83.735"/>
</g>
<!-- Node17&#45;&gt;Node14 -->
<g id="edge20" class="edge"><title>Node17&#45;&gt;Node14</title>
<path fill="none" stroke="midnightblue" d="M584.103,-112.324C574.25,-104.263 559.356,-92.0765 547.492,-82.3695"/>
<polygon fill="midnightblue" stroke="midnightblue" points="549.46,-79.4575 539.504,-75.8339 545.027,-84.8752 549.46,-79.4575"/>
</g>
<!-- Node18&#45;&gt;Node3 -->
<g id="edge24" class="edge"><title>Node18&#45;&gt;Node3</title>
<path fill="none" stroke="midnightblue" d="M423.46,-112.444C379.057,-103.004 307.553,-87.802 259.618,-77.6111"/>
<polygon fill="midnightblue" stroke="midnightblue" points="260.275,-74.1725 249.765,-75.5164 258.819,-81.0195 260.275,-74.1725"/>
</g>
<!-- Node18&#45;&gt;Node14 -->
<g id="edge25" class="edge"><title>Node18&#45;&gt;Node14</title>
<path fill="none" stroke="midnightblue" d="M474.15,-112.324C483.853,-104.263 498.522,-92.0765 510.206,-82.3695"/>
<polygon fill="midnightblue" stroke="midnightblue" points="512.618,-84.9163 518.073,-75.8339 508.145,-79.532 512.618,-84.9163"/>
</g>
</g>
</svg>
        <g id="navigator" transform="translate(0 0)" fill="#404254">
                <rect fill="#f2f5e9" fill-opacity="0.5" stroke="#606060" stroke-width=".5" x="0" y="0" width="60" height="60"/>
                <use id="zoomplus" xlink:href="#zoomPlus" x="17" y="9" onmousedown="handleZoom(evt,'in')"/>
                <use id="zoomminus" xlink:href="#zoomMin" x="42" y="9" onmousedown="handleZoom(evt,'out')"/>
                <use id="reset" xlink:href="#resetDef" x="30" y="36" onmousedown="handleReset()"/>
                <g id="arrowUp" xlink:href="#dirArrow" transform="translate(30 24)" onmousedown="handlePan(0,-1)">
                  <use xlink:href="#rim" fill="#404040">
                        <set attributeName="fill" to="#808080" begin="arrowUp.mouseover" end="arrowUp.mouseout"/>
                  </use>
                  <path fill="none" stroke="white" stroke-width="1.5" d="M0,-3.0v7 M-2.5,-0.5L0,-3.0L2.5,-0.5"/>
                </g>
                <g id="arrowRight" xlink:href="#dirArrow" transform="rotate(90) translate(36 -43)" onmousedown="handlePan(1,0)">
                  <use xlink:href="#rim" fill="#404040">
                        <set attributeName="fill" to="#808080" begin="arrowRight.mouseover" end="arrowRight.mouseout"/>
                  </use>
                  <path fill="none" stroke="white" stroke-width="1.5" d="M0,-3.0v7 M-2.5,-0.5L0,-3.0L2.5,-0.5"/>
                </g>
                <g id="arrowDown" xlink:href="#dirArrow" transform="rotate(180) translate(-30 -48)" onmousedown="handlePan(0,1)">
                  <use xlink:href="#rim" fill="#404040">
                        <set attributeName="fill" to="#808080" begin="arrowDown.mouseover" end="arrowDown.mouseout"/>
                  </use>
                  <path fill="none" stroke="white" stroke-width="1.5" d="M0,-3.0v7 M-2.5,-0.5L0,-3.0L2.5,-0.5"/>
                </g>
                <g id="arrowLeft" xlink:href="#dirArrow" transform="rotate(270) translate(-36 17)" onmousedown="handlePan(-1,0)">
                  <use xlink:href="#rim" fill="#404040">
                        <set attributeName="fill" to="#808080" begin="arrowLeft.mouseover" end="arrowLeft.mouseout"/>
                  </use>
                  <path fill="none" stroke="white" stroke-width="1.5" d="M0,-3.0v7 M-2.5,-0.5L0,-3.0L2.5,-0.5"/>
                </g>
        </g>
        <svg viewBox="0 0 15 15" width="100%" height="30px" preserveAspectRatio="xMaxYMin meet">
         <g id="arrow_out" transform="scale(0.3 0.3)">
          <a xlink:href="_s_c_x_m_l_i_o_processor_8h__incl_org.svg" target="_base">
           <rect id="button" ry="5" rx="5" y="6" x="6" height="38" width="38"
                fill="#f2f5e9" fill-opacity="0.5" stroke="#606060" stroke-width="1.0"/>
           <path id="arrow"
             d="M 11.500037,31.436501 C 11.940474,20.09759 22.043105,11.32322 32.158766,21.979434 L 37.068811,17.246167 C 37.068811,17.246167 37.088388,32 37.088388,32 L 22.160133,31.978069 C 22.160133,31.978069 26.997745,27.140456 26.997745,27.140456 C 18.528582,18.264221 13.291696,25.230495 11.500037,31.436501 z"
             style="fill:#404040;"/>
          </a>
         </g>
        </svg>
</svg>
