<?xml version="1.0" encoding="UTF-8" standalone="no"?>
<!DOCTYPE svg PUBLIC "-//W3C//DTD SVG 1.1//EN"
 "http://www.w3.org/Graphics/SVG/1.1/DTD/svg11.dtd">
<!-- Generated by graphviz version 2.38.0 (20140413.2041)
 -->
<!-- Title: plugins/ioprocessor/scxml/SCXMLIOProcessor.cpp Pages: 1 -->
<svg width="3509pt" height="665pt"
 viewBox="0.00 0.00 3509.23 665.00" xmlns="http://www.w3.org/2000/svg" xmlns:xlink="http://www.w3.org/1999/xlink">
<g id="graph0" class="graph" transform="scale(1 1) rotate(0) translate(4 661)">
<title>plugins/ioprocessor/scxml/SCXMLIOProcessor.cpp</title>
<polygon fill="white" stroke="none" points="-4,4 -4,-661 3505.23,-661 3505.23,4 -4,4"/>
<!-- Node1 -->
<g id="node1" class="node"><title>Node1</title>
<polygon fill="#bfbfbf" stroke="black" points="2144.5,-626.5 2144.5,-656.5 2301.5,-656.5 2301.5,-626.5 2144.5,-626.5"/>
<text text-anchor="start" x="2152.5" y="-644.5" font-family="Helvetica,sans-Serif" font-size="10.00">plugins/ioprocessor</text>
<text text-anchor="middle" x="2223" y="-633.5" font-family="Helvetica,sans-Serif" font-size="10.00">/scxml/SCXMLIOProcessor.cpp</text>
</g>
<!-- Node2 -->
<g id="node2" class="node"><title>Node2</title>
<g id="a_node2"><a xlink:href="_s_c_x_m_l_i_o_processor_8h.html" target="_top" xlink:title="SCXMLIOProcessor.h">
<polygon fill="white" stroke="black" points="66.5,-503.5 66.5,-522.5 181.5,-522.5 181.5,-503.5 66.5,-503.5"/>
<text text-anchor="middle" x="124" y="-510.5" font-family="Helvetica,sans-Serif" font-size="10.00">SCXMLIOProcessor.h</text>
</a>
</g>
</g>
<!-- Node1&#45;&gt;Node2 -->
<g id="edge1" class="edge"><title>Node1&#45;&gt;Node2</title>
<path fill="none" stroke="midnightblue" d="M2144.09,-638.251C1872.62,-630.019 952.369,-598.007 196,-523 194.695,-522.871 193.378,-522.737 192.051,-522.599"/>
<polygon fill="midnightblue" stroke="midnightblue" points="192.059,-519.08 181.74,-521.48 191.304,-526.039 192.059,-519.08"/>
</g>
<!-- Node8 -->
<g id="node8" class="node"><title>Node8</title>
<g id="a_node8"><a xlink:href="_event_8h.html" target="_top" xlink:title="uscxml/messages/Event.h">
<polygon fill="white" stroke="black" points="1138.5,-241 1138.5,-260 1271.5,-260 1271.5,-241 1138.5,-241"/>
<text text-anchor="middle" x="1205" y="-248" font-family="Helvetica,sans-Serif" font-size="10.00">uscxml/messages/Event.h</text>
</a>
</g>
</g>
<!-- Node1&#45;&gt;Node8 -->
<g id="edge31" class="edge"><title>Node1&#45;&gt;Node8</title>
<path fill="none" stroke="midnightblue" d="M2144.26,-639.721C1892.27,-636.195 1122,-616.996 1122,-514 1122,-514 1122,-514 1122,-383.5 1122,-335.101 1162.48,-289.921 1186.9,-267.071"/>
<polygon fill="midnightblue" stroke="midnightblue" points="1189.42,-269.512 1194.49,-260.206 1184.73,-264.322 1189.42,-269.512"/>
</g>
<!-- Node20 -->
<g id="node20" class="node"><title>Node20</title>
<g id="a_node20"><a xlink:href="_interpreter_impl_8h.html" target="_top" xlink:title="uscxml/interpreter\l/InterpreterImpl.h">
<polygon fill="white" stroke="black" points="1954,-559.5 1954,-589.5 2050,-589.5 2050,-559.5 1954,-559.5"/>
<text text-anchor="start" x="1962" y="-577.5" font-family="Helvetica,sans-Serif" font-size="10.00">uscxml/interpreter</text>
<text text-anchor="middle" x="2002" y="-566.5" font-family="Helvetica,sans-Serif" font-size="10.00">/InterpreterImpl.h</text>
</a>
</g>
</g>
<!-- Node1&#45;&gt;Node20 -->
<g id="edge32" class="edge"><title>Node1&#45;&gt;Node20</title>
<path fill="none" stroke="midnightblue" d="M2175.32,-626.476C2141.45,-616.515 2095.79,-603.086 2059.84,-592.512"/>
<polygon fill="midnightblue" stroke="midnightblue" points="2060.56,-589.075 2049.98,-589.611 2058.58,-595.79 2060.56,-589.075"/>
</g>
<!-- Node34 -->
<g id="node34" class="node"><title>Node34</title>
<g id="a_node34"><a xlink:href="_string_8h.html" target="_top" xlink:title="string.h">
<polygon fill="white" stroke="black" points="2434.5,-442 2434.5,-461 2483.5,-461 2483.5,-442 2434.5,-442"/>
<text text-anchor="middle" x="2459" y="-449" font-family="Helvetica,sans-Serif" font-size="10.00">string.h</text>
</a>
</g>
</g>
<!-- Node1&#45;&gt;Node34 -->
<g id="edge148" class="edge"><title>Node1&#45;&gt;Node34</title>
<path fill="none" stroke="midnightblue" d="M2258.07,-626.423C2300.65,-607.918 2372.64,-571.928 2420,-523 2434.7,-507.812 2445.64,-485.987 2452.13,-470.654"/>
<polygon fill="midnightblue" stroke="midnightblue" points="2455.43,-471.822 2455.91,-461.238 2448.93,-469.216 2455.43,-471.822"/>
</g>
<!-- Node49 -->
<g id="node49" class="node"><title>Node49</title>
<polygon fill="white" stroke="#bfbfbf" points="2472,-565 2472,-584 2522,-584 2522,-565 2472,-565"/>
<text text-anchor="middle" x="2497" y="-572" font-family="Helvetica,sans-Serif" font-size="10.00">netdb.h</text>
</g>
<!-- Node1&#45;&gt;Node49 -->
<g id="edge149" class="edge"><title>Node1&#45;&gt;Node49</title>
<path fill="none" stroke="midnightblue" d="M2301.5,-626.572C2347.51,-617.681 2406.52,-605.016 2458,-590 2460.64,-589.23 2463.36,-588.369 2466.07,-587.46"/>
<polygon fill="midnightblue" stroke="midnightblue" points="2467.47,-590.676 2475.73,-584.04 2465.14,-584.077 2467.47,-590.676"/>
</g>
<!-- Node50 -->
<g id="node50" class="node"><title>Node50</title>
<polygon fill="white" stroke="#bfbfbf" points="2540,-565 2540,-584 2604,-584 2604,-565 2540,-565"/>
<text text-anchor="middle" x="2572" y="-572" font-family="Helvetica,sans-Serif" font-size="10.00">arpa/inet.h</text>
</g>
<!-- Node1&#45;&gt;Node50 -->
<g id="edge150" class="edge"><title>Node1&#45;&gt;Node50</title>
<path fill="none" stroke="midnightblue" d="M2301.64,-631.517C2364.36,-623.42 2454.11,-609.734 2531,-590 2534.05,-589.218 2537.19,-588.307 2540.31,-587.329"/>
<polygon fill="midnightblue" stroke="midnightblue" points="2541.72,-590.548 2550.09,-584.055 2539.5,-583.91 2541.72,-590.548"/>
</g>
<!-- Node3 -->
<g id="node3" class="node"><title>Node3</title>
<g id="a_node3"><a xlink:href="_i_o_processor_impl_8h.html" target="_top" xlink:title="uscxml/plugins/IOProcessor\lImpl.h">
<polygon fill="white" stroke="black" points="490,-369.5 490,-399.5 630,-399.5 630,-369.5 490,-369.5"/>
<text text-anchor="start" x="498" y="-387.5" font-family="Helvetica,sans-Serif" font-size="10.00">uscxml/plugins/IOProcessor</text>
<text text-anchor="middle" x="560" y="-376.5" font-family="Helvetica,sans-Serif" font-size="10.00">Impl.h</text>
</a>
</g>
</g>
<!-- Node2&#45;&gt;Node3 -->
<g id="edge2" class="edge"><title>Node2&#45;&gt;Node3</title>
<path fill="none" stroke="midnightblue" d="M153.625,-503.405C225.079,-482.673 407.93,-429.621 502.07,-402.308"/>
<polygon fill="midnightblue" stroke="midnightblue" points="503.093,-405.655 511.722,-399.507 501.143,-398.932 503.093,-405.655"/>
</g>
<!-- Node4 -->
<g id="node4" class="node"><title>Node4</title>
<g id="a_node4"><a xlink:href="_common_8h.html" target="_top" xlink:title="uscxml/Common.h">
<polygon fill="white" stroke="black" points="852.5,-56.5 852.5,-75.5 951.5,-75.5 951.5,-56.5 852.5,-56.5"/>
<text text-anchor="middle" x="902" y="-63.5" font-family="Helvetica,sans-Serif" font-size="10.00">uscxml/Common.h</text>
</a>
</g>
</g>
<!-- Node3&#45;&gt;Node4 -->
<g id="edge3" class="edge"><title>Node3&#45;&gt;Node4</title>
<path fill="none" stroke="midnightblue" d="M489.809,-378.14C427.671,-371.764 343.71,-358.588 323,-333 255.403,-249.482 330.297,-169.6 421,-112 455.828,-89.8826 721.277,-75.1802 842.254,-69.5604"/>
<polygon fill="midnightblue" stroke="midnightblue" points="842.626,-73.0472 852.454,-69.0922 842.305,-66.0545 842.626,-73.0472"/>
</g>
<!-- Node7 -->
<g id="node7" class="node"><title>Node7</title>
<g id="a_node7"><a xlink:href="_event_handler_8h.html" target="_top" xlink:title="uscxml/plugins/EventHandler.h">
<polygon fill="white" stroke="black" points="598,-308 598,-327 752,-327 752,-308 598,-308"/>
<text text-anchor="middle" x="675" y="-315" font-family="Helvetica,sans-Serif" font-size="10.00">uscxml/plugins/EventHandler.h</text>
</a>
</g>
</g>
<!-- Node3&#45;&gt;Node7 -->
<g id="edge6" class="edge"><title>Node3&#45;&gt;Node7</title>
<path fill="none" stroke="midnightblue" d="M584.953,-369.396C604.596,-358.294 631.793,-342.921 651.146,-331.983"/>
<polygon fill="midnightblue" stroke="midnightblue" points="652.966,-334.975 659.949,-327.007 649.521,-328.881 652.966,-334.975"/>
</g>
<!-- Node3&#45;&gt;Node8 -->
<g id="edge30" class="edge"><title>Node3&#45;&gt;Node8</title>
<path fill="none" stroke="midnightblue" d="M623.445,-369.427C698.816,-352.816 828.405,-324.597 940,-302 1011.8,-287.461 1094.79,-271.835 1148.5,-261.879"/>
<polygon fill="midnightblue" stroke="midnightblue" points="1149.31,-265.289 1158.5,-260.027 1148.03,-258.405 1149.31,-265.289"/>
</g>
<!-- Node5 -->
<g id="node5" class="node"><title>Node5</title>
<polygon fill="white" stroke="#bfbfbf" points="828,-0.5 828,-19.5 900,-19.5 900,-0.5 828,-0.5"/>
<text text-anchor="middle" x="864" y="-7.5" font-family="Helvetica,sans-Serif" font-size="10.00">sys/socket.h</text>
</g>
<!-- Node4&#45;&gt;Node5 -->
<g id="edge4" class="edge"><title>Node4&#45;&gt;Node5</title>
<path fill="none" stroke="midnightblue" d="M895.725,-56.083C890.358,-48.4554 882.482,-37.2645 875.921,-27.9408"/>
<polygon fill="midnightblue" stroke="midnightblue" points="878.775,-25.9149 870.158,-19.7511 873.051,-29.9434 878.775,-25.9149"/>
</g>
<!-- Node6 -->
<g id="node6" class="node"><title>Node6</title>
<polygon fill="white" stroke="#bfbfbf" points="918,-0.5 918,-19.5 962,-19.5 962,-0.5 918,-0.5"/>
<text text-anchor="middle" x="940" y="-7.5" font-family="Helvetica,sans-Serif" font-size="10.00">cmath</text>
</g>
<!-- Node4&#45;&gt;Node6 -->
<g id="edge5" class="edge"><title>Node4&#45;&gt;Node6</title>
<path fill="none" stroke="midnightblue" d="M908.275,-56.083C913.642,-48.4554 921.518,-37.2645 928.079,-27.9408"/>
<polygon fill="midnightblue" stroke="midnightblue" points="930.949,-29.9434 933.842,-19.7511 925.225,-25.9149 930.949,-29.9434"/>
</g>
<!-- Node7&#45;&gt;Node4 -->
<g id="edge7" class="edge"><title>Node7&#45;&gt;Node4</title>
<path fill="none" stroke="midnightblue" d="M671.273,-307.847C658.653,-277.053 620.968,-171.456 670,-112 691.407,-86.0424 780.61,-74.8747 841.954,-70.2005"/>
<polygon fill="midnightblue" stroke="midnightblue" points="842.58,-73.6645 852.302,-69.4529 842.076,-66.6827 842.58,-73.6645"/>
</g>
<!-- Node7&#45;&gt;Node8 -->
<g id="edge8" class="edge"><title>Node7&#45;&gt;Node8</title>
<path fill="none" stroke="midnightblue" d="M752.263,-309.354C841.884,-300.707 993.979,-284.929 1124,-266 1132.43,-264.772 1141.34,-263.329 1150.03,-261.838"/>
<polygon fill="midnightblue" stroke="midnightblue" points="1150.85,-265.247 1160.1,-260.075 1149.64,-258.352 1150.85,-265.247"/>
</g>
<!-- Node10 -->
<g id="node10" class="node"><title>Node10</title>
<polygon fill="white" stroke="#bfbfbf" points="1765.5,-112.5 1765.5,-131.5 1794.5,-131.5 1794.5,-112.5 1765.5,-112.5"/>
<text text-anchor="middle" x="1780" y="-119.5" font-family="Helvetica,sans-Serif" font-size="10.00">list</text>
</g>
<!-- Node7&#45;&gt;Node10 -->
<g id="edge27" class="edge"><title>Node7&#45;&gt;Node10</title>
<path fill="none" stroke="midnightblue" d="M742.188,-307.978C757.877,-306.002 774.523,-303.917 790,-302 921.52,-285.711 962.58,-314.273 1086,-266 1107.94,-257.418 1106.97,-243.344 1129,-235 1279.79,-177.895 1337.09,-250.146 1490,-199 1515.16,-190.586 1516.14,-177.246 1541,-168 1628.88,-135.318 1660.39,-155.709 1755.69,-131.543"/>
<polygon fill="midnightblue" stroke="midnightblue" points="1756.65,-134.91 1765.42,-128.977 1754.86,-128.141 1756.65,-134.91"/>
</g>
<!-- Node12 -->
<g id="node12" class="node"><title>Node12</title>
<polygon fill="white" stroke="#bfbfbf" points="353.5,-56.5 353.5,-75.5 406.5,-75.5 406.5,-56.5 353.5,-56.5"/>
<text text-anchor="middle" x="380" y="-63.5" font-family="Helvetica,sans-Serif" font-size="10.00">memory</text>
</g>
<!-- Node7&#45;&gt;Node12 -->
<g id="edge29" class="edge"><title>Node7&#45;&gt;Node12</title>
<path fill="none" stroke="midnightblue" d="M640.455,-307.971C573.191,-289.281 425.989,-237.687 366,-132 357.655,-117.297 363.44,-98.144 369.919,-84.444"/>
<polygon fill="midnightblue" stroke="midnightblue" points="373.026,-86.0558 374.567,-75.5737 366.825,-82.8066 373.026,-86.0558"/>
</g>
<!-- Node15 -->
<g id="node15" class="node"><title>Node15</title>
<polygon fill="white" stroke="#bfbfbf" points="2024.5,-56.5 2024.5,-75.5 2065.5,-75.5 2065.5,-56.5 2024.5,-56.5"/>
<text text-anchor="middle" x="2045" y="-63.5" font-family="Helvetica,sans-Serif" font-size="10.00">string</text>
</g>
<!-- Node7&#45;&gt;Node15 -->
<g id="edge28" class="edge"><title>Node7&#45;&gt;Node15</title>
<path fill="none" stroke="midnightblue" d="M742.772,-307.978C849.654,-294.465 1046.05,-269.303 1053,-266 1071.18,-257.365 1067.74,-243.465 1086,-235 1213.44,-175.912 1263.28,-231.247 1400,-199 1455.01,-186.025 1583.96,-124.871 1639,-112 1776.65,-79.8069 1946.1,-70.4648 2014.36,-67.9064"/>
<polygon fill="midnightblue" stroke="midnightblue" points="2014.56,-71.4017 2024.43,-67.5515 2014.31,-64.406 2014.56,-71.4017"/>
</g>
<!-- Node9 -->
<g id="node9" class="node"><title>Node9</title>
<g id="a_node9"><a xlink:href="_data_8h.html" target="_top" xlink:title="uscxml/messages/Data.h">
<polygon fill="white" stroke="black" points="1092,-174 1092,-193 1220,-193 1220,-174 1092,-174"/>
<text text-anchor="middle" x="1156" y="-181" font-family="Helvetica,sans-Serif" font-size="10.00">uscxml/messages/Data.h</text>
</a>
</g>
</g>
<!-- Node8&#45;&gt;Node9 -->
<g id="edge9" class="edge"><title>Node8&#45;&gt;Node9</title>
<path fill="none" stroke="midnightblue" d="M1198.39,-240.734C1190.82,-230.695 1178.25,-214.014 1168.76,-201.421"/>
<polygon fill="midnightblue" stroke="midnightblue" points="1171.32,-199.006 1162.5,-193.127 1165.73,-203.219 1171.32,-199.006"/>
</g>
<!-- Node19 -->
<g id="node19" class="node"><title>Node19</title>
<g id="a_node19"><a xlink:href="_u_u_i_d_8h.html" target="_top" xlink:title="uscxml/util/UUID.h">
<polygon fill="white" stroke="black" points="1648.5,-112.5 1648.5,-131.5 1747.5,-131.5 1747.5,-112.5 1648.5,-112.5"/>
<text text-anchor="middle" x="1698" y="-119.5" font-family="Helvetica,sans-Serif" font-size="10.00">uscxml/util/UUID.h</text>
</a>
</g>
</g>
<!-- Node8&#45;&gt;Node19 -->
<g id="edge24" class="edge"><title>Node8&#45;&gt;Node19</title>
<path fill="none" stroke="midnightblue" d="M1271.66,-241.054C1329.88,-232.881 1416.36,-218.813 1490,-199 1494.42,-197.81 1607.51,-156.281 1665.04,-135.127"/>
<polygon fill="midnightblue" stroke="midnightblue" points="1666.59,-138.286 1674.77,-131.55 1664.17,-131.717 1666.59,-138.286"/>
</g>
<!-- Node9&#45;&gt;Node4 -->
<g id="edge14" class="edge"><title>Node9&#45;&gt;Node4</title>
<path fill="none" stroke="midnightblue" d="M1134.41,-173.941C1110.08,-164.188 1069.43,-147.58 1035,-132 997.256,-114.918 954.309,-93.5754 927.678,-80.1111"/>
<polygon fill="midnightblue" stroke="midnightblue" points="929.147,-76.9315 918.645,-75.5295 925.981,-83.1744 929.147,-76.9315"/>
</g>
<!-- Node9&#45;&gt;Node10 -->
<g id="edge10" class="edge"><title>Node9&#45;&gt;Node10</title>
<path fill="none" stroke="midnightblue" d="M1194.11,-173.973C1205.3,-171.729 1217.6,-169.515 1229,-168 1458.43,-137.506 1524.69,-180.49 1755.43,-131.386"/>
<polygon fill="midnightblue" stroke="midnightblue" points="1756.45,-134.748 1765.48,-129.213 1754.97,-127.906 1756.45,-134.748"/>
</g>
<!-- Node11 -->
<g id="node11" class="node"><title>Node11</title>
<polygon fill="white" stroke="#bfbfbf" points="2593,-112.5 2593,-131.5 2629,-131.5 2629,-112.5 2593,-112.5"/>
<text text-anchor="middle" x="2611" y="-119.5" font-family="Helvetica,sans-Serif" font-size="10.00">map</text>
</g>
<!-- Node9&#45;&gt;Node11 -->
<g id="edge11" class="edge"><title>Node9&#45;&gt;Node11</title>
<path fill="none" stroke="midnightblue" d="M1192.95,-173.942C1204.44,-171.61 1217.19,-169.356 1229,-168 1504.8,-136.334 2410.33,-125.155 2582.57,-123.292"/>
<polygon fill="midnightblue" stroke="midnightblue" points="2582.66,-126.791 2592.62,-123.185 2582.59,-119.791 2582.66,-126.791"/>
</g>
<!-- Node9&#45;&gt;Node12 -->
<g id="edge12" class="edge"><title>Node9&#45;&gt;Node12</title>
<path fill="none" stroke="midnightblue" d="M1123.35,-173.949C1053.33,-155.629 894.056,-114.077 882,-112 709.55,-82.2878 500.184,-71.5358 416.817,-68.253"/>
<polygon fill="midnightblue" stroke="midnightblue" points="416.72,-64.7469 406.594,-67.8634 416.454,-71.7418 416.72,-64.7469"/>
</g>
<!-- Node13 -->
<g id="node13" class="node"><title>Node13</title>
<polygon fill="white" stroke="#bfbfbf" points="788.5,-112.5 788.5,-131.5 873.5,-131.5 873.5,-112.5 788.5,-112.5"/>
<text text-anchor="middle" x="831" y="-119.5" font-family="Helvetica,sans-Serif" font-size="10.00">uscxml/config.h</text>
</g>
<!-- Node9&#45;&gt;Node13 -->
<g id="edge13" class="edge"><title>Node9&#45;&gt;Node13</title>
<path fill="none" stroke="midnightblue" d="M1110.22,-173.962C1099.64,-171.996 1088.43,-169.92 1078,-168 1011.02,-155.674 933.801,-141.632 883.783,-132.56"/>
<polygon fill="midnightblue" stroke="midnightblue" points="884.309,-129.098 873.845,-130.758 883.06,-135.986 884.309,-129.098"/>
</g>
<!-- Node14 -->
<g id="node14" class="node"><title>Node14</title>
<g id="a_node14"><a xlink:href="_convenience_8h.html" target="_top" xlink:title="uscxml/util/Convenience.h">
<polygon fill="white" stroke="black" points="1189.5,-112.5 1189.5,-131.5 1322.5,-131.5 1322.5,-112.5 1189.5,-112.5"/>
<text text-anchor="middle" x="1256" y="-119.5" font-family="Helvetica,sans-Serif" font-size="10.00">uscxml/util/Convenience.h</text>
</a>
</g>
</g>
<!-- Node9&#45;&gt;Node14 -->
<g id="edge15" class="edge"><title>Node9&#45;&gt;Node14</title>
<path fill="none" stroke="midnightblue" d="M1170.33,-173.975C1186.66,-164.255 1213.6,-148.227 1232.91,-136.737"/>
<polygon fill="midnightblue" stroke="midnightblue" points="1234.89,-139.63 1241.7,-131.509 1231.32,-133.615 1234.89,-139.63"/>
</g>
<!-- Node18 -->
<g id="node18" class="node"><title>Node18</title>
<g id="a_node18"><a xlink:href="_blob_8h.html" target="_top" xlink:title="uscxml/messages/Blob.h">
<polygon fill="white" stroke="black" points="1044.5,-112.5 1044.5,-131.5 1171.5,-131.5 1171.5,-112.5 1044.5,-112.5"/>
<text text-anchor="middle" x="1108" y="-119.5" font-family="Helvetica,sans-Serif" font-size="10.00">uscxml/messages/Blob.h</text>
</a>
</g>
</g>
<!-- Node9&#45;&gt;Node18 -->
<g id="edge20" class="edge"><title>Node9&#45;&gt;Node18</title>
<path fill="none" stroke="midnightblue" d="M1149.12,-173.975C1141.85,-164.962 1130.2,-150.525 1121.16,-139.312"/>
<polygon fill="midnightblue" stroke="midnightblue" points="1123.87,-137.095 1114.86,-131.509 1118.42,-141.49 1123.87,-137.095"/>
</g>
<!-- Node14&#45;&gt;Node4 -->
<g id="edge16" class="edge"><title>Node14&#45;&gt;Node4</title>
<path fill="none" stroke="midnightblue" d="M1199.91,-112.444C1134.82,-102.515 1027.95,-86.212 961.456,-76.0696"/>
<polygon fill="midnightblue" stroke="midnightblue" points="961.96,-72.6061 951.547,-74.558 960.905,-79.526 961.96,-72.6061"/>
</g>
<!-- Node14&#45;&gt;Node15 -->
<g id="edge17" class="edge"><title>Node14&#45;&gt;Node15</title>
<path fill="none" stroke="midnightblue" d="M1322.72,-113.334C1327.55,-112.857 1332.35,-112.406 1337,-112 1598.66,-89.1606 1915.69,-73.1458 2014.26,-68.4345"/>
<polygon fill="midnightblue" stroke="midnightblue" points="2014.59,-71.923 2024.41,-67.9526 2014.26,-64.9309 2014.59,-71.923"/>
</g>
<!-- Node16 -->
<g id="node16" class="node"><title>Node16</title>
<polygon fill="white" stroke="#bfbfbf" points="609.5,-56.5 609.5,-75.5 648.5,-75.5 648.5,-56.5 609.5,-56.5"/>
<text text-anchor="middle" x="629" y="-63.5" font-family="Helvetica,sans-Serif" font-size="10.00">limits</text>
</g>
<!-- Node14&#45;&gt;Node16 -->
<g id="edge18" class="edge"><title>Node14&#45;&gt;Node16</title>
<path fill="none" stroke="midnightblue" d="M1189.29,-112.961C1186.15,-112.626 1183.04,-112.304 1180,-112 981.209,-92.1185 741.407,-74.8173 658.714,-69.0447"/>
<polygon fill="midnightblue" stroke="midnightblue" points="658.763,-65.5397 648.544,-68.3376 658.277,-72.5228 658.763,-65.5397"/>
</g>
<!-- Node17 -->
<g id="node17" class="node"><title>Node17</title>
<polygon fill="white" stroke="#bfbfbf" points="1230,-56.5 1230,-75.5 1282,-75.5 1282,-56.5 1230,-56.5"/>
<text text-anchor="middle" x="1256" y="-63.5" font-family="Helvetica,sans-Serif" font-size="10.00">sstream</text>
</g>
<!-- Node14&#45;&gt;Node17 -->
<g id="edge19" class="edge"><title>Node14&#45;&gt;Node17</title>
<path fill="none" stroke="midnightblue" d="M1256,-112.083C1256,-105.006 1256,-94.8611 1256,-85.9865"/>
<polygon fill="midnightblue" stroke="midnightblue" points="1259.5,-85.751 1256,-75.7511 1252.5,-85.7511 1259.5,-85.751"/>
</g>
<!-- Node18&#45;&gt;Node4 -->
<g id="edge23" class="edge"><title>Node18&#45;&gt;Node4</title>
<path fill="none" stroke="midnightblue" d="M1075.36,-112.444C1039.95,-103.162 983.291,-88.3093 944.447,-78.127"/>
<polygon fill="midnightblue" stroke="midnightblue" points="945.049,-74.6666 934.489,-75.5164 943.274,-81.4378 945.049,-74.6666"/>
</g>
<!-- Node18&#45;&gt;Node12 -->
<g id="edge22" class="edge"><title>Node18&#45;&gt;Node12</title>
<path fill="none" stroke="midnightblue" d="M1044.49,-116.026C1027.44,-114.704 1009.02,-113.286 992,-112 773.863,-95.5181 511.925,-76.5252 416.791,-69.6532"/>
<polygon fill="midnightblue" stroke="midnightblue" points="416.773,-66.1429 406.547,-68.9135 416.269,-73.1247 416.773,-66.1429"/>
</g>
<!-- Node18&#45;&gt;Node15 -->
<g id="edge21" class="edge"><title>Node18&#45;&gt;Node15</title>
<path fill="none" stroke="midnightblue" d="M1171.58,-112.8C1174.42,-112.513 1177.24,-112.244 1180,-112 1505.45,-83.2322 1901.53,-70.8819 2013.94,-67.8031"/>
<polygon fill="midnightblue" stroke="midnightblue" points="2014.31,-71.2945 2024.21,-67.5261 2014.12,-64.297 2014.31,-71.2945"/>
</g>
<!-- Node19&#45;&gt;Node4 -->
<g id="edge25" class="edge"><title>Node19&#45;&gt;Node4</title>
<path fill="none" stroke="midnightblue" d="M1648.43,-113.639C1643.56,-113.033 1638.69,-112.473 1634,-112 1385.1,-86.8879 1087.08,-73.8156 961.95,-69.0942"/>
<polygon fill="midnightblue" stroke="midnightblue" points="961.936,-65.5913 951.812,-68.7158 961.674,-72.5865 961.936,-65.5913"/>
</g>
<!-- Node19&#45;&gt;Node15 -->
<g id="edge26" class="edge"><title>Node19&#45;&gt;Node15</title>
<path fill="none" stroke="midnightblue" d="M1747.72,-113.263C1820.55,-101.928 1954.12,-81.1433 2014.24,-71.7871"/>
<polygon fill="midnightblue" stroke="midnightblue" points="2014.9,-75.2261 2024.24,-70.23 2013.83,-68.3094 2014.9,-75.2261"/>
</g>
<!-- Node20&#45;&gt;Node4 -->
<g id="edge38" class="edge"><title>Node20&#45;&gt;Node4</title>
<path fill="none" stroke="midnightblue" d="M1953.87,-573.17C1657.44,-571.025 91.1443,-558.042 57,-523 -20.9189,-443.032 246.528,-162.712 346,-112 389.358,-89.8959 707.428,-74.7596 842.066,-69.2771"/>
<polygon fill="midnightblue" stroke="midnightblue" points="842.356,-72.7683 852.207,-68.8683 842.074,-65.774 842.356,-72.7683"/>
</g>
<!-- Node20&#45;&gt;Node10 -->
<g id="edge35" class="edge"><title>Node20&#45;&gt;Node10</title>
<path fill="none" stroke="midnightblue" d="M1999.56,-559.265C1991.4,-515.61 1961.38,-381.762 1888,-302 1864.58,-276.544 1841.9,-291.924 1819,-266 1787.57,-230.415 1781.18,-171.842 1780.07,-141.903"/>
<polygon fill="midnightblue" stroke="midnightblue" points="1783.57,-141.54 1779.86,-131.614 1776.57,-141.684 1783.57,-141.54"/>
</g>
<!-- Node20&#45;&gt;Node11 -->
<g id="edge36" class="edge"><title>Node20&#45;&gt;Node11</title>
<path fill="none" stroke="midnightblue" d="M2050.29,-571.559C2284.84,-561.82 3294,-516.214 3294,-452.5 3294,-452.5 3294,-452.5 3294,-316.5 3294,-272.298 3273.44,-260.026 3237,-235 3137.03,-166.332 2747.58,-133.036 2639.15,-124.975"/>
<polygon fill="midnightblue" stroke="midnightblue" points="2639.23,-121.471 2629,-124.233 2638.72,-128.452 2639.23,-121.471"/>
</g>
<!-- Node20&#45;&gt;Node12 -->
<g id="edge33" class="edge"><title>Node20&#45;&gt;Node12</title>
<path fill="none" stroke="midnightblue" d="M1953.92,-573.568C1661.07,-573.822 127.005,-572.764 42,-523 10.5248,-504.574 0,-488.972 0,-452.5 0,-452.5 0,-452.5 0,-182.5 0,-111.221 247.852,-79.7399 343.218,-70.2652"/>
<polygon fill="midnightblue" stroke="midnightblue" points="343.663,-73.7386 353.279,-69.2915 342.988,-66.7712 343.663,-73.7386"/>
</g>
<!-- Node20&#45;&gt;Node15 -->
<g id="edge37" class="edge"><title>Node20&#45;&gt;Node15</title>
<path fill="none" stroke="midnightblue" d="M2050,-571.975C2223.67,-566.319 2818.97,-545.698 3008,-523 3170.74,-503.459 3370,-616.412 3370,-452.5 3370,-452.5 3370,-452.5 3370,-182.5 3370,-132.659 3774.1,-207.124 3127,-112 2916.06,-80.9915 2229.59,-69.6059 2075.77,-67.4124"/>
<polygon fill="midnightblue" stroke="midnightblue" points="2075.68,-63.9108 2065.63,-67.2702 2075.58,-70.9101 2075.68,-63.9108"/>
</g>
<!-- Node21 -->
<g id="node21" class="node"><title>Node21</title>
<polygon fill="white" stroke="#bfbfbf" points="2387,-241 2387,-260 2431,-260 2431,-241 2387,-241"/>
<text text-anchor="middle" x="2409" y="-248" font-family="Helvetica,sans-Serif" font-size="10.00">mutex</text>
</g>
<!-- Node20&#45;&gt;Node21 -->
<g id="edge34" class="edge"><title>Node20&#45;&gt;Node21</title>
<path fill="none" stroke="midnightblue" d="M2050.21,-564.12C2081.77,-556.46 2122.95,-543.488 2155,-523 2268.46,-450.474 2365.69,-315.843 2397.78,-268.5"/>
<polygon fill="midnightblue" stroke="midnightblue" points="2400.81,-270.263 2403.47,-260.007 2395,-266.366 2400.81,-270.263"/>
</g>
<!-- Node22 -->
<g id="node22" class="node"><title>Node22</title>
<g id="a_node22"><a xlink:href="_u_r_l_8h.html" target="_top" xlink:title="uscxml/util/URL.h">
<polygon fill="white" stroke="black" points="2545,-308 2545,-327 2639,-327 2639,-308 2545,-308"/>
<text text-anchor="middle" x="2592" y="-315" font-family="Helvetica,sans-Serif" font-size="10.00">uscxml/util/URL.h</text>
</a>
</g>
</g>
<!-- Node20&#45;&gt;Node22 -->
<g id="edge39" class="edge"><title>Node20&#45;&gt;Node22</title>
<path fill="none" stroke="midnightblue" d="M2050.16,-572.541C2133.71,-569.902 2300.73,-560.015 2344,-523 2398.48,-476.398 2339.94,-418.286 2392,-369 2412.42,-349.67 2483.04,-335.053 2534.59,-326.64"/>
<polygon fill="midnightblue" stroke="midnightblue" points="2535.3,-330.071 2544.63,-325.041 2534.2,-323.158 2535.3,-330.071"/>
</g>
<!-- Node28 -->
<g id="node28" class="node"><title>Node28</title>
<g id="a_node28"><a xlink:href="_factory_8h.html" target="_top" xlink:title="uscxml/plugins/Factory.h">
<polygon fill="white" stroke="black" points="777.5,-503.5 777.5,-522.5 904.5,-522.5 904.5,-503.5 777.5,-503.5"/>
<text text-anchor="middle" x="841" y="-510.5" font-family="Helvetica,sans-Serif" font-size="10.00">uscxml/plugins/Factory.h</text>
</a>
</g>
</g>
<!-- Node20&#45;&gt;Node28 -->
<g id="edge51" class="edge"><title>Node20&#45;&gt;Node28</title>
<path fill="none" stroke="midnightblue" d="M1953.74,-571.4C1807.07,-564.958 1353.61,-544.598 978,-523 957.541,-521.824 935.372,-520.422 914.949,-519.08"/>
<polygon fill="midnightblue" stroke="midnightblue" points="914.973,-515.574 904.764,-518.406 914.511,-522.559 914.973,-515.574"/>
</g>
<!-- Node32 -->
<g id="node32" class="node"><title>Node32</title>
<polygon fill="white" stroke="#bfbfbf" points="1480.5,-241 1480.5,-260 1599.5,-260 1599.5,-241 1480.5,-241"/>
<text text-anchor="middle" x="1540" y="-248" font-family="Helvetica,sans-Serif" font-size="10.00">xercesc/dom/DOM.hpp</text>
</g>
<!-- Node20&#45;&gt;Node32 -->
<g id="edge147" class="edge"><title>Node20&#45;&gt;Node32</title>
<path fill="none" stroke="midnightblue" d="M1953.89,-567.323C1857.1,-553.548 1648,-516.394 1648,-452.5 1648,-452.5 1648,-452.5 1648,-383.5 1648,-330.41 1595.02,-286.935 1563.27,-265.65"/>
<polygon fill="midnightblue" stroke="midnightblue" points="1564.86,-262.507 1554.57,-260.007 1561.05,-268.382 1564.86,-262.507"/>
</g>
<!-- Node33 -->
<g id="node33" class="node"><title>Node33</title>
<g id="a_node33"><a xlink:href="_data_model_impl_8h.html" target="_top" xlink:title="uscxml/plugins/DataModel\lImpl.h">
<polygon fill="white" stroke="black" points="833.5,-436.5 833.5,-466.5 966.5,-466.5 966.5,-436.5 833.5,-436.5"/>
<text text-anchor="start" x="841.5" y="-454.5" font-family="Helvetica,sans-Serif" font-size="10.00">uscxml/plugins/DataModel</text>
<text text-anchor="middle" x="900" y="-443.5" font-family="Helvetica,sans-Serif" font-size="10.00">Impl.h</text>
</a>
</g>
</g>
<!-- Node20&#45;&gt;Node33 -->
<g id="edge86" class="edge"><title>Node20&#45;&gt;Node33</title>
<path fill="none" stroke="midnightblue" d="M1953.94,-568.223C1781.02,-549.236 1189.55,-484.292 976.913,-460.945"/>
<polygon fill="midnightblue" stroke="midnightblue" points="977.097,-457.444 966.775,-459.832 976.333,-464.403 977.097,-457.444"/>
</g>
<!-- Node35 -->
<g id="node35" class="node"><title>Node35</title>
<g id="a_node35"><a xlink:href="_micro_step_impl_8h.html" target="_top" xlink:title="uscxml/interpreter\l/MicroStepImpl.h">
<polygon fill="white" stroke="black" points="1435,-436.5 1435,-466.5 1531,-466.5 1531,-436.5 1435,-436.5"/>
<text text-anchor="start" x="1443" y="-454.5" font-family="Helvetica,sans-Serif" font-size="10.00">uscxml/interpreter</text>
<text text-anchor="middle" x="1483" y="-443.5" font-family="Helvetica,sans-Serif" font-size="10.00">/MicroStepImpl.h</text>
</a>
</g>
</g>
<!-- Node20&#45;&gt;Node35 -->
<g id="edge87" class="edge"><title>Node20&#45;&gt;Node35</title>
<path fill="none" stroke="midnightblue" d="M1953.99,-571.5C1882.8,-567.514 1745.65,-555.905 1634,-523 1591.68,-510.528 1546.2,-487.898 1516.34,-471.638"/>
<polygon fill="midnightblue" stroke="midnightblue" points="1517.66,-468.371 1507.22,-466.604 1514.28,-474.5 1517.66,-468.371"/>
</g>
<!-- Node41 -->
<g id="node41" class="node"><title>Node41</title>
<g id="a_node41"><a xlink:href="_content_executor_impl_8h.html" target="_top" xlink:title="uscxml/interpreter\l/ContentExecutorImpl.h">
<polygon fill="white" stroke="black" points="1700.5,-369.5 1700.5,-399.5 1821.5,-399.5 1821.5,-369.5 1700.5,-369.5"/>
<text text-anchor="start" x="1708.5" y="-387.5" font-family="Helvetica,sans-Serif" font-size="10.00">uscxml/interpreter</text>
<text text-anchor="middle" x="1761" y="-376.5" font-family="Helvetica,sans-Serif" font-size="10.00">/ContentExecutorImpl.h</text>
</a>
</g>
</g>
<!-- Node20&#45;&gt;Node41 -->
<g id="edge116" class="edge"><title>Node20&#45;&gt;Node41</title>
<path fill="none" stroke="midnightblue" d="M1983.89,-559.369C1941.56,-526.353 1836.06,-444.054 1786.93,-405.73"/>
<polygon fill="midnightblue" stroke="midnightblue" points="1789.03,-402.929 1779,-399.538 1784.73,-408.448 1789.03,-402.929"/>
</g>
<!-- Node42 -->
<g id="node42" class="node"><title>Node42</title>
<g id="a_node42"><a xlink:href="_d_o_m_8h.html" target="_top" xlink:title="uscxml/util/DOM.h">
<polygon fill="white" stroke="black" points="1954,-308 1954,-327 2052,-327 2052,-308 1954,-308"/>
<text text-anchor="middle" x="2003" y="-315" font-family="Helvetica,sans-Serif" font-size="10.00">uscxml/util/DOM.h</text>
</a>
</g>
</g>
<!-- Node20&#45;&gt;Node42 -->
<g id="edge146" class="edge"><title>Node20&#45;&gt;Node42</title>
<path fill="none" stroke="midnightblue" d="M2050.03,-568.776C2079.85,-563.08 2115.99,-550.546 2135,-523 2173.87,-466.664 2173.8,-425.385 2135,-369 2118.52,-345.057 2089.03,-332.459 2062.1,-325.834"/>
<polygon fill="midnightblue" stroke="midnightblue" points="2062.85,-322.414 2052.32,-323.653 2061.32,-329.246 2062.85,-322.414"/>
</g>
<!-- Node46 -->
<g id="node46" class="node"><title>Node46</title>
<g id="a_node46"><a xlink:href="_event_queue_8h.html" target="_top" xlink:title="uscxml/interpreter\l/EventQueue.h">
<polygon fill="white" stroke="black" points="332,-302.5 332,-332.5 428,-332.5 428,-302.5 332,-302.5"/>
<text text-anchor="start" x="340" y="-320.5" font-family="Helvetica,sans-Serif" font-size="10.00">uscxml/interpreter</text>
<text text-anchor="middle" x="380" y="-309.5" font-family="Helvetica,sans-Serif" font-size="10.00">/EventQueue.h</text>
</a>
</g>
</g>
<!-- Node20&#45;&gt;Node46 -->
<g id="edge133" class="edge"><title>Node20&#45;&gt;Node46</title>
<path fill="none" stroke="midnightblue" d="M1953.93,-573.505C1788.59,-573.101 1228.11,-568.252 768,-523 607.727,-507.237 526.364,-578.334 410,-467 376.363,-434.817 374.898,-376.152 377.197,-343.007"/>
<polygon fill="midnightblue" stroke="midnightblue" points="380.703,-343.084 378.08,-332.819 373.73,-342.48 380.703,-343.084"/>
</g>
<!-- Node47 -->
<g id="node47" class="node"><title>Node47</title>
<g id="a_node47"><a xlink:href="_event_queue_impl_8h.html" target="_top" xlink:title="uscxml/interpreter\l/EventQueueImpl.h">
<polygon fill="white" stroke="black" points="2952,-302.5 2952,-332.5 3054,-332.5 3054,-302.5 2952,-302.5"/>
<text text-anchor="start" x="2960" y="-320.5" font-family="Helvetica,sans-Serif" font-size="10.00">uscxml/interpreter</text>
<text text-anchor="middle" x="3003" y="-309.5" font-family="Helvetica,sans-Serif" font-size="10.00">/EventQueueImpl.h</text>
</a>
</g>
</g>
<!-- Node20&#45;&gt;Node47 -->
<g id="edge136" class="edge"><title>Node20&#45;&gt;Node47</title>
<path fill="none" stroke="midnightblue" d="M2050.29,-571.68C2137.07,-567.626 2315.18,-555.501 2367,-523 2406.37,-498.309 2386.43,-461.92 2425,-436 2509.41,-379.28 2810.77,-339.843 2941.63,-325.014"/>
<polygon fill="midnightblue" stroke="midnightblue" points="2942.33,-328.458 2951.87,-323.864 2941.55,-321.501 2942.33,-328.458"/>
</g>
<!-- Node22&#45;&gt;Node4 -->
<g id="edge40" class="edge"><title>Node22&#45;&gt;Node4</title>
<path fill="none" stroke="midnightblue" d="M2585.31,-307.598C2572.46,-291.063 2542.67,-255.439 2510,-235 2433.38,-187.065 2406.11,-188.144 2318,-168 2053.44,-107.514 1196.16,-76.3507 961.727,-68.8222"/>
<polygon fill="midnightblue" stroke="midnightblue" points="961.796,-65.3227 951.689,-68.5021 961.572,-72.3191 961.796,-65.3227"/>
</g>
<!-- Node22&#45;&gt;Node8 -->
<g id="edge41" class="edge"><title>Node22&#45;&gt;Node8</title>
<path fill="none" stroke="midnightblue" d="M2544.73,-314.531C2390.38,-308.065 1887.15,-286.715 1471,-266 1407.21,-262.825 1334.83,-258.855 1281.7,-255.873"/>
<polygon fill="midnightblue" stroke="midnightblue" points="1281.86,-252.376 1271.67,-255.309 1281.46,-259.365 1281.86,-252.376"/>
</g>
<!-- Node22&#45;&gt;Node10 -->
<g id="edge46" class="edge"><title>Node22&#45;&gt;Node10</title>
<path fill="none" stroke="midnightblue" d="M2579.91,-307.79C2552.03,-287.764 2484.7,-239.789 2473,-235 2226.96,-134.317 1897.06,-123.897 1804.85,-123.018"/>
<polygon fill="midnightblue" stroke="midnightblue" points="1804.83,-119.518 1794.81,-122.952 1804.78,-126.518 1804.83,-119.518"/>
</g>
<!-- Node22&#45;&gt;Node11 -->
<g id="edge44" class="edge"><title>Node22&#45;&gt;Node11</title>
<path fill="none" stroke="midnightblue" d="M2592.84,-307.936C2595.7,-278.787 2605.11,-182.968 2609.14,-141.928"/>
<polygon fill="midnightblue" stroke="midnightblue" points="2612.63,-142.201 2610.13,-131.907 2605.66,-141.517 2612.63,-142.201"/>
</g>
<!-- Node22&#45;&gt;Node15 -->
<g id="edge42" class="edge"><title>Node22&#45;&gt;Node15</title>
<path fill="none" stroke="midnightblue" d="M2639.05,-316.335C2711.67,-314.053 2839.41,-300.859 2806,-235 2764.14,-152.47 2724.81,-144.067 2638,-112 2533.25,-73.3033 2182.11,-67.8729 2075.77,-67.1192"/>
<polygon fill="midnightblue" stroke="midnightblue" points="2075.72,-63.6189 2065.7,-67.0569 2075.68,-70.6188 2075.72,-63.6189"/>
</g>
<!-- Node22&#45;&gt;Node17 -->
<g id="edge43" class="edge"><title>Node22&#45;&gt;Node17</title>
<path fill="none" stroke="midnightblue" d="M2588.69,-307.768C2582.5,-292.115 2568.03,-258.703 2549,-235 2520.18,-199.099 2511.92,-187.033 2470,-168 2252.03,-69.0345 1470.27,-66.1183 1292.25,-66.7687"/>
<polygon fill="midnightblue" stroke="midnightblue" points="1292.09,-63.2693 1282.11,-66.8122 1292.12,-70.2692 1292.09,-63.2693"/>
</g>
<!-- Node23 -->
<g id="node23" class="node"><title>Node23</title>
<polygon fill="white" stroke="#bfbfbf" points="2339,-241 2339,-260 2369,-260 2369,-241 2339,-241"/>
<text text-anchor="middle" x="2354" y="-248" font-family="Helvetica,sans-Serif" font-size="10.00">set</text>
</g>
<!-- Node22&#45;&gt;Node23 -->
<g id="edge45" class="edge"><title>Node22&#45;&gt;Node23</title>
<path fill="none" stroke="midnightblue" d="M2544.79,-309.707C2500.54,-302.337 2433.13,-288.509 2378,-266 2377.29,-265.71 2376.58,-265.401 2375.86,-265.076"/>
<polygon fill="midnightblue" stroke="midnightblue" points="2377.29,-261.869 2366.82,-260.248 2373.99,-268.044 2377.29,-261.869"/>
</g>
<!-- Node24 -->
<g id="node24" class="node"><title>Node24</title>
<polygon fill="white" stroke="#bfbfbf" points="2853.5,-241 2853.5,-260 2898.5,-260 2898.5,-241 2853.5,-241"/>
<text text-anchor="middle" x="2876" y="-248" font-family="Helvetica,sans-Serif" font-size="10.00">thread</text>
</g>
<!-- Node22&#45;&gt;Node24 -->
<g id="edge47" class="edge"><title>Node22&#45;&gt;Node24</title>
<path fill="none" stroke="midnightblue" d="M2639.02,-309.36C2689.16,-301.176 2770.59,-286.236 2839,-266 2841.43,-265.281 2843.93,-264.469 2846.42,-263.607"/>
<polygon fill="midnightblue" stroke="midnightblue" points="2847.7,-266.866 2855.86,-260.115 2845.27,-260.3 2847.7,-266.866"/>
</g>
<!-- Node25 -->
<g id="node25" class="node"><title>Node25</title>
<polygon fill="white" stroke="#bfbfbf" points="2916.5,-241 2916.5,-260 3013.5,-260 3013.5,-241 2916.5,-241"/>
<text text-anchor="middle" x="2965" y="-248" font-family="Helvetica,sans-Serif" font-size="10.00">condition_variable</text>
</g>
<!-- Node22&#45;&gt;Node25 -->
<g id="edge48" class="edge"><title>Node22&#45;&gt;Node25</title>
<path fill="none" stroke="midnightblue" d="M2639.09,-310.333C2701.05,-301.91 2813.19,-285.592 2908,-266 2913.06,-264.955 2918.34,-263.757 2923.57,-262.507"/>
<polygon fill="midnightblue" stroke="midnightblue" points="2924.59,-265.859 2933.46,-260.066 2922.91,-259.063 2924.59,-265.859"/>
</g>
<!-- Node26 -->
<g id="node26" class="node"><title>Node26</title>
<polygon fill="white" stroke="#bfbfbf" points="2639,-241 2639,-260 2699,-260 2699,-241 2639,-241"/>
<text text-anchor="middle" x="2669" y="-248" font-family="Helvetica,sans-Serif" font-size="10.00">curl/curl.h</text>
</g>
<!-- Node22&#45;&gt;Node26 -->
<g id="edge49" class="edge"><title>Node22&#45;&gt;Node26</title>
<path fill="none" stroke="midnightblue" d="M2602.38,-307.734C2614.85,-297.208 2635.97,-279.379 2651.09,-266.617"/>
<polygon fill="midnightblue" stroke="midnightblue" points="2653.4,-269.252 2658.78,-260.127 2648.88,-263.903 2653.4,-269.252"/>
</g>
<!-- Node27 -->
<g id="node27" class="node"><title>Node27</title>
<polygon fill="white" stroke="#bfbfbf" points="2717,-241 2717,-260 2797,-260 2797,-241 2717,-241"/>
<text text-anchor="middle" x="2757" y="-248" font-family="Helvetica,sans-Serif" font-size="10.00">uriparser/Uri.h</text>
</g>
<!-- Node22&#45;&gt;Node27 -->
<g id="edge50" class="edge"><title>Node22&#45;&gt;Node27</title>
<path fill="none" stroke="midnightblue" d="M2613.91,-307.869C2642.59,-296.571 2693.04,-276.696 2725.73,-263.818"/>
<polygon fill="midnightblue" stroke="midnightblue" points="2727.24,-266.985 2735.26,-260.064 2724.67,-260.473 2727.24,-266.985"/>
</g>
<!-- Node28&#45;&gt;Node4 -->
<g id="edge52" class="edge"><title>Node28&#45;&gt;Node4</title>
<path fill="none" stroke="midnightblue" d="M777.417,-512.288C707.098,-510.657 591.518,-502.13 499,-467 399.662,-429.28 356.299,-423.736 301,-333 278.258,-295.684 285.238,-278.006 293,-235 305.317,-166.757 324.541,-137.571 389,-112 430.224,-95.6461 715.732,-77.6095 842.077,-70.3233"/>
<polygon fill="midnightblue" stroke="midnightblue" points="842.563,-73.8013 852.346,-69.7346 842.162,-66.8128 842.563,-73.8013"/>
</g>
<!-- Node28&#45;&gt;Node7 -->
<g id="edge59" class="edge"><title>Node28&#45;&gt;Node7</title>
<path fill="none" stroke="midnightblue" d="M815.952,-503.394C777.995,-488.844 707.143,-455.429 677,-400 666.406,-380.519 668.03,-354.355 670.886,-336.986"/>
<polygon fill="midnightblue" stroke="midnightblue" points="674.354,-337.485 672.824,-327.001 667.482,-336.151 674.354,-337.485"/>
</g>
<!-- Node28&#45;&gt;Node12 -->
<g id="edge83" class="edge"><title>Node28&#45;&gt;Node12</title>
<path fill="none" stroke="midnightblue" d="M777.103,-508.499C652.2,-501.321 384.467,-484.16 346,-467 217.477,-409.667 114,-392.231 114,-251.5 114,-251.5 114,-251.5 114,-182.5 114,-83.8885 269.713,-68.5613 342.865,-66.8016"/>
<polygon fill="midnightblue" stroke="midnightblue" points="343.09,-70.2985 353.031,-66.6322 342.974,-63.2994 343.09,-70.2985"/>
</g>
<!-- Node28&#45;&gt;Node15 -->
<g id="edge82" class="edge"><title>Node28&#45;&gt;Node15</title>
<path fill="none" stroke="midnightblue" d="M904.584,-509.722C1172.67,-499.29 2197,-450.777 2197,-318.5 2197,-318.5 2197,-318.5 2197,-182.5 2197,-122.08 2119.92,-89.1415 2075.54,-75.1836"/>
<polygon fill="midnightblue" stroke="midnightblue" points="2076.4,-71.7875 2065.82,-72.2633 2074.39,-78.4917 2076.4,-71.7875"/>
</g>
<!-- Node28&#45;&gt;Node16 -->
<g id="edge85" class="edge"><title>Node28&#45;&gt;Node16</title>
<path fill="none" stroke="midnightblue" d="M777.195,-509.329C674.795,-504.366 478.703,-491.889 414,-467 336.555,-437.209 305.168,-413.231 284,-333 257.975,-234.361 256.964,-161.795 346,-112 389.098,-87.8968 535.53,-74.1157 599.119,-69.142"/>
<polygon fill="midnightblue" stroke="midnightblue" points="599.583,-72.6169 609.288,-68.3669 599.051,-65.6372 599.583,-72.6169"/>
</g>
<!-- Node28&#45;&gt;Node23 -->
<g id="edge84" class="edge"><title>Node28&#45;&gt;Node23</title>
<path fill="none" stroke="midnightblue" d="M904.901,-511.047C1139.62,-507.355 1946.42,-492.892 2059,-467 2173.55,-440.656 2205.33,-417.533 2287,-333 2307.19,-312.104 2328.08,-285.812 2341.06,-268.835"/>
<polygon fill="midnightblue" stroke="midnightblue" points="2344.15,-270.541 2347.39,-260.454 2338.57,-266.319 2344.15,-270.541"/>
</g>
<!-- Node29 -->
<g id="node29" class="node"><title>Node29</title>
<g id="a_node29"><a xlink:href="_executable_content_8h.html" target="_top" xlink:title="uscxml/plugins/Executable\lContent.h">
<polygon fill="white" stroke="black" points="712,-168.5 712,-198.5 846,-198.5 846,-168.5 712,-168.5"/>
<text text-anchor="start" x="720" y="-186.5" font-family="Helvetica,sans-Serif" font-size="10.00">uscxml/plugins/Executable</text>
<text text-anchor="middle" x="779" y="-175.5" font-family="Helvetica,sans-Serif" font-size="10.00">Content.h</text>
</a>
</g>
</g>
<!-- Node28&#45;&gt;Node29 -->
<g id="edge53" class="edge"><title>Node28&#45;&gt;Node29</title>
<path fill="none" stroke="midnightblue" d="M779.047,-503.454C678.731,-488.207 487.911,-452.874 448,-400 406.47,-344.982 634.336,-243.461 734.063,-202.417"/>
<polygon fill="midnightblue" stroke="midnightblue" points="735.654,-205.547 743.584,-198.522 733.004,-199.069 735.654,-205.547"/>
</g>
<!-- Node30 -->
<g id="node30" class="node"><title>Node30</title>
<g id="a_node30"><a xlink:href="_i_o_processor_8h.html" target="_top" xlink:title="uscxml/plugins/IOProcessor.h">
<polygon fill="white" stroke="black" points="686.5,-375 686.5,-394 835.5,-394 835.5,-375 686.5,-375"/>
<text text-anchor="middle" x="761" y="-382" font-family="Helvetica,sans-Serif" font-size="10.00">uscxml/plugins/IOProcessor.h</text>
</a>
</g>
</g>
<!-- Node28&#45;&gt;Node30 -->
<g id="edge60" class="edge"><title>Node28&#45;&gt;Node30</title>
<path fill="none" stroke="midnightblue" d="M835.501,-503.305C822.428,-482.633 789.289,-430.232 771.952,-402.818"/>
<polygon fill="midnightblue" stroke="midnightblue" points="774.84,-400.837 766.537,-394.256 768.924,-404.578 774.84,-400.837"/>
</g>
<!-- Node31 -->
<g id="node31" class="node"><title>Node31</title>
<g id="a_node31"><a xlink:href="_invoker_8h.html" target="_top" xlink:title="uscxml/plugins/Invoker.h">
<polygon fill="white" stroke="black" points="930,-375 930,-394 1056,-394 1056,-375 930,-375"/>
<text text-anchor="middle" x="993" y="-382" font-family="Helvetica,sans-Serif" font-size="10.00">uscxml/plugins/Invoker.h</text>
</a>
</g>
</g>
<!-- Node28&#45;&gt;Node31 -->
<g id="edge64" class="edge"><title>Node28&#45;&gt;Node31</title>
<path fill="none" stroke="midnightblue" d="M904.777,-504.292C929.926,-498.109 957.038,-486.987 975,-467 990.4,-449.864 993.614,-422.575 993.839,-404.355"/>
<polygon fill="midnightblue" stroke="midnightblue" points="997.338,-404.296 993.674,-394.354 990.339,-404.411 997.338,-404.296"/>
</g>
<!-- Node28&#45;&gt;Node33 -->
<g id="edge70" class="edge"><title>Node28&#45;&gt;Node33</title>
<path fill="none" stroke="midnightblue" d="M849.453,-503.475C857.145,-495.718 868.821,-483.943 879.013,-473.665"/>
<polygon fill="midnightblue" stroke="midnightblue" points="881.539,-476.088 886.095,-466.523 876.568,-471.159 881.539,-476.088"/>
</g>
<!-- Node28&#45;&gt;Node34 -->
<g id="edge79" class="edge"><title>Node28&#45;&gt;Node34</title>
<path fill="none" stroke="midnightblue" d="M904.721,-509.812C1089.24,-503.456 1639.94,-484.342 2097,-467 2217.27,-462.437 2359.99,-456.594 2424.41,-453.934"/>
<polygon fill="midnightblue" stroke="midnightblue" points="2424.57,-457.43 2434.42,-453.52 2424.29,-450.436 2424.57,-457.43"/>
</g>
<!-- Node29&#45;&gt;Node4 -->
<g id="edge55" class="edge"><title>Node29&#45;&gt;Node4</title>
<path fill="none" stroke="midnightblue" d="M763.856,-168.317C749.757,-153.371 732.757,-129.603 746,-112 757.861,-96.2335 803.399,-84.2541 842.235,-76.6345"/>
<polygon fill="midnightblue" stroke="midnightblue" points="843.284,-79.9981 852.457,-74.6967 841.98,-73.1206 843.284,-79.9981"/>
</g>
<!-- Node29&#45;&gt;Node12 -->
<g id="edge57" class="edge"><title>Node29&#45;&gt;Node12</title>
<path fill="none" stroke="midnightblue" d="M730.474,-168.453C649.513,-145.017 488.665,-98.4557 416.513,-77.5696"/>
<polygon fill="midnightblue" stroke="midnightblue" points="417.11,-74.0988 406.531,-74.6802 415.164,-80.8228 417.11,-74.0988"/>
</g>
<!-- Node29&#45;&gt;Node13 -->
<g id="edge54" class="edge"><title>Node29&#45;&gt;Node13</title>
<path fill="none" stroke="midnightblue" d="M791.323,-168.399C798.957,-159.664 808.791,-148.413 816.758,-139.296"/>
<polygon fill="midnightblue" stroke="midnightblue" points="819.488,-141.491 823.434,-131.658 814.218,-136.884 819.488,-141.491"/>
</g>
<!-- Node29&#45;&gt;Node15 -->
<g id="edge56" class="edge"><title>Node29&#45;&gt;Node15</title>
<path fill="none" stroke="midnightblue" d="M846.336,-178.203C950.522,-171.135 1156.95,-155.458 1331,-132 1381.11,-125.246 1392.83,-118.337 1443,-112 1660.85,-84.4801 1925.33,-71.8647 2014.21,-68.1904"/>
<polygon fill="midnightblue" stroke="midnightblue" points="2014.54,-71.6796 2024.39,-67.7768 2014.26,-64.6854 2014.54,-71.6796"/>
</g>
<!-- Node29&#45;&gt;Node17 -->
<g id="edge58" class="edge"><title>Node29&#45;&gt;Node17</title>
<path fill="none" stroke="midnightblue" d="M774.011,-168.343C769.434,-152.512 765.242,-127.117 779,-112 808.534,-79.549 1113.44,-70.0212 1219.71,-67.6744"/>
<polygon fill="midnightblue" stroke="midnightblue" points="1220.01,-71.1688 1229.94,-67.4573 1219.86,-64.1704 1220.01,-71.1688"/>
</g>
<!-- Node30&#45;&gt;Node4 -->
<g id="edge61" class="edge"><title>Node30&#45;&gt;Node4</title>
<path fill="none" stroke="midnightblue" d="M697.685,-374.973C645.228,-366.667 576.137,-352.448 556,-333 484.312,-263.764 451.755,-186.461 518,-112 539.136,-88.2428 739.376,-75.0004 841.993,-69.7232"/>
<polygon fill="midnightblue" stroke="midnightblue" points="842.398,-73.2073 852.209,-69.2075 842.045,-66.2162 842.398,-73.2073"/>
</g>
<!-- Node30&#45;&gt;Node7 -->
<g id="edge62" class="edge"><title>Node30&#45;&gt;Node7</title>
<path fill="none" stroke="midnightblue" d="M749.402,-374.734C735.346,-364.111 711.449,-346.049 694.534,-333.264"/>
<polygon fill="midnightblue" stroke="midnightblue" points="696.503,-330.365 686.415,-327.127 692.282,-335.949 696.503,-330.365"/>
</g>
<!-- Node30&#45;&gt;Node8 -->
<g id="edge63" class="edge"><title>Node30&#45;&gt;Node8</title>
<path fill="none" stroke="midnightblue" d="M789.79,-374.941C867.055,-351.97 1079.03,-288.95 1166.49,-262.949"/>
<polygon fill="midnightblue" stroke="midnightblue" points="1167.69,-266.244 1176.28,-260.04 1165.69,-259.535 1167.69,-266.244"/>
</g>
<!-- Node31&#45;&gt;Node4 -->
<g id="edge66" class="edge"><title>Node31&#45;&gt;Node4</title>
<path fill="none" stroke="midnightblue" d="M954.692,-374.96C883.417,-356.764 732.048,-306.725 670,-199 650.701,-165.494 645.399,-141.831 670,-112 691.407,-86.0424 780.61,-74.8747 841.954,-70.2005"/>
<polygon fill="midnightblue" stroke="midnightblue" points="842.58,-73.6645 852.302,-69.4529 842.076,-66.6827 842.58,-73.6645"/>
</g>
<!-- Node31&#45;&gt;Node7 -->
<g id="edge67" class="edge"><title>Node31&#45;&gt;Node7</title>
<path fill="none" stroke="midnightblue" d="M951.1,-374.936C893.347,-363.131 789.341,-341.872 726.787,-329.085"/>
<polygon fill="midnightblue" stroke="midnightblue" points="727.238,-325.605 716.74,-327.032 725.836,-332.464 727.238,-325.605"/>
</g>
<!-- Node31&#45;&gt;Node8 -->
<g id="edge68" class="edge"><title>Node31&#45;&gt;Node8</title>
<path fill="none" stroke="midnightblue" d="M1004.08,-374.874C1024.19,-359.389 1068.32,-326.233 1108,-302 1130.84,-288.053 1157.93,-274.157 1177.67,-264.482"/>
<polygon fill="midnightblue" stroke="midnightblue" points="1179.25,-267.606 1186.72,-260.091 1176.19,-261.308 1179.25,-267.606"/>
</g>
<!-- Node31&#45;&gt;Node13 -->
<g id="edge65" class="edge"><title>Node31&#45;&gt;Node13</title>
<path fill="none" stroke="midnightblue" d="M972.79,-374.881C955.71,-366.578 931.87,-352.415 918,-333 900.076,-307.911 905.888,-296.266 900,-266 891.62,-222.927 909.505,-206.25 888,-168 880.784,-155.166 868.29,-144.676 856.835,-137.063"/>
<polygon fill="midnightblue" stroke="midnightblue" points="858.336,-133.876 847.992,-131.585 854.65,-139.827 858.336,-133.876"/>
</g>
<!-- Node31&#45;&gt;Node32 -->
<g id="edge69" class="edge"><title>Node31&#45;&gt;Node32</title>
<path fill="none" stroke="midnightblue" d="M1056.23,-380.256C1157.69,-374.331 1351.84,-359.83 1415,-333 1435.06,-324.478 1435.07,-314.399 1453,-302 1472.88,-288.253 1496.68,-274.613 1514.37,-264.98"/>
<polygon fill="midnightblue" stroke="midnightblue" points="1516.35,-267.888 1523.49,-260.066 1513.03,-261.724 1516.35,-267.888"/>
</g>
<!-- Node33&#45;&gt;Node4 -->
<g id="edge72" class="edge"><title>Node33&#45;&gt;Node4</title>
<path fill="none" stroke="midnightblue" d="M833.223,-447.208C720.895,-440.984 504.067,-425.754 481,-400 438.208,-352.222 449.4,-151.413 500,-112 526.407,-91.4312 736.441,-76.5407 841.951,-70.2789"/>
<polygon fill="midnightblue" stroke="midnightblue" points="842.354,-73.7613 852.133,-69.6822 841.945,-66.7733 842.354,-73.7613"/>
</g>
<!-- Node33&#45;&gt;Node10 -->
<g id="edge76" class="edge"><title>Node33&#45;&gt;Node10</title>
<path fill="none" stroke="midnightblue" d="M966.64,-450.467C1094.94,-449.429 1371.03,-442.189 1455,-400 1490.72,-382.054 1500.73,-370.337 1515,-333 1519.92,-320.131 1520.9,-314.451 1515,-302 1504.18,-279.167 1481.82,-288.833 1471,-266 1465.1,-253.549 1462.56,-245.888 1471,-235 1510.37,-184.228 1550.37,-220.253 1611,-199 1664.38,-180.29 1724.15,-151.434 1756.35,-135.192"/>
<polygon fill="midnightblue" stroke="midnightblue" points="1758.1,-138.232 1765.43,-130.581 1754.93,-131.991 1758.1,-138.232"/>
</g>
<!-- Node33&#45;&gt;Node12 -->
<g id="edge78" class="edge"><title>Node33&#45;&gt;Node12</title>
<path fill="none" stroke="midnightblue" d="M833.329,-448.113C690.872,-441.418 364.576,-417.04 301,-333 240.783,-253.4 329.782,-128.412 365.911,-83.6426"/>
<polygon fill="midnightblue" stroke="midnightblue" points="368.718,-85.7402 372.372,-75.7954 363.314,-81.2908 368.718,-85.7402"/>
</g>
<!-- Node33&#45;&gt;Node13 -->
<g id="edge71" class="edge"><title>Node33&#45;&gt;Node13</title>
<path fill="none" stroke="midnightblue" d="M899.394,-436.292C897.255,-394.232 888.278,-267.104 855,-168 851.759,-158.347 846.586,-148.286 841.872,-140.131"/>
<polygon fill="midnightblue" stroke="midnightblue" points="844.864,-138.315 836.691,-131.573 838.876,-141.94 844.864,-138.315"/>
</g>
<!-- Node33&#45;&gt;Node15 -->
<g id="edge77" class="edge"><title>Node33&#45;&gt;Node15</title>
<path fill="none" stroke="midnightblue" d="M966.695,-448.963C1150.88,-444.386 1663.9,-429.308 1830,-400 1876.66,-391.767 1886.19,-381.097 1932,-369 2002.47,-350.39 2037.08,-380.924 2092,-333 2166.07,-268.366 2132.03,-197.205 2083,-112 2076.96,-101.497 2068.37,-91.076 2060.88,-82.9108"/>
<polygon fill="midnightblue" stroke="midnightblue" points="2063.33,-80.4075 2053.9,-75.5783 2058.26,-85.2342 2063.33,-80.4075"/>
</g>
<!-- Node33&#45;&gt;Node30 -->
<g id="edge74" class="edge"><title>Node33&#45;&gt;Node30</title>
<path fill="none" stroke="midnightblue" d="M869.839,-436.396C845.558,-425.041 811.725,-409.22 788.252,-398.244"/>
<polygon fill="midnightblue" stroke="midnightblue" points="789.733,-395.073 779.192,-394.007 786.768,-401.414 789.733,-395.073"/>
</g>
<!-- Node33&#45;&gt;Node31 -->
<g id="edge73" class="edge"><title>Node33&#45;&gt;Node31</title>
<path fill="none" stroke="midnightblue" d="M920.18,-436.396C935.631,-425.597 956.864,-410.756 972.415,-399.887"/>
<polygon fill="midnightblue" stroke="midnightblue" points="974.637,-402.605 980.828,-394.007 970.627,-396.867 974.637,-402.605"/>
</g>
<!-- Node33&#45;&gt;Node32 -->
<g id="edge75" class="edge"><title>Node33&#45;&gt;Node32</title>
<path fill="none" stroke="midnightblue" d="M966.532,-450.31C1123.96,-449.169 1509.09,-442.063 1548,-400 1581.08,-364.242 1561.05,-300.531 1548.23,-269.492"/>
<polygon fill="midnightblue" stroke="midnightblue" points="1551.44,-268.087 1544.25,-260.306 1545.02,-270.873 1551.44,-268.087"/>
</g>
<!-- Node34&#45;&gt;Node10 -->
<g id="edge81" class="edge"><title>Node34&#45;&gt;Node10</title>
<path fill="none" stroke="midnightblue" d="M2461.54,-441.642C2470.27,-409.132 2495.54,-295.161 2440,-235 2434.19,-228.707 1840.44,-133.446 1832,-132 1823.01,-130.461 1813.15,-128.758 1804.46,-127.252"/>
<polygon fill="midnightblue" stroke="midnightblue" points="1805.02,-123.797 1794.57,-125.535 1803.82,-130.694 1805.02,-123.797"/>
</g>
<!-- Node34&#45;&gt;Node15 -->
<g id="edge80" class="edge"><title>Node34&#45;&gt;Node15</title>
<path fill="none" stroke="midnightblue" d="M2483.72,-450.297C2625.79,-448.482 3332,-430.462 3332,-251.5 3332,-251.5 3332,-251.5 3332,-182.5 3332,9.84704 3096.23,-132.724 2905,-112 2582.06,-77.0012 2187.83,-68.9963 2075.93,-67.3751"/>
<polygon fill="midnightblue" stroke="midnightblue" points="2075.75,-63.8724 2065.7,-67.2337 2075.65,-70.8718 2075.75,-63.8724"/>
</g>
<!-- Node35&#45;&gt;Node4 -->
<g id="edge92" class="edge"><title>Node35&#45;&gt;Node4</title>
<path fill="none" stroke="midnightblue" d="M1434.87,-450.88C1336.76,-450.633 1107.2,-444.813 921,-400 885.133,-391.368 879.637,-378.537 844,-369 788.717,-354.205 626.532,-376.203 589,-333 563.751,-303.936 536.006,-213.488 654,-112 681.633,-88.2325 778.319,-76.3422 842.487,-70.9357"/>
<polygon fill="midnightblue" stroke="midnightblue" points="842.807,-74.4214 852.491,-70.1229 842.24,-67.4443 842.807,-74.4214"/>
</g>
<!-- Node35&#45;&gt;Node8 -->
<g id="edge115" class="edge"><title>Node35&#45;&gt;Node8</title>
<path fill="none" stroke="midnightblue" d="M1434.92,-443.572C1374.54,-432.101 1272.83,-403.021 1223,-333 1209.84,-314.503 1206.04,-288.119 1205.08,-270.431"/>
<polygon fill="midnightblue" stroke="midnightblue" points="1208.57,-270.129 1204.79,-260.233 1201.58,-270.33 1208.57,-270.129"/>
</g>
<!-- Node35&#45;&gt;Node10 -->
<g id="edge89" class="edge"><title>Node35&#45;&gt;Node10</title>
<path fill="none" stroke="midnightblue" d="M1531.11,-448.654C1614.68,-444.616 1782.32,-432.598 1830,-400 1868.56,-373.634 1894.98,-340.136 1868,-302 1840.23,-262.755 1793.77,-305.245 1766,-266 1739.31,-228.276 1758.58,-170.268 1771.27,-141.086"/>
<polygon fill="midnightblue" stroke="midnightblue" points="1774.57,-142.279 1775.55,-131.73 1768.2,-139.367 1774.57,-142.279"/>
</g>
<!-- Node35&#45;&gt;Node13 -->
<g id="edge88" class="edge"><title>Node35&#45;&gt;Node13</title>
<path fill="none" stroke="midnightblue" d="M1434.9,-449.743C1327.07,-445.266 1065.11,-418.394 933,-266 903.557,-232.035 935.054,-203.897 908,-168 897.118,-153.562 880.144,-142.933 864.899,-135.642"/>
<polygon fill="midnightblue" stroke="midnightblue" points="866.258,-132.415 855.7,-131.529 863.401,-138.806 866.258,-132.415"/>
</g>
<!-- Node35&#45;&gt;Node15 -->
<g id="edge90" class="edge"><title>Node35&#45;&gt;Node15</title>
<path fill="none" stroke="midnightblue" d="M1531.17,-447.406C1665.24,-437.947 2039.15,-405.526 2135,-333 2217.83,-270.325 2274.11,-194.496 2211,-112 2194.66,-90.6385 2119.11,-77.0575 2075.78,-70.8848"/>
<polygon fill="midnightblue" stroke="midnightblue" points="2076.15,-67.4032 2065.77,-69.5088 2075.2,-74.338 2076.15,-67.4032"/>
</g>
<!-- Node35&#45;&gt;Node32 -->
<g id="edge91" class="edge"><title>Node35&#45;&gt;Node32</title>
<path fill="none" stroke="midnightblue" d="M1531.02,-439.202C1551.68,-431.706 1573.83,-419.52 1586,-400 1609.04,-363.039 1601.73,-342.617 1586,-302 1580.59,-288.038 1569.33,-275.564 1559.31,-266.508"/>
<polygon fill="midnightblue" stroke="midnightblue" points="1561.55,-263.823 1551.66,-260.013 1557.02,-269.156 1561.55,-263.823"/>
</g>
<!-- Node36 -->
<g id="node36" class="node"><title>Node36</title>
<g id="a_node36"><a xlink:href="_interpreter_8h.html" target="_top" xlink:title="uscxml/Interpreter.h">
<polygon fill="white" stroke="red" points="1341.5,-375 1341.5,-394 1446.5,-394 1446.5,-375 1341.5,-375"/>
<text text-anchor="middle" x="1394" y="-382" font-family="Helvetica,sans-Serif" font-size="10.00">uscxml/Interpreter.h</text>
</a>
</g>
</g>
<!-- Node35&#45;&gt;Node36 -->
<g id="edge93" class="edge"><title>Node35&#45;&gt;Node36</title>
<path fill="none" stroke="midnightblue" d="M1463.69,-436.396C1449.04,-425.697 1428.96,-411.033 1414.12,-400.193"/>
<polygon fill="midnightblue" stroke="midnightblue" points="1415.79,-397.078 1405.65,-394.007 1411.66,-402.731 1415.79,-397.078"/>
</g>
<!-- Node36&#45;&gt;Node4 -->
<g id="edge94" class="edge"><title>Node36&#45;&gt;Node4</title>
<path fill="none" stroke="midnightblue" d="M1341.4,-377.905C1193.34,-360.935 778.892,-304.629 703,-199 678.681,-165.152 704.57,-136.89 738,-112 768.153,-89.5496 808.882,-78.2996 842.207,-72.6621"/>
<polygon fill="midnightblue" stroke="midnightblue" points="842.952,-76.0883 852.292,-71.0866 841.872,-69.1722 842.952,-76.0883"/>
</g>
<!-- Node36&#45;&gt;Node11 -->
<g id="edge95" class="edge"><title>Node36&#45;&gt;Node11</title>
<path fill="none" stroke="midnightblue" d="M1446.52,-380.716C1598.91,-372.501 2034.34,-347.998 2097,-333 2206.26,-306.85 2226.04,-277.577 2330,-235 2422.52,-197.107 2532.84,-153.631 2583.32,-133.834"/>
<polygon fill="midnightblue" stroke="midnightblue" points="2584.84,-136.997 2592.87,-130.089 2582.28,-130.48 2584.84,-136.997"/>
</g>
<!-- Node36&#45;&gt;Node15 -->
<g id="edge96" class="edge"><title>Node36&#45;&gt;Node15</title>
<path fill="none" stroke="midnightblue" d="M1446.71,-380.833C1599.76,-372.916 2034.98,-349.097 2061,-333 2101.01,-308.248 2108.54,-281.437 2101,-235 2091.84,-178.535 2066.41,-115.403 2053.2,-85.1222"/>
<polygon fill="midnightblue" stroke="midnightblue" points="2056.34,-83.5675 2049.09,-75.8465 2049.94,-86.4066 2056.34,-83.5675"/>
</g>
<!-- Node37 -->
<g id="node37" class="node"><title>Node37</title>
<polygon fill="white" stroke="#bfbfbf" points="1462,-308 1462,-327 1506,-327 1506,-308 1462,-308"/>
<text text-anchor="middle" x="1484" y="-315" font-family="Helvetica,sans-Serif" font-size="10.00">vector</text>
</g>
<!-- Node36&#45;&gt;Node37 -->
<g id="edge97" class="edge"><title>Node36&#45;&gt;Node37</title>
<path fill="none" stroke="midnightblue" d="M1406.14,-374.734C1420.85,-364.111 1445.86,-346.049 1463.56,-333.264"/>
<polygon fill="midnightblue" stroke="midnightblue" points="1466,-335.82 1472.05,-327.127 1461.9,-330.145 1466,-335.82"/>
</g>
<!-- Node38 -->
<g id="node38" class="node"><title>Node38</title>
<g id="a_node38"><a xlink:href="_micro_step_8h.html" target="_top" xlink:title="uscxml/interpreter\l/MicroStep.h">
<polygon fill="white" stroke="red" points="1238,-168.5 1238,-198.5 1334,-198.5 1334,-168.5 1238,-168.5"/>
<text text-anchor="start" x="1246" y="-186.5" font-family="Helvetica,sans-Serif" font-size="10.00">uscxml/interpreter</text>
<text text-anchor="middle" x="1286" y="-175.5" font-family="Helvetica,sans-Serif" font-size="10.00">/MicroStep.h</text>
</a>
</g>
</g>
<!-- Node36&#45;&gt;Node38 -->
<g id="edge98" class="edge"><title>Node36&#45;&gt;Node38</title>
<path fill="none" stroke="midnightblue" d="M1341.44,-378.97C1310.8,-373.315 1274.45,-360.756 1255,-333 1247.09,-321.716 1250.88,-315.148 1255,-302 1260.82,-283.411 1273.5,-284.363 1280,-266 1286.5,-247.635 1287.75,-225.524 1287.52,-208.969"/>
<polygon fill="midnightblue" stroke="midnightblue" points="1291,-208.385 1287.16,-198.509 1284.01,-208.622 1291,-208.385"/>
</g>
<!-- Node39 -->
<g id="node39" class="node"><title>Node39</title>
<g id="a_node39"><a xlink:href="_data_model_8h.html" target="_top" xlink:title="uscxml/plugins/DataModel.h">
<polygon fill="white" stroke="black" points="1264,-308 1264,-327 1406,-327 1406,-308 1264,-308"/>
<text text-anchor="middle" x="1335" y="-315" font-family="Helvetica,sans-Serif" font-size="10.00">uscxml/plugins/DataModel.h</text>
</a>
</g>
</g>
<!-- Node36&#45;&gt;Node39 -->
<g id="edge104" class="edge"><title>Node36&#45;&gt;Node39</title>
<path fill="none" stroke="midnightblue" d="M1386.04,-374.734C1376.75,-364.5 1361.2,-347.364 1349.7,-334.692"/>
<polygon fill="midnightblue" stroke="midnightblue" points="1352.14,-332.179 1342.83,-327.127 1346.96,-336.884 1352.14,-332.179"/>
</g>
<!-- Node40 -->
<g id="node40" class="node"><title>Node40</title>
<g id="a_node40"><a xlink:href="_content_executor_8h.html" target="_top" xlink:title="uscxml/interpreter\l/ContentExecutor.h">
<polygon fill="white" stroke="black" points="942,-235.5 942,-265.5 1044,-265.5 1044,-235.5 942,-235.5"/>
<text text-anchor="start" x="950" y="-253.5" font-family="Helvetica,sans-Serif" font-size="10.00">uscxml/interpreter</text>
<text text-anchor="middle" x="993" y="-242.5" font-family="Helvetica,sans-Serif" font-size="10.00">/ContentExecutor.h</text>
</a>
</g>
</g>
<!-- Node36&#45;&gt;Node40 -->
<g id="edge110" class="edge"><title>Node36&#45;&gt;Node40</title>
<path fill="none" stroke="midnightblue" d="M1349.15,-374.984C1306.21,-366.302 1239.89,-351.5 1184,-333 1129.57,-314.984 1069.06,-287.902 1031.03,-269.969"/>
<polygon fill="midnightblue" stroke="midnightblue" points="1032.4,-266.744 1021.86,-265.618 1029.39,-273.068 1032.4,-266.744"/>
</g>
<!-- Node38&#45;&gt;Node4 -->
<g id="edge103" class="edge"><title>Node38&#45;&gt;Node4</title>
<path fill="none" stroke="midnightblue" d="M1305.77,-168.311C1324.26,-153.36 1346.84,-129.587 1331,-112 1306.76,-85.0861 1074.16,-73.1511 961.959,-68.926"/>
<polygon fill="midnightblue" stroke="midnightblue" points="961.935,-65.4228 951.813,-68.5526 961.678,-72.4181 961.935,-65.4228"/>
</g>
<!-- Node38&#45;&gt;Node10 -->
<g id="edge100" class="edge"><title>Node38&#45;&gt;Node10</title>
<path fill="none" stroke="midnightblue" d="M1334.1,-178.877C1433.59,-171.139 1659.98,-152.217 1755.55,-131.401"/>
<polygon fill="midnightblue" stroke="midnightblue" points="1756.5,-134.773 1765.46,-129.119 1754.93,-127.952 1756.5,-134.773"/>
</g>
<!-- Node38&#45;&gt;Node12 -->
<g id="edge99" class="edge"><title>Node38&#45;&gt;Node12</title>
<path fill="none" stroke="midnightblue" d="M1237.85,-170.015C1234.86,-169.313 1231.89,-168.635 1229,-168 1143.35,-149.18 1121.14,-148.437 1035,-132 989.622,-123.341 978.761,-118.328 933,-112 739.536,-85.2478 505.631,-72.6438 416.705,-68.5583"/>
<polygon fill="midnightblue" stroke="midnightblue" points="416.739,-65.0563 406.592,-68.1019 416.424,-72.0492 416.739,-65.0563"/>
</g>
<!-- Node38&#45;&gt;Node13 -->
<g id="edge102" class="edge"><title>Node38&#45;&gt;Node13</title>
<path fill="none" stroke="midnightblue" d="M1237.9,-169.772C1234.9,-169.131 1231.91,-168.533 1229,-168 1106.51,-145.603 960.633,-132.52 884.029,-126.681"/>
<polygon fill="midnightblue" stroke="midnightblue" points="883.923,-123.163 873.69,-125.904 883.399,-130.143 883.923,-123.163"/>
</g>
<!-- Node38&#45;&gt;Node15 -->
<g id="edge101" class="edge"><title>Node38&#45;&gt;Node15</title>
<path fill="none" stroke="midnightblue" d="M1325.08,-168.463C1372.27,-152.122 1454.38,-125.637 1527,-112 1709.55,-77.7201 1933.29,-69.4745 2014.07,-67.5584"/>
<polygon fill="midnightblue" stroke="midnightblue" points="2014.15,-71.0575 2024.07,-67.3368 2014,-64.0593 2014.15,-71.0575"/>
</g>
<!-- Node39&#45;&gt;Node4 -->
<g id="edge105" class="edge"><title>Node39&#45;&gt;Node4</title>
<path fill="none" stroke="midnightblue" d="M1337.14,-307.713C1345.52,-272.378 1374.36,-141.159 1348,-112 1322.57,-83.8777 1077.43,-72.4946 961.8,-68.6617"/>
<polygon fill="midnightblue" stroke="midnightblue" points="961.803,-65.1601 951.695,-68.3351 961.576,-72.1564 961.803,-65.1601"/>
</g>
<!-- Node39&#45;&gt;Node8 -->
<g id="edge106" class="edge"><title>Node39&#45;&gt;Node8</title>
<path fill="none" stroke="midnightblue" d="M1317.74,-307.869C1295.69,-296.845 1257.31,-277.655 1231.54,-264.768"/>
<polygon fill="midnightblue" stroke="midnightblue" points="1232.84,-261.509 1222.33,-260.167 1229.71,-267.77 1232.84,-261.509"/>
</g>
<!-- Node39&#45;&gt;Node10 -->
<g id="edge107" class="edge"><title>Node39&#45;&gt;Node10</title>
<path fill="none" stroke="midnightblue" d="M1339.39,-307.811C1348.36,-290.988 1370.45,-253.96 1400,-235 1455.89,-199.143 1481.1,-217.057 1545,-199 1636.63,-173.105 1661.44,-164.713 1755.67,-131.992"/>
<polygon fill="midnightblue" stroke="midnightblue" points="1757.02,-135.228 1765.32,-128.641 1754.73,-128.615 1757.02,-135.228"/>
</g>
<!-- Node39&#45;&gt;Node12 -->
<g id="edge109" class="edge"><title>Node39&#45;&gt;Node12</title>
<path fill="none" stroke="midnightblue" d="M1263.64,-310.976C1182.83,-303.926 1047.51,-289.715 933,-266 828.741,-244.408 803.528,-234.076 703,-199 592.118,-160.312 463.945,-104.522 408.255,-79.7179"/>
<polygon fill="midnightblue" stroke="midnightblue" points="409.585,-76.4788 399.027,-75.5956 406.73,-82.87 409.585,-76.4788"/>
</g>
<!-- Node39&#45;&gt;Node15 -->
<g id="edge108" class="edge"><title>Node39&#45;&gt;Node15</title>
<path fill="none" stroke="midnightblue" d="M1346.75,-307.843C1369.57,-291.403 1421.98,-255.482 1471,-235 1530.28,-210.231 1549.14,-216.352 1611,-199 1763.5,-156.224 1944.24,-99.1936 2014.73,-76.7036"/>
<polygon fill="midnightblue" stroke="midnightblue" points="2015.85,-80.019 2024.32,-73.6419 2013.72,-73.3509 2015.85,-80.019"/>
</g>
<!-- Node40&#45;&gt;Node4 -->
<g id="edge112" class="edge"><title>Node40&#45;&gt;Node4</title>
<path fill="none" stroke="midnightblue" d="M994.765,-235.358C996.269,-218.62 996.96,-190.219 988,-168 973.617,-132.332 941.404,-100.221 920.743,-82.2032"/>
<polygon fill="midnightblue" stroke="midnightblue" points="922.829,-79.383 912.938,-75.586 918.302,-84.7224 922.829,-79.383"/>
</g>
<!-- Node40&#45;&gt;Node9 -->
<g id="edge113" class="edge"><title>Node40&#45;&gt;Node9</title>
<path fill="none" stroke="midnightblue" d="M1028.37,-235.396C1057.22,-223.89 1097.58,-207.797 1125.14,-196.807"/>
<polygon fill="midnightblue" stroke="midnightblue" points="1126.67,-199.962 1134.67,-193.007 1124.08,-193.46 1126.67,-199.962"/>
</g>
<!-- Node40&#45;&gt;Node13 -->
<g id="edge111" class="edge"><title>Node40&#45;&gt;Node13</title>
<path fill="none" stroke="midnightblue" d="M991.712,-235.414C989.327,-217.396 982.622,-186.333 964,-168 951.446,-155.64 910.666,-142.891 877.538,-134.133"/>
<polygon fill="midnightblue" stroke="midnightblue" points="878.1,-130.663 867.542,-131.548 876.348,-137.441 878.1,-130.663"/>
</g>
<!-- Node40&#45;&gt;Node15 -->
<g id="edge114" class="edge"><title>Node40&#45;&gt;Node15</title>
<path fill="none" stroke="midnightblue" d="M1044,-237.647C1048.72,-236.694 1053.44,-235.794 1058,-235 1183.78,-213.077 1219.28,-230.534 1343,-199 1445.69,-172.826 1461.9,-136.519 1565,-112 1730.7,-72.5928 1936.26,-67.4011 2013.62,-66.9293"/>
<polygon fill="midnightblue" stroke="midnightblue" points="2014.09,-70.4276 2024.08,-66.8904 2014.07,-63.4277 2014.09,-70.4276"/>
</g>
<!-- Node41&#45;&gt;Node4 -->
<g id="edge117" class="edge"><title>Node41&#45;&gt;Node4</title>
<path fill="none" stroke="midnightblue" d="M1751.85,-369.24C1740.47,-352.136 1719.86,-323.129 1698,-302 1678.31,-282.97 1669.94,-282.39 1648,-266 1629.98,-252.538 1626.99,-247.054 1608,-235 1506.47,-170.552 1482.43,-145.717 1367,-112 1292.52,-90.2452 1069.64,-75.8728 961.775,-69.9995"/>
<polygon fill="midnightblue" stroke="midnightblue" points="961.878,-66.5001 951.705,-69.4577 961.502,-73.4899 961.878,-66.5001"/>
</g>
<!-- Node41&#45;&gt;Node8 -->
<g id="edge126" class="edge"><title>Node41&#45;&gt;Node8</title>
<path fill="none" stroke="midnightblue" d="M1700.07,-380.447C1573.76,-373.683 1291.98,-356.183 1255,-333 1231.86,-318.492 1217.81,-288.968 1210.73,-269.722"/>
<polygon fill="midnightblue" stroke="midnightblue" points="1214.03,-268.582 1207.49,-260.248 1207.41,-270.843 1214.03,-268.582"/>
</g>
<!-- Node41&#45;&gt;Node15 -->
<g id="edge132" class="edge"><title>Node41&#45;&gt;Node15</title>
<path fill="none" stroke="midnightblue" d="M1821.74,-380.678C1906.14,-375.711 2053.43,-362.94 2097,-333 2188.09,-270.411 2278.15,-199.78 2211,-112 2194.66,-90.6385 2119.11,-77.0575 2075.78,-70.8848"/>
<polygon fill="midnightblue" stroke="midnightblue" points="2076.15,-67.4032 2065.77,-69.5088 2075.2,-74.338 2076.15,-67.4032"/>
</g>
<!-- Node41&#45;&gt;Node32 -->
<g id="edge131" class="edge"><title>Node41&#45;&gt;Node32</title>
<path fill="none" stroke="midnightblue" d="M1746.62,-369.299C1728.24,-351.723 1694.83,-321.707 1662,-302 1634.76,-285.648 1601.25,-272.2 1576.25,-263.304"/>
<polygon fill="midnightblue" stroke="midnightblue" points="1577.37,-259.989 1566.78,-260.006 1575.07,-266.599 1577.37,-259.989"/>
</g>
<!-- Node41&#45;&gt;Node42 -->
<g id="edge118" class="edge"><title>Node41&#45;&gt;Node42</title>
<path fill="none" stroke="midnightblue" d="M1813.21,-369.476C1857.63,-357.547 1920.56,-340.644 1961.57,-329.628"/>
<polygon fill="midnightblue" stroke="midnightblue" points="1962.5,-333.003 1971.25,-327.029 1960.68,-326.243 1962.5,-333.003"/>
</g>
<!-- Node45 -->
<g id="node45" class="node"><title>Node45</title>
<g id="a_node45"><a xlink:href="_interpreter_monitor_8h.html" target="_top" xlink:title="uscxml/interpreter\l/InterpreterMonitor.h">
<polygon fill="white" stroke="red" points="1752.5,-302.5 1752.5,-332.5 1859.5,-332.5 1859.5,-302.5 1752.5,-302.5"/>
<text text-anchor="start" x="1760.5" y="-320.5" font-family="Helvetica,sans-Serif" font-size="10.00">uscxml/interpreter</text>
<text text-anchor="middle" x="1806" y="-309.5" font-family="Helvetica,sans-Serif" font-size="10.00">/InterpreterMonitor.h</text>
</a>
</g>
</g>
<!-- Node41&#45;&gt;Node45 -->
<g id="edge127" class="edge"><title>Node41&#45;&gt;Node45</title>
<path fill="none" stroke="midnightblue" d="M1770.76,-369.396C1776.54,-361.049 1783.99,-350.287 1790.55,-340.811"/>
<polygon fill="midnightblue" stroke="midnightblue" points="1793.44,-342.791 1796.25,-332.577 1787.68,-338.806 1793.44,-342.791"/>
</g>
<!-- Node42&#45;&gt;Node4 -->
<g id="edge123" class="edge"><title>Node42&#45;&gt;Node4</title>
<path fill="none" stroke="midnightblue" d="M1974.38,-307.941C1941.38,-297.615 1889.79,-279.91 1875,-266 1819.96,-214.244 1865.71,-154.142 1803,-112 1785.51,-100.247 1160.31,-76.4395 961.828,-69.162"/>
<polygon fill="midnightblue" stroke="midnightblue" points="961.71,-65.6554 951.589,-68.7874 961.454,-72.6508 961.71,-65.6554"/>
</g>
<!-- Node42&#45;&gt;Node10 -->
<g id="edge120" class="edge"><title>Node42&#45;&gt;Node10</title>
<path fill="none" stroke="midnightblue" d="M1970.71,-307.922C1926.58,-295.965 1851.74,-274.77 1842,-266 1822.58,-248.523 1797.18,-176.049 1785.87,-141.49"/>
<polygon fill="midnightblue" stroke="midnightblue" points="1789.12,-140.163 1782.72,-131.72 1782.46,-142.312 1789.12,-140.163"/>
</g>
<!-- Node42&#45;&gt;Node13 -->
<g id="edge122" class="edge"><title>Node42&#45;&gt;Node13</title>
<path fill="none" stroke="midnightblue" d="M1969.45,-307.976C1901.65,-291.108 1743.28,-253.508 1608,-235 1376.28,-203.297 1312.59,-243.617 1083,-199 1039.4,-190.527 1030.47,-181.01 988,-168 948.737,-155.971 903.65,-143.15 871.896,-134.283"/>
<polygon fill="midnightblue" stroke="midnightblue" points="872.651,-130.861 862.079,-131.549 870.773,-137.604 872.651,-130.861"/>
</g>
<!-- Node42&#45;&gt;Node23 -->
<g id="edge119" class="edge"><title>Node42&#45;&gt;Node23</title>
<path fill="none" stroke="midnightblue" d="M2049.25,-307.936C2124.43,-294.013 2270.62,-266.94 2329.02,-256.126"/>
<polygon fill="midnightblue" stroke="midnightblue" points="2329.67,-259.565 2338.87,-254.302 2328.4,-252.682 2329.67,-259.565"/>
</g>
<!-- Node42&#45;&gt;Node32 -->
<g id="edge125" class="edge"><title>Node42&#45;&gt;Node32</title>
<path fill="none" stroke="midnightblue" d="M1953.89,-309.605C1871.37,-298.02 1704.64,-274.613 1609.92,-261.315"/>
<polygon fill="midnightblue" stroke="midnightblue" points="1610.24,-257.827 1599.86,-259.903 1609.27,-264.759 1610.24,-257.827"/>
</g>
<!-- Node43 -->
<g id="node43" class="node"><title>Node43</title>
<polygon fill="white" stroke="#bfbfbf" points="1884.5,-241 1884.5,-260 1939.5,-260 1939.5,-241 1884.5,-241"/>
<text text-anchor="middle" x="1912" y="-248" font-family="Helvetica,sans-Serif" font-size="10.00">iostream</text>
</g>
<!-- Node42&#45;&gt;Node43 -->
<g id="edge121" class="edge"><title>Node42&#45;&gt;Node43</title>
<path fill="none" stroke="midnightblue" d="M1990.73,-307.734C1975.85,-297.111 1950.57,-279.049 1932.67,-266.264"/>
<polygon fill="midnightblue" stroke="midnightblue" points="1934.25,-263.092 1924.08,-260.127 1930.18,-268.788 1934.25,-263.092"/>
</g>
<!-- Node44 -->
<g id="node44" class="node"><title>Node44</title>
<polygon fill="white" stroke="#bfbfbf" points="1957.5,-241 1957.5,-260 2092.5,-260 2092.5,-241 1957.5,-241"/>
<text text-anchor="middle" x="2025" y="-248" font-family="Helvetica,sans-Serif" font-size="10.00">xercesc/util/XMLString.hpp</text>
</g>
<!-- Node42&#45;&gt;Node44 -->
<g id="edge124" class="edge"><title>Node42&#45;&gt;Node44</title>
<path fill="none" stroke="midnightblue" d="M2005.97,-307.734C2009.23,-298.085 2014.58,-282.3 2018.77,-269.906"/>
<polygon fill="midnightblue" stroke="midnightblue" points="2022.19,-270.722 2022.08,-260.127 2015.56,-268.477 2022.19,-270.722"/>
</g>
<!-- Node45&#45;&gt;Node4 -->
<g id="edge128" class="edge"><title>Node45&#45;&gt;Node4</title>
<path fill="none" stroke="midnightblue" d="M1765.22,-302.403C1742.23,-293.575 1713.5,-281.029 1690,-266 1603.28,-210.539 1611.81,-152.105 1517,-112 1466.75,-90.7431 1106.54,-74.8052 961.895,-69.1945"/>
<polygon fill="midnightblue" stroke="midnightblue" points="961.987,-65.6956 951.86,-68.8085 961.718,-72.6904 961.987,-65.6956"/>
</g>
<!-- Node45&#45;&gt;Node8 -->
<g id="edge129" class="edge"><title>Node45&#45;&gt;Node8</title>
<path fill="none" stroke="midnightblue" d="M1752.4,-310.703C1645.51,-299.142 1405.48,-273.182 1281.84,-259.81"/>
<polygon fill="midnightblue" stroke="midnightblue" points="1282.01,-256.309 1271.69,-258.713 1281.26,-263.268 1282.01,-256.309"/>
</g>
<!-- Node45&#45;&gt;Node21 -->
<g id="edge130" class="edge"><title>Node45&#45;&gt;Node21</title>
<path fill="none" stroke="midnightblue" d="M1859.77,-310.625C1885.54,-307.877 1916.86,-304.638 1945,-302 2137.27,-283.981 2191.39,-315.687 2378,-266 2379.94,-265.484 2381.9,-264.852 2383.86,-264.144"/>
<polygon fill="midnightblue" stroke="midnightblue" points="2385.47,-267.262 2393.32,-260.148 2382.74,-260.814 2385.47,-267.262"/>
</g>
<!-- Node46&#45;&gt;Node4 -->
<g id="edge134" class="edge"><title>Node46&#45;&gt;Node4</title>
<path fill="none" stroke="midnightblue" d="M379.405,-302.227C378.684,-264.291 382.496,-160.547 442,-112 472.365,-87.2263 724.256,-74.0577 841.897,-69.2088"/>
<polygon fill="midnightblue" stroke="midnightblue" points="842.322,-72.6945 852.172,-68.7924 842.038,-65.7003 842.322,-72.6945"/>
</g>
<!-- Node46&#45;&gt;Node8 -->
<g id="edge135" class="edge"><title>Node46&#45;&gt;Node8</title>
<path fill="none" stroke="midnightblue" d="M428.174,-313.221C538.683,-305.625 818.925,-285.945 1053,-266 1077.5,-263.913 1104.2,-261.434 1128.29,-259.123"/>
<polygon fill="midnightblue" stroke="midnightblue" points="1128.82,-262.588 1138.44,-258.144 1128.15,-255.62 1128.82,-262.588"/>
</g>
<!-- Node47&#45;&gt;Node4 -->
<g id="edge137" class="edge"><title>Node47&#45;&gt;Node4</title>
<path fill="none" stroke="midnightblue" d="M3033.91,-302.336C3048.28,-293.975 3063.94,-281.886 3072,-266 3078.23,-253.713 3078.62,-247.082 3072,-235 2996.78,-97.7719 2653.35,-113.494 2638,-112 2010.98,-50.9885 1850.75,-92.8834 1221,-76 1130.76,-73.5808 1026.17,-70.5954 962.051,-68.7445"/>
<polygon fill="midnightblue" stroke="midnightblue" points="961.825,-65.2366 951.728,-68.4462 961.623,-72.2336 961.825,-65.2366"/>
</g>
<!-- Node47&#45;&gt;Node8 -->
<g id="edge138" class="edge"><title>Node47&#45;&gt;Node8</title>
<path fill="none" stroke="midnightblue" d="M2951.86,-314.247C2882.88,-311.245 2756.19,-305.864 2648,-302 2124.98,-283.32 1993.88,-288.245 1471,-266 1407.19,-263.285 1334.81,-259.28 1281.69,-256.166"/>
<polygon fill="midnightblue" stroke="midnightblue" points="1281.85,-252.67 1271.66,-255.576 1281.44,-259.658 1281.85,-252.67"/>
</g>
<!-- Node47&#45;&gt;Node10 -->
<g id="edge141" class="edge"><title>Node47&#45;&gt;Node10</title>
<path fill="none" stroke="midnightblue" d="M3013.29,-302.234C3024.86,-284.31 3039.96,-253.646 3023,-235 2970.06,-176.788 2396.37,-175.002 2318,-168 2120.02,-150.313 1880.85,-131.049 1804.6,-124.958"/>
<polygon fill="midnightblue" stroke="midnightblue" points="1804.8,-121.463 1794.56,-124.157 1804.25,-128.441 1804.8,-121.463"/>
</g>
<!-- Node47&#45;&gt;Node11 -->
<g id="edge140" class="edge"><title>Node47&#45;&gt;Node11</title>
<path fill="none" stroke="midnightblue" d="M3023.28,-302.454C3044.82,-285.809 3073.54,-257.497 3056,-235 3003.69,-167.898 2728.89,-134.802 2639.28,-125.678"/>
<polygon fill="midnightblue" stroke="midnightblue" points="2639.36,-122.169 2629.07,-124.661 2638.67,-129.134 2639.36,-122.169"/>
</g>
<!-- Node47&#45;&gt;Node15 -->
<g id="edge139" class="edge"><title>Node47&#45;&gt;Node15</title>
<path fill="none" stroke="midnightblue" d="M3054.15,-315.661C3137.32,-312.483 3287.73,-298.126 3237,-235 3077.93,-37.0414 2930.33,-148.42 2679,-112 2448.69,-78.6248 2167.56,-69.6993 2075.65,-67.5903"/>
<polygon fill="midnightblue" stroke="midnightblue" points="2075.72,-64.0909 2065.64,-67.3707 2075.56,-71.0892 2075.72,-64.0909"/>
</g>
<!-- Node47&#45;&gt;Node21 -->
<g id="edge143" class="edge"><title>Node47&#45;&gt;Node21</title>
<path fill="none" stroke="midnightblue" d="M2951.84,-310.902C2832.63,-297.857 2539.08,-265.734 2441.28,-255.033"/>
<polygon fill="midnightblue" stroke="midnightblue" points="2441.45,-251.53 2431.13,-253.922 2440.69,-258.489 2441.45,-251.53"/>
</g>
<!-- Node47&#45;&gt;Node24 -->
<g id="edge142" class="edge"><title>Node47&#45;&gt;Node24</title>
<path fill="none" stroke="midnightblue" d="M2975.44,-302.396C2953.55,-291.193 2923.17,-275.641 2901.76,-264.685"/>
<polygon fill="midnightblue" stroke="midnightblue" points="2903.12,-261.447 2892.62,-260.007 2899.93,-267.679 2903.12,-261.447"/>
</g>
<!-- Node47&#45;&gt;Node25 -->
<g id="edge144" class="edge"><title>Node47&#45;&gt;Node25</title>
<path fill="none" stroke="midnightblue" d="M2994.75,-302.396C2989.01,-292.562 2981.3,-279.378 2975.17,-268.892"/>
<polygon fill="midnightblue" stroke="midnightblue" points="2978.15,-267.061 2970.08,-260.195 2972.11,-270.594 2978.15,-267.061"/>
</g>
<!-- Node48 -->
<g id="node48" class="node"><title>Node48</title>
<polygon fill="white" stroke="#bfbfbf" points="3146,-241 3146,-260 3228,-260 3228,-241 3146,-241"/>
<text text-anchor="middle" x="3187" y="-248" font-family="Helvetica,sans-Serif" font-size="10.00">event2/event.h</text>
</g>
<!-- Node47&#45;&gt;Node48 -->
<g id="edge145" class="edge"><title>Node47&#45;&gt;Node48</title>
<path fill="none" stroke="midnightblue" d="M3042.93,-302.396C3075.92,-290.739 3122.25,-274.373 3153.38,-263.376"/>
<polygon fill="midnightblue" stroke="midnightblue" points="3154.66,-266.638 3162.92,-260.007 3152.32,-260.038 3154.66,-266.638"/>
</g>
</g>
</svg>
