<?xml version="1.0" encoding="UTF-8" standalone="no"?>
<!DOCTYPE svg PUBLIC "-//W3C//DTD SVG 1.1//EN"
 "http://www.w3.org/Graphics/SVG/1.1/DTD/svg11.dtd">
<!-- Generated by graphviz version 2.38.0 (20140413.2041)
 -->
<!-- Title: plugins/ioprocessor/scxml/SCXMLIOProcessor.h Pages: 1 -->
<svg width="3227pt" height="743pt"
 viewBox="0.00 0.00 3227.00 743.00" xmlns="http://www.w3.org/2000/svg" xmlns:xlink="http://www.w3.org/1999/xlink">
<g id="graph0" class="graph" transform="scale(1 1) rotate(0) translate(4 739)">
<title>plugins/ioprocessor/scxml/SCXMLIOProcessor.h</title>
<polygon fill="white" stroke="none" points="-4,4 -4,-739 3223,-739 3223,4 -4,4"/>
<!-- Node1 -->
<g id="node1" class="node"><title>Node1</title>
<polygon fill="#bfbfbf" stroke="black" points="1567,-704.5 1567,-734.5 1713,-734.5 1713,-704.5 1567,-704.5"/>
<text text-anchor="start" x="1575" y="-722.5" font-family="Helvetica,sans-Serif" font-size="10.00">plugins/ioprocessor</text>
<text text-anchor="middle" x="1640" y="-711.5" font-family="Helvetica,sans-Serif" font-size="10.00">/scxml/SCXMLIOProcessor.h</text>
</g>
<!-- Node2 -->
<g id="node2" class="node"><title>Node2</title>
<g id="a_node2"><a xlink:href="_i_o_processor_impl_8h.html" target="_top" xlink:title="uscxml/plugins/IOProcessor\lImpl.h">
<polygon fill="white" stroke="black" points="1570,-637.5 1570,-667.5 1710,-667.5 1710,-637.5 1570,-637.5"/>
<text text-anchor="start" x="1578" y="-655.5" font-family="Helvetica,sans-Serif" font-size="10.00">uscxml/plugins/IOProcessor</text>
<text text-anchor="middle" x="1640" y="-644.5" font-family="Helvetica,sans-Serif" font-size="10.00">Impl.h</text>
</a>
</g>
</g>
<!-- Node1&#45;&gt;Node2 -->
<g id="edge1" class="edge"><title>Node1&#45;&gt;Node2</title>
<path fill="none" stroke="midnightblue" d="M1640,-704.396C1640,-696.645 1640,-686.812 1640,-677.86"/>
<polygon fill="midnightblue" stroke="midnightblue" points="1643.5,-677.576 1640,-667.577 1636.5,-677.577 1643.5,-677.576"/>
</g>
<!-- Node3 -->
<g id="node3" class="node"><title>Node3</title>
<g id="a_node3"><a xlink:href="_common_8h.html" target="_top" xlink:title="uscxml/Common.h">
<polygon fill="white" stroke="black" points="1935.5,-56.5 1935.5,-75.5 2034.5,-75.5 2034.5,-56.5 1935.5,-56.5"/>
<text text-anchor="middle" x="1985" y="-63.5" font-family="Helvetica,sans-Serif" font-size="10.00">uscxml/Common.h</text>
</a>
</g>
</g>
<!-- Node2&#45;&gt;Node3 -->
<g id="edge2" class="edge"><title>Node2&#45;&gt;Node3</title>
<path fill="none" stroke="midnightblue" d="M1710.14,-649.609C2016.14,-640.906 3219,-601.81 3219,-525 3219,-525 3219,-525 3219,-193.5 3219,-141.163 3182.17,-132.466 3134,-112 3033.56,-69.3272 2266.48,-66.7213 2044.81,-66.8692"/>
<polygon fill="midnightblue" stroke="midnightblue" points="2044.67,-63.3692 2034.67,-66.8781 2044.68,-70.3692 2044.67,-63.3692"/>
</g>
<!-- Node6 -->
<g id="node6" class="node"><title>Node6</title>
<g id="a_node6"><a xlink:href="_event_handler_8h.html" target="_top" xlink:title="uscxml/plugins/EventHandler.h">
<polygon fill="white" stroke="black" points="1061,-319 1061,-338 1215,-338 1215,-319 1061,-319"/>
<text text-anchor="middle" x="1138" y="-326" font-family="Helvetica,sans-Serif" font-size="10.00">uscxml/plugins/EventHandler.h</text>
</a>
</g>
</g>
<!-- Node2&#45;&gt;Node6 -->
<g id="edge5" class="edge"><title>Node2&#45;&gt;Node6</title>
<path fill="none" stroke="midnightblue" d="M1569.74,-650.5C1507.35,-647.127 1415.15,-635.918 1343,-601 1229.41,-546.024 1183.33,-526.286 1132,-411 1123.01,-390.799 1127.19,-364.986 1131.84,-347.883"/>
<polygon fill="midnightblue" stroke="midnightblue" points="1135.27,-348.633 1134.82,-338.048 1128.57,-346.599 1135.27,-348.633"/>
</g>
<!-- Node7 -->
<g id="node7" class="node"><title>Node7</title>
<g id="a_node7"><a xlink:href="_event_8h.html" target="_top" xlink:title="uscxml/messages/Event.h">
<polygon fill="white" stroke="black" points="1229.5,-252 1229.5,-271 1362.5,-271 1362.5,-252 1229.5,-252"/>
<text text-anchor="middle" x="1296" y="-259" font-family="Helvetica,sans-Serif" font-size="10.00">uscxml/messages/Event.h</text>
</a>
</g>
</g>
<!-- Node2&#45;&gt;Node7 -->
<g id="edge29" class="edge"><title>Node2&#45;&gt;Node7</title>
<path fill="none" stroke="midnightblue" d="M1625.6,-637.39C1582.46,-594.818 1451.19,-463.244 1354,-344 1336.76,-322.844 1318.83,-296.949 1307.55,-280.106"/>
<polygon fill="midnightblue" stroke="midnightblue" points="1310.18,-277.738 1301.74,-271.339 1304.35,-281.608 1310.18,-277.738"/>
</g>
<!-- Node19 -->
<g id="node19" class="node"><title>Node19</title>
<g id="a_node19"><a xlink:href="_interpreter_impl_8h.html" target="_top" xlink:title="uscxml/interpreter\l/InterpreterImpl.h">
<polygon fill="white" stroke="black" points="1875,-570.5 1875,-600.5 1971,-600.5 1971,-570.5 1875,-570.5"/>
<text text-anchor="start" x="1883" y="-588.5" font-family="Helvetica,sans-Serif" font-size="10.00">uscxml/interpreter</text>
<text text-anchor="middle" x="1923" y="-577.5" font-family="Helvetica,sans-Serif" font-size="10.00">/InterpreterImpl.h</text>
</a>
</g>
</g>
<!-- Node2&#45;&gt;Node19 -->
<g id="edge30" class="edge"><title>Node2&#45;&gt;Node19</title>
<path fill="none" stroke="midnightblue" d="M1701.06,-637.476C1749.6,-626.326 1817.06,-610.833 1864.83,-599.86"/>
<polygon fill="midnightblue" stroke="midnightblue" points="1865.75,-603.241 1874.71,-597.591 1864.18,-596.418 1865.75,-603.241"/>
</g>
<!-- Node4 -->
<g id="node4" class="node"><title>Node4</title>
<polygon fill="white" stroke="#bfbfbf" points="1911,-0.5 1911,-19.5 1983,-19.5 1983,-0.5 1911,-0.5"/>
<text text-anchor="middle" x="1947" y="-7.5" font-family="Helvetica,sans-Serif" font-size="10.00">sys/socket.h</text>
</g>
<!-- Node3&#45;&gt;Node4 -->
<g id="edge3" class="edge"><title>Node3&#45;&gt;Node4</title>
<path fill="none" stroke="midnightblue" d="M1978.73,-56.083C1973.36,-48.4554 1965.48,-37.2645 1958.92,-27.9408"/>
<polygon fill="midnightblue" stroke="midnightblue" points="1961.78,-25.9149 1953.16,-19.7511 1956.05,-29.9434 1961.78,-25.9149"/>
</g>
<!-- Node5 -->
<g id="node5" class="node"><title>Node5</title>
<polygon fill="white" stroke="#bfbfbf" points="2001,-0.5 2001,-19.5 2045,-19.5 2045,-0.5 2001,-0.5"/>
<text text-anchor="middle" x="2023" y="-7.5" font-family="Helvetica,sans-Serif" font-size="10.00">cmath</text>
</g>
<!-- Node3&#45;&gt;Node5 -->
<g id="edge4" class="edge"><title>Node3&#45;&gt;Node5</title>
<path fill="none" stroke="midnightblue" d="M1991.27,-56.083C1996.64,-48.4554 2004.52,-37.2645 2011.08,-27.9408"/>
<polygon fill="midnightblue" stroke="midnightblue" points="2013.95,-29.9434 2016.84,-19.7511 2008.22,-25.9149 2013.95,-29.9434"/>
</g>
<!-- Node6&#45;&gt;Node3 -->
<g id="edge6" class="edge"><title>Node6&#45;&gt;Node3</title>
<path fill="none" stroke="midnightblue" d="M1137.81,-318.995C1137.74,-293.715 1141.13,-218.347 1182,-179 1228.6,-134.145 1265.65,-172.892 1323,-143 1341.72,-133.241 1339.48,-120.054 1359,-112 1460.23,-70.2292 1788.45,-66.3111 1924.78,-66.5551"/>
<polygon fill="midnightblue" stroke="midnightblue" points="1925.02,-70.0556 1935.03,-66.582 1925.04,-63.0557 1925.02,-70.0556"/>
</g>
<!-- Node6&#45;&gt;Node7 -->
<g id="edge7" class="edge"><title>Node6&#45;&gt;Node7</title>
<path fill="none" stroke="midnightblue" d="M1158.98,-318.869C1186.25,-307.65 1234.07,-287.977 1265.39,-275.092"/>
<polygon fill="midnightblue" stroke="midnightblue" points="1267.02,-278.209 1274.93,-271.167 1264.35,-271.735 1267.02,-278.209"/>
</g>
<!-- Node9 -->
<g id="node9" class="node"><title>Node9</title>
<polygon fill="white" stroke="#bfbfbf" points="1637.5,-118 1637.5,-137 1666.5,-137 1666.5,-118 1637.5,-118"/>
<text text-anchor="middle" x="1652" y="-125" font-family="Helvetica,sans-Serif" font-size="10.00">list</text>
</g>
<!-- Node6&#45;&gt;Node9 -->
<g id="edge26" class="edge"><title>Node6&#45;&gt;Node9</title>
<path fill="none" stroke="midnightblue" d="M1143.87,-318.963C1155.97,-302.073 1185.47,-264.434 1220,-246 1291.58,-207.78 1320.48,-230.474 1399,-210 1484.34,-187.749 1583.26,-153.299 1627.93,-137.265"/>
<polygon fill="midnightblue" stroke="midnightblue" points="1629.12,-140.553 1637.34,-133.868 1626.75,-133.969 1629.12,-140.553"/>
</g>
<!-- Node11 -->
<g id="node11" class="node"><title>Node11</title>
<polygon fill="white" stroke="#bfbfbf" points="163.5,-56.5 163.5,-75.5 216.5,-75.5 216.5,-56.5 163.5,-56.5"/>
<text text-anchor="middle" x="190" y="-63.5" font-family="Helvetica,sans-Serif" font-size="10.00">memory</text>
</g>
<!-- Node6&#45;&gt;Node11 -->
<g id="edge28" class="edge"><title>Node6&#45;&gt;Node11</title>
<path fill="none" stroke="midnightblue" d="M1097.19,-318.924C1065.59,-311.118 1021.53,-297.625 987,-277 969.724,-266.681 972.533,-253.84 954,-246 874.301,-212.285 235.76,-272.589 176,-210 143.64,-176.108 166.31,-114.956 180.672,-84.8005"/>
<polygon fill="midnightblue" stroke="midnightblue" points="183.969,-86.0328 185.302,-75.5222 177.705,-82.9072 183.969,-86.0328"/>
</g>
<!-- Node14 -->
<g id="node14" class="node"><title>Node14</title>
<polygon fill="white" stroke="#bfbfbf" points="837.5,-56.5 837.5,-75.5 878.5,-75.5 878.5,-56.5 837.5,-56.5"/>
<text text-anchor="middle" x="858" y="-63.5" font-family="Helvetica,sans-Serif" font-size="10.00">string</text>
</g>
<!-- Node6&#45;&gt;Node14 -->
<g id="edge27" class="edge"><title>Node6&#45;&gt;Node14</title>
<path fill="none" stroke="midnightblue" d="M1123.23,-318.953C1096.45,-303.592 1037.96,-270.628 987,-246 882.489,-195.495 810.874,-239.92 747,-143 739.418,-131.496 739.302,-123.427 747,-112 764.767,-85.6256 800.919,-74.7035 827.149,-70.1839"/>
<polygon fill="midnightblue" stroke="midnightblue" points="827.98,-73.5985 837.352,-68.6567 826.944,-66.6756 827.98,-73.5985"/>
</g>
<!-- Node8 -->
<g id="node8" class="node"><title>Node8</title>
<g id="a_node8"><a xlink:href="_data_8h.html" target="_top" xlink:title="uscxml/messages/Data.h">
<polygon fill="white" stroke="black" points="1191,-185 1191,-204 1319,-204 1319,-185 1191,-185"/>
<text text-anchor="middle" x="1255" y="-192" font-family="Helvetica,sans-Serif" font-size="10.00">uscxml/messages/Data.h</text>
</a>
</g>
</g>
<!-- Node7&#45;&gt;Node8 -->
<g id="edge8" class="edge"><title>Node7&#45;&gt;Node8</title>
<path fill="none" stroke="midnightblue" d="M1290.47,-251.734C1284.2,-241.793 1273.82,-225.338 1265.91,-212.789"/>
<polygon fill="midnightblue" stroke="midnightblue" points="1268.74,-210.718 1260.44,-204.127 1262.82,-214.453 1268.74,-210.718"/>
</g>
<!-- Node18 -->
<g id="node18" class="node"><title>Node18</title>
<g id="a_node18"><a xlink:href="_u_u_i_d_8h.html" target="_top" xlink:title="uscxml/util/UUID.h">
<polygon fill="white" stroke="black" points="1411.5,-118 1411.5,-137 1510.5,-137 1510.5,-118 1411.5,-118"/>
<text text-anchor="middle" x="1461" y="-125" font-family="Helvetica,sans-Serif" font-size="10.00">uscxml/util/UUID.h</text>
</a>
</g>
</g>
<!-- Node7&#45;&gt;Node18 -->
<g id="edge23" class="edge"><title>Node7&#45;&gt;Node18</title>
<path fill="none" stroke="midnightblue" d="M1306.83,-251.839C1334.45,-229.737 1407.83,-171.04 1442.44,-143.351"/>
<polygon fill="midnightblue" stroke="midnightblue" points="1444.73,-146.001 1450.35,-137.021 1440.35,-140.535 1444.73,-146.001"/>
</g>
<!-- Node8&#45;&gt;Node3 -->
<g id="edge13" class="edge"><title>Node8&#45;&gt;Node3</title>
<path fill="none" stroke="midnightblue" d="M1275.08,-184.99C1296.43,-175.661 1330.91,-159.774 1359,-143 1379.23,-130.921 1379.88,-120.097 1402,-112 1496.79,-77.3088 1796.12,-69.36 1925.01,-67.5399"/>
<polygon fill="midnightblue" stroke="midnightblue" points="1925.14,-71.0385 1935.1,-67.4051 1925.05,-64.0391 1925.14,-71.0385"/>
</g>
<!-- Node8&#45;&gt;Node9 -->
<g id="edge9" class="edge"><title>Node8&#45;&gt;Node9</title>
<path fill="none" stroke="midnightblue" d="M1299.92,-184.937C1310.74,-182.932 1322.28,-180.845 1333,-179 1442.6,-160.141 1573.85,-140.192 1627.42,-132.162"/>
<polygon fill="midnightblue" stroke="midnightblue" points="1627.98,-135.617 1637.35,-130.676 1626.94,-128.694 1627.98,-135.617"/>
</g>
<!-- Node10 -->
<g id="node10" class="node"><title>Node10</title>
<polygon fill="white" stroke="#bfbfbf" points="756,-118 756,-137 792,-137 792,-118 756,-118"/>
<text text-anchor="middle" x="774" y="-125" font-family="Helvetica,sans-Serif" font-size="10.00">map</text>
</g>
<!-- Node8&#45;&gt;Node10 -->
<g id="edge10" class="edge"><title>Node8&#45;&gt;Node10</title>
<path fill="none" stroke="midnightblue" d="M1191.06,-184.972C1175.36,-182.946 1158.58,-180.84 1143,-179 993.41,-161.329 951.335,-182.587 806,-143 803.848,-142.414 801.659,-141.699 799.485,-140.905"/>
<polygon fill="midnightblue" stroke="midnightblue" points="800.812,-137.667 790.235,-137.064 798.128,-144.131 800.812,-137.667"/>
</g>
<!-- Node8&#45;&gt;Node11 -->
<g id="edge11" class="edge"><title>Node8&#45;&gt;Node11</title>
<path fill="none" stroke="midnightblue" d="M1190.72,-185.188C1087.98,-171.849 896.76,-146.77 882,-143 844.652,-133.462 838.645,-120.287 801,-112 570.422,-61.2441 506.159,-97.0412 271,-76 256.513,-74.7038 240.6,-72.9974 226.742,-71.4192"/>
<polygon fill="midnightblue" stroke="midnightblue" points="226.939,-67.9187 216.603,-70.2463 226.134,-74.8723 226.939,-67.9187"/>
</g>
<!-- Node12 -->
<g id="node12" class="node"><title>Node12</title>
<polygon fill="white" stroke="#bfbfbf" points="2320.5,-118 2320.5,-137 2405.5,-137 2405.5,-118 2320.5,-118"/>
<text text-anchor="middle" x="2363" y="-125" font-family="Helvetica,sans-Serif" font-size="10.00">uscxml/config.h</text>
</g>
<!-- Node8&#45;&gt;Node12 -->
<g id="edge12" class="edge"><title>Node8&#45;&gt;Node12</title>
<path fill="none" stroke="midnightblue" d="M1319.02,-192.274C1516.97,-188.195 2117.47,-173.566 2310,-143 2315.42,-142.14 2321.08,-140.935 2326.59,-139.583"/>
<polygon fill="midnightblue" stroke="midnightblue" points="2327.51,-142.962 2336.29,-137.034 2325.73,-136.192 2327.51,-142.962"/>
</g>
<!-- Node13 -->
<g id="node13" class="node"><title>Node13</title>
<g id="a_node13"><a xlink:href="_convenience_8h.html" target="_top" xlink:title="uscxml/util/Convenience.h">
<polygon fill="white" stroke="black" points="1145.5,-118 1145.5,-137 1278.5,-137 1278.5,-118 1145.5,-118"/>
<text text-anchor="middle" x="1212" y="-125" font-family="Helvetica,sans-Serif" font-size="10.00">uscxml/util/Convenience.h</text>
</a>
</g>
</g>
<!-- Node8&#45;&gt;Node13 -->
<g id="edge14" class="edge"><title>Node8&#45;&gt;Node13</title>
<path fill="none" stroke="midnightblue" d="M1249.2,-184.734C1242.62,-174.793 1231.74,-158.338 1223.44,-145.789"/>
<polygon fill="midnightblue" stroke="midnightblue" points="1226.14,-143.536 1217.71,-137.127 1220.31,-147.399 1226.14,-143.536"/>
</g>
<!-- Node17 -->
<g id="node17" class="node"><title>Node17</title>
<g id="a_node17"><a xlink:href="_blob_8h.html" target="_top" xlink:title="uscxml/messages/Blob.h">
<polygon fill="white" stroke="black" points="1000.5,-118 1000.5,-137 1127.5,-137 1127.5,-118 1000.5,-118"/>
<text text-anchor="middle" x="1064" y="-125" font-family="Helvetica,sans-Serif" font-size="10.00">uscxml/messages/Blob.h</text>
</a>
</g>
</g>
<!-- Node8&#45;&gt;Node17 -->
<g id="edge19" class="edge"><title>Node8&#45;&gt;Node17</title>
<path fill="none" stroke="midnightblue" d="M1229.64,-184.869C1196.01,-173.424 1136.52,-153.181 1098.74,-140.322"/>
<polygon fill="midnightblue" stroke="midnightblue" points="1099.76,-136.972 1089.16,-137.064 1097.5,-143.599 1099.76,-136.972"/>
</g>
<!-- Node13&#45;&gt;Node3 -->
<g id="edge15" class="edge"><title>Node13&#45;&gt;Node3</title>
<path fill="none" stroke="midnightblue" d="M1254.32,-117.999C1266.74,-115.755 1280.38,-113.535 1293,-112 1525.84,-83.68 1805.06,-72.4023 1925.22,-68.6295"/>
<polygon fill="midnightblue" stroke="midnightblue" points="1925.43,-72.1248 1935.32,-68.3185 1925.21,-65.1281 1925.43,-72.1248"/>
</g>
<!-- Node13&#45;&gt;Node14 -->
<g id="edge16" class="edge"><title>Node13&#45;&gt;Node14</title>
<path fill="none" stroke="midnightblue" d="M1168.23,-117.932C1157.69,-115.928 1146.45,-113.842 1136,-112 1046.32,-96.19 939.981,-79.5654 888.693,-71.6802"/>
<polygon fill="midnightblue" stroke="midnightblue" points="889.025,-68.1903 878.61,-70.1337 887.964,-75.1094 889.025,-68.1903"/>
</g>
<!-- Node15 -->
<g id="node15" class="node"><title>Node15</title>
<polygon fill="white" stroke="#bfbfbf" points="280.5,-56.5 280.5,-75.5 319.5,-75.5 319.5,-56.5 280.5,-56.5"/>
<text text-anchor="middle" x="300" y="-63.5" font-family="Helvetica,sans-Serif" font-size="10.00">limits</text>
</g>
<!-- Node13&#45;&gt;Node15 -->
<g id="edge17" class="edge"><title>Node13&#45;&gt;Node15</title>
<path fill="none" stroke="midnightblue" d="M1173.11,-117.981C1161.25,-115.68 1148.14,-113.434 1136,-112 794.887,-71.7126 705.995,-107.951 364,-76 352.772,-74.9511 340.497,-73.3387 329.726,-71.7668"/>
<polygon fill="midnightblue" stroke="midnightblue" points="329.962,-68.2629 319.552,-70.2309 328.917,-75.1845 329.962,-68.2629"/>
</g>
<!-- Node16 -->
<g id="node16" class="node"><title>Node16</title>
<polygon fill="white" stroke="#bfbfbf" points="373,-56.5 373,-75.5 425,-75.5 425,-56.5 373,-56.5"/>
<text text-anchor="middle" x="399" y="-63.5" font-family="Helvetica,sans-Serif" font-size="10.00">sstream</text>
</g>
<!-- Node13&#45;&gt;Node16 -->
<g id="edge18" class="edge"><title>Node13&#45;&gt;Node16</title>
<path fill="none" stroke="midnightblue" d="M1172.31,-117.938C1160.66,-115.693 1147.86,-113.488 1136,-112 868.54,-78.4593 543.211,-69.6579 435.535,-67.5839"/>
<polygon fill="midnightblue" stroke="midnightblue" points="435.285,-64.0787 425.222,-67.3932 435.156,-71.0775 435.285,-64.0787"/>
</g>
<!-- Node17&#45;&gt;Node3 -->
<g id="edge22" class="edge"><title>Node17&#45;&gt;Node3</title>
<path fill="none" stroke="midnightblue" d="M1101.2,-117.933C1112.34,-115.66 1124.61,-113.44 1136,-112 1430.65,-74.7236 1786.61,-68.2449 1925.48,-67.1791"/>
<polygon fill="midnightblue" stroke="midnightblue" points="1925.51,-70.679 1935.49,-67.1088 1925.47,-63.6792 1925.51,-70.679"/>
</g>
<!-- Node17&#45;&gt;Node11 -->
<g id="edge21" class="edge"><title>Node17&#45;&gt;Node11</title>
<path fill="none" stroke="midnightblue" d="M1000.36,-119.966C972.625,-117.259 939.724,-114.236 910,-112 626.351,-90.6639 554.46,-99.7149 271,-76 256.506,-74.7874 240.591,-73.0974 226.734,-71.509"/>
<polygon fill="midnightblue" stroke="midnightblue" points="226.935,-68.0088 216.596,-70.3237 226.122,-74.9614 226.935,-68.0088"/>
</g>
<!-- Node17&#45;&gt;Node14 -->
<g id="edge20" class="edge"><title>Node17&#45;&gt;Node14</title>
<path fill="none" stroke="midnightblue" d="M1034.49,-117.975C995.678,-106.766 927.829,-87.1691 888.525,-75.8167"/>
<polygon fill="midnightblue" stroke="midnightblue" points="889.292,-72.3951 878.713,-72.9827 887.349,-79.1202 889.292,-72.3951"/>
</g>
<!-- Node18&#45;&gt;Node3 -->
<g id="edge24" class="edge"><title>Node18&#45;&gt;Node3</title>
<path fill="none" stroke="midnightblue" d="M1495.06,-117.952C1504.69,-115.762 1515.22,-113.581 1525,-112 1667.68,-88.9509 1837.3,-76.0593 1925.32,-70.442"/>
<polygon fill="midnightblue" stroke="midnightblue" points="1925.62,-73.9299 1935.38,-69.8088 1925.18,-66.9437 1925.62,-73.9299"/>
</g>
<!-- Node18&#45;&gt;Node14 -->
<g id="edge25" class="edge"><title>Node18&#45;&gt;Node14</title>
<path fill="none" stroke="midnightblue" d="M1411.4,-121.606C1291.1,-109.736 986.561,-79.6855 888.751,-70.0343"/>
<polygon fill="midnightblue" stroke="midnightblue" points="888.938,-66.5359 878.643,-69.0369 888.251,-73.5021 888.938,-66.5359"/>
</g>
<!-- Node19&#45;&gt;Node3 -->
<g id="edge36" class="edge"><title>Node19&#45;&gt;Node3</title>
<path fill="none" stroke="midnightblue" d="M1971.16,-585.015C2201.65,-586.858 3181,-587.398 3181,-463.5 3181,-463.5 3181,-463.5 3181,-193.5 3181,-136.851 3135.87,-132.345 3083,-112 2986.1,-74.7113 2260.07,-68.3002 2044.91,-67.2165"/>
<polygon fill="midnightblue" stroke="midnightblue" points="2044.78,-63.7159 2034.76,-67.1674 2044.74,-70.7158 2044.78,-63.7159"/>
</g>
<!-- Node19&#45;&gt;Node9 -->
<g id="edge33" class="edge"><title>Node19&#45;&gt;Node9</title>
<path fill="none" stroke="midnightblue" d="M1930.97,-570.421C1949.18,-536.243 1990.07,-446.786 1960,-380 1953.08,-364.64 1746.66,-188.861 1733,-179 1707.17,-160.346 1697.5,-160.7 1671,-143 1670.91,-142.942 1670.83,-142.884 1670.74,-142.826"/>
<polygon fill="midnightblue" stroke="midnightblue" points="1672.84,-140.025 1662.68,-137.022 1668.75,-145.706 1672.84,-140.025"/>
</g>
<!-- Node19&#45;&gt;Node10 -->
<g id="edge34" class="edge"><title>Node19&#45;&gt;Node10</title>
<path fill="none" stroke="midnightblue" d="M1874.75,-584.533C1698.82,-584.278 1092.31,-580.004 905,-534 709.175,-485.905 622.992,-498.151 493,-344 464.452,-310.146 450.062,-282.595 475,-246 537.518,-154.259 683.58,-134.146 745.473,-129.737"/>
<polygon fill="midnightblue" stroke="midnightblue" points="745.912,-133.217 755.675,-129.101 745.476,-126.23 745.912,-133.217"/>
</g>
<!-- Node19&#45;&gt;Node11 -->
<g id="edge31" class="edge"><title>Node19&#45;&gt;Node11</title>
<path fill="none" stroke="midnightblue" d="M1874.68,-584.667C1633.68,-585.253 560.275,-584.91 231,-534 124.919,-517.599 0,-570.842 0,-463.5 0,-463.5 0,-463.5 0,-193.5 0,-120.566 98.2022,-87.1183 153.407,-74.0776"/>
<polygon fill="midnightblue" stroke="midnightblue" points="154.195,-77.4878 163.181,-71.8752 152.656,-70.6591 154.195,-77.4878"/>
</g>
<!-- Node19&#45;&gt;Node14 -->
<g id="edge35" class="edge"><title>Node19&#45;&gt;Node14</title>
<path fill="none" stroke="midnightblue" d="M1874.99,-584C1581.13,-580.636 38,-558.446 38,-463.5 38,-463.5 38,-463.5 38,-327.5 38,-125.955 244.507,-171.724 437,-112 577.9,-68.2837 756.629,-65.4546 827.274,-66.2724"/>
<polygon fill="midnightblue" stroke="midnightblue" points="827.228,-69.772 837.279,-66.4221 827.333,-62.7728 827.228,-69.772"/>
</g>
<!-- Node20 -->
<g id="node20" class="node"><title>Node20</title>
<polygon fill="white" stroke="#bfbfbf" points="2613,-252 2613,-271 2657,-271 2657,-252 2613,-252"/>
<text text-anchor="middle" x="2635" y="-259" font-family="Helvetica,sans-Serif" font-size="10.00">mutex</text>
</g>
<!-- Node19&#45;&gt;Node20 -->
<g id="edge32" class="edge"><title>Node19&#45;&gt;Node20</title>
<path fill="none" stroke="midnightblue" d="M1971.26,-582.965C2118.46,-578.005 2555.29,-561.14 2613,-534 2681.55,-501.76 2702.74,-481.286 2731,-411 2736.14,-398.217 2735.63,-392.977 2731,-380 2726.77,-368.144 2675.34,-308.494 2649.55,-279.026"/>
<polygon fill="midnightblue" stroke="midnightblue" points="2651.96,-276.464 2642.73,-271.256 2646.7,-281.081 2651.96,-276.464"/>
</g>
<!-- Node21 -->
<g id="node21" class="node"><title>Node21</title>
<g id="a_node21"><a xlink:href="_u_r_l_8h.html" target="_top" xlink:title="uscxml/util/URL.h">
<polygon fill="white" stroke="black" points="642,-319 642,-338 736,-338 736,-319 642,-319"/>
<text text-anchor="middle" x="689" y="-326" font-family="Helvetica,sans-Serif" font-size="10.00">uscxml/util/URL.h</text>
</a>
</g>
</g>
<!-- Node19&#45;&gt;Node21 -->
<g id="edge37" class="edge"><title>Node19&#45;&gt;Node21</title>
<path fill="none" stroke="midnightblue" d="M1874.87,-583.71C1690.61,-580.454 1036.04,-566.676 949,-534 839.075,-492.732 738.892,-386.94 703.007,-346.013"/>
<polygon fill="midnightblue" stroke="midnightblue" points="705.534,-343.584 696.345,-338.311 700.24,-348.164 705.534,-343.584"/>
</g>
<!-- Node27 -->
<g id="node27" class="node"><title>Node27</title>
<g id="a_node27"><a xlink:href="_factory_8h.html" target="_top" xlink:title="uscxml/plugins/Factory.h">
<polygon fill="white" stroke="black" points="958.5,-514.5 958.5,-533.5 1085.5,-533.5 1085.5,-514.5 958.5,-514.5"/>
<text text-anchor="middle" x="1022" y="-521.5" font-family="Helvetica,sans-Serif" font-size="10.00">uscxml/plugins/Factory.h</text>
</a>
</g>
</g>
<!-- Node19&#45;&gt;Node27 -->
<g id="edge49" class="edge"><title>Node19&#45;&gt;Node27</title>
<path fill="none" stroke="midnightblue" d="M1874.88,-581.322C1726.33,-571.513 1274.31,-541.662 1095.72,-529.868"/>
<polygon fill="midnightblue" stroke="midnightblue" points="1095.84,-526.369 1085.63,-529.202 1095.38,-533.354 1095.84,-526.369"/>
</g>
<!-- Node31 -->
<g id="node31" class="node"><title>Node31</title>
<polygon fill="white" stroke="#bfbfbf" points="2437.5,-252 2437.5,-271 2556.5,-271 2556.5,-252 2437.5,-252"/>
<text text-anchor="middle" x="2497" y="-259" font-family="Helvetica,sans-Serif" font-size="10.00">xercesc/dom/DOM.hpp</text>
</g>
<!-- Node19&#45;&gt;Node31 -->
<g id="edge154" class="edge"><title>Node19&#45;&gt;Node31</title>
<path fill="none" stroke="midnightblue" d="M1971.06,-580.646C2121.43,-567.951 2573,-524.731 2573,-463.5 2573,-463.5 2573,-463.5 2573,-394.5 2573,-347.191 2535.88,-301.538 2513.53,-278.332"/>
<polygon fill="midnightblue" stroke="midnightblue" points="2515.86,-275.71 2506.32,-271.094 2510.89,-280.649 2515.86,-275.71"/>
</g>
<!-- Node32 -->
<g id="node32" class="node"><title>Node32</title>
<g id="a_node32"><a xlink:href="_data_model_impl_8h.html" target="_top" xlink:title="uscxml/plugins/DataModel\lImpl.h">
<polygon fill="white" stroke="black" points="1718.5,-447.5 1718.5,-477.5 1851.5,-477.5 1851.5,-447.5 1718.5,-447.5"/>
<text text-anchor="start" x="1726.5" y="-465.5" font-family="Helvetica,sans-Serif" font-size="10.00">uscxml/plugins/DataModel</text>
<text text-anchor="middle" x="1785" y="-454.5" font-family="Helvetica,sans-Serif" font-size="10.00">Impl.h</text>
</a>
</g>
</g>
<!-- Node19&#45;&gt;Node32 -->
<g id="edge84" class="edge"><title>Node19&#45;&gt;Node32</title>
<path fill="none" stroke="midnightblue" d="M1906.9,-570.383C1882.7,-549.162 1836.8,-508.915 1808.74,-484.32"/>
<polygon fill="midnightblue" stroke="midnightblue" points="1810.82,-481.488 1801,-477.527 1806.21,-486.752 1810.82,-481.488"/>
</g>
<!-- Node34 -->
<g id="node34" class="node"><title>Node34</title>
<g id="a_node34"><a xlink:href="_micro_step_impl_8h.html" target="_top" xlink:title="uscxml/interpreter\l/MicroStepImpl.h">
<polygon fill="white" stroke="black" points="2028,-447.5 2028,-477.5 2124,-477.5 2124,-447.5 2028,-447.5"/>
<text text-anchor="start" x="2036" y="-465.5" font-family="Helvetica,sans-Serif" font-size="10.00">uscxml/interpreter</text>
<text text-anchor="middle" x="2076" y="-454.5" font-family="Helvetica,sans-Serif" font-size="10.00">/MicroStepImpl.h</text>
</a>
</g>
</g>
<!-- Node19&#45;&gt;Node34 -->
<g id="edge85" class="edge"><title>Node19&#45;&gt;Node34</title>
<path fill="none" stroke="midnightblue" d="M1943.53,-570.332C1957.65,-560.432 1976.72,-546.753 1993,-534 2013.59,-517.868 2036.17,-498.58 2052.57,-484.26"/>
<polygon fill="midnightblue" stroke="midnightblue" points="2054.88,-486.89 2060.09,-477.665 2050.27,-481.627 2054.88,-486.89"/>
</g>
<!-- Node41 -->
<g id="node41" class="node"><title>Node41</title>
<g id="a_node41"><a xlink:href="_content_executor_impl_8h.html" target="_top" xlink:title="uscxml/interpreter\l/ContentExecutorImpl.h">
<polygon fill="white" stroke="black" points="2601.5,-380.5 2601.5,-410.5 2722.5,-410.5 2722.5,-380.5 2601.5,-380.5"/>
<text text-anchor="start" x="2609.5" y="-398.5" font-family="Helvetica,sans-Serif" font-size="10.00">uscxml/interpreter</text>
<text text-anchor="middle" x="2662" y="-387.5" font-family="Helvetica,sans-Serif" font-size="10.00">/ContentExecutorImpl.h</text>
</a>
</g>
</g>
<!-- Node19&#45;&gt;Node41 -->
<g id="edge117" class="edge"><title>Node19&#45;&gt;Node41</title>
<path fill="none" stroke="midnightblue" d="M1971.05,-583.472C2114.94,-580.034 2535.6,-567.216 2587,-534 2627.22,-508.013 2647.59,-452.717 2656.4,-420.73"/>
<polygon fill="midnightblue" stroke="midnightblue" points="2659.83,-421.41 2658.95,-410.852 2653.06,-419.658 2659.83,-421.41"/>
</g>
<!-- Node42 -->
<g id="node42" class="node"><title>Node42</title>
<g id="a_node42"><a xlink:href="_d_o_m_8h.html" target="_top" xlink:title="uscxml/util/DOM.h">
<polygon fill="white" stroke="black" points="2841,-319 2841,-338 2939,-338 2939,-319 2841,-319"/>
<text text-anchor="middle" x="2890" y="-326" font-family="Helvetica,sans-Serif" font-size="10.00">uscxml/util/DOM.h</text>
</a>
</g>
</g>
<!-- Node19&#45;&gt;Node42 -->
<g id="edge153" class="edge"><title>Node19&#45;&gt;Node42</title>
<path fill="none" stroke="midnightblue" d="M1971.2,-584.664C2145.28,-584.861 2734.82,-581.951 2803,-534 2866.17,-489.568 2883.75,-389.582 2888.41,-348.091"/>
<polygon fill="midnightblue" stroke="midnightblue" points="2891.9,-348.332 2889.4,-338.035 2884.93,-347.64 2891.9,-348.332"/>
</g>
<!-- Node47 -->
<g id="node47" class="node"><title>Node47</title>
<g id="a_node47"><a xlink:href="_event_queue_8h.html" target="_top" xlink:title="uscxml/interpreter\l/EventQueue.h">
<polygon fill="white" stroke="black" points="2373,-313.5 2373,-343.5 2469,-343.5 2469,-313.5 2373,-313.5"/>
<text text-anchor="start" x="2381" y="-331.5" font-family="Helvetica,sans-Serif" font-size="10.00">uscxml/interpreter</text>
<text text-anchor="middle" x="2421" y="-320.5" font-family="Helvetica,sans-Serif" font-size="10.00">/EventQueue.h</text>
</a>
</g>
</g>
<!-- Node19&#45;&gt;Node47 -->
<g id="edge140" class="edge"><title>Node19&#45;&gt;Node47</title>
<path fill="none" stroke="midnightblue" d="M1971.09,-574.363C2056.22,-554.582 2236.06,-504.379 2359,-411 2379.86,-395.158 2397.24,-370.559 2408.24,-352.529"/>
<polygon fill="midnightblue" stroke="midnightblue" points="2411.34,-354.172 2413.4,-343.779 2405.31,-350.618 2411.34,-354.172"/>
</g>
<!-- Node48 -->
<g id="node48" class="node"><title>Node48</title>
<g id="a_node48"><a xlink:href="_event_queue_impl_8h.html" target="_top" xlink:title="uscxml/interpreter\l/EventQueueImpl.h">
<polygon fill="white" stroke="black" points="1659,-313.5 1659,-343.5 1761,-343.5 1761,-313.5 1659,-313.5"/>
<text text-anchor="start" x="1667" y="-331.5" font-family="Helvetica,sans-Serif" font-size="10.00">uscxml/interpreter</text>
<text text-anchor="middle" x="1710" y="-320.5" font-family="Helvetica,sans-Serif" font-size="10.00">/EventQueueImpl.h</text>
</a>
</g>
</g>
<!-- Node19&#45;&gt;Node48 -->
<g id="edge143" class="edge"><title>Node19&#45;&gt;Node48</title>
<path fill="none" stroke="midnightblue" d="M1874.63,-575.444C1823.67,-563.074 1745.81,-535.494 1709,-478 1684.75,-440.124 1694.01,-384.918 1702.38,-353.584"/>
<polygon fill="midnightblue" stroke="midnightblue" points="1705.86,-354.141 1705.24,-343.564 1699.13,-352.217 1705.86,-354.141"/>
</g>
<!-- Node21&#45;&gt;Node3 -->
<g id="edge38" class="edge"><title>Node21&#45;&gt;Node3</title>
<path fill="none" stroke="midnightblue" d="M736.139,-320.274C864.092,-300.432 1215.82,-244.304 1328,-210 1360.93,-199.931 1366.67,-190.857 1399,-179 1451.28,-159.825 1468.93,-167.351 1519,-143 1540.51,-132.539 1540.61,-120.427 1563,-112 1627.77,-87.6211 1824.71,-74.7899 1924.98,-69.6861"/>
<polygon fill="midnightblue" stroke="midnightblue" points="1925.44,-73.1677 1935.25,-69.1731 1925.09,-66.1764 1925.44,-73.1677"/>
</g>
<!-- Node21&#45;&gt;Node7 -->
<g id="edge39" class="edge"><title>Node21&#45;&gt;Node7</title>
<path fill="none" stroke="midnightblue" d="M736.125,-322.454C840.403,-311.287 1091.51,-284.398 1218.98,-270.748"/>
<polygon fill="midnightblue" stroke="midnightblue" points="1219.49,-274.213 1229.06,-269.668 1218.74,-267.253 1219.49,-274.213"/>
</g>
<!-- Node21&#45;&gt;Node9 -->
<g id="edge44" class="edge"><title>Node21&#45;&gt;Node9</title>
<path fill="none" stroke="midnightblue" d="M690.156,-318.739C692.955,-301.445 701.826,-263.118 727,-246 837.639,-170.767 1198.25,-242.659 1328,-210 1359.82,-201.991 1363.79,-189.124 1395,-179 1478.09,-152.046 1581.19,-137.108 1627.49,-131.33"/>
<polygon fill="midnightblue" stroke="midnightblue" points="1627.98,-134.796 1637.49,-130.116 1627.14,-127.847 1627.98,-134.796"/>
</g>
<!-- Node21&#45;&gt;Node10 -->
<g id="edge42" class="edge"><title>Node21&#45;&gt;Node10</title>
<path fill="none" stroke="midnightblue" d="M688.046,-318.641C686.722,-303.35 685.376,-271.217 694,-246 707.888,-205.39 739.828,-165.728 758.883,-144.469"/>
<polygon fill="midnightblue" stroke="midnightblue" points="761.538,-146.752 765.718,-137.016 756.379,-142.021 761.538,-146.752"/>
</g>
<!-- Node21&#45;&gt;Node14 -->
<g id="edge40" class="edge"><title>Node21&#45;&gt;Node14</title>
<path fill="none" stroke="midnightblue" d="M641.967,-325.532C565.525,-320.639 427.402,-303.754 475,-246 528.274,-181.36 592.3,-259.328 660,-210 700.193,-180.715 675.489,-143.464 714,-112 746.802,-85.2005 795.626,-74.3024 827.139,-69.9101"/>
<polygon fill="midnightblue" stroke="midnightblue" points="827.629,-73.3762 837.115,-68.6564 826.756,-66.4308 827.629,-73.3762"/>
</g>
<!-- Node21&#45;&gt;Node16 -->
<g id="edge41" class="edge"><title>Node21&#45;&gt;Node16</title>
<path fill="none" stroke="midnightblue" d="M641.757,-319.93C550.857,-304.232 357.519,-264.959 323,-210 294.843,-165.17 349.224,-108.923 379.957,-82.3084"/>
<polygon fill="midnightblue" stroke="midnightblue" points="382.508,-84.7359 387.91,-75.6215 378.003,-79.3781 382.508,-84.7359"/>
</g>
<!-- Node22 -->
<g id="node22" class="node"><title>Node22</title>
<polygon fill="white" stroke="#bfbfbf" points="915,-252 915,-271 945,-271 945,-252 915,-252"/>
<text text-anchor="middle" x="930" y="-259" font-family="Helvetica,sans-Serif" font-size="10.00">set</text>
</g>
<!-- Node21&#45;&gt;Node22 -->
<g id="edge43" class="edge"><title>Node21&#45;&gt;Node22</title>
<path fill="none" stroke="midnightblue" d="M736.136,-320.615C780.726,-313.148 848.976,-299.223 905,-277 905.877,-276.652 906.761,-276.277 907.645,-275.88"/>
<polygon fill="midnightblue" stroke="midnightblue" points="909.614,-278.801 916.875,-271.085 906.387,-272.59 909.614,-278.801"/>
</g>
<!-- Node23 -->
<g id="node23" class="node"><title>Node23</title>
<polygon fill="white" stroke="#bfbfbf" points="851.5,-252 851.5,-271 896.5,-271 896.5,-252 851.5,-252"/>
<text text-anchor="middle" x="874" y="-259" font-family="Helvetica,sans-Serif" font-size="10.00">thread</text>
</g>
<!-- Node21&#45;&gt;Node23 -->
<g id="edge45" class="edge"><title>Node21&#45;&gt;Node23</title>
<path fill="none" stroke="midnightblue" d="M717.804,-318.998C748.803,-309.616 799.396,-293.629 842,-277 843.42,-276.446 844.869,-275.861 846.326,-275.258"/>
<polygon fill="midnightblue" stroke="midnightblue" points="848.085,-278.31 855.867,-271.121 845.3,-271.888 848.085,-278.31"/>
</g>
<!-- Node24 -->
<g id="node24" class="node"><title>Node24</title>
<polygon fill="white" stroke="#bfbfbf" points="736.5,-252 736.5,-271 833.5,-271 833.5,-252 736.5,-252"/>
<text text-anchor="middle" x="785" y="-259" font-family="Helvetica,sans-Serif" font-size="10.00">condition_variable</text>
</g>
<!-- Node21&#45;&gt;Node24 -->
<g id="edge46" class="edge"><title>Node21&#45;&gt;Node24</title>
<path fill="none" stroke="midnightblue" d="M701.947,-318.734C717.853,-307.964 745.049,-289.55 763.969,-276.739"/>
<polygon fill="midnightblue" stroke="midnightblue" points="765.94,-279.632 772.258,-271.127 762.015,-273.836 765.94,-279.632"/>
</g>
<!-- Node25 -->
<g id="node25" class="node"><title>Node25</title>
<polygon fill="white" stroke="#bfbfbf" points="484,-252 484,-271 544,-271 544,-252 484,-252"/>
<text text-anchor="middle" x="514" y="-259" font-family="Helvetica,sans-Serif" font-size="10.00">curl/curl.h</text>
</g>
<!-- Node21&#45;&gt;Node25 -->
<g id="edge47" class="edge"><title>Node21&#45;&gt;Node25</title>
<path fill="none" stroke="midnightblue" d="M665.898,-318.925C638.839,-308.88 592.664,-291.737 553,-277 550.909,-276.223 548.756,-275.423 546.585,-274.616"/>
<polygon fill="midnightblue" stroke="midnightblue" points="547.689,-271.293 537.096,-271.089 545.25,-277.854 547.689,-271.293"/>
</g>
<!-- Node26 -->
<g id="node26" class="node"><title>Node26</title>
<polygon fill="white" stroke="#bfbfbf" points="562,-252 562,-271 642,-271 642,-252 562,-252"/>
<text text-anchor="middle" x="602" y="-259" font-family="Helvetica,sans-Serif" font-size="10.00">uriparser/Uri.h</text>
</g>
<!-- Node21&#45;&gt;Node26 -->
<g id="edge48" class="edge"><title>Node21&#45;&gt;Node26</title>
<path fill="none" stroke="midnightblue" d="M677.267,-318.734C663.048,-308.111 638.873,-290.049 621.761,-277.264"/>
<polygon fill="midnightblue" stroke="midnightblue" points="623.653,-274.309 613.547,-271.127 619.464,-279.916 623.653,-274.309"/>
</g>
<!-- Node27&#45;&gt;Node3 -->
<g id="edge50" class="edge"><title>Node27&#45;&gt;Node3</title>
<path fill="none" stroke="midnightblue" d="M1052.77,-514.473C1105.74,-498.964 1216.42,-462.88 1299,-411 1466.31,-305.886 1448.53,-194.642 1628,-112 1679.58,-88.2491 1837.95,-75.5373 1925.41,-70.1638"/>
<polygon fill="midnightblue" stroke="midnightblue" points="1925.69,-73.6538 1935.46,-69.5598 1925.27,-66.6664 1925.69,-73.6538"/>
</g>
<!-- Node27&#45;&gt;Node6 -->
<g id="edge57" class="edge"><title>Node27&#45;&gt;Node6</title>
<path fill="none" stroke="midnightblue" d="M1026.05,-514.341C1036.79,-491.627 1067.37,-428.72 1099,-380 1106.67,-368.191 1116.33,-355.661 1124.12,-346.036"/>
<polygon fill="midnightblue" stroke="midnightblue" points="1126.99,-348.063 1130.64,-338.117 1121.58,-343.614 1126.99,-348.063"/>
</g>
<!-- Node27&#45;&gt;Node11 -->
<g id="edge81" class="edge"><title>Node27&#45;&gt;Node11</title>
<path fill="none" stroke="midnightblue" d="M958.252,-521.949C773.337,-518.575 245.296,-506.53 173,-478 120.623,-457.33 76,-452.808 76,-396.5 76,-396.5 76,-396.5 76,-193.5 76,-141.075 130.699,-100.581 164.318,-80.6442"/>
<polygon fill="midnightblue" stroke="midnightblue" points="166.238,-83.5782 173.179,-75.5732 162.761,-77.5028 166.238,-83.5782"/>
</g>
<!-- Node27&#45;&gt;Node14 -->
<g id="edge80" class="edge"><title>Node27&#45;&gt;Node14</title>
<path fill="none" stroke="midnightblue" d="M958.457,-520.292C806.619,-512.653 428.074,-486.354 330,-411 304.128,-391.122 306.817,-375.906 300,-344 295.087,-321.007 304.569,-247.615 306,-246 356.933,-188.524 412.981,-255.292 475,-210 515.512,-180.414 489.433,-140.085 531,-112 578.988,-79.5767 755.045,-70.3005 827.023,-67.8322"/>
<polygon fill="midnightblue" stroke="midnightblue" points="827.371,-71.3229 837.254,-67.5037 827.147,-64.3265 827.371,-71.3229"/>
</g>
<!-- Node27&#45;&gt;Node15 -->
<g id="edge83" class="edge"><title>Node27&#45;&gt;Node15</title>
<path fill="none" stroke="midnightblue" d="M958.284,-522.976C778.059,-522.42 273.617,-517.331 211,-478 123.36,-422.953 148.939,-340.561 191,-246 219.008,-183.033 265.239,-115.255 287.396,-84.2536"/>
<polygon fill="midnightblue" stroke="midnightblue" points="290.439,-86.0167 293.452,-75.8592 284.763,-81.9209 290.439,-86.0167"/>
</g>
<!-- Node27&#45;&gt;Node22 -->
<g id="edge82" class="edge"><title>Node27&#45;&gt;Node22</title>
<path fill="none" stroke="midnightblue" d="M1016.46,-514.308C1010.98,-505.438 1002.62,-491.147 997,-478 966.973,-407.814 943.841,-319.63 934.503,-281.503"/>
<polygon fill="midnightblue" stroke="midnightblue" points="937.802,-280.254 932.056,-271.353 930.997,-281.895 937.802,-280.254"/>
</g>
<!-- Node28 -->
<g id="node28" class="node"><title>Node28</title>
<g id="a_node28"><a xlink:href="_executable_content_8h.html" target="_top" xlink:title="uscxml/plugins/Executable\lContent.h">
<polygon fill="white" stroke="black" points="332,-179.5 332,-209.5 466,-209.5 466,-179.5 332,-179.5"/>
<text text-anchor="start" x="340" y="-197.5" font-family="Helvetica,sans-Serif" font-size="10.00">uscxml/plugins/Executable</text>
<text text-anchor="middle" x="399" y="-186.5" font-family="Helvetica,sans-Serif" font-size="10.00">Content.h</text>
</a>
</g>
</g>
<!-- Node27&#45;&gt;Node28 -->
<g id="edge51" class="edge"><title>Node27&#45;&gt;Node28</title>
<path fill="none" stroke="midnightblue" d="M958.43,-522.736C784.759,-521.535 311.263,-514.877 252,-478 163.288,-422.798 150.588,-329.042 214,-246 227.478,-228.349 277.151,-215.381 321.633,-207.008"/>
<polygon fill="midnightblue" stroke="midnightblue" points="322.409,-210.424 331.619,-205.187 321.153,-203.537 322.409,-210.424"/>
</g>
<!-- Node29 -->
<g id="node29" class="node"><title>Node29</title>
<g id="a_node29"><a xlink:href="_i_o_processor_8h.html" target="_top" xlink:title="uscxml/plugins/IOProcessor.h">
<polygon fill="white" stroke="black" points="1141.5,-386 1141.5,-405 1290.5,-405 1290.5,-386 1141.5,-386"/>
<text text-anchor="middle" x="1216" y="-393" font-family="Helvetica,sans-Serif" font-size="10.00">uscxml/plugins/IOProcessor.h</text>
</a>
</g>
</g>
<!-- Node27&#45;&gt;Node29 -->
<g id="edge58" class="edge"><title>Node27&#45;&gt;Node29</title>
<path fill="none" stroke="midnightblue" d="M1035.33,-514.305C1068.29,-492.814 1153.84,-437.03 1194.25,-410.68"/>
<polygon fill="midnightblue" stroke="midnightblue" points="1196.36,-413.482 1202.83,-405.088 1192.54,-407.619 1196.36,-413.482"/>
</g>
<!-- Node30 -->
<g id="node30" class="node"><title>Node30</title>
<g id="a_node30"><a xlink:href="_invoker_8h.html" target="_top" xlink:title="uscxml/plugins/Invoker.h">
<polygon fill="white" stroke="black" points="1825,-386 1825,-405 1951,-405 1951,-386 1825,-386"/>
<text text-anchor="middle" x="1888" y="-393" font-family="Helvetica,sans-Serif" font-size="10.00">uscxml/plugins/Invoker.h</text>
</a>
</g>
</g>
<!-- Node27&#45;&gt;Node30 -->
<g id="edge62" class="edge"><title>Node27&#45;&gt;Node30</title>
<path fill="none" stroke="midnightblue" d="M1085.55,-523.615C1270.41,-524.851 1798.74,-524.258 1860,-478 1879.37,-463.373 1885.44,-434.55 1887.28,-415.401"/>
<polygon fill="midnightblue" stroke="midnightblue" points="1890.79,-415.391 1887.95,-405.182 1883.8,-414.93 1890.79,-415.391"/>
</g>
<!-- Node27&#45;&gt;Node32 -->
<g id="edge68" class="edge"><title>Node27&#45;&gt;Node32</title>
<path fill="none" stroke="midnightblue" d="M1085.74,-518.029C1225.35,-507.142 1557.68,-481.227 1708.37,-469.476"/>
<polygon fill="midnightblue" stroke="midnightblue" points="1708.76,-472.956 1718.46,-468.689 1708.22,-465.977 1708.76,-472.956"/>
</g>
<!-- Node33 -->
<g id="node33" class="node"><title>Node33</title>
<g id="a_node33"><a xlink:href="_string_8h.html" target="_top" xlink:title="string.h">
<polygon fill="white" stroke="black" points="1085.5,-185 1085.5,-204 1134.5,-204 1134.5,-185 1085.5,-185"/>
<text text-anchor="middle" x="1110" y="-192" font-family="Helvetica,sans-Serif" font-size="10.00">string.h</text>
</a>
</g>
</g>
<!-- Node27&#45;&gt;Node33 -->
<g id="edge77" class="edge"><title>Node27&#45;&gt;Node33</title>
<path fill="none" stroke="midnightblue" d="M1020.74,-514.433C1017.85,-494.048 1011,-441.03 1011,-396.5 1011,-396.5 1011,-396.5 1011,-327.5 1011,-276.099 1059.64,-231.903 1088.73,-210.065"/>
<polygon fill="midnightblue" stroke="midnightblue" points="1091.02,-212.729 1097.06,-204.022 1086.91,-207.064 1091.02,-212.729"/>
</g>
<!-- Node28&#45;&gt;Node3 -->
<g id="edge53" class="edge"><title>Node28&#45;&gt;Node3</title>
<path fill="none" stroke="midnightblue" d="M466.256,-191.806C659.982,-186.629 1210.31,-169.723 1287,-143 1309.59,-135.129 1308.46,-120.005 1331,-112 1439.55,-73.4498 1785.37,-67.729 1925.34,-67.0227"/>
<polygon fill="midnightblue" stroke="midnightblue" points="1925.47,-70.5222 1935.45,-66.9786 1925.44,-63.5223 1925.47,-70.5222"/>
</g>
<!-- Node28&#45;&gt;Node11 -->
<g id="edge55" class="edge"><title>Node28&#45;&gt;Node11</title>
<path fill="none" stroke="midnightblue" d="M375.835,-179.479C335.592,-155.122 253.235,-105.274 213.063,-80.9595"/>
<polygon fill="midnightblue" stroke="midnightblue" points="214.626,-77.8141 204.259,-75.6303 211.001,-83.8026 214.626,-77.8141"/>
</g>
<!-- Node28&#45;&gt;Node12 -->
<g id="edge52" class="edge"><title>Node28&#45;&gt;Node12</title>
<path fill="none" stroke="midnightblue" d="M466.044,-191.949C799.306,-184.21 2263.46,-149.879 2310,-143 2315.49,-142.189 2321.21,-140.999 2326.79,-139.644"/>
<polygon fill="midnightblue" stroke="midnightblue" points="2327.79,-142.998 2336.58,-137.072 2326.01,-136.228 2327.79,-142.998"/>
</g>
<!-- Node28&#45;&gt;Node14 -->
<g id="edge54" class="edge"><title>Node28&#45;&gt;Node14</title>
<path fill="none" stroke="midnightblue" d="M408.312,-179.426C421.689,-160.508 448.259,-127.469 480,-112 541.137,-82.2043 748.302,-71.2316 827.169,-68.0747"/>
<polygon fill="midnightblue" stroke="midnightblue" points="827.56,-71.5624 837.418,-67.68 827.29,-64.5676 827.56,-71.5624"/>
</g>
<!-- Node28&#45;&gt;Node16 -->
<g id="edge56" class="edge"><title>Node28&#45;&gt;Node16</title>
<path fill="none" stroke="midnightblue" d="M399,-179.479C399,-156.719 399,-111.702 399,-86.0582"/>
<polygon fill="midnightblue" stroke="midnightblue" points="402.5,-85.7885 399,-75.7885 395.5,-85.7886 402.5,-85.7885"/>
</g>
<!-- Node29&#45;&gt;Node3 -->
<g id="edge59" class="edge"><title>Node29&#45;&gt;Node3</title>
<path fill="none" stroke="midnightblue" d="M1290.61,-395.323C1422.48,-395.543 1690.38,-390.077 1770,-344 1879.07,-280.88 1848.5,-205.487 1933,-112 1942.88,-101.067 1955.32,-90.2151 1965.56,-81.9079"/>
<polygon fill="midnightblue" stroke="midnightblue" points="1967.87,-84.539 1973.53,-75.5824 1963.52,-79.0548 1967.87,-84.539"/>
</g>
<!-- Node29&#45;&gt;Node6 -->
<g id="edge60" class="edge"><title>Node29&#45;&gt;Node6</title>
<path fill="none" stroke="midnightblue" d="M1205.48,-385.734C1192.85,-375.208 1171.46,-357.379 1156.14,-344.617"/>
<polygon fill="midnightblue" stroke="midnightblue" points="1158.28,-341.84 1148.35,-338.127 1153.79,-347.218 1158.28,-341.84"/>
</g>
<!-- Node29&#45;&gt;Node7 -->
<g id="edge61" class="edge"><title>Node29&#45;&gt;Node7</title>
<path fill="none" stroke="midnightblue" d="M1221.25,-385.839C1234.25,-364.393 1268.13,-308.489 1285.46,-279.895"/>
<polygon fill="midnightblue" stroke="midnightblue" points="1288.65,-281.387 1290.84,-271.021 1282.66,-277.759 1288.65,-281.387"/>
</g>
<!-- Node30&#45;&gt;Node3 -->
<g id="edge64" class="edge"><title>Node30&#45;&gt;Node3</title>
<path fill="none" stroke="midnightblue" d="M1894.3,-385.983C1905.79,-370.67 1931.26,-337.778 1956,-313 1973.61,-295.361 1988.45,-299.583 1999,-277 2029.39,-211.913 2004.85,-122.947 1991.82,-85.1623"/>
<polygon fill="midnightblue" stroke="midnightblue" points="1995.04,-83.7681 1988.36,-75.541 1988.45,-86.1355 1995.04,-83.7681"/>
</g>
<!-- Node30&#45;&gt;Node6 -->
<g id="edge65" class="edge"><title>Node30&#45;&gt;Node6</title>
<path fill="none" stroke="midnightblue" d="M1824.59,-389.012C1717.51,-379.743 1494.02,-360.392 1305,-344 1279.15,-341.758 1251.05,-339.319 1225.4,-337.092"/>
<polygon fill="midnightblue" stroke="midnightblue" points="1225.59,-333.595 1215.32,-336.217 1224.98,-340.569 1225.59,-333.595"/>
</g>
<!-- Node30&#45;&gt;Node7 -->
<g id="edge66" class="edge"><title>Node30&#45;&gt;Node7</title>
<path fill="none" stroke="midnightblue" d="M1824.75,-386.386C1807.93,-384.267 1789.78,-382.014 1773,-380 1632.65,-363.158 1590.1,-391.597 1457,-344 1433.09,-335.449 1431.32,-325.105 1409,-313 1382.06,-298.391 1350.06,-284.386 1327.01,-274.846"/>
<polygon fill="midnightblue" stroke="midnightblue" points="1328.29,-271.591 1317.71,-271.042 1325.64,-278.069 1328.29,-271.591"/>
</g>
<!-- Node30&#45;&gt;Node12 -->
<g id="edge63" class="edge"><title>Node30&#45;&gt;Node12</title>
<path fill="none" stroke="midnightblue" d="M1899.51,-385.962C1924.99,-367.18 1985.79,-323.141 2009,-313 2073.01,-285.031 2097.59,-304.035 2162,-277 2213.39,-255.431 2223.18,-243.121 2268,-210 2296.8,-188.722 2327.88,-161.073 2346.37,-144.068"/>
<polygon fill="midnightblue" stroke="midnightblue" points="2348.98,-146.429 2353.93,-137.065 2344.22,-141.294 2348.98,-146.429"/>
</g>
<!-- Node30&#45;&gt;Node31 -->
<g id="edge67" class="edge"><title>Node30&#45;&gt;Node31</title>
<path fill="none" stroke="midnightblue" d="M1907.03,-385.958C1945.13,-369.226 2033.81,-332.108 2112,-313 2220.27,-286.541 2349.27,-273.195 2427.06,-267.06"/>
<polygon fill="midnightblue" stroke="midnightblue" points="2427.53,-270.535 2437.23,-266.277 2426.99,-263.556 2427.53,-270.535"/>
</g>
<!-- Node32&#45;&gt;Node3 -->
<g id="edge70" class="edge"><title>Node32&#45;&gt;Node3</title>
<path fill="none" stroke="midnightblue" d="M1789.72,-447.427C1795.37,-430.997 1805.41,-403.125 1816,-380 1869.16,-263.864 1946.73,-131.083 1974.57,-84.3555"/>
<polygon fill="midnightblue" stroke="midnightblue" points="1977.74,-85.8789 1979.87,-75.5001 1971.73,-82.286 1977.74,-85.8789"/>
</g>
<!-- Node32&#45;&gt;Node9 -->
<g id="edge74" class="edge"><title>Node32&#45;&gt;Node9</title>
<path fill="none" stroke="midnightblue" d="M1784.24,-447.457C1781.77,-405.473 1773.09,-281.615 1755,-246 1733.55,-203.78 1693.46,-164.505 1670.13,-143.789"/>
<polygon fill="midnightblue" stroke="midnightblue" points="1672.2,-140.949 1662.35,-137.026 1667.6,-146.23 1672.2,-140.949"/>
</g>
<!-- Node32&#45;&gt;Node11 -->
<g id="edge76" class="edge"><title>Node32&#45;&gt;Node11</title>
<path fill="none" stroke="midnightblue" d="M1718.17,-460.665C1440.99,-457.013 393.279,-441.255 330,-411 223.663,-360.159 197.689,-320.62 157,-210 152.567,-197.948 149.957,-136.556 158,-112 161.419,-101.563 168.186,-91.4556 174.62,-83.4727"/>
<polygon fill="midnightblue" stroke="midnightblue" points="177.418,-85.5882 181.297,-75.7293 172.116,-81.017 177.418,-85.5882"/>
</g>
<!-- Node32&#45;&gt;Node12 -->
<g id="edge69" class="edge"><title>Node32&#45;&gt;Node12</title>
<path fill="none" stroke="midnightblue" d="M1851.73,-458.078C1944.6,-452.377 2107.23,-438.714 2159,-411 2271.03,-351.025 2336.56,-199.27 2356.47,-146.734"/>
<polygon fill="midnightblue" stroke="midnightblue" points="2359.85,-147.692 2360.03,-137.098 2353.28,-145.268 2359.85,-147.692"/>
</g>
<!-- Node32&#45;&gt;Node14 -->
<g id="edge75" class="edge"><title>Node32&#45;&gt;Node14</title>
<path fill="none" stroke="midnightblue" d="M1718.49,-461.294C1445.09,-460.174 419.769,-453.164 366,-411 306.783,-364.563 280.29,-304.196 328,-246 379.724,-182.907 443.368,-259.786 508,-210 546.422,-180.403 516.858,-140.637 556,-112 598.843,-80.6553 759.501,-70.8123 827.401,-68.0126"/>
<polygon fill="midnightblue" stroke="midnightblue" points="827.613,-71.5071 837.47,-67.6215 827.342,-64.5124 827.613,-71.5071"/>
</g>
<!-- Node32&#45;&gt;Node29 -->
<g id="edge72" class="edge"><title>Node32&#45;&gt;Node29</title>
<path fill="none" stroke="midnightblue" d="M1718.34,-453.885C1614.5,-442.023 1414.28,-419.151 1300.48,-406.151"/>
<polygon fill="midnightblue" stroke="midnightblue" points="1300.75,-402.659 1290.42,-405.001 1299.96,-409.614 1300.75,-402.659"/>
</g>
<!-- Node32&#45;&gt;Node30 -->
<g id="edge71" class="edge"><title>Node32&#45;&gt;Node30</title>
<path fill="none" stroke="midnightblue" d="M1807.35,-447.396C1824.62,-436.496 1848.42,-421.479 1865.68,-410.584"/>
<polygon fill="midnightblue" stroke="midnightblue" points="1867.93,-413.304 1874.52,-405.007 1864.19,-407.384 1867.93,-413.304"/>
</g>
<!-- Node32&#45;&gt;Node31 -->
<g id="edge73" class="edge"><title>Node32&#45;&gt;Node31</title>
<path fill="none" stroke="midnightblue" d="M1851.61,-456.661C1967.72,-447.906 2202.47,-428.702 2283,-411 2324.32,-401.917 2332.99,-393.749 2373,-380 2419.66,-363.967 2444.93,-380.605 2478,-344 2493.41,-326.94 2497.03,-299.829 2497.55,-281.612"/>
<polygon fill="midnightblue" stroke="midnightblue" points="2501.05,-281.35 2497.54,-271.354 2494.05,-281.357 2501.05,-281.35"/>
</g>
<!-- Node33&#45;&gt;Node9 -->
<g id="edge79" class="edge"><title>Node33&#45;&gt;Node9</title>
<path fill="none" stroke="midnightblue" d="M1134.56,-187.969C1148.43,-184.993 1166.12,-181.442 1182,-179 1330.88,-156.107 1369.24,-159.163 1519,-143 1556.75,-138.926 1600.52,-134.142 1627.23,-131.216"/>
<polygon fill="midnightblue" stroke="midnightblue" points="1627.68,-134.688 1637.24,-130.12 1626.92,-127.73 1627.68,-134.688"/>
</g>
<!-- Node33&#45;&gt;Node14 -->
<g id="edge78" class="edge"><title>Node33&#45;&gt;Node14</title>
<path fill="none" stroke="midnightblue" d="M1087.94,-184.826C1058.57,-173.157 1008.31,-152.748 991,-143 970.473,-131.437 968.157,-124.196 948,-112 928.201,-100.02 904.794,-88.3891 886.814,-79.9537"/>
<polygon fill="midnightblue" stroke="midnightblue" points="887.986,-76.6395 877.441,-75.6142 885.045,-82.9917 887.986,-76.6395"/>
</g>
<!-- Node34&#45;&gt;Node3 -->
<g id="edge90" class="edge"><title>Node34&#45;&gt;Node3</title>
<path fill="none" stroke="midnightblue" d="M2124.25,-462.21C2305.68,-463.957 2944.73,-461.507 3102,-344 3134.48,-319.731 3143,-303.047 3143,-262.5 3143,-262.5 3143,-262.5 3143,-193.5 3143,-127.551 3081.76,-132.274 3019,-112 2926.47,-82.1066 2251.09,-70.5923 2044.73,-67.7492"/>
<polygon fill="midnightblue" stroke="midnightblue" points="2044.73,-64.249 2034.68,-67.6126 2044.63,-71.2484 2044.73,-64.249"/>
</g>
<!-- Node34&#45;&gt;Node7 -->
<g id="edge116" class="edge"><title>Node34&#45;&gt;Node7</title>
<path fill="none" stroke="midnightblue" d="M2027.78,-455.849C1894.24,-439.754 1522.06,-391.747 1409,-344 1370.81,-327.872 1333.11,-296.81 1312.36,-278.039"/>
<polygon fill="midnightblue" stroke="midnightblue" points="1314.51,-275.263 1304.79,-271.051 1309.76,-280.406 1314.51,-275.263"/>
</g>
<!-- Node34&#45;&gt;Node9 -->
<g id="edge87" class="edge"><title>Node34&#45;&gt;Node9</title>
<path fill="none" stroke="midnightblue" d="M2064.18,-447.122C2056.07,-437.128 2045.16,-423.424 2036,-411 1983.26,-339.453 1991.39,-302.764 1923,-246 1866.19,-198.85 1839.55,-206.409 1771,-179 1727.14,-161.463 1712.48,-165.593 1671,-143 1670.81,-142.896 1670.62,-142.79 1670.43,-142.682"/>
<polygon fill="midnightblue" stroke="midnightblue" points="1672.32,-139.737 1662.06,-137.083 1668.42,-145.554 1672.32,-139.737"/>
</g>
<!-- Node34&#45;&gt;Node12 -->
<g id="edge86" class="edge"><title>Node34&#45;&gt;Node12</title>
<path fill="none" stroke="midnightblue" d="M2124.27,-461.14C2169.85,-458.385 2237.78,-447.736 2283,-411 2359.84,-348.577 2357.13,-306.553 2379,-210 2383.91,-188.312 2377.1,-163.178 2370.91,-146.62"/>
<polygon fill="midnightblue" stroke="midnightblue" points="2374.05,-145.057 2367.05,-137.1 2367.56,-147.683 2374.05,-145.057"/>
</g>
<!-- Node34&#45;&gt;Node14 -->
<g id="edge88" class="edge"><title>Node34&#45;&gt;Node14</title>
<path fill="none" stroke="midnightblue" d="M2027.97,-458.033C1984.21,-454.931 1917.78,-450.368 1860,-447 1707.94,-438.137 624.286,-421.235 493,-344 451.365,-319.506 419.156,-286.16 446,-246 469.255,-211.21 497.351,-231.915 533,-210 589.919,-175.008 587.133,-141.668 647,-112 706.557,-82.4854 784.937,-72.2661 827.423,-68.7737"/>
<polygon fill="midnightblue" stroke="midnightblue" points="827.709,-72.2622 837.418,-68.0231 827.184,-65.2819 827.709,-72.2622"/>
</g>
<!-- Node34&#45;&gt;Node31 -->
<g id="edge89" class="edge"><title>Node34&#45;&gt;Node31</title>
<path fill="none" stroke="midnightblue" d="M2124.38,-456.362C2228.61,-444.123 2468.43,-409.282 2511,-344 2523.52,-324.799 2514.98,-297.846 2506.77,-280.28"/>
<polygon fill="midnightblue" stroke="midnightblue" points="2509.79,-278.488 2502.15,-271.152 2503.55,-281.654 2509.79,-278.488"/>
</g>
<!-- Node35 -->
<g id="node35" class="node"><title>Node35</title>
<g id="a_node35"><a xlink:href="_interpreter_8h.html" target="_top" xlink:title="uscxml/Interpreter.h">
<polygon fill="white" stroke="black" points="2045.5,-386 2045.5,-405 2150.5,-405 2150.5,-386 2045.5,-386"/>
<text text-anchor="middle" x="2098" y="-393" font-family="Helvetica,sans-Serif" font-size="10.00">uscxml/Interpreter.h</text>
</a>
</g>
</g>
<!-- Node34&#45;&gt;Node35 -->
<g id="edge91" class="edge"><title>Node34&#45;&gt;Node35</title>
<path fill="none" stroke="midnightblue" d="M2080.77,-447.396C2084,-437.863 2088.29,-425.182 2091.79,-414.862"/>
<polygon fill="midnightblue" stroke="midnightblue" points="2095.17,-415.789 2095.06,-405.195 2088.54,-413.545 2095.17,-415.789"/>
</g>
<!-- Node35&#45;&gt;Node3 -->
<g id="edge92" class="edge"><title>Node35&#45;&gt;Node3</title>
<path fill="none" stroke="midnightblue" d="M2122.51,-385.967C2213.98,-352.932 2524.63,-229.443 2414,-112 2389.17,-85.6351 2156.87,-73.4193 2044.85,-69.0243"/>
<polygon fill="midnightblue" stroke="midnightblue" points="2044.85,-65.5217 2034.72,-68.6353 2044.58,-72.5165 2044.85,-65.5217"/>
</g>
<!-- Node35&#45;&gt;Node10 -->
<g id="edge93" class="edge"><title>Node35&#45;&gt;Node10</title>
<path fill="none" stroke="midnightblue" d="M2045.29,-388.522C2019.58,-385.719 1988.2,-382.462 1960,-380 1730.54,-359.962 1670.04,-382.805 1443,-344 1222.14,-306.252 1168.77,-283.198 957,-210 884.136,-184.814 865.399,-178.568 797,-143 796.581,-142.782 796.16,-142.559 795.737,-142.332"/>
<polygon fill="midnightblue" stroke="midnightblue" points="797.313,-139.199 786.915,-137.167 793.776,-145.24 797.313,-139.199"/>
</g>
<!-- Node35&#45;&gt;Node14 -->
<g id="edge94" class="edge"><title>Node35&#45;&gt;Node14</title>
<path fill="none" stroke="midnightblue" d="M2045.33,-387.997C2019.63,-385.072 1988.24,-381.864 1960,-380 1665.64,-360.572 922.101,-402.687 633,-344 553.006,-327.761 508,-344.429 462,-277 408.146,-198.059 538.904,-235.757 584,-210 639.431,-178.341 633.152,-142.916 689,-112 733.416,-87.4126 791.906,-75.7466 827.138,-70.6118"/>
<polygon fill="midnightblue" stroke="midnightblue" points="827.852,-74.0468 837.284,-69.2209 826.901,-67.1116 827.852,-74.0468"/>
</g>
<!-- Node36 -->
<g id="node36" class="node"><title>Node36</title>
<polygon fill="white" stroke="#bfbfbf" points="2121,-319 2121,-338 2165,-338 2165,-319 2121,-319"/>
<text text-anchor="middle" x="2143" y="-326" font-family="Helvetica,sans-Serif" font-size="10.00">vector</text>
</g>
<!-- Node35&#45;&gt;Node36 -->
<g id="edge95" class="edge"><title>Node35&#45;&gt;Node36</title>
<path fill="none" stroke="midnightblue" d="M2104.07,-385.734C2111.02,-375.695 2122.57,-359.014 2131.29,-346.421"/>
<polygon fill="midnightblue" stroke="midnightblue" points="2134.21,-348.341 2137.03,-338.127 2128.46,-344.357 2134.21,-348.341"/>
</g>
<!-- Node37 -->
<g id="node37" class="node"><title>Node37</title>
<g id="a_node37"><a xlink:href="_micro_step_8h.html" target="_top" xlink:title="uscxml/interpreter\l/MicroStep.h">
<polygon fill="white" stroke="black" points="2089,-179.5 2089,-209.5 2185,-209.5 2185,-179.5 2089,-179.5"/>
<text text-anchor="start" x="2097" y="-197.5" font-family="Helvetica,sans-Serif" font-size="10.00">uscxml/interpreter</text>
<text text-anchor="middle" x="2137" y="-186.5" font-family="Helvetica,sans-Serif" font-size="10.00">/MicroStep.h</text>
</a>
</g>
</g>
<!-- Node35&#45;&gt;Node37 -->
<g id="edge96" class="edge"><title>Node35&#45;&gt;Node37</title>
<path fill="none" stroke="midnightblue" d="M2121.62,-385.993C2139.57,-378.128 2163,-364.523 2174,-344 2195.96,-303.044 2170.64,-248.733 2152.4,-218.434"/>
<polygon fill="midnightblue" stroke="midnightblue" points="2155.29,-216.464 2147.02,-209.843 2149.36,-220.177 2155.29,-216.464"/>
</g>
<!-- Node38 -->
<g id="node38" class="node"><title>Node38</title>
<g id="a_node38"><a xlink:href="_interpreter_state_8h.html" target="_top" xlink:title="uscxml/interpreter\l/InterpreterState.h">
<polygon fill="white" stroke="black" points="2204.5,-112.5 2204.5,-142.5 2301.5,-142.5 2301.5,-112.5 2204.5,-112.5"/>
<text text-anchor="start" x="2212.5" y="-130.5" font-family="Helvetica,sans-Serif" font-size="10.00">uscxml/interpreter</text>
<text text-anchor="middle" x="2253" y="-119.5" font-family="Helvetica,sans-Serif" font-size="10.00">/InterpreterState.h</text>
</a>
</g>
</g>
<!-- Node35&#45;&gt;Node38 -->
<g id="edge115" class="edge"><title>Node35&#45;&gt;Node38</title>
<path fill="none" stroke="midnightblue" d="M2126.97,-385.999C2148.2,-378.325 2176.15,-364.967 2193,-344 2239.21,-286.49 2249.88,-195.669 2252.31,-152.64"/>
<polygon fill="midnightblue" stroke="midnightblue" points="2255.81,-152.694 2252.77,-142.543 2248.82,-152.372 2255.81,-152.694"/>
</g>
<!-- Node39 -->
<g id="node39" class="node"><title>Node39</title>
<g id="a_node39"><a xlink:href="_data_model_8h.html" target="_top" xlink:title="uscxml/plugins/DataModel.h">
<polygon fill="white" stroke="black" points="1499,-319 1499,-338 1641,-338 1641,-319 1499,-319"/>
<text text-anchor="middle" x="1570" y="-326" font-family="Helvetica,sans-Serif" font-size="10.00">uscxml/plugins/DataModel.h</text>
</a>
</g>
</g>
<!-- Node35&#45;&gt;Node39 -->
<g id="edge104" class="edge"><title>Node35&#45;&gt;Node39</title>
<path fill="none" stroke="midnightblue" d="M2045.11,-388.989C1943.66,-378.343 1725.12,-355.029 1650,-344 1641.57,-342.762 1632.66,-341.302 1623.98,-339.792"/>
<polygon fill="midnightblue" stroke="midnightblue" points="1624.38,-336.309 1613.93,-338.009 1623.16,-343.202 1624.38,-336.309"/>
</g>
<!-- Node40 -->
<g id="node40" class="node"><title>Node40</title>
<g id="a_node40"><a xlink:href="_content_executor_8h.html" target="_top" xlink:title="uscxml/interpreter\l/ContentExecutor.h">
<polygon fill="white" stroke="black" points="2051,-246.5 2051,-276.5 2153,-276.5 2153,-246.5 2051,-246.5"/>
<text text-anchor="start" x="2059" y="-264.5" font-family="Helvetica,sans-Serif" font-size="10.00">uscxml/interpreter</text>
<text text-anchor="middle" x="2102" y="-253.5" font-family="Helvetica,sans-Serif" font-size="10.00">/ContentExecutor.h</text>
</a>
</g>
</g>
<!-- Node35&#45;&gt;Node40 -->
<g id="edge110" class="edge"><title>Node35&#45;&gt;Node40</title>
<path fill="none" stroke="midnightblue" d="M2098.26,-385.839C2098.86,-366.019 2100.36,-316.769 2101.26,-286.844"/>
<polygon fill="midnightblue" stroke="midnightblue" points="2104.76,-286.885 2101.57,-276.783 2097.77,-286.673 2104.76,-286.885"/>
</g>
<!-- Node37&#45;&gt;Node3 -->
<g id="edge101" class="edge"><title>Node37&#45;&gt;Node3</title>
<path fill="none" stroke="midnightblue" d="M2120.15,-179.479C2091.45,-155.591 2033.29,-107.187 2003.5,-82.394"/>
<polygon fill="midnightblue" stroke="midnightblue" points="2005.49,-79.4952 1995.56,-75.7885 2001.01,-84.8757 2005.49,-79.4952"/>
</g>
<!-- Node37&#45;&gt;Node9 -->
<g id="edge98" class="edge"><title>Node37&#45;&gt;Node9</title>
<path fill="none" stroke="midnightblue" d="M2088.71,-181.66C2084.09,-180.692 2079.46,-179.786 2075,-179 1924.9,-152.571 1742.35,-135.968 1676.86,-130.497"/>
<polygon fill="midnightblue" stroke="midnightblue" points="1676.95,-126.993 1666.7,-129.66 1676.38,-133.969 1676.95,-126.993"/>
</g>
<!-- Node37&#45;&gt;Node11 -->
<g id="edge97" class="edge"><title>Node37&#45;&gt;Node11</title>
<path fill="none" stroke="midnightblue" d="M2088.91,-192.546C1899.97,-188.617 1208.32,-172.491 991,-143 929.998,-134.722 916.928,-120.809 856,-112 598.189,-74.7247 530.528,-98.39 271,-76 256.509,-74.7498 240.595,-73.0525 226.738,-71.4687"/>
<polygon fill="midnightblue" stroke="midnightblue" points="226.937,-67.9683 216.599,-70.289 226.128,-74.9214 226.937,-67.9683"/>
</g>
<!-- Node37&#45;&gt;Node12 -->
<g id="edge100" class="edge"><title>Node37&#45;&gt;Node12</title>
<path fill="none" stroke="midnightblue" d="M2185.21,-179.636C2226.38,-167.793 2284.89,-150.965 2323.38,-139.894"/>
<polygon fill="midnightblue" stroke="midnightblue" points="2324.55,-143.2 2333.2,-137.072 2322.62,-136.473 2324.55,-143.2"/>
</g>
<!-- Node37&#45;&gt;Node14 -->
<g id="edge99" class="edge"><title>Node37&#45;&gt;Node14</title>
<path fill="none" stroke="midnightblue" d="M2097.77,-179.374C2042.62,-160.235 1938.65,-126.763 1847,-112 1655.79,-81.1981 1034.8,-69.754 888.893,-67.4559"/>
<polygon fill="midnightblue" stroke="midnightblue" points="888.899,-63.9556 878.846,-67.3003 888.791,-70.9548 888.899,-63.9556"/>
</g>
<!-- Node37&#45;&gt;Node38 -->
<g id="edge102" class="edge"><title>Node37&#45;&gt;Node38</title>
<path fill="none" stroke="midnightblue" d="M2162.17,-179.396C2178.74,-170.112 2200.64,-157.841 2218.78,-147.674"/>
<polygon fill="midnightblue" stroke="midnightblue" points="2220.87,-150.518 2227.88,-142.577 2217.44,-144.412 2220.87,-150.518"/>
</g>
<!-- Node38&#45;&gt;Node3 -->
<g id="edge103" class="edge"><title>Node38&#45;&gt;Node3</title>
<path fill="none" stroke="midnightblue" d="M2204.17,-115.21C2199.38,-114.119 2194.6,-113.034 2190,-112 2136.8,-100.038 2075.74,-86.6827 2034.19,-77.6513"/>
<polygon fill="midnightblue" stroke="midnightblue" points="2034.84,-74.2113 2024.33,-75.5087 2033.36,-81.0517 2034.84,-74.2113"/>
</g>
<!-- Node39&#45;&gt;Node3 -->
<g id="edge105" class="edge"><title>Node39&#45;&gt;Node3</title>
<path fill="none" stroke="midnightblue" d="M1576.13,-318.807C1587.35,-303.215 1612.41,-269.895 1638,-246 1712.2,-176.71 1731.53,-156.06 1823,-112 1855.98,-96.1113 1895.54,-84.9897 1927.3,-77.778"/>
<polygon fill="midnightblue" stroke="midnightblue" points="1928.31,-81.1401 1937.32,-75.5728 1926.8,-74.3037 1928.31,-81.1401"/>
</g>
<!-- Node39&#45;&gt;Node7 -->
<g id="edge106" class="edge"><title>Node39&#45;&gt;Node7</title>
<path fill="none" stroke="midnightblue" d="M1533.9,-318.936C1484.61,-307.244 1396.24,-286.28 1342.19,-273.457"/>
<polygon fill="midnightblue" stroke="midnightblue" points="1342.72,-269.986 1332.18,-271.083 1341.1,-276.797 1342.72,-269.986"/>
</g>
<!-- Node39&#45;&gt;Node9 -->
<g id="edge107" class="edge"><title>Node39&#45;&gt;Node9</title>
<path fill="none" stroke="midnightblue" d="M1573.52,-318.949C1585.88,-288.974 1627.39,-188.23 1644.51,-146.666"/>
<polygon fill="midnightblue" stroke="midnightblue" points="1647.82,-147.822 1648.4,-137.243 1641.35,-145.155 1647.82,-147.822"/>
</g>
<!-- Node39&#45;&gt;Node11 -->
<g id="edge109" class="edge"><title>Node39&#45;&gt;Node11</title>
<path fill="none" stroke="midnightblue" d="M1523.33,-318.99C1489.01,-311.395 1442.09,-298.143 1405,-277 1387.23,-266.872 1389.94,-253.714 1371,-246 1155.19,-158.095 535.009,-306.713 323,-210 263.992,-183.082 218.906,-116.544 199.885,-84.6286"/>
<polygon fill="midnightblue" stroke="midnightblue" points="202.683,-82.4751 194.641,-75.5772 196.626,-85.9845 202.683,-82.4751"/>
</g>
<!-- Node39&#45;&gt;Node14 -->
<g id="edge108" class="edge"><title>Node39&#45;&gt;Node14</title>
<path fill="none" stroke="midnightblue" d="M1556.56,-318.745C1529.28,-301.463 1464.89,-263.155 1405,-246 1249.57,-201.481 1197.51,-257.618 1043,-210 983.51,-191.666 967.906,-182.752 920,-143 899.406,-125.911 880.731,-101.162 869.381,-84.5982"/>
<polygon fill="midnightblue" stroke="midnightblue" points="872.046,-82.2872 863.585,-75.9112 866.223,-86.1722 872.046,-82.2872"/>
</g>
<!-- Node40&#45;&gt;Node3 -->
<g id="edge112" class="edge"><title>Node40&#45;&gt;Node3</title>
<path fill="none" stroke="midnightblue" d="M2148.64,-246.36C2166.04,-238.568 2183.98,-226.934 2194,-210 2201.02,-198.143 2201,-190.87 2194,-179 2160.3,-121.812 2086.13,-92.2312 2035.85,-78.1685"/>
<polygon fill="midnightblue" stroke="midnightblue" points="2036.69,-74.7719 2026.13,-75.5593 2034.88,-81.5325 2036.69,-74.7719"/>
</g>
<!-- Node40&#45;&gt;Node8 -->
<g id="edge113" class="edge"><title>Node40&#45;&gt;Node8</title>
<path fill="none" stroke="midnightblue" d="M2050.92,-256.58C1907.04,-245.539 1497.91,-214.141 1329.16,-201.191"/>
<polygon fill="midnightblue" stroke="midnightblue" points="1329.37,-197.697 1319.13,-200.421 1328.83,-204.676 1329.37,-197.697"/>
</g>
<!-- Node40&#45;&gt;Node12 -->
<g id="edge111" class="edge"><title>Node40&#45;&gt;Node12</title>
<path fill="none" stroke="midnightblue" d="M2141.26,-246.442C2166.24,-237.06 2199.03,-223.925 2227,-210 2269.1,-189.041 2315.58,-159.756 2341.85,-142.594"/>
<polygon fill="midnightblue" stroke="midnightblue" points="2343.82,-145.484 2350.25,-137.063 2339.97,-139.636 2343.82,-145.484"/>
</g>
<!-- Node40&#45;&gt;Node14 -->
<g id="edge114" class="edge"><title>Node40&#45;&gt;Node14</title>
<path fill="none" stroke="midnightblue" d="M2071.23,-246.423C2002.13,-215.567 1828.62,-142.318 1675,-112 1520.13,-81.434 1018.38,-70.0236 888.777,-67.5463"/>
<polygon fill="midnightblue" stroke="midnightblue" points="888.809,-64.0464 878.746,-67.3584 888.678,-71.0452 888.809,-64.0464"/>
</g>
<!-- Node41&#45;&gt;Node3 -->
<g id="edge118" class="edge"><title>Node41&#45;&gt;Node3</title>
<path fill="none" stroke="midnightblue" d="M2722.56,-382.673C2727.44,-381.756 2732.3,-380.855 2737,-380 2905.92,-349.265 3105,-434.19 3105,-262.5 3105,-262.5 3105,-262.5 3105,-193.5 3105,-168.291 3237.98,-187.765 2951,-112 2778.73,-66.5179 2228.06,-65.5212 2044.89,-66.5087"/>
<polygon fill="midnightblue" stroke="midnightblue" points="2044.62,-63.0101 2034.64,-66.5681 2044.66,-70.01 2044.62,-63.0101"/>
</g>
<!-- Node41&#45;&gt;Node7 -->
<g id="edge127" class="edge"><title>Node41&#45;&gt;Node7</title>
<path fill="none" stroke="midnightblue" d="M2601.34,-392.852C2368.55,-386.402 1542.85,-362.332 1490,-344 1467.74,-336.28 1467.97,-323.747 1447,-313 1413.19,-295.667 1372.15,-282.387 1341.39,-273.806"/>
<polygon fill="midnightblue" stroke="midnightblue" points="1341.95,-270.331 1331.38,-271.077 1340.11,-277.084 1341.95,-270.331"/>
</g>
<!-- Node41&#45;&gt;Node14 -->
<g id="edge139" class="edge"><title>Node41&#45;&gt;Node14</title>
<path fill="none" stroke="midnightblue" d="M2657.9,-380.471C2647.95,-349.376 2619.27,-275.117 2565,-246 2469.77,-194.905 2186.38,-229.034 2080,-210 2026.97,-200.511 1898.55,-158.647 1847,-143 1803.69,-129.856 1794.53,-120.097 1750,-112 1579.37,-80.9742 1025.87,-69.8104 888.882,-67.4868"/>
<polygon fill="midnightblue" stroke="midnightblue" points="888.742,-63.9841 878.685,-67.3173 888.625,-70.9831 888.742,-63.9841"/>
</g>
<!-- Node41&#45;&gt;Node31 -->
<g id="edge138" class="edge"><title>Node41&#45;&gt;Node31</title>
<path fill="none" stroke="midnightblue" d="M2651.22,-380.257C2637.59,-362.908 2612.79,-333.396 2587,-313 2567.97,-297.952 2543.9,-284.695 2525.43,-275.544"/>
<polygon fill="midnightblue" stroke="midnightblue" points="2526.87,-272.353 2516.35,-271.146 2523.82,-278.653 2526.87,-272.353"/>
</g>
<!-- Node41&#45;&gt;Node42 -->
<g id="edge119" class="edge"><title>Node41&#45;&gt;Node42</title>
<path fill="none" stroke="midnightblue" d="M2711.19,-380.476C2752.77,-368.622 2811.57,-351.858 2850.23,-340.838"/>
<polygon fill="midnightblue" stroke="midnightblue" points="2851.43,-344.136 2860.08,-338.029 2849.51,-337.404 2851.43,-344.136"/>
</g>
<!-- Node45 -->
<g id="node45" class="node"><title>Node45</title>
<g id="a_node45"><a xlink:href="_interpreter_monitor_8h.html" target="_top" xlink:title="uscxml/interpreter\l/InterpreterMonitor.h">
<polygon fill="white" stroke="black" points="2715.5,-313.5 2715.5,-343.5 2822.5,-343.5 2822.5,-313.5 2715.5,-313.5"/>
<text text-anchor="start" x="2723.5" y="-331.5" font-family="Helvetica,sans-Serif" font-size="10.00">uscxml/interpreter</text>
<text text-anchor="middle" x="2769" y="-320.5" font-family="Helvetica,sans-Serif" font-size="10.00">/InterpreterMonitor.h</text>
</a>
</g>
</g>
<!-- Node41&#45;&gt;Node45 -->
<g id="edge128" class="edge"><title>Node41&#45;&gt;Node45</title>
<path fill="none" stroke="midnightblue" d="M2685.22,-380.396C2700.36,-371.197 2720.33,-359.066 2736.97,-348.955"/>
<polygon fill="midnightblue" stroke="midnightblue" points="2739.1,-351.76 2745.83,-343.577 2735.46,-345.777 2739.1,-351.76"/>
</g>
<!-- Node42&#45;&gt;Node3 -->
<g id="edge124" class="edge"><title>Node42&#45;&gt;Node3</title>
<path fill="none" stroke="midnightblue" d="M2939.16,-326.174C2975.43,-322.297 3022.55,-310.552 3047,-277 3110.35,-190.08 3101.14,-195.636 2901,-112 2822.43,-79.1655 2235.45,-69.7828 2044.69,-67.586"/>
<polygon fill="midnightblue" stroke="midnightblue" points="2044.61,-64.085 2034.57,-67.472 2044.53,-71.0845 2044.61,-64.085"/>
</g>
<!-- Node42&#45;&gt;Node9 -->
<g id="edge121" class="edge"><title>Node42&#45;&gt;Node9</title>
<path fill="none" stroke="midnightblue" d="M2871.94,-318.891C2834.53,-301.519 2745.41,-262.524 2666,-246 2410.54,-192.843 2338.91,-242.47 2080,-210 1925.01,-190.563 1741.57,-149.452 1676.43,-134.282"/>
<polygon fill="midnightblue" stroke="midnightblue" points="1677.21,-130.87 1666.68,-131.998 1675.61,-137.686 1677.21,-130.87"/>
</g>
<!-- Node42&#45;&gt;Node12 -->
<g id="edge123" class="edge"><title>Node42&#45;&gt;Node12</title>
<path fill="none" stroke="midnightblue" d="M2880.96,-318.638C2853.55,-292.362 2767.95,-214.5 2681,-179 2592.63,-142.922 2480.68,-132.505 2415.91,-129.568"/>
<polygon fill="midnightblue" stroke="midnightblue" points="2415.68,-126.056 2405.55,-129.144 2415.4,-133.05 2415.68,-126.056"/>
</g>
<!-- Node42&#45;&gt;Node22 -->
<g id="edge120" class="edge"><title>Node42&#45;&gt;Node22</title>
<path fill="none" stroke="midnightblue" d="M2860.83,-318.993C2851.39,-316.602 2840.83,-314.302 2831,-313 2476.01,-265.988 1577.86,-289.942 1220,-277 1122.11,-273.46 1005.76,-266.94 955.356,-264.004"/>
<polygon fill="midnightblue" stroke="midnightblue" points="955.277,-260.493 945.089,-263.402 954.867,-267.481 955.277,-260.493"/>
</g>
<!-- Node42&#45;&gt;Node31 -->
<g id="edge126" class="edge"><title>Node42&#45;&gt;Node31</title>
<path fill="none" stroke="midnightblue" d="M2857.66,-318.99C2849.03,-316.874 2839.69,-314.721 2831,-313 2781.78,-303.252 2649.14,-283.973 2566.58,-272.26"/>
<polygon fill="midnightblue" stroke="midnightblue" points="2566.92,-268.772 2556.52,-270.835 2565.93,-275.703 2566.92,-268.772"/>
</g>
<!-- Node43 -->
<g id="node43" class="node"><title>Node43</title>
<polygon fill="white" stroke="#bfbfbf" points="2837.5,-118 2837.5,-137 2892.5,-137 2892.5,-118 2837.5,-118"/>
<text text-anchor="middle" x="2865" y="-125" font-family="Helvetica,sans-Serif" font-size="10.00">iostream</text>
</g>
<!-- Node42&#45;&gt;Node43 -->
<g id="edge122" class="edge"><title>Node42&#45;&gt;Node43</title>
<path fill="none" stroke="midnightblue" d="M2888.93,-318.949C2885.18,-289.101 2872.61,-189.084 2867.35,-147.199"/>
<polygon fill="midnightblue" stroke="midnightblue" points="2870.82,-146.729 2866.1,-137.243 2863.87,-147.601 2870.82,-146.729"/>
</g>
<!-- Node44 -->
<g id="node44" class="node"><title>Node44</title>
<polygon fill="white" stroke="#bfbfbf" points="2903.5,-252 2903.5,-271 3038.5,-271 3038.5,-252 2903.5,-252"/>
<text text-anchor="middle" x="2971" y="-259" font-family="Helvetica,sans-Serif" font-size="10.00">xercesc/util/XMLString.hpp</text>
</g>
<!-- Node42&#45;&gt;Node44 -->
<g id="edge125" class="edge"><title>Node42&#45;&gt;Node44</title>
<path fill="none" stroke="midnightblue" d="M2900.92,-318.734C2914.04,-308.208 2936.26,-290.379 2952.16,-277.617"/>
<polygon fill="midnightblue" stroke="midnightblue" points="2954.64,-280.116 2960.25,-271.127 2950.26,-274.656 2954.64,-280.116"/>
</g>
<!-- Node45&#45;&gt;Node3 -->
<g id="edge130" class="edge"><title>Node45&#45;&gt;Node3</title>
<path fill="none" stroke="midnightblue" d="M2762.89,-313.286C2755.57,-296.723 2742.59,-268.726 2729,-246 2680.69,-165.217 2654.9,-139.87 2565,-112 2469.2,-82.3013 2172.91,-71.5985 2044.91,-68.2927"/>
<polygon fill="midnightblue" stroke="midnightblue" points="2044.98,-64.7933 2034.89,-68.0402 2044.8,-71.791 2044.98,-64.7933"/>
</g>
<!-- Node45&#45;&gt;Node7 -->
<g id="edge131" class="edge"><title>Node45&#45;&gt;Node7</title>
<path fill="none" stroke="midnightblue" d="M2715.37,-324.714C2656.99,-321.707 2560.87,-316.835 2478,-313 2422.85,-310.448 1626.48,-276.557 1372.93,-265.772"/>
<polygon fill="midnightblue" stroke="midnightblue" points="1372.84,-262.265 1362.7,-265.337 1372.55,-269.259 1372.84,-262.265"/>
</g>
<!-- Node45&#45;&gt;Node12 -->
<g id="edge129" class="edge"><title>Node45&#45;&gt;Node12</title>
<path fill="none" stroke="midnightblue" d="M2747.95,-313.375C2733.77,-303.605 2714.84,-290.061 2699,-277 2683.47,-264.198 2683.54,-255.861 2666,-246 2613.74,-216.62 2592.21,-230.85 2536,-210 2481.6,-189.822 2420.86,-159.216 2387.78,-141.82"/>
<polygon fill="midnightblue" stroke="midnightblue" points="2389.3,-138.665 2378.83,-137.078 2386.02,-144.851 2389.3,-138.665"/>
</g>
<!-- Node45&#45;&gt;Node20 -->
<g id="edge137" class="edge"><title>Node45&#45;&gt;Node20</title>
<path fill="none" stroke="midnightblue" d="M2739.92,-313.396C2716.62,-302.092 2684.19,-286.361 2661.57,-275.39"/>
<polygon fill="midnightblue" stroke="midnightblue" points="2663.06,-272.222 2652.54,-271.007 2660.01,-278.521 2663.06,-272.222"/>
</g>
<!-- Node46 -->
<g id="node46" class="node"><title>Node46</title>
<g id="a_node46"><a xlink:href="_interpreter_issue_8h.html" target="_top" xlink:title="Identifies some common problems with SCXML documents. ">
<polygon fill="white" stroke="black" points="2545.5,-179.5 2545.5,-209.5 2672.5,-209.5 2672.5,-179.5 2545.5,-179.5"/>
<text text-anchor="start" x="2553.5" y="-197.5" font-family="Helvetica,sans-Serif" font-size="10.00">uscxml/debug/Interpreter</text>
<text text-anchor="middle" x="2609" y="-186.5" font-family="Helvetica,sans-Serif" font-size="10.00">Issue.h</text>
</a>
</g>
</g>
<!-- Node45&#45;&gt;Node46 -->
<g id="edge132" class="edge"><title>Node45&#45;&gt;Node46</title>
<path fill="none" stroke="midnightblue" d="M2759.35,-313.5C2746.89,-296.131 2723.82,-266.328 2699,-246 2684.05,-233.758 2665.73,-222.869 2649.53,-214.365"/>
<polygon fill="midnightblue" stroke="midnightblue" points="2650.77,-211.07 2640.27,-209.641 2647.59,-217.305 2650.77,-211.07"/>
</g>
<!-- Node46&#45;&gt;Node3 -->
<g id="edge134" class="edge"><title>Node46&#45;&gt;Node3</title>
<path fill="none" stroke="midnightblue" d="M2600.24,-179.268C2587.6,-160.166 2562.29,-126.915 2531,-112 2446.34,-71.648 2168.11,-66.7614 2044.77,-66.6452"/>
<polygon fill="midnightblue" stroke="midnightblue" points="2044.75,-63.1451 2034.75,-66.6461 2044.75,-70.1451 2044.75,-63.1451"/>
</g>
<!-- Node46&#45;&gt;Node9 -->
<g id="edge135" class="edge"><title>Node46&#45;&gt;Node9</title>
<path fill="none" stroke="midnightblue" d="M2545.47,-189.185C2356.02,-176.317 1800.5,-138.586 1676.66,-130.175"/>
<polygon fill="midnightblue" stroke="midnightblue" points="1676.87,-126.681 1666.65,-129.495 1676.39,-133.665 1676.87,-126.681"/>
</g>
<!-- Node46&#45;&gt;Node12 -->
<g id="edge133" class="edge"><title>Node46&#45;&gt;Node12</title>
<path fill="none" stroke="midnightblue" d="M2555.92,-179.476C2510.78,-167.547 2446.81,-150.644 2405.11,-139.628"/>
<polygon fill="midnightblue" stroke="midnightblue" points="2405.84,-136.199 2395.28,-137.029 2404.05,-142.967 2405.84,-136.199"/>
</g>
<!-- Node46&#45;&gt;Node43 -->
<g id="edge136" class="edge"><title>Node46&#45;&gt;Node43</title>
<path fill="none" stroke="midnightblue" d="M2664.23,-179.476C2713.63,-166.934 2784.67,-148.895 2827.67,-137.978"/>
<polygon fill="midnightblue" stroke="midnightblue" points="2828.61,-141.35 2837.44,-135.497 2826.89,-134.565 2828.61,-141.35"/>
</g>
<!-- Node47&#45;&gt;Node3 -->
<g id="edge141" class="edge"><title>Node47&#45;&gt;Node3</title>
<path fill="none" stroke="midnightblue" d="M2419.91,-313.429C2419.13,-296.759 2419.44,-268.423 2428,-246 2435.13,-227.315 2448.68,-228.974 2455,-210 2468.77,-168.68 2484.29,-144.233 2455,-112 2427.91,-82.1969 2165.44,-71.6325 2044.94,-68.3322"/>
<polygon fill="midnightblue" stroke="midnightblue" points="2044.86,-64.8291 2034.77,-68.0619 2044.67,-71.8266 2044.86,-64.8291"/>
</g>
<!-- Node47&#45;&gt;Node7 -->
<g id="edge142" class="edge"><title>Node47&#45;&gt;Node7</title>
<path fill="none" stroke="midnightblue" d="M2372.73,-324.649C2322.94,-321.713 2243.04,-317.012 2174,-313 1877.86,-295.791 1525.51,-275.616 1372.84,-266.889"/>
<polygon fill="midnightblue" stroke="midnightblue" points="1372.82,-263.382 1362.64,-266.306 1372.42,-270.371 1372.82,-263.382"/>
</g>
<!-- Node48&#45;&gt;Node3 -->
<g id="edge144" class="edge"><title>Node48&#45;&gt;Node3</title>
<path fill="none" stroke="midnightblue" d="M1723.69,-313.483C1732.99,-303.651 1745.31,-289.991 1755,-277 1806.54,-207.888 1789.83,-166.049 1857,-112 1877.31,-95.6544 1903.99,-85.031 1927.73,-78.2373"/>
<polygon fill="midnightblue" stroke="midnightblue" points="1928.95,-81.5334 1937.7,-75.5547 1927.13,-74.7739 1928.95,-81.5334"/>
</g>
<!-- Node48&#45;&gt;Node7 -->
<g id="edge145" class="edge"><title>Node48&#45;&gt;Node7</title>
<path fill="none" stroke="midnightblue" d="M1658.68,-314.758C1655.75,-314.136 1652.84,-313.545 1650,-313 1555.13,-294.813 1444.81,-280.078 1372.87,-271.318"/>
<polygon fill="midnightblue" stroke="midnightblue" points="1372.88,-267.795 1362.54,-270.069 1372.04,-274.744 1372.88,-267.795"/>
</g>
<!-- Node48&#45;&gt;Node9 -->
<g id="edge148" class="edge"><title>Node48&#45;&gt;Node9</title>
<path fill="none" stroke="midnightblue" d="M1721.86,-313.424C1734.6,-296.501 1751.31,-267.673 1738,-246 1719.48,-215.852 1688.18,-238.341 1667,-210 1653.37,-191.763 1650.86,-164.929 1650.93,-147.096"/>
<polygon fill="midnightblue" stroke="midnightblue" points="1654.43,-147.19 1651.24,-137.086 1647.43,-146.971 1654.43,-147.19"/>
</g>
<!-- Node48&#45;&gt;Node10 -->
<g id="edge147" class="edge"><title>Node48&#45;&gt;Node10</title>
<path fill="none" stroke="midnightblue" d="M1666.31,-313.425C1607.55,-295.049 1499.5,-263.207 1405,-246 1245.93,-217.035 1200.7,-245.685 1043,-210 1003.37,-201.033 996.006,-190.37 957,-179 887.024,-158.602 864.363,-170.84 797,-143 796.427,-142.763 795.853,-142.513 795.279,-142.251"/>
<polygon fill="midnightblue" stroke="midnightblue" points="796.685,-139.03 786.234,-137.29 793.319,-145.167 796.685,-139.03"/>
</g>
<!-- Node48&#45;&gt;Node14 -->
<g id="edge146" class="edge"><title>Node48&#45;&gt;Node14</title>
<path fill="none" stroke="midnightblue" d="M1679.24,-313.378C1636.77,-294.564 1557.31,-261.816 1486,-246 1307.42,-206.39 1250.94,-263.46 1076,-210 1048.79,-201.686 1045.17,-192.253 1020,-179 988.342,-162.333 976.671,-164.4 948,-143 932.88,-131.715 933.095,-124.542 919,-112 906.621,-100.986 891.664,-89.9204 879.658,-81.5187"/>
<polygon fill="midnightblue" stroke="midnightblue" points="881.366,-78.4453 871.144,-75.658 877.397,-84.2112 881.366,-78.4453"/>
</g>
<!-- Node48&#45;&gt;Node20 -->
<g id="edge150" class="edge"><title>Node48&#45;&gt;Node20</title>
<path fill="none" stroke="midnightblue" d="M1761.26,-325.452C1920.94,-318.917 2408.1,-297.772 2565,-277 2577.47,-275.35 2591.03,-272.734 2602.87,-270.176"/>
<polygon fill="midnightblue" stroke="midnightblue" points="2603.76,-273.563 2612.76,-267.969 2602.24,-266.732 2603.76,-273.563"/>
</g>
<!-- Node48&#45;&gt;Node23 -->
<g id="edge149" class="edge"><title>Node48&#45;&gt;Node23</title>
<path fill="none" stroke="midnightblue" d="M1658.74,-314.438C1655.79,-313.898 1652.86,-313.412 1650,-313 1322.31,-265.907 1227.81,-354.695 906,-277 903.784,-276.465 901.533,-275.777 899.305,-274.992"/>
<polygon fill="midnightblue" stroke="midnightblue" points="900.436,-271.673 889.856,-271.107 897.773,-278.147 900.436,-271.673"/>
</g>
<!-- Node48&#45;&gt;Node24 -->
<g id="edge151" class="edge"><title>Node48&#45;&gt;Node24</title>
<path fill="none" stroke="midnightblue" d="M1658.74,-314.425C1655.79,-313.888 1652.86,-313.406 1650,-313 1294.09,-262.546 1197.6,-329.585 842,-277 836.047,-276.12 829.813,-274.876 823.744,-273.483"/>
<polygon fill="midnightblue" stroke="midnightblue" points="824.311,-270.018 813.765,-271.036 822.643,-276.817 824.311,-270.018"/>
</g>
<!-- Node49 -->
<g id="node49" class="node"><title>Node49</title>
<polygon fill="white" stroke="#bfbfbf" points="1647,-252 1647,-271 1729,-271 1729,-252 1647,-252"/>
<text text-anchor="middle" x="1688" y="-259" font-family="Helvetica,sans-Serif" font-size="10.00">event2/event.h</text>
</g>
<!-- Node48&#45;&gt;Node49 -->
<g id="edge152" class="edge"><title>Node48&#45;&gt;Node49</title>
<path fill="none" stroke="midnightblue" d="M1705.23,-313.396C1702,-303.863 1697.71,-291.182 1694.21,-280.862"/>
<polygon fill="midnightblue" stroke="midnightblue" points="1697.46,-279.545 1690.94,-271.195 1690.83,-281.789 1697.46,-279.545"/>
</g>
</g>
</svg>
