<?xml version="1.0" encoding="UTF-8" standalone="no"?>
<!DOCTYPE svg PUBLIC "-//W3C//DTD SVG 1.1//EN"
 "http://www.w3.org/Graphics/SVG/1.1/DTD/svg11.dtd">
<!-- Generated by graphviz version 2.40.1 (20161225.0304)
 -->
<!-- Title: util/SHA1.hpp Pages: 1 -->
<svg width="395pt" height="140pt"
 viewBox="0.00 0.00 394.50 140.00" xmlns="http://www.w3.org/2000/svg" xmlns:xlink="http://www.w3.org/1999/xlink">
<g id="graph0" class="graph" transform="scale(1 1) rotate(0) translate(4 136)">
<title>util/SHA1.hpp</title>
<polygon fill="#ffffff" stroke="transparent" points="-4,4 -4,-136 390.5,-136 390.5,4 -4,4"/>
<!-- Node1 -->
<g id="node1" class="node">
<title>Node1</title>
<polygon fill="#bfbfbf" stroke="#000000" points="123.5,-112.5 123.5,-131.5 201.5,-131.5 201.5,-112.5 123.5,-112.5"/>
<text text-anchor="middle" x="162.5" y="-119.5" font-family="Helvetica,sans-Serif" font-size="10.00" fill="#000000">util/SHA1.hpp</text>
</g>
<!-- Node2 -->
<g id="node2" class="node">
<title>Node2</title>
<g id="a_node2"><a xlink:href="$_s_h_a1_8h_source.html" xlink:title="SHA1.h">
<polygon fill="#ffffff" stroke="#000000" points="0,-56.5 0,-75.5 51,-75.5 51,-56.5 0,-56.5"/>
<text text-anchor="middle" x="25.5" y="-63.5" font-family="Helvetica,sans-Serif" font-size="10.00" fill="#000000">SHA1.h</text>
</a>
</g>
</g>
<!-- Node1&#45;&gt;Node2 -->
<g id="edge1" class="edge">
<title>Node1&#45;&gt;Node2</title>
<path fill="none" stroke="#191970" d="M138.9489,-112.3733C116.6609,-103.2629 83.0063,-89.5062 58.1363,-79.3404"/>
<polygon fill="#191970" stroke="#191970" points="59.3247,-76.0451 48.7438,-75.5011 56.6761,-82.5247 59.3247,-76.0451"/>
</g>
<!-- Node3 -->
<g id="node3" class="node">
<title>Node3</title>
<g id="a_node3"><a xlink:href="$_string_8h.html" xlink:title="string.h">
<polygon fill="#ffffff" stroke="#000000" points="69,-56.5 69,-75.5 118,-75.5 118,-56.5 69,-56.5"/>
<text text-anchor="middle" x="93.5" y="-63.5" font-family="Helvetica,sans-Serif" font-size="10.00" fill="#000000">string.h</text>
</a>
</g>
</g>
<!-- Node1&#45;&gt;Node3 -->
<g id="edge2" class="edge">
<title>Node1&#45;&gt;Node3</title>
<path fill="none" stroke="#191970" d="M150.4811,-112.2455C140.2902,-103.9746 125.4638,-91.9416 113.4893,-82.2232"/>
<polygon fill="#191970" stroke="#191970" points="115.3514,-79.2268 105.3812,-75.6427 110.9402,-84.662 115.3514,-79.2268"/>
</g>
<!-- Node6 -->
<g id="node6" class="node">
<title>Node6</title>
<polygon fill="#ffffff" stroke="#bfbfbf" points="136.5,-56.5 136.5,-75.5 188.5,-75.5 188.5,-56.5 136.5,-56.5"/>
<text text-anchor="middle" x="162.5" y="-63.5" font-family="Helvetica,sans-Serif" font-size="10.00" fill="#000000">sstream</text>
</g>
<!-- Node1&#45;&gt;Node6 -->
<g id="edge5" class="edge">
<title>Node1&#45;&gt;Node6</title>
<path fill="none" stroke="#191970" d="M162.5,-112.2455C162.5,-104.9382 162.5,-94.6944 162.5,-85.7046"/>
<polygon fill="#191970" stroke="#191970" points="166.0001,-85.6426 162.5,-75.6427 159.0001,-85.6427 166.0001,-85.6426"/>
</g>
<!-- Node7 -->
<g id="node7" class="node">
<title>Node7</title>
<polygon fill="#ffffff" stroke="#bfbfbf" points="206.5,-56.5 206.5,-75.5 258.5,-75.5 258.5,-56.5 206.5,-56.5"/>
<text text-anchor="middle" x="232.5" y="-63.5" font-family="Helvetica,sans-Serif" font-size="10.00" fill="#000000">iomanip</text>
</g>
<!-- Node1&#45;&gt;Node7 -->
<g id="edge6" class="edge">
<title>Node1&#45;&gt;Node7</title>
<path fill="none" stroke="#191970" d="M174.6931,-112.2455C185.1321,-103.8943 200.3655,-91.7076 212.574,-81.9408"/>
<polygon fill="#191970" stroke="#191970" points="214.8244,-84.6227 220.4467,-75.6427 210.4515,-79.1566 214.8244,-84.6227"/>
</g>
<!-- Node8 -->
<g id="node8" class="node">
<title>Node8</title>
<g id="a_node8"><a xlink:href="$_common_8h.html" xlink:title="uscxml/Common.h">
<polygon fill="#ffffff" stroke="#000000" points="277,-56.5 277,-75.5 376,-75.5 376,-56.5 277,-56.5"/>
<text text-anchor="middle" x="326.5" y="-63.5" font-family="Helvetica,sans-Serif" font-size="10.00" fill="#000000">uscxml/Common.h</text>
</a>
</g>
</g>
<!-- Node1&#45;&gt;Node8 -->
<g id="edge7" class="edge">
<title>Node1&#45;&gt;Node8</title>
<path fill="none" stroke="#191970" d="M190.6926,-112.3733C217.8453,-103.1016 259.0907,-89.0178 289.0025,-78.804"/>
<polygon fill="#191970" stroke="#191970" points="290.3428,-82.0449 298.6753,-75.5011 288.0808,-75.4204 290.3428,-82.0449"/>
</g>
<!-- Node4 -->
<g id="node4" class="node">
<title>Node4</title>
<polygon fill="#ffffff" stroke="#bfbfbf" points="47,-.5 47,-19.5 88,-19.5 88,-.5 47,-.5"/>
<text text-anchor="middle" x="67.5" y="-7.5" font-family="Helvetica,sans-Serif" font-size="10.00" fill="#000000">string</text>
</g>
<!-- Node3&#45;&gt;Node4 -->
<g id="edge3" class="edge">
<title>Node3&#45;&gt;Node4</title>
<path fill="none" stroke="#191970" d="M88.9711,-56.2455C85.4666,-48.6973 80.5073,-38.0158 76.2377,-28.8197"/>
<polygon fill="#191970" stroke="#191970" points="79.3627,-27.2389 71.977,-19.6427 73.0136,-30.1867 79.3627,-27.2389"/>
</g>
<!-- Node5 -->
<g id="node5" class="node">
<title>Node5</title>
<polygon fill="#ffffff" stroke="#bfbfbf" points="106,-.5 106,-19.5 135,-19.5 135,-.5 106,-.5"/>
<text text-anchor="middle" x="120.5" y="-7.5" font-family="Helvetica,sans-Serif" font-size="10.00" fill="#000000">list</text>
</g>
<!-- Node3&#45;&gt;Node5 -->
<g id="edge4" class="edge">
<title>Node3&#45;&gt;Node5</title>
<path fill="none" stroke="#191970" d="M98.203,-56.2455C101.8424,-48.6973 106.9924,-38.0158 111.4262,-28.8197"/>
<polygon fill="#191970" stroke="#191970" points="114.6605,-30.1704 115.8509,-19.6427 108.3551,-27.1303 114.6605,-30.1704"/>
</g>
<!-- Node9 -->
<g id="node9" class="node">
<title>Node9</title>
<polygon fill="#ffffff" stroke="#bfbfbf" points="252.5,-.5 252.5,-19.5 324.5,-19.5 324.5,-.5 252.5,-.5"/>
<text text-anchor="middle" x="288.5" y="-7.5" font-family="Helvetica,sans-Serif" font-size="10.00" fill="#000000">sys/socket.h</text>
</g>
<!-- Node8&#45;&gt;Node9 -->
<g id="edge8" class="edge">
<title>Node8&#45;&gt;Node9</title>
<path fill="none" stroke="#191970" d="M319.8809,-56.2455C314.5954,-48.4564 307.0459,-37.3308 300.6762,-27.9439"/>
<polygon fill="#191970" stroke="#191970" points="303.5545,-25.9522 295.0432,-19.6427 297.7621,-29.8827 303.5545,-25.9522"/>
</g>
<!-- Node10 -->
<g id="node10" class="node">
<title>Node10</title>
<polygon fill="#ffffff" stroke="#bfbfbf" points="342.5,-.5 342.5,-19.5 386.5,-19.5 386.5,-.5 342.5,-.5"/>
<text text-anchor="middle" x="364.5" y="-7.5" font-family="Helvetica,sans-Serif" font-size="10.00" fill="#000000">cmath</text>
</g>
<!-- Node8&#45;&gt;Node10 -->
<g id="edge9" class="edge">
<title>Node8&#45;&gt;Node10</title>
<path fill="none" stroke="#191970" d="M333.1191,-56.2455C338.4046,-48.4564 345.9541,-37.3308 352.3238,-27.9439"/>
<polygon fill="#191970" stroke="#191970" points="355.2379,-29.8827 357.9568,-19.6427 349.4455,-25.9522 355.2379,-29.8827"/>
</g>
</g>
</svg>
