<?xml version="1.0" encoding="UTF-8" standalone="no"?>
<!DOCTYPE svg PUBLIC "-//W3C//DTD SVG 1.1//EN"
 "http://www.w3.org/Graphics/SVG/1.1/DTD/svg11.dtd">
<!-- Generated by graphviz version 2.38.0 (20140413.2041)
 -->
<!-- Title: interpreter/StdOutLogger.h Pages: 1 -->
<svg width="292pt" height="84pt"
 viewBox="0.00 0.00 291.50 84.00" xmlns="http://www.w3.org/2000/svg" xmlns:xlink="http://www.w3.org/1999/xlink">
<g id="graph0" class="graph" transform="scale(1 1) rotate(0) translate(4 80)">
<title>interpreter/StdOutLogger.h</title>
<polygon fill="white" stroke="none" points="-4,4 -4,-80 287.5,-80 287.5,4 -4,4"/>
<!-- Node1 -->
<g id="node1" class="node"><title>Node1</title>
<polygon fill="#bfbfbf" stroke="black" points="67,-56.5 67,-75.5 202,-75.5 202,-56.5 67,-56.5"/>
<text text-anchor="middle" x="134.5" y="-63.5" font-family="Helvetica,sans-Serif" font-size="10.00">interpreter/StdOutLogger.h</text>
</g>
<!-- Node2 -->
<g id="node2" class="node"><title>Node2</title>
<g id="a_node2"><a xlink:href="_logging_8cpp.html" target="_top" xlink:title="interpreter/Logging.cpp">
<polygon fill="white" stroke="black" points="0,-0.5 0,-19.5 119,-19.5 119,-0.5 0,-0.5"/>
<text text-anchor="middle" x="59.5" y="-7.5" font-family="Helvetica,sans-Serif" font-size="10.00">interpreter/Logging.cpp</text>
</a>
</g>
</g>
<!-- Node1&#45;&gt;Node2 -->
<g id="edge1" class="edge"><title>Node1&#45;&gt;Node2</title>
<path fill="none" stroke="midnightblue" d="M114.195,-50.3804C100.639,-40.6204 83.2579,-28.1057 71.7693,-19.8339"/>
<polygon fill="midnightblue" stroke="midnightblue" points="112.29,-53.3213 122.45,-56.324 116.38,-47.6405 112.29,-53.3213"/>
</g>
<!-- Node3 -->
<g id="node3" class="node"><title>Node3</title>
<g id="a_node3"><a xlink:href="_std_out_logger_8cpp.html" target="_top" xlink:title="interpreter/StdOutLogger.cpp">
<polygon fill="white" stroke="black" points="137.5,-0.5 137.5,-19.5 283.5,-19.5 283.5,-0.5 137.5,-0.5"/>
<text text-anchor="middle" x="210.5" y="-7.5" font-family="Helvetica,sans-Serif" font-size="10.00">interpreter/StdOutLogger.cpp</text>
</a>
</g>
</g>
<!-- Node1&#45;&gt;Node3 -->
<g id="edge2" class="edge"><title>Node1&#45;&gt;Node3</title>
<path fill="none" stroke="midnightblue" d="M155.076,-50.3804C168.812,-40.6204 186.425,-28.1057 198.067,-19.8339"/>
<polygon fill="midnightblue" stroke="midnightblue" points="152.835,-47.6787 146.711,-56.324 156.89,-53.385 152.835,-47.6787"/>
</g>
</g>
</svg>
