<?xml version="1.0" encoding="UTF-8" standalone="no"?>
<!DOCTYPE svg PUBLIC "-//W3C//DTD SVG 1.1//EN"
 "http://www.w3.org/Graphics/SVG/1.1/DTD/svg11.dtd">
<!-- Generated by graphviz version 2.40.1 (20161225.0304)
 -->
<!-- Title: transform/Transformer.h Pages: 1 -->
<svg width="636pt" height="207pt"
 viewBox="0.00 0.00 635.50 207.00" xmlns="http://www.w3.org/2000/svg" xmlns:xlink="http://www.w3.org/1999/xlink">
<g id="graph0" class="graph" transform="scale(1 1) rotate(0) translate(4 203)">
<title>transform/Transformer.h</title>
<polygon fill="#ffffff" stroke="transparent" points="-4,4 -4,-203 631.5,-203 631.5,4 -4,4"/>
<!-- Node1 -->
<g id="node1" class="node">
<title>Node1</title>
<polygon fill="#bfbfbf" stroke="#000000" points="319,-179.5 319,-198.5 443,-198.5 443,-179.5 319,-179.5"/>
<text text-anchor="middle" x="381" y="-186.5" font-family="Helvetica,sans-Serif" font-size="10.00" fill="#000000">transform/Transformer.h</text>
</g>
<!-- Node2 -->
<g id="node2" class="node">
<title>Node2</title>
<g id="a_node2"><a xlink:href="$_chart_to_c_8h.html" xlink:title="transform/ChartToC.h">
<polygon fill="#ffffff" stroke="#000000" points="239.5,-123.5 239.5,-142.5 352.5,-142.5 352.5,-123.5 239.5,-123.5"/>
<text text-anchor="middle" x="296" y="-130.5" font-family="Helvetica,sans-Serif" font-size="10.00" fill="#000000">transform/ChartToC.h</text>
</a>
</g>
</g>
<!-- Node1&#45;&gt;Node2 -->
<g id="edge1" class="edge">
<title>Node1&#45;&gt;Node2</title>
<path fill="none" stroke="#191970" d="M357.4581,-173.49C342.461,-163.6096 323.5027,-151.1194 310.6362,-142.6427"/>
<polygon fill="#191970" stroke="#191970" points="355.9179,-176.6666 366.1941,-179.2455 359.7691,-170.8212 355.9179,-176.6666"/>
</g>
<!-- Node4 -->
<g id="node4" class="node">
<title>Node4</title>
<g id="a_node4"><a xlink:href="$_chart_to_java_8h.html" xlink:title="transform/ChartToJava.h">
<polygon fill="#ffffff" stroke="#000000" points="21.5,-67.5 21.5,-86.5 148.5,-86.5 148.5,-67.5 21.5,-67.5"/>
<text text-anchor="middle" x="85" y="-74.5" font-family="Helvetica,sans-Serif" font-size="10.00" fill="#000000">transform/ChartToJava.h</text>
</a>
</g>
</g>
<!-- Node1&#45;&gt;Node4 -->
<g id="edge10" class="edge">
<title>Node1&#45;&gt;Node4</title>
<path fill="none" stroke="#191970" d="M335.0246,-176.6932C304.8331,-168.1974 264.6612,-156.103 230,-143 183.6895,-125.4932 131.2499,-100.2007 103.8938,-86.5695"/>
<polygon fill="#191970" stroke="#191970" points="334.286,-180.1207 344.8585,-179.4327 336.1646,-173.3774 334.286,-180.1207"/>
</g>
<!-- Node6 -->
<g id="node6" class="node">
<title>Node6</title>
<g id="a_node6"><a xlink:href="$_chart_to_promela_8h.html" xlink:title="transform/ChartToPromela.h">
<polygon fill="#ffffff" stroke="#000000" points="309.5,-67.5 309.5,-86.5 452.5,-86.5 452.5,-67.5 309.5,-67.5"/>
<text text-anchor="middle" x="381" y="-74.5" font-family="Helvetica,sans-Serif" font-size="10.00" fill="#000000">transform/ChartToPromela.h</text>
</a>
</g>
</g>
<!-- Node1&#45;&gt;Node6 -->
<g id="edge11" class="edge">
<title>Node1&#45;&gt;Node6</title>
<path fill="none" stroke="#191970" d="M381,-169.2702C381,-144.9985 381,-104.7725 381,-86.5249"/>
<polygon fill="#191970" stroke="#191970" points="377.5001,-169.4509 381,-179.4509 384.5001,-169.451 377.5001,-169.4509"/>
</g>
<!-- Node9 -->
<g id="node9" class="node">
<title>Node9</title>
<g id="a_node9"><a xlink:href="$_chart_to_v_h_d_l_8h.html" xlink:title="transform/ChartToVHDL.h">
<polygon fill="#ffffff" stroke="#000000" points="470.5,-67.5 470.5,-86.5 603.5,-86.5 603.5,-67.5 470.5,-67.5"/>
<text text-anchor="middle" x="537" y="-74.5" font-family="Helvetica,sans-Serif" font-size="10.00" fill="#000000">transform/ChartToVHDL.h</text>
</a>
</g>
</g>
<!-- Node1&#45;&gt;Node9 -->
<g id="edge12" class="edge">
<title>Node1&#45;&gt;Node9</title>
<path fill="none" stroke="#191970" d="M393.4,-170.7798C403.936,-156.3585 420.1589,-136.4703 438,-123 459.478,-106.7838 487.5889,-94.4043 508.3662,-86.5945"/>
<polygon fill="#191970" stroke="#191970" points="390.2581,-169.1605 387.3377,-179.3449 395.9718,-173.2046 390.2581,-169.1605"/>
</g>
<!-- Node11 -->
<g id="node11" class="node">
<title>Node11</title>
<g id="a_node11"><a xlink:href="$_transformer_8cpp.html" xlink:title="transform/Transformer.cpp">
<polygon fill="#ffffff" stroke="#000000" points="447.5,-123.5 447.5,-142.5 582.5,-142.5 582.5,-123.5 447.5,-123.5"/>
<text text-anchor="middle" x="515" y="-130.5" font-family="Helvetica,sans-Serif" font-size="10.00" fill="#000000">transform/Transformer.cpp</text>
</a>
</g>
</g>
<!-- Node1&#45;&gt;Node11 -->
<g id="edge13" class="edge">
<title>Node1&#45;&gt;Node11</title>
<path fill="none" stroke="#191970" d="M413.5828,-175.3833C437.9536,-165.1985 470.6642,-151.5284 492.2652,-142.5011"/>
<polygon fill="#191970" stroke="#191970" points="411.9125,-172.2879 404.0354,-179.3733 414.6117,-178.7466 411.9125,-172.2879"/>
</g>
<!-- Node3 -->
<g id="node3" class="node">
<title>Node3</title>
<g id="a_node3"><a xlink:href="$_chart_to_c_8cpp.html" xlink:title="transform/ChartToC.cpp">
<polygon fill="#ffffff" stroke="#000000" points="167,-67.5 167,-86.5 291,-86.5 291,-67.5 167,-67.5"/>
<text text-anchor="middle" x="229" y="-74.5" font-family="Helvetica,sans-Serif" font-size="10.00" fill="#000000">transform/ChartToC.cpp</text>
</a>
</g>
</g>
<!-- Node2&#45;&gt;Node3 -->
<g id="edge2" class="edge">
<title>Node2&#45;&gt;Node3</title>
<path fill="none" stroke="#191970" d="M276.4324,-116.645C264.7802,-106.9058 250.3916,-94.8795 240.5368,-86.6427"/>
<polygon fill="#191970" stroke="#191970" points="274.4121,-119.5179 284.3295,-123.2455 278.9012,-114.1469 274.4121,-119.5179"/>
</g>
<!-- Node2&#45;&gt;Node4 -->
<g id="edge3" class="edge">
<title>Node2&#45;&gt;Node4</title>
<path fill="none" stroke="#191970" d="M249.7303,-120.7199C210.9324,-110.4228 156.3241,-95.9296 120.7989,-86.5011"/>
<polygon fill="#191970" stroke="#191970" points="249.1646,-124.1909 259.7278,-123.3733 250.9603,-117.4251 249.1646,-124.1909"/>
</g>
<!-- Node2&#45;&gt;Node6 -->
<g id="edge5" class="edge">
<title>Node2&#45;&gt;Node6</title>
<path fill="none" stroke="#191970" d="M319.5419,-117.49C334.539,-107.6096 353.4973,-95.1194 366.3638,-86.6427"/>
<polygon fill="#191970" stroke="#191970" points="317.2309,-114.8212 310.8059,-123.2455 321.0821,-120.6666 317.2309,-114.8212"/>
</g>
<!-- Node2&#45;&gt;Node9 -->
<g id="edge8" class="edge">
<title>Node2&#45;&gt;Node9</title>
<path fill="none" stroke="#191970" d="M347.1588,-121.1125C391.5304,-110.8021 454.9168,-96.0733 496.0142,-86.5237"/>
<polygon fill="#191970" stroke="#191970" points="346.1038,-117.7643 337.1555,-123.4369 347.6882,-124.5826 346.1038,-117.7643"/>
</g>
<!-- Node5 -->
<g id="node5" class="node">
<title>Node5</title>
<g id="a_node5"><a xlink:href="$_chart_to_java_8cpp.html" xlink:title="transform/ChartToJava.cpp">
<polygon fill="#ffffff" stroke="#000000" points="0,-6 0,-25 138,-25 138,-6 0,-6"/>
<text text-anchor="middle" x="69" y="-13" font-family="Helvetica,sans-Serif" font-size="10.00" fill="#000000">transform/ChartToJava.cpp</text>
</a>
</g>
</g>
<!-- Node4&#45;&gt;Node5 -->
<g id="edge4" class="edge">
<title>Node4&#45;&gt;Node5</title>
<path fill="none" stroke="#191970" d="M79.9485,-57.5832C77.1484,-46.8205 73.7881,-33.9042 71.5352,-25.2449"/>
<polygon fill="#191970" stroke="#191970" points="76.5949,-58.594 82.5,-67.3906 83.3694,-56.8315 76.5949,-58.594"/>
</g>
<!-- Node7 -->
<g id="node7" class="node">
<title>Node7</title>
<g id="a_node7"><a xlink:href="$_chart_to_promela_8cpp.html" xlink:title="transform/ChartToPromela.cpp">
<polygon fill="#ffffff" stroke="#000000" points="156,-6 156,-25 310,-25 310,-6 156,-6"/>
<text text-anchor="middle" x="233" y="-13" font-family="Helvetica,sans-Serif" font-size="10.00" fill="#000000">transform/ChartToPromela.cpp</text>
</a>
</g>
</g>
<!-- Node6&#45;&gt;Node7 -->
<g id="edge6" class="edge">
<title>Node6&#45;&gt;Node7</title>
<path fill="none" stroke="#191970" d="M348.5015,-63.4955C320.4956,-51.858 280.7694,-35.3501 255.9626,-25.0419"/>
<polygon fill="#191970" stroke="#191970" points="347.2975,-66.7853 357.875,-67.3906 349.9836,-60.3212 347.2975,-66.7853"/>
</g>
<!-- Node8 -->
<g id="node8" class="node">
<title>Node8</title>
<g id="a_node8"><a xlink:href="$_promela_code_analyzer_8cpp.html" xlink:title="transform/promela/Promela\lCodeAnalyzer.cpp">
<polygon fill="#ffffff" stroke="#000000" points="328,-.5 328,-30.5 466,-30.5 466,-.5 328,-.5"/>
<text text-anchor="start" x="336" y="-18.5" font-family="Helvetica,sans-Serif" font-size="10.00" fill="#000000">transform/promela/Promela</text>
<text text-anchor="middle" x="397" y="-7.5" font-family="Helvetica,sans-Serif" font-size="10.00" fill="#000000">CodeAnalyzer.cpp</text>
</a>
</g>
</g>
<!-- Node6&#45;&gt;Node8 -->
<g id="edge7" class="edge">
<title>Node6&#45;&gt;Node8</title>
<path fill="none" stroke="#191970" d="M386.032,-57.6584C388.3093,-48.9047 390.9606,-38.7139 393.086,-30.5446"/>
<polygon fill="#191970" stroke="#191970" points="382.6306,-56.8315 383.5,-67.3906 389.4051,-58.594 382.6306,-56.8315"/>
</g>
<!-- Node10 -->
<g id="node10" class="node">
<title>Node10</title>
<g id="a_node10"><a xlink:href="$_chart_to_v_h_d_l_8cpp.html" xlink:title="transform/ChartToVHDL.cpp">
<polygon fill="#ffffff" stroke="#000000" points="484.5,-6 484.5,-25 627.5,-25 627.5,-6 484.5,-6"/>
<text text-anchor="middle" x="556" y="-13" font-family="Helvetica,sans-Serif" font-size="10.00" fill="#000000">transform/ChartToVHDL.cpp</text>
</a>
</g>
</g>
<!-- Node9&#45;&gt;Node10 -->
<g id="edge9" class="edge">
<title>Node9&#45;&gt;Node10</title>
<path fill="none" stroke="#191970" d="M542.9987,-57.5832C546.3237,-46.8205 550.3141,-33.9042 552.9894,-25.2449"/>
<polygon fill="#191970" stroke="#191970" points="539.5765,-56.8031 539.9688,-67.3906 546.2646,-58.8693 539.5765,-56.8031"/>
</g>
</g>
</svg>
