<?xml version="1.0" encoding="UTF-8" standalone="no"?>
<!DOCTYPE svg PUBLIC "-//W3C//DTD SVG 1.1//EN"
 "http://www.w3.org/Graphics/SVG/1.1/DTD/svg11.dtd">
<!-- Generated by graphviz version 2.38.0 (20140413.2041)
 -->
<!-- Title: transform/Trie.h Pages: 1 -->
<svg width="343pt" height="140pt"
 viewBox="0.00 0.00 343.00 140.00" xmlns="http://www.w3.org/2000/svg" xmlns:xlink="http://www.w3.org/1999/xlink">
<g id="graph0" class="graph" transform="scale(1 1) rotate(0) translate(4 136)">
<title>transform/Trie.h</title>
<polygon fill="white" stroke="none" points="-4,4 -4,-136 339,-136 339,4 -4,4"/>
<!-- Node1 -->
<g id="node1" class="node"><title>Node1</title>
<polygon fill="#bfbfbf" stroke="black" points="165.5,-112.5 165.5,-131.5 252.5,-131.5 252.5,-112.5 165.5,-112.5"/>
<text text-anchor="middle" x="209" y="-119.5" font-family="Helvetica,sans-Serif" font-size="10.00">transform/Trie.h</text>
</g>
<!-- Node2 -->
<g id="node2" class="node"><title>Node2</title>
<g id="a_node2"><a xlink:href="_chart_to_c_8h.html" target="_top" xlink:title="transform/ChartToC.h">
<polygon fill="white" stroke="black" points="67.5,-56.5 67.5,-75.5 180.5,-75.5 180.5,-56.5 67.5,-56.5"/>
<text text-anchor="middle" x="124" y="-63.5" font-family="Helvetica,sans-Serif" font-size="10.00">transform/ChartToC.h</text>
</a>
</g>
</g>
<!-- Node1&#45;&gt;Node2 -->
<g id="edge1" class="edge"><title>Node1&#45;&gt;Node2</title>
<path fill="none" stroke="midnightblue" d="M186.806,-106.901C171.22,-96.9986 150.87,-84.0705 137.623,-75.6545"/>
<polygon fill="midnightblue" stroke="midnightblue" points="185.026,-109.916 195.343,-112.324 188.779,-104.007 185.026,-109.916"/>
</g>
<!-- Node4 -->
<g id="node4" class="node"><title>Node4</title>
<g id="a_node4"><a xlink:href="_chart_to_v_h_d_l_8h.html" target="_top" xlink:title="transform/ChartToVHDL.h">
<polygon fill="white" stroke="black" points="142.5,-0.5 142.5,-19.5 275.5,-19.5 275.5,-0.5 142.5,-0.5"/>
<text text-anchor="middle" x="209" y="-7.5" font-family="Helvetica,sans-Serif" font-size="10.00">transform/ChartToVHDL.h</text>
</a>
</g>
</g>
<!-- Node1&#45;&gt;Node4 -->
<g id="edge4" class="edge"><title>Node1&#45;&gt;Node4</title>
<path fill="none" stroke="midnightblue" d="M209,-102.348C209,-78.2538 209,-37.3079 209,-19.5914"/>
<polygon fill="midnightblue" stroke="midnightblue" points="205.5,-102.368 209,-112.368 212.5,-102.369 205.5,-102.368"/>
</g>
<!-- Node5 -->
<g id="node5" class="node"><title>Node5</title>
<g id="a_node5"><a xlink:href="_trie_8cpp.html" target="_top" xlink:title="transform/Trie.cpp">
<polygon fill="white" stroke="black" points="237,-56.5 237,-75.5 335,-75.5 335,-56.5 237,-56.5"/>
<text text-anchor="middle" x="286" y="-63.5" font-family="Helvetica,sans-Serif" font-size="10.00">transform/Trie.cpp</text>
</a>
</g>
</g>
<!-- Node1&#45;&gt;Node5 -->
<g id="edge5" class="edge"><title>Node1&#45;&gt;Node5</title>
<path fill="none" stroke="midnightblue" d="M229.901,-106.342C243.911,-96.5169 261.883,-83.9132 273.659,-75.6545"/>
<polygon fill="midnightblue" stroke="midnightblue" points="227.549,-103.717 221.371,-112.324 231.568,-109.448 227.549,-103.717"/>
</g>
<!-- Node3 -->
<g id="node3" class="node"><title>Node3</title>
<g id="a_node3"><a xlink:href="_chart_to_c_8cpp.html" target="_top" xlink:title="transform/ChartToC.cpp">
<polygon fill="white" stroke="black" points="0,-0.5 0,-19.5 124,-19.5 124,-0.5 0,-0.5"/>
<text text-anchor="middle" x="62" y="-7.5" font-family="Helvetica,sans-Serif" font-size="10.00">transform/ChartToC.cpp</text>
</a>
</g>
</g>
<!-- Node2&#45;&gt;Node3 -->
<g id="edge2" class="edge"><title>Node2&#45;&gt;Node3</title>
<path fill="none" stroke="midnightblue" d="M106.246,-49.5372C95.1915,-39.9087 81.3685,-27.8694 72.1426,-19.8339"/>
<polygon fill="midnightblue" stroke="midnightblue" points="104.199,-52.3954 114.039,-56.324 108.797,-47.1168 104.199,-52.3954"/>
</g>
<!-- Node2&#45;&gt;Node4 -->
<g id="edge3" class="edge"><title>Node2&#45;&gt;Node4</title>
<path fill="none" stroke="midnightblue" d="M146.194,-50.9005C161.78,-40.9986 182.13,-28.0705 195.377,-19.6545"/>
<polygon fill="midnightblue" stroke="midnightblue" points="144.221,-48.0073 137.657,-56.324 147.974,-53.9158 144.221,-48.0073"/>
</g>
</g>
</svg>
