<?xml version="1.0" encoding="UTF-8" standalone="no"?>
<!DOCTYPE svg PUBLIC "-//W3C//DTD SVG 1.1//EN"
 "http://www.w3.org/Graphics/SVG/1.1/DTD/svg11.dtd">
<!-- Generated by graphviz version 2.38.0 (20140413.2041)
 -->
<!-- Title: transform/Trie.h Pages: 1 -->
<svg width="698pt" height="218pt"
 viewBox="0.00 0.00 697.50 218.00" xmlns="http://www.w3.org/2000/svg" xmlns:xlink="http://www.w3.org/1999/xlink">
<g id="graph0" class="graph" transform="scale(1 1) rotate(0) translate(4 214)">
<title>transform/Trie.h</title>
<polygon fill="white" stroke="none" points="-4,4 -4,-214 693.5,-214 693.5,4 -4,4"/>
<!-- Node1 -->
<g id="node1" class="node"><title>Node1</title>
<polygon fill="#bfbfbf" stroke="black" points="412.5,-190.5 412.5,-209.5 499.5,-209.5 499.5,-190.5 412.5,-190.5"/>
<text text-anchor="middle" x="456" y="-197.5" font-family="Helvetica,sans-Serif" font-size="10.00">transform/Trie.h</text>
</g>
<!-- Node2 -->
<g id="node2" class="node"><title>Node2</title>
<g id="a_node2"><a xlink:href="_chart_to_c_8h.html" target="_top" xlink:title="transform/ChartToC.h">
<polygon fill="white" stroke="black" points="207.5,-129 207.5,-148 320.5,-148 320.5,-129 207.5,-129"/>
<text text-anchor="middle" x="264" y="-136" font-family="Helvetica,sans-Serif" font-size="10.00">transform/ChartToC.h</text>
</a>
</g>
</g>
<!-- Node1&#45;&gt;Node2 -->
<g id="edge1" class="edge"><title>Node1&#45;&gt;Node2</title>
<path fill="none" stroke="midnightblue" d="M418.505,-187.381C381.185,-175.815 324.797,-158.341 291.458,-148.009"/>
<polygon fill="midnightblue" stroke="midnightblue" points="417.903,-190.858 428.491,-190.475 419.975,-184.172 417.903,-190.858"/>
</g>
<!-- Node9 -->
<g id="node9" class="node"><title>Node9</title>
<g id="a_node9"><a xlink:href="_chart_to_v_h_d_l_8h.html" target="_top" xlink:title="transform/ChartToVHDL.h">
<polygon fill="white" stroke="black" points="487.5,-67.5 487.5,-86.5 620.5,-86.5 620.5,-67.5 487.5,-67.5"/>
<text text-anchor="middle" x="554" y="-74.5" font-family="Helvetica,sans-Serif" font-size="10.00">transform/ChartToVHDL.h</text>
</a>
</g>
</g>
<!-- Node1&#45;&gt;Node9 -->
<g id="edge14" class="edge"><title>Node1&#45;&gt;Node9</title>
<path fill="none" stroke="midnightblue" d="M469.417,-182.435C490.546,-156.346 530.834,-106.603 547.016,-86.6232"/>
<polygon fill="midnightblue" stroke="midnightblue" points="466.622,-180.324 463.048,-190.298 472.062,-184.73 466.622,-180.324"/>
</g>
<!-- Node11 -->
<g id="node11" class="node"><title>Node11</title>
<g id="a_node11"><a xlink:href="_promela_code_analyzer_8h.html" target="_top" xlink:title="transform/promela/Promela\lCodeAnalyzer.h">
<polygon fill="white" stroke="black" points="339,-123.5 339,-153.5 477,-153.5 477,-123.5 339,-123.5"/>
<text text-anchor="start" x="347" y="-141.5" font-family="Helvetica,sans-Serif" font-size="10.00">transform/promela/Promela</text>
<text text-anchor="middle" x="408" y="-130.5" font-family="Helvetica,sans-Serif" font-size="10.00">CodeAnalyzer.h</text>
</a>
</g>
</g>
<!-- Node1&#45;&gt;Node11 -->
<g id="edge10" class="edge"><title>Node1&#45;&gt;Node11</title>
<path fill="none" stroke="midnightblue" d="M442.713,-182.53C435.362,-173.417 426.324,-162.214 419.313,-153.523"/>
<polygon fill="midnightblue" stroke="midnightblue" points="440.12,-184.89 449.123,-190.475 445.568,-180.494 440.12,-184.89"/>
</g>
<!-- Node12 -->
<g id="node12" class="node"><title>Node12</title>
<g id="a_node12"><a xlink:href="_trie_8cpp.html" target="_top" xlink:title="transform/Trie.cpp">
<polygon fill="white" stroke="black" points="533,-129 533,-148 631,-148 631,-129 533,-129"/>
<text text-anchor="middle" x="582" y="-136" font-family="Helvetica,sans-Serif" font-size="10.00">transform/Trie.cpp</text>
</a>
</g>
</g>
<!-- Node1&#45;&gt;Node12 -->
<g id="edge15" class="edge"><title>Node1&#45;&gt;Node12</title>
<path fill="none" stroke="midnightblue" d="M483.16,-186.174C507.61,-174.629 542.85,-157.987 563.981,-148.009"/>
<polygon fill="midnightblue" stroke="midnightblue" points="481.601,-183.04 474.053,-190.475 484.59,-189.37 481.601,-183.04"/>
</g>
<!-- Node3 -->
<g id="node3" class="node"><title>Node3</title>
<g id="a_node3"><a xlink:href="_chart_to_c_8cpp.html" target="_top" xlink:title="transform/ChartToC.cpp">
<polygon fill="white" stroke="black" points="0,-67.5 0,-86.5 124,-86.5 124,-67.5 0,-67.5"/>
<text text-anchor="middle" x="62" y="-74.5" font-family="Helvetica,sans-Serif" font-size="10.00">transform/ChartToC.cpp</text>
</a>
</g>
</g>
<!-- Node2&#45;&gt;Node3 -->
<g id="edge2" class="edge"><title>Node2&#45;&gt;Node3</title>
<path fill="none" stroke="midnightblue" d="M225.305,-126.102C186.05,-114.54 126.188,-96.9069 90.888,-86.5091"/>
<polygon fill="midnightblue" stroke="midnightblue" points="224.477,-129.507 235.058,-128.975 226.455,-122.792 224.477,-129.507"/>
</g>
<!-- Node4 -->
<g id="node4" class="node"><title>Node4</title>
<g id="a_node4"><a xlink:href="_chart_to_java_8h.html" target="_top" xlink:title="transform/ChartToJava.h">
<polygon fill="white" stroke="black" points="142.5,-67.5 142.5,-86.5 269.5,-86.5 269.5,-67.5 142.5,-67.5"/>
<text text-anchor="middle" x="206" y="-74.5" font-family="Helvetica,sans-Serif" font-size="10.00">transform/ChartToJava.h</text>
</a>
</g>
</g>
<!-- Node2&#45;&gt;Node4 -->
<g id="edge3" class="edge"><title>Node2&#45;&gt;Node4</title>
<path fill="none" stroke="midnightblue" d="M248.401,-121.497C237.423,-110.236 223.161,-95.6044 214.295,-86.5091"/>
<polygon fill="midnightblue" stroke="midnightblue" points="246.203,-124.257 255.69,-128.975 251.216,-119.371 246.203,-124.257"/>
</g>
<!-- Node6 -->
<g id="node6" class="node"><title>Node6</title>
<g id="a_node6"><a xlink:href="_chart_to_promela_8h.html" target="_top" xlink:title="transform/ChartToPromela.h">
<polygon fill="white" stroke="black" points="287.5,-67.5 287.5,-86.5 430.5,-86.5 430.5,-67.5 287.5,-67.5"/>
<text text-anchor="middle" x="359" y="-74.5" font-family="Helvetica,sans-Serif" font-size="10.00">transform/ChartToPromela.h</text>
</a>
</g>
</g>
<!-- Node2&#45;&gt;Node6 -->
<g id="edge5" class="edge"><title>Node2&#45;&gt;Node6</title>
<path fill="none" stroke="midnightblue" d="M286.214,-123.587C304.548,-112.104 329.976,-96.1784 345.414,-86.5091"/>
<polygon fill="midnightblue" stroke="midnightblue" points="284.228,-120.701 277.611,-128.975 287.944,-126.633 284.228,-120.701"/>
</g>
<!-- Node2&#45;&gt;Node9 -->
<g id="edge8" class="edge"><title>Node2&#45;&gt;Node9</title>
<path fill="none" stroke="midnightblue" d="M312.291,-126.786C318.252,-125.494 324.263,-124.206 330,-123 392.495,-109.859 464.98,-95.4481 510.172,-86.5625"/>
<polygon fill="midnightblue" stroke="midnightblue" points="311.39,-123.4 302.365,-128.949 312.881,-130.239 311.39,-123.4"/>
</g>
<!-- Node5 -->
<g id="node5" class="node"><title>Node5</title>
<g id="a_node5"><a xlink:href="_chart_to_java_8cpp.html" target="_top" xlink:title="transform/ChartToJava.cpp">
<polygon fill="white" stroke="black" points="62,-6 62,-25 200,-25 200,-6 62,-6"/>
<text text-anchor="middle" x="131" y="-13" font-family="Helvetica,sans-Serif" font-size="10.00">transform/ChartToJava.cpp</text>
</a>
</g>
</g>
<!-- Node4&#45;&gt;Node5 -->
<g id="edge4" class="edge"><title>Node4&#45;&gt;Node5</title>
<path fill="none" stroke="midnightblue" d="M187.058,-60.9727C172.713,-49.5925 153.524,-34.3694 141.726,-25.0091"/>
<polygon fill="midnightblue" stroke="midnightblue" points="185.245,-64.002 195.254,-67.4751 189.595,-58.5181 185.245,-64.002"/>
</g>
<!-- Node7 -->
<g id="node7" class="node"><title>Node7</title>
<g id="a_node7"><a xlink:href="_chart_to_promela_8cpp.html" target="_top" xlink:title="transform/ChartToPromela.cpp">
<polygon fill="white" stroke="black" points="218,-6 218,-25 372,-25 372,-6 218,-6"/>
<text text-anchor="middle" x="295" y="-13" font-family="Helvetica,sans-Serif" font-size="10.00">transform/ChartToPromela.cpp</text>
</a>
</g>
</g>
<!-- Node6&#45;&gt;Node7 -->
<g id="edge6" class="edge"><title>Node6&#45;&gt;Node7</title>
<path fill="none" stroke="midnightblue" d="M342.489,-60.6496C330.287,-49.3058 314.126,-34.2811 304.153,-25.0091"/>
<polygon fill="midnightblue" stroke="midnightblue" points="340.123,-63.2295 349.83,-67.4751 344.89,-58.1028 340.123,-63.2295"/>
</g>
<!-- Node8 -->
<g id="node8" class="node"><title>Node8</title>
<g id="a_node8"><a xlink:href="_promela_code_analyzer_8cpp.html" target="_top" xlink:title="transform/promela/Promela\lCodeAnalyzer.cpp">
<polygon fill="white" stroke="black" points="390,-0.5 390,-30.5 528,-30.5 528,-0.5 390,-0.5"/>
<text text-anchor="start" x="398" y="-18.5" font-family="Helvetica,sans-Serif" font-size="10.00">transform/promela/Promela</text>
<text text-anchor="middle" x="459" y="-7.5" font-family="Helvetica,sans-Serif" font-size="10.00">CodeAnalyzer.cpp</text>
</a>
</g>
</g>
<!-- Node6&#45;&gt;Node8 -->
<g id="edge7" class="edge"><title>Node6&#45;&gt;Node8</title>
<path fill="none" stroke="midnightblue" d="M382.065,-62.2762C398.069,-52.7541 419.32,-40.1096 435.432,-30.523"/>
<polygon fill="midnightblue" stroke="midnightblue" points="380.132,-59.3539 373.328,-67.4751 383.711,-65.3696 380.132,-59.3539"/>
</g>
<!-- Node10 -->
<g id="node10" class="node"><title>Node10</title>
<g id="a_node10"><a xlink:href="_chart_to_v_h_d_l_8cpp.html" target="_top" xlink:title="transform/ChartToVHDL.cpp">
<polygon fill="white" stroke="black" points="546.5,-6 546.5,-25 689.5,-25 689.5,-6 546.5,-6"/>
<text text-anchor="middle" x="618" y="-13" font-family="Helvetica,sans-Serif" font-size="10.00">transform/ChartToVHDL.cpp</text>
</a>
</g>
</g>
<!-- Node9&#45;&gt;Node10 -->
<g id="edge9" class="edge"><title>Node9&#45;&gt;Node10</title>
<path fill="none" stroke="midnightblue" d="M570.511,-60.6496C582.713,-49.3058 598.874,-34.2811 608.847,-25.0091"/>
<polygon fill="midnightblue" stroke="midnightblue" points="568.11,-58.1028 563.17,-67.4751 572.877,-63.2295 568.11,-58.1028"/>
</g>
<!-- Node11&#45;&gt;Node4 -->
<g id="edge11" class="edge"><title>Node11&#45;&gt;Node4</title>
<path fill="none" stroke="midnightblue" d="M350.517,-120.568C312.737,-109.44 264.914,-95.3534 234.879,-86.5064"/>
<polygon fill="midnightblue" stroke="midnightblue" points="349.803,-124.006 360.385,-123.475 351.781,-117.292 349.803,-124.006"/>
</g>
<!-- Node11&#45;&gt;Node6 -->
<g id="edge12" class="edge"><title>Node11&#45;&gt;Node6</title>
<path fill="none" stroke="midnightblue" d="M389.804,-115.404C381.574,-105.411 372.326,-94.1815 366.13,-86.6578"/>
<polygon fill="midnightblue" stroke="midnightblue" points="387.329,-117.905 396.388,-123.399 392.732,-113.455 387.329,-117.905"/>
</g>
<!-- Node11&#45;&gt;Node8 -->
<g id="edge13" class="edge"><title>Node11&#45;&gt;Node8</title>
<path fill="none" stroke="midnightblue" d="M423.685,-114.93C429.08,-106.449 434.811,-96.5471 439,-87 447.23,-68.2429 453.019,-45.1943 456.182,-30.671"/>
<polygon fill="midnightblue" stroke="midnightblue" points="420.626,-113.212 418.051,-123.489 426.473,-117.06 420.626,-113.212"/>
</g>
</g>
</svg>
