<?xml version="1.0" encoding="UTF-8" standalone="no"?>
<!DOCTYPE svg PUBLIC "-//W3C//DTD SVG 1.1//EN"
 "http://www.w3.org/Graphics/SVG/1.1/DTD/svg11.dtd">
<!-- Generated by graphviz version 2.38.0 (20140413.2041)
 -->
<!-- Title: util/URL.h Pages: 1 -->
<!--zoomable 352 -->
<svg id="main" version="1.1" xmlns="http://www.w3.org/2000/svg" xmlns:xlink="http://www.w3.org/1999/xlink" xml:space="preserve" onload="init(evt)">
<style type="text/css"><![CDATA[
.edge:hover path { stroke: red; }
.edge:hover polygon { stroke: red; fill: red; }
]]></style>
<script type="text/javascript"><![CDATA[
var edges = document.getElementsByTagName('g');
if (edges && edges.length) {
  for (var i=0;i<edges.length;i++) {
    if (edges[i].id.substr(0,4)=='edge') {
      edges[i].setAttribute('class','edge');
    }
  }
}
]]></script>
        <defs>
                <circle id="rim" cx="0" cy="0" r="7"/>
                <circle id="rim2" cx="0" cy="0" r="3.5"/>
                <g id="zoomPlus">
                        <use xlink:href="#rim" fill="#404040">
                                <set attributeName="fill" to="#808080" begin="zoomplus.mouseover" end="zoomplus.mouseout"/>
                        </use>
                        <path d="M-4,0h8M0,-4v8" fill="none" stroke="white" stroke-width="1.5" pointer-events="none"/>
                </g>
                <g id="zoomMin">
                        <use xlink:href="#rim" fill="#404040">
                                <set attributeName="fill" to="#808080" begin="zoomminus.mouseover" end="zoomminus.mouseout"/>
                        </use>
                        <path d="M-4,0h8" fill="none" stroke="white" stroke-width="1.5" pointer-events="none"/>
                </g>
                <g id="dirArrow">
                        <path fill="none" stroke="white" stroke-width="1.5" d="M0,-3.0v7 M-2.5,-0.5L0,-3.0L2.5,-0.5"/>
                </g>
               <g id="resetDef">
                       <use xlink:href="#rim2" fill="#404040">
                               <set attributeName="fill" to="#808080" begin="reset.mouseover" end="reset.mouseout"/>
                       </use>
               </g>
        </defs>

<script type="text/javascript">
var viewWidth = 1872;
var viewHeight = 352;
var sectionId = 'dynsection-1';
</script>
<script xlink:href="svgpan.js"/>
<svg id="graph" class="graph">
<g id="viewport">
<title>util/URL.h</title>
<polygon fill="white" stroke="none" points="-4,4 -4,-348 1868,-348 1868,4 -4,4"/>
<!-- Node1 -->
<g id="node1" class="node"><title>Node1</title>
<polygon fill="#bfbfbf" stroke="black" points="1175.5,-324.5 1175.5,-343.5 1235.5,-343.5 1235.5,-324.5 1175.5,-324.5"/>
<text text-anchor="middle" x="1205.5" y="-331.5" font-family="Helvetica,sans-Serif" font-size="10.00">util/URL.h</text>
</g>
<!-- Node2 -->
<g id="node2" class="node"><title>Node2</title>
<g id="a_node2"><a xlink:href="_basic_content_executor_8cpp.html" target="_top" xlink:title="interpreter/BasicContent\lExecutor.cpp">
<polygon fill="white" stroke="black" points="728.5,-257.5 728.5,-287.5 852.5,-287.5 852.5,-257.5 728.5,-257.5"/>
<text text-anchor="start" x="736.5" y="-275.5" font-family="Helvetica,sans-Serif" font-size="10.00">interpreter/BasicContent</text>
<text text-anchor="middle" x="790.5" y="-264.5" font-family="Helvetica,sans-Serif" font-size="10.00">Executor.cpp</text>
</a>
</g>
</g>
<!-- Node1&#45;&gt;Node2 -->
<g id="edge1" class="edge"><title>Node1&#45;&gt;Node2</title>
<path fill="none" stroke="midnightblue" d="M1165.37,-328.691C1101.04,-321.574 970.95,-306.311 861.5,-288 858.646,-287.523 855.732,-287.014 852.791,-286.483"/>
<polygon fill="midnightblue" stroke="midnightblue" points="1165.16,-332.19 1175.48,-329.803 1165.93,-325.232 1165.16,-332.19"/>
</g>
<!-- Node3 -->
<g id="node3" class="node"><title>Node3</title>
<g id="a_node3"><a xlink:href="_interpreter_impl_8h.html" target="_top" xlink:title="interpreter/InterpreterImpl.h">
<polygon fill="white" stroke="black" points="870.5,-263 870.5,-282 1008.5,-282 1008.5,-263 870.5,-263"/>
<text text-anchor="middle" x="939.5" y="-270" font-family="Helvetica,sans-Serif" font-size="10.00">interpreter/InterpreterImpl.h</text>
</a>
</g>
</g>
<!-- Node1&#45;&gt;Node3 -->
<g id="edge2" class="edge"><title>Node1&#45;&gt;Node3</title>
<path fill="none" stroke="midnightblue" d="M1165.29,-324.005C1114.51,-312.646 1027.76,-293.242 977.87,-282.083"/>
<polygon fill="midnightblue" stroke="midnightblue" points="1164.72,-327.465 1175.25,-326.233 1166.25,-320.634 1164.72,-327.465"/>
</g>
<!-- Node12 -->
<g id="node12" class="node"><title>Node12</title>
<g id="a_node12"><a xlink:href="_interpreter_8cpp.html" target="_top" xlink:title="Interpreter.cpp">
<polygon fill="white" stroke="black" points="1557.5,-201.5 1557.5,-220.5 1639.5,-220.5 1639.5,-201.5 1557.5,-201.5"/>
<text text-anchor="middle" x="1598.5" y="-208.5" font-family="Helvetica,sans-Serif" font-size="10.00">Interpreter.cpp</text>
</a>
</g>
</g>
<!-- Node1&#45;&gt;Node12 -->
<g id="edge39" class="edge"><title>Node1&#45;&gt;Node12</title>
<path fill="none" stroke="midnightblue" d="M1165.18,-327.126C1109.77,-317.488 1020.77,-295.445 1056.5,-257 1093.82,-216.852 1494.12,-227.865 1548.5,-221 1551.39,-220.635 1554.36,-220.215 1557.35,-219.76"/>
<polygon fill="midnightblue" stroke="midnightblue" points="1164.66,-330.587 1175.1,-328.782 1165.81,-323.683 1164.66,-330.587"/>
</g>
<!-- Node34 -->
<g id="node34" class="node"><title>Node34</title>
<g id="a_node34"><a xlink:href="_c89_data_model_8cpp.html" target="_top" xlink:title="plugins/datamodel/c89\l/C89DataModel.cpp">
<polygon fill="white" stroke="black" points="1065,-257.5 1065,-287.5 1182,-287.5 1182,-257.5 1065,-257.5"/>
<text text-anchor="start" x="1073" y="-275.5" font-family="Helvetica,sans-Serif" font-size="10.00">plugins/datamodel/c89</text>
<text text-anchor="middle" x="1123.5" y="-264.5" font-family="Helvetica,sans-Serif" font-size="10.00">/C89DataModel.cpp</text>
</a>
</g>
</g>
<!-- Node1&#45;&gt;Node34 -->
<g id="edge40" class="edge"><title>Node1&#45;&gt;Node34</title>
<path fill="none" stroke="midnightblue" d="M1185.47,-318.468C1172.49,-309.047 1155.67,-296.841 1142.83,-287.523"/>
<polygon fill="midnightblue" stroke="midnightblue" points="1183.6,-321.435 1193.75,-324.475 1187.71,-315.769 1183.6,-321.435"/>
</g>
<!-- Node35 -->
<g id="node35" class="node"><title>Node35</title>
<g id="a_node35"><a xlink:href="_j_s_c_data_model_8cpp.html" target="_top" xlink:title="plugins/datamodel/ecmascript\l/JavaScriptCore/JSCDataModel.cpp">
<polygon fill="white" stroke="black" points="1200,-257.5 1200,-287.5 1377,-287.5 1377,-257.5 1200,-257.5"/>
<text text-anchor="start" x="1208" y="-275.5" font-family="Helvetica,sans-Serif" font-size="10.00">plugins/datamodel/ecmascript</text>
<text text-anchor="middle" x="1288.5" y="-264.5" font-family="Helvetica,sans-Serif" font-size="10.00">/JavaScriptCore/JSCDataModel.cpp</text>
</a>
</g>
</g>
<!-- Node1&#45;&gt;Node35 -->
<g id="edge41" class="edge"><title>Node1&#45;&gt;Node35</title>
<path fill="none" stroke="midnightblue" d="M1225.77,-318.468C1238.91,-309.047 1255.94,-296.841 1268.94,-287.523"/>
<polygon fill="midnightblue" stroke="midnightblue" points="1223.48,-315.804 1217.39,-324.475 1227.56,-321.493 1223.48,-315.804"/>
</g>
<!-- Node36 -->
<g id="node36" class="node"><title>Node36</title>
<g id="a_node36"><a xlink:href="_v8_data_model_8cpp.html" target="_top" xlink:title="plugins/datamodel/ecmascript\l/v8/V8DataModel.cpp">
<polygon fill="white" stroke="black" points="1395,-257.5 1395,-287.5 1544,-287.5 1544,-257.5 1395,-257.5"/>
<text text-anchor="start" x="1403" y="-275.5" font-family="Helvetica,sans-Serif" font-size="10.00">plugins/datamodel/ecmascript</text>
<text text-anchor="middle" x="1469.5" y="-264.5" font-family="Helvetica,sans-Serif" font-size="10.00">/v8/V8DataModel.cpp</text>
</a>
</g>
</g>
<!-- Node1&#45;&gt;Node36 -->
<g id="edge42" class="edge"><title>Node1&#45;&gt;Node36</title>
<path fill="none" stroke="midnightblue" d="M1245.33,-324.024C1288.25,-314.35 1357.13,-298.825 1407.23,-287.535"/>
<polygon fill="midnightblue" stroke="midnightblue" points="1244.51,-320.619 1235.53,-326.233 1246.05,-327.448 1244.51,-320.619"/>
</g>
<!-- Node37 -->
<g id="node37" class="node"><title>Node37</title>
<g id="a_node37"><a xlink:href="_lua_data_model_8cpp.html" target="_top" xlink:title="plugins/datamodel/lua\l/LuaDataModel.cpp">
<polygon fill="white" stroke="black" points="1562.5,-257.5 1562.5,-287.5 1676.5,-287.5 1676.5,-257.5 1562.5,-257.5"/>
<text text-anchor="start" x="1570.5" y="-275.5" font-family="Helvetica,sans-Serif" font-size="10.00">plugins/datamodel/lua</text>
<text text-anchor="middle" x="1619.5" y="-264.5" font-family="Helvetica,sans-Serif" font-size="10.00">/LuaDataModel.cpp</text>
</a>
</g>
</g>
<!-- Node1&#45;&gt;Node37 -->
<g id="edge43" class="edge"><title>Node1&#45;&gt;Node37</title>
<path fill="none" stroke="midnightblue" d="M1246.13,-328.914C1311.26,-322.104 1442.92,-307.258 1553.5,-288 1556.39,-287.497 1559.34,-286.954 1562.32,-286.383"/>
<polygon fill="midnightblue" stroke="midnightblue" points="1245.48,-325.464 1235.89,-329.976 1246.2,-332.426 1245.48,-325.464"/>
</g>
<!-- Node38 -->
<g id="node38" class="node"><title>Node38</title>
<g id="a_node38"><a xlink:href="_u_r_l_8cpp.html" target="_top" xlink:title="util/URL.cpp">
<polygon fill="white" stroke="black" points="1695,-263 1695,-282 1766,-282 1766,-263 1695,-263"/>
<text text-anchor="middle" x="1730.5" y="-270" font-family="Helvetica,sans-Serif" font-size="10.00">util/URL.cpp</text>
</a>
</g>
</g>
<!-- Node1&#45;&gt;Node38 -->
<g id="edge44" class="edge"><title>Node1&#45;&gt;Node38</title>
<path fill="none" stroke="midnightblue" d="M1245.62,-332.187C1328.58,-329.861 1524.71,-321.028 1685.5,-288 1692.74,-286.514 1700.45,-284.28 1707.4,-282.009"/>
<polygon fill="midnightblue" stroke="midnightblue" points="1245.51,-328.688 1235.61,-332.451 1245.69,-335.686 1245.51,-328.688"/>
</g>
<!-- Node4 -->
<g id="node4" class="node"><title>Node4</title>
<g id="a_node4"><a xlink:href="_breakpoint_8cpp.html" target="_top" xlink:title="debug/Breakpoint.cpp">
<polygon fill="white" stroke="black" points="1264.5,-201.5 1264.5,-220.5 1378.5,-220.5 1378.5,-201.5 1264.5,-201.5"/>
<text text-anchor="middle" x="1321.5" y="-208.5" font-family="Helvetica,sans-Serif" font-size="10.00">debug/Breakpoint.cpp</text>
</a>
</g>
</g>
<!-- Node3&#45;&gt;Node4 -->
<g id="edge3" class="edge"><title>Node3&#45;&gt;Node4</title>
<path fill="none" stroke="midnightblue" d="M997.167,-261.245C1005.66,-259.788 1014.3,-258.333 1022.5,-257 1106.57,-243.332 1204.18,-228.914 1264.4,-220.186"/>
<polygon fill="midnightblue" stroke="midnightblue" points="996.565,-257.797 987.308,-262.95 997.758,-264.695 996.565,-257.797"/>
</g>
<!-- Node5 -->
<g id="node5" class="node"><title>Node5</title>
<g id="a_node5"><a xlink:href="_debugger_8h.html" target="_top" xlink:title="debug/Debugger.h">
<polygon fill="white" stroke="black" points="1440,-201.5 1440,-220.5 1539,-220.5 1539,-201.5 1440,-201.5"/>
<text text-anchor="middle" x="1489.5" y="-208.5" font-family="Helvetica,sans-Serif" font-size="10.00">debug/Debugger.h</text>
</a>
</g>
</g>
<!-- Node3&#45;&gt;Node5 -->
<g id="edge4" class="edge"><title>Node3&#45;&gt;Node5</title>
<path fill="none" stroke="midnightblue" d="M994.581,-261.266C1003.88,-259.714 1013.45,-258.225 1022.5,-257 1063.06,-251.511 1327.82,-226.9 1439.71,-216.579"/>
<polygon fill="midnightblue" stroke="midnightblue" points="993.9,-257.832 984.633,-262.966 995.079,-264.732 993.9,-257.832"/>
</g>
<!-- Node10 -->
<g id="node10" class="node"><title>Node10</title>
<g id="a_node10"><a xlink:href="_interpreter_issue_8cpp.html" target="_top" xlink:title="debug/InterpreterIssue.cpp">
<polygon fill="white" stroke="black" points="127.5,-201.5 127.5,-220.5 263.5,-220.5 263.5,-201.5 127.5,-201.5"/>
<text text-anchor="middle" x="195.5" y="-208.5" font-family="Helvetica,sans-Serif" font-size="10.00">debug/InterpreterIssue.cpp</text>
</a>
</g>
</g>
<!-- Node3&#45;&gt;Node10 -->
<g id="edge9" class="edge"><title>Node3&#45;&gt;Node10</title>
<path fill="none" stroke="midnightblue" d="M888.73,-261.135C879.69,-259.554 870.34,-258.09 861.5,-257 603.406,-225.177 536.6,-243.192 277.5,-221 273.076,-220.621 268.522,-220.202 263.933,-219.758"/>
<polygon fill="midnightblue" stroke="midnightblue" points="888.296,-264.613 898.76,-262.954 889.545,-257.725 888.296,-264.613"/>
</g>
<!-- Node11 -->
<g id="node11" class="node"><title>Node11</title>
<g id="a_node11"><a xlink:href="_interpreter_impl_8cpp.html" target="_top" xlink:title="interpreter/InterpreterImpl.cpp">
<polygon fill="white" stroke="black" points="0,-140 0,-159 149,-159 149,-140 0,-140"/>
<text text-anchor="middle" x="74.5" y="-147" font-family="Helvetica,sans-Serif" font-size="10.00">interpreter/InterpreterImpl.cpp</text>
</a>
</g>
</g>
<!-- Node3&#45;&gt;Node11 -->
<g id="edge10" class="edge"><title>Node3&#45;&gt;Node11</title>
<path fill="none" stroke="midnightblue" d="M888.727,-261.158C879.688,-259.575 870.338,-258.104 861.5,-257 615.78,-226.317 541.718,-295.305 305.5,-221 289.14,-215.854 288.314,-207.636 272.5,-201 224.086,-180.685 165.473,-166.981 124.636,-159.033"/>
<polygon fill="midnightblue" stroke="midnightblue" points="888.292,-264.636 898.757,-262.978 889.543,-257.748 888.292,-264.636"/>
</g>
<!-- Node3&#45;&gt;Node12 -->
<g id="edge11" class="edge"><title>Node3&#45;&gt;Node12</title>
<path fill="none" stroke="midnightblue" d="M993.262,-261.264C1002.97,-259.657 1013.02,-258.15 1022.5,-257 1255.12,-228.799 1315.95,-249.799 1548.5,-221 1551.39,-220.642 1554.36,-220.227 1557.35,-219.776"/>
<polygon fill="midnightblue" stroke="midnightblue" points="992.577,-257.83 983.309,-262.964 993.756,-264.73 992.577,-257.83"/>
</g>
<!-- Node13 -->
<g id="node13" class="node"><title>Node13</title>
<g id="a_node13"><a xlink:href="_u_s_c_x_m_l_invoker_8h.html" target="_top" xlink:title="plugins/invoker/scxml\l/USCXMLInvoker.h">
<polygon fill="white" stroke="black" points="167.5,-134.5 167.5,-164.5 279.5,-164.5 279.5,-134.5 167.5,-134.5"/>
<text text-anchor="start" x="175.5" y="-152.5" font-family="Helvetica,sans-Serif" font-size="10.00">plugins/invoker/scxml</text>
<text text-anchor="middle" x="223.5" y="-141.5" font-family="Helvetica,sans-Serif" font-size="10.00">/USCXMLInvoker.h</text>
</a>
</g>
</g>
<!-- Node3&#45;&gt;Node13 -->
<g id="edge12" class="edge"><title>Node3&#45;&gt;Node13</title>
<path fill="none" stroke="midnightblue" d="M888.417,-261.144C879.473,-259.577 870.236,-258.115 861.5,-257 634.778,-228.067 567.399,-286.75 348.5,-221 327.323,-214.639 275.419,-183.206 245.579,-164.527"/>
<polygon fill="midnightblue" stroke="midnightblue" points="887.884,-264.604 898.348,-262.945 889.133,-257.717 887.884,-264.604"/>
</g>
<!-- Node15 -->
<g id="node15" class="node"><title>Node15</title>
<g id="a_node15"><a xlink:href="_invoker_impl_8h.html" target="_top" xlink:title="plugins/InvokerImpl.h">
<polygon fill="white" stroke="black" points="358,-201.5 358,-220.5 469,-220.5 469,-201.5 358,-201.5"/>
<text text-anchor="middle" x="413.5" y="-208.5" font-family="Helvetica,sans-Serif" font-size="10.00">plugins/InvokerImpl.h</text>
</a>
</g>
</g>
<!-- Node3&#45;&gt;Node15 -->
<g id="edge14" class="edge"><title>Node3&#45;&gt;Node15</title>
<path fill="none" stroke="midnightblue" d="M887.193,-261.154C878.627,-259.639 869.83,-258.191 861.5,-257 720.857,-236.9 554.104,-222.658 469.206,-216.088"/>
<polygon fill="midnightblue" stroke="midnightblue" points="886.636,-264.61 897.1,-262.951 887.886,-257.722 886.636,-264.61"/>
</g>
<!-- Node19 -->
<g id="node19" class="node"><title>Node19</title>
<g id="a_node19"><a xlink:href="_basic_h_t_t_p_i_o_processor_8h.html" target="_top" xlink:title="plugins/ioprocessor\l/basichttp/BasicHTTPIOProcessor.h">
<polygon fill="white" stroke="black" points="554,-134.5 554,-164.5 731,-164.5 731,-134.5 554,-134.5"/>
<text text-anchor="start" x="562" y="-152.5" font-family="Helvetica,sans-Serif" font-size="10.00">plugins/ioprocessor</text>
<text text-anchor="middle" x="642.5" y="-141.5" font-family="Helvetica,sans-Serif" font-size="10.00">/basichttp/BasicHTTPIOProcessor.h</text>
</a>
</g>
</g>
<!-- Node3&#45;&gt;Node19 -->
<g id="edge20" class="edge"><title>Node3&#45;&gt;Node19</title>
<path fill="none" stroke="midnightblue" d="M904.47,-259.691C875.982,-249.89 834.858,-235.292 799.5,-221 754.485,-202.805 703.358,-179.303 672.017,-164.562"/>
<polygon fill="midnightblue" stroke="midnightblue" points="903.395,-263.023 913.99,-262.95 905.662,-256.4 903.395,-263.023"/>
</g>
<!-- Node21 -->
<g id="node21" class="node"><title>Node21</title>
<g id="a_node21"><a xlink:href="_s_c_x_m_l_i_o_processor_8cpp.html" target="_top" xlink:title="plugins/ioprocessor\l/scxml/SCXMLIOProcessor.cpp">
<polygon fill="white" stroke="black" points="916,-67.5 916,-97.5 1073,-97.5 1073,-67.5 916,-67.5"/>
<text text-anchor="start" x="924" y="-85.5" font-family="Helvetica,sans-Serif" font-size="10.00">plugins/ioprocessor</text>
<text text-anchor="middle" x="994.5" y="-74.5" font-family="Helvetica,sans-Serif" font-size="10.00">/scxml/SCXMLIOProcessor.cpp</text>
</a>
</g>
</g>
<!-- Node3&#45;&gt;Node21 -->
<g id="edge22" class="edge"><title>Node3&#45;&gt;Node21</title>
<path fill="none" stroke="midnightblue" d="M962.461,-257.206C988.727,-239.344 1030.32,-206.072 1047.5,-165 1052.82,-152.29 1052.93,-146.664 1047.5,-134 1041.09,-119.046 1027.84,-106.421 1016.2,-97.5348"/>
<polygon fill="midnightblue" stroke="midnightblue" points="960.295,-254.441 953.874,-262.869 964.149,-260.285 960.295,-254.441"/>
</g>
<!-- Node22 -->
<g id="node22" class="node"><title>Node22</title>
<g id="a_node22"><a xlink:href="_i_o_processor_impl_8h.html" target="_top" xlink:title="plugins/IOProcessorImpl.h">
<polygon fill="white" stroke="black" points="808.5,-201.5 808.5,-220.5 942.5,-220.5 942.5,-201.5 808.5,-201.5"/>
<text text-anchor="middle" x="875.5" y="-208.5" font-family="Helvetica,sans-Serif" font-size="10.00">plugins/IOProcessorImpl.h</text>
</a>
</g>
</g>
<!-- Node3&#45;&gt;Node22 -->
<g id="edge23" class="edge"><title>Node3&#45;&gt;Node22</title>
<path fill="none" stroke="midnightblue" d="M922.989,-256.15C910.787,-244.806 894.626,-229.781 884.653,-220.509"/>
<polygon fill="midnightblue" stroke="midnightblue" points="920.623,-258.73 930.33,-262.975 925.39,-253.603 920.623,-258.73"/>
</g>
<!-- Node25 -->
<g id="node25" class="node"><title>Node25</title>
<g id="a_node25"><a xlink:href="_transformer_8h.html" target="_top" xlink:title="transform/Transformer.h">
<polygon fill="white" stroke="black" points="1122.5,-201.5 1122.5,-220.5 1246.5,-220.5 1246.5,-201.5 1122.5,-201.5"/>
<text text-anchor="middle" x="1184.5" y="-208.5" font-family="Helvetica,sans-Serif" font-size="10.00">transform/Transformer.h</text>
</a>
</g>
</g>
<!-- Node3&#45;&gt;Node25 -->
<g id="edge28" class="edge"><title>Node3&#45;&gt;Node25</title>
<path fill="none" stroke="midnightblue" d="M984.326,-260.614C1031.88,-249.065 1106.01,-231.061 1149.46,-220.509"/>
<polygon fill="midnightblue" stroke="midnightblue" points="983.494,-257.214 974.603,-262.975 985.146,-264.016 983.494,-257.214"/>
</g>
<!-- Node6 -->
<g id="node6" class="node"><title>Node6</title>
<g id="a_node6"><a xlink:href="_debugger_8cpp.html" target="_top" xlink:title="debug/Debugger.cpp">
<polygon fill="white" stroke="black" points="1456.5,-140 1456.5,-159 1566.5,-159 1566.5,-140 1456.5,-140"/>
<text text-anchor="middle" x="1511.5" y="-147" font-family="Helvetica,sans-Serif" font-size="10.00">debug/Debugger.cpp</text>
</a>
</g>
</g>
<!-- Node5&#45;&gt;Node6 -->
<g id="edge5" class="edge"><title>Node5&#45;&gt;Node6</title>
<path fill="none" stroke="midnightblue" d="M1496.16,-191.997C1500.2,-181.05 1505.19,-167.575 1508.35,-159.009"/>
<polygon fill="midnightblue" stroke="midnightblue" points="1492.84,-190.882 1492.65,-201.475 1499.4,-193.31 1492.84,-190.882"/>
</g>
<!-- Node7 -->
<g id="node7" class="node"><title>Node7</title>
<g id="a_node7"><a xlink:href="_debugger_servlet_8h.html" target="_top" xlink:title="debug/DebuggerServlet.h">
<polygon fill="white" stroke="black" points="1584.5,-140 1584.5,-159 1714.5,-159 1714.5,-140 1584.5,-140"/>
<text text-anchor="middle" x="1649.5" y="-147" font-family="Helvetica,sans-Serif" font-size="10.00">debug/DebuggerServlet.h</text>
</a>
</g>
</g>
<!-- Node5&#45;&gt;Node7 -->
<g id="edge6" class="edge"><title>Node5&#45;&gt;Node7</title>
<path fill="none" stroke="midnightblue" d="M1521.95,-197.933C1553.05,-186.368 1599.19,-169.208 1626.62,-159.009"/>
<polygon fill="midnightblue" stroke="midnightblue" points="1520.58,-194.709 1512.42,-201.475 1523.02,-201.27 1520.58,-194.709"/>
</g>
<!-- Node9 -->
<g id="node9" class="node"><title>Node9</title>
<g id="a_node9"><a xlink:href="_debug_session_8cpp.html" target="_top" xlink:title="debug/DebugSession.cpp">
<polygon fill="white" stroke="black" points="1733,-140 1733,-159 1864,-159 1864,-140 1733,-140"/>
<text text-anchor="middle" x="1798.5" y="-147" font-family="Helvetica,sans-Serif" font-size="10.00">debug/DebugSession.cpp</text>
</a>
</g>
</g>
<!-- Node5&#45;&gt;Node9 -->
<g id="edge8" class="edge"><title>Node5&#45;&gt;Node9</title>
<path fill="none" stroke="midnightblue" d="M1543.98,-199.539C1591.41,-190.428 1662,-176.858 1723.5,-165 1733.53,-163.067 1744.31,-160.984 1754.48,-159.018"/>
<polygon fill="midnightblue" stroke="midnightblue" points="1543.09,-196.146 1533.93,-201.47 1544.41,-203.021 1543.09,-196.146"/>
</g>
<!-- Node8 -->
<g id="node8" class="node"><title>Node8</title>
<g id="a_node8"><a xlink:href="_debugger_servlet_8cpp.html" target="_top" xlink:title="debug/DebuggerServlet.cpp">
<polygon fill="white" stroke="black" points="1579,-73 1579,-92 1720,-92 1720,-73 1579,-73"/>
<text text-anchor="middle" x="1649.5" y="-80" font-family="Helvetica,sans-Serif" font-size="10.00">debug/DebuggerServlet.cpp</text>
</a>
</g>
</g>
<!-- Node7&#45;&gt;Node8 -->
<g id="edge7" class="edge"><title>Node7&#45;&gt;Node8</title>
<path fill="none" stroke="midnightblue" d="M1649.5,-129.537C1649.5,-117.17 1649.5,-101.62 1649.5,-92.1273"/>
<polygon fill="midnightblue" stroke="midnightblue" points="1646,-129.734 1649.5,-139.734 1653,-129.734 1646,-129.734"/>
</g>
<!-- Node14 -->
<g id="node14" class="node"><title>Node14</title>
<g id="a_node14"><a xlink:href="_u_s_c_x_m_l_invoker_8cpp.html" target="_top" xlink:title="plugins/invoker/scxml\l/USCXMLInvoker.cpp">
<polygon fill="white" stroke="black" points="167,-67.5 167,-97.5 280,-97.5 280,-67.5 167,-67.5"/>
<text text-anchor="start" x="175" y="-85.5" font-family="Helvetica,sans-Serif" font-size="10.00">plugins/invoker/scxml</text>
<text text-anchor="middle" x="223.5" y="-74.5" font-family="Helvetica,sans-Serif" font-size="10.00">/USCXMLInvoker.cpp</text>
</a>
</g>
</g>
<!-- Node13&#45;&gt;Node14 -->
<g id="edge13" class="edge"><title>Node13&#45;&gt;Node14</title>
<path fill="none" stroke="midnightblue" d="M223.5,-124.108C223.5,-115.154 223.5,-105.323 223.5,-97.5765"/>
<polygon fill="midnightblue" stroke="midnightblue" points="220,-124.396 223.5,-134.396 227,-124.396 220,-124.396"/>
</g>
<!-- Node15&#45;&gt;Node11 -->
<g id="edge15" class="edge"><title>Node15&#45;&gt;Node11</title>
<path fill="none" stroke="midnightblue" d="M354.748,-199.688C289.124,-188.17 184.109,-169.738 122.98,-159.009"/>
<polygon fill="midnightblue" stroke="midnightblue" points="354.475,-203.194 364.93,-201.475 355.685,-196.299 354.475,-203.194"/>
</g>
<!-- Node15&#45;&gt;Node13 -->
<g id="edge18" class="edge"><title>Node15&#45;&gt;Node13</title>
<path fill="none" stroke="midnightblue" d="M376.724,-198.483C345.746,-188.782 301.324,-174.871 268.279,-164.523"/>
<polygon fill="midnightblue" stroke="midnightblue" points="375.689,-201.827 386.278,-201.475 377.781,-195.147 375.689,-201.827"/>
</g>
<!-- Node16 -->
<g id="node16" class="node"><title>Node16</title>
<g id="a_node16"><a xlink:href="_dir_mon_invoker_8h.html" target="_top" xlink:title="plugins/invoker/dirmon\l/DirMonInvoker.h">
<polygon fill="white" stroke="black" points="419,-134.5 419,-164.5 536,-164.5 536,-134.5 419,-134.5"/>
<text text-anchor="start" x="427" y="-152.5" font-family="Helvetica,sans-Serif" font-size="10.00">plugins/invoker/dirmon</text>
<text text-anchor="middle" x="477.5" y="-141.5" font-family="Helvetica,sans-Serif" font-size="10.00">/DirMonInvoker.h</text>
</a>
</g>
</g>
<!-- Node15&#45;&gt;Node16 -->
<g id="edge16" class="edge"><title>Node15&#45;&gt;Node16</title>
<path fill="none" stroke="midnightblue" d="M430.015,-194.646C440.019,-185.346 452.683,-173.572 462.416,-164.523"/>
<polygon fill="midnightblue" stroke="midnightblue" points="427.61,-192.103 422.67,-201.475 432.377,-197.23 427.61,-192.103"/>
</g>
<!-- Node18 -->
<g id="node18" class="node"><title>Node18</title>
<g id="a_node18"><a xlink:href="_invoker_8cpp.html" target="_top" xlink:title="plugins/Invoker.cpp">
<polygon fill="white" stroke="black" points="298,-140 298,-159 401,-159 401,-140 298,-140"/>
<text text-anchor="middle" x="349.5" y="-147" font-family="Helvetica,sans-Serif" font-size="10.00">plugins/Invoker.cpp</text>
</a>
</g>
</g>
<!-- Node15&#45;&gt;Node18 -->
<g id="edge19" class="edge"><title>Node15&#45;&gt;Node18</title>
<path fill="none" stroke="midnightblue" d="M396.989,-194.65C384.787,-183.306 368.626,-168.281 358.653,-159.009"/>
<polygon fill="midnightblue" stroke="midnightblue" points="394.623,-197.23 404.33,-201.475 399.39,-192.103 394.623,-197.23"/>
</g>
<!-- Node17 -->
<g id="node17" class="node"><title>Node17</title>
<g id="a_node17"><a xlink:href="_dir_mon_invoker_8cpp.html" target="_top" xlink:title="plugins/invoker/dirmon\l/DirMonInvoker.cpp">
<polygon fill="white" stroke="black" points="416,-67.5 416,-97.5 533,-97.5 533,-67.5 416,-67.5"/>
<text text-anchor="start" x="424" y="-85.5" font-family="Helvetica,sans-Serif" font-size="10.00">plugins/invoker/dirmon</text>
<text text-anchor="middle" x="474.5" y="-74.5" font-family="Helvetica,sans-Serif" font-size="10.00">/DirMonInvoker.cpp</text>
</a>
</g>
</g>
<!-- Node16&#45;&gt;Node17 -->
<g id="edge17" class="edge"><title>Node16&#45;&gt;Node17</title>
<path fill="none" stroke="midnightblue" d="M476.388,-124.403C475.971,-115.37 475.511,-105.408 475.15,-97.5765"/>
<polygon fill="midnightblue" stroke="midnightblue" points="472.892,-124.568 476.849,-134.396 479.884,-124.245 472.892,-124.568"/>
</g>
<!-- Node20 -->
<g id="node20" class="node"><title>Node20</title>
<g id="a_node20"><a xlink:href="_basic_h_t_t_p_i_o_processor_8cpp.html" target="_top" xlink:title="plugins/ioprocessor\l/basichttp/BasicHTTPIOProcessor.cpp">
<polygon fill="white" stroke="black" points="551,-67.5 551,-97.5 738,-97.5 738,-67.5 551,-67.5"/>
<text text-anchor="start" x="559" y="-85.5" font-family="Helvetica,sans-Serif" font-size="10.00">plugins/ioprocessor</text>
<text text-anchor="middle" x="644.5" y="-74.5" font-family="Helvetica,sans-Serif" font-size="10.00">/basichttp/BasicHTTPIOProcessor.cpp</text>
</a>
</g>
</g>
<!-- Node19&#45;&gt;Node20 -->
<g id="edge21" class="edge"><title>Node19&#45;&gt;Node20</title>
<path fill="none" stroke="midnightblue" d="M643.251,-124.108C643.526,-115.154 643.829,-105.323 644.067,-97.5765"/>
<polygon fill="midnightblue" stroke="midnightblue" points="639.743,-124.293 642.934,-134.396 646.74,-124.508 639.743,-124.293"/>
</g>
<!-- Node22&#45;&gt;Node19 -->
<g id="edge24" class="edge"><title>Node22&#45;&gt;Node19</title>
<path fill="none" stroke="midnightblue" d="M832.359,-198.983C794.303,-189.265 738.638,-175.05 697.413,-164.523"/>
<polygon fill="midnightblue" stroke="midnightblue" points="831.562,-202.392 842.117,-201.475 833.294,-195.61 831.562,-202.392"/>
</g>
<!-- Node23 -->
<g id="node23" class="node"><title>Node23</title>
<g id="a_node23"><a xlink:href="_s_c_x_m_l_i_o_processor_8h.html" target="_top" xlink:title="plugins/ioprocessor\l/scxml/SCXMLIOProcessor.h">
<polygon fill="white" stroke="black" points="892.5,-134.5 892.5,-164.5 1038.5,-164.5 1038.5,-134.5 892.5,-134.5"/>
<text text-anchor="start" x="900.5" y="-152.5" font-family="Helvetica,sans-Serif" font-size="10.00">plugins/ioprocessor</text>
<text text-anchor="middle" x="965.5" y="-141.5" font-family="Helvetica,sans-Serif" font-size="10.00">/scxml/SCXMLIOProcessor.h</text>
</a>
</g>
</g>
<!-- Node22&#45;&gt;Node23 -->
<g id="edge25" class="edge"><title>Node22&#45;&gt;Node23</title>
<path fill="none" stroke="midnightblue" d="M897.071,-195.739C911.375,-186.282 930.059,-173.93 944.289,-164.523"/>
<polygon fill="midnightblue" stroke="midnightblue" points="894.806,-193.041 888.395,-201.475 898.667,-198.88 894.806,-193.041"/>
</g>
<!-- Node24 -->
<g id="node24" class="node"><title>Node24</title>
<g id="a_node24"><a xlink:href="_i_o_processor_8cpp.html" target="_top" xlink:title="plugins/IOProcessor.cpp">
<polygon fill="white" stroke="black" points="749,-140 749,-159 874,-159 874,-140 749,-140"/>
<text text-anchor="middle" x="811.5" y="-147" font-family="Helvetica,sans-Serif" font-size="10.00">plugins/IOProcessor.cpp</text>
</a>
</g>
</g>
<!-- Node22&#45;&gt;Node24 -->
<g id="edge27" class="edge"><title>Node22&#45;&gt;Node24</title>
<path fill="none" stroke="midnightblue" d="M858.989,-194.65C846.787,-183.306 830.626,-168.281 820.653,-159.009"/>
<polygon fill="midnightblue" stroke="midnightblue" points="856.623,-197.23 866.33,-201.475 861.39,-192.103 856.623,-197.23"/>
</g>
<!-- Node23&#45;&gt;Node21 -->
<g id="edge26" class="edge"><title>Node23&#45;&gt;Node21</title>
<path fill="none" stroke="midnightblue" d="M975.989,-124.991C980.087,-115.804 984.65,-105.578 988.22,-97.5765"/>
<polygon fill="midnightblue" stroke="midnightblue" points="972.671,-123.838 971.793,-134.396 979.063,-126.69 972.671,-123.838"/>
</g>
<!-- Node26 -->
<g id="node26" class="node"><title>Node26</title>
<g id="a_node26"><a xlink:href="_chart_to_c_8h.html" target="_top" xlink:title="transform/ChartToC.h">
<polygon fill="white" stroke="black" points="1287,-140 1287,-159 1400,-159 1400,-140 1287,-140"/>
<text text-anchor="middle" x="1343.5" y="-147" font-family="Helvetica,sans-Serif" font-size="10.00">transform/ChartToC.h</text>
</a>
</g>
</g>
<!-- Node25&#45;&gt;Node26 -->
<g id="edge29" class="edge"><title>Node25&#45;&gt;Node26</title>
<path fill="none" stroke="midnightblue" d="M1216.75,-197.933C1247.65,-186.368 1293.51,-169.208 1320.76,-159.009"/>
<polygon fill="midnightblue" stroke="midnightblue" points="1215.42,-194.692 1207.28,-201.475 1217.87,-201.248 1215.42,-194.692"/>
</g>
<!-- Node28 -->
<g id="node28" class="node"><title>Node28</title>
<g id="a_node28"><a xlink:href="_chart_to_promela_8h.html" target="_top" xlink:title="transform/ChartToPromela.h">
<polygon fill="white" stroke="black" points="1120,-73 1120,-92 1263,-92 1263,-73 1120,-73"/>
<text text-anchor="middle" x="1191.5" y="-80" font-family="Helvetica,sans-Serif" font-size="10.00">transform/ChartToPromela.h</text>
</a>
</g>
</g>
<!-- Node25&#45;&gt;Node28 -->
<g id="edge36" class="edge"><title>Node25&#45;&gt;Node28</title>
<path fill="none" stroke="midnightblue" d="M1210.36,-195.947C1221.51,-188.383 1233.37,-177.932 1239.5,-165 1245.4,-152.549 1244.61,-146.795 1239.5,-134 1232.41,-116.252 1215.79,-101.175 1204.1,-92.2329"/>
<polygon fill="midnightblue" stroke="midnightblue" points="1208.31,-193.104 1201.7,-201.386 1212.03,-199.032 1208.31,-193.104"/>
</g>
<!-- Node31 -->
<g id="node31" class="node"><title>Node31</title>
<g id="a_node31"><a xlink:href="_chart_to_v_h_d_l_8h.html" target="_top" xlink:title="transform/ChartToVHDL.h">
<polygon fill="white" stroke="black" points="1424,-73 1424,-92 1557,-92 1557,-73 1424,-73"/>
<text text-anchor="middle" x="1490.5" y="-80" font-family="Helvetica,sans-Serif" font-size="10.00">transform/ChartToVHDL.h</text>
</a>
</g>
</g>
<!-- Node25&#45;&gt;Node31 -->
<g id="edge37" class="edge"><title>Node25&#45;&gt;Node31</title>
<path fill="none" stroke="midnightblue" d="M1256.68,-200.225C1312.13,-191.858 1383.48,-178.975 1409.5,-165 1427.07,-155.56 1466.63,-111.126 1483.09,-92.1383"/>
<polygon fill="midnightblue" stroke="midnightblue" points="1255.9,-196.802 1246.52,-201.734 1256.93,-203.726 1255.9,-196.802"/>
</g>
<!-- Node33 -->
<g id="node33" class="node"><title>Node33</title>
<g id="a_node33"><a xlink:href="_transformer_8cpp.html" target="_top" xlink:title="transform/Transformer.cpp">
<polygon fill="white" stroke="black" points="1095,-140 1095,-159 1230,-159 1230,-140 1095,-140"/>
<text text-anchor="middle" x="1162.5" y="-147" font-family="Helvetica,sans-Serif" font-size="10.00">transform/Transformer.cpp</text>
</a>
</g>
</g>
<!-- Node25&#45;&gt;Node33 -->
<g id="edge38" class="edge"><title>Node25&#45;&gt;Node33</title>
<path fill="none" stroke="midnightblue" d="M1177.84,-191.997C1173.8,-181.05 1168.81,-167.575 1165.65,-159.009"/>
<polygon fill="midnightblue" stroke="midnightblue" points="1174.6,-193.31 1181.35,-201.475 1181.16,-190.882 1174.6,-193.31"/>
</g>
<!-- Node27 -->
<g id="node27" class="node"><title>Node27</title>
<g id="a_node27"><a xlink:href="_chart_to_c_8cpp.html" target="_top" xlink:title="transform/ChartToC.cpp">
<polygon fill="white" stroke="black" points="1281.5,-73 1281.5,-92 1405.5,-92 1405.5,-73 1281.5,-73"/>
<text text-anchor="middle" x="1343.5" y="-80" font-family="Helvetica,sans-Serif" font-size="10.00">transform/ChartToC.cpp</text>
</a>
</g>
</g>
<!-- Node26&#45;&gt;Node27 -->
<g id="edge30" class="edge"><title>Node26&#45;&gt;Node27</title>
<path fill="none" stroke="midnightblue" d="M1343.5,-129.537C1343.5,-117.17 1343.5,-101.62 1343.5,-92.1273"/>
<polygon fill="midnightblue" stroke="midnightblue" points="1340,-129.734 1343.5,-139.734 1347,-129.734 1340,-129.734"/>
</g>
<!-- Node26&#45;&gt;Node28 -->
<g id="edge31" class="edge"><title>Node26&#45;&gt;Node28</title>
<path fill="none" stroke="midnightblue" d="M1313.76,-135.781C1283.66,-122.909 1237.93,-103.355 1211.77,-92.1672"/>
<polygon fill="midnightblue" stroke="midnightblue" points="1312.74,-139.155 1323.32,-139.869 1315.5,-132.718 1312.74,-139.155"/>
</g>
<!-- Node26&#45;&gt;Node31 -->
<g id="edge34" class="edge"><title>Node26&#45;&gt;Node31</title>
<path fill="none" stroke="midnightblue" d="M1372.26,-135.781C1401.38,-122.909 1445.6,-103.355 1470.9,-92.1672"/>
<polygon fill="midnightblue" stroke="midnightblue" points="1370.75,-132.623 1363.02,-139.869 1373.58,-139.025 1370.75,-132.623"/>
</g>
<!-- Node29 -->
<g id="node29" class="node"><title>Node29</title>
<g id="a_node29"><a xlink:href="_chart_to_promela_8cpp.html" target="_top" xlink:title="transform/ChartToPromela.cpp">
<polygon fill="white" stroke="black" points="1020.5,-6 1020.5,-25 1174.5,-25 1174.5,-6 1020.5,-6"/>
<text text-anchor="middle" x="1097.5" y="-13" font-family="Helvetica,sans-Serif" font-size="10.00">transform/ChartToPromela.cpp</text>
</a>
</g>
</g>
<!-- Node28&#45;&gt;Node29 -->
<g id="edge32" class="edge"><title>Node28&#45;&gt;Node29</title>
<path fill="none" stroke="midnightblue" d="M1170.41,-66.9196C1151.83,-54.0695 1125.38,-35.7821 1109.98,-25.1273"/>
<polygon fill="midnightblue" stroke="midnightblue" points="1168.61,-69.925 1178.82,-72.7338 1172.59,-64.1674 1168.61,-69.925"/>
</g>
<!-- Node30 -->
<g id="node30" class="node"><title>Node30</title>
<g id="a_node30"><a xlink:href="_promela_code_analyzer_8cpp.html" target="_top" xlink:title="transform/promela/Promela\lCodeAnalyzer.cpp">
<polygon fill="white" stroke="black" points="1192.5,-0.5 1192.5,-30.5 1330.5,-30.5 1330.5,-0.5 1192.5,-0.5"/>
<text text-anchor="start" x="1200.5" y="-18.5" font-family="Helvetica,sans-Serif" font-size="10.00">transform/promela/Promela</text>
<text text-anchor="middle" x="1261.5" y="-7.5" font-family="Helvetica,sans-Serif" font-size="10.00">CodeAnalyzer.cpp</text>
</a>
</g>
</g>
<!-- Node28&#45;&gt;Node30 -->
<g id="edge33" class="edge"><title>Node28&#45;&gt;Node30</title>
<path fill="none" stroke="midnightblue" d="M1208.27,-65.928C1219.85,-55.1788 1235.11,-41.0024 1246.33,-30.589"/>
<polygon fill="midnightblue" stroke="midnightblue" points="1205.89,-63.3645 1200.94,-72.7338 1210.65,-68.4941 1205.89,-63.3645"/>
</g>
<!-- Node32 -->
<g id="node32" class="node"><title>Node32</title>
<g id="a_node32"><a xlink:href="_chart_to_v_h_d_l_8cpp.html" target="_top" xlink:title="transform/ChartToVHDL.cpp">
<polygon fill="white" stroke="black" points="1419,-6 1419,-25 1562,-25 1562,-6 1419,-6"/>
<text text-anchor="middle" x="1490.5" y="-13" font-family="Helvetica,sans-Serif" font-size="10.00">transform/ChartToVHDL.cpp</text>
</a>
</g>
</g>
<!-- Node31&#45;&gt;Node32 -->
<g id="edge35" class="edge"><title>Node31&#45;&gt;Node32</title>
<path fill="none" stroke="midnightblue" d="M1490.5,-62.537C1490.5,-50.1703 1490.5,-34.6198 1490.5,-25.1273"/>
<polygon fill="midnightblue" stroke="midnightblue" points="1487,-62.7338 1490.5,-72.7338 1494,-62.7338 1487,-62.7338"/>
</g>
</g>
</svg>
        <g id="navigator" transform="translate(0 0)" fill="#404254">
                <rect fill="#f2f5e9" fill-opacity="0.5" stroke="#606060" stroke-width=".5" x="0" y="0" width="60" height="60"/>
                <use id="zoomplus" xlink:href="#zoomPlus" x="17" y="9" onmousedown="handleZoom(evt,'in')"/>
                <use id="zoomminus" xlink:href="#zoomMin" x="42" y="9" onmousedown="handleZoom(evt,'out')"/>
                <use id="reset" xlink:href="#resetDef" x="30" y="36" onmousedown="handleReset()"/>
                <g id="arrowUp" xlink:href="#dirArrow" transform="translate(30 24)" onmousedown="handlePan(0,-1)">
                  <use xlink:href="#rim" fill="#404040">
                        <set attributeName="fill" to="#808080" begin="arrowUp.mouseover" end="arrowUp.mouseout"/>
                  </use>
                  <path fill="none" stroke="white" stroke-width="1.5" d="M0,-3.0v7 M-2.5,-0.5L0,-3.0L2.5,-0.5"/>
                </g>
                <g id="arrowRight" xlink:href="#dirArrow" transform="rotate(90) translate(36 -43)" onmousedown="handlePan(1,0)">
                  <use xlink:href="#rim" fill="#404040">
                        <set attributeName="fill" to="#808080" begin="arrowRight.mouseover" end="arrowRight.mouseout"/>
                  </use>
                  <path fill="none" stroke="white" stroke-width="1.5" d="M0,-3.0v7 M-2.5,-0.5L0,-3.0L2.5,-0.5"/>
                </g>
                <g id="arrowDown" xlink:href="#dirArrow" transform="rotate(180) translate(-30 -48)" onmousedown="handlePan(0,1)">
                  <use xlink:href="#rim" fill="#404040">
                        <set attributeName="fill" to="#808080" begin="arrowDown.mouseover" end="arrowDown.mouseout"/>
                  </use>
                  <path fill="none" stroke="white" stroke-width="1.5" d="M0,-3.0v7 M-2.5,-0.5L0,-3.0L2.5,-0.5"/>
                </g>
                <g id="arrowLeft" xlink:href="#dirArrow" transform="rotate(270) translate(-36 17)" onmousedown="handlePan(-1,0)">
                  <use xlink:href="#rim" fill="#404040">
                        <set attributeName="fill" to="#808080" begin="arrowLeft.mouseover" end="arrowLeft.mouseout"/>
                  </use>
                  <path fill="none" stroke="white" stroke-width="1.5" d="M0,-3.0v7 M-2.5,-0.5L0,-3.0L2.5,-0.5"/>
                </g>
        </g>
        <svg viewBox="0 0 15 15" width="100%" height="30px" preserveAspectRatio="xMaxYMin meet">
         <g id="arrow_out" transform="scale(0.3 0.3)">
          <a xlink:href="_u_r_l_8h__dep__incl_org.svg" target="_base">
           <rect id="button" ry="5" rx="5" y="6" x="6" height="38" width="38"
                fill="#f2f5e9" fill-opacity="0.5" stroke="#606060" stroke-width="1.0"/>
           <path id="arrow"
             d="M 11.500037,31.436501 C 11.940474,20.09759 22.043105,11.32322 32.158766,21.979434 L 37.068811,17.246167 C 37.068811,17.246167 37.088388,32 37.088388,32 L 22.160133,31.978069 C 22.160133,31.978069 26.997745,27.140456 26.997745,27.140456 C 18.528582,18.264221 13.291696,25.230495 11.500037,31.436501 z"
             style="fill:#404040;"/>
          </a>
         </g>
        </svg>
</svg>
