<?xml version="1.0" encoding="UTF-8" standalone="no"?>
<!DOCTYPE svg PUBLIC "-//W3C//DTD SVG 1.1//EN"
 "http://www.w3.org/Graphics/SVG/1.1/DTD/svg11.dtd">
<!-- Generated by graphviz version 2.38.0 (20140413.2041)
 -->
<!-- Title: util/URL.h Pages: 1 -->
<svg width="1459pt" height="285pt"
 viewBox="0.00 0.00 1459.00 285.00" xmlns="http://www.w3.org/2000/svg" xmlns:xlink="http://www.w3.org/1999/xlink">
<g id="graph0" class="graph" transform="scale(1 1) rotate(0) translate(4 281)">
<title>util/URL.h</title>
<polygon fill="white" stroke="none" points="-4,4 -4,-281 1455,-281 1455,4 -4,4"/>
<!-- Node1 -->
<g id="node1" class="node"><title>Node1</title>
<polygon fill="#bfbfbf" stroke="black" points="943.5,-257.5 943.5,-276.5 1003.5,-276.5 1003.5,-257.5 943.5,-257.5"/>
<text text-anchor="middle" x="973.5" y="-264.5" font-family="Helvetica,sans-Serif" font-size="10.00">util/URL.h</text>
</g>
<!-- Node2 -->
<g id="node2" class="node"><title>Node2</title>
<g id="a_node2"><a xlink:href="_basic_content_executor_8cpp.html" target="_top" xlink:title="interpreter/BasicContent\lExecutor.cpp">
<polygon fill="white" stroke="black" points="548.5,-190.5 548.5,-220.5 672.5,-220.5 672.5,-190.5 548.5,-190.5"/>
<text text-anchor="start" x="556.5" y="-208.5" font-family="Helvetica,sans-Serif" font-size="10.00">interpreter/BasicContent</text>
<text text-anchor="middle" x="610.5" y="-197.5" font-family="Helvetica,sans-Serif" font-size="10.00">Executor.cpp</text>
</a>
</g>
</g>
<!-- Node1&#45;&gt;Node2 -->
<g id="edge1" class="edge"><title>Node1&#45;&gt;Node2</title>
<path fill="none" stroke="midnightblue" d="M933.207,-260.422C876.787,-252.467 771.097,-237.043 681.5,-221 678.652,-220.49 675.742,-219.955 672.805,-219.402"/>
<polygon fill="midnightblue" stroke="midnightblue" points="932.764,-263.894 943.154,-261.819 933.738,-256.962 932.764,-263.894"/>
</g>
<!-- Node3 -->
<g id="node3" class="node"><title>Node3</title>
<g id="a_node3"><a xlink:href="_interpreter_impl_8h.html" target="_top" xlink:title="interpreter/InterpreterImpl.h">
<polygon fill="white" stroke="black" points="690.5,-196 690.5,-215 828.5,-215 828.5,-196 690.5,-196"/>
<text text-anchor="middle" x="759.5" y="-203" font-family="Helvetica,sans-Serif" font-size="10.00">interpreter/InterpreterImpl.h</text>
</a>
</g>
</g>
<!-- Node1&#45;&gt;Node3 -->
<g id="edge2" class="edge"><title>Node1&#45;&gt;Node3</title>
<path fill="none" stroke="midnightblue" d="M933.511,-254.882C891.999,-243.34 827.965,-225.536 790.246,-215.049"/>
<polygon fill="midnightblue" stroke="midnightblue" points="932.721,-258.295 943.293,-257.601 934.596,-251.55 932.721,-258.295"/>
</g>
<!-- Node6 -->
<g id="node6" class="node"><title>Node6</title>
<g id="a_node6"><a xlink:href="_interpreter_8cpp.html" target="_top" xlink:title="Interpreter.cpp">
<polygon fill="white" stroke="black" points="1102.5,-134.5 1102.5,-153.5 1184.5,-153.5 1184.5,-134.5 1102.5,-134.5"/>
<text text-anchor="middle" x="1143.5" y="-141.5" font-family="Helvetica,sans-Serif" font-size="10.00">Interpreter.cpp</text>
</a>
</g>
</g>
<!-- Node1&#45;&gt;Node6 -->
<g id="edge29" class="edge"><title>Node1&#45;&gt;Node6</title>
<path fill="none" stroke="midnightblue" d="M933.653,-258.469C912.516,-252.23 888.324,-241 875.5,-221 868.063,-209.402 866.587,-200.506 875.5,-190 907.265,-152.559 1045.11,-162.349 1093.5,-154 1096.37,-153.505 1099.33,-152.988 1102.31,-152.463"/>
<polygon fill="midnightblue" stroke="midnightblue" points="932.845,-261.876 943.409,-261.073 934.65,-255.112 932.845,-261.876"/>
</g>
<!-- Node23 -->
<g id="node23" class="node"><title>Node23</title>
<g id="a_node23"><a xlink:href="_j_s_c_data_model_8cpp.html" target="_top" xlink:title="plugins/datamodel/ecmascript\l/JavaScriptCore/JSCDataModel.cpp">
<polygon fill="white" stroke="black" points="885,-190.5 885,-220.5 1062,-220.5 1062,-190.5 885,-190.5"/>
<text text-anchor="start" x="893" y="-208.5" font-family="Helvetica,sans-Serif" font-size="10.00">plugins/datamodel/ecmascript</text>
<text text-anchor="middle" x="973.5" y="-197.5" font-family="Helvetica,sans-Serif" font-size="10.00">/JavaScriptCore/JSCDataModel.cpp</text>
</a>
</g>
</g>
<!-- Node1&#45;&gt;Node23 -->
<g id="edge30" class="edge"><title>Node1&#45;&gt;Node23</title>
<path fill="none" stroke="midnightblue" d="M973.5,-247.235C973.5,-238.586 973.5,-228.497 973.5,-220.523"/>
<polygon fill="midnightblue" stroke="midnightblue" points="970,-247.475 973.5,-257.475 977,-247.475 970,-247.475"/>
</g>
<!-- Node24 -->
<g id="node24" class="node"><title>Node24</title>
<g id="a_node24"><a xlink:href="_v8_data_model_8cpp.html" target="_top" xlink:title="plugins/datamodel/ecmascript\l/v8/V8DataModel.cpp">
<polygon fill="white" stroke="black" points="1080,-190.5 1080,-220.5 1229,-220.5 1229,-190.5 1080,-190.5"/>
<text text-anchor="start" x="1088" y="-208.5" font-family="Helvetica,sans-Serif" font-size="10.00">plugins/datamodel/ecmascript</text>
<text text-anchor="middle" x="1154.5" y="-197.5" font-family="Helvetica,sans-Serif" font-size="10.00">/v8/V8DataModel.cpp</text>
</a>
</g>
</g>
<!-- Node1&#45;&gt;Node24 -->
<g id="edge31" class="edge"><title>Node1&#45;&gt;Node24</title>
<path fill="none" stroke="midnightblue" d="M1009.3,-254.23C1038.78,-244.542 1080.64,-230.782 1111.84,-220.523"/>
<polygon fill="midnightblue" stroke="midnightblue" points="1007.84,-251.027 999.433,-257.475 1010.03,-257.677 1007.84,-251.027"/>
</g>
<!-- Node25 -->
<g id="node25" class="node"><title>Node25</title>
<g id="a_node25"><a xlink:href="_lua_data_model_8cpp.html" target="_top" xlink:title="plugins/datamodel/lua\l/LuaDataModel.cpp">
<polygon fill="white" stroke="black" points="1247.5,-190.5 1247.5,-220.5 1361.5,-220.5 1361.5,-190.5 1247.5,-190.5"/>
<text text-anchor="start" x="1255.5" y="-208.5" font-family="Helvetica,sans-Serif" font-size="10.00">plugins/datamodel/lua</text>
<text text-anchor="middle" x="1304.5" y="-197.5" font-family="Helvetica,sans-Serif" font-size="10.00">/LuaDataModel.cpp</text>
</a>
</g>
</g>
<!-- Node1&#45;&gt;Node25 -->
<g id="edge32" class="edge"><title>Node1&#45;&gt;Node25</title>
<path fill="none" stroke="midnightblue" d="M1013.95,-259.751C1066.01,-251.565 1159.22,-236.431 1238.5,-221 1241.38,-220.44 1244.32,-219.85 1247.3,-219.243"/>
<polygon fill="midnightblue" stroke="midnightblue" points="1013.13,-256.337 1003.79,-261.342 1014.21,-263.252 1013.13,-256.337"/>
</g>
<!-- Node26 -->
<g id="node26" class="node"><title>Node26</title>
<g id="a_node26"><a xlink:href="_u_r_l_8cpp.html" target="_top" xlink:title="util/URL.cpp">
<polygon fill="white" stroke="black" points="1380,-196 1380,-215 1451,-215 1451,-196 1380,-196"/>
<text text-anchor="middle" x="1415.5" y="-203" font-family="Helvetica,sans-Serif" font-size="10.00">util/URL.cpp</text>
</a>
</g>
</g>
<!-- Node1&#45;&gt;Node26 -->
<g id="edge33" class="edge"><title>Node1&#45;&gt;Node26</title>
<path fill="none" stroke="midnightblue" d="M1013.74,-264.086C1085.92,-260.067 1241.89,-248.721 1370.5,-221 1377.56,-219.478 1385.08,-217.289 1391.92,-215.072"/>
<polygon fill="midnightblue" stroke="midnightblue" points="1013.51,-260.593 1003.71,-264.626 1013.89,-267.583 1013.51,-260.593"/>
</g>
<!-- Node4 -->
<g id="node4" class="node"><title>Node4</title>
<g id="a_node4"><a xlink:href="_interpreter_issue_8cpp.html" target="_top" xlink:title="debug/InterpreterIssue.cpp">
<polygon fill="white" stroke="black" points="768.5,-134.5 768.5,-153.5 904.5,-153.5 904.5,-134.5 768.5,-134.5"/>
<text text-anchor="middle" x="836.5" y="-141.5" font-family="Helvetica,sans-Serif" font-size="10.00">debug/InterpreterIssue.cpp</text>
</a>
</g>
</g>
<!-- Node3&#45;&gt;Node4 -->
<g id="edge3" class="edge"><title>Node3&#45;&gt;Node4</title>
<path fill="none" stroke="midnightblue" d="M778.532,-189.794C793.302,-178.38 813.261,-162.958 825.488,-153.509"/>
<polygon fill="midnightblue" stroke="midnightblue" points="776.305,-187.091 770.532,-195.975 780.585,-192.63 776.305,-187.091"/>
</g>
<!-- Node5 -->
<g id="node5" class="node"><title>Node5</title>
<g id="a_node5"><a xlink:href="_interpreter_impl_8cpp.html" target="_top" xlink:title="interpreter/InterpreterImpl.cpp">
<polygon fill="white" stroke="black" points="0,-73 0,-92 149,-92 149,-73 0,-73"/>
<text text-anchor="middle" x="74.5" y="-80" font-family="Helvetica,sans-Serif" font-size="10.00">interpreter/InterpreterImpl.cpp</text>
</a>
</g>
</g>
<!-- Node3&#45;&gt;Node5 -->
<g id="edge4" class="edge"><title>Node3&#45;&gt;Node5</title>
<path fill="none" stroke="midnightblue" d="M708.41,-194.196C699.467,-192.623 690.232,-191.146 681.5,-190 475.537,-162.979 415.682,-209.482 215.5,-154 165.125,-140.038 111.431,-107.666 87.4113,-92.1267"/>
<polygon fill="midnightblue" stroke="midnightblue" points="707.876,-197.656 718.341,-195.999 709.127,-190.769 707.876,-197.656"/>
</g>
<!-- Node3&#45;&gt;Node6 -->
<g id="edge5" class="edge"><title>Node3&#45;&gt;Node6</title>
<path fill="none" stroke="midnightblue" d="M816.836,-194.249C825.431,-192.78 834.193,-191.321 842.5,-190 953.799,-172.301 982.247,-171.985 1093.5,-154 1096.37,-153.535 1099.34,-153.041 1102.32,-152.533"/>
<polygon fill="midnightblue" stroke="midnightblue" points="816.121,-190.82 806.862,-195.969 817.311,-197.718 816.121,-190.82"/>
</g>
<!-- Node7 -->
<g id="node7" class="node"><title>Node7</title>
<g id="a_node7"><a xlink:href="_u_s_c_x_m_l_invoker_8h.html" target="_top" xlink:title="plugins/invoker/scxml\l/USCXMLInvoker.h">
<polygon fill="white" stroke="black" points="288.5,-67.5 288.5,-97.5 400.5,-97.5 400.5,-67.5 288.5,-67.5"/>
<text text-anchor="start" x="296.5" y="-85.5" font-family="Helvetica,sans-Serif" font-size="10.00">plugins/invoker/scxml</text>
<text text-anchor="middle" x="344.5" y="-74.5" font-family="Helvetica,sans-Serif" font-size="10.00">/USCXMLInvoker.h</text>
</a>
</g>
</g>
<!-- Node3&#45;&gt;Node7 -->
<g id="edge6" class="edge"><title>Node3&#45;&gt;Node7</title>
<path fill="none" stroke="midnightblue" d="M716.585,-193.382C678.603,-183.43 621.722,-168.251 572.5,-154 508.226,-135.391 434.308,-112.203 388.493,-97.6203"/>
<polygon fill="midnightblue" stroke="midnightblue" points="715.735,-196.777 726.295,-195.92 717.506,-190.005 715.735,-196.777"/>
</g>
<!-- Node10 -->
<g id="node10" class="node"><title>Node10</title>
<g id="a_node10"><a xlink:href="_invoker_impl_8h.html" target="_top" xlink:title="plugins/InvokerImpl.h">
<polygon fill="white" stroke="black" points="225,-134.5 225,-153.5 336,-153.5 336,-134.5 225,-134.5"/>
<text text-anchor="middle" x="280.5" y="-141.5" font-family="Helvetica,sans-Serif" font-size="10.00">plugins/InvokerImpl.h</text>
</a>
</g>
</g>
<!-- Node3&#45;&gt;Node10 -->
<g id="edge9" class="edge"><title>Node3&#45;&gt;Node10</title>
<path fill="none" stroke="midnightblue" d="M706.602,-194.135C698.22,-192.646 689.636,-191.211 681.5,-190 558.681,-171.717 413.7,-157.179 336.126,-149.965"/>
<polygon fill="midnightblue" stroke="midnightblue" points="706.216,-197.622 716.68,-195.966 707.467,-190.735 706.216,-197.622"/>
</g>
<!-- Node12 -->
<g id="node12" class="node"><title>Node12</title>
<g id="a_node12"><a xlink:href="_basic_h_t_t_p_i_o_processor_8h.html" target="_top" xlink:title="plugins/ioprocessor\l/basichttp/BasicHTTPIOProcessor.h">
<polygon fill="white" stroke="black" points="419,-67.5 419,-97.5 596,-97.5 596,-67.5 419,-67.5"/>
<text text-anchor="start" x="427" y="-85.5" font-family="Helvetica,sans-Serif" font-size="10.00">plugins/ioprocessor</text>
<text text-anchor="middle" x="507.5" y="-74.5" font-family="Helvetica,sans-Serif" font-size="10.00">/basichttp/BasicHTTPIOProcessor.h</text>
</a>
</g>
</g>
<!-- Node3&#45;&gt;Node12 -->
<g id="edge13" class="edge"><title>Node3&#45;&gt;Node12</title>
<path fill="none" stroke="midnightblue" d="M714.566,-193.319C683.557,-184.713 641.884,-171.355 607.5,-154 576.021,-138.112 543.319,-113.185 524.216,-97.6227"/>
<polygon fill="midnightblue" stroke="midnightblue" points="713.669,-196.702 724.237,-195.945 715.504,-189.947 713.669,-196.702"/>
</g>
<!-- Node14 -->
<g id="node14" class="node"><title>Node14</title>
<g id="a_node14"><a xlink:href="_s_c_x_m_l_i_o_processor_8cpp.html" target="_top" xlink:title="plugins/ioprocessor\l/scxml/SCXMLIOProcessor.cpp">
<polygon fill="white" stroke="black" points="729,-0.5 729,-30.5 886,-30.5 886,-0.5 729,-0.5"/>
<text text-anchor="start" x="737" y="-18.5" font-family="Helvetica,sans-Serif" font-size="10.00">plugins/ioprocessor</text>
<text text-anchor="middle" x="807.5" y="-7.5" font-family="Helvetica,sans-Serif" font-size="10.00">/scxml/SCXMLIOProcessor.cpp</text>
</a>
</g>
</g>
<!-- Node3&#45;&gt;Node14 -->
<g id="edge16" class="edge"><title>Node3&#45;&gt;Node14</title>
<path fill="none" stroke="midnightblue" d="M838.492,-197.596C866.838,-190.854 896.075,-178.051 913.5,-154 922.945,-140.962 942.68,-114.218 912.5,-67 901.443,-49.7004 882.648,-38.1802 863.989,-30.5761"/>
<polygon fill="midnightblue" stroke="midnightblue" points="837.566,-194.215 828.524,-199.736 839.036,-201.059 837.566,-194.215"/>
</g>
<!-- Node15 -->
<g id="node15" class="node"><title>Node15</title>
<g id="a_node15"><a xlink:href="_i_o_processor_impl_8h.html" target="_top" xlink:title="plugins/IOProcessorImpl.h">
<polygon fill="white" stroke="black" points="616.5,-134.5 616.5,-153.5 750.5,-153.5 750.5,-134.5 616.5,-134.5"/>
<text text-anchor="middle" x="683.5" y="-141.5" font-family="Helvetica,sans-Serif" font-size="10.00">plugins/IOProcessorImpl.h</text>
</a>
</g>
</g>
<!-- Node3&#45;&gt;Node15 -->
<g id="edge17" class="edge"><title>Node3&#45;&gt;Node15</title>
<path fill="none" stroke="midnightblue" d="M740.716,-189.794C726.137,-178.38 706.438,-162.958 694.369,-153.509"/>
<polygon fill="midnightblue" stroke="midnightblue" points="738.579,-192.566 748.611,-195.975 742.895,-187.055 738.579,-192.566"/>
</g>
<!-- Node18 -->
<g id="node18" class="node"><title>Node18</title>
<g id="a_node18"><a xlink:href="_transformer_8h.html" target="_top" xlink:title="transform/Transformer.h">
<polygon fill="white" stroke="black" points="960.5,-134.5 960.5,-153.5 1084.5,-153.5 1084.5,-134.5 960.5,-134.5"/>
<text text-anchor="middle" x="1022.5" y="-141.5" font-family="Helvetica,sans-Serif" font-size="10.00">transform/Transformer.h</text>
</a>
</g>
</g>
<!-- Node3&#45;&gt;Node18 -->
<g id="edge23" class="edge"><title>Node3&#45;&gt;Node18</title>
<path fill="none" stroke="midnightblue" d="M806.98,-193.758C857.999,-182.216 938.05,-164.106 984.888,-153.509"/>
<polygon fill="midnightblue" stroke="midnightblue" points="806.163,-190.355 797.181,-195.975 807.707,-197.182 806.163,-190.355"/>
</g>
<!-- Node8 -->
<g id="node8" class="node"><title>Node8</title>
<g id="a_node8"><a xlink:href="_factory_8cpp.html" target="_top" xlink:title="plugins/Factory.cpp">
<polygon fill="white" stroke="black" points="608,-6 608,-25 711,-25 711,-6 608,-6"/>
<text text-anchor="middle" x="659.5" y="-13" font-family="Helvetica,sans-Serif" font-size="10.00">plugins/Factory.cpp</text>
</a>
</g>
</g>
<!-- Node7&#45;&gt;Node8 -->
<g id="edge7" class="edge"><title>Node7&#45;&gt;Node8</title>
<path fill="none" stroke="midnightblue" d="M410.847,-66.7616C494.931,-49.6063 517.986,-48.2282 598.5,-31 607.016,-29.1779 616.166,-27.0786 624.723,-25.0533"/>
<polygon fill="midnightblue" stroke="midnightblue" points="409.937,-63.3754 400.847,-68.8172 411.347,-70.2321 409.937,-63.3754"/>
</g>
<!-- Node9 -->
<g id="node9" class="node"><title>Node9</title>
<g id="a_node9"><a xlink:href="_u_s_c_x_m_l_invoker_8cpp.html" target="_top" xlink:title="plugins/invoker/scxml\l/USCXMLInvoker.cpp">
<polygon fill="white" stroke="black" points="272,-0.5 272,-30.5 385,-30.5 385,-0.5 272,-0.5"/>
<text text-anchor="start" x="280" y="-18.5" font-family="Helvetica,sans-Serif" font-size="10.00">plugins/invoker/scxml</text>
<text text-anchor="middle" x="328.5" y="-7.5" font-family="Helvetica,sans-Serif" font-size="10.00">/USCXMLInvoker.cpp</text>
</a>
</g>
</g>
<!-- Node7&#45;&gt;Node9 -->
<g id="edge8" class="edge"><title>Node7&#45;&gt;Node9</title>
<path fill="none" stroke="midnightblue" d="M338.568,-57.4029C336.345,-48.3703 333.893,-38.4078 331.965,-30.5765"/>
<polygon fill="midnightblue" stroke="midnightblue" points="335.239,-58.5224 341.028,-67.396 342.037,-56.8492 335.239,-58.5224"/>
</g>
<!-- Node10&#45;&gt;Node5 -->
<g id="edge10" class="edge"><title>Node10&#45;&gt;Node5</title>
<path fill="none" stroke="midnightblue" d="M241.294,-131.676C201.266,-120.114 140.036,-102.429 103.96,-92.0091"/>
<polygon fill="midnightblue" stroke="midnightblue" points="240.407,-135.063 250.985,-134.475 242.349,-128.338 240.407,-135.063"/>
</g>
<!-- Node10&#45;&gt;Node7 -->
<g id="edge11" class="edge"><title>Node10&#45;&gt;Node7</title>
<path fill="none" stroke="midnightblue" d="M297.015,-127.646C307.019,-118.346 319.683,-106.572 329.416,-97.523"/>
<polygon fill="midnightblue" stroke="midnightblue" points="294.61,-125.103 289.67,-134.475 299.377,-130.23 294.61,-125.103"/>
</g>
<!-- Node11 -->
<g id="node11" class="node"><title>Node11</title>
<g id="a_node11"><a xlink:href="_invoker_8cpp.html" target="_top" xlink:title="plugins/Invoker.cpp">
<polygon fill="white" stroke="black" points="167,-73 167,-92 270,-92 270,-73 167,-73"/>
<text text-anchor="middle" x="218.5" y="-80" font-family="Helvetica,sans-Serif" font-size="10.00">plugins/Invoker.cpp</text>
</a>
</g>
</g>
<!-- Node10&#45;&gt;Node11 -->
<g id="edge12" class="edge"><title>Node10&#45;&gt;Node11</title>
<path fill="none" stroke="midnightblue" d="M264.166,-127.325C252.387,-116.02 236.936,-101.193 227.367,-92.0091"/>
<polygon fill="midnightblue" stroke="midnightblue" points="261.978,-130.076 271.617,-134.475 266.825,-125.026 261.978,-130.076"/>
</g>
<!-- Node12&#45;&gt;Node8 -->
<g id="edge14" class="edge"><title>Node12&#45;&gt;Node8</title>
<path fill="none" stroke="midnightblue" d="M549.689,-63.4585C579.057,-50.9001 616.884,-34.724 639.607,-25.007"/>
<polygon fill="midnightblue" stroke="midnightblue" points="548.3,-60.2459 540.482,-67.396 551.053,-66.6821 548.3,-60.2459"/>
</g>
<!-- Node13 -->
<g id="node13" class="node"><title>Node13</title>
<g id="a_node13"><a xlink:href="_basic_h_t_t_p_i_o_processor_8cpp.html" target="_top" xlink:title="plugins/ioprocessor\l/basichttp/BasicHTTPIOProcessor.cpp">
<polygon fill="white" stroke="black" points="403,-0.5 403,-30.5 590,-30.5 590,-0.5 403,-0.5"/>
<text text-anchor="start" x="411" y="-18.5" font-family="Helvetica,sans-Serif" font-size="10.00">plugins/ioprocessor</text>
<text text-anchor="middle" x="496.5" y="-7.5" font-family="Helvetica,sans-Serif" font-size="10.00">/basichttp/BasicHTTPIOProcessor.cpp</text>
</a>
</g>
</g>
<!-- Node12&#45;&gt;Node13 -->
<g id="edge15" class="edge"><title>Node12&#45;&gt;Node13</title>
<path fill="none" stroke="midnightblue" d="M503.422,-57.4029C501.893,-48.3703 500.207,-38.4078 498.882,-30.5765"/>
<polygon fill="midnightblue" stroke="midnightblue" points="499.994,-58.1202 505.113,-67.396 506.895,-56.9521 499.994,-58.1202"/>
</g>
<!-- Node15&#45;&gt;Node12 -->
<g id="edge18" class="edge"><title>Node15&#45;&gt;Node12</title>
<path fill="none" stroke="midnightblue" d="M648.685,-131.23C620.027,-121.542 579.324,-107.782 548.98,-97.523"/>
<polygon fill="midnightblue" stroke="midnightblue" points="647.689,-134.588 658.283,-134.475 649.931,-127.957 647.689,-134.588"/>
</g>
<!-- Node16 -->
<g id="node16" class="node"><title>Node16</title>
<g id="a_node16"><a xlink:href="_s_c_x_m_l_i_o_processor_8h.html" target="_top" xlink:title="plugins/ioprocessor\l/scxml/SCXMLIOProcessor.h">
<polygon fill="white" stroke="black" points="614.5,-67.5 614.5,-97.5 760.5,-97.5 760.5,-67.5 614.5,-67.5"/>
<text text-anchor="start" x="622.5" y="-85.5" font-family="Helvetica,sans-Serif" font-size="10.00">plugins/ioprocessor</text>
<text text-anchor="middle" x="687.5" y="-74.5" font-family="Helvetica,sans-Serif" font-size="10.00">/scxml/SCXMLIOProcessor.h</text>
</a>
</g>
</g>
<!-- Node15&#45;&gt;Node16 -->
<g id="edge19" class="edge"><title>Node15&#45;&gt;Node16</title>
<path fill="none" stroke="midnightblue" d="M684.762,-124.235C685.343,-115.586 686.021,-105.497 686.557,-97.523"/>
<polygon fill="midnightblue" stroke="midnightblue" points="681.252,-124.263 684.073,-134.475 688.236,-124.732 681.252,-124.263"/>
</g>
<!-- Node17 -->
<g id="node17" class="node"><title>Node17</title>
<g id="a_node17"><a xlink:href="_i_o_processor_8cpp.html" target="_top" xlink:title="plugins/IOProcessor.cpp">
<polygon fill="white" stroke="black" points="779,-73 779,-92 904,-92 904,-73 779,-73"/>
<text text-anchor="middle" x="841.5" y="-80" font-family="Helvetica,sans-Serif" font-size="10.00">plugins/IOProcessor.cpp</text>
</a>
</g>
</g>
<!-- Node15&#45;&gt;Node17 -->
<g id="edge22" class="edge"><title>Node15&#45;&gt;Node17</title>
<path fill="none" stroke="midnightblue" d="M715.544,-130.933C746.253,-119.368 791.821,-102.208 818.904,-92.0091"/>
<polygon fill="midnightblue" stroke="midnightblue" points="714.262,-127.675 706.138,-134.475 716.729,-134.226 714.262,-127.675"/>
</g>
<!-- Node16&#45;&gt;Node8 -->
<g id="edge20" class="edge"><title>Node16&#45;&gt;Node8</title>
<path fill="none" stroke="midnightblue" d="M677.352,-57.9425C672.44,-46.5402 666.843,-33.5454 663.245,-25.1945"/>
<polygon fill="midnightblue" stroke="midnightblue" points="674.254,-59.5965 681.424,-67.396 680.683,-56.8271 674.254,-59.5965"/>
</g>
<!-- Node16&#45;&gt;Node14 -->
<g id="edge21" class="edge"><title>Node16&#45;&gt;Node14</title>
<path fill="none" stroke="midnightblue" d="M722.438,-62.575C741.315,-52.3502 764.226,-39.94 781.513,-30.5765"/>
<polygon fill="midnightblue" stroke="midnightblue" points="720.664,-59.5556 713.538,-67.396 723.998,-65.7106 720.664,-59.5556"/>
</g>
<!-- Node19 -->
<g id="node19" class="node"><title>Node19</title>
<g id="a_node19"><a xlink:href="_chart_to_c_8h.html" target="_top" xlink:title="transform/ChartToC.h">
<polygon fill="white" stroke="black" points="964,-73 964,-92 1077,-92 1077,-73 964,-73"/>
<text text-anchor="middle" x="1020.5" y="-80" font-family="Helvetica,sans-Serif" font-size="10.00">transform/ChartToC.h</text>
</a>
</g>
</g>
<!-- Node18&#45;&gt;Node19 -->
<g id="edge24" class="edge"><title>Node18&#45;&gt;Node19</title>
<path fill="none" stroke="midnightblue" d="M1021.87,-124.317C1021.51,-113.496 1021.07,-100.398 1020.79,-92.0091"/>
<polygon fill="midnightblue" stroke="midnightblue" points="1018.38,-124.598 1022.21,-134.475 1025.38,-124.363 1018.38,-124.598"/>
</g>
<!-- Node21 -->
<g id="node21" class="node"><title>Node21</title>
<g id="a_node21"><a xlink:href="_chart_to_v_h_d_l_8h.html" target="_top" xlink:title="transform/ChartToVHDL.h">
<polygon fill="white" stroke="black" points="1047,-6 1047,-25 1180,-25 1180,-6 1047,-6"/>
<text text-anchor="middle" x="1113.5" y="-13" font-family="Helvetica,sans-Serif" font-size="10.00">transform/ChartToVHDL.h</text>
</a>
</g>
</g>
<!-- Node18&#45;&gt;Node21 -->
<g id="edge27" class="edge"><title>Node18&#45;&gt;Node21</title>
<path fill="none" stroke="midnightblue" d="M1049.56,-129.297C1062.33,-121.628 1076.85,-110.985 1086.5,-98 1103.48,-75.1467 1110.15,-41.0273 1112.45,-25.1744"/>
<polygon fill="midnightblue" stroke="midnightblue" points="1047.63,-126.367 1040.66,-134.347 1051.08,-132.454 1047.63,-126.367"/>
</g>
<!-- Node22 -->
<g id="node22" class="node"><title>Node22</title>
<g id="a_node22"><a xlink:href="_transformer_8cpp.html" target="_top" xlink:title="transform/Transformer.cpp">
<polygon fill="white" stroke="black" points="1134,-73 1134,-92 1269,-92 1269,-73 1134,-73"/>
<text text-anchor="middle" x="1201.5" y="-80" font-family="Helvetica,sans-Serif" font-size="10.00">transform/Transformer.cpp</text>
</a>
</g>
</g>
<!-- Node18&#45;&gt;Node22 -->
<g id="edge28" class="edge"><title>Node18&#45;&gt;Node22</title>
<path fill="none" stroke="midnightblue" d="M1057.9,-131.232C1092.7,-119.666 1144.95,-102.297 1175.9,-92.0091"/>
<polygon fill="midnightblue" stroke="midnightblue" points="1056.53,-127.999 1048.15,-134.475 1058.74,-134.642 1056.53,-127.999"/>
</g>
<!-- Node20 -->
<g id="node20" class="node"><title>Node20</title>
<g id="a_node20"><a xlink:href="_chart_to_c_8cpp.html" target="_top" xlink:title="transform/ChartToC.cpp">
<polygon fill="white" stroke="black" points="904.5,-6 904.5,-25 1028.5,-25 1028.5,-6 904.5,-6"/>
<text text-anchor="middle" x="966.5" y="-13" font-family="Helvetica,sans-Serif" font-size="10.00">transform/ChartToC.cpp</text>
</a>
</g>
</g>
<!-- Node19&#45;&gt;Node20 -->
<g id="edge25" class="edge"><title>Node19&#45;&gt;Node20</title>
<path fill="none" stroke="midnightblue" d="M1006.6,-64.7705C996.073,-52.0972 982.036,-35.201 973.667,-25.1273"/>
<polygon fill="midnightblue" stroke="midnightblue" points="1004.13,-67.2785 1013.22,-72.7338 1009.52,-62.8053 1004.13,-67.2785"/>
</g>
<!-- Node19&#45;&gt;Node21 -->
<g id="edge26" class="edge"><title>Node19&#45;&gt;Node21</title>
<path fill="none" stroke="midnightblue" d="M1041.36,-66.9196C1059.75,-54.0695 1085.91,-35.7821 1101.16,-25.1273"/>
<polygon fill="midnightblue" stroke="midnightblue" points="1039.23,-64.1363 1033.04,-72.7338 1043.24,-69.8738 1039.23,-64.1363"/>
</g>
</g>
</svg>
