<?xml version="1.0" encoding="UTF-8" standalone="no"?>
<!DOCTYPE svg PUBLIC "-//W3C//DTD SVG 1.1//EN"
 "http://www.w3.org/Graphics/SVG/1.1/DTD/svg11.dtd">
<!-- Generated by graphviz version 2.38.0 (20140413.2041)
 -->
<!-- Title: util/URL.cpp Pages: 1 -->
<svg width="1304pt" height="375pt"
 viewBox="0.00 0.00 1303.50 375.00" xmlns="http://www.w3.org/2000/svg" xmlns:xlink="http://www.w3.org/1999/xlink">
<g id="graph0" class="graph" transform="scale(1 1) rotate(0) translate(4 371)">
<title>util/URL.cpp</title>
<polygon fill="white" stroke="none" points="-4,4 -4,-371 1299.5,-371 1299.5,4 -4,4"/>
<!-- Node1 -->
<g id="node1" class="node"><title>Node1</title>
<polygon fill="#bfbfbf" stroke="black" points="936,-347.5 936,-366.5 1007,-366.5 1007,-347.5 936,-347.5"/>
<text text-anchor="middle" x="971.5" y="-354.5" font-family="Helvetica,sans-Serif" font-size="10.00">util/URL.cpp</text>
</g>
<!-- Node2 -->
<g id="node2" class="node"><title>Node2</title>
<g id="a_node2"><a xlink:href="_u_r_l_8h.html" target="_top" xlink:title="URL.h">
<polygon fill="white" stroke="black" points="775,-286 775,-305 820,-305 820,-286 775,-286"/>
<text text-anchor="middle" x="797.5" y="-293" font-family="Helvetica,sans-Serif" font-size="10.00">URL.h</text>
</a>
</g>
</g>
<!-- Node1&#45;&gt;Node2 -->
<g id="edge1" class="edge"><title>Node1&#45;&gt;Node2</title>
<path fill="none" stroke="midnightblue" d="M946.57,-347.475C915.912,-336.992 863.798,-319.171 830.02,-307.62"/>
<polygon fill="midnightblue" stroke="midnightblue" points="830.764,-304.176 820.169,-304.252 828.499,-310.799 830.764,-304.176"/>
</g>
<!-- Node6 -->
<g id="node6" class="node"><title>Node6</title>
<g id="a_node6"><a xlink:href="_event_8h.html" target="_top" xlink:title="uscxml/messages/Event.h">
<polygon fill="white" stroke="black" points="399,-224.5 399,-243.5 532,-243.5 532,-224.5 399,-224.5"/>
<text text-anchor="middle" x="465.5" y="-231.5" font-family="Helvetica,sans-Serif" font-size="10.00">uscxml/messages/Event.h</text>
</a>
</g>
</g>
<!-- Node1&#45;&gt;Node6 -->
<g id="edge30" class="edge"><title>Node1&#45;&gt;Node6</title>
<path fill="none" stroke="midnightblue" d="M935.871,-348.532C894.918,-339.866 825.725,-324.974 766.5,-311 673.962,-289.167 566.029,-261.335 507.859,-246.14"/>
<polygon fill="midnightblue" stroke="midnightblue" points="508.494,-242.688 497.934,-243.543 506.723,-249.46 508.494,-242.688"/>
</g>
<!-- Node12 -->
<g id="node12" class="node"><title>Node12</title>
<polygon fill="white" stroke="#bfbfbf" points="594,-56.5 594,-75.5 635,-75.5 635,-56.5 594,-56.5"/>
<text text-anchor="middle" x="614.5" y="-63.5" font-family="Helvetica,sans-Serif" font-size="10.00">string</text>
</g>
<!-- Node1&#45;&gt;Node12 -->
<g id="edge31" class="edge"><title>Node1&#45;&gt;Node12</title>
<path fill="none" stroke="midnightblue" d="M972.023,-347.313C973.284,-332.41 977.514,-301.502 991.5,-280 1008.91,-253.235 1053.24,-251.191 1036.5,-224 951.597,-86.0706 727.689,-68.5654 645.405,-66.9038"/>
<polygon fill="midnightblue" stroke="midnightblue" points="645.25,-63.4015 635.204,-66.7663 645.156,-70.4008 645.25,-63.4015"/>
</g>
<!-- Node20 -->
<g id="node20" class="node"><title>Node20</title>
<polygon fill="white" stroke="#bfbfbf" points="1000,-286 1000,-305 1049,-305 1049,-286 1000,-286"/>
<text text-anchor="middle" x="1024.5" y="-293" font-family="Helvetica,sans-Serif" font-size="10.00">cassert</text>
</g>
<!-- Node1&#45;&gt;Node20 -->
<g id="edge32" class="edge"><title>Node1&#45;&gt;Node20</title>
<path fill="none" stroke="midnightblue" d="M979.094,-347.475C987.201,-338.373 1000.23,-323.741 1010.26,-312.483"/>
<polygon fill="midnightblue" stroke="midnightblue" points="1012.88,-314.804 1016.92,-305.009 1007.66,-310.148 1012.88,-314.804"/>
</g>
<!-- Node21 -->
<g id="node21" class="node"><title>Node21</title>
<g id="a_node21"><a xlink:href="_logging_8h.html" target="_top" xlink:title="uscxml/interpreter\l/Logging.h">
<polygon fill="white" stroke="black" points="228.5,-280.5 228.5,-310.5 324.5,-310.5 324.5,-280.5 228.5,-280.5"/>
<text text-anchor="start" x="236.5" y="-298.5" font-family="Helvetica,sans-Serif" font-size="10.00">uscxml/interpreter</text>
<text text-anchor="middle" x="276.5" y="-287.5" font-family="Helvetica,sans-Serif" font-size="10.00">/Logging.h</text>
</a>
</g>
</g>
<!-- Node1&#45;&gt;Node21 -->
<g id="edge33" class="edge"><title>Node1&#45;&gt;Node21</title>
<path fill="none" stroke="midnightblue" d="M935.597,-352.926C822.653,-343.257 473.86,-313.396 334.701,-301.483"/>
<polygon fill="midnightblue" stroke="midnightblue" points="334.916,-297.988 324.654,-300.623 334.319,-304.963 334.916,-297.988"/>
</g>
<!-- Node22 -->
<g id="node22" class="node"><title>Node22</title>
<polygon fill="white" stroke="#bfbfbf" points="0,-224.5 0,-243.5 85,-243.5 85,-224.5 0,-224.5"/>
<text text-anchor="middle" x="42.5" y="-231.5" font-family="Helvetica,sans-Serif" font-size="10.00">uscxml/config.h</text>
</g>
<!-- Node1&#45;&gt;Node22 -->
<g id="edge39" class="edge"><title>Node1&#45;&gt;Node22</title>
<path fill="none" stroke="midnightblue" d="M935.88,-355.493C806.001,-353.391 358.219,-343.871 219.5,-311 162.042,-297.385 99.6417,-266.396 66.4508,-248.477"/>
<polygon fill="midnightblue" stroke="midnightblue" points="67.9608,-245.313 57.5084,-243.582 64.5995,-251.454 67.9608,-245.313"/>
</g>
<!-- Node23 -->
<g id="node23" class="node"><title>Node23</title>
<polygon fill="white" stroke="#bfbfbf" points="1067.5,-286 1067.5,-305 1127.5,-305 1127.5,-286 1067.5,-286"/>
<text text-anchor="middle" x="1097.5" y="-293" font-family="Helvetica,sans-Serif" font-size="10.00">curl/curl.h</text>
</g>
<!-- Node1&#45;&gt;Node23 -->
<g id="edge40" class="edge"><title>Node1&#45;&gt;Node23</title>
<path fill="none" stroke="midnightblue" d="M989.553,-347.475C1010.7,-337.49 1045.94,-320.848 1070.38,-309.307"/>
<polygon fill="midnightblue" stroke="midnightblue" points="1071.93,-312.444 1079.48,-305.009 1068.94,-306.114 1071.93,-312.444"/>
</g>
<!-- Node24 -->
<g id="node24" class="node"><title>Node24</title>
<polygon fill="white" stroke="#bfbfbf" points="1145.5,-286 1145.5,-305 1225.5,-305 1225.5,-286 1145.5,-286"/>
<text text-anchor="middle" x="1185.5" y="-293" font-family="Helvetica,sans-Serif" font-size="10.00">uriparser/Uri.h</text>
</g>
<!-- Node1&#45;&gt;Node24 -->
<g id="edge41" class="edge"><title>Node1&#45;&gt;Node24</title>
<path fill="none" stroke="midnightblue" d="M1003.5,-347.492C1036.78,-338.59 1090.37,-324.113 1136.5,-311 1140.04,-309.995 1143.71,-308.935 1147.39,-307.865"/>
<polygon fill="midnightblue" stroke="midnightblue" points="1148.42,-311.21 1157.03,-305.038 1146.45,-304.493 1148.42,-311.21"/>
</g>
<!-- Node25 -->
<g id="node25" class="node"><title>Node25</title>
<polygon fill="white" stroke="#bfbfbf" points="1243.5,-286 1243.5,-305 1295.5,-305 1295.5,-286 1243.5,-286"/>
<text text-anchor="middle" x="1269.5" y="-293" font-family="Helvetica,sans-Serif" font-size="10.00">unistd.h</text>
</g>
<!-- Node1&#45;&gt;Node25 -->
<g id="edge42" class="edge"><title>Node1&#45;&gt;Node25</title>
<path fill="none" stroke="midnightblue" d="M1007.37,-352.432C1058.54,-346.767 1155.06,-333.939 1234.5,-311 1236.79,-310.338 1239.14,-309.572 1241.48,-308.746"/>
<polygon fill="midnightblue" stroke="midnightblue" points="1242.82,-311.98 1250.89,-305.114 1240.3,-305.45 1242.82,-311.98"/>
</g>
<!-- Node3 -->
<g id="node3" class="node"><title>Node3</title>
<g id="a_node3"><a xlink:href="_common_8h.html" target="_top" xlink:title="uscxml/Common.h">
<polygon fill="white" stroke="black" points="363,-56.5 363,-75.5 462,-75.5 462,-56.5 363,-56.5"/>
<text text-anchor="middle" x="412.5" y="-63.5" font-family="Helvetica,sans-Serif" font-size="10.00">uscxml/Common.h</text>
</a>
</g>
</g>
<!-- Node2&#45;&gt;Node3 -->
<g id="edge2" class="edge"><title>Node2&#45;&gt;Node3</title>
<path fill="none" stroke="midnightblue" d="M786.083,-285.929C775.094,-276.895 759.188,-261.558 752.5,-244 731.558,-189.019 801.359,-156.176 762.5,-112 753.011,-101.213 569.454,-82.068 472.058,-72.609"/>
<polygon fill="midnightblue" stroke="midnightblue" points="472.343,-69.1204 462.053,-71.642 471.67,-76.0879 472.343,-69.1204"/>
</g>
<!-- Node2&#45;&gt;Node6 -->
<g id="edge5" class="edge"><title>Node2&#45;&gt;Node6</title>
<path fill="none" stroke="midnightblue" d="M774.941,-290.457C723.785,-281.289 597.645,-258.683 523.164,-245.334"/>
<polygon fill="midnightblue" stroke="midnightblue" points="523.471,-241.834 513.01,-243.515 522.236,-248.724 523.471,-241.834"/>
</g>
<!-- Node8 -->
<g id="node8" class="node"><title>Node8</title>
<polygon fill="white" stroke="#bfbfbf" points="670,-112.5 670,-131.5 699,-131.5 699,-112.5 670,-112.5"/>
<text text-anchor="middle" x="684.5" y="-119.5" font-family="Helvetica,sans-Serif" font-size="10.00">list</text>
</g>
<!-- Node2&#45;&gt;Node8 -->
<g id="edge27" class="edge"><title>Node2&#45;&gt;Node8</title>
<path fill="none" stroke="midnightblue" d="M774.794,-287.69C754.222,-280.308 724.721,-266.471 708.5,-244 686.325,-213.281 683.337,-167.236 683.607,-141.716"/>
<polygon fill="midnightblue" stroke="midnightblue" points="687.11,-141.662 683.903,-131.564 680.113,-141.458 687.11,-141.662"/>
</g>
<!-- Node9 -->
<g id="node9" class="node"><title>Node9</title>
<polygon fill="white" stroke="#bfbfbf" points="717.5,-112.5 717.5,-131.5 753.5,-131.5 753.5,-112.5 717.5,-112.5"/>
<text text-anchor="middle" x="735.5" y="-119.5" font-family="Helvetica,sans-Serif" font-size="10.00">map</text>
</g>
<!-- Node2&#45;&gt;Node9 -->
<g id="edge25" class="edge"><title>Node2&#45;&gt;Node9</title>
<path fill="none" stroke="midnightblue" d="M774.772,-286.782C756.184,-279.124 731.138,-265.399 719.5,-244 701.518,-210.935 716.192,-165.502 726.863,-140.782"/>
<polygon fill="midnightblue" stroke="midnightblue" points="730.108,-142.102 731.084,-131.552 723.742,-139.191 730.108,-142.102"/>
</g>
<!-- Node2&#45;&gt;Node12 -->
<g id="edge23" class="edge"><title>Node2&#45;&gt;Node12</title>
<path fill="none" stroke="midnightblue" d="M800.824,-285.612C810.989,-256.748 838.446,-164.475 795.5,-112 776.664,-88.9852 691.668,-75.8295 645.155,-70.2339"/>
<polygon fill="midnightblue" stroke="midnightblue" points="645.372,-66.7357 635.036,-69.0628 644.567,-73.6893 645.372,-66.7357"/>
</g>
<!-- Node14 -->
<g id="node14" class="node"><title>Node14</title>
<polygon fill="white" stroke="#bfbfbf" points="846.5,-56.5 846.5,-75.5 898.5,-75.5 898.5,-56.5 846.5,-56.5"/>
<text text-anchor="middle" x="872.5" y="-63.5" font-family="Helvetica,sans-Serif" font-size="10.00">sstream</text>
</g>
<!-- Node2&#45;&gt;Node14 -->
<g id="edge24" class="edge"><title>Node2&#45;&gt;Node14</title>
<path fill="none" stroke="midnightblue" d="M820.203,-292.775C871.334,-288.369 992.964,-274.807 1017.5,-244 1066.64,-182.297 952.301,-109.818 898.532,-80.4079"/>
<polygon fill="midnightblue" stroke="midnightblue" points="900.017,-77.2327 889.55,-75.5878 896.706,-83.4006 900.017,-77.2327"/>
</g>
<!-- Node17 -->
<g id="node17" class="node"><title>Node17</title>
<polygon fill="white" stroke="#bfbfbf" points="761.5,-224.5 761.5,-243.5 791.5,-243.5 791.5,-224.5 761.5,-224.5"/>
<text text-anchor="middle" x="776.5" y="-231.5" font-family="Helvetica,sans-Serif" font-size="10.00">set</text>
</g>
<!-- Node2&#45;&gt;Node17 -->
<g id="edge26" class="edge"><title>Node2&#45;&gt;Node17</title>
<path fill="none" stroke="midnightblue" d="M794.491,-285.975C791.466,-277.404 786.71,-263.927 782.847,-252.983"/>
<polygon fill="midnightblue" stroke="midnightblue" points="786.132,-251.774 779.503,-243.509 779.531,-254.104 786.132,-251.774"/>
</g>
<!-- Node18 -->
<g id="node18" class="node"><title>Node18</title>
<polygon fill="white" stroke="#bfbfbf" points="848,-224.5 848,-243.5 893,-243.5 893,-224.5 848,-224.5"/>
<text text-anchor="middle" x="870.5" y="-231.5" font-family="Helvetica,sans-Serif" font-size="10.00">thread</text>
</g>
<!-- Node2&#45;&gt;Node18 -->
<g id="edge28" class="edge"><title>Node2&#45;&gt;Node18</title>
<path fill="none" stroke="midnightblue" d="M807.959,-285.975C819.451,-276.608 838.13,-261.384 852.087,-250.008"/>
<polygon fill="midnightblue" stroke="midnightblue" points="854.52,-252.54 860.06,-243.509 850.098,-247.114 854.52,-252.54"/>
</g>
<!-- Node19 -->
<g id="node19" class="node"><title>Node19</title>
<polygon fill="white" stroke="#bfbfbf" points="911,-224.5 911,-243.5 1008,-243.5 1008,-224.5 911,-224.5"/>
<text text-anchor="middle" x="959.5" y="-231.5" font-family="Helvetica,sans-Serif" font-size="10.00">condition_variable</text>
</g>
<!-- Node2&#45;&gt;Node19 -->
<g id="edge29" class="edge"><title>Node2&#45;&gt;Node19</title>
<path fill="none" stroke="midnightblue" d="M820.025,-286.227C847.64,-276.085 894.669,-258.811 926.397,-247.158"/>
<polygon fill="midnightblue" stroke="midnightblue" points="927.937,-250.321 936.117,-243.588 925.523,-243.751 927.937,-250.321"/>
</g>
<!-- Node4 -->
<g id="node4" class="node"><title>Node4</title>
<polygon fill="white" stroke="#bfbfbf" points="338.5,-0.5 338.5,-19.5 410.5,-19.5 410.5,-0.5 338.5,-0.5"/>
<text text-anchor="middle" x="374.5" y="-7.5" font-family="Helvetica,sans-Serif" font-size="10.00">sys/socket.h</text>
</g>
<!-- Node3&#45;&gt;Node4 -->
<g id="edge3" class="edge"><title>Node3&#45;&gt;Node4</title>
<path fill="none" stroke="midnightblue" d="M406.225,-56.083C400.858,-48.4554 392.982,-37.2645 386.421,-27.9408"/>
<polygon fill="midnightblue" stroke="midnightblue" points="389.275,-25.9149 380.658,-19.7511 383.551,-29.9434 389.275,-25.9149"/>
</g>
<!-- Node5 -->
<g id="node5" class="node"><title>Node5</title>
<polygon fill="white" stroke="#bfbfbf" points="428.5,-0.5 428.5,-19.5 472.5,-19.5 472.5,-0.5 428.5,-0.5"/>
<text text-anchor="middle" x="450.5" y="-7.5" font-family="Helvetica,sans-Serif" font-size="10.00">cmath</text>
</g>
<!-- Node3&#45;&gt;Node5 -->
<g id="edge4" class="edge"><title>Node3&#45;&gt;Node5</title>
<path fill="none" stroke="midnightblue" d="M418.775,-56.083C424.142,-48.4554 432.018,-37.2645 438.579,-27.9408"/>
<polygon fill="midnightblue" stroke="midnightblue" points="441.449,-29.9434 444.342,-19.7511 435.725,-25.9149 441.449,-29.9434"/>
</g>
<!-- Node7 -->
<g id="node7" class="node"><title>Node7</title>
<g id="a_node7"><a xlink:href="_data_8h.html" target="_top" xlink:title="uscxml/messages/Data.h">
<polygon fill="white" stroke="black" points="309.5,-168.5 309.5,-187.5 437.5,-187.5 437.5,-168.5 309.5,-168.5"/>
<text text-anchor="middle" x="373.5" y="-175.5" font-family="Helvetica,sans-Serif" font-size="10.00">uscxml/messages/Data.h</text>
</a>
</g>
</g>
<!-- Node6&#45;&gt;Node7 -->
<g id="edge6" class="edge"><title>Node6&#45;&gt;Node7</title>
<path fill="none" stroke="midnightblue" d="M450.719,-224.324C436.233,-215.822 413.927,-202.729 397.007,-192.797"/>
<polygon fill="midnightblue" stroke="midnightblue" points="398.641,-189.698 388.245,-187.655 395.097,-195.735 398.641,-189.698"/>
</g>
<!-- Node16 -->
<g id="node16" class="node"><title>Node16</title>
<g id="a_node16"><a xlink:href="_u_u_i_d_8h.html" target="_top" xlink:title="uscxml/util/UUID.h">
<polygon fill="white" stroke="black" points="402,-112.5 402,-131.5 501,-131.5 501,-112.5 402,-112.5"/>
<text text-anchor="middle" x="451.5" y="-119.5" font-family="Helvetica,sans-Serif" font-size="10.00">uscxml/util/UUID.h</text>
</a>
</g>
</g>
<!-- Node6&#45;&gt;Node16 -->
<g id="edge20" class="edge"><title>Node6&#45;&gt;Node16</title>
<path fill="none" stroke="midnightblue" d="M464.401,-224.368C462.142,-206.617 456.93,-165.666 453.867,-141.597"/>
<polygon fill="midnightblue" stroke="midnightblue" points="457.328,-141.069 452.593,-131.591 450.384,-141.953 457.328,-141.069"/>
</g>
<!-- Node7&#45;&gt;Node3 -->
<g id="edge10" class="edge"><title>Node7&#45;&gt;Node3</title>
<path fill="none" stroke="midnightblue" d="M375.604,-168.469C378.783,-155.933 385.217,-131.87 392.5,-112 395.81,-102.969 400.073,-93.1855 403.812,-85.0543"/>
<polygon fill="midnightblue" stroke="midnightblue" points="407.067,-86.3585 408.158,-75.8199 400.733,-83.378 407.067,-86.3585"/>
</g>
<!-- Node7&#45;&gt;Node8 -->
<g id="edge7" class="edge"><title>Node7&#45;&gt;Node8</title>
<path fill="none" stroke="midnightblue" d="M437.539,-171.04C494.159,-164.859 578.958,-153.377 659.735,-132.037"/>
<polygon fill="midnightblue" stroke="midnightblue" points="660.821,-135.369 669.564,-129.385 658.998,-128.611 660.821,-135.369"/>
</g>
<!-- Node7&#45;&gt;Node9 -->
<g id="edge8" class="edge"><title>Node7&#45;&gt;Node9</title>
<path fill="none" stroke="midnightblue" d="M437.743,-171.989C503.471,-166.049 608.559,-154.309 707.474,-131.851"/>
<polygon fill="midnightblue" stroke="midnightblue" points="708.379,-135.235 717.333,-129.572 706.802,-128.414 708.379,-135.235"/>
</g>
<!-- Node10 -->
<g id="node10" class="node"><title>Node10</title>
<polygon fill="white" stroke="#bfbfbf" points="163,-56.5 163,-75.5 216,-75.5 216,-56.5 163,-56.5"/>
<text text-anchor="middle" x="189.5" y="-63.5" font-family="Helvetica,sans-Serif" font-size="10.00">memory</text>
</g>
<!-- Node7&#45;&gt;Node10 -->
<g id="edge9" class="edge"><title>Node7&#45;&gt;Node10</title>
<path fill="none" stroke="midnightblue" d="M309.31,-174.195C275.261,-169.434 235.087,-158.109 208.5,-132 196.321,-120.04 191.845,-100.739 190.252,-86.2705"/>
<polygon fill="midnightblue" stroke="midnightblue" points="193.717,-85.6555 189.501,-75.9357 186.735,-86.1633 193.717,-85.6555"/>
</g>
<!-- Node11 -->
<g id="node11" class="node"><title>Node11</title>
<g id="a_node11"><a xlink:href="_convenience_8h.html" target="_top" xlink:title="uscxml/util/Convenience.h">
<polygon fill="white" stroke="black" points="519,-112.5 519,-131.5 652,-131.5 652,-112.5 519,-112.5"/>
<text text-anchor="middle" x="585.5" y="-119.5" font-family="Helvetica,sans-Serif" font-size="10.00">uscxml/util/Convenience.h</text>
</a>
</g>
</g>
<!-- Node7&#45;&gt;Node11 -->
<g id="edge11" class="edge"><title>Node7&#45;&gt;Node11</title>
<path fill="none" stroke="midnightblue" d="M407.092,-168.444C443.687,-159.122 502.338,-144.183 542.326,-133.997"/>
<polygon fill="midnightblue" stroke="midnightblue" points="543.239,-137.377 552.065,-131.516 541.511,-130.593 543.239,-137.377"/>
</g>
<!-- Node15 -->
<g id="node15" class="node"><title>Node15</title>
<g id="a_node15"><a xlink:href="_blob_8h.html" target="_top" xlink:title="uscxml/messages/Blob.h">
<polygon fill="white" stroke="black" points="218,-112.5 218,-131.5 345,-131.5 345,-112.5 218,-112.5"/>
<text text-anchor="middle" x="281.5" y="-119.5" font-family="Helvetica,sans-Serif" font-size="10.00">uscxml/messages/Blob.h</text>
</a>
</g>
</g>
<!-- Node7&#45;&gt;Node15 -->
<g id="edge16" class="edge"><title>Node7&#45;&gt;Node15</title>
<path fill="none" stroke="midnightblue" d="M358.719,-168.324C344.233,-159.822 321.927,-146.729 305.007,-136.797"/>
<polygon fill="midnightblue" stroke="midnightblue" points="306.641,-133.698 296.245,-131.655 303.097,-139.735 306.641,-133.698"/>
</g>
<!-- Node11&#45;&gt;Node3 -->
<g id="edge12" class="edge"><title>Node11&#45;&gt;Node3</title>
<path fill="none" stroke="midnightblue" d="M558.088,-112.444C528.731,-103.28 481.981,-88.6876 449.404,-78.5192"/>
<polygon fill="midnightblue" stroke="midnightblue" points="450.373,-75.1551 439.784,-75.5164 448.287,-81.8371 450.373,-75.1551"/>
</g>
<!-- Node11&#45;&gt;Node12 -->
<g id="edge13" class="edge"><title>Node11&#45;&gt;Node12</title>
<path fill="none" stroke="midnightblue" d="M590.289,-112.083C594.258,-104.691 600.025,-93.9533 604.935,-84.8111"/>
<polygon fill="midnightblue" stroke="midnightblue" points="608.153,-86.217 609.8,-75.7511 601.986,-82.9051 608.153,-86.217"/>
</g>
<!-- Node13 -->
<g id="node13" class="node"><title>Node13</title>
<polygon fill="white" stroke="#bfbfbf" points="537,-56.5 537,-75.5 576,-75.5 576,-56.5 537,-56.5"/>
<text text-anchor="middle" x="556.5" y="-63.5" font-family="Helvetica,sans-Serif" font-size="10.00">limits</text>
</g>
<!-- Node11&#45;&gt;Node13 -->
<g id="edge14" class="edge"><title>Node11&#45;&gt;Node13</title>
<path fill="none" stroke="midnightblue" d="M580.711,-112.083C576.742,-104.691 570.975,-93.9533 566.065,-84.8111"/>
<polygon fill="midnightblue" stroke="midnightblue" points="569.014,-82.9051 561.2,-75.7511 562.847,-86.217 569.014,-82.9051"/>
</g>
<!-- Node11&#45;&gt;Node14 -->
<g id="edge15" class="edge"><title>Node11&#45;&gt;Node14</title>
<path fill="none" stroke="midnightblue" d="M630.976,-112.444C687.759,-101.76 783.766,-83.6956 835.997,-73.8681"/>
<polygon fill="midnightblue" stroke="midnightblue" points="836.962,-77.2481 846.142,-71.9593 835.667,-70.3688 836.962,-77.2481"/>
</g>
<!-- Node15&#45;&gt;Node3 -->
<g id="edge19" class="edge"><title>Node15&#45;&gt;Node3</title>
<path fill="none" stroke="midnightblue" d="M302.257,-112.444C323.816,-103.557 357.763,-89.5632 382.294,-79.4514"/>
<polygon fill="midnightblue" stroke="midnightblue" points="383.928,-82.5634 391.84,-75.5164 381.261,-76.0917 383.928,-82.5634"/>
</g>
<!-- Node15&#45;&gt;Node10 -->
<g id="edge18" class="edge"><title>Node15&#45;&gt;Node10</title>
<path fill="none" stroke="midnightblue" d="M266.719,-112.324C252.233,-103.822 229.927,-90.7288 213.007,-80.7975"/>
<polygon fill="midnightblue" stroke="midnightblue" points="214.641,-77.6981 204.245,-75.6545 211.097,-83.735 214.641,-77.6981"/>
</g>
<!-- Node15&#45;&gt;Node12 -->
<g id="edge17" class="edge"><title>Node15&#45;&gt;Node12</title>
<path fill="none" stroke="midnightblue" d="M345.2,-114.462C404.841,-107.688 496.519,-95.604 583.889,-76.1018"/>
<polygon fill="midnightblue" stroke="midnightblue" points="584.717,-79.503 593.695,-73.8771 583.169,-72.6764 584.717,-79.503"/>
</g>
<!-- Node16&#45;&gt;Node3 -->
<g id="edge21" class="edge"><title>Node16&#45;&gt;Node3</title>
<path fill="none" stroke="midnightblue" d="M445.06,-112.083C439.551,-104.455 431.469,-93.2645 424.735,-83.9408"/>
<polygon fill="midnightblue" stroke="midnightblue" points="427.513,-81.8087 418.82,-75.7511 421.838,-85.9071 427.513,-81.8087"/>
</g>
<!-- Node16&#45;&gt;Node12 -->
<g id="edge22" class="edge"><title>Node16&#45;&gt;Node12</title>
<path fill="none" stroke="midnightblue" d="M477.328,-112.444C506.362,-102.825 553.454,-87.2238 584.203,-77.0372"/>
<polygon fill="midnightblue" stroke="midnightblue" points="585.562,-80.2739 593.954,-73.8067 583.361,-73.6291 585.562,-80.2739"/>
</g>
<!-- Node21&#45;&gt;Node3 -->
<g id="edge35" class="edge"><title>Node21&#45;&gt;Node3</title>
<path fill="none" stroke="midnightblue" d="M262.538,-280.185C232.129,-247.271 165.933,-164.98 208.5,-112 226.319,-89.8215 298.916,-77.9259 352.457,-72.0393"/>
<polygon fill="midnightblue" stroke="midnightblue" points="352.974,-75.5043 362.552,-70.9749 352.24,-68.5429 352.974,-75.5043"/>
</g>
<!-- Node21&#45;&gt;Node6 -->
<g id="edge37" class="edge"><title>Node21&#45;&gt;Node6</title>
<path fill="none" stroke="midnightblue" d="M321.29,-280.399C353.949,-270.118 397.68,-256.351 428.393,-246.682"/>
<polygon fill="midnightblue" stroke="midnightblue" points="429.787,-249.912 438.275,-243.571 427.685,-243.235 429.787,-249.912"/>
</g>
<!-- Node21&#45;&gt;Node7 -->
<g id="edge36" class="edge"><title>Node21&#45;&gt;Node7</title>
<path fill="none" stroke="midnightblue" d="M288.394,-280.337C306.427,-258.865 340.602,-218.172 359.702,-195.429"/>
<polygon fill="midnightblue" stroke="midnightblue" points="362.468,-197.578 366.219,-187.669 357.108,-193.076 362.468,-197.578"/>
</g>
<!-- Node21&#45;&gt;Node10 -->
<g id="edge38" class="edge"><title>Node21&#45;&gt;Node10</title>
<path fill="none" stroke="midnightblue" d="M228.25,-283.236C192.553,-273.812 148.329,-259.455 137.5,-244 103.836,-195.953 113.112,-165.357 137.5,-112 143.277,-99.3602 154.552,-88.911 165.131,-81.2737"/>
<polygon fill="midnightblue" stroke="midnightblue" points="167.349,-84.0009 173.717,-75.5333 163.458,-78.1817 167.349,-84.0009"/>
</g>
<!-- Node21&#45;&gt;Node22 -->
<g id="edge34" class="edge"><title>Node21&#45;&gt;Node22</title>
<path fill="none" stroke="midnightblue" d="M228.299,-282.244C186.487,-271.612 126.495,-256.358 86.0947,-246.085"/>
<polygon fill="midnightblue" stroke="midnightblue" points="86.8225,-242.659 76.2684,-243.586 85.0975,-249.443 86.8225,-242.659"/>
</g>
</g>
</svg>
