<?xml version="1.0" encoding="UTF-8" standalone="no"?>
<!DOCTYPE svg PUBLIC "-//W3C//DTD SVG 1.1//EN"
 "http://www.w3.org/Graphics/SVG/1.1/DTD/svg11.dtd">
<!-- Generated by graphviz version 2.38.0 (20140413.2041)
 -->
<!-- Title: util/URL.h Pages: 1 -->
<!--zoomable 352 -->
<svg id="main" version="1.1" xmlns="http://www.w3.org/2000/svg" xmlns:xlink="http://www.w3.org/1999/xlink" xml:space="preserve" onload="init(evt)">
<style type="text/css"><![CDATA[
.edge:hover path { stroke: red; }
.edge:hover polygon { stroke: red; fill: red; }
]]></style>
<script type="text/javascript"><![CDATA[
var edges = document.getElementsByTagName('g');
if (edges && edges.length) {
  for (var i=0;i<edges.length;i++) {
    if (edges[i].id.substr(0,4)=='edge') {
      edges[i].setAttribute('class','edge');
    }
  }
}
]]></script>
        <defs>
                <circle id="rim" cx="0" cy="0" r="7"/>
                <circle id="rim2" cx="0" cy="0" r="3.5"/>
                <g id="zoomPlus">
                        <use xlink:href="#rim" fill="#404040">
                                <set attributeName="fill" to="#808080" begin="zoomplus.mouseover" end="zoomplus.mouseout"/>
                        </use>
                        <path d="M-4,0h8M0,-4v8" fill="none" stroke="white" stroke-width="1.5" pointer-events="none"/>
                </g>
                <g id="zoomMin">
                        <use xlink:href="#rim" fill="#404040">
                                <set attributeName="fill" to="#808080" begin="zoomminus.mouseover" end="zoomminus.mouseout"/>
                        </use>
                        <path d="M-4,0h8" fill="none" stroke="white" stroke-width="1.5" pointer-events="none"/>
                </g>
                <g id="dirArrow">
                        <path fill="none" stroke="white" stroke-width="1.5" d="M0,-3.0v7 M-2.5,-0.5L0,-3.0L2.5,-0.5"/>
                </g>
               <g id="resetDef">
                       <use xlink:href="#rim2" fill="#404040">
                               <set attributeName="fill" to="#808080" begin="reset.mouseover" end="reset.mouseout"/>
                       </use>
               </g>
        </defs>

<script type="text/javascript">
var viewWidth = 1946;
var viewHeight = 352;
var sectionId = 'dynsection-1';
</script>
<script xlink:href="svgpan.js"/>
<svg id="graph" class="graph">
<g id="viewport">
<title>util/URL.h</title>
<polygon fill="white" stroke="none" points="-4,4 -4,-348 1942,-348 1942,4 -4,4"/>
<!-- Node1 -->
<g id="node1" class="node"><title>Node1</title>
<polygon fill="#bfbfbf" stroke="black" points="1347.5,-324.5 1347.5,-343.5 1407.5,-343.5 1407.5,-324.5 1347.5,-324.5"/>
<text text-anchor="middle" x="1377.5" y="-331.5" font-family="Helvetica,sans-Serif" font-size="10.00">util/URL.h</text>
</g>
<!-- Node2 -->
<g id="node2" class="node"><title>Node2</title>
<g id="a_node2"><a xlink:href="_basic_content_executor_8cpp.html" target="_top" xlink:title="interpreter/BasicContent\lExecutor.cpp">
<polygon fill="white" stroke="black" points="900.5,-257.5 900.5,-287.5 1024.5,-287.5 1024.5,-257.5 900.5,-257.5"/>
<text text-anchor="start" x="908.5" y="-275.5" font-family="Helvetica,sans-Serif" font-size="10.00">interpreter/BasicContent</text>
<text text-anchor="middle" x="962.5" y="-264.5" font-family="Helvetica,sans-Serif" font-size="10.00">Executor.cpp</text>
</a>
</g>
</g>
<!-- Node1&#45;&gt;Node2 -->
<g id="edge1" class="edge"><title>Node1&#45;&gt;Node2</title>
<path fill="none" stroke="midnightblue" d="M1337.37,-328.691C1273.04,-321.574 1142.95,-306.311 1033.5,-288 1030.65,-287.523 1027.73,-287.014 1024.79,-286.483"/>
<polygon fill="midnightblue" stroke="midnightblue" points="1337.16,-332.19 1347.48,-329.803 1337.93,-325.232 1337.16,-332.19"/>
</g>
<!-- Node3 -->
<g id="node3" class="node"><title>Node3</title>
<g id="a_node3"><a xlink:href="_interpreter_impl_8h.html" target="_top" xlink:title="interpreter/InterpreterImpl.h">
<polygon fill="white" stroke="black" points="1042.5,-263 1042.5,-282 1180.5,-282 1180.5,-263 1042.5,-263"/>
<text text-anchor="middle" x="1111.5" y="-270" font-family="Helvetica,sans-Serif" font-size="10.00">interpreter/InterpreterImpl.h</text>
</a>
</g>
</g>
<!-- Node1&#45;&gt;Node3 -->
<g id="edge2" class="edge"><title>Node1&#45;&gt;Node3</title>
<path fill="none" stroke="midnightblue" d="M1337.29,-324.005C1286.51,-312.646 1199.76,-293.242 1149.87,-282.083"/>
<polygon fill="midnightblue" stroke="midnightblue" points="1336.72,-327.465 1347.25,-326.233 1338.25,-320.634 1336.72,-327.465"/>
</g>
<!-- Node12 -->
<g id="node12" class="node"><title>Node12</title>
<g id="a_node12"><a xlink:href="_interpreter_8cpp.html" target="_top" xlink:title="Interpreter.cpp">
<polygon fill="white" stroke="black" points="1640.5,-201.5 1640.5,-220.5 1722.5,-220.5 1722.5,-201.5 1640.5,-201.5"/>
<text text-anchor="middle" x="1681.5" y="-208.5" font-family="Helvetica,sans-Serif" font-size="10.00">Interpreter.cpp</text>
</a>
</g>
</g>
<!-- Node1&#45;&gt;Node12 -->
<g id="edge42" class="edge"><title>Node1&#45;&gt;Node12</title>
<path fill="none" stroke="midnightblue" d="M1337.26,-327.2C1281.95,-317.656 1193.08,-295.73 1228.5,-257 1258.84,-223.827 1586.94,-226.988 1631.5,-221 1634.38,-220.612 1637.36,-220.175 1640.35,-219.707"/>
<polygon fill="midnightblue" stroke="midnightblue" points="1336.73,-330.658 1347.16,-328.839 1337.87,-323.752 1336.73,-330.658"/>
</g>
<!-- Node36 -->
<g id="node36" class="node"><title>Node36</title>
<g id="a_node36"><a xlink:href="_c89_data_model_8cpp.html" target="_top" xlink:title="plugins/datamodel/c89\l/C89DataModel.cpp">
<polygon fill="white" stroke="black" points="1237,-257.5 1237,-287.5 1354,-287.5 1354,-257.5 1237,-257.5"/>
<text text-anchor="start" x="1245" y="-275.5" font-family="Helvetica,sans-Serif" font-size="10.00">plugins/datamodel/c89</text>
<text text-anchor="middle" x="1295.5" y="-264.5" font-family="Helvetica,sans-Serif" font-size="10.00">/C89DataModel.cpp</text>
</a>
</g>
</g>
<!-- Node1&#45;&gt;Node36 -->
<g id="edge43" class="edge"><title>Node1&#45;&gt;Node36</title>
<path fill="none" stroke="midnightblue" d="M1357.47,-318.468C1344.49,-309.047 1327.67,-296.841 1314.83,-287.523"/>
<polygon fill="midnightblue" stroke="midnightblue" points="1355.6,-321.435 1365.75,-324.475 1359.71,-315.769 1355.6,-321.435"/>
</g>
<!-- Node37 -->
<g id="node37" class="node"><title>Node37</title>
<g id="a_node37"><a xlink:href="_j_s_c_data_model_8cpp.html" target="_top" xlink:title="plugins/datamodel/ecmascript\l/JavaScriptCore/JSCDataModel.cpp">
<polygon fill="white" stroke="black" points="1372,-257.5 1372,-287.5 1549,-287.5 1549,-257.5 1372,-257.5"/>
<text text-anchor="start" x="1380" y="-275.5" font-family="Helvetica,sans-Serif" font-size="10.00">plugins/datamodel/ecmascript</text>
<text text-anchor="middle" x="1460.5" y="-264.5" font-family="Helvetica,sans-Serif" font-size="10.00">/JavaScriptCore/JSCDataModel.cpp</text>
</a>
</g>
</g>
<!-- Node1&#45;&gt;Node37 -->
<g id="edge44" class="edge"><title>Node1&#45;&gt;Node37</title>
<path fill="none" stroke="midnightblue" d="M1397.77,-318.468C1410.91,-309.047 1427.94,-296.841 1440.94,-287.523"/>
<polygon fill="midnightblue" stroke="midnightblue" points="1395.48,-315.804 1389.39,-324.475 1399.56,-321.493 1395.48,-315.804"/>
</g>
<!-- Node38 -->
<g id="node38" class="node"><title>Node38</title>
<g id="a_node38"><a xlink:href="_v8_data_model_8cpp.html" target="_top" xlink:title="plugins/datamodel/ecmascript\l/v8/V8DataModel.cpp">
<polygon fill="white" stroke="black" points="1567,-257.5 1567,-287.5 1716,-287.5 1716,-257.5 1567,-257.5"/>
<text text-anchor="start" x="1575" y="-275.5" font-family="Helvetica,sans-Serif" font-size="10.00">plugins/datamodel/ecmascript</text>
<text text-anchor="middle" x="1641.5" y="-264.5" font-family="Helvetica,sans-Serif" font-size="10.00">/v8/V8DataModel.cpp</text>
</a>
</g>
</g>
<!-- Node1&#45;&gt;Node38 -->
<g id="edge45" class="edge"><title>Node1&#45;&gt;Node38</title>
<path fill="none" stroke="midnightblue" d="M1417.33,-324.024C1460.25,-314.35 1529.13,-298.825 1579.23,-287.535"/>
<polygon fill="midnightblue" stroke="midnightblue" points="1416.51,-320.619 1407.53,-326.233 1418.05,-327.448 1416.51,-320.619"/>
</g>
<!-- Node39 -->
<g id="node39" class="node"><title>Node39</title>
<g id="a_node39"><a xlink:href="_lua_data_model_8cpp.html" target="_top" xlink:title="plugins/datamodel/lua\l/LuaDataModel.cpp">
<polygon fill="white" stroke="black" points="1734.5,-257.5 1734.5,-287.5 1848.5,-287.5 1848.5,-257.5 1734.5,-257.5"/>
<text text-anchor="start" x="1742.5" y="-275.5" font-family="Helvetica,sans-Serif" font-size="10.00">plugins/datamodel/lua</text>
<text text-anchor="middle" x="1791.5" y="-264.5" font-family="Helvetica,sans-Serif" font-size="10.00">/LuaDataModel.cpp</text>
</a>
</g>
</g>
<!-- Node1&#45;&gt;Node39 -->
<g id="edge46" class="edge"><title>Node1&#45;&gt;Node39</title>
<path fill="none" stroke="midnightblue" d="M1418.13,-328.914C1483.26,-322.104 1614.92,-307.258 1725.5,-288 1728.39,-287.497 1731.34,-286.954 1734.32,-286.383"/>
<polygon fill="midnightblue" stroke="midnightblue" points="1417.48,-325.464 1407.89,-329.976 1418.2,-332.426 1417.48,-325.464"/>
</g>
<!-- Node40 -->
<g id="node40" class="node"><title>Node40</title>
<g id="a_node40"><a xlink:href="_u_r_l_8cpp.html" target="_top" xlink:title="util/URL.cpp">
<polygon fill="white" stroke="black" points="1867,-263 1867,-282 1938,-282 1938,-263 1867,-263"/>
<text text-anchor="middle" x="1902.5" y="-270" font-family="Helvetica,sans-Serif" font-size="10.00">util/URL.cpp</text>
</a>
</g>
</g>
<!-- Node1&#45;&gt;Node40 -->
<g id="edge47" class="edge"><title>Node1&#45;&gt;Node40</title>
<path fill="none" stroke="midnightblue" d="M1417.62,-332.187C1500.58,-329.861 1696.71,-321.028 1857.5,-288 1864.74,-286.514 1872.45,-284.28 1879.4,-282.009"/>
<polygon fill="midnightblue" stroke="midnightblue" points="1417.51,-328.688 1407.61,-332.451 1417.69,-335.686 1417.51,-328.688"/>
</g>
<!-- Node4 -->
<g id="node4" class="node"><title>Node4</title>
<g id="a_node4"><a xlink:href="_breakpoint_8cpp.html" target="_top" xlink:title="debug/Breakpoint.cpp">
<polygon fill="white" stroke="black" points="1236.5,-201.5 1236.5,-220.5 1350.5,-220.5 1350.5,-201.5 1236.5,-201.5"/>
<text text-anchor="middle" x="1293.5" y="-208.5" font-family="Helvetica,sans-Serif" font-size="10.00">debug/Breakpoint.cpp</text>
</a>
</g>
</g>
<!-- Node3&#45;&gt;Node4 -->
<g id="edge3" class="edge"><title>Node3&#45;&gt;Node4</title>
<path fill="none" stroke="midnightblue" d="M1147.5,-259.732C1182.87,-248.166 1236,-230.797 1267.47,-220.509"/>
<polygon fill="midnightblue" stroke="midnightblue" points="1145.99,-256.541 1137.58,-262.975 1148.17,-263.194 1145.99,-256.541"/>
</g>
<!-- Node5 -->
<g id="node5" class="node"><title>Node5</title>
<g id="a_node5"><a xlink:href="_debugger_8h.html" target="_top" xlink:title="debug/Debugger.h">
<polygon fill="white" stroke="black" points="1369,-201.5 1369,-220.5 1468,-220.5 1468,-201.5 1369,-201.5"/>
<text text-anchor="middle" x="1418.5" y="-208.5" font-family="Helvetica,sans-Serif" font-size="10.00">debug/Debugger.h</text>
</a>
</g>
</g>
<!-- Node3&#45;&gt;Node5 -->
<g id="edge4" class="edge"><title>Node3&#45;&gt;Node5</title>
<path fill="none" stroke="midnightblue" d="M1165.44,-261.046C1224.92,-249.518 1319.47,-231.194 1374.6,-220.509"/>
<polygon fill="midnightblue" stroke="midnightblue" points="1164.64,-257.636 1155.49,-262.975 1165.97,-264.508 1164.64,-257.636"/>
</g>
<!-- Node10 -->
<g id="node10" class="node"><title>Node10</title>
<g id="a_node10"><a xlink:href="_interpreter_issue_8cpp.html" target="_top" xlink:title="debug/InterpreterIssue.cpp">
<polygon fill="white" stroke="black" points="1486.5,-201.5 1486.5,-220.5 1622.5,-220.5 1622.5,-201.5 1486.5,-201.5"/>
<text text-anchor="middle" x="1554.5" y="-208.5" font-family="Helvetica,sans-Serif" font-size="10.00">debug/InterpreterIssue.cpp</text>
</a>
</g>
</g>
<!-- Node3&#45;&gt;Node10 -->
<g id="edge9" class="edge"><title>Node3&#45;&gt;Node10</title>
<path fill="none" stroke="midnightblue" d="M1167.88,-261.27C1176.78,-259.766 1185.88,-258.291 1194.5,-257 1249.16,-248.814 1398.07,-230.703 1486.31,-220.122"/>
<polygon fill="midnightblue" stroke="midnightblue" points="1167.23,-257.831 1157.97,-262.972 1168.42,-264.73 1167.23,-257.831"/>
</g>
<!-- Node11 -->
<g id="node11" class="node"><title>Node11</title>
<g id="a_node11"><a xlink:href="_interpreter_impl_8cpp.html" target="_top" xlink:title="interpreter/InterpreterImpl.cpp">
<polygon fill="white" stroke="black" points="0,-140 0,-159 149,-159 149,-140 0,-140"/>
<text text-anchor="middle" x="74.5" y="-147" font-family="Helvetica,sans-Serif" font-size="10.00">interpreter/InterpreterImpl.cpp</text>
</a>
</g>
</g>
<!-- Node3&#45;&gt;Node11 -->
<g id="edge10" class="edge"><title>Node3&#45;&gt;Node11</title>
<path fill="none" stroke="midnightblue" d="M1061.65,-261.179C1052.33,-259.549 1042.64,-258.056 1033.5,-257 689.197,-217.233 593.496,-293.163 254.5,-221 191.474,-207.584 121.737,-174.636 90.8077,-159"/>
<polygon fill="midnightblue" stroke="midnightblue" points="1061.11,-264.638 1071.58,-262.986 1062.37,-257.751 1061.11,-264.638"/>
</g>
<!-- Node3&#45;&gt;Node12 -->
<g id="edge11" class="edge"><title>Node3&#45;&gt;Node12</title>
<path fill="none" stroke="midnightblue" d="M1166.24,-261.213C1175.64,-259.653 1185.34,-258.175 1194.5,-257 1387.8,-232.206 1438.27,-246.291 1631.5,-221 1634.39,-220.622 1637.36,-220.192 1640.35,-219.73"/>
<polygon fill="midnightblue" stroke="midnightblue" points="1165.45,-257.796 1156.19,-262.927 1166.63,-264.696 1165.45,-257.796"/>
</g>
<!-- Node13 -->
<g id="node13" class="node"><title>Node13</title>
<g id="a_node13"><a xlink:href="_u_s_c_x_m_l_invoker_8h.html" target="_top" xlink:title="plugins/invoker/scxml\l/USCXMLInvoker.h">
<polygon fill="white" stroke="black" points="167.5,-134.5 167.5,-164.5 279.5,-164.5 279.5,-134.5 167.5,-134.5"/>
<text text-anchor="start" x="175.5" y="-152.5" font-family="Helvetica,sans-Serif" font-size="10.00">plugins/invoker/scxml</text>
<text text-anchor="middle" x="223.5" y="-141.5" font-family="Helvetica,sans-Serif" font-size="10.00">/USCXMLInvoker.h</text>
</a>
</g>
</g>
<!-- Node3&#45;&gt;Node13 -->
<g id="edge12" class="edge"><title>Node3&#45;&gt;Node13</title>
<path fill="none" stroke="midnightblue" d="M1061.05,-261.087C1051.91,-259.497 1042.45,-258.042 1033.5,-257 950.741,-247.364 359.423,-257.448 284.5,-221 259.612,-208.893 240.756,-181.504 230.978,-164.651"/>
<polygon fill="midnightblue" stroke="midnightblue" points="1060.71,-264.583 1071.17,-262.925 1061.96,-257.696 1060.71,-264.583"/>
</g>
<!-- Node15 -->
<g id="node15" class="node"><title>Node15</title>
<g id="a_node15"><a xlink:href="_invoker_impl_8h.html" target="_top" xlink:title="plugins/InvokerImpl.h">
<polygon fill="white" stroke="black" points="294,-201.5 294,-220.5 405,-220.5 405,-201.5 294,-201.5"/>
<text text-anchor="middle" x="349.5" y="-208.5" font-family="Helvetica,sans-Serif" font-size="10.00">plugins/InvokerImpl.h</text>
</a>
</g>
</g>
<!-- Node3&#45;&gt;Node15 -->
<g id="edge14" class="edge"><title>Node3&#45;&gt;Node15</title>
<path fill="none" stroke="midnightblue" d="M1060.73,-261.165C1051.69,-259.582 1042.34,-258.108 1033.5,-257 801.174,-227.867 521.936,-216.934 405.124,-213.434"/>
<polygon fill="midnightblue" stroke="midnightblue" points="1060.29,-264.643 1070.76,-262.986 1061.54,-257.756 1060.29,-264.643"/>
</g>
<!-- Node19 -->
<g id="node19" class="node"><title>Node19</title>
<g id="a_node19"><a xlink:href="_basic_h_t_t_p_i_o_processor_8h.html" target="_top" xlink:title="plugins/ioprocessor\l/basichttp/BasicHTTPIOProcessor.h">
<polygon fill="white" stroke="black" points="554,-134.5 554,-164.5 731,-164.5 731,-134.5 554,-134.5"/>
<text text-anchor="start" x="562" y="-152.5" font-family="Helvetica,sans-Serif" font-size="10.00">plugins/ioprocessor</text>
<text text-anchor="middle" x="642.5" y="-141.5" font-family="Helvetica,sans-Serif" font-size="10.00">/basichttp/BasicHTTPIOProcessor.h</text>
</a>
</g>
</g>
<!-- Node3&#45;&gt;Node19 -->
<g id="edge20" class="edge"><title>Node3&#45;&gt;Node19</title>
<path fill="none" stroke="midnightblue" d="M1056.53,-261.122C1048.8,-259.709 1040.95,-258.3 1033.5,-257 935.462,-239.905 908.215,-248.244 812.5,-221 760.873,-206.305 703.793,-180.536 670.652,-164.555"/>
<polygon fill="midnightblue" stroke="midnightblue" points="1056.1,-264.603 1066.57,-262.971 1057.37,-257.718 1056.1,-264.603"/>
</g>
<!-- Node21 -->
<g id="node21" class="node"><title>Node21</title>
<g id="a_node21"><a xlink:href="_s_c_x_m_l_i_o_processor_8cpp.html" target="_top" xlink:title="plugins/ioprocessor\l/scxml/SCXMLIOProcessor.cpp">
<polygon fill="white" stroke="black" points="836,-67.5 836,-97.5 993,-97.5 993,-67.5 836,-67.5"/>
<text text-anchor="start" x="844" y="-85.5" font-family="Helvetica,sans-Serif" font-size="10.00">plugins/ioprocessor</text>
<text text-anchor="middle" x="914.5" y="-74.5" font-family="Helvetica,sans-Serif" font-size="10.00">/scxml/SCXMLIOProcessor.cpp</text>
</a>
</g>
</g>
<!-- Node3&#45;&gt;Node21 -->
<g id="edge22" class="edge"><title>Node3&#45;&gt;Node21</title>
<path fill="none" stroke="midnightblue" d="M1101.98,-253.69C1096.93,-244.081 1090.71,-231.973 1085.5,-221 1067.39,-182.89 1078.06,-163.097 1047.5,-134 1029.35,-116.712 1004.68,-105.195 981.519,-97.5891"/>
<polygon fill="midnightblue" stroke="midnightblue" points="1098.95,-255.448 1106.72,-262.646 1105.14,-252.171 1098.95,-255.448"/>
</g>
<!-- Node22 -->
<g id="node22" class="node"><title>Node22</title>
<g id="a_node22"><a xlink:href="_i_o_processor_impl_8h.html" target="_top" xlink:title="plugins/IOProcessorImpl.h">
<polygon fill="white" stroke="black" points="821.5,-201.5 821.5,-220.5 955.5,-220.5 955.5,-201.5 821.5,-201.5"/>
<text text-anchor="middle" x="888.5" y="-208.5" font-family="Helvetica,sans-Serif" font-size="10.00">plugins/IOProcessorImpl.h</text>
</a>
</g>
</g>
<!-- Node3&#45;&gt;Node22 -->
<g id="edge23" class="edge"><title>Node3&#45;&gt;Node22</title>
<path fill="none" stroke="midnightblue" d="M1069.88,-260.396C1026.57,-248.84 959.692,-230.995 920.391,-220.509"/>
<polygon fill="midnightblue" stroke="midnightblue" points="1068.99,-263.779 1079.55,-262.975 1070.79,-257.015 1068.99,-263.779"/>
</g>
<!-- Node25 -->
<g id="node25" class="node"><title>Node25</title>
<g id="a_node25"><a xlink:href="_transformer_8h.html" target="_top" xlink:title="transform/Transformer.h">
<polygon fill="white" stroke="black" points="1094.5,-201.5 1094.5,-220.5 1218.5,-220.5 1218.5,-201.5 1094.5,-201.5"/>
<text text-anchor="middle" x="1156.5" y="-208.5" font-family="Helvetica,sans-Serif" font-size="10.00">transform/Transformer.h</text>
</a>
</g>
</g>
<!-- Node3&#45;&gt;Node25 -->
<g id="edge28" class="edge"><title>Node3&#45;&gt;Node25</title>
<path fill="none" stroke="midnightblue" d="M1124.1,-254.838C1132.55,-243.669 1143.32,-229.428 1150.06,-220.509"/>
<polygon fill="midnightblue" stroke="midnightblue" points="1121.19,-252.888 1117.95,-262.975 1126.77,-257.111 1121.19,-252.888"/>
</g>
<!-- Node6 -->
<g id="node6" class="node"><title>Node6</title>
<g id="a_node6"><a xlink:href="_debugger_8cpp.html" target="_top" xlink:title="debug/Debugger.cpp">
<polygon fill="white" stroke="black" points="1494.5,-140 1494.5,-159 1604.5,-159 1604.5,-140 1494.5,-140"/>
<text text-anchor="middle" x="1549.5" y="-147" font-family="Helvetica,sans-Serif" font-size="10.00">debug/Debugger.cpp</text>
</a>
</g>
</g>
<!-- Node5&#45;&gt;Node6 -->
<g id="edge5" class="edge"><title>Node5&#45;&gt;Node6</title>
<path fill="none" stroke="midnightblue" d="M1446.4,-197.327C1471.83,-185.776 1508.7,-169.032 1530.77,-159.009"/>
<polygon fill="midnightblue" stroke="midnightblue" points="1444.93,-194.153 1437.27,-201.475 1447.82,-200.526 1444.93,-194.153"/>
</g>
<!-- Node7 -->
<g id="node7" class="node"><title>Node7</title>
<g id="a_node7"><a xlink:href="_debugger_servlet_8h.html" target="_top" xlink:title="debug/DebuggerServlet.h">
<polygon fill="white" stroke="black" points="1622.5,-140 1622.5,-159 1752.5,-159 1752.5,-140 1622.5,-140"/>
<text text-anchor="middle" x="1687.5" y="-147" font-family="Helvetica,sans-Serif" font-size="10.00">debug/DebuggerServlet.h</text>
</a>
</g>
</g>
<!-- Node5&#45;&gt;Node7 -->
<g id="edge6" class="edge"><title>Node5&#45;&gt;Node7</title>
<path fill="none" stroke="midnightblue" d="M1467.06,-199.258C1519.25,-187.716 1601.12,-169.606 1649.03,-159.009"/>
<polygon fill="midnightblue" stroke="midnightblue" points="1466.05,-195.898 1457.04,-201.475 1467.56,-202.733 1466.05,-195.898"/>
</g>
<!-- Node9 -->
<g id="node9" class="node"><title>Node9</title>
<g id="a_node9"><a xlink:href="_debug_session_8cpp.html" target="_top" xlink:title="debug/DebugSession.cpp">
<polygon fill="white" stroke="black" points="1771,-140 1771,-159 1902,-159 1902,-140 1771,-140"/>
<text text-anchor="middle" x="1836.5" y="-147" font-family="Helvetica,sans-Serif" font-size="10.00">debug/DebugSession.cpp</text>
</a>
</g>
</g>
<!-- Node5&#45;&gt;Node9 -->
<g id="edge8" class="edge"><title>Node5&#45;&gt;Node9</title>
<path fill="none" stroke="midnightblue" d="M1478.18,-200.943C1605.21,-183.477 1639.05,-184.576 1761.5,-165 1772.37,-163.262 1784.07,-161.127 1794.93,-159.035"/>
<polygon fill="midnightblue" stroke="midnightblue" points="1477.49,-197.506 1468.06,-202.347 1478.45,-204.44 1477.49,-197.506"/>
</g>
<!-- Node8 -->
<g id="node8" class="node"><title>Node8</title>
<g id="a_node8"><a xlink:href="_debugger_servlet_8cpp.html" target="_top" xlink:title="debug/DebuggerServlet.cpp">
<polygon fill="white" stroke="black" points="1617,-73 1617,-92 1758,-92 1758,-73 1617,-73"/>
<text text-anchor="middle" x="1687.5" y="-80" font-family="Helvetica,sans-Serif" font-size="10.00">debug/DebuggerServlet.cpp</text>
</a>
</g>
</g>
<!-- Node7&#45;&gt;Node8 -->
<g id="edge7" class="edge"><title>Node7&#45;&gt;Node8</title>
<path fill="none" stroke="midnightblue" d="M1687.5,-129.537C1687.5,-117.17 1687.5,-101.62 1687.5,-92.1273"/>
<polygon fill="midnightblue" stroke="midnightblue" points="1684,-129.734 1687.5,-139.734 1691,-129.734 1684,-129.734"/>
</g>
<!-- Node14 -->
<g id="node14" class="node"><title>Node14</title>
<g id="a_node14"><a xlink:href="_u_s_c_x_m_l_invoker_8cpp.html" target="_top" xlink:title="plugins/invoker/scxml\l/USCXMLInvoker.cpp">
<polygon fill="white" stroke="black" points="167,-67.5 167,-97.5 280,-97.5 280,-67.5 167,-67.5"/>
<text text-anchor="start" x="175" y="-85.5" font-family="Helvetica,sans-Serif" font-size="10.00">plugins/invoker/scxml</text>
<text text-anchor="middle" x="223.5" y="-74.5" font-family="Helvetica,sans-Serif" font-size="10.00">/USCXMLInvoker.cpp</text>
</a>
</g>
</g>
<!-- Node13&#45;&gt;Node14 -->
<g id="edge13" class="edge"><title>Node13&#45;&gt;Node14</title>
<path fill="none" stroke="midnightblue" d="M223.5,-124.108C223.5,-115.154 223.5,-105.323 223.5,-97.5765"/>
<polygon fill="midnightblue" stroke="midnightblue" points="220,-124.396 223.5,-134.396 227,-124.396 220,-124.396"/>
</g>
<!-- Node15&#45;&gt;Node11 -->
<g id="edge15" class="edge"><title>Node15&#45;&gt;Node11</title>
<path fill="none" stroke="midnightblue" d="M300.187,-199.33C246.856,-187.792 162.905,-169.628 113.828,-159.009"/>
<polygon fill="midnightblue" stroke="midnightblue" points="299.585,-202.781 310.099,-201.475 301.066,-195.939 299.585,-202.781"/>
</g>
<!-- Node15&#45;&gt;Node13 -->
<g id="edge18" class="edge"><title>Node15&#45;&gt;Node13</title>
<path fill="none" stroke="midnightblue" d="M322.395,-197.2C302.032,-187.585 274.161,-174.423 253.196,-164.523"/>
<polygon fill="midnightblue" stroke="midnightblue" points="320.91,-200.37 331.447,-201.475 323.899,-194.04 320.91,-200.37"/>
</g>
<!-- Node16 -->
<g id="node16" class="node"><title>Node16</title>
<g id="a_node16"><a xlink:href="_dir_mon_invoker_8h.html" target="_top" xlink:title="plugins/invoker/dirmon\l/DirMonInvoker.h">
<polygon fill="white" stroke="black" points="419,-134.5 419,-164.5 536,-164.5 536,-134.5 419,-134.5"/>
<text text-anchor="start" x="427" y="-152.5" font-family="Helvetica,sans-Serif" font-size="10.00">plugins/invoker/dirmon</text>
<text text-anchor="middle" x="477.5" y="-141.5" font-family="Helvetica,sans-Serif" font-size="10.00">/DirMonInvoker.h</text>
</a>
</g>
</g>
<!-- Node15&#45;&gt;Node16 -->
<g id="edge16" class="edge"><title>Node15&#45;&gt;Node16</title>
<path fill="none" stroke="midnightblue" d="M377.035,-197.2C397.722,-187.585 426.035,-174.423 447.333,-164.523"/>
<polygon fill="midnightblue" stroke="midnightblue" points="375.432,-194.086 367.839,-201.475 378.383,-200.434 375.432,-194.086"/>
</g>
<!-- Node18 -->
<g id="node18" class="node"><title>Node18</title>
<g id="a_node18"><a xlink:href="_invoker_8cpp.html" target="_top" xlink:title="plugins/Invoker.cpp">
<polygon fill="white" stroke="black" points="298,-140 298,-159 401,-159 401,-140 298,-140"/>
<text text-anchor="middle" x="349.5" y="-147" font-family="Helvetica,sans-Serif" font-size="10.00">plugins/Invoker.cpp</text>
</a>
</g>
</g>
<!-- Node15&#45;&gt;Node18 -->
<g id="edge19" class="edge"><title>Node15&#45;&gt;Node18</title>
<path fill="none" stroke="midnightblue" d="M349.5,-191.317C349.5,-180.496 349.5,-167.398 349.5,-159.009"/>
<polygon fill="midnightblue" stroke="midnightblue" points="346,-191.475 349.5,-201.475 353,-191.475 346,-191.475"/>
</g>
<!-- Node17 -->
<g id="node17" class="node"><title>Node17</title>
<g id="a_node17"><a xlink:href="_dir_mon_invoker_8cpp.html" target="_top" xlink:title="plugins/invoker/dirmon\l/DirMonInvoker.cpp">
<polygon fill="white" stroke="black" points="416,-67.5 416,-97.5 533,-97.5 533,-67.5 416,-67.5"/>
<text text-anchor="start" x="424" y="-85.5" font-family="Helvetica,sans-Serif" font-size="10.00">plugins/invoker/dirmon</text>
<text text-anchor="middle" x="474.5" y="-74.5" font-family="Helvetica,sans-Serif" font-size="10.00">/DirMonInvoker.cpp</text>
</a>
</g>
</g>
<!-- Node16&#45;&gt;Node17 -->
<g id="edge17" class="edge"><title>Node16&#45;&gt;Node17</title>
<path fill="none" stroke="midnightblue" d="M476.388,-124.403C475.971,-115.37 475.511,-105.408 475.15,-97.5765"/>
<polygon fill="midnightblue" stroke="midnightblue" points="472.892,-124.568 476.849,-134.396 479.884,-124.245 472.892,-124.568"/>
</g>
<!-- Node20 -->
<g id="node20" class="node"><title>Node20</title>
<g id="a_node20"><a xlink:href="_basic_h_t_t_p_i_o_processor_8cpp.html" target="_top" xlink:title="plugins/ioprocessor\l/basichttp/BasicHTTPIOProcessor.cpp">
<polygon fill="white" stroke="black" points="551,-67.5 551,-97.5 738,-97.5 738,-67.5 551,-67.5"/>
<text text-anchor="start" x="559" y="-85.5" font-family="Helvetica,sans-Serif" font-size="10.00">plugins/ioprocessor</text>
<text text-anchor="middle" x="644.5" y="-74.5" font-family="Helvetica,sans-Serif" font-size="10.00">/basichttp/BasicHTTPIOProcessor.cpp</text>
</a>
</g>
</g>
<!-- Node19&#45;&gt;Node20 -->
<g id="edge21" class="edge"><title>Node19&#45;&gt;Node20</title>
<path fill="none" stroke="midnightblue" d="M643.251,-124.108C643.526,-115.154 643.829,-105.323 644.067,-97.5765"/>
<polygon fill="midnightblue" stroke="midnightblue" points="639.743,-124.293 642.934,-134.396 646.74,-124.508 639.743,-124.293"/>
</g>
<!-- Node22&#45;&gt;Node19 -->
<g id="edge24" class="edge"><title>Node22&#45;&gt;Node19</title>
<path fill="none" stroke="midnightblue" d="M843.464,-199.107C803.273,-189.386 744.187,-175.095 700.477,-164.523"/>
<polygon fill="midnightblue" stroke="midnightblue" points="842.712,-202.526 853.254,-201.475 844.357,-195.722 842.712,-202.526"/>
</g>
<!-- Node23 -->
<g id="node23" class="node"><title>Node23</title>
<g id="a_node23"><a xlink:href="_s_c_x_m_l_i_o_processor_8h.html" target="_top" xlink:title="plugins/ioprocessor\l/scxml/SCXMLIOProcessor.h">
<polygon fill="white" stroke="black" points="892.5,-134.5 892.5,-164.5 1038.5,-164.5 1038.5,-134.5 892.5,-134.5"/>
<text text-anchor="start" x="900.5" y="-152.5" font-family="Helvetica,sans-Serif" font-size="10.00">plugins/ioprocessor</text>
<text text-anchor="middle" x="965.5" y="-141.5" font-family="Helvetica,sans-Serif" font-size="10.00">/scxml/SCXMLIOProcessor.h</text>
</a>
</g>
</g>
<!-- Node22&#45;&gt;Node23 -->
<g id="edge25" class="edge"><title>Node22&#45;&gt;Node23</title>
<path fill="none" stroke="midnightblue" d="M907.659,-195.195C919.801,-185.813 935.41,-173.751 947.353,-164.523"/>
<polygon fill="midnightblue" stroke="midnightblue" points="905.305,-192.591 899.532,-201.475 909.585,-198.13 905.305,-192.591"/>
</g>
<!-- Node24 -->
<g id="node24" class="node"><title>Node24</title>
<g id="a_node24"><a xlink:href="_i_o_processor_8cpp.html" target="_top" xlink:title="plugins/IOProcessor.cpp">
<polygon fill="white" stroke="black" points="749,-140 749,-159 874,-159 874,-140 749,-140"/>
<text text-anchor="middle" x="811.5" y="-147" font-family="Helvetica,sans-Serif" font-size="10.00">plugins/IOProcessor.cpp</text>
</a>
</g>
</g>
<!-- Node22&#45;&gt;Node24 -->
<g id="edge27" class="edge"><title>Node22&#45;&gt;Node24</title>
<path fill="none" stroke="midnightblue" d="M869.468,-195.294C854.698,-183.88 834.739,-168.458 822.512,-159.009"/>
<polygon fill="midnightblue" stroke="midnightblue" points="867.415,-198.13 877.468,-201.475 871.695,-192.591 867.415,-198.13"/>
</g>
<!-- Node23&#45;&gt;Node21 -->
<g id="edge26" class="edge"><title>Node23&#45;&gt;Node21</title>
<path fill="none" stroke="midnightblue" d="M948.197,-126.447C940.705,-116.899 932.157,-106.004 925.545,-97.5765"/>
<polygon fill="midnightblue" stroke="midnightblue" points="945.507,-128.689 954.434,-134.396 951.014,-124.368 945.507,-128.689"/>
</g>
<!-- Node26 -->
<g id="node26" class="node"><title>Node26</title>
<g id="a_node26"><a xlink:href="_chart_to_c_8h.html" target="_top" xlink:title="transform/ChartToC.h">
<polygon fill="white" stroke="black" points="1171,-140 1171,-159 1284,-159 1284,-140 1171,-140"/>
<text text-anchor="middle" x="1227.5" y="-147" font-family="Helvetica,sans-Serif" font-size="10.00">transform/ChartToC.h</text>
</a>
</g>
</g>
<!-- Node25&#45;&gt;Node26 -->
<g id="edge29" class="edge"><title>Node25&#45;&gt;Node26</title>
<path fill="none" stroke="midnightblue" d="M1174.43,-194.973C1188.01,-183.593 1206.18,-168.369 1217.35,-159.009"/>
<polygon fill="midnightblue" stroke="midnightblue" points="1172.09,-192.369 1166.67,-201.475 1176.59,-197.735 1172.09,-192.369"/>
</g>
<!-- Node28 -->
<g id="node28" class="node"><title>Node28</title>
<g id="a_node28"><a xlink:href="_chart_to_java_8h.html" target="_top" xlink:title="transform/ChartToJava.h">
<polygon fill="white" stroke="black" points="1011,-73 1011,-92 1138,-92 1138,-73 1011,-73"/>
<text text-anchor="middle" x="1074.5" y="-80" font-family="Helvetica,sans-Serif" font-size="10.00">transform/ChartToJava.h</text>
</a>
</g>
</g>
<!-- Node25&#45;&gt;Node28 -->
<g id="edge38" class="edge"><title>Node25&#45;&gt;Node28</title>
<path fill="none" stroke="midnightblue" d="M1145.33,-192.763C1127.59,-165.397 1093.62,-112.99 1080.18,-92.2557"/>
<polygon fill="midnightblue" stroke="midnightblue" points="1142.49,-194.818 1150.86,-201.305 1148.36,-191.01 1142.49,-194.818"/>
</g>
<!-- Node30 -->
<g id="node30" class="node"><title>Node30</title>
<g id="a_node30"><a xlink:href="_chart_to_promela_8h.html" target="_top" xlink:title="transform/ChartToPromela.h">
<polygon fill="white" stroke="black" points="1156,-73 1156,-92 1299,-92 1299,-73 1156,-73"/>
<text text-anchor="middle" x="1227.5" y="-80" font-family="Helvetica,sans-Serif" font-size="10.00">transform/ChartToPromela.h</text>
</a>
</g>
</g>
<!-- Node25&#45;&gt;Node30 -->
<g id="edge39" class="edge"><title>Node25&#45;&gt;Node30</title>
<path fill="none" stroke="midnightblue" d="M1153.92,-191.1C1152.63,-174.959 1153,-151.624 1162.5,-134 1172.88,-114.755 1194.07,-100.476 1209.44,-92.1006"/>
<polygon fill="midnightblue" stroke="midnightblue" points="1150.48,-191.837 1155.05,-201.398 1157.44,-191.077 1150.48,-191.837"/>
</g>
<!-- Node33 -->
<g id="node33" class="node"><title>Node33</title>
<g id="a_node33"><a xlink:href="_chart_to_v_h_d_l_8h.html" target="_top" xlink:title="transform/ChartToVHDL.h">
<polygon fill="white" stroke="black" points="1460,-73 1460,-92 1593,-92 1593,-73 1460,-73"/>
<text text-anchor="middle" x="1526.5" y="-80" font-family="Helvetica,sans-Serif" font-size="10.00">transform/ChartToVHDL.h</text>
</a>
</g>
</g>
<!-- Node25&#45;&gt;Node33 -->
<g id="edge40" class="edge"><title>Node25&#45;&gt;Node33</title>
<path fill="none" stroke="midnightblue" d="M1203.97,-198.872C1231.15,-191.423 1265.34,-180.185 1293.5,-165 1312.99,-154.492 1312.69,-143.892 1332.5,-134 1359.2,-120.667 1437.19,-102.534 1485.77,-92.0161"/>
<polygon fill="midnightblue" stroke="midnightblue" points="1203.06,-195.491 1194.3,-201.445 1204.86,-202.256 1203.06,-195.491"/>
</g>
<!-- Node35 -->
<g id="node35" class="node"><title>Node35</title>
<g id="a_node35"><a xlink:href="_transformer_8cpp.html" target="_top" xlink:title="transform/Transformer.cpp">
<polygon fill="white" stroke="black" points="1341,-140 1341,-159 1476,-159 1476,-140 1341,-140"/>
<text text-anchor="middle" x="1408.5" y="-147" font-family="Helvetica,sans-Serif" font-size="10.00">transform/Transformer.cpp</text>
</a>
</g>
</g>
<!-- Node25&#45;&gt;Node35 -->
<g id="edge41" class="edge"><title>Node25&#45;&gt;Node35</title>
<path fill="none" stroke="midnightblue" d="M1202.61,-199.114C1251.52,-187.565 1327.77,-169.561 1372.46,-159.009"/>
<polygon fill="midnightblue" stroke="midnightblue" points="1201.53,-195.771 1192.61,-201.475 1203.14,-202.583 1201.53,-195.771"/>
</g>
<!-- Node27 -->
<g id="node27" class="node"><title>Node27</title>
<g id="a_node27"><a xlink:href="_chart_to_c_8cpp.html" target="_top" xlink:title="transform/ChartToC.cpp">
<polygon fill="white" stroke="black" points="1317.5,-73 1317.5,-92 1441.5,-92 1441.5,-73 1317.5,-73"/>
<text text-anchor="middle" x="1379.5" y="-80" font-family="Helvetica,sans-Serif" font-size="10.00">transform/ChartToC.cpp</text>
</a>
</g>
</g>
<!-- Node26&#45;&gt;Node27 -->
<g id="edge30" class="edge"><title>Node26&#45;&gt;Node27</title>
<path fill="none" stroke="midnightblue" d="M1257.24,-135.781C1287.34,-122.909 1333.07,-103.355 1359.23,-92.1672"/>
<polygon fill="midnightblue" stroke="midnightblue" points="1255.5,-132.718 1247.68,-139.869 1258.26,-139.155 1255.5,-132.718"/>
</g>
<!-- Node26&#45;&gt;Node28 -->
<g id="edge31" class="edge"><title>Node26&#45;&gt;Node28</title>
<path fill="none" stroke="midnightblue" d="M1197.96,-135.948C1167.66,-123.079 1121.35,-103.403 1094.9,-92.1672"/>
<polygon fill="midnightblue" stroke="midnightblue" points="1196.61,-139.18 1207.18,-139.869 1199.35,-132.737 1196.61,-139.18"/>
</g>
<!-- Node26&#45;&gt;Node30 -->
<g id="edge33" class="edge"><title>Node26&#45;&gt;Node30</title>
<path fill="none" stroke="midnightblue" d="M1227.5,-129.537C1227.5,-117.17 1227.5,-101.62 1227.5,-92.1273"/>
<polygon fill="midnightblue" stroke="midnightblue" points="1224,-129.734 1227.5,-139.734 1231,-129.734 1224,-129.734"/>
</g>
<!-- Node26&#45;&gt;Node33 -->
<g id="edge36" class="edge"><title>Node26&#45;&gt;Node33</title>
<path fill="none" stroke="midnightblue" d="M1276.71,-137.803C1335.55,-125.012 1432.85,-103.858 1487.02,-92.0834"/>
<polygon fill="midnightblue" stroke="midnightblue" points="1275.92,-134.391 1266.9,-139.936 1277.41,-141.231 1275.92,-134.391"/>
</g>
<!-- Node29 -->
<g id="node29" class="node"><title>Node29</title>
<g id="a_node29"><a xlink:href="_chart_to_java_8cpp.html" target="_top" xlink:title="transform/ChartToJava.cpp">
<polygon fill="white" stroke="black" points="986.5,-6 986.5,-25 1124.5,-25 1124.5,-6 986.5,-6"/>
<text text-anchor="middle" x="1055.5" y="-13" font-family="Helvetica,sans-Serif" font-size="10.00">transform/ChartToJava.cpp</text>
</a>
</g>
</g>
<!-- Node28&#45;&gt;Node29 -->
<g id="edge32" class="edge"><title>Node28&#45;&gt;Node29</title>
<path fill="none" stroke="midnightblue" d="M1069.07,-62.9145C1065.44,-50.4883 1060.82,-34.7166 1058.02,-25.1273"/>
<polygon fill="midnightblue" stroke="midnightblue" points="1065.77,-64.1175 1071.94,-72.7338 1072.49,-62.1535 1065.77,-64.1175"/>
</g>
<!-- Node31 -->
<g id="node31" class="node"><title>Node31</title>
<g id="a_node31"><a xlink:href="_chart_to_promela_8cpp.html" target="_top" xlink:title="transform/ChartToPromela.cpp">
<polygon fill="white" stroke="black" points="1298.5,-6 1298.5,-25 1452.5,-25 1452.5,-6 1298.5,-6"/>
<text text-anchor="middle" x="1375.5" y="-13" font-family="Helvetica,sans-Serif" font-size="10.00">transform/ChartToPromela.cpp</text>
</a>
</g>
</g>
<!-- Node30&#45;&gt;Node31 -->
<g id="edge34" class="edge"><title>Node30&#45;&gt;Node31</title>
<path fill="none" stroke="midnightblue" d="M1256.46,-68.781C1285.77,-55.9085 1330.29,-36.3545 1355.77,-25.1672"/>
<polygon fill="midnightblue" stroke="midnightblue" points="1254.9,-65.6427 1247.15,-72.8685 1257.72,-72.0518 1254.9,-65.6427"/>
</g>
<!-- Node32 -->
<g id="node32" class="node"><title>Node32</title>
<g id="a_node32"><a xlink:href="_promela_code_analyzer_8cpp.html" target="_top" xlink:title="transform/promela/Promela\lCodeAnalyzer.cpp">
<polygon fill="white" stroke="black" points="1142.5,-0.5 1142.5,-30.5 1280.5,-30.5 1280.5,-0.5 1142.5,-0.5"/>
<text text-anchor="start" x="1150.5" y="-18.5" font-family="Helvetica,sans-Serif" font-size="10.00">transform/promela/Promela</text>
<text text-anchor="middle" x="1211.5" y="-7.5" font-family="Helvetica,sans-Serif" font-size="10.00">CodeAnalyzer.cpp</text>
</a>
</g>
</g>
<!-- Node30&#45;&gt;Node32 -->
<g id="edge35" class="edge"><title>Node30&#45;&gt;Node32</title>
<path fill="none" stroke="midnightblue" d="M1222.88,-62.7386C1220.36,-52.4873 1217.28,-40.0011 1214.97,-30.589"/>
<polygon fill="midnightblue" stroke="midnightblue" points="1219.55,-63.8603 1225.34,-72.7338 1226.35,-62.1871 1219.55,-63.8603"/>
</g>
<!-- Node34 -->
<g id="node34" class="node"><title>Node34</title>
<g id="a_node34"><a xlink:href="_chart_to_v_h_d_l_8cpp.html" target="_top" xlink:title="transform/ChartToVHDL.cpp">
<polygon fill="white" stroke="black" points="1471,-6 1471,-25 1614,-25 1614,-6 1471,-6"/>
<text text-anchor="middle" x="1542.5" y="-13" font-family="Helvetica,sans-Serif" font-size="10.00">transform/ChartToVHDL.cpp</text>
</a>
</g>
</g>
<!-- Node33&#45;&gt;Node34 -->
<g id="edge37" class="edge"><title>Node33&#45;&gt;Node34</title>
<path fill="none" stroke="midnightblue" d="M1531.07,-62.9145C1534.13,-50.4883 1538.02,-34.7166 1540.38,-25.1273"/>
<polygon fill="midnightblue" stroke="midnightblue" points="1527.65,-62.1871 1528.66,-72.7338 1534.45,-63.8603 1527.65,-62.1871"/>
</g>
</g>
</svg>
        <g id="navigator" transform="translate(0 0)" fill="#404254">
                <rect fill="#f2f5e9" fill-opacity="0.5" stroke="#606060" stroke-width=".5" x="0" y="0" width="60" height="60"/>
                <use id="zoomplus" xlink:href="#zoomPlus" x="17" y="9" onmousedown="handleZoom(evt,'in')"/>
                <use id="zoomminus" xlink:href="#zoomMin" x="42" y="9" onmousedown="handleZoom(evt,'out')"/>
                <use id="reset" xlink:href="#resetDef" x="30" y="36" onmousedown="handleReset()"/>
                <g id="arrowUp" xlink:href="#dirArrow" transform="translate(30 24)" onmousedown="handlePan(0,-1)">
                  <use xlink:href="#rim" fill="#404040">
                        <set attributeName="fill" to="#808080" begin="arrowUp.mouseover" end="arrowUp.mouseout"/>
                  </use>
                  <path fill="none" stroke="white" stroke-width="1.5" d="M0,-3.0v7 M-2.5,-0.5L0,-3.0L2.5,-0.5"/>
                </g>
                <g id="arrowRight" xlink:href="#dirArrow" transform="rotate(90) translate(36 -43)" onmousedown="handlePan(1,0)">
                  <use xlink:href="#rim" fill="#404040">
                        <set attributeName="fill" to="#808080" begin="arrowRight.mouseover" end="arrowRight.mouseout"/>
                  </use>
                  <path fill="none" stroke="white" stroke-width="1.5" d="M0,-3.0v7 M-2.5,-0.5L0,-3.0L2.5,-0.5"/>
                </g>
                <g id="arrowDown" xlink:href="#dirArrow" transform="rotate(180) translate(-30 -48)" onmousedown="handlePan(0,1)">
                  <use xlink:href="#rim" fill="#404040">
                        <set attributeName="fill" to="#808080" begin="arrowDown.mouseover" end="arrowDown.mouseout"/>
                  </use>
                  <path fill="none" stroke="white" stroke-width="1.5" d="M0,-3.0v7 M-2.5,-0.5L0,-3.0L2.5,-0.5"/>
                </g>
                <g id="arrowLeft" xlink:href="#dirArrow" transform="rotate(270) translate(-36 17)" onmousedown="handlePan(-1,0)">
                  <use xlink:href="#rim" fill="#404040">
                        <set attributeName="fill" to="#808080" begin="arrowLeft.mouseover" end="arrowLeft.mouseout"/>
                  </use>
                  <path fill="none" stroke="white" stroke-width="1.5" d="M0,-3.0v7 M-2.5,-0.5L0,-3.0L2.5,-0.5"/>
                </g>
        </g>
        <svg viewBox="0 0 15 15" width="100%" height="30px" preserveAspectRatio="xMaxYMin meet">
         <g id="arrow_out" transform="scale(0.3 0.3)">
          <a xlink:href="_u_r_l_8h__dep__incl_org.svg" target="_base">
           <rect id="button" ry="5" rx="5" y="6" x="6" height="38" width="38"
                fill="#f2f5e9" fill-opacity="0.5" stroke="#606060" stroke-width="1.0"/>
           <path id="arrow"
             d="M 11.500037,31.436501 C 11.940474,20.09759 22.043105,11.32322 32.158766,21.979434 L 37.068811,17.246167 C 37.068811,17.246167 37.088388,32 37.088388,32 L 22.160133,31.978069 C 22.160133,31.978069 26.997745,27.140456 26.997745,27.140456 C 18.528582,18.264221 13.291696,25.230495 11.500037,31.436501 z"
             style="fill:#404040;"/>
          </a>
         </g>
        </svg>
</svg>
