<?xml version="1.0" encoding="UTF-8" standalone="no"?>
<!DOCTYPE svg PUBLIC "-//W3C//DTD SVG 1.1//EN"
 "http://www.w3.org/Graphics/SVG/1.1/DTD/svg11.dtd">
<!-- Generated by graphviz version 2.40.1 (20161225.0304)
 -->
<!-- Title: plugins/invoker/scxml/USCXMLInvoker.cpp Pages: 1 -->
<svg width="3209pt" height="665pt"
 viewBox="0.00 0.00 3209.00 665.00" xmlns="http://www.w3.org/2000/svg" xmlns:xlink="http://www.w3.org/1999/xlink">
<g id="graph0" class="graph" transform="scale(1 1) rotate(0) translate(4 661)">
<title>plugins/invoker/scxml/USCXMLInvoker.cpp</title>
<polygon fill="#ffffff" stroke="transparent" points="-4,4 -4,-661 3205,-661 3205,4 -4,4"/>
<!-- Node0 -->
<g id="node1" class="node">
<title>Node0</title>
<polygon fill="#bfbfbf" stroke="#000000" points="2447.5,-626.5 2447.5,-656.5 2560.5,-656.5 2560.5,-626.5 2447.5,-626.5"/>
<text text-anchor="start" x="2455.5" y="-644.5" font-family="Helvetica,sans-Serif" font-size="10.00" fill="#000000">plugins/invoker/scxml</text>
<text text-anchor="middle" x="2504" y="-633.5" font-family="Helvetica,sans-Serif" font-size="10.00" fill="#000000">/USCXMLInvoker.cpp</text>
</g>
<!-- Node1 -->
<g id="node2" class="node">
<title>Node1</title>
<g id="a_node2"><a xlink:href="_u_s_c_x_m_l_invoker_8h.html" target="_top" xlink:title="USCXMLInvoker.h">
<polygon fill="#ffffff" stroke="#000000" points="1948.5,-570.5 1948.5,-589.5 2047.5,-589.5 2047.5,-570.5 1948.5,-570.5"/>
<text text-anchor="middle" x="1998" y="-577.5" font-family="Helvetica,sans-Serif" font-size="10.00" fill="#000000">USCXMLInvoker.h</text>
</a>
</g>
</g>
<!-- Node0&#45;&gt;Node1 -->
<g id="edge1" class="edge">
<title>Node0&#45;&gt;Node1</title>
<path fill="none" stroke="#191970" d="M2447.4282,-634.6242C2351.1612,-622.9237 2156.3693,-599.2484 2057.8895,-587.2791"/>
<polygon fill="#191970" stroke="#191970" points="2058.1539,-583.7855 2047.8046,-586.0533 2057.3092,-590.7344 2058.1539,-583.7855"/>
</g>
<!-- Node46 -->
<g id="node47" class="node">
<title>Node46</title>
<g id="a_node47"><a xlink:href="_d_o_m_8h.html" target="_top" xlink:title="uscxml/util/DOM.h">
<polygon fill="#ffffff" stroke="#000000" points="2819,-241 2819,-260 2917,-260 2917,-241 2819,-241"/>
<text text-anchor="middle" x="2868" y="-248" font-family="Helvetica,sans-Serif" font-size="10.00" fill="#000000">uscxml/util/DOM.h</text>
</a>
</g>
</g>
<!-- Node0&#45;&gt;Node46 -->
<g id="edge155" class="edge">
<title>Node0&#45;&gt;Node46</title>
<path fill="none" stroke="#191970" d="M2560.5372,-637.9419C2681.3979,-628.7846 2954,-599.1871 2954,-518.5 2954,-518.5 2954,-518.5 2954,-384.5 2954,-335.6109 2912.9536,-290.3166 2887.5752,-266.9841"/>
<polygon fill="#191970" stroke="#191970" points="2889.7545,-264.2381 2879.9579,-260.2035 2885.1003,-269.4668 2889.7545,-264.2381"/>
</g>
<!-- Node2 -->
<g id="node3" class="node">
<title>Node2</title>
<polygon fill="#ffffff" stroke="#bfbfbf" points="1613.5,-308 1613.5,-327 1698.5,-327 1698.5,-308 1613.5,-308"/>
<text text-anchor="middle" x="1656" y="-315" font-family="Helvetica,sans-Serif" font-size="10.00" fill="#000000">uscxml/config.h</text>
</g>
<!-- Node1&#45;&gt;Node2 -->
<g id="edge2" class="edge">
<title>Node1&#45;&gt;Node2</title>
<path fill="none" stroke="#191970" d="M1968.92,-570.4872C1923.0579,-554.4715 1832.7071,-518.7254 1770,-467 1722.9691,-428.2055 1683.8795,-366.4345 1666.1801,-335.8683"/>
<polygon fill="#191970" stroke="#191970" points="1669.1862,-334.074 1661.2023,-327.1094 1663.1004,-337.5328 1669.1862,-334.074"/>
</g>
<!-- Node3 -->
<g id="node4" class="node">
<title>Node3</title>
<g id="a_node4"><a xlink:href="_interpreter_impl_8h.html" target="_top" xlink:title="uscxml/interpreter\l/InterpreterImpl.h">
<polygon fill="#ffffff" stroke="#000000" points="1950,-503.5 1950,-533.5 2046,-533.5 2046,-503.5 1950,-503.5"/>
<text text-anchor="start" x="1958" y="-521.5" font-family="Helvetica,sans-Serif" font-size="10.00" fill="#000000">uscxml/interpreter</text>
<text text-anchor="middle" x="1998" y="-510.5" font-family="Helvetica,sans-Serif" font-size="10.00" fill="#000000">/InterpreterImpl.h</text>
</a>
</g>
</g>
<!-- Node1&#45;&gt;Node3 -->
<g id="edge3" class="edge">
<title>Node1&#45;&gt;Node3</title>
<path fill="none" stroke="#191970" d="M1998,-570.3906C1998,-563.2234 1998,-553.0862 1998,-543.671"/>
<polygon fill="#191970" stroke="#191970" points="2001.5001,-543.5446 1998,-533.5446 1994.5001,-543.5446 2001.5001,-543.5446"/>
</g>
<!-- Node32 -->
<g id="node33" class="node">
<title>Node32</title>
<g id="a_node33"><a xlink:href="_invoker_impl_8h.html" target="_top" xlink:title="uscxml/plugins/InvokerImpl.h">
<polygon fill="#ffffff" stroke="#000000" points="1284.5,-375 1284.5,-394 1429.5,-394 1429.5,-375 1284.5,-375"/>
<text text-anchor="middle" x="1357" y="-382" font-family="Helvetica,sans-Serif" font-size="10.00" fill="#000000">uscxml/plugins/InvokerImpl.h</text>
</a>
</g>
</g>
<!-- Node1&#45;&gt;Node32 -->
<g id="edge154" class="edge">
<title>Node1&#45;&gt;Node32</title>
<path fill="none" stroke="#191970" d="M1948.2929,-577.2705C1884.8883,-572.7829 1772.3805,-561.4239 1680,-534 1563.2077,-499.3292 1434.7254,-429.3864 1381.8353,-399.0672"/>
<polygon fill="#191970" stroke="#191970" points="1383.5554,-396.0189 1373.145,-394.0507 1380.0558,-402.0813 1383.5554,-396.0189"/>
</g>
<!-- Node45 -->
<g id="node46" class="node">
<title>Node45</title>
<g id="a_node46"><a xlink:href="_basic_event_queue_8h.html" target="_top" xlink:title="uscxml/interpreter\l/BasicEventQueue.h">
<polygon fill="#ffffff" stroke="#000000" points="2632,-369.5 2632,-399.5 2740,-399.5 2740,-369.5 2632,-369.5"/>
<text text-anchor="start" x="2640" y="-387.5" font-family="Helvetica,sans-Serif" font-size="10.00" fill="#000000">uscxml/interpreter</text>
<text text-anchor="middle" x="2686" y="-376.5" font-family="Helvetica,sans-Serif" font-size="10.00" fill="#000000">/BasicEventQueue.h</text>
</a>
</g>
</g>
<!-- Node1&#45;&gt;Node45 -->
<g id="edge146" class="edge">
<title>Node1&#45;&gt;Node45</title>
<path fill="none" stroke="#191970" d="M2047.6543,-575.8953C2146.9657,-566.4066 2375.8215,-538.0744 2554,-467 2592.7891,-451.5273 2632.847,-424.6732 2658.508,-405.8161"/>
<polygon fill="#191970" stroke="#191970" points="2660.7113,-408.5391 2666.6359,-399.7556 2656.527,-402.9274 2660.7113,-408.5391"/>
</g>
<!-- Node4 -->
<g id="node5" class="node">
<title>Node4</title>
<polygon fill="#ffffff" stroke="#bfbfbf" points="315.5,-56.5 315.5,-75.5 368.5,-75.5 368.5,-56.5 315.5,-56.5"/>
<text text-anchor="middle" x="342" y="-63.5" font-family="Helvetica,sans-Serif" font-size="10.00" fill="#000000">memory</text>
</g>
<!-- Node3&#45;&gt;Node4 -->
<g id="edge4" class="edge">
<title>Node3&#45;&gt;Node4</title>
<path fill="none" stroke="#191970" d="M1949.6931,-518.3791C1658.8679,-517.5058 150.6153,-510.8689 64,-467 22.6009,-446.0322 0,-430.9062 0,-384.5 0,-384.5 0,-384.5 0,-183.5 0,-119.4757 217.086,-82.886 305.3468,-70.6555"/>
<polygon fill="#191970" stroke="#191970" points="306.01,-74.0976 315.4484,-69.2845 305.0685,-67.1612 306.01,-74.0976"/>
</g>
<!-- Node5 -->
<g id="node6" class="node">
<title>Node5</title>
<polygon fill="#ffffff" stroke="#bfbfbf" points="2463,-241 2463,-260 2507,-260 2507,-241 2463,-241"/>
<text text-anchor="middle" x="2485" y="-248" font-family="Helvetica,sans-Serif" font-size="10.00" fill="#000000">mutex</text>
</g>
<!-- Node3&#45;&gt;Node5 -->
<g id="edge5" class="edge">
<title>Node3&#45;&gt;Node5</title>
<path fill="none" stroke="#191970" d="M2046.4499,-514.1663C2100.8343,-508.1603 2191.0111,-494.7419 2264,-467 2373.1545,-425.5121 2432.2009,-434.4654 2490,-333 2500.9987,-313.6919 2496.8611,-287.5544 2491.875,-269.9154"/>
<polygon fill="#191970" stroke="#191970" points="2495.144,-268.6448 2488.7885,-260.1679 2488.4706,-270.758 2495.144,-268.6448"/>
</g>
<!-- Node6 -->
<g id="node7" class="node">
<title>Node6</title>
<polygon fill="#ffffff" stroke="#bfbfbf" points="1243.5,-112.5 1243.5,-131.5 1272.5,-131.5 1272.5,-112.5 1243.5,-112.5"/>
<text text-anchor="middle" x="1258" y="-119.5" font-family="Helvetica,sans-Serif" font-size="10.00" fill="#000000">list</text>
</g>
<!-- Node3&#45;&gt;Node6 -->
<g id="edge6" class="edge">
<title>Node3&#45;&gt;Node6</title>
<path fill="none" stroke="#191970" d="M1949.7214,-516.1337C1765.1098,-506.5999 1111.2032,-468.206 1051,-400 1003.5506,-346.2431 1018.5184,-349.0291 1139,-235 1162.1424,-213.097 1177.2518,-220.2446 1201,-199 1220.0666,-181.9434 1236.7985,-157.5863 1247.1181,-140.8588"/>
<polygon fill="#191970" stroke="#191970" points="1250.2859,-142.3815 1252.4224,-132.0044 1244.2809,-138.7842 1250.2859,-142.3815"/>
</g>
<!-- Node7 -->
<g id="node8" class="node">
<title>Node7</title>
<polygon fill="#ffffff" stroke="#bfbfbf" points="2360,-112.5 2360,-131.5 2396,-131.5 2396,-112.5 2360,-112.5"/>
<text text-anchor="middle" x="2378" y="-119.5" font-family="Helvetica,sans-Serif" font-size="10.00" fill="#000000">map</text>
</g>
<!-- Node3&#45;&gt;Node7 -->
<g id="edge7" class="edge">
<title>Node3&#45;&gt;Node7</title>
<path fill="none" stroke="#191970" d="M2046.2008,-515.6463C2227.5036,-504.4727 2861.4857,-461.2741 2926,-400 3002.2826,-327.5486 3044.4671,-245.2056 2973,-168 2953.5043,-146.9389 2521.917,-127.8715 2406.2852,-123.1276"/>
<polygon fill="#191970" stroke="#191970" points="2406.2398,-119.623 2396.1058,-122.7137 2405.9553,-126.6172 2406.2398,-119.623"/>
</g>
<!-- Node8 -->
<g id="node9" class="node">
<title>Node8</title>
<polygon fill="#ffffff" stroke="#bfbfbf" points="2205.5,-56.5 2205.5,-75.5 2246.5,-75.5 2246.5,-56.5 2205.5,-56.5"/>
<text text-anchor="middle" x="2226" y="-63.5" font-family="Helvetica,sans-Serif" font-size="10.00" fill="#000000">string</text>
</g>
<!-- Node3&#45;&gt;Node8 -->
<g id="edge8" class="edge">
<title>Node3&#45;&gt;Node8</title>
<path fill="none" stroke="#191970" d="M2046.2077,-518.1069C2266.0625,-515.691 3163,-498.8288 3163,-384.5 3163,-384.5 3163,-384.5 3163,-183.5 3163,-125.1909 3108.4225,-130.1189 3053,-112 2976.2382,-86.9048 2397.3604,-70.4305 2256.7204,-66.7717"/>
<polygon fill="#191970" stroke="#191970" points="2256.7243,-63.2707 2246.6374,-66.5119 2256.5439,-70.2684 2256.7243,-63.2707"/>
</g>
<!-- Node9 -->
<g id="node10" class="node">
<title>Node9</title>
<polygon fill="#ffffff" stroke="#bfbfbf" points="3105.5,-56.5 3105.5,-75.5 3144.5,-75.5 3144.5,-56.5 3105.5,-56.5"/>
<text text-anchor="middle" x="3125" y="-63.5" font-family="Helvetica,sans-Serif" font-size="10.00" fill="#000000">limits</text>
</g>
<!-- Node3&#45;&gt;Node9 -->
<g id="edge9" class="edge">
<title>Node3&#45;&gt;Node9</title>
<path fill="none" stroke="#191970" d="M2046.2505,-517.133C2236.5481,-511.5978 2929.325,-490.0424 3025,-467 3108.9881,-446.7723 3201,-470.8896 3201,-384.5 3201,-384.5 3201,-384.5 3201,-183.5 3201,-141.9563 3167.0901,-103.486 3144.5719,-82.5193"/>
<polygon fill="#191970" stroke="#191970" points="3146.6556,-79.6865 3136.875,-75.6133 3141.9808,-84.8968 3146.6556,-79.6865"/>
</g>
<!-- Node10 -->
<g id="node11" class="node">
<title>Node10</title>
<g id="a_node11"><a xlink:href="_common_8h.html" target="_top" xlink:title="uscxml/Common.h">
<polygon fill="#ffffff" stroke="#000000" points="923.5,-56.5 923.5,-75.5 1022.5,-75.5 1022.5,-56.5 923.5,-56.5"/>
<text text-anchor="middle" x="973" y="-63.5" font-family="Helvetica,sans-Serif" font-size="10.00" fill="#000000">uscxml/Common.h</text>
</a>
</g>
</g>
<!-- Node3&#45;&gt;Node10 -->
<g id="edge10" class="edge">
<title>Node3&#45;&gt;Node10</title>
<path fill="none" stroke="#191970" d="M1949.7485,-517.6999C1727.0814,-513.8744 797.3752,-496.4102 508,-467 305.2738,-446.3963 57,-588.2705 57,-384.5 57,-384.5 57,-384.5 57,-250.5 57,-165.4655 111.8495,-147.7584 189,-112 254.0461,-81.8518 741.4234,-70.192 913.2543,-66.9912"/>
<polygon fill="#191970" stroke="#191970" points="913.4495,-70.4883 923.3837,-66.8056 913.3212,-63.4895 913.4495,-70.4883"/>
</g>
<!-- Node13 -->
<g id="node14" class="node">
<title>Node13</title>
<g id="a_node14"><a xlink:href="_u_r_l_8h.html" target="_top" xlink:title="uscxml/util/URL.h">
<polygon fill="#ffffff" stroke="#000000" points="2387,-308 2387,-327 2481,-327 2481,-308 2387,-308"/>
<text text-anchor="middle" x="2434" y="-315" font-family="Helvetica,sans-Serif" font-size="10.00" fill="#000000">uscxml/util/URL.h</text>
</a>
</g>
</g>
<!-- Node3&#45;&gt;Node13 -->
<g id="edge13" class="edge">
<title>Node3&#45;&gt;Node13</title>
<path fill="none" stroke="#191970" d="M2046.2517,-512.8144C2092.6083,-506.1074 2163.8441,-492.4882 2221,-467 2300.4548,-431.5678 2380.8938,-364.8524 2415.8808,-333.9636"/>
<polygon fill="#191970" stroke="#191970" points="2418.2629,-336.5289 2423.3951,-327.26 2413.6029,-331.3054 2418.2629,-336.5289"/>
</g>
<!-- Node24 -->
<g id="node25" class="node">
<title>Node24</title>
<g id="a_node25"><a xlink:href="_factory_8h.html" target="_top" xlink:title="uscxml/plugins/Factory.h">
<polygon fill="#ffffff" stroke="#000000" points="2051.5,-241 2051.5,-260 2178.5,-260 2178.5,-241 2051.5,-241"/>
<text text-anchor="middle" x="2115" y="-248" font-family="Helvetica,sans-Serif" font-size="10.00" fill="#000000">uscxml/plugins/Factory.h</text>
</a>
</g>
</g>
<!-- Node3&#45;&gt;Node24 -->
<g id="edge42" class="edge">
<title>Node3&#45;&gt;Node24</title>
<path fill="none" stroke="#191970" d="M2046.2571,-503.5358C2091.4155,-486.5766 2155.8673,-454.0244 2183,-400 2202.548,-361.0775 2202.3872,-341.0028 2183,-302 2175.1053,-286.1176 2159.7143,-273.8241 2145.569,-265.2377"/>
<polygon fill="#191970" stroke="#191970" points="2146.9715,-262.0098 2136.5447,-260.13 2143.5235,-268.1017 2146.9715,-262.0098"/>
</g>
<!-- Node26 -->
<g id="node27" class="node">
<title>Node26</title>
<g id="a_node27"><a xlink:href="_data_model_impl_8h.html" target="_top" xlink:title="uscxml/plugins/DataModel\lImpl.h">
<polygon fill="#ffffff" stroke="#000000" points="607.5,-436.5 607.5,-466.5 740.5,-466.5 740.5,-436.5 607.5,-436.5"/>
<text text-anchor="start" x="615.5" y="-454.5" font-family="Helvetica,sans-Serif" font-size="10.00" fill="#000000">uscxml/plugins/DataModel</text>
<text text-anchor="middle" x="674" y="-443.5" font-family="Helvetica,sans-Serif" font-size="10.00" fill="#000000">Impl.h</text>
</a>
</g>
</g>
<!-- Node3&#45;&gt;Node26 -->
<g id="edge52" class="edge">
<title>Node3&#45;&gt;Node26</title>
<path fill="none" stroke="#191970" d="M1949.9113,-516.2244C1801.6737,-509.1884 1338.5994,-487.05 955,-467 885.9851,-463.3927 807.4504,-459.0398 750.9849,-455.8664"/>
<polygon fill="#191970" stroke="#191970" points="750.8865,-452.3554 740.7056,-455.288 750.4932,-459.3444 750.8865,-452.3554"/>
</g>
<!-- Node31 -->
<g id="node32" class="node">
<title>Node31</title>
<g id="a_node32"><a xlink:href="_i_o_processor_impl_8h.html" target="_top" xlink:title="uscxml/plugins/IOProcessor\lImpl.h">
<polygon fill="#ffffff" stroke="#000000" points="337,-369.5 337,-399.5 477,-399.5 477,-369.5 337,-369.5"/>
<text text-anchor="start" x="345" y="-387.5" font-family="Helvetica,sans-Serif" font-size="10.00" fill="#000000">uscxml/plugins/IOProcessor</text>
<text text-anchor="middle" x="407" y="-376.5" font-family="Helvetica,sans-Serif" font-size="10.00" fill="#000000">Impl.h</text>
</a>
</g>
</g>
<!-- Node3&#45;&gt;Node31 -->
<g id="edge75" class="edge">
<title>Node3&#45;&gt;Node31</title>
<path fill="none" stroke="#191970" d="M1949.9797,-517.2318C1711.7208,-510.8762 665.2421,-482.1956 598,-467 540.8355,-454.0818 479.4089,-424.3991 442.0851,-404.3913"/>
<polygon fill="#191970" stroke="#191970" points="443.5907,-401.2261 433.1326,-399.5291 440.2498,-407.3775 443.5907,-401.2261"/>
</g>
<!-- Node3&#45;&gt;Node32 -->
<g id="edge80" class="edge">
<title>Node3&#45;&gt;Node32</title>
<path fill="none" stroke="#191970" d="M1949.8208,-508.4282C1833.2862,-484.0668 1536.6718,-422.0601 1412.7421,-396.1528"/>
<polygon fill="#191970" stroke="#191970" points="1413.2121,-392.6755 1402.7075,-394.0551 1411.7797,-399.5273 1413.2121,-392.6755"/>
</g>
<!-- Node33 -->
<g id="node34" class="node">
<title>Node33</title>
<g id="a_node34"><a xlink:href="_micro_step_impl_8h.html" target="_top" xlink:title="uscxml/interpreter\l/MicroStepImpl.h">
<polygon fill="#ffffff" stroke="#000000" points="1988,-436.5 1988,-466.5 2084,-466.5 2084,-436.5 1988,-436.5"/>
<text text-anchor="start" x="1996" y="-454.5" font-family="Helvetica,sans-Serif" font-size="10.00" fill="#000000">uscxml/interpreter</text>
<text text-anchor="middle" x="2036" y="-443.5" font-family="Helvetica,sans-Serif" font-size="10.00" fill="#000000">/MicroStepImpl.h</text>
</a>
</g>
</g>
<!-- Node3&#45;&gt;Node33 -->
<g id="edge86" class="edge">
<title>Node3&#45;&gt;Node33</title>
<path fill="none" stroke="#191970" d="M2006.6228,-503.2967C2011.287,-495.0729 2017.1547,-484.7272 2022.4174,-475.4483"/>
<polygon fill="#191970" stroke="#191970" points="2025.5223,-477.0683 2027.4113,-466.6432 2019.4335,-473.6148 2025.5223,-477.0683"/>
</g>
<!-- Node40 -->
<g id="node41" class="node">
<title>Node40</title>
<g id="a_node41"><a xlink:href="_event_queue_8h.html" target="_top" xlink:title="uscxml/interpreter\l/EventQueue.h">
<polygon fill="#ffffff" stroke="#000000" points="1817,-302.5 1817,-332.5 1913,-332.5 1913,-302.5 1817,-302.5"/>
<text text-anchor="start" x="1825" y="-320.5" font-family="Helvetica,sans-Serif" font-size="10.00" fill="#000000">uscxml/interpreter</text>
<text text-anchor="middle" x="1865" y="-309.5" font-family="Helvetica,sans-Serif" font-size="10.00" fill="#000000">/EventQueue.h</text>
</a>
</g>
</g>
<!-- Node3&#45;&gt;Node40 -->
<g id="edge136" class="edge">
<title>Node3&#45;&gt;Node40</title>
<path fill="none" stroke="#191970" d="M1988.0034,-503.3923C1964.9841,-468.6038 1908.1005,-382.6368 1880.5072,-340.9356"/>
<polygon fill="#191970" stroke="#191970" points="1883.3683,-338.917 1874.9312,-332.5088 1877.5306,-342.7798 1883.3683,-338.917"/>
</g>
<!-- Node41 -->
<g id="node42" class="node">
<title>Node41</title>
<g id="a_node42"><a xlink:href="_content_executor_impl_8h.html" target="_top" xlink:title="uscxml/interpreter\l/ContentExecutorImpl.h">
<polygon fill="#ffffff" stroke="#000000" points="1779.5,-436.5 1779.5,-466.5 1900.5,-466.5 1900.5,-436.5 1779.5,-436.5"/>
<text text-anchor="start" x="1787.5" y="-454.5" font-family="Helvetica,sans-Serif" font-size="10.00" fill="#000000">uscxml/interpreter</text>
<text text-anchor="middle" x="1840" y="-443.5" font-family="Helvetica,sans-Serif" font-size="10.00" fill="#000000">/ContentExecutorImpl.h</text>
</a>
</g>
</g>
<!-- Node3&#45;&gt;Node41 -->
<g id="edge121" class="edge">
<title>Node3&#45;&gt;Node41</title>
<path fill="none" stroke="#191970" d="M1962.5417,-503.4639C1939.6501,-493.7567 1909.665,-481.0415 1885.086,-470.6188"/>
<polygon fill="#191970" stroke="#191970" points="1886.1858,-467.2835 1875.6129,-466.6017 1883.453,-473.728 1886.1858,-467.2835"/>
</g>
<!-- Node44 -->
<g id="node45" class="node">
<title>Node44</title>
<g id="a_node45"><a xlink:href="_event_queue_impl_8h.html" target="_top" xlink:title="uscxml/interpreter\l/EventQueueImpl.h">
<polygon fill="#ffffff" stroke="#000000" points="2575,-302.5 2575,-332.5 2677,-332.5 2677,-302.5 2575,-302.5"/>
<text text-anchor="start" x="2583" y="-320.5" font-family="Helvetica,sans-Serif" font-size="10.00" fill="#000000">uscxml/interpreter</text>
<text text-anchor="middle" x="2626" y="-309.5" font-family="Helvetica,sans-Serif" font-size="10.00" fill="#000000">/EventQueueImpl.h</text>
</a>
</g>
</g>
<!-- Node3&#45;&gt;Node44 -->
<g id="edge137" class="edge">
<title>Node3&#45;&gt;Node44</title>
<path fill="none" stroke="#191970" d="M2046.052,-516.0913C2167.944,-509.6579 2482.418,-490.9223 2523,-467 2571.684,-438.3017 2602.6988,-376.4662 2616.9133,-341.9897"/>
<polygon fill="#191970" stroke="#191970" points="2620.1892,-343.2234 2620.6324,-332.6378 2613.6847,-340.6366 2620.1892,-343.2234"/>
</g>
<!-- Node11 -->
<g id="node12" class="node">
<title>Node11</title>
<polygon fill="#ffffff" stroke="#bfbfbf" points="899,-.5 899,-19.5 971,-19.5 971,-.5 899,-.5"/>
<text text-anchor="middle" x="935" y="-7.5" font-family="Helvetica,sans-Serif" font-size="10.00" fill="#000000">sys/socket.h</text>
</g>
<!-- Node10&#45;&gt;Node11 -->
<g id="edge11" class="edge">
<title>Node10&#45;&gt;Node11</title>
<path fill="none" stroke="#191970" d="M966.3809,-56.2455C961.0954,-48.4564 953.5459,-37.3308 947.1762,-27.9439"/>
<polygon fill="#191970" stroke="#191970" points="950.0545,-25.9522 941.5432,-19.6427 944.2621,-29.8827 950.0545,-25.9522"/>
</g>
<!-- Node12 -->
<g id="node13" class="node">
<title>Node12</title>
<polygon fill="#ffffff" stroke="#bfbfbf" points="989,-.5 989,-19.5 1033,-19.5 1033,-.5 989,-.5"/>
<text text-anchor="middle" x="1011" y="-7.5" font-family="Helvetica,sans-Serif" font-size="10.00" fill="#000000">cmath</text>
</g>
<!-- Node10&#45;&gt;Node12 -->
<g id="edge12" class="edge">
<title>Node10&#45;&gt;Node12</title>
<path fill="none" stroke="#191970" d="M979.6191,-56.2455C984.9046,-48.4564 992.4541,-37.3308 998.8238,-27.9439"/>
<polygon fill="#191970" stroke="#191970" points="1001.7379,-29.8827 1004.4568,-19.6427 995.9455,-25.9522 1001.7379,-29.8827"/>
</g>
<!-- Node13&#45;&gt;Node5 -->
<g id="edge41" class="edge">
<title>Node13&#45;&gt;Node5</title>
<path fill="none" stroke="#191970" d="M2441.3071,-307.9005C2449.1843,-297.552 2461.8946,-280.8542 2471.5806,-268.1295"/>
<polygon fill="#191970" stroke="#191970" points="2474.4346,-270.1586 2477.7065,-260.0817 2468.8646,-265.9188 2474.4346,-270.1586"/>
</g>
<!-- Node13&#45;&gt;Node6 -->
<g id="edge38" class="edge">
<title>Node13&#45;&gt;Node6</title>
<path fill="none" stroke="#191970" d="M2386.7645,-309.3623C2370.4073,-306.7418 2351.9311,-304.0013 2335,-302 2136.1881,-278.5001 2082.9918,-301.6742 1886,-266 1846.9982,-258.937 1581.6881,-176.6173 1543,-168 1447.7175,-146.7768 1332.4496,-131.2208 1282.7606,-124.9934"/>
<polygon fill="#191970" stroke="#191970" points="1283.0031,-121.4968 1272.649,-123.7422 1282.1434,-128.4439 1283.0031,-121.4968"/>
</g>
<!-- Node13&#45;&gt;Node7 -->
<g id="edge36" class="edge">
<title>Node13&#45;&gt;Node7</title>
<path fill="none" stroke="#191970" d="M2431.223,-307.8051C2422.471,-277.2513 2395.3477,-182.5619 2383.5619,-141.417"/>
<polygon fill="#191970" stroke="#191970" points="2386.9123,-140.403 2380.7938,-131.7534 2380.1829,-142.3306 2386.9123,-140.403"/>
</g>
<!-- Node13&#45;&gt;Node8 -->
<g id="edge34" class="edge">
<title>Node13&#45;&gt;Node8</title>
<path fill="none" stroke="#191970" d="M2435.9807,-307.8182C2441.9969,-275.4416 2456.6437,-169.7397 2405,-112 2385.4528,-90.1454 2302.5827,-76.0503 2256.7676,-69.7743"/>
<polygon fill="#191970" stroke="#191970" points="2257.1567,-66.2953 2246.7833,-68.45 2256.2363,-73.2345 2257.1567,-66.2953"/>
</g>
<!-- Node13&#45;&gt;Node10 -->
<g id="edge14" class="edge">
<title>Node13&#45;&gt;Node10</title>
<path fill="none" stroke="#191970" d="M2386.9448,-314.4182C2291.3764,-307.7329 2077.7899,-290.5035 2009,-266 1932.2224,-238.6512 1925.5793,-206.9766 1854,-168 1801.9573,-139.6616 1790.4602,-126.4857 1733,-112 1600.812,-78.6754 1188.2701,-69.189 1032.9514,-66.7607"/>
<polygon fill="#191970" stroke="#191970" points="1032.7111,-63.2568 1022.659,-66.6043 1032.6046,-70.2559 1032.7111,-63.2568"/>
</g>
<!-- Node14 -->
<g id="node15" class="node">
<title>Node14</title>
<g id="a_node15"><a xlink:href="_event_8h.html" target="_top" xlink:title="uscxml/messages/Event.h">
<polygon fill="#ffffff" stroke="#000000" points="1481.5,-241 1481.5,-260 1614.5,-260 1614.5,-241 1481.5,-241"/>
<text text-anchor="middle" x="1548" y="-248" font-family="Helvetica,sans-Serif" font-size="10.00" fill="#000000">uscxml/messages/Event.h</text>
</a>
</g>
</g>
<!-- Node13&#45;&gt;Node14 -->
<g id="edge15" class="edge">
<title>Node13&#45;&gt;Node14</title>
<path fill="none" stroke="#191970" d="M2386.9903,-313.9451C2242.4034,-303.0113 1803.3089,-269.8067 1624.7456,-256.3036"/>
<polygon fill="#191970" stroke="#191970" points="1624.8805,-252.8039 1614.645,-255.5397 1624.3526,-259.7839 1624.8805,-252.8039"/>
</g>
<!-- Node18 -->
<g id="node19" class="node">
<title>Node18</title>
<polygon fill="#ffffff" stroke="#bfbfbf" points="2982,-56.5 2982,-75.5 3034,-75.5 3034,-56.5 2982,-56.5"/>
<text text-anchor="middle" x="3008" y="-63.5" font-family="Helvetica,sans-Serif" font-size="10.00" fill="#000000">sstream</text>
</g>
<!-- Node13&#45;&gt;Node18 -->
<g id="edge35" class="edge">
<title>Node13&#45;&gt;Node18</title>
<path fill="none" stroke="#191970" d="M2481.0185,-311.7797C2506.2107,-308.7651 2537.785,-305.0671 2566,-302 2645.9282,-293.3115 2855.6457,-304.9137 2926,-266 2991.9694,-229.5117 3005.5707,-203.3202 3030,-132 3035.4801,-116.0012 3028.3846,-97.7599 3020.8303,-84.5149"/>
<polygon fill="#191970" stroke="#191970" points="3023.6883,-82.4839 3015.4218,-75.8571 3017.7515,-86.1926 3023.6883,-82.4839"/>
</g>
<!-- Node21 -->
<g id="node22" class="node">
<title>Node21</title>
<polygon fill="#ffffff" stroke="#bfbfbf" points="1815,-174 1815,-193 1845,-193 1845,-174 1815,-174"/>
<text text-anchor="middle" x="1830" y="-181" font-family="Helvetica,sans-Serif" font-size="10.00" fill="#000000">set</text>
</g>
<!-- Node13&#45;&gt;Node21 -->
<g id="edge37" class="edge">
<title>Node13&#45;&gt;Node21</title>
<path fill="none" stroke="#191970" d="M2386.7536,-309.4523C2370.3956,-306.839 2351.9216,-304.0801 2335,-302 2156.9584,-280.1146 2099.4304,-332.9232 1933,-266 1914.1886,-258.4358 1872.1547,-221.896 1848.001,-200.0623"/>
<polygon fill="#191970" stroke="#191970" points="1850.306,-197.4275 1840.5546,-193.2847 1845.5941,-202.6043 1850.306,-197.4275"/>
</g>
<!-- Node22 -->
<g id="node23" class="node">
<title>Node22</title>
<polygon fill="#ffffff" stroke="#bfbfbf" points="2525.5,-241 2525.5,-260 2570.5,-260 2570.5,-241 2525.5,-241"/>
<text text-anchor="middle" x="2548" y="-248" font-family="Helvetica,sans-Serif" font-size="10.00" fill="#000000">thread</text>
</g>
<!-- Node13&#45;&gt;Node22 -->
<g id="edge39" class="edge">
<title>Node13&#45;&gt;Node22</title>
<path fill="none" stroke="#191970" d="M2450.3334,-307.9005C2469.2959,-296.7559 2500.7875,-278.2477 2522.872,-265.2682"/>
<polygon fill="#191970" stroke="#191970" points="2524.849,-268.1661 2531.6969,-260.0817 2521.3021,-262.1311 2524.849,-268.1661"/>
</g>
<!-- Node23 -->
<g id="node24" class="node">
<title>Node23</title>
<polygon fill="#ffffff" stroke="#bfbfbf" points="2665.5,-241 2665.5,-260 2762.5,-260 2762.5,-241 2665.5,-241"/>
<text text-anchor="middle" x="2714" y="-248" font-family="Helvetica,sans-Serif" font-size="10.00" fill="#000000">condition_variable</text>
</g>
<!-- Node13&#45;&gt;Node23 -->
<g id="edge40" class="edge">
<title>Node13&#45;&gt;Node23</title>
<path fill="none" stroke="#191970" d="M2473.8198,-307.9717C2523.8516,-295.9998 2609.7296,-275.4504 2664.0954,-262.4415"/>
<polygon fill="#191970" stroke="#191970" points="2664.9533,-265.8351 2673.8642,-260.1039 2663.3242,-259.0272 2664.9533,-265.8351"/>
</g>
<!-- Node15 -->
<g id="node16" class="node">
<title>Node15</title>
<g id="a_node16"><a xlink:href="_data_8h.html" target="_top" xlink:title="uscxml/messages/Data.h">
<polygon fill="#ffffff" stroke="#000000" points="993,-174 993,-193 1121,-193 1121,-174 993,-174"/>
<text text-anchor="middle" x="1057" y="-181" font-family="Helvetica,sans-Serif" font-size="10.00" fill="#000000">uscxml/messages/Data.h</text>
</a>
</g>
</g>
<!-- Node14&#45;&gt;Node15 -->
<g id="edge16" class="edge">
<title>Node14&#45;&gt;Node15</title>
<path fill="none" stroke="#191970" d="M1481.2706,-241.3944C1389.9426,-228.9321 1226.5235,-206.6325 1131.3651,-193.6476"/>
<polygon fill="#191970" stroke="#191970" points="1131.6233,-190.1505 1121.2419,-192.2662 1130.6768,-197.0862 1131.6233,-190.1505"/>
</g>
<!-- Node20 -->
<g id="node21" class="node">
<title>Node20</title>
<g id="a_node21"><a xlink:href="_u_u_i_d_8h.html" target="_top" xlink:title="uscxml/util/UUID.h">
<polygon fill="#ffffff" stroke="#000000" points="1927.5,-112.5 1927.5,-131.5 2026.5,-131.5 2026.5,-112.5 1927.5,-112.5"/>
<text text-anchor="middle" x="1977" y="-119.5" font-family="Helvetica,sans-Serif" font-size="10.00" fill="#000000">uscxml/util/UUID.h</text>
</a>
</g>
</g>
<!-- Node14&#45;&gt;Node20 -->
<g id="edge31" class="edge">
<title>Node14&#45;&gt;Node20</title>
<path fill="none" stroke="#191970" d="M1576.4994,-240.9058C1623.9143,-225.0524 1722.0881,-192.6879 1806,-168 1847.6069,-155.7587 1895.2863,-143.0398 1929.7102,-134.0871"/>
<polygon fill="#191970" stroke="#191970" points="1930.6964,-137.4473 1939.4983,-131.5501 1928.94,-130.6712 1930.6964,-137.4473"/>
</g>
<!-- Node15&#45;&gt;Node4 -->
<g id="edge19" class="edge">
<title>Node15&#45;&gt;Node4</title>
<path fill="none" stroke="#191970" d="M1021.9363,-173.8862C965.3482,-158.6931 850.1916,-129.1056 751,-112 615.0367,-88.5531 451.4969,-74.3068 379.3282,-68.7207"/>
<polygon fill="#191970" stroke="#191970" points="379.1898,-65.2001 368.9524,-67.9289 378.657,-72.1798 379.1898,-65.2001"/>
</g>
<!-- Node15&#45;&gt;Node6 -->
<g id="edge17" class="edge">
<title>Node15&#45;&gt;Node6</title>
<path fill="none" stroke="#191970" d="M1088.4063,-173.8906C1128.4024,-161.653 1196.6959,-140.7572 1233.2252,-129.5804"/>
<polygon fill="#191970" stroke="#191970" points="1234.5182,-132.845 1243.0565,-126.5723 1232.4701,-126.1513 1234.5182,-132.845"/>
</g>
<!-- Node15&#45;&gt;Node7 -->
<g id="edge18" class="edge">
<title>Node15&#45;&gt;Node7</title>
<path fill="none" stroke="#191970" d="M1121.161,-180.5129C1359.0571,-169.4375 2185.4577,-130.9639 2349.5473,-123.3246"/>
<polygon fill="#191970" stroke="#191970" points="2349.9676,-126.809 2359.794,-122.8476 2349.642,-119.8165 2349.9676,-126.809"/>
</g>
<!-- Node15&#45;&gt;Node10 -->
<g id="edge21" class="edge">
<title>Node15&#45;&gt;Node10</title>
<path fill="none" stroke="#191970" d="M1067.9018,-173.7375C1082.4801,-159.4766 1104.9607,-132.4263 1091,-112 1082.4448,-99.4827 1048.8624,-87.1021 1019.7004,-78.3437"/>
<polygon fill="#191970" stroke="#191970" points="1020.603,-74.9611 1010.0228,-75.5173 1018.6406,-81.6804 1020.603,-74.9611"/>
</g>
<!-- Node16 -->
<g id="node17" class="node">
<title>Node16</title>
<polygon fill="#ffffff" stroke="#bfbfbf" points="1139.5,-112.5 1139.5,-131.5 1202.5,-131.5 1202.5,-112.5 1139.5,-112.5"/>
<text text-anchor="middle" x="1171" y="-119.5" font-family="Helvetica,sans-Serif" font-size="10.00" fill="#000000">type_traits</text>
</g>
<!-- Node15&#45;&gt;Node16 -->
<g id="edge20" class="edge">
<title>Node15&#45;&gt;Node16</title>
<path fill="none" stroke="#191970" d="M1074.8125,-173.8906C1093.4685,-163.8262 1122.9797,-147.9057 1144.3974,-136.3514"/>
<polygon fill="#191970" stroke="#191970" points="1146.1734,-139.3702 1153.3126,-131.5419 1142.8498,-133.2095 1146.1734,-139.3702"/>
</g>
<!-- Node17 -->
<g id="node18" class="node">
<title>Node17</title>
<g id="a_node18"><a xlink:href="_convenience_8h.html" target="_top" xlink:title="uscxml/util/Convenience.h">
<polygon fill="#ffffff" stroke="#000000" points="2887.5,-112.5 2887.5,-131.5 3020.5,-131.5 3020.5,-112.5 2887.5,-112.5"/>
<text text-anchor="middle" x="2954" y="-119.5" font-family="Helvetica,sans-Serif" font-size="10.00" fill="#000000">uscxml/util/Convenience.h</text>
</a>
</g>
</g>
<!-- Node15&#45;&gt;Node17 -->
<g id="edge22" class="edge">
<title>Node15&#45;&gt;Node17</title>
<path fill="none" stroke="#191970" d="M1121.2036,-181.4185C1407.4158,-172.1397 2566.515,-134.5621 2877.1124,-124.4927"/>
<polygon fill="#191970" stroke="#191970" points="2877.4835,-127.9826 2887.3648,-124.1603 2877.2566,-120.9862 2877.4835,-127.9826"/>
</g>
<!-- Node19 -->
<g id="node20" class="node">
<title>Node19</title>
<g id="a_node20"><a xlink:href="_blob_8h.html" target="_top" xlink:title="uscxml/messages/Blob.h">
<polygon fill="#ffffff" stroke="#000000" points="955.5,-112.5 955.5,-131.5 1082.5,-131.5 1082.5,-112.5 955.5,-112.5"/>
<text text-anchor="middle" x="1019" y="-119.5" font-family="Helvetica,sans-Serif" font-size="10.00" fill="#000000">uscxml/messages/Blob.h</text>
</a>
</g>
</g>
<!-- Node15&#45;&gt;Node19 -->
<g id="edge27" class="edge">
<title>Node15&#45;&gt;Node19</title>
<path fill="none" stroke="#191970" d="M1051.0625,-173.8906C1045.5733,-165.0068 1037.2647,-151.5601 1030.481,-140.5811"/>
<polygon fill="#191970" stroke="#191970" points="1033.2551,-138.4122 1025.0212,-131.7449 1027.3002,-142.0917 1033.2551,-138.4122"/>
</g>
<!-- Node17&#45;&gt;Node8 -->
<g id="edge24" class="edge">
<title>Node17&#45;&gt;Node8</title>
<path fill="none" stroke="#191970" d="M2887.2851,-113.4855C2882.454,-112.9544 2877.6539,-112.4524 2873,-112 2636.3508,-88.9951 2349.9473,-72.6465 2256.8389,-67.6233"/>
<polygon fill="#191970" stroke="#191970" points="2256.8765,-64.1204 2246.7035,-67.0802 2256.5019,-71.1103 2256.8765,-64.1204"/>
</g>
<!-- Node17&#45;&gt;Node9 -->
<g id="edge25" class="edge">
<title>Node17&#45;&gt;Node9</title>
<path fill="none" stroke="#191970" d="M2983.3959,-112.3733C3014.7603,-102.1019 3064.1586,-85.9247 3095.5454,-75.646"/>
<polygon fill="#191970" stroke="#191970" points="3096.6433,-78.9694 3105.0573,-72.5309 3094.4647,-72.317 3096.6433,-78.9694"/>
</g>
<!-- Node17&#45;&gt;Node10 -->
<g id="edge23" class="edge">
<title>Node17&#45;&gt;Node10</title>
<path fill="none" stroke="#191970" d="M2887.2381,-120.1127C2582.1463,-111.4882 1322.9778,-75.8934 1032.8253,-67.6912"/>
<polygon fill="#191970" stroke="#191970" points="1032.6109,-64.1838 1022.5159,-67.3997 1032.413,-71.181 1032.6109,-64.1838"/>
</g>
<!-- Node17&#45;&gt;Node18 -->
<g id="edge26" class="edge">
<title>Node17&#45;&gt;Node18</title>
<path fill="none" stroke="#191970" d="M2963.4061,-112.2455C2971.1493,-104.2155 2982.312,-92.6394 2991.5318,-83.0781"/>
<polygon fill="#191970" stroke="#191970" points="2994.2798,-85.2706 2998.7017,-75.6427 2989.2409,-80.4117 2994.2798,-85.2706"/>
</g>
<!-- Node19&#45;&gt;Node4 -->
<g id="edge29" class="edge">
<title>Node19&#45;&gt;Node4</title>
<path fill="none" stroke="#191970" d="M955.3095,-116.7317C816.2615,-105.2299 489.1615,-78.1729 378.974,-69.0584"/>
<polygon fill="#191970" stroke="#191970" points="378.9574,-65.5452 368.7029,-68.2088 378.3803,-72.5213 378.9574,-65.5452"/>
</g>
<!-- Node19&#45;&gt;Node8 -->
<g id="edge28" class="edge">
<title>Node19&#45;&gt;Node8</title>
<path fill="none" stroke="#191970" d="M1082.6462,-115.7387C1098.1304,-114.3611 1114.651,-113.0129 1130,-112 1551.4641,-84.1866 2065.2748,-70.0396 2195.0871,-66.7549"/>
<polygon fill="#191970" stroke="#191970" points="2195.538,-70.2448 2205.4471,-66.4953 2195.3626,-63.247 2195.538,-70.2448"/>
</g>
<!-- Node19&#45;&gt;Node10 -->
<g id="edge30" class="edge">
<title>Node19&#45;&gt;Node10</title>
<path fill="none" stroke="#191970" d="M1010.9874,-112.2455C1004.5232,-104.3761 995.2615,-93.101 987.5017,-83.6542"/>
<polygon fill="#191970" stroke="#191970" points="989.9727,-81.1484 980.9208,-75.6427 984.5636,-85.5916 989.9727,-81.1484"/>
</g>
<!-- Node20&#45;&gt;Node8 -->
<g id="edge33" class="edge">
<title>Node20&#45;&gt;Node8</title>
<path fill="none" stroke="#191970" d="M2019.5217,-112.4369C2069.544,-101.1869 2151.3501,-82.7887 2195.48,-72.8639"/>
<polygon fill="#191970" stroke="#191970" points="2196.343,-76.2573 2205.3313,-70.6484 2194.807,-69.4279 2196.343,-76.2573"/>
</g>
<!-- Node20&#45;&gt;Node10 -->
<g id="edge32" class="edge">
<title>Node20&#45;&gt;Node10</title>
<path fill="none" stroke="#191970" d="M1927.4531,-113.7269C1922.5784,-113.0728 1917.6988,-112.4807 1913,-112 1581.6473,-78.1021 1181.9438,-69.0216 1032.8656,-66.7288"/>
<polygon fill="#191970" stroke="#191970" points="1032.6206,-63.2249 1022.5695,-66.5752 1032.5161,-70.2241 1032.6206,-63.2249"/>
</g>
<!-- Node24&#45;&gt;Node4 -->
<g id="edge47" class="edge">
<title>Node24&#45;&gt;Node4</title>
<path fill="none" stroke="#191970" d="M2051.454,-248.3368C1785.8224,-239.2626 777.3766,-204.4864 762,-199 740.4839,-191.3231 740.8794,-179.2555 721,-168 663.0421,-135.1848 645.8942,-130.8012 582,-112 511.4322,-91.2351 426.3606,-77.4967 378.8029,-70.7921"/>
<polygon fill="#191970" stroke="#191970" points="379.0641,-67.295 368.6788,-69.3917 378.1048,-74.229 379.0641,-67.295"/>
</g>
<!-- Node24&#45;&gt;Node7 -->
<g id="edge49" class="edge">
<title>Node24&#45;&gt;Node7</title>
<path fill="none" stroke="#191970" d="M2134.7677,-240.8416C2181.214,-218.1483 2297.3804,-161.3902 2350.5959,-135.3895"/>
<polygon fill="#191970" stroke="#191970" points="2352.3204,-138.4424 2359.7688,-130.9076 2349.2474,-132.1529 2352.3204,-138.4424"/>
</g>
<!-- Node24&#45;&gt;Node8 -->
<g id="edge50" class="edge">
<title>Node24&#45;&gt;Node8</title>
<path fill="none" stroke="#191970" d="M2119.9472,-240.8864C2131.7926,-218.0622 2163.0312,-159.003 2193,-112 2199.0535,-102.5058 2206.2977,-92.2969 2212.4546,-83.9143"/>
<polygon fill="#191970" stroke="#191970" points="2215.4385,-85.7672 2218.6011,-75.6554 2209.823,-81.588 2215.4385,-85.7672"/>
</g>
<!-- Node24&#45;&gt;Node9 -->
<g id="edge51" class="edge">
<title>Node24&#45;&gt;Node9</title>
<path fill="none" stroke="#191970" d="M2175.0014,-240.9615C2278.4972,-224.6933 2497.3469,-191.1034 2683,-168 2836.8632,-148.8527 2884.6331,-185.9347 3030,-132 3059.7726,-120.9536 3089.0103,-98.3729 3107.0149,-82.7212"/>
<polygon fill="#191970" stroke="#191970" points="3109.7773,-84.9468 3114.9043,-75.6752 3105.1144,-79.7259 3109.7773,-84.9468"/>
</g>
<!-- Node24&#45;&gt;Node10 -->
<g id="edge43" class="edge">
<title>Node24&#45;&gt;Node10</title>
<path fill="none" stroke="#191970" d="M2112.8934,-240.8814C2106.5842,-214.6775 2085.1516,-141.989 2036,-112 1992.9952,-85.7613 1251.1973,-70.8352 1032.9399,-66.9974"/>
<polygon fill="#191970" stroke="#191970" points="1032.7027,-63.4928 1022.6432,-66.8178 1032.5806,-70.4918 1032.7027,-63.4928"/>
</g>
<!-- Node24&#45;&gt;Node21 -->
<g id="edge48" class="edge">
<title>Node24&#45;&gt;Node21</title>
<path fill="none" stroke="#191970" d="M2074.4691,-240.9717C2014.6227,-226.9025 1904.387,-200.9875 1855.0355,-189.3855"/>
<polygon fill="#191970" stroke="#191970" points="1855.7349,-185.9546 1845.1993,-187.0732 1854.1329,-192.7689 1855.7349,-185.9546"/>
</g>
<!-- Node25 -->
<g id="node26" class="node">
<title>Node25</title>
<g id="a_node26"><a xlink:href="_string_8h.html" target="_top" xlink:title="string.h">
<polygon fill="#ffffff" stroke="#000000" points="1977.5,-174 1977.5,-193 2026.5,-193 2026.5,-174 1977.5,-174"/>
<text text-anchor="middle" x="2002" y="-181" font-family="Helvetica,sans-Serif" font-size="10.00" fill="#000000">string.h</text>
</a>
</g>
</g>
<!-- Node24&#45;&gt;Node25 -->
<g id="edge44" class="edge">
<title>Node24&#45;&gt;Node25</title>
<path fill="none" stroke="#191970" d="M2098.8099,-240.9005C2080.0137,-229.7559 2048.7984,-211.2477 2026.9076,-198.2682"/>
<polygon fill="#191970" stroke="#191970" points="2028.5469,-195.1712 2018.1601,-193.0817 2024.9767,-201.1924 2028.5469,-195.1712"/>
</g>
<!-- Node25&#45;&gt;Node6 -->
<g id="edge46" class="edge">
<title>Node25&#45;&gt;Node6</title>
<path fill="none" stroke="#191970" d="M1977.3756,-179.7386C1954.1252,-176.2921 1918.2593,-171.2466 1887,-168 1652.4879,-143.6437 1367.4625,-127.7157 1282.8229,-123.2698"/>
<polygon fill="#191970" stroke="#191970" points="1282.8254,-119.7653 1272.657,-122.7407 1282.4615,-126.7558 1282.8254,-119.7653"/>
</g>
<!-- Node25&#45;&gt;Node8 -->
<g id="edge45" class="edge">
<title>Node25&#45;&gt;Node8</title>
<path fill="none" stroke="#191970" d="M2015.7475,-173.9628C2036.9091,-159.5128 2079.0043,-131.6747 2117,-112 2142.94,-98.5679 2173.6988,-85.8632 2195.9165,-77.2231"/>
<polygon fill="#191970" stroke="#191970" points="2197.3956,-80.4044 2205.4757,-73.5514 2194.8856,-73.8698 2197.3956,-80.4044"/>
</g>
<!-- Node26&#45;&gt;Node4 -->
<g id="edge74" class="edge">
<title>Node26&#45;&gt;Node4</title>
<path fill="none" stroke="#191970" d="M607.0378,-447.4041C478.4413,-439.143 206.2042,-419.5953 168,-400 124.4361,-377.6556 95,-366.46 95,-317.5 95,-317.5 95,-317.5 95,-250.5 95,-186.899 85.1446,-156.0723 131,-112 155.5817,-88.3741 251.735,-75.1003 305.3567,-69.3941"/>
<polygon fill="#191970" stroke="#191970" points="305.8907,-72.8578 315.4801,-68.353 305.1745,-65.8945 305.8907,-72.8578"/>
</g>
<!-- Node26&#45;&gt;Node6 -->
<g id="edge72" class="edge">
<title>Node26&#45;&gt;Node6</title>
<path fill="none" stroke="#191970" d="M739.7265,-436.4903C769.8358,-428.1245 805.3378,-416.0971 835,-400 895.5213,-367.1563 895.7488,-337.0832 955,-302 991.7155,-280.2604 1006.2265,-285.8445 1044,-266 1066.1525,-254.3621 1069.226,-247.3314 1091,-235 1123.1732,-216.7792 1134.9151,-219.0209 1166,-199 1194.0922,-180.9066 1223.1056,-155.2508 1240.8531,-138.6167"/>
<polygon fill="#191970" stroke="#191970" points="1243.329,-141.0922 1248.1708,-131.6685 1238.5091,-136.016 1243.329,-141.0922"/>
</g>
<!-- Node26&#45;&gt;Node8 -->
<g id="edge73" class="edge">
<title>Node26&#45;&gt;Node8</title>
<path fill="none" stroke="#191970" d="M740.6972,-450.494C898.837,-447.5605 1308.7861,-436.7392 1649,-400 1832.1359,-380.2234 1881.3007,-385.0312 2058,-333 2129.6018,-311.916 2162.8735,-322.1956 2212,-266 2256.8119,-214.7398 2241.3162,-125.0458 2231.5116,-85.5807"/>
<polygon fill="#191970" stroke="#191970" points="2234.8819,-84.6349 2228.9519,-75.8551 2228.1124,-86.4166 2234.8819,-84.6349"/>
</g>
<!-- Node26&#45;&gt;Node10 -->
<g id="edge53" class="edge">
<title>Node26&#45;&gt;Node10</title>
<path fill="none" stroke="#191970" d="M607.1235,-449.1723C481.8658,-444.1205 222.0374,-430.1002 195,-400 109.2788,-304.5684 112.0442,-189.8481 214,-112 241.6636,-90.8775 738.9839,-73.3347 913.2632,-67.8117"/>
<polygon fill="#191970" stroke="#191970" points="913.4026,-71.3091 923.2875,-67.496 913.1822,-64.3126 913.4026,-71.3091"/>
</g>
<!-- Node27 -->
<g id="node28" class="node">
<title>Node27</title>
<g id="a_node28"><a xlink:href="_invoker_8h.html" target="_top" xlink:title="uscxml/plugins/Invoker.h">
<polygon fill="#ffffff" stroke="#000000" points="533,-375 533,-394 659,-394 659,-375 533,-375"/>
<text text-anchor="middle" x="596" y="-382" font-family="Helvetica,sans-Serif" font-size="10.00" fill="#000000">uscxml/plugins/Invoker.h</text>
</a>
</g>
</g>
<!-- Node26&#45;&gt;Node27 -->
<g id="edge54" class="edge">
<title>Node26&#45;&gt;Node27</title>
<path fill="none" stroke="#191970" d="M656.3006,-436.2967C643.9119,-425.6551 627.3865,-411.4602 614.7685,-400.6217"/>
<polygon fill="#191970" stroke="#191970" points="616.99,-397.9159 607.1237,-394.055 612.4288,-403.2259 616.99,-397.9159"/>
</g>
<!-- Node29 -->
<g id="node30" class="node">
<title>Node29</title>
<g id="a_node30"><a xlink:href="_i_o_processor_8h.html" target="_top" xlink:title="uscxml/plugins/IOProcessor.h">
<polygon fill="#ffffff" stroke="#000000" points="677.5,-375 677.5,-394 826.5,-394 826.5,-375 677.5,-375"/>
<text text-anchor="middle" x="752" y="-382" font-family="Helvetica,sans-Serif" font-size="10.00" fill="#000000">uscxml/plugins/IOProcessor.h</text>
</a>
</g>
</g>
<!-- Node26&#45;&gt;Node29 -->
<g id="edge63" class="edge">
<title>Node26&#45;&gt;Node29</title>
<path fill="none" stroke="#191970" d="M691.6994,-436.2967C704.0881,-425.6551 720.6135,-411.4602 733.2315,-400.6217"/>
<polygon fill="#191970" stroke="#191970" points="735.5712,-403.2259 740.8763,-394.055 731.01,-397.9159 735.5712,-403.2259"/>
</g>
<!-- Node30 -->
<g id="node31" class="node">
<title>Node30</title>
<g id="a_node31"><a xlink:href="_logging_8h.html" target="_top" xlink:title="uscxml/interpreter\l/Logging.h">
<polygon fill="#ffffff" stroke="#000000" points="408,-302.5 408,-332.5 504,-332.5 504,-302.5 408,-302.5"/>
<text text-anchor="start" x="416" y="-320.5" font-family="Helvetica,sans-Serif" font-size="10.00" fill="#000000">uscxml/interpreter</text>
<text text-anchor="middle" x="456" y="-309.5" font-family="Helvetica,sans-Serif" font-size="10.00" fill="#000000">/Logging.h</text>
</a>
</g>
</g>
<!-- Node26&#45;&gt;Node30 -->
<g id="edge67" class="edge">
<title>Node26&#45;&gt;Node30</title>
<path fill="none" stroke="#191970" d="M607.1983,-437.08C579.8043,-429.0794 548.7794,-417.1748 524,-400 501.5821,-384.462 482.4944,-359.5776 470.3007,-341.1971"/>
<polygon fill="#191970" stroke="#191970" points="473.2339,-339.2875 464.8841,-332.7659 467.3446,-343.0711 473.2339,-339.2875"/>
</g>
<!-- Node27&#45;&gt;Node10 -->
<g id="edge55" class="edge">
<title>Node27&#45;&gt;Node10</title>
<path fill="none" stroke="#191970" d="M541.9257,-374.9947C480.3762,-363.6995 386.7877,-344.8907 375,-333 323.3563,-280.9052 340.0425,-234.5024 371,-168 384.8342,-138.2816 389.8112,-126.9191 419,-112 462.1861,-89.9266 779.1214,-74.1563 913.2795,-68.3999"/>
<polygon fill="#191970" stroke="#191970" points="913.5423,-71.892 923.3846,-67.9705 913.245,-64.8983 913.5423,-71.892"/>
</g>
<!-- Node27&#45;&gt;Node14 -->
<g id="edge62" class="edge">
<title>Node27&#45;&gt;Node14</title>
<path fill="none" stroke="#191970" d="M634.6613,-374.9814C645.3964,-372.6657 657.0988,-370.443 668,-369 823.0743,-348.4731 1225.0308,-389.2351 1371,-333 1391.3388,-325.1644 1390.0803,-312.8216 1409,-302 1438.5451,-285.1009 1474.6626,-271.9173 1502.6756,-263.1205"/>
<polygon fill="#191970" stroke="#191970" points="1504.0663,-266.3551 1512.6024,-260.0793 1502.0158,-259.6622 1504.0663,-266.3551"/>
</g>
<!-- Node28 -->
<g id="node29" class="node">
<title>Node28</title>
<g id="a_node29"><a xlink:href="_event_handler_8h.html" target="_top" xlink:title="uscxml/plugins/EventHandler.h">
<polygon fill="#ffffff" stroke="#000000" points="673,-308 673,-327 827,-327 827,-308 673,-308"/>
<text text-anchor="middle" x="750" y="-315" font-family="Helvetica,sans-Serif" font-size="10.00" fill="#000000">uscxml/plugins/EventHandler.h</text>
</a>
</g>
</g>
<!-- Node27&#45;&gt;Node28 -->
<g id="edge56" class="edge">
<title>Node27&#45;&gt;Node28</title>
<path fill="none" stroke="#191970" d="M618.0644,-374.9005C644.3665,-363.4574 688.5128,-344.2509 718.4245,-331.2374"/>
<polygon fill="#191970" stroke="#191970" points="720.203,-334.2806 727.9765,-327.0817 717.4104,-327.8617 720.203,-334.2806"/>
</g>
<!-- Node28&#45;&gt;Node4 -->
<g id="edge61" class="edge">
<title>Node28&#45;&gt;Node4</title>
<path fill="none" stroke="#191970" d="M672.951,-312.264C589.7532,-305.4173 463.6591,-291.2172 423,-266 360.9596,-227.5219 350.1561,-201.5607 328,-132 323.0631,-116.5004 327.6026,-98.3945 332.7897,-85.0712"/>
<polygon fill="#191970" stroke="#191970" points="336.1501,-86.1197 336.9199,-75.5528 329.7285,-83.3332 336.1501,-86.1197"/>
</g>
<!-- Node28&#45;&gt;Node6 -->
<g id="edge59" class="edge">
<title>Node28&#45;&gt;Node6</title>
<path fill="none" stroke="#191970" d="M803.3039,-307.976C873.001,-295.3448 988.4438,-273.7447 1007,-266 1029.7516,-256.5043 1031.5462,-247.1464 1053,-235 1085.8746,-216.3875 1097.4239,-218.1301 1130,-199 1150.3158,-187.0697 1153.0431,-180.5214 1173,-168 1192.9608,-155.4761 1216.6016,-142.8496 1233.8776,-134.002"/>
<polygon fill="#191970" stroke="#191970" points="1235.9,-136.901 1243.2381,-129.2588 1232.7359,-130.6569 1235.9,-136.901"/>
</g>
<!-- Node28&#45;&gt;Node8 -->
<g id="edge60" class="edge">
<title>Node28&#45;&gt;Node8</title>
<path fill="none" stroke="#191970" d="M827.4443,-315.3126C931.7232,-311.1651 1122.5957,-299.33 1282,-266 1419.298,-237.2923 1446.7262,-205.0926 1582,-168 1692.2294,-137.7747 1720.3112,-131.1136 1833,-112 1967.0862,-89.2571 2128.8241,-74.1793 2195.2509,-68.5129"/>
<polygon fill="#191970" stroke="#191970" points="2195.7668,-71.982 2205.4375,-67.6544 2195.1788,-65.0067 2195.7668,-71.982"/>
</g>
<!-- Node28&#45;&gt;Node10 -->
<g id="edge57" class="edge">
<title>Node28&#45;&gt;Node10</title>
<path fill="none" stroke="#191970" d="M710.5373,-307.9853C635.1382,-287.9637 482.7136,-237.5287 537,-168 582.8826,-109.2347 804.7797,-81.2683 913.1689,-70.9385"/>
<polygon fill="#191970" stroke="#191970" points="913.6626,-74.4077 923.2941,-69.9934 913.0121,-67.438 913.6626,-74.4077"/>
</g>
<!-- Node28&#45;&gt;Node14 -->
<g id="edge58" class="edge">
<title>Node28&#45;&gt;Node14</title>
<path fill="none" stroke="#191970" d="M827.0003,-311.7694C947.3932,-302.7066 1187.5066,-284.2182 1391,-266 1417.1305,-263.6606 1445.6864,-260.9019 1471.1946,-258.3651"/>
<polygon fill="#191970" stroke="#191970" points="1471.5761,-261.8446 1481.1788,-257.3682 1470.8805,-254.8792 1471.5761,-261.8446"/>
</g>
<!-- Node29&#45;&gt;Node10 -->
<g id="edge64" class="edge">
<title>Node29&#45;&gt;Node10</title>
<path fill="none" stroke="#191970" d="M702.7669,-374.9944C691.3695,-372.9109 679.2769,-370.7939 668,-369 608.4382,-359.5251 438.7171,-378.3865 399,-333 332.9893,-257.5666 366.6676,-175.7755 444,-112 479.5318,-82.6972 781.9437,-71.1122 912.9212,-67.4394"/>
<polygon fill="#191970" stroke="#191970" points="913.2761,-70.9311 923.1764,-67.1583 913.0842,-63.9338 913.2761,-70.9311"/>
</g>
<!-- Node29&#45;&gt;Node14 -->
<g id="edge66" class="edge">
<title>Node29&#45;&gt;Node14</title>
<path fill="none" stroke="#191970" d="M826.5622,-379.8515C992.9987,-369.3123 1382.3346,-343.6895 1409,-333 1429.2309,-324.8899 1428.7437,-313.9067 1447,-302 1469.3447,-287.4269 1496.3396,-273.8494 1516.7976,-264.298"/>
<polygon fill="#191970" stroke="#191970" points="1518.358,-267.4329 1525.9812,-260.075 1515.4334,-261.073 1518.358,-267.4329"/>
</g>
<!-- Node29&#45;&gt;Node28 -->
<g id="edge65" class="edge">
<title>Node29&#45;&gt;Node28</title>
<path fill="none" stroke="#191970" d="M751.7134,-374.9005C751.4224,-365.149 750.963,-349.7597 750.5931,-337.3695"/>
<polygon fill="#191970" stroke="#191970" points="754.0829,-336.9727 750.286,-327.0817 747.086,-337.1817 754.0829,-336.9727"/>
</g>
<!-- Node30&#45;&gt;Node4 -->
<g id="edge71" class="edge">
<title>Node30&#45;&gt;Node4</title>
<path fill="none" stroke="#191970" d="M407.7721,-306.1376C333.6344,-285.7349 194.3399,-235.0476 138,-132 133.7358,-124.2007 132.4488,-118.9424 138,-112 158.5656,-86.2807 252.4214,-73.9133 305.371,-68.8897"/>
<polygon fill="#191970" stroke="#191970" points="305.739,-72.3708 315.3817,-67.9811 305.1062,-65.3994 305.739,-72.3708"/>
</g>
<!-- Node30&#45;&gt;Node10 -->
<g id="edge68" class="edge">
<title>Node30&#45;&gt;Node10</title>
<path fill="none" stroke="#191970" d="M450.468,-302.3629C437.7348,-264.5646 411.106,-165.2621 461,-112 491.4081,-79.5392 784.9338,-69.7396 913.3499,-66.992"/>
<polygon fill="#191970" stroke="#191970" points="913.4856,-70.4901 923.4111,-66.784 913.3408,-63.4916 913.4856,-70.4901"/>
</g>
<!-- Node30&#45;&gt;Node14 -->
<g id="edge70" class="edge">
<title>Node30&#45;&gt;Node14</title>
<path fill="none" stroke="#191970" d="M504.3174,-313.6767C546.4638,-310.395 609.2604,-305.6337 664,-302 938.5281,-283.7764 1007.3335,-282.0025 1282,-266 1345.7752,-262.2844 1418.1513,-258.0669 1471.2896,-254.9703"/>
<polygon fill="#191970" stroke="#191970" points="1471.5372,-258.4619 1481.3166,-254.386 1471.1299,-251.4738 1471.5372,-258.4619"/>
</g>
<!-- Node30&#45;&gt;Node15 -->
<g id="edge69" class="edge">
<title>Node30&#45;&gt;Node15</title>
<path fill="none" stroke="#191970" d="M504.052,-313.5666C628.1048,-303.2964 950.9254,-275.7925 972,-266 1003.052,-251.5715 1029.6678,-221.0131 1044.4827,-201.4097"/>
<polygon fill="#191970" stroke="#191970" points="1047.3564,-203.4094 1050.4327,-193.2709 1041.7055,-199.2781 1047.3564,-203.4094"/>
</g>
<!-- Node31&#45;&gt;Node10 -->
<g id="edge76" class="edge">
<title>Node31&#45;&gt;Node10</title>
<path fill="none" stroke="#191970" d="M382.5724,-369.3402C370.1881,-360.3353 356.0927,-347.7902 348,-333 300.0865,-245.4332 302.997,-164.3273 388,-112 431.9586,-84.9394 772.9937,-71.8941 913.1545,-67.6337"/>
<polygon fill="#191970" stroke="#191970" points="913.4011,-71.1279 923.2919,-67.3302 913.1916,-64.1311 913.4011,-71.1279"/>
</g>
<!-- Node31&#45;&gt;Node14 -->
<g id="edge79" class="edge">
<title>Node31&#45;&gt;Node14</title>
<path fill="none" stroke="#191970" d="M477.1106,-374.1961C492.5296,-372.214 508.794,-370.3409 524,-369 614.1829,-361.0475 1254.5848,-368.1866 1338,-333 1356.541,-325.1789 1353.5233,-311.9752 1371,-302 1392.5767,-289.6846 1453.0848,-273.3648 1497.3662,-262.4276"/>
<polygon fill="#191970" stroke="#191970" points="1498.2298,-265.8196 1507.1109,-260.0424 1496.5655,-259.0203 1498.2298,-265.8196"/>
</g>
<!-- Node31&#45;&gt;Node28 -->
<g id="edge77" class="edge">
<title>Node31&#45;&gt;Node28</title>
<path fill="none" stroke="#191970" d="M477.2389,-370.7799C540.3253,-358.4569 631.8929,-340.5705 691.1977,-328.9862"/>
<polygon fill="#191970" stroke="#191970" points="692.0111,-332.3935 701.1546,-327.0412 690.6691,-325.5233 692.0111,-332.3935"/>
</g>
<!-- Node31&#45;&gt;Node30 -->
<g id="edge78" class="edge">
<title>Node31&#45;&gt;Node30</title>
<path fill="none" stroke="#191970" d="M418.1189,-369.2967C424.2585,-360.9016 432.0154,-350.2952 438.9086,-340.8698"/>
<polygon fill="#191970" stroke="#191970" points="441.847,-342.781 444.9251,-332.6432 436.1968,-338.6488 441.847,-342.781"/>
</g>
<!-- Node32&#45;&gt;Node2 -->
<g id="edge81" class="edge">
<title>Node32&#45;&gt;Node2</title>
<path fill="none" stroke="#191970" d="M1405.8505,-374.9375C1454.8575,-365.1489 1532.412,-349.1256 1599,-333 1603.3217,-331.9534 1607.8146,-330.8167 1612.2967,-329.6504"/>
<polygon fill="#191970" stroke="#191970" points="1613.2512,-333.0184 1622.021,-327.0735 1611.4581,-326.2519 1613.2512,-333.0184"/>
</g>
<!-- Node32&#45;&gt;Node10 -->
<g id="edge82" class="edge">
<title>Node32&#45;&gt;Node10</title>
<path fill="none" stroke="#191970" d="M1284.2146,-377.3386C1183.6915,-367.1154 1007.673,-347.9242 945,-333 923.4783,-327.8751 582.7427,-217.0851 570,-199 562.0643,-187.7372 561.5501,-178.8824 570,-168 591.1984,-140.6989 806.3444,-97.1393 913.2968,-76.9426"/>
<polygon fill="#191970" stroke="#191970" points="914.1179,-80.3496 923.2992,-75.0624 912.8247,-73.4701 914.1179,-80.3496"/>
</g>
<!-- Node32&#45;&gt;Node14 -->
<g id="edge84" class="edge">
<title>Node32&#45;&gt;Node14</title>
<path fill="none" stroke="#191970" d="M1395.301,-374.9571C1422.2799,-366.9046 1458.2198,-353.3827 1485,-333 1507.9743,-315.514 1526.8666,-287.6038 1537.7885,-269.1646"/>
<polygon fill="#191970" stroke="#191970" points="1540.957,-270.6744 1542.8824,-260.256 1534.8802,-267.1998 1540.957,-270.6744"/>
</g>
<!-- Node32&#45;&gt;Node21 -->
<g id="edge85" class="edge">
<title>Node32&#45;&gt;Node21</title>
<path fill="none" stroke="#191970" d="M1390.2039,-374.9266C1422.2786,-365.3711 1472.0331,-349.7345 1514,-333 1625.483,-288.5457 1753.2945,-223.5611 1805.6828,-196.2917"/>
<polygon fill="#191970" stroke="#191970" points="1807.6042,-199.2368 1814.8475,-191.5048 1804.3634,-193.0322 1807.6042,-199.2368"/>
</g>
<!-- Node32&#45;&gt;Node28 -->
<g id="edge83" class="edge">
<title>Node32&#45;&gt;Node28</title>
<path fill="none" stroke="#191970" d="M1284.3845,-376.4848C1172.4726,-364.1321 958.2051,-340.4815 837.7681,-327.1878"/>
<polygon fill="#191970" stroke="#191970" points="837.8051,-323.6707 827.4815,-326.0523 837.0371,-330.6284 837.8051,-323.6707"/>
</g>
<!-- Node33&#45;&gt;Node6 -->
<g id="edge87" class="edge">
<title>Node33&#45;&gt;Node6</title>
<path fill="none" stroke="#191970" d="M1987.873,-445.2483C1964.4022,-442.284 1935.7462,-438.7899 1910,-436 1739.5826,-417.5336 1693.4286,-436.753 1526,-400 1485.4974,-391.1091 1478.3893,-378.3921 1438,-369 1371.9552,-353.6421 1180.0296,-383.6963 1135,-333 1112.8784,-308.0946 1151.6025,-245.9776 1162,-235 1187.9784,-207.5723 1215.0204,-228.1914 1239,-199 1252.2082,-182.921 1256.4433,-158.992 1257.6966,-142.0847"/>
<polygon fill="#191970" stroke="#191970" points="1261.2113,-141.8305 1258.1615,-131.6841 1254.2183,-141.5178 1261.2113,-141.8305"/>
</g>
<!-- Node33&#45;&gt;Node8 -->
<g id="edge89" class="edge">
<title>Node33&#45;&gt;Node8</title>
<path fill="none" stroke="#191970" d="M2084.048,-450.3885C2287.5454,-445.0569 3068,-418.0545 3068,-317.5 3068,-317.5 3068,-317.5 3068,-250.5 3068,-186.6696 3079.6294,-152.1403 3030,-112 2999.4081,-87.2572 2400.8081,-70.4572 2256.9097,-66.7658"/>
<polygon fill="#191970" stroke="#191970" points="2256.6927,-63.2592 2246.607,-66.504 2256.5149,-70.257 2256.6927,-63.2592"/>
</g>
<!-- Node33&#45;&gt;Node10 -->
<g id="edge90" class="edge">
<title>Node33&#45;&gt;Node10</title>
<path fill="none" stroke="#191970" d="M2034.1394,-436.4158C2031.5458,-419.2507 2025.7697,-390.7782 2014,-369 1994.9951,-333.8341 1987.0754,-324.4466 1954,-302 1915.6054,-275.9435 1899.1319,-283.1091 1856,-266 1693.857,-201.6829 1664.2009,-154.4043 1495,-112 1408.91,-90.4246 1150.8292,-75.0163 1032.9322,-68.9073"/>
<polygon fill="#191970" stroke="#191970" points="1032.8154,-65.3968 1022.6491,-68.3796 1032.4566,-72.3876 1032.8154,-65.3968"/>
</g>
<!-- Node33&#45;&gt;Node14 -->
<g id="edge120" class="edge">
<title>Node33&#45;&gt;Node14</title>
<path fill="none" stroke="#191970" d="M2029.2553,-436.0248C2014.7276,-404.7443 1977.2595,-334.235 1922,-302 1896.8903,-287.3526 1726.971,-268.2738 1625.006,-257.9398"/>
<polygon fill="#191970" stroke="#191970" points="1625.0501,-254.4266 1614.7496,-256.9066 1624.3484,-261.3914 1625.0501,-254.4266"/>
</g>
<!-- Node33&#45;&gt;Node21 -->
<g id="edge88" class="edge">
<title>Node33&#45;&gt;Node21</title>
<path fill="none" stroke="#191970" d="M2058.1114,-436.3604C2069.3456,-427.2809 2081.8866,-414.6588 2088,-400 2105.0773,-359.0517 2101.6327,-332.0583 2069,-302 2008.0307,-245.8408 1955.1382,-311.7277 1886,-266 1873.6669,-257.8429 1852.8559,-223.8333 1840.3744,-202.1079"/>
<polygon fill="#191970" stroke="#191970" points="1843.261,-200.1026 1835.2862,-193.1274 1837.1706,-203.5533 1843.261,-200.1026"/>
</g>
<!-- Node34 -->
<g id="node35" class="node">
<title>Node34</title>
<g id="a_node35"><a xlink:href="_interpreter_8h.html" target="_top" xlink:title="uscxml/Interpreter.h">
<polygon fill="#ffffff" stroke="#000000" points="1535.5,-375 1535.5,-394 1640.5,-394 1640.5,-375 1535.5,-375"/>
<text text-anchor="middle" x="1588" y="-382" font-family="Helvetica,sans-Serif" font-size="10.00" fill="#000000">uscxml/Interpreter.h</text>
</a>
</g>
</g>
<!-- Node33&#45;&gt;Node34 -->
<g id="edge91" class="edge">
<title>Node33&#45;&gt;Node34</title>
<path fill="none" stroke="#191970" d="M1987.6305,-444.2662C1906.0421,-432.0643 1741.1463,-407.4036 1650.7614,-393.8862"/>
<polygon fill="#191970" stroke="#191970" points="1651.06,-390.392 1640.6522,-392.3743 1650.0245,-397.315 1651.06,-390.392"/>
</g>
<!-- Node34&#45;&gt;Node7 -->
<g id="edge93" class="edge">
<title>Node34&#45;&gt;Node7</title>
<path fill="none" stroke="#191970" d="M1640.5622,-382.1514C1754.5741,-376.5933 2021.2348,-360.9582 2107,-333 2222.8634,-295.2302 2326.451,-183.2866 2363.5181,-139.6734"/>
<polygon fill="#191970" stroke="#191970" points="2366.2884,-141.8168 2370.0286,-131.9041 2360.9231,-137.3208 2366.2884,-141.8168"/>
</g>
<!-- Node34&#45;&gt;Node8 -->
<g id="edge94" class="edge">
<title>Node34&#45;&gt;Node8</title>
<path fill="none" stroke="#191970" d="M1640.5959,-380.4444C1715.6772,-373.9956 1857.6038,-359.3555 1976,-333 2024.2274,-322.2644 2155.1906,-302.9415 2188,-266 2233.7131,-214.5297 2231.8631,-125.6065 2228.3633,-86.0157"/>
<polygon fill="#191970" stroke="#191970" points="2231.8198,-85.4101 2227.3228,-75.817 2224.8559,-86.1207 2231.8198,-85.4101"/>
</g>
<!-- Node34&#45;&gt;Node10 -->
<g id="edge92" class="edge">
<title>Node34&#45;&gt;Node10</title>
<path fill="none" stroke="#191970" d="M1535.4677,-377.3563C1515.5904,-374.6859 1492.758,-371.6577 1472,-369 1406.7116,-360.6411 1221.6227,-382.29 1178,-333 1123.1071,-270.9756 1238.8088,-313.6855 1282,-266 1328.2963,-214.8864 1346.2516,-164.0408 1301,-112 1283.6748,-92.0755 1122.3695,-77.0625 1032.6041,-70.1695"/>
<polygon fill="#191970" stroke="#191970" points="1032.7924,-66.6739 1022.5567,-69.409 1032.2639,-73.6539 1032.7924,-66.6739"/>
</g>
<!-- Node34&#45;&gt;Node24 -->
<g id="edge111" class="edge">
<title>Node34&#45;&gt;Node24</title>
<path fill="none" stroke="#191970" d="M1640.6526,-380.4905C1707.2115,-374.4921 1824.8317,-360.7803 1922,-333 1983.4294,-315.4374 2051.2455,-283.233 2087.8849,-264.6811"/>
<polygon fill="#191970" stroke="#191970" points="2089.6231,-267.7234 2096.9337,-260.0548 2086.4366,-261.4907 2089.6231,-267.7234"/>
</g>
<!-- Node34&#45;&gt;Node30 -->
<g id="edge104" class="edge">
<title>Node34&#45;&gt;Node30</title>
<path fill="none" stroke="#191970" d="M1535.3065,-378.3199C1506.5775,-375.1359 1470.373,-371.4235 1438,-369 1094.5891,-343.2914 1007.7433,-353.7977 664,-333 613.4113,-329.9392 555.9667,-325.5922 514.2837,-322.2803"/>
<polygon fill="#191970" stroke="#191970" points="514.5542,-318.7908 504.3073,-321.4835 513.9969,-325.7686 514.5542,-318.7908"/>
</g>
<!-- Node35 -->
<g id="node36" class="node">
<title>Node35</title>
<polygon fill="#ffffff" stroke="#bfbfbf" points="1717,-308 1717,-327 1761,-327 1761,-308 1717,-308"/>
<text text-anchor="middle" x="1739" y="-315" font-family="Helvetica,sans-Serif" font-size="10.00" fill="#000000">vector</text>
</g>
<!-- Node34&#45;&gt;Node35 -->
<g id="edge95" class="edge">
<title>Node34&#45;&gt;Node35</title>
<path fill="none" stroke="#191970" d="M1610.941,-374.9143C1635,-364.7817 1673.8476,-348.1945 1707,-333 1708.0101,-332.5371 1709.0364,-332.0626 1710.0715,-331.5805"/>
<polygon fill="#191970" stroke="#191970" points="1711.896,-334.5889 1719.4317,-327.1415 1708.8965,-328.2641 1711.896,-334.5889"/>
</g>
<!-- Node36 -->
<g id="node37" class="node">
<title>Node36</title>
<g id="a_node37"><a xlink:href="_micro_step_8h.html" target="_top" xlink:title="uscxml/interpreter\l/MicroStep.h">
<polygon fill="#ffffff" stroke="#000000" points="867,-235.5 867,-265.5 963,-265.5 963,-235.5 867,-235.5"/>
<text text-anchor="start" x="875" y="-253.5" font-family="Helvetica,sans-Serif" font-size="10.00" fill="#000000">uscxml/interpreter</text>
<text text-anchor="middle" x="915" y="-242.5" font-family="Helvetica,sans-Serif" font-size="10.00" fill="#000000">/MicroStep.h</text>
</a>
</g>
</g>
<!-- Node34&#45;&gt;Node36 -->
<g id="edge96" class="edge">
<title>Node34&#45;&gt;Node36</title>
<path fill="none" stroke="#191970" d="M1535.2153,-378.8492C1419.9066,-366.4572 1154.2397,-337.6265 1135,-333 1071.0263,-317.6165 1000.3294,-288.866 956.7792,-269.7004"/>
<polygon fill="#191970" stroke="#191970" points="957.9385,-266.3857 947.3786,-265.5263 955.0978,-272.7834 957.9385,-266.3857"/>
</g>
<!-- Node37 -->
<g id="node38" class="node">
<title>Node37</title>
<g id="a_node38"><a xlink:href="_interpreter_state_8h.html" target="_top" xlink:title="uscxml/interpreter\l/InterpreterState.h">
<polygon fill="#ffffff" stroke="#000000" points="579.5,-168.5 579.5,-198.5 676.5,-198.5 676.5,-168.5 579.5,-168.5"/>
<text text-anchor="start" x="587.5" y="-186.5" font-family="Helvetica,sans-Serif" font-size="10.00" fill="#000000">uscxml/interpreter</text>
<text text-anchor="middle" x="628" y="-175.5" font-family="Helvetica,sans-Serif" font-size="10.00" fill="#000000">/InterpreterState.h</text>
</a>
</g>
</g>
<!-- Node34&#45;&gt;Node37 -->
<g id="edge119" class="edge">
<title>Node34&#45;&gt;Node37</title>
<path fill="none" stroke="#191970" d="M1535.26,-378.8639C1506.5174,-375.8393 1470.3147,-372.1056 1438,-369 1258.1191,-351.7123 1209.0677,-373.6959 1033,-333 1012.714,-328.3111 876.3203,-275.8931 858,-266 837.2697,-254.8055 836.28,-245.1106 815,-235 762.2372,-209.9313 742.4737,-214.9983 686.2513,-200.3686"/>
<polygon fill="#191970" stroke="#191970" points="687.0777,-196.9664 676.5107,-197.7336 685.2497,-203.7235 687.0777,-196.9664"/>
</g>
<!-- Node38 -->
<g id="node39" class="node">
<title>Node38</title>
<g id="a_node39"><a xlink:href="_data_model_8h.html" target="_top" xlink:title="uscxml/plugins/DataModel.h">
<polygon fill="#ffffff" stroke="#000000" points="1187,-308 1187,-327 1329,-327 1329,-308 1187,-308"/>
<text text-anchor="middle" x="1258" y="-315" font-family="Helvetica,sans-Serif" font-size="10.00" fill="#000000">uscxml/plugins/DataModel.h</text>
</a>
</g>
</g>
<!-- Node34&#45;&gt;Node38 -->
<g id="edge105" class="edge">
<title>Node34&#45;&gt;Node38</title>
<path fill="none" stroke="#191970" d="M1541.0695,-374.9717C1481.5296,-362.8833 1378.9163,-342.0497 1314.9563,-329.0638"/>
<polygon fill="#191970" stroke="#191970" points="1315.5319,-325.6094 1305.0355,-327.0496 1314.1391,-332.4694 1315.5319,-325.6094"/>
</g>
<!-- Node39 -->
<g id="node40" class="node">
<title>Node39</title>
<g id="a_node40"><a xlink:href="_content_executor_8h.html" target="_top" xlink:title="uscxml/interpreter\l/ContentExecutor.h">
<polygon fill="#ffffff" stroke="#000000" points="1171,-235.5 1171,-265.5 1273,-265.5 1273,-235.5 1171,-235.5"/>
<text text-anchor="start" x="1179" y="-253.5" font-family="Helvetica,sans-Serif" font-size="10.00" fill="#000000">uscxml/interpreter</text>
<text text-anchor="middle" x="1222" y="-242.5" font-family="Helvetica,sans-Serif" font-size="10.00" fill="#000000">/ContentExecutor.h</text>
</a>
</g>
</g>
<!-- Node34&#45;&gt;Node39 -->
<g id="edge112" class="edge">
<title>Node34&#45;&gt;Node39</title>
<path fill="none" stroke="#191970" d="M1535.4846,-377.2206C1515.6093,-374.5346 1492.7738,-371.5311 1472,-369 1399.4309,-360.1582 1193.7832,-387.4486 1145,-333 1125.6529,-311.406 1154.4037,-287.2094 1182.11,-270.635"/>
<polygon fill="#191970" stroke="#191970" points="1184.072,-273.5446 1191.0066,-265.5344 1180.5904,-267.4718 1184.072,-273.5446"/>
</g>
<!-- Node34&#45;&gt;Node40 -->
<g id="edge116" class="edge">
<title>Node34&#45;&gt;Node40</title>
<path fill="none" stroke="#191970" d="M1627.3932,-374.9717C1674.3579,-363.612 1753.2506,-344.5296 1807.1436,-331.4942"/>
<polygon fill="#191970" stroke="#191970" points="1808.0055,-334.8867 1816.9023,-329.1337 1806.3597,-328.0829 1808.0055,-334.8867"/>
</g>
<!-- Node36&#45;&gt;Node4 -->
<g id="edge97" class="edge">
<title>Node36&#45;&gt;Node4</title>
<path fill="none" stroke="#191970" d="M866.8579,-238.0851C816.0454,-224.8359 741.5693,-204.9472 729,-199 707.3767,-188.7688 706.5255,-178.4354 685,-168 579.6197,-116.9123 443.4542,-85.7558 378.9795,-72.8783"/>
<polygon fill="#191970" stroke="#191970" points="379.3829,-69.3907 368.8957,-70.8972 378.0334,-76.2594 379.3829,-69.3907"/>
</g>
<!-- Node36&#45;&gt;Node6 -->
<g id="edge98" class="edge">
<title>Node36&#45;&gt;Node6</title>
<path fill="none" stroke="#191970" d="M923.0037,-235.4613C934.0178,-216.3784 955.7371,-184.0241 984,-168 1072.8611,-117.6187 1110.5645,-150.6355 1211,-132 1218.2745,-130.6502 1226.1495,-129.0355 1233.3359,-127.5014"/>
<polygon fill="#191970" stroke="#191970" points="1234.194,-130.8967 1243.222,-125.3517 1232.7066,-124.0565 1234.194,-130.8967"/>
</g>
<!-- Node36&#45;&gt;Node8 -->
<g id="edge99" class="edge">
<title>Node36&#45;&gt;Node8</title>
<path fill="none" stroke="#191970" d="M963.1001,-238.9098C1089.4297,-208.6277 1428.7484,-128.352 1543,-112 1793.0665,-76.2098 2098.7347,-68.1405 2195.2744,-66.4324"/>
<polygon fill="#191970" stroke="#191970" points="2195.5489,-69.9284 2205.4891,-66.2621 2195.4321,-62.9294 2195.5489,-69.9284"/>
</g>
<!-- Node36&#45;&gt;Node10 -->
<g id="edge100" class="edge">
<title>Node36&#45;&gt;Node10</title>
<path fill="none" stroke="#191970" d="M916.804,-235.4973C920.2567,-209.5887 929.0121,-155.096 946,-112 949.7997,-102.3606 955.4358,-92.36 960.5772,-84.1553"/>
<polygon fill="#191970" stroke="#191970" points="963.5149,-86.0577 966.0474,-75.77 957.6522,-82.2331 963.5149,-86.0577"/>
</g>
<!-- Node36&#45;&gt;Node15 -->
<g id="edge101" class="edge">
<title>Node36&#45;&gt;Node15</title>
<path fill="none" stroke="#191970" d="M946.8676,-235.4639C971.0153,-224.0702 1003.9457,-208.5327 1027.4939,-197.4219"/>
<polygon fill="#191970" stroke="#191970" points="1029.0951,-200.5365 1036.6454,-193.1039 1026.108,-194.2058 1029.0951,-200.5365"/>
</g>
<!-- Node36&#45;&gt;Node37 -->
<g id="edge102" class="edge">
<title>Node36&#45;&gt;Node37</title>
<path fill="none" stroke="#191970" d="M866.9666,-238.3592C862.2513,-237.2072 857.5353,-236.0706 853,-235 781.2167,-218.0543 762.8148,-215.8115 691,-199 689.5606,-198.663 688.1031,-198.3199 686.6333,-197.972"/>
<polygon fill="#191970" stroke="#191970" points="687.3526,-194.5454 676.8128,-195.6248 685.7252,-201.3537 687.3526,-194.5454"/>
</g>
<!-- Node37&#45;&gt;Node10 -->
<g id="edge103" class="edge">
<title>Node37&#45;&gt;Node10</title>
<path fill="none" stroke="#191970" d="M676.7577,-168.3888C708.7605,-158.351 751.4814,-144.7252 789,-132 840.8505,-114.4138 900.4251,-92.781 937.3954,-79.1865"/>
<polygon fill="#191970" stroke="#191970" points="939.0246,-82.3164 947.1984,-75.5754 936.6049,-75.7479 939.0246,-82.3164"/>
</g>
<!-- Node38&#45;&gt;Node4 -->
<g id="edge110" class="edge">
<title>Node38&#45;&gt;Node4</title>
<path fill="none" stroke="#191970" d="M1186.8108,-314.8797C1058.9617,-308.1018 783.8607,-284.0033 570,-199 489.1796,-166.8763 402.8832,-109.2859 363.6486,-81.6432"/>
<polygon fill="#191970" stroke="#191970" points="365.3257,-78.5412 355.147,-75.601 361.2705,-84.247 365.3257,-78.5412"/>
</g>
<!-- Node38&#45;&gt;Node6 -->
<g id="edge108" class="edge">
<title>Node38&#45;&gt;Node6</title>
<path fill="none" stroke="#191970" d="M1264.1534,-307.7057C1270.0644,-297.6739 1278.5858,-281.409 1282,-266 1286.4222,-246.0417 1278.8922,-175.97 1277,-168 1274.8108,-158.7787 1271.0095,-149.0146 1267.3795,-140.8657"/>
<polygon fill="#191970" stroke="#191970" points="1270.4307,-139.1294 1263.0073,-131.5701 1264.0964,-142.1088 1270.4307,-139.1294"/>
</g>
<!-- Node38&#45;&gt;Node8 -->
<g id="edge109" class="edge">
<title>Node38&#45;&gt;Node8</title>
<path fill="none" stroke="#191970" d="M1306.367,-307.9944C1342.0634,-299.8323 1391.1534,-286.1587 1431,-266 1451.3844,-255.6873 1451.5794,-245.2409 1472,-235 1518.0467,-211.9077 1868.5265,-122.2947 1919,-112 2019.2497,-91.5529 2139.6442,-76.1349 2195.1746,-69.5317"/>
<polygon fill="#191970" stroke="#191970" points="2195.8682,-72.9743 2205.3907,-68.3297 2195.0502,-66.0223 2195.8682,-72.9743"/>
</g>
<!-- Node38&#45;&gt;Node10 -->
<g id="edge106" class="edge">
<title>Node38&#45;&gt;Node10</title>
<path fill="none" stroke="#191970" d="M1297.7772,-307.9943C1347.5217,-293.7335 1430.5711,-261.5316 1467,-199 1488.2396,-162.5414 1465.243,-133.6054 1429,-112 1395.7038,-92.1512 1148.8762,-75.8665 1032.8927,-69.2209"/>
<polygon fill="#191970" stroke="#191970" points="1032.9405,-65.7181 1022.7583,-68.6457 1032.5438,-72.7068 1032.9405,-65.7181"/>
</g>
<!-- Node38&#45;&gt;Node14 -->
<g id="edge107" class="edge">
<title>Node38&#45;&gt;Node14</title>
<path fill="none" stroke="#191970" d="M1299.242,-307.9717C1351.1681,-295.975 1440.3748,-275.3651 1496.6631,-262.3606"/>
<polygon fill="#191970" stroke="#191970" points="1497.4753,-265.7652 1506.4308,-260.1039 1495.8996,-258.9449 1497.4753,-265.7652"/>
</g>
<!-- Node39&#45;&gt;Node8 -->
<g id="edge115" class="edge">
<title>Node39&#45;&gt;Node8</title>
<path fill="none" stroke="#191970" d="M1273.1606,-236.5623C1306.9412,-226.9563 1352.0024,-213.3703 1391,-199 1402.3695,-194.8104 1579.2342,-114.8956 1591,-112 1707.7244,-83.2732 2084.4978,-70.1545 2195.1643,-66.8588"/>
<polygon fill="#191970" stroke="#191970" points="2195.4217,-70.3529 2205.3151,-66.5621 2195.2171,-63.3559 2195.4217,-70.3529"/>
</g>
<!-- Node39&#45;&gt;Node10 -->
<g id="edge113" class="edge">
<title>Node39&#45;&gt;Node10</title>
<path fill="none" stroke="#191970" d="M1245.0077,-235.4724C1256.7751,-226.4268 1270.0509,-213.8014 1277,-199 1293.4499,-163.9619 1306.2681,-141.3222 1281,-112 1265.0388,-93.4779 1117.8438,-78.1634 1032.8514,-70.7719"/>
<polygon fill="#191970" stroke="#191970" points="1033.0705,-67.2779 1022.8078,-69.9101 1032.472,-74.2523 1033.0705,-67.2779"/>
</g>
<!-- Node39&#45;&gt;Node15 -->
<g id="edge114" class="edge">
<title>Node39&#45;&gt;Node15</title>
<path fill="none" stroke="#191970" d="M1184.9708,-235.4639C1156.5377,-223.9183 1117.6254,-208.1176 1090.1966,-196.9798"/>
<polygon fill="#191970" stroke="#191970" points="1091.2335,-193.6234 1080.6514,-193.1039 1088.5999,-200.1091 1091.2335,-193.6234"/>
</g>
<!-- Node40&#45;&gt;Node10 -->
<g id="edge117" class="edge">
<title>Node40&#45;&gt;Node10</title>
<path fill="none" stroke="#191970" d="M1816.9414,-305.3483C1784.5514,-296.363 1741.2796,-282.7946 1705,-266 1587.2596,-211.4952 1579.9429,-153.4562 1457,-112 1379.9243,-86.0102 1144.5705,-73.081 1032.9491,-68.2778"/>
<polygon fill="#191970" stroke="#191970" points="1033.0044,-64.7771 1022.8655,-67.8515 1032.7087,-71.7708 1033.0044,-64.7771"/>
</g>
<!-- Node40&#45;&gt;Node14 -->
<g id="edge118" class="edge">
<title>Node40&#45;&gt;Node14</title>
<path fill="none" stroke="#191970" d="M1816.9879,-305.2669C1812.2683,-304.1336 1807.5455,-303.0266 1803,-302 1736.9175,-287.0748 1660.7281,-271.959 1608.9635,-262"/>
<polygon fill="#191970" stroke="#191970" points="1609.4268,-258.5252 1598.9465,-260.0786 1608.1081,-265.3998 1609.4268,-258.5252"/>
</g>
<!-- Node41&#45;&gt;Node7 -->
<g id="edge135" class="edge">
<title>Node41&#45;&gt;Node7</title>
<path fill="none" stroke="#191970" d="M1898.0714,-436.4945C1931.7618,-427.201 1974.7618,-414.326 2012,-400 2130.7572,-354.3126 2163.2651,-342.4241 2265,-266 2299.9491,-239.7459 2310.3616,-233.657 2337,-199 2350.9309,-180.8757 2362.6872,-157.3563 2369.9905,-141.1041"/>
<polygon fill="#191970" stroke="#191970" points="2373.3439,-142.1693 2374.1248,-131.6033 2366.9253,-139.3762 2373.3439,-142.1693"/>
</g>
<!-- Node41&#45;&gt;Node8 -->
<g id="edge133" class="edge">
<title>Node41&#45;&gt;Node8</title>
<path fill="none" stroke="#191970" d="M1867.3233,-436.4638C1900.6932,-418.5572 1959.2247,-388.6115 2012,-369 2123.4912,-327.5695 2199.9291,-369.2346 2259,-266 2292.9925,-206.5933 2279.9546,-177.1579 2259,-112 2255.6054,-101.4445 2248.7942,-91.2592 2242.2369,-83.1676"/>
<polygon fill="#191970" stroke="#191970" points="2244.8431,-80.8307 2235.6492,-75.5654 2239.553,-85.4149 2244.8431,-80.8307"/>
</g>
<!-- Node41&#45;&gt;Node10 -->
<g id="edge122" class="edge">
<title>Node41&#45;&gt;Node10</title>
<path fill="none" stroke="#191970" d="M1779.2218,-450.3891C1505.545,-445.2646 397.8843,-423.1685 328,-400 266.9136,-379.7482 209,-381.8559 209,-317.5 209,-317.5 209,-317.5 209,-250.5 209,-160.0872 275.1447,-148.1865 358,-112 408.0059,-90.1603 768.3559,-73.9336 913.0749,-68.2296"/>
<polygon fill="#191970" stroke="#191970" points="913.2592,-71.7251 923.1148,-67.8371 912.9857,-64.7305 913.2592,-71.7251"/>
</g>
<!-- Node41&#45;&gt;Node14 -->
<g id="edge123" class="edge">
<title>Node41&#45;&gt;Node14</title>
<path fill="none" stroke="#191970" d="M1837.37,-436.069C1831.317,-405.4974 1813.4401,-337.1585 1770,-302 1747.7429,-283.9861 1679.6867,-269.879 1624.7357,-261.0196"/>
<polygon fill="#191970" stroke="#191970" points="1625.065,-257.5283 1614.6416,-259.4266 1623.9737,-264.4427 1625.065,-257.5283"/>
</g>
<!-- Node41&#45;&gt;Node21 -->
<g id="edge134" class="edge">
<title>Node41&#45;&gt;Node21</title>
<path fill="none" stroke="#191970" d="M1859.2346,-436.4756C1891.5547,-409.3368 1950.5552,-350.4574 1922,-302 1905.2341,-273.5487 1878.0373,-291.4559 1857,-266 1842.0534,-247.914 1835.3005,-221.3134 1832.3032,-203.2437"/>
<polygon fill="#191970" stroke="#191970" points="1835.7549,-202.6557 1830.8827,-193.2476 1828.8245,-203.6406 1835.7549,-202.6557"/>
</g>
<!-- Node41&#45;&gt;Node30 -->
<g id="edge132" class="edge">
<title>Node41&#45;&gt;Node30</title>
<path fill="none" stroke="#191970" d="M1779.4847,-449.1483C1647.1155,-443.6537 1322.0139,-428.2499 1051,-400 954.539,-389.9451 931.1926,-381.362 835,-369 694.3621,-350.9262 657.5282,-358.25 518,-333 516.741,-332.7722 515.4697,-332.5334 514.1896,-332.2852"/>
<polygon fill="#191970" stroke="#191970" points="514.7699,-328.831 504.2666,-330.2205 513.3439,-335.6843 514.7699,-328.831"/>
</g>
<!-- Node42 -->
<g id="node43" class="node">
<title>Node42</title>
<g id="a_node43"><a xlink:href="_interpreter_monitor_8h.html" target="_top" xlink:title="uscxml/interpreter\l/InterpreterMonitor.h">
<polygon fill="#ffffff" stroke="#000000" points="1060.5,-369.5 1060.5,-399.5 1167.5,-399.5 1167.5,-369.5 1060.5,-369.5"/>
<text text-anchor="start" x="1068.5" y="-387.5" font-family="Helvetica,sans-Serif" font-size="10.00" fill="#000000">uscxml/interpreter</text>
<text text-anchor="middle" x="1114" y="-376.5" font-family="Helvetica,sans-Serif" font-size="10.00" fill="#000000">/InterpreterMonitor.h</text>
</a>
</g>
</g>
<!-- Node41&#45;&gt;Node42 -->
<g id="edge124" class="edge">
<title>Node41&#45;&gt;Node42</title>
<path fill="none" stroke="#191970" d="M1779.3717,-446.0754C1675.9118,-436.7959 1458.6309,-417.2083 1275,-400 1242.9879,-397.0001 1207.4042,-393.583 1177.8476,-390.722"/>
<polygon fill="#191970" stroke="#191970" points="1177.9512,-387.2157 1167.6602,-389.7348 1177.276,-394.1831 1177.9512,-387.2157"/>
</g>
<!-- Node42&#45;&gt;Node5 -->
<g id="edge131" class="edge">
<title>Node42&#45;&gt;Node5</title>
<path fill="none" stroke="#191970" d="M1167.7862,-378.6666C1239.2344,-370.5177 1369.2146,-354.2999 1479,-333 1535.1907,-322.0982 1547.4106,-310.5956 1604,-302 1646.7133,-295.5121 2298.2498,-260.4684 2452.4584,-252.2333"/>
<polygon fill="#191970" stroke="#191970" points="2452.8875,-255.7154 2462.6867,-251.6874 2452.5144,-248.7254 2452.8875,-255.7154"/>
</g>
<!-- Node42&#45;&gt;Node10 -->
<g id="edge125" class="edge">
<title>Node42&#45;&gt;Node10</title>
<path fill="none" stroke="#191970" d="M1060.2127,-378.91C944.8719,-366.8452 682.6525,-338.9712 664,-333 605.4551,-314.258 581.8638,-313.6274 543,-266 523.2707,-241.8218 526.721,-229.847 522,-199 519.9156,-185.3808 516.0316,-180.418 522,-168 539.259,-132.0906 555.2639,-127.4213 592,-112 648.6225,-88.2306 821.2523,-74.8413 913.4618,-69.2078"/>
<polygon fill="#191970" stroke="#191970" points="913.71,-72.6993 923.4825,-68.6069 913.2909,-65.7119 913.71,-72.6993"/>
</g>
<!-- Node42&#45;&gt;Node14 -->
<g id="edge126" class="edge">
<title>Node42&#45;&gt;Node14</title>
<path fill="none" stroke="#191970" d="M1167.531,-379.6722C1248.5444,-371.7879 1398.0401,-354.816 1447,-333 1447.2956,-332.8683 1498.7468,-290.7942 1528.0896,-266.7903"/>
<polygon fill="#191970" stroke="#191970" points="1530.5386,-269.3088 1536.0623,-260.2678 1526.1062,-263.8908 1530.5386,-269.3088"/>
</g>
<!-- Node42&#45;&gt;Node30 -->
<g id="edge127" class="edge">
<title>Node42&#45;&gt;Node30</title>
<path fill="none" stroke="#191970" d="M1060.2795,-380.091C918.7279,-368.4424 544.5376,-337.4349 518,-333 516.7381,-332.7891 515.4641,-332.5658 514.1816,-332.3315"/>
<polygon fill="#191970" stroke="#191970" points="514.7361,-328.8732 504.2444,-330.348 513.3658,-335.7378 514.7361,-328.8732"/>
</g>
<!-- Node43 -->
<g id="node44" class="node">
<title>Node43</title>
<g id="a_node44"><a xlink:href="_interpreter_issue_8h.html" target="_top" xlink:title="Identifies some common problems with SCXML documents. ">
<polygon fill="#ffffff" stroke="#000000" points="771.5,-168.5 771.5,-198.5 898.5,-198.5 898.5,-168.5 771.5,-168.5"/>
<text text-anchor="start" x="779.5" y="-186.5" font-family="Helvetica,sans-Serif" font-size="10.00" fill="#000000">uscxml/debug/Interpreter</text>
<text text-anchor="middle" x="835" y="-175.5" font-family="Helvetica,sans-Serif" font-size="10.00" fill="#000000">Issue.h</text>
</a>
</g>
</g>
<!-- Node42&#45;&gt;Node43 -->
<g id="edge128" class="edge">
<title>Node42&#45;&gt;Node43</title>
<path fill="none" stroke="#191970" d="M1060.3238,-373.6953C1002.112,-359.1878 910.4996,-327.7535 858,-266 844.3775,-249.9763 838.787,-226.4739 836.5115,-208.6488"/>
<polygon fill="#191970" stroke="#191970" points="839.9893,-208.2523 835.4998,-198.6557 833.0249,-208.9574 839.9893,-208.2523"/>
</g>
<!-- Node43&#45;&gt;Node6 -->
<g id="edge130" class="edge">
<title>Node43&#45;&gt;Node6</title>
<path fill="none" stroke="#191970" d="M898.501,-174.9262C1001.6757,-160.978 1195.8082,-134.6529 1211,-132 1218.2884,-130.7273 1226.1676,-129.1362 1233.3537,-127.6001"/>
<polygon fill="#191970" stroke="#191970" points="1234.2186,-130.9937 1243.2365,-125.4324 1232.7188,-124.1563 1234.2186,-130.9937"/>
</g>
<!-- Node43&#45;&gt;Node10 -->
<g id="edge129" class="edge">
<title>Node43&#45;&gt;Node10</title>
<path fill="none" stroke="#191970" d="M850.7641,-168.2893C866.2634,-153.518 890.7635,-130.6543 913,-112 925.5007,-101.5131 940.009,-90.3641 951.6275,-81.6688"/>
<polygon fill="#191970" stroke="#191970" points="953.9261,-84.3213 959.8678,-75.5493 949.7527,-78.7015 953.9261,-84.3213"/>
</g>
<!-- Node44&#45;&gt;Node5 -->
<g id="edge144" class="edge">
<title>Node44&#45;&gt;Node5</title>
<path fill="none" stroke="#191970" d="M2594.0058,-302.483C2572.2638,-292.2536 2542.8657,-278.3745 2517,-266 2515.9977,-265.5205 2514.9781,-265.0317 2513.9486,-264.5375"/>
<polygon fill="#191970" stroke="#191970" points="2515.1442,-261.2284 2504.6164,-260.0387 2512.1045,-267.534 2515.1442,-261.2284"/>
</g>
<!-- Node44&#45;&gt;Node6 -->
<g id="edge142" class="edge">
<title>Node44&#45;&gt;Node6</title>
<path fill="none" stroke="#191970" d="M2574.7074,-311.1786C2549.2569,-308.1633 2518.0357,-304.6458 2490,-302 2383.2863,-291.9293 2110.7717,-299.6417 2009,-266 1931.6152,-240.4196 1931.355,-193.6703 1854,-168 1745.4049,-131.9627 1381.7115,-123.8785 1282.937,-122.3294"/>
<polygon fill="#191970" stroke="#191970" points="1282.7778,-118.8267 1272.7271,-122.1782 1282.6741,-125.826 1282.7778,-118.8267"/>
</g>
<!-- Node44&#45;&gt;Node7 -->
<g id="edge141" class="edge">
<title>Node44&#45;&gt;Node7</title>
<path fill="none" stroke="#191970" d="M2621.0296,-302.4784C2614.3298,-284.3072 2600.7893,-253.8193 2580,-235 2550.1904,-208.0152 2532.4444,-217.9865 2497,-199 2461.5735,-180.0231 2422.9154,-153.9201 2399.5678,-137.5073"/>
<polygon fill="#191970" stroke="#191970" points="2401.3056,-134.449 2391.1228,-131.5227 2397.2582,-140.1603 2401.3056,-134.449"/>
</g>
<!-- Node44&#45;&gt;Node8 -->
<g id="edge140" class="edge">
<title>Node44&#45;&gt;Node8</title>
<path fill="none" stroke="#191970" d="M2625.323,-302.4899C2623.8636,-284.8789 2619.2884,-255.4872 2605,-235 2549.7818,-155.8262 2514.3703,-150.8357 2426,-112 2369.1096,-86.9986 2296.9034,-74.7123 2256.658,-69.4203"/>
<polygon fill="#191970" stroke="#191970" points="2257.0265,-65.9392 2246.6682,-68.1651 2256.1538,-72.8846 2257.0265,-65.9392"/>
</g>
<!-- Node44&#45;&gt;Node10 -->
<g id="edge138" class="edge">
<title>Node44&#45;&gt;Node10</title>
<path fill="none" stroke="#191970" d="M2574.7008,-311.2472C2549.2488,-308.2485 2518.0281,-304.7251 2490,-302 2291.6255,-282.7127 2231.7796,-329.9275 2043,-266 2033.4834,-262.7774 1899.7545,-172.9304 1891,-168 1841.4664,-140.1033 1831.0079,-126.3504 1776,-112 1635.6061,-75.3743 1193.9974,-67.8992 1032.7209,-66.3829"/>
<polygon fill="#191970" stroke="#191970" points="1032.5404,-62.8812 1022.5094,-66.2913 1032.4776,-69.8809 1032.5404,-62.8812"/>
</g>
<!-- Node44&#45;&gt;Node14 -->
<g id="edge139" class="edge">
<title>Node44&#45;&gt;Node14</title>
<path fill="none" stroke="#191970" d="M2574.7291,-310.9348C2549.2839,-307.8607 2518.0609,-304.3641 2490,-302 2169.2,-274.9735 1785.6877,-259.0885 1624.8872,-253.1689"/>
<polygon fill="#191970" stroke="#191970" points="1624.7419,-249.6614 1614.6206,-252.7934 1624.486,-256.6567 1624.7419,-249.6614"/>
</g>
<!-- Node44&#45;&gt;Node22 -->
<g id="edge143" class="edge">
<title>Node44&#45;&gt;Node22</title>
<path fill="none" stroke="#191970" d="M2608.3006,-302.2967C2595.9119,-291.6551 2579.3865,-277.4602 2566.7685,-266.6217"/>
<polygon fill="#191970" stroke="#191970" points="2568.99,-263.9159 2559.1237,-260.055 2564.4288,-269.2259 2568.99,-263.9159"/>
</g>
<!-- Node44&#45;&gt;Node23 -->
<g id="edge145" class="edge">
<title>Node44&#45;&gt;Node23</title>
<path fill="none" stroke="#191970" d="M2645.9686,-302.2967C2660.0787,-291.5537 2678.9451,-277.1895 2693.2308,-266.3129"/>
<polygon fill="#191970" stroke="#191970" points="2695.614,-268.8975 2701.4502,-260.055 2691.3736,-263.328 2695.614,-268.8975"/>
</g>
<!-- Node45&#45;&gt;Node5 -->
<g id="edge152" class="edge">
<title>Node45&#45;&gt;Node5</title>
<path fill="none" stroke="#191970" d="M2639.6827,-369.4534C2616.4556,-360.739 2588.5471,-348.4248 2566,-333 2539.0922,-314.592 2513.7225,-286.3328 2498.7707,-268.1327"/>
<polygon fill="#191970" stroke="#191970" points="2501.3004,-265.6933 2492.3065,-260.0934 2495.8452,-270.0798 2501.3004,-265.6933"/>
</g>
<!-- Node45&#45;&gt;Node6 -->
<g id="edge150" class="edge">
<title>Node45&#45;&gt;Node6</title>
<path fill="none" stroke="#191970" d="M2631.9082,-380.1712C2490.1851,-368.2467 2096.7767,-331.3941 1775,-266 1582.2351,-226.8247 1355.8004,-154.3301 1282.327,-130.1143"/>
<polygon fill="#191970" stroke="#191970" points="1283.212,-126.7206 1272.6187,-126.9015 1281.0127,-133.3662 1283.212,-126.7206"/>
</g>
<!-- Node45&#45;&gt;Node7 -->
<g id="edge149" class="edge">
<title>Node45&#45;&gt;Node7</title>
<path fill="none" stroke="#191970" d="M2706.3827,-369.3844C2742.1456,-341.0772 2809.0412,-278.9669 2772,-235 2741.6351,-198.9576 2608.2752,-212.0861 2563,-199 2546.1147,-194.1196 2442.3987,-149.6866 2405.5029,-133.9176"/>
<polygon fill="#191970" stroke="#191970" points="2406.6378,-130.5966 2396.0665,-129.8914 2403.8907,-137.0351 2406.6378,-130.5966"/>
</g>
<!-- Node45&#45;&gt;Node8 -->
<g id="edge148" class="edge">
<title>Node45&#45;&gt;Node8</title>
<path fill="none" stroke="#191970" d="M2739.8696,-369.417C2843.3057,-337.9213 3052.7252,-260.3707 2973,-168 2925.2253,-112.6475 2391.7403,-76.2136 2256.8438,-67.8432"/>
<polygon fill="#191970" stroke="#191970" points="2256.9746,-64.3447 2246.7788,-67.2251 2256.5455,-71.3316 2256.9746,-64.3447"/>
</g>
<!-- Node45&#45;&gt;Node22 -->
<g id="edge151" class="edge">
<title>Node45&#45;&gt;Node22</title>
<path fill="none" stroke="#191970" d="M2690.7826,-369.2811C2695.3819,-351.4692 2699.8033,-321.8843 2686,-302 2673.637,-284.1905 2617.1115,-267.3802 2580.3481,-258.0583"/>
<polygon fill="#191970" stroke="#191970" points="2581.1042,-254.6399 2570.556,-255.6331 2579.4213,-261.4346 2581.1042,-254.6399"/>
</g>
<!-- Node45&#45;&gt;Node23 -->
<g id="edge153" class="edge">
<title>Node45&#45;&gt;Node23</title>
<path fill="none" stroke="#191970" d="M2698.9535,-369.4249C2706.4093,-359.7239 2715.0599,-346.452 2719,-333 2725.088,-312.2149 2722.2589,-287.2603 2718.9114,-270.2783"/>
<polygon fill="#191970" stroke="#191970" points="2722.3022,-269.4022 2716.7252,-260.394 2715.4674,-270.9139 2722.3022,-269.4022"/>
</g>
<!-- Node45&#45;&gt;Node44 -->
<g id="edge147" class="edge">
<title>Node45&#45;&gt;Node44</title>
<path fill="none" stroke="#191970" d="M2672.3851,-369.2967C2664.7137,-360.7303 2654.9804,-349.8614 2646.4128,-340.2943"/>
<polygon fill="#191970" stroke="#191970" points="2648.8396,-337.7578 2639.561,-332.6432 2643.6249,-342.4276 2648.8396,-337.7578"/>
</g>
<!-- Node46&#45;&gt;Node6 -->
<g id="edge157" class="edge">
<title>Node46&#45;&gt;Node6</title>
<path fill="none" stroke="#191970" d="M2818.7632,-241.8785C2803.7788,-239.436 2787.2424,-236.9219 2772,-235 2170.4781,-159.1532 1427.6073,-128.377 1283.0268,-122.9117"/>
<polygon fill="#191970" stroke="#191970" points="1282.7352,-119.3984 1272.6116,-122.5229 1282.4741,-126.3936 1282.7352,-119.3984"/>
</g>
<!-- Node46&#45;&gt;Node8 -->
<g id="edge158" class="edge">
<title>Node46&#45;&gt;Node8</title>
<path fill="none" stroke="#191970" d="M2831.0853,-240.9752C2781.0567,-227.9516 2696.4004,-205.4633 2683,-199 2623.6658,-170.3817 2624.1397,-136.5253 2563,-112 2507.6134,-89.7825 2329.6069,-73.9728 2257.136,-68.3025"/>
<polygon fill="#191970" stroke="#191970" points="2257.0795,-64.7879 2246.8404,-67.5099 2256.5422,-71.7672 2257.0795,-64.7879"/>
</g>
<!-- Node46&#45;&gt;Node10 -->
<g id="edge159" class="edge">
<title>Node46&#45;&gt;Node10</title>
<path fill="none" stroke="#191970" d="M2830.0707,-240.9486C2821.8185,-238.932 2813.1262,-236.8545 2805,-235 2729.2808,-217.7201 2707.9737,-222.6619 2634,-199 2601.2046,-188.5098 2595.025,-180.6482 2563,-168 2493.7061,-140.6325 2478.2124,-125.8043 2405,-112 2269.0099,-86.3588 1287.3193,-70.5361 1033.0246,-66.838"/>
<polygon fill="#191970" stroke="#191970" points="1032.923,-63.3362 1022.8734,-66.6912 1032.8217,-70.3355 1032.923,-63.3362"/>
</g>
<!-- Node46&#45;&gt;Node21 -->
<g id="edge156" class="edge">
<title>Node46&#45;&gt;Node21</title>
<path fill="none" stroke="#191970" d="M2818.8132,-241.4412C2803.8305,-238.9837 2787.2825,-236.571 2772,-235 2416.6254,-198.4678 2325.1632,-226.811 1969,-199 1929.25,-195.8961 1883.3057,-190.397 1855.4673,-186.8524"/>
<polygon fill="#191970" stroke="#191970" points="1855.7605,-183.3613 1845.3951,-185.5543 1854.8657,-190.3039 1855.7605,-183.3613"/>
</g>
<!-- Node47 -->
<g id="node48" class="node">
<title>Node47</title>
<polygon fill="#ffffff" stroke="#bfbfbf" points="2828.5,-174 2828.5,-193 2963.5,-193 2963.5,-174 2828.5,-174"/>
<text text-anchor="middle" x="2896" y="-181" font-family="Helvetica,sans-Serif" font-size="10.00" fill="#000000">xercesc/util/XMLString.hpp</text>
</g>
<!-- Node46&#45;&gt;Node47 -->
<g id="edge160" class="edge">
<title>Node46&#45;&gt;Node47</title>
<path fill="none" stroke="#191970" d="M2872.0117,-240.9005C2876.1702,-230.95 2882.7818,-215.1292 2888.0117,-202.6147"/>
<polygon fill="#191970" stroke="#191970" points="2891.3691,-203.658 2891.9957,-193.0817 2884.9104,-200.9588 2891.3691,-203.658"/>
</g>
<!-- Node48 -->
<g id="node49" class="node">
<title>Node48</title>
<polygon fill="#ffffff" stroke="#bfbfbf" points="2691.5,-174 2691.5,-193 2810.5,-193 2810.5,-174 2691.5,-174"/>
<text text-anchor="middle" x="2751" y="-181" font-family="Helvetica,sans-Serif" font-size="10.00" fill="#000000">xercesc/dom/DOM.hpp</text>
</g>
<!-- Node46&#45;&gt;Node48 -->
<g id="edge161" class="edge">
<title>Node46&#45;&gt;Node48</title>
<path fill="none" stroke="#191970" d="M2851.2368,-240.9005C2831.6884,-229.7062 2799.1661,-211.0823 2776.4863,-198.0947"/>
<polygon fill="#191970" stroke="#191970" points="2778.1493,-195.0138 2767.7322,-193.0817 2774.6707,-201.0883 2778.1493,-195.0138"/>
</g>
</g>
</svg>
