<?xml version="1.0" encoding="UTF-8" standalone="no"?>
<!DOCTYPE svg PUBLIC "-//W3C//DTD SVG 1.1//EN"
 "http://www.w3.org/Graphics/SVG/1.1/DTD/svg11.dtd">
<!-- Generated by graphviz version 2.40.1 (20161225.0304)
 -->
<!-- Title: plugins/invoker/scxml/USCXMLInvoker.h Pages: 1 -->
<svg width="3037pt" height="609pt"
 viewBox="0.00 0.00 3036.74 609.00" xmlns="http://www.w3.org/2000/svg" xmlns:xlink="http://www.w3.org/1999/xlink">
<g id="graph0" class="graph" transform="scale(1 1) rotate(0) translate(4 605)">
<title>plugins/invoker/scxml/USCXMLInvoker.h</title>
<polygon fill="#ffffff" stroke="transparent" points="-4,4 -4,-605 3032.7391,-605 3032.7391,4 -4,4"/>
<!-- Node0 -->
<g id="node1" class="node">
<title>Node0</title>
<polygon fill="#bfbfbf" stroke="#000000" points="2300,-570.5 2300,-600.5 2412,-600.5 2412,-570.5 2300,-570.5"/>
<text text-anchor="start" x="2308" y="-588.5" font-family="Helvetica,sans-Serif" font-size="10.00" fill="#000000">plugins/invoker/scxml</text>
<text text-anchor="middle" x="2356" y="-577.5" font-family="Helvetica,sans-Serif" font-size="10.00" fill="#000000">/USCXMLInvoker.h</text>
</g>
<!-- Node1 -->
<g id="node2" class="node">
<title>Node1</title>
<polygon fill="#ffffff" stroke="#bfbfbf" points="1980.5,-308 1980.5,-327 2065.5,-327 2065.5,-308 1980.5,-308"/>
<text text-anchor="middle" x="2023" y="-315" font-family="Helvetica,sans-Serif" font-size="10.00" fill="#000000">uscxml/config.h</text>
</g>
<!-- Node0&#45;&gt;Node1 -->
<g id="edge1" class="edge">
<title>Node0&#45;&gt;Node1</title>
<path fill="none" stroke="#191970" d="M2337.1424,-570.3233C2278.9177,-523.4638 2102.3317,-381.3465 2042.8217,-333.4526"/>
<polygon fill="#191970" stroke="#191970" points="2044.9039,-330.6357 2034.9191,-327.0926 2040.5151,-336.089 2044.9039,-330.6357"/>
</g>
<!-- Node2 -->
<g id="node3" class="node">
<title>Node2</title>
<g id="a_node3"><a xlink:href="_interpreter_impl_8h.html" target="_top" xlink:title="uscxml/interpreter\l/InterpreterImpl.h">
<polygon fill="#ffffff" stroke="#000000" points="2122,-503.5 2122,-533.5 2218,-533.5 2218,-503.5 2122,-503.5"/>
<text text-anchor="start" x="2130" y="-521.5" font-family="Helvetica,sans-Serif" font-size="10.00" fill="#000000">uscxml/interpreter</text>
<text text-anchor="middle" x="2170" y="-510.5" font-family="Helvetica,sans-Serif" font-size="10.00" fill="#000000">/InterpreterImpl.h</text>
</a>
</g>
</g>
<!-- Node0&#45;&gt;Node2 -->
<g id="edge2" class="edge">
<title>Node0&#45;&gt;Node2</title>
<path fill="none" stroke="#191970" d="M2314.258,-570.4639C2286.8326,-560.5849 2250.7586,-547.5905 2221.5456,-537.0675"/>
<polygon fill="#191970" stroke="#191970" points="2222.5185,-533.6979 2211.9241,-533.6017 2220.1462,-540.2836 2222.5185,-533.6979"/>
</g>
<!-- Node31 -->
<g id="node32" class="node">
<title>Node31</title>
<g id="a_node32"><a xlink:href="_invoker_impl_8h.html" target="_top" xlink:title="uscxml/plugins/InvokerImpl.h">
<polygon fill="#ffffff" stroke="#000000" points="1828.5,-375 1828.5,-394 1973.5,-394 1973.5,-375 1828.5,-375"/>
<text text-anchor="middle" x="1901" y="-382" font-family="Helvetica,sans-Serif" font-size="10.00" fill="#000000">uscxml/plugins/InvokerImpl.h</text>
</a>
</g>
</g>
<!-- Node0&#45;&gt;Node31 -->
<g id="edge153" class="edge">
<title>Node0&#45;&gt;Node31</title>
<path fill="none" stroke="#191970" d="M2299.7922,-579.3997C2249.4265,-572.5908 2174.2656,-559.0692 2113,-534 2061.7654,-513.0354 2053.298,-498.8212 2008,-467 1976.6219,-444.9574 1941.6857,-417.4245 1920.5312,-400.4019"/>
<polygon fill="#191970" stroke="#191970" points="1922.5951,-397.5698 1912.6175,-394.0063 1918.1951,-403.0141 1922.5951,-397.5698"/>
</g>
<!-- Node44 -->
<g id="node45" class="node">
<title>Node44</title>
<g id="a_node45"><a xlink:href="_basic_event_queue_8h.html" target="_top" xlink:title="uscxml/interpreter\l/BasicEventQueue.h">
<polygon fill="#ffffff" stroke="#000000" points="2657,-369.5 2657,-399.5 2765,-399.5 2765,-369.5 2657,-369.5"/>
<text text-anchor="start" x="2665" y="-387.5" font-family="Helvetica,sans-Serif" font-size="10.00" fill="#000000">uscxml/interpreter</text>
<text text-anchor="middle" x="2711" y="-376.5" font-family="Helvetica,sans-Serif" font-size="10.00" fill="#000000">/BasicEventQueue.h</text>
</a>
</g>
</g>
<!-- Node0&#45;&gt;Node44 -->
<g id="edge145" class="edge">
<title>Node0&#45;&gt;Node44</title>
<path fill="none" stroke="#191970" d="M2412.0471,-580.4667C2456.5063,-574.5069 2518.9457,-561.6268 2567,-534 2622.9241,-501.8488 2671.0458,-441.5653 2694.9336,-408.2112"/>
<polygon fill="#191970" stroke="#191970" points="2697.8518,-410.146 2700.7453,-399.9539 2692.1275,-406.117 2697.8518,-410.146"/>
</g>
<!-- Node3 -->
<g id="node4" class="node">
<title>Node3</title>
<polygon fill="#ffffff" stroke="#bfbfbf" points="125.5,-56.5 125.5,-75.5 178.5,-75.5 178.5,-56.5 125.5,-56.5"/>
<text text-anchor="middle" x="152" y="-63.5" font-family="Helvetica,sans-Serif" font-size="10.00" fill="#000000">memory</text>
</g>
<!-- Node2&#45;&gt;Node3 -->
<g id="edge3" class="edge">
<title>Node2&#45;&gt;Node3</title>
<path fill="none" stroke="#191970" d="M2121.9174,-518.3273C1818.4898,-517.1116 178.6898,-508.6283 82,-467 34.5162,-446.5566 0,-436.1976 0,-384.5 0,-384.5 0,-384.5 0,-183.5 0,-125.3581 70.4758,-91.9169 115.4502,-76.4957"/>
<polygon fill="#191970" stroke="#191970" points="116.7659,-79.7476 125.1753,-73.3031 114.5825,-73.0968 116.7659,-79.7476"/>
</g>
<!-- Node4 -->
<g id="node5" class="node">
<title>Node4</title>
<polygon fill="#ffffff" stroke="#bfbfbf" points="2538,-241 2538,-260 2582,-260 2582,-241 2538,-241"/>
<text text-anchor="middle" x="2560" y="-248" font-family="Helvetica,sans-Serif" font-size="10.00" fill="#000000">mutex</text>
</g>
<!-- Node2&#45;&gt;Node4 -->
<g id="edge4" class="edge">
<title>Node2&#45;&gt;Node4</title>
<path fill="none" stroke="#191970" d="M2218.238,-506.3871C2248.7302,-497.6936 2288.393,-484.4377 2321,-467 2407.3836,-420.8035 2426.5136,-402.0499 2496,-333 2516.288,-312.8394 2535.8791,-286.1911 2547.9257,-268.7106"/>
<polygon fill="#191970" stroke="#191970" points="2551.0873,-270.2839 2553.7985,-260.0418 2545.292,-266.3578 2551.0873,-270.2839"/>
</g>
<!-- Node5 -->
<g id="node6" class="node">
<title>Node5</title>
<polygon fill="#ffffff" stroke="#bfbfbf" points="1584.5,-112.5 1584.5,-131.5 1613.5,-131.5 1613.5,-112.5 1584.5,-112.5"/>
<text text-anchor="middle" x="1599" y="-119.5" font-family="Helvetica,sans-Serif" font-size="10.00" fill="#000000">list</text>
</g>
<!-- Node2&#45;&gt;Node5 -->
<g id="edge5" class="edge">
<title>Node2&#45;&gt;Node5</title>
<path fill="none" stroke="#191970" d="M2168.102,-503.2389C2162.2598,-463.1845 2140.7037,-354.5308 2074,-302 2004.0749,-246.9322 1961.5883,-293.691 1877,-266 1812.2038,-244.7882 1799.5564,-230.3276 1739,-199 1697.5665,-177.5652 1650.1537,-151.0634 1622.4979,-135.4018"/>
<polygon fill="#191970" stroke="#191970" points="1624.0062,-132.2335 1613.5819,-130.3403 1620.5504,-138.321 1624.0062,-132.2335"/>
</g>
<!-- Node6 -->
<g id="node7" class="node">
<title>Node6</title>
<polygon fill="#ffffff" stroke="#bfbfbf" points="2370,-112.5 2370,-131.5 2406,-131.5 2406,-112.5 2370,-112.5"/>
<text text-anchor="middle" x="2388" y="-119.5" font-family="Helvetica,sans-Serif" font-size="10.00" fill="#000000">map</text>
</g>
<!-- Node2&#45;&gt;Node6 -->
<g id="edge6" class="edge">
<title>Node2&#45;&gt;Node6</title>
<path fill="none" stroke="#191970" d="M2218.0004,-515.2766C2386.6625,-503.3187 2942,-458.3398 2942,-384.5 2942,-384.5 2942,-384.5 2942,-317.5 2942,-212.4763 2857.8878,-203.3719 2759,-168 2695.6569,-145.3424 2491.619,-129.2158 2416.2883,-123.9005"/>
<polygon fill="#191970" stroke="#191970" points="2416.3585,-120.3971 2406.1399,-123.1953 2415.8732,-127.3802 2416.3585,-120.3971"/>
</g>
<!-- Node7 -->
<g id="node8" class="node">
<title>Node7</title>
<polygon fill="#ffffff" stroke="#bfbfbf" points="2086.5,-56.5 2086.5,-75.5 2127.5,-75.5 2127.5,-56.5 2086.5,-56.5"/>
<text text-anchor="middle" x="2107" y="-63.5" font-family="Helvetica,sans-Serif" font-size="10.00" fill="#000000">string</text>
</g>
<!-- Node2&#45;&gt;Node7 -->
<g id="edge7" class="edge">
<title>Node2&#45;&gt;Node7</title>
<path fill="none" stroke="#191970" d="M2218.3094,-516.2858C2343.4417,-510.256 2675.8058,-492.2852 2783,-467 2875.3878,-445.2074 2980,-479.4232 2980,-384.5 2980,-384.5 2980,-384.5 2980,-183.5 2980,-77.7248 2856.9092,-131.7807 2753,-112 2692.2154,-100.4287 2258.3227,-74.7455 2137.9175,-67.7749"/>
<polygon fill="#191970" stroke="#191970" points="2137.7635,-64.2603 2127.5783,-67.1778 2137.3599,-71.2486 2137.7635,-64.2603"/>
</g>
<!-- Node8 -->
<g id="node9" class="node">
<title>Node8</title>
<polygon fill="#ffffff" stroke="#bfbfbf" points="2452.5,-56.5 2452.5,-75.5 2491.5,-75.5 2491.5,-56.5 2452.5,-56.5"/>
<text text-anchor="middle" x="2472" y="-63.5" font-family="Helvetica,sans-Serif" font-size="10.00" fill="#000000">limits</text>
</g>
<!-- Node2&#45;&gt;Node8 -->
<g id="edge8" class="edge">
<title>Node2&#45;&gt;Node8</title>
<path fill="none" stroke="#191970" d="M2218.3447,-517.991C2357.9471,-516.0529 2759.6407,-507.0516 2884,-467 2950.5705,-445.5601 3018,-454.4379 3018,-384.5 3018,-384.5 3018,-384.5 3018,-183.5 3018,-159.4187 3087.4001,-172.0809 2870,-112 2800.5249,-92.7998 2582.6851,-74.5386 2502.2413,-68.2801"/>
<polygon fill="#191970" stroke="#191970" points="2502.0713,-64.7567 2491.8319,-67.4778 2501.5333,-71.736 2502.0713,-64.7567"/>
</g>
<!-- Node9 -->
<g id="node10" class="node">
<title>Node9</title>
<g id="a_node10"><a xlink:href="_common_8h.html" target="_top" xlink:title="uscxml/Common.h">
<polygon fill="#ffffff" stroke="#000000" points="710.5,-56.5 710.5,-75.5 809.5,-75.5 809.5,-56.5 710.5,-56.5"/>
<text text-anchor="middle" x="760" y="-63.5" font-family="Helvetica,sans-Serif" font-size="10.00" fill="#000000">uscxml/Common.h</text>
</a>
</g>
</g>
<!-- Node2&#45;&gt;Node9 -->
<g id="edge9" class="edge">
<title>Node2&#45;&gt;Node9</title>
<path fill="none" stroke="#191970" d="M2121.8991,-518.052C1883.1946,-515.6713 824.2755,-503.2196 497,-467 307.4871,-446.0266 76,-575.1699 76,-384.5 76,-384.5 76,-384.5 76,-250.5 76,-147.4327 165.7622,-148.8937 262,-112 340.5204,-81.8984 585.3316,-71.0137 699.8304,-67.4986"/>
<polygon fill="#191970" stroke="#191970" points="700.2726,-70.9871 710.1638,-67.1906 700.064,-63.9902 700.2726,-70.9871"/>
</g>
<!-- Node12 -->
<g id="node13" class="node">
<title>Node12</title>
<g id="a_node13"><a xlink:href="_u_r_l_8h.html" target="_top" xlink:title="uscxml/util/URL.h">
<polygon fill="#ffffff" stroke="#000000" points="2393,-308 2393,-327 2487,-327 2487,-308 2393,-308"/>
<text text-anchor="middle" x="2440" y="-315" font-family="Helvetica,sans-Serif" font-size="10.00" fill="#000000">uscxml/util/URL.h</text>
</a>
</g>
</g>
<!-- Node2&#45;&gt;Node12 -->
<g id="edge12" class="edge">
<title>Node2&#45;&gt;Node12</title>
<path fill="none" stroke="#191970" d="M2206.5528,-503.4557C2250.734,-484.064 2325.7663,-447.1582 2379,-400 2400.1503,-381.2636 2418.5102,-354.0714 2429.4174,-336.0959"/>
<polygon fill="#191970" stroke="#191970" points="2432.6161,-337.5618 2434.6805,-327.17 2426.5863,-334.0063 2432.6161,-337.5618"/>
</g>
<!-- Node23 -->
<g id="node24" class="node">
<title>Node23</title>
<g id="a_node24"><a xlink:href="_factory_8h.html" target="_top" xlink:title="uscxml/plugins/Factory.h">
<polygon fill="#ffffff" stroke="#000000" points="2164.5,-241 2164.5,-260 2291.5,-260 2291.5,-241 2164.5,-241"/>
<text text-anchor="middle" x="2228" y="-248" font-family="Helvetica,sans-Serif" font-size="10.00" fill="#000000">uscxml/plugins/Factory.h</text>
</a>
</g>
</g>
<!-- Node2&#45;&gt;Node23 -->
<g id="edge41" class="edge">
<title>Node2&#45;&gt;Node23</title>
<path fill="none" stroke="#191970" d="M2174.427,-503.2429C2177.3215,-493.029 2181.0909,-479.2606 2184,-467 2201.0927,-394.9626 2217.4252,-308.4687 2224.4257,-270.277"/>
<polygon fill="#191970" stroke="#191970" points="2227.9408,-270.51 2226.2892,-260.0446 2221.0541,-269.2557 2227.9408,-270.51"/>
</g>
<!-- Node25 -->
<g id="node26" class="node">
<title>Node25</title>
<g id="a_node26"><a xlink:href="_data_model_impl_8h.html" target="_top" xlink:title="uscxml/plugins/DataModel\lImpl.h">
<polygon fill="#ffffff" stroke="#000000" points="599.5,-436.5 599.5,-466.5 732.5,-466.5 732.5,-436.5 599.5,-436.5"/>
<text text-anchor="start" x="607.5" y="-454.5" font-family="Helvetica,sans-Serif" font-size="10.00" fill="#000000">uscxml/plugins/DataModel</text>
<text text-anchor="middle" x="666" y="-443.5" font-family="Helvetica,sans-Serif" font-size="10.00" fill="#000000">Impl.h</text>
</a>
</g>
</g>
<!-- Node2&#45;&gt;Node25 -->
<g id="edge51" class="edge">
<title>Node2&#45;&gt;Node25</title>
<path fill="none" stroke="#191970" d="M2121.6626,-516.3467C1903.7368,-506.6385 1011.6122,-466.8963 742.9277,-454.927"/>
<polygon fill="#191970" stroke="#191970" points="743.0209,-451.4277 732.875,-454.4791 742.7093,-458.4208 743.0209,-451.4277"/>
</g>
<!-- Node30 -->
<g id="node31" class="node">
<title>Node30</title>
<g id="a_node31"><a xlink:href="_i_o_processor_impl_8h.html" target="_top" xlink:title="uscxml/plugins/IOProcessor\lImpl.h">
<polygon fill="#ffffff" stroke="#000000" points="646,-369.5 646,-399.5 786,-399.5 786,-369.5 646,-369.5"/>
<text text-anchor="start" x="654" y="-387.5" font-family="Helvetica,sans-Serif" font-size="10.00" fill="#000000">uscxml/plugins/IOProcessor</text>
<text text-anchor="middle" x="716" y="-376.5" font-family="Helvetica,sans-Serif" font-size="10.00" fill="#000000">Impl.h</text>
</a>
</g>
</g>
<!-- Node2&#45;&gt;Node30 -->
<g id="edge74" class="edge">
<title>Node2&#45;&gt;Node30</title>
<path fill="none" stroke="#191970" d="M2121.9177,-516.646C1992.9795,-511.4399 1628.8372,-495.1971 1327,-467 1092.965,-445.1369 1031.9452,-438.0461 796.0767,-400.1206"/>
<polygon fill="#191970" stroke="#191970" points="796.5958,-396.6592 786.1666,-398.5257 795.4834,-403.5703 796.5958,-396.6592"/>
</g>
<!-- Node2&#45;&gt;Node31 -->
<g id="edge79" class="edge">
<title>Node2&#45;&gt;Node31</title>
<path fill="none" stroke="#191970" d="M2139.6652,-503.389C2087.2572,-477.2824 1980.4828,-424.0936 1929.4276,-398.661"/>
<polygon fill="#191970" stroke="#191970" points="1930.7915,-395.4302 1920.28,-394.1042 1927.6703,-401.6959 1930.7915,-395.4302"/>
</g>
<!-- Node32 -->
<g id="node33" class="node">
<title>Node32</title>
<g id="a_node33"><a xlink:href="_micro_step_impl_8h.html" target="_top" xlink:title="uscxml/interpreter\l/MicroStepImpl.h">
<polygon fill="#ffffff" stroke="#000000" points="1752,-436.5 1752,-466.5 1848,-466.5 1848,-436.5 1752,-436.5"/>
<text text-anchor="start" x="1760" y="-454.5" font-family="Helvetica,sans-Serif" font-size="10.00" fill="#000000">uscxml/interpreter</text>
<text text-anchor="middle" x="1800" y="-443.5" font-family="Helvetica,sans-Serif" font-size="10.00" fill="#000000">/MicroStepImpl.h</text>
</a>
</g>
</g>
<!-- Node2&#45;&gt;Node32 -->
<g id="edge85" class="edge">
<title>Node2&#45;&gt;Node32</title>
<path fill="none" stroke="#191970" d="M2121.629,-509.7409C2053.8106,-497.4603 1930.6453,-475.1574 1857.9945,-462.0017"/>
<polygon fill="#191970" stroke="#191970" points="1858.553,-458.546 1848.0894,-460.2081 1857.3057,-465.434 1858.553,-458.546"/>
</g>
<!-- Node39 -->
<g id="node40" class="node">
<title>Node39</title>
<g id="a_node40"><a xlink:href="_event_queue_8h.html" target="_top" xlink:title="uscxml/interpreter\l/EventQueue.h">
<polygon fill="#ffffff" stroke="#000000" points="598,-302.5 598,-332.5 694,-332.5 694,-302.5 598,-302.5"/>
<text text-anchor="start" x="606" y="-320.5" font-family="Helvetica,sans-Serif" font-size="10.00" fill="#000000">uscxml/interpreter</text>
<text text-anchor="middle" x="646" y="-309.5" font-family="Helvetica,sans-Serif" font-size="10.00" fill="#000000">/EventQueue.h</text>
</a>
</g>
</g>
<!-- Node2&#45;&gt;Node39 -->
<g id="edge135" class="edge">
<title>Node2&#45;&gt;Node39</title>
<path fill="none" stroke="#191970" d="M2121.6189,-518.2727C1872.5327,-516.9222 740.5575,-508.5284 590,-467 530.7413,-450.6546 500.2112,-452.9587 469,-400 440.0161,-350.8204 525.7283,-330.6445 587.7991,-322.5945"/>
<polygon fill="#191970" stroke="#191970" points="588.4191,-326.0449 597.9218,-321.3599 587.5716,-319.0964 588.4191,-326.0449"/>
</g>
<!-- Node40 -->
<g id="node41" class="node">
<title>Node40</title>
<g id="a_node41"><a xlink:href="_content_executor_impl_8h.html" target="_top" xlink:title="uscxml/interpreter\l/ContentExecutorImpl.h">
<polygon fill="#ffffff" stroke="#000000" points="1336.5,-436.5 1336.5,-466.5 1457.5,-466.5 1457.5,-436.5 1336.5,-436.5"/>
<text text-anchor="start" x="1344.5" y="-454.5" font-family="Helvetica,sans-Serif" font-size="10.00" fill="#000000">uscxml/interpreter</text>
<text text-anchor="middle" x="1397" y="-443.5" font-family="Helvetica,sans-Serif" font-size="10.00" fill="#000000">/ContentExecutorImpl.h</text>
</a>
</g>
</g>
<!-- Node2&#45;&gt;Node40 -->
<g id="edge120" class="edge">
<title>Node2&#45;&gt;Node40</title>
<path fill="none" stroke="#191970" d="M2121.9374,-514.3342C1990.3029,-502.9247 1623.44,-471.1268 1468.0224,-457.6559"/>
<polygon fill="#191970" stroke="#191970" points="1467.9145,-454.1335 1457.6496,-456.7568 1467.3099,-461.1073 1467.9145,-454.1335"/>
</g>
<!-- Node43 -->
<g id="node44" class="node">
<title>Node43</title>
<g id="a_node44"><a xlink:href="_event_queue_impl_8h.html" target="_top" xlink:title="uscxml/interpreter\l/EventQueueImpl.h">
<polygon fill="#ffffff" stroke="#000000" points="2585,-302.5 2585,-332.5 2687,-332.5 2687,-302.5 2585,-302.5"/>
<text text-anchor="start" x="2593" y="-320.5" font-family="Helvetica,sans-Serif" font-size="10.00" fill="#000000">uscxml/interpreter</text>
<text text-anchor="middle" x="2636" y="-309.5" font-family="Helvetica,sans-Serif" font-size="10.00" fill="#000000">/EventQueueImpl.h</text>
</a>
</g>
</g>
<!-- Node2&#45;&gt;Node43 -->
<g id="edge136" class="edge">
<title>Node2&#45;&gt;Node43</title>
<path fill="none" stroke="#191970" d="M2218.0765,-516.2463C2303.5222,-511.4901 2477.68,-498.1856 2529,-467 2577.6586,-437.4316 2610.4603,-376.4772 2625.8767,-342.2367"/>
<polygon fill="#191970" stroke="#191970" points="2629.1444,-343.4991 2629.9323,-332.9336 2622.7277,-340.7017 2629.1444,-343.4991"/>
</g>
<!-- Node10 -->
<g id="node11" class="node">
<title>Node10</title>
<polygon fill="#ffffff" stroke="#bfbfbf" points="686,-.5 686,-19.5 758,-19.5 758,-.5 686,-.5"/>
<text text-anchor="middle" x="722" y="-7.5" font-family="Helvetica,sans-Serif" font-size="10.00" fill="#000000">sys/socket.h</text>
</g>
<!-- Node9&#45;&gt;Node10 -->
<g id="edge10" class="edge">
<title>Node9&#45;&gt;Node10</title>
<path fill="none" stroke="#191970" d="M753.3809,-56.2455C748.0954,-48.4564 740.5459,-37.3308 734.1762,-27.9439"/>
<polygon fill="#191970" stroke="#191970" points="737.0545,-25.9522 728.5432,-19.6427 731.2621,-29.8827 737.0545,-25.9522"/>
</g>
<!-- Node11 -->
<g id="node12" class="node">
<title>Node11</title>
<polygon fill="#ffffff" stroke="#bfbfbf" points="776,-.5 776,-19.5 820,-19.5 820,-.5 776,-.5"/>
<text text-anchor="middle" x="798" y="-7.5" font-family="Helvetica,sans-Serif" font-size="10.00" fill="#000000">cmath</text>
</g>
<!-- Node9&#45;&gt;Node11 -->
<g id="edge11" class="edge">
<title>Node9&#45;&gt;Node11</title>
<path fill="none" stroke="#191970" d="M766.6191,-56.2455C771.9046,-48.4564 779.4541,-37.3308 785.8238,-27.9439"/>
<polygon fill="#191970" stroke="#191970" points="788.7379,-29.8827 791.4568,-19.6427 782.9455,-25.9522 788.7379,-29.8827"/>
</g>
<!-- Node12&#45;&gt;Node4 -->
<g id="edge40" class="edge">
<title>Node12&#45;&gt;Node4</title>
<path fill="none" stroke="#191970" d="M2457.1931,-307.9005C2477.2427,-296.7062 2510.5988,-278.0823 2533.8602,-265.0947"/>
<polygon fill="#191970" stroke="#191970" points="2535.8138,-268.0126 2542.8388,-260.0817 2532.4013,-261.9007 2535.8138,-268.0126"/>
</g>
<!-- Node12&#45;&gt;Node5 -->
<g id="edge37" class="edge">
<title>Node12&#45;&gt;Node5</title>
<path fill="none" stroke="#191970" d="M2392.8295,-315.0188C2301.9873,-309.6437 2106.3984,-295.0037 2046,-266 1989.3289,-238.7862 2000.6359,-195.2868 1944,-168 1887.1479,-140.6091 1693.4001,-127.2927 1623.9914,-123.318"/>
<polygon fill="#191970" stroke="#191970" points="1623.7795,-119.8009 1613.6006,-122.7403 1623.3908,-126.7901 1623.7795,-119.8009"/>
</g>
<!-- Node12&#45;&gt;Node6 -->
<g id="edge35" class="edge">
<title>Node12&#45;&gt;Node6</title>
<path fill="none" stroke="#191970" d="M2437.4213,-307.8051C2429.3118,-277.3163 2404.2156,-182.9646 2393.2347,-141.6804"/>
<polygon fill="#191970" stroke="#191970" points="2396.5472,-140.5177 2390.5943,-131.7534 2389.7824,-142.3171 2396.5472,-140.5177"/>
</g>
<!-- Node12&#45;&gt;Node7 -->
<g id="edge33" class="edge">
<title>Node12&#45;&gt;Node7</title>
<path fill="none" stroke="#191970" d="M2445.2413,-307.7267C2455.5348,-287.9133 2478.0782,-241.2983 2486,-199 2493.7673,-157.5269 2483.8754,-134.2103 2448,-112 2396.3214,-80.006 2211.3389,-69.8103 2137.63,-66.9738"/>
<polygon fill="#191970" stroke="#191970" points="2137.7126,-63.4746 2127.5914,-66.607 2137.4569,-70.4699 2137.7126,-63.4746"/>
</g>
<!-- Node12&#45;&gt;Node9 -->
<g id="edge13" class="edge">
<title>Node12&#45;&gt;Node9</title>
<path fill="none" stroke="#191970" d="M2392.8193,-312.4061C2316.6879,-303.7618 2170.3855,-285.2728 2122,-266 2050.0803,-237.3531 2045.5872,-205.7499 1978,-168 1924.8523,-138.3151 1912.2502,-125.9747 1853,-112 1752.4576,-88.2862 1033.391,-71.6554 819.724,-67.1959"/>
<polygon fill="#191970" stroke="#191970" points="819.7083,-63.6949 809.6378,-66.9866 819.563,-70.6934 819.7083,-63.6949"/>
</g>
<!-- Node13 -->
<g id="node14" class="node">
<title>Node13</title>
<g id="a_node14"><a xlink:href="_event_8h.html" target="_top" xlink:title="uscxml/messages/Event.h">
<polygon fill="#ffffff" stroke="#000000" points="904.5,-241 904.5,-260 1037.5,-260 1037.5,-241 904.5,-241"/>
<text text-anchor="middle" x="971" y="-248" font-family="Helvetica,sans-Serif" font-size="10.00" fill="#000000">uscxml/messages/Event.h</text>
</a>
</g>
</g>
<!-- Node12&#45;&gt;Node13 -->
<g id="edge14" class="edge">
<title>Node12&#45;&gt;Node13</title>
<path fill="none" stroke="#191970" d="M2392.916,-315.4165C2323.2368,-312.3534 2188.5478,-306.5103 2074,-302 1634.4939,-284.6946 1523.2302,-303.6752 1085,-266 1071.3084,-264.8229 1056.7421,-263.159 1042.7602,-261.3549"/>
<polygon fill="#191970" stroke="#191970" points="1043.0766,-257.8663 1032.7033,-260.0215 1042.1565,-264.8056 1043.0766,-257.8663"/>
</g>
<!-- Node17 -->
<g id="node18" class="node">
<title>Node17</title>
<polygon fill="#ffffff" stroke="#bfbfbf" points="2320,-56.5 2320,-75.5 2372,-75.5 2372,-56.5 2320,-56.5"/>
<text text-anchor="middle" x="2346" y="-63.5" font-family="Helvetica,sans-Serif" font-size="10.00" fill="#000000">sstream</text>
</g>
<!-- Node12&#45;&gt;Node17 -->
<g id="edge34" class="edge">
<title>Node12&#45;&gt;Node17</title>
<path fill="none" stroke="#191970" d="M2450.1191,-307.9868C2481.8725,-276.9995 2574.5021,-177.2124 2524,-112 2506.785,-89.7706 2428.9633,-76.3515 2382.1054,-70.1443"/>
<polygon fill="#191970" stroke="#191970" points="2382.4077,-66.6546 2372.0447,-68.859 2381.5205,-73.5981 2382.4077,-66.6546"/>
</g>
<!-- Node20 -->
<g id="node21" class="node">
<title>Node20</title>
<polygon fill="#ffffff" stroke="#bfbfbf" points="1905,-174 1905,-193 1935,-193 1935,-174 1905,-174"/>
<text text-anchor="middle" x="1920" y="-181" font-family="Helvetica,sans-Serif" font-size="10.00" fill="#000000">set</text>
</g>
<!-- Node12&#45;&gt;Node20 -->
<g id="edge36" class="edge">
<title>Node12&#45;&gt;Node20</title>
<path fill="none" stroke="#191970" d="M2392.856,-315.5775C2295.4644,-311.011 2075.5267,-297.4528 2008,-266 1976.3925,-251.2777 1948.6748,-220.8078 1933.1573,-201.302"/>
<polygon fill="#191970" stroke="#191970" points="1935.7939,-198.9896 1926.916,-193.2074 1930.2504,-203.2639 1935.7939,-198.9896"/>
</g>
<!-- Node21 -->
<g id="node22" class="node">
<title>Node21</title>
<polygon fill="#ffffff" stroke="#bfbfbf" points="2792.5,-241 2792.5,-260 2837.5,-260 2837.5,-241 2792.5,-241"/>
<text text-anchor="middle" x="2815" y="-248" font-family="Helvetica,sans-Serif" font-size="10.00" fill="#000000">thread</text>
</g>
<!-- Node12&#45;&gt;Node21 -->
<g id="edge38" class="edge">
<title>Node12&#45;&gt;Node21</title>
<path fill="none" stroke="#191970" d="M2487.1143,-309.0822C2564.2313,-295.304 2715.4821,-268.2805 2782.1305,-256.3727"/>
<polygon fill="#191970" stroke="#191970" points="2782.8479,-259.8 2792.0764,-254.5957 2781.6167,-252.9091 2782.8479,-259.8"/>
</g>
<!-- Node22 -->
<g id="node23" class="node">
<title>Node22</title>
<polygon fill="#ffffff" stroke="#bfbfbf" points="2600.5,-241 2600.5,-260 2697.5,-260 2697.5,-241 2600.5,-241"/>
<text text-anchor="middle" x="2649" y="-248" font-family="Helvetica,sans-Serif" font-size="10.00" fill="#000000">condition_variable</text>
</g>
<!-- Node12&#45;&gt;Node22 -->
<g id="edge39" class="edge">
<title>Node12&#45;&gt;Node22</title>
<path fill="none" stroke="#191970" d="M2469.9446,-307.9005C2506.6491,-296.134 2568.9588,-276.1591 2609.542,-263.1492"/>
<polygon fill="#191970" stroke="#191970" points="2610.6568,-266.4674 2619.1109,-260.0817 2608.5198,-259.8015 2610.6568,-266.4674"/>
</g>
<!-- Node14 -->
<g id="node15" class="node">
<title>Node14</title>
<g id="a_node15"><a xlink:href="_data_8h.html" target="_top" xlink:title="uscxml/messages/Data.h">
<polygon fill="#ffffff" stroke="#000000" points="806,-174 806,-193 934,-193 934,-174 806,-174"/>
<text text-anchor="middle" x="870" y="-181" font-family="Helvetica,sans-Serif" font-size="10.00" fill="#000000">uscxml/messages/Data.h</text>
</a>
</g>
</g>
<!-- Node13&#45;&gt;Node14 -->
<g id="edge15" class="edge">
<title>Node13&#45;&gt;Node14</title>
<path fill="none" stroke="#191970" d="M956.5292,-240.9005C939.8791,-229.8554 912.326,-211.5776 892.7886,-198.6172"/>
<polygon fill="#191970" stroke="#191970" points="894.712,-195.693 884.444,-193.0817 890.8424,-201.5263 894.712,-195.693"/>
</g>
<!-- Node19 -->
<g id="node20" class="node">
<title>Node19</title>
<g id="a_node20"><a xlink:href="_u_u_i_d_8h.html" target="_top" xlink:title="uscxml/util/UUID.h">
<polygon fill="#ffffff" stroke="#000000" points="1129.5,-112.5 1129.5,-131.5 1228.5,-131.5 1228.5,-112.5 1129.5,-112.5"/>
<text text-anchor="middle" x="1179" y="-119.5" font-family="Helvetica,sans-Serif" font-size="10.00" fill="#000000">uscxml/util/UUID.h</text>
</a>
</g>
</g>
<!-- Node13&#45;&gt;Node19 -->
<g id="edge30" class="edge">
<title>Node13&#45;&gt;Node19</title>
<path fill="none" stroke="#191970" d="M998.5943,-240.9358C1023.0359,-231.8736 1059.2031,-216.9922 1088,-199 1116.3097,-181.3122 1145.0709,-155.3457 1162.4762,-138.5544"/>
<polygon fill="#191970" stroke="#191970" points="1164.9353,-141.045 1169.6317,-131.5479 1160.0379,-136.0435 1164.9353,-141.045"/>
</g>
<!-- Node14&#45;&gt;Node3 -->
<g id="edge18" class="edge">
<title>Node14&#45;&gt;Node3</title>
<path fill="none" stroke="#191970" d="M811.8512,-173.984C669.2609,-150.6492 305.3863,-91.1015 188.6438,-71.9967"/>
<polygon fill="#191970" stroke="#191970" points="189.1958,-68.5406 178.7618,-70.3795 188.0653,-75.4487 189.1958,-68.5406"/>
</g>
<!-- Node14&#45;&gt;Node5 -->
<g id="edge16" class="edge">
<title>Node14&#45;&gt;Node5</title>
<path fill="none" stroke="#191970" d="M909.9839,-173.9623C920.6584,-171.704 932.2227,-169.5145 943,-168 1187.2393,-133.6774 1486.4147,-124.525 1573.8815,-122.5038"/>
<polygon fill="#191970" stroke="#191970" points="1574.2201,-125.9973 1584.1405,-122.2776 1574.0657,-118.999 1574.2201,-125.9973"/>
</g>
<!-- Node14&#45;&gt;Node6 -->
<g id="edge17" class="edge">
<title>Node14&#45;&gt;Node6</title>
<path fill="none" stroke="#191970" d="M908.4231,-173.9595C919.5125,-171.583 931.677,-169.3344 943,-168 1255.8256,-131.1329 2050.3389,-189.6975 2360,-132 2360.1015,-131.9811 2360.2031,-131.9619 2360.3048,-131.9423"/>
<polygon fill="#191970" stroke="#191970" points="2361.0828,-135.357 2369.8555,-129.4164 2359.2929,-128.5897 2361.0828,-135.357"/>
</g>
<!-- Node14&#45;&gt;Node9 -->
<g id="edge20" class="edge">
<title>Node14&#45;&gt;Node9</title>
<path fill="none" stroke="#191970" d="M859.5779,-173.8849C848.6956,-163.7283 831.2593,-147.1217 817,-132 802.0039,-116.0969 785.7931,-97.1397 774.5074,-83.6312"/>
<polygon fill="#191970" stroke="#191970" points="776.9444,-81.0873 767.8645,-75.6279 771.5581,-85.5581 776.9444,-81.0873"/>
</g>
<!-- Node15 -->
<g id="node16" class="node">
<title>Node15</title>
<polygon fill="#ffffff" stroke="#bfbfbf" points="971.5,-112.5 971.5,-131.5 1034.5,-131.5 1034.5,-112.5 971.5,-112.5"/>
<text text-anchor="middle" x="1003" y="-119.5" font-family="Helvetica,sans-Serif" font-size="10.00" fill="#000000">type_traits</text>
</g>
<!-- Node14&#45;&gt;Node15 -->
<g id="edge19" class="edge">
<title>Node14&#45;&gt;Node15</title>
<path fill="none" stroke="#191970" d="M890.7813,-173.8906C912.8394,-163.6908 947.905,-147.4763 972.9669,-135.8875"/>
<polygon fill="#191970" stroke="#191970" points="974.7571,-138.9158 982.3647,-131.5419 971.8191,-132.5622 974.7571,-138.9158"/>
</g>
<!-- Node16 -->
<g id="node17" class="node">
<title>Node16</title>
<g id="a_node17"><a xlink:href="_convenience_8h.html" target="_top" xlink:title="uscxml/util/Convenience.h">
<polygon fill="#ffffff" stroke="#000000" points="2218.5,-112.5 2218.5,-131.5 2351.5,-131.5 2351.5,-112.5 2218.5,-112.5"/>
<text text-anchor="middle" x="2285" y="-119.5" font-family="Helvetica,sans-Serif" font-size="10.00" fill="#000000">uscxml/util/Convenience.h</text>
</a>
</g>
</g>
<!-- Node14&#45;&gt;Node16 -->
<g id="edge21" class="edge">
<title>Node14&#45;&gt;Node16</title>
<path fill="none" stroke="#191970" d="M908.8094,-173.9434C919.7967,-171.5975 931.8116,-169.3689 943,-168 1190.3686,-137.735 1960.6079,-125.9374 2207.8014,-122.8705"/>
<polygon fill="#191970" stroke="#191970" points="2208.1701,-126.3663 2218.1263,-122.7437 2208.0841,-119.3669 2208.1701,-126.3663"/>
</g>
<!-- Node18 -->
<g id="node19" class="node">
<title>Node18</title>
<g id="a_node19"><a xlink:href="_blob_8h.html" target="_top" xlink:title="uscxml/messages/Blob.h">
<polygon fill="#ffffff" stroke="#000000" points="826.5,-112.5 826.5,-131.5 953.5,-131.5 953.5,-112.5 826.5,-112.5"/>
<text text-anchor="middle" x="890" y="-119.5" font-family="Helvetica,sans-Serif" font-size="10.00" fill="#000000">uscxml/messages/Blob.h</text>
</a>
</g>
</g>
<!-- Node14&#45;&gt;Node18 -->
<g id="edge26" class="edge">
<title>Node14&#45;&gt;Node18</title>
<path fill="none" stroke="#191970" d="M873.125,-173.8906C875.9265,-165.276 880.1233,-152.3708 883.6306,-141.5858"/>
<polygon fill="#191970" stroke="#191970" points="887.0667,-142.3371 886.8309,-131.7449 880.4098,-140.1722 887.0667,-142.3371"/>
</g>
<!-- Node16&#45;&gt;Node7 -->
<g id="edge23" class="edge">
<title>Node16&#45;&gt;Node7</title>
<path fill="none" stroke="#191970" d="M2254.4007,-112.3733C2221.6628,-102.0737 2170.0493,-85.8357 2137.3915,-75.5614"/>
<polygon fill="#191970" stroke="#191970" points="2138.0918,-72.1126 2127.5023,-72.4502 2135.991,-78.79 2138.0918,-72.1126"/>
</g>
<!-- Node16&#45;&gt;Node8 -->
<g id="edge24" class="edge">
<title>Node16&#45;&gt;Node8</title>
<path fill="none" stroke="#191970" d="M2317.1464,-112.3733C2352.351,-101.8307 2408.3321,-85.0663 2442.4661,-74.8444"/>
<polygon fill="#191970" stroke="#191970" points="2443.7353,-78.1179 2452.3109,-71.8962 2441.7271,-71.4122 2443.7353,-78.1179"/>
</g>
<!-- Node16&#45;&gt;Node9 -->
<g id="edge22" class="edge">
<title>Node16&#45;&gt;Node9</title>
<path fill="none" stroke="#191970" d="M2218.1377,-118.4428C2178.7986,-116.4116 2128.0794,-113.8994 2083,-112 1595.373,-91.4539 1006.3631,-73.3414 819.7186,-67.7633"/>
<polygon fill="#191970" stroke="#191970" points="819.6676,-64.2603 809.5677,-67.4604 819.4588,-71.2572 819.6676,-64.2603"/>
</g>
<!-- Node16&#45;&gt;Node17 -->
<g id="edge25" class="edge">
<title>Node16&#45;&gt;Node17</title>
<path fill="none" stroke="#191970" d="M2295.6254,-112.2455C2304.5473,-104.0549 2317.488,-92.1749 2328.0192,-82.5069"/>
<polygon fill="#191970" stroke="#191970" points="2330.4968,-84.9837 2335.4964,-75.6427 2325.7629,-79.8271 2330.4968,-84.9837"/>
</g>
<!-- Node18&#45;&gt;Node3 -->
<g id="edge28" class="edge">
<title>Node18&#45;&gt;Node3</title>
<path fill="none" stroke="#191970" d="M826.4398,-117.177C676.9386,-105.8327 306.7474,-77.7423 188.7553,-68.789"/>
<polygon fill="#191970" stroke="#191970" points="189.0103,-65.2984 178.7741,-68.0316 188.4806,-72.2783 189.0103,-65.2984"/>
</g>
<!-- Node18&#45;&gt;Node7 -->
<g id="edge27" class="edge">
<title>Node18&#45;&gt;Node7</title>
<path fill="none" stroke="#191970" d="M953.5646,-112.828C956.4128,-112.5254 959.2346,-112.247 962,-112 1402.888,-72.6217 1942.3067,-66.9453 2075.9513,-66.134"/>
<polygon fill="#191970" stroke="#191970" points="2076.269,-69.6324 2086.2492,-66.0765 2076.2298,-62.6325 2076.269,-69.6324"/>
</g>
<!-- Node18&#45;&gt;Node9 -->
<g id="edge29" class="edge">
<title>Node18&#45;&gt;Node9</title>
<path fill="none" stroke="#191970" d="M867.6522,-112.3733C846.5967,-103.3032 814.8505,-89.6279 791.2825,-79.4755"/>
<polygon fill="#191970" stroke="#191970" points="792.625,-76.243 782.0562,-75.5011 789.8556,-82.6719 792.625,-76.243"/>
</g>
<!-- Node19&#45;&gt;Node7 -->
<g id="edge32" class="edge">
<title>Node19&#45;&gt;Node7</title>
<path fill="none" stroke="#191970" d="M1228.5491,-113.748C1233.4233,-113.0897 1238.3023,-112.4908 1243,-112 1567.5927,-78.0894 1963.5472,-68.6053 2075.9381,-66.5116"/>
<polygon fill="#191970" stroke="#191970" points="2076.2742,-70.0062 2086.2095,-66.3264 2076.148,-63.0074 2076.2742,-70.0062"/>
</g>
<!-- Node19&#45;&gt;Node9 -->
<g id="edge31" class="edge">
<title>Node19&#45;&gt;Node9</title>
<path fill="none" stroke="#191970" d="M1129.4049,-114.1198C1124.54,-113.3862 1119.6758,-112.6681 1115,-112 1011.3565,-97.1905 890.3885,-81.9519 819.7803,-73.2623"/>
<polygon fill="#191970" stroke="#191970" points="820.0882,-69.7739 809.7361,-72.0285 819.2348,-76.7217 820.0882,-69.7739"/>
</g>
<!-- Node23&#45;&gt;Node3 -->
<g id="edge46" class="edge">
<title>Node23&#45;&gt;Node3</title>
<path fill="none" stroke="#191970" d="M2164.3292,-249.4889C1923.4187,-245.464 1067.6788,-229.31 797,-199 637.8681,-181.1808 599.7722,-164.6031 443,-132 351.2778,-112.925 243.9258,-87.8637 188.7992,-74.793"/>
<polygon fill="#191970" stroke="#191970" points="189.3478,-71.326 178.8096,-72.42 187.73,-78.1365 189.3478,-71.326"/>
</g>
<!-- Node23&#45;&gt;Node6 -->
<g id="edge48" class="edge">
<title>Node23&#45;&gt;Node6</title>
<path fill="none" stroke="#191970" d="M2235.4013,-240.9532C2248.4102,-224.599 2276.7785,-190.7882 2306,-168 2322.8932,-154.8259 2344.017,-143.0696 2360.5936,-134.7399"/>
<polygon fill="#191970" stroke="#191970" points="2362.3226,-137.7904 2369.7619,-130.2467 2359.242,-131.5047 2362.3226,-137.7904"/>
</g>
<!-- Node23&#45;&gt;Node7 -->
<g id="edge49" class="edge">
<title>Node23&#45;&gt;Node7</title>
<path fill="none" stroke="#191970" d="M2226.6994,-240.7637C2224.2308,-224.7059 2217.8265,-192.0544 2204,-168 2183.8066,-132.8691 2149.077,-100.455 2127.114,-81.977"/>
<polygon fill="#191970" stroke="#191970" points="2129.3212,-79.2606 2119.3784,-75.6009 2124.8688,-84.6622 2129.3212,-79.2606"/>
</g>
<!-- Node23&#45;&gt;Node8 -->
<g id="edge50" class="edge">
<title>Node23&#45;&gt;Node8</title>
<path fill="none" stroke="#191970" d="M2247.0157,-240.8774C2282.2723,-222.5312 2359.2608,-180.0678 2415,-132 2431.7414,-117.5627 2447.9287,-98.1232 2458.7476,-84.0846"/>
<polygon fill="#191970" stroke="#191970" points="2461.8088,-85.8381 2465.0337,-75.7459 2456.2191,-81.6242 2461.8088,-85.8381"/>
</g>
<!-- Node23&#45;&gt;Node9 -->
<g id="edge42" class="edge">
<title>Node23&#45;&gt;Node9</title>
<path fill="none" stroke="#191970" d="M2223.4071,-240.8313C2214.9763,-223.9876 2195.5291,-189.0536 2170,-168 2123.0348,-129.2683 2104.2938,-125.7886 2045,-112 1925.022,-84.0995 1056.7138,-70.1151 819.6566,-66.7905"/>
<polygon fill="#191970" stroke="#191970" points="819.555,-63.2888 809.5073,-66.6493 819.4576,-70.2882 819.555,-63.2888"/>
</g>
<!-- Node23&#45;&gt;Node20 -->
<g id="edge47" class="edge">
<title>Node23&#45;&gt;Node20</title>
<path fill="none" stroke="#191970" d="M2184.1982,-240.9717C2118.7663,-226.7381 1997.5983,-200.3802 1945.2133,-188.9847"/>
<polygon fill="#191970" stroke="#191970" points="1945.6391,-185.4956 1935.1237,-186.7899 1944.1512,-192.3356 1945.6391,-185.4956"/>
</g>
<!-- Node24 -->
<g id="node25" class="node">
<title>Node24</title>
<g id="a_node25"><a xlink:href="_string_8h.html" target="_top" xlink:title="string.h">
<polygon fill="#ffffff" stroke="#000000" points="2112.5,-174 2112.5,-193 2161.5,-193 2161.5,-174 2112.5,-174"/>
<text text-anchor="middle" x="2137" y="-181" font-family="Helvetica,sans-Serif" font-size="10.00" fill="#000000">string.h</text>
</a>
</g>
</g>
<!-- Node23&#45;&gt;Node24 -->
<g id="edge43" class="edge">
<title>Node23&#45;&gt;Node24</title>
<path fill="none" stroke="#191970" d="M2214.9619,-240.9005C2200.2307,-230.0544 2176.0267,-212.2339 2158.4908,-199.3229"/>
<polygon fill="#191970" stroke="#191970" points="2160.1418,-196.1922 2150.0139,-193.0817 2155.9915,-201.8291 2160.1418,-196.1922"/>
</g>
<!-- Node24&#45;&gt;Node5 -->
<g id="edge45" class="edge">
<title>Node24&#45;&gt;Node5</title>
<path fill="none" stroke="#191970" d="M2112.4885,-177.9198C2097.4143,-174.6493 2077.6654,-170.6527 2060,-168 1894.6158,-143.1655 1693.7717,-128.3272 1624.1697,-123.63"/>
<polygon fill="#191970" stroke="#191970" points="1624.0048,-120.1114 1613.7945,-122.9398 1623.5401,-127.0959 1624.0048,-120.1114"/>
</g>
<!-- Node24&#45;&gt;Node7 -->
<g id="edge44" class="edge">
<title>Node24&#45;&gt;Node7</title>
<path fill="none" stroke="#191970" d="M2135.0568,-173.7293C2132.253,-159.9088 2126.7725,-133.8937 2121,-112 2118.6915,-103.2445 2115.8259,-93.6503 2113.2897,-85.4999"/>
<polygon fill="#191970" stroke="#191970" points="2116.5764,-84.2854 2110.2199,-75.8092 2109.9032,-86.3993 2116.5764,-84.2854"/>
</g>
<!-- Node25&#45;&gt;Node3 -->
<g id="edge73" class="edge">
<title>Node25&#45;&gt;Node3</title>
<path fill="none" stroke="#191970" d="M599.4159,-449.2764C452.6007,-442.563 114,-416.3632 114,-317.5 114,-317.5 114,-317.5 114,-250.5 114,-188.306 66.94,-167.9987 94,-112 100.2828,-98.9981 112.2235,-88.5481 123.6451,-80.9145"/>
<polygon fill="#191970" stroke="#191970" points="125.5177,-83.8718 132.1759,-75.6305 121.8316,-77.9209 125.5177,-83.8718"/>
</g>
<!-- Node25&#45;&gt;Node5 -->
<g id="edge71" class="edge">
<title>Node25&#45;&gt;Node5</title>
<path fill="none" stroke="#191970" d="M732.7943,-450.401C945.2593,-446.5825 1593.3702,-432.3206 1624,-400 1659.156,-362.9034 1619.4033,-198.1964 1604.3191,-141.3606"/>
<polygon fill="#191970" stroke="#191970" points="1607.6435,-140.2455 1601.6606,-131.5015 1600.8849,-142.0679 1607.6435,-140.2455"/>
</g>
<!-- Node25&#45;&gt;Node7 -->
<g id="edge72" class="edge">
<title>Node25&#45;&gt;Node7</title>
<path fill="none" stroke="#191970" d="M732.5481,-449.1918C889.0344,-443.3871 1276.7302,-426.7084 1404,-400 1490.4025,-381.8678 1540.1805,-405.191 1591,-333 1647.688,-252.4727 1508.4315,-184.5728 1575,-112 1609.0034,-74.9296 1967.7632,-67.6525 2076.1568,-66.2961"/>
<polygon fill="#191970" stroke="#191970" points="2076.457,-69.793 2086.4155,-66.1764 2076.3753,-62.7934 2076.457,-69.793"/>
</g>
<!-- Node25&#45;&gt;Node9 -->
<g id="edge52" class="edge">
<title>Node25&#45;&gt;Node9</title>
<path fill="none" stroke="#191970" d="M599.388,-448.4991C505.7866,-443.2602 341.0555,-429.9982 290,-400 250.4543,-376.7645 228,-363.3667 228,-317.5 228,-317.5 228,-317.5 228,-183.5 228,-128.8636 276.9317,-131.4208 328,-112 394.5388,-86.6958 597.8356,-73.6978 700.0292,-68.6159"/>
<polygon fill="#191970" stroke="#191970" points="700.3733,-72.1033 710.1909,-68.1201 700.0322,-65.1117 700.3733,-72.1033"/>
</g>
<!-- Node26 -->
<g id="node27" class="node">
<title>Node26</title>
<g id="a_node27"><a xlink:href="_invoker_8h.html" target="_top" xlink:title="uscxml/plugins/Invoker.h">
<polygon fill="#ffffff" stroke="#000000" points="804,-375 804,-394 930,-394 930,-375 804,-375"/>
<text text-anchor="middle" x="867" y="-382" font-family="Helvetica,sans-Serif" font-size="10.00" fill="#000000">uscxml/plugins/Invoker.h</text>
</a>
</g>
</g>
<!-- Node25&#45;&gt;Node26 -->
<g id="edge53" class="edge">
<title>Node25&#45;&gt;Node26</title>
<path fill="none" stroke="#191970" d="M711.1083,-436.4639C746.4576,-424.6808 795.103,-408.4657 828.6047,-397.2984"/>
<polygon fill="#191970" stroke="#191970" points="830.1041,-400.488 838.4841,-394.0053 827.8905,-393.8472 830.1041,-400.488"/>
</g>
<!-- Node28 -->
<g id="node29" class="node">
<title>Node28</title>
<g id="a_node29"><a xlink:href="_i_o_processor_8h.html" target="_top" xlink:title="uscxml/plugins/IOProcessor.h">
<polygon fill="#ffffff" stroke="#000000" points="478.5,-375 478.5,-394 627.5,-394 627.5,-375 478.5,-375"/>
<text text-anchor="middle" x="553" y="-382" font-family="Helvetica,sans-Serif" font-size="10.00" fill="#000000">uscxml/plugins/IOProcessor.h</text>
</a>
</g>
</g>
<!-- Node25&#45;&gt;Node28 -->
<g id="edge62" class="edge">
<title>Node25&#45;&gt;Node28</title>
<path fill="none" stroke="#191970" d="M640.6406,-436.4639C621.9369,-425.3741 596.6119,-410.3584 577.995,-399.32"/>
<polygon fill="#191970" stroke="#191970" points="579.5844,-396.1935 569.1977,-394.1039 576.0143,-402.2147 579.5844,-396.1935"/>
</g>
<!-- Node29 -->
<g id="node30" class="node">
<title>Node29</title>
<g id="a_node30"><a xlink:href="_logging_8h.html" target="_top" xlink:title="uscxml/interpreter\l/Logging.h">
<polygon fill="#ffffff" stroke="#000000" points="408,-302.5 408,-332.5 504,-332.5 504,-302.5 408,-302.5"/>
<text text-anchor="start" x="416" y="-320.5" font-family="Helvetica,sans-Serif" font-size="10.00" fill="#000000">uscxml/interpreter</text>
<text text-anchor="middle" x="456" y="-309.5" font-family="Helvetica,sans-Serif" font-size="10.00" fill="#000000">/Logging.h</text>
</a>
</g>
</g>
<!-- Node25&#45;&gt;Node29 -->
<g id="edge66" class="edge">
<title>Node25&#45;&gt;Node29</title>
<path fill="none" stroke="#191970" d="M599.2859,-445.6976C538.8207,-438.8923 456.1751,-425.1922 436,-400 422.6634,-383.3469 430.8058,-359.1463 440.3997,-341.2596"/>
<polygon fill="#191970" stroke="#191970" points="443.4582,-342.9623 445.4429,-332.555 437.4013,-339.4531 443.4582,-342.9623"/>
</g>
<!-- Node26&#45;&gt;Node9 -->
<g id="edge54" class="edge">
<title>Node26&#45;&gt;Node9</title>
<path fill="none" stroke="#191970" d="M826.7943,-374.943C816.4771,-372.7392 805.365,-370.5808 795,-369 751.3236,-362.3386 428.7932,-365.6246 399,-333 362.7724,-293.3296 453.2505,-143.1793 497,-112 528.8652,-89.2904 633.0906,-76.5274 700.3729,-70.4689"/>
<polygon fill="#191970" stroke="#191970" points="700.7713,-73.9475 710.4278,-69.5884 700.1606,-66.9742 700.7713,-73.9475"/>
</g>
<!-- Node26&#45;&gt;Node13 -->
<g id="edge61" class="edge">
<title>Node26&#45;&gt;Node13</title>
<path fill="none" stroke="#191970" d="M923.6435,-374.986C948.0547,-367.7724 974.3219,-355.1283 989,-333 1001.8541,-313.6214 991.8678,-286.5828 982.4109,-268.8172"/>
<polygon fill="#191970" stroke="#191970" points="985.3708,-266.9428 977.36,-260.0089 979.2983,-270.425 985.3708,-266.9428"/>
</g>
<!-- Node27 -->
<g id="node28" class="node">
<title>Node27</title>
<g id="a_node28"><a xlink:href="_event_handler_8h.html" target="_top" xlink:title="uscxml/plugins/EventHandler.h">
<polygon fill="#ffffff" stroke="#000000" points="826,-308 826,-327 980,-327 980,-308 826,-308"/>
<text text-anchor="middle" x="903" y="-315" font-family="Helvetica,sans-Serif" font-size="10.00" fill="#000000">uscxml/plugins/EventHandler.h</text>
</a>
</g>
</g>
<!-- Node26&#45;&gt;Node27 -->
<g id="edge55" class="edge">
<title>Node26&#45;&gt;Node27</title>
<path fill="none" stroke="#191970" d="M872.1579,-374.9005C877.5579,-364.8505 886.1755,-348.8122 892.9306,-336.2403"/>
<polygon fill="#191970" stroke="#191970" points="896.2016,-337.5472 897.8516,-327.0817 890.0353,-334.234 896.2016,-337.5472"/>
</g>
<!-- Node27&#45;&gt;Node3 -->
<g id="edge60" class="edge">
<title>Node27&#45;&gt;Node3</title>
<path fill="none" stroke="#191970" d="M825.768,-312.2265C701.4601,-301.8198 450.8172,-272.8605 252,-199 224.4547,-188.7669 152.5937,-157.5045 138,-132 129.6676,-117.4379 135.042,-98.5098 141.3935,-84.6599"/>
<polygon fill="#191970" stroke="#191970" points="144.5847,-86.1063 146.0091,-75.6076 138.3486,-82.9265 144.5847,-86.1063"/>
</g>
<!-- Node27&#45;&gt;Node5 -->
<g id="edge58" class="edge">
<title>Node27&#45;&gt;Node5</title>
<path fill="none" stroke="#191970" d="M980.0165,-314.1095C1097.8562,-308.1237 1316.9345,-293.6214 1390,-266 1460.3653,-239.3994 1465.7526,-210.2389 1528,-168 1543.8517,-157.2436 1561.9811,-145.507 1575.9524,-136.5812"/>
<polygon fill="#191970" stroke="#191970" points="1577.9115,-139.4831 1584.4674,-131.1602 1574.1521,-133.5783 1577.9115,-139.4831"/>
</g>
<!-- Node27&#45;&gt;Node7 -->
<g id="edge59" class="edge">
<title>Node27&#45;&gt;Node7</title>
<path fill="none" stroke="#191970" d="M980.3791,-314.7754C1092.0694,-309.8267 1292.1824,-296.8602 1357,-266 1362.5157,-263.3739 1508.4386,-114.5276 1514,-112 1565.3972,-88.6403 1961.7459,-71.6216 2076.1675,-67.1576"/>
<polygon fill="#191970" stroke="#191970" points="2076.4819,-70.6482 2086.3394,-66.765 2076.2119,-63.6534 2076.4819,-70.6482"/>
</g>
<!-- Node27&#45;&gt;Node9 -->
<g id="edge56" class="edge">
<title>Node27&#45;&gt;Node9</title>
<path fill="none" stroke="#191970" d="M887.2202,-307.9695C859.2931,-290.23 801.3485,-249.3373 772,-199 751.2581,-163.4244 753.5226,-113.1874 756.8532,-85.7616"/>
<polygon fill="#191970" stroke="#191970" points="760.3675,-85.901 758.2819,-75.5135 753.4346,-84.9344 760.3675,-85.901"/>
</g>
<!-- Node27&#45;&gt;Node13 -->
<g id="edge57" class="edge">
<title>Node27&#45;&gt;Node13</title>
<path fill="none" stroke="#191970" d="M912.7427,-307.9005C923.4477,-297.353 940.847,-280.2096 953.8479,-267.3998"/>
<polygon fill="#191970" stroke="#191970" points="956.6085,-269.5933 961.2753,-260.0817 951.6956,-264.607 956.6085,-269.5933"/>
</g>
<!-- Node28&#45;&gt;Node9 -->
<g id="edge63" class="edge">
<title>Node28&#45;&gt;Node9</title>
<path fill="none" stroke="#191970" d="M482.2622,-374.9791C432.9521,-366.7237 373.3565,-352.9388 358,-333 339.7391,-309.2902 319.8338,-314.032 375,-168 385.6294,-139.8627 387.4081,-127.8033 413,-112 459.7673,-83.1206 613.7051,-72.0863 700.0024,-68.0976"/>
<polygon fill="#191970" stroke="#191970" points="700.3447,-71.5859 710.1794,-67.6454 700.0339,-64.5928 700.3447,-71.5859"/>
</g>
<!-- Node28&#45;&gt;Node13 -->
<g id="edge65" class="edge">
<title>Node28&#45;&gt;Node13</title>
<path fill="none" stroke="#191970" d="M584.0994,-374.9102C614.6899,-365.2236 662.5522,-349.3865 703,-333 733.0366,-320.8314 738.4949,-312.9411 769,-302 816.5219,-284.9556 872.2333,-271.1947 913.0982,-262.1999"/>
<polygon fill="#191970" stroke="#191970" points="913.8615,-265.6158 922.8908,-260.073 912.3757,-258.7753 913.8615,-265.6158"/>
</g>
<!-- Node28&#45;&gt;Node27 -->
<g id="edge64" class="edge">
<title>Node28&#45;&gt;Node27</title>
<path fill="none" stroke="#191970" d="M602.7748,-374.9717C666.053,-362.8584 775.2035,-341.9639 843.0101,-328.9838"/>
<polygon fill="#191970" stroke="#191970" points="843.9503,-332.3674 853.1139,-327.0496 842.6342,-325.4923 843.9503,-332.3674"/>
</g>
<!-- Node29&#45;&gt;Node3 -->
<g id="edge70" class="edge">
<title>Node29&#45;&gt;Node3</title>
<path fill="none" stroke="#191970" d="M407.8956,-302.456C350.2194,-283.248 251.8475,-246.706 176,-199 156.9416,-187.0128 109.2654,-152.5199 100,-132 91.3096,-112.7534 109.0764,-94.1689 126.1569,-81.6523"/>
<polygon fill="#191970" stroke="#191970" points="128.6014,-84.221 134.8825,-75.6887 124.6516,-78.4418 128.6014,-84.221"/>
</g>
<!-- Node29&#45;&gt;Node9 -->
<g id="edge67" class="edge">
<title>Node29&#45;&gt;Node9</title>
<path fill="none" stroke="#191970" d="M455.6407,-302.3667C455.6177,-264.139 461.2163,-163.1047 518,-112 544.2724,-88.3551 637.512,-76.0666 700.2845,-70.327"/>
<polygon fill="#191970" stroke="#191970" points="700.8144,-73.7939 710.468,-69.4285 700.1991,-66.821 700.8144,-73.7939"/>
</g>
<!-- Node29&#45;&gt;Node13 -->
<g id="edge69" class="edge">
<title>Node29&#45;&gt;Node13</title>
<path fill="none" stroke="#191970" d="M504.4499,-311.1968C594.0796,-299.5363 786.424,-274.5128 894.0527,-260.5106"/>
<polygon fill="#191970" stroke="#191970" points="894.7328,-263.9517 904.1976,-259.1908 893.8296,-257.0102 894.7328,-263.9517"/>
</g>
<!-- Node29&#45;&gt;Node14 -->
<g id="edge68" class="edge">
<title>Node29&#45;&gt;Node14</title>
<path fill="none" stroke="#191970" d="M502.6863,-302.389C584.9543,-275.7612 754.2686,-220.959 830.8515,-196.1712"/>
<polygon fill="#191970" stroke="#191970" points="832.1535,-199.4287 840.5897,-193.0193 829.9978,-192.7688 832.1535,-199.4287"/>
</g>
<!-- Node30&#45;&gt;Node9 -->
<g id="edge75" class="edge">
<title>Node30&#45;&gt;Node9</title>
<path fill="none" stroke="#191970" d="M645.8017,-370.6568C642.4913,-370.0802 639.2113,-369.5247 636,-369 576.2612,-359.2389 405.8732,-378.5426 366,-333 356.9242,-322.6338 364.1025,-315.6465 366,-302 378.526,-211.9172 364.9005,-160.2438 442,-112 483.8621,-85.8054 619.9249,-73.8409 699.8658,-68.9525"/>
<polygon fill="#191970" stroke="#191970" points="700.5046,-72.4209 710.2804,-68.3362 700.0911,-65.4332 700.5046,-72.4209"/>
</g>
<!-- Node30&#45;&gt;Node13 -->
<g id="edge78" class="edge">
<title>Node30&#45;&gt;Node13</title>
<path fill="none" stroke="#191970" d="M730.7964,-369.436C749.4203,-351.2221 783.0947,-320.6912 817,-302 849.3024,-284.1924 888.8131,-271.1349 919.7258,-262.6236"/>
<polygon fill="#191970" stroke="#191970" points="920.6875,-265.9895 929.4403,-260.0197 918.8751,-259.2281 920.6875,-265.9895"/>
</g>
<!-- Node30&#45;&gt;Node27 -->
<g id="edge76" class="edge">
<title>Node30&#45;&gt;Node27</title>
<path fill="none" stroke="#191970" d="M757.9665,-369.4639C790.7118,-357.7316 835.7208,-341.6054 866.8752,-330.4431"/>
<polygon fill="#191970" stroke="#191970" points="868.2369,-333.6732 876.4703,-327.0053 865.8758,-327.0834 868.2369,-333.6732"/>
</g>
<!-- Node30&#45;&gt;Node29 -->
<g id="edge77" class="edge">
<title>Node30&#45;&gt;Node29</title>
<path fill="none" stroke="#191970" d="M657.6509,-369.4639C614.7307,-358.4037 556.6571,-343.4386 513.854,-332.4085"/>
<polygon fill="#191970" stroke="#191970" points="514.701,-329.0125 504.1439,-329.9063 512.9542,-335.7911 514.701,-329.0125"/>
</g>
<!-- Node31&#45;&gt;Node1 -->
<g id="edge80" class="edge">
<title>Node31&#45;&gt;Node1</title>
<path fill="none" stroke="#191970" d="M1918.4796,-374.9005C1938.954,-363.6564 1973.0772,-344.9166 1996.7393,-331.9219"/>
<polygon fill="#191970" stroke="#191970" points="1998.4724,-334.9632 2005.5528,-327.0817 1995.1028,-328.8276 1998.4724,-334.9632"/>
</g>
<!-- Node31&#45;&gt;Node9 -->
<g id="edge81" class="edge">
<title>Node31&#45;&gt;Node9</title>
<path fill="none" stroke="#191970" d="M1895.0046,-374.8318C1868.8636,-333.6894 1759.9552,-172.5285 1622,-112 1549.0928,-80.0116 1003.2803,-69.4336 819.8936,-66.7623"/>
<polygon fill="#191970" stroke="#191970" points="819.6784,-63.259 809.6294,-66.6156 819.5783,-70.2583 819.6784,-63.259"/>
</g>
<!-- Node31&#45;&gt;Node13 -->
<g id="edge83" class="edge">
<title>Node31&#45;&gt;Node13</title>
<path fill="none" stroke="#191970" d="M1828.1788,-381.0773C1719.4252,-375.254 1508.3674,-361.2035 1331,-333 1271.0618,-323.4691 1102.9143,-282.9214 1019.3681,-262.4406"/>
<polygon fill="#191970" stroke="#191970" points="1020.158,-259.0307 1009.6119,-260.0459 1018.4893,-265.8289 1020.158,-259.0307"/>
</g>
<!-- Node31&#45;&gt;Node20 -->
<g id="edge84" class="edge">
<title>Node31&#45;&gt;Node20</title>
<path fill="none" stroke="#191970" d="M1898.7311,-374.8835C1893.457,-350.8819 1881.7218,-286.5643 1894,-235 1896.7841,-223.3079 1902.6709,-211.2613 1908.14,-201.7615"/>
<polygon fill="#191970" stroke="#191970" points="1911.1304,-203.5801 1913.3395,-193.2181 1905.1508,-199.9409 1911.1304,-203.5801"/>
</g>
<!-- Node31&#45;&gt;Node27 -->
<g id="edge82" class="edge">
<title>Node31&#45;&gt;Node27</title>
<path fill="none" stroke="#191970" d="M1828.4224,-379.6276C1648.8518,-367.5722 1184.3117,-336.3857 990.2279,-323.356"/>
<polygon fill="#191970" stroke="#191970" points="990.2848,-319.852 980.0728,-322.6742 989.8158,-326.8363 990.2848,-319.852"/>
</g>
<!-- Node32&#45;&gt;Node5 -->
<g id="edge86" class="edge">
<title>Node32&#45;&gt;Node5</title>
<path fill="none" stroke="#191970" d="M1790.8411,-436.4859C1757.9582,-382.5808 1645.9128,-198.9043 1610.1013,-140.1984"/>
<polygon fill="#191970" stroke="#191970" points="1613.0517,-138.314 1604.856,-131.5997 1607.0758,-141.9594 1613.0517,-138.314"/>
</g>
<!-- Node32&#45;&gt;Node7 -->
<g id="edge88" class="edge">
<title>Node32&#45;&gt;Node7</title>
<path fill="none" stroke="#191970" d="M1848.1526,-448.2441C1937.9017,-440.3633 2134.4626,-414.443 2276,-333 2370.141,-278.8297 2393.6427,-238.4932 2415,-132 2416.7479,-123.2847 2420.8026,-118.7336 2415,-112 2397.003,-91.1155 2212.1612,-74.3091 2137.7676,-68.3401"/>
<polygon fill="#191970" stroke="#191970" points="2137.8705,-64.8374 2127.6259,-67.5389 2137.3191,-71.8157 2137.8705,-64.8374"/>
</g>
<!-- Node32&#45;&gt;Node9 -->
<g id="edge89" class="edge">
<title>Node32&#45;&gt;Node9</title>
<path fill="none" stroke="#191970" d="M1751.9216,-449.3057C1581.3179,-441.4137 1013.2192,-414.1897 977,-400 956.7059,-392.0493 959.1571,-377.2917 939,-369 861.9872,-337.3205 632.8906,-382.6006 566,-333 534.144,-309.3782 532,-290.1584 532,-250.5 532,-250.5 532,-250.5 532,-183.5 532,-107.7882 632.5692,-80.8157 700.1219,-71.2382"/>
<polygon fill="#191970" stroke="#191970" points="700.7927,-74.68 710.2462,-69.8965 699.873,-67.7407 700.7927,-74.68"/>
</g>
<!-- Node32&#45;&gt;Node13 -->
<g id="edge119" class="edge">
<title>Node32&#45;&gt;Node13</title>
<path fill="none" stroke="#191970" d="M1751.7046,-449.2053C1640.297,-443.5101 1368.1976,-427.1916 1281,-400 1195.1574,-373.231 1185.4485,-340.1008 1104,-302 1072.4393,-287.2362 1035.3892,-273.1424 1008.4207,-263.443"/>
<polygon fill="#191970" stroke="#191970" points="1009.5646,-260.1351 998.9699,-260.0752 1007.2149,-266.7289 1009.5646,-260.1351"/>
</g>
<!-- Node32&#45;&gt;Node20 -->
<g id="edge87" class="edge">
<title>Node32&#45;&gt;Node20</title>
<path fill="none" stroke="#191970" d="M1848.0355,-448.2282C1914.7313,-440.6748 2031.9291,-415.6835 2074,-333 2080.2481,-320.7204 2082.116,-313.1336 2074,-302 2043.2002,-259.7484 2001.8064,-299.901 1962,-266 1942.5657,-249.4488 1931.0796,-221.6789 1925.1599,-202.9818"/>
<polygon fill="#191970" stroke="#191970" points="1928.4597,-201.7952 1922.2997,-193.1751 1921.7396,-203.7552 1928.4597,-201.7952"/>
</g>
<!-- Node33 -->
<g id="node34" class="node">
<title>Node33</title>
<g id="a_node34"><a xlink:href="_interpreter_8h.html" target="_top" xlink:title="uscxml/Interpreter.h">
<polygon fill="#ffffff" stroke="#000000" points="1290.5,-375 1290.5,-394 1395.5,-394 1395.5,-375 1290.5,-375"/>
<text text-anchor="middle" x="1343" y="-382" font-family="Helvetica,sans-Serif" font-size="10.00" fill="#000000">uscxml/Interpreter.h</text>
</a>
</g>
</g>
<!-- Node32&#45;&gt;Node33 -->
<g id="edge90" class="edge">
<title>Node32&#45;&gt;Node33</title>
<path fill="none" stroke="#191970" d="M1751.9567,-444.4565C1668.7933,-432.264 1498.0713,-407.2347 1405.6893,-393.6908"/>
<polygon fill="#191970" stroke="#191970" points="1406.0409,-390.205 1395.6389,-392.2173 1405.0254,-397.1309 1406.0409,-390.205"/>
</g>
<!-- Node33&#45;&gt;Node6 -->
<g id="edge92" class="edge">
<title>Node33&#45;&gt;Node6</title>
<path fill="none" stroke="#191970" d="M1395.58,-379.7322C1480.746,-371.7498 1654.0556,-354.4275 1800,-333 1876.4195,-321.7801 1894.5625,-313.0965 1971,-302 2043.7845,-291.4338 2240.5235,-309.2641 2300,-266 2338.6098,-237.9146 2317.3342,-207.6036 2344,-168 2351.183,-157.3319 2360.928,-146.8571 2369.4214,-138.6043"/>
<polygon fill="#191970" stroke="#191970" points="2371.8695,-141.1067 2376.7601,-131.7082 2367.0759,-136.0055 2371.8695,-141.1067"/>
</g>
<!-- Node33&#45;&gt;Node7 -->
<g id="edge93" class="edge">
<title>Node33&#45;&gt;Node7</title>
<path fill="none" stroke="#191970" d="M1395.7818,-378.8253C1447.0337,-372.1018 1526.3495,-358.449 1591,-333 1722.5664,-281.2103 1736.978,-232.1121 1863,-168 1937.7247,-129.9848 2029.9911,-94.3057 2076.7563,-76.9714"/>
<polygon fill="#191970" stroke="#191970" points="2078.1175,-80.1999 2086.2907,-73.4583 2075.6972,-73.6316 2078.1175,-80.1999"/>
</g>
<!-- Node33&#45;&gt;Node9 -->
<g id="edge91" class="edge">
<title>Node33&#45;&gt;Node9</title>
<path fill="none" stroke="#191970" d="M1290.4893,-380.7834C1161.108,-371.4355 836.0623,-346.7156 817,-333 740.677,-278.0847 755.1975,-225.9323 751,-132 750.6032,-123.12 750.1426,-120.8474 751,-112 751.8418,-103.3132 753.5579,-93.8313 755.268,-85.7451"/>
<polygon fill="#191970" stroke="#191970" points="758.7274,-86.3146 757.5135,-75.7895 751.899,-84.7743 758.7274,-86.3146"/>
</g>
<!-- Node33&#45;&gt;Node23 -->
<g id="edge110" class="edge">
<title>Node33&#45;&gt;Node23</title>
<path fill="none" stroke="#191970" d="M1395.7104,-376.519C1546.7581,-353.6485 1981.426,-287.8344 2155.0669,-261.543"/>
<polygon fill="#191970" stroke="#191970" points="2155.7655,-264.9772 2165.1288,-260.0195 2154.7175,-258.0561 2155.7655,-264.9772"/>
</g>
<!-- Node33&#45;&gt;Node29 -->
<g id="edge103" class="edge">
<title>Node33&#45;&gt;Node29</title>
<path fill="none" stroke="#191970" d="M1290.2545,-381.0443C1130.4458,-370.5536 658.2862,-339.3999 589,-333 564.5006,-330.737 537.5259,-327.6959 514.3101,-324.9068"/>
<polygon fill="#191970" stroke="#191970" points="514.6196,-321.4188 504.2707,-323.6885 513.7762,-328.3678 514.6196,-321.4188"/>
</g>
<!-- Node34 -->
<g id="node35" class="node">
<title>Node34</title>
<polygon fill="#ffffff" stroke="#bfbfbf" points="1538,-308 1538,-327 1582,-327 1582,-308 1538,-308"/>
<text text-anchor="middle" x="1560" y="-315" font-family="Helvetica,sans-Serif" font-size="10.00" fill="#000000">vector</text>
</g>
<!-- Node33&#45;&gt;Node34 -->
<g id="edge94" class="edge">
<title>Node33&#45;&gt;Node34</title>
<path fill="none" stroke="#191970" d="M1381.9431,-374.9767C1418.9111,-365.5719 1475.8293,-350.142 1524,-333 1525.8271,-332.3498 1527.6936,-331.6523 1529.568,-330.926"/>
<polygon fill="#191970" stroke="#191970" points="1530.9198,-334.1547 1538.861,-327.1413 1528.2794,-327.6717 1530.9198,-334.1547"/>
</g>
<!-- Node35 -->
<g id="node36" class="node">
<title>Node35</title>
<g id="a_node36"><a xlink:href="_micro_step_8h.html" target="_top" xlink:title="uscxml/interpreter\l/MicroStep.h">
<polygon fill="#ffffff" stroke="#000000" points="1252,-235.5 1252,-265.5 1348,-265.5 1348,-235.5 1252,-235.5"/>
<text text-anchor="start" x="1260" y="-253.5" font-family="Helvetica,sans-Serif" font-size="10.00" fill="#000000">uscxml/interpreter</text>
<text text-anchor="middle" x="1300" y="-242.5" font-family="Helvetica,sans-Serif" font-size="10.00" fill="#000000">/MicroStep.h</text>
</a>
</g>
</g>
<!-- Node33&#45;&gt;Node35 -->
<g id="edge95" class="edge">
<title>Node33&#45;&gt;Node35</title>
<path fill="none" stroke="#191970" d="M1339.9075,-374.8631C1333.2928,-354.2497 1317.5911,-305.3189 1307.9727,-275.3451"/>
<polygon fill="#191970" stroke="#191970" points="1311.2372,-274.0633 1304.8491,-265.611 1304.572,-276.2022 1311.2372,-274.0633"/>
</g>
<!-- Node36 -->
<g id="node37" class="node">
<title>Node36</title>
<g id="a_node37"><a xlink:href="_interpreter_state_8h.html" target="_top" xlink:title="uscxml/interpreter\l/InterpreterState.h">
<polygon fill="#ffffff" stroke="#000000" points="1174.5,-168.5 1174.5,-198.5 1271.5,-198.5 1271.5,-168.5 1174.5,-168.5"/>
<text text-anchor="start" x="1182.5" y="-186.5" font-family="Helvetica,sans-Serif" font-size="10.00" fill="#000000">uscxml/interpreter</text>
<text text-anchor="middle" x="1223" y="-175.5" font-family="Helvetica,sans-Serif" font-size="10.00" fill="#000000">/InterpreterState.h</text>
</a>
</g>
</g>
<!-- Node33&#45;&gt;Node36 -->
<g id="edge118" class="edge">
<title>Node33&#45;&gt;Node36</title>
<path fill="none" stroke="#191970" d="M1332.0819,-374.9209C1311.4043,-356.1581 1266.5009,-312.3354 1243,-266 1233.8675,-247.9939 1228.7819,-225.6342 1226.0271,-208.7366"/>
<polygon fill="#191970" stroke="#191970" points="1229.4437,-207.9106 1224.5344,-198.5218 1222.5173,-208.9229 1229.4437,-207.9106"/>
</g>
<!-- Node37 -->
<g id="node38" class="node">
<title>Node37</title>
<g id="a_node38"><a xlink:href="_data_model_8h.html" target="_top" xlink:title="uscxml/plugins/DataModel.h">
<polygon fill="#ffffff" stroke="#000000" points="1340,-308 1340,-327 1482,-327 1482,-308 1340,-308"/>
<text text-anchor="middle" x="1411" y="-315" font-family="Helvetica,sans-Serif" font-size="10.00" fill="#000000">uscxml/plugins/DataModel.h</text>
</a>
</g>
</g>
<!-- Node33&#45;&gt;Node37 -->
<g id="edge104" class="edge">
<title>Node33&#45;&gt;Node37</title>
<path fill="none" stroke="#191970" d="M1352.7427,-374.9005C1363.4477,-364.353 1380.847,-347.2096 1393.8479,-334.3998"/>
<polygon fill="#191970" stroke="#191970" points="1396.6085,-336.5933 1401.2753,-327.0817 1391.6956,-331.607 1396.6085,-336.5933"/>
</g>
<!-- Node38 -->
<g id="node39" class="node">
<title>Node38</title>
<g id="a_node39"><a xlink:href="_content_executor_8h.html" target="_top" xlink:title="uscxml/interpreter\l/ContentExecutor.h">
<polygon fill="#ffffff" stroke="#000000" points="1094,-235.5 1094,-265.5 1196,-265.5 1196,-235.5 1094,-235.5"/>
<text text-anchor="start" x="1102" y="-253.5" font-family="Helvetica,sans-Serif" font-size="10.00" fill="#000000">uscxml/interpreter</text>
<text text-anchor="middle" x="1145" y="-242.5" font-family="Helvetica,sans-Serif" font-size="10.00" fill="#000000">/ContentExecutor.h</text>
</a>
</g>
</g>
<!-- Node33&#45;&gt;Node38 -->
<g id="edge111" class="edge">
<title>Node33&#45;&gt;Node38</title>
<path fill="none" stroke="#191970" d="M1310.8207,-374.9146C1285.3033,-366.3795 1249.4863,-352.257 1222,-333 1198.5579,-316.5764 1176.7947,-292.0298 1162.4287,-273.9803"/>
<polygon fill="#191970" stroke="#191970" points="1164.8965,-271.4522 1155.9955,-265.7056 1159.3702,-275.7486 1164.8965,-271.4522"/>
</g>
<!-- Node33&#45;&gt;Node39 -->
<g id="edge115" class="edge">
<title>Node33&#45;&gt;Node39</title>
<path fill="none" stroke="#191970" d="M1290.1723,-379.9873C1190.9374,-371.4317 969.9102,-352.0025 784,-333 757.8724,-330.3294 728.992,-327.1249 704.433,-324.3245"/>
<polygon fill="#191970" stroke="#191970" points="704.5261,-320.8124 694.1928,-323.1518 703.7296,-327.7669 704.5261,-320.8124"/>
</g>
<!-- Node35&#45;&gt;Node3 -->
<g id="edge96" class="edge">
<title>Node35&#45;&gt;Node3</title>
<path fill="none" stroke="#191970" d="M1251.7856,-241.8021C1236.8297,-239.3282 1220.2667,-236.8157 1205,-235 798.6287,-186.6702 681.0429,-252.6601 290,-132 248.4584,-119.1819 203.6166,-95.7697 176.6815,-80.5535"/>
<polygon fill="#191970" stroke="#191970" points="178.3527,-77.4773 167.9358,-75.5439 174.8735,-83.5514 178.3527,-77.4773"/>
</g>
<!-- Node35&#45;&gt;Node5 -->
<g id="edge97" class="edge">
<title>Node35&#45;&gt;Node5</title>
<path fill="none" stroke="#191970" d="M1330.1896,-235.441C1364.9824,-218.299 1424.0515,-189.8477 1476,-168 1509.8353,-153.7701 1549.7615,-139.2447 1574.7347,-130.4237"/>
<polygon fill="#191970" stroke="#191970" points="1576.1841,-133.6244 1584.4607,-127.01 1573.8658,-127.0194 1576.1841,-133.6244"/>
</g>
<!-- Node35&#45;&gt;Node7 -->
<g id="edge98" class="edge">
<title>Node35&#45;&gt;Node7</title>
<path fill="none" stroke="#191970" d="M1308.6086,-235.4934C1327.3451,-204.6389 1375.2274,-135.0447 1438,-112 1498.3367,-89.8496 1952.407,-71.6842 2076.0138,-67.1116"/>
<polygon fill="#191970" stroke="#191970" points="2076.4177,-70.5992 2086.2826,-66.735 2076.1611,-63.6039 2076.4177,-70.5992"/>
</g>
<!-- Node35&#45;&gt;Node9 -->
<g id="edge99" class="edge">
<title>Node35&#45;&gt;Node9</title>
<path fill="none" stroke="#191970" d="M1298.703,-235.378C1295.1572,-204.9503 1282.2859,-137.0968 1237,-112 1201.2923,-92.2113 939.9338,-75.726 819.9356,-69.1114"/>
<polygon fill="#191970" stroke="#191970" points="819.9887,-65.6091 809.8126,-68.5583 819.6068,-72.5987 819.9887,-65.6091"/>
</g>
<!-- Node35&#45;&gt;Node14 -->
<g id="edge100" class="edge">
<title>Node35&#45;&gt;Node14</title>
<path fill="none" stroke="#191970" d="M1251.708,-242.3793C1236.7489,-239.9288 1220.2036,-237.2844 1205,-235 1088.7662,-217.5351 1058.7863,-219.2196 943,-199 936.3114,-197.832 929.302,-196.4926 922.3836,-195.101"/>
<polygon fill="#191970" stroke="#191970" points="922.8604,-191.6259 912.3602,-193.0386 921.4496,-198.4822 922.8604,-191.6259"/>
</g>
<!-- Node35&#45;&gt;Node36 -->
<g id="edge101" class="edge">
<title>Node35&#45;&gt;Node36</title>
<path fill="none" stroke="#191970" d="M1282.5275,-235.2967C1272.3872,-226.4733 1259.4396,-215.2072 1248.211,-205.4368"/>
<polygon fill="#191970" stroke="#191970" points="1250.2448,-202.567 1240.4033,-198.6432 1245.6498,-207.8478 1250.2448,-202.567"/>
</g>
<!-- Node36&#45;&gt;Node9 -->
<g id="edge102" class="edge">
<title>Node36&#45;&gt;Node9</title>
<path fill="none" stroke="#191970" d="M1194.7034,-168.3607C1162.8475,-151.9715 1109.111,-126.269 1060,-112 978.6849,-88.3741 881.2406,-76.2834 819.9607,-70.5556"/>
<polygon fill="#191970" stroke="#191970" points="819.974,-67.0425 809.6986,-69.6244 819.3414,-74.0139 819.974,-67.0425"/>
</g>
<!-- Node37&#45;&gt;Node3 -->
<g id="edge109" class="edge">
<title>Node37&#45;&gt;Node3</title>
<path fill="none" stroke="#191970" d="M1339.8728,-308.2229C1251.041,-296.3333 1107.8835,-276.0588 1085,-266 1064.7298,-257.0899 1066.6854,-242.8986 1046,-235 916.8625,-185.6898 560.4957,-226.3663 425,-199 337.6421,-181.3561 314.0694,-174.9869 236,-132 211.0974,-118.288 185.9013,-97.3348 169.6909,-82.7276"/>
<polygon fill="#191970" stroke="#191970" points="171.8148,-79.926 162.0822,-75.7394 167.0797,-85.0816 171.8148,-79.926"/>
</g>
<!-- Node37&#45;&gt;Node5 -->
<g id="edge107" class="edge">
<title>Node37&#45;&gt;Node5</title>
<path fill="none" stroke="#191970" d="M1421.7604,-307.8501C1433.0085,-297.6652 1451.0667,-281.0358 1466,-266 1510.1188,-221.5785 1559.5123,-166.6367 1583.8153,-139.2354"/>
<polygon fill="#191970" stroke="#191970" points="1586.5142,-141.4669 1590.5184,-131.6578 1581.2712,-136.8288 1586.5142,-141.4669"/>
</g>
<!-- Node37&#45;&gt;Node7 -->
<g id="edge108" class="edge">
<title>Node37&#45;&gt;Node7</title>
<path fill="none" stroke="#191970" d="M1432.8292,-307.912C1504.4492,-276.6954 1739.1922,-176.2858 1940,-112 1987.2397,-96.8769 2042.9302,-82.1462 2076.5726,-73.5799"/>
<polygon fill="#191970" stroke="#191970" points="2077.4358,-76.9719 2086.2717,-71.1257 2075.7186,-70.1857 2077.4358,-76.9719"/>
</g>
<!-- Node37&#45;&gt;Node9 -->
<g id="edge105" class="edge">
<title>Node37&#45;&gt;Node9</title>
<path fill="none" stroke="#191970" d="M1407.5565,-307.8573C1394.7858,-273.7131 1346.5109,-158.1358 1263,-112 1225.0179,-91.0167 945.0687,-74.9818 820.0297,-68.7874"/>
<polygon fill="#191970" stroke="#191970" points="820.0199,-65.2828 809.8604,-68.2885 819.6768,-72.2744 820.0199,-65.2828"/>
</g>
<!-- Node37&#45;&gt;Node13 -->
<g id="edge106" class="edge">
<title>Node37&#45;&gt;Node13</title>
<path fill="none" stroke="#191970" d="M1361.1803,-307.9871C1349.6473,-305.9039 1337.4109,-303.7889 1326,-302 1204.6577,-282.9771 1173.2584,-285.5506 1052,-266 1044.3472,-264.7661 1036.3084,-263.3609 1028.3893,-261.9119"/>
<polygon fill="#191970" stroke="#191970" points="1028.9322,-258.4529 1018.4604,-260.0629 1027.6505,-265.3346 1028.9322,-258.4529"/>
</g>
<!-- Node38&#45;&gt;Node7 -->
<g id="edge114" class="edge">
<title>Node38&#45;&gt;Node7</title>
<path fill="none" stroke="#191970" d="M1144.2516,-235.4656C1144.1972,-216.9932 1147.0579,-185.9068 1165,-168 1202.692,-130.382 1345.3483,-119.9753 1398,-112 1531.9361,-91.7124 1957.9598,-72.3755 2076.2656,-67.2923"/>
<polygon fill="#191970" stroke="#191970" points="2076.5861,-70.7819 2086.4276,-66.8583 2076.2874,-63.7883 2076.5861,-70.7819"/>
</g>
<!-- Node38&#45;&gt;Node9 -->
<g id="edge112" class="edge">
<title>Node38&#45;&gt;Node9</title>
<path fill="none" stroke="#191970" d="M1093.6607,-237.7186C1089.0546,-236.7353 1084.4511,-235.8114 1080,-235 1017.6321,-223.631 844.9529,-240.4673 797,-199 764.0309,-170.49 759.2314,-115.3677 759.2167,-85.8308"/>
<polygon fill="#191970" stroke="#191970" points="762.7214,-85.6067 759.4091,-75.543 755.7227,-85.4757 762.7214,-85.6067"/>
</g>
<!-- Node38&#45;&gt;Node14 -->
<g id="edge113" class="edge">
<title>Node38&#45;&gt;Node14</title>
<path fill="none" stroke="#191970" d="M1093.9191,-238.0548C1043.9302,-225.8757 968.3137,-207.4528 919.0379,-195.4474"/>
<polygon fill="#191970" stroke="#191970" points="919.7899,-192.0283 909.2455,-193.0616 918.1328,-198.8294 919.7899,-192.0283"/>
</g>
<!-- Node39&#45;&gt;Node9 -->
<g id="edge116" class="edge">
<title>Node39&#45;&gt;Node9</title>
<path fill="none" stroke="#191970" d="M642.5833,-302.3229C635.1162,-264.8615 621.6465,-167.0573 670,-112 682.9942,-97.2043 701.8902,-86.541 719.0169,-79.2302"/>
<polygon fill="#191970" stroke="#191970" points="720.3213,-82.4782 728.301,-75.5087 717.7167,-75.9807 720.3213,-82.4782"/>
</g>
<!-- Node39&#45;&gt;Node13 -->
<g id="edge117" class="edge">
<title>Node39&#45;&gt;Node13</title>
<path fill="none" stroke="#191970" d="M694.0058,-305.2387C698.7267,-304.1111 703.4515,-303.0132 708,-302 776.156,-286.818 854.7877,-271.7372 908.1889,-261.8567"/>
<polygon fill="#191970" stroke="#191970" points="908.9904,-265.268 918.1899,-260.0125 907.7209,-258.384 908.9904,-265.268"/>
</g>
<!-- Node40&#45;&gt;Node6 -->
<g id="edge134" class="edge">
<title>Node40&#45;&gt;Node6</title>
<path fill="none" stroke="#191970" d="M1457.8548,-448.332C1586.7655,-441.2641 1883.5897,-423.0037 1982,-400 2141.7719,-362.6528 2207.9597,-379.9665 2326,-266 2362.1003,-231.1456 2378.3596,-171.8107 2384.6327,-141.3311"/>
<polygon fill="#191970" stroke="#191970" points="2388.0709,-141.9853 2386.5102,-131.5061 2381.1953,-140.6713 2388.0709,-141.9853"/>
</g>
<!-- Node40&#45;&gt;Node7 -->
<g id="edge132" class="edge">
<title>Node40&#45;&gt;Node7</title>
<path fill="none" stroke="#191970" d="M1457.6452,-442.7215C1520.1776,-432.9982 1612.9401,-416.5044 1645,-400 1780.0632,-330.4697 1768.9237,-251.2355 1896,-168 1929.2954,-146.1914 1942.0452,-149.0719 1978,-132 2013.8242,-114.9901 2054.4439,-93.9025 2080.369,-80.2092"/>
<polygon fill="#191970" stroke="#191970" points="2082.0216,-83.2946 2089.2194,-75.5201 2078.7444,-77.1091 2082.0216,-83.2946"/>
</g>
<!-- Node40&#45;&gt;Node9 -->
<g id="edge121" class="edge">
<title>Node40&#45;&gt;Node9</title>
<path fill="none" stroke="#191970" d="M1336.3906,-449.8689C1140.8438,-444.3756 534.4377,-425.4582 450,-400 393.7326,-383.0352 365.1874,-384.009 336,-333 285.9365,-245.507 305.5132,-171.3403 387,-112 411.7703,-93.9618 601.0327,-77.6273 700.0418,-70.2089"/>
<polygon fill="#191970" stroke="#191970" points="700.4894,-73.6855 710.203,-69.4552 699.9715,-66.7046 700.4894,-73.6855"/>
</g>
<!-- Node40&#45;&gt;Node13 -->
<g id="edge122" class="edge">
<title>Node40&#45;&gt;Node13</title>
<path fill="none" stroke="#191970" d="M1336.3287,-444.2651C1272.386,-435.7367 1176.7472,-420.1381 1146,-400 1101.4386,-370.8141 1117.5768,-336.5116 1077,-302 1057.2678,-285.2173 1031.1261,-272.4382 1009.7412,-263.8076"/>
<polygon fill="#191970" stroke="#191970" points="1010.8793,-260.4949 1000.2906,-260.1346 1008.3435,-267.0195 1010.8793,-260.4949"/>
</g>
<!-- Node40&#45;&gt;Node20 -->
<g id="edge133" class="edge">
<title>Node40&#45;&gt;Node20</title>
<path fill="none" stroke="#191970" d="M1457.5952,-447.4899C1542.3344,-441.0208 1691.1241,-426.2713 1738,-400 1782.3744,-375.1307 1874.1337,-248.7067 1907.5126,-201.3994"/>
<polygon fill="#191970" stroke="#191970" points="1910.4958,-203.2415 1913.3786,-193.0464 1904.7672,-199.2185 1910.4958,-203.2415"/>
</g>
<!-- Node40&#45;&gt;Node29 -->
<g id="edge131" class="edge">
<title>Node40&#45;&gt;Node29</title>
<path fill="none" stroke="#191970" d="M1336.3926,-450.2137C1135.33,-445.6778 501.2079,-429.1131 469,-400 453.4442,-385.9389 451.315,-361.4366 452.4071,-342.777"/>
<polygon fill="#191970" stroke="#191970" points="455.9135,-342.8676 453.3451,-332.5888 448.9429,-342.2257 455.9135,-342.8676"/>
</g>
<!-- Node41 -->
<g id="node42" class="node">
<title>Node41</title>
<g id="a_node42"><a xlink:href="_interpreter_monitor_8h.html" target="_top" xlink:title="uscxml/interpreter\l/InterpreterMonitor.h">
<polygon fill="#ffffff" stroke="#000000" points="986.5,-369.5 986.5,-399.5 1093.5,-399.5 1093.5,-369.5 986.5,-369.5"/>
<text text-anchor="start" x="994.5" y="-387.5" font-family="Helvetica,sans-Serif" font-size="10.00" fill="#000000">uscxml/interpreter</text>
<text text-anchor="middle" x="1040" y="-376.5" font-family="Helvetica,sans-Serif" font-size="10.00" fill="#000000">/InterpreterMonitor.h</text>
</a>
</g>
</g>
<!-- Node40&#45;&gt;Node41 -->
<g id="edge123" class="edge">
<title>Node40&#45;&gt;Node41</title>
<path fill="none" stroke="#191970" d="M1336.2281,-441.5381C1277.6356,-431.7288 1186.5398,-415.9397 1108,-400 1106.5538,-399.7065 1105.0911,-399.4058 1103.6169,-399.0993"/>
<polygon fill="#191970" stroke="#191970" points="1104.2798,-395.662 1093.7705,-397.0058 1102.824,-402.509 1104.2798,-395.662"/>
</g>
<!-- Node41&#45;&gt;Node4 -->
<g id="edge130" class="edge">
<title>Node41&#45;&gt;Node4</title>
<path fill="none" stroke="#191970" d="M1093.8481,-380.0653C1205.5528,-370.6179 1455.0999,-348.1359 1491,-333 1511.0839,-324.5324 1508.6436,-309.7897 1529,-302 1609.0959,-271.3498 2214.3609,-270.5519 2300,-266 2382.0336,-261.6398 2478.5733,-255.6622 2527.7185,-252.5586"/>
<polygon fill="#191970" stroke="#191970" points="2527.9879,-256.0486 2537.7467,-251.9236 2527.5455,-249.0626 2527.9879,-256.0486"/>
</g>
<!-- Node41&#45;&gt;Node9 -->
<g id="edge124" class="edge">
<title>Node41&#45;&gt;Node9</title>
<path fill="none" stroke="#191970" d="M986.3046,-371.5804C981.483,-370.6266 976.6628,-369.7473 972,-369 887.5909,-355.472 653.3209,-389.3092 589,-333 560.6894,-308.2157 570,-288.1265 570,-250.5 570,-250.5 570,-250.5 570,-183.5 570,-121.3013 644.5634,-90.9197 700.2698,-76.9008"/>
<polygon fill="#191970" stroke="#191970" points="701.1711,-80.284 710.0797,-74.5493 699.5393,-73.4768 701.1711,-80.284"/>
</g>
<!-- Node41&#45;&gt;Node13 -->
<g id="edge125" class="edge">
<title>Node41&#45;&gt;Node13</title>
<path fill="none" stroke="#191970" d="M1050.0295,-369.2499C1060.0383,-351.9326 1072.2957,-323.3207 1060,-302 1049.8414,-284.385 1031.1029,-272.2497 1013.4309,-264.205"/>
<polygon fill="#191970" stroke="#191970" points="1014.3589,-260.7984 1003.784,-260.1478 1011.6451,-267.2509 1014.3589,-260.7984"/>
</g>
<!-- Node41&#45;&gt;Node29 -->
<g id="edge126" class="edge">
<title>Node41&#45;&gt;Node29</title>
<path fill="none" stroke="#191970" d="M986.3541,-375.6697C971.0789,-373.3178 954.4052,-370.9044 939,-369 769.3191,-348.0236 725.6651,-354.1035 556,-333 542.524,-331.3238 528.0691,-329.2467 514.455,-327.1637"/>
<polygon fill="#191970" stroke="#191970" points="514.6571,-323.6531 504.2382,-325.5761 513.5822,-330.5701 514.6571,-323.6531"/>
</g>
<!-- Node42 -->
<g id="node43" class="node">
<title>Node42</title>
<g id="a_node43"><a xlink:href="_interpreter_issue_8h.html" target="_top" xlink:title="Identifies some common problems with SCXML documents. ">
<polygon fill="#ffffff" stroke="#000000" points="952.5,-168.5 952.5,-198.5 1079.5,-198.5 1079.5,-168.5 952.5,-168.5"/>
<text text-anchor="start" x="960.5" y="-186.5" font-family="Helvetica,sans-Serif" font-size="10.00" fill="#000000">uscxml/debug/Interpreter</text>
<text text-anchor="middle" x="1016" y="-175.5" font-family="Helvetica,sans-Serif" font-size="10.00" fill="#000000">Issue.h</text>
</a>
</g>
</g>
<!-- Node41&#45;&gt;Node42 -->
<g id="edge127" class="edge">
<title>Node41&#45;&gt;Node42</title>
<path fill="none" stroke="#191970" d="M1034.2023,-369.3266C1026.485,-351.0024 1011.1812,-320.3603 989,-302 954.5377,-273.474 920.3534,-302.859 895,-266 875.3407,-237.4191 911.006,-215.8694 948.6087,-201.9744"/>
<polygon fill="#191970" stroke="#191970" points="949.9067,-205.2281 958.1779,-198.6071 947.5831,-198.625 949.9067,-205.2281"/>
</g>
<!-- Node42&#45;&gt;Node5 -->
<g id="edge129" class="edge">
<title>Node42&#45;&gt;Node5</title>
<path fill="none" stroke="#191970" d="M1079.501,-176.8013C1207.0105,-163.3505 1489.2611,-133.5762 1574.2883,-124.6068"/>
<polygon fill="#191970" stroke="#191970" points="1574.7252,-128.0802 1584.3028,-123.5504 1573.9908,-121.1189 1574.7252,-128.0802"/>
</g>
<!-- Node42&#45;&gt;Node9 -->
<g id="edge128" class="edge">
<title>Node42&#45;&gt;Node9</title>
<path fill="none" stroke="#191970" d="M1029.8808,-168.2819C1042.4154,-152.6566 1056.927,-128.3735 1043,-112 1028.725,-95.2173 898.8316,-79.646 820.0722,-71.638"/>
<polygon fill="#191970" stroke="#191970" points="820.0878,-68.122 809.7882,-70.6056 819.3886,-75.087 820.0878,-68.122"/>
</g>
<!-- Node43&#45;&gt;Node4 -->
<g id="edge143" class="edge">
<title>Node43&#45;&gt;Node4</title>
<path fill="none" stroke="#191970" d="M2618.7544,-302.2967C2606.7983,-291.7564 2590.8881,-277.7303 2578.6396,-266.9323"/>
<polygon fill="#191970" stroke="#191970" points="2580.6543,-264.0425 2570.8385,-260.055 2576.0252,-269.2934 2580.6543,-264.0425"/>
</g>
<!-- Node43&#45;&gt;Node5 -->
<g id="edge141" class="edge">
<title>Node43&#45;&gt;Node5</title>
<path fill="none" stroke="#191970" d="M2584.8181,-311.6558C2558.3184,-308.675 2525.4323,-305.0457 2496,-302 2329.8965,-284.8116 2279.0511,-322.7519 2122,-266 2049.1928,-239.6904 2050.4751,-195.2111 1978,-168 1912.4854,-143.4023 1697.19,-128.0862 1623.7795,-123.4755"/>
<polygon fill="#191970" stroke="#191970" points="1623.8315,-119.9721 1613.6351,-122.8502 1623.4008,-126.9589 1623.8315,-119.9721"/>
</g>
<!-- Node43&#45;&gt;Node6 -->
<g id="edge140" class="edge">
<title>Node43&#45;&gt;Node6</title>
<path fill="none" stroke="#191970" d="M2668.9056,-302.4761C2683.3794,-293.9924 2698.9054,-281.8713 2707,-266 2713.2598,-253.7263 2714.9512,-246.2519 2707,-235 2672.1684,-185.7091 2487.7808,-142.7531 2416.3246,-127.7116"/>
<polygon fill="#191970" stroke="#191970" points="2416.7512,-124.2256 2406.2484,-125.6187 2415.3276,-131.0793 2416.7512,-124.2256"/>
</g>
<!-- Node43&#45;&gt;Node7 -->
<g id="edge139" class="edge">
<title>Node43&#45;&gt;Node7</title>
<path fill="none" stroke="#191970" d="M2679.7413,-302.4993C2696.3457,-294.424 2713.5244,-282.6204 2723,-266 2729.8239,-254.0308 2729.3412,-247.2318 2723,-235 2699.2206,-189.1309 2673.7668,-191.9757 2628,-168 2563.857,-134.3975 2545.3772,-129.0444 2475,-112 2352.2537,-82.2725 2201.5585,-71.0943 2137.8079,-67.4926"/>
<polygon fill="#191970" stroke="#191970" points="2137.8137,-63.9878 2127.6389,-66.9414 2137.4348,-70.9776 2137.8137,-63.9878"/>
</g>
<!-- Node43&#45;&gt;Node9 -->
<g id="edge137" class="edge">
<title>Node43&#45;&gt;Node9</title>
<path fill="none" stroke="#191970" d="M2584.8061,-311.769C2558.3032,-308.8181 2525.4179,-305.1813 2496,-302 2344.4856,-285.6149 2297.4636,-320.1221 2155,-266 2146.2521,-262.6766 2026.0798,-172.7209 2018,-168 1967.1834,-138.3087 1955.1887,-125.905 1898,-112 1793.0914,-86.4923 1038.8659,-71.0264 819.6226,-67.0343"/>
<polygon fill="#191970" stroke="#191970" points="819.6532,-63.5344 809.5915,-66.8529 819.5266,-70.5333 819.6532,-63.5344"/>
</g>
<!-- Node43&#45;&gt;Node13 -->
<g id="edge138" class="edge">
<title>Node43&#45;&gt;Node13</title>
<path fill="none" stroke="#191970" d="M2584.8924,-310.7894C2558.4123,-307.5797 2525.5213,-304.0072 2496,-302 1870.1298,-259.4463 1710.2927,-316.3332 1085,-266 1071.0619,-264.878 1056.2216,-263.2106 1042.0148,-261.3798"/>
<polygon fill="#191970" stroke="#191970" points="1042.1779,-257.8708 1031.8041,-260.0234 1041.2561,-264.8099 1042.1779,-257.8708"/>
</g>
<!-- Node43&#45;&gt;Node21 -->
<g id="edge142" class="edge">
<title>Node43&#45;&gt;Node21</title>
<path fill="none" stroke="#191970" d="M2679.08,-302.4915C2707.3375,-292.4959 2745.0231,-278.8785 2778,-266 2779.8002,-265.297 2781.6449,-264.5642 2783.5033,-263.8164"/>
<polygon fill="#191970" stroke="#191970" points="2784.8405,-267.051 2792.7667,-260.0206 2782.1863,-260.5737 2784.8405,-267.051"/>
</g>
<!-- Node43&#45;&gt;Node22 -->
<g id="edge144" class="edge">
<title>Node43&#45;&gt;Node22</title>
<path fill="none" stroke="#191970" d="M2638.9499,-302.2967C2640.7984,-292.7699 2643.1994,-280.3954 2645.1911,-270.1306"/>
<polygon fill="#191970" stroke="#191970" points="2648.6771,-270.5386 2647.1461,-260.055 2641.8053,-269.2052 2648.6771,-270.5386"/>
</g>
<!-- Node44&#45;&gt;Node4 -->
<g id="edge151" class="edge">
<title>Node44&#45;&gt;Node4</title>
<path fill="none" stroke="#191970" d="M2656.9764,-376.7014C2628.8346,-369.8448 2596.1753,-357.0036 2576,-333 2561.3073,-315.5193 2558.5998,-288.5754 2558.7143,-270.2739"/>
<polygon fill="#191970" stroke="#191970" points="2562.2163,-270.2737 2559.0683,-260.1574 2555.2206,-270.0288 2562.2163,-270.2737"/>
</g>
<!-- Node44&#45;&gt;Node5 -->
<g id="edge149" class="edge">
<title>Node44&#45;&gt;Node5</title>
<path fill="none" stroke="#191970" d="M2656.8968,-376.0003C2592.0441,-365.8069 2480.0752,-348.1924 2384,-333 2290.213,-318.1695 2053.102,-292.7653 1962,-266 1858.1306,-235.4837 1840.0984,-206.7197 1739,-168 1699.1719,-152.7462 1651.8489,-137.8526 1623.6809,-129.3183"/>
<polygon fill="#191970" stroke="#191970" points="1624.463,-125.8987 1613.8787,-126.3713 1622.4476,-132.6023 1624.463,-125.8987"/>
</g>
<!-- Node44&#45;&gt;Node6 -->
<g id="edge148" class="edge">
<title>Node44&#45;&gt;Node6</title>
<path fill="none" stroke="#191970" d="M2743.4055,-369.4767C2794.9835,-343.5018 2886.128,-287.8888 2847,-235 2794.7038,-164.3119 2508.346,-132.7882 2416.4199,-124.3922"/>
<polygon fill="#191970" stroke="#191970" points="2416.4732,-120.8832 2406.202,-123.4819 2415.852,-127.8556 2416.4732,-120.8832"/>
</g>
<!-- Node44&#45;&gt;Node7 -->
<g id="edge147" class="edge">
<title>Node44&#45;&gt;Node7</title>
<path fill="none" stroke="#191970" d="M2765.0179,-371.7976C2822.1141,-354.781 2904,-318.5194 2904,-250.5 2904,-250.5 2904,-250.5 2904,-183.5 2904,-104.5301 2283.6862,-73.4462 2137.5642,-67.2195"/>
<polygon fill="#191970" stroke="#191970" points="2137.6398,-63.7197 2127.5022,-66.7984 2137.347,-70.7136 2137.6398,-63.7197"/>
</g>
<!-- Node44&#45;&gt;Node21 -->
<g id="edge150" class="edge">
<title>Node44&#45;&gt;Node21</title>
<path fill="none" stroke="#191970" d="M2722.728,-369.389C2742.1052,-344.4222 2780.7061,-294.6864 2801.3044,-268.1462"/>
<polygon fill="#191970" stroke="#191970" points="2804.1797,-270.15 2807.546,-260.1042 2798.6498,-265.8581 2804.1797,-270.15"/>
</g>
<!-- Node44&#45;&gt;Node22 -->
<g id="edge152" class="edge">
<title>Node44&#45;&gt;Node22</title>
<path fill="none" stroke="#191970" d="M2710.7336,-369.4188C2709.8848,-352.2565 2706.7886,-323.7865 2696,-302 2689.3878,-288.6475 2678.2679,-276.2287 2668.5039,-266.9329"/>
<polygon fill="#191970" stroke="#191970" points="2670.8326,-264.3198 2661.0761,-260.1893 2666.1272,-269.5025 2670.8326,-264.3198"/>
</g>
<!-- Node44&#45;&gt;Node43 -->
<g id="edge146" class="edge">
<title>Node44&#45;&gt;Node43</title>
<path fill="none" stroke="#191970" d="M2693.9813,-369.2967C2684.1044,-360.4733 2671.4931,-349.2072 2660.5562,-339.4368"/>
<polygon fill="#191970" stroke="#191970" points="2662.7407,-336.6952 2652.9513,-332.6432 2658.0772,-341.9155 2662.7407,-336.6952"/>
</g>
</g>
</svg>
