<?xml version="1.0" encoding="UTF-8" standalone="no"?>
<!DOCTYPE svg PUBLIC "-//W3C//DTD SVG 1.1//EN"
 "http://www.w3.org/Graphics/SVG/1.1/DTD/svg11.dtd">
<!-- Generated by graphviz version 2.38.0 (20140413.2041)
 -->
<!-- Title: plugins/invoker/scxml/USCXMLInvoker.cpp Pages: 1 -->
<svg width="3495pt" height="732pt"
 viewBox="0.00 0.00 3494.60 732.00" xmlns="http://www.w3.org/2000/svg" xmlns:xlink="http://www.w3.org/1999/xlink">
<g id="graph0" class="graph" transform="scale(1 1) rotate(0) translate(4 728)">
<title>plugins/invoker/scxml/USCXMLInvoker.cpp</title>
<polygon fill="white" stroke="none" points="-4,4 -4,-728 3490.6,-728 3490.6,4 -4,4"/>
<!-- Node1 -->
<g id="node1" class="node"><title>Node1</title>
<polygon fill="#bfbfbf" stroke="black" points="810.5,-693.5 810.5,-723.5 923.5,-723.5 923.5,-693.5 810.5,-693.5"/>
<text text-anchor="start" x="818.5" y="-711.5" font-family="Helvetica,sans-Serif" font-size="10.00">plugins/invoker/scxml</text>
<text text-anchor="middle" x="867" y="-700.5" font-family="Helvetica,sans-Serif" font-size="10.00">/USCXMLInvoker.cpp</text>
</g>
<!-- Node2 -->
<g id="node2" class="node"><title>Node2</title>
<g id="a_node2"><a xlink:href="_u_s_c_x_m_l_invoker_8h.html" target="_top" xlink:title="USCXMLInvoker.h">
<polygon fill="white" stroke="black" points="1608.5,-637.5 1608.5,-656.5 1707.5,-656.5 1707.5,-637.5 1608.5,-637.5"/>
<text text-anchor="middle" x="1658" y="-644.5" font-family="Helvetica,sans-Serif" font-size="10.00">USCXMLInvoker.h</text>
</a>
</g>
</g>
<!-- Node1&#45;&gt;Node2 -->
<g id="edge1" class="edge"><title>Node1&#45;&gt;Node2</title>
<path fill="none" stroke="midnightblue" d="M923.569,-703.245C1068.08,-692.374 1449.84,-663.658 1598.01,-652.512"/>
<polygon fill="midnightblue" stroke="midnightblue" points="1598.56,-655.981 1608.27,-651.741 1598.04,-649.001 1598.56,-655.981"/>
</g>
<!-- Node15 -->
<g id="node15" class="node"><title>Node15</title>
<polygon fill="white" stroke="#bfbfbf" points="1195.5,-118 1195.5,-137 1280.5,-137 1280.5,-118 1195.5,-118"/>
<text text-anchor="middle" x="1238" y="-125" font-family="Helvetica,sans-Serif" font-size="10.00">uscxml/config.h</text>
</g>
<!-- Node1&#45;&gt;Node15 -->
<g id="edge162" class="edge"><title>Node1&#45;&gt;Node15</title>
<path fill="none" stroke="midnightblue" d="M810.431,-704.816C629.39,-695.482 76,-660.868 76,-586.5 76,-586.5 76,-586.5 76,-523 76,-361.954 635.845,-450.39 792,-411 878.821,-389.1 909.559,-396.629 982,-344 1026.37,-311.763 1013.79,-279.775 1057,-246 1088.68,-221.239 1105.93,-231.361 1140,-210 1157.89,-198.783 1159.81,-192.557 1176,-179 1190.35,-166.977 1206.79,-153.606 1219.14,-143.643"/>
<polygon fill="midnightblue" stroke="midnightblue" points="1221.36,-146.348 1226.95,-137.35 1216.97,-140.896 1221.36,-146.348"/>
</g>
<!-- Node3 -->
<g id="node3" class="node"><title>Node3</title>
<g id="a_node3"><a xlink:href="_interpreter_impl_8h.html" target="_top" xlink:title="uscxml/interpreter\l/InterpreterImpl.h">
<polygon fill="white" stroke="black" points="1365,-570.5 1365,-600.5 1461,-600.5 1461,-570.5 1365,-570.5"/>
<text text-anchor="start" x="1373" y="-588.5" font-family="Helvetica,sans-Serif" font-size="10.00">uscxml/interpreter</text>
<text text-anchor="middle" x="1413" y="-577.5" font-family="Helvetica,sans-Serif" font-size="10.00">/InterpreterImpl.h</text>
</a>
</g>
</g>
<!-- Node2&#45;&gt;Node3 -->
<g id="edge2" class="edge"><title>Node2&#45;&gt;Node3</title>
<path fill="none" stroke="midnightblue" d="M1622.9,-637.475C1583.25,-627.845 1518.1,-612.024 1470.89,-600.559"/>
<polygon fill="midnightblue" stroke="midnightblue" points="1471.65,-597.142 1461.1,-598.183 1470,-603.944 1471.65,-597.142"/>
</g>
<!-- Node29 -->
<g id="node29" class="node"><title>Node29</title>
<g id="a_node29"><a xlink:href="_invoker_8h.html" target="_top" xlink:title="uscxml/plugins/Invoker.h">
<polygon fill="white" stroke="black" points="1080,-386 1080,-405 1206,-405 1206,-386 1080,-386"/>
<text text-anchor="middle" x="1143" y="-393" font-family="Helvetica,sans-Serif" font-size="10.00">uscxml/plugins/Invoker.h</text>
</a>
</g>
</g>
<!-- Node2&#45;&gt;Node29 -->
<g id="edge156" class="edge"><title>Node2&#45;&gt;Node29</title>
<path fill="none" stroke="midnightblue" d="M1640.27,-637.412C1563.82,-600.373 1262.03,-454.166 1169.87,-409.518"/>
<polygon fill="midnightblue" stroke="midnightblue" points="1171.18,-406.262 1160.65,-405.052 1168.13,-412.562 1171.18,-406.262"/>
</g>
<!-- Node49 -->
<g id="node49" class="node"><title>Node49</title>
<g id="a_node49"><a xlink:href="_basic_event_queue_8h.html" target="_top" xlink:title="uscxml/interpreter\l/BasicEventQueue.h">
<polygon fill="white" stroke="black" points="2894,-380.5 2894,-410.5 3002,-410.5 3002,-380.5 2894,-380.5"/>
<text text-anchor="start" x="2902" y="-398.5" font-family="Helvetica,sans-Serif" font-size="10.00">uscxml/interpreter</text>
<text text-anchor="middle" x="2948" y="-387.5" font-family="Helvetica,sans-Serif" font-size="10.00">/BasicEventQueue.h</text>
</a>
</g>
</g>
<!-- Node2&#45;&gt;Node49 -->
<g id="edge147" class="edge"><title>Node2&#45;&gt;Node49</title>
<path fill="none" stroke="midnightblue" d="M1702.03,-637.484C1893.82,-600.39 2656.82,-452.818 2883.91,-408.895"/>
<polygon fill="midnightblue" stroke="midnightblue" points="2884.85,-412.28 2894,-406.944 2883.52,-405.407 2884.85,-412.28"/>
</g>
<!-- Node50 -->
<g id="node50" class="node"><title>Node50</title>
<g id="a_node50"><a xlink:href="_invoker_impl_8h.html" target="_top" xlink:title="uscxml/plugins/InvokerImpl.h">
<polygon fill="white" stroke="black" points="1544.5,-386 1544.5,-405 1689.5,-405 1689.5,-386 1544.5,-386"/>
<text text-anchor="middle" x="1617" y="-393" font-family="Helvetica,sans-Serif" font-size="10.00">uscxml/plugins/InvokerImpl.h</text>
</a>
</g>
</g>
<!-- Node2&#45;&gt;Node50 -->
<g id="edge157" class="edge"><title>Node2&#45;&gt;Node50</title>
<path fill="none" stroke="midnightblue" d="M1671.88,-637.43C1715.58,-609.391 1844.4,-518.106 1791,-447 1783.25,-436.676 1713.86,-418.822 1665.1,-407.344"/>
<polygon fill="midnightblue" stroke="midnightblue" points="1665.87,-403.93 1655.34,-405.067 1664.28,-410.747 1665.87,-403.93"/>
</g>
<!-- Node4 -->
<g id="node4" class="node"><title>Node4</title>
<polygon fill="white" stroke="#bfbfbf" points="742.5,-118 742.5,-137 795.5,-137 795.5,-118 742.5,-118"/>
<text text-anchor="middle" x="769" y="-125" font-family="Helvetica,sans-Serif" font-size="10.00">memory</text>
</g>
<!-- Node3&#45;&gt;Node4 -->
<g id="edge3" class="edge"><title>Node3&#45;&gt;Node4</title>
<path fill="none" stroke="midnightblue" d="M1364.77,-584.097C1183.99,-581.899 547.801,-567.81 370,-478 289.316,-437.245 264.247,-421.062 217,-344 193.894,-306.313 172.382,-280.517 200,-246 267.146,-162.082 616.771,-136.456 732.071,-130.223"/>
<polygon fill="midnightblue" stroke="midnightblue" points="732.366,-133.713 742.169,-129.695 732,-126.722 732.366,-133.713"/>
</g>
<!-- Node5 -->
<g id="node5" class="node"><title>Node5</title>
<polygon fill="white" stroke="#bfbfbf" points="2778,-252 2778,-271 2822,-271 2822,-252 2778,-252"/>
<text text-anchor="middle" x="2800" y="-259" font-family="Helvetica,sans-Serif" font-size="10.00">mutex</text>
</g>
<!-- Node3&#45;&gt;Node5 -->
<g id="edge4" class="edge"><title>Node3&#45;&gt;Node5</title>
<path fill="none" stroke="midnightblue" d="M1461.15,-581.588C1705.84,-566.635 2800,-497.85 2800,-463.5 2800,-463.5 2800,-463.5 2800,-394.5 2800,-354.158 2800,-306.88 2800,-281.282"/>
<polygon fill="midnightblue" stroke="midnightblue" points="2803.5,-281.149 2800,-271.149 2796.5,-281.149 2803.5,-281.149"/>
</g>
<!-- Node6 -->
<g id="node6" class="node"><title>Node6</title>
<polygon fill="white" stroke="#bfbfbf" points="2040.5,-118 2040.5,-137 2069.5,-137 2069.5,-118 2040.5,-118"/>
<text text-anchor="middle" x="2055" y="-125" font-family="Helvetica,sans-Serif" font-size="10.00">list</text>
</g>
<!-- Node3&#45;&gt;Node6 -->
<g id="edge5" class="edge"><title>Node3&#45;&gt;Node6</title>
<path fill="none" stroke="midnightblue" d="M1461.2,-584.343C1587.23,-580.962 1926.09,-552.1 2060,-344 2100.17,-281.577 2075.09,-186.515 2061.76,-146.866"/>
<polygon fill="midnightblue" stroke="midnightblue" points="2064.99,-145.501 2058.37,-137.226 2058.38,-147.82 2064.99,-145.501"/>
</g>
<!-- Node7 -->
<g id="node7" class="node"><title>Node7</title>
<polygon fill="white" stroke="#bfbfbf" points="2909,-118 2909,-137 2945,-137 2945,-118 2909,-118"/>
<text text-anchor="middle" x="2927" y="-125" font-family="Helvetica,sans-Serif" font-size="10.00">map</text>
</g>
<!-- Node3&#45;&gt;Node7 -->
<g id="edge6" class="edge"><title>Node3&#45;&gt;Node7</title>
<path fill="none" stroke="midnightblue" d="M1461.11,-583.08C1708.28,-575.753 2825.2,-542.243 2860,-534 2940.75,-514.871 3207.91,-387.812 3251,-344 3283.13,-311.334 3300.05,-288.529 3283,-246 3267.68,-207.777 3255.42,-198.221 3219,-179 3131.76,-132.96 3097.05,-160.611 3000,-143 2985.25,-140.324 2968.88,-137.096 2955.39,-134.366"/>
<polygon fill="midnightblue" stroke="midnightblue" points="2955.77,-130.871 2945.27,-132.303 2954.37,-137.73 2955.77,-130.871"/>
</g>
<!-- Node8 -->
<g id="node8" class="node"><title>Node8</title>
<polygon fill="white" stroke="#bfbfbf" points="2381.5,-56.5 2381.5,-75.5 2422.5,-75.5 2422.5,-56.5 2381.5,-56.5"/>
<text text-anchor="middle" x="2402" y="-63.5" font-family="Helvetica,sans-Serif" font-size="10.00">string</text>
</g>
<!-- Node3&#45;&gt;Node8 -->
<g id="edge7" class="edge"><title>Node3&#45;&gt;Node8</title>
<path fill="none" stroke="midnightblue" d="M1461.44,-584.206C1768.63,-582.033 3433,-565.548 3433,-463.5 3433,-463.5 3433,-463.5 3433,-193.5 3433,-163.033 3636.49,-200.194 3247,-112 3087.43,-75.8671 2565.85,-68.5445 2433.01,-67.2517"/>
<polygon fill="midnightblue" stroke="midnightblue" points="2432.77,-63.7494 2422.74,-67.1564 2432.71,-70.7491 2432.77,-63.7494"/>
</g>
<!-- Node9 -->
<g id="node9" class="node"><title>Node9</title>
<g id="a_node9"><a xlink:href="_common_8h.html" target="_top" xlink:title="uscxml/Common.h">
<polygon fill="white" stroke="black" points="923.5,-56.5 923.5,-75.5 1022.5,-75.5 1022.5,-56.5 923.5,-56.5"/>
<text text-anchor="middle" x="973" y="-63.5" font-family="Helvetica,sans-Serif" font-size="10.00">uscxml/Common.h</text>
</a>
</g>
</g>
<!-- Node3&#45;&gt;Node9 -->
<g id="edge8" class="edge"><title>Node3&#45;&gt;Node9</title>
<path fill="none" stroke="midnightblue" d="M1364.77,-582.952C1117.13,-574.693 0,-533.555 0,-463.5 0,-463.5 0,-463.5 0,-260.5 0,-170.098 57.0618,-150.192 139,-112 208.619,-79.5501 734.332,-69.989 913.444,-67.6575"/>
<polygon fill="midnightblue" stroke="midnightblue" points="913.522,-71.1568 923.477,-67.5297 913.433,-64.1574 913.522,-71.1568"/>
</g>
<!-- Node12 -->
<g id="node12" class="node"><title>Node12</title>
<g id="a_node12"><a xlink:href="_u_r_l_8h.html" target="_top" xlink:title="uscxml/util/URL.h">
<polygon fill="white" stroke="black" points="2373,-319 2373,-338 2467,-338 2467,-319 2373,-319"/>
<text text-anchor="middle" x="2420" y="-326" font-family="Helvetica,sans-Serif" font-size="10.00">uscxml/util/URL.h</text>
</a>
</g>
</g>
<!-- Node3&#45;&gt;Node12 -->
<g id="edge11" class="edge"><title>Node3&#45;&gt;Node12</title>
<path fill="none" stroke="midnightblue" d="M1461.06,-581.059C1611.23,-569.841 2069.84,-531.921 2208,-478 2289.81,-446.069 2370.27,-376.343 2403.76,-345.14"/>
<polygon fill="midnightblue" stroke="midnightblue" points="2406.36,-347.493 2411.23,-338.083 2401.56,-342.403 2406.36,-347.493"/>
</g>
<!-- Node25 -->
<g id="node25" class="node"><title>Node25</title>
<g id="a_node25"><a xlink:href="_factory_8h.html" target="_top" xlink:title="uscxml/plugins/Factory.h">
<polygon fill="white" stroke="black" points="1110.5,-514.5 1110.5,-533.5 1237.5,-533.5 1237.5,-514.5 1110.5,-514.5"/>
<text text-anchor="middle" x="1174" y="-521.5" font-family="Helvetica,sans-Serif" font-size="10.00">uscxml/plugins/Factory.h</text>
</a>
</g>
</g>
<!-- Node3&#45;&gt;Node25 -->
<g id="edge37" class="edge"><title>Node3&#45;&gt;Node25</title>
<path fill="none" stroke="midnightblue" d="M1364.92,-572.531C1322.11,-561.872 1259.97,-546.402 1218.33,-536.036"/>
<polygon fill="midnightblue" stroke="midnightblue" points="1219.02,-532.601 1208.47,-533.582 1217.33,-539.394 1219.02,-532.601"/>
</g>
<!-- Node30 -->
<g id="node30" class="node"><title>Node30</title>
<polygon fill="white" stroke="#bfbfbf" points="218.5,-252 218.5,-271 337.5,-271 337.5,-252 218.5,-252"/>
<text text-anchor="middle" x="278" y="-259" font-family="Helvetica,sans-Serif" font-size="10.00">xercesc/dom/DOM.hpp</text>
</g>
<!-- Node3&#45;&gt;Node30 -->
<g id="edge146" class="edge"><title>Node3&#45;&gt;Node30</title>
<path fill="none" stroke="midnightblue" d="M1364.68,-582.937C1229.87,-578.255 851.667,-562.858 731,-534 517.865,-483.029 397.489,-526.387 276,-344 263.589,-325.368 267.278,-298.647 271.91,-280.946"/>
<polygon fill="midnightblue" stroke="midnightblue" points="275.3,-281.825 274.78,-271.243 268.587,-279.839 275.3,-281.825"/>
</g>
<!-- Node31 -->
<g id="node31" class="node"><title>Node31</title>
<g id="a_node31"><a xlink:href="_data_model_impl_8h.html" target="_top" xlink:title="uscxml/plugins/DataModel\lImpl.h">
<polygon fill="white" stroke="black" points="1059.5,-447.5 1059.5,-477.5 1192.5,-477.5 1192.5,-447.5 1059.5,-447.5"/>
<text text-anchor="start" x="1067.5" y="-465.5" font-family="Helvetica,sans-Serif" font-size="10.00">uscxml/plugins/DataModel</text>
<text text-anchor="middle" x="1126" y="-454.5" font-family="Helvetica,sans-Serif" font-size="10.00">Impl.h</text>
</a>
</g>
</g>
<!-- Node3&#45;&gt;Node31 -->
<g id="edge77" class="edge"><title>Node3&#45;&gt;Node31</title>
<path fill="none" stroke="midnightblue" d="M1379.74,-570.444C1346.03,-556.207 1292.4,-533.557 1246,-514 1220.39,-503.207 1191.71,-491.134 1168.8,-481.5"/>
<polygon fill="midnightblue" stroke="midnightblue" points="1169.94,-478.182 1159.37,-477.531 1167.23,-484.634 1169.94,-478.182"/>
</g>
<!-- Node33 -->
<g id="node33" class="node"><title>Node33</title>
<g id="a_node33"><a xlink:href="_micro_step_impl_8h.html" target="_top" xlink:title="uscxml/interpreter\l/MicroStepImpl.h">
<polygon fill="white" stroke="black" points="1686,-447.5 1686,-477.5 1782,-477.5 1782,-447.5 1686,-447.5"/>
<text text-anchor="start" x="1694" y="-465.5" font-family="Helvetica,sans-Serif" font-size="10.00">uscxml/interpreter</text>
<text text-anchor="middle" x="1734" y="-454.5" font-family="Helvetica,sans-Serif" font-size="10.00">/MicroStepImpl.h</text>
</a>
</g>
</g>
<!-- Node3&#45;&gt;Node33 -->
<g id="edge78" class="edge"><title>Node3&#45;&gt;Node33</title>
<path fill="none" stroke="midnightblue" d="M1450.45,-570.383C1509.28,-548.206 1623.25,-505.249 1687.33,-481.093"/>
<polygon fill="midnightblue" stroke="midnightblue" points="1688.66,-484.329 1696.79,-477.527 1686.2,-477.779 1688.66,-484.329"/>
</g>
<!-- Node40 -->
<g id="node40" class="node"><title>Node40</title>
<g id="a_node40"><a xlink:href="_content_executor_impl_8h.html" target="_top" xlink:title="uscxml/interpreter\l/ContentExecutorImpl.h">
<polygon fill="white" stroke="black" points="662.5,-380.5 662.5,-410.5 783.5,-410.5 783.5,-380.5 662.5,-380.5"/>
<text text-anchor="start" x="670.5" y="-398.5" font-family="Helvetica,sans-Serif" font-size="10.00">uscxml/interpreter</text>
<text text-anchor="middle" x="723" y="-387.5" font-family="Helvetica,sans-Serif" font-size="10.00">/ContentExecutorImpl.h</text>
</a>
</g>
</g>
<!-- Node3&#45;&gt;Node40 -->
<g id="edge110" class="edge"><title>Node3&#45;&gt;Node40</title>
<path fill="none" stroke="midnightblue" d="M1364.68,-584.05C1260.73,-581.354 1010.22,-565.492 824,-478 792.634,-463.264 762.499,-436.815 743.439,-418.048"/>
<polygon fill="midnightblue" stroke="midnightblue" points="745.748,-415.406 736.217,-410.779 740.782,-420.34 745.748,-415.406"/>
</g>
<!-- Node41 -->
<g id="node41" class="node"><title>Node41</title>
<g id="a_node41"><a xlink:href="_d_o_m_8h.html" target="_top" xlink:title="uscxml/util/DOM.h">
<polygon fill="white" stroke="black" points="674,-319 674,-338 772,-338 772,-319 674,-319"/>
<text text-anchor="middle" x="723" y="-326" font-family="Helvetica,sans-Serif" font-size="10.00">uscxml/util/DOM.h</text>
</a>
</g>
</g>
<!-- Node3&#45;&gt;Node41 -->
<g id="edge145" class="edge"><title>Node3&#45;&gt;Node41</title>
<path fill="none" stroke="midnightblue" d="M1364.84,-583.864C1275.52,-581.748 1078.62,-572.673 918,-534 791.761,-503.605 718.927,-522.864 653,-411 646.005,-399.13 646.724,-392.266 653,-380 661.479,-363.429 678.21,-351.049 693.19,-342.695"/>
<polygon fill="midnightblue" stroke="midnightblue" points="694.941,-345.729 702.201,-338.012 691.713,-339.518 694.941,-345.729"/>
</g>
<!-- Node46 -->
<g id="node46" class="node"><title>Node46</title>
<g id="a_node46"><a xlink:href="_event_queue_8h.html" target="_top" xlink:title="uscxml/interpreter\l/EventQueue.h">
<polygon fill="white" stroke="black" points="522,-313.5 522,-343.5 618,-343.5 618,-313.5 522,-313.5"/>
<text text-anchor="start" x="530" y="-331.5" font-family="Helvetica,sans-Serif" font-size="10.00">uscxml/interpreter</text>
<text text-anchor="middle" x="570" y="-320.5" font-family="Helvetica,sans-Serif" font-size="10.00">/EventQueue.h</text>
</a>
</g>
</g>
<!-- Node3&#45;&gt;Node46 -->
<g id="edge132" class="edge"><title>Node3&#45;&gt;Node46</title>
<path fill="none" stroke="midnightblue" d="M1364.84,-582.454C1240.92,-576.873 913.392,-560.043 808,-534 746.133,-518.712 725.711,-517.875 676,-478 632.111,-442.795 598.096,-384.952 581.382,-352.835"/>
<polygon fill="midnightblue" stroke="midnightblue" points="584.412,-351.072 576.758,-343.747 578.173,-354.246 584.412,-351.072"/>
</g>
<!-- Node47 -->
<g id="node47" class="node"><title>Node47</title>
<g id="a_node47"><a xlink:href="_event_queue_impl_8h.html" target="_top" xlink:title="uscxml/interpreter\l/EventQueueImpl.h">
<polygon fill="white" stroke="black" points="2978,-313.5 2978,-343.5 3080,-343.5 3080,-313.5 2978,-313.5"/>
<text text-anchor="start" x="2986" y="-331.5" font-family="Helvetica,sans-Serif" font-size="10.00">uscxml/interpreter</text>
<text text-anchor="middle" x="3029" y="-320.5" font-family="Helvetica,sans-Serif" font-size="10.00">/EventQueueImpl.h</text>
</a>
</g>
</g>
<!-- Node3&#45;&gt;Node47 -->
<g id="edge135" class="edge"><title>Node3&#45;&gt;Node47</title>
<path fill="none" stroke="midnightblue" d="M1461.11,-582.014C1521.55,-578.941 1628.43,-573.669 1720,-570 1841.52,-565.131 2697.65,-569.421 2814,-534 2912.75,-503.939 2951.45,-495.307 3011,-411 3022.73,-394.398 3027.01,-371.521 3028.48,-354.229"/>
<polygon fill="midnightblue" stroke="midnightblue" points="3032,-353.983 3029.09,-343.795 3025.01,-353.572 3032,-353.983"/>
</g>
<!-- Node10 -->
<g id="node10" class="node"><title>Node10</title>
<polygon fill="white" stroke="#bfbfbf" points="899,-0.5 899,-19.5 971,-19.5 971,-0.5 899,-0.5"/>
<text text-anchor="middle" x="935" y="-7.5" font-family="Helvetica,sans-Serif" font-size="10.00">sys/socket.h</text>
</g>
<!-- Node9&#45;&gt;Node10 -->
<g id="edge9" class="edge"><title>Node9&#45;&gt;Node10</title>
<path fill="none" stroke="midnightblue" d="M966.725,-56.083C961.358,-48.4554 953.482,-37.2645 946.921,-27.9408"/>
<polygon fill="midnightblue" stroke="midnightblue" points="949.775,-25.9149 941.158,-19.7511 944.051,-29.9434 949.775,-25.9149"/>
</g>
<!-- Node11 -->
<g id="node11" class="node"><title>Node11</title>
<polygon fill="white" stroke="#bfbfbf" points="989,-0.5 989,-19.5 1033,-19.5 1033,-0.5 989,-0.5"/>
<text text-anchor="middle" x="1011" y="-7.5" font-family="Helvetica,sans-Serif" font-size="10.00">cmath</text>
</g>
<!-- Node9&#45;&gt;Node11 -->
<g id="edge10" class="edge"><title>Node9&#45;&gt;Node11</title>
<path fill="none" stroke="midnightblue" d="M979.275,-56.083C984.642,-48.4554 992.518,-37.2645 999.079,-27.9408"/>
<polygon fill="midnightblue" stroke="midnightblue" points="1001.95,-29.9434 1004.84,-19.7511 996.225,-25.9149 1001.95,-29.9434"/>
</g>
<!-- Node12&#45;&gt;Node6 -->
<g id="edge32" class="edge"><title>Node12&#45;&gt;Node6</title>
<path fill="none" stroke="midnightblue" d="M2379.11,-318.973C2345.01,-310.923 2295.76,-297.072 2256,-277 2236.26,-267.035 2120.5,-178.77 2074.16,-143.23"/>
<polygon fill="midnightblue" stroke="midnightblue" points="2076.17,-140.364 2066.11,-137.051 2071.91,-145.916 2076.17,-140.364"/>
</g>
<!-- Node12&#45;&gt;Node7 -->
<g id="edge30" class="edge"><title>Node12&#45;&gt;Node7</title>
<path fill="none" stroke="midnightblue" d="M2440.66,-318.838C2463.96,-308.993 2502.91,-292.303 2536,-277 2625.85,-235.456 2643.26,-213.597 2736,-179 2792.3,-157.997 2861,-142.088 2898.76,-134.139"/>
<polygon fill="midnightblue" stroke="midnightblue" points="2899.91,-137.475 2908.99,-132.02 2898.49,-130.62 2899.91,-137.475"/>
</g>
<!-- Node12&#45;&gt;Node8 -->
<g id="edge28" class="edge"><title>Node12&#45;&gt;Node8</title>
<path fill="none" stroke="midnightblue" d="M2447.33,-318.958C2466.67,-311.319 2491.18,-298.026 2503,-277 2509.75,-264.99 2506.5,-259.326 2503,-246 2485.83,-180.633 2438.78,-114.007 2415.46,-83.7664"/>
<polygon fill="midnightblue" stroke="midnightblue" points="2417.97,-81.2977 2409.05,-75.5914 2412.47,-85.6191 2417.97,-81.2977"/>
</g>
<!-- Node12&#45;&gt;Node9 -->
<g id="edge12" class="edge"><title>Node12&#45;&gt;Node9</title>
<path fill="none" stroke="midnightblue" d="M2385.25,-318.977C2361.12,-311.48 2329.71,-298.354 2309,-277 2276.13,-243.106 2302.33,-211.416 2268,-179 2202.9,-117.522 2165.93,-128.898 2078,-112 1875.17,-73.0209 1232.78,-67.7757 1032.93,-67.0943"/>
<polygon fill="midnightblue" stroke="midnightblue" points="1032.65,-63.5934 1022.64,-67.0619 1032.63,-70.5934 1032.65,-63.5934"/>
</g>
<!-- Node13 -->
<g id="node13" class="node"><title>Node13</title>
<g id="a_node13"><a xlink:href="_event_8h.html" target="_top" xlink:title="uscxml/messages/Event.h">
<polygon fill="white" stroke="black" points="1342.5,-252 1342.5,-271 1475.5,-271 1475.5,-252 1342.5,-252"/>
<text text-anchor="middle" x="1409" y="-259" font-family="Helvetica,sans-Serif" font-size="10.00">uscxml/messages/Event.h</text>
</a>
</g>
</g>
<!-- Node12&#45;&gt;Node13 -->
<g id="edge13" class="edge"><title>Node12&#45;&gt;Node13</title>
<path fill="none" stroke="midnightblue" d="M2372.93,-324.474C2212.29,-314.145 1684.63,-280.221 1485.76,-267.435"/>
<polygon fill="midnightblue" stroke="midnightblue" points="1485.89,-263.936 1475.68,-266.787 1485.44,-270.922 1485.89,-263.936"/>
</g>
<!-- Node18 -->
<g id="node18" class="node"><title>Node18</title>
<polygon fill="white" stroke="#bfbfbf" points="1621,-56.5 1621,-75.5 1673,-75.5 1673,-56.5 1621,-56.5"/>
<text text-anchor="middle" x="1647" y="-63.5" font-family="Helvetica,sans-Serif" font-size="10.00">sstream</text>
</g>
<!-- Node12&#45;&gt;Node18 -->
<g id="edge29" class="edge"><title>Node12&#45;&gt;Node18</title>
<path fill="none" stroke="midnightblue" d="M2391.51,-318.947C2370.65,-311.244 2343.25,-297.875 2327,-277 2299.38,-241.532 2318.79,-220.696 2302,-179 2289.21,-147.245 2292.93,-130.296 2264,-112 2214.93,-80.9757 1808.68,-70.258 1683.55,-67.6752"/>
<polygon fill="midnightblue" stroke="midnightblue" points="1683.41,-64.1718 1673.34,-67.4698 1683.27,-71.1704 1683.41,-64.1718"/>
</g>
<!-- Node20 -->
<g id="node20" class="node"><title>Node20</title>
<polygon fill="white" stroke="#bfbfbf" points="1066,-252 1066,-271 1096,-271 1096,-252 1066,-252"/>
<text text-anchor="middle" x="1081" y="-259" font-family="Helvetica,sans-Serif" font-size="10.00">set</text>
</g>
<!-- Node12&#45;&gt;Node20 -->
<g id="edge31" class="edge"><title>Node12&#45;&gt;Node20</title>
<path fill="none" stroke="midnightblue" d="M2372.84,-325.496C2221.64,-319.029 1735.33,-297.92 1333,-277 1249.92,-272.68 1151.47,-266.793 1106.14,-264.039"/>
<polygon fill="midnightblue" stroke="midnightblue" points="1106.25,-260.539 1096.05,-263.424 1105.82,-267.526 1106.25,-260.539"/>
</g>
<!-- Node21 -->
<g id="node21" class="node"><title>Node21</title>
<polygon fill="white" stroke="#bfbfbf" points="2955.5,-252 2955.5,-271 3000.5,-271 3000.5,-252 2955.5,-252"/>
<text text-anchor="middle" x="2978" y="-259" font-family="Helvetica,sans-Serif" font-size="10.00">thread</text>
</g>
<!-- Node12&#45;&gt;Node21 -->
<g id="edge33" class="edge"><title>Node12&#45;&gt;Node21</title>
<path fill="none" stroke="midnightblue" d="M2467.35,-328.117C2560.63,-328.212 2774.03,-322.854 2946,-277 2948.15,-276.425 2950.35,-275.719 2952.52,-274.931"/>
<polygon fill="midnightblue" stroke="midnightblue" points="2953.87,-278.159 2961.77,-271.1 2951.2,-271.691 2953.87,-278.159"/>
</g>
<!-- Node22 -->
<g id="node22" class="node"><title>Node22</title>
<polygon fill="white" stroke="#bfbfbf" points="2840.5,-252 2840.5,-271 2937.5,-271 2937.5,-252 2840.5,-252"/>
<text text-anchor="middle" x="2889" y="-259" font-family="Helvetica,sans-Serif" font-size="10.00">condition_variable</text>
</g>
<!-- Node12&#45;&gt;Node22 -->
<g id="edge34" class="edge"><title>Node12&#45;&gt;Node22</title>
<path fill="none" stroke="midnightblue" d="M2467.13,-323.605C2543.83,-316.843 2700.24,-301.284 2831,-277 2836.49,-275.981 2842.22,-274.751 2847.87,-273.443"/>
<polygon fill="midnightblue" stroke="midnightblue" points="2848.95,-276.783 2857.85,-271.034 2847.31,-269.978 2848.95,-276.783"/>
</g>
<!-- Node23 -->
<g id="node23" class="node"><title>Node23</title>
<polygon fill="white" stroke="#bfbfbf" points="2434,-252 2434,-271 2494,-271 2494,-252 2434,-252"/>
<text text-anchor="middle" x="2464" y="-259" font-family="Helvetica,sans-Serif" font-size="10.00">curl/curl.h</text>
</g>
<!-- Node12&#45;&gt;Node23 -->
<g id="edge35" class="edge"><title>Node12&#45;&gt;Node23</title>
<path fill="none" stroke="midnightblue" d="M2425.93,-318.734C2432.73,-308.695 2444.02,-292.014 2452.55,-279.421"/>
<polygon fill="midnightblue" stroke="midnightblue" points="2455.45,-281.37 2458.16,-271.127 2449.66,-277.446 2455.45,-281.37"/>
</g>
<!-- Node24 -->
<g id="node24" class="node"><title>Node24</title>
<polygon fill="white" stroke="#bfbfbf" points="2336,-252 2336,-271 2416,-271 2416,-252 2336,-252"/>
<text text-anchor="middle" x="2376" y="-259" font-family="Helvetica,sans-Serif" font-size="10.00">uriparser/Uri.h</text>
</g>
<!-- Node12&#45;&gt;Node24 -->
<g id="edge36" class="edge"><title>Node12&#45;&gt;Node24</title>
<path fill="none" stroke="midnightblue" d="M2414.07,-318.734C2407.27,-308.695 2395.98,-292.014 2387.45,-279.421"/>
<polygon fill="midnightblue" stroke="midnightblue" points="2390.34,-277.446 2381.84,-271.127 2384.55,-281.37 2390.34,-277.446"/>
</g>
<!-- Node14 -->
<g id="node14" class="node"><title>Node14</title>
<g id="a_node14"><a xlink:href="_data_8h.html" target="_top" xlink:title="uscxml/messages/Data.h">
<polygon fill="white" stroke="red" points="1608,-185 1608,-204 1736,-204 1736,-185 1608,-185"/>
<text text-anchor="middle" x="1672" y="-192" font-family="Helvetica,sans-Serif" font-size="10.00">uscxml/messages/Data.h</text>
</a>
</g>
</g>
<!-- Node13&#45;&gt;Node14 -->
<g id="edge14" class="edge"><title>Node13&#45;&gt;Node14</title>
<path fill="none" stroke="midnightblue" d="M1443.65,-251.936C1490.86,-240.268 1575.43,-219.367 1627.34,-206.537"/>
<polygon fill="midnightblue" stroke="midnightblue" points="1628.4,-209.881 1637.27,-204.083 1626.72,-203.085 1628.4,-209.881"/>
</g>
<!-- Node19 -->
<g id="node19" class="node"><title>Node19</title>
<g id="a_node19"><a xlink:href="_u_u_i_d_8h.html" target="_top" xlink:title="uscxml/util/UUID.h">
<polygon fill="white" stroke="black" points="1884.5,-118 1884.5,-137 1983.5,-137 1983.5,-118 1884.5,-118"/>
<text text-anchor="middle" x="1934" y="-125" font-family="Helvetica,sans-Serif" font-size="10.00">uscxml/util/UUID.h</text>
</a>
</g>
</g>
<!-- Node13&#45;&gt;Node19 -->
<g id="edge25" class="edge"><title>Node13&#45;&gt;Node19</title>
<path fill="none" stroke="midnightblue" d="M1475.74,-255.572C1544.33,-249.328 1653.68,-236.077 1745,-210 1776.94,-200.878 1862.19,-162.013 1906.46,-141.422"/>
<polygon fill="midnightblue" stroke="midnightblue" points="1908.17,-144.484 1915.76,-137.085 1905.22,-138.14 1908.17,-144.484"/>
</g>
<!-- Node14&#45;&gt;Node4 -->
<g id="edge17" class="edge"><title>Node14&#45;&gt;Node4</title>
<path fill="none" stroke="midnightblue" d="M1607.88,-186.607C1581.6,-183.951 1550.86,-181.064 1523,-179 1209.23,-155.757 1125.82,-197.798 816,-143 811.528,-142.209 806.885,-141.121 802.336,-139.893"/>
<polygon fill="midnightblue" stroke="midnightblue" points="803.209,-136.502 792.628,-137.043 801.237,-143.218 803.209,-136.502"/>
</g>
<!-- Node14&#45;&gt;Node6 -->
<g id="edge15" class="edge"><title>Node14&#45;&gt;Node6</title>
<path fill="none" stroke="midnightblue" d="M1734.17,-184.999C1798.81,-175.853 1902.83,-160.277 1992,-143 2004.74,-140.532 2018.82,-137.336 2030.43,-134.573"/>
<polygon fill="midnightblue" stroke="midnightblue" points="2031.4,-137.941 2040.3,-132.19 2029.75,-131.136 2031.4,-137.941"/>
</g>
<!-- Node14&#45;&gt;Node7 -->
<g id="edge16" class="edge"><title>Node14&#45;&gt;Node7</title>
<path fill="none" stroke="midnightblue" d="M1736.4,-190.165C1965.97,-178.274 2739.15,-138.229 2898.23,-129.99"/>
<polygon fill="midnightblue" stroke="midnightblue" points="2898.8,-133.465 2908.61,-129.452 2898.44,-126.474 2898.8,-133.465"/>
</g>
<!-- Node14&#45;&gt;Node9 -->
<g id="edge19" class="edge"><title>Node14&#45;&gt;Node9</title>
<path fill="none" stroke="midnightblue" d="M1652.52,-184.898C1631.81,-175.493 1598.34,-159.543 1571,-143 1550.84,-130.804 1550.11,-120.14 1528,-112 1438.44,-79.0265 1156.87,-70.1473 1032.76,-67.8106"/>
<polygon fill="midnightblue" stroke="midnightblue" points="1032.74,-64.3096 1022.68,-67.6286 1032.61,-71.3085 1032.74,-64.3096"/>
</g>
<!-- Node14&#45;&gt;Node15 -->
<g id="edge18" class="edge"><title>Node14&#45;&gt;Node15</title>
<path fill="none" stroke="midnightblue" d="M1607.75,-186.356C1533.93,-177.766 1409.28,-162.093 1303,-143 1296.73,-141.873 1290.14,-140.559 1283.67,-139.191"/>
<polygon fill="midnightblue" stroke="midnightblue" points="1284.17,-135.718 1273.65,-137.015 1282.68,-142.558 1284.17,-135.718"/>
</g>
<!-- Node16 -->
<g id="node16" class="node"><title>Node16</title>
<g id="a_node16"><a xlink:href="_convenience_8h.html" target="_top" xlink:title="uscxml/util/Convenience.h">
<polygon fill="white" stroke="black" points="1580.5,-118 1580.5,-137 1713.5,-137 1713.5,-118 1580.5,-118"/>
<text text-anchor="middle" x="1647" y="-125" font-family="Helvetica,sans-Serif" font-size="10.00">uscxml/util/Convenience.h</text>
</a>
</g>
</g>
<!-- Node14&#45;&gt;Node16 -->
<g id="edge20" class="edge"><title>Node14&#45;&gt;Node16</title>
<path fill="none" stroke="midnightblue" d="M1668.63,-184.734C1664.88,-174.988 1658.72,-158.981 1653.94,-146.532"/>
<polygon fill="midnightblue" stroke="midnightblue" points="1657.17,-145.204 1650.32,-137.127 1650.64,-147.717 1657.17,-145.204"/>
</g>
<!-- Node16&#45;&gt;Node8 -->
<g id="edge22" class="edge"><title>Node16&#45;&gt;Node8</title>
<path fill="none" stroke="midnightblue" d="M1689.74,-117.937C1702.05,-115.72 1715.52,-113.529 1728,-112 1974.87,-81.7567 2275.27,-70.7391 2371.09,-67.8487"/>
<polygon fill="midnightblue" stroke="midnightblue" points="2371.35,-71.3426 2381.24,-67.55 2371.14,-64.3457 2371.35,-71.3426"/>
</g>
<!-- Node16&#45;&gt;Node9 -->
<g id="edge21" class="edge"><title>Node16&#45;&gt;Node9</title>
<path fill="none" stroke="midnightblue" d="M1603.83,-117.935C1591.63,-115.744 1578.33,-113.567 1566,-112 1371.97,-87.3354 1140.37,-74.5323 1033.06,-69.5421"/>
<polygon fill="midnightblue" stroke="midnightblue" points="1032.91,-66.0316 1022.76,-69.0694 1032.59,-73.0242 1032.91,-66.0316"/>
</g>
<!-- Node17 -->
<g id="node17" class="node"><title>Node17</title>
<polygon fill="white" stroke="#bfbfbf" points="444.5,-56.5 444.5,-75.5 483.5,-75.5 483.5,-56.5 444.5,-56.5"/>
<text text-anchor="middle" x="464" y="-63.5" font-family="Helvetica,sans-Serif" font-size="10.00">limits</text>
</g>
<!-- Node16&#45;&gt;Node17 -->
<g id="edge23" class="edge"><title>Node16&#45;&gt;Node17</title>
<path fill="none" stroke="midnightblue" d="M1580.38,-121.998C1534.7,-118.98 1472.69,-115.021 1418,-112 1053.96,-91.8904 611.469,-73.1271 493.867,-68.2334"/>
<polygon fill="midnightblue" stroke="midnightblue" points="493.951,-64.734 483.815,-67.816 493.661,-71.728 493.951,-64.734"/>
</g>
<!-- Node16&#45;&gt;Node18 -->
<g id="edge24" class="edge"><title>Node16&#45;&gt;Node18</title>
<path fill="none" stroke="midnightblue" d="M1647,-117.975C1647,-109.58 1647,-96.4806 1647,-85.6631"/>
<polygon fill="midnightblue" stroke="midnightblue" points="1650.5,-85.5091 1647,-75.5091 1643.5,-85.5091 1650.5,-85.5091"/>
</g>
<!-- Node19&#45;&gt;Node8 -->
<g id="edge27" class="edge"><title>Node19&#45;&gt;Node8</title>
<path fill="none" stroke="midnightblue" d="M1968.4,-117.963C1977.95,-115.798 1988.34,-113.627 1998,-112 2136.39,-88.6904 2303.56,-74.4407 2371.29,-69.241"/>
<polygon fill="midnightblue" stroke="midnightblue" points="2371.58,-72.7292 2381.29,-68.4841 2371.05,-65.7491 2371.58,-72.7292"/>
</g>
<!-- Node19&#45;&gt;Node9 -->
<g id="edge26" class="edge"><title>Node19&#45;&gt;Node9</title>
<path fill="none" stroke="midnightblue" d="M1901.31,-117.952C1891.33,-115.65 1880.27,-113.41 1870,-112 1556.98,-69.0166 1177.48,-65.8854 1032.87,-66.4477"/>
<polygon fill="midnightblue" stroke="midnightblue" points="1032.86,-62.9476 1022.87,-66.4941 1032.89,-69.9476 1032.86,-62.9476"/>
</g>
<!-- Node25&#45;&gt;Node4 -->
<g id="edge74" class="edge"><title>Node25&#45;&gt;Node4</title>
<path fill="none" stroke="midnightblue" d="M1110.33,-516.342C914.399,-495.66 331.62,-432.626 297,-411 236.571,-373.252 229.411,-345.264 209,-277 205.053,-263.8 199.88,-256.327 209,-246 251.841,-197.491 434.677,-223.367 498,-210 585.429,-191.545 685.414,-158.177 735.986,-140.4"/>
<polygon fill="midnightblue" stroke="midnightblue" points="737.163,-143.696 745.423,-137.062 734.828,-137.097 737.163,-143.696"/>
</g>
<!-- Node25&#45;&gt;Node8 -->
<g id="edge73" class="edge"><title>Node25&#45;&gt;Node8</title>
<path fill="none" stroke="midnightblue" d="M1237.65,-523.142C1486.21,-522.503 2388.64,-508.685 2611,-344 2693.87,-282.623 2697.17,-174.312 2615,-112 2586.61,-90.4745 2484.53,-76.2494 2432.69,-70.2453"/>
<polygon fill="midnightblue" stroke="midnightblue" points="2433.05,-66.7648 2422.73,-69.1217 2432.27,-73.7207 2433.05,-66.7648"/>
</g>
<!-- Node25&#45;&gt;Node9 -->
<g id="edge38" class="edge"><title>Node25&#45;&gt;Node9</title>
<path fill="none" stroke="midnightblue" d="M1110.46,-521.557C923.888,-516.381 381.164,-494.353 228,-411 190.173,-390.415 177.8,-382.244 158,-344 130.315,-290.526 142.457,-270.05 138,-210 134.598,-164.167 132.673,-137.363 171,-112 201.838,-91.593 732.258,-74.1071 913.138,-68.7136"/>
<polygon fill="midnightblue" stroke="midnightblue" points="913.378,-72.2081 923.27,-68.4132 913.171,-65.2112 913.378,-72.2081"/>
</g>
<!-- Node25&#45;&gt;Node17 -->
<g id="edge76" class="edge"><title>Node25&#45;&gt;Node17</title>
<path fill="none" stroke="midnightblue" d="M1110.47,-522.518C940.911,-520.766 480.549,-512.845 333,-478 190.144,-444.263 38,-476.286 38,-329.5 38,-329.5 38,-329.5 38,-260.5 38,-180.681 71.1856,-154.098 139,-112 188.139,-81.4954 363.829,-71.0702 434.372,-68.0634"/>
<polygon fill="midnightblue" stroke="midnightblue" points="434.524,-71.5602 444.374,-67.6573 434.24,-64.566 434.524,-71.5602"/>
</g>
<!-- Node25&#45;&gt;Node20 -->
<g id="edge75" class="edge"><title>Node25&#45;&gt;Node20</title>
<path fill="none" stroke="midnightblue" d="M1114.2,-514.414C1090.95,-508.086 1066.08,-497.093 1050,-478 1021.73,-444.437 1028.89,-422.925 1038,-380 1041.63,-362.872 1047.68,-360.33 1054,-344 1062.29,-322.561 1070.39,-297.375 1075.52,-280.738"/>
<polygon fill="midnightblue" stroke="midnightblue" points="1078.87,-281.75 1078.44,-271.164 1072.18,-279.711 1078.87,-281.75"/>
</g>
<!-- Node26 -->
<g id="node26" class="node"><title>Node26</title>
<g id="a_node26"><a xlink:href="_executable_content_8h.html" target="_top" xlink:title="uscxml/plugins/Executable\lContent.h">
<polygon fill="white" stroke="black" points="816,-179.5 816,-209.5 950,-209.5 950,-179.5 816,-179.5"/>
<text text-anchor="start" x="824" y="-197.5" font-family="Helvetica,sans-Serif" font-size="10.00">uscxml/plugins/Executable</text>
<text text-anchor="middle" x="883" y="-186.5" font-family="Helvetica,sans-Serif" font-size="10.00">Content.h</text>
</a>
</g>
</g>
<!-- Node25&#45;&gt;Node26 -->
<g id="edge39" class="edge"><title>Node25&#45;&gt;Node26</title>
<path fill="none" stroke="midnightblue" d="M1130.12,-514.487C1056.06,-497.375 909.231,-450.901 857,-344 836.99,-303.045 856.237,-249.089 870.59,-218.773"/>
<polygon fill="midnightblue" stroke="midnightblue" points="873.728,-220.323 875.022,-209.808 867.453,-217.221 873.728,-220.323"/>
</g>
<!-- Node27 -->
<g id="node27" class="node"><title>Node27</title>
<g id="a_node27"><a xlink:href="_event_handler_8h.html" target="_top" xlink:title="uscxml/plugins/EventHandler.h">
<polygon fill="white" stroke="black" points="1258,-319 1258,-338 1412,-338 1412,-319 1258,-319"/>
<text text-anchor="middle" x="1335" y="-326" font-family="Helvetica,sans-Serif" font-size="10.00">uscxml/plugins/EventHandler.h</text>
</a>
</g>
</g>
<!-- Node25&#45;&gt;Node27 -->
<g id="edge45" class="edge"><title>Node25&#45;&gt;Node27</title>
<path fill="none" stroke="midnightblue" d="M1214.37,-514.412C1263.89,-501.475 1345.72,-471.738 1382,-411 1395.65,-388.139 1372.86,-361.342 1354.5,-344.894"/>
<polygon fill="midnightblue" stroke="midnightblue" points="1356.41,-341.924 1346.52,-338.116 1351.87,-347.259 1356.41,-341.924"/>
</g>
<!-- Node28 -->
<g id="node28" class="node"><title>Node28</title>
<g id="a_node28"><a xlink:href="_i_o_processor_8h.html" target="_top" xlink:title="uscxml/plugins/IOProcessor.h">
<polygon fill="white" stroke="black" points="1224.5,-386 1224.5,-405 1373.5,-405 1373.5,-386 1224.5,-386"/>
<text text-anchor="middle" x="1299" y="-393" font-family="Helvetica,sans-Serif" font-size="10.00">uscxml/plugins/IOProcessor.h</text>
</a>
</g>
</g>
<!-- Node25&#45;&gt;Node28 -->
<g id="edge51" class="edge"><title>Node25&#45;&gt;Node28</title>
<path fill="none" stroke="midnightblue" d="M1182.59,-514.305C1203.38,-493.272 1256.62,-439.392 1283.28,-412.404"/>
<polygon fill="midnightblue" stroke="midnightblue" points="1285.81,-414.829 1290.35,-405.256 1280.83,-409.909 1285.81,-414.829"/>
</g>
<!-- Node25&#45;&gt;Node29 -->
<g id="edge55" class="edge"><title>Node25&#45;&gt;Node29</title>
<path fill="none" stroke="midnightblue" d="M1181.37,-514.377C1192.65,-500.083 1211.79,-470.704 1201,-447 1194.1,-431.844 1180.16,-419.469 1167.67,-410.762"/>
<polygon fill="midnightblue" stroke="midnightblue" points="1169.25,-407.612 1158.96,-405.084 1165.42,-413.476 1169.25,-407.612"/>
</g>
<!-- Node25&#45;&gt;Node31 -->
<g id="edge61" class="edge"><title>Node25&#45;&gt;Node31</title>
<path fill="none" stroke="midnightblue" d="M1167.12,-514.475C1161.05,-506.944 1151.92,-495.626 1143.8,-485.566"/>
<polygon fill="midnightblue" stroke="midnightblue" points="1146.32,-483.108 1137.31,-477.523 1140.87,-487.504 1146.32,-483.108"/>
</g>
<!-- Node32 -->
<g id="node32" class="node"><title>Node32</title>
<g id="a_node32"><a xlink:href="_string_8h.html" target="_top" xlink:title="string.h">
<polygon fill="white" stroke="black" points="2210.5,-185 2210.5,-204 2259.5,-204 2259.5,-185 2210.5,-185"/>
<text text-anchor="middle" x="2235" y="-192" font-family="Helvetica,sans-Serif" font-size="10.00">string.h</text>
</a>
</g>
</g>
<!-- Node25&#45;&gt;Node32 -->
<g id="edge70" class="edge"><title>Node25&#45;&gt;Node32</title>
<path fill="none" stroke="midnightblue" d="M1237.81,-521.827C1461.11,-516.888 2194,-493.304 2194,-396.5 2194,-396.5 2194,-396.5 2194,-327.5 2194,-285.086 2213.54,-238.316 2225.65,-213.424"/>
<polygon fill="midnightblue" stroke="midnightblue" points="2228.93,-214.678 2230.3,-204.172 2222.68,-211.534 2228.93,-214.678"/>
</g>
<!-- Node26&#45;&gt;Node4 -->
<g id="edge43" class="edge"><title>Node26&#45;&gt;Node4</title>
<path fill="none" stroke="midnightblue" d="M858.264,-179.396C838.792,-168.294 811.831,-152.921 792.646,-141.983"/>
<polygon fill="midnightblue" stroke="midnightblue" points="794.341,-138.92 783.92,-137.007 790.873,-145.001 794.341,-138.92"/>
</g>
<!-- Node26&#45;&gt;Node8 -->
<g id="edge42" class="edge"><title>Node26&#45;&gt;Node8</title>
<path fill="none" stroke="midnightblue" d="M950.057,-180.174C953.074,-179.742 956.065,-179.347 959,-179 1127.57,-159.044 1565.21,-208.039 1722,-143 1740.89,-135.165 1737.2,-120.046 1756,-112 1868.77,-63.7354 2258.65,-65.0557 2371.3,-66.4971"/>
<polygon fill="midnightblue" stroke="midnightblue" points="2371.27,-69.9969 2381.32,-66.6353 2371.37,-62.9976 2371.27,-69.9969"/>
</g>
<!-- Node26&#45;&gt;Node9 -->
<g id="edge41" class="edge"><title>Node26&#45;&gt;Node9</title>
<path fill="none" stroke="midnightblue" d="M892.975,-179.479C909.606,-156.104 942.939,-109.253 960.889,-84.0222"/>
<polygon fill="midnightblue" stroke="midnightblue" points="963.802,-85.9658 966.747,-75.7885 958.098,-81.9077 963.802,-85.9658"/>
</g>
<!-- Node26&#45;&gt;Node15 -->
<g id="edge40" class="edge"><title>Node26&#45;&gt;Node15</title>
<path fill="none" stroke="midnightblue" d="M950.13,-180.657C953.127,-180.094 956.095,-179.54 959,-179 1037.82,-164.348 1129.27,-147.9 1185.38,-137.871"/>
<polygon fill="midnightblue" stroke="midnightblue" points="1186.21,-141.279 1195.44,-136.075 1184.98,-134.388 1186.21,-141.279"/>
</g>
<!-- Node26&#45;&gt;Node18 -->
<g id="edge44" class="edge"><title>Node26&#45;&gt;Node18</title>
<path fill="none" stroke="midnightblue" d="M926.139,-179.47C984.445,-161.069 1091.94,-129.119 1186,-112 1342.41,-83.5326 1532.18,-72.1962 1610.5,-68.5093"/>
<polygon fill="midnightblue" stroke="midnightblue" points="1610.97,-71.9917 1620.8,-68.0388 1610.65,-64.999 1610.97,-71.9917"/>
</g>
<!-- Node27&#45;&gt;Node4 -->
<g id="edge50" class="edge"><title>Node27&#45;&gt;Node4</title>
<path fill="none" stroke="midnightblue" d="M1322.52,-318.951C1296.58,-301.69 1234.4,-262.889 1176,-246 1089.84,-221.085 836.526,-274.304 774,-210 758.048,-193.595 760.225,-165.476 764.011,-146.937"/>
<polygon fill="midnightblue" stroke="midnightblue" points="767.452,-147.595 766.364,-137.056 760.642,-145.973 767.452,-147.595"/>
</g>
<!-- Node27&#45;&gt;Node6 -->
<g id="edge48" class="edge"><title>Node27&#45;&gt;Node6</title>
<path fill="none" stroke="midnightblue" d="M1412.1,-322.579C1549.21,-313.474 1824.92,-293.428 1866,-277 1870.97,-275.013 1989.44,-180.775 2036.23,-143.473"/>
<polygon fill="midnightblue" stroke="midnightblue" points="2038.46,-146.176 2044.09,-137.205 2034.09,-140.703 2038.46,-146.176"/>
</g>
<!-- Node27&#45;&gt;Node8 -->
<g id="edge49" class="edge"><title>Node27&#45;&gt;Node8</title>
<path fill="none" stroke="midnightblue" d="M1412.06,-327.383C1498.2,-325.186 1640.86,-315.317 1757,-277 1871.18,-239.332 1892.43,-210.382 1992,-143 2010.34,-130.591 2010.57,-120.544 2031,-112 2092.46,-86.2951 2294.02,-72.8743 2371.39,-68.5693"/>
<polygon fill="midnightblue" stroke="midnightblue" points="2371.66,-72.0599 2381.45,-68.022 2371.28,-65.0702 2371.66,-72.0599"/>
</g>
<!-- Node27&#45;&gt;Node9 -->
<g id="edge46" class="edge"><title>Node27&#45;&gt;Node9</title>
<path fill="none" stroke="midnightblue" d="M1304.79,-318.926C1272.57,-309.544 1220.19,-293.613 1176,-277 1143.77,-264.883 1138.3,-254.769 1105,-246 1030.03,-226.255 819.314,-257.441 758,-210 722.449,-182.493 704.293,-146.59 733,-112 755.44,-84.9613 849.454,-74.071 912.937,-69.7532"/>
<polygon fill="midnightblue" stroke="midnightblue" points="913.483,-73.2254 923.238,-69.0915 913.034,-66.2398 913.483,-73.2254"/>
</g>
<!-- Node27&#45;&gt;Node13 -->
<g id="edge47" class="edge"><title>Node27&#45;&gt;Node13</title>
<path fill="none" stroke="midnightblue" d="M1344.98,-318.734C1356.85,-308.305 1376.89,-290.709 1391.38,-277.973"/>
<polygon fill="midnightblue" stroke="midnightblue" points="1393.97,-280.356 1399.18,-271.127 1389.36,-275.097 1393.97,-280.356"/>
</g>
<!-- Node28&#45;&gt;Node9 -->
<g id="edge52" class="edge"><title>Node28&#45;&gt;Node9</title>
<path fill="none" stroke="midnightblue" d="M1254.66,-385.945C1241.9,-383.728 1227.93,-381.535 1215,-380 1093.37,-365.562 778.98,-388.843 665,-344 644.717,-336.02 645.917,-323.827 627,-313 587.09,-290.158 566.119,-305.461 530,-277 501.825,-254.799 495.454,-244.314 485,-210 479.457,-191.807 475.558,-123.281 486,-112 514.506,-81.2033 789.407,-71.1356 913.153,-68.1471"/>
<polygon fill="midnightblue" stroke="midnightblue" points="913.307,-71.6445 923.222,-67.9115 913.143,-64.6464 913.307,-71.6445"/>
</g>
<!-- Node28&#45;&gt;Node13 -->
<g id="edge54" class="edge"><title>Node28&#45;&gt;Node13</title>
<path fill="none" stroke="midnightblue" d="M1286.71,-385.874C1266.54,-370.667 1230.45,-338.304 1249,-313 1268.27,-286.713 1301.26,-273.758 1332.29,-267.502"/>
<polygon fill="midnightblue" stroke="midnightblue" points="1333.06,-270.92 1342.28,-265.698 1331.82,-264.031 1333.06,-270.92"/>
</g>
<!-- Node28&#45;&gt;Node27 -->
<g id="edge53" class="edge"><title>Node28&#45;&gt;Node27</title>
<path fill="none" stroke="midnightblue" d="M1303.86,-385.734C1309.31,-375.89 1318.3,-359.66 1325.22,-347.159"/>
<polygon fill="midnightblue" stroke="midnightblue" points="1328.44,-348.571 1330.22,-338.127 1322.31,-345.179 1328.44,-348.571"/>
</g>
<!-- Node29&#45;&gt;Node9 -->
<g id="edge57" class="edge"><title>Node29&#45;&gt;Node9</title>
<path fill="none" stroke="midnightblue" d="M1079.89,-391.373C930.785,-383.711 565.265,-363.215 513,-344 490.887,-335.87 489.242,-326.595 470,-313 447.043,-296.78 437.196,-297.534 418,-277 394.316,-251.665 388.459,-243.066 378,-210 364.847,-168.418 343.337,-143.971 373,-112 409.209,-72.9735 768.224,-67.5665 912.971,-66.9829"/>
<polygon fill="midnightblue" stroke="midnightblue" points="913.027,-70.4829 923.015,-66.9489 913.003,-63.4829 913.027,-70.4829"/>
</g>
<!-- Node29&#45;&gt;Node13 -->
<g id="edge59" class="edge"><title>Node29&#45;&gt;Node13</title>
<path fill="none" stroke="midnightblue" d="M1150.94,-385.783C1166.48,-369.24 1202.64,-333.15 1240,-313 1275.32,-293.95 1318.78,-281.169 1352.77,-273.232"/>
<polygon fill="midnightblue" stroke="midnightblue" points="1353.57,-276.641 1362.55,-271.022 1352.02,-269.813 1353.57,-276.641"/>
</g>
<!-- Node29&#45;&gt;Node15 -->
<g id="edge56" class="edge"><title>Node29&#45;&gt;Node15</title>
<path fill="none" stroke="midnightblue" d="M1146.65,-385.759C1157.59,-359.449 1190.75,-278.583 1214,-210 1221.23,-188.662 1228.38,-163.772 1232.97,-147.165"/>
<polygon fill="midnightblue" stroke="midnightblue" points="1236.45,-147.706 1235.7,-137.137 1229.69,-145.863 1236.45,-147.706"/>
</g>
<!-- Node29&#45;&gt;Node27 -->
<g id="edge58" class="edge"><title>Node29&#45;&gt;Node27</title>
<path fill="none" stroke="midnightblue" d="M1168.5,-385.869C1202.3,-374.424 1262.1,-354.181 1300.08,-341.322"/>
<polygon fill="midnightblue" stroke="midnightblue" points="1301.35,-344.586 1309.7,-338.064 1299.11,-337.955 1301.35,-344.586"/>
</g>
<!-- Node29&#45;&gt;Node30 -->
<g id="edge60" class="edge"><title>Node29&#45;&gt;Node30</title>
<path fill="none" stroke="midnightblue" d="M1079.98,-392.167C937.26,-386.485 592.966,-370.421 480,-344 445.537,-335.94 353.474,-296.093 306.47,-275.254"/>
<polygon fill="midnightblue" stroke="midnightblue" points="307.72,-271.979 297.161,-271.113 304.876,-278.375 307.72,-271.979"/>
</g>
<!-- Node31&#45;&gt;Node4 -->
<g id="edge69" class="edge"><title>Node31&#45;&gt;Node4</title>
<path fill="none" stroke="midnightblue" d="M1059.4,-460.262C912.844,-455.852 570.8,-435.739 513,-344 485.526,-300.393 533.532,-276.607 575,-246 604.749,-224.043 617.987,-228.5 650,-210 686.366,-188.984 726.164,-160.52 749.285,-143.39"/>
<polygon fill="midnightblue" stroke="midnightblue" points="751.643,-145.997 757.564,-137.211 747.456,-140.387 751.643,-145.997"/>
</g>
<!-- Node31&#45;&gt;Node6 -->
<g id="edge67" class="edge"><title>Node31&#45;&gt;Node6</title>
<path fill="none" stroke="midnightblue" d="M1192.62,-459.33C1342.59,-454.013 1702.77,-438.706 1821,-411 1897.66,-393.035 1931.42,-401.691 1985,-344 2038.23,-286.689 2051,-188.398 2054.05,-147.362"/>
<polygon fill="midnightblue" stroke="midnightblue" points="2057.56,-147.381 2054.69,-137.182 2050.57,-146.943 2057.56,-147.381"/>
</g>
<!-- Node31&#45;&gt;Node8 -->
<g id="edge68" class="edge"><title>Node31&#45;&gt;Node8</title>
<path fill="none" stroke="midnightblue" d="M1192.74,-461.025C1354.66,-459.249 1764.65,-450.831 1895,-411 2100.19,-348.302 2088.83,-220.375 2274,-112 2305.05,-93.8281 2344.61,-81.3222 2371.47,-74.1895"/>
<polygon fill="midnightblue" stroke="midnightblue" points="2372.63,-77.5055 2381.45,-71.6323 2370.89,-70.7246 2372.63,-77.5055"/>
</g>
<!-- Node31&#45;&gt;Node9 -->
<g id="edge63" class="edge"><title>Node31&#45;&gt;Node9</title>
<path fill="none" stroke="midnightblue" d="M1059.36,-460.188C874.7,-456.168 365.51,-442.344 297,-411 213.117,-372.623 152,-354.745 152,-262.5 152,-262.5 152,-262.5 152,-193.5 152,-106.491 245.688,-133.495 330,-112 439.25,-84.1477 774.883,-72.2617 912.837,-68.4631"/>
<polygon fill="midnightblue" stroke="midnightblue" points="913.307,-71.9518 923.209,-68.1826 913.118,-64.9543 913.307,-71.9518"/>
</g>
<!-- Node31&#45;&gt;Node15 -->
<g id="edge62" class="edge"><title>Node31&#45;&gt;Node15</title>
<path fill="none" stroke="midnightblue" d="M1103.22,-447.436C1091.21,-438.619 1077.62,-426.072 1071,-411 1065.46,-398.386 1067.02,-393.19 1071,-380 1086.86,-327.44 1188.6,-192.476 1225.04,-145.178"/>
<polygon fill="midnightblue" stroke="midnightblue" points="1227.88,-147.223 1231.23,-137.171 1222.35,-142.941 1227.88,-147.223"/>
</g>
<!-- Node31&#45;&gt;Node28 -->
<g id="edge65" class="edge"><title>Node31&#45;&gt;Node28</title>
<path fill="none" stroke="midnightblue" d="M1163.54,-447.396C1194.3,-435.84 1237.37,-419.656 1266.63,-408.663"/>
<polygon fill="midnightblue" stroke="midnightblue" points="1268.23,-411.801 1276.36,-405.007 1265.77,-405.248 1268.23,-411.801"/>
</g>
<!-- Node31&#45;&gt;Node29 -->
<g id="edge64" class="edge"><title>Node31&#45;&gt;Node29</title>
<path fill="none" stroke="midnightblue" d="M1129.69,-447.396C1132.16,-437.963 1135.43,-425.448 1138.11,-415.189"/>
<polygon fill="midnightblue" stroke="midnightblue" points="1141.58,-415.755 1140.73,-405.195 1134.81,-413.984 1141.58,-415.755"/>
</g>
<!-- Node31&#45;&gt;Node30 -->
<g id="edge66" class="edge"><title>Node31&#45;&gt;Node30</title>
<path fill="none" stroke="midnightblue" d="M1059.46,-460.885C878.929,-458.717 389.27,-449.331 328,-411 284.058,-383.51 277.829,-314.679 277.516,-281.273"/>
<polygon fill="midnightblue" stroke="midnightblue" points="281.018,-281.089 277.6,-271.061 274.018,-281.031 281.018,-281.089"/>
</g>
<!-- Node32&#45;&gt;Node6 -->
<g id="edge72" class="edge"><title>Node32&#45;&gt;Node6</title>
<path fill="none" stroke="midnightblue" d="M2211.1,-184.869C2176.78,-172.475 2113.88,-149.762 2079.33,-137.284"/>
<polygon fill="midnightblue" stroke="midnightblue" points="2080.17,-133.868 2069.58,-133.763 2077.79,-140.452 2080.17,-133.868"/>
</g>
<!-- Node32&#45;&gt;Node8 -->
<g id="edge71" class="edge"><title>Node32&#45;&gt;Node8</title>
<path fill="none" stroke="midnightblue" d="M2241.41,-184.943C2253.68,-168.984 2281.99,-134.281 2312,-112 2330.43,-98.3167 2353.65,-86.8255 2371.88,-78.8806"/>
<polygon fill="midnightblue" stroke="midnightblue" points="2373.33,-82.0683 2381.18,-74.9484 2370.61,-75.6215 2373.33,-82.0683"/>
</g>
<!-- Node33&#45;&gt;Node6 -->
<g id="edge80" class="edge"><title>Node33&#45;&gt;Node6</title>
<path fill="none" stroke="midnightblue" d="M1782.09,-459.622C1854.46,-455.734 1986.31,-444.179 2018,-411 2054.2,-373.104 2055.82,-204.388 2055.31,-147.387"/>
<polygon fill="midnightblue" stroke="midnightblue" points="2058.81,-147.231 2055.18,-137.276 2051.81,-147.319 2058.81,-147.231"/>
</g>
<!-- Node33&#45;&gt;Node8 -->
<g id="edge81" class="edge"><title>Node33&#45;&gt;Node8</title>
<path fill="none" stroke="midnightblue" d="M1782.01,-460.91C1984.15,-458.223 2766.9,-445.742 3011,-411 3192.16,-385.216 3395,-445.484 3395,-262.5 3395,-262.5 3395,-262.5 3395,-193.5 3395,-94.0176 2600.6,-71.2948 2432.87,-67.6057"/>
<polygon fill="midnightblue" stroke="midnightblue" points="2432.81,-64.1038 2422.74,-67.3896 2432.66,-71.1022 2432.81,-64.1038"/>
</g>
<!-- Node33&#45;&gt;Node9 -->
<g id="edge83" class="edge"><title>Node33&#45;&gt;Node9</title>
<path fill="none" stroke="midnightblue" d="M1685.55,-460.66C1637.41,-457.639 1563.41,-446.883 1511,-411 1467.67,-381.332 1486.98,-344.551 1445,-313 1403.2,-281.585 1363.8,-319.252 1333,-277 1324.88,-265.866 1324.21,-256.611 1333,-246 1387.83,-179.811 1468.17,-276.189 1523,-210 1531.79,-199.389 1528.71,-191.539 1523,-179 1518.3,-168.679 1456.42,-116.473 1446,-112 1373.21,-80.7557 1143.42,-71.0643 1033.17,-68.1721"/>
<polygon fill="midnightblue" stroke="midnightblue" points="1032.97,-64.666 1022.88,-67.913 1032.79,-71.6638 1032.97,-64.666"/>
</g>
<!-- Node33&#45;&gt;Node13 -->
<g id="edge109" class="edge"><title>Node33&#45;&gt;Node13</title>
<path fill="none" stroke="midnightblue" d="M1685.99,-449.864C1628.05,-435.742 1537.94,-413.495 1535,-411 1498.71,-380.252 1523.32,-348.795 1492,-313 1477.66,-296.613 1456.68,-283.911 1439.4,-275.345"/>
<polygon fill="midnightblue" stroke="midnightblue" points="1440.78,-272.128 1430.24,-271.015 1437.79,-278.455 1440.78,-272.128"/>
</g>
<!-- Node33&#45;&gt;Node15 -->
<g id="edge79" class="edge"><title>Node33&#45;&gt;Node15</title>
<path fill="none" stroke="midnightblue" d="M1685.91,-457.872C1617.77,-451.852 1497.66,-437.726 1464,-411 1426.75,-381.422 1456.66,-344.479 1421,-313 1378.94,-275.867 1341.73,-314.51 1300,-277 1261.14,-242.067 1245.97,-178.914 1240.61,-147.421"/>
<polygon fill="midnightblue" stroke="midnightblue" points="1244.05,-146.71 1239.06,-137.362 1237.13,-147.779 1244.05,-146.71"/>
</g>
<!-- Node33&#45;&gt;Node30 -->
<g id="edge82" class="edge"><title>Node33&#45;&gt;Node30</title>
<path fill="none" stroke="midnightblue" d="M1685.88,-460.312C1503.81,-455.654 857.122,-437.569 653,-411 512.789,-392.75 461.898,-418.944 342,-344 316.784,-328.238 297.449,-298.853 286.913,-280.009"/>
<polygon fill="midnightblue" stroke="midnightblue" points="289.904,-278.178 282.103,-271.01 283.731,-281.479 289.904,-278.178"/>
</g>
<!-- Node34 -->
<g id="node34" class="node"><title>Node34</title>
<g id="a_node34"><a xlink:href="_interpreter_8h.html" target="_top" xlink:title="uscxml/Interpreter.h">
<polygon fill="white" stroke="black" points="1707.5,-386 1707.5,-405 1812.5,-405 1812.5,-386 1707.5,-386"/>
<text text-anchor="middle" x="1760" y="-393" font-family="Helvetica,sans-Serif" font-size="10.00">uscxml/Interpreter.h</text>
</a>
</g>
</g>
<!-- Node33&#45;&gt;Node34 -->
<g id="edge84" class="edge"><title>Node33&#45;&gt;Node34</title>
<path fill="none" stroke="midnightblue" d="M1739.64,-447.396C1743.49,-437.763 1748.63,-424.914 1752.79,-414.537"/>
<polygon fill="midnightblue" stroke="midnightblue" points="1756.06,-415.779 1756.52,-405.195 1749.56,-413.179 1756.06,-415.779"/>
</g>
<!-- Node34&#45;&gt;Node7 -->
<g id="edge86" class="edge"><title>Node34&#45;&gt;Node7</title>
<path fill="none" stroke="midnightblue" d="M1812.69,-393.416C1992.07,-389.464 2572.17,-374.439 2650,-344 2713.81,-319.045 2715.05,-288.234 2769,-246 2817.54,-207.998 2876.1,-165.226 2906.48,-143.264"/>
<polygon fill="midnightblue" stroke="midnightblue" points="2908.9,-145.835 2914.96,-137.145 2904.8,-140.159 2908.9,-145.835"/>
</g>
<!-- Node34&#45;&gt;Node8 -->
<g id="edge87" class="edge"><title>Node34&#45;&gt;Node8</title>
<path fill="none" stroke="midnightblue" d="M1812.55,-393.763C1982.04,-391.04 2507.13,-379.773 2574,-344 2614.13,-322.532 2636,-308.012 2636,-262.5 2636,-262.5 2636,-262.5 2636,-193.5 2636,-102.259 2496.63,-76.5054 2433.01,-69.5023"/>
<polygon fill="midnightblue" stroke="midnightblue" points="2433.07,-65.9907 2422.77,-68.466 2432.36,-72.9552 2433.07,-65.9907"/>
</g>
<!-- Node34&#45;&gt;Node9 -->
<g id="edge85" class="edge"><title>Node34&#45;&gt;Node9</title>
<path fill="none" stroke="midnightblue" d="M1728.67,-385.973C1718.92,-383.643 1708.08,-381.381 1698,-380 1512.67,-354.59 1034.06,-404.353 857,-344 808.096,-327.33 802.279,-309.357 762,-277 746.058,-264.193 746.172,-255.378 728,-246 660.914,-211.379 609.388,-268.767 562,-210 534.659,-176.095 532.926,-144.431 562,-112 585.006,-86.338 804.812,-73.853 913.186,-69.217"/>
<polygon fill="midnightblue" stroke="midnightblue" points="913.471,-72.7083 923.316,-68.7927 913.178,-65.7144 913.471,-72.7083"/>
</g>
<!-- Node35 -->
<g id="node35" class="node"><title>Node35</title>
<polygon fill="white" stroke="#bfbfbf" points="1932,-319 1932,-338 1976,-338 1976,-319 1932,-319"/>
<text text-anchor="middle" x="1954" y="-326" font-family="Helvetica,sans-Serif" font-size="10.00">vector</text>
</g>
<!-- Node34&#45;&gt;Node35 -->
<g id="edge88" class="edge"><title>Node34&#45;&gt;Node35</title>
<path fill="none" stroke="midnightblue" d="M1791.99,-385.99C1825.18,-376.838 1878.37,-361.256 1923,-344 1924.42,-343.451 1925.87,-342.866 1927.32,-342.259"/>
<polygon fill="midnightblue" stroke="midnightblue" points="1929.08,-345.308 1936.8,-338.055 1926.24,-338.909 1929.08,-345.308"/>
</g>
<!-- Node36 -->
<g id="node36" class="node"><title>Node36</title>
<g id="a_node36"><a xlink:href="_micro_step_8h.html" target="_top" xlink:title="uscxml/interpreter\l/MicroStep.h">
<polygon fill="white" stroke="black" points="1418,-179.5 1418,-209.5 1514,-209.5 1514,-179.5 1418,-179.5"/>
<text text-anchor="start" x="1426" y="-197.5" font-family="Helvetica,sans-Serif" font-size="10.00">uscxml/interpreter</text>
<text text-anchor="middle" x="1466" y="-186.5" font-family="Helvetica,sans-Serif" font-size="10.00">/MicroStep.h</text>
</a>
</g>
</g>
<!-- Node34&#45;&gt;Node36 -->
<g id="edge89" class="edge"><title>Node34&#45;&gt;Node36</title>
<path fill="none" stroke="midnightblue" d="M1752.65,-385.985C1739.28,-370.675 1709.75,-337.789 1682,-313 1672.83,-304.814 1604.71,-252.034 1594,-246 1570.68,-232.855 1543.25,-221.542 1519.77,-212.975"/>
<polygon fill="midnightblue" stroke="midnightblue" points="1520.91,-209.665 1510.32,-209.593 1518.56,-216.257 1520.91,-209.665"/>
</g>
<!-- Node37 -->
<g id="node37" class="node"><title>Node37</title>
<g id="a_node37"><a xlink:href="_interpreter_state_8h.html" target="_top" xlink:title="uscxml/interpreter\l/InterpreterState.h">
<polygon fill="white" stroke="black" points="1312.5,-112.5 1312.5,-142.5 1409.5,-142.5 1409.5,-112.5 1312.5,-112.5"/>
<text text-anchor="start" x="1320.5" y="-130.5" font-family="Helvetica,sans-Serif" font-size="10.00">uscxml/interpreter</text>
<text text-anchor="middle" x="1361" y="-119.5" font-family="Helvetica,sans-Serif" font-size="10.00">/InterpreterState.h</text>
</a>
</g>
</g>
<!-- Node34&#45;&gt;Node37 -->
<g id="edge108" class="edge"><title>Node34&#45;&gt;Node37</title>
<path fill="none" stroke="midnightblue" d="M1746.78,-385.983C1700.31,-356.079 1545.98,-257.089 1522,-246 1474.16,-223.877 1450.2,-242.875 1409,-210 1390.16,-194.964 1377.14,-170.369 1369.46,-152.125"/>
<polygon fill="midnightblue" stroke="midnightblue" points="1372.68,-150.751 1365.75,-142.744 1366.18,-153.33 1372.68,-150.751"/>
</g>
<!-- Node38 -->
<g id="node38" class="node"><title>Node38</title>
<g id="a_node38"><a xlink:href="_data_model_8h.html" target="_top" xlink:title="uscxml/plugins/DataModel.h">
<polygon fill="white" stroke="black" points="1772,-319 1772,-338 1914,-338 1914,-319 1772,-319"/>
<text text-anchor="middle" x="1843" y="-326" font-family="Helvetica,sans-Serif" font-size="10.00">uscxml/plugins/DataModel.h</text>
</a>
</g>
</g>
<!-- Node34&#45;&gt;Node38 -->
<g id="edge97" class="edge"><title>Node34&#45;&gt;Node38</title>
<path fill="none" stroke="midnightblue" d="M1771.19,-385.734C1784.63,-375.208 1807.4,-357.379 1823.7,-344.617"/>
<polygon fill="midnightblue" stroke="midnightblue" points="1826.27,-347.049 1831.98,-338.127 1821.95,-341.537 1826.27,-347.049"/>
</g>
<!-- Node39 -->
<g id="node39" class="node"><title>Node39</title>
<g id="a_node39"><a xlink:href="_content_executor_8h.html" target="_top" xlink:title="uscxml/interpreter\l/ContentExecutor.h">
<polygon fill="white" stroke="black" points="1646,-246.5 1646,-276.5 1748,-276.5 1748,-246.5 1646,-246.5"/>
<text text-anchor="start" x="1654" y="-264.5" font-family="Helvetica,sans-Serif" font-size="10.00">uscxml/interpreter</text>
<text text-anchor="middle" x="1697" y="-253.5" font-family="Helvetica,sans-Serif" font-size="10.00">/ContentExecutor.h</text>
</a>
</g>
</g>
<!-- Node34&#45;&gt;Node39 -->
<g id="edge103" class="edge"><title>Node34&#45;&gt;Node39</title>
<path fill="none" stroke="midnightblue" d="M1755.87,-385.839C1746.32,-365.845 1722.49,-315.903 1708.24,-286.061"/>
<polygon fill="midnightblue" stroke="midnightblue" points="1711.28,-284.3 1703.82,-276.783 1704.97,-287.316 1711.28,-284.3"/>
</g>
<!-- Node36&#45;&gt;Node4 -->
<g id="edge90" class="edge"><title>Node36&#45;&gt;Node4</title>
<path fill="none" stroke="midnightblue" d="M1417.74,-191.141C1287.61,-184.558 931.493,-165.019 816,-143 811.754,-142.19 807.349,-141.134 803.014,-139.96"/>
<polygon fill="midnightblue" stroke="midnightblue" points="803.715,-136.518 793.135,-137.068 801.749,-143.237 803.715,-136.518"/>
</g>
<!-- Node36&#45;&gt;Node6 -->
<g id="edge91" class="edge"><title>Node36&#45;&gt;Node6</title>
<path fill="none" stroke="midnightblue" d="M1514.31,-188.031C1539.54,-185.226 1570.92,-181.817 1599,-179 1773.52,-161.495 1818.81,-170.733 1992,-143 2004.81,-140.948 2018.9,-137.793 2030.5,-134.948"/>
<polygon fill="midnightblue" stroke="midnightblue" points="2031.5,-138.305 2040.34,-132.465 2029.79,-131.517 2031.5,-138.305"/>
</g>
<!-- Node36&#45;&gt;Node8 -->
<g id="edge92" class="edge"><title>Node36&#45;&gt;Node8</title>
<path fill="none" stroke="midnightblue" d="M1514.21,-186.35C1571.95,-177.501 1671.47,-161.337 1756,-143 1809.41,-131.413 1821.13,-121.247 1875,-112 2061.65,-79.9578 2289.6,-70.3372 2371.16,-67.8078"/>
<polygon fill="midnightblue" stroke="midnightblue" points="2371.36,-71.3037 2381.25,-67.5086 2371.15,-64.3068 2371.36,-71.3037"/>
</g>
<!-- Node36&#45;&gt;Node9 -->
<g id="edge94" class="edge"><title>Node36&#45;&gt;Node9</title>
<path fill="none" stroke="midnightblue" d="M1462.1,-179.485C1456.05,-160.636 1442.48,-127.676 1418,-112 1355.67,-72.077 1139.37,-66.6597 1033,-66.4954"/>
<polygon fill="midnightblue" stroke="midnightblue" points="1032.75,-62.9955 1022.75,-66.4954 1032.75,-69.9955 1032.75,-62.9955"/>
</g>
<!-- Node36&#45;&gt;Node15 -->
<g id="edge93" class="edge"><title>Node36&#45;&gt;Node15</title>
<path fill="none" stroke="midnightblue" d="M1417.93,-179.795C1376.31,-167.93 1316.83,-150.975 1277.83,-139.855"/>
<polygon fill="midnightblue" stroke="midnightblue" points="1278.47,-136.397 1267.89,-137.021 1276.55,-143.129 1278.47,-136.397"/>
</g>
<!-- Node36&#45;&gt;Node37 -->
<g id="edge95" class="edge"><title>Node36&#45;&gt;Node37</title>
<path fill="none" stroke="midnightblue" d="M1443.22,-179.396C1428.36,-170.197 1408.76,-158.066 1392.43,-147.955"/>
<polygon fill="midnightblue" stroke="midnightblue" points="1394.08,-144.864 1383.74,-142.577 1390.4,-150.816 1394.08,-144.864"/>
</g>
<!-- Node37&#45;&gt;Node9 -->
<g id="edge96" class="edge"><title>Node37&#45;&gt;Node9</title>
<path fill="none" stroke="midnightblue" d="M1312.27,-116.294C1304.5,-114.78 1296.54,-113.295 1289,-112 1200.15,-96.7391 1096.6,-82.7006 1032.92,-74.4944"/>
<polygon fill="midnightblue" stroke="midnightblue" points="1033.03,-70.9798 1022.67,-73.1789 1032.14,-77.9229 1033.03,-70.9798"/>
</g>
<!-- Node38&#45;&gt;Node4 -->
<g id="edge102" class="edge"><title>Node38&#45;&gt;Node4</title>
<path fill="none" stroke="midnightblue" d="M1808.93,-318.985C1732.19,-299.932 1547.54,-254.836 1484,-246 1409.39,-235.624 869.433,-252.148 807,-210 785.8,-195.688 776.171,-166.312 771.986,-147.017"/>
<polygon fill="midnightblue" stroke="midnightblue" points="775.392,-146.192 770.104,-137.011 768.513,-147.485 775.392,-146.192"/>
</g>
<!-- Node38&#45;&gt;Node6 -->
<g id="edge100" class="edge"><title>Node38&#45;&gt;Node6</title>
<path fill="none" stroke="midnightblue" d="M1866.78,-318.931C1888.03,-310.49 1919.23,-296.093 1942,-277 1983.82,-241.929 1982.88,-222.377 2016,-179 2024.65,-167.676 2034.45,-154.983 2042.07,-145.155"/>
<polygon fill="midnightblue" stroke="midnightblue" points="2044.98,-147.103 2048.35,-137.056 2039.45,-142.813 2044.98,-147.103"/>
</g>
<!-- Node38&#45;&gt;Node8 -->
<g id="edge101" class="edge"><title>Node38&#45;&gt;Node8</title>
<path fill="none" stroke="midnightblue" d="M1888.48,-318.964C1990.08,-299.409 2232.3,-249.976 2305,-210 2343.02,-189.095 2352.51,-179.481 2376,-143 2387.53,-125.089 2394.56,-101.495 2398.35,-85.3755"/>
<polygon fill="midnightblue" stroke="midnightblue" points="2401.78,-86.0867 2400.48,-75.5722 2394.94,-84.604 2401.78,-86.0867"/>
</g>
<!-- Node38&#45;&gt;Node9 -->
<g id="edge98" class="edge"><title>Node38&#45;&gt;Node9</title>
<path fill="none" stroke="midnightblue" d="M1841.24,-318.887C1833.86,-285.245 1802,-162.109 1722,-112 1664.22,-75.8046 1199.97,-68.7145 1032.76,-67.3325"/>
<polygon fill="midnightblue" stroke="midnightblue" points="1032.68,-63.8318 1022.65,-67.253 1032.62,-70.8316 1032.68,-63.8318"/>
</g>
<!-- Node38&#45;&gt;Node13 -->
<g id="edge99" class="edge"><title>Node38&#45;&gt;Node13</title>
<path fill="none" stroke="midnightblue" d="M1778.48,-318.961C1707.63,-309.422 1590.55,-293.186 1490,-277 1481.98,-275.709 1473.52,-274.275 1465.22,-272.827"/>
<polygon fill="midnightblue" stroke="midnightblue" points="1465.67,-269.352 1455.21,-271.061 1464.45,-276.245 1465.67,-269.352"/>
</g>
<!-- Node39&#45;&gt;Node8 -->
<g id="edge107" class="edge"><title>Node39&#45;&gt;Node8</title>
<path fill="none" stroke="midnightblue" d="M1748.16,-260.59C1870.6,-260.076 2177.07,-254.268 2268,-210 2326.5,-181.524 2372.37,-115.804 2391.84,-84.3662"/>
<polygon fill="midnightblue" stroke="midnightblue" points="2394.84,-86.159 2397.02,-75.7895 2388.85,-82.5402 2394.84,-86.159"/>
</g>
<!-- Node39&#45;&gt;Node9 -->
<g id="edge105" class="edge"><title>Node39&#45;&gt;Node9</title>
<path fill="none" stroke="midnightblue" d="M1664.48,-246.324C1644.81,-237.131 1619.64,-224.241 1599,-210 1585.6,-200.749 1504.94,-118.485 1490,-112 1409.38,-76.9997 1151.33,-69.2111 1033.15,-67.4861"/>
<polygon fill="midnightblue" stroke="midnightblue" points="1032.88,-63.9823 1022.84,-67.3459 1032.79,-70.9816 1032.88,-63.9823"/>
</g>
<!-- Node39&#45;&gt;Node14 -->
<g id="edge106" class="edge"><title>Node39&#45;&gt;Node14</title>
<path fill="none" stroke="midnightblue" d="M1691.58,-246.396C1687.87,-236.763 1682.93,-223.914 1678.94,-213.537"/>
<polygon fill="midnightblue" stroke="midnightblue" points="1682.2,-212.272 1675.34,-204.195 1675.67,-214.784 1682.2,-212.272"/>
</g>
<!-- Node39&#45;&gt;Node15 -->
<g id="edge104" class="edge"><title>Node39&#45;&gt;Node15</title>
<path fill="none" stroke="midnightblue" d="M1645.79,-255.757C1587.42,-249.385 1489.63,-235.755 1409,-210 1353.92,-192.407 1293.84,-160.539 1261.61,-142.301"/>
<polygon fill="midnightblue" stroke="midnightblue" points="1262.96,-139.038 1252.54,-137.11 1259.48,-145.114 1262.96,-139.038"/>
</g>
<!-- Node40&#45;&gt;Node8 -->
<g id="edge131" class="edge"><title>Node40&#45;&gt;Node8</title>
<path fill="none" stroke="midnightblue" d="M783.654,-391.678C853.084,-388.516 970.225,-383.39 1071,-380 1149.04,-377.375 2404.02,-374.259 2476,-344 2523.95,-323.841 2560,-314.518 2560,-262.5 2560,-262.5 2560,-262.5 2560,-193.5 2560,-128.817 2478.31,-91.7495 2432.41,-76.0273"/>
<polygon fill="midnightblue" stroke="midnightblue" points="2433.25,-72.6203 2422.66,-72.8236 2431.06,-79.2705 2433.25,-72.6203"/>
</g>
<!-- Node40&#45;&gt;Node9 -->
<g id="edge111" class="edge"><title>Node40&#45;&gt;Node9</title>
<path fill="none" stroke="midnightblue" d="M662.317,-390.867C609.326,-385.76 531.49,-373.484 470,-344 366.229,-294.243 276.634,-196.28 355,-112 392.49,-71.6813 765.201,-67.0696 913.038,-66.84"/>
<polygon fill="midnightblue" stroke="midnightblue" points="913.289,-70.3398 923.286,-66.8306 913.283,-63.3398 913.289,-70.3398"/>
</g>
<!-- Node40&#45;&gt;Node13 -->
<g id="edge120" class="edge"><title>Node40&#45;&gt;Node13</title>
<path fill="none" stroke="midnightblue" d="M783.577,-382.844C915.877,-357.387 1228.87,-297.16 1354.97,-272.897"/>
<polygon fill="midnightblue" stroke="midnightblue" points="1355.63,-276.333 1364.79,-271.006 1354.31,-269.459 1355.63,-276.333"/>
</g>
<!-- Node40&#45;&gt;Node30 -->
<g id="edge130" class="edge"><title>Node40&#45;&gt;Node30</title>
<path fill="none" stroke="midnightblue" d="M662.289,-392.358C596.645,-388.353 489.881,-376.873 404,-344 361.93,-327.896 319.209,-296.366 295.909,-277.594"/>
<polygon fill="midnightblue" stroke="midnightblue" points="297.923,-274.72 287.971,-271.084 293.483,-280.132 297.923,-274.72"/>
</g>
<!-- Node40&#45;&gt;Node41 -->
<g id="edge112" class="edge"><title>Node40&#45;&gt;Node41</title>
<path fill="none" stroke="midnightblue" d="M723,-380.396C723,-371.064 723,-358.714 723,-348.517"/>
<polygon fill="midnightblue" stroke="midnightblue" points="726.5,-348.195 723,-338.195 719.5,-348.195 726.5,-348.195"/>
</g>
<!-- Node44 -->
<g id="node44" class="node"><title>Node44</title>
<g id="a_node44"><a xlink:href="_interpreter_monitor_8h.html" target="_top" xlink:title="uscxml/interpreter\l/InterpreterMonitor.h">
<polygon fill="white" stroke="black" points="866.5,-313.5 866.5,-343.5 973.5,-343.5 973.5,-313.5 866.5,-313.5"/>
<text text-anchor="start" x="874.5" y="-331.5" font-family="Helvetica,sans-Serif" font-size="10.00">uscxml/interpreter</text>
<text text-anchor="middle" x="920" y="-320.5" font-family="Helvetica,sans-Serif" font-size="10.00">/InterpreterMonitor.h</text>
</a>
</g>
</g>
<!-- Node40&#45;&gt;Node44 -->
<g id="edge121" class="edge"><title>Node40&#45;&gt;Node44</title>
<path fill="none" stroke="midnightblue" d="M765.746,-380.396C795.692,-370.515 835.889,-357.252 867.741,-346.743"/>
<polygon fill="midnightblue" stroke="midnightblue" points="868.938,-350.034 877.337,-343.577 866.744,-343.386 868.938,-350.034"/>
</g>
<!-- Node41&#45;&gt;Node6 -->
<g id="edge114" class="edge"><title>Node41&#45;&gt;Node6</title>
<path fill="none" stroke="midnightblue" d="M772.248,-321.363C797.543,-318.416 828.88,-315.081 857,-313 1056.61,-298.225 1563.26,-327.271 1757,-277 1850.5,-252.739 1864.44,-221.877 1951,-179 1978.48,-165.387 2010.21,-150.033 2031.32,-139.867"/>
<polygon fill="midnightblue" stroke="midnightblue" points="2033,-142.943 2040.5,-135.454 2029.97,-136.635 2033,-142.943"/>
</g>
<!-- Node41&#45;&gt;Node9 -->
<g id="edge117" class="edge"><title>Node41&#45;&gt;Node9</title>
<path fill="none" stroke="midnightblue" d="M682.501,-318.99C651.456,-311.251 608.413,-297.814 575,-277 507.82,-235.151 454.797,-170.6 508,-112 534.752,-82.5338 793.834,-71.7986 913.257,-68.3935"/>
<polygon fill="midnightblue" stroke="midnightblue" points="913.435,-71.89 923.334,-68.1142 913.24,-64.8927 913.435,-71.89"/>
</g>
<!-- Node41&#45;&gt;Node15 -->
<g id="edge116" class="edge"><title>Node41&#45;&gt;Node15</title>
<path fill="none" stroke="midnightblue" d="M765.503,-318.99C837.671,-303.549 987.656,-267.13 1104,-210 1125.47,-199.456 1127.76,-191.759 1148,-179 1169.29,-165.573 1194.33,-151.672 1212.58,-141.863"/>
<polygon fill="midnightblue" stroke="midnightblue" points="1214.27,-144.925 1221.45,-137.13 1210.98,-138.749 1214.27,-144.925"/>
</g>
<!-- Node41&#45;&gt;Node20 -->
<g id="edge113" class="edge"><title>Node41&#45;&gt;Node20</title>
<path fill="none" stroke="midnightblue" d="M770.17,-318.936C847.03,-304.981 996.654,-277.814 1055.94,-267.05"/>
<polygon fill="midnightblue" stroke="midnightblue" points="1056.7,-270.469 1065.92,-265.238 1055.45,-263.581 1056.7,-270.469"/>
</g>
<!-- Node41&#45;&gt;Node30 -->
<g id="edge119" class="edge"><title>Node41&#45;&gt;Node30</title>
<path fill="none" stroke="midnightblue" d="M673.678,-319.99C658.69,-317.724 642.174,-315.244 627,-313 530.168,-298.682 418.155,-282.55 347.696,-272.455"/>
<polygon fill="midnightblue" stroke="midnightblue" points="348.003,-268.964 337.608,-271.01 347.011,-275.893 348.003,-268.964"/>
</g>
<!-- Node42 -->
<g id="node42" class="node"><title>Node42</title>
<polygon fill="white" stroke="#bfbfbf" points="825.5,-118 825.5,-137 880.5,-137 880.5,-118 825.5,-118"/>
<text text-anchor="middle" x="853" y="-125" font-family="Helvetica,sans-Serif" font-size="10.00">iostream</text>
</g>
<!-- Node41&#45;&gt;Node42 -->
<g id="edge115" class="edge"><title>Node41&#45;&gt;Node42</title>
<path fill="none" stroke="midnightblue" d="M727.102,-318.719C738.312,-295.103 771.037,-228.659 807,-179 815.913,-166.694 827.426,-154.056 836.705,-144.501"/>
<polygon fill="midnightblue" stroke="midnightblue" points="839.313,-146.841 843.867,-137.275 834.342,-141.914 839.313,-146.841"/>
</g>
<!-- Node43 -->
<g id="node43" class="node"><title>Node43</title>
<polygon fill="white" stroke="#bfbfbf" points="584.5,-252 584.5,-271 719.5,-271 719.5,-252 584.5,-252"/>
<text text-anchor="middle" x="652" y="-259" font-family="Helvetica,sans-Serif" font-size="10.00">xercesc/util/XMLString.hpp</text>
</g>
<!-- Node41&#45;&gt;Node43 -->
<g id="edge118" class="edge"><title>Node41&#45;&gt;Node43</title>
<path fill="none" stroke="midnightblue" d="M713.425,-318.734C702.034,-308.305 682.813,-290.709 668.901,-277.973"/>
<polygon fill="midnightblue" stroke="midnightblue" points="671.163,-275.298 661.424,-271.127 666.436,-280.461 671.163,-275.298"/>
</g>
<!-- Node44&#45;&gt;Node5 -->
<g id="edge129" class="edge"><title>Node44&#45;&gt;Node5</title>
<path fill="none" stroke="midnightblue" d="M973.556,-324.887C1038.66,-321.769 1151.87,-316.534 1249,-313 1806.19,-292.725 1945.86,-298.595 2503,-277 2599.24,-273.27 2712.94,-267.276 2767.54,-264.298"/>
<polygon fill="midnightblue" stroke="midnightblue" points="2767.86,-267.786 2777.65,-263.745 2767.48,-260.797 2767.86,-267.786"/>
</g>
<!-- Node44&#45;&gt;Node9 -->
<g id="edge122" class="edge"><title>Node44&#45;&gt;Node9</title>
<path fill="none" stroke="midnightblue" d="M897.605,-313.407C867.766,-295.236 812.814,-263.854 762,-246 685.851,-219.244 635.104,-272.474 584,-210 556.423,-176.287 555.025,-144.52 584,-112 605.501,-87.8679 809.714,-74.7568 913.322,-69.6095"/>
<polygon fill="midnightblue" stroke="midnightblue" points="913.51,-73.1046 923.327,-69.1216 913.169,-66.1129 913.51,-73.1046"/>
</g>
<!-- Node44&#45;&gt;Node13 -->
<g id="edge123" class="edge"><title>Node44&#45;&gt;Node13</title>
<path fill="none" stroke="midnightblue" d="M973.736,-315.571C978.549,-314.645 983.356,-313.772 988,-313 1107.67,-293.105 1247.74,-277.897 1332.34,-269.586"/>
<polygon fill="midnightblue" stroke="midnightblue" points="1332.77,-273.061 1342.38,-268.607 1332.09,-266.094 1332.77,-273.061"/>
</g>
<!-- Node45 -->
<g id="node45" class="node"><title>Node45</title>
<g id="a_node45"><a xlink:href="_interpreter_issue_8h.html" target="_top" xlink:title="Identifies some common problems with SCXML documents. ">
<polygon fill="white" stroke="black" points="968.5,-179.5 968.5,-209.5 1095.5,-209.5 1095.5,-179.5 968.5,-179.5"/>
<text text-anchor="start" x="976.5" y="-197.5" font-family="Helvetica,sans-Serif" font-size="10.00">uscxml/debug/Interpreter</text>
<text text-anchor="middle" x="1032" y="-186.5" font-family="Helvetica,sans-Serif" font-size="10.00">Issue.h</text>
</a>
</g>
</g>
<!-- Node44&#45;&gt;Node45 -->
<g id="edge124" class="edge"><title>Node44&#45;&gt;Node45</title>
<path fill="none" stroke="midnightblue" d="M931.986,-313.374C951.522,-290.349 990.363,-244.572 1013.47,-217.336"/>
<polygon fill="midnightblue" stroke="midnightblue" points="1016.3,-219.414 1020.1,-209.525 1010.96,-214.885 1016.3,-219.414"/>
</g>
<!-- Node45&#45;&gt;Node6 -->
<g id="edge127" class="edge"><title>Node45&#45;&gt;Node6</title>
<path fill="none" stroke="midnightblue" d="M1095.65,-190.795C1295.71,-182.202 1903.83,-155.369 1992,-143 2004.85,-141.197 2018.94,-138.066 2030.53,-135.173"/>
<polygon fill="midnightblue" stroke="midnightblue" points="2031.56,-138.522 2040.37,-132.629 2029.81,-131.745 2031.56,-138.522"/>
</g>
<!-- Node45&#45;&gt;Node9 -->
<g id="edge126" class="edge"><title>Node45&#45;&gt;Node9</title>
<path fill="none" stroke="midnightblue" d="M1025.46,-179.479C1014.7,-156.411 993.28,-110.482 981.409,-85.0293"/>
<polygon fill="midnightblue" stroke="midnightblue" points="984.498,-83.3719 977.099,-75.7885 978.154,-86.3307 984.498,-83.3719"/>
</g>
<!-- Node45&#45;&gt;Node15 -->
<g id="edge125" class="edge"><title>Node45&#45;&gt;Node15</title>
<path fill="none" stroke="midnightblue" d="M1076.45,-179.476C1113.69,-167.723 1166.24,-151.143 1201.17,-140.12"/>
<polygon fill="midnightblue" stroke="midnightblue" points="1202.49,-143.376 1210.97,-137.029 1200.38,-136.7 1202.49,-143.376"/>
</g>
<!-- Node45&#45;&gt;Node42 -->
<g id="edge128" class="edge"><title>Node45&#45;&gt;Node42</title>
<path fill="none" stroke="midnightblue" d="M993.16,-179.396C961.196,-167.789 916.379,-151.515 886.099,-140.519"/>
<polygon fill="midnightblue" stroke="midnightblue" points="887.021,-137.13 876.427,-137.007 884.632,-143.71 887.021,-137.13"/>
</g>
<!-- Node46&#45;&gt;Node9 -->
<g id="edge133" class="edge"><title>Node46&#45;&gt;Node9</title>
<path fill="none" stroke="midnightblue" d="M534.379,-313.352C513.6,-304.344 487.359,-291.636 466,-277 429.941,-252.292 411.451,-250.077 394,-210 376.611,-170.066 364.419,-143.969 394,-112 428.738,-74.4575 772.2,-68.1579 913.13,-67.1596"/>
<polygon fill="midnightblue" stroke="midnightblue" points="913.345,-70.6584 923.322,-67.0942 913.3,-63.6585 913.345,-70.6584"/>
</g>
<!-- Node46&#45;&gt;Node13 -->
<g id="edge134" class="edge"><title>Node46&#45;&gt;Node13</title>
<path fill="none" stroke="midnightblue" d="M618.226,-319.339C633.182,-317.024 649.743,-314.679 665,-313 907.843,-286.273 1196.94,-271.509 1332.14,-265.593"/>
<polygon fill="midnightblue" stroke="midnightblue" points="1332.56,-269.079 1342.39,-265.149 1332.25,-262.085 1332.56,-269.079"/>
</g>
<!-- Node47&#45;&gt;Node5 -->
<g id="edge142" class="edge"><title>Node47&#45;&gt;Node5</title>
<path fill="none" stroke="midnightblue" d="M2977.76,-317.206C2937.31,-308.421 2879.77,-294.449 2831,-277 2829.38,-276.422 2827.74,-275.79 2826.09,-275.123"/>
<polygon fill="midnightblue" stroke="midnightblue" points="2827.38,-271.866 2816.81,-271.064 2824.57,-278.279 2827.38,-271.866"/>
</g>
<!-- Node47&#45;&gt;Node6 -->
<g id="edge140" class="edge"><title>Node47&#45;&gt;Node6</title>
<path fill="none" stroke="midnightblue" d="M3029.94,-313.323C3030.31,-294.91 3027.91,-263.105 3009,-246 2937.77,-181.553 2222.93,-137.984 2079.85,-129.871"/>
<polygon fill="midnightblue" stroke="midnightblue" points="2080.03,-126.376 2069.85,-129.309 2079.64,-133.365 2080.03,-126.376"/>
</g>
<!-- Node47&#45;&gt;Node7 -->
<g id="edge139" class="edge"><title>Node47&#45;&gt;Node7</title>
<path fill="none" stroke="midnightblue" d="M3050.3,-313.377C3061.73,-304.461 3074.73,-291.836 3081,-277 3086.37,-264.31 3087.11,-258.349 3081,-246 3054.57,-192.6 2990.97,-156.835 2954.3,-139.873"/>
<polygon fill="midnightblue" stroke="midnightblue" points="2955.72,-136.673 2945.16,-135.777 2952.85,-143.06 2955.72,-136.673"/>
</g>
<!-- Node47&#45;&gt;Node8 -->
<g id="edge138" class="edge"><title>Node47&#45;&gt;Node8</title>
<path fill="none" stroke="midnightblue" d="M3059.91,-313.336C3074.28,-304.975 3089.94,-292.886 3098,-277 3104.23,-264.713 3102.02,-259.18 3098,-246 3072.52,-162.371 3036.47,-141.002 2954,-112 2856.64,-77.7614 2534.39,-69.3016 2432.89,-67.4627"/>
<polygon fill="midnightblue" stroke="midnightblue" points="2432.76,-63.9599 2422.7,-67.2871 2432.64,-70.9589 2432.76,-63.9599"/>
</g>
<!-- Node47&#45;&gt;Node9 -->
<g id="edge136" class="edge"><title>Node47&#45;&gt;Node9</title>
<path fill="none" stroke="midnightblue" d="M3034.45,-313.246C3040.18,-295.614 3046.53,-265.541 3032,-246 2970.24,-162.96 2910.47,-199.317 2809,-179 2525.97,-122.331 2450.93,-132.354 2163,-112 1730.25,-81.4094 1207.4,-70.7334 1032.91,-67.8779"/>
<polygon fill="midnightblue" stroke="midnightblue" points="1032.71,-64.3743 1022.66,-67.7126 1032.6,-71.3734 1032.71,-64.3743"/>
</g>
<!-- Node47&#45;&gt;Node13 -->
<g id="edge137" class="edge"><title>Node47&#45;&gt;Node13</title>
<path fill="none" stroke="midnightblue" d="M2977.79,-326.146C2795.41,-321.217 2160.5,-303.138 1637,-277 1586.65,-274.486 1530.1,-270.894 1485.91,-267.914"/>
<polygon fill="midnightblue" stroke="midnightblue" points="1486.03,-264.415 1475.82,-267.23 1485.56,-271.399 1486.03,-264.415"/>
</g>
<!-- Node47&#45;&gt;Node21 -->
<g id="edge141" class="edge"><title>Node47&#45;&gt;Node21</title>
<path fill="none" stroke="midnightblue" d="M3017.93,-313.396C3010.06,-303.361 2999.45,-289.838 2991.15,-279.253"/>
<polygon fill="midnightblue" stroke="midnightblue" points="2993.75,-276.901 2984.82,-271.195 2988.24,-281.222 2993.75,-276.901"/>
</g>
<!-- Node47&#45;&gt;Node22 -->
<g id="edge143" class="edge"><title>Node47&#45;&gt;Node22</title>
<path fill="none" stroke="midnightblue" d="M2998.62,-313.396C2974.17,-302.041 2940.09,-286.22 2916.45,-275.244"/>
<polygon fill="midnightblue" stroke="midnightblue" points="2917.87,-272.044 2907.32,-271.007 2914.92,-278.393 2917.87,-272.044"/>
</g>
<!-- Node48 -->
<g id="node48" class="node"><title>Node48</title>
<polygon fill="white" stroke="#bfbfbf" points="3171,-252 3171,-271 3253,-271 3253,-252 3171,-252"/>
<text text-anchor="middle" x="3212" y="-259" font-family="Helvetica,sans-Serif" font-size="10.00">event2/event.h</text>
</g>
<!-- Node47&#45;&gt;Node48 -->
<g id="edge144" class="edge"><title>Node47&#45;&gt;Node48</title>
<path fill="none" stroke="midnightblue" d="M3068.71,-313.396C3101.53,-301.739 3147.6,-285.373 3178.56,-274.376"/>
<polygon fill="midnightblue" stroke="midnightblue" points="3179.8,-277.652 3188.05,-271.007 3177.45,-271.056 3179.8,-277.652"/>
</g>
<!-- Node49&#45;&gt;Node5 -->
<g id="edge153" class="edge"><title>Node49&#45;&gt;Node5</title>
<path fill="none" stroke="midnightblue" d="M2932.16,-380.374C2904.2,-355.434 2846.3,-303.798 2817.32,-277.948"/>
<polygon fill="midnightblue" stroke="midnightblue" points="2819.43,-275.141 2809.64,-271.097 2814.77,-280.365 2819.43,-275.141"/>
</g>
<!-- Node49&#45;&gt;Node6 -->
<g id="edge151" class="edge"><title>Node49&#45;&gt;Node6</title>
<path fill="none" stroke="midnightblue" d="M2908,-380.489C2830.3,-353.418 2653.37,-292.5 2503,-246 2399.24,-213.914 2373.09,-206.423 2268,-179 2199.96,-161.244 2119,-142.773 2079.34,-133.897"/>
<polygon fill="midnightblue" stroke="midnightblue" points="2080.04,-130.467 2069.52,-131.706 2078.52,-137.299 2080.04,-130.467"/>
</g>
<!-- Node49&#45;&gt;Node7 -->
<g id="edge150" class="edge"><title>Node49&#45;&gt;Node7</title>
<path fill="none" stroke="midnightblue" d="M3002.11,-389.829C3108.86,-378.427 3330.53,-342.665 3262,-246 3189.91,-144.315 3022.65,-129.961 2955.58,-128.416"/>
<polygon fill="midnightblue" stroke="midnightblue" points="2955.39,-124.913 2945.34,-128.264 2955.29,-131.912 2955.39,-124.913"/>
</g>
<!-- Node49&#45;&gt;Node8 -->
<g id="edge149" class="edge"><title>Node49&#45;&gt;Node8</title>
<path fill="none" stroke="midnightblue" d="M3002.12,-391.422C3078.43,-386.104 3212.65,-372.863 3251,-344 3287.61,-316.447 3307.4,-284.783 3283,-246 3209.75,-129.563 3136.9,-147.521 3004,-112 2894.36,-82.6956 2539.41,-70.768 2432.65,-67.7884"/>
<polygon fill="midnightblue" stroke="midnightblue" points="2432.64,-64.287 2422.55,-67.5128 2432.45,-71.2844 2432.64,-64.287"/>
</g>
<!-- Node49&#45;&gt;Node21 -->
<g id="edge152" class="edge"><title>Node49&#45;&gt;Node21</title>
<path fill="none" stroke="midnightblue" d="M2951.21,-380.374C2956.66,-356.397 2967.72,-307.748 2973.78,-281.056"/>
<polygon fill="midnightblue" stroke="midnightblue" points="2977.24,-281.624 2976.05,-271.097 2970.42,-280.073 2977.24,-281.624"/>
</g>
<!-- Node49&#45;&gt;Node22 -->
<g id="edge154" class="edge"><title>Node49&#45;&gt;Node22</title>
<path fill="none" stroke="midnightblue" d="M2941.69,-380.374C2930.87,-356.183 2908.84,-306.877 2896.98,-280.346"/>
<polygon fill="midnightblue" stroke="midnightblue" points="2900.12,-278.799 2892.84,-271.097 2893.73,-281.655 2900.12,-278.799"/>
</g>
<!-- Node49&#45;&gt;Node47 -->
<g id="edge148" class="edge"><title>Node49&#45;&gt;Node47</title>
<path fill="none" stroke="midnightblue" d="M2965.58,-380.396C2976.61,-371.538 2991.04,-359.96 3003.35,-350.086"/>
<polygon fill="midnightblue" stroke="midnightblue" points="3005.85,-352.565 3011.46,-343.577 3001.47,-347.105 3005.85,-352.565"/>
</g>
<!-- Node49&#45;&gt;Node48 -->
<g id="edge155" class="edge"><title>Node49&#45;&gt;Node48</title>
<path fill="none" stroke="midnightblue" d="M2996.18,-380.433C3023.99,-371.536 3059.24,-358.911 3089,-344 3127.99,-324.461 3169.52,-294.865 3192.97,-277.23"/>
<polygon fill="midnightblue" stroke="midnightblue" points="3195.18,-279.942 3201.03,-271.103 3190.95,-274.369 3195.18,-279.942"/>
</g>
<!-- Node50&#45;&gt;Node9 -->
<g id="edge159" class="edge"><title>Node50&#45;&gt;Node9</title>
<path fill="none" stroke="midnightblue" d="M1635.04,-385.993C1666.75,-369.899 1731.52,-331.643 1757,-277 1774.9,-238.606 1829.51,-189.755 1755,-112 1730.09,-86.0106 1211.3,-72.2263 1032.75,-68.2385"/>
<polygon fill="midnightblue" stroke="midnightblue" points="1032.82,-64.7393 1022.74,-68.0174 1032.66,-71.7376 1032.82,-64.7393"/>
</g>
<!-- Node50&#45;&gt;Node13 -->
<g id="edge161" class="edge"><title>Node50&#45;&gt;Node13</title>
<path fill="none" stroke="midnightblue" d="M1609.66,-385.812C1595.62,-369.633 1563.37,-334.579 1530,-313 1504.13,-296.268 1471.79,-283.112 1447.06,-274.428"/>
<polygon fill="midnightblue" stroke="midnightblue" points="1447.9,-271.017 1437.3,-271.096 1445.63,-277.641 1447.9,-271.017"/>
</g>
<!-- Node50&#45;&gt;Node15 -->
<g id="edge158" class="edge"><title>Node50&#45;&gt;Node15</title>
<path fill="none" stroke="midnightblue" d="M1612.49,-385.828C1604.16,-370.269 1585.27,-337.001 1564,-313 1533.24,-278.289 1525.44,-266.822 1484,-246 1422.35,-215.024 1394.46,-241.341 1333,-210 1315.76,-201.208 1276.52,-165.194 1254.24,-144.096"/>
<polygon fill="midnightblue" stroke="midnightblue" points="1256.52,-141.44 1246.87,-137.076 1251.7,-146.508 1256.52,-141.44"/>
</g>
<!-- Node50&#45;&gt;Node27 -->
<g id="edge160" class="edge"><title>Node50&#45;&gt;Node27</title>
<path fill="none" stroke="midnightblue" d="M1579.84,-385.936C1529.02,-374.22 1437.79,-353.193 1382.19,-340.377"/>
<polygon fill="midnightblue" stroke="midnightblue" points="1382.77,-336.919 1372.24,-338.083 1381.2,-343.74 1382.77,-336.919"/>
</g>
</g>
</svg>
