<?xml version="1.0" encoding="UTF-8" standalone="no"?>
<!DOCTYPE svg PUBLIC "-//W3C//DTD SVG 1.1//EN"
 "http://www.w3.org/Graphics/SVG/1.1/DTD/svg11.dtd">
<!-- Generated by graphviz version 2.38.0 (20140413.2041)
 -->
<!-- Title: util/UUID.cpp Pages: 1 -->
<svg width="488pt" height="196pt"
 viewBox="0.00 0.00 487.50 196.00" xmlns="http://www.w3.org/2000/svg" xmlns:xlink="http://www.w3.org/1999/xlink">
<g id="graph0" class="graph" transform="scale(1 1) rotate(0) translate(4 192)">
<title>util/UUID.cpp</title>
<polygon fill="white" stroke="none" points="-4,4 -4,-192 483.5,-192 483.5,4 -4,4"/>
<!-- Node1 -->
<g id="node1" class="node"><title>Node1</title>
<polygon fill="#bfbfbf" stroke="black" points="171.5,-168.5 171.5,-187.5 246.5,-187.5 246.5,-168.5 171.5,-168.5"/>
<text text-anchor="middle" x="209" y="-175.5" font-family="Helvetica,sans-Serif" font-size="10.00">util/UUID.cpp</text>
</g>
<!-- Node2 -->
<g id="node2" class="node"><title>Node2</title>
<polygon fill="white" stroke="#bfbfbf" points="0,-112.5 0,-131.5 52,-131.5 52,-112.5 0,-112.5"/>
<text text-anchor="middle" x="26" y="-119.5" font-family="Helvetica,sans-Serif" font-size="10.00">sstream</text>
</g>
<!-- Node1&#45;&gt;Node2 -->
<g id="edge1" class="edge"><title>Node1&#45;&gt;Node2</title>
<path fill="none" stroke="midnightblue" d="M180.003,-168.444C147.99,-158.997 96.4235,-143.781 61.8873,-133.59"/>
<polygon fill="midnightblue" stroke="midnightblue" points="62.7746,-130.202 52.1928,-130.729 60.7934,-136.916 62.7746,-130.202"/>
</g>
<!-- Node3 -->
<g id="node3" class="node"><title>Node3</title>
<polygon fill="white" stroke="#bfbfbf" points="70.5,-112.5 70.5,-131.5 187.5,-131.5 187.5,-112.5 70.5,-112.5"/>
<text text-anchor="middle" x="129" y="-119.5" font-family="Helvetica,sans-Serif" font-size="10.00">boost/uuid/uuid_io.hpp</text>
</g>
<!-- Node1&#45;&gt;Node3 -->
<g id="edge2" class="edge"><title>Node1&#45;&gt;Node3</title>
<path fill="none" stroke="midnightblue" d="M196.147,-168.324C183.784,-159.979 164.87,-147.212 150.263,-137.352"/>
<polygon fill="midnightblue" stroke="midnightblue" points="152.068,-134.348 141.821,-131.655 148.152,-140.15 152.068,-134.348"/>
</g>
<!-- Node4 -->
<g id="node4" class="node"><title>Node4</title>
<polygon fill="white" stroke="#bfbfbf" points="205.5,-112.5 205.5,-131.5 372.5,-131.5 372.5,-112.5 205.5,-112.5"/>
<text text-anchor="middle" x="289" y="-119.5" font-family="Helvetica,sans-Serif" font-size="10.00">boost/uuid/random_generator.hpp</text>
</g>
<!-- Node1&#45;&gt;Node4 -->
<g id="edge3" class="edge"><title>Node1&#45;&gt;Node4</title>
<path fill="none" stroke="midnightblue" d="M221.853,-168.324C234.216,-159.979 253.13,-147.212 267.737,-137.352"/>
<polygon fill="midnightblue" stroke="midnightblue" points="269.848,-140.15 276.179,-131.655 265.932,-134.348 269.848,-140.15"/>
</g>
<!-- Node5 -->
<g id="node5" class="node"><title>Node5</title>
<g id="a_node5"><a xlink:href="_u_u_i_d_8h.html" target="_top" xlink:title="UUID.h">
<polygon fill="white" stroke="black" points="390.5,-112.5 390.5,-131.5 439.5,-131.5 439.5,-112.5 390.5,-112.5"/>
<text text-anchor="middle" x="415" y="-119.5" font-family="Helvetica,sans-Serif" font-size="10.00">UUID.h</text>
</a>
</g>
</g>
<!-- Node1&#45;&gt;Node5 -->
<g id="edge4" class="edge"><title>Node1&#45;&gt;Node5</title>
<path fill="none" stroke="midnightblue" d="M242.196,-168.489C275.003,-160.05 326.887,-146.632 380.179,-132.466"/>
<polygon fill="midnightblue" stroke="midnightblue" points="381.379,-135.768 390.142,-129.813 379.578,-129.004 381.379,-135.768"/>
</g>
<!-- Node6 -->
<g id="node6" class="node"><title>Node6</title>
<g id="a_node6"><a xlink:href="_common_8h.html" target="_top" xlink:title="uscxml/Common.h">
<polygon fill="white" stroke="black" points="321.5,-56.5 321.5,-75.5 420.5,-75.5 420.5,-56.5 321.5,-56.5"/>
<text text-anchor="middle" x="371" y="-63.5" font-family="Helvetica,sans-Serif" font-size="10.00">uscxml/Common.h</text>
</a>
</g>
</g>
<!-- Node5&#45;&gt;Node6 -->
<g id="edge5" class="edge"><title>Node5&#45;&gt;Node6</title>
<path fill="none" stroke="midnightblue" d="M407.734,-112.083C401.455,-104.377 392.212,-93.0333 384.569,-83.6531"/>
<polygon fill="midnightblue" stroke="midnightblue" points="387.161,-81.2926 378.131,-75.7511 381.734,-85.7143 387.161,-81.2926"/>
</g>
<!-- Node9 -->
<g id="node9" class="node"><title>Node9</title>
<polygon fill="white" stroke="#bfbfbf" points="438.5,-56.5 438.5,-75.5 479.5,-75.5 479.5,-56.5 438.5,-56.5"/>
<text text-anchor="middle" x="459" y="-63.5" font-family="Helvetica,sans-Serif" font-size="10.00">string</text>
</g>
<!-- Node5&#45;&gt;Node9 -->
<g id="edge8" class="edge"><title>Node5&#45;&gt;Node9</title>
<path fill="none" stroke="midnightblue" d="M422.266,-112.083C428.545,-104.377 437.788,-93.0333 445.431,-83.6531"/>
<polygon fill="midnightblue" stroke="midnightblue" points="448.266,-85.7143 451.869,-75.7511 442.839,-81.2926 448.266,-85.7143"/>
</g>
<!-- Node7 -->
<g id="node7" class="node"><title>Node7</title>
<polygon fill="white" stroke="#bfbfbf" points="297,-0.5 297,-19.5 369,-19.5 369,-0.5 297,-0.5"/>
<text text-anchor="middle" x="333" y="-7.5" font-family="Helvetica,sans-Serif" font-size="10.00">sys/socket.h</text>
</g>
<!-- Node6&#45;&gt;Node7 -->
<g id="edge6" class="edge"><title>Node6&#45;&gt;Node7</title>
<path fill="none" stroke="midnightblue" d="M364.725,-56.083C359.358,-48.4554 351.482,-37.2645 344.921,-27.9408"/>
<polygon fill="midnightblue" stroke="midnightblue" points="347.775,-25.9149 339.158,-19.7511 342.051,-29.9434 347.775,-25.9149"/>
</g>
<!-- Node8 -->
<g id="node8" class="node"><title>Node8</title>
<polygon fill="white" stroke="#bfbfbf" points="387,-0.5 387,-19.5 431,-19.5 431,-0.5 387,-0.5"/>
<text text-anchor="middle" x="409" y="-7.5" font-family="Helvetica,sans-Serif" font-size="10.00">cmath</text>
</g>
<!-- Node6&#45;&gt;Node8 -->
<g id="edge7" class="edge"><title>Node6&#45;&gt;Node8</title>
<path fill="none" stroke="midnightblue" d="M377.275,-56.083C382.642,-48.4554 390.518,-37.2645 397.079,-27.9408"/>
<polygon fill="midnightblue" stroke="midnightblue" points="399.949,-29.9434 402.842,-19.7511 394.225,-25.9149 399.949,-29.9434"/>
</g>
</g>
</svg>
