<?xml version="1.0" encoding="UTF-8" standalone="no"?>
<!DOCTYPE svg PUBLIC "-//W3C//DTD SVG 1.1//EN"
 "http://www.w3.org/Graphics/SVG/1.1/DTD/svg11.dtd">
<!-- Generated by graphviz version 2.38.0 (20140413.2041)
 -->
<!-- Title: plugins/datamodel/ecmascript/v8/V8DataModel.cpp Pages: 1 -->
<svg width="1958pt" height="554pt"
 viewBox="0.00 0.00 1958.23 554.00" xmlns="http://www.w3.org/2000/svg" xmlns:xlink="http://www.w3.org/1999/xlink">
<g id="graph0" class="graph" transform="scale(1 1) rotate(0) translate(4 550)">
<title>plugins/datamodel/ecmascript/v8/V8DataModel.cpp</title>
<polygon fill="white" stroke="none" points="-4,4 -4,-550 1954.23,-550 1954.23,4 -4,4"/>
<!-- Node1 -->
<g id="node1" class="node"><title>Node1</title>
<polygon fill="#bfbfbf" stroke="black" points="982.733,-515.5 982.733,-545.5 1131.73,-545.5 1131.73,-515.5 982.733,-515.5"/>
<text text-anchor="start" x="990.733" y="-533.5" font-family="Helvetica,sans-Serif" font-size="10.00">plugins/datamodel/ecmascript</text>
<text text-anchor="middle" x="1057.23" y="-522.5" font-family="Helvetica,sans-Serif" font-size="10.00">/v8/V8DataModel.cpp</text>
</g>
<!-- Node2 -->
<g id="node2" class="node"><title>Node2</title>
<g id="a_node2"><a xlink:href="_common_8h.html" target="_top" xlink:title="uscxml/Common.h">
<polygon fill="white" stroke="black" points="989.733,-56.5 989.733,-75.5 1088.73,-75.5 1088.73,-56.5 989.733,-56.5"/>
<text text-anchor="middle" x="1039.23" y="-63.5" font-family="Helvetica,sans-Serif" font-size="10.00">uscxml/Common.h</text>
</a>
</g>
</g>
<!-- Node1&#45;&gt;Node2 -->
<g id="edge1" class="edge"><title>Node1&#45;&gt;Node2</title>
<path fill="none" stroke="midnightblue" d="M1131.89,-525.624C1326.13,-514.547 1832.23,-478.93 1832.23,-408.5 1832.23,-408.5 1832.23,-408.5 1832.23,-177 1832.23,-139.998 1283.39,-88.4305 1098.91,-72.1417"/>
<polygon fill="midnightblue" stroke="midnightblue" points="1099.11,-68.646 1088.84,-71.256 1098.49,-75.619 1099.11,-68.646"/>
</g>
<!-- Node5 -->
<g id="node5" class="node"><title>Node5</title>
<g id="a_node5"><a xlink:href="_u_r_l_8h.html" target="_top" xlink:title="uscxml/util/URL.h">
<polygon fill="white" stroke="black" points="310.233,-280.5 310.233,-299.5 404.233,-299.5 404.233,-280.5 310.233,-280.5"/>
<text text-anchor="middle" x="357.233" y="-287.5" font-family="Helvetica,sans-Serif" font-size="10.00">uscxml/util/URL.h</text>
</a>
</g>
</g>
<!-- Node1&#45;&gt;Node5 -->
<g id="edge4" class="edge"><title>Node1&#45;&gt;Node5</title>
<path fill="none" stroke="midnightblue" d="M982.618,-530.152C849.967,-530.112 579.402,-524.264 498.233,-479 427.555,-439.587 381.754,-348.387 364.711,-309.311"/>
<polygon fill="midnightblue" stroke="midnightblue" points="367.789,-307.604 360.669,-299.758 361.342,-310.332 367.789,-307.604"/>
</g>
<!-- Node6 -->
<g id="node6" class="node"><title>Node6</title>
<g id="a_node6"><a xlink:href="_event_8h.html" target="_top" xlink:title="uscxml/messages/Event.h">
<polygon fill="white" stroke="black" points="692.733,-224.5 692.733,-243.5 825.733,-243.5 825.733,-224.5 692.733,-224.5"/>
<text text-anchor="middle" x="759.233" y="-231.5" font-family="Helvetica,sans-Serif" font-size="10.00">uscxml/messages/Event.h</text>
</a>
</g>
</g>
<!-- Node1&#45;&gt;Node6 -->
<g id="edge63" class="edge"><title>Node1&#45;&gt;Node6</title>
<path fill="none" stroke="midnightblue" d="M1035.52,-515.372C992.876,-487.219 895.909,-421.201 822.233,-356 796.57,-333.29 784.301,-330.778 769.233,-300 762.173,-285.58 759.852,-267.388 759.194,-253.92"/>
<polygon fill="midnightblue" stroke="midnightblue" points="762.692,-253.822 758.964,-243.904 755.694,-253.982 762.692,-253.822"/>
</g>
<!-- Node23 -->
<g id="node23" class="node"><title>Node23</title>
<g id="a_node23"><a xlink:href="_string_8h.html" target="_top" xlink:title="uscxml/util/String.h">
<polygon fill="white" stroke="black" points="346.233,-168.5 346.233,-187.5 446.233,-187.5 446.233,-168.5 346.233,-168.5"/>
<text text-anchor="middle" x="396.233" y="-175.5" font-family="Helvetica,sans-Serif" font-size="10.00">uscxml/util/String.h</text>
</a>
</g>
</g>
<!-- Node1&#45;&gt;Node23 -->
<g id="edge34" class="edge"><title>Node1&#45;&gt;Node23</title>
<path fill="none" stroke="midnightblue" d="M982.596,-528.361C833.334,-524.055 512.233,-503.726 512.233,-408.5 512.233,-408.5 512.233,-408.5 512.233,-289 512.233,-241.814 461.07,-208.786 426.701,-191.923"/>
<polygon fill="midnightblue" stroke="midnightblue" points="428.048,-188.688 417.509,-187.597 425.067,-195.022 428.048,-188.688"/>
</g>
<!-- Node24 -->
<g id="node24" class="node"><title>Node24</title>
<g id="a_node24"><a xlink:href="_v8_data_model_8h.html" target="_top" xlink:title="V8DataModel.h">
<polygon fill="white" stroke="black" points="1014.73,-459.5 1014.73,-478.5 1099.73,-478.5 1099.73,-459.5 1014.73,-459.5"/>
<text text-anchor="middle" x="1057.23" y="-466.5" font-family="Helvetica,sans-Serif" font-size="10.00">V8DataModel.h</text>
</a>
</g>
</g>
<!-- Node1&#45;&gt;Node24 -->
<g id="edge37" class="edge"><title>Node1&#45;&gt;Node24</title>
<path fill="none" stroke="midnightblue" d="M1057.23,-515.399C1057.23,-507.466 1057.23,-497.458 1057.23,-488.858"/>
<polygon fill="midnightblue" stroke="midnightblue" points="1060.73,-488.658 1057.23,-478.658 1053.73,-488.658 1060.73,-488.658"/>
</g>
<!-- Node31 -->
<g id="node31" class="node"><title>Node31</title>
<g id="a_node31"><a xlink:href="_d_o_m_8h.html" target="_top" xlink:title="uscxml/util/DOM.h">
<polygon fill="white" stroke="black" points="1477.23,-280.5 1477.23,-299.5 1575.23,-299.5 1575.23,-280.5 1477.23,-280.5"/>
<text text-anchor="middle" x="1526.23" y="-287.5" font-family="Helvetica,sans-Serif" font-size="10.00">uscxml/util/DOM.h</text>
</a>
</g>
</g>
<!-- Node1&#45;&gt;Node31 -->
<g id="edge64" class="edge"><title>Node1&#45;&gt;Node31</title>
<path fill="none" stroke="midnightblue" d="M1116.45,-515.427C1180.03,-498.855 1282.75,-467.79 1363.23,-423 1423.18,-389.64 1483.18,-333.889 1510.68,-306.772"/>
<polygon fill="midnightblue" stroke="midnightblue" points="1513.23,-309.168 1517.84,-299.628 1508.29,-304.211 1513.23,-309.168"/>
</g>
<!-- Node34 -->
<g id="node34" class="node"><title>Node34</title>
<polygon fill="white" stroke="#bfbfbf" points="1860.23,-459.5 1860.23,-478.5 1950.23,-478.5 1950.23,-459.5 1860.23,-459.5"/>
<text text-anchor="middle" x="1905.23" y="-466.5" font-family="Helvetica,sans-Serif" font-size="10.00">easylogging++.h</text>
</g>
<!-- Node1&#45;&gt;Node34 -->
<g id="edge72" class="edge"><title>Node1&#45;&gt;Node34</title>
<path fill="none" stroke="midnightblue" d="M1131.93,-526.897C1272.23,-521.526 1584.56,-507.277 1846.23,-479 1847.51,-478.862 1848.8,-478.717 1850.1,-478.565"/>
<polygon fill="midnightblue" stroke="midnightblue" points="1850.71,-482.015 1860.19,-477.286 1849.83,-475.071 1850.71,-482.015"/>
</g>
<!-- Node3 -->
<g id="node3" class="node"><title>Node3</title>
<polygon fill="white" stroke="#bfbfbf" points="965.233,-0.5 965.233,-19.5 1037.23,-19.5 1037.23,-0.5 965.233,-0.5"/>
<text text-anchor="middle" x="1001.23" y="-7.5" font-family="Helvetica,sans-Serif" font-size="10.00">sys/socket.h</text>
</g>
<!-- Node2&#45;&gt;Node3 -->
<g id="edge2" class="edge"><title>Node2&#45;&gt;Node3</title>
<path fill="none" stroke="midnightblue" d="M1032.96,-56.083C1027.59,-48.4554 1019.72,-37.2645 1013.15,-27.9408"/>
<polygon fill="midnightblue" stroke="midnightblue" points="1016.01,-25.9149 1007.39,-19.7511 1010.28,-29.9434 1016.01,-25.9149"/>
</g>
<!-- Node4 -->
<g id="node4" class="node"><title>Node4</title>
<polygon fill="white" stroke="#bfbfbf" points="1055.23,-0.5 1055.23,-19.5 1099.23,-19.5 1099.23,-0.5 1055.23,-0.5"/>
<text text-anchor="middle" x="1077.23" y="-7.5" font-family="Helvetica,sans-Serif" font-size="10.00">cmath</text>
</g>
<!-- Node2&#45;&gt;Node4 -->
<g id="edge3" class="edge"><title>Node2&#45;&gt;Node4</title>
<path fill="none" stroke="midnightblue" d="M1045.51,-56.083C1050.88,-48.4554 1058.75,-37.2645 1065.31,-27.9408"/>
<polygon fill="midnightblue" stroke="midnightblue" points="1068.18,-29.9434 1071.07,-19.7511 1062.46,-25.9149 1068.18,-29.9434"/>
</g>
<!-- Node5&#45;&gt;Node2 -->
<g id="edge5" class="edge"><title>Node5&#45;&gt;Node2</title>
<path fill="none" stroke="midnightblue" d="M382.268,-280.428C406.223,-271.979 443.197,-258.291 474.233,-244 481.232,-240.777 710.912,-114.406 718.233,-112 806.276,-83.0591 913.888,-72.731 979.454,-69.0452"/>
<polygon fill="midnightblue" stroke="midnightblue" points="979.805,-72.5317 989.606,-68.5089 979.435,-65.5414 979.805,-72.5317"/>
</g>
<!-- Node5&#45;&gt;Node6 -->
<g id="edge6" class="edge"><title>Node5&#45;&gt;Node6</title>
<path fill="none" stroke="midnightblue" d="M404.529,-282.647C473.964,-273.32 604.099,-255.839 685.965,-244.842"/>
<polygon fill="midnightblue" stroke="midnightblue" points="686.504,-248.301 695.949,-243.501 685.572,-241.363 686.504,-248.301"/>
</g>
<!-- Node8 -->
<g id="node8" class="node"><title>Node8</title>
<polygon fill="white" stroke="#bfbfbf" points="451.733,-112.5 451.733,-131.5 480.733,-131.5 480.733,-112.5 451.733,-112.5"/>
<text text-anchor="middle" x="466.233" y="-119.5" font-family="Helvetica,sans-Serif" font-size="10.00">list</text>
</g>
<!-- Node5&#45;&gt;Node8 -->
<g id="edge29" class="edge"><title>Node5&#45;&gt;Node8</title>
<path fill="none" stroke="midnightblue" d="M398.337,-280.407C418.795,-273.925 441.937,-262.802 455.233,-244 476.778,-213.532 473.799,-167.391 469.901,-141.788"/>
<polygon fill="midnightblue" stroke="midnightblue" points="473.291,-140.853 468.131,-131.6 466.395,-142.052 473.291,-140.853"/>
</g>
<!-- Node9 -->
<g id="node9" class="node"><title>Node9</title>
<polygon fill="white" stroke="#bfbfbf" points="224.233,-112.5 224.233,-131.5 260.233,-131.5 260.233,-112.5 224.233,-112.5"/>
<text text-anchor="middle" x="242.233" y="-119.5" font-family="Helvetica,sans-Serif" font-size="10.00">map</text>
</g>
<!-- Node5&#45;&gt;Node9 -->
<g id="edge27" class="edge"><title>Node5&#45;&gt;Node9</title>
<path fill="none" stroke="midnightblue" d="M310.167,-284.713C258.74,-278.939 181.247,-266.671 163.233,-244 134.415,-207.733 188.263,-160.836 220.523,-137.51"/>
<polygon fill="midnightblue" stroke="midnightblue" points="222.789,-140.195 228.962,-131.584 218.767,-134.466 222.789,-140.195"/>
</g>
<!-- Node13 -->
<g id="node13" class="node"><title>Node13</title>
<polygon fill="white" stroke="#bfbfbf" points="488.733,-56.5 488.733,-75.5 529.733,-75.5 529.733,-56.5 488.733,-56.5"/>
<text text-anchor="middle" x="509.233" y="-63.5" font-family="Helvetica,sans-Serif" font-size="10.00">string</text>
</g>
<!-- Node5&#45;&gt;Node13 -->
<g id="edge25" class="edge"><title>Node5&#45;&gt;Node13</title>
<path fill="none" stroke="midnightblue" d="M310.009,-288.97C234.721,-287.804 92.7416,-280.661 61.2329,-244 55.439,-237.259 57.1993,-231.921 61.2329,-224 99.6367,-148.584 136.967,-144.202 215.233,-112 305.663,-74.7923 423.187,-68.008 478.233,-66.9969"/>
<polygon fill="midnightblue" stroke="midnightblue" points="478.43,-70.4947 488.383,-66.8643 478.338,-63.4953 478.43,-70.4947"/>
</g>
<!-- Node15 -->
<g id="node15" class="node"><title>Node15</title>
<polygon fill="white" stroke="#bfbfbf" points="198.233,-56.5 198.233,-75.5 250.233,-75.5 250.233,-56.5 198.233,-56.5"/>
<text text-anchor="middle" x="224.233" y="-63.5" font-family="Helvetica,sans-Serif" font-size="10.00">sstream</text>
</g>
<!-- Node5&#45;&gt;Node15 -->
<g id="edge26" class="edge"><title>Node5&#45;&gt;Node15</title>
<path fill="none" stroke="midnightblue" d="M310.085,-289.798C228.026,-290.066 64.2397,-285.267 28.2329,-244 -10.3376,-199.795 -8.31582,-157.891 28.2329,-112 47.8184,-87.4082 136.847,-75.1462 187.921,-70.0366"/>
<polygon fill="midnightblue" stroke="midnightblue" points="188.281,-73.5183 197.902,-69.0807 187.613,-66.5502 188.281,-73.5183"/>
</g>
<!-- Node18 -->
<g id="node18" class="node"><title>Node18</title>
<polygon fill="white" stroke="#bfbfbf" points="1433.23,-224.5 1433.23,-243.5 1463.23,-243.5 1463.23,-224.5 1433.23,-224.5"/>
<text text-anchor="middle" x="1448.23" y="-231.5" font-family="Helvetica,sans-Serif" font-size="10.00">set</text>
</g>
<!-- Node5&#45;&gt;Node18 -->
<g id="edge28" class="edge"><title>Node5&#45;&gt;Node18</title>
<path fill="none" stroke="midnightblue" d="M404.479,-288.58C550.614,-286.927 1008.14,-279.103 1385.23,-244 1397.65,-242.844 1411.37,-240.957 1422.83,-239.208"/>
<polygon fill="midnightblue" stroke="midnightblue" points="1423.67,-242.619 1433.01,-237.603 1422.58,-235.704 1423.67,-242.619"/>
</g>
<!-- Node19 -->
<g id="node19" class="node"><title>Node19</title>
<polygon fill="white" stroke="#bfbfbf" points="70.7329,-224.5 70.7329,-243.5 115.733,-243.5 115.733,-224.5 70.7329,-224.5"/>
<text text-anchor="middle" x="93.2329" y="-231.5" font-family="Helvetica,sans-Serif" font-size="10.00">thread</text>
</g>
<!-- Node5&#45;&gt;Node19 -->
<g id="edge30" class="edge"><title>Node5&#45;&gt;Node19</title>
<path fill="none" stroke="midnightblue" d="M311.027,-280.442C265.073,-271.789 192.613,-257.763 130.233,-244 128.78,-243.68 127.297,-243.346 125.8,-243.004"/>
<polygon fill="midnightblue" stroke="midnightblue" points="126.431,-239.557 115.895,-240.675 124.829,-246.371 126.431,-239.557"/>
</g>
<!-- Node20 -->
<g id="node20" class="node"><title>Node20</title>
<polygon fill="white" stroke="#bfbfbf" points="172.733,-224.5 172.733,-243.5 269.733,-243.5 269.733,-224.5 172.733,-224.5"/>
<text text-anchor="middle" x="221.233" y="-231.5" font-family="Helvetica,sans-Serif" font-size="10.00">condition_variable</text>
</g>
<!-- Node5&#45;&gt;Node20 -->
<g id="edge31" class="edge"><title>Node5&#45;&gt;Node20</title>
<path fill="none" stroke="midnightblue" d="M335.683,-280.444C313.202,-271.517 277.745,-257.439 252.253,-247.317"/>
<polygon fill="midnightblue" stroke="midnightblue" points="253.267,-243.954 242.682,-243.516 250.684,-250.46 253.267,-243.954"/>
</g>
<!-- Node21 -->
<g id="node21" class="node"><title>Node21</title>
<polygon fill="white" stroke="#bfbfbf" points="288.233,-224.5 288.233,-243.5 348.233,-243.5 348.233,-224.5 288.233,-224.5"/>
<text text-anchor="middle" x="318.233" y="-231.5" font-family="Helvetica,sans-Serif" font-size="10.00">curl/curl.h</text>
</g>
<!-- Node5&#45;&gt;Node21 -->
<g id="edge32" class="edge"><title>Node5&#45;&gt;Node21</title>
<path fill="none" stroke="midnightblue" d="M350.793,-280.083C345.284,-272.455 337.202,-261.264 330.468,-251.941"/>
<polygon fill="midnightblue" stroke="midnightblue" points="333.245,-249.809 324.553,-243.751 327.571,-253.907 333.245,-249.809"/>
</g>
<!-- Node22 -->
<g id="node22" class="node"><title>Node22</title>
<polygon fill="white" stroke="#bfbfbf" points="366.233,-224.5 366.233,-243.5 446.233,-243.5 446.233,-224.5 366.233,-224.5"/>
<text text-anchor="middle" x="406.233" y="-231.5" font-family="Helvetica,sans-Serif" font-size="10.00">uriparser/Uri.h</text>
</g>
<!-- Node5&#45;&gt;Node22 -->
<g id="edge33" class="edge"><title>Node5&#45;&gt;Node22</title>
<path fill="none" stroke="midnightblue" d="M365.324,-280.083C372.388,-272.298 382.82,-260.801 391.382,-251.367"/>
<polygon fill="midnightblue" stroke="midnightblue" points="394.164,-253.509 398.292,-243.751 388.98,-248.805 394.164,-253.509"/>
</g>
<!-- Node7 -->
<g id="node7" class="node"><title>Node7</title>
<g id="a_node7"><a xlink:href="_data_8h.html" target="_top" xlink:title="uscxml/messages/Data.h">
<polygon fill="white" stroke="black" points="883.233,-168.5 883.233,-187.5 1011.23,-187.5 1011.23,-168.5 883.233,-168.5"/>
<text text-anchor="middle" x="947.233" y="-175.5" font-family="Helvetica,sans-Serif" font-size="10.00">uscxml/messages/Data.h</text>
</a>
</g>
</g>
<!-- Node6&#45;&gt;Node7 -->
<g id="edge7" class="edge"><title>Node6&#45;&gt;Node7</title>
<path fill="none" stroke="midnightblue" d="M789.022,-224.444C821.062,-215.241 872.166,-200.562 907.586,-190.388"/>
<polygon fill="midnightblue" stroke="midnightblue" points="908.938,-193.641 917.583,-187.516 907.005,-186.913 908.938,-193.641"/>
</g>
<!-- Node17 -->
<g id="node17" class="node"><title>Node17</title>
<g id="a_node17"><a xlink:href="_u_u_i_d_8h.html" target="_top" xlink:title="uscxml/util/UUID.h">
<polygon fill="white" stroke="black" points="727.733,-112.5 727.733,-131.5 826.733,-131.5 826.733,-112.5 727.733,-112.5"/>
<text text-anchor="middle" x="777.233" y="-119.5" font-family="Helvetica,sans-Serif" font-size="10.00">uscxml/util/UUID.h</text>
</a>
</g>
</g>
<!-- Node6&#45;&gt;Node17 -->
<g id="edge22" class="edge"><title>Node6&#45;&gt;Node17</title>
<path fill="none" stroke="midnightblue" d="M760.645,-224.368C763.55,-206.617 770.251,-165.666 774.19,-141.597"/>
<polygon fill="midnightblue" stroke="midnightblue" points="777.666,-142.025 775.827,-131.591 770.758,-140.895 777.666,-142.025"/>
</g>
<!-- Node7&#45;&gt;Node2 -->
<g id="edge12" class="edge"><title>Node7&#45;&gt;Node2</title>
<path fill="none" stroke="midnightblue" d="M924.045,-168.488C896.475,-157.061 856.31,-135.465 874.233,-112 887.178,-95.0512 937.552,-82.954 979.272,-75.6004"/>
<polygon fill="midnightblue" stroke="midnightblue" points="980.119,-79.0067 989.39,-73.8781 978.944,-72.106 980.119,-79.0067"/>
</g>
<!-- Node7&#45;&gt;Node8 -->
<g id="edge8" class="edge"><title>Node7&#45;&gt;Node8</title>
<path fill="none" stroke="midnightblue" d="M882.965,-169.535C878.319,-169.01 873.704,-168.494 869.233,-168 717.757,-151.266 679.448,-150.95 528.233,-132 515.883,-130.452 502.186,-128.49 490.814,-126.793"/>
<polygon fill="midnightblue" stroke="midnightblue" points="491.154,-123.305 480.743,-125.269 490.107,-130.226 491.154,-123.305"/>
</g>
<!-- Node7&#45;&gt;Node9 -->
<g id="edge9" class="edge"><title>Node7&#45;&gt;Node9</title>
<path fill="none" stroke="midnightblue" d="M883.113,-172.089C734.933,-160.739 373.526,-133.057 270.229,-125.144"/>
<polygon fill="midnightblue" stroke="midnightblue" points="270.491,-121.654 260.253,-124.38 269.956,-128.634 270.491,-121.654"/>
</g>
<!-- Node10 -->
<g id="node10" class="node"><title>Node10</title>
<polygon fill="white" stroke="#bfbfbf" points="1183.73,-56.5 1183.73,-75.5 1236.73,-75.5 1236.73,-56.5 1183.73,-56.5"/>
<text text-anchor="middle" x="1210.23" y="-63.5" font-family="Helvetica,sans-Serif" font-size="10.00">memory</text>
</g>
<!-- Node7&#45;&gt;Node10 -->
<g id="edge10" class="edge"><title>Node7&#45;&gt;Node10</title>
<path fill="none" stroke="midnightblue" d="M967.87,-168.368C1014.15,-149.01 1126.4,-102.065 1180.33,-79.5074"/>
<polygon fill="midnightblue" stroke="midnightblue" points="1181.82,-82.679 1189.69,-75.5914 1179.12,-76.2211 1181.82,-82.679"/>
</g>
<!-- Node11 -->
<g id="node11" class="node"><title>Node11</title>
<polygon fill="white" stroke="#bfbfbf" points="1309.73,-112.5 1309.73,-131.5 1394.73,-131.5 1394.73,-112.5 1309.73,-112.5"/>
<text text-anchor="middle" x="1352.23" y="-119.5" font-family="Helvetica,sans-Serif" font-size="10.00">uscxml/config.h</text>
</g>
<!-- Node7&#45;&gt;Node11 -->
<g id="edge11" class="edge"><title>Node7&#45;&gt;Node11</title>
<path fill="none" stroke="midnightblue" d="M1011.41,-168.444C1091.08,-157.821 1225.47,-139.902 1299.45,-130.037"/>
<polygon fill="midnightblue" stroke="midnightblue" points="1300.03,-133.491 1309.48,-128.7 1299.11,-126.553 1300.03,-133.491"/>
</g>
<!-- Node12 -->
<g id="node12" class="node"><title>Node12</title>
<g id="a_node12"><a xlink:href="_convenience_8h.html" target="_top" xlink:title="uscxml/util/Convenience.h">
<polygon fill="white" stroke="black" points="537.733,-112.5 537.733,-131.5 670.733,-131.5 670.733,-112.5 537.733,-112.5"/>
<text text-anchor="middle" x="604.233" y="-119.5" font-family="Helvetica,sans-Serif" font-size="10.00">uscxml/util/Convenience.h</text>
</a>
</g>
</g>
<!-- Node7&#45;&gt;Node12 -->
<g id="edge13" class="edge"><title>Node7&#45;&gt;Node12</title>
<path fill="none" stroke="midnightblue" d="M892.883,-168.444C831.919,-158.846 733.122,-143.292 668.41,-133.104"/>
<polygon fill="midnightblue" stroke="midnightblue" points="668.751,-129.614 658.328,-131.516 667.662,-136.529 668.751,-129.614"/>
</g>
<!-- Node16 -->
<g id="node16" class="node"><title>Node16</title>
<g id="a_node16"><a xlink:href="_blob_8h.html" target="_top" xlink:title="uscxml/messages/Blob.h">
<polygon fill="white" stroke="black" points="883.733,-112.5 883.733,-131.5 1010.73,-131.5 1010.73,-112.5 883.733,-112.5"/>
<text text-anchor="middle" x="947.233" y="-119.5" font-family="Helvetica,sans-Serif" font-size="10.00">uscxml/messages/Blob.h</text>
</a>
</g>
</g>
<!-- Node7&#45;&gt;Node16 -->
<g id="edge18" class="edge"><title>Node7&#45;&gt;Node16</title>
<path fill="none" stroke="midnightblue" d="M947.233,-168.083C947.233,-161.006 947.233,-150.861 947.233,-141.986"/>
<polygon fill="midnightblue" stroke="midnightblue" points="950.733,-141.751 947.233,-131.751 943.733,-141.751 950.733,-141.751"/>
</g>
<!-- Node12&#45;&gt;Node2 -->
<g id="edge14" class="edge"><title>Node12&#45;&gt;Node2</title>
<path fill="none" stroke="midnightblue" d="M670.774,-112.74C754.994,-102.285 898.803,-84.4327 979.602,-74.4025"/>
<polygon fill="midnightblue" stroke="midnightblue" points="980.121,-77.865 989.613,-73.1597 979.258,-70.9183 980.121,-77.865"/>
</g>
<!-- Node12&#45;&gt;Node13 -->
<g id="edge15" class="edge"><title>Node12&#45;&gt;Node13</title>
<path fill="none" stroke="midnightblue" d="M588.969,-112.324C574.011,-103.822 550.978,-90.7288 533.506,-80.7975"/>
<polygon fill="midnightblue" stroke="midnightblue" points="534.882,-77.5534 524.458,-75.6545 531.422,-83.639 534.882,-77.5534"/>
</g>
<!-- Node14 -->
<g id="node14" class="node"><title>Node14</title>
<polygon fill="white" stroke="#bfbfbf" points="584.733,-56.5 584.733,-75.5 623.733,-75.5 623.733,-56.5 584.733,-56.5"/>
<text text-anchor="middle" x="604.233" y="-63.5" font-family="Helvetica,sans-Serif" font-size="10.00">limits</text>
</g>
<!-- Node12&#45;&gt;Node14 -->
<g id="edge16" class="edge"><title>Node12&#45;&gt;Node14</title>
<path fill="none" stroke="midnightblue" d="M604.233,-112.083C604.233,-105.006 604.233,-94.8611 604.233,-85.9865"/>
<polygon fill="midnightblue" stroke="midnightblue" points="607.733,-85.751 604.233,-75.7511 600.733,-85.7511 607.733,-85.751"/>
</g>
<!-- Node12&#45;&gt;Node15 -->
<g id="edge17" class="edge"><title>Node12&#45;&gt;Node15</title>
<path fill="none" stroke="midnightblue" d="M544.021,-112.444C464.328,-101.119 326.283,-81.5018 260.768,-72.1918"/>
<polygon fill="midnightblue" stroke="midnightblue" points="260.916,-68.6778 250.523,-70.7359 259.931,-75.6081 260.916,-68.6778"/>
</g>
<!-- Node16&#45;&gt;Node2 -->
<g id="edge21" class="edge"><title>Node16&#45;&gt;Node2</title>
<path fill="none" stroke="midnightblue" d="M962.014,-112.324C976.5,-103.822 998.806,-90.7288 1015.73,-80.7975"/>
<polygon fill="midnightblue" stroke="midnightblue" points="1017.64,-83.735 1024.49,-75.6545 1014.09,-77.6981 1017.64,-83.735"/>
</g>
<!-- Node16&#45;&gt;Node10 -->
<g id="edge20" class="edge"><title>Node16&#45;&gt;Node10</title>
<path fill="none" stroke="midnightblue" d="M988.906,-112.444C1039.78,-101.998 1125.01,-84.4986 1173.52,-74.5385"/>
<polygon fill="midnightblue" stroke="midnightblue" points="1174.48,-77.9134 1183.57,-72.4736 1173.07,-71.0565 1174.48,-77.9134"/>
</g>
<!-- Node16&#45;&gt;Node13 -->
<g id="edge19" class="edge"><title>Node16&#45;&gt;Node13</title>
<path fill="none" stroke="midnightblue" d="M883.677,-113.609C809.587,-104.923 683.469,-89.9255 575.233,-76 563.673,-74.5127 550.985,-72.8014 539.849,-71.2731"/>
<polygon fill="midnightblue" stroke="midnightblue" points="540.12,-67.7775 529.735,-69.8772 539.163,-74.7117 540.12,-67.7775"/>
</g>
<!-- Node17&#45;&gt;Node2 -->
<g id="edge23" class="edge"><title>Node17&#45;&gt;Node2</title>
<path fill="none" stroke="midnightblue" d="M818.748,-112.444C864.644,-102.984 938.613,-87.7384 988.059,-77.5472"/>
<polygon fill="midnightblue" stroke="midnightblue" points="988.825,-80.9631 997.912,-75.5164 987.412,-74.1072 988.825,-80.9631"/>
</g>
<!-- Node17&#45;&gt;Node13 -->
<g id="edge24" class="edge"><title>Node17&#45;&gt;Node13</title>
<path fill="none" stroke="midnightblue" d="M734.767,-112.444C680.567,-101.522 588.093,-82.8898 540.131,-73.2258"/>
<polygon fill="midnightblue" stroke="midnightblue" points="540.543,-69.7385 530.049,-71.1943 539.161,-76.6006 540.543,-69.7385"/>
</g>
<!-- Node23&#45;&gt;Node8 -->
<g id="edge36" class="edge"><title>Node23&#45;&gt;Node8</title>
<path fill="none" stroke="midnightblue" d="M407.48,-168.324C418.03,-160.185 434.034,-147.839 446.675,-138.087"/>
<polygon fill="midnightblue" stroke="midnightblue" points="449.001,-140.713 454.782,-131.834 444.726,-135.171 449.001,-140.713"/>
</g>
<!-- Node23&#45;&gt;Node13 -->
<g id="edge35" class="edge"><title>Node23&#45;&gt;Node13</title>
<path fill="none" stroke="midnightblue" d="M395.608,-168.398C395.096,-154.895 396.039,-128.562 409.233,-112 426.412,-90.4352 456.156,-78.868 478.752,-72.8883"/>
<polygon fill="midnightblue" stroke="midnightblue" points="479.662,-76.2692 488.56,-70.5182 478.018,-69.4651 479.662,-76.2692"/>
</g>
<!-- Node24&#45;&gt;Node8 -->
<g id="edge60" class="edge"><title>Node24&#45;&gt;Node8</title>
<path fill="none" stroke="midnightblue" d="M1014.44,-466.903C892.212,-462.618 550.233,-442.131 550.233,-347 550.233,-347 550.233,-347 550.233,-289 550.233,-228.409 505.127,-167.48 481.021,-139.245"/>
<polygon fill="midnightblue" stroke="midnightblue" points="483.513,-136.778 474.287,-131.568 478.25,-141.394 483.513,-136.778"/>
</g>
<!-- Node24&#45;&gt;Node18 -->
<g id="edge61" class="edge"><title>Node24&#45;&gt;Node18</title>
<path fill="none" stroke="midnightblue" d="M1099.97,-467.691C1175.76,-464.72 1333.76,-447.202 1419.23,-356 1445.61,-327.854 1449.3,-280.098 1449.12,-253.786"/>
<polygon fill="midnightblue" stroke="midnightblue" points="1452.61,-253.548 1448.84,-243.646 1445.62,-253.737 1452.61,-253.548"/>
</g>
<!-- Node25 -->
<g id="node25" class="node"><title>Node25</title>
<g id="a_node25"><a xlink:href="_data_model_impl_8h.html" target="_top" xlink:title="uscxml/plugins/DataModel\lImpl.h">
<polygon fill="white" stroke="black" points="1041.73,-392.5 1041.73,-422.5 1174.73,-422.5 1174.73,-392.5 1041.73,-392.5"/>
<text text-anchor="start" x="1049.73" y="-410.5" font-family="Helvetica,sans-Serif" font-size="10.00">uscxml/plugins/DataModel</text>
<text text-anchor="middle" x="1108.23" y="-399.5" font-family="Helvetica,sans-Serif" font-size="10.00">Impl.h</text>
</a>
</g>
</g>
<!-- Node24&#45;&gt;Node25 -->
<g id="edge38" class="edge"><title>Node24&#45;&gt;Node25</title>
<path fill="none" stroke="midnightblue" d="M1064.54,-459.475C1071.06,-451.869 1080.89,-440.399 1089.58,-430.265"/>
<polygon fill="midnightblue" stroke="midnightblue" points="1092.36,-432.393 1096.21,-422.523 1087.05,-427.838 1092.36,-432.393"/>
</g>
<!-- Node30 -->
<g id="node30" class="node"><title>Node30</title>
<polygon fill="white" stroke="#bfbfbf" points="988.733,-398 988.733,-417 1023.73,-417 1023.73,-398 988.733,-398"/>
<text text-anchor="middle" x="1006.23" y="-405" font-family="Helvetica,sans-Serif" font-size="10.00">v8.h</text>
</g>
<!-- Node24&#45;&gt;Node30 -->
<g id="edge62" class="edge"><title>Node24&#45;&gt;Node30</title>
<path fill="none" stroke="midnightblue" d="M1049.93,-459.475C1042.2,-450.462 1029.83,-436.025 1020.21,-424.812"/>
<polygon fill="midnightblue" stroke="midnightblue" points="1022.69,-422.324 1013.53,-417.009 1017.38,-426.879 1022.69,-422.324"/>
</g>
<!-- Node25&#45;&gt;Node2 -->
<g id="edge40" class="edge"><title>Node25&#45;&gt;Node2</title>
<path fill="none" stroke="midnightblue" d="M1117.78,-392.248C1130.99,-371.101 1153.23,-329.736 1153.23,-291 1153.23,-291 1153.23,-291 1153.23,-177 1153.23,-130.115 1102.68,-96.8944 1068.9,-79.9302"/>
<polygon fill="midnightblue" stroke="midnightblue" points="1070.41,-76.7687 1059.88,-75.5787 1067.37,-83.0742 1070.41,-76.7687"/>
</g>
<!-- Node25&#45;&gt;Node8 -->
<g id="edge57" class="edge"><title>Node25&#45;&gt;Node8</title>
<path fill="none" stroke="midnightblue" d="M1041.52,-393.698C1038.38,-393.119 1035.27,-392.551 1032.23,-392 939.054,-375.126 908.542,-394.959 822.233,-356 749.922,-323.359 743.252,-295.885 683.233,-244 645.642,-211.503 643.99,-193.317 601.233,-168 565.606,-146.905 518.769,-134.144 490.668,-127.846"/>
<polygon fill="midnightblue" stroke="midnightblue" points="491.389,-124.422 480.878,-125.745 489.92,-131.266 491.389,-124.422"/>
</g>
<!-- Node25&#45;&gt;Node10 -->
<g id="edge59" class="edge"><title>Node25&#45;&gt;Node10</title>
<path fill="none" stroke="midnightblue" d="M1174.98,-393.809C1225.43,-384.024 1296.34,-369.863 1358.23,-356 1561.46,-310.483 1662.68,-387.897 1813.23,-244 1850.75,-208.144 1838.82,-183.362 1846.23,-132 1847.5,-123.202 1852.29,-118.503 1846.23,-112 1805.31,-68.0845 1377.17,-66.2816 1247.34,-66.7553"/>
<polygon fill="midnightblue" stroke="midnightblue" points="1247.1,-63.2562 1237.12,-66.7997 1247.13,-70.2561 1247.1,-63.2562"/>
</g>
<!-- Node25&#45;&gt;Node11 -->
<g id="edge39" class="edge"><title>Node25&#45;&gt;Node11</title>
<path fill="none" stroke="midnightblue" d="M1174.89,-394.43C1262.45,-376.639 1405.23,-340.1 1405.23,-291 1405.23,-291 1405.23,-291 1405.23,-233 1405.23,-196.992 1381.9,-160.339 1366.2,-139.75"/>
<polygon fill="midnightblue" stroke="midnightblue" points="1368.78,-137.379 1359.83,-131.719 1363.3,-141.729 1368.78,-137.379"/>
</g>
<!-- Node25&#45;&gt;Node13 -->
<g id="edge58" class="edge"><title>Node25&#45;&gt;Node13</title>
<path fill="none" stroke="midnightblue" d="M1041.54,-393.597C1038.39,-393.045 1035.28,-392.51 1032.23,-392 921.515,-373.476 887.183,-395.838 782.233,-356 697.643,-323.891 485.143,-211.657 442.233,-132 430.546,-110.306 456.378,-91.4515 479.283,-79.717"/>
<polygon fill="midnightblue" stroke="midnightblue" points="480.99,-82.7794 488.478,-75.2834 477.95,-76.4741 480.99,-82.7794"/>
</g>
<!-- Node26 -->
<g id="node26" class="node"><title>Node26</title>
<g id="a_node26"><a xlink:href="_invoker_8h.html" target="_top" xlink:title="uscxml/plugins/Invoker.h">
<polygon fill="white" stroke="black" points="999.233,-336.5 999.233,-355.5 1125.23,-355.5 1125.23,-336.5 999.233,-336.5"/>
<text text-anchor="middle" x="1062.23" y="-343.5" font-family="Helvetica,sans-Serif" font-size="10.00">uscxml/plugins/Invoker.h</text>
</a>
</g>
</g>
<!-- Node25&#45;&gt;Node26 -->
<g id="edge41" class="edge"><title>Node25&#45;&gt;Node26</title>
<path fill="none" stroke="midnightblue" d="M1097.33,-392.399C1090.65,-383.753 1082.06,-372.642 1075.05,-363.576"/>
<polygon fill="midnightblue" stroke="midnightblue" points="1077.81,-361.428 1068.93,-355.658 1072.27,-365.71 1077.81,-361.428"/>
</g>
<!-- Node28 -->
<g id="node28" class="node"><title>Node28</title>
<polygon fill="white" stroke="#bfbfbf" points="1257.73,-224.5 1257.73,-243.5 1376.73,-243.5 1376.73,-224.5 1257.73,-224.5"/>
<text text-anchor="middle" x="1317.23" y="-231.5" font-family="Helvetica,sans-Serif" font-size="10.00">xercesc/dom/DOM.hpp</text>
</g>
<!-- Node25&#45;&gt;Node28 -->
<g id="edge56" class="edge"><title>Node25&#45;&gt;Node28</title>
<path fill="none" stroke="midnightblue" d="M1136.69,-392.448C1171.4,-374.371 1230.58,-340.438 1272.23,-300 1286.66,-285.998 1299.3,-266.744 1307.49,-252.829"/>
<polygon fill="midnightblue" stroke="midnightblue" points="1310.72,-254.216 1312.62,-243.792 1304.64,-250.76 1310.72,-254.216"/>
</g>
<!-- Node29 -->
<g id="node29" class="node"><title>Node29</title>
<g id="a_node29"><a xlink:href="_i_o_processor_8h.html" target="_top" xlink:title="uscxml/plugins/IOProcessor.h">
<polygon fill="white" stroke="black" points="831.733,-336.5 831.733,-355.5 980.733,-355.5 980.733,-336.5 831.733,-336.5"/>
<text text-anchor="middle" x="906.233" y="-343.5" font-family="Helvetica,sans-Serif" font-size="10.00">uscxml/plugins/IOProcessor.h</text>
</a>
</g>
</g>
<!-- Node25&#45;&gt;Node29 -->
<g id="edge52" class="edge"><title>Node25&#45;&gt;Node29</title>
<path fill="none" stroke="midnightblue" d="M1060.62,-392.475C1025.31,-382.075 977.793,-368.078 944.841,-358.372"/>
<polygon fill="midnightblue" stroke="midnightblue" points="945.693,-354.975 935.112,-355.506 943.715,-361.689 945.693,-354.975"/>
</g>
<!-- Node26&#45;&gt;Node2 -->
<g id="edge43" class="edge"><title>Node26&#45;&gt;Node2</title>
<path fill="none" stroke="midnightblue" d="M1069.83,-336.281C1084.48,-318.523 1115.23,-276.337 1115.23,-235 1115.23,-235 1115.23,-235 1115.23,-177 1115.23,-146.205 1108.76,-137.319 1091.23,-112 1083.06,-100.19 1071.08,-89.5418 1060.68,-81.5714"/>
<polygon fill="midnightblue" stroke="midnightblue" points="1062.57,-78.6188 1052.44,-75.5395 1058.44,-84.2685 1062.57,-78.6188"/>
</g>
<!-- Node26&#45;&gt;Node6 -->
<g id="edge50" class="edge"><title>Node26&#45;&gt;Node6</title>
<path fill="none" stroke="midnightblue" d="M1006.37,-336.493C940.055,-326.1 836.355,-308.818 820.233,-300 799.319,-288.561 781.489,-267.356 770.603,-252.278"/>
<polygon fill="midnightblue" stroke="midnightblue" points="773.323,-250.058 764.757,-243.824 767.565,-254.039 773.323,-250.058"/>
</g>
<!-- Node26&#45;&gt;Node11 -->
<g id="edge42" class="edge"><title>Node26&#45;&gt;Node11</title>
<path fill="none" stroke="midnightblue" d="M1075.7,-336.205C1089.31,-327.255 1110.9,-312.903 1129.23,-300 1163.54,-275.853 1172.13,-269.786 1205.23,-244 1252.53,-207.155 1306.59,-161.783 1334.1,-138.46"/>
<polygon fill="midnightblue" stroke="midnightblue" points="1336.7,-140.844 1342.05,-131.701 1332.16,-135.509 1336.7,-140.844"/>
</g>
<!-- Node27 -->
<g id="node27" class="node"><title>Node27</title>
<g id="a_node27"><a xlink:href="_event_handler_8h.html" target="_top" xlink:title="uscxml/plugins/EventHandler.h">
<polygon fill="white" stroke="black" points="829.233,-280.5 829.233,-299.5 983.233,-299.5 983.233,-280.5 829.233,-280.5"/>
<text text-anchor="middle" x="906.233" y="-287.5" font-family="Helvetica,sans-Serif" font-size="10.00">uscxml/plugins/EventHandler.h</text>
</a>
</g>
</g>
<!-- Node26&#45;&gt;Node27 -->
<g id="edge44" class="edge"><title>Node26&#45;&gt;Node27</title>
<path fill="none" stroke="midnightblue" d="M1037.51,-336.444C1011.38,-327.399 969.973,-313.064 940.656,-302.916"/>
<polygon fill="midnightblue" stroke="midnightblue" points="941.431,-299.48 930.836,-299.516 939.141,-306.095 941.431,-299.48"/>
</g>
<!-- Node26&#45;&gt;Node28 -->
<g id="edge51" class="edge"><title>Node26&#45;&gt;Node28</title>
<path fill="none" stroke="midnightblue" d="M1125.62,-336.84C1161.62,-330.382 1206.66,-319.145 1243.23,-300 1267.01,-287.555 1289.44,-265.941 1303.25,-251.076"/>
<polygon fill="midnightblue" stroke="midnightblue" points="1305.88,-253.383 1309.98,-243.614 1300.68,-248.693 1305.88,-253.383"/>
</g>
<!-- Node27&#45;&gt;Node2 -->
<g id="edge45" class="edge"><title>Node27&#45;&gt;Node2</title>
<path fill="none" stroke="midnightblue" d="M921.44,-280.396C946.607,-265.274 996.494,-231.375 1020.23,-188 1038.12,-155.311 1040.42,-110.674 1040.09,-85.7662"/>
<polygon fill="midnightblue" stroke="midnightblue" points="1043.59,-85.4343 1039.79,-75.5424 1036.59,-85.6416 1043.59,-85.4343"/>
</g>
<!-- Node27&#45;&gt;Node6 -->
<g id="edge46" class="edge"><title>Node27&#45;&gt;Node6</title>
<path fill="none" stroke="midnightblue" d="M882.94,-280.444C858.425,-271.438 819.637,-257.189 792.033,-247.049"/>
<polygon fill="midnightblue" stroke="midnightblue" points="793.01,-243.679 782.416,-243.516 790.596,-250.25 793.01,-243.679"/>
</g>
<!-- Node27&#45;&gt;Node8 -->
<g id="edge47" class="edge"><title>Node27&#45;&gt;Node8</title>
<path fill="none" stroke="midnightblue" d="M899.169,-280.489C887.216,-266.631 861.615,-239.209 834.233,-224 794.819,-202.109 682.775,-179.691 639.233,-168 575.52,-150.893 558.76,-149.784 495.233,-132 493.773,-131.591 492.276,-131.161 490.768,-130.719"/>
<polygon fill="midnightblue" stroke="midnightblue" points="491.524,-127.291 480.939,-127.739 489.493,-133.99 491.524,-127.291"/>
</g>
<!-- Node27&#45;&gt;Node10 -->
<g id="edge49" class="edge"><title>Node27&#45;&gt;Node10</title>
<path fill="none" stroke="midnightblue" d="M926.854,-280.465C945.799,-272.243 974.327,-258.886 997.233,-244 1076.73,-192.335 1160.14,-115.244 1194.26,-82.5511"/>
<polygon fill="midnightblue" stroke="midnightblue" points="1196.72,-85.0409 1201.49,-75.5803 1191.86,-80.0017 1196.72,-85.0409"/>
</g>
<!-- Node27&#45;&gt;Node13 -->
<g id="edge48" class="edge"><title>Node27&#45;&gt;Node13</title>
<path fill="none" stroke="midnightblue" d="M902.494,-280.058C896.21,-266.091 882.226,-239.131 862.233,-224 799.138,-176.249 769.548,-188.907 693.233,-168 620.842,-148.168 583.121,-183.196 528.233,-132 515.615,-120.23 511.22,-100.592 509.766,-85.9755"/>
<polygon fill="midnightblue" stroke="midnightblue" points="513.235,-85.3441 509.131,-75.5763 506.248,-85.7713 513.235,-85.3441"/>
</g>
<!-- Node29&#45;&gt;Node2 -->
<g id="edge53" class="edge"><title>Node29&#45;&gt;Node2</title>
<path fill="none" stroke="midnightblue" d="M951.161,-336.416C1001.83,-323.826 1077.23,-295.009 1077.23,-235 1077.23,-235 1077.23,-235 1077.23,-177 1077.23,-142.813 1060.63,-105.764 1049.38,-84.5707"/>
<polygon fill="midnightblue" stroke="midnightblue" points="1052.41,-82.832 1044.52,-75.769 1046.29,-86.2151 1052.41,-82.832"/>
</g>
<!-- Node29&#45;&gt;Node6 -->
<g id="edge55" class="edge"><title>Node29&#45;&gt;Node6</title>
<path fill="none" stroke="midnightblue" d="M858.364,-336.497C834.159,-330.051 805.84,-318.934 786.233,-300 773.344,-287.554 766.362,-268.042 762.749,-253.641"/>
<polygon fill="midnightblue" stroke="midnightblue" points="766.158,-252.846 760.601,-243.826 759.32,-254.343 766.158,-252.846"/>
</g>
<!-- Node29&#45;&gt;Node27 -->
<g id="edge54" class="edge"><title>Node29&#45;&gt;Node27</title>
<path fill="none" stroke="midnightblue" d="M906.233,-336.083C906.233,-329.006 906.233,-318.861 906.233,-309.986"/>
<polygon fill="midnightblue" stroke="midnightblue" points="909.733,-309.751 906.233,-299.751 902.733,-309.751 909.733,-309.751"/>
</g>
<!-- Node31&#45;&gt;Node2 -->
<g id="edge69" class="edge"><title>Node31&#45;&gt;Node2</title>
<path fill="none" stroke="midnightblue" d="M1527.9,-280.166C1529.91,-267.254 1532.13,-242.726 1524.23,-224 1495.76,-156.476 1470.45,-141.183 1403.23,-112 1376.01,-100.179 1195.34,-81.7059 1099.2,-72.5414"/>
<polygon fill="midnightblue" stroke="midnightblue" points="1099.32,-69.0375 1089.04,-71.5774 1098.66,-76.0062 1099.32,-69.0375"/>
</g>
<!-- Node31&#45;&gt;Node8 -->
<g id="edge66" class="edge"><title>Node31&#45;&gt;Node8</title>
<path fill="none" stroke="midnightblue" d="M1522.03,-280.316C1514.43,-265.676 1496.84,-236.463 1472.23,-224 1353.47,-163.844 1006.57,-202.49 874.233,-188 727.972,-171.986 554.14,-139.901 490.833,-127.782"/>
<polygon fill="midnightblue" stroke="midnightblue" points="491.464,-124.339 480.982,-125.887 490.141,-131.213 491.464,-124.339"/>
</g>
<!-- Node31&#45;&gt;Node11 -->
<g id="edge68" class="edge"><title>Node31&#45;&gt;Node11</title>
<path fill="none" stroke="midnightblue" d="M1525.26,-280.154C1523.4,-266.787 1518.29,-241.183 1505.23,-224 1472.93,-181.498 1417.28,-151.333 1382.74,-135.584"/>
<polygon fill="midnightblue" stroke="midnightblue" points="1384.15,-132.383 1373.59,-131.526 1381.31,-138.781 1384.15,-132.383"/>
</g>
<!-- Node31&#45;&gt;Node18 -->
<g id="edge65" class="edge"><title>Node31&#45;&gt;Node18</title>
<path fill="none" stroke="midnightblue" d="M1513.7,-280.324C1501.65,-271.979 1483.21,-259.212 1468.96,-249.352"/>
<polygon fill="midnightblue" stroke="midnightblue" points="1470.95,-246.469 1460.73,-243.655 1466.96,-252.224 1470.95,-246.469"/>
</g>
<!-- Node31&#45;&gt;Node28 -->
<g id="edge71" class="edge"><title>Node31&#45;&gt;Node28</title>
<path fill="none" stroke="midnightblue" d="M1493.12,-280.444C1457.12,-271.142 1399.46,-256.246 1360.05,-246.062"/>
<polygon fill="midnightblue" stroke="midnightblue" points="1360.75,-242.629 1350.19,-243.516 1359,-249.407 1360.75,-242.629"/>
</g>
<!-- Node32 -->
<g id="node32" class="node"><title>Node32</title>
<polygon fill="white" stroke="#bfbfbf" points="1595.73,-224.5 1595.73,-243.5 1650.73,-243.5 1650.73,-224.5 1595.73,-224.5"/>
<text text-anchor="middle" x="1623.23" y="-231.5" font-family="Helvetica,sans-Serif" font-size="10.00">iostream</text>
</g>
<!-- Node31&#45;&gt;Node32 -->
<g id="edge67" class="edge"><title>Node31&#45;&gt;Node32</title>
<path fill="none" stroke="midnightblue" d="M1541.82,-280.324C1557.23,-271.743 1581.05,-258.486 1598.94,-248.522"/>
<polygon fill="midnightblue" stroke="midnightblue" points="1600.65,-251.577 1607.69,-243.655 1597.25,-245.461 1600.65,-251.577"/>
</g>
<!-- Node33 -->
<g id="node33" class="node"><title>Node33</title>
<polygon fill="white" stroke="#bfbfbf" points="1668.73,-224.5 1668.73,-243.5 1803.73,-243.5 1803.73,-224.5 1668.73,-224.5"/>
<text text-anchor="middle" x="1736.23" y="-231.5" font-family="Helvetica,sans-Serif" font-size="10.00">xercesc/util/XMLString.hpp</text>
</g>
<!-- Node31&#45;&gt;Node33 -->
<g id="edge70" class="edge"><title>Node31&#45;&gt;Node33</title>
<path fill="none" stroke="midnightblue" d="M1559.51,-280.444C1595.68,-271.142 1653.61,-256.246 1693.21,-246.062"/>
<polygon fill="midnightblue" stroke="midnightblue" points="1694.3,-249.397 1703.11,-243.516 1692.56,-242.617 1694.3,-249.397"/>
</g>
</g>
</svg>
