<?xml version="1.0" encoding="UTF-8" standalone="no"?>
<!DOCTYPE svg PUBLIC "-//W3C//DTD SVG 1.1//EN"
 "http://www.w3.org/Graphics/SVG/1.1/DTD/svg11.dtd">
<!-- Generated by graphviz version 2.38.0 (20140413.2041)
 -->
<!-- Title: plugins/datamodel/ecmascript/v8/V8DataModel.h Pages: 1 -->
<svg width="1082pt" height="498pt"
 viewBox="0.00 0.00 1081.50 498.00" xmlns="http://www.w3.org/2000/svg" xmlns:xlink="http://www.w3.org/1999/xlink">
<g id="graph0" class="graph" transform="scale(1 1) rotate(0) translate(4 494)">
<title>plugins/datamodel/ecmascript/v8/V8DataModel.h</title>
<polygon fill="white" stroke="none" points="-4,4 -4,-494 1077.5,-494 1077.5,4 -4,4"/>
<!-- Node1 -->
<g id="node1" class="node"><title>Node1</title>
<polygon fill="#bfbfbf" stroke="black" points="908.5,-459.5 908.5,-489.5 1057.5,-489.5 1057.5,-459.5 908.5,-459.5"/>
<text text-anchor="start" x="916.5" y="-477.5" font-family="Helvetica,sans-Serif" font-size="10.00">plugins/datamodel/ecmascript</text>
<text text-anchor="middle" x="983" y="-466.5" font-family="Helvetica,sans-Serif" font-size="10.00">/v8/V8DataModel.h</text>
</g>
<!-- Node2 -->
<g id="node2" class="node"><title>Node2</title>
<g id="a_node2"><a xlink:href="_data_model_impl_8h.html" target="_top" xlink:title="uscxml/plugins/DataModel\lImpl.h">
<polygon fill="white" stroke="black" points="743.5,-392.5 743.5,-422.5 876.5,-422.5 876.5,-392.5 743.5,-392.5"/>
<text text-anchor="start" x="751.5" y="-410.5" font-family="Helvetica,sans-Serif" font-size="10.00">uscxml/plugins/DataModel</text>
<text text-anchor="middle" x="810" y="-399.5" font-family="Helvetica,sans-Serif" font-size="10.00">Impl.h</text>
</a>
</g>
</g>
<!-- Node1&#45;&gt;Node2 -->
<g id="edge1" class="edge"><title>Node1&#45;&gt;Node2</title>
<path fill="none" stroke="midnightblue" d="M945.462,-459.396C919.504,-449.643 884.776,-436.595 856.981,-426.152"/>
<polygon fill="midnightblue" stroke="midnightblue" points="858.057,-422.817 847.465,-422.577 855.595,-429.37 858.057,-422.817"/>
</g>
<!-- Node11 -->
<g id="node11" class="node"><title>Node11</title>
<polygon fill="white" stroke="#bfbfbf" points="828.5,-112.5 828.5,-131.5 857.5,-131.5 857.5,-112.5 828.5,-112.5"/>
<text text-anchor="middle" x="843" y="-119.5" font-family="Helvetica,sans-Serif" font-size="10.00">list</text>
</g>
<!-- Node1&#45;&gt;Node11 -->
<g id="edge43" class="edge"><title>Node1&#45;&gt;Node11</title>
<path fill="none" stroke="midnightblue" d="M979.09,-459.34C966.592,-415.006 925.288,-275.424 872,-168 867.199,-158.321 860.778,-148.153 855.198,-139.936"/>
<polygon fill="midnightblue" stroke="midnightblue" points="857.984,-137.812 849.388,-131.618 852.245,-141.82 857.984,-137.812"/>
</g>
<!-- Node22 -->
<g id="node22" class="node"><title>Node22</title>
<polygon fill="white" stroke="#bfbfbf" points="990,-398 990,-417 1020,-417 1020,-398 990,-398"/>
<text text-anchor="middle" x="1005" y="-405" font-family="Helvetica,sans-Serif" font-size="10.00">set</text>
</g>
<!-- Node1&#45;&gt;Node22 -->
<g id="edge44" class="edge"><title>Node1&#45;&gt;Node22</title>
<path fill="none" stroke="midnightblue" d="M987.774,-459.396C991,-449.863 995.292,-437.182 998.785,-426.862"/>
<polygon fill="midnightblue" stroke="midnightblue" points="1002.17,-427.789 1002.06,-417.195 995.536,-425.545 1002.17,-427.789"/>
</g>
<!-- Node23 -->
<g id="node23" class="node"><title>Node23</title>
<polygon fill="white" stroke="#bfbfbf" points="1038.5,-398 1038.5,-417 1073.5,-417 1073.5,-398 1038.5,-398"/>
<text text-anchor="middle" x="1056" y="-405" font-family="Helvetica,sans-Serif" font-size="10.00">v8.h</text>
</g>
<!-- Node1&#45;&gt;Node23 -->
<g id="edge45" class="edge"><title>Node1&#45;&gt;Node23</title>
<path fill="none" stroke="midnightblue" d="M998.84,-459.396C1010.56,-448.96 1026.52,-434.751 1038.59,-423.998"/>
<polygon fill="midnightblue" stroke="midnightblue" points="1041.09,-426.459 1046.24,-417.195 1036.44,-421.231 1041.09,-426.459"/>
</g>
<!-- Node3 -->
<g id="node3" class="node"><title>Node3</title>
<polygon fill="white" stroke="#bfbfbf" points="725.5,-112.5 725.5,-131.5 810.5,-131.5 810.5,-112.5 725.5,-112.5"/>
<text text-anchor="middle" x="768" y="-119.5" font-family="Helvetica,sans-Serif" font-size="10.00">uscxml/config.h</text>
</g>
<!-- Node2&#45;&gt;Node3 -->
<g id="edge2" class="edge"><title>Node2&#45;&gt;Node3</title>
<path fill="none" stroke="midnightblue" d="M807.917,-392.441C800.978,-345.601 778.639,-194.815 770.773,-141.716"/>
<polygon fill="midnightblue" stroke="midnightblue" points="774.214,-141.063 769.287,-131.684 767.29,-142.089 774.214,-141.063"/>
</g>
<!-- Node4 -->
<g id="node4" class="node"><title>Node4</title>
<g id="a_node4"><a xlink:href="_common_8h.html" target="_top" xlink:title="uscxml/Common.h">
<polygon fill="white" stroke="black" points="103.5,-56.5 103.5,-75.5 202.5,-75.5 202.5,-56.5 103.5,-56.5"/>
<text text-anchor="middle" x="153" y="-63.5" font-family="Helvetica,sans-Serif" font-size="10.00">uscxml/Common.h</text>
</a>
</g>
</g>
<!-- Node2&#45;&gt;Node4 -->
<g id="edge3" class="edge"><title>Node2&#45;&gt;Node4</title>
<path fill="none" stroke="midnightblue" d="M743.37,-403.979C549.611,-395.771 0,-365.886 0,-291 0,-291 0,-291 0,-177 0,-123.205 63.1245,-93.1341 108.281,-78.5046"/>
<polygon fill="midnightblue" stroke="midnightblue" points="109.379,-81.8286 117.899,-75.5304 107.311,-75.1411 109.379,-81.8286"/>
</g>
<!-- Node7 -->
<g id="node7" class="node"><title>Node7</title>
<g id="a_node7"><a xlink:href="_invoker_8h.html" target="_top" xlink:title="uscxml/plugins/Invoker.h">
<polygon fill="white" stroke="black" points="518,-336.5 518,-355.5 644,-355.5 644,-336.5 518,-336.5"/>
<text text-anchor="middle" x="581" y="-343.5" font-family="Helvetica,sans-Serif" font-size="10.00">uscxml/plugins/Invoker.h</text>
</a>
</g>
</g>
<!-- Node2&#45;&gt;Node7 -->
<g id="edge6" class="edge"><title>Node2&#45;&gt;Node7</title>
<path fill="none" stroke="midnightblue" d="M756.02,-392.475C715.65,-381.986 661.195,-367.837 623.806,-358.122"/>
<polygon fill="midnightblue" stroke="midnightblue" points="624.298,-354.634 613.739,-355.506 622.537,-361.409 624.298,-354.634"/>
</g>
<!-- Node2&#45;&gt;Node11 -->
<g id="edge40" class="edge"><title>Node2&#45;&gt;Node11</title>
<path fill="none" stroke="midnightblue" d="M831.295,-392.377C842.727,-383.461 855.727,-370.836 862,-356 893.484,-281.536 864.467,-181.881 850.041,-141.324"/>
<polygon fill="midnightblue" stroke="midnightblue" points="853.32,-140.099 846.577,-131.927 846.752,-142.521 853.32,-140.099"/>
</g>
<!-- Node13 -->
<g id="node13" class="node"><title>Node13</title>
<polygon fill="white" stroke="#bfbfbf" points="764.5,-56.5 764.5,-75.5 817.5,-75.5 817.5,-56.5 764.5,-56.5"/>
<text text-anchor="middle" x="791" y="-63.5" font-family="Helvetica,sans-Serif" font-size="10.00">memory</text>
</g>
<!-- Node2&#45;&gt;Node13 -->
<g id="edge42" class="edge"><title>Node2&#45;&gt;Node13</title>
<path fill="none" stroke="midnightblue" d="M837.107,-392.382C851.604,-383.625 868.737,-371.154 880,-356 946.489,-266.536 1004.29,-201.615 938,-112 912.9,-78.0667 862.715,-68.8852 828.016,-66.8241"/>
<polygon fill="midnightblue" stroke="midnightblue" points="827.927,-63.3174 817.789,-66.3936 827.633,-70.3112 827.927,-63.3174"/>
</g>
<!-- Node15 -->
<g id="node15" class="node"><title>Node15</title>
<polygon fill="white" stroke="#bfbfbf" points="546.5,-56.5 546.5,-75.5 587.5,-75.5 587.5,-56.5 546.5,-56.5"/>
<text text-anchor="middle" x="567" y="-63.5" font-family="Helvetica,sans-Serif" font-size="10.00">string</text>
</g>
<!-- Node2&#45;&gt;Node15 -->
<g id="edge41" class="edge"><title>Node2&#45;&gt;Node15</title>
<path fill="none" stroke="midnightblue" d="M819.679,-392.462C850.297,-346.189 938.828,-196.609 866,-112 848.655,-91.8487 671.494,-75.4086 598.338,-69.4268"/>
<polygon fill="midnightblue" stroke="midnightblue" points="598.179,-65.9027 587.93,-68.5891 597.617,-72.8801 598.179,-65.9027"/>
</g>
<!-- Node20 -->
<g id="node20" class="node"><title>Node20</title>
<polygon fill="white" stroke="#bfbfbf" points="662.5,-280.5 662.5,-299.5 781.5,-299.5 781.5,-280.5 662.5,-280.5"/>
<text text-anchor="middle" x="722" y="-287.5" font-family="Helvetica,sans-Serif" font-size="10.00">xercesc/dom/DOM.hpp</text>
</g>
<!-- Node2&#45;&gt;Node20 -->
<g id="edge39" class="edge"><title>Node2&#45;&gt;Node20</title>
<path fill="none" stroke="midnightblue" d="M799.209,-392.337C782.922,-370.96 752.118,-330.53 734.747,-307.731"/>
<polygon fill="midnightblue" stroke="midnightblue" points="737.45,-305.503 728.605,-299.669 731.882,-309.745 737.45,-305.503"/>
</g>
<!-- Node21 -->
<g id="node21" class="node"><title>Node21</title>
<g id="a_node21"><a xlink:href="_i_o_processor_8h.html" target="_top" xlink:title="uscxml/plugins/IOProcessor.h">
<polygon fill="white" stroke="black" points="189.5,-336.5 189.5,-355.5 338.5,-355.5 338.5,-336.5 189.5,-336.5"/>
<text text-anchor="middle" x="264" y="-343.5" font-family="Helvetica,sans-Serif" font-size="10.00">uscxml/plugins/IOProcessor.h</text>
</a>
</g>
</g>
<!-- Node2&#45;&gt;Node21 -->
<g id="edge35" class="edge"><title>Node2&#45;&gt;Node21</title>
<path fill="none" stroke="midnightblue" d="M743.323,-399.234C644.01,-388.411 457.289,-368.064 348.527,-356.211"/>
<polygon fill="midnightblue" stroke="midnightblue" points="348.894,-352.731 338.574,-355.127 348.136,-359.689 348.894,-352.731"/>
</g>
<!-- Node5 -->
<g id="node5" class="node"><title>Node5</title>
<polygon fill="white" stroke="#bfbfbf" points="79,-0.5 79,-19.5 151,-19.5 151,-0.5 79,-0.5"/>
<text text-anchor="middle" x="115" y="-7.5" font-family="Helvetica,sans-Serif" font-size="10.00">sys/socket.h</text>
</g>
<!-- Node4&#45;&gt;Node5 -->
<g id="edge4" class="edge"><title>Node4&#45;&gt;Node5</title>
<path fill="none" stroke="midnightblue" d="M146.725,-56.083C141.358,-48.4554 133.482,-37.2645 126.921,-27.9408"/>
<polygon fill="midnightblue" stroke="midnightblue" points="129.775,-25.9149 121.158,-19.7511 124.051,-29.9434 129.775,-25.9149"/>
</g>
<!-- Node6 -->
<g id="node6" class="node"><title>Node6</title>
<polygon fill="white" stroke="#bfbfbf" points="169,-0.5 169,-19.5 213,-19.5 213,-0.5 169,-0.5"/>
<text text-anchor="middle" x="191" y="-7.5" font-family="Helvetica,sans-Serif" font-size="10.00">cmath</text>
</g>
<!-- Node4&#45;&gt;Node6 -->
<g id="edge5" class="edge"><title>Node4&#45;&gt;Node6</title>
<path fill="none" stroke="midnightblue" d="M159.275,-56.083C164.642,-48.4554 172.518,-37.2645 179.079,-27.9408"/>
<polygon fill="midnightblue" stroke="midnightblue" points="181.949,-29.9434 184.842,-19.7511 176.225,-25.9149 181.949,-29.9434"/>
</g>
<!-- Node7&#45;&gt;Node3 -->
<g id="edge7" class="edge"><title>Node7&#45;&gt;Node3</title>
<path fill="none" stroke="midnightblue" d="M588.331,-336.297C616.312,-303.079 716.686,-183.918 753.946,-139.684"/>
<polygon fill="midnightblue" stroke="midnightblue" points="756.751,-141.787 760.517,-131.884 751.398,-137.277 756.751,-141.787"/>
</g>
<!-- Node7&#45;&gt;Node4 -->
<g id="edge8" class="edge"><title>Node7&#45;&gt;Node4</title>
<path fill="none" stroke="midnightblue" d="M517.671,-336.684C427.503,-321.804 261.596,-282.78 158,-188 130.96,-163.261 116.217,-147.32 126,-112 128.792,-101.921 134.509,-91.832 139.967,-83.7694"/>
<polygon fill="midnightblue" stroke="midnightblue" points="142.825,-85.7899 145.849,-75.6357 137.153,-81.6881 142.825,-85.7899"/>
</g>
<!-- Node8 -->
<g id="node8" class="node"><title>Node8</title>
<g id="a_node8"><a xlink:href="_event_handler_8h.html" target="_top" xlink:title="uscxml/plugins/EventHandler.h">
<polygon fill="white" stroke="black" points="452,-280.5 452,-299.5 606,-299.5 606,-280.5 452,-280.5"/>
<text text-anchor="middle" x="529" y="-287.5" font-family="Helvetica,sans-Serif" font-size="10.00">uscxml/plugins/EventHandler.h</text>
</a>
</g>
</g>
<!-- Node7&#45;&gt;Node8 -->
<g id="edge9" class="edge"><title>Node7&#45;&gt;Node8</title>
<path fill="none" stroke="midnightblue" d="M572.413,-336.083C564.841,-328.22 553.622,-316.569 544.486,-307.081"/>
<polygon fill="midnightblue" stroke="midnightblue" points="546.885,-304.527 537.427,-299.751 541.842,-309.382 546.885,-304.527"/>
</g>
<!-- Node9 -->
<g id="node9" class="node"><title>Node9</title>
<g id="a_node9"><a xlink:href="_event_8h.html" target="_top" xlink:title="uscxml/messages/Event.h">
<polygon fill="white" stroke="black" points="357.5,-224.5 357.5,-243.5 490.5,-243.5 490.5,-224.5 357.5,-224.5"/>
<text text-anchor="middle" x="424" y="-231.5" font-family="Helvetica,sans-Serif" font-size="10.00">uscxml/messages/Event.h</text>
</a>
</g>
</g>
<!-- Node7&#45;&gt;Node9 -->
<g id="edge33" class="edge"><title>Node7&#45;&gt;Node9</title>
<path fill="none" stroke="midnightblue" d="M517.779,-337.537C491.517,-331.409 462.647,-320.263 443,-300 431.117,-287.745 426.602,-268.484 424.919,-254.105"/>
<polygon fill="midnightblue" stroke="midnightblue" points="428.384,-253.533 424.09,-243.847 421.407,-254.097 428.384,-253.533"/>
</g>
<!-- Node7&#45;&gt;Node20 -->
<g id="edge34" class="edge"><title>Node7&#45;&gt;Node20</title>
<path fill="none" stroke="midnightblue" d="M603.342,-336.444C626.753,-327.478 663.736,-313.314 690.19,-303.183"/>
<polygon fill="midnightblue" stroke="midnightblue" points="691.676,-306.361 699.763,-299.516 689.172,-299.824 691.676,-306.361"/>
</g>
<!-- Node8&#45;&gt;Node4 -->
<g id="edge10" class="edge"><title>Node8&#45;&gt;Node4</title>
<path fill="none" stroke="midnightblue" d="M481.953,-280.487C444.866,-273.023 392.212,-260.741 348,-244 247.238,-205.847 188.881,-224.119 133,-132 123.945,-117.072 132.024,-97.7022 140.464,-84.0025"/>
<polygon fill="midnightblue" stroke="midnightblue" points="143.475,-85.7976 146.159,-75.5483 137.669,-81.8868 143.475,-85.7976"/>
</g>
<!-- Node8&#45;&gt;Node9 -->
<g id="edge11" class="edge"><title>Node8&#45;&gt;Node9</title>
<path fill="none" stroke="midnightblue" d="M512.13,-280.324C495.291,-271.664 469.193,-258.242 449.762,-248.249"/>
<polygon fill="midnightblue" stroke="midnightblue" points="451.322,-245.116 440.828,-243.655 448.12,-251.341 451.322,-245.116"/>
</g>
<!-- Node8&#45;&gt;Node11 -->
<g id="edge30" class="edge"><title>Node8&#45;&gt;Node11</title>
<path fill="none" stroke="midnightblue" d="M547.311,-280.473C566.164,-271.616 596.33,-257.227 622,-244 694.896,-206.438 779.544,-159.001 819.64,-136.295"/>
<polygon fill="midnightblue" stroke="midnightblue" points="821.424,-139.307 828.395,-131.329 817.97,-133.219 821.424,-139.307"/>
</g>
<!-- Node8&#45;&gt;Node13 -->
<g id="edge32" class="edge"><title>Node8&#45;&gt;Node13</title>
<path fill="none" stroke="midnightblue" d="M593.837,-280.449C674.46,-265.896 808.467,-227.888 866,-132 879.422,-109.63 850.733,-90.9841 825.05,-79.4822"/>
<polygon fill="midnightblue" stroke="midnightblue" points="826.381,-76.245 815.808,-75.5742 823.655,-82.6923 826.381,-76.245"/>
</g>
<!-- Node8&#45;&gt;Node15 -->
<g id="edge31" class="edge"><title>Node8&#45;&gt;Node15</title>
<path fill="none" stroke="midnightblue" d="M538.244,-280.213C560.851,-258.001 618.575,-196.749 639,-132 641.674,-123.523 643.309,-119.775 639,-112 630.005,-95.7712 612.449,-84.6223 596.924,-77.4812"/>
<polygon fill="midnightblue" stroke="midnightblue" points="598.189,-74.216 587.616,-73.5432 595.462,-80.6629 598.189,-74.216"/>
</g>
<!-- Node10 -->
<g id="node10" class="node"><title>Node10</title>
<g id="a_node10"><a xlink:href="_data_8h.html" target="_top" xlink:title="uscxml/messages/Data.h">
<polygon fill="white" stroke="black" points="406,-168.5 406,-187.5 534,-187.5 534,-168.5 406,-168.5"/>
<text text-anchor="middle" x="470" y="-175.5" font-family="Helvetica,sans-Serif" font-size="10.00">uscxml/messages/Data.h</text>
</a>
</g>
</g>
<!-- Node9&#45;&gt;Node10 -->
<g id="edge12" class="edge"><title>Node9&#45;&gt;Node10</title>
<path fill="none" stroke="midnightblue" d="M431.596,-224.083C438.227,-216.298 448.021,-204.801 456.058,-195.367"/>
<polygon fill="midnightblue" stroke="midnightblue" points="458.725,-197.633 462.545,-187.751 453.396,-193.094 458.725,-197.633"/>
</g>
<!-- Node19 -->
<g id="node19" class="node"><title>Node19</title>
<g id="a_node19"><a xlink:href="_u_u_i_d_8h.html" target="_top" xlink:title="uscxml/util/UUID.h">
<polygon fill="white" stroke="black" points="142.5,-112.5 142.5,-131.5 241.5,-131.5 241.5,-112.5 142.5,-112.5"/>
<text text-anchor="middle" x="192" y="-119.5" font-family="Helvetica,sans-Serif" font-size="10.00">uscxml/util/UUID.h</text>
</a>
</g>
</g>
<!-- Node9&#45;&gt;Node19 -->
<g id="edge27" class="edge"><title>Node9&#45;&gt;Node19</title>
<path fill="none" stroke="midnightblue" d="M405.795,-224.368C365.222,-205.131 267.185,-158.648 219.273,-135.931"/>
<polygon fill="midnightblue" stroke="midnightblue" points="220.655,-132.713 210.12,-131.591 217.656,-139.038 220.655,-132.713"/>
</g>
<!-- Node10&#45;&gt;Node3 -->
<g id="edge16" class="edge"><title>Node10&#45;&gt;Node3</title>
<path fill="none" stroke="midnightblue" d="M517.219,-168.444C571.14,-158.673 659.125,-142.729 715.253,-132.558"/>
<polygon fill="midnightblue" stroke="midnightblue" points="716.132,-135.956 725.347,-130.729 714.883,-129.068 716.132,-135.956"/>
</g>
<!-- Node10&#45;&gt;Node4 -->
<g id="edge17" class="edge"><title>Node10&#45;&gt;Node4</title>
<path fill="none" stroke="midnightblue" d="M423.363,-168.486C386.272,-160.986 333.417,-148.656 289,-132 270.761,-125.16 267.505,-120.545 250,-112 227.023,-100.784 200.692,-88.6112 181.268,-79.7576"/>
<polygon fill="midnightblue" stroke="midnightblue" points="182.615,-76.5256 172.063,-75.5751 179.719,-82.8986 182.615,-76.5256"/>
</g>
<!-- Node10&#45;&gt;Node11 -->
<g id="edge13" class="edge"><title>Node10&#45;&gt;Node11</title>
<path fill="none" stroke="midnightblue" d="M534.182,-173.173C602.684,-168.095 714.309,-156.967 818.693,-131.495"/>
<polygon fill="midnightblue" stroke="midnightblue" points="819.588,-134.879 828.447,-129.067 817.897,-128.087 819.588,-134.879"/>
</g>
<!-- Node12 -->
<g id="node12" class="node"><title>Node12</title>
<polygon fill="white" stroke="#bfbfbf" points="298,-112.5 298,-131.5 334,-131.5 334,-112.5 298,-112.5"/>
<text text-anchor="middle" x="316" y="-119.5" font-family="Helvetica,sans-Serif" font-size="10.00">map</text>
</g>
<!-- Node10&#45;&gt;Node12 -->
<g id="edge14" class="edge"><title>Node10&#45;&gt;Node12</title>
<path fill="none" stroke="midnightblue" d="M445.598,-168.444C417.831,-158.707 372.583,-142.841 343.564,-132.665"/>
<polygon fill="midnightblue" stroke="midnightblue" points="344.627,-129.329 334.032,-129.323 342.311,-135.935 344.627,-129.329"/>
</g>
<!-- Node10&#45;&gt;Node13 -->
<g id="edge15" class="edge"><title>Node10&#45;&gt;Node13</title>
<path fill="none" stroke="midnightblue" d="M508.393,-168.444C542.958,-160.349 594.941,-147.198 639,-132 683.608,-116.613 733.614,-94.1791 763.685,-80.0971"/>
<polygon fill="midnightblue" stroke="midnightblue" points="765.531,-83.0961 773.082,-75.6639 762.544,-76.7653 765.531,-83.0961"/>
</g>
<!-- Node14 -->
<g id="node14" class="node"><title>Node14</title>
<g id="a_node14"><a xlink:href="_convenience_8h.html" target="_top" xlink:title="uscxml/util/Convenience.h">
<polygon fill="white" stroke="black" points="352.5,-112.5 352.5,-131.5 485.5,-131.5 485.5,-112.5 352.5,-112.5"/>
<text text-anchor="middle" x="419" y="-119.5" font-family="Helvetica,sans-Serif" font-size="10.00">uscxml/util/Convenience.h</text>
</a>
</g>
</g>
<!-- Node10&#45;&gt;Node14 -->
<g id="edge18" class="edge"><title>Node10&#45;&gt;Node14</title>
<path fill="none" stroke="midnightblue" d="M461.578,-168.083C454.152,-160.22 443.148,-148.569 434.188,-139.081"/>
<polygon fill="midnightblue" stroke="midnightblue" points="436.676,-136.618 427.265,-131.751 431.587,-141.424 436.676,-136.618"/>
</g>
<!-- Node18 -->
<g id="node18" class="node"><title>Node18</title>
<g id="a_node18"><a xlink:href="_blob_8h.html" target="_top" xlink:title="uscxml/messages/Blob.h">
<polygon fill="white" stroke="black" points="503.5,-112.5 503.5,-131.5 630.5,-131.5 630.5,-112.5 503.5,-112.5"/>
<text text-anchor="middle" x="567" y="-119.5" font-family="Helvetica,sans-Serif" font-size="10.00">uscxml/messages/Blob.h</text>
</a>
</g>
</g>
<!-- Node10&#45;&gt;Node18 -->
<g id="edge23" class="edge"><title>Node10&#45;&gt;Node18</title>
<path fill="none" stroke="midnightblue" d="M485.585,-168.324C500.999,-159.743 524.812,-146.486 542.71,-136.522"/>
<polygon fill="midnightblue" stroke="midnightblue" points="544.419,-139.577 551.454,-131.655 541.014,-133.461 544.419,-139.577"/>
</g>
<!-- Node14&#45;&gt;Node4 -->
<g id="edge19" class="edge"><title>Node14&#45;&gt;Node4</title>
<path fill="none" stroke="midnightblue" d="M376.852,-112.444C330.254,-102.984 255.156,-87.7384 204.955,-77.5472"/>
<polygon fill="midnightblue" stroke="midnightblue" points="205.448,-74.076 194.951,-75.5164 204.055,-80.936 205.448,-74.076"/>
</g>
<!-- Node14&#45;&gt;Node15 -->
<g id="edge20" class="edge"><title>Node14&#45;&gt;Node15</title>
<path fill="none" stroke="midnightblue" d="M442.451,-112.444C467.859,-103.173 508.495,-88.3464 536.399,-78.1652"/>
<polygon fill="midnightblue" stroke="midnightblue" points="537.857,-81.359 546.052,-74.6433 535.458,-74.783 537.857,-81.359"/>
</g>
<!-- Node16 -->
<g id="node16" class="node"><title>Node16</title>
<polygon fill="white" stroke="#bfbfbf" points="431.5,-56.5 431.5,-75.5 470.5,-75.5 470.5,-56.5 431.5,-56.5"/>
<text text-anchor="middle" x="451" y="-63.5" font-family="Helvetica,sans-Serif" font-size="10.00">limits</text>
</g>
<!-- Node14&#45;&gt;Node16 -->
<g id="edge21" class="edge"><title>Node14&#45;&gt;Node16</title>
<path fill="none" stroke="midnightblue" d="M424.284,-112.083C428.711,-104.613 435.163,-93.7244 440.618,-84.5199"/>
<polygon fill="midnightblue" stroke="midnightblue" points="443.727,-86.1383 445.814,-75.7511 437.705,-82.5697 443.727,-86.1383"/>
</g>
<!-- Node17 -->
<g id="node17" class="node"><title>Node17</title>
<polygon fill="white" stroke="#bfbfbf" points="361,-56.5 361,-75.5 413,-75.5 413,-56.5 361,-56.5"/>
<text text-anchor="middle" x="387" y="-63.5" font-family="Helvetica,sans-Serif" font-size="10.00">sstream</text>
</g>
<!-- Node14&#45;&gt;Node17 -->
<g id="edge22" class="edge"><title>Node14&#45;&gt;Node17</title>
<path fill="none" stroke="midnightblue" d="M413.716,-112.083C409.289,-104.613 402.837,-93.7244 397.382,-84.5199"/>
<polygon fill="midnightblue" stroke="midnightblue" points="400.295,-82.5697 392.186,-75.7511 394.273,-86.1383 400.295,-82.5697"/>
</g>
<!-- Node18&#45;&gt;Node4 -->
<g id="edge26" class="edge"><title>Node18&#45;&gt;Node4</title>
<path fill="none" stroke="midnightblue" d="M503.22,-112.681C423.989,-102.346 289.851,-84.8501 212.607,-74.7749"/>
<polygon fill="midnightblue" stroke="midnightblue" points="212.926,-71.2869 202.557,-73.464 212.021,-78.2281 212.926,-71.2869"/>
</g>
<!-- Node18&#45;&gt;Node13 -->
<g id="edge25" class="edge"><title>Node18&#45;&gt;Node13</title>
<path fill="none" stroke="midnightblue" d="M602.493,-112.444C644.091,-102.416 712.66,-85.8856 754.632,-75.7674"/>
<polygon fill="midnightblue" stroke="midnightblue" points="755.54,-79.1488 764.441,-73.4026 753.899,-72.3437 755.54,-79.1488"/>
</g>
<!-- Node18&#45;&gt;Node15 -->
<g id="edge24" class="edge"><title>Node18&#45;&gt;Node15</title>
<path fill="none" stroke="midnightblue" d="M567,-112.083C567,-105.006 567,-94.8611 567,-85.9865"/>
<polygon fill="midnightblue" stroke="midnightblue" points="570.5,-85.751 567,-75.7511 563.5,-85.7511 570.5,-85.751"/>
</g>
<!-- Node19&#45;&gt;Node4 -->
<g id="edge28" class="edge"><title>Node19&#45;&gt;Node4</title>
<path fill="none" stroke="midnightblue" d="M185.56,-112.083C180.051,-104.455 171.969,-93.2645 165.235,-83.9408"/>
<polygon fill="midnightblue" stroke="midnightblue" points="168.013,-81.8087 159.32,-75.7511 162.338,-85.9071 168.013,-81.8087"/>
</g>
<!-- Node19&#45;&gt;Node15 -->
<g id="edge29" class="edge"><title>Node19&#45;&gt;Node15</title>
<path fill="none" stroke="midnightblue" d="M241.797,-113.829C320.496,-102.497 471.328,-80.7767 536.149,-71.4426"/>
<polygon fill="midnightblue" stroke="midnightblue" points="536.749,-74.8924 546.148,-70.0027 535.751,-67.9639 536.749,-74.8924"/>
</g>
<!-- Node21&#45;&gt;Node4 -->
<g id="edge36" class="edge"><title>Node21&#45;&gt;Node4</title>
<path fill="none" stroke="midnightblue" d="M189.373,-339.201C123.544,-329.525 38,-303.728 38,-235 38,-235 38,-235 38,-177 38,-146.205 41.4034,-134.894 62,-112 75.5266,-96.9648 95.2106,-86.367 112.814,-79.2494"/>
<polygon fill="midnightblue" stroke="midnightblue" points="114.215,-82.4615 122.328,-75.6471 111.736,-75.9151 114.215,-82.4615"/>
</g>
<!-- Node21&#45;&gt;Node8 -->
<g id="edge37" class="edge"><title>Node21&#45;&gt;Node8</title>
<path fill="none" stroke="midnightblue" d="M305.99,-336.444C352.412,-326.984 427.228,-311.738 477.24,-301.547"/>
<polygon fill="midnightblue" stroke="midnightblue" points="478.107,-304.943 487.206,-299.516 476.709,-298.084 478.107,-304.943"/>
</g>
<!-- Node21&#45;&gt;Node9 -->
<g id="edge38" class="edge"><title>Node21&#45;&gt;Node9</title>
<path fill="none" stroke="midnightblue" d="M276.555,-336.368C303.894,-317.573 369.064,-272.768 402.861,-249.533"/>
<polygon fill="midnightblue" stroke="midnightblue" points="405.246,-252.141 411.503,-243.591 401.28,-246.373 405.246,-252.141"/>
</g>
</g>
</svg>
