<?xml version="1.0" encoding="UTF-8" standalone="no"?>
<!DOCTYPE svg PUBLIC "-//W3C//DTD SVG 1.1//EN"
 "http://www.w3.org/Graphics/SVG/1.1/DTD/svg11.dtd">
<!-- Generated by graphviz version 2.38.0 (20140413.2041)
 -->
<!-- Title: plugins/datamodel/ecmascript/v8/V8DataModel.cpp Pages: 1 -->
<!--zoomable 554 -->
<svg id="main" version="1.1" xmlns="http://www.w3.org/2000/svg" xmlns:xlink="http://www.w3.org/1999/xlink" xml:space="preserve" onload="init(evt)">
<style type="text/css"><![CDATA[
.edge:hover path { stroke: red; }
.edge:hover polygon { stroke: red; fill: red; }
]]></style>
<script type="text/javascript"><![CDATA[
var edges = document.getElementsByTagName('g');
if (edges && edges.length) {
  for (var i=0;i<edges.length;i++) {
    if (edges[i].id.substr(0,4)=='edge') {
      edges[i].setAttribute('class','edge');
    }
  }
}
]]></script>
        <defs>
                <circle id="rim" cx="0" cy="0" r="7"/>
                <circle id="rim2" cx="0" cy="0" r="3.5"/>
                <g id="zoomPlus">
                        <use xlink:href="#rim" fill="#404040">
                                <set attributeName="fill" to="#808080" begin="zoomplus.mouseover" end="zoomplus.mouseout"/>
                        </use>
                        <path d="M-4,0h8M0,-4v8" fill="none" stroke="white" stroke-width="1.5" pointer-events="none"/>
                </g>
                <g id="zoomMin">
                        <use xlink:href="#rim" fill="#404040">
                                <set attributeName="fill" to="#808080" begin="zoomminus.mouseover" end="zoomminus.mouseout"/>
                        </use>
                        <path d="M-4,0h8" fill="none" stroke="white" stroke-width="1.5" pointer-events="none"/>
                </g>
                <g id="dirArrow">
                        <path fill="none" stroke="white" stroke-width="1.5" d="M0,-3.0v7 M-2.5,-0.5L0,-3.0L2.5,-0.5"/>
                </g>
               <g id="resetDef">
                       <use xlink:href="#rim2" fill="#404040">
                               <set attributeName="fill" to="#808080" begin="reset.mouseover" end="reset.mouseout"/>
                       </use>
               </g>
        </defs>

<script type="text/javascript">
var viewWidth = 2192;
var viewHeight = 554;
var sectionId = 'dynsection-0';
</script>
<script xlink:href="svgpan.js"/>
<svg id="graph" class="graph">
<g id="viewport">
<title>plugins/datamodel/ecmascript/v8/V8DataModel.cpp</title>
<polygon fill="white" stroke="none" points="-4,4 -4,-550 2188,-550 2188,4 -4,4"/>
<!-- Node1 -->
<g id="node1" class="node"><title>Node1</title>
<polygon fill="#bfbfbf" stroke="black" points="1321.5,-515.5 1321.5,-545.5 1470.5,-545.5 1470.5,-515.5 1321.5,-515.5"/>
<text text-anchor="start" x="1329.5" y="-533.5" font-family="Helvetica,sans-Serif" font-size="10.00">plugins/datamodel/ecmascript</text>
<text text-anchor="middle" x="1396" y="-522.5" font-family="Helvetica,sans-Serif" font-size="10.00">/v8/V8DataModel.cpp</text>
</g>
<!-- Node2 -->
<g id="node2" class="node"><title>Node2</title>
<g id="a_node2"><a xlink:href="_common_8h.html" target="_top" xlink:title="uscxml/Common.h">
<polygon fill="white" stroke="black" points="1189.5,-56.5 1189.5,-75.5 1288.5,-75.5 1288.5,-56.5 1189.5,-56.5"/>
<text text-anchor="middle" x="1239" y="-63.5" font-family="Helvetica,sans-Serif" font-size="10.00">uscxml/Common.h</text>
</a>
</g>
</g>
<!-- Node1&#45;&gt;Node2 -->
<g id="edge1" class="edge"><title>Node1&#45;&gt;Node2</title>
<path fill="none" stroke="midnightblue" d="M1470.5,-527.557C1614.29,-521.774 1916,-498.872 1916,-408.5 1916,-408.5 1916,-408.5 1916,-177 1916,-114.71 1463.71,-80.7583 1298.5,-70.4341"/>
<polygon fill="midnightblue" stroke="midnightblue" points="1298.7,-66.9402 1288.51,-69.8167 1298.27,-73.9268 1298.7,-66.9402"/>
</g>
<!-- Node5 -->
<g id="node5" class="node"><title>Node5</title>
<g id="a_node5"><a xlink:href="_u_r_l_8h.html" target="_top" xlink:title="uscxml/util/URL.h">
<polygon fill="white" stroke="black" points="355,-280.5 355,-299.5 449,-299.5 449,-280.5 355,-280.5"/>
<text text-anchor="middle" x="402" y="-287.5" font-family="Helvetica,sans-Serif" font-size="10.00">uscxml/util/URL.h</text>
</a>
</g>
</g>
<!-- Node1&#45;&gt;Node5 -->
<g id="edge4" class="edge"><title>Node1&#45;&gt;Node5</title>
<path fill="none" stroke="midnightblue" d="M1321.38,-528.631C1126.31,-525.86 611.561,-515.171 544,-479 472.321,-440.624 426.343,-348.498 409.369,-309.229"/>
<polygon fill="midnightblue" stroke="midnightblue" points="412.529,-307.713 405.434,-299.843 406.073,-310.419 412.529,-307.713"/>
</g>
<!-- Node6 -->
<g id="node6" class="node"><title>Node6</title>
<g id="a_node6"><a xlink:href="_event_8h.html" target="_top" xlink:title="uscxml/messages/Event.h">
<polygon fill="white" stroke="black" points="777.5,-224.5 777.5,-243.5 910.5,-243.5 910.5,-224.5 777.5,-224.5"/>
<text text-anchor="middle" x="844" y="-231.5" font-family="Helvetica,sans-Serif" font-size="10.00">uscxml/messages/Event.h</text>
</a>
</g>
</g>
<!-- Node1&#45;&gt;Node6 -->
<g id="edge63" class="edge"><title>Node1&#45;&gt;Node6</title>
<path fill="none" stroke="midnightblue" d="M1321.19,-525.972C1122.56,-515.613 597,-481.323 597,-408.5 597,-408.5 597,-408.5 597,-345 597,-269.344 694.9,-245.35 767.43,-237.955"/>
<polygon fill="midnightblue" stroke="midnightblue" points="767.852,-241.431 777.484,-237.018 767.202,-234.461 767.852,-241.431"/>
</g>
<!-- Node23 -->
<g id="node23" class="node"><title>Node23</title>
<g id="a_node23"><a xlink:href="_string_8h.html" target="_top" xlink:title="uscxml/util/String.h">
<polygon fill="white" stroke="black" points="507,-168.5 507,-187.5 607,-187.5 607,-168.5 507,-168.5"/>
<text text-anchor="middle" x="557" y="-175.5" font-family="Helvetica,sans-Serif" font-size="10.00">uscxml/util/String.h</text>
</a>
</g>
</g>
<!-- Node1&#45;&gt;Node23 -->
<g id="edge34" class="edge"><title>Node1&#45;&gt;Node23</title>
<path fill="none" stroke="midnightblue" d="M1321.34,-528.01C1165.09,-524.263 808.507,-512.246 692,-479 627.288,-460.534 558,-475.795 558,-408.5 558,-408.5 558,-408.5 558,-289 558,-256.947 557.57,-219.642 557.274,-197.748"/>
<polygon fill="midnightblue" stroke="midnightblue" points="560.771,-197.507 557.131,-187.558 553.772,-197.606 560.771,-197.507"/>
</g>
<!-- Node24 -->
<g id="node24" class="node"><title>Node24</title>
<g id="a_node24"><a xlink:href="_v8_data_model_8h.html" target="_top" xlink:title="V8DataModel.h">
<polygon fill="white" stroke="black" points="1194.5,-459.5 1194.5,-478.5 1279.5,-478.5 1279.5,-459.5 1194.5,-459.5"/>
<text text-anchor="middle" x="1237" y="-466.5" font-family="Helvetica,sans-Serif" font-size="10.00">V8DataModel.h</text>
</a>
</g>
</g>
<!-- Node1&#45;&gt;Node24 -->
<g id="edge37" class="edge"><title>Node1&#45;&gt;Node24</title>
<path fill="none" stroke="midnightblue" d="M1358.32,-515.399C1331.4,-505.327 1295.55,-491.909 1269.81,-482.277"/>
<polygon fill="midnightblue" stroke="midnightblue" points="1270.73,-478.885 1260.14,-478.658 1268.27,-485.441 1270.73,-478.885"/>
</g>
<!-- Node31 -->
<g id="node31" class="node"><title>Node31</title>
<g id="a_node31"><a xlink:href="_d_o_m_8h.html" target="_top" xlink:title="uscxml/util/DOM.h">
<polygon fill="white" stroke="black" points="1526,-280.5 1526,-299.5 1624,-299.5 1624,-280.5 1526,-280.5"/>
<text text-anchor="middle" x="1575" y="-287.5" font-family="Helvetica,sans-Serif" font-size="10.00">uscxml/util/DOM.h</text>
</a>
</g>
</g>
<!-- Node1&#45;&gt;Node31 -->
<g id="edge64" class="edge"><title>Node1&#45;&gt;Node31</title>
<path fill="none" stroke="midnightblue" d="M1406.66,-515.295C1437.78,-473.827 1528.44,-353.038 1562.16,-308.102"/>
<polygon fill="midnightblue" stroke="midnightblue" points="1565.08,-310.045 1568.29,-299.946 1559.48,-305.843 1565.08,-310.045"/>
</g>
<!-- Node34 -->
<g id="node34" class="node"><title>Node34</title>
<polygon fill="white" stroke="#bfbfbf" points="1944,-459.5 1944,-478.5 2034,-478.5 2034,-459.5 1944,-459.5"/>
<text text-anchor="middle" x="1989" y="-466.5" font-family="Helvetica,sans-Serif" font-size="10.00">easylogging++.h</text>
</g>
<!-- Node1&#45;&gt;Node34 -->
<g id="edge72" class="edge"><title>Node1&#45;&gt;Node34</title>
<path fill="none" stroke="midnightblue" d="M1470.88,-523.775C1574.31,-515.559 1766.65,-499.167 1930,-479 1931.27,-478.843 1932.56,-478.68 1933.86,-478.512"/>
<polygon fill="midnightblue" stroke="midnightblue" points="1934.5,-481.957 1943.94,-477.145 1933.56,-475.021 1934.5,-481.957"/>
</g>
<!-- Node35 -->
<g id="node35" class="node"><title>Node35</title>
<polygon fill="white" stroke="#bfbfbf" points="2052,-459.5 2052,-478.5 2184,-478.5 2184,-459.5 2052,-459.5"/>
<text text-anchor="middle" x="2118" y="-466.5" font-family="Helvetica,sans-Serif" font-size="10.00">boost/algorithm/string.hpp</text>
</g>
<!-- Node1&#45;&gt;Node35 -->
<g id="edge73" class="edge"><title>Node1&#45;&gt;Node35</title>
<path fill="none" stroke="midnightblue" d="M1470.81,-524.674C1589.5,-516.793 1828.52,-500.011 2041.63,-479.099"/>
<polygon fill="midnightblue" stroke="midnightblue" points="2042.15,-482.564 2051.76,-478.1 2041.47,-475.598 2042.15,-482.564"/>
</g>
<!-- Node3 -->
<g id="node3" class="node"><title>Node3</title>
<polygon fill="white" stroke="#bfbfbf" points="1165,-0.5 1165,-19.5 1237,-19.5 1237,-0.5 1165,-0.5"/>
<text text-anchor="middle" x="1201" y="-7.5" font-family="Helvetica,sans-Serif" font-size="10.00">sys/socket.h</text>
</g>
<!-- Node2&#45;&gt;Node3 -->
<g id="edge2" class="edge"><title>Node2&#45;&gt;Node3</title>
<path fill="none" stroke="midnightblue" d="M1232.73,-56.083C1227.36,-48.4554 1219.48,-37.2645 1212.92,-27.9408"/>
<polygon fill="midnightblue" stroke="midnightblue" points="1215.78,-25.9149 1207.16,-19.7511 1210.05,-29.9434 1215.78,-25.9149"/>
</g>
<!-- Node4 -->
<g id="node4" class="node"><title>Node4</title>
<polygon fill="white" stroke="#bfbfbf" points="1255,-0.5 1255,-19.5 1299,-19.5 1299,-0.5 1255,-0.5"/>
<text text-anchor="middle" x="1277" y="-7.5" font-family="Helvetica,sans-Serif" font-size="10.00">cmath</text>
</g>
<!-- Node2&#45;&gt;Node4 -->
<g id="edge3" class="edge"><title>Node2&#45;&gt;Node4</title>
<path fill="none" stroke="midnightblue" d="M1245.27,-56.083C1250.64,-48.4554 1258.52,-37.2645 1265.08,-27.9408"/>
<polygon fill="midnightblue" stroke="midnightblue" points="1267.95,-29.9434 1270.84,-19.7511 1262.22,-25.9149 1267.95,-29.9434"/>
</g>
<!-- Node5&#45;&gt;Node2 -->
<g id="edge5" class="edge"><title>Node5&#45;&gt;Node2</title>
<path fill="none" stroke="midnightblue" d="M446.7,-280.494C515.566,-267.517 651.824,-242.352 768,-224 883.229,-205.797 917.604,-225.706 1028,-188 1103.89,-162.08 1183.3,-108.03 1219.24,-81.8484"/>
<polygon fill="midnightblue" stroke="midnightblue" points="1221.44,-84.5759 1227.42,-75.8266 1217.29,-78.9402 1221.44,-84.5759"/>
</g>
<!-- Node5&#45;&gt;Node6 -->
<g id="edge6" class="edge"><title>Node5&#45;&gt;Node6</title>
<path fill="none" stroke="midnightblue" d="M449.302,-283.221C525.397,-273.924 675.715,-255.56 767.297,-244.371"/>
<polygon fill="midnightblue" stroke="midnightblue" points="767.84,-247.831 777.342,-243.144 766.991,-240.882 767.84,-247.831"/>
</g>
<!-- Node8 -->
<g id="node8" class="node"><title>Node8</title>
<polygon fill="white" stroke="#bfbfbf" points="538.5,-112.5 538.5,-131.5 567.5,-131.5 567.5,-112.5 538.5,-112.5"/>
<text text-anchor="middle" x="553" y="-119.5" font-family="Helvetica,sans-Serif" font-size="10.00">list</text>
</g>
<!-- Node5&#45;&gt;Node8 -->
<g id="edge29" class="edge"><title>Node5&#45;&gt;Node8</title>
<path fill="none" stroke="midnightblue" d="M410.215,-280.244C418.48,-271.325 431.473,-256.996 442,-244 468.41,-211.397 469.093,-198.411 498,-168 508.597,-156.852 521.917,-145.889 532.794,-137.576"/>
<polygon fill="midnightblue" stroke="midnightblue" points="534.979,-140.312 540.895,-131.523 530.789,-134.705 534.979,-140.312"/>
</g>
<!-- Node9 -->
<g id="node9" class="node"><title>Node9</title>
<polygon fill="white" stroke="#bfbfbf" points="484,-112.5 484,-131.5 520,-131.5 520,-112.5 484,-112.5"/>
<text text-anchor="middle" x="502" y="-119.5" font-family="Helvetica,sans-Serif" font-size="10.00">map</text>
</g>
<!-- Node5&#45;&gt;Node9 -->
<g id="edge27" class="edge"><title>Node5&#45;&gt;Node9</title>
<path fill="none" stroke="midnightblue" d="M405.705,-280.447C414.645,-260.174 438.618,-207.91 465,-168 471.623,-157.981 480.063,-147.574 487.209,-139.295"/>
<polygon fill="midnightblue" stroke="midnightblue" points="490.06,-141.355 494.058,-131.543 484.814,-136.72 490.06,-141.355"/>
</g>
<!-- Node13 -->
<g id="node13" class="node"><title>Node13</title>
<polygon fill="white" stroke="#bfbfbf" points="575.5,-56.5 575.5,-75.5 616.5,-75.5 616.5,-56.5 575.5,-56.5"/>
<text text-anchor="middle" x="596" y="-63.5" font-family="Helvetica,sans-Serif" font-size="10.00">string</text>
</g>
<!-- Node5&#45;&gt;Node13 -->
<g id="edge25" class="edge"><title>Node5&#45;&gt;Node13</title>
<path fill="none" stroke="midnightblue" d="M354.626,-287.059C299.016,-282.732 217.407,-268.796 243,-224 310.412,-106.01 492.215,-76.4434 565.128,-69.2423"/>
<polygon fill="midnightblue" stroke="midnightblue" points="565.825,-72.6934 575.466,-68.3012 565.19,-65.7223 565.825,-72.6934"/>
</g>
<!-- Node15 -->
<g id="node15" class="node"><title>Node15</title>
<polygon fill="white" stroke="#bfbfbf" points="333,-56.5 333,-75.5 385,-75.5 385,-56.5 333,-56.5"/>
<text text-anchor="middle" x="359" y="-63.5" font-family="Helvetica,sans-Serif" font-size="10.00">sstream</text>
</g>
<!-- Node5&#45;&gt;Node15 -->
<g id="edge26" class="edge"><title>Node5&#45;&gt;Node15</title>
<path fill="none" stroke="midnightblue" d="M354.957,-284.588C304.054,-278.727 227.759,-266.402 210,-244 173.556,-198.026 175.024,-159.1 210,-112 235.696,-77.3973 287.212,-68.4444 322.399,-66.6115"/>
<polygon fill="midnightblue" stroke="midnightblue" points="322.877,-70.0971 332.749,-66.2508 322.633,-63.1014 322.877,-70.0971"/>
</g>
<!-- Node18 -->
<g id="node18" class="node"><title>Node18</title>
<polygon fill="white" stroke="#bfbfbf" points="1341,-224.5 1341,-243.5 1371,-243.5 1371,-224.5 1341,-224.5"/>
<text text-anchor="middle" x="1356" y="-231.5" font-family="Helvetica,sans-Serif" font-size="10.00">set</text>
</g>
<!-- Node5&#45;&gt;Node18 -->
<g id="edge28" class="edge"><title>Node5&#45;&gt;Node18</title>
<path fill="none" stroke="midnightblue" d="M449.309,-286.322C620.281,-276.644 1202.8,-243.672 1330.94,-236.419"/>
<polygon fill="midnightblue" stroke="midnightblue" points="1331.17,-239.911 1340.96,-235.851 1330.78,-232.922 1331.17,-239.911"/>
</g>
<!-- Node19 -->
<g id="node19" class="node"><title>Node19</title>
<polygon fill="white" stroke="#bfbfbf" points="252.5,-224.5 252.5,-243.5 297.5,-243.5 297.5,-224.5 252.5,-224.5"/>
<text text-anchor="middle" x="275" y="-231.5" font-family="Helvetica,sans-Serif" font-size="10.00">thread</text>
</g>
<!-- Node5&#45;&gt;Node19 -->
<g id="edge30" class="edge"><title>Node5&#45;&gt;Node19</title>
<path fill="none" stroke="midnightblue" d="M381.876,-280.444C360.976,-271.557 328.065,-257.563 304.284,-247.451"/>
<polygon fill="midnightblue" stroke="midnightblue" points="305.602,-244.208 295.029,-243.516 302.862,-250.65 305.602,-244.208"/>
</g>
<!-- Node20 -->
<g id="node20" class="node"><title>Node20</title>
<polygon fill="white" stroke="#bfbfbf" points="315.5,-224.5 315.5,-243.5 412.5,-243.5 412.5,-224.5 315.5,-224.5"/>
<text text-anchor="middle" x="364" y="-231.5" font-family="Helvetica,sans-Serif" font-size="10.00">condition_variable</text>
</g>
<!-- Node5&#45;&gt;Node20 -->
<g id="edge31" class="edge"><title>Node5&#45;&gt;Node20</title>
<path fill="none" stroke="midnightblue" d="M395.725,-280.083C390.358,-272.455 382.482,-261.264 375.921,-251.941"/>
<polygon fill="midnightblue" stroke="midnightblue" points="378.775,-249.915 370.158,-243.751 373.051,-253.943 378.775,-249.915"/>
</g>
<!-- Node21 -->
<g id="node21" class="node"><title>Node21</title>
<polygon fill="white" stroke="#bfbfbf" points="0,-224.5 0,-243.5 60,-243.5 60,-224.5 0,-224.5"/>
<text text-anchor="middle" x="30" y="-231.5" font-family="Helvetica,sans-Serif" font-size="10.00">curl/curl.h</text>
</g>
<!-- Node5&#45;&gt;Node21 -->
<g id="edge32" class="edge"><title>Node5&#45;&gt;Node21</title>
<path fill="none" stroke="midnightblue" d="M354.909,-284.026C292.161,-277.092 177.502,-263.355 70.2023,-244.076"/>
<polygon fill="midnightblue" stroke="midnightblue" points="70.6411,-240.598 60.1764,-242.254 69.3896,-247.486 70.6411,-240.598"/>
</g>
<!-- Node22 -->
<g id="node22" class="node"><title>Node22</title>
<polygon fill="white" stroke="#bfbfbf" points="78,-224.5 78,-243.5 158,-243.5 158,-224.5 78,-224.5"/>
<text text-anchor="middle" x="118" y="-231.5" font-family="Helvetica,sans-Serif" font-size="10.00">uriparser/Uri.h</text>
</g>
<!-- Node5&#45;&gt;Node22 -->
<g id="edge33" class="edge"><title>Node5&#45;&gt;Node22</title>
<path fill="none" stroke="midnightblue" d="M356.999,-280.444C305.571,-270.665 221.628,-254.704 168.143,-244.534"/>
<polygon fill="midnightblue" stroke="midnightblue" points="168.676,-241.073 158.198,-242.643 167.368,-247.95 168.676,-241.073"/>
</g>
<!-- Node7 -->
<g id="node7" class="node"><title>Node7</title>
<g id="a_node7"><a xlink:href="_data_8h.html" target="_top" xlink:title="uscxml/messages/Data.h">
<polygon fill="white" stroke="black" points="891,-168.5 891,-187.5 1019,-187.5 1019,-168.5 891,-168.5"/>
<text text-anchor="middle" x="955" y="-175.5" font-family="Helvetica,sans-Serif" font-size="10.00">uscxml/messages/Data.h</text>
</a>
</g>
</g>
<!-- Node6&#45;&gt;Node7 -->
<g id="edge7" class="edge"><title>Node6&#45;&gt;Node7</title>
<path fill="none" stroke="midnightblue" d="M861.834,-224.324C879.716,-215.625 907.475,-202.12 928.046,-192.113"/>
<polygon fill="midnightblue" stroke="midnightblue" points="929.749,-195.177 937.21,-187.655 926.687,-188.882 929.749,-195.177"/>
</g>
<!-- Node17 -->
<g id="node17" class="node"><title>Node17</title>
<g id="a_node17"><a xlink:href="_u_u_i_d_8h.html" target="_top" xlink:title="uscxml/util/UUID.h">
<polygon fill="white" stroke="black" points="775.5,-112.5 775.5,-131.5 874.5,-131.5 874.5,-112.5 775.5,-112.5"/>
<text text-anchor="middle" x="825" y="-119.5" font-family="Helvetica,sans-Serif" font-size="10.00">uscxml/util/UUID.h</text>
</a>
</g>
</g>
<!-- Node6&#45;&gt;Node17 -->
<g id="edge22" class="edge"><title>Node6&#45;&gt;Node17</title>
<path fill="none" stroke="midnightblue" d="M842.509,-224.368C839.443,-206.617 832.37,-165.666 828.212,-141.597"/>
<polygon fill="midnightblue" stroke="midnightblue" points="831.635,-140.85 826.484,-131.591 824.737,-142.041 831.635,-140.85"/>
</g>
<!-- Node7&#45;&gt;Node2 -->
<g id="edge12" class="edge"><title>Node7&#45;&gt;Node2</title>
<path fill="none" stroke="midnightblue" d="M977.285,-168.368C1027.47,-148.93 1149.48,-101.674 1207.43,-79.2278"/>
<polygon fill="midnightblue" stroke="midnightblue" points="1208.76,-82.467 1216.82,-75.5914 1206.23,-75.9395 1208.76,-82.467"/>
</g>
<!-- Node7&#45;&gt;Node8 -->
<g id="edge8" class="edge"><title>Node7&#45;&gt;Node8</title>
<path fill="none" stroke="midnightblue" d="M890.735,-168.739C822.344,-159.89 710.986,-145.318 615,-132 602.672,-130.289 588.977,-128.31 577.601,-126.644"/>
<polygon fill="midnightblue" stroke="midnightblue" points="577.927,-123.154 567.524,-125.161 576.908,-130.079 577.927,-123.154"/>
</g>
<!-- Node7&#45;&gt;Node9 -->
<g id="edge9" class="edge"><title>Node7&#45;&gt;Node9</title>
<path fill="none" stroke="midnightblue" d="M890.803,-174.546C808.869,-170.456 662.816,-159.948 530.089,-131.791"/>
<polygon fill="midnightblue" stroke="midnightblue" points="530.664,-128.335 520.151,-129.644 529.186,-135.177 530.664,-128.335"/>
</g>
<!-- Node10 -->
<g id="node10" class="node"><title>Node10</title>
<polygon fill="white" stroke="#bfbfbf" points="1014.5,-56.5 1014.5,-75.5 1067.5,-75.5 1067.5,-56.5 1014.5,-56.5"/>
<text text-anchor="middle" x="1041" y="-63.5" font-family="Helvetica,sans-Serif" font-size="10.00">memory</text>
</g>
<!-- Node7&#45;&gt;Node10 -->
<g id="edge10" class="edge"><title>Node7&#45;&gt;Node10</title>
<path fill="none" stroke="midnightblue" d="M944.578,-168.171C930.626,-155.263 909.05,-130.742 922,-112 940.37,-85.4133 976.612,-74.5177 1004.3,-70.0618"/>
<polygon fill="midnightblue" stroke="midnightblue" points="1005.01,-73.4961 1014.43,-68.65 1004.05,-66.563 1005.01,-73.4961"/>
</g>
<!-- Node11 -->
<g id="node11" class="node"><title>Node11</title>
<polygon fill="white" stroke="#bfbfbf" points="1305.5,-112.5 1305.5,-131.5 1390.5,-131.5 1390.5,-112.5 1305.5,-112.5"/>
<text text-anchor="middle" x="1348" y="-119.5" font-family="Helvetica,sans-Serif" font-size="10.00">uscxml/config.h</text>
</g>
<!-- Node7&#45;&gt;Node11 -->
<g id="edge11" class="edge"><title>Node7&#45;&gt;Node11</title>
<path fill="none" stroke="midnightblue" d="M1017.27,-168.444C1094.01,-157.899 1223.07,-140.166 1295.19,-130.257"/>
<polygon fill="midnightblue" stroke="midnightblue" points="1295.97,-133.682 1305.4,-128.854 1295.02,-126.747 1295.97,-133.682"/>
</g>
<!-- Node12 -->
<g id="node12" class="node"><title>Node12</title>
<g id="a_node12"><a xlink:href="_convenience_8h.html" target="_top" xlink:title="uscxml/util/Convenience.h">
<polygon fill="white" stroke="black" points="624.5,-112.5 624.5,-131.5 757.5,-131.5 757.5,-112.5 624.5,-112.5"/>
<text text-anchor="middle" x="691" y="-119.5" font-family="Helvetica,sans-Serif" font-size="10.00">uscxml/util/Convenience.h</text>
</a>
</g>
</g>
<!-- Node7&#45;&gt;Node12 -->
<g id="edge13" class="edge"><title>Node7&#45;&gt;Node12</title>
<path fill="none" stroke="midnightblue" d="M913.168,-168.444C866.921,-158.984 792.388,-143.738 742.564,-133.547"/>
<polygon fill="midnightblue" stroke="midnightblue" points="743.134,-130.091 732.636,-131.516 741.732,-136.949 743.134,-130.091"/>
</g>
<!-- Node16 -->
<g id="node16" class="node"><title>Node16</title>
<g id="a_node16"><a xlink:href="_blob_8h.html" target="_top" xlink:title="uscxml/messages/Blob.h">
<polygon fill="white" stroke="black" points="931.5,-112.5 931.5,-131.5 1058.5,-131.5 1058.5,-112.5 931.5,-112.5"/>
<text text-anchor="middle" x="995" y="-119.5" font-family="Helvetica,sans-Serif" font-size="10.00">uscxml/messages/Blob.h</text>
</a>
</g>
</g>
<!-- Node7&#45;&gt;Node16 -->
<g id="edge18" class="edge"><title>Node7&#45;&gt;Node16</title>
<path fill="none" stroke="midnightblue" d="M961.605,-168.083C967.255,-160.455 975.545,-149.264 982.451,-139.941"/>
<polygon fill="midnightblue" stroke="midnightblue" points="985.378,-141.87 988.518,-131.751 979.753,-137.703 985.378,-141.87"/>
</g>
<!-- Node12&#45;&gt;Node2 -->
<g id="edge14" class="edge"><title>Node12&#45;&gt;Node2</title>
<path fill="none" stroke="midnightblue" d="M757.647,-112.916C760.468,-112.601 763.262,-112.294 766,-112 914.468,-96.0319 1089.48,-80.1456 1179.25,-72.2098"/>
<polygon fill="midnightblue" stroke="midnightblue" points="1179.59,-75.6935 1189.25,-71.3282 1178.98,-68.7206 1179.59,-75.6935"/>
</g>
<!-- Node12&#45;&gt;Node13 -->
<g id="edge15" class="edge"><title>Node12&#45;&gt;Node13</title>
<path fill="none" stroke="midnightblue" d="M675.737,-112.324C660.779,-103.822 637.745,-90.7288 620.273,-80.7975"/>
<polygon fill="midnightblue" stroke="midnightblue" points="621.649,-77.5534 611.226,-75.6545 618.19,-83.639 621.649,-77.5534"/>
</g>
<!-- Node14 -->
<g id="node14" class="node"><title>Node14</title>
<polygon fill="white" stroke="#bfbfbf" points="671.5,-56.5 671.5,-75.5 710.5,-75.5 710.5,-56.5 671.5,-56.5"/>
<text text-anchor="middle" x="691" y="-63.5" font-family="Helvetica,sans-Serif" font-size="10.00">limits</text>
</g>
<!-- Node12&#45;&gt;Node14 -->
<g id="edge16" class="edge"><title>Node12&#45;&gt;Node14</title>
<path fill="none" stroke="midnightblue" d="M691,-112.083C691,-105.006 691,-94.8611 691,-85.9865"/>
<polygon fill="midnightblue" stroke="midnightblue" points="694.5,-85.751 691,-75.7511 687.5,-85.7511 694.5,-85.751"/>
</g>
<!-- Node12&#45;&gt;Node15 -->
<g id="edge17" class="edge"><title>Node12&#45;&gt;Node15</title>
<path fill="none" stroke="midnightblue" d="M638.394,-112.444C570.434,-101.39 453.905,-82.4364 395.139,-72.878"/>
<polygon fill="midnightblue" stroke="midnightblue" points="395.633,-69.4125 385.201,-71.2616 394.509,-76.3217 395.633,-69.4125"/>
</g>
<!-- Node16&#45;&gt;Node2 -->
<g id="edge21" class="edge"><title>Node16&#45;&gt;Node2</title>
<path fill="none" stroke="midnightblue" d="M1033.66,-112.444C1076.14,-103.043 1144.43,-87.9291 1190.47,-77.7393"/>
<polygon fill="midnightblue" stroke="midnightblue" points="1191.51,-81.0946 1200.52,-75.5164 1190,-74.26 1191.51,-81.0946"/>
</g>
<!-- Node16&#45;&gt;Node10 -->
<g id="edge20" class="edge"><title>Node16&#45;&gt;Node10</title>
<path fill="none" stroke="midnightblue" d="M1002.6,-112.083C1009.23,-104.298 1019.02,-92.8015 1027.06,-83.3665"/>
<polygon fill="midnightblue" stroke="midnightblue" points="1029.73,-85.6332 1033.55,-75.7511 1024.4,-81.0939 1029.73,-85.6332"/>
</g>
<!-- Node16&#45;&gt;Node13 -->
<g id="edge19" class="edge"><title>Node16&#45;&gt;Node13</title>
<path fill="none" stroke="midnightblue" d="M931.778,-112.48C864.793,-103.447 755.938,-88.752 662,-76 650.45,-74.4321 637.765,-72.7038 626.628,-71.1843"/>
<polygon fill="midnightblue" stroke="midnightblue" points="626.894,-67.6883 616.512,-69.8036 625.947,-74.624 626.894,-67.6883"/>
</g>
<!-- Node17&#45;&gt;Node2 -->
<g id="edge23" class="edge"><title>Node17&#45;&gt;Node2</title>
<path fill="none" stroke="midnightblue" d="M874.527,-114.54C950.965,-104.57 1097.42,-85.4676 1179.49,-74.7619"/>
<polygon fill="midnightblue" stroke="midnightblue" points="1179.95,-78.2315 1189.42,-73.4675 1179.05,-71.2903 1179.95,-78.2315"/>
</g>
<!-- Node17&#45;&gt;Node13 -->
<g id="edge24" class="edge"><title>Node17&#45;&gt;Node13</title>
<path fill="none" stroke="midnightblue" d="M788.714,-112.444C743.953,-101.888 668.643,-84.1298 626.647,-74.2268"/>
<polygon fill="midnightblue" stroke="midnightblue" points="627.263,-70.7762 616.727,-71.8876 625.657,-77.5893 627.263,-70.7762"/>
</g>
<!-- Node23&#45;&gt;Node8 -->
<g id="edge36" class="edge"><title>Node23&#45;&gt;Node8</title>
<path fill="none" stroke="midnightblue" d="M556.339,-168.083C555.815,-161.006 555.064,-150.861 554.406,-141.986"/>
<polygon fill="midnightblue" stroke="midnightblue" points="557.877,-141.465 553.648,-131.751 550.897,-141.982 557.877,-141.465"/>
</g>
<!-- Node23&#45;&gt;Node13 -->
<g id="edge35" class="edge"><title>Node23&#45;&gt;Node13</title>
<path fill="none" stroke="midnightblue" d="M509.79,-168.463C469.166,-158.958 420.266,-140.994 442,-112 456.793,-92.2661 524.809,-78.301 565.337,-71.5664"/>
<polygon fill="midnightblue" stroke="midnightblue" points="565.926,-75.0168 575.243,-69.973 564.814,-68.1057 565.926,-75.0168"/>
</g>
<!-- Node24&#45;&gt;Node8 -->
<g id="edge60" class="edge"><title>Node24&#45;&gt;Node8</title>
<path fill="none" stroke="midnightblue" d="M1194.15,-467.928C1062.53,-466.564 673,-453.529 673,-347 673,-347 673,-347 673,-233 673,-200.189 661.282,-191.119 638,-168 620.705,-150.827 595.498,-138.607 577.025,-131.276"/>
<polygon fill="midnightblue" stroke="midnightblue" points="578.139,-127.955 567.547,-127.705 575.671,-134.506 578.139,-127.955"/>
</g>
<!-- Node24&#45;&gt;Node18 -->
<g id="edge61" class="edge"><title>Node24&#45;&gt;Node18</title>
<path fill="none" stroke="midnightblue" d="M1262.71,-459.489C1301.19,-445.161 1372.18,-412.147 1400,-356 1417.77,-320.145 1389.17,-275.267 1370.36,-251.519"/>
<polygon fill="midnightblue" stroke="midnightblue" points="1373.05,-249.269 1363.98,-243.781 1367.64,-253.723 1373.05,-249.269"/>
</g>
<!-- Node25 -->
<g id="node25" class="node"><title>Node25</title>
<g id="a_node25"><a xlink:href="_data_model_impl_8h.html" target="_top" xlink:title="uscxml/plugins/DataModel\lImpl.h">
<polygon fill="white" stroke="black" points="1170.5,-392.5 1170.5,-422.5 1303.5,-422.5 1303.5,-392.5 1170.5,-392.5"/>
<text text-anchor="start" x="1178.5" y="-410.5" font-family="Helvetica,sans-Serif" font-size="10.00">uscxml/plugins/DataModel</text>
<text text-anchor="middle" x="1237" y="-399.5" font-family="Helvetica,sans-Serif" font-size="10.00">Impl.h</text>
</a>
</g>
</g>
<!-- Node24&#45;&gt;Node25 -->
<g id="edge38" class="edge"><title>Node24&#45;&gt;Node25</title>
<path fill="none" stroke="midnightblue" d="M1237,-459.475C1237,-452.471 1237,-442.192 1237,-432.696"/>
<polygon fill="midnightblue" stroke="midnightblue" points="1240.5,-432.523 1237,-422.523 1233.5,-432.523 1240.5,-432.523"/>
</g>
<!-- Node30 -->
<g id="node30" class="node"><title>Node30</title>
<polygon fill="white" stroke="#bfbfbf" points="1117.5,-398 1117.5,-417 1152.5,-417 1152.5,-398 1117.5,-398"/>
<text text-anchor="middle" x="1135" y="-405" font-family="Helvetica,sans-Serif" font-size="10.00">v8.h</text>
</g>
<!-- Node24&#45;&gt;Node30 -->
<g id="edge62" class="edge"><title>Node24&#45;&gt;Node30</title>
<path fill="none" stroke="midnightblue" d="M1222.39,-459.475C1205.65,-449.711 1178,-433.581 1158.28,-422.081"/>
<polygon fill="midnightblue" stroke="midnightblue" points="1159.99,-419.025 1149.59,-417.009 1156.46,-425.071 1159.99,-419.025"/>
</g>
<!-- Node25&#45;&gt;Node2 -->
<g id="edge40" class="edge"><title>Node25&#45;&gt;Node2</title>
<path fill="none" stroke="midnightblue" d="M1303.75,-399.222C1449.94,-381.766 1790.82,-332.278 1859,-244 1930.87,-150.94 1467.25,-91.4169 1298.62,-73.0585"/>
<polygon fill="midnightblue" stroke="midnightblue" points="1298.98,-69.5771 1288.66,-71.985 1298.23,-76.5368 1298.98,-69.5771"/>
</g>
<!-- Node25&#45;&gt;Node8 -->
<g id="edge57" class="edge"><title>Node25&#45;&gt;Node8</title>
<path fill="none" stroke="midnightblue" d="M1170.49,-393.436C1099.72,-379.473 996.713,-358.935 988,-356 884.022,-320.973 857.058,-308.085 768,-244 727.93,-215.166 729.372,-193.329 687,-168 651.854,-146.991 605.599,-134.252 577.646,-127.927"/>
<polygon fill="midnightblue" stroke="midnightblue" points="578.064,-124.437 567.55,-125.743 576.584,-131.279 578.064,-124.437"/>
</g>
<!-- Node25&#45;&gt;Node10 -->
<g id="edge59" class="edge"><title>Node25&#45;&gt;Node10</title>
<path fill="none" stroke="midnightblue" d="M1229.13,-392.407C1218,-371.125 1199,-329.208 1199,-291 1199,-291 1199,-291 1199,-233 1199,-158.339 1114.1,-103.939 1068.77,-80.2138"/>
<polygon fill="midnightblue" stroke="midnightblue" points="1070.24,-77.0358 1059.75,-75.6203 1067.07,-83.2746 1070.24,-77.0358"/>
</g>
<!-- Node25&#45;&gt;Node11 -->
<g id="edge39" class="edge"><title>Node25&#45;&gt;Node11</title>
<path fill="none" stroke="midnightblue" d="M1237,-392.275C1237,-370.476 1237,-327.495 1237,-291 1237,-291 1237,-291 1237,-233 1237,-186.824 1286.06,-153.426 1318.95,-136.226"/>
<polygon fill="midnightblue" stroke="midnightblue" points="1320.79,-139.221 1328.16,-131.609 1317.65,-132.964 1320.79,-139.221"/>
</g>
<!-- Node25&#45;&gt;Node13 -->
<g id="edge58" class="edge"><title>Node25&#45;&gt;Node13</title>
<path fill="none" stroke="midnightblue" d="M1170.3,-393.636C1167.16,-393.074 1164.04,-392.525 1161,-392 1043.71,-371.757 635,-410.024 635,-291 635,-291 635,-291 635,-233 635,-202.902 637.645,-188.913 616,-168 569.487,-123.06 514.675,-183.078 475,-132 448.254,-97.5668 521.437,-79.162 565.45,-71.4549"/>
<polygon fill="midnightblue" stroke="midnightblue" points="566.113,-74.8928 575.406,-69.8048 564.968,-67.987 566.113,-74.8928"/>
</g>
<!-- Node26 -->
<g id="node26" class="node"><title>Node26</title>
<g id="a_node26"><a xlink:href="_invoker_8h.html" target="_top" xlink:title="uscxml/plugins/Invoker.h">
<polygon fill="white" stroke="black" points="1265,-336.5 1265,-355.5 1391,-355.5 1391,-336.5 1265,-336.5"/>
<text text-anchor="middle" x="1328" y="-343.5" font-family="Helvetica,sans-Serif" font-size="10.00">uscxml/plugins/Invoker.h</text>
</a>
</g>
</g>
<!-- Node25&#45;&gt;Node26 -->
<g id="edge41" class="edge"><title>Node25&#45;&gt;Node26</title>
<path fill="none" stroke="midnightblue" d="M1258.57,-392.399C1272.88,-383.04 1291.61,-370.792 1306.01,-361.377"/>
<polygon fill="midnightblue" stroke="midnightblue" points="1308.3,-364.06 1314.76,-355.658 1304.47,-358.201 1308.3,-364.06"/>
</g>
<!-- Node28 -->
<g id="node28" class="node"><title>Node28</title>
<polygon fill="white" stroke="#bfbfbf" points="1389.5,-224.5 1389.5,-243.5 1508.5,-243.5 1508.5,-224.5 1389.5,-224.5"/>
<text text-anchor="middle" x="1449" y="-231.5" font-family="Helvetica,sans-Serif" font-size="10.00">xercesc/dom/DOM.hpp</text>
</g>
<!-- Node25&#45;&gt;Node28 -->
<g id="edge56" class="edge"><title>Node25&#45;&gt;Node28</title>
<path fill="none" stroke="midnightblue" d="M1303.56,-399.336C1336.06,-392.761 1373.72,-380.156 1400,-356 1429.93,-328.491 1441.98,-280.126 1446.5,-253.638"/>
<polygon fill="midnightblue" stroke="midnightblue" points="1449.96,-254.164 1448.01,-243.75 1443.04,-253.107 1449.96,-254.164"/>
</g>
<!-- Node29 -->
<g id="node29" class="node"><title>Node29</title>
<g id="a_node29"><a xlink:href="_i_o_processor_8h.html" target="_top" xlink:title="uscxml/plugins/IOProcessor.h">
<polygon fill="white" stroke="black" points="997.5,-336.5 997.5,-355.5 1146.5,-355.5 1146.5,-336.5 997.5,-336.5"/>
<text text-anchor="middle" x="1072" y="-343.5" font-family="Helvetica,sans-Serif" font-size="10.00">uscxml/plugins/IOProcessor.h</text>
</a>
</g>
</g>
<!-- Node25&#45;&gt;Node29 -->
<g id="edge52" class="edge"><title>Node25&#45;&gt;Node29</title>
<path fill="none" stroke="midnightblue" d="M1197.9,-392.399C1169.84,-382.283 1132.43,-368.791 1105.69,-359.149"/>
<polygon fill="midnightblue" stroke="midnightblue" points="1106.6,-355.758 1096.01,-355.658 1104.23,-362.343 1106.6,-355.758"/>
</g>
<!-- Node26&#45;&gt;Node2 -->
<g id="edge43" class="edge"><title>Node26&#45;&gt;Node2</title>
<path fill="none" stroke="midnightblue" d="M1326.62,-336.479C1323.68,-316.275 1318.19,-264.149 1332,-224 1350.86,-169.149 1434.03,-158.236 1399,-112 1386.63,-95.673 1338.77,-83.6154 1298.59,-76.1131"/>
<polygon fill="midnightblue" stroke="midnightblue" points="1299.03,-72.6358 1288.57,-74.304 1297.79,-79.5245 1299.03,-72.6358"/>
</g>
<!-- Node26&#45;&gt;Node6 -->
<g id="edge50" class="edge"><title>Node26&#45;&gt;Node6</title>
<path fill="none" stroke="midnightblue" d="M1264.69,-340.183C1175.06,-332.86 1015.94,-317.875 961,-300 924.683,-288.184 886.773,-264.748 864.284,-249.483"/>
<polygon fill="midnightblue" stroke="midnightblue" points="866.127,-246.502 855.912,-243.691 862.144,-252.259 866.127,-246.502"/>
</g>
<!-- Node26&#45;&gt;Node11 -->
<g id="edge42" class="edge"><title>Node26&#45;&gt;Node11</title>
<path fill="none" stroke="midnightblue" d="M1320.33,-336.459C1313.22,-327.927 1303.15,-314.088 1299,-300 1289.46,-267.596 1291.44,-256.92 1299,-224 1306.21,-192.639 1324.5,-159.719 1336.58,-140.296"/>
<polygon fill="midnightblue" stroke="midnightblue" points="1339.65,-141.99 1342.09,-131.679 1333.75,-138.22 1339.65,-141.99"/>
</g>
<!-- Node27 -->
<g id="node27" class="node"><title>Node27</title>
<g id="a_node27"><a xlink:href="_event_handler_8h.html" target="_top" xlink:title="uscxml/plugins/EventHandler.h">
<polygon fill="white" stroke="black" points="970,-280.5 970,-299.5 1124,-299.5 1124,-280.5 970,-280.5"/>
<text text-anchor="middle" x="1047" y="-287.5" font-family="Helvetica,sans-Serif" font-size="10.00">uscxml/plugins/EventHandler.h</text>
</a>
</g>
</g>
<!-- Node26&#45;&gt;Node27 -->
<g id="edge44" class="edge"><title>Node26&#45;&gt;Node27</title>
<path fill="none" stroke="midnightblue" d="M1283.47,-336.444C1234.04,-326.944 1154.25,-311.611 1101.22,-301.42"/>
<polygon fill="midnightblue" stroke="midnightblue" points="1101.8,-297.967 1091.32,-299.516 1100.48,-304.841 1101.8,-297.967"/>
</g>
<!-- Node26&#45;&gt;Node28 -->
<g id="edge51" class="edge"><title>Node26&#45;&gt;Node28</title>
<path fill="none" stroke="midnightblue" d="M1337.49,-336.368C1357.9,-317.814 1406.2,-273.913 1432.02,-250.438"/>
<polygon fill="midnightblue" stroke="midnightblue" points="1434.5,-252.908 1439.55,-243.591 1429.8,-247.728 1434.5,-252.908"/>
</g>
<!-- Node27&#45;&gt;Node2 -->
<g id="edge45" class="edge"><title>Node27&#45;&gt;Node2</title>
<path fill="none" stroke="midnightblue" d="M1053.38,-280.434C1071.74,-255.917 1124.81,-186.071 1147,-168 1173.51,-146.404 1192.48,-157.736 1215,-132 1226.5,-118.856 1232.68,-99.7137 1235.87,-85.6049"/>
<polygon fill="midnightblue" stroke="midnightblue" points="1239.34,-86.066 1237.83,-75.5796 1232.47,-84.72 1239.34,-86.066"/>
</g>
<!-- Node27&#45;&gt;Node6 -->
<g id="edge46" class="edge"><title>Node27&#45;&gt;Node6</title>
<path fill="none" stroke="midnightblue" d="M1014.83,-280.444C979.941,-271.162 924.107,-256.309 885.829,-246.127"/>
<polygon fill="midnightblue" stroke="midnightblue" points="886.579,-242.705 876.015,-243.516 884.78,-249.47 886.579,-242.705"/>
</g>
<!-- Node27&#45;&gt;Node8 -->
<g id="edge47" class="edge"><title>Node27&#45;&gt;Node8</title>
<path fill="none" stroke="midnightblue" d="M1031.21,-280.407C1002.21,-264.73 941.428,-232.335 919,-224 856.354,-200.719 836.476,-208.914 773,-188 751.05,-180.768 746.933,-175.285 725,-168 662.803,-147.34 645.098,-149.719 582,-132 580.541,-131.59 579.044,-131.159 577.535,-130.716"/>
<polygon fill="midnightblue" stroke="midnightblue" points="578.293,-127.288 567.707,-127.734 576.26,-133.987 578.293,-127.288"/>
</g>
<!-- Node27&#45;&gt;Node10 -->
<g id="edge49" class="edge"><title>Node27&#45;&gt;Node10</title>
<path fill="none" stroke="midnightblue" d="M1050.2,-280.358C1059.35,-254.4 1083.9,-175.025 1067,-112 1064.35,-102.103 1058.93,-92.1315 1053.73,-84.099"/>
<polygon fill="midnightblue" stroke="midnightblue" points="1056.46,-81.9055 1047.89,-75.6811 1050.71,-85.8935 1056.46,-81.9055"/>
</g>
<!-- Node27&#45;&gt;Node13 -->
<g id="edge48" class="edge"><title>Node27&#45;&gt;Node13</title>
<path fill="none" stroke="midnightblue" d="M1037.09,-280.414C1020.79,-266.694 986.852,-239.772 954,-224 874.252,-185.713 848.446,-190.905 763,-168 697.613,-150.472 663.951,-178.76 615,-132 602.523,-120.081 598.107,-100.465 596.611,-85.894"/>
<polygon fill="midnightblue" stroke="midnightblue" points="600.079,-85.2861 595.938,-75.5339 593.093,-85.7397 600.079,-85.2861"/>
</g>
<!-- Node29&#45;&gt;Node2 -->
<g id="edge53" class="edge"><title>Node29&#45;&gt;Node2</title>
<path fill="none" stroke="midnightblue" d="M1086.81,-336.372C1100,-328.182 1119.3,-314.931 1133,-300 1192.22,-235.477 1210.28,-215.721 1236,-132 1240.62,-116.966 1241.1,-99.0606 1240.58,-85.8527"/>
<polygon fill="midnightblue" stroke="midnightblue" points="1244.06,-85.4079 1239.94,-75.6455 1237.07,-85.8442 1244.06,-85.4079"/>
</g>
<!-- Node29&#45;&gt;Node6 -->
<g id="edge55" class="edge"><title>Node29&#45;&gt;Node6</title>
<path fill="none" stroke="midnightblue" d="M998.938,-336.495C966.158,-330.159 928.168,-319.138 898,-300 879.098,-288.009 863.545,-267.222 854.064,-252.383"/>
<polygon fill="midnightblue" stroke="midnightblue" points="856.93,-250.36 848.736,-243.643 850.953,-254.003 856.93,-250.36"/>
</g>
<!-- Node29&#45;&gt;Node27 -->
<g id="edge54" class="edge"><title>Node29&#45;&gt;Node27</title>
<path fill="none" stroke="midnightblue" d="M1067.87,-336.083C1064.49,-328.77 1059.58,-318.181 1055.38,-309.103"/>
<polygon fill="midnightblue" stroke="midnightblue" points="1058.43,-307.355 1051.05,-299.751 1052.08,-310.296 1058.43,-307.355"/>
</g>
<!-- Node31&#45;&gt;Node2 -->
<g id="edge69" class="edge"><title>Node31&#45;&gt;Node2</title>
<path fill="none" stroke="midnightblue" d="M1576.72,-280.443C1578.89,-267.454 1581.3,-242.337 1572,-224 1536.12,-153.242 1504.33,-146.729 1433,-112 1390.68,-91.3942 1338.5,-79.9781 1298.92,-73.8051"/>
<polygon fill="midnightblue" stroke="midnightblue" points="1299.29,-70.3219 1288.89,-72.3096 1298.26,-77.2455 1299.29,-70.3219"/>
</g>
<!-- Node31&#45;&gt;Node8 -->
<g id="edge66" class="edge"><title>Node31&#45;&gt;Node8</title>
<path fill="none" stroke="midnightblue" d="M1570.32,-280.293C1561.88,-265.618 1542.61,-236.353 1517,-224 1389.7,-162.594 1022.22,-205.74 882,-188 822.086,-180.42 643.229,-142.441 577.545,-128.309"/>
<polygon fill="midnightblue" stroke="midnightblue" points="578.18,-124.865 567.667,-126.179 576.705,-131.708 578.18,-124.865"/>
</g>
<!-- Node31&#45;&gt;Node11 -->
<g id="edge68" class="edge"><title>Node31&#45;&gt;Node11</title>
<path fill="none" stroke="midnightblue" d="M1573.88,-280.376C1571.71,-266.845 1565.78,-240.473 1551,-224 1508.13,-176.237 1437.53,-148.346 1391.91,-134.388"/>
<polygon fill="midnightblue" stroke="midnightblue" points="1392.87,-131.023 1382.29,-131.538 1390.88,-137.734 1392.87,-131.023"/>
</g>
<!-- Node31&#45;&gt;Node18 -->
<g id="edge65" class="edge"><title>Node31&#45;&gt;Node18</title>
<path fill="none" stroke="midnightblue" d="M1530.42,-280.459C1492.79,-272.859 1437.37,-260.758 1380.93,-243.978"/>
<polygon fill="midnightblue" stroke="midnightblue" points="1381.72,-240.559 1371.13,-241.019 1379.69,-247.26 1381.72,-240.559"/>
</g>
<!-- Node31&#45;&gt;Node28 -->
<g id="edge71" class="edge"><title>Node31&#45;&gt;Node28</title>
<path fill="none" stroke="midnightblue" d="M1555.03,-280.444C1534.39,-271.596 1501.94,-257.687 1478.37,-247.586"/>
<polygon fill="midnightblue" stroke="midnightblue" points="1479.44,-244.239 1468.87,-243.516 1476.68,-250.673 1479.44,-244.239"/>
</g>
<!-- Node32 -->
<g id="node32" class="node"><title>Node32</title>
<polygon fill="white" stroke="#bfbfbf" points="1641.5,-224.5 1641.5,-243.5 1696.5,-243.5 1696.5,-224.5 1641.5,-224.5"/>
<text text-anchor="middle" x="1669" y="-231.5" font-family="Helvetica,sans-Serif" font-size="10.00">iostream</text>
</g>
<!-- Node31&#45;&gt;Node32 -->
<g id="edge67" class="edge"><title>Node31&#45;&gt;Node32</title>
<path fill="none" stroke="midnightblue" d="M1590.1,-280.324C1604.9,-271.822 1627.69,-258.729 1644.98,-248.797"/>
<polygon fill="midnightblue" stroke="midnightblue" points="1647.01,-251.671 1653.93,-243.655 1643.52,-245.601 1647.01,-251.671"/>
</g>
<!-- Node33 -->
<g id="node33" class="node"><title>Node33</title>
<polygon fill="white" stroke="#bfbfbf" points="1714.5,-224.5 1714.5,-243.5 1849.5,-243.5 1849.5,-224.5 1714.5,-224.5"/>
<text text-anchor="middle" x="1782" y="-231.5" font-family="Helvetica,sans-Serif" font-size="10.00">xercesc/util/XMLString.hpp</text>
</g>
<!-- Node31&#45;&gt;Node33 -->
<g id="edge70" class="edge"><title>Node31&#45;&gt;Node33</title>
<path fill="none" stroke="midnightblue" d="M1607.8,-280.444C1643.38,-271.162 1700.31,-256.309 1739.35,-246.127"/>
<polygon fill="midnightblue" stroke="midnightblue" points="1740.56,-249.427 1749.35,-243.516 1738.79,-242.654 1740.56,-249.427"/>
</g>
</g>
</svg>
        <g id="navigator" transform="translate(0 0)" fill="#404254">
                <rect fill="#f2f5e9" fill-opacity="0.5" stroke="#606060" stroke-width=".5" x="0" y="0" width="60" height="60"/>
                <use id="zoomplus" xlink:href="#zoomPlus" x="17" y="9" onmousedown="handleZoom(evt,'in')"/>
                <use id="zoomminus" xlink:href="#zoomMin" x="42" y="9" onmousedown="handleZoom(evt,'out')"/>
                <use id="reset" xlink:href="#resetDef" x="30" y="36" onmousedown="handleReset()"/>
                <g id="arrowUp" xlink:href="#dirArrow" transform="translate(30 24)" onmousedown="handlePan(0,-1)">
                  <use xlink:href="#rim" fill="#404040">
                        <set attributeName="fill" to="#808080" begin="arrowUp.mouseover" end="arrowUp.mouseout"/>
                  </use>
                  <path fill="none" stroke="white" stroke-width="1.5" d="M0,-3.0v7 M-2.5,-0.5L0,-3.0L2.5,-0.5"/>
                </g>
                <g id="arrowRight" xlink:href="#dirArrow" transform="rotate(90) translate(36 -43)" onmousedown="handlePan(1,0)">
                  <use xlink:href="#rim" fill="#404040">
                        <set attributeName="fill" to="#808080" begin="arrowRight.mouseover" end="arrowRight.mouseout"/>
                  </use>
                  <path fill="none" stroke="white" stroke-width="1.5" d="M0,-3.0v7 M-2.5,-0.5L0,-3.0L2.5,-0.5"/>
                </g>
                <g id="arrowDown" xlink:href="#dirArrow" transform="rotate(180) translate(-30 -48)" onmousedown="handlePan(0,1)">
                  <use xlink:href="#rim" fill="#404040">
                        <set attributeName="fill" to="#808080" begin="arrowDown.mouseover" end="arrowDown.mouseout"/>
                  </use>
                  <path fill="none" stroke="white" stroke-width="1.5" d="M0,-3.0v7 M-2.5,-0.5L0,-3.0L2.5,-0.5"/>
                </g>
                <g id="arrowLeft" xlink:href="#dirArrow" transform="rotate(270) translate(-36 17)" onmousedown="handlePan(-1,0)">
                  <use xlink:href="#rim" fill="#404040">
                        <set attributeName="fill" to="#808080" begin="arrowLeft.mouseover" end="arrowLeft.mouseout"/>
                  </use>
                  <path fill="none" stroke="white" stroke-width="1.5" d="M0,-3.0v7 M-2.5,-0.5L0,-3.0L2.5,-0.5"/>
                </g>
        </g>
        <svg viewBox="0 0 15 15" width="100%" height="30px" preserveAspectRatio="xMaxYMin meet">
         <g id="arrow_out" transform="scale(0.3 0.3)">
          <a xlink:href="_v8_data_model_8cpp__incl_org.svg" target="_base">
           <rect id="button" ry="5" rx="5" y="6" x="6" height="38" width="38"
                fill="#f2f5e9" fill-opacity="0.5" stroke="#606060" stroke-width="1.0"/>
           <path id="arrow"
             d="M 11.500037,31.436501 C 11.940474,20.09759 22.043105,11.32322 32.158766,21.979434 L 37.068811,17.246167 C 37.068811,17.246167 37.088388,32 37.088388,32 L 22.160133,31.978069 C 22.160133,31.978069 26.997745,27.140456 26.997745,27.140456 C 18.528582,18.264221 13.291696,25.230495 11.500037,31.436501 z"
             style="fill:#404040;"/>
          </a>
         </g>
        </svg>
</svg>
