<?xml version="1.0" encoding="UTF-8" standalone="no"?>
<!DOCTYPE svg PUBLIC "-//W3C//DTD SVG 1.1//EN"
 "http://www.w3.org/Graphics/SVG/1.1/DTD/svg11.dtd">
<!-- Generated by graphviz version 2.38.0 (20140413.2041)
 -->
<!-- Title: uscxml::DataModelImpl Pages: 1 -->
<svg width="303pt" height="218pt"
 viewBox="0.00 0.00 303.00 218.00" xmlns="http://www.w3.org/2000/svg" xmlns:xlink="http://www.w3.org/1999/xlink">
<g id="graph0" class="graph" transform="scale(1 1) rotate(0) translate(4 214)">
<title>uscxml::DataModelImpl</title>
<polygon fill="white" stroke="none" points="-4,4 -4,-214 299,-214 299,4 -4,4"/>
<!-- Node1 -->
<g id="node1" class="node"><title>Node1</title>
<polygon fill="#bfbfbf" stroke="black" points="0,-95.5 0,-114.5 120,-114.5 120,-95.5 0,-95.5"/>
<text text-anchor="middle" x="60" y="-102.5" font-family="Helvetica,sans-Serif" font-size="10.00">uscxml::DataModelImpl</text>
</g>
<!-- Node2 -->
<g id="node2" class="node"><title>Node2</title>
<g id="a_node2"><a xlink:href="classuscxml_1_1_c89_data_model.html" target="_top" xlink:title="C89 (ANSI&#45;C) data&#45;model. ">
<polygon fill="white" stroke="black" points="165.5,-190.5 165.5,-209.5 285.5,-209.5 285.5,-190.5 165.5,-190.5"/>
<text text-anchor="middle" x="225.5" y="-197.5" font-family="Helvetica,sans-Serif" font-size="10.00">uscxml::C89DataModel</text>
</a>
</g>
</g>
<!-- Node1&#45;&gt;Node2 -->
<g id="edge1" class="edge"><title>Node1&#45;&gt;Node2</title>
<path fill="none" stroke="midnightblue" d="M77.6424,-121.863C95.5235,-139.073 125.504,-165.407 156,-181 163.472,-184.821 171.808,-187.952 180.021,-190.491"/>
<polygon fill="midnightblue" stroke="midnightblue" points="79.9061,-119.18 70.3198,-114.668 75.0004,-124.173 79.9061,-119.18"/>
</g>
<!-- Node3 -->
<g id="node3" class="node"><title>Node3</title>
<g id="a_node3"><a xlink:href="classuscxml_1_1_j_s_c_data_model.html" target="_top" xlink:title="ECMAScript data&#45;model via JavaScriptCore. ">
<polygon fill="white" stroke="black" points="165.5,-152.5 165.5,-171.5 285.5,-171.5 285.5,-152.5 165.5,-152.5"/>
<text text-anchor="middle" x="225.5" y="-159.5" font-family="Helvetica,sans-Serif" font-size="10.00">uscxml::JSCDataModel</text>
</a>
</g>
</g>
<!-- Node1&#45;&gt;Node3 -->
<g id="edge2" class="edge"><title>Node1&#45;&gt;Node3</title>
<path fill="none" stroke="midnightblue" d="M92.3443,-118.547C110.708,-126.229 134.457,-135.728 156,-143 166.056,-146.394 177.086,-149.652 187.301,-152.483"/>
<polygon fill="midnightblue" stroke="midnightblue" points="93.5828,-115.271 83.0089,-114.605 90.8596,-121.719 93.5828,-115.271"/>
</g>
<!-- Node4 -->
<g id="node4" class="node"><title>Node4</title>
<g id="a_node4"><a xlink:href="classuscxml_1_1_lua_data_model.html" target="_top" xlink:title="Lua data&#45;model. ">
<polygon fill="white" stroke="black" points="166.5,-114.5 166.5,-133.5 284.5,-133.5 284.5,-114.5 166.5,-114.5"/>
<text text-anchor="middle" x="225.5" y="-121.5" font-family="Helvetica,sans-Serif" font-size="10.00">uscxml::LuaDataModel</text>
</a>
</g>
</g>
<!-- Node1&#45;&gt;Node4 -->
<g id="edge3" class="edge"><title>Node1&#45;&gt;Node4</title>
<path fill="none" stroke="midnightblue" d="M130.069,-113.026C142.158,-114.431 154.626,-115.88 166.381,-117.246"/>
<polygon fill="midnightblue" stroke="midnightblue" points="130.364,-109.537 120.027,-111.859 129.556,-116.49 130.364,-109.537"/>
</g>
<!-- Node5 -->
<g id="node5" class="node"><title>Node5</title>
<g id="a_node5"><a xlink:href="classuscxml_1_1_n_u_l_l_data_model.html" target="_top" xlink:title="NULL data&#45;model. ">
<polygon fill="white" stroke="black" points="162,-76.5 162,-95.5 289,-95.5 289,-76.5 162,-76.5"/>
<text text-anchor="middle" x="225.5" y="-83.5" font-family="Helvetica,sans-Serif" font-size="10.00">uscxml::NULLDataModel</text>
</a>
</g>
</g>
<!-- Node1&#45;&gt;Node5 -->
<g id="edge4" class="edge"><title>Node1&#45;&gt;Node5</title>
<path fill="none" stroke="midnightblue" d="M130.067,-96.9739C140.656,-95.7433 151.536,-94.479 161.973,-93.2661"/>
<polygon fill="midnightblue" stroke="midnightblue" points="129.556,-93.5096 120.027,-98.1406 130.364,-100.463 129.556,-93.5096"/>
</g>
<!-- Node6 -->
<g id="node6" class="node"><title>Node6</title>
<g id="a_node6"><a xlink:href="classuscxml_1_1_promela_data_model.html" target="_top" xlink:title="uscxml::PromelaDataModel">
<polygon fill="white" stroke="black" points="156,-38.5 156,-57.5 295,-57.5 295,-38.5 156,-38.5"/>
<text text-anchor="middle" x="225.5" y="-45.5" font-family="Helvetica,sans-Serif" font-size="10.00">uscxml::PromelaDataModel</text>
</a>
</g>
</g>
<!-- Node1&#45;&gt;Node6 -->
<g id="edge5" class="edge"><title>Node1&#45;&gt;Node6</title>
<path fill="none" stroke="midnightblue" d="M92.3443,-91.4532C110.708,-83.7713 134.457,-74.2716 156,-67 166.056,-63.6056 177.086,-60.3476 187.301,-57.5174"/>
<polygon fill="midnightblue" stroke="midnightblue" points="90.8596,-88.2808 83.0089,-95.3954 93.5828,-94.7294 90.8596,-88.2808"/>
</g>
<!-- Node7 -->
<g id="node7" class="node"><title>Node7</title>
<g id="a_node7"><a xlink:href="classuscxml_1_1_v8_data_model.html" target="_top" xlink:title="ECMAScript data&#45;model via Google&#39;s V8. ">
<polygon fill="white" stroke="black" points="168.5,-0.5 168.5,-19.5 282.5,-19.5 282.5,-0.5 168.5,-0.5"/>
<text text-anchor="middle" x="225.5" y="-7.5" font-family="Helvetica,sans-Serif" font-size="10.00">uscxml::V8DataModel</text>
</a>
</g>
</g>
<!-- Node1&#45;&gt;Node7 -->
<g id="edge6" class="edge"><title>Node1&#45;&gt;Node7</title>
<path fill="none" stroke="midnightblue" d="M77.6424,-88.1375C95.5235,-70.9271 125.504,-44.593 156,-29 163.472,-25.1795 171.808,-22.048 180.021,-19.5091"/>
<polygon fill="midnightblue" stroke="midnightblue" points="75.0004,-85.8266 70.3198,-95.3316 79.9061,-90.82 75.0004,-85.8266"/>
</g>
</g>
</svg>
