<?xml version="1.0" encoding="UTF-8" standalone="no"?>
<!DOCTYPE svg PUBLIC "-//W3C//DTD SVG 1.1//EN"
 "http://www.w3.org/Graphics/SVG/1.1/DTD/svg11.dtd">
<!-- Generated by graphviz version 2.38.0 (20140413.2041)
 -->
<!-- Title: uscxml::ChartToC Pages: 1 -->
<svg width="306pt" height="154pt"
 viewBox="0.00 0.00 306.00 154.00" xmlns="http://www.w3.org/2000/svg" xmlns:xlink="http://www.w3.org/1999/xlink">
<g id="graph0" class="graph" transform="scale(1 1) rotate(0) translate(4 150)">
<title>uscxml::ChartToC</title>
<polygon fill="white" stroke="none" points="-4,4 -4,-150 302,-150 302,4 -4,4"/>
<!-- Node1 -->
<g id="node1" class="node"><title>Node1</title>
<polygon fill="#bfbfbf" stroke="black" points="101,-1.5 101,-20.5 198,-20.5 198,-1.5 101,-1.5"/>
<text text-anchor="middle" x="149.5" y="-8.5" font-family="Helvetica,sans-Serif" font-size="10.00">uscxml::ChartToC</text>
</g>
<!-- Node1&#45;&gt;Node1 -->
<g id="edge4" class="edge"><title>Node1&#45;&gt;Node1</title>
<path fill="none" stroke="#9a32cd" stroke-dasharray="5,2" d="M208.38,-15.0033C213.087,-14.1289 216,-12.7944 216,-11 216,-8.12891 208.542,-6.43541 198.214,-5.91951"/>
<polygon fill="#9a32cd" stroke="#9a32cd" points="207.79,-11.5462 198.214,-16.0805 208.527,-18.5072 207.79,-11.5462"/>
<text text-anchor="middle" x="257" y="-14" font-family="Helvetica,sans-Serif" font-size="10.00"> _topMostMachine</text>
<text text-anchor="middle" x="257" y="-3" font-family="Helvetica,sans-Serif" font-size="10.00">_parentMachine</text>
</g>
<!-- Node2 -->
<g id="node2" class="node"><title>Node2</title>
<g id="a_node2"><a xlink:href="classuscxml_1_1_transformer_impl.html" target="_top" xlink:title="uscxml::TransformerImpl">
<polygon fill="white" stroke="black" points="11,-59.5 11,-78.5 138,-78.5 138,-59.5 11,-59.5"/>
<text text-anchor="middle" x="74.5" y="-66.5" font-family="Helvetica,sans-Serif" font-size="10.00">uscxml::TransformerImpl</text>
</a>
</g>
</g>
<!-- Node2&#45;&gt;Node1 -->
<g id="edge1" class="edge"><title>Node2&#45;&gt;Node1</title>
<path fill="none" stroke="midnightblue" d="M93.9265,-53.4949C107.905,-43.0575 126.287,-29.3321 138.002,-20.5852"/>
<polygon fill="midnightblue" stroke="midnightblue" points="91.8097,-50.7074 85.8909,-59.4948 95.9977,-56.3164 91.8097,-50.7074"/>
</g>
<!-- Node3 -->
<g id="node3" class="node"><title>Node3</title>
<g id="a_node3"><a xlink:href="classuscxml_1_1_u_r_l.html" target="_top" xlink:title="uscxml::URL">
<polygon fill="white" stroke="black" points="0,-126.5 0,-145.5 73,-145.5 73,-126.5 0,-126.5"/>
<text text-anchor="middle" x="36.5" y="-133.5" font-family="Helvetica,sans-Serif" font-size="10.00">uscxml::URL</text>
</a>
</g>
</g>
<!-- Node3&#45;&gt;Node2 -->
<g id="edge2" class="edge"><title>Node3&#45;&gt;Node2</title>
<path fill="none" stroke="#9a32cd" stroke-dasharray="5,2" d="M33.7363,-115.89C33.6519,-109.567 34.5096,-102.697 37.5,-97 41.6392,-89.114 49.2386,-82.9602 56.4783,-78.5325"/>
<polygon fill="#9a32cd" stroke="#9a32cd" points="30.2895,-116.651 34.6483,-126.308 37.2628,-116.041 30.2895,-116.651"/>
<text text-anchor="middle" x="63" y="-100" font-family="Helvetica,sans-Serif" font-size="10.00"> _baseURL</text>
</g>
<!-- Node4 -->
<g id="node4" class="node"><title>Node4</title>
<g id="a_node4"><a xlink:href="classuscxml_1_1_interpreter.html" target="_top" xlink:title="Central class to interpret and process SCXML documents. ">
<polygon fill="white" stroke="black" points="108,-126.5 108,-145.5 207,-145.5 207,-126.5 108,-126.5"/>
<text text-anchor="middle" x="157.5" y="-133.5" font-family="Helvetica,sans-Serif" font-size="10.00">uscxml::Interpreter</text>
</a>
</g>
</g>
<!-- Node4&#45;&gt;Node1 -->
<g id="edge5" class="edge"><title>Node4&#45;&gt;Node1</title>
<path fill="none" stroke="#9a32cd" stroke-dasharray="5,2" d="M159.893,-115.847C160.144,-113.214 160.359,-110.543 160.5,-108 162.29,-75.6724 155.129,-37.5248 151.496,-20.7068"/>
<polygon fill="#9a32cd" stroke="#9a32cd" points="156.388,-115.692 158.75,-126.021 163.344,-116.474 156.388,-115.692"/>
<text text-anchor="middle" x="185" y="-66.5" font-family="Helvetica,sans-Serif" font-size="10.00"> interpreter</text>
</g>
<!-- Node4&#45;&gt;Node2 -->
<g id="edge3" class="edge"><title>Node4&#45;&gt;Node2</title>
<path fill="none" stroke="#9a32cd" stroke-dasharray="5,2" d="M131.369,-121.294C124.658,-117.341 117.613,-112.791 111.5,-108 100.194,-99.1391 88.9279,-86.9666 81.8511,-78.8089"/>
<polygon fill="#9a32cd" stroke="#9a32cd" points="129.765,-124.407 140.193,-126.28 133.208,-118.313 129.765,-124.407"/>
<text text-anchor="middle" x="136" y="-100" font-family="Helvetica,sans-Serif" font-size="10.00"> interpreter</text>
</g>
</g>
</svg>
