<?xml version="1.0" encoding="UTF-8" standalone="no"?>
<!DOCTYPE svg PUBLIC "-//W3C//DTD SVG 1.1//EN"
 "http://www.w3.org/Graphics/SVG/1.1/DTD/svg11.dtd">
<!-- Generated by graphviz version 2.38.0 (20140413.2041)
 -->
<!-- Title: uscxml::BasicHTTPIOProcessor Pages: 1 -->
<!--zoomable 610 -->
<svg id="main" version="1.1" xmlns="http://www.w3.org/2000/svg" xmlns:xlink="http://www.w3.org/1999/xlink" xml:space="preserve" onload="init(evt)">
<style type="text/css"><![CDATA[
.edge:hover path { stroke: red; }
.edge:hover polygon { stroke: red; fill: red; }
]]></style>
<script type="text/javascript"><![CDATA[
var edges = document.getElementsByTagName('g');
if (edges && edges.length) {
  for (var i=0;i<edges.length;i++) {
    if (edges[i].id.substr(0,4)=='edge') {
      edges[i].setAttribute('class','edge');
    }
  }
}
]]></script>
        <defs>
                <circle id="rim" cx="0" cy="0" r="7"/>
                <circle id="rim2" cx="0" cy="0" r="3.5"/>
                <g id="zoomPlus">
                        <use xlink:href="#rim" fill="#404040">
                                <set attributeName="fill" to="#808080" begin="zoomplus.mouseover" end="zoomplus.mouseout"/>
                        </use>
                        <path d="M-4,0h8M0,-4v8" fill="none" stroke="white" stroke-width="1.5" pointer-events="none"/>
                </g>
                <g id="zoomMin">
                        <use xlink:href="#rim" fill="#404040">
                                <set attributeName="fill" to="#808080" begin="zoomminus.mouseover" end="zoomminus.mouseout"/>
                        </use>
                        <path d="M-4,0h8" fill="none" stroke="white" stroke-width="1.5" pointer-events="none"/>
                </g>
                <g id="dirArrow">
                        <path fill="none" stroke="white" stroke-width="1.5" d="M0,-3.0v7 M-2.5,-0.5L0,-3.0L2.5,-0.5"/>
                </g>
               <g id="resetDef">
                       <use xlink:href="#rim2" fill="#404040">
                               <set attributeName="fill" to="#808080" begin="reset.mouseover" end="reset.mouseout"/>
                       </use>
               </g>
        </defs>

<script type="text/javascript">
var viewWidth = 1293;
var viewHeight = 610;
var sectionId = 'dynsection-1';
</script>
<script xlink:href="svgpan.js"/>
<svg id="graph" class="graph">
<g id="viewport">
<title>uscxml::BasicHTTPIOProcessor</title>
<polygon fill="white" stroke="none" points="-4,4 -4,-606 1289,-606 1289,4 -4,4"/>
<!-- Node1 -->
<g id="node1" class="node"><title>Node1</title>
<polygon fill="#bfbfbf" stroke="black" points="1126,-254.5 1126,-273.5 1285,-273.5 1285,-254.5 1126,-254.5"/>
<text text-anchor="middle" x="1205.5" y="-261.5" font-family="Helvetica,sans-Serif" font-size="10.00">uscxml::BasicHTTPIOProcessor</text>
</g>
<!-- Node2 -->
<g id="node2" class="node"><title>Node2</title>
<g id="a_node2"><a xlink:href="classuscxml_1_1_i_o_processor_impl.html" target="_top" xlink:title="Abstract base class for IOProcessors implementations. ">
<polygon fill="white" stroke="black" points="961,-292.5 961,-311.5 1089,-311.5 1089,-292.5 961,-292.5"/>
<text text-anchor="middle" x="1025" y="-299.5" font-family="Helvetica,sans-Serif" font-size="10.00">uscxml::IOProcessorImpl</text>
</a>
</g>
</g>
<!-- Node2&#45;&gt;Node1 -->
<g id="edge1" class="edge"><title>Node2&#45;&gt;Node1</title>
<path fill="none" stroke="midnightblue" d="M1080.87,-290.319C1106.18,-284.93 1135.85,-278.614 1159.78,-273.52"/>
<polygon fill="midnightblue" stroke="midnightblue" points="1080.1,-286.905 1071.04,-292.411 1081.55,-293.752 1080.1,-286.905"/>
</g>
<!-- Node3 -->
<g id="node3" class="node"><title>Node3</title>
<g id="a_node3"><a xlink:href="classuscxml_1_1_event_handler_impl.html" target="_top" xlink:title="Common base class for invokers and i/o processors. ">
<polygon fill="white" stroke="black" points="791,-292.5 791,-311.5 924,-311.5 924,-292.5 791,-292.5"/>
<text text-anchor="middle" x="857.5" y="-299.5" font-family="Helvetica,sans-Serif" font-size="10.00">uscxml::EventHandlerImpl</text>
</a>
</g>
</g>
<!-- Node3&#45;&gt;Node2 -->
<g id="edge2" class="edge"><title>Node3&#45;&gt;Node2</title>
<path fill="none" stroke="midnightblue" d="M934.594,-302C943.35,-302 952.206,-302 960.767,-302"/>
<polygon fill="midnightblue" stroke="midnightblue" points="934.386,-298.5 924.386,-302 934.385,-305.5 934.386,-298.5"/>
</g>
<!-- Node4 -->
<g id="node4" class="node"><title>Node4</title>
<g id="a_node4"><a xlink:href="classuscxml_1_1_interpreter_impl.html" target="_top" xlink:title="uscxml::InterpreterImpl">
<polygon fill="white" stroke="black" points="583,-292.5 583,-311.5 701,-311.5 701,-292.5 583,-292.5"/>
<text text-anchor="middle" x="642" y="-299.5" font-family="Helvetica,sans-Serif" font-size="10.00">uscxml::InterpreterImpl</text>
</a>
</g>
</g>
<!-- Node4&#45;&gt;Node3 -->
<g id="edge3" class="edge"><title>Node4&#45;&gt;Node3</title>
<path fill="none" stroke="#9a32cd" stroke-dasharray="5,2" d="M711.379,-302C736.857,-302 765.699,-302 790.92,-302"/>
<polygon fill="#9a32cd" stroke="#9a32cd" points="711.058,-298.5 701.058,-302 711.058,-305.5 711.058,-298.5"/>
<text text-anchor="middle" x="746" y="-305" font-family="Helvetica,sans-Serif" font-size="10.00"> _interpreter</text>
</g>
<!-- Node5 -->
<g id="node5" class="node"><title>Node5</title>
<g id="a_node5"><a xlink:href="classuscxml_1_1_micro_step_callbacks.html" target="_top" xlink:title="uscxml::MicroStepCallbacks">
<polygon fill="white" stroke="black" points="322.5,-582.5 322.5,-601.5 464.5,-601.5 464.5,-582.5 322.5,-582.5"/>
<text text-anchor="middle" x="393.5" y="-589.5" font-family="Helvetica,sans-Serif" font-size="10.00">uscxml::MicroStepCallbacks</text>
</a>
</g>
</g>
<!-- Node5&#45;&gt;Node4 -->
<g id="edge4" class="edge"><title>Node5&#45;&gt;Node4</title>
<path fill="none" stroke="midnightblue" d="M468.095,-579.893C502.36,-570.525 540.806,-554.011 565,-525 621.583,-457.149 636.788,-345.04 640.158,-311.662"/>
<polygon fill="midnightblue" stroke="midnightblue" points="466.902,-576.585 458.088,-582.463 468.644,-583.365 466.902,-576.585"/>
</g>
<!-- Node6 -->
<g id="node6" class="node"><title>Node6</title>
<g id="a_node6"><a xlink:href="classuscxml_1_1_data_model_callbacks.html" target="_top" xlink:title="Callbacks available for every data&#45;model. ">
<polygon fill="white" stroke="black" points="321,-544.5 321,-563.5 466,-563.5 466,-544.5 321,-544.5"/>
<text text-anchor="middle" x="393.5" y="-551.5" font-family="Helvetica,sans-Serif" font-size="10.00">uscxml::DataModelCallbacks</text>
</a>
</g>
</g>
<!-- Node6&#45;&gt;Node4 -->
<g id="edge5" class="edge"><title>Node6&#45;&gt;Node4</title>
<path fill="none" stroke="midnightblue" d="M468.036,-541.889C501.902,-532.729 540.022,-516.753 565,-489 614.7,-433.779 634.205,-341.775 639.441,-311.78"/>
<polygon fill="midnightblue" stroke="midnightblue" points="466.975,-538.548 458.148,-544.408 468.703,-545.331 466.975,-538.548"/>
</g>
<!-- Node7 -->
<g id="node7" class="node"><title>Node7</title>
<g id="a_node7"><a xlink:href="classuscxml_1_1_content_executor_callbacks.html" target="_top" xlink:title="uscxml::ContentExecutorCallbacks">
<polygon fill="white" stroke="black" points="308,-506.5 308,-525.5 479,-525.5 479,-506.5 308,-506.5"/>
<text text-anchor="middle" x="393.5" y="-513.5" font-family="Helvetica,sans-Serif" font-size="10.00">uscxml::ContentExecutorCallbacks</text>
</a>
</g>
</g>
<!-- Node7&#45;&gt;Node4 -->
<g id="edge6" class="edge"><title>Node7&#45;&gt;Node4</title>
<path fill="none" stroke="midnightblue" d="M467.207,-504.045C500.692,-495.221 538.729,-480.027 565,-454 608.386,-411.017 631.299,-338.165 638.481,-311.85"/>
<polygon fill="midnightblue" stroke="midnightblue" points="466.298,-500.665 457.44,-506.476 467.989,-507.457 466.298,-500.665"/>
</g>
<!-- Node8 -->
<g id="node8" class="node"><title>Node8</title>
<g id="a_node8"><a xlink:href="classuscxml_1_1_delayed_event_queue_callbacks.html" target="_top" xlink:title="uscxml::DelayedEventQueue\lCallbacks">
<polygon fill="white" stroke="black" points="321,-457 321,-487 466,-487 466,-457 321,-457"/>
<text text-anchor="start" x="329" y="-475" font-family="Helvetica,sans-Serif" font-size="10.00">uscxml::DelayedEventQueue</text>
<text text-anchor="middle" x="393.5" y="-464" font-family="Helvetica,sans-Serif" font-size="10.00">Callbacks</text>
</a>
</g>
</g>
<!-- Node8&#45;&gt;Node4 -->
<g id="edge7" class="edge"><title>Node8&#45;&gt;Node4</title>
<path fill="none" stroke="midnightblue" d="M476.208,-461.682C506.352,-454.774 539.372,-443.243 565,-424 605.509,-393.584 629.562,-334.692 637.785,-311.611"/>
<polygon fill="midnightblue" stroke="midnightblue" points="475.151,-458.329 466.11,-463.852 476.622,-465.173 475.151,-458.329"/>
</g>
<!-- Node9 -->
<g id="node9" class="node"><title>Node9</title>
<g id="a_node9"><a xlink:href="classuscxml_1_1_micro_step.html" target="_top" xlink:title="uscxml::MicroStep">
<polygon fill="white" stroke="black" points="344.5,-418.5 344.5,-437.5 442.5,-437.5 442.5,-418.5 344.5,-418.5"/>
<text text-anchor="middle" x="393.5" y="-425.5" font-family="Helvetica,sans-Serif" font-size="10.00">uscxml::MicroStep</text>
</a>
</g>
</g>
<!-- Node9&#45;&gt;Node4 -->
<g id="edge8" class="edge"><title>Node9&#45;&gt;Node4</title>
<path fill="none" stroke="#9a32cd" stroke-dasharray="5,2" d="M452.703,-419.911C487.166,-413.244 530.659,-401.439 565,-381 595.909,-362.603 622.604,-328.311 634.459,-311.621"/>
<polygon fill="#9a32cd" stroke="#9a32cd" points="451.98,-416.485 442.779,-421.738 453.247,-423.369 451.98,-416.485"/>
<text text-anchor="middle" x="531" y="-412" font-family="Helvetica,sans-Serif" font-size="10.00"> _microStepper</text>
</g>
<!-- Node10 -->
<g id="node10" class="node"><title>Node10</title>
<g id="a_node10"><a xlink:href="classuscxml_1_1_delayed_event_queue.html" target="_top" xlink:title="uscxml::DelayedEventQueue">
<polygon fill="white" stroke="black" points="321,-311.5 321,-330.5 466,-330.5 466,-311.5 321,-311.5"/>
<text text-anchor="middle" x="393.5" y="-318.5" font-family="Helvetica,sans-Serif" font-size="10.00">uscxml::DelayedEventQueue</text>
</a>
</g>
</g>
<!-- Node10&#45;&gt;Node4 -->
<g id="edge9" class="edge"><title>Node10&#45;&gt;Node4</title>
<path fill="none" stroke="#9a32cd" stroke-dasharray="5,2" d="M476.301,-314.695C511.186,-312.006 551.085,-308.931 582.875,-306.48"/>
<polygon fill="#9a32cd" stroke="#9a32cd" points="475.831,-311.221 466.129,-315.479 476.369,-318.2 475.831,-311.221"/>
<text text-anchor="middle" x="531" y="-316" font-family="Helvetica,sans-Serif" font-size="10.00"> _delayQueue</text>
</g>
<!-- Node11 -->
<g id="node11" class="node"><title>Node11</title>
<g id="a_node11"><a xlink:href="classuscxml_1_1_event_queue.html" target="_top" xlink:title="uscxml::EventQueue">
<polygon fill="white" stroke="black" points="140,-344.5 140,-363.5 249,-363.5 249,-344.5 140,-344.5"/>
<text text-anchor="middle" x="194.5" y="-351.5" font-family="Helvetica,sans-Serif" font-size="10.00">uscxml::EventQueue</text>
</a>
</g>
</g>
<!-- Node11&#45;&gt;Node4 -->
<g id="edge15" class="edge"><title>Node11&#45;&gt;Node4</title>
<path fill="none" stroke="#9a32cd" stroke-dasharray="5,2" d="M259.562,-353.825C269.747,-353.652 280.163,-353.39 290,-353 412.63,-348.138 445.622,-356.472 565,-328 582.77,-323.762 602.254,-317.053 617.046,-311.512"/>
<polygon fill="#9a32cd" stroke="#9a32cd" points="259.434,-350.326 249.485,-353.969 259.534,-357.326 259.434,-350.326"/>
<text text-anchor="middle" x="393.5" y="-378" font-family="Helvetica,sans-Serif" font-size="10.00"> _parentQueue</text>
<text text-anchor="middle" x="393.5" y="-367" font-family="Helvetica,sans-Serif" font-size="10.00">_externalQueue</text>
<text text-anchor="middle" x="393.5" y="-356" font-family="Helvetica,sans-Serif" font-size="10.00">_internalQueue</text>
</g>
<!-- Node11&#45;&gt;Node10 -->
<g id="edge10" class="edge"><title>Node11&#45;&gt;Node10</title>
<path fill="none" stroke="midnightblue" d="M259.027,-343.358C283.62,-339.239 311.556,-334.559 335.492,-330.55"/>
<polygon fill="midnightblue" stroke="midnightblue" points="258.355,-339.922 249.071,-345.026 259.512,-346.826 258.355,-339.922"/>
</g>
<!-- Node12 -->
<g id="node12" class="node"><title>Node12</title>
<g id="a_node12"><a xlink:href="classuscxml_1_1_interpreter_monitor.html" target="_top" xlink:title="uscxml::InterpreterMonitor">
<polygon fill="white" stroke="black" points="327,-273.5 327,-292.5 460,-292.5 460,-273.5 327,-273.5"/>
<text text-anchor="middle" x="393.5" y="-280.5" font-family="Helvetica,sans-Serif" font-size="10.00">uscxml::InterpreterMonitor</text>
</a>
</g>
</g>
<!-- Node12&#45;&gt;Node4 -->
<g id="edge11" class="edge"><title>Node12&#45;&gt;Node4</title>
<path fill="none" stroke="#9a32cd" stroke-dasharray="5,2" d="M470.377,-287.236C499.929,-289.058 534.067,-291.375 565,-294 570.817,-294.494 576.879,-295.054 582.931,-295.643"/>
<polygon fill="#9a32cd" stroke="#9a32cd" points="470.322,-283.726 460.128,-286.612 469.897,-290.713 470.322,-283.726"/>
<text text-anchor="middle" x="531" y="-297" font-family="Helvetica,sans-Serif" font-size="10.00"> _monitor</text>
</g>
<!-- Node13 -->
<g id="node13" class="node"><title>Node13</title>
<g id="a_node13"><a xlink:href="classuscxml_1_1_data_model.html" target="_top" xlink:title="The facade for data&#45;models. ">
<polygon fill="white" stroke="black" points="342.5,-235.5 342.5,-254.5 444.5,-254.5 444.5,-235.5 342.5,-235.5"/>
<text text-anchor="middle" x="393.5" y="-242.5" font-family="Helvetica,sans-Serif" font-size="10.00">uscxml::DataModel</text>
</a>
</g>
</g>
<!-- Node13&#45;&gt;Node4 -->
<g id="edge12" class="edge"><title>Node13&#45;&gt;Node4</title>
<path fill="none" stroke="#9a32cd" stroke-dasharray="5,2" d="M454.518,-253.051C487.429,-258.092 528.785,-265.453 565,-275 582.872,-279.712 602.52,-286.743 617.36,-292.449"/>
<polygon fill="#9a32cd" stroke="#9a32cd" points="454.998,-249.584 444.59,-251.561 453.96,-256.507 454.998,-249.584"/>
<text text-anchor="middle" x="531" y="-278" font-family="Helvetica,sans-Serif" font-size="10.00"> _dataModel</text>
</g>
<!-- Node14 -->
<g id="node14" class="node"><title>Node14</title>
<g id="a_node14"><a xlink:href="classuscxml_1_1_factory.html" target="_top" xlink:title="uscxml::Factory">
<polygon fill="white" stroke="black" points="350,-157.5 350,-176.5 437,-176.5 437,-157.5 350,-157.5"/>
<text text-anchor="middle" x="393.5" y="-164.5" font-family="Helvetica,sans-Serif" font-size="10.00">uscxml::Factory</text>
</a>
</g>
</g>
<!-- Node14&#45;&gt;Node4 -->
<g id="edge13" class="edge"><title>Node14&#45;&gt;Node4</title>
<path fill="none" stroke="#9a32cd" stroke-dasharray="5,2" d="M428.324,-180.299C463.47,-194.658 519.579,-219.114 565,-246 589.118,-260.276 614.925,-280.466 629.405,-292.3"/>
<polygon fill="#9a32cd" stroke="#9a32cd" points="429.575,-177.03 418.993,-176.523 426.95,-183.519 429.575,-177.03"/>
<text text-anchor="middle" x="531" y="-249" font-family="Helvetica,sans-Serif" font-size="10.00"> _factory</text>
</g>
<!-- Node14&#45;&gt;Node14 -->
<g id="edge14" class="edge"><title>Node14&#45;&gt;Node14</title>
<path fill="none" stroke="#9a32cd" stroke-dasharray="5,2" d="M372.39,-186.4C373.8,-191.315 380.836,-195 393.5,-195 413.762,-195 419.619,-185.565 411.071,-176.757"/>
<polygon fill="#9a32cd" stroke="#9a32cd" points="375.769,-187.351 375.929,-176.757 369.198,-184.939 375.769,-187.351"/>
<text text-anchor="middle" x="393.5" y="-209" font-family="Helvetica,sans-Serif" font-size="10.00"> _instance</text>
<text text-anchor="middle" x="393.5" y="-198" font-family="Helvetica,sans-Serif" font-size="10.00">_parentFactory</text>
</g>
<!-- Node15 -->
<g id="node15" class="node"><title>Node15</title>
<g id="a_node15"><a xlink:href="classuscxml_1_1_u_r_l.html" target="_top" xlink:title="uscxml::URL">
<polygon fill="white" stroke="black" points="357,-119.5 357,-138.5 430,-138.5 430,-119.5 357,-119.5"/>
<text text-anchor="middle" x="393.5" y="-126.5" font-family="Helvetica,sans-Serif" font-size="10.00">uscxml::URL</text>
</a>
</g>
</g>
<!-- Node15&#45;&gt;Node4 -->
<g id="edge16" class="edge"><title>Node15&#45;&gt;Node4</title>
<path fill="none" stroke="#9a32cd" stroke-dasharray="5,2" d="M440.177,-136.604C452.978,-139.447 466.74,-143.19 479,-148 520.158,-164.149 532.147,-168.412 565,-198 597.569,-227.333 624.817,-272.713 635.8,-292.373"/>
<polygon fill="#9a32cd" stroke="#9a32cd" points="440.668,-133.131 430.164,-134.514 439.238,-139.984 440.668,-133.131"/>
<text text-anchor="middle" x="531" y="-201" font-family="Helvetica,sans-Serif" font-size="10.00"> _baseURL</text>
</g>
<!-- Node16 -->
<g id="node16" class="node"><title>Node16</title>
<g id="a_node16"><a xlink:href="classuscxml_1_1_x.html" target="_top" xlink:title="uscxml::X">
<polygon fill="white" stroke="black" points="363.5,-81.5 363.5,-100.5 423.5,-100.5 423.5,-81.5 363.5,-81.5"/>
<text text-anchor="middle" x="393.5" y="-88.5" font-family="Helvetica,sans-Serif" font-size="10.00">uscxml::X</text>
</a>
</g>
</g>
<!-- Node16&#45;&gt;Node4 -->
<g id="edge17" class="edge"><title>Node16&#45;&gt;Node4</title>
<path fill="none" stroke="#9a32cd" stroke-dasharray="5,2" d="M433.661,-90.3023C471.341,-91.6598 527.909,-99.2869 565,-130 618.307,-174.141 635.444,-263.129 639.761,-292.415"/>
<polygon fill="#9a32cd" stroke="#9a32cd" points="433.644,-86.8011 423.566,-90.0717 433.484,-93.7992 433.644,-86.8011"/>
<text text-anchor="middle" x="531" y="-144" font-family="Helvetica,sans-Serif" font-size="10.00"> _xmlPrefix</text>
<text text-anchor="middle" x="531" y="-133" font-family="Helvetica,sans-Serif" font-size="10.00">_xmlNS</text>
</g>
<!-- Node17 -->
<g id="node17" class="node"><title>Node17</title>
<g id="a_node17"><a xlink:href="classuscxml_1_1_content_executor.html" target="_top" xlink:title="uscxml::ContentExecutor">
<polygon fill="white" stroke="black" points="329.5,-43.5 329.5,-62.5 457.5,-62.5 457.5,-43.5 329.5,-43.5"/>
<text text-anchor="middle" x="393.5" y="-50.5" font-family="Helvetica,sans-Serif" font-size="10.00">uscxml::ContentExecutor</text>
</a>
</g>
</g>
<!-- Node17&#45;&gt;Node4 -->
<g id="edge18" class="edge"><title>Node17&#45;&gt;Node4</title>
<path fill="none" stroke="#9a32cd" stroke-dasharray="5,2" d="M467.908,-50.3197C500.985,-52.823 538.479,-61.3147 565,-84 631.095,-140.536 639.746,-257.863 640.848,-292.299"/>
<polygon fill="#9a32cd" stroke="#9a32cd" points="467.99,-46.8186 457.801,-49.726 467.579,-53.8065 467.99,-46.8186"/>
<text text-anchor="middle" x="531" y="-87" font-family="Helvetica,sans-Serif" font-size="10.00"> _execContent</text>
</g>
<!-- Node18 -->
<g id="node18" class="node"><title>Node18</title>
<g id="a_node18"><a xlink:href="classuscxml_1_1_event.html" target="_top" xlink:title="uscxml::Event">
<polygon fill="white" stroke="black" points="354,-0.5 354,-19.5 433,-19.5 433,-0.5 354,-0.5"/>
<text text-anchor="middle" x="393.5" y="-7.5" font-family="Helvetica,sans-Serif" font-size="10.00">uscxml::Event</text>
</a>
</g>
</g>
<!-- Node18&#45;&gt;Node4 -->
<g id="edge19" class="edge"><title>Node18&#45;&gt;Node4</title>
<path fill="none" stroke="#9a32cd" stroke-dasharray="5,2" d="M443.351,-1.91547C480.912,1.40782 531.829,-0.767961 565,-29 607.055,-64.7931 633.797,-247.758 639.741,-292.243"/>
<polygon fill="#9a32cd" stroke="#9a32cd" points="442.72,1.53774 433.137,-2.98155 443.447,-5.42444 442.72,1.53774"/>
<text text-anchor="middle" x="531" y="-43" font-family="Helvetica,sans-Serif" font-size="10.00"> _currEvent</text>
<text text-anchor="middle" x="531" y="-32" font-family="Helvetica,sans-Serif" font-size="10.00">_invokeReq</text>
</g>
<!-- Node19 -->
<g id="node19" class="node"><title>Node19</title>
<g id="a_node19"><a xlink:href="classuscxml_1_1_data.html" target="_top" xlink:title="uscxml::Data">
<polygon fill="white" stroke="black" points="157.5,-0.5 157.5,-19.5 231.5,-19.5 231.5,-0.5 157.5,-0.5"/>
<text text-anchor="middle" x="194.5" y="-7.5" font-family="Helvetica,sans-Serif" font-size="10.00">uscxml::Data</text>
</a>
</g>
</g>
<!-- Node19&#45;&gt;Node18 -->
<g id="edge20" class="edge"><title>Node19&#45;&gt;Node18</title>
<path fill="none" stroke="#9a32cd" stroke-dasharray="5,2" d="M241.813,-10C275.922,-10 321.768,-10 353.902,-10"/>
<polygon fill="#9a32cd" stroke="#9a32cd" points="241.633,-6.5001 231.633,-10 241.633,-13.5001 241.633,-6.5001"/>
<text text-anchor="middle" x="278.5" y="-13" font-family="Helvetica,sans-Serif" font-size="10.00"> data</text>
</g>
<!-- Node20 -->
<g id="node20" class="node"><title>Node20</title>
<g id="a_node20"><a xlink:href="classuscxml_1_1_blob.html" target="_top" xlink:title="uscxml::Blob">
<polygon fill="white" stroke="black" points="0,-0.5 0,-19.5 73,-19.5 73,-0.5 0,-0.5"/>
<text text-anchor="middle" x="36.5" y="-7.5" font-family="Helvetica,sans-Serif" font-size="10.00">uscxml::Blob</text>
</a>
</g>
</g>
<!-- Node20&#45;&gt;Node19 -->
<g id="edge21" class="edge"><title>Node20&#45;&gt;Node19</title>
<path fill="none" stroke="#9a32cd" stroke-dasharray="5,2" d="M83.413,-10C106.998,-10 135.324,-10 157.337,-10"/>
<polygon fill="#9a32cd" stroke="#9a32cd" points="83.2896,-6.5001 73.2896,-10 83.2895,-13.5001 83.2896,-6.5001"/>
<text text-anchor="middle" x="106.5" y="-13" font-family="Helvetica,sans-Serif" font-size="10.00"> binary</text>
</g>
<!-- Node21 -->
<g id="node21" class="node"><title>Node21</title>
<g id="a_node21"><a xlink:href="classuscxml_1_1_h_t_t_p_servlet.html" target="_top" xlink:title="uscxml::HTTPServlet">
<polygon fill="white" stroke="black" points="970,-254.5 970,-273.5 1080,-273.5 1080,-254.5 970,-254.5"/>
<text text-anchor="middle" x="1025" y="-261.5" font-family="Helvetica,sans-Serif" font-size="10.00">uscxml::HTTPServlet</text>
</a>
</g>
</g>
<!-- Node21&#45;&gt;Node1 -->
<g id="edge22" class="edge"><title>Node21&#45;&gt;Node1</title>
<path fill="none" stroke="midnightblue" d="M1090.08,-264C1101.71,-264 1113.96,-264 1125.95,-264"/>
<polygon fill="midnightblue" stroke="midnightblue" points="1090.04,-260.5 1080.04,-264 1090.04,-267.5 1090.04,-260.5"/>
</g>
<!-- Node22 -->
<g id="node22" class="node"><title>Node22</title>
<g id="a_node22"><a xlink:href="classuscxml_1_1_u_r_l_monitor.html" target="_top" xlink:title="uscxml::URLMonitor">
<polygon fill="white" stroke="black" points="971.5,-216.5 971.5,-235.5 1078.5,-235.5 1078.5,-216.5 971.5,-216.5"/>
<text text-anchor="middle" x="1025" y="-223.5" font-family="Helvetica,sans-Serif" font-size="10.00">uscxml::URLMonitor</text>
</a>
</g>
</g>
<!-- Node22&#45;&gt;Node1 -->
<g id="edge23" class="edge"><title>Node22&#45;&gt;Node1</title>
<path fill="none" stroke="midnightblue" d="M1080.87,-237.681C1106.18,-243.07 1135.85,-249.386 1159.78,-254.48"/>
<polygon fill="midnightblue" stroke="midnightblue" points="1081.55,-234.248 1071.04,-235.589 1080.1,-241.095 1081.55,-234.248"/>
</g>
</g>
</svg>
        <g id="navigator" transform="translate(0 0)" fill="#404254">
                <rect fill="#f2f5e9" fill-opacity="0.5" stroke="#606060" stroke-width=".5" x="0" y="0" width="60" height="60"/>
                <use id="zoomplus" xlink:href="#zoomPlus" x="17" y="9" onmousedown="handleZoom(evt,'in')"/>
                <use id="zoomminus" xlink:href="#zoomMin" x="42" y="9" onmousedown="handleZoom(evt,'out')"/>
                <use id="reset" xlink:href="#resetDef" x="30" y="36" onmousedown="handleReset()"/>
                <g id="arrowUp" xlink:href="#dirArrow" transform="translate(30 24)" onmousedown="handlePan(0,-1)">
                  <use xlink:href="#rim" fill="#404040">
                        <set attributeName="fill" to="#808080" begin="arrowUp.mouseover" end="arrowUp.mouseout"/>
                  </use>
                  <path fill="none" stroke="white" stroke-width="1.5" d="M0,-3.0v7 M-2.5,-0.5L0,-3.0L2.5,-0.5"/>
                </g>
                <g id="arrowRight" xlink:href="#dirArrow" transform="rotate(90) translate(36 -43)" onmousedown="handlePan(1,0)">
                  <use xlink:href="#rim" fill="#404040">
                        <set attributeName="fill" to="#808080" begin="arrowRight.mouseover" end="arrowRight.mouseout"/>
                  </use>
                  <path fill="none" stroke="white" stroke-width="1.5" d="M0,-3.0v7 M-2.5,-0.5L0,-3.0L2.5,-0.5"/>
                </g>
                <g id="arrowDown" xlink:href="#dirArrow" transform="rotate(180) translate(-30 -48)" onmousedown="handlePan(0,1)">
                  <use xlink:href="#rim" fill="#404040">
                        <set attributeName="fill" to="#808080" begin="arrowDown.mouseover" end="arrowDown.mouseout"/>
                  </use>
                  <path fill="none" stroke="white" stroke-width="1.5" d="M0,-3.0v7 M-2.5,-0.5L0,-3.0L2.5,-0.5"/>
                </g>
                <g id="arrowLeft" xlink:href="#dirArrow" transform="rotate(270) translate(-36 17)" onmousedown="handlePan(-1,0)">
                  <use xlink:href="#rim" fill="#404040">
                        <set attributeName="fill" to="#808080" begin="arrowLeft.mouseover" end="arrowLeft.mouseout"/>
                  </use>
                  <path fill="none" stroke="white" stroke-width="1.5" d="M0,-3.0v7 M-2.5,-0.5L0,-3.0L2.5,-0.5"/>
                </g>
        </g>
        <svg viewBox="0 0 15 15" width="100%" height="30px" preserveAspectRatio="xMaxYMin meet">
         <g id="arrow_out" transform="scale(0.3 0.3)">
          <a xlink:href="classuscxml_1_1_basic_h_t_t_p_i_o_processor__coll__graph_org.svg" target="_base">
           <rect id="button" ry="5" rx="5" y="6" x="6" height="38" width="38"
                fill="#f2f5e9" fill-opacity="0.5" stroke="#606060" stroke-width="1.0"/>
           <path id="arrow"
             d="M 11.500037,31.436501 C 11.940474,20.09759 22.043105,11.32322 32.158766,21.979434 L 37.068811,17.246167 C 37.068811,17.246167 37.088388,32 37.088388,32 L 22.160133,31.978069 C 22.160133,31.978069 26.997745,27.140456 26.997745,27.140456 C 18.528582,18.264221 13.291696,25.230495 11.500037,31.436501 z"
             style="fill:#404040;"/>
          </a>
         </g>
        </svg>
</svg>
