<?xml version="1.0" encoding="UTF-8" standalone="no"?>
<!DOCTYPE svg PUBLIC "-//W3C//DTD SVG 1.1//EN"
 "http://www.w3.org/Graphics/SVG/1.1/DTD/svg11.dtd">
<!-- Generated by graphviz version 2.38.0 (20140413.2041)
 -->
<!-- Title: uscxml::InvokerImpl Pages: 1 -->
<svg width="272pt" height="140pt"
 viewBox="0.00 0.00 272.00 140.00" xmlns="http://www.w3.org/2000/svg" xmlns:xlink="http://www.w3.org/1999/xlink">
<g id="graph0" class="graph" transform="scale(1 1) rotate(0) translate(4 136)">
<title>uscxml::InvokerImpl</title>
<polygon fill="white" stroke="none" points="-4,4 -4,-136 268,-136 268,4 -4,4"/>
<!-- Node1 -->
<g id="node1" class="node"><title>Node1</title>
<polygon fill="#bfbfbf" stroke="black" points="76.5,-56.5 76.5,-75.5 181.5,-75.5 181.5,-56.5 76.5,-56.5"/>
<text text-anchor="middle" x="129" y="-63.5" font-family="Helvetica,sans-Serif" font-size="10.00">uscxml::InvokerImpl</text>
</g>
<!-- Node3 -->
<g id="node3" class="node"><title>Node3</title>
<g id="a_node3"><a xlink:href="classuscxml_1_1_dir_mon_invoker.html" target="_top" xlink:title="uscxml::DirMonInvoker">
<polygon fill="white" stroke="black" points="0,-0.5 0,-19.5 118,-19.5 118,-0.5 0,-0.5"/>
<text text-anchor="middle" x="59" y="-7.5" font-family="Helvetica,sans-Serif" font-size="10.00">uscxml::DirMonInvoker</text>
</a>
</g>
</g>
<!-- Node1&#45;&gt;Node3 -->
<g id="edge2" class="edge"><title>Node1&#45;&gt;Node3</title>
<path fill="none" stroke="midnightblue" d="M109.686,-50.1008C97.0883,-40.3824 81.0719,-28.0269 70.4513,-19.8339"/>
<polygon fill="midnightblue" stroke="midnightblue" points="107.698,-52.9871 117.753,-56.324 111.973,-47.4446 107.698,-52.9871"/>
</g>
<!-- Node4 -->
<g id="node4" class="node"><title>Node4</title>
<g id="a_node4"><a xlink:href="classuscxml_1_1_u_s_c_x_m_l_invoker.html" target="_top" xlink:title="An invoker for other SCXML instances. ">
<polygon fill="white" stroke="black" points="136,-0.5 136,-19.5 264,-19.5 264,-0.5 136,-0.5"/>
<text text-anchor="middle" x="200" y="-7.5" font-family="Helvetica,sans-Serif" font-size="10.00">uscxml::USCXMLInvoker</text>
</a>
</g>
</g>
<!-- Node1&#45;&gt;Node4 -->
<g id="edge3" class="edge"><title>Node1&#45;&gt;Node4</title>
<path fill="none" stroke="midnightblue" d="M148.59,-50.1008C161.368,-40.3824 177.613,-28.0269 188.385,-19.8339"/>
<polygon fill="midnightblue" stroke="midnightblue" points="146.248,-47.4844 140.407,-56.324 150.486,-53.0561 146.248,-47.4844"/>
</g>
<!-- Node2 -->
<g id="node2" class="node"><title>Node2</title>
<g id="a_node2"><a xlink:href="classuscxml_1_1_event_handler_impl.html" target="_top" xlink:title="Common base class for invokers and i/o processors. ">
<polygon fill="white" stroke="black" points="62.5,-112.5 62.5,-131.5 195.5,-131.5 195.5,-112.5 62.5,-112.5"/>
<text text-anchor="middle" x="129" y="-119.5" font-family="Helvetica,sans-Serif" font-size="10.00">uscxml::EventHandlerImpl</text>
</a>
</g>
</g>
<!-- Node2&#45;&gt;Node1 -->
<g id="edge1" class="edge"><title>Node2&#45;&gt;Node1</title>
<path fill="none" stroke="midnightblue" d="M129,-101.805C129,-92.9102 129,-82.7798 129,-75.7511"/>
<polygon fill="midnightblue" stroke="midnightblue" points="125.5,-102.083 129,-112.083 132.5,-102.083 125.5,-102.083"/>
</g>
</g>
</svg>
