<?xml version="1.0" encoding="UTF-8" standalone="no"?>
<!DOCTYPE svg PUBLIC "-//W3C//DTD SVG 1.1//EN"
 "http://www.w3.org/Graphics/SVG/1.1/DTD/svg11.dtd">
<!-- Generated by graphviz version 2.38.0 (20140413.2041)
 -->
<!-- Title: uscxml::InvokerImpl Pages: 1 -->
<svg width="1074pt" height="659pt"
 viewBox="0.00 0.00 1074.00 659.06" xmlns="http://www.w3.org/2000/svg" xmlns:xlink="http://www.w3.org/1999/xlink">
<g id="graph0" class="graph" transform="scale(1 1) rotate(0) translate(4 655.064)">
<title>uscxml::InvokerImpl</title>
<polygon fill="white" stroke="none" points="-4,4 -4,-655.064 1070,-655.064 1070,4 -4,4"/>
<!-- Node1 -->
<g id="node1" class="node"><title>Node1</title>
<polygon fill="#bfbfbf" stroke="black" points="961,-311.564 961,-330.564 1066,-330.564 1066,-311.564 961,-311.564"/>
<text text-anchor="middle" x="1013.5" y="-318.564" font-family="Helvetica,sans-Serif" font-size="10.00">uscxml::InvokerImpl</text>
</g>
<!-- Node2 -->
<g id="node2" class="node"><title>Node2</title>
<g id="a_node2"><a xlink:href="classuscxml_1_1_event_handler_impl.html" target="_top" xlink:title="Common base class for invokers and i/o processors. ">
<polygon fill="white" stroke="black" points="791,-311.564 791,-330.564 924,-330.564 924,-311.564 791,-311.564"/>
<text text-anchor="middle" x="857.5" y="-318.564" font-family="Helvetica,sans-Serif" font-size="10.00">uscxml::EventHandlerImpl</text>
</a>
</g>
</g>
<!-- Node2&#45;&gt;Node1 -->
<g id="edge1" class="edge"><title>Node2&#45;&gt;Node1</title>
<path fill="none" stroke="midnightblue" d="M934.377,-321.064C943.371,-321.064 952.386,-321.064 960.931,-321.064"/>
<polygon fill="midnightblue" stroke="midnightblue" points="934.257,-317.564 924.257,-321.064 934.257,-324.564 934.257,-317.564"/>
</g>
<!-- Node3 -->
<g id="node3" class="node"><title>Node3</title>
<g id="a_node3"><a xlink:href="classuscxml_1_1_interpreter_impl.html" target="_top" xlink:title="uscxml::InterpreterImpl">
<polygon fill="white" stroke="black" points="583,-311.564 583,-330.564 701,-330.564 701,-311.564 583,-311.564"/>
<text text-anchor="middle" x="642" y="-318.564" font-family="Helvetica,sans-Serif" font-size="10.00">uscxml::InterpreterImpl</text>
</a>
</g>
</g>
<!-- Node3&#45;&gt;Node2 -->
<g id="edge2" class="edge"><title>Node3&#45;&gt;Node2</title>
<path fill="none" stroke="#9a32cd" stroke-dasharray="5,2" d="M711.379,-321.064C736.857,-321.064 765.699,-321.064 790.92,-321.064"/>
<polygon fill="#9a32cd" stroke="#9a32cd" points="711.058,-317.564 701.058,-321.064 711.058,-324.564 711.058,-317.564"/>
<text text-anchor="middle" x="746" y="-324.064" font-family="Helvetica,sans-Serif" font-size="10.00"> _interpreter</text>
</g>
<!-- Node4 -->
<g id="node4" class="node"><title>Node4</title>
<g id="a_node4"><a xlink:href="classuscxml_1_1_micro_step_callbacks.html" target="_top" xlink:title="uscxml::MicroStepCallbacks">
<polygon fill="white" stroke="black" points="322.5,-631.564 322.5,-650.564 464.5,-650.564 464.5,-631.564 322.5,-631.564"/>
<text text-anchor="middle" x="393.5" y="-638.564" font-family="Helvetica,sans-Serif" font-size="10.00">uscxml::MicroStepCallbacks</text>
</a>
</g>
</g>
<!-- Node4&#45;&gt;Node3 -->
<g id="edge3" class="edge"><title>Node4&#45;&gt;Node3</title>
<path fill="none" stroke="midnightblue" d="M460.767,-628.674C467.031,-626.757 473.201,-624.565 479,-622.064 521.332,-603.803 537.457,-601.034 565,-564.064 622.305,-487.143 637.068,-366.026 640.236,-330.909"/>
<polygon fill="midnightblue" stroke="midnightblue" points="459.558,-625.378 450.886,-631.465 461.461,-632.115 459.558,-625.378"/>
</g>
<!-- Node5 -->
<g id="node5" class="node"><title>Node5</title>
<g id="a_node5"><a xlink:href="classuscxml_1_1_data_model_callbacks.html" target="_top" xlink:title="Callbacks available for every data&#45;model. ">
<polygon fill="white" stroke="black" points="321,-593.564 321,-612.564 466,-612.564 466,-593.564 321,-593.564"/>
<text text-anchor="middle" x="393.5" y="-600.564" font-family="Helvetica,sans-Serif" font-size="10.00">uscxml::DataModelCallbacks</text>
</a>
</g>
</g>
<!-- Node5&#45;&gt;Node3 -->
<g id="edge4" class="edge"><title>Node5&#45;&gt;Node3</title>
<path fill="none" stroke="midnightblue" d="M460.788,-590.722C467.047,-588.796 473.211,-586.588 479,-584.064 521.488,-565.535 536.469,-561.595 565,-525.064 614.784,-461.321 634.444,-361.594 639.554,-330.588"/>
<polygon fill="midnightblue" stroke="midnightblue" points="459.577,-587.428 450.911,-593.524 461.487,-594.162 459.577,-587.428"/>
</g>
<!-- Node6 -->
<g id="node6" class="node"><title>Node6</title>
<g id="a_node6"><a xlink:href="classuscxml_1_1_content_executor_callbacks.html" target="_top" xlink:title="uscxml::ContentExecutorCallbacks">
<polygon fill="white" stroke="black" points="308,-555.564 308,-574.564 479,-574.564 479,-555.564 308,-555.564"/>
<text text-anchor="middle" x="393.5" y="-562.564" font-family="Helvetica,sans-Serif" font-size="10.00">uscxml::ContentExecutorCallbacks</text>
</a>
</g>
</g>
<!-- Node6&#45;&gt;Node3 -->
<g id="edge5" class="edge"><title>Node6&#45;&gt;Node3</title>
<path fill="none" stroke="midnightblue" d="M461.102,-552.679C467.256,-550.764 473.311,-548.571 479,-546.064 521.646,-527.266 535.096,-521.81 565,-486.064 607.294,-435.506 631.185,-357.524 638.532,-330.594"/>
<polygon fill="midnightblue" stroke="midnightblue" points="460.034,-549.344 451.386,-555.464 461.963,-556.073 460.034,-549.344"/>
</g>
<!-- Node7 -->
<g id="node7" class="node"><title>Node7</title>
<g id="a_node7"><a xlink:href="classuscxml_1_1_delayed_event_queue_callbacks.html" target="_top" xlink:title="uscxml::DelayedEventQueue\lCallbacks">
<polygon fill="white" stroke="black" points="321,-506.064 321,-536.064 466,-536.064 466,-506.064 321,-506.064"/>
<text text-anchor="start" x="329" y="-524.064" font-family="Helvetica,sans-Serif" font-size="10.00">uscxml::DelayedEventQueue</text>
<text text-anchor="middle" x="393.5" y="-513.064" font-family="Helvetica,sans-Serif" font-size="10.00">Callbacks</text>
</a>
</g>
</g>
<!-- Node7&#45;&gt;Node3 -->
<g id="edge6" class="edge"><title>Node7&#45;&gt;Node3</title>
<path fill="none" stroke="midnightblue" d="M473.153,-502.937C504.798,-492.408 539.706,-476.278 565,-452.064 603.556,-415.154 628.753,-354.408 637.534,-330.837"/>
<polygon fill="midnightblue" stroke="midnightblue" points="471.917,-499.657 463.451,-506.028 474.041,-506.327 471.917,-499.657"/>
</g>
<!-- Node8 -->
<g id="node8" class="node"><title>Node8</title>
<polygon fill="white" stroke="#bfbfbf" points="321,-457.064 321,-487.064 466,-487.064 466,-457.064 321,-457.064"/>
<text text-anchor="start" x="329" y="-475.064" font-family="Helvetica,sans-Serif" font-size="10.00">std::enable_shared</text>
<text text-anchor="middle" x="393.5" y="-464.064" font-family="Helvetica,sans-Serif" font-size="10.00">_from_this&lt; InterpreterImpl &gt;</text>
</g>
<!-- Node8&#45;&gt;Node3 -->
<g id="edge7" class="edge"><title>Node8&#45;&gt;Node3</title>
<path fill="none" stroke="midnightblue" d="M476.136,-459.28C505.969,-451.846 538.794,-440.204 565,-422.064 600.545,-397.458 626.39,-350.912 636.414,-330.764"/>
<polygon fill="midnightblue" stroke="midnightblue" points="475.073,-455.935 466.148,-461.643 476.685,-462.747 475.073,-455.935"/>
</g>
<!-- Node9 -->
<g id="node9" class="node"><title>Node9</title>
<g id="a_node9"><a xlink:href="classuscxml_1_1_micro_step.html" target="_top" xlink:title="uscxml::MicroStep">
<polygon fill="white" stroke="black" points="344.5,-418.564 344.5,-437.564 442.5,-437.564 442.5,-418.564 344.5,-418.564"/>
<text text-anchor="middle" x="393.5" y="-425.564" font-family="Helvetica,sans-Serif" font-size="10.00">uscxml::MicroStep</text>
</a>
</g>
</g>
<!-- Node9&#45;&gt;Node3 -->
<g id="edge8" class="edge"><title>Node9&#45;&gt;Node3</title>
<path fill="none" stroke="#9a32cd" stroke-dasharray="5,2" d="M452.907,-417.995C486.852,-410.691 529.747,-398.91 565,-381.064 591.697,-367.548 618.011,-343.82 631.568,-330.616"/>
<polygon fill="#9a32cd" stroke="#9a32cd" points="451.757,-414.659 442.677,-420.119 453.18,-421.512 451.757,-414.659"/>
<text text-anchor="middle" x="531" y="-410.064" font-family="Helvetica,sans-Serif" font-size="10.00"> _microStepper</text>
</g>
<!-- Node10 -->
<g id="node10" class="node"><title>Node10</title>
<g id="a_node10"><a xlink:href="classuscxml_1_1_delayed_event_queue.html" target="_top" xlink:title="uscxml::DelayedEventQueue">
<polygon fill="white" stroke="black" points="321,-311.564 321,-330.564 466,-330.564 466,-311.564 321,-311.564"/>
<text text-anchor="middle" x="393.5" y="-318.564" font-family="Helvetica,sans-Serif" font-size="10.00">uscxml::DelayedEventQueue</text>
</a>
</g>
</g>
<!-- Node10&#45;&gt;Node3 -->
<g id="edge9" class="edge"><title>Node10&#45;&gt;Node3</title>
<path fill="none" stroke="#9a32cd" stroke-dasharray="5,2" d="M476.301,-321.064C511.186,-321.064 551.085,-321.064 582.875,-321.064"/>
<polygon fill="#9a32cd" stroke="#9a32cd" points="476.129,-317.564 466.129,-321.064 476.129,-324.564 476.129,-317.564"/>
<text text-anchor="middle" x="531" y="-324.064" font-family="Helvetica,sans-Serif" font-size="10.00"> _delayQueue</text>
</g>
<!-- Node11 -->
<g id="node11" class="node"><title>Node11</title>
<g id="a_node11"><a xlink:href="classuscxml_1_1_event_queue.html" target="_top" xlink:title="uscxml::EventQueue">
<polygon fill="white" stroke="black" points="140,-344.564 140,-363.564 249,-363.564 249,-344.564 140,-344.564"/>
<text text-anchor="middle" x="194.5" y="-351.564" font-family="Helvetica,sans-Serif" font-size="10.00">uscxml::EventQueue</text>
</a>
</g>
</g>
<!-- Node11&#45;&gt;Node3 -->
<g id="edge15" class="edge"><title>Node11&#45;&gt;Node3</title>
<path fill="none" stroke="#9a32cd" stroke-dasharray="5,2" d="M259.56,-353.829C269.745,-353.664 280.162,-353.42 290,-353.064 412.375,-348.637 443.551,-351.732 565,-336.064 575.671,-334.687 587.094,-332.706 597.758,-330.633"/>
<polygon fill="#9a32cd" stroke="#9a32cd" points="259.433,-350.33 249.483,-353.968 259.53,-357.329 259.433,-350.33"/>
<text text-anchor="middle" x="393.5" y="-378.064" font-family="Helvetica,sans-Serif" font-size="10.00"> _parentQueue</text>
<text text-anchor="middle" x="393.5" y="-367.064" font-family="Helvetica,sans-Serif" font-size="10.00">_externalQueue</text>
<text text-anchor="middle" x="393.5" y="-356.064" font-family="Helvetica,sans-Serif" font-size="10.00">_internalQueue</text>
</g>
<!-- Node11&#45;&gt;Node10 -->
<g id="edge10" class="edge"><title>Node11&#45;&gt;Node10</title>
<path fill="none" stroke="midnightblue" d="M259.027,-343.422C283.62,-339.302 311.556,-334.623 335.492,-330.613"/>
<polygon fill="midnightblue" stroke="midnightblue" points="258.355,-339.986 249.071,-345.09 259.512,-346.89 258.355,-339.986"/>
</g>
<!-- Node12 -->
<g id="node12" class="node"><title>Node12</title>
<g id="a_node12"><a xlink:href="classuscxml_1_1_logger.html" target="_top" xlink:title="uscxml::Logger">
<polygon fill="white" stroke="black" points="351.5,-273.564 351.5,-292.564 435.5,-292.564 435.5,-273.564 351.5,-273.564"/>
<text text-anchor="middle" x="393.5" y="-280.564" font-family="Helvetica,sans-Serif" font-size="10.00">uscxml::Logger</text>
</a>
</g>
</g>
<!-- Node12&#45;&gt;Node3 -->
<g id="edge11" class="edge"><title>Node12&#45;&gt;Node3</title>
<path fill="none" stroke="#9a32cd" stroke-dasharray="5,2" d="M445.739,-289.151C479.657,-293.383 525.079,-299.438 565,-306.064 574.685,-307.671 585.027,-309.582 594.863,-311.491"/>
<polygon fill="#9a32cd" stroke="#9a32cd" points="445.955,-285.651 435.601,-287.897 445.096,-292.598 445.955,-285.651"/>
<text text-anchor="middle" x="531" y="-309.064" font-family="Helvetica,sans-Serif" font-size="10.00"> _logger</text>
</g>
<!-- Node13 -->
<g id="node13" class="node"><title>Node13</title>
<g id="a_node13"><a xlink:href="classuscxml_1_1_data_model.html" target="_top" xlink:title="The facade for data&#45;models. ">
<polygon fill="white" stroke="black" points="342.5,-235.564 342.5,-254.564 444.5,-254.564 444.5,-235.564 342.5,-235.564"/>
<text text-anchor="middle" x="393.5" y="-242.564" font-family="Helvetica,sans-Serif" font-size="10.00">uscxml::DataModel</text>
</a>
</g>
</g>
<!-- Node13&#45;&gt;Node3 -->
<g id="edge12" class="edge"><title>Node13&#45;&gt;Node3</title>
<path fill="none" stroke="#9a32cd" stroke-dasharray="5,2" d="M454.695,-254.176C487.828,-260.168 529.337,-269.291 565,-282.064 586.781,-289.864 610.238,-302.64 625.24,-311.431"/>
<polygon fill="#9a32cd" stroke="#9a32cd" points="455.153,-250.703 444.697,-252.417 453.939,-257.597 455.153,-250.703"/>
<text text-anchor="middle" x="531" y="-285.064" font-family="Helvetica,sans-Serif" font-size="10.00"> _dataModel</text>
</g>
<!-- Node14 -->
<g id="node14" class="node"><title>Node14</title>
<g id="a_node14"><a xlink:href="classuscxml_1_1_factory.html" target="_top" xlink:title="uscxml::Factory">
<polygon fill="white" stroke="black" points="350,-157.564 350,-176.564 437,-176.564 437,-157.564 350,-157.564"/>
<text text-anchor="middle" x="393.5" y="-164.564" font-family="Helvetica,sans-Serif" font-size="10.00">uscxml::Factory</text>
</a>
</g>
</g>
<!-- Node14&#45;&gt;Node3 -->
<g id="edge13" class="edge"><title>Node14&#45;&gt;Node3</title>
<path fill="none" stroke="#9a32cd" stroke-dasharray="5,2" d="M429.911,-180.318C465.65,-194.54 521.611,-219.167 565,-249.064 592.239,-267.832 619.16,-296.305 632.448,-311.198"/>
<polygon fill="#9a32cd" stroke="#9a32cd" points="430.981,-176.978 420.394,-176.587 428.426,-183.495 430.981,-176.978"/>
<text text-anchor="middle" x="531" y="-252.064" font-family="Helvetica,sans-Serif" font-size="10.00"> _factory</text>
</g>
<!-- Node14&#45;&gt;Node14 -->
<g id="edge14" class="edge"><title>Node14&#45;&gt;Node14</title>
<path fill="none" stroke="#9a32cd" stroke-dasharray="5,2" d="M372.39,-186.464C373.8,-191.378 380.836,-195.064 393.5,-195.064 413.762,-195.064 419.619,-185.629 411.071,-176.821"/>
<polygon fill="#9a32cd" stroke="#9a32cd" points="375.769,-187.414 375.929,-176.821 369.198,-185.002 375.769,-187.414"/>
<text text-anchor="middle" x="393.5" y="-209.064" font-family="Helvetica,sans-Serif" font-size="10.00"> _instance</text>
<text text-anchor="middle" x="393.5" y="-198.064" font-family="Helvetica,sans-Serif" font-size="10.00">_parentFactory</text>
</g>
<!-- Node15 -->
<g id="node15" class="node"><title>Node15</title>
<g id="a_node15"><a xlink:href="classuscxml_1_1_u_r_l.html" target="_top" xlink:title="uscxml::URL">
<polygon fill="white" stroke="black" points="357,-119.564 357,-138.564 430,-138.564 430,-119.564 357,-119.564"/>
<text text-anchor="middle" x="393.5" y="-126.564" font-family="Helvetica,sans-Serif" font-size="10.00">uscxml::URL</text>
</a>
</g>
</g>
<!-- Node15&#45;&gt;Node3 -->
<g id="edge16" class="edge"><title>Node15&#45;&gt;Node3</title>
<path fill="none" stroke="#9a32cd" stroke-dasharray="5,2" d="M440.388,-137.003C478.079,-145.672 530.666,-162.984 565,-196.064 601.946,-231.659 627.906,-288.908 637.213,-311.476"/>
<polygon fill="#9a32cd" stroke="#9a32cd" points="440.696,-133.489 430.18,-134.782 439.207,-140.328 440.696,-133.489"/>
<text text-anchor="middle" x="531" y="-199.064" font-family="Helvetica,sans-Serif" font-size="10.00"> _baseURL</text>
</g>
<!-- Node16 -->
<g id="node16" class="node"><title>Node16</title>
<g id="a_node16"><a xlink:href="classuscxml_1_1_x.html" target="_top" xlink:title="uscxml::X">
<polygon fill="white" stroke="black" points="363.5,-81.5636 363.5,-100.564 423.5,-100.564 423.5,-81.5636 363.5,-81.5636"/>
<text text-anchor="middle" x="393.5" y="-88.5636" font-family="Helvetica,sans-Serif" font-size="10.00">uscxml::X</text>
</a>
</g>
</g>
<!-- Node16&#45;&gt;Node3 -->
<g id="edge17" class="edge"><title>Node16&#45;&gt;Node3</title>
<path fill="none" stroke="#9a32cd" stroke-dasharray="5,2" d="M433.883,-89.8191C471.729,-90.7171 528.419,-97.838 565,-129.064 623.351,-178.873 637.254,-279.575 640.246,-311.278"/>
<polygon fill="#9a32cd" stroke="#9a32cd" points="433.775,-86.3179 423.74,-89.716 433.704,-93.3176 433.775,-86.3179"/>
<text text-anchor="middle" x="531" y="-143.064" font-family="Helvetica,sans-Serif" font-size="10.00"> _xmlPrefix</text>
<text text-anchor="middle" x="531" y="-132.064" font-family="Helvetica,sans-Serif" font-size="10.00">_xmlNS</text>
</g>
<!-- Node17 -->
<g id="node17" class="node"><title>Node17</title>
<g id="a_node17"><a xlink:href="classuscxml_1_1_content_executor.html" target="_top" xlink:title="uscxml::ContentExecutor">
<polygon fill="white" stroke="black" points="329.5,-43.5636 329.5,-62.5636 457.5,-62.5636 457.5,-43.5636 329.5,-43.5636"/>
<text text-anchor="middle" x="393.5" y="-50.5636" font-family="Helvetica,sans-Serif" font-size="10.00">uscxml::ContentExecutor</text>
</a>
</g>
</g>
<!-- Node17&#45;&gt;Node3 -->
<g id="edge18" class="edge"><title>Node17&#45;&gt;Node3</title>
<path fill="none" stroke="#9a32cd" stroke-dasharray="5,2" d="M467.756,-49.5634C500.979,-51.7543 538.639,-60.0392 565,-83.0636 636.544,-145.552 641.3,-275.301 641.18,-311.502"/>
<polygon fill="#9a32cd" stroke="#9a32cd" points="467.763,-46.0598 457.605,-49.0696 467.423,-53.0515 467.763,-46.0598"/>
<text text-anchor="middle" x="531" y="-86.0636" font-family="Helvetica,sans-Serif" font-size="10.00"> _execContent</text>
</g>
<!-- Node18 -->
<g id="node18" class="node"><title>Node18</title>
<g id="a_node18"><a xlink:href="classuscxml_1_1_event.html" target="_top" xlink:title="uscxml::Event">
<polygon fill="white" stroke="black" points="354,-0.563632 354,-19.5636 433,-19.5636 433,-0.563632 354,-0.563632"/>
<text text-anchor="middle" x="393.5" y="-7.56363" font-family="Helvetica,sans-Serif" font-size="10.00">uscxml::Event</text>
</a>
</g>
</g>
<!-- Node18&#45;&gt;Node3 -->
<g id="edge19" class="edge"><title>Node18&#45;&gt;Node3</title>
<path fill="none" stroke="#9a32cd" stroke-dasharray="5,2" d="M443.456,-1.4864C481.075,2.17163 532.018,0.347798 565,-28.0636 609.992,-66.8207 634.776,-265.499 639.967,-311.532"/>
<polygon fill="#9a32cd" stroke="#9a32cd" points="442.767,1.95803 433.225,-2.64598 443.556,-4.99744 442.767,1.95803"/>
<text text-anchor="middle" x="531" y="-42.0636" font-family="Helvetica,sans-Serif" font-size="10.00"> _currEvent</text>
<text text-anchor="middle" x="531" y="-31.0636" font-family="Helvetica,sans-Serif" font-size="10.00">_invokeReq</text>
</g>
<!-- Node19 -->
<g id="node19" class="node"><title>Node19</title>
<g id="a_node19"><a xlink:href="classuscxml_1_1_data.html" target="_top" xlink:title="uscxml::Data">
<polygon fill="white" stroke="black" points="157.5,-0.563632 157.5,-19.5636 231.5,-19.5636 231.5,-0.563632 157.5,-0.563632"/>
<text text-anchor="middle" x="194.5" y="-7.56363" font-family="Helvetica,sans-Serif" font-size="10.00">uscxml::Data</text>
</a>
</g>
</g>
<!-- Node19&#45;&gt;Node18 -->
<g id="edge20" class="edge"><title>Node19&#45;&gt;Node18</title>
<path fill="none" stroke="#9a32cd" stroke-dasharray="5,2" d="M241.813,-10.0636C275.922,-10.0636 321.768,-10.0636 353.902,-10.0636"/>
<polygon fill="#9a32cd" stroke="#9a32cd" points="241.633,-6.56373 231.633,-10.0636 241.633,-13.5637 241.633,-6.56373"/>
<text text-anchor="middle" x="278.5" y="-13.0636" font-family="Helvetica,sans-Serif" font-size="10.00"> data</text>
</g>
<!-- Node20 -->
<g id="node20" class="node"><title>Node20</title>
<g id="a_node20"><a xlink:href="classuscxml_1_1_blob.html" target="_top" xlink:title="uscxml::Blob">
<polygon fill="white" stroke="black" points="0,-0.563632 0,-19.5636 73,-19.5636 73,-0.563632 0,-0.563632"/>
<text text-anchor="middle" x="36.5" y="-7.56363" font-family="Helvetica,sans-Serif" font-size="10.00">uscxml::Blob</text>
</a>
</g>
</g>
<!-- Node20&#45;&gt;Node19 -->
<g id="edge21" class="edge"><title>Node20&#45;&gt;Node19</title>
<path fill="none" stroke="#9a32cd" stroke-dasharray="5,2" d="M83.413,-10.0636C106.998,-10.0636 135.324,-10.0636 157.337,-10.0636"/>
<polygon fill="#9a32cd" stroke="#9a32cd" points="83.2896,-6.56373 73.2896,-10.0636 83.2895,-13.5637 83.2896,-6.56373"/>
<text text-anchor="middle" x="106.5" y="-13.0636" font-family="Helvetica,sans-Serif" font-size="10.00"> binary</text>
</g>
</g>
</svg>
