<?xml version="1.0" encoding="UTF-8" standalone="no"?>
<!DOCTYPE svg PUBLIC "-//W3C//DTD SVG 1.1//EN"
 "http://www.w3.org/Graphics/SVG/1.1/DTD/svg11.dtd">
<!-- Generated by graphviz version 2.38.0 (20140413.2041)
 -->
<!-- Title: uscxml::JSCDataModel Pages: 1 -->
<svg width="246pt" height="229pt"
 viewBox="0.00 0.00 245.50 229.00" xmlns="http://www.w3.org/2000/svg" xmlns:xlink="http://www.w3.org/1999/xlink">
<g id="graph0" class="graph" transform="scale(1 1) rotate(0) translate(4 225)">
<title>uscxml::JSCDataModel</title>
<polygon fill="white" stroke="none" points="-4,4 -4,-225 241.5,-225 241.5,4 -4,4"/>
<!-- Node1 -->
<g id="node1" class="node"><title>Node1</title>
<polygon fill="#bfbfbf" stroke="black" points="84.5,-0.5 84.5,-19.5 204.5,-19.5 204.5,-0.5 84.5,-0.5"/>
<text text-anchor="middle" x="144.5" y="-7.5" font-family="Helvetica,sans-Serif" font-size="10.00">uscxml::JSCDataModel</text>
</g>
<!-- Node2 -->
<g id="node2" class="node"><title>Node2</title>
<g id="a_node2"><a xlink:href="classuscxml_1_1_data_model_impl.html" target="_top" xlink:title="Abstract base class for all data&#45;model implementations. ">
<polygon fill="white" stroke="black" points="14.5,-67.5 14.5,-86.5 134.5,-86.5 134.5,-67.5 14.5,-67.5"/>
<text text-anchor="middle" x="74.5" y="-74.5" font-family="Helvetica,sans-Serif" font-size="10.00">uscxml::DataModelImpl</text>
</a>
</g>
</g>
<!-- Node2&#45;&gt;Node1 -->
<g id="edge1" class="edge"><title>Node2&#45;&gt;Node1</title>
<path fill="none" stroke="midnightblue" d="M91.347,-60.3564C105.109,-47.5777 124.048,-29.9915 135.209,-19.6273"/>
<polygon fill="midnightblue" stroke="midnightblue" points="88.8869,-57.8645 83.9405,-67.2338 93.6501,-62.9941 88.8869,-57.8645"/>
</g>
<!-- Node3 -->
<g id="node3" class="node"><title>Node3</title>
<g id="a_node3"><a xlink:href="classuscxml_1_1_data_model_callbacks.html" target="_top" xlink:title="Callbacks available for every data&#45;model. ">
<polygon fill="white" stroke="black" points="0,-134.5 0,-153.5 145,-153.5 145,-134.5 0,-134.5"/>
<text text-anchor="middle" x="72.5" y="-141.5" font-family="Helvetica,sans-Serif" font-size="10.00">uscxml::DataModelCallbacks</text>
</a>
</g>
</g>
<!-- Node3&#45;&gt;Node2 -->
<g id="edge2" class="edge"><title>Node3&#45;&gt;Node2</title>
<path fill="none" stroke="#9a32cd" stroke-dasharray="5,2" d="M73.0835,-124.037C73.464,-111.67 73.9425,-96.1198 74.2345,-86.6273"/>
<polygon fill="#9a32cd" stroke="#9a32cd" points="69.579,-124.131 72.7697,-134.234 76.5757,-124.346 69.579,-124.131"/>
<text text-anchor="middle" x="99.5" y="-108" font-family="Helvetica,sans-Serif" font-size="10.00"> _callbacks</text>
</g>
<!-- Node4 -->
<g id="node4" class="node"><title>Node4</title>
<g id="a_node4"><a xlink:href="classuscxml_1_1_event.html" target="_top" xlink:title="uscxml::Event">
<polygon fill="white" stroke="black" points="154,-67.5 154,-86.5 233,-86.5 233,-67.5 154,-67.5"/>
<text text-anchor="middle" x="193.5" y="-74.5" font-family="Helvetica,sans-Serif" font-size="10.00">uscxml::Event</text>
</a>
</g>
</g>
<!-- Node4&#45;&gt;Node1 -->
<g id="edge3" class="edge"><title>Node4&#45;&gt;Node1</title>
<path fill="none" stroke="#9a32cd" stroke-dasharray="5,2" d="M180.612,-58.9037C171.09,-46.2729 158.525,-29.6041 151.004,-19.6273"/>
<polygon fill="#9a32cd" stroke="#9a32cd" points="178.077,-61.3554 186.892,-67.2338 183.667,-57.1417 178.077,-61.3554"/>
<text text-anchor="middle" x="188" y="-41" font-family="Helvetica,sans-Serif" font-size="10.00"> _event</text>
</g>
<!-- Node5 -->
<g id="node5" class="node"><title>Node5</title>
<g id="a_node5"><a xlink:href="classuscxml_1_1_data.html" target="_top" xlink:title="uscxml::Data">
<polygon fill="white" stroke="black" points="163.5,-134.5 163.5,-153.5 237.5,-153.5 237.5,-134.5 163.5,-134.5"/>
<text text-anchor="middle" x="200.5" y="-141.5" font-family="Helvetica,sans-Serif" font-size="10.00">uscxml::Data</text>
</a>
</g>
</g>
<!-- Node5&#45;&gt;Node4 -->
<g id="edge4" class="edge"><title>Node5&#45;&gt;Node4</title>
<path fill="none" stroke="#9a32cd" stroke-dasharray="5,2" d="M198.458,-124.037C197.126,-111.67 195.451,-96.1198 194.429,-86.6273"/>
<polygon fill="#9a32cd" stroke="#9a32cd" points="195.005,-124.666 199.556,-134.234 201.965,-123.917 195.005,-124.666"/>
<text text-anchor="middle" x="208" y="-108" font-family="Helvetica,sans-Serif" font-size="10.00"> data</text>
</g>
<!-- Node6 -->
<g id="node6" class="node"><title>Node6</title>
<g id="a_node6"><a xlink:href="classuscxml_1_1_blob.html" target="_top" xlink:title="uscxml::Blob">
<polygon fill="white" stroke="black" points="164,-201.5 164,-220.5 237,-220.5 237,-201.5 164,-201.5"/>
<text text-anchor="middle" x="200.5" y="-208.5" font-family="Helvetica,sans-Serif" font-size="10.00">uscxml::Blob</text>
</a>
</g>
</g>
<!-- Node6&#45;&gt;Node5 -->
<g id="edge5" class="edge"><title>Node6&#45;&gt;Node5</title>
<path fill="none" stroke="#9a32cd" stroke-dasharray="5,2" d="M200.5,-191.037C200.5,-178.67 200.5,-163.12 200.5,-153.627"/>
<polygon fill="#9a32cd" stroke="#9a32cd" points="197,-191.234 200.5,-201.234 204,-191.234 197,-191.234"/>
<text text-anchor="middle" x="216" y="-175" font-family="Helvetica,sans-Serif" font-size="10.00"> binary</text>
</g>
</g>
</svg>
