<?xml version="1.0" encoding="UTF-8" standalone="no"?>
<!DOCTYPE svg PUBLIC "-//W3C//DTD SVG 1.1//EN"
 "http://www.w3.org/Graphics/SVG/1.1/DTD/svg11.dtd">
<!-- Generated by graphviz version 2.38.0 (20140413.2041)
 -->
<!-- Title: uscxml::PromelaEventSource Pages: 1 -->
<svg width="285pt" height="164pt"
 viewBox="0.00 0.00 285.00 164.00" xmlns="http://www.w3.org/2000/svg" xmlns:xlink="http://www.w3.org/1999/xlink">
<g id="graph0" class="graph" transform="scale(1 1) rotate(0) translate(4 160)">
<title>uscxml::PromelaEventSource</title>
<polygon fill="white" stroke="none" points="-4,4 -4,-160 281,-160 281,4 -4,4"/>
<!-- Node1 -->
<g id="node1" class="node"><title>Node1</title>
<polygon fill="#bfbfbf" stroke="black" points="93,-0.5 93,-19.5 241,-19.5 241,-0.5 93,-0.5"/>
<text text-anchor="middle" x="167" y="-7.5" font-family="Helvetica,sans-Serif" font-size="10.00">uscxml::PromelaEventSource</text>
</g>
<!-- Node2 -->
<g id="node2" class="node"><title>Node2</title>
<g id="a_node2"><a xlink:href="classuscxml_1_1_promela_inline.html" target="_top" xlink:title="uscxml::PromelaInline">
<polygon fill="white" stroke="black" points="0,-68.5 0,-87.5 114,-87.5 114,-68.5 0,-68.5"/>
<text text-anchor="middle" x="57" y="-75.5" font-family="Helvetica,sans-Serif" font-size="10.00">uscxml::PromelaInline</text>
</a>
</g>
</g>
<!-- Node2&#45;&gt;Node1 -->
<g id="edge1" class="edge"><title>Node2&#45;&gt;Node1</title>
<path fill="none" stroke="midnightblue" d="M80.0591,-63.1646C101.949,-50.0309 134.168,-30.6993 152.616,-19.6305"/>
<polygon fill="midnightblue" stroke="midnightblue" points="78.1548,-60.2254 71.3806,-68.3717 81.7563,-66.2279 78.1548,-60.2254"/>
</g>
<!-- Node2&#45;&gt;Node2 -->
<g id="edge2" class="edge"><title>Node2&#45;&gt;Node2</title>
<path fill="none" stroke="#9a32cd" stroke-dasharray="5,2" d="M124.441,-82.6413C129.138,-81.5808 132,-80.0337 132,-78 132,-74.7461 124.673,-72.7378 114.226,-71.9752"/>
<polygon fill="#9a32cd" stroke="#9a32cd" points="123.665,-79.2143 114.226,-84.0248 124.605,-86.151 123.665,-79.2143"/>
<text text-anchor="middle" x="158.5" y="-81" font-family="Helvetica,sans-Serif" font-size="10.00"> prevSibling</text>
<text text-anchor="middle" x="158.5" y="-70" font-family="Helvetica,sans-Serif" font-size="10.00">nextSibling</text>
</g>
<!-- Node3 -->
<g id="node3" class="node"><title>Node3</title>
<g id="a_node3"><a xlink:href="classuscxml_1_1_data.html" target="_top" xlink:title="uscxml::Data">
<polygon fill="white" stroke="black" points="203,-68.5 203,-87.5 277,-87.5 277,-68.5 203,-68.5"/>
<text text-anchor="middle" x="240" y="-75.5" font-family="Helvetica,sans-Serif" font-size="10.00">uscxml::Data</text>
</a>
</g>
</g>
<!-- Node3&#45;&gt;Node1 -->
<g id="edge3" class="edge"><title>Node3&#45;&gt;Node1</title>
<path fill="none" stroke="#9a32cd" stroke-dasharray="5,2" d="M222.759,-61.4122C208.418,-48.4468 188.519,-30.4559 176.779,-19.8411"/>
<polygon fill="#9a32cd" stroke="#9a32cd" points="220.691,-64.2614 230.457,-68.3717 225.386,-59.0689 220.691,-64.2614"/>
<text text-anchor="middle" x="223.5" y="-41" font-family="Helvetica,sans-Serif" font-size="10.00"> events</text>
</g>
<!-- Node4 -->
<g id="node4" class="node"><title>Node4</title>
<g id="a_node4"><a xlink:href="classuscxml_1_1_blob.html" target="_top" xlink:title="uscxml::Blob">
<polygon fill="white" stroke="black" points="203.5,-136.5 203.5,-155.5 276.5,-155.5 276.5,-136.5 203.5,-136.5"/>
<text text-anchor="middle" x="240" y="-143.5" font-family="Helvetica,sans-Serif" font-size="10.00">uscxml::Blob</text>
</a>
</g>
</g>
<!-- Node4&#45;&gt;Node3 -->
<g id="edge4" class="edge"><title>Node4&#45;&gt;Node3</title>
<path fill="none" stroke="#9a32cd" stroke-dasharray="5,2" d="M240,-126.041C240,-113.472 240,-97.5631 240,-87.8411"/>
<polygon fill="#9a32cd" stroke="#9a32cd" points="236.5,-126.372 240,-136.372 243.5,-126.372 236.5,-126.372"/>
<text text-anchor="middle" x="255.5" y="-110" font-family="Helvetica,sans-Serif" font-size="10.00"> binary</text>
</g>
</g>
</svg>
