<?xml version="1.0" encoding="UTF-8" standalone="no"?>
<!DOCTYPE svg PUBLIC "-//W3C//DTD SVG 1.1//EN"
 "http://www.w3.org/Graphics/SVG/1.1/DTD/svg11.dtd">
<!-- Generated by graphviz version 2.38.0 (20140413.2041)
 -->
<!-- Title: uscxml::DebuggerServlet::LogMessage Pages: 1 -->
<svg width="136pt" height="163pt"
 viewBox="0.00 0.00 136.00 163.00" xmlns="http://www.w3.org/2000/svg" xmlns:xlink="http://www.w3.org/1999/xlink">
<g id="graph0" class="graph" transform="scale(1 1) rotate(0) translate(4 159)">
<title>uscxml::DebuggerServlet::LogMessage</title>
<polygon fill="white" stroke="none" points="-4,4 -4,-159 132,-159 132,4 -4,4"/>
<!-- Node1 -->
<g id="node1" class="node"><title>Node1</title>
<polygon fill="#bfbfbf" stroke="black" points="0,-0.5 0,-30.5 128,-30.5 128,-0.5 0,-0.5"/>
<text text-anchor="start" x="8" y="-18.5" font-family="Helvetica,sans-Serif" font-size="10.00">uscxml::DebuggerServlet</text>
<text text-anchor="middle" x="64" y="-7.5" font-family="Helvetica,sans-Serif" font-size="10.00">::LogMessage</text>
</g>
<!-- Node2 -->
<g id="node2" class="node"><title>Node2</title>
<g id="a_node2"><a xlink:href="classuscxml_1_1_data.html" target="_top" xlink:title="uscxml::Data">
<polygon fill="white" stroke="black" points="27,-68.5 27,-87.5 101,-87.5 101,-68.5 27,-68.5"/>
<text text-anchor="middle" x="64" y="-75.5" font-family="Helvetica,sans-Serif" font-size="10.00">uscxml::Data</text>
</a>
</g>
</g>
<!-- Node2&#45;&gt;Node1 -->
<g id="edge1" class="edge"><title>Node2&#45;&gt;Node1</title>
<path fill="none" stroke="midnightblue" d="M64,-58.2154C64,-49.3565 64,-38.9577 64,-30.7587"/>
<polygon fill="midnightblue" stroke="midnightblue" points="60.5001,-58.3318 64,-68.3318 67.5001,-58.3319 60.5001,-58.3318"/>
</g>
<!-- Node3 -->
<g id="node3" class="node"><title>Node3</title>
<g id="a_node3"><a xlink:href="classuscxml_1_1_blob.html" target="_top" xlink:title="uscxml::Blob">
<polygon fill="white" stroke="black" points="27.5,-135.5 27.5,-154.5 100.5,-154.5 100.5,-135.5 27.5,-135.5"/>
<text text-anchor="middle" x="64" y="-142.5" font-family="Helvetica,sans-Serif" font-size="10.00">uscxml::Blob</text>
</a>
</g>
</g>
<!-- Node3&#45;&gt;Node2 -->
<g id="edge2" class="edge"><title>Node3&#45;&gt;Node2</title>
<path fill="none" stroke="#9a32cd" stroke-dasharray="5,2" d="M64,-125.037C64,-112.67 64,-97.1198 64,-87.6273"/>
<polygon fill="#9a32cd" stroke="#9a32cd" points="60.5001,-125.234 64,-135.234 67.5001,-125.234 60.5001,-125.234"/>
<text text-anchor="middle" x="79.5" y="-109" font-family="Helvetica,sans-Serif" font-size="10.00"> binary</text>
</g>
</g>
</svg>
