<?xml version="1.0" encoding="UTF-8" standalone="no"?>
<!DOCTYPE svg PUBLIC "-//W3C//DTD SVG 1.1//EN"
 "http://www.w3.org/Graphics/SVG/1.1/DTD/svg11.dtd">
<!-- Generated by graphviz version 2.40.1 (20161225.0304)
 -->
<!-- Title: uscxml::InterpreterImpl Pages: 1 -->
<!--zoomable 830 -->
<svg id="main" version="1.1" xmlns="http://www.w3.org/2000/svg" xmlns:xlink="http://www.w3.org/1999/xlink" xml:space="preserve" onload="init(evt)">
<style type="text/css"><![CDATA[
.edge:hover path { stroke: red; }
.edge:hover polygon { stroke: red; fill: red; }
]]></style>
<script type="text/javascript"><![CDATA[
var edges = document.getElementsByTagName('g');
if (edges && edges.length) {
  for (var i=0;i<edges.length;i++) {
    if (edges[i].id.substr(0,4)=='edge') {
      edges[i].setAttribute('class','edge');
    }
  }
}
]]></script>
        <defs>
                <circle id="rim" cx="0" cy="0" r="7"/>
                <circle id="rim2" cx="0" cy="0" r="3.5"/>
                <g id="zoomPlus">
                        <use xlink:href="#rim" fill="#404040">
                                <set attributeName="fill" to="#808080" begin="zoomplus.mouseover" end="zoomplus.mouseout"/>
                        </use>
                        <path d="M-4,0h8M0,-4v8" fill="none" stroke="white" stroke-width="1.5" pointer-events="none"/>
                </g>
                <g id="zoomMin">
                        <use xlink:href="#rim" fill="#404040">
                                <set attributeName="fill" to="#808080" begin="zoomminus.mouseover" end="zoomminus.mouseout"/>
                        </use>
                        <path d="M-4,0h8" fill="none" stroke="white" stroke-width="1.5" pointer-events="none"/>
                </g>
                <g id="dirArrow">
                        <path fill="none" stroke="white" stroke-width="1.5" d="M0,-3.0v7 M-2.5,-0.5L0,-3.0L2.5,-0.5"/>
                </g>
               <g id="resetDef">
                       <use xlink:href="#rim2" fill="#404040">
                               <set attributeName="fill" to="#808080" begin="reset.mouseover" end="reset.mouseout"/>
                       </use>
               </g>
        </defs>

<script type="text/javascript">
var viewWidth = 815;
var viewHeight = 830;
var sectionId = 'dynsection-1';
</script>
<script xlink:href="svgpan.js"/>
<svg id="graph" class="graph">
<g id="viewport">
<title>uscxml::InterpreterImpl</title>
<polygon fill="#ffffff" stroke="transparent" points="-4,4 -4,-825.795 811,-825.795 811,4 -4,4"/>
<!-- Node8 -->
<g id="node1" class="node">
<title>Node8</title>
<polygon fill="#bfbfbf" stroke="#000000" points="689,-451.295 689,-470.295 807,-470.295 807,-451.295 689,-451.295"/>
<text text-anchor="middle" x="748" y="-458.295" font-family="Helvetica,sans-Serif" font-size="10.00" fill="#000000">uscxml::InterpreterImpl</text>
</g>
<!-- Node9 -->
<g id="node2" class="node">
<title>Node9</title>
<g id="a_node2"><a xlink:href="classuscxml_1_1_micro_step_callbacks.html" target="_top" xlink:title="uscxml::MicroStepCallbacks">
<polygon fill="#ffffff" stroke="#000000" points="443.5,-802.295 443.5,-821.295 585.5,-821.295 585.5,-802.295 443.5,-802.295"/>
<text text-anchor="middle" x="514.5" y="-809.295" font-family="Helvetica,sans-Serif" font-size="10.00" fill="#000000">uscxml::MicroStepCallbacks</text>
</a>
</g>
</g>
<!-- Node9&#45;&gt;Node8 -->
<g id="edge1" class="edge">
<title>Node9&#45;&gt;Node8</title>
<path fill="none" stroke="#191970" d="M584.4027,-799.1958C589.7894,-797.3433 595.0511,-795.2224 600,-792.795 636.8363,-774.7272 648.6466,-768.1997 671,-733.795 729.8914,-643.1536 744.4015,-507.246 747.342,-470.3337"/>
<polygon fill="#191970" stroke="#191970" points="583.1169,-795.9305 574.6122,-802.2488 585.2008,-802.6131 583.1169,-795.9305"/>
</g>
<!-- Node10 -->
<g id="node3" class="node">
<title>Node10</title>
<g id="a_node3"><a xlink:href="classuscxml_1_1_data_model_callbacks.html" target="_top" xlink:title="Callbacks available for every data&#45;model. ">
<polygon fill="#ffffff" stroke="#000000" points="442,-764.295 442,-783.295 587,-783.295 587,-764.295 442,-764.295"/>
<text text-anchor="middle" x="514.5" y="-771.295" font-family="Helvetica,sans-Serif" font-size="10.00" fill="#000000">uscxml::DataModelCallbacks</text>
</a>
</g>
</g>
<!-- Node10&#45;&gt;Node8 -->
<g id="edge2" class="edge">
<title>Node10&#45;&gt;Node8</title>
<path fill="none" stroke="#191970" d="M584.7033,-761.1444C589.9878,-759.3046 595.1464,-757.2006 600,-754.795 637.017,-736.4482 647.8932,-729.0432 671,-694.795 722.667,-618.2159 741.9633,-504.2761 746.732,-470.5396"/>
<polygon fill="#191970" stroke="#191970" points="583.5756,-757.8301 575.0936,-764.1788 585.6834,-764.5052 583.5756,-757.8301"/>
</g>
<!-- Node11 -->
<g id="node4" class="node">
<title>Node11</title>
<g id="a_node4"><a xlink:href="classuscxml_1_1_i_o_processor_callbacks.html" target="_top" xlink:title="Callbacks available for every IO processor. ">
<polygon fill="#ffffff" stroke="#000000" points="438.5,-726.295 438.5,-745.295 590.5,-745.295 590.5,-726.295 438.5,-726.295"/>
<text text-anchor="middle" x="514.5" y="-733.295" font-family="Helvetica,sans-Serif" font-size="10.00" fill="#000000">uscxml::IOProcessorCallbacks</text>
</a>
</g>
</g>
<!-- Node11&#45;&gt;Node8 -->
<g id="edge3" class="edge">
<title>Node11&#45;&gt;Node8</title>
<path fill="none" stroke="#191970" d="M584.7252,-723.1884C590.0048,-721.3387 595.1562,-719.2204 600,-716.795 637.1996,-698.1682 646.8768,-689.6895 671,-655.795 715.7433,-592.928 739.1864,-500.4552 745.9232,-470.5248"/>
<polygon fill="#191970" stroke="#191970" points="583.5949,-719.875 575.1222,-726.2361 585.7124,-726.5471 583.5949,-719.875"/>
</g>
<!-- Node12 -->
<g id="node5" class="node">
<title>Node12</title>
<g id="a_node5"><a xlink:href="classuscxml_1_1_content_executor_callbacks.html" target="_top" xlink:title="uscxml::ContentExecutorCallbacks">
<polygon fill="#ffffff" stroke="#000000" points="429,-688.295 429,-707.295 600,-707.295 600,-688.295 429,-688.295"/>
<text text-anchor="middle" x="514.5" y="-695.295" font-family="Helvetica,sans-Serif" font-size="10.00" fill="#000000">uscxml::ContentExecutorCallbacks</text>
</a>
</g>
</g>
<!-- Node12&#45;&gt;Node8 -->
<g id="edge4" class="edge">
<title>Node12&#45;&gt;Node8</title>
<path fill="none" stroke="#191970" d="M584.747,-685.2317C590.0217,-683.3722 595.166,-681.2399 600,-678.795 637.384,-659.8874 645.4558,-649.9997 671,-616.795 709.121,-567.2417 735.9376,-495.8289 744.8068,-470.3066"/>
<polygon fill="#191970" stroke="#191970" points="583.6141,-681.9192 575.1506,-688.2926 585.7413,-688.5882 583.6141,-681.9192"/>
</g>
<!-- Node13 -->
<g id="node6" class="node">
<title>Node13</title>
<g id="a_node6"><a xlink:href="classuscxml_1_1_delayed_event_queue_callbacks.html" target="_top" xlink:title="uscxml::DelayedEventQueue\lCallbacks">
<polygon fill="#ffffff" stroke="#000000" points="442,-638.795 442,-668.795 587,-668.795 587,-638.795 442,-638.795"/>
<text text-anchor="start" x="450" y="-656.795" font-family="Helvetica,sans-Serif" font-size="10.00" fill="#000000">uscxml::DelayedEventQueue</text>
<text text-anchor="middle" x="514.5" y="-645.795" font-family="Helvetica,sans-Serif" font-size="10.00" fill="#000000">Callbacks</text>
</a>
</g>
</g>
<!-- Node13&#45;&gt;Node8 -->
<g id="edge5" class="edge">
<title>Node13&#45;&gt;Node8</title>
<path fill="none" stroke="#191970" d="M585.8185,-635.343C615.1637,-624.8071 647.6698,-608.9497 671,-585.795 707.3627,-549.7058 734.0928,-493.2291 743.9,-470.6276"/>
<polygon fill="#191970" stroke="#191970" points="584.3255,-632.1551 576.0057,-638.7149 586.6003,-638.7751 584.3255,-632.1551"/>
</g>
<!-- Node14 -->
<g id="node7" class="node">
<title>Node14</title>
<g id="a_node7"><a xlink:href="classuscxml_1_1_invoker_callbacks.html" target="_top" xlink:title="Callbacks available for every invoker. ">
<polygon fill="#ffffff" stroke="#000000" points="450,-600.295 450,-619.295 579,-619.295 579,-600.295 450,-600.295"/>
<text text-anchor="middle" x="514.5" y="-607.295" font-family="Helvetica,sans-Serif" font-size="10.00" fill="#000000">uscxml::InvokerCallbacks</text>
</a>
</g>
</g>
<!-- Node14&#45;&gt;Node8 -->
<g id="edge6" class="edge">
<title>Node14&#45;&gt;Node8</title>
<path fill="none" stroke="#191970" d="M583.2008,-597.8491C612.5319,-590.1457 645.7467,-577.6979 671,-557.795 703.7606,-531.9754 731.088,-489.5835 742.4031,-470.5643"/>
<polygon fill="#191970" stroke="#191970" points="582.2782,-594.4719 573.4197,-600.2836 583.969,-601.2646 582.2782,-594.4719"/>
</g>
<!-- Node15 -->
<g id="node8" class="node">
<title>Node15</title>
<polygon fill="#ffffff" stroke="#bfbfbf" points="442,-550.795 442,-580.795 587,-580.795 587,-550.795 442,-550.795"/>
<text text-anchor="start" x="450" y="-568.795" font-family="Helvetica,sans-Serif" font-size="10.00" fill="#000000">std::enable_shared</text>
<text text-anchor="middle" x="514.5" y="-557.795" font-family="Helvetica,sans-Serif" font-size="10.00" fill="#000000">_from_this&lt; InterpreterImpl &gt;</text>
</g>
<!-- Node15&#45;&gt;Node8 -->
<g id="edge7" class="edge">
<title>Node15&#45;&gt;Node8</title>
<path fill="none" stroke="#191970" d="M597.1954,-558.4083C621.9257,-553.8665 648.4417,-546.5546 671,-534.795 701.7443,-518.7679 728.6591,-486.6702 740.9344,-470.5318"/>
<polygon fill="#191970" stroke="#191970" points="596.3593,-555.0003 587.0903,-560.1322 597.5365,-561.9006 596.3593,-555.0003"/>
</g>
<!-- Node16 -->
<g id="node9" class="node">
<title>Node16</title>
<g id="a_node9"><a xlink:href="classuscxml_1_1_micro_step.html" target="_top" xlink:title="uscxml::MicroStep">
<polygon fill="#ffffff" stroke="#000000" points="199.5,-480.295 199.5,-499.295 297.5,-499.295 297.5,-480.295 199.5,-480.295"/>
<text text-anchor="middle" x="248.5" y="-487.295" font-family="Helvetica,sans-Serif" font-size="10.00" fill="#000000">uscxml::MicroStep</text>
</a>
</g>
</g>
<!-- Node16&#45;&gt;Node8 -->
<g id="edge8" class="edge">
<title>Node16&#45;&gt;Node8</title>
<path fill="none" stroke="#9a32cd" stroke-dasharray="5,2" d="M307.7243,-487.559C338.5307,-486.3161 376.8006,-484.6477 411,-482.795 508.4785,-477.5143 621.7125,-469.7965 688.9733,-465.0454"/>
<polygon fill="#9a32cd" stroke="#9a32cd" points="307.4321,-484.0678 297.5797,-487.9639 307.7113,-491.0622 307.4321,-484.0678"/>
<text text-anchor="middle" x="514.5" y="-483.795" font-family="Helvetica,sans-Serif" font-size="10.00" fill="#000000"> _microStepper</text>
</g>
<!-- Node19 -->
<g id="node12" class="node">
<title>Node19</title>
<g id="a_node12"><a xlink:href="classuscxml_1_1_action_language.html" target="_top" xlink:title="Collection of instances for interpreter that constitute its action language. ">
<polygon fill="#ffffff" stroke="#000000" points="452,-418.295 452,-437.295 577,-437.295 577,-418.295 452,-418.295"/>
<text text-anchor="middle" x="514.5" y="-425.295" font-family="Helvetica,sans-Serif" font-size="10.00" fill="#000000">uscxml::ActionLanguage</text>
</a>
</g>
</g>
<!-- Node16&#45;&gt;Node19 -->
<g id="edge12" class="edge">
<title>Node16&#45;&gt;Node19</title>
<path fill="none" stroke="#9a32cd" stroke-dasharray="5,2" d="M299.234,-477.9698C349.8332,-466.176 426.5919,-448.2848 473.4739,-437.3575"/>
<polygon fill="#9a32cd" stroke="#9a32cd" points="298.424,-474.5647 289.4796,-480.2434 300.013,-481.3819 298.424,-474.5647"/>
<text text-anchor="middle" x="375" y="-470.795" font-family="Helvetica,sans-Serif" font-size="10.00" fill="#000000"> microStepper</text>
</g>
<!-- Node17 -->
<g id="node10" class="node">
<title>Node17</title>
<g id="a_node10"><a xlink:href="classuscxml_1_1_delayed_event_queue.html" target="_top" xlink:title="uscxml::DelayedEventQueue">
<polygon fill="#ffffff" stroke="#000000" points="176,-520.295 176,-539.295 321,-539.295 321,-520.295 176,-520.295"/>
<text text-anchor="middle" x="248.5" y="-527.295" font-family="Helvetica,sans-Serif" font-size="10.00" fill="#000000">uscxml::DelayedEventQueue</text>
</a>
</g>
</g>
<!-- Node17&#45;&gt;Node8 -->
<g id="edge9" class="edge">
<title>Node17&#45;&gt;Node8</title>
<path fill="none" stroke="#9a32cd" stroke-dasharray="5,2" d="M331.2643,-530.7465C333.8729,-530.7647 336.4565,-530.7809 339,-530.795 370.9995,-530.9718 379.134,-533.7207 411,-530.795 528.0973,-520.044 556.5194,-508.6565 671,-481.795 685.5691,-478.3765 701.5499,-474.1048 715.1582,-470.3082"/>
<polygon fill="#9a32cd" stroke="#9a32cd" points="331.1382,-527.2455 321.1113,-530.6678 331.0839,-534.2453 331.1382,-527.2455"/>
<text text-anchor="middle" x="514.5" y="-531.795" font-family="Helvetica,sans-Serif" font-size="10.00" fill="#000000"> _delayQueue</text>
</g>
<!-- Node17&#45;&gt;Node19 -->
<g id="edge13" class="edge">
<title>Node17&#45;&gt;Node19</title>
<path fill="none" stroke="#9a32cd" stroke-dasharray="5,2" d="M331.1541,-518.6111C358.678,-511.7455 388.12,-500.6676 411,-482.795 423.5554,-472.9874 416.406,-461.553 429,-451.795 437.1655,-445.4683 446.9133,-440.8092 456.8559,-437.3784"/>
<polygon fill="#9a32cd" stroke="#9a32cd" points="330.0585,-515.2727 321.1163,-520.9548 331.6502,-522.0894 330.0585,-515.2727"/>
<text text-anchor="middle" x="375" y="-518.795" font-family="Helvetica,sans-Serif" font-size="10.00" fill="#000000"> delayQueue</text>
</g>
<!-- Node18 -->
<g id="node11" class="node">
<title>Node18</title>
<g id="a_node11"><a xlink:href="classuscxml_1_1_event_queue.html" target="_top" xlink:title="uscxml::EventQueue">
<polygon fill="#ffffff" stroke="#000000" points="0,-428.295 0,-447.295 109,-447.295 109,-428.295 0,-428.295"/>
<text text-anchor="middle" x="54.5" y="-435.295" font-family="Helvetica,sans-Serif" font-size="10.00" fill="#000000">uscxml::EventQueue</text>
</a>
</g>
</g>
<!-- Node18&#45;&gt;Node8 -->
<g id="edge22" class="edge">
<title>Node18&#45;&gt;Node8</title>
<path fill="none" stroke="#9a32cd" stroke-dasharray="5,2" d="M61.2114,-418.7574C75.7204,-380.5437 113.8084,-294.5102 176,-251.795 263.043,-192.0109 305.7977,-207.6796 411,-216.795 531.1932,-227.2093 591.4401,-204.1028 671,-294.795 714.7864,-344.7081 738.3998,-423.7647 745.5944,-451.1108"/>
<polygon fill="#9a32cd" stroke="#9a32cd" points="57.9085,-417.5983 57.7439,-428.1918 64.4788,-420.0131 57.9085,-417.5983"/>
<text text-anchor="middle" x="375" y="-241.795" font-family="Helvetica,sans-Serif" font-size="10.00" fill="#000000"> _parentQueue</text>
<text text-anchor="middle" x="375" y="-230.795" font-family="Helvetica,sans-Serif" font-size="10.00" fill="#000000">_externalQueue</text>
<text text-anchor="middle" x="375" y="-219.795" font-family="Helvetica,sans-Serif" font-size="10.00" fill="#000000">_internalQueue</text>
</g>
<!-- Node18&#45;&gt;Node17 -->
<g id="edge10" class="edge">
<title>Node18&#45;&gt;Node17</title>
<path fill="none" stroke="#191970" d="M77.099,-453.2995C100.8497,-469.0336 139.7293,-493.229 176,-508.795 186.3562,-513.2395 197.9362,-517.0677 208.7491,-520.1923"/>
<polygon fill="#191970" stroke="#191970" points="78.7368,-450.1837 68.482,-447.521 74.8381,-455.9975 78.7368,-450.1837"/>
</g>
<!-- Node18&#45;&gt;Node19 -->
<g id="edge16" class="edge">
<title>Node18&#45;&gt;Node19</title>
<path fill="none" stroke="#9a32cd" stroke-dasharray="5,2" d="M119.2319,-436.3878C207.5463,-434.4679 364.7527,-431.0504 451.9274,-429.1553"/>
<polygon fill="#9a32cd" stroke="#9a32cd" points="118.996,-432.892 109.0744,-436.6086 119.1482,-439.8903 118.996,-432.892"/>
<text text-anchor="middle" x="248.5" y="-448.795" font-family="Helvetica,sans-Serif" font-size="10.00" fill="#000000"> internalQueue</text>
<text text-anchor="middle" x="248.5" y="-437.795" font-family="Helvetica,sans-Serif" font-size="10.00" fill="#000000">externalQueue</text>
</g>
<!-- Node19&#45;&gt;Node8 -->
<g id="edge11" class="edge">
<title>Node19&#45;&gt;Node8</title>
<path fill="none" stroke="#9a32cd" stroke-dasharray="5,2" d="M587.2873,-437.2358C613.6721,-440.7441 643.6957,-444.8359 671,-448.795 676.7574,-449.6298 682.7532,-450.5227 688.7447,-451.4307"/>
<polygon fill="#9a32cd" stroke="#9a32cd" points="587.7396,-433.7652 577.3665,-435.9213 586.8201,-440.7046 587.7396,-433.7652"/>
<text text-anchor="middle" x="644.5" y="-451.795" font-family="Helvetica,sans-Serif" font-size="10.00" fill="#000000"> _al</text>
</g>
<!-- Node20 -->
<g id="node13" class="node">
<title>Node20</title>
<g id="a_node13"><a xlink:href="classuscxml_1_1_data_model.html" target="_top" xlink:title="The facade for data&#45;models. ">
<polygon fill="#ffffff" stroke="#000000" points="197.5,-316.295 197.5,-335.295 299.5,-335.295 299.5,-316.295 197.5,-316.295"/>
<text text-anchor="middle" x="248.5" y="-323.295" font-family="Helvetica,sans-Serif" font-size="10.00" fill="#000000">uscxml::DataModel</text>
</a>
</g>
</g>
<!-- Node20&#45;&gt;Node8 -->
<g id="edge19" class="edge">
<title>Node20&#45;&gt;Node8</title>
<path fill="none" stroke="#9a32cd" stroke-dasharray="5,2" d="M284.3479,-312.9936C300.7727,-307.7812 320.6346,-302.3808 339,-299.795 370.6875,-295.3334 379.4255,-294.5941 411,-299.795 532.8496,-319.8659 566.7776,-331.554 671,-397.795 696.6559,-414.1012 723.4295,-437.7637 737.6575,-450.9604"/>
<polygon fill="#9a32cd" stroke="#9a32cd" points="283.0204,-309.7455 274.6093,-316.188 285.2021,-316.3969 283.0204,-309.7455"/>
<text text-anchor="middle" x="514.5" y="-357.795" font-family="Helvetica,sans-Serif" font-size="10.00" fill="#000000"> _dataModel</text>
</g>
<!-- Node20&#45;&gt;Node19 -->
<g id="edge14" class="edge">
<title>Node20&#45;&gt;Node19</title>
<path fill="none" stroke="#9a32cd" stroke-dasharray="5,2" d="M287.7454,-338.6235C320.9677,-349.8195 369.6428,-367.0181 411,-384.795 419.2173,-388.3271 420.837,-390.1391 429,-393.795 448.8275,-402.6748 471.7186,-411.7155 488.8225,-418.2401"/>
<polygon fill="#9a32cd" stroke="#9a32cd" points="288.5502,-335.2021 277.9563,-335.3476 286.3287,-341.8403 288.5502,-335.2021"/>
<text text-anchor="middle" x="375" y="-387.795" font-family="Helvetica,sans-Serif" font-size="10.00" fill="#000000"> dataModel</text>
</g>
<!-- Node21 -->
<g id="node14" class="node">
<title>Node21</title>
<g id="a_node14"><a xlink:href="classuscxml_1_1_logger.html" target="_top" xlink:title="uscxml::Logger">
<polygon fill="#ffffff" stroke="#000000" points="206.5,-261.295 206.5,-280.295 290.5,-280.295 290.5,-261.295 206.5,-261.295"/>
<text text-anchor="middle" x="248.5" y="-268.295" font-family="Helvetica,sans-Serif" font-size="10.00" fill="#000000">uscxml::Logger</text>
</a>
</g>
</g>
<!-- Node21&#45;&gt;Node8 -->
<g id="edge18" class="edge">
<title>Node21&#45;&gt;Node8</title>
<path fill="none" stroke="#9a32cd" stroke-dasharray="5,2" d="M300.6227,-261.8763C371.7687,-252.1784 501.6693,-243.4335 600,-287.795 677.102,-322.5792 728.7202,-420.0995 743.5822,-451.1621"/>
<polygon fill="#9a32cd" stroke="#9a32cd" points="299.97,-258.4339 290.5629,-263.3079 300.9563,-265.364 299.97,-258.4339"/>
<text text-anchor="middle" x="514.5" y="-290.795" font-family="Helvetica,sans-Serif" font-size="10.00" fill="#000000"> _logger</text>
</g>
<!-- Node21&#45;&gt;Node19 -->
<g id="edge15" class="edge">
<title>Node21&#45;&gt;Node19</title>
<path fill="none" stroke="#9a32cd" stroke-dasharray="5,2" d="M300.4505,-281.8524C335.9853,-291.9143 381.7756,-310.1757 411,-341.795 427.5999,-359.7552 412.1022,-376.1148 429,-393.795 440.0372,-405.3432 455.4978,-413.0573 470.242,-418.1707"/>
<polygon fill="#9a32cd" stroke="#9a32cd" points="301.2886,-278.4534 290.7221,-279.2275 299.4651,-285.2117 301.2886,-278.4534"/>
<text text-anchor="middle" x="375" y="-344.795" font-family="Helvetica,sans-Serif" font-size="10.00" fill="#000000"> logger</text>
</g>
<!-- Node22 -->
<g id="node15" class="node">
<title>Node22</title>
<g id="a_node15"><a xlink:href="classuscxml_1_1_content_executor.html" target="_top" xlink:title="uscxml::ContentExecutor">
<polygon fill="#ffffff" stroke="#000000" points="184.5,-375.295 184.5,-394.295 312.5,-394.295 312.5,-375.295 184.5,-375.295"/>
<text text-anchor="middle" x="248.5" y="-382.295" font-family="Helvetica,sans-Serif" font-size="10.00" fill="#000000">uscxml::ContentExecutor</text>
</a>
</g>
</g>
<!-- Node22&#45;&gt;Node8 -->
<g id="edge24" class="edge">
<title>Node22&#45;&gt;Node8</title>
<path fill="none" stroke="#9a32cd" stroke-dasharray="5,2" d="M322.8735,-379.7783C394.7134,-376.7438 506.1307,-376.833 600,-397.795 649.8752,-408.9326 704.0727,-436.34 730.9266,-451.0652"/>
<polygon fill="#9a32cd" stroke="#9a32cd" points="322.399,-376.2961 312.5682,-380.2465 322.7168,-383.2889 322.399,-376.2961"/>
<text text-anchor="middle" x="514.5" y="-400.795" font-family="Helvetica,sans-Serif" font-size="10.00" fill="#000000"> _execContent</text>
</g>
<!-- Node22&#45;&gt;Node19 -->
<g id="edge17" class="edge">
<title>Node22&#45;&gt;Node19</title>
<path fill="none" stroke="#9a32cd" stroke-dasharray="5,2" d="M317.5985,-395.9651C360.4296,-402.8889 414.8587,-411.6876 455.631,-418.2786"/>
<polygon fill="#9a32cd" stroke="#9a32cd" points="317.9644,-392.4788 307.534,-394.3381 316.8473,-399.3891 317.9644,-392.4788"/>
<text text-anchor="middle" x="375" y="-412.795" font-family="Helvetica,sans-Serif" font-size="10.00" fill="#000000"> execContent</text>
</g>
<!-- Node23 -->
<g id="node16" class="node">
<title>Node23</title>
<g id="a_node16"><a xlink:href="classuscxml_1_1_factory.html" target="_top" xlink:title="uscxml::Factory">
<polygon fill="#ffffff" stroke="#000000" points="471,-127.295 471,-146.295 558,-146.295 558,-127.295 471,-127.295"/>
<text text-anchor="middle" x="514.5" y="-134.295" font-family="Helvetica,sans-Serif" font-size="10.00" fill="#000000">uscxml::Factory</text>
</a>
</g>
</g>
<!-- Node23&#45;&gt;Node8 -->
<g id="edge20" class="edge">
<title>Node23&#45;&gt;Node8</title>
<path fill="none" stroke="#9a32cd" stroke-dasharray="5,2" d="M568.423,-142.316C602.2245,-148.529 644.2992,-161.7332 671,-189.795 708.7611,-229.4809 739.3934,-407.2009 746.4615,-451.0107"/>
<polygon fill="#9a32cd" stroke="#9a32cd" points="568.6662,-138.8079 558.2246,-140.6036 567.507,-145.7113 568.6662,-138.8079"/>
<text text-anchor="middle" x="644.5" y="-192.795" font-family="Helvetica,sans-Serif" font-size="10.00" fill="#000000"> _factory</text>
</g>
<!-- Node23&#45;&gt;Node23 -->
<g id="edge21" class="edge">
<title>Node23&#45;&gt;Node23</title>
<path fill="none" stroke="#9a32cd" stroke-dasharray="5,2" d="M490.3186,-155.8242C491.6376,-160.923 499.6981,-164.795 514.5,-164.795 537.6055,-164.795 544.2844,-155.3603 534.5368,-146.552"/>
<polygon fill="#9a32cd" stroke="#9a32cd" points="493.5776,-157.1098 494.4632,-146.552 487.187,-154.2532 493.5776,-157.1098"/>
<text text-anchor="middle" x="514.5" y="-178.795" font-family="Helvetica,sans-Serif" font-size="10.00" fill="#000000"> _instance</text>
<text text-anchor="middle" x="514.5" y="-167.795" font-family="Helvetica,sans-Serif" font-size="10.00" fill="#000000">_parentFactory</text>
</g>
<!-- Node24 -->
<g id="node17" class="node">
<title>Node24</title>
<g id="a_node17"><a xlink:href="classuscxml_1_1_u_r_l.html" target="_top" xlink:title="uscxml::URL">
<polygon fill="#ffffff" stroke="#000000" points="478,-89.295 478,-108.295 551,-108.295 551,-89.295 478,-89.295"/>
<text text-anchor="middle" x="514.5" y="-96.295" font-family="Helvetica,sans-Serif" font-size="10.00" fill="#000000">uscxml::URL</text>
</a>
</g>
</g>
<!-- Node24&#45;&gt;Node8 -->
<g id="edge23" class="edge">
<title>Node24&#45;&gt;Node8</title>
<path fill="none" stroke="#9a32cd" stroke-dasharray="5,2" d="M561.1705,-98.7194C596.3613,-101.2806 643.1708,-110.7318 671,-140.795 715.0572,-188.3889 741.5245,-403.1844 746.9556,-451.2383"/>
<polygon fill="#9a32cd" stroke="#9a32cd" points="561.3004,-95.2213 551.1182,-98.1492 560.9039,-102.21 561.3004,-95.2213"/>
<text text-anchor="middle" x="644.5" y="-143.795" font-family="Helvetica,sans-Serif" font-size="10.00" fill="#000000"> _baseURL</text>
</g>
<!-- Node25 -->
<g id="node18" class="node">
<title>Node25</title>
<g id="a_node18"><a xlink:href="classuscxml_1_1_data.html" target="_top" xlink:title="uscxml::Data">
<polygon fill="#ffffff" stroke="#000000" points="211.5,-32.295 211.5,-51.295 285.5,-51.295 285.5,-32.295 211.5,-32.295"/>
<text text-anchor="middle" x="248.5" y="-39.295" font-family="Helvetica,sans-Serif" font-size="10.00" fill="#000000">uscxml::Data</text>
</a>
</g>
</g>
<!-- Node25&#45;&gt;Node8 -->
<g id="edge25" class="edge">
<title>Node25&#45;&gt;Node8</title>
<path fill="none" stroke="#9a32cd" stroke-dasharray="5,2" d="M295.9071,-44.4032C385.0943,-49.4619 571.4762,-60.8097 600,-68.795 634.0702,-78.333 649.3842,-76.7859 671,-104.795 715.0425,-161.864 741.7117,-399.6626 747.0187,-450.9984"/>
<polygon fill="#9a32cd" stroke="#9a32cd" points="295.9674,-40.9012 285.7862,-43.8325 295.5733,-47.8901 295.9674,-40.9012"/>
<text text-anchor="middle" x="514.5" y="-71.795" font-family="Helvetica,sans-Serif" font-size="10.00" fill="#000000"> _cache</text>
</g>
<!-- Node27 -->
<g id="node20" class="node">
<title>Node27</title>
<g id="a_node20"><a xlink:href="classuscxml_1_1_event.html" target="_top" xlink:title="uscxml::Event">
<polygon fill="#ffffff" stroke="#000000" points="475,-4.295 475,-23.295 554,-23.295 554,-4.295 475,-4.295"/>
<text text-anchor="middle" x="514.5" y="-11.295" font-family="Helvetica,sans-Serif" font-size="10.00" fill="#000000">uscxml::Event</text>
</a>
</g>
</g>
<!-- Node25&#45;&gt;Node27 -->
<g id="edge28" class="edge">
<title>Node25&#45;&gt;Node27</title>
<path fill="none" stroke="#9a32cd" stroke-dasharray="5,2" d="M295.8715,-36.8085C346.876,-31.4396 427.1081,-22.9941 474.8853,-17.965"/>
<polygon fill="#9a32cd" stroke="#9a32cd" points="295.3449,-33.3445 285.7662,-37.8722 296.0777,-40.3061 295.3449,-33.3445"/>
<text text-anchor="middle" x="375" y="-35.795" font-family="Helvetica,sans-Serif" font-size="10.00" fill="#000000"> data</text>
</g>
<!-- Node26 -->
<g id="node19" class="node">
<title>Node26</title>
<g id="a_node19"><a xlink:href="classuscxml_1_1_blob.html" target="_top" xlink:title="uscxml::Blob">
<polygon fill="#ffffff" stroke="#000000" points="18,-32.295 18,-51.295 91,-51.295 91,-32.295 18,-32.295"/>
<text text-anchor="middle" x="54.5" y="-39.295" font-family="Helvetica,sans-Serif" font-size="10.00" fill="#000000">uscxml::Blob</text>
</a>
</g>
</g>
<!-- Node26&#45;&gt;Node25 -->
<g id="edge26" class="edge">
<title>Node26&#45;&gt;Node25</title>
<path fill="none" stroke="#9a32cd" stroke-dasharray="5,2" d="M101.5353,-41.795C135.2797,-41.795 180.121,-41.795 211.3611,-41.795"/>
<polygon fill="#9a32cd" stroke="#9a32cd" points="101.4466,-38.2951 91.4466,-41.795 101.4465,-45.2951 101.4466,-38.2951"/>
<text text-anchor="middle" x="142.5" y="-44.795" font-family="Helvetica,sans-Serif" font-size="10.00" fill="#000000"> binary</text>
</g>
<!-- Node27&#45;&gt;Node8 -->
<g id="edge27" class="edge">
<title>Node27&#45;&gt;Node8</title>
<path fill="none" stroke="#9a32cd" stroke-dasharray="5,2" d="M562.9511,-2.621C597.3018,2.2452 642.2287,1.958 671,-23.795 737.4414,-83.2663 746.6843,-392.5362 747.8449,-451.1876"/>
<polygon fill="#9a32cd" stroke="#9a32cd" points="561.978,.7677 552.6597,-4.2741 563.0882,-6.1437 561.978,.7677"/>
<text text-anchor="middle" x="644.5" y="-37.795" font-family="Helvetica,sans-Serif" font-size="10.00" fill="#000000"> _currEvent</text>
<text text-anchor="middle" x="644.5" y="-26.795" font-family="Helvetica,sans-Serif" font-size="10.00" fill="#000000">_invokeReq</text>
</g>
</g>
</svg>
        <g id="navigator" transform="translate(0 0)" fill="#404254">
                <rect fill="#f2f5e9" fill-opacity="0.5" stroke="#606060" stroke-width=".5" x="0" y="0" width="60" height="60"/>
                <use id="zoomplus" xlink:href="#zoomPlus" x="17" y="9" onmousedown="handleZoom(evt,'in')"/>
                <use id="zoomminus" xlink:href="#zoomMin" x="42" y="9" onmousedown="handleZoom(evt,'out')"/>
                <use id="reset" xlink:href="#resetDef" x="30" y="36" onmousedown="handleReset()"/>
                <g id="arrowUp" xlink:href="#dirArrow" transform="translate(30 24)" onmousedown="handlePan(0,-1)">
                  <use xlink:href="#rim" fill="#404040">
                        <set attributeName="fill" to="#808080" begin="arrowUp.mouseover" end="arrowUp.mouseout"/>
                  </use>
                  <path fill="none" stroke="white" stroke-width="1.5" d="M0,-3.0v7 M-2.5,-0.5L0,-3.0L2.5,-0.5"/>
                </g>
                <g id="arrowRight" xlink:href="#dirArrow" transform="rotate(90) translate(36 -43)" onmousedown="handlePan(1,0)">
                  <use xlink:href="#rim" fill="#404040">
                        <set attributeName="fill" to="#808080" begin="arrowRight.mouseover" end="arrowRight.mouseout"/>
                  </use>
                  <path fill="none" stroke="white" stroke-width="1.5" d="M0,-3.0v7 M-2.5,-0.5L0,-3.0L2.5,-0.5"/>
                </g>
                <g id="arrowDown" xlink:href="#dirArrow" transform="rotate(180) translate(-30 -48)" onmousedown="handlePan(0,1)">
                  <use xlink:href="#rim" fill="#404040">
                        <set attributeName="fill" to="#808080" begin="arrowDown.mouseover" end="arrowDown.mouseout"/>
                  </use>
                  <path fill="none" stroke="white" stroke-width="1.5" d="M0,-3.0v7 M-2.5,-0.5L0,-3.0L2.5,-0.5"/>
                </g>
                <g id="arrowLeft" xlink:href="#dirArrow" transform="rotate(270) translate(-36 17)" onmousedown="handlePan(-1,0)">
                  <use xlink:href="#rim" fill="#404040">
                        <set attributeName="fill" to="#808080" begin="arrowLeft.mouseover" end="arrowLeft.mouseout"/>
                  </use>
                  <path fill="none" stroke="white" stroke-width="1.5" d="M0,-3.0v7 M-2.5,-0.5L0,-3.0L2.5,-0.5"/>
                </g>
        </g>
        <svg viewBox="0 0 15 15" width="100%" height="30px" preserveAspectRatio="xMaxYMin meet">
         <g id="arrow_out" transform="scale(0.3 0.3)">
          <a xlink:href="classuscxml_1_1_interpreter_impl__coll__graph_org.svg" target="_base">
           <rect id="button" ry="5" rx="5" y="6" x="6" height="38" width="38"
                fill="#f2f5e9" fill-opacity="0.5" stroke="#606060" stroke-width="1.0"/>
           <path id="arrow"
             d="M 11.500037,31.436501 C 11.940474,20.09759 22.043105,11.32322 32.158766,21.979434 L 37.068811,17.246167 C 37.068811,17.246167 37.088388,32 37.088388,32 L 22.160133,31.978069 C 22.160133,31.978069 26.997745,27.140456 26.997745,27.140456 C 18.528582,18.264221 13.291696,25.230495 11.500037,31.436501 z"
             style="fill:#404040;"/>
          </a>
         </g>
        </svg>
</svg>
