<?xml version="1.0" encoding="UTF-8" standalone="no"?>
<!DOCTYPE svg PUBLIC "-//W3C//DTD SVG 1.1//EN"
 "http://www.w3.org/Graphics/SVG/1.1/DTD/svg11.dtd">
<!-- Generated by graphviz version 2.40.1 (20161225.0304)
 -->
<!-- Title: uscxml::JSCDataModel Pages: 1 -->
<svg width="246pt" height="229pt"
 viewBox="0.00 0.00 245.50 229.00" xmlns="http://www.w3.org/2000/svg" xmlns:xlink="http://www.w3.org/1999/xlink">
<g id="graph0" class="graph" transform="scale(1 1) rotate(0) translate(4 225)">
<title>uscxml::JSCDataModel</title>
<polygon fill="#ffffff" stroke="transparent" points="-4,4 -4,-225 241.5,-225 241.5,4 -4,4"/>
<!-- Node2 -->
<g id="node1" class="node">
<title>Node2</title>
<polygon fill="#bfbfbf" stroke="#000000" points="75.5,-.5 75.5,-19.5 195.5,-19.5 195.5,-.5 75.5,-.5"/>
<text text-anchor="middle" x="135.5" y="-7.5" font-family="Helvetica,sans-Serif" font-size="10.00" fill="#000000">uscxml::JSCDataModel</text>
</g>
<!-- Node3 -->
<g id="node2" class="node">
<title>Node3</title>
<g id="a_node2"><a xlink:href="classuscxml_1_1_data_model_impl.html" target="_top" xlink:title="Abstract base class for all data&#45;model implementations. ">
<polygon fill="#ffffff" stroke="#000000" points="17.5,-67.5 17.5,-86.5 137.5,-86.5 137.5,-67.5 17.5,-67.5"/>
<text text-anchor="middle" x="77.5" y="-74.5" font-family="Helvetica,sans-Serif" font-size="10.00" fill="#000000">uscxml::DataModelImpl</text>
</a>
</g>
</g>
<!-- Node3&#45;&gt;Node2 -->
<g id="edge1" class="edge">
<title>Node3&#45;&gt;Node2</title>
<path fill="none" stroke="#191970" d="M92.4634,-59.7147C103.5212,-46.941 118.1672,-30.0224 127.2054,-19.5817"/>
<polygon fill="#191970" stroke="#191970" points="89.7088,-57.5491 85.81,-67.4005 95.0013,-62.1307 89.7088,-57.5491"/>
</g>
<!-- Node4 -->
<g id="node3" class="node">
<title>Node4</title>
<g id="a_node3"><a xlink:href="classuscxml_1_1_data_model_callbacks.html" target="_top" xlink:title="Callbacks available for every data&#45;model. ">
<polygon fill="#ffffff" stroke="#000000" points="0,-134.5 0,-153.5 145,-153.5 145,-134.5 0,-134.5"/>
<text text-anchor="middle" x="72.5" y="-141.5" font-family="Helvetica,sans-Serif" font-size="10.00" fill="#000000">uscxml::DataModelCallbacks</text>
</a>
</g>
</g>
<!-- Node4&#45;&gt;Node3 -->
<g id="edge2" class="edge">
<title>Node4&#45;&gt;Node3</title>
<path fill="none" stroke="#9a32cd" stroke-dasharray="5,2" d="M73.9845,-124.1079C74.9094,-111.714 76.0577,-96.3263 76.785,-86.5817"/>
<polygon fill="#9a32cd" stroke="#9a32cd" points="70.4704,-124.1678 73.2164,-134.4005 77.451,-124.6888 70.4704,-124.1678"/>
<text text-anchor="middle" x="100.5" y="-108" font-family="Helvetica,sans-Serif" font-size="10.00" fill="#000000"> _callbacks</text>
</g>
<!-- Node5 -->
<g id="node4" class="node">
<title>Node5</title>
<g id="a_node4"><a xlink:href="classuscxml_1_1_event.html" target="_top" xlink:title="uscxml::Event">
<polygon fill="#ffffff" stroke="#000000" points="158,-67.5 158,-86.5 237,-86.5 237,-67.5 158,-67.5"/>
<text text-anchor="middle" x="197.5" y="-74.5" font-family="Helvetica,sans-Serif" font-size="10.00" fill="#000000">uscxml::Event</text>
</a>
</g>
</g>
<!-- Node5&#45;&gt;Node2 -->
<g id="edge3" class="edge">
<title>Node5&#45;&gt;Node2</title>
<path fill="none" stroke="#9a32cd" stroke-dasharray="5,2" d="M181.5047,-59.7147C169.6842,-46.941 154.0282,-30.0224 144.3666,-19.5817"/>
<polygon fill="#9a32cd" stroke="#9a32cd" points="179.2561,-62.4381 188.6169,-67.4005 184.3939,-57.6837 179.2561,-62.4381"/>
<text text-anchor="middle" x="186" y="-41" font-family="Helvetica,sans-Serif" font-size="10.00" fill="#000000"> _event</text>
</g>
<!-- Node6 -->
<g id="node5" class="node">
<title>Node6</title>
<g id="a_node5"><a xlink:href="classuscxml_1_1_data.html" target="_top" xlink:title="uscxml::Data">
<polygon fill="#ffffff" stroke="#000000" points="163.5,-134.5 163.5,-153.5 237.5,-153.5 237.5,-134.5 163.5,-134.5"/>
<text text-anchor="middle" x="200.5" y="-141.5" font-family="Helvetica,sans-Serif" font-size="10.00" fill="#000000">uscxml::Data</text>
</a>
</g>
</g>
<!-- Node6&#45;&gt;Node5 -->
<g id="edge4" class="edge">
<title>Node6&#45;&gt;Node5</title>
<path fill="none" stroke="#9a32cd" stroke-dasharray="5,2" d="M199.6093,-124.1079C199.0544,-111.714 198.3654,-96.3263 197.929,-86.5817"/>
<polygon fill="#9a32cd" stroke="#9a32cd" points="196.1263,-124.5671 200.0702,-134.4005 203.1193,-124.254 196.1263,-124.5671"/>
<text text-anchor="middle" x="210" y="-108" font-family="Helvetica,sans-Serif" font-size="10.00" fill="#000000"> data</text>
</g>
<!-- Node7 -->
<g id="node6" class="node">
<title>Node7</title>
<g id="a_node6"><a xlink:href="classuscxml_1_1_blob.html" target="_top" xlink:title="uscxml::Blob">
<polygon fill="#ffffff" stroke="#000000" points="164,-201.5 164,-220.5 237,-220.5 237,-201.5 164,-201.5"/>
<text text-anchor="middle" x="200.5" y="-208.5" font-family="Helvetica,sans-Serif" font-size="10.00" fill="#000000">uscxml::Blob</text>
</a>
</g>
</g>
<!-- Node7&#45;&gt;Node6 -->
<g id="edge5" class="edge">
<title>Node7&#45;&gt;Node6</title>
<path fill="none" stroke="#9a32cd" stroke-dasharray="5,2" d="M200.5,-191.1079C200.5,-178.714 200.5,-163.3263 200.5,-153.5817"/>
<polygon fill="#9a32cd" stroke="#9a32cd" points="197.0001,-191.4005 200.5,-201.4005 204.0001,-191.4006 197.0001,-191.4005"/>
<text text-anchor="middle" x="216" y="-175" font-family="Helvetica,sans-Serif" font-size="10.00" fill="#000000"> binary</text>
</g>
</g>
</svg>
