<?xml version="1.0" encoding="UTF-8" standalone="no"?>
<!DOCTYPE svg PUBLIC "-//W3C//DTD SVG 1.1//EN"
 "http://www.w3.org/Graphics/SVG/1.1/DTD/svg11.dtd">
<!-- Generated by graphviz version 2.38.0 (20140413.2041)
 -->
<!-- Title: uscxml::ChartToVHDL Pages: 1 -->
<svg width="388pt" height="231pt"
 viewBox="0.00 0.00 387.50 231.00" xmlns="http://www.w3.org/2000/svg" xmlns:xlink="http://www.w3.org/1999/xlink">
<g id="graph0" class="graph" transform="scale(1 1) rotate(0) translate(4 227)">
<title>uscxml::ChartToVHDL</title>
<polygon fill="white" stroke="none" points="-4,4 -4,-227 383.5,-227 383.5,4 -4,4"/>
<!-- Node1 -->
<g id="node1" class="node"><title>Node1</title>
<polygon fill="#bfbfbf" stroke="black" points="193.5,-0.5 193.5,-19.5 309.5,-19.5 309.5,-0.5 193.5,-0.5"/>
<text text-anchor="middle" x="251.5" y="-7.5" font-family="Helvetica,sans-Serif" font-size="10.00">uscxml::ChartToVHDL</text>
</g>
<!-- Node2 -->
<g id="node2" class="node"><title>Node2</title>
<g id="a_node2"><a xlink:href="classuscxml_1_1_chart_to_c.html" target="_top" xlink:title="uscxml::ChartToC">
<polygon fill="white" stroke="black" points="82,-68.5 82,-87.5 179,-87.5 179,-68.5 82,-68.5"/>
<text text-anchor="middle" x="130.5" y="-75.5" font-family="Helvetica,sans-Serif" font-size="10.00">uscxml::ChartToC</text>
</a>
</g>
</g>
<!-- Node2&#45;&gt;Node1 -->
<g id="edge1" class="edge"><title>Node2&#45;&gt;Node1</title>
<path fill="none" stroke="midnightblue" d="M155.223,-63.5149C179.309,-50.3767 215.203,-30.7981 235.677,-19.6305"/>
<polygon fill="midnightblue" stroke="midnightblue" points="153.422,-60.5104 146.319,-68.3717 156.774,-66.6557 153.422,-60.5104"/>
</g>
<!-- Node2&#45;&gt;Node2 -->
<g id="edge5" class="edge"><title>Node2&#45;&gt;Node2</title>
<path fill="none" stroke="#9a32cd" stroke-dasharray="5,2" d="M189.38,-82.8612C194.087,-81.7993 197,-80.179 197,-78 197,-74.5137 189.542,-72.4573 179.214,-71.8308"/>
<polygon fill="#9a32cd" stroke="#9a32cd" points="188.686,-79.4216 179.214,-84.1692 189.579,-86.3643 188.686,-79.4216"/>
<text text-anchor="middle" x="238" y="-81" font-family="Helvetica,sans-Serif" font-size="10.00"> _topMostMachine</text>
<text text-anchor="middle" x="238" y="-70" font-family="Helvetica,sans-Serif" font-size="10.00">_parentMachine</text>
</g>
<!-- Node3 -->
<g id="node3" class="node"><title>Node3</title>
<g id="a_node3"><a xlink:href="classuscxml_1_1_transformer_impl.html" target="_top" xlink:title="uscxml::TransformerImpl">
<polygon fill="white" stroke="black" points="11,-136.5 11,-155.5 138,-155.5 138,-136.5 11,-136.5"/>
<text text-anchor="middle" x="74.5" y="-143.5" font-family="Helvetica,sans-Serif" font-size="10.00">uscxml::TransformerImpl</text>
</a>
</g>
</g>
<!-- Node3&#45;&gt;Node2 -->
<g id="edge2" class="edge"><title>Node3&#45;&gt;Node2</title>
<path fill="none" stroke="midnightblue" d="M88.3473,-128.68C99.2955,-115.777 114.16,-98.2575 122.998,-87.8411"/>
<polygon fill="midnightblue" stroke="midnightblue" points="85.622,-126.482 81.821,-136.372 90.9596,-131.011 85.622,-126.482"/>
</g>
<!-- Node4 -->
<g id="node4" class="node"><title>Node4</title>
<g id="a_node4"><a xlink:href="classuscxml_1_1_u_r_l.html" target="_top" xlink:title="uscxml::URL">
<polygon fill="white" stroke="black" points="0,-203.5 0,-222.5 73,-222.5 73,-203.5 0,-203.5"/>
<text text-anchor="middle" x="36.5" y="-210.5" font-family="Helvetica,sans-Serif" font-size="10.00">uscxml::URL</text>
</a>
</g>
</g>
<!-- Node4&#45;&gt;Node3 -->
<g id="edge3" class="edge"><title>Node4&#45;&gt;Node3</title>
<path fill="none" stroke="#9a32cd" stroke-dasharray="5,2" d="M33.7363,-192.89C33.6519,-186.567 34.5096,-179.697 37.5,-174 41.6392,-166.114 49.2386,-159.96 56.4783,-155.533"/>
<polygon fill="#9a32cd" stroke="#9a32cd" points="30.2895,-193.651 34.6483,-203.308 37.2628,-193.041 30.2895,-193.651"/>
<text text-anchor="middle" x="63" y="-177" font-family="Helvetica,sans-Serif" font-size="10.00"> _baseURL</text>
</g>
<!-- Node5 -->
<g id="node5" class="node"><title>Node5</title>
<g id="a_node5"><a xlink:href="classuscxml_1_1_interpreter.html" target="_top" xlink:title="Central class to interpret and process SCXML documents. ">
<polygon fill="white" stroke="black" points="108,-203.5 108,-222.5 207,-222.5 207,-203.5 108,-203.5"/>
<text text-anchor="middle" x="157.5" y="-210.5" font-family="Helvetica,sans-Serif" font-size="10.00">uscxml::Interpreter</text>
</a>
</g>
</g>
<!-- Node5&#45;&gt;Node2 -->
<g id="edge6" class="edge"><title>Node5&#45;&gt;Node2</title>
<path fill="none" stroke="#9a32cd" stroke-dasharray="5,2" d="M160.704,-193.188C161.292,-187.048 161.458,-180.213 160.5,-174 155.441,-141.18 141.095,-104.152 134.239,-87.6899"/>
<polygon fill="#9a32cd" stroke="#9a32cd" points="157.221,-192.823 159.342,-203.203 164.157,-193.766 157.221,-192.823"/>
<text text-anchor="middle" x="182" y="-143.5" font-family="Helvetica,sans-Serif" font-size="10.00"> interpreter</text>
</g>
<!-- Node5&#45;&gt;Node3 -->
<g id="edge4" class="edge"><title>Node5&#45;&gt;Node3</title>
<path fill="none" stroke="#9a32cd" stroke-dasharray="5,2" d="M131.369,-198.294C124.658,-194.341 117.613,-189.791 111.5,-185 100.194,-176.139 88.9279,-163.967 81.8511,-155.809"/>
<polygon fill="#9a32cd" stroke="#9a32cd" points="129.765,-201.407 140.193,-203.28 133.208,-195.313 129.765,-201.407"/>
<text text-anchor="middle" x="136" y="-177" font-family="Helvetica,sans-Serif" font-size="10.00"> interpreter</text>
</g>
<!-- Node6 -->
<g id="node6" class="node"><title>Node6</title>
<g id="a_node6"><a xlink:href="structuscxml_1_1_trie.html" target="_top" xlink:title="uscxml::Trie">
<polygon fill="white" stroke="black" points="297.5,-68.5 297.5,-87.5 367.5,-87.5 367.5,-68.5 297.5,-68.5"/>
<text text-anchor="middle" x="332.5" y="-75.5" font-family="Helvetica,sans-Serif" font-size="10.00">uscxml::Trie</text>
</a>
</g>
</g>
<!-- Node6&#45;&gt;Node1 -->
<g id="edge7" class="edge"><title>Node6&#45;&gt;Node1</title>
<path fill="none" stroke="#9a32cd" stroke-dasharray="5,2" d="M313.765,-61.7343C297.72,-48.6606 275.191,-30.3039 262.092,-19.6305"/>
<polygon fill="#9a32cd" stroke="#9a32cd" points="311.947,-64.7682 321.911,-68.3717 316.369,-59.3416 311.947,-64.7682"/>
<text text-anchor="middle" x="323" y="-41" font-family="Helvetica,sans-Serif" font-size="10.00"> _eventTrie</text>
</g>
<!-- Node7 -->
<g id="node7" class="node"><title>Node7</title>
<g id="a_node7"><a xlink:href="structuscxml_1_1_trie_node.html" target="_top" xlink:title="uscxml::TrieNode">
<polygon fill="white" stroke="black" points="285.5,-136.5 285.5,-155.5 379.5,-155.5 379.5,-136.5 285.5,-136.5"/>
<text text-anchor="middle" x="332.5" y="-143.5" font-family="Helvetica,sans-Serif" font-size="10.00">uscxml::TrieNode</text>
</a>
</g>
</g>
<!-- Node7&#45;&gt;Node6 -->
<g id="edge8" class="edge"><title>Node7&#45;&gt;Node6</title>
<path fill="none" stroke="#9a32cd" stroke-dasharray="5,2" d="M332.5,-126.041C332.5,-113.472 332.5,-97.5631 332.5,-87.8411"/>
<polygon fill="#9a32cd" stroke="#9a32cd" points="329,-126.372 332.5,-136.372 336,-126.372 329,-126.372"/>
<text text-anchor="middle" x="343" y="-110" font-family="Helvetica,sans-Serif" font-size="10.00"> root</text>
</g>
</g>
</svg>
