<?xml version="1.0" encoding="UTF-8" standalone="no"?>
<!DOCTYPE svg PUBLIC "-//W3C//DTD SVG 1.1//EN"
 "http://www.w3.org/Graphics/SVG/1.1/DTD/svg11.dtd">
<!-- Generated by graphviz version 2.38.0 (20140413.2041)
 -->
<!-- Title: uscxml::C89DataModel Pages: 1 -->
<svg width="153pt" height="152pt"
 viewBox="0.00 0.00 153.00 152.00" xmlns="http://www.w3.org/2000/svg" xmlns:xlink="http://www.w3.org/1999/xlink">
<g id="graph0" class="graph" transform="scale(1 1) rotate(0) translate(4 148)">
<title>uscxml::C89DataModel</title>
<polygon fill="white" stroke="none" points="-4,4 -4,-148 149,-148 149,4 -4,4"/>
<!-- Node1 -->
<g id="node1" class="node"><title>Node1</title>
<polygon fill="#bfbfbf" stroke="black" points="12.5,-0.5 12.5,-19.5 132.5,-19.5 132.5,-0.5 12.5,-0.5"/>
<text text-anchor="middle" x="72.5" y="-7.5" font-family="Helvetica,sans-Serif" font-size="10.00">uscxml::C89DataModel</text>
</g>
<!-- Node2 -->
<g id="node2" class="node"><title>Node2</title>
<g id="a_node2"><a xlink:href="classuscxml_1_1_data_model_impl.html" target="_top" xlink:title="Abstract base class for all data&#45;model implementations. ">
<polygon fill="white" stroke="black" points="12.5,-57.5 12.5,-76.5 132.5,-76.5 132.5,-57.5 12.5,-57.5"/>
<text text-anchor="middle" x="72.5" y="-64.5" font-family="Helvetica,sans-Serif" font-size="10.00">uscxml::DataModelImpl</text>
</a>
</g>
</g>
<!-- Node2&#45;&gt;Node1 -->
<g id="edge1" class="edge"><title>Node2&#45;&gt;Node1</title>
<path fill="none" stroke="midnightblue" d="M72.5,-47.1166C72.5,-37.8173 72.5,-27.0557 72.5,-19.7149"/>
<polygon fill="midnightblue" stroke="midnightblue" points="69.0001,-47.4062 72.5,-57.4062 76.0001,-47.4063 69.0001,-47.4062"/>
</g>
<!-- Node3 -->
<g id="node3" class="node"><title>Node3</title>
<g id="a_node3"><a xlink:href="classuscxml_1_1_data_model_callbacks.html" target="_top" xlink:title="Callbacks available for every data&#45;model. ">
<polygon fill="white" stroke="black" points="0,-124.5 0,-143.5 145,-143.5 145,-124.5 0,-124.5"/>
<text text-anchor="middle" x="72.5" y="-131.5" font-family="Helvetica,sans-Serif" font-size="10.00">uscxml::DataModelCallbacks</text>
</a>
</g>
</g>
<!-- Node3&#45;&gt;Node2 -->
<g id="edge2" class="edge"><title>Node3&#45;&gt;Node2</title>
<path fill="none" stroke="#9a32cd" stroke-dasharray="5,2" d="M72.5,-114.037C72.5,-101.67 72.5,-86.1198 72.5,-76.6273"/>
<polygon fill="#9a32cd" stroke="#9a32cd" points="69.0001,-114.234 72.5,-124.234 76.0001,-114.234 69.0001,-114.234"/>
<text text-anchor="middle" x="97.5" y="-98" font-family="Helvetica,sans-Serif" font-size="10.00"> _callbacks</text>
</g>
</g>
</svg>
