<?xml version="1.0" encoding="UTF-8" standalone="no"?>
<!DOCTYPE svg PUBLIC "-//W3C//DTD SVG 1.1//EN"
 "http://www.w3.org/Graphics/SVG/1.1/DTD/svg11.dtd">
<!-- Generated by graphviz version 2.38.0 (20140413.2041)
 -->
<!-- Title: uscxml::USCXMLInvoker Pages: 1 -->
<svg width="1390pt" height="693pt"
 viewBox="0.00 0.00 1390.00 693.00" xmlns="http://www.w3.org/2000/svg" xmlns:xlink="http://www.w3.org/1999/xlink">
<g id="graph0" class="graph" transform="scale(1 1) rotate(0) translate(4 689)">
<title>uscxml::USCXMLInvoker</title>
<polygon fill="white" stroke="none" points="-4,4 -4,-689 1386,-689 1386,4 -4,4"/>
<!-- Node1 -->
<g id="node1" class="node"><title>Node1</title>
<polygon fill="#bfbfbf" stroke="black" points="1254,-589.5 1254,-608.5 1382,-608.5 1382,-589.5 1254,-589.5"/>
<text text-anchor="middle" x="1318" y="-596.5" font-family="Helvetica,sans-Serif" font-size="10.00">uscxml::USCXMLInvoker</text>
</g>
<!-- Node2 -->
<g id="node2" class="node"><title>Node2</title>
<g id="a_node2"><a xlink:href="classuscxml_1_1_invoker_impl.html" target="_top" xlink:title="Abstract base class for all invokers. ">
<polygon fill="white" stroke="black" points="999,-616.5 999,-635.5 1104,-635.5 1104,-616.5 999,-616.5"/>
<text text-anchor="middle" x="1051.5" y="-623.5" font-family="Helvetica,sans-Serif" font-size="10.00">uscxml::InvokerImpl</text>
</a>
</g>
</g>
<!-- Node2&#45;&gt;Node1 -->
<g id="edge1" class="edge"><title>Node2&#45;&gt;Node1</title>
<path fill="none" stroke="midnightblue" d="M1114.22,-619.7C1156.19,-615.415 1211.56,-609.763 1253.84,-605.447"/>
<polygon fill="midnightblue" stroke="midnightblue" points="1113.72,-616.233 1104.13,-620.73 1114.43,-623.196 1113.72,-616.233"/>
</g>
<!-- Node3 -->
<g id="node3" class="node"><title>Node3</title>
<g id="a_node3"><a xlink:href="classuscxml_1_1_event_handler_impl.html" target="_top" xlink:title="Common base class for invokers and i/o processors. ">
<polygon fill="white" stroke="black" points="804,-382.5 804,-401.5 937,-401.5 937,-382.5 804,-382.5"/>
<text text-anchor="middle" x="870.5" y="-389.5" font-family="Helvetica,sans-Serif" font-size="10.00">uscxml::EventHandlerImpl</text>
</a>
</g>
</g>
<!-- Node3&#45;&gt;Node2 -->
<g id="edge2" class="edge"><title>Node3&#45;&gt;Node2</title>
<path fill="none" stroke="midnightblue" d="M875.174,-411.802C884.101,-454.177 910.999,-554.012 974,-606 981.2,-611.941 989.972,-616.137 998.974,-619.096"/>
<polygon fill="midnightblue" stroke="midnightblue" points="878.586,-411.016 873.199,-401.893 871.722,-412.385 878.586,-411.016"/>
</g>
<!-- Node4 -->
<g id="node4" class="node"><title>Node4</title>
<g id="a_node4"><a xlink:href="classuscxml_1_1_interpreter_impl.html" target="_top" xlink:title="uscxml::InterpreterImpl">
<polygon fill="white" stroke="black" points="583,-324.5 583,-343.5 701,-343.5 701,-324.5 583,-324.5"/>
<text text-anchor="middle" x="642" y="-331.5" font-family="Helvetica,sans-Serif" font-size="10.00">uscxml::InterpreterImpl</text>
</a>
</g>
</g>
<!-- Node4&#45;&gt;Node3 -->
<g id="edge3" class="edge"><title>Node4&#45;&gt;Node3</title>
<path fill="none" stroke="#9a32cd" stroke-dasharray="5,2" d="M689.919,-346.014C732.155,-356.83 793.401,-372.513 832.331,-382.482"/>
<polygon fill="#9a32cd" stroke="#9a32cd" points="690.704,-342.603 680.148,-343.513 688.967,-349.384 690.704,-342.603"/>
<text text-anchor="middle" x="752.5" y="-373" font-family="Helvetica,sans-Serif" font-size="10.00"> _interpreter</text>
</g>
<!-- Node5 -->
<g id="node5" class="node"><title>Node5</title>
<g id="a_node5"><a xlink:href="classuscxml_1_1_micro_step_callbacks.html" target="_top" xlink:title="uscxml::MicroStepCallbacks">
<polygon fill="white" stroke="black" points="322.5,-626.5 322.5,-645.5 464.5,-645.5 464.5,-626.5 322.5,-626.5"/>
<text text-anchor="middle" x="393.5" y="-633.5" font-family="Helvetica,sans-Serif" font-size="10.00">uscxml::MicroStepCallbacks</text>
</a>
</g>
</g>
<!-- Node5&#45;&gt;Node4 -->
<g id="edge4" class="edge"><title>Node5&#45;&gt;Node4</title>
<path fill="none" stroke="midnightblue" d="M460.452,-623.651C466.821,-621.723 473.1,-619.517 479,-617 521.177,-599.006 537.069,-596.367 565,-560 619.463,-489.088 636.125,-376.947 640.002,-343.635"/>
<polygon fill="midnightblue" stroke="midnightblue" points="459.1,-620.394 450.411,-626.457 460.984,-627.136 459.1,-620.394"/>
</g>
<!-- Node6 -->
<g id="node6" class="node"><title>Node6</title>
<g id="a_node6"><a xlink:href="classuscxml_1_1_data_model_callbacks.html" target="_top" xlink:title="Callbacks available for every data&#45;model. ">
<polygon fill="white" stroke="black" points="321,-588.5 321,-607.5 466,-607.5 466,-588.5 321,-588.5"/>
<text text-anchor="middle" x="393.5" y="-595.5" font-family="Helvetica,sans-Serif" font-size="10.00">uscxml::DataModelCallbacks</text>
</a>
</g>
</g>
<!-- Node6&#45;&gt;Node4 -->
<g id="edge5" class="edge"><title>Node6&#45;&gt;Node4</title>
<path fill="none" stroke="midnightblue" d="M460.788,-585.659C467.047,-583.732 473.211,-581.524 479,-579 521.488,-560.471 535.901,-556.08 565,-520 611.207,-462.708 632.874,-373.502 639.064,-343.91"/>
<polygon fill="midnightblue" stroke="midnightblue" points="459.577,-582.364 450.911,-588.46 461.487,-589.098 459.577,-582.364"/>
</g>
<!-- Node7 -->
<g id="node7" class="node"><title>Node7</title>
<g id="a_node7"><a xlink:href="classuscxml_1_1_content_executor_callbacks.html" target="_top" xlink:title="uscxml::ContentExecutorCallbacks">
<polygon fill="white" stroke="black" points="308,-550.5 308,-569.5 479,-569.5 479,-550.5 308,-550.5"/>
<text text-anchor="middle" x="393.5" y="-557.5" font-family="Helvetica,sans-Serif" font-size="10.00">uscxml::ContentExecutorCallbacks</text>
</a>
</g>
</g>
<!-- Node7&#45;&gt;Node4 -->
<g id="edge6" class="edge"><title>Node7&#45;&gt;Node4</title>
<path fill="none" stroke="midnightblue" d="M458.396,-547.673C465.481,-545.488 472.484,-542.947 479,-540 521.698,-520.692 534.16,-514.282 565,-479 603.345,-435.131 629.013,-368.54 637.718,-343.748"/>
<polygon fill="midnightblue" stroke="midnightblue" points="457.375,-544.324 448.721,-550.436 459.298,-551.055 457.375,-544.324"/>
</g>
<!-- Node8 -->
<g id="node8" class="node"><title>Node8</title>
<g id="a_node8"><a xlink:href="classuscxml_1_1_delayed_event_queue_callbacks.html" target="_top" xlink:title="uscxml::DelayedEventQueue\lCallbacks">
<polygon fill="white" stroke="black" points="321,-501 321,-531 466,-531 466,-501 321,-501"/>
<text text-anchor="start" x="329" y="-519" font-family="Helvetica,sans-Serif" font-size="10.00">uscxml::DelayedEventQueue</text>
<text text-anchor="middle" x="393.5" y="-508" font-family="Helvetica,sans-Serif" font-size="10.00">Callbacks</text>
</a>
</g>
</g>
<!-- Node8&#45;&gt;Node4 -->
<g id="edge7" class="edge"><title>Node8&#45;&gt;Node4</title>
<path fill="none" stroke="midnightblue" d="M466.815,-497.81C499.67,-486.745 537.292,-469.836 565,-445 599.435,-414.135 626.067,-364.613 636.367,-343.758"/>
<polygon fill="midnightblue" stroke="midnightblue" points="465.67,-494.502 457.239,-500.918 467.831,-501.16 465.67,-494.502"/>
</g>
<!-- Node9 -->
<g id="node9" class="node"><title>Node9</title>
<polygon fill="white" stroke="#bfbfbf" points="321,-452 321,-482 466,-482 466,-452 321,-452"/>
<text text-anchor="start" x="329" y="-470" font-family="Helvetica,sans-Serif" font-size="10.00">std::enable_shared</text>
<text text-anchor="middle" x="393.5" y="-459" font-family="Helvetica,sans-Serif" font-size="10.00">_from_this&lt; InterpreterImpl &gt;</text>
</g>
<!-- Node9&#45;&gt;Node4 -->
<g id="edge8" class="edge"><title>Node9&#45;&gt;Node4</title>
<path fill="none" stroke="midnightblue" d="M475.987,-452.063C505.509,-444.283 538.163,-432.768 565,-416 596.276,-396.458 622.991,-360.755 634.687,-343.644"/>
<polygon fill="midnightblue" stroke="midnightblue" points="474.946,-448.716 466.109,-454.56 476.662,-455.502 474.946,-448.716"/>
</g>
<!-- Node10 -->
<g id="node10" class="node"><title>Node10</title>
<g id="a_node10"><a xlink:href="classuscxml_1_1_micro_step.html" target="_top" xlink:title="uscxml::MicroStep">
<polygon fill="white" stroke="black" points="344.5,-413.5 344.5,-432.5 442.5,-432.5 442.5,-413.5 344.5,-413.5"/>
<text text-anchor="middle" x="393.5" y="-420.5" font-family="Helvetica,sans-Serif" font-size="10.00">uscxml::MicroStep</text>
</a>
</g>
</g>
<!-- Node10&#45;&gt;Node4 -->
<g id="edge9" class="edge"><title>Node10&#45;&gt;Node4</title>
<path fill="none" stroke="#9a32cd" stroke-dasharray="5,2" d="M452.959,-412.156C486.569,-404.803 529.11,-393.564 565,-378 587.52,-368.234 611.774,-353.349 626.673,-343.646"/>
<polygon fill="#9a32cd" stroke="#9a32cd" points="451.883,-408.806 442.832,-414.313 453.342,-415.652 451.883,-408.806"/>
<text text-anchor="middle" x="531" y="-404" font-family="Helvetica,sans-Serif" font-size="10.00"> _microStepper</text>
</g>
<!-- Node11 -->
<g id="node11" class="node"><title>Node11</title>
<g id="a_node11"><a xlink:href="classuscxml_1_1_delayed_event_queue.html" target="_top" xlink:title="uscxml::DelayedEventQueue">
<polygon fill="white" stroke="black" points="321,-375.5 321,-394.5 466,-394.5 466,-375.5 321,-375.5"/>
<text text-anchor="middle" x="393.5" y="-382.5" font-family="Helvetica,sans-Serif" font-size="10.00">uscxml::DelayedEventQueue</text>
</a>
</g>
</g>
<!-- Node11&#45;&gt;Node4 -->
<g id="edge10" class="edge"><title>Node11&#45;&gt;Node4</title>
<path fill="none" stroke="#9a32cd" stroke-dasharray="5,2" d="M450.45,-373.424C494.038,-364.406 553.822,-352.037 594.732,-343.573"/>
<polygon fill="#9a32cd" stroke="#9a32cd" points="449.659,-370.014 440.576,-375.467 451.077,-376.868 449.659,-370.014"/>
<text text-anchor="middle" x="531" y="-366" font-family="Helvetica,sans-Serif" font-size="10.00"> _delayQueue</text>
</g>
<!-- Node12 -->
<g id="node12" class="node"><title>Node12</title>
<g id="a_node12"><a xlink:href="classuscxml_1_1_event_queue.html" target="_top" xlink:title="uscxml::EventQueue">
<polygon fill="white" stroke="black" points="140,-375.5 140,-394.5 249,-394.5 249,-375.5 140,-375.5"/>
<text text-anchor="middle" x="194.5" y="-382.5" font-family="Helvetica,sans-Serif" font-size="10.00">uscxml::EventQueue</text>
</a>
</g>
</g>
<!-- Node12&#45;&gt;Node1 -->
<g id="edge24" class="edge"><title>Node12&#45;&gt;Node1</title>
<path fill="none" stroke="#9a32cd" stroke-dasharray="5,2" d="M197.622,-404.885C204.091,-455.148 228.273,-588.039 308,-655 337.476,-679.756 354.007,-674 392.5,-674 392.5,-674 392.5,-674 1052.5,-674 1147.25,-674 1254.09,-628.908 1297.3,-608.651"/>
<polygon fill="#9a32cd" stroke="#9a32cd" points="201.069,-404.231 196.415,-394.713 194.118,-405.056 201.069,-404.231"/>
<text text-anchor="middle" x="752.5" y="-677" font-family="Helvetica,sans-Serif" font-size="10.00"> _parentQueue</text>
</g>
<!-- Node12&#45;&gt;Node4 -->
<g id="edge16" class="edge"><title>Node12&#45;&gt;Node4</title>
<path fill="none" stroke="#9a32cd" stroke-dasharray="5,2" d="M219.434,-370.203C241.5,-357.489 275.638,-340.118 308,-333 402.435,-312.231 515.611,-319.026 582.733,-326.234"/>
<polygon fill="#9a32cd" stroke="#9a32cd" points="217.591,-367.226 210.757,-375.323 221.148,-373.255 217.591,-367.226"/>
<text text-anchor="middle" x="393.5" y="-358" font-family="Helvetica,sans-Serif" font-size="10.00"> _parentQueue</text>
<text text-anchor="middle" x="393.5" y="-347" font-family="Helvetica,sans-Serif" font-size="10.00">_externalQueue</text>
<text text-anchor="middle" x="393.5" y="-336" font-family="Helvetica,sans-Serif" font-size="10.00">_internalQueue</text>
</g>
<!-- Node12&#45;&gt;Node11 -->
<g id="edge11" class="edge"><title>Node12&#45;&gt;Node11</title>
<path fill="none" stroke="midnightblue" d="M259.148,-385C278.828,-385 300.638,-385 320.822,-385"/>
<polygon fill="midnightblue" stroke="midnightblue" points="259.071,-381.5 249.071,-385 259.071,-388.5 259.071,-381.5"/>
</g>
<!-- Node13 -->
<g id="node13" class="node"><title>Node13</title>
<g id="a_node13"><a xlink:href="classuscxml_1_1_logger.html" target="_top" xlink:title="uscxml::Logger">
<polygon fill="white" stroke="black" points="351.5,-230.5 351.5,-249.5 435.5,-249.5 435.5,-230.5 351.5,-230.5"/>
<text text-anchor="middle" x="393.5" y="-237.5" font-family="Helvetica,sans-Serif" font-size="10.00">uscxml::Logger</text>
</a>
</g>
</g>
<!-- Node13&#45;&gt;Node4 -->
<g id="edge12" class="edge"><title>Node13&#45;&gt;Node4</title>
<path fill="none" stroke="#9a32cd" stroke-dasharray="5,2" d="M445.804,-238.446C480.923,-239.294 527.702,-244.288 565,-262 595.702,-276.58 622.103,-308.277 634.104,-324.305"/>
<polygon fill="#9a32cd" stroke="#9a32cd" points="445.812,-234.946 435.764,-238.307 445.715,-241.945 445.812,-234.946"/>
<text text-anchor="middle" x="531" y="-265" font-family="Helvetica,sans-Serif" font-size="10.00"> _logger</text>
</g>
<!-- Node14 -->
<g id="node14" class="node"><title>Node14</title>
<g id="a_node14"><a xlink:href="classuscxml_1_1_data_model.html" target="_top" xlink:title="The facade for data&#45;models. ">
<polygon fill="white" stroke="black" points="342.5,-192.5 342.5,-211.5 444.5,-211.5 444.5,-192.5 342.5,-192.5"/>
<text text-anchor="middle" x="393.5" y="-199.5" font-family="Helvetica,sans-Serif" font-size="10.00">uscxml::DataModel</text>
</a>
</g>
</g>
<!-- Node14&#45;&gt;Node4 -->
<g id="edge13" class="edge"><title>Node14&#45;&gt;Node4</title>
<path fill="none" stroke="#9a32cd" stroke-dasharray="5,2" d="M455.056,-199.966C489.545,-201.442 532.266,-207.929 565,-228 603.608,-251.673 628.278,-303.054 637.223,-324.401"/>
<polygon fill="#9a32cd" stroke="#9a32cd" points="454.735,-196.455 444.636,-199.659 454.529,-203.452 454.735,-196.455"/>
<text text-anchor="middle" x="531" y="-231" font-family="Helvetica,sans-Serif" font-size="10.00"> _dataModel</text>
</g>
<!-- Node15 -->
<g id="node15" class="node"><title>Node15</title>
<g id="a_node15"><a xlink:href="classuscxml_1_1_factory.html" target="_top" xlink:title="uscxml::Factory">
<polygon fill="white" stroke="black" points="350,-114.5 350,-133.5 437,-133.5 437,-114.5 350,-114.5"/>
<text text-anchor="middle" x="393.5" y="-121.5" font-family="Helvetica,sans-Serif" font-size="10.00">uscxml::Factory</text>
</a>
</g>
</g>
<!-- Node15&#45;&gt;Node4 -->
<g id="edge14" class="edge"><title>Node15&#45;&gt;Node4</title>
<path fill="none" stroke="#9a32cd" stroke-dasharray="5,2" d="M447.108,-134.114C483.714,-143.413 531.732,-160.392 565,-190 608.711,-228.902 631.424,-299.043 638.517,-324.468"/>
<polygon fill="#9a32cd" stroke="#9a32cd" points="447.651,-130.644 437.108,-131.691 446.002,-137.447 447.651,-130.644"/>
<text text-anchor="middle" x="531" y="-193" font-family="Helvetica,sans-Serif" font-size="10.00"> _factory</text>
</g>
<!-- Node15&#45;&gt;Node15 -->
<g id="edge15" class="edge"><title>Node15&#45;&gt;Node15</title>
<path fill="none" stroke="#9a32cd" stroke-dasharray="5,2" d="M372.39,-143.4C373.8,-148.315 380.836,-152 393.5,-152 413.762,-152 419.619,-142.565 411.071,-133.757"/>
<polygon fill="#9a32cd" stroke="#9a32cd" points="375.769,-144.351 375.929,-133.757 369.198,-141.939 375.769,-144.351"/>
<text text-anchor="middle" x="393.5" y="-166" font-family="Helvetica,sans-Serif" font-size="10.00"> _instance</text>
<text text-anchor="middle" x="393.5" y="-155" font-family="Helvetica,sans-Serif" font-size="10.00">_parentFactory</text>
</g>
<!-- Node16 -->
<g id="node16" class="node"><title>Node16</title>
<g id="a_node16"><a xlink:href="classuscxml_1_1_u_r_l.html" target="_top" xlink:title="uscxml::URL">
<polygon fill="white" stroke="black" points="357,-76.5 357,-95.5 430,-95.5 430,-76.5 357,-76.5"/>
<text text-anchor="middle" x="393.5" y="-83.5" font-family="Helvetica,sans-Serif" font-size="10.00">uscxml::URL</text>
</a>
</g>
</g>
<!-- Node16&#45;&gt;Node4 -->
<g id="edge17" class="edge"><title>Node16&#45;&gt;Node4</title>
<path fill="none" stroke="#9a32cd" stroke-dasharray="5,2" d="M440.408,-88.1668C478.584,-92.3856 531.853,-104.248 565,-137 620.803,-192.138 636.418,-292.754 640.04,-324.285"/>
<polygon fill="#9a32cd" stroke="#9a32cd" points="440.359,-84.646 430.069,-87.1686 439.687,-91.6136 440.359,-84.646"/>
<text text-anchor="middle" x="531" y="-140" font-family="Helvetica,sans-Serif" font-size="10.00"> _baseURL</text>
</g>
<!-- Node17 -->
<g id="node17" class="node"><title>Node17</title>
<g id="a_node17"><a xlink:href="classuscxml_1_1_x.html" target="_top" xlink:title="uscxml::X">
<polygon fill="white" stroke="black" points="363.5,-38.5 363.5,-57.5 423.5,-57.5 423.5,-38.5 363.5,-38.5"/>
<text text-anchor="middle" x="393.5" y="-45.5" font-family="Helvetica,sans-Serif" font-size="10.00">uscxml::X</text>
</a>
</g>
</g>
<!-- Node17&#45;&gt;Node4 -->
<g id="edge18" class="edge"><title>Node17&#45;&gt;Node4</title>
<path fill="none" stroke="#9a32cd" stroke-dasharray="5,2" d="M433.92,-42.8683C472.044,-40.2097 529.161,-42.6385 565,-74 643.037,-142.288 643.026,-285.83 641.523,-324.327"/>
<polygon fill="#9a32cd" stroke="#9a32cd" points="433.374,-39.402 423.705,-43.7332 433.965,-46.377 433.374,-39.402"/>
<text text-anchor="middle" x="531" y="-88" font-family="Helvetica,sans-Serif" font-size="10.00"> _xmlPrefix</text>
<text text-anchor="middle" x="531" y="-77" font-family="Helvetica,sans-Serif" font-size="10.00">_xmlNS</text>
</g>
<!-- Node18 -->
<g id="node18" class="node"><title>Node18</title>
<g id="a_node18"><a xlink:href="classuscxml_1_1_content_executor.html" target="_top" xlink:title="uscxml::ContentExecutor">
<polygon fill="white" stroke="black" points="329.5,-0.5 329.5,-19.5 457.5,-19.5 457.5,-0.5 329.5,-0.5"/>
<text text-anchor="middle" x="393.5" y="-7.5" font-family="Helvetica,sans-Serif" font-size="10.00">uscxml::ContentExecutor</text>
</a>
</g>
</g>
<!-- Node18&#45;&gt;Node4 -->
<g id="edge19" class="edge"><title>Node18&#45;&gt;Node4</title>
<path fill="none" stroke="#9a32cd" stroke-dasharray="5,2" d="M468.056,-1.41406C501.347,-1.57932 538.976,-7.9997 565,-31 611.022,-71.6741 635.1,-277.566 640.038,-324.477"/>
<polygon fill="#9a32cd" stroke="#9a32cd" points="467.833,2.08333 457.881,-1.55216 467.928,-4.91602 467.833,2.08333"/>
<text text-anchor="middle" x="531" y="-34" font-family="Helvetica,sans-Serif" font-size="10.00"> _execContent</text>
</g>
<!-- Node19 -->
<g id="node19" class="node"><title>Node19</title>
<g id="a_node19"><a xlink:href="classuscxml_1_1_event.html" target="_top" xlink:title="uscxml::Event">
<polygon fill="white" stroke="black" points="354,-268.5 354,-287.5 433,-287.5 433,-268.5 354,-268.5"/>
<text text-anchor="middle" x="393.5" y="-275.5" font-family="Helvetica,sans-Serif" font-size="10.00">uscxml::Event</text>
</a>
</g>
</g>
<!-- Node19&#45;&gt;Node4 -->
<g id="edge20" class="edge"><title>Node19&#45;&gt;Node4</title>
<path fill="none" stroke="#9a32cd" stroke-dasharray="5,2" d="M443.368,-274.708C478.073,-273.84 525.355,-275.674 565,-288 589.743,-295.693 614.741,-313.099 629.004,-324.157"/>
<polygon fill="#9a32cd" stroke="#9a32cd" points="442.9,-271.221 433.023,-275.055 443.135,-278.217 442.9,-271.221"/>
<text text-anchor="middle" x="531" y="-302" font-family="Helvetica,sans-Serif" font-size="10.00"> _currEvent</text>
<text text-anchor="middle" x="531" y="-291" font-family="Helvetica,sans-Serif" font-size="10.00">_invokeReq</text>
</g>
<!-- Node20 -->
<g id="node20" class="node"><title>Node20</title>
<g id="a_node20"><a xlink:href="classuscxml_1_1_data.html" target="_top" xlink:title="uscxml::Data">
<polygon fill="white" stroke="black" points="157.5,-268.5 157.5,-287.5 231.5,-287.5 231.5,-268.5 157.5,-268.5"/>
<text text-anchor="middle" x="194.5" y="-275.5" font-family="Helvetica,sans-Serif" font-size="10.00">uscxml::Data</text>
</a>
</g>
</g>
<!-- Node20&#45;&gt;Node19 -->
<g id="edge21" class="edge"><title>Node20&#45;&gt;Node19</title>
<path fill="none" stroke="#9a32cd" stroke-dasharray="5,2" d="M241.813,-278C275.922,-278 321.768,-278 353.902,-278"/>
<polygon fill="#9a32cd" stroke="#9a32cd" points="241.633,-274.5 231.633,-278 241.633,-281.5 241.633,-274.5"/>
<text text-anchor="middle" x="278.5" y="-281" font-family="Helvetica,sans-Serif" font-size="10.00"> data</text>
</g>
<!-- Node21 -->
<g id="node21" class="node"><title>Node21</title>
<g id="a_node21"><a xlink:href="classuscxml_1_1_blob.html" target="_top" xlink:title="uscxml::Blob">
<polygon fill="white" stroke="black" points="0,-268.5 0,-287.5 73,-287.5 73,-268.5 0,-268.5"/>
<text text-anchor="middle" x="36.5" y="-275.5" font-family="Helvetica,sans-Serif" font-size="10.00">uscxml::Blob</text>
</a>
</g>
</g>
<!-- Node21&#45;&gt;Node20 -->
<g id="edge22" class="edge"><title>Node21&#45;&gt;Node20</title>
<path fill="none" stroke="#9a32cd" stroke-dasharray="5,2" d="M83.413,-278C106.998,-278 135.324,-278 157.337,-278"/>
<polygon fill="#9a32cd" stroke="#9a32cd" points="83.2896,-274.5 73.2896,-278 83.2895,-281.5 83.2896,-274.5"/>
<text text-anchor="middle" x="106.5" y="-281" font-family="Helvetica,sans-Serif" font-size="10.00"> binary</text>
</g>
<!-- Node22 -->
<g id="node22" class="node"><title>Node22</title>
<polygon fill="white" stroke="#bfbfbf" points="974,-567 974,-597 1129,-597 1129,-567 974,-567"/>
<text text-anchor="start" x="982" y="-585" font-family="Helvetica,sans-Serif" font-size="10.00">std::enable_shared</text>
<text text-anchor="middle" x="1051.5" y="-574" font-family="Helvetica,sans-Serif" font-size="10.00">_from_this&lt; USCXMLInvoker &gt;</text>
</g>
<!-- Node22&#45;&gt;Node1 -->
<g id="edge23" class="edge"><title>Node22&#45;&gt;Node1</title>
<path fill="none" stroke="midnightblue" d="M1139.36,-587.583C1176.63,-589.978 1219.38,-592.726 1253.6,-594.925"/>
<polygon fill="midnightblue" stroke="midnightblue" points="1139.21,-584.066 1129,-586.917 1138.76,-591.051 1139.21,-584.066"/>
</g>
<!-- Node23 -->
<g id="node23" class="node"><title>Node23</title>
<g id="a_node23"><a xlink:href="classuscxml_1_1_interpreter.html" target="_top" xlink:title="Central class to interpret and process SCXML documents. ">
<polygon fill="white" stroke="black" points="1002,-528.5 1002,-547.5 1101,-547.5 1101,-528.5 1002,-528.5"/>
<text text-anchor="middle" x="1051.5" y="-535.5" font-family="Helvetica,sans-Serif" font-size="10.00">uscxml::Interpreter</text>
</a>
</g>
</g>
<!-- Node23&#45;&gt;Node1 -->
<g id="edge25" class="edge"><title>Node23&#45;&gt;Node1</title>
<path fill="none" stroke="#9a32cd" stroke-dasharray="5,2" d="M1111.01,-547.851C1147.22,-554.349 1194.56,-563.571 1236,-574 1253.7,-578.454 1273.25,-584.458 1288.72,-589.467"/>
<polygon fill="#9a32cd" stroke="#9a32cd" points="1111.56,-544.394 1101.1,-546.091 1110.34,-551.286 1111.56,-544.394"/>
<text text-anchor="middle" x="1191.5" y="-577" font-family="Helvetica,sans-Serif" font-size="10.00"> _invokedInterpreter</text>
</g>
</g>
</svg>
