<?xml version="1.0" encoding="UTF-8" standalone="no"?>
<!DOCTYPE svg PUBLIC "-//W3C//DTD SVG 1.1//EN"
 "http://www.w3.org/Graphics/SVG/1.1/DTD/svg11.dtd">
<!-- Generated by graphviz version 2.38.0 (20140413.2041)
 -->
<!-- Title: uscxml::FastMicroStep Pages: 1 -->
<svg width="314pt" height="240pt"
 viewBox="0.00 0.00 313.50 240.00" xmlns="http://www.w3.org/2000/svg" xmlns:xlink="http://www.w3.org/1999/xlink">
<g id="graph0" class="graph" transform="scale(1 1) rotate(0) translate(4 236)">
<title>uscxml::FastMicroStep</title>
<polygon fill="white" stroke="none" points="-4,4 -4,-236 309.5,-236 309.5,4 -4,4"/>
<!-- Node1 -->
<g id="node1" class="node"><title>Node1</title>
<polygon fill="#bfbfbf" stroke="black" points="119,-0.5 119,-19.5 237,-19.5 237,-0.5 119,-0.5"/>
<text text-anchor="middle" x="178" y="-7.5" font-family="Helvetica,sans-Serif" font-size="10.00">uscxml::FastMicroStep</text>
</g>
<!-- Node2 -->
<g id="node2" class="node"><title>Node2</title>
<g id="a_node2"><a xlink:href="classuscxml_1_1_micro_step_impl.html" target="_top" xlink:title="uscxml::MicroStepImpl">
<polygon fill="white" stroke="black" points="12.5,-78.5 12.5,-97.5 129.5,-97.5 129.5,-78.5 12.5,-78.5"/>
<text text-anchor="middle" x="71" y="-85.5" font-family="Helvetica,sans-Serif" font-size="10.00">uscxml::MicroStepImpl</text>
</a>
</g>
</g>
<!-- Node2&#45;&gt;Node1 -->
<g id="edge1" class="edge"><title>Node2&#45;&gt;Node1</title>
<path fill="none" stroke="midnightblue" d="M91.6122,-72.3596C113.637,-56.7154 147.813,-32.4411 165.869,-19.6165"/>
<polygon fill="midnightblue" stroke="midnightblue" points="89.4003,-69.6376 83.2743,-78.2818 93.4538,-75.3445 89.4003,-69.6376"/>
</g>
<!-- Node3 -->
<g id="node3" class="node"><title>Node3</title>
<g id="a_node3"><a xlink:href="classuscxml_1_1_micro_step_callbacks.html" target="_top" xlink:title="uscxml::MicroStepCallbacks">
<polygon fill="white" stroke="black" points="0,-145.5 0,-164.5 142,-164.5 142,-145.5 0,-145.5"/>
<text text-anchor="middle" x="71" y="-152.5" font-family="Helvetica,sans-Serif" font-size="10.00">uscxml::MicroStepCallbacks</text>
</a>
</g>
</g>
<!-- Node3&#45;&gt;Node2 -->
<g id="edge2" class="edge"><title>Node3&#45;&gt;Node2</title>
<path fill="none" stroke="#9a32cd" stroke-dasharray="5,2" d="M71,-135.037C71,-122.67 71,-107.12 71,-97.6273"/>
<polygon fill="#9a32cd" stroke="#9a32cd" points="67.5001,-135.234 71,-145.234 74.5001,-135.234 67.5001,-135.234"/>
<text text-anchor="middle" x="96" y="-119" font-family="Helvetica,sans-Serif" font-size="10.00"> _callbacks</text>
</g>
<!-- Node4 -->
<g id="node4" class="node"><title>Node4</title>
<g id="a_node4"><a xlink:href="classuscxml_1_1_x.html" target="_top" xlink:title="uscxml::X">
<polygon fill="white" stroke="black" points="148,-78.5 148,-97.5 208,-97.5 208,-78.5 148,-78.5"/>
<text text-anchor="middle" x="178" y="-85.5" font-family="Helvetica,sans-Serif" font-size="10.00">uscxml::X</text>
</a>
</g>
</g>
<!-- Node4&#45;&gt;Node1 -->
<g id="edge3" class="edge"><title>Node4&#45;&gt;Node1</title>
<path fill="none" stroke="#9a32cd" stroke-dasharray="5,2" d="M178,-68.2239C178,-52.6974 178,-31.3582 178,-19.6165"/>
<polygon fill="#9a32cd" stroke="#9a32cd" points="174.5,-68.2818 178,-78.2818 181.5,-68.2819 174.5,-68.2818"/>
<text text-anchor="middle" x="203" y="-52" font-family="Helvetica,sans-Serif" font-size="10.00"> _xmlPrefix</text>
<text text-anchor="middle" x="203" y="-41" font-family="Helvetica,sans-Serif" font-size="10.00">_xmlNS</text>
</g>
<!-- Node5 -->
<g id="node5" class="node"><title>Node5</title>
<g id="a_node5"><a xlink:href="classuscxml_1_1_event.html" target="_top" xlink:title="uscxml::Event">
<polygon fill="white" stroke="black" points="226.5,-78.5 226.5,-97.5 305.5,-97.5 305.5,-78.5 226.5,-78.5"/>
<text text-anchor="middle" x="266" y="-85.5" font-family="Helvetica,sans-Serif" font-size="10.00">uscxml::Event</text>
</a>
</g>
</g>
<!-- Node5&#45;&gt;Node1 -->
<g id="edge4" class="edge"><title>Node5&#45;&gt;Node1</title>
<path fill="none" stroke="#9a32cd" stroke-dasharray="5,2" d="M256.84,-69.5603C250.828,-59.3782 242.2,-46.8373 232,-38 223.048,-30.2444 211.478,-24.0749 201.345,-19.6023"/>
<polygon fill="#9a32cd" stroke="#9a32cd" points="253.842,-71.3713 261.768,-78.4019 259.956,-67.9631 253.842,-71.3713"/>
<text text-anchor="middle" x="266.5" y="-46.5" font-family="Helvetica,sans-Serif" font-size="10.00"> _event</text>
</g>
<!-- Node6 -->
<g id="node6" class="node"><title>Node6</title>
<g id="a_node6"><a xlink:href="classuscxml_1_1_data.html" target="_top" xlink:title="uscxml::Data">
<polygon fill="white" stroke="black" points="229,-145.5 229,-164.5 303,-164.5 303,-145.5 229,-145.5"/>
<text text-anchor="middle" x="266" y="-152.5" font-family="Helvetica,sans-Serif" font-size="10.00">uscxml::Data</text>
</a>
</g>
</g>
<!-- Node6&#45;&gt;Node5 -->
<g id="edge5" class="edge"><title>Node6&#45;&gt;Node5</title>
<path fill="none" stroke="#9a32cd" stroke-dasharray="5,2" d="M266,-135.037C266,-122.67 266,-107.12 266,-97.6273"/>
<polygon fill="#9a32cd" stroke="#9a32cd" points="262.5,-135.234 266,-145.234 269.5,-135.234 262.5,-135.234"/>
<text text-anchor="middle" x="277.5" y="-119" font-family="Helvetica,sans-Serif" font-size="10.00"> data</text>
</g>
<!-- Node7 -->
<g id="node7" class="node"><title>Node7</title>
<g id="a_node7"><a xlink:href="classuscxml_1_1_blob.html" target="_top" xlink:title="uscxml::Blob">
<polygon fill="white" stroke="black" points="229.5,-212.5 229.5,-231.5 302.5,-231.5 302.5,-212.5 229.5,-212.5"/>
<text text-anchor="middle" x="266" y="-219.5" font-family="Helvetica,sans-Serif" font-size="10.00">uscxml::Blob</text>
</a>
</g>
</g>
<!-- Node7&#45;&gt;Node6 -->
<g id="edge6" class="edge"><title>Node7&#45;&gt;Node6</title>
<path fill="none" stroke="#9a32cd" stroke-dasharray="5,2" d="M266,-202.037C266,-189.67 266,-174.12 266,-164.627"/>
<polygon fill="#9a32cd" stroke="#9a32cd" points="262.5,-202.234 266,-212.234 269.5,-202.234 262.5,-202.234"/>
<text text-anchor="middle" x="281.5" y="-186" font-family="Helvetica,sans-Serif" font-size="10.00"> binary</text>
</g>
</g>
</svg>
