<?xml version="1.0" encoding="UTF-8" standalone="no"?>
<!DOCTYPE svg PUBLIC "-//W3C//DTD SVG 1.1//EN"
 "http://www.w3.org/Graphics/SVG/1.1/DTD/svg11.dtd">
<!-- Generated by graphviz version 2.38.0 (20140413.2041)
 -->
<!-- Title: uscxml::LoggerImpl Pages: 1 -->
<svg width="260pt" height="84pt"
 viewBox="0.00 0.00 259.50 84.00" xmlns="http://www.w3.org/2000/svg" xmlns:xlink="http://www.w3.org/1999/xlink">
<g id="graph0" class="graph" transform="scale(1 1) rotate(0) translate(4 80)">
<title>uscxml::LoggerImpl</title>
<polygon fill="white" stroke="none" points="-4,4 -4,-80 255.5,-80 255.5,4 -4,4"/>
<!-- Node1 -->
<g id="node1" class="node"><title>Node1</title>
<polygon fill="#bfbfbf" stroke="black" points="74.5,-56.5 74.5,-75.5 177.5,-75.5 177.5,-56.5 74.5,-56.5"/>
<text text-anchor="middle" x="126" y="-63.5" font-family="Helvetica,sans-Serif" font-size="10.00">uscxml::LoggerImpl</text>
</g>
<!-- Node2 -->
<g id="node2" class="node"><title>Node2</title>
<g id="a_node2"><a xlink:href="classuscxml_1_1_debug_session.html" target="_top" xlink:title="uscxml::DebugSession">
<polygon fill="white" stroke="black" points="0,-0.5 0,-19.5 118,-19.5 118,-0.5 0,-0.5"/>
<text text-anchor="middle" x="59" y="-7.5" font-family="Helvetica,sans-Serif" font-size="10.00">uscxml::DebugSession</text>
</a>
</g>
</g>
<!-- Node1&#45;&gt;Node2 -->
<g id="edge1" class="edge"><title>Node1&#45;&gt;Node2</title>
<path fill="none" stroke="midnightblue" d="M107.165,-49.8197C95.1616,-40.1452 80.0283,-27.9481 69.9606,-19.8339"/>
<polygon fill="midnightblue" stroke="midnightblue" points="105.253,-52.7738 115.235,-56.324 109.646,-47.3236 105.253,-52.7738"/>
</g>
<!-- Node3 -->
<g id="node3" class="node"><title>Node3</title>
<g id="a_node3"><a xlink:href="classuscxml_1_1_std_out_logger.html" target="_top" xlink:title="uscxml::StdOutLogger">
<polygon fill="white" stroke="black" points="136.5,-0.5 136.5,-19.5 251.5,-19.5 251.5,-0.5 136.5,-0.5"/>
<text text-anchor="middle" x="194" y="-7.5" font-family="Helvetica,sans-Serif" font-size="10.00">uscxml::StdOutLogger</text>
</a>
</g>
</g>
<!-- Node1&#45;&gt;Node3 -->
<g id="edge2" class="edge"><title>Node1&#45;&gt;Node3</title>
<path fill="none" stroke="midnightblue" d="M144.762,-50.1008C157,-40.3824 172.559,-28.0269 182.876,-19.8339"/>
<polygon fill="midnightblue" stroke="midnightblue" points="142.58,-47.3642 136.925,-56.324 146.933,-52.846 142.58,-47.3642"/>
</g>
</g>
</svg>
