<?xml version="1.0" encoding="UTF-8" standalone="no"?>
<!DOCTYPE svg PUBLIC "-//W3C//DTD SVG 1.1//EN"
 "http://www.w3.org/Graphics/SVG/1.1/DTD/svg11.dtd">
<!-- Generated by graphviz version 2.38.0 (20140413.2041)
 -->
<!-- Title: uscxml::IOProcessorImpl Pages: 1 -->
<svg width="328pt" height="140pt"
 viewBox="0.00 0.00 328.00 140.00" xmlns="http://www.w3.org/2000/svg" xmlns:xlink="http://www.w3.org/1999/xlink">
<g id="graph0" class="graph" transform="scale(1 1) rotate(0) translate(4 136)">
<title>uscxml::IOProcessorImpl</title>
<polygon fill="white" stroke="none" points="-4,4 -4,-136 324,-136 324,4 -4,4"/>
<!-- Node1 -->
<g id="node1" class="node"><title>Node1</title>
<polygon fill="#bfbfbf" stroke="black" points="99.5,-56.5 99.5,-75.5 227.5,-75.5 227.5,-56.5 99.5,-56.5"/>
<text text-anchor="middle" x="163.5" y="-63.5" font-family="Helvetica,sans-Serif" font-size="10.00">uscxml::IOProcessorImpl</text>
</g>
<!-- Node3 -->
<g id="node3" class="node"><title>Node3</title>
<g id="a_node3"><a xlink:href="classuscxml_1_1_basic_h_t_t_p_i_o_processor.html" target="_top" xlink:title="The basichttp I/O processor as per standard. ">
<polygon fill="white" stroke="black" points="0,-0.5 0,-19.5 159,-19.5 159,-0.5 0,-0.5"/>
<text text-anchor="middle" x="79.5" y="-7.5" font-family="Helvetica,sans-Serif" font-size="10.00">uscxml::BasicHTTPIOProcessor</text>
</a>
</g>
</g>
<!-- Node1&#45;&gt;Node3 -->
<g id="edge2" class="edge"><title>Node1&#45;&gt;Node3</title>
<path fill="none" stroke="midnightblue" d="M141.568,-50.9005C126.165,-40.9986 106.054,-28.0705 92.9626,-19.6545"/>
<polygon fill="midnightblue" stroke="midnightblue" points="139.699,-53.8605 150.004,-56.324 143.485,-47.9722 139.699,-53.8605"/>
</g>
<!-- Node4 -->
<g id="node4" class="node"><title>Node4</title>
<g id="a_node4"><a xlink:href="classuscxml_1_1_s_c_x_m_l_i_o_processor.html" target="_top" xlink:title="The scxml I/O processor as per standard. ">
<polygon fill="white" stroke="black" points="177,-0.5 177,-19.5 320,-19.5 320,-0.5 177,-0.5"/>
<text text-anchor="middle" x="248.5" y="-7.5" font-family="Helvetica,sans-Serif" font-size="10.00">uscxml::SCXMLIOProcessor</text>
</a>
</g>
</g>
<!-- Node1&#45;&gt;Node4 -->
<g id="edge3" class="edge"><title>Node1&#45;&gt;Node4</title>
<path fill="none" stroke="midnightblue" d="M185.694,-50.9005C201.28,-40.9986 221.63,-28.0705 234.877,-19.6545"/>
<polygon fill="midnightblue" stroke="midnightblue" points="183.721,-48.0073 177.157,-56.324 187.474,-53.9158 183.721,-48.0073"/>
</g>
<!-- Node2 -->
<g id="node2" class="node"><title>Node2</title>
<g id="a_node2"><a xlink:href="classuscxml_1_1_event_handler_impl.html" target="_top" xlink:title="Common base class for invokers and i/o processors. ">
<polygon fill="white" stroke="black" points="97,-112.5 97,-131.5 230,-131.5 230,-112.5 97,-112.5"/>
<text text-anchor="middle" x="163.5" y="-119.5" font-family="Helvetica,sans-Serif" font-size="10.00">uscxml::EventHandlerImpl</text>
</a>
</g>
</g>
<!-- Node2&#45;&gt;Node1 -->
<g id="edge1" class="edge"><title>Node2&#45;&gt;Node1</title>
<path fill="none" stroke="midnightblue" d="M163.5,-101.805C163.5,-92.9102 163.5,-82.7798 163.5,-75.7511"/>
<polygon fill="midnightblue" stroke="midnightblue" points="160,-102.083 163.5,-112.083 167,-102.083 160,-102.083"/>
</g>
</g>
</svg>
