<?xml version="1.0" encoding="UTF-8" standalone="no"?>
<!DOCTYPE svg PUBLIC "-//W3C//DTD SVG 1.1//EN"
 "http://www.w3.org/Graphics/SVG/1.1/DTD/svg11.dtd">
<!-- Generated by graphviz version 2.40.1 (20161225.0304)
 -->
<!-- Title: uscxml::NullDataModel Pages: 1 -->
<svg width="153pt" height="152pt"
 viewBox="0.00 0.00 153.00 152.00" xmlns="http://www.w3.org/2000/svg" xmlns:xlink="http://www.w3.org/1999/xlink">
<g id="graph0" class="graph" transform="scale(1 1) rotate(0) translate(4 148)">
<title>uscxml::NullDataModel</title>
<polygon fill="#ffffff" stroke="transparent" points="-4,4 -4,-148 149,-148 149,4 -4,4"/>
<!-- Node2 -->
<g id="node1" class="node">
<title>Node2</title>
<polygon fill="#bfbfbf" stroke="#000000" points="13,-.5 13,-19.5 132,-19.5 132,-.5 13,-.5"/>
<text text-anchor="middle" x="72.5" y="-7.5" font-family="Helvetica,sans-Serif" font-size="10.00" fill="#000000">uscxml::NullDataModel</text>
</g>
<!-- Node3 -->
<g id="node2" class="node">
<title>Node3</title>
<g id="a_node2"><a xlink:href="classuscxml_1_1_data_model_impl.html" target="_top" xlink:title="Abstract base class for all data&#45;model implementations. ">
<polygon fill="#ffffff" stroke="#000000" points="12.5,-57.5 12.5,-76.5 132.5,-76.5 132.5,-57.5 12.5,-57.5"/>
<text text-anchor="middle" x="72.5" y="-64.5" font-family="Helvetica,sans-Serif" font-size="10.00" fill="#000000">uscxml::DataModelImpl</text>
</a>
</g>
</g>
<!-- Node3&#45;&gt;Node2 -->
<g id="edge1" class="edge">
<title>Node3&#45;&gt;Node2</title>
<path fill="none" stroke="#191970" d="M72.5,-47.2342C72.5,-37.8491 72.5,-27.0651 72.5,-19.5265"/>
<polygon fill="#191970" stroke="#191970" points="69.0001,-47.3307 72.5,-57.3307 76.0001,-47.3308 69.0001,-47.3307"/>
</g>
<!-- Node4 -->
<g id="node3" class="node">
<title>Node4</title>
<g id="a_node3"><a xlink:href="classuscxml_1_1_data_model_callbacks.html" target="_top" xlink:title="Callbacks available for every data&#45;model. ">
<polygon fill="#ffffff" stroke="#000000" points="0,-124.5 0,-143.5 145,-143.5 145,-124.5 0,-124.5"/>
<text text-anchor="middle" x="72.5" y="-131.5" font-family="Helvetica,sans-Serif" font-size="10.00" fill="#000000">uscxml::DataModelCallbacks</text>
</a>
</g>
</g>
<!-- Node4&#45;&gt;Node3 -->
<g id="edge2" class="edge">
<title>Node4&#45;&gt;Node3</title>
<path fill="none" stroke="#9a32cd" stroke-dasharray="5,2" d="M72.5,-114.1079C72.5,-101.714 72.5,-86.3263 72.5,-76.5817"/>
<polygon fill="#9a32cd" stroke="#9a32cd" points="69.0001,-114.4005 72.5,-124.4005 76.0001,-114.4006 69.0001,-114.4005"/>
<text text-anchor="middle" x="97.5" y="-98" font-family="Helvetica,sans-Serif" font-size="10.00" fill="#000000"> _callbacks</text>
</g>
</g>
</svg>
