<?xml version="1.0" encoding="UTF-8" standalone="no"?>
<!DOCTYPE svg PUBLIC "-//W3C//DTD SVG 1.1//EN"
 "http://www.w3.org/Graphics/SVG/1.1/DTD/svg11.dtd">
<!-- Generated by graphviz version 2.40.1 (20161225.0304)
 -->
<!-- Title: uscxml::DirMonInvoker Pages: 1 -->
<svg width="300pt" height="140pt"
 viewBox="0.00 0.00 300.00 140.00" xmlns="http://www.w3.org/2000/svg" xmlns:xlink="http://www.w3.org/1999/xlink">
<g id="graph0" class="graph" transform="scale(1 1) rotate(0) translate(4 136)">
<title>uscxml::DirMonInvoker</title>
<polygon fill="#ffffff" stroke="transparent" points="-4,4 -4,-136 296,-136 296,4 -4,4"/>
<!-- Node0 -->
<g id="node1" class="node">
<title>Node0</title>
<polygon fill="#bfbfbf" stroke="#000000" points="81.5,-.5 81.5,-19.5 199.5,-19.5 199.5,-.5 81.5,-.5"/>
<text text-anchor="middle" x="140.5" y="-7.5" font-family="Helvetica,sans-Serif" font-size="10.00" fill="#000000">uscxml::DirMonInvoker</text>
</g>
<!-- Node1 -->
<g id="node2" class="node">
<title>Node1</title>
<g id="a_node2"><a xlink:href="classuscxml_1_1_invoker_impl.html" target="_top" xlink:title="Abstract base class for all invokers. ">
<polygon fill="#ffffff" stroke="#000000" points="14,-56.5 14,-75.5 119,-75.5 119,-56.5 14,-56.5"/>
<text text-anchor="middle" x="66.5" y="-63.5" font-family="Helvetica,sans-Serif" font-size="10.00" fill="#000000">uscxml::InvokerImpl</text>
</a>
</g>
</g>
<!-- Node1&#45;&gt;Node0 -->
<g id="edge1" class="edge">
<title>Node1&#45;&gt;Node0</title>
<path fill="none" stroke="#191970" d="M87.3657,-50.2097C100.3625,-40.3743 116.6622,-28.0394 127.7579,-19.6427"/>
<polygon fill="#191970" stroke="#191970" points="85.2518,-47.4201 79.3898,-56.2455 89.476,-53.002 85.2518,-47.4201"/>
</g>
<!-- Node2 -->
<g id="node3" class="node">
<title>Node2</title>
<g id="a_node3"><a xlink:href="classuscxml_1_1_event_handler_impl.html" target="_top" xlink:title="Common base class for invokers and i/o processors. ">
<polygon fill="#ffffff" stroke="#000000" points="0,-112.5 0,-131.5 133,-131.5 133,-112.5 0,-112.5"/>
<text text-anchor="middle" x="66.5" y="-119.5" font-family="Helvetica,sans-Serif" font-size="10.00" fill="#000000">uscxml::EventHandlerImpl</text>
</a>
</g>
</g>
<!-- Node2&#45;&gt;Node1 -->
<g id="edge2" class="edge">
<title>Node2&#45;&gt;Node1</title>
<path fill="none" stroke="#191970" d="M66.5,-102.1575C66.5,-93.155 66.5,-82.9199 66.5,-75.6427"/>
<polygon fill="#191970" stroke="#191970" points="63.0001,-102.2455 66.5,-112.2455 70.0001,-102.2456 63.0001,-102.2455"/>
</g>
<!-- Node3 -->
<g id="node4" class="node">
<title>Node3</title>
<g id="a_node4"><a xlink:href="classuscxml_1_1_directory_watch_monitor.html" target="_top" xlink:title="uscxml::DirectoryWatchMonitor">
<polygon fill="#ffffff" stroke="#000000" points="137,-56.5 137,-75.5 292,-75.5 292,-56.5 137,-56.5"/>
<text text-anchor="middle" x="214.5" y="-63.5" font-family="Helvetica,sans-Serif" font-size="10.00" fill="#000000">uscxml::DirectoryWatchMonitor</text>
</a>
</g>
</g>
<!-- Node3&#45;&gt;Node0 -->
<g id="edge3" class="edge">
<title>Node3&#45;&gt;Node0</title>
<path fill="none" stroke="#191970" d="M193.6343,-50.2097C180.6375,-40.3743 164.3378,-28.0394 153.2421,-19.6427"/>
<polygon fill="#191970" stroke="#191970" points="191.524,-53.002 201.6102,-56.2455 195.7482,-47.4201 191.524,-53.002"/>
</g>
</g>
</svg>
