<?xml version="1.0" encoding="UTF-8" standalone="no"?>
<!DOCTYPE svg PUBLIC "-//W3C//DTD SVG 1.1//EN"
 "http://www.w3.org/Graphics/SVG/1.1/DTD/svg11.dtd">
<!-- Generated by graphviz version 2.40.1 (20161225.0304)
 -->
<!-- Title: uscxml::DebuggerServlet Pages: 1 -->
<svg width="252pt" height="140pt"
 viewBox="0.00 0.00 251.50 140.00" xmlns="http://www.w3.org/2000/svg" xmlns:xlink="http://www.w3.org/1999/xlink">
<g id="graph0" class="graph" transform="scale(1 1) rotate(0) translate(4 136)">
<title>uscxml::DebuggerServlet</title>
<polygon fill="#ffffff" stroke="transparent" points="-4,4 -4,-136 247.5,-136 247.5,4 -4,4"/>
<!-- Node0 -->
<g id="node1" class="node">
<title>Node0</title>
<polygon fill="#bfbfbf" stroke="#000000" points="63.5,-.5 63.5,-19.5 191.5,-19.5 191.5,-.5 63.5,-.5"/>
<text text-anchor="middle" x="127.5" y="-7.5" font-family="Helvetica,sans-Serif" font-size="10.00" fill="#000000">uscxml::DebuggerServlet</text>
</g>
<!-- Node1 -->
<g id="node2" class="node">
<title>Node1</title>
<g id="a_node2"><a xlink:href="classuscxml_1_1_debugger.html" target="_top" xlink:title="uscxml::Debugger">
<polygon fill="#ffffff" stroke="#000000" points="18,-56.5 18,-75.5 115,-75.5 115,-56.5 18,-56.5"/>
<text text-anchor="middle" x="66.5" y="-63.5" font-family="Helvetica,sans-Serif" font-size="10.00" fill="#000000">uscxml::Debugger</text>
</a>
</g>
</g>
<!-- Node1&#45;&gt;Node0 -->
<g id="edge1" class="edge">
<title>Node1&#45;&gt;Node0</title>
<path fill="none" stroke="#191970" d="M84.6249,-49.3607C95.178,-39.6727 108.1112,-27.7995 116.9964,-19.6427"/>
<polygon fill="#191970" stroke="#191970" points="82.125,-46.9045 77.1254,-56.2455 86.8589,-52.0611 82.125,-46.9045"/>
</g>
<!-- Node2 -->
<g id="node3" class="node">
<title>Node2</title>
<g id="a_node3"><a xlink:href="classuscxml_1_1_interpreter_monitor.html" target="_top" xlink:title="uscxml::InterpreterMonitor">
<polygon fill="#ffffff" stroke="#000000" points="0,-112.5 0,-131.5 133,-131.5 133,-112.5 0,-112.5"/>
<text text-anchor="middle" x="66.5" y="-119.5" font-family="Helvetica,sans-Serif" font-size="10.00" fill="#000000">uscxml::InterpreterMonitor</text>
</a>
</g>
</g>
<!-- Node2&#45;&gt;Node1 -->
<g id="edge2" class="edge">
<title>Node2&#45;&gt;Node1</title>
<path fill="none" stroke="#191970" d="M66.5,-102.1575C66.5,-93.155 66.5,-82.9199 66.5,-75.6427"/>
<polygon fill="#191970" stroke="#191970" points="63.0001,-102.2455 66.5,-112.2455 70.0001,-102.2456 63.0001,-102.2455"/>
</g>
<!-- Node3 -->
<g id="node4" class="node">
<title>Node3</title>
<g id="a_node4"><a xlink:href="classuscxml_1_1_h_t_t_p_servlet.html" target="_top" xlink:title="uscxml::HTTPServlet">
<polygon fill="#ffffff" stroke="#000000" points="133.5,-56.5 133.5,-75.5 243.5,-75.5 243.5,-56.5 133.5,-56.5"/>
<text text-anchor="middle" x="188.5" y="-63.5" font-family="Helvetica,sans-Serif" font-size="10.00" fill="#000000">uscxml::HTTPServlet</text>
</a>
</g>
</g>
<!-- Node3&#45;&gt;Node0 -->
<g id="edge3" class="edge">
<title>Node3&#45;&gt;Node0</title>
<path fill="none" stroke="#191970" d="M170.3751,-49.3607C159.822,-39.6727 146.8888,-27.7995 138.0036,-19.6427"/>
<polygon fill="#191970" stroke="#191970" points="168.1411,-52.0611 177.8746,-56.2455 172.875,-46.9045 168.1411,-52.0611"/>
</g>
</g>
</svg>
