<?xml version="1.0" encoding="UTF-8" standalone="no"?>
<!DOCTYPE svg PUBLIC "-//W3C//DTD SVG 1.1//EN"
 "http://www.w3.org/Graphics/SVG/1.1/DTD/svg11.dtd">
<!-- Generated by graphviz version 2.38.0 (20140413.2041)
 -->
<!-- Title: uscxml::HTTPServer::WSFrame Pages: 1 -->
<svg width="117pt" height="230pt"
 viewBox="0.00 0.00 117.00 230.00" xmlns="http://www.w3.org/2000/svg" xmlns:xlink="http://www.w3.org/1999/xlink">
<g id="graph0" class="graph" transform="scale(1 1) rotate(0) translate(4 226)">
<title>uscxml::HTTPServer::WSFrame</title>
<polygon fill="white" stroke="none" points="-4,4 -4,-226 113,-226 113,4 -4,4"/>
<!-- Node1 -->
<g id="node1" class="node"><title>Node1</title>
<polygon fill="#bfbfbf" stroke="black" points="0,-0.5 0,-30.5 109,-30.5 109,-0.5 0,-0.5"/>
<text text-anchor="start" x="8" y="-18.5" font-family="Helvetica,sans-Serif" font-size="10.00">uscxml::HTTPServer</text>
<text text-anchor="middle" x="54.5" y="-7.5" font-family="Helvetica,sans-Serif" font-size="10.00">::WSFrame</text>
</g>
<!-- Node2 -->
<g id="node2" class="node"><title>Node2</title>
<g id="a_node2"><a xlink:href="classuscxml_1_1_event.html" target="_top" xlink:title="uscxml::Event">
<polygon fill="white" stroke="black" points="15,-68.5 15,-87.5 94,-87.5 94,-68.5 15,-68.5"/>
<text text-anchor="middle" x="54.5" y="-75.5" font-family="Helvetica,sans-Serif" font-size="10.00">uscxml::Event</text>
</a>
</g>
</g>
<!-- Node2&#45;&gt;Node1 -->
<g id="edge1" class="edge"><title>Node2&#45;&gt;Node1</title>
<path fill="none" stroke="midnightblue" d="M54.5,-58.2154C54.5,-49.3565 54.5,-38.9577 54.5,-30.7587"/>
<polygon fill="midnightblue" stroke="midnightblue" points="51.0001,-58.3318 54.5,-68.3318 58.0001,-58.3319 51.0001,-58.3318"/>
</g>
<!-- Node3 -->
<g id="node3" class="node"><title>Node3</title>
<g id="a_node3"><a xlink:href="classuscxml_1_1_data.html" target="_top" xlink:title="uscxml::Data">
<polygon fill="white" stroke="black" points="17.5,-135.5 17.5,-154.5 91.5,-154.5 91.5,-135.5 17.5,-135.5"/>
<text text-anchor="middle" x="54.5" y="-142.5" font-family="Helvetica,sans-Serif" font-size="10.00">uscxml::Data</text>
</a>
</g>
</g>
<!-- Node3&#45;&gt;Node2 -->
<g id="edge2" class="edge"><title>Node3&#45;&gt;Node2</title>
<path fill="none" stroke="#9a32cd" stroke-dasharray="5,2" d="M54.5,-125.037C54.5,-112.67 54.5,-97.1198 54.5,-87.6273"/>
<polygon fill="#9a32cd" stroke="#9a32cd" points="51.0001,-125.234 54.5,-135.234 58.0001,-125.234 51.0001,-125.234"/>
<text text-anchor="middle" x="66" y="-109" font-family="Helvetica,sans-Serif" font-size="10.00"> data</text>
</g>
<!-- Node4 -->
<g id="node4" class="node"><title>Node4</title>
<g id="a_node4"><a xlink:href="classuscxml_1_1_blob.html" target="_top" xlink:title="uscxml::Blob">
<polygon fill="white" stroke="black" points="18,-202.5 18,-221.5 91,-221.5 91,-202.5 18,-202.5"/>
<text text-anchor="middle" x="54.5" y="-209.5" font-family="Helvetica,sans-Serif" font-size="10.00">uscxml::Blob</text>
</a>
</g>
</g>
<!-- Node4&#45;&gt;Node3 -->
<g id="edge3" class="edge"><title>Node4&#45;&gt;Node3</title>
<path fill="none" stroke="#9a32cd" stroke-dasharray="5,2" d="M54.5,-192.037C54.5,-179.67 54.5,-164.12 54.5,-154.627"/>
<polygon fill="#9a32cd" stroke="#9a32cd" points="51.0001,-192.234 54.5,-202.234 58.0001,-192.234 51.0001,-192.234"/>
<text text-anchor="middle" x="70" y="-176" font-family="Helvetica,sans-Serif" font-size="10.00"> binary</text>
</g>
</g>
</svg>
