<?xml version="1.0" encoding="UTF-8" standalone="no"?>
<!DOCTYPE svg PUBLIC "-//W3C//DTD SVG 1.1//EN"
 "http://www.w3.org/Graphics/SVG/1.1/DTD/svg11.dtd">
<!-- Generated by graphviz version 2.40.1 (20161225.0304)
 -->
<!-- Title: uscxml::USCXMLInvoker::ParentQueueImpl Pages: 1 -->
<!--zoomable 192 -->
<svg id="main" version="1.1" xmlns="http://www.w3.org/2000/svg" xmlns:xlink="http://www.w3.org/1999/xlink" xml:space="preserve" onload="init(evt)">
<style type="text/css"><![CDATA[
.edge:hover path { stroke: red; }
.edge:hover polygon { stroke: red; fill: red; }
]]></style>
<script type="text/javascript"><![CDATA[
var edges = document.getElementsByTagName('g');
if (edges && edges.length) {
  for (var i=0;i<edges.length;i++) {
    if (edges[i].id.substr(0,4)=='edge') {
      edges[i].setAttribute('class','edge');
    }
  }
}
]]></script>
        <defs>
                <circle id="rim" cx="0" cy="0" r="7"/>
                <circle id="rim2" cx="0" cy="0" r="3.5"/>
                <g id="zoomPlus">
                        <use xlink:href="#rim" fill="#404040">
                                <set attributeName="fill" to="#808080" begin="zoomplus.mouseover" end="zoomplus.mouseout"/>
                        </use>
                        <path d="M-4,0h8M0,-4v8" fill="none" stroke="white" stroke-width="1.5" pointer-events="none"/>
                </g>
                <g id="zoomMin">
                        <use xlink:href="#rim" fill="#404040">
                                <set attributeName="fill" to="#808080" begin="zoomminus.mouseover" end="zoomminus.mouseout"/>
                        </use>
                        <path d="M-4,0h8" fill="none" stroke="white" stroke-width="1.5" pointer-events="none"/>
                </g>
                <g id="dirArrow">
                        <path fill="none" stroke="white" stroke-width="1.5" d="M0,-3.0v7 M-2.5,-0.5L0,-3.0L2.5,-0.5"/>
                </g>
               <g id="resetDef">
                       <use xlink:href="#rim2" fill="#404040">
                               <set attributeName="fill" to="#808080" begin="reset.mouseover" end="reset.mouseout"/>
                       </use>
               </g>
        </defs>

<script type="text/javascript">
var viewWidth = 845;
var viewHeight = 192;
var sectionId = 'dynsection-1';
</script>
<script xlink:href="svgpan.js"/>
<svg id="graph" class="graph">
<g id="viewport">
<title>uscxml::USCXMLInvoker::ParentQueueImpl</title>
<polygon fill="#ffffff" stroke="transparent" points="-4,4 -4,-188 841,-188 841,4 -4,4"/>
<!-- Node3 -->
<g id="node1" class="node">
<title>Node3</title>
<polygon fill="#bfbfbf" stroke="#000000" points="709,-96 709,-126 837,-126 837,-96 709,-96"/>
<text text-anchor="start" x="717" y="-114" font-family="Helvetica,sans-Serif" font-size="10.00" fill="#000000">uscxml::USCXMLInvoker</text>
<text text-anchor="middle" x="773" y="-103" font-family="Helvetica,sans-Serif" font-size="10.00" fill="#000000">::ParentQueueImpl</text>
</g>
<!-- Node4 -->
<g id="node2" class="node">
<title>Node4</title>
<g id="a_node2"><a xlink:href="classuscxml_1_1_basic_event_queue.html" target="_top" xlink:title="uscxml::BasicEventQueue">
<polygon fill="#ffffff" stroke="#000000" points="499,-142.5 499,-161.5 632,-161.5 632,-142.5 499,-142.5"/>
<text text-anchor="middle" x="565.5" y="-149.5" font-family="Helvetica,sans-Serif" font-size="10.00" fill="#000000">uscxml::BasicEventQueue</text>
</a>
</g>
</g>
<!-- Node4&#45;&gt;Node3 -->
<g id="edge1" class="edge">
<title>Node4&#45;&gt;Node3</title>
<path fill="none" stroke="#191970" d="M623.5099,-140.5378C649.9831,-135.3069 681.4241,-129.0945 708.625,-123.7199"/>
<polygon fill="#191970" stroke="#191970" points="622.7581,-137.1186 613.6262,-142.4907 624.115,-143.9858 622.7581,-137.1186"/>
</g>
<!-- Node5 -->
<g id="node3" class="node">
<title>Node5</title>
<g id="a_node3"><a xlink:href="classuscxml_1_1_event_queue_impl.html" target="_top" xlink:title="uscxml::EventQueueImpl">
<polygon fill="#ffffff" stroke="#000000" points="232.5,-164.5 232.5,-183.5 360.5,-183.5 360.5,-164.5 232.5,-164.5"/>
<text text-anchor="middle" x="296.5" y="-171.5" font-family="Helvetica,sans-Serif" font-size="10.00" fill="#000000">uscxml::EventQueueImpl</text>
</a>
</g>
</g>
<!-- Node5&#45;&gt;Node4 -->
<g id="edge2" class="edge">
<title>Node5&#45;&gt;Node4</title>
<path fill="none" stroke="#191970" d="M370.5695,-167.9423C410.6316,-164.6658 459.7241,-160.6508 498.6195,-157.4698"/>
<polygon fill="#191970" stroke="#191970" points="370.2718,-164.4548 360.5904,-168.7584 370.8425,-171.4315 370.2718,-164.4548"/>
</g>
<!-- Node6 -->
<g id="node4" class="node">
<title>Node6</title>
<g id="a_node4"><a xlink:href="classuscxml_1_1_u_s_c_x_m_l_invoker.html" target="_top" xlink:title="An invoker for other SCXML instances. ">
<polygon fill="#ffffff" stroke="#000000" points="501.5,-82.5 501.5,-101.5 629.5,-101.5 629.5,-82.5 501.5,-82.5"/>
<text text-anchor="middle" x="565.5" y="-89.5" font-family="Helvetica,sans-Serif" font-size="10.00" fill="#000000">uscxml::USCXMLInvoker</text>
</a>
</g>
</g>
<!-- Node6&#45;&gt;Node3 -->
<g id="edge3" class="edge">
<title>Node6&#45;&gt;Node3</title>
<path fill="none" stroke="#9a32cd" stroke-dasharray="5,2" d="M640.0075,-97.5687C656.7892,-98.9254 674.5118,-100.4386 691,-102 696.7031,-102.5401 702.626,-103.1311 708.5607,-103.744"/>
<polygon fill="#9a32cd" stroke="#9a32cd" points="639.9465,-94.0528 629.6995,-96.7452 639.389,-101.0305 639.9465,-94.0528"/>
<text text-anchor="middle" x="670.5" y="-105" font-family="Helvetica,sans-Serif" font-size="10.00" fill="#000000"> _invoker</text>
</g>
<!-- Node7 -->
<g id="node5" class="node">
<title>Node7</title>
<g id="a_node5"><a xlink:href="classuscxml_1_1_invoker_impl.html" target="_top" xlink:title="Abstract base class for all invokers. ">
<polygon fill="#ffffff" stroke="#000000" points="244,-126.5 244,-145.5 349,-145.5 349,-126.5 244,-126.5"/>
<text text-anchor="middle" x="296.5" y="-133.5" font-family="Helvetica,sans-Serif" font-size="10.00" fill="#000000">uscxml::InvokerImpl</text>
</a>
</g>
</g>
<!-- Node7&#45;&gt;Node6 -->
<g id="edge4" class="edge">
<title>Node7&#45;&gt;Node6</title>
<path fill="none" stroke="#191970" d="M359.6487,-125.7799C395.2844,-120.0006 440.6324,-112.626 481,-106 489.8043,-104.5549 499.1232,-103.0181 508.232,-101.512"/>
<polygon fill="#191970" stroke="#191970" points="358.7046,-122.3872 349.3937,-127.4425 359.8249,-129.297 358.7046,-122.3872"/>
</g>
<!-- Node8 -->
<g id="node6" class="node">
<title>Node8</title>
<g id="a_node6"><a xlink:href="classuscxml_1_1_event_handler_impl.html" target="_top" xlink:title="Common base class for invokers and i/o processors. ">
<polygon fill="#ffffff" stroke="#000000" points="0,-145.5 0,-164.5 133,-164.5 133,-145.5 0,-145.5"/>
<text text-anchor="middle" x="66.5" y="-152.5" font-family="Helvetica,sans-Serif" font-size="10.00" fill="#000000">uscxml::EventHandlerImpl</text>
</a>
</g>
</g>
<!-- Node8&#45;&gt;Node7 -->
<g id="edge5" class="edge">
<title>Node8&#45;&gt;Node7</title>
<path fill="none" stroke="#191970" d="M143.1333,-148.6694C176.2446,-145.9341 214.1485,-142.803 243.9901,-140.3378"/>
<polygon fill="#191970" stroke="#191970" points="142.7034,-145.1929 133.0255,-149.5044 143.2798,-152.1692 142.7034,-145.1929"/>
</g>
<!-- Node9 -->
<g id="node7" class="node">
<title>Node9</title>
<g id="a_node7"><a xlink:href="classuscxml_1_1_invoker_callbacks.html" target="_top" xlink:title="Callbacks available for every invoker. ">
<polygon fill="#ffffff" stroke="#000000" points="2,-107.5 2,-126.5 131,-126.5 131,-107.5 2,-107.5"/>
<text text-anchor="middle" x="66.5" y="-114.5" font-family="Helvetica,sans-Serif" font-size="10.00" fill="#000000">uscxml::InvokerCallbacks</text>
</a>
</g>
</g>
<!-- Node9&#45;&gt;Node7 -->
<g id="edge6" class="edge">
<title>Node9&#45;&gt;Node7</title>
<path fill="none" stroke="#9a32cd" stroke-dasharray="5,2" d="M141.3913,-123.1867C174.8793,-125.9531 213.5549,-129.148 243.9091,-131.6555"/>
<polygon fill="#9a32cd" stroke="#9a32cd" points="141.4341,-119.6784 131.1799,-122.3431 140.8578,-126.6546 141.4341,-119.6784"/>
<text text-anchor="middle" x="176" y="-131" font-family="Helvetica,sans-Serif" font-size="10.00" fill="#000000"> _callbacks</text>
</g>
<!-- Node10 -->
<g id="node8" class="node">
<title>Node10</title>
<polygon fill="#ffffff" stroke="#bfbfbf" points="219,-77 219,-107 374,-107 374,-77 219,-77"/>
<text text-anchor="start" x="227" y="-95" font-family="Helvetica,sans-Serif" font-size="10.00" fill="#000000">std::enable_shared</text>
<text text-anchor="middle" x="296.5" y="-84" font-family="Helvetica,sans-Serif" font-size="10.00" fill="#000000">_from_this&lt; USCXMLInvoker &gt;</text>
</g>
<!-- Node10&#45;&gt;Node6 -->
<g id="edge7" class="edge">
<title>Node10&#45;&gt;Node6</title>
<path fill="none" stroke="#191970" d="M384.392,-92C422.5642,-92 466.4518,-92 501.4629,-92"/>
<polygon fill="#191970" stroke="#191970" points="384.306,-88.5001 374.3059,-92 384.3059,-95.5001 384.306,-88.5001"/>
</g>
<!-- Node11 -->
<g id="node9" class="node">
<title>Node11</title>
<g id="a_node9"><a xlink:href="classuscxml_1_1_event_queue.html" target="_top" xlink:title="uscxml::EventQueue">
<polygon fill="#ffffff" stroke="#000000" points="242,-38.5 242,-57.5 351,-57.5 351,-38.5 242,-38.5"/>
<text text-anchor="middle" x="296.5" y="-45.5" font-family="Helvetica,sans-Serif" font-size="10.00" fill="#000000">uscxml::EventQueue</text>
</a>
</g>
</g>
<!-- Node11&#45;&gt;Node6 -->
<g id="edge8" class="edge">
<title>Node11&#45;&gt;Node6</title>
<path fill="none" stroke="#9a32cd" stroke-dasharray="5,2" d="M361.2415,-57.8557C396.6487,-63.3264 441.2694,-70.3518 481,-77 491.2866,-78.7213 502.2656,-80.6227 512.7893,-82.4772"/>
<polygon fill="#9a32cd" stroke="#9a32cd" points="361.4555,-54.3474 351.039,-56.2829 360.3889,-61.2657 361.4555,-54.3474"/>
<text text-anchor="middle" x="436.5" y="-80" font-family="Helvetica,sans-Serif" font-size="10.00" fill="#000000"> _parentQueue</text>
</g>
<!-- Node12 -->
<g id="node10" class="node">
<title>Node12</title>
<g id="a_node10"><a xlink:href="classuscxml_1_1_interpreter.html" target="_top" xlink:title="Central class to interpret and process SCXML documents. ">
<polygon fill="#ffffff" stroke="#000000" points="247,-.5 247,-19.5 346,-19.5 346,-.5 247,-.5"/>
<text text-anchor="middle" x="296.5" y="-7.5" font-family="Helvetica,sans-Serif" font-size="10.00" fill="#000000">uscxml::Interpreter</text>
</a>
</g>
</g>
<!-- Node12&#45;&gt;Node6 -->
<g id="edge9" class="edge">
<title>Node12&#45;&gt;Node6</title>
<path fill="none" stroke="#9a32cd" stroke-dasharray="5,2" d="M356.0593,-18.5094C392.7434,-24.745 440.3672,-34.6486 481,-49 506.1436,-57.8806 533.303,-72.7411 549.8581,-82.457"/>
<polygon fill="#9a32cd" stroke="#9a32cd" points="356.4548,-15.0273 346.0175,-16.8472 355.3116,-21.9333 356.4548,-15.0273"/>
<text text-anchor="middle" x="436.5" y="-52" font-family="Helvetica,sans-Serif" font-size="10.00" fill="#000000"> _invokedInterpreter</text>
</g>
</g>
</svg>
        <g id="navigator" transform="translate(0 0)" fill="#404254">
                <rect fill="#f2f5e9" fill-opacity="0.5" stroke="#606060" stroke-width=".5" x="0" y="0" width="60" height="60"/>
                <use id="zoomplus" xlink:href="#zoomPlus" x="17" y="9" onmousedown="handleZoom(evt,'in')"/>
                <use id="zoomminus" xlink:href="#zoomMin" x="42" y="9" onmousedown="handleZoom(evt,'out')"/>
                <use id="reset" xlink:href="#resetDef" x="30" y="36" onmousedown="handleReset()"/>
                <g id="arrowUp" xlink:href="#dirArrow" transform="translate(30 24)" onmousedown="handlePan(0,-1)">
                  <use xlink:href="#rim" fill="#404040">
                        <set attributeName="fill" to="#808080" begin="arrowUp.mouseover" end="arrowUp.mouseout"/>
                  </use>
                  <path fill="none" stroke="white" stroke-width="1.5" d="M0,-3.0v7 M-2.5,-0.5L0,-3.0L2.5,-0.5"/>
                </g>
                <g id="arrowRight" xlink:href="#dirArrow" transform="rotate(90) translate(36 -43)" onmousedown="handlePan(1,0)">
                  <use xlink:href="#rim" fill="#404040">
                        <set attributeName="fill" to="#808080" begin="arrowRight.mouseover" end="arrowRight.mouseout"/>
                  </use>
                  <path fill="none" stroke="white" stroke-width="1.5" d="M0,-3.0v7 M-2.5,-0.5L0,-3.0L2.5,-0.5"/>
                </g>
                <g id="arrowDown" xlink:href="#dirArrow" transform="rotate(180) translate(-30 -48)" onmousedown="handlePan(0,1)">
                  <use xlink:href="#rim" fill="#404040">
                        <set attributeName="fill" to="#808080" begin="arrowDown.mouseover" end="arrowDown.mouseout"/>
                  </use>
                  <path fill="none" stroke="white" stroke-width="1.5" d="M0,-3.0v7 M-2.5,-0.5L0,-3.0L2.5,-0.5"/>
                </g>
                <g id="arrowLeft" xlink:href="#dirArrow" transform="rotate(270) translate(-36 17)" onmousedown="handlePan(-1,0)">
                  <use xlink:href="#rim" fill="#404040">
                        <set attributeName="fill" to="#808080" begin="arrowLeft.mouseover" end="arrowLeft.mouseout"/>
                  </use>
                  <path fill="none" stroke="white" stroke-width="1.5" d="M0,-3.0v7 M-2.5,-0.5L0,-3.0L2.5,-0.5"/>
                </g>
        </g>
        <svg viewBox="0 0 15 15" width="100%" height="30px" preserveAspectRatio="xMaxYMin meet">
         <g id="arrow_out" transform="scale(0.3 0.3)">
          <a xlink:href="classuscxml_1_1_u_s_c_x_m_l_invoker_1_1_parent_queue_impl__coll__graph_org.svg" target="_base">
           <rect id="button" ry="5" rx="5" y="6" x="6" height="38" width="38"
                fill="#f2f5e9" fill-opacity="0.5" stroke="#606060" stroke-width="1.0"/>
           <path id="arrow"
             d="M 11.500037,31.436501 C 11.940474,20.09759 22.043105,11.32322 32.158766,21.979434 L 37.068811,17.246167 C 37.068811,17.246167 37.088388,32 37.088388,32 L 22.160133,31.978069 C 22.160133,31.978069 26.997745,27.140456 26.997745,27.140456 C 18.528582,18.264221 13.291696,25.230495 11.500037,31.436501 z"
             style="fill:#404040;"/>
          </a>
         </g>
        </svg>
</svg>
