<?xml version="1.0" encoding="UTF-8" standalone="no"?>
<!DOCTYPE svg PUBLIC "-//W3C//DTD SVG 1.1//EN"
 "http://www.w3.org/Graphics/SVG/1.1/DTD/svg11.dtd">
<!-- Generated by graphviz version 2.38.0 (20140413.2041)
 -->
<!-- Title: uscxml::PromelaDataModel Pages: 1 -->
<svg width="323pt" height="229pt"
 viewBox="0.00 0.00 323.00 229.00" xmlns="http://www.w3.org/2000/svg" xmlns:xlink="http://www.w3.org/1999/xlink">
<g id="graph0" class="graph" transform="scale(1 1) rotate(0) translate(4 225)">
<title>uscxml::PromelaDataModel</title>
<polygon fill="white" stroke="none" points="-4,4 -4,-225 319,-225 319,4 -4,4"/>
<!-- Node1 -->
<g id="node1" class="node"><title>Node1</title>
<polygon fill="#bfbfbf" stroke="black" points="99,-0.5 99,-19.5 238,-19.5 238,-0.5 99,-0.5"/>
<text text-anchor="middle" x="168.5" y="-7.5" font-family="Helvetica,sans-Serif" font-size="10.00">uscxml::PromelaDataModel</text>
</g>
<!-- Node2 -->
<g id="node2" class="node"><title>Node2</title>
<g id="a_node2"><a xlink:href="classuscxml_1_1_data_model_impl.html" target="_top" xlink:title="Abstract base class for all data&#45;model implementations. ">
<polygon fill="white" stroke="black" points="12.5,-67.5 12.5,-86.5 132.5,-86.5 132.5,-67.5 12.5,-67.5"/>
<text text-anchor="middle" x="72.5" y="-74.5" font-family="Helvetica,sans-Serif" font-size="10.00">uscxml::DataModelImpl</text>
</a>
</g>
</g>
<!-- Node2&#45;&gt;Node1 -->
<g id="edge1" class="edge"><title>Node2&#45;&gt;Node1</title>
<path fill="none" stroke="midnightblue" d="M93.7758,-61.5945C112.767,-48.7359 139.95,-30.3306 155.758,-19.6273"/>
<polygon fill="midnightblue" stroke="midnightblue" points="91.7652,-58.729 85.447,-67.2338 95.6898,-64.5254 91.7652,-58.729"/>
</g>
<!-- Node3 -->
<g id="node3" class="node"><title>Node3</title>
<g id="a_node3"><a xlink:href="classuscxml_1_1_data_model_callbacks.html" target="_top" xlink:title="Callbacks available for every data&#45;model. ">
<polygon fill="white" stroke="black" points="0,-134.5 0,-153.5 145,-153.5 145,-134.5 0,-134.5"/>
<text text-anchor="middle" x="72.5" y="-141.5" font-family="Helvetica,sans-Serif" font-size="10.00">uscxml::DataModelCallbacks</text>
</a>
</g>
</g>
<!-- Node3&#45;&gt;Node2 -->
<g id="edge2" class="edge"><title>Node3&#45;&gt;Node2</title>
<path fill="none" stroke="#9a32cd" stroke-dasharray="5,2" d="M72.5,-124.037C72.5,-111.67 72.5,-96.1198 72.5,-86.6273"/>
<polygon fill="#9a32cd" stroke="#9a32cd" points="69.0001,-124.234 72.5,-134.234 76.0001,-124.234 69.0001,-124.234"/>
<text text-anchor="middle" x="97.5" y="-108" font-family="Helvetica,sans-Serif" font-size="10.00"> _callbacks</text>
</g>
<!-- Node4 -->
<g id="node4" class="node"><title>Node4</title>
<g id="a_node4"><a xlink:href="classuscxml_1_1_data.html" target="_top" xlink:title="uscxml::Data">
<polygon fill="white" stroke="black" points="182.5,-134.5 182.5,-153.5 256.5,-153.5 256.5,-134.5 182.5,-134.5"/>
<text text-anchor="middle" x="219.5" y="-141.5" font-family="Helvetica,sans-Serif" font-size="10.00">uscxml::Data</text>
</a>
</g>
</g>
<!-- Node4&#45;&gt;Node1 -->
<g id="edge3" class="edge"><title>Node4&#45;&gt;Node1</title>
<path fill="none" stroke="#9a32cd" stroke-dasharray="5,2" d="M204.242,-126.837C195.227,-116.313 184.445,-101.825 178.5,-87 169.286,-64.0255 168.182,-34.3159 168.267,-19.7863"/>
<polygon fill="#9a32cd" stroke="#9a32cd" points="201.693,-129.236 210.968,-134.358 206.911,-124.571 201.693,-129.236"/>
<text text-anchor="middle" x="203" y="-74.5" font-family="Helvetica,sans-Serif" font-size="10.00"> _variables</text>
</g>
<!-- Node6 -->
<g id="node6" class="node"><title>Node6</title>
<g id="a_node6"><a xlink:href="classuscxml_1_1_event.html" target="_top" xlink:title="uscxml::Event">
<polygon fill="white" stroke="black" points="236,-67.5 236,-86.5 315,-86.5 315,-67.5 236,-67.5"/>
<text text-anchor="middle" x="275.5" y="-74.5" font-family="Helvetica,sans-Serif" font-size="10.00">uscxml::Event</text>
</a>
</g>
</g>
<!-- Node4&#45;&gt;Node6 -->
<g id="edge6" class="edge"><title>Node4&#45;&gt;Node6</title>
<path fill="none" stroke="#9a32cd" stroke-dasharray="5,2" d="M233.599,-126.635C244.551,-113.923 259.305,-96.7978 268.067,-86.6273"/>
<polygon fill="#9a32cd" stroke="#9a32cd" points="230.928,-124.373 227.052,-134.234 236.231,-128.942 230.928,-124.373"/>
<text text-anchor="middle" x="262" y="-108" font-family="Helvetica,sans-Serif" font-size="10.00"> data</text>
</g>
<!-- Node5 -->
<g id="node5" class="node"><title>Node5</title>
<g id="a_node5"><a xlink:href="classuscxml_1_1_blob.html" target="_top" xlink:title="uscxml::Blob">
<polygon fill="white" stroke="black" points="183,-201.5 183,-220.5 256,-220.5 256,-201.5 183,-201.5"/>
<text text-anchor="middle" x="219.5" y="-208.5" font-family="Helvetica,sans-Serif" font-size="10.00">uscxml::Blob</text>
</a>
</g>
</g>
<!-- Node5&#45;&gt;Node4 -->
<g id="edge4" class="edge"><title>Node5&#45;&gt;Node4</title>
<path fill="none" stroke="#9a32cd" stroke-dasharray="5,2" d="M219.5,-191.037C219.5,-178.67 219.5,-163.12 219.5,-153.627"/>
<polygon fill="#9a32cd" stroke="#9a32cd" points="216,-191.234 219.5,-201.234 223,-191.234 216,-191.234"/>
<text text-anchor="middle" x="235" y="-175" font-family="Helvetica,sans-Serif" font-size="10.00"> binary</text>
</g>
<!-- Node6&#45;&gt;Node1 -->
<g id="edge5" class="edge"><title>Node6&#45;&gt;Node1</title>
<path fill="none" stroke="#9a32cd" stroke-dasharray="5,2" d="M252.359,-61.9422C231.169,-49.0696 200.481,-30.4274 182.702,-19.6273"/>
<polygon fill="#9a32cd" stroke="#9a32cd" points="250.706,-65.0332 261.07,-67.2338 254.34,-59.0506 250.706,-65.0332"/>
<text text-anchor="middle" x="244" y="-41" font-family="Helvetica,sans-Serif" font-size="10.00"> _event</text>
</g>
</g>
</svg>
