<?xml version="1.0" encoding="UTF-8" standalone="no"?>
<!DOCTYPE svg PUBLIC "-//W3C//DTD SVG 1.1//EN"
 "http://www.w3.org/Graphics/SVG/1.1/DTD/svg11.dtd">
<!-- Generated by graphviz version 2.40.1 (20161225.0304)
 -->
<!-- Title: uscxml::USCXMLInvoker::ParentQueueImpl Pages: 1 -->
<svg width="141pt" height="151pt"
 viewBox="0.00 0.00 141.00 151.00" xmlns="http://www.w3.org/2000/svg" xmlns:xlink="http://www.w3.org/1999/xlink">
<g id="graph0" class="graph" transform="scale(1 1) rotate(0) translate(4 147)">
<title>uscxml::USCXMLInvoker::ParentQueueImpl</title>
<polygon fill="#ffffff" stroke="transparent" points="-4,4 -4,-147 137,-147 137,4 -4,4"/>
<!-- Node0 -->
<g id="node1" class="node">
<title>Node0</title>
<polygon fill="#bfbfbf" stroke="#000000" points="2.5,-.5 2.5,-30.5 130.5,-30.5 130.5,-.5 2.5,-.5"/>
<text text-anchor="start" x="10.5" y="-18.5" font-family="Helvetica,sans-Serif" font-size="10.00" fill="#000000">uscxml::USCXMLInvoker</text>
<text text-anchor="middle" x="66.5" y="-7.5" font-family="Helvetica,sans-Serif" font-size="10.00" fill="#000000">::ParentQueueImpl</text>
</g>
<!-- Node1 -->
<g id="node2" class="node">
<title>Node1</title>
<g id="a_node2"><a xlink:href="classuscxml_1_1_basic_event_queue.html" target="_top" xlink:title="uscxml::BasicEventQueue">
<polygon fill="#ffffff" stroke="#000000" points="0,-67.5 0,-86.5 133,-86.5 133,-67.5 0,-67.5"/>
<text text-anchor="middle" x="66.5" y="-74.5" font-family="Helvetica,sans-Serif" font-size="10.00" fill="#000000">uscxml::BasicEventQueue</text>
</a>
</g>
</g>
<!-- Node1&#45;&gt;Node0 -->
<g id="edge1" class="edge">
<title>Node1&#45;&gt;Node0</title>
<path fill="none" stroke="#191970" d="M66.5,-57.3693C66.5,-48.681 66.5,-38.6241 66.5,-30.5446"/>
<polygon fill="#191970" stroke="#191970" points="63.0001,-57.3906 66.5,-67.3906 70.0001,-57.3907 63.0001,-57.3906"/>
</g>
<!-- Node2 -->
<g id="node3" class="node">
<title>Node2</title>
<g id="a_node3"><a xlink:href="classuscxml_1_1_event_queue_impl.html" target="_top" xlink:title="uscxml::EventQueueImpl">
<polygon fill="#ffffff" stroke="#000000" points="2.5,-123.5 2.5,-142.5 130.5,-142.5 130.5,-123.5 2.5,-123.5"/>
<text text-anchor="middle" x="66.5" y="-130.5" font-family="Helvetica,sans-Serif" font-size="10.00" fill="#000000">uscxml::EventQueueImpl</text>
</a>
</g>
</g>
<!-- Node2&#45;&gt;Node1 -->
<g id="edge2" class="edge">
<title>Node2&#45;&gt;Node1</title>
<path fill="none" stroke="#191970" d="M66.5,-113.1575C66.5,-104.155 66.5,-93.9199 66.5,-86.6427"/>
<polygon fill="#191970" stroke="#191970" points="63.0001,-113.2455 66.5,-123.2455 70.0001,-113.2456 63.0001,-113.2455"/>
</g>
</g>
</svg>
