<?xml version="1.0" encoding="UTF-8" standalone="no"?>
<!DOCTYPE svg PUBLIC "-//W3C//DTD SVG 1.1//EN"
 "http://www.w3.org/Graphics/SVG/1.1/DTD/svg11.dtd">
<!-- Generated by graphviz version 2.40.1 (20161225.0304)
 -->
<!-- Title: uscxml::ErrorEvent Pages: 1 -->
<svg width="109pt" height="219pt"
 viewBox="0.00 0.00 109.00 219.00" xmlns="http://www.w3.org/2000/svg" xmlns:xlink="http://www.w3.org/1999/xlink">
<g id="graph0" class="graph" transform="scale(1 1) rotate(0) translate(4 215)">
<title>uscxml::ErrorEvent</title>
<polygon fill="#ffffff" stroke="transparent" points="-4,4 -4,-215 105,-215 105,4 -4,4"/>
<!-- Node2 -->
<g id="node1" class="node">
<title>Node2</title>
<polygon fill="#bfbfbf" stroke="#000000" points="0,-.5 0,-19.5 101,-19.5 101,-.5 0,-.5"/>
<text text-anchor="middle" x="50.5" y="-7.5" font-family="Helvetica,sans-Serif" font-size="10.00" fill="#000000">uscxml::ErrorEvent</text>
</g>
<!-- Node3 -->
<g id="node2" class="node">
<title>Node3</title>
<g id="a_node2"><a xlink:href="classuscxml_1_1_event.html" target="_top" xlink:title="uscxml::Event">
<polygon fill="#ffffff" stroke="#000000" points="11,-57.5 11,-76.5 90,-76.5 90,-57.5 11,-57.5"/>
<text text-anchor="middle" x="50.5" y="-64.5" font-family="Helvetica,sans-Serif" font-size="10.00" fill="#000000">uscxml::Event</text>
</a>
</g>
</g>
<!-- Node3&#45;&gt;Node2 -->
<g id="edge1" class="edge">
<title>Node3&#45;&gt;Node2</title>
<path fill="none" stroke="#191970" d="M50.5,-47.2342C50.5,-37.8491 50.5,-27.0651 50.5,-19.5265"/>
<polygon fill="#191970" stroke="#191970" points="47.0001,-47.3307 50.5,-57.3307 54.0001,-47.3308 47.0001,-47.3307"/>
</g>
<!-- Node4 -->
<g id="node3" class="node">
<title>Node4</title>
<g id="a_node3"><a xlink:href="classuscxml_1_1_data.html" target="_top" xlink:title="uscxml::Data">
<polygon fill="#ffffff" stroke="#000000" points="13.5,-124.5 13.5,-143.5 87.5,-143.5 87.5,-124.5 13.5,-124.5"/>
<text text-anchor="middle" x="50.5" y="-131.5" font-family="Helvetica,sans-Serif" font-size="10.00" fill="#000000">uscxml::Data</text>
</a>
</g>
</g>
<!-- Node4&#45;&gt;Node3 -->
<g id="edge2" class="edge">
<title>Node4&#45;&gt;Node3</title>
<path fill="none" stroke="#9a32cd" stroke-dasharray="5,2" d="M50.5,-114.1079C50.5,-101.714 50.5,-86.3263 50.5,-76.5817"/>
<polygon fill="#9a32cd" stroke="#9a32cd" points="47.0001,-114.4005 50.5,-124.4005 54.0001,-114.4006 47.0001,-114.4005"/>
<text text-anchor="middle" x="62" y="-98" font-family="Helvetica,sans-Serif" font-size="10.00" fill="#000000"> data</text>
</g>
<!-- Node5 -->
<g id="node4" class="node">
<title>Node5</title>
<g id="a_node4"><a xlink:href="classuscxml_1_1_blob.html" target="_top" xlink:title="uscxml::Blob">
<polygon fill="#ffffff" stroke="#000000" points="14,-191.5 14,-210.5 87,-210.5 87,-191.5 14,-191.5"/>
<text text-anchor="middle" x="50.5" y="-198.5" font-family="Helvetica,sans-Serif" font-size="10.00" fill="#000000">uscxml::Blob</text>
</a>
</g>
</g>
<!-- Node5&#45;&gt;Node4 -->
<g id="edge3" class="edge">
<title>Node5&#45;&gt;Node4</title>
<path fill="none" stroke="#9a32cd" stroke-dasharray="5,2" d="M50.5,-181.1079C50.5,-168.714 50.5,-153.3263 50.5,-143.5817"/>
<polygon fill="#9a32cd" stroke="#9a32cd" points="47.0001,-181.4005 50.5,-191.4005 54.0001,-181.4006 47.0001,-181.4005"/>
<text text-anchor="middle" x="66" y="-165" font-family="Helvetica,sans-Serif" font-size="10.00" fill="#000000"> binary</text>
</g>
</g>
</svg>
