<?xml version="1.0" encoding="UTF-8" standalone="no"?>
<!DOCTYPE svg PUBLIC "-//W3C//DTD SVG 1.1//EN"
 "http://www.w3.org/Graphics/SVG/1.1/DTD/svg11.dtd">
<!-- Generated by graphviz version 2.40.1 (20161225.0304)
 -->
<!-- Title: uscxml::StateTransitionMonitor Pages: 1 -->
<svg width="162pt" height="152pt"
 viewBox="0.00 0.00 162.00 152.00" xmlns="http://www.w3.org/2000/svg" xmlns:xlink="http://www.w3.org/1999/xlink">
<g id="graph0" class="graph" transform="scale(1 1) rotate(0) translate(4 148)">
<title>uscxml::StateTransitionMonitor</title>
<polygon fill="#ffffff" stroke="transparent" points="-4,4 -4,-148 158,-148 158,4 -4,4"/>
<!-- Node2 -->
<g id="node1" class="node">
<title>Node2</title>
<polygon fill="#bfbfbf" stroke="#000000" points="0,-.5 0,-19.5 154,-19.5 154,-.5 0,-.5"/>
<text text-anchor="middle" x="77" y="-7.5" font-family="Helvetica,sans-Serif" font-size="10.00" fill="#000000">uscxml::StateTransitionMonitor</text>
</g>
<!-- Node3 -->
<g id="node2" class="node">
<title>Node3</title>
<g id="a_node2"><a xlink:href="classuscxml_1_1_interpreter_monitor.html" target="_top" xlink:title="uscxml::InterpreterMonitor">
<polygon fill="#ffffff" stroke="#000000" points="10.5,-57.5 10.5,-76.5 143.5,-76.5 143.5,-57.5 10.5,-57.5"/>
<text text-anchor="middle" x="77" y="-64.5" font-family="Helvetica,sans-Serif" font-size="10.00" fill="#000000">uscxml::InterpreterMonitor</text>
</a>
</g>
</g>
<!-- Node3&#45;&gt;Node2 -->
<g id="edge1" class="edge">
<title>Node3&#45;&gt;Node2</title>
<path fill="none" stroke="#191970" d="M77,-47.2342C77,-37.8491 77,-27.0651 77,-19.5265"/>
<polygon fill="#191970" stroke="#191970" points="73.5001,-47.3307 77,-57.3307 80.5001,-47.3308 73.5001,-47.3307"/>
</g>
<!-- Node4 -->
<g id="node3" class="node">
<title>Node4</title>
<g id="a_node3"><a xlink:href="classuscxml_1_1_logger.html" target="_top" xlink:title="uscxml::Logger">
<polygon fill="#ffffff" stroke="#000000" points="35,-124.5 35,-143.5 119,-143.5 119,-124.5 35,-124.5"/>
<text text-anchor="middle" x="77" y="-131.5" font-family="Helvetica,sans-Serif" font-size="10.00" fill="#000000">uscxml::Logger</text>
</a>
</g>
</g>
<!-- Node4&#45;&gt;Node3 -->
<g id="edge2" class="edge">
<title>Node4&#45;&gt;Node3</title>
<path fill="none" stroke="#9a32cd" stroke-dasharray="5,2" d="M77,-114.1079C77,-101.714 77,-86.3263 77,-76.5817"/>
<polygon fill="#9a32cd" stroke="#9a32cd" points="73.5001,-114.4005 77,-124.4005 80.5001,-114.4006 73.5001,-114.4005"/>
<text text-anchor="middle" x="95.5" y="-98" font-family="Helvetica,sans-Serif" font-size="10.00" fill="#000000"> _logger</text>
</g>
</g>
</svg>
