<?xml version="1.0" encoding="UTF-8" standalone="no"?>
<!DOCTYPE svg PUBLIC "-//W3C//DTD SVG 1.1//EN"
 "http://www.w3.org/Graphics/SVG/1.1/DTD/svg11.dtd">
<!-- Generated by graphviz version 2.40.1 (20161225.0304)
 -->
<!-- Title: uscxml::PromelaCodeAnalyzer Pages: 1 -->
<svg width="262pt" height="173pt"
 viewBox="0.00 0.00 261.50 173.00" xmlns="http://www.w3.org/2000/svg" xmlns:xlink="http://www.w3.org/1999/xlink">
<g id="graph0" class="graph" transform="scale(1 1) rotate(0) translate(4 169)">
<title>uscxml::PromelaCodeAnalyzer</title>
<polygon fill="#ffffff" stroke="transparent" points="-4,4 -4,-169 257.5,-169 257.5,4 -4,4"/>
<!-- Node1 -->
<g id="node1" class="node">
<title>Node1</title>
<polygon fill="#bfbfbf" stroke="#000000" points="35,-.5 35,-19.5 188,-19.5 188,-.5 35,-.5"/>
<text text-anchor="middle" x="111.5" y="-7.5" font-family="Helvetica,sans-Serif" font-size="10.00" fill="#000000">uscxml::PromelaCodeAnalyzer</text>
</g>
<!-- Node2 -->
<g id="node2" class="node">
<title>Node2</title>
<g id="a_node2"><a xlink:href="classuscxml_1_1_promela_code_analyzer_1_1_promela_typedef.html" target="_top" xlink:title="uscxml::PromelaCodeAnalyzer\l::PromelaTypedef">
<polygon fill="#ffffff" stroke="#000000" points="0,-67.5 0,-97.5 153,-97.5 153,-67.5 0,-67.5"/>
<text text-anchor="start" x="8" y="-85.5" font-family="Helvetica,sans-Serif" font-size="10.00" fill="#000000">uscxml::PromelaCodeAnalyzer</text>
<text text-anchor="middle" x="76.5" y="-74.5" font-family="Helvetica,sans-Serif" font-size="10.00" fill="#000000">::PromelaTypedef</text>
</a>
</g>
</g>
<!-- Node2&#45;&gt;Node1 -->
<g id="edge1" class="edge">
<title>Node2&#45;&gt;Node1</title>
<path fill="none" stroke="#9a32cd" stroke-dasharray="5,2" d="M88.1062,-58.4585C94.4464,-45.3252 101.9552,-29.7713 106.7228,-19.8957"/>
<polygon fill="#9a32cd" stroke="#9a32cd" points="84.9476,-56.9508 83.752,-67.478 91.2515,-59.9941 84.9476,-56.9508"/>
<text text-anchor="middle" x="121.5" y="-41" font-family="Helvetica,sans-Serif" font-size="10.00" fill="#000000"> _typeDefs</text>
</g>
<!-- Node3 -->
<g id="node3" class="node">
<title>Node3</title>
<g id="a_node3"><a xlink:href="structuscxml_1_1_trie.html" target="_top" xlink:title="uscxml::Trie">
<polygon fill="#ffffff" stroke="#000000" points="171.5,-73 171.5,-92 241.5,-92 241.5,-73 171.5,-73"/>
<text text-anchor="middle" x="206.5" y="-80" font-family="Helvetica,sans-Serif" font-size="10.00" fill="#000000">uscxml::Trie</text>
</a>
</g>
</g>
<!-- Node3&#45;&gt;Node1 -->
<g id="edge2" class="edge">
<title>Node3&#45;&gt;Node1</title>
<path fill="none" stroke="#9a32cd" stroke-dasharray="5,2" d="M186.3179,-66.5232C175.4628,-57.9859 161.8123,-47.3394 149.5,-38 141.2735,-31.7599 131.9396,-24.8794 124.5811,-19.5006"/>
<polygon fill="#9a32cd" stroke="#9a32cd" points="184.3255,-69.4093 194.3452,-72.8525 188.6596,-63.9124 184.3255,-69.4093"/>
<text text-anchor="middle" x="189" y="-41" font-family="Helvetica,sans-Serif" font-size="10.00" fill="#000000"> _eventTrie</text>
</g>
<!-- Node4 -->
<g id="node4" class="node">
<title>Node4</title>
<g id="a_node4"><a xlink:href="structuscxml_1_1_trie_node.html" target="_top" xlink:title="uscxml::TrieNode">
<polygon fill="#ffffff" stroke="#000000" points="159.5,-145.5 159.5,-164.5 253.5,-164.5 253.5,-145.5 159.5,-145.5"/>
<text text-anchor="middle" x="206.5" y="-152.5" font-family="Helvetica,sans-Serif" font-size="10.00" fill="#000000">uscxml::TrieNode</text>
</a>
</g>
</g>
<!-- Node4&#45;&gt;Node3 -->
<g id="edge3" class="edge">
<title>Node4&#45;&gt;Node3</title>
<path fill="none" stroke="#9a32cd" stroke-dasharray="5,2" d="M206.5,-135.1054C206.5,-121.1237 206.5,-103.0346 206.5,-92.1228"/>
<polygon fill="#9a32cd" stroke="#9a32cd" points="203.0001,-135.2223 206.5,-145.2223 210.0001,-135.2224 203.0001,-135.2223"/>
<text text-anchor="middle" x="217" y="-119" font-family="Helvetica,sans-Serif" font-size="10.00" fill="#000000"> root</text>
</g>
</g>
</svg>
