<?xml version="1.0" encoding="UTF-8" standalone="no"?>
<!DOCTYPE svg PUBLIC "-//W3C//DTD SVG 1.1//EN"
 "http://www.w3.org/Graphics/SVG/1.1/DTD/svg11.dtd">
<!-- Generated by graphviz version 2.38.0 (20140413.2041)
 -->
<!-- Title: uscxml::DirMonInvoker Pages: 1 -->
<svg width="300pt" height="140pt"
 viewBox="0.00 0.00 300.00 140.00" xmlns="http://www.w3.org/2000/svg" xmlns:xlink="http://www.w3.org/1999/xlink">
<g id="graph0" class="graph" transform="scale(1 1) rotate(0) translate(4 136)">
<title>uscxml::DirMonInvoker</title>
<polygon fill="white" stroke="none" points="-4,4 -4,-136 296,-136 296,4 -4,4"/>
<!-- Node1 -->
<g id="node1" class="node"><title>Node1</title>
<polygon fill="#bfbfbf" stroke="black" points="81.5,-0.5 81.5,-19.5 199.5,-19.5 199.5,-0.5 81.5,-0.5"/>
<text text-anchor="middle" x="140.5" y="-7.5" font-family="Helvetica,sans-Serif" font-size="10.00">uscxml::DirMonInvoker</text>
</g>
<!-- Node2 -->
<g id="node2" class="node"><title>Node2</title>
<g id="a_node2"><a xlink:href="classuscxml_1_1_invoker_impl.html" target="_top" xlink:title="Abstract base class for all invokers. ">
<polygon fill="white" stroke="black" points="14,-56.5 14,-75.5 119,-75.5 119,-56.5 14,-56.5"/>
<text text-anchor="middle" x="66.5" y="-63.5" font-family="Helvetica,sans-Serif" font-size="10.00">uscxml::InvokerImpl</text>
</a>
</g>
</g>
<!-- Node2&#45;&gt;Node1 -->
<g id="edge1" class="edge"><title>Node2&#45;&gt;Node1</title>
<path fill="none" stroke="midnightblue" d="M86.5343,-50.3804C99.9091,-40.6204 117.059,-28.1057 128.394,-19.8339"/>
<polygon fill="midnightblue" stroke="midnightblue" points="84.4042,-47.602 78.3894,-56.324 88.5305,-53.2565 84.4042,-47.602"/>
</g>
<!-- Node3 -->
<g id="node3" class="node"><title>Node3</title>
<g id="a_node3"><a xlink:href="classuscxml_1_1_event_handler_impl.html" target="_top" xlink:title="Common base class for invokers and i/o processors. ">
<polygon fill="white" stroke="black" points="0,-112.5 0,-131.5 133,-131.5 133,-112.5 0,-112.5"/>
<text text-anchor="middle" x="66.5" y="-119.5" font-family="Helvetica,sans-Serif" font-size="10.00">uscxml::EventHandlerImpl</text>
</a>
</g>
</g>
<!-- Node3&#45;&gt;Node2 -->
<g id="edge2" class="edge"><title>Node3&#45;&gt;Node2</title>
<path fill="none" stroke="midnightblue" d="M66.5,-101.805C66.5,-92.9102 66.5,-82.7798 66.5,-75.7511"/>
<polygon fill="midnightblue" stroke="midnightblue" points="63.0001,-102.083 66.5,-112.083 70.0001,-102.083 63.0001,-102.083"/>
</g>
<!-- Node4 -->
<g id="node4" class="node"><title>Node4</title>
<g id="a_node4"><a xlink:href="classuscxml_1_1_directory_watch_monitor.html" target="_top" xlink:title="uscxml::DirectoryWatchMonitor">
<polygon fill="white" stroke="black" points="137,-56.5 137,-75.5 292,-75.5 292,-56.5 137,-56.5"/>
<text text-anchor="middle" x="214.5" y="-63.5" font-family="Helvetica,sans-Serif" font-size="10.00">uscxml::DirectoryWatchMonitor</text>
</a>
</g>
</g>
<!-- Node4&#45;&gt;Node1 -->
<g id="edge3" class="edge"><title>Node4&#45;&gt;Node1</title>
<path fill="none" stroke="midnightblue" d="M194.466,-50.3804C181.091,-40.6204 163.941,-28.1057 152.606,-19.8339"/>
<polygon fill="midnightblue" stroke="midnightblue" points="192.47,-53.2565 202.611,-56.324 196.596,-47.602 192.47,-53.2565"/>
</g>
</g>
</svg>
