<?xml version="1.0" encoding="UTF-8" standalone="no"?>
<!DOCTYPE svg PUBLIC "-//W3C//DTD SVG 1.1//EN"
 "http://www.w3.org/Graphics/SVG/1.1/DTD/svg11.dtd">
<!-- Generated by graphviz version 2.38.0 (20140413.2041)
 -->
<!-- Title: uscxml::DebugSession Pages: 1 -->
<svg width="531pt" height="192pt"
 viewBox="0.00 0.00 531.00 192.00" xmlns="http://www.w3.org/2000/svg" xmlns:xlink="http://www.w3.org/1999/xlink">
<g id="graph0" class="graph" transform="scale(1 1) rotate(0) translate(4 188)">
<title>uscxml::DebugSession</title>
<polygon fill="white" stroke="none" points="-4,4 -4,-188 527,-188 527,4 -4,4"/>
<!-- Node1 -->
<g id="node1" class="node"><title>Node1</title>
<polygon fill="#bfbfbf" stroke="black" points="405,-76.5 405,-95.5 523,-95.5 523,-76.5 405,-76.5"/>
<text text-anchor="middle" x="464" y="-83.5" font-family="Helvetica,sans-Serif" font-size="10.00">uscxml::DebugSession</text>
</g>
<!-- Node2 -->
<g id="node2" class="node"><title>Node2</title>
<g id="a_node2"><a xlink:href="classuscxml_1_1_logger_impl.html" target="_top" xlink:title="uscxml::LoggerImpl">
<polygon fill="white" stroke="black" points="191,-164.5 191,-183.5 294,-183.5 294,-164.5 191,-164.5"/>
<text text-anchor="middle" x="242.5" y="-171.5" font-family="Helvetica,sans-Serif" font-size="10.00">uscxml::LoggerImpl</text>
</a>
</g>
</g>
<!-- Node2&#45;&gt;Node1 -->
<g id="edge1" class="edge"><title>Node2&#45;&gt;Node1</title>
<path fill="none" stroke="midnightblue" d="M294.458,-161.645C301.421,-159.613 308.429,-157.384 315,-155 363.504,-137.405 417.845,-109.953 445.208,-95.5526"/>
<polygon fill="midnightblue" stroke="midnightblue" points="293.031,-158.41 284.345,-164.476 294.918,-165.15 293.031,-158.41"/>
</g>
<!-- Node3 -->
<g id="node3" class="node"><title>Node3</title>
<polygon fill="white" stroke="#bfbfbf" points="170,-115 170,-145 315,-145 315,-115 170,-115"/>
<text text-anchor="start" x="178" y="-133" font-family="Helvetica,sans-Serif" font-size="10.00">std::enable_shared</text>
<text text-anchor="middle" x="242.5" y="-122" font-family="Helvetica,sans-Serif" font-size="10.00">_from_this&lt; DebugSession &gt;</text>
</g>
<!-- Node3&#45;&gt;Node1 -->
<g id="edge2" class="edge"><title>Node3&#45;&gt;Node1</title>
<path fill="none" stroke="midnightblue" d="M325.241,-113.615C355.627,-107.524 389.082,-100.817 415.413,-95.539"/>
<polygon fill="midnightblue" stroke="midnightblue" points="324.186,-110.256 315.069,-115.654 325.562,-117.12 324.186,-110.256"/>
</g>
<!-- Node4 -->
<g id="node4" class="node"><title>Node4</title>
<g id="a_node4"><a xlink:href="classuscxml_1_1_debugger.html" target="_top" xlink:title="uscxml::Debugger">
<polygon fill="white" stroke="black" points="194,-76.5 194,-95.5 291,-95.5 291,-76.5 194,-76.5"/>
<text text-anchor="middle" x="242.5" y="-83.5" font-family="Helvetica,sans-Serif" font-size="10.00">uscxml::Debugger</text>
</a>
</g>
</g>
<!-- Node4&#45;&gt;Node1 -->
<g id="edge3" class="edge"><title>Node4&#45;&gt;Node1</title>
<path fill="none" stroke="#9a32cd" stroke-dasharray="5,2" d="M301.226,-86C333.215,-86 372.877,-86 404.923,-86"/>
<polygon fill="#9a32cd" stroke="#9a32cd" points="301.128,-82.5001 291.128,-86 301.128,-89.5001 301.128,-82.5001"/>
<text text-anchor="middle" x="360" y="-89" font-family="Helvetica,sans-Serif" font-size="10.00"> _debugger</text>
</g>
<!-- Node5 -->
<g id="node5" class="node"><title>Node5</title>
<g id="a_node5"><a xlink:href="classuscxml_1_1_interpreter_monitor.html" target="_top" xlink:title="uscxml::InterpreterMonitor">
<polygon fill="white" stroke="black" points="0,-76.5 0,-95.5 133,-95.5 133,-76.5 0,-76.5"/>
<text text-anchor="middle" x="66.5" y="-83.5" font-family="Helvetica,sans-Serif" font-size="10.00">uscxml::InterpreterMonitor</text>
</a>
</g>
</g>
<!-- Node5&#45;&gt;Node4 -->
<g id="edge4" class="edge"><title>Node5&#45;&gt;Node4</title>
<path fill="none" stroke="midnightblue" d="M143.291,-86C160.442,-86 178.184,-86 193.79,-86"/>
<polygon fill="midnightblue" stroke="midnightblue" points="143.282,-82.5001 133.282,-86 143.282,-89.5001 143.282,-82.5001"/>
</g>
<!-- Node6 -->
<g id="node6" class="node"><title>Node6</title>
<g id="a_node6"><a xlink:href="classuscxml_1_1_breakpoint.html" target="_top" xlink:title="uscxml::Breakpoint">
<polygon fill="white" stroke="black" points="192,-38.5 192,-57.5 293,-57.5 293,-38.5 192,-38.5"/>
<text text-anchor="middle" x="242.5" y="-45.5" font-family="Helvetica,sans-Serif" font-size="10.00">uscxml::Breakpoint</text>
</a>
</g>
</g>
<!-- Node6&#45;&gt;Node1 -->
<g id="edge5" class="edge"><title>Node6&#45;&gt;Node1</title>
<path fill="none" stroke="#9a32cd" stroke-dasharray="5,2" d="M303.07,-57.0569C328.905,-61.1115 359.482,-66.0807 387,-71 396.4,-72.6803 406.431,-74.5824 416.022,-76.454"/>
<polygon fill="#9a32cd" stroke="#9a32cd" points="303.472,-53.5772 293.051,-55.4928 302.392,-60.4934 303.472,-53.5772"/>
<text text-anchor="middle" x="360" y="-74" font-family="Helvetica,sans-Serif" font-size="10.00"> _skipTo</text>
</g>
<!-- Node7 -->
<g id="node7" class="node"><title>Node7</title>
<g id="a_node7"><a xlink:href="classuscxml_1_1_interpreter.html" target="_top" xlink:title="Central class to interpret and process SCXML documents. ">
<polygon fill="white" stroke="black" points="193,-0.5 193,-19.5 292,-19.5 292,-0.5 193,-0.5"/>
<text text-anchor="middle" x="242.5" y="-7.5" font-family="Helvetica,sans-Serif" font-size="10.00">uscxml::Interpreter</text>
</a>
</g>
</g>
<!-- Node7&#45;&gt;Node1 -->
<g id="edge6" class="edge"><title>Node7&#45;&gt;Node1</title>
<path fill="none" stroke="#9a32cd" stroke-dasharray="5,2" d="M299.191,-21.9359C326.124,-28.415 358.675,-37.2977 387,-48 408.113,-55.9775 431.136,-67.9927 446.245,-76.3698"/>
<polygon fill="#9a32cd" stroke="#9a32cd" points="299.701,-18.4602 289.165,-19.5716 298.095,-25.2733 299.701,-18.4602"/>
<text text-anchor="middle" x="360" y="-51" font-family="Helvetica,sans-Serif" font-size="10.00"> _interpreter</text>
</g>
</g>
</svg>
