<?xml version="1.0" encoding="UTF-8" standalone="no"?>
<!DOCTYPE svg PUBLIC "-//W3C//DTD SVG 1.1//EN"
 "http://www.w3.org/Graphics/SVG/1.1/DTD/svg11.dtd">
<!-- Generated by graphviz version 2.40.1 (20161225.0304)
 -->
<!-- Title: uscxml::ChartToC Pages: 1 -->
<svg width="398pt" height="140pt"
 viewBox="0.00 0.00 398.00 140.00" xmlns="http://www.w3.org/2000/svg" xmlns:xlink="http://www.w3.org/1999/xlink">
<g id="graph0" class="graph" transform="scale(1 1) rotate(0) translate(4 136)">
<title>uscxml::ChartToC</title>
<polygon fill="#ffffff" stroke="transparent" points="-4,4 -4,-136 394,-136 394,4 -4,4"/>
<!-- Node1 -->
<g id="node1" class="node">
<title>Node1</title>
<polygon fill="#bfbfbf" stroke="#000000" points="143.5,-56.5 143.5,-75.5 240.5,-75.5 240.5,-56.5 143.5,-56.5"/>
<text text-anchor="middle" x="192" y="-63.5" font-family="Helvetica,sans-Serif" font-size="10.00" fill="#000000">uscxml::ChartToC</text>
</g>
<!-- Node3 -->
<g id="node3" class="node">
<title>Node3</title>
<g id="a_node3"><a xlink:href="$classuscxml_1_1_chart_to_java.html" xlink:title="uscxml::ChartToJava">
<polygon fill="#ffffff" stroke="#000000" points="0,-.5 0,-19.5 110,-19.5 110,-.5 0,-.5"/>
<text text-anchor="middle" x="55" y="-7.5" font-family="Helvetica,sans-Serif" font-size="10.00" fill="#000000">uscxml::ChartToJava</text>
</a>
</g>
</g>
<!-- Node1&#45;&gt;Node3 -->
<g id="edge2" class="edge">
<title>Node1&#45;&gt;Node3</title>
<path fill="none" stroke="#191970" d="M159.0194,-52.5189C134.0689,-42.3201 100.4266,-28.5685 78.2438,-19.5011"/>
<polygon fill="#191970" stroke="#191970" points="157.868,-55.8293 168.4489,-56.3733 160.5166,-49.3497 157.868,-55.8293"/>
</g>
<!-- Node4 -->
<g id="node4" class="node">
<title>Node4</title>
<g id="a_node4"><a xlink:href="$classuscxml_1_1_chart_to_promela.html" xlink:title="uscxml::ChartToPromela">
<polygon fill="#ffffff" stroke="#000000" points="128.5,-.5 128.5,-19.5 255.5,-19.5 255.5,-.5 128.5,-.5"/>
<text text-anchor="middle" x="192" y="-7.5" font-family="Helvetica,sans-Serif" font-size="10.00" fill="#000000">uscxml::ChartToPromela</text>
</a>
</g>
</g>
<!-- Node1&#45;&gt;Node4 -->
<g id="edge3" class="edge">
<title>Node1&#45;&gt;Node4</title>
<path fill="none" stroke="#191970" d="M192,-46.1575C192,-37.155 192,-26.9199 192,-19.6427"/>
<polygon fill="#191970" stroke="#191970" points="188.5001,-46.2455 192,-56.2455 195.5001,-46.2456 188.5001,-46.2455"/>
</g>
<!-- Node5 -->
<g id="node5" class="node">
<title>Node5</title>
<g id="a_node5"><a xlink:href="$classuscxml_1_1_chart_to_v_h_d_l.html" xlink:title="uscxml::ChartToVHDL">
<polygon fill="#ffffff" stroke="#000000" points="274,-.5 274,-19.5 390,-19.5 390,-.5 274,-.5"/>
<text text-anchor="middle" x="332" y="-7.5" font-family="Helvetica,sans-Serif" font-size="10.00" fill="#000000">uscxml::ChartToVHDL</text>
</a>
</g>
</g>
<!-- Node1&#45;&gt;Node5 -->
<g id="edge4" class="edge">
<title>Node1&#45;&gt;Node5</title>
<path fill="none" stroke="#191970" d="M225.3649,-52.6541C250.8952,-42.4419 285.4784,-28.6086 308.2472,-19.5011"/>
<polygon fill="#191970" stroke="#191970" points="224.0517,-49.4096 216.0669,-56.3733 226.6515,-55.909 224.0517,-49.4096"/>
</g>
<!-- Node2 -->
<g id="node2" class="node">
<title>Node2</title>
<g id="a_node2"><a xlink:href="$classuscxml_1_1_transformer_impl.html" xlink:title="uscxml::TransformerImpl">
<polygon fill="#ffffff" stroke="#000000" points="128.5,-112.5 128.5,-131.5 255.5,-131.5 255.5,-112.5 128.5,-112.5"/>
<text text-anchor="middle" x="192" y="-119.5" font-family="Helvetica,sans-Serif" font-size="10.00" fill="#000000">uscxml::TransformerImpl</text>
</a>
</g>
</g>
<!-- Node2&#45;&gt;Node1 -->
<g id="edge1" class="edge">
<title>Node2&#45;&gt;Node1</title>
<path fill="none" stroke="#191970" d="M192,-102.1575C192,-93.155 192,-82.9199 192,-75.6427"/>
<polygon fill="#191970" stroke="#191970" points="188.5001,-102.2455 192,-112.2455 195.5001,-102.2456 188.5001,-102.2455"/>
</g>
</g>
</svg>
