<?xml version="1.0" encoding="UTF-8" standalone="no"?>
<!DOCTYPE svg PUBLIC "-//W3C//DTD SVG 1.1//EN"
 "http://www.w3.org/Graphics/SVG/1.1/DTD/svg11.dtd">
<!-- Generated by graphviz version 2.40.1 (20161225.0304)
 -->
<!-- Title: uscxml::BasicHTTPIOProcessor Pages: 1 -->
<svg width="392pt" height="140pt"
 viewBox="0.00 0.00 392.00 140.00" xmlns="http://www.w3.org/2000/svg" xmlns:xlink="http://www.w3.org/1999/xlink">
<g id="graph0" class="graph" transform="scale(1 1) rotate(0) translate(4 136)">
<title>uscxml::BasicHTTPIOProcessor</title>
<polygon fill="#ffffff" stroke="transparent" points="-4,4 -4,-136 388,-136 388,4 -4,4"/>
<!-- Node1 -->
<g id="node1" class="node">
<title>Node1</title>
<polygon fill="#bfbfbf" stroke="#000000" points="124,-.5 124,-19.5 283,-19.5 283,-.5 124,-.5"/>
<text text-anchor="middle" x="203.5" y="-7.5" font-family="Helvetica,sans-Serif" font-size="10.00" fill="#000000">uscxml::BasicHTTPIOProcessor</text>
</g>
<!-- Node2 -->
<g id="node2" class="node">
<title>Node2</title>
<g id="a_node2"><a xlink:href="$classuscxml_1_1_i_o_processor_impl.html" xlink:title="Abstract base class for IOProcessors implementations. ">
<polygon fill="#ffffff" stroke="#000000" points="2.5,-56.5 2.5,-75.5 130.5,-75.5 130.5,-56.5 2.5,-56.5"/>
<text text-anchor="middle" x="66.5" y="-63.5" font-family="Helvetica,sans-Serif" font-size="10.00" fill="#000000">uscxml::IOProcessorImpl</text>
</a>
</g>
</g>
<!-- Node2&#45;&gt;Node1 -->
<g id="edge1" class="edge">
<title>Node2&#45;&gt;Node1</title>
<path fill="none" stroke="#191970" d="M99.4806,-52.5189C124.4311,-42.3201 158.0734,-28.5685 180.2562,-19.5011"/>
<polygon fill="#191970" stroke="#191970" points="97.9834,-49.3497 90.0511,-56.3733 100.632,-55.8293 97.9834,-49.3497"/>
</g>
<!-- Node3 -->
<g id="node3" class="node">
<title>Node3</title>
<g id="a_node3"><a xlink:href="$classuscxml_1_1_event_handler_impl.html" xlink:title="Common base class for invokers and i/o processors. ">
<polygon fill="#ffffff" stroke="#000000" points="0,-112.5 0,-131.5 133,-131.5 133,-112.5 0,-112.5"/>
<text text-anchor="middle" x="66.5" y="-119.5" font-family="Helvetica,sans-Serif" font-size="10.00" fill="#000000">uscxml::EventHandlerImpl</text>
</a>
</g>
</g>
<!-- Node3&#45;&gt;Node2 -->
<g id="edge2" class="edge">
<title>Node3&#45;&gt;Node2</title>
<path fill="none" stroke="#191970" d="M66.5,-102.1575C66.5,-93.155 66.5,-82.9199 66.5,-75.6427"/>
<polygon fill="#191970" stroke="#191970" points="63.0001,-102.2455 66.5,-112.2455 70.0001,-102.2456 63.0001,-102.2455"/>
</g>
<!-- Node4 -->
<g id="node4" class="node">
<title>Node4</title>
<g id="a_node4"><a xlink:href="$classuscxml_1_1_h_t_t_p_servlet.html" xlink:title="uscxml::HTTPServlet">
<polygon fill="#ffffff" stroke="#000000" points="148.5,-56.5 148.5,-75.5 258.5,-75.5 258.5,-56.5 148.5,-56.5"/>
<text text-anchor="middle" x="203.5" y="-63.5" font-family="Helvetica,sans-Serif" font-size="10.00" fill="#000000">uscxml::HTTPServlet</text>
</a>
</g>
</g>
<!-- Node4&#45;&gt;Node1 -->
<g id="edge3" class="edge">
<title>Node4&#45;&gt;Node1</title>
<path fill="none" stroke="#191970" d="M203.5,-46.1575C203.5,-37.155 203.5,-26.9199 203.5,-19.6427"/>
<polygon fill="#191970" stroke="#191970" points="200.0001,-46.2455 203.5,-56.2455 207.0001,-46.2456 200.0001,-46.2455"/>
</g>
<!-- Node5 -->
<g id="node5" class="node">
<title>Node5</title>
<g id="a_node5"><a xlink:href="$classuscxml_1_1_u_r_l_monitor.html" xlink:title="uscxml::URLMonitor">
<polygon fill="#ffffff" stroke="#000000" points="277,-56.5 277,-75.5 384,-75.5 384,-56.5 277,-56.5"/>
<text text-anchor="middle" x="330.5" y="-63.5" font-family="Helvetica,sans-Serif" font-size="10.00" fill="#000000">uscxml::URLMonitor</text>
</a>
</g>
</g>
<!-- Node5&#45;&gt;Node1 -->
<g id="edge4" class="edge">
<title>Node5&#45;&gt;Node1</title>
<path fill="none" stroke="#191970" d="M299.3108,-52.2473C276.2463,-42.0771 245.4288,-28.4883 225.0472,-19.5011"/>
<polygon fill="#191970" stroke="#191970" points="298.1058,-55.5411 308.6679,-56.3733 300.9301,-49.1361 298.1058,-55.5411"/>
</g>
</g>
</svg>
