<?xml version="1.0" encoding="UTF-8" standalone="no"?>
<!DOCTYPE svg PUBLIC "-//W3C//DTD SVG 1.1//EN"
 "http://www.w3.org/Graphics/SVG/1.1/DTD/svg11.dtd">
<!-- Generated by graphviz version 2.40.1 (20161225.0304)
 -->
<!-- Title: uscxml::ChartToVHDL Pages: 1 -->
<svg width="388pt" height="231pt"
 viewBox="0.00 0.00 387.50 231.00" xmlns="http://www.w3.org/2000/svg" xmlns:xlink="http://www.w3.org/1999/xlink">
<g id="graph0" class="graph" transform="scale(1 1) rotate(0) translate(4 227)">
<title>uscxml::ChartToVHDL</title>
<polygon fill="#ffffff" stroke="transparent" points="-4,4 -4,-227 383.5,-227 383.5,4 -4,4"/>
<!-- Node1 -->
<g id="node1" class="node">
<title>Node1</title>
<polygon fill="#bfbfbf" stroke="#000000" points="172.5,-.5 172.5,-19.5 288.5,-19.5 288.5,-.5 172.5,-.5"/>
<text text-anchor="middle" x="230.5" y="-7.5" font-family="Helvetica,sans-Serif" font-size="10.00" fill="#000000">uscxml::ChartToVHDL</text>
</g>
<!-- Node2 -->
<g id="node2" class="node">
<title>Node2</title>
<g id="a_node2"><a xlink:href="$classuscxml_1_1_chart_to_c.html" xlink:title="uscxml::ChartToC">
<polygon fill="#ffffff" stroke="#000000" points="82,-68.5 82,-87.5 179,-87.5 179,-68.5 82,-68.5"/>
<text text-anchor="middle" x="130.5" y="-75.5" font-family="Helvetica,sans-Serif" font-size="10.00" fill="#000000">uscxml::ChartToC</text>
</a>
</g>
</g>
<!-- Node2&#45;&gt;Node1 -->
<g id="edge1" class="edge">
<title>Node2&#45;&gt;Node1</title>
<path fill="none" stroke="#191970" d="M153.1447,-62.6016C172.621,-49.3577 200.0974,-30.6738 216.5214,-19.5054"/>
<polygon fill="#191970" stroke="#191970" points="151.1287,-59.7399 144.8276,-68.2573 155.0649,-65.5284 151.1287,-59.7399"/>
</g>
<!-- Node2&#45;&gt;Node2 -->
<g id="edge5" class="edge">
<title>Node2&#45;&gt;Node2</title>
<path fill="none" stroke="#9a32cd" stroke-dasharray="5,2" d="M189.3803,-82.8612C194.0867,-81.7993 197,-80.179 197,-78 197,-74.5137 189.5419,-72.4573 179.2141,-71.8308"/>
<polygon fill="#9a32cd" stroke="#9a32cd" points="188.6857,-79.4216 179.2141,-84.1692 189.5791,-86.3643 188.6857,-79.4216"/>
<text text-anchor="middle" x="238" y="-81" font-family="Helvetica,sans-Serif" font-size="10.00" fill="#000000"> _topMostMachine</text>
<text text-anchor="middle" x="238" y="-70" font-family="Helvetica,sans-Serif" font-size="10.00" fill="#000000">_parentMachine</text>
</g>
<!-- Node3 -->
<g id="node3" class="node">
<title>Node3</title>
<g id="a_node3"><a xlink:href="$classuscxml_1_1_transformer_impl.html" xlink:title="uscxml::TransformerImpl">
<polygon fill="#ffffff" stroke="#000000" points="11,-136.5 11,-155.5 138,-155.5 138,-136.5 11,-136.5"/>
<text text-anchor="middle" x="74.5" y="-143.5" font-family="Helvetica,sans-Serif" font-size="10.00" fill="#000000">uscxml::TransformerImpl</text>
</a>
</g>
</g>
<!-- Node3&#45;&gt;Node2 -->
<g id="edge2" class="edge">
<title>Node3&#45;&gt;Node2</title>
<path fill="none" stroke="#191970" d="M88.9474,-128.4567C99.6239,-115.4924 113.7649,-98.3212 122.4914,-87.7247"/>
<polygon fill="#191970" stroke="#191970" points="86.1788,-126.3129 82.5234,-136.2573 91.5823,-130.7629 86.1788,-126.3129"/>
</g>
<!-- Node4 -->
<g id="node4" class="node">
<title>Node4</title>
<g id="a_node4"><a xlink:href="$classuscxml_1_1_u_r_l.html" xlink:title="uscxml::URL">
<polygon fill="#ffffff" stroke="#000000" points="0,-203.5 0,-222.5 73,-222.5 73,-203.5 0,-203.5"/>
<text text-anchor="middle" x="36.5" y="-210.5" font-family="Helvetica,sans-Serif" font-size="10.00" fill="#000000">uscxml::URL</text>
</a>
</g>
</g>
<!-- Node4&#45;&gt;Node3 -->
<g id="edge3" class="edge">
<title>Node4&#45;&gt;Node3</title>
<path fill="none" stroke="#9a32cd" stroke-dasharray="5,2" d="M33.7065,-193.3932C33.6224,-186.9136 34.4878,-179.8672 37.5,-174 41.4,-166.4037 48.4138,-160.2975 55.2943,-155.7499"/>
<polygon fill="#9a32cd" stroke="#9a32cd" points="30.2259,-193.7748 34.533,-203.4547 37.2024,-193.2017 30.2259,-193.7748"/>
<text text-anchor="middle" x="63" y="-177" font-family="Helvetica,sans-Serif" font-size="10.00" fill="#000000"> _baseURL</text>
</g>
<!-- Node5 -->
<g id="node5" class="node">
<title>Node5</title>
<g id="a_node5"><a xlink:href="$classuscxml_1_1_interpreter.html" xlink:title="Central class to interpret and process SCXML documents. ">
<polygon fill="#ffffff" stroke="#000000" points="108,-203.5 108,-222.5 207,-222.5 207,-203.5 108,-203.5"/>
<text text-anchor="middle" x="157.5" y="-210.5" font-family="Helvetica,sans-Serif" font-size="10.00" fill="#000000">uscxml::Interpreter</text>
</a>
</g>
</g>
<!-- Node5&#45;&gt;Node2 -->
<g id="edge6" class="edge">
<title>Node5&#45;&gt;Node2</title>
<path fill="none" stroke="#9a32cd" stroke-dasharray="5,2" d="M160.7677,-193.1944C161.3188,-187.0236 161.4477,-180.2096 160.5,-174 155.5211,-141.3755 141.5421,-104.5974 134.566,-87.5811"/>
<polygon fill="#9a32cd" stroke="#9a32cd" points="157.2674,-192.9727 159.4609,-203.338 164.21,-193.8672 157.2674,-192.9727"/>
<text text-anchor="middle" x="182" y="-143.5" font-family="Helvetica,sans-Serif" font-size="10.00" fill="#000000"> interpreter</text>
</g>
<!-- Node5&#45;&gt;Node3 -->
<g id="edge4" class="edge">
<title>Node5&#45;&gt;Node3</title>
<path fill="none" stroke="#9a32cd" stroke-dasharray="5,2" d="M130.2473,-198.0497C123.8739,-194.1142 117.267,-189.6564 111.5,-185 100.4624,-176.088 89.488,-164.01 82.3929,-155.6674"/>
<polygon fill="#9a32cd" stroke="#9a32cd" points="128.9047,-201.3222 139.2929,-203.4044 132.4706,-195.2985 128.9047,-201.3222"/>
<text text-anchor="middle" x="136" y="-177" font-family="Helvetica,sans-Serif" font-size="10.00" fill="#000000"> interpreter</text>
</g>
<!-- Node6 -->
<g id="node6" class="node">
<title>Node6</title>
<g id="a_node6"><a xlink:href="$structuscxml_1_1_trie.html" xlink:title="uscxml::Trie">
<polygon fill="#ffffff" stroke="#000000" points="297.5,-68.5 297.5,-87.5 367.5,-87.5 367.5,-68.5 297.5,-68.5"/>
<text text-anchor="middle" x="332.5" y="-75.5" font-family="Helvetica,sans-Serif" font-size="10.00" fill="#000000">uscxml::Trie</text>
</a>
</g>
</g>
<!-- Node6&#45;&gt;Node1 -->
<g id="edge7" class="edge">
<title>Node6&#45;&gt;Node1</title>
<path fill="none" stroke="#9a32cd" stroke-dasharray="5,2" d="M309.4024,-62.6016C289.5366,-49.3577 261.5106,-30.6738 244.7581,-19.5054"/>
<polygon fill="#9a32cd" stroke="#9a32cd" points="307.6239,-65.6224 317.8859,-68.2573 311.5068,-59.798 307.6239,-65.6224"/>
<text text-anchor="middle" x="314" y="-41" font-family="Helvetica,sans-Serif" font-size="10.00" fill="#000000"> _eventTrie</text>
</g>
<!-- Node7 -->
<g id="node7" class="node">
<title>Node7</title>
<g id="a_node7"><a xlink:href="$structuscxml_1_1_trie_node.html" xlink:title="uscxml::TrieNode">
<polygon fill="#ffffff" stroke="#000000" points="285.5,-136.5 285.5,-155.5 379.5,-155.5 379.5,-136.5 285.5,-136.5"/>
<text text-anchor="middle" x="332.5" y="-143.5" font-family="Helvetica,sans-Serif" font-size="10.00" fill="#000000">uscxml::TrieNode</text>
</a>
</g>
</g>
<!-- Node7&#45;&gt;Node6 -->
<g id="edge8" class="edge">
<title>Node7&#45;&gt;Node6</title>
<path fill="none" stroke="#9a32cd" stroke-dasharray="5,2" d="M332.5,-126.1951C332.5,-113.5514 332.5,-97.7157 332.5,-87.7247"/>
<polygon fill="#9a32cd" stroke="#9a32cd" points="329.0001,-126.2572 332.5,-136.2573 336.0001,-126.2573 329.0001,-126.2572"/>
<text text-anchor="middle" x="343" y="-110" font-family="Helvetica,sans-Serif" font-size="10.00" fill="#000000"> root</text>
</g>
</g>
</svg>
