<?xml version="1.0" encoding="UTF-8" standalone="no"?>
<!DOCTYPE svg PUBLIC "-//W3C//DTD SVG 1.1//EN"
 "http://www.w3.org/Graphics/SVG/1.1/DTD/svg11.dtd">
<!-- Generated by graphviz version 2.38.0 (20140413.2041)
 -->
<!-- Title: interpreter Pages: 1 -->
<svg width="157pt" height="332pt"
 viewBox="0.00 0.00 156.84 332.00" xmlns="http://www.w3.org/2000/svg" xmlns:xlink="http://www.w3.org/1999/xlink">
<g id="graph0" class="graph" transform="scale(1 1) rotate(0) translate(4 328)">
<title>interpreter</title>
<polygon fill="white" stroke="none" points="-4,4 -4,-328 152.844,-328 152.844,4 -4,4"/>
<!-- dir_f2c8af9107d7604b778bd4ea9fe0debe -->
<g id="node1" class="node"><title>dir_f2c8af9107d7604b778bd4ea9fe0debe</title>
<g id="a_node1"><a xlink:href="dir_f2c8af9107d7604b778bd4ea9fe0debe.html" target="_top" xlink:title="interpreter">
<polygon fill="#eeeeff" stroke="black" points="116.844,-324 54.8441,-324 54.8441,-288 116.844,-288 116.844,-324"/>
<text text-anchor="middle" x="85.8441" y="-303.5" font-family="Helvetica,sans-Serif" font-size="10.00">interpreter</text>
</a>
</g>
</g>
<!-- dir_84d4ec99856759213102e4209c09c524 -->
<g id="node2" class="node"><title>dir_84d4ec99856759213102e4209c09c524</title>
<g id="a_node2"><a xlink:href="dir_84d4ec99856759213102e4209c09c524.html" target="_top" xlink:title="debug">
<polygon fill="none" stroke="black" points="112.844,-252 58.8441,-252 58.8441,-216 112.844,-216 112.844,-252"/>
<text text-anchor="middle" x="85.8441" y="-231.5" font-family="Helvetica,sans-Serif" font-size="10.00">debug</text>
</a>
</g>
</g>
<!-- dir_f2c8af9107d7604b778bd4ea9fe0debe&#45;&gt;dir_84d4ec99856759213102e4209c09c524 -->
<g id="edge11" class="edge"><title>dir_f2c8af9107d7604b778bd4ea9fe0debe&#45;&gt;dir_84d4ec99856759213102e4209c09c524</title>
<path fill="none" stroke="black" d="M79.9284,-287.697C79.1327,-279.983 78.9062,-270.712 79.2488,-262.112"/>
<polygon fill="black" stroke="black" points="82.7425,-262.324 79.9491,-252.104 75.7595,-261.836 82.7425,-262.324"/>
<g id="a_edge11&#45;headlabel"><a xlink:href="dir_000001_000000.html" target="_top" xlink:title="1">
<text text-anchor="middle" x="85.324" y="-263.608" font-family="Helvetica,sans-Serif" font-size="10.00">1</text>
</a>
</g>
</g>
<!-- dir_b8f7637664a38e012eb6b40bd154637c -->
<g id="node3" class="node"><title>dir_b8f7637664a38e012eb6b40bd154637c</title>
<g id="a_node3"><a xlink:href="dir_b8f7637664a38e012eb6b40bd154637c.html" target="_top" xlink:title="messages">
<polygon fill="none" stroke="black" points="148.844,-108 86.8441,-108 86.8441,-72 148.844,-72 148.844,-108"/>
<text text-anchor="middle" x="117.844" y="-87.5" font-family="Helvetica,sans-Serif" font-size="10.00">messages</text>
</a>
</g>
</g>
<!-- dir_f2c8af9107d7604b778bd4ea9fe0debe&#45;&gt;dir_b8f7637664a38e012eb6b40bd154637c -->
<g id="edge12" class="edge"><title>dir_f2c8af9107d7604b778bd4ea9fe0debe&#45;&gt;dir_b8f7637664a38e012eb6b40bd154637c</title>
<path fill="none" stroke="black" d="M93.4768,-287.774C100.217,-278.03 108.79,-265.184 112.844,-252 126.725,-206.86 120.548,-151.199 117.323,-118.55"/>
<polygon fill="black" stroke="black" points="120.791,-118.04 116.376,-108.409 113.821,-118.691 120.791,-118.04"/>
<g id="a_edge12&#45;headlabel"><a xlink:href="dir_000001_000002.html" target="_top" xlink:title="11">
<text text-anchor="middle" x="123.952" y="-118.855" font-family="Helvetica,sans-Serif" font-size="10.00">11</text>
</a>
</g>
</g>
<!-- dir_23ec12649285f9fabf3a6b7380226c28 -->
<g id="node4" class="node"><title>dir_23ec12649285f9fabf3a6b7380226c28</title>
<g id="a_node4"><a xlink:href="dir_23ec12649285f9fabf3a6b7380226c28.html" target="_top" xlink:title="util">
<polygon fill="none" stroke="black" points="60.8441,-36 6.84412,-36 6.84412,-0 60.8441,-0 60.8441,-36"/>
<text text-anchor="middle" x="33.8441" y="-15.5" font-family="Helvetica,sans-Serif" font-size="10.00">util</text>
</a>
</g>
</g>
<!-- dir_f2c8af9107d7604b778bd4ea9fe0debe&#45;&gt;dir_23ec12649285f9fabf3a6b7380226c28 -->
<g id="edge13" class="edge"><title>dir_f2c8af9107d7604b778bd4ea9fe0debe&#45;&gt;dir_23ec12649285f9fabf3a6b7380226c28</title>
<path fill="none" stroke="black" d="M61.5927,-287.936C51.7168,-278.042 41.1854,-265 33.8441,-252 17.1143,-222.375 14.1745,-213.428 7.84412,-180 -1.08849,-132.83 -2.37781,-119.299 5.84412,-72 7.38423,-63.1401 10.2712,-53.8032 13.7559,-45.4765"/>
<polygon fill="black" stroke="black" points="17.0031,-46.7952 18.0762,-36.2548 10.6643,-43.8255 17.0031,-46.7952"/>
<g id="a_edge13&#45;headlabel"><a xlink:href="dir_000001_000022.html" target="_top" xlink:title="14">
<text text-anchor="middle" x="18.0493" y="-48.7548" font-family="Helvetica,sans-Serif" font-size="10.00">14</text>
</a>
</g>
</g>
<!-- dir_38c8d24aef3972a7f87b834274e76e31 -->
<g id="node5" class="node"><title>dir_38c8d24aef3972a7f87b834274e76e31</title>
<g id="a_node5"><a xlink:href="dir_38c8d24aef3972a7f87b834274e76e31.html" target="_top" xlink:title="plugins">
<polygon fill="white" stroke="red" points="93.8441,-180 39.8441,-180 39.8441,-144 93.8441,-144 93.8441,-180"/>
<text text-anchor="middle" x="66.8441" y="-159.5" font-family="Helvetica,sans-Serif" font-size="10.00">plugins</text>
</a>
</g>
</g>
<!-- dir_f2c8af9107d7604b778bd4ea9fe0debe&#45;&gt;dir_38c8d24aef3972a7f87b834274e76e31 -->
<g id="edge14" class="edge"><title>dir_f2c8af9107d7604b778bd4ea9fe0debe&#45;&gt;dir_38c8d24aef3972a7f87b834274e76e31</title>
<path fill="none" stroke="black" d="M70.2342,-287.774C62.4712,-278.03 53.8982,-265.184 49.8441,-252 43.5534,-231.543 48.751,-207.692 55.0025,-189.833"/>
<polygon fill="black" stroke="black" points="58.3316,-190.925 58.6215,-180.334 51.7903,-188.433 58.3316,-190.925"/>
<g id="a_edge14&#45;headlabel"><a xlink:href="dir_000001_000003.html" target="_top" xlink:title="3">
<text text-anchor="middle" x="59.705" y="-192.795" font-family="Helvetica,sans-Serif" font-size="10.00">3</text>
</a>
</g>
</g>
<!-- dir_84d4ec99856759213102e4209c09c524&#45;&gt;dir_f2c8af9107d7604b778bd4ea9fe0debe -->
<g id="edge4" class="edge"><title>dir_84d4ec99856759213102e4209c09c524&#45;&gt;dir_f2c8af9107d7604b778bd4ea9fe0debe</title>
<path fill="none" stroke="black" d="M91.7392,-252.104C92.5447,-259.791 92.781,-269.054 92.4481,-277.665"/>
<polygon fill="black" stroke="black" points="88.9527,-277.48 91.7598,-287.697 95.9362,-277.96 88.9527,-277.48"/>
<g id="a_edge4&#45;headlabel"><a xlink:href="dir_000000_000001.html" target="_top" xlink:title="5">
<text text-anchor="middle" x="86.366" y="-271.2" font-family="Helvetica,sans-Serif" font-size="10.00">5</text>
</a>
</g>
</g>
<!-- dir_84d4ec99856759213102e4209c09c524&#45;&gt;dir_b8f7637664a38e012eb6b40bd154637c -->
<g id="edge1" class="edge"><title>dir_84d4ec99856759213102e4209c09c524&#45;&gt;dir_b8f7637664a38e012eb6b40bd154637c</title>
<path fill="none" stroke="black" d="M91.9865,-215.992C95.5368,-205.683 99.8742,-192.206 102.844,-180 107.814,-159.575 111.694,-136.115 114.262,-118.411"/>
<polygon fill="black" stroke="black" points="117.77,-118.599 115.69,-108.21 110.838,-117.629 117.77,-118.599"/>
<g id="a_edge1&#45;headlabel"><a xlink:href="dir_000000_000002.html" target="_top" xlink:title="3">
<text text-anchor="middle" x="120.084" y="-120.052" font-family="Helvetica,sans-Serif" font-size="10.00">3</text>
</a>
</g>
</g>
<!-- dir_84d4ec99856759213102e4209c09c524&#45;&gt;dir_23ec12649285f9fabf3a6b7380226c28 -->
<g id="edge2" class="edge"><title>dir_84d4ec99856759213102e4209c09c524&#45;&gt;dir_23ec12649285f9fabf3a6b7380226c28</title>
<path fill="none" stroke="black" d="M60.4646,-215.955C49.1294,-206.786 36.9657,-194.4 30.8441,-180 12.1917,-136.123 19.7226,-79.2541 26.8289,-46.1763"/>
<polygon fill="black" stroke="black" points="30.2655,-46.8484 29.0875,-36.3193 23.4424,-45.2849 30.2655,-46.8484"/>
<g id="a_edge2&#45;headlabel"><a xlink:href="dir_000000_000022.html" target="_top" xlink:title="10">
<text text-anchor="middle" x="32.2303" y="-48.4864" font-family="Helvetica,sans-Serif" font-size="10.00">10</text>
</a>
</g>
</g>
<!-- dir_84d4ec99856759213102e4209c09c524&#45;&gt;dir_38c8d24aef3972a7f87b834274e76e31 -->
<g id="edge3" class="edge"><title>dir_84d4ec99856759213102e4209c09c524&#45;&gt;dir_38c8d24aef3972a7f87b834274e76e31</title>
<path fill="none" stroke="black" d="M81.1475,-215.697C79.0307,-207.898 76.4821,-198.509 74.1263,-189.829"/>
<polygon fill="black" stroke="black" points="77.4841,-188.838 71.4867,-180.104 70.7285,-190.672 77.4841,-188.838"/>
<g id="a_edge3&#45;headlabel"><a xlink:href="dir_000000_000003.html" target="_top" xlink:title="1">
<text text-anchor="middle" x="81.1658" y="-189.064" font-family="Helvetica,sans-Serif" font-size="10.00">1</text>
</a>
</g>
</g>
<!-- dir_b8f7637664a38e012eb6b40bd154637c&#45;&gt;dir_f2c8af9107d7604b778bd4ea9fe0debe -->
<g id="edge6" class="edge"><title>dir_b8f7637664a38e012eb6b40bd154637c&#45;&gt;dir_f2c8af9107d7604b778bd4ea9fe0debe</title>
<path fill="none" stroke="black" d="M127.247,-108.409C136.895,-138.48 146.294,-201.757 130.844,-252 127.804,-261.888 122.221,-271.586 115.913,-279.928"/>
<polygon fill="black" stroke="black" points="113.102,-277.835 109.431,-287.774 118.499,-282.294 113.102,-277.835"/>
<g id="a_edge6&#45;headlabel"><a xlink:href="dir_000002_000001.html" target="_top" xlink:title="1">
<text text-anchor="middle" x="113.203" y="-270.755" font-family="Helvetica,sans-Serif" font-size="10.00">1</text>
</a>
</g>
</g>
<!-- dir_b8f7637664a38e012eb6b40bd154637c&#45;&gt;dir_23ec12649285f9fabf3a6b7380226c28 -->
<g id="edge5" class="edge"><title>dir_b8f7637664a38e012eb6b40bd154637c&#45;&gt;dir_23ec12649285f9fabf3a6b7380226c28</title>
<path fill="none" stroke="black" d="M91.1643,-71.6966C79.8968,-63.0503 66.998,-52.4486 56.2305,-43.027"/>
<polygon fill="black" stroke="black" points="58.2655,-40.152 48.4743,-36.1043 53.6043,-45.3744 58.2655,-40.152"/>
<g id="a_edge5&#45;headlabel"><a xlink:href="dir_000002_000022.html" target="_top" xlink:title="5">
<text text-anchor="middle" x="62.8378" y="-37.9273" font-family="Helvetica,sans-Serif" font-size="10.00">5</text>
</a>
</g>
</g>
<!-- dir_23ec12649285f9fabf3a6b7380226c28&#45;&gt;dir_f2c8af9107d7604b778bd4ea9fe0debe -->
<g id="edge8" class="edge"><title>dir_23ec12649285f9fabf3a6b7380226c28&#45;&gt;dir_f2c8af9107d7604b778bd4ea9fe0debe</title>
<path fill="none" stroke="black" d="M33.8262,-36.2548C30.7369,-46.4231 25.9869,-59.6731 23.8441,-72 15.6222,-119.299 16.9115,-132.83 25.8441,-180 32.1745,-213.428 35.1143,-222.375 51.8441,-252 57.3501,-261.75 64.6505,-271.524 71.2175,-279.975"/>
<polygon fill="black" stroke="black" points="68.5277,-282.217 77.4465,-287.936 74.0406,-277.903 68.5277,-282.217"/>
<g id="a_edge8&#45;headlabel"><a xlink:href="dir_000022_000001.html" target="_top" xlink:title="2">
<text text-anchor="middle" x="64.0765" y="-278.636" font-family="Helvetica,sans-Serif" font-size="10.00">2</text>
</a>
</g>
</g>
<!-- dir_23ec12649285f9fabf3a6b7380226c28&#45;&gt;dir_b8f7637664a38e012eb6b40bd154637c -->
<g id="edge7" class="edge"><title>dir_23ec12649285f9fabf3a6b7380226c28&#45;&gt;dir_b8f7637664a38e012eb6b40bd154637c</title>
<path fill="none" stroke="black" d="M60.2644,-36.1043C71.6168,-44.8049 84.6622,-55.524 95.5261,-65.0328"/>
<polygon fill="black" stroke="black" points="93.2037,-67.6513 102.996,-71.6966 97.8636,-62.4278 93.2037,-67.6513"/>
<g id="a_edge7&#45;headlabel"><a xlink:href="dir_000022_000002.html" target="_top" xlink:title="2">
<text text-anchor="middle" x="88.6312" y="-64.877" font-family="Helvetica,sans-Serif" font-size="10.00">2</text>
</a>
</g>
</g>
<!-- dir_38c8d24aef3972a7f87b834274e76e31&#45;&gt;dir_b8f7637664a38e012eb6b40bd154637c -->
<g id="edge9" class="edge"><title>dir_38c8d24aef3972a7f87b834274e76e31&#45;&gt;dir_b8f7637664a38e012eb6b40bd154637c</title>
<path fill="none" stroke="black" d="M79.4509,-143.697C85.4416,-135.474 92.7206,-125.483 99.3233,-116.421"/>
<polygon fill="black" stroke="black" points="102.323,-118.248 105.382,-108.104 96.6649,-114.126 102.323,-118.248"/>
<g id="a_edge9&#45;headlabel"><a xlink:href="dir_000003_000002.html" target="_top" xlink:title="15">
<text text-anchor="middle" x="102.501" y="-120.325" font-family="Helvetica,sans-Serif" font-size="10.00">15</text>
</a>
</g>
</g>
<!-- dir_38c8d24aef3972a7f87b834274e76e31&#45;&gt;dir_23ec12649285f9fabf3a6b7380226c28 -->
<g id="edge10" class="edge"><title>dir_38c8d24aef3972a7f87b834274e76e31&#45;&gt;dir_23ec12649285f9fabf3a6b7380226c28</title>
<path fill="none" stroke="black" d="M62.8635,-143.871C57.2145,-119.564 46.8161,-74.8187 40.1218,-46.0132"/>
<polygon fill="black" stroke="black" points="43.5117,-45.1374 37.8388,-36.1893 36.6934,-46.722 43.5117,-45.1374"/>
<g id="a_edge10&#45;headlabel"><a xlink:href="dir_000003_000022.html" target="_top" xlink:title="23">
<text text-anchor="middle" x="47.0908" y="-45.496" font-family="Helvetica,sans-Serif" font-size="10.00">23</text>
</a>
</g>
</g>
</g>
</svg>
