<?xml version="1.0" encoding="UTF-8" standalone="no"?>
<!DOCTYPE svg PUBLIC "-//W3C//DTD SVG 1.1//EN"
 "http://www.w3.org/Graphics/SVG/1.1/DTD/svg11.dtd">
<!-- Generated by graphviz version 2.38.0 (20140413.2041)
 -->
<!-- Title: plugins/invoker Pages: 1 -->
<svg width="254pt" height="159pt"
 viewBox="0.00 0.00 254.00 159.00" xmlns="http://www.w3.org/2000/svg" xmlns:xlink="http://www.w3.org/1999/xlink">
<g id="graph0" class="graph" transform="scale(1 1) rotate(0) translate(4 155)">
<title>plugins/invoker</title>
<polygon fill="white" stroke="none" points="-4,4 -4,-155 250,-155 250,4 -4,4"/>
<g id="clust1" class="cluster"><title>clusterdir_38c8d24aef3972a7f87b834274e76e31</title>
<g id="a_clust1"><a xlink:href="dir_38c8d24aef3972a7f87b834274e76e31.html" target="_top" xlink:title="plugins">
<polygon fill="#ddddee" stroke="black" points="8,-56 8,-143 238,-143 238,-56 8,-56"/>
<text text-anchor="middle" x="123" y="-131" font-family="Helvetica,sans-Serif" font-size="10.00">plugins</text>
</a>
</g>
</g>
<g id="clust2" class="cluster"><title>clusterdir_c962168356181f965e1000279fd72831</title>
<g id="a_clust2"><a xlink:href="dir_c962168356181f965e1000279fd72831.html" target="_top">
<polygon fill="#eeeeff" stroke="black" points="16,-64 16,-116 230,-116 230,-64 16,-64"/>
</a>
</g>
</g>
<!-- dir_c962168356181f965e1000279fd72831 -->
<g id="node1" class="node"><title>dir_c962168356181f965e1000279fd72831</title>
<text text-anchor="middle" x="195" y="-87.5" font-family="Helvetica,sans-Serif" font-size="10.00">invoker</text>
</g>
<!-- dir_78bb280ee3a27bcb6edc1db0d7590458 -->
<g id="node2" class="node"><title>dir_78bb280ee3a27bcb6edc1db0d7590458</title>
<g id="a_node2"><a xlink:href="dir_78bb280ee3a27bcb6edc1db0d7590458.html" target="_top" xlink:title="dirmon">
<polygon fill="white" stroke="black" points="150,-108 96,-108 96,-72 150,-72 150,-108"/>
<text text-anchor="middle" x="123" y="-87.5" font-family="Helvetica,sans-Serif" font-size="10.00">dirmon</text>
</a>
</g>
</g>
<!-- dir_21e5b92dacdc8a9c5071ebc9a4284ebf -->
<g id="node3" class="node"><title>dir_21e5b92dacdc8a9c5071ebc9a4284ebf</title>
<g id="a_node3"><a xlink:href="dir_21e5b92dacdc8a9c5071ebc9a4284ebf.html" target="_top" xlink:title="scxml">
<polygon fill="white" stroke="black" points="78,-108 24,-108 24,-72 78,-72 78,-108"/>
<text text-anchor="middle" x="51" y="-87.5" font-family="Helvetica,sans-Serif" font-size="10.00">scxml</text>
</a>
</g>
</g>
<!-- dir_f2c8af9107d7604b778bd4ea9fe0debe -->
<g id="node4" class="node"><title>dir_f2c8af9107d7604b778bd4ea9fe0debe</title>
<g id="a_node4"><a xlink:href="dir_f2c8af9107d7604b778bd4ea9fe0debe.html" target="_top" xlink:title="interpreter">
<polygon fill="none" stroke="black" points="82,-36 20,-36 20,-0 82,-0 82,-36"/>
<text text-anchor="middle" x="51" y="-15.5" font-family="Helvetica,sans-Serif" font-size="10.00">interpreter</text>
</a>
</g>
</g>
<!-- dir_21e5b92dacdc8a9c5071ebc9a4284ebf&#45;&gt;dir_f2c8af9107d7604b778bd4ea9fe0debe -->
<g id="edge1" class="edge"><title>dir_21e5b92dacdc8a9c5071ebc9a4284ebf&#45;&gt;dir_f2c8af9107d7604b778bd4ea9fe0debe</title>
<path fill="none" stroke="black" d="M51,-71.6966C51,-63.9827 51,-54.7125 51,-46.1124"/>
<polygon fill="black" stroke="black" points="54.5001,-46.1043 51,-36.1043 47.5001,-46.1044 54.5001,-46.1043"/>
<g id="a_edge1&#45;headlabel"><a xlink:href="dir_000015_000001.html" target="_top" xlink:title="2">
<text text-anchor="middle" x="57.3393" y="-47.199" font-family="Helvetica,sans-Serif" font-size="10.00">2</text>
</a>
</g>
</g>
</g>
</svg>
