<?xml version="1.0" encoding="UTF-8" standalone="no"?>
<!DOCTYPE svg PUBLIC "-//W3C//DTD SVG 1.1//EN"
 "http://www.w3.org/Graphics/SVG/1.1/DTD/svg11.dtd">
<!-- Generated by graphviz version 2.40.1 (20161225.0304)
 -->
<!-- Title: plugins/ioprocessor/scxml Pages: 1 -->
<svg width="136pt" height="295pt"
 viewBox="0.00 0.00 135.87 295.00" xmlns="http://www.w3.org/2000/svg" xmlns:xlink="http://www.w3.org/1999/xlink">
<g id="graph0" class="graph" transform="scale(1 1) rotate(0) translate(4 291)">
<title>plugins/ioprocessor/scxml</title>
<polygon fill="#ffffff" stroke="transparent" points="-4,4 -4,-291 131.87,-291 131.87,4 -4,4"/>
<g id="clust1" class="cluster">
<title>clusterdir_cda2ed57874f21ec3466ebf90e859214</title>
<g id="a_clust1"><a xlink:href="dir_cda2ed57874f21ec3466ebf90e859214.html" target="_top" xlink:title="ioprocessor">
<polygon fill="#ddddee" stroke="#000000" points="47,-208 47,-279 117,-279 117,-208 47,-208"/>
<text text-anchor="middle" x="82" y="-267" font-family="Helvetica,sans-Serif" font-size="10.00" fill="#000000">ioprocessor</text>
</a>
</g>
</g>
<!-- dir_f27586b4bcfd77a5a77b37e07c2df512 -->
<g id="node1" class="node">
<title>dir_f27586b4bcfd77a5a77b37e07c2df512</title>
<g id="a_node1"><a xlink:href="dir_f27586b4bcfd77a5a77b37e07c2df512.html" target="_top" xlink:title="scxml">
<polygon fill="#eeeeff" stroke="#000000" points="109,-252 55,-252 55,-216 109,-216 109,-252"/>
<text text-anchor="middle" x="82" y="-231.5" font-family="Helvetica,sans-Serif" font-size="10.00" fill="#000000">scxml</text>
</a>
</g>
</g>
<!-- dir_b8f7637664a38e012eb6b40bd154637c -->
<g id="node2" class="node">
<title>dir_b8f7637664a38e012eb6b40bd154637c</title>
<g id="a_node2"><a xlink:href="dir_b8f7637664a38e012eb6b40bd154637c.html" target="_top" xlink:title="messages">
<polygon fill="none" stroke="#000000" points="113,-180 51,-180 51,-144 113,-144 113,-180"/>
<text text-anchor="middle" x="82" y="-159.5" font-family="Helvetica,sans-Serif" font-size="10.00" fill="#000000">messages</text>
</a>
</g>
</g>
<!-- dir_f27586b4bcfd77a5a77b37e07c2df512&#45;&gt;dir_b8f7637664a38e012eb6b40bd154637c -->
<g id="edge5" class="edge">
<title>dir_f27586b4bcfd77a5a77b37e07c2df512&#45;&gt;dir_b8f7637664a38e012eb6b40bd154637c</title>
<path fill="none" stroke="#000000" d="M82,-215.8314C82,-208.131 82,-198.9743 82,-190.4166"/>
<polygon fill="#000000" stroke="#000000" points="85.5001,-190.4132 82,-180.4133 78.5001,-190.4133 85.5001,-190.4132"/>
<g id="a_edge5&#45;headlabel"><a xlink:href="dir_000018_000002.html" target="_top" xlink:title="1">
<text text-anchor="middle" x="88.3393" y="-191.5079" font-family="Helvetica,sans-Serif" font-size="10.00" fill="#000000">1</text>
</a>
</g>
</g>
<!-- dir_23ec12649285f9fabf3a6b7380226c28 -->
<g id="node3" class="node">
<title>dir_23ec12649285f9fabf3a6b7380226c28</title>
<g id="a_node3"><a xlink:href="dir_23ec12649285f9fabf3a6b7380226c28.html" target="_top" xlink:title="util">
<polygon fill="none" stroke="#000000" points="54,-108 0,-108 0,-72 54,-72 54,-108"/>
<text text-anchor="middle" x="27" y="-87.5" font-family="Helvetica,sans-Serif" font-size="10.00" fill="#000000">util</text>
</a>
</g>
</g>
<!-- dir_f27586b4bcfd77a5a77b37e07c2df512&#45;&gt;dir_23ec12649285f9fabf3a6b7380226c28 -->
<g id="edge6" class="edge">
<title>dir_f27586b4bcfd77a5a77b37e07c2df512&#45;&gt;dir_23ec12649285f9fabf3a6b7380226c28</title>
<path fill="none" stroke="#000000" d="M65.1653,-215.8727C56.9056,-205.9807 47.5605,-193.1025 42,-180 33.6715,-160.375 29.9542,-136.5098 28.3015,-118.2869"/>
<polygon fill="#000000" stroke="#000000" points="31.7894,-117.993 27.5478,-108.2843 24.8092,-118.519 31.7894,-117.993"/>
<g id="a_edge6&#45;headlabel"><a xlink:href="dir_000018_000022.html" target="_top" xlink:title="1">
<text text-anchor="middle" x="34.8906" y="-118.8641" font-family="Helvetica,sans-Serif" font-size="10.00" fill="#000000">1</text>
</a>
</g>
</g>
<!-- dir_f2c8af9107d7604b778bd4ea9fe0debe -->
<g id="node4" class="node">
<title>dir_f2c8af9107d7604b778bd4ea9fe0debe</title>
<g id="a_node4"><a xlink:href="dir_f2c8af9107d7604b778bd4ea9fe0debe.html" target="_top" xlink:title="interpreter">
<polygon fill="none" stroke="#000000" points="122,-36 60,-36 60,0 122,0 122,-36"/>
<text text-anchor="middle" x="91" y="-15.5" font-family="Helvetica,sans-Serif" font-size="10.00" fill="#000000">interpreter</text>
</a>
</g>
</g>
<!-- dir_f27586b4bcfd77a5a77b37e07c2df512&#45;&gt;dir_f2c8af9107d7604b778bd4ea9fe0debe -->
<g id="edge7" class="edge">
<title>dir_f27586b4bcfd77a5a77b37e07c2df512&#45;&gt;dir_f2c8af9107d7604b778bd4ea9fe0debe</title>
<path fill="none" stroke="#000000" d="M100.1576,-215.7286C108.549,-205.9911 117.6123,-193.2949 122,-180 137.1275,-134.1634 118.8935,-78.4532 104.6731,-45.7445"/>
<polygon fill="#000000" stroke="#000000" points="107.7416,-44.0359 100.43,-36.3684 101.3642,-46.9219 107.7416,-44.0359"/>
<g id="a_edge7&#45;headlabel"><a xlink:href="dir_000018_000001.html" target="_top" xlink:title="1">
<text text-anchor="middle" x="111.8103" y="-43.6402" font-family="Helvetica,sans-Serif" font-size="10.00" fill="#000000">1</text>
</a>
</g>
</g>
<!-- dir_b8f7637664a38e012eb6b40bd154637c&#45;&gt;dir_23ec12649285f9fabf3a6b7380226c28 -->
<g id="edge1" class="edge">
<title>dir_b8f7637664a38e012eb6b40bd154637c&#45;&gt;dir_23ec12649285f9fabf3a6b7380226c28</title>
<path fill="none" stroke="#000000" d="M62.1688,-143.8314C55.0988,-135.6232 47.3665,-125.7606 40.8734,-116.7323"/>
<polygon fill="#000000" stroke="#000000" points="43.6718,-114.626 35.0897,-108.4133 37.9243,-118.6219 43.6718,-114.626"/>
<g id="a_edge1&#45;headlabel"><a xlink:href="dir_000002_000022.html" target="_top" xlink:title="4">
<text text-anchor="middle" x="48.0549" y="-113.4567" font-family="Helvetica,sans-Serif" font-size="10.00" fill="#000000">4</text>
</a>
</g>
</g>
<!-- dir_b8f7637664a38e012eb6b40bd154637c&#45;&gt;dir_f2c8af9107d7604b778bd4ea9fe0debe -->
<g id="edge2" class="edge">
<title>dir_b8f7637664a38e012eb6b40bd154637c&#45;&gt;dir_f2c8af9107d7604b778bd4ea9fe0debe</title>
<path fill="none" stroke="#000000" d="M78.4667,-143.7623C77.542,-119.201 80.0143,-75.2474 83.7304,-46.3541"/>
<polygon fill="#000000" stroke="#000000" points="87.2474,-46.4869 85.2111,-36.0896 80.3191,-45.4874 87.2474,-46.4869"/>
<g id="a_edge2&#45;headlabel"><a xlink:href="dir_000002_000001.html" target="_top" xlink:title="1">
<text text-anchor="middle" x="89.5445" y="-47.95" font-family="Helvetica,sans-Serif" font-size="10.00" fill="#000000">1</text>
</a>
</g>
</g>
<!-- dir_23ec12649285f9fabf3a6b7380226c28&#45;&gt;dir_b8f7637664a38e012eb6b40bd154637c -->
<g id="edge3" class="edge">
<title>dir_23ec12649285f9fabf3a6b7380226c28&#45;&gt;dir_b8f7637664a38e012eb6b40bd154637c</title>
<path fill="none" stroke="#000000" d="M47.0417,-108.4133C54.1246,-116.654 61.851,-126.5245 68.3194,-135.536"/>
<polygon fill="#000000" stroke="#000000" points="65.4981,-137.6095 74.0736,-143.8314 71.2498,-133.6197 65.4981,-137.6095"/>
<g id="a_edge3&#45;headlabel"><a xlink:href="dir_000022_000002.html" target="_top" xlink:title="2">
<text text-anchor="middle" x="61.1164" y="-133.7742" font-family="Helvetica,sans-Serif" font-size="10.00" fill="#000000">2</text>
</a>
</g>
</g>
<!-- dir_23ec12649285f9fabf3a6b7380226c28&#45;&gt;dir_f2c8af9107d7604b778bd4ea9fe0debe -->
<g id="edge4" class="edge">
<title>dir_23ec12649285f9fabf3a6b7380226c28&#45;&gt;dir_f2c8af9107d7604b778bd4ea9fe0debe</title>
<path fill="none" stroke="#000000" d="M37.1975,-71.8314C43.8946,-63.3694 52.7943,-53.1489 61.4724,-43.8971"/>
<polygon fill="#000000" stroke="#000000" points="64.2563,-46.0511 68.6566,-36.4133 59.2065,-41.2034 64.2563,-46.0511"/>
<g id="a_edge4&#45;headlabel"><a xlink:href="dir_000022_000001.html" target="_top" xlink:title="2">
<text text-anchor="middle" x="63.8152" y="-48.1105" font-family="Helvetica,sans-Serif" font-size="10.00" fill="#000000">2</text>
</a>
</g>
</g>
<!-- dir_f2c8af9107d7604b778bd4ea9fe0debe&#45;&gt;dir_b8f7637664a38e012eb6b40bd154637c -->
<g id="edge8" class="edge">
<title>dir_f2c8af9107d7604b778bd4ea9fe0debe&#45;&gt;dir_b8f7637664a38e012eb6b40bd154637c</title>
<path fill="none" stroke="#000000" d="M94.5277,-36.0896C95.4702,-60.6805 92.9813,-104.905 89.2429,-133.8531"/>
<polygon fill="#000000" stroke="#000000" points="85.7771,-133.3649 87.813,-143.7623 92.7054,-134.3647 85.7771,-133.3649"/>
<g id="a_edge8&#45;headlabel"><a xlink:href="dir_000001_000002.html" target="_top" xlink:title="12">
<text text-anchor="middle" x="83.4802" y="-126.9017" font-family="Helvetica,sans-Serif" font-size="10.00" fill="#000000">12</text>
</a>
</g>
</g>
<!-- dir_f2c8af9107d7604b778bd4ea9fe0debe&#45;&gt;dir_23ec12649285f9fabf3a6b7380226c28 -->
<g id="edge9" class="edge">
<title>dir_f2c8af9107d7604b778bd4ea9fe0debe&#45;&gt;dir_23ec12649285f9fabf3a6b7380226c28</title>
<path fill="none" stroke="#000000" d="M80.6087,-36.4133C73.8694,-44.9088 64.9509,-55.1366 56.2773,-64.3696"/>
<polygon fill="#000000" stroke="#000000" points="53.5106,-62.1972 49.1023,-71.8314 58.5564,-67.049 53.5106,-62.1972"/>
<g id="a_edge9&#45;headlabel"><a xlink:href="dir_000001_000022.html" target="_top" xlink:title="14">
<text text-anchor="middle" x="53.9555" y="-55.1382" font-family="Helvetica,sans-Serif" font-size="10.00" fill="#000000">14</text>
</a>
</g>
</g>
</g>
</svg>
