<?xml version="1.0" encoding="UTF-8" standalone="no"?>
<!DOCTYPE svg PUBLIC "-//W3C//DTD SVG 1.1//EN"
 "http://www.w3.org/Graphics/SVG/1.1/DTD/svg11.dtd">
<!-- Generated by graphviz version 2.38.0 (20140413.2041)
 -->
<!-- Title: plugins/ioprocessor Pages: 1 -->
<svg width="284pt" height="375pt"
 viewBox="0.00 0.00 284.46 375.00" xmlns="http://www.w3.org/2000/svg" xmlns:xlink="http://www.w3.org/1999/xlink">
<g id="graph0" class="graph" transform="scale(1 1) rotate(0) translate(4 371)">
<title>plugins/ioprocessor</title>
<polygon fill="white" stroke="none" points="-4,4 -4,-371 280.462,-371 280.462,4 -4,4"/>
<g id="clust1" class="cluster"><title>clusterdir_38c8d24aef3972a7f87b834274e76e31</title>
<g id="a_clust1"><a xlink:href="dir_38c8d24aef3972a7f87b834274e76e31.html" target="_top" xlink:title="plugins">
<polygon fill="#ddddee" stroke="black" points="20.4624,-272 20.4624,-359 268.462,-359 268.462,-272 20.4624,-272"/>
<text text-anchor="middle" x="144.462" y="-347" font-family="Helvetica,sans-Serif" font-size="10.00">plugins</text>
</a>
</g>
</g>
<g id="clust2" class="cluster"><title>clusterdir_cda2ed57874f21ec3466ebf90e859214</title>
<g id="a_clust2"><a xlink:href="dir_cda2ed57874f21ec3466ebf90e859214.html" target="_top">
<polygon fill="#eeeeff" stroke="black" points="28.4624,-280 28.4624,-332 260.462,-332 260.462,-280 28.4624,-280"/>
</a>
</g>
</g>
<!-- dir_cda2ed57874f21ec3466ebf90e859214 -->
<g id="node1" class="node"><title>dir_cda2ed57874f21ec3466ebf90e859214</title>
<text text-anchor="middle" x="218.462" y="-303.5" font-family="Helvetica,sans-Serif" font-size="10.00">ioprocessor</text>
</g>
<!-- dir_f78ca507ebc6af0b02d751eb5da4bb98 -->
<g id="node2" class="node"><title>dir_f78ca507ebc6af0b02d751eb5da4bb98</title>
<g id="a_node2"><a xlink:href="dir_f78ca507ebc6af0b02d751eb5da4bb98.html" target="_top" xlink:title="basichttp">
<polygon fill="white" stroke="black" points="93.9624,-324 36.9624,-324 36.9624,-288 93.9624,-288 93.9624,-324"/>
<text text-anchor="middle" x="65.4624" y="-303.5" font-family="Helvetica,sans-Serif" font-size="10.00">basichttp</text>
</a>
</g>
</g>
<!-- dir_b8f7637664a38e012eb6b40bd154637c -->
<g id="node4" class="node"><title>dir_b8f7637664a38e012eb6b40bd154637c</title>
<g id="a_node4"><a xlink:href="dir_b8f7637664a38e012eb6b40bd154637c.html" target="_top" xlink:title="messages">
<polygon fill="none" stroke="black" points="149.462,-180 87.4624,-180 87.4624,-144 149.462,-144 149.462,-180"/>
<text text-anchor="middle" x="118.462" y="-159.5" font-family="Helvetica,sans-Serif" font-size="10.00">messages</text>
</a>
</g>
</g>
<!-- dir_f78ca507ebc6af0b02d751eb5da4bb98&#45;&gt;dir_b8f7637664a38e012eb6b40bd154637c -->
<g id="edge5" class="edge"><title>dir_f78ca507ebc6af0b02d751eb5da4bb98&#45;&gt;dir_b8f7637664a38e012eb6b40bd154637c</title>
<path fill="none" stroke="black" d="M71.8554,-287.871C80.9678,-263.457 97.7753,-218.426 108.521,-189.635"/>
<polygon fill="black" stroke="black" points="111.829,-190.782 112.047,-180.189 105.271,-188.334 111.829,-190.782"/>
<g id="a_edge5&#45;headlabel"><a xlink:href="dir_000017_000002.html" target="_top" xlink:title="1">
<text text-anchor="middle" x="113.232" y="-192.642" font-family="Helvetica,sans-Serif" font-size="10.00">1</text>
</a>
</g>
</g>
<!-- dir_23ec12649285f9fabf3a6b7380226c28 -->
<g id="node5" class="node"><title>dir_23ec12649285f9fabf3a6b7380226c28</title>
<g id="a_node5"><a xlink:href="dir_23ec12649285f9fabf3a6b7380226c28.html" target="_top" xlink:title="util">
<polygon fill="none" stroke="black" points="103.462,-108 49.4624,-108 49.4624,-72 103.462,-72 103.462,-108"/>
<text text-anchor="middle" x="76.4624" y="-87.5" font-family="Helvetica,sans-Serif" font-size="10.00">util</text>
</a>
</g>
</g>
<!-- dir_f78ca507ebc6af0b02d751eb5da4bb98&#45;&gt;dir_23ec12649285f9fabf3a6b7380226c28 -->
<g id="edge6" class="edge"><title>dir_f78ca507ebc6af0b02d751eb5da4bb98&#45;&gt;dir_23ec12649285f9fabf3a6b7380226c28</title>
<path fill="none" stroke="black" d="M40.0828,-287.955C28.7477,-278.786 16.5839,-266.4 10.4624,-252 4.20282,-237.275 6.61409,-231.53 10.4624,-216 19.6618,-178.874 42.1237,-140.621 58.289,-116.375"/>
<polygon fill="black" stroke="black" points="61.186,-118.339 63.9235,-108.103 55.4008,-114.397 61.186,-118.339"/>
<g id="a_edge6&#45;headlabel"><a xlink:href="dir_000017_000022.html" target="_top" xlink:title="2">
<text text-anchor="middle" x="61.5088" y="-120.408" font-family="Helvetica,sans-Serif" font-size="10.00">2</text>
</a>
</g>
</g>
<!-- dir_41e1742e44e2de38b3bc91f993fed282 -->
<g id="node6" class="node"><title>dir_41e1742e44e2de38b3bc91f993fed282</title>
<g id="a_node6"><a xlink:href="dir_41e1742e44e2de38b3bc91f993fed282.html" target="_top" xlink:title="server">
<polygon fill="none" stroke="black" points="73.4624,-252 19.4624,-252 19.4624,-216 73.4624,-216 73.4624,-252"/>
<text text-anchor="middle" x="46.4624" y="-231.5" font-family="Helvetica,sans-Serif" font-size="10.00">server</text>
</a>
</g>
</g>
<!-- dir_f78ca507ebc6af0b02d751eb5da4bb98&#45;&gt;dir_41e1742e44e2de38b3bc91f993fed282 -->
<g id="edge7" class="edge"><title>dir_f78ca507ebc6af0b02d751eb5da4bb98&#45;&gt;dir_41e1742e44e2de38b3bc91f993fed282</title>
<path fill="none" stroke="black" d="M60.7657,-287.697C58.6489,-279.898 56.1004,-270.509 53.7445,-261.829"/>
<polygon fill="black" stroke="black" points="57.1023,-260.838 51.105,-252.104 50.3467,-262.672 57.1023,-260.838"/>
<g id="a_edge7&#45;headlabel"><a xlink:href="dir_000017_000019.html" target="_top" xlink:title="1">
<text text-anchor="middle" x="60.784" y="-261.064" font-family="Helvetica,sans-Serif" font-size="10.00">1</text>
</a>
</g>
</g>
<!-- dir_f2c8af9107d7604b778bd4ea9fe0debe -->
<g id="node7" class="node"><title>dir_f2c8af9107d7604b778bd4ea9fe0debe</title>
<g id="a_node7"><a xlink:href="dir_f2c8af9107d7604b778bd4ea9fe0debe.html" target="_top" xlink:title="interpreter">
<polygon fill="none" stroke="black" points="107.462,-36 45.4624,-36 45.4624,-0 107.462,-0 107.462,-36"/>
<text text-anchor="middle" x="76.4624" y="-15.5" font-family="Helvetica,sans-Serif" font-size="10.00">interpreter</text>
</a>
</g>
</g>
<!-- dir_f78ca507ebc6af0b02d751eb5da4bb98&#45;&gt;dir_f2c8af9107d7604b778bd4ea9fe0debe -->
<g id="edge8" class="edge"><title>dir_f78ca507ebc6af0b02d751eb5da4bb98&#45;&gt;dir_f2c8af9107d7604b778bd4ea9fe0debe</title>
<path fill="none" stroke="black" d="M36.9326,-288.631C24.1737,-279.623 10.4547,-267.176 3.46235,-252 -3.23302,-237.468 1.98169,-231.931 3.46235,-216 9.48821,-151.164 2.13486,-130.631 30.4624,-72 35.3627,-61.8575 42.7232,-52.1283 50.1277,-43.8367"/>
<polygon fill="black" stroke="black" points="52.8581,-46.0424 57.1615,-36.3609 47.7599,-41.2456 52.8581,-46.0424"/>
<g id="a_edge8&#45;headlabel"><a xlink:href="dir_000017_000001.html" target="_top" xlink:title="2">
<text text-anchor="middle" x="52.4627" y="-48.1059" font-family="Helvetica,sans-Serif" font-size="10.00">2</text>
</a>
</g>
</g>
<!-- dir_f27586b4bcfd77a5a77b37e07c2df512 -->
<g id="node3" class="node"><title>dir_f27586b4bcfd77a5a77b37e07c2df512</title>
<g id="a_node3"><a xlink:href="dir_f27586b4bcfd77a5a77b37e07c2df512.html" target="_top" xlink:title="scxml">
<polygon fill="white" stroke="black" points="166.462,-324 112.462,-324 112.462,-288 166.462,-288 166.462,-324"/>
<text text-anchor="middle" x="139.462" y="-303.5" font-family="Helvetica,sans-Serif" font-size="10.00">scxml</text>
</a>
</g>
</g>
<!-- dir_f27586b4bcfd77a5a77b37e07c2df512&#45;&gt;dir_b8f7637664a38e012eb6b40bd154637c -->
<g id="edge12" class="edge"><title>dir_f27586b4bcfd77a5a77b37e07c2df512&#45;&gt;dir_b8f7637664a38e012eb6b40bd154637c</title>
<path fill="none" stroke="black" d="M136.929,-287.871C133.35,-263.67 126.775,-219.211 122.513,-190.393"/>
<polygon fill="black" stroke="black" points="125.93,-189.57 121.004,-180.189 119.005,-190.594 125.93,-189.57"/>
<g id="a_edge12&#45;headlabel"><a xlink:href="dir_000018_000002.html" target="_top" xlink:title="1">
<text text-anchor="middle" x="129.264" y="-190.21" font-family="Helvetica,sans-Serif" font-size="10.00">1</text>
</a>
</g>
</g>
<!-- dir_f27586b4bcfd77a5a77b37e07c2df512&#45;&gt;dir_23ec12649285f9fabf3a6b7380226c28 -->
<g id="edge13" class="edge"><title>dir_f27586b4bcfd77a5a77b37e07c2df512&#45;&gt;dir_23ec12649285f9fabf3a6b7380226c28</title>
<path fill="none" stroke="black" d="M147.698,-287.78C161.18,-256.904 184.03,-190.968 158.462,-144 148.684,-126.037 129.908,-113.233 112.787,-104.715"/>
<polygon fill="black" stroke="black" points="114.059,-101.447 103.514,-100.419 111.116,-107.799 114.059,-101.447"/>
<g id="a_edge13&#45;headlabel"><a xlink:href="dir_000018_000022.html" target="_top" xlink:title="1">
<text text-anchor="middle" x="118.514" y="-97.882" font-family="Helvetica,sans-Serif" font-size="10.00">1</text>
</a>
</g>
</g>
<!-- dir_f27586b4bcfd77a5a77b37e07c2df512&#45;&gt;dir_f2c8af9107d7604b778bd4ea9fe0debe -->
<g id="edge14" class="edge"><title>dir_f27586b4bcfd77a5a77b37e07c2df512&#45;&gt;dir_f2c8af9107d7604b778bd4ea9fe0debe</title>
<path fill="none" stroke="black" d="M157.195,-287.599C165.701,-277.998 174.995,-265.336 179.462,-252 183.421,-240.184 184.824,-168.39 178.462,-144 169.277,-108.785 162.456,-100.209 139.462,-72 130.611,-61.1411 119.302,-50.828 108.715,-42.2345"/>
<polygon fill="black" stroke="black" points="110.836,-39.4499 100.813,-36.0177 106.508,-44.9516 110.836,-39.4499"/>
<g id="a_edge14&#45;headlabel"><a xlink:href="dir_000018_000001.html" target="_top" xlink:title="1">
<text text-anchor="middle" x="115.417" y="-36.9409" font-family="Helvetica,sans-Serif" font-size="10.00">1</text>
</a>
</g>
</g>
<!-- dir_b8f7637664a38e012eb6b40bd154637c&#45;&gt;dir_23ec12649285f9fabf3a6b7380226c28 -->
<g id="edge1" class="edge"><title>dir_b8f7637664a38e012eb6b40bd154637c&#45;&gt;dir_23ec12649285f9fabf3a6b7380226c28</title>
<path fill="none" stroke="black" d="M102.165,-143.697C96.5021,-135.644 90.4423,-125.894 85.505,-116.982"/>
<polygon fill="black" stroke="black" points="88.5862,-115.322 80.8299,-108.104 82.3924,-118.583 88.5862,-115.322"/>
<g id="a_edge1&#45;headlabel"><a xlink:href="dir_000002_000022.html" target="_top" xlink:title="5">
<text text-anchor="middle" x="92.7732" y="-114.679" font-family="Helvetica,sans-Serif" font-size="10.00">5</text>
</a>
</g>
</g>
<!-- dir_b8f7637664a38e012eb6b40bd154637c&#45;&gt;dir_f2c8af9107d7604b778bd4ea9fe0debe -->
<g id="edge2" class="edge"><title>dir_b8f7637664a38e012eb6b40bd154637c&#45;&gt;dir_f2c8af9107d7604b778bd4ea9fe0debe</title>
<path fill="none" stroke="black" d="M113.243,-143.746C111.872,-125.421 111.69,-95.8646 103.462,-72 100.161,-62.4239 94.6532,-52.9543 89.3315,-44.7272"/>
<polygon fill="black" stroke="black" points="92.2011,-42.7218 83.743,-36.3412 86.376,-46.6036 92.2011,-42.7218"/>
<g id="a_edge2&#45;headlabel"><a xlink:href="dir_000002_000001.html" target="_top" xlink:title="1">
<text text-anchor="middle" x="96.5571" y="-41.6385" font-family="Helvetica,sans-Serif" font-size="10.00">1</text>
</a>
</g>
</g>
<!-- dir_23ec12649285f9fabf3a6b7380226c28&#45;&gt;dir_b8f7637664a38e012eb6b40bd154637c -->
<g id="edge3" class="edge"><title>dir_23ec12649285f9fabf3a6b7380226c28&#45;&gt;dir_b8f7637664a38e012eb6b40bd154637c</title>
<path fill="none" stroke="black" d="M92.62,-108.104C98.2758,-116.129 104.342,-125.871 109.297,-134.797"/>
<polygon fill="black" stroke="black" points="106.232,-136.488 113.996,-143.697 112.422,-133.219 106.232,-136.488"/>
<g id="a_edge3&#45;headlabel"><a xlink:href="dir_000022_000002.html" target="_top" xlink:title="2">
<text text-anchor="middle" x="102.043" y="-132.134" font-family="Helvetica,sans-Serif" font-size="10.00">2</text>
</a>
</g>
</g>
<!-- dir_23ec12649285f9fabf3a6b7380226c28&#45;&gt;dir_f2c8af9107d7604b778bd4ea9fe0debe -->
<g id="edge4" class="edge"><title>dir_23ec12649285f9fabf3a6b7380226c28&#45;&gt;dir_f2c8af9107d7604b778bd4ea9fe0debe</title>
<path fill="none" stroke="black" d="M70.5466,-71.6966C69.7509,-63.9827 69.5244,-54.7125 69.8671,-46.1124"/>
<polygon fill="black" stroke="black" points="73.3607,-46.3243 70.5673,-36.1043 66.3778,-45.8356 73.3607,-46.3243"/>
<g id="a_edge4&#45;headlabel"><a xlink:href="dir_000022_000001.html" target="_top" xlink:title="2">
<text text-anchor="middle" x="75.9423" y="-47.6083" font-family="Helvetica,sans-Serif" font-size="10.00">2</text>
</a>
</g>
</g>
<!-- dir_41e1742e44e2de38b3bc91f993fed282&#45;&gt;dir_b8f7637664a38e012eb6b40bd154637c -->
<g id="edge9" class="edge"><title>dir_41e1742e44e2de38b3bc91f993fed282&#45;&gt;dir_b8f7637664a38e012eb6b40bd154637c</title>
<path fill="none" stroke="black" d="M64.2601,-215.697C73.0663,-207.135 83.8445,-196.656 93.4635,-187.304"/>
<polygon fill="black" stroke="black" points="96.1391,-189.585 100.869,-180.104 91.2596,-184.566 96.1391,-189.585"/>
<g id="a_edge9&#45;headlabel"><a xlink:href="dir_000019_000002.html" target="_top" xlink:title="1">
<text text-anchor="middle" x="95.541" y="-191.626" font-family="Helvetica,sans-Serif" font-size="10.00">1</text>
</a>
</g>
</g>
<!-- dir_41e1742e44e2de38b3bc91f993fed282&#45;&gt;dir_23ec12649285f9fabf3a6b7380226c28 -->
<g id="edge10" class="edge"><title>dir_41e1742e44e2de38b3bc91f993fed282&#45;&gt;dir_23ec12649285f9fabf3a6b7380226c28</title>
<path fill="none" stroke="black" d="M50.0811,-215.871C55.2165,-191.564 64.6697,-146.819 70.7553,-118.013"/>
<polygon fill="black" stroke="black" points="74.1881,-118.697 72.8308,-108.189 67.3393,-117.25 74.1881,-118.697"/>
<g id="a_edge10&#45;headlabel"><a xlink:href="dir_000019_000022.html" target="_top" xlink:title="2">
<text text-anchor="middle" x="76.2231" y="-120.301" font-family="Helvetica,sans-Serif" font-size="10.00">2</text>
</a>
</g>
</g>
<!-- dir_41e1742e44e2de38b3bc91f993fed282&#45;&gt;dir_f2c8af9107d7604b778bd4ea9fe0debe -->
<g id="edge11" class="edge"><title>dir_41e1742e44e2de38b3bc91f993fed282&#45;&gt;dir_f2c8af9107d7604b778bd4ea9fe0debe</title>
<path fill="none" stroke="black" d="M42.1456,-215.595C35.4872,-185.53 25.0063,-122.262 40.4624,-72 43.4712,-62.2153 48.9693,-52.6161 54.778,-44.3336"/>
<polygon fill="black" stroke="black" points="57.6572,-46.3279 60.8524,-36.2264 52.0552,-42.1306 57.6572,-46.3279"/>
<g id="a_edge11&#45;headlabel"><a xlink:href="dir_000019_000001.html" target="_top" xlink:title="1">
<text text-anchor="middle" x="57.774" y="-48.4071" font-family="Helvetica,sans-Serif" font-size="10.00">1</text>
</a>
</g>
</g>
<!-- dir_f2c8af9107d7604b778bd4ea9fe0debe&#45;&gt;dir_b8f7637664a38e012eb6b40bd154637c -->
<g id="edge15" class="edge"><title>dir_f2c8af9107d7604b778bd4ea9fe0debe&#45;&gt;dir_b8f7637664a38e012eb6b40bd154637c</title>
<path fill="none" stroke="black" d="M99.6975,-36.3412C108.38,-46.1179 116.967,-58.9602 121.462,-72 128.308,-91.8561 129.584,-115.652 127.933,-133.641"/>
<polygon fill="black" stroke="black" points="124.438,-133.373 126.596,-143.746 131.377,-134.291 124.438,-133.373"/>
<g id="a_edge15&#45;headlabel"><a xlink:href="dir_000001_000002.html" target="_top" xlink:title="11">
<text text-anchor="middle" x="122.094" y="-126.937" font-family="Helvetica,sans-Serif" font-size="10.00">11</text>
</a>
</g>
</g>
<!-- dir_f2c8af9107d7604b778bd4ea9fe0debe&#45;&gt;dir_23ec12649285f9fabf3a6b7380226c28 -->
<g id="edge16" class="edge"><title>dir_f2c8af9107d7604b778bd4ea9fe0debe&#45;&gt;dir_23ec12649285f9fabf3a6b7380226c28</title>
<path fill="none" stroke="black" d="M82.3574,-36.1043C83.1629,-43.7913 83.3992,-53.0537 83.0664,-61.6651"/>
<polygon fill="black" stroke="black" points="79.5709,-61.4805 82.3781,-71.6966 86.5545,-61.9597 79.5709,-61.4805"/>
<g id="a_edge16&#45;headlabel"><a xlink:href="dir_000001_000022.html" target="_top" xlink:title="14">
<text text-anchor="middle" x="76.9842" y="-55.2" font-family="Helvetica,sans-Serif" font-size="10.00">14</text>
</a>
</g>
</g>
</g>
</svg>
