<?xml version="1.0" encoding="UTF-8" standalone="no"?>
<!DOCTYPE svg PUBLIC "-//W3C//DTD SVG 1.1//EN"
 "http://www.w3.org/Graphics/SVG/1.1/DTD/svg11.dtd">
<!-- Generated by graphviz version 2.38.0 (20140413.2041)
 -->
<!-- Title: server Pages: 1 -->
<svg width="95pt" height="188pt"
 viewBox="0.00 0.00 95.00 188.00" xmlns="http://www.w3.org/2000/svg" xmlns:xlink="http://www.w3.org/1999/xlink">
<g id="graph0" class="graph" transform="scale(1 1) rotate(0) translate(4 184)">
<title>server</title>
<polygon fill="white" stroke="none" points="-4,4 -4,-184 91,-184 91,4 -4,4"/>
<!-- dir_41e1742e44e2de38b3bc91f993fed282 -->
<g id="node1" class="node"><title>dir_41e1742e44e2de38b3bc91f993fed282</title>
<g id="a_node1"><a xlink:href="dir_41e1742e44e2de38b3bc91f993fed282.html" target="_top" xlink:title="server">
<polygon fill="#eeeeff" stroke="black" points="87,-180 33,-180 33,-144 87,-144 87,-180"/>
<text text-anchor="middle" x="60" y="-159.5" font-family="Helvetica,sans-Serif" font-size="10.00">server</text>
</a>
</g>
</g>
<!-- dir_b8f7637664a38e012eb6b40bd154637c -->
<g id="node2" class="node"><title>dir_b8f7637664a38e012eb6b40bd154637c</title>
<g id="a_node2"><a xlink:href="dir_b8f7637664a38e012eb6b40bd154637c.html" target="_top" xlink:title="messages">
<polygon fill="none" stroke="black" points="62,-108 0,-108 0,-72 62,-72 62,-108"/>
<text text-anchor="middle" x="31" y="-87.5" font-family="Helvetica,sans-Serif" font-size="10.00">messages</text>
</a>
</g>
</g>
<!-- dir_41e1742e44e2de38b3bc91f993fed282&#45;&gt;dir_b8f7637664a38e012eb6b40bd154637c -->
<g id="edge3" class="edge"><title>dir_41e1742e44e2de38b3bc91f993fed282&#45;&gt;dir_b8f7637664a38e012eb6b40bd154637c</title>
<path fill="none" stroke="black" d="M52.8315,-143.697C49.5655,-135.813 45.626,-126.304 41.9978,-117.546"/>
<polygon fill="black" stroke="black" points="45.147,-116.003 38.0861,-108.104 38.68,-118.683 45.147,-116.003"/>
<g id="a_edge3&#45;headlabel"><a xlink:href="dir_000015_000002.html" target="_top" xlink:title="1">
<text text-anchor="middle" x="49.1459" y="-115.738" font-family="Helvetica,sans-Serif" font-size="10.00">1</text>
</a>
</g>
</g>
<!-- dir_23ec12649285f9fabf3a6b7380226c28 -->
<g id="node3" class="node"><title>dir_23ec12649285f9fabf3a6b7380226c28</title>
<g id="a_node3"><a xlink:href="dir_23ec12649285f9fabf3a6b7380226c28.html" target="_top" xlink:title="util">
<polygon fill="none" stroke="black" points="58,-36 4,-36 4,-0 58,-0 58,-36"/>
<text text-anchor="middle" x="31" y="-15.5" font-family="Helvetica,sans-Serif" font-size="10.00">util</text>
</a>
</g>
</g>
<!-- dir_41e1742e44e2de38b3bc91f993fed282&#45;&gt;dir_23ec12649285f9fabf3a6b7380226c28 -->
<g id="edge4" class="edge"><title>dir_41e1742e44e2de38b3bc91f993fed282&#45;&gt;dir_23ec12649285f9fabf3a6b7380226c28</title>
<path fill="none" stroke="black" d="M66.492,-143.824C72.3975,-125.565 79.0613,-96.063 71,-72 67.6494,-61.9984 61.5839,-52.3756 55.1723,-44.1385"/>
<polygon fill="black" stroke="black" points="57.82,-41.8485 48.7331,-36.4006 52.4394,-46.3261 57.82,-41.8485"/>
<g id="a_edge4&#45;headlabel"><a xlink:href="dir_000015_000017.html" target="_top" xlink:title="2">
<text text-anchor="middle" x="62.3018" y="-40.2953" font-family="Helvetica,sans-Serif" font-size="10.00">2</text>
</a>
</g>
</g>
<!-- dir_b8f7637664a38e012eb6b40bd154637c&#45;&gt;dir_23ec12649285f9fabf3a6b7380226c28 -->
<g id="edge1" class="edge"><title>dir_b8f7637664a38e012eb6b40bd154637c&#45;&gt;dir_23ec12649285f9fabf3a6b7380226c28</title>
<path fill="none" stroke="black" d="M25.0843,-71.6966C24.2886,-63.9827 24.0621,-54.7125 24.4047,-46.1124"/>
<polygon fill="black" stroke="black" points="27.8984,-46.3243 25.105,-36.1043 20.9154,-45.8356 27.8984,-46.3243"/>
<g id="a_edge1&#45;headlabel"><a xlink:href="dir_000002_000017.html" target="_top" xlink:title="5">
<text text-anchor="middle" x="30.4799" y="-47.6083" font-family="Helvetica,sans-Serif" font-size="10.00">5</text>
</a>
</g>
</g>
<!-- dir_23ec12649285f9fabf3a6b7380226c28&#45;&gt;dir_b8f7637664a38e012eb6b40bd154637c -->
<g id="edge2" class="edge"><title>dir_23ec12649285f9fabf3a6b7380226c28&#45;&gt;dir_b8f7637664a38e012eb6b40bd154637c</title>
<path fill="none" stroke="black" d="M36.895,-36.1043C37.7005,-43.7913 37.9369,-53.0537 37.604,-61.6651"/>
<polygon fill="black" stroke="black" points="34.1085,-61.4805 36.9157,-71.6966 41.0921,-61.9597 34.1085,-61.4805"/>
<g id="a_edge2&#45;headlabel"><a xlink:href="dir_000017_000002.html" target="_top" xlink:title="2">
<text text-anchor="middle" x="31.5219" y="-55.2" font-family="Helvetica,sans-Serif" font-size="10.00">2</text>
</a>
</g>
</g>
</g>
</svg>
