<?xml version="1.0" encoding="UTF-8" standalone="no"?>
<!DOCTYPE svg PUBLIC "-//W3C//DTD SVG 1.1//EN"
 "http://www.w3.org/Graphics/SVG/1.1/DTD/svg11.dtd">
<!-- Generated by graphviz version 2.40.1 (20161225.0304)
 -->
<!-- Title: plugins/datamodel/c89 Pages: 1 -->
<svg width="112pt" height="223pt"
 viewBox="0.00 0.00 112.00 223.00" xmlns="http://www.w3.org/2000/svg" xmlns:xlink="http://www.w3.org/1999/xlink">
<g id="graph0" class="graph" transform="scale(1 1) rotate(0) translate(4 219)">
<title>plugins/datamodel/c89</title>
<polygon fill="#ffffff" stroke="transparent" points="-4,4 -4,-219 108,-219 108,4 -4,4"/>
<g id="clust1" class="cluster">
<title>clusterdir_7cfdd7134d700922c16c1342750b4180</title>
<g id="a_clust1"><a xlink:href="dir_7cfdd7134d700922c16c1342750b4180.html" target="_top" xlink:title="datamodel">
<polygon fill="#ddddee" stroke="#000000" points="26,-136 26,-207 96,-207 96,-136 26,-136"/>
<text text-anchor="middle" x="61" y="-195" font-family="Helvetica,sans-Serif" font-size="10.00" fill="#000000">datamodel</text>
</a>
</g>
</g>
<!-- dir_3852ccce444a38c493c041bea6013eed -->
<g id="node1" class="node">
<title>dir_3852ccce444a38c493c041bea6013eed</title>
<g id="a_node1"><a xlink:href="dir_3852ccce444a38c493c041bea6013eed.html" target="_top" xlink:title="c89">
<polygon fill="#eeeeff" stroke="#000000" points="88,-180 34,-180 34,-144 88,-144 88,-180"/>
<text text-anchor="middle" x="61" y="-159.5" font-family="Helvetica,sans-Serif" font-size="10.00" fill="#000000">c89</text>
</a>
</g>
</g>
<!-- dir_b8f7637664a38e012eb6b40bd154637c -->
<g id="node2" class="node">
<title>dir_b8f7637664a38e012eb6b40bd154637c</title>
<g id="a_node2"><a xlink:href="dir_b8f7637664a38e012eb6b40bd154637c.html" target="_top" xlink:title="messages">
<polygon fill="none" stroke="#000000" points="62,-108 0,-108 0,-72 62,-72 62,-108"/>
<text text-anchor="middle" x="31" y="-87.5" font-family="Helvetica,sans-Serif" font-size="10.00" fill="#000000">messages</text>
</a>
</g>
</g>
<!-- dir_3852ccce444a38c493c041bea6013eed&#45;&gt;dir_b8f7637664a38e012eb6b40bd154637c -->
<g id="edge1" class="edge">
<title>dir_3852ccce444a38c493c041bea6013eed&#45;&gt;dir_b8f7637664a38e012eb6b40bd154637c</title>
<path fill="none" stroke="#000000" d="M53.4297,-143.8314C50.1507,-135.9617 46.238,-126.5712 42.6055,-117.8533"/>
<polygon fill="#000000" stroke="#000000" points="45.7492,-116.2979 38.6722,-108.4133 39.2876,-118.9902 45.7492,-116.2979"/>
<g id="a_edge1&#45;headlabel"><a xlink:href="dir_000005_000002.html" target="_top" xlink:title="1">
<text text-anchor="middle" x="49.7525" y="-116.024" font-family="Helvetica,sans-Serif" font-size="10.00" fill="#000000">1</text>
</a>
</g>
</g>
<!-- dir_23ec12649285f9fabf3a6b7380226c28 -->
<g id="node3" class="node">
<title>dir_23ec12649285f9fabf3a6b7380226c28</title>
<g id="a_node3"><a xlink:href="dir_23ec12649285f9fabf3a6b7380226c28.html" target="_top" xlink:title="util">
<polygon fill="none" stroke="#000000" points="58,-36 4,-36 4,0 58,0 58,-36"/>
<text text-anchor="middle" x="31" y="-15.5" font-family="Helvetica,sans-Serif" font-size="10.00" fill="#000000">util</text>
</a>
</g>
</g>
<!-- dir_3852ccce444a38c493c041bea6013eed&#45;&gt;dir_23ec12649285f9fabf3a6b7380226c28 -->
<g id="edge2" class="edge">
<title>dir_3852ccce444a38c493c041bea6013eed&#45;&gt;dir_23ec12649285f9fabf3a6b7380226c28</title>
<path fill="none" stroke="#000000" d="M67.3864,-143.9468C72.9322,-125.4362 78.9326,-96.0359 71,-72 67.7092,-62.0288 61.7884,-52.3944 55.4936,-44.0924"/>
<polygon fill="#000000" stroke="#000000" points="58.172,-41.8384 49.1576,-36.2714 52.7328,-46.2448 58.172,-41.8384"/>
<g id="a_edge2&#45;headlabel"><a xlink:href="dir_000005_000022.html" target="_top" xlink:title="3">
<text text-anchor="middle" x="62.6408" y="-40.3442" font-family="Helvetica,sans-Serif" font-size="10.00" fill="#000000">3</text>
</a>
</g>
</g>
<!-- dir_b8f7637664a38e012eb6b40bd154637c&#45;&gt;dir_23ec12649285f9fabf3a6b7380226c28 -->
<g id="edge3" class="edge">
<title>dir_b8f7637664a38e012eb6b40bd154637c&#45;&gt;dir_23ec12649285f9fabf3a6b7380226c28</title>
<path fill="none" stroke="#000000" d="M25.0476,-71.8314C24.2972,-64.131 24.0763,-54.9743 24.3849,-46.4166"/>
<polygon fill="#000000" stroke="#000000" points="27.8792,-46.6161 25.024,-36.4133 20.8935,-46.1697 27.8792,-46.6161"/>
<g id="a_edge3&#45;headlabel"><a xlink:href="dir_000002_000022.html" target="_top" xlink:title="4">
<text text-anchor="middle" x="30.4836" y="-47.8844" font-family="Helvetica,sans-Serif" font-size="10.00" fill="#000000">4</text>
</a>
</g>
</g>
<!-- dir_23ec12649285f9fabf3a6b7380226c28&#45;&gt;dir_b8f7637664a38e012eb6b40bd154637c -->
<g id="edge4" class="edge">
<title>dir_23ec12649285f9fabf3a6b7380226c28&#45;&gt;dir_b8f7637664a38e012eb6b40bd154637c</title>
<path fill="none" stroke="#000000" d="M36.976,-36.4133C37.7071,-44.0593 37.9203,-53.1084 37.6155,-61.5726"/>
<polygon fill="#000000" stroke="#000000" points="34.1048,-61.6264 36.9524,-71.8314 41.0902,-62.078 34.1048,-61.6264"/>
<g id="a_edge4&#45;headlabel"><a xlink:href="dir_000022_000002.html" target="_top" xlink:title="2">
<text text-anchor="middle" x="31.5032" y="-55.3562" font-family="Helvetica,sans-Serif" font-size="10.00" fill="#000000">2</text>
</a>
</g>
</g>
</g>
</svg>
