<?xml version="1.0" encoding="UTF-8" standalone="no"?>
<!DOCTYPE svg PUBLIC "-//W3C//DTD SVG 1.1//EN"
 "http://www.w3.org/Graphics/SVG/1.1/DTD/svg11.dtd">
<!-- Generated by graphviz version 2.40.1 (20161225.0304)
 -->
<!-- Title: plugins/datamodel/promela Pages: 1 -->
<svg width="182pt" height="303pt"
 viewBox="0.00 0.00 182.00 303.00" xmlns="http://www.w3.org/2000/svg" xmlns:xlink="http://www.w3.org/1999/xlink">
<g id="graph0" class="graph" transform="scale(1 1) rotate(0) translate(4 299)">
<title>plugins/datamodel/promela</title>
<polygon fill="#ffffff" stroke="transparent" points="-4,4 -4,-299 178,-299 178,4 -4,4"/>
<g id="clust1" class="cluster">
<title>clusterdir_7cfdd7134d700922c16c1342750b4180</title>
<g id="a_clust1"><a xlink:href="dir_7cfdd7134d700922c16c1342750b4180.html" target="_top" xlink:title="datamodel">
<polygon fill="#ddddee" stroke="#000000" points="8,-200 8,-287 166,-287 166,-200 8,-200"/>
<text text-anchor="middle" x="87" y="-275" font-family="Helvetica,sans-Serif" font-size="10.00" fill="#000000">datamodel</text>
</a>
</g>
</g>
<g id="clust2" class="cluster">
<title>clusterdir_672dcfd9277f9ad29030da9749b32c8e</title>
<g id="a_clust2"><a xlink:href="dir_672dcfd9277f9ad29030da9749b32c8e.html" target="_top">
<polygon fill="#eeeeff" stroke="#000000" points="16,-208 16,-260 158,-260 158,-208 16,-208"/>
</a>
</g>
</g>
<!-- dir_672dcfd9277f9ad29030da9749b32c8e -->
<g id="node1" class="node">
<title>dir_672dcfd9277f9ad29030da9749b32c8e</title>
<text text-anchor="middle" x="51" y="-231.5" font-family="Helvetica,sans-Serif" font-size="10.00" fill="#000000">promela</text>
</g>
<!-- dir_b8f7637664a38e012eb6b40bd154637c -->
<g id="node3" class="node">
<title>dir_b8f7637664a38e012eb6b40bd154637c</title>
<g id="a_node3"><a xlink:href="dir_b8f7637664a38e012eb6b40bd154637c.html" target="_top" xlink:title="messages">
<polygon fill="none" stroke="#000000" points="95,-180 33,-180 33,-144 95,-144 95,-180"/>
<text text-anchor="middle" x="64" y="-159.5" font-family="Helvetica,sans-Serif" font-size="10.00" fill="#000000">messages</text>
</a>
</g>
</g>
<!-- dir_672dcfd9277f9ad29030da9749b32c8e&#45;&gt;dir_b8f7637664a38e012eb6b40bd154637c -->
<g id="edge5" class="edge">
<title>dir_672dcfd9277f9ad29030da9749b32c8e&#45;&gt;dir_b8f7637664a38e012eb6b40bd154637c</title>
<path fill="none" stroke="#000000" d="M54.2804,-215.8314C55.6708,-208.131 57.3241,-198.9743 58.8692,-190.4166"/>
<polygon fill="#000000" stroke="#000000" points="62.3428,-190.8761 60.6754,-180.4133 55.4542,-189.6322 62.3428,-190.8761"/>
<g id="a_edge5&#45;headlabel"><a xlink:href="dir_000011_000002.html" target="_top" xlink:title="2">
<text text-anchor="middle" x="64.4983" y="-192.4179" font-family="Helvetica,sans-Serif" font-size="10.00" fill="#000000">2</text>
</a>
</g>
</g>
<!-- dir_f2c8af9107d7604b778bd4ea9fe0debe -->
<g id="node5" class="node">
<title>dir_f2c8af9107d7604b778bd4ea9fe0debe</title>
<g id="a_node5"><a xlink:href="dir_f2c8af9107d7604b778bd4ea9fe0debe.html" target="_top" xlink:title="interpreter">
<polygon fill="none" stroke="#000000" points="86,-36 24,-36 24,0 86,0 86,-36"/>
<text text-anchor="middle" x="55" y="-15.5" font-family="Helvetica,sans-Serif" font-size="10.00" fill="#000000">interpreter</text>
</a>
</g>
</g>
<!-- dir_672dcfd9277f9ad29030da9749b32c8e&#45;&gt;dir_f2c8af9107d7604b778bd4ea9fe0debe -->
<g id="edge6" class="edge">
<title>dir_672dcfd9277f9ad29030da9749b32c8e&#45;&gt;dir_f2c8af9107d7604b778bd4ea9fe0debe</title>
<path fill="none" stroke="#000000" d="M39.2492,-215.8241C33.4142,-205.7142 26.9861,-192.6495 24,-180 12.9102,-133.0228 29.8646,-77.6741 42.74,-45.3453"/>
<polygon fill="#000000" stroke="#000000" points="45.9819,-46.6646 46.5693,-36.0861 39.5132,-43.9894 45.9819,-46.6646"/>
<g id="a_edge6&#45;headlabel"><a xlink:href="dir_000011_000001.html" target="_top" xlink:title="2">
<text text-anchor="middle" x="47.2319" y="-48.5714" font-family="Helvetica,sans-Serif" font-size="10.00" fill="#000000">2</text>
</a>
</g>
</g>
<!-- dir_e6a6070638770f4ca71667876e845f16 -->
<g id="node2" class="node">
<title>dir_e6a6070638770f4ca71667876e845f16</title>
<g id="a_node2"><a xlink:href="dir_e6a6070638770f4ca71667876e845f16.html" target="_top" xlink:title="parser">
<polygon fill="#ffffff" stroke="#000000" points="150,-252 96,-252 96,-216 150,-216 150,-252"/>
<text text-anchor="middle" x="123" y="-231.5" font-family="Helvetica,sans-Serif" font-size="10.00" fill="#000000">parser</text>
</a>
</g>
</g>
<!-- dir_23ec12649285f9fabf3a6b7380226c28 -->
<g id="node4" class="node">
<title>dir_23ec12649285f9fabf3a6b7380226c28</title>
<g id="a_node4"><a xlink:href="dir_23ec12649285f9fabf3a6b7380226c28.html" target="_top" xlink:title="util">
<polygon fill="none" stroke="#000000" points="146,-108 92,-108 92,-72 146,-72 146,-108"/>
<text text-anchor="middle" x="119" y="-87.5" font-family="Helvetica,sans-Serif" font-size="10.00" fill="#000000">util</text>
</a>
</g>
</g>
<!-- dir_e6a6070638770f4ca71667876e845f16&#45;&gt;dir_23ec12649285f9fabf3a6b7380226c28 -->
<g id="edge7" class="edge">
<title>dir_e6a6070638770f4ca71667876e845f16&#45;&gt;dir_23ec12649285f9fabf3a6b7380226c28</title>
<path fill="none" stroke="#000000" d="M122.4934,-215.7623C121.8111,-191.201 120.5902,-147.2474 119.7876,-118.3541"/>
<polygon fill="#000000" stroke="#000000" points="123.2789,-117.9885 119.5025,-108.0896 116.2816,-118.183 123.2789,-117.9885"/>
<g id="a_edge7&#45;headlabel"><a xlink:href="dir_000012_000022.html" target="_top" xlink:title="1">
<text text-anchor="middle" x="126.2168" y="-119.003" font-family="Helvetica,sans-Serif" font-size="10.00" fill="#000000">1</text>
</a>
</g>
</g>
<!-- dir_b8f7637664a38e012eb6b40bd154637c&#45;&gt;dir_23ec12649285f9fabf3a6b7380226c28 -->
<g id="edge1" class="edge">
<title>dir_b8f7637664a38e012eb6b40bd154637c&#45;&gt;dir_23ec12649285f9fabf3a6b7380226c28</title>
<path fill="none" stroke="#000000" d="M71.9264,-143.8314C77.5094,-135.454 85.0357,-125.3531 92.4838,-116.1749"/>
<polygon fill="#000000" stroke="#000000" points="95.2404,-118.3344 98.9583,-108.4133 89.865,-113.8504 95.2404,-118.3344"/>
<g id="a_edge1&#45;headlabel"><a xlink:href="dir_000002_000022.html" target="_top" xlink:title="4">
<text text-anchor="middle" x="95.1181" y="-120.4134" font-family="Helvetica,sans-Serif" font-size="10.00" fill="#000000">4</text>
</a>
</g>
</g>
<!-- dir_b8f7637664a38e012eb6b40bd154637c&#45;&gt;dir_f2c8af9107d7604b778bd4ea9fe0debe -->
<g id="edge2" class="edge">
<title>dir_b8f7637664a38e012eb6b40bd154637c&#45;&gt;dir_f2c8af9107d7604b778bd4ea9fe0debe</title>
<path fill="none" stroke="#000000" d="M58.187,-143.7623C54.1921,-119.201 51.1702,-75.2474 51.2747,-46.3541"/>
<polygon fill="#000000" stroke="#000000" points="54.7791,-46.1552 51.4723,-36.0896 47.7804,-46.0204 54.7791,-46.1552"/>
<g id="a_edge2&#45;headlabel"><a xlink:href="dir_000002_000001.html" target="_top" xlink:title="1">
<text text-anchor="middle" x="57.5487" y="-47.3037" font-family="Helvetica,sans-Serif" font-size="10.00" fill="#000000">1</text>
</a>
</g>
</g>
<!-- dir_23ec12649285f9fabf3a6b7380226c28&#45;&gt;dir_b8f7637664a38e012eb6b40bd154637c -->
<g id="edge3" class="edge">
<title>dir_23ec12649285f9fabf3a6b7380226c28&#45;&gt;dir_b8f7637664a38e012eb6b40bd154637c</title>
<path fill="none" stroke="#000000" d="M110.9103,-108.4133C105.2898,-116.8239 97.7456,-126.9323 90.2991,-136.0923"/>
<polygon fill="#000000" stroke="#000000" points="87.5584,-133.9138 83.8312,-143.8314 92.9296,-138.4027 87.5584,-133.9138"/>
<g id="a_edge3&#45;headlabel"><a xlink:href="dir_000022_000002.html" target="_top" xlink:title="2">
<text text-anchor="middle" x="87.6849" y="-126.8348" font-family="Helvetica,sans-Serif" font-size="10.00" fill="#000000">2</text>
</a>
</g>
</g>
<!-- dir_23ec12649285f9fabf3a6b7380226c28&#45;&gt;dir_f2c8af9107d7604b778bd4ea9fe0debe -->
<g id="edge4" class="edge">
<title>dir_23ec12649285f9fabf3a6b7380226c28&#45;&gt;dir_f2c8af9107d7604b778bd4ea9fe0debe</title>
<path fill="none" stroke="#000000" d="M96.8977,-71.8314C88.6348,-63.454 79.4665,-53.3531 71.7452,-44.1749"/>
<polygon fill="#000000" stroke="#000000" points="74.4341,-41.9341 65.3913,-36.4133 69.0175,-46.3683 74.4341,-41.9341"/>
<g id="a_edge4&#45;headlabel"><a xlink:href="dir_000022_000001.html" target="_top" xlink:title="2">
<text text-anchor="middle" x="78.908" y="-40.4171" font-family="Helvetica,sans-Serif" font-size="10.00" fill="#000000">2</text>
</a>
</g>
</g>
<!-- dir_f2c8af9107d7604b778bd4ea9fe0debe&#45;&gt;dir_b8f7637664a38e012eb6b40bd154637c -->
<g id="edge8" class="edge">
<title>dir_f2c8af9107d7604b778bd4ea9fe0debe&#45;&gt;dir_b8f7637664a38e012eb6b40bd154637c</title>
<path fill="none" stroke="#000000" d="M60.7889,-36.0896C64.7877,-60.5727 67.8178,-104.5174 67.7259,-133.4713"/>
<polygon fill="#000000" stroke="#000000" points="64.2211,-133.6985 67.5333,-143.7623 71.2199,-133.8296 64.2211,-133.6985"/>
<g id="a_edge8&#45;headlabel"><a xlink:href="dir_000001_000002.html" target="_top" xlink:title="12">
<text text-anchor="middle" x="61.4495" y="-127.5515" font-family="Helvetica,sans-Serif" font-size="10.00" fill="#000000">12</text>
</a>
</g>
</g>
<!-- dir_f2c8af9107d7604b778bd4ea9fe0debe&#45;&gt;dir_23ec12649285f9fabf3a6b7380226c28 -->
<g id="edge9" class="edge">
<title>dir_f2c8af9107d7604b778bd4ea9fe0debe&#45;&gt;dir_23ec12649285f9fabf3a6b7380226c28</title>
<path fill="none" stroke="#000000" d="M77.3434,-36.4133C85.54,-44.7389 94.6014,-54.7282 102.2458,-63.8144"/>
<polygon fill="#000000" stroke="#000000" points="99.7623,-66.3063 108.8025,-71.8314 105.1809,-61.8747 99.7623,-66.3063"/>
<g id="a_edge9&#45;headlabel"><a xlink:href="dir_000001_000022.html" target="_top" xlink:title="14">
<text text-anchor="middle" x="95.2888" y="-62.8213" font-family="Helvetica,sans-Serif" font-size="10.00" fill="#000000">14</text>
</a>
</g>
</g>
</g>
</svg>
