<?xml version="1.0" encoding="UTF-8" standalone="no"?>
<!DOCTYPE svg PUBLIC "-//W3C//DTD SVG 1.1//EN"
 "http://www.w3.org/Graphics/SVG/1.1/DTD/svg11.dtd">
<!-- Generated by graphviz version 2.40.1 (20161225.0304)
 -->
<!-- Title: interpreter Pages: 1 -->
<svg width="157pt" height="332pt"
 viewBox="0.00 0.00 157.21 332.00" xmlns="http://www.w3.org/2000/svg" xmlns:xlink="http://www.w3.org/1999/xlink">
<g id="graph0" class="graph" transform="scale(1 1) rotate(0) translate(4 328)">
<title>interpreter</title>
<polygon fill="#ffffff" stroke="transparent" points="-4,4 -4,-328 153.2125,-328 153.2125,4 -4,4"/>
<!-- dir_f2c8af9107d7604b778bd4ea9fe0debe -->
<g id="node1" class="node">
<title>dir_f2c8af9107d7604b778bd4ea9fe0debe</title>
<g id="a_node1"><a xlink:href="dir_f2c8af9107d7604b778bd4ea9fe0debe.html" target="_top" xlink:title="interpreter">
<polygon fill="#eeeeff" stroke="#000000" points="117.2125,-324 55.2125,-324 55.2125,-288 117.2125,-288 117.2125,-324"/>
<text text-anchor="middle" x="86.2125" y="-303.5" font-family="Helvetica,sans-Serif" font-size="10.00" fill="#000000">interpreter</text>
</a>
</g>
</g>
<!-- dir_84d4ec99856759213102e4209c09c524 -->
<g id="node2" class="node">
<title>dir_84d4ec99856759213102e4209c09c524</title>
<g id="a_node2"><a xlink:href="dir_84d4ec99856759213102e4209c09c524.html" target="_top" xlink:title="debug">
<polygon fill="none" stroke="#000000" points="113.2125,-252 59.2125,-252 59.2125,-216 113.2125,-216 113.2125,-252"/>
<text text-anchor="middle" x="86.2125" y="-231.5" font-family="Helvetica,sans-Serif" font-size="10.00" fill="#000000">debug</text>
</a>
</g>
</g>
<!-- dir_f2c8af9107d7604b778bd4ea9fe0debe&#45;&gt;dir_84d4ec99856759213102e4209c09c524 -->
<g id="edge11" class="edge">
<title>dir_f2c8af9107d7604b778bd4ea9fe0debe&#45;&gt;dir_84d4ec99856759213102e4209c09c524</title>
<path fill="none" stroke="#000000" d="M80.2601,-287.8314C79.5097,-280.131 79.2888,-270.9743 79.5974,-262.4166"/>
<polygon fill="#000000" stroke="#000000" points="83.0917,-262.6161 80.2365,-252.4133 76.106,-262.1697 83.0917,-262.6161"/>
<g id="a_edge11&#45;headlabel"><a xlink:href="dir_000001_000000.html" target="_top" xlink:title="1">
<text text-anchor="middle" x="85.6962" y="-263.8844" font-family="Helvetica,sans-Serif" font-size="10.00" fill="#000000">1</text>
</a>
</g>
</g>
<!-- dir_b8f7637664a38e012eb6b40bd154637c -->
<g id="node3" class="node">
<title>dir_b8f7637664a38e012eb6b40bd154637c</title>
<g id="a_node3"><a xlink:href="dir_b8f7637664a38e012eb6b40bd154637c.html" target="_top" xlink:title="messages">
<polygon fill="none" stroke="#000000" points="149.2125,-108 87.2125,-108 87.2125,-72 149.2125,-72 149.2125,-108"/>
<text text-anchor="middle" x="118.2125" y="-87.5" font-family="Helvetica,sans-Serif" font-size="10.00" fill="#000000">messages</text>
</a>
</g>
</g>
<!-- dir_f2c8af9107d7604b778bd4ea9fe0debe&#45;&gt;dir_b8f7637664a38e012eb6b40bd154637c -->
<g id="edge12" class="edge">
<title>dir_f2c8af9107d7604b778bd4ea9fe0debe&#45;&gt;dir_b8f7637664a38e012eb6b40bd154637c</title>
<path fill="none" stroke="#000000" d="M94.1771,-287.9169C100.8664,-278.0371 109.2291,-265.1563 113.2125,-252 126.8364,-207.0034 120.9693,-151.722 117.7556,-118.7564"/>
<polygon fill="#000000" stroke="#000000" points="121.2109,-118.1122 116.7995,-108.4794 114.241,-118.7607 121.2109,-118.1122"/>
<g id="a_edge12&#45;headlabel"><a xlink:href="dir_000001_000002.html" target="_top" xlink:title="12">
<text text-anchor="middle" x="124.3708" y="-118.9283" font-family="Helvetica,sans-Serif" font-size="10.00" fill="#000000">12</text>
</a>
</g>
</g>
<!-- dir_23ec12649285f9fabf3a6b7380226c28 -->
<g id="node4" class="node">
<title>dir_23ec12649285f9fabf3a6b7380226c28</title>
<g id="a_node4"><a xlink:href="dir_23ec12649285f9fabf3a6b7380226c28.html" target="_top" xlink:title="util">
<polygon fill="none" stroke="#000000" points="58.2125,-36 4.2125,-36 4.2125,0 58.2125,0 58.2125,-36"/>
<text text-anchor="middle" x="31.2125" y="-15.5" font-family="Helvetica,sans-Serif" font-size="10.00" fill="#000000">util</text>
</a>
</g>
</g>
<!-- dir_f2c8af9107d7604b778bd4ea9fe0debe&#45;&gt;dir_23ec12649285f9fabf3a6b7380226c28 -->
<g id="edge13" class="edge">
<title>dir_f2c8af9107d7604b778bd4ea9fe0debe&#45;&gt;dir_23ec12649285f9fabf3a6b7380226c28</title>
<path fill="none" stroke="#000000" d="M61.0376,-287.5942C51.4438,-277.626 41.3438,-264.7637 34.2125,-252 17.6181,-222.2989 14.7746,-213.3837 8.2125,-180 -1.049,-132.8831 -2.0818,-119.4613 5.2125,-72 6.5646,-63.2023 9.0876,-53.8712 12.1822,-45.4852"/>
<polygon fill="#000000" stroke="#000000" points="15.4501,-46.7417 16.0418,-36.1634 8.9825,-44.0639 15.4501,-46.7417"/>
<g id="a_edge13&#45;headlabel"><a xlink:href="dir_000001_000022.html" target="_top" xlink:title="14">
<text text-anchor="middle" x="16.6984" y="-48.649" font-family="Helvetica,sans-Serif" font-size="10.00" fill="#000000">14</text>
</a>
</g>
</g>
<!-- dir_38c8d24aef3972a7f87b834274e76e31 -->
<g id="node5" class="node">
<title>dir_38c8d24aef3972a7f87b834274e76e31</title>
<g id="a_node5"><a xlink:href="dir_38c8d24aef3972a7f87b834274e76e31.html" target="_top" xlink:title="plugins">
<polygon fill="#ffffff" stroke="#ff0000" points="94.2125,-180 40.2125,-180 40.2125,-144 94.2125,-144 94.2125,-180"/>
<text text-anchor="middle" x="67.2125" y="-159.5" font-family="Helvetica,sans-Serif" font-size="10.00" fill="#000000">plugins</text>
</a>
</g>
</g>
<!-- dir_f2c8af9107d7604b778bd4ea9fe0debe&#45;&gt;dir_38c8d24aef3972a7f87b834274e76e31 -->
<g id="edge14" class="edge">
<title>dir_f2c8af9107d7604b778bd4ea9fe0debe&#45;&gt;dir_38c8d24aef3972a7f87b834274e76e31</title>
<path fill="none" stroke="#000000" d="M70.222,-287.9169C62.5587,-278.0371 54.196,-265.1563 50.2125,-252 44.0206,-231.5495 49.0129,-207.771 55.1541,-189.7928"/>
<polygon fill="#000000" stroke="#000000" points="58.5151,-190.7965 58.7233,-180.2037 51.9548,-188.3547 58.5151,-190.7965"/>
<g id="a_edge14&#45;headlabel"><a xlink:href="dir_000001_000003.html" target="_top" xlink:title="5">
<text text-anchor="middle" x="59.9222" y="-192.6557" font-family="Helvetica,sans-Serif" font-size="10.00" fill="#000000">5</text>
</a>
</g>
</g>
<!-- dir_84d4ec99856759213102e4209c09c524&#45;&gt;dir_f2c8af9107d7604b778bd4ea9fe0debe -->
<g id="edge4" class="edge">
<title>dir_84d4ec99856759213102e4209c09c524&#45;&gt;dir_f2c8af9107d7604b778bd4ea9fe0debe</title>
<path fill="none" stroke="#000000" d="M92.1885,-252.4133C92.9196,-260.0593 93.1328,-269.1084 92.828,-277.5726"/>
<polygon fill="#000000" stroke="#000000" points="89.3173,-277.6264 92.1649,-287.8314 96.3027,-278.078 89.3173,-277.6264"/>
<g id="a_edge4&#45;headlabel"><a xlink:href="dir_000000_000001.html" target="_top" xlink:title="5">
<text text-anchor="middle" x="86.7157" y="-271.3562" font-family="Helvetica,sans-Serif" font-size="10.00" fill="#000000">5</text>
</a>
</g>
</g>
<!-- dir_84d4ec99856759213102e4209c09c524&#45;&gt;dir_b8f7637664a38e012eb6b40bd154637c -->
<g id="edge1" class="edge">
<title>dir_84d4ec99856759213102e4209c09c524&#45;&gt;dir_b8f7637664a38e012eb6b40bd154637c</title>
<path fill="none" stroke="#000000" d="M92.6803,-215.6843C96.1649,-205.313 100.3281,-192.0434 103.2125,-180 108.1241,-159.4923 111.9838,-135.9755 114.5573,-118.125"/>
<polygon fill="#000000" stroke="#000000" points="118.0436,-118.4655 115.9568,-108.0783 111.1105,-117.4997 118.0436,-118.4655"/>
<g id="a_edge1&#45;headlabel"><a xlink:href="dir_000000_000002.html" target="_top" xlink:title="3">
<text text-anchor="middle" x="120.3599" y="-119.9175" font-family="Helvetica,sans-Serif" font-size="10.00" fill="#000000">3</text>
</a>
</g>
</g>
<!-- dir_84d4ec99856759213102e4209c09c524&#45;&gt;dir_23ec12649285f9fabf3a6b7380226c28 -->
<g id="edge2" class="edge">
<title>dir_84d4ec99856759213102e4209c09c524&#45;&gt;dir_23ec12649285f9fabf3a6b7380226c28</title>
<path fill="none" stroke="#000000" d="M59.9563,-215.8151C48.8703,-206.5285 37.1667,-194.1902 31.2125,-180 12.8013,-136.1216 18.7259,-79.4824 24.8611,-46.1148"/>
<polygon fill="#000000" stroke="#000000" points="28.3263,-46.6332 26.8299,-36.1446 21.4589,-45.2771 28.3263,-46.6332"/>
<g id="a_edge2&#45;headlabel"><a xlink:href="dir_000000_000022.html" target="_top" xlink:title="10">
<text text-anchor="middle" x="30.4155" y="-48.2098" font-family="Helvetica,sans-Serif" font-size="10.00" fill="#000000">10</text>
</a>
</g>
</g>
<!-- dir_84d4ec99856759213102e4209c09c524&#45;&gt;dir_38c8d24aef3972a7f87b834274e76e31 -->
<g id="edge3" class="edge">
<title>dir_84d4ec99856759213102e4209c09c524&#45;&gt;dir_38c8d24aef3972a7f87b834274e76e31</title>
<path fill="none" stroke="#000000" d="M81.418,-215.8314C79.3636,-208.0463 76.9165,-198.7729 74.637,-190.1347"/>
<polygon fill="#000000" stroke="#000000" points="78.0074,-189.1892 72.0716,-180.4133 71.2391,-190.9753 78.0074,-189.1892"/>
<g id="a_edge3&#45;headlabel"><a xlink:href="dir_000000_000003.html" target="_top" xlink:title="1">
<text text-anchor="middle" x="81.6698" y="-189.4404" font-family="Helvetica,sans-Serif" font-size="10.00" fill="#000000">1</text>
</a>
</g>
</g>
<!-- dir_b8f7637664a38e012eb6b40bd154637c&#45;&gt;dir_f2c8af9107d7604b778bd4ea9fe0debe -->
<g id="edge6" class="edge">
<title>dir_b8f7637664a38e012eb6b40bd154637c&#45;&gt;dir_f2c8af9107d7604b778bd4ea9fe0debe</title>
<path fill="none" stroke="#000000" d="M127.8956,-108.4794C137.3937,-139.0921 146.3765,-201.9169 131.2125,-252 128.225,-261.8673 122.774,-271.5795 116.5914,-279.987"/>
<polygon fill="#000000" stroke="#000000" points="113.757,-277.9268 110.2289,-287.9169 119.2169,-282.3074 113.757,-277.9268"/>
<g id="a_edge6&#45;headlabel"><a xlink:href="dir_000002_000001.html" target="_top" xlink:title="1">
<text text-anchor="middle" x="113.7919" y="-270.8463" font-family="Helvetica,sans-Serif" font-size="10.00" fill="#000000">1</text>
</a>
</g>
</g>
<!-- dir_b8f7637664a38e012eb6b40bd154637c&#45;&gt;dir_23ec12649285f9fabf3a6b7380226c28 -->
<g id="edge5" class="edge">
<title>dir_b8f7637664a38e012eb6b40bd154637c&#45;&gt;dir_23ec12649285f9fabf3a6b7380226c28</title>
<path fill="none" stroke="#000000" d="M90.3064,-71.8314C78.8378,-63.0485 65.769,-52.3712 54.7847,-42.8489"/>
<polygon fill="#000000" stroke="#000000" points="57.0215,-40.1548 47.2075,-36.1628 52.39,-45.4036 57.0215,-40.1548"/>
<g id="a_edge5&#45;headlabel"><a xlink:href="dir_000002_000022.html" target="_top" xlink:title="4">
<text text-anchor="middle" x="61.5953" y="-37.9041" font-family="Helvetica,sans-Serif" font-size="10.00" fill="#000000">4</text>
</a>
</g>
</g>
<!-- dir_23ec12649285f9fabf3a6b7380226c28&#45;&gt;dir_f2c8af9107d7604b778bd4ea9fe0debe -->
<g id="edge8" class="edge">
<title>dir_23ec12649285f9fabf3a6b7380226c28&#45;&gt;dir_f2c8af9107d7604b778bd4ea9fe0debe</title>
<path fill="none" stroke="#000000" d="M31.8956,-36.1634C29.2414,-46.487 25.0937,-59.7597 23.2125,-72 15.9182,-119.4613 16.951,-132.8831 26.2125,-180 32.7746,-213.3837 35.6181,-222.2989 52.2125,-252 57.561,-261.5727 64.5794,-271.201 70.9798,-279.6221"/>
<polygon fill="#000000" stroke="#000000" points="68.2285,-281.7861 77.0894,-287.5942 73.7845,-277.528 68.2285,-281.7861"/>
<g id="a_edge8&#45;headlabel"><a xlink:href="dir_000022_000001.html" target="_top" xlink:title="2">
<text text-anchor="middle" x="63.7884" y="-278.1601" font-family="Helvetica,sans-Serif" font-size="10.00" fill="#000000">2</text>
</a>
</g>
</g>
<!-- dir_23ec12649285f9fabf3a6b7380226c28&#45;&gt;dir_b8f7637664a38e012eb6b40bd154637c -->
<g id="edge7" class="edge">
<title>dir_23ec12649285f9fabf3a6b7380226c28&#45;&gt;dir_b8f7637664a38e012eb6b40bd154637c</title>
<path fill="none" stroke="#000000" d="M58.4601,-35.665C70.0401,-44.507 83.3423,-55.3621 94.5109,-65.0389"/>
<polygon fill="#000000" stroke="#000000" points="92.3965,-67.8409 102.2112,-71.8314 97.0271,-62.5914 92.3965,-67.8409"/>
<g id="a_edge7&#45;headlabel"><a xlink:href="dir_000022_000002.html" target="_top" xlink:title="2">
<text text-anchor="middle" x="87.8226" y="-65.0923" font-family="Helvetica,sans-Serif" font-size="10.00" fill="#000000">2</text>
</a>
</g>
</g>
<!-- dir_38c8d24aef3972a7f87b834274e76e31&#45;&gt;dir_b8f7637664a38e012eb6b40bd154637c -->
<g id="edge9" class="edge">
<title>dir_38c8d24aef3972a7f87b834274e76e31&#45;&gt;dir_b8f7637664a38e012eb6b40bd154637c</title>
<path fill="none" stroke="#000000" d="M80.082,-143.8314C85.8961,-135.6232 92.8821,-125.7606 99.2772,-116.7323"/>
<polygon fill="#000000" stroke="#000000" points="102.2457,-118.5966 105.1698,-108.4133 96.5335,-114.5505 102.2457,-118.5966"/>
<g id="a_edge9&#45;headlabel"><a xlink:href="dir_000003_000002.html" target="_top" xlink:title="15">
<text text-anchor="middle" x="102.4849" y="-120.671" font-family="Helvetica,sans-Serif" font-size="10.00" fill="#000000">15</text>
</a>
</g>
</g>
<!-- dir_38c8d24aef3972a7f87b834274e76e31&#45;&gt;dir_23ec12649285f9fabf3a6b7380226c28 -->
<g id="edge10" class="edge">
<title>dir_38c8d24aef3972a7f87b834274e76e31&#45;&gt;dir_23ec12649285f9fabf3a6b7380226c28</title>
<path fill="none" stroke="#000000" d="M62.6531,-143.7623C56.4857,-119.0928 45.4275,-74.8598 38.2058,-45.9731"/>
<polygon fill="#000000" stroke="#000000" points="41.5559,-44.9421 35.7349,-36.0896 34.7649,-46.6399 41.5559,-44.9421"/>
<g id="a_edge10&#45;headlabel"><a xlink:href="dir_000003_000022.html" target="_top" xlink:title="24">
<text text-anchor="middle" x="45.1821" y="-45.2408" font-family="Helvetica,sans-Serif" font-size="10.00" fill="#000000">24</text>
</a>
</g>
</g>
</g>
</svg>
