<?xml version="1.0" encoding="UTF-8" standalone="no"?>
<!DOCTYPE svg PUBLIC "-//W3C//DTD SVG 1.1//EN"
 "http://www.w3.org/Graphics/SVG/1.1/DTD/svg11.dtd">
<!-- Generated by graphviz version 2.38.0 (20140413.2041)
 -->
<!-- Title: transform Pages: 1 -->
<svg width="99pt" height="188pt"
 viewBox="0.00 0.00 98.50 188.00" xmlns="http://www.w3.org/2000/svg" xmlns:xlink="http://www.w3.org/1999/xlink">
<g id="graph0" class="graph" transform="scale(1 1) rotate(0) translate(4 184)">
<title>transform</title>
<polygon fill="white" stroke="none" points="-4,4 -4,-184 94.5,-184 94.5,4 -4,4"/>
<!-- dir_67f27d7ccdb63301c384d2b28b535a47 -->
<g id="node1" class="node"><title>dir_67f27d7ccdb63301c384d2b28b535a47</title>
<g id="a_node1"><a xlink:href="dir_67f27d7ccdb63301c384d2b28b535a47.html" target="_top" xlink:title="transform">
<polygon fill="#eeeeff" stroke="black" points="59,-180 0,-180 0,-144 59,-144 59,-180"/>
<text text-anchor="middle" x="29.5" y="-159.5" font-family="Helvetica,sans-Serif" font-size="10.00">transform</text>
</a>
</g>
</g>
<!-- dir_23ec12649285f9fabf3a6b7380226c28 -->
<g id="node2" class="node"><title>dir_23ec12649285f9fabf3a6b7380226c28</title>
<g id="a_node2"><a xlink:href="dir_23ec12649285f9fabf3a6b7380226c28.html" target="_top" xlink:title="util">
<polygon fill="none" stroke="black" points="56.5,-36 2.5,-36 2.5,-0 56.5,-0 56.5,-36"/>
<text text-anchor="middle" x="29.5" y="-15.5" font-family="Helvetica,sans-Serif" font-size="10.00">util</text>
</a>
</g>
</g>
<!-- dir_67f27d7ccdb63301c384d2b28b535a47&#45;&gt;dir_23ec12649285f9fabf3a6b7380226c28 -->
<g id="edge2" class="edge"><title>dir_67f27d7ccdb63301c384d2b28b535a47&#45;&gt;dir_23ec12649285f9fabf3a6b7380226c28</title>
<path fill="none" stroke="black" d="M25.4409,-143.929C23.1944,-133.598 20.6334,-120.12 19.5,-108 18.0103,-92.0695 18.0103,-87.9305 19.5,-72 20.2969,-63.4781 21.7996,-54.2849 23.4025,-45.9862"/>
<polygon fill="black" stroke="black" points="26.8555,-46.5708 25.4409,-36.0708 19.9989,-45.1612 26.8555,-46.5708"/>
<g id="a_edge2&#45;headlabel"><a xlink:href="dir_000016_000017.html" target="_top" xlink:title="7">
<text text-anchor="middle" x="28.9129" y="-48.1635" font-family="Helvetica,sans-Serif" font-size="10.00">7</text>
</a>
</g>
</g>
<!-- dir_f2c8af9107d7604b778bd4ea9fe0debe -->
<g id="node3" class="node"><title>dir_f2c8af9107d7604b778bd4ea9fe0debe</title>
<g id="a_node3"><a xlink:href="dir_f2c8af9107d7604b778bd4ea9fe0debe.html" target="_top" xlink:title="interpreter">
<polygon fill="none" stroke="black" points="90.5,-108 28.5,-108 28.5,-72 90.5,-72 90.5,-108"/>
<text text-anchor="middle" x="59.5" y="-87.5" font-family="Helvetica,sans-Serif" font-size="10.00">interpreter</text>
</a>
</g>
</g>
<!-- dir_67f27d7ccdb63301c384d2b28b535a47&#45;&gt;dir_f2c8af9107d7604b778bd4ea9fe0debe -->
<g id="edge3" class="edge"><title>dir_67f27d7ccdb63301c384d2b28b535a47&#45;&gt;dir_f2c8af9107d7604b778bd4ea9fe0debe</title>
<path fill="none" stroke="black" d="M36.9157,-143.697C40.2944,-135.813 44.3696,-126.304 48.123,-117.546"/>
<polygon fill="black" stroke="black" points="51.4473,-118.675 52.1696,-108.104 45.0133,-115.917 51.4473,-118.675"/>
<g id="a_edge3&#45;headlabel"><a xlink:href="dir_000016_000001.html" target="_top" xlink:title="1">
<text text-anchor="middle" x="52.6411" y="-120.597" font-family="Helvetica,sans-Serif" font-size="10.00">1</text>
</a>
</g>
</g>
<!-- dir_f2c8af9107d7604b778bd4ea9fe0debe&#45;&gt;dir_23ec12649285f9fabf3a6b7380226c28 -->
<g id="edge1" class="edge"><title>dir_f2c8af9107d7604b778bd4ea9fe0debe&#45;&gt;dir_23ec12649285f9fabf3a6b7380226c28</title>
<path fill="none" stroke="black" d="M52.0843,-71.6966C48.7056,-63.8132 44.6304,-54.3042 40.877,-45.5464"/>
<polygon fill="black" stroke="black" points="43.9867,-43.9171 36.8304,-36.1043 37.5527,-46.6745 43.9867,-43.9171"/>
<g id="a_edge1&#45;headlabel"><a xlink:href="dir_000001_000017.html" target="_top" xlink:title="15">
<text text-anchor="middle" x="48.0123" y="-43.6026" font-family="Helvetica,sans-Serif" font-size="10.00">15</text>
</a>
</g>
</g>
</g>
</svg>
