<?xml version="1.0" encoding="UTF-8" standalone="no"?>
<!DOCTYPE svg PUBLIC "-//W3C//DTD SVG 1.1//EN"
 "http://www.w3.org/Graphics/SVG/1.1/DTD/svg11.dtd">
<!-- Generated by graphviz version 2.40.1 (20161225.0304)
 -->
<!-- Title: plugins/datamodel Pages: 1 -->
<svg width="492pt" height="303pt"
 viewBox="0.00 0.00 492.00 303.00" xmlns="http://www.w3.org/2000/svg" xmlns:xlink="http://www.w3.org/1999/xlink">
<g id="graph0" class="graph" transform="scale(1 1) rotate(0) translate(4 299)">
<title>plugins/datamodel</title>
<polygon fill="#ffffff" stroke="transparent" points="-4,4 -4,-299 488,-299 488,4 -4,4"/>
<g id="clust1" class="cluster">
<title>clusterdir_2cd592331b95683ae50c1625a7a0233f</title>
<g id="a_clust1"><a xlink:href="dir_2cd592331b95683ae50c1625a7a0233f.html" target="_top" xlink:title="plugins">
<polygon fill="#ddddee" stroke="#000000" points="8,-200 8,-287 476,-287 476,-200 8,-200"/>
<text text-anchor="middle" x="242" y="-275" font-family="Helvetica,sans-Serif" font-size="10.00" fill="#000000">plugins</text>
</a>
</g>
</g>
<g id="clust2" class="cluster">
<title>clusterdir_752b259a3f32424381c44f18ca58e729</title>
<g id="a_clust2"><a xlink:href="dir_752b259a3f32424381c44f18ca58e729.html" target="_top">
<polygon fill="#eeeeff" stroke="#000000" points="16,-208 16,-260 468,-260 468,-208 16,-208"/>
</a>
</g>
</g>
<!-- dir_752b259a3f32424381c44f18ca58e729 -->
<g id="node1" class="node">
<title>dir_752b259a3f32424381c44f18ca58e729</title>
<text text-anchor="middle" x="428" y="-231.5" font-family="Helvetica,sans-Serif" font-size="10.00" fill="#000000">datamodel</text>
</g>
<!-- dir_cb769a20e264fee9476abf9703663eff -->
<g id="node2" class="node">
<title>dir_cb769a20e264fee9476abf9703663eff</title>
<g id="a_node2"><a xlink:href="dir_cb769a20e264fee9476abf9703663eff.html" target="_top" xlink:title="c89">
<polygon fill="#ffffff" stroke="#000000" points="234,-252 180,-252 180,-216 234,-216 234,-252"/>
<text text-anchor="middle" x="207" y="-231.5" font-family="Helvetica,sans-Serif" font-size="10.00" fill="#000000">c89</text>
</a>
</g>
</g>
<!-- dir_a186d0848b97a60ade3edd5ad8e78038 -->
<g id="node7" class="node">
<title>dir_a186d0848b97a60ade3edd5ad8e78038</title>
<g id="a_node7"><a xlink:href="dir_a186d0848b97a60ade3edd5ad8e78038.html" target="_top" xlink:title="messages">
<polygon fill="none" stroke="#000000" points="239,-180 177,-180 177,-144 239,-144 239,-180"/>
<text text-anchor="middle" x="208" y="-159.5" font-family="Helvetica,sans-Serif" font-size="10.00" fill="#000000">messages</text>
</a>
</g>
</g>
<!-- dir_cb769a20e264fee9476abf9703663eff&#45;&gt;dir_a186d0848b97a60ade3edd5ad8e78038 -->
<g id="edge6" class="edge">
<title>dir_cb769a20e264fee9476abf9703663eff&#45;&gt;dir_a186d0848b97a60ade3edd5ad8e78038</title>
<path fill="none" stroke="#000000" d="M207.2523,-215.8314C207.3593,-208.131 207.4865,-198.9743 207.6053,-190.4166"/>
<polygon fill="#000000" stroke="#000000" points="211.1049,-190.4609 207.7443,-180.4133 204.1056,-190.3637 211.1049,-190.4609"/>
<g id="a_edge6&#45;headlabel"><a xlink:href="dir_000007_000004.html" target="_top" xlink:title="1">
<text text-anchor="middle" x="213.8941" y="-191.5946" font-family="Helvetica,sans-Serif" font-size="10.00" fill="#000000">1</text>
</a>
</g>
</g>
<!-- dir_92105864f9e085ad080aaeef739227b1 -->
<g id="node9" class="node">
<title>dir_92105864f9e085ad080aaeef739227b1</title>
<g id="a_node9"><a xlink:href="dir_92105864f9e085ad080aaeef739227b1.html" target="_top" xlink:title="util">
<polygon fill="none" stroke="#000000" points="241,-36 187,-36 187,0 241,0 241,-36"/>
<text text-anchor="middle" x="214" y="-15.5" font-family="Helvetica,sans-Serif" font-size="10.00" fill="#000000">util</text>
</a>
</g>
</g>
<!-- dir_cb769a20e264fee9476abf9703663eff&#45;&gt;dir_92105864f9e085ad080aaeef739227b1 -->
<g id="edge7" class="edge">
<title>dir_cb769a20e264fee9476abf9703663eff&#45;&gt;dir_92105864f9e085ad080aaeef739227b1</title>
<path fill="none" stroke="#000000" d="M189.2892,-215.6517C181.1058,-205.8946 172.2696,-193.2041 168,-180 152.772,-132.906 177.7998,-77.2548 196.5015,-44.9581"/>
<polygon fill="#000000" stroke="#000000" points="199.668,-46.4832 201.81,-36.1072 193.6649,-42.8827 199.668,-46.4832"/>
<g id="a_edge7&#45;headlabel"><a xlink:href="dir_000007_000024.html" target="_top" xlink:title="3">
<text text-anchor="middle" x="200.254" y="-48.5263" font-family="Helvetica,sans-Serif" font-size="10.00" fill="#000000">3</text>
</a>
</g>
</g>
<!-- dir_b923498ad1fed22c29700e166fe292a2 -->
<g id="node3" class="node">
<title>dir_b923498ad1fed22c29700e166fe292a2</title>
<g id="a_node3"><a xlink:href="dir_b923498ad1fed22c29700e166fe292a2.html" target="_top" xlink:title="ecmascript">
<polygon fill="#ffffff" stroke="#ff0000" points="89.5,-252 24.5,-252 24.5,-216 89.5,-216 89.5,-252"/>
<text text-anchor="middle" x="57" y="-231.5" font-family="Helvetica,sans-Serif" font-size="10.00" fill="#000000">ecmascript</text>
</a>
</g>
</g>
<!-- dir_b923498ad1fed22c29700e166fe292a2&#45;&gt;dir_a186d0848b97a60ade3edd5ad8e78038 -->
<g id="edge15" class="edge">
<title>dir_b923498ad1fed22c29700e166fe292a2&#45;&gt;dir_a186d0848b97a60ade3edd5ad8e78038</title>
<path fill="none" stroke="#000000" d="M76.4895,-215.8915C83.2576,-210.2572 91.1311,-204.3808 99,-200 120.3137,-188.1343 146.0017,-178.9614 167.0856,-172.6031"/>
<polygon fill="#000000" stroke="#000000" points="168.0999,-175.9532 176.7208,-169.7944 166.1409,-169.2328 168.0999,-175.9532"/>
<g id="a_edge15&#45;headlabel"><a xlink:href="dir_000008_000004.html" target="_top" xlink:title="2">
<text text-anchor="middle" x="165.4434" y="-177.1849" font-family="Helvetica,sans-Serif" font-size="10.00" fill="#000000">2</text>
</a>
</g>
</g>
<!-- dir_6d12b73cf1a07bae559bd2e97fe773a8 -->
<g id="node8" class="node">
<title>dir_6d12b73cf1a07bae559bd2e97fe773a8</title>
<g id="a_node8"><a xlink:href="dir_6d12b73cf1a07bae559bd2e97fe773a8.html" target="_top" xlink:title="interpreter">
<polygon fill="none" stroke="#000000" points="279,-108 217,-108 217,-72 279,-72 279,-108"/>
<text text-anchor="middle" x="248" y="-87.5" font-family="Helvetica,sans-Serif" font-size="10.00" fill="#000000">interpreter</text>
</a>
</g>
</g>
<!-- dir_b923498ad1fed22c29700e166fe292a2&#45;&gt;dir_6d12b73cf1a07bae559bd2e97fe773a8 -->
<g id="edge16" class="edge">
<title>dir_b923498ad1fed22c29700e166fe292a2&#45;&gt;dir_6d12b73cf1a07bae559bd2e97fe773a8</title>
<path fill="none" stroke="#000000" d="M78.2523,-215.8388C100.2748,-197.2422 135.9028,-167.7744 168,-144 181.8072,-133.773 197.3885,-123.0752 211.1074,-113.9245"/>
<polygon fill="#000000" stroke="#000000" points="213.4127,-116.5957 219.8164,-108.1552 209.5468,-110.7601 213.4127,-116.5957"/>
<g id="a_edge16&#45;headlabel"><a xlink:href="dir_000008_000003.html" target="_top" xlink:title="2">
<text text-anchor="middle" x="211.984" y="-118.4479" font-family="Helvetica,sans-Serif" font-size="10.00" fill="#000000">2</text>
</a>
</g>
</g>
<!-- dir_b923498ad1fed22c29700e166fe292a2&#45;&gt;dir_92105864f9e085ad080aaeef739227b1 -->
<g id="edge17" class="edge">
<title>dir_b923498ad1fed22c29700e166fe292a2&#45;&gt;dir_92105864f9e085ad080aaeef739227b1</title>
<path fill="none" stroke="#000000" d="M68.0225,-215.9563C86.903,-185.4473 127.1616,-122.0992 166,-72 173.296,-62.5885 181.782,-52.7309 189.572,-44.0525"/>
<polygon fill="#000000" stroke="#000000" points="192.3375,-46.2136 196.4762,-36.4606 187.1587,-41.504 192.3375,-46.2136"/>
<g id="a_edge17&#45;headlabel"><a xlink:href="dir_000008_000024.html" target="_top" xlink:title="8">
<text text-anchor="middle" x="192.0196" y="-48.2832" font-family="Helvetica,sans-Serif" font-size="10.00" fill="#000000">8</text>
</a>
</g>
</g>
<!-- dir_2505f6062adfb436b9bee41f84a7b796 -->
<g id="node4" class="node">
<title>dir_2505f6062adfb436b9bee41f84a7b796</title>
<g id="a_node4"><a xlink:href="dir_2505f6062adfb436b9bee41f84a7b796.html" target="_top" xlink:title="lua">
<polygon fill="#ffffff" stroke="#000000" points="306,-252 252,-252 252,-216 306,-216 306,-252"/>
<text text-anchor="middle" x="279" y="-231.5" font-family="Helvetica,sans-Serif" font-size="10.00" fill="#000000">lua</text>
</a>
</g>
</g>
<!-- dir_2505f6062adfb436b9bee41f84a7b796&#45;&gt;dir_a186d0848b97a60ade3edd5ad8e78038 -->
<g id="edge10" class="edge">
<title>dir_2505f6062adfb436b9bee41f84a7b796&#45;&gt;dir_a186d0848b97a60ade3edd5ad8e78038</title>
<path fill="none" stroke="#000000" d="M261.0837,-215.8314C252.6558,-207.2848 242.459,-196.9443 233.264,-187.6198"/>
<polygon fill="#000000" stroke="#000000" points="235.6711,-185.0761 226.1575,-180.4133 230.6869,-189.9912 235.6711,-185.0761"/>
<g id="a_edge10&#45;headlabel"><a xlink:href="dir_000011_000004.html" target="_top" xlink:title="1">
<text text-anchor="middle" x="240.2167" y="-183.142" font-family="Helvetica,sans-Serif" font-size="10.00" fill="#000000">1</text>
</a>
</g>
</g>
<!-- dir_2505f6062adfb436b9bee41f84a7b796&#45;&gt;dir_6d12b73cf1a07bae559bd2e97fe773a8 -->
<g id="edge11" class="edge">
<title>dir_2505f6062adfb436b9bee41f84a7b796&#45;&gt;dir_6d12b73cf1a07bae559bd2e97fe773a8</title>
<path fill="none" stroke="#000000" d="M275.0738,-215.7623C269.763,-191.0928 260.2406,-146.8598 254.022,-117.9731"/>
<polygon fill="#000000" stroke="#000000" points="257.4205,-117.129 251.8943,-108.0896 250.5773,-118.6023 257.4205,-117.129"/>
<g id="a_edge11&#45;headlabel"><a xlink:href="dir_000011_000003.html" target="_top" xlink:title="1">
<text text-anchor="middle" x="260.9527" y="-117.5456" font-family="Helvetica,sans-Serif" font-size="10.00" fill="#000000">1</text>
</a>
</g>
</g>
<!-- dir_2505f6062adfb436b9bee41f84a7b796&#45;&gt;dir_92105864f9e085ad080aaeef739227b1 -->
<g id="edge12" class="edge">
<title>dir_2505f6062adfb436b9bee41f84a7b796&#45;&gt;dir_92105864f9e085ad080aaeef739227b1</title>
<path fill="none" stroke="#000000" d="M285.6462,-215.7746C295.8923,-184.4478 311.9926,-119.2096 288,-72 279.8847,-56.0318 264.5874,-43.6621 249.998,-34.8153"/>
<polygon fill="#000000" stroke="#000000" points="251.5022,-31.6449 241.0761,-29.7615 248.0521,-37.7356 251.5022,-31.6449"/>
<g id="a_edge12&#45;headlabel"><a xlink:href="dir_000011_000024.html" target="_top" xlink:title="3">
<text text-anchor="middle" x="256.0292" y="-28.4461" font-family="Helvetica,sans-Serif" font-size="10.00" fill="#000000">3</text>
</a>
</g>
</g>
<!-- dir_04db395b686edc58ee5f81f23a1306a9 -->
<g id="node5" class="node">
<title>dir_04db395b686edc58ee5f81f23a1306a9</title>
<g id="a_node5"><a xlink:href="dir_04db395b686edc58ee5f81f23a1306a9.html" target="_top" xlink:title="null">
<polygon fill="#ffffff" stroke="#000000" points="162,-252 108,-252 108,-216 162,-216 162,-252"/>
<text text-anchor="middle" x="135" y="-231.5" font-family="Helvetica,sans-Serif" font-size="10.00" fill="#000000">null</text>
</a>
</g>
</g>
<!-- dir_f4ef9190f47eab3d8603eac93d672b2e -->
<g id="node6" class="node">
<title>dir_f4ef9190f47eab3d8603eac93d672b2e</title>
<g id="a_node6"><a xlink:href="dir_f4ef9190f47eab3d8603eac93d672b2e.html" target="_top" xlink:title="promela">
<polygon fill="#ffffff" stroke="#ff0000" points="378,-252 324,-252 324,-216 378,-216 378,-252"/>
<text text-anchor="middle" x="351" y="-231.5" font-family="Helvetica,sans-Serif" font-size="10.00" fill="#000000">promela</text>
</a>
</g>
</g>
<!-- dir_f4ef9190f47eab3d8603eac93d672b2e&#45;&gt;dir_a186d0848b97a60ade3edd5ad8e78038 -->
<g id="edge3" class="edge">
<title>dir_f4ef9190f47eab3d8603eac93d672b2e&#45;&gt;dir_a186d0848b97a60ade3edd5ad8e78038</title>
<path fill="none" stroke="#000000" d="M334.6406,-215.805C328.8625,-210.1649 322.04,-204.307 315,-200 294.624,-187.5343 269.5649,-178.3558 248.821,-172.1455"/>
<polygon fill="#000000" stroke="#000000" points="249.6012,-168.7282 239.0236,-169.3339 247.6702,-175.4566 249.6012,-168.7282"/>
<g id="a_edge3&#45;headlabel"><a xlink:href="dir_000013_000004.html" target="_top" xlink:title="2">
<text text-anchor="middle" x="253.8395" y="-164.4906" font-family="Helvetica,sans-Serif" font-size="10.00" fill="#000000">2</text>
</a>
</g>
</g>
<!-- dir_f4ef9190f47eab3d8603eac93d672b2e&#45;&gt;dir_6d12b73cf1a07bae559bd2e97fe773a8 -->
<g id="edge4" class="edge">
<title>dir_f4ef9190f47eab3d8603eac93d672b2e&#45;&gt;dir_6d12b73cf1a07bae559bd2e97fe773a8</title>
<path fill="none" stroke="#000000" d="M337.955,-215.7623C319.9999,-190.66 287.5561,-145.3017 266.9313,-116.4671"/>
<polygon fill="#000000" stroke="#000000" points="269.6036,-114.1869 260.9391,-108.0896 263.9101,-118.2594 269.6036,-114.1869"/>
<g id="a_edge4&#45;headlabel"><a xlink:href="dir_000013_000003.html" target="_top" xlink:title="2">
<text text-anchor="middle" x="274.0041" y="-112.9588" font-family="Helvetica,sans-Serif" font-size="10.00" fill="#000000">2</text>
</a>
</g>
</g>
<!-- dir_f4ef9190f47eab3d8603eac93d672b2e&#45;&gt;dir_92105864f9e085ad080aaeef739227b1 -->
<g id="edge5" class="edge">
<title>dir_f4ef9190f47eab3d8603eac93d672b2e&#45;&gt;dir_92105864f9e085ad080aaeef739227b1</title>
<path fill="none" stroke="#000000" d="M350.4455,-215.7513C348.5873,-183.5225 340.6411,-115.7993 307,-72 292.6331,-53.2949 269.7988,-39.9009 250.3525,-31.1313"/>
<polygon fill="#000000" stroke="#000000" points="251.7014,-27.9016 241.1302,-27.1946 248.9532,-34.3396 251.7014,-27.9016"/>
<g id="a_edge5&#45;headlabel"><a xlink:href="dir_000013_000024.html" target="_top" xlink:title="4">
<text text-anchor="middle" x="256.1221" y="-24.2014" font-family="Helvetica,sans-Serif" font-size="10.00" fill="#000000">4</text>
</a>
</g>
</g>
<!-- dir_a186d0848b97a60ade3edd5ad8e78038&#45;&gt;dir_6d12b73cf1a07bae559bd2e97fe773a8 -->
<g id="edge1" class="edge">
<title>dir_a186d0848b97a60ade3edd5ad8e78038&#45;&gt;dir_6d12b73cf1a07bae559bd2e97fe773a8</title>
<path fill="none" stroke="#000000" d="M212.1413,-143.8314C215.8627,-135.7079 221.0738,-125.9637 226.434,-117.0118"/>
<polygon fill="#000000" stroke="#000000" points="229.4742,-118.7509 231.7944,-108.4133 223.534,-115.0477 229.4742,-118.7509"/>
<g id="a_edge1&#45;headlabel"><a xlink:href="dir_000004_000003.html" target="_top" xlink:title="1">
<text text-anchor="middle" x="229.982" y="-120.8034" font-family="Helvetica,sans-Serif" font-size="10.00" fill="#000000">1</text>
</a>
</g>
</g>
<!-- dir_a186d0848b97a60ade3edd5ad8e78038&#45;&gt;dir_92105864f9e085ad080aaeef739227b1 -->
<g id="edge2" class="edge">
<title>dir_a186d0848b97a60ade3edd5ad8e78038&#45;&gt;dir_92105864f9e085ad080aaeef739227b1</title>
<path fill="none" stroke="#000000" d="M200.5646,-143.7121C197.9589,-125.5163 197.6261,-96.8057 199,-72 199.4621,-63.656 200.323,-54.62 201.6243,-46.3702"/>
<polygon fill="#000000" stroke="#000000" points="205.0804,-46.9302 203.5112,-36.4522 198.2038,-45.6218 205.0804,-46.9302"/>
<g id="a_edge2&#45;headlabel"><a xlink:href="dir_000004_000024.html" target="_top" xlink:title="4">
<text text-anchor="middle" x="207.1979" y="-48.4921" font-family="Helvetica,sans-Serif" font-size="10.00" fill="#000000">4</text>
</a>
</g>
</g>
<!-- dir_6d12b73cf1a07bae559bd2e97fe773a8&#45;&gt;dir_a186d0848b97a60ade3edd5ad8e78038 -->
<g id="edge8" class="edge">
<title>dir_6d12b73cf1a07bae559bd2e97fe773a8&#45;&gt;dir_a186d0848b97a60ade3edd5ad8e78038</title>
<path fill="none" stroke="#000000" d="M243.7464,-108.4133C239.9953,-116.569 234.768,-126.3212 229.4048,-135.257"/>
<polygon fill="#000000" stroke="#000000" points="226.3779,-133.4963 224.0461,-143.8314 232.314,-137.2062 226.3779,-133.4963"/>
<g id="a_edge8&#45;headlabel"><a xlink:href="dir_000003_000004.html" target="_top" xlink:title="12">
<text text-anchor="middle" x="225.8752" y="-126.4433" font-family="Helvetica,sans-Serif" font-size="10.00" fill="#000000">12</text>
</a>
</g>
</g>
<!-- dir_6d12b73cf1a07bae559bd2e97fe773a8&#45;&gt;dir_92105864f9e085ad080aaeef739227b1 -->
<g id="edge9" class="edge">
<title>dir_6d12b73cf1a07bae559bd2e97fe773a8&#45;&gt;dir_92105864f9e085ad080aaeef739227b1</title>
<path fill="none" stroke="#000000" d="M233.468,-71.8314C228.9848,-63.9617 224.3365,-54.5712 220.559,-45.8533"/>
<polygon fill="#000000" stroke="#000000" points="223.7291,-44.3575 216.7191,-36.4133 217.245,-46.9951 223.7291,-44.3575"/>
<g id="a_edge9&#45;headlabel"><a xlink:href="dir_000003_000024.html" target="_top" xlink:title="14">
<text text-anchor="middle" x="227.7134" y="-44.1175" font-family="Helvetica,sans-Serif" font-size="10.00" fill="#000000">14</text>
</a>
</g>
</g>
<!-- dir_92105864f9e085ad080aaeef739227b1&#45;&gt;dir_a186d0848b97a60ade3edd5ad8e78038 -->
<g id="edge13" class="edge">
<title>dir_92105864f9e085ad080aaeef739227b1&#45;&gt;dir_a186d0848b97a60ade3edd5ad8e78038</title>
<path fill="none" stroke="#000000" d="M219.3651,-36.4522C219.121,-46.8662 217.6573,-60.133 217,-72 215.8623,-92.5422 215.8949,-115.7624 214.9703,-133.4712"/>
<polygon fill="#000000" stroke="#000000" points="211.4604,-133.4917 214.2519,-143.7121 218.4432,-133.9816 211.4604,-133.4917"/>
<g id="a_edge13&#45;headlabel"><a xlink:href="dir_000024_000004.html" target="_top" xlink:title="2">
<text text-anchor="middle" x="208.8795" y="-127.2072" font-family="Helvetica,sans-Serif" font-size="10.00" fill="#000000">2</text>
</a>
</g>
</g>
<!-- dir_92105864f9e085ad080aaeef739227b1&#45;&gt;dir_6d12b73cf1a07bae559bd2e97fe773a8 -->
<g id="edge14" class="edge">
<title>dir_92105864f9e085ad080aaeef739227b1&#45;&gt;dir_6d12b73cf1a07bae559bd2e97fe773a8</title>
<path fill="none" stroke="#000000" d="M228.6712,-36.4133C233.1576,-44.3141 237.7985,-53.7132 241.5579,-62.417"/>
<polygon fill="#000000" stroke="#000000" points="238.3734,-63.8778 245.3728,-71.8314 244.861,-61.2489 238.3734,-63.8778"/>
<g id="a_edge14&#45;headlabel"><a xlink:href="dir_000024_000003.html" target="_top" xlink:title="2">
<text text-anchor="middle" x="234.3921" y="-59.1125" font-family="Helvetica,sans-Serif" font-size="10.00" fill="#000000">2</text>
</a>
</g>
</g>
</g>
</svg>
