<?xml version="1.0" encoding="UTF-8" standalone="no"?>
<!DOCTYPE svg PUBLIC "-//W3C//DTD SVG 1.1//EN"
 "http://www.w3.org/Graphics/SVG/1.1/DTD/svg11.dtd">
<!-- Generated by graphviz version 2.38.0 (20140413.2041)
 -->
<!-- Title: interpreter Pages: 1 -->
<svg width="184pt" height="332pt"
 viewBox="0.00 0.00 183.72 332.00" xmlns="http://www.w3.org/2000/svg" xmlns:xlink="http://www.w3.org/1999/xlink">
<g id="graph0" class="graph" transform="scale(1 1) rotate(0) translate(4 328)">
<title>interpreter</title>
<polygon fill="white" stroke="none" points="-4,4 -4,-328 179.722,-328 179.722,4 -4,4"/>
<!-- dir_f2c8af9107d7604b778bd4ea9fe0debe -->
<g id="node1" class="node"><title>dir_f2c8af9107d7604b778bd4ea9fe0debe</title>
<g id="a_node1"><a xlink:href="dir_f2c8af9107d7604b778bd4ea9fe0debe.html" target="_top" xlink:title="interpreter">
<polygon fill="#eeeeff" stroke="black" points="69.7216,-324 7.72156,-324 7.72156,-288 69.7216,-288 69.7216,-324"/>
<text text-anchor="middle" x="38.7216" y="-303.5" font-family="Helvetica,sans-Serif" font-size="10.00">interpreter</text>
</a>
</g>
</g>
<!-- dir_84d4ec99856759213102e4209c09c524 -->
<g id="node2" class="node"><title>dir_84d4ec99856759213102e4209c09c524</title>
<g id="a_node2"><a xlink:href="dir_84d4ec99856759213102e4209c09c524.html" target="_top" xlink:title="debug">
<polygon fill="none" stroke="black" points="65.7216,-252 11.7216,-252 11.7216,-216 65.7216,-216 65.7216,-252"/>
<text text-anchor="middle" x="38.7216" y="-231.5" font-family="Helvetica,sans-Serif" font-size="10.00">debug</text>
</a>
</g>
</g>
<!-- dir_f2c8af9107d7604b778bd4ea9fe0debe&#45;&gt;dir_84d4ec99856759213102e4209c09c524 -->
<g id="edge9" class="edge"><title>dir_f2c8af9107d7604b778bd4ea9fe0debe&#45;&gt;dir_84d4ec99856759213102e4209c09c524</title>
<path fill="none" stroke="black" d="M32.8058,-287.697C32.0101,-279.983 31.7836,-270.712 32.1263,-262.112"/>
<polygon fill="black" stroke="black" points="35.6199,-262.324 32.8265,-252.104 28.637,-261.836 35.6199,-262.324"/>
<g id="a_edge9&#45;headlabel"><a xlink:href="dir_000001_000000.html" target="_top" xlink:title="1">
<text text-anchor="middle" x="38.2015" y="-263.608" font-family="Helvetica,sans-Serif" font-size="10.00">1</text>
</a>
</g>
</g>
<!-- dir_b8f7637664a38e012eb6b40bd154637c -->
<g id="node3" class="node"><title>dir_b8f7637664a38e012eb6b40bd154637c</title>
<g id="a_node3"><a xlink:href="dir_b8f7637664a38e012eb6b40bd154637c.html" target="_top" xlink:title="messages">
<polygon fill="none" stroke="black" points="113.722,-108 51.7216,-108 51.7216,-72 113.722,-72 113.722,-108"/>
<text text-anchor="middle" x="82.7216" y="-87.5" font-family="Helvetica,sans-Serif" font-size="10.00">messages</text>
</a>
</g>
</g>
<!-- dir_f2c8af9107d7604b778bd4ea9fe0debe&#45;&gt;dir_b8f7637664a38e012eb6b40bd154637c -->
<g id="edge10" class="edge"><title>dir_f2c8af9107d7604b778bd4ea9fe0debe&#45;&gt;dir_b8f7637664a38e012eb6b40bd154637c</title>
<path fill="none" stroke="black" d="M54.0715,-287.69C61.7583,-277.922 70.3415,-265.079 74.7216,-252 89.8124,-206.938 88.4035,-150.821 85.7439,-118.14"/>
<polygon fill="black" stroke="black" points="89.2133,-117.644 84.816,-108.005 82.2424,-118.282 89.2133,-117.644"/>
<g id="a_edge10&#45;headlabel"><a xlink:href="dir_000001_000002.html" target="_top" xlink:title="7">
<text text-anchor="middle" x="92.3683" y="-118.465" font-family="Helvetica,sans-Serif" font-size="10.00">7</text>
</a>
</g>
</g>
<!-- dir_23ec12649285f9fabf3a6b7380226c28 -->
<g id="node4" class="node"><title>dir_23ec12649285f9fabf3a6b7380226c28</title>
<g id="a_node4"><a xlink:href="dir_23ec12649285f9fabf3a6b7380226c28.html" target="_top" xlink:title="util">
<polygon fill="none" stroke="black" points="109.722,-36 55.7216,-36 55.7216,-0 109.722,-0 109.722,-36"/>
<text text-anchor="middle" x="82.7216" y="-15.5" font-family="Helvetica,sans-Serif" font-size="10.00">util</text>
</a>
</g>
</g>
<!-- dir_f2c8af9107d7604b778bd4ea9fe0debe&#45;&gt;dir_23ec12649285f9fabf3a6b7380226c28 -->
<g id="edge11" class="edge"><title>dir_f2c8af9107d7604b778bd4ea9fe0debe&#45;&gt;dir_23ec12649285f9fabf3a6b7380226c28</title>
<path fill="none" stroke="black" d="M23.1116,-287.774C15.3486,-278.03 6.77564,-265.184 2.72156,-252 -1.98123,-236.707 1.2409,-231.931 2.72156,-216 8.74742,-151.164 -0.657215,-129.595 29.7216,-72 35.4031,-61.2285 44.0136,-51.2494 52.6524,-42.923"/>
<polygon fill="black" stroke="black" points="55.1525,-45.3798 60.1783,-36.0529 50.4331,-40.2099 55.1525,-45.3798"/>
<g id="a_edge11&#45;headlabel"><a xlink:href="dir_000001_000022.html" target="_top" xlink:title="15">
<text text-anchor="middle" x="54.4119" y="-47.4002" font-family="Helvetica,sans-Serif" font-size="10.00">15</text>
</a>
</g>
</g>
<!-- dir_38c8d24aef3972a7f87b834274e76e31 -->
<g id="node5" class="node"><title>dir_38c8d24aef3972a7f87b834274e76e31</title>
<g id="a_node5"><a xlink:href="dir_38c8d24aef3972a7f87b834274e76e31.html" target="_top" xlink:title="plugins">
<polygon fill="white" stroke="red" points="175.722,-180 121.722,-180 121.722,-144 175.722,-144 175.722,-180"/>
<text text-anchor="middle" x="148.722" y="-159.5" font-family="Helvetica,sans-Serif" font-size="10.00">plugins</text>
</a>
</g>
</g>
<!-- dir_f2c8af9107d7604b778bd4ea9fe0debe&#45;&gt;dir_38c8d24aef3972a7f87b834274e76e31 -->
<g id="edge12" class="edge"><title>dir_f2c8af9107d7604b778bd4ea9fe0debe&#45;&gt;dir_38c8d24aef3972a7f87b834274e76e31</title>
<path fill="none" stroke="black" d="M67.2185,-287.779C80.8085,-278.487 96.5065,-266.047 107.722,-252 122.588,-233.379 133.46,-208.493 140.258,-189.771"/>
<polygon fill="black" stroke="black" points="143.648,-190.677 143.615,-180.083 137.034,-188.385 143.648,-190.677"/>
<g id="a_edge12&#45;headlabel"><a xlink:href="dir_000001_000003.html" target="_top" xlink:title="3">
<text text-anchor="middle" x="145.154" y="-192.504" font-family="Helvetica,sans-Serif" font-size="10.00">3</text>
</a>
</g>
</g>
<!-- dir_84d4ec99856759213102e4209c09c524&#45;&gt;dir_f2c8af9107d7604b778bd4ea9fe0debe -->
<g id="edge4" class="edge"><title>dir_84d4ec99856759213102e4209c09c524&#45;&gt;dir_f2c8af9107d7604b778bd4ea9fe0debe</title>
<path fill="none" stroke="black" d="M44.6166,-252.104C45.4221,-259.791 45.6584,-269.054 45.3256,-277.665"/>
<polygon fill="black" stroke="black" points="41.8301,-277.48 44.6373,-287.697 48.8137,-277.96 41.8301,-277.48"/>
<g id="a_edge4&#45;headlabel"><a xlink:href="dir_000000_000001.html" target="_top" xlink:title="3">
<text text-anchor="middle" x="39.2435" y="-271.2" font-family="Helvetica,sans-Serif" font-size="10.00">3</text>
</a>
</g>
</g>
<!-- dir_84d4ec99856759213102e4209c09c524&#45;&gt;dir_b8f7637664a38e012eb6b40bd154637c -->
<g id="edge1" class="edge"><title>dir_84d4ec99856759213102e4209c09c524&#45;&gt;dir_b8f7637664a38e012eb6b40bd154637c</title>
<path fill="none" stroke="black" d="M44.029,-215.871C51.561,-191.564 65.4256,-146.819 74.3513,-118.013"/>
<polygon fill="black" stroke="black" points="77.7787,-118.777 77.3953,-108.189 71.0923,-116.705 77.7787,-118.777"/>
<g id="a_edge1&#45;headlabel"><a xlink:href="dir_000000_000002.html" target="_top" xlink:title="3">
<text text-anchor="middle" x="79.4269" y="-120.551" font-family="Helvetica,sans-Serif" font-size="10.00">3</text>
</a>
</g>
</g>
<!-- dir_84d4ec99856759213102e4209c09c524&#45;&gt;dir_23ec12649285f9fabf3a6b7380226c28 -->
<g id="edge2" class="edge"><title>dir_84d4ec99856759213102e4209c09c524&#45;&gt;dir_23ec12649285f9fabf3a6b7380226c28</title>
<path fill="none" stroke="black" d="M35.8231,-215.941C31.4297,-185.871 25.3142,-121.895 42.7216,-72 46.1961,-62.0407 52.297,-52.43 58.7028,-44.191"/>
<polygon fill="black" stroke="black" points="61.4353,-46.379 65.1243,-36.4471 56.0469,-41.9107 61.4353,-46.379"/>
<g id="a_edge2&#45;headlabel"><a xlink:href="dir_000000_000022.html" target="_top" xlink:title="10">
<text text-anchor="middle" x="61.3264" y="-48.4583" font-family="Helvetica,sans-Serif" font-size="10.00">10</text>
</a>
</g>
</g>
<!-- dir_84d4ec99856759213102e4209c09c524&#45;&gt;dir_38c8d24aef3972a7f87b834274e76e31 -->
<g id="edge3" class="edge"><title>dir_84d4ec99856759213102e4209c09c524&#45;&gt;dir_38c8d24aef3972a7f87b834274e76e31</title>
<path fill="none" stroke="black" d="M65.6306,-215.876C79.8799,-206.808 97.5679,-195.552 112.957,-185.759"/>
<polygon fill="black" stroke="black" points="115.152,-188.511 121.709,-180.19 111.393,-182.606 115.152,-188.511"/>
<g id="a_edge3&#45;headlabel"><a xlink:href="dir_000000_000003.html" target="_top" xlink:title="1">
<text text-anchor="middle" x="113.643" y="-190.337" font-family="Helvetica,sans-Serif" font-size="10.00">1</text>
</a>
</g>
</g>
<!-- dir_b8f7637664a38e012eb6b40bd154637c&#45;&gt;dir_23ec12649285f9fabf3a6b7380226c28 -->
<g id="edge5" class="edge"><title>dir_b8f7637664a38e012eb6b40bd154637c&#45;&gt;dir_23ec12649285f9fabf3a6b7380226c28</title>
<path fill="none" stroke="black" d="M76.8058,-71.6966C76.0101,-63.9827 75.7836,-54.7125 76.1263,-46.1124"/>
<polygon fill="black" stroke="black" points="79.6199,-46.3243 76.8265,-36.1043 72.637,-45.8356 79.6199,-46.3243"/>
<g id="a_edge5&#45;headlabel"><a xlink:href="dir_000002_000022.html" target="_top" xlink:title="5">
<text text-anchor="middle" x="82.2015" y="-47.6083" font-family="Helvetica,sans-Serif" font-size="10.00">5</text>
</a>
</g>
</g>
<!-- dir_23ec12649285f9fabf3a6b7380226c28&#45;&gt;dir_b8f7637664a38e012eb6b40bd154637c -->
<g id="edge6" class="edge"><title>dir_23ec12649285f9fabf3a6b7380226c28&#45;&gt;dir_b8f7637664a38e012eb6b40bd154637c</title>
<path fill="none" stroke="black" d="M88.6166,-36.1043C89.4221,-43.7913 89.6584,-53.0537 89.3256,-61.6651"/>
<polygon fill="black" stroke="black" points="85.8301,-61.4805 88.6373,-71.6966 92.8137,-61.9597 85.8301,-61.4805"/>
<g id="a_edge6&#45;headlabel"><a xlink:href="dir_000022_000002.html" target="_top" xlink:title="2">
<text text-anchor="middle" x="83.2435" y="-55.2" font-family="Helvetica,sans-Serif" font-size="10.00">2</text>
</a>
</g>
</g>
<!-- dir_38c8d24aef3972a7f87b834274e76e31&#45;&gt;dir_b8f7637664a38e012eb6b40bd154637c -->
<g id="edge7" class="edge"><title>dir_38c8d24aef3972a7f87b834274e76e31&#45;&gt;dir_b8f7637664a38e012eb6b40bd154637c</title>
<path fill="none" stroke="black" d="M132.407,-143.697C124.415,-135.22 114.65,-124.864 105.899,-115.583"/>
<polygon fill="black" stroke="black" points="108.255,-112.979 98.8485,-108.104 103.162,-117.781 108.255,-112.979"/>
<g id="a_edge7&#45;headlabel"><a xlink:href="dir_000003_000002.html" target="_top" xlink:title="15">
<text text-anchor="middle" x="112.787" y="-111.147" font-family="Helvetica,sans-Serif" font-size="10.00">15</text>
</a>
</g>
</g>
<!-- dir_38c8d24aef3972a7f87b834274e76e31&#45;&gt;dir_23ec12649285f9fabf3a6b7380226c28 -->
<g id="edge8" class="edge"><title>dir_38c8d24aef3972a7f87b834274e76e31&#45;&gt;dir_23ec12649285f9fabf3a6b7380226c28</title>
<path fill="none" stroke="black" d="M145.651,-143.919C141.907,-125.482 134.568,-95.592 122.722,-72 117.833,-62.2647 111.103,-52.4947 104.557,-44.0423"/>
<polygon fill="black" stroke="black" points="107.144,-41.6747 98.1477,-36.0791 101.691,-46.0638 107.144,-41.6747"/>
<g id="a_edge8&#45;headlabel"><a xlink:href="dir_000003_000022.html" target="_top" xlink:title="22">
<text text-anchor="middle" x="111.61" y="-40.1947" font-family="Helvetica,sans-Serif" font-size="10.00">22</text>
</a>
</g>
</g>
</g>
</svg>
