<?xml version="1.0" encoding="UTF-8" standalone="no"?>
<!DOCTYPE svg PUBLIC "-//W3C//DTD SVG 1.1//EN"
 "http://www.w3.org/Graphics/SVG/1.1/DTD/svg11.dtd">
<!-- Generated by graphviz version 2.38.0 (20140413.2041)
 -->
<!-- Title: plugins/datamodel Pages: 1 -->
<svg width="348pt" height="231pt"
 viewBox="0.00 0.00 348.00 231.00" xmlns="http://www.w3.org/2000/svg" xmlns:xlink="http://www.w3.org/1999/xlink">
<g id="graph0" class="graph" transform="scale(1 1) rotate(0) translate(4 227)">
<title>plugins/datamodel</title>
<polygon fill="white" stroke="none" points="-4,4 -4,-227 344,-227 344,4 -4,4"/>
<g id="clust1" class="cluster"><title>clusterdir_38c8d24aef3972a7f87b834274e76e31</title>
<g id="a_clust1"><a xlink:href="dir_38c8d24aef3972a7f87b834274e76e31.html" target="_top" xlink:title="plugins">
<polygon fill="#ddddee" stroke="black" points="8,-128 8,-215 332,-215 332,-128 8,-128"/>
<text text-anchor="middle" x="170" y="-203" font-family="Helvetica,sans-Serif" font-size="10.00">plugins</text>
</a>
</g>
</g>
<g id="clust2" class="cluster"><title>clusterdir_7cfdd7134d700922c16c1342750b4180</title>
<g id="a_clust2"><a xlink:href="dir_7cfdd7134d700922c16c1342750b4180.html" target="_top">
<polygon fill="#eeeeff" stroke="black" points="16,-136 16,-188 324,-188 324,-136 16,-136"/>
</a>
</g>
</g>
<!-- dir_7cfdd7134d700922c16c1342750b4180 -->
<g id="node1" class="node"><title>dir_7cfdd7134d700922c16c1342750b4180</title>
<text text-anchor="middle" x="284" y="-159.5" font-family="Helvetica,sans-Serif" font-size="10.00">datamodel</text>
</g>
<!-- dir_fb096cd0ea2593634f4bc3dbbacf6fa1 -->
<g id="node2" class="node"><title>dir_fb096cd0ea2593634f4bc3dbbacf6fa1</title>
<g id="a_node2"><a xlink:href="dir_fb096cd0ea2593634f4bc3dbbacf6fa1.html" target="_top" xlink:title="ecmascript">
<polygon fill="white" stroke="red" points="89.5,-180 24.5,-180 24.5,-144 89.5,-144 89.5,-180"/>
<text text-anchor="middle" x="57" y="-159.5" font-family="Helvetica,sans-Serif" font-size="10.00">ecmascript</text>
</a>
</g>
</g>
<!-- dir_b8f7637664a38e012eb6b40bd154637c -->
<g id="node5" class="node"><title>dir_b8f7637664a38e012eb6b40bd154637c</title>
<g id="a_node5"><a xlink:href="dir_b8f7637664a38e012eb6b40bd154637c.html" target="_top" xlink:title="messages">
<polygon fill="none" stroke="black" points="141,-108 79,-108 79,-72 141,-72 141,-108"/>
<text text-anchor="middle" x="110" y="-87.5" font-family="Helvetica,sans-Serif" font-size="10.00">messages</text>
</a>
</g>
</g>
<!-- dir_fb096cd0ea2593634f4bc3dbbacf6fa1&#45;&gt;dir_b8f7637664a38e012eb6b40bd154637c -->
<g id="edge6" class="edge"><title>dir_fb096cd0ea2593634f4bc3dbbacf6fa1&#45;&gt;dir_b8f7637664a38e012eb6b40bd154637c</title>
<path fill="none" stroke="black" d="M70.1011,-143.697C76.3909,-135.389 84.0474,-125.277 90.9649,-116.141"/>
<polygon fill="black" stroke="black" points="93.8036,-118.19 97.0496,-108.104 88.2227,-113.964 93.8036,-118.19"/>
<g id="a_edge6&#45;headlabel"><a xlink:href="dir_000005_000002.html" target="_top" xlink:title="2">
<text text-anchor="middle" x="93.8974" y="-120.269" font-family="Helvetica,sans-Serif" font-size="10.00">2</text>
</a>
</g>
</g>
<!-- dir_23ec12649285f9fabf3a6b7380226c28 -->
<g id="node6" class="node"><title>dir_23ec12649285f9fabf3a6b7380226c28</title>
<g id="a_node6"><a xlink:href="dir_23ec12649285f9fabf3a6b7380226c28.html" target="_top" xlink:title="util">
<polygon fill="none" stroke="black" points="137,-36 83,-36 83,-0 137,-0 137,-36"/>
<text text-anchor="middle" x="110" y="-15.5" font-family="Helvetica,sans-Serif" font-size="10.00">util</text>
</a>
</g>
</g>
<!-- dir_fb096cd0ea2593634f4bc3dbbacf6fa1&#45;&gt;dir_23ec12649285f9fabf3a6b7380226c28 -->
<g id="edge7" class="edge"><title>dir_fb096cd0ea2593634f4bc3dbbacf6fa1&#45;&gt;dir_23ec12649285f9fabf3a6b7380226c28</title>
<path fill="none" stroke="black" d="M57.0048,-143.934C57.5686,-125.509 60.127,-95.6295 70,-72 74.1332,-62.1079 80.5423,-52.4084 87.0282,-44.0671"/>
<polygon fill="black" stroke="black" points="89.8263,-46.1746 93.4583,-36.2217 84.4124,-41.7373 89.8263,-46.1746"/>
<g id="a_edge7&#45;headlabel"><a xlink:href="dir_000005_000017.html" target="_top" xlink:title="8">
<text text-anchor="middle" x="89.7437" y="-48.2545" font-family="Helvetica,sans-Serif" font-size="10.00">8</text>
</a>
</g>
</g>
<!-- dir_c209148fa119566e51df5b585c35bcc4 -->
<g id="node3" class="node"><title>dir_c209148fa119566e51df5b585c35bcc4</title>
<g id="a_node3"><a xlink:href="dir_c209148fa119566e51df5b585c35bcc4.html" target="_top" xlink:title="lua">
<polygon fill="white" stroke="black" points="162,-180 108,-180 108,-144 162,-144 162,-180"/>
<text text-anchor="middle" x="135" y="-159.5" font-family="Helvetica,sans-Serif" font-size="10.00">lua</text>
</a>
</g>
</g>
<!-- dir_c209148fa119566e51df5b585c35bcc4&#45;&gt;dir_b8f7637664a38e012eb6b40bd154637c -->
<g id="edge3" class="edge"><title>dir_c209148fa119566e51df5b585c35bcc4&#45;&gt;dir_b8f7637664a38e012eb6b40bd154637c</title>
<path fill="none" stroke="black" d="M128.82,-143.697C126.005,-135.813 122.609,-126.304 119.481,-117.546"/>
<polygon fill="black" stroke="black" points="122.768,-116.345 116.109,-108.104 116.176,-118.699 122.768,-116.345"/>
<g id="a_edge3&#45;headlabel"><a xlink:href="dir_000008_000002.html" target="_top" xlink:title="1">
<text text-anchor="middle" x="126.651" y="-116.275" font-family="Helvetica,sans-Serif" font-size="10.00">1</text>
</a>
</g>
</g>
<!-- dir_c209148fa119566e51df5b585c35bcc4&#45;&gt;dir_23ec12649285f9fabf3a6b7380226c28 -->
<g id="edge4" class="edge"><title>dir_c209148fa119566e51df5b585c35bcc4&#45;&gt;dir_23ec12649285f9fabf3a6b7380226c28</title>
<path fill="none" stroke="black" d="M142.713,-143.885C149.814,-125.678 158.113,-96.2181 150,-72 146.649,-61.9984 140.584,-52.3756 134.172,-44.1385"/>
<polygon fill="black" stroke="black" points="136.82,-41.8485 127.733,-36.4006 131.439,-46.3261 136.82,-41.8485"/>
<g id="a_edge4&#45;headlabel"><a xlink:href="dir_000008_000017.html" target="_top" xlink:title="3">
<text text-anchor="middle" x="141.302" y="-40.2953" font-family="Helvetica,sans-Serif" font-size="10.00">3</text>
</a>
</g>
</g>
<!-- dir_f745ee9e5cf61c41bd77d12fec98e485 -->
<g id="node4" class="node"><title>dir_f745ee9e5cf61c41bd77d12fec98e485</title>
<g id="a_node4"><a xlink:href="dir_f745ee9e5cf61c41bd77d12fec98e485.html" target="_top" xlink:title="null">
<polygon fill="white" stroke="black" points="234,-180 180,-180 180,-144 234,-144 234,-180"/>
<text text-anchor="middle" x="207" y="-159.5" font-family="Helvetica,sans-Serif" font-size="10.00">null</text>
</a>
</g>
</g>
<!-- dir_f745ee9e5cf61c41bd77d12fec98e485&#45;&gt;dir_23ec12649285f9fabf3a6b7380226c28 -->
<g id="edge5" class="edge"><title>dir_f745ee9e5cf61c41bd77d12fec98e485&#45;&gt;dir_23ec12649285f9fabf3a6b7380226c28</title>
<path fill="none" stroke="black" d="M201.344,-143.903C194.665,-125.187 182.362,-94.8079 166,-72 158.502,-61.5482 148.743,-51.4752 139.476,-42.9693"/>
<polygon fill="black" stroke="black" points="141.671,-40.2381 131.868,-36.219 137.025,-45.4741 141.671,-40.2381"/>
<g id="a_edge5&#45;headlabel"><a xlink:href="dir_000009_000017.html" target="_top" xlink:title="1">
<text text-anchor="middle" x="146.244" y="-38.0001" font-family="Helvetica,sans-Serif" font-size="10.00">1</text>
</a>
</g>
</g>
<!-- dir_b8f7637664a38e012eb6b40bd154637c&#45;&gt;dir_23ec12649285f9fabf3a6b7380226c28 -->
<g id="edge1" class="edge"><title>dir_b8f7637664a38e012eb6b40bd154637c&#45;&gt;dir_23ec12649285f9fabf3a6b7380226c28</title>
<path fill="none" stroke="black" d="M104.084,-71.6966C103.289,-63.9827 103.062,-54.7125 103.405,-46.1124"/>
<polygon fill="black" stroke="black" points="106.898,-46.3243 104.105,-36.1043 99.9154,-45.8356 106.898,-46.3243"/>
<g id="a_edge1&#45;headlabel"><a xlink:href="dir_000002_000017.html" target="_top" xlink:title="5">
<text text-anchor="middle" x="109.48" y="-47.6083" font-family="Helvetica,sans-Serif" font-size="10.00">5</text>
</a>
</g>
</g>
<!-- dir_23ec12649285f9fabf3a6b7380226c28&#45;&gt;dir_b8f7637664a38e012eb6b40bd154637c -->
<g id="edge2" class="edge"><title>dir_23ec12649285f9fabf3a6b7380226c28&#45;&gt;dir_b8f7637664a38e012eb6b40bd154637c</title>
<path fill="none" stroke="black" d="M115.895,-36.1043C116.701,-43.7913 116.937,-53.0537 116.604,-61.6651"/>
<polygon fill="black" stroke="black" points="113.109,-61.4805 115.916,-71.6966 120.092,-61.9597 113.109,-61.4805"/>
<g id="a_edge2&#45;headlabel"><a xlink:href="dir_000017_000002.html" target="_top" xlink:title="2">
<text text-anchor="middle" x="110.522" y="-55.2" font-family="Helvetica,sans-Serif" font-size="10.00">2</text>
</a>
</g>
</g>
</g>
</svg>
