<?xml version="1.0" encoding="UTF-8" standalone="no"?>
<!DOCTYPE svg PUBLIC "-//W3C//DTD SVG 1.1//EN"
 "http://www.w3.org/Graphics/SVG/1.1/DTD/svg11.dtd">
<!-- Generated by graphviz version 2.38.0 (20140413.2041)
 -->
<!-- Title: plugins/datamodel/promela Pages: 1 -->
<svg width="182pt" height="303pt"
 viewBox="0.00 0.00 182.00 303.00" xmlns="http://www.w3.org/2000/svg" xmlns:xlink="http://www.w3.org/1999/xlink">
<g id="graph0" class="graph" transform="scale(1 1) rotate(0) translate(4 299)">
<title>plugins/datamodel/promela</title>
<polygon fill="white" stroke="none" points="-4,4 -4,-299 178,-299 178,4 -4,4"/>
<g id="clust1" class="cluster"><title>clusterdir_7cfdd7134d700922c16c1342750b4180</title>
<g id="a_clust1"><a xlink:href="dir_7cfdd7134d700922c16c1342750b4180.html" target="_top" xlink:title="datamodel">
<polygon fill="#ddddee" stroke="black" points="8,-200 8,-287 166,-287 166,-200 8,-200"/>
<text text-anchor="middle" x="87" y="-275" font-family="Helvetica,sans-Serif" font-size="10.00">datamodel</text>
</a>
</g>
</g>
<g id="clust2" class="cluster"><title>clusterdir_672dcfd9277f9ad29030da9749b32c8e</title>
<g id="a_clust2"><a xlink:href="dir_672dcfd9277f9ad29030da9749b32c8e.html" target="_top">
<polygon fill="#eeeeff" stroke="black" points="16,-208 16,-260 158,-260 158,-208 16,-208"/>
</a>
</g>
</g>
<!-- dir_672dcfd9277f9ad29030da9749b32c8e -->
<g id="node1" class="node"><title>dir_672dcfd9277f9ad29030da9749b32c8e</title>
<text text-anchor="middle" x="51" y="-231.5" font-family="Helvetica,sans-Serif" font-size="10.00">promela</text>
</g>
<!-- dir_b8f7637664a38e012eb6b40bd154637c -->
<g id="node3" class="node"><title>dir_b8f7637664a38e012eb6b40bd154637c</title>
<g id="a_node3"><a xlink:href="dir_b8f7637664a38e012eb6b40bd154637c.html" target="_top" xlink:title="messages">
<polygon fill="none" stroke="black" points="95,-180 33,-180 33,-144 95,-144 95,-180"/>
<text text-anchor="middle" x="64" y="-159.5" font-family="Helvetica,sans-Serif" font-size="10.00">messages</text>
</a>
</g>
</g>
<!-- dir_672dcfd9277f9ad29030da9749b32c8e&#45;&gt;dir_b8f7637664a38e012eb6b40bd154637c -->
<g id="edge5" class="edge"><title>dir_672dcfd9277f9ad29030da9749b32c8e&#45;&gt;dir_b8f7637664a38e012eb6b40bd154637c</title>
<path fill="none" stroke="black" d="M54.2135,-215.697C55.6461,-207.983 57.3677,-198.712 58.9648,-190.112"/>
<polygon fill="black" stroke="black" points="62.4386,-190.575 60.8235,-180.104 55.5563,-189.297 62.4386,-190.575"/>
<g id="a_edge5&#45;headlabel"><a xlink:href="dir_000011_000002.html" target="_top" xlink:title="2">
<text text-anchor="middle" x="64.5739" y="-192.128" font-family="Helvetica,sans-Serif" font-size="10.00">2</text>
</a>
</g>
</g>
<!-- dir_f2c8af9107d7604b778bd4ea9fe0debe -->
<g id="node5" class="node"><title>dir_f2c8af9107d7604b778bd4ea9fe0debe</title>
<g id="a_node5"><a xlink:href="dir_f2c8af9107d7604b778bd4ea9fe0debe.html" target="_top" xlink:title="interpreter">
<polygon fill="none" stroke="black" points="86,-36 24,-36 24,-0 86,-0 86,-36"/>
<text text-anchor="middle" x="55" y="-15.5" font-family="Helvetica,sans-Serif" font-size="10.00">interpreter</text>
</a>
</g>
</g>
<!-- dir_672dcfd9277f9ad29030da9749b32c8e&#45;&gt;dir_f2c8af9107d7604b778bd4ea9fe0debe -->
<g id="edge6" class="edge"><title>dir_672dcfd9277f9ad29030da9749b32c8e&#45;&gt;dir_f2c8af9107d7604b778bd4ea9fe0debe</title>
<path fill="none" stroke="black" d="M39.5331,-215.667C33.6252,-205.689 27.037,-192.652 24,-180 12.7291,-133.046 30.0083,-77.6231 42.949,-45.5737"/>
<polygon fill="black" stroke="black" points="46.3119,-46.6049 46.9563,-36.0297 39.8578,-43.8949 46.3119,-46.6049"/>
<g id="a_edge6&#45;headlabel"><a xlink:href="dir_000011_000001.html" target="_top" xlink:title="1">
<text text-anchor="middle" x="47.5382" y="-48.5184" font-family="Helvetica,sans-Serif" font-size="10.00">1</text>
</a>
</g>
</g>
<!-- dir_e6a6070638770f4ca71667876e845f16 -->
<g id="node2" class="node"><title>dir_e6a6070638770f4ca71667876e845f16</title>
<g id="a_node2"><a xlink:href="dir_e6a6070638770f4ca71667876e845f16.html" target="_top" xlink:title="parser">
<polygon fill="white" stroke="black" points="150,-252 96,-252 96,-216 150,-216 150,-252"/>
<text text-anchor="middle" x="123" y="-231.5" font-family="Helvetica,sans-Serif" font-size="10.00">parser</text>
</a>
</g>
</g>
<!-- dir_23ec12649285f9fabf3a6b7380226c28 -->
<g id="node4" class="node"><title>dir_23ec12649285f9fabf3a6b7380226c28</title>
<g id="a_node4"><a xlink:href="dir_23ec12649285f9fabf3a6b7380226c28.html" target="_top" xlink:title="util">
<polygon fill="none" stroke="black" points="146,-108 92,-108 92,-72 146,-72 146,-108"/>
<text text-anchor="middle" x="119" y="-87.5" font-family="Helvetica,sans-Serif" font-size="10.00">util</text>
</a>
</g>
</g>
<!-- dir_e6a6070638770f4ca71667876e845f16&#45;&gt;dir_23ec12649285f9fabf3a6b7380226c28 -->
<g id="edge7" class="edge"><title>dir_e6a6070638770f4ca71667876e845f16&#45;&gt;dir_23ec12649285f9fabf3a6b7380226c28</title>
<path fill="none" stroke="black" d="M122.518,-215.871C121.836,-191.67 120.583,-147.211 119.772,-118.393"/>
<polygon fill="black" stroke="black" points="123.264,-118.087 119.484,-108.189 116.267,-118.284 123.264,-118.087"/>
<g id="a_edge7&#45;headlabel"><a xlink:href="dir_000012_000022.html" target="_top" xlink:title="1">
<text text-anchor="middle" x="126.204" y="-119.1" font-family="Helvetica,sans-Serif" font-size="10.00">1</text>
</a>
</g>
</g>
<!-- dir_b8f7637664a38e012eb6b40bd154637c&#45;&gt;dir_23ec12649285f9fabf3a6b7380226c28 -->
<g id="edge1" class="edge"><title>dir_b8f7637664a38e012eb6b40bd154637c&#45;&gt;dir_23ec12649285f9fabf3a6b7380226c28</title>
<path fill="none" stroke="black" d="M71.6798,-143.697C77.4079,-135.305 85.257,-125.07 92.9744,-115.861"/>
<polygon fill="black" stroke="black" points="95.7842,-117.962 99.6658,-108.104 90.4838,-113.39 95.7842,-117.962"/>
<g id="a_edge1&#45;headlabel"><a xlink:href="dir_000002_000022.html" target="_top" xlink:title="5">
<text text-anchor="middle" x="95.5861" y="-120.039" font-family="Helvetica,sans-Serif" font-size="10.00">5</text>
</a>
</g>
</g>
<!-- dir_b8f7637664a38e012eb6b40bd154637c&#45;&gt;dir_f2c8af9107d7604b778bd4ea9fe0debe -->
<g id="edge2" class="edge"><title>dir_b8f7637664a38e012eb6b40bd154637c&#45;&gt;dir_f2c8af9107d7604b778bd4ea9fe0debe</title>
<path fill="none" stroke="black" d="M58.3299,-143.871C54.2377,-119.67 51.1283,-75.2108 51.2772,-46.3932"/>
<polygon fill="black" stroke="black" points="54.7808,-46.2629 51.4986,-36.1893 47.7824,-46.111 54.7808,-46.2629"/>
<g id="a_edge2&#45;headlabel"><a xlink:href="dir_000002_000001.html" target="_top" xlink:title="1">
<text text-anchor="middle" x="57.5415" y="-47.4182" font-family="Helvetica,sans-Serif" font-size="10.00">1</text>
</a>
</g>
</g>
<!-- dir_23ec12649285f9fabf3a6b7380226c28&#45;&gt;dir_b8f7637664a38e012eb6b40bd154637c -->
<g id="edge3" class="edge"><title>dir_23ec12649285f9fabf3a6b7380226c28&#45;&gt;dir_b8f7637664a38e012eb6b40bd154637c</title>
<path fill="none" stroke="black" d="M111.456,-108.104C105.762,-116.467 97.9284,-126.694 90.209,-135.92"/>
<polygon fill="black" stroke="black" points="87.385,-133.835 83.5112,-143.697 92.6891,-138.403 87.385,-133.835"/>
<g id="a_edge3&#45;headlabel"><a xlink:href="dir_000022_000002.html" target="_top" xlink:title="2">
<text text-anchor="middle" x="87.5793" y="-126.759" font-family="Helvetica,sans-Serif" font-size="10.00">2</text>
</a>
</g>
</g>
<!-- dir_23ec12649285f9fabf3a6b7380226c28&#45;&gt;dir_f2c8af9107d7604b778bd4ea9fe0debe -->
<g id="edge4" class="edge"><title>dir_23ec12649285f9fabf3a6b7380226c28&#45;&gt;dir_f2c8af9107d7604b778bd4ea9fe0debe</title>
<path fill="none" stroke="black" d="M97.264,-71.6966C88.7257,-63.3046 79.1768,-53.0705 71.2386,-43.8613"/>
<polygon fill="black" stroke="black" points="73.8468,-41.5243 64.7432,-36.1043 68.4799,-46.0184 73.8468,-41.5243"/>
<g id="a_edge4&#45;headlabel"><a xlink:href="dir_000022_000001.html" target="_top" xlink:title="2">
<text text-anchor="middle" x="78.3314" y="-39.9575" font-family="Helvetica,sans-Serif" font-size="10.00">2</text>
</a>
</g>
</g>
<!-- dir_f2c8af9107d7604b778bd4ea9fe0debe&#45;&gt;dir_b8f7637664a38e012eb6b40bd154637c -->
<g id="edge8" class="edge"><title>dir_f2c8af9107d7604b778bd4ea9fe0debe&#45;&gt;dir_b8f7637664a38e012eb6b40bd154637c</title>
<path fill="none" stroke="black" d="M60.6804,-36.1893C64.771,-60.4244 67.8768,-104.888 67.7224,-133.679"/>
<polygon fill="black" stroke="black" points="64.2191,-133.797 67.4989,-143.871 71.2174,-133.951 64.2191,-133.797"/>
<g id="a_edge8&#45;headlabel"><a xlink:href="dir_000001_000002.html" target="_top" xlink:title="11">
<text text-anchor="middle" x="61.4592" y="-127.641" font-family="Helvetica,sans-Serif" font-size="10.00">11</text>
</a>
</g>
</g>
<!-- dir_f2c8af9107d7604b778bd4ea9fe0debe&#45;&gt;dir_23ec12649285f9fabf3a6b7380226c28 -->
<g id="edge9" class="edge"><title>dir_f2c8af9107d7604b778bd4ea9fe0debe&#45;&gt;dir_23ec12649285f9fabf3a6b7380226c28</title>
<path fill="none" stroke="black" d="M76.5333,-36.1043C85.0555,-44.467 94.6089,-54.6945 102.572,-63.9197"/>
<polygon fill="black" stroke="black" points="99.9875,-66.2841 109.095,-71.6966 105.351,-61.7857 99.9875,-66.2841"/>
<g id="a_edge9&#45;headlabel"><a xlink:href="dir_000001_000022.html" target="_top" xlink:title="14">
<text text-anchor="middle" x="95.5021" y="-62.8547" font-family="Helvetica,sans-Serif" font-size="10.00">14</text>
</a>
</g>
</g>
</g>
</svg>
