<?xml version="1.0" encoding="UTF-8" standalone="no"?>
<!DOCTYPE svg PUBLIC "-//W3C//DTD SVG 1.1//EN"
 "http://www.w3.org/Graphics/SVG/1.1/DTD/svg11.dtd">
<!-- Generated by graphviz version 2.40.1 (20161225.0304)
 -->
<!-- Title: debug Pages: 1 -->
<svg width="280pt" height="404pt"
 viewBox="0.00 0.00 280.19 404.00" xmlns="http://www.w3.org/2000/svg" xmlns:xlink="http://www.w3.org/1999/xlink">
<g id="graph0" class="graph" transform="scale(1 1) rotate(0) translate(4 400)">
<title>debug</title>
<polygon fill="#ffffff" stroke="transparent" points="-4,4 -4,-400 276.1916,-400 276.1916,4 -4,4"/>
<!-- dir_84d4ec99856759213102e4209c09c524 -->
<g id="node1" class="node">
<title>dir_84d4ec99856759213102e4209c09c524</title>
<g id="a_node1"><a xlink:href="dir_84d4ec99856759213102e4209c09c524.html" target="_top" xlink:title="debug">
<polygon fill="#eeeeff" stroke="#000000" points="267,-396 213,-396 213,-360 267,-360 267,-396"/>
<text text-anchor="middle" x="240" y="-375.5" font-family="Helvetica,sans-Serif" font-size="10.00" fill="#000000">debug</text>
</a>
</g>
</g>
<!-- dir_b8f7637664a38e012eb6b40bd154637c -->
<g id="node2" class="node">
<title>dir_b8f7637664a38e012eb6b40bd154637c</title>
<g id="a_node2"><a xlink:href="dir_b8f7637664a38e012eb6b40bd154637c.html" target="_top" xlink:title="messages">
<polygon fill="none" stroke="#000000" points="178,-324 116,-324 116,-288 178,-288 178,-324"/>
<text text-anchor="middle" x="147" y="-303.5" font-family="Helvetica,sans-Serif" font-size="10.00" fill="#000000">messages</text>
</a>
</g>
</g>
<!-- dir_84d4ec99856759213102e4209c09c524&#45;&gt;dir_b8f7637664a38e012eb6b40bd154637c -->
<g id="edge1" class="edge">
<title>dir_84d4ec99856759213102e4209c09c524&#45;&gt;dir_b8f7637664a38e012eb6b40bd154637c</title>
<path fill="none" stroke="#000000" d="M216.5322,-359.8314C204.9673,-350.8779 190.8596,-339.9558 178.3817,-330.2955"/>
<polygon fill="#000000" stroke="#000000" points="180.5102,-327.5171 170.4603,-324.1628 176.225,-333.0521 180.5102,-327.5171"/>
<g id="a_edge1&#45;headlabel"><a xlink:href="dir_000000_000002.html" target="_top" xlink:title="3">
<text text-anchor="middle" x="185.0906" y="-324.9725" font-family="Helvetica,sans-Serif" font-size="10.00" fill="#000000">3</text>
</a>
</g>
</g>
<!-- dir_23ec12649285f9fabf3a6b7380226c28 -->
<g id="node3" class="node">
<title>dir_23ec12649285f9fabf3a6b7380226c28</title>
<g id="a_node3"><a xlink:href="dir_23ec12649285f9fabf3a6b7380226c28.html" target="_top" xlink:title="util">
<polygon fill="none" stroke="#000000" points="174,-252 120,-252 120,-216 174,-216 174,-252"/>
<text text-anchor="middle" x="147" y="-231.5" font-family="Helvetica,sans-Serif" font-size="10.00" fill="#000000">util</text>
</a>
</g>
</g>
<!-- dir_84d4ec99856759213102e4209c09c524&#45;&gt;dir_23ec12649285f9fabf3a6b7380226c28 -->
<g id="edge2" class="edge">
<title>dir_84d4ec99856759213102e4209c09c524&#45;&gt;dir_23ec12649285f9fabf3a6b7380226c28</title>
<path fill="none" stroke="#000000" d="M229.988,-359.7287C219.7166,-341.299 203.0179,-312.1903 187,-288 180.913,-278.8074 173.8693,-269.0433 167.4047,-260.3821"/>
<polygon fill="#000000" stroke="#000000" points="170.0088,-258.0226 161.19,-252.1507 164.4222,-262.2404 170.0088,-258.0226"/>
<g id="a_edge2&#45;headlabel"><a xlink:href="dir_000000_000022.html" target="_top" xlink:title="10">
<text text-anchor="middle" x="174.4407" y="-256.6806" font-family="Helvetica,sans-Serif" font-size="10.00" fill="#000000">10</text>
</a>
</g>
</g>
<!-- dir_41e1742e44e2de38b3bc91f993fed282 -->
<g id="node4" class="node">
<title>dir_41e1742e44e2de38b3bc91f993fed282</title>
<g id="a_node4"><a xlink:href="dir_41e1742e44e2de38b3bc91f993fed282.html" target="_top" xlink:title="server">
<polygon fill="none" stroke="#000000" points="103,-36 49,-36 49,0 103,0 103,-36"/>
<text text-anchor="middle" x="76" y="-15.5" font-family="Helvetica,sans-Serif" font-size="10.00" fill="#000000">server</text>
</a>
</g>
</g>
<!-- dir_84d4ec99856759213102e4209c09c524&#45;&gt;dir_41e1742e44e2de38b3bc91f993fed282 -->
<g id="edge3" class="edge">
<title>dir_84d4ec99856759213102e4209c09c524&#45;&gt;dir_41e1742e44e2de38b3bc91f993fed282</title>
<path fill="none" stroke="#000000" d="M212.9355,-374.6536C150.1694,-365.2286 0,-332.3973 0,-234 0,-234 0,-234 0,-162 0,-116.656 29.8384,-71.5999 52.1226,-44.2735"/>
<polygon fill="#000000" stroke="#000000" points="55.0006,-46.2889 58.7544,-36.3814 49.6415,-41.7856 55.0006,-46.2889"/>
<g id="a_edge3&#45;headlabel"><a xlink:href="dir_000000_000019.html" target="_top" xlink:title="1">
<text text-anchor="middle" x="54.8618" y="-48.3675" font-family="Helvetica,sans-Serif" font-size="10.00" fill="#000000">1</text>
</a>
</g>
</g>
<!-- dir_38c8d24aef3972a7f87b834274e76e31 -->
<g id="node5" class="node">
<title>dir_38c8d24aef3972a7f87b834274e76e31</title>
<g id="a_node5"><a xlink:href="dir_38c8d24aef3972a7f87b834274e76e31.html" target="_top" xlink:title="plugins">
<polygon fill="#ffffff" stroke="#ff0000" points="181,-108 127,-108 127,-72 181,-72 181,-108"/>
<text text-anchor="middle" x="154" y="-87.5" font-family="Helvetica,sans-Serif" font-size="10.00" fill="#000000">plugins</text>
</a>
</g>
</g>
<!-- dir_84d4ec99856759213102e4209c09c524&#45;&gt;dir_38c8d24aef3972a7f87b834274e76e31 -->
<g id="edge4" class="edge">
<title>dir_84d4ec99856759213102e4209c09c524&#45;&gt;dir_38c8d24aef3972a7f87b834274e76e31</title>
<path fill="none" stroke="#000000" d="M247.1089,-359.9568C262.2285,-318.4111 292.9134,-214.1836 251,-144 237.8883,-122.0445 212.3121,-108.3421 190.7136,-100.2354"/>
<polygon fill="#000000" stroke="#000000" points="191.7237,-96.881 181.1289,-96.895 189.4199,-103.4911 191.7237,-96.881"/>
<g id="a_edge4&#45;headlabel"><a xlink:href="dir_000000_000003.html" target="_top" xlink:title="1">
<text text-anchor="middle" x="196.0525" y="-92.8829" font-family="Helvetica,sans-Serif" font-size="10.00" fill="#000000">1</text>
</a>
</g>
</g>
<!-- dir_f2c8af9107d7604b778bd4ea9fe0debe -->
<g id="node6" class="node">
<title>dir_f2c8af9107d7604b778bd4ea9fe0debe</title>
<g id="a_node6"><a xlink:href="dir_f2c8af9107d7604b778bd4ea9fe0debe.html" target="_top" xlink:title="interpreter">
<polygon fill="none" stroke="#000000" points="242,-180 180,-180 180,-144 242,-144 242,-180"/>
<text text-anchor="middle" x="211" y="-159.5" font-family="Helvetica,sans-Serif" font-size="10.00" fill="#000000">interpreter</text>
</a>
</g>
</g>
<!-- dir_84d4ec99856759213102e4209c09c524&#45;&gt;dir_f2c8af9107d7604b778bd4ea9fe0debe -->
<g id="edge5" class="edge">
<title>dir_84d4ec99856759213102e4209c09c524&#45;&gt;dir_f2c8af9107d7604b778bd4ea9fe0debe</title>
<path fill="none" stroke="#000000" d="M233.6314,-359.9555C225.1373,-322.3938 213.2128,-235.5541 210.0719,-190.4103"/>
<polygon fill="#000000" stroke="#000000" points="213.55,-189.9274 209.481,-180.1451 206.5616,-190.3297 213.55,-189.9274"/>
<g id="a_edge5&#45;headlabel"><a xlink:href="dir_000000_000001.html" target="_top" xlink:title="5">
<text text-anchor="middle" x="216.5911" y="-190.8529" font-family="Helvetica,sans-Serif" font-size="10.00" fill="#000000">5</text>
</a>
</g>
</g>
<!-- dir_b8f7637664a38e012eb6b40bd154637c&#45;&gt;dir_23ec12649285f9fabf3a6b7380226c28 -->
<g id="edge6" class="edge">
<title>dir_b8f7637664a38e012eb6b40bd154637c&#45;&gt;dir_23ec12649285f9fabf3a6b7380226c28</title>
<path fill="none" stroke="#000000" d="M141.0476,-287.8314C140.2972,-280.131 140.0763,-270.9743 140.3849,-262.4166"/>
<polygon fill="#000000" stroke="#000000" points="143.8792,-262.6161 141.024,-252.4133 136.8935,-262.1697 143.8792,-262.6161"/>
<g id="a_edge6&#45;headlabel"><a xlink:href="dir_000002_000022.html" target="_top" xlink:title="4">
<text text-anchor="middle" x="146.4836" y="-263.8844" font-family="Helvetica,sans-Serif" font-size="10.00" fill="#000000">4</text>
</a>
</g>
</g>
<!-- dir_b8f7637664a38e012eb6b40bd154637c&#45;&gt;dir_f2c8af9107d7604b778bd4ea9fe0debe -->
<g id="edge7" class="edge">
<title>dir_b8f7637664a38e012eb6b40bd154637c&#45;&gt;dir_f2c8af9107d7604b778bd4ea9fe0debe</title>
<path fill="none" stroke="#000000" d="M153.0712,-287.7942C159.3541,-277.6755 167.9882,-264.612 174,-252 183.5206,-232.0269 190.7953,-208.0447 196.8668,-189.8606"/>
<polygon fill="#000000" stroke="#000000" points="200.2614,-190.7529 200.2162,-180.1581 193.6445,-188.4686 200.2614,-190.7529"/>
<g id="a_edge7&#45;headlabel"><a xlink:href="dir_000002_000001.html" target="_top" xlink:title="1">
<text text-anchor="middle" x="201.7723" y="-192.5772" font-family="Helvetica,sans-Serif" font-size="10.00" fill="#000000">1</text>
</a>
</g>
</g>
<!-- dir_23ec12649285f9fabf3a6b7380226c28&#45;&gt;dir_b8f7637664a38e012eb6b40bd154637c -->
<g id="edge8" class="edge">
<title>dir_23ec12649285f9fabf3a6b7380226c28&#45;&gt;dir_b8f7637664a38e012eb6b40bd154637c</title>
<path fill="none" stroke="#000000" d="M152.976,-252.4133C153.7071,-260.0593 153.9203,-269.1084 153.6155,-277.5726"/>
<polygon fill="#000000" stroke="#000000" points="150.1048,-277.6264 152.9524,-287.8314 157.0902,-278.078 150.1048,-277.6264"/>
<g id="a_edge8&#45;headlabel"><a xlink:href="dir_000022_000002.html" target="_top" xlink:title="2">
<text text-anchor="middle" x="147.5032" y="-271.3562" font-family="Helvetica,sans-Serif" font-size="10.00" fill="#000000">2</text>
</a>
</g>
</g>
<!-- dir_23ec12649285f9fabf3a6b7380226c28&#45;&gt;dir_f2c8af9107d7604b778bd4ea9fe0debe -->
<g id="edge9" class="edge">
<title>dir_23ec12649285f9fabf3a6b7380226c28&#45;&gt;dir_f2c8af9107d7604b778bd4ea9fe0debe</title>
<path fill="none" stroke="#000000" d="M157.1975,-215.8314C163.8946,-207.3694 172.7943,-197.1489 181.4724,-187.8971"/>
<polygon fill="#000000" stroke="#000000" points="184.2563,-190.0511 188.6566,-180.4133 179.2065,-185.2034 184.2563,-190.0511"/>
<g id="a_edge9&#45;headlabel"><a xlink:href="dir_000022_000001.html" target="_top" xlink:title="2">
<text text-anchor="middle" x="183.8152" y="-192.1105" font-family="Helvetica,sans-Serif" font-size="10.00" fill="#000000">2</text>
</a>
</g>
</g>
<!-- dir_41e1742e44e2de38b3bc91f993fed282&#45;&gt;dir_b8f7637664a38e012eb6b40bd154637c -->
<g id="edge10" class="edge">
<title>dir_41e1742e44e2de38b3bc91f993fed282&#45;&gt;dir_b8f7637664a38e012eb6b40bd154637c</title>
<path fill="none" stroke="#000000" d="M74.5704,-36.2001C72.1037,-76.7755 70.0421,-176.9774 102,-252 106.3492,-262.2098 113.2868,-271.9801 120.4251,-280.3347"/>
<polygon fill="#000000" stroke="#000000" points="117.9474,-282.813 127.2525,-287.8792 123.1377,-278.116 117.9474,-282.813"/>
<g id="a_edge10&#45;headlabel"><a xlink:href="dir_000019_000002.html" target="_top" xlink:title="1">
<text text-anchor="middle" x="113.4303" y="-279.5529" font-family="Helvetica,sans-Serif" font-size="10.00" fill="#000000">1</text>
</a>
</g>
</g>
<!-- dir_41e1742e44e2de38b3bc91f993fed282&#45;&gt;dir_23ec12649285f9fabf3a6b7380226c28 -->
<g id="edge11" class="edge">
<title>dir_41e1742e44e2de38b3bc91f993fed282&#45;&gt;dir_23ec12649285f9fabf3a6b7380226c28</title>
<path fill="none" stroke="#000000" d="M81.9644,-36.1451C94.3922,-73.9537 123.1283,-161.3762 137.8882,-206.2797"/>
<polygon fill="#000000" stroke="#000000" points="134.621,-207.5485 141.0687,-215.9555 141.2709,-205.3626 134.621,-207.5485"/>
<g id="a_edge11&#45;headlabel"><a xlink:href="dir_000019_000022.html" target="_top" xlink:title="2">
<text text-anchor="middle" x="130.8013" y="-202.5202" font-family="Helvetica,sans-Serif" font-size="10.00" fill="#000000">2</text>
</a>
</g>
</g>
<!-- dir_41e1742e44e2de38b3bc91f993fed282&#45;&gt;dir_f2c8af9107d7604b778bd4ea9fe0debe -->
<g id="edge12" class="edge">
<title>dir_41e1742e44e2de38b3bc91f993fed282&#45;&gt;dir_f2c8af9107d7604b778bd4ea9fe0debe</title>
<path fill="none" stroke="#000000" d="M103.2811,-23.7104C129.4554,-30.6314 168.1368,-44.8987 190,-72 204.0251,-89.3853 209.0065,-114.4785 210.6327,-133.7545"/>
<polygon fill="#000000" stroke="#000000" points="207.1412,-134.0037 211.227,-143.779 214.1289,-133.5894 207.1412,-134.0037"/>
<g id="a_edge12&#45;headlabel"><a xlink:href="dir_000019_000001.html" target="_top" xlink:title="1">
<text text-anchor="middle" x="204.0942" y="-128.0834" font-family="Helvetica,sans-Serif" font-size="10.00" fill="#000000">1</text>
</a>
</g>
</g>
<!-- dir_38c8d24aef3972a7f87b834274e76e31&#45;&gt;dir_b8f7637664a38e012eb6b40bd154637c -->
<g id="edge13" class="edge">
<title>dir_38c8d24aef3972a7f87b834274e76e31&#45;&gt;dir_b8f7637664a38e012eb6b40bd154637c</title>
<path fill="none" stroke="#000000" d="M142.5951,-108.094C125.1221,-138.1523 95.3157,-200.1984 111,-252 113.9564,-261.7645 119.3252,-271.3771 125.03,-279.7238"/>
<polygon fill="#000000" stroke="#000000" points="122.2871,-281.9027 131.0095,-287.9169 127.9414,-277.7761 122.2871,-281.9027"/>
<g id="a_edge13&#45;headlabel"><a xlink:href="dir_000003_000002.html" target="_top" xlink:title="15">
<text text-anchor="middle" x="117.8747" y="-278.173" font-family="Helvetica,sans-Serif" font-size="10.00" fill="#000000">15</text>
</a>
</g>
</g>
<!-- dir_38c8d24aef3972a7f87b834274e76e31&#45;&gt;dir_23ec12649285f9fabf3a6b7380226c28 -->
<g id="edge14" class="edge">
<title>dir_38c8d24aef3972a7f87b834274e76e31&#45;&gt;dir_23ec12649285f9fabf3a6b7380226c28</title>
<path fill="none" stroke="#000000" d="M153.1206,-108.0896C151.9305,-132.5727 149.7943,-176.5174 148.3868,-205.4713"/>
<polygon fill="#000000" stroke="#000000" points="144.8763,-205.6041 147.8866,-215.7623 151.8681,-205.9441 144.8763,-205.6041"/>
<g id="a_edge14&#45;headlabel"><a xlink:href="dir_000003_000022.html" target="_top" xlink:title="24">
<text text-anchor="middle" x="142.2148" y="-199.3759" font-family="Helvetica,sans-Serif" font-size="10.00" fill="#000000">24</text>
</a>
</g>
</g>
<!-- dir_38c8d24aef3972a7f87b834274e76e31&#45;&gt;dir_41e1742e44e2de38b3bc91f993fed282 -->
<g id="edge15" class="edge">
<title>dir_38c8d24aef3972a7f87b834274e76e31&#45;&gt;dir_41e1742e44e2de38b3bc91f993fed282</title>
<path fill="none" stroke="#000000" d="M134.3173,-71.8314C124.8949,-63.1337 113.4599,-52.5783 103.2204,-43.1265"/>
<polygon fill="#000000" stroke="#000000" points="105.3984,-40.3738 95.6764,-36.1628 100.6505,-45.5175 105.3984,-40.3738"/>
<g id="a_edge15&#45;headlabel"><a xlink:href="dir_000003_000019.html" target="_top" xlink:title="1">
<text text-anchor="middle" x="109.9656" y="-38.2257" font-family="Helvetica,sans-Serif" font-size="10.00" fill="#000000">1</text>
</a>
</g>
</g>
<!-- dir_38c8d24aef3972a7f87b834274e76e31&#45;&gt;dir_f2c8af9107d7604b778bd4ea9fe0debe -->
<g id="edge16" class="edge">
<title>dir_38c8d24aef3972a7f87b834274e76e31&#45;&gt;dir_f2c8af9107d7604b778bd4ea9fe0debe</title>
<path fill="none" stroke="#000000" d="M174.5532,-108.4133C181.865,-116.654 189.8655,-126.5245 196.5843,-135.536"/>
<polygon fill="#000000" stroke="#000000" points="193.8797,-137.7693 202.5689,-143.8314 199.5566,-133.6738 193.8797,-137.7693"/>
<g id="a_edge16&#45;headlabel"><a xlink:href="dir_000003_000001.html" target="_top" xlink:title="15">
<text text-anchor="middle" x="189.474" y="-134.0153" font-family="Helvetica,sans-Serif" font-size="10.00" fill="#000000">15</text>
</a>
</g>
</g>
<!-- dir_f2c8af9107d7604b778bd4ea9fe0debe&#45;&gt;dir_84d4ec99856759213102e4209c09c524 -->
<g id="edge17" class="edge">
<title>dir_f2c8af9107d7604b778bd4ea9fe0debe&#45;&gt;dir_84d4ec99856759213102e4209c09c524</title>
<path fill="none" stroke="#000000" d="M217.3913,-180.1451C225.8915,-217.7945 237.8113,-304.6409 240.9365,-349.7103"/>
<polygon fill="#000000" stroke="#000000" points="237.4571,-350.172 241.5233,-359.9555 244.4456,-349.7717 237.4571,-350.172"/>
<g id="a_edge17&#45;headlabel"><a xlink:href="dir_000001_000000.html" target="_top" xlink:title="1">
<text text-anchor="middle" x="234.417" y="-344.2456" font-family="Helvetica,sans-Serif" font-size="10.00" fill="#000000">1</text>
</a>
</g>
</g>
<!-- dir_f2c8af9107d7604b778bd4ea9fe0debe&#45;&gt;dir_b8f7637664a38e012eb6b40bd154637c -->
<g id="edge18" class="edge">
<title>dir_f2c8af9107d7604b778bd4ea9fe0debe&#45;&gt;dir_b8f7637664a38e012eb6b40bd154637c</title>
<path fill="none" stroke="#000000" d="M213.7387,-180.1581C211.4882,-198.7523 203.3362,-228.2181 192,-252 187.4912,-261.459 181.5073,-271.172 175.2835,-279.7061"/>
<polygon fill="#000000" stroke="#000000" points="172.3769,-277.7433 169.0257,-287.7942 177.9132,-282.0269 172.3769,-277.7433"/>
<g id="a_edge18&#45;headlabel"><a xlink:href="dir_000001_000002.html" target="_top" xlink:title="12">
<text text-anchor="middle" x="172.3309" y="-270.6629" font-family="Helvetica,sans-Serif" font-size="10.00" fill="#000000">12</text>
</a>
</g>
</g>
<!-- dir_f2c8af9107d7604b778bd4ea9fe0debe&#45;&gt;dir_23ec12649285f9fabf3a6b7380226c28 -->
<g id="edge19" class="edge">
<title>dir_f2c8af9107d7604b778bd4ea9fe0debe&#45;&gt;dir_23ec12649285f9fabf3a6b7380226c28</title>
<path fill="none" stroke="#000000" d="M200.6087,-180.4133C193.8694,-188.9088 184.9509,-199.1366 176.2773,-208.3696"/>
<polygon fill="#000000" stroke="#000000" points="173.5106,-206.1972 169.1023,-215.8314 178.5564,-211.049 173.5106,-206.1972"/>
<g id="a_edge19&#45;headlabel"><a xlink:href="dir_000001_000022.html" target="_top" xlink:title="14">
<text text-anchor="middle" x="173.9555" y="-199.1382" font-family="Helvetica,sans-Serif" font-size="10.00" fill="#000000">14</text>
</a>
</g>
</g>
<!-- dir_f2c8af9107d7604b778bd4ea9fe0debe&#45;&gt;dir_38c8d24aef3972a7f87b834274e76e31 -->
<g id="edge20" class="edge">
<title>dir_f2c8af9107d7604b778bd4ea9fe0debe&#45;&gt;dir_38c8d24aef3972a7f87b834274e76e31</title>
<path fill="none" stroke="#000000" d="M190.6641,-143.8314C183.3661,-135.6232 175.3599,-125.7606 168.6159,-116.7323"/>
<polygon fill="#000000" stroke="#000000" points="171.2966,-114.4663 162.6012,-108.4133 165.624,-118.5677 171.2966,-114.4663"/>
<g id="a_edge20&#45;headlabel"><a xlink:href="dir_000001_000003.html" target="_top" xlink:title="5">
<text text-anchor="middle" x="175.7036" y="-113.2157" font-family="Helvetica,sans-Serif" font-size="10.00" fill="#000000">5</text>
</a>
</g>
</g>
</g>
</svg>
