<?xml version="1.0" encoding="UTF-8" standalone="no"?>
<!DOCTYPE svg PUBLIC "-//W3C//DTD SVG 1.1//EN"
 "http://www.w3.org/Graphics/SVG/1.1/DTD/svg11.dtd">
<!-- Generated by graphviz version 2.40.1 (20161225.0304)
 -->
<!-- Title: /Users/sradomski/Documents/TK/Code/uscxml/apps Pages: 1 -->
<svg width="334pt" height="420pt"
 viewBox="0.00 0.00 334.00 420.00" xmlns="http://www.w3.org/2000/svg" xmlns:xlink="http://www.w3.org/1999/xlink">
<g id="graph0" class="graph" transform="scale(1 1) rotate(0) translate(4 416)">
<title>/Users/sradomski/Documents/TK/Code/uscxml/apps</title>
<polygon fill="#ffffff" stroke="transparent" points="-4,4 -4,-416 330,-416 330,4 -4,4"/>
<g id="clust1" class="cluster">
<title>clusterdir_9654b8d08f4bba4e84b362c5fd320bee</title>
<g id="a_clust1"><a xlink:href="dir_9654b8d08f4bba4e84b362c5fd320bee.html" target="_top">
<polygon fill="#eeeeff" stroke="#000000" points="65,-352 65,-404 207,-404 207,-352 65,-352"/>
</a>
</g>
</g>
<!-- dir_9654b8d08f4bba4e84b362c5fd320bee -->
<g id="node1" class="node">
<title>dir_9654b8d08f4bba4e84b362c5fd320bee</title>
<text text-anchor="middle" x="172" y="-375.5" font-family="Helvetica,sans-Serif" font-size="10.00" fill="#000000">apps</text>
</g>
<!-- dir_38a182f92f920d3a6e24b71612e5af73 -->
<g id="node3" class="node">
<title>dir_38a182f92f920d3a6e24b71612e5af73</title>
<g id="a_node3"><a xlink:href="dir_38a182f92f920d3a6e24b71612e5af73.html" target="_top" xlink:title="debug">
<polygon fill="none" stroke="#000000" points="54,-324 0,-324 0,-288 54,-288 54,-324"/>
<text text-anchor="middle" x="27" y="-303.5" font-family="Helvetica,sans-Serif" font-size="10.00" fill="#000000">debug</text>
</a>
</g>
</g>
<!-- dir_9654b8d08f4bba4e84b362c5fd320bee&#45;&gt;dir_38a182f92f920d3a6e24b71612e5af73 -->
<g id="edge14" class="edge">
<title>dir_9654b8d08f4bba4e84b362c5fd320bee&#45;&gt;dir_38a182f92f920d3a6e24b71612e5af73</title>
<path fill="none" stroke="#000000" d="M148.5069,-359.8425C144.4412,-357.0493 140.1762,-354.3253 136,-352 107.4441,-336.1002 98.0766,-336.7924 68,-324 66.614,-323.4105 65.2029,-322.8071 63.7785,-322.1953"/>
<polygon fill="#000000" stroke="#000000" points="64.8764,-318.8567 54.3091,-318.094 62.0943,-325.2801 64.8764,-318.8567"/>
<g id="a_edge14&#45;headlabel"><a xlink:href="dir_000000_000002.html" target="_top" xlink:title="2">
<text text-anchor="middle" x="69.3033" y="-315.1799" font-family="Helvetica,sans-Serif" font-size="10.00" fill="#000000">2</text>
</a>
</g>
</g>
<!-- dir_3add613c21204d716bc67ff924866d47 -->
<g id="node4" class="node">
<title>dir_3add613c21204d716bc67ff924866d47</title>
<g id="a_node4"><a xlink:href="dir_3add613c21204d716bc67ff924866d47.html" target="_top" xlink:title="server">
<polygon fill="none" stroke="#000000" points="164,-252 110,-252 110,-216 164,-216 164,-252"/>
<text text-anchor="middle" x="137" y="-231.5" font-family="Helvetica,sans-Serif" font-size="10.00" fill="#000000">server</text>
</a>
</g>
</g>
<!-- dir_9654b8d08f4bba4e84b362c5fd320bee&#45;&gt;dir_3add613c21204d716bc67ff924866d47 -->
<g id="edge15" class="edge">
<title>dir_9654b8d08f4bba4e84b362c5fd320bee&#45;&gt;dir_3add613c21204d716bc67ff924866d47</title>
<path fill="none" stroke="#000000" d="M167.5672,-359.7623C161.5712,-335.0928 150.8201,-290.8598 143.799,-261.9731"/>
<polygon fill="#000000" stroke="#000000" points="147.1596,-260.9801 141.3968,-252.0896 140.3577,-262.6334 147.1596,-260.9801"/>
<g id="a_edge15&#45;headlabel"><a xlink:href="dir_000000_000021.html" target="_top" xlink:title="2">
<text text-anchor="middle" x="150.7675" y="-261.3024" font-family="Helvetica,sans-Serif" font-size="10.00" fill="#000000">2</text>
</a>
</g>
</g>
<!-- dir_6d12b73cf1a07bae559bd2e97fe773a8 -->
<g id="node5" class="node">
<title>dir_6d12b73cf1a07bae559bd2e97fe773a8</title>
<g id="a_node5"><a xlink:href="dir_6d12b73cf1a07bae559bd2e97fe773a8.html" target="_top" xlink:title="interpreter">
<polygon fill="none" stroke="#000000" points="108,-180 46,-180 46,-144 108,-144 108,-180"/>
<text text-anchor="middle" x="77" y="-159.5" font-family="Helvetica,sans-Serif" font-size="10.00" fill="#000000">interpreter</text>
</a>
</g>
</g>
<!-- dir_9654b8d08f4bba4e84b362c5fd320bee&#45;&gt;dir_6d12b73cf1a07bae559bd2e97fe773a8 -->
<g id="edge16" class="edge">
<title>dir_9654b8d08f4bba4e84b362c5fd320bee&#45;&gt;dir_6d12b73cf1a07bae559bd2e97fe773a8</title>
<path fill="none" stroke="#000000" d="M159.8866,-359.9527C144.3601,-336.1289 117.4838,-292.4605 101,-252 92.7886,-231.8446 86.5778,-208.0067 82.5336,-189.929"/>
<polygon fill="#000000" stroke="#000000" points="85.9275,-189.0632 80.404,-180.0221 79.0838,-190.5344 85.9275,-189.0632"/>
<g id="a_edge16&#45;headlabel"><a xlink:href="dir_000000_000003.html" target="_top" xlink:title="3">
<text text-anchor="middle" x="89.4587" y="-189.4809" font-family="Helvetica,sans-Serif" font-size="10.00" fill="#000000">3</text>
</a>
</g>
</g>
<!-- dir_f2ef411caf5075e63c621f4725bbb58e -->
<g id="node6" class="node">
<title>dir_f2ef411caf5075e63c621f4725bbb58e</title>
<g id="a_node6"><a xlink:href="dir_f2ef411caf5075e63c621f4725bbb58e.html" target="_top" xlink:title="transform">
<polygon fill="#ffffff" stroke="#ff0000" points="279.5,-252 220.5,-252 220.5,-216 279.5,-216 279.5,-252"/>
<text text-anchor="middle" x="250" y="-231.5" font-family="Helvetica,sans-Serif" font-size="10.00" fill="#000000">transform</text>
</a>
</g>
</g>
<!-- dir_9654b8d08f4bba4e84b362c5fd320bee&#45;&gt;dir_f2ef411caf5075e63c621f4725bbb58e -->
<g id="edge17" class="edge">
<title>dir_9654b8d08f4bba4e84b362c5fd320bee&#45;&gt;dir_f2ef411caf5075e63c621f4725bbb58e</title>
<path fill="none" stroke="#000000" d="M184.1425,-359.8008C190.8634,-349.466 199.206,-336.194 206,-324 217.4278,-303.489 229.0389,-279.5825 237.4619,-261.5656"/>
<polygon fill="#000000" stroke="#000000" points="240.7632,-262.7659 241.792,-252.2211 234.412,-259.8228 240.7632,-262.7659"/>
<g id="a_edge17&#45;headlabel"><a xlink:href="dir_000000_000022.html" target="_top" xlink:title="4">
<text text-anchor="middle" x="241.8281" y="-264.721" font-family="Helvetica,sans-Serif" font-size="10.00" fill="#000000">4</text>
</a>
</g>
</g>
<!-- dir_92105864f9e085ad080aaeef739227b1 -->
<g id="node7" class="node">
<title>dir_92105864f9e085ad080aaeef739227b1</title>
<g id="a_node7"><a xlink:href="dir_92105864f9e085ad080aaeef739227b1.html" target="_top" xlink:title="util">
<polygon fill="none" stroke="#000000" points="168,-36 114,-36 114,0 168,0 168,-36"/>
<text text-anchor="middle" x="141" y="-15.5" font-family="Helvetica,sans-Serif" font-size="10.00" fill="#000000">util</text>
</a>
</g>
</g>
<!-- dir_9654b8d08f4bba4e84b362c5fd320bee&#45;&gt;dir_92105864f9e085ad080aaeef739227b1 -->
<g id="edge18" class="edge">
<title>dir_9654b8d08f4bba4e84b362c5fd320bee&#45;&gt;dir_92105864f9e085ad080aaeef739227b1</title>
<path fill="none" stroke="#000000" d="M199.1776,-367.3288C243.388,-347.9763 326,-302.6317 326,-234 326,-234 326,-234 326,-162 326,-87.6667 231.8437,-46.1043 177.8751,-28.3868"/>
<polygon fill="#000000" stroke="#000000" points="178.8875,-25.0362 168.2974,-25.3536 176.774,-31.7095 178.8875,-25.0362"/>
<g id="a_edge18&#45;headlabel"><a xlink:href="dir_000000_000024.html" target="_top" xlink:title="2">
<text text-anchor="middle" x="183.1715" y="-20.9147" font-family="Helvetica,sans-Serif" font-size="10.00" fill="#000000">2</text>
</a>
</g>
</g>
<!-- dir_2cd592331b95683ae50c1625a7a0233f -->
<g id="node8" class="node">
<title>dir_2cd592331b95683ae50c1625a7a0233f</title>
<g id="a_node8"><a xlink:href="dir_2cd592331b95683ae50c1625a7a0233f.html" target="_top" xlink:title="plugins">
<polygon fill="#ffffff" stroke="#ff0000" points="168,-108 114,-108 114,-72 168,-72 168,-108"/>
<text text-anchor="middle" x="141" y="-87.5" font-family="Helvetica,sans-Serif" font-size="10.00" fill="#000000">plugins</text>
</a>
</g>
</g>
<!-- dir_9654b8d08f4bba4e84b362c5fd320bee&#45;&gt;dir_2cd592331b95683ae50c1625a7a0233f -->
<g id="edge19" class="edge">
<title>dir_9654b8d08f4bba4e84b362c5fd320bee&#45;&gt;dir_2cd592331b95683ae50c1625a7a0233f</title>
<path fill="none" stroke="#000000" d="M173.6389,-359.9302C176.0206,-329.9067 179.4887,-267.9095 173,-216 168.6943,-181.5543 158.0111,-143.0163 150.1681,-117.7376"/>
<polygon fill="#000000" stroke="#000000" points="153.4685,-116.5659 147.1122,-108.0895 146.7952,-118.6796 153.4685,-116.5659"/>
<g id="a_edge19&#45;headlabel"><a xlink:href="dir_000000_000005.html" target="_top" xlink:title="2">
<text text-anchor="middle" x="157.2605" y="-116.6354" font-family="Helvetica,sans-Serif" font-size="10.00" fill="#000000">2</text>
</a>
</g>
</g>
<!-- dir_7311be002af0e1c5b533c7a2480c68a1 -->
<g id="node2" class="node">
<title>dir_7311be002af0e1c5b533c7a2480c68a1</title>
<g id="a_node2"><a xlink:href="dir_7311be002af0e1c5b533c7a2480c68a1.html" target="_top" xlink:title="arduino">
<polygon fill="#ffffff" stroke="#000000" points="127,-396 73,-396 73,-360 127,-360 127,-396"/>
<text text-anchor="middle" x="100" y="-375.5" font-family="Helvetica,sans-Serif" font-size="10.00" fill="#000000">arduino</text>
</a>
</g>
</g>
<!-- dir_38a182f92f920d3a6e24b71612e5af73&#45;&gt;dir_3add613c21204d716bc67ff924866d47 -->
<g id="edge1" class="edge">
<title>dir_38a182f92f920d3a6e24b71612e5af73&#45;&gt;dir_3add613c21204d716bc67ff924866d47</title>
<path fill="none" stroke="#000000" d="M54.191,-288.2022C68.3378,-278.9425 85.8157,-267.5025 101.063,-257.5224"/>
<polygon fill="#000000" stroke="#000000" points="103.2903,-260.2476 109.7406,-251.8425 99.4567,-254.3907 103.2903,-260.2476"/>
<g id="a_edge1&#45;headlabel"><a xlink:href="dir_000002_000021.html" target="_top" xlink:title="1">
<text text-anchor="middle" x="101.8377" y="-262.0918" font-family="Helvetica,sans-Serif" font-size="10.00" fill="#000000">1</text>
</a>
</g>
</g>
<!-- dir_38a182f92f920d3a6e24b71612e5af73&#45;&gt;dir_6d12b73cf1a07bae559bd2e97fe773a8 -->
<g id="edge2" class="edge">
<title>dir_38a182f92f920d3a6e24b71612e5af73&#45;&gt;dir_6d12b73cf1a07bae559bd2e97fe773a8</title>
<path fill="none" stroke="#000000" d="M28.6594,-287.7623C34.7812,-262.9846 49.9795,-218.4714 61.9724,-189.5939"/>
<polygon fill="#000000" stroke="#000000" points="65.3243,-190.6588 66.0606,-180.0896 58.8939,-187.8928 65.3243,-190.6588"/>
<g id="a_edge2&#45;headlabel"><a xlink:href="dir_000002_000003.html" target="_top" xlink:title="5">
<text text-anchor="middle" x="66.5122" y="-192.5828" font-family="Helvetica,sans-Serif" font-size="10.00" fill="#000000">5</text>
</a>
</g>
</g>
<!-- dir_38a182f92f920d3a6e24b71612e5af73&#45;&gt;dir_92105864f9e085ad080aaeef739227b1 -->
<g id="edge3" class="edge">
<title>dir_38a182f92f920d3a6e24b71612e5af73&#45;&gt;dir_92105864f9e085ad080aaeef739227b1</title>
<path fill="none" stroke="#000000" d="M21.0001,-287.9969C11.7533,-257.0056 -2.7621,-192.2597 19,-144 38.0819,-101.6838 77.7023,-65.0832 106.6322,-42.3977"/>
<polygon fill="#000000" stroke="#000000" points="109.0488,-44.9553 114.8568,-36.0943 104.7907,-39.3993 109.0488,-44.9553"/>
<g id="a_edge3&#45;headlabel"><a xlink:href="dir_000002_000024.html" target="_top" xlink:title="10">
<text text-anchor="middle" x="107.9229" y="-46.8954" font-family="Helvetica,sans-Serif" font-size="10.00" fill="#000000">10</text>
</a>
</g>
</g>
<!-- dir_38a182f92f920d3a6e24b71612e5af73&#45;&gt;dir_2cd592331b95683ae50c1625a7a0233f -->
<g id="edge4" class="edge">
<title>dir_38a182f92f920d3a6e24b71612e5af73&#45;&gt;dir_2cd592331b95683ae50c1625a7a0233f</title>
<path fill="none" stroke="#000000" d="M22.7791,-287.9458C16.3923,-256.0217 7.881,-188.7601 37,-144 52.1435,-120.7223 80.7056,-106.9156 104.0713,-99.0979"/>
<polygon fill="#000000" stroke="#000000" points="105.2006,-102.4122 113.7128,-96.104 103.1247,-95.7271 105.2006,-102.4122"/>
<g id="a_edge4&#45;headlabel"><a xlink:href="dir_000002_000005.html" target="_top" xlink:title="1">
<text text-anchor="middle" x="102.6097" y="-103.6897" font-family="Helvetica,sans-Serif" font-size="10.00" fill="#000000">1</text>
</a>
</g>
</g>
<!-- dir_3add613c21204d716bc67ff924866d47&#45;&gt;dir_6d12b73cf1a07bae559bd2e97fe773a8 -->
<g id="edge5" class="edge">
<title>dir_3add613c21204d716bc67ff924866d47&#45;&gt;dir_6d12b73cf1a07bae559bd2e97fe773a8</title>
<path fill="none" stroke="#000000" d="M121.8595,-215.8314C114.8783,-207.454 106.4609,-197.3531 98.8124,-188.1749"/>
<polygon fill="#000000" stroke="#000000" points="101.4351,-185.8548 92.3444,-180.4133 96.0575,-190.3362 101.4351,-185.8548"/>
<g id="a_edge5&#45;headlabel"><a xlink:href="dir_000021_000003.html" target="_top" xlink:title="1">
<text text-anchor="middle" x="105.9174" y="-184.2986" font-family="Helvetica,sans-Serif" font-size="10.00" fill="#000000">1</text>
</a>
</g>
</g>
<!-- dir_3add613c21204d716bc67ff924866d47&#45;&gt;dir_92105864f9e085ad080aaeef739227b1 -->
<g id="edge6" class="edge">
<title>dir_3add613c21204d716bc67ff924866d47&#45;&gt;dir_92105864f9e085ad080aaeef739227b1</title>
<path fill="none" stroke="#000000" d="M147.839,-215.8544C164.4235,-185.7219 192.6146,-123.5715 177,-72 174.0436,-62.2355 168.6748,-52.6229 162.97,-44.2762"/>
<polygon fill="#000000" stroke="#000000" points="165.7129,-42.0973 156.9905,-36.0831 160.0586,-46.2239 165.7129,-42.0973"/>
<g id="a_edge6&#45;headlabel"><a xlink:href="dir_000021_000024.html" target="_top" xlink:title="2">
<text text-anchor="middle" x="170.1253" y="-40.827" font-family="Helvetica,sans-Serif" font-size="10.00" fill="#000000">2</text>
</a>
</g>
</g>
<!-- dir_6d12b73cf1a07bae559bd2e97fe773a8&#45;&gt;dir_38a182f92f920d3a6e24b71612e5af73 -->
<g id="edge7" class="edge">
<title>dir_6d12b73cf1a07bae559bd2e97fe773a8&#45;&gt;dir_38a182f92f920d3a6e24b71612e5af73</title>
<path fill="none" stroke="#000000" d="M75.3772,-180.0896C69.2916,-204.7884 54.1051,-249.2933 42.0995,-278.2331"/>
<polygon fill="#000000" stroke="#000000" points="38.7371,-277.1927 38.0057,-287.7623 45.1687,-279.9558 38.7371,-277.1927"/>
<g id="a_edge7&#45;headlabel"><a xlink:href="dir_000003_000002.html" target="_top" xlink:title="1">
<text text-anchor="middle" x="37.5472" y="-270.2693" font-family="Helvetica,sans-Serif" font-size="10.00" fill="#000000">1</text>
</a>
</g>
</g>
<!-- dir_6d12b73cf1a07bae559bd2e97fe773a8&#45;&gt;dir_92105864f9e085ad080aaeef739227b1 -->
<g id="edge8" class="edge">
<title>dir_6d12b73cf1a07bae559bd2e97fe773a8&#45;&gt;dir_92105864f9e085ad080aaeef739227b1</title>
<path fill="none" stroke="#000000" d="M74.2613,-143.8419C76.5118,-125.2477 84.6638,-95.7819 96,-72 100.5088,-62.541 106.4927,-52.828 112.7165,-44.2939"/>
<polygon fill="#000000" stroke="#000000" points="115.6231,-46.2567 118.9743,-36.2058 110.0868,-41.9731 115.6231,-46.2567"/>
<g id="a_edge8&#45;headlabel"><a xlink:href="dir_000003_000024.html" target="_top" xlink:title="14">
<text text-anchor="middle" x="115.6691" y="-48.3371" font-family="Helvetica,sans-Serif" font-size="10.00" fill="#000000">14</text>
</a>
</g>
</g>
<!-- dir_6d12b73cf1a07bae559bd2e97fe773a8&#45;&gt;dir_2cd592331b95683ae50c1625a7a0233f -->
<g id="edge9" class="edge">
<title>dir_6d12b73cf1a07bae559bd2e97fe773a8&#45;&gt;dir_2cd592331b95683ae50c1625a7a0233f</title>
<path fill="none" stroke="#000000" d="M87.1975,-143.8314C93.8946,-135.3694 102.7943,-125.1489 111.4724,-115.8971"/>
<polygon fill="#000000" stroke="#000000" points="114.2563,-118.0511 118.6566,-108.4133 109.2065,-113.2034 114.2563,-118.0511"/>
<g id="a_edge9&#45;headlabel"><a xlink:href="dir_000003_000005.html" target="_top" xlink:title="5">
<text text-anchor="middle" x="113.8152" y="-120.1105" font-family="Helvetica,sans-Serif" font-size="10.00" fill="#000000">5</text>
</a>
</g>
</g>
<!-- dir_f2ef411caf5075e63c621f4725bbb58e&#45;&gt;dir_6d12b73cf1a07bae559bd2e97fe773a8 -->
<g id="edge10" class="edge">
<title>dir_f2ef411caf5075e63c621f4725bbb58e&#45;&gt;dir_6d12b73cf1a07bae559bd2e97fe773a8</title>
<path fill="none" stroke="#000000" d="M220.2602,-221.6228C191.8937,-209.817 148.9465,-191.943 117.4715,-178.8436"/>
<polygon fill="#000000" stroke="#000000" points="118.6778,-175.5547 108.1006,-174.9436 115.9881,-182.0174 118.6778,-175.5547"/>
<g id="a_edge10&#45;headlabel"><a xlink:href="dir_000022_000003.html" target="_top" xlink:title="6">
<text text-anchor="middle" x="123.0874" y="-171.8145" font-family="Helvetica,sans-Serif" font-size="10.00" fill="#000000">6</text>
</a>
</g>
</g>
<!-- dir_f2ef411caf5075e63c621f4725bbb58e&#45;&gt;dir_92105864f9e085ad080aaeef739227b1 -->
<g id="edge11" class="edge">
<title>dir_f2ef411caf5075e63c621f4725bbb58e&#45;&gt;dir_92105864f9e085ad080aaeef739227b1</title>
<path fill="none" stroke="#000000" d="M246.4799,-215.8497C239.8481,-184.6362 223.453,-119.5643 194,-72 187.5814,-61.6345 178.8505,-51.6871 170.3276,-43.2172"/>
<polygon fill="#000000" stroke="#000000" points="172.6054,-40.5529 162.9547,-36.1808 167.7726,-45.6169 172.6054,-40.5529"/>
<g id="a_edge11&#45;headlabel"><a xlink:href="dir_000022_000024.html" target="_top" xlink:title="20">
<text text-anchor="middle" x="177.1661" y="-38.4806" font-family="Helvetica,sans-Serif" font-size="10.00" fill="#000000">20</text>
</a>
</g>
</g>
<!-- dir_f2ef411caf5075e63c621f4725bbb58e&#45;&gt;dir_2cd592331b95683ae50c1625a7a0233f -->
<g id="edge12" class="edge">
<title>dir_f2ef411caf5075e63c621f4725bbb58e&#45;&gt;dir_2cd592331b95683ae50c1625a7a0233f</title>
<path fill="none" stroke="#000000" d="M238.4575,-215.9889C226.418,-197.5118 206.7224,-168.1378 188,-144 180.6516,-134.5261 172.1673,-124.5242 164.4467,-115.7376"/>
<polygon fill="#000000" stroke="#000000" points="166.8839,-113.2111 157.6256,-108.0599 161.6508,-117.8603 166.8839,-113.2111"/>
<g id="a_edge12&#45;headlabel"><a xlink:href="dir_000022_000005.html" target="_top" xlink:title="2">
<text text-anchor="middle" x="171.3939" y="-111.5125" font-family="Helvetica,sans-Serif" font-size="10.00" fill="#000000">2</text>
</a>
</g>
</g>
<!-- dir_92105864f9e085ad080aaeef739227b1&#45;&gt;dir_6d12b73cf1a07bae559bd2e97fe773a8 -->
<g id="edge13" class="edge">
<title>dir_92105864f9e085ad080aaeef739227b1&#45;&gt;dir_6d12b73cf1a07bae559bd2e97fe773a8</title>
<path fill="none" stroke="#000000" d="M134.9288,-36.2058C128.6459,-46.3245 120.0118,-59.388 114,-72 104.4794,-91.9731 97.2047,-115.9553 91.1332,-134.1394"/>
<polygon fill="#000000" stroke="#000000" points="87.7386,-133.2471 87.7838,-143.8419 94.3555,-135.5314 87.7386,-133.2471"/>
<g id="a_edge13&#45;headlabel"><a xlink:href="dir_000024_000003.html" target="_top" xlink:title="2">
<text text-anchor="middle" x="86.2277" y="-126.4228" font-family="Helvetica,sans-Serif" font-size="10.00" fill="#000000">2</text>
</a>
</g>
</g>
<!-- dir_2cd592331b95683ae50c1625a7a0233f&#45;&gt;dir_3add613c21204d716bc67ff924866d47 -->
<g id="edge20" class="edge">
<title>dir_2cd592331b95683ae50c1625a7a0233f&#45;&gt;dir_3add613c21204d716bc67ff924866d47</title>
<path fill="none" stroke="#000000" d="M140.4975,-108.0896C139.8174,-132.5727 138.5967,-176.5174 137.7925,-205.4713"/>
<polygon fill="#000000" stroke="#000000" points="134.2857,-205.6689 137.5066,-215.7623 141.283,-205.8634 134.2857,-205.6689"/>
<g id="a_edge20&#45;headlabel"><a xlink:href="dir_000005_000021.html" target="_top" xlink:title="1">
<text text-anchor="middle" x="131.5473" y="-199.4969" font-family="Helvetica,sans-Serif" font-size="10.00" fill="#000000">1</text>
</a>
</g>
</g>
<!-- dir_2cd592331b95683ae50c1625a7a0233f&#45;&gt;dir_6d12b73cf1a07bae559bd2e97fe773a8 -->
<g id="edge21" class="edge">
<title>dir_2cd592331b95683ae50c1625a7a0233f&#45;&gt;dir_6d12b73cf1a07bae559bd2e97fe773a8</title>
<path fill="none" stroke="#000000" d="M130.6087,-108.4133C123.8694,-116.9088 114.9509,-127.1366 106.2773,-136.3696"/>
<polygon fill="#000000" stroke="#000000" points="103.5106,-134.1972 99.1023,-143.8314 108.5564,-139.049 103.5106,-134.1972"/>
<g id="a_edge21&#45;headlabel"><a xlink:href="dir_000005_000003.html" target="_top" xlink:title="15">
<text text-anchor="middle" x="103.9555" y="-127.1382" font-family="Helvetica,sans-Serif" font-size="10.00" fill="#000000">15</text>
</a>
</g>
</g>
<!-- dir_2cd592331b95683ae50c1625a7a0233f&#45;&gt;dir_92105864f9e085ad080aaeef739227b1 -->
<g id="edge22" class="edge">
<title>dir_2cd592331b95683ae50c1625a7a0233f&#45;&gt;dir_92105864f9e085ad080aaeef739227b1</title>
<path fill="none" stroke="#000000" d="M141,-71.8314C141,-64.131 141,-54.9743 141,-46.4166"/>
<polygon fill="#000000" stroke="#000000" points="144.5001,-46.4132 141,-36.4133 137.5001,-46.4133 144.5001,-46.4132"/>
<g id="a_edge22&#45;headlabel"><a xlink:href="dir_000005_000024.html" target="_top" xlink:title="24">
<text text-anchor="middle" x="147.3393" y="-47.5079" font-family="Helvetica,sans-Serif" font-size="10.00" fill="#000000">24</text>
</a>
</g>
</g>
</g>
</svg>
