<?xml version="1.0" encoding="UTF-8" standalone="no"?>
<!DOCTYPE svg PUBLIC "-//W3C//DTD SVG 1.1//EN"
 "http://www.w3.org/Graphics/SVG/1.1/DTD/svg11.dtd">
<!-- Generated by graphviz version 2.38.0 (20140413.2041)
 -->
<!-- Title: plugins/datamodel/promela Pages: 1 -->
<svg width="182pt" height="231pt"
 viewBox="0.00 0.00 182.00 231.00" xmlns="http://www.w3.org/2000/svg" xmlns:xlink="http://www.w3.org/1999/xlink">
<g id="graph0" class="graph" transform="scale(1 1) rotate(0) translate(4 227)">
<title>plugins/datamodel/promela</title>
<polygon fill="white" stroke="none" points="-4,4 -4,-227 178,-227 178,4 -4,4"/>
<g id="clust1" class="cluster"><title>clusterdir_7cfdd7134d700922c16c1342750b4180</title>
<g id="a_clust1"><a xlink:href="dir_7cfdd7134d700922c16c1342750b4180.html" target="_top" xlink:title="datamodel">
<polygon fill="#ddddee" stroke="black" points="8,-128 8,-215 166,-215 166,-128 8,-128"/>
<text text-anchor="middle" x="87" y="-203" font-family="Helvetica,sans-Serif" font-size="10.00">datamodel</text>
</a>
</g>
</g>
<g id="clust2" class="cluster"><title>clusterdir_672dcfd9277f9ad29030da9749b32c8e</title>
<g id="a_clust2"><a xlink:href="dir_672dcfd9277f9ad29030da9749b32c8e.html" target="_top">
<polygon fill="#eeeeff" stroke="black" points="16,-136 16,-188 158,-188 158,-136 16,-136"/>
</a>
</g>
</g>
<!-- dir_672dcfd9277f9ad29030da9749b32c8e -->
<g id="node1" class="node"><title>dir_672dcfd9277f9ad29030da9749b32c8e</title>
<text text-anchor="middle" x="51" y="-159.5" font-family="Helvetica,sans-Serif" font-size="10.00">promela</text>
</g>
<!-- dir_b8f7637664a38e012eb6b40bd154637c -->
<g id="node3" class="node"><title>dir_b8f7637664a38e012eb6b40bd154637c</title>
<g id="a_node3"><a xlink:href="dir_b8f7637664a38e012eb6b40bd154637c.html" target="_top" xlink:title="messages">
<polygon fill="none" stroke="black" points="88,-108 26,-108 26,-72 88,-72 88,-108"/>
<text text-anchor="middle" x="57" y="-87.5" font-family="Helvetica,sans-Serif" font-size="10.00">messages</text>
</a>
</g>
</g>
<!-- dir_672dcfd9277f9ad29030da9749b32c8e&#45;&gt;dir_b8f7637664a38e012eb6b40bd154637c -->
<g id="edge3" class="edge"><title>dir_672dcfd9277f9ad29030da9749b32c8e&#45;&gt;dir_b8f7637664a38e012eb6b40bd154637c</title>
<path fill="none" stroke="black" d="M52.4831,-143.697C53.1443,-135.983 53.9389,-126.712 54.6761,-118.112"/>
<polygon fill="black" stroke="black" points="58.167,-118.367 55.5339,-108.104 51.1926,-117.769 58.167,-118.367"/>
<g id="a_edge3&#45;headlabel"><a xlink:href="dir_000011_000002.html" target="_top" xlink:title="2">
<text text-anchor="middle" x="60.689" y="-119.691" font-family="Helvetica,sans-Serif" font-size="10.00">2</text>
</a>
</g>
</g>
<!-- dir_e6a6070638770f4ca71667876e845f16 -->
<g id="node2" class="node"><title>dir_e6a6070638770f4ca71667876e845f16</title>
<g id="a_node2"><a xlink:href="dir_e6a6070638770f4ca71667876e845f16.html" target="_top" xlink:title="parser">
<polygon fill="white" stroke="black" points="150,-180 96,-180 96,-144 150,-144 150,-180"/>
<text text-anchor="middle" x="123" y="-159.5" font-family="Helvetica,sans-Serif" font-size="10.00">parser</text>
</a>
</g>
</g>
<!-- dir_23ec12649285f9fabf3a6b7380226c28 -->
<g id="node4" class="node"><title>dir_23ec12649285f9fabf3a6b7380226c28</title>
<g id="a_node4"><a xlink:href="dir_23ec12649285f9fabf3a6b7380226c28.html" target="_top" xlink:title="util">
<polygon fill="none" stroke="black" points="84,-36 30,-36 30,-0 84,-0 84,-36"/>
<text text-anchor="middle" x="57" y="-15.5" font-family="Helvetica,sans-Serif" font-size="10.00">util</text>
</a>
</g>
</g>
<!-- dir_e6a6070638770f4ca71667876e845f16&#45;&gt;dir_23ec12649285f9fabf3a6b7380226c28 -->
<g id="edge4" class="edge"><title>dir_e6a6070638770f4ca71667876e845f16&#45;&gt;dir_23ec12649285f9fabf3a6b7380226c28</title>
<path fill="none" stroke="black" d="M119.93,-143.919C116.185,-125.482 108.847,-95.592 97,-72 92.1114,-62.2647 85.3813,-52.4947 78.8355,-44.0423"/>
<polygon fill="black" stroke="black" points="81.4228,-41.6747 72.4261,-36.0791 75.9697,-46.0638 81.4228,-41.6747"/>
<g id="a_edge4&#45;headlabel"><a xlink:href="dir_000012_000022.html" target="_top" xlink:title="1">
<text text-anchor="middle" x="85.8884" y="-40.1947" font-family="Helvetica,sans-Serif" font-size="10.00">1</text>
</a>
</g>
</g>
<!-- dir_b8f7637664a38e012eb6b40bd154637c&#45;&gt;dir_23ec12649285f9fabf3a6b7380226c28 -->
<g id="edge1" class="edge"><title>dir_b8f7637664a38e012eb6b40bd154637c&#45;&gt;dir_23ec12649285f9fabf3a6b7380226c28</title>
<path fill="none" stroke="black" d="M51.0843,-71.6966C50.2886,-63.9827 50.0621,-54.7125 50.4047,-46.1124"/>
<polygon fill="black" stroke="black" points="53.8984,-46.3243 51.105,-36.1043 46.9154,-45.8356 53.8984,-46.3243"/>
<g id="a_edge1&#45;headlabel"><a xlink:href="dir_000002_000022.html" target="_top" xlink:title="5">
<text text-anchor="middle" x="56.4799" y="-47.6083" font-family="Helvetica,sans-Serif" font-size="10.00">5</text>
</a>
</g>
</g>
<!-- dir_23ec12649285f9fabf3a6b7380226c28&#45;&gt;dir_b8f7637664a38e012eb6b40bd154637c -->
<g id="edge2" class="edge"><title>dir_23ec12649285f9fabf3a6b7380226c28&#45;&gt;dir_b8f7637664a38e012eb6b40bd154637c</title>
<path fill="none" stroke="black" d="M62.895,-36.1043C63.7005,-43.7913 63.9369,-53.0537 63.604,-61.6651"/>
<polygon fill="black" stroke="black" points="60.1085,-61.4805 62.9157,-71.6966 67.0921,-61.9597 60.1085,-61.4805"/>
<g id="a_edge2&#45;headlabel"><a xlink:href="dir_000022_000002.html" target="_top" xlink:title="2">
<text text-anchor="middle" x="57.5219" y="-55.2" font-family="Helvetica,sans-Serif" font-size="10.00">2</text>
</a>
</g>
</g>
</g>
</svg>
