<?xml version="1.0" encoding="UTF-8" standalone="no"?>
<!DOCTYPE svg PUBLIC "-//W3C//DTD SVG 1.1//EN"
 "http://www.w3.org/Graphics/SVG/1.1/DTD/svg11.dtd">
<!-- Generated by graphviz version 2.38.0 (20140413.2041)
 -->
<!-- Title: Executable Content Pages: 1 -->
<svg width="453pt" height="29pt"
 viewBox="0.00 0.00 453.00 29.00" xmlns="http://www.w3.org/2000/svg" xmlns:xlink="http://www.w3.org/1999/xlink">
<g id="graph0" class="graph" transform="scale(1 1) rotate(0) translate(4 25)">
<title>Executable Content</title>
<polygon fill="white" stroke="none" points="-4,4 -4,-25 449,-25 449,4 -4,4"/>
<!-- Node1 -->
<g id="node1" class="node"><title>Node1</title>
<g id="a_node1"><a xlink:href="group__extension.html" target="_top" xlink:title="Available extension points for the uSCXML intepreter. ">
<polygon fill="white" stroke="black" points="0,-0.5 0,-19.5 91,-19.5 91,-0.5 0,-0.5"/>
<text text-anchor="middle" x="45.5" y="-7.5" font-family="Helvetica,sans-Serif" font-size="10.00">Extension Points</text>
</a>
</g>
</g>
<!-- Node0 -->
<g id="node3" class="node"><title>Node0</title>
<polygon fill="#bfbfbf" stroke="black" points="128,-0.5 128,-19.5 232,-19.5 232,-0.5 128,-0.5"/>
<text text-anchor="middle" x="180" y="-7.5" font-family="Helvetica,sans-Serif" font-size="10.00">Executable Content</text>
</g>
<!-- Node1&#45;&gt;Node0 -->
<g id="edge1" class="edge"><title>Node1&#45;&gt;Node0</title>
<path fill="none" stroke="black" d="M101.44,-10C110.165,-10 119.161,-10 127.796,-10"/>
<polygon fill="black" stroke="black" points="101.358,-6.5001 91.3585,-10 101.358,-13.5001 101.358,-6.5001"/>
</g>
<!-- Node2 -->
<g id="node2" class="node"><title>Node2</title>
<g id="a_node2"><a xlink:href="group__facade.html" target="_top" xlink:title="User&#45;facing facades for the implementations. ">
<polygon fill="white" stroke="black" points="390,-0.5 390,-19.5 445,-19.5 445,-0.5 390,-0.5"/>
<text text-anchor="middle" x="417.5" y="-7.5" font-family="Helvetica,sans-Serif" font-size="10.00">Facades</text>
</a>
</g>
</g>
<!-- Node0&#45;&gt;Node2 -->
<g id="edge2" class="edge"><title>Node0&#45;&gt;Node2</title>
<path fill="none" stroke="orange" stroke-dasharray="5,2" d="M232.1,-10C280.665,-10 351.784,-10 389.952,-10"/>
<text text-anchor="middle" x="311" y="-13" font-family="Helvetica,sans-Serif" font-size="10.00">uscxml::ExecutableContent</text>
</g>
</g>
</svg>
