<?xml version="1.0" encoding="UTF-8" standalone="no"?>
<!DOCTYPE svg PUBLIC "-//W3C//DTD SVG 1.1//EN"
 "http://www.w3.org/Graphics/SVG/1.1/DTD/svg11.dtd">
<!-- Generated by graphviz version 2.38.0 (20140413.2041)
 -->
<!-- Title: Interpreter Pages: 1 -->
<svg width="284pt" height="142pt"
 viewBox="0.00 0.00 284.00 142.00" xmlns="http://www.w3.org/2000/svg" xmlns:xlink="http://www.w3.org/1999/xlink">
<g id="graph0" class="graph" transform="scale(1 1) rotate(0) translate(4 138)">
<title>Interpreter</title>
<polygon fill="white" stroke="none" points="-4,4 -4,-138 280,-138 280,4 -4,4"/>
<!-- Node3 -->
<g id="node1" class="node"><title>Node3</title>
<g id="a_node1"><a xlink:href="group__eventqueue.html" target="_top" xlink:title="Implementation of proper and delayed event queues. ">
<polygon fill="white" stroke="black" points="191.5,-114.5 191.5,-133.5 266.5,-133.5 266.5,-114.5 191.5,-114.5"/>
<text text-anchor="middle" x="229" y="-121.5" font-family="Helvetica,sans-Serif" font-size="10.00">Event Queue</text>
</a>
</g>
</g>
<!-- Node4 -->
<g id="node2" class="node"><title>Node4</title>
<g id="a_node2"><a xlink:href="group__facade.html" target="_top" xlink:title="User&#45;facing facades for the implementations. ">
<polygon fill="white" stroke="black" points="201.5,-76.5 201.5,-95.5 256.5,-95.5 256.5,-76.5 201.5,-76.5"/>
<text text-anchor="middle" x="229" y="-83.5" font-family="Helvetica,sans-Serif" font-size="10.00">Facades</text>
</a>
</g>
</g>
<!-- Node0 -->
<g id="node3" class="node"><title>Node0</title>
<polygon fill="#bfbfbf" stroke="black" points="0,-57.5 0,-76.5 63,-76.5 63,-57.5 0,-57.5"/>
<text text-anchor="middle" x="31.5" y="-64.5" font-family="Helvetica,sans-Serif" font-size="10.00">Interpreter</text>
</g>
<!-- Node0&#45;&gt;Node3 -->
<g id="edge3" class="edge"><title>Node0&#45;&gt;Node3</title>
<path fill="none" stroke="black" d="M56.0179,-81.9952C63.7386,-86.3932 72.5191,-90.8595 81,-94 117.395,-107.477 161.221,-115.429 191.5,-119.722"/>
<polygon fill="black" stroke="black" points="57.6006,-78.8643 47.2172,-76.7582 54.0209,-84.8798 57.6006,-78.8643"/>
</g>
<!-- Node0&#45;&gt;Node4 -->
<g id="edge4" class="edge"><title>Node0&#45;&gt;Node4</title>
<path fill="none" stroke="orange" stroke-dasharray="5,2" d="M63.0469,-69.9688C101.063,-73.6635 165.365,-79.9127 201.431,-83.4178"/>
<text text-anchor="middle" x="122.5" y="-82" font-family="Helvetica,sans-Serif" font-size="10.00">uscxml::Interpreter</text>
</g>
<!-- Node1 -->
<g id="node4" class="node"><title>Node1</title>
<g id="a_node4"><a xlink:href="group__microstep.html" target="_top" xlink:title="Implementations of the micro&#45;step(t) algorithm. ">
<polygon fill="white" stroke="black" points="199,-38.5 199,-57.5 259,-57.5 259,-38.5 199,-38.5"/>
<text text-anchor="middle" x="229" y="-45.5" font-family="Helvetica,sans-Serif" font-size="10.00">Microstep</text>
</a>
</g>
</g>
<!-- Node0&#45;&gt;Node1 -->
<g id="edge1" class="edge"><title>Node0&#45;&gt;Node1</title>
<path fill="none" stroke="black" d="M73.1505,-63.0493C110.716,-59.3984 165.606,-54.0638 198.943,-50.824"/>
<polygon fill="black" stroke="black" points="72.6614,-59.5803 63.0469,-64.0312 73.3386,-66.5474 72.6614,-59.5803"/>
</g>
<!-- Node2 -->
<g id="node5" class="node"><title>Node2</title>
<g id="a_node5"><a xlink:href="group__execcontent.html" target="_top" xlink:title="Instances to process executable content as part of a micro&#45;step. ">
<polygon fill="white" stroke="black" points="182,-0.5 182,-19.5 276,-19.5 276,-0.5 182,-0.5"/>
<text text-anchor="middle" x="229" y="-7.5" font-family="Helvetica,sans-Serif" font-size="10.00">Content Executor</text>
</a>
</g>
</g>
<!-- Node0&#45;&gt;Node2 -->
<g id="edge2" class="edge"><title>Node0&#45;&gt;Node2</title>
<path fill="none" stroke="black" d="M68.3257,-54.1202C72.5826,-52.6854 76.8784,-51.2813 81,-50 117.748,-38.5759 160.21,-27.2165 190.019,-19.5386"/>
<polygon fill="black" stroke="black" points="66.8801,-50.9161 58.5636,-57.4801 69.1582,-57.535 66.8801,-50.9161"/>
</g>
</g>
</svg>
