<?xml version="1.0" encoding="UTF-8" standalone="no"?>
<!DOCTYPE svg PUBLIC "-//W3C//DTD SVG 1.1//EN"
 "http://www.w3.org/Graphics/SVG/1.1/DTD/svg11.dtd">
<!-- Generated by graphviz version 2.40.1 (20161225.0304)
 -->
<!-- Title: Extension Points Pages: 1 -->
<svg width="239pt" height="142pt"
 viewBox="0.00 0.00 239.00 142.00" xmlns="http://www.w3.org/2000/svg" xmlns:xlink="http://www.w3.org/1999/xlink">
<g id="graph0" class="graph" transform="scale(1 1) rotate(0) translate(4 138)">
<title>Extension Points</title>
<polygon fill="#ffffff" stroke="transparent" points="-4,4 -4,-138 235,-138 235,4 -4,4"/>
<!-- Node0 -->
<g id="node1" class="node">
<title>Node0</title>
<polygon fill="#bfbfbf" stroke="#000000" points="0,-57.5 0,-76.5 91,-76.5 91,-57.5 0,-57.5"/>
<text text-anchor="middle" x="45.5" y="-64.5" font-family="Helvetica,sans-Serif" font-size="10.00" fill="#000000">Extension Points</text>
</g>
<!-- Node2 -->
<g id="node2" class="node">
<title>Node2</title>
<g id="a_node2"><a xlink:href="group__invoker.html" target="_top" xlink:title="Types of components for the invoke element to summon. ">
<polygon fill="#ffffff" stroke="#000000" points="152,-114.5 152,-133.5 206,-133.5 206,-114.5 152,-114.5"/>
<text text-anchor="middle" x="179" y="-121.5" font-family="Helvetica,sans-Serif" font-size="10.00" fill="#000000">Invokers</text>
</a>
</g>
</g>
<!-- Node0&#45;&gt;Node2 -->
<g id="edge2" class="edge">
<title>Node0&#45;&gt;Node2</title>
<path fill="none" stroke="#000000" d="M73.8157,-80.9334C89.3698,-88.4014 109.088,-97.5679 127,-105 134.9899,-108.3152 143.7889,-111.6477 151.8406,-114.5756"/>
<polygon fill="#000000" stroke="#000000" points="75.2487,-77.7386 64.7225,-76.5338 72.1998,-84.0398 75.2487,-77.7386"/>
</g>
<!-- Node1 -->
<g id="node3" class="node">
<title>Node1</title>
<g id="a_node3"><a xlink:href="group__ioproc.html" target="_top" xlink:title="Custom In&#45;/Ouput processors. ">
<polygon fill="#ffffff" stroke="#000000" points="137.5,-76.5 137.5,-95.5 220.5,-95.5 220.5,-76.5 137.5,-76.5"/>
<text text-anchor="middle" x="179" y="-83.5" font-family="Helvetica,sans-Serif" font-size="10.00" fill="#000000">I/O Processors</text>
</a>
</g>
</g>
<!-- Node0&#45;&gt;Node1 -->
<g id="edge1" class="edge">
<title>Node0&#45;&gt;Node1</title>
<path fill="none" stroke="#000000" d="M101.0755,-74.9096C113.1714,-76.6311 125.7712,-78.4244 137.2246,-80.0544"/>
<polygon fill="#000000" stroke="#000000" points="101.4632,-71.4296 91.0697,-73.4856 100.4768,-78.3598 101.4632,-71.4296"/>
</g>
<!-- Node3 -->
<g id="node4" class="node">
<title>Node3</title>
<g id="a_node4"><a xlink:href="group__datamodel.html" target="_top" xlink:title="Additional data&#45;models for embedded scriptings. ">
<polygon fill="#ffffff" stroke="#000000" points="142.5,-38.5 142.5,-57.5 215.5,-57.5 215.5,-38.5 142.5,-38.5"/>
<text text-anchor="middle" x="179" y="-45.5" font-family="Helvetica,sans-Serif" font-size="10.00" fill="#000000">Data&#45;Models</text>
</a>
</g>
</g>
<!-- Node0&#45;&gt;Node3 -->
<g id="edge3" class="edge">
<title>Node0&#45;&gt;Node3</title>
<path fill="none" stroke="#000000" d="M101.0865,-59.0888C115.0558,-57.1007 129.6964,-55.017 142.4668,-53.1995"/>
<polygon fill="#000000" stroke="#000000" points="100.4768,-55.6402 91.0697,-60.5144 101.4632,-62.5704 100.4768,-55.6402"/>
</g>
<!-- Node4 -->
<g id="node5" class="node">
<title>Node4</title>
<g id="a_node5"><a xlink:href="group__element.html" target="_top" xlink:title="Custom XML elements for executable content. ">
<polygon fill="#ffffff" stroke="#000000" points="127,-.5 127,-19.5 231,-19.5 231,-.5 127,-.5"/>
<text text-anchor="middle" x="179" y="-7.5" font-family="Helvetica,sans-Serif" font-size="10.00" fill="#000000">Executable Content</text>
</a>
</g>
</g>
<!-- Node0&#45;&gt;Node4 -->
<g id="edge4" class="edge">
<title>Node0&#45;&gt;Node4</title>
<path fill="none" stroke="#000000" d="M73.8157,-53.0666C89.3698,-45.5986 109.088,-36.4321 127,-29 134.9011,-25.7217 143.5935,-22.4264 151.5719,-19.5221"/>
<polygon fill="#000000" stroke="#000000" points="72.1998,-49.9602 64.7225,-57.4662 75.2487,-56.2614 72.1998,-49.9602"/>
</g>
</g>
</svg>
