<?xml version="1.0" encoding="UTF-8" standalone="no"?>
<!DOCTYPE svg PUBLIC "-//W3C//DTD SVG 1.1//EN"
 "http://www.w3.org/Graphics/SVG/1.1/DTD/svg11.dtd">
<!-- Generated by graphviz version 2.38.0 (20140413.2041)
 -->
<!-- Title: Content Executor Pages: 1 -->
<svg width="453pt" height="66pt"
 viewBox="0.00 0.00 453.00 66.00" xmlns="http://www.w3.org/2000/svg" xmlns:xlink="http://www.w3.org/1999/xlink">
<g id="graph0" class="graph" transform="scale(1 1) rotate(0) translate(4 62)">
<title>Content Executor</title>
<polygon fill="white" stroke="none" points="-4,4 -4,-62 449,-62 449,4 -4,4"/>
<!-- Node2 -->
<g id="node1" class="node"><title>Node2</title>
<g id="a_node1"><a xlink:href="group__facade.html" target="_top" xlink:title="User&#45;facing facades for the implementations. ">
<polygon fill="white" stroke="black" points="387.5,-38.5 387.5,-57.5 442.5,-57.5 442.5,-38.5 387.5,-38.5"/>
<text text-anchor="middle" x="415" y="-45.5" font-family="Helvetica,sans-Serif" font-size="10.00">Facades</text>
</a>
</g>
</g>
<!-- Node1 -->
<g id="node2" class="node"><title>Node1</title>
<g id="a_node2"><a xlink:href="group__interpreter.html" target="_top" xlink:title="The components constituting the core of the interpreter. ">
<polygon fill="white" stroke="black" points="0,-19.5 0,-38.5 63,-38.5 63,-19.5 0,-19.5"/>
<text text-anchor="middle" x="31.5" y="-26.5" font-family="Helvetica,sans-Serif" font-size="10.00">Interpreter</text>
</a>
</g>
</g>
<!-- Node0 -->
<g id="node3" class="node"><title>Node0</title>
<polygon fill="#bfbfbf" stroke="black" points="100,-19.5 100,-38.5 194,-38.5 194,-19.5 100,-19.5"/>
<text text-anchor="middle" x="147" y="-26.5" font-family="Helvetica,sans-Serif" font-size="10.00">Content Executor</text>
</g>
<!-- Node1&#45;&gt;Node0 -->
<g id="edge1" class="edge"><title>Node1&#45;&gt;Node0</title>
<path fill="none" stroke="black" d="M73.3879,-29C81.9917,-29 91.1244,-29 99.9042,-29"/>
<polygon fill="black" stroke="black" points="73.2148,-25.5001 63.2147,-29 73.2147,-32.5001 73.2148,-25.5001"/>
</g>
<!-- Node0&#45;&gt;Node2 -->
<g id="edge2" class="edge"><title>Node0&#45;&gt;Node2</title>
<path fill="none" stroke="orange" stroke-dasharray="5,2" d="M194.03,-32.2879C249.791,-36.2708 341.872,-42.848 387.157,-46.0827"/>
<text text-anchor="middle" x="289.5" y="-47" font-family="Helvetica,sans-Serif" font-size="10.00">uscxml::ContentExecutor</text>
</g>
<!-- Node3 -->
<g id="node4" class="node"><title>Node3</title>
<g id="a_node4"><a xlink:href="group__callback.html" target="_top" xlink:title="Callback interfaces. ">
<polygon fill="white" stroke="black" points="385,-0.5 385,-19.5 445,-19.5 445,-0.5 385,-0.5"/>
<text text-anchor="middle" x="415" y="-7.5" font-family="Helvetica,sans-Serif" font-size="10.00">Callbacks</text>
</a>
</g>
</g>
<!-- Node0&#45;&gt;Node3 -->
<g id="edge3" class="edge"><title>Node0&#45;&gt;Node3</title>
<path fill="none" stroke="orange" stroke-dasharray="5,2" d="M194.044,-20.3466C200.067,-19.4322 206.17,-18.6138 212,-18 273.257,-11.5507 345.459,-10.1842 384.811,-9.9625"/>
<text text-anchor="middle" x="289.5" y="-21" font-family="Helvetica,sans-Serif" font-size="10.00">uscxml::ContentExecutorCallbacks</text>
</g>
</g>
</svg>
