<?xml version="1.0" encoding="UTF-8" standalone="no"?>
<!DOCTYPE svg PUBLIC "-//W3C//DTD SVG 1.1//EN"
 "http://www.w3.org/Graphics/SVG/1.1/DTD/svg11.dtd">
<!-- Generated by graphviz version 2.38.0 (20140413.2041)
 -->
<!-- Title: Extension Points Pages: 1 -->
<svg width="239pt" height="142pt"
 viewBox="0.00 0.00 239.00 142.00" xmlns="http://www.w3.org/2000/svg" xmlns:xlink="http://www.w3.org/1999/xlink">
<g id="graph0" class="graph" transform="scale(1 1) rotate(0) translate(4 138)">
<title>Extension Points</title>
<polygon fill="white" stroke="none" points="-4,4 -4,-138 235,-138 235,4 -4,4"/>
<!-- Node0 -->
<g id="node1" class="node"><title>Node0</title>
<polygon fill="#bfbfbf" stroke="black" points="0,-57.5 0,-76.5 91,-76.5 91,-57.5 0,-57.5"/>
<text text-anchor="middle" x="45.5" y="-64.5" font-family="Helvetica,sans-Serif" font-size="10.00">Extension Points</text>
</g>
<!-- Node2 -->
<g id="node2" class="node"><title>Node2</title>
<g id="a_node2"><a xlink:href="group__invoker.html" target="_top" xlink:title="Types of components for the invoke element to summon. ">
<polygon fill="white" stroke="black" points="152,-114.5 152,-133.5 206,-133.5 206,-114.5 152,-114.5"/>
<text text-anchor="middle" x="179" y="-121.5" font-family="Helvetica,sans-Serif" font-size="10.00">Invokers</text>
</a>
</g>
</g>
<!-- Node0&#45;&gt;Node2 -->
<g id="edge2" class="edge"><title>Node0&#45;&gt;Node2</title>
<path fill="none" stroke="black" d="M74.9054,-81.1267C90.2004,-88.5504 109.476,-97.6152 127,-105 135.011,-108.376 143.85,-111.779 151.888,-114.754"/>
<polygon fill="black" stroke="black" points="76.0084,-77.77 65.4876,-76.5195 72.9322,-84.0579 76.0084,-77.77"/>
</g>
<!-- Node1 -->
<g id="node3" class="node"><title>Node1</title>
<g id="a_node3"><a xlink:href="group__ioproc.html" target="_top" xlink:title="Custom In&#45;/Ouput processors. ">
<polygon fill="white" stroke="black" points="137.5,-76.5 137.5,-95.5 220.5,-95.5 220.5,-76.5 137.5,-76.5"/>
<text text-anchor="middle" x="179" y="-83.5" font-family="Helvetica,sans-Serif" font-size="10.00">I/O Processors</text>
</a>
</g>
</g>
<!-- Node0&#45;&gt;Node1 -->
<g id="edge1" class="edge"><title>Node0&#45;&gt;Node1</title>
<path fill="none" stroke="black" d="M100.996,-74.874C113.063,-76.6175 125.651,-78.4362 137.068,-80.0859"/>
<polygon fill="black" stroke="black" points="101.418,-71.3986 91.0199,-73.4325 100.417,-78.3267 101.418,-71.3986"/>
</g>
<!-- Node3 -->
<g id="node4" class="node"><title>Node3</title>
<g id="a_node4"><a xlink:href="group__datamodel.html" target="_top" xlink:title="Additional data&#45;models for embedded scriptings. ">
<polygon fill="white" stroke="black" points="142.5,-38.5 142.5,-57.5 215.5,-57.5 215.5,-38.5 142.5,-38.5"/>
<text text-anchor="middle" x="179" y="-45.5" font-family="Helvetica,sans-Serif" font-size="10.00">Data&#45;Models</text>
</a>
</g>
</g>
<!-- Node0&#45;&gt;Node3 -->
<g id="edge3" class="edge"><title>Node0&#45;&gt;Node3</title>
<path fill="none" stroke="black" d="M100.996,-59.126C114.916,-57.1148 129.53,-55.0033 142.241,-53.1667"/>
<polygon fill="black" stroke="black" points="100.417,-55.6733 91.0199,-60.5675 101.418,-62.6014 100.417,-55.6733"/>
</g>
<!-- Node4 -->
<g id="node5" class="node"><title>Node4</title>
<g id="a_node5"><a xlink:href="group__element.html" target="_top" xlink:title="Custom XML elements for executable content. ">
<polygon fill="white" stroke="black" points="127,-0.5 127,-19.5 231,-19.5 231,-0.5 127,-0.5"/>
<text text-anchor="middle" x="179" y="-7.5" font-family="Helvetica,sans-Serif" font-size="10.00">Executable Content</text>
</a>
</g>
</g>
<!-- Node0&#45;&gt;Node4 -->
<g id="edge4" class="edge"><title>Node0&#45;&gt;Node4</title>
<path fill="none" stroke="black" d="M74.9054,-52.8733C90.2004,-45.4496 109.476,-36.3848 127,-29 134.749,-25.7343 143.275,-22.4429 151.1,-19.5383"/>
<polygon fill="black" stroke="black" points="72.9322,-49.9421 65.4876,-57.4805 76.0084,-56.23 72.9322,-49.9421"/>
</g>
</g>
</svg>
