<?xml version="1.0" encoding="UTF-8" standalone="no"?>
<!DOCTYPE svg PUBLIC "-//W3C//DTD SVG 1.1//EN"
 "http://www.w3.org/Graphics/SVG/1.1/DTD/svg11.dtd">
<!-- Generated by graphviz version 2.40.1 (20161225.0304)
 -->
<!-- Title: Interfaces Pages: 1 -->
<svg width="299pt" height="104pt"
 viewBox="0.00 0.00 299.00 104.00" xmlns="http://www.w3.org/2000/svg" xmlns:xlink="http://www.w3.org/1999/xlink">
<g id="graph0" class="graph" transform="scale(1 1) rotate(0) translate(4 100)">
<title>Interfaces</title>
<polygon fill="#ffffff" stroke="transparent" points="-4,4 -4,-100 295,-100 295,4 -4,4"/>
<!-- Node2 -->
<g id="node1" class="node">
<title>Node2</title>
<g id="a_node1"><a xlink:href="group__invoker.html" target="_top" xlink:title="Types of components for the invoke element to summon. ">
<polygon fill="#ffffff" stroke="#000000" points="222.5,-76.5 222.5,-95.5 276.5,-95.5 276.5,-76.5 222.5,-76.5"/>
<text text-anchor="middle" x="249.5" y="-83.5" font-family="Helvetica,sans-Serif" font-size="10.00" fill="#000000">Invokers</text>
</a>
</g>
</g>
<!-- Node3 -->
<g id="node2" class="node">
<title>Node3</title>
<g id="a_node2"><a xlink:href="group__ioproc.html" target="_top" xlink:title="Custom In&#45;/Ouput processors. ">
<polygon fill="#ffffff" stroke="#000000" points="208,-38.5 208,-57.5 291,-57.5 291,-38.5 208,-38.5"/>
<text text-anchor="middle" x="249.5" y="-45.5" font-family="Helvetica,sans-Serif" font-size="10.00" fill="#000000">I/O Processors</text>
</a>
</g>
</g>
<!-- Node1 -->
<g id="node3" class="node">
<title>Node1</title>
<g id="a_node3"><a xlink:href="group__datamodel.html" target="_top" xlink:title="Additional data&#45;models for embedded scriptings. ">
<polygon fill="#ffffff" stroke="#000000" points="213,-.5 213,-19.5 286,-19.5 286,-.5 213,-.5"/>
<text text-anchor="middle" x="249.5" y="-7.5" font-family="Helvetica,sans-Serif" font-size="10.00" fill="#000000">Data&#45;Models</text>
</a>
</g>
</g>
<!-- Node0 -->
<g id="node4" class="node">
<title>Node0</title>
<polygon fill="#bfbfbf" stroke="#000000" points="0,-38.5 0,-57.5 60,-57.5 60,-38.5 0,-38.5"/>
<text text-anchor="middle" x="30" y="-45.5" font-family="Helvetica,sans-Serif" font-size="10.00" fill="#000000">Interfaces</text>
</g>
<!-- Node0&#45;&gt;Node2 -->
<g id="edge2" class="edge">
<title>Node0&#45;&gt;Node2</title>
<path fill="none" stroke="#ffa500" stroke-dasharray="5,2" d="M57.7042,-57.5339C64.2981,-59.5584 71.3513,-61.5265 78,-63 128.2996,-74.1477 188.174,-80.6815 222.2202,-83.7803"/>
<text text-anchor="middle" x="134" y="-83" font-family="Helvetica,sans-Serif" font-size="10.00" fill="#000000">uscxml::InvokerImpl</text>
</g>
<!-- Node0&#45;&gt;Node3 -->
<g id="edge3" class="edge">
<title>Node0&#45;&gt;Node3</title>
<path fill="none" stroke="#ffa500" stroke-dasharray="5,2" d="M60.0603,-48C98.337,-48 164.6716,-48 207.8163,-48"/>
<text text-anchor="middle" x="134" y="-51" font-family="Helvetica,sans-Serif" font-size="10.00" fill="#000000">uscxml::IOProcessorImpl</text>
</g>
<!-- Node0&#45;&gt;Node1 -->
<g id="edge1" class="edge">
<title>Node0&#45;&gt;Node1</title>
<path fill="none" stroke="#ffa500" stroke-dasharray="5,2" d="M57.7042,-38.4661C64.2981,-36.4416 71.3513,-34.4735 78,-33 123.9002,-22.8273 177.7736,-16.4967 212.7178,-13.1124"/>
<text text-anchor="middle" x="134" y="-36" font-family="Helvetica,sans-Serif" font-size="10.00" fill="#000000">uscxml::DataModelImpl</text>
</g>
</g>
</svg>
