<?xml version="1.0" encoding="UTF-8" standalone="no"?>
<!DOCTYPE svg PUBLIC "-//W3C//DTD SVG 1.1//EN"
 "http://www.w3.org/Graphics/SVG/1.1/DTD/svg11.dtd">
<!-- Generated by graphviz version 2.40.1 (20161225.0304)
 -->
<!-- Title: Graphical Class Hierarchy Pages: 1 -->
<svg width="431pt" height="104pt"
 viewBox="0.00 0.00 431.00 104.00" xmlns="http://www.w3.org/2000/svg" xmlns:xlink="http://www.w3.org/1999/xlink">
<g id="graph0" class="graph" transform="scale(1 1) rotate(0) translate(4 100)">
<title>Graphical Class Hierarchy</title>
<polygon fill="#ffffff" stroke="transparent" points="-4,4 -4,-100 427,-100 427,4 -4,4"/>
<!-- Node0 -->
<g id="node1" class="node">
<title>Node0</title>
<g id="a_node1"><a xlink:href="classuscxml_1_1_transformer_impl.html" target="_top" xlink:title="uscxml::TransformerImpl">
<polygon fill="#ffffff" stroke="#000000" points="0,-38.5 0,-57.5 127,-57.5 127,-38.5 0,-38.5"/>
<text text-anchor="middle" x="63.5" y="-45.5" font-family="Helvetica,sans-Serif" font-size="10.00" fill="#000000">uscxml::TransformerImpl</text>
</a>
</g>
</g>
<!-- Node1 -->
<g id="node2" class="node">
<title>Node1</title>
<g id="a_node2"><a xlink:href="classuscxml_1_1_chart_to_c.html" target="_top" xlink:title="uscxml::ChartToC">
<polygon fill="#ffffff" stroke="#000000" points="163,-38.5 163,-57.5 260,-57.5 260,-38.5 163,-38.5"/>
<text text-anchor="middle" x="211.5" y="-45.5" font-family="Helvetica,sans-Serif" font-size="10.00" fill="#000000">uscxml::ChartToC</text>
</a>
</g>
</g>
<!-- Node0&#45;&gt;Node1 -->
<g id="edge1" class="edge">
<title>Node0&#45;&gt;Node1</title>
<path fill="none" stroke="#191970" d="M137.2307,-48C145.8658,-48 154.5058,-48 162.6804,-48"/>
<polygon fill="#191970" stroke="#191970" points="137.1243,-44.5001 127.1242,-48 137.1242,-51.5001 137.1243,-44.5001"/>
</g>
<!-- Node2 -->
<g id="node3" class="node">
<title>Node2</title>
<g id="a_node3"><a xlink:href="classuscxml_1_1_chart_to_java.html" target="_top" xlink:title="uscxml::ChartToJava">
<polygon fill="#ffffff" stroke="#000000" points="304.5,-76.5 304.5,-95.5 414.5,-95.5 414.5,-76.5 304.5,-76.5"/>
<text text-anchor="middle" x="359.5" y="-83.5" font-family="Helvetica,sans-Serif" font-size="10.00" fill="#000000">uscxml::ChartToJava</text>
</a>
</g>
</g>
<!-- Node1&#45;&gt;Node2 -->
<g id="edge2" class="edge">
<title>Node1&#45;&gt;Node2</title>
<path fill="none" stroke="#191970" d="M258.6735,-60.1121C279.2856,-65.4044 303.1093,-71.5213 322.4219,-76.4799"/>
<polygon fill="#191970" stroke="#191970" points="259.4029,-56.6859 248.8466,-57.589 257.662,-63.466 259.4029,-56.6859"/>
</g>
<!-- Node3 -->
<g id="node4" class="node">
<title>Node3</title>
<g id="a_node4"><a xlink:href="classuscxml_1_1_chart_to_promela.html" target="_top" xlink:title="uscxml::ChartToPromela">
<polygon fill="#ffffff" stroke="#000000" points="296,-38.5 296,-57.5 423,-57.5 423,-38.5 296,-38.5"/>
<text text-anchor="middle" x="359.5" y="-45.5" font-family="Helvetica,sans-Serif" font-size="10.00" fill="#000000">uscxml::ChartToPromela</text>
</a>
</g>
</g>
<!-- Node1&#45;&gt;Node3 -->
<g id="edge3" class="edge">
<title>Node1&#45;&gt;Node3</title>
<path fill="none" stroke="#191970" d="M270.4224,-48C278.7973,-48 287.4412,-48 295.9001,-48"/>
<polygon fill="#191970" stroke="#191970" points="270.3709,-44.5001 260.3709,-48 270.3709,-51.5001 270.3709,-44.5001"/>
</g>
<!-- Node4 -->
<g id="node5" class="node">
<title>Node4</title>
<g id="a_node5"><a xlink:href="classuscxml_1_1_chart_to_v_h_d_l.html" target="_top" xlink:title="uscxml::ChartToVHDL">
<polygon fill="#ffffff" stroke="#000000" points="301.5,-.5 301.5,-19.5 417.5,-19.5 417.5,-.5 301.5,-.5"/>
<text text-anchor="middle" x="359.5" y="-7.5" font-family="Helvetica,sans-Serif" font-size="10.00" fill="#000000">uscxml::ChartToVHDL</text>
</a>
</g>
</g>
<!-- Node1&#45;&gt;Node4 -->
<g id="edge4" class="edge">
<title>Node1&#45;&gt;Node4</title>
<path fill="none" stroke="#191970" d="M258.6735,-35.8879C279.2856,-30.5956 303.1093,-24.4787 322.4219,-19.5201"/>
<polygon fill="#191970" stroke="#191970" points="257.662,-32.534 248.8466,-38.411 259.4029,-39.3141 257.662,-32.534"/>
</g>
</g>
</svg>
