<?xml version="1.0" encoding="UTF-8" standalone="no"?>
<!DOCTYPE svg PUBLIC "-//W3C//DTD SVG 1.1//EN"
 "http://www.w3.org/Graphics/SVG/1.1/DTD/svg11.dtd">
<!-- Generated by graphviz version 2.38.0 (20140413.2041)
 -->
<!-- Title: Graphical Class Hierarchy Pages: 1 -->
<svg width="291pt" height="142pt"
 viewBox="0.00 0.00 291.00 142.00" xmlns="http://www.w3.org/2000/svg" xmlns:xlink="http://www.w3.org/1999/xlink">
<g id="graph0" class="graph" transform="scale(1 1) rotate(0) translate(4 138)">
<title>Graphical Class Hierarchy</title>
<polygon fill="white" stroke="none" points="-4,4 -4,-138 287,-138 287,4 -4,4"/>
<!-- Node1 -->
<g id="node1" class="node"><title>Node1</title>
<g id="a_node1"><a xlink:href="classuscxml_1_1_data_model_impl.html" target="_top" xlink:title="Abstract base class for all data&#45;model implementations. ">
<polygon fill="white" stroke="black" points="0,-57.5 0,-76.5 120,-76.5 120,-57.5 0,-57.5"/>
<text text-anchor="middle" x="60" y="-64.5" font-family="Helvetica,sans-Serif" font-size="10.00">uscxml::DataModelImpl</text>
</a>
</g>
</g>
<!-- Node2 -->
<g id="node2" class="node"><title>Node2</title>
<g id="a_node2"><a xlink:href="classuscxml_1_1_j_s_c_data_model.html" target="_top" xlink:title="ECMAScript data&#45;model via JavaScriptCore. ">
<polygon fill="white" stroke="black" points="159.5,-114.5 159.5,-133.5 279.5,-133.5 279.5,-114.5 159.5,-114.5"/>
<text text-anchor="middle" x="219.5" y="-121.5" font-family="Helvetica,sans-Serif" font-size="10.00">uscxml::JSCDataModel</text>
</a>
</g>
</g>
<!-- Node1&#45;&gt;Node2 -->
<g id="edge1" class="edge"><title>Node1&#45;&gt;Node2</title>
<path fill="none" stroke="midnightblue" d="M92.7785,-80.5004C111.114,-88.0906 134.69,-97.5144 156,-105 165.416,-108.308 175.744,-111.586 185.244,-114.465"/>
<polygon fill="midnightblue" stroke="midnightblue" points="94.021,-77.2265 83.4442,-76.6077 91.3266,-83.6872 94.021,-77.2265"/>
</g>
<!-- Node3 -->
<g id="node3" class="node"><title>Node3</title>
<g id="a_node3"><a xlink:href="classuscxml_1_1_lua_data_model.html" target="_top" xlink:title="Lua data&#45;model. ">
<polygon fill="white" stroke="black" points="160.5,-76.5 160.5,-95.5 278.5,-95.5 278.5,-76.5 160.5,-76.5"/>
<text text-anchor="middle" x="219.5" y="-83.5" font-family="Helvetica,sans-Serif" font-size="10.00">uscxml::LuaDataModel</text>
</a>
</g>
</g>
<!-- Node1&#45;&gt;Node3 -->
<g id="edge2" class="edge"><title>Node1&#45;&gt;Node3</title>
<path fill="none" stroke="midnightblue" d="M130.103,-75.3362C140.207,-76.5551 150.526,-77.8 160.382,-78.9889"/>
<polygon fill="midnightblue" stroke="midnightblue" points="130.443,-71.8519 120.095,-74.129 129.604,-78.8015 130.443,-71.8519"/>
</g>
<!-- Node4 -->
<g id="node4" class="node"><title>Node4</title>
<g id="a_node4"><a xlink:href="classuscxml_1_1_n_u_l_l_data_model.html" target="_top" xlink:title="NULL data&#45;model. ">
<polygon fill="white" stroke="black" points="156,-38.5 156,-57.5 283,-57.5 283,-38.5 156,-38.5"/>
<text text-anchor="middle" x="219.5" y="-45.5" font-family="Helvetica,sans-Serif" font-size="10.00">uscxml::NULLDataModel</text>
</a>
</g>
</g>
<!-- Node1&#45;&gt;Node4 -->
<g id="edge3" class="edge"><title>Node1&#45;&gt;Node4</title>
<path fill="none" stroke="midnightblue" d="M130.086,-58.6658C138.679,-57.6292 147.427,-56.5738 155.914,-55.55"/>
<polygon fill="midnightblue" stroke="midnightblue" points="129.604,-55.1985 120.095,-59.871 130.443,-62.1481 129.604,-55.1985"/>
</g>
<!-- Node5 -->
<g id="node5" class="node"><title>Node5</title>
<g id="a_node5"><a xlink:href="classuscxml_1_1_v8_data_model.html" target="_top" xlink:title="ECMAScript data&#45;model via Google&#39;s V8. ">
<polygon fill="white" stroke="black" points="162.5,-0.5 162.5,-19.5 276.5,-19.5 276.5,-0.5 162.5,-0.5"/>
<text text-anchor="middle" x="219.5" y="-7.5" font-family="Helvetica,sans-Serif" font-size="10.00">uscxml::V8DataModel</text>
</a>
</g>
</g>
<!-- Node1&#45;&gt;Node5 -->
<g id="edge4" class="edge"><title>Node1&#45;&gt;Node5</title>
<path fill="none" stroke="midnightblue" d="M92.7785,-53.4996C111.114,-45.9094 134.69,-36.4856 156,-29 165.416,-25.6923 175.744,-22.4136 185.244,-19.5347"/>
<polygon fill="midnightblue" stroke="midnightblue" points="91.3266,-50.3128 83.4442,-57.3923 94.021,-56.7735 91.3266,-50.3128"/>
</g>
</g>
</svg>
