<?xml version="1.0" encoding="UTF-8" standalone="no"?>
<!DOCTYPE svg PUBLIC "-//W3C//DTD SVG 1.1//EN"
 "http://www.w3.org/Graphics/SVG/1.1/DTD/svg11.dtd">
<!-- Generated by graphviz version 2.38.0 (20140413.2041)
 -->
<!-- Title: Graphical Class Hierarchy Pages: 1 -->
<svg width="512pt" height="88pt"
 viewBox="0.00 0.00 512.00 88.00" xmlns="http://www.w3.org/2000/svg" xmlns:xlink="http://www.w3.org/1999/xlink">
<g id="graph0" class="graph" transform="scale(1 1) rotate(0) translate(4 84)">
<title>Graphical Class Hierarchy</title>
<polygon fill="white" stroke="none" points="-4,4 -4,-84 508,-84 508,4 -4,4"/>
<!-- Node1 -->
<g id="node1" class="node"><title>Node1</title>
<g id="a_node1"><a xlink:href="classuscxml_1_1_event_queue_impl.html" target="_top" xlink:title="uscxml::EventQueueImpl">
<polygon fill="white" stroke="black" points="0,-36 0,-55 128,-55 128,-36 0,-36"/>
<text text-anchor="middle" x="64" y="-43" font-family="Helvetica,sans-Serif" font-size="10.00">uscxml::EventQueueImpl</text>
</a>
</g>
</g>
<!-- Node2 -->
<g id="node2" class="node"><title>Node2</title>
<g id="a_node2"><a xlink:href="classuscxml_1_1_basic_event_queue.html" target="_top" xlink:title="uscxml::BasicEventQueue">
<polygon fill="white" stroke="black" points="179.5,-17 179.5,-36 312.5,-36 312.5,-17 179.5,-17"/>
<text text-anchor="middle" x="246" y="-24" font-family="Helvetica,sans-Serif" font-size="10.00">uscxml::BasicEventQueue</text>
</a>
</g>
</g>
<!-- Node1&#45;&gt;Node2 -->
<g id="edge1" class="edge"><title>Node1&#45;&gt;Node2</title>
<path fill="none" stroke="midnightblue" d="M138.413,-37.7509C151.916,-36.3255 165.936,-34.8456 179.199,-33.4457"/>
<polygon fill="midnightblue" stroke="midnightblue" points="137.785,-34.2976 128.208,-38.828 138.52,-41.2589 137.785,-34.2976"/>
</g>
<!-- Node5 -->
<g id="node5" class="node"><title>Node5</title>
<g id="a_node5"><a xlink:href="classuscxml_1_1_delayed_event_queue_impl.html" target="_top" xlink:title="uscxml::DelayedEventQueueImpl">
<polygon fill="white" stroke="black" points="164,-55 164,-74 328,-74 328,-55 164,-55"/>
<text text-anchor="middle" x="246" y="-62" font-family="Helvetica,sans-Serif" font-size="10.00">uscxml::DelayedEventQueueImpl</text>
</a>
</g>
</g>
<!-- Node1&#45;&gt;Node5 -->
<g id="edge4" class="edge"><title>Node1&#45;&gt;Node5</title>
<path fill="none" stroke="midnightblue" d="M138.364,-53.244C146.789,-54.1333 155.416,-55.0439 163.934,-55.9431"/>
<polygon fill="midnightblue" stroke="midnightblue" points="138.52,-49.7411 128.208,-52.172 137.785,-56.7024 138.52,-49.7411"/>
</g>
<!-- Node3 -->
<g id="node3" class="node"><title>Node3</title>
<g id="a_node3"><a xlink:href="classuscxml_1_1_basic_delayed_event_queue.html" target="_top" xlink:title="uscxml::BasicDelayedEvent\lQueue">
<polygon fill="white" stroke="black" points="364,-49.5 364,-79.5 504,-79.5 504,-49.5 364,-49.5"/>
<text text-anchor="start" x="372" y="-67.5" font-family="Helvetica,sans-Serif" font-size="10.00">uscxml::BasicDelayedEvent</text>
<text text-anchor="middle" x="434" y="-56.5" font-family="Helvetica,sans-Serif" font-size="10.00">Queue</text>
</a>
</g>
</g>
<!-- Node2&#45;&gt;Node3 -->
<g id="edge2" class="edge"><title>Node2&#45;&gt;Node3</title>
<path fill="none" stroke="midnightblue" d="M303.9,-38.1247C322.848,-41.9959 344.163,-46.3505 363.93,-50.389"/>
<polygon fill="midnightblue" stroke="midnightblue" points="304.434,-34.6616 293.936,-36.089 303.033,-41.5199 304.434,-34.6616"/>
</g>
<!-- Node4 -->
<g id="node4" class="node"><title>Node4</title>
<g id="a_node4"><a xlink:href="classuscxml_1_1_u_s_c_x_m_l_invoker_1_1_parent_queue_impl.html" target="_top" xlink:title="uscxml::USCXMLInvoker\l::ParentQueueImpl">
<polygon fill="white" stroke="black" points="370,-0.5 370,-30.5 498,-30.5 498,-0.5 370,-0.5"/>
<text text-anchor="start" x="378" y="-18.5" font-family="Helvetica,sans-Serif" font-size="10.00">uscxml::USCXMLInvoker</text>
<text text-anchor="middle" x="434" y="-7.5" font-family="Helvetica,sans-Serif" font-size="10.00">::ParentQueueImpl</text>
</a>
</g>
</g>
<!-- Node2&#45;&gt;Node4 -->
<g id="edge3" class="edge"><title>Node2&#45;&gt;Node4</title>
<path fill="none" stroke="midnightblue" d="M322.749,-22.0202C338.406,-21.0943 354.74,-20.1283 369.889,-19.2324"/>
<polygon fill="midnightblue" stroke="midnightblue" points="322.353,-18.5375 312.577,-22.6218 322.766,-25.5252 322.353,-18.5375"/>
</g>
<!-- Node5&#45;&gt;Node3 -->
<g id="edge5" class="edge"><title>Node5&#45;&gt;Node3</title>
<path fill="none" stroke="midnightblue" d="M338.164,-64.5C346.811,-64.5 355.479,-64.5 363.869,-64.5"/>
<polygon fill="midnightblue" stroke="midnightblue" points="338.041,-61.0001 328.041,-64.5 338.041,-68.0001 338.041,-61.0001"/>
</g>
</g>
</svg>
