<?xml version="1.0" encoding="UTF-8" standalone="no"?>
<!DOCTYPE svg PUBLIC "-//W3C//DTD SVG 1.1//EN"
 "http://www.w3.org/Graphics/SVG/1.1/DTD/svg11.dtd">
<!-- Generated by graphviz version 2.38.0 (20140413.2041)
 -->
<!-- Title: Graphical Class Hierarchy Pages: 1 -->
<svg width="451pt" height="225pt"
 viewBox="0.00 0.00 451.00 224.50" xmlns="http://www.w3.org/2000/svg" xmlns:xlink="http://www.w3.org/1999/xlink">
<g id="graph0" class="graph" transform="scale(1 1) rotate(0) translate(4 220.5)">
<title>Graphical Class Hierarchy</title>
<polygon fill="white" stroke="none" points="-4,4 -4,-220.5 447,-220.5 447,4 -4,4"/>
<!-- Node1 -->
<g id="node1" class="node"><title>Node1</title>
<g id="a_node1"><a xlink:href="structuscxml_1_1_chart_to_v_h_d_l_1_1_v_node.html" target="_top" xlink:title="uscxml::ChartToVHDL\l::VNode">
<polygon fill="white" stroke="black" points="0,-63 0,-93 116,-93 116,-63 0,-63"/>
<text text-anchor="start" x="8" y="-81" font-family="Helvetica,sans-Serif" font-size="10.00">uscxml::ChartToVHDL</text>
<text text-anchor="middle" x="58" y="-70" font-family="Helvetica,sans-Serif" font-size="10.00">::VNode</text>
</a>
</g>
</g>
<!-- Node2 -->
<g id="node2" class="node"><title>Node2</title>
<g id="a_node2"><a xlink:href="structuscxml_1_1_chart_to_v_h_d_l_1_1_v_branch.html" target="_top" xlink:title="uscxml::ChartToVHDL\l::VBranch">
<polygon fill="white" stroke="black" points="152,-88 152,-118 268,-118 268,-88 152,-88"/>
<text text-anchor="start" x="160" y="-106" font-family="Helvetica,sans-Serif" font-size="10.00">uscxml::ChartToVHDL</text>
<text text-anchor="middle" x="210" y="-95" font-family="Helvetica,sans-Serif" font-size="10.00">::VBranch</text>
</a>
</g>
</g>
<!-- Node1&#45;&gt;Node2 -->
<g id="edge1" class="edge"><title>Node1&#45;&gt;Node2</title>
<path fill="none" stroke="midnightblue" d="M126.033,-89.1722C134.54,-90.5901 143.186,-92.031 151.525,-93.4209"/>
<polygon fill="midnightblue" stroke="midnightblue" points="126.576,-85.7144 116.136,-87.5227 125.425,-92.6192 126.576,-85.7144"/>
</g>
<!-- Node8 -->
<g id="node8" class="node"><title>Node8</title>
<g id="a_node8"><a xlink:href="structuscxml_1_1_chart_to_v_h_d_l_1_1_v_line.html" target="_top" xlink:title="uscxml::ChartToVHDL\l::VLine">
<polygon fill="white" stroke="black" points="152,-39 152,-69 268,-69 268,-39 152,-39"/>
<text text-anchor="start" x="160" y="-57" font-family="Helvetica,sans-Serif" font-size="10.00">uscxml::ChartToVHDL</text>
<text text-anchor="middle" x="210" y="-46" font-family="Helvetica,sans-Serif" font-size="10.00">::VLine</text>
</a>
</g>
</g>
<!-- Node1&#45;&gt;Node8 -->
<g id="edge7" class="edge"><title>Node1&#45;&gt;Node8</title>
<path fill="none" stroke="midnightblue" d="M126.033,-67.2747C134.54,-65.9135 143.186,-64.5302 151.525,-63.1959"/>
<polygon fill="midnightblue" stroke="midnightblue" points="125.458,-63.8221 116.136,-68.8582 126.564,-70.7342 125.458,-63.8221"/>
</g>
<!-- Node3 -->
<g id="node3" class="node"><title>Node3</title>
<g id="a_node3"><a xlink:href="structuscxml_1_1_chart_to_v_h_d_l_1_1_v_and.html" target="_top" xlink:title="uscxml::ChartToVHDL\l::VAnd">
<polygon fill="white" stroke="black" points="315.5,-186 315.5,-216 431.5,-216 431.5,-186 315.5,-186"/>
<text text-anchor="start" x="323.5" y="-204" font-family="Helvetica,sans-Serif" font-size="10.00">uscxml::ChartToVHDL</text>
<text text-anchor="middle" x="373.5" y="-193" font-family="Helvetica,sans-Serif" font-size="10.00">::VAnd</text>
</a>
</g>
</g>
<!-- Node2&#45;&gt;Node3 -->
<g id="edge2" class="edge"><title>Node2&#45;&gt;Node3</title>
<path fill="none" stroke="midnightblue" d="M234.234,-125.159C252.148,-141.292 278.155,-162.728 304,-177 309.957,-180.289 316.448,-183.259 322.984,-185.897"/>
<polygon fill="midnightblue" stroke="midnightblue" points="236.339,-122.341 226.602,-118.165 231.609,-127.502 236.339,-122.341"/>
</g>
<!-- Node4 -->
<g id="node4" class="node"><title>Node4</title>
<g id="a_node4"><a xlink:href="structuscxml_1_1_chart_to_v_h_d_l_1_1_v_assign.html" target="_top" xlink:title="uscxml::ChartToVHDL\l::VAssign">
<polygon fill="white" stroke="black" points="315.5,-137 315.5,-167 431.5,-167 431.5,-137 315.5,-137"/>
<text text-anchor="start" x="323.5" y="-155" font-family="Helvetica,sans-Serif" font-size="10.00">uscxml::ChartToVHDL</text>
<text text-anchor="middle" x="373.5" y="-144" font-family="Helvetica,sans-Serif" font-size="10.00">::VAssign</text>
</a>
</g>
</g>
<!-- Node2&#45;&gt;Node4 -->
<g id="edge3" class="edge"><title>Node2&#45;&gt;Node4</title>
<path fill="none" stroke="midnightblue" d="M270.699,-121.113C287.868,-126.322 306.403,-131.946 322.891,-136.948"/>
<polygon fill="midnightblue" stroke="midnightblue" points="271.359,-117.656 260.773,-118.101 269.326,-124.354 271.359,-117.656"/>
</g>
<!-- Node5 -->
<g id="node5" class="node"><title>Node5</title>
<g id="a_node5"><a xlink:href="structuscxml_1_1_chart_to_v_h_d_l_1_1_v_nop.html" target="_top" xlink:title="uscxml::ChartToVHDL\l::VNop">
<polygon fill="white" stroke="black" points="315.5,-88 315.5,-118 431.5,-118 431.5,-88 315.5,-88"/>
<text text-anchor="start" x="323.5" y="-106" font-family="Helvetica,sans-Serif" font-size="10.00">uscxml::ChartToVHDL</text>
<text text-anchor="middle" x="373.5" y="-95" font-family="Helvetica,sans-Serif" font-size="10.00">::VNop</text>
</a>
</g>
</g>
<!-- Node2&#45;&gt;Node5 -->
<g id="edge4" class="edge"><title>Node2&#45;&gt;Node5</title>
<path fill="none" stroke="midnightblue" d="M278.538,-103C290.761,-103 303.399,-103 315.291,-103"/>
<polygon fill="midnightblue" stroke="midnightblue" points="278.394,-99.5001 268.394,-103 278.394,-106.5 278.394,-99.5001"/>
</g>
<!-- Node6 -->
<g id="node6" class="node"><title>Node6</title>
<g id="a_node6"><a xlink:href="structuscxml_1_1_chart_to_v_h_d_l_1_1_v_not.html" target="_top" xlink:title="uscxml::ChartToVHDL\l::VNot">
<polygon fill="white" stroke="black" points="315.5,-39 315.5,-69 431.5,-69 431.5,-39 315.5,-39"/>
<text text-anchor="start" x="323.5" y="-57" font-family="Helvetica,sans-Serif" font-size="10.00">uscxml::ChartToVHDL</text>
<text text-anchor="middle" x="373.5" y="-46" font-family="Helvetica,sans-Serif" font-size="10.00">::VNot</text>
</a>
</g>
</g>
<!-- Node2&#45;&gt;Node6 -->
<g id="edge5" class="edge"><title>Node2&#45;&gt;Node6</title>
<path fill="none" stroke="midnightblue" d="M270.699,-84.8871C287.868,-79.6778 306.403,-74.0543 322.891,-69.0516"/>
<polygon fill="midnightblue" stroke="midnightblue" points="269.326,-81.6459 260.773,-87.8986 271.359,-88.3444 269.326,-81.6459"/>
</g>
<!-- Node7 -->
<g id="node7" class="node"><title>Node7</title>
<g id="a_node7"><a xlink:href="structuscxml_1_1_chart_to_v_h_d_l_1_1_v_or.html" target="_top" xlink:title="uscxml::ChartToVHDL::VOr">
<polygon fill="white" stroke="black" points="304,-0.5 304,-19.5 443,-19.5 443,-0.5 304,-0.5"/>
<text text-anchor="middle" x="373.5" y="-7.5" font-family="Helvetica,sans-Serif" font-size="10.00">uscxml::ChartToVHDL::VOr</text>
</a>
</g>
</g>
<!-- Node2&#45;&gt;Node7 -->
<g id="edge6" class="edge"><title>Node2&#45;&gt;Node7</title>
<path fill="none" stroke="midnightblue" d="M263.07,-82.5994C264.775,-81.4537 266.425,-80.2544 268,-79 289.418,-61.9388 281.535,-44.657 304,-29 309.569,-25.1189 315.906,-22.0285 322.426,-19.5681"/>
<polygon fill="midnightblue" stroke="midnightblue" points="260.979,-79.7705 254.169,-87.8868 264.554,-85.7888 260.979,-79.7705"/>
</g>
</g>
</svg>
