<?xml version="1.0" encoding="UTF-8" standalone="no"?>
<!DOCTYPE svg PUBLIC "-//W3C//DTD SVG 1.1//EN"
 "http://www.w3.org/Graphics/SVG/1.1/DTD/svg11.dtd">
<!-- Generated by graphviz version 2.40.1 (20161225.0304)
 -->
<!-- Title: uscxml::ChartToVHDL::VBranch Pages: 1 -->
<svg width="451pt" height="225pt"
 viewBox="0.00 0.00 451.00 224.50" xmlns="http://www.w3.org/2000/svg" xmlns:xlink="http://www.w3.org/1999/xlink">
<g id="graph0" class="graph" transform="scale(1 1) rotate(0) translate(4 220.5)">
<title>uscxml::ChartToVHDL::VBranch</title>
<polygon fill="#ffffff" stroke="transparent" points="-4,4 -4,-220.5 447,-220.5 447,4 -4,4"/>
<!-- Node1 -->
<g id="node1" class="node">
<title>Node1</title>
<polygon fill="#bfbfbf" stroke="#000000" points="152,-88 152,-118 268,-118 268,-88 152,-88"/>
<text text-anchor="start" x="160" y="-106" font-family="Helvetica,sans-Serif" font-size="10.00" fill="#000000">uscxml::ChartToVHDL</text>
<text text-anchor="middle" x="210" y="-95" font-family="Helvetica,sans-Serif" font-size="10.00" fill="#000000">::VBranch</text>
</g>
<!-- Node3 -->
<g id="node3" class="node">
<title>Node3</title>
<g id="a_node3"><a xlink:href="$structuscxml_1_1_chart_to_v_h_d_l_1_1_v_and.html" xlink:title="uscxml::ChartToVHDL\l::VAnd">
<polygon fill="#ffffff" stroke="#000000" points="315.5,-186 315.5,-216 431.5,-216 431.5,-186 315.5,-186"/>
<text text-anchor="start" x="323.5" y="-204" font-family="Helvetica,sans-Serif" font-size="10.00" fill="#000000">uscxml::ChartToVHDL</text>
<text text-anchor="middle" x="373.5" y="-193" font-family="Helvetica,sans-Serif" font-size="10.00" fill="#000000">::VAnd</text>
</a>
</g>
</g>
<!-- Node1&#45;&gt;Node3 -->
<g id="edge2" class="edge">
<title>Node1&#45;&gt;Node3</title>
<path fill="none" stroke="#191970" d="M233.5057,-125.1782C251.624,-141.3205 277.9155,-162.7599 304,-177 310.0503,-180.303 316.6405,-183.2804 323.2736,-185.9226"/>
<polygon fill="#191970" stroke="#191970" points="235.5456,-122.3032 225.7864,-118.1791 230.8437,-127.489 235.5456,-122.3032"/>
</g>
<!-- Node4 -->
<g id="node4" class="node">
<title>Node4</title>
<g id="a_node4"><a xlink:href="$structuscxml_1_1_chart_to_v_h_d_l_1_1_v_assign.html" xlink:title="uscxml::ChartToVHDL\l::VAssign">
<polygon fill="#ffffff" stroke="#000000" points="315.5,-137 315.5,-167 431.5,-167 431.5,-137 315.5,-137"/>
<text text-anchor="start" x="323.5" y="-155" font-family="Helvetica,sans-Serif" font-size="10.00" fill="#000000">uscxml::ChartToVHDL</text>
<text text-anchor="middle" x="373.5" y="-144" font-family="Helvetica,sans-Serif" font-size="10.00" fill="#000000">::VAssign</text>
</a>
</g>
</g>
<!-- Node1&#45;&gt;Node4 -->
<g id="edge3" class="edge">
<title>Node1&#45;&gt;Node4</title>
<path fill="none" stroke="#191970" d="M270.438,-121.1129C287.82,-126.3222 306.584,-131.9457 323.2769,-136.9484"/>
<polygon fill="#191970" stroke="#191970" points="270.9734,-117.6196 260.3895,-118.1014 268.9638,-124.325 270.9734,-117.6196"/>
</g>
<!-- Node5 -->
<g id="node5" class="node">
<title>Node5</title>
<g id="a_node5"><a xlink:href="$structuscxml_1_1_chart_to_v_h_d_l_1_1_v_nop.html" xlink:title="uscxml::ChartToVHDL\l::VNop">
<polygon fill="#ffffff" stroke="#000000" points="315.5,-88 315.5,-118 431.5,-118 431.5,-88 315.5,-88"/>
<text text-anchor="start" x="323.5" y="-106" font-family="Helvetica,sans-Serif" font-size="10.00" fill="#000000">uscxml::ChartToVHDL</text>
<text text-anchor="middle" x="373.5" y="-95" font-family="Helvetica,sans-Serif" font-size="10.00" fill="#000000">::VNop</text>
</a>
</g>
</g>
<!-- Node1&#45;&gt;Node5 -->
<g id="edge4" class="edge">
<title>Node1&#45;&gt;Node5</title>
<path fill="none" stroke="#191970" d="M278.3124,-103C290.6119,-103 303.3286,-103 315.3075,-103"/>
<polygon fill="#191970" stroke="#191970" points="278.1044,-99.5001 268.1043,-103 278.1043,-106.5001 278.1044,-99.5001"/>
</g>
<!-- Node6 -->
<g id="node6" class="node">
<title>Node6</title>
<g id="a_node6"><a xlink:href="$structuscxml_1_1_chart_to_v_h_d_l_1_1_v_not.html" xlink:title="uscxml::ChartToVHDL\l::VNot">
<polygon fill="#ffffff" stroke="#000000" points="315.5,-39 315.5,-69 431.5,-69 431.5,-39 315.5,-39"/>
<text text-anchor="start" x="323.5" y="-57" font-family="Helvetica,sans-Serif" font-size="10.00" fill="#000000">uscxml::ChartToVHDL</text>
<text text-anchor="middle" x="373.5" y="-46" font-family="Helvetica,sans-Serif" font-size="10.00" fill="#000000">::VNot</text>
</a>
</g>
</g>
<!-- Node1&#45;&gt;Node6 -->
<g id="edge5" class="edge">
<title>Node1&#45;&gt;Node6</title>
<path fill="none" stroke="#191970" d="M270.438,-84.8871C287.82,-79.6778 306.584,-74.0543 323.2769,-69.0516"/>
<polygon fill="#191970" stroke="#191970" points="268.9638,-81.675 260.3895,-87.8986 270.9734,-88.3804 268.9638,-81.675"/>
</g>
<!-- Node7 -->
<g id="node7" class="node">
<title>Node7</title>
<g id="a_node7"><a xlink:href="$structuscxml_1_1_chart_to_v_h_d_l_1_1_v_or.html" xlink:title="uscxml::ChartToVHDL::VOr">
<polygon fill="#ffffff" stroke="#000000" points="304,-.5 304,-19.5 443,-19.5 443,-.5 304,-.5"/>
<text text-anchor="middle" x="373.5" y="-7.5" font-family="Helvetica,sans-Serif" font-size="10.00" fill="#000000">uscxml::ChartToVHDL::VOr</text>
</a>
</g>
</g>
<!-- Node1&#45;&gt;Node7 -->
<g id="edge6" class="edge">
<title>Node1&#45;&gt;Node7</title>
<path fill="none" stroke="#191970" d="M232.9152,-80.6154C250.9061,-64.179 277.3014,-42.4575 304,-29 311.4839,-25.2277 319.811,-22.1286 328.0272,-19.6086"/>
<polygon fill="#191970" stroke="#191970" points="230.1951,-78.3663 225.2695,-87.7466 234.9696,-83.4853 230.1951,-78.3663"/>
</g>
<!-- Node2 -->
<g id="node2" class="node">
<title>Node2</title>
<g id="a_node2"><a xlink:href="$structuscxml_1_1_chart_to_v_h_d_l_1_1_v_node.html" xlink:title="uscxml::ChartToVHDL\l::VNode">
<polygon fill="#ffffff" stroke="#000000" points="0,-88 0,-118 116,-118 116,-88 0,-88"/>
<text text-anchor="start" x="8" y="-106" font-family="Helvetica,sans-Serif" font-size="10.00" fill="#000000">uscxml::ChartToVHDL</text>
<text text-anchor="middle" x="58" y="-95" font-family="Helvetica,sans-Serif" font-size="10.00" fill="#000000">::VNode</text>
</a>
</g>
</g>
<!-- Node2&#45;&gt;Node1 -->
<g id="edge1" class="edge">
<title>Node2&#45;&gt;Node1</title>
<path fill="none" stroke="#191970" d="M126.5423,-103C134.9862,-103 143.5541,-103 151.8236,-103"/>
<polygon fill="#191970" stroke="#191970" points="126.3325,-99.5001 116.3325,-103 126.3324,-106.5001 126.3325,-99.5001"/>
</g>
</g>
</svg>
